<svg width="2160" height="2700" viewBox="0 0 2160 2700" fill="none" xmlns="http://www.w3.org/2000/svg">
<g clip-path="url(#clip0_2085_36)">
<path d="M-34.5083 2736.99L2197.88 2736.99V-29.5298L-34.5083 -29.5298V2736.99Z" fill="#FF8184"/>
<path fill-rule="evenodd" clip-rule="evenodd" d="M840.36 2503.32C840.423 2503.72 840.471 2504.11 840.486 2504.53C840.74 2510.01 836.604 2515.21 831.26 2516.13C825.911 2517.05 821.369 2513.35 821.116 2507.86C820.862 2502.38 824.998 2497.18 830.342 2496.26C830.864 2496.17 831.376 2496.12 831.877 2496.12C834.694 2498.54 837.522 2500.94 840.36 2503.32ZM1595.02 1407.48C1594.49 1407.61 1593.93 1407.69 1593.37 1407.69C1589.11 1407.73 1585.64 1403.86 1585.62 1399.06C1585.6 1394.32 1588.95 1390.44 1593.12 1390.3C1593.83 1396 1594.46 1401.73 1595.02 1407.48ZM1460.03 1409.13C1459.54 1408.38 1459.45 1406.85 1459.84 1405.74C1460.22 1404.62 1460.95 1404.33 1461.44 1405.09C1461.94 1405.85 1462.03 1407.36 1461.64 1408.48C1461.25 1409.6 1460.54 1409.89 1460.03 1409.13ZM1567.04 1347.84C1566.54 1347.08 1566.45 1345.56 1566.84 1344.44C1567.23 1343.32 1567.95 1343.03 1568.45 1343.79C1568.95 1344.55 1569.04 1346.07 1568.65 1347.19C1568.26 1348.3 1567.54 1348.59 1567.04 1347.84ZM1233.62 978.66C1238.43 978.684 1242.34 982.734 1242.33 987.699C1242.33 992.664 1238.41 996.675 1233.59 996.651C1228.77 996.627 1224.87 992.577 1224.87 987.613C1224.88 982.648 1228.8 978.637 1233.62 978.66ZM1524.46 1230.68C1524.44 1225.88 1527.88 1221.96 1532.14 1221.92C1536.39 1221.88 1539.87 1225.75 1539.89 1230.55C1539.91 1235.35 1536.46 1239.28 1532.21 1239.32C1527.95 1239.35 1524.48 1235.48 1524.46 1230.68ZM1567.59 1443.12C1567.57 1438.31 1571.01 1434.39 1575.26 1434.35C1579.52 1434.31 1582.99 1438.18 1583.01 1442.98C1583.03 1447.78 1579.59 1451.71 1575.34 1451.75C1571.08 1451.78 1567.61 1447.91 1567.59 1443.12ZM587.942 1550.33C583.975 1550.26 580.815 1546.02 580.889 1540.86C580.963 1535.71 584.244 1531.59 588.211 1531.66C592.178 1531.74 595.338 1535.98 595.264 1541.13C595.19 1546.28 591.909 1550.41 587.942 1550.33ZM814.511 1032.21C814.474 1028.9 816.062 1026.15 818.056 1026.09C820.045 1026.02 821.69 1028.66 821.722 1031.97C821.759 1035.29 820.171 1038.03 818.177 1038.1C816.188 1038.16 814.542 1035.53 814.511 1032.21ZM878.147 1071.21C878.115 1067.89 879.703 1065.15 881.692 1065.08C883.681 1065.02 885.326 1067.65 885.363 1070.97C885.395 1074.28 883.807 1077.03 881.818 1077.09C879.824 1077.16 878.184 1074.52 878.147 1071.21ZM879.466 954.497C879.429 951.183 881.022 948.438 883.011 948.372C884.999 948.307 886.645 950.944 886.677 954.258C886.714 957.573 885.126 960.318 883.132 960.384C881.143 960.449 879.497 957.812 879.466 954.497ZM1284.99 969.581C1280.27 969.608 1276.44 965.022 1276.43 959.347C1276.43 953.671 1280.25 949.04 1284.96 949.013C1289.67 948.986 1293.5 953.572 1293.51 959.247C1293.52 964.923 1289.7 969.553 1284.99 969.581ZM1171.12 925.427C1166.41 925.454 1162.58 920.869 1162.56 915.193C1162.56 909.517 1166.38 904.886 1171.09 904.859C1175.81 904.832 1179.64 909.418 1179.65 915.094C1179.65 920.769 1175.83 925.399 1171.12 925.427ZM13.1098 901.145C10.6858 900.837 8.82147 897.36 8.92751 893.294C9.03512 889.161 11.1384 885.973 13.6204 886.18C16.1024 886.387 18.03 889.91 17.9224 894.043C17.8887 895.333 17.6608 896.531 17.2878 897.562C19.3615 898.077 21.0037 901.428 21.0976 905.636C21.2031 910.361 19.3177 914.39 16.8895 914.626C14.4613 914.862 12.4045 911.218 12.2984 906.493C12.2546 904.512 12.5606 902.652 13.1098 901.145ZM279.229 901.33C277.576 899.935 276.547 897.933 276.495 895.58C276.38 890.45 280.948 885.584 286.688 884.72C292.429 883.856 297.183 887.319 297.298 892.448C297.343 894.44 296.681 896.393 295.519 898.086C298.441 899.911 300.34 902.698 300.265 905.579C300.147 910.066 295.288 913.095 289.419 912.339C283.551 911.583 278.882 907.327 278.999 902.84C279.013 902.316 279.091 901.811 279.229 901.33ZM479.12 991.703C477.667 992.073 476.032 992.177 474.311 991.956C468.443 991.199 463.774 986.943 463.891 982.456C463.997 978.403 467.973 975.539 473.068 975.581C474.713 974.313 476.715 973.415 478.884 973.088C484.625 972.225 489.379 975.687 489.493 980.817C489.608 985.947 485.041 990.813 479.3 991.677C479.24 991.686 479.18 991.695 479.12 991.703ZM932.894 2763.45C932.91 2763.27 932.936 2763.08 932.962 2762.89C933.406 2759.93 934.841 2758.23 936.159 2759.09C937.093 2759.7 937.726 2761.44 937.858 2763.45H932.894ZM417.233 2550.97C416.178 2554.05 414.034 2554.63 412.45 2552.27C410.865 2549.9 410.436 2545.48 411.491 2542.4C412.546 2539.31 414.69 2538.73 416.274 2541.09C417.859 2543.46 418.288 2547.88 417.233 2550.97ZM120.802 2679.01C119.747 2682.09 117.604 2682.68 116.018 2680.31C114.434 2677.95 114.004 2673.52 115.059 2670.44C116.115 2667.36 118.258 2666.77 119.843 2669.14C121.428 2671.5 121.857 2675.93 120.802 2679.01ZM130.307 2423.49C129.251 2426.57 127.108 2427.16 125.523 2424.8C123.939 2422.43 123.509 2418.01 124.564 2414.93C125.619 2411.84 127.763 2411.26 129.348 2413.62C130.933 2415.98 131.362 2420.41 130.307 2423.49ZM279.363 2428.33C278.308 2431.41 276.165 2431.99 274.58 2429.63C272.996 2427.26 272.566 2422.84 273.621 2419.76C274.676 2416.67 276.82 2416.09 278.404 2418.46C279.989 2420.82 280.419 2425.24 279.363 2428.33ZM800.357 747.68C800.389 743.89 801.998 740.875 803.944 740.95C805.891 741.025 807.447 744.163 807.41 747.952C807.379 751.742 805.77 754.757 803.823 754.682C801.876 754.607 800.32 751.469 800.357 747.68ZM862.606 703.098C862.643 699.309 864.252 696.294 866.198 696.369C868.145 696.444 869.696 699.582 869.664 703.371C869.632 707.161 868.023 710.176 866.077 710.1C864.13 710.026 862.574 706.888 862.606 703.098ZM502.31 2759.22C500.496 2759.12 499.064 2755.74 499.115 2751.68C499.166 2747.61 500.681 2744.39 502.496 2744.49C504.31 2744.59 505.742 2747.97 505.691 2752.04C505.64 2756.1 504.125 2759.32 502.31 2759.22ZM516.593 2368.07C514.779 2367.96 513.344 2364.59 513.396 2360.52C513.449 2356.46 514.963 2353.23 516.778 2353.33C518.593 2353.43 520.022 2356.82 519.969 2360.88C519.922 2364.95 518.408 2368.17 516.593 2368.07ZM641.391 2707.98C639.576 2707.88 638.147 2704.49 638.194 2700.43C638.247 2696.36 639.761 2693.15 641.576 2693.24C643.39 2693.35 644.825 2696.73 644.773 2700.79C644.72 2704.86 643.206 2708.08 641.391 2707.98ZM1471.06 2492.89C1469.74 2492.02 1469.02 2488.92 1469.47 2485.97C1469.91 2483.01 1471.34 2481.31 1472.66 2482.17C1473.99 2483.03 1474.7 2486.13 1474.26 2489.09C1473.81 2492.05 1472.38 2493.75 1471.06 2492.89ZM1312.89 2685.72C1311.57 2684.85 1310.86 2681.75 1311.3 2678.79C1311.75 2675.83 1313.18 2674.13 1314.5 2674.99C1315.82 2675.86 1316.53 2678.96 1316.09 2681.92C1315.64 2684.88 1314.21 2686.58 1312.89 2685.72ZM1729.07 2727.6C1730.46 2727.68 1731.55 2730.25 1731.51 2733.36C1731.46 2736.45 1730.31 2738.91 1728.93 2738.83C1727.54 2738.75 1726.45 2736.17 1726.49 2733.08C1726.53 2729.97 1727.69 2727.52 1729.07 2727.6ZM1571.75 2329.03C1573.14 2329.11 1574.23 2331.69 1574.19 2334.79C1574.15 2337.88 1572.99 2340.34 1571.61 2340.26C1570.22 2340.18 1569.13 2337.6 1569.17 2334.5C1569.22 2331.4 1570.37 2328.95 1571.75 2329.03ZM1552.76 2725.77C1554.14 2725.84 1555.23 2728.42 1555.19 2731.52C1555.15 2734.62 1554 2737.07 1552.61 2736.99C1551.23 2736.92 1550.14 2734.34 1550.18 2731.24C1550.22 2728.14 1551.38 2725.69 1552.76 2725.77ZM1821.36 2594.11C1820.94 2593.47 1820.87 2592.21 1821.2 2591.28C1821.52 2590.35 1822.12 2590.11 1822.53 2590.74C1822.95 2591.37 1823.02 2592.64 1822.7 2593.56C1822.37 2594.49 1821.77 2594.73 1821.36 2594.11ZM1910.41 2543.09C1910 2542.46 1909.92 2541.2 1910.25 2540.27C1910.57 2539.34 1911.17 2539.09 1911.58 2539.73C1912 2540.35 1912.07 2541.62 1911.75 2542.55C1911.43 2543.48 1910.83 2543.72 1910.41 2543.09ZM1952.47 2455.99C1952.06 2455.36 1951.98 2454.09 1952.3 2453.17C1952.63 2452.24 1953.23 2451.99 1953.64 2452.62C1954.06 2453.25 1954.13 2454.52 1953.81 2455.45C1953.49 2456.38 1952.88 2456.62 1952.47 2455.99ZM2025.38 2629.61C2024.97 2628.97 2024.89 2627.71 2025.22 2626.78C2025.54 2625.85 2026.14 2625.61 2026.55 2626.24C2026.97 2626.87 2027.04 2628.14 2026.72 2629.06C2026.4 2629.99 2025.8 2630.23 2025.38 2629.61ZM1958.92 2658.16C1958.51 2657.54 1958.44 2656.27 1958.76 2655.34C1959.09 2654.41 1959.68 2654.17 1960.1 2654.8C1960.51 2655.43 1960.59 2656.69 1960.26 2657.62C1959.94 2658.55 1959.34 2658.8 1958.92 2658.16ZM2022.23 2695.69C2022.74 2695.71 2023.14 2696.67 2023.13 2697.82C2023.11 2698.97 2022.68 2699.87 2022.17 2699.85C2021.66 2699.82 2021.26 2698.86 2021.27 2697.71C2021.28 2696.56 2021.71 2695.66 2022.23 2695.69ZM2057.31 2742.87C2057.83 2742.9 2058.24 2743.59 2058.23 2744.4C2058.22 2745.22 2057.79 2745.87 2057.28 2745.84C2056.77 2745.81 2056.36 2745.12 2056.37 2744.3C2056.38 2743.48 2056.8 2742.83 2057.31 2742.87ZM1963.95 2548.04C1964.46 2548.07 1964.86 2549.02 1964.85 2550.17C1964.83 2551.32 1964.41 2552.23 1963.89 2552.2C1963.38 2552.17 1962.98 2551.21 1962.99 2550.07C1963.01 2548.92 1963.44 2548.01 1963.95 2548.04ZM1956.91 2695.01C1957.42 2695.04 1957.83 2695.99 1957.81 2697.14C1957.8 2698.29 1957.37 2699.2 1956.86 2699.17C1956.35 2699.14 1955.94 2698.19 1955.95 2697.04C1955.97 2695.89 1956.4 2694.98 1956.91 2695.01ZM1939.82 1766.44C1939.86 1763.68 1941.05 1761.53 1942.47 1761.63C1943.88 1761.74 1945 1764.05 1944.95 1766.81C1944.9 1769.56 1943.72 1771.71 1942.3 1771.61C1940.89 1771.51 1939.78 1769.19 1939.82 1766.44ZM2031.99 1470.12C2032.04 1467.37 2033.22 1465.21 2034.64 1465.31C2036.05 1465.42 2037.16 1467.73 2037.12 1470.49C2037.07 1473.24 2035.89 1475.4 2034.47 1475.29C2033.05 1475.19 2031.94 1472.87 2031.99 1470.12ZM1945.58 1714.84C1945.63 1712.08 1946.81 1709.93 1948.23 1710.03C1949.64 1710.14 1950.75 1712.46 1950.71 1715.21C1950.66 1717.96 1949.47 1720.12 1948.06 1720.01C1946.64 1719.91 1945.53 1717.59 1945.58 1714.84ZM1991.17 1951.4C1991.21 1948.64 1992.4 1946.49 1993.82 1946.59C1995.23 1946.7 1996.34 1949.02 1996.29 1951.77C1996.25 1954.52 1995.06 1956.68 1993.65 1956.57C1992.23 1956.47 1991.12 1954.15 1991.17 1951.4ZM1931.07 2045.18C1931.11 2042.42 1932.3 2040.27 1933.71 2040.38C1935.13 2040.48 1936.24 2042.79 1936.19 2045.55C1936.15 2048.3 1934.96 2050.45 1933.55 2050.35C1932.13 2050.25 1931.02 2047.93 1931.07 2045.18ZM1960.09 2736.49C1959.84 2731.49 1961.72 2726.98 1964.29 2726.43C1966.86 2725.87 1969.14 2729.48 1969.4 2734.48C1969.64 2739.48 1967.76 2743.98 1965.19 2744.54C1962.62 2745.09 1960.33 2741.49 1960.09 2736.49ZM2029.09 2641.81C2028.84 2636.81 2030.72 2632.3 2033.29 2631.75C2035.86 2631.19 2038.14 2634.8 2038.39 2639.8C2038.64 2644.8 2036.76 2649.3 2034.19 2649.86C2031.62 2650.42 2029.33 2646.81 2029.09 2641.81ZM1721.76 2668.83C1721.51 2663.84 1723.39 2659.33 1725.96 2658.77C1728.53 2658.22 1730.82 2661.83 1731.06 2666.83C1731.31 2671.82 1729.43 2676.33 1726.86 2676.88C1724.3 2677.44 1722.01 2673.83 1721.76 2668.83ZM1894.01 1469.68C1894.63 1469.72 1895.11 1470.86 1895.09 1472.24C1895.08 1473.62 1894.56 1474.71 1893.95 1474.68C1893.33 1474.65 1892.85 1473.5 1892.86 1472.12C1892.88 1470.74 1893.39 1469.65 1894.01 1469.68ZM1936.18 1526.37C1936.79 1526.4 1937.28 1527.23 1937.27 1528.22C1937.26 1529.2 1936.75 1529.97 1936.13 1529.94C1935.51 1529.91 1935.03 1529.08 1935.04 1528.09C1935.05 1527.11 1935.56 1526.33 1936.18 1526.37ZM1843.16 1557.34C1843.78 1557.37 1844.26 1558.52 1844.24 1559.9C1844.22 1561.28 1843.71 1562.37 1843.09 1562.34C1842.48 1562.3 1841.99 1561.15 1842.01 1559.77C1842.03 1558.39 1842.54 1557.3 1843.16 1557.34ZM368.379 1577.66C368.376 1578.94 367.837 1579.98 367.177 1579.97C366.516 1579.97 365.981 1578.91 365.984 1577.63C365.987 1576.35 366.526 1575.31 367.187 1575.31C367.848 1575.32 368.382 1576.37 368.379 1577.66ZM349.573 1597.78C349.57 1599.07 349.032 1600.11 348.371 1600.1C347.71 1600.09 347.175 1599.04 347.178 1597.76C347.181 1596.47 347.72 1595.43 348.381 1595.44C349.042 1595.45 349.576 1596.49 349.573 1597.78ZM1630.69 2095.45C1631.24 2093.86 1632.35 2093.55 1633.18 2094.76C1634.01 2095.97 1634.23 2098.24 1633.69 2099.84C1633.14 2101.43 1632.03 2101.74 1631.2 2100.53C1630.37 2099.32 1630.15 2097.05 1630.69 2095.45ZM1479.19 2377.2C1479.74 2375.61 1480.85 2375.3 1481.68 2376.51C1482.51 2377.72 1482.73 2380 1482.19 2381.59C1481.64 2383.18 1480.53 2383.49 1479.7 2382.28C1478.87 2381.07 1478.65 2378.8 1479.19 2377.2ZM1808.1 2300.55C1808.09 2302.49 1807.25 2304.06 1806.24 2304.03C1805.23 2304 1804.42 2302.39 1804.43 2300.44C1804.44 2298.48 1805.28 2296.93 1806.29 2296.95C1807.31 2296.98 1808.12 2298.59 1808.1 2300.55ZM1767.3 2435.29C1767.28 2437.24 1766.69 2438.81 1765.96 2438.78C1765.24 2438.76 1764.66 2437.16 1764.67 2435.21C1764.69 2433.26 1765.28 2431.69 1766.01 2431.71C1766.73 2431.73 1767.31 2433.33 1767.3 2435.29ZM1937.04 2075.14C1937.02 2077.09 1936.19 2078.65 1935.18 2078.62C1934.16 2078.59 1933.35 2076.98 1933.37 2075.03C1933.38 2073.08 1934.21 2071.51 1935.22 2071.55C1936.24 2071.58 1937.05 2073.19 1937.04 2075.14ZM1742.72 2141.1C1742.71 2143.05 1741.87 2144.61 1740.86 2144.58C1739.85 2144.55 1739.03 2142.94 1739.05 2140.99C1739.06 2139.04 1739.89 2137.48 1740.91 2137.51C1741.92 2137.54 1742.73 2139.14 1742.72 2141.1ZM1807.16 2051.8C1807.15 2053.75 1806.31 2055.31 1805.3 2055.28C1804.28 2055.25 1803.47 2053.64 1803.49 2051.69C1803.5 2049.74 1804.33 2048.18 1805.34 2048.21C1806.36 2048.24 1807.18 2049.84 1807.16 2051.8ZM1960.4 1761.91C1961.35 1761.96 1962.1 1763.69 1962.07 1765.79C1962.05 1767.88 1961.27 1769.55 1960.32 1769.51C1959.38 1769.46 1958.63 1767.72 1958.65 1765.63C1958.67 1763.54 1959.46 1761.87 1960.4 1761.91ZM2062.83 1895.53C2063.78 1895.57 2064.53 1897.31 2064.5 1899.41C2064.48 1901.5 2063.69 1903.16 2062.75 1903.12C2061.8 1903.08 2061.05 1901.34 2061.08 1899.25C2061.1 1897.15 2061.89 1895.49 2062.83 1895.53ZM1978.14 1769.95C1979.09 1770 1979.84 1771.73 1979.81 1773.83C1979.79 1775.92 1979.01 1777.59 1978.06 1777.54C1977.12 1777.5 1976.37 1775.77 1976.39 1773.67C1976.42 1771.58 1977.2 1769.91 1978.14 1769.95ZM1897.47 1839.56C1898.41 1839.6 1899.16 1841.33 1899.14 1843.43C1899.11 1845.52 1898.33 1847.19 1897.39 1847.14C1896.44 1847.1 1895.69 1845.36 1895.72 1843.27C1895.74 1841.18 1896.52 1839.51 1897.47 1839.56ZM1864.77 1751.51C1865.71 1751.55 1866.46 1753.29 1866.44 1755.38C1866.42 1757.48 1865.63 1759.15 1864.69 1759.1C1863.74 1759.06 1862.99 1757.32 1863.01 1755.23C1863.04 1753.13 1863.82 1751.47 1864.77 1751.51ZM1883.34 1070.23C1884.4 1067.14 1886.54 1066.56 1888.12 1068.93C1889.71 1071.3 1890.13 1075.73 1889.08 1078.81C1888.02 1081.89 1885.88 1082.47 1884.29 1080.1C1882.71 1077.73 1882.29 1073.31 1883.34 1070.23ZM1946.72 1107.23C1947.78 1104.15 1949.93 1103.57 1951.51 1105.94C1953.09 1108.31 1953.52 1112.73 1952.46 1115.81C1951.4 1118.89 1949.26 1119.47 1947.68 1117.1C1946.1 1114.74 1945.67 1110.31 1946.72 1107.23ZM1901.9 1474.14C1902.95 1471.06 1905.1 1470.48 1906.68 1472.85C1908.27 1475.21 1908.69 1479.64 1907.63 1482.72C1906.58 1485.8 1904.44 1486.38 1902.85 1484.01C1901.27 1481.64 1900.84 1477.22 1901.9 1474.14ZM1927.7 2220.37C1927.66 2224.16 1926.05 2227.17 1924.11 2227.09C1922.16 2227.01 1920.61 2223.87 1920.64 2220.08C1920.68 2216.29 1922.29 2213.28 1924.24 2213.36C1926.19 2213.44 1927.74 2216.58 1927.7 2220.37ZM1897.05 2246.9C1897.01 2250.69 1895.4 2253.7 1893.45 2253.62C1891.51 2253.54 1889.96 2250.4 1889.99 2246.61C1890.02 2242.83 1891.63 2239.81 1893.58 2239.89C1895.53 2239.97 1897.08 2243.11 1897.05 2246.9ZM1864.21 2131.38C1864.17 2135.16 1862.56 2138.17 1860.61 2138.09C1858.67 2138.01 1857.11 2134.88 1857.15 2131.08C1857.19 2127.3 1858.79 2124.28 1860.74 2124.37C1862.69 2124.45 1864.24 2127.58 1864.21 2131.38ZM1802.87 1909.38C1802.83 1913.17 1801.22 1916.18 1799.28 1916.1C1797.33 1916.02 1795.78 1912.88 1795.81 1909.09C1795.85 1905.3 1797.46 1902.29 1799.4 1902.37C1801.36 1902.45 1802.91 1905.59 1802.87 1909.38ZM1927.14 1737.43C1927.1 1741.22 1925.49 1744.23 1923.54 1744.15C1921.59 1744.07 1920.04 1740.93 1920.08 1737.14C1920.11 1733.36 1921.72 1730.34 1923.67 1730.42C1925.62 1730.5 1927.17 1733.64 1927.14 1737.43ZM18.6942 816.532C18.5887 811.807 20.4746 807.779 22.9028 807.543C25.3311 807.306 27.3879 810.95 27.4934 815.675C27.5989 820.4 25.713 824.428 23.2853 824.665C20.8571 824.901 18.7997 821.257 18.6942 816.532ZM112.519 1207.98C112.413 1203.25 114.299 1199.23 116.727 1198.99C119.155 1198.75 121.212 1202.4 121.318 1207.12C121.423 1211.85 119.537 1215.87 117.109 1216.11C114.681 1216.35 112.624 1212.7 112.519 1207.98ZM15.9605 1385.96C15.855 1381.23 17.7404 1377.2 20.1687 1376.97C22.5969 1376.73 24.6537 1380.38 24.7592 1385.1C24.8647 1389.83 22.9793 1393.86 20.5511 1394.09C18.1229 1394.33 16.066 1390.68 15.9605 1385.96ZM1210.34 808.899C1205.63 808.927 1201.8 804.341 1201.79 798.665C1201.79 792.99 1205.61 788.36 1210.32 788.332C1215.03 788.305 1218.86 792.891 1218.87 798.566C1218.88 804.242 1215.06 808.872 1210.34 808.899ZM1486.2 812.153C1485.09 812.159 1484.18 810.14 1484.18 807.646C1484.17 805.152 1485.08 803.122 1486.19 803.116C1487.3 803.11 1488.21 805.129 1488.21 807.623C1488.21 810.116 1487.31 812.147 1486.2 812.153ZM1596.77 2243.13C1592.69 2246.39 1586.76 2245.08 1583.53 2240.22C1580.3 2235.35 1580.98 2228.75 1585.06 2225.5C1589.14 2222.24 1595.07 2223.54 1598.3 2228.41C1601.53 2233.28 1600.85 2239.87 1596.77 2243.13ZM1068.86 2645.48C1064.79 2648.74 1058.86 2647.43 1055.62 2642.56C1052.39 2637.7 1053.08 2631.1 1057.15 2627.84C1061.23 2624.58 1067.17 2625.89 1070.4 2630.76C1073.63 2635.62 1072.94 2642.22 1068.86 2645.48ZM56.7872 2109.1C61.8536 2108.98 66.1181 2113.75 66.3044 2119.74C66.4911 2125.73 62.5294 2130.69 57.4629 2130.81C52.3971 2130.93 48.1325 2126.16 47.9458 2120.17C47.759 2114.18 51.7208 2109.21 56.7872 2109.1ZM-0.0858774 2300.8C4.98052 2300.68 9.24508 2305.45 9.43183 2311.44C9.61804 2317.43 5.65629 2322.39 0.590415 2322.51C-4.47599 2322.63 -8.74054 2317.86 -8.92729 2311.87C-9.11351 2305.88 -5.15228 2300.92 -0.0858774 2300.8ZM178.407 2304.26C183.474 2304.14 187.738 2308.91 187.924 2314.9C188.111 2320.89 184.149 2325.85 179.083 2325.97C174.017 2326.09 169.753 2321.32 169.566 2315.32C169.379 2309.34 173.341 2304.38 178.407 2304.26ZM477.804 2492.5C482.871 2492.38 487.135 2497.15 487.322 2503.14C487.509 2509.13 483.547 2514.09 478.481 2514.21C473.414 2514.33 469.15 2509.56 468.964 2503.57C468.777 2497.57 472.739 2492.61 477.804 2492.5ZM2098.85 2047.82C2099.07 2053.4 2094.83 2058.07 2089.39 2058.25C2083.96 2058.42 2079.38 2054.03 2079.16 2048.44C2078.95 2042.86 2083.19 2038.19 2088.62 2038.01C2094.06 2037.84 2098.64 2042.24 2098.85 2047.82ZM1966.48 1993.28C1966.7 1998.87 1962.46 2003.54 1957.03 2003.71C1951.59 2003.88 1947.01 1999.49 1946.79 1993.91C1946.58 1988.33 1950.82 1983.66 1956.25 1983.48C1961.69 1983.31 1966.27 1987.7 1966.48 1993.28ZM2076.06 1943.09C2076.27 1948.68 2072.03 1953.35 2066.6 1953.52C2061.17 1953.7 2056.58 1949.31 2056.36 1943.72C2056.15 1938.14 2060.4 1933.46 2065.83 1933.29C2071.26 1933.12 2075.85 1937.51 2076.06 1943.09ZM1904.09 2421.39C1904.31 2426.97 1900.07 2431.64 1894.63 2431.81C1889.2 2431.98 1884.62 2427.59 1884.4 2422.01C1884.19 2416.43 1888.43 2411.76 1893.86 2411.58C1899.3 2411.41 1903.88 2415.8 1904.09 2421.39ZM2136.21 2612.97C2136.42 2618.56 2132.18 2623.23 2126.75 2623.4C2121.31 2623.57 2116.72 2619.18 2116.51 2613.6C2116.3 2608.02 2120.54 2603.35 2125.97 2603.17C2131.41 2603 2136 2607.39 2136.21 2612.97ZM1755.05 2660.45C1754.99 2654.87 1759.35 2650.34 1764.79 2650.35C1770.23 2650.35 1774.7 2654.89 1774.76 2660.48C1774.82 2666.06 1770.45 2670.59 1765.01 2670.59C1759.57 2670.58 1755.11 2666.04 1755.05 2660.45ZM1731.23 2609.35C1731.16 2603.77 1735.53 2599.24 1740.97 2599.24C1746.41 2599.26 1750.88 2603.79 1750.94 2609.38C1750.99 2614.97 1746.63 2619.49 1741.19 2619.48C1735.75 2619.48 1731.28 2614.94 1731.23 2609.35ZM263.021 1882.17C259.054 1882.1 255.894 1877.86 255.968 1872.71C256.042 1867.56 259.322 1863.44 263.289 1863.51C267.256 1863.58 270.416 1867.83 270.343 1872.97C270.268 1878.12 266.988 1882.25 263.021 1882.17ZM216.203 1717.7C212.236 1717.62 209.075 1713.38 209.15 1708.23C209.223 1703.08 212.504 1698.95 216.471 1699.03C220.438 1699.1 223.598 1703.34 223.524 1708.5C223.45 1713.65 220.169 1717.77 216.203 1717.7ZM355.867 1713.76C351.9 1713.68 348.739 1709.44 348.814 1704.29C348.888 1699.14 352.168 1695.02 356.135 1695.09C360.102 1695.17 363.262 1699.41 363.188 1704.56C363.114 1709.71 359.833 1713.83 355.867 1713.76ZM1862.08 1923.82C1861.98 1928.62 1858.44 1932.42 1854.19 1932.3C1849.93 1932.18 1846.56 1928.18 1846.66 1923.39C1846.76 1918.59 1850.29 1914.79 1854.55 1914.9C1858.8 1915.02 1862.18 1919.02 1862.08 1923.82ZM1759.13 1971.41C1759.03 1976.21 1755.49 1980.01 1751.24 1979.89C1746.98 1979.77 1743.61 1975.78 1743.71 1970.98C1743.81 1966.18 1747.34 1962.38 1751.6 1962.5C1755.86 1962.62 1759.23 1966.61 1759.13 1971.41ZM1845.5 2013.96C1845.39 2018.76 1841.86 2022.56 1837.6 2022.44C1833.35 2022.32 1829.98 2018.33 1830.08 2013.53C1830.18 2008.73 1833.71 2004.93 1837.97 2005.05C1842.22 2005.17 1845.6 2009.16 1845.5 2013.96ZM473.902 2424.99C470.968 2429.67 464.687 2431.52 459.885 2429.12C455.084 2426.71 453.568 2420.96 456.503 2416.28C459.437 2411.59 465.718 2409.74 470.52 2412.15C475.321 2414.55 476.837 2420.31 473.902 2424.99ZM285.055 2406.7C282.12 2411.38 275.839 2413.23 271.038 2410.83C266.236 2408.42 264.721 2402.67 267.655 2397.99C270.59 2393.3 276.871 2391.45 281.672 2393.86C286.474 2396.26 287.99 2402.02 285.055 2406.7ZM382.22 2238.84C379.285 2243.53 373.005 2245.38 368.203 2242.97C363.402 2240.57 361.885 2234.81 364.82 2230.13C367.755 2225.44 374.036 2223.59 378.838 2226C383.639 2228.4 385.155 2234.16 382.22 2238.84ZM395.805 1889.37C392.87 1894.05 386.589 1895.9 381.787 1893.49C376.985 1891.09 375.47 1885.34 378.405 1880.65C381.339 1875.97 387.621 1874.12 392.422 1876.53C397.224 1878.93 398.739 1884.69 395.805 1889.37ZM457.365 804.56C457.25 799.431 461.817 794.564 467.558 793.701C473.299 792.836 478.053 796.299 478.168 801.429C478.282 806.559 473.715 811.425 467.974 812.289C462.233 813.153 457.479 809.69 457.365 804.56ZM306.186 1546.78C306.072 1541.65 310.639 1536.78 316.38 1535.92C322.121 1535.05 326.875 1538.52 326.989 1543.65C327.104 1548.78 322.537 1553.64 316.796 1554.51C311.055 1555.37 306.301 1551.91 306.186 1546.78ZM658.256 2703.59C652.907 2704.36 648.497 2700.51 648.418 2695C648.344 2689.49 652.622 2684.39 657.971 2683.62C663.326 2682.86 667.731 2686.71 667.81 2692.22C667.889 2697.73 663.611 2702.83 658.256 2703.59ZM1885.04 -0.0146484L1898.9 -0.0146484C1899.47 1.00815 1899.81 2.18035 1899.84 3.42724C1899.95 7.62187 1896.5 11.1155 1892.14 11.2189C1887.8 11.3281 1884.18 8.00113 1884.08 3.80075C1884.05 2.42169 1884.4 1.11733 1885.04 -0.0146484ZM1446.82 -0.0146484L1457.64 -0.0146484C1457.29 0.399069 1456.89 0.7726 1456.45 1.10013C1453.52 3.2549 1449.46 2.70324 1446.82 -0.0146484ZM942.289 760.445C942.252 757.13 943.845 754.386 945.834 754.32C947.823 754.254 949.469 756.892 949.501 760.207C949.538 763.521 947.95 766.266 945.956 766.331C943.967 766.398 942.326 763.759 942.289 760.445ZM815.36 609.78C815.323 606.466 816.911 603.721 818.905 603.656C820.894 603.589 822.54 606.227 822.571 609.542C822.608 612.857 821.021 615.601 819.026 615.667C817.038 615.733 815.392 613.095 815.36 609.78ZM1110.66 149.596C1108.8 149.584 1107.3 146.683 1107.31 143.126C1107.32 139.569 1108.83 136.69 1110.68 136.707C1112.54 136.719 1114.04 139.615 1114.03 143.172C1114.03 146.729 1112.51 149.607 1110.66 149.596ZM1309.71 648.998C1309.67 646.472 1310.86 644.345 1312.38 644.25C1313.89 644.156 1315.16 646.13 1315.21 648.655C1315.26 651.181 1314.07 653.309 1312.55 653.403C1311.04 653.498 1309.77 651.524 1309.71 648.998ZM1315.89 696.322C1315.84 693.797 1317.03 691.67 1318.54 691.575C1320.06 691.481 1321.34 693.455 1321.38 695.98C1321.43 698.506 1320.24 700.633 1318.72 700.727C1317.21 700.822 1315.93 698.848 1315.89 696.322ZM1364.75 479.357C1364.7 476.832 1365.89 474.705 1367.41 474.61C1368.92 474.515 1370.2 476.489 1370.25 479.015C1370.3 481.541 1369.1 483.668 1367.59 483.762C1366.07 483.857 1364.8 481.883 1364.75 479.357ZM1300.33 393.345C1300.28 390.819 1301.47 388.692 1302.99 388.598C1304.51 388.503 1305.78 390.477 1305.83 393.003C1305.87 395.528 1304.68 397.655 1303.17 397.75C1301.65 397.845 1300.38 395.871 1300.33 393.345ZM1979.32 141.092C1979.27 138.678 1980.41 136.65 1981.85 136.564C1983.3 136.472 1984.51 138.356 1984.56 140.764C1984.6 143.172 1983.47 145.2 1982.03 145.292C1980.57 145.378 1979.36 143.499 1979.32 141.092ZM2073.53 400.284C2073.49 397.876 2074.62 395.847 2076.07 395.757C2077.51 395.667 2078.73 397.549 2078.77 399.958C2078.82 402.367 2077.69 404.396 2076.24 404.485C2074.79 404.575 2073.58 402.693 2073.53 400.284ZM1985.2 186.224C1985.15 183.815 1986.29 181.786 1987.74 181.697C1989.18 181.607 1990.4 183.489 1990.44 185.898C1990.49 188.307 1989.35 190.335 1987.91 190.425C1986.46 190.515 1985.25 188.633 1985.2 186.224ZM1488.86 453.627C1489.37 452.966 1490.1 453.221 1490.5 454.197C1490.9 455.173 1490.81 456.503 1490.3 457.165C1489.79 457.827 1489.05 457.571 1488.66 456.595C1488.26 455.62 1488.35 454.289 1488.86 453.627ZM1598.25 507.246C1598.75 506.584 1599.49 506.839 1599.89 507.816C1600.29 508.791 1600.19 510.122 1599.69 510.783C1599.18 511.445 1598.44 511.19 1598.05 510.214C1597.65 509.238 1597.74 507.908 1598.25 507.246ZM1649.91 598.795C1650.41 598.133 1651.15 598.388 1651.55 599.364C1651.94 600.34 1651.85 601.67 1651.35 602.332C1650.84 602.994 1650.1 602.738 1649.7 601.763C1649.31 600.787 1649.4 599.457 1649.91 598.795ZM1739.47 416.315C1739.98 415.653 1740.71 415.908 1741.11 416.884C1741.51 417.86 1741.42 419.19 1740.91 419.851C1740.4 420.513 1739.66 420.258 1739.27 419.283C1738.87 418.306 1738.96 416.977 1739.47 416.315ZM1657.84 386.295C1658.35 385.633 1659.08 385.888 1659.48 386.864C1659.88 387.841 1659.79 389.17 1659.28 389.832C1658.77 390.494 1658.03 390.239 1657.64 389.263C1657.24 388.286 1657.33 386.957 1657.84 386.295ZM1932.48 400.666C1931.86 400.697 1931.33 399.742 1931.31 398.535C1931.29 397.328 1931.79 396.324 1932.42 396.294C1933.05 396.263 1933.58 397.218 1933.59 398.425C1933.61 399.632 1933.12 400.636 1932.48 400.666ZM1975.59 351.081C1974.96 351.112 1974.44 350.437 1974.43 349.574C1974.41 348.712 1974.91 347.987 1975.54 347.957C1976.17 347.926 1976.69 348.601 1976.71 349.464C1976.72 350.326 1976.22 351.051 1975.59 351.081ZM1860.9 555.856C1860.27 555.886 1859.75 554.931 1859.73 553.724C1859.71 552.518 1860.21 551.513 1860.84 551.483C1861.46 551.452 1861.99 552.407 1862.01 553.614C1862.03 554.821 1861.53 555.825 1860.9 555.856ZM1880.5 323.991C1879.87 324.021 1879.35 323.066 1879.33 321.86C1879.31 320.653 1879.81 319.649 1880.43 319.619C1881.07 319.588 1881.59 320.543 1881.61 321.749C1881.63 322.956 1881.13 323.96 1880.5 323.991ZM1852.26 401.381C1851.63 401.411 1851.1 400.456 1851.09 399.249C1851.07 398.043 1851.56 397.038 1852.19 397.008C1852.82 396.977 1853.34 397.932 1853.37 399.139C1853.38 400.346 1852.89 401.35 1852.26 401.381ZM1075.89 385.249C1075.85 383.48 1076.68 381.992 1077.74 381.926C1078.81 381.859 1079.7 383.241 1079.73 385.009C1079.77 386.776 1078.93 388.266 1077.87 388.332C1076.81 388.398 1075.92 387.017 1075.89 385.249ZM1145.04 575.484C1145 573.716 1145.83 572.227 1146.9 572.16C1147.96 572.094 1148.85 573.476 1148.88 575.244C1148.92 577.012 1148.08 578.501 1147.02 578.567C1145.96 578.633 1145.07 577.251 1145.04 575.484ZM1080.2 418.375C1080.17 416.607 1081 415.118 1082.06 415.052C1083.12 414.986 1084.02 416.367 1084.05 418.135C1084.08 419.903 1083.25 421.392 1082.19 421.458C1081.12 421.524 1080.24 420.143 1080.2 418.375ZM1114.41 266.504C1114.37 264.736 1115.2 263.247 1116.27 263.181C1117.33 263.115 1118.22 264.497 1118.25 266.265C1118.29 268.032 1117.46 269.522 1116.39 269.588C1115.33 269.654 1114.44 268.272 1114.41 266.504ZM1069.31 206.298C1069.28 204.53 1070.11 203.041 1071.18 202.975C1072.24 202.908 1073.13 204.29 1073.16 206.058C1073.2 207.826 1072.36 209.315 1071.3 209.381C1070.24 209.447 1069.35 208.066 1069.31 206.298ZM372.927 306.221C372.93 307.346 372.383 308.264 371.708 308.269C371.032 308.275 370.482 307.366 370.478 306.241C370.476 305.116 371.022 304.198 371.698 304.193C372.373 304.187 372.924 305.096 372.927 306.221ZM353.702 288.616C353.706 289.741 353.16 290.659 352.484 290.665C351.808 290.67 351.257 289.761 351.254 288.636C351.251 287.512 351.797 286.594 352.473 286.588C353.149 286.583 353.7 287.491 353.702 288.616ZM434.009 279.181C434.012 280.306 433.466 281.224 432.79 281.23C432.115 281.235 431.563 280.326 431.561 279.201C431.557 278.076 432.103 277.159 432.779 277.153C433.455 277.148 434.006 278.056 434.009 279.181ZM363.435 345.875C363.438 347 362.892 347.918 362.216 347.923C361.54 347.929 360.99 347.02 360.987 345.895C360.984 344.77 361.53 343.853 362.206 343.847C362.881 343.841 363.432 344.75 363.435 345.875ZM366.353 356.138C366.355 357.262 365.809 358.181 365.133 358.186C364.458 358.191 363.907 357.283 363.904 356.158C363.901 355.033 364.448 354.115 365.123 354.109C365.799 354.104 366.349 355.013 366.353 356.138ZM1535.54 287.174C1534.98 285.78 1535.21 283.789 1536.06 282.731C1536.91 281.672 1538.05 281.943 1538.6 283.337C1539.16 284.731 1538.93 286.722 1538.08 287.781C1537.24 288.839 1536.1 288.567 1535.54 287.174ZM2000.36 145.045C1999.39 145.079 1998.59 143.626 1998.56 141.793C1998.54 139.96 1999.31 138.443 2000.27 138.408C2001.24 138.368 2002.04 139.828 2002.06 141.655C2002.09 143.488 2001.32 145.005 2000.36 145.045ZM2105.06 28.1641C2104.1 28.2043 2103.29 26.7448 2103.27 24.9118C2103.25 23.0846 2104.01 21.5618 2104.98 21.5274C2105.94 21.4871 2106.74 22.9467 2106.77 24.7797C2106.79 26.6127 2106.03 28.1296 2105.06 28.1641ZM2018.49 138.012C2017.53 138.046 2016.72 136.592 2016.7 134.759C2016.68 132.926 2017.44 131.41 2018.41 131.369C2019.37 131.335 2020.18 132.789 2020.2 134.622C2020.22 136.455 2019.46 137.972 2018.49 138.012ZM1936.02 77.1321C1935.05 77.1666 1934.25 75.7128 1934.23 73.8798C1934.2 72.0468 1934.97 70.5299 1935.94 70.4954C1936.9 70.4552 1937.71 71.9147 1937.73 73.7477C1937.75 75.5749 1936.98 77.0976 1936.02 77.1321ZM1902.59 154.145C1901.63 154.182 1900.82 152.727 1900.8 150.894C1900.78 149.061 1901.55 147.544 1902.51 147.504C1903.48 147.47 1904.28 148.924 1904.3 150.757C1904.33 152.59 1903.56 154.108 1902.59 154.145ZM1841.4 631.092C1842.37 631.106 1843.14 632.605 1843.14 634.437C1843.13 636.27 1842.34 637.746 1841.37 637.732C1840.4 637.718 1839.63 636.219 1839.64 634.386C1839.64 632.554 1840.44 631.078 1841.4 631.092ZM1825.91 682.879C1826.88 682.893 1827.65 684.392 1827.65 686.224C1827.64 688.057 1826.85 689.533 1825.88 689.519C1824.92 689.505 1824.14 688.006 1824.15 686.173C1824.16 684.341 1824.95 682.865 1825.91 682.879ZM1819.39 464.919C1820.36 464.933 1821.14 466.432 1821.13 468.264C1821.12 470.097 1820.33 471.573 1819.36 471.559C1818.4 471.545 1817.62 470.046 1817.63 468.213C1817.64 466.381 1818.43 464.905 1819.39 464.919ZM1875.25 657.609C1876.22 657.623 1876.99 659.122 1876.99 660.954C1876.98 662.787 1876.19 664.263 1875.22 664.248C1874.26 664.235 1873.48 662.735 1873.49 660.903C1873.5 659.071 1874.29 657.595 1875.25 657.609ZM1884.12 649.899C1885.09 649.913 1885.86 651.412 1885.85 653.244C1885.85 655.077 1885.05 656.553 1884.09 656.538C1883.12 656.524 1882.35 655.025 1882.35 653.193C1882.36 651.361 1883.16 649.885 1884.12 649.899ZM1921.58 750.075C1920.5 747.38 1920.94 743.51 1922.56 741.439C1924.17 739.367 1926.37 739.874 1927.45 742.569C1928.52 745.264 1928.09 749.134 1926.47 751.206C1924.85 753.277 1922.66 752.77 1921.58 750.075ZM1986.37 717.706C1985.29 715.01 1985.73 711.14 1987.35 709.069C1988.96 706.997 1991.16 707.504 1992.24 710.199C1993.32 712.894 1992.88 716.764 1991.26 718.836C1989.64 720.907 1987.45 720.401 1986.37 717.706ZM1646.42 141.264C1645.34 138.569 1645.78 134.702 1647.4 132.628C1649.01 130.559 1651.21 131.065 1652.29 133.76C1653.36 136.455 1652.93 140.327 1651.31 142.396C1649.69 144.47 1647.5 143.959 1646.42 141.264ZM1940.55 396.765C1939.47 394.069 1939.91 390.199 1941.52 388.128C1943.14 386.056 1945.34 386.563 1946.41 389.258C1947.49 391.954 1947.06 395.823 1945.44 397.894C1943.82 399.966 1941.63 399.46 1940.55 396.765ZM1788.18 401.301C1787.1 398.606 1787.54 394.736 1789.15 392.664C1790.77 390.593 1792.96 391.099 1794.05 393.795C1795.13 396.49 1794.69 400.36 1793.07 402.431C1791.45 404.502 1789.26 403.996 1788.18 401.301ZM1839.32 16.0514C1839.35 19.3669 1837.77 22.1135 1835.78 22.1824C1833.79 22.2571 1832.14 19.6197 1832.11 16.3042C1832.07 12.9887 1833.66 10.2421 1835.65 10.1731C1837.63 10.1042 1839.28 12.7417 1839.32 16.0514ZM1966.35 166.459C1966.38 169.774 1964.8 172.522 1962.81 172.591C1960.81 172.661 1959.17 170.027 1959.14 166.712C1959.1 163.398 1960.68 160.65 1962.68 160.58C1964.66 160.51 1966.31 163.145 1966.35 166.459ZM15.4652 971.984C15.5733 967.851 17.6761 964.663 20.1581 964.87C22.6407 965.077 24.5683 968.601 24.4601 972.734C24.3525 976.866 22.2498 980.054 19.7672 979.847C17.2852 979.641 15.3576 976.117 15.4652 971.984ZM111.376 629.58C111.484 625.448 113.587 622.26 116.069 622.466C118.551 622.673 120.479 626.197 120.371 630.33C120.263 634.463 118.16 637.65 115.678 637.444C113.196 637.237 111.268 633.713 111.376 629.58ZM12.6703 473.898C12.7785 469.765 14.8812 466.577 17.3632 466.784C19.8458 466.99 21.7734 470.514 21.6653 474.647C21.5576 478.78 19.4549 481.968 16.9723 481.761C14.4903 481.554 12.5627 478.031 12.6703 473.898ZM1596.75 669.888C1597.89 669.893 1598.81 671.669 1598.81 673.85C1598.8 676.031 1597.88 677.798 1596.74 677.793C1595.6 677.787 1594.68 676.011 1594.68 673.83C1594.69 671.648 1595.61 669.882 1596.75 669.888ZM1578.98 806.032C1580.12 806.037 1581.04 807.813 1581.04 809.994C1581.03 812.175 1580.11 813.942 1578.97 813.936C1577.83 813.931 1576.91 812.155 1576.91 809.974C1576.91 807.792 1577.84 806.026 1578.98 806.032ZM1646.46 820.122C1647.6 820.128 1648.52 821.903 1648.52 824.085C1648.52 826.266 1647.59 828.033 1646.45 828.027C1645.31 828.021 1644.39 826.246 1644.4 824.065C1644.4 821.883 1645.32 820.116 1646.46 820.122ZM1765.14 797.572C1766.28 797.577 1767.2 799.352 1767.19 801.534C1767.19 803.715 1766.27 805.482 1765.13 805.476C1763.99 805.471 1763.07 803.695 1763.07 801.513C1763.07 799.332 1764 797.566 1765.14 797.572ZM1495.73 147.906C1492.42 150.337 1487.69 149.331 1485.17 145.654C1482.64 141.982 1483.27 137.023 1486.57 134.593C1489.87 132.162 1494.61 133.174 1497.13 136.845C1499.66 140.523 1499.03 145.476 1495.73 147.906ZM1337.05 81.9646C1333.74 84.3952 1329.01 83.3838 1326.48 79.7121C1323.96 76.0346 1324.59 71.0815 1327.89 68.6509C1331.2 66.2203 1335.93 67.2259 1338.45 70.9034C1340.98 74.5751 1340.35 79.534 1337.05 81.9646ZM1063.61 103.07C1060.3 105.5 1055.57 104.495 1053.04 100.817C1050.52 97.1457 1051.15 92.1868 1054.45 89.7562C1057.76 87.3256 1062.49 88.337 1065.01 92.0087C1067.54 95.6862 1066.91 100.639 1063.61 103.07ZM1068.4 447.938C1065.1 450.368 1060.37 449.359 1057.84 445.684C1055.32 442.01 1055.95 437.053 1059.25 434.622C1062.55 432.192 1067.28 433.201 1069.81 436.876C1072.34 440.55 1071.7 445.507 1068.4 447.938ZM265.226 39.8516C269.281 39.7884 272.634 43.3912 272.71 47.8961C272.786 52.401 269.555 56.113 265.5 56.1762C261.445 56.2452 258.091 52.6366 258.016 48.1317C257.94 43.6268 261.171 39.9148 265.226 39.8516ZM217.366 183.723C221.421 183.659 224.774 187.264 224.85 191.77C224.926 196.275 221.695 199.985 217.64 200.05C213.585 200.115 210.232 196.509 210.156 192.004C210.08 187.498 213.311 183.788 217.366 183.723ZM360.136 187.168C364.191 187.103 367.545 190.708 367.62 195.214C367.696 199.719 364.465 203.43 360.41 203.495C356.355 203.559 353.002 199.954 352.926 195.448C352.85 190.942 356.081 187.232 360.136 187.168ZM597.374 330.118C601.425 330.053 604.781 333.659 604.854 338.165C604.934 342.67 601.7 346.381 597.648 346.445C593.592 346.51 590.237 342.905 590.163 338.399C590.089 333.893 593.317 330.183 597.374 330.118ZM781.994 43.4429C786.051 43.3797 789.4 46.9825 789.479 51.4874C789.553 55.9923 786.325 59.7043 782.268 59.7675C778.211 59.8307 774.862 56.2279 774.782 51.723C774.709 47.2181 777.937 43.5061 781.994 43.4429ZM1739.42 283.388C1739.52 287.587 1736.08 291.08 1731.73 291.184C1727.38 291.288 1723.76 287.965 1723.66 283.767C1723.56 279.568 1727.01 276.075 1731.36 275.97C1735.71 275.866 1739.32 279.19 1739.42 283.388ZM1922.78 428.541C1922.89 432.739 1919.44 436.232 1915.09 436.337C1910.73 436.441 1907.12 433.117 1907.02 428.919C1906.92 424.721 1910.37 421.228 1914.72 421.123C1919.07 421.018 1922.68 424.342 1922.78 428.541ZM1554.72 609.72C1554.74 605.521 1558.29 602.137 1562.64 602.168C1566.99 602.2 1570.5 605.635 1570.48 609.835C1570.47 614.034 1566.92 617.418 1562.56 617.386C1558.21 617.354 1554.69 613.919 1554.72 609.72ZM1677.92 676.933C1677.94 672.734 1681.49 669.35 1685.84 669.381C1690.2 669.413 1693.71 672.848 1693.69 677.048C1693.67 681.247 1690.12 684.631 1685.77 684.599C1681.42 684.567 1677.9 681.132 1677.92 676.933ZM1588.58 711.37C1588.6 707.171 1592.15 703.787 1596.5 703.819C1600.85 703.851 1604.37 707.286 1604.35 711.485C1604.33 715.685 1600.78 719.068 1596.43 719.037C1592.08 719.005 1588.56 715.57 1588.58 711.37ZM1617.23 462.439C1617.25 458.24 1620.8 454.856 1625.16 454.888C1629.51 454.92 1633.02 458.355 1633.01 462.554C1632.98 466.753 1629.43 470.137 1625.08 470.105C1620.73 470.074 1617.22 466.638 1617.23 462.439ZM1598.8 423.903C1598.82 419.704 1602.37 416.32 1606.72 416.352C1611.08 416.384 1614.59 419.819 1614.57 424.018C1614.55 428.218 1611 431.601 1606.65 431.569C1602.3 431.538 1598.78 428.103 1598.8 423.903ZM400.962 33.5597C403.962 37.6566 402.412 42.6901 397.504 44.7932C392.596 46.8963 386.175 45.2759 383.175 41.179C380.175 37.082 381.725 32.0484 386.633 29.9454C391.542 27.8423 397.962 29.4627 400.962 33.5597ZM850.093 92.5086C853.094 96.6056 851.543 101.639 846.637 103.742C841.726 105.845 835.306 104.225 832.31 100.128C829.308 96.031 830.859 90.9974 835.765 88.8943C840.671 86.7912 847.096 88.4117 850.093 92.5086ZM475.469 825.543C475.586 821.056 480.446 818.026 486.315 818.783C492.183 819.538 496.852 823.795 496.735 828.282C496.617 832.769 491.758 835.798 485.889 835.042C480.021 834.286 475.351 830.03 475.469 825.543ZM673.328 590.368C673.444 585.881 678.308 582.852 684.174 583.608C690.045 584.364 694.714 588.62 694.593 593.107C694.477 597.594 689.618 600.623 683.747 599.867C677.88 599.112 673.212 594.855 673.328 590.368ZM309.351 333.226C309.468 328.739 314.328 325.71 320.197 326.466C326.065 327.222 330.734 331.478 330.617 335.965C330.499 340.452 325.639 343.481 319.771 342.725C313.903 341.97 309.234 337.713 309.351 333.226Z" fill="white"/>
<path fill-rule="evenodd" clip-rule="evenodd" d="M1837.51 432.875C1889.41 360.139 1941.32 287.404 1993.22 214.669C1994.86 212.377 1997.41 212.018 1997.84 211.958C1998.73 211.834 1999.65 211.875 2000.52 212.097C2000.94 212.205 2003.37 212.829 2004.86 215.369C2005.08 215.733 2006.3 217.83 2005.6 220.593C2005.37 221.485 2004.98 222.365 2004.41 223.088C1948.93 293.144 1892.98 362.818 1837.51 432.875Z" fill="#F7F189"/>
<path fill-rule="evenodd" clip-rule="evenodd" d="M164.327 1029.82C61.3781 995.192 60.8181 996.025 58.1111 993.329C57.8121 993.031 56.0901 991.317 56.0711 988.465C56.0681 988.03 56.0521 985.52 58.1291 983.434C58.4271 983.135 60.1411 981.413 62.9931 981.394C63.9151 981.388 64.8781 981.511 65.7091 981.908C98.684 997.665 131.352 1014.06 164.327 1029.82Z" fill="#F7F189"/>
<path fill-rule="evenodd" clip-rule="evenodd" d="M816.782 738.908C752.068 575.838 687.353 412.768 622.639 249.699C621.588 247.05 622.623 244.738 622.798 244.347C623.164 243.53 623.692 242.765 624.341 242.148C626.477 240.121 628.985 240.197 629.42 240.211C632.271 240.297 633.944 242.06 634.234 242.366C634.868 243.034 635.398 243.834 635.716 244.699C696.254 409.368 756.243 574.239 816.782 738.908Z" fill="#F7F189"/>
<path fill-rule="evenodd" clip-rule="evenodd" d="M1818.36 2299.58C1903.82 2362.13 1989.28 2424.68 2074.75 2487.23C2077.03 2488.9 2077.36 2491.44 2077.42 2491.87C2077.54 2492.75 2077.49 2493.68 2077.26 2494.55C2076.51 2497.39 2074.33 2498.64 2073.95 2498.86C2071.48 2500.28 2069.13 2499.66 2068.73 2499.55C2067.84 2499.32 2066.96 2498.92 2066.24 2498.35C1983.49 2432.25 1901.11 2365.68 1818.36 2299.58Z" fill="#F7F189"/>
<path fill-rule="evenodd" clip-rule="evenodd" d="M1413.76 2558.25C1467.41 2642.99 1468.39 2642.69 1468.78 2646.53C1469.07 2649.37 1467.54 2651.26 1467.27 2651.59C1465.42 2653.88 1462.92 2654.13 1462.49 2654.17C1459.65 2654.46 1457.76 2652.93 1457.43 2652.66C1456.72 2652.08 1456.05 2651.38 1455.66 2650.54C1441.48 2619.88 1427.95 2588.91 1413.76 2558.25Z" fill="#F7F189"/>
</g>
<defs>
<clipPath id="clip0_2085_36">
<rect width="2160" height="2700" fill="white"/>
</clipPath>
</defs>
</svg>
