<svg width="2160" height="2700" viewBox="0 0 2160 2700" fill="none" xmlns="http://www.w3.org/2000/svg">
<g clip-path="url(#clip0_605_622)">
<path d="M2182.79 -29.8691H-12.094V2714.69H2182.79V-29.8691Z" fill="#D8CF82" stroke="black" stroke-width="18.0236" stroke-miterlimit="1.5" stroke-linecap="round" stroke-linejoin="round"/>
<path fill-rule="evenodd" clip-rule="evenodd" d="M1093.55 -457.16L1104.38 954.603L1168.73 -333.956L1126.04 955.653L1253.84 -449.375L1147.63 957.752L1318.52 -319.376L1169.11 960.901L1412.84 -426.079L1190.44 965.088L1466.49 -290.333L1211.57 970.302L1569.27 -387.461L1232.47 976.543L1611.46 -247.061L1253.09 983.789L1721.87 -333.833L1273.38 992.028L1752.24 -189.908L1293.32 1001.24L1869.42 -265.625L1312.85 1011.42L1887.74 -119.335L1331.93 1022.52L2010.72 -183.388L1350.54 1034.54L2016.83 -35.9106L1368.63 1047.47L2144.62 -87.7828L1386.18 1061.25L2138.5 59.6955L1403.12 1075.86L2270.07 20.4208L1419.45 1091.29L2251.74 166.712L1435.11 1107.5L2386.04 140.352L1450.09 1124.44L2355.67 284.276L1464.36 1142.1L2491.62 271.043L1477.87 1160.43L2449.44 411.446L1490.62 1179.39L2585.93 411.446L1502.55 1198.96L2532.28 547.196L1513.68 1219.09L2668.22 560.423L1523.95 1239.74L2603.55 690.428L1533.36 1260.86L2737.84 716.781L1541.87 1282.42L2662.65 839.992L1549.49 1304.37L2794.22 879.257L1556.19 1326.67L2709.12 994.68L1561.96 1349.27L2836.91 1046.55L1566.77 1372.12L2742.58 1153.26L1570.65 1395.2L2865.56 1217.31L1573.56 1418.43L2762.77 1314.44L1575.5 1441.78L2879.95 1390.16L1576.47 1465.21L2769.52 1476.93L1576.47 1488.65L2879.95 1563.7L1575.5 1512.07L2762.77 1639.41L1573.56 1535.42L2865.56 1736.54L1570.65 1558.66L2742.58 1800.6L1566.77 1581.73L2836.91 1907.3L1561.96 1604.58L2709.12 1959.17L1556.19 1627.19L2794.22 2074.59L1549.49 1649.49L2662.65 2113.87L1541.87 1671.44L2737.84 2237.07L1533.36 1693L2603.55 2263.43L1523.95 1714.12L2668.22 2393.43L1513.68 1734.77L2532.28 2406.67L1502.55 1754.89L2585.93 2542.42L1490.62 1774.46L2449.44 2542.42L1477.87 1793.43L2491.62 2682.82L1464.36 1811.76L2355.67 2669.58L1450.09 1829.41L2386.04 2813.5L1435.11 1846.37L2251.74 2787.15L1419.45 1862.56L2270.07 2933.44L1403.12 1877.99L2138.5 2894.16L1386.18 1892.61L2144.62 3041.64L1368.63 1906.4L2016.83 2989.77L1350.54 1919.31L2010.72 3137.24L1331.93 1931.34L1887.74 3073.19L1312.85 1942.45L1869.42 3219.48L1293.32 1952.61L1752.24 3143.76L1273.38 1961.83L1721.87 3287.69L1253.09 1970.07L1611.46 3200.92L1232.47 1977.32L1569.27 3341.32L1211.57 1983.55L1466.49 3244.19L1190.44 1988.77L1412.84 3379.94L1169.11 1992.95L1318.52 3273.23L1147.63 1996.1L1253.84 3403.23L1126.04 1998.21L1168.73 3287.81L1104.38 1999.26L1093.55 3411.02L1082.71 1999.26L1018.36 3287.81L1061.05 1998.21L933.258 3403.23L1039.46 1996.1L868.572 3273.23L1017.98 1992.95L774.25 3379.94L996.647 1988.77L720.613 3244.19L975.521 1983.55L617.823 3341.32L954.622 1977.32L575.646 3200.92L934.003 1970.07L465.219 3287.69L913.708 1961.83L434.848 3143.76L893.781 1952.61L317.682 3219.48L874.243 1942.45L299.353 3073.19L855.158 1931.34L176.387 3137.24L836.548 1919.31L170.263 2989.77L818.457 1906.4L42.4685 3041.64L800.917 1892.61L48.5926 2894.16L783.97 1877.99L-82.9764 2933.44L767.65 1862.56L-64.6551 2787.15L751.979 1846.37L-198.952 2813.5L736.998 1829.41L-168.58 2669.58L722.741 1811.76L-304.521 2682.82L709.219 1793.43L-262.343 2542.42L696.474 1774.46L-398.834 2542.42L684.539 1754.89L-345.19 2406.67L673.414 1734.77L-481.131 2393.43L663.143 1714.12L-416.452 2263.43L653.735 1693L-550.749 2237.07L645.224 1671.44L-475.557 2113.87L637.599 1649.49L-607.129 2074.59L630.902 1627.19L-522.028 1959.17L625.135 1604.58L-649.815 1907.3L620.318 1581.73L-555.492 1800.6L616.44 1558.66L-678.465 1736.54L613.535 1535.42L-575.678 1639.41L611.591 1512.07L-692.849 1563.7L610.619 1488.65L-582.425 1476.93L610.619 1465.21L-692.849 1390.16L611.591 1441.78L-575.678 1314.44L613.535 1418.43L-678.465 1217.31L616.44 1395.2L-555.492 1153.26L620.318 1372.12L-649.815 1046.55L625.135 1349.27L-522.028 994.68L630.902 1326.67L-607.129 879.257L637.599 1304.37L-475.557 839.992L645.224 1282.42L-550.749 716.781L653.735 1260.86L-416.452 690.428L663.143 1239.74L-481.131 560.423L673.414 1219.09L-345.19 547.196L684.539 1198.96L-398.834 411.446L696.474 1179.39L-262.343 411.446L709.219 1160.43L-304.521 271.043L722.741 1142.1L-168.58 284.276L736.998 1124.44L-198.952 140.352L751.979 1107.5L-64.6551 166.712L767.65 1091.29L-82.9764 20.4208L783.97 1075.86L48.5926 59.6955L800.917 1061.25L42.4685 -87.7828L818.457 1047.47L170.263 -35.9106L836.548 1034.54L176.387 -183.388L855.158 1022.52L299.353 -119.335L874.243 1011.42L317.682 -265.625L893.781 1001.24L434.848 -189.908L913.708 992.028L465.219 -333.833L934.003 983.789L575.646 -247.061L954.622 976.543L617.823 -387.461L975.521 970.302L720.613 -290.333L996.647 965.088L774.25 -426.079L1017.98 960.901L868.572 -319.376L1039.46 957.752L933.258 -449.375L1061.05 955.653L1018.36 -333.956L1082.71 954.603L1093.55 -457.16Z" fill="#D8CF82"/>
<path fill-rule="evenodd" clip-rule="evenodd" d="M1093.55 -457.16L1104.38 954.603L1168.73 -333.956L1126.04 955.653L1253.84 -449.375L1147.63 957.752L1318.52 -319.376L1169.11 960.901L1412.84 -426.079L1190.44 965.088L1466.49 -290.333L1211.57 970.302L1569.27 -387.461L1232.47 976.543L1611.46 -247.061L1253.09 983.789L1721.87 -333.833L1273.38 992.028L1752.24 -189.908L1293.32 1001.24L1869.42 -265.625L1312.85 1011.42L1887.74 -119.335L1331.93 1022.52L2010.72 -183.388L1350.54 1034.54L2016.83 -35.9106L1368.63 1047.47L2144.62 -87.7828L1386.18 1061.25L2138.5 59.6955L1403.12 1075.86L2270.07 20.4208L1419.45 1091.29L2251.74 166.712L1435.11 1107.5L2386.04 140.352L1450.09 1124.44L2355.67 284.276L1464.36 1142.1L2491.62 271.043L1477.87 1160.43L2449.44 411.446L1490.62 1179.39L2585.93 411.446L1502.55 1198.96L2532.28 547.196L1513.68 1219.09L2668.22 560.423L1523.95 1239.74L2603.55 690.428L1533.36 1260.86L2737.84 716.781L1541.87 1282.42L2662.65 839.992L1549.49 1304.37L2794.22 879.257L1556.19 1326.67L2709.12 994.68L1561.96 1349.27L2836.91 1046.55L1566.77 1372.12L2742.58 1153.26L1570.65 1395.2L2865.56 1217.31L1573.56 1418.43L2762.77 1314.44L1575.5 1441.78L2879.95 1390.16L1576.47 1465.21L2769.52 1476.93L1576.47 1488.65L2879.95 1563.7L1575.5 1512.07L2762.77 1639.41L1573.56 1535.42L2865.56 1736.54L1570.65 1558.66L2742.58 1800.6L1566.77 1581.73L2836.91 1907.3L1561.96 1604.58L2709.12 1959.17L1556.19 1627.19L2794.22 2074.59L1549.49 1649.49L2662.65 2113.87L1541.87 1671.44L2737.84 2237.07L1533.36 1693L2603.55 2263.43L1523.95 1714.12L2668.22 2393.43L1513.68 1734.77L2532.28 2406.67L1502.55 1754.89L2585.93 2542.42L1490.62 1774.46L2449.44 2542.42L1477.87 1793.43L2491.62 2682.82L1464.36 1811.76L2355.67 2669.58L1450.09 1829.41L2386.04 2813.5L1435.11 1846.37L2251.74 2787.15L1419.45 1862.56L2270.07 2933.44L1403.12 1877.99L2138.5 2894.16L1386.18 1892.61L2144.62 3041.64L1368.63 1906.4L2016.83 2989.77L1350.54 1919.31L2010.72 3137.24L1331.93 1931.34L1887.74 3073.19L1312.85 1942.45L1869.42 3219.48L1293.32 1952.61L1752.24 3143.76L1273.38 1961.83L1721.87 3287.69L1253.09 1970.07L1611.46 3200.92L1232.47 1977.32L1569.27 3341.32L1211.57 1983.55L1466.49 3244.19L1190.44 1988.77L1412.84 3379.94L1169.11 1992.95L1318.52 3273.23L1147.63 1996.1L1253.84 3403.23L1126.04 1998.21L1168.73 3287.81L1104.38 1999.26L1093.55 3411.02L1082.71 1999.26L1018.36 3287.81L1061.05 1998.21L933.258 3403.23L1039.46 1996.1L868.572 3273.23L1017.98 1992.95L774.25 3379.94L996.647 1988.77L720.613 3244.19L975.521 1983.55L617.823 3341.32L954.622 1977.32L575.646 3200.92L934.003 1970.07L465.219 3287.69L913.708 1961.83L434.848 3143.76L893.781 1952.61L317.682 3219.48L874.243 1942.45L299.353 3073.19L855.158 1931.34L176.387 3137.24L836.548 1919.31L170.263 2989.77L818.457 1906.4L42.4685 3041.64L800.917 1892.61L48.5926 2894.16L783.97 1877.99L-82.9764 2933.44L767.65 1862.56L-64.6551 2787.15L751.979 1846.37L-198.952 2813.5L736.998 1829.41L-168.58 2669.58L722.741 1811.76L-304.521 2682.82L709.219 1793.43L-262.343 2542.42L696.474 1774.46L-398.834 2542.42L684.539 1754.89L-345.19 2406.67L673.414 1734.77L-481.131 2393.43L663.143 1714.12L-416.452 2263.43L653.735 1693L-550.749 2237.07L645.224 1671.44L-475.557 2113.87L637.599 1649.49L-607.129 2074.59L630.902 1627.19L-522.028 1959.17L625.135 1604.58L-649.815 1907.3L620.318 1581.73L-555.492 1800.6L616.44 1558.66L-678.465 1736.54L613.535 1535.42L-575.678 1639.41L611.591 1512.07L-692.849 1563.7L610.619 1488.65L-582.425 1476.93L610.619 1465.21L-692.849 1390.16L611.591 1441.78L-575.678 1314.44L613.535 1418.43L-678.465 1217.31L616.44 1395.2L-555.492 1153.26L620.318 1372.12L-649.815 1046.55L625.135 1349.27L-522.028 994.68L630.902 1326.67L-607.129 879.257L637.599 1304.37L-475.557 839.992L645.224 1282.42L-550.749 716.781L653.735 1260.86L-416.452 690.428L663.143 1239.74L-481.131 560.423L673.414 1219.09L-345.19 547.196L684.539 1198.96L-398.834 411.446L696.474 1179.39L-262.343 411.446L709.219 1160.43L-304.521 271.043L722.741 1142.1L-168.58 284.276L736.998 1124.44L-198.952 140.352L751.979 1107.5L-64.6551 166.712L767.65 1091.29L-82.9764 20.4208L783.97 1075.86L48.5926 59.6955L800.917 1061.25L42.4685 -87.7828L818.457 1047.47L170.263 -35.9106L836.548 1034.54L176.387 -183.388L855.158 1022.52L299.353 -119.335L874.243 1011.42L317.682 -265.625L893.781 1001.24L434.848 -189.908L913.708 992.028L465.219 -333.833L934.003 983.789L575.646 -247.061L954.622 976.543L617.823 -387.461L975.521 970.302L720.613 -290.333L996.647 965.088L774.25 -426.079L1017.98 960.901L868.572 -319.376L1039.46 957.752L933.258 -449.375L1061.05 955.653L1018.36 -333.956L1082.71 954.603L1093.55 -457.16ZM644.285 1476.93C645.484 1480.35 646.164 1484 646.25 1487.81C646.348 1491.68 645.818 1495.43 644.749 1498.97C646.045 1502.24 646.866 1505.77 647.147 1509.46C647.428 1513.44 647.06 1517.3 646.121 1520.95C647.525 1524.11 648.486 1527.53 648.918 1531.13C649.404 1535.15 649.21 1539.1 648.41 1542.86C649.89 1545.87 650.981 1549.15 651.575 1552.62C652.277 1556.71 652.256 1560.75 651.597 1564.62C653.174 1567.51 654.372 1570.67 655.118 1574.03C656.025 1578.14 656.187 1582.25 655.69 1586.2C657.343 1588.95 658.639 1591.97 659.524 1595.2C660.658 1599.34 661.004 1603.51 660.669 1607.55C662.397 1610.18 663.802 1613.07 664.817 1616.2C666.156 1620.33 666.696 1624.53 666.534 1628.65C668.316 1631.12 669.807 1633.87 670.941 1636.85C672.507 1640.99 673.252 1645.24 673.263 1649.41C675.11 1651.77 676.687 1654.39 677.929 1657.27C679.7 1661.36 680.651 1665.61 680.834 1669.83C682.735 1672.04 684.388 1674.53 685.727 1677.27C687.725 1681.33 688.881 1685.58 689.259 1689.84C691.203 1691.94 692.931 1694.31 694.378 1696.93C696.571 1700.92 697.921 1705.15 698.493 1709.42C700.481 1711.38 702.263 1713.62 703.797 1716.11C706.205 1720.03 707.76 1724.24 708.516 1728.52C710.558 1730.37 712.416 1732.49 714.025 1734.87C716.617 1738.69 718.378 1742.84 719.328 1747.09C721.402 1748.82 723.313 1750.82 724.998 1753.07C727.785 1756.79 729.74 1760.89 730.885 1765.12C733.012 1766.74 734.978 1768.63 736.75 1770.78C739.698 1774.37 741.837 1778.37 743.176 1782.54C745.325 1784.06 747.345 1785.83 749.181 1787.86C752.303 1791.32 754.635 1795.23 756.158 1799.35C758.362 1800.76 760.446 1802.43 762.358 1804.37C765.62 1807.68 768.115 1811.46 769.821 1815.5C772.068 1816.8 774.196 1818.35 776.172 1820.18C779.574 1823.33 782.231 1827 784.132 1830.95C786.422 1832.15 788.615 1833.61 790.667 1835.35C794.188 1838.33 796.996 1841.85 799.048 1845.69C801.381 1846.77 803.628 1848.14 805.745 1849.76C809.384 1852.57 812.333 1855.95 814.558 1859.67C816.945 1860.65 819.256 1861.93 821.449 1863.48C825.164 1866.09 828.242 1869.3 830.619 1872.88C833.038 1873.76 835.414 1874.92 837.671 1876.36C841.473 1878.8 844.66 1881.84 847.187 1885.28C849.682 1886.06 852.123 1887.13 854.467 1888.5C858.322 1890.73 861.595 1893.59 864.252 1896.86C866.79 1897.53 869.285 1898.5 871.704 1899.76C875.614 1901.8 878.984 1904.48 881.76 1907.59C884.363 1908.16 886.944 1909.02 889.45 1910.2C893.371 1912.05 896.805 1914.52 899.678 1917.46C902.335 1917.9 904.982 1918.67 907.574 1919.75C911.516 1921.41 915.005 1923.69 917.985 1926.43C920.707 1926.77 923.44 1927.42 926.119 1928.42C930.05 1929.87 933.582 1931.96 936.617 1934.51C939.403 1934.71 942.201 1935.26 944.966 1936.15C948.897 1937.42 952.451 1939.31 955.572 1941.68C958.423 1941.76 961.307 1942.17 964.169 1942.98C968.058 1944.05 971.622 1945.74 974.776 1947.91C977.681 1947.85 980.641 1948.14 983.6 1948.83C987.456 1949.74 991.02 1951.23 994.228 1953.2C997.198 1953 1000.23 1953.17 1003.3 1953.75C1007.09 1954.46 1010.64 1955.77 1013.86 1957.55C1016.88 1957.2 1019.99 1957.23 1023.13 1957.68C1026.88 1958.23 1030.41 1959.35 1033.65 1960.93C1036.73 1960.42 1039.91 1960.31 1043.17 1960.65C1046.84 1961.03 1050.33 1961.96 1053.55 1963.35C1056.67 1962.68 1059.93 1962.42 1063.26 1962.62C1066.86 1962.85 1070.31 1963.61 1073.53 1964.8C1076.69 1963.96 1080.03 1963.55 1083.46 1963.62C1086.97 1963.7 1090.35 1964.27 1093.55 1965.29C1096.74 1964.27 1100.12 1963.7 1103.63 1963.62C1107.06 1963.55 1110.4 1963.96 1113.56 1964.8C1116.78 1963.61 1120.23 1962.85 1123.84 1962.62C1127.17 1962.42 1130.42 1962.68 1133.55 1963.35C1136.78 1961.96 1140.25 1961.03 1143.93 1960.65C1147.18 1960.31 1150.37 1960.42 1153.45 1960.93C1156.68 1959.35 1160.21 1958.23 1163.96 1957.68C1167.1 1957.23 1170.21 1957.2 1173.24 1957.55C1176.45 1955.77 1180 1954.46 1183.8 1953.75C1186.86 1953.17 1189.89 1953 1192.86 1953.2C1196.07 1951.23 1199.64 1949.74 1203.5 1948.83C1206.45 1948.14 1209.41 1947.85 1212.32 1947.91C1215.47 1945.74 1219.03 1944.05 1222.92 1942.98C1225.78 1942.17 1228.68 1941.76 1231.53 1941.68C1234.64 1939.31 1238.21 1937.42 1242.13 1936.15C1244.89 1935.26 1247.69 1934.71 1250.47 1934.51C1253.52 1931.96 1257.04 1929.87 1260.97 1928.42C1263.66 1927.42 1266.38 1926.77 1269.12 1926.43C1272.09 1923.69 1275.58 1921.41 1279.53 1919.75C1282.11 1918.67 1284.76 1917.9 1287.41 1917.46C1290.29 1914.52 1293.72 1912.05 1297.64 1910.2C1300.15 1909.02 1302.73 1908.16 1305.33 1907.59C1308.11 1904.48 1311.48 1901.8 1315.39 1899.76C1317.81 1898.5 1320.31 1897.53 1322.84 1896.86C1325.5 1893.59 1328.78 1890.73 1332.63 1888.5C1334.97 1887.13 1337.41 1886.06 1339.9 1885.28C1342.43 1881.84 1345.62 1878.8 1349.42 1876.36C1351.69 1874.92 1354.05 1873.76 1356.47 1872.88C1358.86 1869.3 1361.93 1866.09 1365.64 1863.48C1367.84 1861.93 1370.15 1860.65 1372.53 1859.67C1374.77 1855.95 1377.72 1852.57 1381.35 1849.76C1383.46 1848.14 1385.71 1846.77 1388.04 1845.69C1390.11 1841.85 1392.9 1838.33 1396.43 1835.35C1398.48 1833.61 1400.67 1832.15 1402.96 1830.95C1404.86 1827 1407.52 1823.33 1410.92 1820.18C1412.91 1818.35 1415.03 1816.8 1417.27 1815.5C1418.98 1811.46 1421.47 1807.68 1424.73 1804.37C1426.65 1802.43 1428.73 1800.76 1430.93 1799.35C1432.47 1795.23 1434.79 1791.32 1437.91 1787.86C1439.75 1785.83 1441.77 1784.06 1443.92 1782.54C1445.26 1778.37 1447.39 1774.37 1450.34 1770.78C1452.11 1768.63 1454.09 1766.74 1456.21 1765.12C1457.35 1760.89 1459.31 1756.79 1462.09 1753.07C1463.79 1750.82 1465.69 1748.82 1467.76 1747.09C1468.71 1742.84 1470.47 1738.69 1473.07 1734.87C1474.68 1732.49 1476.53 1730.37 1478.58 1728.52C1479.33 1724.24 1480.9 1720.03 1483.3 1716.11C1484.83 1713.62 1486.61 1711.38 1488.61 1709.42C1489.17 1705.15 1490.52 1700.92 1492.72 1696.93C1494.16 1694.31 1495.89 1691.94 1497.83 1689.84C1498.21 1685.58 1499.37 1681.33 1501.36 1677.27C1502.71 1674.53 1504.36 1672.04 1506.26 1669.83C1506.44 1665.61 1507.39 1661.36 1509.16 1657.27C1510.4 1654.39 1511.98 1651.77 1513.84 1649.41C1513.84 1645.24 1514.6 1640.99 1516.15 1636.85C1517.28 1633.87 1518.78 1631.12 1520.57 1628.65C1520.4 1624.53 1520.94 1620.33 1522.29 1616.2C1523.29 1613.07 1524.69 1610.18 1526.42 1607.55C1526.09 1603.51 1526.43 1599.34 1527.57 1595.2C1528.45 1591.97 1529.76 1588.95 1531.4 1586.2C1530.9 1582.25 1531.07 1578.14 1531.97 1574.03C1532.72 1570.67 1533.92 1567.51 1535.5 1564.62C1534.84 1560.75 1534.81 1556.71 1535.52 1552.62C1536.11 1549.15 1537.2 1545.87 1538.69 1542.86C1537.88 1539.1 1537.69 1535.15 1538.17 1531.13C1538.61 1527.53 1539.58 1524.11 1540.97 1520.95C1540.03 1517.3 1539.66 1513.44 1539.96 1509.46C1540.23 1505.77 1541.05 1502.24 1542.34 1498.97C1541.28 1495.43 1540.74 1491.68 1540.84 1487.81C1540.93 1484 1541.62 1480.35 1542.81 1476.93C1541.62 1473.52 1540.93 1469.86 1540.84 1466.06C1540.74 1462.17 1541.28 1458.42 1542.34 1454.9C1541.05 1451.61 1540.23 1448.09 1539.96 1444.39C1539.66 1440.43 1540.03 1436.56 1540.97 1432.9C1539.58 1429.74 1538.61 1426.33 1538.17 1422.73C1537.69 1418.7 1537.88 1414.76 1538.69 1411C1537.2 1407.98 1536.11 1404.71 1535.52 1401.23C1534.81 1397.14 1534.84 1393.1 1535.5 1389.23C1533.92 1386.34 1532.72 1383.19 1531.97 1379.82C1531.07 1375.71 1530.9 1371.6 1531.4 1367.65C1529.76 1364.91 1528.45 1361.9 1527.57 1358.66C1526.43 1354.52 1526.09 1350.35 1526.42 1346.3C1524.69 1343.68 1523.29 1340.79 1522.29 1337.67C1520.94 1333.52 1520.4 1329.33 1520.57 1325.22C1518.78 1322.73 1517.28 1319.99 1516.15 1317C1514.6 1312.87 1513.84 1308.63 1513.84 1304.44C1511.98 1302.09 1510.4 1299.46 1509.16 1296.6C1507.39 1292.5 1506.44 1288.24 1506.26 1284.03C1504.36 1281.81 1502.71 1279.33 1501.36 1276.59C1499.37 1272.53 1498.21 1268.28 1497.83 1264.01C1495.89 1261.91 1494.16 1259.54 1492.72 1256.92C1490.52 1252.94 1489.17 1248.71 1488.61 1244.44C1486.61 1242.47 1484.83 1240.23 1483.3 1237.75C1480.9 1233.82 1479.33 1229.62 1478.58 1225.35C1476.53 1223.48 1474.68 1221.36 1473.07 1218.98C1470.47 1215.17 1468.71 1211.01 1467.76 1206.77C1465.69 1205.03 1463.79 1203.03 1462.09 1200.78C1459.31 1197.06 1457.35 1192.98 1456.21 1188.75C1454.09 1187.12 1452.11 1185.22 1450.34 1183.07C1447.39 1179.49 1445.26 1175.48 1443.92 1171.31C1441.77 1169.8 1439.75 1168.02 1437.91 1165.99C1434.79 1162.54 1432.47 1158.63 1430.93 1154.5C1428.73 1153.09 1426.65 1151.42 1424.73 1149.49C1421.47 1146.19 1418.98 1142.39 1417.27 1138.36C1415.03 1137.07 1412.91 1135.5 1410.92 1133.67C1407.52 1130.52 1404.86 1126.85 1402.96 1122.9C1400.67 1121.71 1398.48 1120.24 1396.43 1118.5C1392.9 1115.53 1390.11 1112.01 1388.04 1108.17C1385.71 1107.08 1383.46 1105.72 1381.35 1104.09C1377.72 1101.28 1374.77 1097.91 1372.53 1094.19C1370.15 1093.2 1367.84 1091.93 1365.64 1090.39C1361.93 1087.77 1358.86 1084.56 1356.47 1080.99C1354.05 1080.09 1351.69 1078.93 1349.42 1077.49C1345.62 1075.05 1342.43 1072.01 1339.9 1068.57C1337.41 1067.79 1334.97 1066.73 1332.63 1065.37C1328.78 1063.12 1325.5 1060.28 1322.84 1056.99C1320.31 1056.33 1317.81 1055.37 1315.39 1054.09C1311.48 1052.05 1308.11 1049.37 1305.33 1046.27C1302.73 1045.7 1300.15 1044.84 1297.64 1043.65C1293.72 1041.8 1290.29 1039.33 1287.41 1036.41C1284.76 1035.95 1282.11 1035.2 1279.53 1034.11C1275.58 1032.45 1272.09 1030.18 1269.12 1027.42C1266.38 1027.09 1263.66 1026.44 1260.97 1025.45C1257.04 1023.98 1253.52 1021.9 1250.47 1019.34C1247.69 1019.14 1244.89 1018.6 1242.13 1017.7C1238.21 1016.44 1234.64 1014.54 1231.53 1012.18C1228.68 1012.11 1225.78 1011.68 1222.92 1010.89C1219.03 1009.8 1215.47 1008.11 1212.32 1005.94C1209.41 1006.01 1206.45 1005.71 1203.5 1005.02C1199.64 1004.13 1196.07 1002.63 1192.86 1000.66C1189.89 1000.85 1186.86 1000.68 1183.8 1000.11C1180 999.386 1176.45 998.089 1173.24 996.317C1170.21 996.667 1167.1 996.633 1163.96 996.17C1160.21 995.628 1156.68 994.511 1153.45 992.931C1150.37 993.439 1147.18 993.54 1143.93 993.202C1140.25 992.818 1136.78 991.892 1133.55 990.504C1130.42 991.181 1127.17 991.441 1123.84 991.227C1120.23 991.001 1116.78 990.256 1113.56 989.048C1110.4 989.895 1107.06 990.312 1103.63 990.233C1100.12 990.166 1096.74 989.579 1093.55 988.563C1090.35 989.579 1086.97 990.166 1083.46 990.233C1080.03 990.312 1076.69 989.895 1073.53 989.048C1070.31 990.256 1066.86 991.001 1063.26 991.227C1059.93 991.441 1056.67 991.181 1053.55 990.504C1050.33 991.892 1046.84 992.818 1043.17 993.202C1039.91 993.54 1036.73 993.439 1033.65 992.931C1030.41 994.511 1026.88 995.628 1023.13 996.17C1019.99 996.633 1016.88 996.667 1013.86 996.317C1010.64 998.089 1007.09 999.386 1003.3 1000.11C1000.23 1000.68 997.198 1000.85 994.228 1000.66C991.02 1002.63 987.456 1004.13 983.6 1005.02C980.641 1005.71 977.681 1006.01 974.776 1005.94C971.622 1008.11 968.058 1009.8 964.169 1010.89C961.307 1011.68 958.423 1012.11 955.572 1012.18C952.451 1014.54 948.897 1016.44 944.966 1017.7C942.201 1018.6 939.403 1019.14 936.617 1019.34C933.582 1021.9 930.05 1023.98 926.119 1025.45C923.44 1026.44 920.707 1027.09 917.985 1027.42C915.005 1030.18 911.516 1032.45 907.574 1034.11C904.982 1035.2 902.335 1035.95 899.678 1036.41C896.805 1039.33 893.371 1041.8 889.45 1043.65C886.944 1044.84 884.363 1045.7 881.76 1046.27C878.984 1049.37 875.614 1052.05 871.704 1054.09C869.285 1055.37 866.79 1056.33 864.252 1056.99C861.595 1060.28 858.322 1063.12 854.467 1065.37C852.123 1066.73 849.682 1067.79 847.187 1068.57C844.66 1072.01 841.473 1075.05 837.671 1077.49C835.414 1078.93 833.038 1080.09 830.619 1080.99C828.242 1084.56 825.164 1087.77 821.449 1090.39C819.256 1091.93 816.945 1093.2 814.558 1094.19C812.333 1097.91 809.384 1101.28 805.745 1104.09C803.628 1105.72 801.381 1107.08 799.048 1108.17C796.996 1112.01 794.188 1115.53 790.667 1118.5C788.615 1120.24 786.422 1121.71 784.132 1122.9C782.231 1126.85 779.574 1130.52 776.172 1133.67C774.196 1135.5 772.068 1137.07 769.821 1138.36C768.115 1142.39 765.62 1146.19 762.358 1149.49C760.446 1151.42 758.362 1153.09 756.158 1154.5C754.635 1158.63 752.303 1162.54 749.181 1165.99C747.345 1168.02 745.325 1169.8 743.176 1171.31C741.837 1175.48 739.698 1179.49 736.75 1183.07C734.978 1185.22 733.012 1187.12 730.885 1188.75C729.74 1192.98 727.785 1197.06 724.998 1200.78C723.313 1203.03 721.402 1205.03 719.328 1206.77C718.378 1211.01 716.617 1215.17 714.025 1218.98C712.416 1221.36 710.558 1223.48 708.516 1225.35C707.76 1229.62 706.205 1233.82 703.797 1237.75C702.263 1240.23 700.481 1242.47 698.493 1244.44C697.921 1248.71 696.571 1252.94 694.378 1256.92C692.931 1259.54 691.203 1261.91 689.259 1264.01C688.881 1268.28 687.725 1272.53 685.727 1276.59C684.388 1279.33 682.735 1281.81 680.834 1284.03C680.651 1288.24 679.7 1292.5 677.929 1296.6C676.687 1299.46 675.11 1302.09 673.263 1304.44C673.252 1308.63 672.507 1312.87 670.941 1317C669.807 1319.99 668.316 1322.73 666.534 1325.22C666.696 1329.33 666.156 1333.52 664.817 1337.67C663.802 1340.79 662.397 1343.68 660.669 1346.3C661.004 1350.35 660.658 1354.52 659.524 1358.66C658.639 1361.9 657.343 1364.91 655.69 1367.65C656.187 1371.6 656.025 1375.71 655.118 1379.82C654.372 1383.19 653.174 1386.34 651.597 1389.23C652.256 1393.1 652.277 1397.14 651.575 1401.23C650.981 1404.71 649.89 1407.98 648.41 1411C649.21 1414.76 649.404 1418.7 648.918 1422.73C648.486 1426.33 647.525 1429.74 646.121 1432.9C647.06 1436.56 647.428 1440.43 647.147 1444.39C646.866 1448.09 646.045 1451.61 644.749 1454.9C645.818 1458.42 646.348 1462.17 646.25 1466.06C646.164 1469.86 645.484 1473.52 644.285 1476.93Z" fill="#FAF6B0"/>
<path fill-rule="evenodd" clip-rule="evenodd" d="M1076.66 312.649L1099.85 726.819L1149.11 399.705L1146.11 729.796L1234.6 322.81L1192.02 735.732L1292.53 418.253L1237.34 744.601L1389.31 353.085L1281.84 756.353L1431.56 454.974L1325.3 770.933L1537.66 402.858L1367.49 788.268L1563.36 509.118L1408.19 808.26L1676.63 471.115L1447.21 830.815L1685.25 579.584L1484.34 855.816L1803.38 556.469L1519.39 883.135L1794.76 664.937L1552.19 912.639L1915.35 657.179L1582.56 944.165L1889.65 763.442L1610.35 977.566L2010.23 771.195L1635.43 1012.66L1967.98 873.087L1657.66 1049.28L2086.11 896.201L1676.92 1087.23L2028.17 991.645L1693.13 1126.32L2141.44 1029.65L1706.2 1166.35L2068.99 1116.7L1716.05 1207.11L2175.1 1168.82L1722.65 1248.41L2089.62 1245.72L1725.96 1290.02L2186.39 1310.88L1725.96 1331.74L2089.62 1376.05L1722.65 1373.36L2175.1 1452.95L1716.05 1414.65L2068.99 1505.06L1706.2 1455.42L2141.44 1592.12L1693.13 1495.45L2028.17 1630.12L1676.92 1534.54L2086.11 1725.56L1657.66 1572.49L1967.98 1748.68L1635.43 1609.1L2010.23 1850.57L1610.35 1644.2L1889.65 1858.33L1582.56 1677.6L1915.35 1964.59L1552.19 1709.13L1794.76 1956.83L1519.39 1738.63L1803.38 2065.3L1484.34 1765.95L1685.25 2042.18L1447.21 1790.95L1676.63 2150.65L1408.19 1813.51L1563.36 2112.65L1367.49 1833.5L1537.66 2218.91L1325.3 1850.83L1431.56 2166.8L1281.84 1865.41L1389.31 2268.68L1237.34 1877.17L1292.53 2203.51L1192.02 1886.03L1234.6 2298.96L1146.11 1891.97L1149.11 2222.06L1099.85 1894.95L1076.66 2309.12L1053.47 1894.95L1004.21 2222.06L1007.21 1891.97L918.732 2298.96L961.302 1886.03L860.793 2203.51L915.984 1877.17L764.011 2268.68L871.484 1865.41L721.764 2166.8L828.023 1850.83L615.658 2218.91L785.836 1833.5L589.966 2112.65L745.13 1813.51L476.696 2150.65L706.112 1790.95L468.069 2042.18L668.986 1765.95L349.939 2065.3L633.93 1738.63L358.564 1956.83L601.133 1709.13L237.98 1964.59L570.763 1677.6L263.677 1858.33L542.966 1644.2L143.093 1850.57L517.898 1609.1L185.34 1748.68L495.671 1572.49L67.211 1725.56L476.401 1534.54L125.148 1630.12L460.193 1495.45L11.878 1592.12L447.123 1455.42L84.3266 1505.06L437.27 1414.65L-21.7782 1452.95L430.667 1373.36L63.7054 1376.05L427.356 1331.74L-33.0737 1310.88L427.356 1290.02L63.7054 1245.72L430.667 1248.41L-21.7782 1168.82L437.27 1207.11L84.3266 1116.7L447.123 1166.35L11.878 1029.65L460.193 1126.32L125.148 991.645L476.401 1087.23L67.211 896.201L495.671 1049.28L185.34 873.087L517.898 1012.66L143.093 771.195L542.966 977.566L263.677 763.442L570.763 944.165L237.98 657.179L601.133 912.639L358.564 664.937L633.93 883.135L349.939 556.469L668.986 855.816L468.069 579.584L706.112 830.815L476.696 471.115L745.13 808.26L589.966 509.118L785.836 788.268L615.658 402.858L828.023 770.933L721.764 454.974L871.484 756.353L764.011 353.085L915.984 744.601L860.793 418.253L961.302 735.732L918.732 322.81L1007.21 729.796L1004.21 399.705L1053.47 726.819L1076.66 312.649Z" fill="#FF050B" fill-opacity="0.49"/>
<path fill-rule="evenodd" clip-rule="evenodd" d="M1076.66 312.649L1099.85 726.819L1149.11 399.705L1146.11 729.796L1234.6 322.81L1192.02 735.732L1292.53 418.253L1237.34 744.601L1389.31 353.085L1281.84 756.353L1431.56 454.974L1325.3 770.933L1537.66 402.858L1367.49 788.268L1563.36 509.118L1408.19 808.26L1676.63 471.115L1447.21 830.815L1685.25 579.584L1484.34 855.816L1803.38 556.469L1519.39 883.135L1794.76 664.937L1552.19 912.639L1915.35 657.179L1582.56 944.165L1889.65 763.442L1610.35 977.566L2010.23 771.195L1635.43 1012.66L1967.98 873.087L1657.66 1049.28L2086.11 896.201L1676.92 1087.23L2028.17 991.645L1693.13 1126.32L2141.44 1029.65L1706.2 1166.35L2068.99 1116.7L1716.05 1207.11L2175.1 1168.82L1722.65 1248.41L2089.62 1245.72L1725.96 1290.02L2186.39 1310.88L1725.96 1331.74L2089.62 1376.05L1722.65 1373.36L2175.1 1452.95L1716.05 1414.65L2068.99 1505.06L1706.2 1455.42L2141.44 1592.12L1693.13 1495.45L2028.17 1630.12L1676.92 1534.54L2086.11 1725.56L1657.66 1572.49L1967.98 1748.68L1635.43 1609.1L2010.23 1850.57L1610.35 1644.2L1889.65 1858.33L1582.56 1677.6L1915.35 1964.59L1552.19 1709.13L1794.76 1956.83L1519.39 1738.63L1803.38 2065.3L1484.34 1765.95L1685.25 2042.18L1447.21 1790.95L1676.63 2150.65L1408.19 1813.51L1563.36 2112.65L1367.49 1833.5L1537.66 2218.91L1325.3 1850.83L1431.56 2166.8L1281.84 1865.41L1389.31 2268.68L1237.34 1877.17L1292.53 2203.51L1192.02 1886.03L1234.6 2298.96L1146.11 1891.97L1149.11 2222.06L1099.85 1894.95L1076.66 2309.12L1053.47 1894.95L1004.21 2222.06L1007.21 1891.97L918.732 2298.96L961.302 1886.03L860.793 2203.51L915.984 1877.17L764.011 2268.68L871.484 1865.41L721.764 2166.8L828.023 1850.83L615.658 2218.91L785.836 1833.5L589.966 2112.65L745.13 1813.51L476.696 2150.65L706.112 1790.95L468.069 2042.18L668.986 1765.95L349.939 2065.3L633.93 1738.63L358.564 1956.83L601.133 1709.13L237.98 1964.59L570.763 1677.6L263.677 1858.33L542.966 1644.2L143.093 1850.57L517.898 1609.1L185.34 1748.68L495.671 1572.49L67.211 1725.56L476.401 1534.54L125.148 1630.12L460.193 1495.45L11.878 1592.12L447.123 1455.42L84.3266 1505.06L437.27 1414.65L-21.7782 1452.95L430.667 1373.36L63.7054 1376.05L427.356 1331.74L-33.0737 1310.88L427.356 1290.02L63.7054 1245.72L430.667 1248.41L-21.7782 1168.82L437.27 1207.11L84.3266 1116.7L447.123 1166.35L11.878 1029.65L460.193 1126.32L125.148 991.645L476.401 1087.23L67.211 896.201L495.671 1049.28L185.34 873.087L517.898 1012.66L143.093 771.195L542.966 977.566L263.677 763.442L570.763 944.165L237.98 657.179L601.133 912.639L358.564 664.937L633.93 883.135L349.939 556.469L668.986 855.816L468.069 579.584L706.112 830.815L476.696 471.115L745.13 808.26L589.966 509.118L785.836 788.268L615.658 402.858L828.023 770.933L721.764 454.974L871.484 756.353L764.011 353.085L915.984 744.601L860.793 418.253L961.302 735.732L918.732 322.81L1007.21 729.796L1004.21 399.705L1053.47 726.819L1076.66 312.649ZM1076.66 675.121L1073.7 727.952C1073.12 738.323 1064.79 746.575 1054.42 747.06C1044.04 747.546 1034.98 740.108 1033.43 729.836L1027.09 687.723L1027.47 729.611C1027.57 739.999 1019.79 748.776 1009.47 749.933C999.139 751.09 989.614 744.252 987.409 734.1L976.175 682.448L981.457 733.655C982.523 743.992 975.599 753.463 965.417 755.572C955.242 757.687 945.121 751.757 941.984 741.849L929.282 701.736L935.958 741.222C937.694 751.474 931.387 761.374 921.366 764.135C911.339 766.896 900.856 761.624 897.089 751.933L878.529 704.111L891.063 751.137C893.737 761.193 888.369 771.643 878.636 775.313C868.897 778.989 857.965 774.69 853.333 765.37L835.376 729.22L847.233 764.473C850.551 774.346 845.853 785.123 836.361 789.404C826.87 793.686 815.677 790.08 810.475 781.063L786.325 739.21L804.376 780.078C808.585 789.614 804.872 800.792 795.796 805.912C786.72 811.033 775.239 808.435 769.246 799.907L747.677 769.162L763.12 798.928C767.919 808.19 764.909 819.584 756.156 825.257C747.408 830.937 735.772 829.044 729.277 820.883L701.803 786.375L723.198 819.916C728.815 828.723 726.817 840.356 718.586 846.787C710.355 853.212 698.585 852.332 691.406 844.754L668.121 820.178L685.374 843.898C691.52 852.35 690.227 864.093 682.391 871.013C674.556 877.928 662.739 877.747 655.117 870.594L626.684 843.915L649.226 869.843C656.089 877.741 655.815 889.572 648.582 897.133C641.35 904.7 629.553 905.521 621.349 899.02L598.197 880.677L615.611 898.461C622.944 905.946 623.36 917.777 616.576 925.763C609.793 933.744 598.043 935.241 589.477 929.212L562.196 910.018L584.001 928.822C591.937 935.672 593.344 947.45 587.232 955.972C581.125 964.494 569.523 966.953 560.487 961.628L538.985 948.976L555.299 961.483C563.624 967.867 565.702 979.558 560.078 988.418C554.461 997.284 543 1000.39 533.676 995.571L509.077 982.878L528.87 995.629C537.698 1001.32 540.721 1012.81 535.821 1022.11C530.928 1031.4 519.741 1035.41 510.055 1031.35L491.153 1023.42L505.672 1031.66C514.814 1036.85 518.467 1048.17 514.091 1057.72C509.707 1067.28 498.748 1071.9 488.848 1068.36L467.707 1060.81L484.973 1068.87C494.505 1073.32 499.049 1084.32 495.43 1094.2C491.81 1104.08 481.233 1109.54 471.079 1106.78L455.106 1102.43L467.747 1107.52C477.513 1111.44 482.648 1122.19 479.564 1132.26C476.481 1142.32 466.212 1148.35 455.924 1146.13L438.201 1142.3L453.195 1147.02C463.243 1150.17 469.202 1160.5 466.903 1170.77C464.604 1181.05 454.811 1187.85 444.381 1186.42L431.023 1184.59L442.297 1187.48C452.498 1190.1 459 1200.1 457.251 1210.48C455.495 1220.87 446.077 1228.18 435.581 1227.31L420.533 1226.05L434.18 1228.45C444.556 1230.28 451.801 1239.75 450.849 1250.24C449.891 1260.74 441.057 1268.75 430.52 1268.67L418.971 1268.59L429.809 1269.91C440.266 1271.18 448.007 1280.26 447.605 1290.79C447.21 1301.32 438.805 1309.79 428.274 1310.27L414.654 1310.88L428.274 1311.5C438.805 1311.98 447.21 1320.44 447.605 1330.97C448.007 1341.51 440.266 1350.59 429.809 1351.86L418.971 1353.18L430.52 1353.1C441.057 1353.02 449.891 1361.03 450.849 1371.52C451.801 1382.01 444.556 1391.49 434.18 1393.31L420.533 1395.71L435.581 1394.46C446.077 1393.58 455.495 1400.9 457.251 1411.28C459 1421.67 452.498 1431.67 442.297 1434.28L431.023 1437.17L444.381 1435.34C454.811 1433.91 464.604 1440.72 466.903 1450.99C469.202 1461.27 463.243 1471.6 453.195 1474.75L438.201 1479.46L455.924 1475.64C466.212 1473.42 476.481 1479.45 479.564 1489.51C482.648 1499.57 477.513 1510.33 467.747 1514.25L455.106 1519.33L471.079 1514.99C481.233 1512.22 491.81 1517.69 495.43 1527.56C499.049 1537.44 494.505 1548.45 484.973 1552.9L467.707 1560.96L488.848 1553.4C498.748 1549.87 509.707 1554.49 514.091 1564.05C518.467 1573.6 514.814 1584.92 505.672 1590.11L491.153 1598.35L510.055 1590.42C519.741 1586.36 530.928 1590.36 535.821 1599.66C540.721 1608.95 537.698 1620.45 528.87 1626.14L509.077 1638.89L533.676 1626.19C543 1621.38 554.461 1624.49 560.078 1633.35C565.702 1642.21 563.624 1653.9 555.299 1660.28L538.985 1672.79L560.487 1660.14C569.523 1654.82 581.125 1657.27 587.232 1665.8C593.344 1674.32 591.937 1686.1 584.001 1692.94L562.196 1711.75L589.477 1692.55C598.043 1686.53 609.793 1688.03 616.576 1696.01C623.36 1703.99 622.944 1715.82 615.611 1723.31L598.197 1741.09L621.349 1722.75C629.553 1716.25 641.35 1717.07 648.582 1724.63C655.815 1732.2 656.089 1744.03 649.226 1751.92L626.684 1777.85L655.117 1751.17C662.739 1744.02 674.556 1743.84 682.391 1750.76C690.227 1757.67 691.52 1769.42 685.374 1777.87L668.121 1801.59L691.406 1777.02C698.585 1769.43 710.355 1768.55 718.586 1774.98C726.817 1781.41 728.815 1793.04 723.198 1801.85L701.803 1835.4L729.277 1800.89C735.772 1792.73 747.408 1790.83 756.156 1796.51C764.909 1802.19 767.919 1813.58 763.12 1822.84L747.677 1852.61L769.246 1821.86C775.239 1813.33 786.72 1810.73 795.796 1815.85C804.872 1820.98 808.585 1832.15 804.376 1841.69L786.325 1882.56L810.475 1840.71C815.677 1831.69 826.87 1828.08 836.361 1832.36C845.853 1836.65 850.551 1847.42 847.233 1857.29L835.376 1892.55L853.333 1856.4C857.965 1847.08 868.897 1842.78 878.636 1846.45C888.369 1850.13 893.737 1860.58 891.063 1870.63L878.529 1917.66L897.089 1869.83C900.856 1860.14 911.339 1854.87 921.366 1857.63C931.387 1860.39 937.694 1870.29 935.958 1880.55L929.282 1920.03L941.984 1879.92C945.121 1870.01 955.242 1864.08 965.417 1866.19C975.599 1868.31 982.523 1877.77 981.457 1888.11L976.175 1939.32L987.409 1887.67C989.614 1877.52 999.139 1870.68 1009.47 1871.83C1019.79 1872.99 1027.57 1881.77 1027.47 1892.16L1027.09 1934.04L1033.43 1891.93C1034.98 1881.66 1044.04 1874.22 1054.42 1874.71C1064.79 1875.19 1073.12 1883.45 1073.7 1893.82L1076.66 1946.65L1079.62 1893.82C1080.2 1883.45 1088.53 1875.19 1098.9 1874.71C1109.28 1874.22 1118.34 1881.66 1119.89 1891.93L1126.23 1934.04L1125.85 1892.16C1125.76 1881.77 1133.53 1872.99 1143.86 1871.83C1154.18 1870.68 1163.71 1877.52 1165.91 1887.67L1177.15 1939.32L1171.86 1888.11C1170.8 1877.77 1177.73 1868.31 1187.9 1866.19C1198.08 1864.08 1208.2 1870.01 1211.34 1879.92L1224.04 1920.03L1217.36 1880.55C1215.63 1870.29 1221.93 1860.39 1231.95 1857.63C1241.98 1854.87 1252.47 1860.14 1256.23 1869.83L1274.79 1917.66L1262.26 1870.63C1259.58 1860.58 1264.95 1850.13 1274.69 1846.45C1284.42 1842.78 1295.36 1847.08 1299.99 1856.4L1317.94 1892.55L1306.09 1857.29C1302.77 1847.42 1307.47 1836.65 1316.97 1832.36C1326.45 1828.08 1337.64 1831.69 1342.85 1840.71L1367 1882.56L1348.95 1841.69C1344.74 1832.15 1348.45 1820.98 1357.52 1815.85C1366.6 1810.73 1378.09 1813.33 1384.07 1821.86L1405.64 1852.61L1390.2 1822.84C1385.4 1813.58 1388.41 1802.19 1397.17 1796.51C1405.92 1790.83 1417.55 1792.73 1424.04 1800.89L1451.52 1835.4L1430.12 1801.85C1424.51 1793.04 1426.5 1781.41 1434.73 1774.98C1442.97 1768.55 1454.74 1769.43 1461.92 1777.02L1485.21 1801.59L1467.95 1777.87C1461.8 1769.42 1463.09 1757.67 1470.93 1750.76C1478.77 1743.84 1490.58 1744.02 1498.2 1751.17L1526.64 1777.85L1504.1 1751.92C1497.23 1744.03 1497.51 1732.2 1504.74 1724.63C1511.97 1717.07 1523.77 1716.25 1531.97 1722.75L1555.12 1741.09L1537.71 1723.31C1530.38 1715.82 1529.96 1703.99 1536.74 1696.01C1543.53 1688.03 1555.28 1686.53 1563.84 1692.55L1591.12 1711.75L1569.33 1692.94C1561.38 1686.1 1559.98 1674.32 1566.09 1665.8C1572.2 1657.27 1583.8 1654.82 1592.83 1660.14L1614.34 1672.79L1598.02 1660.28C1589.7 1653.9 1587.62 1642.21 1593.24 1633.35C1598.86 1624.49 1610.32 1621.38 1619.64 1626.19L1644.24 1638.89L1624.45 1626.14C1615.62 1620.45 1612.6 1608.95 1617.5 1599.66C1622.39 1590.36 1633.58 1586.36 1643.27 1590.42L1662.17 1598.35L1647.65 1590.11C1638.51 1584.92 1634.85 1573.6 1639.24 1564.05C1643.61 1554.49 1654.57 1549.87 1664.47 1553.4L1685.61 1560.96L1668.35 1552.9C1658.82 1548.45 1654.28 1537.44 1657.9 1527.56C1661.52 1517.69 1672.09 1512.22 1682.24 1514.99L1698.21 1519.33L1685.57 1514.25C1675.81 1510.33 1670.67 1499.57 1673.76 1489.51C1676.84 1479.45 1687.12 1473.42 1697.4 1475.64L1715.12 1479.46L1700.13 1474.75C1690.08 1471.6 1684.12 1461.27 1686.42 1450.99C1688.72 1440.72 1698.51 1433.91 1708.95 1435.34L1722.3 1437.17L1711.02 1434.28C1700.82 1431.67 1694.32 1421.67 1696.07 1411.28C1697.83 1400.9 1707.24 1393.58 1717.74 1394.46L1732.79 1395.71L1719.14 1393.31C1708.77 1391.49 1701.52 1382.01 1702.48 1371.52C1703.43 1361.03 1712.27 1353.02 1722.81 1353.1L1734.35 1353.18L1723.51 1351.86C1713.06 1350.59 1705.31 1341.51 1705.72 1330.97C1706.12 1320.44 1714.52 1311.98 1725.05 1311.5L1738.67 1310.88L1725.05 1310.27C1714.52 1309.79 1706.12 1301.32 1705.72 1290.79C1705.31 1280.26 1713.06 1271.18 1723.51 1269.91L1734.35 1268.59L1722.81 1268.67C1712.27 1268.75 1703.43 1260.74 1702.48 1250.24C1701.52 1239.75 1708.77 1230.28 1719.14 1228.45L1732.79 1226.05L1717.74 1227.31C1707.24 1228.18 1697.83 1220.87 1696.07 1210.48C1694.32 1200.1 1700.82 1190.1 1711.02 1187.48L1722.3 1184.59L1708.95 1186.42C1698.51 1187.85 1688.72 1181.05 1686.42 1170.77C1684.12 1160.5 1690.08 1150.17 1700.13 1147.02L1715.12 1142.3L1697.4 1146.13C1687.12 1148.35 1676.84 1142.32 1673.76 1132.26C1670.67 1122.19 1675.81 1111.44 1685.57 1107.52L1698.21 1102.43L1682.24 1106.78C1672.09 1109.54 1661.52 1104.08 1657.9 1094.2C1654.28 1084.32 1658.82 1073.32 1668.35 1068.87L1685.61 1060.81L1664.47 1068.36C1654.57 1071.9 1643.61 1067.28 1639.24 1057.72C1634.85 1048.17 1638.51 1036.85 1647.65 1031.66L1662.17 1023.42L1643.27 1031.35C1633.58 1035.41 1622.39 1031.4 1617.5 1022.11C1612.6 1012.81 1615.62 1001.32 1624.45 995.629L1644.24 982.878L1619.64 995.571C1610.32 1000.39 1598.86 997.284 1593.24 988.418C1587.62 979.558 1589.7 967.867 1598.02 961.483L1614.34 948.976L1592.83 961.628C1583.8 966.953 1572.2 964.494 1566.09 955.972C1559.98 947.45 1561.38 935.672 1569.33 928.822L1591.12 910.018L1563.84 929.212C1555.28 935.241 1543.53 933.744 1536.74 925.763C1529.96 917.777 1530.38 905.946 1537.71 898.461L1555.12 880.677L1531.97 899.02C1523.77 905.521 1511.97 904.7 1504.74 897.133C1497.51 889.572 1497.23 877.741 1504.1 869.843L1526.64 843.915L1498.2 870.594C1490.58 877.747 1478.77 877.928 1470.93 871.013C1463.09 864.093 1461.8 852.35 1467.95 843.898L1485.21 820.178L1461.92 844.754C1454.74 852.332 1442.97 853.212 1434.73 846.787C1426.5 840.356 1424.51 828.723 1430.12 819.916L1451.52 786.375L1424.04 820.883C1417.55 829.044 1405.92 830.937 1397.17 825.257C1388.41 819.584 1385.4 808.19 1390.2 798.928L1405.64 769.162L1384.07 799.907C1378.09 808.435 1366.6 811.033 1357.52 805.912C1348.45 800.792 1344.74 789.614 1348.95 780.078L1367 739.21L1342.85 781.063C1337.64 790.08 1326.45 793.686 1316.97 789.404C1307.47 785.123 1302.77 774.346 1306.09 764.473L1317.94 729.22L1299.99 765.37C1295.36 774.69 1284.42 778.989 1274.69 775.313C1264.95 771.643 1259.58 761.193 1262.26 751.137L1274.79 704.111L1256.23 751.933C1252.47 761.624 1241.98 766.896 1231.95 764.135C1221.93 761.374 1215.63 751.474 1217.36 741.222L1224.04 701.736L1211.34 741.849C1208.2 751.757 1198.08 757.687 1187.9 755.572C1177.73 753.463 1170.8 743.992 1171.86 733.655L1177.15 682.447L1165.91 734.1C1163.71 744.252 1154.18 751.09 1143.86 749.933C1133.53 748.776 1125.76 739.999 1125.85 729.611L1126.23 687.723L1119.89 729.836C1118.34 740.108 1109.28 747.546 1098.9 747.06C1088.53 746.575 1080.2 738.323 1079.62 727.952L1076.66 675.121Z" fill="#AB0307"/>
</g>
<defs>
<clipPath id="clip0_605_622">
<rect width="2160" height="2700" fill="white"/>
</clipPath>
</defs>
</svg>
