<svg width="2160" height="2700" viewBox="0 0 2160 2700" fill="none" xmlns="http://www.w3.org/2000/svg">
<g clip-path="url(#clip0_917_3)">
<path d="M1994.3 1750.55C1994.3 1750.55 2013.95 1848.55 2048.82 1861.49C2083.68 1874.43 2152.21 1897.15 2152.21 1897.15" stroke="black" stroke-width="21.0314" stroke-miterlimit="1.5" stroke-linecap="square" stroke-linejoin="round"/>
<path fill-rule="evenodd" clip-rule="evenodd" d="M1698.85 929.199C1763.19 916.159 1967.35 1262.6 1984.39 1305.97C2001.44 1349.34 1826.09 1526.02 1826.09 1526.02L1518.71 1420.05C1518.71 1420.05 1634.5 942.239 1698.85 929.199Z" fill="#636363" stroke="white" stroke-width="14" stroke-miterlimit="1.5" stroke-linecap="round" stroke-linejoin="round"/>
<path d="M1881.93 1130.46C1880.38 1227.8 1818.32 1326.11 1744.56 1388.44" stroke="black" stroke-width="14" stroke-miterlimit="1.5" stroke-linecap="round" stroke-linejoin="round"/>
<path fill-rule="evenodd" clip-rule="evenodd" d="M1671.84 1726.26C1671.84 1726.26 1771.03 1831.24 1839.78 1839.75C1907.84 1848.18 2020.59 1735.11 2020.59 1735.11L2032.44 1744.08C2032.44 1744.08 1905.9 1883.13 1823.73 1862.35C1767.15 1848.04 1656.57 1765.79 1656.57 1765.79L1671.84 1726.26Z" fill="#A4A4A4" stroke="white" stroke-width="11.9987" stroke-miterlimit="1.5" stroke-linecap="square" stroke-linejoin="round"/>
<path fill-rule="evenodd" clip-rule="evenodd" d="M1624.42 1879.3C1624.42 1879.3 1744.95 1976.31 1812.69 1990.84C1879.74 2005.23 1921.08 1703.64 1921.08 1703.64L1942.05 1717.85C1942.05 1717.85 1901.43 2025.18 1818.03 2010.1C1751.05 1998 1592.31 1932.86 1592.31 1932.86L1624.42 1879.3Z" fill="#A4A4A4" stroke="white" stroke-width="11.9987" stroke-miterlimit="1.5" stroke-linecap="square" stroke-linejoin="round"/>
<path fill-rule="evenodd" clip-rule="evenodd" d="M1662.61 1828.56C1662.61 1828.56 1767.94 1934.51 1837.07 1929.88C1905.49 1925.3 2035.53 1770.73 2035.53 1770.73L2057.05 1790.74C2057.05 1790.74 1914.62 1960.42 1830.01 1955.55C1771.73 1952.19 1651.78 1870.23 1651.78 1870.23L1662.61 1828.56Z" fill="#A4A4A4" stroke="white" stroke-width="11.9987" stroke-miterlimit="1.5" stroke-linecap="square" stroke-linejoin="round"/>
<path fill-rule="evenodd" clip-rule="evenodd" d="M2029.41 1726.02C2029.41 1726.02 2034.58 1751.8 2044.32 1778.66C2053.57 1804.17 2066.94 1830.65 2083.93 1836.96C2108.15 1845.95 2200.11 1872.93 2200.11 1872.93L2189.04 1909.67C2189.04 1909.67 2060.93 1876.08 2034.97 1854.8C2017.57 1840.53 1982.38 1737.58 1982.38 1737.58L2029.41 1726.02Z" fill="#A4A4A4" stroke="white" stroke-width="13.9993" stroke-miterlimit="1.5" stroke-linecap="square" stroke-linejoin="round"/>
<path fill-rule="evenodd" clip-rule="evenodd" d="M2157.08 2027.11L2274.13 2055.77L2309.01 1765.47L2205.37 1741.58L2157.08 2027.11Z" fill="#808080" stroke="white" stroke-width="16.178" stroke-miterlimit="1.5" stroke-linecap="square" stroke-linejoin="round"/>
<path fill-rule="evenodd" clip-rule="evenodd" d="M2236.53 2013.89L2470.75 2072.46L2616.22 1867.52L2539.63 1566.63L1678.73 1376.18L1610.94 1708.03L2273.28 1824.79L2236.53 2013.89Z" fill="#808080" stroke="white" stroke-width="16.178" stroke-miterlimit="1.5" stroke-linecap="square" stroke-linejoin="round"/>
<path fill-rule="evenodd" clip-rule="evenodd" d="M1677.47 1803.76L1821.04 1676.77L1818.07 1721.23L1671.77 1843.82L1677.47 1803.76Z" fill="#8D8D8D" stroke="white" stroke-width="16.178" stroke-miterlimit="1.5" stroke-linecap="square" stroke-linejoin="round"/>
<path fill-rule="evenodd" clip-rule="evenodd" d="M1660.81 1453.15L1916.75 1501.84L1913.77 1546.29L1626.49 1506.51L1660.81 1453.15Z" fill="#D1D1D1" stroke="white" stroke-width="16.178" stroke-miterlimit="1.5" stroke-linecap="square" stroke-linejoin="round"/>
<path fill-rule="evenodd" clip-rule="evenodd" d="M1971.74 1354.51C1971.74 1354.51 1873.05 1593.9 1918.4 1654.38C1963.74 1714.86 2243.81 1717.36 2243.81 1717.36L2277.22 1477.94L1971.74 1354.51Z" fill="#A4A4A4" stroke="white" stroke-width="13" stroke-miterlimit="1.5" stroke-linecap="round" stroke-linejoin="round"/>
<path d="M1925.14 1492.37L2055.95 1521.63L2069 1485.33L2136.24 1496.29L2147.91 1542.06L2243.07 1567.7" stroke="white" stroke-width="13" stroke-miterlimit="1.5" stroke-linecap="round" stroke-linejoin="round"/>
<path fill-rule="evenodd" clip-rule="evenodd" d="M2236.53 2013.89L2470.75 2072.46L2616.22 1867.52L2338.52 1604.59C2114.13 1696.61 1747.1 1707.26 1742.73 1534.66L1624.91 1700.52L2273.28 1824.79L2236.53 2013.89Z" fill="black" fill-opacity="0.3"/>
<path fill-rule="evenodd" clip-rule="evenodd" d="M1706.39 1735.77C1706.39 1735.77 1868.99 1678.82 1835.24 1629.98C1801.5 1581.13 1742.89 1523.54 1742.89 1523.54L1632.67 1720.04L1706.39 1735.77Z" fill="#505050" stroke="white" stroke-width="13" stroke-miterlimit="1.5" stroke-linecap="round" stroke-linejoin="round"/>
<path d="M254.027 1909.2C254.027 1909.2 274.24 2007.08 247.207 2032.62C220.179 2058.15 165.98 2105.85 165.98 2105.85" stroke="white" stroke-width="21.0314" stroke-miterlimit="1.5" stroke-linecap="square" stroke-linejoin="round"/>
<path fill-rule="evenodd" clip-rule="evenodd" d="M212.122 1900.34C212.122 1900.34 217.441 1926.09 218.973 1954.62C220.43 1981.71 218.471 2011.32 205.302 2023.76C186.523 2041.5 112.418 2102.28 112.418 2102.28L136.974 2131.77C136.974 2131.77 241.76 2050.78 257.337 2021.05C267.779 2001.11 259.923 1892.59 259.923 1892.59L212.122 1900.34Z" fill="#A4A4A4" stroke="white" stroke-width="9.99799" stroke-miterlimit="1.5" stroke-linecap="square" stroke-linejoin="round"/>
<path fill-rule="evenodd" clip-rule="evenodd" d="M606.875 1843.4C606.875 1843.4 518.919 1964.48 450.114 1972.56C382.007 1980.56 269.961 1866.78 269.961 1866.78L258.055 1875.68C258.055 1875.68 374.949 2010.5 457.245 1990.23C513.921 1976.28 633.785 1899.75 633.785 1899.75L606.875 1843.4Z" fill="#A4A4A4" stroke="white" stroke-width="11.9987" stroke-miterlimit="1.5" stroke-linecap="square" stroke-linejoin="round"/>
<path fill-rule="evenodd" clip-rule="evenodd" d="M723.365 2081.41C723.365 2081.41 578.728 2143.67 509.517 2140.62C441.008 2137.6 369.304 1857.69 369.304 1857.69L356.127 1864.56C356.127 1864.56 418.487 2152.58 502.991 2159.06C570.856 2164.27 740.902 2141.34 740.902 2141.34L723.365 2081.41Z" fill="#A4A4A4" stroke="white" stroke-width="11.9987" stroke-miterlimit="1.5" stroke-linecap="square" stroke-linejoin="round"/>
<path fill-rule="evenodd" clip-rule="evenodd" d="M616.758 1939.28C616.758 1939.28 521.36 2067.77 452.267 2062.7C383.875 2057.69 254.806 1902.32 254.806 1902.32L233.158 1922.19C233.158 1922.19 374.521 2092.76 459.163 2088.41C517.461 2085.41 632.534 1999.7 632.534 1999.7L616.758 1939.28Z" fill="#A4A4A4" stroke="white" stroke-width="9.99799" stroke-miterlimit="1.5" stroke-linecap="square" stroke-linejoin="round"/>
<path fill-rule="evenodd" clip-rule="evenodd" d="M318.509 1061.98C254.163 1048.94 50.011 1395.38 32.964 1438.75C15.9159 1482.12 191.271 1658.8 191.271 1658.8L498.643 1552.83C498.643 1552.83 382.854 1075.02 318.509 1061.98Z" fill="#636363" stroke="white" stroke-width="14" stroke-miterlimit="1.5" stroke-linecap="round" stroke-linejoin="round"/>
<path d="M135.426 1263.24C136.979 1360.58 199.039 1458.89 272.8 1521.22" stroke="black" stroke-width="14" stroke-miterlimit="1.5" stroke-linecap="round" stroke-linejoin="round"/>
<path fill-rule="evenodd" clip-rule="evenodd" d="M227.398 2217.47L142.42 2302.9L-38.574 2073.27L37.4472 1998.89L227.398 2217.47Z" fill="#808080" stroke="white" stroke-width="16.178" stroke-miterlimit="1.5" stroke-linecap="square" stroke-linejoin="round"/>
<path fill-rule="evenodd" clip-rule="evenodd" d="M133.998 2246.26L-58.687 2391.73L-272.693 2259.96L-319.814 1953.07L398.153 1441.25L590.257 1720.2L26.2556 2086.58L133.998 2246.26Z" fill="#808080" stroke="white" stroke-width="16.178" stroke-miterlimit="1.5" stroke-linecap="square" stroke-linejoin="round"/>
<path d="M492.18 1721.26L317.657 1684.39L228.838 1565.85" stroke="white" stroke-width="13" stroke-miterlimit="1.5" stroke-linecap="round" stroke-linejoin="round"/>
<path fill-rule="evenodd" clip-rule="evenodd" d="M533.247 1845.01L397.463 1769.2L410.443 1819.99L540.857 1895.89L533.247 1845.01Z" fill="#777777" stroke="white" stroke-width="16.178" stroke-miterlimit="1.5" stroke-linecap="square" stroke-linejoin="round"/>
<path fill-rule="evenodd" clip-rule="evenodd" d="M444.73 1505.1L228.189 1649.96L248.301 1689.71L497.179 1540.8L444.73 1505.1Z" fill="#D1D1D1" stroke="white" stroke-width="16.178" stroke-miterlimit="1.5" stroke-linecap="square" stroke-linejoin="round"/>
<path fill-rule="evenodd" clip-rule="evenodd" d="M119.978 1535.84C119.978 1535.84 304.394 1717.62 286.297 1791.01C268.2 1864.4 11.3961 1976.17 11.3961 1976.17L-112.947 1768.86L119.978 1535.84Z" fill="#A4A4A4" stroke="white" stroke-width="13" stroke-miterlimit="1.5" stroke-linecap="round" stroke-linejoin="round"/>
<path d="M216.76 1644.52L107.795 1722.58L81.5999 1694.28L23.9889 1730.65L31.1405 1777.33L-46.4313 1838.14" stroke="white" stroke-width="13" stroke-miterlimit="1.5" stroke-linecap="round" stroke-linejoin="round"/>
<path fill-rule="evenodd" clip-rule="evenodd" d="M133.998 2246.26L-58.6869 2391.73L-272.693 2259.96L-119.865 1909.4C122.638 1906.39 464.637 1772.72 401.191 1612.15L574.463 1718.75L26.2557 2086.58L133.998 2246.26Z" fill="black" fill-opacity="0.3"/>
<path fill-rule="evenodd" clip-rule="evenodd" d="M513.248 1783.05C513.248 1783.05 341.326 1794.19 353.3 1736.03C365.263 1677.89 396.69 1601.97 396.69 1601.97L574.953 1739.76L513.248 1783.05Z" fill="#505050" stroke="white" stroke-width="13" stroke-miterlimit="1.5" stroke-linecap="round" stroke-linejoin="round"/>
<path fill-rule="evenodd" clip-rule="evenodd" d="M472.604 1825.91L423.178 1815.95L332.195 1881.23L281.222 1811.43L281.915 1729.3C281.915 1729.3 204.369 1692.72 160.793 1690.89C117.218 1689.05 53.0062 1688.45 53.0062 1688.45L41.9082 1616.79L99.5963 1548.64L49.0982 1475.11C92.4603 1375.47 198.596 1267.4 312.245 1153.93L298.332 1508.86L458.953 1618.8L505.469 1814.27L472.604 1825.91Z" fill="black" fill-opacity="0.4"/>
</g>
<defs>
<clipPath id="clip0_917_3">
<rect width="2160" height="2700" fill="white"/>
</clipPath>
</defs>
</svg>
