<svg width="2160" height="2700" viewBox="0 0 2160 2700" fill="none" xmlns="http://www.w3.org/2000/svg">
<g clip-path="url(#clip0_940_7)">
<path fill-rule="evenodd" clip-rule="evenodd" d="M626.151 1315.99C626.151 1315.99 293.317 1074.01 256.742 931.329C220.166 788.645 406.7 459.887 406.7 459.887C406.7 459.887 547.14 80.4343 454.068 69.7342C304.578 52.5484 -238.583 433.612 -238.583 433.612L-295.008 2106.08L73.7697 1536.51L147.807 1813.93L214.57 1585.86L279.538 1761.19L373.329 1565.5L386.514 1787.17L506.56 1564.24L558.527 1790.17L626.151 1315.99Z" fill="#808080" stroke="white" stroke-width="9.99799" stroke-miterlimit="1.5" stroke-linecap="square" stroke-linejoin="round"/>
<path d="M256.439 463.347C317.154 437.852 348.586 374.825 326.645 322.57C304.703 270.316 237.697 248.623 176.982 274.118C116.266 299.612 84.834 362.64 106.776 414.894C128.717 467.148 195.724 488.841 256.439 463.347Z" fill="#636363" stroke="white" stroke-width="10" stroke-miterlimit="1.5" stroke-linecap="round" stroke-linejoin="round"/>
<path fill-rule="evenodd" clip-rule="evenodd" d="M575.008 1855.83L564.762 1875.43C561.979 1880.76 556.662 1884.28 550.676 1884.78C544.687 1885.27 538.863 1882.66 535.243 1877.87L269.905 1526.29L297.884 1505.17L308.441 1519.16L546.534 1834.64L550.994 1826.11L385.061 1597.61C379.563 1590.04 380.982 1579.48 388.287 1573.63L467.044 1510.55C471.485 1507 477.376 1505.82 482.844 1507.39C488.313 1508.96 492.677 1513.09 494.55 1518.47L625.283 1893.58C626.88 1898.15 626.513 1903.17 624.275 1907.45L572.452 2006.81C569.653 2012.18 564.276 2015.72 558.237 2016.18C552.197 2016.64 546.347 2013.94 542.769 2009.06L154.594 1478.7L182.879 1458L554.408 1965.61L589.692 1897.96L575.008 1855.83ZM537.276 1747.57L469.608 1553.41L423.247 1590.54L537.276 1747.57Z" fill="#636769" stroke="white" stroke-width="9.99799" stroke-miterlimit="2" stroke-linejoin="round"/>
<path fill-rule="evenodd" clip-rule="evenodd" d="M-91.7426 684.254L44.2893 678.322L-125.591 1173.7L92.1177 929.032C92.1177 929.032 -114.518 1339.75 -82.2022 1309.75C-49.8853 1279.75 58.8558 1191.16 58.8558 1191.16L29.5096 1512.71L125.009 1356.16L152.154 1592.43L228.77 1397.59L257.97 1624.32L349.895 1446.84" fill="#636363"/>
<path fill-rule="evenodd" clip-rule="evenodd" d="M-79.7265 1301.99C-67.4876 1290.98 -48.73 1275 -29.0096 1258.47C11.6042 1224.43 56.3044 1188.03 56.3044 1188.03C57.5645 1187 59.3171 1186.83 60.7521 1187.59C62.1865 1188.36 63.0237 1189.91 62.876 1191.52L35.016 1496.08L121.681 1354.13C122.547 1352.7 124.221 1351.99 125.847 1352.35C127.472 1352.71 128.691 1354.05 128.881 1355.71L154.201 1576.84L225.315 1396.23C225.935 1394.66 227.545 1393.7 229.226 1393.91C230.907 1394.12 232.234 1395.44 232.449 1397.12L260.074 1612.44L346.777 1445.22L348.391 1442.11L354.622 1445.33L353.009 1448.45L261.166 1625.98C260.442 1627.38 258.894 1628.14 257.343 1627.87C255.793 1627.59 254.601 1626.34 254.4 1624.78L226.942 1412.4L155.697 1593.82C155.058 1595.45 153.392 1596.43 151.658 1596.2C149.926 1595.98 148.569 1594.6 148.37 1592.86L122.434 1367.87L32.8963 1514.78C31.9356 1516.35 30.0155 1517.06 28.2633 1516.48C26.5112 1515.9 25.3892 1514.19 25.558 1512.35C25.558 1512.35 49.0993 1253.77 53.9621 1200.37C39.592 1212.13 6.74414 1239.08 -23.793 1264.69C-46.4661 1283.71 -67.8646 1301.99 -79.4352 1312.73C-82.8331 1315.88 -85.7258 1315.52 -87.0284 1314.81C-88.0886 1314.24 -89.0666 1313.25 -89.4935 1311.51C-89.7649 1310.41 -89.78 1308.51 -89.2329 1305.91C-87.9672 1299.88 -83.7038 1288.3 -77.2245 1272.81C-45.148 1196.13 41.5362 1021.31 75.0633 954.176L-122.707 1176.27C-123.93 1177.64 -125.952 1177.96 -127.541 1177.03C-129.129 1176.1 -129.843 1174.18 -129.246 1172.44L39.1929 682.127L-91.5909 687.758L-95.0958 687.912L-95.4017 680.901L-91.8961 680.748L44.1321 674.742C45.3157 674.69 46.4486 675.227 47.1577 676.176C47.8669 677.125 48.0614 678.363 47.6774 679.483L-115.718 1156.78L89.1387 926.381C90.4689 924.886 92.7015 924.608 94.357 925.733C96.0126 926.857 96.5778 929.035 95.6782 930.823C95.6782 930.823 47.7272 1026.19 1.65072 1121.65C-32.6566 1192.73 -65.9332 1263.85 -77.5057 1295.55C-78.3749 1297.93 -79.1187 1300.08 -79.7265 1301.99Z" fill="white"/>
<path fill-rule="evenodd" clip-rule="evenodd" d="M10.4596 578.302L147.071 550.699L-89.75 918.398L112.892 756.112C112.892 756.112 -120.905 1081.88 -82.0676 1060.99C-43.2297 1040.11 84.3353 981.801 84.3353 981.801L-42.8964 1253.28L129.084 1095.23L54.6638 1454.49L210.44 1214.2L167.795 1451.18L301.502 1302.6" fill="#808080"/>
<path fill-rule="evenodd" clip-rule="evenodd" d="M-81.2464 1055.99C-66.8324 1048.39 -42.8739 1036.77 -17.6562 1024.8C30.2225 1002.08 82.6467 978.107 82.6467 978.107C84.196 977.399 86.022 977.733 87.2203 978.943C88.4191 980.153 88.7351 981.982 88.0124 983.524L-30.5916 1236.5L126.394 1092.3C127.665 1091.13 129.545 1090.92 131.046 1091.77C132.547 1092.62 133.327 1094.35 132.978 1096.04L62.579 1435.24L207.323 1212.17C208.285 1210.69 210.161 1210.09 211.806 1210.74C213.451 1211.39 214.409 1213.11 214.096 1214.85L173.58 1439.38L298.894 1300.25L301.241 1297.65L306.457 1302.34L304.11 1304.95L170.47 1453.59C169.394 1454.78 167.657 1455.12 166.213 1454.41C164.769 1453.7 163.97 1452.12 164.254 1450.54L203.524 1231.71L57.8847 1456.58C56.8795 1458.13 54.9139 1458.74 53.205 1458.04C51.4966 1457.34 50.5302 1455.52 50.905 1453.71L122.693 1106.51L-40.1738 1256.24C-41.5888 1257.54 -43.727 1257.65 -45.2769 1256.52C-46.8267 1255.38 -47.3557 1253.31 -46.5398 1251.57C-46.5398 1251.57 52.9688 1039.18 75.9588 990.108C58.4542 998.149 20.9094 1015.46 -14.1909 1032.11C-40.9309 1044.78 -66.25 1057.07 -80.1582 1064.55C-83.3771 1066.28 -85.7682 1066.14 -87.1541 1065.54C-89.1952 1064.67 -91.0821 1062.26 -90.2144 1057.71C-88.6231 1049.37 -76.1396 1027.01 -57.852 998.014C-14.7819 929.722 60.2402 823.299 93.2816 776.83L-87.3644 921.377C-88.8247 922.546 -90.9171 922.484 -92.3057 921.232C-93.6949 919.979 -93.9715 917.904 -92.9582 916.331L139.462 555.888L11.1541 581.741L7.71519 582.436L6.3255 575.558L9.7644 574.863L146.362 547.186C147.773 546.901 149.219 547.489 150.031 548.679C150.843 549.868 150.864 551.428 150.084 552.639L-73.8855 900.791L110.438 753.048C111.969 751.822 114.17 751.914 115.593 753.264C117.016 754.614 117.224 756.807 116.08 758.401C116.08 758.401 46.3315 855.682 -10.6091 940.49C-43.2471 989.101 -71.6923 1033.57 -80.1517 1053.08C-80.5648 1054.04 -80.9331 1055.05 -81.2464 1055.99Z" fill="white"/>
<path d="M93.7991 1027.33C128.288 1027.33 156.247 1000.42 156.247 967.229C156.247 934.036 128.288 907.127 93.7991 907.127C59.3103 907.127 31.3516 934.036 31.3516 967.229C31.3516 1000.42 59.3103 1027.33 93.7991 1027.33Z" fill="#989CA0"/>
<path fill-rule="evenodd" clip-rule="evenodd" d="M93.7994 897.127C133.888 897.127 166.246 928.646 166.246 967.23C166.246 1005.81 133.888 1037.33 93.7994 1037.33C53.7109 1037.33 21.3516 1005.81 21.3516 967.23C21.3516 928.646 53.7109 897.127 93.7994 897.127ZM93.7994 907.127C59.3336 907.127 31.3518 934.058 31.3518 967.23C31.3518 1000.4 59.3336 1027.33 93.7994 1027.33C128.265 1027.33 156.247 1000.4 156.247 967.23C156.247 934.058 128.265 907.127 93.7994 907.127Z" fill="white"/>
<path d="M152.457 935.049L196.359 919.572L194.124 855.332L243.279 850.531" stroke="white" stroke-width="9.99799" stroke-miterlimit="1.5" stroke-linecap="round" stroke-linejoin="round"/>
<path fill-rule="evenodd" clip-rule="evenodd" d="M239.25 798.29C189.284 823.211 392.122 404.055 459.771 99.8535C471.362 152.251 428.861 322.547 383.498 437.758L239.25 798.29Z" fill="white"/>
<path fill-rule="evenodd" clip-rule="evenodd" d="M229.108 865.59C231.406 958.075 283.86 1036.93 348.328 1088.41L282.863 1124.54L213.023 974.882L229.108 865.59Z" fill="white"/>
<path fill-rule="evenodd" clip-rule="evenodd" d="M306.016 1032.36L274.352 989.064C207.32 1015.58 173.161 1050.99 161.86 1124.24L187.347 1151.89C224.975 1074.5 245.983 1063.38 306.016 1032.36Z" fill="#8DCCB5" fill-opacity="0.5" stroke="white" stroke-width="9.99799" stroke-miterlimit="1.5" stroke-linecap="round" stroke-linejoin="round"/>
<path fill-rule="evenodd" clip-rule="evenodd" d="M1099.1 2240.61C1055.84 2471.86 1005.89 2643.72 924.651 2759.65C855.602 2608.94 889.57 2477.7 902.439 2340.84C870.265 2436.46 830.627 2527.49 774.244 2608.23C753.368 2521.24 748.441 2443.77 754.987 2373.17C733.929 2435.88 700.19 2494.87 651.782 2549.53C623.721 2460.42 614.329 2379.15 621.547 2304.87C598.616 2377 562.012 2443.65 516.434 2506.7L503.968 2285.22L331.351 2369.22C369.783 2204.39 463.725 2070.59 531.609 1934.85L1076.93 2157.2L1572.26 1915.72C1674.92 2022.47 1803.82 2128.93 1893.74 2345.09L1654.94 2229.38C1672.3 2286.66 1726.6 2400.32 1743.01 2486.57C1682.86 2434.44 1516.65 2361.19 1486.57 2297.54C1489.64 2369.2 1483.67 2497.29 1470.38 2572.13C1403.7 2494.49 1371.31 2404.81 1351.89 2310.59C1354.85 2454.41 1352.4 2598.51 1309.73 2744.72C1199.61 2573.99 1138.34 2462.7 1099.1 2240.61Z" fill="#8D8D8D" stroke="white" stroke-width="9.99799" stroke-miterlimit="1.5" stroke-linecap="square" stroke-linejoin="round"/>
<path fill-rule="evenodd" clip-rule="evenodd" d="M1701.53 2067.76L1694.35 2077.89L1825.96 2241.15L1701.53 2067.76Z" fill="white"/>
<path fill-rule="evenodd" clip-rule="evenodd" d="M1240.81 2196.86C1239.18 2453.59 1155.52 2709.19 1094.02 2933.76C1012.65 2697.8 1003.8 2458.18 975.948 2213.7L868.435 2512.4L833.613 2185.91L670.01 2422.67L672.308 2184.76L545.583 2371.17L574.101 2149.63L472.007 2257.1L519.67 1974.81L704.864 1864.88L903.489 2052.75L1347.45 2044.35L1501.07 1811.39L1548.82 1891.87C1610.96 2042.5 1779.82 2288.05 1779.82 2288.05L1575.88 2118.94L1492.51 2092.46L1549.55 2335.91L1396.41 2160.31L1400.69 2446.43L1240.81 2196.86Z" fill="#808080" stroke="white" stroke-width="9.99799" stroke-miterlimit="1.5" stroke-linecap="square" stroke-linejoin="round"/>
<path fill-rule="evenodd" clip-rule="evenodd" d="M1573.93 1199.67C1573.93 1199.67 1934.75 986.081 1971.32 843.4C2007.9 700.716 1592.15 276.624 1619.54 116.354C1646.93 -43.916 2468.79 314.949 2468.79 314.949L2495.09 1989.76L2126.31 1420.19L2052.27 1697.61L1985.51 1469.54L1920.54 1644.87L1826.75 1449.18L1813.57 1670.85L1693.52 1447.93L1641.55 1673.86L1573.93 1199.67Z" fill="#808080" stroke="white" stroke-width="9.99799" stroke-miterlimit="1.5" stroke-linecap="square" stroke-linejoin="round"/>
<path fill-rule="evenodd" clip-rule="evenodd" d="M1712.95 350.219C1839.28 473.611 1939.44 618.187 2026.25 781.801C2007.21 845.807 1996.72 902.432 1933.99 928.98C1955.34 886.488 1979.87 847.274 1974.01 776.76C1903.23 626.167 1811.55 486.403 1712.95 350.219Z" fill="black" fill-opacity="0.3"/>
<path fill-rule="evenodd" clip-rule="evenodd" d="M1683.71 210.45C1683.71 210.45 1634.16 122.899 1655.6 106.133C1677.03 89.3668 1812.33 109.854 1812.33 109.854C1722.26 105.748 1661.54 124.831 1683.71 210.45Z" fill="white"/>
<path d="M1905.92 415.702C1971.77 415.702 2025.16 369.759 2025.16 313.086C2025.16 256.412 1971.77 210.469 1905.92 210.469C1840.07 210.469 1786.69 256.412 1786.69 313.086C1786.69 369.759 1840.07 415.702 1905.92 415.702Z" fill="#636363" stroke="white" stroke-width="9.99999" stroke-miterlimit="1.5" stroke-linecap="round" stroke-linejoin="round"/>
<path fill-rule="evenodd" clip-rule="evenodd" d="M1614.03 1798.29L1626.03 1816.87C1629.3 1821.91 1634.92 1824.93 1640.92 1824.87C1646.93 1824.82 1652.49 1821.68 1655.65 1816.58L1887.49 1442.06L1857.69 1423.61L1848.46 1438.51L1640.43 1774.57L1635.2 1766.49L1779.39 1523.68C1784.17 1515.63 1781.78 1505.25 1773.97 1500.1L1689.74 1444.54C1684.99 1441.41 1679.02 1440.78 1673.72 1442.85C1668.42 1444.91 1664.45 1449.43 1663.08 1454.95L1567.44 1840.51C1566.27 1845.2 1567.1 1850.17 1569.72 1854.23L1630.47 1948.4C1633.76 1953.48 1639.44 1956.52 1645.49 1956.42C1651.55 1956.32 1657.12 1953.09 1660.24 1947.9L2062.74 1314.77L2032.67 1296.76L1644.65 1905.71L1603.29 1841.6L1614.03 1798.29ZM1641.63 1687.01L1691.13 1487.45L1740.72 1520.15L1641.63 1687.01Z" fill="#636769" stroke="white" stroke-width="9.99799" stroke-miterlimit="2" stroke-linejoin="round"/>
<path fill-rule="evenodd" clip-rule="evenodd" d="M2293.28 663.589L2159.17 640.075L2263.4 1153.29L2079.24 882.47C2079.24 882.47 2230.9 1316.51 2202.74 1282.57C2174.59 1248.63 2078.25 1146.7 2078.25 1146.7L2065.67 1469.34L1991.27 1301.73L1933.72 1532.49L1883.01 1329.36L1824.67 1550.4L1756.52 1362.49" fill="#636363"/>
<path fill-rule="evenodd" clip-rule="evenodd" d="M2201.29 1274.55C2200.94 1272.59 2200.48 1270.36 2199.93 1267.89C2192.56 1234.95 2168.78 1160.11 2143.98 1085.19C2110.67 984.564 2075.48 883.784 2075.48 883.784C2074.82 881.895 2075.66 879.809 2077.45 878.908C2079.24 878.008 2081.42 878.572 2082.54 880.227L2255.8 1135.24L2155.66 640.787C2155.42 639.626 2155.77 638.424 2156.6 637.575C2157.43 636.726 2158.62 636.341 2159.79 636.545L2293.89 660.133L2297.34 660.739L2296.13 667.651L2292.68 667.044L2163.73 644.508L2267.19 1152.52C2267.55 1154.32 2266.6 1156.14 2264.9 1156.85C2263.21 1157.56 2261.24 1156.98 2260.21 1155.46C2260.21 1155.46 2092.89 909.612 2092.9 909.614C2117.44 980.523 2180.73 1165.11 2202.6 1245.3C2207.01 1261.5 2209.74 1273.54 2210.21 1279.67C2210.42 1282.33 2210.16 1284.2 2209.74 1285.26C2209.1 1286.93 2208 1287.79 2206.87 1288.22C2205.49 1288.75 2202.57 1288.74 2199.61 1285.17C2189.53 1273.01 2170.68 1252.12 2150.67 1230.32C2123.71 1200.97 2094.63 1169.98 2081.91 1156.46L2069.63 1469.5C2069.56 1471.34 2068.23 1472.89 2066.41 1473.24C2064.6 1473.59 2062.79 1472.64 2062.04 1470.95L1992.3 1313.67L1937.42 1533.41C1937 1535.1 1935.47 1536.3 1933.73 1536.29C1931.98 1536.29 1930.45 1535.11 1930.03 1533.41L1882.9 1344.28L1828.14 1551.32C1827.74 1552.83 1826.4 1553.92 1824.83 1553.99C1823.25 1554.06 1821.82 1553.1 1821.28 1551.63L1753.23 1363.69L1752.03 1360.39L1758.63 1358L1759.82 1361.29L1824.12 1538.34L1879.42 1328.42C1879.85 1326.78 1881.34 1325.64 1883.03 1325.66C1884.73 1325.67 1886.2 1326.82 1886.61 1328.47L1933.72 1516.76L1987.48 1300.78C1987.89 1299.17 1989.27 1297.99 1990.93 1297.84C1992.59 1297.7 1994.15 1298.62 1994.83 1300.14L2062.36 1452.14L2074.21 1146.54C2074.28 1144.91 2075.31 1143.49 2076.83 1142.91C2078.35 1142.34 2080.07 1142.74 2081.18 1143.92C2081.18 1143.92 2120.79 1185.81 2156.65 1224.83C2174.06 1243.78 2190.59 1262.05 2201.29 1274.55Z" fill="white"/>
<path fill-rule="evenodd" clip-rule="evenodd" d="M2205.67 545.281L2073.79 500.203L2260.95 895.497L2081.06 708.313C2081.06 708.313 2270.65 1061.64 2234.85 1035.89C2199.05 1010.15 2080.12 935.8 2080.12 935.8L2171.09 1221.48L2021.04 1042.47L2048.27 1408.34L1924.95 1149.89L1936.52 1390.4L1823.2 1225.75" fill="#808080"/>
<path fill-rule="evenodd" clip-rule="evenodd" d="M2234.69 1030.83C2234.5 1029.85 2234.26 1028.8 2233.98 1027.8C2228.12 1007.36 2205.68 959.577 2179.62 907.145C2134.15 815.671 2077.6 710.17 2077.6 710.17C2076.67 708.441 2077.16 706.294 2078.75 705.14C2080.33 703.986 2082.53 704.18 2083.89 705.594L2247.5 875.983L2070.55 501.737C2069.94 500.435 2070.16 498.891 2071.12 497.816C2072.08 496.742 2073.59 496.347 2074.95 496.812L2206.81 541.962L2210.13 543.097L2207.86 549.736L2204.54 548.601L2080.66 506.335L2264.4 893.864C2265.2 895.554 2264.66 897.576 2263.12 898.638C2261.58 899.7 2259.5 899.49 2258.2 898.142C2258.2 898.142 2097.82 731.399 2097.82 731.402C2124.56 781.761 2185.15 897.009 2219 970.307C2233.38 1001.43 2242.86 1025.22 2243.36 1033.69C2243.63 1038.32 2241.44 1040.46 2239.31 1041.06C2237.85 1041.47 2235.47 1041.3 2232.5 1039.17C2219.68 1029.95 2196.16 1014.49 2171.29 998.452C2138.65 977.4 2103.66 955.365 2087.35 945.124L2174.92 1220.25C2175.5 1222.09 2174.71 1224.07 2173.03 1225C2171.34 1225.93 2169.24 1225.53 2168 1224.06L2025.92 1054.48L2052.1 1408.06C2052.23 1409.9 2051.04 1411.58 2049.25 1412.06C2047.47 1412.53 2045.6 1411.67 2044.8 1410L1929.54 1168.15L1940.11 1390.22C1940.19 1391.83 1939.19 1393.29 1937.67 1393.8C1936.15 1394.32 1934.47 1393.76 1933.56 1392.44L1820.31 1227.73L1818.32 1224.84L1824.1 1220.87L1826.09 1223.75L1932.31 1377.95L1921.24 1150.07C1921.16 1148.3 1922.33 1146.72 1924.05 1146.28C1925.76 1145.85 1927.54 1146.69 1928.31 1148.29L2042.91 1388.23L2017.08 1042.77C2016.95 1041.05 2017.95 1039.44 2019.55 1038.79C2021.15 1038.14 2022.98 1038.59 2024.09 1039.92L2161.06 1203.25L2076.25 937.032C2075.73 935.409 2076.28 933.636 2077.63 932.593C2078.97 931.548 2080.83 931.454 2082.27 932.357C2082.27 932.357 2131.15 962.922 2175.68 991.656C2199.13 1006.79 2221.38 1021.42 2234.69 1030.83Z" fill="white"/>
<path d="M1976.69 774.036L2051.2 749.697L2057.49 802.577L2197.06 857.756" stroke="white" stroke-width="9.99999" stroke-miterlimit="1.5" stroke-linecap="round" stroke-linejoin="round"/>
<path d="M2121.37 942.914C2155.86 942.914 2183.82 916.005 2183.82 882.811C2183.82 849.618 2155.86 822.709 2121.37 822.709C2086.88 822.709 2058.92 849.618 2058.92 882.811C2058.92 916.005 2086.88 942.914 2121.37 942.914Z" fill="#989CA0"/>
<path fill-rule="evenodd" clip-rule="evenodd" d="M2121.37 812.709C2161.46 812.709 2193.82 844.228 2193.82 882.812C2193.82 921.395 2161.46 952.914 2121.37 952.914C2081.28 952.914 2048.92 921.395 2048.92 882.812C2048.92 844.228 2081.28 812.709 2121.37 812.709ZM2121.37 822.709C2086.9 822.709 2058.92 849.64 2058.92 882.812C2058.92 915.983 2086.9 942.914 2121.37 942.914C2155.84 942.914 2183.82 915.983 2183.82 882.812C2183.82 849.64 2155.84 822.709 2121.37 822.709Z" fill="white"/>
<path fill-rule="evenodd" clip-rule="evenodd" d="M1865.83 986.523L1905.76 950.715C1965.86 990.518 1991.96 1032.23 1987.86 1106.24L1957.21 1128.01C1936.4 1044.52 1918.15 1029.29 1865.83 986.523Z" fill="#8DCCB5" fill-opacity="0.5" stroke="white" stroke-width="9.99799" stroke-miterlimit="1.5" stroke-linecap="round" stroke-linejoin="round"/>
<path fill-rule="evenodd" clip-rule="evenodd" d="M2230.21 1097.62L2201.86 870.625L2009.73 1155.42L2114.16 1167.56L2011.75 1356.89L1855.3 1487.59L1871.87 1548.8L1827.93 1665.32L1892.88 1582.05L1919.32 1626.64L1991.83 1470.51L2050.01 1646.37L2230.21 1097.62Z" fill="black" fill-opacity="0.3"/>
<path fill-rule="evenodd" clip-rule="evenodd" d="M2276.7 475.14L2436.89 269.874C2271.18 111.027 2055.99 59.5835 1820.63 51.9531L1974.11 378.182L2276.7 475.14Z" fill="#A4A4A4" stroke="white" stroke-width="16.178" stroke-miterlimit="1.5" stroke-linecap="square" stroke-linejoin="round"/>
<path fill-rule="evenodd" clip-rule="evenodd" d="M1911.8 174.046C1914.26 60.4922 2187.58 163.275 2373.44 226.283C2219.25 154.902 2064.35 104.144 1878.72 83.9922L1911.8 174.046Z" fill="white"/>
<path fill-rule="evenodd" clip-rule="evenodd" d="M778.474 1971.16L913.385 2048.09C913.385 2048.09 620.845 2570.5 571.866 2644.37C555.672 2668.8 441.088 2786.77 442.828 2766.51C444.92 2742.13 449.43 2655.36 482.603 2546.9C545.586 2340.99 655.893 2067.36 655.893 2067.36L778.474 1971.16Z" fill="#777777" stroke="white" stroke-width="9.82763" stroke-miterlimit="1.5" stroke-linecap="round" stroke-linejoin="round"/>
<path fill-rule="evenodd" clip-rule="evenodd" d="M579.981 1987.84L722.864 2081.94C722.864 2081.94 556.161 2281.38 515.132 2337.95C497.955 2361.64 394.014 2426.29 394.014 2426.29C394.014 2426.29 432.202 2247.02 464.768 2180.46C494.517 2119.66 579.981 1987.84 579.981 1987.84Z" fill="#777777" stroke="white" stroke-width="9.82763" stroke-miterlimit="1.5" stroke-linecap="round" stroke-linejoin="round"/>
<path fill-rule="evenodd" clip-rule="evenodd" d="M891.447 2022.29L1039.94 2065.3C1039.94 2065.3 819.917 2599.18 783.802 2680.51C754.504 2746.48 672.056 2835.24 669.478 2815.1C667.064 2796.25 649.688 2713.58 660.091 2646.22C692.807 2434.39 792.98 2097.27 792.98 2097.27L891.447 2022.29Z" fill="#777777" stroke="white" stroke-width="9.86092" stroke-miterlimit="1.5" stroke-linecap="round" stroke-linejoin="round"/>
<path fill-rule="evenodd" clip-rule="evenodd" d="M579.992 2158.84C580.761 2157.73 582.283 2157.46 583.39 2158.23C584.497 2159 584.771 2160.52 584.001 2161.63C584.001 2161.63 570.994 2182.98 553.757 2209.85C547.279 2219.95 540.21 2230.81 532.956 2241.55C530.117 2245.76 527.227 2249.93 524.307 2254.01C519.764 2260.35 515.197 2266.49 510.787 2272.31C491.493 2297.76 475.836 2317.26 475.836 2317.26C475.066 2318.36 473.543 2318.64 472.437 2317.87C471.33 2317.1 471.056 2315.58 471.825 2314.47C471.825 2314.47 484.641 2293 501.773 2266.04C505.689 2259.88 509.852 2253.46 514.213 2246.99C517.016 2242.83 519.92 2238.67 522.871 2234.54C530.415 2224 538.129 2213.59 545.335 2204C564.508 2178.48 579.992 2158.84 579.992 2158.84Z" fill="black"/>
<path fill-rule="evenodd" clip-rule="evenodd" d="M715.774 2226.18C716.523 2224.73 718.309 2224.16 719.76 2224.91C721.21 2225.66 721.779 2227.44 721.03 2228.9C721.03 2228.9 689.866 2292.53 652.208 2367.92C643.192 2385.97 633.783 2404.68 624.283 2423.32C617.983 2435.68 611.664 2448.02 605.338 2460.09C594.118 2481.49 583.049 2502.11 572.892 2520.92C544.537 2573.42 523.267 2611.66 523.267 2611.66C522.518 2613.11 520.733 2613.68 519.282 2612.93C517.832 2612.18 517.263 2610.4 518.012 2608.95C518.012 2608.95 536.9 2569.47 563.312 2515.97C572.773 2496.8 583.189 2475.84 594.151 2454.31C600.332 2442.17 606.741 2429.87 613.177 2417.58C622.885 2399.05 632.701 2380.55 642.206 2362.75C681.903 2288.42 715.774 2226.18 715.774 2226.18Z" fill="black"/>
<path fill-rule="evenodd" clip-rule="evenodd" d="M872.283 2180.72C872.748 2179.16 874.395 2178.27 875.961 2178.73C877.525 2179.19 878.418 2180.84 877.954 2182.41C877.954 2182.41 855.113 2264.7 827.31 2362.39C820.653 2385.78 813.689 2410.04 806.624 2434.25C801.939 2450.3 797.232 2466.33 792.481 2482.05C784.053 2509.93 775.672 2536.87 767.966 2561.45C746.457 2630.06 730.164 2680.23 730.164 2680.23C729.699 2681.8 728.051 2682.69 726.486 2682.23C724.922 2681.76 724.029 2680.11 724.493 2678.55C724.493 2678.55 738.216 2627.61 757.629 2558.38C764.584 2533.58 772.259 2506.43 780.409 2478.47C785.003 2462.7 789.807 2446.7 794.64 2430.69C801.929 2406.55 809.334 2382.41 816.518 2359.18C846.519 2262.15 872.283 2180.72 872.283 2180.72Z" fill="black"/>
<path fill-rule="evenodd" clip-rule="evenodd" d="M1370.27 2012.02L1259.4 2122.31C1259.4 2122.31 1630.24 2543.24 1696.19 2601.51C1718 2620.78 1848.78 2704.79 1841.58 2685.9C1831.52 2659.53 1803.29 2560.18 1740.32 2447.05C1644.03 2274.08 1502.49 2071.82 1502.49 2071.82L1370.27 2012.02Z" fill="#777777" stroke="white" stroke-width="9.81635" stroke-miterlimit="1.5" stroke-linecap="round" stroke-linejoin="round"/>
<path fill-rule="evenodd" clip-rule="evenodd" d="M1598.99 2009.5L1451.95 2104.17C1451.95 2104.17 1664.08 2267.56 1717.99 2311.25C1740.56 2329.53 1827.3 2366.8 1827.3 2366.8C1827.3 2366.8 1751.06 2223.3 1715.5 2161.2C1685.78 2109.29 1598.99 2009.5 1598.99 2009.5Z" fill="#777777" stroke="white" stroke-width="9.81635" stroke-miterlimit="1.5" stroke-linecap="round" stroke-linejoin="round"/>
<path fill-rule="evenodd" clip-rule="evenodd" d="M1432.79 2450.21L1423.43 2563.17L1351.81 2485.4L1272.32 2656.5L1202.31 2535.13L1065.59 2757.26L1024.97 2592.89L942.362 2719.49L913.348 2744.47L873.489 2533.84L844.517 2507.17L716.906 2739.55L645.839 2751.77L687.81 2505.03L636.461 2519.65L448.437 2767.51L531.597 2398.82L509.055 2340.63L394.826 2399.34L414.008 2306.28L337.869 2327L533.694 1923.68L505.921 1813.49L348.217 1622.6L289.82 1748.57L211.72 1576.13L156.126 1814.63L94.5291 1581.29L-46.8645 1681.53L-94.375 962.813C-19.5817 947.596 70.8068 979.199 14.8276 1040.28C-16.8366 1074.82 79.4869 1117.14 132.566 1099.07C230.288 1065.81 300.576 1201 387.241 1228.49L778.3 2066.92L1432.79 2450.21Z" fill="black" fill-opacity="0.3"/>
<path fill-rule="evenodd" clip-rule="evenodd" d="M1657.41 2110.1L1652.26 2119.74C1701.19 2173.55 1727.18 2223.59 1762.58 2283.93C1732.27 2219.19 1706.99 2166.16 1657.41 2110.1Z" fill="white"/>
<path fill-rule="evenodd" clip-rule="evenodd" d="M1591.4 2242.35L1647.55 2342.49C1689.34 2399.67 1727.46 2477.74 1762.86 2538.08C1732.55 2473.34 1640.98 2298.41 1591.4 2242.35Z" fill="white"/>
<path fill-rule="evenodd" clip-rule="evenodd" d="M1274.08 2091.54L1141.53 2172.69C1131.58 2176.66 1390.28 2549.37 1482.66 2647.55C1529.9 2697.77 1655.6 2821.46 1653 2801.33C1648.92 2769.68 1620.77 2658.07 1569.58 2532.56C1494.39 2348.21 1388.1 2137.67 1388.1 2137.67L1274.08 2091.54Z" fill="#777777" stroke="white" stroke-width="9.82723" stroke-miterlimit="1.5" stroke-linecap="round" stroke-linejoin="round"/>
<path fill-rule="evenodd" clip-rule="evenodd" d="M1476.4 2376.58L1518.73 2483.3C1552.55 2545.53 1579.95 2627.97 1607.01 2692.49C1585.58 2624.29 1518.08 2438.74 1476.4 2376.58Z" fill="white"/>
<path fill-rule="evenodd" clip-rule="evenodd" d="M1309.97 2214.84C1309.17 2213.43 1309.67 2211.64 1311.08 2210.85C1312.48 2210.05 1314.28 2210.54 1315.07 2211.95C1315.07 2211.95 1355.67 2280.55 1403.38 2362.47C1414.81 2382.08 1426.62 2402.47 1438.33 2422.89C1446.08 2436.44 1453.81 2449.98 1461.31 2463.35C1474.57 2487.08 1487.24 2510.16 1498.75 2531.27C1530.89 2590.2 1554 2633.67 1554 2633.67C1554.8 2635.08 1554.3 2636.87 1552.89 2637.67C1551.48 2638.47 1549.69 2637.97 1548.9 2636.56C1548.9 2636.56 1523.48 2594.39 1489.46 2536.54C1477.27 2515.81 1463.98 2493.08 1450.45 2469.5C1442.82 2456.21 1435.17 2442.61 1427.55 2429C1416.06 2408.46 1404.63 2387.85 1393.68 2367.96C1347.94 2284.93 1309.97 2214.84 1309.97 2214.84Z" fill="black"/>
<path fill-rule="evenodd" clip-rule="evenodd" d="M1479.01 2225.52C1478.04 2224.23 1478.3 2222.39 1479.59 2221.42C1480.9 2220.45 1482.73 2220.72 1483.7 2222.01C1483.7 2222.01 1527.64 2278.13 1579.39 2345.27C1591.78 2361.34 1604.6 2378.06 1617.31 2394.84C1625.74 2405.96 1634.15 2417.09 1642.3 2428.1C1656.76 2447.64 1670.59 2466.69 1683.17 2484.12C1718.31 2532.79 1743.64 2568.8 1743.64 2568.8C1744.61 2570.09 1744.34 2571.93 1743.04 2572.9C1741.75 2573.87 1739.91 2573.61 1738.94 2572.31C1738.94 2572.31 1711.49 2537.9 1674.63 2490.53C1661.43 2473.56 1647.01 2454.95 1632.32 2435.58C1624.04 2424.66 1615.71 2413.47 1607.41 2402.26C1594.88 2385.35 1582.42 2368.36 1570.47 2351.95C1520.53 2283.45 1479.01 2225.52 1479.01 2225.52Z" fill="black"/>
<path fill-rule="evenodd" clip-rule="evenodd" d="M1600.56 2145.23C1599.44 2144.06 1599.47 2142.21 1600.64 2141.08C1601.8 2139.96 1603.66 2139.99 1604.78 2141.16C1604.78 2141.16 1629.68 2164.81 1658.87 2193.43C1665.86 2200.28 1673.05 2207.43 1680.19 2214.65C1684.9 2219.44 1689.61 2224.24 1694.13 2229.05C1702.16 2237.58 1709.77 2246 1716.67 2253.72C1735.99 2275.31 1749.73 2291.47 1749.73 2291.47C1750.86 2292.63 1750.82 2294.49 1749.66 2295.61C1748.49 2296.73 1746.63 2296.7 1745.52 2295.53C1745.52 2295.53 1729.86 2281.22 1708.99 2261.13C1701.52 2253.95 1693.38 2246.04 1685.15 2237.71C1680.51 2233.01 1675.88 2228.14 1671.27 2223.25C1664.31 2215.86 1657.43 2208.4 1650.84 2201.17C1623.3 2170.97 1600.56 2145.23 1600.56 2145.23Z" fill="black"/>
</g>
<defs>
<clipPath id="clip0_940_7">
<rect width="2160" height="2700" fill="white"/>
</clipPath>
</defs>
</svg>
