<svg width="2160" height="2700" viewBox="0 0 2160 2700" fill="none" xmlns="http://www.w3.org/2000/svg">
<g clip-path="url(#clip0_938_185)">
<path d="M2182.79 -29.8701H-12.0938V2714.69H2182.79V-29.8701Z" fill="black"/>
<path fill-rule="evenodd" clip-rule="evenodd" d="M581.944 297.785C579.322 295.299 575.326 291.728 571.371 289.03C536.796 265.45 461.588 231.499 442.147 212.056C435.776 205.685 434.285 199.454 435.531 195.029C436.709 190.846 440.67 186.078 450.334 184.059C485.156 176.785 605.016 178.491 724.976 184.926C842.567 191.234 960.243 202.017 997.686 212.736C1003.83 214.496 1007 217.592 1008.41 220.782C1010.06 224.542 1009.71 229.313 1006.28 234.588C994.639 252.516 937.567 284.309 912.032 305.035C908.576 307.84 905.21 311.587 903.458 313.636C903.718 313.699 903.98 313.754 904.231 313.793C940.454 319.555 1053.68 318.154 1166.92 312.039C1278.24 306.026 1389.57 295.487 1427.7 282.408C1430.41 281.477 1432.24 280.35 1433.06 278.669C1434.43 275.853 1433.13 272.28 1430.91 268.032C1419.78 246.662 1381.78 214.527 1365.46 190.143C1355.71 175.587 1353.87 163.258 1364.12 156.089C1375.75 147.96 1436.15 146.486 1510.85 148.904C1653.54 153.521 1849.15 170.257 1849.15 170.257C1850.55 170.373 1851.6 171.607 1851.48 173.012C1851.37 174.417 1850.13 175.464 1848.73 175.348C1848.73 175.348 1653.21 159.822 1510.64 156.081C1438.4 154.186 1379.96 154.76 1368.76 162.688C1363.19 166.634 1364.91 172.894 1369.11 180.39C1381.95 203.314 1419.95 235.183 1435.24 258.025C1445.63 273.536 1446.09 285.559 1430.66 290.958C1392.24 304.4 1279.9 315.926 1167.52 322.685C1053.25 329.559 938.943 331.52 902.339 325.926C895.425 324.87 892.084 321.854 890.741 318.947C889.158 315.519 889.674 310.633 893.954 305.238C907.114 288.652 963.734 257.209 987.705 235.623C990.659 232.963 993.064 230.492 994.687 228.23C995.132 227.611 995.559 226.778 995.843 226.182C995.347 225.953 994.676 225.668 994.074 225.5C956.984 215.127 840.538 205.368 724.222 199.841C606.831 194.263 489.565 192.946 454.46 200.158C457.174 202.657 461.517 206.443 465.783 209.271C500.826 232.502 576.381 266.178 595.633 285.82C602.04 292.356 603.437 298.778 602.117 303.427C600.882 307.775 596.854 312.648 587.172 314.929C559.93 321.346 484.126 324.372 393.556 325.346C202.44 327.402 -55.0122 320.803 -55.0122 320.803C-61.0222 320.631 -65.7612 315.611 -65.5892 309.602C-65.4162 303.592 -60.3972 298.853 -54.3872 299.025C-54.3872 299.025 202.598 307.187 393.41 306.302C480.85 305.897 554.265 303.709 581.944 297.785Z" fill="#136748" fill-opacity="0.13"/>
<path fill-rule="evenodd" clip-rule="evenodd" d="M1035.73 879.615C1034.06 877.495 1030.86 873.61 1027.52 870.663C1002.88 848.888 947.184 814.736 936.301 796.337C933.095 790.923 932.945 786.141 934.751 782.454C936.293 779.326 939.589 776.365 945.803 774.863C983.661 765.719 1101.69 759.867 1219.44 758.482C1339.56 757.069 1459.39 760.376 1493.87 769.1C1503.45 771.521 1507.2 776.45 1508.21 780.679C1509.27 785.153 1507.52 791.316 1500.88 797.415C1480.65 816.028 1404.09 846.804 1368.55 868.918C1364.49 871.448 1360.35 874.849 1357.62 877.223C1385.03 884.299 1458.29 889.555 1545.64 893.616C1736.25 902.48 1993.35 905.071 1993.35 905.071C1999.36 905.151 2004.18 910.096 2004.1 916.107C2004.02 922.118 1999.07 926.936 1993.06 926.856C1993.06 926.856 1735.56 922.684 1544.7 912.638C1454.25 907.877 1378.63 901.684 1351.68 894.133C1342.11 891.449 1338.29 886.412 1337.23 882.016C1336.11 877.316 1337.77 870.958 1344.45 864.696C1364.5 845.876 1441.4 815.389 1477.39 793.644C1481.77 790.997 1486.26 787.396 1489.08 785.012C1454.31 776.339 1337.09 772.751 1219.57 773.415C1103.12 774.073 986.369 778.954 948.878 787.767C948.295 787.904 947.614 788.16 947.106 788.37C947.457 789.145 948.045 790.351 948.662 791.217C949.366 792.202 950.196 793.232 951.141 794.301C952.231 795.537 953.463 796.821 954.818 798.148C977.865 820.717 1033.12 854.5 1045.58 871.622C1049.63 877.191 1049.94 882.095 1048.21 885.453C1046.75 888.302 1043.29 891.175 1036.33 891.941C999.527 896 885.401 889.261 771.519 877.614C659.52 866.162 547.76 849.948 509.936 834.911C494.745 828.872 495.707 816.878 506.737 801.815C522.969 779.633 562.268 749.38 576.055 727.014C580.565 719.7 582.545 713.517 577.145 709.342C566.287 700.952 507.922 697.935 435.666 696.808C293.064 694.584 97.0659 701.92 97.0659 701.92C95.6622 701.977 94.4671 700.879 94.416 699.471C94.3548 698.062 95.4554 696.873 96.8591 696.816C96.8591 696.816 292.998 688.274 435.756 689.628C510.492 690.336 570.777 694.334 582.057 702.943C591.998 710.534 589.645 722.775 579.294 736.911C561.969 760.591 522.658 791.109 510.644 811.995C508.249 816.145 506.8 819.662 508.052 822.533C508.8 824.246 510.582 825.449 513.251 826.492C550.8 841.154 661.592 856.34 772.563 867.003C885.448 877.848 998.518 883.982 1034.95 879.74C1035.2 879.711 1035.47 879.667 1035.73 879.615Z" fill="#136748" fill-opacity="0.13"/>
<path fill-rule="evenodd" clip-rule="evenodd" d="M-104.883 1943.97C-104.883 1943.97 294.211 1997.34 327.786 1917.43C361.362 1837.52 180.08 1744.08 211.761 1705.28C243.442 1666.48 817.073 1598.72 817.073 1598.72C817.073 1598.72 754.148 1742.95 811.349 1806.11C868.55 1869.26 1194.02 1780.52 1214.67 1737C1235.32 1693.47 1270.49 1568.33 1349.3 1568.48C1428.11 1568.62 1561.04 1664.08 1634.51 1686.15C1707.99 1708.21 1840.55 1626.3 1882.2 1586.84C1923.85 1547.37 2151.2 1643.81 2151.2 1643.81L2189.12 1960.49C2189.12 1960.49 2151.07 1857.92 2043.95 1815.64C1936.84 1773.36 1794.4 1856.65 1727.39 1882.04C1660.39 1907.44 1569.78 1880.13 1479.86 1814.58C1389.93 1749.03 1280.44 1875.76 1280.44 1875.76C1280.44 1875.76 1173.7 1991.99 1080.16 1987.68C986.62 1983.37 669.929 1941.18 669.929 1941.18L677.402 1746.24C677.402 1746.24 596.617 1679.46 527.822 1693.12C459.027 1706.78 284.823 1696.64 393.875 1772.49C502.927 1848.34 689.808 1920.15 567.809 1983.16C445.81 2046.17 -382.602 2266.94 -382.602 2266.94L-400.857 2148.06L49.7756 2065.03L-236.145 2025.54L-104.883 1943.97Z" fill="#68BB9D" fill-opacity="0.4"/>
<path fill-rule="evenodd" clip-rule="evenodd" d="M-106.231 1941.8L-103.439 1933.17C-103.439 1933.17 77.6724 1957.62 205.343 1948.93C240.776 1946.52 271.995 1941.64 293.616 1932.66C305.713 1927.64 314.662 1921.71 318.171 1913.39C328.381 1889.16 314.706 1863.93 295.43 1839.29C264.086 1799.23 216.735 1761.33 202.844 1734.01C195.88 1720.31 196.045 1708.44 203.89 1698.85C208.344 1693.41 221.603 1686.6 242.189 1680.39C274.84 1670.54 327.499 1659.83 388.058 1649.36C567.22 1618.39 815.956 1589.27 815.956 1589.27C819.343 1588.87 822.685 1590.31 824.718 1593.05C826.75 1595.79 827.163 1599.4 825.799 1602.53C825.799 1602.53 798.336 1665.18 796.777 1725.07C796.048 1753.11 800.854 1780.63 818.238 1799.87C826.323 1808.81 840.76 1813.77 858.997 1816.51C890.063 1821.18 931.585 1818.62 975.16 1811.91C1046.53 1800.92 1123.34 1778.71 1169.4 1757.59C1181.83 1751.88 1191.95 1746.31 1198.93 1741.05C1202.69 1738.21 1205.48 1735.71 1206.67 1733.21C1219.33 1706.59 1237.52 1649.85 1267.46 1609.14C1288.52 1580.48 1315.38 1559.77 1349.32 1559.87C1375.68 1559.94 1407.92 1570.1 1441.98 1584.87C1510.69 1614.67 1587.35 1663.27 1636.9 1678.21C1664.9 1686.65 1701.89 1678.72 1738.78 1664.35C1795.65 1642.21 1852.19 1604.19 1876.69 1581.03C1882.91 1575.15 1892.43 1571.43 1904.57 1570.06C1920.81 1568.21 1942.2 1570.36 1965.7 1575.02C2046.91 1591.1 2154.21 1636.71 2154.21 1636.71C2156.75 1637.79 2158.52 1640.15 2158.85 1642.89L2196.45 1959.62C2196.89 1963.33 2194.49 1966.79 2190.85 1967.66C2187.22 1968.54 2183.5 1966.57 2182.2 1963.06C2182.2 1963.06 2166.19 1919.96 2125.66 1878.74C2104.59 1857.3 2076.89 1836.38 2041.33 1822.3C2002.12 1806.78 1958.01 1808.84 1914.8 1818.47C1841.78 1834.77 1771.28 1872.74 1729.81 1888.41C1697.82 1900.5 1660.67 1901.16 1620.8 1891.57C1574.93 1880.53 1525.34 1855.9 1476.01 1819.86C1449.42 1800.43 1420.96 1799.08 1394.5 1806.19C1335.02 1822.16 1285.21 1879.87 1285.21 1879.87C1285.17 1879.92 1285.13 1879.97 1285.08 1880.01C1285.08 1880.01 1234.78 1934.66 1172.72 1968.11C1143.07 1984.09 1110.76 1995.18 1079.88 1993.72C1045.82 1992.12 982.25 1985.48 915.103 1977.67C797.632 1964 669.187 1946.75 669.187 1946.75C666.312 1946.37 664.2 1943.86 664.311 1940.96L671.879 1748.76C663.39 1742.1 629.833 1717.02 590.473 1704.16C570.576 1697.66 549.172 1694.26 528.844 1698.27C484.654 1706.99 396.372 1705.24 369.683 1723.92C363.659 1728.14 362.197 1733.79 367.113 1741.46C371.88 1748.9 381.414 1757.7 396.733 1768.38C462.664 1814.34 556.879 1858.98 594.661 1900.92C606.733 1914.32 613.189 1927.63 612.311 1940.51C611.232 1956.37 598.984 1972.33 569.943 1987.3C530.987 2007.36 420.286 2043.42 287.426 2083.21C3.55438 2168.2 -381.67 2270.43 -381.67 2270.43C-382.663 2270.7 -383.721 2270.53 -384.581 2269.97C-385.441 2269.4 -386.022 2268.5 -386.178 2267.49L-404.309 2148.59C-404.596 2146.72 -403.347 2144.97 -401.49 2144.63L30.8204 2065.44L-236.516 2028.23C-237.649 2028.08 -238.562 2027.23 -238.8 2026.11C-239.038 2024.99 -238.549 2023.84 -237.578 2023.24L-106.231 1941.8ZM-106.327 1954.76L-103.534 1946.14L-228.33 2023.87L50.1884 2062.04C51.6554 2062.24 52.7574 2063.48 52.7914 2064.96C52.8244 2066.44 51.7784 2067.73 50.3224 2068L-396.887 2150.88L-379.643 2262.4C-338.637 2251.39 18.0064 2155.42 284.927 2074.89C416.951 2035.06 526.981 1999.06 565.674 1979.03C590.505 1966.17 602.007 1953.46 602.903 1939.88C603.609 1929.18 597.647 1918.41 587.598 1907.3C550.069 1865.81 456.45 1822.01 391.017 1776.6C374.175 1764.91 363.868 1755.08 358.617 1746.92C349.786 1733.2 353.078 1723.18 363.85 1715.61C391.172 1696.4 481.516 1697.01 526.8 1687.97C548.87 1683.57 572.14 1687.03 593.766 1694.05C641.355 1709.48 680.854 1742.06 680.854 1742.06C682.156 1743.14 682.882 1744.76 682.817 1746.45L675.738 1936.27C700.615 1939.53 812.808 1954.14 916.45 1965.98C983.28 1973.62 1046.54 1980.11 1080.44 1981.63C1109.23 1982.93 1139.26 1972.24 1166.87 1957.29C1225.92 1925.31 1273.92 1873.54 1275.73 1871.58C1277.62 1869.41 1329.48 1810.45 1391.15 1793.75C1421.18 1785.62 1453.46 1787.3 1483.71 1809.3C1531.53 1844.08 1579.5 1867.94 1623.93 1878.53C1660.91 1887.35 1695.35 1886.93 1724.98 1875.67C1766.84 1859.76 1838.01 1821.38 1911.73 1804.77C1957.76 1794.4 2004.77 1792.53 2046.58 1808.98C2084.27 1823.81 2113.66 1845.89 2136.02 1868.54C2153.94 1886.69 2167.34 1905.21 2176.88 1920.65L2144.08 1649.2C2123.89 1640.87 2033.24 1604.38 1962.64 1590.55C1941.01 1586.31 1921.33 1584.18 1906.39 1585.91C1898.34 1586.84 1891.82 1588.74 1887.7 1592.65C1862.31 1616.76 1803.74 1656.46 1744.72 1679.58C1704.02 1695.53 1663.07 1703.34 1632.13 1694.09C1582.11 1679.12 1504.6 1630.42 1435.22 1600.51C1403.58 1586.86 1373.75 1577.11 1349.29 1577.09C1320.89 1577.07 1299.07 1595.43 1281.5 1619.44C1252.36 1659.24 1234.97 1714.78 1222.66 1740.79C1218.24 1750.14 1201.86 1762.23 1176.84 1773.76C1129.69 1795.51 1051.06 1818.52 977.95 1829.93C932.322 1837.05 888.822 1839.61 856.269 1834.79C832.874 1831.32 814.853 1823.8 804.46 1812.35C783.94 1789.74 777.223 1757.62 778.014 1724.6C779.088 1679.71 793.875 1633.32 802.397 1610.09C745.052 1617.12 543.225 1642.45 391.475 1669.01C331.934 1679.43 280.151 1690.01 248.058 1699.77C238.531 1702.67 230.829 1705.45 225.325 1708.16C222.665 1709.47 220.627 1710.48 219.633 1711.7C217.483 1714.34 218.033 1717.54 219.378 1721.13C221.115 1725.76 224.309 1730.74 228.4 1736.12C254.622 1770.57 314.449 1817.09 334.755 1863.5C343.295 1883.01 345.319 1902.57 337.402 1921.47C332.145 1934.02 319.863 1944.4 301.665 1952C278.425 1961.7 244.912 1967.34 206.801 1970.02C77.3664 1979.1 -106.327 1954.76 -106.327 1954.76Z" fill="#136748" fill-opacity="0.13"/>
<path fill-rule="evenodd" clip-rule="evenodd" d="M-116.34 554.178C-116.34 554.178 282.754 607.548 316.329 527.638C349.905 447.728 168.623 354.288 200.304 315.488C231.985 276.688 805.615 208.928 805.615 208.928C805.615 208.928 742.691 353.158 799.892 416.318C857.093 479.468 1182.56 390.728 1203.21 347.208C1223.86 303.678 1259.03 178.538 1337.84 178.688C1416.65 178.828 1549.58 274.288 1623.05 296.358C1696.53 318.418 1829.09 236.508 1870.74 197.048C1912.39 157.578 2139.74 254.018 2139.74 254.018L2177.66 570.698C2177.66 570.698 2139.61 468.128 2032.49 425.848C1925.38 383.568 1782.94 466.858 1715.93 492.248C1648.93 517.648 1558.32 490.338 1468.4 424.788C1378.47 359.238 1268.98 485.968 1268.98 485.968C1268.98 485.968 1162.24 602.198 1068.7 597.888C975.162 593.578 658.472 551.388 658.472 551.388L665.945 356.448C665.945 356.448 585.16 289.668 516.365 303.328C447.57 316.988 273.366 306.848 382.418 382.698C491.47 458.548 678.351 530.358 556.352 593.368C434.353 656.378 -394.059 877.148 -394.059 877.148L-412.314 758.268L38.3185 675.238L-247.602 635.748L-116.34 554.178Z" fill="#68BB9D" fill-opacity="0.4"/>
<path fill-rule="evenodd" clip-rule="evenodd" d="M-117.688 552.008L-114.896 543.378C-114.896 543.378 66.2154 567.828 193.886 559.138C229.319 556.728 260.538 551.848 282.159 542.868C294.256 537.848 303.205 531.918 306.714 523.598C316.924 499.368 303.249 474.138 283.973 449.498C252.629 409.438 205.278 371.538 191.387 344.218C184.423 330.518 184.588 318.647 192.433 309.057C196.887 303.617 210.146 296.808 230.732 290.598C263.383 280.748 316.042 270.037 376.601 259.567C555.763 228.597 804.499 199.478 804.499 199.478C807.886 199.078 811.228 200.518 813.261 203.258C815.293 205.998 815.706 209.608 814.342 212.738C814.342 212.738 786.879 275.388 785.32 335.278C784.591 363.318 789.397 390.838 806.781 410.078C814.866 419.018 829.303 423.978 847.54 426.718C878.606 431.388 920.128 428.828 963.703 422.118C1035.07 411.128 1111.88 388.917 1157.94 367.797C1170.37 362.087 1180.49 356.518 1187.47 351.258C1191.23 348.418 1194.02 345.917 1195.21 343.417C1207.87 316.797 1226.06 260.058 1256 219.348C1277.06 190.688 1303.92 169.978 1337.86 170.078C1364.22 170.148 1396.46 180.308 1430.52 195.078C1499.23 224.878 1575.89 273.477 1625.44 288.417C1653.44 296.857 1690.43 288.927 1727.32 274.557C1784.19 252.417 1840.73 214.398 1865.23 191.238C1871.45 185.358 1880.97 181.638 1893.11 180.268C1909.35 178.418 1930.74 180.568 1954.24 185.228C2035.45 201.308 2142.75 246.917 2142.75 246.917C2145.29 247.997 2147.06 250.358 2147.39 253.098L2184.99 569.828C2185.43 573.538 2183.03 576.998 2179.39 577.868C2175.76 578.748 2172.04 576.778 2170.74 573.268C2170.74 573.268 2154.73 530.168 2114.2 488.948C2093.13 467.508 2065.43 446.588 2029.87 432.508C1990.66 416.988 1946.55 419.047 1903.34 428.677C1830.32 444.977 1759.82 482.948 1718.35 498.618C1686.36 510.708 1649.21 511.368 1609.34 501.778C1563.47 490.738 1513.88 466.108 1464.55 430.068C1437.96 410.638 1409.5 409.288 1383.04 416.398C1323.56 432.368 1273.75 490.078 1273.75 490.078C1273.71 490.128 1273.67 490.178 1273.62 490.218C1273.62 490.218 1223.32 544.867 1161.26 578.318C1131.61 594.298 1099.3 605.387 1068.42 603.927C1034.36 602.327 970.793 595.688 903.646 587.878C786.175 574.208 657.73 556.958 657.73 556.958C654.855 556.578 652.743 554.067 652.854 551.167L660.422 358.968C651.933 352.308 618.376 327.228 579.016 314.368C559.119 307.868 537.715 304.468 517.387 308.478C473.197 317.198 384.915 315.448 358.226 334.128C352.202 338.348 350.74 343.997 355.656 351.667C360.423 359.107 369.957 367.908 385.276 378.588C451.207 424.548 545.422 469.188 583.204 511.128C595.276 524.528 601.732 537.838 600.854 550.718C599.775 566.578 587.527 582.538 558.486 597.508C519.53 617.568 408.829 653.627 275.969 693.417C-7.90265 778.407 -393.127 880.638 -393.127 880.638C-394.12 880.908 -395.178 880.737 -396.038 880.177C-396.898 879.607 -397.479 878.708 -397.635 877.698L-415.766 758.797C-416.053 756.927 -414.804 755.178 -412.947 754.838L19.3634 675.648L-247.973 638.438C-249.106 638.288 -250.019 637.438 -250.257 636.318C-250.495 635.198 -250.006 634.048 -249.035 633.448L-117.688 552.008ZM-117.784 564.968L-114.991 556.348L-239.787 634.078L38.7314 672.248C40.1984 672.448 41.3004 673.687 41.3344 675.167C41.3674 676.647 40.3214 677.938 38.8654 678.208L-408.344 761.088L-391.1 872.608C-350.094 861.598 6.54935 765.628 273.47 685.098C405.494 645.268 515.524 609.268 554.217 589.238C579.048 576.378 590.55 563.668 591.446 550.088C592.152 539.388 586.19 528.618 576.141 517.508C538.612 476.018 444.993 432.217 379.56 386.807C362.718 375.117 352.411 365.288 347.16 357.128C338.329 343.408 341.621 333.388 352.393 325.818C379.715 306.608 470.059 307.217 515.343 298.177C537.413 293.777 560.683 297.238 582.309 304.258C629.898 319.688 669.397 352.268 669.397 352.268C670.699 353.348 671.425 354.968 671.36 356.658L664.281 546.478C689.158 549.738 801.351 564.348 904.993 576.188C971.823 583.828 1035.08 590.318 1068.98 591.838C1097.77 593.138 1127.8 582.448 1155.41 567.498C1214.46 535.518 1262.46 483.748 1264.27 481.788C1266.16 479.618 1318.02 420.658 1379.69 403.958C1409.72 395.828 1442 397.508 1472.25 419.508C1520.07 454.288 1568.04 478.148 1612.47 488.738C1649.45 497.558 1683.89 497.138 1713.52 485.878C1755.38 469.968 1826.55 431.588 1900.27 414.978C1946.3 404.608 1993.31 402.738 2035.12 419.188C2072.81 434.017 2102.2 456.098 2124.56 478.748C2142.48 496.898 2155.88 515.418 2165.42 530.858L2132.62 259.408C2112.43 251.078 2021.78 214.588 1951.18 200.758C1929.55 196.518 1909.87 194.388 1894.93 196.118C1886.88 197.048 1880.36 198.948 1876.24 202.858C1850.85 226.968 1792.28 266.668 1733.26 289.788C1692.56 305.738 1651.61 313.547 1620.67 304.297C1570.65 289.327 1493.14 240.628 1423.76 210.718C1392.12 197.068 1362.29 187.317 1337.83 187.297C1309.43 187.277 1287.61 205.638 1270.04 229.648C1240.9 269.448 1223.51 324.988 1211.2 350.998C1206.78 360.348 1190.4 372.438 1165.38 383.968C1118.23 405.718 1039.6 428.728 966.493 440.138C920.865 447.258 877.365 449.818 844.812 444.998C821.417 441.528 803.396 434.008 793.003 422.557C772.483 399.947 765.766 367.827 766.557 334.807C767.631 289.917 782.417 243.527 790.94 220.297C733.595 227.327 531.768 252.658 380.018 279.218C320.477 289.638 268.694 300.218 236.601 309.978C227.074 312.878 219.372 315.658 213.868 318.368C211.208 319.678 209.17 320.688 208.176 321.908C206.026 324.548 206.576 327.748 207.921 331.338C209.658 335.968 212.852 340.948 216.943 346.328C243.165 380.778 302.992 427.298 323.298 473.708C331.838 493.218 333.862 512.777 325.945 531.677C320.688 544.227 308.406 554.608 290.208 562.208C266.968 571.908 233.455 577.548 195.344 580.228C65.9094 589.308 -117.784 564.968 -117.784 564.968Z" fill="#136748" fill-opacity="0.13"/>
</g>
<defs>
<clipPath id="clip0_938_185">
<rect width="2160" height="2700" fill="white"/>
</clipPath>
</defs>
</svg>
