<svg width="2160" height="2700" viewBox="0 0 2160 2700" fill="none" xmlns="http://www.w3.org/2000/svg">
<path fill-rule="evenodd" clip-rule="evenodd" d="M942.474 1593.73C958.303 1596.11 1068.5 1564.43 1158.78 1597.82C1268.31 1638.31 1359.62 1744.95 1359.62 1744.95L1313.85 2043.94L1148.16 2132.15C1034.83 2141.08 948.096 2120.9 874.801 2085.98L942.474 1593.73Z" fill="#E5F20D" stroke="black" stroke-width="8.47868" stroke-miterlimit="1.5" stroke-linecap="round" stroke-linejoin="round"/>
<path fill-rule="evenodd" clip-rule="evenodd" d="M985.74 1800.12L1230.57 1802.94C1198.9 1842.11 1151.02 1872.35 1089.66 1895.16L1058.83 2030.24L1125.51 2049.36L1146.04 2118.46C1056.05 2120.4 968.882 2100.39 883.605 2065.6L924.788 1703.78L985.74 1800.12Z" fill="black" fill-opacity="0.3"/>
<path fill-rule="evenodd" clip-rule="evenodd" d="M841.535 1746.36C852.267 1733.22 876.7 1720.11 888.448 1726.59C900.191 1733.06 912.001 1785.24 912.001 1785.24L955.044 1814.84C955.044 1814.84 1007.12 1805.58 1013.69 1813.84C1020.25 1822.11 1012.56 1856.35 1001.3 1873.09C986.986 1894.4 927.796 1941.67 927.796 1941.67C927.796 1941.67 893.985 1931.42 895.931 1917.07C897.874 1902.73 912.539 1858.59 912.539 1858.59L873.44 1825.51C873.44 1825.51 835.611 1864.95 821.273 1866.6C806.936 1868.24 793.746 1854.57 796.299 1839.43C799.677 1819.39 826.174 1765.17 841.535 1746.36Z" fill="#D8CF82"/>
<path fill-rule="evenodd" clip-rule="evenodd" d="M840.83 1745.78C846.816 1738.29 857.114 1730.76 867.136 1726.67C875.462 1723.26 883.619 1722.3 889.163 1725.29C892.945 1727.32 896.897 1733.73 900.403 1741.77C907.253 1757.5 912.765 1779.45 913.865 1783.95L955.623 1812.09C960.425 1811.24 981.002 1807.73 996.506 1807.48C1001.69 1807.39 1006.32 1807.68 1009.71 1808.49C1012.74 1809.21 1014.91 1810.45 1016.1 1811.93C1017.63 1813.82 1018.66 1816.8 1019.06 1820.59C1019.58 1825.51 1019.08 1831.97 1017.77 1838.9C1015.38 1851.56 1010.29 1865.81 1004.18 1875.02C999.019 1882.77 988.132 1893.93 976.175 1905.03C954.825 1924.85 930.13 1944.59 930.13 1944.59C929.17 1945.36 927.894 1945.6 926.716 1945.24C926.716 1945.24 908.453 1939.61 898.85 1930.87C894.255 1926.69 891.61 1921.77 892.331 1916.58C893.074 1911.31 895.499 1902.1 898.328 1892.47C902.257 1879.1 906.941 1864.9 908.688 1859.66L873.604 1829.54C868.35 1834.78 853.479 1849.32 840.319 1859.11C832.993 1864.55 826.11 1868.48 821.548 1868.96C813.52 1869.81 805.834 1866.38 800.628 1860.55C795.632 1854.96 792.905 1847.2 794.351 1839.1C796.202 1828.74 804.23 1809.37 813.781 1790.41C822.824 1772.48 833.207 1754.92 840.83 1745.78ZM842.239 1746.94C834.884 1756.14 825.002 1773.76 816.411 1791.71C807.434 1810.47 799.863 1829.58 798.251 1839.76C797.173 1846.56 799.587 1853 803.858 1857.6C808.192 1862.27 814.476 1865.04 821.003 1864.23C826.091 1863.6 834.149 1857.75 842.375 1850.89C856.757 1838.91 871.315 1823.48 871.315 1823.48C872.393 1822.36 874.156 1822.27 875.344 1823.27L914.678 1856.07C915.712 1856.94 916.109 1858.35 915.682 1859.64C915.682 1859.64 909.799 1877.68 905.072 1894.42C902.46 1903.67 900.19 1912.5 899.531 1917.56C899.281 1919.44 900.086 1921.18 901.33 1922.82C902.706 1924.62 904.634 1926.28 906.794 1927.8C913.758 1932.72 923.111 1936.17 927.033 1937.5C932.75 1932.89 953.155 1916.28 971.241 1899.69C982.787 1889.1 993.416 1878.56 998.43 1871.16C1003.26 1864.06 1007.42 1853.64 1010.05 1843.56C1012.02 1835.97 1013.14 1828.56 1012.93 1822.89C1012.82 1819.76 1012.43 1817.23 1011.28 1815.76C1010.54 1814.82 1008.86 1814.44 1006.72 1814.06C1002.53 1813.3 996.804 1813.23 990.719 1813.49C974.369 1814.21 955.502 1817.4 955.502 1817.4C954.829 1817.52 954.137 1817.37 953.574 1816.98L910.808 1786.98C910.37 1786.68 910.061 1786.23 909.943 1785.71C909.943 1785.71 904.501 1760.58 897.298 1743.09C894.288 1735.78 891.098 1729.79 887.732 1727.88C882.839 1725.12 875.558 1726.12 868.063 1729C858.288 1732.76 848.185 1739.82 842.239 1746.94Z" fill="black"/>
<path fill-rule="evenodd" clip-rule="evenodd" d="M1256.04 1717.12C1289.76 1690.73 1369.66 1721.33 1367.4 1756.55C1364.05 1808.8 1290.69 2003.59 1259.02 2085.64C1250.25 2108.37 1209.23 2111.49 1209.23 2111.49L962.955 2030.68L944.802 1969.4L944.041 1939.31C944.041 1939.31 906.569 1908.87 911.267 1904.1C915.965 1899.32 964.596 1916 964.596 1916C964.596 1916 927.286 1875.63 932.201 1864.6C940.093 1846.9 997.01 1902.91 997.01 1902.91C997.01 1902.91 958.555 1861.06 963.437 1851.67C968.294 1842.33 995.424 1858.6 995.424 1858.6C995.424 1858.6 976.2 1841.97 980.13 1838.18C993.047 1825.71 1055.54 1861.24 1060.12 1873.89C1065.64 1889.12 1055.67 1990.62 1055.67 1990.62L1191.98 1999.46L1256.04 1717.12Z" fill="#FF050B"/>
<path fill-rule="evenodd" clip-rule="evenodd" d="M1255.03 1715.84C1271.36 1703.01 1298.3 1703.09 1321.92 1710.73C1348.46 1719.31 1370.49 1737.48 1369.3 1756.67C1368.12 1775.67 1357.8 1813.47 1343.55 1857.85C1318.56 1935.78 1281.54 2034.15 1261.42 2086.57C1258.39 2094.47 1251.8 2100.25 1244.18 2104.37C1228.86 2112.64 1209.43 2114.17 1209.43 2114.17C1209.08 2114.19 1208.73 2114.15 1208.39 2114.04L961.989 2033.61C961.025 2033.3 960.279 2032.53 959.992 2031.56L941.754 1970.3C941.677 1970.04 941.633 1969.76 941.625 1969.48L940.867 1940.86C936.467 1937.23 920.522 1923.88 912.696 1914.65C910.018 1911.49 908.274 1908.67 907.795 1906.74C907.262 1904.59 907.81 1902.96 908.94 1901.81C909.712 1901.02 911.007 1900.33 912.88 1900.09C915.087 1899.8 918.531 1900.08 922.652 1900.81C931.872 1902.44 944.844 1906.22 954.127 1909.12C948.229 1902.18 940.338 1892.35 934.937 1883.59C932.067 1878.92 929.9 1874.51 928.962 1870.94C928.152 1867.84 928.255 1865.2 929.131 1863.23C931.853 1857.13 938.829 1856.32 947.883 1860.42C954.289 1863.33 961.953 1868.56 969.385 1874.3C968.513 1873.05 967.677 1871.81 966.89 1870.6C963.226 1864.96 960.584 1859.73 959.867 1855.98C959.407 1853.59 959.668 1851.6 960.444 1850.11C962.556 1846.06 967.449 1844.71 973.501 1845.81C975.577 1846.18 977.806 1846.83 980.032 1847.61C979.278 1846.64 978.608 1845.7 978.071 1844.81C975.709 1840.91 975.992 1837.53 977.813 1835.78C980.58 1833.11 985.083 1831.91 990.805 1832.32C997.891 1832.83 1007.09 1835.7 1016.53 1839.83C1031.11 1846.21 1046.31 1855.53 1055.11 1863.11C1059.41 1866.82 1062.22 1870.26 1063.14 1872.8C1064.96 1877.84 1065.27 1892.02 1064.64 1908.98C1063.55 1938.58 1059.98 1976.89 1058.92 1987.85L1189.92 1996.7L1254.45 1716.76C1254.53 1716.39 1254.74 1716.07 1255.03 1715.84ZM914.841 1906.52C915.216 1907.18 915.702 1907.98 916.217 1908.66C918.873 1912.14 923.193 1916.51 927.703 1920.76C936.508 1929.04 946.066 1936.81 946.066 1936.81C946.794 1937.41 947.229 1938.29 947.251 1939.23L947.964 1968.91L965.459 2028.25C965.459 2028.25 1209.55 2108.77 1209.55 2108.77C1212.64 2108.48 1228.72 2106.7 1241.7 2099.75C1248.23 2096.26 1254 2091.46 1256.62 2084.71C1276.91 2032.42 1314.25 1934.3 1339.52 1856.55C1353.8 1812.63 1364.25 1775.25 1365.5 1756.42C1366.68 1738.53 1345.55 1722.19 1320.84 1714.08C1298.57 1706.79 1273.14 1706.24 1257.49 1718.05L1194.53 2000.04C1194.24 2001.3 1193.09 2002.16 1191.8 2002.08L1055.47 1993.59C1054.67 1993.53 1053.92 1993.16 1053.39 1992.54C1052.88 1991.93 1052.63 1991.13 1052.7 1990.33C1052.7 1990.33 1057.19 1943.51 1058.35 1908.76C1058.87 1892.93 1058.82 1879.68 1057.11 1874.98C1056.42 1873.1 1054.11 1870.74 1050.9 1868C1042.46 1860.78 1027.87 1851.94 1013.9 1845.88C1005.24 1842.11 996.831 1839.41 990.337 1838.96C987.324 1838.75 984.789 1838.92 983.097 1840.05C983.763 1841.81 985.617 1844.05 987.644 1846.32C992.07 1851.28 997.615 1856.07 997.615 1856.07C998.928 1857.2 999.153 1859.16 998.133 1860.57C997.114 1861.97 995.186 1862.37 993.696 1861.47C993.696 1861.47 983.991 1855.65 975.374 1853.17C972.824 1852.43 970.393 1851.96 968.428 1852.21C967.563 1852.31 966.798 1852.51 966.426 1853.23C966.294 1853.48 966.371 1853.82 966.415 1854.2C966.537 1855.2 966.905 1856.35 967.431 1857.63C969.094 1861.68 972.298 1866.74 976.011 1871.95C985.915 1885.82 999.506 1900.61 999.506 1900.61C1000.75 1901.97 1000.69 1904.07 999.366 1905.35C998.041 1906.63 995.941 1906.62 994.631 1905.33C994.631 1905.33 975.742 1886.72 958.34 1874.48C951.408 1869.61 944.771 1865.7 939.767 1864.71C937.707 1864.3 936.011 1864.3 935.268 1865.97C934.745 1867.14 935.227 1868.77 935.926 1870.75C937.383 1874.89 940.396 1879.96 943.947 1885.14C953.516 1899.1 967.03 1913.76 967.03 1913.76C968.06 1914.87 968.2 1916.54 967.372 1917.81C966.544 1919.09 964.955 1919.63 963.52 1919.14C963.52 1919.14 946.769 1913.37 932.056 1909.61C925.488 1907.93 919.348 1906.63 915.408 1906.51C915.227 1906.5 915.036 1906.51 914.841 1906.52Z" fill="black"/>
<path fill-rule="evenodd" clip-rule="evenodd" d="M879.34 2103.08C879.34 2103.08 941.738 1943.18 970.105 1918.6C996.142 1896.03 1040.04 1919.21 1053.9 1944.26C1067.76 1969.31 1019.76 2146.15 1019.76 2146.15C1002.33 2150.51 883.129 2117.17 879.34 2103.08Z" fill="#FF050B"/>
<path fill-rule="evenodd" clip-rule="evenodd" d="M877.92 2102.53C877.92 2102.53 906.437 2024.79 933.413 1968.84C945.665 1943.43 957.839 1922.55 966.676 1914.65C978.409 1904.23 993.501 1902.04 1008.4 1905.16C1029.59 1909.61 1050.18 1925.13 1059.28 1941.28C1061.54 1945.33 1062.78 1952.74 1062.6 1962.59C1062.39 1974.16 1060.54 1989.52 1057.63 2006.46C1053.75 2029 1048.07 2054.4 1042.47 2077.36C1033.11 2115.74 1023.95 2147.28 1023.95 2147.28C1023.53 2148.8 1022.33 2149.98 1020.81 2150.36C1017.4 2151.15 1010.46 2150.78 1001.36 2149.21C983.347 2146.09 956.088 2138.72 931.82 2130.52C913.615 2124.38 897.107 2117.77 887.424 2112.18C881.82 2108.94 878.454 2105.85 877.869 2103.48C877.784 2103.17 877.803 2102.83 877.92 2102.53ZM880.967 2103.11C881.828 2104.9 884.819 2106.82 889.131 2109.08C898.862 2114.18 915.345 2119.99 933.457 2125.34C953.994 2131.41 976.617 2136.82 993.917 2139.84C1003.68 2141.54 1011.63 2142.56 1016.25 2142.29C1018.35 2133.83 1025.01 2106.68 1031.93 2074.93C1036.9 2052.07 1041.98 2026.82 1045.55 2004.46C1048.14 1988.18 1049.96 1973.45 1050.17 1962.36C1050.31 1955.41 1050.09 1950.11 1048.51 1947.24C1042.26 1935.73 1029.06 1924.71 1014.52 1918.98C1000.51 1913.47 985.098 1912.74 973.523 1922.54C964.995 1929.71 953.387 1949.23 941.066 1972.7C913.685 2024.82 883.789 2096.33 880.967 2103.11Z" fill="black"/>
<path fill-rule="evenodd" clip-rule="evenodd" d="M1156.12 2136.64C1156.12 2136.64 1078.26 2036.57 1069.3 1995.34C1061.27 1958.4 1073.03 1890.72 1109.21 1901.69C1152.16 1914.71 1299.65 2069.8 1299.65 2069.8C1279.17 2090.35 1182.4 2131.09 1156.12 2136.64Z" fill="#FF050B"/>
<path fill-rule="evenodd" clip-rule="evenodd" d="M1154.92 2137.57C1154.92 2137.57 1121.92 2096.8 1095.77 2056.68C1080.94 2033.92 1068.42 2011.31 1064.89 1996.29C1060.09 1975.52 1061.25 1945.27 1069.34 1923.66C1077.1 1902.92 1091.27 1890.29 1110.92 1896.04C1118 1898.13 1127.83 1903.7 1139.27 1911.84C1150.1 1919.56 1162.53 1929.58 1175.52 1940.9C1197.01 1959.64 1220.14 1981.86 1240.72 2002.38C1275.44 2036.99 1302.81 2066.79 1302.81 2066.79C1304.44 2068.5 1304.41 2071.2 1302.74 2072.87C1293.87 2081.48 1271.52 2093.58 1246.38 2104.96C1211.73 2120.63 1171.91 2135.16 1156.43 2138.12C1155.86 2138.24 1155.28 2138.03 1154.92 2137.57ZM1156.74 2134.92C1172.55 2131.01 1210.5 2115.39 1243.55 2099C1264.6 2088.57 1283.65 2077.89 1293.39 2069.66C1285.12 2061.34 1261.3 2037.47 1232.93 2010.36C1212.09 1990.43 1188.78 1968.78 1167.36 1950.3C1154.63 1939.31 1142.61 1929.41 1132.11 1921.78C1122.13 1914.52 1113.7 1909.26 1107.5 1907.33C1093.97 1903.09 1085.19 1913.35 1079.48 1927.59C1071.58 1947.32 1069.78 1975.13 1073.7 1994.38C1076.59 2008.87 1088.08 2030.8 1101.51 2053.09C1124.12 2090.65 1152.37 2129.04 1156.74 2134.92Z" fill="black"/>
<path fill-rule="evenodd" clip-rule="evenodd" d="M1158.03 1965.05C1161.4 1961.55 1161.3 1955.96 1157.79 1952.58L1154.21 1949.14C1150.7 1945.77 1145.11 1945.88 1141.74 1949.38L1097.66 1995.21C1094.28 1998.73 1094.39 2004.31 1097.9 2007.68L1101.48 2011.13C1104.99 2014.5 1110.57 2014.4 1113.95 2010.88L1158.03 1965.05Z" fill="white" fill-opacity="0.3"/>
<path fill-rule="evenodd" clip-rule="evenodd" d="M1159.73 1966.69L1116.29 2013.13C1114 2015.57 1110.93 2016.81 1107.82 2016.9C1104.71 2016.99 1101.58 2015.87 1099.14 2013.56L1095.53 2010.15C1093.09 2007.81 1091.83 2004.7 1091.76 2001.57C1091.69 1998.43 1092.82 1995.27 1095.16 1992.82C1095.16 1992.82 1103.43 1984.23 1112.88 1974.57C1125.26 1961.91 1139.66 1947.38 1139.66 1947.38C1141.92 1945.1 1144.88 1943.92 1147.86 1943.9C1150.82 1943.89 1153.8 1944.96 1156.06 1947.21L1159.58 1950.71C1161.81 1952.92 1162.97 1955.81 1162.97 1958.72C1162.97 1961.6 1161.92 1964.49 1159.73 1966.69ZM1156.33 1963.41C1157.53 1962.12 1158.07 1960.45 1158.01 1958.82C1157.95 1957.21 1157.26 1955.63 1155.98 1954.45L1152.35 1951.07C1151.13 1949.92 1149.53 1949.4 1147.98 1949.46C1146.44 1949.52 1144.94 1950.17 1143.81 1951.38C1143.81 1951.38 1129.86 1966.33 1117.69 1979.2C1108.4 1989.02 1100.15 1997.61 1100.15 1997.61C1099.11 1998.68 1098.61 2000.06 1098.63 2001.44C1098.65 2002.82 1099.2 2004.19 1100.26 2005.23L1103.81 2008.7C1104.9 2009.76 1106.3 2010.29 1107.7 2010.28C1109.11 2010.26 1110.54 2009.73 1111.61 2008.64L1156.33 1963.41Z" fill="black"/>
<path fill-rule="evenodd" clip-rule="evenodd" d="M1111.05 1958.99C1106.57 1956.22 1100.67 1957.6 1097.89 1962.09L1095.06 1966.66C1092.28 1971.15 1093.67 1977.05 1098.15 1979.82L1155.34 2015.25C1159.83 2018.03 1165.73 2016.64 1168.5 2012.16L1171.34 2007.58C1174.12 2003.09 1172.73 1997.2 1168.24 1994.42L1111.05 1958.99Z" fill="white" fill-opacity="0.3"/>
<path fill-rule="evenodd" clip-rule="evenodd" d="M1112.39 1956.84L1170.07 1991.47C1173.16 1993.34 1175.18 1996.3 1175.97 1999.55C1176.77 2002.82 1176.29 2006.38 1174.4 2009.48L1171.61 2014.08C1169.7 2017.19 1166.7 2019.23 1163.41 2020.01C1160.11 2020.79 1156.51 2020.32 1153.39 2018.4C1153.39 2018.4 1142.67 2011.75 1130.59 2004.12C1114.74 1994.12 1096.52 1982.45 1096.52 1982.45C1093.6 1980.58 1091.68 1977.72 1090.97 1974.57C1090.3 1971.45 1090.76 1968.05 1092.62 1965.15L1095.53 1960.62C1097.36 1957.77 1100.16 1955.9 1103.23 1955.23C1106.27 1954.57 1109.56 1955.03 1112.39 1956.84ZM1109.72 1961.15C1108.07 1960.17 1106.17 1959.97 1104.44 1960.4C1102.74 1960.84 1101.23 1961.93 1100.26 1963.55L1097.5 1968.18C1096.56 1969.74 1096.38 1971.56 1096.79 1973.2C1097.2 1974.82 1098.24 1976.27 1099.78 1977.19C1099.78 1977.19 1118.34 1988.3 1134.36 1998.04C1146.57 2005.46 1157.3 2012.1 1157.3 2012.1C1158.67 2012.96 1160.27 2013.18 1161.73 2012.85C1163.19 2012.51 1164.54 2011.62 1165.4 2010.23L1168.27 2005.68C1169.16 2004.28 1169.4 2002.67 1169.06 2001.17C1168.72 1999.66 1167.83 1998.26 1166.42 1997.37L1109.72 1961.15Z" fill="black"/>
<path fill-rule="evenodd" clip-rule="evenodd" d="M960.831 1705.62L787.609 1672.41L824.592 1727.03C831.622 1723.18 839.82 1712.75 844.875 1712.63C851.376 1712.48 857.855 1721.57 861.803 1726.25C861.803 1726.25 827.583 1744.21 835.681 1757.33C841.177 1766.23 874.363 1795.47 874.584 1805.91C875.117 1831.67 830.824 1805.14 830.824 1805.14C830.824 1805.14 886.085 1854.93 874.297 1861.74C861.571 1869.1 798.017 1830.89 798.017 1830.89C798.017 1830.89 847.104 1855.35 835.699 1865.31C828.146 1871.9 812.94 1875.35 801.049 1875.38C782.292 1875.44 749.363 1835.57 747.641 1827.14C745.056 1814.48 765.375 1772.42 765.375 1772.42C765.375 1772.42 648.454 1622.46 687.295 1591.17C726.406 1559.66 1004.71 1587.88 1004.71 1587.88L960.831 1705.62Z" fill="#FF050B"/>
<path fill-rule="evenodd" clip-rule="evenodd" d="M839.927 1857.14C841.995 1861.32 841.487 1865.15 838.128 1868.09C834.582 1871.18 829.534 1873.7 823.86 1875.51C816.568 1877.85 808.239 1879.05 801.061 1879.07C793.117 1879.09 782.676 1872.85 772.974 1864.29C763.13 1855.6 753.916 1844.71 748.742 1837.03C746.058 1833.03 744.447 1829.75 744.064 1827.87C743.224 1823.74 744.404 1816.77 746.748 1809.01C750.938 1795.16 758.518 1778.54 761.179 1772.86C752.685 1761.74 706.537 1700.22 686.035 1650.85C679.138 1634.24 675.169 1618.94 676.174 1607.24C676.853 1599.33 679.739 1592.95 685.198 1588.56C690.675 1584.16 700.53 1580.74 713.593 1578.34C731.202 1575.11 754.83 1573.58 781.064 1573.18C875.898 1571.74 1005 1585.05 1005 1585.05C1005.87 1585.14 1006.66 1585.63 1007.12 1586.38C1007.59 1587.13 1007.68 1588.05 1007.37 1588.87L963.286 1706.54C962.841 1707.73 961.593 1708.44 960.335 1708.2L794.221 1676.75L825.487 1722.72C829.909 1719.55 834.574 1714.6 838.496 1711.91C840.803 1710.33 842.981 1709.46 844.802 1709.41C847.536 1709.35 850.31 1710.42 852.933 1712.26C857.381 1715.39 861.476 1720.81 864.298 1724.14C864.938 1724.9 865.199 1725.9 865.008 1726.87C864.82 1727.84 864.199 1728.68 863.323 1729.14C863.323 1729.14 850.531 1735.86 842.819 1743.98C840.91 1745.99 839.317 1748.07 838.43 1750.17C837.65 1752.02 837.466 1753.86 838.526 1755.57C842.606 1762.15 861.98 1779.88 871.704 1792.81C875.634 1798.03 877.962 1802.72 878.032 1805.84C878.128 1810.18 877.102 1813.33 875.468 1815.58C873.334 1818.52 870.085 1820.1 866.108 1820.52C861.45 1821.01 855.652 1819.82 849.99 1817.91C849.659 1817.8 849.328 1817.68 848.993 1817.56C857.981 1826.49 868.588 1837.74 874.482 1846.51C877.352 1850.79 879.118 1854.61 879.471 1857.43C879.898 1860.85 878.72 1863.35 876.104 1864.86C873.915 1866.13 870.604 1866.6 866.458 1866.06C861.653 1865.43 855.483 1863.53 848.783 1860.89C845.91 1859.76 842.937 1858.49 839.927 1857.14ZM814.578 1844.47C803.901 1838.7 796.131 1834.03 796.131 1834.03C794.442 1833.02 793.853 1830.85 794.802 1829.12C795.752 1827.39 797.893 1826.73 799.655 1827.6C799.655 1827.6 808.596 1832.1 818.099 1838.06C825.796 1842.23 835.023 1846.99 843.886 1850.94C851.734 1854.44 859.28 1857.31 865.17 1858.51C868.257 1859.14 870.755 1859.49 872.319 1858.71C872.3 1858.44 872.252 1857.84 872.127 1857.41C871.575 1855.47 870.266 1853.13 868.514 1850.51C866.182 1847.02 863.066 1843.13 859.611 1839.15C846.473 1824.02 828.467 1807.76 828.467 1807.76C827.12 1806.54 826.914 1804.51 827.992 1803.05C829.07 1801.59 831.079 1801.19 832.635 1802.12C832.635 1802.12 848.669 1811.82 860.887 1813.47C864.545 1813.97 867.845 1813.94 869.688 1811.74C870.744 1810.49 871.185 1808.59 871.138 1805.99C871.116 1804.97 870.545 1803.73 869.751 1802.27C868.146 1799.34 865.527 1795.86 862.429 1792.16C852.021 1779.73 836.462 1764.98 832.838 1759.09C829.751 1754.07 830.994 1748.45 834.894 1743.11C840.372 1735.61 851.255 1728.6 856.826 1725.31C855.038 1723.12 852.963 1720.67 850.722 1718.75C848.86 1717.14 846.954 1715.81 844.949 1715.85C844.107 1715.87 843.191 1716.48 842.116 1717.21C837.315 1720.48 831.377 1726.94 826.116 1729.81C824.681 1730.6 822.885 1730.17 821.969 1728.81L785.101 1674.11C784.416 1673.1 784.405 1671.77 785.078 1670.75C785.752 1669.72 786.977 1669.21 788.18 1669.44L959.147 1702.62L1000.75 1590.36C979.132 1588.3 866.288 1578.05 781.171 1579.6C755.359 1580.07 732.111 1581.62 714.793 1584.84C703.145 1587.01 694.27 1589.84 689.395 1593.77C684.067 1598.08 682.358 1605.03 682.844 1613.54C683.411 1623.47 687.016 1635.41 692.368 1648.21C714.846 1701.95 768.213 1770.2 768.213 1770.2C769.059 1771.28 769.214 1772.75 768.618 1773.98C768.618 1773.98 760.7 1790.42 755.457 1805.72C752.583 1814.12 750.337 1822.1 751.22 1826.41C751.499 1827.77 752.858 1830.05 754.807 1832.94C759.722 1840.23 768.482 1850.54 777.831 1858.78C785.954 1865.93 794.39 1871.72 801.039 1871.7C806.447 1871.68 812.576 1870.91 818.287 1869.44C824.214 1867.91 829.703 1865.64 833.275 1862.53C834.258 1861.67 833.533 1860.59 832.724 1859.35C830.983 1856.7 827.804 1853.85 824.111 1851.03C821.142 1848.76 817.838 1846.52 814.578 1844.47Z" fill="black"/>
<path fill-rule="evenodd" clip-rule="evenodd" d="M880.162 1580.89C850.817 1580.07 831.505 1578.15 815.282 1578.49L780.082 1591.97L830.404 1591.45C820.367 1604.7 799.788 1619.71 804.11 1636.3C821.134 1619.65 836.805 1613.91 855.708 1613.33C846.947 1626.16 837.717 1642.67 839.688 1656.99L853.705 1656.54L849.494 1667.04C809.493 1652.67 797.676 1659.1 784.202 1670.9L887.185 1691.3L893.748 1653.55L880.162 1580.89Z" fill="black" fill-opacity="0.3"/>
<path fill-rule="evenodd" clip-rule="evenodd" d="M837.79 1806.2C838.532 1806.7 838.726 1807.71 838.222 1808.45C837.719 1809.2 836.708 1809.39 835.966 1808.88C835.966 1808.88 819.064 1798.82 807.424 1789.1C802.358 1784.88 798.394 1780.57 796.691 1777.44C795.086 1774.07 794.898 1769.88 795.873 1765.78C797.612 1758.47 802.296 1751.66 802.296 1751.66C802.735 1750.88 803.725 1750.6 804.508 1751.03C805.289 1751.47 805.568 1752.47 805.13 1753.25C805.13 1753.25 802.224 1760.02 801.534 1766.74C801.253 1769.47 801.321 1772.21 802.571 1774.3C803.396 1775.83 804.993 1777.61 806.931 1779.63C809.288 1782.09 812.165 1784.82 815.218 1787.56C825.572 1796.83 837.79 1806.2 837.79 1806.2Z" fill="black"/>
<path fill-rule="evenodd" clip-rule="evenodd" d="M819.032 1869.13C819.752 1869.66 819.9 1870.68 819.365 1871.4C818.829 1872.12 817.811 1872.27 817.091 1871.74C817.091 1871.74 809.831 1867.26 801.346 1861.62C797.978 1859.39 794.372 1857.05 791.085 1854.57C788.114 1852.33 785.4 1850.01 783.078 1847.95C778.45 1843.85 775.506 1840.76 775.506 1840.76C774.786 1840.22 774.638 1839.21 775.173 1838.49C775.708 1837.76 776.727 1837.62 777.446 1838.16C777.446 1838.16 781.254 1840.09 786.508 1843.35C789.144 1844.99 792.137 1846.92 795.135 1849.13C798.454 1851.57 801.726 1854.35 804.836 1856.94C812.669 1863.46 819.032 1869.13 819.032 1869.13Z" fill="black"/>
<path fill-rule="evenodd" clip-rule="evenodd" d="M816.267 1837.87C817.128 1838.13 817.625 1839.03 817.377 1839.88C817.128 1840.75 816.226 1841.25 815.365 1840.99C815.365 1840.99 807.207 1839.21 800.049 1835.88C796.134 1834.06 792.623 1831.66 790.532 1829.07C788.642 1826.53 786.596 1821.59 785.291 1816.14C784.677 1813.58 784.259 1810.92 783.941 1808.4C783.128 1801.98 783.027 1796.71 783.027 1796.71C782.891 1795.82 783.5 1794.99 784.386 1794.86C785.272 1794.72 786.102 1795.33 786.238 1796.22C786.238 1796.22 788.374 1803.27 790.64 1810.84C791.616 1814.11 792.547 1817.47 793.533 1820.31C794.253 1822.39 794.865 1824.2 795.649 1825.35C797.058 1827.52 799.689 1829.5 802.541 1831.25C808.893 1835.15 816.267 1837.87 816.267 1837.87Z" fill="black"/>
<path fill-rule="evenodd" clip-rule="evenodd" d="M986.145 1854.35C985.417 1853.82 985.251 1852.8 985.773 1852.08C986.297 1851.35 987.313 1851.19 988.04 1851.71C988.04 1851.71 1004.1 1862.13 1017.89 1871.37C1021.43 1873.75 1024.82 1876.05 1027.73 1878.09C1033.45 1882.12 1037.36 1885.09 1037.36 1885.09C1038.06 1885.6 1038.54 1886.36 1038.69 1887.21C1038.69 1887.21 1039.39 1892.26 1040.01 1898.02C1040.81 1905.59 1041.52 1914.31 1041.52 1914.31C1041.66 1915.2 1041.06 1916.04 1040.18 1916.18C1039.3 1916.33 1038.46 1915.73 1038.31 1914.85C1038.31 1914.85 1036.14 1906.37 1034.45 1898.95C1033.58 1895.12 1032.85 1891.59 1032.47 1889.71C1030.92 1888.64 1027.76 1886.42 1023.82 1883.54C1020.95 1881.43 1017.7 1878.95 1014.31 1876.35C1001.15 1866.24 986.145 1854.35 986.145 1854.35Z" fill="black"/>
<path fill-rule="evenodd" clip-rule="evenodd" d="M1103.17 1877.04C1080.22 1877.04 1046.42 1862.93 1017.22 1841.19C1011.48 1836.91 1021.48 1822.74 1010.74 1815.48C993.799 1804.03 988.564 1815.76 983.337 1809.44C968.126 1791.03 958.102 1770.4 958.102 1749.57C958.102 1668.88 1021.03 1594.11 1101.17 1594.11C1181.32 1594.11 1245.58 1648.8 1245.58 1729.5C1245.58 1794.16 1151.58 1877.04 1103.17 1877.04Z" fill="#FF050B"/>
<path fill-rule="evenodd" clip-rule="evenodd" d="M1103.17 1878.56C1092.53 1878.72 1079.55 1875.94 1065.74 1870.81C1049.32 1864.71 1031.73 1855.28 1015.47 1843.55C1013.15 1841.86 1012.28 1839.18 1012.28 1835.82C1012.28 1832.09 1013.58 1827.24 1012.43 1822.96C1011.95 1821.17 1010.89 1819.55 1008.89 1818.23C1005.13 1815.76 1002.04 1814.53 999.432 1814.01C994.258 1812.99 990.953 1814.76 988.284 1815.03C985.413 1815.32 982.968 1814.72 980.478 1811.8C972.822 1802.78 966.415 1793.2 961.767 1783.32C956.621 1772.36 953.677 1761.01 953.531 1749.57C953.126 1708.43 968.576 1668.58 994.387 1638.81C1021.1 1607.99 1058.87 1588.07 1101.17 1587.88C1142.52 1588.1 1179.77 1602.25 1206.65 1626.81C1233.91 1651.73 1250.55 1687.27 1250.13 1729.5C1249.71 1761.41 1227.34 1797.55 1198.28 1826.2C1167.19 1856.85 1128.73 1878.94 1103.17 1878.56ZM1103.17 1875.53C1127.98 1875.16 1164.5 1852.39 1193.84 1821.82C1220.54 1793.99 1241.43 1759.65 1241.03 1729.5C1240.64 1690.43 1224.64 1657.91 1199.07 1635.24C1173.88 1612.91 1139.39 1600.15 1101.17 1600.35C1062.4 1600.18 1027.88 1618.48 1002.98 1646.37C978.369 1673.96 963.053 1710.96 962.668 1749.57C962.538 1759.79 964.979 1769.98 969.322 1779.89C973.438 1789.28 979.233 1798.42 986.192 1807.08C986.816 1807.85 987.469 1807.84 988.256 1807.72C989.006 1807.61 989.813 1807.43 990.697 1807.26C993.398 1806.73 996.666 1806.27 1000.87 1807.22C1004.12 1807.95 1007.98 1809.53 1012.6 1812.74C1016.11 1815.17 1017.86 1818.17 1018.64 1821.38C1019.66 1825.59 1018.83 1830.22 1018.44 1834.16C1018.33 1835.33 1018.24 1836.42 1018.37 1837.38C1018.45 1837.96 1018.54 1838.49 1018.98 1838.83C1034.51 1850.75 1051.41 1860.48 1067.25 1866.91C1080.45 1872.27 1092.89 1875.37 1103.17 1875.53Z" fill="black"/>
<path fill-rule="evenodd" clip-rule="evenodd" d="M1040.99 1844.12C1040.99 1844.12 1148.17 1780.6 1164.56 1791.93C1180.94 1803.27 1191.68 1818.52 1182.01 1828.5C1177.58 1833.08 1148.18 1822.17 1116.97 1824.8C1080.12 1827.89 1040.99 1844.12 1040.99 1844.12Z" fill="white"/>
<path fill-rule="evenodd" clip-rule="evenodd" d="M1040.13 1842.67C1040.13 1842.67 1087.73 1813.38 1124.31 1797.4C1137.07 1791.82 1148.56 1787.92 1156.34 1787.17C1160.86 1786.74 1164.35 1787.46 1166.6 1788.98C1175.74 1795.22 1183.19 1802.67 1186.83 1809.84C1190.77 1817.6 1190.54 1825.11 1184.73 1831.13C1183.27 1832.62 1180.15 1833.63 1175.48 1833.33C1164.41 1832.6 1141.41 1826.14 1117.23 1827.92C1104.16 1828.79 1090.76 1831.34 1078.96 1834.22C1057.74 1839.4 1041.63 1845.67 1041.63 1845.67C1040.81 1846 1039.88 1845.65 1039.49 1844.87C1039.1 1844.08 1039.38 1843.12 1040.13 1842.67ZM1062.6 1834.16C1067.17 1832.62 1072.27 1831.01 1077.7 1829.47C1089.69 1826.07 1103.33 1823.03 1116.71 1821.67C1123.58 1821 1130.38 1820.96 1136.86 1821.29C1151.84 1822.07 1165.07 1824.79 1173.49 1825.64C1175.41 1825.84 1177.05 1825.94 1178.35 1825.85C1178.74 1825.82 1179.27 1825.71 1179.5 1825.67C1182.74 1822.14 1182.38 1817.74 1180.12 1813.21C1176.98 1806.92 1170.44 1800.44 1162.51 1794.89C1160.71 1793.62 1157.46 1793.91 1153.24 1794.66C1146.17 1795.91 1136.91 1799.08 1126.75 1803.2C1105.32 1811.89 1079.98 1824.86 1062.6 1834.16Z" fill="black"/>
<path d="M1174.52 1805.77C1153.84 1801.92 1110.71 1813.23 1088.2 1820.41" stroke="black" stroke-width="3.66818" stroke-miterlimit="1.5" stroke-linecap="square" stroke-linejoin="round"/>
<path fill-rule="evenodd" clip-rule="evenodd" d="M1097.48 1767.38C1097.48 1767.38 1103.73 1768.99 1109.31 1770.75C1113.48 1772.06 1116.97 1773.4 1116.97 1773.4C1119.05 1774.54 1120.19 1776.87 1119.8 1779.21C1119.42 1781.55 1117.6 1783.4 1115.27 1783.81C1115.27 1783.81 1112.55 1784.77 1108.95 1785.56C1107.61 1785.85 1106.14 1786.11 1104.66 1786.26C1099.15 1786.81 1093.69 1786.68 1093.69 1786.68C1092.13 1786.96 1090.52 1786.41 1089.45 1785.23C1088.39 1784.04 1088.01 1782.39 1088.45 1780.86L1095.29 1768.29C1095.42 1767.85 1095.74 1767.48 1096.17 1767.31C1096.6 1767.13 1097.08 1767.16 1097.48 1767.38ZM1101.05 1774.58C1099.91 1773.58 1098.87 1772.64 1098.04 1771.89C1098.04 1771.89 1097.81 1775.56 1097.81 1775.56C1098.83 1775.24 1099.92 1774.9 1101.05 1774.58Z" fill="black"/>
<path fill-rule="evenodd" clip-rule="evenodd" d="M1038.82 1747.48C1051.07 1747.89 1068.59 1748.21 1068.76 1743.14C1068.93 1738.07 1051.63 1730.4 1039.38 1729.98C1027.14 1729.57 1018.35 1727.03 1018.18 1732.1C1018.01 1737.17 1026.58 1747.07 1038.82 1747.48Z" fill="white"/>
<path fill-rule="evenodd" clip-rule="evenodd" d="M1038.77 1749.01C1033.36 1748.91 1028.59 1747.05 1024.87 1744.53C1019.29 1740.76 1016.18 1735.4 1016.24 1732.04C1016.29 1729.29 1017.84 1727.8 1020.77 1727.21C1024.43 1726.47 1031.18 1727.56 1039.46 1727.72C1047.08 1727.88 1056.6 1730.7 1063.05 1734.08C1065.88 1735.56 1068.13 1737.19 1069.5 1738.72C1070.88 1740.26 1071.46 1741.84 1071.43 1743.23C1071.39 1744.97 1070.47 1746.5 1068.57 1747.66C1066.95 1748.65 1064.37 1749.41 1061.21 1749.81C1058.52 1750.14 1055.37 1750.32 1052.1 1750.22C1047.6 1750.09 1042.91 1749.47 1038.77 1749.01ZM1066.09 1742.98C1066.06 1742.81 1065.9 1742.66 1065.75 1742.47C1065.41 1742.02 1064.96 1741.57 1064.4 1741.11C1062.21 1739.28 1058.75 1737.44 1054.84 1735.9C1049.87 1733.94 1044.18 1732.47 1039.31 1732.25C1032.75 1731.94 1027.21 1731.02 1023.45 1731.03C1022.57 1731.03 1021.81 1731.08 1021.18 1731.23C1020.59 1731.37 1020.15 1731.57 1020.12 1732.17C1020 1734.75 1022.66 1738.66 1026.86 1741.69C1030.04 1743.98 1034.15 1745.73 1038.87 1745.96C1042.97 1745.78 1047.59 1745.41 1052 1745.11C1055.06 1744.91 1057.98 1744.74 1060.49 1744.39C1062.41 1744.12 1064.06 1743.82 1065.26 1743.3C1065.51 1743.2 1065.9 1743.09 1066.09 1742.98ZM1066.1 1742.97C1066.2 1742.91 1066.24 1742.85 1066.16 1742.78C1066.1 1742.72 1066.1 1742.86 1066.1 1742.97Z" fill="black"/>
<path d="M1153.87 1753.52C1169.7 1753.52 1182.54 1743.68 1182.54 1731.53C1182.54 1719.38 1169.7 1709.54 1153.87 1709.54C1138.03 1709.54 1125.2 1719.38 1125.2 1731.53C1125.2 1743.68 1138.03 1753.52 1153.87 1753.52Z" fill="white"/>
<path fill-rule="evenodd" clip-rule="evenodd" d="M1153.87 1708.12C1157.61 1707.43 1161.16 1707.16 1164.62 1707.74C1168.44 1708.39 1171.82 1710.15 1174.79 1712.04C1179.7 1715.17 1183.34 1719.47 1185.14 1724.34C1185.98 1726.62 1186.39 1729.04 1186.38 1731.53C1186.27 1737.89 1183.35 1743.74 1178.34 1748.2C1172.43 1753.45 1163.65 1756.81 1153.87 1756.62C1146 1756.46 1138.85 1754.09 1133.44 1750.28C1126.83 1745.62 1122.77 1738.9 1122.92 1731.53C1123.07 1724.28 1127.23 1717.78 1133.91 1713.48C1139.29 1710.02 1146.26 1707.96 1153.87 1708.12ZM1153.87 1710.95C1146.97 1711.1 1140.71 1713.19 1135.98 1716.54C1130.68 1720.28 1127.34 1725.61 1127.47 1731.53C1127.59 1737.32 1131.12 1742.38 1136.45 1745.82C1141.14 1748.83 1147.24 1750.56 1153.87 1750.42C1160.4 1750.29 1166.33 1748.31 1170.83 1745.15C1175.67 1741.75 1178.8 1736.93 1178.71 1731.53C1178.71 1729.41 1178.17 1727.39 1177.28 1725.5C1175.9 1722.62 1173.67 1720.04 1170.79 1717.98C1168.48 1716.33 1165.74 1715.17 1162.85 1714.01C1159.98 1712.86 1157.17 1711.56 1153.87 1710.95Z" fill="black"/>
<path d="M1152.2 1730.12C1154.33 1730.12 1156.05 1727.95 1156.05 1725.26C1156.05 1722.58 1154.33 1720.41 1152.2 1720.41C1150.07 1720.41 1148.34 1722.58 1148.34 1725.26C1148.34 1727.95 1150.07 1730.12 1152.2 1730.12Z" fill="white" fill-opacity="0.3"/>
<path fill-rule="evenodd" clip-rule="evenodd" d="M1152.2 1716.78C1154.17 1716.42 1155.93 1717.4 1157.59 1718.64C1159.44 1720.01 1160.38 1722.49 1160.79 1725.27C1161.12 1728.2 1159.91 1730.79 1158.36 1732.64C1156.81 1734.51 1154.53 1735.33 1152.2 1735.43C1149.85 1735.32 1147.58 1734.49 1146.05 1732.63C1144.52 1730.78 1143.31 1728.18 1143.64 1725.27C1144.05 1722.5 1144.99 1720.02 1146.82 1718.66C1148.47 1717.42 1150.22 1716.45 1152.2 1716.78ZM1151.43 1724.94C1150.98 1725.08 1150.61 1725.31 1150.88 1725.52C1150.99 1725.64 1151.28 1725.45 1151.3 1725.27C1151.32 1725.18 1151.36 1725.05 1151.43 1724.94ZM1152.92 1724.94C1152.98 1725.05 1153.02 1725.17 1153.04 1725.27C1153.06 1725.46 1153.36 1725.65 1153.48 1725.55C1153.75 1725.32 1153.37 1725.08 1152.92 1724.94Z" fill="black"/>
<path d="M1044.24 1735.98C1046.37 1735.98 1048.1 1734.55 1048.1 1732.79C1048.1 1731.03 1046.37 1729.6 1044.24 1729.6C1042.11 1729.6 1040.39 1731.03 1040.39 1732.79C1040.39 1734.55 1042.11 1735.98 1044.24 1735.98Z" fill="white" fill-opacity="0.3"/>
<path fill-rule="evenodd" clip-rule="evenodd" d="M1044.24 1726.88C1046.34 1726.56 1048.17 1727.46 1049.58 1728.55C1050.91 1729.57 1051.42 1731.14 1051.64 1732.79C1051.87 1734.88 1050.79 1736.78 1049.15 1738.22C1047.92 1739.3 1046.15 1739.86 1044.24 1739.95C1041.88 1739.82 1039.76 1738.94 1038.52 1737.4C1037.43 1736.06 1036.67 1734.5 1036.87 1732.79C1037.08 1731.15 1037.6 1729.57 1038.92 1728.56C1040.31 1727.47 1042.15 1726.57 1044.24 1726.88ZM1043.94 1732.43C1043.63 1732.6 1043.36 1732.91 1043.55 1733.05C1043.67 1733.13 1043.92 1732.94 1043.9 1732.79C1043.89 1732.71 1043.91 1732.56 1043.94 1732.43ZM1043.99 1732.11C1044 1732.04 1043.99 1732.03 1043.94 1732.1C1043.93 1732.13 1043.95 1732.13 1043.99 1732.11ZM1044.47 1732.09C1044.51 1732.1 1044.54 1732.11 1044.52 1732.08C1044.48 1732.01 1044.47 1732.02 1044.47 1732.09ZM1044.51 1732.42C1044.54 1732.56 1044.55 1732.71 1044.54 1732.79C1044.52 1732.95 1044.79 1733.15 1044.92 1733.06C1045.12 1732.92 1044.83 1732.59 1044.51 1732.42Z" fill="black"/>
<path fill-rule="evenodd" clip-rule="evenodd" d="M1109.79 1734.99C1109.04 1735.37 1108.12 1735.07 1107.75 1734.32C1107.37 1733.57 1107.67 1732.66 1108.42 1732.28C1108.42 1732.28 1117.48 1725.59 1129.72 1717.54C1131.59 1716.31 1133.52 1715.1 1135.54 1713.9C1138.44 1712.19 1141.42 1710.45 1144.49 1708.87C1146.53 1707.82 1148.62 1706.88 1150.7 1705.98C1153.96 1704.59 1157.18 1703.37 1160.28 1702.21C1163.76 1700.89 1167 1699.74 1170 1698.71C1178.84 1695.68 1184.79 1693.87 1184.79 1693.87C1185.54 1693.49 1186.46 1693.79 1186.83 1694.54C1187.21 1695.29 1186.91 1696.2 1186.16 1696.58C1186.16 1696.58 1181.15 1700.28 1173.45 1705.56C1170.84 1707.36 1167.98 1709.28 1164.85 1711.29C1162.06 1713.09 1159.17 1714.95 1156.1 1716.73C1154.14 1717.87 1152.14 1718.98 1150.09 1719.99C1146.99 1721.52 1143.81 1722.87 1140.71 1724.18C1138.54 1725.09 1136.41 1725.91 1134.31 1726.68C1120.56 1731.71 1109.79 1734.99 1109.79 1734.99Z" fill="black"/>
<path fill-rule="evenodd" clip-rule="evenodd" d="M1080.25 1724.63C1080.62 1723.88 1081.53 1723.56 1082.28 1723.93C1083.03 1724.3 1083.35 1725.21 1082.98 1725.96L1078.11 1739.66C1077.4 1741.12 1075.71 1741.8 1074.18 1741.25C1067.64 1739.57 1061.16 1737.6 1054.93 1734.99C1048.45 1732.29 1042.31 1729.04 1036.83 1725.23C1033.7 1723.05 1030.81 1720.64 1028.22 1718.07C1024.78 1714.64 1021.87 1710.92 1019.46 1707.07C1016.83 1707.31 1013.04 1707.64 1008.97 1707.94C999.017 1708.7 987.638 1709.32 987.638 1709.32C986.814 1709.46 986.026 1708.91 985.879 1708.09C985.732 1707.26 986.284 1706.47 987.108 1706.33C987.108 1706.33 998.009 1703 1007.62 1700.29C1014.92 1698.23 1021.34 1696.58 1021.34 1696.58C1023.38 1696.22 1025.45 1697.12 1026.57 1698.86C1029.4 1702.73 1033.07 1706.12 1037.03 1709.51C1038.92 1711.13 1040.88 1712.74 1042.92 1714.34C1044.92 1715.9 1046.95 1717.47 1049.08 1719C1052.44 1721.41 1055.92 1723.73 1059.54 1725.96C1064.3 1728.89 1069.12 1731.7 1074.12 1734.2L1080.25 1724.63Z" fill="black"/>
<path fill-rule="evenodd" clip-rule="evenodd" d="M964.168 1510.76C959.937 1505.12 954.672 1500.06 949.33 1495.48C934.967 1483.17 900.581 1477.8 881.763 1481.17C853.117 1486.29 798.003 1533.31 798.798 1536.48C806.439 1527.12 850.67 1507.82 858.79 1529.02C840.644 1555.77 851.483 1560.41 838.529 1619.61C843.683 1601.8 864.279 1586.66 870.015 1569.03C858.981 1601.09 859.235 1635.48 863.746 1668.72C866.678 1654.74 869.768 1640.78 873.017 1626.87C871.476 1640.25 872.476 1653.8 876.704 1666.62C882.116 1683.05 892.186 1697.3 901.457 1711.72C909.709 1724.54 917.263 1737.79 922.759 1752.06C919.72 1732.15 916.854 1712.11 916.258 1691.96C915.872 1679.05 916.634 1666.17 918.057 1653.35C923.723 1667.11 929.29 1680.91 934.753 1694.75C938.171 1660.82 942.163 1626.95 946.722 1593.16C1058.88 1592.21 1171.05 1591.28 1283.21 1590.38C1294.51 1639.36 1345.29 1660.22 1352.86 1709.92C1354.96 1693.3 1339.72 1635.34 1339.72 1635.34L1387.36 1672.99L1335.87 1603.81L1402.98 1652.75C1402.98 1652.75 1343.21 1581.63 1341.34 1577.4C1349.15 1595.07 1425.64 1629.72 1425.64 1629.72C1425.64 1629.72 1356.09 1565.18 1335.37 1537.32C1355.74 1533.22 1422.51 1547.45 1432.76 1558.08C1434.09 1547.57 1351.02 1504.8 1304.81 1508.91C1284.24 1510.74 1265.98 1531.17 1265.98 1531.17C1265.98 1531.17 1064.77 1517.56 964.168 1510.76Z" fill="#FF8184"/>
<path fill-rule="evenodd" clip-rule="evenodd" d="M1362.42 1599.53C1380.53 1621.63 1405.14 1650.93 1405.14 1650.93C1406.06 1652.02 1406.02 1653.63 1405.05 1654.68C1404.07 1655.72 1402.47 1655.87 1401.31 1655.03L1349.2 1617.01L1389.6 1671.32C1390.44 1672.45 1390.31 1674.02 1389.31 1675C1388.3 1675.97 1386.73 1676.05 1385.63 1675.19L1344.43 1642.62C1346.97 1652.9 1351.29 1671.28 1353.81 1686.82C1355.4 1696.58 1356.24 1705.25 1355.61 1710.27C1355.43 1711.64 1354.27 1712.67 1352.89 1712.69C1351.51 1712.71 1350.33 1711.7 1350.12 1710.34C1348.68 1700.87 1345.61 1692.48 1341.54 1684.76C1332.94 1668.45 1319.9 1655.04 1307.99 1640.71C1296.42 1626.79 1285.89 1612.01 1281.03 1593.18L949.209 1595.98C947.061 1612.05 945.037 1628.14 943.146 1644.24C941.159 1661.16 939.313 1678.09 937.609 1695.04C937.477 1696.35 936.461 1697.41 935.148 1697.59C933.838 1697.78 932.572 1697.04 932.083 1695.8L919.824 1665.43C919.644 1667.87 919.489 1670.32 919.368 1672.77C919.051 1679.13 918.959 1685.5 919.151 1691.87C919.39 1699.86 919.99 1707.84 920.817 1715.79C922.061 1727.78 923.82 1739.72 925.641 1751.62C925.865 1753.09 924.945 1754.49 923.507 1754.87C922.068 1755.25 920.575 1754.49 920.041 1753.1C917.333 1746.09 914.121 1739.32 910.571 1732.73C906.999 1726.1 903.084 1719.65 898.996 1713.3C893.397 1704.6 887.506 1695.96 882.51 1686.86C879.114 1680.68 876.127 1674.29 873.901 1667.54C872.282 1662.63 871.119 1657.62 870.376 1652.55L866.668 1669.33C866.37 1670.75 865.093 1671.75 863.64 1671.7C862.19 1671.65 860.987 1670.56 860.788 1669.12C858.504 1652.33 857.297 1635.25 858.047 1618.32C858.474 1608.71 859.53 1599.14 861.377 1589.7C856.153 1596.55 850.373 1603.32 846.112 1610.33C844.107 1613.63 842.466 1616.99 841.462 1620.47C841.006 1622.05 839.376 1622.98 837.779 1622.57C836.186 1622.17 835.196 1620.57 835.549 1618.96C843.449 1582.78 842.448 1567.02 844.648 1554.1C846.039 1545.92 848.629 1538.81 855.266 1528.73C851.962 1522.6 844.225 1521.8 835.899 1522.98C821.723 1524.99 805.454 1533.25 801.212 1538.45C800.465 1539.37 799.269 1539.78 798.118 1539.52C796.966 1539.27 796.057 1538.38 795.77 1537.24C795.623 1536.65 795.561 1535.75 796.109 1534.63C796.514 1533.79 797.676 1532.28 799.575 1530.33C805.561 1524.19 819.611 1512.28 835.266 1501.36C851.131 1490.29 868.665 1480.31 881.208 1478.06C890.843 1476.33 904.43 1476.78 917.495 1479.27C930.957 1481.82 943.827 1486.57 951.41 1493.06C954.147 1495.4 956.866 1497.87 959.441 1500.47C961.704 1502.76 963.86 1505.16 965.828 1507.67C965.828 1507.67 1242.31 1526.48 1264.74 1528.02C1267.53 1525.13 1275.65 1517.27 1286.1 1511.74C1291.73 1508.76 1298.03 1506.46 1304.54 1505.89C1324.27 1504.14 1350.61 1510.7 1374.44 1519.8C1399.86 1529.5 1422.4 1542.07 1431.08 1550.14C1434.63 1553.44 1435.96 1556.5 1435.71 1558.46C1435.57 1559.59 1434.78 1560.54 1433.7 1560.9C1432.61 1561.27 1431.41 1560.97 1430.62 1560.15C1425.48 1554.81 1405.51 1548.81 1384.84 1544.57C1368.38 1541.19 1351.44 1539 1340.87 1539.62C1348.39 1548.97 1359.89 1561.25 1372.06 1573.65C1398.27 1600.36 1427.61 1627.6 1427.61 1627.6C1428.65 1628.56 1428.84 1630.14 1428.05 1631.32C1427.26 1632.5 1425.74 1632.94 1424.45 1632.35C1424.45 1632.35 1387.71 1615.69 1362.42 1599.53ZM866.852 1568.93C866.947 1568.65 867.043 1568.37 867.135 1568.09C867.142 1568.08 867.146 1568.06 867.153 1568.04C867.694 1566.47 869.401 1565.63 870.976 1566.16C872.551 1566.69 873.408 1568.39 872.893 1569.96C872.889 1569.98 872.882 1570 872.878 1570.01C872.775 1570.31 872.672 1570.62 872.569 1570.91C867.345 1586.4 864.784 1602.42 864.052 1618.59C863.573 1629.18 863.883 1639.84 864.747 1650.44L870.13 1626.2C870.487 1624.67 871.977 1623.68 873.526 1623.95C875.075 1624.22 876.141 1625.65 875.965 1627.21C875.214 1633.7 875.078 1640.23 875.645 1646.69C876.208 1653.13 877.466 1659.5 879.504 1665.7C881.609 1672.1 884.445 1678.17 887.665 1684.03C892.587 1693.01 898.4 1701.54 903.919 1710.13C908.084 1716.61 912.072 1723.2 915.714 1729.96C916.13 1730.73 916.539 1731.51 916.947 1732.29C916.237 1727 915.589 1721.7 915.041 1716.39C914.206 1708.29 913.603 1700.18 913.363 1692.05C913.172 1685.52 913.268 1678.99 913.595 1672.48C913.919 1665.99 914.475 1659.5 915.192 1653.03C915.339 1651.72 916.351 1650.67 917.657 1650.49C918.959 1650.31 920.225 1651.03 920.725 1652.25L933.087 1682.93C934.463 1669.8 935.928 1656.68 937.477 1643.57C939.478 1626.62 941.623 1609.69 943.912 1592.78C944.099 1591.38 945.287 1590.34 946.7 1590.32L1283.19 1587.6C1284.49 1587.59 1285.62 1588.49 1285.92 1589.76C1290.29 1608.73 1300.79 1623.36 1312.25 1637.17C1324.41 1651.8 1337.65 1665.53 1346.43 1682.18C1346.93 1683.13 1347.42 1684.1 1347.9 1685.07C1347.63 1683.5 1347.34 1681.9 1347.04 1680.29C1343.1 1659.14 1337.03 1636.05 1337.03 1636.05C1336.72 1634.89 1337.19 1633.67 1338.2 1633.01C1339.2 1632.36 1340.51 1632.42 1341.45 1633.16L1372.46 1657.65L1333.61 1605.49C1332.78 1604.38 1332.89 1602.82 1333.87 1601.83C1334.85 1600.84 1336.4 1600.72 1337.53 1601.54C1337.53 1601.54 1385.99 1636.87 1385.99 1636.87C1377.34 1626.51 1366.36 1613.32 1357.21 1602.15C1351.48 1595.16 1346.46 1588.92 1343.1 1584.59C1341.05 1582.43 1339.55 1580.4 1338.73 1578.56C1338.1 1577.11 1338.75 1575.42 1340.19 1574.79C1341.64 1574.15 1343.32 1574.81 1343.96 1576.25C1344.21 1576.81 1345.49 1578.54 1347.53 1581.14C1351.47 1585.23 1357.88 1589.83 1365.28 1594.56C1379.48 1603.64 1397.4 1612.89 1410.24 1619.2C1399.23 1608.74 1383.04 1593.15 1367.9 1577.75C1353.64 1563.25 1340.32 1548.89 1333.01 1539.07C1332.4 1538.27 1332.26 1537.21 1332.62 1536.27C1332.98 1535.33 1333.8 1534.64 1334.78 1534.44C1344.8 1532.42 1365.77 1534.63 1386.02 1538.77C1397.14 1541.05 1408.02 1543.94 1416.8 1546.99C1405.91 1540.09 1389.79 1532.08 1372.29 1525.41C1349.37 1516.69 1324.06 1510.24 1305.08 1511.94C1297.88 1512.58 1290.99 1515.7 1285.17 1519.3C1275.16 1525.5 1268.26 1533.21 1268.26 1533.21C1267.63 1533.91 1266.71 1534.29 1265.77 1534.23L963.952 1513.96C963.025 1513.89 962.167 1513.43 961.608 1512.68C959.581 1509.97 957.304 1507.41 954.894 1504.97C952.443 1502.49 949.857 1500.14 947.256 1497.91C940.354 1491.99 928.562 1487.85 916.307 1485.51C904.074 1483.17 891.347 1482.67 882.322 1484.28C872.591 1486.02 859.743 1492.81 847.15 1500.94C837.334 1507.28 827.687 1514.45 819.777 1520.83C824.751 1518.99 830.001 1517.54 835.034 1516.84C847.15 1515.13 857.83 1517.85 861.679 1527.91C862.039 1528.86 861.918 1529.92 861.348 1530.76C854.64 1540.63 852.054 1547.33 850.719 1555.14C848.945 1565.49 849.21 1577.66 845.343 1600.62C853.069 1590.13 862.915 1580.04 866.852 1568.93Z" fill="#FFD3D4"/>
<path fill-rule="evenodd" clip-rule="evenodd" d="M957.389 1801.31C959.376 1785.82 957.312 1770 959.438 1754.53C968.051 1769.93 980.91 1782.42 989.342 1797.93C987.227 1774.73 984.854 1752.03 990.671 1729.12C996.572 1705.9 1008.12 1684.37 1022.55 1665.35C1018.95 1688.96 1015.53 1712.59 1012.28 1736.24C1023.53 1703.54 1043.3 1673.6 1071.95 1653.68C1070.91 1660.27 1070.63 1666.99 1071.3 1673.62C1073.18 1692.41 1075.64 1711.4 1081.48 1729.43C1085.11 1740.63 1090.16 1751.76 1098.11 1760.6C1093.78 1753.65 1092.69 1744.9 1092.37 1736.91C1091.66 1719.97 1094.6 1703.02 1097.39 1686.39C1100.73 1696.61 1101.88 1707.29 1103.44 1717.87C1105.18 1729.69 1107.88 1741.67 1116.22 1750.68C1118.78 1753.45 1121.73 1755.83 1124.9 1757.86C1119.2 1753.1 1120.09 1743.26 1121.11 1736.78C1122.96 1724.92 1127.67 1713.19 1134.21 1703.14C1137.69 1697.8 1141.89 1692.61 1147.26 1689.07C1151.43 1695.16 1157.59 1696.02 1164.14 1698.75C1181.36 1705.94 1198.95 1726.83 1216.14 1734.12C1210.78 1725.02 1187.78 1703.13 1185.31 1689.45C1184.5 1684.96 1228.07 1734.52 1228.07 1734.52C1205.77 1702.55 1201.53 1670.53 1212.92 1665.95C1212.92 1665.95 1225.5 1716.15 1237.88 1737.83C1239.78 1725.42 1238.47 1697.93 1240.33 1685.51C1241.81 1697.51 1240.89 1724.91 1236.51 1735.89C1228.32 1756.4 1216.48 1775.18 1208.02 1795.55C1210.58 1791.85 1214.14 1788.74 1217.42 1785.7C1223.82 1779.76 1230.49 1774.12 1237 1768.3C1240.97 1764.76 1245.39 1761.18 1248.55 1756.85C1242.28 1783.29 1232.3 1808.72 1226.08 1835.18C1242.48 1813.91 1256.56 1790.79 1268.77 1766.88C1279.77 1745.34 1289.47 1723 1296.6 1699.86C1298.12 1681.23 1306.54 1663.47 1305.82 1644.61C1305.13 1626.35 1308.21 1607.81 1303.93 1589.8C1301.47 1579.47 1296.61 1569.52 1291.62 1560.21C1289.57 1556.4 1286.43 1553.05 1283.59 1549.82C1280.13 1545.89 1276.54 1541.75 1272.38 1538.54C1251.85 1522.7 1228.27 1513.46 1203.55 1507.77C1187.38 1504.06 1239.63 1481.34 1239.63 1481.34C1239.63 1481.34 1145.56 1499.61 1141.3 1499.3C1134.53 1498.8 1127.79 1498.38 1121.12 1497.97C1119.5 1497.87 1118.09 1496.63 1116.85 1495.73C1113.86 1493.57 1111.1 1491.11 1108.38 1488.62C1096.42 1477.7 1052.4 1446.22 1041.49 1434.25C1041.96 1445.29 1078.54 1476.45 1077.5 1487.57C1077.29 1489.86 1077.09 1492.2 1076.29 1494.38C1076 1495.16 1075.35 1496.47 1074.33 1495.87C1067.39 1491.78 960.844 1453.33 961.02 1454.27C976.263 1465.6 1017.04 1483.24 1032.45 1494.34C1013.02 1498.48 978.849 1510.35 961.212 1519.55C951.524 1524.6 942.047 1530.62 934.865 1538.98C906.484 1572.04 898.846 1618.47 906.131 1660.51C909.891 1682.22 917.393 1703.03 925.693 1723.36C936.249 1749.22 943.739 1776.81 957.389 1801.31Z" fill="#FF8184"/>
<path fill-rule="evenodd" clip-rule="evenodd" d="M1073.35 1491.41C1073.37 1491.29 1073.4 1491.17 1073.42 1491.04C1073.65 1489.78 1073.76 1488.5 1073.88 1487.23C1073.95 1486.46 1073.61 1485.55 1073.15 1484.49C1072.08 1482.03 1070.14 1479.13 1067.76 1475.99C1061.05 1467.09 1050.9 1456.42 1044.49 1447.88C1040.43 1442.46 1037.92 1437.63 1037.78 1434.4C1037.72 1432.84 1038.63 1431.41 1040.07 1430.82C1041.52 1430.22 1043.18 1430.59 1044.23 1431.75C1046.79 1434.55 1051.24 1438.45 1056.67 1442.91C1074.26 1457.39 1101.84 1477.52 1110.94 1485.82C1112.53 1487.27 1114.14 1488.71 1115.79 1490.09C1116.86 1490.97 1117.95 1491.83 1119.08 1492.64L1121.35 1494.16L1141.58 1495.47C1143.02 1495.58 1155.08 1493.36 1170.18 1490.58C1199.15 1485.24 1238.88 1477.48 1238.88 1477.48C1240.85 1477.1 1242.79 1478.26 1243.39 1480.18C1243.98 1482.09 1243.04 1484.15 1241.2 1484.95C1241.2 1484.95 1224.46 1492.24 1213.06 1499.18C1210.17 1500.94 1207.64 1502.66 1205.89 1504.22C1218.03 1507.07 1229.9 1510.79 1241.27 1515.71C1253.08 1520.83 1264.35 1527.24 1274.86 1535.33C1276.66 1536.72 1278.37 1538.27 1280 1539.91C1282.33 1542.23 1284.51 1544.72 1286.64 1547.14C1288.4 1549.13 1290.26 1551.18 1291.93 1553.34C1293.16 1554.92 1294.28 1556.57 1295.21 1558.29C1298.27 1563.99 1301.29 1569.94 1303.76 1576.06C1305.44 1580.24 1306.88 1584.52 1307.91 1588.85C1309.26 1594.51 1309.92 1600.2 1310.19 1605.93C1310.81 1618.73 1309.46 1631.66 1309.95 1644.45C1310.18 1650.42 1309.56 1656.29 1308.51 1662.11C1306.21 1674.83 1301.8 1687.3 1300.76 1700.2C1300.74 1700.5 1300.68 1700.8 1300.59 1701.09C1296.99 1712.79 1292.73 1724.29 1287.99 1735.59C1283.26 1746.86 1278.05 1757.92 1272.5 1768.79C1266.35 1780.84 1259.72 1792.7 1252.57 1804.23C1245.4 1815.78 1237.71 1827 1229.43 1837.76C1228.22 1839.33 1226.07 1839.84 1224.28 1838.99C1222.48 1838.14 1221.53 1836.15 1221.98 1834.22C1223.24 1828.86 1224.65 1823.55 1226.15 1818.26C1230.66 1802.36 1236.03 1786.7 1240.53 1770.8C1240.29 1771.02 1240.04 1771.23 1239.81 1771.45L1220.28 1788.78C1218.37 1790.55 1216.37 1792.33 1214.54 1794.25C1213.43 1795.42 1212.38 1796.64 1211.48 1797.94C1210.25 1799.71 1207.89 1800.27 1206 1799.24C1204.12 1798.21 1203.31 1795.92 1204.14 1793.94C1210.93 1777.59 1219.9 1762.25 1227.42 1746.23C1229.05 1742.76 1230.61 1739.26 1232.07 1735.7C1232.03 1735.64 1232.01 1735.58 1231.98 1735.52C1231.76 1736.35 1231.28 1737.12 1230.56 1737.69C1228.88 1739.01 1226.46 1738.78 1225.05 1737.18C1225.05 1737.18 1220.5 1732 1214.39 1725.15C1216.61 1727.89 1218.43 1730.28 1219.52 1732.13C1220.38 1733.59 1220.21 1735.44 1219.09 1736.7C1217.98 1737.98 1216.17 1738.39 1214.61 1737.73C1210.75 1736.09 1206.87 1733.81 1202.98 1731.15C1189.54 1721.96 1176.01 1707.91 1162.65 1702.32C1158.58 1700.61 1154.67 1699.58 1151.25 1697.69C1149.61 1696.78 1148.07 1695.7 1146.66 1694.31C1145.31 1695.44 1144.06 1696.68 1142.88 1698C1140.85 1700.25 1139.05 1702.72 1137.41 1705.23C1134.28 1710.03 1131.59 1715.24 1129.45 1720.67C1127.32 1726.08 1125.74 1731.71 1124.85 1737.37C1124.31 1740.85 1123.74 1745.4 1124.5 1749.42C1124.91 1751.58 1125.68 1753.6 1127.32 1754.97C1128.85 1756.24 1129.12 1758.49 1127.94 1760.09C1126.77 1761.69 1124.55 1762.11 1122.87 1761.03C1121.16 1759.94 1119.51 1758.75 1117.94 1757.45C1116.36 1756.15 1114.86 1754.75 1113.47 1753.24C1109.83 1749.3 1107.16 1744.85 1105.17 1740.1C1102.31 1733.28 1100.84 1725.82 1099.76 1718.42C1099.15 1714.28 1098.61 1710.13 1097.98 1706C1097.47 1709.63 1097.01 1713.28 1096.66 1716.93C1096.03 1723.53 1095.72 1730.14 1095.98 1736.76C1096.14 1740.56 1096.46 1744.54 1097.27 1748.4C1098.03 1752.04 1099.22 1755.57 1101.16 1758.69C1102.15 1760.27 1101.76 1762.34 1100.28 1763.47C1098.79 1764.59 1096.69 1764.38 1095.45 1763C1091.27 1758.35 1087.84 1753.1 1085 1747.52C1082.21 1742.06 1079.98 1736.3 1078.11 1730.52C1075.74 1723.17 1073.91 1715.66 1072.46 1708.07C1070.31 1696.8 1068.96 1685.35 1067.84 1673.97C1067.5 1670.5 1067.4 1667 1067.52 1663.52C1067.55 1662.72 1067.59 1661.94 1067.64 1661.15C1056.34 1670 1046.58 1680.51 1038.35 1692.14C1028.59 1705.92 1020.97 1721.29 1015.42 1737.32C1014.87 1738.94 1013.17 1739.87 1011.51 1739.47C1009.85 1739.08 1008.75 1737.48 1008.99 1735.78C1010.63 1723.95 1012.31 1712.13 1014.04 1700.31C1015.12 1692.96 1016.21 1685.6 1017.32 1678.26C1013.28 1684.32 1009.56 1690.61 1006.25 1697.1C1000.91 1707.55 996.613 1718.51 993.706 1729.89C991.425 1738.81 990.425 1747.69 990.171 1756.59C989.781 1770.2 991.12 1783.84 992.36 1797.66C992.492 1799.09 991.598 1800.42 990.222 1800.83C988.846 1801.25 987.367 1800.64 986.679 1799.38C985.046 1796.36 983.239 1793.46 981.326 1790.63C975.083 1781.4 967.765 1772.88 961.562 1763.61C961.554 1763.74 961.547 1763.87 961.54 1764C960.896 1776.55 961.874 1789.22 960.256 1801.68C960.097 1802.92 959.163 1803.92 957.938 1804.15C956.713 1804.39 955.473 1803.81 954.866 1802.72C950.704 1795.26 947.11 1787.52 943.821 1779.64C936.253 1761.51 930.333 1742.58 922.916 1724.49C917.883 1712.21 913.137 1699.75 909.321 1687.03C906.761 1678.5 904.616 1669.84 903.078 1661.04C899.343 1639.66 899.41 1617.14 904.001 1595.76C908.63 1574.22 917.857 1553.83 932.393 1536.85C936.153 1532.46 940.51 1528.69 945.204 1525.34C949.799 1522.07 954.711 1519.22 959.685 1516.62C968.607 1511.96 981.712 1506.6 995.046 1501.89C1005.12 1498.33 1015.33 1495.14 1023.96 1492.88C1010.52 1484.83 988.96 1474.7 973.243 1465.96C967.511 1462.77 962.533 1459.75 958.931 1457.08C958.221 1456.56 957.739 1455.78 957.577 1454.91C957.312 1453.49 957.754 1452.33 958.953 1451.44C959.262 1451.21 960.112 1450.58 961.635 1450.8C961.882 1450.83 962.412 1450.95 963.184 1451.18C964.957 1451.71 968.64 1452.94 973.64 1454.67C999.104 1463.46 1058.95 1485.22 1073.35 1491.41ZM1228.5 1727.93C1226.28 1722.71 1224.12 1716.97 1222.1 1711.14C1217.48 1697.85 1213.55 1684.13 1211.22 1675.57C1210.45 1680.01 1210.97 1685.96 1212.67 1692.85C1215.21 1703.18 1220.45 1715.45 1228.5 1727.93ZM1242.86 1728.22C1242.67 1732.15 1242.4 1735.67 1241.97 1738.46C1241.7 1740.2 1240.36 1741.58 1238.64 1741.9C1238.61 1741.91 1238.58 1741.91 1238.55 1741.91C1237.42 1744.56 1236.23 1747.19 1235.01 1749.79C1230.82 1758.73 1226.17 1767.45 1221.7 1776.26L1234.19 1765.16C1236.52 1763.08 1239.01 1761 1241.29 1758.74C1242.69 1757.37 1244 1755.92 1245.14 1754.37C1246.32 1752.74 1248.48 1752.18 1250.31 1753.02C1252.13 1753.85 1253.11 1755.87 1252.65 1757.82C1248.15 1776.84 1241.74 1795.33 1236.17 1814.06C1239.35 1809.37 1242.43 1804.61 1245.42 1799.8C1252.46 1788.47 1258.98 1776.82 1265.03 1764.98C1270.49 1754.3 1275.63 1743.42 1280.28 1732.35C1284.87 1721.44 1288.99 1710.35 1292.49 1699.06C1293.63 1686.06 1298.02 1673.47 1300.35 1660.63C1301.3 1655.4 1301.89 1650.13 1301.69 1644.77C1301.22 1632 1302.59 1619.09 1301.99 1606.32C1301.75 1601.1 1301.17 1595.9 1299.94 1590.75C1299.01 1586.8 1297.71 1582.92 1296.18 1579.11C1293.83 1573.27 1290.95 1567.59 1288.03 1562.14C1287.32 1560.81 1286.44 1559.54 1285.5 1558.31C1283.93 1556.29 1282.18 1554.38 1280.54 1552.51C1278.52 1550.22 1276.47 1547.85 1274.27 1545.64C1272.88 1544.25 1271.44 1542.93 1269.91 1541.75C1259.95 1534.06 1249.26 1527.97 1238.06 1523.1C1226.7 1518.16 1214.82 1514.47 1202.65 1511.66C1198.14 1510.62 1196.7 1508.12 1196.49 1505.93C1196.28 1503.82 1197.72 1500.65 1201.33 1497.64C1203.95 1495.46 1207.78 1493.03 1211.99 1490.64C1195.9 1493.69 1176.16 1497.39 1161.72 1499.96C1150.44 1501.97 1142.23 1503.21 1141.02 1503.12L1120.89 1501.78C1119.95 1501.72 1119.04 1501.48 1118.18 1501.1C1116.89 1500.54 1115.69 1499.6 1114.62 1498.83C1113.35 1497.91 1112.13 1496.94 1110.92 1495.94C1109.18 1494.48 1107.49 1492.96 1105.81 1491.42C1098.1 1484.36 1076.96 1468.68 1060.08 1455.26C1065.5 1461.59 1071.21 1468.13 1075.21 1473.77C1079.25 1479.45 1081.45 1484.53 1081.13 1487.91C1080.99 1489.39 1080.85 1490.89 1080.58 1492.36C1080.38 1493.48 1080.1 1494.58 1079.7 1495.64C1079.19 1497 1077.92 1498.76 1076.52 1499.33C1075.35 1499.81 1073.99 1499.9 1072.48 1499C1068.25 1496.5 1026.74 1481.13 995.358 1469.84C1010.45 1477.65 1026.12 1485.58 1034.44 1491.58C1035.53 1492.36 1036.06 1493.72 1035.78 1495.04C1035.51 1496.35 1034.48 1497.38 1033.16 1497.66C1023.56 1499.69 1010.3 1503.64 997.271 1508.21C984.251 1512.77 971.451 1517.95 962.739 1522.48C958.026 1524.93 953.361 1527.61 949.005 1530.7C944.737 1533.72 940.763 1537.13 937.342 1541.1C923.468 1557.22 914.674 1576.62 910.219 1597.11C905.745 1617.69 905.639 1639.37 909.185 1659.98C911.025 1670.7 913.788 1681.19 917.11 1691.52C920.454 1701.91 924.362 1712.12 928.468 1722.23C935.822 1740.32 941.668 1759.27 949.189 1777.4C951.098 1782.01 953.118 1786.56 955.3 1791.04C955.653 1781.95 955.219 1772.79 955.66 1763.71C955.815 1760.5 956.076 1757.31 956.51 1754.12C956.683 1752.86 957.64 1751.86 958.891 1751.62C960.138 1751.38 961.4 1751.97 962.018 1753.08C968.556 1764.74 977.551 1774.7 985.178 1785.6C984.347 1775.82 983.743 1766.12 983.993 1756.42C984.236 1747.07 985.274 1737.73 987.64 1728.35C990.634 1716.51 995.064 1705.09 1000.58 1694.21C1006.08 1683.38 1012.66 1673.07 1019.98 1663.4C1020.87 1662.23 1022.45 1661.81 1023.81 1662.38C1025.17 1662.96 1025.97 1664.38 1025.74 1665.84C1023.96 1677.64 1022.23 1689.44 1020.53 1701.25C1020.05 1704.59 1019.57 1707.94 1019.1 1711.28C1023.1 1703.26 1027.67 1695.53 1032.81 1688.23C1042.96 1673.82 1055.34 1661.06 1069.98 1650.85C1071.12 1650.06 1072.61 1650.02 1073.79 1650.76C1074.96 1651.49 1075.58 1652.86 1075.36 1654.22C1074.86 1657.38 1074.56 1660.56 1074.45 1663.75C1074.34 1666.93 1074.44 1670.12 1074.76 1673.28C1075.9 1684.44 1077.23 1695.68 1079.38 1706.73C1080.79 1714.04 1082.56 1721.26 1084.86 1728.33C1086.02 1731.9 1087.33 1735.47 1088.84 1738.95C1088.8 1738.31 1088.77 1737.68 1088.75 1737.06C1088.45 1730.12 1088.75 1723.17 1089.4 1716.24C1090.35 1706.02 1092.08 1695.84 1093.76 1685.78C1094.04 1684.11 1095.42 1682.84 1097.12 1682.71C1098.81 1682.59 1100.37 1683.63 1100.89 1685.24C1102.29 1689.48 1103.32 1693.79 1104.15 1698.14C1105.37 1704.49 1106.18 1710.92 1107.13 1717.33C1108.14 1724.11 1109.45 1730.95 1112.08 1737.19C1113.27 1740.02 1114.74 1742.73 1116.59 1745.24C1116.58 1742.03 1116.95 1738.85 1117.36 1736.2C1118.33 1729.99 1120.04 1723.82 1122.36 1717.89C1124.68 1711.98 1127.61 1706.3 1131.01 1701.06C1132.84 1698.22 1134.88 1695.43 1137.17 1692.88C1139.55 1690.22 1142.19 1687.82 1145.15 1685.87C1146.9 1684.71 1149.25 1685.17 1150.43 1686.9C1151.73 1688.79 1153.27 1690.01 1154.97 1690.95C1158.16 1692.71 1161.83 1693.61 1165.63 1695.19C1169.5 1696.8 1173.4 1699.06 1177.3 1701.7C1184.27 1706.43 1191.26 1712.46 1198.23 1717.97C1195.09 1714.17 1191.93 1710.2 1189.24 1706.31C1185.24 1700.53 1182.26 1694.87 1181.41 1690.15C1181.09 1688.43 1181.73 1687.33 1182.29 1686.66C1183.1 1685.68 1184.74 1684.43 1187.34 1685.61C1188.18 1685.99 1190.15 1687.54 1192.74 1690.06C1196.66 1693.9 1202.57 1700.21 1208.58 1706.78C1205.81 1699.54 1204.04 1692.81 1203.24 1686.96C1202.22 1679.5 1202.8 1673.35 1204.62 1669.14C1206.12 1665.68 1208.45 1663.34 1211.39 1662.16C1212.49 1661.72 1213.72 1661.77 1214.78 1662.31C1215.83 1662.85 1216.6 1663.81 1216.88 1664.96C1216.88 1664.96 1222.49 1687.24 1229.88 1708.43C1231.45 1712.96 1233.11 1717.44 1234.82 1721.63C1235.02 1713.18 1234.99 1703.66 1235.32 1695.78C1235.5 1691.59 1235.77 1687.83 1236.21 1684.89C1236.52 1682.84 1238.3 1681.32 1240.38 1681.35C1242.46 1681.37 1244.21 1682.93 1244.46 1685C1245.36 1692.21 1245.43 1704.83 1244.42 1716.34C1244.05 1720.55 1243.53 1724.61 1242.86 1728.22Z" fill="#FFD3D4"/>
<path fill-rule="evenodd" clip-rule="evenodd" d="M960.726 1783.52C953.668 1748.12 939.042 1709.24 944.652 1677.65L929.936 1690.73C923.632 1663.33 937.76 1641.63 955.532 1611.77L936.212 1616.15C949.986 1575.7 969.807 1549.47 1017.19 1524.88L955.379 1558.1L958.895 1523.65L923.644 1550.19L932.913 1525.87L877.769 1563.96L898.318 1523.26L875.378 1539.94L891.407 1510.07L818.676 1520.09L861.413 1524.43C849.226 1555.33 847.421 1584.37 852.116 1612.24L870.278 1563.35L863.75 1650.35L873.081 1619.8C870.951 1669.74 893.911 1687.82 916.055 1732.58L913.316 1688.93L960.726 1783.52Z" fill="black" fill-opacity="0.3"/>
<path fill-rule="evenodd" clip-rule="evenodd" d="M1074.69 1693.44C1061.51 1690.04 1046.95 1680.46 1041.59 1712.47L1026.66 1724.47L1017.32 1714.8L1065.38 1638.78L1074.69 1693.44Z" fill="black" fill-opacity="0.3"/>
<path fill-rule="evenodd" clip-rule="evenodd" d="M1007.91 1726.56C996.914 1766.65 1007.49 1804.55 1029.17 1846.35L1015.95 1835.61C1015.47 1815.44 1002.74 1809.28 984.168 1809.79L979.68 1806.15C977.603 1756.33 989.366 1713.51 1012.02 1676.21L1007.91 1726.56Z" fill="black" fill-opacity="0.3"/>
<path fill-rule="evenodd" clip-rule="evenodd" d="M980.761 1833.52L965.415 1836.32L965.857 1847.2L952.359 1848.32L949.953 1862.3L973.257 1877.16L960.634 1852.74L983.531 1848.2L980.761 1833.52Z" fill="black" fill-opacity="0.3"/>
<path fill-rule="evenodd" clip-rule="evenodd" d="M930.053 1871.71L926.402 1878.08L945.679 1908.46L959.168 1909.67L930.053 1871.71Z" fill="black" fill-opacity="0.3"/>
<path fill-rule="evenodd" clip-rule="evenodd" d="M911.58 1909.87L907.508 1914.29L926.918 1935.68L927.764 1941.35L937.032 1933.91L911.58 1909.87Z" fill="black" fill-opacity="0.3"/>
<path fill-rule="evenodd" clip-rule="evenodd" d="M817.09 1872.98C817.09 1872.98 758.802 1833.19 764.002 1807.65C766.573 1795 785.151 1763.48 785.151 1763.48C738.886 1707.58 698.178 1652.89 682.895 1603.8C680.108 1639.81 712.003 1697.99 767.127 1771.02L748.639 1823.94C772.421 1865.27 791.3 1877.36 807.732 1874.86L817.09 1872.98Z" fill="black" fill-opacity="0.3"/>
</svg>
