<svg width="2160" height="2700" viewBox="0 0 2160 2700" fill="none" xmlns="http://www.w3.org/2000/svg">
<path fill-rule="evenodd" clip-rule="evenodd" d="M732.011 1858.39C661.719 1768 626.418 1531.53 626.418 1531.53C626.418 1531.53 785.338 1777.03 794.146 1752.77C802.955 1728.52 679.267 1385.99 679.267 1385.99C679.267 1385.99 843.82 1644.99 857.633 1648.5C871.446 1652.01 762.148 1407.04 762.148 1407.04C762.148 1407.04 919.638 1640.89 918.573 1601.63C917.506 1562.38 755.751 1171.51 755.751 1171.51C755.751 1171.51 943.186 1528.84 965.169 1512.17C987.152 1495.5 887.651 1071.48 887.651 1071.48C887.651 1071.48 1001.15 1416.74 1026.53 1412.63C1051.9 1408.51 1039.9 1046.74 1039.9 1046.74C1039.9 1046.74 1068.27 1223.51 1086.9 1213.24C1105.53 1202.98 1151.68 985.164 1151.68 985.164C1151.68 985.164 1151.42 1208.11 1169.8 1229.08C1188.18 1250.06 1261.94 1111.01 1261.94 1111.01C1261.94 1111.01 1238.88 1317.46 1258.23 1320.76C1277.58 1324.05 1378.02 1130.78 1378.02 1130.78C1378.02 1130.78 1307.84 1395.07 1322.92 1416.1C1338 1437.12 1468.46 1256.93 1468.46 1256.93C1468.46 1256.93 1326.65 1558.49 1334.49 1575.55C1342.32 1592.62 1515.47 1359.3 1515.47 1359.3C1515.47 1359.3 1364.4 1643.82 1369.85 1666.57C1375.31 1689.32 1548.19 1495.78 1548.19 1495.78C1548.19 1495.78 1414.03 1728.96 1411.87 1764.8C1409.73 1800.63 1535.3 1710.8 1535.3 1710.8L1514.46 1827.27L1379.48 2009.04L1058.42 2086.97C901.624 2056.01 804.011 1950.95 732.011 1858.39Z" fill="#E5DFAB" stroke="#FF2E33" stroke-width="10.3081" stroke-miterlimit="1.5" stroke-linecap="square" stroke-linejoin="round"/>
<path fill-rule="evenodd" clip-rule="evenodd" d="M898.859 1466.26L885.192 1477.05L797.021 1434.49L816.026 1496.72C816.892 1499.66 816.477 1502.85 814.883 1505.48C813.288 1508.11 810.661 1509.95 807.643 1510.55C807.643 1510.55 702.551 1535.34 699.784 1532.65C699.784 1532.65 655.152 1517.16 648.813 1469.19C646.661 1452.9 655.42 1366.24 663.379 1348.87C669.716 1335.05 720.777 1369.23 736.667 1355.93C785.962 1314.67 974.371 1250.39 999.313 1203.53C1010.08 1183.3 947.049 1082.74 853.14 1086.41C853.14 1086.41 958.164 1015.19 955.64 1026.02C953.024 1037.26 1102.88 1156.65 1024.45 1223.24C943.773 1291.73 775.973 1346.35 735.014 1380.13C722.796 1390.2 689.759 1360.69 684.635 1371.04C678.474 1383.48 673.103 1445.89 674.412 1457.84C677.858 1489.3 732.999 1490.42 741.979 1500.54L791.703 1491.23C791.703 1491.23 760.542 1391.28 766.52 1386.15C780.095 1374.5 895.169 1462.74 895.169 1462.74C896.725 1463.51 898.012 1464.73 898.859 1466.26Z" fill="white" stroke="black" stroke-width="6.99713" stroke-miterlimit="2" stroke-linejoin="round"/>
<path fill-rule="evenodd" clip-rule="evenodd" d="M1125.07 1677.8C1125.07 1677.8 1103.11 1672.26 1115.61 1664.31C1120.18 1659.99 1149.74 1632.89 1184.72 1621.68C1203.34 1615.71 1266.43 1514.97 1285.36 1522.63C1299.16 1528.22 1332.8 1583.11 1327.41 1599.65C1319.06 1625.28 1212.71 1720.2 1197.25 1737.02L1236.87 1769.82C1249.56 1765.36 1498.9 1620.5 1517.34 1594.42C1530.16 1576.28 1531.2 1549.37 1517.84 1516.84C1503.99 1483.14 1367.22 1442.49 1331.53 1400.48C1296.62 1359.37 1261.34 1316.74 1242.51 1277.29C1227.76 1246.38 1223.15 1216.98 1232.77 1191C1236.98 1179.62 1323.27 1194.99 1371.17 1187.66C1393.98 1184.17 1442.55 1168.55 1449.11 1164.13L1475.78 1217.44C1433.21 1222.84 1264.37 1197.22 1260.05 1208.24C1252.88 1226.56 1254.98 1256.65 1265.05 1278.8C1285.56 1323.9 1334.71 1358.54 1372.47 1405.06C1402.35 1441.88 1534.72 1479.64 1546.32 1509.43C1563.17 1552.7 1554.45 1585.03 1537.09 1608.65C1508.52 1647.51 1237.39 1793.41 1237.39 1793.41C1233.81 1794.39 1229.97 1793.54 1227.13 1791.14L1174.8 1746.15C1172.51 1744.21 1171.13 1741.42 1171.01 1738.43C1170.89 1735.44 1172.03 1732.53 1174.15 1730.42C1174.15 1730.42 1276.89 1666.13 1304.46 1593.45C1313.07 1570.75 1290.43 1562.51 1276.18 1553.1C1273.52 1551.35 1204.67 1634.39 1190.03 1638.78C1155.47 1649.16 1126.43 1676.73 1126.43 1676.73C1126.02 1677.13 1125.56 1677.49 1125.07 1677.8Z" fill="white" stroke="black" stroke-width="6.99714" stroke-miterlimit="2" stroke-linejoin="round"/>
<path fill-rule="evenodd" clip-rule="evenodd" d="M884.141 1458.74C926.87 1451.84 1250.57 1426.24 1302.68 1392.99C1352.86 1360.96 1253.36 1521.83 1283.85 1513.03C1303.6 1507.32 1543.37 1588.01 1547.97 1626C1551.49 1655.14 1548.49 1668.87 1533.05 1711.85C1481.41 1855.52 1274.77 1792.68 1274.77 1792.68L1284.41 1733.85C1284.41 1733.85 1465.84 1848.45 1515.53 1705.65C1529.62 1665.14 1529.03 1654 1528.26 1626.44C1527.83 1610.63 1300.93 1529.35 1289.65 1532.74C1260.53 1541.47 1362.33 1380.28 1314.59 1411.43C1267.82 1441.95 1217.54 1531.7 1236.12 1540.67C1257.12 1550.82 1272.24 1561.94 1278.97 1572.32C1286.81 1584.41 1287.12 1596.45 1278.59 1608.23C1274.4 1614.01 1267.4 1619.1 1257.31 1622.42C1241.92 1627.5 937.561 1657.44 901.1 1638.69C882.815 1629.28 866.899 1615.36 858.517 1595.6C856.422 1590.65 856.669 1586.26 858.056 1582.43C859.575 1578.23 862.922 1574.07 869.275 1571.41C875.812 1568.66 889.128 1567.44 907.362 1568.28C939.042 1569.75 933.641 1478.56 895.636 1485.09C875.289 1488.58 855.742 1501.48 843.147 1531.65C827.379 1569.43 871.092 1632.14 868.693 1678.81C866.693 1717.76 862.695 1754.02 849.907 1779.97C841.572 1796.88 771.839 1814.02 755.379 1822.15C737.772 1830.85 751.875 1723.01 696.274 1720.51L689.995 1665.74C754.127 1668.69 754.279 1800.84 764.105 1799.93C778.481 1798.6 818.778 1788.29 837.468 1762.81C849.697 1746.14 842.241 1690.23 843.154 1673.72C845.584 1629.75 754.623 1557.43 769.558 1522.64C788.847 1477.7 853.658 1463.66 884.141 1458.74ZM1242.63 1580.94C1225.46 1569.21 1231.61 1596.8 1243.19 1593.93C1247.46 1592.87 1250.99 1592.22 1252.72 1590.21C1252.37 1589.65 1251.79 1588.78 1251.32 1588.23C1249.19 1585.76 1246.2 1583.39 1242.63 1580.94ZM913.508 1614.86C938.125 1627.83 923.586 1596.43 898.242 1595.72C895.569 1595.65 892.679 1595.73 890.012 1595.88C896.133 1603.99 904.509 1610.11 913.508 1614.86Z" fill="white" stroke="black" stroke-width="6.99716" stroke-miterlimit="2" stroke-linejoin="round"/>
<path fill-rule="evenodd" clip-rule="evenodd" d="M959.867 1295.37L805.803 1357.16L1073.6 1455.03L1385.7 1424.02C1251.62 1349.38 1107.6 1314.9 959.867 1295.37Z" fill="#19F2C8"/>
<path fill-rule="evenodd" clip-rule="evenodd" d="M960.397 1291.37C1108.63 1310.96 1253.13 1345.6 1387.66 1420.49C1389.21 1421.35 1390.01 1423.12 1389.65 1424.85C1389.3 1426.58 1387.85 1427.87 1386.1 1428.05L1074 1459.05C1073.4 1459.11 1072.79 1459.04 1072.22 1458.83L804.416 1360.96C802.843 1360.38 801.788 1358.9 801.762 1357.22C801.736 1355.55 802.745 1354.03 804.299 1353.41L958.363 1291.62C959.008 1291.36 959.709 1291.28 960.397 1291.37ZM959.868 1295.37L805.803 1357.16L1073.61 1455.03L1385.7 1424.02C1251.62 1349.39 1107.6 1314.9 959.868 1295.37Z" fill="black"/>
<path fill-rule="evenodd" clip-rule="evenodd" d="M1273.57 1618.06L1326.68 1624.98C1326.72 1600.31 1336.56 1581.73 1351.56 1560.27L1359.04 1543.64C1359.04 1543.64 1407.54 1517.97 1409.07 1537.48L1436.97 1541.09L1452.67 1588.68L1439.41 1598.18L1446.06 1609.67L1433.54 1627.37L1414.74 1663.71L1346.52 1674.77L1246.25 1692.06L1249.34 1664.45C1262.4 1657.23 1271.15 1642.87 1273.57 1618.06Z" fill="#FF050B" stroke="black" stroke-width="6.97147" stroke-miterlimit="1.5" stroke-linecap="square" stroke-linejoin="round"/>
<path fill-rule="evenodd" clip-rule="evenodd" d="M1373.74 1590.35C1376.72 1588.17 1381.58 1580.76 1386.72 1572.63C1395.59 1558.62 1404.82 1542.27 1404.82 1542.27L1406.14 1539.74L1411.21 1542.37L1409.89 1544.91C1409.89 1544.91 1399.57 1566.48 1390.33 1581.81C1385.88 1589.2 1381.48 1595.09 1378.75 1597.18C1375.57 1599.51 1371.31 1599.14 1367.12 1596.25C1361.01 1592.04 1354.7 1582.48 1354.7 1582.48C1353.85 1581.23 1353.8 1579.6 1354.57 1578.3L1372.7 1549.74L1374.16 1547.29L1379.08 1550.2L1377.62 1552.65L1362.57 1579.96C1363.94 1581.7 1366.16 1584.39 1368.6 1586.68C1369.89 1587.91 1371.24 1589.02 1372.56 1589.74C1373.06 1590.03 1373.98 1590.74 1373.99 1590.28C1373.99 1590.19 1373.84 1590.28 1373.74 1590.35ZM1373.74 1590.35C1373.73 1590.36 1373.72 1590.37 1373.7 1590.38C1373.71 1590.37 1373.73 1590.36 1373.74 1590.35Z" fill="black"/>
<path fill-rule="evenodd" clip-rule="evenodd" d="M1427.94 1544.8L1428.8 1542.08L1434.25 1543.8L1433.39 1546.52C1431.61 1553.31 1428.06 1558.78 1422.62 1562.78C1419.8 1564.86 1416.42 1566.49 1412.48 1567.66C1414.54 1569.71 1416.99 1572.16 1419.53 1574.76C1428.25 1583.67 1438.03 1594.2 1438.03 1594.2L1440.09 1596.18L1436.11 1600.29L1434.06 1598.31C1434.06 1598.31 1423.21 1588.87 1414.02 1580.45C1407.02 1574.03 1401.01 1568.19 1401.01 1568.19C1399.84 1567.06 1399.43 1565.34 1399.96 1563.8C1400.5 1562.26 1401.88 1561.16 1403.5 1560.99C1409.64 1560.54 1414.58 1559.08 1418.47 1556.66C1422.93 1553.88 1426.06 1549.93 1427.94 1544.8Z" fill="black"/>
<path fill-rule="evenodd" clip-rule="evenodd" d="M1421.05 1619.14L1423.23 1620.99L1419.53 1625.34L1417.35 1623.5C1417.35 1623.5 1406.82 1615.7 1397.93 1608.6C1391.17 1603.19 1385.41 1598.17 1385.41 1598.17C1384.24 1597.18 1383.71 1595.63 1384.02 1594.13C1384.34 1592.63 1385.45 1591.43 1386.92 1590.99C1392.19 1589.63 1395.65 1587.34 1397.96 1584.5C1401.14 1580.6 1402.37 1575.93 1403.27 1571.77L1403.74 1568.95L1409.37 1569.88L1408.91 1572.7C1408.31 1577.9 1407.25 1583.75 1403.77 1588.84C1401.92 1591.56 1399.37 1594.02 1395.85 1596.06C1397.94 1597.86 1400.5 1600.07 1403.15 1602.44C1411.61 1610.03 1421.05 1619.14 1421.05 1619.14Z" fill="black"/>
<path fill-rule="evenodd" clip-rule="evenodd" d="M1402.45 1633.57L1404.97 1634.9L1402.3 1639.95L1399.78 1638.61C1399.78 1638.61 1393.61 1635.92 1386.34 1632.53C1383.45 1631.18 1380.39 1629.72 1377.48 1628.27C1375.42 1627.25 1373.44 1626.24 1371.66 1625.28C1366.67 1622.6 1363.1 1620.46 1363.1 1620.46C1361.62 1619.68 1360.79 1618.05 1361.03 1616.39C1361.27 1614.73 1362.53 1613.4 1364.17 1613.07C1367.32 1612.6 1370.35 1611.97 1373 1610.66C1375.43 1609.47 1377.59 1607.79 1379.13 1605.07L1380.38 1602.5L1385.51 1605L1384.26 1607.57C1382.88 1610.9 1380.82 1613.35 1378.39 1615.3C1377.34 1616.14 1376.21 1616.87 1375.01 1617.51C1375.21 1617.6 1375.41 1617.71 1375.61 1617.81C1377.41 1618.75 1379.36 1619.82 1381.36 1620.95C1384.19 1622.54 1387.11 1624.24 1389.85 1625.88C1396.75 1629.99 1402.45 1633.57 1402.45 1633.57Z" fill="black"/>
<path fill-rule="evenodd" clip-rule="evenodd" d="M1373.22 1645.01L1375.59 1646.61L1372.37 1651.33L1370.01 1649.73C1370.01 1649.73 1362.27 1645.11 1355.61 1640.99C1350.54 1637.86 1346.13 1635.01 1346.13 1635.01C1345.45 1634.55 1344.93 1633.91 1344.62 1633.15C1342.58 1628.25 1343.52 1624.08 1346.64 1620.35C1348.73 1617.86 1352.02 1615.6 1356 1613.34C1354.8 1610.19 1354.51 1607.27 1354.94 1604.61C1355.62 1600.39 1357.94 1596.75 1361.35 1593.88L1363.44 1591.93L1367.33 1596.11L1365.24 1598.06C1363.22 1600.14 1361.86 1602.6 1361.67 1605.39C1361.52 1607.71 1362.38 1610.2 1364.27 1612.94C1364.83 1613.83 1364.99 1614.91 1364.74 1615.93C1364.48 1616.95 1363.82 1617.82 1362.9 1618.33C1358.73 1620.85 1355.2 1623.18 1353.15 1625.71C1352.31 1626.75 1351.83 1627.82 1352.01 1629.08C1353.62 1630.24 1356.6 1632.41 1359.82 1634.81C1366.09 1639.49 1373.22 1645.01 1373.22 1645.01Z" fill="black"/>
<path fill-rule="evenodd" clip-rule="evenodd" d="M1277.96 1644.97L1358.12 1653.32L1338.51 1631.76L1358.57 1587.68L1362.34 1614L1357.86 1634.67L1415.94 1656.2L1229.87 1698.12L1277.96 1644.97Z" fill="black" fill-opacity="0.2"/>
<path fill-rule="evenodd" clip-rule="evenodd" d="M1190.9 1437.81C1190.9 1437.81 1043.16 1402.19 945.3 1419.17C908.476 1425.56 896.327 1423.34 866.603 1460.94C846.777 1486.02 868.714 1519.18 870.95 1552.73C871.771 1565.04 879.188 1589.87 901.279 1610.29C957.814 1662.54 1021.14 1763.77 1021.14 1763.77L1223.76 1687.99C1256.34 1634.06 1273.93 1559.77 1273.93 1559.77L1254.64 1647.05C1254.64 1647.05 1267.34 1629.87 1281.06 1598.77C1284.11 1591.85 1283 1577.08 1286.56 1569.73C1301.62 1538.62 1321.84 1515.06 1322.84 1498.95C1324.41 1473.64 1293.15 1432.75 1265.41 1429.72C1236.54 1426.57 1190.9 1437.81 1190.9 1437.81Z" fill="#FF050B"/>
<path fill-rule="evenodd" clip-rule="evenodd" d="M1250.01 1652.65C1244.13 1665.99 1237.43 1679.39 1229.98 1691.74C1229.13 1693.14 1227.84 1694.22 1226.3 1694.79L1023.68 1770.56C1020.45 1771.77 1016.81 1770.54 1014.98 1767.61C1014.98 1767.61 952.328 1667.35 896.352 1615.61C872.437 1593.51 864.594 1566.54 863.706 1553.22C862.611 1536.78 856.618 1520.45 853.399 1505.15C849.646 1487.31 849.584 1470.76 860.908 1456.44C892.359 1416.66 905.095 1418.77 944.058 1412.01C1036.9 1395.91 1174.11 1426.47 1190.9 1430.36C1199.67 1428.34 1239.75 1419.62 1266.19 1422.51C1281.67 1424.2 1298.39 1436.06 1310.77 1451.43C1323.11 1466.74 1330.96 1485.32 1330.08 1499.4C1329.64 1506.7 1325.95 1515.44 1320.3 1525.44C1312.87 1538.58 1302.06 1554.38 1293.09 1572.9C1291.62 1575.95 1291.3 1580.58 1290.84 1585.13C1290.2 1591.46 1289.46 1597.7 1287.7 1601.69C1273.58 1633.7 1260.47 1651.36 1260.47 1651.36C1258.44 1654.12 1254.75 1655.08 1251.63 1653.66C1251.04 1653.39 1250.49 1653.04 1250.01 1652.65ZM1190.9 1437.81C1190.9 1437.81 1043.16 1402.19 945.299 1419.17C908.476 1425.55 896.326 1423.34 866.602 1460.94C846.776 1486.02 868.714 1519.18 870.95 1552.73C871.77 1565.04 879.188 1589.87 901.279 1610.28C957.814 1662.54 1021.14 1763.76 1021.14 1763.76L1223.76 1687.99C1256.34 1634.06 1273.93 1559.77 1273.93 1559.77L1254.64 1647.05C1254.64 1647.05 1267.34 1629.86 1281.06 1598.77C1284.11 1591.85 1283 1577.08 1286.56 1569.73C1301.62 1538.62 1321.84 1515.06 1322.84 1498.95C1324.41 1473.63 1293.15 1432.75 1265.41 1429.72C1236.54 1426.57 1190.9 1437.81 1190.9 1437.81Z" fill="black"/>
<path d="M928.479 1633.39L898.24 1516.4" stroke="black" stroke-width="10.3081" stroke-miterlimit="1.5" stroke-linecap="square" stroke-linejoin="round"/>
<path fill-rule="evenodd" clip-rule="evenodd" d="M998.919 1464.42C1012.77 1500.52 1054.94 1542.78 1066.86 1546.43C1076.53 1549.39 1116.29 1521.16 1135.18 1491.76C1156.04 1459.3 1188.35 1362.24 1188.35 1362.24C1121.92 1326.21 1053.17 1312.57 980.09 1340.4C980.09 1340.4 985.072 1428.31 998.919 1464.42Z" fill="#FF050B"/>
<path fill-rule="evenodd" clip-rule="evenodd" d="M995.146 1465.86C981.162 1429.4 976.055 1340.63 976.055 1340.63C975.956 1338.87 977.006 1337.25 978.652 1336.62C1052.9 1308.34 1122.78 1322.07 1190.28 1358.69C1192 1359.63 1192.81 1361.66 1192.19 1363.52C1192.19 1363.52 1159.59 1461.25 1138.58 1493.95C1125 1515.08 1100.93 1535.62 1084.29 1545C1079.75 1547.56 1075.72 1549.31 1072.55 1550.12C1069.71 1550.84 1067.37 1550.81 1065.68 1550.29C1061.81 1549.1 1054.88 1544.31 1046.81 1536.9C1029.08 1520.61 1005.05 1491.68 995.146 1465.86ZM998.92 1464.42C1012.77 1500.52 1054.94 1542.78 1066.86 1546.43C1076.53 1549.39 1116.29 1521.16 1135.18 1491.76C1156.04 1459.3 1188.35 1362.24 1188.35 1362.24C1121.92 1326.21 1053.17 1312.57 980.09 1340.4C980.09 1340.4 985.073 1428.31 998.92 1464.42Z" fill="black"/>
<path fill-rule="evenodd" clip-rule="evenodd" d="M1057.99 1337.77C1057.99 1337.77 1069.54 1338.35 1079.55 1338.97C1087.18 1339.44 1093.91 1339.96 1093.91 1339.96C1095.23 1340.07 1096.3 1341.09 1096.47 1342.4C1096.66 1343.72 1095.9 1344.99 1094.66 1345.46L1079.04 1351.14C1078.4 1351.39 1077.68 1351.37 1077.04 1351.09L1057.04 1341.47C1056.18 1341.09 1055.72 1340.14 1055.95 1339.23C1056.19 1338.31 1057.05 1337.7 1057.99 1337.77ZM1072.02 1343.34L1078.13 1345.8L1081.65 1344.43C1080.81 1344.33 1079.96 1344.24 1079.1 1344.15C1076.77 1343.88 1074.36 1343.61 1072.02 1343.34Z" fill="black"/>
<path fill-rule="evenodd" clip-rule="evenodd" d="M1021.69 1350.48L1022.19 1350.54L1022.05 1351.53L1021.56 1351.46C1021.56 1351.46 1015.8 1351.29 1008.41 1350.82C1006.99 1350.73 1005.53 1350.62 1004.04 1350.49C1002.6 1350.36 1001.14 1350.22 999.684 1350.03C998.522 1349.89 997.364 1349.72 996.222 1349.52C994.443 1349.22 992.714 1348.87 991.059 1348.53C989.21 1348.16 987.483 1347.78 985.912 1347.43C981.312 1346.39 978.214 1345.6 978.214 1345.6L977.721 1345.54L977.854 1344.55L978.347 1344.62C978.347 1344.62 981.542 1344.69 986.253 1344.91C987.862 1344.98 989.626 1345.07 991.509 1345.2C993.194 1345.32 994.954 1345.44 996.749 1345.62C997.901 1345.74 999.064 1345.88 1000.22 1346.04C1001.68 1346.26 1003.12 1346.51 1004.54 1346.77C1006.02 1347.03 1007.46 1347.31 1008.84 1347.6C1016.09 1349.11 1021.69 1350.48 1021.69 1350.48Z" fill="black"/>
<path fill-rule="evenodd" clip-rule="evenodd" d="M1020.88 1358.32L1021.37 1358.27L1021.47 1359.26L1020.97 1359.31C1020.97 1359.31 1015.32 1360.46 1008.02 1361.69C1006.62 1361.93 1005.17 1362.15 1003.69 1362.36C1002.26 1362.56 1000.81 1362.76 999.346 1362.91C998.181 1363.04 997.014 1363.13 995.859 1363.2C994.058 1363.32 992.294 1363.37 990.606 1363.42C988.72 1363.47 986.952 1363.5 985.342 1363.51C980.626 1363.55 977.431 1363.49 977.431 1363.49L976.936 1363.54L976.841 1362.55L977.336 1362.5C977.336 1362.5 980.462 1361.84 985.099 1360.98C986.682 1360.69 988.422 1360.38 990.285 1360.07C991.951 1359.8 993.693 1359.52 995.482 1359.28C996.63 1359.13 997.794 1359.01 998.961 1358.9C1000.42 1358.78 1001.89 1358.7 1003.33 1358.62C1004.83 1358.54 1006.29 1358.49 1007.71 1358.45C1015.11 1358.27 1020.88 1358.32 1020.88 1358.32Z" fill="black"/>
<path fill-rule="evenodd" clip-rule="evenodd" d="M1020.36 1367.14L1020.8 1366.9L1021.26 1367.78L1020.82 1368.02C1020.82 1368.02 1016.04 1371.24 1009.77 1375.18C1008.57 1375.93 1007.32 1376.7 1006.03 1377.46C1004.79 1378.19 1003.52 1378.93 1002.23 1379.63C1001.2 1380.19 1000.16 1380.73 999.123 1381.24C997.503 1382.03 995.895 1382.76 994.355 1383.45C992.634 1384.23 991.012 1384.93 989.529 1385.56C985.188 1387.4 982.216 1388.58 982.216 1388.58L981.777 1388.81L981.309 1387.93L981.749 1387.7C981.749 1387.7 984.382 1385.89 988.334 1383.31C989.683 1382.44 991.171 1381.48 992.774 1380.49C994.209 1379.59 995.708 1378.67 997.272 1377.76C998.275 1377.19 999.301 1376.62 1000.34 1376.08C1001.64 1375.4 1002.96 1374.77 1004.26 1374.14C1005.62 1373.5 1006.95 1372.88 1008.24 1372.31C1015.01 1369.3 1020.36 1367.14 1020.36 1367.14Z" fill="black"/>
<path fill-rule="evenodd" clip-rule="evenodd" d="M1144.27 1354.09L1143.77 1354.03L1143.88 1353.04L1144.37 1353.1C1144.37 1353.1 1150.14 1353.13 1157.54 1353.4C1158.95 1353.46 1160.42 1353.53 1161.92 1353.63C1163.36 1353.73 1164.82 1353.83 1166.28 1353.97C1167.44 1354.09 1168.61 1354.23 1169.75 1354.4C1171.54 1354.66 1173.28 1354.96 1174.94 1355.26C1176.8 1355.59 1178.53 1355.92 1180.11 1356.24C1184.74 1357.16 1187.85 1357.86 1187.85 1357.86L1188.35 1357.92L1188.24 1358.91L1187.75 1358.85C1187.75 1358.85 1184.55 1358.86 1179.84 1358.76C1178.23 1358.73 1176.46 1358.68 1174.57 1358.6C1172.89 1358.53 1171.12 1358.45 1169.32 1358.31C1168.17 1358.23 1167 1358.11 1165.84 1357.98C1164.38 1357.8 1162.93 1357.58 1161.51 1357.36C1160.02 1357.14 1158.58 1356.89 1157.19 1356.64C1149.9 1355.31 1144.27 1354.09 1144.27 1354.09Z" fill="black"/>
<path fill-rule="evenodd" clip-rule="evenodd" d="M1142.94 1361.85L1142.48 1361.68L1142.81 1360.75L1143.28 1360.91C1143.28 1360.91 1148.89 1362.25 1156.03 1364.21C1157.39 1364.59 1158.8 1364.99 1160.23 1365.43C1161.61 1365.85 1163.01 1366.28 1164.4 1366.76C1165.51 1367.14 1166.61 1367.54 1167.69 1367.97C1169.37 1368.62 1170.99 1369.32 1172.54 1369.98C1174.28 1370.73 1175.89 1371.45 1177.36 1372.12C1181.65 1374.07 1184.52 1375.47 1184.52 1375.47L1184.99 1375.63L1184.66 1376.57L1184.19 1376.41C1184.19 1376.41 1181.08 1375.69 1176.51 1374.52C1174.95 1374.11 1173.24 1373.66 1171.42 1373.15C1169.8 1372.7 1168.1 1372.22 1166.38 1371.68C1165.27 1371.33 1164.17 1370.96 1163.06 1370.56C1161.68 1370.06 1160.32 1369.51 1158.98 1368.97C1157.59 1368.41 1156.24 1367.85 1154.94 1367.28C1148.15 1364.32 1142.94 1361.85 1142.94 1361.85Z" fill="black"/>
<path fill-rule="evenodd" clip-rule="evenodd" d="M1140.99 1370.33L1140.62 1370L1141.29 1369.26L1141.66 1369.59C1141.66 1369.59 1146.32 1372.98 1152.16 1377.53C1153.28 1378.4 1154.42 1379.32 1155.58 1380.27C1156.7 1381.19 1157.82 1382.13 1158.92 1383.1C1159.8 1383.87 1160.66 1384.67 1161.5 1385.47C1162.8 1386.72 1164.03 1387.99 1165.21 1389.2C1166.52 1390.55 1167.74 1391.83 1168.83 1393.01C1172.05 1396.46 1174.17 1398.85 1174.17 1398.85L1174.54 1399.19L1173.87 1399.93L1173.5 1399.59C1173.5 1399.59 1170.9 1397.74 1167.13 1394.9C1165.84 1393.93 1164.44 1392.86 1162.96 1391.7C1161.63 1390.65 1160.24 1389.56 1158.86 1388.4C1157.98 1387.65 1157.09 1386.88 1156.23 1386.09C1155.15 1385.1 1154.1 1384.07 1153.07 1383.06C1152 1382.01 1150.97 1380.97 1149.99 1379.95C1144.85 1374.62 1140.99 1370.33 1140.99 1370.33Z" fill="black"/>
<path fill-rule="evenodd" clip-rule="evenodd" d="M1026.17 1382.81C1009.42 1400.67 1038.24 1489.57 1040.94 1493.96C1048.77 1506.64 1088.03 1509.32 1101.8 1501.24C1122.91 1488.85 1152.92 1404.84 1140.7 1385.32C1128.48 1365.79 1042.92 1364.95 1026.17 1382.81Z" fill="black"/>
<path fill-rule="evenodd" clip-rule="evenodd" d="M1023.22 1380.04C1027.64 1375.33 1036.33 1371.57 1047.31 1369.23C1062.64 1365.95 1082.56 1365.14 1100.31 1366.83C1112.33 1367.97 1123.35 1370.27 1131.35 1373.66C1137.4 1376.21 1141.82 1379.49 1144.13 1383.17C1146.39 1386.79 1147.57 1392.29 1147.57 1399.08C1147.58 1408.18 1145.58 1419.82 1142.27 1432.05C1136.53 1453.21 1126.84 1476.16 1117.12 1490.64C1112.63 1497.34 1108.03 1502.27 1103.84 1504.73C1095 1509.91 1076.35 1511.23 1061.03 1508.3C1050.16 1506.22 1041.07 1501.86 1037.5 1496.08C1035.57 1492.94 1020.4 1447.49 1017.43 1414.22C1016.65 1405.4 1016.73 1397.41 1018.03 1391.21C1019.02 1386.44 1020.78 1382.65 1023.22 1380.04ZM1026.17 1382.81C1009.42 1400.67 1038.24 1489.57 1040.94 1493.96C1048.77 1506.65 1088.03 1509.32 1101.8 1501.24C1122.91 1488.85 1152.92 1404.84 1140.7 1385.32C1128.48 1365.79 1042.92 1364.95 1026.17 1382.81Z" fill="black"/>
<path fill-rule="evenodd" clip-rule="evenodd" d="M1029.19 1379.5C1066.65 1366.88 1101.45 1366.77 1136.36 1378.48C1144.42 1387.8 1143.51 1393.68 1142.84 1409.04L1134 1393.14L1125.2 1401.97L1123.05 1386.54L1033.61 1395.96L1029.28 1409.46L1021.25 1397.43C1018.62 1392.88 1022.29 1384.78 1029.19 1379.5Z" fill="white" stroke="black" stroke-width="4.04179" stroke-miterlimit="1.5" stroke-linecap="square" stroke-linejoin="round"/>
<path fill-rule="evenodd" clip-rule="evenodd" d="M1040.6 1490.83C1040.6 1490.83 1050.94 1471.63 1062.31 1458.92C1067.71 1452.88 1078.8 1462.3 1086.56 1448.76C1093.4 1436.84 1121.25 1474.69 1121.25 1474.69L1084.56 1504.08C1066.87 1505.98 1051.38 1503.3 1040.6 1490.83Z" fill="#FF050B"/>
<path fill-rule="evenodd" clip-rule="evenodd" d="M1037.3 1489.05C1037.3 1489.05 1047.9 1469.42 1059.52 1456.43C1062.43 1453.17 1066.43 1452.8 1071.02 1452.89C1075.01 1452.98 1079.67 1453.25 1083.32 1446.89C1086.41 1441.5 1092.33 1441.44 1099.15 1445.99C1110.07 1453.29 1124.26 1472.47 1124.26 1472.47C1125.45 1474.09 1125.15 1476.36 1123.58 1477.61L1086.9 1507C1086.34 1507.45 1085.66 1507.73 1084.96 1507.8C1065.94 1509.84 1049.36 1506.69 1037.77 1493.27C1036.75 1492.1 1036.57 1490.42 1037.3 1489.05ZM1040.6 1490.82C1051.38 1503.3 1066.87 1505.98 1084.56 1504.08L1121.25 1474.69C1121.25 1474.69 1093.4 1436.84 1086.56 1448.75C1078.79 1462.3 1067.71 1452.88 1062.31 1458.92C1050.94 1471.62 1040.6 1490.82 1040.6 1490.82Z" fill="black"/>
<path fill-rule="evenodd" clip-rule="evenodd" d="M1034.63 1481.38C1039.8 1484.63 1043.44 1487.38 1048.15 1489.59C1050.01 1490.46 1046.06 1498.93 1050.72 1502.04C1059.17 1507.69 1057.83 1493.49 1059.88 1494.08C1071.92 1497.58 1083.73 1497.38 1098 1493.29L1123.65 1473.3C1125.18 1475.79 1109.9 1503.78 1096.08 1505.59C1073.69 1508.51 1052.81 1504.2 1045.47 1499.28C1036.03 1492.97 1034.63 1481.38 1034.63 1481.38Z" fill="white" stroke="black" stroke-width="4.04179" stroke-miterlimit="1.5" stroke-linecap="square" stroke-linejoin="round"/>
<path fill-rule="evenodd" clip-rule="evenodd" d="M805.021 1357.62C989.165 1312.74 1182.63 1334.82 1385.9 1425.6L1120.36 1181.44L805.021 1357.62Z" fill="white" stroke="black" stroke-width="6.56118" stroke-miterlimit="1.5" stroke-linecap="square" stroke-linejoin="round"/>
<path fill-rule="evenodd" clip-rule="evenodd" d="M984.678 1428.33C1005.44 1479.54 1036.12 1526.86 1076.38 1539.8C1114.49 1530.72 1135.46 1496.12 1155.72 1460.31C1147.5 1497.29 1123.53 1552.62 1094.3 1575.27C1079.22 1600.7 1100.74 1603.97 1129.86 1607.05C1049.63 1661.87 1057.79 1645.33 1041.3 1658.06C1024.8 1670.81 930.537 1643.76 930.537 1643.76L898.43 1513.65C914.816 1514.98 926.167 1501.9 935.776 1483.84C947.522 1493.31 969.896 1500.6 989.186 1498.66C981.879 1499.57 996.758 1505.51 935.352 1536.1C902.007 1552.72 933.02 1610.67 967.822 1623.01C986.347 1629.58 1022.73 1633.27 1036.72 1626.32C1069.16 1610.22 1039.38 1587.76 1012.52 1557.05C1026.9 1563.54 1043.31 1561.63 1038.63 1554.23C1022.53 1528.77 987.205 1473.56 984.678 1428.33Z" fill="black" fill-opacity="0.2"/>
<path fill-rule="evenodd" clip-rule="evenodd" d="M867.286 1563.37L815.22 1570.12C815.186 1546.05 805.538 1527.94 790.835 1507.01L783.495 1490.79C783.495 1490.79 735.953 1465.76 734.455 1484.79L707.104 1488.31L691.711 1534.71L704.71 1543.98L698.193 1555.19L710.466 1572.45L728.894 1607.88L795.775 1618.67L894.073 1635.53L891.042 1608.61C878.24 1601.56 869.664 1587.56 867.286 1563.37Z" fill="#FF050B" stroke="black" stroke-width="6.81642" stroke-miterlimit="1.5" stroke-linecap="square" stroke-linejoin="round"/>
<path fill-rule="evenodd" clip-rule="evenodd" d="M769.069 1536.33C768.979 1536.27 768.846 1536.19 768.847 1536.27C768.849 1536.72 769.756 1536.02 770.258 1535.75C771.545 1535.04 772.868 1533.96 774.136 1532.76C776.522 1530.52 778.701 1527.91 780.045 1526.22L765.295 1499.6L763.865 1497.2L768.665 1494.34L770.095 1496.74L787.866 1524.58C788.625 1525.86 788.577 1527.46 787.74 1528.68C787.74 1528.68 781.548 1538.02 775.559 1542.12C771.458 1544.93 767.302 1545.29 764.194 1543.02C761.512 1540.99 757.205 1535.24 752.844 1528.05C743.78 1513.09 733.657 1492.04 733.657 1492.04L732.363 1489.56L737.317 1486.98L738.609 1489.45C738.609 1489.45 747.656 1505.39 756.351 1519.07C761.389 1526.98 766.148 1534.2 769.069 1536.33ZM769.069 1536.33C769.085 1536.34 769.1 1536.35 769.112 1536.36C769.098 1536.35 769.083 1536.34 769.069 1536.33Z" fill="black"/>
<path fill-rule="evenodd" clip-rule="evenodd" d="M710.614 1493.61L709.771 1490.95L715.097 1489.26L715.941 1491.92C717.793 1496.92 720.866 1500.78 725.244 1503.48C729.059 1505.85 733.894 1507.26 739.907 1507.71C741.499 1507.87 742.851 1508.94 743.373 1510.45C743.894 1511.97 743.491 1513.65 742.338 1514.76C742.338 1514.76 736.449 1520.45 729.582 1526.7C720.575 1534.92 709.945 1544.11 709.945 1544.11L707.932 1546.05L704.057 1542.03L706.069 1540.09C706.069 1540.09 715.663 1529.81 724.21 1521.13C726.694 1518.6 729.09 1516.22 731.103 1514.23C727.256 1513.08 723.963 1511.51 721.202 1509.49C715.852 1505.59 712.373 1500.25 710.614 1493.61Z" fill="black"/>
<path fill-rule="evenodd" clip-rule="evenodd" d="M726.322 1568.68L724.184 1570.48L720.586 1566.2L722.723 1564.4C722.723 1564.4 731.971 1555.52 740.276 1548.12C742.864 1545.81 745.362 1543.66 747.41 1541.92C743.979 1539.93 741.488 1537.54 739.678 1534.91C736.248 1529.93 735.21 1524.22 734.621 1519.14L734.162 1516.39L739.674 1515.46L740.133 1518.22C741.017 1522.28 742.218 1526.85 745.339 1530.65C747.605 1533.41 750.996 1535.64 756.164 1536.96C757.602 1537.39 758.691 1538.57 758.999 1540.03C759.307 1541.5 758.783 1543.02 757.636 1543.99C757.636 1543.99 751.989 1548.88 745.357 1554.15C736.65 1561.08 726.322 1568.68 726.322 1568.68Z" fill="black"/>
<path fill-rule="evenodd" clip-rule="evenodd" d="M743.555 1583.42L741.083 1584.72L738.48 1579.77L740.953 1578.47C740.953 1578.47 746.539 1574.98 753.304 1570.98C755.993 1569.39 758.859 1567.72 761.636 1566.17C763.596 1565.07 765.506 1564.02 767.271 1563.12C767.458 1563.02 767.644 1562.92 767.828 1562.83C766.666 1562.21 765.568 1561.5 764.55 1560.69C762.168 1558.79 760.145 1556.4 758.783 1553.15L757.553 1550.65L762.569 1548.18L763.799 1550.69C765.306 1553.35 767.426 1554.98 769.81 1556.15C772.41 1557.42 775.377 1558.03 778.464 1558.5C780.072 1558.82 781.303 1560.12 781.537 1561.74C781.771 1563.36 780.959 1564.96 779.507 1565.72C779.507 1565.72 776.01 1567.81 771.119 1570.43C769.367 1571.37 767.425 1572.35 765.41 1573.34C762.558 1574.75 759.562 1576.17 756.728 1577.48C749.595 1580.8 743.555 1583.42 743.555 1583.42Z" fill="black"/>
<path fill-rule="evenodd" clip-rule="evenodd" d="M772.737 1594.26L770.423 1595.82L767.291 1591.2L769.605 1589.63C769.605 1589.63 776.599 1584.25 782.748 1579.69C785.901 1577.35 788.827 1575.24 790.405 1574.1C790.579 1572.88 790.099 1571.84 789.282 1570.83C787.269 1568.37 783.815 1566.09 779.728 1563.65C778.831 1563.14 778.179 1562.29 777.927 1561.29C777.673 1560.3 777.84 1559.24 778.389 1558.36C780.238 1555.69 781.078 1553.27 780.926 1551.01C780.743 1548.3 779.414 1545.91 777.432 1543.88L775.382 1541.98L779.176 1537.88L781.227 1539.78C784.573 1542.57 786.839 1546.13 787.511 1550.25C787.932 1552.83 787.65 1555.67 786.488 1558.73C788.56 1559.89 790.438 1561.04 792.031 1562.23C794.475 1564.07 796.293 1566.06 797.377 1568.16C798.918 1571.15 799.191 1574.41 797.622 1578.09C797.321 1578.84 796.808 1579.46 796.148 1579.91C796.148 1579.91 791.822 1582.69 786.85 1585.75C780.327 1589.76 772.737 1594.26 772.737 1594.26Z" fill="black"/>
<path fill-rule="evenodd" clip-rule="evenodd" d="M747.277 1481.33L773.027 1532.93L768.507 1543.16C754.261 1551.53 765.567 1556.69 774.455 1562.15C774.509 1574.3 763.885 1580.22 785.52 1580.54L779.117 1589.53C785.684 1602.91 797.599 1600.74 805.558 1596.55C830.598 1610.61 852.17 1617.77 878.438 1618.3C865.402 1603.79 861.278 1586.14 863.147 1566.38C872.137 1578.75 893.887 1599.21 897.156 1588.91C900.474 1578.46 857.255 1536.4 854.746 1498.27C854.223 1490.32 853.911 1472.97 857.021 1465.68C851.713 1483.93 874.331 1527.57 896.334 1515.33L921.148 1603.62L883.638 1634.66L730.908 1606.56L700.303 1554.35L702.335 1541.62L690.875 1533.04L709.928 1487.91L731.89 1485.25L747.277 1481.33Z" fill="black" fill-opacity="0.2"/>
<path fill-rule="evenodd" clip-rule="evenodd" d="M782.804 1589.41L813.34 1675.99L789.87 1694.15L766.181 1594.54L782.804 1589.41Z" fill="#E5DFAB" stroke="black" stroke-width="7.10379" stroke-miterlimit="1.5" stroke-linecap="square" stroke-linejoin="round"/>
<path fill-rule="evenodd" clip-rule="evenodd" d="M727.082 1490.36C716.497 1446.49 694.681 1405.92 665.136 1367.6L626.778 1378.44C615.712 1338.18 579.976 1306.33 538.176 1297.58L640.192 1253.28C676.354 1272.11 700.756 1304.52 703.257 1345.01L679.424 1361.14C706.979 1397.58 731.762 1441.12 748.264 1488.46L727.082 1490.36Z" fill="#E5DFAB" stroke="black" stroke-width="7.10379" stroke-miterlimit="1.5" stroke-linecap="square" stroke-linejoin="round"/>
<path fill-rule="evenodd" clip-rule="evenodd" d="M1171.69 1426.37C1188.36 1454.24 1219.42 1483.68 1186.65 1557.4C1072.51 1663.17 996.197 1667.64 932.935 1645.31L914.344 1599.97L887.394 1621.49L883.364 1660.3L903.225 1680.74L879.989 1680.02L791.374 1653.28L706.199 1681.42L697.668 1763.13L767.09 1840.71C788.598 1901.34 817.725 1913.22 854.188 1878.19L867.285 2003.42L928.221 2024.45L980.168 1941.96L983.188 2051L1066.29 2055.36L1087.43 2018.71C1103.8 2138.91 1137.3 2074.12 1166.83 2052.28L1203.78 1973.88L1253.81 2047.38L1317.27 1908.51L1376.74 1874.25C1376.74 1874.25 1326.69 1888.56 1456.18 1827.9C1490.04 1726.26 1451.28 1732.4 1411.45 1683.3C1394.62 1662.55 1305.21 1686.46 1275.59 1681.39C1255.06 1677.88 1242.18 1687.43 1226.68 1680.52C1226.68 1680.52 1292.18 1566.9 1294.9 1526.6C1297.2 1492.68 1243.03 1438.76 1243.03 1438.76C1235.29 1424.75 1226.3 1419.99 1216.08 1424.2L1219.78 1436.24C1219.78 1436.24 1215.48 1422.33 1210.55 1418.74C1205.63 1415.14 1193.79 1412.6 1190.23 1414.66C1186.67 1416.73 1189.23 1431.14 1189.23 1431.14C1181.48 1420.97 1176.22 1422.02 1171.69 1426.37Z" fill="white" stroke="black" stroke-width="7.40995" stroke-miterlimit="1.5" stroke-linecap="square" stroke-linejoin="round"/>
<path fill-rule="evenodd" clip-rule="evenodd" d="M1202.61 1889.54C1200.4 1836.66 1203.18 1794.34 1240.66 1747.59C1240.66 1747.59 1372.44 1699.49 1409.4 1701.07C1442.21 1702.49 1469.14 1757.6 1448.55 1788.39C1427.21 1820.31 1363.69 1840.78 1313.45 1860C1280.77 1872.49 1202.61 1889.54 1202.61 1889.54Z" fill="#FF050B" stroke="black" stroke-width="9.23434" stroke-miterlimit="1.5" stroke-linecap="square" stroke-linejoin="round"/>
<path fill-rule="evenodd" clip-rule="evenodd" d="M909.196 1811.56C871.207 1786.86 811.601 1775.76 785.866 1774.37C765.093 1773.26 745.381 1809.11 753.437 1822.34C764.844 1841.09 808.14 1851.44 844.712 1866.01C877.165 1878.94 1031.88 1921.65 1013.5 1901.51C1002.48 1889.43 923.129 1820.61 909.196 1811.56Z" fill="#FF050B" stroke="black" stroke-width="5.43166" stroke-miterlimit="1.5" stroke-linecap="square" stroke-linejoin="round"/>
<path fill-rule="evenodd" clip-rule="evenodd" d="M1098.26 1655.18C1098.26 1655.18 1185.83 1620.81 1210.1 1576.46C1225.19 1548.88 1215.87 1482.33 1215.87 1482.33C1215.87 1482.33 1229.73 1545.43 1221.33 1575.33C1212.69 1606.1 1165.11 1661.61 1164.02 1666.94C1162.93 1672.26 1214.78 1607.31 1214.78 1607.31C1214.78 1607.31 1185.96 1651.79 1183.14 1663.65C1181.53 1670.43 1193.9 1684.24 1197.87 1678.51C1209.67 1661.52 1246.6 1594.87 1253.89 1561.74C1259.84 1534.76 1241.62 1479.78 1241.62 1479.78C1241.62 1479.78 1264.51 1531.26 1260 1557.49C1254.1 1591.86 1213.73 1660.53 1206.2 1686.04C1205.19 1689.41 1216.28 1689.2 1216.28 1689.2C1131.84 1785.36 1132.11 1778.6 1169.35 1726.93C1169.35 1726.93 1183.92 1684.62 1176.98 1688.64C1170.04 1692.66 1127.71 1751.05 1127.71 1751.05C1127.71 1751.05 1166.77 1679.06 1157.25 1690.47C1147.73 1701.87 1082.17 1787.44 1070.57 1819.47C1063.14 1839.98 1079.71 1886.68 1087.63 1882.66C1095.56 1878.63 1118.16 1795.34 1118.16 1795.34L1186.39 1759.15L1129.97 1797.67C1129.97 1797.67 1129.6 1843.88 1131.86 1845.83C1134.11 1847.78 1143.49 1809.37 1143.49 1809.37L1155.71 1835.37C1155.71 1835.37 1145.69 1886.49 1154.48 1890.27C1169.44 1896.7 1169.11 1880.76 1176.95 1854.27C1184.11 1830.09 1207.02 1783.89 1207.02 1783.89L1319.08 1766.5C1201.01 1864.12 1316.01 1801.6 1452.62 1758.29C1427.86 1793.91 1445.07 1773.83 1468.65 1780.84L1448.65 1819.16C1398.24 1850.26 1374.57 1868.62 1364.62 1880.46L1310.74 1891.9C1276.76 1949.28 1268.83 1990.7 1251.06 2037.67L1200.17 1971.2L1152.4 2062.13C1152.4 2062.13 1132.11 1954.8 1127.58 1950.4C1123.07 1946 1125.28 2035.71 1125.28 2035.71C1125.28 2035.71 1088.64 1945.59 1080.81 1940.07C1072.99 1934.54 1078.32 2002.58 1078.32 2002.58C1078.32 2002.58 1056.41 1839.01 1048.98 1835.42C1041.56 1831.83 1033.76 1981.06 1033.76 1981.06L1017.46 1857.89L1021.64 2075.04L1084.95 2088.99L1087.48 1971.19L1118.66 2075.47L987.872 2057.3L984.691 1924.76L901.031 2018.63L871.353 2000.53L853.925 1880.41L793.249 1894.16L699.709 1764.41L709.209 1683.33L725.574 1694.83L761.274 1690.23L742.312 1720.04L801.773 1708.96L778.229 1733.28L913.261 1776.06C913.261 1776.06 959.65 1836.74 966.096 1838.26C972.542 1839.78 951.937 1785.16 951.937 1785.16C951.937 1785.16 977.98 1839.79 988.686 1843.71C999.392 1847.63 1016.17 1808.68 1016.17 1808.68C1016.17 1808.68 998.585 1851.4 1002.72 1847.65C1006.85 1843.89 1040.97 1786.14 1040.97 1786.14C1040.97 1786.14 1027.93 1851.24 1030.64 1850.28C1033.35 1849.33 1057.22 1780.43 1057.22 1780.43L1033.61 1767.25L1081.1 1762.48L1069.33 1737.96C1069.33 1737.96 1152.15 1677.31 1142.74 1676.47C1133.33 1675.62 1012.88 1732.91 1012.88 1732.91C1012.88 1732.91 1138.6 1656.15 1152.83 1643.2C1166.59 1630.66 1098.26 1655.18 1098.26 1655.18Z" fill="black" fill-opacity="0.2"/>
<path fill-rule="evenodd" clip-rule="evenodd" d="M885.054 1703.97C914.877 1699.83 933.389 1766.65 946.533 1755.53C958.211 1745.64 875.302 1741.52 960.095 1720.01C902.827 1725.54 902.279 1719.57 941.827 1698.36C1046.71 1678.76 950.312 1683.47 936.189 1677.15C919.387 1669.65 898.527 1647.74 902.429 1645.35C907.843 1642.03 964.644 1681.05 939.965 1657.17C924.139 1641.85 916.395 1602.73 916.395 1602.73L891.928 1623.04L885.205 1659.34L902.505 1678.83L884.658 1678.55L885.054 1703.97Z" fill="black" fill-opacity="0.2"/>
</svg>
