<svg width="2160" height="2700" viewBox="0 0 2160 2700" fill="none" xmlns="http://www.w3.org/2000/svg">
<path fill-rule="evenodd" clip-rule="evenodd" d="M1075.91 1359.51C1067.74 1344.61 893 1338.1 865.028 1353.33C899.418 1349.79 933.138 1348.14 959.732 1366.57L872.416 1424.09L953.438 1401.03C879.422 1447.05 845.673 1472.61 838.832 1578L895.83 1512.96L883.339 1601.8L936.524 1549.4L920.821 1614.96L977.165 1591.34L1179.16 1580.54L1209.52 1632.2L1226.91 1570.46L1259.14 1626.85L1277.54 1546.05L1319.12 1597.35C1304.78 1497.33 1309.31 1455.07 1230.91 1402.51C1231.03 1391.03 1237.86 1392.65 1252.46 1396.35C1241.97 1383.4 1233.44 1376.91 1208.96 1383C1209.95 1367.67 1236.21 1366.46 1261.82 1374.86C1242.29 1357.87 1223.15 1352.16 1204.45 1359.68C1209.04 1341.18 1226.09 1336.59 1245.66 1334.83C1245.37 1328.97 1206.96 1329.08 1167.52 1348.87C1127.74 1368.83 1077.89 1363.12 1075.91 1359.51Z" fill="#001D28" stroke="#A8E1F6" stroke-width="6.01303" stroke-miterlimit="1.5" stroke-linecap="round" stroke-linejoin="round"/>
<path fill-rule="evenodd" clip-rule="evenodd" d="M1203.05 1415.63C1227.73 1428.42 1253.55 1436.13 1268.85 1454.62C1286.62 1476.1 1290.1 1502.23 1301.68 1535.98C1301.68 1535.98 1281.6 1489.51 1279.45 1488.68C1277.3 1487.86 1290.5 1535.35 1290.5 1535.35C1290.5 1535.35 1272.9 1479.73 1271.16 1481.74C1269.42 1483.75 1284.47 1549.13 1284.47 1549.13C1284.47 1549.13 1263.52 1475.73 1260.8 1476.34C1258.08 1476.96 1270.93 1547 1270.93 1547C1270.93 1547 1252.69 1480.29 1248.12 1481.61C1243.56 1482.93 1259.41 1548.59 1259.41 1548.59C1259.41 1548.59 1239.54 1482.93 1238.57 1476.51C1237.61 1470.09 1242.29 1518.01 1242.29 1518.01C1243.32 1506.78 1236.57 1491.56 1230.64 1479.34C1225.31 1468.33 1208.23 1458.79 1192.53 1445.23C1192.53 1445.23 1230.06 1469.83 1229.98 1467.62C1229.91 1465.41 1176.22 1417.28 1192.12 1431.94C1208.01 1446.62 1253.08 1475.5 1253.15 1472.97C1253.22 1470.46 1192.51 1416.83 1192.51 1416.83C1192.51 1416.83 1248.17 1458.76 1254.66 1457.82C1256.42 1457.55 1203.05 1415.63 1203.05 1415.63Z" fill="#00A8E4" fill-opacity="0.5"/>
<path fill-rule="evenodd" clip-rule="evenodd" d="M1025 1984.56C1024.4 1974.11 1033.38 1817.55 1024.58 1813.6C1008.85 1806.53 986.98 1970.21 986.831 1990.18C986.732 2003.76 996.6 2064.15 996.6 2064.15L1045.83 2074.93C1044.53 2079.19 1026.16 2004.7 1025 1984.56Z" fill="#FF050B" stroke="black" stroke-width="9.25504" stroke-miterlimit="1.5" stroke-linecap="round" stroke-linejoin="round"/>
<path fill-rule="evenodd" clip-rule="evenodd" d="M968.527 1785.17L957.965 1969.82C957.965 1969.82 991.622 1926.64 1003.46 1918.5C1011.72 1912.83 1021.91 1928.96 1030.51 1924.47C1039.12 1919.97 1047.4 1904.94 1055.15 1900.58C1062.12 1896.66 1069.89 1901.45 1077.03 1898.31C1086.64 1894.08 1119.08 1872.6 1132.91 1875.47C1160.69 1881.24 1207.31 1879.95 1207.31 1879.95C1202.18 1838.25 1188.48 1797.66 1156.32 1759.49L968.527 1785.17Z" fill="black" stroke="black" stroke-width="11.0209" stroke-miterlimit="1.5" stroke-linecap="round" stroke-linejoin="round"/>
<path fill-rule="evenodd" clip-rule="evenodd" d="M1114.85 1561.96C1170.8 1547.61 1216.13 1539.1 1228.26 1593.76L1189.39 1622.44L1231.79 1839.72L1159.64 1810.42L1131.7 1796.67L1104.17 1766.43C1104.17 1766.43 1012.3 1843.88 987.947 1853.15C974.688 1858.19 958.021 1822.05 958.021 1822.05L978.829 1690.06L935.707 1710.81C948.837 1635.04 972.086 1553.09 1017.07 1559.56L1114.85 1561.96Z" fill="white" stroke="black" stroke-width="9.44767" stroke-miterlimit="1.5" stroke-linecap="round" stroke-linejoin="round"/>
<path fill-rule="evenodd" clip-rule="evenodd" d="M1083.59 1627.73L1083.75 1626.27L1086.68 1626.6L1086.51 1628.06C1086.51 1628.06 1085.89 1640.95 1084.88 1656.31C1084.48 1662.41 1084.02 1668.89 1083.5 1675.1C1083.04 1680.7 1082.55 1686.07 1082.05 1690.73C1081.21 1698.47 1080.41 1704.25 1080.18 1705.85C1080.56 1708.41 1081.97 1717.96 1083.4 1728.61C1085.6 1744.96 1087.89 1763.84 1087.89 1763.84L1088.15 1765.29L1085.25 1765.8L1084.99 1764.35C1084.99 1764.35 1080.71 1745.82 1077.2 1729.7C1074.53 1717.41 1072.33 1706.55 1072.33 1706.55C1072.27 1706.17 1072.26 1705.8 1072.3 1705.42C1072.3 1705.42 1072.82 1698.97 1073.9 1689.81C1074.45 1685.15 1075.19 1679.81 1075.99 1674.25C1076.88 1668.08 1077.88 1661.66 1078.85 1655.62C1081.31 1640.43 1083.59 1627.73 1083.59 1627.73Z" fill="black"/>
<path fill-rule="evenodd" clip-rule="evenodd" d="M1061.1 1724.53L930.314 1702.73L916.251 1735.61L938.969 1744.72L957.452 1740.38L971.629 1803.2L1002.49 1764.18L1025.74 1765.11L1014.42 1834.42L987.859 1983.97L993.398 2046.03L1021.63 1961.56L1030.43 1918.34L1163.39 1686.19L1160.92 1625.98L1149.29 1671.63L1134.52 1671.27L1061.1 1724.53Z" fill="black" fill-opacity="0.3"/>
<path fill-rule="evenodd" clip-rule="evenodd" d="M1052.54 1759.41L1062.04 1761.6L1078.41 1719.27L1101.41 1727.68L1160.42 1672.63L1221.35 1747.87L1484.83 1701.01L1290.94 1974.55L1161.42 1858.94C1161.42 1858.94 954.432 1853.89 936.286 1837.3C918.139 1820.71 1052.54 1759.41 1052.54 1759.41Z" fill="#810306" stroke="#EBE7C0" stroke-width="5.99785" stroke-miterlimit="1.5" stroke-linecap="round" stroke-linejoin="round"/>
<path fill-rule="evenodd" clip-rule="evenodd" d="M1291.29 1964.55L1242.82 1903.97L1193.46 1871.81L1302.99 1895.68L1284.61 1867.86L1248.68 1854.42L1293.54 1852.49L1321.7 1879.85L1292.42 1826.7L1345.25 1852.09L1321.64 1816.96L1338.83 1819.61L1290.88 1799.74L1271.49 1780.85L1325.4 1794.22L1398.08 1798.49L1313.65 1764.85L1401.37 1757.63L1365.44 1740.74L1478.57 1704.67L1291.29 1964.55Z" fill="#FF050B" stroke="#F4EC62" stroke-opacity="0.84" stroke-width="8" stroke-miterlimit="1.5" stroke-linecap="round" stroke-linejoin="round"/>
<path fill-rule="evenodd" clip-rule="evenodd" d="M1194.24 1875.07C1194.24 1875.07 1283.93 1962.93 1288.54 1960.79C1293.15 1958.63 1328.92 1907.28 1328.92 1907.28C1328.92 1907.28 1296.15 1943.62 1287 1942.34C1277.85 1941.07 1194.24 1875.07 1194.24 1875.07Z" fill="black" fill-opacity="0.4"/>
<path fill-rule="evenodd" clip-rule="evenodd" d="M659.141 1627.78L573.74 1466.57L570.968 1384.68C609.976 1466.31 656.998 1532.01 711.433 1583.01L1078.65 1719.24L1060.72 1762.62L693.971 1617.82L659.141 1627.78Z" fill="#D50409" stroke="#EBE7C0" stroke-width="4.99821" stroke-miterlimit="1.5" stroke-linecap="round" stroke-linejoin="round"/>
<path fill-rule="evenodd" clip-rule="evenodd" d="M580.293 1424.46C614.512 1484.2 651.766 1539.11 701.407 1581.43L692.013 1592.22C689.487 1589.43 694.032 1585.54 691.524 1582.62C655.357 1540.5 613.917 1485.88 580.293 1424.46Z" fill="white"/>
<path fill-rule="evenodd" clip-rule="evenodd" d="M705.139 1585.2C705.139 1585.2 677.161 1612.44 664.454 1609.2C651.746 1605.94 626.555 1564.88 626.555 1564.88L661.513 1625.29L693.742 1612.96L705.139 1585.2Z" fill="black" fill-opacity="0.4"/>
<path fill-rule="evenodd" clip-rule="evenodd" d="M1344.5 1863.76C1352.15 1859.29 1454.21 1732.15 1447.75 1724.49C1437.67 1712.52 1285.76 1750.7 1284.46 1748.37C1284.46 1748.37 1427.73 1722.05 1433.43 1731.86C1439.16 1741.74 1344.5 1863.76 1344.5 1863.76Z" fill="white"/>
<path d="M660.537 1599.01C663.585 1598.77 665.876 1596.27 665.655 1593.41C665.433 1590.56 662.783 1588.43 659.734 1588.67C656.686 1588.91 654.394 1591.41 654.616 1594.27C654.838 1597.12 657.488 1599.24 660.537 1599.01Z" fill="#D8CF82" stroke="black" stroke-width="1.4" stroke-miterlimit="1.5" stroke-linecap="round" stroke-linejoin="round"/>
<path d="M641.747 1570.89C644.796 1570.65 647.087 1568.14 646.866 1565.29C646.644 1562.43 643.993 1560.31 640.945 1560.55C637.897 1560.78 635.605 1563.29 635.827 1566.14C636.048 1569 638.699 1571.12 641.747 1570.89Z" fill="#D8CF82" stroke="black" stroke-width="1.4" stroke-miterlimit="1.5" stroke-linecap="round" stroke-linejoin="round"/>
<path d="M624.122 1541.6C627.171 1541.36 629.462 1538.86 629.241 1536C629.019 1533.15 626.368 1531.02 623.32 1531.26C620.272 1531.5 617.98 1534 618.202 1536.86C618.423 1539.71 621.074 1541.83 624.122 1541.6Z" fill="#D8CF82" stroke="black" stroke-width="1.4" stroke-miterlimit="1.5" stroke-linecap="round" stroke-linejoin="round"/>
<path d="M608.408 1512.31C611.456 1512.08 613.747 1509.57 613.526 1506.72C613.304 1503.86 610.654 1501.74 607.605 1501.98C604.557 1502.21 602.266 1504.72 602.487 1507.57C602.709 1510.43 605.359 1512.55 608.408 1512.31Z" fill="#D8CF82" stroke="black" stroke-width="1.4" stroke-miterlimit="1.5" stroke-linecap="round" stroke-linejoin="round"/>
<path d="M594.197 1484.48C597.245 1484.24 599.537 1481.74 599.315 1478.88C599.093 1476.03 596.443 1473.91 593.394 1474.14C590.346 1474.38 588.055 1476.89 588.276 1479.74C588.498 1482.6 591.148 1484.72 594.197 1484.48Z" fill="#D8CF82" stroke="black" stroke-width="1.4" stroke-miterlimit="1.5" stroke-linecap="round" stroke-linejoin="round"/>
<path d="M580.048 1459.47C583.097 1459.23 585.388 1456.72 585.167 1453.87C584.945 1451.02 582.294 1448.89 579.246 1449.13C576.198 1449.37 573.906 1451.87 574.128 1454.73C574.349 1457.58 577 1459.7 580.048 1459.47Z" fill="#D8CF82" stroke="black" stroke-width="1.4" stroke-miterlimit="1.5" stroke-linecap="round" stroke-linejoin="round"/>
<path d="M1277.38 1910.14C1282.72 1909.72 1286.71 1904.86 1286.27 1899.27C1285.84 1893.68 1281.15 1889.48 1275.81 1889.9C1270.46 1890.31 1266.48 1895.18 1266.91 1900.77C1267.34 1906.36 1272.03 1910.55 1277.38 1910.14Z" fill="#E5DFAB" stroke="black" stroke-width="5" stroke-miterlimit="1.5" stroke-linecap="round" stroke-linejoin="round"/>
<path d="M1235.31 1882.99C1240.66 1882.57 1244.64 1877.7 1244.21 1872.11C1243.78 1866.52 1239.09 1862.33 1233.74 1862.74C1228.4 1863.16 1224.41 1868.03 1224.85 1873.62C1225.28 1879.21 1229.97 1883.4 1235.31 1882.99Z" fill="#E5DFAB" stroke="black" stroke-width="5" stroke-miterlimit="1.5" stroke-linecap="round" stroke-linejoin="round"/>
<path d="M1246.43 1775.5L1236.9 1771.75L1213.85 1830.34L1223.38 1834.09L1246.43 1775.5Z" fill="black" fill-opacity="0.5" stroke="black" stroke-width="3.57906" stroke-miterlimit="1.5" stroke-linecap="round" stroke-linejoin="round"/>
<path d="M1128.95 1743.09L1101.62 1732.34L1082.14 1781.87L1109.46 1792.62L1128.95 1743.09Z" fill="#D1D1D1" stroke="black" stroke-width="4.45735" stroke-miterlimit="1.5" stroke-linecap="round" stroke-linejoin="round"/>
<path d="M1220.41 1770.49L1193.08 1759.74L1173.59 1809.27L1200.92 1820.02L1220.41 1770.49Z" fill="#D1D1D1" stroke="black" stroke-width="4.45735" stroke-miterlimit="1.5" stroke-linecap="round" stroke-linejoin="round"/>
<path d="M1208.81 1780.69C1211.82 1780.46 1214.11 1778.46 1213.94 1776.23C1213.77 1774 1211.19 1772.38 1208.18 1772.61C1205.18 1772.84 1202.88 1774.84 1203.06 1777.07C1203.23 1779.3 1205.81 1780.92 1208.81 1780.69Z" fill="white"/>
<path d="M1223.41 1822.05C1223.82 1822.21 1226.77 1815.67 1230.01 1807.45C1233.25 1799.22 1235.54 1792.43 1235.14 1792.27C1234.73 1792.11 1231.78 1798.64 1228.54 1806.87C1225.3 1815.09 1223.01 1821.89 1223.41 1822.05Z" fill="white"/>
<path d="M1232.4 1871.2C1233.41 1871.6 1234.61 1870.98 1235.07 1869.82C1235.53 1868.65 1235.07 1867.38 1234.06 1866.98C1233.04 1866.58 1231.85 1867.2 1231.39 1868.37C1230.93 1869.53 1231.38 1870.8 1232.4 1871.2Z" fill="#FF050B"/>
<path d="M1272.06 1902.02C1273.07 1902.42 1274.27 1901.8 1274.73 1900.63C1275.19 1899.47 1274.74 1898.2 1273.72 1897.8C1272.7 1897.4 1271.51 1898.02 1271.05 1899.18C1270.59 1900.35 1271.04 1901.62 1272.06 1902.02Z" fill="#FF050B"/>
<path fill-rule="evenodd" clip-rule="evenodd" d="M1083.57 1721.16L1076.67 1747.78L1089.35 1757.96L1103.42 1775.29L1096.76 1795.79L1107.91 1800.35L1159.08 1741.39L1083.57 1721.16Z" fill="black" fill-opacity="0.3"/>
<path fill-rule="evenodd" clip-rule="evenodd" d="M1013.29 1785.18C1013.29 1785.18 952.184 1824.08 955.814 1829.25C959.443 1834.41 1110.59 1845.97 1110.59 1845.97C1110.59 1845.97 966.738 1843.32 947.275 1831.33C937.557 1825.34 1013.29 1785.18 1013.29 1785.18Z" fill="white"/>
<path d="M1077.36 1721.63L1058.43 1714.18L1042.9 1753.64L1061.84 1761.09L1077.36 1721.63Z" fill="#570204" stroke="black" stroke-width="1.15904" stroke-miterlimit="1.5" stroke-linecap="round" stroke-linejoin="round"/>
<path d="M1054.81 1712.72L1037.01 1705.71L1021.76 1744.46L1039.57 1751.47L1054.81 1712.72Z" fill="#570204" stroke="black" stroke-width="1.11386" stroke-miterlimit="1.5" stroke-linecap="round" stroke-linejoin="round"/>
<path d="M1032.69 1704.56L1015.44 1697.78L1000.03 1736.94L1017.28 1743.72L1032.69 1704.56Z" fill="#570204" stroke="black" stroke-width="1.10214" stroke-miterlimit="1.5" stroke-linecap="round" stroke-linejoin="round"/>
<path d="M1010.72 1697.22L990.91 1689.43L976.151 1726.93L995.956 1734.73L1010.72 1697.22Z" fill="#570204" stroke="black" stroke-width="1.15579" stroke-miterlimit="1.5" stroke-linecap="round" stroke-linejoin="round"/>
<path d="M986.748 1687.86L964.742 1679.21L949.787 1717.21L971.793 1725.87L986.748 1687.86Z" fill="#570204" stroke="black" stroke-width="1.22636" stroke-miterlimit="1.5" stroke-linecap="round" stroke-linejoin="round"/>
<path d="M959.668 1677.99L935.086 1668.32L920.632 1705.05L945.214 1714.73L959.668 1677.99Z" fill="#570204" stroke="black" stroke-width="1.20148" stroke-miterlimit="1.5" stroke-linecap="round" stroke-linejoin="round"/>
<path d="M931.488 1666.93L902.008 1655.33L887.829 1691.37L917.308 1702.97L931.488 1666.93Z" fill="#570204" stroke="black" stroke-width="1.16495" stroke-miterlimit="1.5" stroke-linecap="round" stroke-linejoin="round"/>
<path d="M895.365 1654.35L864.336 1642.14L850.59 1677.07L881.619 1689.28L895.365 1654.35Z" fill="#570204" stroke="black" stroke-width="1.17677" stroke-miterlimit="1.5" stroke-linecap="round" stroke-linejoin="round"/>
<path d="M859.904 1641.25L824.773 1627.42L811.317 1661.62L846.447 1675.45L859.904 1641.25Z" fill="#570204" stroke="black" stroke-width="1.10239" stroke-miterlimit="1.5" stroke-linecap="round" stroke-linejoin="round"/>
<path d="M820.767 1625.95L785.637 1612.13L772.333 1645.94L807.463 1659.76L820.767 1625.95Z" fill="#570204" stroke="black" stroke-width="1.0961" stroke-miterlimit="1.5" stroke-linecap="round" stroke-linejoin="round"/>
<path d="M780.9 1611.6L745.77 1597.78L732.59 1631.28L767.72 1645.1L780.9 1611.6Z" fill="#570204" stroke="black" stroke-width="1.09098" stroke-miterlimit="1.5" stroke-linecap="round" stroke-linejoin="round"/>
<path d="M740.962 1596.21L708.098 1583.28L695.378 1615.6L728.242 1628.53L740.962 1596.21Z" fill="#570204" stroke="black" stroke-width="1.03665" stroke-miterlimit="1.5" stroke-linecap="round" stroke-linejoin="round"/>
<path fill-rule="evenodd" clip-rule="evenodd" d="M1186.54 1848.91C1172.52 1828.43 1151.41 1822.63 1143.38 1849.32C1139.88 1860.96 1214.21 2019.06 1214.21 2019.06L1275.38 1988.54C1275.38 1988.54 1200.37 1869.12 1186.54 1848.91Z" fill="#FF050B" stroke="black" stroke-width="8.49863" stroke-miterlimit="1.5" stroke-linecap="round" stroke-linejoin="round"/>
<path fill-rule="evenodd" clip-rule="evenodd" d="M1174.6 1924.46L1207.6 1977.12L1208.37 2002.75L1174.6 1924.46Z" fill="black" fill-opacity="0.3"/>
<path fill-rule="evenodd" clip-rule="evenodd" d="M1210.95 2040.39C1210.95 2040.39 1196.97 1975.32 1221.01 1958.89C1245.5 1942.15 1313.19 1985.72 1313.19 1985.72C1276.99 2022.94 1249.57 2036.28 1210.95 2040.39Z" fill="#EF563B" stroke="black" stroke-width="8.49584" stroke-miterlimit="1.5" stroke-linecap="round" stroke-linejoin="round"/>
<path fill-rule="evenodd" clip-rule="evenodd" d="M1156.43 1790.49C1156.43 1790.49 1144.35 1844.62 1130.35 1851.13C1115.28 1858.14 1058.2 1826.49 1058.2 1826.49C1059.52 1815.29 1068.47 1814.32 1083.21 1821.11C1082.86 1820.71 1080.85 1784.92 1087.88 1785.81C1093.26 1786.5 1106.08 1789.14 1106.14 1788.12C1097 1786.55 1085.94 1788.56 1079.8 1783.54C1078.05 1782.11 1078.95 1776.28 1077.65 1774.34C1077.65 1774.34 1100.52 1767.65 1117.36 1766.96C1124.63 1766.66 1127.31 1767.63 1131.87 1767.51C1140.96 1752.42 1146.4 1727.93 1154.08 1701.11C1167.07 1655.75 1168.33 1636.06 1178.54 1625.48C1194.88 1608.57 1213.92 1606.34 1213.92 1606.34L1190.46 1712.34L1156.43 1790.49Z" fill="#FF050B" stroke="black" stroke-width="7.26279" stroke-miterlimit="1.5" stroke-linecap="round" stroke-linejoin="round"/>
<path d="M1085.83 1792.02C1097.03 1804.11 1110.59 1811.85 1125.45 1817.2" stroke="black" stroke-width="6.49471" stroke-miterlimit="1.5" stroke-linecap="round" stroke-linejoin="round"/>
<path d="M1086.83 1808.14C1095.68 1816.6 1103.77 1822.22 1111.56 1826.66" stroke="black" stroke-width="6.49471" stroke-miterlimit="1.5" stroke-linecap="round" stroke-linejoin="round"/>
<path d="M1084.35 1822.33L1097.41 1829.92" stroke="black" stroke-width="6.49471" stroke-miterlimit="1.5" stroke-linecap="round" stroke-linejoin="round"/>
<path d="M1108.76 1788.25C1115.35 1787.82 1121.87 1789.88 1124.83 1795.18" stroke="black" stroke-width="6.48741" stroke-miterlimit="1.5" stroke-linecap="round" stroke-linejoin="round"/>
<path fill-rule="evenodd" clip-rule="evenodd" d="M927.091 1737.4C920.534 1721.61 957.533 1734.99 957.533 1734.99L972.414 1761.01C972.414 1761.01 957.754 1819.07 942.658 1809.19C931.407 1801.82 930.126 1744.7 927.091 1737.4Z" fill="#FF050B" stroke="black" stroke-width="6.96917" stroke-miterlimit="1.5" stroke-linecap="round" stroke-linejoin="round"/>
<path fill-rule="evenodd" clip-rule="evenodd" d="M910.773 1728.82C904.216 1713.03 926.691 1677.23 926.691 1677.23L938.363 1681.38L944.12 1665.98L973.819 1667.86L957.534 1735L967.382 1709.71L988.431 1691.94L979.057 1725.18L966.949 1769.7C966.949 1769.7 950.838 1761.9 935.742 1752.01C924.491 1744.64 913.805 1736.12 910.773 1728.82Z" fill="#FF050B" stroke="black" stroke-width="6.96917" stroke-miterlimit="1.5" stroke-linecap="round" stroke-linejoin="round"/>
<path d="M938.637 1680.84L929.457 1720.83" stroke="black" stroke-width="5.97615" stroke-miterlimit="1.5" stroke-linecap="round" stroke-linejoin="round"/>
<path d="M957.44 1670.44L943.027 1733.86" stroke="black" stroke-width="5.97615" stroke-miterlimit="1.5" stroke-linecap="round" stroke-linejoin="round"/>
<path fill-rule="evenodd" clip-rule="evenodd" d="M1094.13 1390.93C1091.56 1383.77 1064.94 1400.79 1034.26 1426.8C1001.37 1454.68 964.6 1493.08 971.549 1528.27C980.743 1574.81 1050.79 1624.85 1092.65 1625.07C1134.51 1625.28 1217.24 1568.77 1222.73 1529.55C1227.43 1495.93 1167.44 1449.13 1127.12 1419.56C1104.28 1402.8 1095.35 1388.62 1094.13 1390.93Z" fill="#FF050B" stroke="black" stroke-width="7.95756" stroke-miterlimit="1.5" stroke-linecap="round" stroke-linejoin="round"/>
<path fill-rule="evenodd" clip-rule="evenodd" d="M1093.57 1554.23C1140.72 1554.23 1186.43 1538.42 1186.43 1548.2C1186.43 1557.98 1095.16 1615.48 1095.16 1615.48C1095.16 1615.48 1010.28 1565.15 1010.16 1555.37C1010.09 1550.03 1046.43 1554.23 1093.57 1554.23Z" fill="white"/>
<path fill-rule="evenodd" clip-rule="evenodd" d="M1093.57 1553.54C1128.88 1553.22 1163.31 1544.04 1178.43 1543.56C1181.74 1543.46 1184.21 1543.81 1185.7 1544.6C1187.2 1545.39 1187.95 1546.59 1187.96 1548.2C1187.96 1548.92 1187.68 1549.84 1187.03 1550.91C1186.35 1552.01 1185.25 1553.35 1183.77 1554.87C1179.4 1559.35 1171.63 1565.59 1162.44 1572.39C1152.34 1579.86 1140.52 1588.04 1129.67 1595.31C1111.57 1607.45 1096.18 1617.1 1096.18 1617.1C1095.57 1617.48 1094.8 1617.49 1094.18 1617.12C1094.18 1617.12 1057.54 1595.19 1032.42 1577.34C1023.85 1571.25 1016.63 1565.61 1012.6 1561.49C1010.08 1558.92 1008.81 1556.76 1008.8 1555.39C1008.79 1554.43 1009.27 1553.55 1010.47 1552.91C1011.75 1552.22 1014.18 1551.75 1017.62 1551.56C1030.65 1550.81 1059.24 1553.27 1093.57 1553.54ZM1011.52 1555.44C1011.56 1555.72 1011.73 1556.04 1011.96 1556.42C1012.5 1557.3 1013.4 1558.34 1014.58 1559.52C1018.59 1563.51 1025.76 1568.9 1034.22 1574.77C1056.97 1590.56 1089.05 1609.65 1095.12 1613.24C1098.77 1610.91 1112.15 1602.37 1127.56 1592.14C1138.4 1584.94 1150.25 1576.92 1160.38 1569.58C1169.47 1563 1177.18 1557 1181.53 1552.66C1182.83 1551.36 1183.81 1550.23 1184.41 1549.29C1184.69 1548.84 1184.91 1548.5 1184.91 1548.2C1184.91 1547.55 1184.4 1547.24 1183.65 1546.98C1182.42 1546.58 1180.68 1546.44 1178.5 1546.48C1163.39 1546.71 1128.84 1555.24 1093.57 1554.93C1065.42 1555.15 1041.12 1553.85 1026.13 1553.89C1020.08 1553.91 1015.59 1554.14 1013.02 1554.81C1012.5 1554.94 1012.08 1555.09 1011.76 1555.27C1011.68 1555.31 1011.58 1555.39 1011.52 1555.44Z" fill="#00394E"/>
<path fill-rule="evenodd" clip-rule="evenodd" d="M1148.33 1613.85C1100.34 1653.95 995.106 1645.29 993.843 1627.23L961.461 1668.77C956.185 1681.87 953.338 1680.1 939.183 1684.9C922.071 1690.7 915.245 1724.36 927.956 1736.59C934.665 1743.04 953.273 1759.31 961.446 1769.56C945.078 1771.44 947.949 1787.21 950.835 1807.67C937.371 1809.15 931.144 1772.83 927.929 1749.96L907.671 1727.07L917.889 1674.38L940.863 1670.42L975.718 1535.33C971.542 1510.67 978.854 1488.81 986.718 1467.09C1011.84 1428.17 1041.92 1394.36 1088.52 1377.52L1049.03 1422.67L1025.9 1461.53C979.723 1500.34 996.291 1536.59 1028.57 1546.5C1012.09 1584.06 1060.25 1629.46 1148.33 1613.85Z" fill="black" fill-opacity="0.3"/>
<path fill-rule="evenodd" clip-rule="evenodd" d="M1077.08 1516.56L1082.41 1504.26L1094.01 1518.4L1077.08 1516.56Z" stroke="black" stroke-width="6.01303" stroke-miterlimit="1.5" stroke-linecap="round" stroke-linejoin="round"/>
<path fill-rule="evenodd" clip-rule="evenodd" d="M1112.1 1486.29L1167.42 1487.8L1122.51 1497.09" fill="white"/>
<path fill-rule="evenodd" clip-rule="evenodd" d="M1112.04 1488.32L1110.02 1488.26L1110.13 1484.22L1112.15 1484.27C1112.15 1484.27 1118.05 1484.2 1125.99 1484.23C1130.22 1484.24 1135.03 1484.26 1139.83 1484.36C1153.66 1484.66 1167.49 1485.28 1167.49 1485.28C1168.77 1485.32 1169.82 1486.31 1169.93 1487.58C1170.04 1488.86 1169.18 1490.01 1167.93 1490.27L1122.92 1499.07L1120.94 1499.48L1120.12 1495.52L1122.11 1495.11C1122.11 1495.11 1145.89 1489.92 1145.88 1489.92C1143.85 1489.87 1141.77 1489.8 1139.68 1489.74C1134.88 1489.58 1130.08 1489.33 1125.86 1489.12C1117.92 1488.71 1112.04 1488.32 1112.04 1488.32Z" fill="black"/>
<path fill-rule="evenodd" clip-rule="evenodd" d="M1071.73 1480.83C1068.22 1475.07 1030.62 1469.28 1018.21 1484.04C1007.32 1496.99 1025.31 1510.07 1032.65 1511.94C1041.07 1514.09 1059.29 1512.83 1059.29 1512.83" fill="white"/>
<path fill-rule="evenodd" clip-rule="evenodd" d="M1072.97 1480.07L1073.72 1481.31L1071.25 1482.81L1070.5 1481.58C1069.96 1480.74 1068.45 1480.04 1066.4 1479.32C1061.3 1477.53 1052.94 1476.34 1044.45 1476.63C1039.79 1476.78 1035.08 1477.36 1030.85 1478.62C1026.32 1479.97 1022.33 1482.05 1019.63 1485.23C1016.12 1489.36 1016 1493.51 1017.61 1497.2C1020.55 1503.96 1028.75 1509.24 1033.05 1510.37C1035.75 1511.08 1039.51 1511.42 1043.31 1511.57C1051.14 1511.89 1059.19 1511.39 1059.19 1511.39L1060.64 1511.29L1060.84 1514.17L1059.39 1514.27C1059.39 1514.27 1051.19 1514.9 1043.21 1514.68C1039.15 1514.57 1035.14 1514.24 1032.25 1513.52C1027.3 1512.29 1017.84 1506.33 1014.38 1498.63C1012.21 1493.8 1012.24 1488.33 1016.79 1482.85C1022.59 1475.93 1033.55 1473.04 1044.36 1472.84C1053.35 1472.67 1062.16 1474.31 1067.48 1476.4C1070.34 1477.51 1072.26 1478.86 1072.97 1480.07Z" fill="black"/>
<path d="M1049 1495.12C1050.55 1495.12 1051.81 1493.71 1051.81 1491.97C1051.81 1490.23 1050.55 1488.81 1049 1488.81C1047.45 1488.81 1046.19 1490.23 1046.19 1491.97C1046.19 1493.71 1047.45 1495.12 1049 1495.12Z" fill="black"/>
<path fill-rule="evenodd" clip-rule="evenodd" d="M1049 1485.92C1050.76 1485.5 1052.29 1486.45 1053.69 1487.58C1054.9 1488.56 1055.36 1490.22 1055.63 1491.97C1055.62 1493.76 1055.01 1495.41 1053.96 1496.59C1052.68 1498 1050.92 1498.91 1049 1498.79C1047.12 1498.65 1045.37 1497.89 1044.28 1496.38C1043.41 1495.17 1042.75 1493.66 1042.88 1491.97C1043.03 1490.33 1043.56 1488.83 1044.59 1487.81C1045.78 1486.62 1047.3 1485.77 1049 1485.92ZM1049 1488.81C1047.45 1488.81 1046.19 1490.23 1046.19 1491.97C1046.19 1493.71 1047.45 1495.12 1049 1495.12C1050.55 1495.12 1051.81 1493.71 1051.81 1491.97C1051.81 1490.23 1050.55 1488.81 1049 1488.81Z" fill="black"/>
<path d="M1130.49 1493.46C1132.04 1493.46 1133.3 1492.04 1133.3 1490.3C1133.3 1488.56 1132.04 1487.14 1130.49 1487.14C1128.94 1487.14 1127.68 1488.56 1127.68 1490.3C1127.68 1492.04 1128.94 1493.46 1130.49 1493.46Z" fill="black"/>
<path fill-rule="evenodd" clip-rule="evenodd" d="M1130.49 1484.25C1132.25 1483.83 1133.78 1484.78 1135.18 1485.91C1136.39 1486.89 1136.85 1488.55 1137.12 1490.3C1137.11 1492.09 1136.5 1493.74 1135.45 1494.92C1134.17 1496.33 1132.41 1497.24 1130.49 1497.12C1128.61 1496.98 1126.86 1496.22 1125.77 1494.71C1124.9 1493.5 1124.24 1491.99 1124.37 1490.3C1124.52 1488.66 1125.05 1487.16 1126.08 1486.14C1127.27 1484.95 1128.79 1484.1 1130.49 1484.25ZM1130.49 1487.14C1128.94 1487.14 1127.68 1488.56 1127.68 1490.3C1127.68 1492.04 1128.94 1493.45 1130.49 1493.45C1132.04 1493.45 1133.3 1492.04 1133.3 1490.3C1133.3 1488.56 1132.04 1487.14 1130.49 1487.14Z" fill="black"/>
<path fill-rule="evenodd" clip-rule="evenodd" d="M1016.49 1556.6C1016.38 1556.61 1016.29 1556.53 1016.28 1556.42C1016.27 1556.31 1016.35 1556.21 1016.46 1556.2C1019.39 1555.83 1023.92 1557.64 1030.19 1560.25C1037.86 1563.43 1048.16 1567.71 1061.42 1570.39C1067.03 1571.52 1073.17 1572.37 1079.87 1572.74C1083.8 1572.96 1087.93 1573.05 1092.26 1572.88C1097.04 1572.78 1101.96 1572.36 1106.93 1571.75C1111.78 1571.16 1116.67 1570.38 1121.54 1569.41C1131.49 1567.44 1141.28 1564.72 1150.17 1561.56C1165.85 1555.98 1178.72 1549.08 1184.6 1542.48C1184.67 1542.39 1184.79 1542.38 1184.88 1542.45C1184.96 1542.53 1184.98 1542.65 1184.9 1542.74C1178.3 1551.19 1161.67 1560.89 1141.86 1568.02C1131 1571.94 1119.21 1575.09 1107.62 1576.84C1102.48 1577.61 1097.37 1578.05 1092.42 1578.23C1087.9 1578.32 1083.6 1578.2 1079.51 1577.84C1072.55 1577.23 1066.21 1576.04 1060.46 1574.53C1055.8 1573.3 1051.54 1571.87 1047.63 1570.34C1040.34 1567.49 1034.34 1564.38 1029.45 1561.83C1023.57 1558.77 1019.38 1556.51 1016.49 1556.6Z" fill="black"/>
<path fill-rule="evenodd" clip-rule="evenodd" d="M1092.14 1555.34L1092.13 1554.64L1093.52 1554.61L1093.53 1555.31C1093.53 1555.31 1093.98 1559.52 1094.5 1565.51C1094.62 1566.89 1094.73 1568.35 1094.84 1569.89C1094.96 1571.76 1095.09 1573.72 1095.18 1575.72C1095.23 1577.01 1095.28 1578.31 1095.29 1579.62C1095.32 1582.95 1095.24 1586.28 1095.16 1589.36C1094.94 1597.57 1094.58 1603.98 1094.58 1603.98L1094.59 1604.67L1093.21 1604.7L1093.19 1604.01C1093.19 1604.01 1092.55 1597.62 1091.98 1589.43C1091.77 1586.35 1091.55 1583.03 1091.43 1579.7C1091.39 1578.4 1091.38 1577.09 1091.38 1575.81C1091.38 1573.8 1091.42 1571.84 1091.47 1569.96C1091.5 1568.42 1091.56 1566.95 1091.62 1565.57C1091.87 1559.57 1092.14 1555.34 1092.14 1555.34Z" fill="#00394E"/>
<path fill-rule="evenodd" clip-rule="evenodd" d="M1135.87 1546.88L1135.86 1546.19L1137.25 1546.17L1137.26 1546.86C1137.26 1546.86 1137.67 1550.6 1138.13 1555.92C1138.23 1557.15 1138.34 1558.45 1138.42 1559.81C1138.53 1561.47 1138.64 1563.21 1138.71 1564.99C1138.75 1566.13 1138.79 1567.29 1138.79 1568.44C1138.78 1571.4 1138.67 1574.35 1138.56 1577.09C1138.26 1584.37 1137.84 1590.06 1137.84 1590.06L1137.85 1590.75L1136.46 1590.77L1136.45 1590.08C1136.45 1590.08 1135.88 1584.41 1135.38 1577.13C1135.2 1574.4 1135.01 1571.45 1134.93 1568.5C1134.89 1567.34 1134.89 1566.18 1134.91 1565.04C1134.93 1563.26 1134.99 1561.52 1135.05 1559.85C1135.11 1558.49 1135.17 1557.19 1135.24 1555.96C1135.56 1550.63 1135.87 1546.88 1135.87 1546.88Z" fill="#00394E"/>
<path fill-rule="evenodd" clip-rule="evenodd" d="M1031.53 1545.24V1544.55H1032.91V1545.24C1032.91 1545.24 1033.27 1548.03 1033.66 1552.03C1033.75 1552.95 1033.83 1553.92 1033.9 1554.94C1033.99 1556.19 1034.08 1557.49 1034.12 1558.82C1034.15 1559.68 1034.17 1560.55 1034.15 1561.41C1034.1 1563.63 1033.95 1565.83 1033.8 1567.88C1033.41 1573.34 1032.91 1577.58 1032.91 1577.58V1578.27H1031.52V1577.58C1031.52 1577.58 1031.02 1573.34 1030.63 1567.88C1030.48 1565.83 1030.33 1563.63 1030.29 1561.41C1030.27 1560.55 1030.29 1559.68 1030.32 1558.82C1030.36 1557.49 1030.45 1556.19 1030.53 1554.94C1030.6 1553.92 1030.69 1552.95 1030.78 1552.03C1031.17 1548.03 1031.53 1545.24 1031.53 1545.24Z" fill="#00394E"/>
<path fill-rule="evenodd" clip-rule="evenodd" d="M1048.67 1543.52L1048.6 1542.83L1049.97 1542.69L1050.05 1543.38C1050.61 1546.39 1051.14 1549.37 1051.56 1552.41C1051.74 1553.7 1051.9 1555 1052.03 1556.3C1052.21 1558.04 1052.36 1559.78 1052.46 1561.52C1052.52 1562.68 1052.57 1563.84 1052.56 1565.01C1052.56 1567.91 1052.41 1570.82 1052.19 1573.72C1051.86 1578.06 1051.28 1582.36 1050.63 1586.7L1050.57 1587.39L1049.19 1587.28L1049.24 1586.59C1049.3 1582.24 1049.15 1577.95 1049.01 1573.65C1048.92 1570.78 1048.79 1567.92 1048.71 1565.07C1048.67 1563.92 1048.66 1562.78 1048.66 1561.63C1048.65 1559.91 1048.66 1558.19 1048.67 1556.47C1048.67 1555.18 1048.67 1553.89 1048.68 1552.6C1048.7 1549.56 1048.72 1546.56 1048.67 1543.52Z" fill="#00394E"/>
<path fill-rule="evenodd" clip-rule="evenodd" d="M1092.61 1485.03C1091.55 1484.89 1090.81 1483.93 1090.95 1482.87C1091.09 1481.82 1092.06 1481.08 1093.11 1481.21C1100.11 1481.47 1106.36 1478.91 1112.36 1475.37C1115.32 1473.63 1118.15 1471.61 1120.95 1469.5C1123.82 1467.34 1126.57 1465.03 1129.35 1462.86C1133.45 1459.63 1137.49 1456.57 1141.37 1454.09C1146.79 1450.62 1151.97 1448.25 1156.67 1447.76C1162.07 1447.18 1167.09 1448.5 1171.28 1453.61C1174.34 1457.33 1177.08 1463.16 1179.16 1472.03C1179.49 1473.05 1178.94 1474.13 1177.93 1474.46C1176.91 1474.79 1175.83 1474.24 1175.5 1473.23C1173.05 1467.41 1170.57 1463.28 1168.1 1460.36C1164.87 1456.55 1161.64 1455.63 1158.15 1456.45C1154.66 1457.27 1151.17 1459.79 1147.22 1462.67C1143.62 1465.28 1139.8 1468.36 1135.7 1471.3C1130.82 1474.79 1125.59 1478.12 1120.13 1480.71C1111.31 1484.9 1102.06 1487.17 1092.61 1485.03Z" fill="black"/>
<path fill-rule="evenodd" clip-rule="evenodd" d="M1012.39 1476.11C1012.08 1477.13 1011.01 1477.7 1009.99 1477.39C1008.97 1477.08 1008.4 1476 1008.71 1474.99C1009.87 1468.52 1012.47 1462.82 1016.08 1457.81C1017.7 1455.57 1019.57 1453.56 1021.59 1451.69C1024.3 1449.18 1027.32 1447.04 1030.53 1445.28C1032.7 1444.1 1034.96 1443.1 1037.29 1442.36C1043.3 1440.45 1049.59 1439.82 1055.48 1440.46C1065.2 1441.52 1073.82 1445.71 1079.04 1453.19C1079.73 1454 1079.64 1455.22 1078.84 1455.91C1078.03 1456.6 1076.81 1456.51 1076.12 1455.7C1071.57 1451.38 1065.5 1449.53 1058.94 1449.23C1055.91 1449.09 1052.82 1449.42 1049.68 1449.98C1046.69 1450.52 1043.72 1451.43 1040.76 1452.5C1038.91 1453.17 1037.07 1453.9 1035.26 1454.73C1032.56 1455.96 1029.92 1457.33 1027.42 1459.01C1023.66 1461.55 1020.18 1464.45 1017.33 1468.12C1015.43 1470.57 1013.71 1473.15 1012.39 1476.11Z" fill="black"/>
<path fill-rule="evenodd" clip-rule="evenodd" d="M1058.77 1329.71C1062.7 1345.98 1058.62 1378.18 1058.62 1378.18C1058.62 1378.18 1098.34 1383.49 1108.34 1376C1118.33 1368.52 1118.91 1343.21 1108.96 1334.96C1099.01 1326.71 1055.85 1317.62 1058.77 1329.71Z" fill="#00A8E4" stroke="#00394E" stroke-width="6.8725" stroke-miterlimit="1.5" stroke-linecap="round" stroke-linejoin="round"/>
<path fill-rule="evenodd" clip-rule="evenodd" d="M1053.85 1335.19C1047.96 1329.55 1027.44 1324.04 1008.25 1312.43C988.284 1300.36 977.5 1267.68 969.729 1282.28C960.431 1299.77 937.663 1403.14 952.461 1417.33C960.675 1425.2 1056.09 1369.81 1056.09 1369.81C1056.09 1369.81 1065.88 1346.69 1053.85 1335.19Z" fill="#00A8E4" stroke="#00394E" stroke-width="6.8725" stroke-miterlimit="1.5" stroke-linecap="round" stroke-linejoin="round"/>
<path fill-rule="evenodd" clip-rule="evenodd" d="M1057.1 1344.43L982.184 1320.98L1040.85 1350.95C1040.85 1350.95 972.601 1358.78 976.055 1359.95C979.51 1361.13 1043.99 1364.24 1043.99 1364.24L959.26 1391.38L958.783 1375.1L952.488 1414.93L1058.16 1373.32L1057.1 1344.43Z" fill="black" fill-opacity="0.3"/>
<path fill-rule="evenodd" clip-rule="evenodd" d="M1060.93 1339.32L1068.84 1344.22L1072.73 1370.58L1080.94 1356.12C1080.94 1356.12 1074.49 1372.05 1077.86 1371.32C1081.24 1370.57 1091.32 1358.15 1091.32 1358.15L1085.81 1370.94L1106.2 1369.24L1103.87 1373.74C1103.87 1373.74 1059.32 1380.09 1059.64 1378.25C1059.95 1376.39 1060.93 1339.32 1060.93 1339.32Z" fill="black" fill-opacity="0.3"/>
<path fill-rule="evenodd" clip-rule="evenodd" d="M1114.36 1335.49C1114.36 1335.49 1153.92 1328.66 1168.71 1323.02C1181.26 1318.24 1200.45 1288.06 1203.12 1301.64C1206.39 1318.37 1203.18 1412.14 1188.38 1423.37C1173.57 1434.6 1114.28 1369.02 1114.28 1369.02L1114.36 1335.49Z" fill="#00A8E4" stroke="#00394E" stroke-width="6.8725" stroke-miterlimit="1.5" stroke-linecap="round" stroke-linejoin="round"/>
<path fill-rule="evenodd" clip-rule="evenodd" d="M1115.69 1347.48C1115.69 1347.48 1120.54 1352.33 1125.88 1350.01C1131.23 1347.68 1188.25 1338.59 1188.25 1338.59C1188.25 1338.59 1133.75 1349.85 1130.8 1355.8C1127.86 1361.75 1177.67 1387.66 1177.67 1387.66C1177.67 1387.66 1134.43 1362.9 1123.7 1358.76C1121.13 1357.77 1120.86 1362.03 1123.05 1363.69C1131.34 1369.96 1168.39 1393.49 1165.07 1392.54C1162.61 1391.82 1138.39 1375.54 1124.81 1369.65C1120.09 1367.61 1114.49 1371.03 1114.49 1371.03L1115.69 1347.48Z" fill="black" fill-opacity="0.3"/>
<path d="M1154.24 1526.89C1183.07 1526.89 1206.43 1505.61 1206.43 1479.37C1206.43 1453.13 1183.07 1431.85 1154.24 1431.85C1125.42 1431.85 1102.05 1453.13 1102.05 1479.37C1102.05 1505.61 1125.42 1526.89 1154.24 1526.89Z" fill="#005573" fill-opacity="0.4"/>
<path fill-rule="evenodd" clip-rule="evenodd" d="M1154.24 1424.34C1170.32 1423.73 1185.08 1429.18 1196.17 1438.22C1208.51 1448.29 1215.97 1463.06 1216.37 1479.37C1216.36 1495.81 1208.94 1510.75 1196.77 1521.22C1185.68 1530.75 1170.69 1536.58 1154.24 1536.43C1137.91 1536.24 1123.11 1530.26 1112.26 1520.6C1100.51 1510.12 1093.26 1495.49 1093.46 1479.37C1093.68 1463.41 1101.02 1448.99 1112.93 1438.92C1123.77 1429.77 1138.29 1424.12 1154.24 1424.34ZM1154.24 1431.85C1125.44 1431.85 1102.05 1453.14 1102.05 1479.37C1102.05 1505.6 1125.44 1526.89 1154.24 1526.89C1183.05 1526.89 1206.44 1505.6 1206.44 1479.37C1206.44 1453.14 1183.05 1431.85 1154.24 1431.85Z" fill="#F7F189"/>
<path d="M1017.04 1534.28C1045.87 1534.28 1069.24 1513.01 1069.24 1486.76C1069.24 1460.52 1045.87 1439.24 1017.04 1439.24C988.219 1439.24 964.852 1460.52 964.852 1486.76C964.852 1513.01 988.219 1534.28 1017.04 1534.28Z" fill="#005573" fill-opacity="0.4"/>
<path fill-rule="evenodd" clip-rule="evenodd" d="M1017.04 1431.73C1033.12 1431.13 1047.88 1436.57 1058.97 1445.62C1071.31 1455.69 1078.77 1470.46 1079.17 1486.77C1079.16 1503.21 1071.74 1518.15 1059.57 1528.61C1048.48 1538.15 1033.49 1543.97 1017.04 1543.82C1000.71 1543.63 985.912 1537.65 975.064 1527.99C963.31 1517.52 956.062 1502.88 956.262 1486.77C956.48 1470.8 963.824 1456.39 975.734 1446.32C986.566 1437.16 1001.09 1431.51 1017.04 1431.73ZM1017.04 1439.24C988.24 1439.24 964.853 1460.54 964.853 1486.77C964.853 1512.99 988.24 1534.29 1017.04 1534.29C1045.85 1534.29 1069.24 1512.99 1069.24 1486.77C1069.24 1460.54 1045.85 1439.24 1017.04 1439.24Z" fill="#F7F189"/>
<path fill-rule="evenodd" clip-rule="evenodd" d="M1168.01 1442.67C1164.42 1442.24 1149.47 1449.98 1156.42 1455.83C1163.36 1461.68 1176.11 1462.12 1177.91 1458.4C1179.71 1454.68 1171.59 1443.1 1168.01 1442.67Z" fill="white"/>
<path fill-rule="evenodd" clip-rule="evenodd" d="M1031.67 1440.59C1028.09 1440.16 1013.13 1447.9 1020.08 1453.75C1027.03 1459.6 1039.77 1460.04 1041.57 1456.32C1043.38 1452.6 1035.25 1441.02 1031.67 1440.59Z" fill="white"/>
</svg>
