<svg width="2160" height="2700" viewBox="0 0 2160 2700" fill="none" xmlns="http://www.w3.org/2000/svg">
<g clip-path="url(#clip0_626_1208)">
<path fill-rule="evenodd" clip-rule="evenodd" d="M1931.76 1435.35C1923.47 1424.32 1907.79 1422.09 1896.76 1430.37C1885.72 1438.66 1883.5 1454.35 1891.79 1465.38C1891.79 1465.38 1919.43 1502.17 1937.62 1544.8C1948.14 1569.45 1956.59 1596.09 1950.3 1617.3C1931.48 1680.78 1912.25 1698.12 1912.25 1698.12C1906.43 1710.63 1936.1 1769.17 1941.92 1756.67C1941.92 1756.67 1978.42 1698.36 1998.24 1631.51C2007.41 1600.58 1998.95 1561.13 1983.61 1525.18C1963.03 1476.95 1931.76 1435.35 1931.76 1435.35Z" fill="#42AB84" stroke="black" stroke-width="11" stroke-miterlimit="2" stroke-linejoin="round"/>
<path d="M1950.25 1469.67L1918.49 1497.34" stroke="black" stroke-width="11" stroke-miterlimit="1.5" stroke-linecap="round" stroke-linejoin="round"/>
<path d="M1978.11 1517.49L1941.38 1538.1" stroke="black" stroke-width="11" stroke-miterlimit="1.5" stroke-linecap="round" stroke-linejoin="round"/>
<path d="M1994.95 1576.52L1953.11 1581.31" stroke="black" stroke-width="11" stroke-miterlimit="1.5" stroke-linecap="round" stroke-linejoin="round"/>
<path d="M1990.6 1638.56L1950.28 1626.41" stroke="black" stroke-width="11" stroke-miterlimit="1.5" stroke-linecap="round" stroke-linejoin="round"/>
<path d="M1970.48 1691.24L1935.09 1668.4" stroke="black" stroke-width="11" stroke-miterlimit="1.5" stroke-linecap="round" stroke-linejoin="round"/>
<path d="M1917.88 1669.51L1960.52 1750.56L1917.57 1773.15L1874.93 1692.1L1917.88 1669.51Z" fill="#42AB84" stroke="black" stroke-width="13.4367" stroke-miterlimit="1.5" stroke-linecap="round" stroke-linejoin="round"/>
<path fill-rule="evenodd" clip-rule="evenodd" d="M1880.24 1822.7L1701.28 1517.29L1624.38 1578.94L1880.45 1895.45L1880.24 1822.7Z" fill="#8D8D8D" stroke="black" stroke-width="7.89463" stroke-miterlimit="1.5" stroke-linecap="round" stroke-linejoin="round"/>
<path fill-rule="evenodd" clip-rule="evenodd" d="M2125.74 2484.27L1822.05 1415.72L1726.53 1437.12L2010.33 2558.25L2125.74 2484.27Z" fill="#8D8D8D" stroke="black" stroke-width="11.3734" stroke-miterlimit="1.5" stroke-linecap="round" stroke-linejoin="round"/>
<path fill-rule="evenodd" clip-rule="evenodd" d="M1875.26 1603.55L1811.87 1718.59L1754.35 1730.8L1696.31 1673.07L1745.06 1590.3L1796.17 1671.92L1769.94 1570.56L1845.22 1501.64L1875.26 1603.55Z" fill="black" fill-opacity="0.4"/>
<path fill-rule="evenodd" clip-rule="evenodd" d="M1902 1471.11L1958.14 1594.99L1933.99 1439.76L1902 1471.11Z" fill="black" fill-opacity="0.4"/>
<path fill-rule="evenodd" clip-rule="evenodd" d="M2130.49 2221.65C2131.67 2010.42 2120.66 1800.48 2059.43 1595.8L1942.96 1749.44L1725.21 1811.37L1849.55 2176.54L2014.79 2141.39L2047.29 2306.36L2130.49 2221.65Z" fill="#2AB6E9" stroke="black" stroke-width="13.672" stroke-miterlimit="1.5" stroke-linecap="round" stroke-linejoin="round"/>
<path fill-rule="evenodd" clip-rule="evenodd" d="M2086.42 1898.3L2016.26 1931.62L2026.85 1965.41L2089.8 1940.95L2086.42 1898.3Z" fill="#EBE7C0" stroke="black" stroke-width="11" stroke-miterlimit="1.5" stroke-linecap="round" stroke-linejoin="round"/>
<path d="M2059.38 1669.78L1974.65 1769.61L1997.2 1903.43L1947.8 1929.01L1964.8 2004.57L2025.98 2009.41L2063.89 2201.14L2118.65 2162.73" stroke="black" stroke-width="11" stroke-miterlimit="1.5" stroke-linecap="round" stroke-linejoin="round"/>
<path fill-rule="evenodd" clip-rule="evenodd" d="M198.851 1417.32C205.728 1405.36 221.023 1401.23 232.985 1408.1C244.947 1414.98 249.074 1430.28 242.197 1442.24C242.197 1442.24 219.264 1482.13 206.417 1526.67C198.992 1552.42 193.865 1579.89 202.698 1600.17C229.135 1660.88 250.346 1675.73 250.346 1675.73C257.652 1687.44 235.36 1749.17 228.054 1737.47C228.054 1737.47 184.698 1684.06 156.857 1620.14C143.975 1590.56 147.546 1550.37 158.375 1512.82C172.906 1462.43 198.851 1417.32 198.851 1417.32Z" fill="#42AB84" stroke="black" stroke-width="11" stroke-miterlimit="2" stroke-linejoin="round"/>
<path d="M184.699 1453.64L219.595 1477.22" stroke="black" stroke-width="11" stroke-miterlimit="1.5" stroke-linecap="round" stroke-linejoin="round"/>
<path d="M162.893 1504.51L201.868 1520.47" stroke="black" stroke-width="11" stroke-miterlimit="1.5" stroke-linecap="round" stroke-linejoin="round"/>
<path d="M153.398 1565.16L195.513 1564.8" stroke="black" stroke-width="11" stroke-miterlimit="1.5" stroke-linecap="round" stroke-linejoin="round"/>
<path d="M165.3 1626.2L203.835 1609.21" stroke="black" stroke-width="11" stroke-miterlimit="1.5" stroke-linecap="round" stroke-linejoin="round"/>
<path d="M191.714 1676.03L224.039 1649.03" stroke="black" stroke-width="11" stroke-miterlimit="1.5" stroke-linecap="round" stroke-linejoin="round"/>
<path d="M241.254 1648.02L208.844 1733.68L254.238 1750.85L286.649 1665.2L241.254 1648.02Z" fill="#42AB84" stroke="black" stroke-width="13.4367" stroke-miterlimit="1.5" stroke-linecap="round" stroke-linejoin="round"/>
<path fill-rule="evenodd" clip-rule="evenodd" d="M269.655 1848.76L431.514 1533.96L511.696 1591.27L273.454 1921.41L269.655 1848.76Z" fill="#8D8D8D" stroke="black" stroke-width="7.89463" stroke-miterlimit="1.5" stroke-linecap="round" stroke-linejoin="round"/>
<path fill-rule="evenodd" clip-rule="evenodd" d="M67.4451 2498.71L305.326 1439.19L401.882 1455.29L173.894 2535.08L67.4451 2498.71Z" fill="#8D8D8D" stroke="black" stroke-width="11.3734" stroke-miterlimit="1.5" stroke-linecap="round" stroke-linejoin="round"/>
<path fill-rule="evenodd" clip-rule="evenodd" d="M90.2937 2511.11L328.174 1451.59L424.73 1467.69L196.743 2547.48L90.2937 2511.11Z" fill="#8D8D8D" stroke="black" stroke-width="11.3734" stroke-miterlimit="1.5" stroke-linecap="round" stroke-linejoin="round"/>
<path fill-rule="evenodd" clip-rule="evenodd" d="M265.955 2154.05C244.8 2146.3 174.503 2171.45 174.503 2171.45L141.909 2255.35L132.232 2333.11L104.879 2349.23L144.876 2110.57C144.876 2110.57 287.109 2161.8 265.955 2154.05Z" fill="black" fill-opacity="0.3"/>
<path fill-rule="evenodd" clip-rule="evenodd" d="M47.816 2131.07C33.4859 1919.82 48.941 1716.49 119.104 1527.68L211.812 1718.93L429.56 1780.86L305.226 2146.03L139.978 2110.88L110.216 2249.68L47.816 2131.07Z" fill="#2AB6E9" stroke="black" stroke-width="13.672" stroke-miterlimit="1.5" stroke-linecap="round" stroke-linejoin="round"/>
<path fill-rule="evenodd" clip-rule="evenodd" d="M450.341 1668.89L290.818 1504.2L260.781 1649.55L239.345 1645.36L229.488 1650.44L194.649 1576.18L236.538 1445.84L206.87 1403.12C174.463 1457.99 153.818 1516.03 149.154 1578.37L119.184 1539.13L46.3976 1810.86C46.3976 1810.86 43.3066 2123.12 60.7276 2116.19C80.7675 2108.21 118.345 1842.35 180.331 1808.41C239.652 1775.93 395.41 1861.29 395.41 1861.29L429.925 1780.8L383.13 1757.1L450.341 1668.89Z" fill="black" fill-opacity="0.4"/>
<path fill-rule="evenodd" clip-rule="evenodd" d="M78.2725 1873.28L149.687 1906.54L139.099 1940.33L79.5765 1914.17L78.2725 1873.28Z" fill="#EBE7C0" stroke="black" stroke-width="11" stroke-miterlimit="1.5" stroke-linecap="round" stroke-linejoin="round"/>
<path d="M117.711 1611.68L180.118 1739.1L157.569 1872.92L206.975 1898.5L189.971 1974.06L128.788 1978.9L94.1661 2161.06L59.5352 2102.02" stroke="black" stroke-width="11" stroke-miterlimit="1.5" stroke-linecap="round" stroke-linejoin="round"/>
</g>
<defs>
<clipPath id="clip0_626_1208">
<rect width="2160" height="2700" fill="white"/>
</clipPath>
</defs>
</svg>
