<svg width="2160" height="2700" viewBox="0 0 2160 2700" fill="none" xmlns="http://www.w3.org/2000/svg">
<g clip-path="url(#clip0_593_3740)">
<path fill-rule="evenodd" clip-rule="evenodd" d="M1566.35 1658.35L1505.67 1629.9L1527.5 1514.03L1588.19 1542.49C1588.19 1542.49 1675.19 1583.3 1761.51 1606.9C1807.43 1619.46 1854.13 1630.95 1878.82 1617.59C1963.21 1571.95 1956.39 1474.21 1956.39 1474.21L1950.92 1410.82L2073.76 1435.17L2079.23 1498.56C2079.23 1498.56 2094.91 1661.48 1957.22 1735.96C1924.67 1753.56 1872.35 1754.82 1813.69 1743.42C1701.96 1721.7 1566.35 1658.35 1566.35 1658.35Z" fill="#777777" stroke="black" stroke-width="12.4976" stroke-miterlimit="2" stroke-linejoin="round"/>
<path d="M1587.43 1672.4C1574.15 1627.28 1587.95 1591.29 1617.73 1560.69" stroke="black" stroke-width="8.66856" stroke-miterlimit="1.5" stroke-linecap="square" stroke-linejoin="round"/>
<path d="M1686.74 1712.35C1664 1668.92 1667.87 1627.91 1687.45 1588.33" stroke="black" stroke-width="8.73501" stroke-miterlimit="1.5" stroke-linecap="square" stroke-linejoin="round"/>
<path d="M1785.45 1736.35C1757.48 1695.26 1755.04 1652.32 1767.67 1608.3" stroke="black" stroke-width="8.78659" stroke-miterlimit="1.5" stroke-linecap="square" stroke-linejoin="round"/>
<path d="M1900.42 1757.5C1862.29 1726.24 1844.49 1682.8 1838.7 1632.15" stroke="black" stroke-width="8.83046" stroke-miterlimit="1.5" stroke-linecap="square" stroke-linejoin="round"/>
<path d="M1994.93 1706.19C1951.8 1694.07 1918.1 1659.09 1889.96 1610.6" stroke="black" stroke-width="8.68684" stroke-miterlimit="1.5" stroke-linecap="square" stroke-linejoin="round"/>
<path d="M2045.53 1657.42C2003.51 1655.1 1965.13 1626.79 1928.9 1583.14" stroke="black" stroke-width="8.66046" stroke-miterlimit="1.5" stroke-linecap="square" stroke-linejoin="round"/>
<path d="M2069.77 1601.75C2029.69 1606.24 1989.17 1583.32 1948.39 1544.21" stroke="black" stroke-width="8.68113" stroke-miterlimit="1.5" stroke-linecap="square" stroke-linejoin="round"/>
<path fill-rule="evenodd" clip-rule="evenodd" d="M49.8992 1507.86C52.4018 1519.19 58.4904 1544.13 66.9909 1561.33C102.028 1632.22 166.498 1708.59 166.498 1708.59L202.593 1751.48L106.52 1815.94L70.4242 1773.05C70.4242 1773.05 -30.4655 1651.9 -61.1698 1561.49C-82.7259 1498.01 -68.1117 1446.08 -24.7321 1420.36C11.6823 1398.77 74.4518 1395.81 144.852 1411.77C268.957 1439.9 423.509 1517.56 423.509 1517.56L475.815 1543.97L416.67 1637.38L364.365 1610.97C364.365 1610.97 226.334 1540.94 115.29 1515.78C95.1938 1511.22 76.1944 1508.13 59.575 1507.99C56.1404 1507.96 52.8651 1507.76 49.8992 1507.86Z" fill="#777777" stroke="black" stroke-width="13.9562" stroke-miterlimit="2" stroke-linejoin="round"/>
<path d="M293.789 1578.13C327.465 1555.68 338.863 1520.55 337.106 1477.93" stroke="black" stroke-width="7.94901" stroke-miterlimit="1.5" stroke-linecap="square" stroke-linejoin="round"/>
<path d="M216.39 1550.5C250.065 1528.05 261.464 1492.92 259.706 1450.3" stroke="black" stroke-width="7.94901" stroke-miterlimit="1.5" stroke-linecap="square" stroke-linejoin="round"/>
<path d="M132.363 1523.33C166.039 1500.87 177.437 1465.74 175.68 1423.12" stroke="black" stroke-width="7.94901" stroke-miterlimit="1.5" stroke-linecap="square" stroke-linejoin="round"/>
<path d="M70.0538 1506.33C100.915 1480.86 108.137 1444.85 101.399 1402.64" stroke="black" stroke-width="7.95012" stroke-miterlimit="1.5" stroke-linecap="square" stroke-linejoin="round"/>
<path d="M487.764 1326.68L-312.944 1635.85L-281.952 1716.12L518.756 1406.95L487.764 1326.68Z" fill="#00A8E4" stroke="black" stroke-width="5.89541" stroke-miterlimit="1.5" stroke-linecap="square" stroke-linejoin="round"/>
<path d="M467.084 1573.46L-251.859 1602.41L-243.456 1811.12L475.486 1782.18L467.084 1573.46Z" fill="#00A8E4" stroke="black" stroke-width="8.41033" stroke-miterlimit="1.5" stroke-linecap="square" stroke-linejoin="round"/>
<path fill-rule="evenodd" clip-rule="evenodd" d="M-107.228 1354.18L-107.331 1543.97L37.5201 1615.53L23.8481 1823.33L213.308 1821.22C213.308 1821.22 393.262 1685.73 322.207 1651.69C86.4209 1538.71 144.814 1374.17 144.814 1374.17L-107.228 1354.18Z" fill="#00A8E4" stroke="black" stroke-width="10.9784" stroke-miterlimit="1.5" stroke-linecap="square" stroke-linejoin="round"/>
<path d="M139.55 1763.5C112.657 1761.84 92.1127 1740.15 93.6622 1715.05C95.2116 1689.95 118.268 1670.95 145.161 1672.61C172.054 1674.27 192.598 1695.96 191.049 1721.06C189.499 1746.16 166.442 1765.16 139.55 1763.5Z" fill="white" stroke="black" stroke-width="11.8319" stroke-miterlimit="1.5" stroke-linecap="square" stroke-linejoin="round"/>
<path fill-rule="evenodd" clip-rule="evenodd" d="M52.9771 1369.99C52.9771 1369.99 36.343 1497.91 50.309 1539.22C60.536 1569.46 110.294 1655.33 110.843 1687.25C111.712 1737.89 79.496 1732.84 49.9351 1756.06C34.8841 1767.88 43.403 1595.71 0.637051 1770.65C-5.72995 1796.7 22.8011 1824.87 22.8011 1824.87L214.759 1816.24L262.404 1783.01L417.605 1807.12L505.895 1606.93L323.16 1375.43L141.993 1464.48L145.325 1379.53L52.9771 1369.99Z" fill="black" fill-opacity="0.3"/>
<path fill-rule="evenodd" clip-rule="evenodd" d="M2311.43 1083.01L1650.22 1415.44L1707.24 1645.58L2453.75 1356.84L2311.43 1083.01Z" fill="#00A8E4" stroke="black" stroke-width="10.4867" stroke-miterlimit="1.5" stroke-linecap="square" stroke-linejoin="round"/>
<path d="M2296.52 1280.65L1643.19 1837.32L1689.84 1892.07L2343.17 1335.41L2296.52 1280.65Z" fill="#00A8E4" stroke="black" stroke-width="5.39033" stroke-miterlimit="1.5" stroke-linecap="square" stroke-linejoin="round"/>
<path fill-rule="evenodd" clip-rule="evenodd" d="M2197.21 1133.77L2249.41 1316.24L2140.23 1421.78L2209.44 1618.13L2040.36 1664.14C2040.36 1664.14 1843.11 1579.5 1896.96 1528.75C2075.64 1360.32 1978.54 1216.91 1978.54 1216.91L2197.21 1133.77Z" fill="#00A8E4" stroke="black" stroke-width="10.5576" stroke-miterlimit="1.5" stroke-linecap="square" stroke-linejoin="round"/>
<path d="M2098.91 1592.54C2123.6 1581.76 2136.16 1555.92 2126.95 1534.82C2117.74 1513.71 2090.25 1505.34 2065.56 1516.11C2040.86 1526.89 2028.31 1552.73 2037.52 1573.84C2046.73 1594.94 2074.21 1603.32 2098.91 1592.54Z" fill="white" stroke="black" stroke-width="11.3224" stroke-miterlimit="1.5" stroke-linecap="square" stroke-linejoin="round"/>
<path fill-rule="evenodd" clip-rule="evenodd" d="M2096.59 1298.12C2144.79 1301.62 2272.13 1201.8 2275.58 1239.48C2278.01 1266.01 2258.82 1594.02 2258.82 1594.02L2047 1664.51L2008.32 1649.94C1979.47 1686.83 1931.91 1754.84 1832.21 1759.14L1656.28 1666.55L1700.21 1606.03C1775.99 1663.19 1860.59 1667.74 1921.89 1613.4L1883.93 1584.39L1734.93 1627.54L1950.27 1261.49L1991.4 1249.59L1986.37 1218.45C1986.37 1218.45 2051.38 1294.83 2096.59 1298.12Z" fill="black" fill-opacity="0.3"/>
</g>
<defs>
<clipPath id="clip0_593_3740">
<rect width="2160" height="2700" fill="white"/>
</clipPath>
</defs>
</svg>
