<svg width="2160" height="2700" viewBox="0 0 2160 2700" fill="none" xmlns="http://www.w3.org/2000/svg">
<g clip-path="url(#clip0_605_312)">
<path d="M525.003 1702.96L506.295 1664.76L193.519 1817.95L212.228 1856.15L525.003 1702.96Z" fill="#777777" stroke="black" stroke-width="9.72709" stroke-miterlimit="1.5" stroke-linecap="round" stroke-linejoin="round"/>
<path d="M262.414 1404.14L222.143 1390.45L110.049 1720.19L150.32 1733.88L262.414 1404.14Z" fill="#777777" stroke="black" stroke-width="9.72709" stroke-miterlimit="1.5" stroke-linecap="round" stroke-linejoin="round"/>
<path d="M178.481 1530.74L211.533 1540.99" stroke="black" stroke-width="13" stroke-miterlimit="1.5" stroke-linecap="round" stroke-linejoin="round"/>
<path fill-rule="evenodd" clip-rule="evenodd" d="M577.244 1800.02L565.272 1748.8C454.032 1838.89 335.448 1870.11 208.032 1832.3L220.003 1883.52C341.841 1898.05 460.811 1868.44 577.244 1800.02Z" fill="#777777" stroke="black" stroke-width="11.102" stroke-miterlimit="1.5" stroke-linecap="round" stroke-linejoin="round"/>
<path d="M462.371 1818.26L469.116 1847.62" stroke="black" stroke-width="13" stroke-miterlimit="1.5" stroke-linecap="round" stroke-linejoin="round"/>
<path d="M414.476 1834.46L421.221 1863.82" stroke="black" stroke-width="13" stroke-miterlimit="1.5" stroke-linecap="round" stroke-linejoin="round"/>
<path d="M354.762 1847.38L361.507 1876.74" stroke="black" stroke-width="13" stroke-miterlimit="1.5" stroke-linecap="round" stroke-linejoin="round"/>
<path d="M302.919 1849.81L301.915 1879.91" stroke="black" stroke-width="13" stroke-miterlimit="1.5" stroke-linecap="round" stroke-linejoin="round"/>
<path fill-rule="evenodd" clip-rule="evenodd" d="M526.664 1563.7L385.42 1372.87L-98.5858 1962.68L-6.84418 2143.96L526.664 1563.7Z" fill="#8D8D8D" stroke="black" stroke-width="12" stroke-miterlimit="1.5" stroke-linecap="round" stroke-linejoin="round"/>
<path fill-rule="evenodd" clip-rule="evenodd" d="M263.578 1647.92L122.578 1530.64L-4.86692 1584.38L-212.062 1877.45L153.058 1903.23L264.554 1798.89L263.578 1647.92Z" fill="#777777" stroke="black" stroke-width="12" stroke-miterlimit="1.5" stroke-linecap="round" stroke-linejoin="round"/>
<path fill-rule="evenodd" clip-rule="evenodd" d="M200.423 1638L57.8559 1523L-58.6884 1560.89L-232.301 1805.11L115.449 1856.15L212.988 1772.11L200.423 1638Z" fill="#2AB6E9" stroke="black" stroke-width="10.9644" stroke-miterlimit="1.5" stroke-linecap="round" stroke-linejoin="round"/>
<path fill-rule="evenodd" clip-rule="evenodd" d="M262.681 1531.56L208.05 1586.11L228.53 1460.15L189.493 1485.56L167.29 1553.02L124.093 1527.6L95.8092 1543.24L59.5982 1521L20.2852 1532.98C20.2852 1532.98 144.359 1636.33 149.23 1707.39C154.101 1778.45 117.024 1845.92 117.024 1845.92L169.748 1876.64L-4.72883 1887.88L-15.5278 1939.25C-15.5278 1939.25 117.66 1928.06 120.019 1948.86C122.378 1969.66 98.4922 2029.93 98.4922 2029.93L229.779 1881.82C311.774 1891.16 400.558 1877.66 496.301 1840.74L490.258 1801.61C415.205 1836.86 341.88 1853.11 271.55 1836.38L299.079 1814.14L474.634 1719.6L458.604 1681.84L380.849 1727.67L440.202 1650.54L316.493 1501.59L262.681 1531.56Z" fill="black" fill-opacity="0.3"/>
<path d="M1646.67 1625.46L1681.67 1601.29L1879.62 1887.83L1844.63 1912.01L1646.67 1625.46Z" fill="#777777" stroke="black" stroke-width="9.72709" stroke-miterlimit="1.5" stroke-linecap="round" stroke-linejoin="round"/>
<path fill-rule="evenodd" clip-rule="evenodd" d="M1553.65 1684.59L1589.13 1645.77C1642.13 1778.74 1730.31 1863.94 1859.94 1893.26L1824.46 1932.09C1711.07 1885.19 1621.77 1801.2 1553.65 1684.59Z" fill="#777777" stroke="black" stroke-width="11.102" stroke-miterlimit="1.5" stroke-linecap="round" stroke-linejoin="round"/>
<path fill-rule="evenodd" clip-rule="evenodd" d="M1973.07 1376.23L2013.34 1362.54C2069.85 1483.53 2061.63 1607.82 1992.67 1735.23L1954.64 1681.37C2020 1590.12 2015.68 1476.73 1973.07 1376.23Z" fill="#777777" stroke="black" stroke-width="9.72709" stroke-miterlimit="1.5" stroke-linecap="round" stroke-linejoin="round"/>
<path d="M2006.57 1463.69L2045.17 1462.1" stroke="black" stroke-width="13" stroke-miterlimit="1.5" stroke-linecap="round" stroke-linejoin="round"/>
<path d="M2008.65 1527.17L2047.25 1525.58" stroke="black" stroke-width="13" stroke-miterlimit="1.5" stroke-linecap="round" stroke-linejoin="round"/>
<path d="M1999.32 1598.43L2037.2 1606.02" stroke="black" stroke-width="13" stroke-miterlimit="1.5" stroke-linecap="round" stroke-linejoin="round"/>
<path d="M1980.27 1662.75L2013.28 1682.82" stroke="black" stroke-width="13" stroke-miterlimit="1.5" stroke-linecap="round" stroke-linejoin="round"/>
<path fill-rule="evenodd" clip-rule="evenodd" d="M1713.31 1503.16L1929.82 1405.76L2102.84 2311.21L1895.01 2270.19L1713.31 1503.16Z" fill="#8D8D8D" stroke="black" stroke-width="12" stroke-miterlimit="1.5" stroke-linecap="round" stroke-linejoin="round"/>
<path fill-rule="evenodd" clip-rule="evenodd" d="M1926.55 1540.09L1800.99 1873.31L1721.13 1506.31L1926.55 1540.09Z" fill="black" fill-opacity="0.3"/>
<path fill-rule="evenodd" clip-rule="evenodd" d="M2056.71 2067.08L2068.8 2161.39L1885.97 2018.08L1870.33 1936.36L1902.1 1991.71L2056.71 2067.08Z" fill="black" fill-opacity="0.3"/>
<path fill-rule="evenodd" clip-rule="evenodd" d="M1901.63 1705.26L2081.97 1671.89L2166.87 1781.08L2204.33 2138.03L1873.22 1982.01L1826.97 1836.48L1901.63 1705.26Z" fill="#777777" stroke="black" stroke-width="12" stroke-miterlimit="1.5" stroke-linecap="round" stroke-linejoin="round"/>
<path fill-rule="evenodd" clip-rule="evenodd" d="M1926.59 1714.03L2082.22 1683.02L2089.16 1697.41L1926.59 1714.03Z" fill="white"/>
<path fill-rule="evenodd" clip-rule="evenodd" d="M1961.58 1727.48L2142.17 1696.87L2225.31 1786.89L2257.36 2084.82L1929.05 1959.33L1885.05 1838.33L1961.58 1727.48Z" fill="#2AB6E9" stroke="black" stroke-width="10.9644" stroke-miterlimit="1.5" stroke-linecap="round" stroke-linejoin="round"/>
<path fill-rule="evenodd" clip-rule="evenodd" d="M1985.39 1735.54L2139.58 1708.59L2150.68 1720.15L1985.39 1735.54Z" fill="white"/>
<path fill-rule="evenodd" clip-rule="evenodd" d="M1934.54 1802.33L1977.52 1749.38L2135.27 1710.17L2180.71 1747.07L2000.31 1783.04L1934.54 1802.33Z" fill="#DED797" fill-opacity="0.3"/>
<path fill-rule="evenodd" clip-rule="evenodd" d="M1905.66 1730L1919.98 1713.98L2072.15 1685.88L2089.02 1696.1L1947.41 1722.28L1886.9 1770.01L1905.66 1730Z" fill="#DED797" fill-opacity="0.3"/>
<path fill-rule="evenodd" clip-rule="evenodd" d="M1971.94 1692.63L1929.85 1661.47L1906.76 1560.76L1940.92 1535.99L1959.82 1650.39L1971.94 1692.63Z" fill="#DED797" fill-opacity="0.3"/>
<path fill-rule="evenodd" clip-rule="evenodd" d="M2006.95 1621.9L2028.9 1592.83L2037.08 1493.66L2016.95 1467.44L2011.74 1580.41L2006.95 1621.9Z" fill="#DED797" fill-opacity="0.3"/>
<path fill-rule="evenodd" clip-rule="evenodd" d="M1903.56 1861.84C1946.24 1929.11 2240.05 2034.78 2241.04 2019.03L2198.76 2136.17L1898.49 1987.36L1859.29 1913.38C1859.29 1913.38 1889.29 1839.35 1903.56 1861.84Z" fill="black" fill-opacity="0.3"/>
</g>
<defs>
<clipPath id="clip0_605_312">
<rect width="2160" height="2700" fill="white"/>
</clipPath>
</defs>
</svg>
