<svg width="2160" height="2700" viewBox="0 0 2160 2700" fill="none" xmlns="http://www.w3.org/2000/svg">
<g clip-path="url(#clip0_626_2097)">
<path fill-rule="evenodd" clip-rule="evenodd" d="M626.15 1315.99C626.15 1315.99 293.316 1074.01 256.741 931.329C220.165 788.645 406.699 459.887 406.699 459.887C406.699 459.887 547.139 80.4343 454.067 69.7342C304.577 52.5484 -238.584 433.612 -238.584 433.612L-295.009 2106.08L73.7688 1536.51L147.806 1813.93L214.57 1585.86L279.537 1761.19L373.328 1565.5L386.513 1787.17L506.559 1564.24L558.526 1790.17L626.15 1315.99Z" fill="#808080" stroke="black" stroke-width="16.178" stroke-miterlimit="1.5" stroke-linecap="square" stroke-linejoin="round"/>
<path d="M256.439 463.347C317.154 437.852 348.586 374.825 326.645 322.57C304.703 270.316 237.697 248.623 176.982 274.118C116.266 299.612 84.834 362.64 106.776 414.894C128.717 467.148 195.724 488.841 256.439 463.347Z" fill="#636363" stroke="black" stroke-width="14" stroke-miterlimit="1.5" stroke-linecap="round" stroke-linejoin="round"/>
<path fill-rule="evenodd" clip-rule="evenodd" d="M575.006 1855.83L564.76 1875.43C561.977 1880.76 556.66 1884.28 550.674 1884.78C544.685 1885.27 538.861 1882.66 535.241 1877.87L269.903 1526.29L297.882 1505.17L308.44 1519.16L546.532 1834.64L550.992 1826.11L385.059 1597.61C379.561 1590.04 380.981 1579.48 388.285 1573.63L467.042 1510.55C471.483 1507 477.374 1505.82 482.842 1507.39C488.311 1508.96 492.675 1513.09 494.548 1518.47L625.282 1893.58C626.878 1898.15 626.511 1903.17 624.273 1907.45L572.45 2006.81C569.651 2012.18 564.274 2015.72 558.235 2016.18C552.195 2016.64 546.345 2013.94 542.767 2009.06L154.592 1478.7L182.877 1458L554.406 1965.61L589.69 1897.96L575.006 1855.83ZM537.274 1747.57L469.606 1553.41L423.245 1590.54L537.274 1747.57Z" fill="#636769" stroke="black" stroke-width="9.70679" stroke-miterlimit="2" stroke-linejoin="round"/>
<path fill-rule="evenodd" clip-rule="evenodd" d="M-91.7436 684.254L44.2883 678.322L-125.592 1173.7L92.1168 929.032C92.1168 929.032 -114.519 1339.75 -82.2032 1309.75C-49.8863 1279.75 58.8548 1191.16 58.8548 1191.16L29.5087 1512.71L125.008 1356.16L152.153 1592.43L228.769 1397.59L257.969 1624.32L349.894 1446.84" fill="#636363"/>
<path fill-rule="evenodd" clip-rule="evenodd" d="M-73.6118 1292.91C-61.8724 1282.62 -46.6285 1269.68 -30.7621 1256.38C9.86908 1222.33 54.5908 1185.93 54.5908 1185.93C56.6975 1184.21 59.6273 1183.92 62.0257 1185.2C64.4241 1186.48 65.8234 1189.07 65.5767 1191.77L38.7164 1484.91L119.445 1352.76C120.893 1350.39 123.691 1349.2 126.409 1349.79C129.127 1350.39 131.164 1352.65 131.482 1355.41L155.582 1566.36L222.995 1395.32C224.032 1392.69 226.721 1391.09 229.531 1391.44C232.342 1391.79 234.56 1393.99 234.922 1396.8L261.494 1604.47L344.685 1444.14L347.381 1438.93L357.798 1444.33L355.101 1449.53L263.313 1627.09C262.102 1629.43 259.514 1630.71 256.921 1630.25C254.331 1629.79 252.338 1627.7 252.002 1625.09L225.722 1422.35L158.077 1594.76C157.008 1597.48 154.225 1599.12 151.326 1598.74C148.429 1598.36 146.161 1596.06 145.828 1593.16L120.71 1375.74L35.1718 1516.17C33.5647 1518.8 30.3552 1519.98 27.4259 1519.01C24.4966 1518.04 22.6216 1515.18 22.9025 1512.11L50.6761 1206.57C34.5777 1219.76 5.33956 1243.81 -22.0415 1266.78C-44.6703 1285.77 -66.0287 1304.01 -77.5771 1314.73C-82.3379 1319.15 -86.5003 1318.2 -88.3262 1317.22C-89.9551 1316.34 -91.4907 1314.83 -92.1464 1312.17C-92.4767 1310.82 -92.5722 1308.51 -91.9064 1305.35C-90.6213 1299.24 -86.3176 1287.48 -79.7417 1271.76C-50.1913 1201.14 25.6652 1047.33 63.7065 970.938L-120.769 1177.99C-122.814 1180.29 -126.195 1180.83 -128.85 1179.27C-131.505 1177.72 -132.698 1174.51 -131.7 1171.6L35.7672 684.681L-91.4884 690.114L-97.3478 690.37L-97.8592 678.65L-91.9997 678.395L44.0267 672.339C46.0053 672.253 47.8988 673.15 49.0844 674.736C50.2706 676.322 50.5954 678.392 49.9533 680.265L-109.099 1145.42L87.1374 924.602C89.3617 922.103 93.0938 921.639 95.8613 923.519C98.6287 925.399 99.5738 929.039 98.0705 932.028C98.0705 932.028 -27.2023 1181.22 -67.2161 1277C-69.6991 1282.94 -71.8501 1288.28 -73.6118 1292.91Z" fill="black"/>
<path fill-rule="evenodd" clip-rule="evenodd" d="M10.4596 578.302L147.071 550.699L-89.75 918.398L112.892 756.112C112.892 756.112 -120.905 1081.88 -82.0676 1060.99C-43.2297 1040.11 84.3353 981.801 84.3353 981.801L-42.8964 1253.28L129.084 1095.23L54.6638 1454.49L210.44 1214.2L167.795 1451.18L301.502 1302.6" fill="#808080"/>
<path fill-rule="evenodd" clip-rule="evenodd" d="M-75.8833 1050.16C-61.3042 1042.7 -40.5279 1032.65 -18.8203 1022.35C29.073 999.614 81.5133 975.627 81.5133 975.627C84.1024 974.444 87.1551 975.001 89.1585 977.024C91.1624 979.047 91.6909 982.105 90.4824 984.683L-22.3256 1225.25L124.587 1090.34C126.712 1088.39 129.854 1088.03 132.363 1089.45C134.874 1090.88 136.178 1093.76 135.593 1096.58L67.9039 1422.32L205.23 1210.82C206.838 1208.33 209.974 1207.33 212.723 1208.42C215.473 1209.51 217.075 1212.38 216.551 1215.3L177.473 1431.46L297.143 1298.68L301.066 1294.31L309.785 1302.17L305.862 1306.52L172.266 1455.2C170.469 1457.2 167.564 1457.76 165.15 1456.58C162.736 1455.4 161.4 1452.76 161.876 1450.11L198.888 1243.47L60.0484 1457.98C58.3686 1460.57 55.0818 1461.6 52.2258 1460.42C49.3698 1459.25 47.7537 1456.21 48.3803 1453.19L118.405 1114.08L-38.3445 1258.23C-40.7108 1260.4 -44.2845 1260.6 -46.8756 1258.7C-49.4663 1256.8 -50.3512 1253.33 -48.9874 1250.42L70.3295 995.698C51.0324 1004.58 18.0444 1019.83 -13.0265 1034.56C-39.7185 1047.21 -64.9923 1059.47 -78.8757 1066.93C-83.1629 1069.23 -86.3763 1068.82 -88.2222 1068.03C-91.082 1066.8 -94.0905 1063.58 -92.8734 1057.2C-91.9 1052.1 -87.1766 1041.97 -79.4608 1028.46C-47.4273 972.375 36.5715 852.296 80.2693 790.603L-85.7621 923.378C-88.2028 925.333 -91.7005 925.23 -94.0226 923.136C-96.3447 921.042 -96.8068 917.573 -95.1135 914.944L134.347 559.369L11.6212 584.052L5.87211 585.213L3.54896 573.715L9.29807 572.554L145.885 544.828C148.245 544.351 150.661 545.334 152.019 547.322C153.376 549.311 153.411 551.919 152.108 553.944L-63.2445 888.963L108.789 750.991C111.349 748.941 115.029 749.095 117.407 751.352C119.787 753.608 120.134 757.275 118.223 759.939C118.223 759.939 -23.8619 958.117 -67.7706 1035.13C-71.0903 1040.96 -73.8497 1046.01 -75.8833 1050.16Z" fill="black"/>
<path d="M93.7991 1027.33C128.288 1027.33 156.247 1000.42 156.247 967.229C156.247 934.036 128.288 907.127 93.7991 907.127C59.3103 907.127 31.3516 934.036 31.3516 967.229C31.3516 1000.42 59.3103 1027.33 93.7991 1027.33Z" fill="#989CA0"/>
<path fill-rule="evenodd" clip-rule="evenodd" d="M93.7996 895.264C134.936 895.264 168.111 927.638 168.111 967.23C168.111 1006.82 134.936 1039.2 93.7996 1039.2C52.663 1039.2 19.4883 1006.82 19.4883 967.23C19.4883 927.638 52.663 895.264 93.7996 895.264ZM93.7996 907.127C59.3338 907.127 31.352 934.058 31.352 967.23C31.352 1000.4 59.3338 1027.33 93.7996 1027.33C128.265 1027.33 156.247 1000.4 156.247 967.23C156.247 934.058 128.265 907.127 93.7996 907.127Z" fill="#636769"/>
<path d="M152.455 935.049L196.357 919.572L194.123 855.332L243.277 850.531" stroke="black" stroke-width="11.3246" stroke-miterlimit="1.5" stroke-linecap="round" stroke-linejoin="round"/>
<path fill-rule="evenodd" clip-rule="evenodd" d="M239.248 798.29C189.282 823.211 392.12 404.055 459.769 99.8535C471.36 152.251 428.859 322.547 383.496 437.758L239.248 798.29Z" fill="white"/>
<path fill-rule="evenodd" clip-rule="evenodd" d="M229.108 865.59C231.406 958.075 283.86 1036.93 348.328 1088.41L282.863 1124.54L213.023 974.882L229.108 865.59Z" fill="white"/>
<path fill-rule="evenodd" clip-rule="evenodd" d="M306.016 1032.36L274.352 989.064C207.32 1015.58 173.161 1050.99 161.86 1124.24L187.347 1151.89C224.975 1074.5 245.983 1063.38 306.016 1032.36Z" fill="#8DCCB5" fill-opacity="0.5" stroke="black" stroke-width="11.3246" stroke-miterlimit="1.5" stroke-linecap="round" stroke-linejoin="round"/>
<path fill-rule="evenodd" clip-rule="evenodd" d="M1099.1 2240.61C1055.84 2471.86 1005.89 2643.72 924.653 2759.65C855.604 2608.94 889.572 2477.7 902.441 2340.84C870.267 2436.47 830.629 2527.5 774.246 2608.23C753.37 2521.24 748.443 2443.78 754.989 2373.17C733.931 2435.89 700.192 2494.87 651.784 2549.53C623.723 2460.42 614.331 2379.15 621.549 2304.87C598.618 2377 562.014 2443.65 516.436 2506.7L503.97 2285.23L331.353 2369.23C369.785 2204.4 463.727 2070.59 531.611 1934.85L1076.93 2157.2L1572.26 1915.72C1674.92 2022.47 1803.82 2128.93 1893.74 2345.09L1654.95 2229.38C1672.3 2286.67 1726.61 2400.32 1743.01 2486.57C1682.86 2434.44 1516.65 2361.19 1486.58 2297.54C1489.64 2369.21 1483.68 2497.29 1470.38 2572.13C1403.7 2494.49 1371.31 2404.81 1351.89 2310.59C1354.85 2454.41 1352.4 2598.51 1309.73 2744.72C1199.61 2573.99 1138.34 2462.7 1099.1 2240.61Z" fill="#8D8D8D" stroke="black" stroke-width="16.178" stroke-miterlimit="1.5" stroke-linecap="square" stroke-linejoin="round"/>
<path fill-rule="evenodd" clip-rule="evenodd" d="M1701.53 2067.76L1694.35 2077.89L1825.96 2241.15L1701.53 2067.76Z" fill="white"/>
<path fill-rule="evenodd" clip-rule="evenodd" d="M1240.81 2196.87C1239.19 2453.59 1155.52 2709.2 1094.03 2933.76C1012.65 2697.81 1003.81 2458.18 975.952 2213.71L868.439 2512.4L833.617 2185.92L670.014 2422.67L672.312 2184.77L545.587 2371.17L574.104 2149.64L472.011 2257.1L519.673 1974.82L704.867 1864.88L903.492 2052.75L1347.45 2044.35L1501.08 1811.39L1548.82 1891.87C1610.96 2042.51 1779.83 2288.06 1779.83 2288.06L1575.88 2118.94L1492.51 2092.46L1549.56 2335.91L1396.41 2160.31L1400.69 2446.43L1240.81 2196.87Z" fill="#808080" stroke="black" stroke-width="16.178" stroke-miterlimit="1.5" stroke-linecap="square" stroke-linejoin="round"/>
<path fill-rule="evenodd" clip-rule="evenodd" d="M1573.93 1199.67C1573.93 1199.67 1934.75 986.083 1971.33 843.402C2007.9 700.718 1592.15 276.626 1619.54 116.356C1646.93 -43.914 2468.8 314.951 2468.8 314.951L2495.09 1989.76L2126.31 1420.19L2052.28 1697.61L1985.51 1469.55L1920.55 1644.87L1826.75 1449.18L1813.57 1670.85L1693.52 1447.93L1641.56 1673.86L1573.93 1199.67Z" fill="#808080" stroke="black" stroke-width="16.178" stroke-miterlimit="1.5" stroke-linecap="square" stroke-linejoin="round"/>
<path fill-rule="evenodd" clip-rule="evenodd" d="M1712.96 350.221C1839.28 473.613 1939.44 618.189 2026.25 781.803C2007.21 845.809 1996.72 902.434 1933.99 928.982C1955.34 886.49 1979.87 847.276 1974.01 776.762C1903.23 626.169 1811.55 486.405 1712.96 350.221Z" fill="black" fill-opacity="0.3"/>
<path fill-rule="evenodd" clip-rule="evenodd" d="M1683.71 210.452C1683.71 210.452 1634.16 122.901 1655.6 106.135C1677.03 89.3688 1812.33 109.856 1812.33 109.856C1722.26 105.75 1661.54 124.833 1683.71 210.452Z" fill="white"/>
<path d="M1905.93 415.704C1971.78 415.704 2025.16 369.761 2025.16 313.088C2025.16 256.414 1971.78 210.471 1905.93 210.471C1840.08 210.471 1786.69 256.414 1786.69 313.088C1786.69 369.761 1840.08 415.704 1905.93 415.704Z" fill="#636363" stroke="black" stroke-width="14" stroke-miterlimit="1.5" stroke-linecap="round" stroke-linejoin="round"/>
<path fill-rule="evenodd" clip-rule="evenodd" d="M1614.03 1798.29L1626.03 1816.87C1629.3 1821.91 1634.92 1824.93 1640.92 1824.87C1646.93 1824.82 1652.49 1821.68 1655.65 1816.58L1887.49 1442.06L1857.69 1423.61L1848.46 1438.51L1640.43 1774.57L1635.2 1766.49L1779.39 1523.68C1784.17 1515.63 1781.78 1505.25 1773.97 1500.1L1689.74 1444.54C1684.99 1441.41 1679.02 1440.78 1673.72 1442.85C1668.42 1444.91 1664.45 1449.43 1663.08 1454.95L1567.44 1840.51C1566.27 1845.2 1567.1 1850.17 1569.72 1854.23L1630.47 1948.4C1633.76 1953.48 1639.44 1956.52 1645.49 1956.42C1651.55 1956.32 1657.12 1953.09 1660.24 1947.9L2062.74 1314.77L2032.67 1296.76L1644.65 1905.71L1603.29 1841.6L1614.03 1798.29ZM1641.63 1687.01L1691.13 1487.45L1740.72 1520.15L1641.63 1687.01Z" fill="#636769" stroke="black" stroke-width="9.70679" stroke-miterlimit="2" stroke-linejoin="round"/>
<path fill-rule="evenodd" clip-rule="evenodd" d="M2293.28 663.589L2159.17 640.075L2263.4 1153.29L2079.25 882.47C2079.25 882.47 2230.9 1316.51 2202.75 1282.57C2174.59 1248.63 2078.25 1146.7 2078.25 1146.7L2065.67 1469.34L1991.27 1301.73L1933.73 1532.49L1883.01 1329.36L1824.67 1550.4L1756.52 1362.49" fill="#636363"/>
<path fill-rule="evenodd" clip-rule="evenodd" d="M2196.41 1264.76C2195.26 1259.94 2193.82 1254.37 2192.13 1248.15C2164.87 1147.99 2072.95 884.668 2072.95 884.668C2071.85 881.51 2073.26 878.023 2076.25 876.518C2079.24 875.012 2082.88 875.956 2084.76 878.722L2250.72 1123.11L2153.3 641.267C2152.91 639.326 2153.5 637.316 2154.88 635.897C2156.26 634.478 2158.25 633.834 2160.2 634.176L2294.3 657.813L2300.07 658.825L2298.05 670.379L2292.27 669.366L2166.79 647.484L2269.73 1152.01C2270.34 1155.02 2268.75 1158.05 2265.91 1159.24C2263.08 1160.44 2259.79 1159.47 2258.06 1156.92C2258.06 1156.92 2153.64 1003.56 2101.98 927.706C2129.8 1008.38 2185.08 1170.73 2205.23 1244.58C2209.71 1261.02 2212.46 1273.24 2212.94 1279.46C2213.19 1282.69 2212.79 1284.97 2212.29 1286.25C2211.3 1288.81 2209.58 1290.11 2207.85 1290.77C2205.91 1291.51 2201.66 1291.91 2197.51 1286.91C2187.45 1274.78 2168.64 1253.93 2148.66 1232.17C2124.49 1205.84 2098.61 1178.21 2084.36 1163.04L2072.3 1469.6C2072.18 1472.68 2069.95 1475.28 2066.92 1475.86C2063.89 1476.44 2060.86 1474.85 2059.6 1472.03L1992.99 1321.7L1939.9 1534.03C1939.2 1536.86 1936.65 1538.85 1933.73 1538.85C1930.8 1538.86 1928.26 1536.86 1927.55 1534.03L1882.82 1354.31L1830.48 1551.93C1829.81 1554.48 1827.57 1556.29 1824.94 1556.41C1822.31 1556.53 1819.91 1554.92 1819.01 1552.45L1751.01 1364.49L1749.01 1358.98L1760.04 1354.97L1762.04 1360.49L1823.75 1530.25L1877.01 1327.78C1877.73 1325.04 1880.22 1323.14 1883.05 1323.16C1885.88 1323.18 1888.34 1325.12 1889.03 1327.86L1933.7 1506.2L1984.94 1300.15C1985.62 1297.45 1987.93 1295.48 1990.7 1295.23C1993.48 1294.99 1996.1 1296.54 1997.22 1299.08L2060.14 1440.58L2071.5 1146.43C2071.61 1143.72 2073.33 1141.33 2075.88 1140.38C2078.42 1139.42 2081.29 1140.08 2083.16 1142.06C2083.16 1142.06 2122.78 1183.95 2158.66 1222.99C2172.66 1238.23 2186.1 1253.04 2196.41 1264.76Z" fill="black"/>
<path fill-rule="evenodd" clip-rule="evenodd" d="M2205.68 545.283L2073.79 500.205L2260.96 895.499L2081.06 708.315C2081.06 708.315 2270.66 1061.64 2234.85 1035.9C2199.05 1010.15 2080.12 935.801 2080.12 935.801L2171.09 1221.48L2021.05 1042.48L2048.27 1408.35L1924.96 1149.89L1936.52 1390.4L1823.2 1225.75" fill="#808080"/>
<path fill-rule="evenodd" clip-rule="evenodd" d="M2230.13 1024.35C2228.65 1019.97 2226.57 1014.6 2224.03 1008.4C2190.48 926.342 2075.28 711.418 2075.28 711.418C2073.73 708.529 2074.55 704.938 2077.2 703.01C2079.85 701.08 2083.52 701.404 2085.79 703.768L2238.49 862.876L2068.38 502.769C2067.35 500.592 2067.72 498.01 2069.33 496.215C2070.93 494.419 2073.45 493.758 2075.73 494.536L2207.57 539.733L2213.12 541.63L2209.33 552.73L2203.78 550.833L2085.29 510.451L2266.72 892.769C2268.06 895.595 2267.15 898.975 2264.58 900.75C2262 902.526 2258.52 902.174 2256.36 899.919C2256.36 899.919 2160.82 800.649 2108.94 746.746C2144.27 813.58 2211.99 943.534 2236.49 1003.3C2242.39 1017.69 2245.76 1028.36 2246.06 1033.54C2246.44 1040.02 2243.04 1042.82 2240.04 1043.67C2238.11 1044.22 2234.87 1044.21 2230.92 1041.37C2218.12 1032.17 2194.65 1016.74 2169.82 1000.74C2140.92 982.105 2110.19 962.702 2092.21 951.396L2177.5 1219.43C2178.48 1222.5 2177.15 1225.82 2174.33 1227.37C2171.52 1228.92 2168 1228.26 2165.94 1225.8L2029.19 1062.55L2054.67 1407.87C2054.9 1410.95 2052.9 1413.76 2049.92 1414.55C2046.94 1415.34 2043.81 1413.9 2042.48 1411.11L1932.62 1180.41L1942.53 1390.11C1942.66 1392.79 1940.99 1395.24 1938.45 1396.1C1935.9 1396.96 1933.09 1396.02 1931.57 1393.81L1818.37 1229.07L1815.05 1224.24L1824.71 1217.59L1828.04 1222.42L1929.48 1369.59L1918.76 1150.19C1918.61 1147.23 1920.57 1144.59 1923.44 1143.87C1926.31 1143.14 1929.29 1144.54 1930.56 1147.22L2039.31 1374.73L2014.42 1042.97C2014.2 1040.09 2015.87 1037.41 2018.54 1036.32C2021.22 1035.23 2024.29 1035.99 2026.14 1038.2L2154.33 1191.02L2073.65 937.862C2072.79 935.149 2073.71 932.185 2075.96 930.439C2078.21 928.693 2081.31 928.536 2083.72 930.045C2083.72 930.045 2132.61 960.627 2177.15 989.375C2197.34 1002.41 2216.64 1015.06 2230.13 1024.35Z" fill="black"/>
<path d="M1976.69 774.038L2051.2 749.699L2057.49 802.579L2197.06 857.758" stroke="black" stroke-width="14" stroke-miterlimit="1.5" stroke-linecap="round" stroke-linejoin="round"/>
<path d="M2121.37 942.914C2155.86 942.914 2183.82 916.005 2183.82 882.811C2183.82 849.618 2155.86 822.709 2121.37 822.709C2086.88 822.709 2058.92 849.618 2058.92 882.811C2058.92 916.005 2086.88 942.914 2121.37 942.914Z" fill="#989CA0"/>
<path fill-rule="evenodd" clip-rule="evenodd" d="M2121.37 810.846C2162.51 810.846 2195.68 843.22 2195.68 882.812C2195.68 922.404 2162.51 954.778 2121.37 954.778C2080.23 954.778 2047.06 922.404 2047.06 882.812C2047.06 843.22 2080.23 810.846 2121.37 810.846ZM2121.37 822.709C2086.9 822.709 2058.92 849.64 2058.92 882.812C2058.92 915.983 2086.9 942.914 2121.37 942.914C2155.84 942.914 2183.82 915.983 2183.82 882.812C2183.82 849.64 2155.84 822.709 2121.37 822.709Z" fill="#636769"/>
<path fill-rule="evenodd" clip-rule="evenodd" d="M1865.83 986.525L1905.77 950.717C1965.87 990.52 1991.96 1032.24 1987.87 1106.24L1957.21 1128.01C1936.41 1044.52 1918.15 1029.3 1865.83 986.525Z" fill="#8DCCB5" fill-opacity="0.5" stroke="black" stroke-width="11.3246" stroke-miterlimit="1.5" stroke-linecap="round" stroke-linejoin="round"/>
<path fill-rule="evenodd" clip-rule="evenodd" d="M2230.22 1097.62L2201.87 870.625L2009.74 1155.42L2114.17 1167.56L2011.76 1356.89L1855.31 1487.59L1871.88 1548.8L1827.94 1665.32L1892.89 1582.05L1919.33 1626.64L1991.84 1470.51L2050.02 1646.37L2230.22 1097.62Z" fill="black" fill-opacity="0.3"/>
<path fill-rule="evenodd" clip-rule="evenodd" d="M778.476 1971.16L913.387 2048.09C913.387 2048.09 620.847 2570.5 571.868 2644.37C555.674 2668.8 441.09 2786.77 442.83 2766.51C444.922 2742.13 449.432 2655.36 482.605 2546.9C545.588 2340.99 655.895 2067.36 655.895 2067.36L778.476 1971.16Z" fill="#777777" stroke="black" stroke-width="17.0224" stroke-miterlimit="1.5" stroke-linecap="round" stroke-linejoin="round"/>
<path fill-rule="evenodd" clip-rule="evenodd" d="M579.983 1987.84L722.866 2081.94C722.866 2081.94 556.163 2281.38 515.134 2337.95C497.957 2361.64 394.016 2426.29 394.016 2426.29C394.016 2426.29 432.204 2247.02 464.77 2180.46C494.519 2119.66 579.983 1987.84 579.983 1987.84Z" fill="#777777" stroke="black" stroke-width="17.0224" stroke-miterlimit="1.5" stroke-linecap="round" stroke-linejoin="round"/>
<path fill-rule="evenodd" clip-rule="evenodd" d="M891.447 2022.29L1039.94 2065.3C1039.94 2065.3 819.917 2599.18 783.802 2680.51C754.504 2746.48 672.056 2835.24 669.478 2815.1C667.064 2796.25 649.688 2713.58 660.091 2646.22C692.807 2434.39 792.98 2097.27 792.98 2097.27L891.447 2022.29Z" fill="#777777" stroke="black" stroke-width="17.0212" stroke-miterlimit="1.5" stroke-linecap="round" stroke-linejoin="round"/>
<path fill-rule="evenodd" clip-rule="evenodd" d="M579.995 2158.84C580.764 2157.73 582.287 2157.46 583.393 2158.23C584.501 2159 584.775 2160.52 584.005 2161.63C584.005 2161.63 570.998 2182.98 553.761 2209.85C547.283 2219.95 540.214 2230.81 532.96 2241.55C530.121 2245.76 527.231 2249.93 524.311 2254.01C519.768 2260.35 515.201 2266.49 510.791 2272.31C491.497 2297.76 475.84 2317.26 475.84 2317.26C475.07 2318.36 473.547 2318.64 472.441 2317.87C471.333 2317.1 471.06 2315.58 471.829 2314.47C471.829 2314.47 484.645 2293 501.777 2266.04C505.693 2259.88 509.856 2253.46 514.217 2246.99C517.02 2242.83 519.924 2238.67 522.875 2234.54C530.419 2224 538.133 2213.59 545.338 2204C564.512 2178.48 579.995 2158.84 579.995 2158.84Z" fill="black"/>
<path fill-rule="evenodd" clip-rule="evenodd" d="M715.776 2226.18C716.525 2224.73 718.311 2224.16 719.762 2224.91C721.212 2225.66 721.781 2227.44 721.032 2228.9C721.032 2228.9 689.868 2292.53 652.21 2367.92C643.194 2385.97 633.785 2404.68 624.285 2423.32C617.985 2435.68 611.666 2448.02 605.34 2460.09C594.12 2481.49 583.051 2502.11 572.894 2520.92C544.539 2573.42 523.269 2611.66 523.269 2611.66C522.52 2613.11 520.735 2613.68 519.284 2612.93C517.834 2612.18 517.265 2610.4 518.014 2608.95C518.014 2608.95 536.902 2569.47 563.314 2515.97C572.775 2496.8 583.191 2475.84 594.153 2454.31C600.334 2442.17 606.743 2429.87 613.179 2417.58C622.887 2399.05 632.703 2380.55 642.208 2362.75C681.905 2288.42 715.776 2226.18 715.776 2226.18Z" fill="black"/>
<path fill-rule="evenodd" clip-rule="evenodd" d="M872.285 2180.72C872.75 2179.16 874.397 2178.27 875.963 2178.73C877.527 2179.19 878.42 2180.84 877.956 2182.41C877.956 2182.41 855.115 2264.7 827.312 2362.39C820.655 2385.78 813.691 2410.04 806.626 2434.25C801.941 2450.3 797.234 2466.33 792.482 2482.05C784.055 2509.93 775.674 2536.87 767.968 2561.45C746.459 2630.06 730.166 2680.23 730.166 2680.23C729.701 2681.8 728.053 2682.69 726.488 2682.23C724.924 2681.76 724.031 2680.11 724.495 2678.55C724.495 2678.55 738.218 2627.61 757.631 2558.38C764.586 2533.58 772.261 2506.43 780.411 2478.47C785.005 2462.7 789.809 2446.7 794.642 2430.69C801.931 2406.55 809.336 2382.41 816.52 2359.18C846.521 2262.15 872.285 2180.72 872.285 2180.72Z" fill="black"/>
<path fill-rule="evenodd" clip-rule="evenodd" d="M1370.27 2012.02L1259.41 2122.31C1259.41 2122.31 1630.24 2543.24 1696.19 2601.51C1718 2620.78 1848.78 2704.79 1841.58 2685.9C1831.52 2659.53 1803.3 2560.18 1740.32 2447.05C1644.04 2274.08 1502.5 2071.82 1502.5 2071.82L1370.27 2012.02Z" fill="#777777" stroke="black" stroke-width="17.0226" stroke-miterlimit="1.5" stroke-linecap="round" stroke-linejoin="round"/>
<path fill-rule="evenodd" clip-rule="evenodd" d="M1598.99 2009.5L1451.95 2104.17C1451.95 2104.17 1664.08 2267.56 1717.99 2311.25C1740.56 2329.53 1827.3 2366.8 1827.3 2366.8C1827.3 2366.8 1751.06 2223.3 1715.51 2161.2C1685.78 2109.29 1598.99 2009.5 1598.99 2009.5Z" fill="#777777" stroke="black" stroke-width="17.0226" stroke-miterlimit="1.5" stroke-linecap="round" stroke-linejoin="round"/>
<path fill-rule="evenodd" clip-rule="evenodd" d="M1432.79 2450.21L1423.43 2563.17L1351.81 2485.4L1272.32 2656.5L1202.31 2535.13L1065.59 2757.26L1024.97 2592.89L942.362 2719.49L913.348 2744.47L873.489 2533.84L844.517 2507.17L716.906 2739.55L645.839 2751.77L687.81 2505.03L636.461 2519.65L448.437 2767.51L531.597 2398.82L509.055 2340.63L394.826 2399.34L414.008 2306.28L337.869 2327L533.694 1923.68L505.921 1813.49L348.217 1622.6L289.82 1748.57L211.72 1576.13L156.126 1814.63L94.5291 1581.29L-46.8645 1681.53L-94.375 962.813C-19.5817 947.596 70.8068 979.199 14.8276 1040.28C-16.8366 1074.82 79.4869 1117.14 132.566 1099.07C230.288 1065.81 300.576 1201 387.241 1228.49L778.3 2066.92L1432.79 2450.21Z" fill="black" fill-opacity="0.3"/>
<path fill-rule="evenodd" clip-rule="evenodd" d="M1657.41 2110.1L1652.26 2119.74C1701.19 2173.55 1727.18 2223.59 1762.58 2283.93C1732.27 2219.19 1706.99 2166.16 1657.41 2110.1Z" fill="white"/>
<path fill-rule="evenodd" clip-rule="evenodd" d="M1591.4 2242.35L1647.55 2342.49C1689.34 2399.67 1727.46 2477.74 1762.86 2538.08C1732.55 2473.34 1640.98 2298.41 1591.4 2242.35Z" fill="white"/>
<path fill-rule="evenodd" clip-rule="evenodd" d="M1274.08 2091.54L1141.53 2172.69C1131.59 2176.66 1390.29 2549.37 1482.66 2647.55C1529.9 2697.77 1655.6 2821.46 1653.01 2801.33C1648.93 2769.68 1620.77 2658.07 1569.58 2532.56C1494.39 2348.21 1388.11 2137.67 1388.11 2137.67L1274.08 2091.54Z" fill="#777777" stroke="black" stroke-width="17.0218" stroke-miterlimit="1.5" stroke-linecap="round" stroke-linejoin="round"/>
<path fill-rule="evenodd" clip-rule="evenodd" d="M1476.4 2376.58L1518.74 2483.3C1552.55 2545.53 1579.95 2627.97 1607.01 2692.49C1585.58 2624.29 1518.09 2438.74 1476.4 2376.58Z" fill="white"/>
<path fill-rule="evenodd" clip-rule="evenodd" d="M1309.97 2214.84C1309.17 2213.43 1309.67 2211.64 1311.08 2210.85C1312.48 2210.05 1314.28 2210.54 1315.07 2211.95C1315.07 2211.95 1355.67 2280.55 1403.38 2362.47C1414.81 2382.08 1426.62 2402.47 1438.33 2422.89C1446.08 2436.44 1453.81 2449.98 1461.31 2463.35C1474.57 2487.08 1487.24 2510.16 1498.75 2531.27C1530.89 2590.2 1554 2633.67 1554 2633.67C1554.8 2635.08 1554.3 2636.87 1552.89 2637.67C1551.48 2638.47 1549.69 2637.97 1548.9 2636.56C1548.9 2636.56 1523.48 2594.39 1489.46 2536.54C1477.27 2515.81 1463.98 2493.08 1450.45 2469.5C1442.82 2456.21 1435.17 2442.61 1427.55 2429C1416.06 2408.46 1404.63 2387.85 1393.68 2367.96C1347.94 2284.93 1309.97 2214.84 1309.97 2214.84Z" fill="black"/>
<path fill-rule="evenodd" clip-rule="evenodd" d="M1479.01 2225.52C1478.04 2224.23 1478.3 2222.39 1479.6 2221.42C1480.9 2220.45 1482.73 2220.72 1483.7 2222.01C1483.7 2222.01 1527.64 2278.13 1579.39 2345.27C1591.78 2361.34 1604.6 2378.06 1617.31 2394.84C1625.74 2405.96 1634.15 2417.09 1642.3 2428.1C1656.76 2447.64 1670.6 2466.69 1683.18 2484.12C1718.31 2532.79 1743.64 2568.8 1743.64 2568.8C1744.61 2570.09 1744.34 2571.93 1743.05 2572.9C1741.75 2573.87 1739.91 2573.61 1738.94 2572.31C1738.94 2572.31 1711.49 2537.9 1674.64 2490.53C1661.43 2473.56 1647.01 2454.95 1632.33 2435.58C1624.04 2424.66 1615.72 2413.47 1607.41 2402.26C1594.88 2385.35 1582.42 2368.36 1570.47 2351.95C1520.54 2283.45 1479.01 2225.52 1479.01 2225.52Z" fill="black"/>
<path fill-rule="evenodd" clip-rule="evenodd" d="M1600.56 2145.23C1599.44 2144.06 1599.47 2142.21 1600.64 2141.08C1601.8 2139.96 1603.66 2139.99 1604.78 2141.16C1604.78 2141.16 1629.68 2164.81 1658.87 2193.43C1665.86 2200.28 1673.05 2207.43 1680.19 2214.65C1684.9 2219.44 1689.61 2224.24 1694.13 2229.05C1702.16 2237.58 1709.77 2246 1716.67 2253.72C1735.99 2275.31 1749.73 2291.47 1749.73 2291.47C1750.86 2292.63 1750.82 2294.49 1749.66 2295.61C1748.49 2296.73 1746.63 2296.7 1745.52 2295.53C1745.52 2295.53 1729.86 2281.22 1708.99 2261.13C1701.52 2253.95 1693.38 2246.04 1685.15 2237.71C1680.51 2233.01 1675.88 2228.14 1671.27 2223.25C1664.31 2215.86 1657.43 2208.4 1650.84 2201.17C1623.3 2170.97 1600.56 2145.23 1600.56 2145.23Z" fill="black"/>
</g>
<defs>
<clipPath id="clip0_626_2097">
<rect width="2160" height="2700" fill="white"/>
</clipPath>
</defs>
</svg>
