<svg width="2160" height="2700" viewBox="0 0 2160 2700" fill="none" xmlns="http://www.w3.org/2000/svg">
<g clip-path="url(#clip0_917_3)">
<path fill-rule="evenodd" clip-rule="evenodd" d="M1216.44 722.55L1907.05 299.087C1907.05 299.087 2608.98 1128.77 2630.52 1363.59C2647.86 1552.66 2298.11 1744.42 2104.8 1660.9C1866.5 1557.97 1216.44 722.55 1216.44 722.55Z" fill="#808080"/>
<path fill-rule="evenodd" clip-rule="evenodd" d="M1214.09 718.726L1902.89 292.298C1906.24 290.242 1910.6 290.941 1913.14 293.943C1913.14 293.943 2251.08 690.435 2466.16 1012.95C2563.12 1158.35 2634.67 1289.26 2641.47 1362.59C2645.65 1408.63 2629.58 1454.93 2599.31 1497.64C2562.56 1549.49 2504.85 1596.18 2438.93 1630.62C2328.92 1688.1 2196.25 1711.21 2100.97 1669.76C2028.82 1638.3 1919.11 1540.33 1801.36 1418.13C1529.46 1135.96 1212.89 725.308 1212.89 725.308C1212.11 724.299 1211.79 723.007 1212.02 721.749C1212.25 720.494 1213 719.395 1214.09 718.726ZM1223.09 723.757C1256.7 766.329 1555.5 1143.01 1813.32 1406.52C1929.81 1525.58 2037.6 1621.66 2108.62 1652.05C2199.28 1690.94 2324.94 1667.01 2429.14 1611.98C2491.75 1578.92 2546.67 1534.51 2581.52 1485.06C2608.45 1446.86 2623.38 1405.71 2619.58 1364.6C2613.1 1293.24 2542.23 1166.54 2448.44 1024.71C2249.42 723.77 1945.21 357.217 1905.34 309.449L1223.09 723.757Z" fill="white"/>
<path fill-rule="evenodd" clip-rule="evenodd" d="M1672.23 973.089C1839.21 976.31 1722.57 1088.68 1796.02 1106.5C1894.34 1130.34 2032.76 1066.58 2122.99 951.475C2122.99 951.475 2013.77 1072.65 2057.45 1171.31C2100.2 1267.83 2150.78 1321.22 2201.47 1365.48C2291.42 1444.02 2270.72 1501.97 2270.72 1501.97L2213.33 1811.15L1784.83 1735.88L2058.57 1707.39L1880.52 1525.31L1821.29 1520.78L1608.45 1460.21C1501.32 1334.25 1313.29 1147.36 1194.91 1066.72C1267.79 1016.26 1315.88 1000.91 1417.81 999.596L1672.23 973.089Z" fill="black" fill-opacity="0.4"/>
<path d="M1622.38 784.707C1630.8 702.708 1702.83 642.931 1783.27 651.191C1863.7 659.451 1922.08 732.619 1913.66 814.618C1905.24 896.617 1833.21 956.394 1752.77 948.134C1672.34 939.874 1613.96 866.705 1622.38 784.707Z" fill="#808080"/>
<path fill-rule="evenodd" clip-rule="evenodd" d="M1918.4 815.106C1914.92 857.529 1894.83 894.525 1865.34 920.226C1835 946.675 1794.65 960.97 1751.83 957.366C1708.51 953.526 1670.86 931.959 1645.29 900.253C1619.91 868.79 1606.59 827.31 1610.8 783.519C1615.57 739.782 1637.03 701.869 1668.28 676.216C1699.77 650.365 1741.02 636.895 1784.22 641.942C1826.88 647.111 1863.5 669.309 1887.83 701.382C1911.48 732.544 1923.62 772.859 1918.4 815.106ZM1908.93 814.134C1912.13 774.94 1899.53 738.185 1876.57 710.275C1853.75 682.518 1820.54 663.663 1782.32 660.443C1744.63 657.102 1709.23 669.91 1682.3 692.946C1655.86 715.562 1637.59 748.206 1633.96 785.897C1629.85 823.542 1641.09 859.221 1662.38 886.743C1684.08 914.779 1716.14 934.516 1753.72 938.904C1791.81 943.524 1828.17 931.81 1856.16 909.268C1884.31 886.601 1904.11 853.163 1908.93 814.134Z" fill="black"/>
<path d="M1699.02 787.893C1703.43 744.97 1739.33 713.493 1779.2 717.587C1819.07 721.682 1847.82 759.797 1843.41 802.72C1839 845.643 1803.11 877.12 1763.24 873.026C1723.36 868.931 1694.61 830.816 1699.02 787.893Z" fill="black"/>
<path fill-rule="evenodd" clip-rule="evenodd" d="M1848.15 803.206C1846.74 825.789 1836.93 845.645 1822.46 859.856C1806.67 875.36 1785.16 883.775 1762.29 882.255C1738.9 880.496 1718.56 868.344 1704.89 850.297C1691.92 833.163 1685.29 810.577 1687.44 786.702C1690.18 762.886 1701.26 742.114 1717.44 727.969C1734.49 713.069 1756.88 705.304 1780.15 708.336C1802.86 711.496 1822.21 724.106 1834.52 742.502C1845.81 759.364 1851.37 780.805 1848.15 803.206ZM1838.67 802.233C1839.88 782.747 1833.73 764.688 1822.92 750.931C1812.1 737.179 1796.33 728.041 1778.25 726.839C1760.71 725.519 1744.45 732.452 1732.12 744.116C1720.33 755.282 1712.23 771.033 1710.6 789.081C1708.52 807.085 1713.24 824.157 1722.53 837.493C1732.22 851.425 1746.74 861.52 1764.18 863.794C1782.14 866.294 1799.45 860.552 1812.83 849.28C1826.22 838.004 1835.9 821.56 1838.67 802.233Z" fill="black"/>
<path fill-rule="evenodd" clip-rule="evenodd" d="M1808.69 1327.98C1780.48 1329.56 1753.92 1320.97 1734.98 1306.57C1719.16 1294.54 1708.88 1278.27 1706.33 1260.38C1703.77 1241.56 1710.34 1223.88 1723.36 1209.9C1738.98 1193.13 1764.37 1182.01 1794.1 1181.07C1818.16 1180.9 1840.89 1187.44 1858.62 1198.73C1880.23 1212.49 1894.54 1232.88 1896.4 1255.25C1897.78 1273.73 1890.83 1290.7 1877.39 1303.62C1861.61 1318.77 1837.08 1328.52 1808.69 1327.98ZM1808.52 1318.9C1828.85 1317.73 1846.55 1310.98 1859.41 1300.79C1873.5 1289.63 1881.37 1274.06 1878.95 1257.15C1876.68 1240.38 1864.48 1226.2 1847.81 1216.45C1832.92 1207.74 1814.25 1202.68 1794.51 1203.28C1775.31 1203.41 1758.29 1208.83 1745.66 1217.75C1731.53 1227.74 1722.78 1242.05 1724.15 1258.44C1725.44 1275.74 1736.76 1291.23 1753.28 1302.14C1768.42 1312.15 1787.75 1318.49 1808.52 1318.9Z" fill="black"/>
<path fill-rule="evenodd" clip-rule="evenodd" d="M1974.97 1501.88C1954.55 1507.88 1933.57 1507.46 1915.55 1502.16C1893.26 1495.6 1875.8 1481.22 1868.09 1462.32C1860.03 1442.05 1864.69 1420.45 1878.81 1402.89C1890.02 1388.94 1907.55 1377.78 1929.15 1372.09C1950.8 1366.97 1972.76 1368.21 1991.25 1374.86C2013.54 1382.88 2030.79 1398.3 2037.4 1418.04C2042.74 1434.44 2040.35 1451.18 2031.23 1465.61C2020.48 1482.61 2000.63 1496.56 1974.97 1501.88ZM1972.78 1493.14C1990.56 1487.9 2004.72 1478.19 2013.8 1466.44C2023.62 1453.72 2026.98 1438.41 2021.1 1424.01C2015.37 1409.65 2001.48 1399.61 1984.69 1394.34C1969.55 1389.59 1951.86 1388.87 1934.49 1393.45C1917.61 1397.45 1903.81 1405.69 1894.68 1416.17C1884.58 1427.77 1880.06 1442.08 1884.8 1456.19C1889.72 1471.28 1903.02 1482.78 1919.91 1489.2C1935.58 1495.16 1954.19 1497 1972.78 1493.14Z" fill="black"/>
<path fill-rule="evenodd" clip-rule="evenodd" d="M2104.34 1641.34C2081.66 1644.69 2059.7 1640.19 2043.36 1630.75C2029 1622.46 2019.19 1610.12 2015.88 1595.91C2012.49 1580.83 2017.1 1565.95 2027.62 1553.69C2039.49 1539.84 2059.42 1529.62 2083.38 1526.76C2107.17 1524.64 2129.93 1530.26 2146.31 1541.14C2160.38 1550.48 2169.91 1563.46 2172.3 1578.13C2174.59 1592.98 2169.65 1607.25 2158.7 1618.51C2146.58 1630.97 2127.29 1639.92 2104.34 1641.34ZM2103.49 1633.17C2119.65 1630.77 2133.39 1624.39 2143.2 1615.81C2154.05 1606.31 2159.69 1593.89 2156.7 1581.15C2153.87 1568.52 2142.96 1558.8 2128.83 1552.69C2116.35 1547.3 2101.17 1544.89 2085.47 1546.74C2070.19 1548.15 2056.9 1553.29 2047.21 1560.77C2036.29 1569.19 2029.76 1580.48 2031.79 1592.82C2033.83 1606 2044.06 1617.02 2058.19 1624.19C2070.99 1630.68 2086.83 1634.19 2103.49 1633.17Z" fill="black"/>
<path d="M1798.36 1194.03C1840.56 1193.25 1877.29 1215.66 1880.39 1244.1C1883.49 1272.54 1851.78 1296.23 1809.58 1297.02C1767.37 1297.8 1730.64 1275.39 1727.55 1246.95C1724.45 1218.51 1756.15 1194.82 1798.36 1194.03Z" fill="#FFF2E9"/>
<path fill-rule="evenodd" clip-rule="evenodd" d="M1809.66 1301.58C1785.37 1303.12 1762.57 1297.04 1745.98 1286.57C1730.6 1276.85 1720.84 1263.05 1718.59 1247.92C1716.31 1231.74 1723.14 1216.41 1736.51 1204.56C1750.65 1192.02 1772.67 1183.73 1798.15 1182.86C1823.49 1182.81 1847.02 1190.17 1863.53 1202.2C1878.53 1213.12 1887.96 1227.59 1889.16 1243.14C1890.24 1258.97 1883.18 1273.55 1869.47 1284.18C1855.22 1295.23 1833.98 1302.22 1809.66 1301.58ZM1809.49 1292.45C1826.75 1291.34 1841.89 1286.18 1853.23 1278.59C1866 1270.03 1873.57 1258.11 1871.61 1245.05C1869.8 1232.1 1858.75 1221.64 1844.02 1214.45C1831.21 1208.2 1815.35 1204.64 1798.57 1205.19C1782.29 1205.27 1767.72 1209.14 1756.61 1215.59C1743.94 1222.93 1735.51 1233.43 1736.5 1245.97C1737.42 1259.43 1747.62 1271.33 1762.3 1279.72C1775.36 1287.17 1791.78 1291.98 1809.49 1292.45Z" fill="#FF4500"/>
<path d="M1936.33 1382.96C1974.74 1373.35 2012.97 1384.95 2021.74 1408.86C2030.5 1432.76 2006.47 1459.94 1968.07 1469.54C1929.67 1479.15 1891.43 1467.56 1882.67 1443.65C1873.9 1419.74 1897.93 1392.57 1936.33 1382.96Z" fill="#FFF2E9"/>
<path fill-rule="evenodd" clip-rule="evenodd" d="M1969.07 1473.56C1947.57 1479.96 1925.86 1479.68 1908.73 1474.38C1892.29 1469.31 1880.24 1459.26 1874.98 1446.46C1869.4 1432.59 1872.64 1417.44 1882.93 1404.05C1893.27 1390.6 1911.31 1379.14 1933.87 1373.13C1956.55 1367.84 1979.12 1369.12 1996.51 1375.76C2012.88 1382.01 2024.8 1392.72 2029.24 1406.1C2033.68 1419.9 2030.12 1434.42 2019.32 1446.71C2008.62 1458.91 1990.97 1469.1 1969.07 1473.56ZM1967.06 1465.52C1982.38 1460.95 1995.02 1453.43 2003.84 1444.63C2013.99 1434.49 2018.74 1422.55 2014.23 1411.61C2009.83 1400.65 1997.33 1394.04 1982.11 1391.02C1969.11 1388.44 1953.95 1388.77 1938.79 1392.79C1924.08 1396.26 1911.67 1402.56 1902.82 1410.33C1892.56 1419.33 1886.79 1430.15 1890.36 1440.83C1894.08 1452.39 1906.17 1460.48 1921.6 1464.58C1935.05 1468.16 1950.93 1468.8 1967.06 1465.52Z" fill="#FF4500"/>
<path d="M2089.79 1537.56C2120.67 1534.33 2149.08 1549.09 2153.24 1570.53C2157.4 1591.96 2135.73 1611.96 2104.84 1615.2C2073.96 1618.43 2045.55 1603.67 2041.39 1582.24C2037.23 1560.8 2058.9 1540.8 2089.79 1537.56Z" fill="#FFF2E9"/>
<path fill-rule="evenodd" clip-rule="evenodd" d="M2105.18 1618.41C2087.32 1621.04 2070.05 1617.71 2057.17 1610.6C2045.59 1604.2 2037.73 1594.56 2035.14 1583.45C2032.48 1571.63 2036.32 1559.93 2044.95 1550.32C2054.44 1539.76 2070.15 1531.96 2088.96 1529.71C2107.69 1528.05 2125.57 1532.25 2138.48 1540.48C2149.84 1547.72 2157.49 1557.86 2159.37 1569.34C2161.17 1580.98 2157.09 1592.18 2148.13 1600.98C2138.45 1610.47 2123.23 1617.29 2105.18 1618.41ZM2104.51 1611.99C2117.26 1610.09 2128.15 1605.18 2135.99 1598.6C2144.77 1591.23 2149.43 1581.6 2147.12 1571.71C2144.92 1561.91 2136.19 1554.46 2124.91 1549.8C2115.03 1545.73 2103.03 1543.95 2090.61 1545.41C2078.52 1546.52 2067.97 1550.48 2060.22 1556.21C2051.41 1562.73 2046.06 1571.45 2047.64 1581.02C2049.22 1591.24 2057.43 1599.74 2068.73 1605.23C2078.86 1610.16 2091.35 1612.8 2104.51 1611.99Z" fill="#FF4500"/>
<path fill-rule="evenodd" clip-rule="evenodd" d="M2143.66 1247.08C2125.38 1260.84 2103.72 1268.02 2083.06 1268.87C2058.7 1269.87 2035.9 1261.7 2020.64 1245.58C2004.54 1228.31 2000.15 1205.34 2006.26 1182.94C2011.4 1164.15 2024.33 1145.85 2043.94 1131.86C2063.72 1118.45 2086.63 1111.69 2108.22 1111.98C2133.03 1112.3 2155.94 1121.55 2170.48 1138.83C2185.12 1156.51 2188.68 1178.88 2181.56 1200.29C2175.73 1217.84 2162.92 1234.75 2143.66 1247.08ZM2138.55 1239.74C2154.54 1227.69 2164.79 1212.24 2168.78 1196.55C2173.01 1179.87 2169.64 1162.96 2157.59 1150.26C2145.68 1137.5 2127.5 1131.92 2108.34 1132.39C2090.77 1132.82 2072.27 1138.53 2056.44 1149.82C2040.93 1160.35 2030.52 1174.25 2026 1188.72C2021.06 1204.51 2023.05 1220.97 2033.89 1233.83C2045.28 1247.57 2063.39 1254.69 2082.99 1255.28C2101.5 1255.82 2121.3 1250.81 2138.55 1239.74Z" fill="black"/>
<path fill-rule="evenodd" clip-rule="evenodd" d="M2275.89 1422.09C2261.31 1437.28 2242.55 1446.8 2223.73 1450.32C2201.82 1454.43 2179.94 1449.99 2163.57 1437.39C2146.28 1423.81 2138.67 1403.5 2140.57 1382.28C2142.2 1364.11 2151.22 1345.29 2167.14 1329.6C2183.27 1314.5 2203.36 1305.18 2223.29 1302.65C2245.83 1299.79 2267.98 1305.27 2283.8 1319.16C2299.7 1333.38 2306.4 1353.24 2303.35 1373.68C2300.8 1390.72 2291.7 1408.11 2275.89 1422.09ZM2269.68 1415.62C2282.25 1402.49 2289.03 1387.03 2290.06 1372.23C2291.14 1356.79 2285.43 1342.19 2272.76 1332.45C2260.23 1322.63 2243.23 1320.03 2226.28 1322.89C2210.57 1325.54 2194.8 1333.11 2182.34 1345.41C2170.02 1356.95 2162.83 1370.87 2161.06 1384.53C2159.15 1399.24 2163.39 1413.63 2174.91 1423.73C2187.08 1434.6 2204.22 1438.75 2221.74 1436.85C2238.57 1435.03 2255.74 1427.95 2269.68 1415.62Z" fill="black"/>
<path d="M2053.18 1144.2C2087.75 1120.15 2131.28 1118.14 2150.41 1139.73C2169.54 1161.31 2157.02 1198.3 2122.45 1222.36C2087.88 1246.41 2044.35 1248.41 2025.22 1226.83C2006.09 1205.25 2018.6 1168.25 2053.18 1144.2Z" fill="#FFF2E9"/>
<path fill-rule="evenodd" clip-rule="evenodd" d="M2125 1226.03C2105.66 1240.79 2083.12 1248.46 2063.23 1249.02C2045.03 1249.53 2029.11 1243.71 2018.58 1232.71C2007.29 1220.74 2004.1 1204.43 2008.28 1187.33C2012.73 1169.17 2026.19 1150.09 2046.91 1135.21C2067.91 1121.1 2091.74 1114.09 2112.43 1114.85C2130.94 1115.52 2146.94 1122.09 2156.86 1134C2166.96 1146.35 2169.56 1162.17 2164.44 1178.45C2159.1 1195.45 2145.57 1213.03 2125 1226.03ZM2119.89 1218.68C2133.6 1208.2 2143.2 1195.59 2148.21 1183.09C2153.85 1169 2153.16 1155.05 2143.95 1145.45C2134.83 1135.77 2119.48 1133.23 2102.94 1135.48C2088.55 1137.44 2073.17 1143.35 2059.43 1153.19C2045.98 1162.28 2036.16 1173.51 2030.71 1184.95C2024.51 1197.97 2023.74 1211.24 2031.85 1220.95C2040.51 1231.53 2055.95 1235.7 2073.07 1234.47C2088.32 1233.38 2104.85 1228.19 2119.89 1218.68Z" fill="#FF4500"/>
<path d="M2180.15 1340.95C2208.01 1314.18 2246.7 1305.85 2266.57 1322.34C2286.44 1338.82 2279.96 1373.89 2252.1 1400.65C2224.24 1427.42 2185.54 1435.75 2165.67 1419.26C2145.8 1402.78 2152.28 1367.72 2180.15 1340.95Z" fill="black"/>
<path fill-rule="evenodd" clip-rule="evenodd" d="M1731.6 1096.57L1537.75 1174.52L1198.37 681.448L1894.55 258.01L2262.66 692.376L2083.84 858.218L1800.89 648.349C1697.4 634.167 1638.35 677.612 1615.03 767.418L1731.6 1096.57Z" fill="#2AB6E9"/>
<path fill-rule="evenodd" clip-rule="evenodd" d="M1733.37 1100.99L1667.07 1128.09L1539.97 1180.06C1537.38 1181.1 1534.41 1180.21 1532.82 1177.9L1190.85 686.627C1189.43 684.557 1188.92 681.993 1189.44 679.535C1189.97 677.079 1191.48 674.947 1193.63 673.642C1193.63 673.642 1416.87 536.451 1610.38 418.006C1758.11 327.583 1888.53 248.121 1888.53 248.121C1893.4 245.16 1899.7 246.181 1903.39 250.529L2270.81 685.475C2274.49 689.83 2274.11 696.312 2269.92 700.198L2090.44 865.343C2087.02 868.526 2081.8 868.812 2078.04 866.023C2078.04 866.023 1820.71 673.287 1797.7 656.07C1750.97 649.724 1713.71 655.595 1685.12 673.067C1654.45 691.813 1633.95 723.757 1622.08 767.165L1736.08 1094.98C1736.93 1097.39 1735.74 1100.03 1733.37 1100.99ZM1725.56 1093.84L1608.66 769.671C1608.21 768.4 1608.16 767.025 1608.5 765.722C1620.84 717.099 1643.55 681.594 1677.32 660.449C1708.72 640.785 1749.91 633.491 1801.98 640.338C1803.33 640.524 1804.61 641.043 1805.71 641.854L2083.09 845.608L2247.94 691.528L1892.12 273.029C1860.97 291.933 1747.77 360.622 1621.79 436.768C1449.57 540.854 1253.5 658.927 1211.36 684.292L1539.99 1167.2L1663.21 1118.49L1725.56 1093.84Z" fill="white"/>
<path fill-rule="evenodd" clip-rule="evenodd" d="M1875.01 281.859L1849.03 303.223C1849.03 303.223 1982.88 403.957 1970.43 482.024C1958.34 557.771 2090.83 660.79 2090.83 660.79L2136.46 673.153L2142.26 728.957L2196.62 686.736L1875.01 281.859Z" fill="white" fill-opacity="0.5"/>
<path fill-rule="evenodd" clip-rule="evenodd" d="M1514.94 1145.14L1690.8 1060.84L1615.73 774.807C1636.62 673.321 1706.57 636.323 1809.93 643.245L2065.2 813.916L2251.03 678.668L2288.83 705.501L2090.46 855.84L1804.27 653.318C1699.82 644.357 1625.29 700.237 1621.05 794.551L1736.38 1095.82L1547.38 1184.03L1514.94 1145.14Z" fill="#007199"/>
<path fill-rule="evenodd" clip-rule="evenodd" d="M1614.71 802.043L1612.99 797.637C1612.57 796.53 1612.38 795.348 1612.43 794.164C1612.44 793.994 1612.45 793.824 1612.45 793.656L1607.93 776.856C1607.61 775.654 1607.58 774.396 1607.82 773.18C1618.67 718.818 1643.28 682.099 1678.83 659.812C1712.94 638.423 1757.49 630.402 1810.57 633.668C1812.25 633.779 1813.87 634.332 1815.27 635.263L2064.89 800.562L2244.25 669.346C2248.25 666.432 2253.67 666.404 2257.71 669.269L2295.54 696.057C2298.55 698.192 2300.36 701.635 2300.42 705.319C2300.47 709.01 2298.77 712.506 2295.83 714.729L2097.35 864.939C2093.38 867.946 2087.92 868.035 2083.86 865.159C2083.86 865.159 1827.19 682.009 1800.68 663.088C1754.38 659.385 1714.31 669.027 1684.56 689.883C1652.4 712.426 1632.51 748.023 1629.77 793.217L1742.51 1093.47C1743.74 1096.69 1742.28 1100.31 1739.15 1101.77L1549.54 1188.67C1547.43 1189.66 1544.92 1189.1 1543.44 1187.31L1511.28 1148.19C1510.35 1147.06 1509.98 1145.56 1510.29 1144.13C1510.6 1142.69 1511.56 1141.48 1512.89 1140.85L1683.55 1057.54L1614.71 802.043ZM2066.15 824.838L2090.19 841.709L2269.28 705.8L2251.09 692.857L2071.65 822.781C2070 823.982 2068.09 824.669 2066.15 824.838ZM1661.96 923.145L1696.74 1059.28C1697.49 1062.13 1696.11 1065.1 1693.46 1066.38L1522.58 1146.8L1548.74 1177.7L1728.04 1092.51L1661.96 923.145Z" fill="white"/>
<path d="M1869.38 712.888C1797.49 667.831 1707.09 689.594 1667.47 761.496C1627.84 833.398 1653.99 928.212 1725.88 973.269C1797.76 1018.33 1888.16 996.563 1927.79 924.661C1967.42 852.759 1941.27 757.945 1869.38 712.888Z" fill="#808080"/>
<path fill-rule="evenodd" clip-rule="evenodd" d="M1723.22 977.501C1685.82 955.154 1659.88 919.789 1647.93 880.685C1635.52 840.075 1638.45 795.491 1658.86 756.751C1679.87 717.329 1715.17 691.531 1754.97 681.892C1794 672.448 1837.36 678.735 1875.87 702.537C1913.81 726.675 1939.93 763.707 1951.03 804.419C1962.3 845.83 1958.18 890.869 1936.25 929.329C1914.26 967.497 1878.9 992.044 1839.38 1000.35C1801.44 1008.33 1759.76 1001.49 1723.22 977.501ZM1728.53 969.035C1763.01 989.644 1801.47 994.538 1836.02 985.818C1870.62 977.082 1901.18 954.444 1919.32 919.999C1937.48 885.892 1939.67 846.58 1929.07 810.651C1918.72 775.604 1896.03 743.7 1862.89 723.24C1830.34 702.548 1793.55 696.887 1760.14 704.255C1725.86 711.811 1695.03 732.957 1676.08 766.236C1656.56 800.145 1652.87 839.862 1662.49 876.557C1672.1 913.198 1694.78 946.873 1728.53 969.035Z" fill="white"/>
<path d="M1778.36 651.321C1699.81 638.56 1625.8 691.808 1613.05 770.255C1600.31 848.702 1653.66 922.641 1732.21 935.403C1810.76 948.164 1884.77 894.916 1897.52 816.469C1910.26 738.022 1856.91 664.083 1778.36 651.321Z" fill="#808080"/>
<path fill-rule="evenodd" clip-rule="evenodd" d="M1731.46 939.984C1690.5 934.199 1655.83 912.224 1632.77 881.575C1609.36 850.45 1598.13 810.335 1604.1 768.8C1610.32 726.8 1633.11 691.264 1664.87 667.94C1696.83 644.466 1737.91 633.521 1780.18 640.116C1822.36 647.248 1857.85 670.633 1880.74 703.017C1903.48 735.204 1913.84 776.117 1906.45 817.919C1898.96 859.199 1875.61 893.691 1843.55 915.803C1811.99 937.579 1772.15 947.455 1731.46 939.984ZM1732.95 930.819C1770.74 936.163 1807.1 925.692 1835.41 904.484C1863.3 883.599 1883.25 852.162 1888.58 815.017C1894.01 778.4 1883.9 743.117 1863.51 715.462C1843.3 688.065 1812.82 668.179 1776.54 662.527C1740.34 656.411 1705.13 665.633 1677.3 685.218C1649.2 704.994 1628.45 735.265 1622 771.709C1615.31 808.626 1624.29 844.755 1644.12 873.391C1664.26 902.471 1695.42 923.92 1732.95 930.819Z" fill="white"/>
<path d="M1761.63 724.847C1722.51 718.491 1685.67 744.863 1679.36 783.75C1673.04 822.637 1699.63 859.314 1738.75 865.67C1777.88 872.025 1814.71 845.653 1821.03 806.766C1827.35 767.879 1800.75 731.202 1761.63 724.847Z" fill="black"/>
<path fill-rule="evenodd" clip-rule="evenodd" d="M1738.03 870.154C1716.82 867.594 1698.78 856.534 1686.55 841.012C1673.92 824.987 1667.86 804.084 1670.59 782.327C1673.58 760.112 1685.5 741.247 1702.23 728.797C1719.1 716.247 1740.94 710.502 1763.41 713.873C1785.8 717.797 1804.69 730.167 1816.71 747.402C1828.64 764.508 1833.98 786.171 1829.78 808.188C1825.48 829.684 1813.11 847.584 1796.06 858.789C1779.56 869.642 1758.95 874.431 1738.03 870.154ZM1739.48 861.181C1757.58 863.373 1774.79 857.994 1788.13 847.677C1801.07 837.672 1810.09 822.776 1812.28 805.346C1814.56 788.429 1809.48 772.3 1799.88 759.648C1790.48 747.255 1776.48 738.303 1759.85 735.82C1743.29 732.919 1727.17 736.985 1714.34 745.759C1701.24 754.723 1691.32 768.416 1688.12 785.175C1684.68 802.401 1688.53 819.375 1697.63 832.959C1707.01 846.968 1721.62 857.523 1739.48 861.181Z" fill="black"/>
<path d="M1877.21 367.676C1818.41 330.823 1744.47 348.623 1712.06 407.435C1679.64 466.247 1701.03 543.799 1759.83 580.653C1818.63 617.507 1892.57 599.706 1924.99 540.895C1957.4 482.083 1936.01 404.53 1877.21 367.676Z" fill="#808080"/>
<path fill-rule="evenodd" clip-rule="evenodd" d="M1757.66 584.116C1727.07 565.837 1705.85 536.91 1696.08 504.926C1685.93 471.709 1688.32 435.242 1705.01 403.555C1722.2 371.31 1751.08 350.209 1783.63 342.324C1815.56 334.6 1851.02 339.743 1882.52 359.211C1913.56 378.955 1934.92 409.244 1943.99 442.544C1953.22 476.417 1949.84 513.256 1931.91 544.714C1913.92 575.933 1884.99 596.011 1852.67 602.808C1821.64 609.33 1787.55 603.738 1757.66 584.116ZM1762 577.19C1790.2 594.048 1821.67 598.051 1849.92 590.919C1878.23 583.773 1903.22 565.256 1918.06 537.083C1932.91 509.184 1934.71 477.03 1926.03 447.642C1917.57 418.976 1899.01 392.88 1871.9 376.145C1845.28 359.22 1815.19 354.59 1787.86 360.616C1759.82 366.797 1734.61 384.093 1719.1 411.313C1703.13 439.049 1700.12 471.535 1707.99 501.549C1715.85 531.519 1734.4 559.064 1762 577.19Z" fill="white"/>
<path d="M1802.76 317.32C1738.51 306.882 1677.97 350.436 1667.55 414.601C1657.13 478.766 1700.76 539.244 1765.01 549.682C1829.26 560.12 1889.8 516.566 1900.22 452.401C1910.65 388.236 1867.01 327.758 1802.76 317.32Z" fill="#808080"/>
<path fill-rule="evenodd" clip-rule="evenodd" d="M1764.4 553.43C1730.9 548.698 1702.54 530.724 1683.68 505.655C1664.53 480.197 1655.35 447.384 1660.23 413.411C1665.32 379.058 1683.95 349.991 1709.93 330.913C1736.08 311.714 1769.68 302.761 1804.25 308.155C1838.75 313.989 1867.78 333.116 1886.5 359.605C1905.1 385.932 1913.58 419.396 1907.53 453.588C1901.41 487.353 1882.31 515.565 1856.09 533.651C1830.27 551.463 1797.68 559.541 1764.4 553.43ZM1765.62 545.933C1796.53 550.305 1826.27 541.74 1849.43 524.393C1872.24 507.31 1888.55 481.597 1892.92 451.214C1897.36 421.264 1889.09 392.404 1872.41 369.784C1855.88 347.375 1830.95 331.109 1801.27 326.486C1771.66 321.483 1742.86 329.027 1720.1 345.046C1697.12 361.222 1680.14 385.981 1674.87 415.79C1669.39 445.986 1676.74 475.538 1692.96 498.96C1709.43 522.746 1734.92 540.29 1765.62 545.933Z" fill="white"/>
<path d="M1789.08 377.459C1757.08 372.26 1726.95 393.831 1721.78 425.638C1716.62 457.446 1738.37 487.445 1770.37 492.644C1802.37 497.842 1832.5 476.272 1837.67 444.464C1842.83 412.657 1821.08 382.657 1789.08 377.459Z" fill="black"/>
<path fill-rule="evenodd" clip-rule="evenodd" d="M1769.77 496.312C1752.42 494.217 1737.67 485.171 1727.67 472.475C1717.34 459.367 1712.38 442.27 1714.61 424.474C1717.06 406.303 1726.81 390.873 1740.5 380.69C1754.29 370.424 1772.15 365.725 1790.54 368.483C1808.85 371.692 1824.3 381.811 1834.13 395.908C1843.89 409.899 1848.25 427.618 1844.82 445.627C1841.3 463.209 1831.19 477.851 1817.24 487.015C1803.74 495.893 1786.89 499.81 1769.77 496.312ZM1770.96 488.972C1785.77 490.765 1799.84 486.365 1810.76 477.927C1821.34 469.743 1828.72 457.559 1830.51 443.302C1832.37 429.466 1828.22 416.272 1820.37 405.924C1812.68 395.787 1801.22 388.465 1787.62 386.434C1774.08 384.061 1760.9 387.387 1750.4 394.563C1739.68 401.896 1731.57 413.096 1728.95 426.804C1726.14 440.894 1729.29 454.777 1736.73 465.888C1744.41 477.347 1756.35 485.98 1770.96 488.972Z" fill="black"/>
<path d="M1472.44 590.186C1398.78 558.6 1319.33 596.057 1294.99 673.848C1270.65 751.639 1310.64 840.307 1384.3 871.893C1457.95 903.479 1537.4 866.022 1561.74 788.231C1586.08 710.44 1546.1 621.772 1472.44 590.186Z" fill="#808080"/>
<path fill-rule="evenodd" clip-rule="evenodd" d="M1382.34 876.448C1343.54 860.796 1313.31 829.877 1295.79 792.709C1278.21 755.435 1273.67 711.893 1285.64 670.921C1298.08 629.053 1325.55 597.789 1359.75 581.016C1394.71 563.867 1436.75 562.006 1477.21 579.044C1516.81 596.357 1547.49 628.893 1564.38 667.834C1580.93 706.014 1584.31 750.143 1570.83 791.077C1557.19 831.876 1529.42 861.961 1495.24 877.426C1461.14 892.863 1420.77 893.919 1382.34 876.448ZM1386.25 867.343C1421.85 881.7 1458.48 879.435 1488.9 864.131C1518.48 849.25 1542.01 821.847 1552.65 785.385C1563.44 748.989 1559.06 710.353 1543.74 677.049C1528.44 643.783 1502.03 615.786 1467.66 601.322C1434.06 586.657 1399.05 587.877 1369.57 601.584C1340.07 615.298 1316 641.329 1304.35 676.775C1292.19 713.182 1295.13 752.416 1309.56 786.565C1324.34 821.567 1351.02 851.318 1386.25 867.343Z" fill="white"/>
<path d="M1378.41 545.748C1304.05 547.127 1244.97 612.662 1246.44 692.124C1247.92 771.585 1309.39 834.884 1383.75 833.505C1458.11 832.126 1517.19 766.591 1515.72 687.129C1514.24 607.667 1452.77 544.369 1378.41 545.748Z" fill="#808080"/>
<path fill-rule="evenodd" clip-rule="evenodd" d="M1383.83 838.018C1344.25 839.581 1307.85 823.318 1281.23 796.101C1255.51 769.793 1239.14 733.16 1237.63 692.286C1236.28 650.94 1250.51 612.88 1274.68 584.602C1300.32 554.594 1337.16 535.734 1378.21 534.711C1419.26 534.218 1456.77 551.708 1483.5 580.736C1508.7 608.106 1524.33 645.605 1524.51 686.966C1524.52 727.867 1509.51 765.067 1484.79 792.303C1459.21 820.496 1423.44 838.097 1383.83 838.018ZM1383.67 828.996C1419.99 827.569 1452.13 810.168 1474.58 783.4C1495.86 758.012 1508.28 724.107 1506.92 687.292C1505.74 650.951 1491.08 618.481 1468.44 594.886C1445.25 570.704 1413.47 555.915 1378.62 556.785C1343.76 557.208 1312.56 573.18 1290.28 598.205C1268.53 622.624 1255.1 655.607 1255.26 691.959C1255.27 728.792 1268.94 762.206 1291.14 786.787C1314.56 812.705 1347.32 828.909 1383.67 828.996Z" fill="white"/>
<path d="M1374.68 600.629C1326.38 601.525 1288 644.1 1288.96 695.722C1289.92 747.345 1329.85 788.467 1378.14 787.571C1426.44 786.675 1464.82 744.101 1463.86 692.478C1462.9 640.856 1422.98 599.734 1374.68 600.629Z" fill="#BE0039"/>
<path fill-rule="evenodd" clip-rule="evenodd" d="M1378.25 793.356C1351.51 794.958 1326.77 784.283 1308.42 766.211C1290.55 748.62 1279.18 723.776 1277.65 695.931C1276.34 667.486 1285.92 641.187 1302.36 621.56C1320.03 600.453 1345.79 587.354 1374.42 586.461C1403.05 586.302 1429.27 598.446 1447.71 618.874C1464.86 637.888 1475.41 663.794 1475.15 692.268C1474.65 720.141 1464.21 745.38 1447.01 763.622C1429.35 782.361 1405.04 793.955 1378.25 793.356ZM1378.04 781.777C1400.61 780.439 1420.27 769.107 1433.91 752.193C1446.7 736.322 1453.82 715.312 1452.58 692.687C1451.56 670.654 1442.26 651.202 1428.39 637.028C1414.48 622.817 1395.62 614.137 1374.94 614.784C1354.26 614.914 1335.73 624.297 1322.37 639.014C1309.05 653.692 1300.47 673.466 1300.27 695.512C1299.87 718.168 1307.77 738.879 1321.13 754.265C1335.38 770.662 1355.44 781.267 1378.04 781.777Z" fill="black"/>
<path d="M1418.01 635.61C1409.25 622.757 1392.62 619.997 1380.86 629.447C1369.1 638.896 1366.68 656.976 1375.44 669.829C1384.2 682.682 1400.84 685.441 1412.59 675.992C1424.35 666.543 1426.77 648.463 1418.01 635.61Z" fill="#D1D1D1" stroke="black" stroke-width="15.9558" stroke-miterlimit="1.5" stroke-linecap="round" stroke-linejoin="round"/>
<path fill-rule="evenodd" clip-rule="evenodd" d="M1618.05 850.094L1299.45 783.033L1520.25 701.16L1008.68 503.166L1448.75 536.498L1127.46 195.222L1451.5 403.599L1068.56 -53.4172L1312.09 -96.6153L1591.46 367.91L1534.26 -12.2213L1656.44 359.553L1737.08 54.9167L1742.35 429.998L2025.1 98.6147L1856.72 506.822L2093.72 383.483L1926.53 672.909L2118.22 726.974L1874.35 793.684L2009.95 947.015L1819.63 906.704L1755.12 1063.01L1727.44 895.293L1427.16 1010.18L1618.05 850.094Z" fill="#E4FFCA" fill-opacity="0.75"/>
<path fill-rule="evenodd" clip-rule="evenodd" d="M1618.05 850.094L1299.45 783.033L1520.25 701.16L1008.68 503.166L1448.75 536.498L1127.46 195.222L1451.5 403.599L1068.56 -53.4172L1312.09 -96.6153L1591.46 367.91L1534.26 -12.2213L1656.44 359.553L1737.08 54.9167L1742.35 429.998L2025.1 98.6147L1856.72 506.822L2093.72 383.483L1926.53 672.909L2118.22 726.974L1874.35 793.684L2009.95 947.015L1819.63 906.704L1755.12 1063.01L1727.44 895.293L1427.16 1010.18L1618.05 850.094ZM1638.61 874.613L1593.87 912.135L1716.01 865.406C1724.98 861.971 1735.03 862.754 1743.37 867.537C1751.7 872.321 1757.45 880.598 1759.01 890.082L1768.4 946.958L1790.05 894.496C1795.94 880.232 1811.17 872.201 1826.26 875.399L1921.79 895.632L1850.38 814.884C1843.05 806.604 1840.52 795.131 1843.68 784.539C1846.84 773.947 1855.24 765.735 1865.9 762.818L1998.66 726.503L1917.84 703.708C1908.34 701.027 1900.6 694.107 1896.88 684.958C1893.16 675.808 1893.88 665.455 1898.82 656.903L2011.09 462.562L1871.49 535.208C1859.56 541.414 1845.03 539.505 1835.11 530.429C1825.19 521.354 1822.01 507.047 1827.13 494.62L1918.72 272.596L1766.69 450.769C1758.05 460.903 1744.03 464.62 1731.49 460.1C1718.96 455.58 1710.54 443.769 1710.35 430.448L1708.36 288.475L1687.38 367.741C1683.75 381.44 1671.55 391.123 1657.38 391.539C1643.22 391.955 1630.47 383.006 1626.04 369.544L1622.39 358.439L1623.1 363.148C1625.37 378.248 1616.66 392.85 1602.29 398.02C1587.92 403.19 1571.9 397.488 1564.03 384.402L1296.01 -61.2633L1128.61 -31.5702L1476.03 383.047C1486.18 395.169 1485.96 412.893 1475.51 424.758C1465.05 436.622 1447.49 439.068 1434.19 430.514L1329.6 363.257L1472.05 514.563C1481.1 524.18 1483.31 538.371 1477.62 550.289C1471.93 562.207 1459.5 569.404 1446.33 568.406L1222 551.415L1531.8 671.318C1544.2 676.118 1552.35 688.089 1552.25 701.388C1552.16 714.686 1543.85 726.541 1531.38 731.164L1414.42 774.532L1624.64 818.78C1636.62 821.303 1646.12 830.445 1649.09 842.326C1652.07 854.208 1648 866.744 1638.61 874.613Z" fill="#FF4500"/>
<path fill-rule="evenodd" clip-rule="evenodd" d="M906.718 2580.37L762.105 1995.2C762.105 1995.2 -40.0267 2163.19 -173.496 2295.08C-280.957 2401.27 -195.917 2683.88 -50.3905 2725.38C128.999 2776.53 906.718 2580.37 906.718 2580.37Z" fill="#808080"/>
<path fill-rule="evenodd" clip-rule="evenodd" d="M907.592 2583.84C907.592 2583.84 530.423 2680.9 240.714 2722.57C113.268 2740.91 2.57507 2748.24 -52.4915 2732.75C-127.071 2711.7 -187.027 2629.76 -214.301 2538.66C-242.077 2445.89 -235.598 2344.33 -179.641 2288.87C-138.375 2248.16 -34.3673 2203.57 90.6613 2162.14C372.371 2068.79 760.811 1989.03 760.811 1989.03C764.137 1988.33 767.417 1990.39 768.233 1993.69L910.185 2579.52C910.656 2581.43 909.497 2583.36 907.592 2583.84ZM902.377 2577.76L757.475 2002.66C707.814 2013.43 356.275 2090.81 96.023 2178.21C-25.5704 2219.05 -127.24 2261.59 -167.351 2301.3C-219.571 2352.75 -223.748 2447.48 -198.271 2533.9C-173.002 2619.62 -118.264 2697.85 -48.2885 2718.01C5.52848 2733.56 113.938 2726.4 238.881 2709.45C512.215 2672.37 863.86 2587.19 902.377 2577.76Z" fill="#FFF3F3"/>
<path fill-rule="evenodd" clip-rule="evenodd" d="M528.355 2664.94C394.303 2597.01 287.542 2484.27 308.856 2287.29C308.856 2287.29 243.738 2509.47 79.1976 2545.65C-7.21173 2564.65 -55.3926 2550.17 -55.3926 2550.17L-213.89 2553.21L2.93573 2736.99C170.806 2727.42 345.134 2705.01 528.355 2664.94Z" fill="black" fill-opacity="0.4"/>
<path fill-rule="evenodd" clip-rule="evenodd" d="M188.46 2169.87C200.813 2153.41 217.724 2143.25 234.052 2140.26C247.88 2137.73 261.291 2140.55 271.921 2148.61C285.128 2158.79 291.288 2175.52 289.965 2193.78C288.896 2208.47 282.712 2224.1 271.802 2237.83C260.547 2251.27 246.476 2260.47 232.298 2264.47C214.685 2269.44 197.068 2266.77 184.438 2255.89C174.41 2247.1 168.937 2234.53 168.633 2220.48C168.27 2203.88 174.829 2185.28 188.46 2169.87ZM193.859 2174.27C184.952 2186.14 180.236 2199.5 179.562 2211.95C178.826 2225.49 183.18 2237.9 193.027 2245.35C202.493 2252.65 215.191 2253.26 227.665 2249.2C238.844 2245.56 249.877 2238.01 258.587 2227.05C267.563 2216.31 272.733 2203.99 274.046 2192.3C275.513 2179.27 272.361 2166.96 263.313 2159.16C254.031 2151.02 241.01 2149.26 227.9 2152.7C215.836 2155.86 203.7 2163.16 193.859 2174.27Z" fill="black"/>
<path fill-rule="evenodd" clip-rule="evenodd" d="M19.3372 2226.49C30.1768 2210.64 45.6043 2200.54 60.788 2197.18C73.6379 2194.32 86.3163 2196.53 96.6468 2203.66C109.51 2212.73 116.044 2228.17 115.634 2245.32C115.302 2259.17 110.147 2274.09 100.453 2287.38C90.3977 2300.39 77.5085 2309.5 64.3069 2313.69C47.9569 2318.87 31.3105 2316.91 19.0179 2307.09C9.28124 2299.17 3.6159 2287.61 2.76388 2274.48C1.7531 2258.96 7.14076 2241.33 19.3372 2226.49ZM25.0494 2230.78C17.3399 2242.06 13.611 2254.56 13.568 2266.07C13.5214 2278.41 18.0652 2289.52 27.38 2295.95C36.2944 2302.23 47.8598 2302.29 59.0231 2298.2C69.1376 2294.51 78.9443 2287.22 86.478 2276.89C94.2905 2266.77 98.5433 2255.31 99.268 2244.57C100.07 2232.72 96.7833 2221.63 88.2658 2214.83C79.493 2207.68 67.5637 2206.43 55.7312 2209.92C44.6974 2213.17 33.7349 2220.23 25.0494 2230.78Z" fill="black"/>
<path fill-rule="evenodd" clip-rule="evenodd" d="M211.794 2174.94C233.563 2148.25 253.418 2148.83 266.859 2161.13C287.845 2180.33 279.608 2208.57 270.956 2222.98C253.217 2252.51 234.008 2274.52 211.963 2256.54C189.922 2238.57 190.025 2201.64 211.794 2174.94Z" fill="#FFF2E9"/>
<path fill-rule="evenodd" clip-rule="evenodd" d="M209.024 2172.68C220.441 2157.23 231.953 2150 242.262 2147.93C253.175 2145.74 263.047 2149.38 271.288 2156.29C282.95 2166.21 287.337 2178.71 287.842 2190.92C288.419 2204.85 283.413 2218.41 278.308 2227.39C273.896 2234.85 269.445 2241.9 264.763 2247.92C258.579 2255.87 252.058 2262.19 245.429 2266.09C233.198 2273.29 220.409 2273.74 207.226 2262.35C194.341 2250.96 188.215 2234 189.805 2215.99C191.128 2201.07 197.496 2185.53 209.024 2172.68ZM214.561 2177.2C205.566 2189.35 201.229 2203.38 201.211 2216.5C201.195 2230.22 206.274 2242.89 216.701 2250.73C223.869 2256.24 230.413 2255.81 236.589 2251.8C241.558 2248.58 246.205 2243.4 250.92 2237.24C255.178 2231.68 259.46 2225.35 263.601 2218.56C267.828 2211.89 272.105 2201.75 272.3 2191.09C272.463 2182.5 270.109 2173.52 262.428 2165.97C256.24 2159.79 248.149 2156.74 238.637 2159.79C231.238 2162.17 223.164 2167.64 214.561 2177.2Z" fill="#FF4500"/>
<path fill-rule="evenodd" clip-rule="evenodd" d="M42.6212 2231.35C61.7334 2205.89 73.5804 2200.14 94.3529 2215.73C115.125 2231.32 117.254 2254.96 98.1423 2280.43C79.0301 2305.89 55.769 2310.58 45.6274 2305.73C22.1934 2294.54 23.5093 2256.81 42.6212 2231.35Z" fill="#FFF2E9"/>
<path fill-rule="evenodd" clip-rule="evenodd" d="M39.7662 2229.21C50.875 2212.72 60.2911 2203.99 70.2388 2201.9C78.4383 2200.19 87.3168 2202.87 98.3617 2210.39C111.936 2219.83 118.878 2232.5 119.294 2246.78C119.642 2258.7 115.004 2271.92 105.101 2285.65C94.7047 2299.16 83.324 2307.39 72.9889 2311.53C60.2491 2316.63 48.9978 2315.88 42.4118 2312.47C30.1105 2305.97 23.2656 2293.81 22.3875 2279.24C21.4121 2262.96 27.5744 2243.86 39.7662 2229.21ZM45.4761 2233.49C37.861 2244.78 33.9534 2258.25 33.9139 2270.48C33.8739 2283.14 38.2758 2294.49 48.847 2299C53.6862 2301.13 61.9747 2299.31 71.1687 2293.86C77.8053 2289.92 84.7677 2283.92 91.184 2275.21C98.9554 2265.25 103.05 2255.7 103.28 2246.8C103.533 2237.01 99.1628 2228.21 90.3437 2221.07C81.3603 2213.66 74.6441 2210.86 67.3699 2213.98C60.695 2216.84 53.8823 2223.42 45.4761 2233.49Z" fill="#FF4500"/>
<path fill-rule="evenodd" clip-rule="evenodd" d="M275.933 2667.42C264.316 2654.68 257.906 2639.36 256.543 2624.63C254.907 2606.98 260.805 2590.27 273.458 2578.84C286.516 2567.25 304.345 2563.56 322.106 2567.3C337.339 2570.5 352.415 2579.43 364.252 2593.16C375.745 2607.18 381.94 2623.57 382.477 2639.12C383.11 2657.25 376.424 2674.18 362.759 2685.05C349.329 2695.55 331.864 2698.49 314.757 2693.85C300.481 2689.98 286.488 2681.04 275.933 2667.42ZM281.398 2662.82C291.602 2674.01 304.405 2680.95 317.174 2683.39C330.625 2685.97 344.021 2683.22 353.795 2674.39C363.339 2665.92 367.128 2653.24 366.146 2640.01C365.243 2627.85 360.152 2615.17 350.874 2604.41C341.87 2593.42 330.243 2586.24 318.42 2583.26C305.567 2580.03 292.425 2581.58 282.442 2589.53C272.069 2597.64 267.068 2610.36 267.291 2624.05C267.506 2637.04 272.132 2650.85 281.398 2662.82Z" fill="black"/>
<path fill-rule="evenodd" clip-rule="evenodd" d="M117.695 2701.95C107.017 2690.45 100.809 2676.77 98.9896 2663.63C96.7117 2647.16 101.655 2631.65 113.003 2621.21C124.751 2610.61 141.233 2607.53 157.819 2611.52C171.392 2614.79 184.934 2623.07 195.8 2635.51C206.329 2648.23 212.328 2662.93 213.372 2676.85C214.648 2693.86 208.962 2709.62 196.618 2719.52C186.715 2727.31 174.209 2730.38 161.248 2728.49C145.711 2726.22 129.539 2717.15 117.695 2701.95ZM123.031 2697.41C132.378 2707.48 143.856 2713.86 155.203 2716.36C167.327 2719.02 179.288 2716.9 187.763 2709.11C196.01 2701.67 198.807 2690.29 197.401 2678.39C196.123 2667.59 191.208 2656.31 182.743 2646.62C174.539 2636.71 164.183 2630.06 153.728 2627.06C142.217 2623.77 130.541 2624.7 121.877 2631.65C112.829 2638.76 108.821 2650.22 109.506 2662.61C110.144 2674.21 114.597 2686.56 123.031 2697.41Z" fill="black"/>
<path d="M59.7515 2681.1C43.9518 2654.4 13.8509 2642.98 -7.48055 2655.6C-28.8121 2668.22 -33.2964 2700.1 -17.4966 2726.8C-1.69689 2753.51 28.4039 2764.93 49.7354 2752.31C71.0669 2739.69 75.5513 2707.81 59.7515 2681.1Z" fill="black"/>
<path fill-rule="evenodd" clip-rule="evenodd" d="M-20.5669 2728.62C-29.0241 2715.71 -32.6644 2701.36 -32.0853 2688.25C-31.3632 2672.03 -23.8497 2657.88 -11.0354 2649.59C2.20786 2641.2 18.7174 2640.8 34.1233 2647.19C46.913 2652.49 58.7851 2662.75 67.2742 2676.65C75.3707 2690.79 78.6368 2706.13 77.1232 2719.9C75.3063 2736.47 67.0058 2750.74 53.2811 2758.31C39.8471 2765.54 23.8361 2765.31 9.27728 2758.13C-2.48798 2752.34 -13.3152 2742.24 -20.5669 2728.62ZM-14.4201 2724.98C-7.08287 2736.2 2.99456 2744.17 13.6056 2748.31C24.8209 2752.7 36.6844 2752.47 46.1885 2746.32C55.3992 2740.48 60.0797 2730.05 60.831 2718.47C61.5169 2707.88 58.7458 2696.22 52.2326 2685.55C46.0152 2674.71 37.1317 2666.67 27.5133 2662.17C17.0083 2657.26 5.61763 2656.34 -3.92671 2661.6C-13.8849 2666.97 -19.7993 2677.25 -21.3574 2689.19C-22.831 2700.48 -20.718 2713.15 -14.4201 2724.98Z" fill="black"/>
<path d="M354.814 2604.18C335.153 2580.8 306.117 2572.85 289.961 2586.43C273.804 2600.02 276.646 2629.99 296.308 2653.37C315.969 2676.76 345.005 2684.7 361.161 2671.12C377.318 2657.54 374.476 2627.57 354.814 2604.18Z" fill="#FFF2E9"/>
<path fill-rule="evenodd" clip-rule="evenodd" d="M293.64 2655.61C281.565 2642.55 274.979 2627.05 273.942 2613.24C272.975 2600.36 277.115 2588.96 285.576 2581.22C294.327 2573.36 306.53 2570.74 319.572 2573.09C333.852 2575.66 349.115 2584.63 361.345 2598.69C373.102 2613.15 379.328 2629.73 379.407 2644.24C379.479 2657.49 374.792 2669.06 365.538 2676.32C356.466 2683.33 344.528 2685.45 332 2682.29C318.571 2678.9 304.439 2669.75 293.64 2655.61ZM298.978 2651.13C307.601 2660.45 317.812 2666.78 327.781 2669.89C338.849 2673.33 349.6 2672.49 356.786 2665.91C363.747 2659.67 365.156 2649.4 362.979 2638.49C361.056 2628.87 356.107 2618.69 348.288 2609.67C340.736 2600.42 331.559 2593.8 322.408 2590.26C312.04 2586.24 301.689 2585.87 294.347 2591.65C286.639 2597.59 283.972 2608.04 285.461 2619.53C286.803 2629.88 291.278 2641.03 298.978 2651.13Z" fill="#FF4500"/>
<path d="M194.47 2642.62C173.828 2618.36 144.997 2608.97 130.073 2621.67C115.149 2634.36 119.784 2664.33 140.426 2688.59C161.067 2712.86 189.899 2722.24 204.823 2709.55C219.747 2696.86 215.112 2666.89 194.47 2642.62Z" fill="#FFF2E9"/>
<path fill-rule="evenodd" clip-rule="evenodd" d="M137.789 2690.84C125.63 2677.82 118.321 2662.82 116.166 2649.53C113.962 2635.95 117.471 2624.11 125.689 2616.51C134.193 2608.79 146.737 2606.76 160.406 2610.3C173.981 2613.82 188.671 2623.21 200.921 2637.14C212.709 2651.46 219.641 2667.46 220.927 2681.43C222.225 2695.49 218.191 2707.55 209.197 2714.69C200.384 2721.59 188.144 2723.16 175.092 2718.81C162.318 2714.55 148.686 2704.93 137.789 2690.84ZM143.065 2686.35C151.867 2695.77 161.967 2702.48 171.703 2706.2C182.978 2710.51 193.711 2710.64 200.449 2704.41C206.983 2698.48 207.296 2688.15 204.191 2676.99C201.541 2667.46 196.081 2657.31 188.02 2648.11C178.502 2636.54 166.98 2628.54 156.166 2625.16C147.847 2622.57 140.006 2622.4 134.457 2626.82C127.228 2632.47 125.645 2643.08 128.081 2654.89C130.188 2665.1 135.185 2676.15 143.065 2686.35Z" fill="#FF4500"/>
<path d="M59.3238 2681.79C43.524 2655.08 13.4232 2643.66 -7.90829 2656.28C-29.2398 2668.9 -33.7241 2700.78 -17.9244 2727.49C-2.12463 2754.2 27.9762 2765.62 49.3077 2753C70.6392 2740.38 75.1235 2708.5 59.3238 2681.79Z" fill="#FFF2E9"/>
<path fill-rule="evenodd" clip-rule="evenodd" d="M-20.9946 2729.31C-29.4518 2716.39 -33.0922 2702.04 -32.513 2688.94C-31.791 2672.71 -24.2775 2658.57 -11.4631 2650.28C1.78013 2641.89 18.2896 2641.48 33.6956 2647.87C46.4852 2653.18 58.3573 2663.43 66.8465 2677.34C74.9429 2691.48 78.2091 2706.82 76.6954 2720.58C74.8785 2737.16 66.578 2751.43 52.8534 2758.99C39.4194 2766.23 23.4084 2766 8.84955 2758.82C-2.91571 2753.02 -13.743 2742.93 -20.9946 2729.31ZM-14.8478 2725.67C-7.51061 2736.89 2.56682 2744.85 13.1778 2749C24.3931 2753.39 36.2567 2753.15 45.7608 2747C54.9715 2741.17 59.652 2730.74 60.4032 2719.16C61.0891 2708.56 58.3181 2696.91 51.8049 2686.24C45.5875 2675.4 36.704 2667.36 27.0856 2662.86C16.5805 2657.95 5.1899 2657.03 -4.35444 2662.29C-14.3127 2667.66 -20.227 2677.94 -21.7851 2689.87C-23.2588 2701.17 -21.1457 2713.84 -14.8478 2725.67Z" fill="#FF4500"/>
<path fill-rule="evenodd" clip-rule="evenodd" d="M140.15 2452.44C136.325 2435.63 138.302 2419.14 144.383 2405.65C151.663 2389.49 165.034 2377.86 181.678 2374.16C198.755 2370.51 216.082 2376.1 229.69 2388.11C241.363 2398.41 250.078 2413.61 253.602 2431.39C256.685 2449.26 253.994 2466.57 246.791 2480.37C238.399 2496.45 224.235 2507.88 206.986 2510.6C190.125 2513.11 173.485 2507.05 160.889 2494.58C150.38 2484.17 142.612 2469.5 140.15 2452.44ZM147.17 2451.14C150.529 2465.9 158.244 2478.25 168.148 2486.67C178.581 2495.55 191.588 2499.77 204.445 2496.9C216.928 2494.24 226.477 2485.07 232.146 2473.08C237.357 2462.06 239.183 2448.52 236.417 2434.58C234.002 2420.58 227.43 2408.6 218.612 2400.18C209.027 2391.03 196.827 2385.9 184.224 2387.89C171.201 2389.83 160.577 2398.43 154.02 2410.45C147.8 2421.86 145.015 2436.15 147.17 2451.14Z" fill="black"/>
<path fill-rule="evenodd" clip-rule="evenodd" d="M-16.8401 2498.97C-17.9719 2483.06 -13.9063 2468.28 -6.5792 2456.79C2.32578 2442.82 16.242 2433.99 32.0101 2432.95C48.2002 2432.03 63.3052 2439.76 74.0512 2452.93C83.1513 2464.07 88.8643 2479.27 89.543 2496.08C89.7736 2512.9 84.8896 2528.38 76.4083 2540C66.3934 2553.72 51.7353 2562.26 35.5243 2562.22C19.7278 2562.04 5.36243 2553.98 -4.28816 2540.52C-12.2338 2529.44 -17.1013 2514.91 -16.8401 2498.97ZM-9.70328 2498.77C-8.72123 2512.61 -3.51166 2524.87 4.1668 2533.91C12.2471 2543.42 23.2717 2549.08 35.1457 2548.29C46.6145 2547.65 56.3202 2540.66 62.9929 2530.64C69.1259 2521.43 72.6039 2509.49 72.075 2496.55C71.8955 2483.61 67.7691 2471.88 61.1445 2463.01C53.9375 2453.37 43.8717 2446.93 32.3895 2446.91C20.4954 2446.77 9.80437 2453.02 2.25236 2462.94C-4.9286 2472.39 -9.46958 2484.9 -9.70328 2498.77Z" fill="black"/>
<path d="M241.687 2433.61C235.933 2402.59 213.981 2380.65 192.655 2384.6C171.33 2388.56 158.706 2416.91 164.46 2447.93C170.214 2478.95 192.167 2500.89 213.492 2496.94C234.818 2492.98 247.441 2464.63 241.687 2433.61Z" fill="#FFF2E9"/>
<path fill-rule="evenodd" clip-rule="evenodd" d="M160.951 2448.58C156.771 2430.74 158.707 2413.51 164.746 2400.6C170.398 2388.51 179.88 2380.37 191.382 2377.74C203.2 2375.15 215.46 2379.03 225.946 2387.82C237.378 2397.41 246.464 2413.21 250.279 2432.02C253.472 2450.94 250.669 2468.95 243.427 2482C236.791 2493.96 226.726 2501.98 214.762 2503.79C203.087 2505.46 191.314 2501.27 181.704 2492.02C171.433 2482.14 163.45 2466.74 160.951 2448.58ZM167.973 2447.28C170.966 2460.04 176.885 2470.93 184.222 2478.81C192.389 2487.57 202.448 2492.33 212.222 2490.09C221.632 2488.03 228.092 2479.51 231.664 2468.58C234.806 2458.95 235.522 2447.29 233.096 2435.2C231.021 2423.05 226.167 2412.43 219.778 2404.57C212.524 2395.65 203.442 2390.01 193.928 2391.47C184.006 2392.88 176.333 2400.93 171.853 2412.03C167.828 2422.01 166.196 2434.3 167.973 2447.28Z" fill="#FF4500"/>
<path d="M76.164 2495.83C75.3629 2466.36 59.257 2442.89 40.1904 2443.41C21.1238 2443.93 6.31675 2468.24 7.11785 2497.7C7.91894 2527.17 24.0249 2550.64 43.0914 2550.12C62.158 2549.61 76.9651 2525.3 76.164 2495.83Z" fill="#FFF2E9"/>
<path fill-rule="evenodd" clip-rule="evenodd" d="M3.55072 2497.8C2.23309 2480.98 6.02208 2465.58 12.7353 2454.56C19.393 2443.62 29.1995 2437.22 40.001 2436.43C51.1158 2435.73 61.7787 2441.42 70.0176 2451.68C78.4809 2462.22 84.099 2477.93 84.9007 2495.59C85.0667 2513.27 80.3217 2529.27 72.4398 2540.25C64.767 2550.94 54.4176 2557.19 43.281 2557.09C32.4529 2556.89 22.3166 2551.03 15.0711 2540.48C7.76548 2529.84 3.14894 2514.67 3.55072 2497.8ZM10.6884 2497.61C11.6319 2509.58 15.2704 2520.29 20.4728 2528.55C26.2988 2537.82 34.2223 2543.8 42.9024 2543.16C51.2062 2542.65 57.5975 2535.61 61.9881 2526.11C65.8392 2517.78 67.9193 2507.34 67.4322 2496.06C67.3026 2484.78 64.651 2474.47 60.353 2466.36C55.4533 2457.13 48.6962 2450.45 40.3804 2450.39C31.6823 2450.22 24.1058 2456.62 18.7916 2466.18C14.0461 2474.72 10.9875 2485.61 10.6884 2497.61Z" fill="#FF4500"/>
<path fill-rule="evenodd" clip-rule="evenodd" d="M440.145 2561.48L502.011 2700.96L938.899 2610.25L790.069 1976.29L369.793 2063.94L378.021 2249.48L629.211 2253.61C691.244 2294.3 707.231 2352.28 672.856 2417.74L440.145 2561.48Z" fill="#2AB6E9"/>
<path fill-rule="evenodd" clip-rule="evenodd" d="M438.269 2558.44C438.269 2558.44 668.958 2414.16 668.959 2414.16C684.782 2383.09 688.976 2353.89 681.709 2327.63C674.53 2301.67 656.154 2278.74 627.354 2259.7L377.901 2256.74C374.061 2256.67 370.935 2253.64 370.766 2249.8L361.815 2064.29C361.64 2060.38 364.333 2056.93 368.162 2056.12L788.289 1967.77C792.91 1966.81 797.454 1969.71 798.537 1974.3C798.537 1974.3 826.357 2093.14 857.626 2227.99C898.577 2404.62 945.501 2608.7 945.501 2608.7C945.916 2610.47 945.6 2612.35 944.616 2613.89C943.631 2615.43 942.068 2616.51 940.276 2616.88L502.915 2705.31C500.865 2705.74 498.795 2704.68 497.946 2702.76L473.069 2645.79L436.882 2562.93C436.157 2561.29 436.748 2559.38 438.269 2558.44ZM444.696 2562.88L480.547 2642.47L504.592 2695.86L930.685 2605.06C921.916 2568.46 879.007 2389.25 841.571 2231.76C814.545 2118.05 790.401 2015.65 783.535 1986.53L378.045 2070.39L385 2242.36L629.313 2247.49C630.469 2247.51 631.598 2247.86 632.564 2248.5C664.763 2269.86 684.862 2295.75 692.542 2324.69C700.245 2353.74 695.519 2385.99 677.374 2420.11C676.95 2420.92 676.315 2421.6 675.536 2422.08L444.696 2562.88Z" fill="#FFF3F3"/>
<path fill-rule="evenodd" clip-rule="evenodd" d="M529.331 2694.04L475.259 2550.45L668.644 2421.88C710.373 2350.5 692.661 2294.8 634.468 2249.77L410.9 2231.54L383.062 2061.18L349.144 2059.43L375.76 2244.89L632.221 2258.57C692.048 2302.87 702.363 2372.19 655.566 2431.3L438.011 2558.74L491.981 2702.13L529.331 2694.04Z" fill="#007199"/>
<path fill-rule="evenodd" clip-rule="evenodd" d="M662.085 2433.53C661.617 2434.13 661.144 2434.73 660.664 2435.33C660.162 2435.96 659.549 2436.5 658.854 2436.91L642.82 2446.16L480.909 2552.31L532.672 2692.78C533.039 2693.75 532.963 2694.83 532.467 2695.74C531.97 2696.65 531.102 2697.31 530.09 2697.53L492.799 2705.89C490.935 2706.3 489.055 2705.28 488.381 2703.49L433.426 2560.47C432.587 2558.24 433.477 2555.72 435.535 2554.51C435.535 2554.51 631.951 2437.77 649.881 2427.11C650.381 2426.77 650.874 2426.44 651.351 2426.12C672.591 2398.45 680.913 2368.64 676.899 2340.52C672.922 2312.62 656.761 2286.54 629.552 2266L375.307 2253.43C371.227 2253.22 367.871 2250.15 367.289 2246.1L340.532 2060.66C340.164 2058.08 340.964 2055.48 342.721 2053.56C344.474 2051.64 346.995 2050.61 349.593 2050.74L383.51 2052.54C387.578 2052.74 390.951 2055.76 391.609 2059.78L418.019 2223.87L635.058 2242.52C636.465 2242.63 637.805 2243.15 638.922 2244.02C670.223 2268.5 690.097 2296.01 696.169 2327C701.895 2356.24 695.439 2388.75 673.955 2424.98C673.479 2425.79 672.829 2426.48 672.049 2427L662.085 2433.53ZM405.824 2238.03C404.229 2236.79 403.102 2234.97 402.759 2232.86L375.662 2069.48L359.242 2068.64L383.246 2236.74L405.824 2238.03ZM495.258 2531.35L444.04 2560.92L494.446 2697.68L524.49 2691.4L470.908 2552.09C470.141 2550.06 470.881 2547.77 472.683 2546.57C472.683 2546.57 481.459 2540.66 495.258 2531.35Z" fill="#FFF3F3"/>
<path d="M590.915 2464.2C645.911 2427.99 663.78 2358.06 630.827 2308.02C597.874 2257.97 526.577 2246.75 471.581 2282.97C416.585 2319.18 398.716 2389.11 431.669 2439.15C464.622 2489.2 535.919 2500.41 590.915 2464.2Z" fill="#808080"/>
<path fill-rule="evenodd" clip-rule="evenodd" d="M469.574 2279.92C496.822 2261.16 528.328 2254 557.543 2257.33C589.313 2260.95 618.29 2277.09 636.789 2304.09C655.392 2331.52 659.623 2364.88 651.199 2396.14C643.308 2425.41 624.19 2452.73 595.827 2471.66C567.227 2490.23 534.576 2496.99 504.576 2492.67C472.535 2488.06 443.566 2471 425.725 2443.07C408.228 2415.41 404.854 2382.42 414.081 2351.81C422.565 2323.66 441.582 2297.54 469.574 2279.92ZM473.588 2286.01C448.266 2303.44 431.506 2328.32 424.64 2354.77C417.525 2382.19 421.229 2411.32 437.615 2435.24C453.664 2458.89 479.081 2472.69 506.79 2476.1C532.987 2479.34 561.308 2473.23 586.004 2456.74C610.906 2440.57 627.696 2416.96 635.075 2391.62C642.882 2364.82 640.253 2336.03 624.871 2311.94C609.368 2287.43 584.08 2272.53 556.084 2268.23C529.081 2264.09 499.604 2269.65 473.588 2286.01Z" fill="white"/>
<path d="M663.503 2419.76C699.745 2368.84 691.202 2300.58 644.422 2267.28C597.642 2233.98 530.339 2248.26 494.098 2299.17C457.856 2350.08 466.399 2418.35 513.179 2451.65C559.96 2484.95 627.262 2470.67 663.503 2419.76Z" fill="#808080"/>
<path fill-rule="evenodd" clip-rule="evenodd" d="M491.261 2297.15C508.997 2271.11 534.63 2253.99 561.877 2247.05C591.298 2239.56 622.575 2244.07 648.368 2261.73C674.407 2279.73 689.791 2307.83 693.279 2338.37C696.57 2367.18 689.12 2398.11 670.445 2424.7C651.433 2451.04 624.641 2468.21 596.346 2474.53C566.35 2481.23 534.768 2475.89 509.243 2457.18C484.115 2438.59 469.617 2410.52 467.062 2380.27C464.696 2352.26 472.467 2322.44 491.261 2297.15ZM496.932 2301.19C480.462 2325.37 474.262 2353.28 477.469 2379.19C480.771 2405.91 494.242 2430.46 517.118 2446.12C539.594 2461.65 566.937 2465.31 592.715 2459C617.203 2453.01 640.328 2437.94 656.562 2414.82C673.089 2391.91 679.751 2365.12 677.395 2340.02C674.911 2313.61 662.513 2288.97 640.476 2272.82C618.193 2256.34 590.596 2251.65 564.267 2257.27C538.739 2262.73 514.39 2277.71 496.932 2301.19Z" fill="white"/>
<path d="M621.356 2385.2C639.406 2359.85 635.239 2325.91 612.049 2309.4C588.86 2292.9 555.429 2300.07 537.379 2325.43C519.329 2350.78 523.496 2384.72 546.686 2401.23C569.875 2417.74 603.306 2410.56 621.356 2385.2Z" fill="black"/>
<path fill-rule="evenodd" clip-rule="evenodd" d="M534.609 2323.45C543.473 2309.87 556.511 2300.88 570.431 2297C585.81 2292.72 602.223 2294.97 615.906 2303.99C629.83 2313.34 638.102 2328.19 640.058 2344.4C641.888 2359.58 637.921 2375.92 628.138 2390.03C618.008 2403.89 603.864 2412.98 588.923 2416.22C572.969 2419.68 556.227 2416.73 542.838 2406.63C529.841 2396.66 522.351 2381.89 521.363 2365.96C520.466 2351.54 524.679 2336.28 534.609 2323.45ZM540.153 2327.4C532.485 2339.15 529.81 2352.56 531.531 2364.94C533.266 2377.4 539.752 2388.72 550.534 2395.82C560.938 2402.81 573.509 2404.12 585.318 2401.06C596.564 2398.15 607.149 2391.1 614.575 2380.38C622.269 2369.85 625.462 2357.54 624.529 2345.96C623.546 2333.81 618.197 2322.36 608.193 2314.82C597.948 2306.96 585.139 2304.54 572.804 2306.98C560.544 2309.4 548.748 2316.31 540.153 2327.4Z" fill="black"/>
<path d="M834.92 2560.21C879.904 2530.59 894.52 2473.4 867.566 2432.46C840.612 2391.53 782.295 2382.35 737.311 2411.97C692.328 2441.59 677.712 2498.79 704.666 2539.73C731.619 2580.66 789.936 2589.83 834.92 2560.21Z" fill="#808080"/>
<path fill-rule="evenodd" clip-rule="evenodd" d="M735.669 2409.48C757.956 2394.14 783.726 2388.28 807.623 2391C833.609 2393.96 857.31 2407.16 872.441 2429.25C887.657 2451.69 891.118 2478.98 884.228 2504.54C877.773 2528.48 862.136 2550.83 838.937 2566.31C815.544 2581.5 788.837 2587.03 764.298 2583.5C738.091 2579.73 714.396 2565.77 699.803 2542.93C685.491 2520.3 682.732 2493.32 690.279 2468.28C697.218 2445.26 712.773 2423.89 735.669 2409.48ZM738.952 2414.47C718.24 2428.72 704.531 2449.07 698.916 2470.7C693.096 2493.13 696.125 2516.95 709.528 2536.52C722.655 2555.87 743.445 2567.15 766.109 2569.95C787.537 2572.59 810.702 2567.6 830.902 2554.11C851.271 2540.88 865.004 2521.57 871.04 2500.84C877.425 2478.92 875.275 2455.37 862.693 2435.67C850.013 2415.63 829.328 2403.44 806.429 2399.92C784.342 2396.53 760.232 2401.08 738.952 2414.47Z" fill="white"/>
<path d="M894.294 2523.86C923.937 2482.21 916.949 2426.37 878.686 2399.14C840.422 2371.9 785.373 2383.58 755.729 2425.22C726.086 2466.87 733.073 2522.71 771.337 2549.94C809.6 2577.18 864.65 2565.5 894.294 2523.86Z" fill="#808080"/>
<path fill-rule="evenodd" clip-rule="evenodd" d="M753.408 2423.57C767.916 2402.27 788.882 2388.27 811.169 2382.6C835.234 2376.47 860.816 2380.16 881.913 2394.6C903.212 2409.32 915.795 2432.31 918.648 2457.29C921.34 2480.85 915.246 2506.15 899.971 2527.9C884.42 2549.45 862.506 2563.49 839.362 2568.66C814.827 2574.14 788.995 2569.77 768.117 2554.47C747.563 2539.26 735.705 2516.3 733.615 2491.56C731.68 2468.65 738.036 2444.25 753.408 2423.57ZM758.048 2426.87C744.575 2446.65 739.505 2469.48 742.127 2490.68C744.829 2512.53 755.847 2532.61 774.558 2545.42C792.942 2558.13 815.307 2561.12 836.392 2555.96C856.422 2551.05 875.337 2538.73 888.616 2519.82C902.134 2501.08 907.583 2479.17 905.655 2458.64C903.624 2437.03 893.483 2416.88 875.458 2403.67C857.232 2390.19 834.659 2386.36 813.124 2390.95C792.243 2395.42 772.327 2407.67 758.048 2426.87Z" fill="white"/>
<path d="M859.819 2495.59C874.582 2474.85 871.174 2447.1 852.207 2433.59C833.239 2420.09 805.894 2425.96 791.13 2446.7C776.367 2467.44 779.775 2495.2 798.743 2508.7C817.71 2522.2 845.055 2516.34 859.819 2495.59Z" fill="black"/>
<path fill-rule="evenodd" clip-rule="evenodd" d="M788.864 2445.09C796.114 2433.97 806.779 2426.62 818.164 2423.45C830.744 2419.95 844.169 2421.79 855.361 2429.16C866.749 2436.81 873.516 2448.96 875.115 2462.22C876.613 2474.64 873.368 2488.01 865.365 2499.54C857.08 2510.88 845.511 2518.32 833.29 2520.96C820.241 2523.79 806.547 2521.38 795.595 2513.12C784.964 2504.97 778.838 2492.88 778.03 2479.86C777.296 2468.06 780.743 2455.58 788.864 2445.09ZM793.399 2448.32C787.127 2457.93 784.939 2468.9 786.347 2479.02C787.766 2489.21 793.071 2498.47 801.89 2504.28C810.4 2509.99 820.683 2511.07 830.342 2508.56C839.54 2506.18 848.198 2500.42 854.272 2491.65C860.565 2483.03 863.177 2472.97 862.414 2463.5C861.61 2453.55 857.234 2444.19 849.052 2438.03C840.673 2431.6 830.195 2429.62 820.106 2431.62C810.078 2433.59 800.429 2439.25 793.399 2448.32Z" fill="black"/>
<path d="M762.821 2214.3C815.486 2181.36 830.798 2115.03 797.022 2066.14C763.247 2017.25 693.173 2004.32 640.508 2037.25C587.844 2070.19 572.531 2136.52 606.307 2185.42C640.083 2234.31 710.156 2247.24 762.821 2214.3Z" fill="#808080"/>
<path fill-rule="evenodd" clip-rule="evenodd" d="M638.59 2034.18C665.169 2016.77 696.43 2010.94 725.599 2015.43C756.142 2020.12 784.288 2036.25 802.87 2062.1C821.681 2088.53 826.916 2120.05 820.1 2149.36C813.475 2177.84 795.339 2204.15 767.512 2221.8C739.597 2239 707.195 2244.42 677.253 2238.88C646.526 2233.19 618.457 2216.14 600.54 2189.4C582.853 2162.74 578.455 2131.57 586.044 2102.88C593.271 2075.56 611.242 2050.5 638.59 2034.18ZM642.424 2040.32C617.891 2056.39 602.2 2080.03 596.55 2105.43C590.854 2131.05 595.556 2158.46 612.073 2181.43C628.335 2204.26 653.231 2218.2 680.089 2222.59C706.135 2226.84 734.133 2222.03 758.129 2206.8C782.13 2192 797.798 2169.68 803.963 2145.44C810.324 2120.41 806.677 2093.31 791.174 2070.18C775.474 2046.52 750.776 2031.48 723.718 2026.21C696.867 2020.98 667.725 2025.23 642.424 2040.32Z" fill="white"/>
<path d="M832.435 2174.03C866.303 2126.45 855.836 2060.89 809.056 2027.59C762.276 1994.29 696.898 2005.86 663.029 2053.44C629.161 2101.02 639.628 2166.59 686.408 2199.89C733.188 2233.19 798.567 2221.61 832.435 2174.03Z" fill="#808080"/>
<path fill-rule="evenodd" clip-rule="evenodd" d="M660.279 2051.49C677.267 2026.53 702.636 2010.77 729.857 2005.28C757.827 1999.64 787.718 2004.99 812.882 2022.21C838.27 2039.76 853.969 2066.22 858.688 2094.71C863.38 2123.03 857.095 2153.29 839.165 2178.82C820.906 2204.12 794.366 2219.96 766.075 2224.79C737.618 2229.66 707.475 2223.49 682.59 2205.25C658.08 2187.11 643.244 2160.62 639.417 2132.36C635.69 2104.84 642.274 2075.71 660.279 2051.49ZM665.78 2055.4C650.08 2078.44 645.007 2105.53 649.436 2130.8C653.839 2155.89 667.758 2179.14 690.225 2194.52C712.316 2209.79 738.641 2214.32 763.319 2209.59C787.57 2204.93 810.281 2191.21 825.708 2169.24C841.411 2147.47 846.933 2121.52 843.387 2097.08C839.782 2072.22 826.887 2048.84 805.23 2032.96C783.341 2016.77 756.825 2011.24 731.677 2015.29C706.353 2019.37 682.414 2033.03 665.78 2055.4Z" fill="white"/>
<path d="M802.342 2148.03C824.34 2117.12 817.537 2074.53 787.146 2052.9C756.756 2031.27 714.286 2038.78 692.287 2069.69C670.288 2100.59 677.092 2143.18 707.482 2164.81C737.873 2186.45 780.343 2178.93 802.342 2148.03Z" fill="#FB133A"/>
<path fill-rule="evenodd" clip-rule="evenodd" d="M688.772 2067.19C699.888 2050.13 716.847 2039.3 735.135 2035.25C754.186 2031.03 774.629 2034.55 792.045 2046.02C809.748 2057.91 820.762 2076.11 824.215 2095.75C827.666 2115.36 823.29 2136.38 810.959 2154.16C798.185 2171.63 779.764 2182.64 760.106 2185.8C740.417 2188.96 719.615 2184.52 702.595 2171.68C686.059 2158.99 676.052 2140.82 673.796 2121.45C671.631 2102.84 676.304 2083.28 688.772 2067.19ZM695.813 2072.2C686.297 2086.77 683.561 2103.73 686.625 2119.45C689.612 2134.76 698.444 2148.78 712.37 2157.95C725.818 2166.98 741.724 2169.32 756.576 2166.32C771.065 2163.4 784.576 2155.1 793.732 2141.9C803.209 2128.93 806.607 2113.44 804.627 2098.8C802.601 2083.79 795.176 2069.53 782.248 2059.78C769.026 2049.63 752.899 2045.88 737.454 2048.07C721.601 2050.32 706.473 2058.44 695.813 2072.2Z" fill="black"/>
<path d="M763.542 2099.64C775.083 2099.64 784.439 2090.32 784.439 2078.82C784.439 2067.32 775.083 2058 763.542 2058C752 2058 742.645 2067.32 742.645 2078.82C742.645 2090.32 752.001 2099.64 763.542 2099.64Z" fill="#D1D1D1" stroke="black" stroke-width="12" stroke-miterlimit="1.5" stroke-linecap="round" stroke-linejoin="round"/>
<path fill-rule="evenodd" clip-rule="evenodd" d="M756.803 2508.86L1123.89 2659.89L925.329 2451.02L1450.99 2607.81L1082.7 2364.64L1545.69 2291.63L1114.96 2299.5L2401.45 2054.2L2313.6 1780.24L1065.08 2169.56L1351.16 1878.5L1026.88 2097.56L1149.71 1807.36L915.827 2100.64L947.477 1690.62L778.366 2091.32L666.551 1848.67L616.682 2195.48L436.815 2105.2L539.732 2336.62L290.651 2359.18L551.444 2435.56L533.129 2592.09L642.647 2477.59L809.66 2752.32L756.803 2508.86Z" fill="#E4FFCA" fill-opacity="0.75"/>
<path fill-rule="evenodd" clip-rule="evenodd" d="M756.803 2508.86L809.66 2752.32L642.647 2477.59L533.129 2592.09L551.444 2435.56L290.651 2359.18L539.732 2336.62L436.815 2105.2L616.682 2195.48L666.551 1848.67L778.366 2091.32L947.477 1690.62L915.827 2100.64L1149.71 1807.36L1026.88 2097.56L1351.16 1878.5L1065.08 2169.56L2313.6 1780.24L2401.45 2054.2L1114.96 2299.5L1545.69 2291.63L1082.7 2364.64L1450.99 2607.81L925.329 2451.02L1123.89 2659.89L756.803 2508.86ZM767.454 2482.96L1013.17 2584.06L905.033 2470.31C896.293 2461.11 894.824 2447.19 901.458 2436.37C908.099 2425.56 921.173 2420.56 933.329 2424.18L1277.58 2526.86L1067.27 2388.01C1057.63 2381.64 1052.89 2370 1055.34 2358.71C1057.79 2347.41 1066.93 2338.79 1078.34 2336.99L1141.49 2327.03L1115.47 2327.5C1100.93 2327.77 1088.61 2316.86 1087.11 2302.4C1085.61 2287.93 1095.43 2274.73 1109.71 2272L2365.13 2032.62L2295.42 1815.24L1073.42 2196.29C1061.16 2200.11 1047.87 2195.11 1041.18 2184.15C1034.49 2173.19 1036.11 2159.09 1045.11 2149.93L1135.48 2057.99L1042.56 2120.77C1032.28 2127.71 1018.67 2127.06 1009.09 2119.19C999.515 2111.3 996.262 2098.07 1001.1 2086.65L1044.41 1984.3L937.72 2118.1C930.048 2127.71 917.009 2131.2 905.571 2126.69C894.125 2122.18 886.962 2110.74 887.909 2098.48L906.307 1860.2L804.17 2102.21C799.85 2112.43 789.916 2119.14 778.824 2119.32C767.731 2119.5 757.582 2113.12 752.94 2103.04L680.778 1946.45L644.397 2199.47C643.119 2208.38 637.624 2216.13 629.648 2220.3C621.664 2224.47 612.167 2224.55 604.124 2220.51L494.199 2165.33L565.311 2325.24C568.984 2333.5 568.444 2343.01 563.875 2350.8C559.298 2358.59 551.246 2363.69 542.253 2364.51L440.067 2373.76L559.318 2408.69C572.422 2412.53 580.843 2425.25 579.255 2438.82L570.653 2512.36L622.411 2458.24C628.424 2451.95 637.024 2448.81 645.679 2449.76C654.326 2450.69 662.054 2455.61 666.568 2463.04L746.89 2595.16L729.442 2514.8C727.23 2504.62 730.85 2494.07 738.825 2487.39C746.808 2480.71 757.833 2479 767.454 2482.96Z" fill="#FF4500"/>
<path fill-rule="evenodd" clip-rule="evenodd" d="M1879.28 1979.42L1875.35 1980.55L1873.09 1972.68L1877.03 1971.55C1877.03 1971.55 1967.1 1943.28 2074.52 1910.59C2096 1904.05 2118.18 1897.37 2140.5 1890.8C2162.63 1884.29 2184.86 1877.79 2206.69 1871.69C2237.69 1863.02 2267.82 1854.99 2295.35 1847.71C2372.22 1827.37 2428.78 1813.21 2428.78 1813.21L2432.71 1812.08L2434.97 1819.95L2431.04 1821.08C2431.04 1821.08 2375.57 1839.06 2299.62 1862.58C2272.42 1871.01 2242.62 1880.18 2211.73 1889.27C2189.99 1895.67 2167.7 1901.95 2145.49 1908.16C2123.08 1914.43 2100.73 1920.53 2079.05 1926.38C1970.64 1955.63 1879.28 1979.42 1879.28 1979.42Z" fill="#FF4500"/>
<path fill-rule="evenodd" clip-rule="evenodd" d="M1581.52 2097.46L1577.55 2098.47L1575.54 2090.52L1579.52 2089.53C1579.52 2089.53 1700.85 2056.48 1845.39 2018.15C1874.29 2010.48 1904.14 2002.64 1934.15 1994.89C1963.89 1987.22 1993.78 1979.57 2023.08 1972.32C2064.72 1962.04 2105.13 1952.45 2142.04 1943.74C2245.09 1919.44 2320.86 1902.36 2320.86 1902.36L2324.83 1901.35L2326.83 1909.29L2322.86 1910.29C2322.86 1910.29 2248.06 1931.22 2145.83 1958.75C2109.21 1968.61 2069.08 1979.35 2027.56 1990.06C1998.33 1997.6 1968.39 2005.04 1938.57 2012.41C1908.49 2019.84 1878.5 2027.1 1849.41 2034.07C1703.99 2068.94 1581.52 2097.46 1581.52 2097.46Z" fill="#FF4500"/>
<path fill-rule="evenodd" clip-rule="evenodd" d="M1824.54 2086.91L1820.56 2087.87L1818.63 2079.91L1822.61 2078.95C1822.61 2078.95 1916.57 2053.75 2028.58 2024.72C2050.99 2018.92 2074.11 2012.99 2097.38 2007.18C2120.43 2001.42 2143.6 1995.68 2166.33 1990.32C2198.63 1982.72 2229.99 1975.71 2258.64 1969.37C2338.63 1951.66 2397.46 1939.43 2397.46 1939.43L2401.44 1938.46L2403.37 1946.42L2399.39 1947.39C2399.39 1947.39 2341.5 1963.48 2262.29 1984.41C2233.92 1991.91 2202.84 2000.06 2170.64 2008.1C2147.98 2013.75 2124.77 2019.29 2101.63 2024.73C2078.29 2030.24 2055.03 2035.57 2032.46 2040.68C1919.6 2066.23 1824.54 2086.91 1824.54 2086.91Z" fill="#FF4500"/>
<path fill-rule="evenodd" clip-rule="evenodd" d="M1917.09 2104.02L1913.08 2104.85L1911.42 2096.84L1915.42 2096.01C1915.42 2096.01 2005.48 2074.88 2112.82 2050.73C2134.29 2045.9 2156.45 2040.98 2178.74 2036.17C2200.83 2031.42 2223.02 2026.69 2244.8 2022.32C2275.73 2016.11 2305.76 2010.47 2333.19 2005.37C2409.79 1991.12 2466.09 1981.44 2466.09 1981.44L2470.1 1980.61L2471.76 1988.62L2467.76 1989.45C2467.76 1989.45 2412.26 2003.03 2336.34 2020.52C2309.15 2026.78 2279.36 2033.58 2248.52 2040.22C2226.81 2044.9 2204.57 2049.41 2182.41 2053.86C2160.06 2058.35 2137.78 2062.67 2116.16 2066.81C2008.09 2087.47 1917.09 2104.02 1917.09 2104.02Z" fill="#FF4500"/>
<path fill-rule="evenodd" clip-rule="evenodd" d="M1082.05 -228.631L1079.68 -231.961L1086.34 -236.717L1088.72 -233.382C1088.72 -233.382 1147.76 -154.503 1217.19 -60.1095C1231.08 -41.2387 1245.35 -21.7172 1259.56 -2.03755C1273.65 17.475 1287.77 37.1004 1301.36 56.449C1320.67 83.9487 1339.07 110.789 1355.82 135.338C1402.6 203.869 1436.27 254.557 1436.27 254.557L1438.65 257.892L1431.97 262.643L1429.6 259.304C1429.6 259.304 1392.69 210.924 1343.22 144.317C1325.49 120.467 1306.14 94.3079 1286.47 67.0634C1272.62 47.8902 1258.69 28.1346 1244.85 8.44262C1230.89 -11.4216 1217.12 -31.2939 1203.81 -50.5833C1137.29 -147.051 1082.05 -228.631 1082.05 -228.631Z" fill="#FF4500"/>
<path fill-rule="evenodd" clip-rule="evenodd" d="M810.842 2275.33C1083.38 2223.85 2420.92 1834.05 2420.92 1834.05C1032.37 2227.14 1051.11 2254.84 2438.5 1927.19C2438.5 1927.19 1093.72 2257.83 842.322 2326.69C814.092 2334.42 927.387 2353.33 922.818 2361.78C918.25 2370.22 845.313 2360.02 814.91 2377.37C784.506 2394.72 756.733 2464.91 740.397 2465.87C724.061 2466.83 741.083 2397.25 716.894 2383.11C692.705 2368.98 601.476 2395.54 595.264 2381.06C589.052 2366.57 669.98 2325.29 679.622 2296.22C689.263 2267.16 644.201 2216.35 653.111 2206.66C662.022 2196.97 709.421 2245.36 733.085 2238.09C756.749 2230.83 782.135 2156.87 795.094 2163.07C808.054 2169.28 773.712 2282.35 810.842 2275.33Z" fill="#FFD635" fill-opacity="0.3"/>
<path fill-rule="evenodd" clip-rule="evenodd" d="M1711.38 647.052C1585.84 484.16 1044.32 -403.537 1044.32 -403.537C1612.79 510.565 1587.17 519.468 983.758 -351.971C983.758 -351.971 1561.54 501.104 1665.71 665.114C1677.41 683.53 1603.3 641.755 1601.28 649.368C1599.26 656.975 1645.9 685.138 1653.59 710.779C1661.29 736.421 1638.76 794.813 1647.44 803.209C1656.12 811.605 1684.37 758.725 1705.69 761.143C1727 763.567 1763.95 824.096 1775.33 817.736C1786.71 811.369 1763.57 746.272 1773.95 722.974C1784.32 699.683 1837.34 688.442 1837.59 677.964C1837.84 667.485 1784.82 676.057 1775.44 660.111C1766.06 644.172 1791.98 584.49 1781.31 582.309C1770.63 580.135 1728.48 669.249 1711.38 647.052Z" fill="#FFD635" fill-opacity="0.3"/>
</g>
<defs>
<clipPath id="clip0_917_3">
<rect width="2160" height="2700" fill="white"/>
</clipPath>
</defs>
</svg>
