<svg width="2160" height="2700" viewBox="0 0 2160 2700" fill="none" xmlns="http://www.w3.org/2000/svg">
<g clip-path="url(#clip0_2007_27715)">
<path fill-rule="evenodd" clip-rule="evenodd" d="M239.938 2884.03C195.568 2943.04 111.636 2954.93 52.6259 2910.56C-6.38509 2866.19 -18.2711 2782.26 26.0989 2723.25C26.0989 2723.25 101.175 2624.63 168.542 2518.54C194.946 2476.96 220.608 2434.47 238.731 2396.54C247.331 2378.54 257.564 2349.33 257.564 2349.33C257.564 2349.33 257.733 2352.66 257.746 2354.08C257.799 2321.09 230.992 2258 204.022 2189.62C147.6 2046.59 76.4219 1890.02 76.4219 1890.02C72.8129 1883.33 69.9439 1876.26 67.8659 1868.94C67.8659 1868.94 53.3649 1789.76 46.1179 1692.49C43.1559 1652.74 41.8379 1613.14 42.3509 1572.56C43.6669 1468.5 52.4969 1383.81 65.9899 1370.29C64.4719 1377.58 71.1319 1392.07 81.5609 1416.06C106.957 1474.47 158.436 1565.03 200.31 1652.56C228.436 1711.35 250.402 1764.25 261.455 1791.76C271.293 1807.83 384.091 1992.91 452.764 2144.47C490.612 2228.01 511.567 2305 513.542 2348.12C515.329 2395.87 491.305 2474.62 447.75 2558.69C371.331 2706.2 239.938 2884.03 239.938 2884.03Z" fill="#808080" stroke="white" stroke-width="8" stroke-miterlimit="2" stroke-linejoin="round"/>
<path fill-rule="evenodd" clip-rule="evenodd" d="M257.189 1865.21C269.499 1887.25 464.393 2238 461.966 2277.8L445.668 2289.19C459.128 2266.98 235.741 1826.82 257.189 1865.21Z" fill="white" fill-opacity="0.7"/>
<path fill-rule="evenodd" clip-rule="evenodd" d="M463.113 2408.65C451.177 2430.89 260.681 2784.05 225.843 2803.45L207.467 2795.86C233.43 2795.23 483.9 2369.9 463.113 2408.65Z" fill="white" fill-opacity="0.7"/>
<path fill-rule="evenodd" clip-rule="evenodd" d="M69.9149 1445.59C76.6974 1462.45 183.945 1730.7 179.345 1759.43L167.366 1766.56C178.205 1751.37 58.0968 1416.22 69.9149 1445.59Z" fill="white" fill-opacity="0.7"/>
<path d="M74.9863 1884.48L97.9083 1841.14L120.865 1891.64L237.635 1836.31L218.783 1785.88L253.298 1778.46" stroke="white" stroke-width="12" stroke-miterlimit="1.5" stroke-linecap="round" stroke-linejoin="round"/>
<path d="M180.767 1907.07C205.31 1907.07 225.206 1884.75 225.206 1857.21C225.206 1829.67 205.31 1807.34 180.767 1807.34C156.224 1807.34 136.328 1829.67 136.328 1857.21C136.328 1884.75 156.224 1907.07 180.767 1907.07Z" fill="#FAF6B0" stroke="#FF7418" stroke-width="12" stroke-miterlimit="1.5" stroke-linecap="round" stroke-linejoin="round"/>
<path d="M273.089 2352.87L317.388 2373.88L305.564 2319.68L432.23 2294.14L447.301 2345.82L503.264 2303.38" stroke="white" stroke-width="12" stroke-miterlimit="1.5" stroke-linecap="round" stroke-linejoin="round"/>
<path d="M355.625 2362.28C379.383 2368.44 404.242 2351.81 411.148 2325.15C418.055 2298.49 404.393 2271.89 380.634 2265.74C356.875 2259.58 332.017 2276.21 325.11 2302.87C318.204 2329.53 331.866 2356.13 355.625 2362.28Z" fill="#FAF6B0" stroke="#FF7418" stroke-width="12" stroke-miterlimit="1.5" stroke-linecap="round" stroke-linejoin="round"/>
<path fill-rule="evenodd" clip-rule="evenodd" d="M48.0035 1493.79C48.0035 1493.79 88.0956 1713.46 125.519 1818.51C169.983 1943.32 314.79 2242.67 314.79 2242.67C314.79 2242.67 336.284 2192.19 345.688 2217.19C364.497 2267.19 380.306 2358.26 357.51 2404.45C323.317 2473.75 296.804 2488.64 296.804 2488.64L161.944 2754.51L7.31055 2751.72C95.8535 2619.06 188.979 2501.85 258.002 2339.47L72.2596 1874.59C41.7336 1747.86 36.0245 1589.59 48.0035 1493.79Z" fill="black" fill-opacity="0.3"/>
<path fill-rule="evenodd" clip-rule="evenodd" d="M1697.93 3027.51C1633.28 3079.22 1538.81 3068.71 1487.1 3004.05C1435.39 2939.4 1445.9 2844.93 1510.55 2793.22C1510.55 2793.22 1618.33 2712.99 1729.24 2606.05C1795.16 2542.49 1864.55 2471.56 1907.73 2399.82C1932.78 2361 1950.62 2315.21 1965.61 2267.35C1981.66 2216.1 1996.1 2166.05 2008.48 2116.74C2020.07 2070.58 2032.1 2032.38 2041.79 1994.97C2062.71 1914.17 2075.02 1866.83 2075.02 1866.83C2075.02 1866.83 2100.73 1907.43 2129.11 1984.3C2148.84 2037.74 2165.92 2099.79 2175.59 2172.93C2182.83 2227.72 2180.01 2284.06 2173.94 2339.89C2167.11 2402.76 2147.58 2461.71 2124.11 2515.39C2088.12 2592.45 2032.66 2672.42 1972.79 2746.31C1845.95 2902.86 1697.93 3027.51 1697.93 3027.51Z" fill="#808080" stroke="white" stroke-width="8" stroke-miterlimit="2" stroke-linejoin="round"/>
<path fill-rule="evenodd" clip-rule="evenodd" d="M2134.87 2497.27C2007.27 2660.71 1809.18 2811.77 1627.65 2901.39L1795.89 2999.47C1912.13 2854.53 2045.38 2659.39 2134.87 2497.27Z" fill="black" fill-opacity="0.3"/>
<path d="M2129.4 2485.09L2088.13 2416.37L2065.18 2466.87L1948.41 2411.54L1967.26 2361.11L1932.74 2353.69" stroke="white" stroke-width="12" stroke-miterlimit="1.5" stroke-linecap="round" stroke-linejoin="round"/>
<path d="M2005.27 2482.3C1980.73 2482.3 1960.83 2459.98 1960.83 2432.44C1960.83 2404.9 1980.73 2382.57 2005.27 2382.57C2029.82 2382.57 2049.71 2404.9 2049.71 2432.44C2049.71 2459.98 2029.82 2482.3 2005.27 2482.3Z" fill="#FAF6B0" stroke="#FF7418" stroke-width="12" stroke-miterlimit="1.5" stroke-linecap="round" stroke-linejoin="round"/>
<path d="M1926.9 2758.43L1877.94 2755.77L1914.18 2713.77L1815.03 2630.91L1777.13 2669.15L1748.18 2605.16" stroke="white" stroke-width="12" stroke-miterlimit="1.5" stroke-linecap="round" stroke-linejoin="round"/>
<path d="M1849.86 2727.34C1826.04 2721.42 1812.12 2694.95 1818.76 2668.23C1825.41 2641.5 1850.1 2624.63 1873.92 2630.56C1897.74 2636.48 1911.66 2662.94 1905.01 2689.67C1898.37 2716.4 1873.68 2733.26 1849.86 2727.34Z" fill="#FAF6B0" stroke="#FF7418" stroke-width="12" stroke-miterlimit="1.5" stroke-linecap="round" stroke-linejoin="round"/>
<path fill-rule="evenodd" clip-rule="evenodd" d="M2081.77 1937.44C2083.94 1952.32 2073.18 2018.97 2089.94 2152.44C2101.33 2243.17 2085.21 2340.46 2065.49 2380.92L2039.8 2361.28C2059.43 2337.01 2078.4 2251.3 2073.51 2169.53C2064.75 2023.13 2077.69 1909.53 2081.77 1937.44Z" fill="white" fill-opacity="0.7"/>
<path fill-rule="evenodd" clip-rule="evenodd" d="M1973.89 2490.26L2009.19 2503.64C1951.5 2559.51 1948.41 2601.34 1917.42 2630.89L1897.33 2612.2C1947.25 2577.62 1971.35 2536.62 1973.89 2490.26Z" fill="white" fill-opacity="0.7"/>
</g>
<defs>
<clipPath id="clip0_2007_27715">
<rect width="2160" height="2700" fill="white"/>
</clipPath>
</defs>
</svg>
