<svg width="2160" height="2700" viewBox="0 0 2160 2700" fill="none" xmlns="http://www.w3.org/2000/svg">
<g clip-path="url(#clip0_993_2101)">
<path fill-rule="evenodd" clip-rule="evenodd" d="M1544.48 2338.02C1544.48 2338.02 1418.87 2387.55 1307.95 2345.3C1246.44 2321.87 1170.05 2196.98 1176.48 2129.7C1182.91 2062.41 1211.65 1992.48 1276.57 1951.3C1386.06 1881.85 1509.95 1944.32 1509.95 1944.32L1654.24 2298.4L1544.48 2338.02Z" fill="black" fill-opacity="0.3"/>
<path fill-rule="evenodd" clip-rule="evenodd" d="M478.325 2291.13C478.325 2291.13 511.285 2371.61 527.239 2375.97C595.804 2394.73 690.399 2325.54 721.324 2322.26C749.781 2319.23 777.367 2268.38 800.005 2222.66C830.492 2161.09 815.171 2070.33 803.597 2034.47C769.452 1928.69 668.513 1924.9 668.513 1924.9L478.325 2291.13Z" fill="black" fill-opacity="0.3"/>
<path d="M2185.76 2504.56C2213.59 2504.56 2236.15 2530.26 2236.15 2561.97C2236.15 2593.68 2213.59 2619.39 2185.76 2619.39C2157.93 2619.39 2135.37 2593.68 2135.37 2561.97C2135.37 2530.26 2157.93 2504.56 2185.76 2504.56Z" fill="#3C3C3C" stroke="white" stroke-width="4.53434" stroke-miterlimit="1.5" stroke-linecap="round" stroke-linejoin="round"/>
<path d="M1995.8 2644.6C2023.63 2644.6 2046.19 2670.31 2046.19 2702.02C2046.19 2733.73 2023.63 2759.43 1995.8 2759.43C1967.97 2759.43 1945.41 2733.73 1945.41 2702.02C1945.41 2670.31 1967.97 2644.6 1995.8 2644.6Z" fill="#3C3C3C" stroke="white" stroke-width="4.53434" stroke-miterlimit="1.5" stroke-linecap="round" stroke-linejoin="round"/>
<path d="M2061.14 2836.1L1946.71 2662.52L2170.39 2468.83L2284.81 2642.41L2061.14 2836.1Z" fill="#8D8D8D" stroke="white" stroke-width="5.51983" stroke-miterlimit="1.5" stroke-linecap="round" stroke-linejoin="round"/>
<path d="M2201.5 2750.54L2056.84 2531.09L2134.74 2463.64L2279.4 2683.08L2201.5 2750.54Z" fill="#8D8D8D" stroke="white" stroke-width="9.70656" stroke-miterlimit="1.5" stroke-linecap="round" stroke-linejoin="round"/>
<path d="M2094.93 2839.07L1944.64 2611.09L2022.54 2543.63L2172.83 2771.61L2094.93 2839.07Z" fill="#8D8D8D" stroke="white" stroke-width="9.81848" stroke-miterlimit="1.5" stroke-linecap="round" stroke-linejoin="round"/>
<path fill-rule="evenodd" clip-rule="evenodd" d="M2184.39 2656.03L1950.23 2185.56L1783.34 2325.87L2085.63 2711.24L2184.39 2656.03Z" fill="#8D8D8D" stroke="white" stroke-width="10.3033" stroke-miterlimit="1.5" stroke-linecap="round" stroke-linejoin="round"/>
<path fill-rule="evenodd" clip-rule="evenodd" d="M2070.36 2509.27C2073.17 2507.82 2079.06 2505.27 2085.17 2505.64C2089.11 2505.89 2093.07 2507.38 2096.54 2510.81C2101.82 2516.05 2100.97 2520.92 2098.18 2524.93C2094.35 2530.42 2084.78 2533.97 2081.94 2534.34C2080.03 2534.59 2077.46 2533.55 2075.12 2530.95C2072.41 2527.91 2069.48 2522.24 2068.01 2519.21C2064.68 2517.9 2056.65 2514.73 2046.38 2510.45C2039.46 2507.56 2031.5 2504.17 2023.28 2500.5C2014.16 2496.44 2004.74 2492.02 1995.88 2487.84C1973.59 2477.32 1955.05 2468.18 1955.05 2468.18L1952.8 2467.22L1954.72 2462.75L1956.96 2463.7C1956.96 2463.7 1976.39 2470.77 1999.4 2479.6C2008.54 2483.11 2018.26 2486.86 2027.5 2490.64C2035.84 2494.04 2043.78 2497.44 2050.65 2500.44C2059.46 2504.29 2066.5 2507.5 2070.36 2509.27ZM2075.78 2512.6C2075.95 2512.87 2076.11 2513.15 2076.22 2513.44C2076.22 2513.44 2080.1 2528.82 2082.62 2525.77C2082.95 2525.36 2082 2525.46 2081.41 2525.52C2083.57 2525.25 2089.42 2523.48 2092.01 2520.29C2093.04 2519.02 2093.09 2517.44 2091.45 2515.56C2088.85 2512.55 2085.53 2511.59 2082.37 2511.58C2079.97 2511.59 2077.67 2512.05 2075.78 2512.6ZM2081.41 2525.52C2081.29 2525.53 2081.19 2525.54 2081.1 2525.54C2081.17 2525.54 2081.28 2525.53 2081.41 2525.52Z" fill="#00394E"/>
<path fill-rule="evenodd" clip-rule="evenodd" d="M2014.42 2439.47L2016.68 2438.55L2018.52 2443.06L2016.26 2443.98C2016.26 2443.98 1997.72 2452.99 1981.47 2460.49C1974.56 2463.67 1968.08 2466.57 1963.69 2468.51C1966.14 2472.9 1969.8 2479.6 1973.54 2486.9C1982.1 2503.62 1991.11 2523.28 1991.11 2523.28L1992.3 2525.4L1988.06 2527.8L1986.87 2525.67C1986.87 2525.67 1974.72 2507.78 1964.85 2491.8C1957.34 2479.64 1951.26 2468.61 1951.26 2468.61C1950.49 2467.25 1950.35 2465.62 1950.86 2464.15C1951.38 2462.68 1952.5 2461.49 1953.95 2460.9C1953.95 2460.9 1965.16 2456.6 1978.01 2452.01C1994.87 2446 2014.42 2439.47 2014.42 2439.47Z" fill="#00394E"/>
<path fill-rule="evenodd" clip-rule="evenodd" d="M2012.24 2443.71C2012.23 2443.7 2012.23 2443.7 2012.22 2443.7C2008.6 2441.4 2005.39 2438.12 2005.39 2438.12L2003.12 2437.22L2004.95 2432.69L2007.2 2433.61C2007.2 2433.61 2011.8 2433.48 2015.99 2434.34C2018.94 2434.94 2021.34 2436.11 2021.34 2436.11C2022.88 2436.72 2024.05 2438.02 2024.51 2439.62C2024.97 2441.21 2024.68 2442.93 2023.71 2444.28C2023.71 2444.28 2022.11 2446.02 2020.06 2447.84C2017.24 2450.34 2013.97 2452.74 2013.97 2452.74L2012.55 2454.72L2008.58 2451.88L2010.01 2449.91C2010.01 2449.91 2010.99 2446.83 2012.24 2443.71Z" fill="#00394E"/>
<path fill-rule="evenodd" clip-rule="evenodd" d="M1986.06 2519.41C1987.2 2516.96 1988.37 2514.82 1988.37 2514.82L1988.72 2512.41L1993.55 2513.12L1993.19 2515.53C1993.19 2515.53 1993.91 2518.87 1994.28 2522.09C1994.54 2524.42 1994.54 2526.4 1994.54 2526.4C1994.32 2527.91 1993.46 2529.25 1992.19 2530.09C1990.91 2530.94 1989.34 2531.18 1987.86 2530.79C1987.86 2530.79 1987.04 2530.78 1985.87 2530.42C1985.03 2530.17 1984.06 2529.78 1983.06 2529.23C1979.61 2527.34 1976.45 2524.71 1976.45 2524.71L1974.1 2524.08L1975.37 2519.37L1977.72 2520C1977.72 2520 1981.77 2519.3 1985.7 2519.4C1985.82 2519.4 1985.94 2519.4 1986.06 2519.41Z" fill="#00394E"/>
<path fill-rule="evenodd" clip-rule="evenodd" d="M2053.49 2532.22L2053.04 2534.61L2048.25 2533.73L2048.69 2531.33C2048.69 2531.33 2048.66 2524.85 2049.22 2516.42C2049.43 2513.29 2049.63 2509.93 2050.19 2506.59C2050.75 2503.26 2051.58 2499.99 2052.49 2497.01C2054.94 2488.86 2057.63 2482.94 2057.63 2482.94L2058.07 2480.55L2062.85 2481.43L2062.41 2483.83C2062.41 2483.83 2062.81 2490.31 2062.2 2498.8C2061.97 2501.91 2061.59 2505.26 2060.92 2508.57C2060.25 2511.89 2059.24 2515.1 2058.32 2518.1C2055.83 2526.17 2053.49 2532.22 2053.49 2532.22Z" fill="#00394E"/>
<path d="M2084.68 2230.33L1928.85 2070.93L1619.49 2264.35L1775.33 2423.75L2084.68 2230.33Z" fill="#8D8D8D" stroke="white" stroke-width="9.37895" stroke-miterlimit="1.5" stroke-linecap="round" stroke-linejoin="round"/>
<path d="M1350.74 2033.12C1373.26 2207.53 1538.94 2342.19 1720.81 2333.89C1902.68 2325.59 2031.85 2177.48 2009.33 2003.07C1986.81 1828.66 1821.13 1694 1639.26 1702.3C1457.39 1710.6 1328.22 1858.71 1350.74 2033.12Z" fill="#292929" stroke="#D50409" stroke-width="59.9337" stroke-miterlimit="1.5" stroke-linecap="round" stroke-linejoin="round"/>
<path fill-rule="evenodd" clip-rule="evenodd" d="M1670.71 1735.01C1815.88 1740.67 1869.48 1862.14 1869.48 1985.46C1869.48 2108.78 1799.17 2245.64 1674.25 2245.64C1549.32 2245.64 1423.67 2106.14 1423.67 1982.82C1423.67 1859.5 1545.88 1730.15 1670.71 1735.01ZM1660.44 1833.89C1722.91 1833.89 1740.8 1899.81 1740.8 1961.46C1740.8 2023.13 1723.12 2098.27 1660.66 2098.27C1598.2 2098.27 1545.44 2024.88 1545.44 1963.23C1545.44 1901.56 1597.98 1833.89 1660.44 1833.89Z" fill="#505050"/>
<path fill-rule="evenodd" clip-rule="evenodd" d="M1670.88 1730.9C1744.66 1733.11 1795.56 1764.89 1828.36 1811.58C1861.64 1858.94 1876.13 1921.9 1876.63 1985.46C1877.12 2059.54 1852.74 2138.5 1806.82 2191.39C1773.45 2229.84 1728.78 2254.59 1674.25 2254.82C1609.22 2254.8 1543.71 2218.83 1495.02 2166.21C1446.91 2114.22 1415.4 2046.25 1415.8 1982.82C1416.37 1919.57 1447.88 1854.9 1495.61 1806.93C1543.3 1758.99 1606.95 1727.73 1670.88 1730.9ZM1670.71 1735.01C1545.88 1730.15 1423.67 1859.5 1423.67 1982.82C1423.67 2106.14 1549.32 2245.65 1674.25 2245.65C1799.17 2245.64 1869.48 2108.78 1869.48 1985.46C1869.48 1862.14 1815.88 1740.67 1670.71 1735.01ZM1660.44 1833.89C1722.91 1833.89 1740.8 1899.81 1740.8 1961.46C1740.8 2023.13 1723.12 2098.27 1660.66 2098.27C1598.21 2098.27 1545.44 2024.88 1545.44 1963.23C1545.44 1901.56 1597.99 1833.89 1660.44 1833.89ZM1660.44 1838C1630.32 1838.66 1603.11 1855.92 1583.56 1880.24C1564.55 1903.88 1552.83 1934.32 1553.36 1963.23C1553.71 1991.81 1566.42 2022.74 1585.81 2047C1605.25 2071.31 1631.64 2089.12 1660.66 2089.11C1683.98 2089.33 1700.1 2077.27 1711.15 2059.42C1727.36 2033.22 1733.26 1995.27 1733.72 1961.46C1734.29 1927.17 1729.39 1891.37 1713.4 1867.04C1702.06 1849.78 1685.08 1838.46 1660.44 1838Z" fill="black"/>
<path fill-rule="evenodd" clip-rule="evenodd" d="M1393.33 1830.86C1444.79 2189.87 1610.21 2270.45 1969.23 2195.36C2000.74 2212.82 1973.09 2307.24 1940.97 2316.98C1994.7 2460.04 2054.89 2589.31 2124.5 2698.45L2005.2 2738.12L1955.19 2667.93L1972.9 2653.67L1962.48 2633.36L1995.19 2599.54L1988.54 2580.55L1837.24 2388.13L1775.49 2426.08L1689.27 2330.89C1454.55 2351.09 1271.8 2054.15 1393.33 1830.86Z" fill="black" fill-opacity="0.4"/>
<path d="M1729.69 1825.19C1732.97 1850.54 1759.93 1869.99 1789.92 1868.62C1819.91 1867.25 1841.56 1845.59 1838.29 1820.23C1835.02 1794.88 1808.05 1775.43 1778.06 1776.8C1748.08 1778.17 1726.42 1799.83 1729.69 1825.19Z" fill="white"/>
<path d="M1826.69 1900.64C1828.95 1918.11 1843.75 1931.68 1859.77 1930.95C1875.78 1930.22 1886.93 1915.47 1884.67 1898C1882.41 1880.53 1867.61 1866.96 1851.6 1867.69C1835.59 1868.42 1824.44 1883.17 1826.69 1900.64Z" fill="white"/>
<path d="M238.991 2587.02C264.212 2587.02 284.658 2564.95 284.658 2537.72C284.658 2510.49 264.212 2488.42 238.991 2488.42C213.77 2488.42 193.324 2510.49 193.324 2537.72C193.324 2564.95 213.77 2587.02 238.991 2587.02Z" fill="#3C3C3C" stroke="white" stroke-width="4" stroke-miterlimit="1.5" stroke-linecap="round" stroke-linejoin="round"/>
<path fill-rule="evenodd" clip-rule="evenodd" d="M280.665 2540.81C281.148 2544.55 277.162 2556.12 275.018 2556.21C272.874 2556.31 276.966 2545.43 276.483 2541.69C276 2537.95 275.076 2530.41 277.22 2530.31C279.364 2530.21 280.182 2537.08 280.665 2540.81Z" fill="white" stroke="white" stroke-width="1.38316" stroke-miterlimit="1.5" stroke-linecap="round" stroke-linejoin="round"/>
<path d="M66.831 2466.77C92.0522 2466.77 112.498 2444.7 112.498 2417.47C112.498 2390.25 92.0522 2368.18 66.831 2368.18C41.6098 2368.18 21.1641 2390.25 21.1641 2417.47C21.1641 2444.7 41.6099 2466.77 66.831 2466.77Z" fill="#3C3C3C" stroke="white" stroke-width="4" stroke-miterlimit="1.5" stroke-linecap="round" stroke-linejoin="round"/>
<path d="M-4.24486 2471.31L108.918 2349.3L302.08 2486.33L188.918 2608.33L-4.24486 2471.31Z" fill="#8D8D8D" stroke="white" stroke-width="4.96523" stroke-miterlimit="1.5" stroke-linecap="round" stroke-linejoin="round"/>
<path d="M88.9908 2564.15L232.055 2409.9L299.326 2457.62L156.263 2611.86L88.9908 2564.15Z" fill="#8D8D8D" stroke="white" stroke-width="7.76463" stroke-miterlimit="1.5" stroke-linecap="round" stroke-linejoin="round"/>
<path d="M-0.12687 2498.15L148.504 2337.9L215.776 2385.62L67.1449 2545.87L-0.12687 2498.15Z" fill="#8D8D8D" stroke="white" stroke-width="7.85413" stroke-miterlimit="1.5" stroke-linecap="round" stroke-linejoin="round"/>
<path fill-rule="evenodd" clip-rule="evenodd" d="M75.0639 2465.05L350.906 2115.7L457.757 2224.68L155.246 2522.37L75.0639 2465.05Z" fill="#8D8D8D" stroke="white" stroke-width="7.89463" stroke-miterlimit="1.5" stroke-linecap="round" stroke-linejoin="round"/>
<path fill-rule="evenodd" clip-rule="evenodd" d="M112.402 2448.21L157.848 2497.64L165.623 2485.67L118.998 2438.64L112.402 2448.21Z" fill="#FF8184"/>
<path fill-rule="evenodd" clip-rule="evenodd" d="M109.396 2446.13L115.119 2435.96C115.915 2434.81 117.185 2434.07 118.583 2433.94C119.98 2433.82 121.361 2434.32 122.348 2435.32C122.348 2435.32 138.715 2448.98 152.378 2461.5C162.76 2471.02 171.454 2479.89 171.454 2479.89C174.174 2482.64 174.613 2486.9 172.508 2490.14L164.432 2501.92C163.11 2503.95 160.922 2505.26 158.505 2505.46C156.088 2505.66 153.713 2504.74 152.071 2502.95L109.714 2450.68C108.56 2449.42 108.428 2447.54 109.396 2446.13ZM112.404 2448.21L157.85 2497.64L165.625 2485.67L119 2438.64L112.404 2448.21Z" fill="#AB0307"/>
<path fill-rule="evenodd" clip-rule="evenodd" d="M147.429 2413.48L111.313 2451.82L120.369 2458.08L154.675 2418.8L147.429 2413.48Z" fill="#FF8184"/>
<path fill-rule="evenodd" clip-rule="evenodd" d="M149.136 2411.16L156.869 2415.81C157.702 2416.42 158.243 2417.36 158.361 2418.39C158.471 2419.42 158.148 2420.45 157.462 2421.23C157.462 2421.23 147.677 2434.87 138.608 2446.31C131.716 2455 125.236 2462.33 125.236 2462.33C123.07 2464.8 119.393 2465.26 116.692 2463.39L107.795 2456.91C106.312 2455.88 105.355 2454.26 105.162 2452.47C104.97 2450.68 105.576 2448.89 106.811 2447.58L145.337 2411.51C146.331 2410.45 147.962 2410.3 149.136 2411.16ZM147.429 2413.48L111.313 2451.82L120.369 2458.07L154.675 2418.8L147.429 2413.48Z" fill="#AB0307"/>
<path fill-rule="evenodd" clip-rule="evenodd" d="M161.122 2435.56L131.776 2469.86L145.86 2483.64L167.031 2440.33L161.122 2435.56Z" fill="#FF8184"/>
<path fill-rule="evenodd" clip-rule="evenodd" d="M162.682 2433.63L168.983 2437.92C170.113 2438.83 170.46 2440.4 169.824 2441.7C169.824 2441.7 164.195 2456.15 158.859 2468.53C154.8 2477.95 150.892 2486.1 150.892 2486.1C150.105 2487.72 148.584 2488.86 146.81 2489.16C145.036 2489.47 143.226 2488.9 141.944 2487.65L128.205 2473.51C126.284 2471.63 126.15 2468.58 127.895 2466.54L159.244 2433.95C160.117 2432.93 161.639 2432.79 162.682 2433.63ZM161.123 2435.56L131.777 2469.86L145.862 2483.64L167.033 2440.33L161.123 2435.56Z" fill="#AB0307"/>
<path fill-rule="evenodd" clip-rule="evenodd" d="M165.212 2423.51L193.194 2453.57L199.338 2446.62L170.406 2417.97L165.212 2423.51Z" fill="#FF8184"/>
<path fill-rule="evenodd" clip-rule="evenodd" d="M163.406 2421.81L168.048 2415.75C168.645 2415.12 169.474 2414.75 170.347 2414.73C171.22 2414.71 172.062 2415.05 172.683 2415.66C172.683 2415.66 182.894 2423.88 191.404 2431.48C197.864 2437.25 203.255 2442.66 203.255 2442.66C205.351 2444.74 205.462 2448.09 203.509 2450.3L197.169 2457.08C196.178 2458.2 194.76 2458.85 193.264 2458.87C191.768 2458.89 190.334 2458.28 189.314 2457.18L163.401 2425.2C162.513 2424.24 162.516 2422.76 163.406 2421.81ZM165.214 2423.5L193.196 2453.57L199.34 2446.61L170.407 2417.96L165.214 2423.5Z" fill="#AB0307"/>
<path fill-rule="evenodd" clip-rule="evenodd" d="M180.31 2398.76L213.502 2427.91L219.646 2420.96L185.504 2393.22L180.31 2398.76Z" fill="#FF8184"/>
<path fill-rule="evenodd" clip-rule="evenodd" d="M178.502 2397.07L183.176 2391.04C184.32 2389.81 186.215 2389.69 187.515 2390.74C187.515 2390.74 199.319 2398.57 209.245 2405.86C216.784 2411.4 223.152 2416.64 223.152 2416.64C224.328 2417.6 225.063 2418.99 225.188 2420.5C225.312 2422.01 224.817 2423.51 223.813 2424.64L217.486 2431.43C215.546 2433.63 212.194 2433.84 209.992 2431.91L178.675 2400.63C178.171 2400.18 177.868 2399.56 177.835 2398.89C177.803 2398.22 178.044 2397.56 178.502 2397.07ZM180.31 2398.76L213.501 2427.91L219.646 2420.96L185.504 2393.22L180.31 2398.76Z" fill="#AB0307"/>
<path fill-rule="evenodd" clip-rule="evenodd" d="M212.045 2413.55L185.849 2450.31L193.702 2455.26L218.354 2417.78L212.045 2413.55Z" fill="#FF8184"/>
<path fill-rule="evenodd" clip-rule="evenodd" d="M213.427 2411.49L220.124 2415.14C221.574 2416.11 221.965 2418.07 221.012 2419.53C221.012 2419.53 214.264 2432.29 207.871 2443.1C203.016 2451.32 198.347 2458.31 198.347 2458.31C196.68 2460.85 193.295 2461.58 190.736 2459.96L183.008 2454.82C181.768 2454.04 180.904 2452.78 180.626 2451.34C180.341 2449.91 180.661 2448.41 181.509 2447.22L210.03 2412.11C210.809 2411.02 212.313 2410.74 213.427 2411.49ZM212.044 2413.55L185.848 2450.31L193.7 2455.26L218.353 2417.78L212.044 2413.55Z" fill="#AB0307"/>
<path fill-rule="evenodd" clip-rule="evenodd" d="M218.253 2342.48L186.854 2372.04L194.707 2376.98L223.001 2343.71L218.253 2342.48Z" fill="#FF8184"/>
<path fill-rule="evenodd" clip-rule="evenodd" d="M218.878 2340.08L223.751 2340.83C224.744 2341.09 225.528 2341.84 225.836 2342.82C226.144 2343.79 225.931 2344.86 225.27 2345.64C225.27 2345.64 217.306 2357.22 209.893 2366.96C204.264 2374.36 198.95 2380.59 198.95 2380.59C197.158 2382.71 194.08 2383.18 191.732 2381.7L184.01 2376.55C182.613 2375.67 181.7 2374.19 181.539 2372.55C181.379 2370.91 181.99 2369.28 183.192 2368.15L216.554 2340.67C217.175 2340.09 218.054 2339.86 218.878 2340.08ZM218.253 2342.48L186.854 2372.04L194.707 2376.98L223.001 2343.71L218.253 2342.48Z" fill="#AB0307"/>
<path fill-rule="evenodd" clip-rule="evenodd" d="M230.186 2360.06L209.553 2390.96L217.406 2395.91L236.495 2364.29L230.186 2360.06Z" fill="#FF8184"/>
<path fill-rule="evenodd" clip-rule="evenodd" d="M231.57 2358L238.33 2361.55C239.787 2362.53 240.22 2364.49 239.314 2365.99C239.314 2365.99 234.332 2376.79 229.476 2385.94C225.796 2392.88 222.168 2398.78 222.168 2398.78C221.397 2400.06 220.14 2400.98 218.687 2401.32C217.234 2401.67 215.703 2401.41 214.437 2400.62L206.741 2395.43C205.54 2394.67 204.693 2393.45 204.395 2392.06C204.096 2390.67 204.378 2389.22 205.165 2388.03L228.13 2358.68C228.492 2358.13 229.062 2357.75 229.708 2357.62C230.354 2357.5 231.022 2357.63 231.57 2358ZM230.187 2360.05L209.554 2390.96L217.407 2395.91L236.495 2364.29L230.187 2360.05Z" fill="#AB0307"/>
<path fill-rule="evenodd" clip-rule="evenodd" d="M255.783 2371.28L232.004 2410.67L239.857 2415.61L261.746 2372.01L255.783 2371.28Z" fill="#FF8184"/>
<path fill-rule="evenodd" clip-rule="evenodd" d="M256.083 2368.82L262.109 2369C263.087 2369.12 263.945 2369.71 264.413 2370.58C264.88 2371.45 264.896 2372.49 264.454 2373.37C264.454 2373.37 258.765 2388.01 253.214 2400.48C248.993 2409.96 244.815 2418.1 244.815 2418.1C244.112 2419.5 242.856 2420.54 241.344 2420.96C239.838 2421.38 238.223 2421.15 236.898 2420.31L229.175 2415.16C226.728 2413.62 225.962 2410.4 227.458 2407.92L253.663 2370C254.165 2369.17 255.117 2368.71 256.083 2368.82ZM255.783 2371.28L232.004 2410.67L239.857 2415.61L261.746 2372.01L255.783 2371.28Z" fill="#AB0307"/>
<path fill-rule="evenodd" clip-rule="evenodd" d="M198.552 2378.99L232.748 2408.46L238.396 2401.1L203.349 2373.1L198.552 2378.99Z" fill="#FF8184"/>
<path fill-rule="evenodd" clip-rule="evenodd" d="M196.632 2377.43L200.886 2371.09C201.987 2369.74 203.973 2369.53 205.335 2370.62C205.335 2370.62 217.424 2378.51 227.599 2385.87C235.33 2391.46 241.869 2396.76 241.869 2396.76C244.235 2398.65 244.654 2402.09 242.81 2404.49L236.973 2411.71C236.081 2412.87 234.751 2413.62 233.294 2413.76C231.837 2413.91 230.382 2413.46 229.273 2412.5L196.936 2380.87C195.92 2379.99 195.785 2378.47 196.632 2377.43ZM198.553 2378.99L232.749 2408.47L238.397 2401.1L203.35 2373.1L198.553 2378.99Z" fill="#AB0307"/>
<path fill-rule="evenodd" clip-rule="evenodd" d="M218.657 2349.18L252.853 2378.66L258.502 2371.29L236.323 2361.54L223.455 2343.29L218.657 2349.18Z" fill="#FF8184"/>
<path fill-rule="evenodd" clip-rule="evenodd" d="M216.738 2347.62L220.999 2341.29C221.625 2340.52 222.575 2340.09 223.566 2340.12C224.556 2340.16 225.474 2340.65 226.046 2341.46C226.046 2341.46 239.217 2357.43 239.215 2357.42C241.059 2358.09 245.36 2359.68 249.616 2361.41C255.227 2363.69 260.738 2366.21 260.738 2366.21C262.298 2366.9 263.457 2368.26 263.88 2369.91C264.303 2371.57 263.944 2373.32 262.907 2374.67L257.06 2381.88C256.172 2383.03 254.847 2383.78 253.396 2383.92C251.945 2384.08 250.498 2383.62 249.393 2382.67L217.041 2351.06C216.025 2350.18 215.89 2348.66 216.738 2347.62ZM218.658 2349.18L252.854 2378.65L258.503 2371.29L236.324 2361.54L223.456 2343.29L218.658 2349.18Z" fill="#AB0307"/>
<path fill-rule="evenodd" clip-rule="evenodd" d="M252.383 2293L234.648 2316.91L240.14 2322.68L258.686 2297.24L252.383 2293Z" fill="#FF8184"/>
<path fill-rule="evenodd" clip-rule="evenodd" d="M253.762 2290.94L260.607 2294.38C261.379 2294.9 261.908 2295.72 262.075 2296.64C262.236 2297.56 262.016 2298.5 261.468 2299.26C261.468 2299.26 256.597 2308.16 251.817 2315.6C248.203 2321.23 244.615 2325.94 244.615 2325.94C243.654 2327.26 242.144 2328.09 240.506 2328.2C238.868 2328.31 237.266 2327.68 236.134 2326.5L230.902 2320.48C229.17 2318.65 228.992 2315.85 230.495 2313.83L250.391 2291.52C251.18 2290.46 252.667 2290.21 253.762 2290.94ZM252.385 2293L234.65 2316.91L240.142 2322.68L258.688 2297.23L252.385 2293Z" fill="#AB0307"/>
<path fill-rule="evenodd" clip-rule="evenodd" d="M276.294 2307.24L252.49 2337.58L259.733 2348.6L280.67 2309.94L276.294 2307.24Z" fill="#FF8184"/>
<path fill-rule="evenodd" clip-rule="evenodd" d="M277.598 2305.14L282.243 2307.4C283.593 2308.23 284.058 2309.97 283.3 2311.37C283.3 2311.37 277.881 2324.44 272.598 2335.57C268.588 2344.02 264.628 2351.25 264.628 2351.25C263.698 2352.97 261.924 2354.08 259.972 2354.16C258.014 2354.25 256.156 2353.3 255.08 2351.66L248.19 2340.41C246.975 2338.57 247.072 2336.15 248.44 2334.41L274.349 2305.72C275.127 2304.72 276.524 2304.48 277.598 2305.14ZM276.294 2307.25L252.489 2337.59L259.733 2348.6L280.67 2309.94L276.294 2307.25Z" fill="#AB0307"/>
<path fill-rule="evenodd" clip-rule="evenodd" d="M240.427 2326.08L273.293 2361.51L278.942 2354.15L245.692 2322.09L240.427 2326.08Z" fill="#FF8184"/>
<path fill-rule="evenodd" clip-rule="evenodd" d="M238.928 2324.12L243.831 2319.64C245.039 2318.72 246.736 2318.82 247.828 2319.87C247.828 2319.87 259.44 2329.15 269.179 2337.66C276.58 2344.12 282.814 2350.14 282.814 2350.14C284.857 2352.1 285.095 2355.29 283.367 2357.55L277.559 2364.78C276.595 2366.05 275.126 2366.81 273.543 2366.88C271.961 2366.96 270.427 2366.33 269.35 2365.17C269.35 2365.17 263.422 2358.32 256.867 2350.38C248.26 2339.96 238.611 2327.77 238.611 2327.77C238.135 2327.26 237.898 2326.57 237.959 2325.87C238.019 2325.17 238.371 2324.54 238.928 2324.12ZM240.426 2326.08L273.292 2361.51L278.941 2354.15L245.691 2322.09L240.426 2326.08Z" fill="#AB0307"/>
<path fill-rule="evenodd" clip-rule="evenodd" d="M255.85 2305.74L295.333 2330.03L302.615 2320.57L260.47 2297.86L255.85 2305.74Z" fill="#FF8184"/>
<path fill-rule="evenodd" clip-rule="evenodd" d="M253.712 2304.49L257.662 2296.21C258.548 2294.71 260.47 2294.17 262.011 2295C262.011 2295 276.164 2301.08 288.215 2306.92C297.378 2311.36 305.25 2315.68 305.25 2315.68C306.685 2316.45 307.708 2317.81 308.048 2319.41C308.389 2321 308.012 2322.67 307.018 2323.96L299.49 2333.23C297.852 2335.36 294.87 2335.9 292.582 2334.5L254.55 2307.84C253.402 2307.14 253.03 2305.65 253.712 2304.49ZM255.848 2305.74L295.331 2330.03L302.614 2320.57L260.468 2297.86L255.848 2305.74Z" fill="#AB0307"/>
<path fill-rule="evenodd" clip-rule="evenodd" d="M306.952 2251.45L276.562 2284.99L284.414 2289.94L313.26 2255.68L306.952 2251.45Z" fill="#FF8184"/>
<path fill-rule="evenodd" clip-rule="evenodd" d="M308.334 2249.39L315.032 2253.04C315.783 2253.54 316.28 2254.34 316.407 2255.24C316.529 2256.13 316.274 2257.04 315.689 2257.73C315.689 2257.73 307.505 2269.59 299.896 2279.56C294.116 2287.13 288.666 2293.52 288.666 2293.52C286.881 2295.65 283.799 2296.13 281.444 2294.65L273.722 2289.5C272.39 2288.66 271.494 2287.28 271.281 2285.72C271.069 2284.16 271.557 2282.58 272.615 2281.42L305.114 2249.78C305.944 2248.87 307.312 2248.7 308.334 2249.39ZM306.951 2251.44L276.561 2284.99L284.414 2289.94L313.26 2255.68L306.951 2251.44Z" fill="#AB0307"/>
<path fill-rule="evenodd" clip-rule="evenodd" d="M325.459 2267.16L299.263 2303.92L307.116 2308.87L331.768 2271.39L325.459 2267.16Z" fill="#FF8184"/>
<path fill-rule="evenodd" clip-rule="evenodd" d="M326.841 2265.1L333.538 2268.75C334.988 2269.72 335.379 2271.68 334.426 2273.14C334.426 2273.14 327.678 2285.9 321.285 2296.71C316.43 2304.92 311.761 2311.92 311.761 2311.92C310.094 2314.45 306.709 2315.19 304.15 2313.57L296.422 2308.43C295.182 2307.65 294.318 2306.39 294.04 2304.95C293.755 2303.51 294.075 2302.02 294.923 2300.83L323.444 2265.72C324.223 2264.63 325.727 2264.35 326.841 2265.1ZM325.458 2267.16L299.262 2303.92L307.114 2308.87L331.767 2271.39L325.458 2267.16Z" fill="#AB0307"/>
<path fill-rule="evenodd" clip-rule="evenodd" d="M288.259 2291.95L322.455 2321.42L328.103 2314.06L293.056 2286.06L288.259 2291.95Z" fill="#FF8184"/>
<path fill-rule="evenodd" clip-rule="evenodd" d="M286.34 2290.38L290.593 2284.05C291.694 2282.7 293.68 2282.49 295.042 2283.57C295.042 2283.57 307.131 2291.47 317.307 2298.83C325.037 2304.42 331.576 2309.71 331.576 2309.71C333.942 2311.61 334.361 2315.04 332.517 2317.44L326.68 2324.66C325.788 2325.83 324.458 2326.57 323.001 2326.72C321.544 2326.87 320.089 2326.41 318.98 2325.46L286.643 2293.82C285.627 2292.95 285.492 2291.42 286.34 2290.38ZM288.26 2291.95L322.456 2321.42L328.104 2314.06L293.057 2286.06L288.26 2291.95Z" fill="#AB0307"/>
<path fill-rule="evenodd" clip-rule="evenodd" d="M308.364 2262.14L323.226 2280.13L344.391 2288.34L353.412 2279.24L326.707 2274.79L313.162 2256.25L308.364 2262.14Z" fill="#FF8184"/>
<path fill-rule="evenodd" clip-rule="evenodd" d="M306.444 2260.57L310.739 2254.28C311.351 2253.52 312.276 2253.1 313.245 2253.12C314.213 2253.15 315.114 2253.62 315.686 2254.4L329.098 2270.24C331.493 2270.49 336.226 2271.01 340.951 2271.66C347.658 2272.57 354.325 2273.75 354.325 2273.75C356.374 2274.1 358.061 2275.55 358.699 2277.53C359.337 2279.5 358.821 2281.67 357.359 2283.14L348.094 2292.01C346.634 2293.48 344.439 2293.95 342.506 2293.2L321.768 2283.88C321.126 2283.63 320.56 2283.22 320.121 2282.69L306.454 2263.71C305.702 2262.8 305.698 2261.49 306.444 2260.57ZM308.364 2262.14L323.226 2280.13L344.391 2288.34L353.412 2279.24L326.707 2274.79L313.162 2256.25L308.364 2262.14Z" fill="#AB0307"/>
<path d="M235.001 2129.07L367.188 2030.42L557.034 2221.92L424.847 2320.57L235.001 2129.07Z" fill="#8D8D8D" stroke="white" stroke-width="6.93571" stroke-miterlimit="1.5" stroke-linecap="round" stroke-linejoin="round"/>
<path d="M794.96 2082.48C753.248 2215.12 613.608 2295.49 483.065 2261.98C352.523 2228.47 280.511 2093.78 322.224 1961.13C363.936 1828.49 503.576 1748.12 634.118 1781.63C764.661 1815.14 836.672 1949.83 794.96 2082.48Z" fill="#292929" stroke="#D50409" stroke-width="59.3485" stroke-miterlimit="1.5" stroke-linecap="round" stroke-linejoin="round"/>
<path fill-rule="evenodd" clip-rule="evenodd" d="M356.594 1892.54C368.038 2040.04 435.854 2159 543.082 2261.5C570.023 2265.83 590.394 2260.34 631.553 2247.4C575.604 2181.84 533.112 2113.47 509.008 2041.26L782.573 2105.31C799.182 2072.62 806.784 2036.6 800.007 1995.26C711.901 1976.71 619.719 1966.93 517.446 1978.86C547.793 1908.71 581.632 1841.1 640.208 1791.56C611.281 1782.54 583.409 1773.84 551.463 1781.69C520.389 1824.65 504.712 1876.42 494.903 1931.53C457.175 1910.13 434.611 1875.08 423.42 1829.8C384.288 1856.23 378.7 1858.68 356.594 1892.54Z" fill="#505050"/>
<path fill-rule="evenodd" clip-rule="evenodd" d="M353.536 1890.54C362.683 1876.36 369.068 1867.58 376.102 1860.26C386.202 1849.75 397.685 1842.26 421.013 1826.23C422.178 1825.44 423.654 1825.28 424.966 1825.78C426.278 1826.28 427.26 1827.4 427.597 1828.76C433.066 1850.29 441.149 1869.42 452.299 1885.76C462.533 1900.76 475.37 1913.39 491.147 1923.34C495.673 1898.49 501.486 1874.37 509.442 1851.45C518.561 1825.18 530.508 1800.5 546.503 1778.1C547.353 1776.93 548.593 1776.09 550.002 1775.75C563.203 1772.42 575.759 1771.79 587.989 1772.81C606.424 1774.35 624.105 1779.72 642.178 1785.24C644.483 1785.96 646.214 1787.88 646.694 1790.25C647.173 1792.61 646.326 1795.05 644.482 1796.61C621.554 1816.2 602.563 1838.63 586.108 1862.89C563.704 1895.93 546.014 1932.38 529.682 1969.81C574.831 1965.16 618.064 1964.65 659.893 1967.24C708.818 1970.28 755.811 1977.57 801.712 1987.17C805.05 1987.88 807.613 1990.56 808.165 1993.92C811.574 2014.85 811.458 2034.46 808.47 2053.01C805.282 2072.8 798.828 2091.37 789.846 2109C788.144 2112.35 784.374 2114.11 780.716 2113.25L520.374 2051.54C532.092 2083.95 547.549 2115.58 566.256 2146.56C586.152 2179.5 609.711 2211.7 636.403 2243.26C637.792 2244.89 638.272 2247.11 637.681 2249.16C637.09 2251.22 635.507 2252.84 633.466 2253.48C611.031 2260.42 594.659 2265.18 580.093 2267.44C567 2269.47 555.313 2269.53 542.144 2267.35C540.958 2267.16 539.859 2266.61 538.991 2265.78C485.426 2214.06 441.722 2158.27 410.034 2096.92C378.079 2035.04 358.326 1967.52 352.952 1892.82C352.89 1892.02 353.095 1891.22 353.536 1890.54ZM356.595 1892.54C368.039 2040.04 435.855 2159 543.083 2261.5C570.024 2265.83 590.395 2260.34 631.554 2247.4C575.605 2181.84 533.113 2113.47 509.009 2041.26L782.575 2105.31C799.184 2072.62 806.786 2036.6 800.009 1995.26C711.903 1976.71 619.72 1966.93 517.447 1978.86C547.794 1908.71 581.633 1841.1 640.21 1791.56C611.282 1782.54 583.41 1773.84 551.464 1781.69C520.39 1824.65 504.713 1876.42 494.904 1931.53C457.176 1910.13 434.612 1875.08 423.421 1829.8C384.289 1856.23 378.701 1858.68 356.595 1892.54Z" fill="black"/>
<path fill-rule="evenodd" clip-rule="evenodd" d="M475.294 1794.08C355.549 1989.29 433.589 2200.24 634.393 2248.48C574.068 2269.3 520.114 2273.79 471.709 2264.04L410.835 2308.23C395.789 2274.2 214.824 2402.5 95.7954 2472.15C42.2945 2503.46 99.2774 2525.22 65.1825 2543.64L5.57051 2499.98L14.6725 2480.15L5.7685 2464.82L81.3424 2389.32L109.644 2384.79L146.993 2372.71L293.024 2192.58L239.713 2129.95L313.383 2073.76C301.52 1939.43 368.589 1854.38 475.294 1794.08Z" fill="black" fill-opacity="0.4"/>
<path d="M701.095 1935.61C695.186 1954.4 673.472 1965.29 652.594 1959.93C631.717 1954.57 619.583 1934.99 625.492 1916.2C631.401 1897.41 653.116 1886.52 673.993 1891.88C694.87 1897.24 707.004 1916.82 701.095 1935.61Z" fill="white"/>
<path d="M728.992 2001.05C725.748 2011.36 713.797 2017.33 702.297 2014.38C690.798 2011.43 684.106 2000.67 687.349 1990.36C690.593 1980.04 702.545 1974.07 714.044 1977.02C725.543 1979.98 732.236 1990.73 728.992 2001.05Z" fill="white"/>
</g>
<defs>
<clipPath id="clip0_993_2101">
<rect width="2160" height="2700" fill="white"/>
</clipPath>
</defs>
</svg>
