<svg width="2160" height="2700" viewBox="0 0 2160 2700" fill="none" xmlns="http://www.w3.org/2000/svg">
<g clip-path="url(#clip0_940_7)">
<path fill-rule="evenodd" clip-rule="evenodd" d="M-17.8417 1190.65C7.97513 1229.21 280.03 1859.86 280.03 1859.86L64.8558 1750.93L647.38 2570.39L74.8484 2203.39L360.271 2854.54L-140.743 2424.59L-285 750.725L184.282 1246.19C184.282 1246.19 -43.6585 1152.08 -17.8417 1190.65Z" fill="#A4A4A4" stroke="white" stroke-width="16.178" stroke-miterlimit="1.5" stroke-linecap="square" stroke-linejoin="round"/>
<path fill-rule="evenodd" clip-rule="evenodd" d="M188.691 1974.93L511.399 2416.27L330.868 2198.75L188.691 1974.93Z" fill="white"/>
<path fill-rule="evenodd" clip-rule="evenodd" d="M44.3984 2211.27L268.908 2709.79L137.239 2459.65L44.3984 2211.27Z" fill="white"/>
<path fill-rule="evenodd" clip-rule="evenodd" d="M2.75 1294.68L227.26 1793.19L95.5909 1543.05L2.75 1294.68Z" fill="white"/>
<path fill-rule="evenodd" clip-rule="evenodd" d="M-83.9164 1187.23C-62.2283 1228.26 143.121 1883.67 143.121 1883.67L-59.6287 1753.06L434.991 2628.38L-96.4998 2204.12L120.024 2881.31L-333.82 2401.84L-503.055 459.467C-325.319 347.872 -166.251 232.18 172.537 118.397L176.296 407.461L-304.128 722.025L111.376 1263.38C111.376 1263.38 -105.605 1146.2 -83.9164 1187.23Z" fill="#A4A4A4" stroke="white" stroke-width="16.178" stroke-miterlimit="1.5" stroke-linecap="square" stroke-linejoin="round"/>
<path fill-rule="evenodd" clip-rule="evenodd" d="M-82.375 1250.92L82.1395 1772.31L-19.2944 1508.46L-82.375 1250.92Z" fill="white"/>
<path fill-rule="evenodd" clip-rule="evenodd" d="M9.24219 1926.06L273.701 2404.58L122.051 2166.03L9.24219 1926.06Z" fill="white"/>
<path fill-rule="evenodd" clip-rule="evenodd" d="M151.552 154.826L147.195 384.905L130.373 192.837L17.1445 198.001L151.552 154.826Z" fill="white"/>
<path fill-rule="evenodd" clip-rule="evenodd" d="M-81.3555 2026.95L-91.2812 2014.18L-65.7303 1994.33L-55.8046 2007.1L163.823 2313.85L164.691 2314.96L162.457 2316.7L161.589 2315.59L-81.3555 2026.95Z" fill="black"/>
<path fill-rule="evenodd" clip-rule="evenodd" d="M71.7867 2007.45L61.5335 1994.94L86.5619 1974.43L96.8151 1986.95L324.312 2287.9L325.209 2289L323.02 2290.79L322.123 2289.7L71.7867 2007.45Z" fill="black"/>
<path fill-rule="evenodd" clip-rule="evenodd" d="M-84.6899 1383.02L-93.77 1369.63L-66.9906 1351.47L-57.9105 1364.86L141.452 1685.15L142.246 1686.32L139.904 1687.91L139.11 1686.74L-84.6899 1383.02Z" fill="black"/>
<path fill-rule="evenodd" clip-rule="evenodd" d="M-55.8892 2291.88L-64.9693 2278.49L-38.1899 2260.33L-29.1098 2273.72L170.253 2594.01L171.047 2595.18L168.705 2596.77L167.911 2595.6L-55.8892 2291.88Z" fill="black"/>
<path fill-rule="evenodd" clip-rule="evenodd" d="M2681.18 1855.62L2286.64 187.871C2263.82 457.111 2194 723.288 2042.96 984.174L2316.14 811.745C2211.13 1170.23 2041.64 1574.36 1830.78 1934L2410.03 1436.14L1778.43 2593.93L2681.18 1855.62Z" fill="#A4A4A4" stroke="white" stroke-width="16.178" stroke-miterlimit="1.5" stroke-linecap="square" stroke-linejoin="round"/>
<path fill-rule="evenodd" clip-rule="evenodd" d="M2224.74 1402.87L2234.75 1390.15L2260.18 1410.16L2250.17 1422.87L2005.48 1710.02L2004.61 1711.13L2002.38 1709.38L2003.26 1708.27L2224.74 1402.87Z" fill="black"/>
<path fill-rule="evenodd" clip-rule="evenodd" d="M2206.64 2029.63L2216.65 2016.92L2242.08 2036.92L2232.07 2049.64L1987.38 2336.79L1986.51 2337.9L1984.28 2336.15L1985.16 2335.04L2206.64 2029.63Z" fill="black"/>
<path fill-rule="evenodd" clip-rule="evenodd" d="M2865.54 2151.32L2436.89 269.875C2271.17 111.029 2276.69 475.141 2276.69 475.141L1994.62 1366.91C1994.62 1366.91 2414.5 957.818 2397.28 999.073C2380.05 1040.33 1984.85 2071.36 1984.85 2071.36L2575.87 1576.32L1919.28 2618.35L2390.52 2296.13L1940.78 2736.24L2865.54 2151.32Z" fill="#A4A4A4" stroke="white" stroke-width="16.178" stroke-miterlimit="1.5" stroke-linecap="square" stroke-linejoin="round"/>
<path fill-rule="evenodd" clip-rule="evenodd" d="M2293.38 677.328L2068.87 1175.84L2200.54 925.703L2293.38 677.328Z" fill="white"/>
<path fill-rule="evenodd" clip-rule="evenodd" d="M2223.91 1186.04L1999.4 1684.55L2131.07 1434.41L2223.91 1186.04Z" fill="white"/>
<path fill-rule="evenodd" clip-rule="evenodd" d="M2236.58 1435.73L2061.94 1953.83L2168.49 1692L2236.58 1435.73Z" fill="white"/>
<path fill-rule="evenodd" clip-rule="evenodd" d="M2163.77 1962.77L1886.67 2434.08L2044.61 2199.65L2163.77 1962.77Z" fill="white"/>
<path fill-rule="evenodd" clip-rule="evenodd" d="M2286.42 2050.79L2009.32 2522.11L2167.26 2287.67L2286.42 2050.79Z" fill="white"/>
<path fill-rule="evenodd" clip-rule="evenodd" d="M2463.8 2279.58L2057.55 2645.48L2278.8 2469.54L2463.8 2279.58Z" fill="white"/>
<path fill-rule="evenodd" clip-rule="evenodd" d="M2308.62 876.172L2318.62 863.457L2344.05 883.464L2334.04 896.179L2089.35 1183.33L2088.48 1184.44L2086.26 1182.69L2087.13 1181.58L2308.62 876.172Z" fill="black"/>
<path fill-rule="evenodd" clip-rule="evenodd" d="M2312.33 1605.43L2322.33 1592.71L2347.76 1612.72L2337.76 1625.43L2093.06 1912.59L2092.19 1913.7L2089.97 1911.95L2090.84 1910.84L2312.33 1605.43Z" fill="black"/>
<path fill-rule="evenodd" clip-rule="evenodd" d="M2274.99 2183.24L2284.99 2170.52L2310.42 2190.53L2300.42 2203.25L2055.72 2490.4L2054.85 2491.51L2052.63 2489.76L2053.5 2488.65L2274.99 2183.24Z" fill="black"/>
</g>
<defs>
<clipPath id="clip0_940_7">
<rect width="2160" height="2700" fill="white"/>
</clipPath>
</defs>
</svg>
