<svg width="2160" height="2700" viewBox="0 0 2160 2700" fill="none" xmlns="http://www.w3.org/2000/svg">
<path fill-rule="evenodd" clip-rule="evenodd" d="M317.339 550.735C318.475 549.784 122.572 553.766 122.572 553.766L61.5166 509.027L350.828 508.993L339.421 486.324L435.775 496.24L430.928 506.757L629.008 500.523L710.422 536.574C710.422 536.574 593.95 611.848 484.927 633.092L373.402 601.448C383.594 606.782 569.095 563.552 570.831 544.691L422.657 552.126C389.043 589.766 280.736 637.312 171.859 646.664L91.5154 597.039C91.5154 597.039 269.601 590.735 317.339 550.735Z" fill="black"/>
<path fill-rule="evenodd" clip-rule="evenodd" d="M678.823 457.358L96.8833 464.707L83.7422 235.159L168.604 259.271L345.529 259.425C339.207 248.206 322.331 242.86 291.543 244.522L256.908 194.385L382.197 211.247C382.197 211.247 446.196 186.335 446.194 186.335C343.096 190.184 169.511 182.811 169.511 182.811L103.823 125.898C278.351 133.865 461.278 141.241 646.086 126.828L723.476 164.731C615.225 183.274 501.241 200.594 417.766 233.789C418.77 236.709 431.658 251.44 432.725 255.307L684.49 248.224L657.237 278.319L659.679 417.156L678.823 457.358ZM167.476 312.747L172.878 415.877L341.292 421.513L342.752 387.292L238.35 388.033L199.079 342.074L344.801 339.29L346.204 306.402L167.476 312.747ZM595.688 297.544L426.106 303.565L424.646 337.763L574.414 332.793L534.333 383.474L422.598 385.766L425.259 418.866L591.745 412.29L595.688 297.544Z" fill="black"/>
<path fill-rule="evenodd" clip-rule="evenodd" d="M288.184 499.703C289.144 498.764 123.5 502.696 123.5 502.696L71.876 458.514L316.5 458.481L306.855 436.094L388.326 445.886L384.227 456.272L551.712 450.116L620.55 485.717C620.55 485.717 522.068 560.055 429.886 581.034L335.587 549.785C344.205 555.052 501.053 512.36 502.521 493.734L377.233 501.076C348.812 538.247 257.234 585.201 165.175 594.437L97.2411 545.43C97.2411 545.43 247.819 539.204 288.184 499.703Z" fill="#EFE313"/>
<path fill-rule="evenodd" clip-rule="evenodd" d="M286.998 438.485C286.392 433.453 287.715 428.296 290.834 424.121C295.118 418.39 302.137 415.383 309.242 416.237L390.712 426.03C396.803 426.762 402.216 430.248 405.405 435.48L550.976 430.13C554.419 430.003 557.837 430.769 560.898 432.352L629.737 467.953C635.842 471.109 639.898 477.179 640.479 484.026C641.06 490.874 638.085 497.541 632.599 501.681C632.599 501.681 530.134 578.731 434.324 600.536C430.767 601.345 427.056 601.167 423.594 600.019L329.295 568.77L329.414 568.513C327.416 567.969 325.98 567.354 325.157 566.851C324.662 566.548 324.184 566.226 323.724 565.888C280.344 589.063 223.944 608.642 167.172 614.338C162.31 614.826 157.437 613.517 153.474 610.658L85.54 561.651C78.626 556.664 75.6338 547.842 78.0865 539.678C80.5383 531.513 87.8974 525.801 96.4144 525.448C96.4144 525.448 113.064 524.771 136.615 522.395C128.727 522.578 123.975 522.691 123.975 522.691C119.044 522.808 114.243 521.099 110.496 517.891L58.8715 473.709C52.5114 468.266 50.2138 459.437 53.1154 451.584C56.0161 443.731 63.5014 438.516 71.8729 438.514L286.998 438.485ZM336.516 550.093L429.885 581.035C522.068 560.056 620.55 485.718 620.55 485.718L551.711 450.116L384.227 456.272L388.325 445.887L306.854 436.094L316.5 458.481L71.8758 458.514L123.5 502.696C123.5 502.696 289.144 498.764 288.184 499.704C247.819 539.205 97.2409 545.431 97.2409 545.431L165.175 594.438C257.234 585.202 348.811 538.248 377.233 501.077L502.521 493.734C501.089 511.89 352.016 552.915 336.516 550.093ZM336.516 550.093L335.587 549.785C335.803 549.918 336.115 550.02 336.516 550.093Z" fill="#FF050B"/>
<path fill-rule="evenodd" clip-rule="evenodd" d="M593.831 407.489L101.779 414.747L90.668 188.056L162.422 211.868L312.019 212.021C306.673 200.941 292.404 195.662 266.371 197.303L237.086 147.79L343.023 164.442C343.023 164.442 397.136 139.84 397.134 139.84C309.961 143.642 163.188 136.36 163.188 136.36L107.647 80.1562C255.217 88.0232 409.889 95.3079 566.151 81.074L631.587 118.505C540.057 136.817 443.679 153.922 373.098 186.703C373.946 189.588 384.844 204.135 385.746 207.954L598.623 200.959L575.579 230.68L577.644 367.787L593.831 407.489ZM161.468 264.679L166.036 366.525L308.436 372.091L309.67 338.296L221.394 339.027L188.189 293.641L311.403 290.891L312.589 258.412L161.468 264.679ZM523.537 249.665L380.149 255.611L378.915 289.383L505.549 284.475L471.659 334.525L377.183 336.789L379.434 369.476L520.204 362.983L523.537 249.665Z" fill="#EFE313"/>
<path fill-rule="evenodd" clip-rule="evenodd" d="M239.968 191.948L220.29 158.679C186.051 157.515 162.197 156.335 162.197 156.335C157.2 156.088 152.479 153.976 148.963 150.418L93.4214 94.2145C87.6143 88.3379 86.018 79.4951 89.4042 71.9595C92.7904 64.4233 100.463 59.7451 108.713 60.1848C255.355 68.0023 409.057 75.3012 564.337 61.1566C568.422 60.7846 572.522 61.6774 576.082 63.7138L641.517 101.145C648.756 105.286 652.665 113.482 651.328 121.713C649.991 129.944 643.687 136.481 635.511 138.117C564.385 152.346 490.235 165.668 428.033 186.554L597.966 180.97C605.714 180.715 612.911 184.96 616.436 191.864C619.961 198.768 619.179 207.087 614.429 213.214L595.683 237.392L597.586 363.722L612.351 399.938C614.846 406.057 614.157 413.014 610.512 418.524C606.865 424.036 600.734 427.39 594.126 427.488L102.074 434.745C91.2962 434.904 82.3312 426.492 81.8033 415.726L70.692 189.036C70.3693 182.447 73.3162 176.122 78.5693 172.131C83.8225 168.14 90.7057 166.997 96.9675 169.075L165.663 191.872L239.968 191.948ZM593.831 407.49L577.644 367.788L575.58 230.68L598.623 200.959L385.747 207.954C384.844 204.135 373.947 189.588 373.098 186.703C443.679 153.922 540.057 136.817 631.587 118.505L566.151 81.0743C409.889 95.3081 255.217 88.0235 107.647 80.1565L163.188 136.36C163.188 136.36 309.961 143.642 397.134 139.84C397.136 139.84 343.023 164.442 343.023 164.442L237.087 147.791L266.372 197.303C292.404 195.662 306.673 200.941 312.019 212.021L162.422 211.869L90.6681 188.057L101.779 414.747L593.831 407.49ZM161.468 264.679L312.589 258.412L311.404 290.891L188.189 293.641L221.394 339.027L309.67 338.296L308.436 372.091L166.036 366.525L161.468 264.679ZM184.053 321.859L185.192 347.258L203.148 347.96L184.053 321.859ZM523.537 249.665L520.204 362.983L379.434 369.476L377.183 336.789L471.66 334.525L505.549 284.476L378.915 289.384L380.15 255.611L523.537 249.665ZM489.13 344.395L500.758 343.859L501.269 326.468L489.13 344.395Z" fill="#FF050B"/>
</svg>
