<svg width="2160" height="2700" viewBox="0 0 2160 2700" fill="none" xmlns="http://www.w3.org/2000/svg">
<path fill-rule="evenodd" clip-rule="evenodd" d="M396.284 215.891L396.534 229.047L532.046 223.292L541.991 279.163L396.988 279.805L397.869 304.948L641.037 290.998L668.374 342.073L85.8008 368.674L127.234 314.576L332.359 305.093L331.23 282.061L166.236 290.872L178.002 238.554L330.229 231.864L329.976 218.593L122.937 227.032L99.2938 172.244L226.323 166.985L182.325 121.259L246.336 100.642L300.715 164.052L328.919 162.941L328.849 159.248L395.191 158.354L395.228 160.327L418.605 159.405L475.97 91.8438L541.97 107.741L496.826 156.322L654.843 150.094L636.06 206.119L396.284 215.891Z" fill="black" stroke="black" stroke-width="13.8947" stroke-miterlimit="2" stroke-linejoin="round"/>
<path fill-rule="evenodd" clip-rule="evenodd" d="M206.208 511.532L64.3749 518.444L27.9111 459.985L205.118 455.623L204.524 436.529L117.253 448.42L80.2534 398.514L367.743 369.088L375.979 424.568L270.423 425.919L271.445 453.99L408.339 450.619C402.53 418.834 401.935 367.558 401.935 367.558L468.284 367.078C468.284 367.078 468.719 418.458 474.89 448.981L692.799 445.608L647.691 503.701L488.894 501.229C492.085 508.402 508.998 534.829 512.383 539.196C527.898 531.004 525.657 512.937 525.657 512.937L616.167 525.443C616.167 525.443 573.467 571.915 566.734 575.721C577.685 578.393 589.969 579.362 603.774 578.148C610.204 577.583 616.724 575.829 620.329 574.732L611.608 561.079L667.677 518.981C667.677 518.981 696.392 580.384 678.75 604.182C669.873 616.157 651.808 630.14 610.661 633.758C563.671 637.892 526.779 627.496 497.99 608.613C463.316 638.673 300.842 651.14 295.152 641.819L354.795 579.942C360.046 589.94 429.147 588.701 453.4 565.261C450.044 560.608 428.45 521.353 423.019 506.195L272.536 509.899L269.817 527.124L339.197 512.404L329.84 569.323L273.803 574.849L274.59 615.182C274.868 629.421 262.4 641.56 245.638 643.371L172.322 651.154L109.273 607.504L207.76 591.093L207.565 581.111L53.7826 601.136L70.138 541.828L206.735 529.983L206.208 511.532Z" fill="black" stroke="black" stroke-width="13.8947" stroke-miterlimit="2" stroke-linejoin="round"/>
<path fill-rule="evenodd" clip-rule="evenodd" d="M537.793 414.09L505.662 407.134L522.172 352.98L554.303 359.936C571.545 363.669 581.02 366.724 601.816 378.368L629.448 393.839L592.731 440.409L565.099 424.938C553.095 418.218 547.744 416.245 537.793 414.09Z" fill="black" stroke="black" stroke-width="13.8947" stroke-miterlimit="2" stroke-linejoin="round"/>
<path fill-rule="evenodd" clip-rule="evenodd" d="M374.622 188.023L374.839 200.875L492.835 195.252L501.494 249.834L375.235 250.461L376.002 275.023L587.738 261.395L611.541 311.291L104.272 337.277L140.349 284.429L318.96 275.164L317.977 252.665L174.31 261.273L184.555 210.162L317.105 203.626L316.885 190.662L136.608 198.906L116.021 145.384L226.63 140.246L188.32 95.5758L244.056 75.435L291.406 137.381L315.965 136.295L315.904 132.688L373.67 131.814L373.703 133.742L394.057 132.841L444.007 66.8398L501.476 82.3703L462.167 129.829L599.76 123.745L583.404 178.477L374.622 188.023ZM209.116 476.835L85.6156 483.588L53.8652 426.478L208.166 422.217L207.65 403.565L131.659 415.181L99.4417 366.427L349.77 337.68L356.941 391.88L265.03 393.2L265.92 420.622L385.119 417.329C380.061 386.278 379.542 336.186 379.542 336.186L437.315 335.717C437.315 335.717 437.694 385.911 443.067 415.729L632.81 412.434L593.532 469.186L455.261 466.77C458.039 473.778 472.766 499.594 475.714 503.861C489.224 495.858 487.272 478.208 487.272 478.208L566.083 490.425C566.083 490.425 528.902 535.824 523.039 539.542C532.575 542.152 543.271 543.1 555.292 541.913C560.89 541.361 566.568 539.647 569.706 538.575L562.113 525.237L610.934 484.113C610.934 484.113 635.938 544.097 620.576 567.346C612.846 579.045 597.116 592.704 561.288 596.239C520.372 600.277 488.249 590.122 463.181 571.675C432.989 601.04 291.517 613.22 286.562 604.113L338.497 543.665C343.068 553.432 403.237 552.222 424.355 529.324C421.433 524.778 402.63 486.43 397.901 471.621L266.87 475.24L264.502 492.068L324.914 477.687L316.767 533.292L267.973 538.691L268.658 578.092C268.9 592.002 258.044 603.861 243.449 605.63L179.609 613.233L124.711 570.591L210.467 554.559L210.297 544.807L76.3926 564.37L90.6338 506.431L209.574 494.86L209.116 476.835ZM497.839 381.646L469.861 374.851L484.237 321.948L512.215 328.743C527.228 332.39 535.478 335.373 553.587 346.749L577.647 361.863L545.675 407.358L521.615 392.244C511.163 385.679 506.503 383.751 497.839 381.646Z" fill="#EFE313"/>
<path fill-rule="evenodd" clip-rule="evenodd" d="M101.069 405.168L82.7559 377.454C78.9221 371.654 78.3769 364.278 81.3143 357.977C82.9265 354.521 85.4587 351.66 88.5568 349.649C87.9222 348.843 87.3445 347.981 86.8317 347.067C83.1116 340.441 83.4691 332.279 87.7543 326.002L123.831 273.154C127.351 267.997 133.078 264.779 139.313 264.456L154.454 263.671C154.202 261.586 154.278 259.451 154.701 257.342L162.639 217.738L137.522 218.885C128.921 219.279 121.034 214.123 117.942 206.087L97.3547 152.566C95.0473 146.568 95.7623 139.828 99.2766 134.448C102.79 129.068 108.675 125.705 115.093 125.407L184.778 122.169L173.139 108.597C168.86 103.609 167.305 96.8373 168.98 90.4824C170.654 84.1275 175.342 78.9999 181.523 76.7673L237.26 56.6265C245.465 53.6607 254.647 56.3576 259.946 63.2903L300.955 116.941L303.735 116.818C307.124 114.219 311.28 112.757 315.601 112.691L373.368 111.817C376.231 111.774 378.962 112.334 381.441 113.381L383.782 113.277L428.06 54.7711C432.98 48.2703 441.354 45.406 449.225 47.5337L506.693 63.0641C513.262 64.8393 518.477 69.8321 520.537 76.3167C522.597 82.8013 521.219 89.8884 516.879 95.1286L506.336 107.858L598.876 103.766C605.344 103.48 611.55 106.341 615.531 111.447C619.512 116.552 620.776 123.269 618.923 129.472L602.567 184.203C600.133 192.351 592.812 198.068 584.318 198.456L514.104 201.667L521.08 245.645L586.454 241.437C594.612 240.912 602.269 245.406 605.79 252.785L629.592 302.681C632.47 308.714 632.144 315.786 628.723 321.528C625.303 327.27 619.24 330.924 612.564 331.266L570.007 333.446L588.285 344.928C592.929 347.845 596.171 352.54 597.254 357.916C598.336 363.292 597.164 368.877 594.01 373.363L579.965 393.35L632.463 392.437C639.962 392.308 646.904 396.385 650.443 402.998C653.982 409.611 653.524 417.649 649.255 423.817L619.898 466.234C624.137 468.359 627.533 471.951 629.395 476.419C629.395 476.419 642.892 509.07 645.203 537.496C646.501 553.466 643.969 568.224 637.262 578.373C627.525 593.111 608.391 611.69 563.253 616.144C522.887 620.127 490.076 611.775 463.44 595.843C454.774 600.723 443.832 605.201 431.406 608.942C390.643 621.218 332.821 627.498 303.63 627.054C291.521 626.869 282.936 624.951 279.161 623.144C274.797 621.055 272.01 618.277 270.18 615.609C263.402 620.827 255.099 624.364 245.855 625.485C245.842 625.487 245.828 625.488 245.814 625.49L181.975 633.094C176.752 633.716 171.495 632.255 167.341 629.029L112.443 586.387C110.204 584.649 108.408 582.496 107.113 580.095L79.2832 584.161C72.6969 585.123 66.0638 582.745 61.5881 577.818C57.1124 572.891 55.3819 566.061 56.9707 559.597L71.212 501.658C71.4819 500.562 71.8394 499.504 72.2772 498.492C70.6433 497.031 69.2359 495.287 68.1355 493.307L36.3851 436.198C32.9891 430.09 33.0279 422.652 36.488 416.578C39.9481 410.506 46.3267 406.68 53.3129 406.487L101.069 405.168ZM497.839 381.647C506.504 383.752 511.163 385.68 521.615 392.245L545.675 407.358L577.647 361.864L553.587 346.75C535.478 335.374 527.228 332.391 512.215 328.744L484.237 321.948L469.861 374.852L497.839 381.647ZM288.54 571.122L302.386 555.005L288.287 556.565L288.54 571.122ZM338.39 523.666C339.326 523.661 340.267 523.722 341.208 523.851C345.09 524.382 348.663 526.029 351.545 528.509C355.275 528.824 368.006 529.721 377.79 528.258C384.91 527.193 392.357 525.617 398.67 522.971C394.059 513.531 388.589 501.854 384.39 492.003L342.862 493.15L338.39 523.666ZM469.202 395.273L465.141 394.287C463.368 393.856 461.681 393.19 460.116 392.317C460.219 393.359 460.324 394.395 460.434 395.425L469.202 395.273ZM457.455 344.235L458.84 339.141L457.359 339.216C457.38 340.569 457.411 342.262 457.455 344.235ZM374.622 188.023L583.404 178.478L599.76 123.746L462.167 129.83L501.476 82.3711L444.007 66.8407L394.057 132.842L373.703 133.743L373.67 131.815L315.904 132.689L315.965 136.296L291.407 137.382L244.056 75.4359L188.32 95.5767L226.63 140.247L116.021 145.385L136.608 198.907L316.885 190.663L317.105 203.627L184.555 210.163L174.311 261.273L317.977 252.665L318.96 275.165L140.349 284.429L104.272 337.278L611.541 311.292L587.738 261.396L376.002 275.024L375.235 250.462L501.494 249.834L492.836 195.253L374.839 200.876L374.622 188.023ZM209.116 476.836L209.574 494.861L90.634 506.432L76.3927 564.371L210.297 544.808L210.467 554.56L124.711 570.592L179.609 613.234L243.449 605.631C258.044 603.862 268.9 592.003 268.658 578.093L267.973 538.691L316.767 533.292L324.914 477.688L264.502 492.069L266.87 475.241L397.901 471.622C402.63 486.431 421.433 524.779 424.355 529.325C403.237 552.223 343.068 553.433 338.497 543.666L286.563 604.114C291.517 613.221 432.989 601.041 463.181 571.676C488.249 590.123 520.372 600.278 561.289 596.24C597.117 592.705 612.846 579.046 620.576 567.347C635.938 544.098 610.934 484.114 610.934 484.114L562.113 525.238L569.706 538.576C566.568 539.648 560.891 541.362 555.292 541.914C543.271 543.1 532.575 542.153 523.04 539.543C528.902 535.825 566.083 490.426 566.083 490.426L487.272 478.209C487.272 478.209 489.224 495.859 475.714 503.862C472.766 499.595 458.039 473.779 455.261 466.771L593.532 469.187L632.81 412.435L443.067 415.73C437.694 385.912 437.315 335.718 437.315 335.718L379.543 336.187C379.543 336.187 380.061 386.279 385.119 417.33L265.92 420.623L265.03 393.2L356.941 391.881L349.77 337.681L99.4418 366.428L131.659 415.182L207.65 403.566L208.166 422.218L53.8653 426.479L85.6157 483.589L209.116 476.836Z" fill="#FF050B"/>
</svg>
