<svg width="2160" height="2700" viewBox="0 0 2160 2700" fill="none" xmlns="http://www.w3.org/2000/svg">
<path fill-rule="evenodd" clip-rule="evenodd" d="M237.691 165.4L346.202 148.432L324.349 221.776L95.3431 226.911L76.3086 150.887L188.207 166.231C190.298 149.369 178.178 154.824 169.692 133.451L210.533 74.418C222.832 105.391 239.695 141.766 237.691 165.4ZM421.495 437.385C415.444 491.822 405.645 547.359 396.056 610.395L333.197 632.596C379.737 444.277 385.337 282.139 351.265 206C351.265 206 477.606 201.391 477.546 200.929C472.383 160.717 442.359 106.916 442.359 106.916L522.332 122.974C522.332 122.974 529.178 136.766 536.266 191.968C536.611 194.648 536.964 197.378 537.327 200.154L679.995 194.928L635.435 259.916L545.279 257.312C554.841 321.886 568.073 397.199 584.845 458.481C601.522 429.103 610.945 356.99 629.317 308.404L686.666 369.714C660.021 440.178 632.519 482.245 606.01 522.131C610.157 531.983 614.457 540.623 618.98 547.7C623.056 554.078 626.705 559.307 631.227 561.015C642.617 565.314 650.653 565.089 656.191 561.573C661.888 557.956 664.011 551.739 664.011 551.739L671.738 524.511L717.941 542.725L710.214 569.953C710.214 569.953 702.854 597.168 679.296 612.127C665.325 620.997 645.105 626.549 616.366 615.698C601.409 610.053 586.154 593.55 572.458 568.274C566.644 575.748 487.034 585.109 487.034 585.109C487.034 585.109 540.182 524.978 549.395 512.515C526.103 441.302 508.116 340.773 496.143 259.112L423.536 261.772C427.887 303.191 428.364 341.855 426.323 379.953L476.381 379.852C489.618 379.826 500.45 392.261 500.775 407.858L521.827 503.075L448.583 598.738C453.748 567.886 465.217 457.786 452.656 437.322L421.495 437.385ZM116.079 319.396L92.6899 262.777L325.071 256.592L298.181 313.921L116.079 319.396ZM103.081 407.38L120.86 344.24L284.391 343.991L314.671 406.287L103.081 407.38ZM133.652 445.619L304.448 449.393C311.287 449.148 317.897 452.304 322.664 458.089C327.43 463.874 329.913 471.754 329.505 479.803L326.165 595.859C325.473 609.507 316.71 620.687 305.221 622.58L113.356 626.761C106.296 627.924 99.1578 625.385 93.824 619.811C88.4893 614.237 85.4941 606.189 85.6276 597.79L85.0137 439.985L133.724 441.061L133.652 445.619ZM132.737 503.1L134.874 565.236L279.272 559.641L278.055 494.335L132.737 503.1ZM595.408 120.307L579.699 98.365C579.699 98.365 649.181 95.386 658.141 96.1153C664.809 96.6585 671.645 96.8135 678.642 97.5944L702.894 100.3L698.301 157.466L674.051 154.76C645.15 151.535 619.422 153.847 595.408 120.307Z" fill="black" stroke="black" stroke-width="12.9161" stroke-miterlimit="2" stroke-linejoin="round"/>
<path fill-rule="evenodd" clip-rule="evenodd" d="M213.429 157.729L320.3 141.838L298.778 210.525L73.2313 215.334L54.4844 144.137L164.693 158.507C166.752 142.716 154.815 147.824 146.457 127.808L186.681 72.5234C198.794 101.53 215.403 135.596 213.429 157.729ZM394.456 412.444C388.497 463.424 378.845 515.435 369.401 574.468L307.492 595.26C353.329 418.898 358.844 267.055 325.287 195.751C325.287 195.751 449.719 191.434 449.66 191.002C444.575 153.343 415.005 102.958 415.005 102.958L493.769 117.996C493.769 117.996 500.512 130.913 507.493 182.609C507.833 185.12 508.18 187.676 508.538 190.276L649.051 185.382L605.165 246.243L516.37 243.805C525.787 304.279 538.819 374.81 555.338 432.2C571.764 404.687 581.044 337.154 599.139 291.652L655.622 349.069C629.379 415.059 602.292 454.455 576.184 491.809C580.268 501.036 584.503 509.127 588.958 515.754C592.972 521.727 596.566 526.624 601.02 528.223C612.237 532.25 620.153 532.039 625.606 528.746C631.217 525.359 633.308 519.537 633.308 519.537L640.919 494.037L686.424 511.095L678.814 536.594C678.814 536.594 671.564 562.082 648.363 576.09C634.602 584.397 614.688 589.596 586.383 579.435C571.652 574.148 556.628 558.693 543.139 535.022C537.413 542.021 459.005 550.788 459.005 550.788C459.005 550.788 511.35 494.475 520.424 482.804C497.484 416.112 479.769 321.966 467.977 245.49L396.467 247.981C400.751 286.77 401.222 322.98 399.211 358.659L448.513 358.564C461.55 358.539 472.218 370.185 472.539 384.791L493.272 473.963L421.135 563.552C426.222 534.658 437.518 431.549 425.146 412.385L394.456 412.444ZM93.6538 301.947L70.6182 248.922L299.489 243.131L273.004 296.819L93.6538 301.947ZM80.852 384.344L98.3629 325.213L259.423 324.98L289.246 383.32L80.852 384.344ZM110.961 420.155L279.177 423.689C285.913 423.46 292.423 426.416 297.118 431.833C301.813 437.25 304.258 444.631 303.856 452.169L300.566 560.856C299.885 573.637 291.254 584.107 279.939 585.879L90.9725 589.795C84.0188 590.885 76.9884 588.507 71.7352 583.286C66.4811 578.067 63.5311 570.53 63.6626 562.663L63.058 414.879L111.032 415.886L110.961 420.155ZM110.06 473.987L112.165 532.177L254.381 526.937L253.183 465.777L110.06 473.987ZM565.742 115.499L550.27 94.95L671.604 96.7622L667.081 150.298C667.081 150.298 589.393 146.909 565.742 115.499Z" fill="#F2E83A"/>
<path fill-rule="evenodd" clip-rule="evenodd" d="M127.272 133.459C125.528 127.541 126.607 121.097 130.285 116.042L170.51 60.7565C174.761 54.9132 181.834 51.8179 189.011 52.66C196.188 53.5011 202.353 58.1483 205.138 64.8165C212.625 82.7474 221.73 102.573 227.417 120.474C228.982 125.399 230.283 130.212 231.279 134.855L317.359 122.055C324.171 121.043 331.026 123.606 335.502 128.842C339.978 134.076 341.445 141.245 339.386 147.818L330.696 175.551C347.55 174.962 395.427 173.277 424.742 172.129C415.343 142.627 397.757 113.082 397.757 113.082C393.784 106.312 394.138 97.8443 398.663 91.43C403.188 85.0156 411.046 81.8418 418.756 83.3131L497.521 98.3509C503.523 99.4974 508.672 103.324 511.499 108.741C511.499 108.741 518.618 121.137 525.857 169.66L630.301 166.023C622.659 164.663 614.407 162.884 606.196 160.565C583.442 154.14 561.514 143.133 549.765 127.529L534.293 106.98C529.699 100.88 528.981 92.6969 532.44 85.889C535.9 79.0821 542.934 74.8381 550.569 74.9521L671.903 76.7643C677.448 76.8472 682.708 79.2283 686.43 83.3389C690.151 87.4495 692 92.9207 691.533 98.4455L687.011 151.982C686.108 162.673 676.929 170.747 666.21 170.28C666.21 170.28 664.631 170.211 661.841 170.005C663.795 171.63 665.454 173.639 666.695 175.962C670.289 182.696 669.739 190.889 665.274 197.079L621.387 257.94C617.515 263.312 611.235 266.418 604.616 266.236L539.937 264.459C545.089 295.675 551.137 328.658 558.076 360.472C564.686 334.58 571.594 306.792 580.555 284.261C583.053 277.98 588.553 273.387 595.179 272.048C601.803 270.71 608.656 272.808 613.397 277.627L669.88 335.044C675.438 340.695 677.136 349.094 674.207 356.46C649.443 418.729 623.996 457.996 599.227 493.722C601.28 497.717 603.382 501.362 605.558 504.598C606.74 506.357 608.609 508.79 609.504 509.939C611.526 510.493 613.659 510.848 614.974 511.037L621.755 488.318C623.339 483.007 627.057 478.592 632.021 476.126C636.984 473.66 642.749 473.364 647.939 475.31L693.444 492.367C703.289 496.057 708.595 506.739 705.589 516.815C705.589 516.815 698.125 541.822 698.051 542.065C698.051 542.065 688.722 575.086 658.7 593.211C641.133 603.817 615.759 611.23 579.626 598.26C564.811 592.941 549.09 579.874 534.797 559.299C510.064 565.141 461.228 570.664 461.228 570.664C455.3 571.327 449.525 569.309 445.335 565.388L436.713 576.096C430.99 583.204 421.179 585.537 412.87 581.764C404.559 577.992 399.856 569.073 401.438 560.085C404.883 540.52 411.282 485.781 410.7 448.338C410.679 446.954 410.622 445.524 410.539 444.082C404.663 486.099 396.842 529.547 389.151 577.627C387.975 584.973 382.821 591.059 375.769 593.427L313.86 614.219C306.901 616.557 299.221 614.894 293.852 609.887C292.042 608.199 290.592 606.222 289.537 604.07C287.428 604.763 285.255 605.292 283.035 605.639C282.148 605.778 281.252 605.857 280.354 605.875C280.354 605.875 92.52 609.768 92.5258 609.768C79.888 611.271 67.1792 606.953 57.6393 597.475C48.7173 588.61 43.4997 575.906 43.6628 562.567L43.0582 414.961C43.0361 409.569 45.1925 404.398 49.0369 400.618C52.8813 396.838 58.0884 394.77 63.4788 394.883L63.8588 394.892C60.8637 390.067 60.0471 384.163 61.6756 378.665L79.1865 319.534C79.4696 318.579 79.8199 317.656 80.2306 316.773C78.1616 314.901 76.4687 312.582 75.3104 309.916L52.2748 256.891C49.6242 250.792 50.1798 243.773 53.7575 238.166C55.6278 235.232 58.1978 232.886 61.1756 231.291C57.6911 228.659 55.0664 224.889 53.8918 220.427L35.1439 149.231C33.4482 142.79 35.0691 135.928 39.4681 130.928C43.8672 125.927 50.4668 123.445 57.0712 124.306L127.272 133.459ZM213.429 157.729C215.403 135.596 198.795 101.53 186.682 72.5236L146.458 127.808C154.815 147.824 166.753 142.716 164.693 158.507L54.4849 144.138L73.2318 215.334L298.779 210.526L320.301 141.838L213.429 157.729ZM394.457 412.444L425.146 412.385C437.518 431.549 426.222 534.658 421.135 563.552L493.273 473.963L472.539 384.791C472.219 370.185 461.55 358.539 448.513 358.564L399.212 358.659C401.222 322.98 400.752 286.771 396.467 247.981L467.977 245.49C479.769 321.967 497.485 416.112 520.424 482.804C511.351 494.475 459.005 550.788 459.005 550.788C459.005 550.788 537.413 542.021 543.139 535.022C556.628 558.693 571.653 574.148 586.384 579.435C614.689 589.597 634.603 584.398 648.363 576.09C671.565 562.082 678.814 536.594 678.814 536.594L686.424 511.095L640.919 494.038L633.309 519.537C633.309 519.537 631.218 525.36 625.607 528.746C620.153 532.04 612.238 532.25 601.02 528.224C596.567 526.624 592.973 521.728 588.958 515.754C584.504 509.127 580.269 501.036 576.184 491.809C602.293 454.455 629.379 415.06 655.622 349.069L599.139 291.652C581.044 337.154 571.764 404.687 555.339 432.2C538.82 374.81 525.788 304.279 516.371 243.805L605.165 246.243L649.051 185.382L508.539 190.276C508.181 187.676 507.834 185.12 507.494 182.61C500.512 130.913 493.77 117.996 493.77 117.996L415.006 102.958C415.006 102.958 444.576 153.343 449.661 191.002C449.719 191.434 325.287 195.751 325.287 195.751C358.845 267.055 353.329 418.898 307.492 595.26L369.402 574.468C378.846 515.435 388.497 463.424 394.457 412.444ZM93.6543 301.947L273.005 296.819L299.49 243.131L70.6187 248.922L93.6543 301.947ZM80.8525 384.344L289.246 383.32L259.424 324.98L98.3634 325.214L80.8525 384.344ZM110.962 420.155L111.033 415.887L63.0585 414.879L63.6631 562.664C63.5316 570.53 66.4816 578.067 71.7357 583.286C76.9889 588.507 84.0193 590.885 90.973 589.796L279.939 585.88C291.255 584.107 299.885 573.637 300.566 560.856L303.856 452.169C304.258 444.631 301.813 437.251 297.118 431.833C292.424 426.416 285.913 423.46 279.178 423.689L110.962 420.155ZM241.981 466.421L253.551 484.528C253.903 502.507 254.382 526.937 254.382 526.937L112.165 532.177L110.061 473.987L241.981 466.421ZM233.594 486.934L130.756 492.833L131.428 511.453L234.001 507.675L233.594 486.934ZM565.742 115.499C589.393 146.909 667.081 150.298 667.081 150.298L671.604 96.7624L550.271 94.9501L565.742 115.499ZM310.711 226.575C312.927 228.077 314.852 230.03 316.34 232.357C316.974 233.348 317.512 234.382 317.955 235.447C316.878 231.116 315.705 226.955 314.438 222.968C313.354 224.332 312.1 225.544 310.711 226.575ZM277.458 316.318L307.055 374.217C310.217 380.401 309.942 387.784 306.332 393.717C302.721 399.651 296.29 403.286 289.345 403.32L266.999 403.43C273.433 403.566 277.765 403.656 279.128 403.685C291.532 403.449 303.58 408.75 312.233 418.736C315.35 422.332 317.906 426.431 319.822 430.852C329.824 354.41 329.813 288.959 319.447 241.815C319.674 245.267 319.007 248.774 317.427 251.979L290.942 305.667C288.249 311.125 283.259 314.993 277.458 316.318ZM464.338 341.706C459.344 316.018 454.882 290.388 450.975 266.095L418.365 267.231C420.272 291.749 420.731 315.372 420.078 338.619L448.475 338.564C454.011 338.553 459.373 339.661 464.338 341.706Z" fill="#FF050B"/>
</svg>
