<svg width="2160" height="2700" viewBox="0 0 2160 2700" fill="none" xmlns="http://www.w3.org/2000/svg">
<g clip-path="url(#clip0_876_3)">
<path fill-rule="evenodd" clip-rule="evenodd" d="M-352.613 1833.46L-578.102 2141.41L-235.153 2591.3L84.1756 1966.71L-352.613 1833.46Z" fill="#00A8E4"/>
<path fill-rule="evenodd" clip-rule="evenodd" d="M-344.899 1808.18L91.8899 1941.43C99.369 1943.72 105.456 1949.2 108.51 1956.39C111.565 1963.59 111.27 1971.78 107.711 1978.74L-211.619 2603.34C-215.753 2611.42 -223.749 2616.82 -232.791 2617.63C-241.836 2618.44 -250.664 2614.55 -256.171 2607.33L-599.12 2157.43C-606.219 2148.12 -606.344 2135.24 -599.425 2125.8L-373.935 1817.84C-367.294 1808.77 -355.648 1804.9 -344.899 1808.18ZM-352.613 1833.46L-578.101 2141.41L-235.152 2591.3L84.1764 1966.71L-352.613 1833.46Z" fill="white"/>
<path fill-rule="evenodd" clip-rule="evenodd" d="M142.605 1882.88C-20.524 1792.97 -252.922 2119.14 -252.922 2119.14L-332.762 2583.65L725.852 2658.6C725.852 2658.6 305.735 1972.78 142.605 1882.88Z" fill="#D1D1D1" stroke="white" stroke-width="11.6963" stroke-miterlimit="1.5" stroke-linecap="square" stroke-linejoin="round"/>
<path fill-rule="evenodd" clip-rule="evenodd" d="M191.922 2024.39L-8.53711 2207.14L217.351 2098.7L326.513 2094.88L406.115 2210.62L155.439 2266.33L64.1398 2391.75L188.252 2330.77L497.445 2328.8L262.916 2007.84L191.922 2024.39Z" fill="#FF2E33" stroke="black" stroke-width="12" stroke-miterlimit="1.5" stroke-linecap="square" stroke-linejoin="round"/>
<path fill-rule="evenodd" clip-rule="evenodd" d="M92.2578 1904.32C154.267 1933.05 252.819 2070.98 386.693 2230.1C386.693 2230.1 233.683 1998.96 188.041 1944.38C165.841 1917.83 92.2578 1904.32 92.2578 1904.32Z" fill="white"/>
<path d="M217.752 2421.92L-123.934 2400.31L-152.415 2850.64L189.271 2872.25L217.752 2421.92Z" fill="#D1D1D1"/>
<path fill-rule="evenodd" clip-rule="evenodd" d="M229.728 2422.68L201.246 2873.01C200.828 2879.62 195.127 2884.65 188.513 2884.23L-153.173 2862.62C-159.787 2862.21 -164.81 2856.5 -164.392 2849.89L-135.91 2399.55C-135.492 2392.94 -129.79 2387.91 -123.176 2388.33L218.51 2409.94C225.124 2410.36 230.146 2416.07 229.728 2422.68ZM217.752 2421.92L-123.934 2400.31L-152.416 2850.65L189.27 2872.26L217.752 2421.92Z" fill="white"/>
<path d="M106.449 2574.08L-51.959 2564.06L-69.2858 2838.02L89.1221 2848.04L106.449 2574.08Z" fill="#8D8D8D"/>
<path fill-rule="evenodd" clip-rule="evenodd" d="M118.425 2574.84L101.098 2848.8C100.68 2855.41 94.9787 2860.43 88.3647 2860.02L-70.0432 2850C-76.6572 2849.58 -81.6802 2843.88 -81.262 2837.27L-63.935 2563.3C-63.5168 2556.69 -57.8157 2551.67 -51.2017 2552.09L107.206 2562.11C113.82 2562.53 118.843 2568.23 118.425 2574.84ZM106.449 2574.08L-51.9589 2564.06L-69.286 2838.02L89.1219 2848.04L106.449 2574.08Z" fill="white"/>
<path fill-rule="evenodd" clip-rule="evenodd" d="M89.2775 2659.81C43.6084 2618.2 22.9191 2590.66 -47.7942 2671.87L42.297 2937.01L89.2775 2659.81Z" fill="#A4A4A4"/>
<path fill-rule="evenodd" clip-rule="evenodd" d="M101.105 2661.82L54.1261 2939.02C53.2101 2944.43 48.7317 2948.53 43.254 2948.97C37.7776 2949.41 32.6998 2946.07 30.935 2940.87L-59.1562 2675.73C-60.5331 2671.68 -59.6517 2667.21 -56.8429 2663.98C-38.2097 2642.58 -22.7867 2628.44 -9.50881 2619.81C5.97799 2609.74 19.1869 2606.64 31.3018 2607.83C41.0486 2608.8 50.247 2612.6 59.491 2618.69C71.1615 2626.38 83.1201 2637.97 97.3598 2650.94C100.378 2653.7 101.788 2657.79 101.105 2661.82ZM89.2772 2659.81C43.6081 2618.2 22.9188 2590.66 -47.7945 2671.87L42.2967 2937.01L89.2772 2659.81Z" fill="black"/>
<path fill-rule="evenodd" clip-rule="evenodd" d="M29.4258 2642.94L35.0088 2717.99L55.2948 2729.76L45.9928 2765.59L57.5818 2866.79L70.6167 2759.78L87.8887 2717.42L69.2307 2705.12L74.5507 2652.43C61.4308 2640.08 46.4438 2636.65 29.4258 2642.94Z" fill="white"/>
<path d="M577.956 2286.92L236.27 2265.31L207.788 2715.64L549.474 2737.25L577.956 2286.92Z" fill="#D1D1D1"/>
<path fill-rule="evenodd" clip-rule="evenodd" d="M589.931 2287.68L561.449 2738.01C561.032 2744.62 555.33 2749.65 548.716 2749.23L207.03 2727.62C200.416 2727.21 195.393 2721.5 195.811 2714.89L224.293 2264.55C224.711 2257.94 230.413 2252.91 237.027 2253.33L578.713 2274.94C585.327 2275.36 590.349 2281.07 589.931 2287.68ZM577.955 2286.92L236.269 2265.31L207.787 2715.65L549.473 2737.26L577.955 2286.92Z" fill="white"/>
<path d="M461.482 2379.92L302.416 2369.86L283.768 2664.71L442.835 2674.77L461.482 2379.92Z" fill="#8D8D8D"/>
<path fill-rule="evenodd" clip-rule="evenodd" d="M476.851 2380.9L458.203 2675.74C457.667 2684.23 450.35 2690.68 441.862 2690.14L282.795 2680.08C274.307 2679.54 267.861 2672.23 268.398 2663.74L287.046 2368.89C287.582 2360.4 294.899 2353.96 303.387 2354.5L462.454 2364.56C470.942 2365.09 477.388 2372.41 476.851 2380.9ZM461.482 2379.92L302.415 2369.86L283.767 2664.71L442.834 2674.77L461.482 2379.92Z" fill="white"/>
<path fill-rule="evenodd" clip-rule="evenodd" d="M444.453 2462.94C407.85 2413.16 392.979 2382.09 307.685 2447.83L343.926 2725.5L444.453 2462.94Z" fill="#A4A4A4"/>
<path fill-rule="evenodd" clip-rule="evenodd" d="M455.66 2467.22L355.133 2729.79C353.169 2734.92 347.97 2738.06 342.515 2737.41C337.059 2736.77 332.738 2732.5 332.027 2727.05L295.787 2449.38C295.234 2445.14 296.976 2440.93 300.361 2438.32C322.837 2421 340.74 2410.16 355.456 2404.3C372.615 2397.48 386.176 2397.03 397.824 2400.59C407.191 2403.44 415.46 2408.97 423.331 2416.76C433.262 2426.59 442.71 2440.31 454.121 2455.82C456.54 2459.12 457.12 2463.41 455.66 2467.22ZM444.453 2462.94C407.85 2413.16 392.98 2382.09 307.686 2447.82L343.926 2725.5L444.453 2462.94Z" fill="black"/>
<path fill-rule="evenodd" clip-rule="evenodd" d="M378.748 2422.09L369.478 2496.77L387.054 2512.3L370.894 2545.61L362.373 2647.11L396.179 2544.75L421.438 2506.61L405.56 2490.88L421.129 2440.26C410.693 2425.57 396.67 2419.27 378.748 2422.09Z" fill="white"/>
<path d="M889.459 2282.61L550.6 2331.51L615.045 2778.12L953.904 2729.22L889.459 2282.61Z" fill="#D1D1D1"/>
<path fill-rule="evenodd" clip-rule="evenodd" d="M901.337 2280.9L965.783 2727.51C966.728 2734.06 962.179 2740.15 955.62 2741.1L616.76 2790C610.201 2790.94 604.115 2786.39 603.17 2779.83L538.724 2333.22C537.778 2326.67 542.328 2320.58 548.887 2319.63L887.746 2270.73C894.305 2269.79 900.391 2274.34 901.337 2280.9ZM889.46 2282.61L550.601 2331.51L615.047 2778.12L953.906 2729.22L889.46 2282.61Z" fill="white"/>
<path d="M812.357 2394.46L644.965 2418.61L698.007 2786.2L865.399 2762.04L812.357 2394.46Z" fill="#8D8D8D"/>
<path fill-rule="evenodd" clip-rule="evenodd" d="M824.233 2392.74L877.276 2760.33C878.222 2766.89 873.672 2772.98 867.113 2773.92L699.72 2798.08C693.161 2799.02 687.076 2794.47 686.129 2787.91L633.087 2420.33C632.141 2413.77 636.691 2407.68 643.25 2406.74L810.643 2382.58C817.202 2381.63 823.287 2386.19 824.233 2392.74ZM812.356 2394.46L644.964 2418.61L698.006 2786.2L865.399 2762.05L812.356 2394.46Z" fill="white"/>
<path fill-rule="evenodd" clip-rule="evenodd" d="M811.825 2503.08C766.155 2461.46 745.47 2433.92 674.755 2515.13L764.845 2780.27L811.825 2503.08Z" fill="#A4A4A4"/>
<path fill-rule="evenodd" clip-rule="evenodd" d="M823.655 2505.08L776.675 2782.27C775.758 2787.69 771.278 2791.79 765.801 2792.23C760.325 2792.67 755.249 2789.33 753.482 2784.13L663.392 2518.99C662.017 2514.95 662.898 2510.47 665.703 2507.25C684.339 2485.85 699.762 2471.7 713.042 2463.07C728.525 2453.01 741.735 2449.91 753.853 2451.1C763.598 2452.06 772.794 2455.86 782.042 2461.96C793.711 2469.64 805.669 2481.23 819.907 2494.2C822.925 2496.95 824.338 2501.06 823.655 2505.08ZM811.825 2503.08C766.154 2461.46 745.47 2433.92 674.754 2515.13L764.844 2780.27L811.825 2503.08Z" fill="black"/>
<path fill-rule="evenodd" clip-rule="evenodd" d="M738.43 2478.14L744.013 2553.19L764.299 2564.96L754.997 2600.79L766.586 2701.99L779.621 2594.98L796.893 2552.62L778.235 2540.32L783.556 2487.63C770.435 2475.28 755.448 2471.85 738.43 2478.14Z" fill="white"/>
<path fill-rule="evenodd" clip-rule="evenodd" d="M665.385 2513.57L617.06 2607.49L547.044 2376.66L528.611 2728.93L557.718 2728.09L570.444 2652.84L594.034 2658.3L620.108 2814.57L738.777 2738.35L665.385 2513.57Z" fill="black" fill-opacity="0.3"/>
<path fill-rule="evenodd" clip-rule="evenodd" d="M-6.70414 2004.34L151.607 2397.55L145.446 2486.75C173.846 2490.32 198.493 2479.35 216.704 2443.49L268.317 2512.95L330.406 2458.55L365.698 2712.05L-24.7031 2715.92L-6.70414 2004.34Z" fill="black" fill-opacity="0.3"/>
<path d="M1517.43 338.209L1611.61 667.367L1177.79 791.505L1083.6 462.347L1517.43 338.209Z" fill="#D1D1D1"/>
<path fill-rule="evenodd" clip-rule="evenodd" d="M1528.96 334.909L1623.15 664.067C1624.97 670.438 1621.28 677.084 1614.91 678.905L1181.09 803.044C1174.72 804.865 1168.07 801.179 1166.25 794.808L1072.06 465.65C1070.24 459.279 1073.93 452.633 1080.3 450.812L1514.12 326.673C1520.49 324.852 1527.14 328.537 1528.96 334.909ZM1517.43 338.21L1083.6 462.349L1177.79 791.507L1611.61 667.368L1517.43 338.21Z" fill="white"/>
<path d="M1410.69 514.788L1447.26 642.594L1213.47 709.491L1176.9 581.685L1410.69 514.788Z" fill="#8D8D8D"/>
<path fill-rule="evenodd" clip-rule="evenodd" d="M1422.22 511.487L1458.79 639.293C1460.62 645.665 1456.93 652.308 1450.56 654.13L1216.77 721.028C1210.4 722.85 1203.76 719.165 1201.93 712.793L1165.36 584.987C1163.54 578.616 1167.23 571.971 1173.6 570.149L1407.39 503.251C1413.75 501.429 1420.4 505.116 1422.22 511.487ZM1410.69 514.788L1176.9 581.686L1213.47 709.491L1447.26 642.593L1410.69 514.788Z" fill="white"/>
<path fill-rule="evenodd" clip-rule="evenodd" d="M1332.08 532.895C1382.5 568.607 1413.83 582.922 1349.62 669.374L1071.35 638.073L1332.08 532.895Z" fill="#A4A4A4"/>
<path fill-rule="evenodd" clip-rule="evenodd" d="M1339.01 523.103C1354.74 534.238 1368.62 543.437 1378.62 553.193C1386.55 560.925 1392.23 569.097 1395.25 578.408C1399.01 589.993 1398.8 603.559 1392.29 620.835C1386.69 635.653 1376.18 653.748 1359.26 676.527C1356.71 679.96 1352.52 681.774 1348.28 681.298L1070.01 649.998C1064.54 649.383 1060.2 645.141 1059.45 639.697C1058.71 634.253 1061.77 629 1066.86 626.943L1327.59 521.765C1331.38 520.238 1335.68 520.744 1339.01 523.103ZM1332.08 532.896L1071.35 638.074L1349.62 669.374C1413.83 582.923 1382.5 568.608 1332.08 532.896Z" fill="black"/>
<path fill-rule="evenodd" clip-rule="evenodd" d="M1325.89 546.794L1254.89 571.729L1248.81 594.384L1211.79 594.74L1117.11 632.28L1223.82 616.997L1269.21 622.636L1276.23 601.425L1328.49 592.826C1337 576.941 1336.4 561.587 1325.89 546.794Z" fill="white"/>
<path fill-rule="evenodd" clip-rule="evenodd" d="M2573.68 333.865L2548.89 714.737L1997.13 839.543L2153.23 155.647L2573.68 333.865Z" fill="#8D8D8D"/>
<path fill-rule="evenodd" clip-rule="evenodd" d="M2587.65 334.771L2562.86 715.653C2562.45 721.842 2558.03 727.026 2551.98 728.393L2000.22 853.199C1995.53 854.258 1990.62 852.837 1987.22 849.43C1983.82 846.032 1982.41 841.119 1983.48 836.426L2139.58 152.53C2140.5 148.491 2143.17 145.063 2146.85 143.179C2150.54 141.297 2154.88 141.136 2158.69 142.754L2579.14 320.973C2584.62 323.298 2588.04 328.832 2587.65 334.771ZM2573.68 333.865L2153.23 155.647L1997.13 839.543L2548.89 714.737L2573.68 333.865Z" fill="white"/>
<path fill-rule="evenodd" clip-rule="evenodd" d="M2300.11 360.089L2248.1 1031.29L2167.31 1065.28L1217.07 274.239C1217.07 274.239 1517.88 234.005 1630.87 221.68C1721.42 211.795 1790.72 178.938 1895.03 200.276C2001.67 222.08 2300.11 360.089 2300.11 360.089Z" fill="#D1D1D1" stroke="white" stroke-width="11.6963" stroke-miterlimit="1.5" stroke-linecap="square" stroke-linejoin="round"/>
<path fill-rule="evenodd" clip-rule="evenodd" d="M1740.64 209.9L1947.5 329.01L1997.15 408.128L1996.5 299.135L1912.46 236.163L1866.38 197.219L1740.64 209.9Z" fill="#FF2E33" stroke="black" stroke-width="12" stroke-miterlimit="1.5" stroke-linecap="square" stroke-linejoin="round"/>
<path fill-rule="evenodd" clip-rule="evenodd" d="M2071.43 278.912L1881.2 209L1675.78 237.997L1882.72 225.445L2071.43 278.912Z" fill="white"/>
<path d="M2046.47 684.529L2315.69 896.029L2036.94 1250.87L1767.71 1039.36L2046.47 684.529Z" fill="#D1D1D1"/>
<path fill-rule="evenodd" clip-rule="evenodd" d="M2053.88 675.092L2323.11 886.593C2328.32 890.687 2329.22 898.237 2325.13 903.442L2046.37 1258.28C2042.28 1263.49 2034.74 1264.4 2029.52 1260.31L1760.3 1048.81C1755.08 1044.71 1754.18 1037.16 1758.27 1031.96L2037.03 677.116C2041.12 671.91 2048.67 670.998 2053.88 675.092ZM2046.47 684.529L1767.71 1039.37L2036.94 1250.87L2315.69 896.029L2046.47 684.529Z" fill="white"/>
<path d="M2063.47 890.158L2168 972.279L2017.78 1163.5L1913.25 1081.38L2063.47 890.158Z" fill="#8D8D8D"/>
<path fill-rule="evenodd" clip-rule="evenodd" d="M2070.88 880.725L2175.42 962.847C2180.63 966.941 2181.53 974.485 2177.44 979.693L2027.22 1170.92C2023.13 1176.12 2015.58 1177.03 2010.37 1172.94L1905.83 1090.82C1900.62 1086.72 1899.72 1079.18 1903.81 1073.97L2054.03 882.745C2058.12 877.537 2065.67 876.631 2070.88 880.725ZM2063.47 890.158L1913.25 1081.38L2017.78 1163.5L2168 972.28L2063.47 890.158Z" fill="white"/>
<path fill-rule="evenodd" clip-rule="evenodd" d="M2032.36 959.762C2094.14 959.147 2106.89 946.227 2105.53 1053.9L1882.74 1197.79L2032.36 959.762Z" fill="#A4A4A4"/>
<path fill-rule="evenodd" clip-rule="evenodd" d="M2032.24 947.763C2051.4 947.569 2065.99 946.317 2077 947.546C2087.06 948.667 2094.78 951.749 2100.87 957.505C2106.55 962.879 2111.01 970.909 2113.73 983.425C2116.92 998.172 2117.96 1020.47 2117.53 1054.05C2117.48 1058.07 2115.42 1061.8 2112.04 1063.98L1889.25 1207.87C1884.52 1210.93 1878.31 1210.29 1874.31 1206.33C1870.3 1202.38 1869.58 1196.17 1872.58 1191.41L2022.19 953.376C2024.37 949.916 2028.15 947.804 2032.24 947.763ZM2032.36 959.761L1882.74 1197.79L2105.53 1053.9C2106.89 946.226 2094.14 959.146 2032.36 959.761Z" fill="black"/>
<path fill-rule="evenodd" clip-rule="evenodd" d="M2074.16 970.327L2017.91 1031.05L2024.06 1056.75L1987.97 1075.77L1915.25 1161.04L2011.66 1091.95L2059.16 1074.69L2054.69 1049.95L2101.32 1015.02C2101.16 994.858 2092.36 979.808 2074.16 970.327Z" fill="white"/>
<path d="M1804.22 288.754L2080.09 491.525L1812.84 855.105L1536.98 652.334L1804.22 288.754Z" fill="#D1D1D1"/>
<path fill-rule="evenodd" clip-rule="evenodd" d="M1811.33 279.084L2087.19 481.856C2092.53 485.781 2093.67 493.298 2089.75 498.632L1822.5 862.216C1818.58 867.55 1811.07 868.703 1805.73 864.778L1529.86 662.007C1524.52 658.082 1523.38 650.565 1527.3 645.231L1794.55 281.646C1798.47 276.312 1805.99 275.159 1811.33 279.084ZM1804.22 288.753L1536.97 652.338L1812.83 855.109L2080.09 491.525L1804.22 288.753Z" fill="white"/>
<path d="M1791.88 476.877L1919.77 570.883L1764.79 781.728L1636.9 687.722L1791.88 476.877Z" fill="#8D8D8D"/>
<path fill-rule="evenodd" clip-rule="evenodd" d="M1798.78 467.493L1926.67 561.499C1931.85 565.309 1932.97 572.599 1929.16 577.781L1774.17 788.63C1770.37 793.811 1763.08 794.923 1757.89 791.113L1630 697.107C1624.82 693.297 1623.7 686.008 1627.51 680.826L1782.5 469.977C1786.3 464.795 1793.59 463.683 1798.78 467.493ZM1791.88 476.876L1636.9 687.724L1764.79 781.731L1919.77 570.882L1791.88 476.876Z" fill="white"/>
<path fill-rule="evenodd" clip-rule="evenodd" d="M1748.87 566.027C1810.62 563.815 1844.21 556.185 1845.63 663.86L1605.46 807.846L1748.87 566.027Z" fill="#A4A4A4"/>
<path fill-rule="evenodd" clip-rule="evenodd" d="M1748.45 554.03C1767.7 553.343 1784.31 552.237 1798.18 553.92C1809.17 555.251 1818.65 558.298 1826.71 563.865C1836.72 570.794 1844.79 581.696 1850.09 599.391C1854.64 614.564 1857.26 635.324 1857.63 663.697C1857.69 667.972 1855.47 671.957 1851.8 674.15L1611.63 818.136C1606.92 820.968 1600.89 820.227 1597 816.35C1593.1 812.477 1592.34 806.45 1595.14 801.729L1738.55 559.905C1740.64 556.395 1744.36 554.182 1748.45 554.03ZM1748.87 566.026L1605.46 807.845L1845.63 663.859C1844.21 556.184 1810.62 563.814 1748.87 566.026Z" fill="black"/>
<path fill-rule="evenodd" clip-rule="evenodd" d="M1806.49 573.449L1760.65 625.527L1766.28 646.84L1736.49 663.598L1677.36 736.571L1756.59 676.536L1795.95 660.975L1791.75 640.423L1830.03 610.119C1829.52 593.285 1821.88 580.927 1806.49 573.449Z" fill="white"/>
<path d="M1447.29 195.125L1723.15 397.896L1455.9 761.476L1180.04 558.705L1447.29 195.125Z" fill="#D1D1D1"/>
<path fill-rule="evenodd" clip-rule="evenodd" d="M1454.39 185.455L1730.25 388.227C1735.59 392.152 1736.74 399.669 1732.82 405.003L1465.57 768.587C1461.64 773.922 1454.13 775.074 1448.79 771.149L1172.93 568.378C1167.59 564.453 1166.44 556.936 1170.37 551.602L1437.62 188.017C1441.54 182.683 1449.05 181.53 1454.39 185.455ZM1447.29 195.124L1180.03 558.709L1455.9 761.48L1723.15 397.896L1447.29 195.124Z" fill="white"/>
<path d="M1476.89 341.212L1605.31 435.609L1419.86 687.909L1291.43 593.512L1476.89 341.212Z" fill="#8D8D8D"/>
<path fill-rule="evenodd" clip-rule="evenodd" d="M1484.23 331.221L1612.65 425.618C1618.17 429.675 1619.36 437.438 1615.3 442.957L1429.85 695.259C1425.79 700.778 1418.03 701.962 1412.51 697.904L1284.09 603.507C1278.57 599.449 1277.38 591.686 1281.44 586.168L1466.89 333.865C1470.95 328.346 1478.71 327.163 1484.23 331.221ZM1476.88 341.212L1291.43 593.515L1419.85 687.912L1605.31 435.609L1476.88 341.212Z" fill="white"/>
<path fill-rule="evenodd" clip-rule="evenodd" d="M1425.6 441.577C1487.34 438.985 1520.88 431.145 1522.97 538.811L1283.69 684.275L1425.6 441.577Z" fill="#A4A4A4"/>
<path fill-rule="evenodd" clip-rule="evenodd" d="M1425.1 429.584C1444.35 428.777 1460.96 427.568 1474.84 429.164C1485.84 430.43 1495.33 433.417 1503.42 438.939C1513.48 445.803 1521.61 456.661 1527.03 474.314C1531.67 489.459 1534.41 510.205 1534.97 538.576C1535.05 542.849 1532.85 546.846 1529.2 549.063L1289.92 694.528C1285.22 697.386 1279.19 696.685 1275.27 692.832C1271.35 688.983 1270.55 682.96 1273.32 678.22L1415.25 435.517C1417.31 431.994 1421.02 429.76 1425.1 429.584ZM1425.6 441.577L1283.69 684.275L1522.97 538.81C1520.88 431.145 1487.34 438.984 1425.6 441.577Z" fill="black"/>
<path fill-rule="evenodd" clip-rule="evenodd" d="M1426.29 415.865L1374.49 471.145C1374.49 471.145 1314.47 504.436 1301.11 514.595C1282.18 528.996 1234.52 574.776 1234.52 574.776L1192.83 545.573L1174.49 563.027L1248.07 610.249L1299.12 647.759C1322.43 626.921 1309.79 584.421 1335.41 593.813L1426.29 415.865Z" fill="black" fill-opacity="0.3"/>
<path fill-rule="evenodd" clip-rule="evenodd" d="M1470.96 452.56L1425.9 496.049L1433.71 520.711L1400.79 538.366L1338.02 618.829L1424.57 554.183L1468.49 538.381L1462.36 514.662L1504.1 481.945C1502.42 462.665 1489.01 461.892 1470.96 452.56Z" fill="white"/>
<path d="M1332.98 -119.081L1561.42 135.938L1225.31 437.007L996.876 181.989L1332.98 -119.081Z" fill="#D1D1D1"/>
<path fill-rule="evenodd" clip-rule="evenodd" d="M1341.92 -127.088L1570.36 127.931C1574.78 132.867 1574.36 140.459 1569.42 144.876L1233.31 445.95C1228.38 450.366 1220.79 449.954 1216.37 445.018L987.934 189.999C983.512 185.063 983.934 177.471 988.865 173.054L1324.98 -128.02C1329.91 -132.437 1337.5 -132.024 1341.92 -127.088ZM1332.98 -119.081L996.872 181.992L1225.31 437.011L1561.42 135.937L1332.98 -119.081Z" fill="white"/>
<path d="M1320.31 16.1761L1433.15 142.152L1192.36 357.846L1079.51 231.87L1320.31 16.1761Z" fill="#8D8D8D"/>
<path fill-rule="evenodd" clip-rule="evenodd" d="M1328.41 8.92066L1441.25 134.897C1445.26 139.372 1444.88 146.25 1440.41 150.256L1199.61 365.953C1195.14 369.958 1188.26 369.581 1184.25 365.106L1071.41 239.129C1067.4 234.654 1067.78 227.776 1072.25 223.77L1313.05 8.07374C1317.52 4.06803 1324.4 4.44559 1328.41 8.92066ZM1320.31 16.1768L1079.51 231.873L1192.35 357.849L1433.15 142.153L1320.31 16.1768Z" fill="white"/>
<path fill-rule="evenodd" clip-rule="evenodd" d="M1218.94 129.533L1088.4 220.458L986.818 188.532L1108.75 317.493L1231.34 441.838L1298.13 245.832L1218.94 129.533Z" fill="black" fill-opacity="0.3"/>
<path fill-rule="evenodd" clip-rule="evenodd" d="M1251.7 109.457C1313.43 112.122 1347.52 107.161 1340.45 214.614L1089.67 339.212L1251.7 109.457Z" fill="#A4A4A4"/>
<path fill-rule="evenodd" clip-rule="evenodd" d="M1252.23 97.4649C1271.47 98.2969 1288.12 98.5038 1301.82 101.274C1312.67 103.471 1321.87 107.253 1329.47 113.438C1338.9 121.137 1346.09 132.643 1349.98 150.697C1353.32 166.177 1354.29 187.085 1352.42 215.401C1352.14 219.665 1349.61 223.461 1345.79 225.361L1095.01 349.958C1090.09 352.402 1084.13 351.196 1080.56 347.023C1076.99 342.851 1076.7 336.787 1079.87 332.294L1241.9 102.539C1244.25 99.2031 1248.15 97.288 1252.23 97.4649ZM1251.7 109.457L1089.67 339.212L1340.45 214.614C1347.52 107.161 1313.43 112.122 1251.7 109.457Z" fill="black"/>
<path fill-rule="evenodd" clip-rule="evenodd" d="M1303.13 118.075L1249.49 170.945L1255.17 196.181L1220.87 210.974L1151.49 285.81L1243.22 228.756L1288.33 216.745L1284.24 192.59L1328.61 163.54C1328.57 144.187 1320.33 128.91 1303.13 118.075Z" fill="white"/>
<path fill-rule="evenodd" clip-rule="evenodd" d="M2122.94 1146.41L2093.55 1071.01L1943.03 1175.37L2037.71 1256.39L2109.47 1170.29L2208.05 1132.02L2193.71 951.261L2059.61 889.458C1992.3 947.286 1930.46 951.216 1873.23 909.663L1952.72 804.308L1988.34 737.604L1993.7 618.868L1816.74 853.617C1814.87 818.671 1803.12 741.782 1844.64 662.15L1602.67 817.075L1779.57 550.849C1718.42 535.456 1693.05 500.259 1708.15 442.662L1660.72 482.004L1437.39 673.359L1394.11 637.112L1525.01 546.858C1385.55 591.328 1293.95 668.834 1293.95 668.834L1134.98 656.319L1176.05 793.049L1400.69 737.947L1458.99 767.229L1515.54 696.217L1571.57 686.823L1639.5 736.385L1599.12 806.544L1516.86 818.364L1507.81 886.332C1507.81 886.332 1370.79 917.237 1399.9 919.121C1429.01 921.005 1512.71 926.682 1512.71 926.682L1549.43 1079.03L1687.5 1055.39L1580.27 1165.2L1429.49 1191.77L1434.16 1280.24C1410 1301.84 1376.99 1322.45 1338.39 1342.43L1454.11 1346.5L1464.52 1381.08L1593.32 1442.35L1569.49 1522.57L1644.91 1572.38L1621.83 1623.68L1569.97 1681.56L1634.92 1664.92L1702.03 1613.53L1724.57 1608.39C1789.46 1583.16 1882.43 1510.76 1949.52 1406.02C1962.51 1298.54 1971.99 1220.34 1940.82 1182.01L1889.76 1189.4L2100.76 915.125C2149.47 903.936 2194.95 1035.41 2122.94 1146.41Z" fill="black" fill-opacity="0.3"/>
</g>
<defs>
<clipPath id="clip0_876_3">
<rect width="2160" height="2700" fill="white"/>
</clipPath>
</defs>
</svg>
