<svg width="2160" height="2700" viewBox="0 0 2160 2700" fill="none" xmlns="http://www.w3.org/2000/svg">
<g clip-path="url(#clip0_2055_172)">
<path fill-rule="evenodd" clip-rule="evenodd" d="M-17.8417 1190.65C7.97513 1229.21 280.03 1859.86 280.03 1859.86L64.8558 1750.93L647.38 2570.39L74.8484 2203.39L360.271 2854.54L-140.743 2424.59L-285 750.725L184.282 1246.19C184.282 1246.19 -43.6585 1152.08 -17.8417 1190.65Z" fill="#777777" stroke="white" stroke-width="9.00035" stroke-miterlimit="1.5" stroke-linecap="square" stroke-linejoin="round"/>
<path fill-rule="evenodd" clip-rule="evenodd" d="M188.691 1974.93L511.399 2416.27L330.868 2198.75L188.691 1974.93Z" fill="white"/>
<path fill-rule="evenodd" clip-rule="evenodd" d="M44.3984 2211.27L268.908 2709.79L137.239 2459.65L44.3984 2211.27Z" fill="white"/>
<path fill-rule="evenodd" clip-rule="evenodd" d="M2.75 1294.68L227.26 1793.19L95.5909 1543.05L2.75 1294.68Z" fill="white"/>
<path fill-rule="evenodd" clip-rule="evenodd" d="M-83.9167 1187.23C-62.2286 1228.26 143.121 1883.67 143.121 1883.67L-59.629 1753.06L434.991 2628.38L-96.5001 2204.12L120.024 2881.31L-333.82 2401.84L-503.055 459.468C-325.319 347.873 -304.128 722.026 -304.128 722.026L111.376 1263.38C111.376 1263.38 -105.605 1146.2 -83.9167 1187.23Z" fill="#777777" stroke="white" stroke-width="9.00035" stroke-miterlimit="1.5" stroke-linecap="square" stroke-linejoin="round"/>
<path fill-rule="evenodd" clip-rule="evenodd" d="M-82.375 1250.92L82.1395 1772.31L-19.2944 1508.46L-82.375 1250.92Z" fill="white"/>
<path fill-rule="evenodd" clip-rule="evenodd" d="M9.24219 1926.07L273.701 2404.59L122.051 2166.03L9.24219 1926.07Z" fill="white"/>
<path fill-rule="evenodd" clip-rule="evenodd" d="M-91.2812 2014.18L-65.7303 1994.33L173.249 2327.02L172.015 2327.98L-91.2812 2014.18Z" fill="black"/>
<path fill-rule="evenodd" clip-rule="evenodd" d="M61.5335 1994.94L86.5619 1974.43L334.075 2300.82L332.867 2301.81L61.5335 1994.94Z" fill="black"/>
<path fill-rule="evenodd" clip-rule="evenodd" d="M-93.77 1369.63L-66.9906 1351.47L150.008 1698.89L148.715 1699.77L-93.77 1369.63Z" fill="black"/>
<path fill-rule="evenodd" clip-rule="evenodd" d="M-64.9693 2278.5L-38.1899 2260.34L178.809 2607.76L177.515 2608.64L-64.9693 2278.5Z" fill="black"/>
<path fill-rule="evenodd" clip-rule="evenodd" d="M2681.18 1855.62L2286.64 187.871C2263.82 457.111 2194 723.288 2042.96 984.174L2316.14 811.745C2211.13 1170.23 2041.64 1574.36 1830.78 1934L2410.03 1436.14L1778.43 2593.93L2681.18 1855.62Z" fill="#777777" stroke="white" stroke-width="9.99799" stroke-miterlimit="1.5" stroke-linecap="square" stroke-linejoin="round"/>
<path fill-rule="evenodd" clip-rule="evenodd" d="M2234.75 1390.15L2260.18 1410.16L1994.98 1722.35L1993.75 1721.38L2234.75 1390.15Z" fill="black"/>
<path fill-rule="evenodd" clip-rule="evenodd" d="M2216.65 2016.92L2242.08 2036.92L1976.88 2349.11L1975.65 2348.15L2216.65 2016.92Z" fill="black"/>
<path fill-rule="evenodd" clip-rule="evenodd" d="M2865.54 2151.32L2436.89 269.875C2271.17 111.029 2276.69 475.141 2276.69 475.141L1994.62 1366.91C1994.62 1366.91 2414.5 957.818 2397.28 999.073C2380.05 1040.33 1984.85 2071.36 1984.85 2071.36L2575.87 1576.32L1919.28 2618.35L2390.52 2296.13L1940.78 2736.24L2865.54 2151.32Z" fill="#777777" stroke="white" stroke-width="9.00035" stroke-miterlimit="1.5" stroke-linecap="square" stroke-linejoin="round"/>
<path fill-rule="evenodd" clip-rule="evenodd" d="M2293.38 677.328L2068.87 1175.84L2200.54 925.703L2293.38 677.328Z" fill="white"/>
<path fill-rule="evenodd" clip-rule="evenodd" d="M2223.91 1186.04L1999.4 1684.55L2131.07 1434.41L2223.91 1186.04Z" fill="white"/>
<path fill-rule="evenodd" clip-rule="evenodd" d="M2236.58 1435.73L2061.94 1953.83L2168.49 1692L2236.58 1435.73Z" fill="white"/>
<path fill-rule="evenodd" clip-rule="evenodd" d="M2163.77 1962.77L1886.67 2434.08L2044.61 2199.65L2163.77 1962.77Z" fill="white"/>
<path fill-rule="evenodd" clip-rule="evenodd" d="M2286.42 2050.79L2009.32 2522.11L2167.26 2287.67L2286.42 2050.79Z" fill="white"/>
<path fill-rule="evenodd" clip-rule="evenodd" d="M2463.8 2279.58L2057.55 2645.48L2278.8 2469.54L2463.8 2279.58Z" fill="white"/>
<path fill-rule="evenodd" clip-rule="evenodd" d="M2318.62 863.457L2344.05 883.464L2078.85 1195.65L2077.62 1194.69L2318.62 863.457Z" fill="black"/>
<path fill-rule="evenodd" clip-rule="evenodd" d="M2322.33 1592.71L2347.76 1612.72L2082.56 1924.91L2081.34 1923.94L2322.33 1592.71Z" fill="black"/>
<path fill-rule="evenodd" clip-rule="evenodd" d="M2284.99 2170.52L2310.42 2190.53L2045.22 2502.72L2044 2501.75L2284.99 2170.52Z" fill="black"/>
</g>
<defs>
<clipPath id="clip0_2055_172">
<rect width="2160" height="2700" fill="white"/>
</clipPath>
</defs>
</svg>
