<svg width="2160" height="2700" viewBox="0 0 2160 2700" fill="none" xmlns="http://www.w3.org/2000/svg">
<g clip-path="url(#clip0_910_9)">
<path d="M1096.58 1144.03C800.177 1141.15 561.203 1003.96 562.818 837.598C564.433 671.238 806.024 538.708 1102.43 541.586C1398.83 544.463 1637.8 681.656 1636.19 848.016C1634.57 1014.38 1392.98 1146.91 1096.58 1144.03Z" fill="#D50409" stroke="black" stroke-width="12.1401" stroke-miterlimit="1.5" stroke-linecap="round" stroke-linejoin="round"/>
<path d="M1111.48 870.9C883.513 868.688 699.173 818.8 699.749 759.474C700.325 700.147 885.598 653.847 1113.57 656.06C1341.54 658.273 1525.88 708.16 1525.3 767.487C1524.73 826.813 1339.45 873.113 1111.48 870.9Z" fill="#808080" stroke="black" stroke-width="6.35797" stroke-miterlimit="1.5" stroke-linecap="round" stroke-linejoin="round"/>
<path d="M1117.59 851.726C889.622 849.513 705.135 814.707 705.531 773.984C705.926 733.261 891.053 702.042 1119.02 704.255C1346.99 706.468 1531.48 741.274 1531.08 781.997C1530.69 822.72 1345.56 853.939 1117.59 851.726Z" fill="#D50409" stroke="black" stroke-width="6.26906" stroke-miterlimit="1.5" stroke-linecap="round" stroke-linejoin="round"/>
<path fill-rule="evenodd" clip-rule="evenodd" d="M1112.51 780.804L1112.54 791.804L1090.54 791.862L1090.51 780.862L1100.1 706.639V705.428L1102.52 705.422L1102.53 706.633L1112.51 780.804Z" fill="#FF8184" stroke="#810306" stroke-width="6" stroke-miterlimit="2" stroke-linejoin="round"/>
<path fill-rule="evenodd" clip-rule="evenodd" d="M1208.36 785.424L1207.05 796.346L1185.2 793.716L1186.52 782.795L1205.1 710.299L1205.25 709.097L1207.65 709.387L1207.51 710.59L1208.36 785.424Z" fill="#FF8184" stroke="#810306" stroke-width="6" stroke-miterlimit="2" stroke-linejoin="round"/>
<path fill-rule="evenodd" clip-rule="evenodd" d="M1007.05 781.167L1008.7 792.043L986.943 795.328L985.3 784.452L983.896 709.625L983.719 708.427L986.111 708.066L986.299 709.263L1007.05 781.167Z" fill="#FF8184" stroke="#810306" stroke-width="6" stroke-miterlimit="2" stroke-linejoin="round"/>
<path fill-rule="evenodd" clip-rule="evenodd" d="M927.102 769.993L929.778 780.663L908.438 786.013L905.763 775.343L897.212 700.993L896.921 699.818L899.269 699.229L899.57 700.402L927.102 769.993Z" fill="#FF8184" stroke="#810306" stroke-width="6" stroke-miterlimit="2" stroke-linejoin="round"/>
<path fill-rule="evenodd" clip-rule="evenodd" d="M1058.63 750.654L1059.23 761.637L1037.26 762.834L1036.66 751.851L1042.4 677.231L1042.33 676.021L1044.75 675.89L1044.82 677.099L1058.63 750.654Z" fill="#FF8184" stroke="#810306" stroke-width="6" stroke-miterlimit="2" stroke-linejoin="round"/>
<path fill-rule="evenodd" clip-rule="evenodd" d="M1164.17 756.019L1163.51 767L1141.55 765.696L1142.2 754.715L1156.37 681.228L1156.45 680.02L1158.86 680.164L1158.8 681.373L1164.17 756.019Z" fill="#FF8184" stroke="#810306" stroke-width="6" stroke-miterlimit="2" stroke-linejoin="round"/>
<path fill-rule="evenodd" clip-rule="evenodd" d="M1261.51 765.388L1260.09 776.295L1238.28 773.45L1239.7 762.542L1259 690.233L1259.16 689.033L1261.56 689.346L1261.41 690.548L1261.51 765.388Z" fill="#FF8184" stroke="#810306" stroke-width="6" stroke-miterlimit="2" stroke-linejoin="round"/>
<path fill-rule="evenodd" clip-rule="evenodd" d="M1318.79 763.603L1317.02 774.46L1295.31 770.92L1297.08 760.063L1318.67 688.407L1318.87 687.213L1321.26 687.603L1321.07 688.799L1318.79 763.603Z" fill="#FF8184" stroke="#810306" stroke-width="6" stroke-miterlimit="2" stroke-linejoin="round"/>
<path fill-rule="evenodd" clip-rule="evenodd" d="M883.464 796.327L886.653 806.855L865.596 813.229L862.408 802.701L850.277 728.851L849.929 727.691L852.245 726.99L852.603 728.147L883.464 796.327Z" fill="#FF8184" stroke="#810306" stroke-width="6" stroke-miterlimit="2" stroke-linejoin="round"/>
<path fill-rule="evenodd" clip-rule="evenodd" d="M944.503 636.244L946.545 647.053L924.927 651.135L922.885 640.327L918.733 565.602L918.511 564.411L920.889 563.963L921.121 565.151L944.503 636.244Z" fill="#FF8184" stroke="#810306" stroke-width="6" stroke-miterlimit="2" stroke-linejoin="round"/>
<path fill-rule="evenodd" clip-rule="evenodd" d="M1009.06 628.369L1010.08 639.322L988.171 641.35L987.156 630.397L990.061 555.613L989.952 554.407L992.362 554.184L992.481 555.389L1009.06 628.369Z" fill="#FF8184" stroke="#810306" stroke-width="6" stroke-miterlimit="2" stroke-linejoin="round"/>
<path fill-rule="evenodd" clip-rule="evenodd" d="M1043.7 582L1044.72 592.953L1022.81 594.981L1021.8 584.027L1024.7 509.244L1024.59 508.038L1027 507.815L1027.12 509.02L1043.7 582Z" fill="#FF8184" stroke="#810306" stroke-width="6" stroke-miterlimit="2" stroke-linejoin="round"/>
<path fill-rule="evenodd" clip-rule="evenodd" d="M1087.73 627.99L1088.04 638.986L1066.05 639.606L1065.74 628.611L1073.43 554.167L1073.4 552.956L1075.82 552.888L1075.86 554.099L1087.73 627.99Z" fill="#FF8184" stroke="#810306" stroke-width="6" stroke-miterlimit="2" stroke-linejoin="round"/>
<path fill-rule="evenodd" clip-rule="evenodd" d="M1114.97 575.07L1115.28 586.066L1093.29 586.686L1092.98 575.691L1100.67 501.247L1100.64 500.036L1103.05 499.968L1103.1 501.179L1114.97 575.07Z" fill="#FF8184" stroke="#810306" stroke-width="6" stroke-miterlimit="2" stroke-linejoin="round"/>
<path fill-rule="evenodd" clip-rule="evenodd" d="M1154.79 627.375L1154.67 638.374L1132.67 638.14L1132.79 627.14L1143.37 553.051L1143.38 551.841L1145.8 551.867L1145.8 553.078L1154.79 627.375Z" fill="#FF8184" stroke="#810306" stroke-width="6" stroke-miterlimit="2" stroke-linejoin="round"/>
<path fill-rule="evenodd" clip-rule="evenodd" d="M1185.32 582.996L1184.35 593.953L1162.43 592.001L1163.41 581.045L1179.73 508.008L1179.85 506.802L1182.26 507.017L1182.16 508.224L1185.32 582.996Z" fill="#FF8184" stroke="#810306" stroke-width="6" stroke-miterlimit="2" stroke-linejoin="round"/>
<path fill-rule="evenodd" clip-rule="evenodd" d="M1214.94 628.627L1213.97 639.584L1192.06 637.632L1193.03 626.676L1209.36 553.638L1209.47 552.433L1211.88 552.648L1211.78 553.854L1214.94 628.627Z" fill="#FF8184" stroke="#810306" stroke-width="6" stroke-miterlimit="2" stroke-linejoin="round"/>
<path fill-rule="evenodd" clip-rule="evenodd" d="M1254.75 598.931L1253.55 609.866L1231.68 607.471L1232.88 596.536L1250.68 523.845L1250.82 522.642L1253.22 522.906L1253.1 524.11L1254.75 598.931Z" fill="#FF8184" stroke="#810306" stroke-width="6" stroke-miterlimit="2" stroke-linejoin="round"/>
<path fill-rule="evenodd" clip-rule="evenodd" d="M1284.73 634.931L1283.55 645.868L1261.68 643.511L1262.86 632.574L1280.54 559.852L1280.67 558.648L1283.08 558.908L1282.95 560.113L1284.73 634.931Z" fill="#FF8184" stroke="#810306" stroke-width="6" stroke-miterlimit="2" stroke-linejoin="round"/>
<path fill-rule="evenodd" clip-rule="evenodd" d="M1326.11 610.044L1324.64 620.945L1302.84 618.005L1304.31 607.103L1323.92 534.88L1324.09 533.68L1326.49 534.004L1326.33 535.205L1326.11 610.044Z" fill="#FF8184" stroke="#810306" stroke-width="6" stroke-miterlimit="2" stroke-linejoin="round"/>
<path fill-rule="evenodd" clip-rule="evenodd" d="M1352.26 648.004L1350.32 658.831L1328.67 654.948L1330.61 644.121L1353.34 572.815L1353.55 571.624L1355.94 572.051L1355.73 573.244L1352.26 648.004Z" fill="#FF8184" stroke="#810306" stroke-width="6" stroke-miterlimit="2" stroke-linejoin="round"/>
<path fill-rule="evenodd" clip-rule="evenodd" d="M1353.57 580.568L1351.63 591.396L1329.97 587.513L1331.91 576.685L1354.64 505.38L1354.86 504.188L1357.24 504.616L1357.03 505.809L1353.57 580.568Z" fill="#FF8184" stroke="#810306" stroke-width="6" stroke-miterlimit="2" stroke-linejoin="round"/>
<path fill-rule="evenodd" clip-rule="evenodd" d="M1132.28 540.15L1132.48 551.148L1110.49 551.552L1110.28 540.554L1118.71 466.189L1118.69 464.978L1121.11 464.934L1121.14 466.145L1132.28 540.15Z" fill="#FF8184" stroke="#810306" stroke-width="6" stroke-miterlimit="2" stroke-linejoin="round"/>
<path fill-rule="evenodd" clip-rule="evenodd" d="M1238.19 558.174L1237.07 569.117L1215.18 566.883L1216.3 555.94L1233.57 483.119L1233.69 481.915L1236.1 482.161L1235.99 483.367L1238.19 558.174Z" fill="#FF8184" stroke="#810306" stroke-width="6" stroke-miterlimit="2" stroke-linejoin="round"/>
<path fill-rule="evenodd" clip-rule="evenodd" d="M1068.61 535.091L1069.03 546.082L1047.05 546.926L1046.63 535.934L1053.79 467.369L1053.75 466.159L1056.16 466.067L1056.22 467.277L1068.61 535.091Z" fill="#FF8184" stroke="#810306" stroke-width="5.99383" stroke-miterlimit="2" stroke-linejoin="round"/>
<path fill-rule="evenodd" clip-rule="evenodd" d="M998.076 537.992L999.26 548.928L977.387 551.284L976.202 540.347L980.826 491.836L980.693 490.632L983.11 490.372L983.233 491.577L998.076 537.992Z" fill="#FF8184" stroke="#810306" stroke-width="6" stroke-miterlimit="2" stroke-linejoin="round"/>
<path fill-rule="evenodd" clip-rule="evenodd" d="M1167.82 534.976L1167.05 545.948L1145.1 544.387L1145.88 533.414L1159.57 478.917L1159.66 477.71L1162.07 477.881L1161.99 479.09L1167.82 534.976Z" fill="#FF8184" stroke="#810306" stroke-width="6" stroke-miterlimit="2" stroke-linejoin="round"/>
<path fill-rule="evenodd" clip-rule="evenodd" d="M1292.9 550.286L1291.16 561.149L1269.44 557.664L1271.18 546.802L1289.6 493.719L1289.8 492.524L1292.19 492.906L1292 494.104L1292.9 550.286Z" fill="#FF8184" stroke="#810306" stroke-width="6" stroke-miterlimit="2" stroke-linejoin="round"/>
<path fill-rule="evenodd" clip-rule="evenodd" d="M1014.95 542.701C1000.83 567.055 1079.55 556.494 1068.38 622.543C1065.12 641.79 935.492 721.04 935.492 721.04C909.211 740.314 1093.68 842.186 1173.8 849.011L571.916 977C558.468 725.353 707.705 566.613 1014.95 542.701Z" fill="black" fill-opacity="0.25"/>
<path fill-rule="evenodd" clip-rule="evenodd" d="M1014.95 542.701C1000.83 567.055 1079.55 556.494 1068.38 622.543C1065.12 641.79 935.492 721.04 935.492 721.04C909.211 740.314 1093.68 842.186 1173.8 849.011L571.916 977C558.468 725.353 707.705 566.613 1014.95 542.701ZM1014.95 542.701C873.356 556.196 766.214 597.869 693.604 663.647C641.982 710.413 608.12 769.443 591.975 839.438C583.092 877.951 579.493 919.747 581.355 964.622C599.951 960.552 639.636 951.91 690.115 941.157C726.035 933.506 767.425 924.802 810.559 915.874C935.663 889.978 1075.33 861.657 1138.29 848.923C1100.25 838.05 1053.27 816.985 1013.6 794.897C972.091 771.79 938.673 747.453 931.152 733.001C927.764 726.491 928.588 721.398 933.291 718.038C933.375 717.976 933.462 717.918 933.551 717.864C933.551 717.864 991.562 683.432 1031.25 654.83C1050.64 640.857 1065.76 628.539 1066.91 622.294C1070.33 603.625 1066.32 591.145 1059.19 582.263C1041.36 560.055 1004.71 559.814 1014.95 542.701Z" fill="black" fill-opacity="0.19"/>
<path d="M1168.81 204.533L999.585 108.43L528.828 937.349L698.05 1033.45L1168.81 204.533Z" fill="#808080" stroke="black" stroke-width="13.2085" stroke-miterlimit="1.5" stroke-linecap="round" stroke-linejoin="round"/>
<path d="M993.396 436.179C1011.63 436.179 1026.41 422.233 1026.41 405.031C1026.41 387.828 1011.63 373.883 993.396 373.883C975.165 373.883 960.386 387.828 960.386 405.031C960.386 422.233 975.165 436.179 993.396 436.179Z" fill="black" fill-opacity="0.31"/>
<path d="M939.942 525.327C958.173 525.327 972.952 511.382 972.952 494.179C972.952 476.977 958.173 463.031 939.942 463.031C921.711 463.031 906.932 476.977 906.932 494.179C906.932 511.382 921.711 525.327 939.942 525.327Z" fill="black" fill-opacity="0.31"/>
<path d="M892.637 608.435C910.868 608.435 925.647 594.489 925.647 577.287C925.647 560.084 910.868 546.139 892.637 546.139C874.406 546.139 859.627 560.084 859.627 577.287C859.627 594.489 874.406 608.435 892.637 608.435Z" fill="black" fill-opacity="0.31"/>
<path d="M841.608 694.966C859.839 694.966 874.618 681.02 874.618 663.818C874.618 646.615 859.839 632.67 841.608 632.67C823.377 632.67 808.598 646.615 808.598 663.818C808.598 681.02 823.377 694.966 841.608 694.966Z" fill="black" fill-opacity="0.31"/>
<path fill-rule="evenodd" clip-rule="evenodd" d="M978.964 378.135C978.964 378.135 982.776 376.686 988.359 375.762C992.686 375.048 997.939 374.7 1003.26 375.488C1006.11 375.912 1008.93 376.725 1011.6 377.955C1014.3 379.196 1016.77 380.978 1019 383.177C1020.8 385.201 1022.32 387.356 1023.36 389.681C1024.42 392.063 1025.08 394.533 1025.43 397C1025.86 400.065 1025.89 403.026 1025.61 405.783C1024.87 412.94 1022.55 418.122 1022.55 418.122C1022.55 418.122 1023.14 410.163 1020.77 401.426C1019.99 398.529 1018.8 395.636 1017.17 392.829C1016.21 391.179 1015.13 389.55 1013.71 388.086C1011.8 385.809 1009.49 384.117 1007.01 382.8C1004.24 381.335 1001.34 380.272 998.418 379.555C988.454 377.115 978.964 378.135 978.964 378.135Z" fill="black"/>
<path fill-rule="evenodd" clip-rule="evenodd" d="M925.727 467.233C925.727 467.233 929.517 465.726 935.086 464.719C939.401 463.94 944.648 463.513 949.978 464.222C952.837 464.603 955.664 465.373 958.361 466.563C961.077 467.764 963.57 469.509 965.832 471.674C967.667 473.67 969.213 475.802 970.289 478.111C971.384 480.478 972.086 482.937 972.471 485.399C972.95 488.456 973.019 491.417 972.779 494.178C972.146 501.345 969.903 506.562 969.903 506.562C969.903 506.562 970.38 498.594 967.881 489.894C967.055 487.009 965.82 484.134 964.152 481.352C963.164 479.717 962.061 478.104 960.621 476.662C958.669 474.413 956.344 472.756 953.835 471.477C951.049 470.054 948.136 469.034 945.2 468.361C935.2 466.07 925.727 467.233 925.727 467.233Z" fill="black"/>
<path fill-rule="evenodd" clip-rule="evenodd" d="M873.118 555.767C873.118 555.767 876.554 553.568 881.83 551.523C885.919 549.939 890.99 548.525 896.358 548.21C899.237 548.042 902.159 548.262 905.033 548.919C907.928 549.582 910.706 550.823 913.337 552.519C915.518 554.132 917.441 555.932 918.934 557.995C920.459 560.11 921.614 562.392 922.46 564.736C923.509 567.647 924.139 570.541 924.427 573.297C925.165 580.454 923.953 586.002 923.953 586.002C923.953 586.002 922.909 578.088 918.805 570.02C917.447 567.344 915.69 564.756 913.523 562.34C912.244 560.923 910.855 559.548 909.167 558.405C906.825 556.568 904.227 555.381 901.521 554.602C898.515 553.733 895.462 553.284 892.451 553.181C882.199 552.828 873.118 555.767 873.118 555.767Z" fill="black"/>
<path fill-rule="evenodd" clip-rule="evenodd" d="M823.053 640.296C823.053 640.296 826.481 638.086 831.75 636.022C835.834 634.425 840.9 632.994 846.267 632.66C849.145 632.482 852.067 632.692 854.944 633.339C857.841 633.993 860.623 635.224 863.261 636.911C865.447 638.516 867.375 640.31 868.876 642.368C870.408 644.478 871.571 646.756 872.425 649.097C873.484 652.005 874.123 654.896 874.421 657.651C875.184 664.806 873.99 670.357 873.99 670.357C873.99 670.357 872.92 662.448 868.788 654.393C867.421 651.722 865.655 649.14 863.48 646.732C862.196 645.319 860.802 643.949 859.11 642.812C856.762 640.982 854.16 639.805 851.452 639.034C848.443 638.175 845.388 637.737 842.377 637.644C832.123 637.327 823.053 640.296 823.053 640.296Z" fill="black"/>
<path fill-rule="evenodd" clip-rule="evenodd" d="M962.308 415.529C964.578 418.76 967.038 421.515 969.648 423.928C971.478 425.628 973.398 427.104 975.388 428.423C976.398 429.093 977.418 429.722 978.468 430.321C979.518 430.923 980.568 431.501 981.658 432.029C983.298 432.819 984.978 433.516 986.758 434.093C988.508 434.659 990.288 435.141 992.188 435.479C990.228 435.538 988.348 435.472 986.508 435.226C984.558 434.967 982.688 434.532 980.888 433.921C979.658 433.505 978.468 433.004 977.318 432.408C976.178 431.813 975.088 431.124 974.038 430.353C972.008 428.859 970.148 427.085 968.448 425.074C966.108 422.319 964.108 419.12 962.308 415.529Z" fill="#E7E7E7"/>
<path fill-rule="evenodd" clip-rule="evenodd" d="M907.529 503.898C909.799 507.129 912.259 509.884 914.869 512.297C916.699 513.997 918.619 515.473 920.609 516.792C921.619 517.462 922.639 518.091 923.689 518.69C924.739 519.292 925.789 519.87 926.879 520.398C928.519 521.188 930.199 521.885 931.979 522.462C933.729 523.028 935.509 523.51 937.409 523.848C935.449 523.907 933.569 523.841 931.729 523.595C929.779 523.336 927.909 522.901 926.109 522.29C924.879 521.874 923.689 521.373 922.539 520.777C921.399 520.182 920.309 519.493 919.259 518.722C917.229 517.228 915.369 515.454 913.669 513.443C911.329 510.688 909.329 507.489 907.529 503.898Z" fill="#E7E7E7"/>
<path fill-rule="evenodd" clip-rule="evenodd" d="M860.357 586.938C862.627 590.168 865.088 592.924 867.698 595.337C869.528 597.037 871.447 598.513 873.437 599.832C874.447 600.501 875.467 601.131 876.517 601.73C877.567 602.332 878.618 602.909 879.708 603.437C881.348 604.227 883.027 604.924 884.807 605.501C886.557 606.067 888.337 606.549 890.237 606.887C888.277 606.946 886.397 606.881 884.557 606.635C882.607 606.376 880.737 605.94 878.937 605.329C877.707 604.913 876.517 604.412 875.367 603.816C874.227 603.221 873.138 602.532 872.088 601.761C870.058 600.267 868.197 598.494 866.497 596.483C864.157 593.728 862.157 590.528 860.357 586.938Z" fill="#E7E7E7"/>
<path fill-rule="evenodd" clip-rule="evenodd" d="M810.386 675.773C812.656 679.004 815.116 681.759 817.726 684.172C819.556 685.872 821.476 687.348 823.466 688.667C824.476 689.337 825.496 689.966 826.546 690.565C827.596 691.167 828.646 691.745 829.736 692.273C831.376 693.063 833.056 693.76 834.836 694.337C836.586 694.903 838.366 695.385 840.266 695.723C838.306 695.782 836.426 695.716 834.586 695.47C832.636 695.211 830.766 694.776 828.966 694.165C827.736 693.749 826.546 693.248 825.396 692.652C824.256 692.057 823.166 691.368 822.116 690.597C820.086 689.103 818.226 687.329 816.526 685.318C814.186 682.563 812.186 679.364 810.386 675.773Z" fill="#E7E7E7"/>
<path fill-rule="evenodd" clip-rule="evenodd" d="M788.068 744.735C848.033 773.389 883.886 831.772 885.323 892.305C885.896 916.442 657.442 1042.57 647.925 1038.02C564.048 997.94 527.351 899.685 566.021 818.759C604.696 737.822 704.191 704.655 788.068 744.735Z" fill="#808080" stroke="black" stroke-width="12.346" stroke-miterlimit="1.5" stroke-linecap="round" stroke-linejoin="round"/>
<path d="M1140.67 189.598L1062.18 61.6738L249.66 560.195L328.148 688.12L1140.67 189.598Z" fill="#808080" stroke="black" stroke-width="11.5995" stroke-miterlimit="1.5" stroke-linecap="round" stroke-linejoin="round"/>
<path fill-rule="evenodd" clip-rule="evenodd" d="M896.272 237.287L873.781 185.16L893.079 100.045L805.094 145.892L794.228 212.372L775.192 161.473L723.459 188.43L707.969 238.989L687.717 207.054L556.156 275.608L608.741 381.675L896.272 237.287Z" fill="#FF050B" stroke="black" stroke-width="9.23484" stroke-miterlimit="1.5" stroke-linecap="round" stroke-linejoin="round"/>
<path d="M951.424 265.733C992.665 315.311 1068.11 320.551 1119.94 277.439C1171.76 234.326 1180.35 159.186 1139.11 109.609C1097.86 60.032 1022.42 54.7914 970.591 97.9039C918.764 141.016 910.182 216.156 951.424 265.733Z" fill="#808080" stroke="black" stroke-width="11.9032" stroke-miterlimit="1.5" stroke-linecap="round" stroke-linejoin="round"/>
<path d="M1004.38 220.773C1021.8 241.717 1054.59 243.172 1077.61 224.023C1100.63 204.873 1105.17 172.372 1087.74 151.428C1070.32 130.484 1037.54 129.029 1014.52 148.179C991.498 167.328 986.96 199.83 1004.38 220.773Z" fill="#808080" stroke="black" stroke-width="12.8265" stroke-miterlimit="1.5" stroke-linecap="round" stroke-linejoin="round"/>
<path fill-rule="evenodd" clip-rule="evenodd" d="M690.549 809.312C677.926 781.042 723.317 762.497 774.982 733.326L947.469 313.635L977.308 294.718L1034.37 303.183C995.023 279.245 1011.25 256.844 1066.5 235.52C1029.05 208.059 1008.49 179.017 1005.11 148.371C973.674 180.187 947.358 189.665 934.781 139.139L872.575 168.274L878.854 216.491L677.59 315.384L671.275 474.858L844.916 366.432L659.282 707.767L659.799 804.132L690.549 809.312Z" fill="black" fill-opacity="0.3"/>
<path d="M315.577 558.908L223.341 542.064L52.0914 1479.82L144.327 1496.67L315.577 558.908Z" fill="#808080" stroke="black" stroke-width="9.16822" stroke-miterlimit="1.5" stroke-linecap="round" stroke-linejoin="round"/>
<path fill-rule="evenodd" clip-rule="evenodd" d="M231.494 775.625L175.977 763.755L117.783 698.713L104.175 796.989L152.065 844.362L99.5499 830.388L91.5489 888.173L123.784 930.09L86.0209 928.094L78.802 980.228L107.775 1023.31L72.3779 1026.62L65.6729 1075.04L100.533 1173.41L170.796 1083.26L231.494 775.625Z" fill="#FF050B" stroke="black" stroke-width="9.23485" stroke-miterlimit="1.5" stroke-linecap="round" stroke-linejoin="round"/>
<path fill-rule="evenodd" clip-rule="evenodd" d="M154.069 1453.11L120.832 1481.75C120.832 1481.75 122.962 1472.31 115.729 1465.33C108.789 1458.63 92.1177 1461.83 88.5085 1468.9C84.7645 1476.23 87.6751 1484.18 87.6751 1484.18L49.5947 1468.89L268.174 2447.6L284.073 2264.07L154.069 1453.11Z" fill="#808080" stroke="black" stroke-width="8.92843" stroke-miterlimit="1.5" stroke-linecap="round" stroke-linejoin="round"/>
<path fill-rule="evenodd" clip-rule="evenodd" d="M-213.114 1252.88L-291.365 1311.8L114.767 2234.95L93.0816 2052.01L-213.114 1252.88Z" fill="#808080" stroke="black" stroke-width="9.16821" stroke-miterlimit="1.5" stroke-linecap="round" stroke-linejoin="round"/>
<path d="M294.719 759.548C359.163 761.939 413.431 709.264 415.93 641.896C418.429 574.528 368.213 517.977 303.769 515.586C239.325 513.196 185.057 565.871 182.558 633.239C180.059 700.607 230.275 757.158 294.719 759.548Z" fill="#808080" stroke="black" stroke-width="11.9032" stroke-miterlimit="1.5" stroke-linecap="round" stroke-linejoin="round"/>
<path d="M296.598 690.105C323.822 691.115 346.792 667.676 347.902 637.753C349.012 607.831 327.842 582.755 300.618 581.745C273.394 580.735 250.424 604.173 249.314 634.096C248.204 664.019 269.374 689.095 296.598 690.105Z" fill="#808080" stroke="black" stroke-width="12.8265" stroke-miterlimit="1.5" stroke-linecap="round" stroke-linejoin="round"/>
<path fill-rule="evenodd" clip-rule="evenodd" d="M441.872 141.82L258.485 206.941L577.478 1105.25L726.853 944.349L441.872 141.82Z" fill="#808080" stroke="black" stroke-width="13.2085" stroke-miterlimit="1.5" stroke-linecap="round" stroke-linejoin="round"/>
<path fill-rule="evenodd" clip-rule="evenodd" d="M625.805 795.643C701.133 795.643 764.978 843.459 786.488 909.324C791.523 924.743 591.441 1118.11 575.574 1113.33C507.115 1092.68 457.371 1030.99 457.371 958.168C457.371 868.465 532.844 795.643 625.805 795.643Z" fill="#808080" stroke="black" stroke-width="12.346" stroke-miterlimit="1.5" stroke-linecap="round" stroke-linejoin="round"/>
<path fill-rule="evenodd" clip-rule="evenodd" d="M407.053 192.055L327.695 74.9218L-381.384 679.078L-283.131 792.53L407.053 192.055Z" fill="#808080" stroke="black" stroke-width="11.5995" stroke-miterlimit="1.5" stroke-linecap="round" stroke-linejoin="round"/>
<path fill-rule="evenodd" clip-rule="evenodd" d="M220.538 266.906L185.694 222.084L183.032 134.85L109.354 201.295L115.506 268.375L84.3148 223.876L40.9942 262.945L38.6779 315.773L11.0649 289.936L-99.1031 389.289L-21.6007 478.781L220.538 266.906Z" fill="#FF050B" stroke="black" stroke-width="9.23484" stroke-miterlimit="1.5" stroke-linecap="round" stroke-linejoin="round"/>
<path d="M263.128 274.379C311.884 316.587 387.178 309.484 431.302 258.515C475.425 207.546 471.668 132.011 422.912 89.8029C374.155 47.5951 298.861 54.6976 254.738 105.667C210.615 156.636 214.371 232.171 263.128 274.379Z" fill="#808080" stroke="black" stroke-width="11.9032" stroke-miterlimit="1.5" stroke-linecap="round" stroke-linejoin="round"/>
<path d="M308.067 221.403C328.665 239.233 361.249 235.335 380.847 212.696C400.446 190.057 399.636 157.25 379.039 139.42C358.441 121.589 325.857 125.487 306.259 148.126C286.66 170.765 287.47 203.572 308.067 221.403Z" fill="#808080" stroke="black" stroke-width="12.8265" stroke-miterlimit="1.5" stroke-linecap="round" stroke-linejoin="round"/>
<path d="M680.984 154.62L486.563 146.137L445.006 1098.5L639.427 1106.98L680.984 154.62Z" fill="#808080" stroke="black" stroke-width="13.2085" stroke-miterlimit="1.5" stroke-linecap="round" stroke-linejoin="round"/>
<path d="M622.313 463.614C638.132 454.552 644.025 435.105 635.474 420.178C626.923 405.251 607.168 400.497 591.348 409.559C575.529 418.621 569.637 438.067 578.188 452.994C586.738 467.921 606.494 472.676 622.313 463.614Z" fill="black" fill-opacity="0.31"/>
<path d="M620.242 567.54C636.061 558.478 641.953 539.031 633.403 524.104C624.852 509.177 605.096 504.423 589.277 513.485C573.458 522.546 567.566 541.993 576.116 556.92C584.667 571.847 604.423 576.602 620.242 567.54Z" fill="black" fill-opacity="0.31"/>
<path d="M620.505 663.165C636.324 654.103 642.216 634.656 633.665 619.729C625.115 604.802 605.359 600.048 589.54 609.11C573.721 618.171 567.828 637.618 576.379 652.545C584.93 667.472 604.685 672.227 620.505 663.165Z" fill="black" fill-opacity="0.31"/>
<path d="M619.237 763.614C635.056 754.552 640.949 735.105 632.398 720.178C623.847 705.251 604.091 700.497 588.272 709.559C572.453 718.621 566.561 738.067 575.111 752.994C583.662 767.921 603.418 772.676 619.237 763.614Z" fill="black" fill-opacity="0.31"/>
<path fill-rule="evenodd" clip-rule="evenodd" d="M592.24 409.221C592.24 409.221 596.052 407.772 601.635 406.848C605.962 406.134 611.214 405.786 616.533 406.574C619.386 406.998 622.201 407.811 624.88 409.041C627.578 410.282 630.044 412.064 632.273 414.263C634.079 416.287 635.592 418.442 636.633 420.767C637.693 423.149 638.357 425.619 638.706 428.086C639.139 431.15 639.163 434.112 638.883 436.869C638.142 444.026 635.821 449.208 635.821 449.208C635.821 449.208 636.417 441.249 634.049 432.512C633.266 429.615 632.075 426.722 630.448 423.914C629.485 422.265 628.406 420.636 626.988 419.172C625.071 416.895 622.77 415.202 620.281 413.886C617.516 412.421 614.619 411.358 611.693 410.641C601.729 408.201 592.24 409.221 592.24 409.221Z" fill="black"/>
<path fill-rule="evenodd" clip-rule="evenodd" d="M576.668 449.176C578.938 452.407 581.398 455.162 584.008 457.575C585.838 459.275 587.758 460.751 589.748 462.07C590.758 462.74 591.778 463.369 592.828 463.968C593.878 464.57 594.928 465.148 596.018 465.676C597.658 466.466 599.338 467.163 601.118 467.74C602.868 468.306 604.648 468.788 606.548 469.126C604.588 469.185 602.708 469.119 600.868 468.873C598.918 468.614 597.048 468.179 595.248 467.568C594.018 467.152 592.828 466.651 591.678 466.055C590.538 465.46 589.448 464.771 588.398 464C586.368 462.506 584.508 460.732 582.808 458.721C580.468 455.966 578.468 452.767 576.668 449.176Z" fill="#E7E7E7"/>
<path fill-rule="evenodd" clip-rule="evenodd" d="M572.606 551.373C574.876 554.604 577.337 557.359 579.947 559.772C581.777 561.472 583.697 562.948 585.687 564.267C586.697 564.937 587.716 565.566 588.766 566.165C589.816 566.767 590.867 567.345 591.957 567.873C593.597 568.663 595.276 569.36 597.056 569.937C598.806 570.503 600.586 570.985 602.486 571.323C600.526 571.382 598.646 571.316 596.806 571.07C594.856 570.811 592.987 570.376 591.187 569.765C589.957 569.349 588.766 568.848 587.616 568.252C586.476 567.657 585.387 566.968 584.337 566.197C582.307 564.703 580.446 562.929 578.746 560.918C576.406 558.163 574.406 554.964 572.606 551.373Z" fill="#E7E7E7"/>
<path fill-rule="evenodd" clip-rule="evenodd" d="M573.762 647.125C576.032 650.356 578.492 653.111 581.102 655.524C582.932 657.224 584.852 658.7 586.842 660.019C587.852 660.689 588.872 661.318 589.922 661.917C590.972 662.519 592.022 663.097 593.112 663.625C594.752 664.415 596.432 665.112 598.212 665.689C599.962 666.255 601.742 666.737 603.642 667.075C601.682 667.134 599.802 667.068 597.962 666.822C596.012 666.563 594.142 666.128 592.342 665.517C591.112 665.101 589.922 664.6 588.772 664.004C587.632 663.409 586.542 662.72 585.492 661.949C583.462 660.455 581.602 658.681 579.902 656.67C577.562 653.915 575.562 650.716 573.762 647.125Z" fill="#E7E7E7"/>
<path fill-rule="evenodd" clip-rule="evenodd" d="M571.184 749.361C573.454 752.592 575.914 755.347 578.524 757.76C580.354 759.46 582.274 760.936 584.264 762.255C585.274 762.925 586.294 763.554 587.344 764.153C588.394 764.755 589.444 765.333 590.534 765.861C592.174 766.651 593.854 767.348 595.634 767.925C597.384 768.491 599.164 768.973 601.064 769.311C599.104 769.37 597.224 769.304 595.384 769.058C593.434 768.799 591.564 768.364 589.764 767.753C588.534 767.337 587.344 766.836 586.194 766.24C585.054 765.645 583.964 764.956 582.914 764.185C580.884 762.691 579.024 760.917 577.324 758.906C574.984 756.151 572.984 752.952 571.184 749.361Z" fill="#E7E7E7"/>
<path fill-rule="evenodd" clip-rule="evenodd" d="M588.665 514.719C588.665 514.719 592.455 513.212 598.023 512.205C602.339 511.426 607.586 510.999 612.916 511.708C615.775 512.089 618.601 512.86 621.299 514.05C624.015 515.25 626.508 516.995 628.77 519.16C630.605 521.157 632.151 523.289 633.226 525.598C634.321 527.964 635.023 530.423 635.409 532.886C635.887 535.943 635.956 538.903 635.717 541.664C635.084 548.832 632.841 554.048 632.841 554.048C632.841 554.048 633.317 546.081 630.818 537.38C629.992 534.495 628.758 531.62 627.089 528.838C626.102 527.203 624.998 525.59 623.558 524.148C621.607 521.9 619.281 520.242 616.773 518.963C613.986 517.54 611.074 516.52 608.137 515.847C598.138 513.557 588.665 514.719 588.665 514.719Z" fill="black"/>
<path fill-rule="evenodd" clip-rule="evenodd" d="M585.337 614.056C585.337 614.056 588.772 611.857 594.049 609.812C598.138 608.228 603.209 606.814 608.577 606.499C611.456 606.331 614.377 606.551 617.252 607.208C620.146 607.872 622.925 609.112 625.556 610.808C627.737 612.421 629.659 614.221 631.153 616.284C632.677 618.4 633.833 620.681 634.679 623.025C635.728 625.936 636.358 628.83 636.646 631.586C637.384 638.743 636.171 644.291 636.171 644.291C636.171 644.291 635.128 636.377 631.024 628.309C629.666 625.633 627.908 623.045 625.742 620.629C624.463 619.212 623.073 617.837 621.386 616.694C619.043 614.857 616.445 613.671 613.74 612.891C610.734 612.022 607.681 611.573 604.67 611.47C594.418 611.117 585.337 614.056 585.337 614.056Z" fill="black"/>
<path fill-rule="evenodd" clip-rule="evenodd" d="M579.852 718.528C579.852 718.528 582.69 715.599 587.355 712.396C590.971 709.914 595.581 707.372 600.733 705.832C603.496 705.006 606.39 704.549 609.338 704.527C612.308 704.507 615.297 705.076 618.248 706.122C620.741 707.189 623.025 708.499 624.954 710.164C626.923 711.872 628.572 713.827 629.934 715.914C631.625 718.506 632.903 721.178 633.817 723.794C636.181 730.589 636.276 736.267 636.276 736.267C636.276 736.267 633.442 728.805 627.592 721.897C625.655 719.604 623.35 717.49 620.686 715.637C619.115 714.552 617.447 713.533 615.542 712.809C612.84 711.559 610.039 711.002 607.227 710.865C604.102 710.71 601.027 710.976 598.073 711.567C588.014 713.581 579.852 718.528 579.852 718.528Z" fill="black"/>
<path d="M390.476 1120.27C460.807 1181.16 565.446 1175.5 624.193 1107.64C682.94 1039.78 673.549 935.407 603.218 874.522C532.887 813.638 428.248 819.294 369.501 887.157C310.754 955.019 320.145 1059.39 390.476 1120.27Z" fill="#808080" stroke="black" stroke-width="12.346" stroke-miterlimit="1.5" stroke-linecap="round" stroke-linejoin="round"/>
<path d="M670.205 182.896L571.953 69.4434L-148.65 693.502L-50.3981 806.955L670.205 182.896Z" fill="#808080" stroke="black" stroke-width="11.5995" stroke-miterlimit="1.5" stroke-linecap="round" stroke-linejoin="round"/>
<path fill-rule="evenodd" clip-rule="evenodd" d="M443.411 269.014L408.567 224.192L405.905 136.957L332.227 203.402L338.379 270.483L307.188 225.984L263.867 265.052L261.551 317.88L233.938 292.043L196.53 325.778L199.799 378.079L164.712 354.473L123.77 391.397L69.7703 497.216L201.272 480.889L443.411 269.014Z" fill="#FF050B" stroke="black" stroke-width="9.23484" stroke-miterlimit="1.5" stroke-linecap="round" stroke-linejoin="round"/>
<path d="M495.863 288.803C544.62 331.01 619.914 323.908 664.037 272.939C708.16 221.969 704.404 146.435 655.647 104.227C606.89 62.0189 531.596 69.1214 487.473 120.091C443.35 171.06 447.106 246.595 495.863 288.803Z" fill="#808080" stroke="black" stroke-width="11.9032" stroke-miterlimit="1.5" stroke-linecap="round" stroke-linejoin="round"/>
<path d="M540.803 235.827C561.4 253.657 593.985 249.759 613.583 227.12C633.181 204.481 632.371 171.674 611.774 153.844C591.177 136.013 558.592 139.911 538.994 162.55C519.396 185.189 520.206 217.996 540.803 235.827Z" fill="#808080" stroke="black" stroke-width="12.8265" stroke-miterlimit="1.5" stroke-linecap="round" stroke-linejoin="round"/>
<path fill-rule="evenodd" clip-rule="evenodd" d="M587.172 317.928L551.732 845.714L444.079 934.166L383.071 869.627L459.992 819.821L415.712 660.656C387.573 728.393 340.588 758.201 280.977 762.597L70.3584 1464.49L58.6045 1456.03L104.218 1169.02L67.0275 1072.03L70.5255 1026.32L106.176 1023.29L76.2314 980.102L84.1094 926.494L119.25 927.879L88.1454 883.833L100.483 827.496L143.192 840.588L99.0524 790.885L119.417 704.186L183.436 767.29L191.743 699.436C179.523 677.288 180.436 640.731 190.061 594.617C196.986 634.902 215.565 645.277 252.836 607.68C271.902 662.686 303.589 670.118 348.53 627.594C374.384 684.465 395.165 705.168 403.769 639.09L385.366 553.453L355.159 459.683L-10.4885 758.526L-41.4814 712.122L206.066 509.58L62.9675 521.226L82.2774 483.596L201.495 443.04L414.842 245.041L437.045 275.292L431.878 189.963L451.075 176.15C476.262 197.392 501.764 203.221 528.117 167.596C548.305 213.073 577.531 226.812 609.459 231.062C589.826 265.243 559.081 308.84 587.172 317.928Z" fill="black" fill-opacity="0.3"/>
<path fill-rule="evenodd" clip-rule="evenodd" d="M-145.264 1991.09L-55.4619 2092.78L532.995 1573.09L509.179 1413.13L-145.264 1991.09Z" fill="#808080" stroke="black" stroke-width="11.0282" stroke-miterlimit="1.5" stroke-linecap="round" stroke-linejoin="round"/>
<path fill-rule="evenodd" clip-rule="evenodd" d="M446.448 1340.86C465.643 1340.86 593.984 1654.74 532.175 1684.74C506.415 1697.23 477.285 1704.28 446.448 1704.28C341.618 1704.28 256.51 1622.86 256.51 1522.57C256.51 1422.28 341.618 1340.86 446.448 1340.86Z" fill="#808080" stroke="black" stroke-width="13" stroke-miterlimit="1.5" stroke-linecap="round" stroke-linejoin="round"/>
<path fill-rule="evenodd" clip-rule="evenodd" d="M489.944 1702.19L385.243 1700.24L188.549 1871.65L266.294 2397.01L150.273 1913.91L52.3775 1989.26L101.797 2187.27L24.6935 2019.78L-56.5525 2075.31L-102.312 1955.76L-16.4765 1806.88L16.5425 1837.55L117.81 1755.22L45.4725 1454.33L90.9905 1484.11L151.102 1708.95L272.126 1610.43C253.923 1554.86 255.977 1516.17 267.073 1485.02L489.944 1702.19Z" fill="black" fill-opacity="0.3"/>
<path fill-rule="evenodd" clip-rule="evenodd" d="M1390.34 110.635L1584.34 125.965L1511.61 1046.3L1327.72 903.037L1390.34 110.635Z" fill="#808080" stroke="black" stroke-width="12.9985" stroke-miterlimit="1.5" stroke-linecap="round" stroke-linejoin="round"/>
<path d="M1495.42 408.436C1511.8 400.422 1518.94 381.4 1511.38 365.948C1503.82 350.497 1484.41 344.468 1468.04 352.482C1451.66 360.496 1444.52 379.518 1452.08 394.969C1459.64 410.421 1479.05 416.45 1495.42 408.436Z" fill="black" fill-opacity="0.31"/>
<path d="M1486.6 512.006C1502.97 503.992 1510.11 484.97 1502.55 469.519C1494.99 454.067 1475.59 448.038 1459.21 456.052C1442.84 464.066 1435.69 483.088 1443.25 498.54C1450.82 513.991 1470.22 520.02 1486.6 512.006Z" fill="black" fill-opacity="0.31"/>
<path d="M1480.64 607.448C1497.01 599.434 1504.16 580.411 1496.6 564.96C1489.03 549.509 1469.63 543.479 1453.25 551.493C1436.88 559.507 1429.73 578.53 1437.3 593.981C1444.86 609.433 1464.26 615.462 1480.64 607.448Z" fill="black" fill-opacity="0.31"/>
<path d="M1472.84 707.602C1489.22 699.588 1496.36 680.566 1488.8 665.114C1481.24 649.663 1461.83 643.634 1445.46 651.648C1429.08 659.662 1421.94 678.684 1429.5 694.135C1437.06 709.587 1456.47 715.616 1472.84 707.602Z" fill="black" fill-opacity="0.31"/>
<path fill-rule="evenodd" clip-rule="evenodd" d="M1466.18 352.592C1466.18 352.592 1470 351.143 1475.58 350.219C1479.91 349.505 1485.16 349.157 1490.48 349.945C1493.33 350.369 1496.15 351.182 1498.82 352.412C1501.52 353.653 1503.99 355.436 1506.22 357.634C1508.02 359.658 1509.54 361.813 1510.58 364.138C1511.64 366.52 1512.3 368.99 1512.65 371.458C1513.08 374.522 1513.11 377.483 1512.83 380.24C1512.09 387.397 1509.77 392.579 1509.77 392.579C1509.77 392.579 1510.36 384.62 1507.99 375.883C1507.21 372.986 1506.02 370.093 1504.39 367.286C1503.43 365.637 1502.35 364.007 1500.93 362.543C1499.01 360.266 1496.71 358.574 1494.23 357.257C1491.46 355.792 1488.56 354.729 1485.64 354.012C1475.67 351.572 1466.18 352.592 1466.18 352.592Z" fill="black"/>
<path fill-rule="evenodd" clip-rule="evenodd" d="M1456.3 458.301C1456.3 458.301 1460.09 456.795 1465.66 455.787C1469.97 455.008 1475.22 454.581 1480.55 455.29C1483.41 455.671 1486.24 456.442 1488.93 457.632C1491.65 458.832 1494.14 460.577 1496.41 462.742C1498.24 464.739 1499.79 466.871 1500.86 469.18C1501.96 471.546 1502.66 474.005 1503.04 476.468C1503.52 479.525 1503.59 482.486 1503.35 485.246C1502.72 492.414 1500.48 497.63 1500.48 497.63C1500.48 497.63 1500.95 489.663 1498.45 480.962C1497.63 478.077 1496.39 475.202 1494.72 472.42C1493.74 470.786 1492.63 469.172 1491.19 467.73C1489.24 465.482 1486.92 463.824 1484.41 462.545C1481.62 461.122 1478.71 460.102 1475.77 459.429C1465.77 457.139 1456.3 458.301 1456.3 458.301Z" fill="black"/>
<path fill-rule="evenodd" clip-rule="evenodd" d="M1447.95 554.798C1447.95 554.798 1451.38 552.6 1456.66 550.554C1460.75 548.971 1465.82 547.557 1471.19 547.241C1474.07 547.073 1476.99 547.293 1479.86 547.95C1482.76 548.614 1485.54 549.854 1488.17 551.55C1490.35 553.163 1492.27 554.963 1493.76 557.026C1495.29 559.142 1496.44 561.423 1497.29 563.767C1498.34 566.678 1498.97 569.572 1499.26 572.328C1500 579.486 1498.78 585.033 1498.78 585.033C1498.78 585.033 1497.74 577.12 1493.64 569.051C1492.28 566.375 1490.52 563.787 1488.35 561.371C1487.07 559.954 1485.68 558.579 1484 557.437C1481.65 555.599 1479.06 554.413 1476.35 553.633C1473.35 552.764 1470.29 552.316 1467.28 552.212C1457.03 551.86 1447.95 554.798 1447.95 554.798Z" fill="black"/>
<path fill-rule="evenodd" clip-rule="evenodd" d="M1434.66 663.315C1434.66 663.315 1437.5 660.386 1442.16 657.183C1445.78 654.701 1450.39 652.159 1455.54 650.619C1458.3 649.793 1461.2 649.336 1464.14 649.314C1467.11 649.294 1470.1 649.863 1473.05 650.909C1475.55 651.977 1477.83 653.287 1479.76 654.951C1481.73 656.66 1483.38 658.614 1484.74 660.701C1486.43 663.293 1487.71 665.965 1488.62 668.581C1490.99 675.376 1491.08 681.054 1491.08 681.054C1491.08 681.054 1488.25 673.593 1482.4 666.684C1480.46 664.392 1478.16 662.277 1475.49 660.424C1473.92 659.339 1472.25 658.32 1470.35 657.596C1467.65 656.346 1464.85 655.789 1462.03 655.652C1458.91 655.498 1455.83 655.763 1452.88 656.354C1442.82 658.368 1434.66 663.315 1434.66 663.315Z" fill="black"/>
<path fill-rule="evenodd" clip-rule="evenodd" d="M1450.13 391.994C1452.4 395.225 1454.86 397.98 1457.47 400.393C1459.3 402.093 1461.22 403.569 1463.21 404.888C1464.22 405.558 1465.24 406.187 1466.29 406.786C1467.34 407.388 1468.39 407.966 1469.48 408.494C1471.12 409.284 1472.8 409.981 1474.58 410.558C1476.33 411.124 1478.11 411.606 1480.01 411.944C1478.05 412.003 1476.17 411.937 1474.33 411.691C1472.38 411.432 1470.51 410.997 1468.71 410.386C1467.48 409.97 1466.29 409.469 1465.14 408.873C1464 408.278 1462.91 407.589 1461.86 406.818C1459.83 405.324 1457.97 403.55 1456.27 401.539C1453.93 398.784 1451.93 395.585 1450.13 391.994Z" fill="#E7E7E7"/>
<path fill-rule="evenodd" clip-rule="evenodd" d="M1441.88 495.979C1444.15 499.21 1446.61 501.965 1449.22 504.378C1451.05 506.078 1452.97 507.554 1454.96 508.873C1455.97 509.543 1456.99 510.172 1458.04 510.771C1459.09 511.373 1460.14 511.951 1461.23 512.479C1462.87 513.269 1464.55 513.965 1466.33 514.542C1468.08 515.108 1469.86 515.591 1471.76 515.929C1469.8 515.988 1467.92 515.922 1466.08 515.676C1464.13 515.417 1462.26 514.982 1460.46 514.371C1459.23 513.955 1458.04 513.454 1456.89 512.858C1455.75 512.263 1454.66 511.574 1453.61 510.803C1451.58 509.309 1449.72 507.535 1448.02 505.524C1445.68 502.769 1443.68 499.57 1441.88 495.979Z" fill="#E7E7E7"/>
<path fill-rule="evenodd" clip-rule="evenodd" d="M1435.05 590.975C1437.32 594.206 1439.78 596.961 1442.39 599.374C1444.22 601.074 1446.14 602.55 1448.13 603.869C1449.14 604.539 1450.16 605.168 1451.21 605.767C1452.26 606.369 1453.31 606.947 1454.4 607.475C1456.04 608.265 1457.72 608.962 1459.5 609.539C1461.25 610.105 1463.03 610.587 1464.93 610.925C1462.97 610.984 1461.09 610.918 1459.25 610.672C1457.3 610.413 1455.43 609.978 1453.63 609.367C1452.4 608.951 1451.21 608.45 1450.06 607.854C1448.92 607.259 1447.83 606.57 1446.78 605.799C1444.75 604.305 1442.89 602.531 1441.19 600.52C1438.85 597.765 1436.85 594.566 1435.05 590.975Z" fill="#E7E7E7"/>
<path fill-rule="evenodd" clip-rule="evenodd" d="M1427.97 691.367C1430.24 694.598 1432.7 697.353 1435.31 699.766C1437.14 701.466 1439.06 702.942 1441.05 704.261C1442.06 704.931 1443.08 705.56 1444.13 706.159C1445.18 706.761 1446.23 707.339 1447.32 707.867C1448.96 708.657 1450.64 709.354 1452.42 709.931C1454.17 710.497 1455.95 710.979 1457.85 711.317C1455.89 711.376 1454.01 711.31 1452.17 711.064C1450.22 710.805 1448.35 710.37 1446.55 709.759C1445.32 709.343 1444.13 708.842 1442.98 708.246C1441.84 707.651 1440.75 706.962 1439.7 706.191C1437.67 704.697 1435.81 702.923 1434.11 700.912C1431.77 698.157 1429.77 694.958 1427.97 691.367Z" fill="#E7E7E7"/>
<path fill-rule="evenodd" clip-rule="evenodd" d="M1404.99 741.445C1313.07 727.591 1227.59 788.353 1214.22 877.054C1212.81 886.431 1545.11 941.961 1547.33 927.257C1560.7 838.556 1496.92 755.299 1404.99 741.445Z" fill="#808080" stroke="black" stroke-width="12.346" stroke-miterlimit="1.5" stroke-linecap="round" stroke-linejoin="round"/>
<path fill-rule="evenodd" clip-rule="evenodd" d="M1385.53 754.223C1431.06 760.08 1467.54 779.23 1491.14 816.929C1480.76 777.139 1427.66 749.432 1385.53 754.223Z" fill="white"/>
<path d="M1404.44 187.366L1477.37 56.1934L2310.53 519.408L2237.6 650.581L1404.44 187.366Z" fill="#808080" stroke="black" stroke-width="11.5995" stroke-miterlimit="1.5" stroke-linecap="round" stroke-linejoin="round"/>
<path fill-rule="evenodd" clip-rule="evenodd" d="M1646.34 223.463L1668.83 171.336L1649.53 86.2207L1737.52 132.068L1748.38 198.547L1767.42 147.649L1819.15 174.606L1834.64 225.165L1854.9 193.23L1986.46 261.783L1933.87 367.851L1646.34 223.463Z" fill="#FF050B" stroke="black" stroke-width="9.23484" stroke-miterlimit="1.5" stroke-linecap="round" stroke-linejoin="round"/>
<path d="M1596.78 255.313C1557.7 306.613 1482.55 315.085 1428.92 274.234C1375.29 233.384 1363.5 158.682 1402.57 107.381C1441.65 56.0812 1516.8 47.6097 1570.43 88.4597C1624.06 129.31 1635.86 204.012 1596.78 255.313Z" fill="#808080" stroke="black" stroke-width="11.9032" stroke-miterlimit="1.5" stroke-linecap="round" stroke-linejoin="round"/>
<path d="M1541.94 212.665C1525.43 234.337 1492.74 237.196 1468.92 219.052C1445.1 200.908 1439.17 168.63 1455.68 146.959C1472.19 125.287 1504.88 122.428 1528.7 140.572C1552.52 158.716 1558.45 190.994 1541.94 212.665Z" fill="#808080" stroke="black" stroke-width="12.8265" stroke-miterlimit="1.5" stroke-linecap="round" stroke-linejoin="round"/>
<path fill-rule="evenodd" clip-rule="evenodd" d="M2414.77 1114.19L2321.67 1083.74L1797.06 1945.09L1934.67 1822.62L2414.77 1114.19Z" fill="#808080" stroke="black" stroke-width="9.16822" stroke-miterlimit="1.5" stroke-linecap="round" stroke-linejoin="round"/>
<path fill-rule="evenodd" clip-rule="evenodd" d="M2269.16 1388.78L2171.53 1380.87L1862.18 2340.8L1967.45 2189.61L2269.16 1388.78Z" fill="#808080" stroke="black" stroke-width="9.16822" stroke-miterlimit="1.5" stroke-linecap="round" stroke-linejoin="round"/>
<path d="M1725.67 114.879L1908.18 182.424L1577.31 1076.43L1394.8 1008.89L1725.67 114.879Z" fill="#808080" stroke="black" stroke-width="13.2085" stroke-miterlimit="1.5" stroke-linecap="round" stroke-linejoin="round"/>
<path d="M1752.75 428.921C1770.72 425.856 1782.94 409.624 1780.05 392.667C1777.16 375.709 1760.25 364.447 1742.28 367.512C1724.3 370.578 1712.08 386.809 1714.97 403.767C1717.86 420.725 1734.78 431.987 1752.75 428.921Z" fill="black" fill-opacity="0.31"/>
<path d="M1715.05 525.789C1733.02 522.723 1745.24 506.492 1742.35 489.534C1739.46 472.576 1722.54 461.314 1704.57 464.38C1686.6 467.445 1674.38 483.677 1677.27 500.634C1680.16 517.592 1697.07 528.854 1715.05 525.789Z" fill="black" fill-opacity="0.31"/>
<path d="M1682.39 615.666C1700.36 612.6 1712.58 596.369 1709.69 579.411C1706.8 562.453 1689.89 551.191 1671.91 554.256C1653.94 557.322 1641.72 573.554 1644.61 590.511C1647.5 607.469 1664.42 618.731 1682.39 615.666Z" fill="black" fill-opacity="0.31"/>
<path d="M1646.63 709.544C1664.61 706.479 1676.83 690.247 1673.94 673.29C1671.04 656.332 1654.13 645.07 1636.16 648.135C1618.19 651.201 1605.96 667.432 1608.86 684.39C1611.75 701.348 1628.66 712.61 1646.63 709.544Z" fill="black" fill-opacity="0.31"/>
<path fill-rule="evenodd" clip-rule="evenodd" d="M1732.19 371.52C1732.19 371.52 1736.01 370.07 1741.59 369.147C1745.92 368.432 1751.17 368.084 1756.49 368.873C1759.34 369.297 1762.16 370.11 1764.84 371.34C1767.53 372.581 1770 374.363 1772.23 376.562C1774.03 378.586 1775.55 380.741 1776.59 383.066C1777.65 385.448 1778.31 387.918 1778.66 390.385C1779.09 393.449 1779.12 396.411 1778.84 399.168C1778.1 406.325 1775.78 411.507 1775.78 411.507C1775.78 411.507 1776.37 403.548 1774 394.81C1773.22 391.913 1772.03 389.021 1770.4 386.213C1769.44 384.564 1768.36 382.935 1766.94 381.471C1765.03 379.194 1762.72 377.501 1760.24 376.185C1757.47 374.72 1754.57 373.657 1751.65 372.94C1741.68 370.5 1732.19 371.52 1732.19 371.52Z" fill="black"/>
<path fill-rule="evenodd" clip-rule="evenodd" d="M1694.55 469.002C1694.55 469.002 1698.34 467.496 1703.91 466.488C1708.23 465.709 1713.47 465.283 1718.8 465.992C1721.66 466.372 1724.49 467.143 1727.19 468.333C1729.9 469.534 1732.4 471.278 1734.66 473.443C1736.49 475.44 1738.04 477.572 1739.11 479.881C1740.21 482.247 1740.91 484.707 1741.3 487.169C1741.77 490.226 1741.84 493.187 1741.6 495.948C1740.97 503.115 1738.73 508.331 1738.73 508.331C1738.73 508.331 1739.21 500.364 1736.71 491.663C1735.88 488.778 1734.65 485.904 1732.98 483.121C1731.99 481.487 1730.89 479.873 1729.45 478.431C1727.49 476.183 1725.17 474.525 1722.66 473.246C1719.87 471.823 1716.96 470.804 1714.02 470.131C1704.03 467.84 1694.55 469.002 1694.55 469.002Z" fill="black"/>
<path fill-rule="evenodd" clip-rule="evenodd" d="M1657.16 561.962C1657.16 561.962 1660.59 559.764 1665.87 557.718C1669.96 556.135 1675.03 554.721 1680.4 554.405C1683.28 554.237 1686.2 554.458 1689.07 555.114C1691.97 555.778 1694.74 557.018 1697.38 558.714C1699.56 560.327 1701.48 562.127 1702.97 564.19C1704.5 566.306 1705.65 568.587 1706.5 570.931C1707.55 573.842 1708.18 576.736 1708.47 579.492C1709.2 586.65 1707.99 592.197 1707.99 592.197C1707.99 592.197 1706.95 584.284 1702.84 576.215C1701.49 573.539 1699.73 570.951 1697.56 568.535C1696.28 567.118 1694.89 565.743 1693.21 564.601C1690.86 562.763 1688.26 561.577 1685.56 560.797C1682.55 559.928 1679.5 559.48 1676.49 559.376C1666.24 559.024 1657.16 561.962 1657.16 561.962Z" fill="black"/>
<path fill-rule="evenodd" clip-rule="evenodd" d="M1617.08 661.648C1617.08 661.648 1619.92 658.718 1624.59 655.515C1628.2 653.033 1632.81 650.491 1637.96 648.951C1640.73 648.125 1643.62 647.668 1646.57 647.646C1649.54 647.627 1652.53 648.195 1655.48 649.241C1657.97 650.309 1660.26 651.619 1662.19 653.283C1664.16 654.992 1665.8 656.946 1667.17 659.033C1668.86 661.625 1670.14 664.297 1671.05 666.913C1673.41 673.708 1673.51 679.386 1673.51 679.386C1673.51 679.386 1670.67 671.925 1664.82 665.016C1662.89 662.724 1660.58 660.609 1657.92 658.756C1656.35 657.671 1654.68 656.652 1652.77 655.928C1650.07 654.679 1647.27 654.121 1644.46 653.984C1641.33 653.83 1638.26 654.095 1635.31 654.686C1625.25 656.701 1617.08 661.648 1617.08 661.648Z" fill="black"/>
<path fill-rule="evenodd" clip-rule="evenodd" d="M1714.3 409.332C1716.57 412.563 1719.03 415.318 1721.64 417.731C1723.47 419.431 1725.39 420.907 1727.38 422.226C1728.39 422.896 1729.41 423.525 1730.46 424.124C1731.51 424.726 1732.56 425.304 1733.65 425.832C1735.29 426.622 1736.97 427.319 1738.75 427.896C1740.5 428.462 1742.28 428.944 1744.18 429.282C1742.22 429.341 1740.34 429.275 1738.5 429.029C1736.55 428.77 1734.68 428.335 1732.88 427.724C1731.65 427.308 1730.46 426.807 1729.31 426.211C1728.17 425.616 1727.08 424.927 1726.03 424.156C1724 422.662 1722.14 420.888 1720.44 418.877C1718.1 416.122 1716.1 412.923 1714.3 409.332Z" fill="#E7E7E7"/>
<path fill-rule="evenodd" clip-rule="evenodd" d="M1677.99 505.605C1680.26 508.836 1682.72 511.591 1685.33 514.004C1687.16 515.704 1689.08 517.18 1691.07 518.499C1692.08 519.169 1693.1 519.798 1694.15 520.397C1695.2 520.999 1696.25 521.577 1697.34 522.105C1698.98 522.895 1700.66 523.592 1702.44 524.169C1704.19 524.735 1705.97 525.217 1707.87 525.555C1705.91 525.614 1704.03 525.548 1702.19 525.302C1700.24 525.043 1698.37 524.608 1696.57 523.997C1695.34 523.581 1694.15 523.08 1693 522.484C1691.86 521.889 1690.77 521.2 1689.72 520.429C1687.69 518.935 1685.83 517.161 1684.13 515.15C1681.79 512.395 1679.79 509.196 1677.99 505.605Z" fill="#E7E7E7"/>
<path fill-rule="evenodd" clip-rule="evenodd" d="M1646.11 597.176C1648.38 600.407 1650.84 603.162 1653.45 605.575C1655.28 607.275 1657.2 608.751 1659.19 610.07C1660.2 610.74 1661.22 611.369 1662.27 611.968C1663.32 612.57 1664.37 613.148 1665.46 613.676C1667.1 614.466 1668.78 615.163 1670.56 615.74C1672.31 616.306 1674.09 616.788 1675.99 617.126C1674.03 617.185 1672.15 617.119 1670.31 616.873C1668.36 616.614 1666.49 616.179 1664.69 615.568C1663.46 615.152 1662.27 614.651 1661.12 614.055C1659.98 613.46 1658.89 612.771 1657.84 612C1655.81 610.506 1653.95 608.732 1652.25 606.721C1649.91 603.966 1647.91 600.767 1646.11 597.176Z" fill="#E7E7E7"/>
<path fill-rule="evenodd" clip-rule="evenodd" d="M1608.43 687.371C1610.7 690.602 1613.16 693.357 1615.77 695.77C1617.6 697.47 1619.52 698.946 1621.51 700.265C1622.52 700.935 1623.54 701.564 1624.59 702.163C1625.64 702.765 1626.69 703.343 1627.78 703.871C1629.42 704.661 1631.1 705.358 1632.88 705.935C1634.63 706.501 1636.41 706.983 1638.31 707.321C1636.35 707.38 1634.47 707.314 1632.63 707.068C1630.68 706.809 1628.81 706.374 1627.01 705.763C1625.78 705.347 1624.59 704.846 1623.44 704.25C1622.3 703.655 1621.21 702.966 1620.16 702.195C1618.13 700.701 1616.27 698.927 1614.57 696.916C1612.23 694.161 1610.23 690.962 1608.43 687.371Z" fill="#E7E7E7"/>
<path fill-rule="evenodd" clip-rule="evenodd" d="M1533.09 766.208C1440.14 764.977 1363.71 836.794 1362.52 926.488C1361.33 1016.17 1630.91 1068.15 1662.25 1030.58C1685.03 1003.28 1698.86 968.692 1699.36 930.95C1700.55 841.256 1626.04 767.44 1533.09 766.208Z" fill="#808080" stroke="black" stroke-width="12.346" stroke-miterlimit="1.5" stroke-linecap="round" stroke-linejoin="round"/>
<path fill-rule="evenodd" clip-rule="evenodd" d="M1503.08 783.651C1548.62 777.877 1588.74 787.242 1621.06 817.797C1601.01 781.896 1542.65 768.425 1503.08 783.651Z" fill="white"/>
<path d="M1716.01 210.707L1732.11 61.4902L2679.88 163.752L2663.78 312.969L1716.01 210.707Z" fill="#808080" stroke="black" stroke-width="11.5995" stroke-miterlimit="1.5" stroke-linecap="round" stroke-linejoin="round"/>
<path fill-rule="evenodd" clip-rule="evenodd" d="M1966.82 154.061L1965.45 97.3053L1912.32 28.0625L2011.42 32.9094L2049.09 88.7514L2045.09 34.5564L2103.36 37.4066L2138.57 76.8536L2143.61 39.3754L2291.79 46.6228L2288.38 164.961L1966.82 154.061Z" fill="#FF050B" stroke="black" stroke-width="9.23484" stroke-miterlimit="1.5" stroke-linecap="round" stroke-linejoin="round"/>
<path d="M1919.63 198.404C1903.61 260.871 1837.69 297.935 1772.38 281.19C1707.08 264.444 1667.13 200.23 1683.15 137.763C1699.17 75.2957 1765.09 38.2313 1830.39 54.977C1895.7 71.7228 1935.65 135.937 1919.63 198.404Z" fill="#808080" stroke="black" stroke-width="11.9032" stroke-miterlimit="1.5" stroke-linecap="round" stroke-linejoin="round"/>
<path d="M1852.51 180.474C1845.74 206.863 1816.75 222.226 1787.74 214.788C1758.74 207.35 1740.71 179.928 1747.48 153.539C1754.24 127.15 1783.24 111.787 1812.25 119.225C1841.25 126.663 1859.28 154.085 1852.51 180.474Z" fill="#808080" stroke="black" stroke-width="12.8265" stroke-miterlimit="1.5" stroke-linecap="round" stroke-linejoin="round"/>
<path d="M2010.4 173.453L2167.09 288.854L1601.81 1056.43L1445.12 941.032L2010.4 173.453Z" fill="#808080" stroke="black" stroke-width="13.2085" stroke-miterlimit="1.5" stroke-linecap="round" stroke-linejoin="round"/>
<path d="M1949.12 495.409C1967.24 497.41 1983.46 485.172 1985.35 468.073C1987.24 450.975 1974.08 435.491 1955.96 433.489C1937.84 431.488 1921.61 443.726 1919.73 460.825C1917.84 477.923 1931 493.407 1949.12 495.409Z" fill="black" fill-opacity="0.31"/>
<path d="M1886.2 578.149C1904.32 580.151 1920.54 567.912 1922.43 550.814C1924.32 533.715 1911.16 518.231 1893.04 516.23C1874.92 514.228 1858.7 526.467 1856.81 543.565C1854.92 560.664 1868.08 576.147 1886.2 578.149Z" fill="black" fill-opacity="0.31"/>
<path d="M1830.05 655.561C1848.18 657.563 1864.4 645.324 1866.29 628.226C1868.17 611.127 1855.02 595.643 1836.89 593.642C1818.77 591.64 1802.55 603.879 1800.66 620.977C1798.78 638.076 1811.93 653.56 1830.05 655.561Z" fill="black" fill-opacity="0.31"/>
<path d="M1769.83 735.965C1787.95 737.967 1804.18 725.729 1806.06 708.63C1807.95 691.531 1794.79 676.048 1776.67 674.046C1758.55 672.045 1742.33 684.283 1740.44 701.382C1738.55 718.48 1751.71 733.964 1769.83 735.965Z" fill="black" fill-opacity="0.31"/>
<path fill-rule="evenodd" clip-rule="evenodd" d="M1933.48 440.802C1933.48 440.802 1936.93 438.627 1942.22 436.617C1946.32 435.061 1951.4 433.681 1956.77 433.402C1959.65 433.253 1962.57 433.493 1965.44 434.169C1968.33 434.852 1971.1 436.111 1973.72 437.825C1975.89 439.452 1977.8 441.265 1979.28 443.338C1980.79 445.464 1981.93 447.753 1982.76 450.103C1983.79 453.021 1984.4 455.919 1984.67 458.677C1985.36 465.839 1984.11 471.378 1984.11 471.378C1984.11 471.378 1983.12 463.458 1979.07 455.362C1977.73 452.677 1975.99 450.077 1973.84 447.647C1972.57 446.221 1971.19 444.837 1969.51 443.683C1967.18 441.83 1964.59 440.626 1961.89 439.828C1958.89 438.939 1955.84 438.47 1952.83 438.346C1942.58 437.925 1933.48 440.802 1933.48 440.802Z" fill="black"/>
<path fill-rule="evenodd" clip-rule="evenodd" d="M1870.25 524.03C1870.25 524.03 1873.7 521.855 1878.99 519.845C1883.09 518.289 1888.17 516.909 1893.54 516.63C1896.42 516.481 1899.34 516.721 1902.21 517.397C1905.1 518.08 1907.87 519.339 1910.49 521.053C1912.66 522.68 1914.57 524.493 1916.05 526.566C1917.56 528.692 1918.7 530.981 1919.53 533.331C1920.56 536.249 1921.17 539.147 1921.44 541.905C1922.13 549.067 1920.88 554.606 1920.88 554.606C1920.88 554.606 1919.89 546.686 1915.84 538.59C1914.5 535.905 1912.76 533.305 1910.61 530.875C1909.34 529.449 1907.96 528.065 1906.28 526.911C1903.95 525.058 1901.36 523.854 1898.66 523.056C1895.66 522.167 1892.61 521.698 1889.6 521.574C1879.35 521.153 1870.25 524.03 1870.25 524.03Z" fill="black"/>
<path fill-rule="evenodd" clip-rule="evenodd" d="M1813.96 601.03C1813.96 601.03 1817.41 598.855 1822.7 596.845C1826.8 595.289 1831.88 593.909 1837.25 593.63C1840.13 593.481 1843.05 593.721 1845.92 594.397C1848.81 595.08 1851.58 596.339 1854.2 598.053C1856.37 599.68 1858.28 601.493 1859.76 603.566C1861.27 605.692 1862.41 607.981 1863.24 610.331C1864.27 613.249 1864.88 616.147 1865.15 618.905C1865.84 626.067 1864.59 631.606 1864.59 631.606C1864.59 631.606 1863.6 623.686 1859.55 615.59C1858.21 612.905 1856.47 610.305 1854.32 607.875C1853.05 606.449 1851.67 605.065 1849.99 603.911C1847.66 602.058 1845.07 600.854 1842.37 600.056C1839.37 599.167 1836.32 598.698 1833.31 598.574C1823.06 598.153 1813.96 601.03 1813.96 601.03Z" fill="black"/>
<path fill-rule="evenodd" clip-rule="evenodd" d="M1922.32 475.475C1924.59 478.706 1927.05 481.461 1929.66 483.874C1931.49 485.574 1933.41 487.05 1935.4 488.369C1936.41 489.039 1937.43 489.668 1938.48 490.267C1939.53 490.869 1940.58 491.447 1941.67 491.975C1943.31 492.765 1944.99 493.462 1946.77 494.039C1948.52 494.605 1950.3 495.087 1952.2 495.425C1950.24 495.484 1948.36 495.418 1946.52 495.172C1944.57 494.913 1942.7 494.478 1940.9 493.867C1939.67 493.451 1938.48 492.95 1937.33 492.354C1936.19 491.759 1935.1 491.07 1934.05 490.299C1932.02 488.805 1930.16 487.031 1928.46 485.02C1926.12 482.265 1924.12 479.066 1922.32 475.475Z" fill="#E7E7E7"/>
<path fill-rule="evenodd" clip-rule="evenodd" d="M1859.34 558.938C1861.61 562.168 1864.07 564.924 1866.68 567.337C1868.51 569.037 1870.43 570.513 1872.42 571.832C1873.43 572.502 1874.45 573.131 1875.5 573.73C1876.55 574.332 1877.6 574.909 1878.69 575.437C1880.33 576.227 1882.01 576.924 1883.79 577.501C1885.54 578.067 1887.32 578.549 1889.22 578.887C1887.26 578.946 1885.38 578.881 1883.54 578.635C1881.59 578.376 1879.72 577.94 1877.92 577.329C1876.69 576.913 1875.5 576.412 1874.35 575.816C1873.21 575.221 1872.12 574.532 1871.07 573.761C1869.04 572.267 1867.18 570.494 1865.48 568.483C1863.14 565.728 1861.14 562.528 1859.34 558.938Z" fill="#E7E7E7"/>
<path fill-rule="evenodd" clip-rule="evenodd" d="M1802.66 636.109C1804.93 639.34 1807.39 642.095 1810 644.508C1811.83 646.208 1813.75 647.684 1815.74 649.003C1816.75 649.673 1817.77 650.302 1818.82 650.901C1819.87 651.503 1820.92 652.081 1822.01 652.609C1823.65 653.399 1825.33 654.096 1827.11 654.673C1828.86 655.239 1830.64 655.721 1832.54 656.059C1830.58 656.118 1828.7 656.052 1826.86 655.806C1824.91 655.547 1823.04 655.112 1821.24 654.501C1820.01 654.085 1818.82 653.584 1817.67 652.988C1816.53 652.393 1815.44 651.704 1814.39 650.933C1812.36 649.439 1810.5 647.665 1808.8 645.654C1806.46 642.899 1804.46 639.7 1802.66 636.109Z" fill="#E7E7E7"/>
<path fill-rule="evenodd" clip-rule="evenodd" d="M1743.01 716.953C1745.28 720.184 1747.74 722.939 1750.35 725.352C1752.18 727.052 1754.1 728.528 1756.09 729.847C1757.1 730.517 1758.12 731.146 1759.17 731.745C1760.22 732.347 1761.27 732.925 1762.36 733.453C1764 734.243 1765.68 734.94 1767.46 735.517C1769.21 736.083 1770.99 736.565 1772.89 736.903C1770.93 736.962 1769.05 736.896 1767.21 736.65C1765.26 736.391 1763.39 735.956 1761.59 735.345C1760.36 734.929 1759.17 734.428 1758.02 733.832C1756.88 733.237 1755.79 732.548 1754.74 731.777C1752.71 730.283 1750.85 728.509 1749.15 726.498C1746.81 723.743 1744.81 720.544 1743.01 716.953Z" fill="#E7E7E7"/>
<path fill-rule="evenodd" clip-rule="evenodd" d="M1753.08 681.556C1753.08 681.556 1756.53 679.381 1761.82 677.371C1765.92 675.815 1771 674.435 1776.37 674.156C1779.25 674.007 1782.17 674.247 1785.04 674.923C1787.93 675.606 1790.7 676.865 1793.32 678.579C1795.49 680.206 1797.4 682.019 1798.88 684.092C1800.39 686.218 1801.53 688.507 1802.36 690.857C1803.39 693.775 1804 696.673 1804.27 699.431C1804.96 706.593 1803.71 712.132 1803.71 712.132C1803.71 712.132 1802.72 704.212 1798.67 696.116C1797.33 693.431 1795.59 690.831 1793.44 688.401C1792.17 686.975 1790.79 685.591 1789.11 684.437C1786.78 682.584 1784.19 681.38 1781.49 680.582C1778.49 679.693 1775.44 679.224 1772.43 679.1C1762.18 678.679 1753.08 681.556 1753.08 681.556Z" fill="black"/>
<path d="M1630.61 1107.6C1537.64 1110.87 1459.72 1040.8 1456.57 951.101C1453.41 861.398 1526.22 786.03 1619.18 782.761C1712.15 779.492 1790.07 849.56 1793.23 939.263C1796.38 1028.97 1723.57 1104.33 1630.61 1107.6Z" fill="#808080" stroke="black" stroke-width="12.346" stroke-miterlimit="1.5" stroke-linecap="round" stroke-linejoin="round"/>
<path d="M2001.05 202.231L2148.74 175.555L2318.18 1113.64L2170.48 1140.32L2001.05 202.231Z" fill="#808080" stroke="black" stroke-width="11.5995" stroke-miterlimit="1.5" stroke-linecap="round" stroke-linejoin="round"/>
<path fill-rule="evenodd" clip-rule="evenodd" d="M2120.21 417.472L2175.55 404.808L2232.81 338.939L2247.82 437.011L2200.61 485.064L2252.92 470.34L2261.75 528.004L2230.12 570.379L2267.85 567.842L2290.3 714.485L2173.66 734.749L2120.21 417.472Z" fill="#FF050B" stroke="black" stroke-width="9.23484" stroke-miterlimit="1.5" stroke-linecap="round" stroke-linejoin="round"/>
<path d="M2070.33 394.096C2005.88 396.362 1951.71 343.583 1949.34 276.21C1946.97 208.837 1997.3 152.383 2061.75 150.117C2126.2 147.851 2180.36 200.63 2182.73 268.003C2185.1 335.376 2134.78 391.829 2070.33 394.096Z" fill="#808080" stroke="black" stroke-width="11.9032" stroke-miterlimit="1.5" stroke-linecap="round" stroke-linejoin="round"/>
<path d="M2068.58 324.646C2041.36 325.604 2018.43 302.121 2017.38 272.196C2016.33 242.271 2037.55 217.236 2064.77 216.278C2092 215.321 2114.92 238.804 2115.97 268.729C2117.03 298.654 2095.81 323.689 2068.58 324.646Z" fill="#808080" stroke="black" stroke-width="12.8265" stroke-miterlimit="1.5" stroke-linecap="round" stroke-linejoin="round"/>
<path fill-rule="evenodd" clip-rule="evenodd" d="M2022.91 171.921C2068.21 164.527 2108.64 172.456 2142.03 201.84C2120.71 166.676 2061.91 155.294 2022.91 171.921Z" fill="white"/>
<path fill-rule="evenodd" clip-rule="evenodd" d="M2041.48 236.008C2065.36 228.614 2086.83 232.666 2104.43 262.05C2093.19 226.886 2062.04 219.381 2041.48 236.008Z" fill="white"/>
<path fill-rule="evenodd" clip-rule="evenodd" d="M1770.3 67.8931C1816.13 65.4334 1855.47 77.6812 1885.49 110.499C1868.09 73.2382 1810.86 55.5742 1770.3 67.8931Z" fill="white"/>
<path fill-rule="evenodd" clip-rule="evenodd" d="M1781.84 133.611C1806.38 128.838 1827.29 135.185 1841.61 166.297C1834.24 130.126 1804.07 119.301 1781.84 133.611Z" fill="white"/>
<path fill-rule="evenodd" clip-rule="evenodd" d="M1466.87 82.4771C1512.71 80.0174 1552.04 92.2652 1582.07 125.083C1564.67 87.8222 1507.44 70.1581 1466.87 82.4771Z" fill="white"/>
<path fill-rule="evenodd" clip-rule="evenodd" d="M1478.41 148.195C1502.95 143.422 1523.86 149.769 1538.19 180.881C1530.81 144.71 1500.65 133.885 1478.41 148.195Z" fill="white"/>
<path fill-rule="evenodd" clip-rule="evenodd" d="M1031.1 84.3874C1076.85 88.128 1114.18 105.566 1139.5 142.131C1127.29 102.865 1072.96 77.6489 1031.1 84.3874Z" fill="white"/>
<path fill-rule="evenodd" clip-rule="evenodd" d="M1033.68 151.061C1058.64 149.64 1078.5 158.748 1088.5 191.506C1086.07 154.671 1057.64 139.879 1033.68 151.061Z" fill="white"/>
<path fill-rule="evenodd" clip-rule="evenodd" d="M563.829 92.0749C609.576 95.8155 646.904 113.254 672.228 149.818C660.011 110.553 605.687 85.3364 563.829 92.0749Z" fill="white"/>
<path fill-rule="evenodd" clip-rule="evenodd" d="M566.406 158.749C591.366 157.328 611.23 166.435 621.228 199.194C618.798 162.359 590.368 147.567 566.406 158.749Z" fill="white"/>
<path fill-rule="evenodd" clip-rule="evenodd" d="M328.579 75.7448C374.326 79.4854 411.654 96.9238 436.978 133.488C424.761 94.2228 370.437 69.0063 328.579 75.7448Z" fill="white"/>
<path fill-rule="evenodd" clip-rule="evenodd" d="M331.156 142.419C356.116 140.998 375.98 150.105 385.978 182.864C383.548 146.029 355.118 131.237 331.156 142.419Z" fill="white"/>
<path fill-rule="evenodd" clip-rule="evenodd" d="M278.536 532.36C324.283 536.101 361.611 553.539 386.935 590.103C374.718 550.838 320.394 525.622 278.536 532.36Z" fill="white"/>
<path fill-rule="evenodd" clip-rule="evenodd" d="M759.15 764.73C803.665 775.919 837.629 799.24 856.618 839.461C851.002 798.724 801.546 764.944 759.15 764.73Z" fill="white"/>
<path fill-rule="evenodd" clip-rule="evenodd" d="M647.318 821.454C692.842 827.311 729.322 846.46 752.925 884.159C742.54 844.37 689.443 816.662 647.318 821.454Z" fill="white"/>
<path fill-rule="evenodd" clip-rule="evenodd" d="M518.573 863.417C564.097 869.273 600.577 888.423 624.18 926.122C613.795 886.332 560.698 858.625 518.573 863.417Z" fill="white"/>
<path fill-rule="evenodd" clip-rule="evenodd" d="M1641.55 811.096C1687.07 816.953 1723.55 836.103 1747.15 873.802C1736.77 834.012 1683.67 806.305 1641.55 811.096Z" fill="white"/>
<path fill-rule="evenodd" clip-rule="evenodd" d="M281.115 599.036C306.075 597.615 325.939 606.722 335.937 639.481C333.507 602.646 305.077 587.854 281.115 599.036Z" fill="white"/>
<path fill-rule="evenodd" clip-rule="evenodd" d="M1583.96 920.135L1624.43 786.731L1943.13 338.855C1964.4 384.412 2003.98 407.679 2043.21 397.332L2159.94 1047.91L2074.19 433.795L2097.31 424.7L2164.29 719.514L2166.25 637.131L2124.99 414.94C2170.72 408.322 2158.68 393.939 2154.72 357.856C2085.36 370.485 2078.89 351.713 2103.17 310.404C2074.46 313.772 2035.75 297.63 2017.23 256.16C1984.9 316.321 1967.19 310.347 1957.15 246.453L1566.04 771.558L1534.73 763.423L1711.08 272.75C1744.32 314.399 1836.95 326.606 1876.55 261.601L1910.57 228.829L1955.59 231.418L2003.91 158.257L2093.83 154.432L2177.88 199.471L2172.91 123.701L2014.38 131.556L1965.49 84.2126L1943.31 82.0996L1924.72 164.849C1875.21 233.389 1853.25 234.827 1852.33 184.984C1796.24 201.271 1768.19 187.373 1751.01 161.782C1732.22 182.711 1710.07 185.172 1678.88 138.033L1679.26 231.95L1619.23 183.572L1609.96 226.256C1560.87 257.326 1535.35 256.462 1551.37 199.333C1517.77 230.63 1457 190.194 1451.78 157.426C1418.03 198.501 1396.12 193.731 1393.99 114.315C1379.45 137.61 1370.04 163.795 1385.1 203.757L1338.31 738.56C1274.4 760.402 1249.45 795.119 1229.26 831.409L1336.67 855.069C1322.2 812.421 1343.88 773.565 1397.11 738.019L1452.38 331.981C1499.02 341.544 1537.41 324.353 1558.42 290.683L1646.78 320.475L1495.85 766.345C1433.64 778.509 1398.88 828.795 1378.21 867.89L1583.96 920.135Z" fill="black" fill-opacity="0.3"/>
<path fill-rule="evenodd" clip-rule="evenodd" d="M2432.3 1802.41L2376.3 1915.32L1640.67 1550.44L1650.57 1414.67L2432.3 1802.41Z" fill="#808080" stroke="black" stroke-width="10.6294" stroke-miterlimit="1.5" stroke-linecap="round" stroke-linejoin="round"/>
<path fill-rule="evenodd" clip-rule="evenodd" d="M1940.28 1578.71L1932.65 1593.82L2191.47 1718.36L1940.28 1578.71Z" fill="white"/>
<path fill-rule="evenodd" clip-rule="evenodd" d="M1691.91 1328.35C1642.35 1341.69 1651.57 1421.23 1647.8 1498.21C1643.87 1578.48 1628.52 1656.23 1652.09 1667.48C1692.03 1686.55 1739.43 1691.92 1786.38 1679.28C1887.61 1652.03 1948.62 1551.28 1922.55 1454.44C1896.48 1357.6 1793.13 1301.1 1691.91 1328.35Z" fill="#808080" stroke="black" stroke-width="13" stroke-miterlimit="1.5" stroke-linecap="round" stroke-linejoin="round"/>
<path fill-rule="evenodd" clip-rule="evenodd" d="M1918.15 1454.3C1874.89 1511.25 1857 1584.8 1879.89 1617.77L2213.85 1790.11L2164.02 1808.3L2088.93 1770.74L1924.15 2225.16L1905.61 2209.67L2047.81 1755.07L1971.55 1714.06L1813.1 1923.2L1948.02 1695.52L1848.7 1648.02C1791.83 1681.3 1741.74 1685.07 1693.48 1680.85C1721.34 1584.89 1818.32 1507.34 1918.15 1454.3Z" fill="black" fill-opacity="0.3"/>
<path fill-rule="evenodd" clip-rule="evenodd" d="M-195.132 1938.24L-114.53 2035.12L516.732 1509.95L475.689 1380.16L-195.132 1938.24Z" fill="#808080" stroke="black" stroke-width="10.6294" stroke-miterlimit="1.5" stroke-linecap="round" stroke-linejoin="round"/>
<path fill-rule="evenodd" clip-rule="evenodd" d="M231.794 1606.77L242.713 1619.71L19.7271 1800.75L231.794 1606.77Z" fill="white"/>
<path fill-rule="evenodd" clip-rule="evenodd" d="M415.503 1305.75C466.8 1307.26 476.236 1386.78 497.711 1460.79C520.101 1537.98 553.029 1610.07 532.7 1626.47C498.253 1654.25 453.38 1670.45 404.782 1669.01C299.998 1665.92 217.329 1582.02 220.287 1481.78C223.246 1381.53 310.718 1302.66 415.503 1305.75Z" fill="#808080" stroke="black" stroke-width="13" stroke-miterlimit="1.5" stroke-linecap="round" stroke-linejoin="round"/>
<path fill-rule="evenodd" clip-rule="evenodd" d="M244.747 1420.29C218.505 1470.01 222.172 1521.34 243.182 1573.59L40.3917 1745.74L-5.00058 1961.89L334.501 1654.74C391.601 1674.21 465.986 1681.02 523.824 1631.38L438.199 1371.24L244.747 1420.29Z" fill="black" fill-opacity="0.31"/>
</g>
<defs>
<clipPath id="clip0_910_9">
<rect width="2160" height="2700" fill="white"/>
</clipPath>
</defs>
</svg>
