<svg width="2160" height="2700" viewBox="0 0 2160 2700" fill="none" xmlns="http://www.w3.org/2000/svg">
<g clip-path="url(#clip0_910_1020)">
<path fill-rule="evenodd" clip-rule="evenodd" d="M2185.27 -22.832V2700.83H-29.2676V-22.832H2185.27ZM2090.2 72.2317H65.7964V2605.77H2090.2V72.2317Z" fill="#D1D1D1"/>
<path fill-rule="evenodd" clip-rule="evenodd" d="M692.532 19.4062C662.362 70.843 560.994 67.3122 571.141 76.0966C609.868 109.621 504.836 133.681 512.626 158.655C523.134 192.346 652.034 151.098 652.034 151.098C652.034 151.098 593.239 209.036 550.655 225.785C534.533 232.125 551.782 255.854 549.054 278.097C546.078 302.216 523.923 324.735 526.133 325.385C555.154 333.945 589.619 313.83 613.081 305.992C649.949 293.678 701.619 315.443 759.356 268.855C751.937 295.408 713.333 317.452 695.136 339.444C683.783 353.164 690.266 371.522 686.827 376.642C669.521 402.48 640.692 388.837 639.148 406.113C638.28 415.813 644.39 418.285 664.03 434.196C680.344 447.404 704.336 451.937 727.28 431.191C679.747 591.001 593.036 482.457 555.785 501.935C532.075 514.329 539.46 539.858 597.906 547.25C561.016 567.065 532.323 559.228 511.026 558.211C488.454 557.133 483.685 600.124 475.703 604.749C448.757 620.343 549.009 598.178 549.009 598.178C549.009 598.178 459.22 641.721 413.727 617.868C398.293 609.776 362.666 624.146 351.008 631.336C286.789 670.955 307.094 620.178 290.634 622.454C261.828 626.437 254.431 628.773 238.839 611.898C215.659 586.807 228.354 564.917 193.358 526.197C162.196 491.714 120.065 535.661 96.0239 533.146C4.51522 523.574 53.3109 433.549 28.4316 409.101C57.01 402.46 80.0301 428.47 63.1771 390.408C82.0245 385.853 81.4777 418.264 108.139 396.71C11.5291 281.87 137.104 341.515 109.082 301.412C95.8356 282.455 77.641 276.755 68.98 267.452C46.2553 243.043 55.1722 230.625 33.2447 181.077C41.5291 190.924 76.562 198.431 88.7801 194.492C121.328 183.999 47.9161 174.572 56.0156 142.683C65.9348 103.636 70.8493 84.7438 103.839 34.9721C98.7951 35.8876 71.5573 103.636 110.55 112.626C166.536 125.535 153.244 38.7001 236.719 22.116C183.831 90.6142 258.637 23.9264 251.038 92.0268C279.348 49.8253 359.464 128.772 377.311 80.9616C388.8 50.1712 587.443 80.4992 692.532 19.4062Z" fill="#F2E83A"/>
<path fill-rule="evenodd" clip-rule="evenodd" d="M35.7051 378.356C35.8844 377.945 36.0749 377.537 36.2745 377.133C39.0649 371.479 43.5329 366.908 48.9773 363.981C45.7743 357.526 43.7742 352.102 42.658 347.594C37.146 325.327 44.6299 312.006 54.6111 302.92C56.2707 301.409 58.0859 300.01 60.042 298.731C54.9415 295.214 50.5389 291.67 47.0235 287.894C31.3949 271.107 26.4725 258.537 21.8613 241.551C18.7845 230.213 15.878 215.963 5.81221 193.218C-0.232 179.561 4.69041 163.537 17.3595 155.629C19.9244 154.029 22.6471 152.858 25.4398 152.106C24.9888 146.779 25.4465 141.175 26.9393 135.297C37.4492 93.9251 42.7742 73.3985 76.3392 22.1832C79.0406 17.6929 81.4611 14.5507 82.9708 13.1808C88.5956 8.07487 94.235 6.22528 98.4832 5.455C110.312 3.30907 122.279 8.43118 128.893 18.4702C135.505 28.5091 135.487 41.5266 128.845 51.5471C127.768 53.1707 126.726 54.7585 125.713 56.3118C124.312 59.9083 121.913 66.5041 120.878 71.9929C120.26 75.2747 120.252 80.481 120.316 83.6082C123.405 83.2519 125.314 80.9906 127.241 78.4918C130.906 73.7399 134.303 68.1611 138.019 62.3229C155.725 34.5099 178.51 3.09459 230.868 -7.30877C243.135 -9.74645 255.638 -4.31645 262.222 6.31523C268.266 16.0705 268.175 28.3292 262.211 37.9312C263.553 38.8329 264.793 39.805 265.898 40.8532C268.333 43.1871 270.814 46.0145 273.057 49.5165C284.895 48.9526 297.726 50.9982 310.995 54.875C320.319 57.5998 329.846 61.0384 338.9 63.7436C342.496 64.8136 347.603 65.758 351.031 66.3288C353.737 61.0211 357.818 56.0627 363.669 51.8019C370.908 46.5276 383.005 41.7388 399.511 39.0047C430.042 33.946 481.87 33.7477 536.754 28.7236C586.339 24.1838 638.855 15.9079 677.459 -6.52928C689.252 -13.3811 704.168 -11.4231 713.796 -1.76462C723.413 7.89498 725.307 22.8266 718.407 34.586C705.475 56.6393 683.423 71.9779 658.969 81.9016C642.102 88.7476 624.21 92.9334 609.474 95.8934C607.85 109.558 599.011 123.93 583.532 136.059C582.742 136.678 581.908 137.324 581.017 137.992C612.507 132.291 642.891 122.526 642.891 122.526C656.116 118.294 670.525 123.691 677.707 135.574C684.888 147.458 682.983 162.72 673.095 172.467C673.095 172.467 620.41 223.583 575.865 247.093C577.759 256.954 580.037 271.886 578.819 281.76C578.582 283.691 578.221 285.672 577.759 287.682C587.151 283.944 595.956 280.087 603.577 277.538C620.839 271.772 640.806 271.706 662.96 271.031C685.96 270.331 712.443 268.16 740.516 245.508C750.663 237.317 764.948 236.625 775.85 243.797C786.741 250.969 791.759 264.363 788.241 276.927C784.013 292.067 773.55 306.763 759.796 320.253C746.086 333.711 728.599 346.061 718.249 358.571C716.908 360.191 717.979 362.328 717.967 363.898C717.945 367.7 718.035 371.133 717.866 373.902C717.37 382.409 714.766 388.851 711.755 393.342C705.16 403.186 697.629 409.778 689.838 414.361C695.103 415.632 701.214 414.317 707.167 408.937C717.145 399.918 731.903 398.641 743.279 405.812C754.654 412.985 759.874 426.853 756.041 439.745C738.419 498.957 714.067 526.819 690.706 539.591C670.187 550.806 648.754 551.809 627.908 547.898C627.682 558.553 621.763 568.492 612.101 573.68C599.553 580.422 587.816 584.584 576.868 587.063C577.038 587.479 577.195 587.901 577.342 588.328C582.336 602.698 575.786 618.534 562.099 625.172C562.099 625.172 526.438 642.469 487.079 650.619C457.1 656.824 425.408 656.838 401.957 645.527C400.21 645.697 394.708 646.277 391.326 647.141C381.404 649.676 371.449 653.976 366.759 656.869C324.074 683.2 301.784 676.77 291.153 670.292C284.602 666.307 279.653 660.838 276.022 654.396C263.305 655.527 254.466 655.164 246.54 652.678C236.9 649.659 227.7 644.059 216.798 632.256C203.866 618.253 198.579 605.159 194.204 590.798C190.461 578.546 187.755 564.746 171.103 546.313C167.213 542.016 162.534 542.827 158.149 543.994C153.222 545.303 148.351 547.334 143.623 549.383C124.614 557.619 106.4 564.395 92.9035 562.984C59.8334 559.524 40.0931 547.344 27.5425 532.645C14.7674 517.685 9.08516 499.011 7.35679 479.327C6.13014 465.353 7.00391 450.894 6.63411 438.334C6.54054 435.171 5.8516 430.287 5.59455 428.555C-0.851026 420.991 -3.16898 410.657 -0.447343 400.979C2.51557 390.443 10.9815 382.357 21.6425 379.88C26.0497 378.855 30.8876 378.422 35.7051 378.356ZM98.7831 42.7005C100.391 40.2074 102.075 37.6348 103.84 34.9723C102.818 35.158 100.888 38.0811 98.7831 42.7005ZM98.7831 42.7005C70.3096 86.8219 65.4042 105.725 56.016 142.683C47.9164 174.572 121.329 183.999 88.7805 194.492C76.5624 198.431 41.5295 190.925 33.245 181.077C55.1726 230.625 46.2557 243.043 68.9804 267.452C77.6413 276.755 95.836 282.455 109.082 301.412C137.105 341.515 11.5294 281.87 108.14 396.71C81.4781 418.264 82.0249 385.853 63.1775 390.408C80.0304 428.47 57.0104 402.46 28.432 409.101C53.3112 433.549 4.51559 523.574 96.0243 533.146C120.066 535.661 162.196 491.715 193.358 526.197C228.354 564.917 215.659 586.807 238.839 611.899C254.432 628.773 261.828 626.437 290.634 622.454C307.095 620.178 286.789 670.955 351.008 631.337C362.666 624.146 398.293 609.776 413.728 617.868C459.22 641.721 549.009 598.178 549.009 598.178C549.009 598.178 448.757 620.343 475.703 604.749C483.685 600.124 488.455 557.133 511.026 558.211C532.323 559.228 561.017 567.066 597.906 547.251C539.46 539.858 532.075 514.329 555.785 501.936C593.036 482.457 679.747 591.001 727.28 431.191C704.337 451.937 680.345 447.404 664.031 434.196C644.391 418.286 638.28 415.813 639.148 406.113C640.693 388.838 669.521 402.48 686.828 376.642C690.266 371.522 683.784 353.164 695.137 339.444C713.334 317.452 751.937 295.408 759.356 268.855C701.62 315.443 649.949 293.678 613.082 305.992C589.62 313.83 555.154 333.945 526.134 325.385C523.924 324.735 546.078 302.216 549.054 278.098C551.783 255.854 534.533 232.125 550.655 225.785C593.239 209.037 652.035 151.099 652.035 151.099C652.035 151.099 523.135 192.346 512.627 158.655C504.836 133.681 609.869 109.621 571.141 76.0968C560.994 67.3124 662.362 70.8433 692.533 19.4065C587.444 80.4994 388.8 50.1714 377.312 80.9618C359.464 128.772 279.348 49.8255 251.038 92.027C258.637 23.9267 183.832 90.6145 236.72 22.1163C153.244 38.7003 166.537 125.535 110.55 112.626C79.4498 105.456 90.4829 60.9046 98.7831 42.7005Z" fill="#FF050B"/>
<path fill-rule="evenodd" clip-rule="evenodd" d="M229.716 226.38C191.99 235.57 93.336 255.164 93.336 255.164L122.007 204.274C122.007 204.274 188.428 199.467 228.607 189.521C220.148 184.508 161.502 175.594 161.502 175.594L179.103 152.111C168.491 157.668 138.247 170.554 138.247 170.554L84.5992 141.682C84.5992 141.682 157.494 123.491 167.086 116.204C176.656 108.933 189.487 105.261 198.228 88.6123L200.139 69.4766L236.316 81.1057L228.639 95.7302C323.041 116.619 448.063 98.2773 539.466 76.1091C548.815 74.5046 558.086 79.2174 561.498 87.3093C564.909 95.4004 561.485 104.557 553.36 109.068C495.907 140.967 430.202 167.378 361.692 189.443L499.75 177.849C505.639 177.623 516.932 186.086 520.572 190.311C524.212 194.536 525.397 200.098 523.757 205.257L512.046 242.101L513.642 242.058L514.736 276.141L269.336 282.68L231.438 298.638L229.716 226.38ZM473.581 243.126L481.484 218.262L269.108 226.393L269.198 248.572L473.581 243.126ZM190.58 145.053C190.58 145.053 257.861 160.965 271.293 176.955C275.218 181.826 385.071 152.997 430.205 126.492C321.843 149.327 209.542 129.024 209.542 129.024C205.065 134.248 197.338 139.951 192.313 143.768C191.741 144.204 191.163 144.631 190.58 145.053ZM164.276 322.528L134.842 295.532L193.639 298.603C198.59 303.646 204.721 307.242 212.295 309.063L231.341 313.64L221.293 348.344L202.248 343.766C186.842 340.063 174.347 332.787 164.276 322.528ZM276.319 319.228L251.593 299.611L307.199 296.947C313.478 304.169 326.894 307.655 346.346 310.343L365.819 313.034L359.912 348.519L340.439 345.827C307.666 341.298 286.896 331.398 276.319 319.228ZM456.281 309.831C462.878 302.122 471.721 281.612 471.721 281.612L522.844 287.496C526.762 288.557 485.034 329.546 468.379 338.879C456.493 345.541 422.922 343.496 422.922 343.496C422.922 343.496 449.694 317.529 456.281 309.831ZM206.67 387.88C203.658 399.032 193.714 430.672 171.961 457.062C151.548 481.827 67.8047 503.411 67.8047 503.411L79.8492 444.495C79.8492 444.495 126.273 441.492 139.417 425.546C150.764 411.781 158.446 398.687 163.352 388.844L116.872 389.879L101.849 348.377C283.435 351.057 454.153 362.22 636.254 317.817L659.265 377.807L573.999 379.704C576.734 389.894 581.512 403.372 589.68 416.472C599.786 432.683 647.781 441.052 647.781 441.052L661.081 506.735C661.081 506.735 569.76 462.786 555.205 439.441C542.334 418.796 536.242 395.365 533.477 380.607L206.67 387.88ZM373.361 406.538C413.025 404.189 452.646 400.515 491.22 396.05L485.191 434.255L234.608 436.324L219.627 407.749C254.087 409.594 289.593 409.778 325.398 408.699L319.108 396.587L368.293 385.864L373.361 406.538ZM245.908 471.474L222.818 445.787L504.973 443.35L485.701 470.124L245.908 471.474ZM215.423 511.822L228.144 482.742L501.509 477.625L524.406 509.995L215.423 511.822ZM267.859 524.309L468.329 518.477C475.923 518.31 482.691 522.816 484.823 529.459C484.823 529.459 467.519 591.255 464.444 595.086C461.368 598.917 456.511 601.227 451.303 601.338L286.951 604.813C281.641 604.926 276.586 602.738 273.328 598.917C270.068 595.095 252.122 535.464 252.122 535.464C254.106 528.999 260.492 524.471 267.859 524.309ZM291.604 549.508L308.801 573.798L428.697 571.262L432.766 553.545L291.604 549.508Z" fill="#282603"/>
</g>
<defs>
<clipPath id="clip0_910_1020">
<rect width="2160" height="2700" fill="white"/>
</clipPath>
</defs>
</svg>
