<svg width="2160" height="2700" viewBox="0 0 2160 2700" fill="none" xmlns="http://www.w3.org/2000/svg">
<g clip-path="url(#clip0_938_454)">
<path fill-rule="evenodd" clip-rule="evenodd" d="M2187.27 -11.832V2711.83H-27.2676V-11.832H2187.27ZM2092.2 83.2317H67.7964V2616.77H2092.2V83.2317Z" fill="#D1D1D1"/>
<path fill-rule="evenodd" clip-rule="evenodd" d="M464.318 41.2188C448.043 62.6187 462.315 117.24 375.406 205.954C355.581 226.196 424.445 241.689 471.971 182.494C517.077 126.295 631.176 83.5486 631.176 83.5486C631.176 83.5486 555.906 143.379 571.073 163.018C591.239 189.123 682.08 154.306 713.331 77.5588C712.904 164.756 595.683 179.551 622.617 217.149C626.209 222.146 657.235 214.159 657.235 214.159C657.235 214.159 582.317 299.417 607.759 326.431C644.467 365.402 657.438 326.38 668.661 344.102C677.38 357.866 680.172 360.318 690.063 357.315C697.002 355.209 713.032 343.679 721.207 342.607C728.7 341.625 738.868 329.59 744.517 331.53C737.141 334.452 725.172 356.065 718.553 356.349C710.517 356.694 696.384 353.77 691.502 358.127C659.548 386.619 637.603 391.824 632.263 445.588C629.673 471.614 587.295 462.048 503.179 481.671C474.71 488.311 439.239 492.606 487.277 516.554C378.103 493.784 319.066 448.768 298.57 479.941C286.323 498.565 310.731 615.094 256.33 627.025C235.728 633.656 187.264 587.982 156.832 556.973C142.017 541.875 150.22 407.477 144.702 407.266C92.2997 405.259 78.9948 397.813 68.5336 319.774C62.9454 278.089 77.0315 150.766 77.0315 150.766C66.2495 163.712 98.3825 251.648 114.497 236.026C150.175 201.436 136.724 168.112 124.384 149.353C97.7056 108.8 152.828 88.9077 154.015 63.505C161.847 73.2958 126.743 103.263 157.022 108.621C201.003 116.403 240.46 62.9214 278.969 46.5573C248.901 80.6465 304.592 113.332 338.048 75.754C361.092 49.8675 379.435 68.7094 406.965 69.1382C421.365 69.363 436.361 55.7655 464.318 41.2188Z" fill="#F2E83A"/>
<path fill-rule="evenodd" clip-rule="evenodd" d="M35.2306 167.06C34.9961 164.623 34.8704 162.335 34.8651 160.228C34.8225 143.864 40.5002 132.128 46.2962 125.169C54.436 115.394 66.5003 110.299 78.6849 110.799C80.8529 102.894 84.3829 95.4105 88.7102 88.2489C93.239 80.7525 99.0297 73.6666 105.036 66.9533C108.093 63.5376 112.822 57.9973 114.784 55.6915C117.577 41.648 127.752 29.978 141.661 25.4616C157.493 20.3203 174.855 25.5212 185.25 38.5201C189.449 43.7715 192.391 49.6512 193.936 56.1891C194.874 55.4943 195.812 54.8017 196.761 54.1218C219.41 37.9079 241.707 18.9307 263.323 9.74532C280.515 2.4381 300.478 8.00479 311.403 23.1547C314.92 28.0334 317.211 33.4889 318.267 39.1095C338.251 21.7696 357.042 20.2572 376.376 22.9666C385.041 24.1797 394.027 28.2054 404.653 29.0103C409.14 26.317 428.656 14.6894 445.858 5.73684C462.464 -2.90501 482.843 1.12984 494.908 15.4485C506.579 29.3027 507.443 49.1983 497.221 63.9721C496.614 66.3823 492.766 81.6537 489.654 93.271C487.511 101.251 484.868 110.06 481.244 119.694C539.002 76.3324 617.139 46.0934 617.139 46.0934C635.578 39.1874 656.287 46.7183 665.986 63.8472C667.99 67.3924 669.397 71.1292 670.239 74.937C672.488 70.9698 674.513 66.8157 676.282 62.477C683.509 44.7255 702.31 34.5953 721.112 38.3241C739.913 42.0528 753.428 58.5912 753.332 77.7565C753.087 126.165 728.37 159.242 699.432 183.952C696.608 186.365 693.485 188.942 690.234 191.56C690.607 192.104 690.97 192.657 691.321 193.223C700.509 208.179 698.867 227.378 687.282 240.564C687.282 240.564 670.633 259.523 656.809 281.481C653.335 286.997 649.572 294.978 646.78 301.329C647.473 301.116 648.102 300.937 648.613 300.807C653.559 299.568 658.291 299.076 662.831 299.223C673.17 299.556 683.722 302.02 693.421 311.402C698.079 309.245 703.024 307.084 707.32 305.475C709.686 304.049 726.686 293.851 733.347 292.393C742.109 290.478 750.198 291.191 757.51 293.698C773.348 299.135 784.124 313.862 784.508 330.602C784.827 344.418 778.017 357.192 766.879 364.701C763.372 368.84 751.477 382.692 746.18 386.682C737.014 393.594 727.784 395.991 720.269 396.314C717.658 396.426 712.766 396.26 708.662 396.073C702.342 401.284 696.48 405.803 691.129 410.237C680.663 418.897 674.268 427.355 672.062 449.542C669.706 473.331 658.152 488.765 633.809 498.365C615.881 505.435 580.612 506.139 527.278 517.306C527.193 521.425 526.478 525.593 525.061 529.671C518.463 548.67 498.799 559.818 479.102 555.712C422.676 543.943 379.169 526.559 347.151 516.011C343.229 514.718 338.645 513.479 334.403 512.425C334.393 512.976 334.382 513.517 334.371 514.047C334.084 534.264 334.169 559.282 330.694 581.608C323.99 624.737 302.716 657.314 265.934 665.863C252.163 669.35 232.829 667.352 211.853 655.519C185.964 640.916 152.012 609.172 128.282 584.99C122.234 578.827 114.477 565.17 111.326 544.827C107.656 521.126 106.64 473.259 106.377 443.067C86.9239 438.827 72.94 431.309 61.7796 419.468C47.0018 403.786 35.7998 376.648 28.8878 325.09C24.4188 291.746 31.5119 206.559 35.2306 167.06ZM75.3457 166.991C71.7858 202.651 64.1757 287.263 68.5339 319.775C78.9951 397.814 92.3 405.26 144.702 407.268C150.22 407.479 142.017 541.877 156.832 556.975C187.264 587.983 235.728 633.658 256.331 627.027C310.731 615.096 286.323 498.566 298.57 479.942C319.066 448.77 378.103 493.785 487.277 516.555C439.239 492.608 474.711 488.312 503.179 481.673C587.295 462.05 629.673 471.616 632.263 445.589C637.603 391.826 659.549 386.62 691.503 358.129C696.384 353.772 710.517 356.695 718.554 356.35C725.172 356.067 737.142 334.454 744.517 331.531C738.868 329.591 728.7 341.627 721.207 342.608C713.032 343.68 697.002 355.211 690.064 357.317C680.173 360.32 677.38 357.867 668.661 344.104C657.438 326.382 644.467 365.404 607.759 326.432C582.318 299.419 657.236 214.161 657.236 214.161C657.236 214.161 626.209 222.148 622.617 217.151C595.683 179.553 712.905 164.757 713.331 77.5604C682.08 154.307 591.239 189.125 571.073 163.019C555.906 143.38 631.176 83.5502 631.176 83.5502C631.176 83.5502 517.078 126.296 471.971 182.495C424.446 241.69 355.582 226.197 375.406 205.956C462.315 117.242 448.043 62.6203 464.319 41.2203C436.362 55.7671 421.365 69.3646 406.966 69.1398C379.435 68.711 361.092 49.8691 338.049 75.7556C304.592 113.334 248.902 80.6481 278.969 46.5589C240.46 62.923 201.003 116.405 157.022 108.623C126.744 103.265 161.847 73.2974 154.015 63.5066C152.828 88.9093 97.7059 108.802 124.384 149.354C136.724 168.113 150.175 201.438 114.497 236.027C101.737 248.397 78.9344 195.838 75.3457 166.991ZM75.3457 166.991C76.3497 156.932 77.0319 150.768 77.0319 150.768C74.7872 153.463 74.4024 159.407 75.3457 166.991Z" fill="#FF050B"/>
<path fill-rule="evenodd" clip-rule="evenodd" d="M184.135 305.453C169.01 316.176 120.638 350.712 104.694 357.847L101.543 289.894C168.383 259.981 248.687 200.642 263.663 122.208L381.908 91.457C371.864 144.063 297.658 241.398 232.19 274.577L255.57 592.836L174.614 545.553L184.135 305.453ZM328.374 313.012L305.674 258.149C406.152 257.257 505.383 253.068 602.4 243.017L580.245 306.74L328.374 313.012ZM327.498 445.375L276.255 396.971C377.888 371.888 553.363 358.424 642.575 373.81L599.946 432.026C517.446 417.798 421.485 422.18 327.498 445.375Z" fill="black"/>
<path fill-rule="evenodd" clip-rule="evenodd" d="M177.657 317.393C157.115 331.896 120.641 357.284 107.145 363.323C105.333 364.134 103.238 363.996 101.548 362.956C99.8586 361.916 98.7928 360.107 98.7005 358.125L95.5495 290.171C95.4351 287.707 96.8407 285.425 99.0918 284.417C164.35 255.213 243.149 197.66 257.77 121.083C258.204 118.807 259.911 116.984 262.154 116.401L380.399 85.6501C382.39 85.1327 384.508 85.6711 386.01 87.0772C387.512 88.4833 388.188 90.5614 387.802 92.5823C383.667 114.235 369.098 143.317 348.637 172.527C319.145 214.632 277.48 257.057 238.463 278.068L261.555 592.396C261.717 594.618 260.636 596.747 258.747 597.926C256.856 599.105 254.468 599.14 252.544 598.016L171.589 550.734C169.673 549.616 168.531 547.532 168.619 545.315L177.657 317.393ZM184.135 305.453L174.614 545.553L255.57 592.836L232.19 274.577C297.658 241.398 371.864 144.062 381.908 91.4568L263.663 122.208C248.687 200.642 168.383 259.981 101.543 289.893L104.694 357.847C120.638 350.711 169.01 316.176 184.135 305.453ZM322.831 315.306L300.13 260.442C299.368 258.599 299.57 256.499 300.671 254.836C301.772 253.173 303.627 252.166 305.622 252.148C405.907 251.259 504.949 247.081 601.782 237.049C603.823 236.837 605.831 237.684 607.104 239.292C608.378 240.901 608.742 243.049 608.067 244.988L585.913 308.71C585.092 311.071 582.893 312.676 580.394 312.738L328.525 319.009C326.043 319.071 323.779 317.599 322.831 315.306ZM328.375 313.012L580.246 306.74L602.401 243.017C505.383 253.068 406.152 257.257 305.674 258.148L328.375 313.012ZM323.378 449.737L272.135 401.332C270.539 399.825 269.894 397.566 270.453 395.443C271.012 393.32 272.686 391.671 274.818 391.145C377.132 365.895 553.784 352.408 643.594 367.897C645.641 368.25 647.359 369.636 648.137 371.562C648.916 373.488 648.642 375.679 647.416 377.354L604.787 435.572C603.441 437.409 601.17 438.327 598.926 437.939C517.169 423.84 422.076 428.215 328.936 451.2C326.955 451.689 324.862 451.138 323.378 449.737ZM327.499 445.375C421.485 422.18 517.446 417.798 599.946 432.026L642.575 373.81C553.363 358.423 377.889 371.888 276.255 396.971L327.499 445.375Z" fill="black"/>
</g>
<defs>
<clipPath id="clip0_938_454">
<rect width="2160" height="2700" fill="white"/>
</clipPath>
</defs>
</svg>
