<svg width="2160" height="2700" viewBox="0 0 2160 2700" fill="none" xmlns="http://www.w3.org/2000/svg">
<g clip-path="url(#clip0_626_1671)">
<path fill-rule="evenodd" clip-rule="evenodd" d="M2187.27 -11.832V2711.83H-27.2656V-11.832H2187.27ZM2092.21 83.2317H67.7983V2616.77H2092.21V83.2317Z" fill="#D1D1D1"/>
<path fill-rule="evenodd" clip-rule="evenodd" d="M317.34 550.735C318.476 549.784 122.572 553.766 122.572 553.766L61.5171 509.027L350.829 508.993L339.421 486.324L435.775 496.24L430.929 506.757L629.009 500.523L710.423 536.574C710.423 536.574 593.95 611.848 484.928 633.092L373.402 601.448C383.595 606.782 569.095 563.552 570.832 544.691L422.657 552.126C389.043 589.766 280.736 637.312 171.86 646.664L91.5159 597.039C91.5159 597.039 269.602 590.735 317.34 550.735Z" fill="black"/>
<path fill-rule="evenodd" clip-rule="evenodd" d="M678.823 457.358L96.8838 464.707L83.7427 235.159L168.604 259.271L345.53 259.425C339.208 248.206 322.332 242.86 291.543 244.522L256.909 194.385L382.197 211.247C382.197 211.247 446.196 186.335 446.194 186.335C343.096 190.184 169.511 182.811 169.511 182.811L103.824 125.898C278.351 133.865 461.279 141.241 646.087 126.828L723.476 164.731C615.225 183.274 501.241 200.594 417.766 233.789C418.77 236.709 431.658 251.44 432.726 255.307L684.49 248.224L657.237 278.319L659.679 417.156L678.823 457.358ZM167.476 312.747L172.879 415.877L341.293 421.513L342.752 387.292L238.35 388.033L199.079 342.074L344.802 339.29L346.204 306.402L167.476 312.747ZM595.688 297.544L426.106 303.565L424.647 337.763L574.414 332.793L534.333 383.474L422.598 385.766L425.26 418.866L591.746 412.29L595.688 297.544Z" fill="black"/>
<path fill-rule="evenodd" clip-rule="evenodd" d="M288.184 499.703C289.145 498.764 123.501 502.696 123.501 502.696L71.8765 458.514L316.5 458.481L306.855 436.094L388.326 445.886L384.228 456.272L551.712 450.116L620.551 485.717C620.551 485.717 522.069 560.055 429.886 581.034L335.587 549.785C344.205 555.052 501.053 512.36 502.521 493.734L377.234 501.076C348.812 538.247 257.235 585.201 165.175 594.437L97.2416 545.43C97.2416 545.43 247.82 539.204 288.184 499.703Z" fill="#EFE313"/>
<path fill-rule="evenodd" clip-rule="evenodd" d="M286.998 438.485C286.392 433.453 287.715 428.296 290.834 424.121C295.118 418.39 302.137 415.383 309.242 416.237L390.712 426.03C396.803 426.762 402.216 430.248 405.405 435.48L550.977 430.13C554.42 430.003 557.838 430.769 560.898 432.352L629.738 467.953C635.843 471.109 639.898 477.179 640.479 484.026C641.06 490.874 638.085 497.541 632.6 501.681C632.6 501.681 530.135 578.731 434.324 600.536C430.767 601.345 427.057 601.167 423.594 600.019L329.295 568.77L329.415 568.513C327.417 567.969 325.98 567.354 325.158 566.851C324.663 566.548 324.185 566.226 323.724 565.888C280.344 589.063 223.945 608.642 167.172 614.338C162.31 614.826 157.438 613.517 153.474 610.658L85.5405 561.651C78.6265 556.664 75.6343 547.842 78.087 539.678C80.5388 531.513 87.8978 525.801 96.4149 525.448C96.4149 525.448 113.065 524.771 136.616 522.395C128.728 522.578 123.975 522.691 123.975 522.691C119.044 522.808 114.244 521.099 110.496 517.891L58.872 473.709C52.5119 468.266 50.2143 459.437 53.1159 451.584C56.0166 443.731 63.5018 438.516 71.8734 438.514L286.998 438.485ZM336.517 550.093L429.886 581.035C522.068 560.056 620.55 485.718 620.55 485.718L551.712 450.116L384.228 456.272L388.326 445.887L306.855 436.094L316.5 458.481L71.8763 458.514L123.501 502.696C123.501 502.696 289.145 498.764 288.184 499.704C247.82 539.205 97.2414 545.431 97.2414 545.431L165.175 594.438C257.234 585.202 348.812 538.248 377.234 501.077L502.521 493.734C501.089 511.89 352.016 552.915 336.517 550.093ZM336.517 550.093L335.587 549.785C335.804 549.918 336.116 550.02 336.517 550.093Z" fill="#FF050B"/>
<path fill-rule="evenodd" clip-rule="evenodd" d="M593.832 407.489L101.78 414.747L90.6689 188.056L162.423 211.868L312.02 212.021C306.674 200.941 292.405 195.662 266.372 197.303L237.087 147.79L343.024 164.442C343.024 164.442 397.137 139.84 397.135 139.84C309.962 143.642 163.189 136.36 163.189 136.36L107.648 80.1562C255.218 88.0232 409.89 95.3079 566.152 81.074L631.588 118.505C540.058 136.817 443.68 153.922 373.099 186.703C373.947 189.588 384.845 204.135 385.747 207.954L598.624 200.959L575.58 230.68L577.645 367.787L593.832 407.489ZM161.469 264.679L166.037 366.525L308.437 372.091L309.671 338.296L221.395 339.027L188.19 293.641L311.404 290.891L312.59 258.412L161.469 264.679ZM523.538 249.665L380.15 255.611L378.916 289.383L505.55 284.475L471.66 334.525L377.184 336.789L379.435 369.476L520.205 362.983L523.538 249.665Z" fill="#EFE313"/>
<path fill-rule="evenodd" clip-rule="evenodd" d="M239.969 191.948L220.291 158.679C186.052 157.515 162.198 156.335 162.198 156.335C157.201 156.088 152.48 153.976 148.964 150.418L93.4224 94.2145C87.6152 88.3379 86.019 79.4951 89.4052 71.9595C92.7914 64.4233 100.464 59.7451 108.714 60.1848C255.356 68.0023 409.058 75.3012 564.338 61.1566C568.423 60.7846 572.523 61.6774 576.083 63.7138L641.518 101.145C648.757 105.286 652.666 113.482 651.329 121.713C649.992 129.944 643.688 136.481 635.512 138.117C564.386 152.346 490.236 165.668 428.034 186.554L597.967 180.97C605.715 180.715 612.911 184.96 616.437 191.864C619.962 198.768 619.18 207.087 614.43 213.214L595.684 237.392L597.586 363.722L612.352 399.938C614.847 406.057 614.158 413.014 610.513 418.524C606.866 424.036 600.735 427.39 594.127 427.488L102.075 434.745C91.2972 434.904 82.3322 426.492 81.8043 415.726L70.693 189.036C70.3702 182.447 73.3171 176.122 78.5703 172.131C83.8235 168.14 90.7067 166.997 96.9685 169.075L165.664 191.872L239.969 191.948ZM593.832 407.49L577.645 367.788L575.581 230.68L598.624 200.959L385.748 207.954C384.845 204.135 373.947 189.588 373.099 186.703C443.68 153.922 540.058 136.817 631.588 118.505L566.152 81.0743C409.89 95.3081 255.218 88.0235 107.648 80.1565L163.189 136.36C163.189 136.36 309.962 143.642 397.135 139.84C397.137 139.84 343.024 164.442 343.024 164.442L237.087 147.791L266.372 197.303C292.405 195.662 306.674 200.941 312.02 212.021L162.423 211.869L90.6691 188.057L101.78 414.747L593.832 407.49ZM161.469 264.679L312.59 258.412L311.405 290.891L188.19 293.641L221.395 339.027L309.671 338.296L308.437 372.091L166.037 366.525L161.469 264.679ZM184.054 321.859L185.193 347.258L203.149 347.96L184.054 321.859ZM523.538 249.665L520.205 362.983L379.435 369.476L377.184 336.789L471.661 334.525L505.55 284.476L378.916 289.384L380.15 255.611L523.538 249.665ZM489.131 344.395L500.759 343.859L501.27 326.468L489.131 344.395Z" fill="#FF050B"/>
</g>
<defs>
<clipPath id="clip0_626_1671">
<rect width="2160" height="2700" fill="white"/>
</clipPath>
</defs>
</svg>
