<svg width="2160" height="2700" viewBox="0 0 2160 2700" fill="none" xmlns="http://www.w3.org/2000/svg">
<g clip-path="url(#clip0_910_876)">
<path fill-rule="evenodd" clip-rule="evenodd" d="M2187.27 -11.832V2711.83H-27.2676V-11.832H2187.27ZM2092.2 83.2317H67.7964V2616.77H2092.2V83.2317Z" fill="#D1D1D1"/>
<path fill-rule="evenodd" clip-rule="evenodd" d="M178.696 1.69653C178.696 1.69653 33.6456 90.2705 12.2606 131.595C2.39657 150.656 14.0016 174.493 14.1016 195.956C14.2016 217.643 7.07758 240.568 12.8636 261.715C19.4186 285.674 53.4326 339.71 53.4326 339.71C53.4326 339.71 6.39857 395.643 2.46758 424.992C-1.46342 454.339 10.2576 501.612 29.8466 515.796C49.4356 529.981 120.001 510.098 120.001 510.098L164.759 515.788L163.888 561.207L259.756 626.822C259.756 626.822 330.664 657.028 368.099 656.445C407.377 655.833 449.651 627.06 449.651 627.06L573.741 603.7C573.741 603.7 658.705 667.271 717.016 617.63C756.954 583.63 742.647 510.717 770.252 461.863C800.975 407.492 844.885 319.999 881.454 288.12C905.458 267.195 957.902 272.8 989.669 270.587C1030.88 267.717 1099.33 301.916 1144.26 276.603C1189.49 251.123 1222.06 170.635 1261.04 117.706C1302.98 60.7405 1395.95 -65.1895 1395.95 -65.1895L1289.48 -84.7275C1289.48 -84.7275 1219.49 71.5045 1195.47 98.8335C1183.63 112.302 1144.07 97.1285 1145.38 79.2475C1146.98 57.1825 1205.12 -33.5555 1205.12 -33.5555L1157.36 -85.4575C1157.36 -85.4575 1126.46 74.1815 1089.2 122.151C1053.45 168.182 981 187.758 933.831 202.353C893.116 214.95 815.8 230.005 806.187 209.717C796.573 189.43 840.648 114.319 876.151 80.6285C913.131 45.5375 1028.06 -0.827469 1028.06 -0.827469L1061.25 -143.105L924.672 -104.758C924.672 -104.758 878.437 -19.0165 853.137 6.98152C831.829 28.8775 795.134 48.9745 772.871 51.2335C752.469 53.3035 719.556 20.5365 719.556 20.5365L749.237 -54.8085C749.237 -54.8085 672.326 -99.8405 648.465 -86.0455C624.604 -72.2495 623.432 8.96353 606.07 27.9645C592.181 43.1665 549.975 41.7285 544.296 27.9645C538.616 14.2005 585.709 -42.2855 571.993 -54.6185C558.277 -66.9505 461.999 -46.0315 461.999 -46.0315C461.999 -46.0315 401.52 15.2295 363.179 32.6155C321.519 51.5055 219.67 79.0065 212.044 67.3115C196.294 43.1625 307.213 -29.7145 307.213 -29.7145L178.696 1.69653Z" fill="#BABABA" fill-opacity="0.6"/>
<path fill-rule="evenodd" clip-rule="evenodd" d="M178.696 1.69653L307.213 -29.7145C307.213 -29.7145 196.294 43.1625 212.044 67.3115C219.67 79.0065 321.519 51.5055 363.179 32.6155C401.52 15.2295 461.999 -46.0315 461.999 -46.0315C461.999 -46.0315 558.277 -66.9505 571.993 -54.6185C585.709 -42.2855 538.616 14.2005 544.296 27.9645C549.975 41.7285 592.181 43.1665 606.07 27.9645C623.432 8.96353 624.604 -72.2495 648.465 -86.0455C672.326 -99.8405 749.237 -54.8085 749.237 -54.8085L719.556 20.5365C719.556 20.5365 752.469 53.3035 772.871 51.2335C795.134 48.9745 831.829 28.8775 853.137 6.98152C878.437 -19.0165 924.672 -104.758 924.672 -104.758L1061.25 -143.105L1028.06 -0.827469C1028.06 -0.827469 913.131 45.5375 876.151 80.6285C840.648 114.319 796.573 189.43 806.187 209.717C815.8 230.005 893.116 214.95 933.831 202.353C981 187.758 1053.45 168.182 1089.2 122.151C1126.46 74.1815 1157.36 -85.4575 1157.36 -85.4575L1205.12 -33.5555C1205.12 -33.5555 1146.98 57.1825 1145.38 79.2475C1144.07 97.1285 1183.63 112.302 1195.47 98.8335C1219.49 71.5045 1289.48 -84.7275 1289.48 -84.7275L1395.95 -65.1895C1395.95 -65.1895 1302.98 60.7405 1261.04 117.706C1222.06 170.635 1189.49 251.123 1144.26 276.603C1099.33 301.916 1030.88 267.717 989.669 270.587C957.902 272.8 905.458 267.195 881.454 288.12C844.885 319.999 800.975 407.492 770.252 461.863C742.647 510.717 756.954 583.63 717.016 617.63C658.705 667.271 573.741 603.7 573.741 603.7L449.651 627.06C449.651 627.06 407.377 655.833 368.099 656.445C330.664 657.028 259.756 626.822 259.756 626.822L163.888 561.207L164.759 515.788L120.001 510.098C120.001 510.098 49.4356 529.981 29.8466 515.796C10.2576 501.612 -1.46342 454.339 2.46758 424.992C6.39857 395.643 53.4326 339.71 53.4326 339.71C53.4326 339.71 19.4186 285.674 12.8636 261.715C7.07758 240.568 14.2016 217.643 14.1016 195.956C14.0016 174.493 2.39657 150.656 12.2606 131.595C33.6456 90.2705 178.696 1.69653 178.696 1.69653ZM560.612 -44.9945C559.821 -45.1205 558.995 -45.2315 558.246 -45.2905C553.879 -45.6335 548.646 -45.5555 542.94 -45.2245C516.206 -43.6685 479.945 -36.4895 468.428 -34.1025C455.767 -21.6685 403.313 28.6905 368.547 44.4545C334.086 60.0815 259.755 81.2755 227.378 82.9895C219.47 83.4075 213.393 82.5635 209.68 81.1165C205.558 79.5095 202.865 77.0355 201.155 74.4135C197.26 68.4415 196.311 61.0865 199.088 52.6565C201.544 45.2005 207.568 36.2055 216.068 26.9245C224.635 17.5695 235.807 7.63052 247.195 -1.66248L183.766 13.8395L183.764 13.8405C172.74 20.6435 110.663 59.3365 65.7906 95.4405C46.1356 111.256 29.6926 126.194 23.8056 137.569C20.1326 144.669 21.0436 152.703 22.2956 160.916C24.0726 172.568 27.0486 184.553 27.1016 195.896C27.1536 207.158 25.3786 218.745 24.2936 230.259C23.3966 239.763 22.9226 249.218 25.4026 258.284C31.6736 281.205 64.4346 332.785 64.4346 332.785C67.4456 337.569 67.0206 343.751 63.3826 348.077C63.3826 348.077 46.9876 367.576 33.0486 389.312C24.5986 402.489 16.7366 416.381 15.3526 426.718C13.2336 442.533 16.3096 464.127 22.8036 481.638C26.5976 491.867 31.3036 500.801 37.4716 505.267C41.6256 508.275 49.1746 508.125 57.4946 507.828C83.6086 506.896 116.475 497.585 116.475 497.585C118.154 497.112 119.911 496.982 121.641 497.202L166.398 502.892C172.986 503.73 177.884 509.398 177.756 516.038L177.02 554.441C177.02 554.441 266.035 615.367 266.038 615.368C275.193 619.236 335.041 643.958 367.897 643.445C403.797 642.888 442.336 616.312 442.336 616.312C443.816 615.305 445.487 614.616 447.246 614.285L571.336 590.924C574.916 590.251 578.613 591.109 581.53 593.291C581.53 593.291 609.772 614.431 644 621.436C665.076 625.75 688.695 624.668 708.589 607.731C726.323 592.634 731.122 568.52 735.443 543.135C740.561 513.074 744.418 481.156 758.934 455.467C790.307 399.946 835.569 310.874 872.912 278.32C884.224 268.459 900.714 263.109 919.045 260.66C942.661 257.505 969.479 258.962 988.766 257.619C1010.23 256.124 1038.83 263.981 1067.88 269.217C1092.66 273.686 1117.91 276.527 1137.88 265.276C1154.47 255.931 1168.93 238.253 1182.92 217.612C1205.9 183.712 1227.09 141.882 1250.57 109.998C1283.13 65.7825 1346.42 -19.9765 1373.13 -56.1605L1297.11 -70.1095C1281.39 -35.6935 1226.12 83.6485 1205.23 107.416C1200.95 112.29 1194.83 115.436 1187.53 116.54C1179.48 117.755 1169.73 116.382 1160.8 112.918C1151.76 109.413 1143.66 103.798 1138.7 97.4415C1134.11 91.5635 1131.92 84.9715 1132.41 78.3025C1132.96 70.7495 1138.8 55.9445 1147.43 39.1975C1160.57 13.7075 1179.62 -17.3695 1188.81 -32.0755L1164.88 -58.0795C1158.59 -29.5655 1147.06 18.5975 1132.64 60.3915C1122.73 89.1365 1111.3 114.898 1099.47 130.125C1062.13 178.197 986.934 199.53 937.673 214.772C907.907 223.982 859.376 234.246 829.513 232.43C820.047 231.854 812.159 230.016 806.514 227.154C800.706 224.21 796.731 220.121 794.439 215.284C790.608 207.2 791.432 192.359 798.205 174.618C810.68 141.94 841.143 95.9275 867.203 71.1985C899.947 40.1265 992.008 0.205521 1016.92 -10.2725L1043.6 -124.645L933.442 -93.7185C923.042 -74.9035 884.756 -6.87048 862.453 16.0485C839.082 40.0645 798.603 61.6885 774.183 64.1665C765.886 65.0085 755.912 62.1625 746.224 56.9775C728.021 47.2365 710.384 29.7495 710.384 29.7495C706.709 26.0905 705.56 20.5965 707.461 15.7715L732.972 -48.9865C720.272 -55.8105 697.271 -67.3325 677.293 -72.8515C671.739 -74.3855 666.462 -75.4525 661.81 -75.6435C659.112 -75.7545 656.719 -75.8005 654.972 -74.7905C652.128 -73.1465 650.321 -69.5295 648.373 -65.2885C643.795 -55.3205 640.57 -41.8355 637.518 -28.1605C634.159 -13.1085 631.069 2.17752 627.232 14.1135C624.052 24.0065 620.106 31.8765 615.668 36.7335C605.007 48.4015 581.629 53.6445 562.805 51.1785C547.423 49.1635 535.841 41.5565 532.279 32.9235C530.398 28.3655 530.297 21.1355 533.488 12.4175C537.662 1.01653 547.633 -15.3505 554.889 -29.9655C557.265 -34.7515 559.443 -41.2575 560.612 -44.9945Z" fill="white" fill-opacity="0.3"/>
<path fill-rule="evenodd" clip-rule="evenodd" d="M258.735 423.882L164.927 506.115L88.0166 475.524C161.047 433.112 215.74 381.43 259.87 324.408L137.144 325.252L95.101 251.681L260.921 253.635L261.649 196.99C228.446 206.884 137.288 225.971 137.288 225.971L95.772 165.572C212.413 140.797 338.548 101.649 444.837 47.5938L448.773 123.19C448.773 123.19 370.84 159.273 331.068 173.898L330.034 254.36L447.711 257.697L427.032 328.156L332.315 325.168C357.803 375.4 395.559 407.508 439.357 430.689L380.06 472.182L327.722 434.431C320.226 511.787 325.718 581.723 342.673 645.11L258.997 589.73L258.735 423.882Z" fill="black"/>
<path fill-rule="evenodd" clip-rule="evenodd" d="M543.572 556.862L540.088 599.62L473.902 614.032L479.218 61.2495L480.485 61.2623L479.163 67.0142L720.255 70.096L711.859 60.2891L702.902 606.685L634.103 592.315L635.368 556.548L543.572 556.862ZM547.646 133.181L544.252 486.079L637.658 485.759L635.496 138.812L547.646 133.181Z" fill="black"/>
<path fill-rule="evenodd" clip-rule="evenodd" d="M493.691 511.626L490.282 548.227L425.508 560.563L430.656 92.3164L660.918 94.5565L649.622 554.275L582.291 541.974L583.529 511.358L493.691 511.626ZM497.678 148.955L494.357 451.036L585.77 450.762L583.654 153.775L497.678 148.955Z" fill="black"/>
<path fill-rule="evenodd" clip-rule="evenodd" d="M511.919 531.571L510.195 550.082C509.369 558.952 502.775 566.206 494.023 567.873L429.249 580.21C423.357 581.332 417.272 579.75 412.672 575.901C408.072 572.051 405.443 566.341 405.509 560.344L410.656 92.0959C410.778 81.0614 419.814 72.2097 430.85 72.3174L661.112 74.5574C666.467 74.6096 671.578 76.8076 675.3 80.6591C679.022 84.5098 681.043 89.6934 680.912 95.0479L669.616 554.766C669.472 560.612 666.777 566.102 662.241 569.791C657.704 573.481 651.78 575 646.027 573.949L578.696 561.648C568.894 559.857 561.905 551.122 562.307 541.166L562.702 531.42L511.919 531.571ZM493.691 511.626L583.529 511.358L582.291 541.974L649.622 554.275L660.918 94.5565L430.656 92.3164L425.508 560.563L490.281 548.227L493.691 511.626ZM497.678 148.955L583.654 153.775L585.769 450.762L494.357 451.036L497.678 148.955ZM517.447 170.095L514.579 430.975L565.627 430.823L563.788 172.693L517.447 170.095Z" fill="#BABABA"/>
<path fill-rule="evenodd" clip-rule="evenodd" d="M214.93 397.794L123.123 468.185L47.8535 441.999C119.326 405.695 172.852 361.455 216.041 312.644L95.9329 313.366L54.7868 250.39L217.07 252.062L217.782 203.575C185.287 212.043 96.0738 228.382 96.0738 228.382L55.4435 176.681C169.596 155.474 293.04 121.963 397.062 75.6914L400.914 140.402C400.914 140.402 324.644 171.289 285.72 183.808L284.708 252.683L399.875 255.54L379.637 315.852L286.94 313.295C311.885 356.294 348.835 383.778 391.699 403.621L333.667 439.139L282.446 406.824C275.109 473.04 280.484 532.905 297.078 587.165L215.187 539.759L214.93 397.794Z" fill="black"/>
<path fill-rule="evenodd" clip-rule="evenodd" d="M72.3561 230.57L39.7188 189.039C35.3945 183.537 34.2614 176.174 36.7294 169.626C39.1984 163.077 44.9104 158.296 51.7911 157.018C164.441 136.09 286.28 103.08 388.934 57.4181C394.928 54.7514 401.849 55.194 407.455 58.6038C413.06 62.0127 416.637 67.9536 417.027 74.503L420.879 139.212C421.389 147.78 416.376 155.718 408.422 158.939C408.422 158.939 346.733 183.905 305.51 198.25L304.997 233.181L400.371 235.546C406.717 235.704 412.613 238.864 416.255 244.064C419.898 249.263 420.856 255.883 418.837 261.902L398.598 322.214C395.8 330.555 387.88 336.087 379.087 335.844L327.138 334.411C347.48 356.574 372.503 372.694 400.101 385.471C406.794 388.57 411.239 395.102 411.666 402.465C412.091 409.829 408.43 416.829 402.139 420.679L344.108 456.198C337.616 460.17 329.433 460.115 322.995 456.054L299.758 441.393C297.387 491.96 303.1 538.47 316.204 581.316C318.608 589.178 315.956 597.71 309.52 602.823C303.083 607.938 294.172 608.593 287.058 604.474L205.168 557.068C199.002 553.498 195.201 546.919 195.188 539.795L195.003 438.274L135.293 484.056C129.951 488.152 122.909 489.286 116.552 487.075L41.2821 460.889C33.709 458.254 28.4414 451.351 27.8993 443.35C27.3582 435.35 31.6469 427.8 38.7963 424.168C90.9718 397.665 133.241 366.788 168.773 332.928L96.0534 333.365C89.2582 333.406 82.9064 329.994 79.1899 324.306L38.0438 261.329C34.0069 255.151 33.7006 247.252 37.2462 240.78C40.7917 234.308 47.6132 230.315 54.9928 230.39L72.3561 230.57ZM183.739 231.718L197.364 231.858L197.408 228.829C193.033 229.773 188.443 230.742 183.739 231.718ZM214.931 397.794L215.187 539.759L297.078 587.165C280.484 532.905 275.109 473.04 282.446 406.824L333.667 439.139L391.699 403.621C348.836 383.778 311.885 356.293 286.94 313.295L379.637 315.852L399.875 255.539L284.708 252.683L285.72 183.808C324.644 171.289 400.914 140.401 400.914 140.401L397.062 75.6912C293.04 121.963 169.596 155.474 55.4437 176.681L96.0741 228.382C96.0741 228.382 185.287 212.043 217.782 203.574L217.07 252.062L54.7871 250.389L95.9332 313.366L216.041 312.644C172.853 361.455 119.326 405.694 47.8537 441.999L123.123 468.185L214.931 397.794Z" fill="#BABABA"/>
</g>
<defs>
<clipPath id="clip0_910_876">
<rect width="2160" height="2700" fill="white"/>
</clipPath>
</defs>
</svg>
