<svg width="2160" height="2700" viewBox="0 0 2160 2700" fill="none" xmlns="http://www.w3.org/2000/svg">
<path fill-rule="evenodd" clip-rule="evenodd" d="M970.894 1611.36L959.208 1617.88L849.119 1425.82L755.029 1380.4L775.309 1446.81C776.234 1449.95 775.791 1453.35 774.089 1456.16C772.388 1458.97 769.585 1460.93 766.364 1461.57C766.364 1461.57 654.217 1488.02 651.263 1485.15C651.263 1485.15 640.089 1432.22 633.325 1381.02C629.2 1349.8 637.732 1314.88 675.983 1282.86C728.587 1238.83 798.912 1193.34 848.786 1155.95C868.353 1141.27 884.626 1127.97 894.927 1116.58C899.106 1111.96 902.97 1104.89 902.97 1104.89C902.97 1104.89 902.89 1105.38 902.9 1105.61C902.9 1105.61 1009.34 1071.13 1004.68 1082.05C985.819 1126.33 757.354 1255.43 694.603 1305.62C665.539 1328.87 657.796 1354.4 660.354 1377.75C664.031 1411.33 686.708 1440.08 696.291 1450.89L749.353 1440.95C749.353 1440.95 716.101 1334.29 722.48 1328.82C736.966 1316.39 859.765 1410.55 859.765 1410.55C861.426 1411.37 862.798 1412.68 863.702 1414.3L970.894 1611.36Z" fill="white" stroke="black" stroke-width="7.00176" stroke-miterlimit="2" stroke-linejoin="round"/>
<path fill-rule="evenodd" clip-rule="evenodd" d="M1032.68 1613.66L1025.61 1602.29C1025.61 1602.29 1200.75 1490.94 1214.1 1482.45C1218.97 1477.85 1250.52 1448.92 1287.84 1436.96C1307.72 1430.59 1358.04 1426.73 1378.24 1434.9C1392.97 1440.86 1416.01 1453.96 1410.27 1471.6C1401.36 1498.95 1317.72 1542.1 1301.22 1560.04L1343.5 1595.04C1357.04 1590.29 1391.2 1576.08 1410.88 1548.24C1424.55 1528.9 1430.26 1502.59 1416 1467.87C1401.22 1431.92 1363.51 1388.94 1325.42 1344.11C1288.16 1300.24 1250.51 1254.74 1230.42 1212.65C1214.68 1179.67 1209.76 1148.29 1220.03 1120.57C1226.66 1102.64 1239.73 1085.97 1261.42 1071.33L1281.39 1101.54C1266.87 1110.94 1257.52 1121.34 1252.92 1133.1C1245.26 1152.65 1250.21 1174.8 1260.95 1198.43C1282.83 1246.55 1328.81 1299.35 1369.1 1349C1400.99 1388.29 1429.43 1425.76 1441.81 1457.55C1459.79 1503.74 1450.48 1538.23 1431.95 1563.44C1401.47 1604.9 1344.06 1620.22 1344.06 1620.22C1340.23 1621.27 1336.13 1620.36 1333.11 1617.8L1277.25 1569.79C1274.81 1567.73 1273.35 1564.73 1273.22 1561.54C1273.09 1558.35 1274.3 1555.25 1276.56 1553C1276.56 1553 1310 1520.39 1330.22 1490.17C1336.71 1480.48 1341.93 1471.17 1343.55 1463.43C1344.25 1460.11 1344.59 1457.14 1341.6 1455.86C1325.92 1449.18 1309.14 1450.52 1293.51 1455.22C1256.63 1466.28 1225.65 1495.7 1225.65 1495.7C1225.2 1496.13 1224.71 1496.51 1224.19 1496.84L1032.68 1613.66Z" fill="white" stroke="black" stroke-width="7.00177" stroke-miterlimit="2" stroke-linejoin="round"/>
<path fill-rule="evenodd" clip-rule="evenodd" d="M1121.64 1457.03C1177.44 1415.53 1239.02 1371.6 1294.63 1336.11C1348.18 1301.94 1396.36 1275.61 1428.9 1266.21C1449.98 1260.12 1465.76 1261.53 1474.6 1268.58C1488.5 1279.67 1495.63 1298.27 1496.06 1322.74C1496.61 1354.06 1486.4 1395.85 1469.92 1441.71C1414.82 1595.03 1290.35 1795.67 1290.35 1795.67L1276.86 1787.4C1276.86 1787.4 1398.2 1587.49 1451.23 1435.1C1466.27 1391.87 1475.85 1352.62 1475.04 1323.22C1474.57 1306.34 1470.9 1293.04 1461.23 1285.48C1456.14 1281.5 1447.13 1283.63 1435.09 1287.24C1404.02 1296.55 1358.28 1322.55 1307.34 1355.8C1257.43 1388.36 1202.69 1427.92 1151.82 1466.24C1178.68 1474.85 1203.78 1484.14 1223.6 1493.71C1246.02 1504.54 1262.14 1516.4 1269.33 1527.48C1277.7 1540.39 1278.02 1553.23 1268.92 1565.8C1264.45 1571.97 1256.98 1577.4 1246.21 1580.95C1229.79 1586.37 1203.54 1588.06 1171.77 1586.8C1127.43 1585.03 1071.47 1577.9 1017.89 1570.59C983.892 1597.9 962.556 1615.65 962.556 1615.65C960.014 1617.74 956.818 1618.87 953.536 1618.82C953.536 1618.82 905 1618.32 866.092 1598.31C846.58 1588.27 829.595 1573.42 820.651 1552.33C818.415 1547.05 818.679 1542.36 820.158 1538.27C821.78 1533.79 825.351 1529.35 832.131 1526.51C839.107 1523.58 853.316 1522.27 872.774 1523.17C906.581 1524.74 959.027 1531.85 1014.44 1538.87C1035.16 1522.68 1059.45 1503.9 1085.84 1483.91C1014.81 1465.37 947.987 1453.08 947.987 1453.08C945.982 1452.7 944.056 1451.99 942.28 1450.98C942.28 1450.98 900.817 1427.43 860.262 1434.4C838.549 1438.13 817.689 1451.88 804.249 1484.09C787.423 1524.4 834.07 1591.32 831.51 1641.12C829.376 1682.69 825.109 1721.38 811.463 1749.07C802.568 1767.12 789.849 1780.99 772.284 1789.67C753.495 1798.95 728.381 1802.26 694.478 1795.67L702.852 1753.71C741.734 1761.67 763.012 1752.53 774.171 1730.45C788.817 1701.49 787.681 1672.2 790.144 1627.66C792.738 1580.73 709.782 1511.59 725.72 1474.47C746.304 1426.51 815.466 1411.53 847.995 1406.28C893.592 1398.92 945.614 1423.71 957.421 1429.78C972.833 1432.87 1048.99 1435.85 1121.64 1457.03ZM1051.87 1543.51C1098.36 1549.09 1144.49 1553.74 1181.28 1554.26C1201.57 1554.54 1218.79 1553.61 1231.15 1550.54C1235.7 1549.41 1239.47 1548.72 1241.32 1546.57C1240.94 1545.97 1240.33 1545.05 1239.82 1544.46C1237.55 1541.83 1234.36 1539.29 1230.55 1536.68C1212.22 1524.16 1181.18 1512.24 1146.54 1501.27C1137.01 1498.25 1127.21 1495.32 1117.3 1492.49C1093.79 1510.54 1071.65 1527.85 1051.87 1543.51ZM980.681 1565.47C932.965 1558.9 890.088 1553.21 863.043 1552.46C860.19 1552.38 857.106 1552.47 854.26 1552.62C860.792 1561.28 869.73 1567.81 879.333 1572.88C905.602 1586.72 937.181 1590.01 949.063 1590.77C954.647 1586.26 965.619 1577.42 980.681 1565.47Z" fill="white" stroke="black" stroke-width="7.00176" stroke-miterlimit="2" stroke-linejoin="round"/>
<path fill-rule="evenodd" clip-rule="evenodd" d="M1438.16 1763.49C1437.67 1761.74 1446.1 1706.6 1414.52 1686.14C1385.5 1667.34 1316.31 1683.26 1315.21 1679.24C1301.05 1627.5 1293.02 1499.26 1259.92 1433.61C1249.3 1412.57 1209.05 1392.37 1200.43 1390.46C1200.43 1390.46 1003.39 1342.59 944.413 1420.65C887.887 1495.47 842.743 1636.03 825.029 1701.14C822.193 1711.56 767.887 1681.75 732.454 1687.33C698.198 1692.72 682.728 1733.68 682.906 1734.22C689.518 1772.62 706.456 1824.25 738.579 1857.66C750.308 1869.86 764.158 1895.92 778.158 1907.04C794.118 1919.71 816.06 1902.71 834.128 1913.68C845.516 1920.61 814.065 1943.05 826.001 1949.2C851.399 1962.25 911.085 1967.83 937.37 1976.77C962.692 1985.4 1037.86 2036.53 1062.04 2040.62C1090.98 2045.51 1078.33 1992 1102.58 1989.28C1131.63 1986.02 1233.55 2003.19 1270.5 1987.86C1296.09 1977.24 1255.99 1936.59 1281.27 1922.22C1299.96 1911.6 1340.06 1935.25 1356.97 1923.35C1370.87 1913.59 1362 1868.42 1373.87 1858.2C1411.41 1825.9 1436.85 1792.34 1438.16 1763.49Z" fill="white" stroke="black" stroke-width="6.80641" stroke-miterlimit="1.5" stroke-linecap="round" stroke-linejoin="round"/>
<path fill-rule="evenodd" clip-rule="evenodd" d="M917.043 1667.96C963.594 1670.08 1137.16 1562.24 1137.16 1562.24L982.895 1673.6L1196.36 1641.94C1196.36 1641.94 929.071 1674.43 968.737 1679.63C1008.4 1684.84 1242.94 1679.35 1242.94 1679.35L1248.45 1695.68L919.986 1694.61L899.67 1677.91L881.105 1696.01L1007.23 1761.55L1216.9 1734.59L1021.73 1719.09C1021.73 1719.09 870.493 1665.82 917.043 1667.96Z" fill="black" fill-opacity="0.3" stroke="black" stroke-width="5.07374" stroke-miterlimit="1.5" stroke-linejoin="round"/>
<path fill-rule="evenodd" clip-rule="evenodd" d="M924.177 1420.58L828.155 1627.9L741.397 1619.02C741.397 1619.02 744.423 1604.11 741.923 1597.32C738.284 1587.44 719.56 1559.71 719.56 1559.71L714.54 1536C714.54 1536 716.713 1528.16 724.028 1522.54C735.241 1513.93 752.709 1505.37 747.41 1497.88C745.22 1494.78 708.711 1509.45 708.711 1509.45L692.857 1528.26C692.857 1528.26 696.977 1489.82 696 1480.09C695.548 1475.58 688.063 1470.09 688.063 1470.09C688.965 1462.26 683.95 1456.7 677.293 1452.72L659.62 1495.55L641.538 1504.14L633.433 1538.12L651.297 1576.71L685.331 1634.68L702.973 1662.14C702.973 1662.14 827.44 1715.36 856.096 1712.32C881.032 1709.67 923.699 1646.77 923.699 1646.77C1027.91 1602.38 1075.32 1534.13 1137.82 1439.65C1074.96 1419.46 1025.89 1347.47 924.177 1420.58Z" fill="#FF050B" stroke="black" stroke-width="6.87116" stroke-miterlimit="1.5" stroke-linecap="round" stroke-linejoin="round"/>
<path fill-rule="evenodd" clip-rule="evenodd" d="M835.347 1720.28L793.967 1701.79C820.981 1675.15 824.731 1653.36 762.842 1614.81L750.272 1616.44C757.548 1594.57 791.925 1608.18 792.829 1609.81C843.947 1641.54 854.393 1683.54 835.347 1720.28Z" fill="white" stroke="black" stroke-width="7.00176" stroke-miterlimit="2" stroke-linejoin="round"/>
<path fill-rule="evenodd" clip-rule="evenodd" d="M1387.62 1371.02C1396.4 1358.1 1076.75 1129.43 1076.75 1129.43C1076.75 1129.43 770.283 1360.38 773.011 1368.84C915.81 1395.73 1188.3 1400.95 1387.62 1371.02Z" fill="#0DF228" stroke="black" stroke-width="6.80641" stroke-miterlimit="1.5" stroke-linecap="round" stroke-linejoin="round"/>
<path fill-rule="evenodd" clip-rule="evenodd" d="M994.759 1404.22C994.759 1404.22 1040.75 1529.54 1088.39 1534.29C1118.71 1537.31 1181.83 1403.22 1181.83 1403.22L994.759 1404.22Z" fill="black" fill-opacity="0.3"/>
<path d="M969.783 1533.79L923.823 1647.45" stroke="black" stroke-width="5.07374" stroke-miterlimit="1.5" stroke-linejoin="round"/>
<path fill-rule="evenodd" clip-rule="evenodd" d="M966.696 1546.42C966.696 1546.42 964.114 1578.4 968.212 1588.62C971.929 1597.9 991.279 1607.76 991.279 1607.76L967.537 1624.05L924.527 1643.12C907.01 1673.26 888.611 1707.23 865.737 1722.08C832.182 1723.84 769.187 1718.6 742.691 1706.49C727.859 1699.71 736.19 1688.35 739.104 1680.74C742.99 1670.6 709.331 1668.67 703.741 1659.53L636.036 1539.15L642.418 1509.02L657.486 1495.8L681.031 1454.12L690.162 1471.02L677.528 1534.48L714.944 1647.43L865.796 1695.29L966.696 1546.42Z" fill="black" fill-opacity="0.4"/>
<path d="M659.62 1495.56L651.784 1536.1" stroke="black" stroke-width="5.07374" stroke-miterlimit="1.5" stroke-linejoin="round"/>
<path d="M686.08 1468.24L672.101 1497.77L666.558 1535.71" stroke="black" stroke-width="5.07374" stroke-miterlimit="1.5" stroke-linejoin="round"/>
<path fill-rule="evenodd" clip-rule="evenodd" d="M984.681 1392.98C964.052 1400.24 944.265 1409.72 925.924 1423.04L830.123 1628.74C830.123 1628.74 731.922 1623.28 739.009 1629.11C746.095 1634.94 848.62 1642.26 848.62 1642.26C878.653 1590.47 911.134 1540.16 931.285 1477.19C942.857 1473.59 957.475 1467.99 964.771 1457.22L1030.67 1482.2L993.304 1426.16L1006.18 1416.92L984.681 1392.98Z" fill="#E5F20D" fill-opacity="0.5"/>
<path fill-rule="evenodd" clip-rule="evenodd" d="M1192.07 1393.59C1192.07 1393.59 1158.47 1426.44 1163.41 1427.4C1165.85 1427.88 1161.35 1544.39 1161.35 1544.39L1219.04 1442.38L1230.65 1427.34L1244.98 1459.87L1286.14 1544.81C1269.09 1471.49 1267.57 1409.26 1192.07 1393.59Z" fill="#E5F20D" fill-opacity="0.5"/>
<path fill-rule="evenodd" clip-rule="evenodd" d="M917.418 1425.33C830.411 1383.69 752.792 1450.19 754.043 1455.07C758.804 1473.68 804.705 1580.29 808.163 1566.9C808.163 1566.9 782.879 1503.87 788.578 1481.04C794.286 1458.21 815.85 1434.19 838.546 1425.3C861.243 1416.42 917.418 1425.33 917.418 1425.33Z" fill="#E5F20D" fill-opacity="0.5"/>
<path fill-rule="evenodd" clip-rule="evenodd" d="M1282.93 1445.56C1355.52 1422.8 1386.03 1448.17 1384.99 1450.84C1381.02 1461.02 1336.2 1514.97 1333.32 1507.65C1333.32 1507.65 1364.1 1452.54 1345.16 1447.68C1326.23 1442.83 1282.93 1445.56 1282.93 1445.56Z" fill="#E5F20D" fill-opacity="0.5"/>
<path fill-rule="evenodd" clip-rule="evenodd" d="M1102.97 1870.5L1178.69 1815.22L1219.5 1774.49C1219.5 1774.49 1263.97 1807.92 1270.92 1823.78C1277.59 1839.04 1268.13 1873.66 1268.13 1873.66L1114.85 1921.85L1037.69 1917.44L1102.97 1870.5Z" fill="#FF050B" stroke="black" stroke-width="8.45623" stroke-miterlimit="1.5" stroke-linecap="round" stroke-linejoin="round"/>
<path fill-rule="evenodd" clip-rule="evenodd" d="M1007.64 1804.6L908.251 1772.03L860.074 1760.55L833.858 1818.36L853.596 1864.25L1013.74 1865.31L1085.07 1826.28L1007.64 1804.6Z" fill="#FF050B" stroke="black" stroke-width="8.45623" stroke-miterlimit="1.5" stroke-linecap="round" stroke-linejoin="round"/>
<path fill-rule="evenodd" clip-rule="evenodd" d="M839.666 1805.55C903.881 1832.34 972.543 1844.31 1044.99 1843.68L1016.35 1862.42L857.667 1867.81L833.629 1820.89L839.666 1805.55Z" fill="black" fill-opacity="0.3"/>
<path fill-rule="evenodd" clip-rule="evenodd" d="M1048.92 1920.26C1138.08 1890.36 1213.01 1857.18 1264.37 1818.54C1276.45 1828.65 1277.26 1845.78 1266.03 1870.39L1114.66 1922.29L1048.92 1920.26Z" fill="black" fill-opacity="0.3"/>
<path fill-rule="evenodd" clip-rule="evenodd" d="M1230.27 1436.95L1297.04 1618.68L1380.05 1617.57L1400.27 1563.8L1402.39 1525.48C1402.39 1525.48 1377.71 1503.21 1381.24 1497.6C1383.05 1494.72 1412.79 1507.95 1412.79 1507.95L1428.19 1537.02L1426.04 1504.59C1426.04 1504.59 1399.16 1467.34 1400.83 1462.66C1402.5 1457.98 1433.05 1471.49 1433.05 1471.49L1461.68 1500.48L1493.05 1517.09L1475.1 1554.06C1475.1 1554.06 1447.26 1644.36 1427.49 1655.34C1399.25 1671.04 1276.8 1731.32 1250.07 1694.65C1222.88 1657.37 1218.21 1455.1 1218.21 1455.1L1230.27 1436.95Z" fill="#FF050B" stroke="black" stroke-width="6.87115" stroke-miterlimit="1.5" stroke-linecap="round" stroke-linejoin="round"/>
<path fill-rule="evenodd" clip-rule="evenodd" d="M1259.84 1718.33L1313.04 1707.39C1286.03 1680.75 1271.82 1650.96 1333.71 1612.41L1346.28 1614.04C1339 1592.17 1304.63 1605.78 1303.72 1607.41C1252.61 1639.14 1240.79 1681.59 1259.84 1718.33Z" fill="white" stroke="black" stroke-width="7.00176" stroke-miterlimit="2" stroke-linejoin="round"/>
<path fill-rule="evenodd" clip-rule="evenodd" d="M1314.46 1731.81L1354.3 1696.41C1321.71 1677.01 1305.7 1652.42 1356.57 1600.19L1369.17 1598.77C1356.88 1579.28 1326.75 1600.72 1326.26 1602.51C1284.21 1645.54 1287.18 1700.68 1314.46 1731.81Z" fill="white" stroke="black" stroke-width="7.00176" stroke-miterlimit="2" stroke-linejoin="round"/>
<path d="M1461.68 1500.48L1468.54 1525.25" stroke="black" stroke-width="5.07374" stroke-miterlimit="1.5" stroke-linejoin="round"/>
<path d="M1433.41 1472.44L1448.65 1503.45L1453.04 1544.66" stroke="black" stroke-width="5.07374" stroke-miterlimit="1.5" stroke-linejoin="round"/>
<path fill-rule="evenodd" clip-rule="evenodd" d="M1228.3 1453.84C1235 1468.57 1291.37 1617.18 1291.37 1617.18L1382 1624.85C1382 1624.85 1397.88 1589.72 1396.03 1598.03C1394.19 1606.34 1381.83 1642.42 1381.83 1642.42L1275.87 1649.16C1275.87 1649.16 1221.61 1439.09 1228.3 1453.84Z" fill="#E5F20D" fill-opacity="0.5"/>
<path fill-rule="evenodd" clip-rule="evenodd" d="M1084.35 1466.2C1125.25 1468.37 1192.14 1404.32 1193.99 1369.42C1197.39 1305.21 1164.4 1237.1 1096.68 1233.51C1028.97 1229.92 982.446 1299.32 979.042 1363.53C977.192 1398.44 1043.45 1464.03 1084.35 1466.2Z" fill="#FF050B"/>
<path fill-rule="evenodd" clip-rule="evenodd" d="M1084.25 1468.05C1063.92 1467.44 1037.11 1451.78 1015.05 1431.63C1000.14 1418.02 987.465 1402.36 980.281 1388.04C975.796 1379.09 973.514 1370.57 973.762 1363.25C974.962 1330.36 986.999 1295.95 1007.44 1269.93C1029.16 1242.28 1060.26 1224.25 1097.08 1225.93C1134.13 1228.2 1161.57 1248.12 1178.7 1276.55C1194.67 1303.06 1201.56 1336.95 1199.28 1369.7C1197.9 1388.34 1179.17 1414.93 1154.9 1435.69C1132.09 1455.18 1104.76 1469.62 1084.25 1468.05ZM1084.45 1464.35C1104.01 1464.92 1129.15 1449.69 1149.99 1430.2C1171.2 1410.37 1188.15 1386.12 1188.69 1369.14C1189.8 1338.85 1182.43 1307.85 1167.08 1283.74C1151.75 1259.64 1128.19 1242.52 1096.28 1241.09C1064.36 1239.17 1037.58 1255.04 1018.17 1278.57C998.71 1302.17 986.438 1333.46 984.326 1363.81C983.774 1371.44 986.948 1380.7 992.342 1390.48C998.911 1402.42 1008.76 1415.01 1020.1 1426.34C1040.29 1446.53 1065.07 1462.87 1084.45 1464.35Z" fill="black"/>
<path fill-rule="evenodd" clip-rule="evenodd" d="M1077.76 1386.46L1092.29 1400.54L1096.17 1406.56L1141.58 1415.06L1175.47 1393.01L1188.76 1360.08C1188.76 1360.08 988.035 1346.97 985.848 1360.63C983.113 1377.72 1019.72 1427.93 1023.11 1425.87L1060.24 1406.35L1061.95 1390.23L1077.76 1386.46Z" fill="#E5F20D" fill-opacity="0.5"/>
<path fill-rule="evenodd" clip-rule="evenodd" d="M1058.7 1428.75C1058.22 1428.84 1057.75 1428.52 1057.65 1428.04C1057.56 1427.55 1057.88 1427.08 1058.36 1426.99C1058.36 1426.99 1065.46 1424.49 1074.16 1421.94C1077.6 1420.93 1081.24 1419.91 1084.8 1419.1C1087.3 1418.53 1089.75 1418.08 1091.99 1417.75C1098.29 1416.8 1102.94 1416.51 1102.94 1416.51C1103.2 1416.46 1103.48 1416.45 1103.75 1416.48L1118.5 1419.92C1118.99 1419.98 1119.34 1420.42 1119.29 1420.91C1119.23 1421.4 1118.79 1421.76 1118.3 1421.7C1118.3 1421.7 1103.89 1421.84 1103.89 1421.84C1103.28 1422.04 1099.08 1423.4 1093.35 1424.76C1091.14 1425.29 1088.71 1425.78 1086.17 1426.19C1082.57 1426.77 1078.81 1427.18 1075.25 1427.53C1066.22 1428.42 1058.7 1428.75 1058.7 1428.75Z" fill="black"/>
<path fill-rule="evenodd" clip-rule="evenodd" d="M1077.71 1386.3C1077.71 1386.3 1080.41 1388.9 1083.1 1391.67C1085.75 1394.4 1088.26 1397.18 1088.26 1397.18C1089.08 1398.34 1089.05 1399.89 1088.18 1401.01C1087.31 1402.12 1085.81 1402.54 1084.49 1402.02C1084.49 1402.02 1082.97 1401.67 1080.83 1400.98C1079.75 1400.64 1078.51 1400.22 1077.26 1399.71C1075.49 1398.99 1073.69 1398.13 1072.08 1397.33C1069.19 1395.9 1067.03 1394.64 1067.03 1394.64C1066.09 1394.27 1065.44 1393.4 1065.35 1392.39C1065.27 1391.39 1065.77 1390.42 1066.64 1389.9L1076.53 1386.05C1076.93 1385.81 1077.45 1385.92 1077.71 1386.3ZM1078.67 1392.43C1077.84 1390.72 1077.11 1389.17 1076.67 1388.24C1076.67 1388.24 1073.56 1390.87 1073.56 1390.87C1073.86 1390.96 1074.17 1391.04 1074.49 1391.13C1075.82 1391.52 1077.26 1391.95 1078.67 1392.43Z" fill="black"/>
<path fill-rule="evenodd" clip-rule="evenodd" d="M1074.55 1345.45C1074.83 1345.04 1075.38 1344.93 1075.79 1345.21C1076.2 1345.49 1076.31 1346.05 1076.03 1346.46C1074.25 1349.58 1072.05 1352.38 1069.78 1353.72C1067.3 1355.19 1064.73 1355.04 1062.18 1352.63C1056.9 1347.51 1051.13 1343.13 1045.35 1339.14C1041.31 1336.35 1037.25 1333.83 1033.28 1331.53C1031.17 1330.31 1029.11 1329.13 1027.08 1328.03C1021.75 1325.14 1016.69 1322.79 1012.03 1321.2C1006.29 1319.24 1001.33 1318.27 997.565 1318.76C994.082 1319.21 991.73 1320.81 991.188 1323.97C991.142 1324.46 990.705 1324.82 990.212 1324.78C989.721 1324.73 989.358 1324.29 989.405 1323.8C989.53 1317.47 995.331 1314.43 1004.4 1314.69C1009.48 1314.83 1015.6 1316.06 1022.24 1318.39C1026.09 1319.74 1030.11 1321.46 1034.15 1323.6C1036.63 1324.92 1039.11 1326.41 1041.56 1328.06C1045.89 1330.98 1050.15 1334.34 1054.21 1338.1C1058.1 1341.7 1061.73 1345.66 1065.15 1349.9C1066.11 1351.1 1067.2 1351.35 1068.36 1350.87C1070.46 1350.02 1072.63 1347.86 1074.55 1345.45Z" fill="black"/>
<path fill-rule="evenodd" clip-rule="evenodd" d="M1085.4 1342.12C1085.08 1341.74 1085.13 1341.18 1085.51 1340.86C1085.89 1340.54 1086.45 1340.59 1086.77 1340.96C1088.17 1342.37 1090.38 1344.29 1092.62 1345.66C1093.66 1346.3 1094.71 1346.77 1095.66 1346.98C1096.22 1347.1 1096.72 1347.03 1097.04 1346.56C1100.02 1342.34 1103.03 1338.33 1106.19 1334.61C1109.6 1330.61 1113.09 1326.94 1116.61 1323.66C1118.65 1321.76 1120.71 1320 1122.77 1318.4C1126.21 1315.73 1129.61 1313.47 1132.87 1311.56C1138.79 1308.1 1144.19 1305.84 1148.69 1304.82C1153.44 1303.74 1157.21 1303.98 1159.65 1305.61C1161.64 1306.94 1162.92 1309.07 1162.96 1312.28C1163 1312.77 1162.64 1313.21 1162.15 1313.25C1161.66 1313.3 1161.22 1312.94 1161.17 1312.44C1160.47 1308.42 1157.66 1307.13 1153.54 1307.9C1150.55 1308.46 1147.01 1310.1 1142.98 1312.49C1138.82 1314.96 1134.32 1318.35 1129.44 1322.34C1126.68 1324.58 1123.81 1327.01 1120.85 1329.6C1117.44 1332.56 1113.91 1335.71 1110.37 1339.11C1107.03 1342.31 1103.63 1345.62 1100.32 1349.21C1098.56 1351.1 1096.24 1351.39 1093.72 1350.1C1090.62 1348.52 1087.19 1344.63 1085.4 1342.12Z" fill="black"/>
<path fill-rule="evenodd" clip-rule="evenodd" d="M1096.3 1355.5L1120.33 1363.38C1120.33 1363.38 1153.09 1362.88 1156.68 1355.18C1160.27 1347.48 1157.52 1345.78 1157.52 1345.78L1096.3 1355.5Z" fill="white"/>
<path fill-rule="evenodd" clip-rule="evenodd" d="M1095.4 1349.8C1095.4 1349.8 1112.57 1339.35 1130.14 1331.47C1142.66 1325.86 1153.84 1322.61 1153.84 1322.61C1159.39 1321.73 1165.08 1322.87 1169.86 1325.83C1169.86 1325.83 1178.62 1329.03 1181.57 1343.08C1182.38 1346.97 1183.28 1354.03 1177.93 1365.1C1174.45 1370.64 1168.9 1378.6 1157.98 1380.59C1153.1 1381.48 1147.33 1382.51 1141.34 1381.91C1130.32 1380.8 1120.56 1378.19 1120.56 1378.19C1118.92 1378.21 1117.28 1377.96 1115.72 1377.45L1094.51 1360.98C1091.98 1360.15 1090.34 1357.69 1090.55 1355.04C1090.77 1352.38 1092.77 1350.22 1095.4 1349.8ZM1135.14 1345.97C1140.7 1344.36 1145.18 1341.87 1143.03 1338.14C1140.74 1334.18 1136.26 1342.7 1135.43 1345.26C1135.32 1345.5 1135.22 1345.74 1135.14 1345.97Z" fill="#FFD635" fill-opacity="0.62"/>
<path fill-rule="evenodd" clip-rule="evenodd" d="M1063.62 1355.27C1060.44 1358.67 1056.42 1359.28 1040.51 1360.63C1040.51 1360.63 1007.8 1361.95 1004.3 1354.24C1000.8 1346.54 1003.58 1344.84 1003.58 1344.84L1063.62 1355.27Z" fill="white"/>
<path fill-rule="evenodd" clip-rule="evenodd" d="M1067.83 1359.22C1066.39 1362.76 1063.86 1363.89 1059.29 1366.94C1055.76 1369.3 1051 1370.96 1041.74 1375.18C1041.53 1375.2 1041.31 1375.21 1041.09 1375.22C1041.09 1375.22 1031.57 1378.41 1020.69 1380.16C1014.7 1381.12 1008.87 1380.34 1003.95 1379.69C992.44 1378.16 986.618 1369.8 982.975 1363.92C977.673 1352.79 978.705 1345.7 979.565 1341.8C982.617 1327.96 991.32 1324.82 991.32 1324.82C996.189 1321.84 1001.97 1320.73 1007.6 1321.71C1007.6 1321.71 1018.54 1325.08 1030.76 1330.84C1047.95 1338.95 1064.61 1349.59 1064.61 1349.59C1066.7 1349.95 1068.42 1351.43 1069.09 1353.44C1069.77 1355.45 1069.28 1357.67 1067.83 1359.22ZM1025.48 1344.16C1024.37 1341.48 1021.84 1339.41 1019 1337.02C1018.56 1336.65 1017.4 1336.08 1017.03 1336.75C1014.96 1340.54 1019.75 1342.81 1025.48 1344.16Z" fill="#FFD635" fill-opacity="0.62"/>
<path fill-rule="evenodd" clip-rule="evenodd" d="M1130.3 1386.52L1129.47 1386.45L1129.6 1384.79L1130.43 1384.86C1130.43 1384.86 1137 1384.83 1145.41 1385.11C1148.57 1385.21 1151.98 1385.33 1155.38 1385.6C1158.78 1385.87 1162.16 1386.28 1165.3 1386.67C1173.64 1387.7 1180.14 1388.74 1180.14 1388.74L1180.97 1388.81L1180.84 1390.47L1180.01 1390.4C1180.01 1390.4 1173.43 1390.43 1165.02 1390.15C1161.87 1390.04 1158.46 1389.93 1155.06 1389.66C1151.66 1389.4 1148.27 1388.99 1145.14 1388.6C1136.79 1387.57 1130.3 1386.52 1130.3 1386.52Z" fill="black"/>
<path fill-rule="evenodd" clip-rule="evenodd" d="M1129.32 1397.38L1128.51 1397.2L1128.87 1395.57L1129.68 1395.76C1129.68 1395.76 1135.7 1396.56 1143.34 1397.9C1146.21 1398.4 1149.3 1398.95 1152.38 1399.65C1155.45 1400.34 1158.48 1401.18 1161.28 1401.96C1168.76 1404.03 1174.54 1405.89 1174.54 1405.89L1175.35 1406.07L1174.98 1407.69L1174.17 1407.51C1174.17 1407.51 1168.16 1406.7 1160.51 1405.36C1157.64 1404.86 1154.55 1404.31 1151.48 1403.62C1148.41 1402.93 1145.38 1402.1 1142.57 1401.32C1135.09 1399.24 1129.32 1397.38 1129.32 1397.38Z" fill="black"/>
<path fill-rule="evenodd" clip-rule="evenodd" d="M1126.95 1407.03L1126.21 1406.64L1126.99 1405.17L1127.72 1405.56C1127.72 1405.56 1131.67 1407.02 1136.63 1409.21C1138.49 1410.02 1140.48 1410.91 1142.42 1411.94C1144.36 1412.96 1146.22 1414.1 1147.94 1415.17C1152.55 1418.02 1156 1420.44 1156 1420.44L1156.73 1420.83L1155.96 1422.3L1155.22 1421.92C1155.22 1421.92 1151.27 1420.44 1146.31 1418.26C1144.46 1417.44 1142.46 1416.56 1140.52 1415.54C1138.59 1414.52 1136.72 1413.38 1135 1412.31C1130.39 1409.46 1126.95 1407.03 1126.95 1407.03Z" fill="black"/>
<path fill-rule="evenodd" clip-rule="evenodd" d="M1038.43 1379.81L1039.25 1379.71L1039.45 1381.37L1038.62 1381.46C1038.62 1381.46 1032.36 1382.75 1024.28 1384.09C1021.25 1384.59 1017.98 1385.12 1014.69 1385.51C1011.39 1385.9 1008.08 1386.14 1005.02 1386.36C996.861 1386.95 990.467 1387.16 990.467 1387.16L989.64 1387.26L989.444 1385.61L990.271 1385.51C990.271 1385.51 996.54 1384.23 1004.61 1382.89C1007.64 1382.39 1010.91 1381.86 1014.21 1381.47C1017.5 1381.07 1020.81 1380.83 1023.87 1380.61C1032.03 1380.02 1038.43 1379.81 1038.43 1379.81Z" fill="black"/>
<path fill-rule="evenodd" clip-rule="evenodd" d="M1037.44 1394.9L1038.26 1394.76L1038.54 1396.4L1037.72 1396.54C1037.72 1396.54 1033.08 1397.89 1027.05 1399.31C1024.79 1399.84 1022.35 1400.4 1019.88 1400.82C1017.41 1401.24 1014.92 1401.52 1012.61 1401.78C1006.46 1402.45 1001.63 1402.73 1001.63 1402.73L1000.81 1402.87L1000.53 1401.23L1001.35 1401.09C1001.35 1401.09 1005.99 1399.75 1012.02 1398.33C1014.28 1397.8 1016.72 1397.24 1019.19 1396.81C1021.66 1396.39 1024.15 1396.1 1026.46 1395.85C1032.62 1395.18 1037.44 1394.9 1037.44 1394.9Z" fill="black"/>
<path fill-rule="evenodd" clip-rule="evenodd" d="M1034.65 1404.84L1035.38 1404.45L1036.16 1405.92L1035.42 1406.31C1035.42 1406.31 1031.98 1408.74 1027.37 1411.59C1025.65 1412.65 1023.78 1413.8 1021.85 1414.82C1019.91 1415.83 1017.91 1416.72 1016.06 1417.54C1011.1 1419.72 1007.15 1421.2 1007.15 1421.2L1006.41 1421.58L1005.64 1420.11L1006.37 1419.72C1006.37 1419.72 1009.82 1417.3 1014.43 1414.45C1016.15 1413.38 1018.01 1412.24 1019.95 1411.21C1021.88 1410.19 1023.88 1409.3 1025.74 1408.49C1030.7 1406.3 1034.65 1404.84 1034.65 1404.84Z" fill="black"/>
<path fill-rule="evenodd" clip-rule="evenodd" d="M959.988 1308.73L1192.97 1315.36L1196.26 1245.41L969.051 1236.46L959.988 1308.73Z" fill="#1D9A6C"/>
<path fill-rule="evenodd" clip-rule="evenodd" d="M958.416 1308.53L966.714 1236.17C966.866 1234.96 967.923 1234.06 969.144 1234.11C969.144 1234.11 1042.23 1236.2 1105.52 1238.3C1153.83 1239.9 1196.42 1241.54 1196.42 1241.54C1197.45 1241.58 1198.42 1242.03 1199.12 1242.79C1199.82 1243.55 1200.19 1244.56 1200.14 1245.6L1196.63 1315.54C1196.53 1317.53 1194.86 1319.08 1192.86 1319.03C1192.86 1319.03 1149.2 1317.55 1099.69 1315.71C1034.83 1313.31 959.941 1310.32 959.941 1310.32C959.495 1310.3 959.075 1310.1 958.784 1309.76C958.494 1309.42 958.359 1308.98 958.416 1308.53ZM961.798 1307.18C973.466 1307.37 1040.82 1308.53 1099.86 1309.7C1140.97 1310.52 1178.04 1311.36 1189.46 1311.62L1192.21 1249.13C1180.66 1248.66 1144.87 1247.17 1105.24 1245.36C1048.35 1242.77 983.557 1239.55 971.092 1238.92L961.798 1307.18Z" fill="black"/>
<path fill-rule="evenodd" clip-rule="evenodd" d="M1387.24 1367.99C1400.78 1348.01 1076.75 1129.43 1076.75 1129.43C1076.75 1129.43 759.779 1343.42 773.636 1369.53C939.698 1362.67 1213.69 1362.93 1387.24 1367.99Z" fill="white" stroke="black" stroke-width="5.66459" stroke-miterlimit="1.5" stroke-linecap="round" stroke-linejoin="round"/>
</svg>
