<svg width="2160" height="2700" viewBox="0 0 2160 2700" fill="none" xmlns="http://www.w3.org/2000/svg">
<g clip-path="url(#clip0_1677_497)">
<path fill-rule="evenodd" clip-rule="evenodd" d="M82.9232 1659.48C67.6542 1607.57 66.8822 1564.07 75.2672 1526.13C92.7872 1446.87 151.189 1391.45 205.359 1333.61C210.372 1328.27 218.774 1328.01 224.111 1333.02C229.447 1338.04 229.709 1346.44 224.696 1351.77C173.547 1406.05 117.193 1457.2 100.473 1531.75C94.8102 1557 93.7972 1584.88 99.0332 1616.43C111.169 1588.38 125.7 1562.05 140.844 1538.2C141.151 1537.72 141.457 1537.24 141.764 1536.76C141.569 1510.46 153.146 1483.24 169.299 1458.48C202.687 1407.3 255.233 1366.58 255.233 1366.58C258.023 1364.41 262.049 1364.91 264.218 1367.7C266.386 1370.5 265.881 1374.52 263.09 1376.69C263.09 1376.69 212.446 1416.15 180.358 1465.67C170.84 1480.36 162.918 1495.93 158.636 1511.61C198.489 1454.94 237.694 1416.92 244.514 1410.46L333.68 1259.54L333.719 1259.48C336.44 1254.89 342.359 1253.36 346.958 1256.07C351.558 1258.77 353.106 1264.68 350.422 1269.29L350.383 1269.36L186.366 1552.03L200.703 1643.43C200.713 1643.5 200.723 1643.56 200.732 1643.63C200.732 1643.63 208.651 1701.42 218.13 1770.61C251.295 1801.75 295.858 1843.61 326.732 1872.6L536.747 1697C540.371 1693.96 545.465 1693.39 549.67 1695.56C553.874 1697.73 556.368 1702.21 555.995 1706.92L547.988 1806.32L563.288 1824.29C565.736 1827.17 565.767 1831.39 563.362 1834.31C563.362 1834.31 556.142 1843.1 543.954 1856.4L540.062 1904.71C539.926 1906.43 539.401 1908.1 538.527 1909.59C497.492 1979.33 453.705 2011.78 409.112 2024.86C352.746 2041.39 294.445 2026.34 236.834 2014.31C232.304 2013.37 228.858 2009.68 228.237 2005.09L217.285 1923.27C164.633 1886.98 117.848 1845.97 105.455 1834.91C100.617 1835.4 93.1182 1835.1 85.6422 1830.59C78.6352 1826.37 71.2432 1818.29 67.0702 1802.34C61.8682 1782.45 61.5402 1748.41 74.5222 1690.59C76.8822 1680.08 79.7072 1669.7 82.9232 1659.48ZM214.229 1900.44L203.065 1817.04L125.976 1758.02C124.545 1756.92 123.368 1755.53 122.524 1753.93C110.448 1731.18 100.715 1709.77 93.0632 1689.56C92.6612 1691.21 92.2712 1692.86 91.8932 1694.52C82.3912 1736.24 80.0362 1764.69 81.7242 1784.06C83.3752 1802.98 88.4922 1811.98 94.6412 1815.71C100.027 1818.98 105.421 1817.4 105.421 1817.4C108.392 1816.43 111.653 1817.14 113.958 1819.25C113.958 1819.25 159.327 1860.92 214.229 1900.44ZM518.84 1882.61C497.215 1904.18 469.684 1929.12 440.802 1948.79C403.683 1974.08 364.172 1990.23 331.583 1982.2C304.591 1975.55 272.614 1959.03 241.22 1939.13C244.684 1964.41 247.406 1984.27 248.809 1994.52C300.405 2005.39 352.434 2018.37 402.791 2003.43C442.601 1991.62 480.951 1961.94 517.471 1900.29L518.84 1882.61ZM546.217 1828.31L546.037 1830.55C546.405 1830.12 546.754 1829.72 547.086 1829.33C547.086 1829.33 546.764 1828.95 546.217 1828.31ZM344.588 1889.37C355.868 1899.97 362.848 1906.52 362.848 1906.52C392.283 1886.77 419.106 1868.89 443.852 1852.51C473.715 1832.74 500.554 1815.15 525.31 1799.05L530.425 1733.01L344.588 1889.37ZM221.215 1793.12C221.55 1795.57 221.886 1798.02 222.222 1800.47L258.884 1828.72L221.215 1793.12ZM201.946 1484.96C187.401 1502.91 171.54 1524.2 156.293 1548.05C156.106 1548.34 155.919 1548.63 155.732 1548.93C156.833 1570.18 158.657 1593.35 160.726 1615.81C165.568 1668.37 171.76 1717.07 173.234 1728.44C173.234 1728.44 181.168 1735.89 193.789 1747.75L180.235 1646.49L165.652 1551.6C165.293 1549.29 165.74 1546.93 166.917 1544.9L201.946 1484.96ZM105.941 1647.55C113.614 1675.42 125.829 1705.97 143.47 1739.79L198.389 1782.11L196.771 1770.02L161.779 1736.95C160.6 1735.85 159.841 1734.36 159.631 1732.76C159.631 1732.76 152.469 1677.43 147.094 1617.04C145.678 1601.13 144.386 1584.86 143.38 1569.16C129.251 1593.37 116.194 1619.73 105.941 1647.55ZM520.732 1858.17L523.806 1818.49C501.814 1832.72 478.158 1848.15 452.222 1865.2C426.078 1882.39 397.619 1901.23 366.212 1922.18C363.33 1924.11 359.497 1923.79 356.973 1921.42L333.202 1898.95L329.652 1901.94C325.272 1905.61 318.927 1905.75 314.393 1902.27L227.003 1835.36C230.929 1864.02 234.796 1892.25 238.202 1917.1C239.185 1917.76 240.169 1918.41 241.154 1919.06C273.678 1940.57 307.4 1959.17 335.553 1966.2C364.344 1973.39 398.847 1957.69 431.735 1935.44C466.01 1912.24 498.35 1881.45 520.732 1858.17Z" fill="#777777" stroke="black" stroke-width="6" stroke-miterlimit="2" stroke-linejoin="round"/>
<path fill-rule="evenodd" clip-rule="evenodd" d="M2252.39 550.806C2295.74 499.809 2369.2 473.737 2428.25 491.632C2470.67 505.226 2490.24 530.627 2497.64 558.521C2504.04 582.621 2507.2 666.36 2395.06 733.884C2333.89 770.722 2188.09 837.571 2000.94 893.346C1711.88 979.486 1325.73 1028.9 1011.9 928.375C919.547 898.792 814.768 822.999 722.703 703.131C549.984 478.237 397.366 150.478 350.921 40.126C295.868 -90.7086 310.427 -255.363 407.129 -405.521C487.038 -529.615 621.774 -645.712 821.687 -720.265C962.091 -772.627 1099.73 -796.408 1219.42 -804.3C1438.84 -818.767 1596.89 -781.49 1596.89 -781.49C1635.15 -773.091 1651.34 -736.531 1633.04 -699.899C1614.73 -663.267 1568.82 -640.348 1530.56 -648.745C1530.56 -648.745 1461.02 -534.155 1268.5 -516.367C1166.33 -506.923 788.918 -483.652 633.717 -234.2C545.115 -91.7827 709.687 282.205 856.817 482.488C946.515 604.58 1039.73 711.928 1129.66 737.615C1504.22 844.622 1993.56 675.41 2204.79 575.583C2221.32 567.773 2239.02 558.257 2252.39 550.806ZM2223.03 671.489C2229.98 697.542 2248.95 718.845 2287.84 729.967C2255.2 720.076 2232.92 698.543 2223.03 671.489Z" fill="#777777"/>
<mask id="mask0_1677_497" style="mask-type:luminance" maskUnits="userSpaceOnUse" x="319" y="-808" width="2182" height="1793">
<path d="M2252.39 550.806C2295.74 499.809 2369.2 473.737 2428.25 491.632C2470.67 505.226 2490.24 530.627 2497.64 558.521C2504.04 582.621 2507.2 666.36 2395.06 733.884C2333.89 770.722 2188.09 837.571 2000.94 893.346C1711.88 979.486 1325.73 1028.9 1011.9 928.375C919.547 898.792 814.768 822.999 722.703 703.131C549.984 478.237 397.366 150.478 350.921 40.126C295.868 -90.7086 310.427 -255.363 407.129 -405.521C487.038 -529.615 621.774 -645.712 821.687 -720.265C962.091 -772.627 1099.73 -796.408 1219.42 -804.3C1438.84 -818.767 1596.89 -781.49 1596.89 -781.49C1635.15 -773.091 1651.34 -736.531 1633.04 -699.899C1614.73 -663.267 1568.82 -640.348 1530.56 -648.745C1530.56 -648.745 1461.02 -534.155 1268.5 -516.367C1166.33 -506.923 788.918 -483.652 633.717 -234.2C545.115 -91.7827 709.687 282.205 856.817 482.488C946.515 604.58 1039.73 711.928 1129.66 737.615C1504.22 844.622 1993.56 675.41 2204.79 575.583C2221.32 567.773 2239.02 558.257 2252.39 550.806ZM2223.03 671.489C2229.98 697.542 2248.95 718.845 2287.84 729.967C2255.2 720.076 2232.92 698.543 2223.03 671.489Z" fill="white"/>
</mask>
<g mask="url(#mask0_1677_497)">
<path fill-rule="evenodd" clip-rule="evenodd" d="M417.357 -73.2675C460.198 124.721 601.846 493.647 839.634 746.094C905.243 815.746 1207.16 948.628 1535.18 944.187C1861.63 939.766 2309.68 653.136 2305.9 820.898C2270.9 846.574 1921.49 972.308 1585.57 999.038C1265 1024.55 958.502 953.052 875.6 897.787C695.639 777.82 524.545 517.966 438.332 384.608L291.684 -67.3146L417.357 -73.2675Z" fill="black" fill-opacity="0.2"/>
</g>
<path fill-rule="evenodd" clip-rule="evenodd" d="M2252.39 550.806C2295.74 499.809 2369.2 473.737 2428.25 491.632C2470.67 505.226 2490.24 530.627 2497.64 558.521C2504.04 582.621 2507.2 666.36 2395.06 733.884C2333.89 770.722 2188.09 837.571 2000.94 893.346C1711.88 979.486 1325.73 1028.9 1011.9 928.375C919.547 898.792 814.768 822.999 722.703 703.131C549.984 478.237 397.366 150.478 350.921 40.126C295.867 -90.7086 310.427 -255.363 407.128 -405.521C487.038 -529.615 621.774 -645.712 821.687 -720.265C962.091 -772.627 1099.73 -796.408 1219.42 -804.3C1438.84 -818.767 1596.89 -781.49 1596.89 -781.49C1635.15 -773.091 1651.34 -736.531 1633.04 -699.899C1614.73 -663.267 1568.82 -640.348 1530.56 -648.745C1530.56 -648.745 1461.02 -534.155 1268.5 -516.367C1166.33 -506.923 788.918 -483.652 633.717 -234.2C545.115 -91.7827 709.687 282.205 856.817 482.488C946.515 604.58 1039.73 711.928 1129.66 737.615C1504.22 844.622 1993.56 675.41 2204.79 575.583C2221.32 567.773 2239.02 558.257 2252.39 550.806ZM2223.03 671.489C2229.98 697.542 2248.95 718.845 2287.84 729.967C2255.2 720.076 2232.92 698.543 2223.03 671.489Z" stroke="black" stroke-width="17.714" stroke-miterlimit="2" stroke-linejoin="round"/>
<path fill-rule="evenodd" clip-rule="evenodd" d="M529.714 -308.078C558.475 -8.94396 682.398 274.413 847.127 529.567C847.127 529.567 712.453 335.988 672.832 254.432C607.595 120.149 541.702 -126.083 529.714 -308.078Z" fill="white"/>
<path fill-rule="evenodd" clip-rule="evenodd" d="M1105.58 771.563C1428.06 831.127 1770.64 788.465 2099.53 695.587L1749.06 792.322C1481.13 814.155 1299.66 813.45 1105.58 771.563Z" fill="white"/>
<path fill-rule="evenodd" clip-rule="evenodd" d="M800.057 400.233C800.52 400.481 803.157 401.895 804.175 405.301C804.489 406.346 804.606 407.471 804.496 408.556C804.288 410.675 804.156 410.662 803.109 412.516C769.167 472.278 669.335 534.27 605.923 541.749C603.699 542.013 603.515 542.27 601.731 540.892C601.716 540.881 599.963 537.808 599.958 537.798C600.274 536.657 600.176 535.309 600.906 534.374C602.261 532.621 602.495 532.831 604.683 532.498C664.309 523.488 758.738 460.79 788.509 403.677C790.108 400.623 793.081 399.733 793.579 399.583C796.966 398.572 799.602 399.988 800.057 400.233Z" fill="black"/>
<path fill-rule="evenodd" clip-rule="evenodd" d="M651.865 106.47C652.329 106.717 654.966 108.131 655.984 111.537C656.298 112.582 656.415 113.707 656.304 114.792C656.097 116.912 655.965 116.899 654.918 118.752C620.975 178.515 521.143 240.507 457.732 247.985C455.507 248.25 455.324 248.506 453.54 247.128C453.525 247.117 451.772 244.045 451.767 244.034C452.083 242.893 451.984 241.546 452.715 240.611C454.069 238.858 454.304 239.067 456.492 238.735C516.117 229.724 610.547 167.026 640.317 109.913C641.917 106.859 644.89 105.969 645.387 105.819C648.775 104.809 651.411 106.224 651.865 106.47Z" fill="black"/>
<path fill-rule="evenodd" clip-rule="evenodd" d="M982.68 635.136C983.132 635.387 985.761 636.832 986.749 640.238C987.059 641.286 987.172 642.414 987.048 643.497C986.807 645.682 986.646 645.658 985.55 647.563C932.418 739.767 848.502 759.574 789.046 763.414C787.166 763.532 787.072 763.518 785.652 762.304C785.643 762.293 784.029 759.142 784.02 759.131C784.395 758.003 784.362 756.65 785.13 755.746C786.666 753.939 786.951 754.27 789.304 754.033C896.876 743.349 945.638 686.434 971.097 638.488C972.717 635.443 975.705 634.577 976.206 634.432C979.61 633.447 982.227 634.886 982.68 635.136Z" fill="black"/>
<path fill-rule="evenodd" clip-rule="evenodd" d="M1480.32 756.202C1480.78 755.964 1483.44 754.574 1486.82 755.635C1487.87 755.957 1488.87 756.487 1489.7 757.189C1491.39 758.6 1491.28 758.72 1492.26 760.687C1539.67 855.962 1509.74 936.821 1480.04 988.472C1479.1 990.103 1479.03 990.174 1477.24 990.685C1477.22 990.686 1473.71 990.287 1473.69 990.289C1472.96 989.353 1471.81 988.632 1471.49 987.491C1470.83 985.212 1471.26 985.158 1472.37 983.067C1522.99 887.55 1502.56 815.44 1476.71 767.705C1475.07 764.671 1476 761.703 1476.15 761.205C1477.22 757.824 1479.86 756.441 1480.32 756.202Z" fill="black"/>
<path fill-rule="evenodd" clip-rule="evenodd" d="M1734.32 725.573C1734.78 725.335 1737.44 723.945 1740.82 725.006C1741.87 725.329 1742.87 725.858 1743.7 726.56C1745.39 727.971 1745.28 728.091 1746.26 730.058C1793.67 825.333 1763.74 906.192 1734.04 957.843C1733.1 959.474 1733.03 959.545 1731.24 960.056C1731.22 960.057 1727.71 959.659 1727.69 959.66C1726.96 958.724 1725.81 958.003 1725.49 956.862C1724.83 954.583 1725.26 954.529 1726.37 952.438C1776.99 856.921 1756.56 784.811 1730.71 737.076C1729.07 734.042 1730 731.074 1730.15 730.577C1731.22 727.195 1733.86 725.812 1734.32 725.573Z" fill="black"/>
<path fill-rule="evenodd" clip-rule="evenodd" d="M1979.68 657.846C1980.08 657.522 1982.41 655.636 1985.94 656.01C1987.03 656.12 1988.11 656.442 1989.07 656.966C1991 658.017 1990.92 658.156 1992.27 659.891C2057.51 743.959 2044.1 829.131 2025.16 885.62C2024.56 887.405 2024.51 887.487 2022.85 888.342C2022.83 888.346 2019.31 888.648 2019.29 888.652C2018.39 887.879 2017.13 887.397 2016.58 886.344C2015.49 884.238 2015.9 884.1 2016.57 881.832C2047.38 778.215 2013.15 711.543 1978.4 669.836C1976.19 667.185 1976.52 664.091 1976.58 663.573C1976.95 660.049 1979.28 658.171 1979.68 657.846Z" fill="black"/>
<path fill-rule="evenodd" clip-rule="evenodd" d="M2155.87 599.063C2156.27 598.739 2158.6 596.853 2162.13 597.227C2163.21 597.337 2164.3 597.659 2165.26 598.183C2167.19 599.233 2167.11 599.373 2168.45 601.108C2233.7 685.176 2220.29 770.348 2201.35 826.837C2200.75 828.622 2200.7 828.704 2199.04 829.559C2199.02 829.563 2195.49 829.865 2195.48 829.869C2194.58 829.095 2193.31 828.614 2192.77 827.561C2191.68 825.455 2192.09 825.317 2192.76 823.049C2223.57 719.431 2189.34 652.76 2154.59 611.053C2152.38 608.402 2152.71 605.308 2152.76 604.79C2153.14 601.265 2155.46 599.387 2155.87 599.063Z" fill="black"/>
<path fill-rule="evenodd" clip-rule="evenodd" d="M1167.65 737.479C1168.15 737.336 1171.04 736.504 1174.14 738.229C1175.1 738.757 1175.98 739.473 1176.64 740.332C1178.01 742.054 1177.89 742.147 1178.46 744.269C1206.17 848.86 1136.61 919.8 1083.32 960.412C1081.83 961.55 1081.75 961.584 1079.89 961.36C1079.87 961.359 1076.79 959.625 1076.78 959.616C1076.46 958.474 1075.69 957.364 1075.83 956.184C1075.96 955.016 1076.9 954.065 1077.57 953.098C1077.87 952.665 1100.09 935.74 1121.02 911.62C1177.83 846.131 1173.88 788.112 1161.8 748.013C1160.81 744.71 1162.32 741.992 1162.57 741.54C1164.28 738.448 1167.15 737.622 1167.65 737.479Z" fill="black"/>
<path fill-rule="evenodd" clip-rule="evenodd" d="M1500.56 766.609C1501.06 766.467 1503.95 765.635 1507.05 767.36C1508 767.888 1508.88 768.604 1509.55 769.463C1510.92 771.185 1510.79 771.278 1511.36 773.4C1539.07 877.991 1469.52 948.931 1416.23 989.543C1414.73 990.681 1414.66 990.715 1412.8 990.491C1412.78 990.489 1409.69 988.756 1409.69 988.747C1409.37 987.605 1408.59 986.495 1408.74 985.315C1408.87 984.147 1409.81 983.195 1410.47 982.229C1410.78 981.796 1433 964.87 1453.92 940.751C1510.73 875.262 1506.79 817.243 1494.71 777.143C1493.71 773.841 1495.23 771.123 1495.47 770.671C1497.19 767.579 1500.06 766.753 1500.56 766.609Z" fill="black"/>
<path fill-rule="evenodd" clip-rule="evenodd" d="M2272.45 1385.05C2245.45 1324.58 2263.77 1251.41 2319.74 1211.47C2360.73 1183.14 2399.95 1179.36 2434.2 1186.81C2463.79 1193.25 2554.67 1231.32 2556.14 1356.48C2556.95 1424.75 2536.63 1577.3 2478.66 1758.53C2389.12 2038.44 2199.8 2380.47 1896.58 2590.11C1807.35 2651.8 1661.28 2701.28 1476.38 2718.88C1129.48 2751.89 685.957 2718.38 539.723 2703.03C366.354 2684.82 200.667 2592.85 101.802 2440.27C20.0931 2314.18 -18.7969 2146.82 27.2261 1945.96C59.5481 1804.89 120.481 1679.98 187.045 1577.57C309.072 1389.83 447.606 1277.77 447.606 1277.77C480.477 1250.34 529.431 1254.76 556.859 1287.63C584.287 1320.5 579.869 1369.45 546.999 1396.88C546.999 1396.88 625.113 1509.81 523.454 1677.01C469.512 1765.74 257.906 2087.88 425.556 2336.87C521.275 2479.02 1021.36 2525.14 1326.11 2501.25C1511.89 2486.68 1684.22 2462.05 1767.8 2400.46C2115.92 2143.96 2242.67 1658.75 2268.95 1436.29C2271.01 1418.88 2271.99 1399.68 2272.45 1385.05ZM2382.19 1467.85C2414.2 1474.78 2448.69 1469.51 2484.85 1442.88C2453.91 1464.96 2417.1 1472.85 2382.19 1467.85Z" fill="#777777" stroke="black" stroke-width="18" stroke-miterlimit="2" stroke-linejoin="round"/>
<path fill-rule="evenodd" clip-rule="evenodd" d="M1794.9 2448.6C2060.05 2211.94 2229.26 1909.07 2336.58 1593.09L2223.22 1938.25C2078.65 2169.51 1960.89 2309.1 1794.9 2448.6Z" fill="white"/>
<path fill-rule="evenodd" clip-rule="evenodd" d="M496.148 1725.16C496.125 1725.68 495.993 1728.67 493.363 1731.06C492.556 1731.8 491.594 1732.39 490.568 1732.76C488.52 1733.51 488.473 1733.37 486.3 1733.22C430.141 1729.22 316.252 1647.61 256.433 1584.74C226.087 1552.84 218.932 1535.77 216.613 1529.41C215.97 1527.65 215.966 1527.55 216.745 1525.84C216.752 1525.83 219.346 1523.41 219.355 1523.41C220.538 1523.46 221.826 1523.06 222.902 1523.55C224.905 1524.47 224.757 1524.74 225.58 1526.78C245.511 1576.19 380.323 1681.91 459.104 1709.73C478.544 1716.6 487.438 1716.09 488.039 1716.24C489.128 1716.52 490.29 1716.59 491.305 1717.08C491.77 1717.3 494.446 1718.57 495.631 1721.83C496.214 1723.43 496.223 1723.45 496.148 1725.16Z" fill="black"/>
<path fill-rule="evenodd" clip-rule="evenodd" d="M379.489 1998.26C379.463 1998.78 379.314 2001.81 376.69 2004.19C375.884 2004.92 374.92 2005.51 373.894 2005.88C371.875 2006.59 371.83 2006.45 369.691 2006.31C303.749 2001.96 112.682 1924.21 66.2045 1864.59C60.4005 1857.15 58.2715 1851.83 57.3465 1849.31C56.6985 1847.55 56.6965 1847.45 57.4775 1845.74C57.4845 1845.73 60.0785 1843.31 60.0875 1843.31C63.8885 1843.45 64.7715 1842.82 66.1815 1846.35C80.2395 1881.56 174.979 1930.96 265.126 1962.78C270.803 1964.78 335.435 1987.91 371.394 1989.32C371.914 1989.34 374.914 1989.46 377.286 1992.08C379.664 1994.71 379.515 1997.74 379.489 1998.26Z" fill="black"/>
<path fill-rule="evenodd" clip-rule="evenodd" d="M376.752 2227.43C377.126 2227.79 379.28 2229.87 379.335 2233.42C379.357 2234.51 379.163 2235.63 378.762 2236.64C377.969 2238.66 377.841 2238.61 376.298 2240.13C331.869 2284.03 166.646 2340.64 83.5751 2341.49C63.2195 2341.7 53.1077 2338.53 48.1566 2336.6C46.4099 2335.92 46.3328 2335.86 45.566 2334.14C45.5632 2334.13 45.4636 2330.58 45.4695 2330.58C46.2888 2329.72 46.8406 2328.49 47.9197 2328.01C49.921 2327.11 50.0285 2327.42 52.1034 2328.13C105.681 2346.57 288.619 2286.06 352.227 2238.44C359.761 2232.8 363.405 2228.97 364.7 2227.61C367.1 2225.1 370.169 2225.05 370.694 2225.05C374.224 2224.99 376.377 2227.07 376.752 2227.43Z" fill="black"/>
<path fill-rule="evenodd" clip-rule="evenodd" d="M493.789 2393.38C494.306 2393.31 497.274 2392.93 500.084 2395.1C500.953 2395.76 501.702 2396.61 502.254 2397.55C503.327 2399.43 503.207 2399.5 503.435 2401.65C510.629 2470.06 438.708 2599.28 384.179 2639.92C379.459 2643.43 376.015 2645.44 374.548 2646.27C372.926 2647.21 372.825 2647.21 371.017 2646.75C370.995 2646.74 368.176 2644.64 368.174 2644.63C368.009 2643.46 367.403 2642.27 367.699 2641.13C368.244 2638.99 368.532 2639.07 370.416 2637.89C419.926 2607.12 488.763 2480.21 487.176 2412.39C487.061 2407.31 486.555 2403.93 486.416 2402.92C485.943 2399.49 487.826 2397.05 488.149 2396.63C490.305 2393.84 493.273 2393.45 493.789 2393.38Z" fill="black"/>
<path fill-rule="evenodd" clip-rule="evenodd" d="M832.859 2533.66C833.269 2533.34 835.639 2531.49 839.16 2531.93C840.239 2532.07 841.321 2532.41 842.269 2532.94C844.117 2534 844.055 2534.11 845.322 2535.82C900.581 2610.53 880.639 2670.39 859.804 2706.34C858.863 2707.96 858.8 2708.04 857.002 2708.55C856.99 2708.56 853.468 2708.16 853.462 2708.16C852.721 2707.23 851.577 2706.51 851.255 2705.36C850.64 2703.23 850.967 2703.17 851.991 2701.2C886.198 2635.43 861.843 2583.15 831.361 2545.62C829.202 2542.96 829.595 2539.84 829.655 2539.32C830.095 2535.81 832.448 2533.98 832.859 2533.66Z" fill="black"/>
<path fill-rule="evenodd" clip-rule="evenodd" d="M1221.02 2538.59C1221.43 2538.27 1223.8 2536.43 1227.32 2536.87C1228.4 2537 1229.48 2537.34 1230.43 2537.88C1232.28 2538.93 1232.22 2539.05 1233.49 2540.76C1288.75 2615.47 1268.8 2675.32 1247.97 2711.27C1247.03 2712.9 1246.96 2712.98 1245.17 2713.49C1245.15 2713.49 1241.63 2713.1 1241.63 2713.09C1240.89 2712.17 1239.74 2711.45 1239.42 2710.3C1238.8 2708.17 1239.13 2708.1 1240.15 2706.13C1274.36 2640.37 1250.01 2588.09 1219.53 2550.56C1217.37 2547.9 1217.76 2544.78 1217.82 2544.26C1218.26 2540.75 1220.61 2538.91 1221.02 2538.59Z" fill="black"/>
<path fill-rule="evenodd" clip-rule="evenodd" d="M1567.15 2471.97C1567.57 2471.65 1569.95 2469.83 1573.46 2470.31C1574.54 2470.45 1575.62 2470.8 1576.56 2471.35C1578.48 2472.46 1578.39 2472.6 1579.7 2474.39C1646.2 2565.25 1612.27 2645.42 1580.69 2694.05C1579.68 2695.62 1579.61 2695.69 1577.78 2696.1C1577.77 2696.11 1574.27 2695.52 1574.26 2695.52C1573.58 2694.54 1572.47 2693.76 1572.21 2692.61C1571.68 2690.29 1572.11 2690.26 1573.34 2688.22C1629 2595.49 1600.79 2528.64 1565.54 2483.92C1563.41 2481.21 1563.83 2478.13 1563.9 2477.61C1564.36 2474.11 1566.74 2472.29 1567.15 2471.97Z" fill="black"/>
<path fill-rule="evenodd" clip-rule="evenodd" d="M1793.25 2369.47C1793.36 2368.95 1793.94 2366.02 1796.9 2364.05C1797.81 2363.45 1798.85 2363 1799.92 2362.78C1802.17 2362.35 1802.19 2362.55 1804.44 2363.04C1930.7 2390.87 1963.85 2481.3 1974.21 2546.64C1974.5 2548.49 1974.5 2548.59 1973.41 2550.12C1973.4 2550.14 1970.41 2552.03 1970.4 2552.03C1969.25 2551.76 1967.9 2551.92 1966.93 2551.23C1965.97 2550.55 1965.58 2549.29 1965.04 2548.23C1964.8 2547.75 1961.13 2523.37 1950.15 2496.31C1917.58 2416.03 1853.33 2389.53 1799.92 2379.51C1796.52 2378.88 1794.81 2376.28 1794.52 2375.85C1792.56 2372.91 1793.15 2369.98 1793.25 2369.47Z" fill="black"/>
<path fill-rule="evenodd" clip-rule="evenodd" d="M2032.62 2109.44C2032.73 2108.92 2033.32 2105.99 2036.27 2104.02C2037.18 2103.42 2038.22 2102.97 2039.29 2102.75C2041.54 2102.32 2041.56 2102.52 2043.81 2103.01C2170.07 2130.84 2203.22 2221.27 2213.58 2286.61C2213.88 2288.46 2213.87 2288.55 2212.79 2290.09C2212.78 2290.11 2209.78 2292 2209.77 2292C2208.62 2291.73 2207.27 2291.89 2206.31 2291.2C2205.34 2290.52 2204.95 2289.26 2204.41 2288.2C2204.17 2287.72 2200.5 2263.34 2189.52 2236.28C2156.95 2155.99 2092.7 2129.5 2039.29 2119.48C2035.9 2118.85 2034.18 2116.25 2033.89 2115.82C2031.93 2112.87 2032.52 2109.94 2032.62 2109.44Z" fill="black"/>
<path fill-rule="evenodd" clip-rule="evenodd" d="M453.201 1777.25L415.802 1859.74C303.704 1843.85 211.037 1787.6 130.332 1704.77L170.376 1605.37C255.152 1700.52 345.29 1749.6 453.201 1777.25Z" fill="black" fill-opacity="0.2"/>
<path fill-rule="evenodd" clip-rule="evenodd" d="M455.909 1778.47C443.416 1806.15 431.037 1833.88 418.544 1861.56C418.533 1861.59 417.488 1863.27 415.333 1863.01C412.034 1862.63 404.438 1861.38 403.493 1861.22C307.924 1845.43 216.319 1798.57 128.046 1708.9C127.928 1708.78 126.839 1707.68 126.616 1707.36C125.212 1705.36 125.992 1703.4 126.12 1703.08C139.339 1669.89 152.575 1636.71 165.835 1603.54C166.846 1601.01 169.156 1600.6 169.531 1600.53C171.708 1600.15 173.189 1601.32 173.442 1601.52C175.448 1603.11 205.444 1639.14 251.941 1675.21C313.438 1722.91 379.191 1752.09 453.475 1770.96C453.651 1771.01 455.205 1771.4 455.653 1771.6C458.567 1772.86 459.132 1775.53 459.226 1775.97C459.258 1776.12 459.473 1777.13 459.324 1777.91C459.203 1778.55 458.932 1779.15 458.811 1779.79L455.909 1778.47ZM453.201 1777.25C345.29 1749.6 255.152 1700.52 170.376 1605.37L130.332 1704.77C211.037 1787.6 303.704 1843.85 415.802 1859.74L453.201 1777.25Z" fill="#42AB84"/>
<path d="M206.865 1728.79C213.778 1728.79 219.382 1722.33 219.382 1714.36C219.382 1706.39 213.778 1699.93 206.865 1699.93C199.952 1699.93 194.348 1706.39 194.348 1714.36C194.348 1722.33 199.952 1728.79 206.865 1728.79Z" fill="#F2E83A"/>
<path fill-rule="evenodd" clip-rule="evenodd" d="M206.863 1696.96C216.363 1696.92 221.969 1705 222.827 1712.36C224.418 1725.99 212.358 1736.29 201.074 1731.44C190.402 1726.85 187.092 1711.05 195.84 1701.74C200.096 1697.21 205.145 1697.01 206.046 1696.98L206.863 1696.96ZM206.863 1699.93C199.955 1699.93 194.346 1706.4 194.346 1714.36C194.346 1722.33 199.955 1728.8 206.863 1728.8C213.772 1728.8 219.381 1722.33 219.381 1714.36C219.381 1706.4 213.772 1699.93 206.863 1699.93Z" fill="#42AB84"/>
<path d="M245.502 1759.88L234 1753.19L214.343 1787L225.845 1793.69L245.502 1759.88Z" fill="#F2E83A"/>
<path fill-rule="evenodd" clip-rule="evenodd" d="M248.072 1761.38C229.034 1795.58 229.198 1795.72 228.237 1796.56C227.084 1797.57 225.287 1797.75 223.936 1796.98C222.968 1796.43 212.337 1790.37 211.908 1790C210.166 1788.5 210.296 1786.34 211.041 1785.09C212.632 1782.4 228.277 1756.02 231.095 1751.51C231.953 1750.13 233.913 1749.42 235.604 1750.44C236.555 1751 247.099 1757.34 247.416 1757.62C248.52 1758.55 248.536 1760 248.425 1760.41C248.336 1760.74 248.161 1761.05 248.072 1761.38ZM245.502 1759.88L234.001 1753.19L214.344 1787.01L225.846 1793.69L245.502 1759.88Z" fill="#42AB84"/>
<path d="M339.745 1838.63L345.402 1826.59L310.005 1809.96L304.347 1822L339.745 1838.63Z" fill="#F2E83A"/>
<path fill-rule="evenodd" clip-rule="evenodd" d="M338.479 1841.32C330.417 1837.72 322.342 1834.16 314.28 1830.56C310.436 1828.84 306.602 1827.1 302.771 1825.35C300.706 1824.41 300.131 1822.08 300.907 1820.38C306.13 1809.03 306.103 1809.02 306.645 1808.08C307.902 1805.92 310.286 1805.86 311.629 1806.5C314.442 1807.85 341.492 1820.85 346.831 1823.55C348.259 1824.27 349.165 1826.15 348.289 1827.95C347.811 1828.94 342.401 1840.01 342.198 1840.3C341.354 1841.55 339.848 1841.68 339.365 1841.58C339.063 1841.52 338.782 1841.39 338.479 1841.32ZM339.744 1838.63L345.401 1826.59L310.004 1809.96L304.347 1822L339.744 1838.63Z" fill="#42AB84"/>
<path fill-rule="evenodd" clip-rule="evenodd" d="M88.6209 1838.38C78.3649 1855.33 71.115 1867.66 69.6131 1870.21C68.4577 1869.42 62.7342 1865.42 55.2515 1860.11C56.7646 1857.54 64.0392 1845.19 74.3242 1828.19C81.8122 1833.57 87.4766 1837.57 88.6209 1838.38Z" fill="#F2E83A"/>
<path fill-rule="evenodd" clip-rule="evenodd" d="M89.8919 1839.15C71.3116 1870.76 71.388 1871.15 70.8276 1871.63C70.3249 1872.07 69.3966 1872.32 68.5393 1871.75C68.2941 1871.58 54.2742 1861.86 53.8969 1861.48C53.3502 1860.94 53.1089 1859.98 53.592 1859.14C56.2915 1854.43 72.6814 1827.53 73.0571 1827.1C73.6016 1826.47 74.5895 1826.33 75.2936 1826.84C75.4806 1826.98 87.3266 1835.64 89.481 1837.17C90.1336 1837.63 90.1506 1838.44 90.074 1838.69C90.027 1838.85 89.939 1839 89.8919 1839.15ZM88.6203 1838.38C87.476 1837.57 81.8116 1833.57 74.3236 1828.19C64.0386 1845.19 56.7639 1857.54 55.2509 1860.11C62.7336 1865.42 68.457 1869.42 69.6125 1870.21C71.1144 1867.66 78.3643 1855.33 88.6203 1838.38Z" fill="#FF7418"/>
<path fill-rule="evenodd" clip-rule="evenodd" d="M110.356 1855.68C100.14 1872.6 92.9503 1884.9 91.4546 1887.45C90.2989 1886.67 84.4086 1882.69 77.022 1877.6C78.5251 1875.04 85.7647 1862.69 95.9998 1845.75C103.36 1850.91 109.202 1854.9 110.356 1855.68Z" fill="#F2E83A"/>
<path fill-rule="evenodd" clip-rule="evenodd" d="M111.627 1856.45C93.0586 1888.13 93.2573 1888.36 92.6776 1888.87C92.1904 1889.29 91.2734 1889.56 90.4067 1889C89.9626 1888.71 76.1011 1879.39 75.6824 1878.98C75.126 1878.44 74.8776 1877.48 75.3636 1876.63C78.1606 1871.73 94.3386 1845.12 94.7272 1844.67C95.2544 1844.06 96.2209 1843.88 96.9508 1844.39C97.1926 1844.56 103.12 1848.81 109.512 1853.28C110.022 1853.65 111.339 1854.52 111.553 1854.8C111.896 1855.28 111.85 1855.86 111.808 1855.99C111.762 1856.15 111.674 1856.29 111.627 1856.45ZM110.356 1855.68C109.202 1854.9 103.36 1850.91 95.9994 1845.76C85.7644 1862.69 78.5247 1875.04 77.0217 1877.6C84.4082 1882.69 90.2985 1886.67 91.4543 1887.46C92.95 1884.9 100.14 1872.61 110.356 1855.68Z" fill="#FF7418"/>
<path fill-rule="evenodd" clip-rule="evenodd" d="M132.46 1872.77C122.28 1889.71 115.182 1901.93 113.699 1904.48C112.533 1903.73 106.519 1899.84 99.1605 1894.95C100.652 1892.39 107.817 1880.09 118.009 1863.17C119.162 1863.94 125.341 1868.1 132.46 1872.77Z" fill="#F2E83A"/>
<path fill-rule="evenodd" clip-rule="evenodd" d="M133.735 1873.53C115.273 1905.19 115.519 1905.36 114.929 1905.89C114.455 1906.3 113.552 1906.59 112.682 1906.05C112.081 1905.68 98.2847 1896.77 97.8442 1896.34C97.2696 1895.81 97.0118 1894.83 97.4999 1893.97C100.342 1888.96 116.336 1862.55 116.735 1862.08C117.255 1861.47 118.213 1861.3 118.934 1861.79C119.392 1862.09 125.025 1865.98 131.96 1870.65C132.702 1871.14 133.534 1871.61 133.779 1872.08C133.988 1872.49 133.947 1872.96 133.918 1873.06C133.868 1873.23 133.78 1873.37 133.735 1873.53ZM132.459 1872.77C125.339 1868.1 119.16 1863.94 118.008 1863.17C107.815 1880.09 100.65 1892.39 99.1588 1894.95C106.517 1899.84 112.531 1903.72 113.697 1904.48C115.18 1901.93 122.279 1889.71 132.459 1872.77Z" fill="#FF7418"/>
<path fill-rule="evenodd" clip-rule="evenodd" d="M154.34 1887.97C144.211 1905.02 137.258 1917.13 135.793 1919.68C134.615 1918.96 128.493 1915.19 121.113 1910.52C122.586 1907.96 129.613 1895.76 139.746 1878.76C140.905 1879.51 147.093 1883.47 154.34 1887.97Z" fill="#F2E83A"/>
<path fill-rule="evenodd" clip-rule="evenodd" d="M155.62 1888.72C137.376 1920.38 137.623 1920.55 137.043 1921.07C136.583 1921.48 135.696 1921.79 134.817 1921.27C134.129 1920.87 120.292 1912.37 119.829 1911.94C119.236 1911.41 118.96 1910.43 119.449 1909.55C122.259 1904.54 138.065 1878.16 138.466 1877.68C138.934 1877.12 139.844 1876.86 140.645 1877.35C140.806 1877.46 146.468 1881.19 153.791 1885.85C154.452 1886.28 155.288 1886.76 155.504 1887.04C155.876 1887.51 155.843 1888.11 155.803 1888.24C155.755 1888.41 155.668 1888.56 155.62 1888.72ZM154.341 1887.97C147.095 1883.47 140.907 1879.51 139.747 1878.76C129.615 1895.76 122.588 1907.96 121.115 1910.52C128.495 1915.19 134.616 1918.96 135.794 1919.68C137.259 1917.13 144.213 1905.02 154.341 1887.97Z" fill="#FF7418"/>
<path fill-rule="evenodd" clip-rule="evenodd" d="M175.927 1902.62C165.79 1919.8 158.962 1931.78 157.505 1934.34C156.316 1933.64 150.093 1930 142.688 1925.51C144.144 1922.97 151.06 1910.88 161.181 1893.79C162.356 1894.51 168.562 1898.3 175.927 1902.62Z" fill="#F2E83A"/>
<path fill-rule="evenodd" clip-rule="evenodd" d="M177.204 1903.38C159.088 1935.03 159.329 1935.2 158.76 1935.71C158.32 1936.11 157.45 1936.44 156.557 1935.95C155.85 1935.55 141.904 1927.4 141.422 1926.97C140.813 1926.44 140.525 1925.44 141.016 1924.56C143.775 1919.59 159.493 1893.2 159.892 1892.72C160.352 1892.17 161.243 1891.9 162.045 1892.37C162.217 1892.47 167.894 1896.04 175.317 1900.53C176.071 1900.99 176.912 1901.41 177.177 1901.82C177.474 1902.29 177.41 1902.83 177.374 1902.95C177.329 1903.09 177.248 1903.23 177.204 1903.38ZM175.925 1902.62C168.56 1898.29 162.354 1894.5 161.18 1893.79C151.059 1910.88 144.142 1922.97 142.686 1925.51C150.091 1930 156.314 1933.64 157.503 1934.33C158.961 1931.78 165.789 1919.8 175.925 1902.62Z" fill="#FF7418"/>
<path fill-rule="evenodd" clip-rule="evenodd" d="M198.775 1916.77C188.597 1934.15 181.909 1945.95 180.464 1948.51C179.263 1947.83 172.929 1944.33 165.485 1940.05C166.934 1937.5 173.718 1925.57 183.855 1908.33C185.042 1909.02 191.287 1912.61 198.775 1916.77Z" fill="#F2E83A"/>
<path fill-rule="evenodd" clip-rule="evenodd" d="M200.058 1917.51C182.037 1949.24 182.27 1949.42 181.676 1949.93C181.309 1950.25 180.48 1950.63 179.554 1950.14C178.978 1949.85 164.75 1941.95 164.254 1941.53C163.623 1941.01 163.316 1940 163.814 1939.1C166.431 1934.35 182.181 1907.72 182.58 1907.25C183.008 1906.75 183.865 1906.44 184.683 1906.89C184.838 1906.97 190.558 1910.37 198.114 1914.68C198.877 1915.12 199.74 1915.52 200.014 1915.94C200.325 1916.4 200.264 1916.96 200.229 1917.07C200.186 1917.22 200.105 1917.36 200.058 1917.51ZM198.774 1916.77C191.286 1912.61 185.041 1909.02 183.854 1908.33C173.717 1925.57 166.933 1937.5 165.484 1940.05C172.928 1944.33 179.262 1947.84 180.463 1948.51C181.908 1945.96 188.596 1934.15 198.774 1916.77Z" fill="#FF7418"/>
<path fill-rule="evenodd" clip-rule="evenodd" d="M223.001 1928.87C212.684 1946.63 206.178 1958.15 204.732 1960.71C203.518 1960.07 197.074 1956.67 189.586 1952.6C191.03 1950.05 197.654 1938.35 207.885 1920.83C209.089 1921.48 215.376 1924.89 223.001 1928.87Z" fill="#F2E83A"/>
<path fill-rule="evenodd" clip-rule="evenodd" d="M224.289 1929.61C206.307 1961.49 206.509 1961.64 205.958 1962.12C205.62 1962.42 204.81 1962.84 203.859 1962.37C203.265 1962.07 188.914 1954.51 188.414 1954.12C187.726 1953.59 187.412 1952.56 187.915 1951.65C190.738 1946.53 206.239 1920.18 206.604 1919.76C207.021 1919.26 207.859 1918.94 208.674 1919.37C208.833 1919.46 214.592 1922.67 222.283 1926.8C223.06 1927.22 223.939 1927.6 224.223 1928.02C224.544 1928.49 224.491 1929.05 224.458 1929.17C224.411 1929.32 224.331 1929.46 224.289 1929.61ZM223 1928.87C215.375 1924.89 209.089 1921.48 207.884 1920.83C197.653 1938.35 191.029 1950.05 189.585 1952.6C197.074 1956.67 203.517 1960.07 204.732 1960.71C206.177 1958.15 212.683 1946.63 223 1928.87Z" fill="#FF7418"/>
<path fill-rule="evenodd" clip-rule="evenodd" d="M246.204 1941.08C235.671 1959.35 229.389 1970.53 227.943 1973.1C226.713 1972.49 220.143 1969.18 212.623 1965.29C214.067 1962.72 220.504 1951.3 230.878 1933.39C232.099 1934.02 238.432 1937.25 246.204 1941.08Z" fill="#F2E83A"/>
<path fill-rule="evenodd" clip-rule="evenodd" d="M247.489 1941.83C229.518 1973.94 229.686 1974.06 229.179 1974.51C229.052 1974.62 228.258 1975.32 227.103 1974.78C226.656 1974.56 211.978 1967.21 211.475 1966.84C210.77 1966.32 210.444 1965.26 210.949 1964.34C213.601 1959.51 229.245 1932.74 229.593 1932.33C230 1931.84 230.816 1931.51 231.634 1931.91C231.798 1931.99 237.586 1935.05 245.429 1939.03C246.214 1939.43 247.115 1939.8 247.412 1940.21C247.742 1940.68 247.696 1941.25 247.659 1941.38C247.619 1941.52 247.534 1941.67 247.489 1941.83ZM246.205 1941.08C238.434 1937.25 232.1 1934.02 230.88 1933.39C220.505 1951.3 214.068 1962.72 212.624 1965.29C220.145 1969.19 226.715 1972.49 227.944 1973.11C229.39 1970.53 235.673 1959.35 246.205 1941.08Z" fill="#FF7418"/>
<path fill-rule="evenodd" clip-rule="evenodd" d="M271.488 1952.37C270.013 1954.95 260.49 1971.61 253.163 1984.68C251.915 1984.09 245.183 1980.84 237.646 1977.13C239.095 1974.55 245.243 1963.6 255.927 1945.01C257.17 1945.6 263.538 1948.67 271.488 1952.37Z" fill="#F2E83A"/>
<path fill-rule="evenodd" clip-rule="evenodd" d="M272.775 1953.11C256.52 1982.38 254.88 1985.52 254.612 1985.86C254.242 1986.32 253.378 1986.83 252.344 1986.37C252.096 1986.26 237.015 1979.05 236.525 1978.7C235.805 1978.18 235.461 1977.11 235.969 1976.18C238.368 1971.79 254.318 1944.33 254.638 1943.94C255.089 1943.4 255.925 1943.16 256.645 1943.51C257.111 1943.73 262.929 1946.62 270.648 1950.33C271.45 1950.71 272.373 1951.06 272.678 1951.48C273.026 1951.94 272.983 1952.52 272.947 1952.65C272.903 1952.8 272.819 1952.95 272.775 1953.11ZM271.487 1952.37C263.537 1948.67 257.17 1945.6 255.926 1945.01C245.242 1963.6 239.094 1974.55 237.645 1977.13C245.182 1980.84 251.914 1984.08 253.162 1984.68C260.489 1971.61 270.012 1954.95 271.487 1952.37Z" fill="#FF7418"/>
<path fill-rule="evenodd" clip-rule="evenodd" d="M297.028 1961.17C295.712 1963.85 286.945 1981.76 280.656 1994.83C272.233 1991.49 265.775 1988.86 264.483 1988.34C265.772 1985.66 271.103 1974.58 280.761 1954.95C282.06 1955.46 288.678 1958.03 297.028 1961.17Z" fill="#F2E83A"/>
<path fill-rule="evenodd" clip-rule="evenodd" d="M298.362 1961.82C284.928 1990.13 282.395 1995.6 282.185 1995.9C281.952 1996.24 281.174 1997 279.965 1996.57C279.735 1996.49 265.805 1990.99 263.757 1990.13C262.733 1989.69 262.277 1988.52 262.75 1987.5C264.743 1983.23 279.12 1954.37 279.401 1953.98C279.814 1953.41 280.622 1953.12 281.362 1953.4C281.848 1953.59 287.892 1956.02 296.009 1959.19C296.754 1959.47 297.715 1959.8 297.979 1960.02C298.023 1960.06 298.271 1960.26 298.408 1960.62C298.637 1961.2 298.49 1961.21 298.362 1961.82ZM297.027 1961.17C288.678 1958.03 282.06 1955.46 280.761 1954.95C271.103 1974.58 265.771 1985.66 264.483 1988.34C265.775 1988.86 272.233 1991.49 280.656 1994.83C286.945 1981.76 295.712 1963.86 297.027 1961.17Z" fill="#FF7418"/>
<path fill-rule="evenodd" clip-rule="evenodd" d="M325.084 1968.66C319.537 1980.1 313.99 1991.54 308.447 2002.97C299.603 1999.55 293.358 1997.12 292.05 1996.6C297.741 1984.8 307.211 1965.4 308.536 1962.68C309.858 1963.17 316.466 1965.59 325.084 1968.66Z" fill="#F2E83A"/>
<path fill-rule="evenodd" clip-rule="evenodd" d="M326.419 1969.31C310.144 2003.71 310.338 2003.88 309.534 2004.47C308.721 2005.07 307.906 2004.76 307.773 2004.71C307.514 2004.62 293.16 1999.13 291.347 1998.4C290.285 1997.97 289.846 1996.76 290.317 1995.77C292.826 1990.47 306.366 1963.27 307.029 1961.95C307.385 1961.25 308.167 1960.92 308.844 1961.06C309.115 1961.1 321.923 1965.96 325.578 1967.27C326.205 1967.49 326.419 1968.01 326.458 1968.1C326.694 1968.68 326.543 1968.7 326.419 1969.31ZM325.084 1968.66C316.466 1965.59 309.858 1963.17 308.536 1962.69C307.211 1965.4 297.741 1984.8 292.05 1996.6C293.357 1997.12 299.603 1999.56 308.447 2002.97L325.084 1968.66Z" fill="#FF7418"/>
<path fill-rule="evenodd" clip-rule="evenodd" d="M352.631 1974.62C348.297 1986.76 343.963 1998.91 339.629 2011.05C333.848 2009.49 328.068 2007.91 322.287 2006.35C326.558 1994.39 330.827 1982.44 335.098 1970.47C336.5 1970.81 343.514 1972.5 352.631 1974.62Z" fill="#F2E83A"/>
<path fill-rule="evenodd" clip-rule="evenodd" d="M354.032 1975.12C341.392 2011.61 341.601 2011.76 340.872 2012.44C340.12 2013.13 339.274 2012.9 339.136 2012.87C333.348 2011.32 327.565 2009.77 321.783 2008.21C320.766 2007.94 320.094 2006.81 320.482 2005.7C321.319 2003.32 332.978 1971.29 333.503 1969.91C333.787 1969.16 334.531 1968.75 335.217 1968.82C335.486 1968.83 349.286 1972.31 352.965 1973.18C353.617 1973.32 353.888 1973.82 353.937 1973.9C354.238 1974.46 354.088 1974.49 354.032 1975.12ZM352.63 1974.62C343.512 1972.5 336.499 1970.81 335.096 1970.47L322.286 2006.35L339.628 2011.05L352.63 1974.62Z" fill="#FF7418"/>
<path fill-rule="evenodd" clip-rule="evenodd" d="M376.356 1978C373.402 1990.77 370.449 2003.53 367.496 2016.3C361.446 2015.33 355.396 2014.38 349.347 2013.42C352.234 2000.9 355.119 1988.38 358.003 1975.86C359.471 1976.04 366.943 1976.95 376.356 1978Z" fill="#F2E83A"/>
<path fill-rule="evenodd" clip-rule="evenodd" d="M377.803 1978.34C369.312 2016.65 369.54 2016.78 368.887 2017.54C368.792 2017.65 368.214 2018.31 367.2 2018.16C361.146 2017.22 355.094 2016.28 349.044 2015.33C348.02 2015.16 347.224 2014.13 347.48 2012.99C348.047 2010.46 356.012 1976.83 356.354 1975.48C356.55 1974.7 357.245 1974.22 357.931 1974.2C358.195 1974.19 372.542 1976.07 376.522 1976.53C377.186 1976.6 377.513 1977.07 377.569 1977.14C377.932 1977.66 377.788 1977.71 377.803 1978.34ZM376.355 1978C366.942 1976.95 359.47 1976.04 358.002 1975.86L349.346 2013.42L367.495 2016.3L376.355 1978Z" fill="#FF7418"/>
<path fill-rule="evenodd" clip-rule="evenodd" d="M535.064 1652.17L497.665 1734.66C385.567 1718.77 292.9 1662.52 212.195 1579.69L252.239 1480.29C337.015 1575.44 427.153 1624.52 535.064 1652.17Z" fill="#68BB9D"/>
<path fill-rule="evenodd" clip-rule="evenodd" d="M537.773 1653.39C525.28 1681.07 512.901 1708.8 500.408 1736.48C500.397 1736.51 499.352 1738.19 497.197 1737.93C493.898 1737.55 486.302 1736.3 485.357 1736.14C389.788 1720.35 298.183 1673.49 209.91 1583.82C209.792 1583.7 208.703 1582.6 208.48 1582.28C207.076 1580.28 207.856 1578.32 207.984 1578C221.203 1544.81 234.439 1511.63 247.699 1478.46C248.71 1475.93 251.02 1475.52 251.395 1475.45C253.986 1475 255.647 1476.74 255.911 1477.01C259.191 1480.45 284.763 1510.15 322.444 1541.06C387.2 1594.18 456.455 1625.84 535.339 1645.88C535.515 1645.93 537.069 1646.32 537.517 1646.52C540.431 1647.78 540.996 1650.45 541.09 1650.89C541.122 1651.04 541.337 1652.05 541.188 1652.83C541.067 1653.47 540.796 1654.07 540.675 1654.71L537.773 1653.39ZM535.065 1652.17C427.154 1624.52 337.016 1575.44 252.24 1480.29L212.196 1579.69C292.901 1662.52 385.568 1718.77 497.666 1734.66L535.065 1652.17Z" fill="#42AB84"/>
<path fill-rule="evenodd" clip-rule="evenodd" d="M179.662 1805.55C179.902 1806.94 180.283 1808.3 180.386 1809.7C180.48 1810.96 181.011 1818.14 175.492 1824.69C172.806 1827.88 169.769 1829.45 169.196 1829.75C169.188 1829.75 165.296 1831.29 165.291 1831.3C163.909 1831.54 162.544 1831.92 161.144 1832.03C159.887 1832.12 152.708 1832.67 146.155 1827.14C142.966 1824.46 141.395 1821.41 141.099 1820.84C139.906 1818.53 139.949 1818.5 139.307 1815.98C138.136 1811.38 133.067 1805.78 128.802 1778.09C123.146 1741.37 125.888 1729.25 127.447 1721.39C130.761 1704.68 142.925 1650.81 218.92 1494.26C244.996 1440.54 266.535 1399.69 266.535 1399.69C267.371 1398.65 292.193 1418.66 291.178 1420.84C258.843 1490.29 170.993 1662.08 162.787 1731.96C160.383 1752.44 173.276 1784.86 179.662 1805.55Z" fill="#D1D1D1"/>
<path fill-rule="evenodd" clip-rule="evenodd" d="M188.034 1804.1C188.322 1805.75 188.736 1807.4 188.86 1809.07C188.991 1810.84 189.755 1820.95 181.99 1830.17C178.199 1834.67 173.908 1836.88 173.098 1837.3C173.085 1837.3 166.775 1839.66 166.769 1839.66C165.11 1839.96 163.465 1840.38 161.785 1840.5C160.014 1840.64 149.9 1841.42 140.673 1833.64C136.172 1829.85 133.961 1825.55 133.542 1824.74C131.906 1821.57 131.947 1821.54 131.066 1818.08C129.871 1813.38 124.752 1807.65 120.398 1779.39C114.448 1740.76 117.466 1728 119.106 1719.73C122.45 1702.88 134.602 1648.49 211.27 1490.55C237.819 1435.86 259.917 1394.35 259.917 1394.35L261.678 1392.7L263.54 1391.72L266.274 1391.16L268.562 1391.36L271.863 1392.7C273.675 1393.73 277.235 1396.29 281.149 1399.4C285.991 1403.25 291.438 1407.95 294.653 1411.23C296.902 1413.53 298.288 1415.56 298.824 1416.74L299.501 1418.77L299.699 1421.01L298.881 1424.43C266.804 1493.32 179.366 1663.62 171.226 1732.95C168.933 1752.49 181.689 1783.31 187.781 1803.05C187.888 1803.39 187.972 1803.74 188.034 1804.1ZM179.659 1805.55C173.273 1784.86 160.38 1752.44 162.784 1731.96C170.99 1662.08 258.84 1490.29 291.175 1420.84C292.19 1418.66 267.368 1398.65 266.532 1399.69C266.532 1399.69 244.993 1440.54 218.917 1494.26C142.922 1650.81 130.758 1704.68 127.444 1721.39C125.885 1729.25 123.143 1741.37 128.799 1778.09C133.064 1805.78 138.133 1811.38 139.304 1815.98C139.946 1818.5 139.903 1818.53 141.096 1820.84C141.392 1821.41 142.963 1824.46 146.152 1827.14C152.705 1832.67 159.884 1832.12 161.141 1832.03C162.541 1831.92 163.906 1831.54 165.288 1831.3C165.293 1831.29 169.185 1829.75 169.193 1829.75C169.766 1829.45 172.803 1827.88 175.489 1824.69C181.008 1818.14 180.477 1810.96 180.383 1809.7C180.28 1808.3 179.899 1806.94 179.659 1805.55Z" fill="black"/>
<path fill-rule="evenodd" clip-rule="evenodd" d="M294.513 1743.66C294.525 1744.91 294.655 1746.15 294.556 1747.39C294.469 1748.51 293.965 1754.88 288.692 1759.98C286.126 1762.47 283.488 1763.49 282.989 1763.68C282.983 1763.68 279.663 1764.57 279.658 1764.58C278.519 1764.63 277.375 1764.8 276.238 1764.73C275.219 1764.66 269.392 1764.3 264.854 1758.67C262.644 1755.94 261.779 1753.07 261.616 1752.54C260.958 1750.37 260.996 1750.34 260.808 1748.06C260.464 1743.88 257.125 1738.36 257.29 1713.54C257.508 1680.62 261.275 1670.3 263.543 1663.58C268.363 1649.29 285.088 1603.42 366.281 1474.9C394.142 1430.8 416.698 1397.47 416.698 1397.47C417.503 1396.65 434.814 1417.16 433.718 1418.95C398.804 1476.13 306.133 1616.63 290.509 1677.04C285.93 1694.74 292.071 1724.74 294.513 1743.66Z" fill="#D1D1D1"/>
<path fill-rule="evenodd" clip-rule="evenodd" d="M303.014 1743.57C303.03 1745.07 303.149 1746.57 303.031 1748.07C302.904 1749.67 302.16 1758.78 294.604 1766.09C290.764 1769.81 286.804 1771.31 286.057 1771.61C286.046 1771.61 280.049 1773.07 280.043 1773.06C278.596 1773.14 277.144 1773.3 275.702 1773.21C274.139 1773.12 265.185 1772.62 258.238 1764.01C254.995 1759.99 253.722 1755.79 253.482 1755C252.566 1751.96 252.599 1751.95 252.337 1748.75C251.986 1744.49 248.623 1738.84 248.792 1713.48C249.021 1678.8 253.102 1667.93 255.49 1660.86C260.354 1646.44 277.142 1600.08 359.096 1470.36C387.51 1425.39 410.664 1391.48 410.664 1391.48L413.279 1389.68L416.919 1388.94L419.622 1389.43L422.761 1391.23C426.307 1394.1 439.661 1410.33 441.487 1414.88L442.079 1416.86L442.259 1419.16L441.844 1421.48L440.974 1423.39C406.354 1480.08 314.233 1619.26 298.739 1679.16C294.38 1696.02 300.618 1724.56 302.944 1742.58C302.986 1742.91 303.01 1743.24 303.014 1743.57ZM294.514 1743.66C292.072 1724.74 285.932 1694.74 290.51 1677.04C306.134 1616.63 398.805 1476.13 433.72 1418.95C434.816 1417.16 417.504 1396.65 416.699 1397.47C416.699 1397.47 394.143 1430.8 366.283 1474.9C285.089 1603.42 268.364 1649.29 263.544 1663.58C261.277 1670.3 257.509 1680.62 257.291 1713.54C257.126 1738.36 260.466 1743.88 260.809 1748.06C260.998 1750.34 260.959 1750.37 261.617 1752.54C261.78 1753.07 262.645 1755.94 264.855 1758.67C269.393 1764.3 275.22 1764.66 276.24 1764.73C277.376 1764.8 278.52 1764.63 279.659 1764.58C279.664 1764.57 282.984 1763.68 282.99 1763.68C283.489 1763.49 286.127 1762.47 288.693 1759.98C293.966 1754.88 294.47 1748.51 294.557 1747.39C294.656 1746.15 294.527 1744.91 294.514 1743.66Z" fill="black"/>
<path fill-rule="evenodd" clip-rule="evenodd" d="M345.391 1842.5C344.504 1843.37 343.566 1844.16 342.74 1845.1C341.996 1845.93 337.761 1850.71 336.811 1857.39C336.348 1860.65 336.952 1862.91 337.064 1863.34C337.068 1863.35 338.105 1865.92 338.101 1865.93C338.639 1866.63 339.092 1867.43 339.71 1868.05C340.271 1868.6 343.451 1871.76 349.696 1870.47C352.729 1869.84 355.182 1868.34 355.641 1868.06C357.5 1866.92 357.496 1866.88 359.204 1865.38C362.321 1862.64 367.884 1860.72 385.295 1843.17C408.384 1819.89 413.768 1810.42 417.365 1804.36C425.014 1791.48 448.953 1749.4 498.79 1611.34C515.893 1563.96 528.068 1527.27 528.068 1527.27C528.238 1526.23 505.102 1530.48 504.387 1532.39C481.608 1593.1 429.083 1746.33 394.353 1797.99C384.174 1813.13 359.953 1830.62 345.391 1842.5Z" fill="#D1D1D1"/>
<path fill-rule="evenodd" clip-rule="evenodd" d="M340.016 1835.91C354.031 1824.48 377.498 1807.82 387.295 1793.25C421.792 1741.94 473.805 1589.7 496.425 1529.41L497.416 1527.5L498.824 1525.89L500.799 1524.48C501.527 1524.07 502.59 1523.59 503.926 1523.14C509.909 1521.09 524.285 1518.56 527.59 1518.61L529.657 1518.83L531.564 1519.46L534.384 1521.55L536.175 1524.7L536.551 1526.71L536.459 1528.62C536.459 1528.62 524.188 1566.01 506.785 1614.22C456.566 1753.34 432.377 1795.73 424.674 1808.7C420.93 1815 415.372 1824.91 391.327 1849.16C373.62 1867.01 367.982 1868.98 364.811 1871.77C362.548 1873.75 362.549 1873.79 360.087 1875.3C359.412 1875.72 355.836 1877.88 351.415 1878.79C340.287 1881.1 334.712 1875.07 333.718 1874.08C332.825 1873.18 332.108 1872.09 331.332 1871.07L328.85 1865.53C328.673 1864.86 327.667 1861.3 328.396 1856.19C329.686 1847.11 335.374 1840.59 336.383 1839.45C337.339 1838.37 338.412 1837.44 339.433 1836.43C339.618 1836.25 339.813 1836.08 340.016 1835.91ZM345.39 1842.5C344.503 1843.37 343.565 1844.16 342.739 1845.1C341.995 1845.93 337.76 1850.71 336.81 1857.39C336.347 1860.65 336.951 1862.91 337.063 1863.34C337.067 1863.35 338.104 1865.92 338.1 1865.93C338.638 1866.64 339.091 1867.43 339.709 1868.05C340.27 1868.6 343.45 1871.76 349.695 1870.47C352.728 1869.84 355.181 1868.34 355.64 1868.06C357.499 1866.92 357.495 1866.88 359.203 1865.38C362.32 1862.64 367.883 1860.72 385.294 1843.17C408.383 1819.89 413.767 1810.42 417.364 1804.36C425.013 1791.48 448.952 1749.4 498.789 1611.34C515.892 1563.96 528.067 1527.27 528.067 1527.27C528.237 1526.23 505.101 1530.48 504.386 1532.39C481.607 1593.1 429.082 1746.33 394.352 1797.99C384.173 1813.13 359.952 1830.62 345.39 1842.5Z" fill="black"/>
<path fill-rule="evenodd" clip-rule="evenodd" d="M392.64 1647.92C392.136 1648.29 391.59 1648.6 391.132 1649.01C390.719 1649.39 388.368 1651.51 388.379 1655.47C388.383 1657.4 389.001 1658.93 389.116 1659.21C389.119 1659.22 390.053 1661.02 390.052 1661.03C390.476 1661.57 390.851 1662.15 391.321 1662.65C391.745 1663.11 394.156 1665.7 398.171 1666.12C400.122 1666.33 401.604 1665.88 401.881 1665.8C403.005 1665.46 402.998 1665.44 403.987 1664.84C405.791 1663.76 409.295 1663.66 419.155 1656.21C432.232 1646.32 434.894 1641.5 436.699 1638.45C440.536 1631.97 452.375 1610.58 472.193 1534.76C478.995 1508.74 483.552 1488.38 483.552 1488.38C483.565 1487.76 468.637 1485.84 468.345 1486.89C459.058 1520.06 438.911 1604.77 420.835 1629.97C415.536 1637.35 401.156 1643.43 392.64 1647.92Z" fill="#D1D1D1"/>
<path fill-rule="evenodd" clip-rule="evenodd" d="M408.098 1672.29C406.476 1673.26 406.383 1673.32 404.351 1673.93C403.817 1674.1 400.997 1674.97 397.265 1674.58C390.145 1673.82 385.852 1669.25 385.102 1668.45C384.461 1667.76 383.92 1666.99 383.345 1666.24L381.237 1662.4C381.022 1661.87 379.887 1659.05 379.879 1655.49C379.861 1647.63 384.609 1643.45 385.427 1642.71C386.114 1642.09 386.905 1641.58 387.657 1641.04C387.98 1640.8 388.317 1640.59 388.67 1640.41C393.638 1637.78 400.668 1634.63 406.599 1630.96C409.61 1629.09 412.36 1627.19 413.928 1625.01C431.653 1600.3 451.055 1517.12 460.159 1484.6L461.041 1482.53L462.172 1481.02L465.009 1479L468.588 1478.14C470.283 1478 473.667 1478.18 477.02 1478.56C481.808 1479.11 486.477 1480.27 487.373 1480.74L489.303 1482.09L490.638 1483.67L491.767 1486.19L492.051 1488.54C492.051 1488.54 487.502 1509.8 480.416 1536.91C460.171 1614.37 447.932 1636.16 444.012 1642.78C441.97 1646.23 439.078 1651.79 424.282 1662.99C414.991 1670.01 408.832 1672.06 408.098 1672.29ZM392.639 1647.92C392.135 1648.29 391.589 1648.6 391.131 1649.01C390.718 1649.39 388.368 1651.51 388.378 1655.47C388.383 1657.4 389 1658.93 389.116 1659.21C389.119 1659.22 390.052 1661.02 390.051 1661.03C390.475 1661.57 390.851 1662.15 391.32 1662.65C391.744 1663.11 394.155 1665.7 398.171 1666.12C400.122 1666.33 401.603 1665.88 401.881 1665.8C403.004 1665.46 402.998 1665.44 403.986 1664.84C405.79 1663.76 409.294 1663.66 419.155 1656.21C432.231 1646.32 434.893 1641.5 436.698 1638.45C440.535 1631.97 452.375 1610.58 472.193 1534.76C478.994 1508.74 483.552 1488.38 483.552 1488.38C483.565 1487.76 468.636 1485.84 468.345 1486.89C459.058 1520.06 438.91 1604.77 420.834 1629.97C415.536 1637.35 401.156 1643.43 392.639 1647.92Z" fill="black"/>
<path fill-rule="evenodd" clip-rule="evenodd" d="M289.919 1520.17C287.604 1529.01 288.885 1554.16 288.745 1554.76C284.878 1571.53 260.371 1564.2 263.676 1548.05C264.096 1546 266.616 1506.67 267.887 1503.32C270.59 1496.19 272.908 1482.99 325.299 1418.85C343.276 1396.83 357.976 1380.2 357.976 1380.2C358.523 1379.79 372.625 1390 371.922 1390.89C349.51 1419.43 297.817 1490.04 289.919 1520.17Z" fill="#D1D1D1"/>
<path fill-rule="evenodd" clip-rule="evenodd" d="M298.143 1522.33C296.43 1528.86 297.029 1545.06 297.198 1551.56C297.276 1554.58 297.078 1556.47 297.029 1556.67C290.63 1584.41 249.881 1573.07 255.35 1546.35C255.679 1544.74 257.271 1519.74 258.555 1508.12C259.002 1504.07 259.594 1501.21 259.942 1500.3C262.716 1492.98 264.931 1479.32 318.717 1413.47C337.44 1390.55 352.92 1373.36 352.92 1373.36L355.004 1372.23L357.401 1371.7L359.883 1371.88L361.906 1372.57C364.053 1373.55 373.146 1379.95 376.605 1383.19L378.726 1385.55L380.144 1388.52L380.446 1390.58L380.282 1392.5L379.691 1394.35L378.608 1396.14C356.7 1424.04 305.864 1492.88 298.143 1522.33ZM289.921 1520.17C297.819 1490.04 349.512 1419.43 371.923 1390.89C372.627 1390 358.525 1379.79 357.978 1380.2C357.978 1380.2 343.278 1396.83 325.301 1418.85C272.91 1482.99 270.592 1496.19 267.889 1503.31C266.618 1506.67 264.097 1546 263.677 1548.05C260.372 1564.2 284.879 1571.52 288.747 1554.76C288.887 1554.16 287.605 1529.01 289.921 1520.17Z" fill="black"/>
<path fill-rule="evenodd" clip-rule="evenodd" d="M179.02 1792.48C179.935 1792.59 179.975 1792.62 180.542 1793.34C181.318 1794.34 181.083 1794.45 180.928 1795.7C179.062 1810.74 160.088 1822.02 143.179 1815.77C137.328 1813.6 133.614 1809.79 133.061 1809.24C131.706 1807.88 132.089 1807.61 132.778 1805.81C132.781 1805.81 134.372 1805.1 134.389 1805.1C135.537 1805.07 135.498 1805.29 136.375 1806.03C148.136 1816.01 164.942 1811.51 172.225 1803.15C173.273 1801.95 175.564 1799.18 176.389 1794.99C176.616 1793.83 176.412 1793.67 177.339 1792.95C178.063 1792.38 178.108 1792.37 179.02 1792.48Z" fill="#282603"/>
<path fill-rule="evenodd" clip-rule="evenodd" d="M301.907 1727.9C302.822 1728.01 302.862 1728.04 303.429 1728.76C304.205 1729.76 303.97 1729.87 303.815 1731.12C301.949 1746.16 282.975 1757.44 266.066 1751.19C260.215 1749.02 256.501 1745.21 255.948 1744.66C254.593 1743.3 254.976 1743.03 255.665 1741.23C255.668 1741.23 257.259 1740.52 257.276 1740.52C258.424 1740.49 258.385 1740.71 259.262 1741.45C271.023 1751.43 287.829 1746.93 295.112 1738.57C296.16 1737.37 298.451 1734.6 299.276 1730.41C299.503 1729.25 299.299 1729.09 300.226 1728.37C300.95 1727.8 300.995 1727.79 301.907 1727.9Z" fill="#282603"/>
<path fill-rule="evenodd" clip-rule="evenodd" d="M291.991 1541.11C292.861 1541.41 292.894 1541.45 293.293 1542.28C293.787 1543.31 293.616 1543.37 293.245 1544.45C290.029 1553.84 276.357 1558.86 265.386 1552.84C260.983 1550.43 258.513 1546.53 258.501 1546.49C258.352 1545.92 258.034 1545.35 258.116 1544.77C258.119 1544.75 258.963 1543.29 258.972 1543.29C259.519 1543.15 260.057 1542.81 260.613 1542.9C261.966 1543.09 261.818 1543.41 262.756 1544.42C269.057 1551.13 279.925 1550.49 285.217 1546.95C285.599 1546.7 288.072 1545.05 289.023 1542.66C289.389 1541.74 289.348 1541.64 290.245 1541.21C291.075 1540.81 291.123 1540.8 291.991 1541.11Z" fill="#282603"/>
<path fill-rule="evenodd" clip-rule="evenodd" d="M415.174 1663.85C415.406 1664.75 415.39 1664.79 414.92 1665.58C414.291 1666.64 414.118 1666.48 412.936 1666.78C403.382 1669.24 392.421 1661.74 392.235 1650.55C392.165 1646.13 394.335 1642.32 394.405 1642.25C394.814 1641.84 395.163 1641.29 395.709 1641.1C395.727 1641.09 397.451 1641.19 397.46 1641.2C397.846 1641.63 398.427 1641.95 398.619 1642.5C399.009 1643.61 398.727 1643.63 398.335 1644.74C395.447 1652.81 401.495 1659.95 406.998 1661.76C407.408 1661.89 410.058 1662.76 412.409 1662.19C413.323 1661.97 414.013 1662.39 414.128 1662.46C414.921 1662.93 414.943 1662.97 415.174 1663.85Z" fill="#282603"/>
<path fill-rule="evenodd" clip-rule="evenodd" d="M366.833 1865.91C367.151 1866.77 367.149 1866.82 366.763 1867.65C366.286 1868.69 366.14 1868.6 365.077 1868.99C356.223 1872.25 343.535 1864.03 340.607 1851.32C339.51 1846.56 340.403 1842.26 340.451 1842.18C340.748 1841.68 340.924 1841.05 341.394 1840.7C341.408 1840.69 343.039 1840.25 343.043 1840.26C343.526 1840.55 344.146 1840.69 344.485 1841.14C345.338 1842.28 344.838 1842.44 344.921 1844.91C345.226 1853.54 352.357 1861.74 358.111 1864.03C359.449 1864.56 361.457 1865.21 363.719 1864.61C366.121 1863.98 366.738 1865.65 366.833 1865.91Z" fill="#282603"/>
<path d="M266.651 1912.65C281.572 1912.65 293.669 1899.88 293.669 1884.13C293.669 1868.38 281.572 1855.61 266.651 1855.61C251.729 1855.61 239.633 1868.38 239.633 1884.13C239.633 1899.88 251.729 1912.65 266.651 1912.65Z" fill="#9F970D"/>
<path fill-rule="evenodd" clip-rule="evenodd" d="M266.651 1854.13C266.722 1854.13 279.341 1853.32 288.583 1864.7C301.085 1880.09 295.875 1903.83 278.268 1912.01C261.807 1919.66 242.795 1909.6 238.658 1891.32C234.386 1872.44 247.898 1854.48 265.915 1854.14C266.16 1854.13 266.406 1854.13 266.651 1854.13ZM266.651 1855.62C251.74 1855.62 239.634 1868.39 239.634 1884.13C239.634 1899.88 251.74 1912.65 266.651 1912.65C281.563 1912.65 293.669 1899.88 293.669 1884.13C293.669 1868.39 281.563 1855.62 266.651 1855.62Z" fill="#282603"/>
<path d="M266.737 1900.4C276.093 1900.4 283.677 1893.08 283.677 1884.05C283.677 1875.02 276.093 1867.7 266.737 1867.7C257.381 1867.7 249.797 1875.02 249.797 1884.05C249.797 1893.08 257.381 1900.4 266.737 1900.4Z" fill="#9F970D"/>
<path fill-rule="evenodd" clip-rule="evenodd" d="M266.736 1866.21C268.347 1866.22 274.005 1866.2 279.369 1870.86C288.819 1879.07 287.093 1894.44 275.291 1900.32C263.164 1906.37 248.645 1898.1 248.057 1884.98C247.852 1880.42 249.411 1876.03 252.417 1872.58C258.387 1865.74 266.619 1866.21 266.736 1866.21ZM266.736 1867.7C257.387 1867.7 249.796 1875.02 249.796 1884.05C249.796 1893.08 257.387 1900.4 266.736 1900.4C276.086 1900.4 283.676 1893.08 283.676 1884.05C283.676 1875.02 276.086 1867.7 266.736 1867.7Z" fill="#282603"/>
<path d="M212.01 2070.37C226.932 2070.37 239.028 2057.6 239.028 2041.85C239.028 2026.1 226.932 2013.33 212.01 2013.33C197.089 2013.33 184.992 2026.1 184.992 2041.85C184.992 2057.6 197.089 2070.37 212.01 2070.37Z" fill="#9F970D"/>
<path fill-rule="evenodd" clip-rule="evenodd" d="M212.01 2011.85C212.081 2011.85 224.7 2011.04 233.942 2022.42C246.444 2037.81 241.234 2061.55 223.627 2069.73C207.166 2077.38 188.154 2067.32 184.017 2049.04C179.745 2030.16 193.257 2012.2 211.274 2011.86C211.519 2011.85 211.765 2011.85 212.01 2011.85ZM212.01 2013.34C197.099 2013.34 184.993 2026.11 184.993 2041.85C184.993 2057.6 197.099 2070.37 212.01 2070.37C226.922 2070.37 239.028 2057.6 239.028 2041.85C239.028 2026.11 226.922 2013.34 212.01 2013.34Z" fill="#282603"/>
<path d="M212.096 2058.13C221.452 2058.13 229.037 2050.81 229.037 2041.78C229.037 2032.74 221.452 2025.42 212.096 2025.42C202.741 2025.42 195.156 2032.74 195.156 2041.78C195.156 2050.81 202.741 2058.13 212.096 2058.13Z" fill="#9F970D"/>
<path fill-rule="evenodd" clip-rule="evenodd" d="M212.095 2023.93C213.707 2023.95 219.365 2023.93 224.729 2028.59C234.178 2036.8 232.452 2052.16 220.651 2058.05C208.523 2064.1 194.004 2055.83 193.416 2042.71C193.211 2038.14 194.77 2033.75 197.776 2030.31C203.746 2023.46 211.978 2023.94 212.095 2023.93ZM212.095 2025.43C202.746 2025.43 195.156 2032.75 195.156 2041.77C195.156 2050.81 202.746 2058.13 212.095 2058.13C221.445 2058.13 229.035 2050.81 229.035 2041.77C229.035 2032.75 221.445 2025.43 212.095 2025.43Z" fill="#282603"/>
<path fill-rule="evenodd" clip-rule="evenodd" d="M231.566 1454.33L192.731 1545.94C196.247 1567.28 201.142 1584.5 210.107 1589.52L166.215 1729.46L184.735 1812.48C162.249 1746.05 199.138 1658.12 254.749 1553.68L291.648 1584.92L266.514 1654.13C273.012 1673.21 281.633 1683.48 293.485 1680.37L298.207 1746.42C300.225 1685.53 305.976 1669.14 338.43 1616.3L441.382 1686.8L459.852 1673.38L231.566 1454.33Z" fill="black" fill-opacity="0.2"/>
<path fill-rule="evenodd" clip-rule="evenodd" d="M359.19 2025.56C359.19 2025.56 359.502 2111.93 365.427 2195.02C371.083 2274.34 423.552 2345.44 405.974 2341.18C280.928 2310.89 245.215 2208.43 188.361 2230.64C134.309 2251.74 155.76 2356.8 347.169 2513.36C426.66 2578.38 575.31 2626.66 722.621 2640.04C826.81 2649.51 604.342 2480.04 800.062 2486.99C931.504 2491.65 1096.64 2493.67 1163.84 2522.15C1300.16 2579.92 1267.68 2682.49 1373.56 2688.21C1656.08 2703.5 1904.28 2638.21 1973.18 2535.66C1836.09 2655.91 1666.24 2688.58 1500.94 2737C1336.14 2785.28 1163.48 2814.93 982.922 2825.82C-167.603 2660.24 -166.926 2128.76 271.702 1391.35L518.23 1711.76L359.19 2025.56Z" fill="black" fill-opacity="0.2"/>
</g>
<defs>
<clipPath id="clip0_1677_497">
<rect width="2160" height="2700" fill="white"/>
</clipPath>
</defs>
</svg>
