<svg width="2160" height="2700" viewBox="0 0 2160 2700" fill="none" xmlns="http://www.w3.org/2000/svg">
<g clip-path="url(#clip0_1998_956)">
<path fill-rule="evenodd" clip-rule="evenodd" d="M497.952 1657.66C239.611 1637.48 36.8941 1470.5 -271.616 1526.83L-261.267 1367.22C10.1421 1351.51 315.329 1489.7 529.765 1541.07L497.952 1657.66Z" fill="#A4A4A4"/>
<path fill-rule="evenodd" clip-rule="evenodd" d="M497.952 1657.66C239.611 1637.48 36.8941 1470.5 -271.616 1526.83L-261.267 1367.22C10.1421 1351.51 315.329 1489.7 529.765 1541.07L497.952 1657.66ZM496.003 1654.84L527.444 1542.44L526.323 1544.24C475.691 1532.32 429.321 1519.16 328.32 1487.98C236.643 1459.69 160.171 1436.16 76.9465 1415.82C24.9983 1403.13 -77.3187 1379.64 -182.872 1375.34C-216.156 1373.99 -238.747 1374.64 -259.19 1375.67L-259.57 1368.93L-269.608 1518.31C-236.712 1512.68 -171.179 1503 -85.2254 1510.7C75.2897 1525.06 209.413 1589.37 352.715 1628.06C423.465 1647.16 469.023 1652.32 496.003 1654.84Z" fill="black"/>
<path fill-rule="evenodd" clip-rule="evenodd" d="M529.762 1541.07L497.949 1657.66L-13.7499 1513.57L-44.8359 1448.97L261.832 1535.91L329.016 1495.08L529.762 1541.07Z" fill="black" fill-opacity="0.3"/>
<path fill-rule="evenodd" clip-rule="evenodd" d="M1614.64 1422.99C1906.52 1619.4 2199.7 1706.46 2494.07 1665.64L2298.28 1852.43C2085.13 1875.71 1838.17 1742.99 1571.1 1517.56L1614.64 1422.99Z" fill="#A4A4A4"/>
<path fill-rule="evenodd" clip-rule="evenodd" d="M1614.64 1422.99C1906.52 1619.4 2199.7 1706.46 2494.07 1665.64L2298.28 1852.43C2085.13 1875.71 1838.17 1742.99 1571.1 1517.56L1614.64 1422.99ZM1615.76 1426.94L1575.4 1516.75L1573.88 1516.93C1575.74 1518.11 1577.84 1518.84 1579.7 1520.02C1580.72 1520.66 1637.55 1568.72 1709.93 1621.22C1868.25 1736.05 1991.59 1794.09 2089.82 1822.52C2190.48 1851.67 2260.39 1847.7 2295.91 1844.06C2323.48 1817.54 2350.76 1790.72 2378.34 1764.2C2396.59 1746.65 2414.17 1728.34 2433.39 1711.86C2448.6 1698.84 2465.4 1687.79 2481.23 1675.53C2424.06 1682.47 2324.03 1690.33 2196.81 1670.98C2062.59 1650.57 1907.6 1601.47 1734.33 1501.54C1678.79 1469.51 1635.6 1440.44 1615.76 1426.94Z" fill="black"/>
<path fill-rule="evenodd" clip-rule="evenodd" d="M1902.82 1580.54C1840.86 1666.3 1956.92 1750.41 2094.18 1825.01C1943.46 1802.09 1798.54 1696.91 1683.74 1601.43L1770.89 1493.54C1787.75 1564.82 1845.3 1572.65 1902.82 1580.54Z" fill="black" fill-opacity="0.2"/>
</g>
<defs>
<clipPath id="clip0_1998_956">
<rect width="2160" height="2700" fill="white"/>
</clipPath>
</defs>
</svg>
