<svg width="2160" height="2700" viewBox="0 0 2160 2700" fill="none" xmlns="http://www.w3.org/2000/svg">
<path fill-rule="evenodd" clip-rule="evenodd" d="M1099.43 2320.54L1026.28 2409.93C1026.28 2409.93 821.899 2594.23 778.941 2554.42C700.963 2482.19 681.239 2358.28 718.283 2280.72C746.761 2221.09 740.344 2176.85 773.666 2165.38C850.336 2139 1099.43 2320.54 1099.43 2320.54Z" fill="#FF8B3E"/>
<mask id="mask0_1681_3" style="mask-type:luminance" maskUnits="userSpaceOnUse" x="700" y="2162" width="400" height="399">
<path d="M1099.43 2320.54L1026.28 2409.93C1026.28 2409.93 821.899 2594.23 778.941 2554.42C700.963 2482.19 681.239 2358.28 718.283 2280.72C746.761 2221.09 740.344 2176.85 773.666 2165.38C850.336 2139 1099.43 2320.54 1099.43 2320.54Z" fill="white"/>
</mask>
<g mask="url(#mask0_1681_3)">
<path d="M835.279 2307.65C859.347 2310.77 883.152 2292.86 888.449 2267.65C893.746 2242.44 878.53 2219.48 854.462 2216.37C830.394 2213.25 806.589 2231.16 801.292 2256.37C795.995 2281.57 811.212 2304.53 835.279 2307.65Z" fill="#F2EFD5"/>
<path fill-rule="evenodd" clip-rule="evenodd" d="M854.461 2216.37C878.513 2219.48 893.741 2242.47 888.449 2267.65C883.155 2292.84 859.331 2310.77 835.279 2307.65C811.227 2304.54 795.999 2281.56 801.293 2256.36C806.585 2231.18 830.409 2213.25 854.461 2216.37ZM854.124 2218.98C853.688 2218.97 836.366 2217.17 821.559 2231.78C808.266 2244.91 804.039 2264.33 810.741 2279.66C815.964 2291.6 828.469 2300.8 844.696 2299.44C862.094 2297.97 879.324 2283.51 883.142 2263.06C886.096 2247.24 879.021 2236.61 877.873 2234.82C869.329 2221.48 855.777 2219.32 854.124 2218.98Z" fill="#54C5ED"/>
<path d="M883.997 2393.39C904.08 2395.99 923.741 2382.02 927.909 2362.18C932.077 2342.35 919.175 2324.16 899.092 2321.56C879.008 2318.96 859.347 2332.93 855.179 2352.77C851.011 2372.6 863.913 2390.79 883.997 2393.39Z" fill="#F2EFD5"/>
<path fill-rule="evenodd" clip-rule="evenodd" d="M899.091 2321.56C919.161 2324.16 932.073 2342.36 927.909 2362.18C923.743 2382.01 904.067 2395.99 883.996 2393.39C863.926 2390.8 851.014 2372.59 855.18 2352.76C859.344 2332.95 879.021 2318.96 899.091 2321.56ZM898.751 2324.17C898.341 2324.15 883.508 2323.02 871.699 2335.01C858.779 2348.12 858.328 2367.64 870.722 2378.41C878.947 2385.56 890.969 2387.13 901.197 2383.12C901.231 2383.11 912.176 2379.57 918.666 2368.41C925.883 2356 923.978 2341.15 913.766 2331.72C907.5 2325.93 900.488 2324.55 898.751 2324.17Z" fill="#54C5ED"/>
<path d="M1023.57 2342.66C1043.65 2345.26 1063.31 2331.29 1067.48 2311.46C1071.65 2291.62 1058.75 2273.43 1038.66 2270.83C1018.58 2268.23 998.918 2282.2 994.749 2302.04C990.581 2321.88 1003.48 2340.06 1023.57 2342.66Z" fill="#F2EFD5"/>
<path fill-rule="evenodd" clip-rule="evenodd" d="M1038.66 2270.83C1058.73 2273.43 1071.64 2291.64 1067.48 2311.46C1063.31 2331.28 1043.64 2345.27 1023.57 2342.67C1003.5 2340.07 990.584 2321.86 994.75 2302.04C998.915 2282.22 1018.59 2268.23 1038.66 2270.83ZM1038.32 2273.45C1037.91 2273.42 1023.08 2272.29 1011.27 2284.28C998.35 2297.4 997.899 2316.91 1010.29 2327.68C1018.52 2334.84 1030.54 2336.4 1040.77 2332.39C1040.8 2332.38 1051.75 2328.85 1058.24 2317.68C1065.45 2305.27 1063.55 2290.43 1053.34 2280.99C1047.07 2275.2 1040.06 2273.83 1038.32 2273.45Z" fill="#54C5ED"/>
<path d="M724.25 2443.51C746.376 2446.38 768.203 2430.19 773.001 2407.35C777.799 2384.52 763.752 2363.69 741.625 2360.82C719.499 2357.96 697.673 2374.15 692.875 2396.98C688.077 2419.81 702.124 2440.65 724.25 2443.51Z" fill="#F2EFD5"/>
<path fill-rule="evenodd" clip-rule="evenodd" d="M741.625 2360.83C763.736 2363.69 777.794 2384.54 773.001 2407.35C768.206 2430.17 746.361 2446.38 724.249 2443.51C702.138 2440.65 688.08 2419.8 692.876 2396.98C697.669 2374.17 719.514 2357.96 741.625 2360.83ZM741.287 2363.44C741.043 2363.43 724.811 2361.85 711.347 2375.46C696.087 2390.88 695.223 2414.6 709.244 2427.46C720.374 2437.66 737.637 2438.09 751.272 2428.43C769.182 2415.74 774.311 2390.3 760.003 2374.01C752.57 2365.56 743.255 2363.86 741.287 2363.44Z" fill="#54C5ED"/>
<path d="M995.242 2457.24C1017.37 2460.11 1039.19 2443.92 1043.99 2421.09C1048.79 2398.25 1034.74 2377.42 1012.62 2374.55C990.491 2371.69 968.665 2387.88 963.867 2410.71C959.069 2433.54 973.116 2454.38 995.242 2457.24Z" fill="#F2EFD5"/>
<path fill-rule="evenodd" clip-rule="evenodd" d="M1012.62 2374.56C1034.73 2377.42 1048.79 2398.27 1043.99 2421.08C1039.2 2443.9 1017.35 2460.11 995.241 2457.25C973.131 2454.38 959.073 2433.53 963.868 2410.71C968.661 2387.9 990.506 2371.7 1012.62 2374.56ZM1012.28 2377.17C1012.04 2377.16 995.803 2375.58 982.339 2389.19C967.079 2404.61 966.215 2428.33 980.236 2441.19C991.366 2451.39 1008.63 2451.82 1022.26 2442.16C1040.17 2429.47 1045.3 2404.03 1031 2387.74C1023.56 2379.29 1014.25 2377.59 1012.28 2377.17Z" fill="#54C5ED"/>
</g>
<path fill-rule="evenodd" clip-rule="evenodd" d="M1099.43 2320.54L1026.28 2409.93C1026.28 2409.93 821.899 2594.23 778.941 2554.42C700.963 2482.19 681.239 2358.28 718.283 2280.72C746.761 2221.09 740.344 2176.85 773.666 2165.38C850.336 2139 1099.43 2320.54 1099.43 2320.54ZM1093.57 2321.33C1078.96 2311.42 1022.6 2273.66 961.461 2239.62C890.245 2199.97 852.861 2187.41 840.964 2183.48C788.713 2166.24 774.465 2176.61 770.041 2180.24C754.203 2193.25 753.97 2229.88 734.003 2276.8C729.935 2286.37 726.848 2291.67 722.836 2303.78C706.009 2354.53 710.364 2423.87 740.303 2483.38C750.966 2504.57 765.219 2526.12 786.402 2546.35C795.533 2555.06 825.715 2541.87 826.955 2541.36C872.712 2522.3 944.025 2471.01 1012.09 2413.88C1020.85 2406.53 1020.79 2406.46 1021.57 2405.84C1021.65 2405.77 1021.76 2405.75 1021.83 2405.67L1093.57 2321.33Z" fill="black"/>
<path fill-rule="evenodd" clip-rule="evenodd" d="M1098.28 2323.4L1042.78 2419.67C1042.78 2419.67 771.734 2559.97 719.341 2526.63C624.25 2466.12 679.508 2412.88 700.684 2332.68C716.962 2271.02 700.925 2228.76 732.476 2213.39C805.078 2178.03 1098.28 2323.4 1098.28 2323.4Z" fill="#FF8B3E"/>
<mask id="mask1_1681_3" style="mask-type:luminance" maskUnits="userSpaceOnUse" x="665" y="2207" width="434" height="325">
<path d="M1098.28 2323.4L1042.78 2419.67C1042.78 2419.67 771.734 2559.97 719.341 2526.63C624.25 2466.12 679.508 2412.88 700.684 2332.68C716.962 2271.02 700.925 2228.76 732.476 2213.39C805.078 2178.03 1098.28 2323.4 1098.28 2323.4Z" fill="white"/>
</mask>
<g mask="url(#mask1_1681_3)">
<path d="M825.884 2344.15C851.12 2344.15 871.577 2323.71 871.577 2298.5C871.577 2273.28 851.12 2252.84 825.884 2252.84C800.649 2252.84 780.191 2273.28 780.191 2298.5C780.191 2323.71 800.649 2344.15 825.884 2344.15Z" fill="#F2EFD5"/>
<path fill-rule="evenodd" clip-rule="evenodd" d="M825.883 2252.85C851.102 2252.85 871.576 2273.31 871.576 2298.5C871.576 2323.7 851.102 2344.16 825.883 2344.16C800.665 2344.16 780.191 2323.7 780.191 2298.5C780.191 2273.31 800.665 2252.85 825.883 2252.85ZM825.885 2255.49C825.555 2255.52 806.966 2255.99 794.922 2272.39C786.096 2284.4 784.552 2300.04 790.76 2313.06C790.905 2313.37 795.206 2323.89 807.003 2330.5C820.539 2338.08 835.589 2336.67 846.195 2330.24C846.533 2330.04 858.976 2323.47 863.657 2307.99C868.416 2292.26 863.154 2274.51 848.729 2263.75C838.652 2256.23 828.438 2255.66 825.885 2255.49Z" fill="#54C5ED"/>
<path d="M894 2421.5C915.058 2421.5 932.129 2405.42 932.129 2385.58C932.129 2365.73 915.058 2349.65 894 2349.65C872.942 2349.65 855.871 2365.73 855.871 2385.58C855.871 2405.42 872.942 2421.5 894 2421.5Z" fill="#F2EFD5"/>
<path fill-rule="evenodd" clip-rule="evenodd" d="M893.999 2349.65C915.044 2349.65 932.129 2365.75 932.129 2385.58C932.129 2405.41 915.044 2421.51 893.999 2421.51C872.956 2421.51 855.871 2405.41 855.871 2385.58C855.871 2365.75 872.956 2349.65 893.999 2349.65ZM894.007 2352.28L894.007 2352.29C893.909 2352.3 878.163 2353 868.52 2366.19C858.421 2379.98 862.035 2397.47 874.605 2406.49C874.648 2406.52 883.329 2413.6 896.324 2412.94C897.217 2412.9 906.628 2412.78 915.17 2405.87C929.925 2393.93 929.825 2371.47 912.767 2359.04C904.475 2353 896.006 2352.47 894.007 2352.28Z" fill="#54C5ED"/>
<path d="M1025.58 2354.51C1046.64 2354.51 1063.71 2338.43 1063.71 2318.59C1063.71 2298.75 1046.64 2282.66 1025.58 2282.66C1004.52 2282.66 987.453 2298.75 987.453 2318.59C987.453 2338.43 1004.52 2354.51 1025.58 2354.51Z" fill="#F2EFD5"/>
<path fill-rule="evenodd" clip-rule="evenodd" d="M1025.58 2282.66C1046.63 2282.66 1063.71 2298.76 1063.71 2318.59C1063.71 2338.42 1046.63 2354.52 1025.58 2354.52C1004.54 2354.52 987.453 2338.42 987.453 2318.59C987.453 2298.76 1004.54 2282.66 1025.58 2282.66ZM1025.59 2285.29L1025.59 2285.3C1025.49 2285.31 1009.75 2286.02 1000.1 2299.2C990.003 2312.99 993.617 2330.48 1006.19 2339.5C1006.23 2339.53 1014.91 2346.61 1027.91 2345.95C1028.8 2345.91 1038.21 2345.79 1046.75 2338.88C1061.51 2326.94 1061.41 2304.48 1044.35 2292.05C1036.06 2286.01 1027.59 2285.48 1025.59 2285.29Z" fill="#54C5ED"/>
<path d="M741.69 2490.45C764.89 2490.45 783.697 2471.94 783.697 2449.1C783.697 2426.26 764.89 2407.74 741.69 2407.74C718.491 2407.74 699.684 2426.26 699.684 2449.1C699.684 2471.94 718.491 2490.45 741.69 2490.45Z" fill="#F2EFD5"/>
<path fill-rule="evenodd" clip-rule="evenodd" d="M741.689 2407.75C764.874 2407.75 783.696 2426.28 783.696 2449.1C783.696 2471.92 764.874 2490.46 741.689 2490.46C718.506 2490.46 699.684 2471.92 699.684 2449.1C699.684 2426.28 718.506 2407.75 741.689 2407.75ZM741.691 2410.38C741.562 2410.39 724.15 2410.95 713.269 2426.14C705.35 2437.2 704.539 2451 709.951 2461.98C709.995 2462.06 714.005 2471.71 724.989 2477.56C737.501 2484.21 750.882 2482.62 760.062 2477.19C760.178 2477.12 771.93 2471.13 776.082 2456.9C780.359 2442.24 774.73 2426.35 761.417 2417.16C752.53 2411.02 743.783 2410.54 741.691 2410.38Z" fill="#54C5ED"/>
<path d="M1021.25 2469.65C1044.45 2469.65 1063.26 2451.14 1063.26 2428.3C1063.26 2405.46 1044.45 2386.95 1021.25 2386.95C998.049 2386.95 979.242 2405.46 979.242 2428.3C979.242 2451.14 998.049 2469.65 1021.25 2469.65Z" fill="#F2EFD5"/>
<path fill-rule="evenodd" clip-rule="evenodd" d="M1021.25 2386.95C1044.43 2386.95 1063.25 2405.48 1063.25 2428.3C1063.25 2451.13 1044.43 2469.66 1021.25 2469.66C998.064 2469.66 979.242 2451.13 979.242 2428.3C979.242 2405.48 998.064 2386.95 1021.25 2386.95ZM1021.25 2389.59C1021.12 2389.59 1003.71 2390.16 992.828 2405.35C984.909 2416.41 984.097 2430.2 989.509 2441.18C989.553 2441.26 993.563 2450.91 1004.55 2456.76C1017.06 2463.42 1030.44 2461.82 1039.62 2456.39C1039.74 2456.33 1051.49 2450.34 1055.64 2436.11C1059.92 2421.44 1054.29 2405.55 1040.98 2396.36C1032.09 2390.22 1023.34 2389.75 1021.25 2389.59Z" fill="#54C5ED"/>
</g>
<path fill-rule="evenodd" clip-rule="evenodd" d="M1098.28 2323.4L1042.78 2419.67C1042.78 2419.67 771.734 2559.97 719.341 2526.63C624.25 2466.12 679.508 2412.88 700.684 2332.68C716.962 2271.02 700.925 2228.76 732.476 2213.39C805.078 2178.03 1098.28 2323.4 1098.28 2323.4ZM1092.62 2325.16C1076.86 2317.98 1016.66 2290.93 951.327 2266.69C875.809 2238.68 835.331 2229.64 824.961 2227.27C811.438 2224.18 763.125 2213.42 739.792 2222.9C726.739 2228.2 724.138 2238.77 722.506 2264.45C721.103 2286.34 720.328 2310.48 711.792 2340.87C696.68 2394.69 668.802 2434.09 680.937 2468.89C687.481 2487.66 704.915 2503.25 725.56 2516.83C729.644 2519.52 751.54 2530.84 858.723 2492.04C872.357 2487.11 932.099 2465.73 1026.72 2420.63C1032.98 2417.65 1032.97 2417.64 1039.2 2414.61L1039.21 2414.63L1092.62 2325.16Z" fill="black"/>
<path fill-rule="evenodd" clip-rule="evenodd" d="M1125.22 2292.4L1176.94 2401.99C1176.94 2401.99 1413.33 2569.35 1460.06 2538.69C1498.34 2513.56 1503.54 2424.11 1500.86 2379.14C1496.5 2306.02 1491.68 2202.44 1459.62 2181.64C1393.26 2138.62 1136.5 2349.52 1125.22 2292.4Z" fill="#FF8B3E"/>
<mask id="mask2_1681_3" style="mask-type:luminance" maskUnits="userSpaceOnUse" x="1125" y="2175" width="377" height="368">
<path d="M1125.22 2292.4L1176.94 2401.99C1176.94 2401.99 1413.33 2569.35 1460.06 2538.69C1498.34 2513.56 1503.54 2424.11 1500.86 2379.14C1496.5 2306.02 1491.68 2202.44 1459.62 2181.64C1393.26 2138.62 1136.5 2349.52 1125.22 2292.4Z" fill="white"/>
</mask>
<g mask="url(#mask2_1681_3)">
<path d="M1254.48 2371.7C1273.96 2374.71 1289.68 2360.17 1289.6 2339.22C1289.52 2318.26 1273.67 2298.83 1254.19 2295.82C1234.71 2292.81 1218.98 2307.35 1219.06 2328.31C1219.14 2349.26 1235 2368.69 1254.48 2371.7Z" fill="#F2EFD5"/>
<path fill-rule="evenodd" clip-rule="evenodd" d="M1254.19 2295.83C1273.65 2298.84 1289.52 2318.28 1289.6 2339.21C1289.68 2360.16 1273.94 2374.71 1254.48 2371.7C1235.01 2368.69 1219.14 2349.25 1219.06 2328.31C1218.98 2307.37 1234.72 2292.82 1254.19 2295.83ZM1253.79 2298.43C1253.77 2298.43 1238.93 2296.73 1230.43 2309.28C1224.21 2318.46 1224.28 2331.28 1229.5 2341.94C1229.55 2342.04 1233.15 2350.57 1241.81 2356.99C1253.81 2365.9 1267.25 2365.79 1275.67 2357.33C1287.23 2345.72 1285.7 2321.98 1269.98 2307.26C1262.69 2300.44 1255.52 2298.86 1253.79 2298.43Z" fill="#54C5ED"/>
<path d="M1337.22 2474.45C1361.62 2478.22 1381.33 2461.73 1381.24 2437.62C1381.15 2413.51 1361.29 2390.9 1336.89 2387.13C1312.48 2383.35 1292.77 2399.84 1292.86 2423.95C1292.96 2448.07 1312.81 2470.67 1337.22 2474.45Z" fill="#F2EFD5"/>
<path fill-rule="evenodd" clip-rule="evenodd" d="M1336.89 2387.13C1361.27 2390.9 1381.15 2413.53 1381.24 2437.62C1381.33 2461.72 1361.61 2478.22 1337.22 2474.45C1312.83 2470.68 1292.96 2448.05 1292.86 2423.95C1292.77 2399.86 1312.5 2383.36 1336.89 2387.13ZM1336.48 2389.73C1336.27 2389.72 1317.91 2387.44 1306.53 2401.26C1297.4 2412.35 1297.74 2428.01 1304.25 2440.37C1304.6 2441.04 1310.22 2453.24 1324.69 2461.14C1336.92 2467.82 1352.62 2469.29 1364.06 2460.1C1369.95 2455.37 1374.52 2447.35 1374.82 2437.16C1374.86 2435.84 1375.89 2421.78 1364.35 2407.42C1352.74 2392.96 1338.57 2390.2 1336.48 2389.73Z" fill="#54C5ED"/>
<path d="M1421.01 2323.86C1445.42 2327.63 1465.13 2311.14 1465.03 2287.03C1464.94 2262.92 1445.08 2240.31 1420.68 2236.54C1396.28 2232.76 1376.57 2249.25 1376.66 2273.36C1376.75 2297.48 1396.61 2320.08 1421.01 2323.86Z" fill="#F2EFD5"/>
<path fill-rule="evenodd" clip-rule="evenodd" d="M1420.68 2236.54C1445.07 2240.31 1464.94 2262.94 1465.03 2287.03C1465.12 2311.13 1445.4 2327.63 1421.01 2323.86C1396.62 2320.09 1376.75 2297.46 1376.66 2273.36C1376.57 2249.27 1396.29 2232.77 1420.68 2236.54ZM1420.28 2239.15C1420.06 2239.13 1401.7 2236.85 1390.32 2250.67C1381.19 2261.76 1381.53 2277.42 1388.04 2289.78C1388.39 2290.45 1394.01 2302.65 1408.48 2310.55C1420.71 2317.23 1436.41 2318.7 1447.85 2309.51C1453.74 2304.78 1458.31 2296.76 1458.61 2286.57C1458.65 2285.25 1459.68 2271.19 1448.15 2256.83C1436.53 2242.37 1422.36 2239.61 1420.28 2239.15Z" fill="#54C5ED"/>
<path d="M1463.9 2465.11C1482.12 2467.93 1496.83 2452.02 1496.74 2429.57C1496.66 2407.11 1481.81 2386.63 1463.59 2383.81C1445.36 2380.99 1430.65 2396.91 1430.74 2419.36C1430.83 2441.81 1445.67 2462.29 1463.9 2465.11Z" fill="#F2EFD5"/>
<path fill-rule="evenodd" clip-rule="evenodd" d="M1463.59 2383.81C1481.8 2386.63 1496.66 2407.14 1496.74 2429.56C1496.83 2452 1482.11 2467.93 1463.9 2465.12C1445.68 2462.3 1430.82 2441.79 1430.74 2419.36C1430.65 2396.93 1445.37 2381 1463.59 2383.81ZM1463.19 2386.42C1463.04 2386.42 1449.56 2384.78 1441.77 2398.23C1436.19 2407.87 1435.81 2421.78 1440.96 2433.99C1440.99 2434.07 1444.12 2442.69 1451.64 2449.53C1461.91 2458.84 1474.24 2459.86 1482.74 2450.17C1492.38 2439.17 1493.65 2417.1 1482.34 2400.55C1474.78 2389.49 1466.21 2387.17 1463.19 2386.42Z" fill="#54C5ED"/>
</g>
<path fill-rule="evenodd" clip-rule="evenodd" d="M1128.03 2298.35C1126.66 2296.84 1125.71 2294.87 1125.22 2292.4L1128.03 2298.35ZM1128.03 2298.35C1158.37 2331.73 1396.13 2140.48 1459.62 2181.64C1491.68 2202.44 1496.5 2306.02 1500.86 2379.14C1503.54 2424.11 1498.34 2513.56 1460.06 2538.69C1413.33 2569.35 1176.94 2401.99 1176.94 2401.99L1128.03 2298.35ZM1135.85 2306L1180.86 2397.85L1180.9 2397.8C1259.19 2450.53 1382.44 2524.98 1436.87 2531.82C1450.78 2533.56 1454.38 2530.1 1455.25 2529.47C1477.55 2513.27 1488.64 2465.15 1489.84 2410.83C1490.25 2392.71 1489.46 2382.31 1488 2358.56C1484.34 2299.35 1479.41 2221.3 1459.16 2195.31C1456.01 2191.28 1450.05 2184.66 1430.57 2185.93C1392.14 2188.46 1329.72 2220.12 1275.11 2248.45C1212.72 2280.78 1160.21 2309.26 1135.85 2306Z" fill="black"/>
<path fill-rule="evenodd" clip-rule="evenodd" d="M1134.44 2307.62L1189.93 2403.89C1189.93 2403.89 1444.95 2527.82 1495.62 2491.92C1537.13 2462.5 1543.11 2376.99 1540.4 2334.77C1535.99 2266.12 1534.65 2204.58 1500.06 2189.57C1428.44 2158.53 1146.41 2360.09 1134.44 2307.62Z" fill="#FF8B3E"/>
<mask id="mask3_1681_3" style="mask-type:luminance" maskUnits="userSpaceOnUse" x="1134" y="2186" width="407" height="313">
<path d="M1134.44 2307.62L1189.93 2403.89C1189.93 2403.89 1444.95 2527.82 1495.62 2491.92C1537.13 2462.5 1543.11 2376.99 1540.4 2334.77C1535.99 2266.12 1534.65 2204.58 1500.06 2189.57C1428.44 2158.53 1146.41 2360.09 1134.44 2307.62Z" fill="white"/>
</mask>
<g mask="url(#mask3_1681_3)">
<path d="M1273.93 2363.82C1294.98 2363.82 1312.06 2347.74 1312.06 2327.9C1312.06 2308.05 1294.98 2291.97 1273.93 2291.97C1252.87 2291.97 1235.8 2308.05 1235.8 2327.9C1235.8 2347.74 1252.87 2363.82 1273.93 2363.82Z" fill="#F2EFD5"/>
<path fill-rule="evenodd" clip-rule="evenodd" d="M1273.93 2291.97C1294.97 2291.97 1312.05 2308.07 1312.05 2327.9C1312.05 2347.73 1294.97 2363.83 1273.93 2363.83C1252.88 2363.83 1235.8 2347.73 1235.8 2327.9C1235.8 2308.07 1252.88 2291.97 1273.93 2291.97ZM1273.93 2294.6L1273.93 2294.61C1273.84 2294.62 1258.09 2295.32 1248.45 2308.51C1238.35 2322.3 1241.96 2339.79 1254.53 2348.81C1254.57 2348.84 1263.25 2355.92 1276.25 2355.26C1277.14 2355.22 1286.55 2355.1 1295.1 2348.19C1309.85 2336.25 1309.75 2313.79 1292.69 2301.36C1284.4 2295.32 1275.93 2294.79 1273.93 2294.6Z" fill="#54C5ED"/>
<path d="M1363 2449.06C1389.39 2449.06 1410.77 2430.55 1410.77 2407.71C1410.77 2384.88 1389.39 2366.37 1363 2366.37C1336.62 2366.37 1315.23 2384.88 1315.23 2407.71C1315.23 2430.55 1336.62 2449.06 1363 2449.06Z" fill="#F2EFD5"/>
<path fill-rule="evenodd" clip-rule="evenodd" d="M1363 2366.37C1389.37 2366.37 1410.77 2384.9 1410.77 2407.71C1410.77 2430.53 1389.37 2449.06 1363 2449.06C1336.64 2449.06 1315.23 2430.53 1315.23 2407.71C1315.23 2384.9 1336.64 2366.37 1363 2366.37ZM1363 2369.01C1338.22 2371.04 1322.74 2387.94 1322.1 2404.7C1322.03 2406.63 1321.41 2416.68 1330.2 2426.59C1339.54 2437.13 1356.83 2442.99 1373.61 2439.55C1391.73 2435.85 1406 2421.36 1404.43 2403.33C1402.92 2386.02 1386.36 2371.23 1365.05 2369.17C1364.03 2369.07 1364.03 2369.08 1363 2369.01Z" fill="#54C5ED"/>
<path d="M1454.26 2294.09C1480.64 2294.09 1502.03 2275.58 1502.03 2252.74C1502.03 2229.91 1480.64 2211.4 1454.26 2211.4C1427.88 2211.4 1406.49 2229.91 1406.49 2252.74C1406.49 2275.58 1427.88 2294.09 1454.26 2294.09Z" fill="#F2EFD5"/>
<path fill-rule="evenodd" clip-rule="evenodd" d="M1454.26 2211.4C1480.62 2211.4 1502.03 2229.93 1502.03 2252.74C1502.03 2275.56 1480.62 2294.09 1454.26 2294.09C1427.89 2294.09 1406.49 2275.56 1406.49 2252.74C1406.49 2229.93 1427.89 2211.4 1454.26 2211.4ZM1454.26 2214.04C1429.47 2216.08 1413.99 2232.97 1413.35 2249.73C1413.28 2251.66 1412.66 2261.71 1421.45 2271.62C1430.79 2282.17 1448.08 2288.03 1464.87 2284.58C1482.98 2280.88 1497.26 2266.39 1495.69 2248.36C1494.18 2231.05 1477.61 2216.26 1456.3 2214.2C1455.28 2214.1 1455.28 2214.11 1454.26 2214.04Z" fill="#54C5ED"/>
<path d="M1500.07 2421.65C1519.77 2421.65 1535.74 2404.41 1535.74 2383.15C1535.74 2361.89 1519.77 2344.66 1500.07 2344.66C1480.36 2344.66 1464.39 2361.89 1464.39 2383.15C1464.39 2404.41 1480.36 2421.65 1500.07 2421.65Z" fill="#F2EFD5"/>
<path fill-rule="evenodd" clip-rule="evenodd" d="M1500.07 2344.66C1519.76 2344.66 1535.74 2361.91 1535.74 2383.15C1535.74 2404.4 1519.76 2421.65 1500.07 2421.65C1480.38 2421.65 1464.39 2404.4 1464.39 2383.15C1464.39 2361.91 1480.38 2344.66 1500.07 2344.66ZM1500.07 2347.3C1499.95 2347.31 1485.48 2347.86 1476.63 2361.8C1469.21 2373.45 1469.52 2388.49 1476.66 2399.53C1483.16 2409.58 1495.28 2415.46 1507.39 2412.25C1518.13 2409.4 1527.77 2399.03 1529.31 2384.84C1529.41 2383.88 1531.38 2370.91 1522.22 2359.31C1513.41 2348.15 1502.2 2347.48 1500.07 2347.3Z" fill="#54C5ED"/>
</g>
<path fill-rule="evenodd" clip-rule="evenodd" d="M1137.67 2313.22C1136.07 2311.84 1134.98 2309.99 1134.44 2307.62L1137.67 2313.22ZM1137.67 2313.22C1171.43 2342.37 1431.68 2159.93 1500.06 2189.57C1534.65 2204.58 1535.99 2266.12 1540.4 2334.77C1543.12 2376.99 1537.13 2462.5 1495.62 2491.92C1444.95 2527.82 1189.93 2403.89 1189.93 2403.89L1137.67 2313.22ZM1146.06 2320.2L1193.09 2399.21C1228.57 2415.41 1298.35 2445.61 1362.94 2466.33C1376.44 2470.65 1451.26 2495.21 1482.57 2486.63C1486.97 2485.42 1489.29 2484.02 1493.11 2480.67C1517.56 2459.3 1527.89 2410.54 1529.27 2364.63C1529.8 2346.61 1528.78 2335.08 1528 2322.71C1524.52 2267.93 1522.15 2215.4 1498.82 2201.03C1495.54 2199.02 1486.49 2193.44 1456.65 2199.79C1403.43 2211.11 1321.37 2252.9 1251.47 2284.92C1201.79 2307.67 1165.44 2322.09 1146.06 2320.2Z" fill="black"/>
<path fill-rule="evenodd" clip-rule="evenodd" d="M1215.48 2288.36C1240.67 2309.83 1209.17 2394.93 1195.61 2408.96C1166.05 2439.57 1027.93 2454.06 1009.99 2439.9C987.392 2422.05 1006.48 2318.02 1028.56 2281.64C1051.35 2244.1 1190.29 2266.89 1215.48 2288.36Z" fill="#FF8B3E"/>
<mask id="mask4_1681_3" style="mask-type:luminance" maskUnits="userSpaceOnUse" x="999" y="2261" width="226" height="185">
<path d="M1215.48 2288.36C1240.67 2309.83 1209.17 2394.93 1195.61 2408.96C1166.05 2439.57 1027.93 2454.06 1009.99 2439.9C987.392 2422.05 1006.48 2318.02 1028.56 2281.64C1051.35 2244.1 1190.29 2266.89 1215.48 2288.36Z" fill="white"/>
</mask>
<g mask="url(#mask4_1681_3)">
<path d="M1075.93 2345.73C1096.99 2345.73 1114.06 2329.64 1114.06 2309.8C1114.06 2289.96 1096.99 2273.87 1075.93 2273.87C1054.88 2273.87 1037.8 2289.96 1037.8 2309.8C1037.8 2329.64 1054.88 2345.73 1075.93 2345.73Z" fill="#F2EFD5"/>
<path fill-rule="evenodd" clip-rule="evenodd" d="M1075.93 2273.88C1096.98 2273.88 1114.06 2289.98 1114.06 2309.8C1114.06 2329.63 1096.98 2345.73 1075.93 2345.73C1054.89 2345.73 1037.8 2329.63 1037.8 2309.8C1037.8 2289.98 1054.89 2273.88 1075.93 2273.88ZM1075.94 2276.51L1075.94 2276.51C1075.84 2276.52 1060.1 2277.23 1050.45 2290.41C1040.35 2304.21 1043.97 2321.69 1056.54 2330.72C1056.58 2330.75 1065.26 2337.82 1078.26 2337.16C1079.15 2337.12 1088.56 2337.01 1097.1 2330.1C1111.86 2318.16 1111.76 2295.69 1094.7 2283.27C1086.41 2277.22 1077.94 2276.7 1075.94 2276.51Z" fill="#54C5ED"/>
<path d="M1152.86 2417.8C1173.92 2417.8 1190.99 2401.71 1190.99 2381.87C1190.99 2362.03 1173.92 2345.94 1152.86 2345.94C1131.8 2345.94 1114.73 2362.03 1114.73 2381.87C1114.73 2401.71 1131.8 2417.8 1152.86 2417.8Z" fill="#F2EFD5"/>
<path fill-rule="evenodd" clip-rule="evenodd" d="M1152.86 2345.95C1173.9 2345.95 1190.99 2362.05 1190.99 2381.87C1190.99 2401.7 1173.9 2417.8 1152.86 2417.8C1131.82 2417.8 1114.73 2401.7 1114.73 2381.87C1114.73 2362.05 1131.82 2345.95 1152.86 2345.95ZM1152.87 2348.57L1152.87 2348.58C1152.77 2348.59 1137.02 2349.3 1127.38 2362.48C1117.28 2376.27 1120.89 2393.76 1133.46 2402.78C1133.51 2402.82 1142.19 2409.89 1155.18 2409.23C1156.08 2409.19 1165.49 2409.07 1174.03 2402.16C1188.78 2390.23 1188.68 2367.76 1171.63 2355.33C1163.33 2349.29 1154.87 2348.76 1152.87 2348.57Z" fill="#54C5ED"/>
</g>
<path fill-rule="evenodd" clip-rule="evenodd" d="M1215.48 2288.36C1240.67 2309.83 1209.17 2394.93 1195.61 2408.96C1166.05 2439.57 1027.93 2454.06 1009.99 2439.9C987.392 2422.05 1006.48 2318.02 1028.56 2281.64C1051.35 2244.1 1190.29 2266.89 1215.48 2288.36ZM1213.43 2290.76C1201.87 2282.02 1172.16 2275.16 1147.61 2271.82C1108.64 2266.5 1063.69 2266.98 1043.59 2279.09C1037.65 2282.67 1036.09 2286.11 1034.57 2289.06C1027.06 2303.62 1019.09 2329.36 1014.12 2359.43C1008.67 2392.47 1008.85 2420.08 1014.78 2430.1C1015.57 2431.44 1016.21 2431.97 1016.23 2431.98C1018.41 2433.36 1028.09 2436 1051.52 2435.69C1051.67 2435.68 1079.06 2435.84 1115.89 2429.86C1155.53 2423.44 1183.89 2413.11 1192.16 2403.07C1204.41 2388.18 1230.83 2320.97 1217.17 2295.64C1215.6 2292.73 1213.91 2291.22 1213.43 2290.76Z" fill="black"/>
<path fill-rule="evenodd" clip-rule="evenodd" d="M765.477 2232.69C765.477 2232.69 741.19 2286.27 759.765 2305.66C778.34 2325.04 955.276 2322.62 950.647 2345.18C946.543 2365.18 795.96 2351.24 770.211 2361.02C756.327 2366.29 727.536 2409.62 739.585 2415.74C751.634 2421.86 787.548 2410.76 794.256 2418.71C800.964 2426.66 737.758 2455.1 762.683 2455.37C790.932 2455.68 958.254 2418.52 984.561 2406.59C1009.88 2395.12 908.802 2371.72 908.802 2371.72C908.802 2371.72 992.452 2372.51 1001.8 2364.31C1011.14 2356.1 964.87 2322.49 964.87 2322.49C964.87 2322.49 1006.89 2322.55 1020.18 2314.7C1033.46 2306.87 1044.6 2275.42 1044.6 2275.42C1044.6 2275.42 1053.54 2304.57 1056.38 2334.22C1059.22 2363.88 1045.69 2389.41 1057.6 2401.84C1069.5 2414.27 1127.83 2408.8 1127.83 2408.8C1127.83 2408.8 1197.89 2377.92 1213.84 2364.76C1223.16 2357.08 1211.68 2332.03 1223.56 2329.88C1252.81 2324.58 1389.32 2332.96 1389.32 2332.96C1389.32 2332.96 1230.61 2338.76 1235.28 2353.18C1239.95 2367.6 1417.36 2419.49 1417.36 2419.49C1417.36 2419.49 1219.81 2373.26 1225.07 2381.03C1230.33 2388.8 1448.93 2466.13 1448.93 2466.13L1382.93 2478.82L1349.49 2510.57C1307.14 2475.81 1249.89 2454.82 1184.06 2441.75C1138.61 2462.85 1086.45 2472 1009.81 2456.75C946.987 2475.73 911.972 2497.89 887.114 2521.22C798.073 2543.85 755.204 2544.49 727.958 2525.45C670.967 2524.82 618.762 2461.44 662.912 2375.32C680.325 2341.35 666.407 2286.44 683.502 2262.67C700.488 2239.05 765.477 2232.69 765.477 2232.69Z" fill="black" fill-opacity="0.25"/>
<path fill-rule="evenodd" clip-rule="evenodd" d="M1223.02 2335.16L1263.08 2333.14C1263.08 2333.14 1221.84 2342.61 1219.72 2348.9C1215.79 2360.6 1252.87 2371.64 1252.87 2371.64C1252.87 2371.64 1213.74 2358.59 1213.14 2381.6C1212.86 2392.37 1262.44 2415.41 1262.44 2415.41L1198.27 2397.02L1009.59 2425.81L860.406 2476.75C860.406 2476.75 994.816 2424.63 999.304 2404.45C1003.91 2383.75 940.29 2378.7 940.29 2378.7L1001.56 2379.29L1011.06 2348.14L992.81 2328.74L1011.88 2329.53L1009.59 2425.81L1198.27 2397.02L1223.02 2335.16Z" fill="black" fill-opacity="0.3"/>
</svg>
