<svg width="2160" height="2700" viewBox="0 0 2160 2700" fill="none" xmlns="http://www.w3.org/2000/svg">
<path d="M1385.88 1357.82C1413.43 1358.14 1436.01 1337.09 1436.32 1310.8C1436.63 1284.51 1414.54 1262.94 1386.99 1262.62C1359.44 1262.3 1336.85 1283.35 1336.55 1309.64C1336.24 1335.93 1358.33 1357.5 1385.88 1357.82Z" fill="#EBE7C0"/>
<path fill-rule="evenodd" clip-rule="evenodd" d="M1387.09 1253.66C1402.9 1254.26 1416.9 1260.83 1427.23 1270.78C1437.98 1281.14 1444.83 1295.21 1444.84 1310.9C1444.87 1326.74 1438.05 1341.12 1426.98 1351.36C1416.34 1361.2 1401.74 1367.04 1385.77 1366.92C1369.93 1366.33 1355.77 1359.88 1345.56 1349.73C1335.04 1339.31 1328.56 1325.11 1328.97 1309.55C1328.93 1293.99 1335.74 1279.95 1346.51 1269.77C1356.95 1259.93 1371.27 1253.82 1387.09 1253.66ZM1386.88 1271.54C1375.59 1271.2 1365.14 1274.97 1357.44 1281.77C1349.51 1288.71 1344.4 1298.61 1344.12 1309.73C1344.15 1320.85 1349.03 1330.8 1356.8 1337.99C1364.34 1344.9 1374.71 1348.91 1385.98 1348.7C1397.13 1348.9 1407.27 1344.72 1414.8 1337.98C1422.46 1331.11 1427.53 1321.55 1427.8 1310.71C1428.07 1299.72 1423.72 1289.57 1416.14 1282.39C1408.67 1275.34 1398.2 1271.4 1386.88 1271.54Z" fill="black"/>
<path fill-rule="evenodd" clip-rule="evenodd" d="M1375.7 1348.04C1174.38 1457.87 1129.48 1530.63 1255.55 1562.87C1301.64 1595.21 1384.16 1555.03 1471.86 1504.53L1538.85 1576.42L1577.02 1730.53C1575.99 1764.43 1563.47 1811.09 1541.73 1867.88C1555.49 1887.77 1579.82 1891.19 1613.22 1880.46C1639.65 1912.15 1671.64 1919.96 1707.78 1910.01L1716.27 1754.06C1792.47 1746.35 1833.91 1548.4 1823.82 1413.79C1820.78 1373.22 1627.59 1345.86 1608.31 1329.87L1620.5 1183.72L1537.8 1285.44L1564.07 1253.13C1528.22 1238.45 1505.13 1214.51 1493.22 1182.5C1473.76 1227.11 1477.29 1268.29 1489.28 1308.35L1375.7 1348.04Z" fill="#EBE7C0"/>
<path fill-rule="evenodd" clip-rule="evenodd" d="M1561.8 1243.28L1614.42 1178.8C1616.59 1176.09 1620.24 1175.18 1623.44 1176.45C1626.63 1177.71 1628.6 1180.94 1628.32 1184.35L1616.31 1325.87C1621.96 1328.6 1632.51 1331.52 1645.77 1335.08C1686.71 1346.07 1751.89 1360.27 1791.98 1377.66C1805.26 1383.48 1815.92 1389.68 1822.52 1396.17C1828.06 1401.56 1831.01 1407.39 1831.45 1413.2C1836.89 1483.54 1828.45 1570.92 1808.47 1640.15C1796.57 1681.37 1780.45 1716.25 1760.97 1737.79C1749.9 1750.01 1737.66 1758.13 1724.53 1761.32L1716.78 1910.53C1716.57 1914.35 1713.91 1917.66 1710.18 1918.71C1689.87 1924.34 1670.75 1924.66 1653.02 1919.2C1637.66 1914.38 1623.28 1905.2 1610.13 1890.86C1592.59 1895.77 1577.47 1896.69 1564.99 1893.81C1552.21 1890.8 1541.94 1883.99 1534.34 1872.98C1532.66 1870.51 1532.28 1867.43 1533.34 1864.65C1544.74 1835.03 1553.59 1808.18 1559.55 1784.5C1564.62 1764.36 1567.6 1746.59 1568.2 1731.38L1531.07 1580.62L1470.24 1515.16C1417.47 1545.18 1366.75 1570.93 1324.84 1579.51C1296.07 1585.39 1271.2 1583.19 1251.94 1570.2C1192.53 1554.7 1170.13 1528.58 1178.79 1496.88C1182.42 1483.62 1191.88 1468.78 1207.49 1452.59C1238.07 1420.94 1292.94 1383.37 1371.43 1340.21C1371.86 1339.94 1372.3 1339.74 1372.76 1339.61L1478.71 1302.84C1473.63 1283.81 1470.6 1264.6 1470.95 1244.81C1471.33 1223.6 1475.61 1201.74 1485.55 1179.14C1486.91 1176.01 1490.04 1174 1493.46 1174.11C1496.87 1174.22 1499.89 1176.37 1501.08 1179.59C1506.76 1194.94 1515.21 1208.35 1526.66 1219.6C1536.26 1228.99 1547.94 1236.91 1561.8 1243.28ZM1254.15 1554.26L1288.09 1533.23L1296.57 1546.91L1271.76 1562.31C1291.16 1569.7 1315.64 1566.58 1343.28 1557.69C1380.7 1545.7 1423.5 1522.73 1467.67 1497.25C1471.06 1495.31 1475.35 1495.91 1478.02 1498.8L1545.11 1570.62C1546.1 1571.65 1546.81 1572.96 1547.16 1574.4L1585.55 1728.37C1585.74 1729.13 1585.83 1729.95 1585.8 1730.77C1585.32 1747.27 1582.25 1766.75 1576.75 1788.8C1571.02 1811.79 1562.65 1837.76 1551.92 1866.3C1557.88 1872.92 1565.82 1876.42 1575.5 1877.22C1584.28 1877.93 1594.35 1876.48 1605.64 1873.27L1640.69 1741.71L1658.39 1746.42L1623.33 1878.12C1634.09 1890.05 1645.79 1897.83 1658.44 1901.86C1671.17 1905.83 1684.78 1905.92 1699.18 1902.88L1707.67 1753.55C1707.9 1749.32 1711.18 1745.88 1715.41 1745.45C1731.19 1743.93 1744.96 1732.62 1757.2 1715.43C1771.46 1695.4 1783.35 1667.5 1792.74 1635.53C1812.58 1568.14 1821.17 1482.95 1816.2 1414.38C1815.9 1410.29 1812.26 1406.9 1807.25 1403.16C1797.47 1396.01 1782.2 1389.42 1764.43 1383.28C1723.9 1369.23 1670.78 1357.76 1637.23 1348.56C1620.14 1343.86 1607.8 1339.35 1603.43 1335.75C1601.51 1334.16 1600.49 1331.69 1600.7 1329.23L1610.61 1208.37L1571.28 1256.97C1571.03 1257.38 1570.74 1257.85 1570.4 1258.26L1544.07 1290.57C1541.25 1294.01 1536.16 1294.5 1532.7 1291.73C1529.24 1288.89 1528.71 1283.84 1531.53 1280.32L1551.05 1256.26C1537.04 1249.47 1525.11 1241.15 1515.12 1231.41C1506.82 1223.33 1499.85 1214.31 1494.18 1204.28C1490.07 1218.22 1488.19 1231.78 1488.01 1245.08C1487.73 1265.82 1491.6 1286 1497.59 1305.85C1498.93 1310.31 1496.52 1314.99 1492.15 1316.5L1379.33 1356.2C1294.33 1402.22 1237.52 1441.48 1210.31 1474.05C1196.4 1490.67 1190.31 1504.86 1194.31 1517.33C1199.5 1533.49 1219.81 1545.06 1254.15 1554.26Z" fill="black"/>
<path d="M1383.72 1305.49C1386.77 1305.53 1389.27 1303.32 1389.3 1300.56C1389.33 1297.8 1386.89 1295.54 1383.84 1295.5C1380.79 1295.47 1378.3 1297.67 1378.27 1300.43C1378.23 1303.19 1380.68 1305.46 1383.72 1305.49Z" fill="black"/>
<path fill-rule="evenodd" clip-rule="evenodd" d="M1383.9 1290.29C1386.16 1290.69 1388.11 1291.43 1389.74 1292.68C1390.49 1293.26 1391.22 1293.83 1391.85 1294.5C1393.38 1296.14 1394.13 1298.31 1394.27 1300.62C1394.45 1303.57 1393.08 1306.25 1390.94 1308.19C1389.1 1309.88 1386.48 1310.81 1383.66 1310.79C1380.91 1310.39 1378.46 1309.45 1376.8 1307.63C1374.95 1305.62 1373.59 1303.16 1373.85 1300.38C1373.67 1297.6 1375.06 1295.16 1376.97 1293.21C1378.69 1291.46 1381.16 1290.58 1383.9 1290.29Z" fill="black"/>
<path d="M1466.72 1357.18C1500.3 1357.57 1527.79 1334.72 1528.12 1306.15C1528.45 1277.57 1501.51 1254.09 1467.93 1253.7C1434.35 1253.3 1406.87 1276.15 1406.53 1304.73C1406.2 1333.31 1433.15 1356.79 1466.72 1357.18Z" fill="#EBE7C0"/>
<path fill-rule="evenodd" clip-rule="evenodd" d="M1468.04 1244.77C1485.97 1245.35 1501.98 1251.85 1514.04 1261.63C1527.93 1272.92 1536.66 1288.67 1536.65 1306.25C1536.65 1323.97 1527.87 1340.04 1513.63 1351.07C1501.26 1360.72 1484.69 1366.46 1466.62 1366.25C1448.66 1365.67 1432.52 1359.25 1420.55 1349.32C1406.91 1337.96 1398.54 1322.07 1398.97 1304.64C1398.96 1287.21 1407.69 1271.51 1421.6 1260.48C1433.8 1250.83 1450.09 1244.86 1468.04 1244.77ZM1467.83 1262.65C1453.96 1262.19 1441.14 1266.19 1431.49 1273.35C1421.17 1281.02 1414.41 1292.21 1414.11 1304.82C1414.12 1317.43 1420.62 1328.7 1430.76 1336.61C1440.24 1343.99 1452.98 1348.22 1466.83 1348.08C1480.57 1348.24 1493.12 1343.94 1502.61 1336.78C1512.62 1329.18 1519.32 1318.36 1519.6 1306.05C1519.89 1293.59 1513.9 1282.1 1503.96 1274.19C1494.56 1266.67 1481.72 1262.51 1467.83 1262.65Z" fill="black"/>
<path fill-rule="evenodd" clip-rule="evenodd" d="M1835.75 1428.19C1836.21 1432.22 1833.28 1435.94 1829.2 1436.37C1825.12 1436.87 1821.43 1433.89 1820.98 1429.86L1817.91 1397.68L1801.46 1405C1799.23 1406.06 1796.62 1405.76 1794.66 1404.3L1780.18 1393.56L1751.2 1391.92C1747.46 1391.68 1744.55 1388.57 1744.53 1384.89L1744.34 1367.76L1719.77 1376.61C1716.8 1377.67 1713.5 1376.75 1711.47 1374.4C1709.44 1371.99 1709.11 1368.57 1710.64 1365.79L1719.63 1349.52L1695.71 1356.82C1693.13 1357.61 1690.3 1356.89 1688.4 1354.96C1686.5 1353.03 1685.85 1350.15 1686.73 1347.57L1692.77 1330.58L1672.46 1334.57C1669.93 1335.09 1667.33 1334.04 1665.89 1331.9C1664.44 1329.77 1664.41 1326.98 1665.83 1324.81L1668.05 1321.49L1649.37 1329.8C1647.28 1330.73 1644.88 1330.5 1643 1329.25C1641.12 1327.93 1640.03 1325.8 1640.12 1323.48L1640.58 1306.5L1635.84 1306.51C1632.37 1306.4 1629.5 1303.78 1629.06 1300.36L1623.78 1261.74C1623.27 1257.64 1626.17 1253.93 1630.24 1253.43C1634.31 1252.86 1638.03 1255.77 1638.54 1259.87L1642.26 1292.74L1647.77 1292.94C1649.59 1292.96 1651.34 1293.73 1652.59 1295.04C1653.85 1296.42 1654.51 1298.2 1654.45 1300.04L1653.82 1313.55L1682.75 1301.12C1685.32 1299.99 1688.3 1300.71 1690.11 1302.85C1691.91 1304.98 1692.09 1308.06 1690.55 1310.36L1685.08 1318.69L1701.73 1314.99C1704.1 1314.47 1706.56 1315.32 1708.18 1317.11C1709.79 1318.97 1710.31 1321.51 1709.53 1323.82L1704.74 1338.7L1733.19 1329.42C1736.19 1328.49 1739.46 1329.49 1741.44 1331.9C1743.43 1334.31 1743.73 1337.73 1742.2 1340.51L1733.58 1355.83L1749.11 1350.48C1751.35 1349.69 1753.83 1350.06 1755.77 1351.38C1757.71 1352.77 1758.87 1354.96 1758.87 1357.35L1758.8 1378.23L1783.06 1379.95C1784.39 1380.03 1785.67 1380.52 1786.74 1381.29L1799.61 1391.06L1820.97 1381.55C1822.93 1380.68 1825.18 1380.85 1827.04 1381.89C1828.9 1382.94 1830.14 1384.79 1830.38 1386.98L1835.75 1428.19Z" fill="black"/>
<path fill-rule="evenodd" clip-rule="evenodd" d="M1209.24 1499.01C1210.1 1495.88 1211.56 1492.08 1212.99 1495.44C1213.39 1496.4 1215.09 1497.24 1215.83 1498.75C1216.22 1499.5 1215.91 1500.38 1216.3 1501.14C1217.21 1502.86 1218.69 1503.49 1218.69 1503.49C1220.21 1505.96 1219.47 1509.16 1217.03 1510.7C1214.6 1512.17 1211.39 1511.45 1209.86 1509.05C1209.86 1509.05 1209.9 1507.41 1208.76 1505.83C1208.27 1505.21 1207.35 1505.06 1206.8 1504.37C1205.77 1503.06 1205.79 1501.15 1205.1 1500.39C1205.07 1500.33 1205.04 1500.33 1205.01 1500.33L1204.55 1500.05C1204.31 1499.98 1204.12 1499.97 1204.17 1499.84L1204.06 1499.77C1202.54 1497.36 1203.28 1494.16 1205.71 1492.62C1207.87 1491.28 1210.64 1491.66 1209.24 1499.01Z" fill="black"/>
<path fill-rule="evenodd" clip-rule="evenodd" d="M1242.5 1480.5C1243.38 1477.78 1246.31 1476.24 1249.05 1477.16C1251.78 1478.01 1253.29 1480.96 1252.41 1483.68C1252.41 1483.68 1251.83 1484.09 1251.35 1485.17C1250.68 1486.67 1250.87 1489.47 1249.88 1491.91C1249.39 1493.2 1248.35 1494.01 1247.92 1495.16C1246.87 1498.02 1247.03 1500.41 1247.03 1500.41C1246.15 1503.19 1243.21 1504.66 1240.48 1503.81C1237.74 1502.89 1236.24 1500.01 1237.11 1497.22C1237.11 1497.22 1238.66 1495.33 1239.45 1492.47C1239.78 1491.25 1239.43 1489.95 1239.75 1488.65C1240.39 1486.07 1242.16 1483.97 1242.49 1482.34C1242.73 1481.18 1242.5 1480.5 1242.5 1480.5Z" fill="black"/>
<path fill-rule="evenodd" clip-rule="evenodd" d="M1258.37 1437.97C1251.57 1433.38 1249.77 1424.15 1254.36 1417.31C1258.95 1410.54 1268.2 1408.74 1275.01 1413.32C1275.01 1413.32 1276.86 1416.07 1280.71 1418.98C1285.85 1422.87 1294.57 1425.9 1300.16 1429.79C1304.72 1432.98 1307.41 1436.01 1307.41 1436.01C1310.54 1438.17 1312.7 1441.4 1313.41 1445.09C1313.41 1445.09 1312.87 1450.54 1314 1456.56C1315.49 1464.43 1319.4 1472.86 1319.4 1472.86C1320.93 1480.93 1315.63 1488.72 1307.57 1490.26C1299.5 1491.74 1291.71 1486.46 1290.17 1478.39C1290.17 1478.39 1290.73 1469.19 1289.21 1461.25C1289 1460.23 1288.75 1459.2 1288.49 1458.17C1287.01 1457.47 1285.11 1456.5 1283.06 1455.11C1277.35 1451.43 1271.29 1444.46 1265.79 1441.12C1261.65 1438.62 1258.37 1437.97 1258.37 1437.97Z" fill="black"/>
<path fill-rule="evenodd" clip-rule="evenodd" d="M1331.27 1380.54C1325.81 1374.41 1326.35 1364.99 1332.48 1359.54C1338.61 1354.08 1348.02 1354.6 1353.48 1360.74C1353.48 1360.74 1354.98 1364.31 1358.45 1368.71C1366.83 1379.39 1384.48 1395.15 1384.48 1395.15C1386.67 1397.63 1388 1400.72 1388.26 1404C1388.26 1404 1386.78 1415.51 1387.67 1427.12C1388.58 1438.67 1391.81 1449.83 1391.81 1449.83C1392.49 1457.95 1386.4 1465.18 1378.22 1465.84C1370.04 1466.49 1362.84 1460.47 1362.17 1452.28C1362.17 1452.28 1363.53 1440.69 1362.51 1429.15C1361.95 1422.73 1360.65 1416.44 1359.62 1412.12C1355.32 1406.21 1345.84 1393.54 1338.64 1386.36C1334.66 1382.42 1331.27 1380.54 1331.27 1380.54Z" fill="black"/>
<path fill-rule="evenodd" clip-rule="evenodd" d="M1406.29 1355.28C1404.16 1347.34 1408.86 1339.14 1416.79 1337.05C1424.72 1334.89 1432.88 1339.63 1435.02 1347.5C1435.02 1347.5 1435.15 1352.75 1437.02 1361.1C1439.9 1373.76 1448.11 1392.96 1453.02 1413.22C1455.39 1422.93 1455.92 1433.04 1458.19 1442C1463.88 1464.72 1471.1 1481.73 1471.1 1481.73C1473.23 1489.67 1468.53 1497.8 1460.6 1499.96C1452.67 1502.06 1444.51 1497.39 1442.37 1489.45C1442.37 1489.45 1440.1 1471.13 1433.63 1448.61C1431.08 1439.71 1426.49 1430.72 1423.64 1421.06C1417.73 1401.14 1415.23 1380.43 1411.35 1367.97C1408.81 1359.89 1406.29 1355.28 1406.29 1355.28Z" fill="black"/>
<path fill-rule="evenodd" clip-rule="evenodd" d="M1596.12 1323.65C1603.2 1319.51 1612.32 1321.86 1616.48 1328.94C1620.63 1336.02 1618.26 1345.13 1611.18 1349.28C1611.18 1349.28 1608.09 1349.66 1603.53 1351.99C1596.72 1355.39 1587.86 1364.02 1577.1 1369.7C1571.86 1372.5 1565.97 1373.52 1561.15 1376.13C1549.12 1382.74 1541.28 1390.36 1541.28 1390.36C1534.2 1394.51 1525.08 1392.09 1520.92 1385.01C1516.77 1377.93 1519.15 1368.82 1526.22 1364.67C1526.22 1364.67 1536.65 1361.51 1548.29 1354.21C1552.94 1351.33 1556.71 1346.67 1561.7 1343.45C1571.94 1336.88 1583.78 1333.34 1590.08 1329.04C1594.29 1326.16 1596.12 1323.65 1596.12 1323.65Z" fill="black"/>
<path fill-rule="evenodd" clip-rule="evenodd" d="M1634.42 1364.09C1640.25 1358.29 1649.68 1358.33 1655.45 1364.2C1661.23 1370 1661.19 1379.41 1655.35 1385.21C1655.35 1385.21 1649.2 1389.58 1640.3 1397.86C1626.62 1410.74 1607.58 1433.78 1585.9 1454.55C1575.49 1464.46 1563.85 1473.06 1554.27 1482.36C1530.06 1505.76 1513.12 1526.17 1513.12 1526.17C1507.28 1531.97 1497.86 1531.92 1492.08 1526.06C1486.31 1520.26 1486.35 1510.84 1492.18 1505.04C1492.18 1505.04 1512.72 1488.29 1536.37 1464.27C1545.73 1454.76 1554.43 1443.19 1564.48 1432.87C1585.44 1411.42 1608.64 1392.58 1621.6 1379.02C1630.01 1370.18 1634.42 1364.09 1634.42 1364.09Z" fill="black"/>
<path fill-rule="evenodd" clip-rule="evenodd" d="M1689.09 1401.16C1694.75 1395.16 1704.18 1394.92 1710.12 1400.59C1716.07 1406.25 1716.3 1415.67 1710.64 1421.61C1710.64 1421.61 1704.05 1426.79 1694.5 1436.3C1679.8 1451 1659.22 1476.9 1635.91 1500.64C1624.73 1512.05 1612.26 1522.14 1601.97 1532.73C1575.94 1559.45 1557.63 1582.43 1557.63 1582.43C1551.97 1588.37 1542.55 1588.6 1536.6 1582.94C1530.65 1577.27 1530.42 1567.86 1536.08 1561.92C1536.08 1561.92 1558.09 1542.52 1583.55 1515.18C1593.62 1504.38 1603.06 1491.39 1613.87 1479.71C1636.42 1455.21 1661.3 1433.39 1675.24 1417.99C1684.3 1408 1689.09 1401.16 1689.09 1401.16Z" fill="black"/>
<path d="M1436.82 1304.47C1439.87 1304.51 1442.37 1302.3 1442.4 1299.54C1442.43 1296.78 1439.99 1294.52 1436.94 1294.48C1433.89 1294.45 1431.4 1296.65 1431.36 1299.41C1431.33 1302.17 1433.78 1304.44 1436.82 1304.47Z" fill="black"/>
<path fill-rule="evenodd" clip-rule="evenodd" d="M1437 1289.27C1439.26 1289.67 1441.2 1290.41 1442.84 1291.66C1443.59 1292.24 1444.32 1292.81 1444.95 1293.48C1446.48 1295.12 1447.23 1297.29 1447.37 1299.6C1447.55 1302.55 1446.17 1305.23 1444.04 1307.17C1442.19 1308.86 1439.58 1309.79 1436.76 1309.77C1434.01 1309.37 1431.56 1308.43 1429.89 1306.62C1428.05 1304.6 1426.69 1302.14 1426.95 1299.36C1426.77 1296.58 1428.16 1294.14 1430.07 1292.19C1431.78 1290.45 1434.26 1289.56 1437 1289.27Z" fill="black"/>
<path fill-rule="evenodd" clip-rule="evenodd" d="M574.159 1488.41C590.852 1432.16 669.39 1440.82 775.639 1478.66L1027.63 1728.49C984.102 1770.96 939.392 1759.69 892.952 1670.25C892.952 1670.25 1000.73 1835.39 998.981 1898.49C997.224 1961.52 882.455 2048.55 882.455 2048.55L875.171 2139.39L832.938 2095.99C764.594 2066.9 741.121 2018.93 743.659 1959.91C727.72 2019.7 703.768 2022.64 669.979 1955.6C632.923 2014.3 592.989 1989.96 544.885 1867.49C538.449 1851.1 522.861 1847.75 517.834 1832.17C481.913 1720.66 494.386 1613.09 574.159 1488.41Z" fill="#AA4D0F"/>
<path fill-rule="evenodd" clip-rule="evenodd" d="M566.381 1484.84C574.543 1459.19 593.868 1445.39 622.366 1441.4C659.672 1436.06 714.047 1448.36 778.182 1471.46C779.238 1471.81 780.193 1472.41 780.984 1473.24L1033.36 1722.75C1034.9 1724.26 1035.77 1726.32 1035.76 1728.57C1035.75 1730.74 1034.86 1732.78 1033.3 1734.29C1009.4 1757.68 984.887 1765.9 960.214 1757.23C957.749 1756.38 955.27 1755.29 952.778 1754.04C960.709 1768.53 968.668 1783.72 975.941 1798.77C994.468 1837.19 1008.36 1874.98 1007.72 1898.7C1007.07 1922.04 992.517 1948.64 973.059 1973.13C943.04 2010.95 901.988 2044.12 890.618 2053.04L883.333 2140.09C883.076 2143.27 880.972 2146.04 877.951 2147.14C874.923 2148.23 871.545 2147.4 869.303 2145.14L828.306 2102.71C795.482 2088.32 772.792 2069.68 758.101 2047.72C747.448 2031.76 740.968 2014.13 738.001 1995C735.654 1999.02 733.209 2002.35 730.693 2004.82C723.188 2012.39 714.886 2014.34 705.885 2011.11C695.321 2007.39 682.758 1993.96 669.138 1969.41C657.848 1984.07 646.058 1991.84 634.266 1993.11C623.047 1994.36 611.341 1989.98 599.399 1979.01C580.356 1961.43 559.864 1925.77 537.948 1870.24C535.4 1863.81 531.041 1859.83 526.835 1856.08C522.851 1852.47 518.915 1848.95 515.767 1844.55C513.663 1841.66 511.903 1838.38 510.644 1834.47C490.918 1773.77 485.33 1714.2 496.651 1652.45C506.464 1598.88 529.028 1543.7 566.381 1484.84ZM911.543 1716.5C902.866 1704.9 894.16 1690.89 885.452 1674.18C883.378 1670.21 884.799 1665.21 888.691 1662.93C892.578 1660.73 897.57 1661.9 900.032 1665.63C900.032 1665.63 912.039 1683.95 928.01 1710.83C940.651 1726.97 953.137 1737.14 965.72 1741.58C982.712 1747.68 999.279 1742.24 1015.82 1728.21C977.572 1690.2 771.498 1485.21 771.498 1485.21C722.171 1467.96 679.029 1457.04 645.609 1456.37C612.731 1455.69 589.824 1465.03 582.308 1490.81C582.083 1491.59 581.747 1492.29 581.318 1493C544.587 1550.06 522.197 1603.46 512.399 1655.41C501.24 1714.44 506.425 1771.61 525.027 1829.87C527.034 1836.09 531.333 1839.84 535.597 1843.74C539.415 1847.2 543.296 1850.72 546.562 1855.2C548.595 1858.01 550.397 1861.13 551.827 1864.81C572.421 1917.43 591.245 1951.67 609.246 1968.35C617.379 1975.86 625.07 1979.59 632.73 1978.75C643.657 1977.58 653.637 1968 663.922 1951.82C665.3 1949.61 667.741 1948.3 670.325 1948.46C672.901 1948.62 675.213 1950.1 676.371 1952.39C689.735 1978.81 700.642 1993.91 710.76 1997.49C715.69 1999.21 719.642 1996.31 723.516 1990.7C728.431 1983.58 732.684 1972.54 736.534 1958.02C737.505 1954.35 741.055 1952 744.775 1952.59C748.502 1953.18 751.19 1956.44 751.029 1960.24C749.852 1989.86 755.462 2016.58 770.798 2039.14C784.402 2059.12 805.612 2075.86 836.06 2088.7C837.033 2089.13 837.917 2089.73 838.652 2090.48L868.387 2120.84L873.97 2047.87C874.164 2045.46 875.379 2043.26 877.313 2041.81C877.313 2041.81 925.573 2005.02 959.362 1962.3C976.169 1940.98 989.68 1918.43 990.244 1898.2C990.862 1876.34 977.324 1841.72 960.326 1806.34C944.851 1774.1 926.268 1741.25 911.543 1716.5Z" fill="black"/>
<path fill-rule="evenodd" clip-rule="evenodd" d="M791.326 1485.41C823.258 1462.65 839.014 1425.01 838.071 1372.06C865.907 1426.56 866.899 1477.73 844.949 1526.24L791.326 1485.41Z" fill="#ECCAAA"/>
<path fill-rule="evenodd" clip-rule="evenodd" d="M786.389 1478.5C794.664 1472.92 801.983 1466.44 807.908 1458.6C813.705 1450.92 818.193 1442.11 821.645 1432.33C827.678 1415.35 830.199 1395.29 829.519 1372.23C829.452 1368.28 832.133 1364.79 835.991 1363.75C839.862 1362.87 843.88 1364.69 845.693 1368.2C852.418 1381.17 857.79 1393.95 861.47 1406.63C865.521 1420.61 867.584 1434.42 868.106 1447.96C868.766 1464.98 866.653 1481.46 862.485 1497.85C859.783 1508.38 856.307 1518.94 851.694 1529.3C850.761 1531.34 848.946 1532.86 846.761 1533.39C844.579 1533.99 842.265 1533.52 840.475 1532.18L786.18 1492.22C784.033 1490.58 782.791 1488.06 782.829 1485.35C782.875 1482.63 784.189 1480.12 786.389 1478.5ZM804.794 1485.25L841.979 1514.47C844.669 1507.81 846.91 1501.16 848.566 1494.38C852.181 1479.48 853.129 1464.27 851.982 1448.89C851.055 1436.6 848.477 1424.28 844.65 1411.61C844.393 1410.76 844.129 1409.92 843.857 1409.07C842.131 1419.35 839.616 1428.87 836.331 1437.72C832.182 1448.84 826.704 1458.75 820.222 1467.69C815.635 1474.1 810.527 1479.9 804.794 1485.25Z" fill="black"/>
<path fill-rule="evenodd" clip-rule="evenodd" d="M605.246 1555.91C606.269 1585.01 591.233 1608.91 551.374 1624.85C504.607 1580.03 499.534 1521.7 519.849 1455.11C530.17 1507.72 553.081 1547.19 605.246 1555.91Z" fill="#ECCAAA"/>
<path fill-rule="evenodd" clip-rule="evenodd" d="M613.741 1555.59C614.037 1573.94 608.603 1590.21 596.136 1604.35C586.727 1614.93 573.254 1624.53 554.345 1632.28C551.435 1633.45 548.102 1632.85 545.84 1630.67C520.003 1606.31 505.694 1577.99 501.379 1546.51C497.419 1517.65 502.037 1486.22 512.713 1452.92C513.711 1449.64 516.809 1447.46 520.231 1447.67C523.651 1447.8 526.51 1450.27 527.173 1453.66C531.974 1478.08 539.38 1499.63 551.805 1516.09C564.367 1532.69 582.113 1543.72 606.645 1547.5C610.63 1548.16 613.602 1551.57 613.741 1555.59ZM520.34 1485.62C516.718 1506.17 516.048 1525.71 518.676 1544.07C522.446 1570.38 533.138 1594.39 553.294 1615.42C567.121 1609.53 577.541 1602.56 584.677 1594.3C592.684 1585.09 596.311 1574.37 596.797 1562.74C577.235 1558.03 561.855 1549.03 549.681 1536.75C536.398 1523.35 527.089 1505.88 520.34 1485.62Z" fill="black"/>
<path fill-rule="evenodd" clip-rule="evenodd" d="M633.165 1689.58C635.94 1685.86 641.26 1685.01 645.05 1687.76C648.832 1690.52 649.659 1695.84 646.894 1699.64C646.894 1699.64 638.685 1709.64 628.885 1722.78C611.713 1745.97 589.324 1778.68 589.324 1778.68C587.416 1781.29 584.209 1782.62 581.01 1782.1C577.813 1781.64 575.154 1779.4 574.129 1776.33C571.009 1766.97 568.418 1757.98 566.628 1749.36C561.438 1724.33 562.207 1702.31 566.947 1683.2C572.284 1661.66 583.187 1643.53 600.955 1628.92C604.643 1626.03 609.991 1626.65 612.892 1630.28C615.795 1634 615.159 1639.36 611.47 1642.25C599.884 1650.95 591.096 1661.28 585.565 1673.67C581.912 1681.84 579.534 1690.73 578.691 1700.44C577.577 1713.41 579.445 1727.45 582.847 1742.85C583.712 1746.77 584.681 1750.85 585.774 1754.92C594.391 1743.75 606.757 1727.44 616.559 1713.84C626.167 1700.47 633.165 1689.58 633.165 1689.58Z" fill="black"/>
<path d="M895.134 1661.85C849.406 1663.17 811.405 1631.89 810.257 1592C809.108 1552.1 845.247 1518.69 890.975 1517.37C936.703 1516.06 974.704 1547.33 975.853 1587.23C977.002 1627.13 940.863 1660.54 895.134 1661.85Z" fill="#ECCAAA"/>
<path fill-rule="evenodd" clip-rule="evenodd" d="M890.732 1508.89C914.569 1508.44 936.38 1516.17 952.779 1529.1C970.966 1543.37 982.604 1563.95 983.067 1587.02C983.94 1610.08 973.497 1631.3 956.176 1646.59C940.548 1660.44 919.226 1669.42 895.384 1670.49C871.43 1671.18 849.362 1663.68 832.804 1650.84C814.312 1636.5 802.624 1615.53 802.146 1592.23C801.656 1569.01 812.46 1547.94 830.013 1532.64C845.733 1519.02 866.926 1509.89 890.732 1508.89ZM891.22 1525.84C871.346 1526.18 853.204 1532.9 840.023 1544.28C826.008 1556.3 817.699 1573.35 818.369 1591.76C819.042 1610.02 828.722 1626.09 843.3 1637.13C857.035 1647.66 875.159 1653.8 894.887 1653.23C914.738 1652.89 932.769 1646.1 946.025 1634.87C960.241 1622.85 969.02 1606.02 968.648 1587.44C967.959 1568.87 958.223 1552.49 943.347 1541.3C929.459 1530.86 911.073 1525.04 891.22 1525.84Z" fill="black"/>
<path d="M781.531 1689.1C732.369 1690.52 691.482 1655.78 690.208 1611.52C688.934 1567.26 727.755 1530.23 776.917 1528.81C826.08 1527.4 866.967 1562.13 868.241 1606.4C869.515 1650.66 830.694 1687.69 781.531 1689.1Z" fill="#ECCAAA"/>
<path fill-rule="evenodd" clip-rule="evenodd" d="M776.673 1520.35C802.458 1519.86 826.043 1528.55 843.672 1543C862.728 1558.69 874.932 1581.11 875.454 1606.19C876.384 1631.26 865.479 1654.26 847.374 1671.02C830.607 1686.54 807.573 1696.66 781.78 1697.74C755.877 1698.49 732.022 1689.98 714.227 1675.54C694.877 1659.77 682.632 1637.09 682.094 1611.76C681.543 1586.51 692.816 1563.58 711.148 1546.9C728.011 1531.55 750.919 1521.35 776.673 1520.35ZM777.16 1537.26C755.46 1537.63 735.697 1545.42 721.419 1558.29C706.418 1571.78 697.588 1590.77 698.32 1611.29C699.056 1631.63 709.376 1649.64 725.043 1662.17C739.941 1674.03 759.732 1681.1 781.28 1680.4C802.958 1680.12 822.601 1672.25 836.959 1659.55C852.16 1646.05 861.461 1627.22 861.034 1606.6C860.28 1585.92 849.903 1567.65 833.967 1555.05C818.902 1543.19 798.845 1536.38 777.16 1537.26Z" fill="black"/>
<path fill-rule="evenodd" clip-rule="evenodd" d="M774.592 1594.59C779.143 1594.98 783.28 1596.46 786.114 1599.48C789.027 1602.59 791.228 1606.48 791.011 1610.96C791.501 1615.42 789.495 1619.41 786.798 1622.72C784.158 1625.95 780.109 1627.66 775.565 1628.39C770.898 1628.51 766.521 1626.94 763.456 1624.02C760.198 1620.91 758.024 1616.64 758.239 1611.9C758.425 1607.31 760.408 1603.35 763.427 1600.19C766.289 1597.2 770.082 1595.29 774.592 1594.59ZM774.732 1611.29C774.574 1611.06 774.451 1610.79 774.27 1610.92C774.106 1611.02 774.444 1611.23 774.464 1611.44L774.732 1611.29ZM775.416 1611.36C775.588 1611.57 775.727 1611.82 775.892 1611.69C776.097 1611.52 776.578 1611.65 776.592 1611.38C776.563 1611.1 776.101 1611.24 775.891 1611.08C775.73 1610.97 775.587 1611.17 775.416 1611.36Z" fill="black"/>
<path fill-rule="evenodd" clip-rule="evenodd" d="M905.021 1578.05C909.572 1578.44 913.71 1579.92 916.544 1582.95C919.457 1586.06 921.658 1589.94 921.44 1594.43C921.931 1598.89 919.925 1602.87 917.228 1606.18C914.588 1609.41 910.538 1611.12 905.994 1611.86C901.328 1611.98 896.95 1610.4 893.885 1607.48C890.627 1604.37 888.454 1600.1 888.669 1595.37C888.855 1590.77 890.838 1586.82 893.857 1583.66C896.719 1580.66 900.511 1578.76 905.021 1578.05ZM905.162 1594.75C905.004 1594.52 904.881 1594.26 904.7 1594.38C904.536 1594.48 904.874 1594.7 904.893 1594.9L905.162 1594.75ZM905.846 1594.82C906.018 1595.03 906.157 1595.29 906.322 1595.16C906.527 1594.99 907.008 1595.12 907.022 1594.84C906.993 1594.56 906.531 1594.7 906.321 1594.55C906.16 1594.44 906.016 1594.64 905.846 1594.82Z" fill="black"/>
<path fill-rule="evenodd" clip-rule="evenodd" d="M928.004 1982.41C932.647 1981.73 936.961 1984.94 937.631 1989.65C938.299 1994.27 935.076 1998.55 930.432 1999.23C925.54 1999.6 920.824 1999.66 916.264 2000.02C893.493 2001.45 874.286 2001.54 858.621 1996.34C845.622 1991.98 835.531 1984.53 826.895 1975.95C818.253 1967.44 811.121 1957.27 806.202 1944.63C804.665 1940.18 807.005 1935.39 811.437 1933.79C815.87 1932.27 820.717 1934.61 822.254 1939.05C825.902 1950.88 831.268 1961.03 839.694 1968.22C843.34 1971.37 847.673 1973.64 852.235 1975.76C857.378 1978.17 863.063 1979.79 869.178 1981.24C881.464 1984.21 895.736 1986.51 912.285 1985.03C917.361 1984.57 922.566 1983.5 928.004 1982.41Z" fill="black"/>
</svg>
