<svg width="2160" height="2700" viewBox="0 0 2160 2700" fill="none" xmlns="http://www.w3.org/2000/svg">
<g clip-path="url(#clip0_605_312)">
<path fill-rule="evenodd" clip-rule="evenodd" d="M1263.02 1879.06L1186.95 1865.38C1186.95 1865.38 1132.94 1954.07 1096.46 1990.3C1070.3 2016.27 1014.02 2058.84 974.629 2087.72C950.043 2105.75 942.618 2125.35 942.618 2125.35L907.045 2113.48L762.434 2177.77L620.74 2216.43L968.874 2459.8L1352.09 2523.58L1457.6 2296.45L1263.02 1879.06Z" fill="black" fill-opacity="0.4"/>
<path fill-rule="evenodd" clip-rule="evenodd" d="M2535.33 446.946L2340.42 326.726L1616.7 1472.21C1644.03 1489.46 1640.81 1514.45 1633.63 1536.44L1757.05 1604.64C1778.62 1586.25 1795.84 1580.21 1824.49 1592.28L2535.33 446.946Z" fill="#DED797" fill-opacity="0.7" stroke="#DED797" stroke-width="9.4442" stroke-miterlimit="1.5" stroke-linecap="round" stroke-linejoin="round"/>
<path d="M2480 421.226L2386.66 363.656L1629.93 1567.44L1723.27 1625L2480 421.226Z" fill="#DED797" fill-opacity="0.7" stroke="white" stroke-width="6.53542" stroke-miterlimit="1.5" stroke-linecap="round" stroke-linejoin="round"/>
<path fill-rule="evenodd" clip-rule="evenodd" d="M1319.74 2653.27L1389.89 2519.71L1080.94 2406.79L1029.6 2504.42L1319.74 2653.27Z" fill="#777777" stroke="black" stroke-width="9.49547" stroke-miterlimit="1.5" stroke-linecap="round" stroke-linejoin="round"/>
<path d="M1189.26 2303.49L1108.67 2176.38L832.634 2351.45L913.218 2478.56L1189.26 2303.49Z" fill="#505050" stroke="black" stroke-width="9.4953" stroke-miterlimit="1.5" stroke-linecap="round" stroke-linejoin="round"/>
<path fill-rule="evenodd" clip-rule="evenodd" d="M1282.66 2437.25L1309.09 2363.94L1255.51 2279.8L1076.86 2147.84L1064.52 2240.46L1119.61 2351.15L1282.66 2437.25Z" fill="#777777" stroke="black" stroke-width="9.30968" stroke-miterlimit="1.5" stroke-linecap="round" stroke-linejoin="round"/>
<path d="M1769.26 1619.17L1626.79 1531.46L861.836 2773.99L1004.3 2861.7L1769.26 1619.17Z" fill="#810306" stroke="black" stroke-width="15.5468" stroke-miterlimit="1.5" stroke-linecap="round" stroke-linejoin="round"/>
<path d="M1606.58 1550.97L1571.71 1610.36L1724.8 1700.25L1759.67 1640.86L1606.58 1550.97Z" fill="#505050" stroke="black" stroke-width="13" stroke-miterlimit="1.5" stroke-linecap="round" stroke-linejoin="round"/>
<path d="M1617.94 1517.97L1586.64 1579.33L1752.79 1664.06L1784.08 1602.7L1617.94 1517.97Z" fill="#505050" stroke="black" stroke-width="13.3246" stroke-miterlimit="1.5" stroke-linecap="round" stroke-linejoin="round"/>
<path fill-rule="evenodd" clip-rule="evenodd" d="M1573.27 1611.55L1532.47 1662.58L1634.13 1847.3L1674.51 1789.41L1573.27 1611.55Z" fill="#505050" stroke="black" stroke-width="13" stroke-miterlimit="1.5" stroke-linecap="round" stroke-linejoin="round"/>
<path fill-rule="evenodd" clip-rule="evenodd" d="M1715.29 1723.87L1682.84 1780.58L1473.68 1754L1512.66 1695.16L1715.29 1723.87Z" fill="#505050" stroke="black" stroke-width="13" stroke-miterlimit="1.5" stroke-linecap="round" stroke-linejoin="round"/>
<path fill-rule="evenodd" clip-rule="evenodd" d="M1456.88 1801.47L1416.07 1852.5L1517.73 2037.22L1558.11 1979.33L1456.88 1801.47Z" fill="#505050" stroke="black" stroke-width="13" stroke-miterlimit="1.5" stroke-linecap="round" stroke-linejoin="round"/>
<path fill-rule="evenodd" clip-rule="evenodd" d="M1598.89 1913.79L1566.45 1970.5L1357.28 1943.92L1396.26 1885.07L1598.89 1913.79Z" fill="#505050" stroke="black" stroke-width="13" stroke-miterlimit="1.5" stroke-linecap="round" stroke-linejoin="round"/>
<path fill-rule="evenodd" clip-rule="evenodd" d="M1346.84 1977.21L1306.03 2028.24L1407.69 2212.96L1448.07 2155.07L1346.84 1977.21Z" fill="#505050" stroke="black" stroke-width="13" stroke-miterlimit="1.5" stroke-linecap="round" stroke-linejoin="round"/>
<path fill-rule="evenodd" clip-rule="evenodd" d="M1488.85 2089.53L1456.41 2146.24L1247.24 2119.66L1286.22 2060.81L1488.85 2089.53Z" fill="#505050" stroke="black" stroke-width="13" stroke-miterlimit="1.5" stroke-linecap="round" stroke-linejoin="round"/>
<path fill-rule="evenodd" clip-rule="evenodd" d="M1238.65 2153.56L1197.85 2204.59L1299.51 2389.3L1339.89 2331.42L1238.65 2153.56Z" fill="#505050" stroke="black" stroke-width="13" stroke-miterlimit="1.5" stroke-linecap="round" stroke-linejoin="round"/>
<path fill-rule="evenodd" clip-rule="evenodd" d="M1380.66 2265.87L1348.22 2322.59L1139.06 2296L1178.04 2237.16L1380.66 2265.87Z" fill="#505050" stroke="black" stroke-width="13" stroke-miterlimit="1.5" stroke-linecap="round" stroke-linejoin="round"/>
<path fill-rule="evenodd" clip-rule="evenodd" d="M1118.82 2346.53L1078.01 2397.56L1179.67 2582.27L1220.05 2524.39L1118.82 2346.53Z" fill="#505050" stroke="black" stroke-width="13" stroke-miterlimit="1.5" stroke-linecap="round" stroke-linejoin="round"/>
<path fill-rule="evenodd" clip-rule="evenodd" d="M1260.83 2458.84L1228.39 2515.56L1019.22 2488.97L1058.2 2430.13L1260.83 2458.84Z" fill="#505050" stroke="black" stroke-width="13" stroke-miterlimit="1.5" stroke-linecap="round" stroke-linejoin="round"/>
<path fill-rule="evenodd" clip-rule="evenodd" d="M1004.15 2534.18L963.349 2585.21L1065.01 2769.92L1105.39 2712.04L1004.15 2534.18Z" fill="#505050" stroke="black" stroke-width="13" stroke-miterlimit="1.5" stroke-linecap="round" stroke-linejoin="round"/>
<path fill-rule="evenodd" clip-rule="evenodd" d="M1146.17 2646.49L1113.72 2703.21L904.563 2676.63L943.538 2617.78L1146.17 2646.49Z" fill="#505050" stroke="black" stroke-width="13" stroke-miterlimit="1.5" stroke-linecap="round" stroke-linejoin="round"/>
<path fill-rule="evenodd" clip-rule="evenodd" d="M1258.5 2602.96L1304.95 2510.91L1090.13 2375.42L1019.98 2508.99L1258.5 2602.96Z" fill="#505050" stroke="black" stroke-width="8.45438" stroke-miterlimit="1.5" stroke-linecap="round" stroke-linejoin="round"/>
<path fill-rule="evenodd" clip-rule="evenodd" d="M1239.39 2776.7L1312.55 2659.38L1006.98 2535.66L976.92 2630.02L1239.39 2776.7Z" fill="#777777" stroke="black" stroke-width="9.49547" stroke-miterlimit="1.5" stroke-linecap="round" stroke-linejoin="round"/>
<path fill-rule="evenodd" clip-rule="evenodd" d="M1182.51 2741.36L1234.69 2646.28L1019.48 2508.41L949.327 2641.98L1182.51 2741.36Z" fill="#505050" stroke="black" stroke-width="8.49396" stroke-miterlimit="1.5" stroke-linecap="round" stroke-linejoin="round"/>
<path d="M1181.49 2948.78L1251.64 2815.22L961.506 2666.36L891.357 2799.93L1181.49 2948.78Z" fill="#777777" stroke="black" stroke-width="9.49547" stroke-miterlimit="1.5" stroke-linecap="round" stroke-linejoin="round"/>
<path fill-rule="evenodd" clip-rule="evenodd" d="M1054.26 2489.38L1101.76 2427.6L1088.62 2335L975.483 2149.45L855.423 2258.94L925.175 2357.71L1054.26 2489.38Z" fill="#777777" stroke="black" stroke-width="9.30969" stroke-miterlimit="1.5" stroke-linecap="round" stroke-linejoin="round"/>
<path fill-rule="evenodd" clip-rule="evenodd" d="M940.737 3031.86L1047.24 2703.83L1105.54 2661.29L1116.71 2558.81L1219.66 2444.36L1098.71 2384.43L892.455 2312.24L821.088 2194.79L650.147 2252.96L411.533 2755.41L473.859 2826.35L940.737 3031.86Z" fill="#777777" stroke="black" stroke-width="6.84744" stroke-miterlimit="1.5" stroke-linecap="round" stroke-linejoin="round"/>
<path d="M778.964 2408.65L795.095 2364.42L643.164 2310.66L627.034 2354.89L778.964 2408.65Z" fill="#777777" stroke="black" stroke-width="9.98498" stroke-miterlimit="1.5" stroke-linecap="round" stroke-linejoin="round"/>
<path d="M747.642 2525.79L765.001 2482.02L614.63 2424.04L597.271 2467.81L747.642 2525.79Z" fill="#777777" stroke="black" stroke-width="9.98498" stroke-miterlimit="1.5" stroke-linecap="round" stroke-linejoin="round"/>
<path d="M688.968 2628.69L710.247 2586.69L565.79 2515.23L544.512 2557.24L688.968 2628.69Z" fill="#777777" stroke="black" stroke-width="9.985" stroke-miterlimit="1.5" stroke-linecap="round" stroke-linejoin="round"/>
<path d="M688.579 2829.63L923.089 2383.12L804.641 2322.35L570.131 2768.86L688.579 2829.63Z" fill="#777777" stroke="black" stroke-width="4.28852" stroke-miterlimit="1.5" stroke-linecap="round" stroke-linejoin="round"/>
<path d="M850.484 2911.27L1087.77 2459.47L944.38 2385.9L707.093 2837.7L850.484 2911.27Z" fill="#777777" stroke="black" stroke-width="4.74636" stroke-miterlimit="1.5" stroke-linecap="round" stroke-linejoin="round"/>
<path fill-rule="evenodd" clip-rule="evenodd" d="M728.791 2872.88L825.232 2800.16L909.572 2672.02L971.397 2539.73L976.464 2411.22L858.74 2287.92L766.512 2595.22L585.671 2842.27L728.791 2872.88Z" fill="#FF2E33" stroke="black" stroke-width="4.74636" stroke-miterlimit="1.5" stroke-linecap="round" stroke-linejoin="round"/>
<path d="M553.474 2786.14L718.328 2277.9L-278.177 1962.02L-443.03 2470.26L553.474 2786.14Z" fill="#777777" stroke="black" stroke-width="12.3691" stroke-miterlimit="1.5" stroke-linecap="round" stroke-linejoin="round"/>
<path fill-rule="evenodd" clip-rule="evenodd" d="M280.918 2698.35C309.379 2504.22 365.933 2325.11 454.52 2163.14L313.444 2118.42C208.618 2289.55 148.473 2467.59 139.842 2653.63L280.918 2698.35Z" fill="#2AB6E9" stroke="black" stroke-width="4.77589" stroke-miterlimit="1.5" stroke-linecap="round" stroke-linejoin="round"/>
<path fill-rule="evenodd" clip-rule="evenodd" d="M450.682 2758.38C479.143 2564.26 535.697 2385.14 624.284 2223.17L483.207 2178.45C378.382 2349.59 318.236 2527.63 309.605 2713.66L450.682 2758.38Z" fill="#2AB6E9" stroke="black" stroke-width="4.77589" stroke-miterlimit="1.5" stroke-linecap="round" stroke-linejoin="round"/>
<path d="M-12.0457 2606.34L161.556 2071.13L20.4792 2026.41L-153.122 2561.62L-12.0457 2606.34Z" fill="#777777" stroke="black" stroke-width="4.77589" stroke-miterlimit="1.5" stroke-linecap="round" stroke-linejoin="round"/>
<path fill-rule="evenodd" clip-rule="evenodd" d="M115.536 2646.83C106.311 2451.9 167.008 2274.18 289.138 2111.62L155.239 2069.18C24.5103 2222.9 -28.0532 2403.12 -18.3635 2604.39L115.536 2646.83Z" fill="#2AB6E9" stroke="black" stroke-width="4.65283" stroke-miterlimit="1.5" stroke-linecap="round" stroke-linejoin="round"/>
<path fill-rule="evenodd" clip-rule="evenodd" d="M-27.3531 2606.01C-34.6446 2451.84 -5.1439 2298.46 70.8198 2164.82C90.9069 2129.49 93.5283 2070.27 119.078 2036.26L-14.8218 1993.82C-145.55 2147.54 -198.114 2327.76 -188.424 2529.03L-27.3531 2606.01Z" fill="#2AB6E9" stroke="black" stroke-width="4.65283" stroke-miterlimit="1.5" stroke-linecap="round" stroke-linejoin="round"/>
<path fill-rule="evenodd" clip-rule="evenodd" d="M-2.43848 2015.36L87.9427 2048.66L68.1397 2096.09C65.5726 2048.38 24.9066 2036.75 -2.43848 2015.36Z" fill="white"/>
<path fill-rule="evenodd" clip-rule="evenodd" d="M172.443 2086.62L265.525 2120.21L235.6 2161.97C243.468 2128.44 208.007 2107.51 172.443 2086.62Z" fill="white"/>
<path fill-rule="evenodd" clip-rule="evenodd" d="M331.565 2138.56L434.949 2169.79L416.926 2197.88C403.907 2174.65 368.095 2156.52 331.565 2138.56Z" fill="white"/>
<path fill-rule="evenodd" clip-rule="evenodd" d="M493.368 2194.37L600 2231.42L590.358 2259.9C573.308 2227.41 531.966 2211.84 493.368 2194.37Z" fill="white"/>
<path fill-rule="evenodd" clip-rule="evenodd" d="M699.813 2249.98L812.407 2211.87L838.703 2272.08L792.358 2243.18L699.813 2249.98Z" fill="white"/>
<path fill-rule="evenodd" clip-rule="evenodd" d="M904.663 2234.25L973.632 2166.05L1010.7 2235.93L967.669 2203.1L904.663 2234.25Z" fill="white"/>
<path fill-rule="evenodd" clip-rule="evenodd" d="M621.909 2266.32L695.621 2288.34L674.305 2358.66L673.308 2299.66L621.909 2266.32Z" fill="white"/>
<path fill-rule="evenodd" clip-rule="evenodd" d="M939.099 2393.45L865.247 2313.59L857.118 2348.42L873.713 2333.83L939.099 2393.45Z" fill="white"/>
<path fill-rule="evenodd" clip-rule="evenodd" d="M496.466 2722.99L631.58 2306.43C454.98 2242.49 267.893 2174.63 95.3299 2210.44C130.599 2326.17 199.825 2376.63 298.886 2445.58C190.444 2427.06 83.7325 2417.31 -16.871 2500.06C110.558 2624.51 319.356 2666.85 496.466 2722.99Z" fill="#777777" stroke="black" stroke-width="8.09246" stroke-miterlimit="1.5" stroke-linecap="round" stroke-linejoin="round"/>
<path fill-rule="evenodd" clip-rule="evenodd" d="M3.41465 2513.58L-50.7335 2494.74L51.9378 2497.51L424.475 2580.74L418.758 2599.55L377.606 2589.46C377.606 2589.46 322.542 2581.12 321.621 2585.42C320.701 2589.73 375.854 2609.98 375.854 2609.98L422.443 2622.7C431.264 2670.61 459.251 2700.94 497.227 2714.82L528.213 2640.18L600.513 2629.4L702.212 2353.49L768.985 2379.54L749.498 2420.03L688.307 2409.78L670.907 2466.87L719.041 2483.84L696.21 2531.08L650.712 2521.67L634.931 2563.63L661.932 2589.69L655.264 2615.83C658.436 2653.02 677.846 2669.6 723.037 2653.48L692.173 2695.33L832.651 2751.42L624.26 2787.39L546.73 2779.36L-6.9348 2610.67C-6.9348 2610.67 -43.5097 2506.54 3.41465 2513.58Z" fill="black" fill-opacity="0.3"/>
<path fill-rule="evenodd" clip-rule="evenodd" d="M277.081 2223.33L567.558 2300.94L528.999 2309.5L180.277 2212.2L277.081 2223.33Z" fill="white" fill-opacity="0.7"/>
<path fill-rule="evenodd" clip-rule="evenodd" d="M250.712 2471.3L411.123 2498.26C411.123 2498.26 433.461 2497.52 434.864 2489.76C436.309 2481.76 417.206 2457.33 417.206 2457.33L453.666 2475.16L441.173 2495.14L433.776 2524.83L250.712 2471.3Z" fill="white" fill-opacity="0.7"/>
<path fill-rule="evenodd" clip-rule="evenodd" d="M97.7764 2205.25C111.349 2238.25 136.691 2248.99 160.988 2274.75C227.081 2344.81 319.112 2410.19 401.479 2456.59C411.466 2462.21 422.101 2490.23 410.649 2489.73C379.401 2488.35 213.993 2448.33 213.993 2448.33L265.388 2436.21L187.221 2413.82C177.662 2417.47 158.556 2421.52 151.637 2413.81C145.004 2406.43 151.92 2377.05 146.122 2365.67C112.791 2297.04 88.3492 2235.24 97.7764 2205.25Z" fill="black" fill-opacity="0.3"/>
<path fill-rule="evenodd" clip-rule="evenodd" d="M583.232 2328.28C535.056 2397.8 481.4 2500.86 448.432 2592.37L463.525 2492.88L514.278 2355.63C539.562 2334.34 562.973 2322.96 583.232 2328.28Z" fill="black" fill-opacity="0.3"/>
<path fill-rule="evenodd" clip-rule="evenodd" d="M465.551 2673.64C465.551 2673.64 441.674 2633.29 449.426 2568.18C457.13 2503.46 496.434 2414.05 506.285 2384.79C526.048 2326.11 584.129 2321.54 584.129 2321.54L465.551 2673.64Z" stroke="black" stroke-width="13" stroke-miterlimit="1.5" stroke-linecap="round" stroke-linejoin="round"/>
<path fill-rule="evenodd" clip-rule="evenodd" d="M453.173 2620.54L474.178 2563.85L454.019 2549.98L460.393 2517.5L486.003 2527.02L501.872 2475.65L476.433 2460.72L489.84 2433L511.69 2443.64L525.636 2407.48L503.128 2391.98L512.336 2371.72L533.962 2379.29L550.889 2337.8L513.136 2363.47L451.816 2547.23L453.173 2620.54Z" fill="black"/>
<path d="M890.246 2504.4C912.445 2503.58 929.714 2483.38 928.817 2459.29C927.921 2435.2 909.199 2416.34 887 2417.17C864.801 2417.99 847.532 2438.19 848.429 2462.28C849.325 2486.37 868.048 2505.23 890.246 2504.4Z" fill="#DED797" stroke="black" stroke-width="13" stroke-miterlimit="1.5" stroke-linecap="round" stroke-linejoin="round"/>
<path d="M854.999 2647.41C877.198 2646.58 894.467 2626.38 893.57 2602.29C892.674 2578.2 873.951 2559.35 851.753 2560.17C829.554 2561 812.285 2581.2 813.182 2605.29C814.078 2629.38 832.801 2648.23 854.999 2647.41Z" fill="#DED797" stroke="black" stroke-width="13" stroke-miterlimit="1.5" stroke-linecap="round" stroke-linejoin="round"/>
<path d="M790.49 2758.86C812.689 2758.04 829.957 2737.84 829.061 2713.75C828.165 2689.66 809.442 2670.8 787.244 2671.63C765.045 2672.46 747.776 2692.65 748.673 2716.74C749.569 2740.83 768.291 2759.69 790.49 2758.86Z" fill="#DED797" stroke="black" stroke-width="13" stroke-miterlimit="1.5" stroke-linecap="round" stroke-linejoin="round"/>
<path fill-rule="evenodd" clip-rule="evenodd" d="M1315.01 1805.67L1402.6 1682.83L1642.69 1907.67L1578.7 1997.52L1315.01 1805.67Z" fill="#777777" stroke="black" stroke-width="9.49548" stroke-miterlimit="1.5" stroke-linecap="round" stroke-linejoin="round"/>
<path d="M1686.05 1764.41L1835.84 1779.02L1804.06 2104.34L1654.26 2089.73L1686.05 1764.41Z" fill="#505050" stroke="black" stroke-width="9.49532" stroke-miterlimit="1.5" stroke-linecap="round" stroke-linejoin="round"/>
<path fill-rule="evenodd" clip-rule="evenodd" d="M1639.01 1822.58L1705.12 1708.6L1875.67 1794.55L1798.56 1847.32L1674.92 1848.07L1639.01 1822.58Z" fill="#777777" stroke="black" stroke-width="9.30969" stroke-miterlimit="1.5" stroke-linecap="round" stroke-linejoin="round"/>
<path fill-rule="evenodd" clip-rule="evenodd" d="M1387.53 1837.64L1448.75 1754.68L1666.54 1885.33L1578.96 2008.17L1387.53 1837.64Z" fill="#505050" stroke="black" stroke-width="8.45439" stroke-miterlimit="1.5" stroke-linecap="round" stroke-linejoin="round"/>
<path fill-rule="evenodd" clip-rule="evenodd" d="M1241.07 1933.05L1312.8 1814.85L1561.01 2031.79L1490.35 2101.18L1241.07 1933.05Z" fill="#777777" stroke="black" stroke-width="9.49548" stroke-miterlimit="1.5" stroke-linecap="round" stroke-linejoin="round"/>
<path fill-rule="evenodd" clip-rule="evenodd" d="M1298.27 1967.87L1359.6 1878.43L1579.7 2008.36L1492.11 2131.2L1298.27 1967.87Z" fill="#505050" stroke="black" stroke-width="8.49398" stroke-miterlimit="1.5" stroke-linecap="round" stroke-linejoin="round"/>
<path d="M1173.99 2083.76L1261.58 1960.92L1525.27 2152.77L1437.68 2275.61L1173.99 2083.76Z" fill="#777777" stroke="black" stroke-width="9.49548" stroke-miterlimit="1.5" stroke-linecap="round" stroke-linejoin="round"/>
<path fill-rule="evenodd" clip-rule="evenodd" d="M1233.4 2101.02L1294.74 2011.58L1514.84 2141.5L1427.25 2264.34L1233.4 2101.02Z" fill="#505050" stroke="black" stroke-width="8.49398" stroke-miterlimit="1.5" stroke-linecap="round" stroke-linejoin="round"/>
<path d="M1083.37 2209.21L1170.95 2086.37L1434.64 2278.22L1347.06 2401.06L1083.37 2209.21Z" fill="#777777" stroke="black" stroke-width="9.49548" stroke-miterlimit="1.5" stroke-linecap="round" stroke-linejoin="round"/>
<path fill-rule="evenodd" clip-rule="evenodd" d="M1135.88 2230.96L1197.22 2141.52L1417.32 2271.45L1329.73 2394.29L1135.88 2230.96Z" fill="#505050" stroke="black" stroke-width="8.49398" stroke-miterlimit="1.5" stroke-linecap="round" stroke-linejoin="round"/>
<path fill-rule="evenodd" clip-rule="evenodd" d="M1581.01 1968.73L1614.73 1898.47L1703.31 1868.44L1919.94 1885.76L1876.35 2042.29L1756.73 2024.57L1581.01 1968.73Z" fill="#777777" stroke="black" stroke-width="9.3097" stroke-miterlimit="1.5" stroke-linecap="round" stroke-linejoin="round"/>
<path fill-rule="evenodd" clip-rule="evenodd" d="M1148 2314.67L1294.82 2214.81L1292.29 2129.84L1392.76 2071.7L1407.41 1970.8L1490.88 1944.29L1546.61 1800.8L1654.64 1881.73L1812.08 2033.27L1949.09 2044.01L1974.25 2222.81L1633.38 2662.36L1541.95 2638.72L1148 2314.67Z" fill="#777777" stroke="black" stroke-width="6.84745" stroke-miterlimit="1.5" stroke-linecap="round" stroke-linejoin="round"/>
<path fill-rule="evenodd" clip-rule="evenodd" d="M1757.73 1997.89L1556.64 1828.28L1548.85 1860L1757.73 1997.89Z" fill="white" fill-opacity="0.7"/>
<path fill-rule="evenodd" clip-rule="evenodd" d="M1520.03 1814.69L1454.48 1779.55L1434.03 1800.31L1513.91 1829.11L1520.03 1814.69Z" fill="white" fill-opacity="0.7"/>
<path fill-rule="evenodd" clip-rule="evenodd" d="M1418.92 1722.61L1402.56 1707.03L1361.7 1758.05L1418.92 1722.61Z" fill="white" fill-opacity="0.7"/>
<path fill-rule="evenodd" clip-rule="evenodd" d="M1388.93 1917.44L1366.06 1902.61L1360.22 1925L1388.93 1917.44Z" fill="white" fill-opacity="0.7"/>
<path fill-rule="evenodd" clip-rule="evenodd" d="M1320.5 2046.23L1297.63 2031.4L1291.79 2053.79L1320.5 2046.23Z" fill="white" fill-opacity="0.7"/>
<path fill-rule="evenodd" clip-rule="evenodd" d="M1222.85 2172.79L1199.98 2157.96L1194.14 2180.35L1222.85 2172.79Z" fill="white" fill-opacity="0.7"/>
<path fill-rule="evenodd" clip-rule="evenodd" d="M1227.68 2255.63L1162.61 2199.02L1143.34 2216.33L1109.52 2179.59L1063.32 2229.71L1077.37 2320.29L1059.93 2354.63L1068.41 2412.2L1162.13 2488.52L1284.69 2534.65L1342.58 2580.54L1387.6 2518.44L1257.83 2468.09L1275.04 2419.11L1403.05 2520.53L1423.47 2480.68L1382.76 2439.49L1385.91 2409.46L1304.97 2346.31C1262.77 2332.96 1239.64 2300.03 1227.68 2255.63Z" fill="black" fill-opacity="0.3"/>
<path fill-rule="evenodd" clip-rule="evenodd" d="M1294.31 2175.85L1193.02 2079.31L1205.88 2046.54L1244.77 2085.03L1338.17 2105.82L1296.14 2126.54L1294.31 2175.85Z" fill="black" fill-opacity="0.3"/>
<path fill-rule="evenodd" clip-rule="evenodd" d="M1390.72 2042.13L1405.41 1981.62L1319.14 1949.1L1261.36 1905.16L1249.63 1921.61L1390.72 2042.13Z" fill="black" fill-opacity="0.3"/>
<path fill-rule="evenodd" clip-rule="evenodd" d="M1344.97 1812.79L1397.87 1818.13L1512.19 1893.37L1499.35 1941.66L1479.89 1948.48L1394.56 1883.1L1417.14 1876.59L1344.97 1812.79Z" fill="black" fill-opacity="0.3"/>
<path fill-rule="evenodd" clip-rule="evenodd" d="M1594.04 1827.82L1660.15 1780.37L1730.66 1840.07L1735.24 1866.02L1723 1942.02L1664.46 1884.74L1677.53 1853.22L1648.38 1826.69L1626 1856.64L1594.04 1827.82Z" fill="black" fill-opacity="0.3"/>
<path d="M1777.19 2178.04L1809.4 2143.7L1925.9 2255.06L1893.69 2289.41L1777.19 2178.04Z" fill="#777777" stroke="black" stroke-width="9.985" stroke-miterlimit="1.5" stroke-linecap="round" stroke-linejoin="round"/>
<path d="M1686.77 2258.82L1718 2223.59L1837.56 2331.66L1806.32 2366.89L1686.77 2258.82Z" fill="#777777" stroke="black" stroke-width="9.985" stroke-miterlimit="1.5" stroke-linecap="round" stroke-linejoin="round"/>
<path d="M1621.38 2357.59L1649.28 2319.66L1778.19 2416.37L1750.3 2454.3L1621.38 2357.59Z" fill="#777777" stroke="black" stroke-width="9.98501" stroke-miterlimit="1.5" stroke-linecap="round" stroke-linejoin="round"/>
<path d="M1442.2 2448.55L1735 2037.89L1842.65 2116.21L1549.85 2526.87L1442.2 2448.55Z" fill="#777777" stroke="black" stroke-width="4.28853" stroke-miterlimit="1.5" stroke-linecap="round" stroke-linejoin="round"/>
<path d="M1296.33 2340.85L1592.59 1925.33L1722.91 2020.14L1426.65 2435.66L1296.33 2340.85Z" fill="#777777" stroke="black" stroke-width="4.74637" stroke-miterlimit="1.5" stroke-linecap="round" stroke-linejoin="round"/>
<path fill-rule="evenodd" clip-rule="evenodd" d="M1385.47 2432.15L1406.88 2313.29L1483.23 2180.23L1573.43 2065.39L1685.85 2002.92L1848.99 2052.39L1616.29 2273.28L1477.32 2546.1L1385.47 2432.15Z" fill="#FF2E33" stroke="black" stroke-width="4.74637" stroke-miterlimit="1.5" stroke-linecap="round" stroke-linejoin="round"/>
<path d="M1541.94 2549.53L1921.24 2173.21L2652.53 2920.21L2273.23 3296.53L1541.94 2549.53Z" fill="#777777" stroke="black" stroke-width="12.3692" stroke-miterlimit="1.5" stroke-linecap="round" stroke-linejoin="round"/>
<path fill-rule="evenodd" clip-rule="evenodd" d="M1743.2 2753.21C1903.64 2640.27 2038.01 2509.03 2142.63 2356.92L2246.16 2462.68C2140.68 2633.41 2008.89 2767.37 1846.73 2858.97L1743.2 2753.21Z" fill="#2AB6E9" stroke="black" stroke-width="4.7759" stroke-miterlimit="1.5" stroke-linecap="round" stroke-linejoin="round"/>
<path fill-rule="evenodd" clip-rule="evenodd" d="M1613.07 2628.75C1773.51 2515.82 1907.88 2384.57 2012.5 2232.46L2116.03 2338.22C2010.55 2508.95 1878.76 2642.92 1716.6 2734.51L1613.07 2628.75Z" fill="#2AB6E9" stroke="black" stroke-width="4.7759" stroke-miterlimit="1.5" stroke-linecap="round" stroke-linejoin="round"/>
<path d="M1957.43 2973.21L2356.86 2576.92L2460.39 2682.68L2060.96 3078.96L1957.43 2973.21Z" fill="#777777" stroke="black" stroke-width="4.7759" stroke-miterlimit="1.5" stroke-linecap="round" stroke-linejoin="round"/>
<path fill-rule="evenodd" clip-rule="evenodd" d="M1863.76 2877.59C2041.91 2797.93 2173.17 2663.61 2263.19 2481.3L2361.45 2581.68C2283.19 2767.68 2146.04 2895.86 1962.02 2977.97L1863.76 2877.59Z" fill="#2AB6E9" stroke="black" stroke-width="4.65284" stroke-miterlimit="1.5" stroke-linecap="round" stroke-linejoin="round"/>
<path fill-rule="evenodd" clip-rule="evenodd" d="M2007.7 2995.4C2185.86 2915.74 2317.11 2781.42 2407.13 2599.11L2505.4 2699.49C2427.13 2885.49 2289.98 3013.67 2105.97 3095.78L2007.7 2995.4Z" fill="#2AB6E9" stroke="black" stroke-width="4.65284" stroke-miterlimit="1.5" stroke-linecap="round" stroke-linejoin="round"/>
<path fill-rule="evenodd" clip-rule="evenodd" d="M1855.39 2261.02L1920.27 2191.82L1981.65 2253.1L1927.51 2208.89L1855.39 2261.02Z" fill="white"/>
<path fill-rule="evenodd" clip-rule="evenodd" d="M1689.79 2021.17L1819.57 2059.72L1767.47 2109.22L1798.54 2064.57L1689.79 2021.17Z" fill="white"/>
<path fill-rule="evenodd" clip-rule="evenodd" d="M1816.83 2172.88L1825.81 2169.3L1866.97 2210.07L1816.83 2172.88Z" fill="white"/>
<path fill-rule="evenodd" clip-rule="evenodd" d="M1750.08 2268.16L1754.7 2264.65L1778.58 2290.58L1750.08 2268.16Z" fill="white"/>
<path fill-rule="evenodd" clip-rule="evenodd" d="M1873.31 2049.77L1937.52 2055.96L1954.69 2177.93L1927.06 2069.1L1873.31 2049.77Z" fill="white"/>
<path fill-rule="evenodd" clip-rule="evenodd" d="M1807.38 1888.26L1904.06 1896.21L1874.26 1982.62L1884.45 1908.64L1807.38 1888.26Z" fill="white"/>
<path fill-rule="evenodd" clip-rule="evenodd" d="M1822.79 1816.22L1829.54 1798.39L1777.38 1761.94L1852.54 1797.9L1822.79 1816.22Z" fill="white"/>
<path fill-rule="evenodd" clip-rule="evenodd" d="M2014.62 2260L2094.15 2334.62L2007.61 2270.95L2014.62 2260Z" fill="white"/>
<path fill-rule="evenodd" clip-rule="evenodd" d="M2143.79 2378.11L2223.32 2452.73L2136.78 2389.06L2143.79 2378.11Z" fill="white"/>
<path fill-rule="evenodd" clip-rule="evenodd" d="M1624.02 2571.93L1934.89 2263.5C2071.6 2392.29 2216.53 2528.68 2262.38 2698.85C2143.18 2719.55 2066.92 2680.52 1960.72 2623.19C2026.14 2711.63 2082.97 2802.48 2054.47 2929.59C1885.93 2871.97 1753.99 2704.7 1624.02 2571.93Z" fill="#777777" stroke="black" stroke-width="8.09247" stroke-miterlimit="1.5" stroke-linecap="round" stroke-linejoin="round"/>
<path fill-rule="evenodd" clip-rule="evenodd" d="M2033.25 2917.58L2023.44 2883.38L2038.37 2865.56L2031.19 2851.91L1783.45 2572.04L1769.23 2585.63L1796.8 2617.81C1796.8 2617.81 1829.07 2663.2 1825.64 2665.96C1822.21 2668.73 1779.26 2628.63 1779.26 2628.63L1746.91 2592.78C1700.17 2606.51 1660.48 2595.21 1630.96 2567.57L1683.61 2506.26L1660.63 2436.86L1861.04 2221.68L1807.68 2173.82L1780.33 2209.47L1817.07 2259.47L1773.95 2300.75L1737.11 2265.43L1705.24 2307.11L1734.15 2343.48L1703.82 2376.49L1668.38 2364.14L1648.06 2381.87C1613.43 2395.81 1589.87 2385.97 1583.89 2338.36L1560.45 2384.78L1447.04 2284.69L1414.4 2530.81L1539.31 2628.51L1638.01 2660.67L1923.17 2934.06C1923.17 2934.06 2060.7 2956.29 2033.25 2917.58Z" fill="black" fill-opacity="0.3"/>
<path fill-rule="evenodd" clip-rule="evenodd" d="M2168.92 2542.44L1960.74 2306L1978.41 2356.44L2222.51 2623.82L2168.92 2542.44Z" fill="white" fill-opacity="0.7"/>
<path fill-rule="evenodd" clip-rule="evenodd" d="M1959.48 2677.79L1863.08 2546.77C1863.08 2546.77 1853.67 2526.49 1859.97 2521.74C1866.45 2516.85 1896.87 2522.88 1896.87 2522.88L1864.52 2498.38L1852.32 2518.54L1829.15 2538.53L1959.48 2677.79Z" fill="white" fill-opacity="0.7"/>
<path fill-rule="evenodd" clip-rule="evenodd" d="M2265.91 2694.32C2230.34 2697.09 2209.32 2679.32 2175.38 2669.24C2083.04 2641.84 1983.18 2589.18 1904.63 2536.59C1895.11 2530.21 1865.3 2533.35 1870.91 2543.35C1886.23 2570.61 1996.53 2700.21 1996.53 2700.21L1984.18 2648.87L2048.21 2702.49C2049.25 2712.67 2047.97 2727.72 2057.96 2730.42C2067.55 2733.01 2088.15 2723.47 2100.92 2723.51C2177.21 2722.32 2243.39 2716.26 2265.91 2694.32Z" fill="black" fill-opacity="0.3"/>
<path fill-rule="evenodd" clip-rule="evenodd" d="M1937.19 2316.51C1896.87 2390.85 1829.08 2485.22 1762.26 2555.9L1844.26 2497.57L1943.87 2390.39C1951.48 2358.22 1951.08 2332.19 1937.19 2316.51Z" fill="black" fill-opacity="0.3"/>
<path fill-rule="evenodd" clip-rule="evenodd" d="M1682 2577.27C1682 2577.27 1728.78 2580.39 1783.4 2544.11C1837.7 2508.05 1899.78 2432.65 1921.45 2410.67C1964.92 2366.56 1942.8 2312.66 1942.8 2312.66L1682 2577.27Z" stroke="black" stroke-width="13" stroke-miterlimit="1.5" stroke-linecap="round" stroke-linejoin="round"/>
<path fill-rule="evenodd" clip-rule="evenodd" d="M1734.98 2564.37L1776.11 2520.06L1797.58 2531.8L1823.69 2511.47L1803.65 2492.9L1842.35 2455.57L1867.14 2471.55L1885.83 2447.08L1866.49 2432.38L1892.48 2403.62L1916.46 2416.73L1930.39 2399.37L1913.88 2383.48L1943.28 2349.66L1937.39 2394.94L1801.03 2532.53L1734.98 2564.37Z" fill="black"/>
<path d="M1641.55 2121.89C1632.28 2101.71 1642.52 2077.19 1664.43 2067.12C1686.33 2057.06 1711.61 2065.27 1720.88 2085.45C1730.15 2105.64 1719.91 2130.16 1698.01 2140.22C1676.1 2150.29 1650.83 2142.08 1641.55 2121.89Z" fill="#DED797" stroke="black" stroke-width="13" stroke-miterlimit="1.5" stroke-linecap="round" stroke-linejoin="round"/>
<path d="M1529.81 2217.83C1520.53 2197.65 1530.78 2173.13 1552.68 2163.06C1574.59 2153 1599.86 2161.21 1609.13 2181.39C1618.41 2201.58 1608.17 2226.1 1586.26 2236.16C1564.35 2246.23 1539.08 2238.02 1529.81 2217.83Z" fill="#DED797" stroke="black" stroke-width="13" stroke-miterlimit="1.5" stroke-linecap="round" stroke-linejoin="round"/>
<path d="M1459.41 2325.67C1450.14 2305.49 1460.38 2280.97 1482.29 2270.9C1504.19 2260.84 1529.47 2269.05 1538.74 2289.23C1548.01 2309.42 1537.77 2333.94 1515.86 2344C1493.96 2354.07 1468.68 2345.86 1459.41 2325.67Z" fill="#DED797" stroke="black" stroke-width="13" stroke-miterlimit="1.5" stroke-linecap="round" stroke-linejoin="round"/>
<path d="M1420.4 2448.78C1411.13 2428.6 1421.37 2404.08 1443.27 2394.01C1465.18 2383.95 1490.45 2392.16 1499.73 2412.34C1509 2432.53 1498.76 2457.05 1476.85 2467.11C1454.95 2477.18 1429.67 2468.97 1420.4 2448.78Z" fill="#DED797" stroke="black" stroke-width="13" stroke-miterlimit="1.5" stroke-linecap="round" stroke-linejoin="round"/>
<path fill-rule="evenodd" clip-rule="evenodd" d="M1716.18 1718.12L1712.2 1785.75L1814.65 1823.49L1876.79 1790L1716.18 1718.12Z" fill="#DED797" fill-opacity="0.3"/>
<path fill-rule="evenodd" clip-rule="evenodd" d="M1847.04 1887.21L1911.12 1891L1873.87 2016.84C1873.87 2016.84 1882.93 1946.36 1868.85 1930.5C1854.77 1914.63 1843.1 1908.42 1843.1 1908.42L1847.04 1887.21Z" fill="#DED797" fill-opacity="0.3"/>
<path fill-rule="evenodd" clip-rule="evenodd" d="M1866.63 2043.53L1946.75 2048.55L1960.09 2192.4L1920.68 2092.13L1866.63 2043.53Z" fill="#DED797" fill-opacity="0.3"/>
<path fill-rule="evenodd" clip-rule="evenodd" d="M1920.36 2187.13L1880.29 2236.98L1932.2 2229.25L1965.83 2267.66L2187.27 2507.58L2215.7 2428.63L2148.71 2358.79L2124.75 2381.78L2097.34 2384.14L2115.1 2332.3L2016.42 2234.9L1997.99 2246.67L1920.36 2187.13Z" fill="#DED797" fill-opacity="0.3"/>
</g>
<defs>
<clipPath id="clip0_605_312">
<rect width="2160" height="2700" fill="white"/>
</clipPath>
</defs>
</svg>
