<svg width="2160" height="2700" viewBox="0 0 2160 2700" fill="none" xmlns="http://www.w3.org/2000/svg">
<path d="M1082.92 2067.43C1375.01 2067.43 1611.8 1804.11 1611.8 1479.29C1611.8 1154.46 1375.01 891.145 1082.92 891.145C790.829 891.145 554.043 1154.46 554.043 1479.29C554.043 1804.11 790.829 2067.43 1082.92 2067.43Z" fill="#777777"/>
<path fill-rule="evenodd" clip-rule="evenodd" d="M1477.5 1035.11L1067.29 1429.92L679.522 1043.03C679.522 1043.03 943.586 949.004 1076.58 947.679C1209.59 946.362 1477.5 1035.11 1477.5 1035.11Z" fill="black"/>
<path fill-rule="evenodd" clip-rule="evenodd" d="M1503.17 1061.77L1092.95 1456.58C1078.44 1470.55 1055.42 1470.35 1041.16 1456.12L653.39 1069.22C644.406 1060.25 640.638 1047.3 643.427 1034.91C646.207 1022.53 655.153 1012.43 667.113 1008.17C667.113 1008.17 939.243 912.043 1076.21 910.688C1213.14 909.325 1489.14 999.984 1489.14 999.984C1501.45 1004.06 1510.72 1014.27 1513.59 1026.92C1516.46 1039.55 1512.5 1052.78 1503.17 1061.77ZM1477.51 1035.11C1477.51 1035.11 1209.59 946.361 1076.58 947.679C943.587 949.003 679.523 1043.03 679.523 1043.03L1067.29 1429.92L1477.51 1035.11Z" fill="#777777"/>
<path fill-rule="evenodd" clip-rule="evenodd" d="M1477.01 998.966L1069.21 1391.39L678.72 1001.63C678.72 1001.63 944.925 881.75 1075.44 881.309C1208.5 880.865 1477.01 998.966 1477.01 998.966Z" fill="black"/>
<path fill-rule="evenodd" clip-rule="evenodd" d="M1477.01 998.966L1069.21 1391.39L678.72 1001.63C678.72 1001.63 944.925 881.75 1075.44 881.309C1208.5 880.865 1477.01 998.966 1477.01 998.966ZM1410.93 1011.25C1329.01 977.987 1168.26 917.966 1075.57 918.281C984.24 918.585 824.118 980.253 743.395 1013.95L1069.68 1339.63L1410.93 1011.25Z" fill="#777777"/>
<path fill-rule="evenodd" clip-rule="evenodd" d="M953.858 1324.12C953.858 1324.12 921.242 1352.57 885.206 1352.79C850.685 1353.01 787.187 1311.46 785.772 1270.41C784.607 1236.62 821.446 1193.35 821.446 1193.35L953.858 1324.12Z" fill="#777777"/>
<path fill-rule="evenodd" clip-rule="evenodd" d="M974.78 1348.1C974.78 1348.1 932.169 1384.33 885.405 1384.62C858.689 1384.78 817.782 1367.12 789.524 1340.28C768.34 1320.15 754.789 1295.33 753.967 1271.51C753.326 1252.93 760.149 1232.02 769.639 1213.91C781.72 1190.87 797.214 1172.72 797.214 1172.72C802.95 1165.98 811.232 1161.94 820.073 1161.55C828.913 1161.17 837.514 1164.49 843.81 1170.71L976.223 1301.48C982.52 1307.69 985.942 1316.26 985.67 1325.1C985.396 1333.95 981.451 1342.28 974.78 1348.1ZM953.859 1324.12L821.447 1193.35C821.447 1193.35 784.608 1236.62 785.774 1270.41C787.189 1311.46 850.686 1353.01 885.207 1352.79C921.243 1352.57 953.859 1324.12 953.859 1324.12Z" fill="black"/>
<path fill-rule="evenodd" clip-rule="evenodd" d="M1191.04 1327.17C1191.04 1327.17 1219.63 1353.35 1255.66 1353.57C1290.19 1353.78 1353.68 1312.24 1355.1 1271.18C1356.26 1237.4 1325.59 1195.92 1325.59 1195.92L1191.04 1327.17Z" fill="#777777"/>
<path fill-rule="evenodd" clip-rule="evenodd" d="M1168.82 1304.39L1303.37 1173.14C1309.95 1166.72 1318.98 1163.46 1328.15 1164.2C1337.31 1164.94 1345.71 1169.61 1351.18 1177C1351.18 1177 1388.37 1229.75 1386.9 1272.28C1386.08 1296.1 1372.53 1320.93 1351.35 1341.05C1323.09 1367.9 1282.18 1385.56 1255.47 1385.39C1207.62 1385.1 1169.55 1350.64 1169.55 1350.64C1163.09 1344.73 1159.36 1336.42 1159.22 1327.67C1159.08 1318.92 1162.55 1310.5 1168.82 1304.39ZM1191.04 1327.17C1191.04 1327.17 1219.63 1353.35 1255.66 1353.57C1290.18 1353.78 1353.68 1312.24 1355.1 1271.18C1356.26 1237.4 1325.59 1195.92 1325.59 1195.92L1191.04 1327.17Z" fill="black"/>
<path fill-rule="evenodd" clip-rule="evenodd" d="M1390.41 1122.06C1390.93 1121.55 1391.77 1121.55 1392.28 1122.08C1392.79 1122.6 1392.78 1123.43 1392.26 1123.94C1392.26 1123.94 1355.84 1160.1 1355.83 1160.1C1354.98 1161.15 1354.77 1162.65 1354.9 1164.5C1355.12 1167.85 1356.54 1172.17 1358.66 1177.21C1366.69 1196.31 1384.78 1225.07 1391.81 1249.57C1394.5 1258.96 1395.56 1267.74 1394.03 1275.2C1382.24 1332.92 1346.09 1370.42 1299.85 1383.68C1257.81 1395.74 1207.31 1387.68 1158.94 1356.27L1086.19 1428.98C1086.14 1437.94 1085.92 1480.36 1085.41 1538.03C1085.13 1571.1 1084.71 1609.17 1084.26 1648.84C1083.75 1692.78 1083.19 1738.66 1082.62 1781.81C1081.19 1890.15 1079.81 1981.26 1079.81 1981.26C1079.81 1981.98 1079.22 1982.57 1078.49 1982.56C1077.76 1982.56 1077.17 1981.97 1077.18 1981.23C1077.18 1981.23 1076.92 1890.11 1076.82 1781.77C1076.79 1738.61 1076.78 1692.73 1076.83 1648.79C1076.87 1609.13 1076.91 1571.05 1077.03 1537.98C1077.26 1472.85 1077.62 1427.17 1077.62 1427.17C1077.63 1426.04 1078.08 1424.95 1078.88 1424.16L1155.59 1348.27C1156.95 1346.92 1159.08 1346.72 1160.67 1347.79C1207.52 1379.75 1256.87 1388.57 1298.04 1377.22C1342.44 1364.99 1377.23 1329.31 1389.18 1274.18C1390.65 1267.41 1389.66 1259.4 1387.32 1250.82C1380.66 1226.43 1363.04 1197.65 1355.32 1178.59C1351.38 1168.87 1350.27 1161.4 1353.35 1157.88C1353.37 1157.84 1353.41 1157.81 1353.45 1157.78L1390.41 1122.06Z" fill="white"/>
<path fill-rule="evenodd" clip-rule="evenodd" d="M1204.11 1320.26C1203.59 1320.76 1202.75 1320.75 1202.25 1320.23C1201.74 1319.7 1201.75 1318.87 1202.28 1318.36C1202.28 1318.36 1221.62 1298.36 1244.83 1274.73C1254.07 1265.32 1263.91 1255.34 1273.41 1245.84C1281.98 1237.28 1290.22 1229.07 1297.48 1222.05C1311.78 1208.21 1322.05 1198.77 1322.05 1198.77C1322.91 1197.94 1324.09 1197.54 1325.27 1197.69C1326.45 1197.83 1327.51 1198.5 1328.13 1199.51C1336.6 1213.98 1344.2 1231.38 1348.37 1247.13C1352.06 1261.05 1353.09 1273.64 1350.17 1281.7C1349.95 1282.39 1349.2 1282.77 1348.51 1282.55C1347.82 1282.33 1347.44 1281.58 1347.66 1280.89C1349.86 1273.13 1347.8 1261.44 1343.51 1248.59C1339.02 1235.15 1332 1220.5 1324.13 1207.86C1320.1 1211.91 1312.73 1219.26 1303.46 1228.23C1296.21 1235.26 1287.74 1243.23 1278.9 1251.52C1269.1 1260.7 1258.81 1270.21 1249.1 1279.14C1224.73 1301.57 1204.11 1320.26 1204.11 1320.26Z" fill="white"/>
<path fill-rule="evenodd" clip-rule="evenodd" d="M822.866 1202.88C822.36 1202.37 822.363 1201.53 822.887 1201.02C823.401 1200.5 824.241 1200.52 824.747 1201.03C824.747 1201.03 845.208 1220.4 869.324 1243.72C878.915 1253 889.1 1262.88 898.754 1272.46C907.462 1281.09 915.789 1289.43 922.902 1296.77C936.924 1311.24 946.444 1321.69 946.444 1321.69C947.154 1322.41 947.527 1323.4 947.47 1324.42C947.402 1325.43 946.926 1326.38 946.139 1327.01C938.397 1332.88 924.198 1340.73 910.274 1344.75C900.383 1347.59 890.685 1348.5 883.549 1345.67C882.865 1345.42 882.505 1344.67 882.744 1343.99C882.993 1343.3 883.743 1342.94 884.427 1343.18C891.162 1345.27 899.942 1343.56 908.824 1340.31C919.919 1336.24 931.103 1329.6 938.418 1323.99C934.411 1320.15 926.535 1312.53 916.807 1302.76C909.591 1295.51 901.409 1287.03 892.936 1278.17C883.54 1268.34 873.848 1257.98 864.74 1248.22C841.868 1223.69 822.866 1202.88 822.866 1202.88Z" fill="white"/>
<path fill-rule="evenodd" clip-rule="evenodd" d="M982.54 1357.13C982.025 1356.62 982.023 1355.78 982.536 1355.27C983.049 1354.75 983.884 1354.75 984.4 1355.26C984.4 1355.26 994.219 1363.38 1006.43 1374.19C1011.01 1378.25 1015.91 1382.67 1020.7 1387.23C1022.57 1389.02 1024.41 1390.84 1026.18 1392.68C1028.94 1395.55 1031.55 1398.44 1034.03 1401.22C1036.81 1404.32 1039.36 1407.28 1041.66 1409.98C1048.41 1417.9 1052.84 1423.38 1052.84 1423.38C1053.36 1423.9 1053.36 1424.73 1052.85 1425.25C1052.34 1425.76 1051.5 1425.77 1050.98 1425.25C1050.98 1425.25 1045.48 1420.84 1037.53 1414.13C1034.82 1411.84 1031.85 1409.31 1028.73 1406.55C1025.94 1404.08 1023.03 1401.48 1020.15 1398.74C1018.31 1396.97 1016.48 1395.14 1014.68 1393.28C1010.1 1388.51 1005.66 1383.63 1001.58 1379.07C990.699 1366.91 982.54 1357.13 982.54 1357.13Z" fill="white"/>
<path fill-rule="evenodd" clip-rule="evenodd" d="M738.883 1118.9C738.37 1118.38 738.373 1117.55 738.889 1117.03C739.405 1116.52 740.241 1116.52 740.753 1117.04C740.753 1117.04 749.496 1124.38 759.718 1133.44C763.778 1137.04 768.061 1140.87 772.077 1144.66C775.692 1148.07 779.122 1151.39 781.989 1154.39C787.647 1160.3 791.287 1164.73 791.287 1164.73C792.58 1166.03 792.677 1168.11 791.509 1169.52L773.335 1188.03C772.872 1188.59 772.041 1188.67 771.48 1188.21C770.918 1187.75 770.838 1186.92 771.301 1186.36L784.006 1167.86C782.157 1166.24 779.287 1163.65 775.938 1160.4C772.964 1157.51 769.665 1154.06 766.277 1150.41C762.515 1146.37 758.716 1142.06 755.148 1137.98C746.164 1127.69 738.883 1118.9 738.883 1118.9Z" fill="white"/>
<path fill-rule="evenodd" clip-rule="evenodd" d="M934.318 1213.23C933.794 1212.73 933.778 1211.89 934.282 1211.37C934.787 1210.85 935.622 1210.83 936.146 1211.34C936.146 1211.34 992.341 1263.79 1033.07 1302.02C1051.06 1318.91 1066.02 1333.03 1071.85 1338.54C1078.94 1331.81 1100.11 1311.76 1127.29 1286.42C1139.33 1275.2 1152.57 1262.97 1166.29 1250.4C1185.7 1232.62 1206.06 1214.17 1225.23 1196.85C1273.39 1153.35 1314.12 1117.03 1314.12 1117.03C1314.65 1116.53 1315.48 1116.57 1315.98 1117.1C1316.47 1117.63 1316.44 1118.47 1315.91 1118.96C1315.91 1118.96 1276.67 1156.88 1229.72 1201.68C1211.02 1219.52 1191.11 1238.46 1171.95 1256.49C1158.4 1269.24 1145.22 1281.54 1133.13 1292.71C1099.42 1323.9 1074.43 1346.52 1074.43 1346.52C1072.96 1347.88 1070.68 1347.86 1069.24 1346.47C1069.24 1346.47 1051.36 1328.97 1028.67 1306.6C988.897 1267.37 934.318 1213.23 934.318 1213.23Z" fill="white"/>
<path fill-rule="evenodd" clip-rule="evenodd" d="M933.744 1179.69C933.222 1179.19 933.209 1178.35 933.715 1177.83C934.221 1177.31 935.056 1177.3 935.579 1177.8L1074.45 1309.13C1081.92 1302.03 1105.32 1279.81 1135.46 1251.6C1148.64 1239.27 1163.12 1225.81 1178.13 1211.99C1199.36 1192.44 1221.64 1172.16 1242.62 1153.11C1295.31 1105.27 1339.87 1065.32 1339.87 1065.32C1340.4 1064.83 1341.24 1064.86 1341.73 1065.39C1342.23 1065.92 1342.2 1066.76 1341.67 1067.25C1341.67 1067.25 1298.64 1108.85 1247.17 1157.99C1226.67 1177.57 1204.85 1198.34 1183.84 1218.13C1168.98 1232.12 1154.53 1245.6 1141.29 1257.86C1104.34 1292.09 1076.98 1316.95 1076.98 1316.95C1075.54 1318.3 1073.3 1318.28 1071.88 1316.9L933.744 1179.69Z" fill="white"/>
<path d="M1067.3 1429.93L1066.13 2055.4" stroke="black" stroke-width="9.99605" stroke-miterlimit="1.5" stroke-linecap="square" stroke-linejoin="round"/>
<path fill-rule="evenodd" clip-rule="evenodd" d="M685.879 1052.91C783.512 955.327 901.549 890.724 1044.06 865.695C1370.28 889.694 1560.12 1090.38 1618.54 1508.43C1594.26 1762.68 1323.7 2079.52 1145.93 2093.15C1600.31 1485.95 1432.34 974.253 685.879 1052.91Z" fill="black" fill-opacity="0.2"/>
</svg>
