<svg width="2160" height="2700" viewBox="0 0 2160 2700" fill="none" xmlns="http://www.w3.org/2000/svg">
<path d="M1070.33 2067.43C1362.43 2067.43 1599.21 1804.11 1599.21 1479.29C1599.21 1154.46 1362.43 891.145 1070.33 891.145C778.243 891.145 541.457 1154.46 541.457 1479.29C541.457 1804.11 778.243 2067.43 1070.33 2067.43Z" fill="#636363"/>
<path fill-rule="evenodd" clip-rule="evenodd" d="M1272.72 1330.88C1272.72 1331.39 1272.31 1331.8 1271.79 1331.8C1271.29 1331.8 1270.88 1331.38 1270.88 1330.88C1270.88 1330.88 1270.03 1302.82 1269.57 1278.5C1269.21 1259.94 1269.12 1243.57 1269.12 1243.57C1269.12 1241.94 1270.45 1240.61 1272.1 1240.6C1272.1 1240.6 1277.6 1240.51 1285.81 1240.56C1291.64 1240.6 1298.82 1240.71 1306.37 1240.87C1313.17 1241 1320.26 1241.18 1326.94 1241.37C1343.7 1241.86 1357.78 1242.39 1357.78 1242.39C1358.29 1242.39 1358.71 1242.81 1358.71 1243.31C1358.71 1243.83 1358.3 1244.24 1357.78 1244.24C1357.78 1244.24 1343.71 1244.87 1326.95 1245.45C1320.27 1245.69 1313.18 1245.92 1306.39 1246.1C1298.83 1246.29 1291.65 1246.45 1285.83 1246.53C1281.22 1246.58 1277.47 1246.59 1275.05 1246.59C1274.97 1252.14 1274.77 1264.72 1274.4 1278.51C1273.77 1302.83 1272.72 1330.88 1272.72 1330.88Z" fill="white" fill-opacity="0.7"/>
<path fill-rule="evenodd" clip-rule="evenodd" d="M955.388 1331.23C955.388 1331.24 955.373 1331.25 955.359 1331.25C955.345 1331.25 955.324 1331.25 955.332 1331.22C955.332 1331.22 954.772 1315.33 954.233 1297.28C953.521 1273.64 952.817 1246.36 952.817 1246.36C952.807 1245.1 953.821 1244.06 955.083 1244.03C955.083 1244.03 977.142 1242.9 996.258 1242.24C1006.77 1241.87 1016.4 1241.65 1020.94 1241.56C1021.1 1235.48 1021.49 1220.38 1022.1 1203.77C1023.13 1175.48 1024.71 1142.85 1024.71 1142.85C1024.71 1142.83 1024.73 1142.82 1024.74 1142.82C1024.76 1142.82 1024.77 1142.83 1024.77 1142.85C1024.77 1142.85 1025.75 1175.5 1026.25 1203.81C1026.64 1225.41 1026.72 1244.45 1026.72 1244.45C1026.71 1246.02 1025.45 1247.3 1023.88 1247.34C1023.88 1247.34 1011.02 1247.84 996.423 1248.15C980.938 1248.48 963.506 1248.63 957.439 1248.68C957.278 1255.76 956.806 1277.77 956.321 1297.27C955.861 1315.33 955.388 1331.23 955.388 1331.23Z" fill="white" fill-opacity="0.7"/>
<path fill-rule="evenodd" clip-rule="evenodd" d="M1182.19 1785.54C1182.19 1785.56 1182.19 1785.57 1182.16 1785.57C1182.14 1785.57 1182.14 1785.56 1182.13 1785.54C1182.13 1785.54 1179.52 1733.12 1177.51 1687.68C1176.99 1676.01 1176.53 1664.79 1176.16 1655.06C1175.46 1637.03 1175.04 1624.05 1175 1622.57C1173.69 1611.25 1171.12 1600.91 1167.46 1591.36C1161.6 1576.08 1152.78 1562.88 1140.81 1551.34C1133.36 1544.13 1124.74 1537.54 1114.92 1531.48C1102.07 1523.55 1087.24 1516.48 1070.35 1510.13C1070.33 1510.12 1070.32 1510.1 1070.33 1510.09C1070.33 1510.08 1070.35 1510.06 1070.37 1510.07C1087.69 1515.52 1103.02 1521.75 1116.33 1529.06C1126.69 1534.75 1135.84 1541.1 1143.75 1548.17C1156.74 1559.77 1166.51 1573.32 1172.91 1589.21C1176.93 1599.19 1179.52 1610.11 1180.91 1622.02C1180.92 1622.1 1180.93 1622.19 1180.92 1622.28C1180.92 1622.28 1181.2 1635.73 1181.44 1654.92C1181.58 1664.67 1181.69 1675.88 1181.77 1687.58C1182.1 1733.05 1182.19 1785.54 1182.19 1785.54Z" fill="white" fill-opacity="0.7"/>
<path fill-rule="evenodd" clip-rule="evenodd" d="M697.755 1504.16C697.746 1504.67 697.322 1505.07 696.815 1505.06C696.307 1505.05 695.905 1504.64 695.913 1504.13C695.913 1504.13 696.069 1461.33 696.492 1410.44C696.656 1390.17 696.854 1368.62 697.133 1347.99C697.383 1329.36 697.658 1311.47 698.001 1295.95C698.684 1265.37 699.451 1243.92 699.451 1243.92C699.483 1242.5 700.635 1241.38 702.05 1241.38C702.05 1241.38 722.11 1241.66 744.862 1242.05C774.664 1242.58 809.079 1243.3 809.079 1243.3C809.588 1243.31 810.003 1243.72 810.002 1244.23C809.994 1244.74 809.581 1245.15 809.078 1245.15C809.078 1245.15 774.657 1245.72 744.852 1246.1C726.964 1246.32 710.743 1246.49 704.618 1246.54C704.581 1253.05 704.439 1271.65 704.006 1296.06C703.732 1311.6 703.287 1329.48 702.79 1348.1C702.242 1368.74 701.578 1390.26 700.932 1410.53C699.312 1461.39 697.755 1504.16 697.755 1504.16Z" fill="white" fill-opacity="0.7"/>
<path fill-rule="evenodd" clip-rule="evenodd" d="M1099.71 1187.86C1099.72 1188.22 1099.43 1188.53 1099.06 1188.53C1098.7 1188.54 1098.4 1188.25 1098.39 1187.89L1097.82 1171.82C1097.82 1171.7 1097.84 1171.58 1097.89 1171.46C1108.93 1145.38 1134.65 1146.92 1168.62 1150.39C1189.42 1152.52 1213.34 1155.26 1238.86 1152.41C1253.42 1150.79 1268.5 1147.35 1283.86 1140.91C1298.33 1134.83 1313.06 1126.11 1327.83 1113.7C1344.88 1099.37 1362.02 1080.2 1378.84 1054.56C1379.03 1054.25 1379.43 1054.17 1379.75 1054.36C1380.05 1054.56 1380.14 1054.96 1379.95 1055.27C1363.64 1081.56 1346.88 1101.38 1329.97 1116.2C1315.14 1129.2 1300.22 1138.38 1285.49 1144.73C1269.77 1151.49 1254.27 1155.04 1239.32 1156.62C1213.47 1159.35 1189.27 1156.17 1168.26 1153.67C1135.59 1149.77 1110.71 1147.18 1099.5 1171.97L1099.71 1187.86Z" fill="white" fill-opacity="0.7"/>
<path d="M1055.78 896.59L1053.61 2055.4" stroke="black" stroke-width="9.00004" stroke-miterlimit="1.5" stroke-linecap="square" stroke-linejoin="round"/>
<path fill-rule="evenodd" clip-rule="evenodd" d="M976.747 1552.8L975.728 1553.65L974.005 1551.64L975.005 1550.79C984.415 1542.58 994.16 1535.72 1004.24 1530.11C1014.91 1524.14 1025.95 1519.57 1037.31 1516.23C1037.86 1516.06 1038.47 1516.17 1038.94 1516.52C1039.4 1516.88 1039.68 1517.44 1039.68 1518.01C1039.68 1518.01 1040.15 1588.92 1040.31 1679.23C1040.37 1713.23 1040.36 1749.97 1040.23 1786.72C1040.13 1823.46 1039.83 1860.21 1039.58 1894.18C1038.9 1984.5 1038.14 2055.42 1038.14 2055.42L1038.14 2056.74L1035.49 2056.72L1035.49 2055.4C1035.49 2055.4 1035 1984.49 1034.65 1894.18C1034.52 1860.19 1034.38 1823.44 1034.4 1786.7C1034.41 1749.95 1034.53 1713.22 1034.72 1679.23C1035.15 1598.79 1035.81 1533.74 1035.94 1520.48C1025.6 1523.53 1015.54 1527.62 1005.76 1532.9C995.772 1538.27 986.102 1544.86 976.747 1552.8Z" fill="white" fill-opacity="0.7"/>
<path fill-rule="evenodd" clip-rule="evenodd" d="M934.518 1793.37L709.402 1793.38L709.776 1252.49L841.301 1252.35V1326.52C841.301 1326.52 838.682 1346.68 853.146 1366.78C867.585 1386.84 880.694 1392.58 896.488 1393.1C912.285 1393.62 929.135 1391.51 947.917 1369.9C964.959 1350.29 961.923 1319.82 961.923 1319.82V1252.22L1029.14 1252.14L1029.92 967.7C1197.92 899.469 1210.93 1095.51 1377.27 1038.27C1260.46 1233.47 1129.31 1078.2 1088.49 1163.98L1089.1 1252.45L1158.68 1252.51V1326.52C1158.68 1326.52 1156.07 1346.68 1170.53 1366.78C1184.97 1386.84 1198.08 1392.58 1213.87 1393.1C1229.67 1393.62 1246.51 1391.51 1265.3 1369.9C1282.34 1350.29 1279.31 1319.82 1279.31 1319.82V1252.62L1412.94 1252.73L1412.74 1793.35L1188.04 1793.36V1654.18C1188.04 1654.18 1190.75 1617.99 1171.33 1573.36C1152.99 1531.24 1105.47 1508.33 1064.69 1507.43C1014.48 1506.32 965.796 1537.85 948.597 1575.65C932.249 1611.57 934.518 1641.18 934.518 1641.18V1793.37Z" fill="#2AB6E9"/>
<mask id="mask0_1135_91" style="mask-type:luminance" maskUnits="userSpaceOnUse" x="709" y="953" width="704" height="841">
<path d="M934.518 1793.37L709.402 1793.38L709.776 1252.49L841.301 1252.35V1326.52C841.301 1326.52 838.682 1346.68 853.146 1366.78C867.585 1386.84 880.694 1392.58 896.488 1393.1C912.285 1393.62 929.135 1391.51 947.917 1369.9C964.959 1350.29 961.923 1319.82 961.923 1319.82V1252.22L1029.14 1252.14L1029.92 967.7C1197.92 899.469 1210.93 1095.51 1377.27 1038.27C1260.46 1233.47 1129.31 1078.2 1088.49 1163.98L1089.1 1252.45L1158.68 1252.51V1326.52C1158.68 1326.52 1156.07 1346.68 1170.53 1366.78C1184.97 1386.84 1198.08 1392.58 1213.87 1393.1C1229.67 1393.62 1246.51 1391.51 1265.3 1369.9C1282.34 1350.29 1279.31 1319.82 1279.31 1319.82V1252.62L1412.94 1252.73L1412.74 1793.35L1188.04 1793.36V1654.18C1188.04 1654.18 1190.75 1617.99 1171.33 1573.36C1152.99 1531.24 1105.47 1508.33 1064.69 1507.43C1014.48 1506.32 965.796 1537.85 948.597 1575.65C932.249 1611.57 934.518 1641.18 934.518 1641.18V1793.37Z" fill="white"/>
</mask>
<g mask="url(#mask0_1135_91)">
<path fill-rule="evenodd" clip-rule="evenodd" d="M741.923 1350.47C740.904 1350.47 740.078 1349.64 740.078 1348.62C740.08 1347.6 740.907 1346.78 741.924 1346.78C741.924 1346.78 824.538 1345.69 929.763 1344.95C969.37 1344.67 1012.18 1344.38 1054.99 1344.4C1097.8 1344.41 1140.61 1344.73 1180.21 1345.04C1285.44 1345.89 1368.05 1347.1 1368.05 1347.1C1369.07 1347.1 1369.89 1347.92 1369.89 1348.94C1369.89 1349.96 1369.07 1350.79 1368.05 1350.79C1368.05 1350.79 1285.43 1351.91 1180.21 1352.65C1140.6 1352.93 1097.79 1353.2 1054.98 1353.17C1012.17 1353.14 969.365 1352.81 929.76 1352.49C824.535 1351.64 741.923 1350.47 741.923 1350.47Z" fill="black" fill-opacity="0.35"/>
<path fill-rule="evenodd" clip-rule="evenodd" d="M746.634 1463.97C745.614 1463.97 744.789 1463.14 744.789 1462.13C744.791 1461.11 745.618 1460.28 746.635 1460.28C746.635 1460.28 829.249 1459.2 934.474 1458.45C974.081 1458.17 1016.89 1457.88 1059.7 1457.9C1102.51 1457.92 1145.32 1458.23 1184.92 1458.55C1290.15 1459.39 1372.76 1460.6 1372.76 1460.6C1373.78 1460.6 1374.61 1461.43 1374.61 1462.44C1374.6 1463.46 1373.78 1464.29 1372.76 1464.29C1372.76 1464.29 1290.15 1465.41 1184.92 1466.15C1145.31 1466.43 1102.5 1466.7 1059.69 1466.67C1016.88 1466.64 974.076 1466.31 934.471 1465.99C829.246 1465.14 746.634 1463.97 746.634 1463.97Z" fill="black" fill-opacity="0.35"/>
<path fill-rule="evenodd" clip-rule="evenodd" d="M753.337 1589.9C752.318 1589.9 751.492 1589.07 751.492 1588.06C751.494 1587.04 752.321 1586.21 753.338 1586.21C753.338 1586.21 835.952 1585.12 941.177 1584.38C980.784 1584.1 1023.59 1583.81 1066.4 1583.83C1109.21 1583.85 1152.02 1584.16 1191.63 1584.48C1296.85 1585.32 1379.46 1586.53 1379.46 1586.53C1380.48 1586.53 1381.31 1587.36 1381.31 1588.37C1381.31 1589.39 1380.48 1590.22 1379.46 1590.22C1379.46 1590.22 1296.85 1591.34 1191.62 1592.08C1152.02 1592.36 1109.21 1592.63 1066.4 1592.6C1023.59 1592.57 980.78 1592.24 941.174 1591.92C835.949 1591.07 753.337 1589.9 753.337 1589.9Z" fill="black" fill-opacity="0.35"/>
<path fill-rule="evenodd" clip-rule="evenodd" d="M751.833 1704.3C750.814 1704.3 749.988 1703.47 749.988 1702.45C749.99 1701.43 750.817 1700.61 751.834 1700.61C751.834 1700.61 834.448 1699.52 939.673 1698.78C979.28 1698.5 1022.09 1698.21 1064.9 1698.23C1107.71 1698.24 1150.52 1698.56 1190.12 1698.87C1295.35 1699.72 1377.96 1700.93 1377.96 1700.93C1378.98 1700.93 1379.8 1701.75 1379.8 1702.77C1379.8 1703.79 1378.98 1704.62 1377.96 1704.62C1377.96 1704.62 1295.34 1705.74 1190.12 1706.48C1150.51 1706.76 1107.7 1707.03 1064.89 1707C1022.08 1706.97 979.276 1706.64 939.67 1706.32C834.445 1705.47 751.833 1704.3 751.833 1704.3Z" fill="black" fill-opacity="0.35"/>
<path fill-rule="evenodd" clip-rule="evenodd" d="M834.104 1399.34C834.108 1398.86 834.496 1398.48 834.969 1398.49C835.442 1398.49 835.821 1398.88 835.817 1399.35C835.817 1399.35 835.834 1448.04 835.558 1510.03C835.454 1533.37 835.335 1558.59 835.075 1583.82C834.815 1609.04 834.418 1634.26 834.036 1657.59C833.023 1719.58 831.976 1768.25 831.976 1768.25C831.971 1768.73 831.583 1769.11 831.11 1769.1C830.638 1769.1 830.258 1768.71 830.263 1768.24C830.263 1768.24 830.229 1719.55 830.506 1657.56C830.611 1634.22 830.738 1609 831.003 1583.77C831.27 1558.55 831.675 1533.33 832.058 1510C833.072 1448.01 834.104 1399.34 834.104 1399.34Z" fill="black" fill-opacity="0.24"/>
<path fill-rule="evenodd" clip-rule="evenodd" d="M1282.68 1404.29C1282.69 1403.81 1283.07 1403.43 1283.55 1403.44C1284.02 1403.44 1284.4 1403.83 1284.39 1404.31C1284.39 1404.31 1284.41 1452.99 1284.14 1514.98C1284.03 1538.32 1283.91 1563.54 1283.65 1588.77C1283.39 1613.99 1283 1639.21 1282.61 1662.54C1281.6 1724.54 1280.55 1773.21 1280.55 1773.21C1280.55 1773.68 1280.16 1774.06 1279.69 1774.05C1279.22 1774.05 1278.84 1773.66 1278.84 1773.19C1278.84 1773.19 1278.81 1724.51 1279.08 1662.51C1279.19 1639.17 1279.32 1613.95 1279.58 1588.73C1279.85 1563.5 1280.25 1538.28 1280.64 1514.95C1281.65 1452.96 1282.68 1404.29 1282.68 1404.29Z" fill="black" fill-opacity="0.24"/>
<path fill-rule="evenodd" clip-rule="evenodd" d="M997.826 1307.17C997.831 1306.7 998.218 1306.32 998.692 1306.32C999.164 1306.33 999.544 1306.72 999.539 1307.19C999.539 1307.19 999.556 1355.87 999.281 1417.87C999.177 1441.21 999.058 1466.43 998.797 1491.65C998.537 1516.87 998.141 1542.1 997.758 1565.43C996.745 1627.42 995.699 1676.09 995.699 1676.09C995.694 1676.56 995.305 1676.94 994.833 1676.94C994.36 1676.93 993.981 1676.55 993.986 1676.07C993.986 1676.07 993.952 1627.39 994.229 1565.39C994.334 1542.06 994.461 1516.83 994.726 1491.61C994.992 1466.39 995.398 1441.17 995.781 1417.83C996.795 1355.84 997.826 1307.17 997.826 1307.17Z" fill="black" fill-opacity="0.24"/>
<path fill-rule="evenodd" clip-rule="evenodd" d="M1127.8 1307.06C1127.8 1306.59 1128.19 1306.21 1128.66 1306.21C1129.14 1306.22 1129.52 1306.61 1129.51 1307.08C1129.51 1307.08 1129.53 1355.76 1129.25 1417.76C1129.15 1441.09 1129.03 1466.32 1128.77 1491.54C1128.51 1516.76 1128.11 1541.98 1127.73 1565.32C1126.72 1627.31 1125.67 1675.98 1125.67 1675.98C1125.67 1676.45 1125.28 1676.83 1124.81 1676.83C1124.33 1676.82 1123.95 1676.43 1123.96 1675.96C1123.96 1675.96 1123.92 1627.28 1124.2 1565.28C1124.31 1541.94 1124.43 1516.72 1124.7 1491.5C1124.96 1466.28 1125.37 1441.06 1125.75 1417.72C1126.77 1355.73 1127.8 1307.06 1127.8 1307.06Z" fill="black" fill-opacity="0.24"/>
</g>
<path fill-rule="evenodd" clip-rule="evenodd" d="M934.518 1793.37L709.402 1793.38L709.776 1252.49L841.301 1252.35V1326.52C841.301 1326.52 838.682 1346.68 853.146 1366.78C867.585 1386.84 880.694 1392.58 896.488 1393.1C912.285 1393.62 929.135 1391.51 947.917 1369.9C964.959 1350.29 961.923 1319.82 961.923 1319.82V1252.22L1029.14 1252.14L1029.92 967.7C1197.92 899.469 1210.93 1095.51 1377.27 1038.27C1260.46 1233.47 1129.31 1078.2 1088.49 1163.98L1089.1 1252.45L1158.68 1252.51V1326.52C1158.68 1326.52 1156.07 1346.68 1170.53 1366.78C1184.97 1386.84 1198.08 1392.58 1213.87 1393.1C1229.67 1393.62 1246.51 1391.51 1265.3 1369.9C1282.34 1350.29 1279.31 1319.82 1279.31 1319.82V1252.62L1412.94 1252.73L1412.74 1793.35L1188.04 1793.36V1654.18C1188.04 1654.18 1190.75 1617.99 1171.33 1573.36C1152.99 1531.24 1105.47 1508.33 1064.69 1507.43C1014.48 1506.32 965.796 1537.85 948.597 1575.65C932.249 1611.57 934.518 1641.18 934.518 1641.18V1793.37ZM928.957 1787.81C928.957 1787.81 928.247 1641.43 928.247 1641.44C928.117 1639.56 927.368 1625.8 931.578 1606.25C933.706 1596.36 937.122 1584.97 942.536 1572.89C951.946 1551.94 970.388 1532.7 993.495 1519.28C1014.58 1507.03 1039.52 1499.66 1064.85 1500.1C1086.8 1500.48 1110.63 1506.89 1131.32 1518.95C1151.6 1530.77 1168.83 1548.01 1178.61 1570.19C1185.17 1585.08 1189.34 1599.07 1191.99 1611.19C1197.18 1634.98 1196.52 1651.73 1196.37 1654.41L1196.98 1784.35C1232.71 1784.19 1365.23 1783.62 1402.77 1783.46L1401.06 1264.67L1291.61 1264.87C1291.61 1264.87 1291.75 1319.28 1291.75 1319.27C1291.99 1322.29 1292.69 1335.05 1289.16 1349.3C1286.74 1359.07 1282.32 1369.45 1274.79 1378.16C1265.5 1388.91 1256.5 1395.47 1247.91 1399.54C1235.86 1405.27 1224.46 1406.16 1213.45 1405.82C1202.12 1405.48 1191.92 1402.89 1181.83 1396.22C1174.66 1391.47 1167.48 1384.51 1160.09 1374.29C1154.37 1366.37 1150.88 1358.44 1148.76 1351.36C1145.01 1338.87 1145.49 1328.91 1145.77 1325.85L1145.7 1265.51L1089.09 1265.52C1081.91 1265.51 1076.08 1259.72 1076.03 1252.54L1075.32 1164.07C1075.3 1162.08 1075.74 1160.12 1076.59 1158.32C1090.19 1129.74 1111.54 1122.1 1138.74 1122.38C1174.92 1122.76 1223.81 1140.92 1275.6 1119.71C1299.44 1109.94 1323.71 1091.59 1347.74 1059.3C1293 1068.8 1255.33 1050.36 1221.06 1026.65C1193.03 1007.27 1167.68 983.824 1135.44 972.241C1110.24 963.188 1080.74 961.927 1041.98 976.042L1040.39 1252.17C1040.38 1258.37 1035.35 1263.39 1029.16 1263.39L972.895 1263.25C972.895 1263.25 972.693 1319.41 972.693 1319.41C972.907 1322.34 973.542 1334.88 969.991 1348.85C967.58 1358.34 963.271 1368.42 955.901 1376.84C946.77 1387.27 937.991 1393.65 929.598 1397.57C917.882 1403.05 906.822 1403.85 896.148 1403.46C885.281 1403.06 875.488 1400.57 865.855 1394.11C858.927 1389.46 852.011 1382.66 844.909 1372.71C839.444 1365.04 836.1 1357.38 834.09 1350.55C830.473 1338.25 831.081 1328.55 831.339 1325.94L831.613 1261.96L718.813 1261.6C718.443 1332 716.065 1786.79 716.065 1786.79L928.957 1787.81Z" fill="black"/>
<path fill-rule="evenodd" clip-rule="evenodd" d="M1073.69 982.232C1148.4 955.677 1228.76 1089.11 1322.24 1071.74C1311.56 1087.87 1288.89 1103.07 1267.57 1111.82C1280.82 1102.17 1296.54 1092.98 1297.95 1080.82C1224.82 1083.49 1145.97 971.283 1073.69 982.232Z" fill="white" fill-opacity="0.8"/>
<path fill-rule="evenodd" clip-rule="evenodd" d="M1388.58 1767.19L1387.18 1275.93L1323.27 1276.49C1323.27 1276.49 1374.12 1279.7 1376.4 1296.83C1387.28 1378.61 1388.58 1767.19 1388.58 1767.19Z" fill="white" fill-opacity="0.8"/>
<path fill-rule="evenodd" clip-rule="evenodd" d="M845.164 1401.18C821.047 1364.31 816.069 1320.52 817.863 1271.35L753.958 1271.9C753.958 1271.9 804.805 1275.11 807.085 1292.24C817.968 1374.02 845.164 1401.18 845.164 1401.18Z" fill="white" fill-opacity="0.8"/>
<path fill-rule="evenodd" clip-rule="evenodd" d="M915.227 1779.04C917.043 1727.07 904.845 1595.07 932.882 1547.25C960.918 1499.44 1069.91 1494.95 1069.91 1494.95C1069.91 1494.95 969.481 1506.53 942.998 1549.09C903.55 1612.49 915.227 1779.04 915.227 1779.04Z" fill="white" fill-opacity="0.8"/>
<path fill-rule="evenodd" clip-rule="evenodd" d="M1161.09 1400.84C1161.09 1400.84 1137.98 1362.36 1135.69 1340.05C1133.43 1317.95 1137.54 1273.98 1137.54 1273.98L1094.65 1276.74C1083.59 1276.59 1074.38 1273.88 1069.99 1265.85C1062.12 1251.5 1065.68 1214.57 1065.86 1180.17C1064.54 1202.73 1058.53 1243.57 1067.07 1270.29C1072.48 1287.21 1112.81 1280.42 1128.68 1282.31C1135.61 1283.14 1123.53 1321.85 1130.13 1342.86C1139.06 1371.23 1161.09 1400.84 1161.09 1400.84Z" fill="white" fill-opacity="0.8"/>
<path fill-rule="evenodd" clip-rule="evenodd" d="M998.421 1369.32C997.948 1369.33 997.558 1368.95 997.55 1368.48C997.542 1368.01 997.92 1367.62 998.392 1367.61C998.392 1367.61 1015.11 1366.8 1036.43 1366.07C1044.44 1365.8 1053.11 1365.51 1061.79 1365.36C1070.46 1365.21 1079.13 1365.2 1087.16 1365.2C1108.48 1365.21 1125.22 1365.46 1125.22 1365.46C1125.69 1365.46 1126.08 1365.83 1126.09 1366.31C1126.1 1366.78 1125.72 1367.17 1125.25 1367.18C1125.25 1367.18 1108.53 1368 1087.22 1368.73C1079.2 1369 1070.53 1369.28 1061.86 1369.43C1053.18 1369.57 1044.51 1369.58 1036.48 1369.57C1015.16 1369.56 998.421 1369.32 998.421 1369.32Z" fill="white" fill-opacity="0.7"/>
<path fill-rule="evenodd" clip-rule="evenodd" d="M1230.54 1603.38C1230.06 1603.39 1229.67 1603.02 1229.67 1602.54C1229.66 1602.07 1230.04 1601.68 1230.51 1601.67C1230.51 1601.67 1247.23 1600.86 1268.54 1600.13C1276.56 1599.86 1285.23 1599.57 1293.9 1599.42C1302.58 1599.27 1311.25 1599.26 1319.27 1599.26C1340.6 1599.27 1357.34 1599.53 1357.34 1599.53C1357.81 1599.52 1358.2 1599.9 1358.21 1600.37C1358.22 1600.84 1357.84 1601.23 1357.37 1601.24C1357.37 1601.24 1340.65 1602.06 1319.33 1602.79C1311.31 1603.06 1302.64 1603.35 1293.97 1603.49C1285.3 1603.64 1276.63 1603.64 1268.6 1603.63C1247.27 1603.63 1230.54 1603.38 1230.54 1603.38Z" fill="white" fill-opacity="0.7"/>
<path fill-rule="evenodd" clip-rule="evenodd" d="M1237.38 1717.58C1236.91 1717.58 1236.52 1717.21 1236.51 1716.73C1236.5 1716.26 1236.88 1715.87 1237.35 1715.86C1237.35 1715.86 1253.44 1715.07 1273.96 1714.35C1281.67 1714.08 1290.02 1713.8 1298.36 1713.65C1306.71 1713.51 1315.06 1713.5 1322.78 1713.51C1343.31 1713.53 1359.41 1713.8 1359.41 1713.8C1359.89 1713.79 1360.28 1714.17 1360.29 1714.64C1360.3 1715.11 1359.92 1715.5 1359.44 1715.51C1359.44 1715.51 1343.35 1716.32 1322.84 1717.04C1315.12 1717.31 1306.78 1717.58 1298.43 1717.72C1290.08 1717.86 1281.74 1717.86 1274.01 1717.85C1253.49 1717.83 1237.38 1717.58 1237.38 1717.58Z" fill="white" fill-opacity="0.7"/>
<path fill-rule="evenodd" clip-rule="evenodd" d="M790.743 1604.23C790.271 1604.24 789.88 1603.86 789.873 1603.39C789.865 1602.91 790.242 1602.52 790.714 1602.52C790.714 1602.52 806.803 1601.72 827.319 1601C835.037 1600.73 843.38 1600.45 851.726 1600.3C860.074 1600.16 868.42 1600.15 876.144 1600.16C896.672 1600.18 912.778 1600.45 912.778 1600.45C913.251 1600.44 913.641 1600.82 913.649 1601.29C913.659 1601.77 913.28 1602.16 912.808 1602.16C912.808 1602.16 896.718 1602.98 876.204 1603.69C868.485 1603.96 860.142 1604.24 851.796 1604.38C843.448 1604.51 835.102 1604.51 827.378 1604.5C806.85 1604.48 790.743 1604.23 790.743 1604.23Z" fill="white" fill-opacity="0.7"/>
<path fill-rule="evenodd" clip-rule="evenodd" d="M783.978 1718.09C783.505 1718.1 783.115 1717.72 783.107 1717.25C783.099 1716.78 783.476 1716.39 783.948 1716.38C783.948 1716.38 800.038 1715.58 820.553 1714.87C828.271 1714.6 836.614 1714.31 844.96 1714.17C853.308 1714.03 861.654 1714.02 869.378 1714.03C889.906 1714.05 906.012 1714.32 906.012 1714.32C906.485 1714.31 906.876 1714.68 906.883 1715.16C906.893 1715.63 906.514 1716.02 906.042 1716.03C906.042 1716.03 889.953 1716.84 869.439 1717.56C861.719 1717.83 853.376 1718.1 845.03 1718.24C836.682 1718.38 828.336 1718.38 820.612 1718.37C800.084 1718.35 783.978 1718.09 783.978 1718.09Z" fill="white" fill-opacity="0.7"/>
<path fill-rule="evenodd" clip-rule="evenodd" d="M1307.27 1360.03C1306.8 1360.04 1306.41 1359.66 1306.4 1359.19C1306.39 1358.71 1306.77 1358.32 1307.24 1358.32C1307.24 1358.32 1314.76 1357.67 1324.38 1357.13C1327.99 1356.93 1331.9 1356.72 1335.81 1356.65C1339.72 1356.58 1343.63 1356.65 1347.25 1356.73C1356.88 1356.94 1364.42 1357.35 1364.42 1357.35C1364.89 1357.34 1365.28 1357.72 1365.29 1358.19C1365.29 1358.66 1364.92 1359.05 1364.44 1359.06C1364.44 1359.06 1356.93 1359.73 1347.31 1360.26C1343.69 1360.46 1339.79 1360.66 1335.88 1360.72C1331.96 1360.79 1328.05 1360.71 1324.44 1360.63C1314.8 1360.42 1307.27 1360.03 1307.27 1360.03Z" fill="white" fill-opacity="0.7"/>
<path fill-rule="evenodd" clip-rule="evenodd" d="M758.14 1360.2C757.666 1360.21 757.276 1359.83 757.268 1359.36C757.26 1358.89 757.638 1358.5 758.11 1358.49C758.11 1358.49 765.627 1357.84 775.248 1357.31C778.862 1357.1 782.767 1356.9 786.678 1356.83C790.59 1356.76 794.5 1356.83 798.118 1356.9C807.753 1357.11 815.286 1357.52 815.286 1357.52C815.759 1357.51 816.15 1357.89 816.157 1358.36C816.165 1358.84 815.788 1359.23 815.315 1359.24C815.315 1359.24 807.8 1359.9 798.178 1360.43C794.565 1360.63 790.659 1360.83 786.748 1360.9C782.835 1360.96 778.926 1360.88 775.307 1360.81C765.674 1360.6 758.14 1360.2 758.14 1360.2Z" fill="white" fill-opacity="0.7"/>
<path fill-rule="evenodd" clip-rule="evenodd" d="M761.614 1479.11C761.139 1479.11 760.758 1478.73 760.748 1478.26C760.747 1477.79 761.129 1477.4 761.604 1477.4C761.604 1477.4 842.203 1476.35 944.86 1475.32C983.501 1474.93 1025.27 1474.52 1067.03 1474.25C1108.8 1473.97 1150.57 1473.84 1189.22 1473.73C1291.87 1473.43 1372.48 1473.45 1372.48 1473.45C1372.96 1473.45 1373.34 1473.83 1373.35 1474.3C1373.35 1474.78 1372.97 1475.16 1372.49 1475.17C1372.49 1475.17 1291.89 1476.22 1189.23 1477.26C1150.59 1477.65 1108.83 1478.05 1067.06 1478.32C1025.29 1478.58 983.524 1478.71 944.883 1478.82C842.223 1479.12 761.614 1479.11 761.614 1479.11Z" fill="white" fill-opacity="0.9"/>
<path fill-rule="evenodd" clip-rule="evenodd" d="M685.883 1052.91C783.516 955.327 901.553 890.724 1044.07 865.695C1370.29 889.694 1560.13 1090.38 1618.55 1508.43C1594.27 1762.68 1323.71 2079.52 1145.94 2093.15C1600.32 1485.95 1432.35 974.253 685.883 1052.91Z" fill="black" fill-opacity="0.2"/>
</svg>
