<svg width="2160" height="2700" viewBox="0 0 2160 2700" fill="none" xmlns="http://www.w3.org/2000/svg">
<path d="M1084.23 2096.3C1381.66 2096.3 1622.78 1822.49 1622.78 1484.73C1622.78 1146.97 1381.66 873.166 1084.23 873.166C786.791 873.166 545.672 1146.97 545.672 1484.73C545.672 1822.49 786.791 2096.3 1084.23 2096.3Z" fill="white"/>
<path fill-rule="evenodd" clip-rule="evenodd" d="M1478.33 1150.56L1475.97 1637.31C1475.97 1642.14 1472.06 1646.06 1467.23 1646.06L665.183 1643.86C661.564 1643.86 658.63 1640.93 658.63 1637.31L657.566 1150.56C657.566 1146.35 660.976 1142.94 665.183 1142.94L1467.23 1139.46C1473.36 1139.46 1478.33 1144.43 1478.33 1150.56ZM1467.23 1150.56H665.183V1637.31H1467.23V1150.56Z" fill="#00A8E4"/>
<path fill-rule="evenodd" clip-rule="evenodd" d="M734.89 1537.42C739.491 1536.16 749.354 1541.63 757.829 1541.39C779.774 1540.77 803.838 1536.51 803.838 1536.51C811.387 1535.22 818.566 1540.29 819.86 1547.84C821.154 1555.39 816.076 1562.57 808.527 1563.86C808.527 1563.86 757.995 1572 732.414 1566.97C716.576 1563.86 708.358 1554.89 707.917 1544.73L708.681 1432.48L706.233 1268.25C706.092 1260.59 712.195 1254.26 719.852 1254.12C727.509 1253.98 733.84 1260.08 733.981 1267.74L735.211 1432.39L734.89 1537.42Z" fill="#00A8E4"/>
<path fill-rule="evenodd" clip-rule="evenodd" d="M870.302 1467.53C878.951 1471.83 877.812 1483.36 882.349 1481.21C883.806 1480.52 880.599 1478.55 878.586 1477.58C894.004 1484.94 900.045 1495.25 901.707 1505.45C904.848 1524.7 888.681 1545.97 884.172 1550.31C876.759 1557.5 862.729 1560.32 848.469 1552.88C838.672 1547.78 828.432 1537.69 822.347 1520.8C817.934 1508.64 821.375 1497.74 828.502 1488.7C839.06 1475.31 859.22 1467.08 859.22 1467.08C862.817 1465.68 866.832 1465.85 870.302 1467.53ZM866.272 1530.53C868.8 1527.75 874.467 1520.32 875.139 1512.58C875.483 1508.62 872.97 1505.25 866.971 1502.51C864.385 1501.34 862.968 1498.84 861.888 1496.37C858.723 1498.09 855.046 1500.43 851.937 1503.33C849.41 1505.68 846.392 1508.23 847.637 1511.83C849.656 1517.62 852.376 1522.12 855.518 1525.36C858.03 1527.94 860.7 1529.71 863.311 1530.48C864.349 1530.78 865.787 1530.02 866.272 1530.53ZM860.278 1492.58C859.324 1490.59 858.252 1489.37 856.246 1490.27C855.522 1490.59 856.895 1491.89 858.175 1492.5L860.278 1492.58Z" fill="#00A8E4"/>
<path fill-rule="evenodd" clip-rule="evenodd" d="M972.783 1526.8C970.728 1528.68 968.293 1530.51 965.397 1532.2C955.753 1537.85 944.89 1537.29 934.982 1532.57C921.085 1525.93 910.348 1510.75 909.171 1502.65C908.197 1495.95 910.618 1487.61 916.133 1480.16C921.881 1472.4 930.691 1465.58 938.179 1462.88C943.581 1460.89 949.386 1460.83 955.279 1462.24C963.415 1464.19 971.912 1469.65 978.338 1472.97C983.939 1475.86 989.885 1484.03 993.604 1495.23C999.362 1512.57 1002 1537.59 1002 1537.59C1002.72 1545.22 997.112 1551.99 989.487 1552.71C981.862 1553.42 975.089 1547.82 974.372 1540.19C974.372 1540.19 973.896 1534.45 972.783 1526.8ZM958.78 1492.64C956.814 1491.52 954.761 1490.4 952.674 1489.46C950.768 1488.59 948.991 1487.17 947.223 1487.8C945.025 1488.6 942.678 1490.38 940.576 1492.42C938.871 1494.08 936.926 1497.28 936.066 1498.76C937.444 1500.53 940.946 1504.8 944.024 1506.76C946.393 1508.27 948.994 1510.2 951.401 1508.74C953.084 1507.72 954.315 1506.6 955.197 1505.47C956.437 1503.88 957.414 1501.57 956.655 1501.58C956.652 1501.58 956.648 1501.58 956.645 1501.58C956.308 1498.33 957.125 1495.21 958.78 1492.64ZM956.645 1501.58C956.667 1501.79 956.695 1502 956.727 1502.22C956.727 1502.22 956.254 1501.59 956.645 1501.58Z" fill="#00A8E4"/>
<path fill-rule="evenodd" clip-rule="evenodd" d="M1065.79 1473.15L1064.43 1438.98C1064.42 1438.61 1064.42 1438.24 1064.43 1437.87L1066.76 1360.38C1067.03 1352.72 1073.46 1346.73 1081.12 1347C1088.77 1347.27 1094.77 1353.7 1094.49 1361.36L1091.34 1438.41L1094.35 1527.26C1094.2 1531.16 1092.06 1537.6 1083.55 1541.02C1077.5 1543.45 1062.97 1545.49 1048.63 1545.17C1035.67 1544.88 1023.02 1542.41 1016.1 1538.23C1010.11 1534.62 1006.84 1529.66 1005.79 1524.28C1004.55 1517.94 1003.98 1502.13 1014.73 1489.44C1022.12 1480.71 1035.26 1472.67 1059.43 1472.54C1061.68 1472.53 1063.8 1472.74 1065.79 1473.15ZM1067.56 1517.66L1067.38 1513.06C1066.07 1511.42 1065.11 1509.47 1064.64 1507.29C1064.64 1507.29 1064.05 1504.59 1062.32 1502.1C1061.69 1501.2 1060.93 1500.01 1059.44 1500C1049.09 1499.95 1042.11 1501.65 1037.64 1504.91C1033.27 1508.1 1032.12 1512.61 1031.99 1515.89C1034.23 1516.55 1038.07 1517.58 1041.13 1517.92C1049.96 1518.92 1060.23 1518.67 1067.56 1517.66Z" fill="#00A8E4"/>
<path fill-rule="evenodd" clip-rule="evenodd" d="M1156.08 1480.59C1161.82 1486.11 1156.41 1507.94 1155.65 1529.69C1157.67 1531.63 1159.33 1534.63 1159.91 1539.37C1160.7 1546.99 1155.16 1553.82 1147.55 1554.61C1144.88 1554.89 1142.32 1554.39 1140.07 1553.31C1138.26 1553.26 1136.64 1553.03 1135.69 1552.48C1132.72 1550.76 1128.3 1547.85 1128.17 1539.88C1126.97 1509.18 1124.89 1481.15 1128.77 1470.18C1132.24 1460.36 1138.92 1456.65 1146.78 1456.55C1154.44 1456.64 1160.59 1462.92 1160.5 1470.58C1160.46 1474.54 1158.76 1478.09 1156.08 1480.59ZM1133.24 1546.02C1132.76 1544.84 1132.44 1543.58 1132.3 1542.26C1132.44 1543.75 1132.78 1544.98 1133.24 1546.02ZM1146.61 1484.3C1146.56 1484.3 1146.52 1484.3 1146.47 1484.3C1146.52 1484.31 1146.56 1484.31 1146.61 1484.3Z" fill="#00A8E4"/>
<path d="M1143.19 1397.44L1143.94 1399.11" stroke="#00A8E4" stroke-width="28" stroke-miterlimit="1.5" stroke-linecap="round" stroke-linejoin="round"/>
<path d="M1376 1524.89L1376.75 1526.56" stroke="#00A8E4" stroke-width="28" stroke-miterlimit="1.5" stroke-linecap="round" stroke-linejoin="round"/>
<path d="M1413.61 1507.8L1414.36 1509.46" stroke="#00A8E4" stroke-width="28" stroke-miterlimit="1.5" stroke-linecap="round" stroke-linejoin="round"/>
<path d="M1434.87 1535.94L1435.62 1537.61" stroke="#00A8E4" stroke-width="28" stroke-miterlimit="1.5" stroke-linecap="round" stroke-linejoin="round"/>
<path fill-rule="evenodd" clip-rule="evenodd" d="M1201.48 1475.17C1206.03 1471.95 1211.26 1469.29 1216.37 1467.62C1227.77 1463.9 1238.38 1466 1243.83 1470.93C1246.74 1473.57 1249.68 1478.88 1250.95 1486.19C1253.25 1499.42 1251.49 1522.35 1251.49 1522.35C1250.79 1529.97 1244.04 1535.6 1236.41 1534.9C1228.78 1534.2 1223.16 1527.44 1223.86 1519.81C1223.86 1519.81 1218.89 1504.19 1219.98 1494.96C1217.16 1496.33 1214.54 1498.09 1213.04 1500.2C1211.16 1502.88 1210.59 1507.68 1210 1512.2C1208.87 1520.8 1209 1529.05 1209 1529.05C1209.06 1536.24 1203.43 1542.19 1196.25 1542.54C1189.07 1542.89 1182.89 1537.51 1182.25 1530.34L1178.33 1490.39L1176.76 1487.95C1172.68 1481.47 1174.63 1472.89 1181.12 1468.81C1187.6 1464.74 1196.17 1466.69 1200.25 1473.17L1201.48 1475.17Z" fill="#00A8E4"/>
<path fill-rule="evenodd" clip-rule="evenodd" d="M1191.19 1585.77C1191.18 1585.82 1191.16 1585.88 1191.15 1585.94C1191.08 1586.38 1191.75 1586.34 1192.55 1586.27C1194.4 1587.08 1196.1 1588.28 1197.53 1589.89C1197.1 1589.41 1195.73 1587.56 1194.36 1586.23C1206.26 1586.88 1231.65 1586.11 1251.69 1586.3C1268.27 1586.46 1281.81 1588.2 1285.72 1590.32C1290.72 1593.02 1296.43 1594.04 1301.65 1594.31C1307.1 1594.58 1312.06 1594.2 1314.98 1593.53C1316.67 1588.35 1324.37 1564.79 1326.62 1558.08C1326.58 1558.08 1326.53 1558.07 1326.48 1558.06C1326.28 1558 1326.57 1557.62 1326.61 1557.35C1327.48 1552.41 1327.98 1542.29 1327.78 1531.15C1327.76 1530.3 1327.73 1529.43 1327.68 1528.53C1323 1530.88 1317.47 1532.87 1312.06 1533.65C1303.9 1534.83 1296.11 1533.39 1290.32 1529.19C1284.85 1525.23 1280.3 1518.85 1279.72 1508.14C1279.11 1497 1283.18 1487.86 1291.07 1480.71C1298.27 1474.19 1309.27 1469.3 1323 1466.81C1333.73 1464.85 1344.61 1471.55 1349.74 1488.05C1355.65 1507.02 1355.67 1541.69 1353.91 1557.31C1353.22 1563.5 1351.82 1567.69 1350.93 1569.3C1350.74 1569.67 1346.09 1591.39 1340.8 1603.2C1337.44 1610.71 1332.84 1615.42 1329.54 1617.14C1325.66 1619.15 1313.92 1622.32 1300.34 1621.71C1291.61 1621.32 1282.16 1619.4 1273.69 1615.13C1272.45 1614.98 1266.86 1614.34 1262.25 1614.2C1242.51 1613.58 1211.05 1615.01 1195.57 1614.61C1189.87 1614.46 1185.7 1613.88 1183.7 1613.3C1179.8 1612.15 1177.55 1610.13 1176.27 1608.68C1171.08 1602.81 1171.64 1593.84 1177.5 1588.65C1181.37 1585.24 1186.6 1584.31 1191.19 1585.77ZM1191.19 1585.77C1191.59 1584.07 1192.97 1584.88 1194.36 1586.23C1194.24 1586.22 1194.11 1586.22 1193.99 1586.21C1193.55 1586.18 1193.02 1586.23 1192.55 1586.27C1192.1 1586.08 1191.65 1585.91 1191.19 1585.77ZM1322.61 1495.67C1322.57 1495.47 1322.52 1495.27 1322.48 1495.08C1318.27 1496.22 1314.61 1497.69 1311.69 1499.65C1309.38 1501.19 1307.72 1503.07 1307.56 1505.63C1309.45 1505.26 1312.39 1504.6 1314.06 1503.82C1315 1503.38 1315.92 1502.31 1316.68 1501.7C1317.58 1499.93 1318.87 1498.34 1320.53 1497.03C1321.19 1496.51 1321.89 1496.06 1322.61 1495.67ZM1316.38 1514.04C1316.83 1515.06 1317.42 1516.03 1318.15 1516.95C1317.43 1516.03 1316.84 1515.05 1316.38 1514.04ZM1327.19 1556.39C1327.21 1556.33 1327.23 1556.3 1327.24 1556.29C1327.22 1556.32 1327.2 1556.35 1327.19 1556.39Z" fill="#00A8E4"/>
</svg>
