<svg width="2160" height="2700" viewBox="0 0 2160 2700" fill="none" xmlns="http://www.w3.org/2000/svg">
<g clip-path="url(#clip0_918_923)">
<path d="M2182.79 -29.8701H-12.0938V2714.69H2182.79V-29.8701Z" fill="black" stroke="black" stroke-width="18.0236" stroke-miterlimit="1.5" stroke-linecap="round" stroke-linejoin="round"/>
<path fill-rule="evenodd" clip-rule="evenodd" d="M1099.09 -47.7529L1104.65 1391.14L1191.83 -45.1819L1115.73 1391.75L1284.24 -37.4753L1126.77 1392.98L1376.1 -24.6608L1137.69 1394.81L1467.06 -6.77459L1148.53 1397.25L1556.89 16.1241L1159.2 1400.29L1645.25 43.9628L1169.68 1403.93L1731.93 76.6566L1179.91 1408.11L1816.59 114.102L1189.93 1412.87L1898.99 156.18L1199.63 1418.18L1978.87 202.757L1209.05 1424.03L2056.02 253.69L1218.08 1430.36L2130.11 308.818L1226.76 1437.2L2201 367.965L1235.03 1444.51L2268.39 430.947L1242.9 1452.26L2332.1 497.563L1250.3 1460.45L2391.95 567.617L1257.2 1469.03L2447.74 640.857L1263.61 1477.97L2499.28 717.094L1269.53 1487.26L2546.39 796.051L1274.92 1496.86L2588.96 877.493L1279.73 1506.74L2626.86 961.166L1283.95 1516.88L2659.93 1046.84L1287.62 1527.25L2688.1 1134.17L1290.71 1537.79L2711.26 1222.94L1293.19 1548.47L2729.36 1312.86L1295.02 1559.29L2742.32 1403.63L1296.27 1570.19L2750.13 1494.99L1296.89 1581.15L2752.72 1586.63L1296.89 1592.12L2750.13 1678.28L1296.27 1603.06L2742.32 1769.62L1295.02 1613.96L2729.36 1860.39L1293.19 1624.77L2711.26 1950.31L1290.71 1635.48L2688.1 2039.08L1287.62 1646.02L2659.93 2126.43L1283.95 1656.37L2626.86 2212.08L1279.73 1666.51L2588.96 2295.76L1274.92 1676.39L2546.39 2377.2L1269.53 1685.99L2499.28 2456.18L1263.61 1695.27L2447.74 2532.39L1257.2 1704.22L2391.95 2605.65L1250.3 1712.8L2332.1 2675.69L1242.9 1720.98L2268.39 2742.32L1235.03 1728.74L2201 2805.3L1226.76 1736.05L2130.11 2864.43L1218.08 1742.89L2056.02 2919.57L1209.05 1749.24L1978.87 2970.5L1199.63 1755.07L1898.99 3017.07L1189.93 1760.38L1816.59 3059.16L1179.91 1765.14L1731.93 3096.6L1169.68 1769.34L1645.25 3129.3L1159.2 1772.96L1556.89 3157.14L1148.53 1775.99L1467.06 3180.02L1137.69 1778.44L1376.1 3197.91L1126.77 1780.27L1284.24 3210.72L1115.73 1781.5L1191.83 3218.44L1104.65 1782.11L1099.09 3221.01L1093.55 1782.11L1006.38 3218.44L1082.48 1781.5L913.968 3210.72L1071.44 1780.27L822.106 3197.91L1060.52 1778.44L731.141 3180.02L1049.68 1775.99L641.324 3157.14L1039.01 1772.96L552.95 3129.3L1028.53 1769.34L466.294 3096.6L1018.3 1765.14L381.625 3059.16L1008.28 1760.38L299.218 3017.07L998.575 1755.07L219.327 2970.5L989.165 1749.24L142.204 2919.57L980.133 1742.89L68.0912 2864.43L971.451 1736.05L-2.77905 2805.3L963.177 1728.74L-70.1796 2742.32L955.31 1720.98L-133.903 2675.69L947.939 1712.8L-193.746 2605.65L941.005 1704.22L-249.522 2532.39L934.595 1695.27L-301.055 2456.18L928.681 1685.99L-348.181 2377.2L923.32 1676.39L-390.756 2295.76L918.484 1666.51L-428.64 2212.08L914.23 1656.37L-461.719 2126.43L910.588 1646.02L-489.887 2039.08L907.5 1635.48L-513.055 1950.31L905.052 1624.77L-531.15 1860.39L903.188 1613.96L-544.115 1769.62L901.935 1603.06L-551.912 1678.28L901.323 1592.12L-554.514 1586.63L901.323 1581.15L-551.912 1494.99L901.935 1570.19L-544.115 1403.63L903.188 1559.29L-531.15 1312.86L905.052 1548.47L-513.055 1222.94L907.5 1537.79L-489.887 1134.17L910.588 1527.25L-461.719 1046.84L914.23 1516.88L-428.64 961.166L918.484 1506.74L-390.756 877.493L923.32 1496.86L-348.181 796.051L928.681 1487.26L-301.055 717.094L934.595 1477.97L-249.522 640.857L941.005 1469.03L-193.746 567.617L947.939 1460.45L-133.903 497.563L955.31 1452.26L-70.1796 430.947L963.177 1444.51L-2.77905 367.965L971.451 1437.2L68.0912 308.818L980.133 1430.36L142.204 253.69L989.165 1424.03L219.327 202.757L998.575 1418.18L299.218 156.18L1008.28 1412.87L381.625 114.102L1018.3 1408.11L466.294 76.6566L1028.53 1403.93L552.95 43.9628L1039.01 1400.29L641.324 16.1241L1049.68 1397.25L731.141 -6.77459L1060.52 1394.81L822.106 -24.6608L1071.44 1392.98L913.968 -37.4753L1082.48 1391.75L1006.38 -45.1819L1093.55 1391.14L1099.09 -47.7529Z" fill="#DED797"/>
</g>
<defs>
<clipPath id="clip0_918_923">
<rect width="2160" height="2700" fill="white"/>
</clipPath>
</defs>
</svg>
