<svg width="2160" height="2700" viewBox="0 0 2160 2700" fill="none" xmlns="http://www.w3.org/2000/svg">
<g clip-path="url(#clip0_876_182)">
<path d="M2204.4 -29.8691H-52.834V2737.51H2204.4V-29.8691Z" fill="black" stroke="#803A0C" stroke-width="18.3536" stroke-miterlimit="1.5" stroke-linecap="round" stroke-linejoin="round"/>
<path fill-rule="evenodd" clip-rule="evenodd" d="M-426.702 -45.2308C-349.781 -26.2337 298.415 122.923 298.415 122.923L172.087 169.382L537.568 304.201L432.453 306.797L643.539 506.166L582.566 506.394L729.127 712.465L469.667 502.614L516.329 439.752L305.596 321.032L349.662 284.071L-12.8209 260.186L41.349 169.508L-247.514 196.493C-247.514 196.493 -503.623 -64.2279 -426.702 -45.2308Z" fill="#D56113"/>
<path fill-rule="evenodd" clip-rule="evenodd" d="M-426.702 -45.2308C-349.781 -26.2337 298.415 122.923 298.415 122.923L172.087 169.382L537.568 304.201L432.453 306.797L643.539 506.166L582.566 506.394L729.127 712.465L469.667 502.614L516.329 439.752L305.596 321.032L349.662 284.071L-12.8209 260.186L41.349 169.508L-247.514 196.493C-247.514 196.493 -503.623 -64.2279 -426.702 -45.2308ZM-426.944 -32.9331C-423.957 -26.2355 -418.763 -17.8482 -412.076 -8.26044C-368.694 53.9473 -264.567 161.798 -242.932 184.012L40.2323 157.56C44.7332 157.14 49.0869 159.284 51.4988 163.106C53.9098 166.929 53.9686 171.782 51.6506 175.662L7.54031 249.502L350.451 272.097C355.341 272.419 359.544 275.683 361.067 280.341C362.592 284.999 361.129 290.116 357.374 293.265L326.589 319.086L522.219 429.297C525.219 430.988 527.349 433.886 528.066 437.255C528.783 440.624 528.016 444.139 525.964 446.904L486.164 500.523L668.62 648.092L572.787 513.349C570.189 509.695 569.844 504.899 571.892 500.911C573.94 496.923 578.04 494.41 582.522 494.394L613.476 494.278L424.214 315.52C420.679 312.182 419.508 307.041 421.249 302.502C422.989 297.962 427.297 294.921 432.157 294.8L474.57 293.754L167.933 180.64C163.216 178.901 160.084 174.405 160.087 169.377C160.089 164.349 163.226 159.855 167.944 158.119L256.441 125.573C116.654 93.382 -352.25 -14.6784 -426.944 -32.9331Z" fill="#FF7418"/>
<path fill-rule="evenodd" clip-rule="evenodd" d="M130.032 -538.594C196.625 -488.105 762.306 -72.9715 762.306 -72.9715L620.865 -82.5182L918.874 199.471L816.078 157.456L938.012 435.117L878.913 409.538L935.636 666.234L771.217 358.206L842.336 318.554L687.434 117.24L745.344 100.961L404.42 -74.9498L494.293 -137.706L203.604 -234.411C203.604 -234.411 63.4382 -589.083 130.032 -538.594Z" fill="#D56113"/>
<path fill-rule="evenodd" clip-rule="evenodd" d="M130.032 -538.594C196.625 -488.105 762.306 -72.9715 762.306 -72.9715L620.865 -82.5182L918.874 199.471L816.078 157.456L938.012 435.117L878.913 409.538L935.636 666.234L771.217 358.206L842.336 318.554L687.434 117.24L745.344 100.961L404.42 -74.9498L494.293 -137.706L203.604 -234.411C203.604 -234.411 63.4382 -589.083 130.032 -538.594ZM124.085 -528.045C124.113 -520.36 125.698 -509.943 128.297 -497.636C144.652 -420.204 201.245 -273.427 212.724 -244.024L498.081 -149.092C502.386 -147.66 505.516 -143.922 506.169 -139.431C506.82 -134.94 504.883 -130.466 501.164 -127.867L427.595 -76.496L750.846 90.2961C755.227 92.557 757.781 97.2672 757.283 102.173C756.785 107.077 753.338 111.179 748.592 112.513L707.768 123.989L851.845 311.236C853.974 314.002 854.793 317.558 854.089 320.975C853.385 324.393 851.227 327.335 848.179 329.035L787.352 362.95L905.056 583.462L867.196 412.127C866.223 407.725 867.799 403.15 871.275 400.282C874.752 397.413 879.543 396.735 883.679 398.524L914.74 411.969L805.091 162.281C803.125 157.804 804.072 152.583 807.484 149.081C810.897 145.579 816.092 144.498 820.618 146.348L864.02 164.088L612.617 -73.802C608.941 -77.2808 607.842 -82.6925 609.872 -87.33C611.902 -91.9672 616.622 -94.832 621.673 -94.4907L721.928 -87.7239C600.58 -176.807 185.724 -481.457 124.085 -528.045Z" fill="#FF7418"/>
<path fill-rule="evenodd" clip-rule="evenodd" d="M852.684 -682.811C893.312 -609.782 1243.96 -2.02051 1243.96 -2.02051L1118.34 -67.7089L1277.58 310.402L1200.41 230.554L1200.22 533.808L1156.42 486.599L1104.99 744.407L1078.51 396.249L1159.58 388.589L1098.84 141.945L1158.41 150.36L917.167 -147.93L1024.7 -169.188L797.554 -374.751C797.554 -374.751 812.056 -755.839 852.684 -682.811Z" fill="#D56113"/>
<path fill-rule="evenodd" clip-rule="evenodd" d="M852.684 -682.811C893.312 -609.782 1243.96 -2.02051 1243.96 -2.02051L1118.34 -67.7089L1277.58 310.402L1200.41 230.554L1200.22 533.808L1156.42 486.599L1104.99 744.407L1078.51 396.249L1159.58 388.589L1098.84 141.945L1158.41 150.36L917.167 -147.93L1024.7 -169.188L797.554 -374.751C797.554 -374.751 812.056 -755.839 852.684 -682.811ZM842.993 -675.549C839.925 -668.503 837.181 -658.329 834.605 -646.018C818.399 -568.555 811.103 -411.414 809.772 -379.878L1032.75 -178.086C1036.12 -175.041 1037.48 -170.359 1036.27 -165.985C1035.05 -161.613 1031.48 -158.297 1027.03 -157.416L939.002 -140.015L1167.74 142.814C1170.84 146.647 1171.28 151.987 1168.85 156.277C1166.42 160.565 1161.61 162.932 1156.73 162.242L1114.74 156.31L1171.23 385.719C1172.06 389.108 1171.38 392.692 1169.36 395.537C1167.34 398.382 1164.18 400.207 1160.71 400.535L1091.37 407.088L1110.33 656.328L1144.66 484.251C1145.54 479.831 1148.82 476.278 1153.16 475.052C1157.5 473.825 1162.16 475.133 1165.22 478.437L1188.24 503.25L1188.41 230.546C1188.41 225.657 1191.38 221.259 1195.91 219.427C1200.45 217.596 1205.64 218.699 1209.03 222.214L1241.62 255.928L1107.28 -63.0512C1105.32 -67.7161 1106.49 -73.1119 1110.21 -76.5398C1113.94 -79.967 1119.41 -80.6887 1123.9 -78.3427C1123.9 -78.3427 1212.94 -31.782 1212.94 -31.7841C1137.73 -162.188 880.656 -608.086 842.993 -675.549Z" fill="#FF7418"/>
<path fill-rule="evenodd" clip-rule="evenodd" d="M1654.32 -641.44C1662.85 -558.308 1745.36 138.488 1745.36 138.488L1655.83 28.575L1653.03 438.843L1613.6 335.027L1493.82 613.623L1472.19 552.966L1323.24 769.585L1436.23 439.21L1513.75 464.145L1555.22 213.542L1606.64 244.768L1502.61 -124.49L1609.81 -101.611L1482.16 -380.101C1482.16 -380.101 1645.79 -724.573 1654.32 -641.44Z" fill="#D56113"/>
<path fill-rule="evenodd" clip-rule="evenodd" d="M1654.32 -641.44C1662.85 -558.308 1745.36 138.488 1745.36 138.488L1655.83 28.575L1653.03 438.843L1613.6 335.027L1493.82 613.623L1472.19 552.966L1323.24 769.585L1436.23 439.21L1513.75 464.145L1555.22 213.542L1606.64 244.768L1502.61 -124.49L1609.81 -101.611L1482.16 -380.101C1482.16 -380.101 1645.79 -724.573 1654.32 -641.44ZM1642.56 -638.589C1636.96 -633.325 1630.42 -625.059 1623.2 -614.762C1577.75 -549.971 1509.07 -408.448 1495.41 -379.993L1620.72 -106.611C1622.61 -102.486 1622.01 -97.6474 1619.17 -94.106C1616.33 -90.5654 1611.74 -88.9284 1607.3 -89.8747L1519.55 -108.604L1618.19 241.514C1619.52 246.259 1617.82 251.34 1613.9 254.323C1609.97 257.305 1604.62 257.584 1600.41 255.025L1564.16 233.012L1525.59 466.104C1525.02 469.547 1522.98 472.572 1520 474.389C1517.02 476.206 1513.4 476.636 1510.07 475.568L1443.78 454.242L1362.89 690.752L1462.31 546.167C1464.86 542.453 1469.28 540.483 1473.75 541.067C1478.22 541.651 1481.98 544.691 1483.5 548.936L1494.86 580.816L1602.58 330.287C1604.51 325.795 1608.97 322.924 1613.86 323.029C1618.75 323.135 1623.08 326.195 1624.82 330.766L1641.46 374.599L1643.83 28.4931C1643.86 23.4315 1647.07 18.9359 1651.85 17.2551C1656.62 15.5752 1661.94 17.0714 1665.13 20.9964C1665.13 20.9964 1728.59 98.9041 1728.59 98.902C1710.92 -50.594 1650.56 -561.741 1642.56 -638.589Z" fill="#FF7418"/>
<path fill-rule="evenodd" clip-rule="evenodd" d="M2183.43 -530.977C2177.14 -447.706 2135.07 252.25 2135.07 252.25L2067.38 127.934L1992.7 530.726L1972.61 421.508L1807.4 673.608L1797.03 610.051L1614.35 795.926L1782.05 491.693L1852.97 530.289L1937.21 291.478L1981.68 331.517L1945.39 -50.3741L2045.51 -8.40305L1970.36 -305.36C1970.36 -305.36 2189.73 -614.248 2183.43 -530.977Z" fill="#D56113"/>
<path fill-rule="evenodd" clip-rule="evenodd" d="M2183.43 -530.977C2177.14 -447.706 2135.07 252.25 2135.07 252.25L2067.38 127.934L1992.7 530.726L1972.61 421.508L1807.4 673.608L1797.03 610.051L1614.35 795.926L1782.05 491.693L1852.97 530.289L1937.21 291.478L1981.68 331.517L1945.39 -50.3741L2045.51 -8.40305L1970.36 -305.36C1970.36 -305.36 2189.73 -614.248 2183.43 -530.977ZM2171.34 -530.175C2165.04 -526.004 2157.35 -519.147 2148.66 -510.475C2093.15 -455.035 2001.59 -328.362 1983.36 -302.912L2057.14 -11.347C2058.26 -6.93854 2056.79 -2.27752 2053.34 0.690069C2049.89 3.65781 2045.07 4.42186 2040.87 2.66361L1959.23 -31.5593L1993.62 330.382C1994.09 335.307 1991.49 340.013 1987.07 342.236C1982.65 344.46 1977.32 343.744 1973.65 340.435L1942.54 312.429L1864.29 534.281C1863.12 537.596 1860.55 540.232 1857.27 541.492C1853.99 542.752 1850.32 542.51 1847.23 540.83L1786.8 507.939L1667.04 725.192L1788.47 601.64C1791.64 598.415 1796.35 597.246 1800.66 598.615C1804.97 599.983 1808.14 603.657 1808.87 608.119L1814.27 641.224L1962.57 414.93C1965.26 410.828 1970.18 408.776 1974.98 409.745C1979.79 410.716 1983.52 414.513 1984.41 419.337L1992.75 464.645L2055.58 125.747C2056.51 120.752 2060.48 116.881 2065.49 116.083C2070.51 115.286 2075.49 117.734 2077.92 122.196C2077.92 122.196 2125.6 209.774 2125.6 209.773C2134.69 58.9216 2165.62 -453.01 2171.34 -530.175Z" fill="#FF7418"/>
<path fill-rule="evenodd" clip-rule="evenodd" d="M2734.12 294.725C2687.18 363.795 2302.05 949.783 2302.05 949.783L2305.28 808.27L2039.89 1120.34L2076.87 1015.63L1808.04 1151.93L1830.7 1091.66L1579.71 1161.84L1876.67 981.567L1918.94 1050.36L2110.94 885.244L2129.55 942.111L2288.32 592.894L2354.22 679.157L2436.97 384.227C2436.97 384.227 2781.05 225.655 2734.12 294.725Z" fill="#D56113"/>
<path fill-rule="evenodd" clip-rule="evenodd" d="M2734.12 294.725C2687.18 363.795 2302.05 949.783 2302.05 949.783L2305.28 808.27L2039.89 1120.34L2076.87 1015.63L1808.04 1151.93L1830.7 1091.66L1579.71 1161.84L1876.67 981.567L1918.94 1050.36L2110.94 885.244L2129.55 942.111L2288.32 592.894L2354.22 679.157L2436.97 384.227C2436.97 384.227 2781.05 225.655 2734.12 294.725ZM2723.23 289.396C2715.69 289.873 2705.6 291.99 2693.75 295.183C2618 315.604 2475.51 379.837 2447.03 392.824L2365.78 682.399C2364.55 686.777 2360.95 690.085 2356.48 690.942C2352.02 691.799 2347.45 690.056 2344.69 686.442L2290.95 616.103L2140.48 947.078C2138.43 951.58 2133.83 954.366 2128.89 954.093C2123.95 953.82 2119.69 950.545 2118.15 945.844L2105.13 906.069L1926.77 1059.46C1924.1 1061.75 1920.57 1062.76 1917.09 1062.22C1913.62 1061.68 1910.56 1059.64 1908.72 1056.64L1872.7 998.019L1660.64 1126.75L1827.47 1080.1C1831.83 1078.88 1836.5 1080.22 1839.55 1083.55C1842.61 1086.88 1843.53 1091.65 1841.94 1095.88L1830.13 1127.28L2071.44 1004.93C2075.82 1002.71 2081.1 1003.37 2084.79 1006.61C2088.47 1009.85 2089.82 1015 2088.18 1019.62L2072.84 1063.06L2296.13 800.496C2299.43 796.626 2304.8 795.248 2309.55 797.055C2314.29 798.863 2317.39 803.465 2317.27 808.544L2315 908.238C2398.02 781.962 2679.84 353.461 2723.23 289.396Z" fill="#FF7418"/>
<path fill-rule="evenodd" clip-rule="evenodd" d="M2975.75 1358.97C2909.26 1390.7 2355.17 1665.79 2355.17 1665.79L2420.16 1559.08L2078.86 1678.53L2153.47 1615.1L1887.18 1598.67L1931.19 1562.77L1707.79 1503.81L2015.06 1499.25L2017.07 1570.79L2237.19 1530.73L2226.33 1582.54L2502.31 1386.86L2514.72 1482.36L2708.44 1294.07C2708.44 1294.07 3042.24 1327.24 2975.75 1358.97Z" fill="#D56113"/>
<path fill-rule="evenodd" clip-rule="evenodd" d="M2975.75 1358.97C2909.26 1390.7 2355.17 1665.79 2355.17 1665.79L2420.16 1559.08L2078.86 1678.53L2153.47 1615.1L1887.18 1598.67L1931.19 1562.77L1707.79 1503.81L2015.06 1499.25L2017.07 1570.79L2237.19 1530.73L2226.33 1582.54L2502.31 1386.86L2514.72 1482.36L2708.44 1294.07C2708.44 1294.07 3042.24 1327.24 2975.75 1358.97ZM2966.76 1349.97C2961.18 1347.46 2953.41 1345.06 2944.17 1342.53C2877.67 1324.31 2741.82 1309.59 2712.79 1306.58L2523.08 1490.96C2519.83 1494.13 2515.06 1495.19 2510.77 1493.69C2506.48 1492.2 2503.4 1488.41 2502.82 1483.91L2492.98 1408.19L2233.28 1592.33C2229.25 1595.19 2223.88 1595.29 2219.76 1592.58C2215.63 1589.87 2213.58 1584.91 2214.59 1580.08L2221.79 1545.73L2019.22 1582.6C2015.78 1583.23 2012.23 1582.32 2009.51 1580.11C2006.79 1577.91 2005.17 1574.63 2005.08 1571.13L2003.4 1511.43L1795.36 1514.51L1934.25 1551.17C1938.61 1552.32 1941.96 1555.82 1942.92 1560.23C1943.87 1564.64 1942.27 1569.22 1938.77 1572.07L1918.53 1588.58L2154.21 1603.12C2159.1 1603.42 2163.31 1606.66 2164.86 1611.3C2166.4 1615.95 2164.97 1621.07 2161.24 1624.24L2135.76 1645.91L2416.19 1547.76C2420.98 1546.08 2426.3 1547.59 2429.49 1551.53C2432.68 1555.48 2433.04 1560.99 2430.41 1565.32L2387 1636.59C2509.77 1575.67 2898.37 1382.91 2966.76 1349.97Z" fill="#FF7418"/>
<path fill-rule="evenodd" clip-rule="evenodd" d="M2817.39 2244.44C2743.82 2248.34 2126.65 2290.69 2126.65 2290.69L2227.5 2216.93L1866.46 2196.83L1959.65 2166.73L1719.88 2049.75L1774.26 2033.4L1590.38 1893.51L1876.05 2006.77L1850.55 2073.65L2069.27 2120.78L2039.43 2164.51L2369.25 2089.2L2344.2 2182.19L2595.2 2082.27C2595.2 2082.27 2890.96 2240.54 2817.39 2244.44Z" fill="#D56113"/>
<path fill-rule="evenodd" clip-rule="evenodd" d="M2817.39 2244.44C2743.82 2248.34 2126.65 2290.69 2126.65 2290.69L2227.5 2216.93L1866.46 2196.83L1959.65 2166.73L1719.88 2049.75L1774.26 2033.4L1590.38 1893.51L1876.05 2006.77L1850.55 2073.65L2069.27 2120.78L2039.43 2164.51L2369.25 2089.2L2344.2 2182.19L2595.2 2082.27C2595.2 2082.27 2890.96 2240.54 2817.39 2244.44ZM2812.52 2232.69C2808.33 2228.23 2802.06 2223.04 2794.49 2217.17C2740 2174.92 2620.11 2109.38 2594.44 2095.49L2348.64 2193.34C2344.42 2195.02 2339.62 2194.17 2336.22 2191.15C2332.83 2188.13 2331.44 2183.46 2332.62 2179.07L2352.47 2105.34L2042.1 2176.21C2037.29 2177.31 2032.29 2175.35 2029.51 2171.27C2026.73 2167.19 2026.73 2161.82 2029.52 2157.75L2049.3 2128.75L1848.02 2085.38C1844.6 2084.64 1841.68 2082.45 1840.01 2079.37C1838.34 2076.29 1838.09 2072.64 1839.34 2069.37L1860.61 2013.56L1667.21 1936.88L1781.53 2023.85C1785.12 2026.58 1786.87 2031.1 1786.07 2035.54C1785.27 2039.98 1782.04 2043.59 1777.72 2044.89L1752.7 2052.41L1964.91 2155.95C1969.31 2158.09 1971.97 2162.7 1971.62 2167.58C1971.28 2172.46 1968 2176.65 1963.34 2178.15L1931.51 2188.43L2228.16 2204.95C2233.22 2205.23 2237.56 2208.66 2239 2213.53C2240.44 2218.39 2238.67 2223.63 2234.58 2226.62L2167.22 2275.88C2303.96 2266.52 2736.73 2236.97 2812.52 2232.69Z" fill="#FF7418"/>
<path fill-rule="evenodd" clip-rule="evenodd" d="M2277.75 3048.77C2211.65 3016.23 1652.47 2751.63 1652.47 2751.63L1776.5 2736.56L1471.32 2542.61L1567.33 2561.89L1415.28 2342.67L1470.72 2354.97L1378.63 2143.07L1572.54 2381.47L1517.62 2427.37L1685.42 2575.36L1638.02 2598.93L1962.59 2694.37L1895.3 2763.27L2163.12 2798.72C2163.12 2798.72 2343.85 3081.32 2277.75 3048.77Z" fill="#D56113"/>
<path fill-rule="evenodd" clip-rule="evenodd" d="M2277.75 3048.77C2211.65 3016.23 1652.47 2751.63 1652.47 2751.63L1776.5 2736.56L1471.32 2542.61L1567.33 2561.89L1415.28 2342.67L1470.72 2354.97L1378.63 2143.07L1572.54 2381.47L1517.62 2427.37L1685.42 2575.36L1638.02 2598.93L1962.59 2694.37L1895.3 2763.27L2163.12 2798.72C2163.12 2798.72 2343.85 3081.32 2277.75 3048.77ZM2279.24 3036.14C2277.76 3030.21 2274.83 3022.62 2271.09 3013.79C2244.2 2950.31 2171.61 2834.54 2156 2809.88L1893.73 2775.16C1889.23 2774.57 1885.45 2771.48 1883.96 2767.19C1882.48 2762.9 1883.55 2758.13 1886.72 2754.88L1940.07 2700.26L1634.64 2610.44C1629.9 2609.05 1626.5 2604.9 1626.07 2599.98C1625.64 2595.06 1628.26 2590.38 1632.68 2588.18L1664.11 2572.55L1509.69 2436.37C1507.06 2434.05 1505.58 2430.71 1505.62 2427.21C1505.67 2423.71 1507.24 2420.4 1509.93 2418.16L1555.76 2379.86L1424.48 2218.45L1481.73 2350.19C1483.53 2354.33 1482.85 2359.13 1479.98 2362.61C1477.11 2366.09 1472.53 2367.67 1468.12 2366.69L1442.62 2361.03L1577.19 2555.05C1579.98 2559.07 1580.05 2564.39 1577.36 2568.48C1574.67 2572.57 1569.77 2574.62 1564.97 2573.66L1532.18 2567.07L1782.94 2726.43C1787.22 2729.15 1789.32 2734.26 1788.21 2739.21C1787.09 2744.15 1782.98 2747.86 1777.95 2748.47L1695.11 2758.54C1818.98 2817.18 2211.02 3002.85 2279.24 3036.14Z" fill="#FF7418"/>
<path fill-rule="evenodd" clip-rule="evenodd" d="M1492.26 3151.36C1449.13 3105.55 1081.05 2726.66 1081.05 2726.66L1184.95 2751.19L999.006 2504.45L1070.1 2548.4L1014.45 2326.57L1055.14 2352.9L1045.31 2154.72L1128.71 2404.4L1070.87 2425.18L1160.63 2594.2L1115.55 2599.2L1346.73 2772.22L1272.05 2807.89L1475.88 2915.73C1475.88 2915.73 1535.38 3197.17 1492.26 3151.36Z" fill="#D56113"/>
<path fill-rule="evenodd" clip-rule="evenodd" d="M1492.26 3151.36C1449.13 3105.55 1081.05 2726.66 1081.05 2726.66L1184.95 2751.19L999.006 2504.45L1070.1 2548.4L1014.45 2326.57L1055.14 2352.9L1045.31 2154.72L1128.71 2404.4L1070.87 2425.18L1160.63 2594.2L1115.55 2599.2L1346.73 2772.22L1272.05 2807.89L1475.88 2915.73C1475.88 2915.73 1535.38 3197.17 1492.26 3151.36ZM1495.29 3137.12C1495.67 3132.34 1495.96 3126.53 1495.75 3121.15C1493.39 3062.69 1470.67 2949.82 1465.28 2923.7L1266.44 2818.5C1262.43 2816.38 1259.96 2812.18 1260.05 2807.64C1260.15 2803.11 1262.79 2799.02 1266.88 2797.06L1323.66 2769.94L1108.36 2608.8C1104.42 2605.85 1102.68 2600.79 1103.97 2596.04C1105.27 2591.29 1109.33 2587.81 1114.23 2587.27L1141.74 2584.22L1060.27 2430.81C1058.64 2427.73 1058.42 2424.1 1059.68 2420.85C1060.93 2417.6 1063.54 2415.06 1066.81 2413.88L1113.61 2397.08L1061.63 2241.45L1067.13 2352.31C1067.35 2356.81 1065.04 2361.05 1061.14 2363.3C1057.24 2365.55 1052.41 2365.42 1048.63 2362.98L1033.5 2353.19L1081.74 2545.48C1082.93 2550.22 1081.13 2555.21 1077.18 2558.09C1073.24 2560.97 1067.94 2561.18 1063.79 2558.61L1047.05 2548.26L1194.53 2743.97C1197.57 2748.01 1197.76 2753.52 1195 2757.75C1192.23 2761.99 1187.11 2764.03 1182.19 2762.87L1118.29 2747.78C1202 2833.98 1443.59 3082.85 1495.29 3137.12Z" fill="#FF7418"/>
<path fill-rule="evenodd" clip-rule="evenodd" d="M625.009 3021.8C606.319 2970.57 441.766 2544.07 441.766 2544.07L522.585 2591.47L462.538 2327L506.51 2383.5L550.252 2173.29L574.932 2206.67L648.964 2028.73L617.922 2270.46L558.573 2274.56L566.743 2446.43L525.155 2439.71L655.596 2650.07L575.273 2663.21L708.922 2809.08C708.922 2809.08 643.699 3073.02 625.009 3021.8Z" fill="#D56113"/>
<path fill-rule="evenodd" clip-rule="evenodd" d="M625.009 3021.8C606.319 2970.57 441.766 2544.07 441.766 2544.07L522.585 2591.47L462.538 2327L506.51 2383.5L550.252 2173.29L574.932 2206.67L648.964 2028.73L617.922 2270.46L558.573 2274.56L566.743 2446.43L525.155 2439.71L655.596 2650.07L575.273 2663.21L708.922 2809.08C708.922 2809.08 643.699 3073.02 625.009 3021.8ZM633.073 3009.02C635.401 3004.79 637.829 2999.62 640.337 2993.74C662.336 2942.13 689.052 2838.77 695.712 2812.42L566.425 2671.31C563.448 2668.06 562.491 2663.44 563.934 2659.28C565.376 2655.11 568.986 2652.07 573.336 2651.36L635.93 2641.13L514.957 2446.04C512.479 2442.04 512.563 2436.97 515.17 2433.06C517.778 2429.15 522.429 2427.12 527.069 2427.87L554.053 2432.23L546.587 2275.13C546.277 2268.61 551.234 2263.04 557.745 2262.59L607.273 2259.17L625.661 2115.98L586.012 2211.28C584.352 2215.27 580.673 2218.06 576.384 2218.58C572.093 2219.1 567.853 2217.28 565.283 2213.8L556.539 2201.98L518.258 2385.94C517.305 2390.52 513.779 2394.13 509.223 2395.19C504.667 2396.25 499.912 2394.56 497.04 2390.87L486.176 2376.91L534.287 2588.81C535.346 2593.48 533.533 2598.33 529.672 2601.15C525.811 2603.98 520.641 2604.24 516.514 2601.82L465.321 2571.79C501.941 2666.77 608.823 2944.15 633.073 3009.02Z" fill="#FF7418"/>
<path fill-rule="evenodd" clip-rule="evenodd" d="M-69.532 2618.17C-67.9437 2563.66 -63.0245 2106.54 -63.0245 2106.54L-5.47858 2180.48L36.5814 1912.56L56.5304 1981.32L174.939 1802.21L185.52 1842.35L320.131 1704.43L201.859 1917.52L145.203 1899.37L89.2054 2062.07L53.0554 2040.44L96.4128 2284.14L16.9298 2266.62L87.1273 2451.59C87.1273 2451.59 -71.1203 2672.67 -69.532 2618.17Z" fill="#D56113"/>
<path fill-rule="evenodd" clip-rule="evenodd" d="M-69.532 2618.17C-67.9437 2563.66 -63.0245 2106.54 -63.0245 2106.54L-5.47858 2180.48L36.5814 1912.56L56.5304 1981.32L174.939 1802.21L185.52 1842.35L320.131 1704.43L201.859 1917.52L145.203 1899.37L89.2054 2062.07L53.0554 2040.44L96.4128 2284.14L16.9298 2266.62L87.1273 2451.59C87.1273 2451.59 -71.1203 2672.67 -69.532 2618.17ZM-57.313 2609.28C-53.5866 2606.22 -49.4176 2602.31 -44.9092 2597.77C-5.37739 2557.96 57.6805 2471.82 73.6169 2449.81L5.71089 2270.88C4.14684 2266.76 4.96765 2262.11 7.84917 2258.78C10.73 2255.44 15.2077 2253.95 19.5118 2254.9L81.4512 2268.55L41.2409 2042.55C40.4173 2037.92 42.3716 2033.23 46.2415 2030.57C50.1107 2027.9 55.1827 2027.73 59.2161 2030.15L82.6724 2044.18L133.857 1895.47C135.981 1889.3 142.648 1885.96 148.863 1887.95L196.144 1903.09L266.202 1776.87L194.108 1850.73C191.089 1853.83 186.64 1855.06 182.461 1853.96C178.282 1852.86 175.018 1849.59 173.916 1845.41L170.167 1831.19L66.5404 1987.94C63.9611 1991.84 59.3502 1993.89 54.7264 1993.18C50.1028 1992.48 46.3085 1989.16 45.0056 1984.66L40.0769 1967.68L6.37658 2182.34C5.63425 2187.07 2.15507 2190.9 -2.47697 2192.1C-7.10903 2193.3 -12.0097 2191.63 -14.9487 2187.85L-51.4001 2141.02C-52.5173 2242.8 -55.8433 2540.05 -57.313 2609.28Z" fill="#FF7418"/>
<path fill-rule="evenodd" clip-rule="evenodd" d="M-335.185 1720.25C-303.384 1675.96 -43.6412 1299.77 -43.6412 1299.77L-37.2919 1393.25L147.419 1194.68L125.501 1262.83L323.831 1180.58L310.152 1219.77L498.881 1180.73L281.657 1291.22L244.84 1244.49L107.423 1348.05L89.5527 1309.9L-10.8001 1536.16L-66.8933 1477.19L-112.153 1669.78C-112.153 1669.78 -366.987 1764.55 -335.185 1720.25Z" fill="#D56113"/>
<path fill-rule="evenodd" clip-rule="evenodd" d="M-335.185 1720.25C-303.384 1675.96 -43.6412 1299.77 -43.6412 1299.77L-37.2919 1393.25L147.419 1194.68L125.501 1262.83L323.831 1180.58L310.152 1219.77L498.881 1180.73L281.657 1291.22L244.84 1244.49L107.423 1348.05L89.5527 1309.9L-10.8001 1536.16L-66.8933 1477.19L-112.153 1669.78C-112.153 1669.78 -366.987 1764.55 -335.185 1720.25ZM-320.086 1719.72C-315.283 1719.26 -309.641 1718.36 -303.365 1717.11C-248.329 1706.22 -147.881 1670.09 -122.358 1660.75L-78.5747 1474.44C-77.5669 1470.15 -74.2878 1466.76 -70.0335 1465.61C-65.7799 1464.45 -61.2361 1465.72 -58.1986 1468.92L-14.4864 1514.87L78.5834 1305.03C80.4892 1300.74 84.7281 1297.95 89.4289 1297.9C94.129 1297.85 98.4255 1300.55 100.419 1304.81L112.014 1329.56L237.618 1234.91C242.83 1230.98 250.226 1231.94 254.265 1237.07L284.99 1276.06L413.662 1210.61L312.584 1231.53C308.351 1232.4 303.975 1230.93 301.127 1227.68C298.278 1224.43 297.398 1219.9 298.823 1215.82L303.669 1201.93L130.097 1273.92C125.777 1275.71 120.81 1274.83 117.37 1271.66C113.93 1268.49 112.645 1263.61 114.077 1259.16L119.493 1242.32L-28.5052 1401.42C-31.7639 1404.92 -36.7927 1406.16 -41.3019 1404.56C-45.8111 1402.96 -48.9396 1398.83 -49.2646 1394.06L-53.2861 1334.85C-111.141 1418.6 -280.145 1663.15 -320.086 1719.72Z" fill="#FF7418"/>
<path fill-rule="evenodd" clip-rule="evenodd" d="M-364.942 962.225C-315.419 940.222 96.0999 748.034 96.0999 748.034L55.9974 832.307L314.957 755.381L262.443 803.15L476.514 834.036L445.374 860.952L629.921 924.328L385.484 908.187L376.033 848.731L204.961 867.681L207.93 825.419L9.40432 969.791L-10.9649 889.796L-144.739 1033.37C-144.739 1033.37 -414.465 984.228 -364.942 962.225Z" fill="#D56113"/>
<path fill-rule="evenodd" clip-rule="evenodd" d="M-364.942 962.225C-315.419 940.222 96.0999 748.034 96.0999 748.034L55.9974 832.307L314.957 755.381L262.443 803.15L476.514 834.036L445.374 860.952L629.921 924.328L385.484 908.187L376.033 848.731L204.961 867.681L207.93 825.419L9.40432 969.791L-10.9649 889.796L-144.739 1033.37C-144.739 1033.37 -414.465 984.228 -364.942 962.225ZM-351.653 969.401C-347.143 971.547 -341.575 973.738 -335.223 975.98C-281.689 994.877 -176.091 1015.29 -149.027 1020.37L-19.7446 881.616C-16.7518 878.404 -12.245 877.083 -7.99195 878.171C-3.73893 879.258 -0.418902 882.581 0.664029 886.835L16.6645 949.674L200.872 815.714C204.645 812.97 209.667 812.662 213.747 814.923C217.828 817.185 220.228 821.606 219.9 826.26L217.94 854.17L374.712 836.803C381.08 836.098 386.879 840.52 387.884 846.847L395.831 896.844L540.824 906.419L441.477 872.301C437.414 870.906 434.408 867.447 433.592 863.229C432.777 859.013 434.278 854.682 437.527 851.873L448.768 842.157L260.729 815.026C256.132 814.363 252.33 811.106 250.97 806.666C249.609 802.225 250.932 797.398 254.368 794.272L268.039 781.837L59.4145 843.81C54.8713 845.16 49.9602 843.709 46.879 840.108C43.7983 836.507 43.1252 831.43 45.1616 827.151L70.912 773.035C-20.0782 815.506 -288.76 940.844 -351.653 969.401Z" fill="#FF7418"/>
<path fill-rule="evenodd" clip-rule="evenodd" d="M-442 501.847C-410.12 492.767 -146.653 410.199 -146.653 410.199L-162.201 468.088L10.392 449.6L-19.638 477.811L137.634 534.372L119.609 550.029L260.869 626.734L84.2424 576.695L68.324 530.022L-50.6174 518.002L-55.0314 486.324L-174.152 565.437L-201.022 501.459L-274.138 589.971C-274.138 589.971 -473.88 510.928 -442 501.847Z" fill="#D56113"/>
<path fill-rule="evenodd" clip-rule="evenodd" d="M-442 501.847C-410.12 492.767 -146.653 410.199 -146.653 410.199L-162.201 468.088L10.392 449.6L-19.638 477.811L137.634 534.372L119.609 550.029L260.869 626.734L84.2424 576.695L68.324 530.022L-50.6174 518.002L-55.0314 486.324L-174.152 565.437L-201.022 501.459L-274.138 589.971C-274.138 589.971 -473.88 510.928 -442 501.847ZM-423.219 508.775C-420.34 510.666 -417.164 512.637 -414.006 514.378C-374.938 535.922 -302.07 565.798 -277.811 575.576L-210.274 493.817C-207.599 490.579 -203.426 488.975 -199.271 489.588C-195.117 490.2 -191.584 492.941 -189.958 496.813L-168.706 547.415L-61.6703 476.327C-58.2341 474.045 -53.8666 473.688 -50.105 475.381C-46.3434 477.075 -43.7156 480.581 -43.1461 484.668L-40.033 507.011L51.9385 516.305L-23.6992 489.103C-27.6284 487.69 -30.5405 484.336 -31.3884 480.248C-32.2357 476.159 -30.8977 471.924 -27.8546 469.065L-23.8904 465.341L-160.923 480.02C-164.858 480.442 -168.749 478.895 -171.321 475.888C-173.893 472.88 -174.817 468.797 -173.791 464.976L-163.908 428.177C-219.435 445.559 -370.306 492.735 -423.219 508.775ZM79.7333 526.301L93.5688 566.865L160.266 585.761L113.883 560.574C110.426 558.697 108.108 555.243 107.68 551.332C107.253 547.421 108.77 543.549 111.74 540.969L114.311 538.736L79.7333 526.301Z" fill="#FF7418"/>
<path fill-rule="evenodd" clip-rule="evenodd" d="M107.324 -156.105C138.552 -144.986 400.996 -59.2246 400.996 -59.2246L354.724 -21.1228L505.976 64.0428L465.146 69.5739L560.347 206.944L536.581 209.225L607.048 353.698L492.303 210.399L506.444 163.157L416.587 84.3066L431.388 55.9527L288.468 51.1946L303.741 -16.4952L192.819 13.1115C192.819 13.1115 76.0967 -167.223 107.324 -156.105Z" fill="#D56113"/>
<path fill-rule="evenodd" clip-rule="evenodd" d="M107.324 -156.105C138.552 -144.986 400.996 -59.2246 400.996 -59.2246L354.724 -21.1228L505.976 64.0428L465.146 69.5739L560.347 206.944L536.581 209.225L607.048 353.698L492.303 210.399L506.444 163.157L416.587 84.3066L431.388 55.9527L288.468 51.1946L303.741 -16.4952L192.819 13.1115C192.819 13.1115 76.0967 -167.223 107.324 -156.105ZM517.893 166.753L505.604 207.811L548.933 261.923L525.795 214.485C524.071 210.949 524.189 206.792 526.112 203.359C528.035 199.927 531.519 197.655 535.435 197.279L538.824 196.954L517.893 166.753ZM118.592 -139.56C119.838 -136.348 121.279 -132.9 122.839 -129.648C142.136 -89.4233 184.115 -22.7879 198.187 -0.74175L300.646 -28.0896C304.704 -29.1726 309.033 -28.0551 312.06 -25.1437C315.087 -22.2329 316.371 -17.9505 315.447 -13.8538L303.367 39.6837L431.787 43.9593C435.91 44.0965 439.674 46.3416 441.753 49.9046C443.832 53.4676 443.935 57.8483 442.026 61.5057L431.587 81.504L501.068 142.475L455.283 76.409C452.905 72.977 452.481 68.5554 454.165 64.7344C455.849 60.914 459.398 58.2425 463.535 57.6819L468.925 56.9522L348.837 -10.6666C345.388 -12.6079 343.118 -16.1257 342.771 -20.0682C342.423 -24.01 344.041 -27.8709 347.096 -30.3861C347.096 -30.3861 376.51 -54.6071 376.509 -54.6071C321.209 -72.6989 170.985 -121.894 118.592 -139.56Z" fill="#FF7418"/>
<path fill-rule="evenodd" clip-rule="evenodd" d="M2699.19 2001.63C2666.86 2008.93 2399.21 2076.73 2399.21 2076.73L2417.95 2019.8L2244.6 2028.67L2276.15 2002.17L2122.26 1936.96L2141.12 1922.33L2004.34 1837.9L2177.92 1897.67L2191.22 1945.16L2309.31 1963.76L2311.96 1995.64L2435.29 1923.26L2458.56 1988.63L2536.48 1904.32C2536.48 1904.32 2731.53 1994.34 2699.19 2001.63Z" fill="#D56113"/>
<path fill-rule="evenodd" clip-rule="evenodd" d="M2699.19 2001.63C2666.86 2008.93 2399.21 2076.73 2399.21 2076.73L2417.95 2019.8L2244.6 2028.67L2276.15 2002.17L2122.26 1936.96L2141.12 1922.33L2004.34 1837.9L2177.92 1897.67L2191.22 1945.16L2309.31 1963.76L2311.96 1995.64L2435.29 1923.26L2458.56 1988.63L2536.48 1904.32C2536.48 1904.32 2731.53 1994.34 2699.19 2001.63ZM2206.82 1959.76L2280.83 1991.12C2284.67 1992.75 2287.39 1996.26 2288.01 2000.39C2288.63 2004.52 2287.06 2008.67 2283.86 2011.36L2279.7 2014.86L2417.34 2007.81C2421.29 2007.61 2425.09 2009.37 2427.49 2012.52C2429.89 2015.66 2430.59 2019.79 2429.35 2023.55C2429.35 2023.55 2417.44 2059.74 2417.44 2059.74C2473.84 2045.47 2627.1 2006.75 2680.82 1993.67C2678.05 1991.62 2674.99 1989.48 2671.94 1987.56C2634.13 1963.88 2563.03 1930.01 2539.35 1918.9L2467.38 1996.78C2464.53 1999.86 2460.27 2001.23 2456.16 2000.39C2452.04 1999.55 2448.67 1996.62 2447.26 1992.66L2428.85 1940.95L2318.03 2005.99C2314.47 2008.08 2310.09 2008.19 2306.43 2006.29C2302.77 2004.39 2300.34 2000.74 2300 1996.63L2298.13 1974.15L2206.82 1959.76ZM2179.62 1948.24L2168.06 1906.97L2102.52 1884.4L2147.43 1912.12C2150.78 1914.19 2152.9 1917.76 2153.11 1921.69C2153.32 1925.62 2151.59 1929.4 2148.48 1931.81L2145.79 1933.9L2179.62 1948.24Z" fill="#FF7418"/>
<path fill-rule="evenodd" clip-rule="evenodd" d="M2494.62 2613.26C2461.6 2616.11 2187.23 2647.03 2187.23 2647.03L2213.51 2593.16L2040.55 2578.46L2075.4 2556.48L1931.77 2471.02L1952.44 2459.08L1828.36 2356.9L1992.24 2439.64L1998.99 2488.48L2113.47 2522.92L2111.77 2554.86L2243.77 2499.86L2257.97 2567.78L2346.6 2494.8C2346.6 2494.8 2527.65 2610.41 2494.62 2613.26Z" fill="#D56113"/>
<path fill-rule="evenodd" clip-rule="evenodd" d="M2494.62 2613.26C2461.6 2616.11 2187.23 2647.03 2187.23 2647.03L2213.51 2593.16L2040.55 2578.46L2075.4 2556.48L1931.77 2471.02L1952.44 2459.08L1828.36 2356.9L1992.24 2439.64L1998.99 2488.48L2113.47 2522.92L2111.77 2554.86L2243.77 2499.86L2257.97 2567.78L2346.6 2494.8C2346.6 2494.8 2527.65 2610.41 2494.62 2613.26ZM2012.46 2505.07L2081.54 2546.17C2085.13 2548.3 2087.35 2552.15 2087.4 2556.33C2087.46 2560.5 2085.34 2564.4 2081.81 2566.63L2077.21 2569.53L2214.53 2581.2C2218.47 2581.53 2222 2583.79 2223.95 2587.23C2225.9 2590.68 2226.03 2594.86 2224.3 2598.42C2224.3 2598.42 2207.59 2632.66 2207.59 2632.66C2265.41 2626.17 2422.5 2608.56 2477.5 2602.89C2475.04 2600.48 2472.29 2597.94 2469.52 2595.63C2435.27 2567.05 2369.42 2523.85 2347.46 2509.63L2265.6 2577.05C2262.36 2579.72 2257.96 2580.5 2254 2579.1C2250.03 2577.71 2247.09 2574.35 2246.23 2570.24L2234.99 2516.52L2116.39 2565.94C2112.58 2567.52 2108.22 2567.04 2104.85 2564.66C2101.48 2562.29 2099.57 2558.34 2099.79 2554.22L2100.98 2531.7L2012.46 2505.07ZM1987.08 2489.97L1981.21 2447.51L1919.33 2416.27L1960.07 2449.82C1963.11 2452.32 1964.73 2456.15 1964.4 2460.07C1964.08 2464 1961.85 2467.51 1958.45 2469.48L1955.5 2471.18L1987.08 2489.97Z" fill="#FF7418"/>
<path fill-rule="evenodd" clip-rule="evenodd" d="M2042.42 2899.85C2009.39 2902.7 1735.03 2933.62 1735.03 2933.62L1761.31 2879.75L1588.35 2865.05L1623.2 2843.07L1479.57 2757.62L1500.24 2745.67L1376.16 2643.49L1540.04 2726.23L1546.78 2775.08L1661.26 2809.51L1659.57 2841.45L1791.57 2786.45L1805.77 2854.37L1894.4 2781.39C1894.4 2781.39 2075.45 2897 2042.42 2899.85Z" fill="#D56113"/>
<path fill-rule="evenodd" clip-rule="evenodd" d="M2042.42 2899.85C2009.39 2902.7 1735.03 2933.62 1735.03 2933.62L1761.31 2879.75L1588.35 2865.05L1623.2 2843.07L1479.57 2757.62L1500.24 2745.67L1376.16 2643.49L1540.04 2726.23L1546.78 2775.08L1661.26 2809.51L1659.57 2841.45L1791.57 2786.45L1805.77 2854.37L1894.4 2781.39C1894.4 2781.39 2075.45 2897 2042.42 2899.85ZM1560.26 2791.66L1629.34 2832.76C1632.93 2834.89 1635.15 2838.74 1635.2 2842.92C1635.26 2847.09 1633.14 2850.99 1629.6 2853.22L1625 2856.12L1762.33 2867.79C1766.27 2868.13 1769.79 2870.38 1771.75 2873.83C1773.7 2877.27 1773.83 2881.45 1772.1 2885.01C1772.1 2885.01 1755.39 2919.25 1755.39 2919.25C1813.21 2912.76 1970.3 2895.15 2025.3 2889.48C2022.83 2887.07 2020.09 2884.53 2017.32 2882.22C1983.07 2853.64 1917.22 2810.44 1895.26 2796.22L1813.4 2863.64C1810.16 2866.31 1805.76 2867.09 1801.79 2865.69C1797.83 2864.3 1794.89 2860.94 1794.03 2856.83L1782.79 2803.11L1664.18 2852.53C1660.38 2854.11 1656.02 2853.63 1652.65 2851.26C1649.28 2848.88 1647.37 2844.93 1647.59 2840.81L1648.78 2818.29L1560.26 2791.66ZM1534.87 2776.56L1529.01 2734.1L1467.13 2702.86L1507.87 2736.41C1510.91 2738.91 1512.53 2742.74 1512.2 2746.67C1511.88 2750.59 1509.65 2754.1 1506.24 2756.07L1503.3 2757.77L1534.87 2776.56Z" fill="#FF7418"/>
</g>
<defs>
<clipPath id="clip0_876_182">
<rect width="2160" height="2700" fill="white"/>
</clipPath>
</defs>
</svg>
