<svg width="2160" height="2700" viewBox="0 0 2160 2700" fill="none" xmlns="http://www.w3.org/2000/svg">
<g clip-path="url(#clip0_910_1012)">
<path d="M2182.79 -29.8701H-12.0938V2714.69H2182.79V-29.8701Z" fill="black"/>
<path fill-rule="evenodd" clip-rule="evenodd" d="M1093.54 -457.161L1097.96 1264.03L1168.73 -333.958L1106.78 1264.46L1253.84 -449.376L1115.59 1265.31L1318.51 -319.377L1124.34 1266.59L1412.83 -426.08L1133.03 1268.31L1466.48 -290.335L1141.65 1270.43L1569.26 -387.463L1150.16 1272.97L1611.45 -247.062L1158.56 1275.92L1721.86 -333.835L1166.84 1279.28L1752.23 -189.91L1174.96 1283.03L1869.41 -265.627L1182.92 1287.19L1887.73 -119.338L1190.71 1291.71L2010.71 -183.39L1198.29 1296.61L2016.82 -35.9131L1205.67 1301.88L2144.61 -87.7851L1212.8 1307.49L2138.49 59.6926L1219.72 1313.45L2270.06 20.4181L1226.37 1319.74L2251.73 166.708L1232.75 1326.35L2386.03 140.349L1238.87 1333.25L2355.66 284.272L1244.68 1340.45L2491.61 271.039L1250.19 1347.92L2449.43 411.442L1255.38 1355.65L2585.92 411.442L1260.24 1363.63L2532.27 547.191L1264.78 1371.83L2668.21 560.418L1268.96 1380.24L2603.54 690.423L1272.8 1388.85L2737.83 716.776L1276.27 1397.64L2662.64 839.986L1279.37 1406.58L2794.21 879.251L1282.1 1415.68L2709.11 994.674L1284.46 1424.89L2836.9 1046.54L1286.42 1434.2L2742.57 1153.25L1288 1443.61L2865.55 1217.3L1289.19 1453.08L2762.76 1314.43L1289.98 1462.6L2879.94 1390.15L1290.38 1472.14L2769.51 1476.92L1290.38 1481.7L2879.94 1563.7L1289.98 1491.24L2762.76 1639.4L1289.19 1500.77L2865.55 1736.53L1288 1510.23L2742.57 1800.59L1286.42 1519.64L2836.9 1907.29L1284.46 1528.95L2709.11 1959.16L1282.1 1538.17L2794.21 2074.58L1279.37 1547.25L2662.64 2113.86L1276.27 1556.2L2737.83 2237.06L1272.8 1564.98L2603.54 2263.42L1268.96 1573.59L2668.21 2393.42L1264.78 1582.01L2532.27 2406.66L1260.24 1590.22L2585.92 2542.4L1255.38 1598.19L2449.43 2542.4L1250.19 1605.92L2491.61 2682.8L1244.68 1613.39L2355.66 2669.56L1238.87 1620.59L2386.03 2813.49L1232.75 1627.5L2251.73 2787.13L1226.37 1634.1L2270.06 2933.42L1219.72 1640.39L2138.49 2894.15L1212.8 1646.34L2144.61 3041.62L1205.67 1651.97L2016.82 2989.75L1198.29 1657.22L2010.71 3137.23L1190.71 1662.13L1887.73 3073.18L1182.92 1666.66L1869.41 3219.47L1174.96 1670.8L1752.23 3143.75L1166.84 1674.56L1721.86 3287.67L1158.56 1677.91L1611.45 3200.9L1150.16 1680.87L1569.26 3341.3L1141.65 1683.41L1466.48 3244.17L1133.03 1685.54L1412.83 3379.92L1124.34 1687.25L1318.51 3273.21L1115.59 1688.53L1253.84 3403.22L1106.78 1689.39L1168.73 3287.79L1097.96 1689.82L1093.54 3411.01L1089.13 1689.82L1018.35 3287.79L1080.29 1689.39L933.25 3403.22L1071.5 1688.53L868.565 3273.21L1062.74 1687.25L774.242 3379.92L1054.05 1685.54L720.606 3244.17L1045.44 1683.41L617.816 3341.3L1036.92 1680.87L575.639 3200.9L1028.51 1677.91L465.213 3287.67L1020.24 1674.56L434.841 3143.75L1012.12 1670.8L317.675 3219.47L1004.16 1666.66L299.346 3073.18L996.37 1662.13L176.38 3137.23L988.787 1657.22L170.256 2989.75L981.421 1651.97L42.4624 3041.62L974.271 1646.34L48.5865 2894.15L967.359 1640.39L-82.9822 2933.42L960.706 1634.1L-64.661 2787.13L954.322 1627.5L-198.958 2813.49L948.22 1620.59L-168.585 2669.56L942.398 1613.39L-304.526 2682.8L936.89 1605.92L-262.348 2542.4L931.706 1598.19L-398.839 2542.4L926.835 1590.22L-345.195 2406.66L922.298 1582.01L-481.136 2393.42L918.118 1573.59L-416.457 2263.42L914.284 1564.98L-550.754 2237.06L910.806 1556.2L-475.562 2113.86L907.707 1547.25L-607.134 2074.58L904.974 1538.17L-522.033 1959.16L902.619 1528.95L-649.82 1907.29L900.654 1519.64L-555.497 1800.59L899.077 1510.23L-678.47 1736.53L897.889 1500.77L-575.683 1639.4L897.1 1491.24L-692.854 1563.7L896.701 1481.7L-582.43 1476.92L896.701 1472.14L-692.854 1390.15L897.1 1462.6L-575.683 1314.43L897.889 1453.08L-678.47 1217.3L899.077 1443.61L-555.497 1153.25L900.654 1434.2L-649.82 1046.54L902.619 1424.89L-522.033 994.674L904.974 1415.68L-607.134 879.251L907.707 1406.58L-475.562 839.986L910.806 1397.64L-550.754 716.776L914.284 1388.85L-416.457 690.423L918.118 1380.24L-481.136 560.418L922.298 1371.83L-345.195 547.191L926.835 1363.63L-398.839 411.442L931.706 1355.65L-262.348 411.442L936.89 1347.92L-304.526 271.039L942.398 1340.45L-168.585 284.272L948.22 1333.25L-198.958 140.349L954.322 1326.35L-64.661 166.708L960.706 1319.74L-82.9822 20.4181L967.359 1313.45L48.5865 59.6926L974.271 1307.49L42.4624 -87.7851L981.421 1301.88L170.256 -35.9131L988.787 1296.61L176.38 -183.39L996.37 1291.71L299.346 -119.338L1004.16 1287.19L317.675 -265.627L1012.12 1283.03L434.841 -189.91L1020.24 1279.28L465.213 -333.835L1028.51 1275.92L575.639 -247.062L1036.92 1272.97L617.816 -387.463L1045.44 1270.43L720.606 -290.335L1054.05 1268.31L774.242 -426.08L1062.74 1266.59L868.565 -319.377L1071.5 1265.31L933.25 -449.376L1080.29 1264.46L1018.35 -333.958L1089.13 1264.03L1093.54 -457.161Z" fill="#D8CF82"/>
<path fill-rule="evenodd" clip-rule="evenodd" d="M1093.54 -457.161L1097.96 1264.03L1168.73 -333.958L1106.78 1264.46L1253.84 -449.376L1115.59 1265.31L1318.51 -319.377L1124.34 1266.59L1412.83 -426.08L1133.03 1268.31L1466.48 -290.335L1141.65 1270.43L1569.26 -387.463L1150.16 1272.97L1611.45 -247.062L1158.56 1275.92L1721.86 -333.835L1166.84 1279.28L1752.23 -189.91L1174.96 1283.03L1869.41 -265.627L1182.92 1287.19L1887.73 -119.338L1190.71 1291.71L2010.71 -183.39L1198.29 1296.61L2016.82 -35.9131L1205.67 1301.88L2144.61 -87.7851L1212.8 1307.49L2138.49 59.6926L1219.72 1313.45L2270.06 20.4181L1226.37 1319.74L2251.73 166.708L1232.75 1326.35L2386.03 140.349L1238.87 1333.25L2355.66 284.272L1244.68 1340.45L2491.61 271.039L1250.19 1347.92L2449.43 411.442L1255.38 1355.65L2585.92 411.442L1260.24 1363.63L2532.27 547.191L1264.78 1371.83L2668.21 560.418L1268.96 1380.24L2603.54 690.423L1272.8 1388.85L2737.83 716.776L1276.27 1397.64L2662.64 839.986L1279.37 1406.58L2794.21 879.251L1282.1 1415.68L2709.11 994.674L1284.46 1424.89L2836.9 1046.54L1286.42 1434.2L2742.57 1153.25L1288 1443.61L2865.55 1217.3L1289.19 1453.08L2762.76 1314.43L1289.98 1462.6L2879.94 1390.15L1290.38 1472.14L2769.51 1476.92L1290.38 1481.7L2879.94 1563.7L1289.98 1491.24L2762.76 1639.4L1289.19 1500.77L2865.55 1736.53L1288 1510.23L2742.57 1800.59L1286.42 1519.64L2836.9 1907.29L1284.46 1528.95L2709.11 1959.16L1282.1 1538.17L2794.21 2074.58L1279.37 1547.25L2662.64 2113.86L1276.27 1556.2L2737.83 2237.06L1272.8 1564.98L2603.54 2263.42L1268.96 1573.59L2668.21 2393.42L1264.78 1582.01L2532.27 2406.66L1260.24 1590.22L2585.92 2542.4L1255.38 1598.19L2449.43 2542.4L1250.19 1605.92L2491.61 2682.8L1244.68 1613.39L2355.66 2669.56L1238.87 1620.59L2386.03 2813.49L1232.75 1627.5L2251.73 2787.13L1226.37 1634.1L2270.06 2933.42L1219.72 1640.39L2138.49 2894.15L1212.8 1646.34L2144.61 3041.62L1205.67 1651.97L2016.82 2989.75L1198.29 1657.22L2010.71 3137.23L1190.71 1662.13L1887.73 3073.18L1182.92 1666.66L1869.41 3219.47L1174.96 1670.8L1752.23 3143.75L1166.84 1674.56L1721.86 3287.67L1158.56 1677.91L1611.45 3200.9L1150.16 1680.87L1569.26 3341.3L1141.65 1683.41L1466.48 3244.17L1133.03 1685.54L1412.83 3379.92L1124.34 1687.25L1318.51 3273.21L1115.59 1688.53L1253.84 3403.22L1106.78 1689.39L1168.73 3287.79L1097.96 1689.82L1093.54 3411.01L1089.13 1689.82L1018.35 3287.79L1080.29 1689.39L933.25 3403.22L1071.5 1688.53L868.565 3273.21L1062.74 1687.25L774.242 3379.92L1054.05 1685.54L720.606 3244.17L1045.44 1683.41L617.816 3341.3L1036.92 1680.87L575.639 3200.9L1028.51 1677.91L465.213 3287.67L1020.24 1674.56L434.841 3143.75L1012.12 1670.8L317.675 3219.47L1004.16 1666.66L299.346 3073.18L996.37 1662.13L176.38 3137.23L988.787 1657.22L170.256 2989.75L981.421 1651.97L42.4624 3041.62L974.271 1646.34L48.5865 2894.15L967.359 1640.39L-82.9822 2933.42L960.706 1634.1L-64.661 2787.13L954.322 1627.5L-198.958 2813.49L948.22 1620.59L-168.585 2669.56L942.398 1613.39L-304.526 2682.8L936.89 1605.92L-262.348 2542.4L931.706 1598.19L-398.839 2542.4L926.835 1590.22L-345.195 2406.66L922.298 1582.01L-481.136 2393.42L918.118 1573.59L-416.457 2263.42L914.284 1564.98L-550.754 2237.06L910.806 1556.2L-475.562 2113.86L907.707 1547.25L-607.134 2074.58L904.974 1538.17L-522.033 1959.16L902.619 1528.95L-649.82 1907.29L900.654 1519.64L-555.497 1800.59L899.077 1510.23L-678.47 1736.53L897.889 1500.77L-575.683 1639.4L897.1 1491.24L-692.854 1563.7L896.701 1481.7L-582.43 1476.92L896.701 1472.14L-692.854 1390.15L897.1 1462.6L-575.683 1314.43L897.889 1453.08L-678.47 1217.3L899.077 1443.61L-555.497 1153.25L900.654 1434.2L-649.82 1046.54L902.619 1424.89L-522.033 994.674L904.974 1415.68L-607.134 879.251L907.707 1406.58L-475.562 839.986L910.806 1397.64L-550.754 716.776L914.284 1388.85L-416.457 690.423L918.118 1380.24L-481.136 560.418L922.298 1371.83L-345.195 547.191L926.835 1363.63L-398.839 411.442L931.706 1355.65L-262.348 411.442L936.89 1347.92L-304.526 271.039L942.398 1340.45L-168.585 284.272L948.22 1333.25L-198.958 140.349L954.322 1326.35L-64.661 166.708L960.706 1319.74L-82.9822 20.4181L967.359 1313.45L48.5865 59.6926L974.271 1307.49L42.4624 -87.7851L981.421 1301.88L170.256 -35.9131L988.787 1296.61L176.38 -183.39L996.37 1291.71L299.346 -119.338L1004.16 1287.19L317.675 -265.627L1012.12 1283.03L434.841 -189.91L1020.24 1279.28L465.213 -333.835L1028.51 1275.92L575.639 -247.062L1036.92 1272.97L617.816 -387.463L1045.44 1270.43L720.606 -290.335L1054.05 1268.31L774.242 -426.08L1062.74 1266.59L868.565 -319.377L1071.5 1265.31L933.25 -449.376L1080.29 1264.46L1018.35 -333.958L1089.13 1264.03L1093.54 -457.161ZM932.03 1476.92C932.203 1478.2 932.311 1479.51 932.343 1480.83C932.375 1482.24 932.332 1483.63 932.203 1485.01C932.408 1486.21 932.559 1487.41 932.656 1488.64C932.764 1490.14 932.775 1491.62 932.699 1493.08C932.948 1494.19 933.142 1495.31 933.283 1496.45C933.466 1498.02 933.553 1499.58 933.542 1501.11C933.812 1502.13 934.028 1503.16 934.211 1504.21C934.492 1505.84 934.654 1507.48 934.708 1509.09C935 1510.02 935.248 1510.97 935.464 1511.93C935.832 1513.63 936.08 1515.32 936.21 1517.01C936.512 1517.85 936.771 1518.7 937.009 1519.58C937.495 1521.33 937.83 1523.08 938.035 1524.84C938.337 1525.59 938.618 1526.37 938.877 1527.15C939.461 1528.95 939.893 1530.75 940.184 1532.56C940.487 1533.24 940.778 1533.92 941.038 1534.63C941.729 1536.45 942.269 1538.3 942.636 1540.15C942.949 1540.76 943.241 1541.38 943.511 1542.02C944.31 1543.86 944.947 1545.73 945.412 1547.62C945.714 1548.16 945.995 1548.71 946.276 1549.26C947.183 1551.12 947.917 1553.02 948.49 1554.94C948.782 1555.41 949.062 1555.9 949.332 1556.39C950.359 1558.25 951.19 1560.14 951.849 1562.08C952.141 1562.5 952.411 1562.93 952.681 1563.37C953.804 1565.2 954.754 1567.1 955.51 1569.05C955.791 1569.42 956.05 1569.79 956.32 1570.19C957.552 1571.99 958.589 1573.88 959.442 1575.81C959.712 1576.13 959.971 1576.47 960.22 1576.81C961.559 1578.58 962.693 1580.44 963.643 1582.36C963.903 1582.66 964.162 1582.96 964.41 1583.27C965.836 1584.99 967.067 1586.81 968.115 1588.7C968.363 1588.97 968.612 1589.23 968.86 1589.5C970.361 1591.17 971.69 1592.94 972.824 1594.8C973.072 1595.04 973.321 1595.29 973.569 1595.53C975.146 1597.14 976.55 1598.84 977.771 1600.65C978.019 1600.86 978.268 1601.09 978.516 1601.32C980.168 1602.85 981.648 1604.5 982.944 1606.23C983.203 1606.45 983.463 1606.66 983.722 1606.88C985.428 1608.32 986.962 1609.89 988.334 1611.56C988.604 1611.76 988.874 1611.97 989.144 1612.17C990.894 1613.52 992.492 1615.01 993.929 1616.61C994.22 1616.8 994.501 1617 994.792 1617.2C996.585 1618.46 998.227 1619.86 999.707 1621.37C1000.02 1621.55 1000.33 1621.74 1000.65 1621.94C1002.46 1623.11 1004.14 1624.42 1005.67 1625.83C1006.01 1626.02 1006.36 1626.21 1006.71 1626.4C1008.53 1627.47 1010.23 1628.67 1011.79 1629.99C1012.17 1630.17 1012.56 1630.36 1012.94 1630.57C1014.76 1631.53 1016.48 1632.62 1018.07 1633.84C1018.5 1634.02 1018.93 1634.21 1019.35 1634.42C1021.17 1635.27 1022.89 1636.27 1024.48 1637.37C1024.97 1637.55 1025.44 1637.73 1025.92 1637.94C1027.71 1638.69 1029.43 1639.58 1031.04 1640.59C1031.57 1640.76 1032.11 1640.94 1032.64 1641.14C1034.41 1641.8 1036.09 1642.57 1037.69 1643.47C1038.29 1643.64 1038.89 1643.81 1039.49 1644C1041.21 1644.56 1042.88 1645.24 1044.45 1646.03C1045.12 1646.18 1045.79 1646.34 1046.45 1646.53C1048.14 1646.99 1049.76 1647.56 1051.3 1648.25C1052.04 1648.38 1052.78 1648.52 1053.52 1648.69C1055.14 1649.08 1056.71 1649.56 1058.23 1650.14C1059.05 1650.24 1059.86 1650.36 1060.68 1650.52C1062.23 1650.81 1063.74 1651.2 1065.21 1651.68C1066.11 1651.75 1067.01 1651.84 1067.9 1651.98C1069.39 1652.19 1070.84 1652.5 1072.26 1652.89C1073.23 1652.91 1074.21 1652.97 1075.19 1653.07C1076.6 1653.22 1077.98 1653.44 1079.33 1653.75C1080.38 1653.73 1081.44 1653.74 1082.51 1653.8C1083.83 1653.88 1085.14 1654.04 1086.43 1654.27C1087.56 1654.18 1088.7 1654.15 1089.86 1654.18C1091.1 1654.2 1092.33 1654.29 1093.54 1654.44C1094.74 1654.29 1095.97 1654.2 1097.22 1654.18C1098.37 1654.15 1099.52 1654.18 1100.65 1654.27C1101.94 1654.04 1103.24 1653.88 1104.57 1653.8C1105.64 1653.74 1106.7 1653.73 1107.75 1653.75C1109.1 1653.44 1110.48 1653.22 1111.88 1653.07C1112.87 1652.97 1113.85 1652.91 1114.82 1652.89C1116.24 1652.5 1117.69 1652.19 1119.17 1651.98C1120.07 1651.84 1120.97 1651.75 1121.86 1651.68C1123.33 1651.2 1124.84 1650.81 1126.4 1650.52C1127.22 1650.36 1128.03 1650.24 1128.85 1650.14C1130.36 1649.56 1131.94 1649.08 1133.56 1648.69C1134.29 1648.52 1135.04 1648.38 1135.77 1648.25C1137.33 1647.56 1138.94 1646.99 1140.62 1646.53C1141.29 1646.34 1141.95 1646.18 1142.62 1646.03C1144.21 1645.24 1145.86 1644.56 1147.59 1644C1148.19 1643.81 1148.79 1643.64 1149.38 1643.47C1150.98 1642.57 1152.67 1641.8 1154.44 1641.14C1154.97 1640.94 1155.51 1640.76 1156.05 1640.59C1157.65 1639.58 1159.36 1638.69 1161.17 1637.94C1161.63 1637.73 1162.11 1637.55 1162.59 1637.37C1164.19 1636.27 1165.91 1635.27 1167.72 1634.42C1168.15 1634.21 1168.58 1634.02 1169.01 1633.84C1170.6 1632.62 1172.31 1631.53 1174.15 1630.57C1174.53 1630.36 1174.91 1630.17 1175.28 1629.99C1176.85 1628.67 1178.54 1627.47 1180.38 1626.4C1180.72 1626.21 1181.06 1626.02 1181.41 1625.83C1182.94 1624.42 1184.61 1623.11 1186.44 1621.94C1186.74 1621.74 1187.06 1621.55 1187.37 1621.37C1188.86 1619.86 1190.49 1618.46 1192.28 1617.2C1192.58 1617 1192.87 1616.8 1193.16 1616.61C1194.58 1615.01 1196.18 1613.52 1197.94 1612.17C1198.2 1611.97 1198.47 1611.76 1198.74 1611.56C1200.11 1609.89 1201.65 1608.32 1203.35 1606.88C1203.61 1606.66 1203.87 1606.45 1204.13 1606.23C1205.43 1604.5 1206.91 1602.85 1208.56 1601.32C1208.81 1601.09 1209.06 1600.86 1209.31 1600.65C1210.53 1598.84 1211.93 1597.14 1213.51 1595.53C1213.76 1595.29 1214 1595.04 1214.26 1594.8C1215.4 1592.94 1216.71 1591.17 1218.22 1589.5C1218.46 1589.23 1218.71 1588.97 1218.97 1588.7C1220.01 1586.81 1221.24 1584.99 1222.67 1583.27C1222.91 1582.96 1223.17 1582.66 1223.43 1582.36C1224.38 1580.44 1225.53 1578.58 1226.86 1576.81C1227.1 1576.47 1227.36 1576.13 1227.63 1575.81C1228.49 1573.88 1229.53 1571.99 1230.76 1570.19C1231.03 1569.79 1231.3 1569.42 1231.57 1569.05C1232.33 1567.1 1233.27 1565.2 1234.4 1563.37C1234.67 1562.93 1234.94 1562.5 1235.23 1562.08C1235.89 1560.14 1236.72 1558.25 1237.74 1556.39C1238.01 1555.9 1238.29 1555.41 1238.59 1554.94C1239.16 1553.02 1239.89 1551.12 1240.8 1549.26C1241.08 1548.71 1241.36 1548.16 1241.66 1547.62C1242.14 1545.73 1242.77 1543.86 1243.57 1542.02C1243.85 1541.38 1244.13 1540.76 1244.44 1540.15C1244.82 1538.3 1245.35 1536.45 1246.04 1534.63C1246.31 1533.92 1246.59 1533.24 1246.9 1532.56C1247.18 1530.75 1247.62 1528.95 1248.2 1527.15C1248.46 1526.37 1248.74 1525.59 1249.04 1524.84C1249.25 1523.08 1249.59 1521.33 1250.07 1519.58C1250.3 1518.7 1250.57 1517.85 1250.87 1517.01C1251 1515.32 1251.24 1513.63 1251.61 1511.93C1251.83 1510.97 1252.08 1510.02 1252.37 1509.09C1252.42 1507.48 1252.58 1505.84 1252.86 1504.21C1253.05 1503.16 1253.27 1502.13 1253.53 1501.11C1253.52 1499.58 1253.61 1498.02 1253.8 1496.45C1253.94 1495.31 1254.13 1494.19 1254.38 1493.08C1254.3 1491.62 1254.31 1490.14 1254.43 1488.64C1254.52 1487.41 1254.67 1486.21 1254.87 1485.01C1254.75 1483.63 1254.7 1482.24 1254.73 1480.83C1254.77 1479.51 1254.87 1478.2 1255.05 1476.92C1254.87 1475.63 1254.77 1474.32 1254.73 1473C1254.7 1471.59 1254.75 1470.2 1254.87 1468.84C1254.67 1467.64 1254.52 1466.42 1254.43 1465.19C1254.31 1463.7 1254.3 1462.22 1254.38 1460.76C1254.13 1459.66 1253.94 1458.53 1253.8 1457.38C1253.61 1455.82 1253.52 1454.27 1253.53 1452.73C1253.27 1451.72 1253.05 1450.68 1252.86 1449.63C1252.58 1447.99 1252.42 1446.35 1252.37 1444.74C1252.08 1443.82 1251.83 1442.87 1251.61 1441.91C1251.24 1440.22 1251 1438.51 1250.87 1436.83C1250.57 1435.99 1250.3 1435.14 1250.07 1434.27C1249.59 1432.52 1249.25 1430.76 1249.04 1429.01C1248.74 1428.25 1248.46 1427.47 1248.2 1426.68C1247.62 1424.89 1247.18 1423.09 1246.9 1421.29C1246.59 1420.61 1246.31 1419.91 1246.04 1419.21C1245.35 1417.38 1244.82 1415.53 1244.44 1413.68C1244.13 1413.07 1243.85 1412.45 1243.57 1411.82C1242.77 1409.98 1242.14 1408.11 1241.66 1406.22C1241.36 1405.68 1241.08 1405.13 1240.8 1404.57C1239.89 1402.72 1239.16 1400.83 1238.59 1398.91C1238.29 1398.42 1238.01 1397.94 1237.74 1397.44C1236.72 1395.59 1235.89 1393.69 1235.23 1391.76C1234.94 1391.34 1234.67 1390.92 1234.4 1390.48C1233.27 1388.64 1232.33 1386.74 1231.57 1384.8C1231.3 1384.43 1231.03 1384.04 1230.76 1383.66C1229.53 1381.84 1228.49 1379.97 1227.63 1378.03C1227.36 1377.7 1227.1 1377.36 1226.86 1377.02C1225.53 1375.25 1224.38 1373.39 1223.43 1371.47C1223.17 1371.18 1222.91 1370.88 1222.67 1370.58C1221.24 1368.85 1220.01 1367.02 1218.97 1365.14C1218.71 1364.88 1218.46 1364.61 1218.22 1364.34C1216.71 1362.67 1215.4 1360.9 1214.26 1359.05C1214 1358.81 1213.76 1358.56 1213.51 1358.31C1211.93 1356.71 1210.53 1354.99 1209.31 1353.19C1209.06 1352.97 1208.81 1352.75 1208.56 1352.52C1206.91 1350.99 1205.43 1349.34 1204.13 1347.6C1203.87 1347.4 1203.61 1347.18 1203.35 1346.96C1201.65 1345.52 1200.11 1343.94 1198.74 1342.27C1198.47 1342.08 1198.2 1341.88 1197.94 1341.68C1196.18 1340.32 1194.58 1338.83 1193.16 1337.23C1192.87 1337.04 1192.58 1336.85 1192.28 1336.64C1190.49 1335.38 1188.86 1333.98 1187.37 1332.48C1187.06 1332.29 1186.74 1332.09 1186.44 1331.89C1184.61 1330.73 1182.94 1329.43 1181.41 1328.01C1181.06 1327.83 1180.72 1327.64 1180.38 1327.43C1178.54 1326.37 1176.85 1325.16 1175.28 1323.86C1174.91 1323.66 1174.53 1323.48 1174.15 1323.28C1172.31 1322.32 1170.6 1321.21 1169.01 1320.01C1168.58 1319.81 1168.15 1319.62 1167.72 1319.43C1165.91 1318.57 1164.19 1317.58 1162.59 1316.46C1162.11 1316.29 1161.63 1316.1 1161.17 1315.9C1159.36 1315.14 1157.65 1314.26 1156.05 1313.26C1155.51 1313.09 1154.97 1312.9 1154.44 1312.7C1152.67 1312.04 1150.98 1311.26 1149.38 1310.37C1148.79 1310.21 1148.19 1310.03 1147.59 1309.84C1145.86 1309.29 1144.21 1308.6 1142.62 1307.81C1141.95 1307.67 1141.29 1307.5 1140.62 1307.32C1138.94 1306.85 1137.33 1306.27 1135.77 1305.58C1135.04 1305.47 1134.29 1305.31 1133.56 1305.14C1131.94 1304.77 1130.36 1304.29 1128.85 1303.7C1128.03 1303.61 1127.22 1303.48 1126.4 1303.33C1124.84 1303.03 1123.33 1302.64 1121.86 1302.15C1120.97 1302.1 1120.07 1301.99 1119.17 1301.87C1117.69 1301.64 1116.24 1301.34 1114.82 1300.96C1113.85 1300.93 1112.87 1300.87 1111.88 1300.76C1110.48 1300.62 1109.1 1300.39 1107.75 1300.09C1106.7 1300.12 1105.64 1300.1 1104.57 1300.03C1103.24 1299.95 1101.94 1299.79 1100.65 1299.58C1099.52 1299.66 1098.37 1299.69 1097.22 1299.67C1095.97 1299.64 1094.74 1299.56 1093.54 1299.4C1092.33 1299.56 1091.1 1299.64 1089.86 1299.67C1088.7 1299.69 1087.56 1299.66 1086.43 1299.58C1085.14 1299.79 1083.83 1299.95 1082.51 1300.03C1081.44 1300.1 1080.38 1300.12 1079.33 1300.09C1077.98 1300.39 1076.6 1300.62 1075.19 1300.76C1074.21 1300.87 1073.23 1300.93 1072.26 1300.96C1070.84 1301.34 1069.39 1301.64 1067.9 1301.87C1067.01 1301.99 1066.11 1302.1 1065.21 1302.15C1063.74 1302.64 1062.23 1303.03 1060.68 1303.33C1059.86 1303.48 1059.05 1303.61 1058.23 1303.7C1056.71 1304.29 1055.14 1304.77 1053.52 1305.14C1052.78 1305.31 1052.04 1305.47 1051.3 1305.58C1049.76 1306.27 1048.14 1306.85 1046.45 1307.32C1045.79 1307.5 1045.12 1307.67 1044.45 1307.81C1042.88 1308.6 1041.21 1309.29 1039.49 1309.84C1038.89 1310.03 1038.29 1310.21 1037.69 1310.37C1036.09 1311.26 1034.41 1312.04 1032.64 1312.7C1032.11 1312.9 1031.57 1313.09 1031.04 1313.26C1029.43 1314.26 1027.71 1315.14 1025.92 1315.9C1025.44 1316.1 1024.97 1316.29 1024.48 1316.46C1022.89 1317.58 1021.17 1318.57 1019.35 1319.43C1018.93 1319.62 1018.5 1319.81 1018.07 1320.01C1016.48 1321.21 1014.76 1322.32 1012.94 1323.28C1012.56 1323.48 1012.17 1323.66 1011.79 1323.86C1010.23 1325.16 1008.53 1326.37 1006.71 1327.43C1006.36 1327.64 1006.01 1327.83 1005.67 1328.01C1004.14 1329.43 1002.46 1330.73 1000.65 1331.89C1000.33 1332.09 1000.02 1332.29 999.707 1332.48C998.227 1333.98 996.585 1335.38 994.792 1336.64C994.501 1336.85 994.22 1337.04 993.929 1337.23C992.492 1338.83 990.894 1340.32 989.144 1341.68C988.874 1341.88 988.604 1342.08 988.334 1342.27C986.962 1343.94 985.428 1345.52 983.722 1346.96C983.463 1347.18 983.203 1347.4 982.944 1347.6C981.648 1349.34 980.168 1350.99 978.516 1352.52C978.268 1352.75 978.019 1352.97 977.771 1353.19C976.55 1354.99 975.146 1356.71 973.569 1358.31C973.321 1358.56 973.072 1358.81 972.824 1359.05C971.69 1360.9 970.361 1362.67 968.86 1364.34C968.612 1364.61 968.363 1364.88 968.115 1365.14C967.067 1367.02 965.836 1368.85 964.41 1370.58C964.162 1370.88 963.903 1371.18 963.643 1371.47C962.693 1373.39 961.559 1375.25 960.22 1377.02C959.971 1377.36 959.712 1377.7 959.442 1378.03C958.589 1379.97 957.552 1381.84 956.32 1383.66C956.05 1384.04 955.791 1384.43 955.51 1384.8C954.754 1386.74 953.804 1388.64 952.681 1390.48C952.411 1390.92 952.141 1391.34 951.849 1391.76C951.19 1393.69 950.359 1395.59 949.332 1397.44C949.062 1397.94 948.782 1398.42 948.49 1398.91C947.917 1400.83 947.183 1402.72 946.276 1404.57C945.995 1405.13 945.714 1405.68 945.412 1406.22C944.947 1408.11 944.31 1409.98 943.511 1411.82C943.241 1412.45 942.949 1413.07 942.636 1413.68C942.269 1415.53 941.729 1417.38 941.038 1419.21C940.778 1419.91 940.487 1420.61 940.184 1421.29C939.893 1423.09 939.461 1424.89 938.877 1426.68C938.618 1427.47 938.337 1428.25 938.035 1429.01C937.83 1430.76 937.495 1432.52 937.009 1434.27C936.771 1435.14 936.512 1435.99 936.21 1436.83C936.08 1438.51 935.832 1440.22 935.464 1441.91C935.248 1442.87 935 1443.82 934.708 1444.74C934.654 1446.35 934.492 1447.99 934.211 1449.63C934.028 1450.68 933.812 1451.72 933.542 1452.73C933.553 1454.27 933.466 1455.82 933.283 1457.38C933.142 1458.53 932.948 1459.66 932.699 1460.76C932.775 1462.22 932.764 1463.7 932.656 1465.19C932.559 1466.42 932.408 1467.64 932.203 1468.84C932.332 1470.2 932.375 1471.59 932.343 1473C932.311 1474.32 932.203 1475.63 932.03 1476.92Z" fill="#FAF6B0"/>
</g>
<defs>
<clipPath id="clip0_910_1012">
<rect width="2160" height="2700" fill="white"/>
</clipPath>
</defs>
</svg>
