<svg width="2160" height="2700" viewBox="0 0 2160 2700" fill="none" xmlns="http://www.w3.org/2000/svg">
<g clip-path="url(#clip0_993_2548)">
<path fill-rule="evenodd" clip-rule="evenodd" d="M2187.27 -11.832V2711.83H-27.2656V-11.832H2187.27ZM2092.21 83.2317H67.7983V2616.77H2092.21V83.2317Z" fill="#D1D1D1"/>
<path fill-rule="evenodd" clip-rule="evenodd" d="M317.338 550.735C318.474 549.784 122.571 553.766 122.571 553.766L61.5156 509.027L350.827 508.993L339.42 486.324L435.774 496.24L430.927 506.757L629.007 500.523L710.421 536.574C710.421 536.574 593.949 611.848 484.926 633.092L373.401 601.448C383.593 606.782 569.094 563.552 570.83 544.691L422.656 552.126C389.042 589.766 280.735 637.312 171.858 646.664L91.5145 597.039C91.5145 597.039 269.6 590.735 317.338 550.735Z" fill="black"/>
<path fill-rule="evenodd" clip-rule="evenodd" d="M678.823 457.358L96.8833 464.707L83.7422 235.159L168.604 259.271L345.529 259.425C339.207 248.206 322.331 242.86 291.543 244.522L256.908 194.385L382.197 211.247C382.197 211.247 446.196 186.335 446.194 186.335C343.096 190.184 169.511 182.811 169.511 182.811L103.823 125.898C278.351 133.865 461.278 141.241 646.086 126.828L723.476 164.731C615.225 183.274 501.241 200.594 417.766 233.789C418.77 236.709 431.658 251.44 432.725 255.307L684.49 248.224L657.237 278.319L659.679 417.156L678.823 457.358ZM167.476 312.747L172.878 415.877L341.292 421.513L342.752 387.292L238.35 388.033L199.079 342.074L344.801 339.29L346.204 306.402L167.476 312.747ZM595.688 297.544L426.106 303.565L424.646 337.763L574.414 332.793L534.333 383.474L422.598 385.766L425.259 418.866L591.745 412.29L595.688 297.544Z" fill="black"/>
<path fill-rule="evenodd" clip-rule="evenodd" d="M457.966 56.5966C415.545 112.356 647.643 57.5035 647.643 57.5035C647.643 57.5035 600.479 74.3653 615.646 94.0041C635.812 120.11 700.754 137.549 732.004 60.8022C731.578 147.999 595.683 179.556 622.617 217.154C626.209 222.15 666.881 213.66 666.881 213.66C666.881 213.66 595.107 268.351 620.549 295.365C657.257 334.336 628.884 369.057 624.557 376.52C597.463 423.214 683.764 392.813 736.544 343.612C696 419.926 658.525 416.72 620.72 464.835C604.572 485.403 620.272 497.531 620.272 497.531C634.277 501.052 679.202 478.35 679.202 478.35C679.202 478.35 648.304 572.877 564.187 592.499C535.719 599.14 463.284 615.807 431.139 641.082C455.536 612.164 350.721 638.799 342.002 602.53C337.142 582.307 291.865 642.128 237.465 654.059C206.843 663.917 176.907 663.139 176.907 663.139C204.989 632.304 128.514 646.091 88.3997 598.061C65.4457 570.577 93.5872 557.367 85.442 542.604C49.5424 477.533 52.0534 410.892 52.0534 410.892C85.8065 459.986 114.662 452.484 82.4672 309.201C73.2477 268.165 77.0315 150.771 77.0315 150.771C66.2494 163.717 180.057 243.568 185.718 221.849C194.949 186.401 136.724 168.116 124.383 149.357C97.7055 108.804 98.9217 91.5102 100.109 66.1075C107.94 75.8982 124.03 95.1369 154.307 100.494C198.295 108.277 330.907 46.2027 341.406 1.91797C336.631 2.82721 288.902 128.962 322.359 91.3841C357.446 51.9643 376.536 98.9665 457.966 56.5966Z" fill="#F2E83A"/>
<path fill-rule="evenodd" clip-rule="evenodd" d="M53.7472 370.926C51.5569 356.403 48.1355 338.869 43.4394 317.97C35.4435 282.384 36.2397 192.817 36.8067 160.954C33.8341 145.807 39.3935 133.458 46.2948 125.173C50.8044 119.759 56.5269 115.772 62.8153 113.382C58.4177 95.9245 59.3428 81.5279 60.1507 64.2408C60.9277 47.6129 71.9219 33.2049 87.7539 28.0636C103.586 22.9223 120.946 28.1232 131.345 41.1221C135.736 46.612 144.299 58.1031 161.275 61.1072C167.636 62.232 176.896 59.6968 187.657 56.7031C211.372 50.1045 239.425 37.836 263.161 23.6526C275.355 16.3672 286.397 8.63116 294.731 0.789639C296.309 -0.699783 298.099 -2.73154 299.592 -4.53283C301.979 -9.98716 304.015 -14.233 305.475 -16.6672C315.483 -33.4131 329.211 -36.4768 333.901 -37.3723C347.224 -39.9143 360.92 -35.5343 370.3 -25.7356C379.679 -15.9379 383.452 -2.05735 380.329 11.1388C378.698 18.0103 375.714 25.2968 371.301 32.7061L370.555 34.8709C386.053 36.2605 406.208 38.4379 439.504 21.1141C456.11 12.4723 476.489 16.5071 488.554 30.8257C491.208 33.9777 493.308 37.4415 494.843 41.0877C501.206 41.0395 508.251 40.8182 514.497 40.2289C568.727 35.1082 638.444 18.5767 638.444 18.5767C659.099 13.6945 679.979 25.7991 686.001 46.1533C687.398 50.8945 687.888 55.6998 687.547 60.3699C690.201 56.2502 692.652 51.3669 694.954 45.7199C702.181 27.9684 720.982 17.8383 739.784 21.567C758.585 25.2957 772.089 41.8341 772.004 60.9994C771.727 115.628 734.135 155.774 695.732 185.951C698.781 189.13 701.349 192.854 703.257 197.042C711.027 214.042 705.986 234.151 691.117 245.477C691.117 245.477 677.571 255.818 665.782 269.011C663.523 271.535 660.773 275.33 658.599 278.475C670.152 293.725 675.641 308.591 677.88 322.144C678.658 326.848 679.009 331.426 679.031 335.853C690.201 329.29 701.179 321.891 709.269 314.354C723.561 301.031 745.39 299.983 760.887 311.877C776.395 323.77 781.032 345.123 771.865 362.378C748.119 407.073 725.139 428.609 702.682 445.972C703.566 446.609 704.419 447.284 705.25 448C717.518 458.53 722.24 475.41 717.22 490.777C717.22 490.777 677.752 607.082 573.267 631.454C548.263 637.286 484.089 650.331 455.865 672.526C439.739 685.208 416.632 683.631 402.371 668.876C401.156 667.612 400.026 666.285 399.003 664.908C381.96 663.45 356.934 660.563 343.749 655.483C339.198 653.734 334.999 651.697 331.141 649.388C310.73 663.742 276.165 685.822 248.058 692.661C211.297 704.126 175.868 703.128 175.868 703.128C160.221 702.721 146.25 693.227 140.111 678.829C139.267 676.848 138.591 674.824 138.083 672.776C133.316 671.182 128.344 669.469 124.012 667.873C101.197 659.467 76.6446 646.387 57.6983 623.703C43.967 607.262 39.9957 592.682 39.2827 580.281C38.7636 571.249 42.0005 559.127 44.6566 550.913C9.16841 479.264 12.0814 409.386 12.0814 409.386C12.7305 392.155 24.3492 377.279 40.9102 372.476C45.1607 371.243 49.4913 370.745 53.7472 370.926ZM76.8951 155.566C76.9761 152.483 77.0305 150.772 77.0305 150.772C76.0915 151.899 76.0978 153.534 76.8951 155.566ZM333.304 17.7087C301.681 59.5111 193.253 107.386 154.306 100.495C124.029 95.1379 107.939 75.8993 100.108 66.1086C98.9207 91.5113 97.7045 108.805 124.382 149.358C136.723 168.117 194.948 186.402 185.717 221.85C180.548 241.677 85.2513 176.857 76.8951 155.566C76.3067 178.008 74.3594 273.122 82.4662 309.202C114.661 452.485 85.8055 459.987 52.0524 410.893C52.0524 410.893 49.5414 477.534 85.441 542.605C93.5862 557.369 65.4447 570.578 88.3987 598.062C128.513 646.092 204.988 632.305 176.906 663.14C176.906 663.14 206.842 663.918 237.464 654.06C291.864 642.129 337.141 582.308 342.001 602.532C350.72 638.8 455.535 612.165 431.138 641.083C463.283 615.808 535.718 599.141 564.186 592.5C648.302 572.878 679.201 478.351 679.201 478.351C679.201 478.351 634.276 501.053 620.271 497.533C620.271 497.533 604.571 485.404 620.719 464.836C658.524 416.721 695.999 419.927 736.543 343.613C683.763 392.815 597.462 423.215 624.556 376.521C628.883 369.058 657.256 334.337 620.548 295.366C595.106 268.352 666.88 213.661 666.88 213.661C666.88 213.661 626.208 222.151 622.616 217.155C595.682 179.557 731.577 148 732.003 60.8033C700.753 137.55 635.811 120.111 615.645 94.0051C600.478 74.3663 647.642 57.5046 647.642 57.5046C647.642 57.5046 415.544 112.357 457.965 56.5976C376.535 98.9676 357.445 51.9654 322.358 91.3852C296.288 120.671 319.523 50.523 333.304 17.7087ZM333.304 17.7087C337.397 12.2991 340.2 6.99269 341.405 1.91903C340.349 2.11968 337.205 8.41792 333.304 17.7087Z" fill="#FF050B"/>
<path fill-rule="evenodd" clip-rule="evenodd" d="M298.023 533.473C298.983 532.533 133.339 536.465 133.339 536.465L81.7148 492.283L326.339 492.25L316.693 469.863L398.164 479.656L394.066 490.041L561.55 483.885L630.389 519.487C630.389 519.487 531.907 593.825 439.725 614.804L345.426 583.554C354.044 588.821 510.891 546.129 512.36 527.503L387.072 534.846C358.651 572.017 267.073 618.971 175.014 628.207L107.08 579.2C107.08 579.2 257.658 572.974 298.023 533.473Z" fill="black"/>
<path fill-rule="evenodd" clip-rule="evenodd" d="M603.671 441.259L111.619 448.516L100.508 221.826L172.261 245.638L321.859 245.79C316.513 234.711 302.244 229.431 276.211 231.073L246.926 181.56L352.863 198.212C352.863 198.212 406.976 173.61 406.974 173.61C319.801 177.411 173.028 170.129 173.028 170.129L117.487 113.926C265.057 121.793 419.729 129.077 575.991 114.844L641.427 152.275C549.897 170.587 453.519 187.691 382.938 220.473C383.786 223.357 394.684 237.904 395.586 241.723L608.463 234.728L585.419 264.449L587.484 401.557L603.671 441.259ZM171.308 298.448L175.876 400.294L318.276 405.86L319.51 372.065L231.234 372.796L198.029 327.41L321.243 324.661L322.429 292.182L171.308 298.448ZM533.377 283.435L389.989 289.38L388.755 323.153L515.389 318.245L481.499 368.295L387.023 370.558L389.273 403.246L530.044 396.752L533.377 283.435Z" fill="black"/>
</g>
<defs>
<clipPath id="clip0_993_2548">
<rect width="2160" height="2700" fill="white"/>
</clipPath>
</defs>
</svg>
