<svg width="2160" height="2700" viewBox="0 0 2160 2700" fill="none" xmlns="http://www.w3.org/2000/svg">
<g clip-path="url(#clip0_918_1172)">
<path fill-rule="evenodd" clip-rule="evenodd" d="M2187.27 -11.832V2711.83H-27.2676V-11.832H2187.27ZM2092.2 83.2317H67.7964V2616.77H2092.2V83.2317Z" fill="#D1D1D1"/>
<path fill-rule="evenodd" clip-rule="evenodd" d="M396.286 215.891L396.536 229.047L532.048 223.292L541.992 279.163L396.99 279.805L397.871 304.948L641.039 290.998L668.376 342.073L85.8027 368.674L127.236 314.576L332.361 305.093L331.232 282.061L166.238 290.872L178.004 238.554L330.231 231.864L329.978 218.593L122.939 227.032L99.2957 172.244L226.325 166.985L182.327 121.259L246.338 100.642L300.717 164.052L328.921 162.941L328.851 159.248L395.193 158.354L395.23 160.327L418.607 159.405L475.972 91.8438L541.972 107.741L496.827 156.322L654.845 150.094L636.062 206.119L396.286 215.891Z" fill="black" stroke="black" stroke-width="13.8947" stroke-miterlimit="2" stroke-linejoin="round"/>
<path fill-rule="evenodd" clip-rule="evenodd" d="M206.209 511.532L64.3759 518.444L27.9121 459.985L205.119 455.623L204.525 436.529L117.254 448.42L80.2544 398.514L367.744 369.088L375.98 424.568L270.424 425.919L271.446 453.99L408.34 450.619C402.531 418.834 401.936 367.558 401.936 367.558L468.285 367.078C468.285 367.078 468.72 418.458 474.891 448.981L692.8 445.608L647.692 503.701L488.895 501.229C492.086 508.402 508.999 534.829 512.384 539.196C527.899 531.004 525.658 512.937 525.658 512.937L616.168 525.443C616.168 525.443 573.468 571.915 566.735 575.721C577.686 578.393 589.97 579.362 603.775 578.148C610.205 577.583 616.725 575.829 620.33 574.732L611.609 561.079L667.678 518.981C667.678 518.981 696.393 580.384 678.751 604.182C669.874 616.157 651.809 630.14 610.662 633.758C563.672 637.892 526.78 627.496 497.991 608.613C463.317 638.673 300.843 651.14 295.153 641.819L354.796 579.942C360.047 589.94 429.148 588.701 453.401 565.261C450.045 560.608 428.451 521.353 423.02 506.195L272.537 509.899L269.818 527.124L339.198 512.404L329.841 569.323L273.804 574.849L274.591 615.182C274.869 629.421 262.401 641.56 245.639 643.371L172.323 651.154L109.274 607.504L207.761 591.093L207.566 581.111L53.7836 601.136L70.139 541.828L206.736 529.983L206.209 511.532Z" fill="black" stroke="black" stroke-width="13.8947" stroke-miterlimit="2" stroke-linejoin="round"/>
<path fill-rule="evenodd" clip-rule="evenodd" d="M537.793 414.09L505.662 407.134L522.172 352.98L554.303 359.936C571.545 363.669 581.02 366.724 601.816 378.368L629.448 393.839L592.731 440.409L565.099 424.938C553.095 418.218 547.744 416.245 537.793 414.09Z" fill="black" stroke="black" stroke-width="13.8947" stroke-miterlimit="2" stroke-linejoin="round"/>
<path fill-rule="evenodd" clip-rule="evenodd" d="M457.965 56.5963C415.544 112.356 489.279 53.1119 528.065 73.5361C551.865 86.066 536.826 105.917 559.23 116.574C606.468 139.034 666.059 149.202 697.309 72.4537C688.782 146.041 652.352 180.763 625.653 204.737C614.056 215.158 606.073 230.04 616.636 250.582C619.439 256.05 646.82 239.743 646.82 239.743C646.82 239.743 620.164 295.526 645.605 322.541C682.313 361.511 628.882 369.057 624.555 376.52C597.461 423.214 656.146 412.177 708.927 362.975C668.382 439.288 686.096 430.934 648.302 479.049C632.144 499.617 664.087 577.609 664.087 577.609C678.092 581.13 693.717 586.786 699.995 546.254C699.995 546.254 714.991 623.628 641.779 620.904C615.73 619.935 659.408 641.362 659.408 641.362C659.408 641.362 596.673 640.013 558.185 640.996C528.971 641.741 522.746 632.581 467.259 632.056C431.532 631.718 490.888 649.49 458.743 674.765C483.14 645.847 306.562 679.121 297.854 642.853C292.994 622.629 291.865 642.128 237.464 654.059C206.843 663.916 164.971 665.263 164.971 665.263C193.061 634.427 97.9055 635.859 57.7917 587.83C34.8367 560.346 78.0905 577.097 74.0691 560.722C62.3843 513.142 39.941 460.313 56.4668 439.114C69.4146 422.506 120.212 424.725 111.216 414.097C83.7075 381.6 103.57 257.86 103.57 257.86C103.57 257.86 170.192 289.577 163.854 280.071C85.7592 162.938 141.157 100.3 142.893 63.1445C150.725 72.9364 133.098 138.209 163.376 143.567C207.365 151.349 164.65 144.153 190.098 110.423C195.811 102.851 285.459 84.0125 295.957 39.7266C291.182 40.637 263.14 111.098 301.041 112.076C317.818 112.51 316.752 152.698 350.208 115.118C385.296 75.6985 376.535 98.9663 457.965 56.5963Z" fill="#F2E83A"/>
<path fill-rule="evenodd" clip-rule="evenodd" d="M27.4183 541.211C19.9169 514.667 12.1629 488.558 10.8562 468.315C9.3971 445.733 14.7956 427.509 24.92 414.52C31.4067 406.201 41.2134 398.916 53.5057 393.858C55.5436 393.02 57.9236 392.177 60.4901 391.351C59.1291 384.278 58.1347 376.8 57.5463 369.036C53.6411 317.402 64.0767 251.52 64.0767 251.52C66.073 239.08 73.8153 228.307 84.9703 222.448C86.7417 221.517 88.5664 220.728 90.4284 220.081C74.119 165.404 83.8523 124.091 93.6932 92.3894C97.6037 79.7906 102.54 69.7798 102.937 61.2778C103.714 44.65 114.707 30.2419 130.539 25.1006C146.371 19.9593 163.732 25.1602 174.13 38.1591C178.165 43.2041 182.563 54.0807 184.3 68.6481C191.59 65.7529 201.279 62.187 211.852 57.9229C223.235 53.3342 236.078 47.6919 246.619 40.3193C248.783 38.7989 251.117 37.4689 253.036 35.9657C257.821 24.7612 262.895 16.2845 265.549 13.3779C273.862 4.2854 282.687 1.53702 288.454 0.436298C301.777 -2.10569 315.483 2.27428 324.852 12.0719C334.231 21.8706 338.004 35.7513 334.871 48.9474C333.059 56.6352 329.947 64.0227 325.769 71.0318L323.477 80.2493C324.404 80.8295 325.321 81.4257 326.227 82.0311C347.139 59.5476 357.051 55.0644 373.294 49.2822C384.784 45.1877 401.677 40.7928 439.504 21.1128C456.035 12.5099 476.307 16.4702 488.394 30.6329C489.151 30.5114 489.886 30.399 490.611 30.2981C510.457 27.4993 530.271 29.4886 546.706 38.1419C567.714 49.2042 578.031 72.2117 581.879 83.0045C598.772 90.7257 617.254 97.2131 633.828 90.5204C644.774 86.0969 653.045 75.0931 660.26 57.3702C667.806 38.8459 687.866 28.7387 707.243 33.7069C726.619 38.6751 739.346 57.1902 737.043 77.0583C729.263 144.176 702.233 184.235 675.747 212.114C687.151 224.053 690.114 241.914 682.909 256.989C682.909 256.989 678.326 266.774 675.886 278.897C675.086 282.872 674.479 287.148 674.617 291.356C674.67 292.659 673.818 294.156 674.724 295.116C685.094 306.13 691.212 316.379 694.612 325.616C707.274 320.772 721.962 322.56 733.27 331.239C748.767 343.131 753.415 364.484 744.248 381.741C703.107 459.185 718.338 453.602 683.965 498.352C684.22 500.735 684.7 504.742 685.329 509.036C689.667 507.325 694.357 506.353 699.249 506.261C718.69 505.896 735.572 519.56 739.271 538.646C739.271 538.646 748.725 598.671 715.652 633.517C710.952 638.477 705.452 643.147 698.993 647.181C698.812 648.395 698.567 649.609 698.279 650.821C693.834 669.058 677.314 681.755 658.555 681.353C658.555 681.353 596.971 680.019 559.208 680.982C538.616 681.508 529.269 677.258 506.63 674.432C503.689 684.625 497.049 695.532 483.47 706.208C467.344 718.89 444.236 717.313 429.976 702.558C429.922 702.5 429.869 702.443 429.816 702.384C417.708 702.014 399.802 701.557 385.701 701.581C353.789 701.633 320.866 700.003 300.945 693.466C292.632 690.739 285.65 687.136 279.884 682.912C270.846 686.353 259.847 689.978 247.877 692.719C212.79 703.549 166.256 705.242 166.256 705.242C150.191 705.758 135.378 696.608 128.647 682.013C127.149 678.761 126.115 675.381 125.534 671.959C116.872 668.523 105.977 664.166 97.2477 660.567C71.5418 649.97 45.2434 635.206 27.09 613.47C1.93945 583.357 11.4947 562.606 17.2193 552.988C19.8327 548.598 23.1997 544.612 27.4183 541.211ZM287.324 56.8852C261.989 89.0711 195.012 103.913 190.098 110.423C164.65 144.153 207.365 151.349 163.375 143.567C133.098 138.209 150.725 72.9363 142.893 63.1444C141.157 100.3 85.759 162.938 163.854 280.071C170.191 289.577 103.57 257.859 103.57 257.859C103.57 257.859 83.7073 381.6 111.216 414.097C120.212 424.725 69.4144 422.506 56.4666 439.114C39.9408 460.313 62.3841 513.142 74.0689 560.722C78.0903 577.096 34.8365 560.346 57.7915 587.83C97.9053 635.859 193.061 634.427 164.971 665.262C164.971 665.262 206.842 663.916 237.464 654.059C291.864 642.128 292.994 622.629 297.854 642.853C306.562 679.121 483.14 645.847 458.742 674.765C490.888 649.49 431.532 631.718 467.259 632.056C522.746 632.581 528.97 641.741 558.185 640.996C596.672 640.013 659.408 641.362 659.408 641.362C659.408 641.362 615.73 619.935 641.779 620.904C714.991 623.627 699.995 546.254 699.995 546.254C693.717 586.786 678.092 581.13 664.087 577.609C664.087 577.609 632.144 499.617 648.302 479.049C686.096 430.934 668.382 439.288 708.927 362.975C656.146 412.177 597.461 423.214 624.555 376.52C628.882 369.057 682.312 361.511 645.605 322.541C620.164 295.526 646.82 239.743 646.82 239.743C646.82 239.743 619.439 256.05 616.636 250.582C606.073 230.04 614.056 215.158 625.653 204.737C652.352 180.763 688.782 146.041 697.309 72.4536C666.059 149.202 606.468 139.034 559.23 116.574C536.826 105.917 551.865 86.0659 528.064 73.536C489.279 53.1118 415.544 112.356 457.964 56.5963C376.534 98.9662 385.296 75.6984 350.208 115.118C316.752 152.698 317.817 112.51 301.041 112.076C275.056 111.406 280.076 78.0696 287.324 56.8852ZM287.324 56.8852C291.459 51.6396 294.486 45.933 295.957 39.7265C294.454 40.0131 290.66 47.1713 287.324 56.8852Z" fill="#FF050B"/>
<path fill-rule="evenodd" clip-rule="evenodd" d="M396.997 211.198L397.214 224.051L515.21 218.428L523.869 273.009L397.61 273.637L398.377 298.199L610.113 284.571L633.916 334.467L126.647 360.453L162.724 307.604L341.335 298.34L340.352 275.84L196.685 284.448L206.93 233.338L339.48 226.802L339.26 213.838L158.983 222.082L138.396 168.56L249.005 163.422L210.695 118.752L266.431 98.6108L313.781 160.557L338.34 159.471L338.279 155.863L396.045 154.99L396.078 156.918L416.432 156.017L466.382 90.0156L523.851 105.546L484.542 153.005L622.135 146.921L605.779 201.652L396.997 211.198ZM231.491 500.011L107.991 506.764L76.2402 449.654L230.541 445.393L230.025 426.741L154.034 438.357L121.817 389.603L372.145 360.856L379.316 415.056L287.405 416.375L288.295 443.798L407.494 440.505C402.436 409.454 401.917 359.362 401.917 359.362L459.69 358.893C459.69 358.893 460.069 409.087 465.442 438.905L655.185 435.61L615.907 492.361L477.636 489.946C480.414 496.954 495.141 522.77 498.089 527.037C511.599 519.034 509.647 501.384 509.647 501.384L588.458 513.601C588.458 513.601 551.277 559 545.414 562.718C554.95 565.328 565.646 566.275 577.667 565.089C583.265 564.537 588.943 562.823 592.081 561.751L584.488 548.413L633.309 507.288C633.309 507.288 658.313 567.273 642.951 590.522C635.221 602.22 619.491 615.88 583.663 619.415C542.747 623.453 510.624 613.298 485.556 594.851C455.364 624.216 313.892 636.396 308.937 627.289L360.872 566.841C365.443 576.608 425.612 575.398 446.73 552.5C443.808 547.954 425.005 509.606 420.276 494.797L289.245 498.416L286.877 515.244L347.289 500.863L339.142 556.467L290.348 561.866L291.033 601.268C291.275 615.178 280.419 627.037 265.824 628.806L201.984 636.409L147.086 593.767L232.842 577.735L232.672 567.983L98.7676 587.546L113.009 529.607L231.949 518.036L231.491 500.011ZM520.214 404.822L492.236 398.027L506.612 345.123L534.59 351.919C549.603 355.565 557.853 358.549 575.962 369.925L600.022 385.039L568.05 430.533L543.99 415.419C533.538 408.855 528.878 406.927 520.214 404.822Z" fill="black"/>
</g>
<defs>
<clipPath id="clip0_918_1172">
<rect width="2160" height="2700" fill="white"/>
</clipPath>
</defs>
</svg>
