<svg width="2160" height="2700" viewBox="0 0 2160 2700" fill="none" xmlns="http://www.w3.org/2000/svg">
<g clip-path="url(#clip0_917_381)">
<path fill-rule="evenodd" clip-rule="evenodd" d="M2196.27 -20.832V2702.83H-18.2676V-20.832H2196.27ZM2101.2 74.2317H76.7964V2607.77H2101.2V74.2317Z" fill="#D1D1D1"/>
<path fill-rule="evenodd" clip-rule="evenodd" d="M457.96 56.5977C426.336 106.267 407.599 107.603 446.395 127.863C470.185 140.294 543.173 115.948 565.587 126.52C596.731 141.211 636.721 104.478 631.061 64.5665C628.621 47.372 667.033 42.2695 667.033 42.2695C667.033 42.2695 609.99 50.1178 609.724 64.082C609.319 85.8012 636.892 103.959 701.023 63.7169C653.082 135.08 544.953 110.613 616.63 249.033C619.433 254.458 646.815 238.281 646.815 238.281C646.815 238.281 565.566 333.96 591.008 360.758C627.715 399.417 657.579 324.037 657.579 324.037C657.579 324.037 638.416 366.169 645.067 371.617C700.874 417.312 661.715 354.937 714.495 306.129C649.181 402.541 752.758 402.603 686.314 481.946C669.602 501.903 668.909 555.519 668.909 555.519L701.993 526.357C701.993 526.357 714.985 619.098 641.773 616.396C615.724 615.435 659.402 636.69 659.402 636.69C659.402 636.69 554.14 652.284 515.664 653.258C486.439 653.998 484.03 643.056 428.543 642.535C392.826 642.199 472.988 655.179 440.842 680.253C465.239 651.566 358.667 690.815 349.959 654.836C345.098 634.774 308.263 644.707 253.874 656.543C223.242 666.323 173.877 653.723 173.877 653.723C173.877 653.723 244.132 626.745 227.718 621.546C152.214 597.623 176.935 568.294 174.936 540.95C173.688 523.871 80.6951 583.477 74.0656 556.695C44.4728 437.152 119.775 403.705 98.5851 376.773C72.388 343.479 61.0859 271.801 61.0859 271.801C61.0859 271.801 109.507 311.727 103.613 301.841C81.8665 265.364 119.549 111.876 100.105 66.0327C107.936 75.7452 122.643 116.428 134.756 115.645C179.329 112.767 208.427 156.963 233.879 123.502C239.592 115.991 207.766 104.892 218.254 60.9609C213.489 61.8629 257.146 118.626 295.047 119.596C311.823 120.026 294.535 133.172 327.981 95.8936C363.068 56.7888 376.53 98.6291 457.96 56.5977Z" fill="#F2E83A"/>
<path fill-rule="evenodd" clip-rule="evenodd" d="M46.44 222.329C46.6521 219.045 46.8867 215.724 47.1414 212.374C49.6354 179.525 53.8188 143.273 54.2601 113.764C54.4317 102.278 55.2502 92.4015 52.6102 86.1752C42.5604 62.4826 51.5103 35.0057 73.5868 21.7774C95.6635 8.54802 124.113 13.613 140.267 33.6476C144.061 38.3521 153.598 55.4851 159.687 66.6706C161.56 67.0471 163.43 67.4531 165.29 67.8854C165.462 64.9019 165.761 61.8638 166.205 58.7757C166.634 50.3656 169.141 43.8572 171.088 39.6248C178.334 23.8771 190.585 13.6903 208.662 10.2678C225.843 7.01476 243.515 12.6928 255.591 25.3512C260.131 30.1125 263.648 35.6165 266.057 41.5368C269.606 45.7169 276.747 53.7892 282.983 58.8985C284.421 60.0849 286.404 61.4248 288.44 62.7112C288.823 62.2892 289.196 61.8638 289.58 61.4361C310.726 37.8812 328.931 30.5459 347.103 27.3099C354.329 26.0246 361.716 25.6049 369.709 25.6572C383.341 25.7459 401.066 27.9048 434.299 10.7535C455.019 0.0593958 480.332 4.58864 496.053 21.8025C509.6 36.6266 513.128 57.6849 505.848 75.8064C508.907 75.4731 511.796 75.1399 514.375 74.8157C530.501 72.7899 545.806 72.3702 558.841 73.4281C558.319 69.8224 558.085 66.3544 558.149 63.115C558.458 46.2242 566.27 26.4796 588.557 12.6314C609.234 -0.218135 660 -8.84097 660 -8.84097V-8.83187C660.16 -8.85917 660.234 -8.87283 660.234 -8.87283C680.037 -11.5037 698.711 -2.53053 709.401 12.8077C720.027 14.5536 730.131 19.6209 738.072 27.8092C755.019 45.3006 757.427 72.2667 743.849 92.4868C724.792 120.847 699.297 138.63 674.474 153.394C666.693 158.027 659.083 162.292 652.294 166.921C649.245 168.992 645.728 170.183 644.343 173.314C642.882 176.633 644.758 180.71 646.293 186.503C646.314 186.565 646.325 186.626 646.346 186.689C661.289 186.56 676.062 192.924 686.262 205.033C699.116 220.29 701.759 241.134 694.202 258.684C711.842 251.144 732.839 253.862 748.123 267.001C768.001 284.087 771.912 313.363 757.204 335.064C748.656 347.688 743.955 356.648 743.454 364.541C743.081 370.473 745.97 374.78 747.824 379.122C750.329 384.98 752.802 390.717 754.837 396.562C763.908 422.563 769.642 451.387 741.909 493.667C747.803 500.863 751.747 509.648 753.079 519.196C753.079 519.196 757.758 552.488 749.284 585.293C743.167 608.973 730.6 631.659 709.881 647.374C705.447 668.368 688.393 684.55 666.97 687.723C666.97 687.723 557.115 703.815 516.976 704.831C506.019 705.109 497.471 704.318 489.626 702.965C485.661 708.906 480.183 714.994 472.573 720.931C454.017 735.404 428.405 735.305 410.072 721.67C391.666 722.311 366.427 722.343 352.859 718.691C337.17 714.467 324.667 707.181 315.533 697.198C302.924 699.413 283.377 702.969 266.643 706.562C225.001 718.244 161.119 703.711 161.119 703.711C139.354 698.156 123.685 679.156 122.375 656.732C121.578 643.093 126.204 630.093 134.67 620.19C133.87 618.953 133.124 617.731 132.427 616.524C130.596 613.355 129.02 610.178 127.675 606.994C125.09 607.863 122.654 608.653 120.447 609.325C103.69 614.433 88.4083 616.079 77.4355 614.856C48.1017 611.585 30.5336 595.536 23.9872 569.091C2.94981 484.108 24.2111 433.456 41.7952 399.281C43.1797 396.588 44.7827 393.497 46.2908 390.596C21.9429 346.285 10.1261 279.835 10.1261 279.835C6.78681 258.66 16.8899 237.627 35.5057 226.998C39.0112 224.996 42.6819 223.441 46.44 222.329ZM666.714 42.3137C666.928 42.2841 667.034 42.2682 667.034 42.2682C667.034 42.2682 666.928 42.283 666.714 42.3137ZM629.655 86.8736C631.553 79.7829 632.149 72.2326 631.062 64.5652C628.749 48.2875 663.059 42.8472 666.714 42.3137C662.174 42.9643 609.98 50.725 609.724 64.0807C609.533 74.5632 615.853 84.2154 629.655 86.8736ZM217.988 62.1061C218.073 61.7262 218.159 61.344 218.255 60.9596C217.892 61.0278 217.807 61.4271 217.988 62.1061ZM655.47 328.842C648.073 344.825 621.981 393.369 591.008 360.757C565.567 333.958 646.815 238.28 646.815 238.28C646.815 238.28 619.434 254.457 616.631 249.032C544.954 110.612 653.082 135.079 701.024 63.7156C667.844 84.535 644.449 89.7228 629.655 86.8736C621.683 116.692 590.742 138.387 565.588 126.519C543.174 115.946 470.185 140.293 446.396 127.862C407.6 107.602 426.337 106.266 457.96 56.5964C376.531 98.6278 363.069 56.7875 327.982 95.8922C294.536 133.17 311.824 120.025 295.048 119.595C260.056 118.699 220.162 70.2546 217.988 62.1061C208.321 105.085 239.55 116.055 233.88 123.501C208.428 156.962 179.33 112.766 134.757 115.644C122.644 116.426 107.936 75.7439 100.106 66.0313C119.55 111.874 81.8673 265.362 103.613 301.84C109.508 311.726 61.0867 271.8 61.0867 271.8C61.0867 271.8 72.3888 343.477 98.5859 376.772C119.776 403.704 44.4736 437.15 74.0664 556.694C80.6959 583.476 173.689 523.87 174.937 540.948C176.935 568.292 152.214 597.622 227.719 621.544C244.133 626.744 173.877 653.722 173.877 653.722C173.877 653.722 223.243 666.321 253.875 656.542C308.264 644.706 345.099 634.773 349.959 654.835C358.667 690.814 465.24 651.565 440.843 680.252C472.989 655.178 392.827 642.198 428.543 642.533C484.031 643.054 486.439 653.996 515.665 653.257C554.141 652.282 659.403 636.689 659.403 636.689C659.403 636.689 615.725 615.434 641.774 616.395C714.986 619.097 701.993 526.355 701.993 526.355L668.91 555.518C668.91 555.518 669.603 501.902 686.315 481.944C752.759 402.602 649.181 402.539 714.496 306.128C661.716 354.936 700.874 417.311 645.067 371.616C639.802 367.308 650.695 340.053 655.47 328.842ZM655.47 328.842C656.845 325.879 657.58 324.035 657.58 324.035C657.58 324.035 656.738 325.878 655.47 328.842Z" fill="#FF050B"/>
<path fill-rule="evenodd" clip-rule="evenodd" d="M140.576 341.159L122.635 152.17L325.441 152.415L323.708 112.083L383.268 82.5195L376.742 149.489L511.421 149.365L571.466 135.597L561.947 293.213C561.588 309.953 548.212 323.381 531.729 323.546L377.506 325.091L385.141 421.237L330.575 381.357L328.637 325.581L195.679 326.913L140.576 341.159ZM326.482 202.213L191.031 205.278C191.757 223.924 205.638 266.436 206.506 282.443L328.202 277.826L326.482 202.213ZM511.286 199.684L379.971 202.565L375.834 278.129L496.431 274.855L511.286 199.684ZM88.2734 443.392C115.679 428.406 132.259 428.433 135.768 372.838L181.309 345.117C180.932 358.386 183.24 389.185 176.059 416.991C162.427 469.768 129.532 515.971 88.4445 539.449L88.2734 443.392ZM192.709 528.681C177.127 479.099 215.394 346.653 215.394 346.653L275.921 421.437C275.921 421.437 240.885 468.843 252.73 506.538C258.301 524.264 273.604 565.935 294.366 568.479C331.12 572.983 517.607 582.523 536.026 552.615C547.246 534.396 464.555 505.249 464.555 505.249L435.123 393.041C435.123 393.041 594.808 496.565 613.834 527.069C619.46 536.089 612.011 575.768 606.988 586.08C601.964 596.391 595.348 620.439 584.025 620.733C584.025 620.733 342.214 634.98 285.341 628.011C237.92 622.2 205.432 569.166 192.709 528.681ZM304.589 459.628L287.712 433.791L332.752 406.45L349.758 432.864C363.483 453.875 438.088 502.353 438.088 502.353L385.859 533.211C358.035 514.365 322.198 486.585 304.589 459.628ZM499.631 410.059L458.515 347.278L521.657 344.432L543.093 366.507C563.031 387.039 585.92 402.906 615.497 408.038L645.586 413.258L635.307 474.389L605.218 469.168C562.335 461.728 528.539 439.827 499.631 410.059Z" fill="black"/>
</g>
<defs>
<clipPath id="clip0_917_381">
<rect width="2160" height="2700" fill="white"/>
</clipPath>
</defs>
</svg>
