<svg width="2160" height="2700" viewBox="0 0 2160 2700" fill="none" xmlns="http://www.w3.org/2000/svg">
<g clip-path="url(#clip0_876_3)">
<path fill-rule="evenodd" clip-rule="evenodd" d="M1566.35 1658.35L1505.66 1629.9L1527.5 1514.03L1588.19 1542.49C1588.19 1542.49 1675.19 1583.3 1761.51 1606.9C1807.43 1619.46 1854.13 1630.95 1878.82 1617.59C1963.21 1571.95 1956.39 1474.21 1956.39 1474.21L1950.92 1410.82L2073.76 1435.17L2079.23 1498.56C2079.23 1498.56 2094.91 1661.48 1957.22 1735.96C1924.67 1753.56 1872.34 1754.82 1813.69 1743.42C1701.96 1721.7 1566.35 1658.35 1566.35 1658.35Z" fill="#777777" stroke="white" stroke-width="12.4976" stroke-miterlimit="2" stroke-linejoin="round"/>
<path d="M1587.43 1672.4C1574.15 1627.28 1587.95 1591.29 1617.73 1560.69" stroke="white" stroke-width="8.66856" stroke-miterlimit="1.5" stroke-linecap="square" stroke-linejoin="round"/>
<path d="M1686.74 1712.35C1664 1668.92 1667.87 1627.91 1687.45 1588.33" stroke="white" stroke-width="8.73501" stroke-miterlimit="1.5" stroke-linecap="square" stroke-linejoin="round"/>
<path d="M1785.45 1736.35C1757.48 1695.26 1755.04 1652.32 1767.67 1608.3" stroke="white" stroke-width="8.78659" stroke-miterlimit="1.5" stroke-linecap="square" stroke-linejoin="round"/>
<path d="M1900.42 1757.5C1862.29 1726.24 1844.49 1682.8 1838.7 1632.15" stroke="white" stroke-width="8.83046" stroke-miterlimit="1.5" stroke-linecap="square" stroke-linejoin="round"/>
<path d="M1994.93 1706.19C1951.8 1694.07 1918.1 1659.09 1889.96 1610.6" stroke="white" stroke-width="8.68684" stroke-miterlimit="1.5" stroke-linecap="square" stroke-linejoin="round"/>
<path d="M2045.53 1657.42C2003.51 1655.1 1965.13 1626.79 1928.9 1583.14" stroke="white" stroke-width="8.66046" stroke-miterlimit="1.5" stroke-linecap="square" stroke-linejoin="round"/>
<path d="M2069.77 1601.75C2029.69 1606.24 1989.17 1583.32 1948.39 1544.21" stroke="white" stroke-width="8.68113" stroke-miterlimit="1.5" stroke-linecap="square" stroke-linejoin="round"/>
<path fill-rule="evenodd" clip-rule="evenodd" d="M49.8997 1507.86C52.4023 1519.19 58.4909 1544.13 66.9914 1561.33C102.029 1632.22 166.499 1708.59 166.499 1708.59L202.594 1751.48L106.52 1815.94L70.4247 1773.05C70.4247 1773.05 -30.4651 1651.9 -61.1694 1561.49C-82.7255 1498.01 -68.1112 1446.08 -24.7316 1420.36C11.6828 1398.77 74.4523 1395.81 144.853 1411.77C268.958 1439.9 423.51 1517.56 423.51 1517.56L475.816 1543.97L416.671 1637.38L364.365 1610.97C364.365 1610.97 226.334 1540.94 115.29 1515.78C95.1942 1511.22 76.1948 1508.13 59.5755 1507.99C56.1409 1507.96 52.8656 1507.76 49.8997 1507.86Z" fill="#777777" stroke="white" stroke-width="13.9562" stroke-miterlimit="2" stroke-linejoin="round"/>
<path d="M293.789 1578.13C327.465 1555.68 338.863 1520.55 337.106 1477.93" stroke="white" stroke-width="7.94901" stroke-miterlimit="1.5" stroke-linecap="square" stroke-linejoin="round"/>
<path d="M216.391 1550.5C250.066 1528.05 261.465 1492.92 259.707 1450.3" stroke="white" stroke-width="7.94901" stroke-miterlimit="1.5" stroke-linecap="square" stroke-linejoin="round"/>
<path d="M132.363 1523.33C166.039 1500.87 177.437 1465.74 175.68 1423.12" stroke="white" stroke-width="7.94901" stroke-miterlimit="1.5" stroke-linecap="square" stroke-linejoin="round"/>
<path d="M70.054 1506.33C100.916 1480.86 108.138 1444.85 101.399 1402.64" stroke="white" stroke-width="7.95012" stroke-miterlimit="1.5" stroke-linecap="square" stroke-linejoin="round"/>
<path d="M487.765 1326.68L-312.943 1635.85L-281.951 1716.12L518.757 1406.95L487.765 1326.68Z" fill="#8D8D8D" stroke="white" stroke-width="5.89541" stroke-miterlimit="1.5" stroke-linecap="square" stroke-linejoin="round"/>
<path d="M467.085 1573.46L-251.857 1602.41L-243.455 1811.12L475.488 1782.18L467.085 1573.46Z" fill="#8D8D8D" stroke="white" stroke-width="8.41033" stroke-miterlimit="1.5" stroke-linecap="square" stroke-linejoin="round"/>
<path fill-rule="evenodd" clip-rule="evenodd" d="M-107.226 1354.18L-107.33 1543.97L37.5215 1615.53L23.8495 1823.33L213.309 1821.22C213.309 1821.22 393.264 1685.73 322.209 1651.69C86.4222 1538.71 144.815 1374.17 144.815 1374.17L-107.226 1354.18Z" fill="#BABABA" stroke="white" stroke-width="10.9784" stroke-miterlimit="1.5" stroke-linecap="square" stroke-linejoin="round"/>
<path d="M139.551 1763.5C112.658 1761.84 92.1139 1740.15 93.6634 1715.05C95.2129 1689.95 118.27 1670.95 145.162 1672.61C172.055 1674.27 192.599 1695.96 191.05 1721.06C189.5 1746.16 166.444 1765.16 139.551 1763.5Z" fill="white" stroke="black" stroke-width="11.8319" stroke-miterlimit="1.5" stroke-linecap="square" stroke-linejoin="round"/>
<path fill-rule="evenodd" clip-rule="evenodd" d="M52.9775 1369.99C52.9775 1369.99 36.3435 1497.91 50.3095 1539.22C60.5365 1569.46 110.295 1655.33 110.844 1687.25C111.713 1737.89 79.4965 1732.84 49.9355 1756.06C34.8845 1767.88 43.4035 1595.71 0.637539 1770.65C-5.72946 1796.7 22.8015 1824.87 22.8015 1824.87L214.76 1816.24L262.405 1783.01L417.606 1807.12L505.896 1606.93L323.161 1375.43L141.994 1464.48L145.326 1379.53L52.9775 1369.99Z" fill="black" fill-opacity="0.3"/>
<path fill-rule="evenodd" clip-rule="evenodd" d="M2311.43 1083.01L1650.23 1415.44L1707.24 1645.58L2453.75 1356.84L2311.43 1083.01Z" fill="#8D8D8D" stroke="white" stroke-width="10.4867" stroke-miterlimit="1.5" stroke-linecap="square" stroke-linejoin="round"/>
<path d="M2296.52 1280.65L1643.19 1837.32L1689.84 1892.07L2343.17 1335.41L2296.52 1280.65Z" fill="#8D8D8D" stroke="white" stroke-width="5.39033" stroke-miterlimit="1.5" stroke-linecap="square" stroke-linejoin="round"/>
<path fill-rule="evenodd" clip-rule="evenodd" d="M2197.21 1133.77L2249.41 1316.24L2140.23 1421.78L2209.44 1618.13L2040.36 1664.14C2040.36 1664.14 1843.11 1579.5 1896.96 1528.75C2075.64 1360.32 1978.54 1216.91 1978.54 1216.91L2197.21 1133.77Z" fill="#BABABA" stroke="white" stroke-width="10.5576" stroke-miterlimit="1.5" stroke-linecap="square" stroke-linejoin="round"/>
<path d="M2098.91 1592.54C2123.6 1581.76 2136.16 1555.92 2126.95 1534.82C2117.74 1513.71 2090.25 1505.34 2065.56 1516.11C2040.86 1526.89 2028.31 1552.73 2037.52 1573.84C2046.73 1594.94 2074.21 1603.32 2098.91 1592.54Z" fill="white" stroke="black" stroke-width="11.3224" stroke-miterlimit="1.5" stroke-linecap="square" stroke-linejoin="round"/>
<path fill-rule="evenodd" clip-rule="evenodd" d="M2096.59 1298.12C2144.79 1301.62 2272.13 1201.8 2275.58 1239.48C2278.01 1266.01 2258.82 1594.02 2258.82 1594.02L2047 1664.51L2008.32 1649.94C1979.47 1686.83 1931.91 1754.84 1832.21 1759.14L1656.28 1666.55L1700.21 1606.03C1775.99 1663.19 1860.59 1667.74 1921.89 1613.4L1883.93 1584.39L1734.93 1627.54L1950.27 1261.49L1991.4 1249.59L1986.37 1218.45C1986.37 1218.45 2051.38 1294.83 2096.59 1298.12Z" fill="black" fill-opacity="0.3"/>
</g>
<defs>
<clipPath id="clip0_876_3">
<rect width="2160" height="2700" fill="white"/>
</clipPath>
</defs>
</svg>
