<svg width="2160" height="2700" viewBox="0 0 2160 2700" fill="none" xmlns="http://www.w3.org/2000/svg">
<g clip-path="url(#clip0_2007_27715)">
<path fill-rule="evenodd" clip-rule="evenodd" d="M262.627 792.928C254.38 762.466 228.419 739.307 199.33 719.214C158.438 690.953 110.093 669.494 73.8745 651.321C45.8186 637.25 23.9229 624.076 12.8604 612.252C0.348014 598.882 -4.51216 585.08 -3.91432 572.165C-3.15495 555.778 7.13349 531.143 49.2338 514.253C227.389 442.781 444.113 524.012 600.328 522.421C644.795 521.974 683.869 514.55 713.893 490.507C724.357 482.127 716.397 473.014 708.476 464.95C689.015 445.145 658.652 430.041 658.652 430.041C648.845 425.414 644.641 413.693 649.267 403.885C653.894 394.078 665.609 389.877 675.42 394.496C675.42 394.496 743.264 427.173 759.035 463.493C767.714 483.477 765.859 504.733 742.648 524.936C706.072 556.778 657.859 569.961 601.87 572.834C458.073 580.198 257.136 510.818 93.2967 574.636C97.9393 577.025 102.713 579.371 107.183 581.386C154.041 602.537 218.575 628.52 268.322 665.21C313.462 698.503 345.869 741.089 353.762 793.199C355.332 803.564 348.59 830.063 324.435 863.282C281.602 922.187 179.769 1041.33 133.91 1178.91C108.643 1254.71 101.483 1336.64 138.498 1415.65C238.892 1629.97 247.632 1844.95 218.418 2032.62C166.372 2366.96 -10.1523 2613.48 -10.1523 2613.48C-37.6679 2650.65 -90.1883 2658.49 -127.36 2630.98C-164.53 2603.46 -172.367 2550.94 -144.852 2513.77C-144.852 2513.77 19.1425 2301.59 77.3308 2007.67C109.691 1844.2 110.057 1655.4 29.7501 1463.9C-15.9868 1354.82 -5.54204 1244.18 32.8949 1142.92C80.1043 1018.53 168.379 909.192 225.071 840.519C240.012 822.422 255.554 802.213 262.627 792.928Z" fill="#3C3C3C" stroke="#51E9F4" stroke-width="8" stroke-miterlimit="2" stroke-linejoin="round"/>
<path fill-rule="evenodd" clip-rule="evenodd" d="M1734.03 1976.33C1738.88 1974.38 1743.78 1972.31 1748.22 1970.25C1794.88 1948.65 1856.76 1916.86 1917.05 1903.25C1971.77 1890.9 2025.18 1894.26 2069.74 1922.39C2078.61 1927.98 2094.24 1950.42 2103.55 1990.42C2120.07 2061.36 2143.53 2216.33 2217.55 2341.03C2258.34 2409.73 2315.61 2468.77 2399.57 2492.47C2627.33 2556.8 2795.62 2690.86 2918.41 2835.75C3137.18 3093.89 3208.09 3388.69 3208.09 3388.69C3218.19 3433.82 3189.76 3478.67 3144.62 3488.77C3099.5 3498.87 3054.65 3470.43 3044.55 3425.3C3044.55 3425.3 2991.41 3162.45 2807.23 2926.12C2704.79 2794.68 2562.26 2670.86 2364.9 2606.28C2252.49 2569.49 2175.66 2489.19 2124.24 2393.86C2061.07 2276.77 2036.15 2138.47 2021.32 2050.67C2017.41 2027.53 2012.3 2002.55 2009.91 1991.13C1981.47 1977.43 1946.97 1981.91 1912.75 1990.76C1864.62 2003.19 1816.76 2025.7 1779.31 2041.2C1750.31 2053.21 1726.02 2061.14 1709.84 2061.77C1691.55 2062.48 1677.93 2057.13 1668.55 2048.22C1656.66 2036.93 1644.76 2013.03 1659.54 1970.14C1722.07 1788.65 1925.31 1677.92 2026.33 1558.75C2055.09 1524.84 2075.04 1490.43 2076.51 1451.99C2077.02 1438.6 2064.92 1438.65 2053.64 1439.37C2025.93 1441.12 1994.64 1454.2 1994.64 1454.2C1984.72 1458.59 1973.11 1454.1 1968.72 1444.18C1964.33 1434.27 1968.82 1422.66 1978.73 1418.26C1978.73 1418.26 2047.83 1388.34 2085.62 1400.18C2106.41 1406.7 2121.27 1422.01 2121.36 1452.78C2121.5 1501.27 2099.92 1546.36 2065.46 1590.58C1976.93 1704.13 1792.99 1810.68 1734.03 1976.33Z" fill="#3C3C3C" stroke="#51E9F4" stroke-width="8" stroke-miterlimit="2" stroke-linejoin="round"/>
<path fill-rule="evenodd" clip-rule="evenodd" d="M1859.67 88.3499C1853.73 87.6879 1844.36 86.912 1836.94 87.5848C1807.22 90.2774 1774.28 99.712 1774.28 99.712C1763.92 102.932 1752.9 97.1519 1749.67 86.8001C1746.45 76.448 1752.24 65.4242 1762.59 62.1944C1762.59 62.1944 1832.89 39.6901 1869.18 44.9981C1886.33 47.5069 1897.77 56.1009 1903.31 67.3415C1907.83 76.5204 1908.97 89.4472 1901.19 106.823C1888.93 134.225 1857.19 152.708 1813.61 167.699C1759.93 186.154 1686.33 201.373 1623.18 241.319C1577.77 270.049 1538.49 312.695 1518.13 380.974C1515.9 388.484 1514.9 398.319 1514.56 402.509C1517.25 403.019 1522.13 403.884 1525.75 404.114C1535.89 404.77 1547.67 404.062 1560.65 403.127C1632.1 397.948 1731.44 386.225 1811.18 436.439C1818.93 441.312 1826.4 449.727 1830.69 463.503C1833.68 473.12 1834.19 493.626 1831.08 522.211C1822.23 603.469 1787.33 781.733 1836.07 915.161C1862.45 987.372 1918.21 1042.51 2024.89 1051.93C2258.65 1072.59 2448.85 1169.2 2597.37 1284.2C2865.04 1491.46 2994.49 1761.45 2994.49 1761.45C3013.79 1803.47 2995.34 1853.26 2953.31 1872.56C2911.29 1891.87 2861.5 1873.41 2842.19 1831.38C2842.19 1831.38 2736.91 1588.32 2507.96 1394.66C2381.39 1287.59 2217.45 1194.98 2012.12 1167.86C1852.37 1146.77 1773.35 1058.74 1738.39 948.48C1697.59 819.82 1721.63 657.996 1739.11 556.32C1742.99 533.798 1746.4 509.599 1748.29 495.523C1698.07 469.643 1638.83 473.093 1590.6 475.076C1546.91 476.86 1509.91 477.191 1487.4 467.675C1454.31 453.696 1431.66 425.643 1454.21 360.41C1483.37 276.091 1534.65 224.747 1593.01 191.267C1662 151.685 1740.64 137.899 1798.58 120.727C1827.06 112.293 1850.47 105.277 1859.67 88.3499Z" fill="#3C3C3C" stroke="#51E9F4" stroke-width="8" stroke-miterlimit="2" stroke-linejoin="round"/>
<path d="M1741.66 731.049C1751.81 739.343 1766.93 737.637 1775.43 727.239C1783.92 716.84 1782.58 701.688 1772.43 693.394C1762.28 685.1 1747.17 686.806 1738.67 697.205C1730.17 707.603 1731.51 722.756 1741.66 731.049Z" fill="#FAF6B0" fill-opacity="0.8" stroke="#FF7418" stroke-opacity="0.8" stroke-width="6.12358" stroke-miterlimit="1.5" stroke-linecap="round" stroke-linejoin="round"/>
<path d="M1858.67 1072.52C1868.82 1080.81 1883.94 1079.11 1892.44 1068.71C1900.93 1058.31 1899.59 1043.16 1889.44 1034.86C1879.29 1026.57 1864.18 1028.28 1855.68 1038.68C1847.18 1049.07 1848.52 1064.23 1858.67 1072.52Z" fill="#FAF6B0" fill-opacity="0.8" stroke="#FF7418" stroke-opacity="0.8" stroke-width="6.12358" stroke-miterlimit="1.5" stroke-linecap="round" stroke-linejoin="round"/>
<path d="M2080.36 1507.02C2087.01 1512.46 2097.5 1510.63 2103.78 1502.94C2110.07 1495.25 2109.77 1484.6 2103.12 1479.17C2096.47 1473.73 2085.98 1475.56 2079.69 1483.25C2073.41 1490.95 2073.71 1501.59 2080.36 1507.02Z" fill="#FAF6B0" fill-opacity="0.8" stroke="#FF7418" stroke-opacity="0.8" stroke-width="4.26406" stroke-miterlimit="1.5" stroke-linecap="round" stroke-linejoin="round"/>
<path d="M1880.57 1722.19C1887.22 1727.62 1897.71 1725.79 1903.99 1718.1C1910.28 1710.41 1909.98 1699.76 1903.33 1694.33C1896.68 1688.89 1886.19 1690.72 1879.9 1698.42C1873.62 1706.11 1873.91 1716.75 1880.57 1722.19Z" fill="#FAF6B0" fill-opacity="0.8" stroke="#FF7418" stroke-opacity="0.8" stroke-width="4.26406" stroke-miterlimit="1.5" stroke-linecap="round" stroke-linejoin="round"/>
<path d="M1674.74 1992.89C1683.69 2000.2 1698.66 1996.69 1708.17 1985.05C1717.68 1973.41 1718.14 1958.04 1709.19 1950.73C1700.24 1943.42 1685.27 1946.93 1675.76 1958.57C1666.25 1970.21 1665.79 1985.57 1674.74 1992.89Z" fill="#FAF6B0" fill-opacity="0.8" stroke="#FF7418" stroke-opacity="0.8" stroke-width="6.08419" stroke-miterlimit="1.5" stroke-linecap="round" stroke-linejoin="round"/>
<path d="M2030.89 2013.18C2039.84 2020.49 2054.81 2016.98 2064.32 2005.34C2073.83 1993.7 2074.29 1978.33 2065.34 1971.02C2056.39 1963.71 2041.42 1967.21 2031.91 1978.86C2022.4 1990.5 2021.94 2005.86 2030.89 2013.18Z" fill="#FAF6B0" fill-opacity="0.8" stroke="#FF7418" stroke-opacity="0.8" stroke-width="6.08419" stroke-miterlimit="1.5" stroke-linecap="round" stroke-linejoin="round"/>
<path d="M14.1788 2296.48C26.7146 2306.73 47.9639 2301.46 61.6405 2284.72C75.3171 2267.99 76.2418 2246.11 63.706 2235.87C51.1701 2225.63 29.9208 2230.89 16.2442 2247.63C2.56765 2264.37 1.64291 2286.24 14.1788 2296.48Z" fill="#FAF6B0" fill-opacity="0.8" stroke="#FF7418" stroke-opacity="0.8" stroke-width="8.63411" stroke-miterlimit="1.5" stroke-linecap="round" stroke-linejoin="round"/>
<path d="M23.5892 1346.04C35.2391 1347.47 46.5224 1333.67 48.7911 1315.2C51.0598 1296.74 43.4549 1280.61 31.805 1279.18C20.1551 1277.75 8.87177 1291.56 6.60304 1310.02C4.33432 1328.48 11.9393 1344.61 23.5892 1346.04Z" fill="#FAF6B0" fill-opacity="0.8" stroke="#FF7418" stroke-opacity="0.8" stroke-width="6.82034" stroke-miterlimit="1.5" stroke-linecap="round" stroke-linejoin="round"/>
<path d="M306.361 820.183C323.747 822.319 339.39 811.444 341.301 795.891C343.212 780.338 330.667 765.999 313.281 763.862C295.895 761.726 280.252 772.602 278.34 788.154C276.429 803.707 288.974 818.047 306.361 820.183Z" fill="#FAF6B0" fill-opacity="0.8" stroke="#FF7418" stroke-opacity="0.8" stroke-width="7.64706" stroke-miterlimit="1.5" stroke-linecap="round" stroke-linejoin="round"/>
<path d="M46.2686 583.379C62.8395 585.415 77.5175 576.937 79.0528 564.442C80.5882 551.948 68.3994 540.168 51.8285 538.132C35.2576 536.096 20.5796 544.574 19.0443 557.069C17.509 569.563 29.6977 581.343 46.2686 583.379Z" fill="#FAF6B0" fill-opacity="0.8" stroke="#FF7418" stroke-opacity="0.8" stroke-width="6.69153" stroke-miterlimit="1.5" stroke-linecap="round" stroke-linejoin="round"/>
<path d="M472.226 540.247C488.186 542.208 502.073 536.079 503.243 526.557C504.413 517.036 492.423 507.727 476.463 505.766C460.503 503.805 446.616 509.934 445.446 519.455C444.276 528.977 456.266 538.286 472.226 540.247Z" fill="#FAF6B0" fill-opacity="0.8" stroke="#FF7418" stroke-opacity="0.8" stroke-width="5.73282" stroke-miterlimit="1.5" stroke-linecap="round" stroke-linejoin="round"/>
<path d="M724.632 467.335C733.834 476.144 745.93 478.443 751.648 472.47C757.367 466.496 754.543 454.512 745.341 445.703C736.139 436.893 724.044 434.594 718.325 440.568C712.606 446.542 715.43 458.526 724.632 467.335Z" fill="#FAF6B0" fill-opacity="0.8" stroke="#FF7418" stroke-opacity="0.8" stroke-width="4.7375" stroke-miterlimit="1.5" stroke-linecap="round" stroke-linejoin="round"/>
<path d="M1770.72 503.702C1779.15 510.594 1792.62 508.066 1800.8 498.054C1808.98 488.043 1808.78 474.34 1800.34 467.448C1791.91 460.556 1778.44 463.084 1770.26 473.096C1762.08 483.107 1762.28 496.81 1770.72 503.702Z" fill="#FAF6B0" fill-opacity="0.8" stroke="#FF7418" stroke-opacity="0.8" stroke-width="5.4774" stroke-miterlimit="1.5" stroke-linecap="round" stroke-linejoin="round"/>
<path d="M1501.27 453.654C1507.61 462.512 1521.27 463.594 1531.78 456.07C1542.3 448.546 1545.68 435.266 1539.34 426.408C1533 417.55 1519.34 416.468 1508.83 423.992C1498.31 431.516 1494.93 444.796 1501.27 453.654Z" fill="#FAF6B0" fill-opacity="0.8" stroke="#FF7418" stroke-opacity="0.8" stroke-width="5.4774" stroke-miterlimit="1.5" stroke-linecap="round" stroke-linejoin="round"/>
<path d="M1542.11 249.437C1546.25 259.515 1559.29 263.708 1571.25 258.802C1583.22 253.896 1589.56 241.749 1585.43 231.672C1581.3 221.594 1568.25 217.401 1556.29 222.306C1544.33 227.212 1537.98 239.359 1542.11 249.437Z" fill="#FAF6B0" fill-opacity="0.8" stroke="#FF7418" stroke-opacity="0.8" stroke-width="5.4774" stroke-miterlimit="1.5" stroke-linecap="round" stroke-linejoin="round"/>
<path d="M1816.97 136.323C1820.37 144.615 1830.51 148.308 1839.63 144.57C1848.74 140.833 1853.37 131.081 1849.97 122.788C1846.57 114.496 1836.42 110.803 1827.31 114.541C1818.2 118.278 1813.57 128.03 1816.97 136.323Z" fill="#FAF6B0" fill-opacity="0.8" stroke="#FF7418" stroke-opacity="0.8" stroke-width="4.33674" stroke-miterlimit="1.5" stroke-linecap="round" stroke-linejoin="round"/>
<path fill-rule="evenodd" clip-rule="evenodd" d="M483.875 2702.42C493.974 2755.96 495.387 2839.67 495.387 2839.67C495.745 2881.06 462.431 2914.96 421.039 2915.32C379.647 2915.68 345.751 2882.36 345.393 2840.97C345.393 2840.97 345.573 2761.93 335.226 2724.43C332.217 2713.53 330.295 2697.03 335.223 2675.83C338.828 2660.32 348.074 2636.33 362.409 2607.22C426.567 2476.96 602.537 2208.28 602.537 2208.28C625.24 2173.67 671.772 2164 706.385 2186.7C740.997 2209.41 750.666 2255.94 727.964 2290.55C727.964 2290.55 521.532 2603.04 483.875 2702.42Z" fill="#808080" stroke="white" stroke-width="12" stroke-miterlimit="2" stroke-linejoin="round"/>
<path d="M391.448 2544.91L425.975 2535.15L413.712 2573.66L507.068 2609.01L521.607 2572.78L544.745 2587.82" stroke="white" stroke-width="8.9964" stroke-miterlimit="1.5" stroke-linecap="round" stroke-linejoin="round"/>
<path d="M439.745 2614.32C453.566 2627.73 475.906 2627.12 489.644 2612.96C503.381 2598.8 503.313 2576.45 489.492 2563.04C475.671 2549.64 453.331 2550.24 439.594 2564.4C425.856 2578.56 425.924 2600.91 439.745 2614.32Z" fill="#FAF6B0" stroke="#FF7418" stroke-width="8.9964" stroke-miterlimit="1.5" stroke-linecap="round" stroke-linejoin="round"/>
<path fill-rule="evenodd" clip-rule="evenodd" d="M729.459 2608.58C741.422 2661.73 813.436 2855.37 813.436 2855.37C827.644 2894.25 807.615 2937.35 768.736 2951.56C729.857 2965.77 686.757 2945.74 672.549 2906.86C672.549 2906.86 584.829 2663.01 579.273 2620.25C577.458 2606.28 581.111 2575.16 595.83 2536.07C630.991 2442.69 725.648 2262.53 725.648 2262.53C744.936 2225.9 790.331 2211.83 826.956 2231.12C863.581 2250.41 877.655 2295.8 858.367 2332.42C858.367 2332.42 749.815 2536.39 729.459 2608.58Z" fill="#808080" stroke="white" stroke-width="12" stroke-miterlimit="2" stroke-linejoin="round"/>
<path d="M584.984 2633.56L609.837 2607.69L618.728 2647.11L717.145 2630.4L711.371 2591.8L738.939 2593.08" stroke="white" stroke-width="8.99637" stroke-miterlimit="1.5" stroke-linecap="round" stroke-linejoin="round"/>
<path d="M661.749 2669.03C680.453 2673.61 699.419 2661.79 704.112 2642.63C708.804 2623.46 697.446 2604.22 678.742 2599.64C660.038 2595.06 641.071 2606.88 636.379 2626.04C631.686 2645.2 643.045 2664.45 661.749 2669.03Z" fill="#FAF6B0" stroke="#FF7418" stroke-width="8.99637" stroke-miterlimit="1.5" stroke-linecap="round" stroke-linejoin="round"/>
<path fill-rule="evenodd" clip-rule="evenodd" d="M815.141 2384.93C795.131 2348.69 808.305 2303.03 844.541 2283.02C880.777 2263.01 926.441 2276.18 946.451 2312.42C946.451 2312.42 1063.9 2525.94 1102.24 2714.95C1121.72 2811.03 1119.04 2901.51 1085.47 2964.78C1066.06 3001.34 1020.62 3015.27 984.06 2995.87C947.495 2976.47 933.562 2931.03 952.965 2894.46C965.072 2871.65 966.426 2841.91 964.3 2809.42C961.501 2766.66 950.993 2719.93 937.232 2673.81C893.188 2526.18 815.141 2384.93 815.141 2384.93Z" fill="#808080" stroke="white" stroke-width="12" stroke-miterlimit="2" stroke-linejoin="round"/>
<path d="M966.457 2733.44L980.339 2700.36L1002.81 2733.94L1088.64 2682.95L1069.36 2649.01L1095.54 2640.29" stroke="white" stroke-width="8.99638" stroke-miterlimit="1.5" stroke-linecap="round" stroke-linejoin="round"/>
<path d="M1050.84 2738.92C1069.94 2736.46 1083.38 2718.61 1080.87 2699.05C1078.36 2679.48 1060.84 2665.61 1041.74 2668.06C1022.64 2670.51 1009.19 2688.37 1011.7 2707.93C1014.22 2727.5 1031.74 2741.37 1050.84 2738.92Z" fill="#FAF6B0" stroke="#FF7418" stroke-width="8.99638" stroke-miterlimit="1.5" stroke-linecap="round" stroke-linejoin="round"/>
<path fill-rule="evenodd" clip-rule="evenodd" d="M1176.43 2322.46C1167.34 2282.07 1192.75 2241.91 1233.14 2232.82C1273.52 2223.74 1313.68 2249.15 1322.77 2289.53C1322.77 2289.53 1371.71 2510.73 1367.99 2623.44C1364.32 2734.66 1301.24 2985.93 1301.24 2985.93C1291.05 3026.05 1250.21 3050.35 1210.09 3040.16C1169.97 3029.97 1145.67 2989.13 1155.85 2949.01C1155.85 2949.01 1214.73 2719.98 1218.07 2618.49C1221.37 2518.5 1176.43 2322.46 1176.43 2322.46Z" fill="#808080" stroke="white" stroke-width="12" stroke-miterlimit="2" stroke-linejoin="round"/>
<path d="M1220.1 2713.08L1240.17 2683.34L1255.66 2720.66L1349.78 2687.39L1337.49 2650.34L1364.88 2646.89" stroke="white" stroke-width="8.99639" stroke-miterlimit="1.5" stroke-linecap="round" stroke-linejoin="round"/>
<path d="M1301.79 2734.91C1321 2736.23 1337.67 2721.34 1339.02 2701.66C1340.37 2681.98 1325.9 2664.95 1306.68 2663.63C1287.47 2662.32 1270.8 2677.2 1269.45 2696.88C1268.1 2716.56 1282.58 2733.59 1301.79 2734.91Z" fill="#FAF6B0" stroke="#FF7418" stroke-width="8.99639" stroke-miterlimit="1.5" stroke-linecap="round" stroke-linejoin="round"/>
<path fill-rule="evenodd" clip-rule="evenodd" d="M1493.19 2185.02C1486.22 2144.22 1513.68 2105.43 1554.49 2098.46C1595.29 2091.49 1634.08 2118.96 1641.05 2159.76C1641.05 2159.76 1678.17 2377.27 1714.98 2529.97C1728.2 2584.84 1738.96 2630.46 1749.6 2646.74C1795.77 2717.35 1832.14 2800.26 1832.14 2800.26C1848.75 2838.17 1831.46 2882.44 1793.54 2899.05C1755.63 2915.66 1711.36 2898.37 1694.75 2860.46C1694.75 2860.46 1663.64 2789.36 1624.06 2728.83C1608.97 2705.76 1587.9 2642.9 1569.15 2565.12C1531.36 2408.34 1493.19 2185.02 1493.19 2185.02Z" fill="#808080" stroke="white" stroke-width="12" stroke-miterlimit="2" stroke-linejoin="round"/>
<path d="M1709.3 2488.09L1674.78 2478.33L1687.04 2516.84L1593.68 2552.19L1579.14 2515.96L1556.01 2531" stroke="white" stroke-width="8.9964" stroke-miterlimit="1.5" stroke-linecap="round" stroke-linejoin="round"/>
<path d="M1661.01 2557.5C1647.19 2570.91 1624.85 2570.3 1611.11 2556.14C1597.37 2541.98 1597.44 2519.63 1611.26 2506.22C1625.08 2492.82 1647.42 2493.42 1661.16 2507.58C1674.9 2521.74 1674.83 2544.09 1661.01 2557.5Z" fill="#FAF6B0" stroke="#FF7418" stroke-width="8.9964" stroke-miterlimit="1.5" stroke-linecap="round" stroke-linejoin="round"/>
<path fill-rule="evenodd" clip-rule="evenodd" d="M1359.48 2356.21C1354.99 2320.62 1380.24 2288.07 1415.83 2283.58C1451.43 2279.09 1483.97 2304.34 1488.46 2339.93L1554.42 2862.64C1558.91 2898.23 1533.66 2930.78 1498.07 2935.27C1462.48 2939.76 1429.93 2914.51 1425.44 2878.92L1359.48 2356.21Z" fill="#808080" stroke="white" stroke-width="12" stroke-miterlimit="2" stroke-linejoin="round"/>
<path d="M1388.95 2620.56L1413.22 2599.68L1417.78 2635.46L1506.64 2628.96L1504.78 2594.17L1529.17 2597.64" stroke="white" stroke-width="8.02977" stroke-miterlimit="1.5" stroke-linecap="round" stroke-linejoin="round"/>
<path d="M1454.15 2658.58C1470.38 2664.23 1488.23 2655.34 1494.03 2638.71C1499.82 2622.08 1491.36 2604.02 1475.13 2598.36C1458.9 2592.71 1441.04 2601.6 1435.25 2618.23C1429.46 2634.86 1437.92 2652.92 1454.15 2658.58Z" fill="#FAF6B0" stroke="#FF7418" stroke-width="8.02977" stroke-miterlimit="1.5" stroke-linecap="round" stroke-linejoin="round"/>
<path fill-rule="evenodd" clip-rule="evenodd" d="M794.655 2368.01C797.754 2332.27 829.287 2305.77 865.028 2308.87C900.768 2311.97 927.268 2343.5 924.169 2379.24L887.284 2804.58C884.185 2840.32 852.652 2866.82 816.912 2863.72C781.171 2860.62 754.671 2829.09 757.77 2793.35L794.655 2368.01Z" fill="#808080" stroke="white" stroke-width="12" stroke-miterlimit="2" stroke-linejoin="round"/>
<path d="M763.891 2664.87L796.138 2655.76L784.686 2691.72L871.877 2724.74L885.456 2690.9L907.066 2704.95" stroke="white" stroke-width="8.40237" stroke-miterlimit="1.5" stroke-linecap="round" stroke-linejoin="round"/>
<path d="M809.001 2729.7C821.909 2742.22 842.774 2741.65 855.604 2728.43C868.434 2715.21 868.371 2694.33 855.462 2681.81C842.554 2669.29 821.689 2669.85 808.859 2683.08C796.029 2696.3 796.093 2717.17 809.001 2729.7Z" fill="#FAF6B0" stroke="#FF7418" stroke-width="8.40237" stroke-miterlimit="1.5" stroke-linecap="round" stroke-linejoin="round"/>
<path fill-rule="evenodd" clip-rule="evenodd" d="M1219.78 2786.26C1227.22 2819.61 1207.39 2853.42 1174.1 2862.89C1139.59 2872.7 1103.61 2852.65 1093.8 2818.14C1091.13 2808.75 1088.49 2779.64 1088.66 2738.91C1089.18 2612.23 1103.75 2342.26 1103.75 2342.26C1105.68 2306.44 1136.34 2278.93 1172.16 2280.86C1207.98 2282.8 1235.49 2313.45 1233.56 2349.28C1233.56 2349.28 1219.17 2614.84 1218.65 2739.45C1218.57 2759.52 1219.64 2783.17 1219.78 2786.26Z" fill="#808080" stroke="white" stroke-width="12" stroke-miterlimit="2" stroke-linejoin="round"/>
<path d="M1212.78 2682.59L1181.31 2673.69L1192.48 2708.79L1107.39 2741.01L1094.14 2707.99L1073.05 2721.7" stroke="white" stroke-width="8.20022" stroke-miterlimit="1.5" stroke-linecap="round" stroke-linejoin="round"/>
<path d="M1168.75 2745.86C1156.16 2758.08 1135.79 2757.52 1123.27 2744.62C1110.75 2731.71 1110.81 2711.34 1123.41 2699.12C1136.01 2686.9 1156.37 2687.45 1168.89 2700.36C1181.41 2713.26 1181.35 2733.63 1168.75 2745.86Z" fill="#FAF6B0" stroke="#FF7418" stroke-width="8.20022" stroke-miterlimit="1.5" stroke-linecap="round" stroke-linejoin="round"/>
<path fill-rule="evenodd" clip-rule="evenodd" d="M2336.38 1892.96C2337.13 1927.72 2309.53 1956.56 2274.77 1957.32C2240.01 1958.08 2211.17 1930.47 2210.41 1895.71C2210.41 1895.71 2208 1739.36 2185.75 1594.25C2175.03 1524.36 2160.67 1456.94 2137.64 1414.5C2091.04 1327.95 1982.39 1150.26 1909.87 1009.46C1860.85 914.284 1830.23 832.64 1832.4 799.084C1833.42 784.988 1836.89 764.5 1844.11 740.295C1853.67 708.22 1868.24 668.17 1885.86 627.074C1902.76 587.65 1921.85 547.819 1939.87 512.322C1972.4 448.218 2000.08 400.861 2000.08 400.861C2002.75 394.205 2010.31 390.964 2016.97 393.626C2023.62 396.288 2026.86 403.853 2024.2 410.508C2024.2 410.508 2011.1 467.781 1992.47 540.775C1976.59 603.019 1957.75 675.605 1944.7 732.955C1937.79 763.335 1931.94 788.359 1931.81 803.465C1931.66 811.663 1937.77 823.775 1944.55 839.95C1958.05 872.137 1979.59 913.202 2004.8 958.627C2081.43 1096.73 2192.73 1271.99 2241.17 1357.2C2270.14 1408.53 2291.62 1489.78 2305.99 1574.87C2331.82 1727.8 2336.38 1892.96 2336.38 1892.96Z" fill="#808080" stroke="white" stroke-width="8" stroke-miterlimit="2" stroke-linejoin="round"/>
<path fill-rule="evenodd" clip-rule="evenodd" d="M2002.79 427.883C1999.37 446.742 1937.23 731.789 1921.13 764.496L1906.13 763.426C1923.05 747.885 2008.76 395.021 2002.79 427.883Z" fill="white" fill-opacity="0.7"/>
<path fill-rule="evenodd" clip-rule="evenodd" d="M1917.1 828.524C1923.97 839.364 2022.1 1007.62 2028.44 1030.73L2019.72 1036.55C2021.79 1021.64 1905.13 809.634 1917.1 828.524Z" fill="white" fill-opacity="0.7"/>
<path fill-rule="evenodd" clip-rule="evenodd" d="M2054.64 1076.2C2061.51 1087.04 2159.64 1255.29 2165.98 1278.4L2157.25 1284.23C2159.33 1269.32 2042.67 1057.31 2054.64 1076.2Z" fill="white" fill-opacity="0.7"/>
<path d="M1830.96 772.507L1853.81 763.889L1847.73 790.714L1913.09 809.282L1920.85 783.871L1937.41 792.732" stroke="white" stroke-width="6.12358" stroke-miterlimit="1.5" stroke-linecap="round" stroke-linejoin="round"/>
<path d="M1867.74 816.784C1877.89 825.077 1893 823.371 1901.5 812.973C1910 802.575 1908.66 787.422 1898.51 779.128C1888.36 770.835 1873.24 772.541 1864.74 782.939C1856.25 793.337 1857.59 808.49 1867.74 816.784Z" fill="#FAF6B0" stroke="#FF7418" stroke-width="6.12358" stroke-miterlimit="1.5" stroke-linecap="round" stroke-linejoin="round"/>
<path d="M1960.45 1102.82L1969.36 1080.08L1985.2 1102.57L2042.77 1066.49L2029.11 1043.7L2046.78 1037.34" stroke="white" stroke-width="6.12358" stroke-miterlimit="1.5" stroke-linecap="round" stroke-linejoin="round"/>
<path d="M2017.96 1105.18C2030.92 1103.2 2039.78 1090.84 2037.75 1077.56C2035.72 1064.29 2023.57 1055.13 2010.62 1057.11C1997.66 1059.09 1988.8 1071.45 1990.83 1084.73C1992.85 1098 2005 1107.16 2017.96 1105.18Z" fill="#FAF6B0" stroke="#FF7418" stroke-width="6.12358" stroke-miterlimit="1.5" stroke-linecap="round" stroke-linejoin="round"/>
<path d="M2114.76 1372.93L2123.68 1350.19L2139.51 1372.68L2197.09 1336.6L2183.42 1313.81L2201.1 1307.46" stroke="white" stroke-width="6.12358" stroke-miterlimit="1.5" stroke-linecap="round" stroke-linejoin="round"/>
<path d="M2172.27 1375.29C2185.23 1373.32 2194.09 1360.95 2192.07 1347.68C2190.04 1334.4 2177.89 1325.25 2164.93 1327.22C2151.98 1329.2 2143.12 1341.57 2145.14 1354.84C2147.17 1368.12 2159.32 1377.27 2172.27 1375.29Z" fill="#FAF6B0" stroke="#FF7418" stroke-width="6.12358" stroke-miterlimit="1.5" stroke-linecap="round" stroke-linejoin="round"/>
<path fill-rule="evenodd" clip-rule="evenodd" d="M-30.9415 1959.84C-61.6695 1976.11 -99.8275 1964.37 -116.099 1933.64C-132.37 1902.92 -120.632 1864.76 -89.9035 1848.49C-89.9035 1848.49 -5.97351 1804.2 59.2505 1704.92C92.8985 1653.7 121.855 1588.16 131.836 1506.35C139.426 1446.48 141.107 1381.21 140.527 1316.03C139.824 1237.02 132.893 1158.43 129.572 1088.93C127.027 1035.66 126.803 988.734 126.121 950.447C125.081 892.022 125.83 857.019 125.83 857.019C124.35 850.006 128.843 843.11 135.857 841.63C142.87 840.15 149.766 844.643 151.246 851.657C151.246 851.657 163.541 879.223 180.28 927.805C187.924 949.992 196.154 975.584 204.143 1005.29C212.71 1037.13 221.076 1072.34 227.668 1110.54C249.49 1236.97 257.723 1389.45 246.58 1518.92C236.586 1621.95 202.26 1705.21 161.418 1770.45C79.2325 1901.74 -30.9415 1959.84 -30.9415 1959.84Z" fill="#808080" stroke="white" stroke-width="8" stroke-miterlimit="2" stroke-linejoin="round"/>
<path fill-rule="evenodd" clip-rule="evenodd" d="M147.348 873.458C153.149 891.946 230.653 1175.44 230.754 1211.47L215.531 1216.34C224.568 1195.61 137.242 841.242 147.348 873.458Z" fill="white" fill-opacity="0.7"/>
<path fill-rule="evenodd" clip-rule="evenodd" d="M243.903 1322.81C243.796 1337.15 233.825 1553.75 225.469 1578.56L213.256 1577.66C224.679 1565.93 244.092 1297.84 243.903 1322.81Z" fill="white" fill-opacity="0.7"/>
<path d="M140.316 1273.04L152.558 1251.91L164.819 1276.54L227.181 1249.56L217.113 1224.97L235.546 1221.35" stroke="#51E9F4" stroke-width="6.12358" stroke-miterlimit="1.5" stroke-linecap="round" stroke-linejoin="round"/>
<path d="M196.809 1284.06C209.917 1284.06 220.543 1273.18 220.543 1259.75C220.543 1246.32 209.917 1235.43 196.809 1235.43C183.702 1235.43 173.076 1246.32 173.076 1259.75C173.076 1273.18 183.702 1284.06 196.809 1284.06Z" fill="#FAF6B0" stroke="#FF7418" stroke-width="6.12358" stroke-miterlimit="1.5" stroke-linecap="round" stroke-linejoin="round"/>
<path d="M121.298 1605.74L141.782 1592.44L141.563 1619.95L209.382 1624.14L211.54 1597.65L229.613 1602.77" stroke="#51E9F4" stroke-width="6.12358" stroke-miterlimit="1.5" stroke-linecap="round" stroke-linejoin="round"/>
<path d="M166.679 1641.15C178.366 1647.08 192.769 1642.19 198.85 1630.22C204.93 1618.24 200.386 1603.73 188.699 1597.79C177.013 1591.85 162.61 1596.75 156.529 1608.72C150.448 1620.69 154.993 1635.21 166.679 1641.15Z" fill="#FAF6B0" stroke="#FF7418" stroke-width="6.12358" stroke-miterlimit="1.5" stroke-linecap="round" stroke-linejoin="round"/>
<path d="M-55.0166 1837.76L-30.6628 1839.58L-47.4941 1861.34L3.94013 1905.74L21.6951 1885.97L32.9761 1900.99" stroke="#51E9F4" stroke-width="6.12358" stroke-miterlimit="1.5" stroke-linecap="round" stroke-linejoin="round"/>
<path d="M-40.3445 1893.42C-34.639 1905.22 -20.2135 1910.05 -8.12425 1904.2C3.96496 1898.35 9.13992 1884.05 3.43435 1872.25C-2.27121 1860.45 -16.6967 1855.62 -28.7859 1861.47C-40.8751 1867.31 -46.0501 1881.62 -40.3445 1893.42Z" fill="white" stroke="black" stroke-width="6.12358" stroke-miterlimit="1.5" stroke-linecap="round" stroke-linejoin="round"/>
<path fill-rule="evenodd" clip-rule="evenodd" d="M2566.15 2614.56C2562.47 2649.13 2531.42 2674.22 2496.84 2670.54C2462.27 2666.86 2437.18 2635.81 2440.86 2601.23C2440.86 2601.23 2449.32 2520.79 2403.58 2437.21C2379.88 2393.91 2341.84 2349.84 2280.98 2315.16C2125.12 2225.27 1946.69 2169.94 1852.23 2098.43C1802.14 2060.5 1772.05 2017.76 1766.73 1969.3C1764.13 1928.12 1764.76 1881.56 1770.36 1836.52C1774.61 1802.32 1780.81 1769.92 1787.4 1741.27C1800.1 1686.06 1812.94 1648.36 1812.94 1648.36C1814.01 1641.27 1820.63 1636.39 1827.72 1637.46C1834.81 1638.54 1839.69 1645.16 1838.62 1652.25C1838.62 1652.25 1840.85 1723.16 1846.38 1807.92C1849.62 1857.38 1853.16 1910.81 1863.34 1955.89C1866.24 1972.97 1878.67 1986.07 1894.19 1999.39C1911.44 2014.18 1933.61 2027.38 1958.89 2040.64C2059.57 2093.46 2206.52 2140.39 2338.67 2211.57C2423.64 2257.8 2476.87 2318.16 2510.65 2377.37C2579.04 2497.22 2566.15 2614.56 2566.15 2614.56Z" fill="#808080" stroke="white" stroke-width="8" stroke-miterlimit="2" stroke-linejoin="round"/>
<path fill-rule="evenodd" clip-rule="evenodd" d="M1825.17 1658.5C1826.56 1671.25 1840.58 1865.53 1836.1 1889.07L1825.7 1890.46C1834.12 1877.98 1822.74 1636.27 1825.17 1658.5Z" fill="white" fill-opacity="0.7"/>
<path fill-rule="evenodd" clip-rule="evenodd" d="M1842.2 1977.18C1849.87 1981.74 1962.53 2054.95 1972.61 2067.09L1967.36 2073.18C1965.51 2063.54 1828.83 1969.24 1842.2 1977.18Z" fill="white" fill-opacity="0.7"/>
<path d="M1762.04 1967.47L1774.29 1946.34L1786.55 1970.96L1848.91 1943.98L1838.84 1919.39L1857.27 1915.77" stroke="#51E9F4" stroke-width="6.12358" stroke-miterlimit="1.5" stroke-linecap="round" stroke-linejoin="round"/>
<path d="M1818.54 1978.49C1831.65 1978.49 1842.27 1967.6 1842.27 1954.17C1842.27 1940.75 1831.65 1929.86 1818.54 1929.86C1805.43 1929.86 1794.8 1940.75 1794.8 1954.17C1794.8 1967.6 1805.43 1978.49 1818.54 1978.49Z" fill="#FAF6B0" stroke="#FF7418" stroke-width="6.12358" stroke-miterlimit="1.5" stroke-linecap="round" stroke-linejoin="round"/>
<path d="M1943.35 2158.45L1964.27 2145.91L1939.09 2135.94L1964.37 2076.61L1989.44 2084.56L1988.04 2049.81" stroke="#51E9F4" stroke-width="5.92294" stroke-miterlimit="1.5" stroke-linecap="round" stroke-linejoin="round"/>
<path d="M1970.34 2126.95C1979.49 2118.82 1979.77 2103.99 1970.96 2093.83C1962.15 2083.67 1947.58 2082.02 1938.43 2090.15C1929.28 2098.28 1929 2113.1 1937.81 2123.26C1946.62 2133.42 1961.18 2135.07 1970.34 2126.95Z" fill="#FAF6B0" stroke="#FF7418" stroke-width="5.92235" stroke-miterlimit="1.5" stroke-linecap="round" stroke-linejoin="round"/>
<path fill-rule="evenodd" clip-rule="evenodd" d="M1679.19 2349.06C1619.51 2436.62 1606.36 2574.41 1623.08 2744.45C1580.42 2639.82 1555.16 2524.78 1538.3 2404.72L1506.35 2424.41L1505.15 2498.71C1505.15 2498.71 1431.6 2550.67 1440.47 2603.4C1446.39 2638.62 1463.77 2717.57 1463.77 2717.57L1409.29 2715.59L1387.24 2510.53L1361.31 2536.14L1360.74 2571.8C1319.08 2611.58 1307.87 2671.93 1310.24 2719.55L1228.59 2741.47L1220.58 2577.27C1220.58 2577.27 1190.49 2596.06 1190 2611.31C1189.32 2632.39 1216.5 2703.76 1216.5 2703.76L1099.42 2720.22L1097.01 2616.98C1097.01 2616.98 1032.98 2601.6 1029.88 2615.83C1026.78 2630.05 1078.41 2702.32 1078.41 2702.32L950.236 2743.05L905.043 2563.62C869.132 2580.66 853.918 2656.36 836.182 2724.91L769.563 2740.37L786.32 2470.66C744.981 2503.51 730.032 2557.71 723.203 2604.11L759.804 2709.74L620.626 2787.27L577.634 2604.08L619.737 2464.08L562.784 2538.24L380.754 2724.15C380.754 2724.15 245.759 2765.02 259.199 2736.55C272.64 2708.09 547.748 2287.78 547.748 2287.78L783.838 2451.96L913.839 2545.16L1056.72 2554.18L1223.29 2544.4L1468.63 2344.77L1661.1 2294.92L1679.19 2349.06Z" fill="black" fill-opacity="0.3"/>
<path fill-rule="evenodd" clip-rule="evenodd" d="M1661.1 2294.92L1664.32 2341.96C1700.83 2561.79 1624.76 2647.21 1550.75 2448.02L1530.82 2367.06L1489.89 2416.26L1500.11 2480.61C1505.53 2628.96 1451.8 2656.28 1394.56 2567.69L1382.97 2471.55L1358.55 2500.94L1360.98 2597.25C1322.3 2746.3 1278.18 2756.26 1226.29 2648.1C1187.54 2711.87 1143.82 2738.29 1091.78 2663.63C1033.28 2723.78 982.958 2728.11 937.518 2651.18L902.927 2547.33L895.41 2653.3C842.663 2724.05 804.345 2718.85 779.115 2622.04L787.845 2487.2L774.22 2486.11L725.577 2595.46C717.338 2696.53 689.731 2739.16 627.423 2643.09C615.4 2624.55 601.363 2581.61 612.995 2506.6L658.943 2402.91L646.415 2395.43L596.709 2487.74C519.773 2601.9 442.656 2631.69 466.583 2413.22L556.749 2284.36L1661.1 2294.92Z" fill="#00A8E4" fill-opacity="0.25"/>
<path fill-rule="evenodd" clip-rule="evenodd" d="M1386.66 2601.35C1386.53 2602.16 1386.36 2602.98 1386.15 2603.78C1373.66 2651.89 1360.29 2686.4 1346.69 2708.18C1334.17 2728.22 1320.23 2739.23 1306.96 2743.74C1290.38 2749.38 1273 2746.95 1255.4 2733.82C1245.22 2726.22 1234.43 2713.91 1223.41 2696.73C1214.73 2706.82 1205.83 2715.05 1196.81 2721.08C1181.22 2731.52 1164.94 2736.14 1148.2 2734.68C1129.87 2733.09 1109.65 2723.58 1089.01 2701.61C1060.85 2724.84 1033.75 2735.78 1008.72 2734.79C977.042 2733.53 945.385 2714.06 917.085 2667.66C916.819 2668.06 916.543 2668.45 916.255 2668.84C897.516 2693.97 879.816 2710.5 864.11 2718.95C848.816 2727.17 834.348 2728.96 820.976 2725.81C808.184 2722.8 795.756 2715 784.768 2700.69C773.299 2685.75 762.671 2662.04 753.956 2628.6C753.256 2625.91 752.99 2623.13 753.17 2620.36L754.91 2593.49C752.543 2598.81 751.109 2602.03 751.109 2602.03C746.93 2648.56 737.642 2683.43 724.916 2701.12C720.355 2707.46 715.259 2712.26 709.898 2715.71L699.559 2720.69L687.956 2722.9C677.188 2723.49 664.67 2720.3 651.128 2710.37C638.232 2700.92 622.875 2683.86 605.609 2657.24C594.669 2640.37 581.012 2605.83 582.844 2548.91C569.772 2563.91 557.083 2575.95 545.317 2584.4C524.266 2599.51 504.392 2604.1 488.337 2600.63C470.762 2596.84 454.247 2583.91 444.888 2555.33C435.935 2527.99 432.973 2481.28 440.738 2410.39C441.213 2406.05 442.775 2401.9 445.28 2398.32L535.446 2269.46C540.361 2262.43 548.424 2258.28 556.997 2258.36L1661.35 2268.92C1674.92 2269.05 1686.11 2279.6 1687.04 2293.14L1690.17 2338.95C1706.46 2437.94 1699.84 2511.46 1682.77 2547.76C1670.89 2573 1653.23 2584.57 1635.23 2585.97C1620.13 2587.15 1602.08 2581.11 1584.05 2562.34C1566.06 2543.6 1545.85 2509.49 1526.38 2457.08C1526.04 2456.15 1525.75 2455.2 1525.51 2454.24L1517.88 2423.27L1517.42 2423.82L1525.79 2476.54C1525.95 2477.57 1526.05 2478.62 1526.09 2479.66C1528.26 2538.91 1520.93 2580.63 1508.97 2605.34C1496.84 2630.39 1479.25 2641.88 1460.82 2643.88C1448.49 2645.22 1434.82 2642.28 1420.64 2633.43C1409.91 2626.74 1398.36 2616.14 1386.66 2601.35ZM1661.1 2294.92L556.749 2284.36L466.583 2413.22C442.656 2631.69 519.773 2601.9 596.709 2487.74L646.415 2395.43L658.943 2402.91L612.995 2506.6C601.363 2581.61 615.4 2624.55 627.423 2643.09C689.731 2739.16 717.338 2696.53 725.577 2595.46L774.22 2486.11L787.845 2487.2L779.115 2622.04C804.345 2718.85 842.663 2724.05 895.41 2653.3L902.927 2547.33L937.518 2651.18C982.958 2728.11 1033.28 2723.78 1091.78 2663.63C1143.82 2738.29 1187.54 2711.87 1226.29 2648.1C1278.18 2756.26 1322.3 2746.3 1360.98 2597.25L1358.55 2500.94L1382.97 2471.55L1394.56 2567.69C1451.8 2656.28 1505.53 2628.96 1500.11 2480.61L1489.89 2416.26L1530.82 2367.06L1550.75 2448.02C1624.76 2647.21 1700.83 2561.79 1664.32 2341.96L1661.1 2294.92Z" fill="#136748" fill-opacity="0.13"/>
<path fill-rule="evenodd" clip-rule="evenodd" d="M1867.62 681.639C1867.62 681.639 1859.87 819.342 1902.04 910.108C1963.16 1041.65 2234.32 1470.91 2234.32 1470.91L2231.96 2289.32C2092.35 2226.61 1949.31 2164.1 1861.57 2098.23C1836.49 2079.4 1815.93 2060.3 1801.26 2040.84C1741.39 1979.56 1771.92 1825.3 1804.5 1668.93C1804.5 1668.93 1779.11 1926.48 1842.96 2014.08C1906.81 2101.68 2187.6 2194.55 2187.6 2194.55L2175.01 1477.88C2037.46 1255.35 1876.4 1036.71 1831.74 798.843C1836.54 755.177 1849.33 716.646 1867.62 681.639Z" fill="black" fill-opacity="0.3"/>
<path fill-rule="evenodd" clip-rule="evenodd" d="M-45.7734 1977.34C-45.7734 1977.34 149.393 1659.74 177.641 1480.3C207.382 1291.38 123.471 884.4 123.471 884.4C130.433 1116.41 154.686 1310.7 131.025 1531.98C100.371 1633.2 67.5586 1732.17 -12.6884 1781.55L-45.7734 1977.34Z" fill="black" fill-opacity="0.3"/>
</g>
<defs>
<clipPath id="clip0_2007_27715">
<rect width="2160" height="2700" fill="white"/>
</clipPath>
</defs>
</svg>
