<svg width="2160" height="2700" viewBox="0 0 2160 2700" fill="none" xmlns="http://www.w3.org/2000/svg">
<g clip-path="url(#clip0_2055_172)">
<path fill-rule="evenodd" clip-rule="evenodd" d="M626.151 1315.99C626.151 1315.99 293.317 1074.01 256.742 931.329C220.166 788.645 406.7 459.887 406.7 459.887C406.7 459.887 547.14 80.4343 454.068 69.7342C304.578 52.5484 -238.583 433.612 -238.583 433.612L-295.008 2106.08L73.7697 1536.51L147.807 1813.93L214.57 1585.86L279.538 1761.19L373.329 1565.5L386.514 1787.17L506.56 1564.24L558.527 1790.17L626.151 1315.99Z" fill="#808080" stroke="white" stroke-width="9.00035" stroke-miterlimit="1.5" stroke-linecap="square" stroke-linejoin="round"/>
<path d="M256.439 463.347C317.154 437.852 348.586 374.825 326.645 322.57C304.703 270.316 237.697 248.623 176.982 274.118C116.266 299.612 84.834 362.64 106.776 414.894C128.717 467.148 195.724 488.841 256.439 463.347Z" fill="#636363" stroke="white" stroke-width="10" stroke-miterlimit="1.5" stroke-linecap="round" stroke-linejoin="round"/>
<path fill-rule="evenodd" clip-rule="evenodd" d="M575.008 1855.83L564.762 1875.43C561.979 1880.76 556.662 1884.28 550.676 1884.78C544.687 1885.27 538.863 1882.66 535.243 1877.87L269.905 1526.29L297.884 1505.17L308.441 1519.16L546.534 1834.64L550.994 1826.11L385.061 1597.61C379.563 1590.04 380.982 1579.48 388.287 1573.63L467.044 1510.55C471.485 1507 477.376 1505.82 482.844 1507.39C488.313 1508.96 492.677 1513.09 494.55 1518.47L625.283 1893.58C626.88 1898.15 626.513 1903.17 624.275 1907.45L572.452 2006.81C569.653 2012.18 564.276 2015.72 558.237 2016.18C552.197 2016.64 546.347 2013.94 542.769 2009.06L154.594 1478.7L182.879 1458L554.408 1965.61L589.692 1897.96L575.008 1855.83ZM537.276 1747.57L469.608 1553.41L423.247 1590.54L537.276 1747.57Z" fill="#636769" stroke="white" stroke-width="9.99799" stroke-miterlimit="2" stroke-linejoin="round"/>
<path fill-rule="evenodd" clip-rule="evenodd" d="M-91.7426 684.254L44.2893 678.322L-125.591 1173.7L92.1177 929.032C92.1177 929.032 -114.518 1339.75 -82.2022 1309.75C-49.8853 1279.75 58.8558 1191.16 58.8558 1191.16L29.5096 1512.71L125.009 1356.16L152.154 1592.43L228.77 1397.59L257.97 1624.32L349.895 1446.84" fill="#636363"/>
<path fill-rule="evenodd" clip-rule="evenodd" d="M81.4699 941.37C13.3995 1019.66 -54.6311 1097.98 -122.706 1176.27C-123.958 1177.71 -126.423 1178.05 -128.082 1176.65C-129.313 1175.61 -129.73 1173.84 -129.244 1172.45C-71.9575 1008.13 -14.614 843.842 42.6725 679.53L-95.0966 687.91L-95.4019 680.904C43.8769 674.757 43.9215 674.492 45.2791 674.881C47.0012 675.376 48.1207 677.155 47.8217 678.923C47.4718 680.995 47.1771 680.919 -125.209 1173.04C-53.5523 1090.71 17.9719 1008.25 89.6294 925.92C89.818 925.703 91.5405 924.597 93.4539 925.278C95.3551 925.955 96.855 928.302 95.6782 930.822C95.4417 931.329 -60.0109 1240.46 -79.7196 1301.98C-72.3185 1295.31 -55.7431 1280.73 -16.998 1248.43C19.6452 1217.89 56.2642 1188.06 56.3022 1188.03C59.0572 1185.9 62.6482 1187.83 62.8791 1190.85C62.8964 1191.07 62.8756 1191.3 62.874 1191.52C62.6845 1217.29 60.2312 1217.11 29.7904 1511.86C60.5956 1459.14 91.2532 1406.33 122.057 1353.6C122.184 1353.39 123.593 1352.03 125.529 1352.29C125.823 1352.33 127.617 1352.57 128.524 1354.48C128.616 1354.67 128.732 1354.87 128.752 1355.08C136.647 1433.88 144.377 1512.71 152.271 1591.51C176.637 1526.43 200.946 1461.32 225.312 1396.24C225.993 1394.42 228.347 1393.26 230.393 1394.26C231.766 1394.93 232.3 1396.36 232.318 1396.52C240.983 1472.1 249.491 1547.69 258.156 1623.27L348.391 1442.11L354.621 1445.33C261.361 1625.6 261.631 1625.81 260.433 1626.94C258.705 1628.57 255.821 1628.06 254.751 1625.94C254.661 1625.76 254.548 1625.58 254.524 1625.38C245.849 1549.76 237.331 1474.13 228.655 1398.51C155.752 1593.67 155.824 1593.7 155.416 1594.39C154.016 1596.72 150.599 1596.85 149.034 1594.62C148.975 1594.53 148.534 1593.91 148.491 1593.48C140.517 1514.79 132.708 1436.09 124.734 1357.39C94.1017 1409.85 63.5265 1462.33 32.8934 1514.78C32.1122 1516.11 30.1669 1517.11 28.2625 1516.48C26.4282 1515.87 25.3867 1513.99 25.5533 1512.35C36.2253 1407.36 46.9549 1302.37 57.628 1197.37C-62.2705 1295.45 -78.2855 1311.93 -80.5907 1313.72C-85.2591 1317.34 -89.1263 1314.5 -89.6219 1310.85C-90.1884 1306.67 -90.5916 1295.09 -15.2524 1138.16C22.8966 1058.69 64.5999 975.067 81.4699 941.37Z" fill="white"/>
<path fill-rule="evenodd" clip-rule="evenodd" d="M10.4596 578.302L147.071 550.699L-89.75 918.398L112.892 756.112C112.892 756.112 -120.905 1081.88 -82.0676 1060.99C-43.2297 1040.11 84.3353 981.801 84.3353 981.801L-42.8964 1253.28L129.084 1095.23L54.6638 1454.49L210.44 1214.2L167.795 1451.18L301.502 1302.6" fill="#808080"/>
<path fill-rule="evenodd" clip-rule="evenodd" d="M101.005 765.999C38.2072 817.782 -24.5595 869.602 -87.3619 921.381C-88.9323 922.675 -91.6297 922.459 -92.9239 920.516C-93.9793 918.931 -93.3974 917.114 -93.2518 916.891C-13.572 795.06 66.241 673.316 145.921 551.485L7.71498 582.435L6.32638 575.561C146.103 547.243 146.108 546.956 147.554 547.152C149.87 547.465 151.287 549.963 150.368 552.113C150.289 552.296 150.197 552.475 150.087 552.642C70.2941 674.419 -9.5453 796.166 -89.3389 917.943C-22.732 862.996 43.8329 807.998 110.44 753.051C111.671 752.035 113.817 751.829 115.342 753.048C116.746 754.17 117.207 756.216 116.421 757.832C116.138 758.413 112.317 763.575 94.7849 788.317C23.3111 889.186 -69.7193 1024.37 -81.3453 1056.05C-74.8477 1052.62 -57.0482 1043.34 -3.50282 1018.11C39.639 997.779 82.5958 978.13 82.6455 978.109C85.7527 976.786 88.6372 979.322 88.3811 982.167C88.3708 982.279 88.3148 982.904 88.0138 983.526C44.5517 1073.24 1.02647 1162.93 -42.4357 1252.65C13.8561 1199.22 70.101 1145.74 126.393 1092.31C127.537 1091.22 129.685 1090.82 131.329 1091.95C132.986 1093.09 133.115 1095.1 133.056 1095.38C107.071 1214.88 80.9176 1334.33 54.9331 1453.84C105.747 1373.29 156.507 1292.71 207.321 1212.17C208.293 1210.63 210.587 1209.93 212.376 1211.03C214.009 1212.02 214.204 1213.95 214.151 1214.22C198.899 1292.92 183.481 1371.59 168.23 1450.29L301.241 1297.65L306.457 1302.34C170.756 1453.26 170.968 1453.55 169.497 1454.34C167.359 1455.5 164.651 1454.17 164.246 1451.78C164.211 1451.57 164.156 1451.36 164.195 1451.15C179.465 1372.38 194.9 1293.65 210.171 1214.88C159.389 1295.43 108.663 1376.02 57.8824 1456.57C57.0066 1457.97 54.9967 1458.77 53.2053 1458.04C51.1739 1457.21 50.9053 1455.33 50.8622 1455.03C50.8304 1454.82 50.7781 1454.58 50.825 1454.37C76.6531 1335 102.654 1215.66 128.483 1096.29L-40.174 1256.24C-41.1797 1257.19 -43.0693 1257.68 -44.686 1256.88C-46.3712 1256.04 -47.274 1254.03 -46.7795 1252.21C-46.7191 1251.99 -46.6414 1251.77 -46.5411 1251.57C-4.08146 1163.65 38.437 1075.76 80.8988 987.845C-59.7283 1052.41 -78.8911 1064.1 -81.5594 1065.22C-86.9774 1067.51 -90.5522 1064.31 -90.4492 1059.77C-90.3106 1053.66 -84.1824 1035.48 -15.7296 933.742C27.952 868.818 80.0354 795.408 101.005 765.999Z" fill="white"/>
<path d="M93.7991 1027.33C128.288 1027.33 156.247 1000.42 156.247 967.229C156.247 934.036 128.288 907.127 93.7991 907.127C59.3103 907.127 31.3516 934.036 31.3516 967.229C31.3516 1000.42 59.3103 1027.33 93.7991 1027.33Z" fill="#989CA0"/>
<path fill-rule="evenodd" clip-rule="evenodd" d="M93.7994 897.127C133.888 897.127 166.246 928.646 166.246 967.23C166.246 1005.81 133.888 1037.33 93.7994 1037.33C53.7109 1037.33 21.3516 1005.81 21.3516 967.23C21.3516 928.646 53.7109 897.127 93.7994 897.127ZM93.7994 907.127C59.3336 907.127 31.3518 934.058 31.3518 967.23C31.3518 1000.4 59.3336 1027.33 93.7994 1027.33C128.265 1027.33 156.247 1000.4 156.247 967.23C156.247 934.058 128.265 907.127 93.7994 907.127Z" fill="white"/>
<path d="M152.457 935.049L196.359 919.572L194.124 855.332L243.279 850.531" stroke="white" stroke-width="9.99799" stroke-miterlimit="1.5" stroke-linecap="round" stroke-linejoin="round"/>
<path fill-rule="evenodd" clip-rule="evenodd" d="M239.25 798.29C189.284 823.211 392.122 404.055 459.771 99.8535C471.362 152.251 428.861 322.547 383.498 437.758L239.25 798.29Z" fill="white"/>
<path fill-rule="evenodd" clip-rule="evenodd" d="M229.108 865.59C231.406 958.075 283.86 1036.93 348.328 1088.41L282.863 1124.54L213.023 974.882L229.108 865.59Z" fill="white"/>
<path fill-rule="evenodd" clip-rule="evenodd" d="M306.016 1032.36L274.352 989.064C207.32 1015.58 173.161 1050.99 161.86 1124.24L187.347 1151.89C224.975 1074.5 245.983 1063.38 306.016 1032.36Z" fill="#8DCCB5" fill-opacity="0.5" stroke="white" stroke-width="9.99799" stroke-miterlimit="1.5" stroke-linecap="round" stroke-linejoin="round"/>
<path fill-rule="evenodd" clip-rule="evenodd" d="M1099.1 2240.61C1055.84 2471.86 1005.89 2643.72 924.651 2759.65C855.602 2608.94 889.57 2477.7 902.439 2340.84C870.265 2436.46 830.627 2527.49 774.244 2608.23C753.368 2521.24 748.441 2443.77 754.987 2373.17C733.929 2435.88 700.19 2494.87 651.782 2549.53C623.721 2460.42 614.329 2379.15 621.547 2304.87C598.616 2377 562.012 2443.65 516.434 2506.7L503.968 2285.22L331.351 2369.22C369.783 2204.39 463.725 2070.59 531.609 1934.85L1076.93 2157.2L1572.26 1915.72C1674.92 2022.47 1803.82 2128.93 1893.74 2345.09L1654.94 2229.38C1672.3 2286.66 1726.6 2400.32 1743.01 2486.57C1682.86 2434.44 1516.65 2361.19 1486.57 2297.54C1489.64 2369.2 1483.67 2497.29 1470.38 2572.13C1403.7 2494.49 1371.31 2404.81 1351.89 2310.59C1354.85 2454.41 1352.4 2598.51 1309.73 2744.72C1199.61 2573.99 1138.34 2462.7 1099.1 2240.61Z" fill="#8D8D8D" stroke="white" stroke-width="9.99799" stroke-miterlimit="1.5" stroke-linecap="square" stroke-linejoin="round"/>
<path fill-rule="evenodd" clip-rule="evenodd" d="M1701.53 2067.76L1694.35 2077.89L1825.96 2241.15L1701.53 2067.76Z" fill="white"/>
<path fill-rule="evenodd" clip-rule="evenodd" d="M1240.81 2196.86C1239.18 2453.59 1155.52 2709.19 1094.02 2933.76C1012.65 2697.8 1003.8 2458.18 975.948 2213.7L868.435 2512.4L833.613 2185.91L670.01 2422.67L672.308 2184.76L545.583 2371.17L574.101 2149.63L472.007 2257.1L519.67 1974.81L704.864 1864.88L903.489 2052.75L1347.45 2044.35L1501.07 1811.39L1548.82 1891.87C1610.96 2042.5 1779.82 2288.05 1779.82 2288.05L1575.88 2118.94L1492.51 2092.46L1549.55 2335.91L1396.41 2160.31L1400.69 2446.43L1240.81 2196.86Z" fill="#808080" stroke="white" stroke-width="9.99799" stroke-miterlimit="1.5" stroke-linecap="square" stroke-linejoin="round"/>
<path fill-rule="evenodd" clip-rule="evenodd" d="M1573.93 1199.67C1573.93 1199.67 1934.75 986.081 1971.32 843.4C2007.9 700.716 1592.15 276.624 1619.54 116.354C1646.93 -43.916 2468.79 314.949 2468.79 314.949L2495.09 1989.76L2126.31 1420.19L2052.27 1697.61L1985.51 1469.54L1920.54 1644.87L1826.75 1449.18L1813.57 1670.85L1693.52 1447.93L1641.55 1673.86L1573.93 1199.67Z" fill="#808080" stroke="white" stroke-width="9.00035" stroke-miterlimit="1.5" stroke-linecap="square" stroke-linejoin="round"/>
<path fill-rule="evenodd" clip-rule="evenodd" d="M1712.95 350.219C1839.28 473.611 1939.44 618.187 2026.25 781.801C2007.21 845.807 1996.72 902.432 1933.99 928.98C1955.34 886.488 1979.87 847.274 1974.01 776.76C1903.23 626.167 1811.55 486.403 1712.95 350.219Z" fill="black" fill-opacity="0.3"/>
<path fill-rule="evenodd" clip-rule="evenodd" d="M1683.71 210.45C1683.71 210.45 1634.16 122.899 1655.6 106.133C1677.03 89.3668 1812.33 109.854 1812.33 109.854C1722.26 105.748 1661.54 124.831 1683.71 210.45Z" fill="white"/>
<path d="M1905.92 415.702C1971.77 415.702 2025.16 369.759 2025.16 313.086C2025.16 256.412 1971.77 210.469 1905.92 210.469C1840.07 210.469 1786.69 256.412 1786.69 313.086C1786.69 369.759 1840.07 415.702 1905.92 415.702Z" fill="#636363" stroke="white" stroke-width="9.99999" stroke-miterlimit="1.5" stroke-linecap="round" stroke-linejoin="round"/>
<path fill-rule="evenodd" clip-rule="evenodd" d="M1614.03 1798.29L1626.03 1816.87C1629.3 1821.91 1634.92 1824.93 1640.92 1824.87C1646.93 1824.82 1652.49 1821.68 1655.65 1816.58L1887.49 1442.06L1857.69 1423.61L1848.46 1438.51L1640.43 1774.57L1635.2 1766.49L1779.39 1523.68C1784.17 1515.63 1781.78 1505.25 1773.97 1500.1L1689.74 1444.54C1684.99 1441.41 1679.02 1440.78 1673.72 1442.85C1668.42 1444.91 1664.45 1449.43 1663.08 1454.95L1567.44 1840.51C1566.27 1845.2 1567.1 1850.17 1569.72 1854.23L1630.47 1948.4C1633.76 1953.48 1639.44 1956.52 1645.49 1956.42C1651.55 1956.32 1657.12 1953.09 1660.24 1947.9L2062.74 1314.77L2032.67 1296.76L1644.65 1905.71L1603.29 1841.6L1614.03 1798.29ZM1641.63 1687.01L1691.13 1487.45L1740.72 1520.15L1641.63 1687.01Z" fill="#636769" stroke="white" stroke-width="9.99799" stroke-miterlimit="2" stroke-linejoin="round"/>
<path fill-rule="evenodd" clip-rule="evenodd" d="M2293.28 663.587L2159.16 640.073L2263.4 1153.29L2079.24 882.468C2079.24 882.468 2230.89 1316.51 2202.74 1282.57C2174.58 1248.63 2078.24 1146.69 2078.24 1146.69L2065.66 1469.34L1991.26 1301.73L1933.72 1532.48L1883 1329.36L1824.66 1550.39L1756.52 1362.49" fill="#636363"/>
<path fill-rule="evenodd" clip-rule="evenodd" d="M2078.66 1153.01C2075.63 1258.51 2072.66 1364 2069.63 1469.49C2069.58 1471.41 2067.92 1473.26 2065.75 1473.31C2063.98 1473.35 2062.53 1472.13 2062.04 1470.95C2038.46 1414.97 2014.95 1358.97 1991.37 1302.99C1973.27 1379.98 1955.32 1457.01 1937.22 1534C1937.16 1534.25 1936.23 1535.93 1934.35 1536.24C1932.27 1536.59 1930.42 1535.11 1930.03 1533.4C1914.33 1465.7 1898.7 1397.99 1883 1330.29C1864.6 1404.14 1846.35 1478.04 1827.94 1551.89C1827.88 1552.13 1826.95 1553.73 1825.13 1553.96C1824.85 1554 1823.15 1554.22 1821.88 1552.67C1820.84 1551.4 1821.13 1551.22 1752.03 1360.38L1758.62 1357.99L1824.61 1549.32C1843 1475.51 1861.24 1401.66 1879.63 1327.84C1879.68 1327.6 1880.59 1325.99 1882.42 1325.7C1884.45 1325.37 1886.23 1326.82 1886.61 1328.47C1902.33 1396.16 1918 1463.87 1933.72 1531.56C1951.76 1454.45 1969.65 1377.29 1987.69 1300.17C1987.75 1299.92 1988.69 1298.21 1990.61 1297.88C1992.69 1297.53 1993.92 1298.85 1994.12 1299.07C1994.27 1299.23 1994.44 1299.38 1994.52 1299.58C2018.23 1355.85 2041.78 1412.19 2065.49 1468.46L2074.21 1146.54C2074.26 1144.88 2075.54 1143.11 2077.48 1142.73C2079.59 1142.32 2080.96 1143.7 2081.18 1143.92C2081.22 1143.96 2135.56 1201.45 2174.42 1244.29C2189.22 1260.61 2197.05 1269.58 2201.32 1274.58C2196.71 1249.11 2172.57 1168.73 2117.26 1005.5C2100.26 955.322 2083.93 908.055 2075.91 885.024C2075.86 884.874 2075.37 883.457 2075.31 883.128C2074.87 880.527 2077.13 878.181 2079.74 878.514C2081.03 878.678 2082.03 879.584 2082.11 879.704C2142.49 970.633 2202.72 1061.66 2263.1 1152.59C2227.3 981.984 2191.45 811.391 2155.65 640.786C2155.25 638.891 2156.57 636.843 2158.63 636.532C2160.02 636.322 2160.03 636.591 2297.34 660.74L2296.13 667.647L2160.61 641.48C2196.11 811.831 2231.68 982.17 2267.18 1152.52C2267.64 1154.74 2265.97 1157.01 2263.62 1157.15C2261.97 1157.24 2260.73 1156.13 2260.62 1155.98C2203.1 1069.37 2145.7 982.669 2088.19 896.052C2113.39 968.644 2207.63 1241.86 2210.23 1279.97C2210.33 1281.35 2210.86 1286.84 2206.73 1288.27C2202.74 1289.65 2199.67 1285.24 2198.95 1284.37C2172.53 1252.76 2093.21 1168.46 2078.66 1153.01Z" fill="white"/>
<path fill-rule="evenodd" clip-rule="evenodd" d="M2205.67 545.283L2073.79 500.205L2260.95 895.499L2081.06 708.315C2081.06 708.315 2270.65 1061.64 2234.85 1035.9C2199.05 1010.15 2080.12 935.801 2080.12 935.801L2171.09 1221.48L2021.04 1042.48L2048.27 1408.35L1924.95 1149.89L1936.52 1390.4L1823.2 1225.75" fill="#808080"/>
<path fill-rule="evenodd" clip-rule="evenodd" d="M2082.74 942.235C2113.45 1034.91 2144.22 1127.58 2174.92 1220.26C2175.46 1221.88 2174.79 1224.03 2173.03 1225C2171.61 1225.78 2169.73 1225.6 2168.49 1224.55C2168.32 1224.4 2168.15 1224.24 2168 1224.06C2119.15 1163.93 2070.35 1103.74 2021.5 1043.6C2031.64 1165.32 2041.95 1287.01 2052.09 1408.73C2052.11 1408.92 2051.81 1410.56 2050.46 1411.5C2048.76 1412.68 2046.34 1412.25 2045.14 1410.57C2045.01 1410.39 2044.9 1410.2 2044.81 1410C2004.9 1323.54 1965.04 1237.06 1925.13 1150.6C1930.06 1230.68 1935.16 1310.76 1940.09 1390.84C1940.11 1391.11 1939.67 1392.95 1937.96 1393.7C1937.7 1393.81 1936.08 1394.51 1934.42 1393.32C1933.07 1392.35 1933.31 1392.08 1818.32 1224.84L1824.1 1220.87L1936.2 1389.46C1931.28 1309.45 1926.19 1229.45 1921.27 1149.43C1921.25 1149.16 1921.7 1147.27 1923.45 1146.49C1925.36 1145.64 1927.54 1146.63 1928.31 1148.29C1968.25 1234.74 2008.14 1321.21 2048.09 1407.66C2037.81 1285.8 2027.36 1163.96 2017.09 1042.11C2017.06 1041.82 2017.45 1039.84 2019.24 1038.93C2021.02 1038.02 2023.1 1038.69 2024.09 1039.92C2072.98 1100.2 2121.82 1160.52 2170.71 1220.79C2139.25 1126.2 2107.71 1031.63 2076.25 937.034C2075.79 935.652 2076.19 933.706 2077.63 932.593C2078.42 931.976 2080.27 931.18 2082.27 932.359C2082.28 932.366 2196.32 1003.68 2234.8 1030.91C2231.46 1016.02 2212.73 975.897 2212.15 974.638C2174.65 893.205 2102.2 756.171 2078.14 711.181C2078.07 711.054 2077.44 709.872 2077.33 709.563C2076.51 707.113 2078.33 704.494 2080.91 704.395C2082.7 704.327 2083.71 705.41 2083.88 705.598C2142.81 768.715 2201.68 831.877 2260.6 894.994C2197.27 763.901 2133.88 632.832 2070.55 501.74C2069.89 500.38 2070.21 498.479 2071.55 497.407C2071.74 497.262 2072.8 496.414 2074.37 496.672C2075.06 496.786 2075.05 496.852 2210.13 543.1L2207.86 549.736L2074.83 501.133C2138.05 632.264 2201.41 763.327 2264.62 894.458C2264.74 894.698 2265.08 896.575 2263.83 898.009C2262.29 899.769 2259.59 899.634 2258.2 898.146C2202.64 838.664 2147.12 779.144 2091.56 719.657C2126.15 784.598 2236.36 993.242 2243.02 1031C2243.24 1032.21 2244.64 1038.88 2239.9 1040.86C2236.24 1042.39 2232.65 1039.27 2230.78 1037.94C2197.28 1014.16 2102.04 954.334 2082.74 942.235Z" fill="white"/>
<path d="M1976.69 774.036L2051.2 749.697L2057.49 802.577L2197.06 857.756" stroke="white" stroke-width="9.99999" stroke-miterlimit="1.5" stroke-linecap="round" stroke-linejoin="round"/>
<path d="M2121.37 942.914C2155.86 942.914 2183.82 916.005 2183.82 882.811C2183.82 849.618 2155.86 822.709 2121.37 822.709C2086.88 822.709 2058.92 849.618 2058.92 882.811C2058.92 916.005 2086.88 942.914 2121.37 942.914Z" fill="#989CA0"/>
<path fill-rule="evenodd" clip-rule="evenodd" d="M2121.37 812.709C2161.46 812.709 2193.82 844.228 2193.82 882.812C2193.82 921.395 2161.46 952.914 2121.37 952.914C2081.28 952.914 2048.92 921.395 2048.92 882.812C2048.92 844.228 2081.28 812.709 2121.37 812.709ZM2121.37 822.709C2086.9 822.709 2058.92 849.64 2058.92 882.812C2058.92 915.983 2086.9 942.914 2121.37 942.914C2155.84 942.914 2183.82 915.983 2183.82 882.812C2183.82 849.64 2155.84 822.709 2121.37 822.709Z" fill="white"/>
<path fill-rule="evenodd" clip-rule="evenodd" d="M1865.83 986.523L1905.76 950.715C1965.86 990.518 1991.96 1032.23 1987.86 1106.24L1957.21 1128.01C1936.4 1044.52 1918.15 1029.29 1865.83 986.523Z" fill="#8DCCB5" fill-opacity="0.5" stroke="white" stroke-width="9.99799" stroke-miterlimit="1.5" stroke-linecap="round" stroke-linejoin="round"/>
<path fill-rule="evenodd" clip-rule="evenodd" d="M2230.21 1097.62L2201.86 870.625L2009.73 1155.42L2114.16 1167.56L2011.75 1356.89L1855.3 1487.59L1871.87 1548.8L1827.93 1665.32L1892.88 1582.05L1919.32 1626.64L1991.83 1470.51L2050.01 1646.37L2230.21 1097.62Z" fill="black" fill-opacity="0.3"/>
<path fill-rule="evenodd" clip-rule="evenodd" d="M2276.7 475.14L2436.89 269.874C2271.18 111.027 2055.99 59.5835 1820.63 51.9531L1974.11 378.182L2276.7 475.14Z" fill="#A4A4A4" stroke="white" stroke-width="11.001" stroke-miterlimit="1.5" stroke-linecap="square" stroke-linejoin="round"/>
<path fill-rule="evenodd" clip-rule="evenodd" d="M1911.8 174.046C1914.26 60.4922 2187.58 163.275 2373.44 226.283C2219.25 154.902 2064.35 104.144 1878.72 83.9922L1911.8 174.046Z" fill="white"/>
<path fill-rule="evenodd" clip-rule="evenodd" d="M-304.128 722.025L-503.055 459.467C-325.319 347.872 -166.251 232.18 172.537 118.397L176.296 407.461L-304.128 722.025Z" fill="#A4A4A4"/>
<mask id="mask0_2055_172" style="mask-type:luminance" maskUnits="userSpaceOnUse" x="-504" y="118" width="681" height="605">
<path d="M-304.128 722.025L-503.055 459.467C-325.319 347.872 -166.251 232.18 172.537 118.397L176.296 407.461L-304.128 722.025Z" fill="white"/>
</mask>
<g mask="url(#mask0_2055_172)">
<path fill-rule="evenodd" clip-rule="evenodd" d="M151.556 154.826L147.199 384.905L130.377 192.837L17.1484 198.001L151.556 154.826Z" fill="white"/>
</g>
<path fill-rule="evenodd" clip-rule="evenodd" d="M-304.128 722.025L-503.055 459.467C-325.319 347.872 -166.251 232.18 172.537 118.397L176.296 407.461L-304.128 722.025Z" stroke="white" stroke-width="9.00035" stroke-miterlimit="1.5" stroke-linecap="square" stroke-linejoin="round"/>
<path fill-rule="evenodd" clip-rule="evenodd" d="M778.474 1971.16L913.385 2048.09C913.385 2048.09 620.845 2570.5 571.866 2644.37C555.672 2668.8 441.088 2786.77 442.828 2766.51C444.92 2742.13 449.43 2655.36 482.603 2546.9C545.586 2340.99 655.893 2067.36 655.893 2067.36L778.474 1971.16Z" fill="#777777" stroke="white" stroke-width="9.82763" stroke-miterlimit="1.5" stroke-linecap="round" stroke-linejoin="round"/>
<path fill-rule="evenodd" clip-rule="evenodd" d="M579.981 1987.84L722.864 2081.94C722.864 2081.94 556.161 2281.38 515.132 2337.95C497.955 2361.64 394.014 2426.29 394.014 2426.29C394.014 2426.29 432.202 2247.02 464.768 2180.46C494.517 2119.66 579.981 1987.84 579.981 1987.84Z" fill="#777777" stroke="white" stroke-width="9.82763" stroke-miterlimit="1.5" stroke-linecap="round" stroke-linejoin="round"/>
<path fill-rule="evenodd" clip-rule="evenodd" d="M891.447 2022.29L1039.94 2065.3C1039.94 2065.3 819.917 2599.18 783.802 2680.51C754.504 2746.48 672.056 2835.24 669.478 2815.1C667.064 2796.25 649.688 2713.58 660.091 2646.22C692.807 2434.39 792.98 2097.27 792.98 2097.27L891.447 2022.29Z" fill="#777777" stroke="white" stroke-width="9.86092" stroke-miterlimit="1.5" stroke-linecap="round" stroke-linejoin="round"/>
<path fill-rule="evenodd" clip-rule="evenodd" d="M472.418 2317.9C471.635 2317.35 471.636 2317.29 471.474 2316.35C471.264 2315.14 471.428 2315.12 472.065 2314.07C475.643 2308.14 502.894 2263 518.347 2240.93C520.839 2237.38 532.076 2221.33 550.477 2197.18C562.707 2181.13 579.963 2158.85 579.997 2158.83C580.533 2158.51 580.992 2157.98 581.608 2157.86C581.626 2157.86 583.393 2158.23 583.398 2158.23C583.719 2158.74 584.246 2159.18 584.353 2159.77C584.577 2161.02 584.375 2161.03 583.708 2162.1C571.093 2182.42 571.132 2182.44 558.355 2202.65C535.309 2239.11 524.281 2254.12 521.103 2258.44C517.588 2263.23 500.648 2286.28 475.836 2317.26C475.211 2318.04 475.176 2318.06 474.192 2318.24C473.256 2318.42 473.201 2318.44 472.418 2317.9Z" fill="black"/>
<path fill-rule="evenodd" clip-rule="evenodd" d="M519.268 2612.96C518.221 2612.42 518.198 2612.36 517.847 2611.24C517.62 2610.51 517.863 2609.7 518.008 2608.96C518.039 2608.8 545.01 2553.08 560.227 2522.2C580.528 2481 591.796 2458.92 594.591 2453.44C611.976 2419.37 640.525 2365.89 644.574 2358.3C668.381 2313.7 715.718 2226.22 715.779 2226.17C716.36 2225.69 716.808 2224.96 717.526 2224.73C718.234 2224.51 719.009 2224.84 719.751 2224.9C721.882 2225.08 721.107 2228.56 721.034 2228.89C721.023 2228.94 690.889 2290.12 669.505 2333.23C623.664 2425.64 604.78 2461.24 598.936 2472.26C592.99 2483.47 563.327 2539.4 523.268 2611.66C522.684 2612.72 522.639 2612.75 521.494 2613.12C520.377 2613.48 520.314 2613.5 519.268 2612.96Z" fill="black"/>
<path fill-rule="evenodd" clip-rule="evenodd" d="M726.477 2682.26C725.345 2681.92 725.309 2681.87 724.753 2680.83C724.394 2680.16 724.473 2679.32 724.49 2678.56C724.494 2678.39 744.178 2606.42 755.357 2566.45C770.271 2513.14 778.655 2484.46 780.734 2477.34C793.67 2433.09 815.245 2363.28 818.304 2353.38C836.297 2295.15 872.235 2180.78 872.286 2180.71C872.766 2180.13 873.066 2179.33 873.729 2178.97C873.744 2178.97 875.963 2178.73 875.97 2178.73C876.547 2179.21 877.341 2179.5 877.696 2180.15C878.055 2180.81 877.995 2181.65 877.957 2182.4C877.954 2182.45 855.82 2261.62 840.071 2317.44C806.312 2437.1 792.072 2483.54 787.665 2497.92C783.183 2512.54 760.814 2585.5 730.163 2680.23C729.793 2681.38 729.756 2681.42 728.701 2682C727.669 2682.57 727.608 2682.59 726.477 2682.26Z" fill="black"/>
<path fill-rule="evenodd" clip-rule="evenodd" d="M1370.27 2012.02L1259.4 2122.31C1259.4 2122.31 1630.24 2543.24 1696.19 2601.51C1718 2620.78 1848.78 2704.79 1841.58 2685.9C1831.52 2659.53 1803.29 2560.18 1740.32 2447.05C1644.03 2274.08 1502.49 2071.82 1502.49 2071.82L1370.27 2012.02Z" fill="#777777" stroke="white" stroke-width="9.81635" stroke-miterlimit="1.5" stroke-linecap="round" stroke-linejoin="round"/>
<path fill-rule="evenodd" clip-rule="evenodd" d="M1598.99 2009.5L1451.95 2104.17C1451.95 2104.17 1664.08 2267.56 1717.99 2311.25C1740.56 2329.53 1827.3 2366.8 1827.3 2366.8C1827.3 2366.8 1751.06 2223.3 1715.5 2161.2C1685.78 2109.29 1598.99 2009.5 1598.99 2009.5Z" fill="#777777" stroke="white" stroke-width="9.81635" stroke-miterlimit="1.5" stroke-linecap="round" stroke-linejoin="round"/>
<path fill-rule="evenodd" clip-rule="evenodd" d="M1432.79 2450.21L1423.43 2563.17L1351.81 2485.4L1272.32 2656.5L1202.31 2535.13L1065.59 2757.26L1024.97 2592.89L942.362 2719.49L913.348 2744.47L873.489 2533.84L844.517 2507.17L716.906 2739.55L645.839 2751.77L687.81 2505.03L636.461 2519.65L448.437 2767.51L531.597 2398.82L509.055 2340.63L394.826 2399.34L414.008 2306.28L337.869 2327L533.694 1923.68L505.921 1813.49L348.217 1622.6L289.82 1748.57L211.72 1576.13L156.126 1814.63L94.5291 1581.29L-46.8645 1681.53L-94.375 962.813C-19.5817 947.596 70.8068 979.199 14.8276 1040.28C-16.8366 1074.82 79.4869 1117.14 132.566 1099.07C230.288 1065.81 300.576 1201 387.241 1228.49L778.3 2066.92L1432.79 2450.21Z" fill="black" fill-opacity="0.3"/>
<path fill-rule="evenodd" clip-rule="evenodd" d="M1657.41 2110.1L1652.26 2119.74C1701.19 2173.55 1727.18 2223.59 1762.58 2283.93C1732.27 2219.19 1706.99 2166.16 1657.41 2110.1Z" fill="white"/>
<path fill-rule="evenodd" clip-rule="evenodd" d="M1591.4 2242.35L1647.55 2342.49C1689.34 2399.67 1727.46 2477.74 1762.86 2538.08C1732.55 2473.34 1640.98 2298.41 1591.4 2242.35Z" fill="white"/>
<path fill-rule="evenodd" clip-rule="evenodd" d="M1274.08 2091.54L1141.53 2172.69C1131.58 2176.66 1390.28 2549.37 1482.66 2647.55C1529.9 2697.77 1655.6 2821.46 1653 2801.33C1648.92 2769.68 1620.77 2658.07 1569.58 2532.56C1494.39 2348.21 1388.1 2137.67 1388.1 2137.67L1274.08 2091.54Z" fill="#777777" stroke="white" stroke-width="9.82723" stroke-miterlimit="1.5" stroke-linecap="round" stroke-linejoin="round"/>
<path fill-rule="evenodd" clip-rule="evenodd" d="M1476.4 2376.58L1518.73 2483.3C1552.55 2545.53 1579.95 2627.97 1607.01 2692.49C1585.58 2624.29 1518.08 2438.74 1476.4 2376.58Z" fill="white"/>
<path fill-rule="evenodd" clip-rule="evenodd" d="M1552.9 2637.7C1551.88 2638.27 1551.83 2638.26 1550.7 2637.95C1549.97 2637.74 1549.44 2637.11 1548.9 2636.57C1548.78 2636.46 1513.08 2576.67 1493.42 2543.29C1467.2 2498.77 1453.34 2474.56 1449.91 2468.56C1428.53 2431.21 1395.61 2371.48 1390.94 2363C1363.49 2313.19 1309.98 2214.91 1309.97 2214.83C1309.88 2214.09 1309.52 2213.33 1309.72 2212.61C1309.72 2212.59 1311.07 2210.85 1311.09 2210.84C1311.81 2210.76 1312.57 2210.39 1313.28 2210.59C1314 2210.79 1314.56 2211.4 1315.07 2211.95C1315.1 2211.99 1354.05 2278.09 1381.41 2324.8C1440.07 2424.94 1462.05 2464.59 1468.84 2476.87C1475.76 2489.36 1510.28 2551.66 1554 2633.68C1554.56 2634.73 1554.56 2634.79 1554.25 2635.94C1553.94 2637.06 1553.92 2637.12 1552.9 2637.7Z" fill="black"/>
<path fill-rule="evenodd" clip-rule="evenodd" d="M1743.06 2572.93C1742.13 2573.63 1742.07 2573.62 1740.91 2573.45C1740.17 2573.34 1739.55 2572.78 1738.94 2572.33C1738.81 2572.23 1700.21 2523.38 1678.93 2496.06C1650.53 2459.62 1635.46 2439.74 1631.73 2434.8C1608.51 2404.13 1572.57 2354.85 1567.47 2347.87C1537.51 2306.77 1479.02 2225.6 1479.01 2225.52C1478.82 2224.79 1478.37 2224.08 1478.48 2223.34C1478.58 2222.61 1479.22 2222.06 1479.59 2221.43C1480.67 2219.6 1483.43 2221.8 1483.69 2222C1483.73 2222.04 1525.91 2276.14 1555.57 2314.4C1619.13 2396.42 1643.11 2429.11 1650.52 2439.23C1658.07 2449.53 1695.72 2500.89 1743.64 2568.8C1744.31 2569.78 1744.33 2569.83 1744.16 2571.01C1744.01 2572.16 1743.99 2572.23 1743.06 2572.93Z" fill="black"/>
<path fill-rule="evenodd" clip-rule="evenodd" d="M1749.67 2295.63C1748.84 2296.43 1748.78 2296.42 1747.63 2296.39C1746.18 2296.36 1746.19 2296.17 1745.12 2295.18C1740.22 2290.64 1706.54 2259.44 1684.82 2237.37C1671.81 2224.16 1652 2202.45 1649.19 2199.37C1632.67 2181.28 1600.58 2145.29 1600.55 2145.22C1600.3 2144.51 1599.76 2143.85 1599.78 2143.1C1599.78 2143.09 1600.64 2141.08 1600.64 2141.08C1601.32 2140.81 1601.96 2140.29 1602.69 2140.3C1603.44 2140.31 1604.1 2140.81 1604.76 2141.15C1604.81 2141.17 1628.68 2164.05 1645.42 2180.29C1681.33 2215.11 1694.59 2229.47 1698.68 2233.91C1702.86 2238.44 1723.67 2260.99 1749.72 2291.47C1750.5 2292.38 1750.52 2292.43 1750.51 2293.62C1750.49 2294.77 1750.5 2294.84 1749.67 2295.63Z" fill="black"/>
</g>
<defs>
<clipPath id="clip0_2055_172">
<rect width="2160" height="2700" fill="white"/>
</clipPath>
</defs>
</svg>
