<svg width="2160" height="2700" viewBox="0 0 2160 2700" fill="none" xmlns="http://www.w3.org/2000/svg">
<path d="M1104.87 2142.78C1418.32 2142.78 1672.42 1861.85 1672.42 1515.3C1672.42 1168.76 1418.32 887.826 1104.87 887.826C791.412 887.826 537.307 1168.76 537.307 1515.3C537.307 1861.85 791.412 2142.78 1104.87 2142.78Z" fill="#777777" stroke="#8D8D8D" stroke-width="1.99277" stroke-miterlimit="1.5" stroke-linecap="round" stroke-linejoin="round"/>
<path d="M558.149 1722.07L1054.38 1643.6L1064.15 1610.37L1103.15 1609.73L1108.62 1640.65L1613.5 1709.77" stroke="black" stroke-width="7" stroke-miterlimit="1.5" stroke-linecap="round" stroke-linejoin="round"/>
<path d="M552.258 1854.32L1048.49 1775.85L1058.26 1742.62L1097.26 1741.98L1102.73 1772.9L1607.61 1842.02" stroke="black" stroke-width="7" stroke-miterlimit="1.5" stroke-linecap="round" stroke-linejoin="round"/>
<path d="M556.498 1992.98L1052.73 1914.51L1062.5 1881.28L1101.5 1880.64L1106.97 1911.56L1611.85 1980.68" stroke="black" stroke-width="7" stroke-miterlimit="1.5" stroke-linecap="round" stroke-linejoin="round"/>
<path d="M1216.98 1407.97H947.103V1548.99H1216.98V1407.97Z" fill="black" fill-opacity="0.3" stroke="black" stroke-width="4.29187" stroke-miterlimit="1.5" stroke-linecap="round" stroke-linejoin="round"/>
<path d="M1202.81 1423.28H960.254V1440.22H1202.81V1423.28Z" fill="black" stroke="black" stroke-width="1.41056" stroke-miterlimit="1.5" stroke-linecap="round" stroke-linejoin="round"/>
<path d="M1204.34 1453.74H961.784V1470.69H1204.34V1453.74Z" fill="black" stroke="black" stroke-width="1.41056" stroke-miterlimit="1.5" stroke-linecap="round" stroke-linejoin="round"/>
<path d="M1205.23 1484.96H962.676V1501.91H1205.23V1484.96Z" fill="black" stroke="black" stroke-width="1.41056" stroke-miterlimit="1.5" stroke-linecap="round" stroke-linejoin="round"/>
<path d="M1205.53 1517.11H962.971V1534.05H1205.53V1517.11Z" fill="black" stroke="black" stroke-width="1.41056" stroke-miterlimit="1.5" stroke-linecap="round" stroke-linejoin="round"/>
<path d="M1219.67 1167.83H920.763V1311.44H1219.67V1167.83Z" fill="#1D9A6C" stroke="black" stroke-width="6" stroke-miterlimit="1.5" stroke-linecap="round" stroke-linejoin="round"/>
<path d="M936.231 1189.33H949.525L976.827 1242L966.872 1189.33H980.292V1289.2H966.872L939.731 1233.46L949.619 1289.2H936.231V1189.33Z" fill="#F8F7E9"/>
<path d="M986.58 1189.33H1002.26L1010.73 1245.96L1018.35 1189.33H1033.88L1019.55 1237.7L1035.23 1289.2H1019.23L1010.73 1245.96L1001.03 1289.2H985.131L1001.03 1237.15L986.58 1189.33Z" fill="#F8F7E9"/>
<path d="M1036.58 1189.33H1079.85L1079.24 1239.1H1064.73L1065.33 1289.2H1051.1L1050.49 1239.1H1035.97L1036.58 1189.33Z" fill="#F8F7E9"/>
<path d="M1086.3 1189.33H1100.54L1100.54 1240.58H1122.76L1122.75 1289.2H1086.3V1189.33Z" fill="#F8F7E9"/>
<path d="M1121.4 1189.33H1136.3L1146.67 1261.2L1156.88 1189.33H1171.34L1144.39 1305.77L1121.4 1189.33Z" fill="#F8F7E9"/>
<path d="M1176.02 1189.33H1190.26L1189.79 1244.83H1212.01L1212.48 1289.2H1176.02V1189.33Z" fill="#F8F7E9"/>
<path d="M1607.83 1334.67H547.293V1385.19H1607.83V1334.67Z" fill="#FF8B3E" stroke="black" stroke-width="7.91677" stroke-miterlimit="1.5" stroke-linecap="round" stroke-linejoin="round"/>
<path fill-rule="evenodd" clip-rule="evenodd" d="M827.531 1069.31L795.333 1055.36L560.645 1069.31V1854.45C560.645 1854.45 798.899 1938.68 827.531 1854.45C872.012 1723.59 827.531 1069.31 827.531 1069.31Z" fill="#292929" stroke="black" stroke-width="6" stroke-miterlimit="1.5" stroke-linecap="round" stroke-linejoin="round"/>
<path fill-rule="evenodd" clip-rule="evenodd" d="M842.216 1761.36L585.694 1772.51L581.155 1718.2L842.911 1713.72L842.216 1761.36Z" fill="#BABABA"/>
<path fill-rule="evenodd" clip-rule="evenodd" d="M634.679 1847.2L685.225 1838.65L694.137 1855.24L717.473 1836.16L738.38 1862.79L756.755 1837.14L773.432 1857.45L797.424 1837.31L802.732 1859.05L828.563 1832.1L824.808 1867.88L726.95 1893.88L618.22 1895.52L634.679 1847.2Z" fill="#BABABA"/>
<path fill-rule="evenodd" clip-rule="evenodd" d="M781.402 1179.64C781.402 1179.64 815.807 1206.56 818.152 1219.96C825.887 1264.18 827.81 1444.94 827.81 1444.94L824.25 1098.18C824.25 1098.18 826.01 1177.3 822.544 1190.02C820.872 1196.16 803.452 1174.54 803.452 1174.54L810.961 1196.88L781.402 1179.64Z" fill="white"/>
<path fill-rule="evenodd" clip-rule="evenodd" d="M693.888 1429.31C698.104 1415.36 669.518 1281.72 669.518 1281.72C669.518 1281.72 724.4 1424.04 739.307 1417.55C754.215 1411.07 758.962 1242.81 758.962 1242.81C758.962 1242.81 786.982 1377.56 795.462 1389.75C803.943 1401.93 801.715 1291.67 809.845 1315.94C817.975 1340.2 819.594 1446.59 823.786 1466.57C825.513 1474.8 834.995 1435.77 834.995 1435.77C834.16 1506 845.735 1587.28 823.492 1607.17C823.492 1607.17 797.113 1505.36 786.957 1522.41C776.802 1539.46 744.084 1684.12 744.084 1684.12C744.084 1684.12 730.096 1551.87 712.29 1538.1C694.484 1524.33 637.247 1601.51 637.247 1601.51L663.275 1489.82L599.828 1432.49C599.828 1432.49 672.279 1461.9 679.678 1450.72C687.076 1439.54 644.22 1365.4 644.22 1365.4C644.22 1365.4 689.671 1443.26 693.888 1429.31Z" fill="white" fill-opacity="0.2"/>
<path d="M635.53 1388.7L621.347 1389.02C621.195 1387.23 628.455 1385.36 628.1 1384.03C627.079 1380.22 625.217 1378.32 622.514 1378.32C620.158 1378.32 618.39 1379.18 617.212 1380.91C616.033 1382.64 615.445 1385.24 615.445 1388.7C615.445 1391.25 616.087 1393.68 617.373 1395.99L631.593 1420.46C634.218 1424.99 635.53 1429.85 635.53 1435.05V1440.11C635.53 1445.71 634.218 1450.56 631.593 1454.63C628.968 1458.71 625.808 1460.75 622.112 1460.75H615.445C610.999 1460.75 607.651 1459.04 605.401 1455.62C603.152 1452.2 602.027 1447.03 602.027 1440.11L615.981 1440.71C615.981 1441.45 609.122 1443.09 609.122 1443.5C609.122 1446.31 609.472 1446.79 610.865 1448.27C612.257 1449.75 613.784 1450.49 615.445 1450.49C617.801 1450.49 619.502 1449.61 620.546 1447.84C621.59 1446.07 622.112 1443.49 622.112 1440.11C622.112 1437.48 621.47 1435.05 620.184 1432.82L605.964 1408.35C603.339 1403.9 602.027 1399.04 602.027 1393.77V1388.7C602.027 1383.1 603.339 1378.26 605.964 1374.18C608.589 1370.1 611.749 1368.06 615.445 1368.06H622.112C630.522 1368.06 634.994 1374.94 635.53 1388.7Z" fill="white"/>
<path d="M642.029 1460.86L648.867 1452.63V1388.7C648.867 1383.02 650.192 1378.15 652.844 1374.12C655.495 1370.08 658.642 1368.06 662.284 1368.06H675.701C679.343 1368.06 682.477 1370.1 685.101 1374.18C687.725 1378.26 689.038 1383.1 689.038 1388.7V1460.75L670.374 1460.97L675.701 1453.62V1419.6H662.284V1460.75L642.029 1460.86ZM662.284 1409.21H675.701V1388.7C675.701 1385.82 675.045 1383.37 673.733 1381.35C672.42 1379.33 670.827 1378.32 668.952 1378.32C667.131 1378.32 665.564 1379.33 664.253 1381.35C662.94 1383.37 662.284 1385.82 662.284 1388.7V1409.21Z" fill="white"/>
<path d="M709.203 1460.75V1376.07L699.988 1375.89L722.541 1368.06V1454.43L729.333 1460.74L709.203 1460.75Z" fill="white"/>
<path d="M736.648 1461.21L742.626 1452.53V1374.98L731.913 1369.36L745.759 1368.06L784.283 1431.31L782.798 1372.87L773.467 1368.63L789.546 1368.06V1460.75H786.493L750.742 1399.4L749.375 1460.75L736.648 1461.21Z" fill="white"/>
<path d="M809.632 1460.75L813.544 1455.19L813.836 1378.73L800.517 1378.32L797.035 1385.02L796.215 1368.06H836.386L836.122 1385.13L832.578 1378.32H822.969V1460.75H809.632Z" fill="white"/>
<path fill-rule="evenodd" clip-rule="evenodd" d="M810.34 1087.26L813.146 1160.19L757.113 1161.79L760.733 1092.49L778.565 1088.33L737.446 955.311L772.744 942.953L794.768 1083.49L810.34 1087.26Z" fill="#BABABA" stroke="black" stroke-width="6" stroke-miterlimit="1.5" stroke-linecap="round" stroke-linejoin="round"/>
<path fill-rule="evenodd" clip-rule="evenodd" d="M1358.33 1296.27C1358.33 1301.54 1357.5 1329.61 1352.2 1329.61L1341.13 1303.27L1327.76 1304.31L1317.86 1329.73C1312.56 1329.73 1312.59 1296.38 1312.59 1291.11L1307.62 1272.96C1307.62 1267.69 1311.92 1263.41 1317.22 1263.41H1358.51C1363.81 1263.41 1368.11 1267.69 1368.11 1272.96L1358.33 1296.27Z" fill="#A37B6A" stroke="black" stroke-width="4.52666" stroke-miterlimit="1.5" stroke-linecap="round" stroke-linejoin="round"/>
<path d="M1313.38 1276.82C1313.38 1276.82 1315.06 1281.93 1319.9 1284.09C1325.38 1286.54 1334.12 1286.01 1334.3 1284.62C1334.64 1282.02 1338.19 1276.72 1338.19 1276.72L1339.14 1282.66C1339.14 1282.66 1342.16 1289.16 1351.41 1285.53C1360.66 1281.89 1363.04 1276.01 1363.04 1276.01" stroke="black" stroke-width="4.52793" stroke-miterlimit="1.5" stroke-linecap="round" stroke-linejoin="round"/>
<path d="M1255.11 1262.55C1255.11 1262.55 1258.23 1273.36 1265.4 1277.29" stroke="black" stroke-width="4" stroke-miterlimit="1.5" stroke-linecap="round" stroke-linejoin="round"/>
<path d="M1249.08 1269.11C1249.08 1269.11 1252.2 1279.92 1259.37 1283.85" stroke="black" stroke-width="4" stroke-miterlimit="1.5" stroke-linecap="round" stroke-linejoin="round"/>
<path d="M1416.46 1244.02C1416.46 1244.02 1413.34 1254.83 1406.17 1258.76" stroke="black" stroke-width="4" stroke-miterlimit="1.5" stroke-linecap="round" stroke-linejoin="round"/>
<path d="M1422.49 1250.58C1422.49 1250.58 1419.37 1261.39 1412.2 1265.32" stroke="black" stroke-width="4" stroke-miterlimit="1.5" stroke-linecap="round" stroke-linejoin="round"/>
<path d="M1397.47 1134.87C1397.47 1134.87 1406.7 1141.3 1408.12 1149.35" stroke="black" stroke-width="4" stroke-miterlimit="1.5" stroke-linecap="round" stroke-linejoin="round"/>
<path d="M1405.61 1131.26C1405.61 1131.26 1414.85 1137.69 1416.26 1145.74" stroke="black" stroke-width="4" stroke-miterlimit="1.5" stroke-linecap="round" stroke-linejoin="round"/>
<path d="M1262.88 1154.06C1262.88 1154.06 1241.5 1166.72 1240.08 1174.77" stroke="black" stroke-width="4" stroke-miterlimit="1.5" stroke-linecap="round" stroke-linejoin="round"/>
<path d="M1255.6 1148.4C1255.6 1148.4 1233.35 1163.11 1231.93 1171.16" stroke="black" stroke-width="4" stroke-miterlimit="1.5" stroke-linecap="round" stroke-linejoin="round"/>
<path d="M1335.78 1288.68L1335.7 1299.25" stroke="black" stroke-width="4.52793" stroke-miterlimit="1.5" stroke-linecap="round" stroke-linejoin="round"/>
<path d="M1328.65 1293.34L1343.43 1293.51" stroke="black" stroke-width="4.52793" stroke-miterlimit="1.5" stroke-linecap="round" stroke-linejoin="round"/>
<path fill-rule="evenodd" clip-rule="evenodd" d="M1392.67 1179.26C1390.85 1166.58 1379.08 1157.76 1366.39 1159.57L1280.9 1172.18C1268.21 1174 1259.39 1185.78 1261.21 1198.46L1262.37 1251.79C1264.19 1264.48 1275.96 1273.3 1288.65 1271.48L1387.54 1257.31C1400.22 1255.49 1409.05 1243.72 1407.23 1231.03L1392.67 1179.26Z" fill="#A37B6A" stroke="black" stroke-width="6.79189" stroke-miterlimit="1.5" stroke-linecap="round" stroke-linejoin="round"/>
<path d="M1299.09 1228.49C1305.81 1227.53 1310.63 1222.38 1309.86 1217C1309.09 1211.62 1303.02 1208.03 1296.3 1209C1289.58 1209.96 1284.76 1215.1 1285.53 1220.49C1286.3 1225.87 1292.37 1229.45 1299.09 1228.49Z" fill="black" stroke="black" stroke-width="6.79189" stroke-miterlimit="1.5" stroke-linecap="round" stroke-linejoin="round"/>
<path d="M1364.07 1217.35C1370.79 1216.39 1375.61 1211.25 1374.84 1205.86C1374.07 1200.48 1368 1196.9 1361.28 1197.86C1354.56 1198.82 1349.74 1203.97 1350.51 1209.35C1351.28 1214.73 1357.35 1218.31 1364.07 1217.35Z" fill="black" stroke="black" stroke-width="6.79189" stroke-miterlimit="1.5" stroke-linecap="round" stroke-linejoin="round"/>
<path d="M1345.73 1189.44L1372.56 1181.98" stroke="black" stroke-width="6.79189" stroke-miterlimit="1.5" stroke-linecap="round" stroke-linejoin="round"/>
<path d="M1278.97 1194.58L1312.4 1198.89" stroke="black" stroke-width="6.79189" stroke-miterlimit="1.5" stroke-linecap="round" stroke-linejoin="round"/>
<path d="M1330.12 1229.72L1335.6 1224.86" stroke="black" stroke-width="6.79189" stroke-miterlimit="1.5" stroke-linecap="round" stroke-linejoin="round"/>
<path d="M1309.08 1254.82C1332.07 1242.38 1356.59 1229.14 1383.37 1223.12" stroke="black" stroke-width="4.52793" stroke-miterlimit="1.5" stroke-linecap="round" stroke-linejoin="round"/>
<path fill-rule="evenodd" clip-rule="evenodd" d="M1265.31 1205.64L1273.61 1181.89L1324.24 1172.76L1326.83 1182.48L1331.1 1174.58L1339.71 1180.95L1340.94 1171.89L1382.21 1170.47L1394.47 1188.96L1391.5 1156.04L1395.97 1145.86L1388.81 1147.65L1378.22 1136.16L1379.52 1145.31L1322.49 1147.26L1328.92 1154.08L1278.95 1149.66L1284.32 1158.98L1257.43 1168.09L1262.32 1171.11L1251.6 1179.11L1256.36 1181.76L1259.44 1206.73L1265.31 1205.64Z" fill="#493126" stroke="black" stroke-width="4.52793" stroke-miterlimit="1.5" stroke-linecap="round" stroke-linejoin="round"/>
<path d="M1307.24 1299.71C1314.57 1299.71 1320.52 1295.16 1320.52 1289.53C1320.52 1283.91 1314.57 1279.35 1307.24 1279.35C1299.91 1279.35 1293.97 1283.91 1293.97 1289.53C1293.97 1295.16 1299.91 1299.71 1307.24 1299.71Z" fill="#D50409" stroke="black" stroke-width="5.28259" stroke-miterlimit="1.5" stroke-linecap="round" stroke-linejoin="round"/>
<path d="M1369.45 1289.8C1376.78 1289.8 1382.73 1285.24 1382.73 1279.62C1382.73 1274 1376.78 1269.44 1369.45 1269.44C1362.12 1269.44 1356.18 1274 1356.18 1279.62C1356.18 1285.24 1362.12 1289.8 1369.45 1289.8Z" fill="#D50409" stroke="black" stroke-width="5.28259" stroke-miterlimit="1.5" stroke-linecap="round" stroke-linejoin="round"/>
<path fill-rule="evenodd" clip-rule="evenodd" d="M1372.24 1274.8C1372.24 1274.8 1377.24 1275.99 1377.55 1277.55C1377.84 1279.11 1374.02 1284.17 1374.02 1284.17C1375.22 1280.18 1374.68 1277.04 1372.24 1274.8Z" fill="white"/>
<path fill-rule="evenodd" clip-rule="evenodd" d="M1362.53 1198.56C1362.53 1198.56 1365.01 1198.43 1365.53 1199.62C1366.15 1201.03 1364.31 1202.95 1364.31 1202.95C1361.05 1202.1 1360 1200.74 1362.53 1198.56Z" fill="white"/>
<path fill-rule="evenodd" clip-rule="evenodd" d="M1300.71 1211.01C1300.71 1211.01 1303.19 1210.88 1303.71 1212.07C1304.33 1213.48 1302.5 1215.4 1302.5 1215.4C1299.23 1214.55 1298.19 1213.19 1300.71 1211.01Z" fill="white"/>
<path fill-rule="evenodd" clip-rule="evenodd" d="M1310.4 1284.72C1310.4 1284.72 1315.4 1285.9 1315.7 1287.47C1316 1289.03 1312.18 1294.08 1312.18 1294.08C1313.38 1290.1 1312.83 1286.95 1310.4 1284.72Z" fill="white"/>
<path fill-rule="evenodd" clip-rule="evenodd" d="M1312.39 1303.15L1312.2 1314.49L1320.31 1315.39L1333.23 1310.56L1349.83 1316.58L1357.41 1315.75L1357.83 1303.74L1312.39 1303.15Z" fill="#AB0307" stroke="black" stroke-width="5.28259" stroke-miterlimit="1.5" stroke-linecap="round" stroke-linejoin="round"/>
<path fill-rule="evenodd" clip-rule="evenodd" d="M775.092 1004.16C775.092 1004.16 1156.84 985.388 1269.22 1094.74C1370.03 1192.84 1411.13 1341.53 1411.13 1341.53C1399.23 1619.69 1512.84 1944.37 785.625 1954.33L828.16 2059.64C1021.87 2132.23 1259.22 2087.77 1532.57 1946.74C1640.7 1619.33 1658.82 1317.52 1515.68 1005.02L1120.76 832.953C907.915 867.171 791.533 923.968 775.092 1004.16Z" fill="black" fill-opacity="0.3"/>
<path fill-rule="evenodd" clip-rule="evenodd" d="M1007.01 974.139L1036.36 956.636L1060.23 1017.63L1053.1 1046.58L1022.91 1062.22L969.687 1018.73L1007.01 974.139Z" fill="white"/>
<path fill-rule="evenodd" clip-rule="evenodd" d="M1003.67 968.555L1033.57 951.958C1034.94 951.137 1036.61 950.96 1038.12 951.479C1039.63 951.998 1040.85 953.158 1041.43 954.648C1041.43 954.648 1046.94 970.071 1052.7 985.41C1058.45 1000.74 1064.44 1015.98 1064.44 1015.98C1064.78 1016.85 1064.85 1017.8 1064.62 1018.71L1057.65 1047.71C1057.33 1049.01 1056.45 1050.13 1055.25 1050.75L1025.22 1066.67C1023.44 1067.59 1021.29 1067.37 1019.75 1066.1L966.034 1023.21C964.836 1022.23 964.082 1020.81 963.937 1019.28C963.791 1017.74 964.267 1016.21 965.258 1015.03L1002.02 969.97C1002.49 969.409 1003.05 968.93 1003.67 968.555ZM1007.01 974.14L969.687 1018.73L1022.91 1062.22L1053.1 1046.58L1060.23 1017.63L1036.36 956.636L1007.01 974.14Z" fill="black"/>
<path fill-rule="evenodd" clip-rule="evenodd" d="M971.448 1021.46L968.72 1023.23L965.192 1017.77L967.92 1016C967.92 1016 969.685 1015.27 972.307 1013.93C973.569 1013.29 975.029 1012.54 976.539 1011.62C978.353 1010.51 980.224 1009.15 982.106 1007.83C988.598 1003.27 994.858 998.606 994.858 998.606L997.584 996.845L1001.11 1002.31L998.385 1004.07C998.385 1004.07 991.559 1007.86 984.737 1011.9C982.755 1013.07 980.751 1014.22 978.993 1015.42C977.525 1016.41 976.244 1017.43 975.143 1018.32C972.84 1020.16 971.448 1021.46 971.448 1021.46Z" fill="black"/>
<path d="M1014.52 1039.19C1014.9 1038.74 1012.59 1036.24 1009.37 1033.6C1006.14 1030.97 1003.23 1029.2 1002.85 1029.65C1002.47 1030.1 1004.78 1032.6 1008 1035.23C1011.23 1037.87 1014.15 1039.64 1014.52 1039.19Z" fill="black"/>
<path fill-rule="evenodd" clip-rule="evenodd" d="M999.285 1026.67C1000.14 1025.8 1002.17 1023.98 1005.23 1025.44C1006.56 1026.07 1009.23 1027.87 1011.95 1030.43C1014.79 1032.78 1016.95 1035.09 1017.73 1036.29C1019.4 1038.88 1018.33 1040.93 1017.64 1041.79C1016.95 1042.64 1015.17 1043.95 1012.31 1042.93C1010.95 1042.45 1008.2 1040.81 1005.27 1038.57C1002.27 1036.33 999.991 1034.04 999.158 1032.84C997.19 1030 998.519 1027.65 999.285 1026.67ZM1002.84 1029.65C1002.47 1030.1 1004.78 1032.6 1008 1035.23C1011.22 1037.86 1014.14 1039.64 1014.52 1039.19C1014.9 1038.74 1012.58 1036.23 1009.37 1033.6C1006.15 1030.97 1003.22 1029.2 1002.84 1029.65ZM1007.8 1029.41C1008.12 1028.17 1008.08 1027.2 1006.94 1027.87C1006.53 1028.11 1007 1028.69 1007.8 1029.41Z" fill="black"/>
<path d="M1037.12 956.667L999.156 1002.03L1053.23 1046.21L1091.19 1000.85L1037.12 956.667Z" fill="white"/>
<path fill-rule="evenodd" clip-rule="evenodd" d="M1041.3 951.549L1094.13 997.245C1095.1 998.034 1095.7 999.174 1095.82 1000.41C1095.93 1001.64 1095.55 1002.88 1094.76 1003.83L1056.99 1049.35C1055.27 1051.41 1052.21 1051.7 1050.13 1050L995.505 1006.49C994.312 1005.51 993.563 1004.1 993.414 1002.57C993.272 1001.04 993.744 999.509 994.733 998.328L1032.04 952.426C1034.37 949.651 1038.49 949.257 1041.3 951.549ZM1037.12 956.667L999.156 1002.03L1053.23 1046.21L1091.19 1000.85L1037.12 956.667Z" fill="black"/>
<path d="M1028.43 1006.26C1029.64 1004.81 1028.01 1001.5 1024.79 998.871C1021.56 996.237 1017.97 995.276 1016.75 996.725C1015.54 998.173 1017.17 1001.48 1020.4 1004.12C1023.62 1006.75 1027.22 1007.71 1028.43 1006.26Z" fill="black"/>
<path fill-rule="evenodd" clip-rule="evenodd" d="M1013.59 994.076C1014.94 992.653 1017.04 991.618 1019.82 992.186C1021.93 992.621 1024.66 993.857 1027.08 996.054C1029.56 998.12 1031.22 1000.55 1031.93 1002.52C1032.83 1005.02 1032.36 1007.14 1031.2 1008.58C1030.05 1010.01 1028.03 1010.83 1025.4 1010.51C1023.28 1010.24 1020.54 1009.08 1017.96 1007.08C1015.34 1005.08 1013.59 1002.62 1012.8 1000.62C1011.75 997.952 1012.35 995.649 1013.59 994.076ZM1016.75 996.721C1015.54 998.169 1017.17 1001.48 1020.4 1004.12C1023.61 1006.74 1027.21 1007.71 1028.43 1006.26C1029.64 1004.81 1028 1001.5 1024.79 998.871C1021.56 996.239 1017.96 995.273 1016.75 996.721Z" fill="black"/>
<path d="M1077.09 1004.77C1078.3 1003.32 1076.67 1000.01 1073.45 997.379C1070.22 994.745 1066.63 993.784 1065.42 995.233C1064.2 996.681 1065.83 999.991 1069.06 1002.62C1072.28 1005.26 1075.88 1006.22 1077.09 1004.77Z" fill="black"/>
<path fill-rule="evenodd" clip-rule="evenodd" d="M1062.25 992.584C1063.6 991.161 1065.71 990.126 1068.48 990.694C1070.59 991.129 1073.32 992.364 1075.75 994.561C1078.22 996.628 1079.89 999.053 1080.59 1001.02C1081.49 1003.52 1081.03 1005.65 1079.86 1007.09C1078.71 1008.52 1076.69 1009.34 1074.06 1009.02C1071.94 1008.75 1069.2 1007.58 1066.63 1005.59C1064 1003.59 1062.25 1001.13 1061.46 999.129C1060.42 996.46 1061.01 994.157 1062.25 992.584ZM1065.41 995.229C1064.2 996.677 1065.84 999.992 1069.06 1002.62C1072.27 1005.25 1075.88 1006.22 1077.09 1004.77C1078.3 1003.32 1076.66 1000.01 1073.45 997.379C1070.23 994.746 1066.62 993.781 1065.41 995.229Z" fill="black"/>
<path d="M1048.82 983.136C1050.03 981.688 1048.4 978.378 1045.18 975.744C1041.96 973.11 1038.36 972.149 1037.15 973.598C1035.94 975.046 1037.57 978.356 1040.79 980.99C1044.01 983.624 1047.61 984.585 1048.82 983.136Z" fill="black"/>
<path fill-rule="evenodd" clip-rule="evenodd" d="M1033.98 970.949C1035.33 969.526 1037.44 968.491 1040.21 969.059C1042.32 969.494 1045.05 970.73 1047.48 972.927C1049.95 974.993 1051.62 977.418 1052.32 979.39C1053.22 981.89 1052.76 984.012 1051.59 985.452C1050.44 986.886 1048.43 987.704 1045.79 987.381C1043.67 987.118 1040.93 985.948 1038.36 983.956C1035.73 981.952 1033.98 979.497 1033.19 977.494C1032.15 974.825 1032.74 972.522 1033.98 970.949ZM1037.14 973.594C1035.93 975.042 1037.57 978.358 1040.79 980.99C1044.01 983.618 1047.61 984.583 1048.82 983.135C1050.03 981.688 1048.4 978.372 1045.18 975.744C1041.96 973.112 1038.35 972.146 1037.14 973.594Z" fill="black"/>
<path d="M1056.43 1027.82C1057.64 1026.38 1056.01 1023.07 1052.78 1020.43C1049.56 1017.8 1045.96 1016.84 1044.75 1018.29C1043.54 1019.73 1045.17 1023.04 1048.39 1025.68C1051.62 1028.31 1055.21 1029.27 1056.43 1027.82Z" fill="black"/>
<path fill-rule="evenodd" clip-rule="evenodd" d="M1041.59 1015.64C1042.94 1014.21 1045.04 1013.18 1047.82 1013.75C1049.93 1014.18 1052.66 1015.42 1055.08 1017.61C1057.56 1019.68 1059.22 1022.11 1059.93 1024.08C1060.83 1026.58 1060.36 1028.7 1059.2 1030.14C1058.05 1031.57 1056.03 1032.39 1053.4 1032.07C1051.27 1031.81 1048.54 1030.64 1045.96 1028.64C1043.34 1026.64 1041.59 1024.18 1040.8 1022.18C1039.75 1019.51 1040.35 1017.21 1041.59 1015.64ZM1044.75 1018.28C1043.54 1019.73 1045.17 1023.05 1048.39 1025.68C1051.61 1028.31 1055.21 1029.27 1056.43 1027.82C1057.64 1026.38 1056 1023.06 1052.78 1020.43C1049.56 1017.8 1045.96 1016.83 1044.75 1018.28Z" fill="black"/>
<path fill-rule="evenodd" clip-rule="evenodd" d="M1113.1 948.079L1140.29 968.787L1092.6 1013.68L1063.07 1017.86L1037.31 995.686L1057.81 930.082L1113.1 948.079Z" fill="white"/>
<path fill-rule="evenodd" clip-rule="evenodd" d="M1117.04 942.904L1143.59 964.453C1144.86 965.42 1145.65 966.902 1145.73 968.5C1145.81 970.097 1145.19 971.657 1144.03 972.752C1144.03 972.752 1131.77 983.62 1119.68 994.678C1107.61 1005.73 1095.7 1016.97 1095.7 1016.97C1095.02 1017.61 1094.16 1018.03 1093.23 1018.16L1063.73 1022.51C1062.39 1022.69 1061.03 1022.3 1060.01 1021.42L1034.04 999.487C1032.52 998.177 1031.93 996.1 1032.52 994.195L1052.3 928.361C1052.76 926.885 1053.79 925.658 1055.16 924.95C1056.53 924.242 1058.13 924.113 1059.6 924.591L1115.11 941.899C1115.81 942.126 1116.46 942.466 1117.04 942.904ZM1113.1 948.08L1057.81 930.083L1037.31 995.687L1063.07 1017.86L1092.6 1013.68L1140.29 968.788L1113.1 948.08Z" fill="black"/>
<path fill-rule="evenodd" clip-rule="evenodd" d="M1055.93 932.735L1053.28 930.861L1057.03 925.552L1059.68 927.425C1059.68 927.425 1061.02 928.79 1063.24 930.723C1064.31 931.654 1065.55 932.73 1066.97 933.786C1068.68 935.055 1070.63 936.285 1072.56 937.538C1079.21 941.864 1085.87 945.933 1085.87 945.933L1088.52 947.805L1084.77 953.114L1082.12 951.242C1082.12 951.242 1076.06 946.321 1069.76 941.499C1067.94 940.096 1066.13 938.665 1064.36 937.48C1062.89 936.489 1061.46 935.681 1060.23 934.99C1057.67 933.539 1055.93 932.735 1055.93 932.735Z" fill="black"/>
<path d="M1055.63 979.334C1056.07 979.478 1057.34 976.68 1058.47 973.083C1059.59 969.486 1060.14 966.453 1059.7 966.309C1059.25 966.164 1057.98 968.963 1056.86 972.559C1055.74 976.156 1055.18 979.189 1055.63 979.334Z" fill="black"/>
<path fill-rule="evenodd" clip-rule="evenodd" d="M1060.93 962.519C1061.83 962.885 1064.09 963.997 1063.78 967.073C1063.65 968.352 1063 971.084 1061.82 974.125C1060.84 977.194 1059.72 979.722 1059.04 980.783C1057.52 983.141 1055.4 982.905 1054.55 982.652C1053.72 982.396 1051.97 981.34 1051.98 978.579C1051.98 977.304 1052.46 974.559 1053.32 971.452C1054.17 968.297 1055.22 965.688 1055.89 964.584C1057.51 961.89 1059.98 962.239 1060.93 962.519ZM1061.53 970.126C1062.69 969.975 1063.51 969.612 1062.52 968.913C1062.17 968.667 1061.85 969.23 1061.53 970.126ZM1059.7 966.304C1059.26 966.159 1057.98 968.965 1056.86 972.56C1055.74 976.148 1055.18 979.188 1055.63 979.333C1056.07 979.477 1057.35 976.671 1058.47 973.083C1059.59 969.489 1060.14 966.448 1059.7 966.304Z" fill="black"/>
<path d="M1068.13 967.214C1068.51 967.337 1069.72 964.537 1070.84 960.96C1071.96 957.384 1072.56 954.384 1072.18 954.262C1071.8 954.139 1070.59 956.939 1069.47 960.515C1068.35 964.092 1067.75 967.091 1068.13 967.214Z" fill="black"/>
<path fill-rule="evenodd" clip-rule="evenodd" d="M1073.34 950.689C1074.1 951.002 1076.4 952.133 1075.98 955.182C1075.8 956.41 1075.12 959.022 1074 961.946C1073.06 964.887 1072.02 967.348 1071.41 968.402C1070 970.815 1067.83 970.556 1067.11 970.337C1066.41 970.123 1064.61 969.074 1064.74 966.318C1064.8 965.089 1065.31 962.457 1066.14 959.474C1066.96 956.451 1067.92 953.922 1068.51 952.838C1070.01 950.081 1072.54 950.455 1073.34 950.689ZM1073.96 957.807C1075.12 957.645 1075.96 957.297 1074.93 956.638C1074.57 956.405 1074.26 956.94 1073.96 957.807ZM1072.18 954.257C1071.8 954.134 1070.59 956.941 1069.47 960.516C1068.36 964.084 1067.75 967.09 1068.13 967.213C1068.51 967.336 1069.72 964.529 1070.84 960.961C1071.96 957.386 1072.56 954.379 1072.18 954.257Z" fill="black"/>
<path d="M1043.44 993.364C1043.78 993.476 1044.95 990.732 1046.04 987.234C1047.13 983.736 1047.74 980.81 1047.4 980.698C1047.05 980.585 1045.88 983.33 1044.79 986.827C1043.7 990.325 1043.09 993.252 1043.44 993.364Z" fill="black"/>
<path fill-rule="evenodd" clip-rule="evenodd" d="M1048.51 977.273C1049.21 977.556 1051.48 978.67 1051.02 981.651C1050.83 982.839 1050.15 985.354 1049.07 988.177C1048.17 991.021 1047.18 993.402 1046.6 994.434C1045.26 996.813 1043.11 996.558 1042.46 996.36C1041.82 996.158 1040.03 995.125 1040.21 992.437C1040.28 991.248 1040.79 988.713 1041.6 985.823C1042.39 982.906 1043.3 980.464 1043.85 979.404C1045.28 976.688 1047.78 977.056 1048.51 977.273ZM1049.12 984.075C1050.26 983.917 1051.09 983.572 1050.07 982.945C1049.71 982.722 1049.42 983.239 1049.12 984.075ZM1047.4 980.692C1047.05 980.58 1045.88 983.331 1044.79 986.827C1043.7 990.316 1043.09 993.25 1043.44 993.362C1043.78 993.474 1044.95 990.723 1046.04 987.234C1047.13 983.738 1047.74 980.804 1047.4 980.692Z" fill="black"/>
<path d="M1140.55 969.502L1084.3 951.195L1063.47 1017.85L1119.71 1036.15L1140.55 969.502Z" fill="white"/>
<path fill-rule="evenodd" clip-rule="evenodd" d="M1146.85 971.474L1124.16 1037.54C1123.78 1038.73 1122.95 1039.71 1121.85 1040.28C1120.75 1040.85 1119.45 1040.96 1118.28 1040.57L1061.95 1022.5C1059.4 1021.67 1058 1018.94 1058.8 1016.39L1078.8 949.471C1079.26 948 1080.29 946.78 1081.66 946.07C1083.02 945.367 1084.62 945.235 1086.08 945.712L1142.59 963.215C1146.03 964.335 1147.93 968.016 1146.85 971.474ZM1140.55 969.502L1084.3 951.196L1063.47 1017.84L1119.72 1036.15L1140.55 969.502Z" fill="black"/>
<path d="M1091.29 979.934C1093.08 980.519 1095.55 977.771 1096.79 973.798C1098.03 969.825 1097.58 966.129 1095.78 965.545C1093.99 964.96 1091.52 967.707 1090.28 971.681C1089.04 975.654 1089.49 979.349 1091.29 979.934Z" fill="black"/>
<path fill-rule="evenodd" clip-rule="evenodd" d="M1097.06 961.619C1098.88 962.341 1100.63 963.911 1101.14 966.696C1101.52 968.816 1101.39 971.812 1100.26 974.88C1099.26 977.946 1097.63 980.396 1096.07 981.785C1094.08 983.552 1091.94 983.912 1090.17 983.368C1088.41 982.835 1086.9 981.27 1086.22 978.708C1085.67 976.639 1085.74 973.663 1086.62 970.53C1087.5 967.347 1089.13 964.807 1090.69 963.329C1092.78 961.364 1095.14 961.058 1097.06 961.619ZM1095.79 965.539C1093.99 964.955 1091.52 967.71 1090.28 971.681C1089.04 975.645 1089.49 979.349 1091.29 979.933C1093.08 980.517 1095.55 977.762 1096.79 973.798C1098.03 969.827 1097.58 966.124 1095.79 965.539Z" fill="black"/>
<path d="M1100.76 1002.4C1102.56 1002.98 1105.02 1000.24 1106.26 996.263C1107.51 992.289 1107.06 988.594 1105.26 988.01C1103.46 987.425 1101 990.172 1099.76 994.146C1098.52 998.119 1098.97 1001.81 1100.76 1002.4Z" fill="black"/>
<path fill-rule="evenodd" clip-rule="evenodd" d="M1106.54 984.084C1108.36 984.806 1110.11 986.376 1110.61 989.161C1111 991.281 1110.87 994.277 1109.74 997.345C1108.74 1000.41 1107.11 1002.86 1105.54 1004.25C1103.56 1006.02 1101.42 1006.38 1099.65 1005.83C1097.89 1005.3 1096.38 1003.73 1095.7 1001.17C1095.15 999.103 1095.21 996.128 1096.1 992.995C1096.98 989.812 1098.61 987.272 1100.17 985.794C1102.26 983.829 1104.62 983.523 1106.54 984.084ZM1105.26 988.004C1103.47 987.42 1101 990.175 1099.76 994.146C1098.52 998.11 1098.97 1001.81 1100.76 1002.4C1102.56 1002.98 1105.03 1000.23 1106.26 996.263C1107.51 992.292 1107.06 988.588 1105.26 988.004Z" fill="black"/>
<path d="M1110.82 1024.53C1112.61 1025.12 1115.08 1022.37 1116.32 1018.4C1117.56 1014.42 1117.11 1010.73 1115.31 1010.14C1113.52 1009.56 1111.05 1012.31 1109.81 1016.28C1108.57 1020.25 1109.02 1023.95 1110.82 1024.53Z" fill="black"/>
<path fill-rule="evenodd" clip-rule="evenodd" d="M1116.59 1006.22C1118.41 1006.94 1120.16 1008.51 1120.67 1011.29C1121.05 1013.41 1120.92 1016.41 1119.79 1019.48C1118.79 1022.54 1117.16 1024.99 1115.6 1026.38C1113.61 1028.15 1111.47 1028.51 1109.7 1027.97C1107.94 1027.43 1106.43 1025.87 1105.75 1023.31C1105.2 1021.24 1105.27 1018.26 1106.15 1015.13C1107.03 1011.94 1108.66 1009.4 1110.22 1007.93C1112.31 1005.96 1114.67 1005.66 1116.59 1006.22ZM1115.32 1010.14C1113.52 1009.55 1111.05 1012.31 1109.81 1016.28C1108.57 1020.24 1109.02 1023.95 1110.82 1024.53C1112.61 1025.11 1115.08 1022.36 1116.32 1018.4C1117.56 1014.42 1117.11 1010.72 1115.32 1010.14Z" fill="black"/>
<path d="M1120.35 990.235C1122.14 990.819 1124.61 988.072 1125.85 984.099C1127.09 980.125 1126.64 976.43 1124.85 975.846C1123.05 975.261 1120.59 978.008 1119.34 981.982C1118.1 985.955 1118.55 989.65 1120.35 990.235Z" fill="black"/>
<path fill-rule="evenodd" clip-rule="evenodd" d="M1126.12 971.92C1127.95 972.642 1129.69 974.212 1130.2 976.997C1130.58 979.117 1130.46 982.112 1129.32 985.181C1128.33 988.246 1126.7 990.697 1125.13 992.086C1123.15 993.852 1121 994.213 1119.23 993.668C1117.47 993.136 1115.96 991.57 1115.28 989.009C1114.73 986.939 1114.8 983.964 1115.69 980.831C1116.57 977.648 1118.19 975.108 1119.76 973.63C1121.84 971.665 1124.2 971.359 1126.12 971.92ZM1124.85 975.84C1123.05 975.256 1120.59 978.011 1119.34 981.982C1118.11 985.946 1118.55 989.649 1120.35 990.234C1122.14 990.818 1124.61 988.063 1125.85 984.099C1127.09 980.128 1126.64 976.424 1124.85 975.84Z" fill="black"/>
<path d="M1081.72 1013.96C1083.52 1014.54 1085.98 1011.79 1087.22 1007.82C1088.46 1003.85 1088.01 1000.15 1086.22 999.566C1084.42 998.982 1081.96 1001.73 1080.72 1005.7C1079.47 1009.68 1079.92 1013.37 1081.72 1013.96Z" fill="black"/>
<path fill-rule="evenodd" clip-rule="evenodd" d="M1087.49 995.641C1089.32 996.362 1091.06 997.933 1091.57 1000.72C1091.95 1002.84 1091.83 1005.83 1090.69 1008.9C1089.7 1011.97 1088.07 1014.42 1086.5 1015.81C1084.52 1017.57 1082.38 1017.93 1080.6 1017.39C1078.85 1016.86 1077.33 1015.29 1076.65 1012.73C1076.1 1010.66 1076.17 1007.68 1077.06 1004.55C1077.94 1001.37 1079.56 998.829 1081.13 997.351C1083.21 995.386 1085.57 995.08 1087.49 995.641ZM1086.22 999.561C1084.42 998.977 1081.96 1001.73 1080.72 1005.7C1079.48 1009.67 1079.93 1013.37 1081.72 1013.95C1083.52 1014.54 1085.98 1011.78 1087.22 1007.82C1088.46 1003.85 1088.01 1000.15 1086.22 999.561Z" fill="black"/>
<path fill-rule="evenodd" clip-rule="evenodd" d="M1074.57 934.696C1073.32 936.843 1071.4 935.859 1069.26 934.61C1067.11 933.361 1065.16 932.859 1066.41 930.712C1066.41 930.712 1068.89 922.2 1075 893.352C1076.21 887.634 1076.75 882.388 1076.14 878.068C1075.68 874.773 1074.59 872.078 1072.18 870.556C1061.35 863.715 1052.12 859.184 1045.09 858.557C1042.59 858.334 1040.46 858.619 1038.83 859.84C1037.12 861.127 1036.85 863.604 1035.42 866.374C1018.21 899.758 1027.5 958.815 1027.5 958.815C1027.89 961.268 1024.84 964.57 1022.38 964.957C1019.93 965.345 1019.58 964.301 1019.19 961.848C1019.19 961.848 1006.78 900.079 1026.62 864.495C1029.43 859.449 1030.25 855.031 1033.43 852.644C1036.69 850.191 1040.87 849.145 1045.89 849.593C1053.92 850.309 1064.62 855.133 1076.98 862.947C1080.71 865.301 1083.15 868.908 1084.4 873.543C1085.95 879.294 1085.58 886.846 1083.8 895.217C1077.46 925.165 1074.57 934.696 1074.57 934.696Z" fill="#B4AD60" stroke="black" stroke-width="1.9" stroke-miterlimit="2" stroke-linejoin="round"/>
<path fill-rule="evenodd" clip-rule="evenodd" d="M1072.31 909.828C1072.31 909.828 1065.47 933.461 1080.67 949.706L1059.64 1016.08L1070.41 1024.91L1050.96 1031.07L1022.55 1001.17L1021.46 969.297L995.387 1000.74L1050.92 1046.83L1021.49 1064.11L967.798 1019.04L1003.3 970.046C1011.46 967.424 1018.3 963.245 1019.77 952.809C1024.97 964.11 1030.87 958.004 1036.77 951.812L1044.31 959.832L1056.57 925.577C1062.77 931.093 1068.61 930.734 1072.31 909.828Z" fill="black" fill-opacity="0.2"/>
</svg>
