<svg width="2160" height="2700" viewBox="0 0 2160 2700" fill="none" xmlns="http://www.w3.org/2000/svg">
<path d="M1088.3 2081.31C1384.96 2081.31 1625.46 1807.32 1625.46 1469.34C1625.46 1131.36 1384.96 857.375 1088.3 857.375C791.634 857.375 551.139 1131.36 551.139 1469.34C551.139 1807.32 791.634 2081.31 1088.3 2081.31Z" fill="#B9BDC0"/>
<path d="M588.098 1599.59L665.514 1586.99L695.666 1603.7C743.843 1760.19 809.513 1898.75 875.041 2037.46" stroke="black" stroke-width="9" stroke-miterlimit="1.5" stroke-linecap="square" stroke-linejoin="round"/>
<path d="M1597.12 1567.52L1519.71 1554.92L1489.55 1571.63C1441.38 1728.12 1375.71 1866.68 1310.18 2005.39" stroke="black" stroke-width="9" stroke-miterlimit="1.5" stroke-linecap="square" stroke-linejoin="round"/>
<path fill-rule="evenodd" clip-rule="evenodd" d="M804.996 979.563L821.753 1023.43L793.569 1071.04L809.407 1145.33L788.432 1177.66L776.086 1222.18L717.058 1190.87L709.01 1101.61L696.897 1067.25L686.515 1081.5C701.062 1143.74 691.876 1135.71 673.246 1099.72L656.944 1122.11L684.116 1167.08L684.855 1198.61L695.569 1231.57L668.379 1253.04L629.336 1196.6L611.695 1260.56L658.268 1302.51L726.101 1319.94L765.817 1327.88L819.035 1314.99L817.034 1277.61L849.8 1306.14L886.314 1325.03L883.622 1383.05L897.63 1449.67L880.636 1481.94L901.422 1526.44L902.592 1567.24L915.034 1569.43L926.874 1537.86L912.496 1516L934.091 1439.33L914.81 1343.55L922.735 1322.74L888.051 1293.88L908.419 1264.69L952.212 1109.54L965.829 974.888L938.221 904.125L897.45 925.531L882.338 1023.9L908.402 1079.63L890.118 1111.88L886.516 1146.53L899.082 1202.27L877.038 1232.64L892.471 1274.43L854.207 1257.45L834.42 1198.47L834.125 1158.61L841.936 1101.04L832.075 1083.25L817.069 1071.26L837.718 1035.53L865.774 1030.13L869.165 938.167L851.522 949.549C850.951 1009.42 844.481 1006.51 828.951 967.582L804.996 979.563Z" fill="black" fill-opacity="0.4"/>
<path fill-rule="evenodd" clip-rule="evenodd" d="M1010.52 1445.45L1158.08 1442.24C1161.37 1442.17 1164.1 1444.76 1164.21 1448.05L1166.91 1533.33C1166.98 1535.48 1165.9 1537.49 1164.08 1538.62C1164.08 1538.62 1120.15 1565.79 1086.62 1571.28C1072.41 1573.61 1057.35 1569.44 1044.43 1563.38C1025.83 1554.65 1011.8 1542.23 1011.8 1542.23C1010.61 1541.18 1009.88 1539.69 1009.79 1538.09L1004.66 1451.8C1004.57 1450.17 1005.13 1448.58 1006.24 1447.38C1007.35 1446.18 1008.89 1445.48 1010.52 1445.45ZM1010.65 1451.45L1015.78 1537.74C1015.78 1537.74 1053.06 1570.7 1085.65 1565.36C1118.24 1560.02 1160.92 1533.53 1160.92 1533.53L1158.21 1448.24L1010.65 1451.45Z" fill="black"/>
<path fill-rule="evenodd" clip-rule="evenodd" d="M1023.5 1486.88C1023.5 1486.88 1018.79 1507.72 1029.62 1509.98C1040.46 1512.24 1146.55 1505.66 1146.55 1505.66L1147.35 1486.74L1139.19 1483.5L1140.1 1498.89L1033.94 1502.05L1028.78 1484.19L1023.5 1486.88Z" stroke="black" stroke-width="4" stroke-miterlimit="1.5" stroke-linecap="round" stroke-linejoin="round"/>
<path fill-rule="evenodd" clip-rule="evenodd" d="M1128.72 1508.77C1128.72 1508.77 1034.48 1507.56 1033.28 1511.08C1032.85 1512.34 1126.05 1517.3 1125.44 1518.81C1121.85 1527.7 1115.03 1539.97 1103.62 1544.62C1088.93 1550.61 1076.5 1556.63 1076.5 1556.63C1102.94 1554.93 1131.15 1548.63 1154.23 1526.45L1152.3 1456.62L1034.12 1486.08C1068.21 1486.95 1100.42 1489.74 1128.18 1497.06L1136.61 1496.85L1140.24 1487.1L1147.46 1487.16L1146.36 1507.72L1128.72 1508.77Z" fill="black" fill-opacity="0.3"/>
<path fill-rule="evenodd" clip-rule="evenodd" d="M1023.3 1458.56L1023.5 1486.88L1030.51 1483.11L1135.26 1481.58L1146.43 1485.26L1147.13 1457.74L1023.3 1458.56Z" fill="#636363"/>
<path fill-rule="evenodd" clip-rule="evenodd" d="M1023.28 1455.57L1147.11 1454.74C1147.92 1454.73 1148.7 1455.06 1149.27 1455.63C1149.84 1456.21 1150.15 1457 1150.13 1457.81L1149.43 1485.34C1149.41 1486.29 1148.93 1487.17 1148.16 1487.72C1147.38 1488.26 1146.39 1488.41 1145.49 1488.11L1134.8 1484.58L1031.29 1486.1L1024.92 1489.52C1024 1490.02 1022.88 1490 1021.97 1489.46C1021.07 1488.92 1020.51 1487.95 1020.5 1486.9L1020.3 1458.59C1020.29 1457.79 1020.6 1457.03 1021.16 1456.46C1021.72 1455.89 1022.48 1455.57 1023.28 1455.57ZM1023.3 1458.56L1023.5 1486.88L1030.51 1483.11L1135.26 1481.58L1146.43 1485.26L1147.13 1457.74L1023.3 1458.56Z" fill="black"/>
<path fill-rule="evenodd" clip-rule="evenodd" d="M965.959 1333.32L965.913 1341.52L1001.6 1342.35L1003.49 1329.75L965.959 1333.32Z" fill="black" fill-opacity="0.5"/>
<path fill-rule="evenodd" clip-rule="evenodd" d="M965.675 1330.33L1003.2 1326.76C1004.12 1326.68 1005.03 1327.02 1005.66 1327.69C1006.3 1328.35 1006.59 1329.28 1006.45 1330.2L1004.57 1342.79C1004.34 1344.29 1003.04 1345.38 1001.53 1345.35L965.844 1344.52C964.208 1344.48 962.904 1343.14 962.913 1341.5L962.959 1333.3C962.968 1331.76 964.142 1330.48 965.675 1330.33ZM965.959 1333.32L965.913 1341.52L1001.6 1342.35L1003.49 1329.75L965.959 1333.32Z" fill="black"/>
<path fill-rule="evenodd" clip-rule="evenodd" d="M1147.38 1343.56L1134.11 1343.18L1131.79 1394.3L1123.61 1393.77L1122.97 1342.99L1109.46 1346.65L1110.23 1331.74L1149.27 1330.96L1147.38 1343.56ZM1109.29 1396.9L1146.82 1393.34L1144.93 1405.94L1109.25 1405.11L1109.29 1396.9Z" fill="black" fill-opacity="0.5"/>
<path fill-rule="evenodd" clip-rule="evenodd" d="M1120.6 1392.82L1120.02 1346.9L1110.24 1349.55C1109.32 1349.8 1108.32 1349.59 1107.58 1348.99C1106.83 1348.38 1106.41 1347.46 1106.46 1346.5L1107.23 1331.59C1107.31 1330.01 1108.6 1328.77 1110.17 1328.74L1149.21 1327.96C1150.09 1327.94 1150.94 1328.32 1151.52 1328.98C1152.1 1329.64 1152.36 1330.53 1152.23 1331.41L1150.35 1344C1150.12 1345.51 1148.81 1346.6 1147.29 1346.56L1136.97 1346.26L1134.93 1391.45L1146.54 1390.35C1147.46 1390.26 1148.36 1390.61 1149 1391.27C1149.63 1391.94 1149.92 1392.87 1149.79 1393.78L1147.9 1406.38C1147.67 1407.88 1146.37 1408.97 1144.86 1408.93L1109.18 1408.1C1107.54 1408.07 1106.24 1406.72 1106.25 1405.09L1106.29 1396.89C1106.3 1395.35 1107.47 1394.06 1109.01 1393.92L1120.6 1392.82ZM1109.29 1396.91L1109.25 1405.11L1144.93 1405.94L1146.82 1393.34L1109.29 1396.91ZM1147.38 1343.56L1149.27 1330.96L1110.23 1331.74L1109.46 1346.65L1122.97 1342.99L1123.61 1393.77L1131.79 1394.3L1134.11 1343.18L1147.38 1343.56Z" fill="black"/>
<path fill-rule="evenodd" clip-rule="evenodd" d="M1208.83 1344.49L1191.04 1342.62L1189.89 1407.78L1171.91 1405.87L1177.24 1342.47L1164.71 1342.76L1162.5 1329.3L1206.62 1329.37L1208.83 1344.49Z" fill="black" fill-opacity="0.5"/>
<path fill-rule="evenodd" clip-rule="evenodd" d="M1208.51 1347.48L1193.98 1345.95L1192.89 1407.82C1192.88 1408.67 1192.51 1409.46 1191.88 1410.02C1191.25 1410.58 1190.41 1410.84 1189.58 1410.76L1171.6 1408.85C1169.98 1408.68 1168.79 1407.24 1168.92 1405.61L1173.97 1345.55L1164.78 1345.76C1163.28 1345.8 1161.99 1344.72 1161.75 1343.24L1159.54 1329.78C1159.4 1328.91 1159.64 1328.03 1160.21 1327.35C1160.79 1326.68 1161.62 1326.3 1162.5 1326.3L1206.62 1326.37C1208.11 1326.37 1209.37 1327.47 1209.59 1328.94L1211.8 1344.06C1211.93 1344.98 1211.63 1345.9 1210.99 1346.57C1210.35 1347.24 1209.44 1347.57 1208.51 1347.48ZM1208.83 1344.49L1206.62 1329.37L1162.5 1329.3L1164.71 1342.76L1177.24 1342.47L1171.91 1405.87L1189.89 1407.78L1191.04 1342.62L1208.83 1344.49Z" fill="black"/>
<path fill-rule="evenodd" clip-rule="evenodd" d="M969.476 1365.84L969.43 1375.11L1005.12 1376.05L1007.01 1361.81L969.476 1365.84Z" fill="black" fill-opacity="0.5"/>
<path fill-rule="evenodd" clip-rule="evenodd" d="M969.156 1362.86L1006.69 1358.82C1007.6 1358.73 1008.51 1359.05 1009.15 1359.71C1009.8 1360.37 1010.1 1361.29 1009.98 1362.2L1008.09 1376.44C1007.89 1377.96 1006.57 1379.09 1005.04 1379.04L969.351 1378.11C967.72 1378.07 966.422 1376.72 966.43 1375.1L966.476 1365.83C966.484 1364.3 967.637 1363.02 969.156 1362.86ZM969.476 1365.84L969.43 1375.11L1005.12 1376.05L1007.01 1361.81L969.476 1365.84Z" fill="black"/>
<path fill-rule="evenodd" clip-rule="evenodd" d="M968.425 1396.77L968.379 1406.86L1004.07 1407.88L1005.96 1392.38L968.425 1396.77Z" fill="black" fill-opacity="0.5"/>
<path fill-rule="evenodd" clip-rule="evenodd" d="M968.077 1393.79L1005.61 1389.4C1006.52 1389.29 1007.43 1389.61 1008.08 1390.26C1008.73 1390.91 1009.05 1391.83 1008.93 1392.74L1007.05 1408.24C1006.86 1409.78 1005.53 1410.92 1003.98 1410.87L968.293 1409.86C966.665 1409.81 965.372 1408.47 965.379 1406.84L965.425 1396.75C965.432 1395.24 966.57 1393.97 968.077 1393.79ZM968.425 1396.77L968.379 1406.86L1004.07 1407.88L1005.96 1392.38L968.425 1396.77Z" fill="black"/>
<path fill-rule="evenodd" clip-rule="evenodd" d="M1046.57 1371.04L1021.93 1335.26L1042.02 1335.29L1057.32 1356.4L1072.77 1335.18L1092.85 1335.01L1067.13 1365.93L1092.61 1405.11L1071.23 1403.56L1057.22 1384.15L1043.08 1403.66L1021.69 1405.35L1046.57 1371.04Z" fill="black" fill-opacity="0.5"/>
<path fill-rule="evenodd" clip-rule="evenodd" d="M1043.08 1371L1019.58 1336.88C1018.97 1336 1018.91 1334.87 1019.4 1333.93C1019.89 1332.99 1020.87 1332.4 1021.93 1332.4L1042.01 1332.43C1042.93 1332.43 1043.79 1332.87 1044.33 1333.61L1057.32 1351.54L1070.45 1333.5C1070.99 1332.78 1071.84 1332.33 1072.74 1332.33L1092.83 1332.16C1093.93 1332.15 1094.96 1332.78 1095.43 1333.79C1095.91 1334.8 1095.76 1335.98 1095.04 1336.85L1070.67 1366.14L1095.01 1403.55C1095.6 1404.46 1095.62 1405.62 1095.07 1406.56C1094.52 1407.49 1093.49 1408.03 1092.41 1407.96L1071.02 1406.41C1070.18 1406.35 1069.41 1405.92 1068.92 1405.23L1057.22 1389.03L1045.4 1405.34C1044.9 1406.01 1044.14 1406.44 1043.3 1406.5L1021.91 1408.2C1020.8 1408.29 1019.74 1407.72 1019.2 1406.75C1018.65 1405.78 1018.72 1404.58 1019.37 1403.67L1043.08 1371ZM1046.57 1371.04L1021.69 1405.35L1043.08 1403.66L1057.22 1384.15L1071.23 1403.56L1092.61 1405.11L1067.13 1365.93L1092.85 1335.01L1072.77 1335.18L1057.32 1356.4L1042.02 1335.29L1021.93 1335.26L1046.57 1371.04Z" fill="black"/>
<path d="M954.781 1424.41L950.636 1654.2L995.272 1675.33L979.266 1700.23L893.123 1695.45L874.244 1724.65L903.629 1755.68L826.001 1968.59" stroke="black" stroke-width="6" stroke-miterlimit="1.5" stroke-linecap="round" stroke-linejoin="round"/>
<path d="M1210.08 1423.25L1214.74 1653.59L1170.11 1674.72L1186.11 1699.62L1272.26 1694.84L1291.14 1724.04L1261.75 1755.07L1339.38 1967.98" stroke="black" stroke-width="6" stroke-miterlimit="1.5" stroke-linecap="round" stroke-linejoin="round"/>
<path fill-rule="evenodd" clip-rule="evenodd" d="M1457.11 1742.98C1464.77 1739.57 1472.82 1739.03 1479.82 1740.75C1488.12 1742.78 1494.85 1748.13 1498.17 1755.76C1501.49 1763.6 1500.5 1772.4 1496.15 1780.02C1492.37 1786.64 1485.95 1792.29 1477.79 1795.65C1469.54 1798.81 1461.01 1799.1 1453.75 1796.86C1445.38 1794.28 1438.67 1788.53 1435.78 1780.51C1433.02 1772.66 1434.31 1764.14 1438.99 1756.95C1442.94 1750.88 1449.2 1745.75 1457.11 1742.98ZM1458.41 1746.25C1451.71 1749.24 1446.59 1754.11 1443.55 1759.68C1440.38 1765.49 1439.63 1772.1 1442.19 1777.99C1444.62 1783.71 1449.81 1787.46 1455.98 1789.09C1461.68 1790.6 1468.27 1790.25 1474.61 1787.64C1481.02 1785.19 1486.08 1780.91 1489.22 1775.88C1492.63 1770.44 1493.89 1764.12 1491.78 1758.27C1489.65 1752.21 1484.63 1747.89 1478.36 1745.83C1472.37 1743.86 1465.32 1743.83 1458.41 1746.25Z" fill="black"/>
<path fill-rule="evenodd" clip-rule="evenodd" d="M1406.77 1817.82C1415.23 1814.05 1424.14 1813.43 1431.88 1815.31C1441.08 1817.55 1448.53 1823.44 1452.2 1831.88C1455.87 1840.54 1454.75 1850.27 1449.91 1858.7C1445.72 1866.01 1438.61 1872.24 1429.59 1875.96C1420.47 1879.45 1411.05 1879.78 1403.02 1877.33C1393.75 1874.49 1386.31 1868.15 1383.11 1859.28C1380.07 1850.61 1381.51 1841.18 1386.71 1833.24C1391.09 1826.54 1398.02 1820.88 1406.77 1817.82ZM1408.21 1821.44C1400.8 1824.74 1395.12 1830.12 1391.75 1836.26C1388.22 1842.69 1387.38 1849.99 1390.2 1856.5C1392.88 1862.82 1398.64 1866.94 1405.46 1868.73C1411.77 1870.39 1419.06 1869.99 1426.07 1867.1C1433.17 1864.39 1438.78 1859.67 1442.27 1854.11C1446.05 1848.1 1447.46 1841.12 1445.13 1834.65C1442.78 1827.96 1437.22 1823.2 1430.28 1820.94C1423.65 1818.78 1415.86 1818.75 1408.21 1821.44Z" fill="black"/>
<path fill-rule="evenodd" clip-rule="evenodd" d="M1492.69 1666.61C1501.42 1662.33 1510.72 1661.73 1518.24 1664.03C1524.6 1665.99 1529.62 1670.13 1532.39 1675.85C1535.78 1683.05 1534.81 1691.48 1530.36 1698.94C1526.77 1704.97 1520.78 1710.27 1513.2 1713.71C1505.53 1716.95 1497.58 1717.75 1490.73 1716.3C1482.24 1714.5 1475.41 1709.48 1472.45 1702.08C1470.14 1696.16 1470.53 1689.65 1473.43 1683.65C1476.86 1676.55 1483.62 1670.12 1492.69 1666.61ZM1494.14 1669.93C1487.94 1672.98 1483.19 1677.57 1480.3 1682.64C1477.21 1688.07 1476.44 1694.1 1478.94 1699.26C1481.29 1704.25 1486.35 1707.16 1492.27 1708.14C1497.64 1709.04 1503.76 1708.28 1509.65 1705.6C1515.61 1703.09 1520.34 1699.1 1523.34 1694.54C1526.65 1689.51 1527.96 1683.8 1525.91 1678.67C1523.84 1673.33 1518.91 1669.79 1512.84 1668.38C1507.17 1667.06 1500.59 1667.44 1494.14 1669.93Z" fill="black"/>
<path fill-rule="evenodd" clip-rule="evenodd" d="M1520.31 1583.37C1529.57 1578.16 1539.79 1576.98 1548.27 1579.11C1555.35 1580.89 1561.14 1585.1 1564.63 1591.15C1568.97 1598.82 1568.6 1608.09 1564.37 1616.5C1560.92 1623.36 1554.74 1629.56 1546.63 1633.79C1538.41 1637.78 1529.68 1639.1 1521.99 1637.85C1512.62 1636.32 1504.8 1631.23 1500.97 1623.36C1497.31 1615.61 1498 1606.66 1502.65 1598.77C1506.35 1592.51 1512.4 1586.9 1520.31 1583.37ZM1522.15 1587.04C1515.62 1590.72 1510.82 1595.99 1508.11 1601.67C1505.23 1607.7 1504.94 1614.23 1508.07 1619.64C1511.04 1624.9 1516.78 1627.77 1523.29 1628.53C1529.24 1629.23 1535.88 1628.06 1542.11 1624.82C1548.38 1621.77 1553.2 1617.19 1556.07 1612.08C1559.21 1606.49 1560.15 1600.28 1557.53 1594.87C1554.84 1589.2 1549.22 1585.61 1542.53 1584.38C1536.22 1583.21 1529.03 1583.96 1522.15 1587.04Z" fill="black"/>
<path fill-rule="evenodd" clip-rule="evenodd" d="M1456.35 1755.31C1440.9 1761.45 1438.51 1771.36 1442.49 1780.13C1448.69 1793.82 1463.06 1794.64 1470.98 1792.86C1487.22 1789.21 1500.13 1783.52 1494.64 1769.52C1489.15 1755.52 1471.8 1749.18 1456.35 1755.31Z" fill="black"/>
<path fill-rule="evenodd" clip-rule="evenodd" d="M1405.91 1831.44C1388.8 1838.23 1386.14 1849.18 1390.53 1858.85C1397.38 1873.97 1413.28 1874.85 1422.06 1872.87C1440.04 1868.82 1454.34 1862.53 1448.28 1847.07C1442.22 1831.62 1423.02 1824.64 1405.91 1831.44Z" fill="black"/>
<path fill-rule="evenodd" clip-rule="evenodd" d="M1492.37 1678.67C1477.62 1685.13 1473.41 1690.3 1478.66 1702.36C1483.91 1714.42 1495.29 1718.23 1510.04 1711.77C1524.79 1705.31 1529.81 1694.38 1528.61 1688.82C1525.83 1675.95 1507.12 1672.21 1492.37 1678.67Z" fill="black"/>
<path fill-rule="evenodd" clip-rule="evenodd" d="M1520.53 1597.38C1504.68 1605.37 1501.74 1608.6 1508.5 1621.49C1515.27 1634.39 1522.96 1637.33 1538.81 1629.35C1554.66 1621.36 1561.64 1616.4 1558.3 1607.46C1553.21 1593.86 1536.39 1589.4 1520.53 1597.38Z" fill="black"/>
<path fill-rule="evenodd" clip-rule="evenodd" d="M724.729 1783.93C732.635 1786.7 738.897 1791.83 742.848 1797.9C747.528 1805.08 748.816 1813.61 746.062 1821.46C743.168 1829.48 736.457 1835.23 728.089 1837.81C720.826 1840.05 712.298 1839.76 704.052 1836.6C695.894 1833.24 689.471 1827.59 685.69 1820.97C681.34 1813.35 680.346 1804.55 683.67 1796.71C686.987 1789.07 693.717 1783.73 702.017 1781.7C709.021 1779.98 717.074 1780.52 724.729 1783.93ZM723.428 1787.2C716.515 1784.78 709.466 1784.81 703.475 1786.78C697.211 1788.84 692.189 1793.16 690.063 1799.22C687.952 1805.07 689.213 1811.39 692.615 1816.83C695.761 1821.86 700.822 1826.14 707.234 1828.59C713.572 1831.2 720.159 1831.55 725.862 1830.04C732.026 1828.4 737.222 1824.66 739.647 1818.94C742.207 1813.05 741.464 1806.44 738.288 1800.63C735.249 1795.06 730.127 1790.18 723.428 1787.2Z" fill="black"/>
<path fill-rule="evenodd" clip-rule="evenodd" d="M775.071 1858.76C783.815 1861.83 790.744 1867.49 795.127 1874.19C800.329 1882.13 801.77 1891.56 798.727 1900.23C795.528 1909.09 788.093 1915.44 778.817 1918.28C770.791 1920.73 761.364 1920.4 752.249 1916.91C743.227 1913.19 736.121 1906.96 731.927 1899.65C727.088 1891.22 725.971 1881.49 729.644 1872.83C733.309 1864.39 740.764 1858.5 749.963 1856.26C757.704 1854.38 766.606 1855 775.071 1858.76ZM773.633 1862.39C765.983 1859.7 758.187 1859.73 751.561 1861.89C744.622 1864.15 739.059 1868.91 736.711 1875.6C734.38 1882.07 735.791 1889.05 739.571 1895.06C743.062 1900.61 748.669 1905.34 755.765 1908.05C762.781 1910.94 770.068 1911.34 776.376 1909.68C783.204 1907.89 788.957 1903.76 791.635 1897.45C794.462 1890.94 793.624 1883.64 790.093 1877.21C786.718 1871.07 781.044 1865.69 773.633 1862.39Z" fill="black"/>
<path fill-rule="evenodd" clip-rule="evenodd" d="M689.147 1707.56C698.214 1711.06 704.981 1717.5 708.407 1724.6C711.304 1730.6 711.696 1737.11 709.392 1743.03C706.433 1750.43 699.598 1755.45 691.113 1757.25C684.258 1758.7 676.312 1757.9 668.64 1754.66C661.06 1751.22 655.073 1745.92 651.478 1739.89C647.033 1732.43 646.06 1724 649.454 1716.8C652.216 1711.08 657.239 1706.94 663.598 1704.98C671.117 1702.67 680.424 1703.27 689.147 1707.56ZM687.697 1710.88C681.248 1708.39 674.665 1708.01 669.002 1709.33C662.93 1710.74 658.001 1714.28 655.925 1719.62C653.875 1724.75 655.192 1730.46 658.501 1735.49C661.499 1740.05 666.228 1744.04 672.191 1746.55C678.077 1749.23 684.204 1749.99 689.57 1749.09C695.49 1748.11 700.552 1745.2 702.903 1740.21C705.396 1735.05 704.626 1729.02 701.536 1723.59C698.652 1718.52 693.899 1713.93 687.697 1710.88Z" fill="black"/>
<path fill-rule="evenodd" clip-rule="evenodd" d="M661.531 1624.32C669.437 1627.85 675.492 1633.46 679.186 1639.72C683.838 1647.6 684.532 1656.56 680.865 1664.31C677.042 1672.18 669.216 1677.27 659.851 1678.8C652.162 1680.05 643.432 1678.73 635.212 1674.74C627.102 1670.5 620.921 1664.31 617.468 1657.45C613.236 1649.04 612.87 1639.77 617.207 1632.09C620.695 1626.05 626.49 1621.84 633.566 1620.06C642.046 1617.93 652.266 1619.11 661.531 1624.32ZM659.684 1627.99C652.812 1624.91 645.619 1624.16 639.308 1625.33C632.614 1626.56 626.999 1630.15 624.313 1635.82C621.69 1641.22 622.633 1647.44 625.774 1653.03C628.643 1658.13 633.455 1662.72 639.731 1665.77C645.955 1669.01 652.603 1670.17 658.547 1669.48C665.058 1668.72 670.799 1665.85 673.773 1660.59C676.903 1655.18 676.604 1648.65 673.732 1642.62C671.022 1636.94 666.216 1631.67 659.684 1627.99Z" fill="black"/>
<path fill-rule="evenodd" clip-rule="evenodd" d="M725.493 1796.26C740.944 1802.4 743.328 1812.31 739.353 1821.08C733.147 1834.77 718.782 1835.59 710.858 1833.81C694.618 1830.15 681.71 1824.47 687.199 1810.47C692.688 1796.47 710.043 1790.12 725.493 1796.26Z" fill="black"/>
<path fill-rule="evenodd" clip-rule="evenodd" d="M775.932 1872.38C793.043 1879.18 795.694 1890.13 791.306 1899.8C784.454 1914.91 768.554 1915.8 759.781 1913.82C741.8 1909.77 727.504 1903.48 733.562 1888.02C739.619 1872.57 758.822 1865.59 775.932 1872.38Z" fill="black"/>
<path fill-rule="evenodd" clip-rule="evenodd" d="M689.469 1719.62C704.222 1726.07 708.428 1731.25 703.18 1743.31C697.932 1755.37 686.551 1759.18 671.799 1752.72C657.047 1746.26 652.031 1735.33 653.232 1729.77C656.006 1716.9 674.717 1713.16 689.469 1719.62Z" fill="black"/>
<path fill-rule="evenodd" clip-rule="evenodd" d="M661.304 1638.33C677.157 1646.32 680.1 1649.55 673.336 1662.44C666.572 1675.34 658.881 1678.28 643.028 1670.3C627.176 1662.31 620.2 1657.35 623.542 1648.41C628.63 1634.81 645.452 1630.35 661.304 1638.33Z" fill="black"/>
<path d="M1223.69 1049.47C1252.89 1045.95 1273.71 1019.5 1270.2 990.409C1266.68 961.317 1240.16 940.592 1210.97 944.119C1181.77 947.646 1160.95 974.09 1164.46 1003.18C1167.98 1032.28 1194.5 1053 1223.69 1049.47Z" fill="white"/>
<path fill-rule="evenodd" clip-rule="evenodd" d="M1210.37 939.156C1226.19 937.757 1241.05 942.791 1252.43 952.125C1263.61 961.31 1271.49 974.571 1273.08 990.062C1274.86 1005.4 1270.17 1019.97 1261.3 1031.24C1252.45 1042.49 1239.39 1050.49 1224.05 1052.45C1208.63 1054.48 1193.85 1050.02 1182.39 1041.28C1170.81 1032.44 1162.65 1019.2 1160.58 1003.65C1158.49 987.98 1163.05 972.945 1172 961.286C1181.01 949.551 1194.53 941.291 1210.37 939.156ZM1211.57 949.083C1198.26 950.519 1186.78 957.155 1178.97 966.79C1171.07 976.539 1166.9 989.291 1168.35 1002.71C1169.82 1016.29 1176.68 1027.99 1186.6 1035.89C1196.58 1043.86 1209.62 1048.02 1223.34 1046.51C1237.14 1044.93 1249.07 1037.98 1257.06 1027.89C1265.06 1017.76 1269.05 1004.54 1267.33 990.756C1265.43 977.136 1258.19 965.51 1247.92 957.907C1237.87 950.468 1224.91 947.039 1211.57 949.083Z" fill="black"/>
<path fill-rule="evenodd" clip-rule="evenodd" d="M1254.24 966.59L1217.47 997.151L1258.68 1023.13C1271.42 1003.7 1268.71 984.908 1254.24 966.59Z" fill="#E61A1A"/>
<path fill-rule="evenodd" clip-rule="evenodd" d="M1201.28 954.271L1218.23 996.216L1253.49 967.493C1239.36 950.046 1222.56 946.648 1201.28 954.271Z" fill="#E6611A"/>
<path d="M1230.24 1215.05C1259.43 1211.52 1280.25 1185.07 1276.74 1155.98C1273.23 1126.89 1246.71 1106.16 1217.51 1109.69C1188.31 1113.22 1167.49 1139.66 1171.01 1168.76C1174.52 1197.85 1201.04 1218.57 1230.24 1215.05Z" fill="white"/>
<path fill-rule="evenodd" clip-rule="evenodd" d="M1216.91 1104.73C1232.74 1103.33 1247.6 1108.36 1258.97 1117.7C1270.15 1126.88 1278.03 1140.14 1279.62 1155.63C1281.4 1170.97 1276.71 1185.54 1267.84 1196.81C1258.99 1208.07 1245.93 1216.06 1230.6 1218.02C1215.17 1220.05 1200.4 1215.59 1188.94 1206.85C1177.35 1198.02 1169.2 1184.77 1167.13 1169.22C1165.03 1153.55 1169.59 1138.52 1178.55 1126.86C1187.56 1115.12 1201.07 1106.86 1216.91 1104.73ZM1218.11 1114.66C1204.81 1116.09 1193.32 1122.73 1185.52 1132.36C1177.61 1142.11 1173.44 1154.86 1174.89 1168.29C1176.36 1181.86 1183.22 1193.56 1193.14 1201.47C1203.12 1209.43 1216.16 1213.59 1229.88 1212.08C1243.68 1210.5 1255.61 1203.55 1263.6 1193.46C1271.6 1183.34 1275.6 1170.11 1273.87 1156.33C1271.97 1142.71 1264.74 1131.08 1254.46 1123.48C1244.42 1116.04 1231.45 1112.61 1218.11 1114.66Z" fill="black"/>
<path fill-rule="evenodd" clip-rule="evenodd" d="M1260.79 1132.16L1224.02 1162.72L1265.22 1188.7C1277.96 1169.27 1275.25 1150.48 1260.79 1132.16Z" fill="#E61A1A"/>
<path fill-rule="evenodd" clip-rule="evenodd" d="M1207.82 1119.84L1224.77 1161.79L1260.03 1133.07C1245.91 1115.62 1229.11 1112.22 1207.82 1119.84Z" fill="#E6611A"/>
<path d="M1378.57 1218.28C1407.77 1214.75 1428.59 1188.31 1425.08 1159.22C1421.56 1130.12 1395.04 1109.4 1365.85 1112.93C1336.65 1116.45 1315.83 1142.9 1319.34 1171.99C1322.86 1201.08 1349.38 1221.81 1378.57 1218.28Z" fill="white"/>
<path fill-rule="evenodd" clip-rule="evenodd" d="M1365.25 1107.96C1381.07 1106.56 1395.93 1111.6 1407.31 1120.93C1418.49 1130.12 1426.37 1143.38 1427.95 1158.87C1429.74 1174.21 1425.05 1188.77 1416.18 1200.05C1407.32 1211.3 1394.27 1219.3 1378.93 1221.26C1363.51 1223.28 1348.73 1218.82 1337.27 1210.08C1325.69 1201.25 1317.53 1188 1315.46 1172.46C1313.37 1156.79 1317.93 1141.75 1326.88 1130.09C1335.89 1118.36 1349.41 1110.1 1365.25 1107.96ZM1366.45 1117.89C1353.14 1119.33 1341.66 1125.96 1333.85 1135.6C1325.95 1145.35 1321.78 1158.1 1323.23 1171.52C1324.69 1185.09 1331.56 1196.79 1341.48 1204.7C1351.45 1212.66 1364.5 1216.83 1378.22 1215.31C1392.02 1213.74 1403.95 1206.78 1411.94 1196.69C1419.94 1186.57 1423.93 1173.35 1422.21 1159.56C1420.31 1145.94 1413.07 1134.32 1402.8 1126.71C1392.75 1119.27 1379.79 1115.85 1366.45 1117.89Z" fill="black"/>
<path fill-rule="evenodd" clip-rule="evenodd" d="M1409.12 1135.4L1372.35 1165.96L1413.56 1191.93C1426.3 1172.51 1423.59 1153.71 1409.12 1135.4Z" fill="#E61A1A"/>
<path fill-rule="evenodd" clip-rule="evenodd" d="M1356.16 1123.08L1373.11 1165.02L1408.37 1136.3C1394.24 1118.85 1377.44 1115.45 1356.16 1123.08Z" fill="#E6611A"/>
<path d="M554.828 1479.89C657.538 1458.9 757.573 1427.71 851.93 1429.81L865.357 1399.4L916.317 1401.3L927.756 1425.66C1041.97 1412.14 1154.3 1415.93 1263.74 1425.7L1273.6 1396.94L1329.16 1393.47L1336.82 1430.47C1430.41 1429.72 1519.43 1440.91 1605.63 1451.34" stroke="black" stroke-width="7" stroke-miterlimit="1.5" stroke-linecap="round" stroke-linejoin="round"/>
<path fill-rule="evenodd" clip-rule="evenodd" d="M1086.45 1002.57L1081.17 1003.43C1079.6 1003.66 1078.03 1003.06 1077 1001.87C1077 1001.87 1068.29 991.716 1067 983.391C1066.27 978.734 1067.5 974.566 1071.38 971.64C1073.74 969.875 1079.78 967.614 1087.66 965.635C1098.14 962.999 1112.09 960.537 1123.7 959.014C1133.1 957.787 1141.04 957.242 1144.66 957.64C1148.75 958.104 1150.33 960.512 1150.67 961.809C1151.04 963.215 1151.22 966.72 1151.12 970.881C1150.95 978.749 1150.15 989.28 1150.15 989.28C1150.02 991.199 1148.68 992.812 1146.82 993.279L1145.62 993.565L1148.4 996.613C1149.86 998.16 1149.93 1000.55 1148.57 1002.19L1142.31 1009.6C1141.09 1011.08 1138.99 1011.52 1137.27 1010.65L1132.76 1008.29L1132.17 1033.69C1132.15 1034.79 1131.64 1035.84 1130.77 1036.52C1129.9 1037.2 1128.76 1037.44 1127.68 1037.18L1119.61 1035.14C1119.59 1035.14 1119.58 1035.14 1119.57 1035.13L1096.52 1028.99C1095.63 1028.75 1094.87 1028.16 1094.44 1027.35C1094.01 1026.53 1093.94 1025.57 1094.25 1024.7L1098.83 1012.53L1089.81 1013.32C1088.8 1013.37 1087.81 1012.99 1087.11 1012.27C1086.39 1011.54 1086.03 1010.54 1086.11 1009.54L1086.45 1002.57ZM1143.17 966.544C1143.47 966.87 1143.98 967.462 1144.07 967.009C1144.13 966.628 1143.76 966.523 1143.17 966.544ZM1121.27 1028.25L1124.88 1029.07L1124.89 1001.72C1124.91 1000.34 1125.64 999.061 1126.82 998.344C1128.01 997.627 1129.48 997.569 1130.71 998.196L1138.01 1001.81L1139.7 999.729L1134.27 994.049C1133.22 992.927 1132.85 991.331 1133.28 989.858C1133.71 988.376 1134.89 987.246 1136.39 986.864L1141.48 985.523C1141.64 982.482 1141.84 977.704 1141.91 973.293C1141.96 970.789 1141.99 968.418 1141.93 966.673C1141.09 966.794 1140.13 966.962 1139.26 967.005C1128.91 967.601 1109.2 970.849 1094.3 974.311C1086.17 976.189 1079.54 977.897 1077.27 979.571C1076.49 980.139 1076.52 981.062 1076.65 981.993C1076.81 983.233 1077.24 984.521 1077.78 985.785C1079.15 988.974 1081.18 992.012 1082.57 993.889L1103.22 991.334C1105.42 991.018 1107.49 992.48 1107.93 994.652C1108.38 996.835 1107.04 998.981 1104.89 999.553L1093.97 1002.12L1093.55 1006.2L1103.23 1006.02C1104.25 1005.97 1105.24 1006.43 1105.85 1007.24C1106.46 1008.08 1106.62 1009.14 1106.27 1010.1L1101.61 1023.49C1101.61 1023.49 1121.23 1028.23 1121.27 1028.25Z" fill="black"/>
<path fill-rule="evenodd" clip-rule="evenodd" d="M1099.3 977.885L1110.91 987.865C1112.26 989.244 1112.55 991.334 1111.65 993.034C1110.74 994.725 1108.84 995.64 1106.96 995.303C1106.96 995.303 1101.13 994.798 1096.95 994.064C1094.57 993.647 1092.75 993.101 1092.75 993.101C1091.32 992.841 1090.08 991.943 1089.38 990.667C1088.69 989.391 1088.61 987.86 1089.17 986.522C1089.17 986.522 1090.24 984.52 1091.53 982.592C1092.86 980.588 1094.3 978.832 1094.3 978.832C1094.7 977.888 1095.54 977.201 1096.55 977.009C1097.55 976.828 1098.59 977.146 1099.3 977.885Z" fill="black"/>
<path fill-rule="evenodd" clip-rule="evenodd" d="M1121.3 986.873C1119.72 987.467 1117.97 986.661 1117.37 985.081C1116.79 983.499 1117.6 981.74 1119.18 981.146C1119.18 981.146 1119.64 980.274 1121.15 979.004C1121.77 978.486 1122.48 977.967 1123.4 977.554C1124.44 977.065 1125.68 976.805 1126.9 976.527C1131.23 975.54 1135.45 975.101 1135.45 975.101C1137.03 974.507 1138.79 975.322 1139.37 976.903C1139.96 978.474 1139.16 980.233 1137.58 980.827C1137.58 980.827 1134.1 983.252 1130.18 985.327C1129.07 985.914 1127.96 986.521 1126.84 986.848C1125.88 987.125 1125 987.201 1124.2 987.208C1122.23 987.234 1121.3 986.873 1121.3 986.873Z" fill="black"/>
<path fill-rule="evenodd" clip-rule="evenodd" d="M1106.12 1011.12C1106.63 1009.5 1108.34 1008.61 1109.94 1009.11C1111.56 1009.62 1112.45 1011.34 1111.95 1012.94C1111.95 1012.94 1112.24 1014.36 1112.1 1016.87C1112.04 1017.98 1111.89 1019.22 1111.55 1020.57C1111.14 1022.17 1110.43 1023.8 1109.74 1025.44C1107.35 1031.15 1104.56 1036.48 1104.56 1036.48C1104.05 1038.08 1102.34 1038.98 1100.73 1038.47C1099.12 1037.97 1098.22 1036.26 1098.72 1034.64C1098.72 1034.64 1099.48 1028.68 1100.78 1022.62C1101.15 1020.89 1101.51 1019.14 1102.09 1017.61C1102.57 1016.3 1103.16 1015.19 1103.74 1014.24C1105.07 1012.11 1106.12 1011.12 1106.12 1011.12Z" fill="black"/>
<path fill-rule="evenodd" clip-rule="evenodd" d="M1115.81 1014.9C1116 1013.24 1117.52 1012.03 1119.18 1012.22C1120.86 1012.41 1122.07 1013.93 1121.88 1015.6C1121.88 1015.6 1122.44 1016.41 1122.9 1018.32C1123.07 1019.09 1123.22 1019.95 1123.18 1020.95C1123.14 1022.1 1122.81 1023.3 1122.51 1024.51C1121.44 1028.79 1119.92 1032.71 1119.92 1032.71C1119.72 1034.38 1118.21 1035.58 1116.53 1035.39C1114.87 1035.2 1113.66 1033.69 1113.85 1032.01C1113.85 1032.01 1113.25 1027.85 1113.17 1023.44C1113.16 1022.2 1113.12 1020.95 1113.32 1019.83C1113.52 1018.85 1113.84 1018.03 1114.2 1017.32C1115.07 1015.57 1115.81 1014.9 1115.81 1014.9Z" fill="black"/>
<path fill-rule="evenodd" clip-rule="evenodd" d="M1030.28 1093.08L1138.13 1049.52L1135.96 1035.3C1135.71 1033.58 1136.56 1031.89 1138.08 1031.05L1154.06 1022.11C1155.52 1021.3 1157.31 1021.41 1158.66 1022.39C1160 1023.35 1160.67 1025.03 1160.37 1026.65L1156.64 1047.5L1167.94 1050.93C1169.45 1051.4 1170.62 1052.63 1171.01 1054.17C1171.41 1055.71 1170.97 1057.34 1169.86 1058.49L1158.55 1070.27C1156.95 1071.91 1154.41 1072.16 1152.54 1070.85L1145.32 1065.91C1137.49 1069.88 1112.48 1082.55 1090.25 1093.65C1073.48 1102.01 1058.3 1109.46 1053.39 1111.87L1045.48 1131.93C1044.75 1133.82 1042.88 1135.03 1040.86 1134.89L1026.34 1133.74C1025.15 1133.66 1024.03 1133.09 1023.25 1132.18C1022.47 1131.27 1022.1 1130.07 1022.21 1128.88L1023.91 1113.72L1020.2 1114.84C1019 1115.24 1017.7 1115.02 1016.68 1114.29L1007.95 1107.65C1007.15 1107.06 1006.62 1106.19 1006.47 1105.21C1006.32 1104.23 1006.58 1103.24 1007.17 1102.45L1017.72 1088.98C1018.72 1087.64 1020.57 1087.26 1022.03 1088.09L1030.28 1093.08ZM1028.5 1099.13L1021.38 1095.29L1015.3 1103.78L1019.58 1106.78L1027.41 1104.06C1028.72 1103.63 1030.17 1103.89 1031.26 1104.75C1032.34 1105.62 1032.9 1106.97 1032.78 1108.36L1031.43 1125.12L1038.03 1125.48L1045.07 1106.62C1045.5 1105.49 1046.34 1104.56 1047.42 1104.02C1047.42 1104.02 1065.36 1094.9 1085.8 1084.71C1112.55 1071.36 1143.56 1056.17 1143.56 1056.17C1145.11 1055.4 1146.96 1055.53 1148.39 1056.52L1154.64 1060.9L1158.08 1057.4L1150.23 1054.9C1148.06 1054.23 1146.74 1052.04 1147.14 1049.82L1150.2 1033.98L1144.61 1037L1146.6 1051.48C1146.87 1053.34 1145.83 1055.14 1144.09 1055.83L1031.13 1099.32C1030.27 1099.65 1029.3 1099.59 1028.5 1099.13Z" fill="black"/>
<path fill-rule="evenodd" clip-rule="evenodd" d="M1134.16 1112.26L1145.51 1098.91C1146.25 1098.07 1147.36 1097.68 1148.46 1097.84C1149.56 1098 1150.5 1098.71 1150.96 1099.73L1160.51 1119.47C1161.33 1121.27 1160.6 1123.4 1158.85 1124.32L1150.04 1129.16C1148.77 1129.82 1147.25 1129.74 1146.06 1128.95L1144.05 1127.66L1141.61 1142.66C1141.21 1144.92 1139.1 1146.48 1136.81 1146.17L1124.63 1144.67C1123.39 1144.5 1122.28 1143.83 1121.58 1142.8C1120.87 1141.77 1120.63 1140.49 1120.92 1139.28L1124.22 1124.87C1120.86 1121.7 1113.3 1114.54 1104.37 1106C1086.56 1088.97 1063.24 1066.46 1056.13 1059.59L1049.37 1062.89C1048.36 1063.39 1047.18 1063.46 1046.11 1063.1C1045.03 1062.73 1044.15 1061.94 1043.66 1060.92L1037.34 1047.57C1036.76 1046.38 1036.8 1044.97 1037.43 1043.81C1038.05 1042.64 1039.2 1041.84 1040.52 1041.66L1050.88 1040.31L1053.16 1018.81C1053.31 1017.31 1054.32 1016.02 1055.76 1015.52C1057.18 1015.03 1058.77 1015.41 1059.82 1016.5L1070.7 1027.93C1071.72 1028.99 1072.04 1030.56 1071.49 1031.93L1065.85 1045.97L1134.16 1112.26ZM1058.02 1046.08C1057.39 1047.07 1056.36 1047.77 1055.14 1047.94L1047.31 1049.07L1049.41 1053.37L1055.04 1050.54C1056.66 1049.73 1058.61 1050.03 1059.92 1051.28C1059.92 1051.28 1089.41 1079.05 1110.72 1099.34C1122.88 1110.91 1132.36 1120.07 1132.36 1120.07C1133.53 1121.19 1134.03 1122.83 1133.65 1124.41L1130.66 1136.62L1133.92 1137.08L1137.09 1120.24C1137.32 1118.91 1138.21 1117.78 1139.46 1117.24C1140.72 1116.7 1142.15 1116.83 1143.29 1117.59L1148.53 1121.19L1152.3 1119.29L1146.95 1107.02L1136.47 1118.25C1135.96 1118.82 1135.24 1119.16 1134.48 1119.19C1133.71 1119.23 1132.97 1118.94 1132.42 1118.41L1059.05 1049.51C1058.12 1048.62 1057.75 1047.32 1058.02 1046.08ZM1058.62 1044.42C1059.9 1041.08 1063.6 1031.45 1063.6 1031.45L1060.13 1027.91L1058.63 1044.32C1058.62 1044.35 1058.62 1044.39 1058.62 1044.42Z" fill="black"/>
<path fill-rule="evenodd" clip-rule="evenodd" d="M1212.6 998.164C1210.92 998.024 1209.68 996.543 1209.81 994.864C1209.96 993.184 1211.44 991.938 1213.11 992.078C1213.11 992.078 1215.57 991.55 1219.54 991.292C1221.4 991.178 1223.56 991.129 1225.89 991.25C1228.69 991.405 1231.69 991.848 1234.69 992.261C1245.05 993.719 1255.14 995.654 1255.14 995.654C1256.82 995.793 1258.06 997.275 1257.92 998.953C1257.77 1000.63 1256.3 1001.88 1254.62 1001.74C1254.62 1001.74 1244.35 1001.94 1233.89 1001.63C1230.87 1001.54 1227.83 1001.46 1225.05 1001.13C1222.73 1000.86 1220.61 1000.45 1218.79 1000.01C1214.93 999.101 1212.6 998.164 1212.6 998.164Z" fill="black"/>
<path fill-rule="evenodd" clip-rule="evenodd" d="M1540.36 980.933L1193.75 1087.97L536.757 1243.78L560.139 1333.06L1198.69 1157.07L1563.74 1070.21L1540.36 980.933Z" fill="#D8CF82" stroke="black" stroke-width="10" stroke-miterlimit="1.5" stroke-linecap="round" stroke-linejoin="round"/>
<path fill-rule="evenodd" clip-rule="evenodd" d="M594.026 1230.19L675.836 1301.17L735.713 1285.88L657.226 1215.73L594.026 1230.19Z" fill="black"/>
<path fill-rule="evenodd" clip-rule="evenodd" d="M750.22 1185.59L832.03 1256.57L891.907 1241.28L813.42 1171.13L750.22 1185.59Z" fill="black"/>
<path fill-rule="evenodd" clip-rule="evenodd" d="M909.167 1149.64L990.977 1220.62L1050.85 1205.33L972.367 1135.18L909.167 1149.64Z" fill="black"/>
<path fill-rule="evenodd" clip-rule="evenodd" d="M1045.18 1116.61L1117.5 1175.27L1170.43 1162.64L1101.05 1104.66L1045.18 1116.61Z" fill="black"/>
<path fill-rule="evenodd" clip-rule="evenodd" d="M1179.14 1089.27L1251.46 1147.94L1304.39 1135.3L1235.01 1077.32L1179.14 1089.27Z" fill="black"/>
<path fill-rule="evenodd" clip-rule="evenodd" d="M1304.47 1050.39L1376.79 1109.06L1429.72 1096.42L1360.34 1038.44L1304.47 1050.39Z" fill="black"/>
<path fill-rule="evenodd" clip-rule="evenodd" d="M1571.5 1233.24L1193.76 1226.11L526.058 1193.81L524.153 1286.08L1186.49 1291.29L1592.88 1306.34L1571.5 1233.24Z" fill="#D8CF82" stroke="black" stroke-width="10" stroke-miterlimit="1.5" stroke-linecap="round" stroke-linejoin="round"/>
<path fill-rule="evenodd" clip-rule="evenodd" d="M584.861 1196.39L644.16 1287.02L705.936 1288.68L649.607 1199.75L584.861 1196.39Z" fill="black"/>
<path fill-rule="evenodd" clip-rule="evenodd" d="M747.296 1196.17L806.596 1286.81L868.372 1288.46L812.042 1199.53L747.296 1196.17Z" fill="black"/>
<path fill-rule="evenodd" clip-rule="evenodd" d="M910.02 1205.02L969.319 1295.65L1031.1 1297.31L974.766 1208.38L910.02 1205.02Z" fill="black"/>
<path fill-rule="evenodd" clip-rule="evenodd" d="M1049.88 1210.41L1103.42 1286.61L1157.79 1288.92L1106.89 1214.18L1049.88 1210.41Z" fill="black"/>
<path fill-rule="evenodd" clip-rule="evenodd" d="M1186.21 1220.72L1239.75 1296.92L1294.12 1299.23L1243.22 1224.49L1186.21 1220.72Z" fill="black"/>
<path fill-rule="evenodd" clip-rule="evenodd" d="M1317.39 1217.58L1370.93 1293.77L1425.3 1296.08L1374.4 1221.35L1317.39 1217.58Z" fill="black"/>
<path fill-rule="evenodd" clip-rule="evenodd" d="M1436.8 1224.44L1490.33 1300.63L1544.7 1302.94L1493.8 1228.21L1436.8 1224.44Z" fill="black"/>
<path fill-rule="evenodd" clip-rule="evenodd" d="M580.249 1863.78L948.16 1841.73C1181.91 1837.14 1409.36 1786.44 1618.16 1732.45L1628.18 1824.19C1428.01 1866.4 1201.73 1907.21 961.138 1906.02L565.392 1938.47L580.249 1863.78Z" fill="#D8CF82" stroke="black" stroke-width="10" stroke-miterlimit="1.5" stroke-linecap="round" stroke-linejoin="round"/>
<path fill-rule="evenodd" clip-rule="evenodd" d="M1457.72 1776.29L1409.23 1867.71L1350.72 1874.36L1396.54 1784.82L1457.72 1776.29Z" fill="black"/>
<path fill-rule="evenodd" clip-rule="evenodd" d="M1330 1801.08L1281.5 1883.93L1225.69 1891.4L1271.6 1810.29L1330 1801.08Z" fill="black"/>
<path fill-rule="evenodd" clip-rule="evenodd" d="M1211.53 1816.42L1159.39 1895.52L1102.54 1904.5L1151.99 1827.11L1211.53 1816.42Z" fill="black"/>
<path fill-rule="evenodd" clip-rule="evenodd" d="M1078.68 1829.73L1028 1905.16L973.199 1914.02L1021.28 1840.24L1078.68 1829.73Z" fill="black"/>
<path fill-rule="evenodd" clip-rule="evenodd" d="M941.895 1841.7L900.13 1914.12L851.73 1920.45L891.253 1849.54L941.895 1841.7Z" fill="black"/>
<path fill-rule="evenodd" clip-rule="evenodd" d="M831.992 1825.8L785.373 1906.41L731.417 1913.5L775.537 1834.57L831.992 1825.8Z" fill="black"/>
<path fill-rule="evenodd" clip-rule="evenodd" d="M713.658 1843.14L667.038 1923.76L613.082 1930.84L657.202 1851.92L713.658 1843.14Z" fill="black"/>
<path d="M802.736 1154.57C820.643 1145.52 828.682 1125.37 820.692 1109.57C812.702 1093.77 791.708 1088.3 773.801 1097.35C755.894 1106.41 747.855 1126.56 755.845 1142.36C763.835 1158.16 784.829 1163.63 802.736 1154.57Z" fill="#EFE313"/>
<path fill-rule="evenodd" clip-rule="evenodd" d="M771.094 1092C792.119 1081.37 816.662 1088.31 826.044 1106.86C835.425 1125.41 826.468 1149.3 805.443 1159.93C784.422 1170.56 759.875 1163.62 750.493 1145.06C741.112 1126.51 750.073 1102.63 771.094 1092ZM773.802 1097.35C755.909 1106.4 747.865 1126.57 755.848 1142.36C763.835 1158.15 784.843 1163.62 802.736 1154.57C820.637 1145.52 828.677 1125.36 820.689 1109.57C812.707 1093.78 791.703 1088.3 773.802 1097.35Z" fill="black"/>
<path d="M797.615 1103.03L791.436 1114.25" stroke="black" stroke-width="10" stroke-miterlimit="1.5" stroke-linecap="round" stroke-linejoin="round"/>
<path d="M757.672 1130.87C757.672 1130.87 761.941 1146.07 782.324 1137.06C790.467 1133.46 814.036 1133.62 815.245 1123.07C816.355 1113.36 811.826 1105.74 811.826 1105.74" stroke="black" stroke-width="6" stroke-miterlimit="1.5" stroke-linecap="round" stroke-linejoin="round"/>
<path d="M767.615 1120.66L777.55 1121.29" stroke="black" stroke-width="10.0354" stroke-miterlimit="1.5" stroke-linecap="round" stroke-linejoin="round"/>
<path fill-rule="evenodd" clip-rule="evenodd" d="M711.209 1315.32C700.672 1314.37 690.065 1314.37 679.531 1315.32L675.181 1343.8C665.499 1345.16 656.01 1347.47 646.887 1350.74L627.581 1328.07C617.947 1332.08 608.759 1336.94 600.148 1342.59L611.919 1369.25C604.275 1374.85 597.331 1381.21 591.208 1388.22L562.121 1377.43C555.967 1385.34 550.662 1393.75 546.281 1402.57L571.019 1420.27C567.46 1428.61 564.918 1437.31 563.437 1446.2L532.362 1450.18C531.339 1459.83 531.339 1469.55 532.362 1479.2L563.437 1483.18C564.918 1492.07 567.46 1500.75 571.019 1509.11L546.281 1526.82C550.662 1535.63 555.967 1544.07 562.121 1551.96L591.208 1541.16C597.331 1548.17 604.275 1554.53 611.919 1560.15L600.148 1586.8C608.759 1592.44 617.947 1597.3 627.581 1601.31L646.887 1578.65C656.01 1581.91 665.499 1584.25 675.181 1585.6L679.531 1614.06C690.065 1615.01 700.672 1615.01 711.209 1614.06L715.556 1585.6C725.238 1584.25 734.727 1581.91 743.85 1578.65L763.156 1601.31C772.79 1597.3 781.978 1592.44 790.589 1586.8L778.818 1560.15C786.462 1554.53 793.406 1548.17 799.529 1541.16L828.616 1551.96C834.77 1544.07 840.076 1535.63 844.456 1526.82L819.718 1509.11C823.277 1500.75 825.819 1492.07 827.3 1483.18L858.375 1479.2C859.398 1469.55 859.398 1459.83 858.375 1450.18L827.3 1446.2C825.819 1437.31 823.277 1428.61 819.718 1420.27L844.456 1402.57C840.076 1393.75 834.77 1385.34 828.616 1377.43L799.529 1388.22C793.406 1381.21 786.462 1374.85 778.818 1369.25L790.589 1342.59C781.978 1336.94 772.79 1332.08 763.156 1328.07L743.85 1350.74C734.727 1347.47 725.238 1345.16 715.556 1343.8L711.209 1315.32ZM695.37 1403.52C732.216 1403.52 762.135 1430.92 762.135 1464.69C762.135 1498.46 732.216 1525.89 695.37 1525.89C658.521 1525.89 628.605 1498.46 628.605 1464.69C628.605 1430.92 658.521 1403.52 695.37 1403.52Z" fill="black" fill-opacity="0.3"/>
<path fill-rule="evenodd" clip-rule="evenodd" d="M1437.37 1297.7C1427.35 1296.74 1417.27 1296.74 1407.26 1297.7L1403.12 1326.26C1393.92 1327.62 1384.9 1329.94 1376.22 1333.21L1357.87 1310.48C1348.71 1314.5 1339.98 1319.37 1331.79 1325.04L1342.98 1351.79C1335.72 1357.4 1329.12 1363.78 1323.3 1370.81L1295.65 1359.98C1289.8 1367.92 1284.75 1376.36 1280.59 1385.2L1304.1 1402.96C1300.72 1411.32 1298.3 1420.05 1296.9 1428.96L1267.36 1432.96C1266.38 1442.64 1266.38 1452.39 1267.36 1462.07L1296.9 1466.06C1298.3 1474.98 1300.72 1483.68 1304.1 1492.06L1280.59 1509.82C1284.75 1518.67 1289.8 1527.13 1295.65 1535.04L1323.3 1524.21C1329.12 1531.24 1335.72 1537.62 1342.98 1543.26L1331.79 1569.98C1339.98 1575.65 1348.71 1580.53 1357.87 1584.54L1376.22 1561.81C1384.9 1565.09 1393.92 1567.43 1403.12 1568.79L1407.26 1597.33C1417.27 1598.28 1427.35 1598.28 1437.37 1597.33L1441.5 1568.79C1450.71 1567.43 1459.73 1565.09 1468.4 1561.81L1486.75 1584.54C1495.91 1580.53 1504.64 1575.65 1512.83 1569.98L1501.64 1543.26C1508.91 1537.62 1515.51 1531.24 1521.33 1524.21L1548.98 1535.04C1554.83 1527.13 1559.87 1518.67 1564.03 1509.82L1540.52 1492.06C1543.9 1483.68 1546.32 1474.98 1547.73 1466.06L1577.27 1462.07C1578.24 1452.39 1578.24 1442.64 1577.27 1432.96L1547.73 1428.96C1546.32 1420.05 1543.9 1411.32 1540.52 1402.96L1564.03 1385.2C1559.87 1376.36 1554.83 1367.92 1548.98 1359.98L1521.33 1370.81C1515.51 1363.78 1508.91 1357.4 1501.64 1351.79L1512.83 1325.04C1504.64 1319.37 1495.91 1314.5 1486.75 1310.48L1468.4 1333.21C1459.73 1329.94 1450.71 1327.62 1441.5 1326.26L1437.37 1297.7ZM1422.31 1386.16C1457.34 1386.16 1485.78 1413.64 1485.78 1447.51C1485.78 1481.38 1457.34 1508.89 1422.31 1508.89C1387.28 1508.89 1358.85 1481.38 1358.85 1447.51C1358.85 1413.64 1387.28 1386.16 1422.31 1386.16Z" fill="black" fill-opacity="0.3"/>
<path fill-rule="evenodd" clip-rule="evenodd" d="M896.428 896.737C906.644 898.113 920.848 901.924 925.621 913.969C929.693 924.233 925.276 941.71 923.426 955.444C921.431 970.26 918.605 988.341 911.164 997.288C903.614 1006.37 891.39 1006.21 881.858 1004.92C871.943 1003.59 861.308 1000.83 856.479 989.349C852.091 978.929 852.947 960.421 854.861 946.211C856.75 932.182 856.945 913.305 863.801 904.435C871.533 894.435 886.399 895.387 896.428 896.737ZM892.629 920.72C897.055 921.316 903.848 922.494 906.343 927.966C909.177 934.196 907.356 945.193 906.287 953.136C905.16 961.503 903.113 971.313 898.658 975.766C895.166 979.258 889.66 978.433 885.501 977.873C881.171 977.29 874.642 976.782 872.187 972.189C869.279 966.745 870.912 956.615 872.002 948.519C873.118 940.235 874.447 927.281 878.798 921.976C882.284 917.729 888.421 920.153 892.629 920.72Z" fill="#808080" stroke="black" stroke-width="8.7121" stroke-miterlimit="1.5" stroke-linecap="round" stroke-linejoin="round"/>
<path fill-rule="evenodd" clip-rule="evenodd" d="M878.799 921.979C881.607 930.255 892.022 942.618 898.114 938.929C904.78 934.892 905.969 885.159 905.969 885.159L881.26 889.272C881.26 889.272 875.99 913.702 878.799 921.979Z" fill="#808080" stroke="black" stroke-width="8.71204" stroke-miterlimit="1.5" stroke-linecap="round" stroke-linejoin="round"/>
<path fill-rule="evenodd" clip-rule="evenodd" d="M878.144 1017.31C888.361 1018.69 902.565 1022.5 907.338 1034.54C911.41 1044.81 906.992 1062.28 905.143 1076.02C903.148 1090.83 900.321 1108.92 892.88 1117.86C885.33 1126.94 873.106 1126.78 863.575 1125.5C853.659 1124.16 843.025 1121.4 838.196 1109.92C833.808 1099.5 834.664 1081 836.578 1066.78C838.467 1052.76 838.662 1033.88 845.518 1025.01C853.25 1015.01 868.116 1015.96 878.144 1017.31ZM874.346 1041.29C878.772 1041.89 885.565 1043.07 888.059 1048.54C890.894 1054.77 889.073 1065.77 888.003 1073.71C886.877 1082.08 884.83 1091.89 880.375 1096.34C876.883 1099.83 871.376 1099.01 867.218 1098.45C862.888 1097.86 856.359 1097.36 853.904 1092.76C850.996 1087.32 852.629 1077.19 853.719 1069.09C854.835 1060.81 856.164 1047.85 860.515 1042.55C864 1038.3 870.138 1040.73 874.346 1041.29Z" fill="#808080" stroke="black" stroke-width="8.7121" stroke-miterlimit="1.5" stroke-linecap="round" stroke-linejoin="round"/>
<path fill-rule="evenodd" clip-rule="evenodd" d="M858.586 1143.44C866.414 1146.94 876.79 1153.61 877.386 1166.19C877.897 1176.91 869.659 1192.74 864.487 1205.53C858.907 1219.33 851.784 1236.08 843.41 1243.09C834.912 1250.2 825.146 1247.44 817.842 1244.19C810.244 1240.8 802.451 1235.89 801.658 1223.84C800.936 1212.91 806.592 1195.33 811.944 1182.09C817.227 1169.03 822.453 1150.95 830.336 1143.9C839.226 1135.94 850.9 1140.02 858.586 1143.44ZM849.097 1165.66C852.489 1167.17 857.624 1169.74 858.156 1175.53C858.758 1182.11 854.344 1192.28 851.352 1199.67C848.202 1207.46 843.924 1216.44 839.154 1219.77C835.414 1222.38 831.217 1220.42 828.03 1219C824.711 1217.52 819.608 1215.64 818.872 1210.71C818 1204.87 822.031 1195.49 825.08 1187.95C828.199 1180.24 832.745 1168.09 837.661 1163.92C841.598 1160.58 845.872 1164.22 849.097 1165.66Z" fill="#808080" stroke="black" stroke-width="7.92675" stroke-miterlimit="1.5" stroke-linecap="round" stroke-linejoin="round"/>
<path fill-rule="evenodd" clip-rule="evenodd" d="M800.666 1255.32C803.314 1263.94 805.391 1276.76 796.981 1285.76C789.816 1293.43 773.38 1297.58 761.069 1302.12C747.788 1307.01 731.435 1312.67 721.088 1310.72C710.586 1308.75 706.161 1299.08 703.69 1291.03C701.119 1282.66 699.487 1273.1 707.397 1264.3C714.576 1256.31 730.555 1248.92 743.293 1244.23C755.868 1239.6 771.913 1231.52 781.976 1233.05C793.324 1234.76 798.066 1246.85 800.666 1255.32ZM778.956 1262.79C780.103 1266.52 781.642 1272.37 777.943 1276.72C773.729 1281.66 763.745 1285.02 756.625 1287.65C749.126 1290.41 740.061 1293.08 734.631 1291.52C730.373 1290.3 729.016 1285.61 727.938 1282.1C726.815 1278.44 724.809 1273.09 727.778 1269.16C731.299 1264.51 740.48 1261.37 747.737 1258.7C755.163 1255.97 766.62 1251.36 772.731 1252.47C777.626 1253.36 777.865 1259.24 778.956 1262.79Z" fill="#808080" stroke="black" stroke-width="7.93026" stroke-miterlimit="1.5" stroke-linecap="round" stroke-linejoin="round"/>
<path fill-rule="evenodd" clip-rule="evenodd" d="M696.196 1256.62C690.473 1263.51 681.071 1272.02 669.715 1268.84C660.036 1266.14 648.749 1253.03 639.138 1243.94C628.769 1234.14 616.294 1221.89 612.887 1211.29C609.426 1200.54 615.143 1191.47 620.482 1185.05C626.036 1178.36 633.005 1171.94 643.956 1174.75C653.898 1177.31 667.599 1188.33 677.545 1197.73C687.362 1207.01 701.648 1217.74 705.264 1227.85C709.341 1239.25 701.813 1249.86 696.196 1256.62ZM679.672 1240.33C677.193 1243.31 673.187 1247.74 667.879 1246.54C661.837 1245.18 654.297 1237.65 648.738 1232.39C642.883 1226.86 636.349 1219.82 634.997 1213.99C633.936 1209.41 637.084 1205.75 639.414 1202.94C641.839 1200.02 645.214 1195.41 649.835 1196.15C655.31 1197.02 662.277 1203.92 667.943 1209.28C673.74 1214.76 682.997 1223.02 685.044 1229.26C686.684 1234.25 682.029 1237.49 679.672 1240.33Z" fill="#808080" stroke="black" stroke-width="7.93239" stroke-miterlimit="1.5" stroke-linecap="round" stroke-linejoin="round"/>
<path fill-rule="evenodd" clip-rule="evenodd" d="M619.993 1159.28C611.507 1158.43 599.695 1155.35 595.655 1143.59C592.209 1133.57 595.76 1115.92 597.204 1102.14C598.763 1087.27 600.989 1069.11 607.105 1059.82C613.31 1050.38 623.454 1049.92 631.372 1050.72C639.609 1051.54 648.451 1053.76 652.534 1064.95C656.243 1075.11 655.655 1093.6 654.16 1107.86C652.684 1121.94 652.647 1140.76 647.015 1149.95C640.666 1160.31 628.324 1160.12 619.993 1159.28ZM622.987 1135.18C619.311 1134.81 613.666 1133.99 611.561 1128.66C609.167 1122.59 610.606 1111.54 611.442 1103.57C612.322 1095.18 613.956 1085.29 617.623 1080.63C620.498 1076.97 625.072 1077.52 628.527 1077.86C632.124 1078.22 637.545 1078.4 639.612 1082.85C642.061 1088.13 640.772 1098.31 639.921 1106.43C639.049 1114.74 638.032 1127.72 634.456 1133.23C631.592 1137.64 626.483 1135.54 622.987 1135.18Z" fill="#808080" stroke="black" stroke-width="7.92433" stroke-miterlimit="1.5" stroke-linecap="round" stroke-linejoin="round"/>
<path fill-rule="evenodd" clip-rule="evenodd" d="M879.408 972.737L877.061 958.653C877.061 958.653 902.903 954.774 903.668 962.287C905.205 977.393 886.283 1049.29 886.283 1049.29C886.283 1049.29 882.918 1071.45 872.748 1063.7C862.578 1055.95 868.56 1045.72 868.56 1045.72L879.408 972.737Z" fill="#808080" stroke="black" stroke-width="8.71204" stroke-miterlimit="1.5" stroke-linecap="round" stroke-linejoin="round"/>
<path fill-rule="evenodd" clip-rule="evenodd" d="M864.679 1094.91L864.95 1080.56C864.95 1080.56 890.912 1082.12 890.292 1089.67C889.043 1104.86 857.459 1171.7 857.459 1171.7C857.459 1171.7 850.135 1192.82 841.607 1183.07C833.079 1173.33 840.788 1164.5 840.788 1164.5L864.679 1094.91Z" fill="#808080" stroke="black" stroke-width="8.71356" stroke-miterlimit="1.5" stroke-linecap="round" stroke-linejoin="round"/>
<path fill-rule="evenodd" clip-rule="evenodd" d="M772.636 1253.34L761.531 1258.74C761.531 1258.74 774.581 1282.33 780.209 1279.05C791.524 1272.44 829.422 1219.11 829.422 1219.11C829.422 1219.11 842.603 1204.73 831.094 1200.29C819.584 1195.85 816.19 1206.18 816.19 1206.18L772.636 1253.34Z" fill="#808080" stroke="black" stroke-width="8.23295" stroke-miterlimit="1.5" stroke-linecap="round" stroke-linejoin="round"/>
<path fill-rule="evenodd" clip-rule="evenodd" d="M725.842 1280.37L732.475 1291.08C732.475 1291.08 752.294 1272.95 748.425 1267.63C740.645 1256.92 685.798 1226.85 685.798 1226.85C685.798 1226.85 670.568 1215.62 668.186 1228.57C665.804 1241.53 675.844 1243.19 675.844 1243.19L725.842 1280.37Z" fill="#808080" stroke="black" stroke-width="8.23056" stroke-miterlimit="1.5" stroke-linecap="round" stroke-linejoin="round"/>
<path fill-rule="evenodd" clip-rule="evenodd" d="M634.567 1134.03L636.149 1121.16C636.149 1121.16 610.301 1121.3 609.94 1128.1C609.217 1141.77 631.803 1203.16 631.803 1203.16C631.803 1203.16 636.317 1222.43 645.997 1214.11C655.677 1205.79 649.2 1197.51 649.2 1197.51L634.567 1134.03Z" fill="#808080" stroke="black" stroke-width="8.22814" stroke-miterlimit="1.5" stroke-linecap="round" stroke-linejoin="round"/>
<path fill-rule="evenodd" clip-rule="evenodd" d="M641.127 1012.12L646.474 1000.4C646.474 1000.4 622.098 991.681 619.721 998.036C614.942 1010.81 617.799 1077.07 617.799 1077.07C617.799 1077.07 616.272 1096.98 627.878 1092.37C639.485 1087.76 635.869 1077.65 635.869 1077.65L641.127 1012.12Z" fill="#808080" stroke="black" stroke-width="8.22379" stroke-miterlimit="1.5" stroke-linecap="round" stroke-linejoin="round"/>
<path fill-rule="evenodd" clip-rule="evenodd" d="M921.609 919.91C931.441 919.963 945.344 921.683 951.335 931.593C956.445 940.039 954.41 955.684 954.344 967.798C954.273 980.867 953.816 996.858 947.875 1005.44C941.847 1014.16 930.264 1015.38 921.091 1015.33C911.548 1015.28 901.15 1014.08 895.175 1004.66C889.748 996.116 888.288 979.975 888.356 967.44C888.423 955.067 886.293 938.678 891.691 930.223C897.778 920.69 911.957 919.858 921.609 919.91ZM920.956 941.127C925.215 941.15 931.785 941.414 934.816 945.88C938.261 950.965 937.887 960.703 937.849 967.709C937.809 975.088 937.075 983.823 933.407 988.18C930.532 991.597 925.223 991.496 921.22 991.474C917.053 991.452 910.815 991.739 907.93 988.031C904.512 983.636 904.814 974.671 904.853 967.53C904.893 960.223 904.562 948.843 908.027 943.759C910.803 939.687 916.906 941.105 920.956 941.127Z" fill="#808080" stroke="black" stroke-width="7.95518" stroke-miterlimit="1.5" stroke-linecap="round" stroke-linejoin="round"/>
<path fill-rule="evenodd" clip-rule="evenodd" d="M907.155 934.714C910.827 941.576 922.193 951.134 927.503 947.256C933.314 943.013 928.341 899.761 928.341 899.761L905.474 906.083C905.474 906.083 903.484 927.852 907.155 934.714Z" fill="#808080" stroke="black" stroke-width="7.95513" stroke-miterlimit="1.5" stroke-linecap="round" stroke-linejoin="round"/>
<path fill-rule="evenodd" clip-rule="evenodd" d="M914.607 1027.08C924.439 1027.14 938.342 1028.85 944.334 1038.77C949.444 1047.21 947.408 1062.86 947.342 1074.97C947.272 1088.04 946.815 1104.03 940.873 1112.62C934.845 1121.33 923.263 1122.56 914.09 1122.51C904.547 1122.45 894.149 1121.25 888.174 1111.83C882.746 1103.29 881.286 1087.15 881.354 1074.61C881.421 1062.24 879.292 1045.85 884.69 1037.4C890.777 1027.86 904.955 1027.03 914.607 1027.08ZM913.955 1048.3C918.214 1048.32 924.784 1048.59 927.814 1053.05C931.26 1058.14 930.885 1067.87 930.847 1074.88C930.807 1082.26 930.074 1090.99 926.406 1095.35C923.531 1098.77 918.221 1098.67 914.219 1098.65C910.051 1098.62 903.813 1098.91 900.928 1095.2C897.51 1090.81 897.813 1081.84 897.852 1074.7C897.891 1067.39 897.56 1056.02 901.026 1050.93C903.802 1046.86 909.904 1048.28 913.955 1048.3Z" fill="#808080" stroke="black" stroke-width="7.95518" stroke-miterlimit="1.5" stroke-linecap="round" stroke-linejoin="round"/>
<path fill-rule="evenodd" clip-rule="evenodd" d="M920.547 1129.53C928.625 1129.05 940.074 1130.02 945.156 1139.66C949.49 1147.88 948.069 1163.73 948.211 1175.92C948.363 1189.07 948.245 1205.18 943.503 1214.15C938.691 1223.24 929.196 1225.11 921.659 1225.56C913.819 1226.03 905.258 1225.38 900.197 1216.24C895.601 1207.94 894.142 1191.78 893.996 1179.17C893.851 1166.71 891.838 1150.34 896.136 1141.54C900.983 1131.62 912.617 1130.01 920.547 1129.53ZM920.353 1150.91C923.852 1150.7 929.254 1150.61 931.815 1154.94C934.727 1159.86 934.577 1169.68 934.658 1176.73C934.744 1184.16 934.283 1192.98 931.34 1197.57C929.033 1201.16 924.669 1201.35 921.381 1201.55C917.957 1201.75 912.837 1202.38 910.407 1198.81C907.529 1194.58 907.633 1185.54 907.549 1178.35C907.464 1171 907.009 1159.57 909.774 1154.27C911.989 1150.02 917.025 1151.11 920.353 1150.91Z" fill="#808080" stroke="black" stroke-width="7.24003" stroke-miterlimit="1.5" stroke-linecap="round" stroke-linejoin="round"/>
<path fill-rule="evenodd" clip-rule="evenodd" d="M922.21 1333.24C914.607 1333.64 903.88 1332.44 899.387 1322.11C895.556 1313.31 897.352 1296.46 897.574 1283.49C897.814 1269.49 898.394 1252.35 903.11 1242.88C907.896 1233.26 916.87 1231.42 923.962 1231.04C931.341 1230.66 939.365 1231.47 943.852 1241.27C947.928 1250.17 948.828 1267.38 948.598 1280.8C948.37 1294.06 949.785 1311.5 945.491 1320.81C940.648 1331.3 929.672 1332.85 922.21 1333.24ZM923.015 1310.49C919.722 1310.67 914.645 1310.69 912.365 1306.05C909.772 1300.76 910.2 1290.32 910.329 1282.82C910.464 1274.91 911.155 1265.53 914.053 1260.69C916.325 1256.9 920.43 1256.76 923.524 1256.6C926.747 1256.43 931.575 1255.83 933.753 1259.67C936.334 1264.21 935.973 1273.83 935.842 1281.47C935.707 1289.3 935.802 1301.47 933.05 1307.07C930.846 1311.56 926.147 1310.33 923.015 1310.49Z" fill="#808080" stroke="black" stroke-width="7.24461" stroke-miterlimit="1.5" stroke-linecap="round" stroke-linejoin="round"/>
<path fill-rule="evenodd" clip-rule="evenodd" d="M926.805 1335.41C934.475 1335.97 945.342 1338.5 950.146 1349.33C954.244 1358.55 952.863 1375.06 952.972 1387.91C953.09 1401.78 952.945 1418.73 948.424 1427.55C943.838 1436.49 934.819 1437.2 927.664 1436.68C920.219 1436.14 912.093 1434.33 907.308 1424.03C902.961 1414.68 901.609 1397.47 901.496 1384.17C901.385 1371.04 899.506 1353.53 903.605 1344.83C908.227 1335.02 919.276 1334.86 926.805 1335.41ZM926.576 1357.9C929.899 1358.14 935.027 1358.76 937.45 1363.65C940.205 1369.23 940.042 1379.54 940.105 1386.98C940.171 1394.81 939.715 1404.04 936.911 1408.48C934.714 1411.96 930.571 1411.58 927.449 1411.36C924.198 1411.12 919.336 1411.11 917.036 1407.02C914.312 1402.18 914.43 1392.68 914.365 1385.11C914.3 1377.35 913.891 1365.25 916.526 1360.03C918.638 1355.85 923.417 1357.67 926.576 1357.9Z" fill="#808080" stroke="black" stroke-width="7.24774" stroke-miterlimit="1.5" stroke-linecap="round" stroke-linejoin="round"/>
<path fill-rule="evenodd" clip-rule="evenodd" d="M923.706 1538.29C915.65 1537.09 904.457 1533.77 900.736 1523.24C897.561 1514.27 901.111 1498.99 902.622 1486.98C904.251 1474.02 906.548 1458.21 912.452 1450.39C918.443 1442.44 928.087 1442.58 935.603 1443.69C943.421 1444.85 951.802 1447.26 955.57 1457.29C958.993 1466.4 958.249 1482.58 956.686 1495.01C955.143 1507.27 954.919 1523.78 949.477 1531.54C943.339 1540.28 931.613 1539.46 923.706 1538.29ZM926.792 1517.32C923.302 1516.8 917.946 1515.77 915.999 1510.99C913.785 1505.54 915.263 1495.93 916.136 1488.98C917.056 1481.67 918.708 1473.09 922.239 1469.2C925.007 1466.14 929.349 1466.86 932.628 1467.35C936.043 1467.85 941.192 1468.29 943.112 1472.31C945.386 1477.06 944.06 1485.92 943.17 1493C942.259 1500.24 941.162 1511.57 937.709 1516.21C934.943 1519.93 930.11 1517.81 926.792 1517.32Z" fill="#808080" stroke="black" stroke-width="7.23672" stroke-miterlimit="1.5" stroke-linecap="round" stroke-linejoin="round"/>
<path fill-rule="evenodd" clip-rule="evenodd" d="M910.782 991.971L906.836 980.022C906.836 980.022 930.804 973.776 932.449 980.205C935.754 993.131 926.671 1057.58 926.671 1057.58C926.671 1057.58 926.204 1077.16 915.635 1071.58C905.065 1066 909.469 1056.46 909.469 1056.46L910.782 991.971Z" fill="#808080" stroke="black" stroke-width="7.95513" stroke-miterlimit="1.5" stroke-linecap="round" stroke-linejoin="round"/>
<path fill-rule="evenodd" clip-rule="evenodd" d="M923.052 1094.06L926.738 1082.11C926.738 1082.11 902.706 1075.63 901.201 1082.06C898.175 1094.99 908.581 1159.71 908.581 1159.71C908.581 1159.71 909.456 1179.37 919.879 1173.86C930.302 1168.36 925.712 1158.75 925.712 1158.75L923.052 1094.06Z" fill="#808080" stroke="black" stroke-width="7.9569" stroke-miterlimit="1.5" stroke-linecap="round" stroke-linejoin="round"/>
<path fill-rule="evenodd" clip-rule="evenodd" d="M915.601 1260.12L911.373 1271.31C911.373 1271.31 934.39 1275.96 936.2 1269.96C939.84 1257.91 933.212 1198.96 933.212 1198.96C933.212 1198.96 933.421 1180.94 922.99 1186.57C912.559 1192.2 916.504 1200.78 916.504 1200.78L915.601 1260.12Z" fill="#808080" stroke="black" stroke-width="7.52231" stroke-miterlimit="1.5" stroke-linecap="round" stroke-linejoin="round"/>
<path fill-rule="evenodd" clip-rule="evenodd" d="M936.303 1304.73L940.723 1293.94C940.723 1293.94 918.846 1284.66 916.913 1290.54C913.028 1302.35 917.406 1364.81 917.406 1364.81C917.406 1364.81 916.605 1383.47 926.777 1379.65C936.95 1375.82 933.46 1366.15 933.46 1366.15L936.303 1304.73Z" fill="#808080" stroke="black" stroke-width="7.52207" stroke-miterlimit="1.5" stroke-linecap="round" stroke-linejoin="round"/>
<path fill-rule="evenodd" clip-rule="evenodd" d="M937.823 1410.02L942.114 1399.65C942.114 1399.65 918.694 1391.66 916.858 1397.28C913.166 1408.6 919.964 1467.53 919.964 1467.53C919.964 1467.53 919.769 1485.21 930.375 1481.23C940.982 1477.25 936.96 1468.22 936.96 1468.22L937.823 1410.02Z" fill="#808080" stroke="black" stroke-width="7.51689" stroke-miterlimit="1.5" stroke-linecap="round" stroke-linejoin="round"/>
<path fill-rule="evenodd" clip-rule="evenodd" d="M949.308 1516.79L952.929 1506.03C952.929 1506.03 928.803 1501.19 927.333 1506.97C924.38 1518.58 935.205 1575.7 935.205 1575.7C935.205 1575.7 936.202 1593.14 946.615 1587.84C957.028 1582.55 952.369 1574.19 952.369 1574.19L949.308 1516.79Z" fill="#808080" stroke="black" stroke-width="7.50924" stroke-miterlimit="1.5" stroke-linecap="round" stroke-linejoin="round"/>
<path fill-rule="evenodd" clip-rule="evenodd" d="M977.228 894.686C987.746 894.686 1002.63 896.477 1009.1 907.236C1014.61 916.405 1012.52 933.459 1012.52 946.655C1012.52 960.89 1012.13 978.312 1005.82 987.7C999.425 997.23 987.041 998.631 977.228 998.631C967.019 998.631 955.889 997.377 949.443 987.158C943.587 977.882 941.932 960.308 941.932 946.655C941.932 933.177 939.559 915.337 945.284 906.096C951.741 895.676 966.903 894.686 977.228 894.686ZM976.653 917.8C981.21 917.8 988.24 918.049 991.507 922.896C995.222 928.415 994.878 939.023 994.878 946.655C994.878 954.693 994.144 964.212 990.246 968.98C987.19 972.719 981.51 972.64 977.228 972.64C972.77 972.64 966.098 972.99 962.99 968.968C959.309 964.201 959.58 954.434 959.58 946.655C959.58 938.696 959.16 926.302 962.838 920.743C965.784 916.292 972.32 917.8 976.653 917.8Z" fill="#808080" stroke="black" stroke-width="8.58741" stroke-miterlimit="1.5" stroke-linecap="round" stroke-linejoin="round"/>
<path fill-rule="evenodd" clip-rule="evenodd" d="M962.838 920.745C966.806 928.198 979.02 938.542 984.679 934.286C990.87 929.63 985.299 882.547 985.299 882.547L960.874 889.568C960.874 889.568 958.871 913.292 962.838 920.745Z" fill="#808080" stroke="black" stroke-width="8.58735" stroke-miterlimit="1.5" stroke-linecap="round" stroke-linejoin="round"/>
<path fill-rule="evenodd" clip-rule="evenodd" d="M975.159 1010.79C985.678 1010.79 1000.56 1012.58 1007.03 1023.34C1012.54 1032.51 1010.46 1049.57 1010.46 1062.76C1010.46 1077 1010.06 1094.42 1003.75 1103.81C997.356 1113.34 984.972 1114.74 975.159 1114.74C964.951 1114.74 953.821 1113.48 947.374 1103.27C941.518 1093.99 939.863 1076.42 939.863 1062.76C939.863 1049.28 937.49 1031.44 943.215 1022.2C949.672 1011.78 964.834 1010.79 975.159 1010.79ZM974.584 1033.91C979.141 1033.91 986.171 1034.16 989.438 1039C993.153 1044.52 992.809 1055.13 992.809 1062.76C992.809 1070.8 992.076 1080.32 988.177 1085.09C985.122 1088.83 979.441 1088.75 975.159 1088.75C970.701 1088.75 964.029 1089.1 960.922 1085.08C957.24 1080.31 957.512 1070.54 957.512 1062.76C957.512 1054.8 957.091 1042.41 960.769 1036.85C963.715 1032.4 970.251 1033.91 974.584 1033.91Z" fill="#808080" stroke="black" stroke-width="8.58741" stroke-miterlimit="1.5" stroke-linecap="round" stroke-linejoin="round"/>
<path fill-rule="evenodd" clip-rule="evenodd" d="M972.557 1132.31C980.95 1134.61 992.351 1139.59 994.666 1151.38C996.642 1161.43 990.468 1177.42 986.98 1190.15C983.216 1203.87 978.294 1220.59 970.781 1228.26C963.156 1236.06 952.905 1234.7 945.076 1232.55C936.93 1230.32 928.381 1226.68 925.939 1215.41C923.72 1205.18 927.045 1187.87 930.655 1174.71C934.218 1161.71 937.041 1143.98 944.053 1136.32C951.959 1127.69 964.319 1130.05 972.557 1132.31ZM965.987 1154.47C969.623 1155.47 975.166 1157.25 976.492 1162.64C977.997 1168.77 974.918 1178.93 972.9 1186.29C970.775 1194.04 967.673 1203.06 963.302 1206.8C959.875 1209.74 955.363 1208.42 951.947 1207.49C948.39 1206.51 942.974 1205.39 941.558 1200.83C939.881 1195.43 942.68 1186.07 944.736 1178.57C946.841 1170.89 949.782 1158.84 954.186 1154.29C957.714 1150.64 962.53 1153.52 965.987 1154.47Z" fill="#808080" stroke="black" stroke-width="7.81087" stroke-miterlimit="1.5" stroke-linecap="round" stroke-linejoin="round"/>
<path fill-rule="evenodd" clip-rule="evenodd" d="M929.223 1245.24C933.076 1253.04 936.921 1264.88 929.643 1274.44C923.442 1282.59 907.386 1288.59 895.554 1294.44C882.79 1300.74 867.024 1308.16 856.296 1307.64C845.408 1307.11 839.616 1298.54 836.021 1291.26C832.282 1283.69 829.329 1274.88 836.13 1265.57C842.302 1257.12 857.453 1248.11 869.696 1242.07C881.781 1236.1 896.907 1226.44 907.29 1226.6C918.998 1226.77 925.441 1237.58 929.223 1245.24ZM908.287 1255.05C909.956 1258.43 912.308 1263.75 909.159 1268.32C905.571 1273.52 895.933 1277.97 889.09 1281.34C881.882 1284.9 873.079 1288.57 867.376 1287.79C862.904 1287.18 860.894 1282.93 859.325 1279.76C857.692 1276.45 854.935 1271.66 857.402 1267.57C860.329 1262.73 869.186 1258.6 876.16 1255.16C883.297 1251.64 894.256 1245.84 900.587 1246.1C905.657 1246.32 906.699 1251.84 908.287 1255.05Z" fill="#808080" stroke="black" stroke-width="7.81087" stroke-miterlimit="1.5" stroke-linecap="round" stroke-linejoin="round"/>
<path fill-rule="evenodd" clip-rule="evenodd" d="M823.757 1259.75C818.908 1266.97 810.559 1276.2 798.644 1274.64C788.488 1273.32 775.289 1262.39 764.332 1255.03C752.512 1247.1 738.228 1237.12 733.34 1227.56C728.376 1217.85 732.922 1208.57 737.446 1201.82C742.152 1194.81 748.325 1187.86 759.782 1189.13C770.184 1190.28 785.539 1198.93 796.876 1206.54C808.068 1214.05 823.975 1222.36 829.009 1231.44C834.684 1241.69 828.517 1252.65 823.757 1259.75ZM804.829 1246.47C802.728 1249.6 799.281 1254.29 793.75 1253.84C787.454 1253.31 778.804 1247.16 772.467 1242.91C765.792 1238.43 758.227 1232.62 756.065 1227.29C754.369 1223.11 757.054 1219.25 759.027 1216.31C761.083 1213.24 763.868 1208.47 768.64 1208.57C774.296 1208.7 782.281 1214.33 788.74 1218.66C795.349 1223.1 805.834 1229.72 808.754 1235.34C811.092 1239.84 806.826 1243.49 804.829 1246.47Z" fill="#808080" stroke="black" stroke-width="7.81087" stroke-miterlimit="1.5" stroke-linecap="round" stroke-linejoin="round"/>
<path fill-rule="evenodd" clip-rule="evenodd" d="M733.443 1177.57C724.745 1177.85 712.382 1176.44 706.695 1165.86C701.846 1156.84 703.034 1139.74 702.618 1126.55C702.169 1112.32 701.947 1094.9 706.865 1085.35C711.855 1075.66 722.051 1073.93 730.166 1073.68C738.607 1073.41 747.85 1074.38 753.504 1084.42C758.638 1093.54 760.561 1111.06 760.991 1124.71C761.416 1138.18 763.941 1155.95 759.498 1165.33C754.488 1175.92 741.981 1177.3 733.443 1177.57ZM733.19 1154.45C729.422 1154.57 723.601 1154.51 720.746 1149.75C717.5 1144.33 717.45 1133.72 717.209 1126.09C716.956 1118.05 717.263 1108.52 720.336 1103.65C722.745 1099.84 727.445 1099.77 730.985 1099.66C734.672 1099.54 740.178 1099.02 742.874 1102.95C746.069 1107.62 746.152 1117.39 746.398 1125.17C746.649 1133.12 747.387 1145.5 744.521 1151.15C742.225 1155.68 736.773 1154.34 733.19 1154.45Z" fill="#808080" stroke="black" stroke-width="7.81087" stroke-miterlimit="1.5" stroke-linecap="round" stroke-linejoin="round"/>
<path fill-rule="evenodd" clip-rule="evenodd" d="M970.367 968.569L966.076 955.576C966.076 955.576 991.68 948.632 993.476 955.624C997.087 969.684 987.744 1039.93 987.744 1039.93C987.744 1039.93 987.359 1061.27 976.02 1055.25C964.68 1049.23 969.335 1038.82 969.335 1038.82L970.367 968.569Z" fill="#808080" stroke="black" stroke-width="8.58735" stroke-miterlimit="1.5" stroke-linecap="round" stroke-linejoin="round"/>
<path fill-rule="evenodd" clip-rule="evenodd" d="M972.11 1085.73L970.429 1072.15C970.429 1072.15 996.895 1070.32 997.297 1077.53C998.103 1092.03 975.267 1159.11 975.267 1159.11C975.267 1159.11 970.736 1179.97 960.785 1171.86C950.834 1163.75 957.427 1154.44 957.427 1154.44L972.11 1085.73Z" fill="#808080" stroke="black" stroke-width="8.58735" stroke-miterlimit="1.5" stroke-linecap="round" stroke-linejoin="round"/>
<path fill-rule="evenodd" clip-rule="evenodd" d="M900.609 1246.94L890.114 1253.44C890.114 1253.44 906.524 1274.05 911.767 1270.23C922.31 1262.56 953.37 1207.42 953.37 1207.42C953.37 1207.42 964.741 1192.17 952.498 1189.44C940.254 1186.71 938.23 1196.9 938.23 1196.9L900.609 1246.94Z" fill="#808080" stroke="black" stroke-width="8.10602" stroke-miterlimit="1.5" stroke-linecap="round" stroke-linejoin="round"/>
<path fill-rule="evenodd" clip-rule="evenodd" d="M856.971 1278.39L865.136 1287.65C865.136 1287.65 882.71 1268.03 878.072 1263.49C868.747 1254.38 809.189 1232.97 809.189 1232.97C809.189 1232.97 792.258 1224.31 791.614 1236.84C790.969 1249.36 801.349 1249.66 801.349 1249.66L856.971 1278.39Z" fill="#808080" stroke="black" stroke-width="8.10602" stroke-miterlimit="1.5" stroke-linecap="round" stroke-linejoin="round"/>
<path fill-rule="evenodd" clip-rule="evenodd" d="M744.742 1151.89L744.589 1139.55C744.589 1139.55 718.471 1142.97 719.032 1149.43C720.161 1162.42 751.361 1217.48 751.361 1217.48C751.361 1217.48 758.55 1235.09 767.206 1226.01C775.863 1216.93 768.185 1209.94 768.185 1209.94L744.742 1151.89Z" fill="#808080" stroke="black" stroke-width="8.10602" stroke-miterlimit="1.5" stroke-linecap="round" stroke-linejoin="round"/>
<path fill-rule="evenodd" clip-rule="evenodd" d="M734.774 1036.02L738.585 1024.27C738.585 1024.27 712.748 1019.15 711.21 1025.44C708.117 1038.11 720.029 1100.27 720.029 1100.27C720.029 1100.27 721.197 1119.25 732.305 1113.43C743.414 1107.6 738.381 1098.52 738.381 1098.52L734.774 1036.02Z" fill="#808080" stroke="black" stroke-width="8.10602" stroke-miterlimit="1.5" stroke-linecap="round" stroke-linejoin="round"/>
<path fill-rule="evenodd" clip-rule="evenodd" d="M941.483 923.79C930.873 913.211 920.254 913.627 909.626 926.703L920.031 940.07L934.829 946.846L936.328 986.288L926.132 977.088L921.247 982.638L918.609 1068.65C924.859 1074.38 925.841 1069.22 927.556 1056.41L931.322 1086.58L916.489 1084.47L918.119 1168.07L926.1 1150.33L935.505 1148.46L940.998 1133.8L924.435 1128.6L924.241 1120.64L944.616 1103.5L941.477 1034.1L933.156 1028.13L934.439 1011.59C943.807 1011.61 949.847 1004.79 951.855 989.683L941.483 923.79Z" fill="black" fill-opacity="0.3"/>
<path fill-rule="evenodd" clip-rule="evenodd" d="M885.782 958.457L873.59 1059.07L881.943 1064.13L885.678 1035.1L909.527 1025.57L908.028 1013.16L892.332 998.33L885.782 958.457Z" fill="black" fill-opacity="0.3"/>
<path fill-rule="evenodd" clip-rule="evenodd" d="M859.775 1098.75L839.749 1099.01L849.307 1116.74L847.3 1138.39L834.431 1140.74L833.12 1162.87H841.663L859.775 1098.75Z" fill="black" fill-opacity="0.3"/>
<path fill-rule="evenodd" clip-rule="evenodd" d="M980.475 962.794L983.15 998.159L986.862 960.197L980.475 962.794Z" fill="white"/>
<path fill-rule="evenodd" clip-rule="evenodd" d="M983.594 1079.91L979.296 1115.12L990.366 1078.62L983.594 1079.91Z" fill="white"/>
<path fill-rule="evenodd" clip-rule="evenodd" d="M997.86 1031.37L1002.8 1062.65L1001.97 1028.62L997.86 1031.37Z" fill="white"/>
<path fill-rule="evenodd" clip-rule="evenodd" d="M941.835 1200.89L930.51 1227.33L948.451 1202.09L941.835 1200.89Z" fill="white"/>
<path fill-rule="evenodd" clip-rule="evenodd" d="M814.305 1246.61L840.937 1257.48L815.393 1239.97L814.305 1246.61Z" fill="white"/>
<path fill-rule="evenodd" clip-rule="evenodd" d="M735.565 1152.65L745.827 1179.52L741.154 1148.91L735.565 1152.65Z" fill="white"/>
<path fill-rule="evenodd" clip-rule="evenodd" d="M693.514 1246.49L719.516 1258.79L694.961 1239.92L693.514 1246.49Z" fill="white"/>
<path fill-rule="evenodd" clip-rule="evenodd" d="M747.561 1090.86L754.291 1118.82L753.584 1087.86L747.561 1090.86Z" fill="white"/>
<path fill-rule="evenodd" clip-rule="evenodd" d="M922.921 1301.02L924.944 1329.71L929.355 1299.06L922.921 1301.02Z" fill="white"/>
<path fill-rule="evenodd" clip-rule="evenodd" d="M925.633 1407.45L927.05 1436.14L930.619 1405.46L925.633 1407.45Z" fill="white"/>
<path fill-rule="evenodd" clip-rule="evenodd" d="M938.081 1512.57L939.498 1541.25L943.067 1510.58L938.081 1512.57Z" fill="white"/>
<path fill-rule="evenodd" clip-rule="evenodd" d="M867.43 1113.99L859.196 1141.55L874.14 1114.42L867.43 1113.99Z" fill="white"/>
<path fill-rule="evenodd" clip-rule="evenodd" d="M905.752 1091.23L910.488 1119.61L911.971 1088.67L905.752 1091.23Z" fill="white"/>
<path fill-rule="evenodd" clip-rule="evenodd" d="M914.742 989.362L919.478 1017.74L920.961 986.803L914.742 989.362Z" fill="white"/>
<path fill-rule="evenodd" clip-rule="evenodd" d="M957.021 901.236C957.021 901.236 1115.69 905.93 1162.18 953.579C1214.59 1007.3 1234.98 1070.73 1234.98 1070.73L1084.52 1107.26C1147.4 1109.37 1215.63 1109.47 1254.59 1147.85L1272.51 1146.14C1294.31 1173.03 1302.41 1199.8 1298.89 1226.48L1178.21 1220.48C1305.32 1257.42 1313.96 1292.03 1276.3 1325.75L1345.95 1396.26C1345.95 1396.26 1456.27 1544.46 1382.35 1689.66C1328.02 1796.39 1065.69 2057.97 1065.69 2057.97L1409.2 2067.12C1533.73 1866.35 1638.82 1649.82 1658.42 1364.03L1478.88 943.721C1310.03 900.75 1087.38 848.231 957.021 901.236Z" fill="black" fill-opacity="0.3"/>
</svg>
