<svg width="2160" height="2700" viewBox="0 0 2160 2700" fill="none" xmlns="http://www.w3.org/2000/svg">
<path d="M1081.91 2114.3C1394.08 2114.3 1647.14 1834.3 1647.14 1488.89C1647.14 1143.49 1394.08 863.488 1081.91 863.488C769.74 863.488 516.678 1143.49 516.678 1488.89C516.678 1834.3 769.74 2114.3 1081.91 2114.3Z" fill="#3A3A3A"/>
<path fill-rule="evenodd" clip-rule="evenodd" d="M1081.91 863.494C1393.87 863.494 1635.37 1143.93 1647.14 1488.89C1663.05 1955.58 1081.91 2114.31 1081.91 2114.31C1081.91 2114.31 1590.89 1764.28 1106.02 1525.79C600.082 1276.92 919.272 863.494 1081.91 863.494Z" fill="#B9BDC0"/>
<path d="M799.151 2003.34C893.782 2003.34 970.496 1926.78 970.496 1832.34C970.496 1737.91 893.782 1661.35 799.151 1661.35C704.52 1661.35 627.807 1737.91 627.807 1832.34C627.807 1926.78 704.52 2003.34 799.151 2003.34Z" fill="#B9BDC0"/>
<path d="M1312.13 1270.98C1406.76 1270.98 1483.48 1194.42 1483.48 1099.98C1483.48 1005.54 1406.76 928.986 1312.13 928.986C1217.5 928.986 1140.79 1005.54 1140.79 1099.98C1140.79 1194.42 1217.5 1270.98 1312.13 1270.98Z" fill="#3A3A3A"/>
<path fill-rule="evenodd" clip-rule="evenodd" d="M785.937 969.77C785.937 969.77 994.243 897.272 1188.48 1019.03C1382.53 1140.67 1433.09 1238.35 1441.85 1439.8C1452.27 1679.52 1426.61 1818.71 1248.54 1905.77C1042.14 2006.69 727.558 1928.62 727.558 1928.62C898.167 2147.93 1178.93 2156.11 1546.3 1989.15C1652.4 1690.42 1684.39 1360.65 1636.44 997.373C1027.33 769.35 917.095 876.591 785.937 969.77Z" fill="black" fill-opacity="0.3"/>
</svg>
