<svg width="2160" height="2700" viewBox="0 0 2160 2700" fill="none" xmlns="http://www.w3.org/2000/svg">
<path d="M1090.5 2061.64C1375.3 2061.64 1606.18 1798.69 1606.18 1474.33C1606.18 1149.97 1375.3 887.023 1090.5 887.023C805.706 887.023 574.831 1149.97 574.831 1474.33C574.831 1798.69 805.706 2061.64 1090.5 2061.64Z" fill="#A4A4A4" stroke="black" stroke-width="16.0412" stroke-miterlimit="1.5" stroke-linecap="round" stroke-linejoin="round"/>
<path fill-rule="evenodd" clip-rule="evenodd" d="M1416.75 960.607C1439.14 967.811 1463.45 1056.63 1463.23 1173C1463.01 1286.11 1437.36 1371.84 1415.17 1379.99C1389.98 1389.2 1357.23 1281.97 1356.42 1162.92C1355.57 1039.13 1391.31 952.421 1416.75 960.607Z" fill="#FF2E33" fill-opacity="0.2"/>
<path fill-rule="evenodd" clip-rule="evenodd" d="M757.043 936.825C784.067 927.184 815.55 1040.57 816.763 1168.57C817.929 1291.62 797.884 1382.36 762.637 1388.77C738.551 1393.11 715.247 1281.87 712.707 1164.56C710.045 1041.71 733.129 945.358 757.043 936.825Z" fill="#FF7418" fill-opacity="0.2"/>
<path fill-rule="evenodd" clip-rule="evenodd" d="M918.545 908.533C962.066 905.047 984.023 1044.89 984.607 1172.95C985.194 1301.28 949.392 1440.16 920.292 1436.42C892.498 1432.88 861.957 1292.6 861.205 1166.27C860.443 1038.21 890.543 910.776 918.545 908.533Z" fill="#F2E83A" fill-opacity="0.2"/>
<path fill-rule="evenodd" clip-rule="evenodd" d="M1087.27 896.594C1116.26 896.64 1148.16 1042.02 1149.07 1169.42C1149.99 1298.28 1119.05 1444.04 1089.84 1445.37C1060.49 1446.78 1022.66 1295.54 1021.98 1166.75C1021.31 1038.68 1057.97 896.547 1087.27 896.594Z" fill="#42AB84" fill-opacity="0.2"/>
<path fill-rule="evenodd" clip-rule="evenodd" d="M1249.91 918.843C1276.59 923.349 1312.16 1058.89 1313.23 1183.21C1314.29 1307.2 1294.71 1434.06 1268.03 1440.14C1239.66 1446.55 1199.61 1303.66 1198.53 1177.67C1197.46 1051.55 1221.54 914.049 1249.91 918.843Z" fill="#2AB6E9" fill-opacity="0.2"/>
<path fill-rule="evenodd" clip-rule="evenodd" d="M949.441 1066.69L950.424 1059.76L964.285 1061.73L963.302 1068.66C963.302 1068.66 955.536 1123.3 934.087 1167.98C918.901 1199.61 896.579 1225.78 866.586 1227.67C823.187 1230.41 787.228 1204.68 759.977 1172.3C720.427 1125.3 699.325 1064.77 699.325 1064.77L697.022 1058.15L710.242 1053.55L712.545 1060.16C712.545 1060.16 732.764 1118.21 770.689 1163.28C795.089 1192.28 826.847 1216.15 865.706 1213.7C891.034 1212.11 908.642 1188.63 921.466 1161.92C942.029 1119.09 949.441 1066.69 949.441 1066.69Z" fill="#808080" stroke="black" stroke-width="8" stroke-miterlimit="2" stroke-linejoin="round"/>
<path fill-rule="evenodd" clip-rule="evenodd" d="M902.723 1074.98L903.525 1068.19L917.127 1069.79L916.324 1076.59C916.324 1076.59 906.913 1155.58 879.904 1204.6C867.288 1227.51 850.601 1243.77 830.187 1245.32C791.464 1248.24 759.153 1220.88 734.839 1186.17C699.933 1136.34 681.301 1072.15 681.301 1072.15L679.394 1065.57L692.547 1061.75L694.454 1068.34C694.454 1068.34 712.393 1130.24 746.056 1178.32C767.455 1208.87 795.074 1234.24 829.154 1231.67C845.461 1230.43 857.83 1216.3 867.908 1198C893.852 1150.91 902.723 1074.98 902.723 1074.98Z" fill="#808080" stroke="black" stroke-width="7.93547" stroke-miterlimit="2" stroke-linejoin="round"/>
<path fill-rule="evenodd" clip-rule="evenodd" d="M1191.13 856.424L1192.24 849.629L1231.03 852.979L1229.93 859.773C1229.93 859.773 1216.91 938.77 1179.57 987.79C1162.12 1010.69 1139.05 1026.95 1110.82 1028.51C1057.28 1031.43 1012.6 1004.07 978.981 969.352C930.716 919.523 904.953 855.339 904.953 855.339L941.627 844.004C941.627 844.004 966.43 905.912 1012.98 953.976C1042.57 984.536 1060.77 1008.16 1107.89 1005.58C1130.44 1004.35 1129.06 997.732 1142.99 979.443C1178.86 932.347 1191.13 856.424 1191.13 856.424Z" fill="#808080" stroke="black" stroke-width="7.96236" stroke-miterlimit="2" stroke-linejoin="round"/>
<path fill-rule="evenodd" clip-rule="evenodd" d="M867.193 1126.52L558.963 1140.97C573.971 1422.98 594.62 1712.78 619.635 2008.58L942.932 2049.74C890.868 1768.27 858.886 1416.59 867.193 1126.52Z" fill="#505050"/>
<path fill-rule="evenodd" clip-rule="evenodd" d="M868.655 1126.57C864.966 1271.12 871.406 1430.94 885.204 1589.74C899.079 1749.41 920.398 1908.05 946.797 2049.03C947.026 2050.27 946.652 2051.53 945.789 2052.45C944.927 2053.36 943.681 2053.81 942.435 2053.64L619.118 2012.65C617.203 2012.4 615.718 2010.85 615.556 2008.93C603.413 1862.83 592.258 1718.2 582.47 1575.26C572.436 1428.69 563.834 1283.89 556.594 1141.1C556.559 1140.46 556.779 1139.84 557.204 1139.38C557.627 1138.91 558.221 1138.63 558.851 1138.59L867.125 1125.07C867.532 1125.05 867.927 1125.2 868.218 1125.49C868.508 1125.77 868.666 1126.16 868.655 1126.57ZM865.683 1128.06L561.463 1143.21C569.393 1285.18 578.831 1429.1 589.384 1574.77C599.657 1716.57 610.982 1860.03 623.432 2004.94C657.066 2009.24 938.103 2045.17 938.103 2045.17C912.734 1905.18 892.292 1748.21 879.41 1590.22C866.492 1431.78 861.177 1272.33 865.683 1128.06Z" fill="black"/>
<path d="M710.477 1198.06C715.29 1198.06 719.193 1194.04 719.193 1189.08C719.193 1184.12 715.29 1180.1 710.477 1180.1C705.663 1180.1 701.761 1184.12 701.761 1189.08C701.761 1194.04 705.663 1198.06 710.477 1198.06Z" fill="#7EED56"/>
<path d="M731.379 1498.66C790.336 1498.66 838.13 1440.23 838.13 1368.16C838.13 1296.09 790.336 1237.66 731.379 1237.66C672.421 1237.66 624.627 1296.09 624.627 1368.16C624.627 1440.23 672.421 1498.66 731.379 1498.66Z" fill="#8D8D8D" stroke="black" stroke-width="10.9721" stroke-miterlimit="1.5" stroke-linecap="square" stroke-linejoin="round"/>
<path fill-rule="evenodd" clip-rule="evenodd" d="M692.954 1243.67C731.993 1288.11 718.282 1306.69 696.842 1320.63L728.97 1364.77L749.161 1394.85C762.096 1387.01 787.337 1391.58 818.803 1442.39C818.803 1442.39 845.603 1354.7 832.51 1320.48C790.561 1210.82 692.954 1243.67 692.954 1243.67Z" fill="black" fill-opacity="0.3"/>
<path fill-rule="evenodd" clip-rule="evenodd" d="M751.44 1241.93C821.499 1294.31 767.069 1325.87 724.982 1333.04L738.725 1357.53C757.862 1332.89 830.059 1307.81 822.738 1412.18C822.738 1412.18 843.446 1341.47 833.33 1313.88C800.916 1225.45 751.44 1241.93 751.44 1241.93Z" fill="black" fill-opacity="0.3"/>
<path d="M703.797 1415.5C729.837 1415.5 750.946 1394.08 750.946 1367.66C750.946 1341.24 729.837 1319.82 703.797 1319.82C677.757 1319.82 656.647 1341.24 656.647 1367.66C656.647 1394.08 677.757 1415.5 703.797 1415.5Z" fill="#8D8D8D" stroke="black" stroke-width="12.7417" stroke-miterlimit="1.5" stroke-linecap="square" stroke-linejoin="round"/>
<path fill-rule="evenodd" clip-rule="evenodd" d="M692.241 1324.52C692.241 1324.52 675.142 1353.37 683.489 1377.48C692.254 1402.79 718.563 1405.37 718.563 1405.37C718.563 1405.37 660.918 1427.32 647.426 1397.46C625.73 1349.43 692.241 1324.52 692.241 1324.52Z" fill="black" fill-opacity="0.3"/>
<path d="M750.243 1842.34C809.198 1841.75 856.395 1782.84 855.663 1710.77C854.93 1638.7 806.544 1580.76 747.59 1581.36C688.636 1581.96 641.438 1640.87 642.17 1712.94C642.903 1785.01 691.289 1842.94 750.243 1842.34Z" fill="#8D8D8D" stroke="black" stroke-width="10.9721" stroke-miterlimit="1.5" stroke-linecap="square" stroke-linejoin="round"/>
<path d="M729.308 1767.24C755.347 1766.98 776.237 1745.35 775.969 1718.93C775.7 1692.51 754.374 1671.31 728.335 1671.57C702.297 1671.84 681.406 1693.47 681.675 1719.89C681.943 1746.31 703.27 1767.51 729.308 1767.24Z" fill="#8D8D8D" stroke="black" stroke-width="12.7417" stroke-miterlimit="1.5" stroke-linecap="square" stroke-linejoin="round"/>
<path fill-rule="evenodd" clip-rule="evenodd" d="M710.401 1589.36C771.493 1623.71 750.577 1651.47 716.452 1671.22C736.447 1672.65 753.867 1675.45 772.406 1699.01L766.608 1740.54C779.543 1732.7 828.327 1734.99 825.745 1804.06C825.745 1804.06 861.94 1707.46 848.847 1673.24C831.641 1628.26 805.886 1600.24 780.749 1589.71C744.601 1574.56 710.401 1589.36 710.401 1589.36Z" fill="black" fill-opacity="0.3"/>
<path fill-rule="evenodd" clip-rule="evenodd" d="M709.689 1670.21C709.689 1670.21 692.59 1699.06 700.937 1723.17C709.702 1748.48 735.038 1760.03 735.038 1760.03C735.038 1760.03 678.366 1773.01 664.874 1743.15C643.178 1695.12 709.689 1670.21 709.689 1670.21Z" fill="black" fill-opacity="0.3"/>
<path fill-rule="evenodd" clip-rule="evenodd" d="M1312.53 1114.27L1618.92 1132.51L1558.24 2000.12L1227.04 2025.21C1281.41 1724.28 1298.44 1421.87 1312.53 1114.27Z" fill="#505050"/>
<path fill-rule="evenodd" clip-rule="evenodd" d="M1312.61 1112.81L1619.06 1130.14C1619.69 1130.17 1620.28 1130.47 1620.7 1130.94C1621.12 1131.42 1621.33 1132.03 1621.28 1132.67C1621.28 1132.67 1606.78 1349.62 1592.04 1566.55C1577.3 1783.49 1562.33 2000.4 1562.33 2000.4C1562.19 2002.44 1560.58 2004.05 1558.55 2004.21L1227.33 2029.11C1226.13 2029.21 1224.94 2028.74 1224.13 2027.84C1223.32 2026.94 1222.97 2025.71 1223.18 2024.51C1245.22 1904.05 1261.2 1783.32 1273.51 1662.11C1291.93 1480.81 1302.07 1298.45 1311.07 1114.2C1311.08 1113.81 1311.26 1113.45 1311.55 1113.18C1311.84 1112.92 1312.22 1112.78 1312.61 1112.81ZM1313.92 1115.82C1306.06 1299.71 1297.2 1481.74 1279.76 1662.73C1268.21 1782.52 1252.87 1901.83 1231.78 2020.92L1554.41 1996.3C1556.45 1967.48 1570.69 1766.77 1585.12 1566.07C1599.77 1362.45 1614.62 1158.85 1616.38 1134.71L1313.92 1115.82Z" fill="black"/>
<path d="M1451.72 1168.99C1456.53 1168.99 1460.43 1164.97 1460.43 1160C1460.43 1155.04 1456.53 1151.02 1451.72 1151.02C1446.9 1151.02 1443 1155.04 1443 1160C1443 1164.97 1446.9 1168.99 1451.72 1168.99Z" fill="#7EED56"/>
<path d="M1446.5 1490.19C1387.54 1490.19 1339.75 1431.77 1339.75 1359.7C1339.75 1287.62 1387.54 1229.2 1446.5 1229.2C1505.46 1229.2 1553.25 1287.62 1553.25 1359.7C1553.25 1431.77 1505.46 1490.19 1446.5 1490.19Z" fill="#8D8D8D" stroke="black" stroke-width="10.9721" stroke-miterlimit="1.5" stroke-linecap="square" stroke-linejoin="round"/>
<path d="M1474.08 1407.04C1448.04 1407.04 1426.93 1385.62 1426.93 1359.2C1426.93 1332.78 1448.04 1311.36 1474.08 1311.36C1500.12 1311.36 1521.23 1332.78 1521.23 1359.2C1521.23 1385.62 1500.12 1407.04 1474.08 1407.04Z" fill="#8D8D8D" stroke="black" stroke-width="12.7417" stroke-miterlimit="1.5" stroke-linecap="square" stroke-linejoin="round"/>
<path d="M1427.64 1833.88C1368.68 1833.28 1321.48 1774.37 1322.22 1702.3C1322.95 1630.24 1371.34 1572.3 1430.29 1572.9C1489.24 1573.5 1536.44 1632.41 1535.71 1704.47C1534.98 1776.54 1486.59 1834.48 1427.64 1833.88Z" fill="#8D8D8D" stroke="black" stroke-width="10.9721" stroke-miterlimit="1.5" stroke-linecap="square" stroke-linejoin="round"/>
<path d="M1448.57 1758.78C1422.53 1758.51 1401.64 1736.88 1401.91 1710.46C1402.18 1684.04 1423.51 1662.84 1449.54 1663.11C1475.58 1663.37 1496.47 1685 1496.21 1711.42C1495.94 1737.84 1474.61 1759.04 1448.57 1758.78Z" fill="#8D8D8D" stroke="black" stroke-width="12.7417" stroke-miterlimit="1.5" stroke-linecap="square" stroke-linejoin="round"/>
<path d="M1069.36 888.851V2110.65H1104.88V888.851H1069.36Z" fill="#8D8D8D" stroke="black" stroke-width="7.26257" stroke-miterlimit="1.5" stroke-linecap="square" stroke-linejoin="round"/>
<path d="M1427.45 957.271H733.381V1067.68H1427.45V957.271Z" fill="#8D8D8D" stroke="black" stroke-width="13.9969" stroke-miterlimit="1.5" stroke-linecap="square" stroke-linejoin="round"/>
<path d="M808.012 1048.23C829.696 1048.23 847.274 1030.77 847.274 1009.23C847.274 987.683 829.696 970.219 808.012 970.219C786.329 970.219 768.75 987.683 768.75 1009.23C768.75 1030.77 786.329 1048.23 808.012 1048.23Z" fill="#FF7418" stroke="black" stroke-width="12.8866" stroke-miterlimit="1.5" stroke-linecap="square" stroke-linejoin="round"/>
<path d="M940.194 1050.45C961.878 1050.45 979.456 1032.99 979.456 1011.45C979.456 989.902 961.878 972.438 940.194 972.438C918.511 972.438 900.933 989.902 900.933 1011.45C900.933 1032.99 918.511 1050.45 940.194 1050.45Z" fill="#F2E83A" stroke="black" stroke-width="12.8866" stroke-miterlimit="1.5" stroke-linecap="square" stroke-linejoin="round"/>
<path d="M1079.61 1050.8C1101.29 1050.8 1118.87 1033.33 1118.87 1011.79C1118.87 990.246 1101.29 972.781 1079.61 972.781C1057.93 972.781 1040.35 990.246 1040.35 1011.79C1040.35 1033.33 1057.93 1050.8 1079.61 1050.8Z" fill="#42AB84" stroke="black" stroke-width="12.8866" stroke-miterlimit="1.5" stroke-linecap="square" stroke-linejoin="round"/>
<path d="M1226.63 1053.49C1248.32 1053.49 1265.9 1036.02 1265.9 1014.48C1265.9 992.937 1248.32 975.473 1226.63 975.473C1204.95 975.473 1187.37 992.937 1187.37 1014.48C1187.37 1036.02 1204.95 1053.49 1226.63 1053.49Z" fill="#2AB6E9" stroke="black" stroke-width="12.8866" stroke-miterlimit="1.5" stroke-linecap="square" stroke-linejoin="round"/>
<path d="M1353.62 1052.26C1375.3 1052.26 1392.88 1034.8 1392.88 1013.25C1392.88 991.71 1375.3 974.246 1353.62 974.246C1331.93 974.246 1314.36 991.71 1314.36 1013.25C1314.36 1034.8 1331.93 1052.26 1353.62 1052.26Z" fill="#FF2E33" stroke="black" stroke-width="12.8866" stroke-miterlimit="1.5" stroke-linecap="square" stroke-linejoin="round"/>
<path fill-rule="evenodd" clip-rule="evenodd" d="M1416.75 926.785C1439.14 930.184 1463.45 972.078 1463.23 1026.97C1463.01 1080.33 1437.36 1120.77 1415.17 1124.61C1389.98 1128.95 1357.23 1078.37 1356.42 1022.22C1355.57 963.826 1391.31 922.924 1416.75 926.785Z" fill="#FF2E33" fill-opacity="0.4"/>
<path fill-rule="evenodd" clip-rule="evenodd" d="M757.043 915.567C784.067 911.019 815.55 964.504 816.763 1024.88C817.929 1082.93 797.884 1125.73 762.637 1128.75C738.551 1130.8 715.247 1078.33 712.707 1022.99C710.045 965.04 733.129 919.592 757.043 915.567Z" fill="#FF7418" fill-opacity="0.4"/>
<path fill-rule="evenodd" clip-rule="evenodd" d="M918.545 902.222C962.066 900.577 984.023 966.541 984.607 1026.95C985.194 1087.48 949.392 1152.99 920.292 1151.23C892.498 1149.56 861.957 1083.39 861.205 1023.8C860.443 963.391 890.543 903.28 918.545 902.222Z" fill="#F2E83A" fill-opacity="0.4"/>
<path fill-rule="evenodd" clip-rule="evenodd" d="M1087.27 896.59C1116.26 896.612 1148.16 965.189 1149.07 1025.28C1149.99 1086.07 1119.05 1154.82 1089.84 1155.45C1060.49 1156.11 1022.66 1084.78 1021.98 1024.02C1021.31 963.614 1057.97 896.568 1087.27 896.59Z" fill="#42AB84" fill-opacity="0.4"/>
<path fill-rule="evenodd" clip-rule="evenodd" d="M1249.91 907.085C1276.59 909.211 1312.16 973.146 1313.23 1031.79C1314.29 1090.28 1294.71 1150.12 1268.03 1152.98C1239.66 1156.01 1199.61 1088.61 1198.53 1029.18C1197.46 969.681 1221.54 904.823 1249.91 907.085Z" fill="#2AB6E9" fill-opacity="0.4"/>
<path fill-rule="evenodd" clip-rule="evenodd" d="M753.57 995.415C1002.33 949.994 1206.8 989.157 1324.14 1116.19L1372.44 1117.19C1401.9 1146.66 1441.2 1226.56 1406.02 1234.65C1446.38 1262.94 1463.36 1291.21 1457.74 1319.46C1483.39 1320.18 1460.63 1341.84 1453.33 1356.25C1442.38 1370.23 1447.4 1391.25 1463.21 1396.19C1471.04 1435.08 1446.34 1468.12 1418.27 1493.64L1414.21 1573.58C1448.24 1605.2 1457.24 1636.19 1455.71 1667.44C1463.22 1690.97 1450.5 1695.21 1438.83 1703.67C1417.39 1724.46 1424.86 1742.54 1440.9 1759.81C1434.67 1798.52 1408.46 1814.1 1374.63 1820.86C1334.32 1854.05 1312.35 1934.51 1271.71 1955.52C1249.77 1966.86 1279.61 1908.12 1261.11 1922.7C1233.82 1944.21 1322.62 1183.73 1322.62 1183.73L1268.26 1271.92C1279.47 1370.98 1157.72 1981.12 1128.93 1987.89C1035.56 2009.85 924.519 2022.79 818.545 1994.85C925.315 2117.09 1155.07 2160.51 1449.96 2200.02L1749.01 1291.64L1218.71 840.688C1005.58 853.078 836.029 900.3 753.57 995.415Z" fill="black" fill-opacity="0.3"/>
</svg>
