<svg width="2160" height="2700" viewBox="0 0 2160 2700" fill="none" xmlns="http://www.w3.org/2000/svg">
<path fill-rule="evenodd" clip-rule="evenodd" d="M443.738 641.327C481.767 642.499 637.576 538.004 813.684 539.814C1001.89 541.749 1229.61 544.445 1412.8 548.754C1581.74 552.727 1722.82 669.958 1750.08 677.341C2012.41 748.381 1983.38 1129.95 1946.42 1389.78C1921.19 1567.13 1789.42 1588.69 1789.42 1726.46C1789.42 2224.89 1488.09 2529.15 1073.44 2540.46C641.669 2552.22 379.001 2242.49 379.001 1744.06C379.001 1651.11 217.256 1553.53 206.228 1379.49C188.356 1097.45 162.513 632.657 443.738 641.327ZM1082.49 885.247C797.884 885.247 566.82 1148.41 566.82 1472.55C566.82 1796.7 797.884 2059.86 1082.49 2059.86C1367.1 2059.86 1598.17 1796.7 1598.17 1472.55C1598.17 1148.41 1367.1 885.247 1082.49 885.247Z" fill="#68BB9D"/>
<mask id="mask0_1191_3" style="mask-type:luminance" maskUnits="userSpaceOnUse" x="196" y="539" width="1775" height="2002">
<path d="M443.738 641.327C481.767 642.499 637.576 538.004 813.684 539.814C1001.89 541.749 1229.61 544.445 1412.8 548.754C1581.74 552.727 1722.82 669.958 1750.08 677.341C2012.41 748.381 1983.38 1129.95 1946.42 1389.78C1921.19 1567.13 1789.42 1588.69 1789.42 1726.46C1789.42 2224.89 1488.09 2529.15 1073.44 2540.46C641.669 2552.22 379.001 2242.49 379.001 1744.06C379.001 1651.11 217.256 1553.53 206.228 1379.49C188.356 1097.45 162.513 632.657 443.738 641.327ZM1082.49 885.247C797.884 885.247 566.82 1148.41 566.82 1472.55C566.82 1796.7 797.884 2059.86 1082.49 2059.86C1367.1 2059.86 1598.17 1796.7 1598.17 1472.55C1598.17 1148.41 1367.1 885.247 1082.49 885.247Z" fill="white"/>
</mask>
<g mask="url(#mask0_1191_3)">
<path d="M819.241 764.036C869.467 764.036 910.184 726.029 910.184 679.144C910.184 632.259 869.467 594.252 819.241 594.252C769.014 594.252 728.297 632.259 728.297 679.144C728.297 726.029 769.014 764.036 819.241 764.036Z" fill="#00A8E4" fill-opacity="0.4"/>
<path fill-rule="evenodd" clip-rule="evenodd" d="M819.241 594.252C869.434 594.252 910.185 632.29 910.185 679.144C910.185 725.997 869.434 764.035 819.241 764.035C769.048 764.035 728.297 725.997 728.297 679.144C728.297 632.29 769.048 594.252 819.241 594.252ZM819.241 596.888C795.683 597.668 774.639 607.103 759.359 621.763C743.909 636.589 734.549 656.904 735.178 679.144C735.609 700.907 745.864 720.21 761.586 734.056C776.653 747.326 796.892 755.596 819.241 755.505C841.669 755.786 862.109 747.744 877.288 734.491C893.195 720.603 903.465 701.079 903.904 679.144C904.463 656.764 894.982 636.337 879.371 621.488C864.001 606.868 842.844 597.543 819.241 596.888Z" fill="#0F4E37" fill-opacity="0.6"/>
<path d="M1269.1 667.47C1319.32 667.47 1360.04 629.462 1360.04 582.578C1360.04 535.693 1319.32 497.686 1269.1 497.686C1218.87 497.686 1178.15 535.693 1178.15 582.578C1178.15 629.462 1218.87 667.47 1269.1 667.47Z" fill="#00A8E4" fill-opacity="0.4"/>
<path fill-rule="evenodd" clip-rule="evenodd" d="M1269.1 497.686C1319.29 497.686 1360.04 535.724 1360.04 582.578C1360.04 629.43 1319.29 667.469 1269.1 667.469C1218.9 667.469 1178.15 629.43 1178.15 582.578C1178.15 535.724 1218.9 497.686 1269.1 497.686ZM1269.1 500.321C1245.54 501.102 1224.49 510.537 1209.21 525.197C1193.76 540.023 1184.4 560.337 1185.03 582.578C1185.46 604.34 1195.72 623.643 1211.44 637.489C1226.51 650.76 1246.75 659.029 1269.1 658.938C1291.52 659.22 1311.96 651.177 1327.14 637.925C1343.05 624.037 1353.32 604.513 1353.76 582.578C1354.32 560.198 1344.84 539.771 1329.23 524.921C1313.86 510.302 1292.7 500.977 1269.1 500.321Z" fill="#0F4E37" fill-opacity="0.6"/>
<path d="M1635.04 759.536C1676.97 759.536 1710.95 723.555 1710.95 679.171C1710.95 634.787 1676.97 598.807 1635.04 598.807C1593.12 598.807 1559.14 634.787 1559.14 679.171C1559.14 723.555 1593.12 759.536 1635.04 759.536Z" fill="#00A8E4" fill-opacity="0.4"/>
<path fill-rule="evenodd" clip-rule="evenodd" d="M1635.04 598.807C1676.94 598.807 1710.95 634.816 1710.95 679.171C1710.95 723.525 1676.94 759.535 1635.04 759.535C1593.15 759.535 1559.14 723.525 1559.14 679.171C1559.14 634.816 1593.15 598.807 1635.04 598.807ZM1635.04 601.442C1614.78 602.199 1596.86 611.776 1584.25 626.502C1572.36 640.381 1565.37 658.946 1566.02 679.171C1566.46 698.948 1574.44 716.599 1586.7 729.592C1599.11 742.75 1616.13 751.091 1635.04 751.004C1654.05 751.272 1671.29 743.145 1683.82 729.989C1696.24 716.953 1704.22 699.103 1704.67 679.171C1705.25 658.82 1698.14 640.155 1686.11 626.25C1673.4 611.554 1655.36 602.077 1635.04 601.442Z" fill="#0F4E37" fill-opacity="0.6"/>
<path d="M501.654 739.885C543.577 739.885 577.562 703.905 577.562 659.521C577.562 615.137 543.577 579.156 501.654 579.156C459.731 579.156 425.746 615.137 425.746 659.521C425.746 703.905 459.731 739.885 501.654 739.885Z" fill="#00A8E4" fill-opacity="0.4"/>
<path fill-rule="evenodd" clip-rule="evenodd" d="M501.654 579.156C543.549 579.156 577.563 615.166 577.563 659.521C577.563 703.875 543.549 739.884 501.654 739.884C459.76 739.884 425.746 703.875 425.746 659.521C425.746 615.166 459.76 579.156 501.654 579.156ZM501.654 581.791C481.388 582.548 463.472 592.125 450.86 606.851C438.973 620.731 431.984 639.295 432.627 659.521C433.068 679.297 441.05 696.948 453.307 709.942C465.719 723.1 482.735 731.441 501.654 731.353C520.659 731.622 537.899 723.494 550.433 710.338C562.851 697.302 570.833 679.453 571.282 659.521C571.855 639.17 564.75 620.504 552.723 606.599C540.011 591.903 521.969 582.426 501.654 581.791Z" fill="#0F4E37" fill-opacity="0.6"/>
<path d="M1070.78 798.513C1102.19 798.513 1127.66 774.119 1127.66 744.026C1127.66 713.934 1102.19 689.539 1070.78 689.539C1039.37 689.539 1013.91 713.934 1013.91 744.026C1013.91 774.119 1039.37 798.513 1070.78 798.513Z" fill="#00A8E4" fill-opacity="0.4"/>
<path fill-rule="evenodd" clip-rule="evenodd" d="M1070.78 689.539C1102.17 689.539 1127.66 713.954 1127.66 744.026C1127.66 774.098 1102.17 798.513 1070.78 798.513C1039.39 798.513 1013.91 774.098 1013.91 744.026C1013.91 713.954 1039.39 689.539 1070.78 689.539ZM1070.78 692.174C1056.3 692.934 1043.54 699.215 1034.38 708.688C1025.41 717.952 1020.18 730.452 1020.79 744.026C1021.2 757.126 1027.42 768.607 1036.65 776.94C1045.58 785.005 1057.54 790.067 1070.78 789.982C1084.1 790.246 1096.27 785.421 1105.32 777.367C1114.72 768.991 1120.96 757.295 1121.38 744.026C1121.92 730.316 1116.56 717.708 1107.44 708.416C1098.19 698.982 1085.31 692.812 1070.78 692.174Z" fill="#0F4E37" fill-opacity="0.6"/>
<path d="M979.888 612.043C1011.3 612.043 1036.76 587.648 1036.76 557.556C1036.76 527.463 1011.3 503.068 979.888 503.068C948.476 503.068 923.012 527.463 923.012 557.556C923.012 587.648 948.476 612.043 979.888 612.043Z" fill="#00A8E4" fill-opacity="0.4"/>
<path fill-rule="evenodd" clip-rule="evenodd" d="M979.888 503.068C1011.28 503.068 1036.76 527.483 1036.76 557.556C1036.76 587.627 1011.28 612.042 979.888 612.042C948.497 612.042 923.012 587.627 923.012 557.556C923.012 527.483 948.497 503.068 979.888 503.068ZM979.888 505.704C965.402 506.463 952.648 512.744 943.481 522.218C934.517 531.481 929.286 543.981 929.893 557.556C930.303 570.655 936.527 582.136 945.754 590.469C954.685 598.534 966.647 603.597 979.888 603.511C993.21 603.775 1005.38 598.95 1014.42 590.897C1023.83 582.521 1030.06 570.824 1030.48 557.556C1031.02 543.845 1025.66 531.237 1016.55 521.946C1007.29 512.511 994.418 506.342 979.888 505.704Z" fill="#0F4E37" fill-opacity="0.6"/>
<path d="M1456.52 738.397C1478.88 738.397 1497.01 717.613 1497.01 691.974C1497.01 666.335 1478.88 645.551 1456.52 645.551C1434.16 645.551 1416.04 666.335 1416.04 691.974C1416.04 717.613 1434.16 738.397 1456.52 738.397Z" fill="#00A8E4" fill-opacity="0.4"/>
<path fill-rule="evenodd" clip-rule="evenodd" d="M1456.52 645.551C1478.87 645.551 1497.01 666.352 1497.01 691.974C1497.01 717.595 1478.87 738.397 1456.52 738.397C1434.18 738.397 1416.04 717.595 1416.04 691.974C1416.04 666.352 1434.18 645.551 1456.52 645.551ZM1456.52 648.186C1445.96 648.895 1436.95 654.774 1430.77 663.4C1425.24 671.107 1422.3 681.147 1422.92 691.974C1423.34 702.37 1427.42 711.538 1433.34 718.448C1439.29 725.397 1447.4 729.941 1456.52 729.865C1465.73 730.1 1474.09 725.783 1480.16 718.818C1486.22 711.864 1490.3 702.515 1490.73 691.974C1491.28 681.034 1488.22 670.9 1482.57 663.165C1476.29 654.561 1467.13 648.782 1456.52 648.186Z" fill="#0F4E37" fill-opacity="0.6"/>
<path d="M657.526 654.666C679.446 650.262 694.316 632.255 690.738 614.446C687.16 596.636 666.489 585.769 644.569 590.173C622.649 594.577 607.779 612.584 611.357 630.393C614.935 648.203 635.606 659.07 657.526 654.666Z" fill="#00A8E4" fill-opacity="0.4"/>
<path fill-rule="evenodd" clip-rule="evenodd" d="M644.569 590.173C666.475 585.772 687.163 596.648 690.738 614.446C694.314 632.243 679.432 650.265 657.526 654.666C635.62 659.066 614.933 648.19 611.357 630.393C607.782 612.596 622.664 594.574 644.569 590.173ZM645.088 592.757C635.839 595.39 628.363 600.691 623.289 607.149C618.195 613.632 616.044 621.47 618.104 629.038C619.889 636.159 625.651 641.161 632.74 644.211C639.42 647.086 647.514 648.06 655.845 646.302C664.317 644.863 671.631 641.071 676.784 635.845C682.34 630.209 685.709 623.126 684.581 615.683C683.477 607.77 678.291 601.287 670.912 597.276C663.677 593.343 654.647 591.488 645.088 592.757Z" fill="#0F4E37" fill-opacity="0.6"/>
<path d="M1881.22 1544.67C1903.14 1540.26 1918.01 1522.26 1914.43 1504.45C1910.85 1486.64 1890.18 1475.77 1868.26 1480.17C1846.34 1484.58 1831.47 1502.59 1835.05 1520.4C1838.63 1538.2 1859.3 1549.07 1881.22 1544.67Z" fill="#00A8E4" fill-opacity="0.4"/>
<path fill-rule="evenodd" clip-rule="evenodd" d="M1868.26 1480.17C1890.17 1475.77 1910.85 1486.65 1914.43 1504.45C1918 1522.24 1903.12 1540.27 1881.22 1544.67C1859.31 1549.07 1838.62 1538.19 1835.05 1520.4C1831.47 1502.6 1846.36 1484.58 1868.26 1480.17ZM1868.78 1482.76C1859.53 1485.39 1852.05 1490.69 1846.98 1497.15C1841.89 1503.63 1839.74 1511.47 1841.8 1519.04C1843.58 1526.16 1849.34 1531.16 1856.43 1534.21C1863.11 1537.09 1871.21 1538.06 1879.54 1536.3C1888.01 1534.86 1895.32 1531.07 1900.48 1525.85C1906.03 1520.21 1909.4 1513.13 1908.27 1505.68C1907.17 1497.77 1901.98 1491.29 1894.6 1487.28C1887.37 1483.34 1878.34 1481.49 1868.78 1482.76Z" fill="#0F4E37" fill-opacity="0.6"/>
<path d="M1944.12 1298.72C1966.04 1294.32 1980.91 1276.31 1977.34 1258.5C1973.76 1240.69 1953.09 1229.83 1931.17 1234.23C1909.25 1238.63 1894.38 1256.64 1897.95 1274.45C1901.53 1292.26 1922.2 1303.13 1944.12 1298.72Z" fill="#00A8E4" fill-opacity="0.4"/>
<path fill-rule="evenodd" clip-rule="evenodd" d="M1931.17 1234.23C1953.07 1229.83 1973.76 1240.7 1977.34 1258.5C1980.91 1276.3 1966.03 1294.32 1944.12 1298.72C1922.22 1303.12 1901.53 1292.25 1897.95 1274.45C1894.38 1256.65 1909.26 1238.63 1931.17 1234.23ZM1931.69 1236.81C1922.44 1239.45 1914.96 1244.75 1909.89 1251.21C1904.79 1257.69 1902.64 1265.53 1904.7 1273.09C1906.49 1280.22 1912.25 1285.22 1919.34 1288.27C1926.02 1291.14 1934.11 1292.12 1942.44 1290.36C1950.91 1288.92 1958.23 1285.13 1963.38 1279.9C1968.94 1274.27 1972.31 1267.18 1971.18 1259.74C1970.07 1251.83 1964.89 1245.34 1957.51 1241.33C1950.27 1237.4 1941.24 1235.54 1931.69 1236.81Z" fill="#0F4E37" fill-opacity="0.6"/>
<path d="M239.104 1383.97C261.024 1379.57 275.894 1361.56 272.316 1343.75C268.738 1325.94 248.068 1315.08 226.147 1319.48C204.227 1323.88 189.357 1341.89 192.935 1359.7C196.513 1377.51 217.184 1388.38 239.104 1383.97Z" fill="#00A8E4" fill-opacity="0.4"/>
<path fill-rule="evenodd" clip-rule="evenodd" d="M226.147 1319.48C248.053 1315.08 268.741 1325.95 272.316 1343.75C275.892 1361.55 261.01 1379.57 239.104 1383.97C217.198 1388.37 196.511 1377.5 192.935 1359.7C189.36 1341.9 204.242 1323.88 226.147 1319.48ZM226.666 1322.06C217.417 1324.7 209.941 1330 204.867 1336.46C199.773 1342.94 197.622 1350.78 199.682 1358.34C201.467 1365.47 207.229 1370.47 214.318 1373.52C220.998 1376.39 229.093 1377.37 237.424 1375.61C245.895 1374.17 253.21 1370.38 258.362 1365.15C263.918 1359.52 267.287 1352.43 266.159 1344.99C265.055 1337.08 259.869 1330.59 252.49 1326.58C245.255 1322.65 236.225 1320.79 226.666 1322.06Z" fill="#0F4E37" fill-opacity="0.6"/>
<path d="M360.934 1687.1C386.462 1681.97 402.635 1655.3 397.057 1627.54C391.479 1599.77 366.262 1581.42 340.734 1586.55C315.206 1591.68 299.034 1618.34 304.612 1646.11C310.19 1673.88 335.406 1692.23 360.934 1687.1Z" fill="#00A8E4" fill-opacity="0.4"/>
<path fill-rule="evenodd" clip-rule="evenodd" d="M340.734 1586.55C366.245 1581.42 391.483 1599.79 397.057 1627.54C402.632 1655.28 386.445 1681.97 360.934 1687.1C335.423 1692.22 310.186 1673.86 304.612 1646.11C299.037 1618.36 315.223 1591.67 340.734 1586.55ZM341.253 1589.13C329.35 1592.27 320.163 1600.54 314.754 1611.2C309.791 1620.98 308.334 1632.85 311.359 1644.75C314.098 1656.26 320.916 1665.54 329.46 1671.75C338.024 1677.97 348.579 1680.96 359.254 1678.73C370.078 1676.81 378.934 1670.15 384.545 1661.07C390.17 1651.98 392.838 1640.6 390.9 1628.77C389.002 1616.52 382.934 1606.06 374.445 1598.96C365.25 1591.26 353.466 1587.3 341.253 1589.13Z" fill="#0F4E37" fill-opacity="0.6"/>
<path d="M281.13 1041.99C306.658 1036.86 322.83 1010.2 317.252 982.43C311.674 954.665 286.458 936.314 260.93 941.442C235.402 946.571 219.229 973.237 224.807 1001C230.385 1028.77 255.602 1047.12 281.13 1041.99Z" fill="#00A8E4" fill-opacity="0.4"/>
<path fill-rule="evenodd" clip-rule="evenodd" d="M260.93 941.442C286.441 936.317 311.678 954.683 317.253 982.43C322.827 1010.18 306.641 1036.86 281.13 1041.99C255.619 1047.11 230.381 1028.75 224.807 1001C219.233 973.255 235.419 946.568 260.93 941.442ZM261.449 944.026C249.546 947.16 240.358 955.438 234.95 966.094C229.986 975.872 228.529 987.74 231.554 999.647C234.293 1011.16 241.112 1020.43 249.655 1026.64C258.219 1032.86 268.774 1035.85 279.449 1033.63C290.273 1031.7 299.129 1025.05 304.741 1015.97C310.365 1006.87 313.034 995.493 311.095 983.667C309.197 971.411 303.13 960.956 294.64 953.851C285.446 946.156 273.662 942.197 261.449 944.026Z" fill="#0F4E37" fill-opacity="0.6"/>
<path d="M1853 969.302C1878.52 964.173 1893.97 933.879 1887.49 901.638C1881.01 869.397 1855.07 847.417 1829.54 852.546C1804.01 857.674 1788.57 887.969 1795.04 920.21C1801.52 952.451 1827.47 974.431 1853 969.302Z" fill="#00A8E4" fill-opacity="0.4"/>
<path fill-rule="evenodd" clip-rule="evenodd" d="M1829.54 852.546C1855.05 847.421 1881.02 869.418 1887.49 901.638C1893.96 933.857 1878.51 964.176 1853 969.301C1827.48 974.426 1801.52 952.429 1795.04 920.21C1788.57 887.99 1804.03 857.671 1829.54 852.546ZM1830.06 855.13C1817.62 858.341 1808.4 868.164 1803.48 881.002C1799.24 892.032 1798.41 905.331 1801.79 918.855C1804.89 932.029 1811.76 942.988 1820.25 950.705C1829.21 958.849 1840.24 963.239 1851.31 960.937C1862.53 958.923 1871.32 950.76 1876.56 939.737C1881.53 929.274 1883.58 916.354 1881.33 902.875C1879.13 889.01 1873.11 876.999 1864.83 868.457C1855.22 858.553 1842.8 853.17 1830.06 855.13Z" fill="#0F4E37" fill-opacity="0.6"/>
<path d="M431.907 1034.98C447.683 1037.72 462.768 1026.7 465.601 1010.36C468.434 994.032 457.941 978.574 442.166 975.837C426.39 973.101 411.305 984.123 408.472 1000.45C405.639 1016.79 416.131 1032.25 431.907 1034.98Z" fill="#00A8E4" fill-opacity="0.4"/>
<path fill-rule="evenodd" clip-rule="evenodd" d="M442.166 975.837C457.931 978.572 468.432 994.043 465.601 1010.36C462.77 1026.69 447.672 1037.72 431.907 1034.98C416.142 1032.25 405.641 1016.78 408.472 1000.45C411.303 984.134 426.401 973.103 442.166 975.837ZM441.715 978.434C434.637 977.915 428.195 980.63 423.203 985.105C418.678 989.162 415.835 994.993 415.253 1001.63C414.556 1007.78 416.645 1013.45 419.939 1018.03C423.089 1022.41 427.724 1025.67 433.365 1026.58C439.044 1027.78 444.683 1026.57 449.236 1023.52C454.042 1020.29 457.958 1015.47 459.413 1009.29C461.065 1002.71 460.225 996.144 457.209 990.742C453.928 984.866 448.614 980.228 441.715 978.434Z" fill="#0F4E37" fill-opacity="0.6"/>
<path d="M1795.88 1140.97C1811.23 1136.41 1819.85 1119.83 1815.13 1103.94C1810.41 1088.05 1794.14 1078.86 1778.8 1083.42C1763.45 1087.98 1754.83 1104.55 1759.55 1120.44C1764.26 1136.33 1780.53 1145.52 1795.88 1140.97Z" fill="#00A8E4" fill-opacity="0.4"/>
<path fill-rule="evenodd" clip-rule="evenodd" d="M1778.8 1083.42C1794.13 1078.87 1810.42 1088.06 1815.13 1103.94C1819.84 1119.82 1811.22 1136.41 1795.88 1140.97C1780.54 1145.52 1764.26 1136.32 1759.55 1120.44C1754.83 1104.56 1763.46 1087.97 1778.8 1083.42ZM1779.55 1085.95C1772.97 1088.63 1768.41 1093.92 1765.92 1100.15C1763.67 1105.79 1763.72 1112.28 1766.14 1118.49C1768.25 1124.3 1772.64 1128.45 1777.63 1131.09C1782.39 1133.62 1787.99 1134.48 1793.45 1132.79C1799.08 1131.34 1803.59 1127.76 1806.31 1123C1809.18 1117.97 1810.55 1111.91 1809.11 1105.73C1807.67 1099.1 1804 1093.59 1798.89 1090.09C1793.34 1086.28 1786.52 1084.49 1779.55 1085.95Z" fill="#0F4E37" fill-opacity="0.6"/>
<path d="M1060.25 2527.87C1182.86 2527.87 1282.26 2455.97 1282.26 2367.27C1282.26 2278.58 1182.86 2206.68 1060.25 2206.68C937.633 2206.68 838.234 2278.58 838.234 2367.27C838.234 2455.97 937.633 2527.87 1060.25 2527.87Z" fill="white" fill-opacity="0.27"/>
<path fill-rule="evenodd" clip-rule="evenodd" d="M1060.25 2206.68C1182.78 2206.68 1282.26 2278.64 1282.26 2367.27C1282.26 2455.91 1182.78 2527.87 1060.25 2527.87C937.715 2527.87 838.234 2455.91 838.234 2367.27C838.234 2278.64 937.715 2206.68 1060.25 2206.68ZM1060.25 2209.32C1005.96 2210.14 956.513 2225.19 918.573 2249.43C873.312 2278.35 844.51 2320.43 845.116 2367.27C845.535 2413.63 874.984 2454.55 920.323 2482.29C958.071 2505.39 1006.89 2519.43 1060.25 2519.33C1113.68 2519.64 1162.64 2505.83 1200.48 2482.79C1246.06 2455.03 1275.55 2413.82 1275.98 2367.27C1276.51 2320.27 1247.59 2278.04 1202.11 2249.11C1164.11 2224.94 1114.57 2210.01 1060.25 2209.32Z" fill="#F8F7E9"/>
<path fill-rule="evenodd" clip-rule="evenodd" d="M259.643 653.447C247.961 981.986 212.515 1362.48 349.27 1497.8C323.9 1570.57 351.179 1574.14 420.569 1569.75C401.688 1652.21 442.817 1691.75 498.51 1720.87L470.882 1878.76C620.066 2258.43 857.976 2574.86 1350.54 2421.58C1420.17 2399.91 1525.32 2340.6 1604.38 2289.79C1531.28 2511.39 1263.86 2575.12 977.819 2633.16L428.124 2456.2C150.075 1654.53 133.319 1089.27 259.643 653.447Z" fill="black" fill-opacity="0.2"/>
</g>
<path fill-rule="evenodd" clip-rule="evenodd" d="M443.738 641.327C481.767 642.499 637.576 538.004 813.684 539.814C1001.89 541.749 1229.61 544.445 1412.8 548.754C1581.74 552.727 1722.82 669.958 1750.08 677.341C2012.41 748.381 1983.38 1129.95 1946.42 1389.78C1921.19 1567.13 1789.42 1588.69 1789.42 1726.46C1789.42 2224.89 1488.09 2529.15 1073.44 2540.46C641.669 2552.22 379.001 2242.49 379.001 1744.06C379.001 1651.11 217.256 1553.53 206.228 1379.49C188.356 1097.45 162.513 632.657 443.738 641.327ZM1082.49 885.247C797.884 885.247 566.82 1148.41 566.82 1472.55C566.82 1796.7 797.884 2059.86 1082.49 2059.86C1367.1 2059.86 1598.17 1796.7 1598.17 1472.55C1598.17 1148.41 1367.1 885.247 1082.49 885.247Z" stroke="black" stroke-width="16.178" stroke-miterlimit="1.5" stroke-linecap="round" stroke-linejoin="round"/>
<path fill-rule="evenodd" clip-rule="evenodd" d="M597.426 2265.79C597.426 2265.79 631.777 2505.38 606.29 2602.51C602.436 2617.2 597.133 2640.16 606.383 2643.72C633.38 2654.09 631.441 2587.79 631.441 2587.79C631.441 2587.79 632.759 2651.32 652.343 2651.44C668.006 2651.53 671.953 2582.08 671.953 2582.08C671.953 2582.08 672.82 2668.18 700.164 2668.2C729.267 2668.22 711.865 2588.18 711.865 2588.18C711.865 2588.18 721.34 2665.63 741.419 2653.03C758.426 2642.37 736.683 2600.6 737.243 2554.86C738.036 2490.07 738.2 2418.55 738.2 2418.55" fill="#68BB9D"/>
<path fill-rule="evenodd" clip-rule="evenodd" d="M609.694 2636.64C615.062 2638.27 617.041 2632.77 618.895 2627.07C623.226 2613.76 623.204 2595.15 623.091 2589.63C623.062 2588.77 623.049 2588.22 623.045 2588.03C623.044 2587.99 623.044 2587.96 623.044 2587.96C622.948 2583.34 626.609 2579.5 631.233 2579.39C635.858 2579.27 639.706 2582.92 639.841 2587.54C639.841 2587.54 639.841 2587.57 639.842 2587.61C639.842 2587.61 640.322 2605.09 643.651 2621.31C645.005 2627.91 646.798 2634.3 649.379 2638.93C649.996 2640.04 650.657 2641.02 651.394 2641.8C651.565 2641.99 651.711 2642.19 651.874 2642.34C652.48 2641.14 653.061 2639.02 653.625 2637.61C655.799 2632.16 657.431 2624.98 658.738 2617.65C661.875 2600.04 662.915 2581.56 662.915 2581.56C663.192 2576.69 667.285 2572.91 672.167 2573.02C677.049 2573.14 680.961 2577.1 681.01 2581.99C681.01 2581.99 681.225 2612.93 687.362 2637.03C689.199 2644.24 691.473 2650.82 694.683 2655.41C696.258 2657.66 697.814 2659.58 700.174 2659.6C702.964 2659.63 704.44 2657.53 705.579 2654.89C707.288 2650.93 708.135 2645.86 708.539 2640.37C709.485 2627.51 707.918 2612.58 706.433 2602.29C704.956 2594.51 704.201 2589.12 704.201 2589.12C703.7 2585.02 706.508 2581.26 710.577 2580.57C714.646 2579.88 718.538 2582.51 719.415 2586.54C719.415 2586.54 722.112 2598.6 723.816 2613.59C725.093 2619.66 726.671 2626.03 728.566 2631.78C730.526 2637.72 732.684 2643.01 735.438 2646.16C736.197 2647.02 736.856 2647.95 737.849 2647.34C741.363 2645.21 741.617 2640.79 741.46 2635.18C740.934 2616.26 731.205 2586.39 732.089 2554.8L735.435 2418.54C735.438 2417.01 736.68 2415.78 738.207 2415.78C739.735 2415.78 740.972 2417.03 740.969 2418.55L742.4 2554.92C742.51 2586.4 753.211 2615.81 754.303 2634.63C754.966 2646.03 752.018 2654.18 744.992 2658.73C737.078 2663.85 729.712 2661.49 723.558 2653.45C720.499 2667.68 712.636 2676.7 700.159 2676.79C688.6 2676.88 679.041 2667.01 673.298 2651.46C672.321 2648.81 671.436 2646 670.633 2643.09C670.479 2643.49 670.324 2643.89 670.166 2644.28C665.816 2654.97 658.81 2660.36 652.29 2660.29C643.228 2660.18 635.272 2652.53 630.744 2639.93C627.239 2646.27 622.472 2650.55 616.693 2652.04C612.887 2653.01 608.534 2652.92 603.597 2650.97C597.586 2648.6 593.771 2642.12 593.608 2632.71C593.445 2623.24 596.576 2610.27 599.213 2600.65C608.225 2567.95 610.393 2518.7 609.559 2468.06C607.94 2369.69 594.688 2266.18 594.688 2266.18C594.471 2264.67 595.523 2263.27 597.035 2263.05C598.547 2262.84 599.95 2263.89 600.167 2265.4C600.167 2265.4 616.602 2368.97 620.851 2467.72C623.091 2519.79 621.812 2570.51 613.372 2604.37C611.858 2610.41 610.103 2617.92 609.294 2624.78C608.901 2628.11 608.739 2631.26 609.025 2633.93C609.124 2634.85 609.51 2636.09 609.694 2636.64ZM651.745 2642.58C651.071 2642.59 650.304 2642.66 650.632 2643.04C651.013 2643.48 651.384 2643.21 651.745 2642.58Z" fill="black"/>
<path fill-rule="evenodd" clip-rule="evenodd" d="M597.426 2265.79C597.426 2265.79 631.777 2505.38 606.29 2602.51C602.436 2617.2 597.133 2640.16 606.383 2643.72C633.38 2654.09 631.441 2587.79 631.441 2587.79C631.441 2587.79 632.759 2651.32 652.343 2651.44C668.006 2651.53 671.953 2582.08 671.953 2582.08C671.953 2582.08 672.82 2668.18 700.164 2668.2C729.267 2668.22 711.865 2588.18 711.865 2588.18C711.865 2588.18 721.34 2665.63 741.419 2653.03C758.426 2642.37 736.683 2600.6 737.243 2554.86C738.036 2490.07 738.2 2418.55 738.2 2418.55" fill="black" fill-opacity="0.2"/>
<path fill-rule="evenodd" clip-rule="evenodd" d="M1499.14 2269.06C1499.14 2269.06 1496.35 2429.62 1492.71 2542.24C1491.21 2588.51 1497.22 2633.11 1482.41 2638.19C1464.72 2644.26 1465.13 2591.06 1465.13 2591.06C1465.13 2591.06 1467.05 2656.24 1451.12 2658.85C1430.5 2662.23 1424.62 2585.35 1424.62 2585.35C1424.62 2585.35 1421.5 2604.52 1422.9 2627.76C1424.5 2654.23 1428.19 2685.93 1407.49 2682.94C1389.54 2680.35 1397.62 2654.92 1393.46 2629.39C1390.05 2608.51 1387.6 2589.49 1387.6 2589.49C1387.6 2589.49 1383.92 2667.02 1362.11 2657.74C1354.44 2654.48 1360.15 2615.56 1359.59 2577.81C1358.57 2508.8 1358.37 2421.82 1358.37 2421.82" fill="#68BB9D"/>
<path fill-rule="evenodd" clip-rule="evenodd" d="M1365.77 2651.69C1366.56 2651.5 1367.18 2650.69 1367.83 2649.84C1370.47 2646.41 1372.33 2640.92 1373.92 2634.8C1379 2615.2 1379.9 2589.13 1379.9 2589.13C1380.09 2585.14 1383.3 2581.96 1387.29 2581.79C1391.28 2581.63 1394.73 2584.55 1395.24 2588.51L1401.51 2628.08C1404.16 2643.53 1402.24 2658.98 1404.46 2669.2C1405.03 2671.85 1405.9 2673.97 1408.73 2674.36C1413.53 2675.02 1414.05 2670.53 1414.74 2665.52C1416.16 2655.12 1414.73 2641.07 1413.9 2628.31C1413.4 2620.26 1413.41 2612.68 1413.67 2606.15C1414.2 2592.89 1415.7 2583.9 1415.7 2583.9C1416.44 2579.38 1420.43 2576.13 1425 2576.32C1429.57 2576.52 1433.27 2580.1 1433.62 2584.66C1433.62 2584.66 1435.15 2605.17 1439.45 2624.19C1441.25 2632.16 1443.48 2639.88 1446.44 2645.44C1447.23 2646.91 1448.03 2648.21 1448.93 2649.23C1449.06 2649.38 1449.24 2649.55 1449.41 2649.71C1450.04 2648.66 1451.05 2646.88 1451.58 2645.35C1453.43 2640.03 1454.6 2633.12 1455.4 2626.09C1457.13 2610.77 1457.02 2594.89 1456.97 2591.82C1456.97 2591.61 1456.97 2591.43 1456.97 2591.3C1456.96 2591.1 1456.96 2590.99 1456.96 2590.99C1457 2586.55 1460.59 2582.94 1465.04 2582.89C1469.49 2582.84 1473.16 2586.37 1473.29 2590.82C1473.29 2590.82 1473.38 2593.65 1473.39 2598.18C1473.57 2603.32 1474.03 2610.53 1475.24 2617.29C1475.98 2621.46 1476.96 2625.47 1478.46 2628.52C1478.83 2629.29 1479.22 2629.99 1479.69 2630.56C1479.8 2630.69 1479.74 2631.01 1479.92 2630.95C1481.31 2630.48 1481.73 2628.81 1482.4 2626.86C1483.77 2622.83 1484.51 2617.49 1484.96 2611.19C1486.25 2593.05 1485.04 2567.79 1486.16 2542.03C1487.71 2508.09 1489.21 2469.8 1490.6 2432.86C1493.84 2347.28 1496.38 2269.01 1496.38 2269.01C1496.4 2267.49 1497.66 2266.27 1499.19 2266.3C1500.72 2266.32 1501.94 2267.58 1501.91 2269.11C1501.91 2269.11 1501.79 2331.48 1501.12 2405.77C1500.71 2450.7 1500.07 2499.97 1499.26 2542.45C1498.6 2573.75 1501.26 2604.24 1498.67 2622.61C1496.88 2635.3 1491.79 2642.99 1484.9 2645.43C1479.11 2647.48 1474.05 2646.37 1469.96 2642.76C1469.36 2645.69 1468.66 2648.44 1467.84 2650.9C1464.57 2660.69 1458.71 2666.36 1452.52 2667.42C1445.31 2668.65 1438.37 2665.06 1432.98 2657.08C1432.83 2664.25 1432.16 2670.76 1430.5 2675.83C1428.67 2681.38 1425.77 2685.6 1421.91 2688.29C1417.93 2691.07 1412.86 2692.54 1406.25 2691.53C1398.29 2690.31 1393.45 2686.37 1390.44 2680.55C1388.13 2676.07 1387.03 2670.1 1386.73 2663.09C1386.47 2656.91 1386.76 2649.74 1386.46 2642.23C1384.89 2647.15 1383.07 2651.57 1380.96 2655.01C1375.38 2664.09 1368.03 2667.68 1359.49 2663.9C1357.35 2662.95 1355.32 2661.18 1353.97 2658.13C1352.59 2654.99 1351.76 2649.7 1351.67 2642.8C1351.46 2627.33 1354.11 2602.39 1354.12 2577.89C1354.17 2552.57 1354.35 2524.83 1354.6 2499.85C1355.03 2456.71 1355.6 2421.82 1355.6 2421.82C1355.6 2420.3 1356.83 2419.05 1358.36 2419.05C1359.89 2419.05 1361.13 2420.28 1361.14 2421.81L1365.06 2577.73C1365.93 2606.7 1362.99 2636.43 1365.25 2649.67C1365.37 2650.33 1365.58 2651.09 1365.77 2651.69Z" fill="black"/>
<path fill-rule="evenodd" clip-rule="evenodd" d="M1715.16 1843.73C1715.16 1843.73 1712.37 2004.29 1708.73 2116.91C1707.23 2163.18 1713.23 2207.78 1698.43 2212.86C1680.74 2218.93 1681.15 2165.73 1681.15 2165.73C1681.15 2165.73 1683.07 2230.91 1667.13 2233.52C1646.52 2236.9 1640.63 2160.02 1640.63 2160.02C1640.63 2160.02 1637.52 2179.19 1638.92 2202.43C1640.51 2228.9 1644.21 2260.6 1623.51 2257.61C1605.56 2255.02 1613.64 2229.59 1609.47 2204.06C1606.07 2183.18 1603.62 2164.16 1603.62 2164.16C1603.62 2164.16 1599.94 2241.69 1578.13 2232.41C1570.45 2229.15 1581.18 2193.59 1580.62 2155.84C1579.6 2086.83 1592.99 1975.06 1592.99 1975.06" fill="black" fill-opacity="0.2"/>
<path fill-rule="evenodd" clip-rule="evenodd" d="M1739.23 1812.82C1739.23 1812.82 1736.44 1973.38 1732.8 2086C1731.3 2132.27 1737.31 2176.87 1722.5 2181.95C1704.81 2188.02 1705.22 2134.82 1705.22 2134.82C1705.22 2134.82 1707.14 2200 1691.21 2202.61C1670.59 2205.99 1664.71 2129.11 1664.71 2129.11C1664.71 2129.11 1661.59 2148.28 1662.99 2171.52C1664.59 2197.99 1668.28 2229.69 1647.58 2226.7C1629.63 2224.11 1637.71 2198.68 1633.55 2173.15C1630.14 2152.27 1627.69 2133.25 1627.69 2133.25C1627.69 2133.25 1624.01 2210.78 1602.2 2201.5C1594.53 2198.24 1600.24 2159.32 1599.68 2121.57C1598.66 2052.56 1598.46 1965.58 1598.46 1965.58" fill="#68BB9D"/>
<path fill-rule="evenodd" clip-rule="evenodd" d="M1605.86 2195.45C1606.65 2195.26 1607.27 2194.45 1607.92 2193.6C1610.56 2190.17 1612.42 2184.68 1614.01 2178.56C1619.09 2158.96 1619.99 2132.89 1619.99 2132.89C1620.18 2128.9 1623.39 2125.72 1627.38 2125.55C1631.37 2125.39 1634.82 2128.31 1635.33 2132.27L1641.6 2171.84C1644.25 2187.29 1642.33 2202.74 1644.55 2212.96C1645.12 2215.61 1645.99 2217.73 1648.82 2218.12C1653.62 2218.78 1654.14 2214.29 1654.83 2209.28C1656.25 2198.88 1654.82 2184.83 1653.99 2172.07C1653.49 2164.02 1653.5 2156.44 1653.76 2149.91C1654.29 2136.65 1655.79 2127.66 1655.79 2127.66C1656.53 2123.14 1660.52 2119.89 1665.09 2120.08C1669.66 2120.28 1673.36 2123.86 1673.71 2128.42C1673.71 2128.42 1675.24 2148.93 1679.54 2167.95C1681.34 2175.92 1683.57 2183.64 1686.53 2189.2C1687.32 2190.67 1688.12 2191.97 1689.02 2192.99C1689.15 2193.14 1689.33 2193.31 1689.5 2193.47C1690.13 2192.42 1691.14 2190.64 1691.67 2189.11C1693.52 2183.79 1694.69 2176.88 1695.49 2169.85C1697.22 2154.53 1697.11 2138.65 1697.06 2135.58C1697.06 2135.37 1697.06 2135.19 1697.06 2135.06C1697.05 2134.86 1697.05 2134.75 1697.05 2134.75C1697.09 2130.31 1700.68 2126.7 1705.13 2126.65C1709.58 2126.6 1713.25 2130.13 1713.38 2134.58C1713.38 2134.58 1713.47 2137.41 1713.48 2141.94C1713.66 2147.08 1714.12 2154.29 1715.33 2161.05C1716.07 2165.22 1717.05 2169.23 1718.55 2172.28C1718.92 2173.05 1719.31 2173.75 1719.78 2174.32C1719.89 2174.45 1719.83 2174.77 1720.01 2174.71C1721.4 2174.24 1721.82 2172.57 1722.49 2170.62C1723.86 2166.59 1724.6 2161.25 1725.05 2154.95C1726.34 2136.81 1725.13 2111.55 1726.25 2085.79C1727.8 2051.85 1729.3 2013.56 1730.69 1976.62C1733.93 1891.04 1736.47 1812.77 1736.47 1812.77C1736.49 1811.25 1737.75 1810.03 1739.28 1810.06C1740.81 1810.08 1742.03 1811.34 1742 1812.87C1742 1812.87 1741.88 1875.24 1741.21 1949.53C1740.8 1994.46 1740.16 2043.73 1739.35 2086.21C1738.69 2117.51 1741.35 2148 1738.76 2166.37C1736.97 2179.06 1731.88 2186.75 1724.99 2189.19C1719.2 2191.24 1714.14 2190.13 1710.05 2186.52C1709.45 2189.45 1708.75 2192.2 1707.93 2194.66C1704.66 2204.45 1698.8 2210.12 1692.61 2211.18C1685.4 2212.41 1678.46 2208.82 1673.07 2200.84C1672.92 2208.01 1672.25 2214.52 1670.59 2219.59C1668.76 2225.14 1665.86 2229.36 1662 2232.05C1658.02 2234.83 1652.95 2236.3 1646.34 2235.29C1638.38 2234.07 1633.54 2230.13 1630.53 2224.31C1628.22 2219.83 1627.12 2213.86 1626.82 2206.85C1626.56 2200.67 1626.85 2193.5 1626.55 2185.99C1624.98 2190.91 1623.16 2195.33 1621.05 2198.77C1615.47 2207.85 1608.12 2211.44 1599.58 2207.66C1597.44 2206.71 1595.41 2204.94 1594.06 2201.89C1592.68 2198.75 1591.85 2193.46 1591.76 2186.56C1591.55 2171.09 1594.2 2146.15 1594.21 2121.65C1594.26 2096.33 1594.44 2068.59 1594.69 2043.61C1595.12 2000.47 1595.69 1965.58 1595.69 1965.58C1595.69 1964.06 1596.92 1962.81 1598.45 1962.81C1599.98 1962.81 1601.22 1964.04 1601.23 1965.57L1605.15 2121.49C1606.02 2150.46 1603.08 2180.19 1605.34 2193.43C1605.46 2194.09 1605.67 2194.85 1605.86 2195.45Z" fill="black"/>
<path fill-rule="evenodd" clip-rule="evenodd" d="M438.48 1862.35C438.48 1862.35 441.27 2022.91 444.913 2135.53C446.411 2181.8 440.407 2226.4 455.212 2231.48C472.901 2237.55 472.495 2184.35 472.495 2184.35C472.495 2184.35 470.571 2249.53 486.508 2252.14C507.124 2255.52 513.007 2178.64 513.007 2178.64C513.007 2178.64 516.124 2197.81 514.723 2221.05C513.128 2247.52 509.435 2279.22 530.135 2276.23C548.083 2273.64 540.003 2248.21 544.167 2222.68C547.573 2201.8 550.025 2182.78 550.025 2182.78C550.025 2182.78 553.701 2260.31 575.513 2251.03C583.188 2247.77 577.473 2208.85 578.032 2171.1C579.055 2102.09 579.254 2015.11 579.254 2015.11" fill="#68BB9D"/>
<path fill-rule="evenodd" clip-rule="evenodd" d="M457.615 2224.2C457.692 2224.13 457.781 2224.03 457.841 2223.97C458.075 2223.7 458.281 2223.39 458.489 2223.05C459.396 2221.61 460.089 2219.78 460.71 2217.76C461.397 2215.53 461.937 2213.09 462.384 2210.58C463.59 2203.82 464.059 2196.61 464.237 2191.47C464.244 2186.94 464.336 2184.11 464.336 2184.11C464.467 2179.66 468.137 2176.13 472.586 2176.18C477.036 2176.23 480.628 2179.84 480.662 2184.28C480.662 2184.28 480.661 2184.39 480.658 2184.59C480.657 2184.72 480.654 2184.9 480.65 2185.11C480.609 2188.18 480.494 2204.06 482.229 2219.38C483.026 2226.41 484.195 2233.32 486.046 2238.64C486.579 2240.17 487.581 2241.95 488.212 2243C488.387 2242.84 488.562 2242.67 488.695 2242.52C489.598 2241.5 490.399 2240.2 491.181 2238.73C494.142 2233.17 496.372 2225.45 498.175 2217.48C502.479 2198.46 504.007 2177.95 504.007 2177.95C504.356 2173.39 508.058 2169.81 512.627 2169.61C517.195 2169.42 521.188 2172.67 521.921 2177.19C521.921 2177.19 523.426 2186.18 523.952 2199.44C524.212 2205.97 524.221 2213.55 523.721 2221.6C522.899 2234.36 521.469 2248.41 522.888 2258.81C523.57 2263.82 524.091 2268.31 528.898 2267.65C531.722 2267.26 532.595 2265.14 533.169 2262.49C535.384 2252.27 533.461 2236.82 536.119 2221.37L542.385 2181.8C542.896 2177.84 546.348 2174.92 550.338 2175.08C554.328 2175.25 557.534 2178.43 557.723 2182.42C557.723 2182.42 558.623 2208.49 563.709 2228.09C565.297 2234.21 567.157 2239.7 569.791 2243.13C570.443 2243.98 571.06 2244.79 571.853 2244.98C572.04 2244.38 572.258 2243.62 572.37 2242.96C574.634 2229.72 571.699 2199.99 572.568 2171.02L576.489 2015.1C576.492 2013.57 577.735 2012.34 579.262 2012.34C580.79 2012.34 582.027 2013.59 582.024 2015.11C582.024 2015.11 582.599 2050 583.027 2093.14C583.275 2118.12 583.454 2145.86 583.5 2171.18C583.511 2195.68 586.167 2220.62 585.955 2236.09C585.861 2242.99 585.035 2248.28 583.651 2251.42C582.308 2254.47 580.278 2256.24 578.133 2257.19C569.594 2260.97 562.24 2257.38 556.665 2248.3C554.556 2244.86 552.735 2240.44 551.168 2235.52C550.865 2243.03 551.153 2250.2 550.89 2256.38C550.591 2263.39 549.498 2269.36 547.184 2273.84C544.177 2279.66 539.336 2283.6 531.376 2284.82C524.766 2285.83 519.69 2284.36 515.714 2281.58C511.853 2278.89 508.952 2274.67 507.129 2269.12C505.464 2264.05 504.794 2257.54 504.649 2250.37C499.259 2258.35 492.314 2261.94 485.106 2260.71C478.911 2259.65 473.053 2253.98 469.785 2244.19C468.965 2241.73 468.264 2238.98 467.665 2236.05C463.573 2239.66 458.512 2240.77 452.727 2238.72C445.837 2236.28 440.74 2228.59 438.954 2215.9C436.369 2197.53 439.026 2167.04 438.369 2135.74C437.552 2093.26 436.912 2043.99 436.506 1999.06C435.835 1924.77 435.715 1862.4 435.715 1862.4C435.688 1860.87 436.906 1859.61 438.434 1859.59C439.961 1859.56 441.222 1860.78 441.249 1862.3C441.249 1862.3 443.784 1940.57 447.02 2026.15C448.418 2063.09 449.918 2101.38 451.461 2135.32C452.589 2161.08 451.374 2186.34 452.665 2204.48C453.113 2210.78 453.852 2216.12 455.227 2220.15C455.878 2222.06 456.295 2223.7 457.615 2224.2Z" fill="black"/>
<path fill-rule="evenodd" clip-rule="evenodd" d="M438.48 1862.35C438.48 1862.35 441.27 2022.91 444.913 2135.53C446.411 2181.8 440.407 2226.4 455.212 2231.48C472.901 2237.55 472.495 2184.35 472.495 2184.35C472.495 2184.35 470.571 2249.53 486.508 2252.14C507.124 2255.52 513.007 2178.64 513.007 2178.64C513.007 2178.64 516.124 2197.81 514.723 2221.05C513.128 2247.52 509.435 2279.22 530.135 2276.23C548.083 2273.64 540.003 2248.21 544.167 2222.68C547.573 2201.8 528.704 2225.2 528.704 2225.2C528.704 2225.2 525.404 2206.75 513.409 2167.22C511.052 2159.46 491.709 2232.25 491.12 2223.29C487.209 2163.82 461.129 2181.56 461.182 2167.74C461.362 2120.71 483.322 1997.01 477.48 1946.14C476.148 1934.53 484.414 1912.18 484.414 1912.18L438.48 1862.35Z" fill="black" fill-opacity="0.2"/>
<path fill-rule="evenodd" clip-rule="evenodd" d="M495.525 1160.69C495.83 1159.19 497.293 1158.22 498.789 1158.53C500.286 1158.83 501.253 1160.3 500.949 1161.79C500.949 1161.79 476.305 1297.63 463.742 1421.3C459.242 1465.59 456.228 1508.29 456.647 1542.58C456.893 1562.79 458.218 1579.99 461.369 1592.66C464.988 1607.79 470.95 1626.75 478.163 1648C486.725 1673.22 497.157 1701.59 508.117 1730.43C545.852 1829.75 590.399 1934.42 590.399 1934.42C591.032 1935.81 590.419 1937.45 589.029 1938.08C587.639 1938.72 585.996 1938.1 585.363 1936.71C585.363 1936.71 559.338 1883.46 529.363 1816.91C517.763 1791.16 505.603 1763.43 494.119 1736.04C482.091 1707.34 470.78 1679.04 461.666 1653.78C453.824 1632.04 447.674 1612.51 443.78 1596.97C440.46 1583.21 438.857 1564.57 438.903 1542.67C438.976 1507.8 442.872 1464.43 448.751 1419.55C464.952 1295.88 495.525 1160.69 495.525 1160.69Z" fill="black"/>
<path fill-rule="evenodd" clip-rule="evenodd" d="M1600.26 1098.62C1599.79 1097.16 1600.59 1095.6 1602.05 1095.13C1603.5 1094.67 1605.06 1095.47 1605.53 1096.92C1605.53 1096.92 1647.82 1219.18 1678.28 1332.38C1685.79 1360.28 1692.53 1387.63 1697.75 1412.48C1704.88 1446.38 1709.1 1475.68 1708.98 1495.48C1708.68 1514.15 1706.5 1534.88 1702.64 1556.67C1697.61 1585.06 1689.9 1615.28 1680.97 1645.21C1672.12 1674.86 1662.01 1704.2 1652 1731.16C1625.62 1802.17 1600.04 1856.61 1600.04 1856.61C1599.43 1858.01 1597.8 1858.65 1596.4 1858.04C1595 1857.43 1594.36 1855.79 1594.97 1854.39C1594.97 1854.39 1617.41 1798.94 1640.61 1727.21C1649.39 1700.09 1658.28 1670.67 1666.11 1641.03C1672.58 1616.54 1678.26 1591.9 1682.63 1568.33C1687.48 1542.1 1690.73 1517.2 1690.94 1495.24C1691.32 1476.32 1687.37 1448.32 1681.2 1415.78C1676.52 1391.08 1670.53 1363.84 1663.97 1335.99C1637.18 1222.2 1600.26 1098.62 1600.26 1098.62Z" fill="black"/>
<path fill-rule="evenodd" clip-rule="evenodd" d="M1707.95 1296.46C1707.42 1295.03 1708.15 1293.44 1709.58 1292.91C1711.02 1292.38 1712.61 1293.11 1713.14 1294.54C1713.14 1294.54 1736.3 1349.3 1749.52 1405.35C1752.6 1418.42 1755.07 1431.56 1756.6 1444.09C1758.38 1458.75 1758.75 1472.57 1757.53 1484.52C1756.46 1493.18 1755 1502.47 1753 1512.01C1750.26 1525.1 1746.68 1538.7 1742.81 1552.06C1738.85 1565.69 1734.55 1579.01 1730.34 1591.23C1719 1624.16 1708.67 1648.81 1708.67 1648.81C1708.17 1650.26 1706.59 1651.02 1705.14 1650.51C1703.7 1650 1702.94 1648.42 1703.45 1646.98C1703.45 1646.98 1710.72 1621.48 1718.89 1587.87C1721.9 1575.48 1725.04 1562.02 1728 1548.31C1730.86 1535.04 1733.47 1521.58 1735.68 1508.71C1737.25 1499.55 1738.69 1490.71 1739.58 1482.44C1740.99 1471.65 1740.76 1459.13 1739.69 1445.81C1738.71 1433.72 1737.01 1421.01 1734.9 1408.28C1725.62 1352.25 1707.95 1296.46 1707.95 1296.46Z" fill="black"/>
<path fill-rule="evenodd" clip-rule="evenodd" d="M425.888 1174.75C426.053 1173.23 427.42 1172.13 428.938 1172.3C430.457 1172.46 431.556 1173.83 431.391 1175.35C431.391 1175.35 429.309 1217.47 425.471 1271.15C424.028 1291.33 422.356 1313.12 420.296 1334.89C419.49 1343.41 418.577 1351.91 417.548 1360.31C415.947 1373.37 414.113 1386.14 412.335 1398.32C410.351 1411.91 408.332 1424.69 406.463 1436.26C401 1470.08 396.893 1493.09 396.893 1493.09C396.728 1494.61 395.362 1495.71 393.843 1495.54C392.325 1495.38 391.226 1494.01 391.391 1492.49C391.391 1492.49 392.319 1469.13 394.24 1434.94C394.897 1423.24 395.668 1410.32 396.648 1396.62C397.526 1384.34 398.475 1371.47 399.714 1358.37C400.51 1349.95 401.444 1341.45 402.485 1332.95C405.145 1311.25 408.188 1289.61 411.11 1269.59C418.883 1216.33 425.888 1174.75 425.888 1174.75Z" fill="black"/>
<path fill-rule="evenodd" clip-rule="evenodd" d="M859.227 2177.52C857.86 2176.83 857.305 2175.17 857.987 2173.8C858.669 2172.44 860.332 2171.88 861.699 2172.56C911.814 2196.02 969.92 2208.11 1030.78 2211.3C1068.74 2213.29 1107.74 2211.65 1146.65 2207C1161.99 2205.17 1177.32 2202.91 1192.58 2200.28C1215.55 2196.3 1238.33 2191.43 1260.67 2185.5C1289.19 2177.93 1316.97 2168.81 1343.46 2158.03C1371.21 2146.73 1397.56 2133.84 1421.8 2119.12C1423.07 2118.28 1424.79 2118.64 1425.62 2119.92C1426.46 2121.2 1426.1 2122.92 1424.82 2123.75C1396.63 2143.46 1365.34 2160.98 1331.82 2175.76C1310.34 2185.23 1287.98 2193.57 1265.03 2200.67C1242.41 2207.66 1219.24 2213.51 1195.77 2217.93C1180.16 2220.87 1164.41 2223.16 1148.64 2224.81C1108.67 2228.97 1068.55 2229.3 1029.73 2225.71C967.748 2219.97 909.144 2204.03 859.227 2177.52Z" fill="black"/>
<path fill-rule="evenodd" clip-rule="evenodd" d="M1078.75 830.852C1395.05 830.852 1651.85 1133.56 1651.85 1506.41C1651.85 1879.27 1400.16 2171.12 1083.85 2171.12C767.547 2171.12 505.645 1879.27 505.645 1506.41C505.645 1133.56 762.443 830.852 1078.75 830.852ZM1079.04 889.004C999.532 889.004 918.728 925.314 876.774 940.77C843.705 952.953 800.367 983.913 773.287 1007.17C761.632 1017.19 748.559 1042.24 737.722 1053.35C699.121 1092.94 670.333 1125.54 643.668 1177.21C640.641 1183.08 633.121 1185.95 630.266 1191.95C589.151 1278.33 574.555 1363.13 574.555 1470.47C574.555 1803.82 795.098 2056.49 1084.49 2056.49C1373.88 2056.49 1590.49 1816.71 1590.49 1483.36C1590.49 1150.01 1368.44 889.004 1079.04 889.004Z" fill="#FF8B3E"/>
<path fill-rule="evenodd" clip-rule="evenodd" d="M1078.75 830.852C1395.05 830.852 1651.85 1133.56 1651.85 1506.41C1651.85 1879.27 1400.16 2171.12 1083.85 2171.12C767.547 2171.12 505.645 1879.27 505.645 1506.41C505.645 1133.56 762.443 830.852 1078.75 830.852ZM1078.75 836.387C914.621 838 767.638 922.131 665.599 1055.01C574.034 1174.26 518.667 1332.8 520.121 1506.41C521.135 1679.55 579.899 1834.31 674.086 1949.31C777.178 2075.18 923.087 2153.4 1083.85 2153.22C1245.1 2153.82 1389.01 2075.63 1489.76 1949.25C1581.45 1834.23 1637.61 1679.41 1638.63 1506.41C1639.92 1332.56 1584.36 1173.82 1492.51 1054.53C1390.24 921.688 1242.99 837.738 1078.75 836.387ZM1079.04 883.469C1233.15 881.749 1369.23 953.248 1464.36 1070.35C1551.02 1177.03 1603.49 1321.64 1605.02 1483.36C1606.1 1646.48 1556.34 1788.18 1471.65 1891.68C1377.83 2006.34 1241.36 2074.2 1084.49 2074.4C927.684 2073.74 790.439 2001.86 695.869 1883.52C610.787 1777.06 560.323 1632.97 561.425 1470.47C561.868 1417.74 565.735 1370.39 574.416 1325.67C583.73 1277.68 598.531 1232.69 620.588 1187.34C621.611 1185.24 622.918 1183.33 624.472 1181.59C627.438 1178.26 632.225 1176.3 634.293 1172.38C648 1146.36 662.182 1125.09 677.844 1105.4C693.735 1085.42 711.132 1067.05 731.113 1046.9C739.455 1038.51 749.141 1021.82 758.479 1010.27C761.581 1006.44 764.655 1003.1 767.631 1000.59C784.053 986.749 806.275 970.217 828.683 956.527C844.389 946.932 860.184 938.722 874.175 933.717C901.544 923.925 945.319 905.543 994.452 893.956C1021.64 887.545 1050.44 883.198 1079.04 883.469ZM1079.04 889.004C999.532 889.004 918.728 925.314 876.774 940.77C843.705 952.953 800.367 983.913 773.287 1007.17C761.632 1017.19 748.559 1042.24 737.722 1053.35C699.121 1092.94 670.333 1125.54 643.668 1177.21C640.641 1183.08 633.121 1185.95 630.266 1191.95C589.151 1278.33 574.555 1363.13 574.555 1470.47C574.555 1803.82 795.098 2056.49 1084.49 2056.49C1373.88 2056.49 1590.49 1816.71 1590.49 1483.36C1590.49 1150.01 1368.44 889.004 1079.04 889.004Z" fill="black"/>
<path d="M881.455 1106.38C887.857 1106.38 893.047 1101.11 893.047 1094.61C893.047 1088.11 887.857 1082.84 881.455 1082.84C875.053 1082.84 869.863 1088.11 869.863 1094.61C869.863 1101.11 875.053 1106.38 881.455 1106.38Z" fill="black" fill-opacity="0.2"/>
<path fill-rule="evenodd" clip-rule="evenodd" d="M881.455 1082.84C887.852 1082.84 893.047 1088.12 893.047 1094.61C893.047 1101.11 887.852 1106.39 881.455 1106.39C875.057 1106.39 869.863 1101.11 869.863 1094.61C869.863 1088.12 875.057 1082.84 881.455 1082.84ZM881.455 1085.48C879.582 1085.95 878.452 1087.33 877.29 1088.71C875.97 1090.28 876.272 1092.44 876.745 1094.61C876.904 1095.64 877.953 1096.12 878.588 1096.85C879.275 1097.63 880.346 1097.91 881.455 1097.86C882.702 1097.98 884.008 1098.06 884.807 1097.19C885.539 1096.4 886.586 1095.77 886.766 1094.61C887.114 1092.77 887.37 1090.96 886.424 1089.51C885.223 1087.66 883.757 1085.96 881.455 1085.48Z" fill="white"/>
<path d="M649.127 1461.8C657.374 1461.8 664.059 1455.31 664.059 1447.31C664.059 1439.31 657.374 1432.82 649.127 1432.82C640.881 1432.82 634.195 1439.31 634.195 1447.31C634.195 1455.31 640.881 1461.8 649.127 1461.8Z" fill="black" fill-opacity="0.2"/>
<path fill-rule="evenodd" clip-rule="evenodd" d="M649.127 1432.82C657.368 1432.82 664.059 1439.32 664.059 1447.31C664.059 1455.31 657.368 1461.81 649.127 1461.81C640.886 1461.81 634.195 1455.31 634.195 1447.31C634.195 1439.32 640.886 1432.82 649.127 1432.82ZM649.127 1435.46C645.973 1436.08 643.777 1438.17 642.055 1440.55C640.681 1442.45 640.662 1444.86 641.077 1447.31C641.271 1448.89 642.472 1449.96 643.492 1451.06C644.199 1451.81 645.219 1452.14 646.186 1452.57C647.088 1452.97 648.068 1453.27 649.127 1453.28C651.05 1453.42 652.922 1453.19 654.308 1452.1C655.891 1450.85 657.524 1449.44 657.778 1447.31C658.162 1444.75 657.941 1442.23 656.457 1440.29C654.673 1437.94 652.303 1435.99 649.127 1435.46Z" fill="white"/>
<path d="M1319.55 1941.74C1327.36 1941.74 1333.7 1935.74 1333.7 1928.35C1333.7 1920.95 1327.36 1914.96 1319.55 1914.96C1311.74 1914.96 1305.41 1920.95 1305.41 1928.35C1305.41 1935.74 1311.74 1941.74 1319.55 1941.74Z" fill="black" fill-opacity="0.2"/>
<path fill-rule="evenodd" clip-rule="evenodd" d="M1319.55 1914.96C1327.36 1914.96 1333.7 1920.96 1333.7 1928.35C1333.7 1935.74 1327.36 1941.74 1319.55 1941.74C1311.75 1941.74 1305.41 1935.74 1305.41 1928.35C1305.41 1920.96 1311.75 1914.96 1319.55 1914.96ZM1319.55 1917.6C1316.62 1918.22 1314.63 1920.19 1313.03 1922.38C1311.79 1924.06 1311.9 1926.2 1312.29 1928.35C1312.46 1929.68 1313.62 1930.48 1314.51 1931.39C1315.14 1932.03 1316.06 1932.24 1316.91 1932.6C1317.73 1932.94 1318.6 1933.2 1319.55 1933.21C1321.28 1933.35 1322.97 1933.24 1324.22 1932.31C1325.63 1931.26 1327.18 1930.17 1327.42 1928.35C1327.78 1926.08 1327.67 1923.84 1326.33 1922.11C1324.67 1919.96 1322.51 1918.12 1319.55 1917.6Z" fill="white"/>
<path fill-rule="evenodd" clip-rule="evenodd" d="M731.379 1804.9C726.682 1803.81 718.555 1802.64 714.439 1799.74C712.319 1798.24 711.039 1796.35 710.889 1794.08C710.779 1792.41 711.261 1790.44 712.826 1788.19C718.487 1780.06 732.137 1775.41 747.385 1773.19C772.908 1769.48 802.7 1771.96 802.7 1771.96C803.426 1772.01 803.974 1772.64 803.923 1773.36C803.873 1774.09 803.243 1774.64 802.517 1774.59C802.517 1774.59 773.09 1772.94 748.028 1777.25C734.338 1779.6 721.896 1783.55 716.977 1791C716.284 1792.05 715.933 1792.91 716.003 1793.68C716.072 1794.44 716.686 1794.93 717.407 1795.41C722.001 1798.49 731.812 1798.94 735.359 1800.08C737.739 1800.84 738.567 1802.42 738.675 1803.45C738.753 1804.19 738.594 1805.01 737.971 1805.85C731.059 1815.2 724.511 1821.27 716.853 1823.28C709.525 1825.2 701.016 1823.52 689.926 1816.87C686.316 1814.69 681.033 1807.34 675.05 1795.99C664.54 1776.05 650.882 1743.43 637.57 1707.26C629.427 1685.14 621.431 1661.69 614.245 1639.07C600.695 1596.41 590.091 1556.68 586.761 1534.23C584.799 1520.74 585.418 1494.38 587.369 1464.09C591.886 1393.96 603.248 1302.55 603.248 1302.55C603.33 1301.82 603.983 1301.3 604.706 1301.38C605.429 1301.47 605.949 1302.12 605.867 1302.84C605.867 1302.84 596.537 1394.33 593.363 1464.42C592.018 1494.13 591.736 1519.95 593.887 1533.13C597.438 1555.29 608.636 1594.38 622.299 1636.48C629.592 1658.95 637.608 1682.28 645.579 1704.34C658.538 1740.22 671.413 1772.76 681.508 1792.65C686.482 1802.45 690.449 1809.12 693.507 1811.04C702.469 1816.67 709.287 1818.61 715.314 1817.16C721.148 1815.76 726.095 1811.37 731.379 1804.9Z" fill="white"/>
<path fill-rule="evenodd" clip-rule="evenodd" d="M887.046 1962.3C887.703 1961.99 888.49 1962.27 888.803 1962.92C889.115 1963.58 888.836 1964.37 888.179 1964.68C888.179 1964.68 882.573 1967.84 880.06 1973.14C878.746 1975.91 878.506 1979.32 880.712 1983.26C883.775 1988.85 888.356 1992.4 893.428 1994.35C898.677 1996.37 904.531 1996.5 910.013 1994.84C911.489 1994.45 912.46 1993.33 913.349 1991.91C914.448 1990.17 915.38 1988.03 916.32 1985.64C918.928 1979.03 921.513 1970.86 926.678 1963.9C929.985 1959.45 934.268 1955.51 940.233 1952.78C940.869 1952.42 941.672 1952.66 942.023 1953.29C942.375 1953.93 942.143 1954.73 941.507 1955.08C932.237 1961.09 928.842 1970.14 926.423 1978.53C925.218 1982.71 924.252 1986.72 923.121 1990.19C922.027 1993.55 920.692 1996.42 918.994 1998.59C917.235 2000.84 915.027 2002.36 912.321 2003.14C904.966 2005 897.159 2004.58 890.419 2001.42C884.123 1998.46 878.723 1993.29 875.509 1985.79C873.543 1981.09 873.651 1977.09 874.957 1973.76C877.954 1966.12 887.046 1962.3 887.046 1962.3Z" fill="white"/>
<path fill-rule="evenodd" clip-rule="evenodd" d="M1054.55 1951.8C1053.87 1951.52 1053.55 1950.75 1053.83 1950.08C1054.1 1949.4 1054.87 1949.08 1055.54 1949.36L1079.38 1958.08L1119.08 1943.62C1119.26 1943.56 1119.45 1943.52 1119.64 1943.49C1119.64 1943.49 1139.21 1939.64 1161.09 1937.1C1170.45 1936.01 1180.25 1935.26 1189.07 1934.92C1197.43 1934.59 1204.93 1934.73 1210.45 1935.4C1215.44 1936.01 1218.99 1937.19 1220.62 1938.69C1223.82 1941.66 1227.33 1946.11 1230.55 1950.83C1236.94 1960.21 1242.26 1970.45 1242.26 1970.45C1242.63 1971.08 1242.41 1971.88 1241.78 1972.25C1241.15 1972.61 1240.35 1972.4 1239.98 1971.77C1239.98 1971.77 1233.85 1962.25 1226.81 1953.61C1223.49 1949.53 1219.97 1945.66 1216.8 1943.18C1215.65 1942.28 1213.18 1942.11 1209.88 1941.92C1204.59 1941.64 1197.48 1942.05 1189.54 1942.71C1180.88 1943.44 1171.3 1944.6 1162.08 1945.66C1141.56 1948.02 1122.92 1950.41 1120.98 1950.66L1080.09 1962.69C1079.57 1962.86 1079.01 1962.84 1078.51 1962.64L1054.55 1951.8Z" fill="white"/>
<path fill-rule="evenodd" clip-rule="evenodd" d="M854.781 903.45C855.403 903.073 856.214 903.273 856.59 903.896C856.967 904.518 856.767 905.329 856.144 905.705C844.594 913.427 834.239 920.636 824.463 927.548C817.254 932.646 810.428 937.61 803.726 942.523C797.496 947.091 791.434 951.667 785.294 956.239C781.232 959.265 777.121 962.261 772.957 965.322C765.499 970.804 757.88 976.45 749.855 982.509C742.577 988.004 734.948 993.709 726.853 999.982C726.304 1000.46 725.471 1000.4 724.994 999.85C724.517 999.301 724.576 998.468 725.126 997.991C732.497 990.836 739.375 984.201 746.11 978.009C751.017 973.498 755.799 969.23 760.561 965.149C765.567 960.858 770.506 956.756 775.519 952.851C778.932 950.191 782.383 947.631 785.885 945.145C794.531 939.007 803.402 933.203 812.838 927.393C825.501 919.598 839.207 911.953 854.781 903.45Z" fill="white"/>
<path fill-rule="evenodd" clip-rule="evenodd" d="M1409.14 981.547C1408.47 981.271 1408.15 980.501 1408.43 979.828C1408.7 979.155 1409.47 978.832 1410.14 979.108C1437.55 989.951 1474.24 1030.4 1509.74 1086.6C1524.54 1110.03 1539.14 1136.2 1552.77 1164.08C1561.27 1181.48 1569.39 1199.54 1576.92 1218.03C1582.85 1232.58 1588.42 1247.39 1593.51 1262.34C1601.18 1284.92 1607.79 1307.81 1613.13 1330.55C1618.69 1354.19 1622.84 1377.67 1625.28 1400.5C1629.35 1438.42 1628.69 1474.53 1622.01 1506.62C1621.87 1507.33 1621.18 1507.8 1620.46 1507.66C1619.75 1507.52 1619.28 1506.83 1619.42 1506.12C1625.06 1474.22 1624.5 1438.55 1619.47 1401.2C1616.44 1378.7 1611.77 1355.6 1605.84 1332.34C1600.12 1309.94 1593.19 1287.41 1585.43 1265.12C1580.29 1250.35 1574.81 1235.67 1569.02 1221.23C1561.65 1202.86 1553.82 1184.87 1545.64 1167.5C1532.53 1139.66 1518.57 1113.44 1504.39 1089.89C1470.65 1033.83 1435.86 992.886 1409.14 981.547Z" fill="white"/>
<path fill-rule="evenodd" clip-rule="evenodd" d="M1579.72 1449.98C1579.76 1449.26 1580.38 1448.7 1581.1 1448.74C1581.83 1448.77 1582.39 1449.39 1582.35 1450.12C1582.35 1450.12 1579.71 1519.68 1568.59 1591.23C1563.53 1623.79 1556.65 1656.72 1547.65 1683.79C1544.42 1693.37 1540.04 1705.56 1527.44 1718.98C1520.09 1726.8 1509.89 1735.04 1495.42 1743.42C1485.83 1748.9 1477.07 1752.16 1468.91 1754.15C1456.98 1757.05 1446.37 1757.22 1436.39 1757.87C1426.33 1758.53 1416.93 1759.65 1407.36 1765.3C1395 1772.57 1380.03 1786.8 1367.41 1802.74C1354.7 1818.78 1344.32 1836.53 1341.62 1850.87C1339.68 1861.19 1342.43 1870.53 1346.62 1878.2C1353.92 1891.58 1365.55 1900.03 1365.55 1900.03C1366.15 1900.45 1366.29 1901.27 1365.88 1901.87C1365.46 1902.46 1364.64 1902.61 1364.04 1902.19C1364.04 1902.19 1351.55 1893.76 1343.46 1880C1338.58 1871.7 1335.36 1861.5 1337.15 1850.09C1339.53 1835.03 1349.69 1816.08 1362.53 1798.98C1375.3 1781.95 1390.73 1766.8 1403.5 1758.89C1414.09 1752.37 1424.55 1750.76 1435.8 1749.84C1445.34 1749.07 1455.48 1748.79 1466.87 1745.91C1474.34 1744.03 1482.35 1741.02 1491.12 1735.94C1504.74 1728.14 1514.36 1720.47 1521.32 1713.18C1532.94 1701.01 1537.05 1689.92 1540.1 1681.2C1549.49 1654.65 1556.77 1622.24 1562.47 1590.21C1575.11 1519.17 1579.72 1449.98 1579.72 1449.98Z" fill="white"/>
<path fill-rule="evenodd" clip-rule="evenodd" d="M1211.57 914.197C1212.28 914.345 1212.74 915.043 1212.59 915.755C1212.44 916.467 1211.74 916.926 1211.03 916.778C1211.03 916.778 1177.32 910.694 1140.1 906.954C1124.14 905.352 1107.55 904.188 1092.69 904.131C1079.06 904.079 1066.94 904.949 1058.26 907.449C1053.36 908.858 1049.62 910.604 1047.89 913.418C1041.43 923.641 1043.85 931.71 1047.1 939.052C1050.33 946.346 1054.16 953.131 1054.07 960.104C1054 964.613 1052.52 969.264 1048.29 974.133C1041.54 981.85 1031.69 988.452 1021.28 993.727C999.36 1004.83 975.235 1010.31 975.235 1010.31C974.531 1010.49 973.811 1010.07 973.629 1009.36C973.446 1008.66 973.87 1007.94 974.574 1007.76C974.574 1007.76 997.817 1000.95 1018.7 988.957C1028.1 983.561 1037.03 977.133 1042.95 969.68C1048.06 963.315 1046.92 957.811 1044.49 952.218C1041.51 945.385 1036.91 938.384 1035.67 930.266C1034.7 923.904 1035.64 916.892 1040.57 908.87C1043.24 904.621 1048.51 901.291 1055.97 899.266C1065.29 896.734 1078.28 895.959 1092.83 896.442C1107.9 896.942 1124.7 898.746 1140.81 901.039C1178.04 906.336 1211.57 914.197 1211.57 914.197Z" fill="white"/>
<path fill-rule="evenodd" clip-rule="evenodd" d="M1474.82 1934.42C1475.54 1934.3 1476.22 1934.77 1476.35 1935.49C1476.47 1936.21 1476 1936.89 1475.28 1937.02L1446.85 1942.96C1443.34 1946.34 1418.36 1970.34 1394.52 1990.65C1386.67 1997.34 1378.92 2003.6 1372.13 2008.61C1365.41 2013.57 1359.55 2017.29 1355.44 2019.22C1347.6 2022.73 1333.62 2028.58 1318.81 2034.4C1292.34 2044.81 1263.36 2055.4 1263.36 2055.4C1262.69 2055.68 1261.92 2055.36 1261.64 2054.68C1261.36 2054.01 1261.68 2053.24 1262.35 2052.96C1262.35 2052.96 1278.85 2045.33 1298.23 2036.44C1310.18 2030.95 1323.21 2024.98 1334.08 2019.95C1341.27 2016.62 1347.52 2013.74 1351.83 2011.6C1354.79 2010.17 1358.68 2007.61 1363.25 2004.39C1368.27 2000.86 1374.06 1996.53 1380.18 1991.78C1388.54 1985.3 1397.51 1978.08 1406.03 1971.12C1426.48 1954.42 1444.24 1939.23 1444.24 1939.23C1444.56 1938.95 1444.94 1938.76 1445.36 1938.68L1474.82 1934.42Z" fill="white"/>
<path fill-rule="evenodd" clip-rule="evenodd" d="M1277.36 897.206C1277.9 897.695 1277.94 898.529 1277.45 899.068C1276.96 899.606 1276.13 899.647 1275.59 899.159C1266.44 891.433 1249.86 884.024 1229.94 877.359C1220.72 874.271 1210.79 871.369 1200.54 868.676C1194.01 866.961 1187.36 865.343 1180.68 863.797C1175.36 862.564 1170.02 861.395 1164.72 860.254C1156.55 858.495 1148.49 856.855 1140.67 855.484C1129.91 853.598 1119.66 852.15 1110.34 851.389C1098.26 850.403 1087.82 850.45 1080.02 852.077C1079.32 852.256 1078.6 851.83 1078.42 851.125C1078.24 850.421 1078.66 849.702 1079.37 849.523C1088.55 846.753 1101.61 845.675 1116.83 846.133C1124.66 846.369 1133.05 847.012 1141.76 848.05C1149.79 849.007 1158.08 850.264 1166.43 851.885C1171.84 852.935 1177.28 854.149 1182.67 855.501C1196.4 858.943 1209.93 863.133 1222.41 867.724C1246.8 876.695 1267.13 887.273 1277.36 897.206Z" fill="white"/>
<path fill-rule="evenodd" clip-rule="evenodd" d="M707.091 1041.42C742.509 1040.18 791.655 1080.11 794.421 1102.83C798.709 1138.01 739.403 1217.06 715.375 1218.73C690.632 1220.46 624.867 1165.17 624.739 1129.73C624.607 1094.28 671.671 1042.67 707.091 1041.42Z" fill="#F2EFD5"/>
<path fill-rule="evenodd" clip-rule="evenodd" d="M707.091 1041.42C742.509 1040.18 791.655 1080.11 794.421 1102.83C798.709 1138.01 739.403 1217.06 715.375 1218.73C690.632 1220.46 624.867 1165.17 624.739 1129.73C624.607 1094.28 671.671 1042.67 707.091 1041.42ZM713.601 1200.88C713.527 1200.9 713.482 1200.94 713.497 1201.01C714.087 1203.78 719.492 1198.08 723.245 1195.1C733.311 1187.12 744.815 1174.66 755.003 1160.96C764.96 1147.55 773.883 1133.19 778.646 1120.39C780.891 1114.36 782.62 1108.94 782.312 1104.3C781.646 1094.04 769.229 1079.74 754.07 1067.86C739.6 1056.53 722.486 1047.37 707.288 1046.96C691.102 1048.72 673.716 1062.82 660.011 1079.88C647.281 1095.73 638.102 1114.58 639.116 1129.68C639.669 1140.84 649.991 1153.1 661.569 1165.03C671.889 1175.66 684.153 1185.31 695.374 1192.23C700.301 1195.27 704.949 1197.81 709.151 1199.41C710.857 1200.06 712.314 1200.77 713.601 1200.88C713.745 1200.85 713.998 1200.9 714.131 1200.89C713.958 1200.9 713.779 1200.9 713.601 1200.88Z" fill="#3C3C3C"/>
<path fill-rule="evenodd" clip-rule="evenodd" d="M734.735 1396.15C734.923 1395.75 735.062 1395.23 735.239 1394.63C735.882 1392.46 736.313 1389.48 736.665 1385.8C737.969 1372.19 737.759 1349.77 738.861 1323.45C739.676 1303.98 741.262 1282.41 744.429 1260.68C748.689 1232.2 756.278 1203.28 767.513 1178.99C776.328 1159.92 787.386 1143.7 800.677 1132.6C805.794 1128.34 807.266 1121.59 807.064 1114.17C806.768 1103.35 802.858 1091.12 799.504 1081.8C795.058 1069.41 777.383 1057.48 768.846 1046.49C765.702 1042.44 763.73 1038.5 763.688 1034.73C763.637 1030.21 765.24 1026.3 767.556 1023.05C772.743 1015.77 781.465 1011.87 781.465 1011.87C782.126 1011.57 782.909 1011.86 783.212 1012.52C783.515 1013.18 783.225 1013.97 782.563 1014.27C782.563 1014.27 774.65 1018.01 770.061 1024.79C768.184 1027.56 766.879 1030.87 767.012 1034.65C767.122 1037.78 768.983 1040.95 771.671 1044.24C780.749 1055.38 799.042 1067.47 803.926 1080.15C807.654 1089.86 811.956 1102.62 812.508 1113.96C812.962 1123.27 810.835 1131.63 804.525 1137.12C792.091 1147.92 781.985 1163.61 773.905 1181.88C763.348 1205.75 756.31 1234.01 752.549 1261.84C749.566 1283.3 748.281 1304.6 747.47 1323.82C746.349 1350.34 746.239 1372.92 744.778 1386.62C743.898 1394.86 742.106 1400.26 739.981 1402.32C737.188 1405.02 734.228 1405.18 731.279 1403.45C728.825 1402.01 726.12 1398.41 724.004 1393.38C719.806 1383.42 717.185 1367.76 719.253 1358.2C721.255 1349.03 726.92 1315.03 730.13 1284.13C732.28 1263.43 733.388 1244.15 731.345 1234.82C730.3 1230.04 724.572 1227.04 718.006 1224.82C705.659 1220.64 689.961 1219.82 689.961 1219.82C689.234 1219.79 688.666 1219.18 688.692 1218.45C688.719 1217.73 689.331 1217.16 690.058 1217.18C690.058 1217.18 710.605 1217.65 723.797 1223.16C729.727 1225.64 734.13 1229.23 735.284 1233.9C737.645 1243.44 737.192 1263.29 735.512 1284.62C733.05 1315.89 728.034 1350.34 726.223 1359.64C725.278 1364.45 725.825 1371 727.119 1377.33C728.535 1384.25 730.879 1390.93 733.507 1394.75C733.856 1395.25 734.361 1395.78 734.735 1396.15Z" fill="white"/>
<path fill-rule="evenodd" clip-rule="evenodd" d="M1383.48 972.922C1388.4 1002.45 1355.08 1040.44 1325.15 1040.63C1295.22 1040.8 1249.64 1006.61 1244.72 977.08C1239.79 947.558 1287 906.118 1316.93 905.941C1346.86 905.761 1378.55 943.401 1383.48 972.922Z" fill="#F2EFD5"/>
<path fill-rule="evenodd" clip-rule="evenodd" d="M1383.48 972.922C1388.4 1002.45 1355.08 1040.44 1325.15 1040.63C1295.22 1040.8 1249.64 1006.61 1244.72 977.08C1239.79 947.558 1287 906.118 1316.93 905.941C1346.86 905.761 1378.55 943.401 1383.48 972.922ZM1378.02 973.835C1374.57 960.727 1364.72 946.828 1352.72 935.865C1341.95 926.036 1329.12 919.114 1317.02 920.156C1305.31 920.879 1291.66 931.051 1280.29 942.442C1273.79 948.949 1268.32 956.242 1264.97 963.478C1263.26 967.194 1261.82 970.741 1262.35 974.137C1263.84 985.57 1273.82 997.653 1285.53 1007.59C1298.12 1018.29 1312.68 1027.21 1325.07 1027.85C1337.13 1028.61 1350.21 1021.68 1360.24 1011.74C1371.18 1000.88 1379.18 986.968 1378.02 973.835Z" fill="#3C3C3C"/>
<path fill-rule="evenodd" clip-rule="evenodd" d="M1420.64 1225.63C1420.77 1225.17 1420.9 1224.66 1420.98 1224.2C1422.09 1217.75 1421.62 1206.39 1420.56 1193.07C1417.79 1158.16 1410.52 1110.32 1410.81 1099.05C1411.16 1086.87 1418.6 1076.82 1431.62 1076.93C1441.05 1077.01 1454.07 1082.87 1469.66 1099.19C1477.08 1106.98 1488.93 1125.13 1500.85 1144.98C1520.95 1178.44 1541.37 1216.66 1541.37 1216.66C1541.72 1217.3 1541.49 1218.1 1540.85 1218.45C1540.21 1218.8 1539.41 1218.57 1539.06 1217.93C1539.06 1217.93 1517.65 1180.38 1496.76 1147.5C1484.63 1128.41 1472.71 1110.89 1465.28 1103.46C1451.22 1089.35 1439.95 1083.85 1431.63 1083.94C1422.96 1084.04 1418.42 1091.08 1418.34 1099.2C1418.23 1107.38 1422.57 1135.01 1425.98 1162.78C1427.88 1178.21 1429.49 1193.68 1430.02 1205.96C1430.46 1216.28 1430.04 1224.48 1428.62 1228.86C1426.86 1234.26 1423.48 1235.82 1419.87 1234.84C1416.82 1234 1413.96 1231.59 1411.75 1227.38C1408.32 1220.88 1405.99 1209.44 1404.63 1195.12C1402.51 1172.94 1402.41 1143.62 1402.49 1115.81C1402.58 1082.36 1402.99 1051.11 1400.05 1037.36C1399.27 1033.72 1395.64 1030.6 1391.41 1027.94C1382.94 1022.6 1371.84 1019.36 1371.84 1019.36C1371.14 1019.17 1370.73 1018.44 1370.92 1017.74C1371.11 1017.04 1371.84 1016.62 1372.54 1016.82C1372.54 1016.82 1384.18 1019.79 1393.16 1025.05C1398.43 1028.13 1402.7 1032.09 1403.79 1036.51C1407.17 1050.32 1407.87 1081.92 1408.65 1115.75C1409.28 1143.31 1409.98 1172.36 1412.49 1194.3C1413.73 1205.13 1415.37 1214.17 1417.74 1220.32C1418.55 1222.43 1419.42 1224.15 1420.43 1225.39C1420.5 1225.47 1420.57 1225.55 1420.64 1225.63Z" fill="white"/>
<path fill-rule="evenodd" clip-rule="evenodd" d="M978.782 865.69C1006.57 876.821 1043.97 943.367 1028.56 969.03C1013.16 994.697 938.372 1018.61 910.588 1007.47C882.805 996.337 865.859 923.035 881.262 897.373C896.664 871.708 950.998 854.553 978.782 865.69Z" fill="#F2EFD5"/>
<path fill-rule="evenodd" clip-rule="evenodd" d="M978.782 865.69C1006.57 876.821 1043.97 943.367 1028.56 969.03C1013.16 994.697 938.372 1018.61 910.588 1007.47C882.805 996.337 865.859 923.035 881.262 897.373C896.664 871.708 950.998 854.553 978.782 865.69ZM976.722 870.826C963.674 866.77 945.368 870.262 928.501 877.111C912.898 883.443 898.746 893.162 893.023 904.431C890.773 908.723 890.583 914.781 890.636 921.525C890.715 931.328 892.83 942.378 895.916 953.072C898.941 963.555 903.297 973.521 908.397 981.316C911.179 985.569 913.803 989.326 917.301 990.718C921.686 992.563 927.852 992.78 934.832 992.421C945.376 991.882 957.392 989.8 969.095 986.51C980.937 983.18 992.498 978.949 1001.81 973.791C1008.5 970.082 1014.23 966.515 1017.15 962.179C1024.1 952.03 1018.68 932.977 1010.65 915.046C1001.81 895.291 988.942 876.694 976.722 870.826Z" fill="#3C3C3C"/>
<path fill-rule="evenodd" clip-rule="evenodd" d="M1447.42 1770.49C1477.24 1767.98 1532.39 1822.65 1530.13 1852.5C1527.88 1882.35 1489.07 1925.8 1459.24 1928.31C1429.42 1930.82 1357.92 1892.37 1360.17 1862.52C1362.43 1832.67 1417.59 1773 1447.42 1770.49Z" fill="#F2EFD5"/>
<path fill-rule="evenodd" clip-rule="evenodd" d="M1447.42 1770.49C1477.24 1767.98 1532.39 1822.65 1530.13 1852.5C1527.88 1882.35 1489.07 1925.8 1459.24 1928.31C1429.42 1930.82 1357.92 1892.37 1360.17 1862.52C1362.43 1832.67 1417.59 1773 1447.42 1770.49ZM1447.88 1776.01C1434.13 1778.25 1416.34 1794.93 1401.09 1813.73C1386.94 1831.16 1375.2 1850.72 1375.06 1863.65C1374.97 1867.52 1378.67 1870.7 1382.33 1874.57C1388.92 1881.54 1398.52 1887.87 1408.72 1893.57C1417.14 1898.27 1426.06 1902.32 1434.5 1905.38C1443.46 1908.64 1451.67 1911.12 1457.76 1910.69C1469.35 1910.1 1482.47 1900.87 1493.53 1889.72C1505.32 1877.84 1515.4 1863.77 1516.91 1851.5C1518.59 1839.07 1507.57 1821.36 1494.05 1806.18C1479.35 1789.68 1461.51 1775.75 1447.88 1776.01Z" fill="#3C3C3C"/>
<path fill-rule="evenodd" clip-rule="evenodd" d="M1214.89 1963.2C1238.76 1981.27 1243.25 2058.79 1221.63 2079.49C1200.01 2100.19 1142.1 2106.58 1118.23 2088.52C1094.36 2070.45 1066.87 1994.07 1088.49 1973.37C1110.12 1952.67 1191.03 1945.14 1214.89 1963.2Z" fill="#F2EFD5"/>
<path fill-rule="evenodd" clip-rule="evenodd" d="M1214.89 1963.2C1238.76 1981.27 1243.25 2058.79 1221.63 2079.49C1200.01 2100.19 1142.1 2106.58 1118.23 2088.52C1094.36 2070.45 1066.87 1994.07 1088.49 1973.37C1110.12 1952.67 1191.03 1945.14 1214.89 1963.2ZM1211.55 1967.62C1199.83 1960.1 1175.44 1960.61 1151.53 1964.41C1129.36 1967.92 1107.56 1974.63 1098.82 1984.15C1096.15 1986.98 1096.79 1991.81 1096.92 1997.14C1097.17 2006.72 1100.08 2017.85 1103.86 2028.91C1106.98 2038.03 1110.91 2047 1115.14 2054.92C1119.63 2063.33 1124.08 2070.66 1128.9 2074.41C1137.92 2081.72 1153.85 2083.62 1169.52 2082.72C1186.24 2081.76 1203.13 2078.03 1212.46 2069.91C1222.01 2061.79 1225.65 2041.24 1225.74 2020.91C1225.83 1998.82 1221.86 1976.53 1211.55 1967.62Z" fill="#3C3C3C"/>
<path fill-rule="evenodd" clip-rule="evenodd" d="M1083.96 1997.54C1098.26 2023.84 1070.41 2096.33 1042.18 2106.27C1013.95 2116.23 958.546 2098.19 944.243 2071.9C929.939 2045.61 936.366 1964.68 964.596 1954.72C992.825 1944.77 1069.65 1971.25 1083.96 1997.54Z" fill="#F2EFD5"/>
<path fill-rule="evenodd" clip-rule="evenodd" d="M1083.96 1997.54C1098.26 2023.84 1070.41 2096.33 1042.18 2106.27C1013.95 2116.23 958.546 2098.19 944.243 2071.9C929.939 2045.61 936.366 1964.68 964.596 1954.72C992.825 1944.77 1069.65 1971.25 1083.96 1997.54ZM1079.09 2000.19C1071.51 1988.51 1049.08 1978.93 1025.73 1972.54C1004.07 1966.6 981.444 1963.73 969.557 1968.81C965.968 1970.28 964.553 1974.94 962.48 1979.86C958.756 1988.69 956.82 2000.03 955.71 2011.66C954.794 2021.26 954.683 2031.05 955.273 2040.01C955.899 2049.53 956.931 2058.04 959.782 2063.45C964.984 2073.82 978.715 2082.11 993.37 2087.75C1008.99 2093.76 1025.93 2097.33 1037.77 2093.77C1049.82 2090.31 1061.6 2073.09 1070.06 2054.6C1079.24 2034.5 1084.81 2012.56 1079.09 2000.19Z" fill="#3C3C3C"/>
<path fill-rule="evenodd" clip-rule="evenodd" d="M916.561 1910.15C917.881 1949.41 823.186 2007.52 783.97 2005.27C744.758 2003.01 694.376 1952.01 693.051 1912.76C691.727 1873.5 755.738 1783.36 794.954 1785.62C834.165 1787.87 915.237 1870.9 916.561 1910.15Z" fill="#F2EFD5"/>
<path fill-rule="evenodd" clip-rule="evenodd" d="M916.561 1910.15C917.881 1949.41 823.186 2007.52 783.97 2005.27C744.758 2003.01 694.376 1952.01 693.051 1912.76C691.727 1873.5 755.738 1783.36 794.954 1785.62C834.165 1787.87 915.237 1870.9 916.561 1910.15ZM911.027 1910.34C909.335 1891.83 887.491 1864.79 862.26 1841.53C838.496 1819.62 811.592 1800.83 794.085 1800.66C789.309 1800.57 784.411 1803.5 779.004 1807.04C766.275 1815.37 753.344 1829.93 741.828 1845.8C732.16 1859.12 723.656 1873.49 717.873 1886.71C713.618 1896.43 710.489 1905.22 710.632 1912.16C710.774 1928.27 721.591 1946.65 735.638 1961.78C750.168 1977.44 768.149 1990.3 784.743 1991.84C805.364 1993.93 843.138 1977.79 872.099 1957.52C893.528 1942.52 910.792 1925.67 911.027 1910.34Z" fill="#3C3C3C"/>
<path d="M617.6 981.296C692.07 981.296 752.439 928.127 752.439 862.54C752.439 796.952 692.07 743.783 617.6 743.783C543.131 743.783 482.762 796.952 482.762 862.54C482.762 928.127 543.131 981.296 617.6 981.296Z" fill="#EBE7C0"/>
<path fill-rule="evenodd" clip-rule="evenodd" d="M617.6 743.783C692.021 743.783 752.44 796.995 752.44 862.54C752.44 928.083 692.021 981.29 617.6 981.29C543.181 981.29 482.762 928.083 482.762 862.54C482.762 796.995 543.181 743.783 617.6 743.783ZM617.6 749.317C583.859 750.946 553.896 764.05 531.922 783.948C509.457 804.288 495.962 832.152 497.213 862.54C498.059 891.904 513.493 917.489 536.369 935.753C557.854 952.907 586.274 963.565 617.6 963.381C649.09 963.955 677.908 953.81 699.616 936.701C722.902 918.35 738.385 892.281 739.25 862.54C740.367 831.848 726.594 803.741 703.779 783.345C681.628 763.542 651.43 750.685 617.6 749.317Z" fill="#3C3C3C"/>
<path d="M1531.65 981.148C1583.88 981.148 1626.22 941.449 1626.22 892.478C1626.22 843.507 1583.88 803.809 1531.65 803.809C1479.42 803.809 1437.07 843.507 1437.07 892.478C1437.07 941.449 1479.42 981.148 1531.65 981.148Z" fill="#EBE7C0"/>
<path fill-rule="evenodd" clip-rule="evenodd" d="M1531.65 803.809C1583.84 803.809 1626.22 843.54 1626.22 892.478C1626.22 941.416 1583.84 981.143 1531.65 981.143C1479.45 981.143 1437.07 941.416 1437.07 892.478C1437.07 843.54 1479.45 803.809 1531.65 803.809ZM1531.65 809.344C1508.13 810.916 1487.62 821.243 1472.83 836.451C1458.46 851.216 1450.3 871.054 1451.53 892.478C1452.34 912.892 1462.68 930.506 1477.52 943.339C1491.77 955.673 1510.7 963.404 1531.65 963.232C1552.76 963.766 1572.12 956.562 1586.6 944.25C1601.81 931.322 1612.19 913.253 1613.03 892.478C1614.12 870.767 1605.67 850.703 1590.99 835.872C1576.02 820.748 1555.25 810.665 1531.65 809.344Z" fill="#3C3C3C"/>
<path d="M1505.36 934.692C1515.44 934.692 1523.61 926.511 1523.61 916.419C1523.61 906.328 1515.44 898.146 1505.36 898.146C1495.28 898.146 1487.11 906.328 1487.11 916.419C1487.11 926.511 1495.28 934.692 1505.36 934.692Z" fill="#EBE7C0"/>
<path fill-rule="evenodd" clip-rule="evenodd" d="M1505.36 898.146C1515.44 898.146 1523.61 906.334 1523.61 916.419C1523.61 926.504 1515.44 934.691 1505.36 934.691C1495.29 934.691 1487.11 926.504 1487.11 916.419C1487.11 906.334 1495.29 898.146 1505.36 898.146ZM1505.36 903.681C1502.66 904.598 1501.74 907.107 1500.18 909.256C1499.13 910.707 1500.29 912.527 1500.11 914.339C1500.03 915.193 1501.33 915.54 1501.56 916.419C1501.74 917.216 1503.23 916.655 1503.67 917.277C1504.03 917.779 1504.71 916.827 1505.36 916.777C1506.27 916.899 1506.91 918.58 1507.52 917.987C1508.32 917.21 1510.18 917.593 1510.43 916.419C1511.15 913.602 1512.61 910.845 1510.92 908.74C1509.3 906.729 1508.03 904.438 1505.36 903.681Z" fill="#3C3C3C"/>
<path d="M678.491 928.337C688.571 928.337 696.743 920.156 696.743 910.064C696.743 899.972 688.571 891.791 678.491 891.791C668.41 891.791 660.238 899.972 660.238 910.064C660.238 920.156 668.41 928.337 678.491 928.337Z" fill="#EBE7C0"/>
<path fill-rule="evenodd" clip-rule="evenodd" d="M678.491 891.791C688.565 891.791 696.743 899.979 696.743 910.064C696.743 920.149 688.565 928.336 678.491 928.336C668.417 928.336 660.238 920.149 660.238 910.064C660.238 899.979 668.417 891.791 678.491 891.791ZM678.491 897.326C675.788 898.242 674.872 900.752 673.314 902.9C672.261 904.352 673.417 906.171 673.241 907.983C673.158 908.838 674.455 909.185 674.69 910.064C674.866 910.861 676.355 910.299 676.799 910.922C677.157 911.423 677.835 910.472 678.491 910.421C679.396 910.543 680.038 912.224 680.646 911.632C681.445 910.854 683.308 911.238 683.554 910.064C684.275 907.246 685.738 904.489 684.044 902.384C682.427 900.374 681.159 898.082 678.491 897.326Z" fill="#3C3C3C"/>
</svg>
