<svg width="2160" height="2700" viewBox="0 0 2160 2700" fill="none" xmlns="http://www.w3.org/2000/svg">
<g clip-path="url(#clip0_1998_637)">
<path fill-rule="evenodd" clip-rule="evenodd" d="M457.802 2340.16C502.668 2403.94 548.442 2456.11 463.79 2497.3C401.895 2527.41 274.923 2541.06 217.413 2452.31C135.706 2326.22 75.0657 2160.96 121.088 1960.1C153.411 1819.03 151.891 1682.39 218.455 1579.98C340.481 1392.25 346.906 1416.33 346.906 1416.33C379.776 1388.91 596.178 1585.59 515.166 1721.25C461.929 1810.4 285.099 2094.66 457.802 2340.16Z" fill="#777777"/>
<mask id="mask0_1998_637" style="mask-type:luminance" maskUnits="userSpaceOnUse" x="105" y="1413" width="429" height="1108">
<path d="M457.802 2340.16C502.668 2403.94 548.442 2456.11 463.79 2497.3C401.895 2527.41 274.923 2541.06 217.413 2452.31C135.706 2326.22 75.0657 2160.96 121.088 1960.1C153.411 1819.03 151.891 1682.39 218.455 1579.98C340.481 1392.25 346.906 1416.33 346.906 1416.33C379.776 1388.91 596.178 1585.59 515.166 1721.25C461.929 1810.4 285.099 2094.66 457.802 2340.16Z" fill="white"/>
</mask>
<g mask="url(#mask0_1998_637)">
<path d="M280.893 2017.43C295.815 2017.43 307.911 2004.66 307.911 1988.91C307.911 1973.16 295.815 1960.39 280.893 1960.39C265.971 1960.39 253.875 1973.16 253.875 1988.91C253.875 2004.66 265.971 2017.43 280.893 2017.43Z" fill="#9F970D"/>
<path fill-rule="evenodd" clip-rule="evenodd" d="M280.893 1958.91C280.964 1958.91 293.583 1958.1 302.825 1969.48C315.327 1984.87 310.117 2008.61 292.51 2016.79C276.049 2024.44 257.037 2014.38 252.9 1996.1C248.628 1977.22 262.14 1959.26 280.157 1958.92C280.402 1958.91 280.648 1958.91 280.893 1958.91ZM280.893 1960.4C265.982 1960.4 253.876 1973.17 253.876 1988.91C253.876 2004.66 265.982 2017.43 280.893 2017.43C295.805 2017.43 307.911 2004.66 307.911 1988.91C307.911 1973.17 295.805 1960.4 280.893 1960.4Z" fill="#282603"/>
<path d="M280.979 2005.19C290.335 2005.19 297.919 1997.86 297.919 1988.83C297.919 1979.8 290.335 1972.48 280.979 1972.48C271.623 1972.48 264.039 1979.8 264.039 1988.83C264.039 1997.86 271.623 2005.19 280.979 2005.19Z" fill="#9F970D"/>
<path fill-rule="evenodd" clip-rule="evenodd" d="M280.978 1970.99C282.589 1971.01 288.247 1970.99 293.611 1975.64C303.061 1983.86 301.335 1999.22 289.533 2005.11C277.406 2011.16 262.887 2002.89 262.299 1989.77C262.094 1985.2 263.653 1980.81 266.659 1977.36C272.629 1970.52 280.861 1971 280.978 1970.99ZM280.978 1972.48C271.629 1972.48 264.038 1979.81 264.038 1988.83C264.038 1997.86 271.629 2005.19 280.978 2005.19C290.328 2005.19 297.918 1997.86 297.918 1988.83C297.918 1979.81 290.328 1972.48 280.978 1972.48Z" fill="#282603"/>
<path d="M280.854 1927.31C295.776 1927.31 307.872 1914.54 307.872 1898.79C307.872 1883.04 295.776 1870.27 280.854 1870.27C265.932 1870.27 253.836 1883.04 253.836 1898.79C253.836 1914.54 265.932 1927.31 280.854 1927.31Z" fill="#9F970D"/>
<path fill-rule="evenodd" clip-rule="evenodd" d="M280.854 1868.79C280.925 1868.79 293.544 1867.98 302.786 1879.36C315.288 1894.75 310.078 1918.49 292.471 1926.67C276.01 1934.32 256.998 1924.26 252.861 1905.98C248.589 1887.1 262.101 1869.14 280.118 1868.8C280.363 1868.79 280.609 1868.79 280.854 1868.79ZM280.854 1870.28C265.943 1870.28 253.837 1883.05 253.837 1898.79C253.837 1914.54 265.943 1927.31 280.854 1927.31C295.766 1927.31 307.872 1914.54 307.872 1898.79C307.872 1883.05 295.766 1870.28 280.854 1870.28Z" fill="#282603"/>
<path d="M280.94 1915.06C290.296 1915.06 297.88 1907.74 297.88 1898.71C297.88 1889.68 290.296 1882.35 280.94 1882.35C271.584 1882.35 264 1889.68 264 1898.71C264 1907.74 271.584 1915.06 280.94 1915.06Z" fill="#9F970D"/>
<path fill-rule="evenodd" clip-rule="evenodd" d="M280.939 1880.87C282.55 1880.88 288.208 1880.86 293.572 1885.52C303.022 1893.73 301.296 1909.1 289.494 1914.98C277.367 1921.03 262.848 1912.76 262.26 1899.64C262.055 1895.08 263.614 1890.69 266.62 1887.24C272.59 1880.4 280.822 1880.87 280.939 1880.87ZM280.939 1882.36C271.59 1882.36 263.999 1889.68 263.999 1898.71C263.999 1907.74 271.59 1915.06 280.939 1915.06C290.289 1915.06 297.879 1907.74 297.879 1898.71C297.879 1889.68 290.289 1882.36 280.939 1882.36Z" fill="#282603"/>
<path d="M327.608 2088.54C342.529 2088.54 354.626 2075.77 354.626 2060.02C354.626 2044.27 342.529 2031.5 327.608 2031.5C312.686 2031.5 300.59 2044.27 300.59 2060.02C300.59 2075.77 312.686 2088.54 327.608 2088.54Z" fill="#9F970D"/>
<path fill-rule="evenodd" clip-rule="evenodd" d="M327.608 2030.02C327.679 2030.02 340.298 2029.21 349.54 2040.59C362.042 2055.98 356.832 2079.72 339.225 2087.9C322.764 2095.55 303.752 2085.49 299.615 2067.21C295.343 2048.33 308.855 2030.37 326.872 2030.03C327.117 2030.02 327.363 2030.02 327.608 2030.02ZM327.608 2031.51C312.697 2031.51 300.591 2044.28 300.591 2060.02C300.591 2075.77 312.697 2088.54 327.608 2088.54C342.52 2088.54 354.626 2075.77 354.626 2060.02C354.626 2044.28 342.52 2031.51 327.608 2031.51Z" fill="#282603"/>
<path d="M327.694 2076.29C337.05 2076.29 344.634 2068.97 344.634 2059.94C344.634 2050.91 337.05 2043.58 327.694 2043.58C318.338 2043.58 310.754 2050.91 310.754 2059.94C310.754 2068.97 318.338 2076.29 327.694 2076.29Z" fill="#9F970D"/>
<path fill-rule="evenodd" clip-rule="evenodd" d="M327.693 2042.1C329.304 2042.11 334.962 2042.09 340.326 2046.75C349.776 2054.96 348.049 2070.33 336.248 2076.21C324.121 2082.26 309.602 2073.99 309.014 2060.87C308.809 2056.31 310.368 2051.92 313.374 2048.47C319.344 2041.63 327.576 2042.1 327.693 2042.1ZM327.693 2043.59C318.344 2043.59 310.753 2050.91 310.753 2059.94C310.753 2068.97 318.344 2076.29 327.693 2076.29C337.043 2076.29 344.633 2068.97 344.633 2059.94C344.633 2050.91 337.043 2043.59 327.693 2043.59Z" fill="#282603"/>
<path d="M335.498 2183.95C350.42 2183.95 362.516 2171.18 362.516 2155.43C362.516 2139.68 350.42 2126.91 335.498 2126.91C320.577 2126.91 308.48 2139.68 308.48 2155.43C308.48 2171.18 320.577 2183.95 335.498 2183.95Z" fill="#9F970D"/>
<path fill-rule="evenodd" clip-rule="evenodd" d="M335.498 2125.43C335.569 2125.43 348.188 2124.62 357.43 2136C369.932 2151.39 364.722 2175.13 347.115 2183.31C330.654 2190.96 311.642 2180.9 307.505 2162.62C303.233 2143.74 316.745 2125.78 334.762 2125.44C335.007 2125.43 335.253 2125.43 335.498 2125.43ZM335.498 2126.92C320.587 2126.92 308.481 2139.69 308.481 2155.43C308.481 2171.18 320.587 2183.95 335.498 2183.95C350.41 2183.95 362.516 2171.18 362.516 2155.43C362.516 2139.69 350.41 2126.92 335.498 2126.92Z" fill="#282603"/>
<path d="M335.585 2171.71C344.94 2171.71 352.525 2164.39 352.525 2155.35C352.525 2146.32 344.94 2139 335.585 2139C326.229 2139 318.645 2146.32 318.645 2155.35C318.645 2164.39 326.229 2171.71 335.585 2171.71Z" fill="#9F970D"/>
<path fill-rule="evenodd" clip-rule="evenodd" d="M335.583 2137.51C337.195 2137.52 342.853 2137.51 348.217 2142.16C357.666 2150.37 355.94 2165.74 344.139 2171.63C332.011 2177.68 317.493 2169.41 316.905 2156.29C316.7 2151.72 318.258 2147.33 321.264 2143.88C327.234 2137.04 335.466 2137.52 335.583 2137.51ZM335.583 2139C326.234 2139 318.644 2146.33 318.644 2155.35C318.644 2164.38 326.234 2171.71 335.583 2171.71C344.933 2171.71 352.524 2164.38 352.524 2155.35C352.524 2146.33 344.933 2139 335.583 2139Z" fill="#282603"/>
<path d="M372.948 2281.35C387.869 2281.35 399.966 2268.58 399.966 2252.83C399.966 2237.08 387.869 2224.31 372.948 2224.31C358.026 2224.31 345.93 2237.08 345.93 2252.83C345.93 2268.58 358.026 2281.35 372.948 2281.35Z" fill="#9F970D"/>
<path fill-rule="evenodd" clip-rule="evenodd" d="M372.947 2222.83C373.018 2222.83 385.637 2222.02 394.879 2233.4C407.381 2248.79 402.171 2272.53 384.564 2280.71C368.104 2288.36 349.092 2278.3 344.955 2260.02C340.683 2241.14 354.194 2223.18 372.211 2222.84C372.456 2222.83 372.702 2222.83 372.947 2222.83ZM372.947 2224.32C358.037 2224.32 345.931 2237.09 345.931 2252.83C345.931 2268.58 358.037 2281.35 372.947 2281.35C387.859 2281.35 399.965 2268.58 399.965 2252.83C399.965 2237.09 387.859 2224.32 372.947 2224.32Z" fill="#282603"/>
<path d="M373.034 2269.1C382.39 2269.1 389.974 2261.78 389.974 2252.75C389.974 2243.72 382.39 2236.39 373.034 2236.39C363.678 2236.39 356.094 2243.72 356.094 2252.75C356.094 2261.78 363.678 2269.1 373.034 2269.1Z" fill="#9F970D"/>
<path fill-rule="evenodd" clip-rule="evenodd" d="M373.033 2234.91C374.644 2234.92 380.302 2234.9 385.666 2239.56C395.115 2247.77 393.389 2263.14 381.588 2269.02C369.461 2275.07 354.942 2266.8 354.354 2253.68C354.149 2249.12 355.708 2244.72 358.713 2241.28C364.684 2234.44 372.915 2234.91 373.033 2234.91ZM373.033 2236.4C363.684 2236.4 356.093 2243.72 356.093 2252.75C356.093 2261.78 363.684 2269.1 373.033 2269.1C382.382 2269.1 389.973 2261.78 389.973 2252.75C389.973 2243.72 382.382 2236.4 373.033 2236.4Z" fill="#282603"/>
<path d="M354.721 1999.39C369.643 1999.39 381.739 1986.62 381.739 1970.87C381.739 1955.12 369.643 1942.35 354.721 1942.35C339.799 1942.35 327.703 1955.12 327.703 1970.87C327.703 1986.62 339.799 1999.39 354.721 1999.39Z" fill="#9F970D"/>
<path fill-rule="evenodd" clip-rule="evenodd" d="M354.721 1940.87C354.792 1940.87 367.411 1940.06 376.653 1951.44C389.155 1966.83 383.945 1990.57 366.338 1998.75C349.877 2006.4 330.865 1996.34 326.728 1978.06C322.456 1959.18 335.968 1941.22 353.985 1940.88C354.23 1940.87 354.476 1940.87 354.721 1940.87ZM354.721 1942.36C339.81 1942.36 327.704 1955.13 327.704 1970.87C327.704 1986.62 339.81 1999.39 354.721 1999.39C369.633 1999.39 381.739 1986.62 381.739 1970.87C381.739 1955.13 369.633 1942.36 354.721 1942.36Z" fill="#282603"/>
<path d="M354.807 1987.14C364.163 1987.14 371.748 1979.82 371.748 1970.79C371.748 1961.76 364.163 1954.44 354.807 1954.44C345.452 1954.44 337.867 1961.76 337.867 1970.79C337.867 1979.82 345.452 1987.14 354.807 1987.14Z" fill="#9F970D"/>
<path fill-rule="evenodd" clip-rule="evenodd" d="M354.806 1952.95C356.418 1952.96 362.076 1952.94 367.439 1957.6C376.889 1965.81 375.163 1981.18 363.361 1987.06C351.234 1993.11 336.715 1984.84 336.127 1971.72C335.922 1967.16 337.481 1962.77 340.487 1959.32C346.457 1952.48 354.689 1952.96 354.806 1952.95ZM354.806 1954.44C345.457 1954.44 337.867 1961.76 337.867 1970.79C337.867 1979.82 345.457 1987.14 354.806 1987.14C364.156 1987.14 371.746 1979.82 371.746 1970.79C371.746 1961.76 364.156 1954.44 354.806 1954.44Z" fill="#282603"/>
</g>
<path fill-rule="evenodd" clip-rule="evenodd" d="M457.802 2340.16C502.668 2403.94 548.442 2456.11 463.79 2497.3C401.895 2527.41 274.923 2541.06 217.413 2452.31C135.706 2326.22 75.0657 2160.96 121.088 1960.1C153.411 1819.03 151.891 1682.39 218.455 1579.98C340.481 1392.25 346.906 1416.33 346.906 1416.33C379.776 1388.91 596.178 1585.59 515.166 1721.25C461.929 1810.4 285.099 2094.66 457.802 2340.16Z" stroke="black" stroke-width="18" stroke-miterlimit="2" stroke-linejoin="round"/>
<path fill-rule="evenodd" clip-rule="evenodd" d="M386.801 2021.38C382.189 2132.09 391.968 2216.03 437.277 2316.23C363.489 2286.21 276.051 2200.22 199.453 2104.55C198.303 2111.86 171.117 2004.07 171.117 2004.07C130.844 1866.26 152.291 1744.63 188.176 1626.79L334.532 1425L477.638 1742.76L386.801 2021.38Z" fill="black" fill-opacity="0.3"/>
<path fill-rule="evenodd" clip-rule="evenodd" d="M447.219 2090.97C446.589 2084.88 161.668 1818.75 179.601 1509.41C183.349 1444.77 190.021 1384.43 207.895 1334.24C278.252 1063.02 584.712 870.111 853.24 812.93C963.401 789.471 1179.66 778.568 1304.76 799.311C1544.83 839.118 1831.36 1028.59 1942.91 1224.04C1984.73 1281.74 2016.96 1403.38 2020.22 1508.09C2030.08 1824.83 1816.77 2068.95 1792.23 2069.99C1748.79 2407.42 1412.8 2620.39 1079.21 2620.39C744.033 2620.39 476.386 2372.72 447.219 2090.97ZM1082.49 885.248C797.884 885.248 566.82 1148.41 566.82 1472.55C566.82 1796.7 797.884 2059.86 1082.49 2059.86C1367.1 2059.86 1598.17 1796.7 1598.17 1472.55C1598.17 1148.41 1367.1 885.248 1082.49 885.248Z" fill="#8D8D8D" stroke="black" stroke-width="16.178" stroke-miterlimit="1.5" stroke-linecap="round" stroke-linejoin="round"/>
<path fill-rule="evenodd" clip-rule="evenodd" d="M1440.57 2029.97C1440.57 2029.97 1535.02 2003.98 1559.98 2024C1600.27 2056.32 1615.56 2263.53 1615.56 2263.53C1615.56 2263.53 1606.95 2044.73 1578.67 2003.56C1564.29 1982.63 1440.57 2029.97 1440.57 2029.97Z" fill="white"/>
<path fill-rule="evenodd" clip-rule="evenodd" d="M347.739 816.031C414.607 776.278 737.497 952.08 737.497 952.08L298.367 1247.98C298.367 1247.98 268.779 862.972 347.739 816.031Z" fill="#A4A4A4"/>
<path fill-rule="evenodd" clip-rule="evenodd" d="M347.739 816.031C414.607 776.278 737.497 952.08 737.497 952.08L298.367 1247.98C298.367 1247.98 268.779 862.972 347.739 816.031ZM353.871 826.345C346.127 830.95 340.023 839.817 334.639 851.357C325.16 871.673 318.669 899.83 314.134 931.721C299.566 1034.17 305.849 1174.2 308.961 1226.36L714.231 953.281C670.084 930.081 551.143 869.463 457.729 839.306C428.575 829.895 402.01 823.437 381.237 822.338C369.73 821.73 360.286 822.532 353.871 826.345Z" fill="black"/>
<path fill-rule="evenodd" clip-rule="evenodd" d="M341.277 846.884C341.277 846.884 376.902 824.631 388.7 827.455C407.488 831.953 457.765 846.456 506.602 866.258C576.348 894.54 646.521 929.832 646.521 929.832C646.521 929.832 554.32 891.119 478.493 865.144C442.141 852.692 407.198 846.125 392.415 842.586C375.779 838.604 341.277 846.884 341.277 846.884Z" fill="white"/>
<path fill-rule="evenodd" clip-rule="evenodd" d="M385.937 887.601C435.497 858.981 664.706 968.55 664.706 968.55L338.282 1179.97C338.282 1179.97 327.415 921.395 385.937 887.601Z" fill="#A4A4A4"/>
<path fill-rule="evenodd" clip-rule="evenodd" d="M385.937 887.601C435.497 858.981 664.706 968.55 664.706 968.55L338.282 1179.97C338.282 1179.97 327.415 921.395 385.937 887.601ZM391.938 897.992C386.58 901.087 382.26 906.886 378.32 914.283C371.039 927.954 365.699 946.743 361.618 967.924C349.155 1032.62 348.988 1118.91 349.695 1158.27L639.929 970.298C604.331 954.139 526.998 920.536 464.928 904.063C444.34 898.599 425.52 895.005 410.698 894.838C402.882 894.75 396.402 895.415 391.938 897.992Z" fill="black"/>
<path fill-rule="evenodd" clip-rule="evenodd" d="M1821.67 824.001C1754.8 784.248 1431.91 960.051 1431.91 960.051L1871.04 1255.95C1871.04 1255.95 1900.63 870.942 1821.67 824.001Z" fill="#A4A4A4"/>
<path fill-rule="evenodd" clip-rule="evenodd" d="M1821.67 824.001C1900.63 870.942 1871.04 1255.95 1871.04 1255.95L1431.91 960.051C1431.91 960.051 1754.8 784.248 1821.67 824.001ZM1815.53 834.316C1809.12 830.503 1799.68 829.7 1788.17 830.309C1767.4 831.407 1740.83 837.865 1711.68 847.277C1618.26 877.434 1499.32 938.052 1455.17 961.252C1533.2 1013.84 1860.45 1234.33 1860.44 1234.34C1863.56 1182.17 1869.84 1042.14 1855.27 939.691C1850.74 907.801 1844.25 879.644 1834.77 859.328C1829.38 847.788 1823.28 838.92 1815.53 834.316Z" fill="black"/>
<path fill-rule="evenodd" clip-rule="evenodd" d="M1724.99 866.443C1724.99 866.443 1799.89 831.676 1823.05 853.087C1837.24 866.199 1843.36 946.602 1846.69 999.196C1851.45 1074.31 1850.07 1152.84 1850.07 1152.84C1850.07 1152.84 1844.98 1052.97 1835.51 973.383C1830.97 935.227 1825.17 881.414 1815.83 867.281C1806.39 853.012 1724.99 866.443 1724.99 866.443Z" fill="white"/>
<path fill-rule="evenodd" clip-rule="evenodd" d="M1786.56 890.62C1737 862 1507.79 971.569 1507.79 971.569L1834.21 1182.99C1834.21 1182.99 1845.08 924.415 1786.56 890.62Z" fill="#A4A4A4"/>
<path fill-rule="evenodd" clip-rule="evenodd" d="M1786.56 890.62C1845.08 924.415 1834.21 1182.99 1834.21 1182.99L1507.79 971.569C1507.79 971.569 1737 862 1786.56 890.62ZM1780.56 901.012C1776.09 898.434 1769.61 897.77 1761.8 897.858C1746.98 898.025 1728.16 901.618 1707.57 907.082C1645.5 923.556 1568.17 957.158 1532.57 973.318L1822.8 1161.29C1823.51 1121.93 1823.34 1035.64 1810.88 970.944C1806.8 949.763 1801.46 930.973 1794.18 917.302C1790.24 909.906 1785.92 904.106 1780.56 901.012Z" fill="black"/>
<path fill-rule="evenodd" clip-rule="evenodd" d="M1356.8 1021.61C1356.8 1021.61 1525.22 1227.56 1524.7 1359.24C1523.8 1587.83 1415.96 1824.39 1415.96 1824.39C1513.16 1530.36 1463.27 1254.42 1356.8 1021.61Z" fill="white"/>
<path fill-rule="evenodd" clip-rule="evenodd" d="M1081.47 844.879C1387.47 844.879 1636.97 1125.91 1636.97 1473.21C1636.97 1820.51 1387.47 2101.54 1081.47 2101.54C775.464 2101.54 525.961 1820.51 525.961 1473.21C525.961 1125.91 775.464 844.879 1081.47 844.879ZM1081.47 876.776C791.89 876.776 557.858 1144.55 557.858 1473.21C557.858 1801.88 791.89 2069.65 1081.47 2069.65C1371.05 2069.65 1605.08 1801.88 1605.08 1473.21C1605.08 1144.55 1371.05 876.776 1081.47 876.776Z" fill="#808080" stroke="white" stroke-width="7.00056" stroke-miterlimit="2" stroke-linejoin="round"/>
<path fill-rule="evenodd" clip-rule="evenodd" d="M1585.7 896.02L1501.38 963.875L1619.74 1065.1L1421.6 942.267L1507.26 897.097L1585.7 896.02Z" fill="black" fill-opacity="0.3"/>
<path fill-rule="evenodd" clip-rule="evenodd" d="M1789.7 896.945C1818.98 944.56 1826.79 1052.31 1831.28 1169.36L1709.67 1092.84C1783.03 1061.82 1804.54 992.733 1789.7 896.945Z" fill="black" fill-opacity="0.3"/>
<path fill-rule="evenodd" clip-rule="evenodd" d="M334.043 845.227C323.043 974.914 302.623 1059.62 342.146 1183.22L526.766 1039.88C505.477 975.257 466.03 917.173 392.272 883.282L649.072 956.291L623.737 1021.26C461.295 1165.29 329.853 1319.55 272.105 1427.44C235.984 1748.45 405.265 1811.54 514.72 1970.85L528.516 2128.32L547.459 2258.04C600.282 2382.84 677.73 2499.67 1010.93 2533.84C1151.82 2621.71 1331.14 2567.91 1519.31 2481.53C1283.84 2705.23 746.5 2679.17 508.328 2302.17L446.313 2084.83C-8.34329 1545.58 200.945 1326.83 291.385 1149.91C288.182 994.193 302.463 892.824 334.043 845.227Z" fill="black" fill-opacity="0.3"/>
<path fill-rule="evenodd" clip-rule="evenodd" d="M1910.61 1589.41C1938.12 1576.83 1977.62 1581.92 1987.73 1625.51C1983.34 1641.82 1978.61 1657.85 1973.52 1673.68C1962.52 1680.48 1949.01 1683.44 1942.74 1685.02C1931.48 1678.58 1905.74 1664.62 1891.97 1647.16C1898.68 1628.12 1904.91 1608.85 1910.61 1589.41ZM1815.04 1990.83C1788.09 1962.87 1768.58 1934.57 1756.88 1921.92C1757.53 1920.29 1758.57 1917.5 1759.91 1913.95C1772.63 1894.55 1785.1 1874.28 1797.17 1853.26C1797.84 1852.97 1798.52 1852.72 1799.2 1852.52C1819.16 1846.82 1830.5 1892.04 1833.06 1901.68C1846.95 1898.89 1863.33 1895.52 1874.9 1893.12C1867.6 1905.92 1859.98 1918.86 1852.03 1931.98L1824.84 1925.66L1816.24 1936.32C1825.85 1942.33 1834.44 1947.66 1840.22 1951.23C1832.15 1964.21 1823.76 1977.4 1815.04 1990.83ZM1883.67 1669.99C1889.86 1669.86 1895.94 1673.47 1900.84 1681.05C1907.84 1691.88 1913.26 1720.3 1915.1 1735.67C1918.17 1735.46 1935.25 1734.34 1952.22 1733.52C1945.92 1749.59 1939.21 1765.57 1932.03 1781.55C1899.9 1768.91 1869.56 1757.35 1852.73 1750.94C1852.6 1749.09 1852.49 1747.27 1852.4 1745.48C1863.56 1720.88 1874.03 1695.67 1883.67 1669.99ZM1884.27 1876.48C1856.08 1858.3 1829.34 1840.69 1817.43 1832.84C1820.53 1812.47 1837.45 1777.52 1839.54 1773.34C1841.79 1773.48 1850.72 1774.01 1867.66 1774.94C1865.79 1778.53 1856.11 1797.2 1843.54 1819.42L1857.82 1824.06C1862.38 1809.99 1865.88 1798.56 1866.56 1796.34L1888.53 1803.47C1887.8 1805.5 1884.02 1816.08 1879.25 1828.83L1891.04 1832.83C1896.39 1813.59 1900.46 1797.88 1901.25 1794.83L1921.07 1805.24C1909.85 1828.76 1897.61 1852.4 1884.27 1876.48ZM1879.25 1734.59L1893.76 1735.83C1896.35 1725.82 1897.59 1708.68 1888.49 1708.22C1880.04 1707.79 1879.32 1732.35 1879.25 1734.59ZM1940.58 1654.07C1946.19 1654.15 1953.1 1637.57 1953.78 1635.94C1951.21 1634.49 1924.83 1617.65 1919.84 1635.02C1919.04 1637.81 1928.83 1653.89 1940.58 1654.07ZM1782.05 1917.87L1795.46 1926.15C1800.79 1916.33 1808.17 1896.41 1799.55 1891.37C1793.55 1887.85 1785.64 1906.11 1782.05 1917.87Z" fill="#504C06"/>
<path fill-rule="evenodd" clip-rule="evenodd" d="M1910.61 1589.41C1938.12 1576.83 1977.62 1581.92 1987.73 1625.51C1983.34 1641.82 1978.61 1657.85 1973.52 1673.68C1962.52 1680.48 1949.01 1683.44 1942.74 1685.02C1931.48 1678.58 1905.74 1664.62 1891.97 1647.16C1898.68 1628.12 1904.91 1608.85 1910.61 1589.41ZM1913.51 1591.96C1908.1 1610.3 1902.23 1628.49 1895.92 1646.47C1909.15 1662.27 1932.03 1674.91 1943.25 1681.29C1949.53 1679.74 1960.91 1677.03 1970.59 1671.36C1975.42 1656.27 1979.92 1640.99 1984.12 1625.45C1980.25 1609.62 1972.27 1599.28 1962.34 1593.35C1947.6 1584.55 1928.77 1585.44 1913.51 1591.96ZM1940.53 1657.57C1931.1 1657.43 1922.57 1648.63 1918.73 1642.1C1917.48 1639.98 1916.72 1638.09 1916.45 1636.8L1916.3 1635.33L1916.48 1634.06C1917.54 1630.38 1919.39 1627.9 1921.65 1626.27C1924.9 1623.92 1929.16 1623.33 1933.68 1623.95C1943.13 1625.27 1953.87 1631.97 1955.5 1632.89C1957.05 1633.76 1957.69 1635.65 1957.01 1637.29C1956.51 1638.5 1952.74 1647.45 1948.5 1652.7C1945.96 1655.84 1943.02 1657.61 1940.53 1657.57ZM1940.58 1654.07C1946.19 1654.15 1953.1 1637.57 1953.78 1635.94C1951.21 1634.49 1924.83 1617.65 1919.84 1635.02C1919.04 1637.81 1928.83 1653.89 1940.58 1654.07ZM1815.04 1990.83C1788.09 1962.87 1768.58 1934.57 1756.88 1921.92C1757.53 1920.29 1758.57 1917.5 1759.91 1913.95C1772.63 1894.55 1785.1 1874.28 1797.17 1853.26C1797.84 1852.97 1798.52 1852.72 1799.2 1852.52C1819.16 1846.82 1830.5 1892.04 1833.06 1901.68C1846.95 1898.89 1863.33 1895.52 1874.9 1893.12C1867.6 1905.92 1859.98 1918.86 1852.03 1931.98L1824.84 1925.66L1816.24 1936.32C1825.85 1942.33 1834.44 1947.66 1840.22 1951.23C1832.15 1964.21 1823.76 1977.4 1815.04 1990.83ZM1814.51 1985.2C1821.7 1974.1 1828.66 1963.16 1835.39 1952.36C1829.81 1948.91 1822.46 1944.34 1814.38 1939.28C1813.54 1938.75 1812.96 1937.88 1812.79 1936.89C1812.63 1935.91 1812.89 1934.9 1813.52 1934.12L1822.12 1923.46C1822.96 1922.42 1824.33 1921.95 1825.63 1922.25L1850.35 1928C1856.42 1917.94 1862.3 1907.98 1868 1898.12C1857.46 1900.3 1844.81 1902.89 1833.75 1905.11C1831.94 1905.48 1830.15 1904.37 1829.68 1902.58C1828.18 1896.94 1823.65 1878.81 1816.03 1866.42C1813.7 1862.64 1811.12 1859.41 1808.18 1857.42C1805.75 1855.77 1803.09 1855.05 1800.16 1855.89C1799.97 1855.94 1799.78 1856 1799.59 1856.07C1787.74 1876.65 1775.52 1896.52 1763.05 1915.55C1762.21 1917.77 1761.5 1919.67 1760.92 1921.17C1772.29 1933.97 1790.23 1959.48 1814.51 1985.2ZM1778.69 1916.84C1781.35 1908.14 1786.37 1896.11 1791.25 1890.92C1794.63 1887.33 1798.23 1886.54 1801.32 1888.35C1804.87 1890.43 1806.7 1894.22 1806.97 1899.06C1807.45 1907.82 1802.52 1920.48 1798.54 1927.82C1798.08 1928.66 1797.29 1929.28 1796.36 1929.53C1795.43 1929.78 1794.44 1929.63 1793.62 1929.13L1780.2 1920.85C1778.85 1920.01 1778.23 1918.37 1778.69 1916.84ZM1782.05 1917.87L1795.46 1926.15C1800.79 1916.33 1808.17 1896.41 1799.55 1891.37C1793.55 1887.85 1785.64 1906.11 1782.05 1917.87ZM1883.67 1669.99C1889.86 1669.86 1895.94 1673.47 1900.84 1681.05C1907.84 1691.88 1913.26 1720.3 1915.1 1735.67C1918.17 1735.46 1935.25 1734.34 1952.22 1733.52C1945.92 1749.59 1939.21 1765.57 1932.03 1781.55C1899.9 1768.91 1869.56 1757.35 1852.73 1750.94C1852.6 1749.09 1852.49 1747.27 1852.4 1745.48C1863.56 1720.88 1874.03 1695.67 1883.67 1669.99ZM1886.03 1673.66C1876.72 1698.31 1866.64 1722.51 1855.94 1746.16C1855.98 1746.92 1856.02 1747.69 1856.07 1748.47C1872.67 1754.79 1900.51 1765.41 1930.2 1777.07C1936.1 1763.83 1941.68 1750.59 1946.97 1737.29C1931.96 1738.07 1918.07 1738.98 1915.33 1739.16C1913.47 1739.28 1911.85 1737.93 1911.63 1736.08C1909.83 1721.15 1904.7 1693.47 1897.9 1682.95C1894.42 1677.57 1890.34 1674.41 1886.03 1673.66ZM1875.75 1734.49C1875.8 1732.83 1876.26 1719.57 1879.57 1711.91C1881.59 1707.22 1884.82 1704.53 1888.67 1704.72C1893.9 1704.99 1897.13 1708.73 1898.43 1714.48C1899.9 1720.96 1898.82 1730.22 1897.14 1736.71C1896.72 1738.36 1895.16 1739.46 1893.46 1739.32L1878.95 1738.07C1877.1 1737.91 1875.7 1736.34 1875.75 1734.49ZM1879.25 1734.59L1893.76 1735.83C1896.35 1725.82 1897.59 1708.68 1888.49 1708.22C1880.04 1707.79 1879.32 1732.35 1879.25 1734.59ZM1884.27 1876.48C1856.08 1858.3 1829.34 1840.69 1817.43 1832.84C1820.53 1812.47 1837.45 1777.52 1839.54 1773.34C1841.79 1773.48 1850.72 1774.01 1867.66 1774.94C1865.79 1778.53 1856.11 1797.2 1843.54 1819.42L1857.82 1824.06C1862.38 1809.99 1865.88 1798.56 1866.56 1796.34L1888.53 1803.47C1887.8 1805.5 1884.02 1816.08 1879.25 1828.83L1891.04 1832.83C1896.39 1813.59 1900.46 1797.88 1901.25 1794.83L1921.07 1805.24C1909.85 1828.76 1897.61 1852.4 1884.27 1876.48ZM1883.02 1871.5C1895.06 1849.66 1906.18 1828.16 1916.45 1806.77L1903.53 1799.98C1901.82 1806.53 1898.48 1819.13 1894.41 1833.77C1894.15 1834.7 1893.52 1835.48 1892.67 1835.93C1891.82 1836.38 1890.82 1836.46 1889.91 1836.15L1878.12 1832.14C1877.23 1831.84 1876.49 1831.18 1876.09 1830.33C1875.68 1829.47 1875.64 1828.49 1875.97 1827.6C1879.44 1818.32 1882.39 1810.19 1884.01 1805.68L1868.86 1800.77C1867.36 1805.61 1864.55 1814.64 1861.15 1825.14C1860.86 1826.02 1860.24 1826.76 1859.41 1827.18C1858.58 1827.6 1857.62 1827.67 1856.74 1827.39L1842.46 1822.75C1841.46 1822.43 1840.66 1821.67 1840.28 1820.69C1839.9 1819.72 1839.98 1818.62 1840.5 1817.7C1850.11 1800.7 1858.04 1785.78 1862.05 1778.13C1851.79 1777.57 1845.13 1777.18 1841.66 1776.98C1837.61 1785.33 1824.71 1813.02 1821.26 1831.17C1833.46 1839.21 1857.43 1854.97 1883.02 1871.5Z" fill="black"/>
<path d="M280.045 1400.78C280.555 1402.13 277.394 1395.68 277.904 1397.03C289.215 1426.88 288.971 1426.22 299.636 1455.97" stroke="#292929" stroke-width="8.49999" stroke-miterlimit="1.5" stroke-linecap="round" stroke-linejoin="round"/>
<path d="M289.805 1424.75C295.323 1425.7 311.585 1412.48 316.575 1410.8" stroke="#292929" stroke-width="8.49999" stroke-miterlimit="1.5" stroke-linecap="round" stroke-linejoin="round"/>
<path d="M305.684 1371.06C316.482 1407.99 314.986 1416.37 330.498 1450.53" stroke="#292929" stroke-width="8.49999" stroke-miterlimit="1.5" stroke-linecap="round" stroke-linejoin="round"/>
<path d="M335.285 1377.94C336.364 1382.13 346.272 1420.61 352.103 1429.32C353.199 1430.96 355.952 1428.39 357.768 1427.63C368.529 1423.08 369.717 1425.12 375.969 1415.67" stroke="#292929" stroke-width="8.49999" stroke-miterlimit="1.5" stroke-linecap="round" stroke-linejoin="round"/>
<path d="M343.089 1407.48C341.736 1406.57 340.903 1404.89 356.001 1391.71" stroke="#292929" stroke-width="8.49999" stroke-miterlimit="1.5" stroke-linecap="round" stroke-linejoin="round"/>
<path d="M333.456 1378.2C331.863 1377.82 331.347 1375.99 348.256 1364.06" stroke="#292929" stroke-width="8.49999" stroke-miterlimit="1.5" stroke-linecap="round" stroke-linejoin="round"/>
<path d="M413.551 1330.13C414.63 1334.32 424.538 1372.8 430.369 1381.51C431.465 1383.15 434.218 1380.58 436.034 1379.82C446.795 1375.27 447.983 1377.31 454.235 1367.86" stroke="#292929" stroke-width="8.49999" stroke-miterlimit="1.5" stroke-linecap="round" stroke-linejoin="round"/>
<path d="M421.355 1359.67C420.002 1358.76 419.169 1357.08 434.267 1343.9" stroke="#292929" stroke-width="8.49999" stroke-miterlimit="1.5" stroke-linecap="round" stroke-linejoin="round"/>
<path d="M411.722 1330.39C410.129 1330.01 409.613 1328.18 426.522 1316.25" stroke="#292929" stroke-width="8.49999" stroke-miterlimit="1.5" stroke-linecap="round" stroke-linejoin="round"/>
<path d="M370.551 1350.48C377.777 1356.57 393.554 1407.11 396.94 1411.73" stroke="#292929" stroke-width="8.49999" stroke-miterlimit="1.5" stroke-linecap="round" stroke-linejoin="round"/>
<path d="M373.824 1350.66C373.847 1351.26 383.057 1335.71 392.277 1336.9C401.424 1338.08 387.134 1369.31 384.255 1375.88C387.584 1376.94 424.496 1388.75 422.824 1396.4" stroke="#292929" stroke-width="8.49999" stroke-miterlimit="1.5" stroke-linecap="round" stroke-linejoin="round"/>
<path d="M300.707 1503.22C297.332 1495.81 263.214 1569.15 296.678 1581.06C315.254 1587.66 313.584 1557.05 314.704 1547.88C319.731 1562.76 319.11 1562.66 327.287 1576.5C317.878 1563.5 316.649 1564.31 315.821 1557.97C314.284 1546.21 318.033 1547.18 319.656 1539.27C303.607 1552 300.983 1553.8 302.719 1553.46C303.713 1553.27 302.295 1553.62 301.021 1554.09" stroke="#292929" stroke-width="8.49999" stroke-miterlimit="1.5" stroke-linecap="round" stroke-linejoin="round"/>
<path d="M323.594 1500.18C325.767 1500.18 319.413 1505.37 336.521 1486.88" stroke="#292929" stroke-width="8.49999" stroke-miterlimit="1.5" stroke-linecap="round" stroke-linejoin="round"/>
<path d="M332.07 1497.03C329.767 1498.16 346.474 1545.6 345.8 1554.47" stroke="#292929" stroke-width="8.49999" stroke-miterlimit="1.5" stroke-linecap="round" stroke-linejoin="round"/>
<path d="M345.105 1561.27L353.858 1551.76" stroke="#292929" stroke-width="8.49999" stroke-miterlimit="1.5" stroke-linecap="round" stroke-linejoin="round"/>
<path d="M356.32 1486.07C355.949 1489.49 384.235 1463.24 389.383 1462.42" stroke="#292929" stroke-width="8.49999" stroke-miterlimit="1.5" stroke-linecap="round" stroke-linejoin="round"/>
<path d="M371.559 1480.19C387.371 1529.41 388.136 1529.46 387.306 1532" stroke="#292929" stroke-width="8.49999" stroke-miterlimit="1.5" stroke-linecap="round" stroke-linejoin="round"/>
<path d="M403.14 1460.94C402.769 1464.36 431.055 1438.11 436.203 1437.29" stroke="#292929" stroke-width="8.49999" stroke-miterlimit="1.5" stroke-linecap="round" stroke-linejoin="round"/>
<path d="M418.379 1455.06C434.191 1504.28 434.956 1504.33 434.126 1506.87" stroke="#292929" stroke-width="8.49999" stroke-miterlimit="1.5" stroke-linecap="round" stroke-linejoin="round"/>
<path d="M439.166 1422.68C438.973 1424.45 451.865 1439.03 461.014 1435.35C469.513 1431.94 474.207 1410.34 476.686 1409.94" stroke="#292929" stroke-width="8.49999" stroke-miterlimit="1.5" stroke-linecap="round" stroke-linejoin="round"/>
<path d="M461.988 1437.36C477.8 1486.57 475.437 1476.98 474.607 1479.52" stroke="#292929" stroke-width="8.49999" stroke-miterlimit="1.5" stroke-linecap="round" stroke-linejoin="round"/>
<path fill-rule="evenodd" clip-rule="evenodd" d="M1090.43 2164.84C1372.34 2164.84 1589.27 1794.04 1605.15 2271.79C1609.44 2400.78 1376.28 2505.64 1094.36 2505.64C812.445 2505.64 580.495 2400.82 583.565 2271.79C593.909 1837.1 808.514 2164.84 1090.43 2164.84Z" fill="black"/>
<path fill-rule="evenodd" clip-rule="evenodd" d="M1090.43 2164.84C1372.34 2164.84 1589.27 1794.04 1605.15 2271.79C1609.44 2400.78 1376.28 2505.64 1094.36 2505.64C812.445 2505.64 580.495 2400.82 583.565 2271.79C593.909 1837.1 808.514 2164.84 1090.43 2164.84ZM1090.43 2176.85C975.923 2176.85 872.238 2123.99 788.504 2088.34C758.498 2075.57 731.186 2065.07 706.959 2060.59C685.306 2056.59 666.372 2057.37 650.686 2067.17C634.525 2077.27 622.235 2096.49 613.048 2127.38C602.986 2161.22 597.08 2208.26 595.562 2272.07C594.42 2320.08 629.401 2363.66 687.192 2399.66C778.946 2456.81 927.836 2493.65 1094.36 2493.65C1260.89 2493.65 1410.21 2456.8 1502.06 2399.65C1559.86 2363.67 1594.75 2320.14 1593.15 2272.19C1590.36 2188.11 1581.43 2130.86 1566.67 2093.59C1557.79 2071.16 1547.01 2056.46 1533.85 2048.16C1517.79 2038.02 1498.55 2037.86 1476.67 2042.91C1452.04 2048.59 1424.38 2060.91 1394.09 2075.68C1309.4 2116.99 1205.12 2176.85 1090.43 2176.85Z" fill="#EBE7C0" fill-opacity="0.64"/>
<path d="M803 2402.72C858.629 2402.72 903.726 2338.03 903.726 2258.24C903.726 2178.44 858.629 2113.75 803 2113.75C747.37 2113.75 702.273 2178.44 702.273 2258.24C702.273 2338.03 747.37 2402.72 803 2402.72Z" fill="#2AB6E9"/>
<path fill-rule="evenodd" clip-rule="evenodd" d="M803 2113.75C858.592 2113.75 903.726 2178.49 903.726 2258.24C903.726 2337.98 858.592 2402.72 803 2402.72C747.407 2402.72 702.273 2337.98 702.273 2258.24C702.273 2178.49 747.407 2113.75 803 2113.75ZM803 2125.75C783.964 2125.75 766.495 2134.91 752.224 2149.91C729.017 2174.32 714.273 2213.83 714.273 2258.24C714.273 2302.64 729.017 2342.15 752.224 2366.56C766.495 2381.57 783.964 2390.72 803 2390.72C822.035 2390.72 839.504 2381.57 853.775 2366.56C876.982 2342.15 891.726 2302.64 891.726 2258.24C891.726 2213.83 876.982 2174.32 853.775 2149.91C839.504 2134.91 822.035 2125.75 803 2125.75Z" fill="#7ED3F1"/>
<path d="M1411.25 2385.6C1466.88 2385.6 1511.98 2320.91 1511.98 2241.12C1511.98 2161.32 1466.88 2096.63 1411.25 2096.63C1355.62 2096.63 1310.52 2161.32 1310.52 2241.12C1310.52 2320.91 1355.62 2385.6 1411.25 2385.6Z" fill="#2AB6E9"/>
<path fill-rule="evenodd" clip-rule="evenodd" d="M1411.25 2096.63C1466.84 2096.63 1511.98 2161.37 1511.98 2241.12C1511.98 2320.86 1466.84 2385.6 1411.25 2385.6C1355.66 2385.6 1310.52 2320.86 1310.52 2241.12C1310.52 2161.37 1355.66 2096.63 1411.25 2096.63ZM1411.25 2108.63C1392.21 2108.63 1374.75 2117.79 1360.47 2132.79C1337.27 2157.2 1322.52 2196.71 1322.52 2241.12C1322.52 2285.52 1337.27 2325.03 1360.47 2349.44C1374.75 2364.45 1392.21 2373.6 1411.25 2373.6C1430.28 2373.6 1447.75 2364.45 1462.02 2349.44C1485.23 2325.03 1499.98 2285.52 1499.98 2241.12C1499.98 2196.71 1485.23 2157.2 1462.02 2132.79C1447.75 2117.79 1430.28 2108.63 1411.25 2108.63Z" fill="#7ED3F1"/>
<path fill-rule="evenodd" clip-rule="evenodd" d="M345.541 2302.61C310.642 2274.04 228.554 2166.49 180.667 2044.14C132.253 1920.45 136.811 1738.42 131.704 1599.66C128.069 1500.84 54.3563 1403.39 33.9814 1405.73C7.84257 1408.72 70.2786 1488.99 52.2644 1591.33C33.7016 1696.77 18.4555 1821.66 17.6436 1869.88C15.4749 1997.69 63.3926 2344.14 184.161 2452.43C294.557 2551.42 404.616 2525.84 457.722 2492.27C498.842 2466.29 446.878 2385.57 345.541 2302.61Z" fill="#777777" stroke="black" stroke-width="18" stroke-miterlimit="2" stroke-linejoin="round"/>
<path fill-rule="evenodd" clip-rule="evenodd" d="M361.877 2311.31C329.132 2292.95 319.195 2300.1 269.21 2227.67C218.675 2154.44 174.59 2098.57 161.619 2019.42C152.383 1963.04 74.4881 2138.67 76.698 2166.03C82.5395 2238.52 119.262 2340.28 221.606 2417.39C282.185 2463.02 340.24 2497.58 406.564 2489.34C533.774 2473.54 579.796 2433.46 361.877 2311.31Z" fill="#777777"/>
<path d="M106.62 1592.72C121.541 1592.72 133.638 1579.95 133.638 1564.2C133.638 1548.45 121.541 1535.68 106.62 1535.68C91.6979 1535.68 79.6016 1548.45 79.6016 1564.2C79.6016 1579.95 91.6979 1592.72 106.62 1592.72Z" fill="#FFAAAC"/>
<path fill-rule="evenodd" clip-rule="evenodd" d="M106.619 1534.2C106.69 1534.2 119.309 1533.39 128.551 1544.77C141.053 1560.16 135.843 1583.9 118.236 1592.08C101.775 1599.73 82.7634 1589.67 78.6264 1571.39C74.3544 1552.51 87.8664 1534.55 105.883 1534.21C106.128 1534.2 106.374 1534.2 106.619 1534.2ZM106.619 1535.69C91.7084 1535.69 79.6024 1548.46 79.6024 1564.2C79.6024 1579.95 91.7084 1592.72 106.619 1592.72C121.531 1592.72 133.637 1579.95 133.637 1564.2C133.637 1548.46 121.531 1535.69 106.619 1535.69Z" fill="#282603"/>
<path d="M106.706 1580.47C116.062 1580.47 123.646 1573.15 123.646 1564.12C123.646 1555.09 116.062 1547.77 106.706 1547.77C97.35 1547.77 89.7656 1555.09 89.7656 1564.12C89.7656 1573.15 97.35 1580.47 106.706 1580.47Z" fill="#FFAAAC"/>
<path fill-rule="evenodd" clip-rule="evenodd" d="M106.705 1546.28C108.316 1546.29 113.974 1546.27 119.338 1550.93C128.787 1559.14 127.061 1574.51 115.26 1580.39C103.133 1586.44 88.6139 1578.17 88.0258 1565.05C87.8207 1560.49 89.3794 1556.1 92.3852 1552.65C98.3555 1545.81 106.587 1546.29 106.705 1546.28ZM106.705 1547.77C97.3554 1547.77 89.765 1555.09 89.765 1564.12C89.765 1573.15 97.3554 1580.47 106.705 1580.47C116.054 1580.47 123.645 1573.15 123.645 1564.12C123.645 1555.09 116.054 1547.77 106.705 1547.77Z" fill="#282603"/>
<path d="M76.1703 1498.54C91.0919 1498.54 103.188 1485.78 103.188 1470.02C103.188 1454.27 91.0919 1441.51 76.1703 1441.51C61.2487 1441.51 49.1523 1454.27 49.1523 1470.02C49.1523 1485.78 61.2487 1498.54 76.1703 1498.54Z" fill="#FFAAAC"/>
<path fill-rule="evenodd" clip-rule="evenodd" d="M76.1701 1440.02C76.2411 1440.02 88.8601 1439.21 98.1021 1450.59C110.604 1465.98 105.394 1489.72 87.7871 1497.9C71.3262 1505.55 52.3142 1495.49 48.1772 1477.21C43.9052 1458.33 57.4172 1440.37 75.4341 1440.03C75.6791 1440.02 75.9251 1440.02 76.1701 1440.02ZM76.1701 1441.51C61.2592 1441.51 49.1532 1454.28 49.1532 1470.02C49.1532 1485.77 61.2592 1498.54 76.1701 1498.54C91.0821 1498.54 103.188 1485.77 103.188 1470.02C103.188 1454.28 91.0821 1441.51 76.1701 1441.51Z" fill="#282603"/>
<path d="M76.2566 1486.3C85.6124 1486.3 93.1967 1478.97 93.1967 1469.94C93.1967 1460.91 85.6124 1453.59 76.2566 1453.59C66.9008 1453.59 59.3164 1460.91 59.3164 1469.94C59.3164 1478.97 66.9008 1486.3 76.2566 1486.3Z" fill="#FFAAAC"/>
<path fill-rule="evenodd" clip-rule="evenodd" d="M76.2554 1452.1C77.8667 1452.12 83.5247 1452.1 88.8887 1456.76C98.3381 1464.97 96.612 1480.33 84.8107 1486.22C72.6834 1492.27 58.1647 1484 57.5765 1470.88C57.3715 1466.31 58.9302 1461.92 61.936 1458.48C67.9063 1451.63 76.1381 1452.11 76.2554 1452.1ZM76.2554 1453.6C66.9062 1453.6 59.3158 1460.92 59.3158 1469.94C59.3158 1478.98 66.9062 1486.3 76.2554 1486.3C85.6051 1486.3 93.1955 1478.98 93.1955 1469.94C93.1955 1460.92 85.6051 1453.6 76.2554 1453.6Z" fill="#282603"/>
<path d="M122.295 1784.43C137.217 1784.43 149.313 1771.66 149.313 1755.91C149.313 1740.16 137.217 1727.39 122.295 1727.39C107.374 1727.39 95.2773 1740.16 95.2773 1755.91C95.2773 1771.66 107.374 1784.43 122.295 1784.43Z" fill="#FFAAAC"/>
<path fill-rule="evenodd" clip-rule="evenodd" d="M122.295 1725.91C122.366 1725.91 134.985 1725.1 144.227 1736.48C156.729 1751.87 151.519 1775.61 133.912 1783.79C117.451 1791.44 98.4392 1781.38 94.3022 1763.1C90.0302 1744.22 103.542 1726.26 121.559 1725.92C121.804 1725.91 122.05 1725.91 122.295 1725.91ZM122.295 1727.4C107.384 1727.4 95.2782 1740.17 95.2782 1755.91C95.2782 1771.66 107.384 1784.43 122.295 1784.43C137.207 1784.43 149.313 1771.66 149.313 1755.91C149.313 1740.17 137.207 1727.4 122.295 1727.4Z" fill="#282603"/>
<path d="M122.382 1772.18C131.737 1772.18 139.322 1764.86 139.322 1755.83C139.322 1746.8 131.737 1739.48 122.382 1739.48C113.026 1739.48 105.441 1746.8 105.441 1755.83C105.441 1764.86 113.026 1772.18 122.382 1772.18Z" fill="#FFAAAC"/>
<path fill-rule="evenodd" clip-rule="evenodd" d="M122.38 1737.99C123.992 1738 129.65 1737.99 135.014 1742.64C144.463 1750.85 142.737 1766.22 130.936 1772.1C118.808 1778.15 104.29 1769.89 103.702 1756.77C103.497 1752.2 105.055 1747.81 108.061 1744.36C114.031 1737.52 122.263 1738 122.38 1737.99ZM122.38 1739.48C113.031 1739.48 105.441 1746.81 105.441 1755.83C105.441 1764.86 113.031 1772.18 122.38 1772.18C131.73 1772.18 139.321 1764.86 139.321 1755.83C139.321 1746.81 131.73 1739.48 122.38 1739.48Z" fill="#282603"/>
<path d="M126.924 1889.97C141.846 1889.97 153.942 1877.2 153.942 1861.45C153.942 1845.7 141.846 1832.93 126.924 1832.93C112.003 1832.93 99.9062 1845.7 99.9062 1861.45C99.9062 1877.2 112.003 1889.97 126.924 1889.97Z" fill="#FFAAAC"/>
<path fill-rule="evenodd" clip-rule="evenodd" d="M126.924 1831.45C126.995 1831.45 139.614 1830.64 148.856 1842.02C161.358 1857.41 156.148 1881.15 138.541 1889.33C122.08 1896.98 103.068 1886.92 98.9311 1868.64C94.6591 1849.76 108.171 1831.8 126.188 1831.46C126.433 1831.45 126.679 1831.45 126.924 1831.45ZM126.924 1832.94C112.013 1832.94 99.9071 1845.71 99.9071 1861.45C99.9071 1877.2 112.013 1889.97 126.924 1889.97C141.836 1889.97 153.942 1877.2 153.942 1861.45C153.942 1845.71 141.836 1832.94 126.924 1832.94Z" fill="#282603"/>
<path d="M127.01 1877.72C136.366 1877.72 143.951 1870.4 143.951 1861.37C143.951 1852.34 136.366 1845.02 127.01 1845.02C117.655 1845.02 110.07 1852.34 110.07 1861.37C110.07 1870.4 117.655 1877.72 127.01 1877.72Z" fill="#FFAAAC"/>
<path fill-rule="evenodd" clip-rule="evenodd" d="M127.009 1843.53C128.621 1843.54 134.279 1843.53 139.643 1848.18C149.092 1856.39 147.366 1871.76 135.565 1877.65C123.437 1883.69 108.919 1875.43 108.33 1862.31C108.125 1857.74 109.684 1853.35 112.69 1849.9C118.66 1843.06 126.892 1843.54 127.009 1843.53ZM127.009 1845.02C117.66 1845.02 110.07 1852.35 110.07 1861.37C110.07 1870.4 117.66 1877.73 127.009 1877.73C136.359 1877.73 143.949 1870.4 143.949 1861.37C143.949 1852.35 136.359 1845.02 127.009 1845.02Z" fill="#282603"/>
<path d="M134.069 1982.86C148.99 1982.86 161.087 1970.09 161.087 1954.34C161.087 1938.59 148.99 1925.82 134.069 1925.82C119.147 1925.82 107.051 1938.59 107.051 1954.34C107.051 1970.09 119.147 1982.86 134.069 1982.86Z" fill="#FFAAAC"/>
<path fill-rule="evenodd" clip-rule="evenodd" d="M134.069 1924.34C134.14 1924.34 146.759 1923.53 156.001 1934.91C168.503 1950.3 163.293 1974.04 145.686 1982.22C129.225 1989.87 110.213 1979.81 106.076 1961.53C101.804 1942.65 115.316 1924.69 133.333 1924.35C133.578 1924.34 133.824 1924.34 134.069 1924.34ZM134.069 1925.83C119.158 1925.83 107.052 1938.6 107.052 1954.34C107.052 1970.09 119.158 1982.86 134.069 1982.86C148.981 1982.86 161.087 1970.09 161.087 1954.34C161.087 1938.6 148.981 1925.83 134.069 1925.83Z" fill="#282603"/>
<path d="M134.155 1970.61C143.511 1970.61 151.095 1963.29 151.095 1954.26C151.095 1945.23 143.511 1937.91 134.155 1937.91C124.799 1937.91 117.215 1945.23 117.215 1954.26C117.215 1963.29 124.799 1970.61 134.155 1970.61Z" fill="#FFAAAC"/>
<path fill-rule="evenodd" clip-rule="evenodd" d="M134.154 1936.42C135.765 1936.43 141.423 1936.42 146.787 1941.07C156.237 1949.28 154.51 1964.65 142.709 1970.53C130.582 1976.58 116.063 1968.31 115.475 1955.2C115.27 1950.63 116.829 1946.24 119.834 1942.79C125.805 1935.95 134.037 1936.43 134.154 1936.42ZM134.154 1937.91C124.805 1937.91 117.214 1945.23 117.214 1954.26C117.214 1963.29 124.805 1970.61 134.154 1970.61C143.504 1970.61 151.094 1963.29 151.094 1954.26C151.094 1945.23 143.504 1937.91 134.154 1937.91Z" fill="#282603"/>
<path d="M196.514 2177.48C211.436 2177.48 223.532 2164.71 223.532 2148.96C223.532 2133.21 211.436 2120.44 196.514 2120.44C181.592 2120.44 169.496 2133.21 169.496 2148.96C169.496 2164.71 181.592 2177.48 196.514 2177.48Z" fill="#FFAAAC"/>
<path fill-rule="evenodd" clip-rule="evenodd" d="M196.514 2118.96C196.585 2118.96 209.204 2118.15 218.446 2129.53C230.948 2144.92 225.738 2168.66 208.131 2176.84C191.67 2184.49 172.658 2174.43 168.521 2156.15C164.249 2137.27 177.761 2119.31 195.778 2118.97C196.023 2118.96 196.269 2118.96 196.514 2118.96ZM196.514 2120.45C181.603 2120.45 169.497 2133.22 169.497 2148.96C169.497 2164.71 181.603 2177.48 196.514 2177.48C211.426 2177.48 223.532 2164.71 223.532 2148.96C223.532 2133.22 211.426 2120.45 196.514 2120.45Z" fill="#282603"/>
<path d="M196.6 2165.23C205.956 2165.23 213.54 2157.91 213.54 2148.87C213.54 2139.84 205.956 2132.52 196.6 2132.52C187.245 2132.52 179.66 2139.84 179.66 2148.87C179.66 2157.91 187.245 2165.23 196.6 2165.23Z" fill="#FFAAAC"/>
<path fill-rule="evenodd" clip-rule="evenodd" d="M196.599 2131.04C198.21 2131.05 203.868 2131.03 209.232 2135.69C218.682 2143.9 216.956 2159.27 205.154 2165.15C193.027 2171.2 178.508 2162.93 177.92 2149.81C177.715 2145.25 179.274 2140.85 182.28 2137.41C188.25 2130.57 196.482 2131.04 196.599 2131.04ZM196.599 2132.53C187.25 2132.53 179.66 2139.85 179.66 2148.88C179.66 2157.91 187.25 2165.23 196.599 2165.23C205.949 2165.23 213.539 2157.91 213.539 2148.88C213.539 2139.85 205.949 2132.53 196.599 2132.53Z" fill="#282603"/>
<path d="M243.073 2250.79C257.994 2250.79 270.091 2238.02 270.091 2222.27C270.091 2206.52 257.994 2193.75 243.073 2193.75C228.151 2193.75 216.055 2206.52 216.055 2222.27C216.055 2238.02 228.151 2250.79 243.073 2250.79Z" fill="#FFAAAC"/>
<path fill-rule="evenodd" clip-rule="evenodd" d="M243.072 2192.27C243.143 2192.27 255.762 2191.46 265.004 2202.84C277.506 2218.23 272.296 2241.97 254.689 2250.15C238.229 2257.8 219.217 2247.74 215.08 2229.46C210.808 2210.58 224.319 2192.62 242.336 2192.28C242.581 2192.27 242.827 2192.27 243.072 2192.27ZM243.072 2193.76C228.162 2193.76 216.056 2206.53 216.056 2222.27C216.056 2238.02 228.162 2250.79 243.072 2250.79C257.984 2250.79 270.09 2238.02 270.09 2222.27C270.09 2206.53 257.984 2193.76 243.072 2193.76Z" fill="#282603"/>
<path d="M243.159 2238.54C252.515 2238.54 260.099 2231.22 260.099 2222.19C260.099 2213.16 252.515 2205.84 243.159 2205.84C233.803 2205.84 226.219 2213.16 226.219 2222.19C226.219 2231.22 233.803 2238.54 243.159 2238.54Z" fill="#FFAAAC"/>
<path fill-rule="evenodd" clip-rule="evenodd" d="M243.158 2204.35C244.769 2204.36 250.427 2204.35 255.791 2209C265.24 2217.21 263.514 2232.58 251.713 2238.46C239.586 2244.51 225.067 2236.24 224.479 2223.12C224.274 2218.56 225.833 2214.17 228.838 2210.72C234.809 2203.88 243.04 2204.36 243.158 2204.35ZM243.158 2205.84C233.809 2205.84 226.218 2213.16 226.218 2222.19C226.218 2231.22 233.809 2238.54 243.158 2238.54C252.507 2238.54 260.098 2231.22 260.098 2222.19C260.098 2213.16 252.507 2205.84 243.158 2205.84Z" fill="#282603"/>
<path d="M294.1 2323.36C309.022 2323.36 321.118 2310.6 321.118 2294.85C321.118 2279.09 309.022 2266.33 294.1 2266.33C279.178 2266.33 267.082 2279.09 267.082 2294.85C267.082 2310.6 279.178 2323.36 294.1 2323.36Z" fill="#FFAAAC"/>
<path fill-rule="evenodd" clip-rule="evenodd" d="M294.1 2264.84C294.171 2264.84 306.79 2264.03 316.032 2275.41C328.534 2290.8 323.324 2314.54 305.717 2322.72C289.256 2330.37 270.244 2320.31 266.107 2302.03C261.835 2283.15 275.347 2265.19 293.364 2264.85C293.609 2264.84 293.855 2264.84 294.1 2264.84ZM294.1 2266.33C279.189 2266.33 267.083 2279.1 267.083 2294.84C267.083 2310.59 279.189 2323.36 294.1 2323.36C309.012 2323.36 321.118 2310.59 321.118 2294.84C321.118 2279.1 309.012 2266.33 294.1 2266.33Z" fill="#282603"/>
<path d="M294.186 2311.12C303.542 2311.12 311.126 2303.8 311.126 2294.76C311.126 2285.73 303.542 2278.41 294.186 2278.41C284.83 2278.41 277.246 2285.73 277.246 2294.76C277.246 2303.8 284.83 2311.12 294.186 2311.12Z" fill="#FFAAAC"/>
<path fill-rule="evenodd" clip-rule="evenodd" d="M294.185 2276.93C295.796 2276.94 301.454 2276.92 306.818 2281.58C316.268 2289.79 314.542 2305.15 302.74 2311.04C290.613 2317.09 276.094 2308.82 275.506 2295.7C275.301 2291.13 276.86 2286.74 279.866 2283.3C285.836 2276.45 294.068 2276.93 294.185 2276.93ZM294.185 2278.42C284.836 2278.42 277.246 2285.74 277.246 2294.76C277.246 2303.8 284.836 2311.12 294.185 2311.12C303.535 2311.12 311.125 2303.8 311.125 2294.76C311.125 2285.74 303.535 2278.42 294.185 2278.42Z" fill="#282603"/>
<path d="M372.127 2380.38C387.049 2380.38 399.145 2367.62 399.145 2351.86C399.145 2336.11 387.049 2323.35 372.127 2323.35C357.206 2323.35 345.109 2336.11 345.109 2351.86C345.109 2367.62 357.206 2380.38 372.127 2380.38Z" fill="#FFAAAC"/>
<path fill-rule="evenodd" clip-rule="evenodd" d="M372.127 2321.86C372.198 2321.86 384.817 2321.05 394.059 2332.43C406.561 2347.82 401.351 2371.56 383.744 2379.74C367.283 2387.39 348.271 2377.33 344.134 2359.05C339.862 2340.17 353.374 2322.21 371.391 2321.87C371.636 2321.86 371.882 2321.86 372.127 2321.86ZM372.127 2323.35C357.216 2323.35 345.11 2336.12 345.11 2351.86C345.11 2367.61 357.216 2380.38 372.127 2380.38C387.039 2380.38 399.145 2367.61 399.145 2351.86C399.145 2336.12 387.039 2323.35 372.127 2323.35Z" fill="#282603"/>
<path d="M372.214 2368.14C381.569 2368.14 389.154 2360.81 389.154 2351.78C389.154 2342.75 381.569 2335.43 372.214 2335.43C362.858 2335.43 355.273 2342.75 355.273 2351.78C355.273 2360.81 362.858 2368.14 372.214 2368.14Z" fill="#FFAAAC"/>
<path fill-rule="evenodd" clip-rule="evenodd" d="M372.212 2333.94C373.824 2333.96 379.482 2333.94 384.846 2338.6C394.295 2346.81 392.569 2362.17 380.768 2368.06C368.64 2374.11 354.122 2365.84 353.534 2352.72C353.329 2348.15 354.887 2343.76 357.893 2340.32C363.863 2333.47 372.095 2333.95 372.212 2333.94ZM372.212 2335.44C362.863 2335.44 355.273 2342.76 355.273 2351.78C355.273 2360.82 362.863 2368.14 372.212 2368.14C381.562 2368.14 389.153 2360.82 389.153 2351.78C389.153 2342.76 381.562 2335.44 372.212 2335.44Z" fill="#282603"/>
<path d="M463.627 2416.28C478.549 2416.28 490.645 2403.51 490.645 2387.76C490.645 2372.01 478.549 2359.24 463.627 2359.24C448.706 2359.24 436.609 2372.01 436.609 2387.76C436.609 2403.51 448.706 2416.28 463.627 2416.28Z" fill="#FFAAAC"/>
<path fill-rule="evenodd" clip-rule="evenodd" d="M463.627 2357.76C463.698 2357.76 476.317 2356.95 485.559 2368.33C498.061 2383.72 492.851 2407.46 475.244 2415.64C458.783 2423.29 439.771 2413.23 435.634 2394.95C431.362 2376.07 444.874 2358.11 462.891 2357.77C463.136 2357.76 463.382 2357.76 463.627 2357.76ZM463.627 2359.25C448.716 2359.25 436.61 2372.02 436.61 2387.76C436.61 2403.51 448.716 2416.28 463.627 2416.28C478.539 2416.28 490.645 2403.51 490.645 2387.76C490.645 2372.02 478.539 2359.25 463.627 2359.25Z" fill="#282603"/>
<path d="M463.714 2404.03C473.069 2404.03 480.654 2396.71 480.654 2387.68C480.654 2378.65 473.069 2371.33 463.714 2371.33C454.358 2371.33 446.773 2378.65 446.773 2387.68C446.773 2396.71 454.358 2404.03 463.714 2404.03Z" fill="#FFAAAC"/>
<path fill-rule="evenodd" clip-rule="evenodd" d="M463.712 2369.84C465.324 2369.85 470.982 2369.84 476.346 2374.49C485.795 2382.7 484.069 2398.07 472.268 2403.96C460.14 2410.01 445.622 2401.74 445.034 2388.62C444.829 2384.05 446.387 2379.66 449.393 2376.21C455.363 2369.37 463.595 2369.85 463.712 2369.84ZM463.712 2371.33C454.363 2371.33 446.773 2378.66 446.773 2387.68C446.773 2396.71 454.363 2404.04 463.712 2404.04C473.062 2404.04 480.653 2396.71 480.653 2387.68C480.653 2378.66 473.062 2371.33 463.712 2371.33Z" fill="#282603"/>
<path d="M424.209 2342.07C439.131 2342.07 451.227 2329.3 451.227 2313.55C451.227 2297.8 439.131 2285.03 424.209 2285.03C409.288 2285.03 397.191 2297.8 397.191 2313.55C397.191 2329.3 409.288 2342.07 424.209 2342.07Z" fill="#FFAAAC"/>
<path fill-rule="evenodd" clip-rule="evenodd" d="M424.209 2283.55C424.28 2283.55 436.899 2282.74 446.141 2294.12C458.643 2309.51 453.433 2333.25 435.826 2341.43C419.365 2349.08 400.353 2339.02 396.216 2320.74C391.944 2301.86 405.456 2283.9 423.473 2283.56C423.718 2283.55 423.964 2283.55 424.209 2283.55ZM424.209 2285.04C409.298 2285.04 397.192 2297.81 397.192 2313.55C397.192 2329.3 409.298 2342.07 424.209 2342.07C439.121 2342.07 451.227 2329.3 451.227 2313.55C451.227 2297.81 439.121 2285.04 424.209 2285.04Z" fill="#282603"/>
<path d="M424.296 2329.82C433.651 2329.82 441.236 2322.5 441.236 2313.47C441.236 2304.43 433.651 2297.11 424.296 2297.11C414.94 2297.11 407.355 2304.43 407.355 2313.47C407.355 2322.5 414.94 2329.82 424.296 2329.82Z" fill="#FFAAAC"/>
<path fill-rule="evenodd" clip-rule="evenodd" d="M424.294 2295.63C425.906 2295.64 431.564 2295.62 436.928 2300.28C446.377 2308.49 444.651 2323.86 432.85 2329.74C420.722 2335.79 406.204 2327.52 405.616 2314.4C405.411 2309.84 406.969 2305.45 409.975 2302C415.945 2295.16 424.177 2295.63 424.294 2295.63ZM424.294 2297.12C414.945 2297.12 407.355 2304.44 407.355 2313.47C407.355 2322.5 414.945 2329.82 424.294 2329.82C433.644 2329.82 441.235 2322.5 441.235 2313.47C441.235 2304.44 433.644 2297.12 424.294 2297.12Z" fill="#282603"/>
<path d="M69.3891 1943.03C84.3107 1943.03 96.407 1930.26 96.407 1914.51C96.407 1898.76 84.3107 1885.99 69.3891 1885.99C54.4675 1885.99 42.3711 1898.76 42.3711 1914.51C42.3711 1930.26 54.4675 1943.03 69.3891 1943.03Z" fill="#FFAAAC"/>
<path fill-rule="evenodd" clip-rule="evenodd" d="M69.3889 1884.51C69.4599 1884.51 82.0789 1883.7 91.3209 1895.08C103.823 1910.47 98.6129 1934.21 81.0059 1942.39C64.5449 1950.04 45.5329 1939.98 41.3959 1921.7C37.1239 1902.82 50.6359 1884.86 68.6529 1884.52C68.8979 1884.51 69.1439 1884.51 69.3889 1884.51ZM69.3889 1886C54.4779 1886 42.3719 1898.77 42.3719 1914.51C42.3719 1930.26 54.4779 1943.03 69.3889 1943.03C84.3009 1943.03 96.4069 1930.26 96.4069 1914.51C96.4069 1898.77 84.3009 1886 69.3889 1886Z" fill="#282603"/>
<path d="M69.4753 1930.78C78.8311 1930.78 86.4155 1923.46 86.4155 1914.43C86.4155 1905.4 78.8311 1898.07 69.4753 1898.07C60.1195 1898.07 52.5352 1905.4 52.5352 1914.43C52.5352 1923.46 60.1195 1930.78 69.4753 1930.78Z" fill="#FFAAAC"/>
<path fill-rule="evenodd" clip-rule="evenodd" d="M69.4741 1896.59C71.0855 1896.6 76.7435 1896.58 82.1074 1901.24C91.5569 1909.45 89.8307 1924.82 78.0294 1930.7C65.9021 1936.75 51.3834 1928.48 50.7953 1915.36C50.5903 1910.8 52.149 1906.41 55.1548 1902.96C61.125 1896.12 69.3569 1896.59 69.4741 1896.59ZM69.4741 1898.08C60.125 1898.08 52.5346 1905.4 52.5346 1914.43C52.5346 1923.46 60.125 1930.78 69.4741 1930.78C78.8239 1930.78 86.4143 1923.46 86.4143 1914.43C86.4143 1905.4 78.8239 1898.08 69.4741 1898.08Z" fill="#282603"/>
<path d="M164.955 2077.11C179.877 2077.11 191.973 2064.34 191.973 2048.59C191.973 2032.84 179.877 2020.07 164.955 2020.07C150.034 2020.07 137.938 2032.84 137.938 2048.59C137.938 2064.34 150.034 2077.11 164.955 2077.11Z" fill="#FFAAAC"/>
<path fill-rule="evenodd" clip-rule="evenodd" d="M164.955 2018.59C165.026 2018.59 177.645 2017.78 186.887 2029.16C199.389 2044.55 194.179 2068.29 176.572 2076.47C160.111 2084.12 141.099 2074.06 136.962 2055.78C132.69 2036.9 146.202 2018.94 164.219 2018.6C164.464 2018.59 164.71 2018.59 164.955 2018.59ZM164.955 2020.08C150.044 2020.08 137.938 2032.85 137.938 2048.59C137.938 2064.34 150.044 2077.11 164.955 2077.11C179.867 2077.11 191.973 2064.34 191.973 2048.59C191.973 2032.85 179.867 2020.08 164.955 2020.08Z" fill="#282603"/>
<path d="M165.042 2064.86C174.398 2064.86 181.982 2057.54 181.982 2048.51C181.982 2039.48 174.398 2032.16 165.042 2032.16C155.686 2032.16 148.102 2039.48 148.102 2048.51C148.102 2057.54 155.686 2064.86 165.042 2064.86Z" fill="#FFAAAC"/>
<path fill-rule="evenodd" clip-rule="evenodd" d="M165.041 2030.67C166.652 2030.68 172.31 2030.67 177.674 2035.32C187.123 2043.53 185.397 2058.9 173.596 2064.78C161.469 2070.83 146.95 2062.56 146.362 2049.45C146.157 2044.88 147.715 2040.49 150.721 2037.04C156.691 2030.2 164.923 2030.68 165.041 2030.67ZM165.041 2032.16C155.691 2032.16 148.101 2039.48 148.101 2048.51C148.101 2057.54 155.691 2064.86 165.041 2064.86C174.39 2064.86 181.981 2057.54 181.981 2048.51C181.981 2039.48 174.39 2032.16 165.041 2032.16Z" fill="#282603"/>
<path d="M64.9047 1741.15C79.8263 1741.15 91.9227 1728.38 91.9227 1712.63C91.9227 1696.88 79.8263 1684.11 64.9047 1684.11C49.9831 1684.11 37.8867 1696.88 37.8867 1712.63C37.8867 1728.38 49.9831 1741.15 64.9047 1741.15Z" fill="#FFAAAC"/>
<path fill-rule="evenodd" clip-rule="evenodd" d="M64.9045 1682.63C64.9755 1682.63 77.5945 1681.82 86.8365 1693.2C99.3385 1708.59 94.1285 1732.33 76.5215 1740.51C60.0605 1748.16 41.0485 1738.1 36.9115 1719.82C32.6396 1700.94 46.1515 1682.98 64.1685 1682.64C64.4135 1682.63 64.6595 1682.63 64.9045 1682.63ZM64.9045 1684.12C49.9935 1684.12 37.8875 1696.89 37.8875 1712.63C37.8875 1728.38 49.9935 1741.15 64.9045 1741.15C79.8165 1741.15 91.9225 1728.38 91.9225 1712.63C91.9225 1696.89 79.8165 1684.12 64.9045 1684.12Z" fill="#282603"/>
<path d="M64.9909 1728.9C74.3467 1728.9 81.9311 1721.58 81.9311 1712.55C81.9311 1703.52 74.3467 1696.2 64.9909 1696.2C55.6352 1696.2 48.0508 1703.52 48.0508 1712.55C48.0508 1721.58 55.6352 1728.9 64.9909 1728.9Z" fill="#FFAAAC"/>
<path fill-rule="evenodd" clip-rule="evenodd" d="M64.9897 1694.71C66.6011 1694.72 72.2591 1694.71 77.623 1699.36C87.0725 1707.57 85.3464 1722.94 73.5451 1728.83C61.4177 1734.87 46.899 1726.61 46.3109 1713.49C46.1059 1708.92 47.6646 1704.53 50.6704 1701.08C56.6407 1694.24 64.8725 1694.72 64.9897 1694.71ZM64.9897 1696.2C55.6406 1696.2 48.0502 1703.53 48.0502 1712.55C48.0502 1721.58 55.6406 1728.91 64.9897 1728.91C74.3395 1728.91 81.9299 1721.58 81.9299 1712.55C81.9299 1703.53 74.3395 1696.2 64.9897 1696.2Z" fill="#282603"/>
<path d="M74.1195 1841.56C89.0411 1841.56 101.138 1828.79 101.138 1813.04C101.138 1797.29 89.0411 1784.52 74.1195 1784.52C59.1979 1784.52 47.1016 1797.29 47.1016 1813.04C47.1016 1828.79 59.1979 1841.56 74.1195 1841.56Z" fill="#FFAAAC"/>
<path fill-rule="evenodd" clip-rule="evenodd" d="M74.1194 1783.04C74.1904 1783.04 86.8094 1782.23 96.0513 1793.61C108.553 1809 103.343 1832.74 85.7364 1840.92C69.2754 1848.57 50.2634 1838.51 46.1264 1820.23C41.8544 1801.35 55.3664 1783.39 73.3833 1783.05C73.6283 1783.04 73.8744 1783.04 74.1194 1783.04ZM74.1194 1784.53C59.2084 1784.53 47.1024 1797.3 47.1024 1813.04C47.1024 1828.79 59.2084 1841.56 74.1194 1841.56C89.0313 1841.56 101.137 1828.79 101.137 1813.04C101.137 1797.3 89.0313 1784.53 74.1194 1784.53Z" fill="#282603"/>
<path d="M74.2058 1829.31C83.5616 1829.31 91.1459 1821.99 91.1459 1812.96C91.1459 1803.93 83.5616 1796.61 74.2058 1796.61C64.85 1796.61 57.2656 1803.93 57.2656 1812.96C57.2656 1821.99 64.85 1829.31 74.2058 1829.31Z" fill="#FFAAAC"/>
<path fill-rule="evenodd" clip-rule="evenodd" d="M74.2046 1795.12C75.816 1795.13 81.4739 1795.12 86.8379 1799.77C96.2873 1807.98 94.5612 1823.35 82.7599 1829.24C70.6326 1835.28 56.1139 1827.02 55.5258 1813.9C55.3207 1809.33 56.8794 1804.94 59.8852 1801.49C65.8555 1794.65 74.0873 1795.13 74.2046 1795.12ZM74.2046 1796.61C64.8554 1796.61 57.265 1803.94 57.265 1812.96C57.265 1821.99 64.8554 1829.32 74.2046 1829.32C83.5543 1829.32 91.1447 1821.99 91.1447 1812.96C91.1447 1803.94 83.5543 1796.61 74.2046 1796.61Z" fill="#282603"/>
<path d="M56.7953 1646.6C71.7169 1646.6 83.8133 1633.83 83.8133 1618.08C83.8133 1602.33 71.7169 1589.56 56.7953 1589.56C41.8737 1589.56 29.7773 1602.33 29.7773 1618.08C29.7773 1633.83 41.8737 1646.6 56.7953 1646.6Z" fill="#FFAAAC"/>
<path fill-rule="evenodd" clip-rule="evenodd" d="M56.7951 1588.08C56.8661 1588.08 69.4851 1587.27 78.7271 1598.65C91.2291 1614.04 86.0191 1637.78 68.4121 1645.96C51.9512 1653.61 32.9392 1643.55 28.8022 1625.27C24.5302 1606.39 38.0422 1588.43 56.0591 1588.09C56.3041 1588.08 56.5501 1588.08 56.7951 1588.08ZM56.7951 1589.57C41.8842 1589.57 29.7782 1602.34 29.7782 1618.08C29.7782 1633.83 41.8842 1646.6 56.7951 1646.6C71.7071 1646.6 83.8131 1633.83 83.8131 1618.08C83.8131 1602.34 71.7071 1589.57 56.7951 1589.57Z" fill="#282603"/>
<path d="M56.8816 1634.35C66.2374 1634.35 73.8217 1627.03 73.8217 1618C73.8217 1608.97 66.2374 1601.64 56.8816 1601.64C47.5258 1601.64 39.9414 1608.97 39.9414 1618C39.9414 1627.03 47.5258 1634.35 56.8816 1634.35Z" fill="#FFAAAC"/>
<path fill-rule="evenodd" clip-rule="evenodd" d="M56.8804 1600.16C58.4917 1600.17 64.1497 1600.15 69.5137 1604.81C78.9631 1613.02 77.237 1628.39 65.4357 1634.27C53.3084 1640.32 38.7897 1632.05 38.2015 1618.93C37.9965 1614.37 39.5552 1609.98 42.561 1606.53C48.5313 1599.69 56.7631 1600.17 56.8804 1600.16ZM56.8804 1601.65C47.5312 1601.65 39.9408 1608.97 39.9408 1618C39.9408 1627.03 47.5312 1634.35 56.8804 1634.35C66.2301 1634.35 73.8205 1627.03 73.8205 1618C73.8205 1608.97 66.2301 1601.65 56.8804 1601.65Z" fill="#282603"/>
<path d="M118.948 1688.43C133.869 1688.43 145.966 1675.67 145.966 1659.92C145.966 1644.16 133.869 1631.4 118.948 1631.4C104.026 1631.4 91.9297 1644.16 91.9297 1659.92C91.9297 1675.67 104.026 1688.43 118.948 1688.43Z" fill="#FFAAAC"/>
<path fill-rule="evenodd" clip-rule="evenodd" d="M118.947 1629.91C119.018 1629.91 131.637 1629.1 140.879 1640.48C153.381 1655.87 148.171 1679.61 130.564 1687.79C114.104 1695.44 95.0915 1685.38 90.9545 1667.1C86.6825 1648.22 100.194 1630.26 118.211 1629.92C118.456 1629.91 118.702 1629.91 118.947 1629.91ZM118.947 1631.4C104.037 1631.4 91.9305 1644.17 91.9305 1659.91C91.9305 1675.66 104.037 1688.43 118.947 1688.43C133.859 1688.43 145.965 1675.66 145.965 1659.91C145.965 1644.17 133.859 1631.4 118.947 1631.4Z" fill="#282603"/>
<path d="M119.034 1676.19C128.39 1676.19 135.974 1668.87 135.974 1659.83C135.974 1650.8 128.39 1643.48 119.034 1643.48C109.678 1643.48 102.094 1650.8 102.094 1659.83C102.094 1668.87 109.678 1676.19 119.034 1676.19Z" fill="#FFAAAC"/>
<path fill-rule="evenodd" clip-rule="evenodd" d="M119.033 1642C120.644 1642.01 126.302 1641.99 131.666 1646.65C141.115 1654.86 139.389 1670.22 127.588 1676.11C115.461 1682.16 100.942 1673.89 100.354 1660.77C100.149 1656.2 101.708 1651.81 104.713 1648.37C110.684 1641.53 118.915 1642 119.033 1642ZM119.033 1643.49C109.684 1643.49 102.093 1650.81 102.093 1659.83C102.093 1668.87 109.684 1676.19 119.033 1676.19C128.382 1676.19 135.973 1668.87 135.973 1659.83C135.973 1650.81 128.382 1643.49 119.033 1643.49Z" fill="#282603"/>
<path fill-rule="evenodd" clip-rule="evenodd" d="M87.6273 1935.89C67.3533 1980.21 94.0913 2040.6 108.83 2082.62C130.876 2145.47 174.606 2310.54 255.126 2393.87C341.146 2482.89 462.002 2482.66 479.449 2477.92C393.798 2536.45 147.362 2631.44 32.3744 2059.77C18.6384 1928.61 23.6964 1788.3 35.9824 1644.22C36.7364 1635.38 27.4354 1624.83 27.7544 1615.95C28.3634 1599.02 42.3253 1597.15 43.3463 1587.4C45.3793 1567.99 49.0543 1549.39 46.7233 1528.22C41.9033 1484.45 31.1674 1443.43 19.7344 1407.11L48.6763 1461.95C47.4253 1485.59 56.9093 1494.57 68.8503 1500.18L91.3973 1542.91C71.8593 1562.2 74.9183 1581.49 92.8153 1600.77C51.7413 1587.03 49.2753 1649.52 79.3293 1633.89L94.0213 1650.03L92.3223 1694.18C52.7073 1707.94 45.3623 1719.92 90.9833 1728.96L89.0463 1779.3C61.7453 1800.71 56.3223 1822.51 79.4743 1844.79L73.4563 1885.97C52.2463 1909.12 62.8133 1936.06 87.6273 1935.89Z" fill="black" fill-opacity="0.3"/>
</g>
<defs>
<clipPath id="clip0_1998_637">
<rect width="2160" height="2700" fill="white"/>
</clipPath>
</defs>
</svg>
