<svg width="2160" height="2700" viewBox="0 0 2160 2700" fill="none" xmlns="http://www.w3.org/2000/svg">
<g clip-path="url(#clip0_2055_512)">
<path fill-rule="evenodd" clip-rule="evenodd" d="M626.151 1315.99C626.151 1315.99 293.317 1074.01 256.741 931.329C220.166 788.645 406.699 459.887 406.699 459.887C406.699 459.887 547.14 80.4343 454.068 69.7342C304.577 52.5484 -238.584 433.612 -238.584 433.612L-295.008 2106.08L73.7693 1536.51L147.807 1813.93L214.57 1585.86L279.538 1761.19L373.329 1565.5L386.513 1787.17L506.56 1564.24L558.527 1790.17L626.151 1315.99Z" fill="#808080" stroke="black" stroke-width="9.00035" stroke-miterlimit="1.5" stroke-linecap="square" stroke-linejoin="round"/>
<path fill-rule="evenodd" clip-rule="evenodd" d="M240.138 488.772C240.037 489.715 240.867 490.605 240.766 491.548C240.706 492.105 240.158 492.524 239.701 492.848C239.701 492.848 236.812 493.41 233.398 493.991C190.817 501.242 170.352 493.487 164.421 491.375C150.236 486.324 140.56 479.136 134.866 474.269C133.06 472.725 130.672 470.384 130.668 470.368C130.514 469.759 130.442 469.13 130.288 468.52C130.914 468.58 131.547 468.398 132.172 468.458C132.365 468.476 141.159 474.524 155.731 479.14C157.847 479.81 159.17 480.298 165.579 481.921C169.036 482.796 186.698 486.67 200.787 488.333C211.583 489.608 222.647 490.554 239.465 490.483L240.138 488.772Z" fill="white"/>
<path d="M256.44 463.347C317.156 437.852 348.588 374.825 326.646 322.57C304.705 270.316 237.698 248.623 176.983 274.118C116.268 299.612 84.8355 362.64 106.777 414.894C128.719 467.148 195.725 488.841 256.44 463.347Z" fill="#636363" stroke="black" stroke-width="10" stroke-miterlimit="1.5" stroke-linecap="round" stroke-linejoin="round"/>
<path fill-rule="evenodd" clip-rule="evenodd" d="M575.007 1855.83L564.761 1875.43C561.978 1880.76 556.661 1884.28 550.675 1884.78C544.686 1885.27 538.862 1882.66 535.242 1877.87L269.904 1526.29L297.883 1505.17L308.441 1519.16L546.533 1834.64L550.993 1826.11L385.06 1597.61C379.562 1590.04 380.981 1579.48 388.286 1573.63L467.043 1510.55C471.484 1507 477.375 1505.82 482.843 1507.39C488.312 1508.96 492.676 1513.09 494.549 1518.47L625.283 1893.58C626.879 1898.15 626.512 1903.17 624.274 1907.45L572.451 2006.81C569.652 2012.18 564.275 2015.72 558.236 2016.18C552.196 2016.64 546.346 2013.94 542.768 2009.06L154.593 1478.7L182.878 1458L554.407 1965.61L589.691 1897.96L575.007 1855.83ZM537.275 1747.57L469.607 1553.41L423.246 1590.54L537.275 1747.57Z" fill="#636769" stroke="black" stroke-width="9.99799" stroke-miterlimit="2" stroke-linejoin="round"/>
<path fill-rule="evenodd" clip-rule="evenodd" d="M-91.7436 684.254L44.2883 678.322L-125.592 1173.7L92.1168 929.032C92.1168 929.032 -114.519 1339.75 -82.2032 1309.75C-49.8863 1279.75 58.8548 1191.16 58.8548 1191.16L29.5087 1512.71L125.008 1356.16L152.153 1592.43L228.769 1397.59L257.969 1624.32L349.894 1446.84" fill="#636363"/>
<path fill-rule="evenodd" clip-rule="evenodd" d="M81.4704 941.37C13.4 1019.66 -54.6306 1097.98 -122.705 1176.27C-123.957 1177.71 -126.422 1178.05 -128.082 1176.65C-129.312 1175.61 -129.73 1173.84 -129.244 1172.45C-71.9571 1008.13 -14.6135 843.842 42.673 679.53L-95.0961 687.91L-95.4014 680.904C43.8774 674.757 43.922 674.492 45.2796 674.881C47.0017 675.376 48.1212 677.155 47.8222 678.923C47.4722 680.995 47.1776 680.919 -125.209 1173.04C-53.5518 1090.71 17.9723 1008.25 89.6298 925.92C89.8185 925.703 91.541 924.597 93.4544 925.278C95.3556 925.955 96.8554 928.302 95.6787 930.822C95.4422 931.329 -60.0104 1240.46 -79.7191 1301.98C-72.318 1295.31 -55.7426 1280.73 -16.9975 1248.43C19.6457 1217.89 56.2647 1188.06 56.3027 1188.03C59.0577 1185.9 62.6486 1187.83 62.8796 1190.85C62.8969 1191.07 62.8761 1191.3 62.8745 1191.52C62.685 1217.29 60.2317 1217.11 29.7909 1511.86C60.5961 1459.14 91.2537 1406.33 122.057 1353.6C122.185 1353.39 123.594 1352.03 125.529 1352.29C125.823 1352.33 127.618 1352.57 128.525 1354.48C128.617 1354.67 128.732 1354.87 128.753 1355.08C136.648 1433.88 144.378 1512.71 152.272 1591.51C176.637 1526.43 200.947 1461.32 225.312 1396.24C225.994 1394.42 228.348 1393.26 230.394 1394.26C231.767 1394.93 232.3 1396.36 232.319 1396.52C240.984 1472.1 249.491 1547.69 258.157 1623.27L348.391 1442.11L354.621 1445.33C261.361 1625.6 261.632 1625.81 260.433 1626.94C258.706 1628.57 255.822 1628.06 254.752 1625.94C254.662 1625.76 254.549 1625.58 254.525 1625.38C245.849 1549.76 237.332 1474.13 228.656 1398.51C155.752 1593.67 155.825 1593.7 155.416 1594.39C154.016 1596.72 150.599 1596.85 149.034 1594.62C148.975 1594.53 148.534 1593.91 148.491 1593.48C140.517 1514.79 132.709 1436.09 124.735 1357.39C94.1022 1409.85 63.527 1462.33 32.8939 1514.78C32.1126 1516.11 30.1674 1517.11 28.263 1516.48C26.4287 1515.87 25.3872 1513.99 25.5538 1512.35C36.2258 1407.36 46.9554 1302.37 57.6285 1197.37C-62.27 1295.45 -78.285 1311.93 -80.5902 1313.72C-85.2586 1317.34 -89.1258 1314.5 -89.6214 1310.85C-90.1879 1306.67 -90.5912 1295.09 -15.2519 1138.16C22.8971 1058.69 64.6004 975.067 81.4704 941.37Z" fill="black"/>
<path fill-rule="evenodd" clip-rule="evenodd" d="M10.4601 578.302L147.072 550.699L-89.7495 918.398L112.892 756.112C112.892 756.112 -120.905 1081.88 -82.0671 1060.99C-43.2292 1040.11 84.3358 981.801 84.3358 981.801L-42.8959 1253.28L129.085 1095.23L54.6643 1454.49L210.44 1214.2L167.796 1451.18L301.503 1302.6" fill="#808080"/>
<path fill-rule="evenodd" clip-rule="evenodd" d="M101.005 765.999C38.2072 817.782 -24.5595 869.602 -87.3619 921.381C-88.9323 922.675 -91.6297 922.459 -92.9239 920.516C-93.9793 918.931 -93.3974 917.114 -93.2518 916.891C-13.572 795.06 66.241 673.316 145.921 551.485L7.71498 582.435L6.32638 575.561C146.103 547.243 146.108 546.956 147.554 547.152C149.87 547.465 151.287 549.963 150.368 552.113C150.289 552.296 150.197 552.475 150.087 552.642C70.2941 674.419 -9.5453 796.166 -89.3389 917.943C-22.732 862.996 43.8329 807.998 110.44 753.051C111.671 752.035 113.817 751.829 115.342 753.048C116.746 754.17 117.207 756.216 116.421 757.832C116.138 758.413 112.317 763.575 94.7849 788.317C23.3111 889.186 -69.7193 1024.37 -81.3453 1056.05C-74.8477 1052.62 -57.0482 1043.34 -3.50282 1018.11C39.639 997.779 82.5958 978.13 82.6455 978.109C85.7527 976.786 88.6372 979.322 88.3811 982.167C88.3708 982.279 88.3148 982.904 88.0138 983.526C44.5517 1073.24 1.02647 1162.93 -42.4357 1252.65C13.8561 1199.22 70.101 1145.74 126.393 1092.31C127.537 1091.22 129.685 1090.82 131.329 1091.95C132.986 1093.09 133.115 1095.1 133.056 1095.38C107.071 1214.88 80.9176 1334.33 54.9331 1453.84C105.747 1373.29 156.507 1292.71 207.321 1212.17C208.293 1210.63 210.587 1209.93 212.376 1211.03C214.009 1212.02 214.204 1213.95 214.151 1214.22C198.899 1292.92 183.481 1371.59 168.23 1450.29L301.241 1297.65L306.457 1302.34C170.756 1453.26 170.968 1453.55 169.497 1454.34C167.359 1455.5 164.651 1454.17 164.246 1451.78C164.211 1451.57 164.156 1451.36 164.195 1451.15C179.465 1372.38 194.9 1293.65 210.171 1214.88C159.389 1295.43 108.663 1376.02 57.8824 1456.57C57.0066 1457.97 54.9967 1458.77 53.2053 1458.04C51.1739 1457.21 50.9053 1455.33 50.8622 1455.03C50.8304 1454.82 50.7781 1454.58 50.825 1454.37C76.6531 1335 102.654 1215.66 128.483 1096.29L-40.174 1256.24C-41.1797 1257.19 -43.0693 1257.68 -44.686 1256.88C-46.3712 1256.04 -47.274 1254.03 -46.7795 1252.21C-46.7191 1251.99 -46.6414 1251.77 -46.5411 1251.57C-4.08146 1163.65 38.437 1075.76 80.8988 987.845C-59.7283 1052.41 -78.8911 1064.1 -81.5594 1065.22C-86.9774 1067.51 -90.5522 1064.31 -90.4492 1059.77C-90.3106 1053.66 -84.1824 1035.48 -15.7296 933.742C27.952 868.818 80.0354 795.408 101.005 765.999Z" fill="black"/>
<path d="M93.8006 1027.33C128.289 1027.33 156.248 1000.42 156.248 967.229C156.248 934.036 128.289 907.127 93.8006 907.127C59.3118 907.127 31.353 934.036 31.353 967.229C31.353 1000.42 59.3118 1027.33 93.8006 1027.33Z" fill="#989CA0"/>
<path fill-rule="evenodd" clip-rule="evenodd" d="M93.8004 897.127C133.889 897.127 166.247 928.646 166.247 967.23C166.247 1005.81 133.889 1037.33 93.8004 1037.33C53.7119 1037.33 21.3525 1005.81 21.3525 967.23C21.3525 928.646 53.7119 897.127 93.8004 897.127ZM93.8004 907.127C59.3346 907.127 31.3528 934.058 31.3528 967.23C31.3528 1000.4 59.3346 1027.33 93.8004 1027.33C128.266 1027.33 156.248 1000.4 156.248 967.23C156.248 934.058 128.266 907.127 93.8004 907.127Z" fill="black"/>
<path d="M152.456 935.049L196.358 919.572L194.124 855.332L243.278 850.531" stroke="black" stroke-width="9.99799" stroke-miterlimit="1.5" stroke-linecap="round" stroke-linejoin="round"/>
<path fill-rule="evenodd" clip-rule="evenodd" d="M239.249 798.29C189.283 823.211 392.121 404.055 459.77 99.8535C471.361 152.251 428.86 322.547 383.497 437.758L239.249 798.29Z" fill="white"/>
<path fill-rule="evenodd" clip-rule="evenodd" d="M229.108 865.59C231.406 958.075 283.861 1036.93 348.328 1088.41L282.863 1124.54L213.024 974.882L229.108 865.59Z" fill="white"/>
<path fill-rule="evenodd" clip-rule="evenodd" d="M306.016 1032.36L274.352 989.064C207.32 1015.58 173.161 1050.99 161.86 1124.24L187.347 1151.89C224.975 1074.5 245.983 1063.38 306.016 1032.36Z" fill="#8DCCB5" fill-opacity="0.5" stroke="black" stroke-width="9.99799" stroke-miterlimit="1.5" stroke-linecap="round" stroke-linejoin="round"/>
<path fill-rule="evenodd" clip-rule="evenodd" d="M272.515 1029.02C265.627 1012.68 265.627 1012.68 265.627 1012.68C265.701 1012.31 265.868 1011.97 265.942 1011.6C266.201 1011.94 266.874 1011.75 267.133 1012.09C267.465 1012.53 278.088 1028.9 278.26 1029.23C278.93 1030.49 278.169 1031.97 277.416 1032.46C267.48 1038.95 262.65 1042.13 248.593 1048.8C242.871 1051.52 232.056 1056.31 231.868 1056.36C231.462 1056.47 231.034 1056.03 230.628 1056.14C230.916 1055.84 230.759 1055.26 231.047 1054.96C231.131 1054.88 245.942 1043.65 254.243 1038.58C258.368 1036.06 263.614 1033.42 264.445 1033C267.125 1031.65 269.835 1030.37 272.515 1029.02Z" fill="white"/>
<path fill-rule="evenodd" clip-rule="evenodd" d="M1099.1 2240.61C1055.84 2471.86 1005.89 2643.72 924.653 2759.65C855.604 2608.94 889.572 2477.7 902.441 2340.84C870.267 2436.46 830.629 2527.49 774.246 2608.23C753.37 2521.24 748.443 2443.77 754.989 2373.17C733.931 2435.88 700.192 2494.87 651.784 2549.53C623.723 2460.42 614.331 2379.15 621.549 2304.87C598.618 2377 562.014 2443.65 516.436 2506.7L503.97 2285.22L331.353 2369.22C369.785 2204.39 463.727 2070.59 531.611 1934.85L1076.93 2157.2L1572.26 1915.72C1674.92 2022.47 1803.82 2128.93 1893.74 2345.09L1654.95 2229.38C1672.3 2286.66 1726.61 2400.32 1743.01 2486.57C1682.86 2434.44 1516.65 2361.19 1486.58 2297.54C1489.64 2369.2 1483.68 2497.29 1470.38 2572.13C1403.7 2494.49 1371.31 2404.81 1351.89 2310.59C1354.85 2454.41 1352.4 2598.51 1309.73 2744.72C1199.61 2573.99 1138.34 2462.7 1099.1 2240.61Z" fill="#8D8D8D" stroke="black" stroke-width="9.99799" stroke-miterlimit="1.5" stroke-linecap="square" stroke-linejoin="round"/>
<path fill-rule="evenodd" clip-rule="evenodd" d="M1701.53 2067.76L1694.35 2077.89L1825.96 2241.15L1701.53 2067.76Z" fill="white"/>
<path fill-rule="evenodd" clip-rule="evenodd" d="M1240.81 2196.86C1239.19 2453.59 1155.52 2709.19 1094.02 2933.76C1012.65 2697.8 1003.81 2458.18 975.951 2213.7L868.438 2512.4L833.616 2185.91L670.013 2422.67L672.311 2184.76L545.586 2371.17L574.103 2149.63L472.01 2257.1L519.672 1974.81L704.866 1864.88L903.492 2052.75L1347.45 2044.35L1501.07 1811.39L1548.82 1891.87C1610.96 2042.5 1779.82 2288.05 1779.82 2288.05L1575.88 2118.94L1492.51 2092.46L1549.56 2335.91L1396.41 2160.31L1400.69 2446.43L1240.81 2196.86Z" fill="#808080" stroke="black" stroke-width="9.99799" stroke-miterlimit="1.5" stroke-linecap="square" stroke-linejoin="round"/>
<path fill-rule="evenodd" clip-rule="evenodd" d="M1573.93 1199.67C1573.93 1199.67 1934.75 986.081 1971.33 843.4C2007.9 700.716 1592.15 276.624 1619.54 116.354C1646.93 -43.916 2468.8 314.949 2468.8 314.949L2495.09 1989.76L2126.31 1420.19L2052.28 1697.61L1985.51 1469.54L1920.55 1644.87L1826.75 1449.18L1813.57 1670.85L1693.52 1447.93L1641.56 1673.86L1573.93 1199.67Z" fill="#808080" stroke="black" stroke-width="9.00035" stroke-miterlimit="1.5" stroke-linecap="square" stroke-linejoin="round"/>
<path fill-rule="evenodd" clip-rule="evenodd" d="M2001.81 893.918C2001.59 894.486 2002.02 895.176 2001.8 895.744C2001.78 895.8 1997.87 901.996 1995.21 906.027C1987.07 918.348 1982.07 923.64 1980.76 925.029C1980.03 925.802 1977.02 928.993 1971.24 934.296C1965.1 939.935 1952.68 950.391 1952.62 950.399C1952.06 950.462 1951.36 950.862 1950.94 950.488C1950.52 950.113 1950.59 949.304 1950.85 948.809C1950.93 948.657 1957.2 939.369 1961.63 933.091C1962.72 931.548 1970.22 920.91 1976.3 914.601C1980.03 910.735 1985.5 905.996 1986.33 905.279C1990.9 901.311 1999.79 894.222 2000 894.118C2000.54 893.841 2001.27 894.195 2001.81 893.918Z" fill="white"/>
<path fill-rule="evenodd" clip-rule="evenodd" d="M179.207 862.703C179.559 863.177 180.187 863.397 180.539 863.871C180.571 863.915 182.144 867.435 183.078 869.752C185.955 876.893 186.13 880.562 186.176 881.535C186.201 882.075 186.307 884.289 185.933 888.289C185.538 892.525 184.086 900.811 184.038 900.873C183.693 901.314 183.525 902.115 182.968 902.168C182.41 902.221 181.943 901.588 181.672 901.098C181.61 900.986 179.538 895.551 178.282 891.827C177.975 890.918 175.825 884.544 175.706 880.109C175.633 877.392 176.183 873.688 176.265 873.134C176.72 870.072 178.031 864.285 178.119 864.102C178.375 863.57 178.95 863.235 179.207 862.703Z" fill="white"/>
<path fill-rule="evenodd" clip-rule="evenodd" d="M71.811 920.021C72.153 919.576 72.315 919.011 72.656 918.566C72.67 918.549 75.317 917.475 77.556 916.818C83.836 914.975 96.453 912.387 112.098 917.382C126.936 922.118 142.635 936.08 146.756 953.438C148.284 959.877 147.46 965.425 147.448 965.44C147.09 965.872 146.593 966.174 146.236 966.605C145.892 966.164 145.415 965.837 145.071 965.396C144.883 965.154 145.136 952.535 130.513 939.938C128.289 938.022 122.009 932.473 106.947 926.046C106.281 925.762 101.302 923.7 96.146 922.439C96.039 922.413 91.952 921.298 86.57 920.724C80.91 920.121 76.173 920.52 73.264 920.864C72.384 920.968 72.58 920.466 71.811 920.021Z" fill="white"/>
<path fill-rule="evenodd" clip-rule="evenodd" d="M1712.96 350.219C1839.29 473.611 1939.45 618.187 2026.26 781.801C2007.22 845.807 1996.73 902.432 1934 928.98C1955.35 886.488 1979.88 847.274 1974.02 776.76C1903.24 626.167 1811.56 486.403 1712.96 350.219Z" fill="black" fill-opacity="0.3"/>
<path fill-rule="evenodd" clip-rule="evenodd" d="M1683.71 210.45C1683.71 210.45 1634.16 122.899 1655.6 106.133C1677.03 89.3668 1812.33 109.854 1812.33 109.854C1722.26 105.748 1661.54 124.831 1683.71 210.45Z" fill="white"/>
<path d="M1905.93 415.702C1971.78 415.702 2025.16 369.759 2025.16 313.086C2025.16 256.412 1971.78 210.469 1905.93 210.469C1840.08 210.469 1786.69 256.412 1786.69 313.086C1786.69 369.759 1840.08 415.702 1905.93 415.702Z" fill="#636363" stroke="black" stroke-width="9.99999" stroke-miterlimit="1.5" stroke-linecap="round" stroke-linejoin="round"/>
<path fill-rule="evenodd" clip-rule="evenodd" d="M1883.17 229.187C1882.87 229.468 1882.95 230.014 1882.65 230.295C1882.56 230.387 1869.67 238.816 1861.95 242.208C1853.26 246.028 1834.87 251.129 1834.85 251.122C1834.49 251.008 1833.95 251.055 1833.81 250.713C1833.66 250.371 1833.91 249.893 1834.22 249.67C1834.34 249.578 1850.52 239.627 1859.19 235.875C1866.92 232.528 1881.87 228.818 1882.01 228.81C1882.41 228.785 1882.76 229.212 1883.17 229.187Z" fill="white"/>
<path fill-rule="evenodd" clip-rule="evenodd" d="M319.616 391.477C319.125 391.282 318.538 391.452 318.047 391.257C317.92 391.206 320.02 376.449 317.53 359.373C316.076 349.401 311.609 324.209 288.441 302.881C262.184 278.71 224.378 272.336 199.875 280.142C199.403 280.292 199.409 280.321 199.354 280.31C198.797 280.202 198.895 279.95 198.337 279.841C198.565 279.545 198.58 279.119 198.808 278.823C198.884 278.725 201.245 277.888 201.459 277.812C230.907 267.375 277.946 275.832 303.838 309.45C309.741 317.115 316.611 329.295 319.856 345.213C322.283 357.114 323.163 372.336 319.616 391.477Z" fill="white"/>
<path fill-rule="evenodd" clip-rule="evenodd" d="M1614.03 1798.29L1626.03 1816.87C1629.3 1821.91 1634.92 1824.93 1640.92 1824.87C1646.93 1824.82 1652.49 1821.68 1655.65 1816.58L1887.49 1442.06L1857.69 1423.61L1848.46 1438.51L1640.43 1774.57L1635.2 1766.49L1779.39 1523.68C1784.17 1515.63 1781.78 1505.25 1773.97 1500.1L1689.74 1444.54C1684.99 1441.41 1679.02 1440.78 1673.72 1442.85C1668.42 1444.91 1664.45 1449.43 1663.08 1454.95L1567.44 1840.51C1566.27 1845.2 1567.1 1850.17 1569.72 1854.23L1630.47 1948.4C1633.76 1953.48 1639.44 1956.52 1645.49 1956.42C1651.55 1956.32 1657.12 1953.09 1660.24 1947.9L2062.74 1314.77L2032.67 1296.76L1644.65 1905.71L1603.29 1841.6L1614.03 1798.29ZM1641.63 1687.01L1691.13 1487.45L1740.72 1520.15L1641.63 1687.01Z" fill="#636769" stroke="black" stroke-width="9.99799" stroke-miterlimit="2" stroke-linejoin="round"/>
<path fill-rule="evenodd" clip-rule="evenodd" d="M2293.28 663.587L2159.17 640.073L2263.4 1153.29L2079.25 882.468C2079.25 882.468 2230.9 1316.51 2202.75 1282.57C2174.59 1248.63 2078.25 1146.69 2078.25 1146.69L2065.67 1469.34L1991.27 1301.73L1933.73 1532.48L1883.01 1329.36L1824.67 1550.39L1756.52 1362.49" fill="#636363"/>
<path fill-rule="evenodd" clip-rule="evenodd" d="M2078.66 1153.01C2075.63 1258.51 2072.66 1364 2069.64 1469.49C2069.58 1471.41 2067.92 1473.26 2065.75 1473.31C2063.98 1473.35 2062.54 1472.13 2062.04 1470.95C2038.47 1414.97 2014.95 1358.97 1991.38 1302.99C1973.27 1379.98 1955.33 1457.01 1937.22 1534C1937.16 1534.25 1936.24 1535.93 1934.35 1536.24C1932.28 1536.59 1930.43 1535.11 1930.03 1533.4C1914.34 1465.7 1898.7 1397.99 1883 1330.29C1864.6 1404.14 1846.35 1478.04 1827.95 1551.89C1827.88 1552.13 1826.95 1553.73 1825.13 1553.96C1824.85 1554 1823.15 1554.22 1821.88 1552.67C1820.84 1551.4 1821.14 1551.22 1752.03 1360.38L1758.63 1357.99L1824.62 1549.32C1843.01 1475.51 1861.24 1401.66 1879.63 1327.84C1879.69 1327.6 1880.6 1325.99 1882.43 1325.7C1884.45 1325.37 1886.23 1326.82 1886.61 1328.47C1902.34 1396.16 1918 1463.87 1933.73 1531.56C1951.77 1454.45 1969.65 1377.29 1987.69 1300.17C1987.75 1299.92 1988.69 1298.21 1990.61 1297.88C1992.69 1297.53 1993.92 1298.85 1994.12 1299.07C1994.27 1299.23 1994.44 1299.38 1994.52 1299.58C2018.23 1355.85 2041.79 1412.19 2065.5 1468.46L2074.22 1146.54C2074.26 1144.88 2075.55 1143.11 2077.48 1142.73C2079.6 1142.32 2080.97 1143.7 2081.19 1143.92C2081.23 1143.96 2135.57 1201.45 2174.43 1244.29C2189.23 1260.61 2197.05 1269.58 2201.32 1274.58C2196.71 1249.11 2172.57 1168.73 2117.27 1005.5C2100.27 955.322 2083.93 908.055 2075.91 885.024C2075.86 884.874 2075.37 883.457 2075.31 883.128C2074.88 880.527 2077.13 878.181 2079.75 878.514C2081.03 878.678 2082.04 879.584 2082.12 879.704C2142.5 970.633 2202.73 1061.66 2263.11 1152.59C2227.31 981.984 2191.46 811.391 2155.65 640.786C2155.26 638.891 2156.57 636.843 2158.63 636.532C2160.03 636.322 2160.04 636.591 2297.34 660.74L2296.13 667.647L2160.61 641.48C2196.12 811.831 2231.68 982.17 2267.19 1152.52C2267.65 1154.74 2265.98 1157.01 2263.62 1157.15C2261.97 1157.24 2260.73 1156.13 2260.63 1155.98C2203.1 1069.37 2145.71 982.669 2088.19 896.052C2113.4 968.644 2207.64 1241.86 2210.24 1279.97C2210.33 1281.35 2210.86 1286.84 2206.74 1288.27C2202.74 1289.65 2199.68 1285.24 2198.95 1284.37C2172.53 1252.76 2093.22 1168.46 2078.66 1153.01Z" fill="black"/>
<path fill-rule="evenodd" clip-rule="evenodd" d="M2205.68 545.283L2073.79 500.205L2260.96 895.499L2081.06 708.315C2081.06 708.315 2270.66 1061.64 2234.85 1035.9C2199.05 1010.15 2080.12 935.801 2080.12 935.801L2171.09 1221.48L2021.05 1042.48L2048.27 1408.35L1924.96 1149.89L1936.52 1390.4L1823.2 1225.75" fill="#808080"/>
<path fill-rule="evenodd" clip-rule="evenodd" d="M2082.74 942.235C2113.45 1034.91 2144.22 1127.58 2174.93 1220.26C2175.46 1221.88 2174.8 1224.03 2173.03 1225C2171.61 1225.78 2169.73 1225.6 2168.5 1224.55C2168.32 1224.4 2168.15 1224.24 2168.01 1224.06C2119.15 1163.93 2070.36 1103.74 2021.51 1043.6C2031.64 1165.32 2041.96 1287.01 2052.09 1408.73C2052.11 1408.92 2051.82 1410.56 2050.46 1411.5C2048.76 1412.68 2046.34 1412.25 2045.15 1410.57C2045.02 1410.39 2044.9 1410.2 2044.81 1410C2004.9 1323.54 1965.05 1237.06 1925.14 1150.6C1930.07 1230.68 1935.17 1310.76 1940.1 1390.84C1940.11 1391.11 1939.67 1392.95 1937.96 1393.7C1937.7 1393.81 1936.09 1394.51 1934.43 1393.32C1933.07 1392.35 1933.32 1392.08 1818.32 1224.84L1824.1 1220.87L1936.21 1389.46C1931.29 1309.45 1926.2 1229.45 1921.27 1149.43C1921.26 1149.16 1921.7 1147.27 1923.45 1146.49C1925.36 1145.64 1927.55 1146.63 1928.31 1148.29C1968.26 1234.74 2008.14 1321.21 2048.09 1407.66C2037.81 1285.8 2027.37 1163.96 2017.09 1042.11C2017.07 1041.82 2017.46 1039.84 2019.25 1038.93C2021.02 1038.02 2023.1 1038.69 2024.09 1039.92C2072.99 1100.2 2121.82 1160.52 2170.71 1220.79C2139.25 1126.2 2107.72 1031.63 2076.25 937.034C2075.79 935.652 2076.2 933.706 2077.63 932.593C2078.43 931.976 2080.27 931.18 2082.28 932.359C2082.29 932.366 2196.32 1003.68 2234.81 1030.91C2231.46 1016.02 2212.73 975.897 2212.15 974.638C2174.65 893.205 2102.2 756.171 2078.14 711.181C2078.07 711.054 2077.44 709.872 2077.34 709.563C2076.52 707.113 2078.33 704.494 2080.91 704.395C2082.7 704.327 2083.71 705.41 2083.89 705.598C2142.81 768.715 2201.68 831.877 2260.61 894.994C2197.27 763.901 2133.89 632.832 2070.55 501.74C2069.9 500.38 2070.21 498.479 2071.56 497.407C2071.74 497.262 2072.8 496.414 2074.37 496.672C2075.07 496.786 2075.05 496.852 2210.13 543.1L2207.86 549.736L2074.83 501.133C2138.05 632.264 2201.41 763.327 2264.62 894.458C2264.74 894.698 2265.08 896.575 2263.83 898.009C2262.29 899.769 2259.59 899.634 2258.2 898.146C2202.64 838.664 2147.12 779.144 2091.56 719.657C2126.15 784.598 2236.36 993.242 2243.02 1031C2243.24 1032.21 2244.64 1038.88 2239.9 1040.86C2236.24 1042.39 2232.66 1039.27 2230.78 1037.94C2197.28 1014.16 2102.05 954.334 2082.74 942.235Z" fill="black"/>
<path d="M1976.69 774.036L2051.2 749.697L2057.49 802.577L2197.06 857.756" stroke="black" stroke-width="9.99999" stroke-miterlimit="1.5" stroke-linecap="round" stroke-linejoin="round"/>
<path d="M2121.37 942.914C2155.86 942.914 2183.82 916.005 2183.82 882.811C2183.82 849.618 2155.86 822.709 2121.37 822.709C2086.88 822.709 2058.92 849.618 2058.92 882.811C2058.92 916.005 2086.88 942.914 2121.37 942.914Z" fill="#989CA0"/>
<path fill-rule="evenodd" clip-rule="evenodd" d="M2121.37 812.709C2161.46 812.709 2193.82 844.228 2193.82 882.812C2193.82 921.395 2161.46 952.914 2121.37 952.914C2081.28 952.914 2048.92 921.395 2048.92 882.812C2048.92 844.228 2081.28 812.709 2121.37 812.709ZM2121.37 822.709C2086.9 822.709 2058.92 849.64 2058.92 882.812C2058.92 915.983 2086.9 942.914 2121.37 942.914C2155.84 942.914 2183.82 915.983 2183.82 882.812C2183.82 849.64 2155.84 822.709 2121.37 822.709Z" fill="black"/>
<path fill-rule="evenodd" clip-rule="evenodd" d="M1865.83 986.523L1905.77 950.715C1965.87 990.518 1991.96 1032.23 1987.87 1106.24L1957.21 1128.01C1936.41 1044.52 1918.15 1029.29 1865.83 986.523Z" fill="#8DCCB5" fill-opacity="0.5" stroke="black" stroke-width="9.99799" stroke-miterlimit="1.5" stroke-linecap="round" stroke-linejoin="round"/>
<path fill-rule="evenodd" clip-rule="evenodd" d="M2230.22 1097.62L2201.87 870.625L2009.74 1155.42L2114.17 1167.56L2011.76 1356.89L1855.31 1487.59L1871.88 1548.8L1827.94 1665.32L1892.89 1582.05L1919.33 1626.64L1991.84 1470.51L2050.02 1646.37L2230.22 1097.62Z" fill="black" fill-opacity="0.3"/>
<path fill-rule="evenodd" clip-rule="evenodd" d="M2276.7 475.14L2436.9 269.874C2271.18 111.027 2055.99 59.5835 1820.63 51.9531L1974.11 378.182L2276.7 475.14Z" fill="#A4A4A4" stroke="black" stroke-width="11.001" stroke-miterlimit="1.5" stroke-linecap="square" stroke-linejoin="round"/>
<path fill-rule="evenodd" clip-rule="evenodd" d="M1911.81 174.046C1914.27 60.4922 2187.59 163.275 2373.44 226.283C2219.26 154.902 2064.36 104.144 1878.73 83.9922L1911.81 174.046Z" fill="white"/>
<path fill-rule="evenodd" clip-rule="evenodd" d="M1870.76 1014.91C1870.62 1016.13 1870.39 1017.29 1869.65 1018.19C1869.61 1018.25 1853.8 1031.65 1841.01 1042.27C1837.58 1045.11 1824.92 1055.62 1797.99 1077.51C1797.83 1077.64 1775.16 1095.96 1775.16 1095.96C1774.6 1096.04 1773.85 1096.28 1773.48 1095.86C1772.6 1094.85 1773.09 1094.65 1774.07 1093.73C1781.27 1086.89 1788.45 1080.04 1795.67 1073.22C1800.18 1068.96 1831.05 1039.8 1852.31 1020.36C1855.72 1017.24 1868.31 1005.85 1868.64 1005.56C1870.52 1003.95 1872.85 1004.08 1874.3 1004.8C1875.08 1005.18 1882.31 1010.31 1890.48 1018.64C1918.27 1046.95 1941.04 1091.16 1943.72 1111.01C1943.79 1111.53 1943.81 1111.53 1943.79 1111.57C1943.43 1112.34 1943.17 1112.18 1942.82 1112.94C1942.39 1112.58 1941.87 1112.34 1941.45 1111.97C1941.37 1111.91 1939.36 1098.67 1919.3 1069.22C1910.45 1056.23 1899.18 1042.11 1888.87 1031.5C1882.36 1024.8 1877.09 1019.85 1870.76 1014.91ZM1871.81 1010.45L1872.03 1010.14C1871.95 1010.24 1871.88 1010.34 1871.81 1010.45Z" fill="white"/>
<path fill-rule="evenodd" clip-rule="evenodd" d="M1922.36 979.003C1922.92 979.07 1923.48 978.736 1924.03 978.804C1924.06 978.807 1927.5 980.957 1928.87 981.885C1935.25 986.225 1950.5 996.92 1961.32 1013.52C1966.64 1021.69 1970 1030.84 1970.57 1032.42C1972.65 1038.09 1975.49 1046.99 1977.02 1060.57C1977.63 1066.01 1977.8 1073.87 1977.76 1073.93C1977.45 1074.4 1977.01 1074.77 1976.7 1075.24C1976.01 1074.67 1975.57 1075.05 1975.4 1074.17C1969.86 1046.29 1958.33 1028.11 1950.41 1015.59C1949.32 1013.88 1941.95 1001.89 1930.86 989.427C1926.82 984.883 1923.25 981.35 1922.56 980.671C1921.93 980.044 1922.47 979.887 1922.36 979.003Z" fill="white"/>
<path fill-rule="evenodd" clip-rule="evenodd" d="M1794.17 372.01C1795.03 372.256 1795.29 371.722 1795.78 372.471C1816.67 404.335 1843.51 416.329 1872.14 422.603C1882.79 424.935 1903.8 428.051 1933.01 425.84C1947.77 424.722 1957.42 423.104 1957.48 423.131C1957.99 423.367 1958.37 423.82 1958.88 424.056C1958.51 424.472 1958.33 425.042 1957.95 425.459C1957.87 425.549 1951.79 427.03 1951.26 427.16C1902.96 438.918 1871.89 434.828 1851.74 427.707C1838.95 423.188 1829.39 416.384 1827.62 415.122C1822.34 411.364 1809.09 401.486 1797.92 381.84C1795.78 378.078 1793.7 373.654 1793.71 373.628C1793.75 373.069 1794.12 372.569 1794.17 372.01Z" fill="white"/>
<path fill-rule="evenodd" clip-rule="evenodd" d="M-304.127 722.025L-503.054 459.467C-325.318 347.872 -166.25 232.18 172.538 118.397L176.297 407.461L-304.127 722.025Z" fill="#A4A4A4"/>
<mask id="mask0_2055_512" style="mask-type:luminance" maskUnits="userSpaceOnUse" x="-504" y="118" width="681" height="605">
<path d="M-304.127 722.025L-503.054 459.467C-325.318 347.872 -166.25 232.18 172.538 118.397L176.297 407.461L-304.127 722.025Z" fill="white"/>
</mask>
<g mask="url(#mask0_2055_512)">
<path fill-rule="evenodd" clip-rule="evenodd" d="M151.555 154.826L147.198 384.905L130.376 192.837L17.147 198.001L151.555 154.826Z" fill="white"/>
</g>
<path fill-rule="evenodd" clip-rule="evenodd" d="M-304.127 722.025L-503.054 459.467C-325.318 347.872 -166.25 232.18 172.538 118.397L176.297 407.461L-304.127 722.025Z" stroke="black" stroke-width="9.00035" stroke-miterlimit="1.5" stroke-linecap="square" stroke-linejoin="round"/>
<path fill-rule="evenodd" clip-rule="evenodd" d="M778.476 1971.16L913.388 2048.09C913.388 2048.09 620.848 2570.5 571.869 2644.37C555.675 2668.8 441.091 2786.77 442.83 2766.51C444.922 2742.13 449.433 2655.36 482.606 2546.9C545.588 2340.99 655.896 2067.36 655.896 2067.36L778.476 1971.16Z" fill="#777777" stroke="black" stroke-width="9.82763" stroke-miterlimit="1.5" stroke-linecap="round" stroke-linejoin="round"/>
<path fill-rule="evenodd" clip-rule="evenodd" d="M579.983 1987.84L722.866 2081.94C722.866 2081.94 556.163 2281.38 515.134 2337.95C497.957 2361.64 394.016 2426.29 394.016 2426.29C394.016 2426.29 432.204 2247.02 464.77 2180.46C494.519 2119.66 579.983 1987.84 579.983 1987.84Z" fill="#777777" stroke="black" stroke-width="9.82763" stroke-miterlimit="1.5" stroke-linecap="round" stroke-linejoin="round"/>
<path fill-rule="evenodd" clip-rule="evenodd" d="M891.447 2022.29L1039.94 2065.3C1039.94 2065.3 819.917 2599.18 783.802 2680.51C754.504 2746.48 672.056 2835.24 669.478 2815.1C667.064 2796.25 649.688 2713.58 660.091 2646.22C692.808 2434.39 792.981 2097.27 792.981 2097.27L891.447 2022.29Z" fill="#777777" stroke="black" stroke-width="9.86092" stroke-miterlimit="1.5" stroke-linecap="round" stroke-linejoin="round"/>
<path fill-rule="evenodd" clip-rule="evenodd" d="M472.421 2317.9C471.638 2317.35 471.639 2317.29 471.477 2316.35C471.267 2315.14 471.431 2315.12 472.068 2314.07C475.646 2308.14 502.897 2263 518.35 2240.93C520.842 2237.38 532.079 2221.33 550.48 2197.18C562.71 2181.13 579.966 2158.85 580 2158.83C580.536 2158.51 580.995 2157.98 581.611 2157.86C581.629 2157.86 583.396 2158.23 583.401 2158.23C583.722 2158.74 584.249 2159.18 584.356 2159.77C584.58 2161.02 584.378 2161.03 583.71 2162.1C571.096 2182.42 571.135 2182.44 558.358 2202.65C535.312 2239.11 524.284 2254.12 521.106 2258.44C517.591 2263.23 500.651 2286.28 475.839 2317.26C475.214 2318.04 475.179 2318.06 474.195 2318.24C473.259 2318.42 473.204 2318.44 472.421 2317.9Z" fill="black"/>
<path fill-rule="evenodd" clip-rule="evenodd" d="M519.271 2612.96C518.224 2612.42 518.2 2612.36 517.85 2611.24C517.622 2610.51 517.865 2609.7 518.01 2608.96C518.041 2608.8 545.012 2553.08 560.229 2522.2C580.53 2481 591.798 2458.92 594.593 2453.44C611.978 2419.37 640.528 2365.89 644.576 2358.3C668.383 2313.7 715.72 2226.22 715.781 2226.17C716.363 2225.69 716.81 2224.96 717.529 2224.73C718.237 2224.51 719.011 2224.84 719.753 2224.9C721.885 2225.08 721.109 2228.56 721.037 2228.89C721.025 2228.94 690.892 2290.12 669.508 2333.23C623.666 2425.64 604.782 2461.24 598.938 2472.26C592.992 2483.47 563.329 2539.4 523.27 2611.66C522.686 2612.72 522.642 2612.75 521.497 2613.12C520.38 2613.48 520.316 2613.5 519.271 2612.96Z" fill="black"/>
<path fill-rule="evenodd" clip-rule="evenodd" d="M726.479 2682.26C725.348 2681.92 725.312 2681.87 724.755 2680.83C724.397 2680.16 724.475 2679.32 724.492 2678.56C724.497 2678.39 744.181 2606.42 755.36 2566.45C770.274 2513.14 778.658 2484.46 780.737 2477.34C793.672 2433.09 815.247 2363.28 818.307 2353.38C836.3 2295.15 872.238 2180.78 872.289 2180.71C872.768 2180.13 873.069 2179.33 873.731 2178.97C873.746 2178.97 875.965 2178.73 875.972 2178.73C876.55 2179.21 877.343 2179.5 877.698 2180.15C878.057 2180.81 877.997 2181.65 877.959 2182.4C877.956 2182.45 855.822 2261.62 840.074 2317.44C806.315 2437.1 792.075 2483.54 787.668 2497.92C783.185 2512.54 760.816 2585.5 730.166 2680.23C729.795 2681.38 729.759 2681.42 728.703 2682C727.671 2682.57 727.611 2682.59 726.479 2682.26Z" fill="black"/>
<path fill-rule="evenodd" clip-rule="evenodd" d="M1370.27 2012.02L1259.41 2122.31C1259.41 2122.31 1630.24 2543.24 1696.19 2601.51C1718 2620.78 1848.78 2704.79 1841.58 2685.9C1831.52 2659.53 1803.3 2560.18 1740.32 2447.05C1644.04 2274.08 1502.5 2071.82 1502.5 2071.82L1370.27 2012.02Z" fill="#777777" stroke="black" stroke-width="9.81635" stroke-miterlimit="1.5" stroke-linecap="round" stroke-linejoin="round"/>
<path fill-rule="evenodd" clip-rule="evenodd" d="M1598.99 2009.5L1451.95 2104.17C1451.95 2104.17 1664.08 2267.56 1717.99 2311.25C1740.56 2329.53 1827.3 2366.8 1827.3 2366.8C1827.3 2366.8 1751.06 2223.3 1715.51 2161.2C1685.78 2109.29 1598.99 2009.5 1598.99 2009.5Z" fill="#777777" stroke="black" stroke-width="9.81635" stroke-miterlimit="1.5" stroke-linecap="round" stroke-linejoin="round"/>
<path fill-rule="evenodd" clip-rule="evenodd" d="M1432.79 2450.21L1423.43 2563.17L1351.81 2485.4L1272.32 2656.5L1202.31 2535.13L1065.59 2757.26L1024.98 2592.89L942.362 2719.49L913.348 2744.47L873.49 2533.84L844.518 2507.17L716.906 2739.55L645.84 2751.77L687.811 2505.03L636.462 2519.65L448.438 2767.51L531.597 2398.82L509.056 2340.63L394.826 2399.34L414.008 2306.28L337.869 2327L533.695 1923.68L505.922 1813.49L348.218 1622.6L289.821 1748.57L211.72 1576.13L156.126 1814.63L94.5296 1581.29L-46.864 1681.53L-94.3745 962.813C-19.5812 947.596 70.8073 979.199 14.828 1040.28C-16.8361 1074.82 79.4874 1117.14 132.567 1099.07C230.288 1065.81 300.576 1201 387.242 1228.49L778.3 2066.92L1432.79 2450.21Z" fill="black" fill-opacity="0.3"/>
<path fill-rule="evenodd" clip-rule="evenodd" d="M1657.41 2110.1L1652.26 2119.74C1701.19 2173.55 1727.18 2223.59 1762.58 2283.93C1732.27 2219.19 1706.99 2166.16 1657.41 2110.1Z" fill="white"/>
<path fill-rule="evenodd" clip-rule="evenodd" d="M1591.4 2242.35L1647.55 2342.49C1689.34 2399.67 1727.46 2477.74 1762.86 2538.08C1732.55 2473.34 1640.98 2298.41 1591.4 2242.35Z" fill="white"/>
<path fill-rule="evenodd" clip-rule="evenodd" d="M1274.08 2091.54L1141.53 2172.69C1131.59 2176.66 1390.29 2549.37 1482.66 2647.55C1529.91 2697.77 1655.6 2821.46 1653.01 2801.33C1648.93 2769.68 1620.77 2658.07 1569.58 2532.56C1494.39 2348.21 1388.11 2137.67 1388.11 2137.67L1274.08 2091.54Z" fill="#777777" stroke="black" stroke-width="9.82723" stroke-miterlimit="1.5" stroke-linecap="round" stroke-linejoin="round"/>
<path fill-rule="evenodd" clip-rule="evenodd" d="M1476.4 2376.58L1518.74 2483.3C1552.55 2545.53 1579.95 2627.97 1607.01 2692.49C1585.58 2624.29 1518.09 2438.74 1476.4 2376.58Z" fill="white"/>
<path fill-rule="evenodd" clip-rule="evenodd" d="M1552.9 2637.7C1551.88 2638.27 1551.83 2638.26 1550.7 2637.95C1549.97 2637.74 1549.44 2637.11 1548.9 2636.57C1548.78 2636.46 1513.08 2576.67 1493.42 2543.29C1467.2 2498.77 1453.34 2474.56 1449.91 2468.56C1428.53 2431.21 1395.61 2371.48 1390.95 2363C1363.49 2313.19 1309.98 2214.91 1309.97 2214.83C1309.88 2214.09 1309.52 2213.33 1309.72 2212.61C1309.72 2212.59 1311.08 2210.85 1311.09 2210.84C1311.81 2210.76 1312.57 2210.39 1313.28 2210.59C1314 2210.79 1314.56 2211.4 1315.07 2211.95C1315.1 2211.99 1354.05 2278.09 1381.41 2324.8C1440.07 2424.94 1462.05 2464.59 1468.84 2476.87C1475.76 2489.36 1510.28 2551.66 1554 2633.68C1554.56 2634.73 1554.56 2634.79 1554.25 2635.94C1553.94 2637.06 1553.92 2637.12 1552.9 2637.7Z" fill="black"/>
<path fill-rule="evenodd" clip-rule="evenodd" d="M1105.03 2675.41C1104.37 2675.41 1104.34 2675.38 1103.87 2674.9C1103.57 2674.59 1103.46 2674.12 1103.35 2673.7C1103.35 2673.69 1102.52 2651.61 1102.5 2650.98C1101.85 2632.35 1101.21 2613.72 1100.62 2595.09C1100.27 2584.07 1097.94 2510.34 1097.97 2457.2C1097.99 2418.86 1099.21 2364.63 1099.39 2356.58C1100.7 2298.21 1103.54 2211.89 1103.95 2199.3C1103.97 2198.62 1103.99 2198.59 1104.47 2198.11C1104.48 2198.1 1105.64 2197.62 1105.64 2197.62C1106.03 2197.78 1106.51 2197.82 1106.8 2198.12C1107.1 2198.43 1107.22 2198.88 1107.32 2199.29C1107.32 2199.3 1108.92 2253.26 1108.93 2253.64C1110.71 2317.9 1111.32 2348.36 1111.48 2356.59C1111.64 2364.64 1112.72 2418.88 1112.65 2457.22C1112.55 2510.36 1110.02 2584.08 1109.65 2595.11C1107.95 2644.63 1106.99 2667.41 1106.72 2673.69C1106.69 2674.39 1106.68 2674.41 1106.19 2674.91C1105.73 2675.39 1105.7 2675.41 1105.03 2675.41Z" fill="black"/>
<path fill-rule="evenodd" clip-rule="evenodd" d="M942.408 2618.82C941.754 2618.74 941.738 2618.7 941.341 2618.18C940.754 2617.41 940.923 2617.33 940.977 2616.36C942.2 2594.18 942.201 2594.19 943.655 2572.02C944.068 2565.74 946.83 2523.66 950.522 2493.54C953.187 2471.81 958.131 2441.22 958.865 2436.69C964.186 2403.76 972.953 2355.18 974.23 2348.1C974.351 2347.43 974.366 2347.41 974.905 2346.99C975.232 2346.73 975.699 2346.75 976.098 2346.64C976.281 2346.59 977.187 2346.33 977.572 2348.51C977.572 2348.51 975.442 2379.29 975.426 2379.51C972.77 2416.14 971.273 2433.48 970.869 2438.17C970.473 2442.75 967.808 2473.62 965.092 2495.35C961.328 2525.45 953.744 2566.93 952.611 2573.13C947.517 2600.99 944.988 2613.79 944.29 2617.32C944.155 2618 944.143 2618.02 943.599 2618.46C943.086 2618.87 943.062 2618.9 942.408 2618.82Z" fill="black"/>
<path fill-rule="evenodd" clip-rule="evenodd" d="M1273.57 2551.59C1272.1 2551.79 1271.63 2550.02 1271.58 2549.82C1268.3 2537.45 1268.3 2537.46 1265.24 2525.03C1264.38 2521.52 1258.58 2497.95 1256.1 2480.72C1254.31 2468.29 1252.96 2450.53 1252.76 2447.9C1251.3 2428.8 1250.03 2400.43 1249.85 2396.3C1249.82 2395.61 1249.82 2395.59 1250.24 2395.04C1250.25 2395.03 1251.28 2394.39 1251.29 2394.39C1251.68 2394.5 1252.13 2394.48 1252.46 2394.73C1253.16 2395.25 1253.07 2395.34 1253.27 2396.2C1257.88 2415.46 1257.94 2415.44 1262.27 2434.77C1263.05 2438.26 1268.21 2461.29 1270.64 2478.66C1273.05 2495.9 1274.03 2520.15 1274.18 2523.77C1274.7 2536.55 1274.7 2536.54 1274.99 2549.33C1274.99 2549.55 1275.03 2551.38 1273.57 2551.59Z" fill="black"/>
<path fill-rule="evenodd" clip-rule="evenodd" d="M1743.07 2572.93C1742.13 2573.63 1742.07 2573.62 1740.92 2573.45C1740.17 2573.34 1739.55 2572.78 1738.95 2572.33C1738.82 2572.23 1700.22 2523.38 1678.93 2496.06C1650.53 2459.62 1635.46 2439.74 1631.73 2434.8C1608.51 2404.13 1572.57 2354.85 1567.48 2347.87C1537.52 2306.77 1479.02 2225.6 1479.01 2225.52C1478.82 2224.79 1478.37 2224.08 1478.48 2223.34C1478.58 2222.61 1479.22 2222.06 1479.6 2221.43C1480.67 2219.6 1483.43 2221.8 1483.7 2222C1483.73 2222.04 1525.92 2276.14 1555.57 2314.4C1619.13 2396.42 1643.11 2429.11 1650.52 2439.23C1658.07 2449.53 1695.72 2500.89 1743.64 2568.8C1744.32 2569.78 1744.33 2569.83 1744.17 2571.01C1744.02 2572.16 1744 2572.23 1743.07 2572.93Z" fill="black"/>
<path fill-rule="evenodd" clip-rule="evenodd" d="M1749.68 2295.63C1748.85 2296.43 1748.78 2296.42 1747.63 2296.39C1746.18 2296.36 1746.19 2296.17 1745.13 2295.18C1740.22 2290.64 1706.54 2259.44 1684.82 2237.37C1671.81 2224.16 1652 2202.45 1649.19 2199.37C1632.68 2181.28 1600.58 2145.29 1600.56 2145.22C1600.3 2144.51 1599.77 2143.85 1599.79 2143.1C1599.78 2143.09 1600.64 2141.08 1600.64 2141.08C1601.33 2140.81 1601.96 2140.29 1602.69 2140.3C1603.44 2140.31 1604.1 2140.81 1604.77 2141.15C1604.81 2141.17 1628.68 2164.05 1645.43 2180.29C1681.34 2215.11 1694.59 2229.47 1698.69 2233.91C1702.86 2238.44 1723.67 2260.99 1749.73 2291.47C1750.51 2292.38 1750.52 2292.43 1750.51 2293.62C1750.5 2294.77 1750.51 2294.84 1749.68 2295.63Z" fill="black"/>
</g>
<defs>
<clipPath id="clip0_2055_512">
<rect width="2160" height="2700" fill="white"/>
</clipPath>
</defs>
</svg>
