<svg width="2160" height="2700" viewBox="0 0 2160 2700" fill="none" xmlns="http://www.w3.org/2000/svg">
<path fill-rule="evenodd" clip-rule="evenodd" d="M1329.38 1594.06C1329.38 1594.06 1301.48 1524.19 1278.04 1504.65C1254.61 1485.11 1188.77 1476.81 1188.77 1476.81L980.535 1481.09C980.535 1481.09 905.964 1509.98 887.656 1528.39C873.75 1542.38 862.479 1592.98 862.479 1592.98L817.892 1646.64L824.506 1706.97L783.289 1797.58L774.417 1828.19L785.46 1876.84L759.943 1890.34L747.862 1924.66L853.472 2004.34C923.938 2125.92 1272.27 2104.65 1320.86 1995.17L1427.06 1928.5L1399.46 1903.34L1394.74 1869.69L1358.3 1862.29C1358.3 1862.29 1421.36 1810.94 1424.97 1786.04C1428.57 1761.13 1379.95 1712.87 1379.95 1712.87L1376.34 1626.03L1329.38 1594.06Z" fill="#FF050B" stroke="black" stroke-width="5.9678" stroke-miterlimit="1.5" stroke-linecap="square" stroke-linejoin="round"/>
<path fill-rule="evenodd" clip-rule="evenodd" d="M987.24 1479.59L935.228 1572.45L960.23 1639.11L913.431 1559.45L896.026 1582L910.211 1640.79L883.904 1603.78L841.885 1650.51L863.51 1723.77L842.79 1698.77L873.889 1740.3L834.589 1733.54L811.235 1739.75L847.722 1752C847.722 1752 801.144 1768.73 810.028 1769.41C818.913 1770.1 864.734 1760.08 864.734 1760.08L827.549 1783.59L851.52 1781.34L819.917 1834.84L858.945 1863.55L859.795 1829.73L871.837 1882.69L847.037 1892.47L877.866 1923.72L802.101 1907.93L843.867 1962.16L778.438 1917.93L815.886 1965.62L754.813 1916.31L763.609 1889.52L785.461 1878.67L781.883 1850.31L774.55 1831.51L784.631 1793.71L823.989 1701.19L816.409 1641.94L861.888 1594.98L889.814 1526.32L987.24 1479.59Z" fill="black" fill-opacity="0.3"/>
<path fill-rule="evenodd" clip-rule="evenodd" d="M1220.91 1664.99L1154.3 1773.31L1175.44 1693.16L1121.09 1791.86L1089.83 1776.95L1038.88 1707.62L1052.9 1772.98L976.266 1654.21L991.571 1724.93L942.183 1687.41L1026.5 1776.98L971.156 1744.32L990.304 1845.93L954.615 1835.12L957.757 1893.36L890.566 1909.82L922.361 1916.46L840.651 1943.24L900.445 1968.68L859.265 1973.69L884.167 1992.66L870.686 2003.54L910.641 2025.2C1043.63 2076.05 1165.41 2117.74 1319.61 1992.13L1348.46 1953.31L1315.77 1955.64L1358.17 1895.54L1326.89 1902.9L1326.68 1847.13L1273.87 1847.38L1257.42 1805.4L1244.65 1798.25L1236.55 1852.89L1234.9 1782.73L1179.05 1815.09L1243.11 1698.87L1220.91 1664.99Z" fill="#8DCCB5" fill-opacity="0.5"/>
<path d="M1094.65 2136.65C1178.8 2136.65 1247.01 2081.9 1247.01 2014.35C1247.01 1946.81 1178.8 1892.06 1094.65 1892.06C1010.5 1892.06 942.29 1946.81 942.29 2014.35C942.29 2081.9 1010.5 2136.65 1094.65 2136.65Z" fill="#F7F189" fill-opacity="0.52" stroke="#8DCCB5" stroke-opacity="0.31" stroke-width="93.54" stroke-miterlimit="1.5" stroke-linecap="round" stroke-linejoin="round"/>
<path fill-rule="evenodd" clip-rule="evenodd" d="M1104.91 1759.48C1118.75 1758.33 1129.21 1733.96 1143.02 1705.47C1162.32 1665.63 1183.04 1615.95 1183.49 1594.72C1184.89 1527.72 1188.86 1447.59 1090.53 1449.45C981.989 1451.5 994.827 1531.13 993.425 1598.13C992.663 1634.55 1085.08 1761.14 1104.91 1759.48Z" fill="#994662" stroke="black" stroke-width="5.95616" stroke-miterlimit="1.5" stroke-linecap="round" stroke-linejoin="round"/>
<path fill-rule="evenodd" clip-rule="evenodd" d="M1163.98 1565.23L1168.3 1601.7L1100.33 1658.79L1073.12 1695.64L1107.15 1760.69L1145.72 1702.19L1144.27 1725.24L1179.51 1659.31L1192.3 1654.74L1204.55 1615.73L1194.15 1574.85L1163.98 1565.23Z" fill="black" fill-opacity="0.4"/>
<path fill-rule="evenodd" clip-rule="evenodd" d="M999.999 1484.13L987.812 1474.33L993.31 1465.18L996.319 1453.55L1013.02 1447.28L1023.66 1436.89L1033.79 1435L1044.18 1427.31L1064.67 1422.47L1083.36 1412.65L1101.1 1419.16L1113.63 1415L1133.18 1421.5L1158.08 1418.94L1162.54 1425.34L1165.39 1439.29L1178.89 1444.09L1171.39 1466.38C1171.39 1466.38 1089.51 1489.23 1085.88 1490.98C1082.25 1492.73 999.999 1484.13 999.999 1484.13Z" fill="#B4AD60"/>
<path fill-rule="evenodd" clip-rule="evenodd" d="M999.999 1484.13L987.812 1474.33L993.31 1465.18L996.319 1453.55L1013.02 1447.28L1023.66 1436.89L1033.79 1435L1044.18 1427.31L1064.67 1422.47L1083.36 1412.65L1101.1 1419.16L1113.63 1415L1133.18 1421.5L1158.08 1418.94L1162.54 1425.34L1165.39 1439.29L1178.89 1444.09L1171.39 1466.38C1171.39 1466.38 1089.51 1489.23 1085.88 1490.98C1082.25 1492.73 999.999 1484.13 999.999 1484.13ZM1084.81 1487.61C1091.7 1485.06 1156.91 1466.77 1168.64 1463.48L1174.43 1446.25L1164.21 1442.62C1163.04 1442.21 1162.18 1441.21 1161.93 1440L1159.23 1426.76L1156.37 1422.67L1133.53 1425.01C1133.04 1425.06 1132.54 1425.01 1132.06 1424.85L1113.62 1418.73L1102.21 1422.52C1101.45 1422.77 1100.63 1422.75 1099.88 1422.48L1083.61 1416.5L1066.31 1425.6C1066.05 1425.74 1065.77 1425.84 1065.48 1425.91L1045.7 1430.58L1035.9 1437.84C1035.47 1438.16 1034.97 1438.38 1034.44 1438.48L1025.36 1440.16L1015.49 1449.8C1015.14 1450.15 1014.73 1450.41 1014.27 1450.58L999.281 1456.22L996.728 1466.07C996.643 1466.4 996.514 1466.72 996.336 1467L992.429 1473.5L1001.4 1480.72C1008.87 1481.5 1054.79 1486.22 1075.76 1487.42C1080.12 1487.66 1084.25 1487.62 1084.81 1487.61Z" fill="black"/>
<path fill-rule="evenodd" clip-rule="evenodd" d="M1081.16 1565.74L1093.21 1556.77L1102.73 1564.14L1081.16 1565.74Z" stroke="black" stroke-width="4.47665" stroke-miterlimit="1.5" stroke-linecap="round" stroke-linejoin="round"/>
<path fill-rule="evenodd" clip-rule="evenodd" d="M1069.6 1505.11C1069.45 1504.78 1069.59 1504.38 1069.93 1504.23C1070.27 1504.07 1070.66 1504.22 1070.82 1504.56C1070.82 1504.56 1077.49 1516.86 1077.66 1523.56C1077.74 1526.96 1076.14 1529.06 1073.42 1529.74C1070.51 1530.45 1066.25 1530.14 1061.05 1529.21C1056.22 1528.34 1050.53 1526.98 1044.39 1525.49C1039.25 1524.24 1033.78 1522.97 1028.24 1521.86C1024.7 1521.15 1021.15 1520.48 1017.61 1520C1009.89 1518.95 1002.28 1518.66 995.297 1520.8C992.524 1521.59 991.933 1524.96 991.689 1528.64C991.139 1536.92 993.577 1547.02 993.577 1547.02C993.694 1547.37 993.506 1547.75 993.155 1547.87C992.805 1547.99 992.424 1547.8 992.307 1547.45C992.307 1547.45 986.819 1534.49 987.115 1525.24C987.274 1520.3 989.329 1516.55 993.111 1514.84C998.334 1512.56 1004.02 1511.37 1009.96 1511.03C1015.48 1510.7 1021.19 1511.1 1026.83 1512.02C1030.95 1512.7 1035.01 1513.7 1038.94 1514.81C1043 1515.95 1046.9 1517.26 1050.58 1518.52C1056.62 1520.58 1061.98 1522.57 1066.35 1523.68C1068.83 1524.3 1070.9 1524.76 1072.54 1524.6C1072.6 1524.6 1072.61 1524.76 1072.65 1524.72C1072.93 1524.4 1073.1 1523.91 1073.18 1523.32C1073.33 1522.09 1073.28 1520.6 1073.07 1519C1072.26 1512.7 1069.6 1505.11 1069.6 1505.11Z" fill="black"/>
<path fill-rule="evenodd" clip-rule="evenodd" d="M1087.61 1504.88C1087.56 1504.51 1087.81 1504.17 1088.17 1504.11C1088.53 1504.05 1088.88 1504.3 1088.94 1504.67C1088.94 1504.67 1090.23 1509.54 1092.56 1511.86C1093.69 1512.99 1094.93 1512.59 1096.74 1509.97C1099.53 1506.04 1102.91 1501.08 1106.86 1495.99C1110.36 1491.49 1114.21 1486.88 1118.21 1482.76C1120.48 1480.42 1122.82 1478.24 1125.17 1476.35C1129.62 1472.75 1134.04 1470.1 1137.91 1468.63C1144.2 1466.44 1150.06 1467.64 1155.02 1471.03C1162.54 1476.16 1167.73 1485.6 1169.22 1489.06C1169.4 1489.39 1169.28 1489.8 1168.95 1489.98C1168.63 1490.15 1168.22 1490.04 1168.04 1489.71C1166.1 1486.88 1159.79 1479.42 1152.22 1476.01C1148.7 1474.43 1144.89 1473.96 1141.11 1475.97C1138.75 1477.16 1136.3 1479.11 1133.64 1481.35C1132.06 1482.68 1130.45 1484.15 1128.77 1485.66C1125.06 1488.98 1121.2 1492.65 1117.41 1496.32C1111.06 1502.47 1104.9 1508.46 1100.4 1513.04C1096.58 1516.82 1093.79 1516.88 1091.81 1515.51C1090.55 1514.64 1089.53 1513.12 1088.9 1511.33C1087.83 1508.33 1087.61 1504.88 1087.61 1504.88Z" fill="black"/>
<path fill-rule="evenodd" clip-rule="evenodd" d="M1065.62 1528.57C1065.32 1528.73 1065.02 1529.27 1064.77 1529.9C1065.81 1529.68 1066.53 1529.49 1066.37 1529.1C1066.22 1528.77 1066.07 1528.59 1065.91 1528.53C1066.2 1528.5 1066.48 1528.47 1066.76 1528.44C1074.64 1527.77 1072.95 1535.53 1071.69 1536.62C1071.4 1536.87 1070.79 1537.37 1069.7 1537.77C1068.79 1538.1 1067.01 1538.64 1064.55 1539.23C1058.34 1540.71 1047.58 1542.92 1036.7 1544.87C1025.99 1546.8 1015.26 1548.42 1008.75 1549.48C1006.03 1549.92 1004.08 1550.22 1003.17 1550.39C1003.06 1550.41 1002.95 1550.41 1002.87 1550.42C1002.86 1550.42 1002.86 1550.42 1002.85 1550.42C1002.85 1550.42 1002.85 1550.42 1002.85 1550.42C1002.77 1550.42 1002.71 1550.43 1002.72 1550.47C1002.72 1550.47 1002.72 1550.48 1002.72 1550.48C1002.68 1550.5 1002.65 1550.5 1002.61 1550.51C1002.09 1550.62 1001.4 1549.48 1002.81 1549C1003.68 1548.69 1005.57 1548.07 1008.21 1547.22C1013.36 1545.56 1021.25 1543 1029.66 1540.37C1026.11 1540.52 1022.65 1540.64 1019.35 1540.75C1003.76 1541.25 992.035 1541.4 992.035 1541.4C991.666 1541.43 991.339 1541.16 991.302 1540.8C991.266 1540.43 991.534 1540.1 991.901 1540.06C991.901 1540.06 1003.43 1537.89 1018.8 1535.27C1024.41 1534.31 1030.51 1533.31 1036.75 1532.34C1041.74 1531.57 1046.78 1530.78 1051.73 1530.14C1056.53 1529.51 1061.23 1529.05 1065.62 1528.57ZM1002.85 1550.42C1002.85 1550.71 1002.81 1550.84 1002.72 1550.48C1002.77 1550.47 1002.81 1550.45 1002.85 1550.42ZM1065.62 1528.57C1065.71 1528.51 1065.81 1528.5 1065.91 1528.53C1065.81 1528.54 1065.71 1528.56 1065.62 1528.57Z" fill="black"/>
<path d="M1139.97 1544.59C1146.6 1544.59 1151.97 1539.72 1151.97 1533.71C1151.97 1527.7 1146.6 1522.83 1139.97 1522.83C1133.34 1522.83 1127.97 1527.7 1127.97 1533.71C1127.97 1539.72 1133.34 1544.59 1139.97 1544.59Z" fill="#808080"/>
<path fill-rule="evenodd" clip-rule="evenodd" d="M1139.97 1522.16C1143.56 1521.6 1146.88 1522.53 1149.6 1524.27C1152.86 1526.35 1154.74 1529.79 1155.28 1533.71C1155.72 1537.93 1153.95 1541.85 1151.02 1544.8C1148.31 1547.54 1144.32 1549.07 1139.97 1549.29C1138.29 1549.27 1136.66 1549.08 1135.16 1548.59C1132.74 1547.8 1130.56 1546.55 1128.89 1544.83C1125.99 1541.85 1124.18 1537.94 1124.63 1533.71C1125.18 1529.78 1127.05 1526.33 1130.33 1524.25C1133.06 1522.53 1136.38 1521.59 1139.97 1522.16ZM1139.97 1523.5C1137.08 1523.95 1134.76 1525.44 1133.06 1527.41C1131.56 1529.15 1130.99 1531.39 1131.32 1533.71C1131.53 1535.71 1132.92 1537.17 1134.5 1538.34C1135.98 1539.44 1137.9 1539.98 1139.97 1539.89C1142.05 1539.99 1143.98 1539.47 1145.47 1538.37C1147.06 1537.2 1148.46 1535.72 1148.67 1533.71C1148.99 1531.38 1148.4 1529.14 1146.89 1527.4C1145.2 1525.43 1142.86 1523.95 1139.97 1523.5Z" fill="black"/>
<path fill-rule="evenodd" clip-rule="evenodd" d="M1017.13 1567.79L1044.86 1602.62L1046.42 1653.53L1102.49 1679.28L1084.99 1692.79L1109.69 1706.51L1089.43 1707.86L1113.29 1724.52L1091.02 1726.9L1104.23 1767.42L1089.15 1757.9L1035.17 1677.51L976.557 1618.29L982.933 1568.61L1017.13 1567.79Z" fill="black" fill-opacity="0.4"/>
<path fill-rule="evenodd" clip-rule="evenodd" d="M1008.32 1603.44C1045.5 1643.02 1104.91 1660.71 1109.17 1653.31C1093.08 1659.23 1099.36 1678.98 1086.98 1675.27C1098.95 1692.04 1089.5 1712.17 1106.26 1725.58C1088.75 1717.4 1071.6 1708.64 1058.04 1693.9L1102.62 1765.78L1054.34 1712.37L1012.1 1657.47L1008.32 1603.44Z" fill="black" fill-opacity="0.6"/>
<path fill-rule="evenodd" clip-rule="evenodd" d="M1100.86 1548.36L1080.59 1550.4L1064.25 1562.84L1081.11 1557.45L1093.3 1552.6L1101.58 1557.84L1118.16 1562.84L1100.86 1548.36Z" fill="#8DCCB5" fill-opacity="0.4"/>
<path fill-rule="evenodd" clip-rule="evenodd" d="M1091.26 1577.04C1074.56 1577.75 1041.68 1569.31 1041.68 1569.31L1061.38 1583.75L1038.94 1582.76L1024.79 1583.62L1045.27 1603.07L1059.93 1626.89L1055.65 1634.49C1055.65 1634.49 1089.04 1653.05 1097.28 1652.49C1105.52 1651.94 1131.34 1636.41 1131.34 1636.41L1114.52 1640.75L1134.96 1615.68C1134.96 1615.68 1111.87 1627.32 1118.14 1623.53C1124.42 1619.73 1159.05 1573.08 1159.05 1573.08L1134.15 1585.34C1134.15 1585.34 1167.56 1564.6 1150.65 1568.48C1133.73 1572.36 1110.01 1576.25 1091.26 1577.04Z" fill="#8DCCB5" fill-opacity="0.4"/>
<path fill-rule="evenodd" clip-rule="evenodd" d="M1021.76 1575.8C1047.45 1593.7 1131.69 1590.86 1160.66 1576.46C1160.66 1576.46 1114.65 1622.06 1088.95 1625.89C1065.47 1629.38 1021.88 1576 1021.76 1575.8Z" fill="black"/>
<path fill-rule="evenodd" clip-rule="evenodd" d="M1022.31 1575.01C1029.66 1579.85 1041.67 1582.77 1055.72 1584.37C1066.62 1585.62 1078.74 1586.01 1090.92 1585.7C1102.96 1585.4 1115.03 1584.43 1126 1582.83C1139.71 1580.85 1151.67 1577.98 1159.5 1574.13C1160.64 1573.55 1162.03 1573.9 1162.78 1574.94C1163.52 1575.98 1163.4 1577.41 1162.49 1578.31C1162.49 1578.31 1142.61 1597.76 1121.56 1612.25C1110.16 1620.1 1098.39 1626.46 1089.23 1627.74C1080.27 1628.98 1068.48 1622.49 1057.27 1613.46C1038.46 1598.32 1021.02 1576.45 1020.94 1576.33C1020.69 1575.94 1020.75 1575.43 1021.09 1575.11C1021.42 1574.79 1021.93 1574.75 1022.31 1575.01ZM1026.52 1579.84C1032.78 1586.88 1045.67 1600.67 1059.14 1611.07C1069.65 1619.17 1080.45 1625.35 1088.67 1624.03C1097.36 1622.66 1108.34 1616.28 1119.03 1608.64C1130.69 1600.32 1141.97 1590.45 1149.52 1583.48C1142.9 1585.45 1135.17 1587.08 1126.79 1588.27C1115.6 1589.86 1103.26 1590.73 1090.98 1590.75C1078.58 1590.77 1066.24 1589.93 1055.19 1588.18C1043.82 1586.38 1033.83 1583.58 1026.52 1579.84Z" fill="black"/>
<path fill-rule="evenodd" clip-rule="evenodd" d="M1047.41 1588.95L1061.34 1601.44L1061.48 1595.66L1116.45 1595.98L1115.36 1601.34L1131.85 1589.53C1103.39 1591.31 1075.16 1591.55 1047.41 1588.95Z" fill="white"/>
<path fill-rule="evenodd" clip-rule="evenodd" d="M1053.06 1606.64C1053.06 1606.64 1077.2 1623.18 1087.81 1622.6C1099.19 1621.98 1127.73 1606.39 1127.73 1606.39C1114.68 1609.89 1100.52 1613.38 1088.02 1613.14C1074.56 1612.88 1062.92 1608.68 1053.06 1606.64Z" fill="white"/>
<path fill-rule="evenodd" clip-rule="evenodd" d="M1053.25 1605.69C1059.5 1606.84 1066.46 1608.83 1074.13 1610.14C1078.54 1610.9 1083.18 1611.42 1088.05 1611.41C1093.09 1611.41 1098.39 1610.77 1103.77 1609.79C1111.57 1608.36 1119.52 1606.19 1127.09 1604.02C1128.3 1603.69 1129.55 1604.32 1130.02 1605.47C1130.48 1606.63 1130.01 1607.95 1128.91 1608.55C1128.91 1608.55 1117.01 1615.36 1105.4 1620.19C1098.76 1622.96 1092.2 1624.99 1087.96 1625.18C1083.89 1625.28 1077.99 1623.23 1072.19 1620.2C1062.26 1615.01 1052.5 1607.44 1052.5 1607.44C1052.12 1607.18 1051.98 1606.68 1052.16 1606.26C1052.34 1605.84 1052.79 1605.6 1053.25 1605.69ZM1059.93 1609.42C1063.79 1611.51 1068.93 1614.16 1074.02 1616.33C1079.17 1618.53 1084.21 1620.31 1087.68 1620.02C1091.5 1619.78 1097.3 1617.61 1103.3 1615.13C1104.69 1614.55 1106.11 1613.95 1107.5 1613.33C1106.47 1613.5 1105.46 1613.67 1104.44 1613.81C1098.78 1614.63 1093.24 1615.07 1087.99 1614.86C1082.93 1614.66 1078.14 1613.92 1073.6 1612.95C1068.75 1611.91 1064.2 1610.6 1059.93 1609.42Z" fill="black"/>
<path fill-rule="evenodd" clip-rule="evenodd" d="M1184.74 1487.78L1107.98 1498.25L1086.98 1506.62L1067.75 1503.74L979.114 1515.83L981.203 1540.46L974.82 1561.99L1059.95 1552.67L1090.78 1540.64L1131.37 1545.19L1202.97 1531.6L1189.42 1504.09L1184.74 1487.78Z" fill="#FF050B" stroke="black" stroke-width="7.06877" stroke-miterlimit="1.5" stroke-linecap="square" stroke-linejoin="round"/>
<path d="M1038.55 1555.07C1056.92 1555.07 1071.81 1541.84 1071.81 1525.53C1071.81 1509.22 1056.92 1495.99 1038.55 1495.99C1020.18 1495.99 1005.29 1509.22 1005.29 1525.53C1005.29 1541.84 1020.18 1555.07 1038.55 1555.07Z" fill="#F2E83A" stroke="black" stroke-width="7.05042" stroke-miterlimit="1.5" stroke-linecap="square" stroke-linejoin="round"/>
<path d="M1149.64 1484.79C1132.27 1478.32 1114.23 1485.58 1109.36 1501.01C1104.49 1516.45 1114.63 1534.2 1132 1540.67C1149.38 1547.14 1167.41 1539.88 1172.28 1524.45C1177.15 1509.02 1167.01 1491.26 1149.64 1484.79Z" fill="#F2E83A" stroke="black" stroke-width="6.99576" stroke-miterlimit="1.5" stroke-linecap="square" stroke-linejoin="round"/>
<path fill-rule="evenodd" clip-rule="evenodd" d="M1007.74 1654.29L1023.12 1565.32C1036.29 1564.76 1078.49 1561.64 1080.41 1550.02L1102.81 1548.25C1109.64 1564.49 1152.4 1559.16 1163.88 1552.99L1187.08 1650.34L1218.61 1579.23L1142.57 1442.99C1142.57 1442.99 996.153 1499.99 995.251 1509.13C994.353 1518.27 1007.74 1654.29 1007.74 1654.29Z" fill="black" fill-opacity="0.6"/>
<path fill-rule="evenodd" clip-rule="evenodd" d="M1022.84 1533.17C1022.84 1533.17 1032.17 1542.28 1040.18 1541.29C1052.42 1539.77 1060.22 1530.74 1060.22 1530.74C1045.75 1515.88 1033.37 1517.33 1022.84 1533.17Z" fill="#8DCCB5" fill-opacity="0.4"/>
<path fill-rule="evenodd" clip-rule="evenodd" d="M1118.59 1521.79C1118.59 1521.79 1126.58 1532.22 1134.65 1532.45C1146.97 1532.8 1155.91 1525.03 1155.91 1525.03C1143.6 1508.14 1131.15 1507.71 1118.59 1521.79Z" fill="#8DCCB5" fill-opacity="0.4"/>
<path d="M1048.32 1547.15C1060.29 1547.4 1070.2 1538.39 1070.44 1527.02C1070.68 1515.66 1061.16 1506.24 1049.19 1505.99C1037.21 1505.73 1027.3 1514.74 1027.06 1526.11C1026.82 1537.47 1036.34 1546.89 1048.32 1547.15Z" fill="#FF050B" stroke="black" stroke-width="5.97867" stroke-miterlimit="1.5" stroke-linecap="square" stroke-linejoin="round"/>
<path d="M1138.28 1500.96C1127.04 1496.6 1114.92 1501.72 1111.22 1512.4C1107.52 1523.08 1113.63 1535.27 1124.87 1539.63C1136.12 1543.99 1148.23 1538.87 1151.93 1528.19C1155.64 1517.51 1149.52 1505.32 1138.28 1500.96Z" fill="#FF050B" stroke="black" stroke-width="5.93218" stroke-miterlimit="1.5" stroke-linecap="square" stroke-linejoin="round"/>
<path d="M1044.83 1527.43C1045.91 1527.43 1046.79 1526.44 1046.79 1525.21C1046.79 1523.97 1045.91 1522.98 1044.83 1522.98C1043.75 1522.98 1042.88 1523.97 1042.88 1525.21C1042.88 1526.44 1043.75 1527.43 1044.83 1527.43Z" fill="white"/>
<path d="M1050.32 1530.69C1051.87 1530.69 1053.13 1529.26 1053.13 1527.49C1053.13 1525.72 1051.87 1524.29 1050.32 1524.29C1048.77 1524.29 1047.52 1525.72 1047.52 1527.49C1047.52 1529.26 1048.77 1530.69 1050.32 1530.69Z" fill="white"/>
<path d="M1126.53 1522.98C1127.61 1522.98 1128.48 1521.99 1128.48 1520.76C1128.48 1519.53 1127.61 1518.53 1126.53 1518.53C1125.45 1518.53 1124.57 1519.53 1124.57 1520.76C1124.57 1521.99 1125.45 1522.98 1126.53 1522.98Z" fill="white"/>
<path d="M1131.95 1526.24C1133.47 1526.24 1134.69 1524.81 1134.69 1523.04C1134.69 1521.27 1133.47 1519.84 1131.95 1519.84C1130.44 1519.84 1129.21 1521.27 1129.21 1523.04C1129.21 1524.81 1130.44 1526.24 1131.95 1526.24Z" fill="white"/>
<path fill-rule="evenodd" clip-rule="evenodd" d="M1092.28 1473.05L1011.06 1528.38L1010.04 1669.47L977.141 1636.12L933.088 1570.67L996.609 1451.32L997.838 1430.86L1081.93 1368.29L1189.99 1418.88L1180.24 1439.85L1190.77 1465.28L1193.01 1479.03L1241.16 1567.7L1191.03 1655.96L1167.22 1517.95L1092.28 1473.05Z" fill="#FF050B" stroke="black" stroke-width="3.91703" stroke-miterlimit="1.5" stroke-linecap="round" stroke-linejoin="round"/>
<path fill-rule="evenodd" clip-rule="evenodd" d="M992.864 1595.02C992.884 1595.55 992.467 1596 991.934 1596.02C991.399 1596.04 990.95 1595.63 990.929 1595.1C990.929 1595.1 989.578 1574.94 989.062 1554.42C988.912 1548.46 988.851 1542.47 988.896 1536.93C988.963 1528.69 989.29 1521.43 989.963 1516.75C990.354 1514.02 990.944 1512.05 991.556 1511.01C992.655 1509.15 995.637 1506.47 1000.06 1503.27C1008.19 1497.41 1021.39 1489.35 1035 1479.9C1047.68 1471.22 1060.76 1461.52 1071.14 1454.89C1078.94 1449.92 1085.37 1446.7 1089.12 1446.5C1090.76 1446.42 1093.23 1446.99 1096.3 1448.26C1101.99 1450.6 1110.11 1455.25 1119.1 1460.96C1145.91 1477.99 1180.55 1504.32 1180.55 1504.32C1180.84 1504.54 1181.03 1504.87 1181.07 1505.24L1184.61 1540.69C1184.66 1541.22 1184.28 1541.7 1183.75 1541.76C1183.22 1541.82 1182.74 1541.43 1182.68 1540.9L1178.5 1506.12C1174.32 1503.08 1142.16 1479.79 1116.95 1464.4C1108.13 1459.02 1100.19 1454.6 1094.63 1452.43C1092.37 1451.54 1090.59 1451.01 1089.4 1451.09C1086.1 1451.31 1080.61 1454.5 1073.8 1458.99C1063.54 1465.73 1050.61 1475.55 1038.08 1484.34C1024.48 1493.75 1011.33 1501.84 1003.17 1507.62C999.524 1510.2 996.898 1512.17 995.973 1513.68C995.374 1514.65 995.017 1516.86 994.641 1519.88C994.088 1524.33 993.713 1530.34 993.453 1537.04C993.24 1542.54 993.111 1548.49 993.01 1554.4C992.661 1574.88 992.864 1595.02 992.864 1595.02Z" fill="black"/>
<path fill-rule="evenodd" clip-rule="evenodd" d="M1095 1429.23C1092.14 1429.12 1089.17 1429.88 1086.35 1430.89C1079.07 1433.51 1072.83 1437.98 1072.83 1437.98C1072.43 1438.33 1071.82 1438.3 1071.46 1437.89C1071.11 1437.49 1071.15 1436.88 1071.55 1436.53C1071.55 1436.53 1073.93 1433.99 1077.65 1431.18C1079.65 1429.67 1082.02 1428.11 1084.61 1426.83C1088.14 1425.09 1092.03 1424 1095.76 1423.98C1096.08 1423.99 1096.77 1424.11 1097.69 1424.63C1098.72 1425.21 1100.73 1426.59 1103.36 1428.61C1106.64 1431.13 1110.95 1434.67 1115.69 1438.62C1121.51 1443.44 1127.92 1448.91 1133.9 1453.88C1141.78 1460.43 1148.8 1466.14 1152.46 1468.45C1153.36 1469.02 1153.93 1469.44 1154.24 1469.42C1154.77 1469.36 1155.25 1469.76 1155.3 1470.29C1155.35 1470.82 1154.96 1471.29 1154.43 1471.34C1153.98 1471.4 1153.06 1471.15 1151.8 1470.5C1148.58 1468.85 1142.39 1464.61 1135.19 1459.39C1128.9 1454.84 1121.84 1449.57 1115.37 1444.67C1110.49 1440.97 1105.94 1437.52 1102.33 1434.74C1098.97 1432.16 1096.46 1430.18 1095.17 1429.33C1095.11 1429.3 1095.06 1429.26 1095 1429.23Z" fill="black"/>
<path fill-rule="evenodd" clip-rule="evenodd" d="M980.516 1481.57L934.001 1568.99L939.675 1578.81L941.899 1569.43L966.145 1594.59L951.656 1553.48L983.294 1587.61L963.713 1535.6L988.673 1494.37L1007.68 1492.12L1000.95 1484.02L1051.84 1443.77L1003.01 1473.65L1020.26 1454.16L999.464 1459.61L1051.95 1421.55L1021.32 1424.08L1086.44 1398.18L1068.9 1421.34L1108.46 1402.07L1135.63 1423.26L1132.53 1406.26L1187.3 1509.97L1175.96 1459.56L1211.09 1551.38L1216.57 1536.42L1217.44 1553.91L1226.36 1556.71L1217.63 1574.98L1237.87 1564.97L1251.58 1537.07L1254.32 1547.55L1267.62 1534.76L1236.92 1593.09L1276.91 1548.76L1272.83 1605.75L1292.72 1557.89L1311.13 1594.15L1294.55 1645.78L1319.86 1614.83L1307.03 1647.46L1327.83 1624.43L1347.96 1637.84L1359.57 1686.04L1316.1 1694.71L1359.07 1716.73L1341.58 1719.22L1358.8 1763.65L1331.87 1833.01L1370.42 1794.51L1347.34 1847.74C1347.34 1847.74 1392.41 1799.99 1382.88 1809.76C1373.35 1819.53 1350.83 1869.17 1350.83 1869.17L1376.02 1880.73L1365.37 1906.09L1383.4 1903.18L1343.9 1941.01L1385.85 1922.87L1409.49 1918.84L1395.79 1902.44L1393.98 1873.74L1360.03 1860.35C1360.03 1860.35 1422.5 1805.2 1424.62 1781.31C1426.74 1757.41 1380.32 1712.31 1380.32 1712.31L1377.19 1629.11L1323.96 1590.12L1282.7 1506.86L1198.41 1479.59L1191.28 1474.59L1181.27 1441.64L1191.22 1419.83L1082.58 1371.06L1000.33 1425.89L998.639 1446.69L980.516 1481.57Z" fill="black" fill-opacity="0.3"/>
<path fill-rule="evenodd" clip-rule="evenodd" d="M1009.95 1660.18L1007.01 1526.36L1094.88 1465.94L1000.7 1519.68L992.3 1602.33L964.117 1573.47L981.325 1611.87L946.014 1585.55L994.458 1655.33L1009.95 1660.18Z" fill="#8DCCB5" fill-opacity="0.5"/>
<path fill-rule="evenodd" clip-rule="evenodd" d="M1192.33 1649.96L1170.16 1518.29L1090.87 1468.26L1175.09 1510.35L1193.98 1606.78L1196.48 1554.34L1211.31 1596.33L1234.87 1568.48L1192.33 1649.96Z" fill="#8DCCB5" fill-opacity="0.5"/>
<path fill-rule="evenodd" clip-rule="evenodd" d="M880.024 1740.99C882.084 1734.76 898.163 1733.32 898.163 1733.32C898.163 1733.32 893.307 1707.71 899.764 1698.55C904.844 1691.34 931.645 1682.51 943.689 1682.78C947.209 1682.86 958.061 1681.65 958.149 1683.56C958.206 1684.75 949.559 1687.95 949.413 1689.04C947.329 1704.3 926.688 1710.12 926.688 1710.12L939.977 1775.02C939.977 1775.02 959.667 1785.78 975.309 1780.67C993.088 1774.86 1002.03 1758.96 1012.9 1758.73C1015.07 1758.69 1016.81 1759.56 1018.17 1761.05C1020.1 1763.16 1031.35 1757.27 1031.89 1760.96C1032.46 1764.91 1022.22 1778.49 1021.54 1782.08C1020.92 1785.42 1019.84 1788.13 1018.45 1789.31C1011.79 1795.02 979.667 1808.94 979.667 1808.94C977.478 1820.52 974.139 1832.1 958.145 1843.53C958.232 1857.34 953.658 1875.28 947.445 1882.88C941.423 1890.25 929.274 1892.84 920.863 1889.16C911.505 1885.07 891.316 1858.35 891.316 1858.35C891.316 1858.35 870.212 1824.27 867.026 1814.36C865.538 1809.74 872.891 1806.38 872.204 1798.93C871.747 1793.99 866.755 1789.19 867.284 1783.08C867.748 1777.69 873.597 1772.16 874.776 1766.91C877.214 1756.06 878.511 1745.56 880.024 1740.99Z" fill="#994662" stroke="black" stroke-width="5.74755" stroke-miterlimit="1.5" stroke-linecap="round" stroke-linejoin="round"/>
<path fill-rule="evenodd" clip-rule="evenodd" d="M881.428 1737.96C891.076 1732.91 953.145 1718.26 958.398 1721.88C960.082 1723.04 963.124 1722.42 966.772 1723.22C969.636 1723.83 973.433 1726 973.433 1726C973.433 1726 962.963 1728.25 959.364 1731.42C951.783 1738.12 941.881 1748.68 936.596 1751.42C927.584 1756.11 897.1 1755.85 897.1 1755.85" fill="#994662"/>
<path d="M881.428 1737.96C891.076 1732.91 953.145 1718.26 958.398 1721.88C960.082 1723.04 963.124 1722.42 966.772 1723.22C969.636 1723.83 973.433 1726 973.433 1726C973.433 1726 962.962 1728.25 959.364 1731.42C951.783 1738.12 941.881 1748.68 936.596 1751.42C927.584 1756.11 897.1 1755.85 897.1 1755.85" stroke="black" stroke-width="3.91704" stroke-miterlimit="1.5" stroke-linecap="round" stroke-linejoin="round"/>
<path fill-rule="evenodd" clip-rule="evenodd" d="M879.877 1768.44L893.251 1756.32C893.251 1756.32 942.634 1754.01 948.588 1759.11C949.986 1760.31 963.327 1763.64 963.291 1765.9C963.236 1769.49 948.87 1772.56 946.529 1776.57C944.077 1780.76 940.819 1784.41 937.697 1785.93C929.719 1789.79 892.294 1783.09 892.294 1783.09L883.229 1793.77C883.229 1793.77 889.164 1785.63 894.855 1787.29C906.453 1790.67 926.32 1801.09 930.784 1804.79C934.432 1807.82 945.112 1814.92 943.335 1818.67C942.068 1821.33 932.745 1816.74 926.536 1822.33C920.97 1827.35 899.588 1816.7 899.588 1816.7L890.937 1824.57" fill="#994662"/>
<path d="M879.877 1768.44L893.251 1756.32C893.251 1756.32 942.634 1754.01 948.588 1759.11C949.986 1760.31 963.327 1763.64 963.291 1765.9C963.236 1769.49 948.87 1772.56 946.529 1776.57C944.077 1780.76 940.819 1784.41 937.697 1785.93C929.719 1789.79 892.294 1783.09 892.294 1783.09L883.229 1793.77C883.229 1793.77 889.164 1785.63 894.855 1787.29C906.453 1790.67 926.32 1801.09 930.784 1804.79C934.432 1807.82 945.112 1814.92 943.335 1818.67C942.068 1821.33 932.745 1816.74 926.536 1822.33C920.97 1827.35 899.588 1816.7 899.588 1816.7L890.937 1824.57" stroke="black" stroke-width="3.91704" stroke-miterlimit="1.5" stroke-linecap="round" stroke-linejoin="round"/>
<path fill-rule="evenodd" clip-rule="evenodd" d="M1301.18 1660.69C1297.15 1655.72 1279.64 1659.45 1279.64 1659.45C1279.64 1659.45 1281.7 1632.82 1272.58 1626.9C1267.95 1623.89 1253.13 1624.11 1239.76 1626.07C1226.35 1628.04 1206.49 1632.27 1207.74 1636.26C1208.89 1639.93 1218.48 1639.67 1221.85 1644.02C1229.34 1653.7 1249.31 1648.26 1249.31 1648.26L1254.97 1714.99C1254.97 1714.99 1240.33 1732.89 1224.05 1734.42C1205.56 1736.15 1191.84 1724.97 1181.66 1729.11C1178.99 1730.21 1164.96 1732.25 1164.41 1735.09C1163.75 1738.53 1174.33 1742.55 1177.16 1746.52C1181.51 1752.63 1183.97 1758.81 1186.9 1759.76C1195.03 1762.39 1229.61 1762.43 1229.61 1762.43C1235.85 1771.99 1245.14 1779.6 1260.44 1783.35C1258.39 1784.65 1276.04 1816.29 1284.7 1818.22C1293.59 1820.19 1304.48 1819.57 1311.54 1813.38C1319.55 1806.36 1332.78 1776.09 1332.78 1776.09C1332.78 1776.09 1343.19 1734.9 1342.18 1724.79C1341.41 1717.04 1335.31 1717.23 1332.34 1709.55C1330.17 1703.96 1330.35 1700.54 1328.65 1696.6C1325.84 1690.1 1317.38 1691.51 1314.01 1684.32C1309.17 1673.98 1304.33 1664.55 1301.18 1660.69Z" fill="#994662" stroke="black" stroke-width="5.83856" stroke-miterlimit="1.5" stroke-linecap="round" stroke-linejoin="round"/>
<path fill-rule="evenodd" clip-rule="evenodd" d="M1296.77 1657.05C1291.97 1656.68 1266.47 1656.14 1256.39 1658.64C1242.92 1661.98 1221.05 1673.16 1219.6 1676.47C1217.86 1680.47 1207.57 1689.8 1209.86 1690.52C1211.7 1691.1 1225.99 1689.98 1232.08 1690.03C1245.07 1690.11 1262.86 1684.98 1265.46 1684.25C1277.41 1680.92 1288.29 1679.96 1288.29 1679.96" fill="#994662"/>
<path d="M1296.77 1657.05C1291.97 1656.68 1266.47 1656.14 1256.39 1658.64C1242.92 1661.98 1221.05 1673.16 1219.6 1676.47C1217.86 1680.47 1207.57 1689.8 1209.86 1690.52C1211.7 1691.1 1225.99 1689.98 1232.08 1690.03C1245.07 1690.11 1262.86 1684.98 1265.46 1684.25C1277.41 1680.92 1288.29 1679.96 1288.29 1679.96" stroke="black" stroke-width="3.88467" stroke-miterlimit="1.5" stroke-linecap="round" stroke-linejoin="round"/>
<path fill-rule="evenodd" clip-rule="evenodd" d="M1308.58 1684.75L1292.03 1678.86C1292.03 1678.86 1245.35 1696.53 1241.55 1703.66C1239.75 1707.04 1225.05 1715.37 1228.87 1719.43C1231.02 1721.72 1241.67 1719.45 1247.64 1720.35C1253.4 1721.23 1258.54 1724.1 1260.79 1724.21C1269.52 1724.59 1302.02 1703.35 1302.02 1703.35L1314.07 1709.64C1314.07 1709.64 1305.79 1704.45 1301.07 1708.28C1291.44 1716.07 1276.52 1733.73 1273.63 1738.96C1270.91 1743.89 1266.05 1759.77 1269.94 1762.46C1271.84 1763.77 1281.13 1753.41 1283.54 1753.56C1290.91 1754 1313.63 1735.67 1313.63 1735.67L1320.2 1740.48" fill="#994662"/>
<path d="M1308.58 1684.75L1292.03 1678.86C1292.03 1678.86 1245.35 1696.53 1241.55 1703.66C1239.75 1707.04 1225.05 1715.37 1228.87 1719.43C1231.02 1721.72 1241.67 1719.45 1247.64 1720.35C1253.4 1721.23 1258.54 1724.1 1260.79 1724.21C1269.52 1724.59 1302.02 1703.35 1302.02 1703.35L1314.07 1709.64C1314.07 1709.64 1305.79 1704.45 1301.07 1708.28C1291.44 1716.07 1276.52 1733.73 1273.63 1738.96C1270.91 1743.89 1266.05 1759.77 1269.94 1762.46C1271.84 1763.77 1281.13 1753.41 1283.54 1753.56C1290.91 1754 1313.63 1735.67 1313.63 1735.67L1320.2 1740.48" stroke="black" stroke-width="3.88467" stroke-miterlimit="1.5" stroke-linecap="round" stroke-linejoin="round"/>
<path fill-rule="evenodd" clip-rule="evenodd" d="M1299.52 1816.7L1300.09 1782.95L1311.39 1769.48L1325.26 1744.03L1316.34 1730.29L1295.07 1744.2C1287.23 1747.86 1278.07 1739.73 1275.93 1733.1L1299.2 1705.43C1283.09 1709.81 1259.29 1717.93 1243.97 1699.64L1285.54 1679.46C1255.68 1683.96 1230.02 1685.31 1224.99 1671.03L1253.64 1656.15L1272.21 1654.04L1269.84 1635.76C1246.88 1639.88 1229.83 1641 1214.69 1634.54C1212.79 1642.79 1224.47 1649.87 1247.62 1650.64L1247.92 1656.52L1218.99 1674.89C1212.24 1694.54 1232.83 1693.62 1252.26 1688.35L1253.19 1694.17L1239.68 1702.19C1238.07 1714.86 1246.66 1722.33 1254.44 1723.54L1252.73 1731.64C1246.93 1738.82 1239.65 1740.66 1231.7 1740.07C1216.56 1751.14 1197.11 1748.18 1175.52 1738.25C1174.5 1770.59 1199.7 1764.89 1228.43 1764.53C1234.59 1774.49 1244.29 1781.23 1256.46 1785.73C1263.07 1799.14 1270.93 1812.61 1281.81 1819.52C1289.09 1821.76 1295.37 1821.67 1299.52 1816.7Z" fill="#8DCCB5" fill-opacity="0.5"/>
<path fill-rule="evenodd" clip-rule="evenodd" d="M911.644 1880.7C911.644 1880.7 930.575 1878.33 927.269 1865.63C923.274 1850.27 900.2 1846.89 900.2 1846.89C905.277 1838.69 903.228 1831.52 891.935 1825.68L901.208 1819.32L914.056 1821.99C914.056 1821.99 926.534 1817.67 925.933 1811.3C925.634 1808.13 922.265 1801.08 915.474 1795.62C908.581 1790.08 898.264 1786.14 898.264 1786.14L923.935 1785.58C923.935 1785.58 939.105 1780.87 941.297 1767.93C942.099 1763.21 918.336 1757.42 918.336 1757.42C918.336 1757.42 948.26 1742.28 949.235 1730.28C949.66 1725.04 918.812 1725.9 918.812 1725.9L913.27 1712.32L917.514 1701.98C933.238 1698.69 940.796 1694.34 946.505 1689.75C943.975 1698.19 934.917 1706.05 924.701 1708.77L926.441 1723.88L956.82 1723.81C956.82 1723.81 958.224 1734.9 947.839 1742.69C941.177 1747.69 919.949 1757.83 919.949 1757.83C919.949 1757.83 946.526 1757.49 947.989 1762.06C949.45 1766.64 943.433 1783.84 943.433 1783.84L966.846 1794.29C975.918 1798.16 988.356 1790.68 1002.69 1780.49C1007.26 1777.24 1014.36 1777.01 1019.6 1771.95L1017.1 1784.76C1006.8 1793.61 993.588 1800.24 979.086 1805.88C974.002 1820.93 966.875 1833.56 955.945 1841.69C954.718 1861.35 949.158 1876.17 938.745 1885.59C927.427 1887.03 917.644 1887.44 911.644 1880.7Z" fill="#8DCCB5" fill-opacity="0.5"/>
<path fill-rule="evenodd" clip-rule="evenodd" d="M1211.8 1760.47C1214.91 1753.38 1211.23 1736.62 1212.69 1731.73C1213.43 1729.22 1219.97 1728.6 1220.5 1731.16C1221.58 1736.4 1222.51 1755.12 1219.16 1763.17L1170.04 2085.63L1162.34 2084.22L1211.53 1761.33C1211.59 1761.04 1211.68 1760.75 1211.8 1760.47Z" fill="white" stroke="black" stroke-width="2.9997" stroke-miterlimit="2" stroke-linejoin="round"/>
<path fill-rule="evenodd" clip-rule="evenodd" d="M1242.01 1714.91L1247.97 1721.44L1145.33 2060.42C1144.92 2061.54 1144.03 2062.42 1142.89 2062.79L1070.59 2087.1C1069.1 2087.59 1067.47 2087.16 1066.42 2086C1065.38 2084.84 1065.13 2083.16 1065.78 2081.75L1220.23 1689.43C1222.49 1690.72 1225.01 1691.5 1227.66 1692.02L1076.68 2076.78L1138.61 2055.97L1242.01 1714.91Z" fill="white" stroke="black" stroke-width="2.9997" stroke-miterlimit="2" stroke-linejoin="round"/>
<path fill-rule="evenodd" clip-rule="evenodd" d="M1258.63 1691.24L1247.67 1696.23L1252.03 1686.95C1252.28 1686.44 1252.64 1686 1253.08 1685.65L1261.56 1678.89C1261.73 1675.01 1260.15 1671.86 1258.41 1668.9C1256.78 1666.1 1251.92 1659.65 1252.05 1657.14C1252.16 1654.63 1257.01 1652.35 1259.15 1653.85C1261.55 1655.52 1264.63 1663.75 1266.41 1667.18C1268.58 1671.36 1270 1675.96 1269.16 1681.52C1269.01 1682.49 1268.5 1683.37 1267.73 1683.99L1258.63 1691.24Z" fill="white" stroke="black" stroke-width="2.9997" stroke-miterlimit="2" stroke-linejoin="round"/>
<path fill-rule="evenodd" clip-rule="evenodd" d="M1240.84 1662.39L1230.12 1666.81L1233.57 1659.48C1236.93 1651.09 1239.77 1650.61 1250.81 1640.67C1251.28 1638.08 1245.66 1624.22 1246.33 1621.07C1246.87 1618.52 1252.76 1617.18 1254 1619.47C1255.83 1622.87 1259.28 1639.56 1258.13 1643.78C1257.94 1644.5 1257.54 1645.15 1256.99 1645.65C1252.52 1649.71 1249.38 1652.16 1247 1654.17C1244.03 1656.67 1242.48 1658.31 1240.84 1662.39Z" fill="white" stroke="black" stroke-width="2.9997" stroke-miterlimit="2" stroke-linejoin="round"/>
<path fill-rule="evenodd" clip-rule="evenodd" d="M1302.57 1736.11C1301.28 1726.56 1288.7 1723.57 1286.79 1719.76C1285.62 1717.42 1289.73 1712.63 1291.11 1713.23C1295.54 1715.12 1309.23 1722.46 1310.47 1736.33C1310.53 1736.95 1310.44 1737.59 1310.19 1738.17L1190.09 2084.05C1189.52 2085.42 1188.24 2086.35 1186.77 2086.46L1117.22 2091.66C1115.81 2091.77 1114.45 2091.11 1113.67 2089.92C1112.89 2088.75 1112.8 2087.24 1113.45 2085.98L1273.59 1716.53C1276.18 1708.15 1274.21 1703.01 1272.03 1698.67C1270.87 1696.36 1266.08 1689.25 1266.53 1687.07C1266.98 1684.89 1272.8 1681.88 1273.84 1684.28C1276.1 1689.41 1285.91 1703.7 1280.95 1719.21C1280.88 1719.42 1280.81 1719.61 1280.7 1719.8L1123.6 2083.33L1183.78 2078.82L1302.57 1736.11Z" fill="white" stroke="black" stroke-width="2.9997" stroke-miterlimit="2" stroke-linejoin="round"/>
<path fill-rule="evenodd" clip-rule="evenodd" d="M987.218 1770.44C987.148 1767.72 992.572 1763.53 993.985 1765.85C996.399 1769.84 997.365 1785.53 1001.71 1794.36C1020.97 1833.57 1113.5 2065.46 1113.5 2065.46C1114.03 2066.47 1114.09 2067.66 1113.67 2068.71C1113.25 2069.77 1112.38 2070.59 1111.31 2070.97L1056.1 2081.79C1054.11 2082.47 1051.94 2081.46 1051.18 2079.5L955.674 1772.76L962.712 1769.24L1057.12 2073.16L1104.46 2065.04C1104.46 2065.04 1013.68 1836.33 994.8 1797.96C990.6 1789.42 987.353 1775.79 987.218 1770.44Z" fill="white" stroke="black" stroke-width="2.9997" stroke-miterlimit="2" stroke-linejoin="round"/>
<path fill-rule="evenodd" clip-rule="evenodd" d="M959.163 1761.15L949.971 1758.01L946.129 1748.07L952.68 1743.29L959.163 1761.15Z" fill="white" stroke="black" stroke-width="2.9997" stroke-miterlimit="2" stroke-linejoin="round"/>
<path fill-rule="evenodd" clip-rule="evenodd" d="M943.344 1720.73L933.573 1722.43L928.719 1715.25C928.719 1715.25 923.013 1713.1 921.235 1710.82C917.723 1706.29 909.002 1693.27 907.857 1688.81C907.208 1686.28 912.629 1683.05 914.578 1684.79C917.835 1687.69 923.746 1701.17 927.189 1705.52C929.075 1707.89 935.027 1710.14 935.027 1710.14L943.344 1720.73Z" fill="white" stroke="black" stroke-width="2.9997" stroke-miterlimit="2" stroke-linejoin="round"/>
<path fill-rule="evenodd" clip-rule="evenodd" d="M935.36 1788.5C937.944 1788.21 940.27 1786.96 942.431 1785.1L1040.85 2080.53C1041.42 2081.89 1041.17 2083.45 1040.23 2084.57C1039.28 2085.69 1037.78 2086.19 1036.36 2085.86L1012.87 2080.45C1011.65 2080.16 1010.64 2079.31 1010.15 2078.16L927.271 1824.2C929.457 1822.99 931.547 1821.31 933.455 1818.73L1016.57 2073.26L1030.69 2076.52L935.36 1788.5Z" fill="white" stroke="black" stroke-width="2.9997" stroke-miterlimit="2" stroke-linejoin="round"/>
<path fill-rule="evenodd" clip-rule="evenodd" d="M932.608 1754.16L923.245 1754.36C923.245 1754.36 906.9 1733.04 904.831 1727.72C903.886 1725.28 909.416 1721.48 911.291 1723.29C915.997 1727.84 932.608 1754.16 932.608 1754.16Z" fill="white" stroke="black" stroke-width="2.9997" stroke-miterlimit="2" stroke-linejoin="round"/>
<path fill-rule="evenodd" clip-rule="evenodd" d="M926.792 1799.81L915.538 1793.66L907.618 1782.03C906.951 1780.86 906.794 1764.74 907.438 1760.22C907.906 1756.95 909.632 1752.04 911.448 1751.14C913.265 1750.26 917.499 1753.68 918.336 1754.87C919.085 1755.95 916.618 1757.02 916.471 1758.32C915.999 1762.52 915.501 1780.05 915.501 1780.05L926.792 1799.81Z" fill="white" stroke="black" stroke-width="2.9997" stroke-miterlimit="2" stroke-linejoin="round"/>
<path fill-rule="evenodd" clip-rule="evenodd" d="M905.597 1789.66C906.829 1787.36 912.132 1790.22 913.296 1791.11C914.336 1791.89 908.977 1814.22 908.977 1814.22L985.344 2056.92L978.115 2059.93L901.298 1816.16C901.005 1815.46 900.924 1814.68 901.063 1813.93C901.063 1813.93 903.558 1793.47 905.597 1789.66Z" fill="white" stroke="black" stroke-width="2.9997" stroke-miterlimit="2" stroke-linejoin="round"/>
</svg>
