<svg width="2160" height="2700" viewBox="0 0 2160 2700" fill="none" xmlns="http://www.w3.org/2000/svg">
<g clip-path="url(#clip0_593_2951)">
<path fill-rule="evenodd" clip-rule="evenodd" d="M109.873 639.516C63.0472 664.63 49.0083 729.726 78.5417 784.793C108.076 839.86 170.07 864.177 216.895 839.063C190.361 823.317 159.278 792.741 137.931 752.94C116.585 713.14 108.31 670.331 109.873 639.516Z" fill="#18815A" stroke="black" stroke-width="12" stroke-miterlimit="1.5" stroke-linecap="square" stroke-linejoin="round"/>
<path fill-rule="evenodd" clip-rule="evenodd" d="M953.602 154.274C933.953 104.905 870.866 83.5838 812.809 106.69C754.751 129.797 723.569 188.638 743.217 238.007C761.868 213.426 795.767 186.006 837.73 169.305C879.691 152.605 923.163 149.232 953.602 154.274Z" fill="#1D9A6C" stroke="black" stroke-width="12" stroke-miterlimit="1.5" stroke-linecap="square" stroke-linejoin="round"/>
<path fill-rule="evenodd" clip-rule="evenodd" d="M2086.65 1999.56C2058.6 1968.1 1997.76 1976.5 1950.87 2018.3C1903.98 2060.11 1888.67 2119.58 1916.72 2151.04C1928.13 2123.93 1952.55 2088.42 1986.44 2058.2C2020.33 2027.99 2058.41 2007.79 2086.65 1999.56Z" fill="#18815A" stroke="black" stroke-width="10.7156" stroke-miterlimit="1.5" stroke-linecap="square" stroke-linejoin="round"/>
<path fill-rule="evenodd" clip-rule="evenodd" d="M1819.16 2388.9C1777.15 2392.18 1747.01 2445.7 1751.9 2508.33C1756.8 2570.96 1794.88 2619.14 1836.9 2615.85C1822.22 2590.36 1808.73 2549.43 1805.19 2504.16C1801.65 2458.89 1808.63 2416.36 1819.16 2388.9Z" fill="#18815A" stroke="black" stroke-width="10.7155" stroke-miterlimit="1.5" stroke-linecap="square" stroke-linejoin="round"/>
<path fill-rule="evenodd" clip-rule="evenodd" d="M137.295 1774.56C102.74 1801.13 95.9739 1850.38 122.194 1884.49C148.415 1918.6 197.758 1924.72 232.313 1898.15C210.86 1891.7 184.973 1875.45 166.021 1850.8C147.07 1826.15 138.014 1796.95 137.295 1774.56Z" fill="#18815A" stroke="black" stroke-width="9.01803" stroke-miterlimit="1.5" stroke-linecap="square" stroke-linejoin="round"/>
<path fill-rule="evenodd" clip-rule="evenodd" d="M-107.267 1203.07C-81.3121 1236.27 -20.0579 1231.82 29.4347 1193.13C78.928 1154.44 98.0375 1096.07 72.0824 1062.87C58.9446 1089.19 32.2878 1123.05 -3.4847 1151.02C-39.2564 1178.98 -78.5567 1196.68 -107.267 1203.07Z" fill="#18815A" stroke="black" stroke-width="10.7156" stroke-miterlimit="1.5" stroke-linecap="square" stroke-linejoin="round"/>
<path fill-rule="evenodd" clip-rule="evenodd" d="M1736.97 66.6459C1762.92 99.8484 1824.18 95.3936 1873.67 56.7042C1923.16 18.0142 1942.27 -40.3532 1916.32 -73.5557C1903.18 -47.2374 1876.52 -13.3712 1840.75 14.5929C1804.98 42.5565 1765.68 60.2503 1736.97 66.6459Z" fill="#1D9A6C" stroke="black" stroke-width="10.7156" stroke-miterlimit="1.5" stroke-linecap="square" stroke-linejoin="round"/>
<path fill-rule="evenodd" clip-rule="evenodd" d="M795.425 723.331C811.37 762.342 856.177 780.991 895.423 764.951C934.67 748.91 953.588 704.215 937.644 665.204C925.835 683.689 903.567 703.879 875.201 715.472C846.835 727.066 816.801 728.253 795.425 723.331Z" fill="#18815A" stroke="black" stroke-width="8.80308" stroke-miterlimit="1.5" stroke-linecap="square" stroke-linejoin="round"/>
<path fill-rule="evenodd" clip-rule="evenodd" d="M2040.4 2594.33C2056.35 2633.34 2101.16 2651.99 2140.4 2635.95C2179.65 2619.91 2198.57 2575.22 2182.62 2536.2C2170.81 2554.69 2148.55 2574.88 2120.18 2586.47C2091.81 2598.07 2061.78 2599.25 2040.4 2594.33Z" fill="#18815A" stroke="black" stroke-width="8.80308" stroke-miterlimit="1.5" stroke-linecap="square" stroke-linejoin="round"/>
<path fill-rule="evenodd" clip-rule="evenodd" d="M448.975 2530.25C430.757 2568.25 447.006 2613.98 485.237 2632.31C523.469 2650.64 569.299 2634.67 587.517 2596.66C565.888 2600.32 535.976 2597.36 508.343 2584.11C480.711 2570.87 459.673 2549.4 448.975 2530.25Z" fill="#18815A" stroke="black" stroke-width="8.80308" stroke-miterlimit="1.5" stroke-linecap="square" stroke-linejoin="round"/>
<path fill-rule="evenodd" clip-rule="evenodd" d="M1097.17 2643.61C1113.94 2674.44 1151.26 2686.57 1180.48 2670.69C1209.69 2654.8 1219.8 2616.87 1203.03 2586.04C1195.71 2602.01 1180.33 2620.1 1159.21 2631.58C1138.1 2643.07 1114.55 2646.14 1097.17 2643.61Z" fill="#18815A" stroke="black" stroke-width="7.11414" stroke-miterlimit="1.5" stroke-linecap="square" stroke-linejoin="round"/>
<path fill-rule="evenodd" clip-rule="evenodd" d="M2013.41 2259.59C1998.78 2299.11 2019.18 2343.15 2058.94 2357.87C2098.7 2372.59 2142.86 2352.46 2157.49 2312.94C2136.29 2318.57 2106.24 2318.39 2077.5 2307.75C2048.76 2297.11 2025.83 2277.67 2013.41 2259.59Z" fill="#1D9A6C" stroke="black" stroke-width="8.80307" stroke-miterlimit="1.5" stroke-linecap="square" stroke-linejoin="round"/>
<path fill-rule="evenodd" clip-rule="evenodd" d="M405.35 619.363C390.718 658.885 407.892 701.728 443.677 714.977C479.463 728.225 520.396 706.895 535.028 667.373C515.509 673.629 488.1 674.426 462.235 664.85C436.371 655.275 416.089 636.821 405.35 619.363Z" fill="#1D9A6C" stroke="black" stroke-width="8.35147" stroke-miterlimit="1.5" stroke-linecap="square" stroke-linejoin="round"/>
<path fill-rule="evenodd" clip-rule="evenodd" d="M2145.7 402.638C2176.51 449.59 2159.53 514.58 2107.8 547.677C2056.07 580.774 1989.05 569.524 1958.24 522.572C1989.36 522.665 2031.33 512.048 2068.72 488.126C2106.11 464.205 2133.08 430.716 2145.7 402.638Z" fill="#1D9A6C" stroke="black" stroke-width="12.2302" stroke-miterlimit="1.5" stroke-linecap="square" stroke-linejoin="round"/>
<path fill-rule="evenodd" clip-rule="evenodd" d="M1900.6 934.364C1948.91 960.712 1963.39 1029.01 1932.92 1086.78C1902.45 1144.55 1838.5 1170.07 1790.19 1143.72C1817.56 1127.2 1849.63 1095.12 1871.65 1053.36C1893.67 1011.61 1902.21 966.693 1900.6 934.364Z" fill="#18815A" stroke="black" stroke-width="12.4849" stroke-miterlimit="1.5" stroke-linecap="square" stroke-linejoin="round"/>
<path fill-rule="evenodd" clip-rule="evenodd" d="M1030.17 425.277C1050.44 373.482 1115.52 351.113 1175.42 375.355C1235.31 399.597 1267.48 461.33 1247.21 513.124C1227.97 487.336 1193 458.569 1149.71 441.047C1106.42 423.526 1061.57 419.987 1030.17 425.277Z" fill="#1D9A6C" stroke="black" stroke-width="12.4847" stroke-miterlimit="1.5" stroke-linecap="square" stroke-linejoin="round"/>
<path fill-rule="evenodd" clip-rule="evenodd" d="M-138.737 2361.24C-109.806 2328.23 -47.0414 2337.05 1.33528 2380.9C49.7128 2424.76 65.5001 2487.16 36.5688 2520.17C24.7956 2491.72 -0.392803 2454.46 -35.3588 2422.76C-70.324 2391.06 -109.606 2369.88 -138.737 2361.24Z" fill="#18815A" stroke="black" stroke-width="11.1488" stroke-miterlimit="1.5" stroke-linecap="square" stroke-linejoin="round"/>
<path fill-rule="evenodd" clip-rule="evenodd" d="M1639.57 1776.13C1688.99 1765.96 1739.41 1803.95 1752.1 1860.92C1764.79 1917.88 1734.97 1972.39 1685.55 1982.56C1695.01 1955.42 1698.59 1914.99 1689.42 1873.81C1680.25 1832.64 1659.76 1797.16 1639.57 1776.13Z" fill="#18815A" stroke="black" stroke-width="11.3011" stroke-miterlimit="1.5" stroke-linecap="square" stroke-linejoin="round"/>
<path fill-rule="evenodd" clip-rule="evenodd" d="M2068.62 1435.34C2049.57 1474.93 1986.76 1483.34 1928.45 1454.1C1870.15 1424.86 1838.27 1368.98 1857.32 1329.39C1876.26 1353.63 1910.47 1382.75 1952.62 1403.89C1994.76 1425.02 2038.25 1434.86 2068.62 1435.34Z" fill="#18815A" stroke="black" stroke-width="11.1488" stroke-miterlimit="1.5" stroke-linecap="square" stroke-linejoin="round"/>
<path fill-rule="evenodd" clip-rule="evenodd" d="M222.008 333.343C195.231 368.177 132.039 363.503 80.9796 322.913C29.9198 282.322 10.2054 221.086 36.9821 186.252C50.5357 213.863 78.0361 249.394 114.941 278.732C151.845 308.07 192.389 326.633 222.008 333.343Z" fill="#18815A" stroke="black" stroke-width="11.1488" stroke-miterlimit="1.5" stroke-linecap="square" stroke-linejoin="round"/>
<path fill-rule="evenodd" clip-rule="evenodd" d="M1193.35 1022.3C1176.9 1063.23 1130.67 1082.79 1090.19 1065.96C1049.7 1049.13 1030.18 1002.24 1046.63 961.315C1058.81 980.708 1081.78 1001.89 1111.05 1014.05C1140.31 1026.22 1171.3 1027.46 1193.35 1022.3Z" fill="#1D9A6C" stroke="black" stroke-width="9.15867" stroke-miterlimit="1.5" stroke-linecap="square" stroke-linejoin="round"/>
<path fill-rule="evenodd" clip-rule="evenodd" d="M1595.77 913.221C1610.87 954.685 1593.15 999.633 1556.23 1013.53C1519.31 1027.43 1477.08 1005.05 1461.99 963.59C1482.13 970.153 1510.4 970.99 1537.09 960.944C1563.77 950.897 1584.69 931.537 1595.77 913.221Z" fill="#18815A" stroke="black" stroke-width="8.68878" stroke-miterlimit="1.5" stroke-linecap="square" stroke-linejoin="round"/>
</g>
<defs>
<clipPath id="clip0_593_2951">
<rect width="2160" height="2700" fill="white"/>
</clipPath>
</defs>
</svg>
