<svg width="2160" height="2700" viewBox="0 0 2160 2700" fill="none" xmlns="http://www.w3.org/2000/svg">
<g clip-path="url(#clip0_626_562)">
<path d="M411.52 711.702C427.831 711.702 441.053 696.606 441.053 677.984C441.053 659.362 427.831 644.266 411.52 644.266C395.209 644.266 381.986 659.362 381.986 677.984C381.986 696.606 395.209 711.702 411.52 711.702Z" fill="white" fill-opacity="0.5"/>
<path fill-rule="evenodd" clip-rule="evenodd" d="M411.52 643.29C420.475 642.909 428.689 646.961 434.644 653.651C440.192 659.888 443.659 668.457 444.02 677.984C444.296 687.714 441.184 696.65 435.911 703.354C429.943 710.944 421.178 715.573 411.52 715.697C401.861 715.566 393.103 710.937 387.134 703.347C381.869 696.65 378.757 687.708 379.032 677.984C379.393 668.463 382.86 659.895 388.402 653.658C394.357 646.967 402.571 642.916 411.52 643.29ZM411.52 645.24C403.463 645.575 396.392 649.79 391.527 656.225C387.141 662.029 384.626 669.678 384.941 677.984C385.171 686.079 388.185 693.315 392.794 698.699C397.567 704.28 404.179 707.805 411.52 707.707C418.86 707.805 425.465 704.273 430.239 698.699C434.848 693.308 437.861 686.073 438.091 677.984C438.4 669.685 435.892 662.036 431.506 656.231C426.641 649.797 419.576 645.582 411.52 645.24Z" fill="white"/>
<path fill-rule="evenodd" clip-rule="evenodd" d="M414.093 657.302C414.98 656.403 416.437 656.389 417.343 657.276C418.25 658.169 418.263 659.62 417.37 660.526C417.37 660.526 418.066 661.734 417.803 667.853C417.777 668.51 417.764 668.805 417.567 669.462C417.363 670.164 417.199 670.808 416.7 671.372C416.398 671.727 415.984 671.924 415.558 672.088C414.606 672.449 414.126 672.443 413.174 672.508C407.107 672.922 405.873 672.233 405.873 672.233C404.98 673.139 403.523 673.152 402.617 672.259C401.71 671.373 401.704 669.915 402.59 669.009C402.59 669.009 401.881 667.781 402.19 661.714C402.236 660.762 402.223 660.283 402.571 659.324C402.722 658.891 402.919 658.477 403.26 658.162C403.818 657.657 404.455 657.486 405.157 657.263C405.807 657.059 406.109 657.039 406.759 657C412.879 656.632 414.093 657.302 414.093 657.302Z" fill="white"/>
<path d="M155.541 355.496C162.935 355.496 168.929 348.652 168.929 340.211C168.929 331.769 162.935 324.926 155.541 324.926C148.147 324.926 142.153 331.769 142.153 340.211C142.153 348.652 148.147 355.496 155.541 355.496Z" fill="white" fill-opacity="0.5"/>
<path fill-rule="evenodd" clip-rule="evenodd" d="M155.541 324.484C159.601 324.311 163.324 326.148 166.024 329.18C168.539 332.008 170.11 335.892 170.274 340.211C170.399 344.622 168.988 348.672 166.598 351.711C163.893 355.152 159.919 357.25 155.541 357.307C151.163 357.247 147.192 355.149 144.487 351.708C142.1 348.672 140.689 344.619 140.814 340.211C140.978 335.895 142.549 332.011 145.061 329.183C147.761 326.151 151.484 324.314 155.541 324.484ZM155.541 325.368C151.889 325.52 148.683 327.43 146.478 330.347C144.49 332.978 143.35 336.446 143.493 340.211C143.597 343.881 144.963 347.16 147.052 349.601C149.216 352.131 152.213 353.729 155.541 353.685C158.868 353.729 161.863 352.128 164.026 349.601C166.116 347.157 167.482 343.878 167.586 340.211C167.726 336.449 166.589 332.981 164.601 330.35C162.395 327.433 159.193 325.523 155.541 325.368Z" fill="white"/>
<path fill-rule="evenodd" clip-rule="evenodd" d="M156.708 330.835C157.109 330.427 157.77 330.421 158.181 330.823C158.592 331.228 158.598 331.886 158.193 332.296C158.193 332.296 158.508 332.844 158.389 335.618C158.377 335.916 158.371 336.05 158.282 336.347C158.19 336.666 158.115 336.957 157.889 337.213C157.752 337.374 157.565 337.463 157.371 337.538C156.94 337.701 156.723 337.698 156.291 337.728C153.541 337.916 152.981 337.603 152.981 337.603C152.576 338.014 151.916 338.02 151.505 337.615C151.094 337.213 151.091 336.552 151.493 336.142C151.493 336.142 151.172 335.585 151.312 332.835C151.332 332.403 151.326 332.186 151.484 331.752C151.553 331.555 151.642 331.368 151.797 331.225C152.05 330.996 152.338 330.918 152.657 330.817C152.952 330.725 153.088 330.716 153.383 330.698C156.157 330.531 156.708 330.835 156.708 330.835Z" fill="white"/>
<path d="M47.1065 805.024C59.451 805.024 69.4581 793.599 69.4581 779.505C69.4581 765.412 59.451 753.986 47.1065 753.986C34.762 753.986 24.7549 765.412 24.7549 779.505C24.7549 793.599 34.762 805.024 47.1065 805.024Z" fill="white" fill-opacity="0.5"/>
<path fill-rule="evenodd" clip-rule="evenodd" d="M47.1066 753.248C53.8845 752.96 60.1009 756.026 64.6079 761.089C68.8068 765.81 71.4305 772.295 71.7038 779.505C71.9125 786.869 69.5572 793.632 65.567 798.706C61.05 804.45 54.4162 807.953 47.1066 808.048C39.7971 807.948 33.1682 804.445 28.6513 798.701C24.666 793.632 22.3107 786.864 22.5194 779.505C22.7927 772.3 25.4164 765.815 29.6104 761.094C34.1174 756.031 40.3337 752.965 47.1066 753.248ZM47.1066 754.724C41.0095 754.977 35.6578 758.168 31.9757 763.037C28.6563 767.43 26.7531 773.219 26.9916 779.505C27.1655 785.632 29.4463 791.108 32.9347 795.183C36.5472 799.406 41.5512 802.075 47.1066 802C52.6621 802.075 57.6611 799.401 61.2736 795.183C64.762 791.103 67.0428 785.627 67.2167 779.505C67.4502 773.224 65.5521 767.435 62.2327 763.042C58.5506 758.173 53.2038 754.982 47.1066 754.724Z" fill="white"/>
<path fill-rule="evenodd" clip-rule="evenodd" d="M49.0546 763.852C49.7254 763.171 50.8285 763.161 51.5143 763.832C52.2 764.508 52.21 765.606 51.5342 766.292C51.5342 766.292 52.0609 767.206 51.8622 771.837C51.8423 772.334 51.8323 772.558 51.6832 773.055C51.5292 773.586 51.405 774.073 51.0273 774.501C50.7987 774.769 50.4857 774.918 50.1627 775.042C49.4422 775.316 49.0794 775.311 48.3589 775.36C43.7674 775.673 42.8332 775.152 42.8332 775.152C42.1574 775.837 41.0543 775.847 40.3686 775.172C39.6828 774.501 39.6778 773.397 40.3487 772.712C40.3487 772.712 39.812 771.783 40.0456 767.191C40.0803 766.471 40.0704 766.108 40.3337 765.382C40.448 765.054 40.5971 764.741 40.8555 764.503C41.2779 764.12 41.7599 763.991 42.2916 763.822C42.7836 763.668 43.0121 763.653 43.504 763.623C48.1353 763.345 49.0546 763.852 49.0546 763.852Z" fill="white"/>
<path d="M1874.26 386.166C1889.63 386.166 1902.09 371.944 1902.09 354.401C1902.09 336.858 1889.63 322.637 1874.26 322.637C1858.9 322.637 1846.44 336.858 1846.44 354.401C1846.44 371.944 1858.9 386.166 1874.26 386.166Z" fill="white" fill-opacity="0.5"/>
<path fill-rule="evenodd" clip-rule="evenodd" d="M1874.26 321.719C1882.7 321.36 1890.44 325.176 1896.05 331.479C1901.27 337.355 1904.54 345.427 1904.88 354.402C1905.14 363.568 1902.21 371.986 1897.24 378.302C1891.62 385.452 1883.36 389.812 1874.26 389.93C1865.17 389.806 1856.91 385.446 1851.29 378.295C1846.33 371.986 1843.4 363.562 1843.66 354.402C1844 345.433 1847.26 337.361 1852.49 331.485C1858.1 325.182 1865.83 321.366 1874.26 321.719ZM1874.26 323.556C1866.67 323.871 1860.01 327.842 1855.43 333.904C1851.3 339.371 1848.93 346.577 1849.23 354.402C1849.44 362.028 1852.28 368.844 1856.62 373.916C1861.12 379.174 1867.35 382.495 1874.26 382.403C1881.18 382.495 1887.4 379.168 1891.9 373.916C1896.24 368.838 1899.08 362.022 1899.3 354.402C1899.59 346.583 1897.22 339.378 1893.09 333.91C1888.51 327.848 1881.85 323.877 1874.26 323.556Z" fill="white"/>
<path fill-rule="evenodd" clip-rule="evenodd" d="M1876.69 334.918C1877.52 334.07 1878.9 334.058 1879.75 334.893C1880.6 335.734 1880.62 337.101 1879.77 337.955C1879.77 337.955 1880.43 339.093 1880.18 344.858C1880.16 345.476 1880.15 345.754 1879.96 346.373C1879.77 347.035 1879.61 347.641 1879.14 348.173C1878.86 348.507 1878.47 348.692 1878.07 348.847C1877.17 349.187 1876.72 349.181 1875.82 349.243C1870.11 349.633 1868.94 348.983 1868.94 348.983C1868.1 349.837 1866.73 349.849 1865.88 349.008C1865.02 348.173 1865.02 346.8 1865.85 345.946C1865.85 345.946 1865.18 344.789 1865.47 339.074C1865.52 338.177 1865.51 337.726 1865.83 336.823C1865.98 336.415 1866.16 336.025 1866.48 335.728C1867.01 335.252 1867.61 335.091 1868.27 334.881C1868.88 334.689 1869.17 334.67 1869.78 334.633C1875.54 334.287 1876.69 334.918 1876.69 334.918Z" fill="white"/>
<path d="M1634.48 667.011C1651.01 667.011 1664.41 653.202 1664.41 636.167C1664.41 619.133 1651.01 605.324 1634.48 605.324C1617.95 605.324 1604.55 619.133 1604.55 636.167C1604.55 653.202 1617.95 667.011 1634.48 667.011Z" fill="white" fill-opacity="0.5"/>
<path fill-rule="evenodd" clip-rule="evenodd" d="M1634.48 604.384C1643.24 604.005 1651.28 607.435 1657.22 613.17C1663.19 618.942 1666.93 627.086 1667.27 636.167C1667.54 645.464 1664.11 653.993 1658.36 660.257C1652.38 666.773 1643.86 670.743 1634.48 670.863C1625.1 670.737 1616.58 666.767 1610.61 660.251C1604.87 653.987 1601.43 645.458 1601.7 636.167C1602.04 627.086 1605.77 618.948 1611.75 613.176C1617.69 607.447 1625.73 604.011 1634.48 604.384ZM1634.48 606.264C1626.54 606.6 1619.53 610.258 1614.57 615.873C1609.86 621.218 1607.1 628.377 1607.39 636.167C1607.61 643.741 1610.82 650.461 1615.71 655.368C1620.57 660.233 1627.18 663.254 1634.48 663.152C1641.78 663.248 1648.39 660.227 1653.24 655.362C1658.12 650.455 1661.34 643.735 1661.55 636.167C1661.84 628.383 1659.1 621.224 1654.38 615.879C1649.43 610.264 1642.42 606.6 1634.48 606.264Z" fill="white"/>
<path fill-rule="evenodd" clip-rule="evenodd" d="M1637.25 617.092C1638.15 616.263 1639.56 616.323 1640.38 617.224C1641.21 618.125 1641.15 619.531 1640.25 620.359C1640.25 620.359 1640.86 621.549 1640.31 627.44C1640.25 628.071 1640.22 628.353 1640 628.984C1639.77 629.651 1639.58 630.263 1639.07 630.78C1638.76 631.104 1638.35 631.272 1637.93 631.41C1636.99 631.711 1636.54 631.681 1635.62 631.693C1629.75 631.795 1628.59 631.068 1628.59 631.068C1627.69 631.897 1626.29 631.837 1625.46 630.93C1624.63 630.029 1624.69 628.624 1625.59 627.795C1625.59 627.795 1624.96 626.582 1625.56 620.744C1625.65 619.831 1625.66 619.369 1626.04 618.462C1626.21 618.053 1626.42 617.663 1626.77 617.375C1627.33 616.918 1627.95 616.78 1628.64 616.606C1629.28 616.444 1629.57 616.438 1630.19 616.432C1636.12 616.378 1637.25 617.092 1637.25 617.092Z" fill="white"/>
<path d="M1021.26 223.833C1033.61 223.833 1043.62 212.408 1043.62 198.314C1043.62 184.22 1033.61 172.795 1021.26 172.795C1008.92 172.795 998.912 184.22 998.912 198.314C998.912 212.408 1008.92 223.833 1021.26 223.833Z" fill="white" fill-opacity="0.5"/>
<path fill-rule="evenodd" clip-rule="evenodd" d="M1021.26 172.057C1028.04 171.769 1034.26 174.834 1038.76 179.898C1042.96 184.619 1045.59 191.103 1045.86 198.314C1046.07 205.678 1043.71 212.441 1039.72 217.514C1035.21 223.259 1028.57 226.762 1021.26 226.856C1013.95 226.757 1007.33 223.254 1002.81 217.509C998.823 212.441 996.468 205.673 996.676 198.314C996.95 191.108 999.573 184.624 1003.77 179.903C1008.27 174.839 1014.49 171.774 1021.26 172.057ZM1021.26 173.533C1015.17 173.786 1009.81 176.976 1006.13 181.846C1002.81 186.239 1000.91 192.028 1001.15 198.314C1001.32 204.441 1003.6 209.917 1007.09 213.991C1010.7 218.215 1015.71 220.883 1021.26 220.809C1026.82 220.883 1031.82 218.21 1035.43 213.991C1038.92 209.912 1041.2 204.436 1041.37 198.314C1041.61 192.033 1039.71 186.244 1036.39 181.851C1032.71 176.981 1027.36 173.791 1021.26 173.533Z" fill="white"/>
<path fill-rule="evenodd" clip-rule="evenodd" d="M1023.21 182.66C1023.88 181.98 1024.99 181.97 1025.67 182.641C1026.36 183.316 1026.37 184.415 1025.69 185.1C1025.69 185.1 1026.22 186.015 1026.02 190.646C1026 191.143 1025.99 191.366 1025.84 191.863C1025.69 192.395 1025.56 192.882 1025.18 193.309C1024.96 193.578 1024.64 193.727 1024.32 193.851C1023.6 194.124 1023.24 194.119 1022.52 194.169C1017.92 194.482 1016.99 193.96 1016.99 193.96C1016.31 194.646 1015.21 194.656 1014.53 193.98C1013.84 193.309 1013.83 192.206 1014.51 191.52C1014.51 191.52 1013.97 190.591 1014.2 186C1014.24 185.279 1014.23 184.916 1014.49 184.191C1014.61 183.863 1014.75 183.55 1015.01 183.311C1015.43 182.929 1015.92 182.8 1016.45 182.631C1016.94 182.477 1017.17 182.462 1017.66 182.432C1022.29 182.154 1023.21 182.66 1023.21 182.66Z" fill="white"/>
<path d="M1859.98 1612.57C1872.32 1612.57 1882.33 1601.15 1882.33 1587.05C1882.33 1572.96 1872.32 1561.53 1859.98 1561.53C1847.64 1561.53 1837.63 1572.96 1837.63 1587.05C1837.63 1601.15 1847.64 1612.57 1859.98 1612.57Z" fill="white" fill-opacity="0.5"/>
<path fill-rule="evenodd" clip-rule="evenodd" d="M1859.98 1560.8C1866.76 1560.51 1872.97 1563.57 1877.48 1568.64C1881.68 1573.36 1884.3 1579.84 1884.58 1587.05C1884.79 1594.42 1882.43 1601.18 1878.44 1606.25C1873.92 1612 1867.29 1615.5 1859.98 1615.6C1852.67 1615.5 1846.04 1611.99 1841.52 1606.25C1837.54 1601.18 1835.18 1594.41 1835.39 1587.05C1835.67 1579.85 1838.29 1573.36 1842.48 1568.64C1846.99 1563.58 1853.21 1560.51 1859.98 1560.8ZM1859.98 1562.27C1853.88 1562.53 1848.53 1565.72 1844.85 1570.59C1841.53 1574.98 1839.63 1580.77 1839.86 1587.05C1840.04 1593.18 1842.32 1598.66 1845.81 1602.73C1849.42 1606.95 1854.42 1609.62 1859.98 1609.55C1865.54 1609.62 1870.53 1606.95 1874.15 1602.73C1877.64 1598.65 1879.92 1593.17 1880.09 1587.05C1880.32 1580.77 1878.43 1574.98 1875.11 1570.59C1871.42 1565.72 1866.08 1562.53 1859.98 1562.27Z" fill="white"/>
<path fill-rule="evenodd" clip-rule="evenodd" d="M1861.93 1571.4C1862.6 1570.72 1863.7 1570.71 1864.39 1571.38C1865.07 1572.06 1865.08 1573.15 1864.41 1573.84C1864.41 1573.84 1864.93 1574.75 1864.74 1579.39C1864.72 1579.88 1864.71 1580.11 1864.56 1580.6C1864.4 1581.13 1864.28 1581.62 1863.9 1582.05C1863.67 1582.32 1863.36 1582.47 1863.04 1582.59C1862.32 1582.86 1861.95 1582.86 1861.23 1582.91C1856.64 1583.22 1855.71 1582.7 1855.71 1582.7C1855.03 1583.39 1853.93 1583.4 1853.24 1582.72C1852.56 1582.05 1852.55 1580.95 1853.22 1580.26C1853.22 1580.26 1852.69 1579.33 1852.92 1574.74C1852.95 1574.02 1852.94 1573.66 1853.21 1572.93C1853.32 1572.6 1853.47 1572.29 1853.73 1572.05C1854.15 1571.67 1854.63 1571.54 1855.16 1571.37C1855.66 1571.22 1855.89 1571.2 1856.38 1571.17C1861.01 1570.89 1861.93 1571.4 1861.93 1571.4Z" fill="white"/>
<path d="M355.72 1847.34C368.064 1847.34 378.071 1835.92 378.071 1821.82C378.071 1807.73 368.064 1796.3 355.72 1796.3C343.375 1796.3 333.368 1807.73 333.368 1821.82C333.368 1835.92 343.375 1847.34 355.72 1847.34Z" fill="white" fill-opacity="0.5"/>
<path fill-rule="evenodd" clip-rule="evenodd" d="M355.72 1795.57C362.498 1795.28 368.714 1798.34 373.221 1803.41C377.42 1808.13 380.044 1814.61 380.317 1821.82C380.526 1829.19 378.17 1835.95 374.18 1841.02C369.663 1846.77 363.029 1850.27 355.72 1850.37C348.41 1850.27 341.781 1846.76 337.264 1841.02C333.279 1835.95 330.924 1829.18 331.132 1821.82C331.406 1814.62 334.029 1808.13 338.223 1803.41C342.73 1798.35 348.947 1795.28 355.72 1795.57ZM355.72 1797.04C349.623 1797.29 344.271 1800.48 340.589 1805.35C337.269 1809.75 335.366 1815.54 335.605 1821.82C335.779 1827.95 338.059 1833.43 341.548 1837.5C345.16 1841.72 350.164 1844.39 355.72 1844.32C361.275 1844.39 366.274 1841.72 369.887 1837.5C373.375 1833.42 375.656 1827.94 375.83 1821.82C376.063 1815.54 374.165 1809.75 370.846 1805.36C367.164 1800.49 361.817 1797.3 355.72 1797.04Z" fill="white"/>
<path fill-rule="evenodd" clip-rule="evenodd" d="M357.668 1806.17C358.338 1805.49 359.442 1805.48 360.127 1806.15C360.813 1806.83 360.823 1807.92 360.147 1808.61C360.147 1808.61 360.674 1809.52 360.475 1814.15C360.455 1814.65 360.445 1814.88 360.296 1815.37C360.142 1815.9 360.018 1816.39 359.64 1816.82C359.412 1817.09 359.099 1817.24 358.776 1817.36C358.055 1817.63 357.692 1817.63 356.972 1817.68C352.38 1817.99 351.446 1817.47 351.446 1817.47C350.77 1818.15 349.667 1818.16 348.982 1817.49C348.296 1816.82 348.291 1815.71 348.962 1815.03C348.962 1815.03 348.425 1814.1 348.659 1809.51C348.693 1808.79 348.683 1808.43 348.947 1807.7C349.061 1807.37 349.21 1807.06 349.469 1806.82C349.891 1806.44 350.373 1806.31 350.905 1806.14C351.397 1805.99 351.625 1805.97 352.117 1805.94C356.748 1805.66 357.668 1806.17 357.668 1806.17Z" fill="white"/>
<path d="M319.794 1696.46C335.712 1696.46 348.617 1681.73 348.617 1663.55C348.617 1645.38 335.712 1630.64 319.794 1630.64C303.875 1630.64 290.971 1645.38 290.971 1663.55C290.971 1681.73 303.875 1696.46 319.794 1696.46Z" fill="white" fill-opacity="0.5"/>
<path fill-rule="evenodd" clip-rule="evenodd" d="M319.794 1629.69C328.534 1629.32 336.55 1633.27 342.362 1639.8C347.776 1645.89 351.16 1654.25 351.512 1663.55C351.781 1673.05 348.744 1681.77 343.599 1688.31C337.774 1695.72 329.22 1700.24 319.794 1700.36C310.368 1700.23 301.82 1695.71 295.995 1688.3C290.856 1681.77 287.819 1673.04 288.088 1663.55C288.44 1654.26 291.824 1645.9 297.232 1639.81C303.044 1633.28 311.06 1629.33 319.794 1629.69ZM319.794 1631.6C311.931 1631.92 305.03 1636.04 300.282 1642.32C296.002 1647.98 293.547 1655.44 293.855 1663.55C294.079 1671.45 297.02 1678.51 301.519 1683.77C306.177 1689.21 312.63 1692.65 319.794 1692.56C326.958 1692.65 333.404 1689.21 338.062 1683.77C342.561 1678.51 345.502 1671.45 345.726 1663.55C346.027 1655.45 343.579 1647.99 339.299 1642.32C334.551 1636.04 327.656 1631.93 319.794 1631.6Z" fill="white"/>
<path fill-rule="evenodd" clip-rule="evenodd" d="M322.306 1643.37C323.171 1642.49 324.593 1642.48 325.478 1643.34C326.362 1644.21 326.375 1645.63 325.503 1646.51C325.503 1646.51 326.182 1647.69 325.926 1653.66C325.9 1654.3 325.888 1654.59 325.695 1655.23C325.497 1655.92 325.337 1656.55 324.85 1657.1C324.555 1657.44 324.151 1657.64 323.735 1657.8C322.805 1658.15 322.338 1658.14 321.409 1658.21C315.488 1658.61 314.283 1657.94 314.283 1657.94C313.412 1658.82 311.989 1658.83 311.105 1657.96C310.221 1657.1 310.214 1655.68 311.079 1654.79C311.079 1654.79 310.387 1653.59 310.688 1647.67C310.733 1646.74 310.72 1646.27 311.06 1645.34C311.207 1644.92 311.4 1644.51 311.733 1644.21C312.278 1643.71 312.899 1643.55 313.585 1643.33C314.219 1643.13 314.514 1643.11 315.148 1643.07C321.12 1642.71 322.306 1643.37 322.306 1643.37Z" fill="white"/>
<path d="M38.4605 2069.56C50.805 2069.56 60.8121 2058.14 60.8121 2044.04C60.8121 2029.95 50.805 2018.52 38.4605 2018.52C26.116 2018.52 16.1089 2029.95 16.1089 2044.04C16.1089 2058.14 26.116 2069.56 38.4605 2069.56Z" fill="white" fill-opacity="0.5"/>
<path fill-rule="evenodd" clip-rule="evenodd" d="M38.4606 2017.79C45.2385 2017.5 51.4549 2020.56 55.9619 2025.63C60.1608 2030.35 62.7845 2036.83 63.0578 2044.04C63.2665 2051.41 60.9112 2058.17 56.921 2063.24C52.404 2068.99 45.7702 2072.49 38.4606 2072.59C31.1511 2072.49 24.5222 2068.98 20.0053 2063.24C16.02 2058.17 13.6647 2051.4 13.8734 2044.04C14.1467 2036.84 16.7704 2030.35 20.9644 2025.63C25.4714 2020.57 31.6877 2017.5 38.4606 2017.79ZM38.4606 2019.26C32.3635 2019.52 27.0118 2022.71 23.3297 2027.58C20.0103 2031.97 18.1071 2037.76 18.3456 2044.04C18.5195 2050.17 20.8003 2055.65 24.2887 2059.72C27.9012 2063.94 32.9052 2066.61 38.4606 2066.54C44.0161 2066.61 49.0151 2063.94 52.6276 2059.72C56.116 2055.64 58.3968 2050.17 58.5707 2044.04C58.8043 2037.76 56.9061 2031.97 53.5867 2027.58C49.9046 2022.71 44.5578 2019.52 38.4606 2019.26Z" fill="white"/>
<path fill-rule="evenodd" clip-rule="evenodd" d="M40.4086 2028.39C41.0794 2027.71 42.1825 2027.7 42.8683 2028.37C43.554 2029.05 43.564 2030.14 42.8882 2030.83C42.8882 2030.83 43.4149 2031.74 43.2162 2036.38C43.1963 2036.87 43.1863 2037.1 43.0372 2037.59C42.8832 2038.12 42.759 2038.61 42.3813 2039.04C42.1527 2039.31 41.8397 2039.46 41.5167 2039.58C40.7962 2039.85 40.4334 2039.85 39.7129 2039.9C35.1214 2040.21 34.1872 2039.69 34.1872 2039.69C33.5114 2040.38 32.4083 2040.39 31.7226 2039.71C31.0368 2039.04 31.0318 2037.94 31.7027 2037.25C31.7027 2037.25 31.166 2036.32 31.3996 2031.73C31.4343 2031.01 31.4244 2030.65 31.6877 2029.92C31.802 2029.59 31.9511 2029.28 32.2095 2029.04C32.6319 2028.66 33.1139 2028.53 33.6456 2028.36C34.1376 2028.21 34.3661 2028.19 34.8581 2028.16C39.4893 2027.88 40.4086 2028.39 40.4086 2028.39Z" fill="white"/>
<path d="M160.464 2417.63C172.809 2417.63 182.816 2406.2 182.816 2392.11C182.816 2378.02 172.809 2366.59 160.464 2366.59C148.12 2366.59 138.113 2378.02 138.113 2392.11C138.113 2406.2 148.12 2417.63 160.464 2417.63Z" fill="white" fill-opacity="0.5"/>
<path fill-rule="evenodd" clip-rule="evenodd" d="M160.465 2365.85C167.242 2365.57 173.459 2368.63 177.966 2373.7C182.165 2378.42 184.788 2384.9 185.062 2392.11C185.27 2399.48 182.915 2406.24 178.925 2411.31C174.408 2417.06 167.774 2420.56 160.465 2420.65C153.155 2420.55 146.526 2417.05 142.009 2411.31C138.024 2406.24 135.669 2399.47 135.877 2392.11C136.151 2384.91 138.774 2378.42 142.968 2373.7C147.475 2368.64 153.692 2365.57 160.465 2365.85ZM160.465 2367.33C154.367 2367.58 149.016 2370.77 145.334 2375.64C142.014 2380.04 140.111 2385.83 140.35 2392.11C140.523 2398.24 142.804 2403.71 146.293 2407.79C149.905 2412.01 154.909 2414.68 160.465 2414.61C166.02 2414.68 171.019 2412.01 174.632 2407.79C178.12 2403.71 180.401 2398.23 180.575 2392.11C180.808 2385.83 178.91 2380.04 175.591 2375.65C171.908 2370.78 166.562 2367.59 160.465 2367.33Z" fill="white"/>
<path fill-rule="evenodd" clip-rule="evenodd" d="M162.412 2376.46C163.083 2375.78 164.186 2375.77 164.872 2376.44C165.558 2377.11 165.568 2378.21 164.892 2378.9C164.892 2378.9 165.419 2379.81 165.22 2384.44C165.2 2384.94 165.19 2385.16 165.041 2385.66C164.887 2386.19 164.763 2386.68 164.385 2387.11C164.157 2387.38 163.844 2387.52 163.521 2387.65C162.8 2387.92 162.437 2387.92 161.717 2387.97C157.125 2388.28 156.191 2387.76 156.191 2387.76C155.515 2388.44 154.412 2388.45 153.726 2387.78C153.041 2387.11 153.036 2386 153.707 2385.32C153.707 2385.32 153.17 2384.39 153.403 2379.8C153.438 2379.08 153.428 2378.71 153.692 2377.99C153.806 2377.66 153.955 2377.35 154.213 2377.11C154.636 2376.73 155.118 2376.6 155.65 2376.43C156.141 2376.27 156.37 2376.26 156.862 2376.23C161.493 2375.95 162.412 2376.46 162.412 2376.46Z" fill="white"/>
<path d="M1813.76 2367.99C1826.1 2367.99 1836.11 2356.57 1836.11 2342.47C1836.11 2328.38 1826.1 2316.95 1813.76 2316.95C1801.42 2316.95 1791.41 2328.38 1791.41 2342.47C1791.41 2356.57 1801.42 2367.99 1813.76 2367.99Z" fill="white" fill-opacity="0.5"/>
<path fill-rule="evenodd" clip-rule="evenodd" d="M1813.76 2316.22C1820.54 2315.93 1826.75 2318.99 1831.26 2324.06C1835.46 2328.78 1838.08 2335.26 1838.36 2342.47C1838.57 2349.84 1836.21 2356.6 1832.22 2361.67C1827.7 2367.42 1821.07 2370.92 1813.76 2371.02C1806.45 2370.92 1799.82 2367.41 1795.3 2361.67C1791.32 2356.6 1788.96 2349.83 1789.17 2342.47C1789.45 2335.27 1792.07 2328.78 1796.26 2324.06C1800.77 2319 1806.99 2315.93 1813.76 2316.22ZM1813.76 2317.69C1807.66 2317.95 1802.31 2321.14 1798.63 2326.01C1795.31 2330.4 1793.41 2336.19 1793.64 2342.47C1793.82 2348.6 1796.1 2354.08 1799.59 2358.15C1803.2 2362.37 1808.2 2365.04 1813.76 2364.97C1819.32 2365.04 1824.31 2362.37 1827.93 2358.15C1831.42 2354.07 1833.7 2348.59 1833.87 2342.47C1834.1 2336.19 1832.21 2330.4 1828.89 2326.01C1825.2 2321.14 1819.86 2317.95 1813.76 2317.69Z" fill="white"/>
<path fill-rule="evenodd" clip-rule="evenodd" d="M1815.71 2326.82C1816.38 2326.14 1817.48 2326.13 1818.17 2326.8C1818.85 2327.48 1818.86 2328.57 1818.19 2329.26C1818.19 2329.26 1818.71 2330.17 1818.52 2334.8C1818.5 2335.3 1818.49 2335.53 1818.34 2336.02C1818.18 2336.55 1818.06 2337.04 1817.68 2337.47C1817.45 2337.74 1817.14 2337.89 1816.82 2338.01C1816.1 2338.28 1815.73 2338.28 1815.01 2338.33C1810.42 2338.64 1809.49 2338.12 1809.49 2338.12C1808.81 2338.81 1807.71 2338.82 1807.02 2338.14C1806.34 2337.47 1806.33 2336.37 1807 2335.68C1807 2335.68 1806.47 2334.75 1806.7 2330.16C1806.73 2329.44 1806.72 2329.08 1806.99 2328.35C1807.1 2328.02 1807.25 2327.71 1807.51 2327.47C1807.93 2327.09 1808.41 2326.96 1808.94 2326.79C1809.44 2326.64 1809.67 2326.62 1810.16 2326.59C1814.79 2326.31 1815.71 2326.82 1815.71 2326.82Z" fill="white"/>
<path d="M2060.22 1825.29C2072.56 1825.29 2082.57 1813.86 2082.57 1799.77C2082.57 1785.68 2072.56 1774.25 2060.22 1774.25C2047.88 1774.25 2037.87 1785.68 2037.87 1799.77C2037.87 1813.86 2047.88 1825.29 2060.22 1825.29Z" fill="white" fill-opacity="0.5"/>
<path fill-rule="evenodd" clip-rule="evenodd" d="M2060.22 1773.51C2067 1773.23 2073.21 1776.29 2077.72 1781.36C2081.92 1786.08 2084.54 1792.56 2084.82 1799.77C2085.03 1807.14 2082.67 1813.9 2078.68 1818.97C2074.16 1824.72 2067.53 1828.22 2060.22 1828.31C2052.91 1828.21 2046.28 1824.71 2041.76 1818.97C2037.78 1813.9 2035.42 1807.13 2035.63 1799.77C2035.91 1792.57 2038.53 1786.08 2042.72 1781.36C2047.23 1776.3 2053.45 1773.23 2060.22 1773.51ZM2060.22 1774.99C2054.12 1775.24 2048.77 1778.43 2045.09 1783.3C2041.77 1787.7 2039.87 1793.49 2040.1 1799.77C2040.28 1805.9 2042.56 1811.37 2046.05 1815.45C2049.66 1819.67 2054.66 1822.34 2060.22 1822.27C2065.78 1822.34 2070.77 1819.67 2074.39 1815.45C2077.88 1811.37 2080.16 1805.89 2080.33 1799.77C2080.56 1793.49 2078.67 1787.7 2075.35 1783.31C2071.66 1778.44 2066.32 1775.25 2060.22 1774.99Z" fill="white"/>
<path fill-rule="evenodd" clip-rule="evenodd" d="M2062.17 1784.12C2062.84 1783.44 2063.94 1783.43 2064.63 1784.1C2065.31 1784.77 2065.32 1785.87 2064.65 1786.56C2064.65 1786.56 2065.17 1787.47 2064.98 1792.1C2064.96 1792.6 2064.95 1792.82 2064.8 1793.32C2064.64 1793.85 2064.52 1794.34 2064.14 1794.77C2063.91 1795.04 2063.6 1795.18 2063.28 1795.31C2062.56 1795.58 2062.19 1795.58 2061.47 1795.63C2056.88 1795.94 2055.95 1795.42 2055.95 1795.42C2055.27 1796.1 2054.17 1796.11 2053.48 1795.44C2052.8 1794.77 2052.79 1793.66 2053.46 1792.98C2053.46 1792.98 2052.93 1792.05 2053.16 1787.46C2053.19 1786.74 2053.18 1786.37 2053.45 1785.65C2053.56 1785.32 2053.71 1785.01 2053.97 1784.77C2054.39 1784.39 2054.87 1784.26 2055.4 1784.09C2055.9 1783.93 2056.13 1783.92 2056.62 1783.89C2061.25 1783.61 2062.17 1784.12 2062.17 1784.12Z" fill="white"/>
<path d="M2088.18 963.212C2100.52 963.212 2110.53 951.787 2110.53 937.693C2110.53 923.599 2100.52 912.174 2088.18 912.174C2075.84 912.174 2065.83 923.599 2065.83 937.693C2065.83 951.787 2075.84 963.212 2088.18 963.212Z" fill="white" fill-opacity="0.5"/>
<path fill-rule="evenodd" clip-rule="evenodd" d="M2088.18 911.436C2094.96 911.147 2101.17 914.213 2105.68 919.277C2109.88 923.998 2112.5 930.482 2112.78 937.693C2112.99 945.057 2110.63 951.82 2106.64 956.893C2102.12 962.638 2095.49 966.141 2088.18 966.235C2080.87 966.136 2074.24 962.633 2069.72 956.888C2065.74 951.82 2063.38 945.052 2063.59 937.693C2063.87 930.487 2066.49 924.003 2070.68 919.282C2075.19 914.218 2081.41 911.152 2088.18 911.436ZM2088.18 912.911C2082.08 913.165 2076.73 916.355 2073.05 921.225C2069.73 925.618 2067.83 931.407 2068.06 937.693C2068.24 943.819 2070.52 949.295 2074.01 953.37C2077.62 957.594 2082.62 960.262 2088.18 960.188C2093.74 960.262 2098.73 957.589 2102.35 953.37C2105.83 949.29 2108.12 943.815 2108.29 937.693C2108.52 931.412 2106.63 925.623 2103.31 921.23C2099.62 916.36 2094.28 913.17 2088.18 912.911Z" fill="white"/>
<path fill-rule="evenodd" clip-rule="evenodd" d="M2090.13 922.039C2090.8 921.359 2091.9 921.349 2092.59 922.019C2093.27 922.695 2093.28 923.793 2092.61 924.479C2092.61 924.479 2093.13 925.393 2092.94 930.025C2092.92 930.522 2092.91 930.745 2092.76 931.242C2092.6 931.774 2092.48 932.261 2092.1 932.688C2091.87 932.956 2091.56 933.106 2091.24 933.23C2090.52 933.503 2090.15 933.498 2089.43 933.548C2084.84 933.861 2083.91 933.339 2083.91 933.339C2083.23 934.025 2082.13 934.035 2081.44 933.359C2080.76 932.688 2080.75 931.585 2081.42 930.899C2081.42 930.899 2080.89 929.97 2081.12 925.379C2081.15 924.658 2081.14 924.295 2081.41 923.57C2081.52 923.242 2081.67 922.929 2081.93 922.69C2082.35 922.308 2082.83 922.178 2083.36 922.009C2083.86 921.855 2084.09 921.841 2084.58 921.811C2089.21 921.532 2090.13 922.039 2090.13 922.039Z" fill="white"/>
<path d="M2115.8 835.212C2126.21 835.212 2134.65 825.577 2134.65 813.692C2134.65 801.807 2126.21 792.172 2115.8 792.172C2105.39 792.172 2096.95 801.807 2096.95 813.692C2096.95 825.577 2105.39 835.212 2115.8 835.212Z" fill="white" fill-opacity="0.5"/>
<path fill-rule="evenodd" clip-rule="evenodd" d="M2115.8 791.55C2121.52 791.307 2126.76 793.892 2130.56 798.162C2134.1 802.143 2136.31 807.612 2136.54 813.692C2136.72 819.902 2134.73 825.606 2131.37 829.884C2127.56 834.728 2121.97 837.682 2115.8 837.762C2109.64 837.678 2104.05 834.724 2100.24 829.88C2096.88 825.606 2094.89 819.898 2095.07 813.692C2095.3 807.616 2097.51 802.148 2101.05 798.167C2104.85 793.897 2110.09 791.311 2115.8 791.55ZM2115.8 792.794C2110.66 793.008 2106.15 795.698 2103.04 799.805C2100.24 803.509 2098.64 808.391 2098.84 813.692C2098.99 818.859 2100.91 823.477 2103.85 826.913C2106.9 830.475 2111.12 832.725 2115.8 832.662C2120.49 832.725 2124.7 830.471 2127.75 826.913C2130.69 823.473 2132.61 818.855 2132.76 813.692C2132.96 808.395 2131.36 803.514 2128.56 799.809C2125.45 795.703 2120.94 793.012 2115.8 792.794Z" fill="white"/>
<path fill-rule="evenodd" clip-rule="evenodd" d="M2117.44 800.493C2118.01 799.918 2118.94 799.91 2119.52 800.476C2120.1 801.046 2120.11 801.972 2119.54 802.55C2119.54 802.55 2119.98 803.321 2119.81 807.227C2119.8 807.646 2119.79 807.834 2119.66 808.253C2119.53 808.702 2119.43 809.112 2119.11 809.473C2118.92 809.699 2118.65 809.825 2118.38 809.929C2117.77 810.16 2117.47 810.156 2116.86 810.198C2112.99 810.462 2112.2 810.022 2112.2 810.022C2111.63 810.6 2110.7 810.608 2110.12 810.038C2109.54 809.473 2109.54 808.542 2110.1 807.964C2110.1 807.964 2109.65 807.18 2109.85 803.308C2109.88 802.701 2109.87 802.395 2110.09 801.783C2110.19 801.507 2110.31 801.243 2110.53 801.041C2110.89 800.719 2111.29 800.61 2111.74 800.467C2112.16 800.337 2112.35 800.325 2112.76 800.3C2116.67 800.065 2117.44 800.493 2117.44 800.493Z" fill="white"/>
<path d="M2056.39 734.005C2068.73 734.005 2078.74 722.579 2078.74 708.486C2078.74 694.392 2068.73 682.967 2056.39 682.967C2044.05 682.967 2034.04 694.392 2034.04 708.486C2034.04 722.579 2044.05 734.005 2056.39 734.005Z" fill="white" fill-opacity="0.5"/>
<path fill-rule="evenodd" clip-rule="evenodd" d="M2056.39 682.229C2063.17 681.94 2069.38 685.006 2073.89 690.07C2078.09 694.791 2080.71 701.275 2080.99 708.486C2081.2 715.85 2078.84 722.613 2074.85 727.686C2070.33 733.431 2063.7 736.934 2056.39 737.028C2049.08 736.929 2042.45 733.426 2037.93 727.681C2033.95 722.613 2031.59 715.845 2031.8 708.486C2032.08 701.28 2034.7 694.796 2038.89 690.075C2043.4 685.011 2049.62 681.945 2056.39 682.229ZM2056.39 683.704C2050.29 683.958 2044.94 687.148 2041.26 692.018C2037.94 696.411 2036.04 702.2 2036.27 708.486C2036.45 714.612 2038.73 720.088 2042.22 724.163C2045.83 728.387 2050.83 731.055 2056.39 730.981C2061.95 731.055 2066.94 728.382 2070.56 724.163C2074.04 720.083 2076.33 714.607 2076.5 708.486C2076.73 702.205 2074.84 696.415 2071.52 692.023C2067.83 687.153 2062.49 683.963 2056.39 683.704Z" fill="white"/>
<path fill-rule="evenodd" clip-rule="evenodd" d="M2058.34 692.832C2059.01 692.152 2060.11 692.142 2060.8 692.812C2061.48 693.488 2061.49 694.586 2060.82 695.272C2060.82 695.272 2061.34 696.186 2061.15 700.818C2061.13 701.315 2061.12 701.538 2060.97 702.035C2060.81 702.567 2060.69 703.054 2060.31 703.481C2060.08 703.749 2059.77 703.899 2059.45 704.023C2058.73 704.296 2058.36 704.291 2057.64 704.341C2053.05 704.654 2052.12 704.132 2052.12 704.132C2051.44 704.818 2050.34 704.828 2049.65 704.152C2048.97 703.481 2048.96 702.378 2049.63 701.692C2049.63 701.692 2049.09 700.763 2049.33 696.172C2049.36 695.451 2049.35 695.088 2049.62 694.363C2049.73 694.035 2049.88 693.722 2050.14 693.483C2050.56 693.101 2051.04 692.971 2051.57 692.802C2052.07 692.648 2052.3 692.633 2052.79 692.604C2057.42 692.325 2058.34 692.832 2058.34 692.832Z" fill="white"/>
<path d="M2108.34 225.746C2120.68 225.746 2130.69 214.321 2130.69 200.227C2130.69 186.133 2120.68 174.708 2108.34 174.708C2095.99 174.708 2085.99 186.133 2085.99 200.227C2085.99 214.321 2095.99 225.746 2108.34 225.746Z" fill="white" fill-opacity="0.5"/>
<path fill-rule="evenodd" clip-rule="evenodd" d="M2108.34 173.97C2115.12 173.682 2121.33 176.748 2125.84 181.811C2130.04 186.532 2132.66 193.017 2132.94 200.227C2133.15 207.591 2130.79 214.354 2126.8 219.427C2122.28 225.172 2115.65 228.675 2108.34 228.769C2101.03 228.67 2094.4 225.167 2089.88 219.422C2085.9 214.354 2083.54 207.586 2083.75 200.227C2084.03 193.021 2086.65 186.537 2090.84 181.816C2095.35 176.753 2101.57 173.687 2108.34 173.97ZM2108.34 175.446C2102.24 175.699 2096.89 178.889 2093.21 183.759C2089.89 188.152 2087.99 193.941 2088.22 200.227C2088.4 206.354 2090.68 211.83 2094.17 215.904C2097.78 220.128 2102.78 222.797 2108.34 222.722C2113.89 222.797 2118.89 220.123 2122.51 215.904C2125.99 211.825 2128.28 206.349 2128.45 200.227C2128.68 193.946 2126.78 188.157 2123.47 183.764C2119.78 178.894 2114.44 175.704 2108.34 175.446Z" fill="white"/>
<path fill-rule="evenodd" clip-rule="evenodd" d="M2110.29 184.574C2110.96 183.893 2112.06 183.883 2112.75 184.554C2113.43 185.229 2113.44 186.328 2112.77 187.013C2112.77 187.013 2113.29 187.928 2113.09 192.559C2113.07 193.056 2113.06 193.279 2112.92 193.776C2112.76 194.308 2112.64 194.795 2112.26 195.222C2112.03 195.491 2111.72 195.64 2111.4 195.764C2110.67 196.037 2110.31 196.032 2109.59 196.082C2105 196.395 2104.07 195.873 2104.07 195.873C2103.39 196.559 2102.29 196.569 2101.6 195.893C2100.92 195.222 2100.91 194.119 2101.58 193.433C2101.58 193.433 2101.04 192.504 2101.28 187.913C2101.31 187.192 2101.3 186.829 2101.57 186.104C2101.68 185.776 2101.83 185.463 2102.09 185.224C2102.51 184.842 2102.99 184.713 2103.52 184.544C2104.02 184.39 2104.24 184.375 2104.74 184.345C2109.37 184.067 2110.29 184.574 2110.29 184.574Z" fill="white"/>
<path d="M627.147 192.511C637.584 192.511 646.045 182.851 646.045 170.934C646.045 159.018 637.584 149.358 627.147 149.358C616.709 149.358 608.249 159.018 608.249 170.934C608.249 182.851 616.709 192.511 627.147 192.511Z" fill="white" fill-opacity="0.5"/>
<path fill-rule="evenodd" clip-rule="evenodd" d="M627.147 148.735C632.877 148.491 638.133 151.083 641.944 155.364C645.494 159.356 647.712 164.838 647.944 170.934C648.12 177.161 646.129 182.879 642.755 187.169C638.936 192.025 633.327 194.987 627.147 195.067C620.967 194.983 615.362 192.021 611.543 187.164C608.173 182.879 606.182 177.157 606.358 170.934C606.59 164.843 608.808 159.36 612.354 155.368C616.164 151.087 621.42 148.495 627.147 148.735ZM627.147 149.982C621.992 150.197 617.467 152.894 614.354 157.011C611.547 160.725 609.938 165.62 610.14 170.934C610.287 176.115 612.215 180.745 615.165 184.19C618.219 187.761 622.45 190.017 627.147 189.954C631.844 190.017 636.07 187.757 639.125 184.19C642.074 180.74 644.003 176.111 644.15 170.934C644.347 165.624 642.742 160.729 639.936 157.015C636.823 152.898 632.302 150.201 627.147 149.982Z" fill="white"/>
<path fill-rule="evenodd" clip-rule="evenodd" d="M628.794 157.701C629.361 157.125 630.294 157.117 630.873 157.684C631.453 158.255 631.462 159.184 630.89 159.764C630.89 159.764 631.336 160.537 631.168 164.452C631.151 164.872 631.142 165.061 631.016 165.482C630.886 165.931 630.781 166.343 630.462 166.704C630.268 166.931 630.004 167.057 629.731 167.162C629.121 167.393 628.815 167.389 628.206 167.431C624.324 167.696 623.534 167.255 623.534 167.255C622.962 167.834 622.03 167.843 621.45 167.271C620.87 166.704 620.866 165.771 621.433 165.192C621.433 165.192 620.979 164.406 621.177 160.524C621.206 159.915 621.198 159.608 621.42 158.995C621.517 158.717 621.643 158.453 621.862 158.251C622.219 157.928 622.626 157.818 623.076 157.675C623.492 157.545 623.685 157.533 624.101 157.507C628.016 157.272 628.794 157.701 628.794 157.701Z" fill="white"/>
<path d="M1048.54 571.848C1060.88 571.848 1070.89 560.423 1070.89 546.33C1070.89 532.236 1060.88 520.811 1048.54 520.811C1036.2 520.811 1026.19 532.236 1026.19 546.33C1026.19 560.423 1036.2 571.848 1048.54 571.848Z" fill="white" fill-opacity="0.5"/>
<path fill-rule="evenodd" clip-rule="evenodd" d="M1048.54 520.072C1055.32 519.784 1061.53 522.85 1066.04 527.914C1070.24 532.634 1072.86 539.119 1073.14 546.329C1073.35 553.694 1070.99 560.457 1067 565.53C1062.48 571.274 1055.85 574.778 1048.54 574.872C1041.23 574.773 1034.6 571.269 1030.08 565.525C1026.1 560.457 1023.74 553.689 1023.95 546.329C1024.23 539.124 1026.85 532.639 1031.04 527.919C1035.55 522.855 1041.77 519.789 1048.54 520.072ZM1048.54 521.548C1042.44 521.802 1037.09 524.992 1033.41 529.862C1030.09 534.254 1028.19 540.043 1028.42 546.329C1028.6 552.456 1030.88 557.932 1034.37 562.007C1037.98 566.231 1042.98 568.899 1048.54 568.825C1054.09 568.899 1059.09 566.226 1062.71 562.007C1066.19 557.927 1068.48 552.451 1068.65 546.329C1068.88 540.048 1066.98 534.259 1063.67 529.867C1059.98 524.997 1054.64 521.807 1048.54 521.548Z" fill="white"/>
<path fill-rule="evenodd" clip-rule="evenodd" d="M1050.49 530.676C1051.16 529.995 1052.26 529.985 1052.95 530.656C1053.63 531.332 1053.64 532.43 1052.97 533.116C1052.97 533.116 1053.49 534.03 1053.3 538.661C1053.28 539.158 1053.27 539.382 1053.12 539.879C1052.96 540.411 1052.84 540.898 1052.46 541.325C1052.23 541.593 1051.92 541.742 1051.6 541.867C1050.88 542.14 1050.51 542.135 1049.79 542.185C1045.2 542.498 1044.27 541.976 1044.27 541.976C1043.59 542.662 1042.49 542.672 1041.8 541.996C1041.12 541.325 1041.11 540.222 1041.78 539.536C1041.78 539.536 1041.24 538.607 1041.48 534.015C1041.51 533.295 1041.5 532.932 1041.77 532.207C1041.88 531.879 1042.03 531.565 1042.29 531.327C1042.71 530.944 1043.19 530.815 1043.72 530.646C1044.22 530.492 1044.44 530.477 1044.94 530.447C1049.57 530.169 1050.49 530.676 1050.49 530.676Z" fill="white"/>
<path d="M1466.43 851.051C1478.77 851.051 1488.78 839.625 1488.78 825.532C1488.78 811.438 1478.77 800.013 1466.43 800.013C1454.08 800.013 1444.08 811.438 1444.08 825.532C1444.08 839.625 1454.08 851.051 1466.43 851.051Z" fill="white" fill-opacity="0.5"/>
<path fill-rule="evenodd" clip-rule="evenodd" d="M1466.43 799.275C1473.21 798.986 1479.42 802.052 1483.93 807.116C1488.13 811.836 1490.75 818.321 1491.02 825.531C1491.23 832.896 1488.88 839.659 1484.89 844.732C1480.37 850.476 1473.74 853.98 1466.43 854.074C1459.12 853.975 1452.49 850.471 1447.97 844.727C1443.99 839.659 1441.63 832.891 1441.84 825.531C1442.11 818.326 1444.74 811.841 1448.93 807.121C1453.44 802.057 1459.65 798.991 1466.43 799.275ZM1466.43 800.75C1460.33 801.004 1454.98 804.194 1451.3 809.064C1447.98 813.456 1446.07 819.245 1446.31 825.531C1446.49 831.658 1448.77 837.134 1452.26 841.209C1455.87 845.433 1460.87 848.101 1466.43 848.027C1471.98 848.101 1476.98 845.428 1480.59 841.209C1484.08 837.129 1486.36 831.653 1486.54 825.531C1486.77 819.25 1484.87 813.461 1481.55 809.069C1477.87 804.199 1472.52 801.009 1466.43 800.75Z" fill="white"/>
<path fill-rule="evenodd" clip-rule="evenodd" d="M1468.38 809.878C1469.05 809.197 1470.15 809.187 1470.84 809.858C1471.52 810.534 1471.53 811.632 1470.86 812.318C1470.86 812.318 1471.38 813.232 1471.18 817.864C1471.16 818.36 1471.15 818.584 1471 819.081C1470.85 819.613 1470.73 820.1 1470.35 820.527C1470.12 820.795 1469.81 820.944 1469.48 821.069C1468.76 821.342 1468.4 821.337 1467.68 821.387C1463.09 821.7 1462.15 821.178 1462.15 821.178C1461.48 821.864 1460.38 821.874 1459.69 821.198C1459 820.527 1459 819.424 1459.67 818.738C1459.67 818.738 1459.13 817.809 1459.37 813.217C1459.4 812.497 1459.39 812.134 1459.65 811.409C1459.77 811.081 1459.92 810.768 1460.18 810.529C1460.6 810.146 1461.08 810.017 1461.61 809.848C1462.1 809.694 1462.33 809.679 1462.83 809.65C1467.46 809.371 1468.38 809.878 1468.38 809.878Z" fill="white"/>
<path d="M1517.93 163.001C1537.66 163.001 1553.64 144.748 1553.64 122.231C1553.64 99.7143 1537.66 81.4609 1517.93 81.4609C1498.21 81.4609 1482.22 99.7143 1482.22 122.231C1482.22 144.748 1498.21 163.001 1517.93 163.001Z" fill="white" fill-opacity="0.5"/>
<path fill-rule="evenodd" clip-rule="evenodd" d="M1517.93 80.2818C1528.76 79.8213 1538.69 84.7196 1545.89 92.8093C1552.6 100.351 1556.79 110.711 1557.23 122.231C1557.56 133.996 1553.8 144.801 1547.43 152.906C1540.21 162.084 1529.61 167.681 1517.93 167.831C1506.26 167.673 1495.67 162.076 1488.45 152.899C1482.08 144.801 1478.32 133.988 1478.65 122.231C1479.09 110.719 1483.28 100.359 1489.98 92.8172C1497.18 84.7275 1507.11 79.8293 1517.93 80.2818ZM1517.93 82.6396C1508.19 83.0445 1499.64 88.1412 1493.76 95.9213C1488.46 102.939 1485.42 112.188 1485.8 122.231C1486.07 132.019 1489.72 140.768 1495.29 147.278C1501.06 154.026 1509.06 158.289 1517.93 158.17C1526.81 158.289 1534.8 154.018 1540.57 147.278C1546.14 140.76 1549.78 132.011 1550.06 122.231C1550.44 112.196 1547.4 102.947 1542.1 95.9293C1536.22 88.1492 1527.67 83.0524 1517.93 82.6396Z" fill="white"/>
<path fill-rule="evenodd" clip-rule="evenodd" d="M1521.05 97.2232C1522.12 96.1356 1523.88 96.1197 1524.98 97.1914C1526.07 98.2711 1526.09 100.026 1525.01 101.121C1525.01 101.121 1525.85 102.582 1525.53 109.981C1525.5 110.775 1525.48 111.132 1525.25 111.926C1525 112.775 1524.8 113.553 1524.2 114.236C1523.83 114.665 1523.33 114.903 1522.82 115.102C1521.66 115.538 1521.09 115.53 1519.93 115.61C1512.6 116.11 1511.11 115.276 1511.11 115.276C1510.03 116.372 1508.26 116.388 1507.17 115.308C1506.07 114.236 1506.07 112.474 1507.14 111.378C1507.14 111.378 1506.28 109.894 1506.65 102.558C1506.71 101.407 1506.69 100.827 1507.11 99.6684C1507.3 99.1444 1507.53 98.6442 1507.95 98.2632C1508.62 97.6519 1509.39 97.4455 1510.24 97.1755C1511.03 96.9294 1511.39 96.9056 1512.18 96.858C1519.58 96.4134 1521.05 97.2232 1521.05 97.2232Z" fill="white"/>
<path d="M1667.71 1027.21C1651.4 1027.21 1638.18 1012.12 1638.18 993.493C1638.18 974.871 1651.4 959.774 1667.71 959.774C1684.02 959.774 1697.24 974.871 1697.24 993.493C1697.24 1012.12 1684.02 1027.21 1667.71 1027.21Z" fill="white" fill-opacity="0.3"/>
<path fill-rule="evenodd" clip-rule="evenodd" d="M1667.71 958.799C1676.66 958.425 1684.87 962.476 1690.83 969.166C1696.37 975.404 1699.84 983.972 1700.2 993.493C1700.47 1003.22 1697.36 1012.16 1692.09 1018.86C1686.13 1026.45 1677.37 1031.07 1667.71 1031.21C1658.05 1031.08 1649.29 1026.45 1643.32 1018.86C1638.05 1012.16 1634.93 1003.22 1635.21 993.493C1635.57 983.966 1639.04 975.397 1644.59 969.16C1650.54 962.469 1658.75 958.418 1667.71 958.799ZM1667.71 960.749C1659.65 961.091 1652.59 965.306 1647.72 971.74C1643.34 977.544 1640.83 985.193 1641.14 993.493C1641.37 1001.58 1644.38 1008.82 1648.99 1014.21C1653.76 1019.78 1660.37 1023.31 1667.71 1023.22C1675.05 1023.31 1681.66 1019.79 1686.44 1014.21C1691.04 1008.82 1694.06 1001.59 1694.29 993.493C1694.6 985.187 1692.09 977.538 1687.7 971.734C1682.84 965.299 1675.77 961.084 1667.71 960.749Z" fill="white" fill-opacity="0.43"/>
<path fill-rule="evenodd" clip-rule="evenodd" d="M1661.86 976.034C1660.97 975.128 1660.98 973.677 1661.89 972.784C1662.79 971.897 1664.25 971.91 1665.14 972.81C1665.14 972.81 1666.35 972.14 1672.47 972.508C1673.12 972.547 1673.42 972.567 1674.07 972.77C1674.77 972.994 1675.41 973.164 1675.97 973.67C1676.31 973.985 1676.51 974.399 1676.66 974.832C1677.01 975.791 1676.99 976.27 1677.04 977.222C1677.35 983.289 1676.64 984.517 1676.64 984.517C1677.53 985.423 1677.52 986.88 1676.61 987.767C1675.71 988.66 1674.25 988.646 1673.36 987.74C1673.36 987.74 1672.12 988.43 1666.06 988.016C1665.1 987.951 1664.62 987.957 1663.67 987.596C1663.24 987.432 1662.83 987.235 1662.53 986.88C1662.03 986.316 1661.87 985.672 1661.66 984.97C1661.47 984.313 1661.45 984.018 1661.43 983.361C1661.16 977.242 1661.86 976.034 1661.86 976.034Z" fill="white" fill-opacity="0.43"/>
<path d="M1923.69 671.005C1916.29 671.005 1910.3 664.162 1910.3 655.72C1910.3 647.279 1916.29 640.436 1923.69 640.436C1931.08 640.436 1937.07 647.279 1937.07 655.72C1937.07 664.162 1931.08 671.005 1923.69 671.005Z" fill="white" fill-opacity="0.3"/>
<path fill-rule="evenodd" clip-rule="evenodd" d="M1923.69 639.994C1927.74 639.824 1931.47 641.66 1934.17 644.693C1936.68 647.521 1938.25 651.405 1938.41 655.721C1938.54 660.128 1937.13 664.182 1934.74 667.218C1932.03 670.659 1928.06 672.757 1923.69 672.817C1919.31 672.76 1915.33 670.662 1912.63 667.221C1910.24 664.182 1908.83 660.131 1908.95 655.721C1909.12 651.402 1910.69 647.518 1913.2 644.69C1915.9 641.657 1919.63 639.821 1923.69 639.994ZM1923.69 640.878C1920.03 641.032 1916.83 642.943 1914.63 645.86C1912.64 648.491 1911.5 651.958 1911.64 655.721C1911.74 659.387 1913.11 662.667 1915.2 665.111C1917.36 667.638 1920.36 669.239 1923.69 669.194C1927.01 669.239 1930.01 667.641 1932.17 665.111C1934.26 662.67 1935.63 659.39 1935.73 655.721C1935.88 651.955 1934.74 648.488 1932.75 645.857C1930.54 642.94 1927.34 641.029 1923.69 640.878Z" fill="white" fill-opacity="0.43"/>
<path fill-rule="evenodd" clip-rule="evenodd" d="M1921.03 647.806C1920.63 647.395 1920.64 646.738 1921.05 646.333C1921.46 645.931 1922.12 645.937 1922.52 646.345C1922.52 646.345 1923.07 646.041 1925.84 646.208C1926.14 646.226 1926.28 646.235 1926.57 646.327C1926.89 646.428 1927.18 646.505 1927.43 646.735C1927.58 646.877 1927.67 647.065 1927.74 647.261C1927.9 647.696 1927.89 647.913 1927.92 648.345C1928.06 651.095 1927.73 651.652 1927.73 651.652C1928.14 652.062 1928.13 652.723 1927.72 653.125C1927.31 653.53 1926.65 653.524 1926.25 653.113C1926.25 653.113 1925.69 653.425 1922.94 653.238C1922.5 653.208 1922.29 653.211 1921.86 653.047C1921.66 652.973 1921.47 652.884 1921.34 652.723C1921.11 652.467 1921.04 652.175 1920.94 651.857C1920.86 651.559 1920.85 651.425 1920.84 651.128C1920.72 648.354 1921.03 647.806 1921.03 647.806Z" fill="white" fill-opacity="0.43"/>
<path d="M2032.12 1120.53C2019.78 1120.53 2009.77 1109.11 2009.77 1095.02C2009.77 1080.92 2019.78 1069.5 2032.12 1069.5C2044.47 1069.5 2054.47 1080.92 2054.47 1095.02C2054.47 1109.11 2044.47 1120.53 2032.12 1120.53Z" fill="white" fill-opacity="0.3"/>
<path fill-rule="evenodd" clip-rule="evenodd" d="M2032.12 1068.76C2038.89 1068.47 2045.11 1071.54 2049.62 1076.6C2053.81 1081.32 2056.43 1087.81 2056.71 1095.01C2056.92 1102.37 2054.56 1109.14 2050.58 1114.21C2046.06 1119.95 2039.43 1123.46 2032.12 1123.56C2024.81 1123.46 2018.18 1119.96 2013.66 1114.22C2009.67 1109.14 2007.31 1102.38 2007.52 1095.01C2007.8 1087.8 2010.42 1081.32 2014.62 1076.6C2019.13 1071.54 2025.34 1068.47 2032.12 1068.76ZM2032.12 1070.23C2026.02 1070.49 2020.68 1073.68 2016.99 1078.55C2013.68 1082.94 2011.78 1088.73 2012.01 1095.01C2012.18 1101.14 2014.47 1106.61 2017.95 1110.69C2021.57 1114.91 2026.57 1117.58 2032.12 1117.51C2037.68 1117.58 2042.68 1114.92 2046.29 1110.69C2049.78 1106.62 2052.06 1101.14 2052.24 1095.01C2052.47 1088.73 2050.57 1082.94 2047.25 1078.55C2043.57 1073.68 2038.22 1070.49 2032.12 1070.23Z" fill="white" fill-opacity="0.43"/>
<path fill-rule="evenodd" clip-rule="evenodd" d="M2027.69 1081.8C2027.02 1081.12 2027.03 1080.02 2027.71 1079.34C2028.4 1078.67 2029.5 1078.68 2030.17 1079.36C2030.17 1079.36 2031.09 1078.85 2035.72 1079.13C2036.22 1079.16 2036.44 1079.18 2036.94 1079.33C2037.47 1079.5 2037.95 1079.63 2038.37 1080.01C2038.63 1080.25 2038.78 1080.56 2038.89 1080.89C2039.16 1081.62 2039.15 1081.98 2039.18 1082.7C2039.42 1087.29 2038.88 1088.22 2038.88 1088.22C2039.55 1088.91 2039.54 1090.01 2038.86 1090.68C2038.17 1091.36 2037.07 1091.35 2036.39 1090.66C2036.39 1090.66 2035.46 1091.18 2030.87 1090.87C2030.15 1090.82 2029.79 1090.83 2029.06 1090.55C2028.74 1090.43 2028.43 1090.28 2028.2 1090.01C2027.82 1089.58 2027.7 1089.1 2027.54 1088.56C2027.4 1088.07 2027.39 1087.84 2027.37 1087.35C2027.17 1082.72 2027.69 1081.8 2027.69 1081.8Z" fill="white" fill-opacity="0.43"/>
<path d="M204.959 701.676C189.593 701.676 177.137 687.454 177.137 669.911C177.137 652.368 189.593 638.146 204.959 638.146C220.324 638.146 232.781 652.368 232.781 669.911C232.781 687.454 220.324 701.676 204.959 701.676Z" fill="white" fill-opacity="0.3"/>
<path fill-rule="evenodd" clip-rule="evenodd" d="M204.959 637.228C213.389 636.876 221.127 640.692 226.737 646.995C231.957 652.871 235.223 660.943 235.563 669.911C235.823 679.072 232.891 687.496 227.931 693.805C222.308 700.955 214.057 705.316 204.959 705.44C195.86 705.322 187.603 700.962 181.98 693.811C177.013 687.496 174.082 679.078 174.341 669.911C174.682 660.937 177.947 652.865 183.174 646.989C188.784 640.686 196.522 636.87 204.959 637.228ZM204.959 639.065C197.369 639.387 190.714 643.358 186.13 649.42C181.999 654.887 179.636 662.093 179.927 669.911C180.143 677.532 182.982 684.348 187.324 689.426C191.821 694.677 198.043 698.005 204.959 697.912C211.874 698.005 218.102 694.684 222.599 689.426C226.941 684.354 229.78 677.538 229.997 669.911C230.294 662.087 227.925 654.881 223.793 649.413C219.209 643.352 212.548 639.381 204.959 639.065Z" fill="white" fill-opacity="0.43"/>
<path fill-rule="evenodd" clip-rule="evenodd" d="M199.447 653.465C198.606 652.611 198.619 651.244 199.472 650.403C200.326 649.568 201.699 649.58 202.534 650.428C202.534 650.428 203.678 649.797 209.443 650.143C210.055 650.18 210.34 650.199 210.952 650.39C211.614 650.601 212.214 650.762 212.74 651.238C213.061 651.535 213.247 651.924 213.389 652.333C213.717 653.236 213.705 653.687 213.748 654.584C214.039 660.299 213.371 661.456 213.371 661.456C214.206 662.309 214.199 663.683 213.346 664.518C212.492 665.359 211.119 665.346 210.278 664.493C210.278 664.493 209.115 665.142 203.4 664.753C202.503 664.691 202.051 664.697 201.155 664.357C200.753 664.202 200.363 664.017 200.078 663.683C199.608 663.151 199.454 662.545 199.262 661.883C199.076 661.264 199.064 660.986 199.039 660.367C198.792 654.603 199.447 653.465 199.447 653.465Z" fill="white" fill-opacity="0.43"/>
<path d="M444.751 982.521C428.218 982.521 414.817 968.712 414.817 951.677C414.817 934.643 428.218 920.834 444.751 920.834C461.283 920.834 474.685 934.643 474.685 951.677C474.685 968.712 461.283 982.521 444.751 982.521Z" fill="white" fill-opacity="0.3"/>
<path fill-rule="evenodd" clip-rule="evenodd" d="M444.751 919.894C453.502 919.521 461.541 922.957 467.477 928.686C473.459 934.458 477.193 942.596 477.532 951.677C477.798 960.968 474.365 969.496 468.621 975.76C462.652 982.277 454.134 986.247 444.751 986.373C435.367 986.253 426.849 982.283 420.866 975.766C415.123 969.502 411.689 960.974 411.956 951.677C412.295 942.596 416.035 934.452 422.011 928.68C427.954 922.945 435.993 919.515 444.751 919.894ZM444.751 921.773C436.811 922.11 429.797 925.773 424.846 931.389C420.134 936.734 417.386 943.893 417.679 951.677C417.892 959.244 421.106 965.965 425.991 970.872C430.842 975.736 437.45 978.757 444.751 978.661C452.051 978.763 458.659 975.742 463.517 970.878C468.408 965.971 471.616 959.25 471.836 951.677C472.128 943.887 469.373 936.728 464.662 931.383C459.704 925.767 452.69 922.11 444.751 921.773Z" fill="white" fill-opacity="0.43"/>
<path fill-rule="evenodd" clip-rule="evenodd" d="M438.981 935.869C438.076 935.04 438.016 933.635 438.848 932.734C439.673 931.833 441.084 931.773 441.982 932.602C441.982 932.602 443.114 931.887 449.036 931.941C449.662 931.947 449.948 931.953 450.594 932.116C451.279 932.29 451.905 932.428 452.464 932.884C452.81 933.173 453.016 933.563 453.189 933.971C453.568 934.878 453.575 935.341 453.668 936.254C454.267 942.091 453.642 943.305 453.642 943.305C454.54 944.133 454.6 945.539 453.775 946.44C452.943 947.347 451.539 947.407 450.64 946.578C450.64 946.578 449.482 947.304 443.613 947.202C442.694 947.19 442.235 947.22 441.297 946.92C440.878 946.782 440.472 946.614 440.159 946.289C439.653 945.773 439.46 945.16 439.227 944.494C439.008 943.863 438.981 943.581 438.921 942.95C438.369 937.058 438.981 935.869 438.981 935.869Z" fill="white" fill-opacity="0.43"/>
<path d="M1057.96 539.343C1045.62 539.343 1035.61 527.917 1035.61 513.824C1035.61 499.73 1045.62 488.305 1057.96 488.305C1070.3 488.305 1080.31 499.73 1080.31 513.824C1080.31 527.917 1070.3 539.343 1057.96 539.343Z" fill="white" fill-opacity="0.3"/>
<path fill-rule="evenodd" clip-rule="evenodd" d="M1057.96 487.567C1064.73 487.283 1070.95 490.349 1075.46 495.413C1079.65 500.133 1082.27 506.618 1082.55 513.823C1082.76 521.183 1080.4 527.951 1076.42 533.019C1071.9 538.763 1065.27 542.267 1057.96 542.366C1050.65 542.272 1044.02 538.768 1039.5 533.024C1035.51 527.951 1033.15 521.188 1033.36 513.823C1033.64 506.613 1036.26 500.128 1040.46 495.408C1044.97 490.344 1051.18 487.278 1057.96 487.567ZM1057.96 489.042C1051.86 489.301 1046.52 492.491 1042.83 497.361C1039.52 501.753 1037.62 507.542 1037.85 513.823C1038.02 519.945 1040.31 525.421 1043.79 529.501C1047.41 533.72 1052.41 536.393 1057.96 536.319C1063.52 536.393 1068.52 533.725 1072.13 529.501C1075.62 525.426 1077.9 519.95 1078.08 513.823C1078.31 507.537 1076.41 501.748 1073.09 497.356C1069.41 492.486 1064.06 489.296 1057.96 489.042Z" fill="white" fill-opacity="0.43"/>
<path fill-rule="evenodd" clip-rule="evenodd" d="M1053.53 500.61C1052.86 499.924 1052.87 498.826 1053.55 498.15C1054.24 497.479 1055.34 497.489 1056.01 498.17C1056.01 498.17 1056.93 497.663 1061.56 497.942C1062.06 497.971 1062.28 497.986 1062.78 498.14C1063.31 498.309 1063.79 498.438 1064.21 498.821C1064.47 499.06 1064.62 499.373 1064.73 499.701C1065 500.426 1064.99 500.789 1065.02 501.509C1065.26 506.101 1064.72 507.03 1064.72 507.03C1065.39 507.716 1065.38 508.819 1064.7 509.49C1064.01 510.166 1062.91 510.156 1062.23 509.47C1062.23 509.47 1061.3 509.992 1056.71 509.679C1055.99 509.629 1055.62 509.634 1054.9 509.361C1054.58 509.236 1054.27 509.087 1054.04 508.819C1053.66 508.392 1053.54 507.905 1053.38 507.373C1053.23 506.876 1053.22 506.652 1053.2 506.156C1053.01 501.524 1053.53 500.61 1053.53 500.61Z" fill="white" fill-opacity="0.43"/>
<path d="M219.244 1928.08C206.899 1928.08 196.892 1916.66 196.892 1902.56C196.892 1888.47 206.899 1877.04 219.244 1877.04C231.588 1877.04 241.595 1888.47 241.595 1902.56C241.595 1916.66 231.588 1928.08 219.244 1928.08Z" fill="white" fill-opacity="0.3"/>
<path fill-rule="evenodd" clip-rule="evenodd" d="M219.243 1876.31C226.016 1876.02 232.233 1879.09 236.74 1884.15C240.934 1888.87 243.557 1895.36 243.831 1902.56C244.039 1909.92 241.684 1916.69 237.699 1921.76C233.182 1927.5 226.553 1931.01 219.243 1931.11C211.934 1931.01 205.3 1927.51 200.783 1921.76C196.793 1916.69 194.438 1909.93 194.646 1902.56C194.92 1895.35 197.543 1888.87 201.742 1884.15C206.249 1879.08 212.466 1876.02 219.243 1876.31ZM219.243 1877.78C213.146 1878.04 207.8 1881.23 204.117 1886.1C200.798 1890.49 198.9 1896.28 199.133 1902.56C199.307 1908.68 201.588 1914.16 205.076 1918.24C208.689 1922.46 213.688 1925.13 219.243 1925.06C224.799 1925.13 229.803 1922.46 233.415 1918.24C236.904 1914.17 239.185 1908.69 239.358 1902.56C239.597 1896.28 237.694 1890.49 234.374 1886.09C230.692 1881.23 225.341 1878.04 219.243 1877.78Z" fill="white" fill-opacity="0.43"/>
<path fill-rule="evenodd" clip-rule="evenodd" d="M214.816 1889.35C214.14 1888.66 214.15 1887.57 214.836 1886.89C215.522 1886.22 216.625 1886.23 217.296 1886.91C217.296 1886.91 218.215 1886.4 222.846 1886.68C223.338 1886.71 223.567 1886.73 224.058 1886.88C224.59 1887.05 225.072 1887.18 225.495 1887.56C225.753 1887.8 225.902 1888.11 226.016 1888.44C226.28 1889.17 226.27 1889.53 226.305 1890.25C226.538 1894.84 226.001 1895.77 226.001 1895.77C226.672 1896.46 226.667 1897.56 225.982 1898.23C225.296 1898.9 224.193 1898.89 223.517 1898.21C223.517 1898.21 222.583 1898.73 217.991 1898.42C217.271 1898.37 216.908 1898.37 216.187 1898.1C215.864 1897.98 215.551 1897.83 215.323 1897.56C214.945 1897.13 214.821 1896.64 214.667 1896.11C214.518 1895.62 214.508 1895.39 214.488 1894.89C214.289 1890.26 214.816 1889.35 214.816 1889.35Z" fill="white" fill-opacity="0.43"/>
<path d="M1723.5 2162.85C1711.16 2162.85 1701.15 2151.43 1701.15 2137.33C1701.15 2123.24 1711.16 2111.81 1723.5 2111.81C1735.84 2111.81 1745.85 2123.24 1745.85 2137.33C1745.85 2151.43 1735.84 2162.85 1723.5 2162.85Z" fill="white" fill-opacity="0.3"/>
<path fill-rule="evenodd" clip-rule="evenodd" d="M1723.5 2111.08C1730.27 2110.79 1736.49 2113.86 1741 2118.92C1745.19 2123.64 1747.81 2130.13 1748.09 2137.33C1748.3 2144.69 1745.94 2151.46 1741.96 2156.53C1737.44 2162.27 1730.81 2165.78 1723.5 2165.87C1716.19 2165.78 1709.56 2162.28 1705.04 2156.53C1701.05 2151.46 1698.69 2144.7 1698.9 2137.33C1699.18 2130.12 1701.8 2123.64 1706 2118.92C1710.51 2113.85 1716.72 2110.79 1723.5 2111.08ZM1723.5 2112.55C1717.4 2112.81 1712.06 2116 1708.37 2120.87C1705.05 2125.26 1703.16 2131.05 1703.39 2137.33C1703.56 2143.45 1705.84 2148.93 1709.33 2153.01C1712.95 2157.23 1717.94 2159.9 1723.5 2159.83C1729.06 2159.9 1734.06 2157.23 1737.67 2153.01C1741.16 2148.94 1743.44 2143.46 1743.62 2137.33C1743.85 2131.05 1741.95 2125.26 1738.63 2120.86C1734.95 2115.99 1729.6 2112.8 1723.5 2112.55Z" fill="white" fill-opacity="0.43"/>
<path fill-rule="evenodd" clip-rule="evenodd" d="M1719.07 2124.12C1718.4 2123.43 1718.41 2122.33 1719.09 2121.66C1719.78 2120.99 1720.88 2121 1721.55 2121.68C1721.55 2121.68 1722.47 2121.17 1727.1 2121.45C1727.59 2121.48 1727.82 2121.5 1728.32 2121.65C1728.85 2121.82 1729.33 2121.95 1729.75 2122.33C1730.01 2122.57 1730.16 2122.88 1730.27 2123.21C1730.54 2123.93 1730.53 2124.3 1730.56 2125.02C1730.79 2129.61 1730.26 2130.54 1730.26 2130.54C1730.93 2131.22 1730.92 2132.33 1730.24 2133C1729.55 2133.67 1728.45 2133.66 1727.77 2132.98C1727.77 2132.98 1726.84 2133.5 1722.25 2133.19C1721.53 2133.14 1721.16 2133.14 1720.44 2132.87C1720.12 2132.75 1719.81 2132.6 1719.58 2132.33C1719.2 2131.9 1719.08 2131.41 1718.92 2130.88C1718.77 2130.38 1718.76 2130.16 1718.74 2129.66C1718.55 2125.03 1719.07 2124.12 1719.07 2124.12Z" fill="white" fill-opacity="0.43"/>
<path d="M1759.44 2011.97C1743.52 2011.97 1730.61 1997.24 1730.61 1979.06C1730.61 1960.89 1743.52 1946.16 1759.44 1946.16C1775.35 1946.16 1788.26 1960.89 1788.26 1979.06C1788.26 1997.24 1775.35 2011.97 1759.44 2011.97Z" fill="white" fill-opacity="0.3"/>
<path fill-rule="evenodd" clip-rule="evenodd" d="M1759.44 1945.2C1768.17 1944.84 1776.19 1948.79 1782 1955.32C1787.41 1961.41 1790.79 1969.77 1791.14 1979.06C1791.41 1988.55 1788.37 1997.28 1783.23 2003.82C1777.41 2011.22 1768.86 2015.74 1759.44 2015.87C1750.01 2015.75 1741.46 2011.23 1735.63 2003.82C1730.49 1997.28 1727.45 1988.56 1727.72 1979.06C1728.07 1969.76 1731.45 1961.4 1736.87 1955.32C1742.68 1948.79 1750.7 1944.83 1759.44 1945.2ZM1759.44 1947.11C1751.57 1947.44 1744.68 1951.55 1739.93 1957.83C1735.65 1963.5 1733.2 1970.96 1733.5 1979.06C1733.73 1986.96 1736.67 1994.02 1741.17 1999.28C1745.83 2004.72 1752.27 2008.17 1759.44 2008.07C1766.6 2008.17 1773.05 2004.73 1777.71 1999.28C1782.21 1994.02 1785.15 1986.96 1785.37 1979.06C1785.68 1970.96 1783.23 1963.49 1778.95 1957.83C1774.2 1951.55 1767.3 1947.43 1759.44 1947.11Z" fill="white" fill-opacity="0.43"/>
<path fill-rule="evenodd" clip-rule="evenodd" d="M1753.73 1962.02C1752.86 1961.14 1752.87 1959.72 1753.75 1958.85C1754.64 1957.99 1756.06 1958 1756.92 1958.88C1756.92 1958.88 1758.11 1958.22 1764.08 1958.58C1764.72 1958.62 1765.01 1958.64 1765.65 1958.84C1766.33 1959.06 1766.95 1959.22 1767.5 1959.72C1767.83 1960.02 1768.02 1960.43 1768.17 1960.85C1768.51 1961.79 1768.5 1962.25 1768.54 1963.18C1768.84 1969.1 1768.15 1970.3 1768.15 1970.3C1769.02 1971.19 1769.01 1972.61 1768.13 1973.47C1767.24 1974.35 1765.82 1974.33 1764.95 1973.45C1764.95 1973.45 1763.74 1974.12 1757.82 1973.72C1756.89 1973.65 1756.42 1973.66 1755.5 1973.31C1755.08 1973.15 1754.68 1972.96 1754.38 1972.61C1753.89 1972.06 1753.73 1971.43 1753.53 1970.74C1753.34 1970.1 1753.33 1969.82 1753.3 1969.17C1753.05 1963.2 1753.73 1962.02 1753.73 1962.02Z" fill="white" fill-opacity="0.43"/>
<path d="M2040.76 2385.07C2028.42 2385.07 2018.41 2373.65 2018.41 2359.55C2018.41 2345.46 2028.42 2334.03 2040.76 2334.03C2053.1 2334.03 2063.11 2345.46 2063.11 2359.55C2063.11 2373.65 2053.1 2385.07 2040.76 2385.07Z" fill="white" fill-opacity="0.3"/>
<path fill-rule="evenodd" clip-rule="evenodd" d="M2040.76 2333.3C2047.53 2333.01 2053.75 2336.08 2058.26 2341.14C2062.45 2345.86 2065.07 2352.35 2065.35 2359.55C2065.56 2366.91 2063.2 2373.68 2059.22 2378.75C2054.7 2384.49 2048.07 2388 2040.76 2388.1C2033.45 2388 2026.82 2384.5 2022.3 2378.75C2018.31 2373.68 2015.95 2366.92 2016.16 2359.55C2016.44 2352.34 2019.06 2345.86 2023.26 2341.14C2027.77 2336.07 2033.98 2333.01 2040.76 2333.3ZM2040.76 2334.77C2034.66 2335.03 2029.32 2338.22 2025.63 2343.09C2022.31 2347.48 2020.42 2353.27 2020.65 2359.55C2020.82 2365.67 2023.1 2371.15 2026.59 2375.23C2030.21 2379.45 2035.2 2382.12 2040.76 2382.05C2046.32 2382.12 2051.32 2379.45 2054.93 2375.23C2058.42 2371.16 2060.7 2365.68 2060.88 2359.55C2061.11 2353.27 2059.21 2347.48 2055.89 2343.09C2052.21 2338.22 2046.86 2335.03 2040.76 2334.77Z" fill="white" fill-opacity="0.43"/>
<path fill-rule="evenodd" clip-rule="evenodd" d="M2036.33 2346.34C2035.66 2345.65 2035.67 2344.56 2036.35 2343.88C2037.04 2343.21 2038.14 2343.22 2038.81 2343.9C2038.81 2343.9 2039.73 2343.39 2044.36 2343.67C2044.85 2343.7 2045.08 2343.72 2045.58 2343.87C2046.11 2344.04 2046.59 2344.17 2047.01 2344.55C2047.27 2344.79 2047.42 2345.1 2047.53 2345.43C2047.8 2346.16 2047.79 2346.52 2047.82 2347.24C2048.05 2351.83 2047.52 2352.76 2047.52 2352.76C2048.19 2353.45 2048.18 2354.55 2047.5 2355.22C2046.81 2355.9 2045.71 2355.89 2045.03 2355.2C2045.03 2355.2 2044.1 2355.72 2039.51 2355.41C2038.79 2355.36 2038.42 2355.36 2037.7 2355.09C2037.38 2354.97 2037.07 2354.82 2036.84 2354.55C2036.46 2354.12 2036.34 2353.63 2036.18 2353.1C2036.03 2352.61 2036.02 2352.38 2036 2351.89C2035.81 2347.25 2036.33 2346.34 2036.33 2346.34Z" fill="white" fill-opacity="0.43"/>
<path d="M1918.76 2733.14C1906.42 2733.14 1896.41 2721.72 1896.41 2707.62C1896.41 2693.53 1906.42 2682.1 1918.76 2682.1C1931.1 2682.1 1941.11 2693.53 1941.11 2707.62C1941.11 2721.72 1931.1 2733.14 1918.76 2733.14Z" fill="white" fill-opacity="0.3"/>
<path fill-rule="evenodd" clip-rule="evenodd" d="M1918.76 2681.37C1925.53 2681.08 1931.75 2684.15 1936.26 2689.21C1940.45 2693.93 1943.07 2700.42 1943.35 2707.62C1943.56 2714.98 1941.2 2721.75 1937.22 2726.82C1932.7 2732.56 1926.07 2736.07 1918.76 2736.17C1911.45 2736.07 1904.82 2732.57 1900.3 2726.82C1896.31 2721.75 1893.95 2714.99 1894.16 2707.62C1894.44 2700.41 1897.06 2693.93 1901.26 2689.21C1905.77 2684.14 1911.98 2681.08 1918.76 2681.37ZM1918.76 2682.84C1912.66 2683.1 1907.32 2686.29 1903.63 2691.16C1900.31 2695.55 1898.42 2701.34 1898.65 2707.62C1898.82 2713.75 1901.1 2719.22 1904.59 2723.3C1908.21 2727.52 1913.2 2730.19 1918.76 2730.12C1924.32 2730.19 1929.32 2727.52 1932.93 2723.3C1936.42 2719.23 1938.7 2713.75 1938.88 2707.62C1939.11 2701.34 1937.21 2695.55 1933.89 2691.16C1930.21 2686.29 1924.86 2683.1 1918.76 2682.84Z" fill="white" fill-opacity="0.43"/>
<path fill-rule="evenodd" clip-rule="evenodd" d="M1914.33 2694.41C1913.66 2693.72 1913.67 2692.63 1914.35 2691.95C1915.04 2691.28 1916.14 2691.29 1916.81 2691.97C1916.81 2691.97 1917.73 2691.46 1922.36 2691.74C1922.85 2691.77 1923.08 2691.79 1923.58 2691.94C1924.11 2692.11 1924.59 2692.24 1925.01 2692.62C1925.27 2692.86 1925.42 2693.17 1925.53 2693.5C1925.8 2694.23 1925.79 2694.59 1925.82 2695.31C1926.05 2699.9 1925.52 2700.83 1925.52 2700.83C1926.19 2701.52 1926.18 2702.62 1925.5 2703.29C1924.81 2703.97 1923.71 2703.96 1923.03 2703.27C1923.03 2703.27 1922.1 2703.79 1917.51 2703.48C1916.79 2703.43 1916.42 2703.43 1915.7 2703.16C1915.38 2703.04 1915.07 2702.89 1914.84 2702.62C1914.46 2702.19 1914.34 2701.7 1914.18 2701.17C1914.03 2700.68 1914.02 2700.45 1914 2699.96C1913.81 2695.32 1914.33 2694.41 1914.33 2694.41Z" fill="white" fill-opacity="0.43"/>
<path d="M265.466 2683.49C253.122 2683.49 243.115 2672.07 243.115 2657.97C243.115 2643.88 253.122 2632.45 265.466 2632.45C277.811 2632.45 287.818 2643.88 287.818 2657.97C287.818 2672.07 277.811 2683.49 265.466 2683.49Z" fill="white" fill-opacity="0.3"/>
<path fill-rule="evenodd" clip-rule="evenodd" d="M265.466 2631.72C272.239 2631.43 278.456 2634.5 282.963 2639.56C287.157 2644.28 289.78 2650.77 290.054 2657.97C290.262 2665.33 287.907 2672.1 283.922 2677.17C279.405 2682.91 272.776 2686.42 265.466 2686.52C258.157 2686.42 251.523 2682.92 247.006 2677.17C243.016 2672.1 240.66 2665.34 240.869 2657.97C241.142 2650.76 243.766 2644.28 247.965 2639.56C252.472 2634.49 258.688 2631.43 265.466 2631.72ZM265.466 2633.19C259.369 2633.45 254.022 2636.64 250.34 2641.51C247.021 2645.9 245.123 2651.69 245.356 2657.97C245.53 2664.09 247.811 2669.57 251.299 2673.65C254.912 2677.87 259.911 2680.54 265.466 2680.47C271.022 2680.54 276.026 2677.87 279.638 2673.65C283.127 2669.58 285.407 2664.1 285.581 2657.97C285.82 2651.69 283.917 2645.9 280.597 2641.51C276.915 2636.64 271.563 2633.45 265.466 2633.19Z" fill="white" fill-opacity="0.43"/>
<path fill-rule="evenodd" clip-rule="evenodd" d="M261.039 2644.76C260.363 2644.07 260.373 2642.98 261.059 2642.3C261.744 2641.63 262.848 2641.64 263.518 2642.32C263.518 2642.32 264.438 2641.81 269.069 2642.09C269.561 2642.12 269.789 2642.14 270.281 2642.29C270.813 2642.46 271.295 2642.59 271.717 2642.97C271.976 2643.21 272.125 2643.52 272.239 2643.85C272.503 2644.58 272.493 2644.94 272.527 2645.66C272.761 2650.25 272.224 2651.18 272.224 2651.18C272.895 2651.87 272.89 2652.97 272.204 2653.64C271.519 2654.32 270.416 2654.31 269.74 2653.62C269.74 2653.62 268.806 2654.14 264.214 2653.83C263.494 2653.78 263.131 2653.78 262.41 2653.51C262.087 2653.39 261.774 2653.24 261.546 2652.97C261.168 2652.54 261.044 2652.05 260.89 2651.52C260.741 2651.03 260.731 2650.8 260.711 2650.3C260.512 2645.67 261.039 2644.76 261.039 2644.76Z" fill="white" fill-opacity="0.43"/>
<path d="M19.0016 2140.8C6.65718 2140.8 -3.34998 2129.38 -3.34998 2115.28C-3.34998 2101.19 6.65718 2089.76 19.0016 2089.76C31.3461 2089.76 41.3533 2101.19 41.3533 2115.28C41.3533 2129.38 31.3461 2140.8 19.0016 2140.8Z" fill="white" fill-opacity="0.3"/>
<path fill-rule="evenodd" clip-rule="evenodd" d="M19.0015 2089.03C25.7744 2088.74 31.9908 2091.81 36.4978 2096.87C40.6917 2101.59 43.3155 2108.08 43.5888 2115.28C43.7975 2122.64 41.4421 2129.41 37.4569 2134.48C32.9399 2140.22 26.3111 2143.73 19.0015 2143.83C11.6919 2143.73 5.05812 2140.23 0.54118 2134.48C-3.44903 2129.41 -5.80439 2122.65 -5.59568 2115.28C-5.32238 2108.07 -2.69867 2101.59 1.50025 2096.87C6.00725 2091.8 12.2236 2088.74 19.0015 2089.03ZM19.0015 2090.5C12.9044 2090.76 7.55757 2093.95 3.87545 2098.82C0.556068 2103.21 -1.34209 2109 -1.10854 2115.28C-0.934624 2121.41 1.34619 2126.88 4.83451 2130.96C8.44707 2135.18 13.446 2137.85 19.0015 2137.78C24.557 2137.85 29.5609 2135.18 33.1735 2130.96C36.6618 2126.89 38.9426 2121.41 39.1165 2115.28C39.3551 2109 37.4519 2103.21 34.1325 2098.82C30.4504 2093.95 25.0986 2090.76 19.0015 2090.5Z" fill="white" fill-opacity="0.43"/>
<path fill-rule="evenodd" clip-rule="evenodd" d="M14.574 2102.07C13.8982 2101.38 13.9081 2100.29 14.5939 2099.61C15.2796 2098.94 16.3827 2098.95 17.0536 2099.63C17.0536 2099.63 17.9729 2099.12 22.6041 2099.4C23.096 2099.43 23.3246 2099.45 23.8165 2099.6C24.3482 2099.77 24.8303 2099.9 25.2526 2100.28C25.511 2100.52 25.6601 2100.83 25.7744 2101.16C26.0378 2101.89 26.0278 2102.25 26.0626 2102.97C26.2962 2107.56 25.7595 2108.49 25.7595 2108.49C26.4303 2109.18 26.4253 2110.28 25.7396 2110.95C25.0539 2111.63 23.9507 2111.62 23.2749 2110.93C23.2749 2110.93 22.3407 2111.45 17.7493 2111.14C17.0287 2111.09 16.666 2111.09 15.9455 2110.82C15.6225 2110.7 15.3094 2110.55 15.0808 2110.28C14.7032 2109.85 14.579 2109.36 14.4249 2108.83C14.2759 2108.34 14.2659 2108.11 14.246 2107.62C14.0472 2102.98 14.574 2102.07 14.574 2102.07Z" fill="white" fill-opacity="0.43"/>
<path d="M-8.95074 1278.72C-21.2952 1278.72 -31.3024 1267.3 -31.3024 1253.2C-31.3024 1239.11 -21.2952 1227.68 -8.95074 1227.68C3.39373 1227.68 13.4009 1239.11 13.4009 1253.2C13.4009 1267.3 3.39373 1278.72 -8.95074 1278.72Z" fill="white" fill-opacity="0.3"/>
<path fill-rule="evenodd" clip-rule="evenodd" d="M-8.95064 1226.95C-2.17771 1226.66 4.03865 1229.73 8.54565 1234.79C12.7396 1239.51 15.3633 1246 15.6366 1253.2C15.8453 1260.56 13.49 1267.33 9.50472 1272.4C4.98778 1278.14 -1.64105 1281.65 -8.95064 1281.74C-16.2602 1281.65 -22.894 1278.15 -27.411 1272.4C-31.4012 1267.33 -33.7565 1260.57 -33.5478 1253.2C-33.2745 1245.99 -30.6508 1239.51 -26.4519 1234.79C-21.9449 1229.72 -15.7285 1226.66 -8.95064 1226.95ZM-8.95064 1228.42C-15.0478 1228.68 -20.3946 1231.87 -24.0767 1236.74C-27.3961 1241.13 -29.2942 1246.92 -29.0607 1253.2C-28.8868 1259.32 -26.606 1264.8 -23.1176 1268.88C-19.5051 1273.1 -14.5061 1275.77 -8.95064 1275.7C-3.39515 1275.77 1.60877 1273.1 5.22133 1268.88C8.70966 1264.81 10.9905 1259.33 11.1644 1253.2C11.4029 1246.92 9.49972 1241.13 6.18034 1236.73C2.49821 1231.86 -2.85352 1228.67 -8.95064 1228.42Z" fill="white" fill-opacity="0.43"/>
<path d="M22.8344 1049.51C10.4899 1049.51 0.482788 1038.09 0.482788 1023.99C0.482788 1009.9 10.4899 998.476 22.8344 998.476C35.1789 998.476 45.186 1009.9 45.186 1023.99C45.186 1038.09 35.1789 1049.51 22.8344 1049.51Z" fill="white" fill-opacity="0.3"/>
<path fill-rule="evenodd" clip-rule="evenodd" d="M22.8345 997.737C29.6074 997.454 35.8238 1000.52 40.3308 1005.58C44.5248 1010.3 47.1485 1016.79 47.4218 1023.99C47.6305 1031.35 45.2751 1038.12 41.2899 1043.19C36.7729 1048.93 30.1441 1052.44 22.8345 1052.54C15.5249 1052.44 8.89113 1048.94 4.37419 1043.2C0.383976 1038.12 -1.97138 1031.36 -1.76268 1023.99C-1.48937 1016.78 1.13434 1010.3 5.33326 1005.58C9.84026 1000.52 16.0566 997.449 22.8345 997.737ZM22.8345 999.213C16.7374 999.472 11.3906 1002.66 7.70845 1007.53C4.38908 1011.92 2.49091 1017.71 2.72446 1023.99C2.89838 1030.12 5.1792 1035.59 8.66752 1039.67C12.2801 1043.89 17.279 1046.56 22.8345 1046.49C28.39 1046.56 33.3939 1043.9 37.0065 1039.67C40.4948 1035.6 42.7756 1030.12 42.9495 1023.99C43.1881 1017.71 41.2849 1011.92 37.9655 1007.53C34.2834 1002.66 28.9316 999.467 22.8345 999.213Z" fill="white" fill-opacity="0.43"/>
<path fill-rule="evenodd" clip-rule="evenodd" d="M18.407 1010.78C17.7312 1010.1 17.7411 1009 18.4269 1008.32C19.1126 1007.65 20.2157 1007.66 20.8866 1008.34C20.8866 1008.34 21.8059 1007.83 26.4371 1008.11C26.9291 1008.14 27.1576 1008.16 27.6496 1008.31C28.1812 1008.48 28.6633 1008.61 29.0856 1008.99C29.344 1009.23 29.4931 1009.54 29.6074 1009.87C29.8708 1010.6 29.8608 1010.96 29.8956 1011.68C30.1292 1016.27 29.5925 1017.2 29.5925 1017.2C30.2633 1017.89 30.2583 1018.99 29.5726 1019.66C28.8869 1020.34 27.7837 1020.33 27.1079 1019.64C27.1079 1019.64 26.1737 1020.16 21.5823 1019.85C20.8617 1019.8 20.499 1019.8 19.7785 1019.53C19.4555 1019.41 19.1424 1019.26 18.9138 1018.99C18.5362 1018.56 18.412 1018.08 18.2579 1017.54C18.1089 1017.05 18.0989 1016.82 18.079 1016.33C17.8802 1011.7 18.407 1010.78 18.407 1010.78Z" fill="white" fill-opacity="0.43"/>
<path d="M1452.07 508.02C1441.64 508.02 1433.17 498.36 1433.17 486.444C1433.17 474.528 1441.64 464.868 1452.07 464.868C1462.51 464.868 1470.97 474.528 1470.97 486.444C1470.97 498.36 1462.51 508.02 1452.07 508.02Z" fill="white" fill-opacity="0.3"/>
<path fill-rule="evenodd" clip-rule="evenodd" d="M1452.07 464.244C1457.8 464.005 1463.06 466.597 1466.87 470.878C1470.41 474.87 1472.63 480.352 1472.86 486.444C1473.04 492.666 1471.05 498.389 1467.68 502.674C1463.86 507.531 1458.25 510.493 1452.07 510.577C1445.89 510.497 1440.28 507.535 1436.47 502.678C1433.09 498.389 1431.1 492.671 1431.28 486.444C1431.51 480.348 1433.73 474.865 1437.28 470.874C1441.09 466.593 1446.34 464.001 1452.07 464.244ZM1452.07 465.492C1446.92 465.711 1442.4 468.408 1439.28 472.525C1436.48 476.239 1434.87 481.134 1435.07 486.444C1435.22 491.62 1437.15 496.25 1440.1 499.7C1443.15 503.266 1447.38 505.527 1452.07 505.464C1456.77 505.527 1461 503.271 1464.06 499.7C1467 496.254 1468.93 491.625 1469.08 486.444C1469.28 481.13 1467.67 476.235 1464.87 472.521C1461.75 468.404 1457.23 465.706 1452.07 465.492Z" fill="white" fill-opacity="0.43"/>
<path fill-rule="evenodd" clip-rule="evenodd" d="M1448.33 475.273C1447.76 474.694 1447.77 473.765 1448.35 473.194C1448.93 472.626 1449.86 472.635 1450.43 473.21C1450.43 473.21 1451.2 472.782 1455.12 473.017C1455.54 473.042 1455.73 473.055 1456.14 473.185C1456.59 473.328 1457 473.437 1457.36 473.761C1457.58 473.962 1457.7 474.227 1457.8 474.504C1458.02 475.118 1458.01 475.425 1458.04 476.034C1458.24 479.916 1457.79 480.701 1457.79 480.701C1458.35 481.281 1458.35 482.214 1457.77 482.781C1457.19 483.353 1456.26 483.344 1455.69 482.764C1455.69 482.764 1454.9 483.205 1451.01 482.941C1450.41 482.899 1450.1 482.903 1449.49 482.672C1449.22 482.567 1448.95 482.441 1448.76 482.214C1448.44 481.853 1448.33 481.441 1448.2 480.991C1448.08 480.571 1448.07 480.382 1448.05 479.962C1447.88 476.046 1448.33 475.273 1448.33 475.273Z" fill="white" fill-opacity="0.43"/>
<path d="M1030.68 887.357C1018.34 887.357 1008.33 875.932 1008.33 861.838C1008.33 847.745 1018.34 836.319 1030.68 836.319C1043.02 836.319 1053.03 847.745 1053.03 861.838C1053.03 875.932 1043.02 887.357 1030.68 887.357Z" fill="white" fill-opacity="0.3"/>
<path fill-rule="evenodd" clip-rule="evenodd" d="M1030.68 835.581C1037.45 835.298 1043.67 838.364 1048.18 843.427C1052.37 848.148 1054.99 854.633 1055.27 861.838C1055.48 869.197 1053.12 875.965 1049.14 881.034C1044.62 886.778 1037.99 890.281 1030.68 890.381C1023.37 890.286 1016.74 886.783 1012.22 881.039C1008.23 875.965 1005.87 869.202 1006.08 861.838C1006.36 854.628 1008.98 848.143 1013.18 843.422C1017.69 838.359 1023.9 835.293 1030.68 835.581ZM1030.68 837.057C1024.58 837.315 1019.24 840.506 1015.55 845.375C1012.23 849.768 1010.34 855.557 1010.57 861.838C1010.74 867.96 1013.02 873.436 1016.51 877.516C1020.13 881.734 1025.12 884.408 1030.68 884.333C1036.24 884.408 1041.24 881.739 1044.85 877.516C1048.34 873.441 1050.62 867.965 1050.8 861.838C1051.03 855.552 1049.13 849.763 1045.81 845.37C1042.13 840.501 1036.78 837.31 1030.68 837.057Z" fill="white" fill-opacity="0.43"/>
<path fill-rule="evenodd" clip-rule="evenodd" d="M1026.25 848.625C1025.58 847.939 1025.59 846.841 1026.27 846.165C1026.96 845.494 1028.06 845.504 1028.73 846.185C1028.73 846.185 1029.65 845.678 1034.28 845.956C1034.77 845.986 1035 846.001 1035.5 846.155C1036.03 846.324 1036.51 846.453 1036.93 846.836C1037.19 847.074 1037.34 847.387 1037.45 847.715C1037.72 848.441 1037.71 848.804 1037.74 849.524C1037.97 854.116 1037.44 855.045 1037.44 855.045C1038.11 855.731 1038.1 856.834 1037.42 857.505C1036.73 858.18 1035.63 858.17 1034.95 857.485C1034.95 857.485 1034.02 858.006 1029.43 857.693C1028.71 857.644 1028.34 857.649 1027.62 857.375C1027.3 857.251 1026.99 857.102 1026.76 856.834C1026.38 856.406 1026.26 855.919 1026.1 855.388C1025.95 854.891 1025.94 854.667 1025.92 854.17C1025.73 849.539 1026.25 848.625 1026.25 848.625Z" fill="white" fill-opacity="0.43"/>
<path d="M612.8 1166.56C600.456 1166.56 590.449 1155.13 590.449 1141.04C590.449 1126.95 600.456 1115.52 612.8 1115.52C625.145 1115.52 635.152 1126.95 635.152 1141.04C635.152 1155.13 625.145 1166.56 612.8 1166.56Z" fill="white" fill-opacity="0.3"/>
<path fill-rule="evenodd" clip-rule="evenodd" d="M612.8 1114.78C619.573 1114.5 625.79 1117.57 630.297 1122.63C634.491 1127.35 637.114 1133.83 637.388 1141.04C637.596 1148.4 635.241 1155.17 631.256 1160.24C626.739 1165.98 620.11 1169.48 612.8 1169.58C605.491 1169.49 598.857 1165.99 594.34 1160.24C590.35 1155.17 587.994 1148.4 588.203 1141.04C588.476 1133.83 591.1 1127.35 595.299 1122.62C599.806 1117.56 606.022 1114.5 612.8 1114.78ZM612.8 1116.26C606.703 1116.52 601.356 1119.71 597.674 1124.58C594.355 1128.97 592.457 1134.76 592.69 1141.04C592.864 1147.16 595.145 1152.64 598.633 1156.72C602.246 1160.94 607.245 1163.61 612.8 1163.54C618.356 1163.61 623.36 1160.94 626.972 1156.72C630.461 1152.64 632.741 1147.17 632.915 1141.04C633.154 1134.75 631.251 1128.97 627.931 1124.57C624.249 1119.7 618.897 1116.51 612.8 1116.26Z" fill="white" fill-opacity="0.43"/>
<path fill-rule="evenodd" clip-rule="evenodd" d="M608.373 1127.83C607.697 1127.14 607.707 1126.04 608.393 1125.37C609.078 1124.7 610.182 1124.71 610.852 1125.39C610.852 1125.39 611.772 1124.88 616.403 1125.16C616.895 1125.19 617.123 1125.2 617.615 1125.36C618.147 1125.53 618.629 1125.66 619.051 1126.04C619.31 1126.28 619.459 1126.59 619.573 1126.92C619.837 1127.64 619.827 1128.01 619.861 1128.73C620.095 1133.32 619.558 1134.25 619.558 1134.25C620.229 1134.93 620.224 1136.04 619.538 1136.71C618.853 1137.38 617.75 1137.37 617.074 1136.69C617.074 1136.69 616.14 1137.21 611.548 1136.9C610.828 1136.85 610.465 1136.85 609.744 1136.58C609.421 1136.45 609.108 1136.3 608.88 1136.04C608.502 1135.61 608.378 1135.12 608.224 1134.59C608.075 1134.09 608.065 1133.87 608.045 1133.37C607.846 1128.74 608.373 1127.83 608.373 1127.83Z" fill="white" fill-opacity="0.43"/>
<path d="M561.288 478.507C541.566 478.507 525.579 460.253 525.579 437.737C525.579 415.22 541.566 396.967 561.288 396.967C581.01 396.967 596.998 415.22 596.998 437.737C596.998 460.253 581.01 478.507 561.288 478.507Z" fill="white" fill-opacity="0.3"/>
<path fill-rule="evenodd" clip-rule="evenodd" d="M561.288 395.788C572.109 395.335 582.041 400.233 589.241 408.323C595.942 415.865 600.133 426.225 600.57 437.737C600.903 449.494 597.14 460.307 590.773 468.404C583.557 477.582 572.966 483.179 561.288 483.337C549.61 483.187 539.012 477.59 531.796 468.412C525.421 460.307 521.658 449.502 521.991 437.737C522.428 426.217 526.619 415.857 533.328 408.315C540.528 400.225 550.46 395.327 561.288 395.788ZM561.288 398.145C551.547 398.558 543.005 403.655 537.122 411.435C531.819 418.453 528.787 427.702 529.16 437.737C529.438 447.517 533.082 456.266 538.655 462.784C544.426 469.524 552.413 473.795 561.288 473.676C570.164 473.795 578.158 469.532 583.93 462.784C589.503 456.274 593.147 447.525 593.425 437.737C593.806 427.694 590.765 418.445 585.462 411.427C579.58 403.647 571.029 398.55 561.288 398.145Z" fill="white" fill-opacity="0.43"/>
<path fill-rule="evenodd" clip-rule="evenodd" d="M554.215 416.627C553.135 415.532 553.151 413.777 554.247 412.697C555.342 411.626 557.105 411.641 558.177 412.729C558.177 412.729 559.645 411.919 567.044 412.364C567.83 412.411 568.195 412.435 568.981 412.681C569.831 412.951 570.601 413.158 571.276 413.769C571.688 414.15 571.927 414.65 572.109 415.174C572.53 416.333 572.514 416.913 572.57 418.064C572.943 425.399 572.085 426.884 572.085 426.884C573.157 427.98 573.149 429.742 572.054 430.814C570.958 431.894 569.196 431.878 568.116 430.782C568.116 430.782 566.623 431.616 559.288 431.116C558.137 431.036 557.557 431.044 556.406 430.607C555.89 430.409 555.39 430.171 555.025 429.742C554.421 429.059 554.223 428.281 553.977 427.432C553.739 426.638 553.723 426.281 553.691 425.487C553.373 418.088 554.215 416.627 554.215 416.627Z" fill="white" fill-opacity="0.43"/>
<path d="M1743.99 1190.26C1720.72 1190.26 1701.86 1168.73 1701.86 1142.16C1701.86 1115.6 1720.72 1094.06 1743.99 1094.06C1767.26 1094.06 1786.12 1115.6 1786.12 1142.16C1786.12 1168.73 1767.26 1190.26 1743.99 1190.26Z" fill="white" fill-opacity="0.5"/>
<path fill-rule="evenodd" clip-rule="evenodd" d="M1743.99 1092.67C1756.75 1092.14 1768.47 1097.91 1776.97 1107.46C1784.87 1116.36 1789.82 1128.58 1790.33 1142.16C1790.73 1156.03 1786.29 1168.79 1778.78 1178.34C1770.26 1189.17 1757.77 1195.77 1743.99 1195.96C1730.21 1195.78 1717.71 1189.18 1709.19 1178.35C1701.67 1168.79 1697.23 1156.04 1697.62 1142.16C1698.14 1128.57 1703.08 1116.35 1711 1107.45C1719.49 1097.9 1731.21 1092.13 1743.99 1092.67ZM1743.99 1095.45C1732.5 1095.94 1722.42 1101.95 1715.48 1111.13C1709.22 1119.41 1705.64 1130.32 1706.08 1142.16C1706.41 1153.7 1710.71 1164.02 1717.28 1171.71C1724.09 1179.66 1733.52 1184.7 1743.99 1184.56C1754.46 1184.7 1763.89 1179.67 1770.7 1171.71C1777.28 1164.03 1781.58 1153.71 1781.9 1142.16C1782.35 1130.31 1778.77 1119.4 1772.51 1111.12C1765.57 1101.94 1755.48 1095.93 1743.99 1095.45Z" fill="white"/>
<path fill-rule="evenodd" clip-rule="evenodd" d="M1735.64 1117.26C1734.37 1115.96 1734.39 1113.89 1735.68 1112.62C1736.97 1111.35 1739.05 1111.37 1740.32 1112.66C1740.32 1112.66 1742.05 1111.7 1750.78 1112.23C1751.71 1112.28 1752.14 1112.31 1753.06 1112.6C1754.07 1112.92 1754.97 1113.16 1755.77 1113.88C1756.26 1114.33 1756.54 1114.92 1756.75 1115.54C1757.25 1116.91 1757.23 1117.59 1757.3 1118.95C1757.74 1127.61 1756.73 1129.36 1756.73 1129.36C1757.99 1130.65 1757.98 1132.73 1756.69 1133.99C1755.4 1135.27 1753.32 1135.25 1752.04 1133.96C1752.04 1133.96 1750.28 1134.94 1741.63 1134.35C1740.27 1134.26 1739.59 1134.27 1738.23 1133.75C1737.62 1133.52 1737.03 1133.23 1736.6 1132.73C1735.89 1131.92 1735.65 1131.01 1735.36 1130C1735.08 1129.07 1735.06 1128.65 1735.02 1127.71C1734.65 1118.98 1735.64 1117.26 1735.64 1117.26Z" fill="white"/>
<path d="M289.776 909.437C257.121 909.437 230.648 882.16 230.648 848.513C230.648 814.865 257.121 787.589 289.776 787.589C322.432 787.589 348.904 814.865 348.904 848.513C348.904 882.16 322.432 909.437 289.776 909.437Z" fill="white" fill-opacity="0.5"/>
<path fill-rule="evenodd" clip-rule="evenodd" d="M289.776 785.732C307.062 784.996 322.941 791.782 334.667 803.1C346.484 814.5 353.859 830.575 354.529 848.513C355.055 866.865 348.272 883.711 336.928 896.085C325.137 908.956 308.311 916.798 289.776 917.047C271.242 916.81 254.416 908.968 242.598 896.096C231.254 883.723 224.471 866.877 224.997 848.513C225.667 830.575 233.055 814.489 244.859 803.088C256.598 791.758 272.477 784.984 289.776 785.732ZM289.776 789.445C274.094 790.109 260.239 797.346 250.459 808.438C241.152 818.997 235.723 833.138 236.302 848.513C236.722 863.46 243.071 876.735 252.72 886.428C262.303 896.037 275.356 902.004 289.776 901.814C304.196 902.016 317.249 896.049 326.845 886.44C336.507 876.747 342.843 863.472 343.277 848.513C343.855 833.126 338.413 818.985 329.106 808.426C319.313 797.334 305.458 790.109 289.776 789.445Z" fill="white"/>
<path fill-rule="evenodd" clip-rule="evenodd" d="M278.379 817.288C276.591 815.651 276.473 812.875 278.116 811.095C279.746 809.316 282.533 809.197 284.308 810.834C284.308 810.834 286.542 809.422 298.241 809.529C299.477 809.541 300.042 809.553 301.317 809.873C302.671 810.217 303.907 810.49 305.011 811.392C305.695 811.961 306.102 812.732 306.444 813.539C307.193 815.33 307.206 816.244 307.39 818.047C308.574 829.578 307.338 831.975 307.338 831.975C309.112 833.612 309.231 836.388 307.601 838.167C305.958 839.959 303.184 840.077 301.409 838.44C301.409 838.44 299.122 839.875 287.528 839.674C285.714 839.65 284.807 839.709 282.954 839.116C282.125 838.843 281.324 838.511 280.706 837.871C279.707 836.85 279.326 835.64 278.865 834.323C278.432 833.078 278.379 832.52 278.261 831.275C277.17 819.637 278.379 817.288 278.379 817.288Z" fill="white"/>
<path d="M1281.73 124.927C1252.48 124.927 1228.76 97.8556 1228.76 64.4608C1228.76 31.066 1252.48 3.99414 1281.73 3.99414C1310.98 3.99414 1334.69 31.066 1334.69 64.4608C1334.69 97.8556 1310.98 124.927 1281.73 124.927Z" fill="white" fill-opacity="0.5"/>
<path fill-rule="evenodd" clip-rule="evenodd" d="M1281.73 2.24544C1297.77 1.57431 1312.5 8.83893 1323.18 20.8369C1333.12 32.0224 1339.34 47.3879 1339.98 64.4606C1340.48 81.8982 1334.9 97.9348 1325.45 109.945C1314.75 123.556 1299.05 131.856 1281.73 132.092C1264.41 131.868 1248.69 123.567 1237.98 109.956C1228.53 97.9348 1222.95 81.91 1223.44 64.4606C1224.09 47.3761 1230.31 32.0107 1240.26 20.8251C1250.94 8.82714 1265.67 1.56253 1281.73 2.24544ZM1281.73 5.74236C1267.28 6.35462 1254.61 13.9137 1245.88 25.4525C1238.02 35.8609 1233.52 49.5779 1234.07 64.4606C1234.49 78.9665 1239.89 91.9416 1248.16 101.608C1256.72 111.605 1268.56 117.939 1281.73 117.763C1294.89 117.939 1306.75 111.616 1315.31 101.608C1323.57 91.9534 1328.98 78.9782 1329.39 64.4606C1329.95 49.5661 1325.44 35.8491 1317.58 25.4407C1308.85 13.9019 1296.17 6.34285 1281.73 5.74236Z" fill="white"/>
<path fill-rule="evenodd" clip-rule="evenodd" d="M1271.23 33.1524C1269.63 31.5275 1269.66 28.9253 1271.28 27.324C1272.91 25.7345 1275.52 25.7581 1277.11 27.3712C1277.11 27.3712 1279.29 26.1701 1290.26 26.8295C1291.43 26.9001 1291.97 26.9355 1293.13 27.3005C1294.39 27.7008 1295.54 28.0069 1296.54 28.9135C1297.15 29.4787 1297.5 30.2205 1297.77 30.9976C1298.4 32.7166 1298.37 33.5762 1298.46 35.2834C1299.01 46.1629 1297.74 48.3646 1297.74 48.3646C1299.33 49.9895 1299.32 52.6034 1297.69 54.193C1296.07 55.7943 1293.45 55.7707 1291.85 54.1458C1291.85 54.1458 1289.64 55.3822 1278.76 54.6404C1277.05 54.5227 1276.19 54.5344 1274.48 53.8868C1273.72 53.5925 1272.98 53.2391 1272.44 52.6033C1271.54 51.5907 1271.25 50.437 1270.88 49.1771C1270.53 47.9997 1270.5 47.4698 1270.46 46.2923C1269.99 35.3187 1271.23 33.1524 1271.23 33.1524Z" fill="white"/>
<path d="M2153.03 2347C2122.81 2347 2098.31 2319.02 2098.31 2284.51C2098.31 2250.01 2122.81 2222.03 2153.03 2222.03C2183.26 2222.03 2207.76 2250.01 2207.76 2284.51C2207.76 2319.02 2183.26 2347 2153.03 2347Z" fill="white" fill-opacity="0.5"/>
<path fill-rule="evenodd" clip-rule="evenodd" d="M2153.03 2220.23C2169.62 2219.53 2184.84 2227.04 2195.87 2239.44C2206.14 2251 2212.56 2266.87 2213.23 2284.52C2213.74 2302.53 2207.98 2319.1 2198.22 2331.51C2187.16 2345.58 2170.93 2354.16 2153.03 2354.4C2135.14 2354.17 2118.89 2345.59 2107.84 2331.53C2098.07 2319.1 2092.3 2302.55 2092.81 2284.52C2093.48 2266.86 2099.9 2250.98 2110.18 2239.43C2121.22 2227.03 2136.44 2219.52 2153.03 2220.23ZM2153.03 2223.84C2138.11 2224.47 2125.01 2232.28 2116 2244.21C2107.87 2254.96 2103.22 2269.14 2103.8 2284.52C2104.22 2299.5 2109.81 2312.91 2118.35 2322.9C2127.19 2333.23 2139.43 2339.78 2153.03 2339.59C2166.64 2339.78 2178.89 2333.24 2187.73 2322.9C2196.27 2312.92 2201.86 2299.52 2202.28 2284.52C2202.87 2269.12 2198.21 2254.95 2190.08 2244.2C2181.07 2232.27 2167.96 2224.46 2153.03 2223.84Z" fill="white"/>
<path fill-rule="evenodd" clip-rule="evenodd" d="M2142.19 2252.17C2140.54 2250.49 2140.56 2247.8 2142.24 2246.14C2143.92 2244.5 2146.62 2244.52 2148.26 2246.19C2148.26 2246.19 2150.52 2244.95 2161.85 2245.63C2163.06 2245.7 2163.62 2245.74 2164.82 2246.12C2166.12 2246.53 2167.3 2246.85 2168.34 2247.79C2168.97 2248.37 2169.34 2249.14 2169.62 2249.94C2170.26 2251.71 2170.24 2252.6 2170.32 2254.37C2170.89 2265.61 2169.58 2267.88 2169.58 2267.88C2171.22 2269.56 2171.21 2272.26 2169.53 2273.91C2167.85 2275.56 2165.15 2275.54 2163.5 2273.86C2163.5 2273.86 2161.21 2275.14 2149.97 2274.37C2148.2 2274.25 2147.32 2274.26 2145.55 2273.59C2144.76 2273.29 2143.99 2272.92 2143.43 2272.26C2142.51 2271.22 2142.21 2270.03 2141.83 2268.72C2141.46 2267.51 2141.44 2266.96 2141.39 2265.74C2140.9 2254.4 2142.19 2252.17 2142.19 2252.17Z" fill="white"/>
<path d="M1681.56 198.8C1666.67 198.8 1654.6 185.02 1654.6 168.021C1654.6 151.022 1666.67 137.241 1681.56 137.241C1696.45 137.241 1708.52 151.022 1708.52 168.021C1708.52 185.02 1696.45 198.8 1681.56 198.8Z" fill="white" fill-opacity="0.5"/>
<path fill-rule="evenodd" clip-rule="evenodd" d="M1681.56 136.352C1689.73 136.01 1697.22 139.708 1702.66 145.815C1707.72 151.509 1710.88 159.331 1711.21 168.021C1711.46 176.898 1708.62 185.061 1703.82 191.174C1698.37 198.103 1690.37 202.328 1681.56 202.448C1672.74 202.334 1664.74 198.109 1659.29 191.18C1654.48 185.061 1651.64 176.904 1651.89 168.021C1652.22 159.325 1655.38 151.503 1660.45 145.809C1665.88 139.702 1673.38 136.004 1681.56 136.352ZM1681.56 138.132C1674.2 138.443 1667.75 142.291 1663.31 148.165C1659.31 153.463 1657.02 160.445 1657.3 168.021C1657.51 175.405 1660.26 182.01 1664.47 186.931C1668.83 192.019 1674.86 195.244 1681.56 195.154C1688.26 195.244 1694.29 192.025 1698.65 186.931C1702.86 182.016 1705.61 175.411 1705.82 168.021C1706.11 160.439 1703.81 153.457 1699.81 148.159C1695.37 142.285 1688.91 138.437 1681.56 138.132Z" fill="white"/>
<path fill-rule="evenodd" clip-rule="evenodd" d="M1676.22 152.085C1675.4 151.258 1675.41 149.933 1676.24 149.118C1677.07 148.309 1678.4 148.321 1679.21 149.142C1679.21 149.142 1680.32 148.531 1685.9 148.866C1686.5 148.902 1686.77 148.92 1687.36 149.106C1688.01 149.31 1688.59 149.466 1689.1 149.927C1689.41 150.215 1689.59 150.592 1689.73 150.988C1690.04 151.863 1690.03 152.301 1690.07 153.17C1690.36 158.708 1689.71 159.828 1689.71 159.828C1690.52 160.655 1690.51 161.986 1689.68 162.795C1688.86 163.61 1687.53 163.598 1686.71 162.771C1686.71 162.771 1685.58 163.4 1680.05 163.023C1679.18 162.963 1678.74 162.969 1677.87 162.639C1677.48 162.489 1677.1 162.31 1676.83 161.986C1676.37 161.471 1676.22 160.883 1676.04 160.242C1675.86 159.643 1675.85 159.373 1675.82 158.773C1675.58 153.188 1676.22 152.085 1676.22 152.085Z" fill="white"/>
<path d="M856.128 714.092C840.045 714.092 827.007 699.206 827.007 680.844C827.007 662.482 840.045 647.597 856.128 647.597C872.211 647.597 885.249 662.482 885.249 680.844C885.249 699.206 872.211 714.092 856.128 714.092Z" fill="white" fill-opacity="0.5"/>
<path fill-rule="evenodd" clip-rule="evenodd" d="M856.128 646.636C864.953 646.267 873.052 650.261 878.924 656.858C884.388 663.009 887.806 671.457 888.162 680.845C888.434 690.433 885.365 699.25 880.173 705.854C874.288 713.338 865.652 717.902 856.128 718.031C846.605 717.908 837.962 713.344 832.077 705.86C826.879 699.25 823.81 690.439 824.082 680.845C824.438 671.451 827.856 663.002 833.327 656.852C839.199 650.255 847.298 646.26 856.128 646.636ZM856.128 648.558C848.185 648.895 841.219 653.051 836.421 659.396C832.097 665.119 829.624 672.661 829.928 680.845C830.155 688.821 833.126 695.955 837.671 701.27C842.378 706.767 848.89 710.25 856.128 710.153C863.366 710.25 869.886 706.773 874.592 701.27C879.137 695.961 882.109 688.827 882.335 680.845C882.646 672.655 880.167 665.113 875.842 659.39C871.045 653.045 864.072 648.889 856.128 648.558Z" fill="white"/>
<path fill-rule="evenodd" clip-rule="evenodd" d="M850.36 663.63C849.48 662.737 849.493 661.306 850.386 660.426C851.279 659.552 852.717 659.565 853.591 660.452C853.591 660.452 854.788 659.791 860.822 660.154C861.463 660.193 861.761 660.212 862.402 660.413C863.094 660.633 863.722 660.801 864.273 661.3C864.609 661.611 864.804 662.018 864.953 662.446C865.296 663.391 865.283 663.864 865.328 664.802C865.632 670.784 864.933 671.995 864.933 671.995C865.807 672.888 865.801 674.326 864.907 675.2C864.014 676.08 862.577 676.067 861.696 675.174C861.696 675.174 860.479 675.854 854.497 675.446C853.558 675.381 853.086 675.387 852.147 675.031C851.726 674.869 851.318 674.675 851.02 674.326C850.528 673.769 850.367 673.134 850.166 672.442C849.972 671.794 849.959 671.503 849.933 670.855C849.674 664.822 850.36 663.63 850.36 663.63Z" fill="white"/>
<path d="M476.497 1156C454.591 1156 436.834 1135.73 436.834 1110.72C436.834 1085.71 454.591 1065.44 476.497 1065.44C498.402 1065.44 516.159 1085.71 516.159 1110.72C516.159 1135.73 498.402 1156 476.497 1156Z" fill="white" fill-opacity="0.5"/>
<path fill-rule="evenodd" clip-rule="evenodd" d="M476.496 1064.13C488.515 1063.63 499.546 1069.07 507.543 1078.05C514.985 1086.43 519.641 1097.93 520.126 1110.72C520.497 1123.78 516.317 1135.79 509.245 1144.78C501.23 1154.98 489.467 1161.19 476.496 1161.37C463.526 1161.2 451.754 1154.98 443.739 1144.79C436.658 1135.79 432.479 1123.79 432.849 1110.72C433.334 1097.93 437.99 1086.42 445.441 1078.04C453.438 1069.06 464.469 1063.62 476.496 1064.13ZM476.496 1066.75C465.677 1067.21 456.189 1072.87 449.655 1081.51C443.765 1089.3 440.397 1099.57 440.811 1110.72C441.12 1121.58 445.167 1131.3 451.357 1138.54C457.768 1146.03 466.638 1150.77 476.496 1150.64C486.355 1150.77 495.234 1146.03 501.644 1138.54C507.834 1131.31 511.882 1121.59 512.19 1110.72C512.614 1099.57 509.236 1089.29 503.346 1081.5C496.812 1072.86 487.316 1067.2 476.496 1066.75Z" fill="white"/>
<path fill-rule="evenodd" clip-rule="evenodd" d="M468.64 1087.27C467.441 1086.06 467.458 1084.11 468.675 1082.91C469.892 1081.72 471.849 1081.74 473.04 1082.94C473.04 1082.94 474.671 1082.05 482.889 1082.54C483.762 1082.59 484.168 1082.62 485.041 1082.89C485.984 1083.19 486.839 1083.42 487.589 1084.1C488.048 1084.52 488.312 1085.08 488.515 1085.66C488.982 1086.95 488.965 1087.59 489.026 1088.87C489.441 1097.02 488.488 1098.67 488.488 1098.67C489.679 1099.88 489.67 1101.84 488.453 1103.03C487.236 1104.23 485.279 1104.21 484.08 1103C484.08 1103 482.422 1103.92 474.274 1103.37C472.996 1103.28 472.352 1103.29 471.074 1102.8C470.5 1102.58 469.945 1102.32 469.539 1101.84C468.869 1101.08 468.649 1100.22 468.375 1099.27C468.111 1098.39 468.093 1098 468.058 1097.11C467.705 1088.9 468.64 1087.27 468.64 1087.27Z" fill="white"/>
<path d="M180.789 149.029C152.655 149.029 129.847 122.989 129.847 90.8679C129.847 58.7465 152.655 32.707 180.789 32.707C208.924 32.707 231.731 58.7465 231.731 90.8679C231.731 122.989 208.924 149.029 180.789 149.029Z" fill="white" fill-opacity="0.5"/>
<path fill-rule="evenodd" clip-rule="evenodd" d="M180.789 31.025C196.226 30.3795 210.394 37.3671 220.666 48.9075C230.224 59.6665 236.204 74.446 236.827 90.8677C237.302 107.64 231.934 123.065 222.851 134.617C212.557 147.709 197.449 155.693 180.789 155.92C164.13 155.705 149.011 147.72 138.716 134.628C129.622 123.065 124.254 107.652 124.729 90.8677C125.352 74.4347 131.332 59.6552 140.902 48.8962C151.174 37.3557 165.342 30.3681 180.789 31.025ZM180.789 34.3886C166.893 34.9775 154.707 42.2483 146.315 53.3471C138.75 63.3586 134.424 76.5525 134.956 90.8677C135.352 104.82 140.551 117.301 148.501 126.599C156.735 136.214 168.128 142.307 180.789 142.137C193.451 142.307 204.856 136.225 213.089 126.599C221.039 117.312 226.238 104.832 226.634 90.8677C227.178 76.5412 222.84 63.3472 215.275 53.3357C206.883 42.237 194.685 34.9662 180.789 34.3886Z" fill="white"/>
<path fill-rule="evenodd" clip-rule="evenodd" d="M170.699 60.7544C169.158 59.1915 169.181 56.6885 170.744 55.1483C172.307 53.6194 174.821 53.6421 176.35 55.1936C176.35 55.1936 178.445 54.0383 189 54.6726C190.121 54.7405 190.642 54.7745 191.764 55.1256C192.975 55.5107 194.074 55.8051 195.037 56.6772C195.625 57.2208 195.965 57.9343 196.226 58.6817C196.826 60.3352 196.803 61.162 196.883 62.8042C197.415 73.2687 196.192 75.3865 196.192 75.3865C197.721 76.9494 197.709 79.4637 196.146 80.9926C194.584 82.5328 192.069 82.5101 190.529 80.9473C190.529 80.9473 188.4 82.1365 177.935 81.423C176.293 81.3097 175.467 81.321 173.824 80.6981C173.088 80.415 172.375 80.0751 171.854 79.4636C170.993 78.4896 170.71 77.3798 170.359 76.168C170.019 75.0355 169.996 74.5258 169.951 73.3933C169.498 62.8381 170.699 60.7544 170.699 60.7544Z" fill="white"/>
</g>
<defs>
<clipPath id="clip0_626_562">
<rect width="2160" height="2700" fill="white"/>
</clipPath>
</defs>
</svg>
