<svg width="2160" height="2700" viewBox="0 0 2160 2700" fill="none" xmlns="http://www.w3.org/2000/svg">
<path fill-rule="evenodd" clip-rule="evenodd" d="M1190.09 254.13C1164.76 201.178 1124.5 160.359 1072.24 129.317C1121.8 147.88 1163.52 176.595 1193.07 221.05C1221.97 179.594 1274.66 155.12 1331.45 133.58C1268.24 172.267 1215.65 211.941 1190.09 254.13Z" fill="#810306" stroke="black" stroke-width="3.74428" stroke-miterlimit="1.5" stroke-linecap="round" stroke-linejoin="round"/>
<path fill-rule="evenodd" clip-rule="evenodd" d="M1024.65 686.477C999.79 653.087 960.297 627.347 909.023 607.773C957.651 619.478 998.582 637.585 1027.57 665.617C1055.92 639.477 1107.61 624.044 1163.33 610.461C1101.32 634.856 1049.72 659.874 1024.65 686.477Z" fill="#810306" stroke="black" stroke-width="2.94503" stroke-miterlimit="1.5" stroke-linecap="round" stroke-linejoin="round"/>
<path fill-rule="evenodd" clip-rule="evenodd" d="M1835.95 2009.64C1811.1 1976.25 1771.6 1950.51 1720.33 1930.94C1768.96 1942.64 1809.89 1960.75 1838.87 1988.78C1867.23 1962.64 1918.92 1947.21 1974.63 1933.63C1912.62 1958.02 1861.03 1983.04 1835.95 2009.64Z" fill="#810306" stroke="black" stroke-width="2.94503" stroke-miterlimit="1.5" stroke-linecap="round" stroke-linejoin="round"/>
<path fill-rule="evenodd" clip-rule="evenodd" d="M298.967 2024.07C283.682 1948.88 259.399 1890.92 227.872 1846.85C257.772 1873.2 282.939 1913.98 300.763 1977.1C318.196 1918.24 349.978 1883.48 384.238 1852.9C346.109 1907.83 314.383 1964.17 298.967 2024.07Z" fill="#810306" stroke="black" stroke-width="3.46538" stroke-miterlimit="1.5" stroke-linecap="round" stroke-linejoin="round"/>
<path fill-rule="evenodd" clip-rule="evenodd" d="M1745.12 546.952C1757.74 593.669 1776.91 629.464 1801.34 656.456C1778.39 640.509 1758.81 615.47 1744.45 576.336C1732.14 613.426 1708.66 635.699 1683.25 655.412C1711.23 620.417 1734.36 584.657 1745.12 546.952Z" fill="#810306" stroke="black" stroke-width="2.38033" stroke-miterlimit="1.5" stroke-linecap="round" stroke-linejoin="round"/>
</svg>
