<svg width="2160" height="2700" viewBox="0 0 2160 2700" fill="none" xmlns="http://www.w3.org/2000/svg">
<g clip-path="url(#clip0_626_1632)">
<path d="M2182.79 -29.8701H-12.0938V2714.69H2182.79V-29.8701Z" fill="#18815A" stroke="#8DCCB5" stroke-width="18.0236" stroke-miterlimit="1.5" stroke-linecap="round" stroke-linejoin="round"/>
<path fill-rule="evenodd" clip-rule="evenodd" d="M2056.47 271.487L2061.11 500.656L2083.66 338.795L2070.36 501.8L2124.78 279.945L2079.42 504.075L2136.61 352.085L2088.17 507.446L2189.42 304.865L2096.48 511.87L2185.21 377.946L2104.26 517.287L2246.9 344.903L2111.38 523.624L2226.9 414.983L2117.77 530.796L2294.12 397.899L2123.33 538.703L2259.39 461.202L2127.99 547.239L2328.52 460.997L2131.67 556.293L2280.93 514.112L2134.34 565.736L2348.25 530.796L2135.96 575.445L2290.38 570.856L2136.5 585.286L2352.24 603.531L2135.96 595.127L2287.22 628.379L2134.34 604.836L2340.3 675.286L2131.67 614.28L2271.61 683.581L2127.99 623.333L2313.06 742.186L2123.33 631.869L2244.4 733.482L2117.77 639.779L2271.98 800.627L2111.38 646.948L2207.08 775.394L2104.26 653.285L2219.27 847.46L2096.48 658.702L2161.61 807.056L2088.17 663.126L2157.79 880.16L2079.42 666.498L2110.51 826.764L2070.36 668.772L2090.86 896.962L2061.11 669.916L2056.47 833.454L2051.81 669.916L2022.05 896.962L2042.55 668.772L2002.41 826.764L2033.51 666.498L1955.12 880.16L2024.75 663.126L1951.3 807.056L2016.43 658.702L1893.65 847.46L2008.65 653.285L1905.83 775.394L2001.53 646.948L1840.94 800.627L1995.14 639.779L1868.51 733.482L1989.58 631.869L1799.85 742.186L1984.92 623.333L1841.3 683.581L1981.25 614.28L1772.62 675.286L1978.57 604.836L1825.69 628.379L1976.95 595.127L1760.67 603.531L1976.42 585.286L1822.53 570.856L1976.95 575.445L1764.67 530.796L1978.57 565.736L1831.98 514.112L1981.25 556.293L1784.4 460.997L1984.92 547.239L1853.53 461.202L1989.58 538.703L1818.79 397.899L1995.14 530.796L1886.02 414.983L2001.53 523.624L1866.01 344.903L2008.65 517.287L1927.7 377.946L2016.43 511.87L1923.49 304.865L2024.75 507.446L1976.31 352.085L2033.51 504.075L1988.13 279.945L2042.55 501.8L2029.26 338.795L2051.81 500.656L2056.47 271.487Z" fill="#FAF6B0"/>
<path fill-rule="evenodd" clip-rule="evenodd" d="M2056.47 271.487L2061.11 500.656L2083.66 338.795L2070.36 501.8L2124.78 279.945L2079.42 504.075L2136.61 352.085L2088.17 507.446L2189.42 304.865L2096.48 511.87L2185.21 377.946L2104.26 517.287L2246.9 344.903L2111.38 523.624L2226.9 414.983L2117.77 530.796L2294.12 397.899L2123.33 538.703L2259.39 461.202L2127.99 547.239L2328.52 460.997L2131.67 556.293L2280.93 514.112L2134.34 565.736L2348.25 530.796L2135.96 575.445L2290.38 570.856L2136.5 585.286L2352.24 603.531L2135.96 595.127L2287.22 628.379L2134.34 604.836L2340.3 675.286L2131.67 614.28L2271.61 683.581L2127.99 623.333L2313.06 742.186L2123.33 631.869L2244.4 733.482L2117.77 639.779L2271.98 800.627L2111.38 646.948L2207.08 775.394L2104.26 653.285L2219.27 847.46L2096.48 658.702L2161.61 807.056L2088.17 663.126L2157.79 880.16L2079.42 666.498L2110.51 826.764L2070.36 668.772L2090.86 896.962L2061.11 669.916L2056.47 833.454L2051.81 669.916L2022.05 896.962L2042.55 668.772L2002.41 826.764L2033.51 666.498L1955.12 880.16L2024.75 663.126L1951.3 807.056L2016.43 658.702L1893.65 847.46L2008.65 653.285L1905.83 775.394L2001.53 646.948L1840.94 800.627L1995.14 639.779L1868.51 733.482L1989.58 631.869L1799.85 742.186L1984.92 623.333L1841.3 683.581L1981.25 614.28L1772.62 675.286L1978.57 604.836L1825.69 628.379L1976.95 595.127L1760.67 603.531L1976.42 585.286L1822.53 570.856L1976.95 575.445L1764.67 530.796L1978.57 565.736L1831.98 514.112L1981.25 556.293L1784.4 460.997L1984.92 547.239L1853.53 461.202L1989.58 538.703L1818.79 397.899L1995.14 530.796L1886.02 414.983L2001.53 523.624L1866.01 344.903L2008.65 517.287L1927.7 377.946L2016.43 511.87L1923.49 304.865L2024.75 507.446L1976.31 352.085L2033.51 504.075L1988.13 279.945L2042.55 501.8L2029.26 338.795L2051.81 500.656L2056.47 271.487ZM2003.16 595.756C2003.5 596.67 2003.78 597.611 2004.01 598.576C2004.35 599.903 2004.57 601.235 2004.7 602.559C2005.04 603.268 2005.36 603.997 2005.66 604.749C2006.21 606.183 2006.64 607.637 2006.94 609.097C2007.37 609.753 2007.75 610.433 2008.12 611.135C2008.84 612.484 2009.42 613.871 2009.87 615.279C2010.27 615.769 2010.66 616.278 2011.02 616.802C2011.98 618.151 2012.78 619.562 2013.44 621.014C2013.91 621.475 2014.38 621.957 2014.81 622.459C2015.85 623.652 2016.79 624.912 2017.58 626.228C2018.03 626.571 2018.46 626.932 2018.89 627.309C2020.13 628.404 2021.24 629.592 2022.22 630.854C2022.76 631.185 2023.31 631.537 2023.83 631.911C2025.09 632.801 2026.24 633.785 2027.29 634.844C2027.82 635.089 2028.36 635.355 2028.89 635.64C2030.26 636.378 2031.52 637.219 2032.7 638.151C2033.38 638.369 2034.07 638.617 2034.75 638.896C2036.03 639.426 2037.25 640.049 2038.4 640.751C2039.11 640.885 2039.82 641.052 2040.54 641.248C2041.85 641.614 2043.11 642.073 2044.3 642.617C2045.2 642.678 2046.08 642.782 2046.98 642.936C2048.13 643.132 2049.26 643.405 2050.35 643.743C2051.27 643.694 2052.19 643.692 2053.13 643.739C2054.27 643.797 2055.38 643.924 2056.47 644.12C2057.54 643.924 2058.65 643.797 2059.78 643.739C2060.72 643.692 2061.64 643.694 2062.56 643.743C2063.65 643.405 2064.78 643.132 2065.94 642.936C2066.83 642.782 2067.71 642.678 2068.61 642.617C2069.81 642.073 2071.07 641.614 2072.37 641.248C2073.1 641.052 2073.8 640.885 2074.51 640.751C2075.66 640.049 2076.88 639.426 2078.16 638.896C2078.85 638.617 2079.53 638.369 2080.22 638.151C2081.39 637.219 2082.65 636.378 2084.02 635.64C2084.56 635.355 2085.09 635.089 2085.62 634.844C2086.67 633.785 2087.83 632.801 2089.09 631.911C2089.62 631.537 2090.16 631.185 2090.69 630.854C2091.67 629.592 2092.78 628.404 2094.02 627.309C2094.45 626.932 2094.88 626.571 2095.33 626.228C2096.12 624.912 2097.06 623.652 2098.11 622.459C2098.53 621.957 2099.01 621.475 2099.48 621.014C2100.14 619.562 2100.93 618.151 2101.89 616.802C2102.25 616.278 2102.64 615.769 2103.05 615.279C2103.49 613.871 2104.07 612.484 2104.78 611.135C2105.16 610.433 2105.55 609.753 2105.97 609.097C2106.27 607.637 2106.7 606.183 2107.26 604.749C2107.56 603.997 2107.88 603.268 2108.24 602.559C2108.35 601.235 2108.56 599.903 2108.88 598.576C2109.14 597.611 2109.42 596.67 2109.76 595.756C2109.71 594.449 2109.78 593.124 2109.97 591.793C2110.1 590.772 2110.27 589.77 2110.53 588.794C2110.38 587.683 2110.29 586.553 2110.29 585.407C2110.29 584.176 2110.36 582.965 2110.53 581.778C2110.27 580.726 2110.06 579.647 2109.93 578.543C2109.78 577.29 2109.71 576.045 2109.76 574.817C2109.44 573.976 2109.18 573.113 2108.94 572.228C2108.58 570.823 2108.35 569.416 2108.24 568.015C2107.83 567.235 2107.49 566.432 2107.17 565.603C2106.66 564.24 2106.25 562.86 2105.97 561.475C2105.59 560.884 2105.23 560.273 2104.9 559.644C2104.14 558.228 2103.52 556.774 2103.05 555.294C2102.6 554.745 2102.17 554.174 2101.76 553.581C2100.86 552.288 2100.1 550.943 2099.48 549.558C2099.05 549.15 2098.64 548.724 2098.26 548.283C2097.15 547.043 2096.16 545.723 2095.33 544.345C2094.84 543.955 2094.35 543.544 2093.85 543.114C2092.68 542.059 2091.63 540.922 2090.69 539.718C2090.22 539.426 2089.73 539.116 2089.26 538.788C2087.93 537.865 2086.71 536.839 2085.62 535.728C2085.03 535.454 2084.43 535.153 2083.83 534.827C2082.55 534.114 2081.33 533.309 2080.22 532.421C2079.6 532.225 2078.98 532.004 2078.38 531.759C2077.01 531.211 2075.73 530.562 2074.51 529.824C2073.74 529.674 2072.95 529.489 2072.18 529.266C2070.94 528.909 2069.74 528.47 2068.61 527.955C2067.8 527.899 2066.96 527.805 2066.15 527.672C2064.91 527.473 2063.71 527.188 2062.56 526.829C2061.58 526.882 2060.57 526.88 2059.57 526.822C2058.5 526.76 2057.47 526.635 2056.47 526.452C2055.44 526.635 2054.42 526.76 2053.35 526.822C2052.34 526.88 2051.34 526.882 2050.35 526.829C2049.2 527.188 2048 527.473 2046.76 527.672C2045.95 527.805 2045.12 527.899 2044.3 527.955C2043.17 528.47 2041.97 528.909 2040.73 529.266C2039.97 529.489 2039.17 529.674 2038.4 529.824C2037.19 530.562 2035.9 531.211 2034.56 531.759C2033.94 532.004 2033.32 532.225 2032.7 532.421C2031.59 533.309 2030.37 534.114 2029.08 534.827C2028.49 535.153 2027.89 535.454 2027.29 535.728C2026.18 536.839 2024.98 537.865 2023.66 538.788C2023.19 539.116 2022.69 539.426 2022.22 539.718C2021.28 540.922 2020.24 542.059 2019.06 543.114C2018.57 543.544 2018.08 543.955 2017.58 544.345C2016.75 545.723 2015.77 547.043 2014.66 548.283C2014.27 548.724 2013.87 549.15 2013.44 549.558C2012.82 550.943 2012.05 552.288 2011.15 553.581C2010.74 554.174 2010.32 554.745 2009.87 555.294C2009.4 556.774 2008.78 558.228 2008.01 559.644C2007.69 560.273 2007.32 560.884 2006.94 561.475C2006.66 562.86 2006.26 564.24 2005.74 565.603C2005.42 566.432 2005.08 567.235 2004.7 568.015C2004.57 569.416 2004.33 570.823 2003.97 572.228C2003.73 573.113 2003.48 573.976 2003.16 574.817C2003.2 576.045 2003.13 577.29 2002.98 578.543C2002.86 579.647 2002.64 580.726 2002.39 581.778C2002.56 582.965 2002.62 584.176 2002.62 585.407C2002.62 586.553 2002.54 587.683 2002.39 588.794C2002.64 589.77 2002.81 590.772 2002.94 591.793C2003.11 593.124 2003.2 594.449 2003.16 595.756Z" fill="#F4EC62"/>
<path fill-rule="evenodd" clip-rule="evenodd" d="M21.9047 907.342L26.222 1121.71L47.2111 970.302L34.8364 1122.78L85.489 915.254L43.2719 1124.91L96.491 982.734L51.4089 1128.06L145.651 938.563L59.148 1132.2L141.732 1006.92L66.3899 1137.26L199.149 976.015L73.015 1143.19L180.527 1041.57L78.9636 1149.9L243.097 1025.59L84.1363 1157.3L210.768 1084.8L88.4733 1165.28L275.108 1084.61L91.8954 1173.75L230.822 1134.29L94.3823 1182.58L293.471 1149.9L95.8943 1191.67L239.616 1187.37L96.3917 1200.87L297.192 1217.94L95.8943 1210.08L236.671 1241.18L94.3823 1219.16L286.07 1285.06L91.8954 1227.99L222.148 1292.82L88.4733 1236.46L260.724 1347.64L84.1363 1244.45L196.821 1339.49L78.9636 1251.84L222.486 1402.3L73.015 1258.55L162.085 1378.7L66.3899 1264.48L173.425 1446.11L59.148 1269.54L119.768 1408.32L51.4089 1273.68L116.207 1476.7L43.2719 1276.84L72.1993 1426.75L34.8364 1278.96L53.9156 1492.41L26.222 1280.03L21.9047 1433.01L17.5677 1280.03L-10.1262 1492.41L8.953 1278.96L-28.4099 1426.75L0.53746 1276.84L-72.4176 1476.7L-7.61945 1273.68L-75.9786 1408.32L-15.3586 1269.54L-129.636 1446.11L-22.6004 1264.48L-118.295 1378.7L-29.2254 1258.55L-178.697 1402.3L-35.174 1251.84L-153.032 1339.49L-40.3469 1244.45L-216.935 1347.64L-44.6838 1236.46L-178.358 1292.82L-48.1057 1227.99L-242.281 1285.06L-50.5926 1219.16L-192.882 1241.18L-52.1046 1210.08L-253.402 1217.94L-52.602 1200.87L-195.826 1187.37L-52.1046 1191.67L-249.682 1149.9L-50.5926 1182.58L-187.033 1134.29L-48.1057 1173.75L-231.319 1084.61L-44.6838 1165.28L-166.978 1084.8L-40.3469 1157.3L-199.308 1025.59L-35.174 1149.9L-136.738 1041.57L-29.2254 1143.19L-155.36 976.015L-22.6004 1137.26L-97.9428 1006.92L-15.3586 1132.2L-101.862 938.563L-7.61945 1128.06L-52.7016 982.734L0.53746 1124.91L-41.6996 915.254L8.953 1122.78L-3.42163 970.302L17.5677 1121.71L21.9047 907.342Z" fill="#FAF6B0"/>
<path fill-rule="evenodd" clip-rule="evenodd" d="M21.9047 907.342L26.222 1121.71L47.2111 970.302L34.8364 1122.78L85.489 915.254L43.2719 1124.91L96.491 982.734L51.4089 1128.06L145.651 938.563L59.148 1132.2L141.732 1006.92L66.3899 1137.26L199.149 976.015L73.015 1143.19L180.527 1041.57L78.9636 1149.9L243.097 1025.59L84.1363 1157.3L210.768 1084.8L88.4733 1165.28L275.108 1084.61L91.8954 1173.75L230.822 1134.29L94.3823 1182.58L293.471 1149.9L95.8943 1191.67L239.616 1187.37L96.3917 1200.87L297.192 1217.94L95.8943 1210.08L236.671 1241.18L94.3823 1219.16L286.07 1285.06L91.8954 1227.99L222.148 1292.82L88.4733 1236.46L260.724 1347.64L84.1363 1244.45L196.821 1339.49L78.9636 1251.84L222.486 1402.3L73.015 1258.55L162.085 1378.7L66.3899 1264.48L173.425 1446.11L59.148 1269.54L119.768 1408.32L51.4089 1273.68L116.207 1476.7L43.2719 1276.84L72.1993 1426.75L34.8364 1278.96L53.9156 1492.41L26.222 1280.03L21.9047 1433.01L17.5677 1280.03L-10.1262 1492.41L8.953 1278.96L-28.4099 1426.75L0.53746 1276.84L-72.4176 1476.7L-7.61945 1273.68L-75.9786 1408.32L-15.3586 1269.54L-129.636 1446.11L-22.6004 1264.48L-118.295 1378.7L-29.2254 1258.55L-178.697 1402.3L-35.174 1251.84L-153.032 1339.49L-40.3469 1244.45L-216.935 1347.64L-44.6838 1236.46L-178.358 1292.82L-48.1057 1227.99L-242.281 1285.06L-50.5926 1219.16L-192.882 1241.18L-52.1046 1210.08L-253.402 1217.94L-52.602 1200.87L-195.826 1187.37L-52.1046 1191.67L-249.682 1149.9L-50.5926 1182.58L-187.033 1134.29L-48.1057 1173.75L-231.319 1084.61L-44.6838 1165.28L-166.978 1084.8L-40.3469 1157.3L-199.308 1025.59L-35.174 1149.9L-136.738 1041.57L-29.2254 1143.19L-155.36 976.015L-22.6004 1137.26L-97.9428 1006.92L-15.3586 1132.2L-101.862 938.563L-7.61945 1128.06L-52.7016 982.734L0.53746 1124.91L-41.6996 915.254L8.953 1122.78L-3.42163 970.302L17.5677 1121.71L21.9047 907.342ZM-27.6538 1210.69C-27.3355 1211.53 -27.0768 1212.4 -26.858 1213.29C-26.5397 1214.55 -26.3406 1215.82 -26.2212 1217.07C-25.9029 1217.72 -25.6046 1218.38 -25.346 1219.06C-24.8088 1220.43 -24.391 1221.81 -24.1125 1223.2C-23.7345 1223.79 -23.3763 1224.4 -23.058 1225.03C-22.3617 1226.33 -21.8246 1227.65 -21.3869 1229C-21.0288 1229.43 -20.6905 1229.88 -20.3722 1230.34C-19.457 1231.63 -18.6811 1232.98 -18.0643 1234.37C-17.6465 1234.77 -17.2487 1235.2 -16.8508 1235.64C-15.8361 1236.78 -14.9608 1237.99 -14.2048 1239.25C-13.8268 1239.55 -13.4487 1239.86 -13.0706 1240.18C-11.877 1241.23 -10.8226 1242.37 -9.8875 1243.58C-9.41002 1243.87 -8.93262 1244.17 -8.47504 1244.5C-7.28134 1245.35 -6.16714 1246.29 -5.17239 1247.31C-4.69492 1247.52 -4.23743 1247.75 -3.77985 1248C-2.46678 1248.7 -1.25302 1249.5 -0.138901 1250.39C0.477844 1250.59 1.07451 1250.81 1.67137 1251.06C2.90485 1251.56 4.05878 1252.15 5.15298 1252.82C5.78964 1252.94 6.42642 1253.09 7.06308 1253.27C8.29657 1253.61 9.49011 1254.04 10.644 1254.56C11.4398 1254.62 12.2557 1254.71 13.0515 1254.85C14.1457 1255.04 15.2001 1255.29 16.2346 1255.61C17.0901 1255.56 17.9457 1255.56 18.8012 1255.61C19.8556 1255.66 20.89 1255.78 21.9047 1255.96C22.8994 1255.78 23.9341 1255.66 24.9885 1255.61C25.844 1255.56 26.6993 1255.56 27.5548 1255.61C28.5893 1255.29 29.644 1255.04 30.7382 1254.85C31.534 1254.71 32.3496 1254.62 33.1454 1254.56C34.2993 1254.04 35.4929 1253.61 36.7263 1253.27C37.363 1253.09 37.9998 1252.94 38.6364 1252.82C39.7307 1252.15 40.8846 1251.56 42.118 1251.06C42.7149 1250.81 43.3118 1250.59 43.9286 1250.39C45.0427 1249.5 46.2562 1248.7 47.5693 1248C48.0269 1247.75 48.4843 1247.52 48.9618 1247.31C49.9566 1246.29 51.0707 1245.35 52.2645 1244.5C52.722 1244.17 53.1994 1243.87 53.6769 1243.58C54.612 1242.37 55.6865 1241.23 56.8603 1240.18C57.2383 1239.86 57.6162 1239.55 57.9942 1239.25C58.7502 1237.99 59.6454 1236.78 60.6402 1235.64C61.0381 1235.2 61.4359 1234.77 61.8537 1234.37C62.4705 1232.98 63.2465 1231.63 64.1616 1230.34C64.4799 1229.88 64.8182 1229.43 65.1763 1229C65.614 1227.65 66.171 1226.33 66.8474 1225.03C67.1856 1224.4 67.5239 1223.79 67.9218 1223.2C68.2003 1221.81 68.5982 1220.43 69.1354 1219.06C69.394 1218.38 69.6926 1217.72 70.0109 1217.07C70.1302 1215.82 70.3291 1214.55 70.6474 1213.29C70.8663 1212.4 71.1249 1211.53 71.4433 1210.69C71.4035 1209.46 71.4631 1208.21 71.6223 1206.95C71.7615 1206 71.9207 1205.07 72.1595 1204.16C72.0202 1203.12 71.9406 1202.06 71.9406 1200.98C71.9207 1199.83 72.0003 1198.69 72.1595 1197.58C71.9207 1196.6 71.7217 1195.6 71.6023 1194.57C71.4631 1193.39 71.4035 1192.21 71.4433 1191.05C71.1448 1190.27 70.9061 1189.48 70.6873 1188.67C70.349 1187.34 70.1302 1186 70.0109 1184.67C69.6528 1183.96 69.3343 1183.23 69.0557 1182.48C68.5583 1181.18 68.1805 1179.86 67.9218 1178.54C67.5637 1178.01 67.2454 1177.46 66.947 1176.9C66.2108 1175.55 65.6339 1174.16 65.1763 1172.74C64.7784 1172.26 64.4005 1171.75 64.0225 1171.23C63.167 1169.99 62.4506 1168.7 61.8537 1167.37C61.4757 1167.02 61.1377 1166.65 60.7796 1166.26C59.7251 1165.08 58.79 1163.81 57.9942 1162.49C57.5565 1162.15 57.1188 1161.79 56.701 1161.42C55.5869 1160.41 54.5722 1159.32 53.6769 1158.16C53.2591 1157.91 52.8413 1157.64 52.4435 1157.36C51.1702 1156.48 50.0163 1155.5 48.9618 1154.44C48.4247 1154.19 47.9075 1153.93 47.3903 1153.64C46.1568 1152.97 45.0029 1152.2 43.9286 1151.35C43.3715 1151.17 42.8342 1150.98 42.297 1150.76C41.0039 1150.24 39.7903 1149.63 38.6364 1148.92C37.9401 1148.79 37.2238 1148.62 36.5474 1148.42C35.3736 1148.09 34.2396 1147.67 33.1454 1147.18C32.4093 1147.13 31.6732 1147.04 30.9371 1146.92C29.7633 1146.74 28.649 1146.47 27.5548 1146.13C26.6396 1146.18 25.7244 1146.18 24.7893 1146.12C23.8145 1146.07 22.8397 1145.95 21.9047 1145.78C20.9497 1145.95 19.9749 1146.07 19.0001 1146.12C18.065 1146.18 17.1498 1146.18 16.2346 1146.13C15.1404 1146.47 14.0262 1146.74 12.8524 1146.92C12.1162 1147.04 11.3802 1147.13 10.644 1147.18C9.5498 1147.67 8.41589 1148.09 7.26196 1148.42C6.56564 1148.62 5.8493 1148.79 5.15298 1148.92C3.99908 1149.63 2.78555 1150.24 1.49237 1150.76C0.955215 1150.98 0.418152 1151.17 -0.138901 1151.35C-1.21324 1152.2 -2.36713 1152.97 -3.60062 1153.64C-4.11789 1153.93 -4.63524 1154.19 -5.17239 1154.44C-6.22684 1155.5 -7.38074 1156.48 -8.65402 1157.36C-9.05193 1157.64 -9.46971 1157.91 -9.8875 1158.16C-10.7828 1159.32 -11.7975 1160.41 -12.9116 1161.42C-13.3294 1161.79 -13.7671 1162.15 -14.2048 1162.49C-15.0006 1163.81 -15.9357 1165.08 -16.9902 1166.26C-17.3483 1166.65 -17.6863 1167.02 -18.0643 1167.37C-18.6612 1168.7 -19.3773 1169.99 -20.2328 1171.23C-20.6108 1171.75 -20.989 1172.26 -21.3869 1172.74C-21.8445 1174.16 -22.4214 1175.55 -23.1576 1176.9C-23.456 1177.46 -23.7743 1178.01 -24.1125 1178.54C-24.391 1179.86 -24.7689 1181.18 -25.2663 1182.48C-25.5448 1183.23 -25.8631 1183.96 -26.2212 1184.67C-26.3406 1186 -26.5596 1187.34 -26.8978 1188.67C-27.1167 1189.48 -27.3554 1190.27 -27.6538 1191.05C-27.6141 1192.21 -27.6737 1193.39 -27.8129 1194.57C-27.9323 1195.6 -28.1114 1196.6 -28.37 1197.58C-28.2109 1198.69 -28.1313 1199.83 -28.1512 1200.98C-28.1512 1202.06 -28.2308 1203.12 -28.37 1204.16C-28.1313 1205.07 -27.9721 1206 -27.8328 1206.95C-27.6737 1208.21 -27.6141 1209.46 -27.6538 1210.69Z" fill="#F4EC62"/>
<path fill-rule="evenodd" clip-rule="evenodd" d="M1196.89 86.1543L1201.53 315.323L1224.08 153.462L1210.78 316.467L1265.2 94.6124L1219.84 318.742L1277.03 166.752L1228.59 322.113L1329.84 119.532L1236.9 326.537L1325.63 192.613L1244.68 331.954L1387.32 159.57L1251.8 338.291L1367.32 229.65L1258.19 345.463L1434.54 212.566L1263.75 353.37L1399.81 275.869L1268.41 361.906L1468.94 275.664L1272.09 370.96L1421.35 328.779L1274.76 380.403L1488.67 345.463L1276.38 390.112L1430.8 385.523L1276.92 399.953L1492.66 418.198L1276.38 409.794L1427.64 443.046L1274.76 419.503L1480.72 489.953L1272.09 428.947L1412.03 498.248L1268.41 438L1453.48 556.853L1263.75 446.536L1384.82 548.149L1258.19 454.446L1412.4 615.294L1251.8 461.615L1347.5 590.061L1244.68 467.952L1359.69 662.127L1236.9 473.369L1302.03 621.723L1228.59 477.793L1298.21 694.827L1219.84 481.165L1250.93 641.431L1210.78 483.439L1231.28 711.629L1201.53 484.583L1196.89 648.121L1192.23 484.583L1162.47 711.629L1182.97 483.439L1142.83 641.431L1173.93 481.165L1095.54 694.827L1165.17 477.793L1091.72 621.723L1156.85 473.369L1034.07 662.127L1149.07 467.952L1046.25 590.061L1141.95 461.615L981.355 615.294L1135.56 454.446L1008.93 548.149L1130 446.536L940.271 556.853L1125.34 438L981.718 498.248L1121.67 428.947L913.038 489.953L1118.99 419.503L966.114 443.046L1117.37 409.794L901.089 418.198L1116.83 399.953L962.951 385.523L1117.37 390.112L905.086 345.463L1118.99 380.403L972.398 328.779L1121.67 370.96L924.816 275.664L1125.34 361.906L993.945 275.869L1130 353.37L959.21 212.566L1135.56 345.463L1026.44 229.65L1141.95 338.291L1006.43 159.57L1149.07 331.954L1068.12 192.613L1156.85 326.537L1063.91 119.532L1165.17 322.113L1116.73 166.752L1173.93 318.742L1128.55 94.6124L1182.97 316.467L1169.68 153.462L1192.23 315.323L1196.89 86.1543Z" fill="#FAF6B0"/>
<path fill-rule="evenodd" clip-rule="evenodd" d="M1196.89 86.1543L1201.53 315.323L1224.08 153.462L1210.78 316.467L1265.2 94.6124L1219.84 318.742L1277.03 166.752L1228.59 322.113L1329.84 119.532L1236.9 326.537L1325.63 192.613L1244.68 331.954L1387.32 159.57L1251.8 338.291L1367.32 229.65L1258.19 345.463L1434.54 212.566L1263.75 353.37L1399.81 275.869L1268.41 361.906L1468.94 275.664L1272.09 370.96L1421.35 328.779L1274.76 380.403L1488.67 345.463L1276.38 390.112L1430.8 385.523L1276.92 399.953L1492.66 418.198L1276.38 409.794L1427.64 443.046L1274.76 419.503L1480.72 489.953L1272.09 428.947L1412.03 498.248L1268.41 438L1453.48 556.853L1263.75 446.536L1384.82 548.149L1258.19 454.446L1412.4 615.294L1251.8 461.615L1347.5 590.061L1244.68 467.952L1359.69 662.127L1236.9 473.369L1302.03 621.723L1228.59 477.793L1298.21 694.827L1219.84 481.165L1250.93 641.431L1210.78 483.439L1231.28 711.629L1201.53 484.583L1196.89 648.121L1192.23 484.583L1162.47 711.629L1182.97 483.439L1142.83 641.431L1173.93 481.165L1095.54 694.827L1165.17 477.793L1091.72 621.723L1156.85 473.369L1034.07 662.127L1149.07 467.952L1046.25 590.061L1141.95 461.615L981.355 615.294L1135.56 454.446L1008.93 548.149L1130 446.536L940.271 556.853L1125.34 438L981.718 498.248L1121.67 428.947L913.038 489.953L1118.99 419.503L966.114 443.046L1117.37 409.794L901.089 418.198L1116.83 399.953L962.951 385.523L1117.37 390.112L905.086 345.463L1118.99 380.403L972.398 328.779L1121.67 370.96L924.816 275.664L1125.34 361.906L993.945 275.869L1130 353.37L959.21 212.566L1135.56 345.463L1026.44 229.65L1141.95 338.291L1006.43 159.57L1149.07 331.954L1068.12 192.613L1156.85 326.537L1063.91 119.532L1165.17 322.113L1116.73 166.752L1173.93 318.742L1128.55 94.6124L1182.97 316.467L1169.68 153.462L1192.23 315.323L1196.89 86.1543ZM1143.58 410.423C1143.92 411.337 1144.2 412.278 1144.43 413.243C1144.77 414.57 1144.99 415.902 1145.12 417.226C1145.46 417.935 1145.78 418.664 1146.08 419.416C1146.63 420.85 1147.06 422.304 1147.36 423.764C1147.79 424.42 1148.17 425.1 1148.54 425.802C1149.26 427.151 1149.84 428.538 1150.29 429.945C1150.69 430.436 1151.08 430.945 1151.44 431.469C1152.4 432.818 1153.2 434.229 1153.86 435.681C1154.33 436.142 1154.8 436.624 1155.23 437.126C1156.27 438.319 1157.21 439.579 1158 440.895C1158.45 441.238 1158.88 441.599 1159.31 441.976C1160.55 443.071 1161.66 444.259 1162.64 445.521C1163.18 445.852 1163.73 446.204 1164.25 446.578C1165.51 447.468 1166.66 448.452 1167.71 449.511C1168.24 449.756 1168.78 450.022 1169.31 450.307C1170.68 451.045 1171.94 451.886 1173.12 452.818C1173.8 453.036 1174.49 453.284 1175.17 453.563C1176.45 454.093 1177.67 454.716 1178.82 455.418C1179.53 455.552 1180.24 455.719 1180.96 455.915C1182.27 456.281 1183.53 456.74 1184.72 457.284C1185.62 457.345 1186.5 457.449 1187.4 457.603C1188.55 457.799 1189.68 458.072 1190.77 458.41C1191.69 458.361 1192.61 458.359 1193.55 458.406C1194.69 458.464 1195.8 458.591 1196.89 458.787C1197.96 458.591 1199.07 458.464 1200.2 458.406C1201.14 458.359 1202.06 458.361 1202.98 458.41C1204.07 458.072 1205.2 457.799 1206.36 457.603C1207.25 457.449 1208.13 457.345 1209.03 457.284C1210.23 456.74 1211.49 456.281 1212.79 455.915C1213.52 455.719 1214.22 455.552 1214.93 455.418C1216.08 454.716 1217.3 454.093 1218.58 453.563C1219.27 453.284 1219.95 453.036 1220.64 452.818C1221.81 451.886 1223.07 451.045 1224.44 450.307C1224.98 450.022 1225.51 449.756 1226.04 449.511C1227.09 448.452 1228.25 447.468 1229.51 446.578C1230.04 446.204 1230.58 445.852 1231.11 445.521C1232.09 444.259 1233.2 443.071 1234.44 441.976C1234.87 441.599 1235.3 441.238 1235.75 440.895C1236.54 439.579 1237.48 438.319 1238.53 437.126C1238.95 436.624 1239.43 436.142 1239.9 435.681C1240.56 434.229 1241.35 432.818 1242.31 431.469C1242.67 430.945 1243.06 430.436 1243.47 429.945C1243.91 428.538 1244.49 427.151 1245.2 425.802C1245.58 425.1 1245.97 424.42 1246.39 423.764C1246.69 422.304 1247.12 420.85 1247.68 419.416C1247.98 418.664 1248.3 417.935 1248.66 417.226C1248.77 415.902 1248.98 414.57 1249.3 413.243C1249.56 412.278 1249.84 411.337 1250.18 410.423C1250.13 409.116 1250.2 407.791 1250.39 406.46C1250.52 405.439 1250.69 404.437 1250.95 403.461C1250.8 402.35 1250.71 401.22 1250.71 400.074C1250.71 398.843 1250.78 397.632 1250.95 396.445C1250.69 395.393 1250.48 394.314 1250.35 393.21C1250.2 391.957 1250.13 390.712 1250.18 389.484C1249.86 388.643 1249.6 387.78 1249.36 386.895C1249 385.49 1248.77 384.083 1248.66 382.682C1248.25 381.902 1247.91 381.099 1247.59 380.27C1247.08 378.907 1246.67 377.527 1246.39 376.142C1246.01 375.551 1245.65 374.94 1245.32 374.311C1244.56 372.895 1243.94 371.441 1243.47 369.961C1243.02 369.412 1242.59 368.841 1242.18 368.248C1241.28 366.955 1240.52 365.61 1239.9 364.225C1239.47 363.817 1239.06 363.391 1238.68 362.95C1237.57 361.71 1236.58 360.39 1235.75 359.012C1235.26 358.622 1234.77 358.211 1234.27 357.781C1233.1 356.726 1232.05 355.589 1231.11 354.385C1230.64 354.093 1230.15 353.783 1229.68 353.455C1228.35 352.532 1227.13 351.506 1226.04 350.395C1225.45 350.121 1224.85 349.82 1224.25 349.494C1222.97 348.781 1221.75 347.976 1220.64 347.088C1220.02 346.892 1219.4 346.671 1218.8 346.426C1217.43 345.878 1216.15 345.229 1214.93 344.491C1214.16 344.341 1213.37 344.156 1212.6 343.933C1211.36 343.576 1210.16 343.137 1209.03 342.622C1208.22 342.566 1207.38 342.472 1206.57 342.339C1205.33 342.14 1204.13 341.855 1202.98 341.496C1202 341.549 1200.99 341.547 1199.99 341.489C1198.92 341.427 1197.89 341.302 1196.89 341.119C1195.86 341.302 1194.84 341.427 1193.77 341.489C1192.76 341.547 1191.76 341.549 1190.77 341.496C1189.62 341.855 1188.42 342.14 1187.18 342.339C1186.37 342.472 1185.54 342.566 1184.72 342.622C1183.59 343.137 1182.39 343.576 1181.15 343.933C1180.39 344.156 1179.59 344.341 1178.82 344.491C1177.61 345.229 1176.32 345.878 1174.98 346.426C1174.36 346.671 1173.74 346.892 1173.12 347.088C1172.01 347.976 1170.79 348.781 1169.5 349.494C1168.91 349.82 1168.31 350.121 1167.71 350.395C1166.6 351.506 1165.4 352.532 1164.08 353.455C1163.61 353.783 1163.11 354.093 1162.64 354.385C1161.7 355.589 1160.66 356.726 1159.48 357.781C1158.99 358.211 1158.5 358.622 1158 359.012C1157.17 360.39 1156.19 361.71 1155.08 362.95C1154.69 363.391 1154.29 363.817 1153.86 364.225C1153.24 365.61 1152.47 366.955 1151.57 368.248C1151.16 368.841 1150.74 369.412 1150.29 369.961C1149.82 371.441 1149.2 372.895 1148.43 374.311C1148.11 374.94 1147.74 375.551 1147.36 376.142C1147.08 377.527 1146.68 378.907 1146.16 380.27C1145.84 381.099 1145.5 381.902 1145.12 382.682C1144.99 384.083 1144.75 385.49 1144.39 386.895C1144.15 387.78 1143.9 388.643 1143.58 389.484C1143.62 390.712 1143.55 391.957 1143.4 393.21C1143.28 394.314 1143.06 395.393 1142.81 396.445C1142.98 397.632 1143.04 398.843 1143.04 400.074C1143.04 401.22 1142.96 402.35 1142.81 403.461C1143.06 404.437 1143.23 405.439 1143.36 406.46C1143.53 407.791 1143.62 409.116 1143.58 410.423Z" fill="#F4EC62"/>
<path fill-rule="evenodd" clip-rule="evenodd" d="M444.007 289.875L448.646 519.044L471.197 357.183L457.902 520.188L512.324 298.333L466.965 522.462L524.145 370.473L475.708 525.834L576.965 323.252L484.023 530.258L572.754 396.334L491.804 535.675L634.444 363.291L498.922 542.012L614.437 433.37L505.313 549.184L681.663 416.287L510.871 557.091L646.928 479.59L515.531 565.627L716.057 479.385L519.207 574.68L668.475 532.499L521.879 584.124L735.787 549.184L523.504 593.833L677.923 589.244L524.038 603.674L739.784 621.919L523.504 613.514L674.759 646.767L521.879 623.224L727.835 693.673L519.207 632.667L659.155 701.969L515.531 641.721L700.602 760.573L510.871 650.257L631.943 751.87L505.313 658.166L659.518 819.015L498.922 665.336L594.621 793.781L491.804 671.673L606.805 865.848L484.023 677.089L549.155 825.444L475.708 681.514L545.329 898.547L466.965 684.885L498.045 845.152L457.902 687.16L478.401 915.35L448.646 688.304L444.007 851.842L439.348 688.304L409.592 915.35L430.092 687.16L389.948 845.152L421.05 684.885L342.665 898.547L412.286 681.514L338.838 825.444L403.97 677.089L281.188 865.848L396.19 671.673L293.372 793.781L389.072 665.336L228.475 819.015L382.68 658.166L256.05 751.87L377.122 650.257L187.391 760.573L372.463 641.721L228.838 701.969L368.786 632.667L160.158 693.673L366.114 623.224L213.234 646.767L364.489 613.514L148.209 621.919L363.955 603.674L210.071 589.244L364.489 593.833L152.206 549.184L366.114 584.124L219.519 532.499L368.786 574.68L171.936 479.385L372.463 565.627L241.066 479.59L377.122 557.091L206.33 416.287L382.68 549.184L273.557 433.37L389.072 542.012L253.549 363.291L396.19 535.675L315.24 396.334L403.97 530.258L311.029 323.252L412.286 525.834L363.848 370.473L421.05 522.462L375.669 298.333L430.092 520.188L416.796 357.183L439.348 519.044L444.007 289.875Z" fill="#FAF6B0"/>
<path fill-rule="evenodd" clip-rule="evenodd" d="M444.007 289.875L448.646 519.044L471.197 357.183L457.902 520.188L512.324 298.333L466.965 522.462L524.145 370.473L475.708 525.834L576.965 323.252L484.023 530.258L572.754 396.334L491.804 535.675L634.444 363.291L498.922 542.012L614.437 433.37L505.313 549.184L681.663 416.287L510.871 557.091L646.928 479.59L515.531 565.627L716.057 479.385L519.207 574.68L668.475 532.499L521.879 584.124L735.787 549.184L523.504 593.833L677.923 589.244L524.038 603.674L739.784 621.919L523.504 613.514L674.759 646.767L521.879 623.224L727.835 693.673L519.207 632.667L659.155 701.969L515.531 641.721L700.602 760.573L510.871 650.257L631.943 751.87L505.313 658.166L659.518 819.015L498.922 665.336L594.621 793.781L491.804 671.673L606.805 865.848L484.023 677.089L549.155 825.444L475.708 681.514L545.329 898.547L466.965 684.885L498.045 845.152L457.902 687.16L478.401 915.35L448.646 688.304L444.007 851.842L439.348 688.304L409.592 915.35L430.092 687.16L389.948 845.152L421.05 684.885L342.665 898.547L412.286 681.514L338.838 825.444L403.97 677.089L281.188 865.848L396.19 671.673L293.372 793.781L389.072 665.336L228.475 819.015L382.68 658.166L256.05 751.87L377.122 650.257L187.391 760.573L372.463 641.721L228.838 701.969L368.786 632.667L160.158 693.673L366.114 623.224L213.234 646.767L364.489 613.514L148.209 621.919L363.955 603.674L210.071 589.244L364.489 593.833L152.206 549.184L366.114 584.124L219.519 532.499L368.786 574.68L171.936 479.385L372.463 565.627L241.066 479.59L377.122 557.091L206.33 416.287L382.68 549.184L273.557 433.37L389.072 542.012L253.549 363.291L396.19 535.675L315.24 396.334L403.97 530.258L311.029 323.252L412.286 525.834L363.848 370.473L421.05 522.462L375.669 298.333L430.092 520.188L416.796 357.183L439.348 519.044L444.007 289.875ZM390.696 614.143C391.038 615.058 391.316 615.999 391.551 616.964C391.893 618.291 392.107 619.622 392.235 620.947C392.577 621.656 392.898 622.385 393.197 623.137C393.753 624.57 394.18 626.024 394.479 627.485C394.907 628.141 395.292 628.821 395.655 629.523C396.382 630.872 396.959 632.259 397.408 633.666C397.814 634.157 398.199 634.665 398.562 635.189C399.524 636.538 400.315 637.95 400.978 639.402C401.448 639.863 401.918 640.345 402.346 640.847C403.393 642.04 404.334 643.3 405.125 644.615C405.574 644.959 406.001 645.32 406.429 645.697C407.669 646.792 408.78 647.98 409.763 649.242C410.298 649.572 410.853 649.925 411.366 650.299C412.628 651.189 413.782 652.172 414.829 653.232C415.364 653.477 415.898 653.742 416.432 654.028C417.801 654.766 419.062 655.606 420.237 656.539C420.921 656.757 421.605 657.005 422.289 657.283C423.572 657.814 424.791 658.436 425.945 659.139C426.65 659.272 427.356 659.44 428.082 659.636C429.386 660.002 430.648 660.461 431.845 661.005C432.742 661.065 433.619 661.17 434.517 661.324C435.671 661.52 436.804 661.792 437.894 662.131C438.813 662.082 439.732 662.08 440.673 662.127C441.806 662.185 442.917 662.312 444.007 662.508C445.076 662.312 446.188 662.185 447.321 662.127C448.261 662.08 449.18 662.082 450.099 662.131C451.19 661.792 452.323 661.52 453.477 661.324C454.375 661.17 455.251 661.065 456.149 661.005C457.346 660.461 458.607 660.002 459.911 659.636C460.638 659.44 461.343 659.272 462.049 659.139C463.203 658.436 464.421 657.814 465.704 657.283C466.388 657.005 467.072 656.757 467.756 656.539C468.931 655.606 470.193 654.766 471.561 654.028C472.095 653.742 472.63 653.477 473.164 653.232C474.211 652.172 475.366 651.189 476.627 650.299C477.161 649.925 477.696 649.572 478.23 649.242C479.213 647.98 480.325 646.792 481.565 645.697C481.992 645.32 482.42 644.959 482.869 644.615C483.66 643.3 484.6 642.04 485.647 640.847C486.075 640.345 486.545 639.863 487.015 639.402C487.678 637.95 488.469 636.538 489.431 635.189C489.794 634.665 490.179 634.157 490.585 633.666C491.034 632.259 491.611 630.872 492.317 629.523C492.701 628.821 493.086 628.141 493.514 627.485C493.813 626.024 494.24 624.57 494.796 623.137C495.095 622.385 495.416 621.656 495.779 620.947C495.886 619.622 496.1 618.291 496.421 616.964C496.677 615.999 496.955 615.058 497.297 614.143C497.255 612.837 497.319 611.512 497.511 610.181C497.639 609.159 497.81 608.158 498.067 607.181C497.917 606.071 497.832 604.94 497.832 603.794C497.832 602.563 497.896 601.352 498.067 600.166C497.81 599.114 497.596 598.034 497.468 596.931C497.319 595.677 497.255 594.433 497.297 593.204C496.977 592.364 496.72 591.501 496.485 590.615C496.122 589.211 495.886 587.803 495.779 586.403C495.373 585.623 495.031 584.82 494.711 583.99C494.198 582.628 493.792 581.247 493.514 579.863C493.129 579.272 492.766 578.661 492.445 578.032C491.675 576.616 491.056 575.162 490.585 573.681C490.136 573.133 489.709 572.562 489.303 571.969C488.405 570.676 487.635 569.331 487.015 567.946C486.588 567.538 486.182 567.112 485.797 566.67C484.686 565.431 483.702 564.111 482.869 562.732C482.377 562.342 481.885 561.932 481.394 561.502C480.218 560.447 479.171 559.31 478.23 558.105C477.76 557.813 477.268 557.503 476.798 557.175C475.472 556.252 474.254 555.227 473.164 554.116C472.565 553.842 471.967 553.541 471.368 553.215C470.086 552.502 468.867 551.697 467.756 550.809C467.136 550.613 466.516 550.392 465.918 550.147C464.549 549.598 463.267 548.949 462.049 548.211C461.279 548.062 460.488 547.877 459.718 547.654C458.479 547.297 457.282 546.858 456.149 546.343C455.337 546.287 454.503 546.193 453.691 546.059C452.451 545.861 451.254 545.576 450.099 545.216C449.116 545.27 448.111 545.268 447.107 545.21C446.038 545.147 445.012 545.022 444.007 544.84C442.981 545.022 441.955 545.147 440.887 545.21C439.882 545.268 438.877 545.27 437.894 545.216C436.74 545.576 435.542 545.861 434.303 546.059C433.49 546.193 432.657 546.287 431.845 546.343C430.712 546.858 429.515 547.297 428.275 547.654C427.505 547.877 426.714 548.062 425.945 548.211C424.726 548.949 423.444 549.598 422.097 550.147C421.477 550.392 420.857 550.613 420.237 550.809C419.126 551.697 417.908 552.502 416.625 553.215C416.027 553.541 415.428 553.842 414.829 554.116C413.718 555.227 412.521 556.252 411.195 557.175C410.725 557.503 410.233 557.813 409.763 558.105C408.823 559.31 407.775 560.447 406.6 561.502C406.108 561.932 405.616 562.342 405.125 562.732C404.291 564.111 403.308 565.431 402.196 566.67C401.812 567.112 401.405 567.538 400.978 567.946C400.358 569.331 399.589 570.676 398.691 571.969C398.285 572.562 397.857 573.133 397.408 573.681C396.938 575.162 396.318 576.616 395.548 578.032C395.228 578.661 394.864 579.272 394.479 579.863C394.202 581.247 393.796 582.628 393.283 583.99C392.962 584.82 392.62 585.623 392.235 586.403C392.107 587.803 391.872 589.211 391.508 590.615C391.273 591.501 391.017 592.364 390.696 593.204C390.739 594.433 390.675 595.677 390.525 596.931C390.397 598.034 390.183 599.114 389.926 600.166C390.097 601.352 390.162 602.563 390.162 603.794C390.162 604.94 390.076 606.071 389.926 607.181C390.183 608.158 390.354 609.159 390.482 610.181C390.653 611.512 390.739 612.837 390.696 614.143Z" fill="#F4EC62"/>
<path fill-rule="evenodd" clip-rule="evenodd" d="M1988.69 1409.45L1993.33 1638.62L2015.88 1476.76L2002.58 1639.76L2057 1417.91L2011.64 1642.04L2068.82 1490.05L2020.39 1645.41L2121.64 1442.83L2028.7 1649.83L2117.43 1515.91L2036.48 1655.25L2179.12 1482.87L2043.6 1661.59L2159.12 1552.95L2049.99 1668.76L2226.34 1535.86L2055.55 1676.67L2191.61 1599.17L2060.21 1685.2L2260.74 1598.96L2063.89 1694.26L2213.15 1652.07L2066.56 1703.7L2280.47 1668.76L2068.18 1713.41L2222.6 1708.82L2068.72 1723.25L2284.46 1741.49L2068.18 1733.09L2219.44 1766.34L2066.56 1742.8L2272.51 1813.25L2063.89 1752.24L2203.83 1821.54L2060.21 1761.3L2245.28 1880.15L2055.55 1769.83L2176.62 1871.44L2049.99 1777.74L2204.2 1938.59L2043.6 1784.91L2139.3 1913.36L2036.48 1791.25L2151.48 1985.42L2028.7 1796.66L2093.83 1945.02L2020.39 1801.09L2090.01 2018.12L2011.64 1804.46L2042.73 1964.73L2002.58 1806.73L2023.08 2034.92L1993.33 1807.88L1988.69 1971.42L1984.03 1807.88L1954.27 2034.92L1974.77 1806.73L1934.63 1964.73L1965.73 1804.46L1887.34 2018.12L1956.97 1801.09L1883.52 1945.02L1948.65 1796.66L1825.87 1985.42L1940.87 1791.25L1838.05 1913.36L1933.75 1784.91L1773.15 1938.59L1927.36 1777.74L1800.73 1871.44L1921.8 1769.83L1732.07 1880.15L1917.14 1761.3L1773.52 1821.54L1913.47 1752.24L1704.84 1813.25L1910.79 1742.8L1757.91 1766.34L1909.17 1733.09L1692.89 1741.49L1908.63 1723.25L1754.75 1708.82L1909.17 1713.41L1696.89 1668.76L1910.79 1703.7L1764.2 1652.07L1913.47 1694.26L1716.62 1598.96L1917.14 1685.2L1785.75 1599.17L1921.8 1676.67L1751.01 1535.86L1927.36 1668.76L1818.24 1552.95L1933.75 1661.59L1798.23 1482.87L1940.87 1655.25L1859.92 1515.91L1948.65 1649.83L1855.71 1442.83L1956.97 1645.41L1908.53 1490.05L1965.73 1642.04L1920.35 1417.91L1974.77 1639.76L1961.48 1476.76L1984.03 1638.62L1988.69 1409.45Z" fill="#FAF6B0"/>
<path fill-rule="evenodd" clip-rule="evenodd" d="M1988.69 1409.45L1993.33 1638.62L2015.88 1476.76L2002.58 1639.76L2057 1417.91L2011.64 1642.04L2068.82 1490.05L2020.39 1645.41L2121.64 1442.83L2028.7 1649.83L2117.43 1515.91L2036.48 1655.25L2179.12 1482.87L2043.6 1661.59L2159.12 1552.95L2049.99 1668.76L2226.34 1535.86L2055.55 1676.67L2191.61 1599.17L2060.21 1685.2L2260.74 1598.96L2063.89 1694.26L2213.15 1652.07L2066.56 1703.7L2280.47 1668.76L2068.18 1713.41L2222.6 1708.82L2068.72 1723.25L2284.46 1741.49L2068.18 1733.09L2219.44 1766.34L2066.56 1742.8L2272.51 1813.25L2063.89 1752.24L2203.83 1821.54L2060.21 1761.3L2245.28 1880.15L2055.55 1769.83L2176.62 1871.44L2049.99 1777.74L2204.2 1938.59L2043.6 1784.91L2139.3 1913.36L2036.48 1791.25L2151.48 1985.42L2028.7 1796.66L2093.83 1945.02L2020.39 1801.09L2090.01 2018.12L2011.64 1804.46L2042.73 1964.73L2002.58 1806.73L2023.08 2034.92L1993.33 1807.88L1988.69 1971.42L1984.03 1807.88L1954.27 2034.92L1974.77 1806.73L1934.63 1964.73L1965.73 1804.46L1887.34 2018.12L1956.97 1801.09L1883.52 1945.02L1948.65 1796.66L1825.87 1985.42L1940.87 1791.25L1838.05 1913.36L1933.75 1784.91L1773.15 1938.59L1927.36 1777.74L1800.73 1871.44L1921.8 1769.83L1732.07 1880.15L1917.14 1761.3L1773.52 1821.54L1913.47 1752.24L1704.84 1813.25L1910.79 1742.8L1757.91 1766.34L1909.17 1733.09L1692.89 1741.49L1908.63 1723.25L1754.75 1708.82L1909.17 1713.41L1696.89 1668.76L1910.79 1703.7L1764.2 1652.07L1913.47 1694.26L1716.62 1598.96L1917.14 1685.2L1785.75 1599.17L1921.8 1676.67L1751.01 1535.86L1927.36 1668.76L1818.24 1552.95L1933.75 1661.59L1798.23 1482.87L1940.87 1655.25L1859.92 1515.91L1948.65 1649.83L1855.71 1442.83L1956.97 1645.41L1908.53 1490.05L1965.73 1642.04L1920.35 1417.91L1974.77 1639.76L1961.48 1476.76L1984.03 1638.62L1988.69 1409.45ZM1935.38 1733.72C1935.72 1734.63 1936 1735.57 1936.23 1736.54C1936.57 1737.87 1936.79 1739.2 1936.91 1740.52C1937.26 1741.23 1937.58 1741.96 1937.88 1742.71C1938.43 1744.15 1938.86 1745.6 1939.16 1747.06C1939.59 1747.72 1939.97 1748.4 1940.33 1749.1C1941.06 1750.45 1941.64 1751.83 1942.09 1753.24C1942.49 1753.73 1942.88 1754.24 1943.24 1754.76C1944.2 1756.11 1944.99 1757.53 1945.66 1758.98C1946.13 1759.44 1946.6 1759.92 1947.03 1760.42C1948.07 1761.61 1949.01 1762.87 1949.8 1764.19C1950.25 1764.53 1950.68 1764.9 1951.11 1765.27C1952.35 1766.37 1953.46 1767.56 1954.44 1768.82C1954.98 1769.15 1955.53 1769.5 1956.05 1769.87C1957.31 1770.76 1958.46 1771.75 1959.51 1772.81C1960.04 1773.05 1960.58 1773.32 1961.11 1773.6C1962.48 1774.34 1963.74 1775.18 1964.92 1776.11C1965.6 1776.33 1966.29 1776.58 1966.97 1776.86C1968.25 1777.39 1969.47 1778.01 1970.62 1778.71C1971.33 1778.85 1972.04 1779.01 1972.76 1779.21C1974.07 1779.58 1975.33 1780.04 1976.52 1780.58C1977.42 1780.64 1978.3 1780.75 1979.2 1780.9C1980.35 1781.1 1981.48 1781.37 1982.57 1781.71C1983.49 1781.66 1984.41 1781.66 1985.35 1781.7C1986.49 1781.76 1987.6 1781.89 1988.69 1782.08C1989.76 1781.89 1990.87 1781.76 1992 1781.7C1992.94 1781.66 1993.86 1781.66 1994.78 1781.71C1995.87 1781.37 1997 1781.1 1998.16 1780.9C1999.05 1780.75 1999.93 1780.64 2000.83 1780.58C2002.03 1780.04 2003.29 1779.58 2004.59 1779.21C2005.32 1779.01 2006.02 1778.85 2006.73 1778.71C2007.88 1778.01 2009.1 1777.39 2010.38 1776.86C2011.07 1776.58 2011.75 1776.33 2012.44 1776.11C2013.61 1775.18 2014.87 1774.34 2016.24 1773.6C2016.77 1773.32 2017.31 1773.05 2017.84 1772.81C2018.89 1771.75 2020.05 1770.76 2021.31 1769.87C2021.84 1769.5 2022.38 1769.15 2022.91 1768.82C2023.89 1767.56 2025 1766.37 2026.24 1765.27C2026.67 1764.9 2027.1 1764.53 2027.55 1764.19C2028.34 1762.87 2029.28 1761.61 2030.33 1760.42C2030.75 1759.92 2031.22 1759.44 2031.7 1758.98C2032.36 1757.53 2033.15 1756.11 2034.11 1754.76C2034.47 1754.24 2034.86 1753.73 2035.26 1753.24C2035.71 1751.83 2036.29 1750.45 2037 1749.1C2037.38 1748.4 2037.77 1747.72 2038.19 1747.06C2038.49 1745.6 2038.92 1744.15 2039.48 1742.71C2039.78 1741.96 2040.1 1741.23 2040.46 1740.52C2040.57 1739.2 2040.78 1737.87 2041.1 1736.54C2041.36 1735.57 2041.63 1734.63 2041.98 1733.72C2041.93 1732.41 2042 1731.09 2042.19 1729.76C2042.32 1728.73 2042.49 1727.73 2042.75 1726.76C2042.6 1725.65 2042.51 1724.52 2042.51 1723.37C2042.51 1722.14 2042.58 1720.93 2042.75 1719.74C2042.49 1718.69 2042.28 1717.61 2042.15 1716.51C2042 1715.25 2041.93 1714.01 2041.98 1712.78C2041.66 1711.94 2041.4 1711.08 2041.16 1710.19C2040.8 1708.79 2040.57 1707.38 2040.46 1705.98C2040.05 1705.2 2039.71 1704.4 2039.39 1703.57C2038.88 1702.2 2038.47 1700.82 2038.19 1699.44C2037.81 1698.85 2037.45 1698.24 2037.12 1697.61C2036.36 1696.19 2035.74 1694.74 2035.26 1693.26C2034.82 1692.71 2034.39 1692.14 2033.98 1691.54C2033.08 1690.25 2032.31 1688.91 2031.7 1687.52C2031.27 1687.11 2030.86 1686.69 2030.48 1686.25C2029.37 1685.01 2028.38 1683.69 2027.55 1682.31C2027.06 1681.92 2026.56 1681.51 2026.07 1681.08C2024.9 1680.02 2023.85 1678.88 2022.91 1677.68C2022.44 1677.39 2021.95 1677.08 2021.48 1676.75C2020.15 1675.83 2018.93 1674.8 2017.84 1673.69C2017.25 1673.42 2016.65 1673.12 2016.05 1672.79C2014.77 1672.08 2013.55 1671.27 2012.44 1670.38C2011.82 1670.19 2011.2 1669.97 2010.6 1669.72C2009.23 1669.17 2007.95 1668.52 2006.73 1667.79C2005.96 1667.64 2005.17 1667.45 2004.4 1667.23C2003.16 1666.87 2001.96 1666.43 2000.83 1665.92C2000.02 1665.86 1999.18 1665.77 1998.37 1665.63C1997.13 1665.44 1995.93 1665.15 1994.78 1664.79C1993.8 1664.85 1992.79 1664.84 1991.79 1664.79C1990.72 1664.72 1989.69 1664.6 1988.69 1664.41C1987.66 1664.6 1986.64 1664.72 1985.57 1664.79C1984.56 1664.84 1983.56 1664.85 1982.57 1664.79C1981.42 1665.15 1980.22 1665.44 1978.98 1665.63C1978.17 1665.77 1977.34 1665.86 1976.52 1665.92C1975.39 1666.43 1974.19 1666.87 1972.95 1667.23C1972.18 1667.45 1971.39 1667.64 1970.62 1667.79C1969.41 1668.52 1968.12 1669.17 1966.78 1669.72C1966.16 1669.97 1965.54 1670.19 1964.92 1670.38C1963.81 1671.27 1962.59 1672.08 1961.3 1672.79C1960.71 1673.12 1960.11 1673.42 1959.51 1673.69C1958.4 1674.8 1957.2 1675.83 1955.88 1676.75C1955.4 1677.08 1954.91 1677.39 1954.44 1677.68C1953.5 1678.88 1952.46 1680.02 1951.28 1681.08C1950.79 1681.51 1950.3 1681.92 1949.8 1682.31C1948.97 1683.69 1947.99 1685.01 1946.88 1686.25C1946.49 1686.69 1946.09 1687.11 1945.66 1687.52C1945.04 1688.91 1944.27 1690.25 1943.37 1691.54C1942.96 1692.14 1942.54 1692.71 1942.09 1693.26C1941.62 1694.74 1941 1696.19 1940.23 1697.61C1939.91 1698.24 1939.54 1698.85 1939.16 1699.44C1938.88 1700.82 1938.48 1702.2 1937.96 1703.57C1937.64 1704.4 1937.3 1705.2 1936.91 1705.98C1936.79 1707.38 1936.55 1708.79 1936.19 1710.19C1935.95 1711.08 1935.7 1711.94 1935.38 1712.78C1935.42 1714.01 1935.35 1715.25 1935.2 1716.51C1935.08 1717.61 1934.86 1718.69 1934.61 1719.74C1934.78 1720.93 1934.84 1722.14 1934.84 1723.37C1934.84 1724.52 1934.76 1725.65 1934.61 1726.76C1934.86 1727.73 1935.03 1728.73 1935.16 1729.76C1935.33 1731.09 1935.42 1732.41 1935.38 1733.72Z" fill="#F4EC62"/>
</g>
<defs>
<clipPath id="clip0_626_1632">
<rect width="2160" height="2700" fill="white"/>
</clipPath>
</defs>
</svg>
