<svg width="2160" height="2700" viewBox="0 0 2160 2700" fill="none" xmlns="http://www.w3.org/2000/svg">
<g clip-path="url(#clip0_607_4871)">
<path d="M2182.79 -29.8691H-12.0939V2714.69H2182.79V-29.8691Z" fill="#90A9FF" stroke="black" stroke-width="18.0236" stroke-miterlimit="1.5" stroke-linecap="round" stroke-linejoin="round"/>
<path fill-rule="evenodd" clip-rule="evenodd" d="M1060.27 -406.797L1060.79 1308.1L1153.01 -404.069L1061.81 1308.14L1245.42 -395.892L1062.86 1308.28L1337.28 -382.296L1063.85 1308.46L1428.24 -363.318L1064.87 1308.68L1518.06 -339.022L1065.86 1309L1606.43 -309.484L1066.83 1309.34L1693.11 -274.795L1067.79 1309.76L1777.77 -235.066L1068.72 1310.24L1860.17 -190.419L1069.62 1310.76L1940.05 -141L1070.47 1311.32L2017.2 -86.9586L1071.31 1311.95L2091.29 -28.4673L1072.13 1312.63L2162.18 34.2892L1072.89 1313.35L2229.57 101.115L1073.61 1314.09L2293.28 171.796L1074.31 1314.9L2353.13 246.124L1074.95 1315.74L2408.92 323.835L1075.54 1316.64L2460.46 404.724L1076.09 1317.54L2507.57 488.498L1076.59 1318.49L2550.14 574.91L1077.02 1319.46L2588.04 663.69L1077.43 1320.45L2621.11 754.589L1077.75 1321.49L2649.28 847.246L1078.04 1322.5L2672.44 941.436L1078.27 1323.56L2690.54 1036.84L1078.45 1324.62L2703.5 1133.15L1078.57 1325.7L2711.31 1230.09L1078.62 1326.79L2713.9 1327.33L1078.62 1327.87L2711.31 1424.56L1078.57 1328.93L2703.5 1521.48L1078.45 1330.01L2690.54 1617.79L1078.27 1331.07L2672.44 1713.19L1078.04 1332.13L2649.28 1807.39L1077.75 1333.17L2621.11 1900.06L1077.43 1334.18L2588.04 1990.94L1077.02 1335.17L2550.14 2079.72L1076.59 1336.14L2507.57 2166.13L1076.09 1337.09L2460.46 2249.93L1075.54 1338.01L2408.92 2330.8L1074.95 1338.89L2353.13 2408.53L1074.31 1339.73L2293.28 2482.83L1073.61 1340.54L2229.57 2553.53L1072.89 1341.3L2162.18 2620.35L1072.13 1342.03L2091.29 2683.1L1071.31 1342.68L2017.2 2741.6L1070.47 1343.31L1940.05 2795.64L1069.62 1343.9L1860.17 2845.05L1068.72 1344.42L1777.77 2889.71L1067.79 1344.89L1693.11 2929.44L1066.83 1345.29L1606.43 2964.13L1065.86 1345.65L1518.06 2993.67L1064.87 1345.95L1428.24 3017.95L1063.85 1346.2L1337.28 3036.93L1062.86 1346.38L1245.42 3050.52L1061.81 1346.49L1153.01 3058.71L1060.79 1346.56L1060.27 3061.43L1059.77 1346.56L967.563 3058.71L1058.75 1346.49L875.147 3050.52L1057.74 1346.38L783.285 3036.93L1056.72 1346.2L692.32 3017.95L1055.7 1345.95L602.504 2993.67L1054.7 1345.65L514.129 2964.13L1053.74 1345.29L427.474 2929.44L1052.78 1344.89L342.805 2889.71L1051.88 1344.42L260.397 2845.05L1050.98 1343.9L180.506 2795.64L1050.1 1343.31L103.384 2741.6L1049.26 1342.68L29.2706 2683.1L1048.44 1342.03L-41.5996 2620.35L1047.68 1341.3L-109 2553.53L1046.96 1340.54L-172.724 2482.83L1046.26 1339.73L-232.567 2408.53L1045.61 1338.89L-288.342 2330.8L1045.03 1338.01L-339.876 2249.93L1044.48 1337.09L-387.002 2166.13L1043.98 1336.14L-429.576 2079.72L1043.55 1335.17L-467.46 1990.94L1043.14 1334.18L-500.54 1900.06L1042.82 1333.17L-528.707 1807.39L1042.53 1332.13L-551.875 1713.19L1042.29 1331.07L-569.971 1617.79L1042.12 1330.01L-582.936 1521.48L1042 1328.93L-590.732 1424.56L1041.94 1327.87L-593.334 1327.33L1041.94 1326.79L-590.732 1230.09L1042 1325.7L-582.936 1133.15L1042.12 1324.62L-569.971 1036.84L1042.29 1323.56L-551.875 941.436L1042.53 1322.5L-528.707 847.246L1042.82 1321.49L-500.54 754.589L1043.14 1320.45L-467.46 663.69L1043.55 1319.46L-429.576 574.91L1043.98 1318.49L-387.002 488.498L1044.48 1317.54L-339.876 404.724L1045.03 1316.64L-288.342 323.835L1045.61 1315.74L-232.567 246.124L1046.26 1314.9L-172.724 171.796L1046.96 1314.09L-109 101.115L1047.68 1313.35L-41.5996 34.2892L1048.44 1312.63L29.2706 -28.4673L1049.26 1311.95L103.384 -86.9586L1050.1 1311.32L180.506 -141L1050.98 1310.76L260.397 -190.419L1051.88 1310.24L342.805 -235.066L1052.78 1309.76L427.474 -274.795L1053.74 1309.34L514.129 -309.484L1054.7 1309L602.504 -339.022L1055.7 1308.68L692.32 -363.318L1056.72 1308.46L783.285 -382.296L1057.74 1308.28L875.147 -395.892L1058.75 1308.14L967.563 -404.069L1059.77 1308.1L1060.27 -406.797Z" fill="#FF2E33" stroke="#D50409" stroke-opacity="0.2" stroke-width="45.2601" stroke-miterlimit="1.5" stroke-linecap="round" stroke-linejoin="round"/>
</g>
<defs>
<clipPath id="clip0_607_4871">
<rect width="2160" height="2700" fill="white"/>
</clipPath>
</defs>
</svg>
