<svg width="2160" height="2700" viewBox="0 0 2160 2700" fill="none" xmlns="http://www.w3.org/2000/svg">
<g clip-path="url(#clip0_593_2889)">
<path d="M2204.4 -29.8701H-52.835V2737.51H2204.4V-29.8701Z" fill="#FF8B3E"/>
<path fill-rule="evenodd" clip-rule="evenodd" d="M-426.704 -45.2318C-349.783 -26.2347 298.413 122.922 298.413 122.922L172.085 169.381L537.566 304.201L432.452 306.796L643.537 506.165L582.564 506.393L729.125 712.464L469.665 502.613L516.327 439.751L305.594 321.031L349.66 284.07L-12.8229 260.185L41.3471 169.507L-247.516 196.492C-247.516 196.492 -503.625 -64.2288 -426.704 -45.2318Z" fill="black"/>
<path fill-rule="evenodd" clip-rule="evenodd" d="M-422.867 -60.7643C-345.973 -41.7737 302.001 107.329 302.001 107.329C308.9 108.917 313.935 114.848 314.382 121.913C314.828 128.976 310.58 135.495 303.936 137.939L218.377 169.405L543.103 289.189C550.307 291.847 554.607 299.245 553.35 306.819C552.094 314.393 545.636 320.007 537.961 320.196L471.674 321.833L654.524 494.534C659.28 499.028 660.822 505.964 658.416 512.05C656.009 518.135 650.141 522.142 643.597 522.166L613.496 522.278L742.164 703.191C746.798 709.708 745.91 718.646 740.083 724.122C734.257 729.599 725.281 729.933 719.063 724.904L459.603 515.053C452.933 509.659 451.705 499.965 456.818 493.077L492.664 444.785L297.741 334.971C293.166 332.395 290.147 327.737 289.662 322.509C289.178 317.28 291.289 312.148 295.312 308.773L308.852 297.416L-13.875 276.15C-19.4338 275.784 -24.402 272.553 -26.9905 267.62C-29.579 262.686 -29.4152 256.762 -26.5581 251.98L11.4406 188.371L-246.028 212.422C-250.819 212.87 -255.558 211.137 -258.93 207.704C-258.93 207.704 -425.477 37.3716 -452.147 -20.7106C-455.824 -28.7199 -457.249 -35.4754 -457.101 -40.392C-456.876 -47.8641 -453.85 -53.2996 -449.17 -57.1079C-444.468 -60.9345 -436.067 -64.0243 -422.867 -60.7643ZM-426.704 -45.2315C-503.625 -64.2285 -247.516 196.492 -247.516 196.492L41.3472 169.508L-12.8227 260.185L349.66 284.07L305.594 321.032L516.327 439.751L469.665 502.613L729.125 712.464L582.564 506.393L643.537 506.166L432.452 306.797L537.567 304.201L172.085 169.382L298.414 122.922C298.414 122.922 -349.783 -26.2344 -426.704 -45.2315Z" fill="#FFBA8B"/>
<path fill-rule="evenodd" clip-rule="evenodd" d="M130.031 -538.595C196.624 -488.106 762.306 -72.9724 762.306 -72.9724L620.864 -82.5191L918.873 199.47L816.078 157.455L938.011 435.116L878.912 409.537L935.635 666.233L771.216 358.205L842.335 318.553L687.433 117.239L745.343 100.96L404.42 -74.9508L494.293 -137.707L203.604 -234.412C203.604 -234.412 63.4377 -589.084 130.031 -538.595Z" fill="black"/>
<path fill-rule="evenodd" clip-rule="evenodd" d="M139.697 -551.345C206.27 -500.871 771.772 -85.8715 771.772 -85.8715C777.51 -81.6607 779.776 -74.1671 777.334 -67.4822C774.892 -60.7973 768.329 -56.5288 761.228 -57.0088L664.181 -63.5586L929.87 187.849C935.464 193.143 936.493 201.671 932.318 208.144C928.143 214.617 919.949 217.196 912.819 214.281L846.627 187.227L952.661 428.683C955.307 434.707 953.995 441.736 949.355 446.4C944.716 451.064 937.694 452.414 931.656 449.8L901.291 436.658L951.258 662.782C952.983 670.589 948.68 678.471 941.18 681.243C933.679 684.013 925.285 680.822 921.52 673.768L757.101 365.74C752.994 358.045 755.806 348.478 763.424 344.231L818.343 313.611L674.753 126.997C671.513 122.786 670.575 117.242 672.248 112.199C673.922 107.157 677.989 103.275 683.104 101.837L701.905 96.5507L397.083 -60.7314C392.102 -63.3023 388.828 -68.2923 388.456 -73.8855C388.082 -79.4782 390.664 -84.859 395.259 -88.0684L459.008 -132.583L198.553 -219.23C194.063 -220.724 190.463 -224.13 188.724 -228.531C188.724 -228.531 97.9363 -459.788 96.1167 -525.907C95.7018 -540.991 100.585 -550.581 105.919 -554.845C112.592 -560.177 124.221 -563.078 139.697 -551.345ZM130.031 -538.595C63.4376 -589.083 203.604 -234.412 203.604 -234.412L494.293 -137.707L404.42 -74.9503L745.343 100.96L687.433 117.239L842.335 318.553L771.216 358.205L935.635 666.233L878.912 409.537L938.011 435.116L816.078 157.456L918.873 199.471L620.864 -82.5187L762.306 -72.972C762.306 -72.972 196.624 -488.106 130.031 -538.595Z" fill="#FFBA8B"/>
<path fill-rule="evenodd" clip-rule="evenodd" d="M852.684 -682.811C893.312 -609.782 1243.96 -2.02051 1243.96 -2.02051L1118.34 -67.7089L1277.58 310.402L1200.41 230.554L1200.22 533.808L1156.42 486.599L1104.99 744.407L1078.51 396.249L1159.58 388.589L1098.84 141.945L1158.41 150.36L917.167 -147.93L1024.7 -169.188L797.554 -374.751C797.554 -374.751 812.056 -755.839 852.684 -682.811Z" fill="black"/>
<path fill-rule="evenodd" clip-rule="evenodd" d="M866.666 -690.59C907.281 -617.584 1257.82 -10.0169 1257.82 -10.0169C1261.38 -3.85247 1260.44 3.91944 1255.51 9.05532C1250.58 14.1911 1242.86 15.4558 1236.55 12.1574L1150.35 -32.913L1292.33 304.192C1295.32 311.29 1292.83 319.511 1286.4 323.755C1279.97 327.998 1271.43 327.06 1266.08 321.521L1216.38 270.105L1216.22 533.818C1216.22 540.397 1212.19 546.303 1206.06 548.704C1199.94 551.106 1192.97 549.514 1188.49 544.69L1165.99 520.435L1120.68 747.538C1119.12 755.379 1112 760.861 1104.02 760.378C1096.04 759.894 1089.64 753.593 1089.04 745.62L1062.56 397.462C1061.9 388.765 1068.32 381.141 1077.01 380.32L1139.61 374.404L1083.31 145.77C1082.04 140.611 1083.41 135.159 1086.97 131.217C1090.53 127.275 1095.82 125.359 1101.08 126.102L1120.42 128.834L904.726 -137.869C901.202 -142.228 900.214 -148.114 902.126 -153.383C904.036 -158.653 908.565 -162.539 914.064 -163.627L990.34 -178.706L786.818 -362.888C783.309 -366.063 781.386 -370.63 781.566 -375.359C781.566 -375.359 791.575 -623.597 816.532 -684.853C822.225 -698.827 830.557 -705.639 837.156 -707.394C845.411 -709.588 857.224 -707.561 866.666 -690.59ZM852.684 -682.811C812.056 -755.839 797.554 -374.751 797.554 -374.751L1024.7 -169.189L917.167 -147.93L1158.41 150.36L1098.84 141.944L1159.58 388.588L1078.51 396.249L1104.99 744.406L1156.42 486.599L1200.22 533.808L1200.41 230.554L1277.58 310.402L1118.34 -67.7091L1243.96 -2.02079C1243.96 -2.02079 893.312 -609.782 852.684 -682.811Z" fill="#FFBA8B"/>
<path fill-rule="evenodd" clip-rule="evenodd" d="M1654.32 -641.44C1662.85 -558.308 1745.36 138.488 1745.36 138.488L1655.83 28.575L1653.03 438.843L1613.6 335.027L1493.82 613.623L1472.19 552.966L1323.24 769.585L1436.23 439.21L1513.75 464.145L1555.22 213.542L1606.63 244.768L1502.61 -124.49L1609.81 -101.611L1482.16 -380.101C1482.16 -380.101 1645.79 -724.573 1654.32 -641.44Z" fill="black"/>
<path fill-rule="evenodd" clip-rule="evenodd" d="M1670.24 -643.074C1678.77 -559.967 1761.25 136.607 1761.25 136.607C1762.09 143.674 1758.15 150.444 1751.6 153.22C1745.05 155.996 1737.45 154.111 1732.95 148.593L1671.52 73.178L1669.03 438.952C1668.97 446.654 1663.44 453.225 1655.86 454.589C1648.28 455.954 1640.8 451.723 1638.07 444.522L1612.68 377.673L1508.52 619.942C1505.92 625.987 1499.89 629.824 1493.31 629.615C1486.73 629.406 1480.96 625.193 1478.75 618.996L1467.64 587.831L1336.42 778.652C1331.89 785.24 1323.2 787.472 1316.05 783.881C1308.91 780.288 1305.51 771.973 1308.1 764.408L1421.09 434.032C1423.92 425.78 1432.83 421.308 1441.13 423.979L1500.99 443.234L1539.43 210.929C1540.3 205.688 1543.71 201.219 1548.54 199.001C1553.37 196.785 1558.98 197.109 1563.53 199.867L1580.22 210.004L1487.21 -120.151C1485.69 -125.547 1487.1 -131.345 1490.94 -135.434C1494.77 -139.523 1500.46 -141.308 1505.95 -140.138L1581.99 -123.909L1467.61 -373.434C1465.64 -377.736 1465.67 -382.691 1467.7 -386.966C1467.7 -386.966 1574.81 -611.13 1621.91 -657.576C1632.65 -668.172 1642.99 -671.145 1649.75 -670.155C1658.2 -668.915 1668.26 -662.393 1670.24 -643.074ZM1654.32 -641.441C1645.79 -724.573 1482.16 -380.101 1482.16 -380.101L1609.81 -101.611L1502.61 -124.49L1606.63 244.768L1555.22 213.542L1513.75 464.145L1436.23 439.21L1323.24 769.585L1472.19 552.966L1493.82 613.623L1613.6 335.027L1653.03 438.842L1655.83 28.5749L1745.36 138.488C1745.36 138.488 1662.85 -558.308 1654.32 -641.441Z" fill="#FFBA8B"/>
<path fill-rule="evenodd" clip-rule="evenodd" d="M2183.43 -530.978C2177.14 -447.707 2135.07 252.249 2135.07 252.249L2067.38 127.933L1992.7 530.725L1972.61 421.507L1807.39 673.607L1797.03 610.05L1614.35 795.925L1782.05 491.692L1852.97 530.288L1937.21 291.477L1981.67 331.516L1945.39 -50.3751L2045.51 -8.40402L1970.36 -305.361C1970.36 -305.361 2189.73 -614.249 2183.43 -530.978Z" fill="black"/>
<path fill-rule="evenodd" clip-rule="evenodd" d="M2199.39 -529.771C2193.09 -446.526 2151.04 253.209 2151.04 253.209C2150.61 260.334 2145.51 266.314 2138.55 267.866C2131.58 269.419 2124.43 266.169 2121.01 259.901L2074.89 175.187L2008.43 533.641C2007.02 541.228 2000.4 546.73 1992.69 546.724C1984.97 546.719 1978.36 541.208 1976.96 533.619L1964.1 463.685L1820.78 682.378C1817.16 687.896 1810.52 690.629 1804.07 689.259C1797.62 687.888 1792.66 682.696 1791.6 676.183L1786.32 643.775L1625.76 807.141C1620.15 812.843 1611.2 813.533 1604.79 808.757C1598.38 803.98 1596.47 795.204 1600.33 788.201L1768.03 483.968C1772.28 476.26 1781.96 473.43 1789.7 477.639L1844.13 507.26L1922.12 286.155C1923.9 281.113 1928.08 277.292 1933.26 275.973C1938.44 274.653 1943.94 276.009 1947.91 279.587L1961.86 292.146L1929.46 -48.8611C1928.93 -54.4616 1931.38 -59.9292 1935.91 -63.2627C1940.44 -66.5962 1946.39 -67.3057 1951.58 -65.1304L2022.13 -35.5521L1954.85 -301.435C1953.7 -305.98 1954.6 -310.802 1957.31 -314.625C1957.31 -314.625 2100.71 -515.562 2154.62 -552.668C2167.05 -561.225 2177.75 -562.247 2184.21 -560.022C2192.17 -557.276 2200.84 -549.065 2199.39 -529.771ZM2183.43 -530.977C2189.73 -614.248 1970.36 -305.361 1970.36 -305.361L2045.51 -8.40363L1945.39 -50.3747L1981.67 331.516L1937.21 291.478L1852.97 530.289L1782.05 491.692L1614.35 795.925L1797.03 610.05L1807.39 673.607L1972.61 421.508L1992.7 530.725L2067.38 127.934L2135.07 252.249C2135.07 252.249 2177.14 -447.707 2183.43 -530.977Z" fill="#FFBA8B"/>
<path fill-rule="evenodd" clip-rule="evenodd" d="M2734.11 294.725C2687.18 363.795 2302.05 949.783 2302.05 949.783L2305.27 808.27L2039.89 1120.34L2076.87 1015.63L1808.04 1151.93L1830.7 1091.66L1579.71 1161.84L1876.67 981.567L1918.94 1050.36L2110.94 885.244L2129.55 942.111L2288.31 592.894L2354.22 679.157L2436.97 384.227C2436.97 384.227 2781.05 225.655 2734.11 294.725Z" fill="black"/>
<path fill-rule="evenodd" clip-rule="evenodd" d="M2747.35 303.718C2700.43 372.766 2315.42 958.571 2315.42 958.571C2311.5 964.536 2304.1 967.183 2297.29 965.059C2290.47 962.935 2285.89 956.555 2286.05 949.419L2288.25 852.986L2052.07 1130.7C2047.08 1136.58 2038.59 1138.05 2031.91 1134.21C2025.22 1130.36 2022.23 1122.29 2024.8 1115.01L2048.48 1047.96L1815.27 1166.2C1809.39 1169.19 1802.27 1168.25 1797.36 1163.85C1792.44 1159.45 1790.74 1152.48 1793.06 1146.3L1804.62 1115.57L1584.02 1177.25C1576.32 1179.4 1568.21 1175.54 1565.03 1168.21C1561.85 1160.87 1564.58 1152.31 1571.41 1148.16L1868.37 967.89C1875.89 963.322 1885.69 965.69 1890.3 973.191L1922.74 1025.99L2100.51 873.113C2104.56 869.627 2110.09 868.396 2115.24 869.833C2120.39 871.27 2124.48 875.185 2126.15 880.267L2131.98 898.103L2273.75 586.272C2276.08 581.151 2280.92 577.629 2286.51 576.996C2292.1 576.362 2297.61 578.71 2301.03 583.18L2347.48 643.973L2421.57 379.905C2422.83 375.391 2426.02 371.659 2430.28 369.696C2430.28 369.696 2654.71 266.89 2719.93 261.564C2734.97 260.335 2744.76 264.779 2749.25 269.926C2754.8 276.275 2758.22 287.714 2747.35 303.718ZM2734.11 294.725C2781.05 225.655 2436.97 384.227 2436.97 384.227L2354.22 679.157L2288.31 592.894L2129.55 942.111L2110.94 885.244L1918.94 1050.36L1876.67 981.567L1579.71 1161.84L1830.7 1091.66L1808.04 1151.93L2076.87 1015.63L2039.89 1120.34L2305.27 808.27L2302.05 949.783C2302.05 949.783 2687.18 363.795 2734.11 294.725Z" fill="#FFBA8B"/>
<path fill-rule="evenodd" clip-rule="evenodd" d="M2975.75 1358.97C2909.26 1390.7 2355.17 1665.79 2355.17 1665.79L2420.16 1559.08L2078.86 1678.53L2153.47 1615.09L1887.18 1598.67L1931.19 1562.77L1707.79 1503.81L2015.06 1499.25L2017.07 1570.79L2237.19 1530.73L2226.33 1582.54L2502.31 1386.86L2514.72 1482.36L2708.44 1294.07C2708.44 1294.07 3042.24 1327.23 2975.75 1358.97Z" fill="black"/>
<path fill-rule="evenodd" clip-rule="evenodd" d="M2982.64 1373.41C2916.18 1405.13 2362.28 1680.12 2362.28 1680.12C2355.9 1683.29 2348.19 1681.86 2343.38 1676.61C2338.56 1671.35 2337.8 1663.55 2341.5 1657.47L2383.23 1588.96L2084.15 1693.63C2076.87 1696.18 2068.82 1693.18 2064.98 1686.49C2061.15 1679.81 2062.63 1671.34 2068.5 1666.34L2112.86 1628.62L1886.2 1614.64C1879.62 1614.23 1873.97 1609.84 1871.95 1603.57C1869.94 1597.3 1871.97 1590.43 1877.07 1586.27L1896.74 1570.23L1703.71 1519.28C1695.98 1517.24 1690.94 1509.81 1691.91 1501.87C1692.88 1493.93 1699.56 1487.93 1707.55 1487.81L2014.82 1483.25C2023.57 1483.12 2030.81 1490.05 2031.05 1498.8L2032.54 1551.71L2234.32 1514.99C2239.56 1514.03 2244.94 1515.75 2248.65 1519.57C2252.37 1523.38 2253.94 1528.8 2252.85 1534.01L2250.36 1545.89L2493.05 1373.81C2497.63 1370.56 2503.58 1369.95 2508.72 1372.2C2513.86 1374.45 2517.45 1379.23 2518.17 1384.8L2526.47 1448.63L2697.29 1282.6C2700.67 1279.31 2705.33 1277.68 2710.02 1278.15C2710.02 1278.15 2927.96 1300.37 2980.42 1325.62C2993.16 1331.75 2998.89 1340.07 3000.12 1346.35C3001.68 1354.27 2999.27 1365.48 2982.64 1373.41ZM2975.75 1358.97C3042.24 1327.24 2708.44 1294.07 2708.44 1294.07L2514.72 1482.36L2502.31 1386.86L2226.33 1582.54L2237.19 1530.73L2017.07 1570.79L2015.06 1499.25L1707.79 1503.81L1931.19 1562.77L1887.18 1598.67L2153.47 1615.09L2078.86 1678.53L2420.16 1559.08L2355.17 1665.79C2355.17 1665.79 2909.26 1390.7 2975.75 1358.97Z" fill="#FFBA8B"/>
<path fill-rule="evenodd" clip-rule="evenodd" d="M2817.39 2244.44C2743.81 2248.34 2126.64 2290.69 2126.64 2290.69L2227.49 2216.93L1866.46 2196.83L1959.65 2166.73L1719.88 2049.75L1774.26 2033.4L1590.38 1893.51L1876.05 2006.77L1850.55 2073.65L2069.26 2120.78L2039.43 2164.51L2369.24 2089.2L2344.2 2182.19L2595.2 2082.27C2595.2 2082.27 2890.96 2240.54 2817.39 2244.44Z" fill="black"/>
<path fill-rule="evenodd" clip-rule="evenodd" d="M2818.23 2260.41C2744.69 2264.31 2127.74 2306.65 2127.74 2306.65C2120.63 2307.14 2114.06 2302.87 2111.61 2296.17C2109.17 2289.48 2111.45 2281.98 2117.2 2277.77L2181.95 2230.42L1865.57 2212.8C1857.87 2212.37 1851.58 2206.52 1850.59 2198.87C1849.6 2191.23 1854.21 2183.97 1861.54 2181.6L1916.96 2163.7L1712.86 2064.13C1706.94 2061.24 1703.39 2055.02 1703.93 2048.45C1704.46 2041.89 1708.96 2036.32 1715.27 2034.42L1739.58 2027.12L1580.69 1906.24C1574.33 1901.4 1572.51 1892.61 1576.44 1885.64C1580.37 1878.68 1588.84 1875.69 1596.27 1878.64L1881.94 1991.9C1890.08 1995.12 1894.11 2004.29 1891 2012.47L1872.14 2061.93L2072.64 2105.14C2077.84 2106.26 2082.15 2109.9 2084.12 2114.85C2086.1 2119.8 2085.48 2125.4 2082.48 2129.8L2075.64 2139.83L2365.68 2073.61C2371.16 2072.36 2376.88 2074.07 2380.77 2078.11C2384.67 2082.16 2386.15 2087.94 2384.69 2093.36L2367.96 2155.51L2589.28 2067.41C2593.66 2065.66 2598.59 2065.94 2602.75 2068.17C2602.75 2068.17 2795.62 2172.02 2834.45 2215.4C2843.88 2225.94 2845.99 2235.83 2844.73 2242.1C2843.14 2250.01 2836.63 2259.44 2818.23 2260.41ZM2817.39 2244.44C2890.96 2240.54 2595.2 2082.27 2595.2 2082.27L2344.2 2182.19L2369.24 2089.2L2039.43 2164.51L2069.27 2120.78L1850.55 2073.65L1876.05 2006.77L1590.38 1893.51L1774.26 2033.4L1719.88 2049.75L1959.65 2166.73L1866.46 2196.83L2227.49 2216.93L2126.64 2290.69C2126.64 2290.69 2743.81 2248.34 2817.39 2244.44Z" fill="#FFBA8B"/>
<path fill-rule="evenodd" clip-rule="evenodd" d="M2277.75 3048.77C2211.65 3016.23 1652.47 2751.63 1652.47 2751.63L1776.5 2736.56L1471.32 2542.61L1567.33 2561.89L1415.28 2342.66L1470.72 2354.97L1378.63 2143.07L1572.54 2381.47L1517.62 2427.37L1685.42 2575.35L1638.02 2598.93L1962.59 2694.37L1895.3 2763.27L2163.12 2798.72C2163.12 2798.72 2343.85 3081.32 2277.75 3048.77Z" fill="black"/>
<path fill-rule="evenodd" clip-rule="evenodd" d="M2270.68 3063.13C2204.61 3030.59 1645.63 2766.1 1645.63 2766.1C1639.19 2763.05 1635.54 2756.11 1636.68 2749.08C1637.81 2742.04 1643.47 2736.61 1650.54 2735.75L1730.17 2726.07L1462.73 2556.12C1456.23 2551.98 1453.6 2543.8 1456.47 2536.65C1459.34 2529.5 1466.91 2525.41 1474.47 2526.93L1531.56 2538.39L1402.13 2351.78C1398.38 2346.37 1398.33 2339.21 1402 2333.74C1405.67 2328.28 1412.32 2325.62 1418.75 2327.04L1443.53 2332.55L1363.95 2149.45C1360.77 2142.12 1363.48 2133.56 1370.32 2129.4C1377.15 2125.25 1386 2126.77 1391.04 2132.98L1584.95 2371.37C1590.48 2378.17 1589.52 2388.13 1582.8 2393.75L1542.18 2427.69L1696 2563.35C1700 2566.88 1701.98 2572.16 1701.28 2577.44C1700.59 2582.72 1697.31 2587.31 1692.55 2589.68L1681.67 2595.09L1967.1 2679.02C1972.48 2680.6 1976.65 2684.89 1978.06 2690.32C1979.48 2695.75 1977.95 2701.53 1974.03 2705.55L1929.06 2751.6L2165.22 2782.86C2169.89 2783.48 2174.06 2786.13 2176.6 2790.1C2176.6 2790.1 2294.14 2974.95 2306.82 3031.78C2309.9 3045.58 2306.91 3055.23 2302.75 3060.09C2297.5 3066.22 2287.21 3071.26 2270.68 3063.13ZM2277.75 3048.77C2343.85 3081.32 2163.12 2798.72 2163.12 2798.72L1895.3 2763.27L1962.59 2694.37L1638.02 2598.93L1685.42 2575.35L1517.62 2427.37L1572.54 2381.47L1378.63 2143.07L1470.72 2354.97L1415.28 2342.66L1567.33 2561.89L1471.32 2542.61L1776.5 2736.56L1652.47 2751.63C1652.47 2751.63 2211.65 3016.23 2277.75 3048.77Z" fill="#FFBA8B"/>
<path fill-rule="evenodd" clip-rule="evenodd" d="M1492.25 3151.36C1449.13 3105.55 1081.05 2726.66 1081.05 2726.66L1184.95 2751.19L999.006 2504.45L1070.1 2548.4L1014.45 2326.57L1055.14 2352.9L1045.31 2154.72L1128.71 2404.4L1070.87 2425.18L1160.63 2594.2L1115.55 2599.2L1346.73 2772.22L1272.05 2807.89L1475.88 2915.73C1475.88 2915.73 1535.38 3197.17 1492.25 3151.36Z" fill="black"/>
<path fill-rule="evenodd" clip-rule="evenodd" d="M1480.61 3162.32C1437.5 3116.53 1069.57 2737.81 1069.57 2737.81C1064.62 2732.71 1063.62 2724.95 1067.13 2718.77C1070.64 2712.58 1077.81 2709.45 1084.73 2711.09L1145.51 2725.44L986.228 2514.08C981.595 2507.93 981.997 2499.35 987.184 2493.66C992.371 2487.98 1000.87 2486.79 1007.42 2490.84L1044.99 2514.07L998.93 2330.46C997.331 2324.09 999.793 2317.38 1005.14 2313.56C1010.48 2309.73 1017.62 2309.57 1023.14 2313.14L1037.62 2322.5L1029.33 2155.51C1028.93 2147.52 1034.49 2140.47 1042.35 2138.99C1050.21 2137.52 1057.95 2142.06 1060.49 2149.65L1143.88 2399.33C1146.64 2407.58 1142.3 2416.52 1134.12 2419.46L1093.67 2433.99L1174.76 2586.7C1177.25 2591.38 1177.25 2596.99 1174.78 2601.68C1172.3 2606.37 1167.66 2609.52 1162.39 2610.11L1157.55 2610.64L1356.32 2759.41C1360.8 2762.76 1363.2 2768.22 1362.66 2773.79C1362.1 2779.36 1358.68 2784.24 1353.63 2786.65L1307.64 2808.62L1483.36 2901.58C1487.56 2903.8 1490.55 2907.77 1491.53 2912.42C1491.53 2912.42 1529.97 3096.92 1522.96 3146.67C1521.13 3159.63 1515.26 3166.96 1510.09 3169.85C1503.39 3173.6 1492.54 3175 1480.61 3162.32ZM1492.25 3151.36C1535.38 3197.17 1475.88 2915.73 1475.88 2915.73L1272.05 2807.89L1346.73 2772.22L1115.55 2599.2L1160.63 2594.2L1070.87 2425.18L1128.71 2404.4L1045.31 2154.72L1055.14 2352.9L1014.45 2326.57L1070.1 2548.4L999.006 2504.45L1184.95 2751.19L1081.05 2726.66C1081.05 2726.66 1449.13 3105.55 1492.25 3151.36Z" fill="#FFBA8B"/>
<path fill-rule="evenodd" clip-rule="evenodd" d="M625.008 3021.8C606.318 2970.57 441.765 2544.07 441.765 2544.07L522.584 2591.47L462.538 2327L506.509 2383.5L550.251 2173.29L574.932 2206.67L648.963 2028.73L617.921 2270.46L558.572 2274.56L566.742 2446.43L525.155 2439.71L655.595 2650.07L575.272 2663.21L708.922 2809.08C708.922 2809.08 643.699 3073.02 625.008 3021.8Z" fill="black"/>
<path fill-rule="evenodd" clip-rule="evenodd" d="M609.978 3027.28C591.299 2976.08 426.838 2549.83 426.838 2549.83C424.389 2543.48 426.222 2536.28 431.406 2531.87C436.59 2527.47 443.993 2526.82 449.86 2530.26L498.798 2558.97L446.935 2330.54C445.275 2323.23 448.914 2315.75 455.69 2312.54C462.465 2309.33 470.56 2311.26 475.165 2317.17L497.892 2346.38L534.587 2170.03C535.872 2163.86 540.665 2159.01 546.826 2157.66C552.987 2156.31 559.366 2158.71 563.117 2163.78L571.007 2174.45L634.191 2022.58C637.269 2015.18 645.349 2011.2 653.092 2013.27C660.836 2015.34 665.854 2022.82 664.833 2030.77L633.791 2272.5C632.819 2280.06 626.638 2285.89 619.025 2286.42L575.298 2289.44L582.724 2445.67C582.953 2450.49 580.997 2455.15 577.401 2458.37C573.804 2461.58 568.951 2463 564.19 2462.23L557.247 2461.11L669.193 2641.64C672.01 2646.18 672.372 2651.83 670.16 2656.7C667.947 2661.56 663.452 2665 658.178 2665.86L607.064 2674.22L720.719 2798.27C724.338 2802.22 725.739 2807.72 724.455 2812.92C724.455 2812.92 681.294 2985.62 654.418 3027.93C649.614 3035.49 644.511 3040.03 640.417 3042.09C635.944 3044.35 631.602 3044.81 627.538 3044.09C621.675 3043.05 614.289 3039.1 609.978 3027.28ZM625.009 3021.8C643.699 3073.02 708.922 2809.08 708.922 2809.08L575.272 2663.21L655.595 2650.07L525.155 2439.71L566.742 2446.43L558.573 2274.56L617.921 2270.46L648.963 2028.73L574.932 2206.67L550.251 2173.29L506.509 2383.5L462.538 2327L522.585 2591.47L441.766 2544.07C441.766 2544.07 606.318 2970.57 625.009 3021.8Z" fill="#FFBA8B"/>
<path fill-rule="evenodd" clip-rule="evenodd" d="M-69.5325 2618.17C-67.9442 2563.66 -63.025 2106.54 -63.025 2106.54L-5.47907 2180.48L36.5809 1912.56L56.5299 1981.32L174.938 1802.21L185.519 1842.35L320.131 1704.43L201.858 1917.52L145.203 1899.37L89.2049 2062.07L53.0549 2040.44L96.4123 2284.14L16.9294 2266.62L87.1268 2451.59C87.1268 2451.59 -71.1208 2672.67 -69.5325 2618.17Z" fill="black"/>
<path fill-rule="evenodd" clip-rule="evenodd" d="M-85.5251 2617.7C-83.9378 2563.23 -79.0243 2106.37 -79.0243 2106.37C-78.951 2099.57 -74.5843 2093.55 -68.1388 2091.38C-61.6925 2089.21 -54.5765 2091.34 -50.3984 2096.71L-15.5531 2141.49L20.7752 1910.08C21.9375 1902.68 28.0867 1897.07 35.569 1896.6C43.0508 1896.12 49.8586 1900.91 51.9479 1908.11L62.2584 1943.64L161.592 1793.39C165.07 1788.13 171.315 1785.4 177.538 1786.43C183.762 1787.45 188.802 1792.04 190.41 1798.14L193.793 1810.97L308.681 1693.25C314.278 1687.52 323.257 1686.81 329.686 1691.6C336.115 1696.38 338.01 1705.19 334.12 1712.19L215.848 1925.28C212.145 1931.96 204.246 1935.09 196.978 1932.76L155.236 1919.39L104.334 2067.28C102.764 2071.84 99.2222 2075.45 94.6926 2077.1C90.1621 2078.76 85.1285 2078.28 80.99 2075.8L74.9548 2072.19L112.165 2281.33C113.101 2286.59 111.348 2291.98 107.493 2295.68C103.637 2299.38 98.1886 2300.91 92.9694 2299.76L42.3901 2288.62L102.085 2445.91C103.986 2450.92 103.255 2456.55 100.137 2460.9C100.137 2460.9 -3.85688 2605.38 -44.4772 2634.74C-51.7373 2639.99 -58.1597 2642.32 -62.726 2642.73C-67.7163 2643.16 -71.9217 2641.99 -75.4304 2639.82C-80.4929 2636.68 -85.8917 2630.27 -85.5251 2617.7ZM-69.5324 2618.17C-71.1206 2672.67 87.1269 2451.59 87.1269 2451.59L16.9295 2266.62L96.4125 2284.14L53.055 2040.44L89.205 2062.07L145.203 1899.37L201.858 1917.52L320.131 1704.43L185.52 1842.35L174.938 1802.21L56.53 1981.32L36.5811 1912.56L-5.47893 2180.48L-63.0249 2106.54C-63.0249 2106.54 -67.9441 2563.66 -69.5324 2618.17Z" fill="#FFBA8B"/>
<path fill-rule="evenodd" clip-rule="evenodd" d="M-335.186 1720.25C-303.384 1675.96 -43.6417 1299.77 -43.6417 1299.77L-37.2924 1393.25L147.418 1194.68L125.5 1262.83L323.83 1180.58L310.152 1219.77L498.881 1180.73L281.656 1291.22L244.839 1244.49L107.422 1348.05L89.5522 1309.9L-10.8006 1536.16L-66.8938 1477.19L-112.154 1669.78C-112.154 1669.78 -366.988 1764.55 -335.186 1720.25Z" fill="black"/>
<path fill-rule="evenodd" clip-rule="evenodd" d="M-348.182 1710.92C-316.399 1666.65 -56.8083 1290.68 -56.8083 1290.68C-52.943 1285.08 -45.9606 1282.54 -39.4015 1284.34C-32.8419 1286.14 -28.1393 1291.9 -27.6784 1298.68L-23.8338 1355.29L135.704 1183.78C140.81 1178.29 149.042 1177.08 155.51 1180.87C161.978 1184.66 164.946 1192.44 162.651 1199.57L151.322 1234.8L317.702 1165.8C323.527 1163.39 330.23 1164.62 334.815 1168.95C339.401 1173.28 341.015 1179.9 338.937 1185.85L334.564 1198.38L495.64 1165.06C503.488 1163.43 511.328 1167.87 513.98 1175.43C516.632 1182.99 513.28 1191.35 506.135 1194.99L288.911 1305.48C282.109 1308.94 273.812 1307.12 269.089 1301.12L241.963 1266.7L117.051 1360.83C113.2 1363.73 108.246 1364.74 103.566 1363.58C98.885 1362.41 94.9794 1359.2 92.9335 1354.83L89.9503 1348.47L3.82519 1542.65C1.65895 1547.53 -2.80461 1551.01 -8.07035 1551.93C-13.337 1552.84 -18.7103 1551.06 -22.3937 1547.19L-58.089 1509.66L-96.578 1673.44C-97.8028 1678.66 -101.557 1682.91 -106.576 1684.78C-106.576 1684.78 -273.593 1746.39 -323.685 1748.01C-332.638 1748.29 -339.268 1746.64 -343.278 1744.42C-347.66 1741.99 -350.489 1738.66 -352.182 1734.9C-354.626 1729.47 -355.518 1721.14 -348.182 1710.92ZM-335.186 1720.25C-366.987 1764.55 -112.153 1669.78 -112.153 1669.78L-66.8936 1477.19L-10.8004 1536.16L89.5524 1309.9L107.423 1348.05L244.839 1244.49L281.656 1291.22L498.881 1180.73L310.152 1219.77L323.83 1180.58L125.5 1262.83L147.419 1194.68L-37.2922 1393.25L-43.6415 1299.77C-43.6415 1299.77 -303.384 1675.96 -335.186 1720.25Z" fill="#FFBA8B"/>
<path fill-rule="evenodd" clip-rule="evenodd" d="M-364.943 962.225C-315.42 940.222 96.0994 748.034 96.0994 748.034L55.9969 832.307L314.956 755.381L262.442 803.15L476.513 834.036L445.374 860.952L629.921 924.328L385.483 908.187L376.033 848.731L204.96 867.681L207.93 825.419L9.40383 969.791L-10.9653 889.796L-144.739 1033.37C-144.739 1033.37 -414.466 984.228 -364.943 962.225Z" fill="black"/>
<path fill-rule="evenodd" clip-rule="evenodd" d="M-371.439 947.603C-321.945 925.613 89.3284 733.536 89.3284 733.536C95.4455 730.68 102.697 731.97 107.453 736.761C112.209 741.552 113.448 748.812 110.547 754.909L85.8828 806.738L310.4 740.044C317.554 737.919 325.228 741.022 328.894 747.523C332.559 754.024 331.243 762.195 325.722 767.218L298.304 792.158L478.799 818.2C485 819.095 490.109 823.528 491.869 829.542C493.629 835.555 491.717 842.044 486.976 846.141L476.891 854.858L635.117 909.195C642.703 911.8 647.188 919.618 645.607 927.48C644.027 935.343 636.869 940.821 628.867 940.293L384.429 924.152C376.976 923.66 370.855 918.076 369.682 910.698L362.626 866.314L206.721 883.583C202.004 884.106 197.298 882.507 193.876 879.219C190.453 875.931 188.667 871.293 188.999 866.559L189.561 858.559L18.8141 982.731C14.5224 985.852 8.9632 986.642 3.97239 984.841C-1.0189 983.04 -4.79258 978.881 -6.10135 973.739L-19.2386 922.147L-133.033 1044.28C-136.75 1048.27 -142.243 1050.09 -147.607 1049.11C-147.607 1049.11 -324.037 1016.51 -368.723 992.118C-376.566 987.837 -381.486 983.099 -383.872 979.183C-386.47 974.92 -387.288 970.665 -386.942 966.623C-386.423 960.552 -383.067 952.769 -371.439 947.603ZM-364.943 962.224C-414.466 984.227 -144.739 1033.37 -144.739 1033.37L-10.9656 889.796L9.40361 969.791L207.929 825.419L204.96 867.68L376.032 848.73L385.483 908.187L629.921 924.327L445.373 860.952L476.513 834.036L262.442 803.15L314.956 755.381L55.9966 832.307L96.0991 748.034C96.0991 748.034 -315.42 940.222 -364.943 962.224Z" fill="#FFBA8B"/>
<path fill-rule="evenodd" clip-rule="evenodd" d="M-442.001 501.847C-410.121 492.767 -146.654 410.199 -146.654 410.199L-162.202 468.088L10.391 449.6L-19.639 477.811L137.633 534.372L119.608 550.029L260.868 626.734L84.2414 576.695L68.323 530.022L-50.6184 518.002L-55.0324 486.324L-174.153 565.437L-201.023 501.459L-274.139 589.971C-274.139 589.971 -473.88 510.928 -442.001 501.847Z" fill="black"/>
<path fill-rule="evenodd" clip-rule="evenodd" d="M-446.384 486.459C-414.547 477.391 -151.439 394.931 -151.439 394.931C-145.869 393.185 -139.789 394.613 -135.577 398.654C-131.364 402.696 -129.688 408.711 -131.202 414.349L-140.695 449.693L8.68672 433.691C15.523 432.959 22.0624 436.676 24.9315 442.924C27.8001 449.172 26.357 456.554 21.3457 461.261L10.3486 471.592L143.048 519.316C148.392 521.238 152.316 525.848 153.361 531.429C154.405 537.011 152.413 542.728 148.126 546.452L147.52 546.978L268.504 612.674C275.668 616.564 278.762 625.219 275.687 632.769C272.611 640.319 264.351 644.351 256.508 642.129L79.8805 592.089C74.8247 590.657 70.7941 586.833 69.098 581.86L56.4952 544.908L-52.2273 533.92C-59.5663 533.179 -65.4472 527.516 -66.4654 520.21L-67.369 513.724L-165.301 578.766C-169.274 581.404 -174.217 582.132 -178.782 580.753C-183.347 579.373 -187.058 576.03 -188.905 571.633L-205.533 532.041L-261.803 600.161C-266.22 605.507 -273.578 607.4 -280.027 604.848C-280.027 604.848 -410.524 552.938 -446.089 527.515C-453.245 522.4 -457.51 517.382 -459.3 513.797C-462.018 508.351 -461.92 503.384 -460.512 499.152C-458.937 494.421 -455.287 488.995 -446.384 486.459ZM-442.001 501.847C-473.881 510.928 -274.139 589.971 -274.139 589.971L-201.023 501.459L-174.153 565.437L-55.0325 486.323L-50.6186 518.002L68.3229 530.022L84.2413 576.695L260.868 626.734L119.608 550.029L137.633 534.372L-19.6391 477.811L10.3908 449.6L-162.203 468.088L-146.654 410.199C-146.654 410.199 -410.121 492.767 -442.001 501.847Z" fill="#FFBA8B"/>
<path fill-rule="evenodd" clip-rule="evenodd" d="M107.324 -156.106C138.552 -144.987 400.996 -59.2256 400.996 -59.2256L354.724 -21.1238L505.976 64.0418L465.146 69.5729L560.346 206.943L536.58 209.224L607.047 353.697L492.302 210.398L506.443 163.156L416.587 84.3056L431.388 55.9517L288.467 51.1936L303.741 -16.4962L192.818 13.1105C192.818 13.1105 76.0963 -167.224 107.324 -156.106Z" fill="black"/>
<path fill-rule="evenodd" clip-rule="evenodd" d="M112.69 -171.178C143.876 -160.075 405.965 -74.4339 405.965 -74.4339C411.514 -72.6209 415.635 -67.9287 416.718 -62.1924C417.801 -56.4555 415.673 -50.585 411.166 -46.8742L382.916 -23.6113L513.826 50.1007C519.817 53.4739 522.982 60.2973 521.69 67.0502C520.398 73.8025 514.936 78.975 508.123 79.8974L493.171 81.9226L573.497 197.83C576.732 202.498 577.25 208.529 574.859 213.68C572.469 218.831 567.527 222.328 561.875 222.871L561.076 222.947L621.428 346.684C625.002 354.011 622.495 362.854 615.607 367.215C608.719 371.576 599.654 370.062 594.558 363.698L479.813 220.399C476.529 216.297 475.467 210.844 476.974 205.81L488.17 168.408L406.034 96.3318C400.489 91.4669 398.989 83.4415 402.403 76.9022L405.433 71.0968L287.935 67.1853C283.169 67.0266 278.721 64.7495 275.806 60.9756C272.89 57.2017 271.81 52.3245 272.86 47.6723L282.311 5.7841L196.945 28.5693C190.244 30.3577 183.155 27.626 179.387 21.8043C179.387 21.8043 103.284 -96.2326 89.0907 -137.582C86.2348 -145.901 85.676 -152.463 86.3009 -156.421C87.2501 -162.434 90.214 -166.421 93.818 -169.048C97.8469 -171.986 103.97 -174.284 112.69 -171.178ZM107.324 -156.105C76.0961 -167.224 192.818 13.1108 192.818 13.1108L303.741 -16.4959L288.467 51.1939L431.387 55.952L416.587 84.3059L506.443 163.156L492.302 210.398L607.047 353.697L536.58 209.224L560.346 206.944L465.146 69.5732L505.976 64.0421L354.724 -21.1235L400.996 -59.2253C400.996 -59.2253 138.552 -144.987 107.324 -156.105Z" fill="#FFBA8B"/>
<path fill-rule="evenodd" clip-rule="evenodd" d="M2699.19 2001.63C2666.85 2008.93 2399.21 2076.73 2399.21 2076.73L2417.95 2019.8L2244.59 2028.67L2276.14 2002.17L2122.26 1936.96L2141.12 1922.33L2004.34 1837.9L2177.92 1897.67L2191.22 1945.15L2309.31 1963.76L2311.96 1995.64L2435.29 1923.26L2458.56 1988.63L2536.48 1904.32C2536.48 1904.32 2731.52 1994.33 2699.19 2001.63Z" fill="black"/>
<path fill-rule="evenodd" clip-rule="evenodd" d="M2702.71 2017.24C2670.42 2024.52 2403.14 2092.24 2403.14 2092.24C2397.48 2093.68 2391.49 2091.91 2387.51 2087.64C2383.53 2083.37 2382.19 2077.28 2384.01 2071.73L2395.45 2036.97L2245.41 2044.65C2238.55 2045 2232.22 2040.93 2229.71 2034.53C2227.19 2028.13 2229.04 2020.84 2234.3 2016.42L2245.86 2006.71L2116.01 1951.69C2110.78 1949.48 2107.12 1944.66 2106.39 1939.03C2105.66 1933.4 2107.96 1927.8 2112.45 1924.32L2113.09 1923.83L1995.94 1851.51C1989 1847.23 1986.39 1838.42 1989.88 1831.05C1993.37 1823.68 2001.84 1820.11 2009.55 1822.77L2183.13 1882.54C2188.09 1884.25 2191.91 1888.29 2193.32 1893.35L2203.85 1930.95L2311.8 1947.96C2319.09 1949.11 2324.64 1955.09 2325.25 1962.44L2325.8 1968.96L2427.19 1909.46C2431.3 1907.05 2436.28 1906.6 2440.76 1908.23C2445.24 1909.86 2448.76 1913.4 2450.36 1917.89L2464.76 1958.35L2524.73 1893.46C2529.44 1888.37 2536.89 1886.89 2543.19 1889.79C2543.19 1889.79 2670.6 1948.87 2704.7 1976.23C2711.56 1981.73 2715.54 1986.98 2717.13 1990.66C2719.54 1996.25 2719.16 2001.2 2717.52 2005.35C2715.69 2009.99 2711.74 2015.2 2702.71 2017.24ZM2699.19 2001.63C2731.52 1994.33 2536.48 1904.32 2536.48 1904.32L2458.56 1988.63L2435.29 1923.26L2311.96 1995.64L2309.31 1963.76L2191.22 1945.15L2177.92 1897.67L2004.34 1837.9L2141.12 1922.33L2122.26 1936.96L2276.14 2002.17L2244.59 2028.67L2417.95 2019.8L2399.21 2076.73C2399.21 2076.73 2666.85 2008.93 2699.19 2001.63Z" fill="#FFBA8B"/>
<path fill-rule="evenodd" clip-rule="evenodd" d="M2494.62 2613.26C2461.59 2616.11 2187.23 2647.03 2187.23 2647.03L2213.51 2593.16L2040.55 2578.46L2075.4 2556.48L1931.77 2471.02L1952.44 2459.08L1828.36 2356.9L1992.24 2439.64L1998.98 2488.48L2113.46 2522.92L2111.77 2554.86L2243.77 2499.86L2257.97 2567.78L2346.6 2494.8C2346.6 2494.8 2527.64 2610.41 2494.62 2613.26Z" fill="black"/>
<path fill-rule="evenodd" clip-rule="evenodd" d="M2495.99 2629.2C2463.01 2632.05 2189.02 2662.93 2189.02 2662.93C2183.22 2663.58 2177.52 2661.02 2174.16 2656.25C2170.79 2651.48 2170.29 2645.26 2172.85 2640.01L2188.89 2607.12L2039.2 2594.4C2032.35 2593.82 2026.63 2588.93 2025.01 2582.25C2023.38 2575.57 2026.2 2568.6 2032.02 2564.93L2044.78 2556.88L1923.59 2484.77C1918.71 2481.87 1915.73 2476.6 1915.77 2470.92C1915.8 2465.24 1918.85 2460.01 1923.77 2457.17L1924.46 2456.77L1818.19 2369.25C1811.9 2364.07 1810.51 2354.98 1814.96 2348.15C1819.42 2341.33 1828.29 2338.94 1835.57 2342.62L1999.45 2425.35C2004.14 2427.72 2007.37 2432.24 2008.09 2437.45L2013.43 2476.12L2118.07 2507.6C2125.14 2509.72 2129.83 2516.4 2129.44 2523.77L2129.09 2530.31L2237.61 2485.09C2242.02 2483.26 2247.01 2483.48 2251.23 2485.71C2255.45 2487.93 2258.45 2491.92 2259.43 2496.59L2268.22 2538.62L2336.42 2482.45C2341.78 2478.04 2349.36 2477.59 2355.21 2481.32C2355.21 2481.32 2473.44 2557.11 2503.52 2588.84C2509.57 2595.22 2512.8 2600.96 2513.88 2604.82C2515.51 2610.69 2514.47 2615.54 2512.28 2619.43C2509.83 2623.77 2505.22 2628.41 2495.99 2629.2ZM2494.62 2613.26C2527.64 2610.41 2346.6 2494.8 2346.6 2494.8L2257.97 2567.78L2243.77 2499.86L2111.77 2554.86L2113.46 2522.92L1998.98 2488.48L1992.24 2439.64L1828.36 2356.9L1952.44 2459.08L1931.77 2471.02L2075.4 2556.48L2040.55 2578.46L2213.51 2593.16L2187.23 2647.03C2187.23 2647.03 2461.59 2616.11 2494.62 2613.26Z" fill="#FFBA8B"/>
<path fill-rule="evenodd" clip-rule="evenodd" d="M2042.42 2899.85C2009.39 2902.7 1735.03 2933.62 1735.03 2933.62L1761.31 2879.75L1588.35 2865.05L1623.2 2843.07L1479.57 2757.62L1500.24 2745.67L1376.16 2643.49L1540.04 2726.23L1546.78 2775.08L1661.26 2809.51L1659.57 2841.45L1791.57 2786.45L1805.77 2854.37L1894.39 2781.39C1894.39 2781.39 2075.44 2897 2042.42 2899.85Z" fill="black"/>
<path fill-rule="evenodd" clip-rule="evenodd" d="M2043.79 2915.79C2010.81 2918.64 1736.82 2949.52 1736.82 2949.52C1731.02 2950.17 1725.32 2947.61 1721.96 2942.85C1718.59 2938.08 1718.09 2931.85 1720.65 2926.6L1736.69 2893.71L1587 2881C1580.15 2880.41 1574.43 2875.52 1572.81 2868.84C1571.18 2862.16 1574 2855.19 1579.82 2851.52L1592.58 2843.47L1471.39 2771.37C1466.51 2768.46 1463.53 2763.19 1463.57 2757.51C1463.6 2751.83 1466.65 2746.6 1471.57 2743.76L1472.26 2743.36L1365.99 2655.84C1359.7 2650.66 1358.31 2641.57 1362.76 2634.74C1367.22 2627.92 1376.09 2625.53 1383.37 2629.21L1547.25 2711.94C1551.94 2714.31 1555.17 2718.83 1555.89 2724.04L1561.23 2762.71L1665.87 2794.19C1672.94 2796.31 1677.63 2802.99 1677.24 2810.36L1676.89 2816.9L1785.41 2771.68C1789.82 2769.85 1794.81 2770.07 1799.03 2772.3C1803.25 2774.52 1806.25 2778.51 1807.23 2783.18L1816.02 2825.21L1884.22 2769.04C1889.58 2764.63 1897.16 2764.18 1903.01 2767.91C1903.01 2767.91 2021.24 2843.7 2051.32 2875.43C2057.37 2881.81 2060.6 2887.55 2061.68 2891.41C2063.31 2897.28 2062.27 2902.13 2060.08 2906.02C2057.63 2910.36 2053.02 2915 2043.79 2915.79ZM2042.42 2899.85C2075.44 2897 1894.4 2781.39 1894.4 2781.39L1805.77 2854.37L1791.57 2786.45L1659.57 2841.45L1661.26 2809.51L1546.78 2775.08L1540.04 2726.23L1376.16 2643.49L1500.24 2745.68L1479.57 2757.62L1623.2 2843.07L1588.35 2865.05L1761.31 2879.75L1735.03 2933.62C1735.03 2933.62 2009.39 2902.7 2042.42 2899.85Z" fill="#FFBA8B"/>
</g>
<defs>
<clipPath id="clip0_593_2889">
<rect width="2160" height="2700" fill="white"/>
</clipPath>
</defs>
</svg>
