<svg width="2160" height="2700" viewBox="0 0 2160 2700" fill="none" xmlns="http://www.w3.org/2000/svg">
<path d="M1104.86 2142.78C1418.32 2142.78 1672.42 1861.85 1672.42 1515.3C1672.42 1168.76 1418.32 887.826 1104.86 887.826C791.41 887.826 537.305 1168.76 537.305 1515.3C537.305 1861.85 791.41 2142.78 1104.86 2142.78Z" fill="#777777" stroke="#8D8D8D" stroke-width="1.99277" stroke-miterlimit="1.5" stroke-linecap="round" stroke-linejoin="round"/>
<path d="M558.148 1722.07L1054.38 1643.6L1064.15 1610.37L1103.15 1609.73L1108.62 1640.65L1613.5 1709.77" stroke="black" stroke-width="7" stroke-miterlimit="1.5" stroke-linecap="round" stroke-linejoin="round"/>
<path d="M552.258 1854.32L1048.49 1775.85L1058.26 1742.62L1097.26 1741.98L1102.73 1772.9L1607.61 1842.02" stroke="black" stroke-width="7" stroke-miterlimit="1.5" stroke-linecap="round" stroke-linejoin="round"/>
<path d="M556.496 1992.98L1052.73 1914.51L1062.5 1881.28L1101.5 1880.64L1106.97 1911.56L1611.85 1980.68" stroke="black" stroke-width="7" stroke-miterlimit="1.5" stroke-linecap="round" stroke-linejoin="round"/>
<path d="M1216.98 1407.97H947.102V1548.99H1216.98V1407.97Z" fill="black" fill-opacity="0.3" stroke="black" stroke-width="4.29187" stroke-miterlimit="1.5" stroke-linecap="round" stroke-linejoin="round"/>
<path d="M1202.81 1423.28H960.254V1440.23H1202.81V1423.28Z" fill="black" stroke="black" stroke-width="1.41056" stroke-miterlimit="1.5" stroke-linecap="round" stroke-linejoin="round"/>
<path d="M1204.34 1453.75H961.781V1470.69H1204.34V1453.75Z" fill="black" stroke="black" stroke-width="1.41056" stroke-miterlimit="1.5" stroke-linecap="round" stroke-linejoin="round"/>
<path d="M1205.23 1484.97H962.676V1501.91H1205.23V1484.97Z" fill="black" stroke="black" stroke-width="1.41056" stroke-miterlimit="1.5" stroke-linecap="round" stroke-linejoin="round"/>
<path d="M1205.52 1517.11H962.969V1534.06H1205.52V1517.11Z" fill="black" stroke="black" stroke-width="1.41056" stroke-miterlimit="1.5" stroke-linecap="round" stroke-linejoin="round"/>
<path fill-rule="evenodd" clip-rule="evenodd" d="M1219.67 1167.83L1182.8 1167.95L1189.4 1144.81L1150.67 1166.54L1147.54 1228.25L1143.24 1165.46L1105.31 1140.9L1108.51 1168.21L920.762 1167.83V1311.44L1139.09 1311.2L1146.86 1334.22L1155.43 1310.6L1219.67 1311.44V1167.83Z" fill="#FF7418"/>
<path fill-rule="evenodd" clip-rule="evenodd" d="M1147.15 1164.64C1147.51 1163.99 1148.04 1163.43 1148.72 1163.05L1187.45 1141.32C1188.86 1140.53 1190.61 1140.67 1191.89 1141.67C1193.16 1142.68 1193.7 1144.35 1193.25 1145.91L1188.11 1163.93L1219.66 1163.83C1220.72 1163.83 1221.74 1164.25 1222.5 1165C1223.25 1165.75 1223.67 1166.77 1223.67 1167.83V1311.44C1223.67 1312.51 1223.24 1313.54 1222.48 1314.29C1221.72 1315.04 1220.69 1315.46 1219.62 1315.44L1158.22 1314.64L1150.62 1335.59C1150.04 1337.18 1148.51 1338.24 1146.81 1338.22C1145.11 1338.2 1143.61 1337.11 1143.07 1335.5L1136.22 1315.21L920.766 1315.44C919.705 1315.44 918.686 1315.02 917.935 1314.27C917.184 1313.52 916.762 1312.51 916.762 1311.44V1167.83C916.762 1166.77 917.184 1165.75 917.936 1165C918.688 1164.25 919.708 1163.83 920.77 1163.83L1104.01 1164.21L1101.34 1141.36C1101.16 1139.82 1101.88 1138.32 1103.2 1137.5C1104.52 1136.68 1106.19 1136.7 1107.49 1137.54L1145.41 1162.11C1146.31 1162.69 1146.93 1163.61 1147.15 1164.64ZM1219.67 1167.83L1182.8 1167.95L1189.4 1144.81L1150.67 1166.54L1147.54 1228.25L1143.24 1165.46L1105.31 1140.9L1108.51 1168.21L920.762 1167.83V1311.44L1139.09 1311.2L1146.86 1334.22L1155.43 1310.6L1219.67 1311.44V1167.83Z" fill="black"/>
<path d="M936.23 1189.33H949.524L976.827 1242L966.871 1189.33H980.291V1289.2H966.871L939.731 1233.46L949.619 1289.2H936.23V1189.33Z" fill="#F8F7E9"/>
<path d="M986.581 1189.33H1002.26L1010.73 1245.96L1018.35 1189.33H1033.88L1019.55 1237.7L1035.23 1289.2H1019.23L1010.73 1245.96L1001.04 1289.2H985.133L1001.04 1237.15L986.581 1189.33Z" fill="#F8F7E9"/>
<path d="M1036.58 1189.33H1079.85L1079.24 1239.1H1064.72L1065.33 1289.2H1051.1L1050.49 1239.1H1035.97L1036.58 1189.33Z" fill="#F8F7E9"/>
<path d="M1086.3 1189.33H1100.53L1100.54 1240.58H1122.76L1122.75 1289.2H1086.3V1189.33Z" fill="#F8F7E9"/>
<path d="M1113.29 1156.58L1134.96 1170.49L1147.58 1261.07L1159.18 1170.73L1178.05 1161.47L1146.84 1320.96L1113.29 1156.58Z" fill="#F8F7E9"/>
<path d="M1176.02 1189.33H1190.26L1189.79 1244.83H1212.01L1212.48 1289.2H1176.02V1189.33Z" fill="#F8F7E9"/>
<path d="M1607.83 1334.67H547.293V1385.19H1607.83V1334.67Z" fill="#FF8B3E" stroke="black" stroke-width="7.91677" stroke-miterlimit="1.5" stroke-linecap="round" stroke-linejoin="round"/>
<path fill-rule="evenodd" clip-rule="evenodd" d="M749.137 1789.51L658.353 1782.91L577.105 1350.62L622.353 1175.74L731.376 1227.76L826.236 1773.51L749.137 1789.51Z" fill="black" fill-opacity="0.4"/>
<path fill-rule="evenodd" clip-rule="evenodd" d="M860.244 1041.39L825.784 1034.77L599.735 1099.38L770.352 1865.76C770.352 1865.76 1021.22 1896.2 1030.86 1807.77C1045.84 1670.37 860.244 1041.39 860.244 1041.39Z" fill="#292929" stroke="black" stroke-width="6" stroke-miterlimit="1.5" stroke-linecap="round" stroke-linejoin="round"/>
<path fill-rule="evenodd" clip-rule="evenodd" d="M1024.91 1713.72L755.208 1785.18L738.591 1733.24L1015.29 1667.05L1024.91 1713.72Z" fill="#BABABA"/>
<path fill-rule="evenodd" clip-rule="evenodd" d="M804.214 1842.29L857.583 1821.65L870.926 1835.67L892.276 1811.37L920.907 1832.28L935.409 1802.77L958.044 1818.54L979.882 1793.05L990.405 1812.98L1012.77 1780.39L1016.44 1816.22L915.174 1865.41L796.731 1893.46L804.214 1842.29Z" fill="#BABABA"/>
<path fill-rule="evenodd" clip-rule="evenodd" d="M839.194 1159.1C839.194 1159.1 878.627 1177.9 883.828 1190.47C900.987 1231.95 942.145 1407.97 942.145 1407.97L863.316 1070.27C863.316 1070.27 882.228 1147.12 881.609 1160.29C881.311 1166.65 859.609 1149.33 859.609 1149.33L871.793 1169.5L839.194 1159.1Z" fill="white"/>
<path fill-rule="evenodd" clip-rule="evenodd" d="M800.63 1202.32C800.63 1202.32 754.951 1184.42 726.237 1202.27C699.76 1218.74 723.189 1238.15 721.109 1247.34C716.797 1266.38 687.416 1218.07 686.33 1261.74C683.825 1362.88 714.84 1581.12 714.84 1581.12L635.653 1124.37C635.653 1124.37 692.831 1092.17 707.787 1106.51C715.006 1113.43 758.733 1097.71 758.733 1097.71L732.507 1158L800.63 1202.32Z" fill="black"/>
<path fill-rule="evenodd" clip-rule="evenodd" d="M689.662 1188.89C689.662 1188.89 655.804 1217.9 656.141 1231.5C656.374 1240.89 670.499 1216.78 683.19 1215.58C691.333 1214.8 657.74 1246.63 659.308 1259.73C668.292 1334.78 696.323 1458.13 696.323 1458.13L626.397 1167.04C626.397 1167.04 640.498 1207.9 646.399 1219.7C649.246 1225.4 667.039 1188.22 667.039 1188.22L651.786 1221.05L689.662 1188.89Z" fill="white" fill-opacity="0.62"/>
<path fill-rule="evenodd" clip-rule="evenodd" d="M808.026 1421.82C837.964 1429.81 800.453 1265.62 785.626 1254.05C785.626 1254.05 856.933 1409.53 870.076 1399.96C883.216 1390.39 852.337 1227.32 852.337 1227.32C852.337 1227.32 887.65 1351.08 898.576 1361.13C909.501 1371.18 883.366 1264.04 896.576 1285.96C909.784 1307.88 915.63 1424.79 924.063 1443.38C927.537 1451.04 947.165 1397.46 947.165 1397.46C952.532 1423 945.28 1452.07 951.533 1476.73C962.112 1518.45 992.524 1537.97 981.594 1553.21C981.594 1553.21 925.311 1473.62 919.103 1492.47C912.895 1511.32 912.395 1659.63 912.395 1659.63C912.395 1659.63 870.002 1533.58 849.629 1524.01C829.257 1514.44 790.159 1602.21 790.159 1602.21C796.25 1567.32 813.738 1539.07 791.294 1487.54C838.373 1460.7 763.036 1455.63 716.905 1445.36C716.905 1445.36 794.016 1458.33 798.808 1445.81C803.6 1433.29 745.657 1370.23 745.657 1370.23C745.657 1370.23 793.948 1418.07 808.026 1421.82Z" fill="white" fill-opacity="0.2"/>
<path d="M742.238 1394.86L728.464 1398.26C727.926 1396.54 734.607 1393.14 733.971 1391.92C732.146 1388.42 729.915 1386.97 727.278 1387.56C724.977 1388.07 723.439 1389.29 722.665 1391.24C721.891 1393.18 721.881 1395.85 722.633 1399.23C723.187 1401.72 724.342 1403.95 726.099 1405.92L745.297 1426.72C748.843 1430.57 751.18 1435.03 752.31 1440.1L753.41 1445.04C754.626 1450.51 754.4 1455.53 752.723 1460.07C751.047 1464.63 748.406 1467.3 744.798 1468.11L738.29 1469.56C733.95 1470.52 730.311 1469.58 727.372 1466.73C724.433 1463.88 722.212 1459.08 720.708 1452.32L734.458 1449.88C734.619 1450.6 728.28 1453.69 728.369 1454.09C728.98 1456.83 729.426 1457.23 731.107 1458.37C732.788 1459.51 734.439 1459.9 736.06 1459.54C738.36 1459.03 739.829 1457.8 740.464 1455.85C741.099 1453.89 741.047 1451.26 740.313 1447.96C739.741 1445.39 738.586 1443.16 736.847 1441.26L717.648 1420.47C714.12 1416.69 711.783 1412.24 710.638 1407.09L709.536 1402.14C708.319 1396.68 708.548 1391.67 710.223 1387.11C711.899 1382.56 714.54 1379.88 718.147 1379.08L724.656 1377.63C732.865 1375.8 738.725 1381.55 742.238 1394.86Z" fill="white"/>
<path d="M764.264 1463.89L769.15 1454.37L755.257 1391.96C754.023 1386.42 754.258 1381.38 755.97 1376.87C757.681 1372.35 760.313 1369.69 763.868 1368.9L776.965 1365.99C780.52 1365.19 784.022 1366.5 787.47 1369.92C790.918 1373.33 793.251 1377.77 794.468 1383.23L810.125 1453.56L791.955 1457.83L795.558 1449.5L788.165 1416.29L775.068 1419.21L784.011 1459.38L764.264 1463.89ZM772.811 1409.07L785.907 1406.15L781.45 1386.13C780.824 1383.32 779.651 1381.07 777.932 1379.39C776.211 1377.7 774.437 1377.06 772.607 1377.47C770.829 1377.86 769.519 1379.19 768.678 1381.45C767.836 1383.7 767.728 1386.24 768.354 1389.05L772.811 1409.07Z" fill="white"/>
<path d="M829.81 1449.18L811.408 1366.52L802.373 1368.35L822.686 1355.81L841.455 1440.11L849.456 1444.8L829.81 1449.18Z" fill="white"/>
<path d="M856.697 1443.67L860.645 1433.89L843.793 1358.2L832.115 1355.04L845.348 1350.76L896.696 1404.13L882.546 1347.41L872.517 1345.3L888.088 1341.25L908.231 1431.72L905.251 1432.39L857.022 1380.27L869.02 1440.45L856.697 1443.67Z" fill="white"/>
<path d="M927.837 1427.36L930.447 1421.08L914.117 1346.38L901.027 1348.88L899.083 1356.17L894.598 1339.8L933.809 1331.07L937.26 1347.79L932.322 1341.91L922.942 1344L940.854 1424.46L927.837 1427.36Z" fill="white"/>
<path fill-rule="evenodd" clip-rule="evenodd" d="M847.363 1062.64L865.95 1133.22L811.604 1146.95L800.078 1078.52L816.58 1070.59L747.537 949.684L779.306 929.951L831.344 1062.34L847.363 1062.64Z" fill="#BABABA" stroke="black" stroke-width="6" stroke-miterlimit="1.5" stroke-linecap="round" stroke-linejoin="round"/>
<path d="M1399.85 1309.94C1467.64 1274.95 1495.98 1195.02 1463.15 1131.41C1430.31 1067.81 1348.74 1044.62 1280.95 1079.61C1213.16 1114.61 1184.82 1194.54 1217.66 1258.14C1250.49 1321.75 1332.06 1344.94 1399.85 1309.94Z" fill="#F2EFD5" fill-opacity="0.62"/>
<path fill-rule="evenodd" clip-rule="evenodd" d="M1271.27 1060.85C1280.27 1059.93 1287.28 1059.38 1296.05 1059.17C1304.11 1058.98 1311.29 1058.58 1319.15 1058.44C1323.62 1058.36 1328 1057.99 1332.41 1057.75C1350.34 1056.74 1368.04 1057.22 1384.83 1061.52C1420.78 1070.73 1452.2 1093.56 1470.41 1127.67C1489.01 1162.12 1490.4 1201.48 1477.96 1236.93C1465.96 1271.12 1440.84 1301.58 1405.43 1320.73C1369.56 1340.16 1329.72 1344.06 1294.04 1335.31C1255.86 1325.94 1222.58 1301.7 1203.01 1265.71C1183.13 1229.15 1181.64 1187.33 1194.76 1149.62C1207.33 1113.42 1233.89 1081.22 1271.27 1060.85ZM1290.64 1098.38C1261.77 1112.48 1240.6 1135.82 1229.9 1162.7C1218.77 1190.73 1218.51 1222.34 1232.32 1250.58C1246.42 1279.39 1271.83 1299.26 1301.39 1307.82C1330.69 1316.3 1363.88 1314.09 1394.29 1299.16C1425.19 1283.96 1447.65 1258.73 1459.02 1229.88C1470.94 1199.63 1470.88 1165.55 1455.9 1135.16C1440.57 1104.41 1413.14 1083.33 1381.37 1074.47C1366.16 1070.24 1349.88 1067.98 1333.69 1070.36C1329.71 1070.95 1325.8 1071.87 1321.99 1073.32C1315.56 1075.74 1310.13 1079.23 1304.49 1083.47C1298.75 1087.78 1295.53 1092.81 1290.64 1098.38Z" fill="#EFE313" fill-opacity="0.42"/>
<path fill-rule="evenodd" clip-rule="evenodd" d="M1393.59 1251.84C1396 1256.53 1408.14 1281.84 1403.43 1284.27L1381.52 1265.95L1370.11 1273.01L1372.97 1300.14C1368.26 1302.57 1352.99 1272.92 1350.57 1268.24L1337.84 1254.39C1335.42 1249.71 1337.28 1243.93 1341.98 1241.5L1378.68 1222.56C1383.38 1220.13 1389.17 1221.96 1391.59 1226.64L1393.59 1251.84Z" fill="#FF050B" stroke="black" stroke-width="4.52666" stroke-miterlimit="1.5" stroke-linecap="round" stroke-linejoin="round"/>
<path d="M1344.72 1255.18C1344.72 1255.18 1348.56 1258.94 1353.85 1258.65C1359.85 1258.31 1367.36 1253.83 1366.89 1252.51C1365.99 1250.05 1366.72 1243.71 1366.72 1243.71L1370.29 1248.55C1370.29 1248.55 1375.96 1252.94 1382.51 1245.47C1389.06 1237.99 1388.48 1231.68 1388.48 1231.68" stroke="black" stroke-width="4.52793" stroke-miterlimit="1.5" stroke-linecap="round" stroke-linejoin="round"/>
<path d="M1286.4 1269.23C1286.4 1269.23 1294.13 1277.41 1302.3 1277.61" stroke="black" stroke-width="4" stroke-miterlimit="1.5" stroke-linecap="round" stroke-linejoin="round"/>
<path d="M1284.05 1277.82C1284.05 1277.82 1291.78 1286 1299.95 1286.2" stroke="black" stroke-width="4" stroke-miterlimit="1.5" stroke-linecap="round" stroke-linejoin="round"/>
<path d="M1421.27 1178.75C1421.27 1178.75 1423.46 1189.79 1418.89 1196.57" stroke="black" stroke-width="4" stroke-miterlimit="1.5" stroke-linecap="round" stroke-linejoin="round"/>
<path d="M1429.64 1181.81C1429.64 1181.81 1431.82 1192.85 1427.25 1199.63" stroke="black" stroke-width="4" stroke-miterlimit="1.5" stroke-linecap="round" stroke-linejoin="round"/>
<path d="M1354.32 1090.47C1354.32 1090.47 1365.48 1091.95 1370.43 1098.45" stroke="black" stroke-width="4" stroke-miterlimit="1.5" stroke-linecap="round" stroke-linejoin="round"/>
<path d="M1359.91 1083.53C1359.91 1083.53 1371.06 1085.01 1376.02 1091.51" stroke="black" stroke-width="4" stroke-miterlimit="1.5" stroke-linecap="round" stroke-linejoin="round"/>
<path d="M1243.54 1169.26C1243.54 1169.26 1230.34 1190.32 1232.78 1198.12" stroke="black" stroke-width="4" stroke-miterlimit="1.5" stroke-linecap="round" stroke-linejoin="round"/>
<path d="M1234.47 1167.57C1234.47 1167.57 1221.45 1190.85 1223.88 1198.66" stroke="black" stroke-width="4" stroke-miterlimit="1.5" stroke-linecap="round" stroke-linejoin="round"/>
<path d="M1370.06 1255.44L1374.85 1264.87" stroke="black" stroke-width="4.52793" stroke-miterlimit="1.5" stroke-linecap="round" stroke-linejoin="round"/>
<path d="M1365.87 1262.85L1379.08 1256.23" stroke="black" stroke-width="4.52793" stroke-miterlimit="1.5" stroke-linecap="round" stroke-linejoin="round"/>
<path fill-rule="evenodd" clip-rule="evenodd" d="M1370.43 1132.12C1362.99 1121.68 1348.48 1119.24 1338.04 1126.68L1267.86 1177.1C1257.42 1184.53 1254.98 1199.05 1262.42 1209.48L1287.91 1256.34C1295.35 1266.77 1309.86 1269.21 1320.3 1261.78L1401.67 1203.83C1412.11 1196.39 1414.55 1181.88 1407.11 1171.44L1370.43 1132.12Z" fill="#FF050B" stroke="black" stroke-width="6.7919" stroke-miterlimit="1.5" stroke-linecap="round" stroke-linejoin="round"/>
<path d="M1309.85 1218.78C1315.38 1214.85 1317.31 1208.07 1314.15 1203.64C1311 1199.21 1303.96 1198.81 1298.43 1202.75C1292.9 1206.68 1290.98 1213.47 1294.13 1217.89C1297.29 1222.32 1304.33 1222.72 1309.85 1218.78Z" fill="black" stroke="black" stroke-width="6.7919" stroke-miterlimit="1.5" stroke-linecap="round" stroke-linejoin="round"/>
<path d="M1362.49 1179.08C1368.02 1175.15 1369.94 1168.36 1366.79 1163.93C1363.63 1159.51 1356.59 1159.11 1351.06 1163.04C1345.54 1166.98 1343.61 1173.76 1346.77 1178.19C1349.92 1182.62 1356.96 1183.02 1362.49 1179.08Z" fill="black" stroke="black" stroke-width="6.7919" stroke-miterlimit="1.5" stroke-linecap="round" stroke-linejoin="round"/>
<path d="M1341.08 1175.72L1353.8 1143.76" stroke="black" stroke-width="6.7919" stroke-miterlimit="1.5" stroke-linecap="round" stroke-linejoin="round"/>
<path d="M1276.42 1197.89L1317.33 1196.12" stroke="black" stroke-width="6.7919" stroke-miterlimit="1.5" stroke-linecap="round" stroke-linejoin="round"/>
<path d="M1337.99 1205.64L1340.63 1198.82" stroke="black" stroke-width="6.7919" stroke-miterlimit="1.5" stroke-linecap="round" stroke-linejoin="round"/>
<path d="M1330.8 1237.6C1343.25 1215.6 1356.48 1190.56 1386.49 1179.58" stroke="black" stroke-width="4.52793" stroke-miterlimit="1.5" stroke-linecap="round" stroke-linejoin="round"/>
<path fill-rule="evenodd" clip-rule="evenodd" d="M1269.35 1213.98L1265.83 1189.07L1306.63 1157.73L1313.4 1165.18L1313.57 1156.21L1324.14 1157.92L1321.08 1149.3L1357.1 1129.11L1376.48 1139.91L1358.73 1112.02L1358.04 1100.92L1352.5 1105.8L1337.81 1100.45L1343.17 1107.98L1293.38 1135.87L1302.22 1138.99L1255.8 1157.98L1264.84 1163.8L1245.13 1184.23L1250.86 1184.67L1245.01 1196.7L1250.45 1196.87L1264.64 1217.64L1269.35 1213.98Z" fill="#D56113" stroke="#FF7418" stroke-width="4.52793" stroke-miterlimit="1.5" stroke-linecap="round" stroke-linejoin="round"/>
<path d="M1349.77 1278.34C1356.28 1274.97 1359.47 1268.2 1356.89 1263.2C1354.32 1258.21 1346.94 1256.88 1340.43 1260.25C1333.91 1263.61 1330.72 1270.39 1333.3 1275.38C1335.88 1280.38 1343.25 1281.7 1349.77 1278.34Z" fill="#D50409" stroke="black" stroke-width="5.28259" stroke-miterlimit="1.5" stroke-linecap="round" stroke-linejoin="round"/>
<path d="M1400.5 1240.99C1407.01 1237.63 1410.2 1230.85 1407.62 1225.85C1405.05 1220.86 1397.67 1219.54 1391.16 1222.9C1384.64 1226.26 1381.45 1233.04 1384.03 1238.03C1386.61 1243.03 1393.98 1244.35 1400.5 1240.99Z" fill="#D50409" stroke="black" stroke-width="5.28259" stroke-miterlimit="1.5" stroke-linecap="round" stroke-linejoin="round"/>
<path fill-rule="evenodd" clip-rule="evenodd" d="M1396.1 1226.38C1396.1 1226.38 1401.09 1225.14 1402.07 1226.39C1403.05 1227.65 1401.98 1233.89 1401.98 1233.89C1401.21 1229.8 1399.29 1227.25 1396.1 1226.38Z" fill="white"/>
<path fill-rule="evenodd" clip-rule="evenodd" d="M1352.5 1163.09C1352.5 1163.09 1354.64 1161.84 1355.65 1162.66C1356.84 1163.62 1356.1 1166.18 1356.1 1166.18C1352.81 1166.92 1351.25 1166.19 1352.5 1163.09Z" fill="white"/>
<path fill-rule="evenodd" clip-rule="evenodd" d="M1303.28 1202.51C1303.28 1202.51 1305.42 1201.26 1306.43 1202.08C1307.62 1203.04 1306.88 1205.6 1306.88 1205.6C1303.59 1206.34 1302.04 1205.61 1303.28 1202.51Z" fill="white"/>
<path fill-rule="evenodd" clip-rule="evenodd" d="M1345.7 1263.57C1345.7 1263.57 1350.68 1262.32 1351.67 1263.57C1352.65 1264.83 1351.57 1271.07 1351.57 1271.07C1350.81 1266.98 1348.89 1264.43 1345.7 1263.57Z" fill="white"/>
<path fill-rule="evenodd" clip-rule="evenodd" d="M1355.92 1279.03L1360.95 1289.19L1368.57 1286.27L1377.84 1276.05L1395.35 1273.79L1401.71 1269.57L1396.57 1258.71L1355.92 1279.03Z" fill="#AB0307" stroke="black" stroke-width="5.28259" stroke-miterlimit="1.5" stroke-linecap="round" stroke-linejoin="round"/>
<path fill-rule="evenodd" clip-rule="evenodd" d="M775.09 1004.16C775.09 1004.16 1156.84 985.39 1269.22 1094.74C1370.03 1192.84 1411.13 1341.53 1411.13 1341.53C1399.23 1619.69 1512.84 1944.37 785.623 1954.33L828.158 2059.64C1021.87 2132.23 1259.22 2087.77 1532.57 1946.74C1640.7 1619.33 1658.82 1317.52 1515.68 1005.02L1120.76 832.955C907.913 867.173 791.531 923.97 775.09 1004.16Z" fill="black" fill-opacity="0.3"/>
<path fill-rule="evenodd" clip-rule="evenodd" d="M1006.1 949.616L1040.26 948.539L1031.57 1013.46L1011.29 1035.32L977.31 1034.37L951.844 970.525L1006.1 949.616Z" fill="#F4EC62"/>
<path fill-rule="evenodd" clip-rule="evenodd" d="M1005.9 943.115L1040.09 943.094C1041.69 943.042 1043.23 943.696 1044.3 944.883C1045.38 946.071 1045.88 947.674 1045.66 949.259C1045.66 949.259 1043.01 965.422 1040.6 981.627C1038.2 997.822 1036.05 1014.06 1036.05 1014.06C1035.93 1014.98 1035.52 1015.85 1034.88 1016.53L1014.73 1038.52C1013.81 1039.5 1012.51 1040.05 1011.16 1040.01L977.17 1039.38C975.17 1039.31 973.398 1038.08 972.658 1036.22L946.481 972.665C945.907 971.229 945.933 969.627 946.55 968.213C947.168 966.799 948.326 965.691 949.767 965.136L1003.77 943.552C1004.45 943.289 1005.17 943.142 1005.9 943.115ZM1006.1 949.617L951.843 970.525L977.31 1034.37L1011.29 1035.32L1031.57 1013.46L1040.26 948.539L1006.1 949.617Z" fill="black"/>
<path fill-rule="evenodd" clip-rule="evenodd" d="M952.062 973.765L948.821 973.985L948.383 967.499L951.624 967.279C951.624 967.279 953.523 967.494 956.465 967.593C957.88 967.644 959.519 967.699 961.289 967.621C963.415 967.528 965.709 967.249 967.996 967.004C975.881 966.171 983.619 965.124 983.619 965.124L986.857 964.905L987.293 971.392L984.055 971.611C984.055 971.611 976.249 971.614 968.322 971.843C966.021 971.905 963.712 971.938 961.593 972.134C959.827 972.292 958.212 972.563 956.818 972.806C953.913 973.297 952.062 973.765 952.062 973.765Z" fill="black"/>
<path d="M981.14 1010.15C981.688 1009.94 980.882 1006.63 979.339 1002.77C977.797 998.901 976.102 995.938 975.554 996.149C975.007 996.36 975.813 999.666 977.355 1003.53C978.898 1007.4 980.592 1010.36 981.14 1010.15Z" fill="black"/>
<path fill-rule="evenodd" clip-rule="evenodd" d="M973.884 991.814C975.055 991.469 977.708 990.863 979.682 993.621C980.538 994.819 981.999 997.686 983.14 1001.25C984.482 1004.67 985.246 1007.74 985.345 1009.18C985.557 1012.25 983.629 1013.52 982.6 1013.94C981.59 1014.35 979.399 1014.63 977.393 1012.35C976.436 1011.27 974.826 1008.51 973.343 1005.13C971.808 1001.71 970.928 998.604 970.781 997.15C970.435 993.714 972.737 992.305 973.884 991.814ZM975.552 996.144C975.005 996.355 975.814 999.669 977.355 1003.53C978.894 1007.39 980.592 1010.36 981.14 1010.15C981.687 1009.94 980.878 1006.63 979.339 1002.77C977.798 998.904 976.1 995.933 975.552 996.144ZM979.996 998.343C980.881 997.414 981.311 996.546 979.995 996.58C979.52 996.591 979.648 997.326 979.996 998.343Z" fill="black"/>
<path d="M1040.91 948.933L985.719 970.201L1011.59 1035.06L1066.79 1013.79L1040.91 948.933Z" fill="#F4EC62"/>
<path fill-rule="evenodd" clip-rule="evenodd" d="M1047.05 946.484L1071.1 1012.07C1071.57 1013.23 1071.54 1014.51 1071.04 1015.65C1070.55 1016.79 1069.61 1017.69 1068.46 1018.13L1013.35 1039.63C1010.85 1040.6 1008.04 1039.36 1007.04 1036.88L980.363 972.331C979.792 970.9 979.82 969.305 980.435 967.89C981.053 966.482 982.207 965.374 983.644 964.82L1038.53 942.765C1041.91 941.464 1045.71 943.119 1047.05 946.484ZM1040.91 948.933L985.718 970.201L1011.59 1035.06L1066.78 1013.79L1040.91 948.933Z" fill="black"/>
<path d="M1009.27 988.097C1011.03 987.418 1011.21 983.733 1009.66 979.866C1008.12 975.999 1005.44 973.415 1003.68 974.094C1001.92 974.774 1001.74 978.459 1003.28 982.325C1004.82 986.192 1007.5 988.776 1009.27 988.097Z" fill="black"/>
<path fill-rule="evenodd" clip-rule="evenodd" d="M1002.2 970.243C1004.07 969.653 1006.41 969.77 1008.56 971.611C1010.2 973.015 1011.99 975.42 1013.04 978.516C1014.2 981.523 1014.48 984.452 1014.15 986.518C1013.72 989.14 1012.28 990.771 1010.57 991.466C1008.87 992.162 1006.71 991.9 1004.56 990.342C1002.83 989.082 1001 986.732 999.717 983.741C998.393 980.715 998.052 977.719 998.334 975.585C998.715 972.744 1000.35 971.019 1002.2 970.243ZM1003.68 974.089C1001.92 974.768 1001.74 978.462 1003.28 982.326C1004.82 986.183 1007.51 988.775 1009.27 988.096C1011.03 987.417 1011.2 983.724 1009.67 979.866C1008.12 976.002 1005.44 973.41 1003.68 974.089Z" fill="black"/>
<path d="M1052.55 1010.39C1054.31 1009.71 1054.49 1006.02 1052.95 1002.15C1051.41 998.288 1048.73 995.704 1046.96 996.383C1045.2 997.063 1045.02 1000.75 1046.57 1004.61C1048.11 1008.48 1050.79 1011.07 1052.55 1010.39Z" fill="black"/>
<path fill-rule="evenodd" clip-rule="evenodd" d="M1045.48 992.532C1047.35 991.942 1049.7 992.059 1051.85 993.9C1053.48 995.304 1055.27 997.709 1056.33 1000.81C1057.49 1003.81 1057.77 1006.74 1057.43 1008.81C1057 1011.43 1055.57 1013.06 1053.85 1013.75C1052.15 1014.45 1049.99 1014.19 1047.85 1012.63C1046.12 1011.37 1044.29 1009.02 1043 1006.03C1041.68 1003 1041.34 1000.01 1041.62 997.875C1042 995.033 1043.64 993.308 1045.48 992.532ZM1046.96 996.378C1045.2 997.057 1045.03 1000.75 1046.57 1004.62C1048.11 1008.47 1050.79 1011.06 1052.55 1010.39C1054.31 1009.71 1054.49 1006.01 1052.95 1002.16C1051.41 998.291 1048.73 995.699 1046.96 996.378Z" fill="black"/>
<path d="M1038.32 977.759C1040.08 977.08 1040.26 973.395 1038.71 969.528C1037.17 965.661 1034.49 963.077 1032.73 963.757C1030.97 964.436 1030.79 968.121 1032.33 971.988C1033.87 975.854 1036.55 978.438 1038.32 977.759Z" fill="black"/>
<path fill-rule="evenodd" clip-rule="evenodd" d="M1031.25 959.905C1033.12 959.315 1035.46 959.432 1037.61 961.274C1039.25 962.677 1041.04 965.082 1042.09 968.179C1043.25 971.185 1043.54 974.114 1043.2 976.18C1042.77 978.802 1041.33 980.433 1039.62 981.128C1037.92 981.824 1035.76 981.562 1033.61 980.004C1031.88 978.744 1030.05 976.394 1028.77 973.403C1027.44 970.378 1027.1 967.381 1027.39 965.248C1027.77 962.406 1029.4 960.681 1031.25 959.905ZM1032.73 963.751C1030.97 964.43 1030.79 968.124 1032.33 971.988C1033.87 975.845 1036.56 978.437 1038.32 977.758C1040.08 977.079 1040.26 973.386 1038.72 969.528C1037.18 965.664 1034.49 963.073 1032.73 963.751Z" fill="black"/>
<path d="M1023.3 1020.53C1025.06 1019.85 1025.24 1016.17 1023.7 1012.3C1022.16 1008.43 1019.48 1005.85 1017.71 1006.53C1015.95 1007.21 1015.77 1010.89 1017.32 1014.76C1018.86 1018.63 1021.54 1021.21 1023.3 1020.53Z" fill="black"/>
<path fill-rule="evenodd" clip-rule="evenodd" d="M1016.23 1002.68C1018.1 1002.09 1020.45 1002.2 1022.6 1004.04C1024.23 1005.45 1026.02 1007.85 1027.08 1010.95C1028.24 1013.96 1028.52 1016.89 1028.18 1018.95C1027.75 1021.57 1026.32 1023.2 1024.6 1023.9C1022.9 1024.6 1020.74 1024.33 1018.6 1022.78C1016.87 1021.52 1015.04 1019.17 1013.75 1016.17C1012.43 1013.15 1012.09 1010.15 1012.37 1008.02C1012.75 1005.18 1014.39 1003.45 1016.23 1002.68ZM1017.71 1006.52C1015.95 1007.2 1015.78 1010.9 1017.32 1014.76C1018.86 1018.62 1021.54 1021.21 1023.3 1020.53C1025.06 1019.85 1025.24 1016.16 1023.7 1012.3C1022.16 1008.44 1019.48 1005.84 1017.71 1006.52Z" fill="black"/>
<path fill-rule="evenodd" clip-rule="evenodd" d="M1111.53 978.265L1125.27 1009.56L1061.79 1025.7L1033.94 1015.04L1022.15 983.151L1071.89 935.715L1111.53 978.265Z" fill="#FF7418"/>
<path fill-rule="evenodd" clip-rule="evenodd" d="M1117.49 975.647L1130.26 1007.37C1130.9 1008.83 1130.87 1010.51 1130.17 1011.94C1129.47 1013.38 1128.16 1014.44 1126.61 1014.84C1126.61 1014.84 1110.63 1018.4 1094.69 1022.21C1078.77 1026.02 1062.9 1030.08 1062.9 1030.08C1062 1030.31 1061.05 1030.26 1060.17 1029.92L1032.26 1019.42C1031.01 1018.93 1030.01 1017.93 1029.54 1016.66L1017.46 984.89C1016.77 983.011 1017.25 980.906 1018.7 979.528L1067.91 931.537C1069.03 930.47 1070.53 929.896 1072.07 929.942C1073.61 929.987 1075.07 930.649 1076.12 931.778L1116.29 973.834C1116.78 974.369 1117.19 974.984 1117.49 975.647ZM1111.53 978.265L1071.9 935.715L1022.16 983.151L1033.94 1015.04L1061.79 1025.7L1125.27 1009.56L1111.53 978.265Z" fill="black"/>
<path fill-rule="evenodd" clip-rule="evenodd" d="M1068.97 937.125L1067.56 934.2L1073.41 931.375L1074.82 934.3C1074.82 934.3 1075.33 936.143 1076.34 938.91C1076.82 940.241 1077.38 941.783 1078.11 943.396C1078.99 945.334 1080.1 947.358 1081.18 949.389C1084.9 956.395 1088.75 963.184 1088.75 963.184L1090.17 966.107L1084.31 968.931L1082.9 966.008C1082.9 966.008 1079.98 958.766 1076.82 951.496C1075.9 949.385 1075.01 947.254 1074.04 945.361C1073.23 943.781 1072.38 942.383 1071.63 941.181C1070.09 938.668 1068.97 937.125 1068.97 937.125Z" fill="black"/>
<path d="M1046.11 977.734C1046.43 978.076 1048.9 976.245 1051.63 973.644C1054.35 971.043 1056.3 968.658 1055.99 968.316C1055.67 967.974 1053.2 969.806 1050.47 972.406C1047.75 975.007 1045.79 977.392 1046.11 977.734Z" fill="black"/>
<path fill-rule="evenodd" clip-rule="evenodd" d="M1058.9 965.599C1059.51 966.355 1060.95 968.422 1059.19 970.962C1058.45 972.019 1056.56 974.092 1054.06 976.181C1051.71 978.39 1049.5 980.056 1048.39 980.654C1045.92 981.981 1044.18 980.744 1043.56 980.111C1042.96 979.485 1041.94 977.713 1043.28 975.302C1043.91 974.19 1045.66 972.021 1047.92 969.722C1050.19 967.373 1052.37 965.602 1053.49 964.958C1056.21 963.388 1058.21 964.892 1058.9 965.599ZM1055.73 972.539C1056.83 972.972 1057.72 973.054 1057.2 971.962C1057 971.575 1056.45 971.912 1055.73 972.539ZM1055.99 968.311C1055.67 967.97 1053.2 969.806 1050.47 972.405C1047.75 975 1045.79 977.391 1046.11 977.732C1046.43 978.074 1048.91 976.237 1051.63 973.643C1054.35 971.044 1056.31 968.653 1055.99 968.311Z" fill="black"/>
<path d="M1062.92 973.194C1063.19 973.485 1065.61 971.624 1068.32 969.038C1071.03 966.451 1073.01 964.119 1072.74 963.829C1072.47 963.538 1070.05 965.399 1067.34 967.986C1064.63 970.572 1062.65 972.904 1062.92 973.194Z" fill="black"/>
<path fill-rule="evenodd" clip-rule="evenodd" d="M1075.49 961.268C1076 961.911 1077.47 964.017 1075.62 966.476C1074.87 967.466 1073.01 969.418 1070.61 971.432C1068.36 973.55 1066.26 975.199 1065.21 975.823C1062.81 977.251 1061.04 975.971 1060.52 975.434C1060.01 974.904 1058.94 973.112 1060.39 970.766C1061.03 969.72 1062.76 967.665 1064.93 965.46C1067.11 963.212 1069.18 961.466 1070.22 960.805C1072.87 959.123 1074.9 960.673 1075.49 961.268ZM1072.58 967.793C1073.68 968.216 1074.58 968.317 1074 967.244C1073.79 966.864 1073.27 967.182 1072.58 967.793ZM1072.75 963.826C1072.47 963.535 1070.05 965.402 1067.34 967.986C1064.64 970.566 1062.65 972.904 1062.92 973.194C1063.19 973.485 1065.62 971.618 1068.32 969.038C1071.03 966.454 1073.02 964.116 1072.75 963.826Z" fill="black"/>
<path d="M1028.65 984.095C1028.89 984.36 1031.24 982.525 1033.9 979.996C1036.55 977.467 1038.5 975.202 1038.25 974.936C1038 974.67 1035.65 976.505 1033 979.034C1030.35 981.563 1028.4 983.829 1028.65 984.095Z" fill="black"/>
<path fill-rule="evenodd" clip-rule="evenodd" d="M1040.88 972.482C1041.36 973.067 1042.8 975.144 1040.95 977.525C1040.22 978.475 1038.4 980.345 1036.09 982.291C1033.92 984.339 1031.9 985.944 1030.89 986.565C1028.57 987.997 1026.82 986.732 1026.34 986.243C1025.88 985.756 1024.82 983.985 1026.27 981.718C1026.91 980.715 1028.59 978.744 1030.69 976.608C1032.8 974.441 1034.78 972.745 1035.78 972.088C1038.34 970.404 1040.35 971.936 1040.88 972.482ZM1038.12 978.728C1039.2 979.143 1040.08 979.24 1039.5 978.199C1039.3 977.831 1038.78 978.138 1038.12 978.728ZM1038.25 974.932C1038.01 974.667 1035.65 976.507 1033 979.034C1030.35 981.557 1028.4 983.828 1028.65 984.094C1028.89 984.359 1031.25 982.519 1033.9 979.996C1036.55 977.469 1038.5 975.198 1038.25 974.932Z" fill="black"/>
<path d="M1125.14 1010.31L1084.83 967.025L1034.29 1015.22L1074.61 1058.5L1125.14 1010.31Z" fill="#FF7418"/>
<path fill-rule="evenodd" clip-rule="evenodd" d="M1129.7 1015.09L1077.82 1061.86C1076.92 1062.73 1075.71 1063.18 1074.47 1063.14C1073.23 1063.11 1072.05 1062.58 1071.21 1061.67L1030.71 1018.56C1028.88 1016.59 1028.98 1013.53 1030.91 1011.68L1080.85 962.851C1081.97 961.788 1083.46 961.219 1085 961.262C1086.54 961.31 1088 961.968 1089.05 963.095L1129.98 1005.8C1132.45 1008.45 1132.33 1012.59 1129.7 1015.09ZM1125.14 1010.31L1084.83 967.026L1034.3 1015.22L1074.61 1058.5L1125.14 1010.31Z" fill="black"/>
<path d="M1077 995.55C1078.29 996.932 1081.78 995.723 1084.79 992.85C1087.8 989.977 1089.2 986.527 1087.91 985.145C1086.63 983.763 1083.14 984.972 1080.13 987.845C1077.11 990.718 1075.72 994.167 1077 995.55Z" fill="black"/>
<path fill-rule="evenodd" clip-rule="evenodd" d="M1090.94 982.331C1092.18 983.846 1092.95 986.066 1092.04 988.748C1091.35 990.788 1089.78 993.346 1087.3 995.479C1084.95 997.678 1082.33 999.031 1080.29 999.487C1077.7 1000.07 1075.65 999.346 1074.36 998.011C1073.08 996.693 1072.52 994.591 1073.17 992.02C1073.69 989.944 1075.19 987.373 1077.49 985.064C1079.8 982.707 1082.45 981.273 1084.54 980.739C1087.32 980.033 1089.53 980.909 1090.94 982.331ZM1087.92 985.141C1086.63 983.76 1083.14 984.973 1080.13 987.845C1077.12 990.711 1075.72 994.167 1077.01 995.548C1078.29 996.93 1081.79 995.716 1084.79 992.85C1087.8 989.979 1089.21 986.522 1087.92 985.141Z" fill="black"/>
<path d="M1074.4 1019.79C1075.69 1021.17 1079.18 1019.96 1082.19 1017.09C1085.2 1014.22 1086.6 1010.77 1085.31 1009.39C1084.02 1008 1080.54 1009.21 1077.53 1012.08C1074.51 1014.96 1073.11 1018.41 1074.4 1019.79Z" fill="black"/>
<path fill-rule="evenodd" clip-rule="evenodd" d="M1088.33 1006.57C1089.58 1008.09 1090.34 1010.31 1089.44 1012.99C1088.74 1015.03 1087.18 1017.59 1084.7 1019.72C1082.34 1021.92 1079.73 1023.27 1077.69 1023.73C1075.1 1024.31 1073.05 1023.59 1071.76 1022.25C1070.48 1020.93 1069.92 1018.83 1070.57 1016.26C1071.09 1014.18 1072.59 1011.61 1074.88 1009.3C1077.2 1006.95 1079.85 1005.51 1081.94 1004.98C1084.71 1004.27 1086.93 1005.15 1088.33 1006.57ZM1085.32 1009.38C1084.03 1008 1080.54 1009.21 1077.53 1012.08C1074.52 1014.95 1073.12 1018.41 1074.4 1019.79C1075.69 1021.17 1079.18 1019.96 1082.19 1017.09C1085.2 1014.22 1086.6 1010.76 1085.32 1009.38Z" fill="black"/>
<path d="M1072.46 1044.02C1073.75 1045.4 1077.23 1044.2 1080.25 1041.32C1083.26 1038.45 1084.66 1035 1083.37 1033.62C1082.08 1032.24 1078.6 1033.44 1075.58 1036.32C1072.57 1039.19 1071.17 1042.64 1072.46 1044.02Z" fill="black"/>
<path fill-rule="evenodd" clip-rule="evenodd" d="M1086.39 1030.8C1087.64 1032.32 1088.4 1034.54 1087.5 1037.22C1086.8 1039.26 1085.24 1041.82 1082.76 1043.95C1080.4 1046.15 1077.79 1047.5 1075.75 1047.96C1073.15 1048.54 1071.11 1047.82 1069.82 1046.48C1068.54 1045.17 1067.98 1043.06 1068.62 1040.49C1069.15 1038.42 1070.65 1035.85 1072.94 1033.54C1075.26 1031.18 1077.91 1029.75 1079.99 1029.21C1082.77 1028.51 1084.98 1029.38 1086.39 1030.8ZM1083.38 1033.61C1082.09 1032.23 1078.6 1033.45 1075.59 1036.32C1072.58 1039.18 1071.18 1042.64 1072.46 1044.02C1073.75 1045.4 1077.24 1044.19 1080.25 1041.32C1083.26 1038.45 1084.66 1034.99 1083.38 1033.61Z" fill="black"/>
<path d="M1097.43 1018.65C1098.72 1020.03 1102.2 1018.82 1105.22 1015.95C1108.23 1013.07 1109.63 1009.63 1108.34 1008.24C1107.05 1006.86 1103.57 1008.07 1100.55 1010.94C1097.54 1013.82 1096.14 1017.26 1097.43 1018.65Z" fill="black"/>
<path fill-rule="evenodd" clip-rule="evenodd" d="M1111.36 1005.43C1112.61 1006.94 1113.37 1009.16 1112.46 1011.85C1111.77 1013.89 1110.21 1016.44 1107.73 1018.58C1105.37 1020.78 1102.76 1022.13 1100.71 1022.58C1098.12 1023.17 1096.07 1022.44 1094.79 1021.11C1093.51 1019.79 1092.95 1017.69 1093.59 1015.12C1094.12 1013.04 1095.62 1010.47 1097.91 1008.16C1100.23 1005.8 1102.88 1004.37 1104.96 1003.84C1107.74 1003.13 1109.95 1004.01 1111.36 1005.43ZM1108.34 1008.24C1107.06 1006.86 1103.57 1008.07 1100.55 1010.94C1097.55 1013.81 1096.14 1017.26 1097.43 1018.65C1098.72 1020.03 1102.21 1018.81 1105.22 1015.95C1108.23 1013.08 1109.63 1009.62 1108.34 1008.24Z" fill="black"/>
<path d="M1052.14 1020.66C1053.43 1022.05 1056.92 1020.84 1059.93 1017.97C1062.94 1015.09 1064.34 1011.64 1063.05 1010.26C1061.77 1008.88 1058.28 1010.09 1055.27 1012.96C1052.26 1015.83 1050.86 1019.28 1052.14 1020.66Z" fill="black"/>
<path fill-rule="evenodd" clip-rule="evenodd" d="M1066.08 1007.45C1067.32 1008.96 1068.09 1011.18 1067.18 1013.86C1066.49 1015.9 1064.92 1018.46 1062.44 1020.59C1060.09 1022.79 1057.47 1024.15 1055.43 1024.6C1052.84 1025.18 1050.79 1024.46 1049.5 1023.13C1048.22 1021.81 1047.66 1019.71 1048.31 1017.14C1048.83 1015.06 1050.33 1012.49 1052.63 1010.18C1054.94 1007.82 1057.59 1006.39 1059.68 1005.85C1062.46 1005.15 1064.67 1006.02 1066.08 1007.45ZM1063.06 1010.26C1061.77 1008.87 1058.28 1010.09 1055.27 1012.96C1052.26 1015.83 1050.86 1019.28 1052.15 1020.66C1053.43 1022.05 1056.93 1020.83 1059.93 1017.97C1062.94 1015.09 1064.35 1011.64 1063.06 1010.26Z" fill="black"/>
<path fill-rule="evenodd" clip-rule="evenodd" d="M1084.32 947.877C1082.18 949.149 1080.98 947.357 1079.71 945.227C1078.44 943.093 1076.98 941.708 1079.11 940.436C1079.11 940.436 1085.41 934.194 1104.74 911.926C1108.57 907.512 1111.58 903.186 1113.15 899.112C1114.34 896.007 1114.69 893.121 1113.32 890.622C1107.17 879.388 1101.29 870.95 1095.45 866.993C1093.37 865.586 1091.37 864.802 1089.35 865.08C1087.23 865.376 1085.8 867.412 1083.2 869.141C1051.96 889.994 1031.46 946.149 1031.46 946.149C1030.61 948.483 1026.34 949.893 1024 949.038C1021.67 948.19 1021.87 947.107 1022.72 944.773C1022.72 944.773 1041.81 884.733 1076.42 863.231C1081.32 860.18 1084.18 856.714 1088.12 856.168C1092.16 855.603 1096.32 856.715 1100.49 859.541C1107.17 864.06 1114.19 873.467 1121.21 886.294C1123.33 890.161 1123.72 894.499 1122.56 899.159C1121.13 904.94 1117.15 911.366 1111.53 917.824C1091.46 940.943 1084.32 947.877 1084.32 947.877Z" fill="#B4AD60" stroke="black" stroke-width="1.9" stroke-miterlimit="2" stroke-linejoin="round"/>
<path fill-rule="evenodd" clip-rule="evenodd" d="M1094.4 925.032C1094.4 925.032 1076.96 942.385 1082.38 963.963L1031.8 1011.82L1036.94 1024.76L1016.94 1020.72L1006.59 980.794L1021.09 952.389L983.047 967.249L1009.27 1034.48L975.148 1035.33L950.045 969.878L1004.85 944.24C1013.25 945.903 1021.26 945.564 1027.61 937.15C1026.68 949.555 1034.8 947.075 1042.96 944.52L1045.67 955.19L1073 931.175C1075.75 939.005 1081.03 941.523 1094.4 925.032Z" fill="black" fill-opacity="0.2"/>
</svg>
