<svg width="2160" height="2700" viewBox="0 0 2160 2700" fill="none" xmlns="http://www.w3.org/2000/svg">
<path d="M1088.3 2081.31C1384.96 2081.31 1625.46 1807.32 1625.46 1469.34C1625.46 1131.36 1384.96 857.375 1088.3 857.375C791.633 857.375 551.139 1131.36 551.139 1469.34C551.139 1807.32 791.633 2081.31 1088.3 2081.31Z" fill="#777777"/>
<path d="M588.098 1599.59L665.514 1586.99L695.666 1603.7C743.843 1760.19 809.513 1898.75 875.041 2037.46" stroke="black" stroke-width="9" stroke-miterlimit="1.5" stroke-linecap="square" stroke-linejoin="round"/>
<path d="M1597.12 1567.52L1519.71 1554.92L1489.55 1571.63C1441.38 1728.12 1375.71 1866.68 1310.18 2005.39" stroke="black" stroke-width="9" stroke-miterlimit="1.5" stroke-linecap="square" stroke-linejoin="round"/>
<path fill-rule="evenodd" clip-rule="evenodd" d="M804.994 979.563L821.751 1023.43L793.567 1071.04L809.405 1145.33L788.43 1177.66L776.084 1222.18L717.056 1190.87L709.008 1101.61L696.895 1067.25L686.513 1081.5C701.06 1143.74 691.874 1135.71 673.244 1099.72L656.942 1122.11L684.114 1167.08L684.853 1198.61L695.567 1231.57L668.377 1253.04L629.334 1196.6L611.693 1260.56L658.266 1302.51L726.099 1319.94L765.815 1327.88L819.033 1314.99L817.032 1277.61L849.798 1306.14L886.312 1325.03L881.074 1367.02L908.135 1432.53L888.834 1476.81L901.42 1526.44L902.59 1567.24L915.032 1569.43L926.872 1537.86L912.494 1516L934.089 1439.33L914.808 1343.55L922.733 1322.74L888.049 1293.88L908.417 1264.69L952.21 1109.54L965.827 974.888L938.219 904.125L897.448 925.531L882.336 1023.9L908.4 1079.63L890.116 1111.88L886.514 1146.53L899.08 1202.27L877.036 1232.64L892.469 1274.43L854.205 1257.45L834.418 1198.47L834.123 1158.61L841.934 1101.04L832.073 1083.25L817.067 1071.26L837.716 1035.53L865.772 1030.13L869.163 938.167L851.52 949.549C850.949 1009.42 844.479 1006.51 828.949 967.582L804.994 979.563Z" fill="black" fill-opacity="0.4"/>
<path fill-rule="evenodd" clip-rule="evenodd" d="M1010.52 1445.45L1158.08 1442.24C1161.37 1442.17 1164.1 1444.76 1164.21 1448.05L1166.91 1533.33C1166.98 1535.48 1165.9 1537.49 1164.08 1538.62C1164.08 1538.62 1120.15 1565.79 1086.62 1571.28C1072.41 1573.61 1057.35 1569.44 1044.43 1563.38C1025.83 1554.65 1011.8 1542.23 1011.8 1542.23C1010.61 1541.18 1009.88 1539.69 1009.79 1538.09L1004.66 1451.8C1004.57 1450.17 1005.13 1448.58 1006.24 1447.38C1007.35 1446.18 1008.89 1445.48 1010.52 1445.45ZM1010.65 1451.45L1015.78 1537.74C1015.78 1537.74 1053.06 1570.7 1085.65 1565.36C1118.24 1560.02 1160.92 1533.53 1160.92 1533.53L1158.21 1448.24L1010.65 1451.45Z" fill="black"/>
<path fill-rule="evenodd" clip-rule="evenodd" d="M1023.5 1486.88C1023.5 1486.88 1018.79 1507.72 1029.62 1509.98C1040.46 1512.24 1146.55 1505.66 1146.55 1505.66L1147.35 1486.74L1139.19 1483.5L1140.1 1498.89L1033.94 1502.05L1028.78 1484.19L1023.5 1486.88Z" stroke="black" stroke-width="4" stroke-miterlimit="1.5" stroke-linecap="round" stroke-linejoin="round"/>
<path fill-rule="evenodd" clip-rule="evenodd" d="M1128.72 1508.77C1128.72 1508.77 1034.48 1507.56 1033.28 1511.08C1032.85 1512.34 1126.05 1517.3 1125.44 1518.81C1121.85 1527.7 1115.03 1539.97 1103.62 1544.62C1088.93 1550.61 1076.5 1556.63 1076.5 1556.63C1102.94 1554.93 1131.15 1548.63 1154.23 1526.45L1152.3 1456.62L1034.12 1486.08C1068.21 1486.95 1100.42 1489.74 1128.18 1497.06L1136.61 1496.85L1140.24 1487.1L1147.46 1487.16L1146.36 1507.72L1128.72 1508.77Z" fill="black" fill-opacity="0.3"/>
<path fill-rule="evenodd" clip-rule="evenodd" d="M1023.3 1458.56L1023.5 1486.88L1030.51 1483.11L1135.26 1481.58L1146.43 1485.26L1147.13 1457.74L1023.3 1458.56Z" fill="#636363"/>
<path fill-rule="evenodd" clip-rule="evenodd" d="M1023.28 1455.57L1147.11 1454.74C1147.92 1454.73 1148.7 1455.06 1149.27 1455.63C1149.84 1456.21 1150.15 1457 1150.13 1457.81L1149.43 1485.34C1149.41 1486.29 1148.93 1487.17 1148.16 1487.72C1147.38 1488.26 1146.39 1488.41 1145.49 1488.11L1134.8 1484.58L1031.29 1486.1L1024.92 1489.52C1024 1490.02 1022.88 1490 1021.97 1489.46C1021.07 1488.92 1020.51 1487.95 1020.5 1486.9L1020.3 1458.59C1020.29 1457.79 1020.6 1457.03 1021.16 1456.46C1021.72 1455.89 1022.48 1455.57 1023.28 1455.57ZM1023.3 1458.56L1023.5 1486.88L1030.51 1483.11L1135.26 1481.58L1146.43 1485.26L1147.13 1457.74L1023.3 1458.56Z" fill="black"/>
<path fill-rule="evenodd" clip-rule="evenodd" d="M965.958 1333.32L965.912 1341.52L1001.6 1342.35L1003.49 1329.75L965.958 1333.32Z" fill="#FF050B"/>
<path fill-rule="evenodd" clip-rule="evenodd" d="M965.674 1330.33L1003.2 1326.76C1004.12 1326.68 1005.03 1327.02 1005.66 1327.69C1006.3 1328.35 1006.59 1329.28 1006.45 1330.2L1004.57 1342.79C1004.34 1344.29 1003.04 1345.38 1001.53 1345.35L965.843 1344.52C964.207 1344.48 962.903 1343.14 962.912 1341.5L962.958 1333.3C962.967 1331.76 964.141 1330.48 965.674 1330.33ZM965.958 1333.32L965.912 1341.52L1001.6 1342.35L1003.49 1329.75L965.958 1333.32Z" fill="black"/>
<path fill-rule="evenodd" clip-rule="evenodd" d="M1147.38 1343.56L1134.11 1343.18L1131.79 1394.3L1123.61 1393.77L1122.97 1342.99L1109.46 1346.65L1110.23 1331.74L1149.27 1330.96L1147.38 1343.56ZM1109.29 1396.9L1146.82 1393.34L1144.93 1405.94L1109.24 1405.11L1109.29 1396.9Z" fill="#FF050B"/>
<path fill-rule="evenodd" clip-rule="evenodd" d="M1120.6 1392.82L1120.02 1346.9L1110.24 1349.55C1109.32 1349.8 1108.32 1349.59 1107.57 1348.99C1106.83 1348.38 1106.41 1347.46 1106.46 1346.5L1107.23 1331.59C1107.31 1330.01 1108.6 1328.77 1110.17 1328.74L1149.21 1327.96C1150.09 1327.94 1150.94 1328.32 1151.52 1328.98C1152.1 1329.64 1152.36 1330.53 1152.23 1331.41L1150.35 1344C1150.12 1345.51 1148.81 1346.6 1147.29 1346.56L1136.97 1346.26L1134.92 1391.45L1146.54 1390.35C1147.46 1390.26 1148.36 1390.61 1149 1391.27C1149.63 1391.94 1149.92 1392.87 1149.79 1393.78L1147.9 1406.38C1147.67 1407.88 1146.37 1408.97 1144.86 1408.93L1109.17 1408.1C1107.54 1408.07 1106.24 1406.72 1106.24 1405.09L1106.29 1396.89C1106.3 1395.35 1107.47 1394.06 1109.01 1393.92L1120.6 1392.82ZM1109.29 1396.91L1109.24 1405.11L1144.93 1405.94L1146.82 1393.34L1109.29 1396.91ZM1147.38 1343.56L1149.27 1330.96L1110.23 1331.74L1109.46 1346.65L1122.97 1342.99L1123.61 1393.77L1131.79 1394.3L1134.11 1343.18L1147.38 1343.56Z" fill="black"/>
<path fill-rule="evenodd" clip-rule="evenodd" d="M1208.83 1344.49L1191.04 1342.62L1189.89 1407.78L1171.91 1405.87L1177.24 1342.47L1164.71 1342.76L1162.5 1329.3L1206.62 1329.37L1208.83 1344.49Z" fill="#FF050B"/>
<path fill-rule="evenodd" clip-rule="evenodd" d="M1208.51 1347.48L1193.98 1345.95L1192.89 1407.82C1192.88 1408.67 1192.51 1409.46 1191.88 1410.02C1191.25 1410.58 1190.41 1410.84 1189.58 1410.76L1171.6 1408.85C1169.97 1408.68 1168.79 1407.24 1168.92 1405.61L1173.97 1345.55L1164.78 1345.76C1163.28 1345.8 1161.99 1344.72 1161.74 1343.24L1159.54 1329.78C1159.39 1328.91 1159.64 1328.03 1160.21 1327.35C1160.78 1326.68 1161.62 1326.3 1162.5 1326.3L1206.62 1326.37C1208.11 1326.37 1209.37 1327.47 1209.59 1328.94L1211.8 1344.06C1211.93 1344.98 1211.63 1345.9 1210.99 1346.57C1210.35 1347.24 1209.44 1347.57 1208.51 1347.48ZM1208.83 1344.49L1206.62 1329.37L1162.5 1329.3L1164.7 1342.76L1177.24 1342.47L1171.91 1405.87L1189.89 1407.78L1191.04 1342.62L1208.83 1344.49Z" fill="black"/>
<path fill-rule="evenodd" clip-rule="evenodd" d="M969.476 1365.84L969.43 1375.11L1005.12 1376.05L1007.01 1361.81L969.476 1365.84Z" fill="#FF050B"/>
<path fill-rule="evenodd" clip-rule="evenodd" d="M969.156 1362.86L1006.69 1358.82C1007.6 1358.73 1008.51 1359.05 1009.15 1359.71C1009.8 1360.37 1010.1 1361.29 1009.98 1362.2L1008.09 1376.44C1007.89 1377.96 1006.57 1379.09 1005.04 1379.04L969.351 1378.11C967.72 1378.07 966.422 1376.72 966.43 1375.1L966.476 1365.83C966.484 1364.3 967.637 1363.02 969.156 1362.86ZM969.476 1365.84L969.43 1375.11L1005.12 1376.05L1007.01 1361.81L969.476 1365.84Z" fill="black"/>
<path fill-rule="evenodd" clip-rule="evenodd" d="M968.425 1396.77L968.379 1406.86L1004.07 1407.88L1005.96 1392.38L968.425 1396.77Z" fill="#FF050B"/>
<path fill-rule="evenodd" clip-rule="evenodd" d="M968.077 1393.79L1005.61 1389.4C1006.52 1389.29 1007.43 1389.61 1008.08 1390.26C1008.73 1390.91 1009.05 1391.83 1008.93 1392.74L1007.05 1408.24C1006.86 1409.78 1005.53 1410.92 1003.98 1410.87L968.293 1409.86C966.665 1409.81 965.372 1408.47 965.379 1406.84L965.425 1396.75C965.432 1395.24 966.57 1393.97 968.077 1393.79ZM968.425 1396.77L968.379 1406.86L1004.07 1407.88L1005.96 1392.38L968.425 1396.77Z" fill="black"/>
<path fill-rule="evenodd" clip-rule="evenodd" d="M1046.57 1371.04L1021.93 1335.26L1042.02 1335.29L1057.32 1356.4L1072.77 1335.18L1092.85 1335.01L1067.13 1365.93L1092.61 1405.11L1071.23 1403.56L1057.22 1384.15L1043.08 1403.66L1021.68 1405.35L1046.57 1371.04Z" fill="#FF050B"/>
<path fill-rule="evenodd" clip-rule="evenodd" d="M1043.08 1371L1019.58 1336.88C1018.97 1336 1018.9 1334.87 1019.4 1333.93C1019.89 1332.99 1020.86 1332.4 1021.93 1332.4L1042.01 1332.43C1042.93 1332.43 1043.79 1332.87 1044.33 1333.61L1057.32 1351.54L1070.45 1333.5C1070.99 1332.78 1071.84 1332.33 1072.74 1332.33L1092.83 1332.16C1093.93 1332.15 1094.96 1332.78 1095.43 1333.79C1095.9 1334.8 1095.76 1335.98 1095.04 1336.85L1070.67 1366.14L1095.01 1403.55C1095.6 1404.46 1095.62 1405.62 1095.07 1406.56C1094.52 1407.49 1093.49 1408.03 1092.41 1407.96L1071.02 1406.41C1070.18 1406.35 1069.41 1405.92 1068.91 1405.23L1057.22 1389.03L1045.4 1405.34C1044.9 1406.01 1044.14 1406.44 1043.3 1406.5L1021.91 1408.2C1020.8 1408.29 1019.74 1407.72 1019.2 1406.75C1018.65 1405.78 1018.72 1404.58 1019.37 1403.67L1043.08 1371ZM1046.57 1371.04L1021.68 1405.35L1043.08 1403.66L1057.22 1384.15L1071.23 1403.56L1092.61 1405.11L1067.13 1365.93L1092.85 1335.01L1072.77 1335.18L1057.32 1356.4L1042.02 1335.29L1021.93 1335.26L1046.57 1371.04Z" fill="black"/>
<path d="M954.78 1424.41L950.635 1654.2L995.271 1675.33L979.265 1700.23L893.122 1695.45L874.243 1724.65L903.628 1755.68L826 1968.59" stroke="black" stroke-width="6" stroke-miterlimit="1.5" stroke-linecap="round" stroke-linejoin="round"/>
<path d="M1210.08 1423.25L1214.74 1653.59L1170.11 1674.72L1186.11 1699.62L1272.26 1694.84L1291.14 1724.04L1261.75 1755.07L1339.38 1967.98" stroke="black" stroke-width="6" stroke-miterlimit="1.5" stroke-linecap="round" stroke-linejoin="round"/>
<path fill-rule="evenodd" clip-rule="evenodd" d="M1457.11 1742.98C1464.76 1739.57 1472.82 1739.03 1479.82 1740.75C1488.12 1742.78 1494.85 1748.13 1498.17 1755.76C1501.49 1763.6 1500.5 1772.4 1496.15 1780.02C1492.37 1786.64 1485.94 1792.29 1477.79 1795.65C1469.54 1798.81 1461.01 1799.1 1453.75 1796.86C1445.38 1794.28 1438.67 1788.53 1435.78 1780.51C1433.02 1772.66 1434.31 1764.14 1438.99 1756.95C1442.94 1750.88 1449.2 1745.75 1457.11 1742.98ZM1458.41 1746.25C1451.71 1749.24 1446.59 1754.11 1443.55 1759.68C1440.37 1765.49 1439.63 1772.1 1442.19 1777.99C1444.62 1783.71 1449.81 1787.46 1455.98 1789.09C1461.68 1790.6 1468.27 1790.25 1474.6 1787.64C1481.02 1785.19 1486.08 1780.91 1489.22 1775.88C1492.62 1770.44 1493.89 1764.12 1491.78 1758.27C1489.65 1752.21 1484.63 1747.89 1478.36 1745.83C1472.37 1743.86 1465.32 1743.83 1458.41 1746.25Z" fill="black"/>
<path fill-rule="evenodd" clip-rule="evenodd" d="M1406.77 1817.82C1415.23 1814.05 1424.14 1813.43 1431.88 1815.31C1441.08 1817.55 1448.53 1823.44 1452.2 1831.88C1455.87 1840.54 1454.75 1850.27 1449.91 1858.7C1445.72 1866.01 1438.61 1872.24 1429.59 1875.96C1420.47 1879.45 1411.05 1879.78 1403.02 1877.33C1393.75 1874.49 1386.31 1868.15 1383.11 1859.28C1380.07 1850.61 1381.51 1841.18 1386.71 1833.24C1391.09 1826.54 1398.02 1820.88 1406.77 1817.82ZM1408.21 1821.44C1400.8 1824.74 1395.12 1830.12 1391.75 1836.26C1388.22 1842.69 1387.38 1849.99 1390.2 1856.5C1392.88 1862.82 1398.64 1866.94 1405.46 1868.73C1411.77 1870.39 1419.06 1869.99 1426.07 1867.1C1433.17 1864.39 1438.78 1859.67 1442.27 1854.11C1446.05 1848.1 1447.46 1841.12 1445.13 1834.65C1442.78 1827.96 1437.22 1823.2 1430.28 1820.94C1423.65 1818.78 1415.86 1818.75 1408.21 1821.44Z" fill="black"/>
<path fill-rule="evenodd" clip-rule="evenodd" d="M1492.69 1666.61C1501.42 1662.33 1510.72 1661.73 1518.24 1664.03C1524.6 1665.99 1529.62 1670.13 1532.39 1675.85C1535.78 1683.05 1534.81 1691.48 1530.36 1698.94C1526.77 1704.97 1520.78 1710.27 1513.2 1713.71C1505.53 1716.95 1497.58 1717.75 1490.73 1716.3C1482.24 1714.5 1475.41 1709.48 1472.45 1702.08C1470.14 1696.16 1470.53 1689.65 1473.43 1683.65C1476.86 1676.55 1483.62 1670.12 1492.69 1666.61ZM1494.14 1669.93C1487.94 1672.98 1483.19 1677.57 1480.3 1682.64C1477.21 1688.07 1476.44 1694.1 1478.94 1699.26C1481.29 1704.25 1486.35 1707.16 1492.27 1708.14C1497.64 1709.04 1503.76 1708.28 1509.65 1705.6C1515.61 1703.09 1520.34 1699.1 1523.34 1694.54C1526.65 1689.51 1527.96 1683.8 1525.91 1678.67C1523.84 1673.33 1518.91 1669.79 1512.84 1668.38C1507.17 1667.06 1500.59 1667.44 1494.14 1669.93Z" fill="black"/>
<path fill-rule="evenodd" clip-rule="evenodd" d="M1520.31 1583.37C1529.57 1578.16 1539.79 1576.98 1548.27 1579.11C1555.35 1580.89 1561.14 1585.1 1564.63 1591.15C1568.97 1598.82 1568.6 1608.09 1564.37 1616.5C1560.92 1623.36 1554.74 1629.56 1546.63 1633.79C1538.41 1637.78 1529.68 1639.1 1521.99 1637.85C1512.62 1636.32 1504.8 1631.23 1500.97 1623.36C1497.31 1615.61 1498 1606.66 1502.65 1598.77C1506.35 1592.51 1512.4 1586.9 1520.31 1583.37ZM1522.15 1587.04C1515.62 1590.72 1510.82 1595.99 1508.11 1601.67C1505.23 1607.7 1504.93 1614.23 1508.06 1619.64C1511.04 1624.9 1516.78 1627.77 1523.29 1628.53C1529.23 1629.23 1535.88 1628.06 1542.11 1624.82C1548.38 1621.77 1553.2 1617.19 1556.06 1612.08C1559.21 1606.49 1560.15 1600.28 1557.52 1594.87C1554.84 1589.2 1549.22 1585.61 1542.53 1584.38C1536.22 1583.21 1529.03 1583.96 1522.15 1587.04Z" fill="black"/>
<path fill-rule="evenodd" clip-rule="evenodd" d="M1456.34 1755.31C1440.89 1761.45 1438.51 1771.36 1442.48 1780.13C1448.69 1793.82 1463.05 1794.64 1470.98 1792.86C1487.22 1789.21 1500.13 1783.52 1494.64 1769.52C1489.15 1755.52 1471.79 1749.18 1456.34 1755.31Z" fill="#E4FFCA"/>
<path fill-rule="evenodd" clip-rule="evenodd" d="M1455.67 1753.63C1463.55 1750.05 1472.04 1749.7 1479.46 1751.87C1487.8 1754.31 1494.65 1760.09 1498.18 1768.13C1501.64 1776.24 1499.83 1782.27 1495.26 1786.95C1492.98 1789.29 1489.86 1791.26 1486.11 1792.88C1482.02 1794.65 1477.13 1795.97 1471.93 1797.11C1466.85 1798.12 1459.5 1798.25 1452.84 1795.32C1447.43 1792.94 1442.4 1788.71 1439.45 1781.5C1436.97 1775.33 1436.95 1768.81 1441.15 1763.17C1443.91 1759.46 1448.52 1756.06 1455.67 1753.63ZM1457.01 1756.99C1451.2 1759.64 1447.52 1762.76 1445.49 1766.1C1442.98 1770.23 1443.45 1774.68 1445.52 1778.75C1448.01 1783.76 1451.81 1786.53 1455.8 1788C1460.86 1789.87 1466.29 1789.54 1470.02 1788.61C1474.65 1787.54 1478.98 1786.28 1482.66 1784.74C1485.31 1783.64 1487.62 1782.43 1489.3 1780.86C1491.84 1778.49 1492.67 1775.32 1491.09 1770.91C1488.87 1764.51 1483.83 1759.8 1477.59 1757.36C1471.38 1754.93 1464.07 1754.57 1457.01 1756.99Z" fill="#FF4500"/>
<path fill-rule="evenodd" clip-rule="evenodd" d="M1405.91 1831.44C1388.8 1838.23 1386.14 1849.18 1390.53 1858.85C1397.38 1873.97 1413.28 1874.85 1422.06 1872.87C1440.04 1868.82 1454.33 1862.53 1448.28 1847.07C1442.22 1831.62 1423.02 1824.64 1405.91 1831.44Z" fill="black"/>
<path fill-rule="evenodd" clip-rule="evenodd" d="M1492.37 1678.67C1477.62 1685.13 1473.41 1690.3 1478.66 1702.36C1483.91 1714.42 1495.29 1718.23 1510.04 1711.77C1524.79 1705.31 1529.81 1694.38 1528.61 1688.82C1525.83 1675.95 1507.12 1672.21 1492.37 1678.67Z" fill="#E4FFCA"/>
<path fill-rule="evenodd" clip-rule="evenodd" d="M1491.64 1677.01C1500.28 1672.7 1510.4 1671.89 1518.3 1674.27C1525.36 1676.4 1530.54 1681.2 1532.3 1688.02C1533.21 1691.66 1532.27 1697.29 1528.29 1702.98C1525.04 1707.59 1519.67 1712.25 1511.81 1715.81C1503.89 1719.1 1496.84 1719.84 1491.01 1718.28C1484.04 1716.41 1478.61 1711.51 1475.55 1703.71C1473.15 1697.4 1472.86 1692.71 1474.66 1688.87C1476.84 1684.2 1482.23 1680.57 1491.64 1677.01ZM1493.1 1680.32C1487.16 1683.3 1483.13 1685.89 1480.94 1688.85C1478.57 1692.08 1479.16 1695.72 1481.76 1701.01C1484.24 1706.19 1488.06 1709.37 1492.9 1710.38C1497.3 1711.31 1502.47 1710.4 1508.27 1707.73C1513.31 1705.58 1517.07 1702.85 1519.78 1700.03C1523.53 1696.13 1525.4 1692.25 1524.91 1689.62C1523.93 1683.88 1518.87 1680.39 1512.64 1678.93C1506.62 1677.52 1499.54 1677.88 1493.1 1680.32Z" fill="#FF4500"/>
<path fill-rule="evenodd" clip-rule="evenodd" d="M1520.53 1597.38C1504.68 1605.37 1501.74 1608.6 1508.5 1621.49C1515.27 1634.39 1522.96 1637.33 1538.81 1629.35C1554.66 1621.36 1561.64 1616.4 1558.3 1607.46C1553.21 1593.86 1536.39 1589.4 1520.53 1597.38Z" fill="#E4FFCA"/>
<path fill-rule="evenodd" clip-rule="evenodd" d="M1519.61 1595.55C1527.37 1591.08 1535.52 1589.67 1542.65 1590.75C1551.56 1592.11 1558.75 1597.53 1562.35 1605.95C1564.47 1611.05 1563.9 1615.31 1561.31 1619.37C1559.43 1622.33 1556.14 1625.23 1551.37 1628.21C1548.51 1629.99 1545.04 1631.79 1541.05 1633.8C1532.4 1637.92 1525.79 1639.2 1520.5 1638.01C1514.11 1636.58 1509.17 1631.86 1505.1 1623.28C1501.97 1616.48 1501.07 1611.89 1502.37 1608.22C1503.13 1606.04 1504.53 1604.05 1506.92 1602.22C1509.7 1600.1 1513.84 1598.04 1519.61 1595.55ZM1521.46 1599.21C1515.26 1602.8 1511.26 1605.37 1509.28 1608.13C1507.12 1611.14 1508.64 1614.2 1511.9 1619.71C1515 1625.08 1518.01 1628.35 1522.23 1629.02C1526.04 1629.62 1530.55 1628.09 1536.57 1624.89C1543.64 1621.42 1548.84 1618.63 1552.02 1615.72C1554.22 1613.73 1555.17 1611.75 1554.24 1608.98C1552.27 1602.86 1547.45 1598.8 1541.33 1597.21C1535.4 1595.68 1528.42 1596.18 1521.46 1599.21Z" fill="#FF4500"/>
<path fill-rule="evenodd" clip-rule="evenodd" d="M724.727 1783.93C732.633 1786.7 738.895 1791.83 742.846 1797.9C747.526 1805.08 748.814 1813.61 746.06 1821.46C743.166 1829.48 736.455 1835.23 728.087 1837.81C720.824 1840.05 712.296 1839.76 704.05 1836.6C695.892 1833.24 689.469 1827.59 685.688 1820.97C681.338 1813.35 680.344 1804.55 683.668 1796.71C686.985 1789.07 693.715 1783.73 702.015 1781.7C709.019 1779.98 717.072 1780.52 724.727 1783.93ZM723.426 1787.2C716.513 1784.78 709.464 1784.81 703.473 1786.78C697.209 1788.84 692.187 1793.16 690.061 1799.22C687.95 1805.07 689.211 1811.39 692.613 1816.83C695.759 1821.86 700.82 1826.14 707.232 1828.59C713.57 1831.2 720.157 1831.55 725.86 1830.04C732.024 1828.4 737.22 1824.66 739.646 1818.94C742.205 1813.05 741.462 1806.44 738.286 1800.63C735.247 1795.06 730.125 1790.18 723.426 1787.2Z" fill="black"/>
<path fill-rule="evenodd" clip-rule="evenodd" d="M775.067 1858.76C783.812 1861.83 790.741 1867.49 795.124 1874.19C800.326 1882.13 801.766 1891.56 798.723 1900.23C795.525 1909.09 788.09 1915.44 778.813 1918.28C770.787 1920.73 761.361 1920.4 752.246 1916.91C743.224 1913.19 736.117 1906.96 731.923 1899.65C727.085 1891.22 725.968 1881.49 729.641 1872.83C733.306 1864.39 740.761 1858.5 749.96 1856.26C757.7 1854.38 766.603 1855 775.067 1858.76ZM773.629 1862.39C765.98 1859.7 758.184 1859.73 751.558 1861.89C744.619 1864.15 739.056 1868.91 736.708 1875.6C734.377 1882.07 735.787 1889.05 739.568 1895.06C743.058 1900.61 748.665 1905.34 755.762 1908.05C762.778 1910.94 770.065 1911.34 776.373 1909.68C783.2 1907.89 788.954 1903.76 791.632 1897.45C794.459 1890.94 793.621 1883.64 790.089 1877.21C786.715 1871.07 781.041 1865.69 773.629 1862.39Z" fill="black"/>
<path fill-rule="evenodd" clip-rule="evenodd" d="M689.144 1707.56C698.211 1711.06 704.978 1717.5 708.404 1724.6C711.301 1730.6 711.693 1737.11 709.389 1743.03C706.43 1750.43 699.595 1755.45 691.11 1757.25C684.255 1758.7 676.309 1757.9 668.636 1754.66C661.057 1751.22 655.07 1745.92 651.475 1739.89C647.029 1732.43 646.056 1724 649.451 1716.8C652.213 1711.08 657.235 1706.94 663.594 1704.98C671.114 1702.67 680.42 1703.27 689.144 1707.56ZM687.693 1710.88C681.244 1708.39 674.661 1708.01 668.998 1709.33C662.926 1710.74 657.997 1714.28 655.921 1719.62C653.871 1724.75 655.189 1730.46 658.498 1735.49C661.496 1740.05 666.225 1744.04 672.188 1746.55C678.074 1749.23 684.201 1749.99 689.567 1749.09C695.486 1748.11 700.549 1745.2 702.9 1740.21C705.392 1735.05 704.622 1729.02 701.533 1723.59C698.649 1718.52 693.896 1713.93 687.693 1710.88Z" fill="black"/>
<path fill-rule="evenodd" clip-rule="evenodd" d="M661.529 1624.32C669.435 1627.85 675.49 1633.46 679.184 1639.72C683.836 1647.6 684.53 1656.56 680.863 1664.31C677.04 1672.18 669.214 1677.27 659.849 1678.8C652.16 1680.05 643.43 1678.73 635.21 1674.74C627.1 1670.5 620.919 1664.31 617.466 1657.45C613.234 1649.04 612.868 1639.77 617.205 1632.09C620.693 1626.05 626.488 1621.84 633.564 1620.06C642.044 1617.93 652.264 1619.11 661.529 1624.32ZM659.682 1627.99C652.81 1624.91 645.617 1624.16 639.306 1625.33C632.612 1626.56 626.997 1630.15 624.311 1635.82C621.688 1641.22 622.631 1647.44 625.772 1653.03C628.641 1658.13 633.453 1662.72 639.729 1665.77C645.953 1669.01 652.601 1670.17 658.545 1669.48C665.056 1668.72 670.797 1665.85 673.771 1660.59C676.902 1655.18 676.602 1648.65 673.73 1642.62C671.02 1636.94 666.214 1631.67 659.682 1627.99Z" fill="black"/>
<path fill-rule="evenodd" clip-rule="evenodd" d="M725.493 1796.26C740.943 1802.4 743.327 1812.31 739.352 1821.08C733.146 1834.77 718.781 1835.59 710.858 1833.81C694.617 1830.15 681.709 1824.47 687.199 1810.47C692.687 1796.47 710.042 1790.12 725.493 1796.26Z" fill="#E4FFCA"/>
<path fill-rule="evenodd" clip-rule="evenodd" d="M726.162 1794.57C733.316 1797.01 737.925 1800.41 740.687 1804.12C744.884 1809.76 744.864 1816.28 742.387 1822.45C739.432 1829.66 734.407 1833.89 728.999 1836.27C722.339 1839.2 714.982 1839.07 709.902 1838.06C704.705 1836.92 699.817 1835.6 695.722 1833.83C691.981 1832.21 688.853 1830.23 686.575 1827.9C682.003 1823.22 680.198 1817.19 683.653 1809.08C687.185 1801.03 694.035 1795.26 702.372 1792.82C709.795 1790.65 718.288 1791 726.162 1794.57ZM724.824 1797.94C717.767 1795.52 710.459 1795.88 704.244 1798.31C698.003 1800.75 692.962 1805.45 690.742 1811.86C689.162 1816.26 689.994 1819.44 692.533 1821.81C694.216 1823.38 696.522 1824.58 699.179 1825.69C702.854 1827.23 707.183 1828.49 711.815 1829.56C715.545 1830.49 720.972 1830.82 726.039 1828.95C730.023 1827.48 733.823 1824.71 736.318 1819.7C738.385 1815.63 738.856 1811.18 736.346 1807.05C734.316 1803.71 730.635 1800.59 724.824 1797.94Z" fill="#FF4500"/>
<path fill-rule="evenodd" clip-rule="evenodd" d="M775.93 1872.38C793.04 1879.18 795.692 1890.13 791.303 1899.8C784.452 1914.91 768.552 1915.8 759.779 1913.82C741.797 1909.77 727.502 1903.48 733.56 1888.02C739.617 1872.57 758.819 1865.59 775.93 1872.38Z" fill="black"/>
<path fill-rule="evenodd" clip-rule="evenodd" d="M689.468 1719.62C704.22 1726.07 708.427 1731.25 703.178 1743.31C697.93 1755.37 686.55 1759.18 671.798 1752.72C657.045 1746.26 652.029 1735.33 653.23 1729.77C656.005 1716.9 674.716 1713.16 689.468 1719.62Z" fill="#E4FFCA"/>
<path fill-rule="evenodd" clip-rule="evenodd" d="M690.193 1717.96C699.603 1721.52 705 1725.15 707.181 1729.82C708.975 1733.66 708.689 1738.35 706.281 1744.66C703.221 1752.46 697.797 1757.36 690.825 1759.23C684.997 1760.79 677.943 1760.05 670.028 1756.76C662.168 1753.2 656.791 1748.54 653.55 1743.93C649.561 1738.24 648.625 1732.61 649.533 1728.97C651.298 1722.15 656.479 1717.35 663.54 1715.22C671.438 1712.84 681.559 1713.65 690.193 1717.96ZM688.741 1721.27C682.301 1718.83 675.218 1718.47 669.196 1719.88C662.97 1721.34 657.91 1724.83 656.925 1730.56C656.441 1733.2 658.303 1737.08 662.054 1740.98C664.764 1743.79 668.529 1746.53 673.565 1748.68C679.364 1751.35 684.539 1752.26 688.938 1751.33C693.779 1750.32 697.595 1747.14 700.074 1741.96C702.674 1736.67 703.269 1733.02 700.893 1729.8C698.71 1726.84 694.676 1724.25 688.741 1721.27Z" fill="#FF4500"/>
<path fill-rule="evenodd" clip-rule="evenodd" d="M661.303 1638.33C677.155 1646.32 680.099 1649.55 673.335 1662.44C666.57 1675.34 658.879 1678.28 643.027 1670.3C627.175 1662.31 620.199 1657.35 623.541 1648.41C628.629 1634.81 645.451 1630.35 661.303 1638.33Z" fill="#E4FFCA"/>
<path fill-rule="evenodd" clip-rule="evenodd" d="M662.226 1636.5C667.992 1638.99 672.137 1641.05 674.917 1643.17C677.308 1645 678.703 1646.99 679.469 1649.16C680.762 1652.84 679.867 1657.42 676.733 1664.23C672.665 1672.81 667.724 1677.53 661.331 1678.96C656.042 1680.15 649.435 1678.87 640.781 1674.75C636.793 1672.74 633.327 1670.94 630.47 1669.16C625.695 1666.18 622.408 1663.28 620.526 1660.32C617.934 1656.26 617.361 1652 619.483 1646.9C623.086 1638.48 630.277 1633.06 639.186 1631.7C646.317 1630.62 654.471 1632.03 662.226 1636.5ZM660.378 1640.16C653.415 1637.13 646.434 1636.63 640.51 1638.16C634.384 1639.75 629.564 1643.81 627.598 1649.93C626.669 1652.7 627.617 1654.68 629.811 1656.67C632.992 1659.58 638.193 1662.37 645.271 1665.84C651.285 1669.04 655.798 1670.57 659.605 1669.97C663.825 1669.29 666.834 1666.03 669.934 1660.66C673.198 1655.15 674.714 1652.09 672.554 1649.08C670.576 1646.31 666.574 1643.75 660.378 1640.16Z" fill="#FF4500"/>
<path d="M1223.69 1049.47C1252.89 1045.95 1273.71 1019.5 1270.19 990.409C1266.68 961.317 1240.16 940.592 1210.96 944.119C1181.77 947.646 1160.95 974.09 1164.46 1003.18C1167.98 1032.28 1194.49 1053 1223.69 1049.47Z" fill="#F4EC62"/>
<path fill-rule="evenodd" clip-rule="evenodd" d="M1210.37 939.156C1226.19 937.757 1241.05 942.791 1252.42 952.125C1263.61 961.31 1271.48 974.571 1273.07 990.062C1274.86 1005.4 1270.17 1019.97 1261.3 1031.24C1252.44 1042.49 1239.39 1050.49 1224.05 1052.45C1208.62 1054.48 1193.85 1050.02 1182.39 1041.28C1170.81 1032.44 1162.65 1019.2 1160.58 1003.65C1158.49 987.98 1163.05 972.945 1172 961.286C1181.01 949.551 1194.53 941.291 1210.37 939.156ZM1211.56 949.083C1198.26 950.519 1186.77 957.155 1178.97 966.79C1171.07 976.539 1166.89 989.291 1168.34 1002.71C1169.81 1016.29 1176.68 1027.99 1186.6 1035.89C1196.57 1043.86 1209.62 1048.02 1223.33 1046.51C1237.13 1044.93 1249.07 1037.98 1257.05 1027.89C1265.06 1017.76 1269.05 1004.54 1267.33 990.756C1265.43 977.136 1258.19 965.51 1247.92 957.907C1237.87 950.468 1224.91 947.039 1211.56 949.083Z" fill="black"/>
<path fill-rule="evenodd" clip-rule="evenodd" d="M1254.24 966.59L1217.47 997.151L1258.68 1023.13C1271.42 1003.7 1268.7 984.908 1254.24 966.59Z" fill="#E61A1A"/>
<path fill-rule="evenodd" clip-rule="evenodd" d="M1201.28 954.271L1218.23 996.216L1253.49 967.493C1239.36 950.046 1222.56 946.648 1201.28 954.271Z" fill="#E6611A"/>
<path d="M1230.23 1215.05C1259.43 1211.52 1280.25 1185.07 1276.74 1155.98C1273.22 1126.89 1246.7 1106.16 1217.51 1109.69C1188.31 1113.22 1167.49 1139.66 1171 1168.76C1174.52 1197.85 1201.04 1218.57 1230.23 1215.05Z" fill="#F4EC62"/>
<path fill-rule="evenodd" clip-rule="evenodd" d="M1216.91 1104.73C1232.73 1103.33 1247.6 1108.36 1258.97 1117.7C1270.15 1126.88 1278.03 1140.14 1279.62 1155.63C1281.4 1170.97 1276.71 1185.54 1267.84 1196.81C1258.99 1208.07 1245.93 1216.06 1230.6 1218.02C1215.17 1220.05 1200.4 1215.59 1188.93 1206.85C1177.35 1198.02 1169.19 1184.77 1167.12 1169.22C1165.03 1153.55 1169.59 1138.52 1178.55 1126.86C1187.55 1115.12 1201.07 1106.86 1216.91 1104.73ZM1218.11 1114.66C1204.8 1116.09 1193.32 1122.73 1185.52 1132.36C1177.61 1142.11 1173.44 1154.86 1174.89 1168.29C1176.36 1181.86 1183.22 1193.56 1193.14 1201.47C1203.12 1209.43 1216.16 1213.59 1229.88 1212.08C1243.68 1210.5 1255.61 1203.55 1263.6 1193.46C1271.6 1183.34 1275.59 1170.11 1273.87 1156.33C1271.97 1142.71 1264.73 1131.08 1254.46 1123.48C1244.41 1116.04 1231.45 1112.61 1218.11 1114.66Z" fill="black"/>
<path fill-rule="evenodd" clip-rule="evenodd" d="M1260.79 1132.16L1224.02 1162.72L1265.22 1188.7C1277.96 1169.27 1275.25 1150.48 1260.79 1132.16Z" fill="#E61A1A"/>
<path fill-rule="evenodd" clip-rule="evenodd" d="M1207.82 1119.84L1224.77 1161.79L1260.03 1133.07C1245.9 1115.62 1229.1 1112.22 1207.82 1119.84Z" fill="#E6611A"/>
<path d="M1378.57 1218.28C1407.77 1214.75 1428.59 1188.31 1425.07 1159.22C1421.56 1130.12 1395.04 1109.4 1365.84 1112.93C1336.65 1116.45 1315.83 1142.9 1319.34 1171.99C1322.86 1201.08 1349.37 1221.81 1378.57 1218.28Z" fill="#F2E83A"/>
<path fill-rule="evenodd" clip-rule="evenodd" d="M1365.24 1107.96C1381.07 1106.56 1395.93 1111.6 1407.3 1120.93C1418.49 1130.12 1426.36 1143.38 1427.95 1158.87C1429.73 1174.21 1425.05 1188.77 1416.18 1200.05C1407.32 1211.3 1394.27 1219.3 1378.93 1221.26C1363.5 1223.28 1348.73 1218.82 1337.27 1210.08C1325.69 1201.25 1317.53 1188 1315.46 1172.46C1313.37 1156.79 1317.93 1141.75 1326.88 1130.09C1335.89 1118.36 1349.41 1110.1 1365.24 1107.96ZM1366.44 1117.89C1353.14 1119.33 1341.65 1125.96 1333.85 1135.6C1325.94 1145.35 1321.77 1158.1 1323.22 1171.52C1324.69 1185.09 1331.56 1196.79 1341.48 1204.7C1351.45 1212.66 1364.5 1216.83 1378.21 1215.31C1392.01 1213.74 1403.95 1206.78 1411.93 1196.69C1419.94 1186.57 1423.93 1173.35 1422.2 1159.56C1420.31 1145.94 1413.07 1134.32 1402.79 1126.71C1392.75 1119.27 1379.78 1115.85 1366.44 1117.89Z" fill="black"/>
<path fill-rule="evenodd" clip-rule="evenodd" d="M1409.12 1135.4L1372.35 1165.96L1413.55 1191.93C1426.3 1172.51 1423.58 1153.71 1409.12 1135.4Z" fill="#E61A1A"/>
<path fill-rule="evenodd" clip-rule="evenodd" d="M1356.16 1123.08L1373.11 1165.02L1408.37 1136.3C1394.24 1118.85 1377.44 1115.45 1356.16 1123.08Z" fill="#E6611A"/>
<path d="M554.826 1479.89C657.536 1458.9 757.571 1427.71 851.928 1429.81L865.355 1399.4L916.315 1401.3L927.754 1425.66C1041.97 1412.14 1154.3 1415.93 1263.74 1425.7L1273.6 1396.94L1329.16 1393.47L1336.82 1430.47C1430.41 1429.72 1519.43 1440.91 1605.63 1451.34" stroke="black" stroke-width="7" stroke-miterlimit="1.5" stroke-linecap="round" stroke-linejoin="round"/>
<path fill-rule="evenodd" clip-rule="evenodd" d="M1086.45 1002.57L1081.17 1003.43C1079.6 1003.66 1078.03 1003.06 1076.99 1001.87C1076.99 1001.87 1068.28 991.716 1067 983.391C1066.27 978.734 1067.5 974.566 1071.38 971.64C1073.73 969.875 1079.78 967.614 1087.66 965.635C1098.14 962.999 1112.09 960.537 1123.7 959.014C1133.1 957.787 1141.04 957.242 1144.66 957.64C1148.74 958.104 1150.32 960.512 1150.67 961.809C1151.04 963.215 1151.22 966.72 1151.12 970.881C1150.95 978.749 1150.15 989.28 1150.15 989.28C1150.02 991.199 1148.68 992.812 1146.82 993.279L1145.61 993.565L1148.4 996.613C1149.86 998.16 1149.93 1000.55 1148.57 1002.19L1142.31 1009.6C1141.09 1011.08 1138.99 1011.52 1137.27 1010.65L1132.76 1008.29L1132.17 1033.69C1132.15 1034.79 1131.64 1035.84 1130.77 1036.52C1129.89 1037.2 1128.76 1037.44 1127.68 1037.18L1119.61 1035.14C1119.59 1035.14 1119.58 1035.14 1119.57 1035.13L1096.52 1028.99C1095.62 1028.75 1094.87 1028.16 1094.44 1027.35C1094.01 1026.53 1093.94 1025.57 1094.25 1024.7L1098.83 1012.53L1089.81 1013.32C1088.8 1013.37 1087.81 1012.99 1087.11 1012.27C1086.39 1011.54 1086.03 1010.54 1086.11 1009.54L1086.45 1002.57ZM1121.27 1028.25L1124.88 1029.07L1124.89 1001.72C1124.91 1000.34 1125.64 999.061 1126.82 998.344C1128 997.627 1129.48 997.569 1130.71 998.196L1138.01 1001.81L1139.7 999.729L1134.27 994.049C1133.22 992.927 1132.84 991.331 1133.28 989.858C1133.71 988.376 1134.89 987.246 1136.38 986.864L1141.48 985.523C1141.64 982.482 1141.84 977.704 1141.91 973.293C1141.96 970.789 1141.99 968.418 1141.93 966.673C1141.09 966.794 1140.12 966.962 1139.26 967.005C1128.91 967.601 1109.2 970.849 1094.29 974.311C1086.17 976.189 1079.54 977.897 1077.27 979.571C1076.49 980.139 1076.52 981.062 1076.65 981.993C1076.81 983.233 1077.24 984.521 1077.78 985.785C1079.14 988.974 1081.18 992.012 1082.57 993.889L1103.22 991.334C1105.42 991.018 1107.49 992.48 1107.93 994.652C1108.38 996.835 1107.04 998.981 1104.89 999.553L1093.97 1002.12L1093.54 1006.2L1103.23 1006.02C1104.25 1005.97 1105.24 1006.43 1105.85 1007.24C1106.46 1008.08 1106.62 1009.14 1106.26 1010.1L1101.61 1023.49C1101.61 1023.49 1121.23 1028.23 1121.27 1028.25ZM1143.17 966.544C1143.47 966.87 1143.98 967.462 1144.07 967.009C1144.13 966.628 1143.76 966.523 1143.17 966.544Z" fill="black"/>
<path fill-rule="evenodd" clip-rule="evenodd" d="M1099.3 977.885L1110.91 987.865C1112.25 989.244 1112.55 991.334 1111.64 993.034C1110.74 994.725 1108.84 995.64 1106.95 995.303C1106.95 995.303 1101.13 994.798 1096.95 994.064C1094.56 993.647 1092.75 993.101 1092.75 993.101C1091.31 992.841 1090.08 991.943 1089.38 990.667C1088.69 989.391 1088.61 987.86 1089.17 986.522C1089.17 986.522 1090.24 984.52 1091.53 982.592C1092.86 980.588 1094.3 978.832 1094.3 978.832C1094.7 977.888 1095.54 977.201 1096.54 977.009C1097.55 976.828 1098.58 977.146 1099.3 977.885Z" fill="black"/>
<path fill-rule="evenodd" clip-rule="evenodd" d="M1121.29 986.873C1119.71 987.467 1117.97 986.661 1117.37 985.081C1116.79 983.499 1117.59 981.74 1119.17 981.146C1119.17 981.146 1119.64 980.274 1121.15 979.004C1121.76 978.486 1122.48 977.967 1123.39 977.554C1124.44 977.065 1125.68 976.805 1126.89 976.527C1131.23 975.54 1135.44 975.101 1135.44 975.101C1137.03 974.507 1138.79 975.322 1139.37 976.903C1139.96 978.474 1139.16 980.233 1137.58 980.827C1137.58 980.827 1134.09 983.252 1130.17 985.327C1129.07 985.914 1127.96 986.521 1126.84 986.848C1125.88 987.125 1125 987.201 1124.2 987.208C1122.22 987.234 1121.29 986.873 1121.29 986.873Z" fill="black"/>
<path fill-rule="evenodd" clip-rule="evenodd" d="M1106.11 1011.12C1106.63 1009.5 1108.34 1008.61 1109.94 1009.11C1111.56 1009.62 1112.45 1011.34 1111.95 1012.94C1111.95 1012.94 1112.24 1014.36 1112.1 1016.87C1112.04 1017.98 1111.89 1019.22 1111.55 1020.57C1111.14 1022.17 1110.43 1023.8 1109.74 1025.44C1107.35 1031.15 1104.56 1036.48 1104.56 1036.48C1104.05 1038.08 1102.34 1038.98 1100.73 1038.47C1099.11 1037.97 1098.22 1036.26 1098.72 1034.64C1098.72 1034.64 1099.48 1028.68 1100.78 1022.62C1101.15 1020.89 1101.51 1019.14 1102.08 1017.61C1102.57 1016.3 1103.16 1015.19 1103.74 1014.24C1105.07 1012.11 1106.11 1011.12 1106.11 1011.12Z" fill="black"/>
<path fill-rule="evenodd" clip-rule="evenodd" d="M1115.81 1014.9C1116 1013.24 1117.51 1012.03 1119.18 1012.22C1120.85 1012.41 1122.07 1013.93 1121.87 1015.6C1121.87 1015.6 1122.44 1016.41 1122.9 1018.32C1123.07 1019.09 1123.22 1019.95 1123.18 1020.95C1123.13 1022.1 1122.81 1023.3 1122.51 1024.51C1121.43 1028.79 1119.91 1032.71 1119.91 1032.71C1119.72 1034.38 1118.21 1035.58 1116.53 1035.39C1114.87 1035.2 1113.65 1033.69 1113.85 1032.01C1113.85 1032.01 1113.25 1027.85 1113.17 1023.44C1113.15 1022.2 1113.11 1020.95 1113.32 1019.83C1113.51 1018.85 1113.84 1018.03 1114.2 1017.32C1115.07 1015.57 1115.81 1014.9 1115.81 1014.9Z" fill="black"/>
<path fill-rule="evenodd" clip-rule="evenodd" d="M1030.28 1093.08L1138.13 1049.52L1135.96 1035.3C1135.71 1033.58 1136.55 1031.89 1138.08 1031.05L1154.06 1022.11C1155.52 1021.3 1157.31 1021.41 1158.66 1022.39C1160 1023.35 1160.67 1025.03 1160.37 1026.65L1156.64 1047.5L1167.94 1050.93C1169.45 1051.4 1170.62 1052.63 1171.01 1054.17C1171.4 1055.71 1170.97 1057.34 1169.86 1058.49L1158.55 1070.27C1156.95 1071.91 1154.4 1072.16 1152.53 1070.85L1145.32 1065.91C1137.49 1069.88 1112.48 1082.55 1090.25 1093.65C1073.48 1102.01 1058.29 1109.46 1053.39 1111.87L1045.48 1131.93C1044.75 1133.82 1042.88 1135.03 1040.86 1134.89L1026.34 1133.74C1025.15 1133.66 1024.03 1133.09 1023.25 1132.18C1022.47 1131.27 1022.09 1130.07 1022.21 1128.88L1023.91 1113.72L1020.19 1114.84C1019 1115.24 1017.7 1115.02 1016.68 1114.29L1007.94 1107.65C1007.15 1107.06 1006.62 1106.19 1006.47 1105.21C1006.32 1104.23 1006.57 1103.24 1007.16 1102.45L1017.71 1088.98C1018.72 1087.64 1020.57 1087.26 1022.03 1088.09L1030.28 1093.08ZM1028.5 1099.13L1021.38 1095.29L1015.3 1103.78L1019.58 1106.78L1027.4 1104.06C1028.72 1103.63 1030.17 1103.89 1031.25 1104.75C1032.34 1105.62 1032.9 1106.97 1032.78 1108.36L1031.43 1125.12L1038.03 1125.48L1045.07 1106.62C1045.5 1105.49 1046.34 1104.56 1047.42 1104.02C1047.42 1104.02 1065.36 1094.9 1085.79 1084.71C1112.55 1071.36 1143.56 1056.17 1143.56 1056.17C1145.11 1055.4 1146.96 1055.53 1148.38 1056.52L1154.63 1060.9L1158.08 1057.4L1150.22 1054.9C1148.06 1054.23 1146.74 1052.04 1147.14 1049.82L1150.19 1033.98L1144.61 1037L1146.6 1051.48C1146.87 1053.34 1145.83 1055.14 1144.09 1055.83L1031.13 1099.32C1030.27 1099.65 1029.3 1099.59 1028.5 1099.13Z" fill="black"/>
<path fill-rule="evenodd" clip-rule="evenodd" d="M1134.16 1112.26L1145.51 1098.91C1146.24 1098.07 1147.36 1097.68 1148.46 1097.84C1149.56 1098 1150.5 1098.71 1150.96 1099.73L1160.5 1119.47C1161.33 1121.27 1160.6 1123.4 1158.85 1124.32L1150.03 1129.16C1148.77 1129.82 1147.25 1129.74 1146.06 1128.95L1144.04 1127.66L1141.61 1142.66C1141.21 1144.92 1139.1 1146.48 1136.81 1146.17L1124.63 1144.67C1123.39 1144.5 1122.28 1143.83 1121.57 1142.8C1120.87 1141.77 1120.63 1140.49 1120.91 1139.28L1124.22 1124.87C1120.86 1121.7 1113.3 1114.54 1104.37 1106C1086.56 1088.97 1063.24 1066.46 1056.12 1059.59L1049.37 1062.89C1048.35 1063.39 1047.17 1063.46 1046.1 1063.1C1045.03 1062.73 1044.15 1061.94 1043.66 1060.92L1037.33 1047.57C1036.76 1046.38 1036.8 1044.97 1037.43 1043.81C1038.05 1042.64 1039.2 1041.84 1040.52 1041.66L1050.88 1040.31L1053.16 1018.81C1053.31 1017.31 1054.32 1016.02 1055.75 1015.52C1057.18 1015.03 1058.77 1015.41 1059.82 1016.5L1070.7 1027.93C1071.72 1028.99 1072.03 1030.56 1071.49 1031.93L1065.85 1045.97L1134.16 1112.26ZM1058.01 1046.08C1057.39 1047.07 1056.35 1047.77 1055.14 1047.94L1047.3 1049.07L1049.41 1053.37L1055.03 1050.54C1056.65 1049.73 1058.61 1050.03 1059.92 1051.28C1059.92 1051.28 1089.4 1079.05 1110.72 1099.34C1122.88 1110.91 1132.36 1120.07 1132.36 1120.07C1133.53 1121.19 1134.03 1122.83 1133.65 1124.41L1130.66 1136.62L1133.91 1137.08L1137.08 1120.24C1137.32 1118.91 1138.21 1117.78 1139.46 1117.24C1140.72 1116.7 1142.15 1116.83 1143.29 1117.59L1148.52 1121.19L1152.3 1119.29L1146.95 1107.02L1136.46 1118.25C1135.96 1118.82 1135.23 1119.16 1134.47 1119.19C1133.71 1119.23 1132.97 1118.94 1132.41 1118.41L1059.05 1049.51C1058.12 1048.62 1057.74 1047.32 1058.01 1046.08ZM1058.61 1044.42C1059.9 1041.08 1063.6 1031.45 1063.6 1031.45L1060.13 1027.91L1058.62 1044.32C1058.62 1044.35 1058.62 1044.39 1058.61 1044.42Z" fill="black"/>
<path fill-rule="evenodd" clip-rule="evenodd" d="M1212.6 998.164C1210.92 998.024 1209.67 996.543 1209.81 994.864C1209.96 993.184 1211.43 991.938 1213.11 992.078C1213.11 992.078 1215.57 991.55 1219.53 991.292C1221.39 991.178 1223.55 991.129 1225.89 991.25C1228.68 991.405 1231.69 991.848 1234.69 992.261C1245.05 993.719 1255.13 995.654 1255.13 995.654C1256.81 995.793 1258.06 997.275 1257.92 998.953C1257.77 1000.63 1256.3 1001.88 1254.62 1001.74C1254.62 1001.74 1244.35 1001.94 1233.89 1001.63C1230.87 1001.54 1227.82 1001.46 1225.04 1001.13C1222.73 1000.86 1220.61 1000.45 1218.79 1000.01C1214.93 999.101 1212.6 998.164 1212.6 998.164Z" fill="black"/>
<path fill-rule="evenodd" clip-rule="evenodd" d="M1540.35 980.933L1193.74 1087.97L536.756 1243.78L560.138 1333.06L1198.69 1157.07L1563.74 1070.21L1540.35 980.933Z" fill="#D8CF82" stroke="black" stroke-width="10" stroke-miterlimit="1.5" stroke-linecap="round" stroke-linejoin="round"/>
<path fill-rule="evenodd" clip-rule="evenodd" d="M594.025 1230.19L675.835 1301.17L735.712 1285.88L657.225 1215.73L594.025 1230.19Z" fill="black"/>
<path fill-rule="evenodd" clip-rule="evenodd" d="M750.219 1185.59L832.029 1256.57L891.906 1241.28L813.419 1171.13L750.219 1185.59Z" fill="black"/>
<path fill-rule="evenodd" clip-rule="evenodd" d="M909.166 1149.64L990.976 1220.62L1050.85 1205.33L972.366 1135.18L909.166 1149.64Z" fill="black"/>
<path fill-rule="evenodd" clip-rule="evenodd" d="M1045.18 1116.61L1117.5 1175.27L1170.43 1162.64L1101.05 1104.66L1045.18 1116.61Z" fill="black"/>
<path fill-rule="evenodd" clip-rule="evenodd" d="M1179.14 1089.27L1251.46 1147.94L1304.39 1135.3L1235.01 1077.32L1179.14 1089.27Z" fill="black"/>
<path fill-rule="evenodd" clip-rule="evenodd" d="M1304.47 1050.39L1376.79 1109.06L1429.72 1096.42L1360.34 1038.44L1304.47 1050.39Z" fill="black"/>
<path fill-rule="evenodd" clip-rule="evenodd" d="M1571.5 1233.24L1193.76 1226.11L526.057 1193.81L524.152 1286.08L1186.49 1291.29L1592.88 1306.34L1571.5 1233.24Z" fill="#D8CF82" stroke="black" stroke-width="10" stroke-miterlimit="1.5" stroke-linecap="round" stroke-linejoin="round"/>
<path fill-rule="evenodd" clip-rule="evenodd" d="M584.859 1196.39L644.159 1287.02L705.935 1288.68L649.605 1199.75L584.859 1196.39Z" fill="black"/>
<path fill-rule="evenodd" clip-rule="evenodd" d="M747.295 1196.17L806.594 1286.81L868.371 1288.46L812.041 1199.53L747.295 1196.17Z" fill="black"/>
<path fill-rule="evenodd" clip-rule="evenodd" d="M910.019 1205.02L969.319 1295.65L1031.1 1297.31L974.765 1208.38L910.019 1205.02Z" fill="black"/>
<path fill-rule="evenodd" clip-rule="evenodd" d="M1049.88 1210.41L1103.41 1286.61L1157.79 1288.92L1106.89 1214.18L1049.88 1210.41Z" fill="black"/>
<path fill-rule="evenodd" clip-rule="evenodd" d="M1186.21 1220.72L1239.75 1296.92L1294.12 1299.23L1243.22 1224.49L1186.21 1220.72Z" fill="black"/>
<path fill-rule="evenodd" clip-rule="evenodd" d="M1317.39 1217.58L1370.93 1293.77L1425.3 1296.08L1374.4 1221.35L1317.39 1217.58Z" fill="black"/>
<path fill-rule="evenodd" clip-rule="evenodd" d="M1436.79 1224.44L1490.33 1300.63L1544.7 1302.94L1493.8 1228.21L1436.79 1224.44Z" fill="black"/>
<path fill-rule="evenodd" clip-rule="evenodd" d="M580.249 1863.77L948.16 1841.72C1181.91 1837.13 1409.36 1786.44 1618.16 1732.44L1628.18 1824.19C1428.01 1866.39 1201.73 1907.21 961.138 1906.01L565.392 1938.47L580.249 1863.77Z" fill="#D8CF82" stroke="black" stroke-width="10" stroke-miterlimit="1.5" stroke-linecap="round" stroke-linejoin="round"/>
<path fill-rule="evenodd" clip-rule="evenodd" d="M1457.72 1776.29L1409.23 1867.7L1350.72 1874.36L1396.54 1784.82L1457.72 1776.29Z" fill="black"/>
<path fill-rule="evenodd" clip-rule="evenodd" d="M1330 1801.08L1281.5 1883.93L1225.69 1891.4L1271.6 1810.29L1330 1801.08Z" fill="black"/>
<path fill-rule="evenodd" clip-rule="evenodd" d="M1211.53 1816.42L1159.39 1895.52L1102.54 1904.49L1151.99 1827.11L1211.53 1816.42Z" fill="black"/>
<path fill-rule="evenodd" clip-rule="evenodd" d="M1078.68 1829.73L1028 1905.16L973.2 1914.02L1021.28 1840.24L1078.68 1829.73Z" fill="black"/>
<path fill-rule="evenodd" clip-rule="evenodd" d="M941.894 1841.69L900.129 1914.11L851.729 1920.44L891.252 1849.54L941.894 1841.69Z" fill="black"/>
<path fill-rule="evenodd" clip-rule="evenodd" d="M831.992 1825.79L785.373 1906.41L731.417 1913.49L775.537 1834.57L831.992 1825.79Z" fill="black"/>
<path fill-rule="evenodd" clip-rule="evenodd" d="M713.658 1843.14L667.039 1923.76L613.083 1930.84L657.203 1851.92L713.658 1843.14Z" fill="black"/>
<path d="M802.736 1154.57C820.642 1145.52 828.682 1125.37 820.691 1109.57C812.701 1093.77 791.707 1088.3 773.8 1097.35C755.893 1106.41 747.854 1126.56 755.844 1142.36C763.835 1158.16 784.829 1163.63 802.736 1154.57Z" fill="#EFE313"/>
<path fill-rule="evenodd" clip-rule="evenodd" d="M750.335 1050.95C795.366 1028.18 846.999 1046.37 867.093 1086.1C887.187 1125.84 871.23 1178.21 826.2 1200.98C781.17 1223.75 729.536 1205.56 709.442 1165.82C689.348 1126.08 705.306 1073.72 750.335 1050.95ZM773.8 1097.35C755.908 1106.4 747.864 1126.57 755.847 1142.36C763.834 1158.15 784.842 1163.62 802.734 1154.57C820.636 1145.52 828.675 1125.36 820.688 1109.57C812.706 1093.78 791.702 1088.3 773.8 1097.35Z" fill="#DED797" fill-opacity="0.72"/>
<path d="M802.736 1154.57C820.642 1145.52 828.682 1125.37 820.691 1109.57C812.701 1093.77 791.707 1088.3 773.8 1097.35C755.893 1106.41 747.854 1126.56 755.844 1142.36C763.835 1158.16 784.829 1163.63 802.736 1154.57Z" fill="#EFE313"/>
<path fill-rule="evenodd" clip-rule="evenodd" d="M771.094 1092C792.118 1081.37 816.662 1088.31 826.043 1106.86C835.425 1125.41 826.468 1149.3 805.443 1159.93C784.421 1170.56 759.874 1163.62 750.493 1145.06C741.111 1126.51 750.072 1102.63 771.094 1092ZM773.801 1097.35C755.908 1106.4 747.865 1126.57 755.847 1142.36C763.834 1158.15 784.843 1163.62 802.735 1154.57C820.637 1145.52 828.676 1125.36 820.689 1109.57C812.706 1093.78 791.703 1088.3 773.801 1097.35Z" fill="black"/>
<path d="M797.614 1103.03L791.42 1117.92" stroke="black" stroke-width="10" stroke-miterlimit="1.5" stroke-linecap="round" stroke-linejoin="round"/>
<path fill-rule="evenodd" clip-rule="evenodd" d="M757.671 1130.87C757.671 1130.87 761.941 1146.07 782.324 1137.06C790.467 1133.46 815.245 1123.07 815.245 1123.07L812.207 1100.15C812.207 1100.15 815.668 1123.8 819.15 1130.15C820.065 1131.83 806.367 1145.8 799.908 1152.46C798.76 1153.65 770.809 1148.47 759.116 1146.25C756.001 1145.65 756.3 1130.8 757.671 1130.87Z" fill="#E7E7E7"/>
<path fill-rule="evenodd" clip-rule="evenodd" d="M808.252 1100.73L808.247 1100.68C807.96 1098.49 809.481 1096.49 811.662 1096.19C813.838 1095.89 815.853 1097.39 816.172 1099.57C816.172 1099.57 816.172 1099.59 816.176 1099.63C816.347 1100.85 819.427 1122.34 822.66 1128.23C823.017 1128.89 823.266 1129.71 823.182 1130.74C823.109 1131.53 822.624 1133.01 821.398 1134.77C818.074 1139.52 808.071 1149.79 802.783 1155.24C802.36 1155.67 801.656 1156.23 800.485 1156.48C799.775 1156.63 798.188 1156.68 795.959 1156.46C787.762 1155.67 767.812 1151.97 758.368 1150.18C756.848 1149.89 755.27 1148.85 754.254 1146.69C752.666 1143.33 752.413 1135.3 753.057 1131.68C753.428 1129.6 754.365 1128.35 754.928 1127.87C755.857 1127.09 756.866 1126.83 757.859 1126.87C759.576 1126.95 761.055 1128.13 761.521 1129.78C761.521 1129.78 762.608 1133.45 766.423 1135.09C769.501 1136.43 774.03 1136.34 780.704 1133.4C787.184 1130.53 804.137 1123.4 810.873 1120.56L808.252 1100.73ZM757.671 1130.87C756.3 1130.8 756.001 1145.65 759.116 1146.25C770.809 1148.47 798.76 1153.65 799.908 1152.46C806.367 1145.8 820.065 1131.83 819.15 1130.15C815.668 1123.8 812.207 1100.15 812.207 1100.15L815.245 1123.07C815.245 1123.07 790.466 1133.46 782.324 1137.06C761.941 1146.07 757.671 1130.87 757.671 1130.87Z" fill="black"/>
<path fill-rule="evenodd" clip-rule="evenodd" d="M816.403 1124.23L816.843 1123.63L818.043 1124.51L817.601 1125.11C817.601 1125.11 812.352 1132.87 806.2 1139.01C802.844 1142.36 799.18 1145.15 796.025 1146.22C794.262 1146.78 792.093 1147.26 789.711 1147.59C787.722 1147.87 785.586 1148.05 783.43 1148.17C780.2 1148.35 776.931 1148.38 774.042 1148.36C768.697 1148.3 764.682 1148.02 764.682 1148.02L763.938 1148.01L763.958 1146.52L764.703 1146.53C764.703 1146.53 768.682 1146.36 773.963 1145.96C776.8 1145.75 780.004 1145.46 783.169 1145.1C785.246 1144.86 787.301 1144.59 789.221 1144.28C791.407 1143.94 793.414 1143.57 795.039 1143.07C797.883 1142.25 801.159 1139.79 804.309 1137C810.67 1131.36 816.403 1124.23 816.403 1124.23Z" fill="black"/>
<path fill-rule="evenodd" clip-rule="evenodd" d="M806.233 1126.8L806.071 1126.19L807.289 1125.87L807.452 1126.48C807.452 1126.48 808.047 1127.38 808.672 1128.6C808.791 1128.83 808.902 1129.07 808.997 1129.32C809.086 1129.58 809.171 1129.83 809.216 1130.08C809.28 1130.46 809.281 1130.81 809.276 1131.15C809.263 1132.17 809.139 1132.82 809.139 1132.82L809.301 1133.43L808.082 1133.76L807.921 1133.14C807.921 1133.14 807.494 1132.64 806.973 1131.77C806.801 1131.47 806.626 1131.17 806.494 1130.81C806.405 1130.57 806.352 1130.31 806.308 1130.04C806.262 1129.77 806.24 1129.51 806.228 1129.25C806.159 1127.88 806.233 1126.8 806.233 1126.8Z" fill="black"/>
<path fill-rule="evenodd" clip-rule="evenodd" d="M790.95 1131.28L790.702 1130.36L792.569 1129.86L792.817 1130.8C792.817 1130.8 793.799 1132.4 794.822 1134.54C795.018 1134.95 795.205 1135.37 795.362 1135.82C795.517 1136.27 795.662 1136.71 795.743 1137.15C795.864 1137.81 795.885 1138.43 795.897 1139.01C795.933 1140.77 795.776 1141.9 795.776 1141.9L796.025 1142.84L794.158 1143.34L793.91 1142.4C793.91 1142.4 793.206 1141.49 792.368 1139.95C792.086 1139.44 791.796 1138.89 791.575 1138.26C791.423 1137.84 791.328 1137.37 791.245 1136.92C791.159 1136.46 791.111 1135.99 791.077 1135.54C790.899 1133.18 790.95 1131.28 790.95 1131.28Z" fill="black"/>
<path fill-rule="evenodd" clip-rule="evenodd" d="M798.249 1145.67L798.087 1145.06L799.303 1144.74L799.466 1145.34C799.466 1145.34 800.061 1146.24 800.684 1147.46C800.803 1147.7 800.915 1147.94 801.008 1148.19C801.099 1148.44 801.184 1148.69 801.227 1148.95C801.292 1149.32 801.292 1149.67 801.288 1150.02C801.275 1151.04 801.15 1151.68 801.15 1151.68L801.313 1152.28L800.095 1152.61L799.933 1152.01C799.933 1152.01 799.507 1151.51 798.987 1150.63C798.815 1150.33 798.64 1150.03 798.509 1149.67C798.42 1149.43 798.367 1149.17 798.323 1148.91C798.277 1148.64 798.255 1148.37 798.243 1148.11C798.175 1146.74 798.249 1145.67 798.249 1145.67Z" fill="black"/>
<path fill-rule="evenodd" clip-rule="evenodd" d="M790.984 1147.38L790.751 1146.78L791.923 1146.32L792.154 1146.91C792.154 1146.91 792.85 1147.73 793.61 1148.87C793.756 1149.09 793.895 1149.31 794.017 1149.56C794.136 1149.79 794.249 1150.03 794.322 1150.28C794.43 1150.64 794.471 1150.99 794.507 1151.34C794.613 1152.35 794.563 1153 794.563 1153L794.795 1153.58L793.624 1154.05L793.392 1153.47C793.392 1153.47 792.911 1153.03 792.293 1152.21C792.088 1151.94 791.879 1151.66 791.706 1151.31C791.59 1151.08 791.507 1150.83 791.433 1150.58C791.356 1150.31 791.304 1150.06 791.261 1149.8C791.035 1148.44 790.984 1147.38 790.984 1147.38Z" fill="black"/>
<path fill-rule="evenodd" clip-rule="evenodd" d="M783.97 1146.74L783.738 1146.15L784.909 1145.69L785.141 1146.27C785.141 1146.27 785.836 1147.09 786.597 1148.23C786.743 1148.46 786.881 1148.68 787.004 1148.93C787.122 1149.16 787.236 1149.4 787.309 1149.65C787.416 1150.01 787.457 1150.36 787.493 1150.7C787.599 1151.72 787.549 1152.37 787.549 1152.37L787.781 1152.95L786.61 1153.42L786.379 1152.84C786.379 1152.84 785.898 1152.39 785.279 1151.58C785.074 1151.3 784.865 1151.02 784.693 1150.68C784.576 1150.45 784.494 1150.2 784.419 1149.94C784.343 1149.68 784.29 1149.42 784.248 1149.16C784.021 1147.81 783.97 1146.74 783.97 1146.74Z" fill="black"/>
<path fill-rule="evenodd" clip-rule="evenodd" d="M776.562 1146.45L776.329 1145.86L777.501 1145.4L777.733 1145.98C777.733 1145.98 778.428 1146.8 779.189 1147.94C779.334 1148.17 779.473 1148.39 779.596 1148.63C779.714 1148.86 779.828 1149.1 779.9 1149.36C780.008 1149.72 780.049 1150.07 780.085 1150.41C780.191 1151.43 780.141 1152.08 780.141 1152.08L780.373 1152.66L779.202 1153.13L778.97 1152.54C778.97 1152.54 778.49 1152.1 777.871 1151.28C777.666 1151.01 777.457 1150.73 777.285 1150.39C777.168 1150.16 777.085 1149.9 777.011 1149.65C776.935 1149.39 776.882 1149.13 776.84 1148.87C776.613 1147.52 776.562 1146.45 776.562 1146.45Z" fill="black"/>
<path fill-rule="evenodd" clip-rule="evenodd" d="M803.596 1140.36L803.434 1139.74L804.651 1139.42L804.814 1140.03C804.814 1140.03 805.409 1140.93 806.032 1142.15C806.151 1142.39 806.263 1142.62 806.356 1142.88C806.447 1143.12 806.532 1143.37 806.574 1143.63C806.639 1144.01 806.64 1144.36 806.636 1144.7C806.622 1145.73 806.498 1146.36 806.498 1146.36L806.66 1146.97L805.443 1147.3L805.281 1146.69C805.281 1146.69 804.855 1146.2 804.335 1145.31C804.163 1145.02 803.988 1144.72 803.857 1144.36C803.768 1144.11 803.715 1143.85 803.67 1143.59C803.625 1143.32 803.603 1143.06 803.591 1142.8C803.523 1141.43 803.596 1140.36 803.596 1140.36Z" fill="black"/>
<path fill-rule="evenodd" clip-rule="evenodd" d="M809.012 1134.53L808.85 1133.92L810.067 1133.6L810.23 1134.21C810.23 1134.21 810.825 1135.1 811.448 1136.32C811.567 1136.56 811.679 1136.8 811.772 1137.06C811.863 1137.3 811.948 1137.55 811.991 1137.81C812.055 1138.18 812.056 1138.53 812.052 1138.88C812.039 1139.9 811.914 1140.54 811.914 1140.54L812.076 1141.15L810.859 1141.47L810.697 1140.87C810.697 1140.87 810.271 1140.37 809.751 1139.49C809.579 1139.19 809.404 1138.89 809.273 1138.53C809.184 1138.29 809.131 1138.03 809.086 1137.77C809.041 1137.5 809.019 1137.23 809.007 1136.97C808.939 1135.6 809.012 1134.53 809.012 1134.53Z" fill="black"/>
<path fill-rule="evenodd" clip-rule="evenodd" d="M813.981 1129.09L813.819 1128.47L815.036 1128.15L815.198 1128.76C815.198 1128.76 815.794 1129.65 816.417 1130.87C816.535 1131.11 816.648 1131.35 816.741 1131.61C816.832 1131.85 816.917 1132.1 816.959 1132.36C817.024 1132.73 817.025 1133.08 817.021 1133.43C817.007 1134.45 816.883 1135.09 816.883 1135.09L817.045 1135.7L815.828 1136.02L815.665 1135.42C815.665 1135.42 815.239 1134.92 814.72 1134.04C814.548 1133.74 814.373 1133.44 814.241 1133.08C814.152 1132.84 814.1 1132.58 814.055 1132.32C814.01 1132.05 813.988 1131.79 813.976 1131.52C813.908 1130.15 813.981 1129.09 813.981 1129.09Z" fill="black"/>
<path fill-rule="evenodd" clip-rule="evenodd" d="M775.098 1138.62L774.765 1137.95L776.097 1137.29L776.431 1137.96C776.431 1137.96 777.38 1138.93 778.44 1140.3C778.645 1140.56 778.841 1140.83 779.021 1141.13C779.195 1141.41 779.363 1141.7 779.487 1142.01C779.664 1142.45 779.764 1142.89 779.854 1143.31C780.12 1144.57 780.155 1145.4 780.155 1145.4L780.489 1146.06L779.157 1146.73L778.824 1146.06C778.824 1146.06 778.178 1145.53 777.337 1144.57C777.055 1144.25 776.766 1143.91 776.513 1143.49C776.34 1143.21 776.208 1142.9 776.083 1142.59C775.956 1142.27 775.858 1141.96 775.771 1141.64C775.312 1139.96 775.098 1138.62 775.098 1138.62Z" fill="black"/>
<path d="M764.875 1121.86L776.614 1124.71" stroke="black" stroke-width="10.0354" stroke-miterlimit="1.5" stroke-linecap="round" stroke-linejoin="round"/>
<path fill-rule="evenodd" clip-rule="evenodd" d="M711.208 1315.32C700.671 1314.37 690.064 1314.37 679.53 1315.32L675.18 1343.8C665.498 1345.16 656.009 1347.47 646.886 1350.74L627.58 1328.07C617.946 1332.08 608.758 1336.94 600.147 1342.59L611.918 1369.25C604.274 1374.85 597.33 1381.21 591.207 1388.22L562.12 1377.43C555.966 1385.34 550.661 1393.75 546.28 1402.57L571.018 1420.27C567.459 1428.61 564.917 1437.31 563.436 1446.2L532.361 1450.18C531.338 1459.83 531.338 1469.55 532.361 1479.2L563.436 1483.18C564.917 1492.07 567.459 1500.75 571.018 1509.11L546.28 1526.82C550.661 1535.63 555.966 1544.07 562.12 1551.96L591.207 1541.16C597.33 1548.17 604.274 1554.53 611.918 1560.15L600.147 1586.8C608.758 1592.44 617.946 1597.3 627.58 1601.31L646.886 1578.65C656.009 1581.91 665.498 1584.25 675.18 1585.6L679.53 1614.06C690.064 1615.01 700.671 1615.01 711.208 1614.06L715.555 1585.6C725.237 1584.25 734.726 1581.91 743.849 1578.65L763.155 1601.31C772.789 1597.3 781.977 1592.44 790.588 1586.8L778.817 1560.15C786.461 1554.53 793.405 1548.17 799.529 1541.16L828.615 1551.96C834.769 1544.07 840.075 1535.63 844.455 1526.82L819.717 1509.11C823.276 1500.75 825.818 1492.07 827.299 1483.18L858.374 1479.2C859.397 1469.55 859.397 1459.83 858.374 1450.18L827.299 1446.2C825.818 1437.31 823.276 1428.61 819.717 1420.27L844.455 1402.57C840.075 1393.75 834.769 1385.34 828.615 1377.43L799.529 1388.22C793.405 1381.21 786.461 1374.85 778.817 1369.25L790.588 1342.59C781.977 1336.94 772.789 1332.08 763.155 1328.07L743.849 1350.74C734.726 1347.47 725.237 1345.16 715.555 1343.8L711.208 1315.32ZM695.369 1403.52C732.215 1403.52 762.134 1430.92 762.134 1464.69C762.134 1498.46 732.215 1525.89 695.369 1525.89C658.52 1525.89 628.604 1498.46 628.604 1464.69C628.604 1430.92 658.52 1403.52 695.369 1403.52Z" fill="black" fill-opacity="0.3"/>
<path fill-rule="evenodd" clip-rule="evenodd" d="M1437.37 1297.7C1427.35 1296.74 1417.27 1296.74 1407.25 1297.7L1403.12 1326.26C1393.91 1327.62 1384.9 1329.94 1376.22 1333.21L1357.87 1310.48C1348.71 1314.5 1339.98 1319.37 1331.79 1325.04L1342.98 1351.79C1335.72 1357.4 1329.11 1363.78 1323.29 1370.81L1295.64 1359.98C1289.79 1367.92 1284.75 1376.36 1280.59 1385.2L1304.1 1402.96C1300.72 1411.32 1298.3 1420.05 1296.89 1428.96L1267.35 1432.96C1266.38 1442.64 1266.38 1452.39 1267.35 1462.07L1296.89 1466.06C1298.3 1474.98 1300.72 1483.68 1304.1 1492.06L1280.59 1509.82C1284.75 1518.67 1289.79 1527.13 1295.64 1535.04L1323.29 1524.21C1329.11 1531.24 1335.72 1537.62 1342.98 1543.26L1331.79 1569.98C1339.98 1575.65 1348.71 1580.53 1357.87 1584.54L1376.22 1561.81C1384.9 1565.09 1393.91 1567.43 1403.12 1568.79L1407.25 1597.33C1417.27 1598.28 1427.35 1598.28 1437.37 1597.33L1441.5 1568.79C1450.7 1567.43 1459.72 1565.09 1468.4 1561.81L1486.75 1584.54C1495.91 1580.53 1504.64 1575.65 1512.83 1569.98L1501.64 1543.26C1508.9 1537.62 1515.5 1531.24 1521.33 1524.21L1548.98 1535.04C1554.83 1527.13 1559.87 1518.67 1564.03 1509.82L1540.52 1492.06C1543.9 1483.68 1546.32 1474.98 1547.72 1466.06L1577.26 1462.07C1578.24 1452.39 1578.24 1442.64 1577.26 1432.96L1547.72 1428.96C1546.32 1420.05 1543.9 1411.32 1540.52 1402.96L1564.03 1385.2C1559.87 1376.36 1554.83 1367.92 1548.98 1359.98L1521.33 1370.81C1515.5 1363.78 1508.9 1357.4 1501.64 1351.79L1512.83 1325.04C1504.64 1319.37 1495.91 1314.5 1486.75 1310.48L1468.4 1333.21C1459.72 1329.94 1450.7 1327.62 1441.5 1326.26L1437.37 1297.7ZM1422.31 1386.16C1457.34 1386.16 1485.78 1413.64 1485.78 1447.51C1485.78 1481.38 1457.34 1508.89 1422.31 1508.89C1387.28 1508.89 1358.84 1481.38 1358.84 1447.51C1358.84 1413.64 1387.28 1386.16 1422.31 1386.16Z" fill="black" fill-opacity="0.3"/>
<path fill-rule="evenodd" clip-rule="evenodd" d="M896.428 896.737C906.644 898.113 920.849 901.924 925.622 913.969C929.693 924.233 925.276 941.71 923.427 955.444C921.431 970.26 918.605 988.341 911.164 997.288C903.614 1006.37 891.39 1006.21 881.859 1004.92C871.943 1003.59 861.309 1000.83 856.479 989.349C852.092 978.929 852.948 960.421 854.861 946.211C856.75 932.182 856.946 913.305 863.802 904.435C871.534 894.435 886.4 895.387 896.428 896.737ZM892.63 920.72C897.055 921.316 903.849 922.494 906.343 927.966C909.178 934.196 907.357 945.193 906.287 953.136C905.16 961.503 903.114 971.313 898.659 975.766C895.167 979.258 889.66 978.433 885.502 977.873C881.171 977.29 874.642 976.782 872.187 972.189C869.28 966.745 870.913 956.615 872.003 948.519C873.118 940.235 874.447 927.281 878.799 921.976C882.284 917.729 888.421 920.153 892.63 920.72Z" fill="#777777" stroke="black" stroke-width="8.7121" stroke-miterlimit="1.5" stroke-linecap="round" stroke-linejoin="round"/>
<path fill-rule="evenodd" clip-rule="evenodd" d="M878.799 921.979C881.608 930.255 892.022 942.618 898.114 938.929C904.781 934.892 905.969 885.159 905.969 885.159L881.261 889.272C881.261 889.272 875.99 913.702 878.799 921.979Z" fill="#777777" stroke="black" stroke-width="8.71204" stroke-miterlimit="1.5" stroke-linecap="round" stroke-linejoin="round"/>
<path fill-rule="evenodd" clip-rule="evenodd" d="M878.145 1017.31C888.361 1018.69 902.566 1022.5 907.339 1034.54C911.41 1044.81 906.993 1062.28 905.143 1076.02C903.148 1090.83 900.322 1108.92 892.881 1117.86C885.331 1126.94 873.107 1126.78 863.576 1125.5C853.66 1124.16 843.025 1121.4 838.196 1109.92C833.809 1099.5 834.664 1081 836.578 1066.78C838.467 1052.76 838.662 1033.88 845.519 1025.01C853.25 1015.01 868.116 1015.96 878.145 1017.31ZM874.347 1041.29C878.772 1041.89 885.565 1043.07 888.06 1048.54C890.895 1054.77 889.074 1065.77 888.004 1073.71C886.877 1082.08 884.83 1091.89 880.376 1096.34C876.884 1099.83 871.377 1099.01 867.219 1098.45C862.888 1097.86 856.359 1097.36 853.904 1092.76C850.996 1087.32 852.629 1077.19 853.72 1069.09C854.835 1060.81 856.164 1047.85 860.515 1042.55C864.001 1038.3 870.138 1040.73 874.347 1041.29Z" fill="#777777" stroke="black" stroke-width="8.7121" stroke-miterlimit="1.5" stroke-linecap="round" stroke-linejoin="round"/>
<path fill-rule="evenodd" clip-rule="evenodd" d="M858.586 1143.44C866.414 1146.94 876.79 1153.61 877.386 1166.19C877.897 1176.91 869.659 1192.74 864.487 1205.53C858.907 1219.33 851.784 1236.08 843.41 1243.09C834.912 1250.2 825.146 1247.44 817.842 1244.19C810.244 1240.8 802.451 1235.89 801.658 1223.84C800.936 1212.91 806.592 1195.33 811.944 1182.09C817.227 1169.03 822.453 1150.95 830.336 1143.9C839.226 1135.94 850.9 1140.02 858.586 1143.44ZM849.097 1165.66C852.489 1167.17 857.624 1169.74 858.156 1175.53C858.758 1182.11 854.344 1192.28 851.352 1199.67C848.202 1207.46 843.924 1216.44 839.154 1219.77C835.414 1222.38 831.217 1220.42 828.03 1219C824.711 1217.52 819.608 1215.64 818.872 1210.71C818 1204.87 822.031 1195.49 825.08 1187.95C828.199 1180.24 832.745 1168.09 837.661 1163.92C841.598 1160.58 845.872 1164.22 849.097 1165.66Z" fill="#777777" stroke="black" stroke-width="7.92675" stroke-miterlimit="1.5" stroke-linecap="round" stroke-linejoin="round"/>
<path fill-rule="evenodd" clip-rule="evenodd" d="M800.667 1255.32C803.315 1263.94 805.392 1276.76 796.982 1285.76C789.817 1293.43 773.381 1297.58 761.07 1302.12C747.789 1307.01 731.436 1312.67 721.089 1310.72C710.587 1308.75 706.162 1299.08 703.691 1291.03C701.12 1282.66 699.488 1273.1 707.398 1264.3C714.577 1256.31 730.556 1248.92 743.294 1244.23C755.869 1239.6 771.914 1231.52 781.977 1233.05C793.324 1234.76 798.067 1246.85 800.667 1255.32ZM778.957 1262.79C780.104 1266.52 781.643 1272.37 777.944 1276.72C773.73 1281.66 763.746 1285.02 756.626 1287.65C749.127 1290.41 740.062 1293.08 734.632 1291.52C730.374 1290.3 729.017 1285.61 727.939 1282.1C726.816 1278.44 724.81 1273.09 727.779 1269.16C731.3 1264.51 740.481 1261.37 747.738 1258.7C755.164 1255.97 766.621 1251.36 772.732 1252.47C777.627 1253.36 777.866 1259.24 778.957 1262.79Z" fill="#777777" stroke="black" stroke-width="7.93026" stroke-miterlimit="1.5" stroke-linecap="round" stroke-linejoin="round"/>
<path fill-rule="evenodd" clip-rule="evenodd" d="M696.195 1256.62C690.473 1263.51 681.071 1272.02 669.715 1268.84C660.036 1266.14 648.749 1253.03 639.137 1243.94C628.768 1234.14 616.294 1221.89 612.886 1211.29C609.426 1200.54 615.143 1191.47 620.482 1185.05C626.036 1178.36 633.005 1171.94 643.956 1174.75C653.898 1177.31 667.599 1188.33 677.544 1197.73C687.362 1207.01 701.647 1217.74 705.263 1227.85C709.341 1239.25 701.813 1249.86 696.195 1256.62ZM679.671 1240.33C677.192 1243.31 673.186 1247.74 667.878 1246.54C661.837 1245.18 654.297 1237.65 648.738 1232.39C642.883 1226.86 636.349 1219.82 634.997 1213.99C633.935 1209.41 637.084 1205.75 639.413 1202.94C641.839 1200.02 645.214 1195.41 649.834 1196.15C655.31 1197.02 662.276 1203.92 667.942 1209.28C673.74 1214.76 682.996 1223.02 685.044 1229.26C686.683 1234.25 682.029 1237.49 679.671 1240.33Z" fill="#777777" stroke="black" stroke-width="7.93239" stroke-miterlimit="1.5" stroke-linecap="round" stroke-linejoin="round"/>
<path fill-rule="evenodd" clip-rule="evenodd" d="M619.992 1159.28C611.506 1158.43 599.694 1155.35 595.654 1143.59C592.208 1133.57 595.759 1115.92 597.203 1102.14C598.762 1087.27 600.988 1069.11 607.104 1059.82C613.309 1050.38 623.453 1049.92 631.371 1050.72C639.608 1051.54 648.45 1053.76 652.533 1064.95C656.242 1075.11 655.654 1093.6 654.159 1107.86C652.683 1121.94 652.646 1140.76 647.014 1149.95C640.665 1160.31 628.323 1160.12 619.992 1159.28ZM622.986 1135.18C619.31 1134.81 613.665 1133.99 611.56 1128.66C609.166 1122.59 610.605 1111.54 611.441 1103.57C612.321 1095.18 613.955 1085.29 617.622 1080.63C620.497 1076.97 625.071 1077.52 628.526 1077.86C632.123 1078.22 637.544 1078.4 639.611 1082.85C642.06 1088.13 640.771 1098.31 639.92 1106.43C639.049 1114.74 638.031 1127.72 634.455 1133.23C631.591 1137.64 626.482 1135.54 622.986 1135.18Z" fill="#777777" stroke="black" stroke-width="7.92433" stroke-miterlimit="1.5" stroke-linecap="round" stroke-linejoin="round"/>
<path fill-rule="evenodd" clip-rule="evenodd" d="M879.408 972.737L877.062 958.653C877.062 958.653 902.904 954.774 903.669 962.287C905.205 977.393 886.284 1049.29 886.284 1049.29C886.284 1049.29 882.918 1071.45 872.749 1063.7C862.579 1055.95 868.56 1045.72 868.56 1045.72L879.408 972.737Z" fill="#777777" stroke="black" stroke-width="8.71204" stroke-miterlimit="1.5" stroke-linecap="round" stroke-linejoin="round"/>
<path fill-rule="evenodd" clip-rule="evenodd" d="M864.679 1094.91L864.95 1080.56C864.95 1080.56 890.912 1082.12 890.292 1089.67C889.043 1104.86 857.459 1171.7 857.459 1171.7C857.459 1171.7 850.135 1192.82 841.607 1183.07C833.079 1173.33 840.788 1164.5 840.788 1164.5L864.679 1094.91Z" fill="#777777" stroke="black" stroke-width="8.71356" stroke-miterlimit="1.5" stroke-linecap="round" stroke-linejoin="round"/>
<path fill-rule="evenodd" clip-rule="evenodd" d="M772.637 1253.34L761.531 1258.74C761.531 1258.74 774.581 1282.33 780.209 1279.05C791.524 1272.44 829.422 1219.11 829.422 1219.11C829.422 1219.11 842.603 1204.73 831.094 1200.29C819.584 1195.85 816.19 1206.18 816.19 1206.18L772.637 1253.34Z" fill="#777777" stroke="black" stroke-width="8.23295" stroke-miterlimit="1.5" stroke-linecap="round" stroke-linejoin="round"/>
<path fill-rule="evenodd" clip-rule="evenodd" d="M725.842 1280.37L732.474 1291.08C732.474 1291.08 752.294 1272.95 748.425 1267.63C740.645 1256.92 685.797 1226.85 685.797 1226.85C685.797 1226.85 670.567 1215.62 668.186 1228.57C665.804 1241.53 675.844 1243.19 675.844 1243.19L725.842 1280.37Z" fill="#777777" stroke="black" stroke-width="8.23056" stroke-miterlimit="1.5" stroke-linecap="round" stroke-linejoin="round"/>
<path fill-rule="evenodd" clip-rule="evenodd" d="M634.568 1134.03L636.15 1121.16C636.15 1121.16 610.302 1121.3 609.941 1128.1C609.218 1141.77 631.804 1203.16 631.804 1203.16C631.804 1203.16 636.318 1222.43 645.998 1214.11C655.678 1205.79 649.201 1197.51 649.201 1197.51L634.568 1134.03Z" fill="#777777" stroke="black" stroke-width="8.22814" stroke-miterlimit="1.5" stroke-linecap="round" stroke-linejoin="round"/>
<path fill-rule="evenodd" clip-rule="evenodd" d="M641.127 1012.12L646.474 1000.4C646.474 1000.4 622.098 991.681 619.721 998.036C614.942 1010.81 617.799 1077.07 617.799 1077.07C617.799 1077.07 616.272 1096.98 627.878 1092.37C639.485 1087.76 635.869 1077.65 635.869 1077.65L641.127 1012.12Z" fill="#777777" stroke="black" stroke-width="8.22379" stroke-miterlimit="1.5" stroke-linecap="round" stroke-linejoin="round"/>
<path fill-rule="evenodd" clip-rule="evenodd" d="M921.608 919.91C931.44 919.963 945.343 921.683 951.335 931.593C956.445 940.039 954.409 955.684 954.343 967.798C954.273 980.867 953.816 996.858 947.874 1005.44C941.846 1014.16 930.264 1015.38 921.091 1015.33C911.548 1015.28 901.15 1014.08 895.175 1004.66C889.747 996.116 888.287 979.975 888.355 967.44C888.422 955.067 886.293 938.678 891.691 930.223C897.778 920.69 911.956 919.858 921.608 919.91ZM920.955 941.127C925.215 941.15 931.785 941.414 934.815 945.88C938.261 950.965 937.886 960.703 937.848 967.709C937.808 975.088 937.075 983.823 933.407 988.18C930.532 991.597 925.222 991.496 921.22 991.474C917.052 991.452 910.814 991.739 907.929 988.031C904.511 983.636 904.814 974.671 904.853 967.53C904.892 960.223 904.561 948.843 908.027 943.759C910.803 939.687 916.905 941.105 920.955 941.127Z" fill="#A4A4A4" stroke="black" stroke-width="7.95518" stroke-miterlimit="1.5" stroke-linecap="round" stroke-linejoin="round"/>
<path fill-rule="evenodd" clip-rule="evenodd" d="M907.154 934.714C910.826 941.576 922.192 951.134 927.502 947.256C933.313 943.013 928.34 899.761 928.34 899.761L905.473 906.083C905.473 906.083 903.483 927.852 907.154 934.714Z" fill="#A4A4A4" stroke="black" stroke-width="7.95513" stroke-miterlimit="1.5" stroke-linecap="round" stroke-linejoin="round"/>
<path fill-rule="evenodd" clip-rule="evenodd" d="M914.606 1027.08C924.438 1027.14 938.342 1028.85 944.333 1038.77C949.443 1047.21 947.407 1062.86 947.341 1074.97C947.271 1088.04 946.814 1104.03 940.872 1112.62C934.844 1121.33 923.262 1122.56 914.089 1122.51C904.546 1122.45 894.148 1121.25 888.173 1111.83C882.745 1103.29 881.285 1087.15 881.353 1074.61C881.42 1062.24 879.291 1045.85 884.689 1037.4C890.776 1027.86 904.954 1027.03 914.606 1027.08ZM913.954 1048.3C918.213 1048.32 924.783 1048.59 927.813 1053.05C931.259 1058.14 930.884 1067.87 930.846 1074.88C930.806 1082.26 930.073 1090.99 926.405 1095.35C923.53 1098.77 918.22 1098.67 914.218 1098.65C910.05 1098.62 903.812 1098.91 900.927 1095.2C897.509 1090.81 897.812 1081.84 897.851 1074.7C897.89 1067.39 897.559 1056.02 901.025 1050.93C903.801 1046.86 909.903 1048.28 913.954 1048.3Z" fill="#A4A4A4" stroke="black" stroke-width="7.95518" stroke-miterlimit="1.5" stroke-linecap="round" stroke-linejoin="round"/>
<path fill-rule="evenodd" clip-rule="evenodd" d="M920.547 1129.53C928.625 1129.05 940.074 1130.02 945.155 1139.66C949.489 1147.88 948.069 1163.73 948.21 1175.92C948.362 1189.07 948.245 1205.18 943.502 1214.15C938.691 1223.24 929.195 1225.11 921.659 1225.56C913.818 1226.03 905.257 1225.38 900.197 1216.24C895.6 1207.94 894.141 1191.78 893.995 1179.17C893.851 1166.71 891.837 1150.34 896.135 1141.54C900.983 1131.62 912.617 1130.01 920.547 1129.53ZM920.352 1150.91C923.852 1150.7 929.253 1150.61 931.815 1154.94C934.727 1159.86 934.576 1169.68 934.658 1176.73C934.744 1184.16 934.282 1192.98 931.339 1197.57C929.032 1201.16 924.669 1201.35 921.381 1201.55C917.956 1201.75 912.836 1202.38 910.407 1198.81C907.528 1194.58 907.632 1185.54 907.549 1178.35C907.464 1171 907.009 1159.57 909.774 1154.27C911.989 1150.02 917.024 1151.11 920.352 1150.91Z" fill="#A4A4A4" stroke="black" stroke-width="7.24003" stroke-miterlimit="1.5" stroke-linecap="round" stroke-linejoin="round"/>
<path fill-rule="evenodd" clip-rule="evenodd" d="M910.176 1331.58C902.694 1330.17 892.553 1326.48 890.625 1315.38C888.98 1305.92 894.701 1289.97 897.979 1277.42C901.515 1263.87 906.124 1247.35 912.942 1239.26C919.86 1231.05 929.017 1231.37 935.997 1232.68C943.259 1234.05 950.865 1236.73 952.912 1247.31C954.773 1256.92 951.585 1273.86 948.194 1286.85C944.845 1299.67 942.102 1316.96 935.734 1324.99C928.553 1334.04 917.521 1332.96 910.176 1331.58ZM916.327 1309.66C913.086 1309.05 908.147 1307.88 907.027 1302.83C905.755 1297.08 908.635 1287.04 910.531 1279.77C912.528 1272.13 915.414 1263.17 919.372 1259.15C922.474 1256 926.495 1256.84 929.541 1257.41C932.713 1258.01 937.545 1258.56 938.757 1262.81C940.191 1267.84 937.572 1277.09 935.64 1284.49C933.662 1292.06 930.883 1303.91 926.886 1308.71C923.684 1312.55 919.41 1310.24 916.327 1309.66Z" fill="#A4A4A4" stroke="black" stroke-width="7.2446" stroke-miterlimit="1.5" stroke-linecap="round" stroke-linejoin="round"/>
<path fill-rule="evenodd" clip-rule="evenodd" d="M913.111 1338.97C920.244 1336.09 931.118 1333.59 940.196 1341.19C947.935 1347.67 953.957 1363.1 959.713 1374.6C965.921 1387 973.251 1402.29 973.069 1412.19C972.886 1422.24 965.1 1426.84 958.445 1429.53C951.522 1432.31 943.427 1434.26 934.599 1427.12C926.582 1420.64 917.795 1405.78 911.84 1393.89C905.962 1382.15 896.572 1367.25 896.424 1357.64C896.258 1346.79 906.109 1341.79 913.111 1338.97ZM922.802 1359.26C925.892 1358.02 930.768 1356.31 935.097 1359.64C940.024 1363.44 944.417 1372.77 947.746 1379.42C951.252 1386.42 954.905 1394.92 954.341 1400.14C953.9 1404.23 950.013 1405.71 947.109 1406.88C944.086 1408.1 939.714 1410.23 935.853 1407.57C931.277 1404.43 927.201 1395.84 923.809 1389.07C920.337 1382.13 914.647 1371.45 914.717 1365.6C914.773 1360.92 919.863 1360.45 922.802 1359.26Z" fill="#A4A4A4" stroke="black" stroke-width="7.24773" stroke-miterlimit="1.5" stroke-linecap="round" stroke-linejoin="round"/>
<path fill-rule="evenodd" clip-rule="evenodd" d="M913.168 1535.71C905.592 1532.73 895.44 1526.96 894.195 1515.86C893.131 1506.41 900.045 1492.32 904.231 1480.97C908.748 1468.72 914.56 1453.84 922.081 1447.55C929.713 1441.16 939.077 1443.47 946.145 1446.26C953.499 1449.16 961.118 1453.4 962.519 1464.03C963.795 1473.67 959.411 1489.26 955.08 1501.01C950.804 1512.61 946.854 1528.64 939.798 1534.97C931.841 1542.1 920.605 1538.65 913.168 1535.71ZM920.915 1515.99C917.633 1514.69 912.649 1512.48 911.832 1507.38C910.907 1501.58 914.521 1492.55 916.942 1485.98C919.492 1479.06 923.041 1471.08 927.361 1468.08C930.749 1465.73 934.816 1467.41 937.9 1468.63C941.111 1469.89 946.028 1471.49 946.99 1475.83C948.13 1480.98 944.835 1489.31 942.367 1496C939.842 1502.85 936.213 1513.64 931.8 1517.38C928.266 1520.37 924.037 1517.22 920.915 1515.99Z" fill="#A4A4A4" stroke="black" stroke-width="7.23671" stroke-miterlimit="1.5" stroke-linecap="round" stroke-linejoin="round"/>
<path fill-rule="evenodd" clip-rule="evenodd" d="M910.781 991.971L906.834 980.022C906.834 980.022 930.803 973.776 932.447 980.205C935.753 993.131 926.669 1057.58 926.669 1057.58C926.669 1057.58 926.203 1077.16 915.634 1071.58C905.064 1066 909.467 1056.46 909.467 1056.46L910.781 991.971Z" fill="#A4A4A4" stroke="black" stroke-width="7.95513" stroke-miterlimit="1.5" stroke-linecap="round" stroke-linejoin="round"/>
<path fill-rule="evenodd" clip-rule="evenodd" d="M923.053 1094.06L926.738 1082.11C926.738 1082.11 902.707 1075.63 901.201 1082.06C898.175 1094.99 908.582 1159.71 908.582 1159.71C908.582 1159.71 909.457 1179.37 919.879 1173.86C930.303 1168.36 925.712 1158.75 925.712 1158.75L923.053 1094.06Z" fill="#A4A4A4" stroke="black" stroke-width="7.9569" stroke-miterlimit="1.5" stroke-linecap="round" stroke-linejoin="round"/>
<path fill-rule="evenodd" clip-rule="evenodd" d="M915.601 1260.12L911.373 1271.31C911.373 1271.31 934.39 1275.96 936.2 1269.96C939.84 1257.91 933.212 1198.96 933.212 1198.96C933.212 1198.96 933.421 1180.94 922.99 1186.57C912.559 1192.2 916.504 1200.78 916.504 1200.78L915.601 1260.12Z" fill="#A4A4A4" stroke="black" stroke-width="7.52231" stroke-miterlimit="1.5" stroke-linecap="round" stroke-linejoin="round"/>
<path fill-rule="evenodd" clip-rule="evenodd" d="M931.547 1303.48L934.251 1292.13C934.251 1292.13 911.207 1286.34 910.202 1292.44C908.183 1304.71 922.132 1365.75 922.132 1365.75C922.132 1365.75 924.216 1384.32 933.677 1378.97C943.138 1373.62 938.2 1364.6 938.2 1364.6L931.547 1303.48Z" fill="#A4A4A4" stroke="black" stroke-width="7.52207" stroke-miterlimit="1.5" stroke-linecap="round" stroke-linejoin="round"/>
<path fill-rule="evenodd" clip-rule="evenodd" d="M942.341 1410.02L946.632 1399.65C946.632 1399.65 923.212 1391.65 921.376 1397.28C917.685 1408.59 924.482 1467.52 924.482 1467.52C924.482 1467.52 924.287 1485.21 934.893 1481.23C945.5 1477.24 941.478 1468.22 941.478 1468.22L942.341 1410.02Z" fill="#A4A4A4" stroke="black" stroke-width="7.51689" stroke-miterlimit="1.5" stroke-linecap="round" stroke-linejoin="round"/>
<path fill-rule="evenodd" clip-rule="evenodd" d="M942.779 1517.09L946.4 1506.33C946.4 1506.33 922.274 1501.49 920.804 1507.27C917.851 1518.88 928.676 1576 928.676 1576C928.676 1576 929.673 1593.44 940.086 1588.14C950.5 1582.85 945.84 1574.49 945.84 1574.49L942.779 1517.09Z" fill="#A4A4A4" stroke="black" stroke-width="7.50924" stroke-miterlimit="1.5" stroke-linecap="round" stroke-linejoin="round"/>
<path fill-rule="evenodd" clip-rule="evenodd" d="M977.227 894.686C987.746 894.686 1002.63 896.477 1009.1 907.236C1014.61 916.405 1012.52 933.459 1012.52 946.655C1012.52 960.89 1012.13 978.312 1005.82 987.7C999.424 997.23 987.04 998.631 977.227 998.631C967.019 998.631 955.889 997.377 949.442 987.158C943.586 977.882 941.931 960.308 941.931 946.655C941.931 933.177 939.558 915.337 945.283 906.096C951.74 895.676 966.902 894.686 977.227 894.686ZM976.652 917.8C981.209 917.8 988.239 918.049 991.506 922.896C995.221 928.415 994.877 939.023 994.877 946.655C994.877 954.693 994.144 964.212 990.245 968.98C987.189 972.719 981.509 972.64 977.227 972.64C972.769 972.64 966.097 972.99 962.989 968.968C959.308 964.201 959.579 954.434 959.579 946.655C959.579 938.696 959.159 926.302 962.837 920.743C965.783 916.292 972.319 917.8 976.652 917.8Z" fill="#BABABA" stroke="black" stroke-width="8.58741" stroke-miterlimit="1.5" stroke-linecap="round" stroke-linejoin="round"/>
<path fill-rule="evenodd" clip-rule="evenodd" d="M962.837 920.745C966.805 928.198 979.019 938.542 984.678 934.286C990.869 929.63 985.298 882.547 985.298 882.547L960.873 889.568C960.873 889.568 958.87 913.292 962.837 920.745Z" fill="#BABABA" stroke="black" stroke-width="8.58735" stroke-miterlimit="1.5" stroke-linecap="round" stroke-linejoin="round"/>
<path fill-rule="evenodd" clip-rule="evenodd" d="M975.159 1010.79C985.677 1010.79 1000.56 1012.58 1007.03 1023.34C1012.54 1032.51 1010.46 1049.57 1010.46 1062.76C1010.46 1077 1010.06 1094.42 1003.75 1103.81C997.355 1113.34 984.972 1114.74 975.159 1114.74C964.95 1114.74 953.82 1113.48 947.373 1103.27C941.518 1093.99 939.863 1076.42 939.863 1062.76C939.863 1049.28 937.489 1031.44 943.215 1022.2C949.671 1011.78 964.834 1010.79 975.159 1010.79ZM974.584 1033.91C979.14 1033.91 986.17 1034.16 989.438 1039C993.153 1044.52 992.809 1055.13 992.809 1062.76C992.809 1070.8 992.075 1080.32 988.177 1085.09C985.121 1088.83 979.44 1088.75 975.159 1088.75C970.7 1088.75 964.029 1089.1 960.921 1085.08C957.239 1080.31 957.511 1070.54 957.511 1062.76C957.511 1054.8 957.091 1042.41 960.769 1036.85C963.715 1032.4 970.251 1033.91 974.584 1033.91Z" fill="#BABABA" stroke="black" stroke-width="8.58741" stroke-miterlimit="1.5" stroke-linecap="round" stroke-linejoin="round"/>
<path fill-rule="evenodd" clip-rule="evenodd" d="M972.557 1132.31C980.95 1134.61 992.351 1139.59 994.666 1151.38C996.642 1161.43 990.468 1177.42 986.98 1190.15C983.216 1203.87 978.294 1220.59 970.781 1228.26C963.156 1236.06 952.905 1234.7 945.076 1232.55C936.93 1230.32 928.381 1226.68 925.939 1215.41C923.72 1205.18 927.045 1187.87 930.655 1174.71C934.218 1161.71 937.041 1143.98 944.053 1136.32C951.959 1127.69 964.319 1130.05 972.557 1132.31ZM965.987 1154.47C969.623 1155.47 975.166 1157.25 976.492 1162.64C977.997 1168.77 974.918 1178.93 972.9 1186.29C970.775 1194.04 967.673 1203.06 963.302 1206.8C959.875 1209.74 955.363 1208.42 951.947 1207.49C948.39 1206.51 942.974 1205.39 941.558 1200.83C939.881 1195.43 942.68 1186.07 944.736 1178.57C946.841 1170.89 949.782 1158.84 954.186 1154.29C957.714 1150.64 962.53 1153.52 965.987 1154.47Z" fill="#BABABA" stroke="black" stroke-width="7.81087" stroke-miterlimit="1.5" stroke-linecap="round" stroke-linejoin="round"/>
<path fill-rule="evenodd" clip-rule="evenodd" d="M929.223 1245.24C933.076 1253.04 936.921 1264.88 929.643 1274.44C923.442 1282.59 907.386 1288.59 895.554 1294.44C882.79 1300.74 867.024 1308.16 856.296 1307.64C845.408 1307.11 839.616 1298.54 836.021 1291.26C832.282 1283.69 829.329 1274.88 836.13 1265.57C842.302 1257.12 857.453 1248.11 869.696 1242.07C881.781 1236.1 896.907 1226.44 907.29 1226.6C918.998 1226.77 925.441 1237.58 929.223 1245.24ZM908.287 1255.05C909.956 1258.43 912.308 1263.75 909.159 1268.32C905.571 1273.52 895.933 1277.97 889.09 1281.34C881.882 1284.9 873.079 1288.57 867.376 1287.79C862.904 1287.18 860.894 1282.93 859.325 1279.76C857.692 1276.45 854.935 1271.66 857.402 1267.57C860.329 1262.73 869.186 1258.6 876.16 1255.16C883.297 1251.64 894.256 1245.84 900.587 1246.1C905.657 1246.32 906.699 1251.84 908.287 1255.05Z" fill="#BABABA" stroke="black" stroke-width="7.81087" stroke-miterlimit="1.5" stroke-linecap="round" stroke-linejoin="round"/>
<path fill-rule="evenodd" clip-rule="evenodd" d="M823.757 1259.75C818.908 1266.97 810.559 1276.2 798.644 1274.64C788.488 1273.32 775.289 1262.39 764.332 1255.03C752.512 1247.1 738.228 1237.12 733.34 1227.56C728.376 1217.85 732.922 1208.57 737.446 1201.82C742.152 1194.81 748.325 1187.86 759.782 1189.13C770.184 1190.28 785.539 1198.93 796.876 1206.54C808.068 1214.05 823.975 1222.36 829.009 1231.44C834.684 1241.69 828.517 1252.65 823.757 1259.75ZM804.829 1246.47C802.728 1249.6 799.281 1254.29 793.75 1253.84C787.454 1253.31 778.804 1247.16 772.467 1242.91C765.792 1238.43 758.227 1232.62 756.065 1227.29C754.369 1223.11 757.054 1219.25 759.027 1216.31C761.083 1213.24 763.868 1208.47 768.64 1208.57C774.296 1208.7 782.281 1214.33 788.74 1218.66C795.349 1223.1 805.834 1229.72 808.754 1235.34C811.092 1239.84 806.826 1243.49 804.829 1246.47Z" fill="#BABABA" stroke="black" stroke-width="7.81087" stroke-miterlimit="1.5" stroke-linecap="round" stroke-linejoin="round"/>
<path fill-rule="evenodd" clip-rule="evenodd" d="M733.443 1177.57C724.745 1177.85 712.382 1176.44 706.695 1165.86C701.846 1156.84 703.034 1139.74 702.618 1126.55C702.169 1112.32 701.947 1094.9 706.865 1085.35C711.855 1075.66 722.051 1073.93 730.166 1073.68C738.607 1073.41 747.85 1074.38 753.504 1084.42C758.638 1093.54 760.561 1111.06 760.991 1124.71C761.416 1138.18 763.941 1155.95 759.498 1165.33C754.488 1175.92 741.981 1177.3 733.443 1177.57ZM733.19 1154.45C729.422 1154.57 723.601 1154.51 720.746 1149.75C717.5 1144.33 717.45 1133.72 717.209 1126.09C716.956 1118.05 717.263 1108.52 720.336 1103.65C722.745 1099.84 727.445 1099.77 730.985 1099.66C734.672 1099.54 740.178 1099.02 742.874 1102.95C746.069 1107.62 746.152 1117.39 746.398 1125.17C746.649 1133.12 747.387 1145.5 744.521 1151.15C742.225 1155.68 736.773 1154.34 733.19 1154.45Z" fill="#BABABA" stroke="black" stroke-width="7.81087" stroke-miterlimit="1.5" stroke-linecap="round" stroke-linejoin="round"/>
<path fill-rule="evenodd" clip-rule="evenodd" d="M970.365 968.569L966.074 955.576C966.074 955.576 991.678 948.632 993.475 955.624C997.086 969.684 987.743 1039.93 987.743 1039.93C987.743 1039.93 987.357 1061.27 976.018 1055.25C964.679 1049.23 969.334 1038.82 969.334 1038.82L970.365 968.569Z" fill="#BABABA" stroke="black" stroke-width="8.58735" stroke-miterlimit="1.5" stroke-linecap="round" stroke-linejoin="round"/>
<path fill-rule="evenodd" clip-rule="evenodd" d="M972.11 1085.73L970.429 1072.15C970.429 1072.15 996.895 1070.32 997.297 1077.53C998.103 1092.03 975.267 1159.11 975.267 1159.11C975.267 1159.11 970.736 1179.97 960.785 1171.86C950.834 1163.75 957.427 1154.44 957.427 1154.44L972.11 1085.73Z" fill="#BABABA" stroke="black" stroke-width="8.58735" stroke-miterlimit="1.5" stroke-linecap="round" stroke-linejoin="round"/>
<path fill-rule="evenodd" clip-rule="evenodd" d="M900.608 1246.94L890.113 1253.44C890.113 1253.44 906.522 1274.05 911.766 1270.23C922.308 1262.56 953.369 1207.42 953.369 1207.42C953.369 1207.42 964.74 1192.17 952.497 1189.44C940.253 1186.71 938.228 1196.9 938.228 1196.9L900.608 1246.94Z" fill="#BABABA" stroke="black" stroke-width="8.10602" stroke-miterlimit="1.5" stroke-linecap="round" stroke-linejoin="round"/>
<path fill-rule="evenodd" clip-rule="evenodd" d="M856.97 1278.39L865.136 1287.65C865.136 1287.65 882.709 1268.03 878.072 1263.49C868.747 1254.38 809.188 1232.97 809.188 1232.97C809.188 1232.97 792.258 1224.31 791.613 1236.84C790.969 1249.36 801.348 1249.66 801.348 1249.66L856.97 1278.39Z" fill="#BABABA" stroke="black" stroke-width="8.10602" stroke-miterlimit="1.5" stroke-linecap="round" stroke-linejoin="round"/>
<path fill-rule="evenodd" clip-rule="evenodd" d="M744.741 1151.89L744.589 1139.55C744.589 1139.55 718.47 1142.97 719.031 1149.43C720.161 1162.42 751.361 1217.48 751.361 1217.48C751.361 1217.48 758.549 1235.09 767.205 1226.01C775.862 1216.93 768.184 1209.94 768.184 1209.94L744.741 1151.89Z" fill="#BABABA" stroke="black" stroke-width="8.10602" stroke-miterlimit="1.5" stroke-linecap="round" stroke-linejoin="round"/>
<path fill-rule="evenodd" clip-rule="evenodd" d="M734.774 1036.02L738.585 1024.27C738.585 1024.27 712.748 1019.15 711.21 1025.44C708.117 1038.11 720.029 1100.27 720.029 1100.27C720.029 1100.27 721.197 1119.25 732.305 1113.43C743.414 1107.6 738.381 1098.52 738.381 1098.52L734.774 1036.02Z" fill="#BABABA" stroke="black" stroke-width="8.10602" stroke-miterlimit="1.5" stroke-linecap="round" stroke-linejoin="round"/>
<path fill-rule="evenodd" clip-rule="evenodd" d="M941.482 923.79C930.872 913.211 920.253 913.627 909.625 926.703L920.03 940.07L934.828 946.846L936.327 986.288L926.131 977.088L921.246 982.638L918.608 1068.65C924.858 1074.38 925.84 1069.22 927.555 1056.41L931.321 1086.58L916.488 1084.47L918.118 1168.07L926.099 1150.33L935.504 1148.46L940.997 1133.8L924.434 1128.6L924.24 1120.64L944.615 1103.5L941.476 1034.1L933.155 1028.13L934.438 1011.59C943.806 1011.61 949.846 1004.79 951.854 989.683L941.482 923.79Z" fill="black" fill-opacity="0.3"/>
<path fill-rule="evenodd" clip-rule="evenodd" d="M885.782 958.457L873.59 1059.07L881.943 1064.13L885.678 1035.1L909.527 1025.57L908.028 1013.16L892.332 998.33L885.782 958.457Z" fill="black" fill-opacity="0.3"/>
<path fill-rule="evenodd" clip-rule="evenodd" d="M859.774 1098.75L839.748 1099.01L849.306 1116.74L847.299 1138.39L834.43 1140.74L833.119 1162.87H841.662L859.774 1098.75Z" fill="black" fill-opacity="0.3"/>
<path fill-rule="evenodd" clip-rule="evenodd" d="M980.473 962.794L983.148 998.159L986.86 960.197L980.473 962.794Z" fill="white"/>
<path fill-rule="evenodd" clip-rule="evenodd" d="M983.591 1079.92L979.293 1115.12L990.363 1078.62L983.591 1079.92Z" fill="white"/>
<path fill-rule="evenodd" clip-rule="evenodd" d="M997.858 1031.37L1002.8 1062.65L1001.96 1028.62L997.858 1031.37Z" fill="white"/>
<path fill-rule="evenodd" clip-rule="evenodd" d="M941.834 1200.89L930.508 1227.34L948.45 1202.09L941.834 1200.89Z" fill="white"/>
<path fill-rule="evenodd" clip-rule="evenodd" d="M814.302 1246.61L840.935 1257.48L815.391 1239.97L814.302 1246.61Z" fill="white"/>
<path fill-rule="evenodd" clip-rule="evenodd" d="M735.564 1152.65L745.826 1179.52L741.153 1148.91L735.564 1152.65Z" fill="white"/>
<path fill-rule="evenodd" clip-rule="evenodd" d="M693.512 1246.49L719.515 1258.79L694.96 1239.92L693.512 1246.49Z" fill="white"/>
<path fill-rule="evenodd" clip-rule="evenodd" d="M747.56 1090.86L754.289 1118.82L753.582 1087.86L747.56 1090.86Z" fill="white"/>
<path fill-rule="evenodd" clip-rule="evenodd" d="M919.07 1307.16L927.349 1334.71L924.916 1303.83L919.07 1307.16Z" fill="white"/>
<path fill-rule="evenodd" clip-rule="evenodd" d="M931.95 1409.26L933.367 1437.94L936.936 1407.27L931.95 1409.26Z" fill="white"/>
<path fill-rule="evenodd" clip-rule="evenodd" d="M967.282 1413.22L960.883 1385.22L962.72 1416.05L967.282 1413.22Z" fill="white"/>
<path fill-rule="evenodd" clip-rule="evenodd" d="M932.288 1511.63L933.705 1540.31L937.274 1509.64L932.288 1511.63Z" fill="white"/>
<path fill-rule="evenodd" clip-rule="evenodd" d="M867.428 1113.99L859.194 1141.55L874.138 1114.43L867.428 1113.99Z" fill="white"/>
<path fill-rule="evenodd" clip-rule="evenodd" d="M905.751 1091.23L910.487 1119.61L911.97 1088.67L905.751 1091.23Z" fill="white"/>
<path fill-rule="evenodd" clip-rule="evenodd" d="M914.742 989.362L919.478 1017.74L920.96 986.803L914.742 989.362Z" fill="white"/>
<path fill-rule="evenodd" clip-rule="evenodd" d="M957.02 901.236C957.02 901.236 1115.69 905.93 1162.18 953.579C1214.59 1007.3 1234.98 1070.73 1234.98 1070.73L1084.52 1107.26C1147.4 1109.37 1215.63 1109.47 1254.59 1147.85L1272.51 1146.14C1294.31 1173.03 1302.41 1199.8 1298.89 1226.48L1178.21 1220.48C1305.32 1257.42 1313.96 1292.03 1276.3 1325.75L1345.95 1396.26C1345.95 1396.26 1456.27 1544.46 1382.35 1689.66C1328.02 1796.39 1065.69 2057.97 1065.69 2057.97L1409.2 2067.12C1533.73 1866.35 1638.82 1649.82 1658.42 1364.03L1478.88 943.721C1310.03 900.75 1087.38 848.231 957.02 901.236Z" fill="black" fill-opacity="0.3"/>
<path fill-rule="evenodd" clip-rule="evenodd" d="M1457.11 1742.98C1464.76 1739.5 1472.83 1738.89 1479.87 1740.58C1488.25 1742.58 1495.04 1747.97 1498.42 1755.66C1499.85 1758.97 1498.95 1762.11 1496.04 1764.97C1493.44 1767.53 1488.58 1769.91 1482.57 1771.75C1477.71 1773.23 1472.06 1774.42 1466.43 1775.26C1456.82 1776.69 1447.3 1777.16 1441.93 1777.05C1439.45 1777 1437.7 1776.78 1436.94 1776.53C1434.62 1775.77 1434.11 1774.14 1434.08 1773.18C1433.89 1766.45 1436.27 1759.63 1440.95 1754C1444.92 1749.22 1450.44 1745.25 1457.11 1742.98ZM1440.91 1769.76C1441.74 1769.74 1442.71 1769.7 1443.66 1769.64C1448.5 1769.31 1455.64 1768.4 1463.06 1767.19C1469.63 1766.12 1476.41 1764.8 1481.93 1763.12C1485.32 1762.09 1488.23 1761.04 1490.14 1759.69C1490.6 1759.37 1491.02 1759.07 1491.29 1758.71C1491.38 1758.59 1491.57 1758.52 1491.52 1758.37C1489.44 1752.36 1484.5 1748.08 1478.31 1746C1472.35 1744 1465.33 1743.89 1458.41 1746.25C1452.78 1748.82 1448.31 1752.73 1445.22 1757.23C1442.58 1761.1 1441.05 1765.44 1440.91 1769.76ZM1441.02 1772.62C1441.03 1772.64 1441.03 1772.66 1441.03 1772.68C1441.03 1772.66 1441.03 1772.64 1441.02 1772.62Z" fill="black"/>
<path fill-rule="evenodd" clip-rule="evenodd" d="M1492.69 1666.61C1501.42 1662.33 1510.72 1661.73 1518.24 1664.03C1524.6 1665.99 1529.62 1670.13 1532.39 1675.85C1535.78 1683.05 1534.81 1691.48 1530.36 1698.94C1526.77 1704.97 1520.78 1710.27 1513.2 1713.71C1505.53 1716.95 1497.58 1717.75 1490.73 1716.3C1482.24 1714.5 1475.41 1709.48 1472.45 1702.08C1470.14 1696.16 1470.53 1689.65 1473.43 1683.65C1476.86 1676.55 1483.62 1670.12 1492.69 1666.61ZM1494.14 1669.93C1487.94 1672.98 1483.19 1677.57 1480.3 1682.64C1477.21 1688.07 1476.44 1694.1 1478.94 1699.26C1481.29 1704.25 1486.35 1707.16 1492.27 1708.14C1497.64 1709.04 1503.76 1708.28 1509.65 1705.6C1515.61 1703.09 1520.34 1699.1 1523.34 1694.54C1526.65 1689.51 1527.96 1683.8 1525.91 1678.67C1523.84 1673.33 1518.91 1669.79 1512.84 1668.38C1507.17 1667.06 1500.59 1667.44 1494.14 1669.93Z" fill="black"/>
<path fill-rule="evenodd" clip-rule="evenodd" d="M1520.31 1583.37C1529.57 1578.16 1539.79 1576.98 1548.27 1579.11C1555.35 1580.89 1561.14 1585.1 1564.63 1591.15C1568.97 1598.82 1568.6 1608.09 1564.37 1616.5C1560.92 1623.36 1554.74 1629.56 1546.63 1633.79C1538.41 1637.78 1529.68 1639.1 1521.99 1637.85C1512.62 1636.32 1504.8 1631.23 1500.97 1623.36C1497.31 1615.61 1498 1606.66 1502.65 1598.77C1506.35 1592.51 1512.4 1586.9 1520.31 1583.37ZM1522.15 1587.04C1515.62 1590.72 1510.82 1595.99 1508.11 1601.67C1505.23 1607.7 1504.93 1614.23 1508.06 1619.64C1511.04 1624.9 1516.78 1627.77 1523.29 1628.53C1529.23 1629.23 1535.88 1628.06 1542.11 1624.82C1548.38 1621.77 1553.2 1617.19 1556.06 1612.08C1559.21 1606.49 1560.15 1600.28 1557.52 1594.87C1554.84 1589.2 1549.22 1585.61 1542.53 1584.38C1536.22 1583.21 1529.03 1583.96 1522.15 1587.04Z" fill="black"/>
<path fill-rule="evenodd" clip-rule="evenodd" d="M1456.35 1755.31C1440.9 1761.45 1438.68 1764.36 1441.93 1773.42C1443.98 1779.18 1497.3 1767.83 1494.64 1764.12C1489.42 1756.84 1471.8 1749.18 1456.35 1755.31Z" fill="#E4FFCA"/>
<path fill-rule="evenodd" clip-rule="evenodd" d="M1455.68 1753.63C1462.82 1750.3 1470.56 1749.89 1477.51 1751.09C1486.73 1752.68 1494.39 1757.38 1497.88 1761.8C1499.17 1763.47 1499.55 1766.74 1495.45 1769.24C1492.36 1771.12 1484.36 1773.81 1475.33 1775.75C1470.37 1776.81 1465.09 1777.62 1460.25 1778.14C1453.57 1778.85 1447.68 1778.95 1444.28 1778.29C1440.97 1777.65 1439.23 1776.05 1438.77 1774.55C1436.97 1768.5 1437.08 1764.63 1440.1 1761.37C1442.55 1758.72 1447.3 1756.39 1455.68 1753.63ZM1491.12 1762.59C1491.54 1762.46 1491.77 1762.3 1491.63 1762.07C1491.42 1761.74 1491.25 1762.16 1491.12 1762.59ZM1491.38 1766.41C1491.39 1766.43 1491.39 1766.44 1491.4 1766.45C1491.39 1766.44 1491.39 1766.43 1491.38 1766.41ZM1444.68 1771.34C1444.69 1771.35 1444.7 1771.37 1444.71 1771.39C1444.97 1771.38 1445.32 1771.34 1445.59 1771.36C1447.05 1771.47 1448.97 1771.33 1451.2 1771.12C1457.59 1770.51 1466.24 1768.73 1474.09 1766.97C1479.75 1765.7 1485 1764.48 1488.54 1763.29C1485.57 1760.73 1481.17 1758.39 1476.17 1756.98C1470.25 1755.31 1463.53 1754.83 1457.01 1756.99C1450.16 1760.19 1446.2 1762.41 1444.37 1764.89C1443.04 1766.7 1443.57 1768.6 1444.68 1771.34ZM1444.71 1771.39C1444.71 1771.39 1444.71 1771.39 1444.7 1771.39C1444.82 1771.68 1444.95 1771.98 1445.08 1772.3C1445 1772.1 1444.86 1771.66 1444.71 1771.39ZM1444.7 1771.39C1444.7 1771.37 1444.69 1771.35 1444.68 1771.34C1444.57 1771.14 1444.45 1771.05 1444.35 1771.24C1444.28 1771.37 1444.45 1771.39 1444.7 1771.39Z" fill="#FF4500"/>
<path fill-rule="evenodd" clip-rule="evenodd" d="M1405.91 1831.44C1388.8 1838.23 1386.14 1849.18 1390.53 1858.86C1397.38 1873.97 1413.28 1874.85 1422.06 1872.87C1440.04 1868.82 1454.33 1862.53 1448.28 1847.07C1442.22 1831.62 1423.02 1824.64 1405.91 1831.44Z" fill="black"/>
<path fill-rule="evenodd" clip-rule="evenodd" d="M1492.37 1678.67C1481.5 1682.38 1474.94 1694.78 1478.03 1700.84C1478.27 1701.31 1478.43 1701.84 1478.66 1702.36C1483.91 1714.43 1497.52 1715.75 1512.27 1709.29C1527.02 1702.83 1529.81 1694.39 1528.61 1688.82C1525.83 1675.96 1507.61 1673.46 1492.37 1678.67Z" fill="#E4FFCA"/>
<path fill-rule="evenodd" clip-rule="evenodd" d="M1491.78 1676.96C1500.58 1673.43 1510.46 1672.51 1518.16 1674.57C1525.32 1676.48 1530.52 1681.05 1532.33 1688.02C1533.29 1691.85 1532.85 1696.82 1529.26 1701.94C1526.54 1705.83 1521.77 1709.82 1514.04 1713.34C1504.65 1717.23 1495.69 1718.32 1488.68 1716.08C1482.8 1714.2 1478.12 1710.2 1475.58 1703.7L1475.12 1702.33C1473.48 1698.7 1474.04 1693.39 1477.07 1688.44C1480.11 1683.49 1485.3 1678.8 1491.78 1676.96ZM1492.95 1680.38C1488.71 1682.09 1485.35 1685.32 1483.11 1688.81C1480.65 1692.62 1479.48 1696.77 1480.95 1699.35L1481.73 1701.03C1484.21 1706.18 1488.63 1708.56 1493.96 1708.94C1498.9 1709.3 1504.59 1707.95 1510.5 1705.24C1515.29 1703.2 1518.69 1700.96 1521.02 1698.66C1524.32 1695.4 1525.36 1692.19 1524.89 1689.62C1523.9 1683.88 1518.89 1680.74 1512.66 1679.43C1506.66 1678.17 1499.57 1678.49 1492.95 1680.38Z" fill="#FF4500"/>
<path fill-rule="evenodd" clip-rule="evenodd" d="M1520.53 1597.38C1503.85 1603.43 1501.28 1613.18 1508.5 1621.5C1515.08 1629.07 1523.08 1633.5 1538.81 1629.35C1555.97 1624.82 1561.64 1616.4 1558.3 1607.47C1553.21 1593.86 1535.65 1591.91 1520.53 1597.38Z" fill="#E4FFCA"/>
<path fill-rule="evenodd" clip-rule="evenodd" d="M1519.84 1595.45C1528.93 1591.56 1539.02 1590.43 1547.17 1592.71C1554.01 1594.63 1559.4 1599.05 1562.35 1605.95C1564.82 1611.93 1564.09 1617.85 1559.96 1623.08C1556.45 1627.53 1549.95 1631.46 1540.08 1634.16C1532.35 1636 1526.28 1636.09 1521.32 1634.84C1514.57 1633.15 1509.72 1629.25 1505.56 1624.05C1501.45 1618.78 1500.16 1613.26 1502.27 1608.2C1504.33 1603.26 1509.76 1598.46 1519.84 1595.45ZM1521.23 1599.31C1515.17 1601.92 1511.29 1604.92 1509.3 1608.09C1507 1611.74 1508.17 1615.54 1511.45 1618.94C1514.73 1622.42 1518.35 1625 1523.26 1625.9C1527.11 1626.61 1531.71 1626.23 1537.54 1624.54C1544.87 1622.67 1549.83 1620.15 1552.57 1616.98C1554.63 1614.6 1555.22 1611.88 1554.25 1608.98C1552.32 1602.98 1547.36 1599.62 1541.29 1598.26C1535.14 1596.88 1528 1597.29 1521.23 1599.31Z" fill="#FF4500"/>
</svg>
