<svg width="2160" height="2700" viewBox="0 0 2160 2700" fill="none" xmlns="http://www.w3.org/2000/svg">
<path d="M1090.51 2061.64C1375.3 2061.64 1606.18 1798.69 1606.18 1474.33C1606.18 1149.97 1375.3 887.023 1090.51 887.023C805.707 887.023 574.832 1149.97 574.832 1474.33C574.832 1798.69 805.707 2061.64 1090.51 2061.64Z" fill="#A4A4A4" stroke="black" stroke-width="16.0412" stroke-miterlimit="1.5" stroke-linecap="round" stroke-linejoin="round"/>
<path fill-rule="evenodd" clip-rule="evenodd" d="M1416.75 960.607C1439.13 967.811 1463.45 1056.63 1463.23 1173C1463.01 1286.11 1437.36 1371.84 1415.17 1379.99C1389.98 1389.2 1357.23 1281.97 1356.41 1162.92C1355.57 1039.13 1391.31 952.421 1416.75 960.607Z" fill="#FF2E33" fill-opacity="0.2"/>
<path fill-rule="evenodd" clip-rule="evenodd" d="M757.043 936.825C784.067 927.184 815.549 1040.57 816.762 1168.57C817.928 1291.62 797.884 1382.36 762.637 1388.77C738.55 1393.11 715.246 1281.87 712.706 1164.56C710.044 1041.71 733.129 945.358 757.043 936.825Z" fill="#FF7418" fill-opacity="0.2"/>
<path fill-rule="evenodd" clip-rule="evenodd" d="M918.546 908.533C962.067 905.047 984.024 1044.89 984.608 1172.95C985.195 1301.28 949.393 1440.16 920.293 1436.42C892.499 1432.88 861.958 1292.6 861.206 1166.27C860.444 1038.21 890.544 910.776 918.546 908.533Z" fill="#F2E83A" fill-opacity="0.2"/>
<path fill-rule="evenodd" clip-rule="evenodd" d="M1087.27 896.594C1116.25 896.64 1148.16 1042.02 1149.07 1169.42C1149.99 1298.28 1119.04 1444.04 1089.84 1445.37C1060.49 1446.78 1022.66 1295.54 1021.98 1166.75C1021.31 1038.68 1057.97 896.547 1087.27 896.594Z" fill="#42AB84" fill-opacity="0.2"/>
<path fill-rule="evenodd" clip-rule="evenodd" d="M1249.91 918.843C1276.59 923.349 1312.16 1058.89 1313.23 1183.21C1314.29 1307.2 1294.71 1434.06 1268.03 1440.14C1239.66 1446.55 1199.61 1303.66 1198.53 1177.67C1197.46 1051.55 1221.54 914.049 1249.91 918.843Z" fill="#2AB6E9" fill-opacity="0.2"/>
<path fill-rule="evenodd" clip-rule="evenodd" d="M949.442 1066.69L950.425 1059.76L964.286 1061.73L963.303 1068.66C963.303 1068.66 955.537 1123.3 934.088 1167.98C918.902 1199.61 896.58 1225.78 866.587 1227.67C823.188 1230.41 787.229 1204.68 759.978 1172.3C720.428 1125.3 699.326 1064.77 699.326 1064.77L697.023 1058.15L710.243 1053.55L712.546 1060.16C712.546 1060.16 732.765 1118.21 770.69 1163.28C795.09 1192.28 826.848 1216.15 865.707 1213.7C891.035 1212.11 908.643 1188.63 921.467 1161.92C942.03 1119.09 949.442 1066.69 949.442 1066.69Z" fill="#808080" stroke="black" stroke-width="8" stroke-miterlimit="2" stroke-linejoin="round"/>
<path fill-rule="evenodd" clip-rule="evenodd" d="M902.724 1074.98L903.526 1068.19L917.128 1069.79L916.325 1076.59C916.325 1076.59 906.914 1155.58 879.905 1204.6C867.289 1227.51 850.602 1243.77 830.188 1245.32C791.465 1248.24 759.154 1220.88 734.839 1186.16C699.934 1136.34 681.302 1072.15 681.302 1072.15L679.395 1065.57L692.548 1061.75L694.455 1068.33C694.455 1068.33 712.394 1130.24 746.057 1178.32C767.456 1208.87 795.075 1234.24 829.154 1231.66C845.462 1230.43 857.831 1216.3 867.909 1198C893.853 1150.9 902.724 1074.98 902.724 1074.98Z" fill="#808080" stroke="black" stroke-width="7.93547" stroke-miterlimit="2" stroke-linejoin="round"/>
<path fill-rule="evenodd" clip-rule="evenodd" d="M1191.13 856.422L1192.24 849.627L1231.03 852.977L1229.93 859.772C1229.93 859.772 1216.91 938.768 1179.57 987.788C1162.12 1010.69 1139.05 1026.95 1110.82 1028.5C1057.28 1031.43 1012.6 1004.07 978.981 969.35C930.716 919.521 904.953 855.337 904.953 855.337L941.627 844.002C941.627 844.002 966.43 905.91 1012.98 953.974C1042.57 984.534 1060.77 1008.16 1107.89 1005.58C1130.44 1004.34 1129.06 997.73 1142.99 979.441C1178.86 932.345 1191.13 856.422 1191.13 856.422Z" fill="#808080" stroke="black" stroke-width="7.96236" stroke-miterlimit="2" stroke-linejoin="round"/>
<path fill-rule="evenodd" clip-rule="evenodd" d="M1376.39 966.66C1200.77 848.604 1017.98 843.498 829.578 926.759C472.916 1233.86 471.734 1710.42 769.216 1984.74C969.159 2115.05 1184.27 2105.27 1411.83 1980.57C1627.62 1771.01 1781.18 1182.16 1376.39 966.66Z" fill="#FF2E33"/>
<path fill-rule="evenodd" clip-rule="evenodd" d="M1377.15 965.415C1573.12 1069.24 1639.2 1260.34 1630.82 1454.09C1621.81 1662.55 1526.5 1873.97 1414.39 1983.21C1414.15 1983.44 1413.89 1983.63 1413.6 1983.79C1302.74 2044.71 1194.78 2078.44 1090.04 2082.08C978.56 2085.96 870.739 2055.78 766.976 1988.17C766.784 1988.05 766.603 1987.91 766.435 1987.75C610.859 1844.03 536.58 1645.31 551.892 1444.26C565.977 1259.3 655.913 1072.4 827.895 924.806C828.087 924.64 828.303 924.503 828.536 924.401C923.53 882.629 1017.07 863.204 1108.94 869.245C1200.04 875.236 1289.52 906.264 1377.15 965.415ZM1375.57 967.88C1288.26 909.439 1199.24 878.92 1108.69 873.318C1017.6 867.684 924.97 887.263 830.974 928.962C661.044 1075.89 572.498 1261.39 558.998 1444.79C544.373 1643.47 617.862 1839.7 771.744 1981.48C873.884 2048 980.008 2077.67 1089.77 2073.98C1193.25 2070.52 1299.97 2037.45 1409.63 1977.58C1521.01 1869.53 1615.72 1660.3 1625.43 1453.85C1634.47 1261.65 1569.73 1071.78 1375.7 967.952C1375.66 967.935 1375.62 967.907 1375.57 967.88Z" fill="#FF050B"/>
<path fill-rule="evenodd" clip-rule="evenodd" d="M867.192 1126.52L558.962 1140.97C573.97 1422.98 594.619 1712.77 619.634 2008.58L942.931 2049.74C890.867 1768.26 858.885 1416.59 867.192 1126.52Z" fill="#505050"/>
<path fill-rule="evenodd" clip-rule="evenodd" d="M868.655 1126.57C864.966 1271.12 871.406 1430.94 885.204 1589.73C899.079 1749.41 920.398 1908.04 946.797 2049.03C947.026 2050.26 946.652 2051.53 945.789 2052.45C944.927 2053.36 943.681 2053.81 942.435 2053.64L619.118 2012.65C617.203 2012.4 615.718 2010.85 615.556 2008.93C603.413 1862.83 592.258 1718.2 582.47 1575.26C572.436 1428.69 563.834 1283.89 556.594 1141.09C556.559 1140.46 556.779 1139.84 557.204 1139.38C557.627 1138.91 558.221 1138.63 558.851 1138.59L867.125 1125.06C867.532 1125.04 867.927 1125.2 868.218 1125.49C868.508 1125.77 868.666 1126.16 868.655 1126.57ZM865.683 1128.06L561.463 1143.21C569.393 1285.17 578.831 1429.1 589.384 1574.76C599.657 1716.57 610.982 1860.03 623.432 2004.94C657.066 2009.24 938.103 2045.16 938.103 2045.16C912.734 1905.18 892.292 1748.21 879.41 1590.22C866.492 1431.77 861.177 1272.33 865.683 1128.06Z" fill="white"/>
<path d="M710.478 1198.06C715.291 1198.06 719.194 1194.04 719.194 1189.08C719.194 1184.12 715.291 1180.1 710.478 1180.1C705.664 1180.1 701.762 1184.12 701.762 1189.08C701.762 1194.04 705.664 1198.06 710.478 1198.06Z" fill="#7EED56"/>
<path d="M732.385 1554.92C798.043 1554.92 851.27 1469.86 851.27 1364.94C851.27 1260.01 798.043 1174.96 732.385 1174.96C666.727 1174.96 613.5 1260.01 613.5 1364.94C613.5 1469.86 666.727 1554.92 732.385 1554.92Z" fill="#8D8D8D" stroke="black" stroke-width="13.9707" stroke-miterlimit="1.5" stroke-linecap="square" stroke-linejoin="round"/>
<path d="M716.608 1496.03C769.999 1496.03 813.282 1437.6 813.282 1365.53C813.282 1293.46 769.999 1235.03 716.608 1235.03C663.216 1235.03 619.934 1293.46 619.934 1365.53C619.934 1437.6 663.216 1496.03 716.608 1496.03Z" fill="#8D8D8D" stroke="black" stroke-width="10.4414" stroke-miterlimit="1.5" stroke-linecap="square" stroke-linejoin="round"/>
<path fill-rule="evenodd" clip-rule="evenodd" d="M692.953 1243.67C728.105 1288.11 715.76 1306.69 696.454 1320.63L725.383 1364.77L743.564 1394.85C755.212 1387.01 777.94 1391.58 806.273 1442.39C806.273 1442.39 830.405 1354.7 818.615 1320.48C780.843 1210.82 692.953 1243.67 692.953 1243.67Z" fill="black" fill-opacity="0.3"/>
<path fill-rule="evenodd" clip-rule="evenodd" d="M747.795 1241.93C808.207 1294.31 761.272 1325.87 724.98 1333.04L736.83 1357.53C753.333 1332.89 815.588 1307.81 809.275 1412.18C809.275 1412.18 827.132 1341.47 818.408 1313.88C790.458 1225.45 747.795 1241.93 747.795 1241.93Z" fill="black" fill-opacity="0.3"/>
<path d="M703.794 1415.5C729.834 1415.5 750.943 1394.08 750.943 1367.66C750.943 1341.24 729.834 1319.82 703.794 1319.82C677.754 1319.82 656.645 1341.24 656.645 1367.66C656.645 1394.08 677.754 1415.5 703.794 1415.5Z" fill="#8D8D8D" stroke="black" stroke-width="12.7417" stroke-miterlimit="1.5" stroke-linecap="square" stroke-linejoin="round"/>
<path fill-rule="evenodd" clip-rule="evenodd" d="M692.24 1324.52C692.24 1324.52 675.141 1353.37 683.488 1377.48C692.253 1402.79 718.561 1405.37 718.561 1405.37C718.561 1405.37 660.917 1427.32 647.425 1397.46C625.729 1349.43 692.24 1324.52 692.24 1324.52Z" fill="black" fill-opacity="0.3"/>
<path d="M750.243 1842.34C809.198 1841.75 856.395 1782.84 855.663 1710.77C854.93 1638.7 806.544 1580.76 747.59 1581.36C688.636 1581.96 641.438 1640.87 642.17 1712.94C642.903 1785.01 691.289 1842.94 750.243 1842.34Z" fill="#8D8D8D" stroke="black" stroke-width="10.9721" stroke-miterlimit="1.5" stroke-linecap="square" stroke-linejoin="round"/>
<path d="M729.307 1767.24C755.346 1766.98 776.236 1745.35 775.968 1718.93C775.699 1692.51 754.373 1671.31 728.334 1671.57C702.296 1671.84 681.405 1693.47 681.674 1719.89C681.942 1746.31 703.269 1767.51 729.307 1767.24Z" fill="#8D8D8D" stroke="black" stroke-width="12.7417" stroke-miterlimit="1.5" stroke-linecap="square" stroke-linejoin="round"/>
<path fill-rule="evenodd" clip-rule="evenodd" d="M710.402 1589.36C771.494 1623.71 750.578 1651.47 716.453 1671.22C736.448 1672.65 753.868 1675.45 772.407 1699.01L766.609 1740.54C779.544 1732.7 828.328 1734.99 825.746 1804.06C825.746 1804.06 861.941 1707.46 848.848 1673.24C831.642 1628.26 805.887 1600.24 780.75 1589.71C744.602 1574.56 710.402 1589.36 710.402 1589.36Z" fill="black" fill-opacity="0.3"/>
<path fill-rule="evenodd" clip-rule="evenodd" d="M709.689 1670.21C709.689 1670.21 692.59 1699.06 700.937 1723.17C709.702 1748.48 735.038 1760.03 735.038 1760.03C735.038 1760.03 678.366 1773.01 664.874 1743.15C643.178 1695.12 709.689 1670.21 709.689 1670.21Z" fill="black" fill-opacity="0.3"/>
<path fill-rule="evenodd" clip-rule="evenodd" d="M1312.53 1114.27L1618.92 1132.5L1558.25 2000.12L1227.04 2025.21C1281.41 1724.28 1298.44 1421.87 1312.53 1114.27Z" fill="#505050"/>
<path fill-rule="evenodd" clip-rule="evenodd" d="M1312.61 1112.81L1619.06 1130.14C1619.69 1130.17 1620.28 1130.46 1620.7 1130.94C1621.12 1131.42 1621.33 1132.03 1621.28 1132.67C1621.28 1132.67 1606.78 1349.62 1592.04 1566.55C1577.3 1783.49 1562.33 2000.4 1562.33 2000.4C1562.19 2002.44 1560.58 2004.05 1558.55 2004.21L1227.33 2029.11C1226.13 2029.21 1224.94 2028.73 1224.13 2027.84C1223.32 2026.94 1222.97 2025.71 1223.18 2024.51C1245.22 1904.04 1261.2 1783.32 1273.51 1662.11C1291.93 1480.81 1302.07 1298.45 1311.07 1114.19C1311.08 1113.8 1311.26 1113.45 1311.55 1113.18C1311.84 1112.92 1312.22 1112.78 1312.61 1112.81ZM1313.92 1115.82C1306.06 1299.71 1297.2 1481.74 1279.76 1662.73C1268.21 1782.51 1252.87 1901.82 1231.78 2020.92L1554.41 1996.3C1556.45 1967.48 1570.69 1766.77 1585.12 1566.06C1599.77 1362.45 1614.62 1158.85 1616.38 1134.71L1313.92 1115.82Z" fill="white"/>
<path d="M1451.72 1168.99C1456.53 1168.99 1460.43 1164.96 1460.43 1160C1460.43 1155.04 1456.53 1151.02 1451.72 1151.02C1446.9 1151.02 1443 1155.04 1443 1160C1443 1164.96 1446.9 1168.99 1451.72 1168.99Z" fill="#7EED56"/>
<path d="M1436.19 1534.41C1371.54 1534.41 1319.13 1450.99 1319.13 1348.08C1319.13 1245.18 1371.54 1161.76 1436.19 1161.76C1500.84 1161.76 1553.25 1245.18 1553.25 1348.08C1553.25 1450.99 1500.84 1534.41 1436.19 1534.41Z" fill="#8D8D8D" stroke="black" stroke-width="13.7293" stroke-miterlimit="1.5" stroke-linecap="square" stroke-linejoin="round"/>
<path d="M1446.5 1490.19C1387.54 1490.19 1339.75 1431.77 1339.75 1359.69C1339.75 1287.62 1387.54 1229.2 1446.5 1229.2C1505.46 1229.2 1553.25 1287.62 1553.25 1359.69C1553.25 1431.77 1505.46 1490.19 1446.5 1490.19Z" fill="#8D8D8D" stroke="black" stroke-width="13.9673" stroke-miterlimit="1.5" stroke-linecap="square" stroke-linejoin="round"/>
<path d="M1474.09 1407.04C1448.05 1407.04 1426.94 1385.62 1426.94 1359.2C1426.94 1332.78 1448.05 1311.36 1474.09 1311.36C1500.12 1311.36 1521.23 1332.78 1521.23 1359.2C1521.23 1385.62 1500.12 1407.04 1474.09 1407.04Z" fill="#8D8D8D" stroke="black" stroke-width="12.7417" stroke-miterlimit="1.5" stroke-linecap="square" stroke-linejoin="round"/>
<path d="M1427.64 1833.88C1368.68 1833.28 1321.48 1774.37 1322.22 1702.3C1322.95 1630.23 1371.33 1572.3 1430.29 1572.9C1489.24 1573.5 1536.44 1632.4 1535.71 1704.47C1534.98 1776.54 1486.59 1834.48 1427.64 1833.88Z" fill="#8D8D8D" stroke="black" stroke-width="10.9721" stroke-miterlimit="1.5" stroke-linecap="square" stroke-linejoin="round"/>
<path d="M1448.57 1758.78C1422.53 1758.51 1401.64 1736.88 1401.91 1710.46C1402.18 1684.04 1423.51 1662.84 1449.54 1663.1C1475.58 1663.37 1496.47 1685 1496.21 1711.42C1495.94 1737.84 1474.61 1759.04 1448.57 1758.78Z" fill="#8D8D8D" stroke="black" stroke-width="12.7417" stroke-miterlimit="1.5" stroke-linecap="square" stroke-linejoin="round"/>
<path fill-rule="evenodd" clip-rule="evenodd" d="M1028.04 888.157L910.031 1143.03L1138.32 1145.69L945.913 1333.4L1182.34 1338.2L947.34 1644.16L1158.59 1619.56L1069.36 2110.65L1081.47 2113.29L1202.91 1591.85L1027.04 1592.83L1280.12 1301.26L1059.17 1302.24L1258.78 1125.46L1036.76 1114.79L1245.78 918.405C1187.46 870.832 1110.63 871.915 1028.04 888.157Z" fill="#F2E83A" stroke="black" stroke-width="4.84171" stroke-miterlimit="1.5" stroke-linecap="square" stroke-linejoin="round"/>
<path d="M1427.45 957.271H733.379V1067.68H1427.45V957.271Z" fill="#505050" stroke="#FCFAD8" stroke-width="6.99356" stroke-miterlimit="1.5" stroke-linecap="square" stroke-linejoin="round"/>
<path d="M808.012 1048.23C829.696 1048.23 847.274 1030.77 847.274 1009.23C847.274 987.683 829.696 970.219 808.012 970.219C786.328 970.219 768.75 987.683 768.75 1009.23C768.75 1030.77 786.328 1048.23 808.012 1048.23Z" fill="#FF7418" stroke="black" stroke-width="12.8866" stroke-miterlimit="1.5" stroke-linecap="square" stroke-linejoin="round"/>
<path d="M940.195 1050.45C961.879 1050.45 979.457 1032.99 979.457 1011.45C979.457 989.902 961.879 972.438 940.195 972.438C918.512 972.438 900.934 989.902 900.934 1011.45C900.934 1032.99 918.512 1050.45 940.195 1050.45Z" fill="#F2E83A" stroke="black" stroke-width="12.8866" stroke-miterlimit="1.5" stroke-linecap="square" stroke-linejoin="round"/>
<path d="M1079.61 1050.8C1101.29 1050.8 1118.87 1033.33 1118.87 1011.79C1118.87 990.246 1101.29 972.781 1079.61 972.781C1057.93 972.781 1040.35 990.246 1040.35 1011.79C1040.35 1033.33 1057.93 1050.8 1079.61 1050.8Z" fill="#42AB84" stroke="black" stroke-width="12.8866" stroke-miterlimit="1.5" stroke-linecap="square" stroke-linejoin="round"/>
<path d="M1226.63 1053.49C1248.32 1053.49 1265.89 1036.02 1265.89 1014.48C1265.89 992.937 1248.32 975.473 1226.63 975.473C1204.95 975.473 1187.37 992.937 1187.37 1014.48C1187.37 1036.02 1204.95 1053.49 1226.63 1053.49Z" fill="#2AB6E9" stroke="black" stroke-width="12.8866" stroke-miterlimit="1.5" stroke-linecap="square" stroke-linejoin="round"/>
<path d="M1353.62 1052.26C1375.3 1052.26 1392.88 1034.8 1392.88 1013.25C1392.88 991.71 1375.3 974.246 1353.62 974.246C1331.93 974.246 1314.36 991.71 1314.36 1013.25C1314.36 1034.8 1331.93 1052.26 1353.62 1052.26Z" fill="#FF2E33" stroke="black" stroke-width="12.8866" stroke-miterlimit="1.5" stroke-linecap="square" stroke-linejoin="round"/>
<path fill-rule="evenodd" clip-rule="evenodd" d="M1416.75 926.785C1439.13 930.184 1463.45 972.078 1463.23 1026.97C1463.01 1080.33 1437.36 1120.77 1415.17 1124.61C1389.98 1128.95 1357.23 1078.37 1356.41 1022.22C1355.57 963.826 1391.31 922.924 1416.75 926.785Z" fill="#FF2E33" fill-opacity="0.4"/>
<path fill-rule="evenodd" clip-rule="evenodd" d="M757.043 915.567C784.067 911.019 815.549 964.504 816.762 1024.88C817.928 1082.93 797.884 1125.73 762.637 1128.75C738.55 1130.8 715.246 1078.33 712.706 1022.99C710.044 965.04 733.129 919.592 757.043 915.567Z" fill="#FF7418" fill-opacity="0.4"/>
<path fill-rule="evenodd" clip-rule="evenodd" d="M918.546 902.222C962.067 900.577 984.024 966.541 984.608 1026.95C985.195 1087.48 949.393 1152.99 920.293 1151.23C892.499 1149.56 861.958 1083.39 861.206 1023.8C860.444 963.391 890.544 903.28 918.546 902.222Z" fill="#F2E83A" fill-opacity="0.4"/>
<path fill-rule="evenodd" clip-rule="evenodd" d="M1087.27 896.59C1116.25 896.612 1148.16 965.189 1149.07 1025.28C1149.99 1086.07 1119.04 1154.82 1089.84 1155.45C1060.49 1156.11 1022.66 1084.78 1021.98 1024.02C1021.31 963.614 1057.97 896.568 1087.27 896.59Z" fill="#42AB84" fill-opacity="0.4"/>
<path fill-rule="evenodd" clip-rule="evenodd" d="M1249.91 907.085C1276.59 909.211 1312.16 973.146 1313.23 1031.79C1314.29 1090.28 1294.71 1150.12 1268.03 1152.98C1239.66 1156.01 1199.61 1088.61 1198.53 1029.18C1197.46 969.681 1221.54 904.823 1249.91 907.085Z" fill="#2AB6E9" fill-opacity="0.4"/>
<path fill-rule="evenodd" clip-rule="evenodd" d="M753.57 995.414C1002.33 949.993 1206.8 989.156 1324.14 1116.19L1372.44 1117.19C1383.84 1128.59 1375.57 1177.89 1397.14 1179.12C1377.63 1200.36 1367.4 1215.69 1370.33 1235.17C1372.88 1252.09 1366.61 1285.61 1342.19 1335.64C1382.54 1363.93 1400.9 1286.13 1424.58 1338.73C1449.86 1313.26 1460.63 1341.84 1453.33 1356.25C1442.38 1370.23 1447.4 1391.25 1463.21 1396.19C1468.65 1423.22 1457.59 1463.92 1439.63 1494.06C1436.07 1500.03 1450.84 1514.13 1414.99 1526.82L1414.21 1573.58C1448.24 1605.2 1457.24 1636.19 1455.71 1667.44C1463.22 1690.97 1450.5 1695.21 1438.83 1703.67C1417.39 1724.46 1424.86 1742.54 1440.9 1759.81C1434.67 1798.52 1408.46 1814.1 1374.63 1820.86C1334.32 1854.05 1312.35 1934.51 1271.71 1955.52C1249.77 1966.86 1279.61 1908.12 1261.11 1922.7C1233.82 1944.21 1322.62 1183.73 1322.62 1183.73L1268.26 1271.92C1279.47 1370.98 1157.72 1981.12 1128.93 1987.89C1035.56 2009.85 924.519 2022.79 818.545 1994.85C925.315 2117.09 1063.48 2099 1368.67 2024.94C1554.83 1813.86 1671.32 1580.59 1639.39 1312C1559.23 1048.62 1375.42 931.952 1187.83 858.65C974.69 871.041 865.232 855.726 753.57 995.414Z" fill="black" fill-opacity="0.3"/>
<path fill-rule="evenodd" clip-rule="evenodd" d="M714.446 1277.22L713.67 1278.37L711.371 1276.82L712.146 1275.67L767.497 1190.97C768.146 1190.01 769.313 1189.53 770.45 1189.77C771.587 1190 772.469 1190.9 772.682 1192.04L779.027 1223.92C785.702 1217.69 799.476 1204.84 815.766 1189.75C824.441 1181.71 833.827 1173.04 843.248 1164.4C852.67 1155.77 862.124 1147.17 870.885 1139.23C885.694 1125.8 898.518 1114.26 905.887 1107.63L814.98 1109.45C814.029 1109.48 813.165 1108.9 812.833 1108.01C812.501 1107.12 812.775 1106.11 813.513 1105.51L863.212 1066.21L864.289 1065.34L866.038 1067.49L864.961 1068.37L821.359 1104.74L914.676 1100.8C916.068 1100.75 917.34 1101.58 917.865 1102.87C918.389 1104.16 918.056 1105.64 917.029 1106.58C917.029 1106.58 899.025 1123.44 875.974 1144.78C867.297 1152.82 857.903 1161.48 848.476 1170.11C839.05 1178.74 829.588 1187.33 820.825 1195.27C797.543 1216.36 779.177 1232.83 779.177 1232.83C778.292 1233.64 777.037 1233.9 775.899 1233.53C774.76 1233.14 773.917 1232.18 773.696 1231L768.249 1199.9L714.446 1277.22Z" fill="#FCFAD8"/>
<path fill-rule="evenodd" clip-rule="evenodd" d="M790.429 1302.35L789.198 1302.99L787.922 1300.53L789.153 1299.89L933.906 1223.53C934.641 1223.15 935.513 1223.14 936.254 1223.51C936.994 1223.88 937.515 1224.58 937.656 1225.39L941.845 1248.72L1007.07 1215.27C1007.99 1214.8 1009.08 1214.81 1010 1215.28C1010.93 1215.75 1011.57 1216.63 1011.73 1217.65L1013.19 1226.44L1042.04 1234.28C1048.04 1225.35 1072.72 1188.61 1097.51 1151.93C1126 1109.79 1154.63 1067.73 1154.63 1067.73C1155.49 1066.47 1157.01 1065.84 1158.5 1066.12C1160 1066.4 1161.18 1067.54 1161.52 1069.03L1192.91 1208.72L1203.22 1181.02C1203.52 1180.2 1204.15 1179.55 1204.96 1179.23C1205.77 1178.91 1206.67 1178.95 1207.45 1179.33L1448.78 1301.42L1450.02 1302.04L1448.79 1304.53L1447.55 1303.91L1207.81 1186.32L1195.19 1221.24C1194.69 1222.6 1193.37 1223.46 1191.93 1223.37C1190.49 1223.28 1189.29 1222.25 1188.96 1220.85L1156.05 1079.27C1146.69 1093.09 1125.29 1124.68 1103.81 1156.21C1075.17 1198.26 1046.39 1240.21 1046.39 1240.21C1045.56 1241.43 1044.03 1242 1042.61 1241.6L1009.4 1232.25C1008.15 1231.91 1007.22 1230.87 1007.02 1229.59L1006 1223.04L941.025 1255.39C940.238 1255.79 939.309 1255.79 938.521 1255.39C937.733 1254.99 937.18 1254.25 937.03 1253.38L933.119 1229.75L790.429 1302.35Z" fill="#FCFAD8"/>
<path fill-rule="evenodd" clip-rule="evenodd" d="M1436.3 1419.82L1437.47 1419.09L1438.94 1421.45L1437.76 1422.18L1339.18 1484.31L1374.94 1492.34C1376.07 1492.6 1376.86 1493.61 1376.85 1494.76C1376.84 1495.91 1376.03 1496.9 1374.9 1497.14L1309 1511.64L1298.26 1549.48C1297.94 1550.56 1297.07 1551.38 1295.98 1551.63C1294.89 1551.88 1293.75 1551.52 1293 1550.69L1189.35 1436.8L1124.52 1501.88C1123.5 1502.9 1122 1503.27 1120.63 1502.84L958.968 1451.85L974.353 1523.27C974.573 1524.27 974.296 1525.32 973.61 1526.08C972.923 1526.84 971.911 1527.23 970.892 1527.11L781.812 1504.84L765.067 1536.79C764.715 1537.47 764.005 1537.89 763.238 1537.87C762.471 1537.86 761.78 1537.4 761.457 1536.71L717.052 1439.33L716.469 1438.07L718.986 1436.9L719.569 1438.16L763.355 1531.3L778.587 1501.44C779.009 1500.62 779.891 1500.15 780.805 1500.25L967.175 1520.32L950.856 1447.45C950.588 1446.23 950.99 1444.96 951.911 1444.12C952.831 1443.27 954.131 1442.98 955.323 1443.36L1120.7 1494.76L1186.85 1428.81C1187.57 1428.1 1188.55 1427.7 1189.57 1427.73C1190.58 1427.76 1191.54 1428.2 1192.22 1428.95L1293.9 1542.44L1303.95 1508.4C1304.24 1507.38 1305.07 1506.61 1306.11 1506.39L1363.06 1494.58L1332.99 1487.44C1332.12 1487.24 1331.46 1486.53 1331.31 1485.65C1331.16 1484.77 1331.56 1483.89 1332.32 1483.42L1436.3 1419.82Z" fill="#FCFAD8"/>
<path fill-rule="evenodd" clip-rule="evenodd" d="M777.303 1771.98L775.926 1771.81L776.266 1769.06L777.642 1769.23L879.427 1781.03C880.207 1781.13 880.87 1781.65 881.154 1782.38C881.437 1783.11 881.295 1783.94 880.784 1784.54L853.488 1816.75L934.878 1901.11L927.943 1858.7C927.74 1857.43 928.273 1856.14 929.321 1855.38C930.368 1854.63 931.754 1854.52 932.904 1855.11C932.904 1855.11 1000.71 1889.59 1059.32 1919.64C1093.93 1937.39 1125.33 1953.6 1137.78 1960.03L1137.09 1926.76C1137.06 1925.74 1137.46 1924.76 1138.18 1924.05C1138.9 1923.34 1139.88 1922.95 1140.9 1922.99L1402.03 1933.45L1372.27 1900.18C1371.61 1899.45 1371.52 1898.38 1372.05 1897.56L1440.79 1791.29L1441.54 1790.12L1443.88 1791.62L1443.13 1792.78L1376.58 1898.48L1409.56 1934.49C1410.22 1935.22 1410.38 1936.28 1409.96 1937.18C1409.55 1938.07 1408.63 1938.63 1407.64 1938.6L1144.55 1930.47L1145.5 1966.24C1145.53 1967.58 1144.85 1968.84 1143.72 1969.55C1142.58 1970.26 1141.16 1970.32 1139.97 1969.71C1139.97 1969.71 1100.49 1949.54 1055.79 1926.49C1007.68 1901.68 953.527 1873.57 935.758 1864.33L942.818 1910.17C943.037 1911.55 942.334 1912.91 941.084 1913.52C939.833 1914.14 938.326 1913.88 937.363 1912.87L848.486 1818.52C847.63 1817.62 847.593 1816.22 848.401 1815.28L874.952 1784.75L777.303 1771.98Z" fill="#FCFAD8"/>
<path fill-rule="evenodd" clip-rule="evenodd" d="M1422.2 1631.21L1423.1 1632.27L1420.98 1634.06L1420.08 1633L1364.12 1567.61L1361.63 1590.18C1361.5 1591.32 1360.53 1592.19 1359.38 1592.2L1178.05 1594.94L1043.73 1678.86C1042.48 1679.63 1040.9 1679.63 1039.65 1678.86C1038.4 1678.08 1037.7 1676.66 1037.84 1675.2L1046.45 1588.5L904.222 1590.96L923.162 1607.21C924.174 1608.07 924.476 1609.5 923.897 1610.69C923.318 1611.89 922.004 1612.54 920.703 1612.28L819.047 1591.04L829.528 1617.16C829.74 1617.68 829.732 1618.26 829.506 1618.78C829.279 1619.29 828.855 1619.69 828.328 1619.88L731.517 1654.76L730.215 1655.23L729.258 1652.63L730.559 1652.15L824.886 1616.76L813.263 1588.81C812.947 1588.03 813.083 1587.15 813.616 1586.5C814.15 1585.86 814.995 1585.56 815.815 1585.73L910.758 1604.39L894.041 1590.37C893.062 1589.54 892.698 1588.19 893.127 1586.98C893.557 1585.77 894.689 1584.95 895.973 1584.92L1050.5 1580.95C1051.57 1580.93 1052.59 1581.37 1053.32 1582.15C1054.05 1582.93 1054.4 1583.99 1054.3 1585.05L1046.29 1668.2L1175.26 1588.67C1175.79 1588.35 1176.4 1588.17 1177.02 1588.16L1357.34 1587.63L1360.48 1562.33C1360.58 1561.5 1361.16 1560.81 1361.96 1560.57C1362.76 1560.33 1363.63 1560.58 1364.17 1561.22L1422.2 1631.21Z" fill="#FCFAD8"/>
<path fill-rule="evenodd" clip-rule="evenodd" d="M725.459 1790.92L725.153 1789.57L727.859 1788.96L728.164 1790.31C728.164 1790.31 738.903 1833.24 747.952 1870.49C754.858 1898.92 760.753 1924.03 760.753 1924.03C761.127 1925.69 760.328 1927.39 758.811 1928.16C757.295 1928.93 755.45 1928.57 754.332 1927.29C754.332 1927.29 741.276 1912.64 726.702 1895.82C715.207 1882.56 702.753 1867.96 694.661 1858.44L706.013 1905.56C706.172 1906.17 706.064 1906.83 705.716 1907.37C705.367 1907.9 704.81 1908.26 704.181 1908.37L655.721 1915.46L654.353 1915.69L653.902 1912.95L655.27 1912.72L700.962 1904.33L685.177 1846.76C684.803 1845.31 685.477 1843.79 686.807 1843.09C688.137 1842.38 689.773 1842.69 690.761 1843.82C690.761 1843.82 713.276 1868.85 732.508 1890.76C739.234 1898.42 745.552 1905.7 750.425 1911.35C748.278 1901.33 745.239 1887.06 742.054 1871.82C734.215 1834.3 725.459 1790.92 725.459 1790.92Z" fill="#FCFAD8"/>
<path fill-rule="evenodd" clip-rule="evenodd" d="M650.206 1319.97L650.482 1321.33L647.765 1321.88L647.488 1320.52L626.739 1227.54C626.496 1226.34 626.962 1225.11 627.936 1224.38C628.911 1223.65 630.219 1223.54 631.299 1224.11L647.385 1232.27C648.009 1222.16 649.483 1198.86 651.211 1175.58C653.506 1144.64 656.249 1113.73 656.249 1113.73C656.339 1112.51 657.089 1111.43 658.207 1110.91C659.325 1110.4 660.633 1110.54 661.621 1111.27L680.246 1125.45L760.828 1068.77L761.949 1067.95L763.582 1070.2L762.461 1071.01L681.967 1131.69C680.891 1132.47 679.43 1132.47 678.361 1131.67L662.614 1120.31C661.978 1130.83 660.571 1153.5 658.925 1176.14C656.676 1207.09 653.98 1238 653.98 1238C653.894 1239.16 653.228 1240.2 652.208 1240.77C651.187 1241.34 649.949 1241.36 648.915 1240.81L634.136 1232.82L650.206 1319.97Z" fill="#FCFAD8"/>
<path fill-rule="evenodd" clip-rule="evenodd" d="M1471.1 1646.17L1471.48 1647.51L1468.81 1648.27L1468.43 1646.93L1442.46 1558.25C1442.26 1557.53 1442.46 1556.76 1443 1556.24C1443.53 1555.72 1444.31 1555.53 1445.02 1555.75L1479.09 1566.06L1486.55 1526.04C1486.69 1525.28 1487.17 1524.64 1487.84 1524.27C1488.52 1523.91 1489.32 1523.87 1490.03 1524.17L1559.55 1552.74L1561.44 1444.01C1561.47 1442.54 1562.42 1441.24 1563.81 1440.75L1622.77 1420.01C1622.89 1409.21 1623.34 1366.57 1623.92 1323.92C1624.5 1281.28 1625.19 1238.64 1625.38 1227.84L1545.17 1198.61C1543.53 1198.02 1542.61 1196.28 1543.04 1194.6L1551.51 1162.01L1515.1 1155.15C1514.96 1155.13 1514.83 1155.09 1514.69 1155.05L1416.92 1122.31L1492.92 1287.72L1493.51 1288.98L1490.99 1290.15L1490.41 1288.89L1410.03 1119.18C1409.61 1118.29 1409.77 1117.23 1410.42 1116.49C1411.08 1115.75 1412.11 1115.47 1413.05 1115.78L1516.38 1149.21L1556.07 1156.32C1556.95 1156.48 1557.72 1157 1558.2 1157.75C1558.68 1158.5 1558.83 1159.41 1558.61 1160.28L1550.33 1193.28L1630.35 1221.81C1631.83 1222.34 1632.8 1223.76 1632.78 1225.33C1632.78 1225.33 1632.3 1274.67 1631.66 1324.02C1631.02 1373.37 1630.21 1422.71 1630.21 1422.71C1630.19 1424.28 1629.19 1425.67 1627.71 1426.18L1568.43 1446.63L1565.51 1557.27C1565.49 1558.27 1564.97 1559.19 1564.14 1559.74C1563.3 1560.28 1562.25 1560.37 1561.33 1559.99L1490.93 1530.08L1483.1 1569.41C1482.98 1570.05 1482.59 1570.6 1482.04 1570.94C1481.48 1571.27 1480.81 1571.35 1480.19 1571.16L1447.39 1560.77L1471.1 1646.17Z" fill="#FCFAD8"/>
</svg>
