<svg width="2160" height="2700" viewBox="0 0 2160 2700" fill="none" xmlns="http://www.w3.org/2000/svg">
<path fill-rule="evenodd" clip-rule="evenodd" d="M1189.17 1821.97C1209.86 1892.18 1218.66 1966.73 1207.65 2048.52C1099.44 2105.37 1037.34 2097.81 962.618 2024.69C962.618 2024.69 980.087 1831.05 995.32 1828.87C1010.56 1826.69 1189.17 1821.97 1189.17 1821.97Z" fill="#FF050B"/>
<path fill-rule="evenodd" clip-rule="evenodd" d="M1189.92 1821.75C1200.87 1857.9 1208.69 1895.22 1212.24 1934.13C1215.59 1970.85 1215.14 2008.97 1210.04 2048.84C1209.94 2049.62 1209.47 2050.3 1208.77 2050.66C1157.47 2077.92 1116.36 2090.67 1079.36 2088.91C1056.48 2087.83 1035.14 2081.24 1013.96 2069.09C996.282 2058.95 978.726 2044.89 960.413 2026.94C959.737 2026.28 959.392 2025.35 959.477 2024.41C959.477 2024.41 967.112 1943.14 976.723 1885.28C980.756 1860.99 985.197 1840.79 989.461 1832.23C991.229 1828.69 993.292 1826.94 995.01 1826.7C1000.18 1826 1024.03 1825.11 1053.38 1824.28C1110.75 1822.65 1189.15 1821.19 1189.15 1821.19C1189.51 1821.18 1189.82 1821.41 1189.92 1821.75ZM1188.58 1822.78C1181.2 1823.03 1107.89 1825.56 1053.5 1827.87C1024.41 1829.11 1000.75 1830.27 995.633 1831.04C995.505 1831.06 995.421 1831.2 995.292 1831.32C995.02 1831.59 994.757 1831.94 994.481 1832.35C993.441 1833.94 992.423 1836.38 991.388 1839.51C988.054 1849.59 984.806 1866.5 981.755 1886.09C973.484 1939.27 966.89 2012.17 965.889 2023.47C983.412 2040.47 1000.25 2053.81 1017.15 2063.54C1037.41 2075.2 1057.78 2081.64 1079.67 2082.83C1115.58 2084.79 1155.51 2072.75 1205.43 2046.95C1210.86 2007.91 1211.72 1970.5 1208.94 1934.41C1205.97 1895.83 1198.85 1858.75 1188.58 1822.78Z" fill="black"/>
<path fill-rule="evenodd" clip-rule="evenodd" d="M961.79 1938.06C1007.09 1937.11 1134.14 1992.25 1230.84 1970.74L1155.59 2084.42L1041.84 2087.6L965.414 1971.62C965.414 1971.62 947.99 1938.35 961.79 1938.06Z" fill="white"/>
<path fill-rule="evenodd" clip-rule="evenodd" d="M961.736 1935.49C995.015 1934.68 1072.49 1963.86 1149.6 1970.9C1177.17 1973.41 1204.7 1973.09 1230.1 1967.38C1231.46 1967.08 1232.88 1967.63 1233.68 1968.79C1234.47 1969.95 1234.48 1971.47 1233.71 1972.64L1158.44 2086.3C1157.82 2087.24 1156.79 2087.8 1155.69 2087.84L1041.93 2090.74C1040.84 2090.77 1039.82 2090.24 1039.22 2089.33L963.154 1973.11C963.105 1973.03 963.058 1972.95 963.017 1972.87C963.017 1972.87 954.873 1957.06 953.967 1946.73C953.39 1940.15 955.573 1935.6 961.736 1935.49ZM961.843 1940.63C960.176 1940.67 959.421 1941.66 959.181 1943.11C958.879 1944.94 959.169 1947.24 959.718 1949.71C961.658 1958.43 967.08 1968.96 967.747 1970.23L1043.49 2084.4L1153.71 2081.05L1223.43 1975.7C1199.67 1979.86 1174.34 1979.83 1148.98 1977.36C1072.11 1969.89 995.048 1940.05 961.843 1940.63Z" fill="black"/>
<path fill-rule="evenodd" clip-rule="evenodd" d="M983.971 1957.94C983.971 1957.94 957.148 1940.38 937.64 1955.03C909.877 1975.88 917.875 2015.33 946.626 2040.5C993.593 2081.62 1069.48 2087.88 1074.03 2073.48C1083.75 2042.78 983.971 1957.94 983.971 1957.94Z" fill="#FF050B"/>
<path fill-rule="evenodd" clip-rule="evenodd" d="M984.986 1956.75C984.986 1956.75 1033.65 1995.62 1061.1 2030.21C1069.12 2040.32 1075.26 2050.14 1078.22 2058.53C1080.45 2064.83 1080.81 2070.49 1079.43 2075.19C1078.23 2079.22 1073.92 2083.02 1066.35 2084.9C1056.21 2087.44 1039.01 2087.23 1019.5 2082.94C1008.98 2080.63 997.786 2077.13 986.7 2072.35C971.214 2065.68 955.973 2056.47 942.933 2044.72C928.779 2031.76 919.541 2015.57 916.97 1999.77C914.02 1981.66 919.463 1964.09 935.769 1952.54C942.262 1947.97 949.328 1946.45 956.104 1946.69C971.334 1947.25 984.831 1956.63 984.831 1956.63C984.884 1956.67 984.935 1956.71 984.986 1956.75ZM1068.7 2071.57C1068.68 2071.64 1068.66 2071.7 1068.64 2071.77C1068.66 2071.7 1068.64 2071.52 1068.7 2071.56C1068.7 2071.56 1068.7 2071.56 1068.7 2071.57C1069.85 2067.93 1068.8 2063.33 1066.68 2058.08C1062.59 2047.97 1054.38 2036.06 1044.75 2024.02C1019.65 1992.67 984.864 1960.87 983.032 1959.21L983.029 1959.21C982.03 1958.61 972.234 1952.96 960.707 1951.86C953.727 1951.2 946.08 1952.26 939.513 1957.52C926.342 1968 922.57 1982.99 925.817 1998.1C928.756 2011.78 937.456 2025.52 950.32 2036.28C967.769 2051.2 989.289 2060.96 1009.33 2066.99C1020.54 2070.37 1031.3 2072.61 1040.73 2073.66C1048.85 2074.57 1055.94 2074.72 1061.36 2073.93C1063.89 2073.56 1066.01 2073.07 1067.57 2072.28C1068.03 2072.05 1069 2071.8 1068.7 2071.57Z" fill="black"/>
<path fill-rule="evenodd" clip-rule="evenodd" d="M979.77 2031.07C977.726 2029.71 976.127 2028.21 975.39 2026.97C974.016 2024.66 973.7 2020.7 974.727 2016.94C975.675 2013.48 977.706 2010.31 980.322 2008.74C981.962 2007.75 984.885 2007.39 988.233 2007.78C988.393 2007.8 988.553 2007.82 988.715 2007.85C987.513 2006.16 986.784 2004.48 986.695 2003.04C986.505 1999.83 986.572 1995.4 988.736 1991.27C990.35 1988.19 993.073 1985.23 997.774 1983.11C1001.36 1981.49 1004.73 1982.21 1007.69 1984.36C1013.84 1988.81 1017.99 2000.16 1017.99 2000.16C1018.48 2001.49 1017.8 2002.97 1016.47 2003.46C1015.14 2003.95 1013.66 2003.28 1013.17 2001.95C1013.17 2001.95 1010.3 1994.48 1005.97 1990.27C1004.29 1988.63 1002.39 1987.4 1000.26 1988.43C997.11 1989.95 995.259 1991.95 994.218 1994.06C992.734 1997.07 992.881 2000.28 993.072 2002.6C993.107 2003.01 993.465 2003.42 993.819 2003.9C994.578 2004.93 995.645 2005.98 996.753 2006.96C999.649 2009.53 1002.89 2011.6 1002.89 2011.6C1004.31 2012.53 1004.81 2014.37 1004.07 2015.89C1003.32 2017.41 1001.56 2018.14 999.962 2017.59C999.962 2017.59 994.328 2015.71 989.203 2014.89C987.771 2014.66 986.384 2014.51 985.203 2014.54C984.679 2014.55 984.217 2014.52 983.921 2014.7C982.667 2015.46 981.927 2017.13 981.471 2018.79C980.996 2020.52 980.753 2022.36 981.384 2023.44C981.888 2024.3 983.339 2025.17 984.849 2026.11C988.342 2028.27 992.508 2030.16 992.508 2030.16C993.967 2030.81 994.78 2032.38 994.463 2033.94C994.145 2035.51 992.783 2036.64 991.187 2036.67C991.187 2036.67 987.453 2036.71 983.72 2037.16C982.259 2037.34 980.797 2037.57 979.593 2037.91C979.041 2038.07 978.529 2038.1 978.296 2038.36C977.643 2039.06 977.536 2040.16 977.603 2041.21C977.684 2042.5 978.04 2043.79 978.706 2044.57C979.355 2045.32 981.183 2045.73 982.927 2046.2C985.885 2047 988.858 2047.45 988.858 2047.45C990.233 2047.65 991.297 2048.76 991.434 2050.15C991.572 2051.53 990.747 2052.82 989.438 2053.29C989.438 2053.29 985.843 2054.5 982.744 2056C982.204 2056.26 981.587 2056.62 981.034 2056.96C982.687 2057.82 984.9 2058.75 987.135 2059.62C991.936 2061.5 996.837 2063.11 996.837 2063.11C998.19 2063.53 998.947 2064.97 998.524 2066.32C998.103 2067.67 996.661 2068.43 995.307 2068.01C995.307 2068.01 984.893 2064.9 979.187 2062.28C976.566 2061.07 974.863 2059.64 974.401 2058.75C973.602 2057.22 974.032 2054.87 976.573 2052.93C977.214 2052.44 978.012 2051.95 978.883 2051.46C978.815 2051.44 978.747 2051.41 978.68 2051.39C976.56 2050.68 974.845 2049.69 973.979 2048.72C972.518 2047.1 971.439 2044.43 971.21 2041.68C970.971 2038.82 971.72 2035.94 973.464 2033.98C974.484 2032.83 976.714 2031.76 979.481 2031.14C979.577 2031.11 979.673 2031.1 979.77 2031.07Z" fill="black"/>
<path fill-rule="evenodd" clip-rule="evenodd" d="M1207.24 1974.8C1207.24 1974.8 1237.45 1959.97 1255.74 1976.11C1324.32 2036.59 1139.15 2106.24 1108.88 2079.11C1107.9 2024.46 1158.67 2004.58 1207.24 1974.8Z" fill="#FF050B"/>
<path fill-rule="evenodd" clip-rule="evenodd" d="M1206.55 1973.39C1206.55 1973.39 1221.55 1965.49 1237.23 1966.15C1244.4 1966.45 1251.65 1968.58 1257.85 1973.72C1271.27 1984.89 1275.92 1996.78 1274.86 2008.36C1273.37 2024.57 1259.94 2040.7 1240.72 2054.26C1228.02 2063.23 1212.81 2071.15 1197.19 2077.28C1180.93 2083.66 1164.23 2088.13 1149.59 2090.13C1139.73 2091.47 1130.76 2091.63 1123.39 2090.66C1115.37 2089.6 1109.08 2087.1 1105.06 2083.37C1103.88 2082.31 1103.19 2080.8 1103.16 2079.21C1103.29 2054.4 1113.01 2036.4 1128.52 2021.76C1148.36 2003.02 1177.7 1989.9 1206.43 1973.46C1206.47 1973.44 1206.51 1973.42 1206.55 1973.39ZM1208 1976.18C1180.88 1993.94 1153.03 2008.5 1134.6 2027.87C1122.33 2040.77 1114.44 2055.9 1114.54 2076.12C1117.15 2077.58 1120.67 2078.34 1124.79 2078.76C1131.29 2079.42 1139.14 2078.89 1147.8 2077.59C1161.58 2075.54 1177.27 2071.31 1192.69 2065.54C1207.56 2059.99 1222.18 2053.09 1234.51 2045.09C1251.57 2034.03 1264.44 2021.28 1266.45 2007.36C1267.82 1997.95 1264.07 1988.25 1253.63 1978.51C1248.74 1973.92 1242.79 1971.88 1236.86 1971.25C1222.89 1969.77 1209.05 1975.72 1208 1976.18Z" fill="black"/>
<path fill-rule="evenodd" clip-rule="evenodd" d="M1209.82 2018.81C1209.98 2018.8 1210.14 2018.81 1210.3 2018.81C1213.67 2018.93 1216.51 2019.73 1217.98 2020.96C1220.33 2022.9 1221.86 2026.34 1222.27 2029.91C1222.73 2033.77 1221.82 2037.64 1220.11 2039.72C1219.19 2040.83 1217.39 2042.07 1215.16 2043.11C1215.25 2043.15 1215.35 2043.18 1215.44 2043.22C1218.08 2044.25 1220.12 2045.65 1220.96 2046.94C1222.39 2049.14 1222.69 2052.09 1222.03 2054.89C1221.39 2057.57 1219.92 2060.05 1218.23 2061.43C1217.23 2062.26 1215.38 2062.98 1213.18 2063.36C1213.11 2063.38 1213.04 2063.39 1212.97 2063.4C1213.76 2064.01 1214.47 2064.62 1215.03 2065.2C1217.25 2067.51 1217.32 2069.89 1216.3 2071.29C1215.71 2072.09 1213.81 2073.25 1211.04 2074.05C1205 2075.79 1194.24 2077.29 1194.24 2077.29C1192.84 2077.5 1191.53 2076.54 1191.31 2075.13C1191.1 2073.74 1192.06 2072.43 1193.47 2072.21C1193.47 2072.21 1198.55 2071.37 1203.58 2070.23C1205.92 2069.71 1208.25 2069.12 1210.01 2068.52C1209.52 2068.1 1208.96 2067.65 1208.47 2067.31C1205.63 2065.36 1202.26 2063.62 1202.26 2063.62C1201.04 2062.96 1200.42 2061.56 1200.76 2060.21C1201.1 2058.86 1202.32 2057.93 1203.71 2057.94C1203.71 2057.94 1206.72 2057.94 1209.76 2057.59C1211.56 2057.39 1213.43 2057.26 1214.18 2056.61C1214.96 2055.95 1215.5 2054.72 1215.78 2053.47C1216 2052.44 1216.06 2051.33 1215.52 2050.54C1215.33 2050.25 1214.83 2050.15 1214.31 2049.91C1213.17 2049.39 1211.76 2048.93 1210.34 2048.54C1206.72 2047.53 1203.03 2046.93 1203.03 2046.93C1201.46 2046.66 1200.28 2045.34 1200.2 2043.74C1200.13 2042.15 1201.17 2040.71 1202.71 2040.29C1202.71 2040.29 1207.11 2039.05 1210.89 2037.44C1212.52 2036.74 1214.09 2036.1 1214.72 2035.32C1215.5 2034.35 1215.54 2032.5 1215.33 2030.71C1215.13 2029 1214.65 2027.24 1213.52 2026.3C1213.26 2026.08 1212.8 2026.04 1212.28 2025.95C1211.12 2025.75 1209.72 2025.68 1208.27 2025.7C1203.08 2025.74 1197.23 2026.74 1197.23 2026.74C1195.56 2027.05 1193.93 2026.06 1193.43 2024.45C1192.92 2022.83 1193.69 2021.09 1195.23 2020.39C1195.23 2020.39 1198.75 2018.82 1202 2016.72C1203.25 2015.91 1204.46 2015.04 1205.37 2014.14C1205.79 2013.71 1206.2 2013.36 1206.3 2012.96C1206.84 2010.7 1207.47 2007.55 1206.45 2004.35C1205.74 2002.1 1204.21 1999.85 1201.33 1997.87C1199.38 1996.53 1197.31 1997.46 1195.4 1998.83C1190.49 2002.34 1186.53 2009.29 1186.53 2009.29C1185.84 2010.53 1184.28 2010.98 1183.04 2010.29C1181.8 2009.61 1181.35 2008.04 1182.03 2006.8C1182.03 2006.8 1187.84 1996.21 1194.59 1992.73C1197.84 1991.05 1201.28 1990.85 1204.59 1992.99C1208.91 1995.79 1211.16 1999.13 1212.29 2002.41C1213.81 2006.82 1213.21 2011.22 1212.54 2014.36C1212.23 2015.77 1211.26 2017.32 1209.82 2018.81Z" fill="black"/>
<path d="M1125.09 1939.86L1104.41 1937.32L1085.86 2088.55L1106.54 2091.08L1125.09 1939.86Z" fill="#00A8E4"/>
<path fill-rule="evenodd" clip-rule="evenodd" d="M1126.72 1940.06C1126.72 1940.06 1122.91 1988.91 1119.05 2031.22C1116.1 2063.49 1113.08 2091.89 1113.08 2091.89C1112.63 2095.5 1109.35 2098.07 1105.73 2097.62L1085.04 2095.22C1081.36 2094.77 1078.74 2091.41 1079.19 2087.73C1079.19 2087.73 1080.38 2078.02 1082.38 2063.56C1083.79 2053.3 1085.61 2040.65 1087.59 2027.36C1089.37 2015.4 1091.3 2002.93 1093.15 1991.2C1097.8 1961.73 1101.92 1937.02 1101.92 1937.02C1102.09 1935.64 1103.34 1934.66 1104.72 1934.83L1125.29 1938.23C1126.19 1938.34 1126.83 1939.16 1126.72 1940.06ZM1123.18 1941.35L1106.71 1940.03C1106.16 1946.96 1104.45 1968.06 1102.31 1992.33C1101.28 2004.16 1100.14 2016.72 1098.97 2028.75C1097.68 2042.14 1096.38 2054.85 1095.28 2065.14C1094.5 2072.42 1093.81 2078.49 1093.31 2082.73L1100.92 2083.72C1102.37 2073.53 1105.36 2052.69 1108.87 2029.97C1114.63 1992.61 1121.69 1950.24 1123.18 1941.35Z" fill="black"/>
<path fill-rule="evenodd" clip-rule="evenodd" d="M1018.53 1876.18C1018.53 1876.18 1003.56 1826.04 984.055 1840.69C948.403 1867.47 956.391 1915.48 1002.01 1950.22C1018.74 1962.96 1052.35 1977.35 1076.11 1986.41C1081.37 1988.41 1091.96 1997.87 1095.16 1998.7C1102.37 2000.58 1123.53 1996.47 1130.46 1987.25C1133.03 1983.85 1131.82 1979.01 1132.56 1974.15C1135.62 1953.93 1132.67 1941.77 1127.54 1935.7C1101.23 1940.8 1072.17 1926.91 1039.77 1905.04L1018.53 1876.18Z" fill="#FF050B"/>
<path fill-rule="evenodd" clip-rule="evenodd" d="M1020.48 1875.18L1020.48 1875.18C1020.66 1875.42 1041.74 1902.91 1041.74 1902.91C1059.25 1914.27 1075.74 1923.3 1091.27 1928.33C1103.7 1932.35 1115.49 1933.76 1126.71 1931.42C1128.26 1931.12 1129.85 1931.68 1130.87 1932.89C1133.99 1936.5 1136.54 1941.97 1137.72 1949.72C1138.72 1956.27 1138.72 1964.58 1137.25 1974.86C1136.77 1978.19 1137.19 1981.5 1136.71 1984.37C1136.36 1986.49 1135.62 1988.43 1134.33 1990.16C1130.55 1995.22 1123.22 1999.19 1115.51 2001.5C1107.05 2004.04 1098.25 2004.57 1093.92 2003.43C1093.09 2003.22 1091.93 2002.71 1090.58 2001.89C1086.38 1999.33 1078.61 1992.55 1074.39 1990.93C1060.67 1985.6 1043.68 1978.5 1028.54 1970.94C1017.09 1965.23 1006.69 1959.25 999.423 1953.62C978.311 1937.2 965.15 1918.05 960.391 1899.47C954.435 1876.23 961.348 1853.8 982.336 1838.4C989.309 1833.3 995.738 1834.69 1001.34 1839.47C1012.15 1848.68 1019.49 1871.93 1020.48 1875.18ZM1016.46 1876.79C1016.46 1876.79 1010.6 1857.93 1001.62 1847.22C997.078 1841.8 991.698 1838.41 985.771 1842.98C967.438 1857.07 961.615 1877.08 967.35 1897.61C972.117 1914.69 984.766 1932.04 1004.59 1946.83C1011.58 1952.06 1021.58 1957.53 1032.53 1962.8C1047.52 1970.01 1064.29 1976.81 1077.84 1981.88C1079.21 1982.4 1080.9 1983.32 1082.72 1984.48C1086.11 1986.64 1090.1 1989.72 1093.28 1991.96C1094.66 1992.92 1095.72 1993.79 1096.39 1993.97C1099.68 1994.82 1106.29 1994 1112.71 1992.09C1118.29 1990.43 1123.83 1987.98 1126.59 1984.34C1127.15 1983.62 1127.25 1982.72 1127.34 1981.79C1127.59 1979.19 1127.41 1976.32 1127.87 1973.44C1129.33 1964.28 1129.51 1956.87 1128.74 1950.99C1128.15 1946.52 1127.06 1943.02 1125.54 1940.42C1113.78 1941.97 1101.54 1940.16 1088.8 1935.6C1072.81 1929.88 1055.97 1919.87 1038.17 1907.41C1037.9 1907.22 1037.66 1907 1037.47 1906.73L1016.79 1877.46C1016.64 1877.26 1016.53 1877.03 1016.46 1876.79Z" fill="black"/>
<path fill-rule="evenodd" clip-rule="evenodd" d="M982.44 1860.55C982.44 1860.55 985.548 1868.82 994.065 1873.77C1010.62 1871.57 1021.17 1881.51 1032.73 1887.26C1025.56 1878.61 1020.17 1857.83 999.268 1851.89L982.44 1860.55Z" fill="#FF050B"/>
<path fill-rule="evenodd" clip-rule="evenodd" d="M1190.29 1840.95C1190.29 1840.95 1170.49 1822.09 1191.3 1834.83C1229.33 1858.1 1252.32 1901.85 1235.15 1942.96C1222.8 1972.52 1181.72 1965.04 1153.44 1964.94C1126.46 1964.84 1091.39 1957.53 1091.52 1948.77C1091.52 1948.77 1085.67 1935.84 1085.55 1930.87C1085.45 1926.53 1090.83 1918.96 1090.83 1918.96C1090.83 1918.96 1076.26 1897 1109.92 1897.88C1114.74 1898.01 1130.8 1899.04 1135.53 1902.38C1138.81 1904.7 1142.34 1911.49 1146.02 1911.45C1173.16 1911.13 1191.71 1907.79 1196.77 1901.46C1206.63 1889.14 1190.29 1840.95 1190.29 1840.95Z" fill="#FF050B"/>
<path fill-rule="evenodd" clip-rule="evenodd" d="M1146.2 1907.32C1158.34 1907.33 1168.72 1906.71 1176.9 1905.44C1185.6 1904.09 1191.66 1902.32 1194.12 1899.34C1197.47 1895.3 1197.23 1886.73 1196.15 1877.6C1194.33 1862.24 1189.26 1845.33 1188.29 1842.2C1186.78 1840.75 1181.73 1835.83 1180.14 1833.22C1179.18 1831.63 1179.31 1830.25 1179.64 1829.56C1180.06 1828.69 1181.02 1827.68 1183.16 1828.05C1184.52 1828.29 1187.44 1829.56 1192.62 1832.66C1211.93 1844.2 1227.52 1860.9 1236.38 1879.89C1245.71 1899.91 1247.57 1922.47 1238.64 1944.42C1233.04 1958.15 1221.87 1964.85 1208.4 1967.87C1191.23 1971.73 1170.12 1969.36 1153.43 1969.42C1137.68 1969.44 1119.25 1967.08 1106.28 1963.38C1098.7 1961.22 1092.9 1958.44 1089.98 1955.63C1088.11 1953.83 1087.12 1951.89 1086.85 1949.97C1085.98 1948 1083.63 1942.54 1082.16 1937.83C1081.33 1935.16 1080.81 1932.69 1080.77 1930.98C1080.72 1928.94 1081.42 1926.36 1082.53 1923.87C1083.38 1921.98 1084.43 1920.13 1085.3 1918.73C1084.57 1917.17 1083.75 1915.09 1083.32 1912.81C1082.66 1909.35 1082.85 1905.51 1084.84 1902.11C1087.59 1897.43 1094.34 1892.82 1110.04 1893.35C1113.44 1893.47 1122.2 1894.05 1129.03 1895.52C1132.87 1896.35 1136.15 1897.53 1138.01 1898.88C1139.65 1900.06 1141.39 1902.17 1143.12 1904.24C1144.13 1905.45 1146.04 1907.17 1146.2 1907.32ZM1096.26 1948.43C1096.41 1948.6 1096.74 1948.96 1097 1949.18C1097.85 1949.87 1098.98 1950.52 1100.31 1951.17C1105.32 1953.59 1112.85 1955.67 1121.33 1957.26C1131.55 1959.18 1143.11 1960.38 1153.46 1960.47C1169.61 1960.64 1190 1963.36 1206.67 1959.89C1217.63 1957.6 1226.93 1952.56 1231.66 1941.5C1240.19 1921.61 1238.75 1900.98 1230.58 1882.53C1222.53 1864.37 1208.04 1848.3 1189.97 1836.99C1189.26 1836.55 1188.58 1836.14 1187.93 1835.77C1189.91 1837.64 1191.88 1839.29 1191.88 1839.29C1192.14 1839.54 1192.35 1839.86 1192.47 1840.21C1192.47 1840.21 1201.15 1864.44 1202.82 1883.17C1203.6 1891.86 1202.63 1899.42 1199.43 1903.58C1196.92 1906.81 1191.53 1909.65 1183.51 1911.62C1174.39 1913.87 1161.61 1915.19 1146.06 1915.58C1144.38 1915.62 1142.66 1915.02 1140.99 1913.85C1138.24 1911.93 1135.56 1907.61 1133.05 1905.89C1131.46 1904.79 1128.27 1904.22 1124.85 1903.69C1119.04 1902.79 1112.53 1902.47 1109.8 1902.42C1101.76 1902.27 1096.96 1903.35 1094.27 1905.39C1092.24 1906.94 1092.25 1909.14 1092.62 1910.99C1093.2 1913.93 1094.81 1916.33 1094.81 1916.33C1095.89 1917.98 1095.86 1920.12 1094.72 1921.73C1094.72 1921.73 1093.07 1924.05 1091.74 1926.75C1091.05 1928.13 1090.31 1929.6 1090.34 1930.77C1090.37 1932.19 1091.06 1934.39 1091.84 1936.67C1093.52 1941.63 1095.85 1946.81 1095.85 1946.81C1096.08 1947.32 1096.22 1947.87 1096.26 1948.43ZM1184.12 1831.56C1184.45 1831.01 1184.69 1830.37 1184.17 1830.5C1183.76 1830.6 1183.79 1830.99 1184.12 1831.56Z" fill="black"/>
<path fill-rule="evenodd" clip-rule="evenodd" d="M1209.95 1883.12L1201.3 1906.05C1202.8 1892.77 1201.25 1881.54 1194.85 1874.05L1185.75 1834.81C1195.54 1840.32 1206.69 1855.5 1215.45 1865.01L1209.95 1883.12Z" fill="#FF050B"/>
<path fill-rule="evenodd" clip-rule="evenodd" d="M1085.19 1566.45C1085.19 1566.45 1045.67 1594.53 1018.56 1633.56C987.522 1678.23 966.599 1739.63 967.88 1766.57C971.078 1833.86 1028.31 1885.91 1095.61 1882.71C1162.91 1879.51 1214.95 1822.27 1211.75 1754.98C1210.64 1731.54 1196.21 1677.88 1159.47 1647.15C1109.88 1605.68 1085.19 1566.45 1085.19 1566.45Z" fill="#FF050B"/>
<path fill-rule="evenodd" clip-rule="evenodd" d="M1086.11 1565.87C1086.11 1565.87 1097.72 1583.82 1120.84 1608.15C1131.68 1619.56 1145.04 1632.38 1160.94 1645.4C1177.43 1658.91 1189.63 1676.91 1198.24 1694.9C1209.35 1718.14 1214.45 1741.35 1215.21 1754.81C1217.1 1789.5 1204.73 1821.71 1183.18 1845.66C1161.54 1869.71 1130.65 1885.39 1095.82 1887.17C1060.98 1888.71 1028.74 1876.04 1004.91 1854.16C981.163 1832.35 965.781 1801.46 964.363 1766.74C963.859 1753.68 968.417 1732.72 976.898 1709.48C986.176 1684.06 1000.1 1655.85 1016.79 1632.33C1026.47 1618.72 1037.65 1606.46 1048.12 1596.28C1067.6 1577.32 1084.56 1565.56 1084.56 1565.56C1084.81 1565.38 1085.11 1565.32 1085.41 1565.38C1085.7 1565.44 1085.96 1565.61 1086.11 1565.87ZM1084.9 1568.02C1081.17 1570.82 1066.66 1582.05 1050.41 1598.58C1040.32 1608.84 1029.57 1621.16 1020.32 1634.78C1007.14 1654.17 995.901 1676.66 987.498 1698.09C976.681 1725.68 970.551 1751.47 971.396 1766.4C973.164 1798.98 988.015 1827.74 1010.51 1847.99C1032.91 1868.16 1062.94 1879.89 1095.4 1878.25C1127.87 1876.82 1156.66 1862.3 1177.06 1840.1C1197.54 1817.8 1209.61 1787.75 1208.3 1755.14C1207.8 1742.21 1203.21 1719.87 1192.97 1697.36C1185 1679.86 1173.63 1662.25 1158 1648.91C1142.23 1635.44 1129.01 1622.24 1118.32 1610.48C1098.65 1588.84 1087.55 1572.16 1084.9 1568.02Z" fill="black"/>
<path fill-rule="evenodd" clip-rule="evenodd" d="M1095.59 1812.22C1106.67 1811.69 1119.37 1811.47 1127.15 1816.34C1132.85 1819.91 1135.29 1827.32 1135.6 1833.85C1136.33 1849.27 1118.07 1863.51 1098.86 1864.43C1079.66 1865.34 1060.06 1854.58 1059.33 1839.15C1058.91 1830.42 1062.97 1822.16 1071.32 1817.4C1077.72 1813.74 1087.25 1812.61 1095.59 1812.22Z" fill="#D8CF82"/>
<path fill-rule="evenodd" clip-rule="evenodd" d="M1095.51 1810.67C1101.93 1810.24 1108.89 1809.93 1115.17 1810.62C1120.13 1811.16 1124.67 1812.36 1128.28 1814.54C1130.93 1816.14 1132.98 1818.46 1134.52 1821.14C1136.69 1824.94 1137.78 1829.5 1138.05 1833.73C1138.62 1842.8 1133.3 1851.65 1124.89 1858.04C1117.8 1863.42 1108.52 1867 1099.01 1867.56C1087.52 1868.13 1075.85 1864.81 1067.73 1858.8C1060.97 1853.8 1056.66 1846.99 1056.4 1839.29C1056.26 1834.31 1057.4 1829.46 1059.85 1825.26C1062.16 1821.27 1065.6 1817.83 1070.17 1815.38C1073.08 1813.83 1076.54 1812.74 1080.26 1812.02C1085.19 1811.07 1090.56 1810.74 1095.51 1810.67ZM1095.66 1813.77C1090.92 1814.14 1085.81 1814.79 1081.14 1815.98C1077.92 1816.81 1074.94 1817.91 1072.47 1819.41C1068.87 1821.59 1066.22 1824.51 1064.5 1827.82C1062.72 1831.23 1061.98 1835.08 1062.25 1839.01C1062.68 1846.32 1068.16 1852.18 1075.51 1856.11C1082.18 1859.66 1090.47 1861.66 1098.71 1861.3C1107.03 1860.99 1115.19 1858 1121.51 1853.46C1128.55 1848.39 1133.38 1841.42 1133.14 1833.96C1133.04 1831 1132.5 1827.82 1131.32 1824.96C1130.18 1822.21 1128.49 1819.75 1126.02 1818.14C1122.94 1816.14 1119 1815.02 1114.68 1814.39C1108.63 1813.51 1101.89 1813.58 1095.66 1813.77Z" fill="black"/>
<path d="M1098.74 1853.03C1110.46 1852.47 1119.62 1844.88 1119.2 1836.08C1118.79 1827.28 1108.95 1820.6 1097.23 1821.15C1085.51 1821.71 1076.35 1829.3 1076.77 1838.1C1077.19 1846.9 1087.03 1853.58 1098.74 1853.03Z" fill="#D8CF82"/>
<path fill-rule="evenodd" clip-rule="evenodd" d="M1097.19 1820.24C1103.99 1819.79 1110.23 1821.74 1114.54 1825.11C1118.13 1827.92 1120.37 1831.74 1120.65 1836.01C1120.98 1841.31 1118.2 1846.28 1113.46 1849.81C1109.64 1852.65 1104.52 1854.53 1098.83 1854.87C1091.81 1855.22 1085.38 1853.15 1081.03 1849.58C1077.39 1846.59 1075.18 1842.59 1075.04 1838.18C1074.93 1833.83 1076.82 1829.74 1080.22 1826.57C1084.24 1822.83 1090.32 1820.35 1097.19 1820.24ZM1097.27 1822.07C1092.2 1822.47 1087.69 1824.26 1084.31 1826.86C1080.52 1829.76 1078.2 1833.74 1078.51 1838.02C1078.76 1842.22 1081.55 1845.76 1085.61 1848.13C1089.17 1850.2 1093.73 1851.39 1098.66 1851.18C1103.62 1851 1108.11 1849.48 1111.5 1847.09C1115.41 1844.34 1117.89 1840.45 1117.76 1836.15C1117.63 1831.78 1114.88 1827.98 1110.73 1825.44C1107.09 1823.2 1102.38 1821.92 1097.27 1822.07Z" fill="black"/>
<path fill-rule="evenodd" clip-rule="evenodd" d="M1099.18 1829.94C1113.44 1829.26 1125.49 1838.38 1126.05 1850.3C1126.62 1862.22 1115.49 1872.46 1101.23 1873.14C1086.97 1873.81 1074.93 1864.68 1074.36 1852.76C1073.8 1840.84 1084.92 1830.61 1099.18 1829.94ZM1099.37 1836.31C1089.69 1836.77 1082.09 1842.84 1082.43 1849.84C1082.76 1856.85 1090.9 1862.16 1100.57 1861.7C1110.26 1861.24 1117.85 1855.18 1117.52 1848.17C1117.18 1841.17 1109.05 1835.85 1099.37 1836.31Z" fill="#D8CF82"/>
<path fill-rule="evenodd" clip-rule="evenodd" d="M1099.11 1828.45C1106.22 1827.94 1112.86 1829.81 1117.99 1833.19C1124 1837.15 1127.91 1843.23 1128.39 1850.19C1128.87 1857.27 1125.66 1863.9 1120.15 1868.71C1115.35 1872.9 1108.76 1875.66 1101.37 1876.11C1093.94 1876.51 1087.02 1874.51 1081.76 1870.84C1075.66 1866.56 1071.79 1860.12 1071.55 1852.89C1071.43 1845.79 1074.79 1839.23 1080.55 1834.71C1085.42 1830.9 1091.93 1828.5 1099.11 1828.45ZM1099.25 1831.42C1092.98 1831.98 1087.47 1834.51 1083.45 1838.15C1079.23 1841.98 1076.74 1847.12 1077.17 1852.63C1077.51 1858.02 1080.68 1862.61 1085.28 1865.75C1089.55 1868.68 1095.08 1870.4 1101.09 1870.15C1107.15 1869.95 1112.61 1867.86 1116.66 1864.56C1121.08 1860.96 1123.87 1855.95 1123.72 1850.42C1123.57 1844.77 1120.5 1839.79 1115.79 1836.36C1111.38 1833.16 1105.58 1831.27 1099.25 1831.42ZM1099.3 1834.83C1105.14 1834.18 1110.54 1835.62 1114.36 1838.25C1117.88 1840.65 1119.97 1844.16 1120.33 1848.04C1120.63 1852.02 1118.95 1855.87 1115.8 1858.86C1112.28 1862.21 1106.85 1864.43 1100.72 1864.69C1094.64 1864.83 1089.14 1863.01 1085.42 1859.98C1082.14 1857.32 1080.15 1853.82 1080.09 1849.95C1080.04 1846.17 1081.75 1842.62 1084.87 1839.92C1088.34 1836.91 1093.49 1834.89 1099.3 1834.83ZM1099.44 1837.79C1095.44 1838.14 1091.88 1839.51 1089.21 1841.5C1086.3 1843.65 1084.51 1846.58 1084.77 1849.73C1085.01 1852.77 1087.25 1855.21 1090.35 1856.83C1093.13 1858.28 1096.66 1858.99 1100.43 1858.72C1104.17 1858.51 1107.51 1857.31 1110.08 1855.56C1112.84 1853.7 1114.78 1851.21 1114.71 1848.31C1114.71 1845.28 1112.77 1842.64 1109.83 1840.78C1107.03 1839.01 1103.44 1837.85 1099.44 1837.79Z" fill="black"/>
<path d="M1125.2 1769.92C1131.66 1769.62 1136.59 1763.02 1136.22 1755.2C1135.85 1747.38 1130.31 1741.28 1123.86 1741.59C1117.4 1741.9 1112.46 1748.49 1112.84 1756.31C1113.21 1764.14 1118.74 1770.23 1125.2 1769.92Z" fill="white"/>
<path fill-rule="evenodd" clip-rule="evenodd" d="M1123.8 1740.5C1127.74 1739.85 1131.5 1741.48 1134.47 1744.37C1137.16 1746.97 1138.88 1750.74 1139.53 1755.04C1140.1 1759.57 1139.03 1763.83 1137.02 1767.18C1134.47 1771.43 1130.17 1773.98 1125.41 1774.38C1121.51 1774.45 1117.77 1773.08 1114.96 1770.32C1111.62 1767.05 1109.39 1762.07 1109.54 1756.47C1109.78 1752.12 1111.14 1748.21 1113.56 1745.37C1116.25 1742.21 1119.83 1740.24 1123.8 1740.5ZM1123.91 1742.67C1120.98 1743.15 1118.74 1745.18 1117.3 1747.91C1116.06 1750.23 1115.67 1753.12 1116.13 1756.16C1116.48 1758.96 1117.83 1761.31 1119.48 1763.09C1120.97 1764.68 1122.9 1765.64 1124.99 1765.46C1127.08 1765.44 1128.92 1764.3 1130.24 1762.57C1131.72 1760.64 1132.83 1758.18 1132.91 1755.36C1133.08 1752.29 1132.43 1749.46 1130.98 1747.26C1129.28 1744.69 1126.86 1742.88 1123.91 1742.67Z" fill="black"/>
<path d="M1051.5 1775.52C1057.96 1775.21 1062.92 1769.2 1062.58 1762.09C1062.24 1754.98 1056.73 1749.46 1050.27 1749.77C1043.82 1750.07 1038.86 1756.09 1039.19 1763.2C1039.53 1770.31 1045.04 1775.83 1051.5 1775.52Z" fill="white"/>
<path fill-rule="evenodd" clip-rule="evenodd" d="M1050.22 1748.68C1054.04 1748.03 1057.66 1749.37 1060.57 1751.79C1063.43 1754.18 1065.24 1757.79 1065.89 1761.93C1066.46 1766.31 1065.23 1770.44 1062.99 1773.66C1060.43 1777.35 1056.3 1779.59 1051.71 1779.98C1047.11 1780.02 1042.79 1778.19 1039.88 1774.75C1037.36 1771.76 1035.75 1767.76 1035.9 1763.36C1036.15 1759.17 1037.61 1755.41 1040.23 1752.77C1042.89 1750.08 1046.37 1748.4 1050.22 1748.68ZM1050.33 1750.85C1047.48 1751.34 1045.26 1753.15 1043.77 1755.56C1042.48 1757.66 1042.06 1760.29 1042.49 1763.04C1042.81 1765.55 1044.16 1767.58 1045.81 1769.11C1047.29 1770.49 1049.22 1771.24 1051.29 1771.06C1053.35 1771.04 1055.21 1770.1 1056.55 1768.59C1058.04 1766.91 1059.19 1764.77 1059.27 1762.25C1059.44 1759.47 1058.77 1756.89 1057.28 1754.92C1055.58 1752.67 1053.21 1751.07 1050.33 1750.85Z" fill="black"/>
<path fill-rule="evenodd" clip-rule="evenodd" d="M978.439 1722.84C978.439 1722.84 968.617 1694.41 955.61 1720.24C938.785 1753.66 972.539 1790.78 972.539 1790.78" fill="#FF050B"/>
<path fill-rule="evenodd" clip-rule="evenodd" d="M979.465 1722.48C979.663 1723.05 979.361 1723.67 978.793 1723.87C978.225 1724.06 977.605 1723.76 977.41 1723.19C977.41 1723.19 975.679 1719.4 972.998 1716.06C971.438 1714.12 969.544 1712.34 967.393 1712.02C966.154 1711.83 964.99 1712.55 963.632 1713.96C962.065 1715.57 960.562 1718.15 958.957 1721.93C956.363 1727.58 955.503 1733.3 955.384 1738.86C955.32 1741.82 955.457 1744.75 955.814 1747.63C956.187 1750.64 956.724 1753.59 957.442 1756.45C959.048 1762.84 961.358 1768.74 963.788 1773.79C968.499 1783.56 973.343 1790.05 973.343 1790.05C973.747 1790.49 973.715 1791.18 973.271 1791.58C972.827 1791.99 972.137 1791.95 971.732 1791.51C971.732 1791.51 962.062 1782.63 954.601 1769.01C951.642 1763.61 949.08 1757.49 947.637 1750.94C946.699 1746.67 946.252 1742.21 946.532 1737.71C946.932 1731.3 948.799 1724.84 952.265 1718.55C958.662 1707.77 964.315 1705.77 968.527 1707.07C971.084 1707.86 973.362 1709.83 975.06 1712.38C978.005 1716.8 979.465 1722.48 979.465 1722.48Z" fill="black"/>
<path fill-rule="evenodd" clip-rule="evenodd" d="M1193.93 1715.84C1193.93 1715.84 1202.13 1685.28 1219.55 1710.78C1242.08 1743.77 1207.66 1785.84 1207.66 1785.84" fill="#FF050B"/>
<path fill-rule="evenodd" clip-rule="evenodd" d="M1194.99 1716.12C1194.83 1716.7 1194.23 1717.05 1193.65 1716.89C1193.07 1716.74 1192.73 1716.14 1192.88 1715.56C1192.88 1715.56 1194.07 1709.29 1197.11 1704.34C1198.8 1701.6 1201.13 1699.41 1203.92 1698.42C1208.45 1696.8 1214.73 1698.47 1222.67 1708.64C1227.23 1714.85 1229.96 1721.42 1231.05 1728.07C1231.82 1732.79 1231.77 1737.55 1231.13 1742.14C1229.91 1750.97 1226.62 1759.26 1222.89 1766.24C1216.32 1778.49 1208.5 1786.53 1208.5 1786.53C1208.12 1786.99 1207.43 1787.06 1206.97 1786.68C1206.5 1786.3 1206.43 1785.61 1206.82 1785.15C1206.82 1785.15 1211.66 1778 1216.08 1767.48C1218.38 1762 1220.49 1755.61 1221.72 1748.81C1222.28 1745.73 1222.62 1742.58 1222.75 1739.39C1222.88 1736.34 1222.74 1733.25 1222.35 1730.15C1221.63 1724.38 1219.99 1718.53 1216.42 1712.91C1214.14 1709.1 1212.09 1706.55 1210.1 1705.03C1208.31 1703.66 1206.77 1703.06 1205.31 1703.36C1202.86 1703.86 1200.86 1705.88 1199.27 1708.08C1196.55 1711.86 1194.99 1716.12 1194.99 1716.12Z" fill="black"/>
<path fill-rule="evenodd" clip-rule="evenodd" d="M956.461 1717.61C957.128 1730.61 959.357 1752.11 966.538 1764.89C970.707 1772.32 980.983 1769.2 982.022 1779.62C992.455 1818.67 1030.41 1855.75 1070.24 1877.46L1030 1891.02C1030 1891.02 999.545 1867.8 991.102 1873.36C965.259 1890.4 989.078 1928.21 1003.87 1945.78C1018.67 1963.34 1079.86 1978.75 1079.86 1978.75L1114.27 2003.21L1094.09 2009.93L1082.95 2068.73L1070.02 2046.04L1077.32 2000.25L1044.05 1976.15L1034.79 2001.62L1008.04 1974.53C1008.04 1974.53 973.804 1963.95 966.765 1967.37C962.737 1969.32 940.052 1978.4 954.369 1994.7C957.15 1997.87 990.997 2005.47 990.997 2005.47L976.814 2017.46L986.649 2031.52L961.762 2045.94C939.16 2040.31 925.537 2034.92 908.056 2023.09C900.223 2017.79 888.7 2007.98 884.698 1991.59C881.308 1977.71 887.434 1948.93 890.619 1939.74C894.515 1928.51 904.358 1912.54 911.335 1903.96C917.215 1896.74 937.177 1894.81 936.233 1883.87C940.234 1867.6 944.712 1858.83 954.248 1854.1C967.834 1847.36 978.99 1844.9 992.589 1835.13L969.262 1792.11C950.699 1754.5 949.053 1732.01 956.461 1717.61Z" fill="black" fill-opacity="0.3"/>
</svg>
