<svg width="2160" height="2700" viewBox="0 0 2160 2700" fill="none" xmlns="http://www.w3.org/2000/svg">
<path fill-rule="evenodd" clip-rule="evenodd" d="M805.364 1752.94C801.391 1761.28 833.009 1714.49 833.009 1714.49C839.934 1773.42 870.845 1810.21 922.452 1827.88L1115.84 2036.28L899.104 2090.07L793.862 2040.72L715.264 1946.15C680.483 1906.91 647.866 1883.63 636.274 1845.97C627.648 1817.94 619.67 1756.98 619.67 1756.98L710.814 1706.18C710.814 1706.18 809.341 1744.6 805.364 1752.94Z" fill="#E5F20D" stroke="black" stroke-width="6.02444" stroke-miterlimit="1.5" stroke-linecap="round" stroke-linejoin="round"/>
<path fill-rule="evenodd" clip-rule="evenodd" d="M815.123 1499.94C815.123 1499.94 681.59 1629.86 691.892 1679.99C700.138 1720.12 720.751 1708.87 730.777 1716.59C738.326 1722.4 729.629 1753.27 762.305 1745.09C808.345 1733.56 910.288 1701.7 938.532 1662.52C951.364 1644.72 935.323 1603.55 936.053 1595.74C936.963 1586.01 917.62 1590.83 913.797 1583.89C909.27 1575.65 912.308 1563.69 908.176 1563.48C900.914 1563.11 886.871 1579.54 873.076 1560.3C845.46 1521.78 815.123 1499.94 815.123 1499.94Z" fill="#FF050B"/>
<path fill-rule="evenodd" clip-rule="evenodd" d="M815.906 1498.85C815.906 1498.85 829.912 1508.57 847.716 1526.64C856.378 1535.44 865.919 1546.21 875.207 1558.78C878.911 1563.8 882.522 1566.06 886.037 1566.65C891.294 1567.53 896.129 1564.79 900.153 1562.85C903.294 1561.34 906.098 1560.29 908.336 1560.37C910.289 1560.45 911.708 1561.45 912.661 1563.36C913.403 1564.84 913.757 1567.31 914.025 1570.27C914.357 1573.93 914.63 1578.55 916.727 1582.27C917.194 1583.1 918.168 1583.45 919.233 1583.81C920.661 1584.29 922.316 1584.57 924.006 1584.84C928.494 1585.54 933.139 1586.23 935.925 1588.1C938.474 1589.81 939.96 1592.28 939.641 1596.08C939.514 1597.6 940.237 1600.53 941.13 1604.37C943.461 1614.35 947.434 1629.55 947.464 1642.95C947.484 1651.41 945.876 1659.18 941.809 1664.88C929.719 1681.65 904.6 1697.33 875.816 1710.46C836.392 1728.46 790.2 1741.91 763.177 1748.56C752.079 1751.28 745.172 1749.8 740.692 1746.62C734.892 1742.5 732.919 1735.17 731.616 1728.44C731.143 1725.99 730.742 1723.65 730.116 1721.74C729.764 1720.67 729.439 1719.73 728.765 1719.21C726.225 1717.23 722.845 1716.79 719.219 1716.09C713.558 1715.01 707.38 1713.6 701.823 1708.41C696.672 1703.59 691.96 1695.39 689.017 1680.58C685.911 1664.93 696.046 1641.72 712.214 1617.14C748.508 1561.95 814.192 1498.98 814.192 1498.98C814.658 1498.52 815.38 1498.47 815.906 1498.85ZM907.138 1566.63C905.309 1566.9 903.09 1568.19 900.531 1569.33C895.929 1571.37 890.603 1573.29 885.037 1572.22C880.463 1571.34 875.614 1568.53 870.945 1561.83C862.163 1549.2 853.064 1538.34 844.808 1529.43C830.383 1513.86 818.508 1504.26 815.237 1501.71C807.659 1509.28 749.34 1568.13 716.372 1619.83C701.536 1643.1 691.652 1664.76 694.768 1679.4C697.519 1692.37 701.492 1699.64 706.067 1703.82C710.648 1707.99 715.77 1708.91 720.398 1709.74C725.137 1710.59 729.449 1711.43 732.792 1713.98C735.687 1716.18 737.031 1721.29 738.233 1727.12C739.266 1732.15 740.307 1737.88 744.69 1740.92C748.042 1743.24 753.216 1743.72 761.434 1741.61C788.085 1734.83 833.551 1721.02 872.438 1703.1C899.699 1690.53 923.784 1676.07 935.258 1660.16C939.543 1654.28 940.055 1645.49 939.354 1636.43C938.455 1624.77 935.329 1612.66 933.637 1604.63C932.744 1600.41 932.281 1597.16 932.465 1595.41C932.62 1593.9 931.311 1593.5 929.922 1593.07C926.066 1591.86 920.822 1591.59 917.009 1590.23C914.215 1589.23 912.05 1587.7 910.867 1585.5C909.28 1582.55 908.494 1579.21 908.084 1575.98C907.718 1573.06 907.655 1570.27 907.405 1568.09C907.353 1567.63 907.234 1567.05 907.138 1566.63Z" fill="black"/>
<path fill-rule="evenodd" clip-rule="evenodd" d="M843.273 1562.8L773.863 1635.32C799.181 1619.24 821.328 1601.27 845.603 1589.42" fill="white"/>
<path fill-rule="evenodd" clip-rule="evenodd" d="M805.1 1609.42C808.186 1607.52 811.265 1605.66 814.346 1603.84C824.478 1597.88 834.584 1592.55 845.019 1588.22C845.68 1587.9 846.475 1588.17 846.799 1588.83C847.12 1589.49 846.847 1590.29 846.187 1590.61C838.903 1594.74 831.933 1599.47 824.927 1604.48C815.462 1611.26 806.154 1618.64 796.387 1625.96C790.058 1630.7 783.507 1635.33 776.766 1639.89C774.454 1641.36 771.407 1640.88 769.671 1638.76C767.932 1636.64 768.054 1633.55 769.948 1631.58C769.948 1631.58 774.323 1626.84 781.085 1620C785.887 1615.15 791.897 1609.26 798.259 1603.09C802.537 1598.94 806.98 1594.71 811.346 1590.61C827.536 1575.37 842.309 1561.88 842.309 1561.88C842.819 1561.35 843.662 1561.33 844.19 1561.84C844.722 1562.35 844.742 1563.19 844.233 1563.72C844.233 1563.72 831.4 1579.07 816.892 1595.91C813.015 1600.42 809.019 1605 805.1 1609.42Z" fill="black"/>
<path fill-rule="evenodd" clip-rule="evenodd" d="M835.213 1536.39C835.726 1536.39 836.143 1536.8 836.144 1537.32C836.141 1537.83 835.723 1538.25 835.21 1538.25C831.038 1538.54 826.932 1540.02 822.802 1542.41C817.691 1545.36 812.738 1549.82 807.729 1555.32C803.812 1559.63 799.982 1564.63 796.063 1570.07C793.683 1573.38 791.264 1576.83 788.821 1580.42C785.366 1585.51 781.852 1590.83 778.406 1596.42C773.488 1604.4 768.609 1612.74 764.076 1621.48C763.867 1621.95 763.318 1622.17 762.846 1621.96C762.376 1621.75 762.161 1621.2 762.367 1620.73C764.751 1614.1 767.231 1607.61 769.963 1601.33C772.827 1594.75 775.868 1588.44 779.13 1582.51C781.447 1578.29 783.85 1574.27 786.404 1570.52C789.162 1566.48 792.079 1562.77 795.04 1559.37C799.527 1554.23 804.134 1549.83 808.763 1546.31C817.8 1539.42 826.781 1535.81 835.213 1536.39Z" fill="black"/>
<path d="M812.765 1607.06C814.885 1606.53 816.276 1604.51 815.872 1602.54C815.468 1600.58 813.422 1599.41 811.302 1599.95C809.182 1600.48 807.791 1602.5 808.195 1604.47C808.599 1606.43 810.645 1607.6 812.765 1607.06Z" fill="white"/>
<path fill-rule="evenodd" clip-rule="evenodd" d="M810.979 1598.65C812.415 1597.45 813.838 1597.74 815.468 1597.84C817.202 1597.95 817.987 1599.32 819.22 1600.58C819.543 1600.91 819.549 1601.34 819.812 1601.73C821.015 1603.85 820.206 1606.09 819.288 1608.32C818.459 1610.33 816.296 1611.44 814.092 1612.36C813.417 1612.5 812.752 1612.66 812.101 1612.61C810.378 1612.47 808.731 1612.2 807.531 1611.15C807.162 1610.83 806.718 1610.65 806.433 1610.26C805.305 1608.69 803.96 1607.33 804.213 1605.28C804.563 1603.5 804.425 1601.85 805.814 1600.73C807.39 1599.45 808.773 1598.21 810.979 1598.65ZM812.335 1603.36C812.148 1603.41 811.907 1603.51 811.936 1603.35C811.955 1603.22 811.545 1603.3 811.596 1603.17C811.675 1602.98 811.293 1602.81 811.159 1602.66C811.153 1602.85 811.143 1603.03 811.108 1603.22C811.068 1603.44 811.453 1603.49 811.473 1603.7C811.483 1603.79 811.605 1603.81 811.684 1603.79C811.864 1603.75 812.283 1603.81 812.181 1603.65C812.12 1603.55 812.436 1603.48 812.361 1603.39C812.352 1603.38 812.344 1603.37 812.335 1603.36ZM811.159 1602.66C811.16 1602.6 811.164 1602.54 811.164 1602.48C811.162 1602.49 811.156 1602.49 811.154 1602.49C811.092 1602.55 811.109 1602.6 811.159 1602.66ZM811.164 1602.48C811.337 1602.3 811.167 1601.8 811.442 1601.77C811.88 1601.58 812.022 1602.41 812.401 1602.58C812.65 1602.69 812.214 1603.13 812.335 1603.36C812.377 1603.35 812.416 1603.33 812.45 1603.33C812.722 1603.29 813.022 1602.92 812.852 1602.7C812.743 1602.55 812.88 1602.34 812.741 1602.22C812.335 1601.87 812.205 1601.36 811.628 1601.24C811.211 1601.58 811.176 1602.01 811.164 1602.48Z" fill="black"/>
<path fill-rule="evenodd" clip-rule="evenodd" d="M910.907 1587.24C910.907 1587.24 904.974 1586.52 899.697 1585.7C895.715 1585.09 892.311 1584.42 892.311 1584.42C890.823 1583.92 889.697 1582.69 889.336 1581.17C888.972 1579.64 889.426 1578.04 890.533 1576.93C890.533 1576.93 892.164 1574.72 894.444 1572.02C895.296 1571.01 896.232 1569.94 897.223 1568.91C898.207 1567.89 899.243 1566.91 900.222 1566.03C902.84 1563.68 905.016 1562.01 905.016 1562.01C906.302 1560.71 908.211 1560.26 909.942 1560.84C911.673 1561.42 912.928 1562.92 913.182 1564.73C913.182 1564.73 913.277 1568.62 913.18 1573.12C913.054 1579.1 912.646 1585.79 912.646 1585.79C912.711 1586.24 912.534 1586.7 912.181 1587C911.827 1587.29 911.345 1587.38 910.907 1587.24ZM901.97 1579.29C904.456 1580.61 907.054 1582.05 908.95 1583.12C908.225 1581.02 907.239 1578.1 906.324 1575.21C905.876 1575.68 905.411 1576.15 904.938 1576.61C903.958 1577.56 902.939 1578.46 901.97 1579.29Z" fill="black"/>
<path fill-rule="evenodd" clip-rule="evenodd" d="M973.026 1472.48L799.78 1524.16C816.519 1535.5 827.198 1531.48 814.505 1559.94C816.327 1539.24 792.276 1547.41 784.658 1542.73C755.074 1605.48 755.137 1655.65 782.451 1681.08C746.049 1679.06 727.73 1651.93 713.558 1623.48C719.535 1665.83 737.595 1693.18 792.487 1697.45L818.992 1698.57L785.054 1727.18C819.739 1732.43 882.766 1713.59 925.996 1700.03C895.683 1713.17 851.711 1740.42 827.551 1743.6L889.66 1747.01L812.896 1765.99L806.732 1795.04C806.732 1795.04 756.764 1745.04 700.78 1729.59C686.166 1725.55 658.277 1749.52 633.125 1745.84C621.169 1744.09 610.495 1739.76 601.575 1734.77C583.653 1724.73 595.185 1592.49 616.344 1572.96C620.622 1569.02 619.644 1511.42 627.904 1510.4C681.172 1503.78 687.322 1500.01 685.476 1497.06C662.903 1460.98 781.616 1415.67 813.814 1370.8C820.619 1418.83 784.2 1462.07 758.488 1506.9L789.481 1469.9C835.854 1445.71 841.706 1483.77 973.026 1472.48Z" fill="#EBE7C0"/>
<path fill-rule="evenodd" clip-rule="evenodd" d="M613.876 1570.74C613.95 1570.43 614.951 1566.24 615.376 1562.59C616.699 1551.24 617.572 1533 619.716 1521.2C620.62 1516.22 621.828 1512.29 623.244 1510.16C624.48 1508.3 625.999 1507.41 627.51 1507.22C659.859 1503.26 674.603 1500.39 680.727 1498.05C681.211 1497.86 681.706 1497.62 682.106 1497.41C676.077 1486.26 681.242 1474.17 693.49 1461.75C721.862 1432.96 788.647 1401.04 811.586 1369.2C812.24 1368.29 813.38 1367.86 814.471 1368.13C815.558 1368.4 816.375 1369.3 816.533 1370.41C819.407 1391.04 814.573 1410.8 805.97 1430.15C798.371 1447.25 787.82 1464.04 777.234 1480.87L787.712 1468.42C787.906 1468.18 788.147 1467.99 788.414 1467.85C803.043 1460.26 813.775 1458.66 825.457 1459.75C851.185 1462.15 881.717 1478.24 972.863 1470.63C973.818 1470.54 974.679 1471.2 974.859 1472.13C975.037 1473.08 974.475 1474 973.559 1474.27C973.559 1474.27 805.262 1524.91 805.261 1524.91C813.149 1529.58 819.106 1531.6 821.341 1536.27C823.421 1540.63 822.663 1547.47 816.701 1560.91C816.224 1561.99 815.038 1562.56 813.9 1562.26C812.762 1561.97 812.006 1560.89 812.107 1559.72C812.64 1553.53 810.514 1550.44 807.055 1548.94C803.248 1547.29 798.255 1547.26 793.809 1547.02C790.86 1546.86 788.117 1546.58 785.916 1545.94C771.717 1576.79 764.778 1604.47 764.885 1627.51C764.987 1649.46 771.499 1667.11 784.356 1679.04C785.216 1679.84 785.484 1681.1 785.021 1682.18C784.562 1683.26 783.468 1683.94 782.295 1683.88C767.451 1683.08 755.487 1678.27 745.522 1670.95C735.402 1663.5 727.363 1653.43 720.505 1642.3C724.281 1655.46 730.14 1666.49 739.339 1674.99C751.012 1685.77 768.016 1692.38 792.677 1694.27L819.126 1695.34C820.457 1695.4 821.616 1696.26 822.047 1697.52C822.478 1698.78 822.093 1700.18 821.074 1701.04C821.074 1701.04 793.16 1724.64 793.157 1724.64C806.874 1725.32 823.824 1723.1 841.735 1719.46C870 1713.7 900.618 1704.34 924.942 1696.67C926.729 1696.11 928.643 1697.05 929.296 1698.8C929.95 1700.55 929.116 1702.52 927.395 1703.26C907.533 1711.89 881.802 1726.6 859.633 1736.6C855.97 1738.26 852.402 1739.78 848.964 1741.13L889.863 1743.34C891.675 1743.45 893.144 1744.86 893.314 1746.66C893.485 1748.47 892.307 1750.14 890.542 1750.57L816.034 1769.03L810.364 1795.81C810.08 1797.14 809.092 1798.21 807.788 1798.6C806.482 1798.99 805.073 1798.63 804.11 1797.66C804.11 1797.66 784.186 1777.73 755.483 1759.27C739.103 1748.73 719.854 1738.66 699.809 1733.11C696.43 1732.18 692.239 1733.2 687.462 1734.82C678.011 1738.05 666.688 1743.96 655.032 1747.28C647.569 1749.4 639.974 1750.48 632.606 1749.39C626.625 1748.51 620.955 1747.01 615.648 1745.11C609.932 1743.07 604.64 1740.56 599.838 1737.87C596.189 1735.82 593.044 1729.72 591.355 1720.51C588.427 1704.56 588.66 1678.58 591.294 1652.61C594.948 1616.57 603.524 1580.65 613.876 1570.74ZM955.736 1475.65C877.596 1480.38 849.193 1466.32 825.055 1464.18C814.263 1463.23 804.361 1464.77 790.957 1471.73L760.339 1508.45C759.536 1509.41 758.134 1509.59 757.107 1508.88C756.081 1508.16 755.772 1506.78 756.396 1505.7C771.234 1479.69 789.696 1454.22 801.19 1428.04C808.375 1411.68 812.828 1395.04 811.776 1377.81C785.708 1408.13 724.617 1438.58 697.802 1465.98C687.584 1476.43 682.281 1486.17 688.097 1495.42C688.727 1496.43 688.957 1497.48 688.796 1498.56C688.621 1499.74 687.914 1501.25 685.606 1502.6C684.01 1503.53 681.258 1504.59 676.769 1505.72C668.505 1507.81 653.866 1510.34 628.742 1513.51C628.563 1513.79 628.159 1514.45 627.939 1514.99C627.296 1516.56 626.762 1518.66 626.286 1521.12C623.75 1534.15 623.05 1556.44 621.41 1567.32C620.756 1571.65 619.566 1574.5 618.591 1575.4C608.738 1584.52 601.542 1618.97 598.159 1653.3C595.674 1678.52 595.42 1703.74 598.299 1719.23C599.489 1725.62 600.771 1730.25 603.309 1731.67C607.787 1734.17 612.719 1736.49 618.047 1738.38C622.932 1740.12 628.145 1741.48 633.647 1742.28C640.025 1743.21 646.589 1742.17 653.041 1740.32C664.57 1737.01 675.754 1731.13 685.104 1727.92C691.52 1725.73 697.209 1724.82 701.756 1726.07C722.522 1731.79 742.489 1742.16 759.47 1753.06C780.379 1766.49 796.747 1780.69 804.479 1787.8L809.275 1765.23C809.569 1763.84 810.631 1762.74 812.006 1762.41L865.014 1749.32L827.352 1747.22C825.483 1747.12 824 1745.61 823.928 1743.74C823.856 1741.87 825.219 1740.26 827.075 1740.01C835.118 1738.96 845.419 1735.11 856.683 1730.05C866.186 1725.79 876.343 1720.66 886.411 1715.52C872.095 1719.51 857.289 1723.26 843.076 1726.11C820.794 1730.57 799.939 1732.79 784.562 1730.44C783.279 1730.25 782.232 1729.32 781.88 1728.07C781.528 1726.83 781.939 1725.49 782.927 1724.66L810.56 1701.43L792.354 1700.64C792.316 1700.64 792.277 1700.64 792.242 1700.63C765.765 1698.53 747.622 1691.14 735.132 1679.53C720.822 1666.23 713.858 1647.3 710.592 1623.9C710.388 1622.44 711.267 1621.06 712.668 1620.62C714.07 1620.18 715.582 1620.83 716.238 1622.15C724.627 1639.07 734.459 1655.58 748.94 1666.32C756.338 1671.8 764.963 1675.77 775.234 1677.48C764.889 1664.91 759.546 1647.96 759.538 1627.53C759.528 1603.33 767.008 1574.15 782.407 1541.67C782.709 1541.03 783.27 1540.55 783.948 1540.35C784.627 1540.14 785.36 1540.24 785.962 1540.61C787.813 1541.75 790.806 1541.89 794.086 1542.09C799.104 1542.38 804.719 1542.58 809.009 1544.46C811.892 1545.73 814.307 1547.66 815.706 1550.77C817.955 1544.64 818.355 1540.96 817.093 1538.29C816.058 1536.09 813.87 1534.78 811.041 1533.23C807.617 1531.36 803.303 1529.33 798.495 1526.06C797.759 1525.56 797.378 1524.69 797.513 1523.81C797.646 1522.94 798.275 1522.22 799.125 1521.96L955.736 1475.65Z" fill="black"/>
<path fill-rule="evenodd" clip-rule="evenodd" d="M643.165 1627.04L628.342 1514.24L698.278 1546.56L659.308 1546.13L643.165 1627.04Z" fill="#D8CF82"/>
<path fill-rule="evenodd" clip-rule="evenodd" d="M641.315 1627.28L624.904 1514.69C624.739 1513.44 625.267 1512.19 626.286 1511.44C627.305 1510.69 628.65 1510.56 629.798 1511.09C629.798 1511.09 652.388 1521.26 671.862 1530.26C686.727 1537.13 699.767 1543.34 699.767 1543.34C701.288 1544.04 702.109 1545.71 701.74 1547.34C701.374 1548.97 699.913 1550.12 698.24 1550.11L661.81 1549.3L644.995 1627.4C644.817 1628.3 644.016 1628.94 643.102 1628.91C642.191 1628.87 641.432 1628.19 641.315 1627.28ZM643.574 1614.48L656.251 1545.52C656.545 1544.05 657.842 1543 659.34 1543.01L681.849 1543.01C677.883 1541.2 673.398 1539.15 668.747 1537C655.272 1530.77 640.399 1523.77 632.516 1520.05L643.574 1614.48Z" fill="black"/>
<path fill-rule="evenodd" clip-rule="evenodd" d="M775.878 1488.58L715.466 1453.04L726.032 1527.12L737.508 1491.21L775.878 1488.58Z" fill="#D8CF82"/>
<path fill-rule="evenodd" clip-rule="evenodd" d="M776.001 1490.4L739.553 1493.71L729.215 1528.14C728.742 1529.62 727.305 1530.58 725.75 1530.45C724.198 1530.32 722.941 1529.13 722.723 1527.59C722.723 1527.59 719.795 1509.11 717.184 1490.59C714.572 1472.06 712.276 1453.49 712.276 1453.49C712.102 1452.26 712.644 1451.05 713.672 1450.36C714.701 1449.67 716.032 1449.63 717.1 1450.26L776.799 1487.01C777.488 1487.42 777.831 1488.22 777.647 1489C777.465 1489.78 776.796 1490.34 776.001 1490.4ZM769.445 1487.06L719.694 1459.11C720.8 1466.11 722.619 1477.83 724.313 1489.57C725.487 1497.71 726.602 1505.86 727.48 1512.44L734.954 1490.39C735.288 1489.34 736.229 1488.61 737.325 1488.53L769.445 1487.06Z" fill="black"/>
<path d="M969.913 1607C995.006 1608.89 1018.62 1590.74 1022.65 1566.45C1026.68 1542.16 1009.6 1520.93 984.51 1519.04C959.417 1517.14 935.808 1535.3 931.777 1559.59C927.746 1583.88 944.82 1605.1 969.913 1607Z" fill="#FF99AA" fill-opacity="0.88" stroke="white" stroke-opacity="0.52" stroke-width="3.28889" stroke-miterlimit="1.5" stroke-linecap="round" stroke-linejoin="round"/>
<path d="M986.056 1561.14C988.743 1561.34 991.311 1559.15 991.793 1556.25C992.275 1553.35 990.487 1550.83 987.801 1550.63C985.114 1550.42 982.545 1552.61 982.063 1555.51C981.581 1558.42 983.369 1560.94 986.056 1561.14Z" fill="white" stroke="white" stroke-opacity="0.52" stroke-width="3.07583" stroke-miterlimit="1.5" stroke-linecap="round" stroke-linejoin="round"/>
<path d="M998.115 1569.07C1000.8 1569.27 1003.37 1567.08 1003.85 1564.18C1004.33 1561.27 1002.55 1558.76 999.86 1558.55C997.173 1558.35 994.604 1560.54 994.122 1563.44C993.64 1566.35 995.428 1568.86 998.115 1569.07Z" fill="white" stroke="white" stroke-opacity="0.52" stroke-width="3.07583" stroke-miterlimit="1.5" stroke-linecap="round" stroke-linejoin="round"/>
<path fill-rule="evenodd" clip-rule="evenodd" d="M1353.8 1966.34C1392.14 1813.84 1385.12 1728.15 1345.22 1615.21C1345.22 1615.21 1429.63 1638.1 1491.99 1642.4C1556.56 1646.85 1626.33 1654.44 1623.73 1661.24C1623.73 1661.24 1649.45 1646.51 1629.4 1634.07C1548.26 1583.74 1340.35 1458.25 1309.42 1474.05C1221.83 1518.77 1146.26 1896.93 1146.26 1896.93C1198.48 1972.59 1215.13 2019.28 1353.8 1966.34Z" fill="#FF050B" stroke="black" stroke-width="6.82538" stroke-miterlimit="1.5" stroke-linecap="round" stroke-linejoin="round"/>
<path fill-rule="evenodd" clip-rule="evenodd" d="M1416.18 1492.81L1407.01 1627.34C1407.01 1627.34 1509.07 1661.54 1539.12 1654.76C1569.17 1647.97 1587.22 1657.22 1587.22 1657.22L1641.07 1698.1L1647.29 1496.1L1610.88 1547.34L1570.94 1544.26L1570.78 1564.84L1526.55 1528.81L1477.08 1503.39L1416.18 1492.81Z" fill="#2AB6E9" stroke="black" stroke-width="8.28367" stroke-miterlimit="1.5" stroke-linecap="round" stroke-linejoin="round"/>
<path d="M1444.53 1524.99L1438.74 1567.49L1515.54 1560.24L1507.79 1586.15L1563.6 1601.78L1606.71 1613.76L1657.63 1603.74" stroke="black" stroke-width="8.33047" stroke-miterlimit="1.5" stroke-linecap="round" stroke-linejoin="round"/>
<path d="M1569.44 1627.1C1578.72 1634.6 1592.56 1634.08 1600.35 1625.93C1608.14 1617.78 1606.93 1605.1 1597.65 1597.59C1588.37 1590.09 1574.53 1590.61 1566.74 1598.76C1558.95 1606.91 1560.16 1619.6 1569.44 1627.1Z" fill="#007199" stroke="black" stroke-width="8.32439" stroke-miterlimit="1.5" stroke-linecap="round" stroke-linejoin="round"/>
<path fill-rule="evenodd" clip-rule="evenodd" d="M1289.02 2024.38C1385.79 2041.33 1539.01 1864.01 1526.38 1849.08C1437.69 1744.22 1328.71 1652.56 1236.33 1601.91C1236.33 1601.91 1327.96 1609.47 1385.43 1581.4C1442.89 1553.33 1507.92 1512.39 1507.92 1512.39L1497.62 1448.4C1497.62 1448.4 1103.44 1509.15 1090.72 1549.89C1061.84 1642.42 1289.02 2024.38 1289.02 2024.38Z" fill="#FF050B" stroke="black" stroke-width="6.99252" stroke-miterlimit="1.5" stroke-linecap="round" stroke-linejoin="round"/>
<path fill-rule="evenodd" clip-rule="evenodd" d="M1234.1 1484.09L1325.44 1621.62C1325.44 1621.62 1361.76 1606.16 1396.85 1588.43C1422.88 1575.3 1448.21 1560.93 1457.55 1550.71C1479.48 1526.73 1502.06 1523.88 1502.06 1523.88L1523.82 1527.79L1533.85 1514.91L1548.11 1529.29L1578.74 1526.96L1644.59 1508.08C1646.71 1379.34 1599.5 1278.75 1514.81 1199.56L1496.42 1213.04C1496.42 1213.04 1431.49 1233.15 1422.17 1251.46C1412.85 1269.75 1440.49 1322.86 1440.49 1322.86L1445.64 1414.2L1407.96 1435.57L1422.32 1453.54L1396.87 1440.1L1361.58 1445.13L1355.18 1460L1340.03 1451.08L1295.71 1456.6L1234.1 1484.09Z" fill="#2AB6E9" stroke="black" stroke-width="8.14629" stroke-miterlimit="1.5" stroke-linecap="round" stroke-linejoin="round"/>
<path fill-rule="evenodd" clip-rule="evenodd" d="M1297.75 1544.25C1301.81 1554.12 1332.55 1587.32 1332.55 1587.32L1343.7 1547.25L1371.57 1577.02L1383.09 1555.77L1389.41 1569.9L1416.24 1520.91L1437.31 1554.99L1454.73 1509.29L1482.11 1492.84L1534.95 1473.61L1535.97 1496.44L1555.89 1453.03L1549.93 1493.82L1576.57 1453.32L1559.58 1501.15L1577.6 1482L1586.23 1502.84L1600.57 1491.47L1612.75 1465.31L1621.4 1416.51L1634.78 1511.16L1549.19 1530.26L1537.45 1513.49L1523.43 1525.12L1478.46 1531.84L1455.85 1553.73L1486.5 1611.2L1501.31 1586.8L1504.92 1604.68L1527.5 1598.37L1521.58 1617.17L1546.64 1604.86L1571.66 1599.62L1603.87 1611.18L1611.61 1583.51L1624.9 1597.5L1628.64 1680.25L1585.12 1653.96L1500.42 1655.99L1347.53 1613.77L1364.24 1666.58L1533.28 1862.47L1515.71 1876.47L1235.05 1599.8L1293.64 1579.25C1293.64 1579.25 1293.69 1534.38 1297.75 1544.25Z" fill="black" fill-opacity="0.3"/>
<path fill-rule="evenodd" clip-rule="evenodd" d="M1502.06 1221.85C1501.44 1221.03 1501.61 1219.86 1502.43 1219.24C1503.26 1218.61 1504.43 1218.78 1505.05 1219.6C1505.05 1219.6 1511.13 1225.96 1516.11 1231.79C1519.88 1236.21 1522.94 1240.32 1522.94 1240.32C1523.24 1240.71 1523.45 1241.17 1523.57 1241.65L1527.17 1263.67C1527.42 1264.68 1526.81 1265.7 1525.81 1265.94C1524.81 1266.19 1523.79 1265.58 1523.55 1264.58L1516.74 1244.3C1515.85 1243.12 1513.34 1239.72 1510.75 1235.84C1506.5 1229.45 1502.06 1221.85 1502.06 1221.85Z" fill="black"/>
<path fill-rule="evenodd" clip-rule="evenodd" d="M1527.15 1264.88C1526.53 1264.06 1526.7 1262.88 1527.52 1262.27C1528.34 1261.64 1529.51 1261.81 1530.13 1262.63C1530.13 1262.63 1536.22 1268.99 1541.19 1274.82C1544.96 1279.24 1548.03 1283.35 1548.03 1283.35C1548.33 1283.74 1548.54 1284.2 1548.66 1284.68L1552.26 1306.7C1552.51 1307.71 1551.9 1308.72 1550.9 1308.97C1549.89 1309.22 1548.88 1308.61 1548.63 1307.61L1541.83 1287.33C1540.94 1286.15 1538.42 1282.75 1535.84 1278.87C1531.59 1272.48 1527.15 1264.88 1527.15 1264.88Z" fill="black"/>
<path fill-rule="evenodd" clip-rule="evenodd" d="M1551.83 1311.48C1551.21 1310.66 1551.37 1309.49 1552.2 1308.87C1553.02 1308.25 1554.19 1308.41 1554.81 1309.23C1554.81 1309.23 1560.89 1315.59 1565.87 1321.42C1569.64 1325.84 1572.7 1329.96 1572.7 1329.96C1573 1330.35 1573.21 1330.81 1573.34 1331.28L1576.93 1353.31C1577.19 1354.31 1576.57 1355.33 1575.57 1355.57C1574.57 1355.82 1573.55 1355.21 1573.31 1354.21L1566.5 1333.93C1565.62 1332.76 1563.1 1329.36 1560.51 1325.47C1556.26 1319.08 1551.83 1311.48 1551.83 1311.48Z" fill="black"/>
<path fill-rule="evenodd" clip-rule="evenodd" d="M1572.14 1360.41C1571.52 1359.59 1571.69 1358.42 1572.51 1357.8C1573.34 1357.18 1574.5 1357.34 1575.13 1358.16C1575.13 1358.16 1581.21 1364.52 1586.19 1370.35C1589.96 1374.77 1593.02 1378.89 1593.02 1378.89C1593.32 1379.28 1593.53 1379.74 1593.65 1380.21L1597.25 1402.24C1597.5 1403.24 1596.89 1404.26 1595.89 1404.5C1594.89 1404.75 1593.87 1404.14 1593.62 1403.14L1586.82 1382.86C1585.93 1381.69 1583.42 1378.29 1580.83 1374.4C1576.58 1368.01 1572.14 1360.41 1572.14 1360.41Z" fill="black"/>
<path fill-rule="evenodd" clip-rule="evenodd" d="M1593.95 1409.64C1593.53 1408.71 1593.95 1407.62 1594.87 1407.2C1595.79 1406.78 1596.89 1407.18 1597.31 1408.11C1597.31 1408.11 1602.95 1417.58 1606.65 1424.72C1608.74 1428.77 1610.14 1432.07 1610.14 1432.07C1610.34 1432.52 1610.45 1432.99 1610.46 1433.48C1610.46 1433.48 1610.27 1440.7 1609.89 1446.96C1609.6 1451.76 1609.19 1455.94 1609.19 1455.94C1609.21 1456.96 1608.4 1457.8 1607.39 1457.83C1606.37 1457.86 1605.52 1457.05 1605.5 1456.02C1605.5 1456.02 1604.9 1451.87 1604.39 1447.08C1603.87 1442.15 1603.43 1436.62 1603.28 1434.53C1602.76 1433.43 1601.56 1430.81 1600.3 1427.6C1597.36 1420.11 1593.95 1409.64 1593.95 1409.64Z" fill="black"/>
<path fill-rule="evenodd" clip-rule="evenodd" d="M1605.51 1462.21C1605.21 1461.24 1605.76 1460.21 1606.72 1459.91C1607.69 1459.61 1608.72 1460.16 1609.02 1461.13C1609.02 1461.13 1613.41 1471.22 1616.18 1478.77C1617.74 1483.05 1618.71 1486.5 1618.71 1486.5C1618.86 1486.96 1618.91 1487.44 1618.86 1487.92C1618.86 1487.92 1617.78 1495.11 1616.63 1501.33C1615.75 1506.1 1614.83 1510.23 1614.83 1510.23C1614.72 1511.24 1613.82 1511.97 1612.82 1511.87C1611.8 1511.77 1611.07 1510.87 1611.17 1509.86C1611.17 1509.86 1611.08 1505.63 1611.18 1500.78C1611.27 1495.77 1611.52 1490.16 1611.62 1488.06C1611.26 1486.92 1610.4 1484.16 1609.55 1480.82C1607.58 1473.02 1605.51 1462.21 1605.51 1462.21Z" fill="black"/>
<path d="M1326.33 1614.65L1331.14 1503.3L1356.94 1536.98L1412.53 1484.67L1424.92 1507.8L1480.26 1484.6L1522.94 1466.61L1556.08 1428.24L1594.17 1453.51L1569.27 1524.77" stroke="black" stroke-width="8.32941" stroke-miterlimit="1.5" stroke-linecap="round" stroke-linejoin="round"/>
<path d="M1502.98 1498.95C1515.69 1498.57 1526.27 1489.7 1526.61 1479.14C1526.96 1468.58 1516.93 1460.33 1504.22 1460.71C1491.52 1461.09 1480.94 1469.96 1480.59 1480.52C1480.25 1491.08 1490.28 1499.33 1502.98 1498.95Z" fill="#007199" stroke="black" stroke-width="8.32333" stroke-miterlimit="1.5" stroke-linecap="round" stroke-linejoin="round"/>
<path d="M1497.39 1390.92L1437.36 1385.87L1432.86 1413.26L1492.89 1418.31L1497.39 1390.92Z" fill="#007199" stroke="black" stroke-width="8.33426" stroke-miterlimit="1.5" stroke-linecap="round" stroke-linejoin="round"/>
<path d="M1498.76 1345.21L1438.06 1347.04L1437.17 1374.52L1497.87 1372.7L1498.76 1345.21Z" fill="#007199" stroke="black" stroke-width="8.32941" stroke-miterlimit="1.5" stroke-linecap="round" stroke-linejoin="round"/>
<path d="M1492.38 1298.31L1432.45 1310.85L1437.24 1337.66L1497.17 1325.13L1492.38 1298.31Z" fill="#007199" stroke="black" stroke-width="8.3231" stroke-miterlimit="1.5" stroke-linecap="round" stroke-linejoin="round"/>
<path fill-rule="evenodd" clip-rule="evenodd" d="M791.806 2062.2C791.806 2062.2 781.173 1832.43 767.43 1798.57C757.247 1773.47 719.629 1760.34 698.019 1764.58C676.41 1768.82 655.869 1786.65 653.21 1805.81C648.988 1836.25 671.211 1928.26 671.211 1928.26L791.806 2062.2Z" fill="#FF050B" stroke="black" stroke-width="6.76942" stroke-miterlimit="1.5" stroke-linecap="round" stroke-linejoin="round"/>
<path fill-rule="evenodd" clip-rule="evenodd" d="M923.444 1852.34L1042.19 1711.37L1058.55 1613.51L1113.59 1737.13L1158.09 1731.45C1158.09 1731.45 1121.1 1754.85 1134.84 1749.25C1148.59 1743.66 1181.85 1757.66 1181.85 1757.66L1163.05 1795.03L1184.99 1803.37L1153.73 1839.63L1198.1 1828.87L1176.24 1854.4L1203.86 1836.21L1203.57 1869.12L1218.13 1851.95C1218.13 1851.95 1379.15 1913.28 1366.54 1938.32C1336.03 1998.88 1184.72 2086.44 1063.62 2115.77C1036.55 2122.33 934.883 2114.04 916.17 2089.86C902.02 2071.58 892.841 2053.88 892.841 2053.88L947.24 2074.81L941.754 2034.17L952.121 1982.21L900.059 1984.47L935.622 1948.02L905.904 1939.09L920.608 1910.06L847.934 1870.46L923.444 1852.34Z" fill="#1D9A6C"/>
<path fill-rule="evenodd" clip-rule="evenodd" d="M1141.32 1745.46C1145.34 1745.26 1149.9 1745.72 1154.51 1746.58C1168.44 1749.19 1182.88 1755.22 1182.88 1755.22C1183.55 1755.5 1184.08 1756.06 1184.33 1756.75C1184.59 1757.43 1184.54 1758.2 1184.22 1758.85L1166.9 1793.53L1185.99 1800.73C1186.86 1801.06 1187.5 1801.79 1187.73 1802.68C1187.95 1803.57 1187.73 1804.52 1187.13 1805.22L1161.9 1834.61L1197.39 1825.92C1198.66 1825.61 1200 1826.16 1200.69 1827.28C1201.37 1828.4 1201.26 1829.84 1200.41 1830.84L1192.87 1839.68L1202.12 1833.56C1203.1 1832.92 1204.35 1832.87 1205.38 1833.43C1206.41 1833.98 1207.05 1835.07 1207.03 1836.24L1206.85 1860.25L1215.65 1849.85C1216.54 1848.8 1218 1848.42 1219.29 1848.91C1219.29 1848.91 1288.11 1875.02 1332.46 1900.18C1348.81 1909.45 1361.85 1918.72 1367.34 1926.46C1370.86 1931.41 1371.55 1936 1369.61 1939.86C1355.18 1968.47 1314.28 2003.19 1262.11 2034.89C1202.91 2070.85 1129.27 2103.05 1064.32 2118.66C1048.44 2122.46 1007.27 2121.25 971.73 2114.73C955.733 2111.8 940.88 2107.79 929.969 2102.73C922.837 2099.42 917.349 2095.62 914.133 2091.44C909.366 2085.24 905.162 2079.12 901.675 2073.7C894.747 2062.94 890.665 2055.01 890.665 2055.01C890.197 2054.1 890.335 2053.01 891.016 2052.25C891.694 2051.49 892.77 2051.23 893.721 2051.59L944.479 2071.29L939.617 2034.46C939.586 2034.23 939.594 2033.99 939.638 2033.75L949.677 1984.29L900.137 1986.27C899.398 1986.3 898.712 1985.88 898.409 1985.2C898.106 1984.53 898.248 1983.74 898.763 1983.21L932.566 1948.8L905.463 1940.55C905.029 1940.42 904.679 1940.11 904.501 1939.69C904.321 1939.27 904.334 1938.8 904.541 1938.39L918.721 1910.64L847.395 1871.45C846.983 1871.22 846.751 1870.77 846.815 1870.31C846.878 1869.85 847.218 1869.47 847.669 1869.36L922.98 1851.59L1040.77 1710.72L1056.74 1613.21C1056.87 1612.41 1057.51 1611.79 1058.32 1611.68C1059.13 1611.58 1059.9 1612.02 1060.23 1612.76L1114.97 1734.66L1157.79 1729.05C1158.91 1728.91 1159.98 1729.57 1160.37 1730.63C1160.75 1731.7 1160.34 1732.89 1159.39 1733.5C1159.39 1733.5 1148.99 1740.11 1141.32 1745.46ZM923.641 1853.15L851.049 1870.86L921.286 1908.81C921.96 1909.18 922.22 1910.01 921.874 1910.7L908.09 1938.14L936.091 1946.46C936.638 1946.62 937.061 1947.06 937.201 1947.61C937.347 1948.16 937.191 1948.75 936.79 1949.16L904.526 1982.45L952.034 1980.23C952.644 1980.2 953.23 1980.45 953.626 1980.92C954.022 1981.38 954.184 1982 954.064 1982.59L943.943 2034.23L949.498 2074.51C949.606 2075.3 949.284 2076.1 948.655 2076.6C948.022 2077.1 947.173 2077.23 946.42 2076.94C946.42 2076.94 898.262 2058.57 898.262 2058.57C900.111 2061.76 902.697 2066.06 905.898 2070.97C909.342 2076.26 913.5 2082.24 918.209 2088.28C921.038 2091.92 925.927 2095.09 932.169 2097.95C942.768 2102.8 957.188 2106.58 972.703 2109.35C1007.36 2115.53 1047.47 2116.68 1062.92 2112.89C1127.22 2097.19 1200.03 2064.92 1258.61 2029.15C1309.35 1998.16 1349.45 1964.65 1363.48 1936.78C1364 1935.75 1363.87 1934.6 1363.4 1933.37C1362.62 1931.31 1360.95 1929.13 1358.67 1926.8C1352.44 1920.43 1341.79 1913.33 1329.1 1906.1C1289.76 1883.69 1230.99 1860.44 1219.11 1855.82L1206.03 1871.2C1205.15 1872.23 1203.72 1872.61 1202.45 1872.14C1201.18 1871.66 1200.34 1870.44 1200.35 1869.09L1200.63 1842.12L1177.95 1856.99C1176.66 1857.84 1174.94 1857.61 1173.92 1856.45C1172.89 1855.29 1172.88 1853.55 1173.88 1852.38L1189.68 1834.01L1154.42 1842.49C1153.18 1842.79 1151.89 1842.25 1151.23 1841.17C1150.56 1840.08 1150.67 1838.69 1151.51 1837.72L1180.21 1804.57L1162.07 1797.61C1161.34 1797.33 1160.76 1796.76 1160.48 1796.03C1160.2 1795.3 1160.24 1794.49 1160.59 1793.79L1178.18 1759.04C1173.52 1757.23 1163.41 1753.54 1153.55 1751.64C1146.82 1750.35 1140.22 1749.8 1135.79 1751.59C1133.93 1752.34 1132.75 1752.61 1132.19 1752.63C1130.84 1752.67 1130.14 1752.02 1129.77 1751.51C1129.31 1750.87 1128.88 1749.77 1129.74 1748.38C1130.24 1747.58 1132.34 1745.75 1135.32 1743.61C1138.84 1741.07 1143.64 1737.88 1147.81 1735.17L1113.87 1739.39C1112.88 1739.51 1111.92 1738.97 1111.51 1738.06L1059.34 1619.84L1043.68 1711.62C1043.64 1711.88 1043.52 1712.13 1043.35 1712.34L924.087 1852.88C923.971 1853.01 923.815 1853.11 923.641 1853.15Z" fill="black"/>
<path fill-rule="evenodd" clip-rule="evenodd" d="M1245.62 2033.53L1197.06 2029.46L1211.36 2015.85L1190.29 2014.42L1159.49 2043.11L1147.65 2038.51L1128.39 2056.41L1124.06 2043.98L1093.61 2076.39L1081.79 2060.26L1071.73 2072.12L1069.75 2035.5L1197.1 1977.51L1245.62 2033.53Z" fill="black" fill-opacity="0.4"/>
<path fill-rule="evenodd" clip-rule="evenodd" d="M1412.95 1851.16C1412.95 1851.16 1419.36 1867.07 1424.07 1889.66C1428.35 1910.2 1327.24 2004.63 1319.22 1998.67C1270.86 1962.71 1201.25 1873.93 1203.9 1809.21C1204.59 1792.3 1244.92 1730.16 1251.02 1670.23C1251.42 1666.34 1275.91 1720.39 1276.95 1716.61C1277.86 1713.27 1261.87 1654.22 1262.65 1650.91C1264.2 1644.38 1270.21 1633.59 1271.13 1627.25C1273.19 1613.13 1265.36 1567.07 1265.36 1567.07C1382.36 1611.26 1457.91 1704.37 1439.96 1793.26L1369.9 1881.88L1412.95 1851.16Z" fill="#1D9A6C"/>
<path fill-rule="evenodd" clip-rule="evenodd" d="M1270.35 1699.43C1267.15 1685.81 1262.62 1667.82 1260.6 1658.19C1259.97 1655.2 1259.58 1652.95 1259.51 1651.8C1259.46 1651.05 1259.52 1650.51 1259.6 1650.19C1260.82 1645.05 1264.75 1637.31 1266.91 1631.1C1267.45 1629.53 1267.88 1628.07 1268.06 1626.81C1268.8 1621.86 1268.25 1612.86 1267.3 1603.39C1265.58 1586.23 1262.47 1567.56 1262.47 1567.56C1262.29 1566.52 1262.68 1565.47 1263.49 1564.8C1264.3 1564.13 1265.41 1563.95 1266.4 1564.32C1331.38 1589.14 1383.61 1628.92 1414.26 1674.66C1439.27 1711.99 1449.93 1753.27 1441.58 1793.59C1441.53 1793.85 1441.42 1794.09 1441.26 1794.29L1375.46 1876.64L1412.5 1850.53C1412.69 1850.39 1412.94 1850.35 1413.16 1850.41C1413.39 1850.48 1413.58 1850.65 1413.67 1850.87C1413.67 1850.87 1416.66 1858.18 1420.1 1869.95C1421.74 1875.54 1423.48 1882.15 1425.04 1889.45C1425.76 1892.81 1423.9 1898.12 1420.04 1904.59C1412.35 1917.48 1396.8 1935.37 1380.18 1952.2C1360.1 1972.54 1338.45 1991.32 1327.26 1997.97C1324.59 1999.56 1322.43 2000.47 1320.97 2000.68C1319.73 2000.86 1318.79 2000.59 1318.15 2000.12C1289.27 1978.86 1252.82 1939.08 1228.37 1896.61C1211.3 1866.96 1200.13 1835.99 1201.13 1809.09C1201.29 1804.8 1203.78 1797.7 1207.7 1788.55C1215.65 1769.99 1229.37 1742.45 1238.74 1712.45C1243.07 1698.58 1246.47 1684.18 1247.9 1669.91C1248.06 1668.27 1249.01 1667.57 1249.71 1667.22C1250.49 1666.84 1251.98 1666.42 1253.53 1667.88C1254.1 1668.41 1255.28 1670.14 1256.72 1672.76C1260.02 1678.75 1265.54 1690.02 1270.35 1699.43ZM1320.18 1997.12C1320.35 1997.11 1320.92 1997.04 1321.35 1996.9C1322.74 1996.45 1324.57 1995.5 1326.75 1994.15C1340.39 1985.72 1367.09 1962.19 1388.98 1939.16C1402.46 1924.98 1414.11 1911 1419.73 1900.83C1422.28 1896.2 1423.61 1892.44 1423.09 1889.86C1421.62 1882.59 1419.96 1876.01 1418.4 1870.43C1415.8 1861.18 1413.45 1854.69 1412.58 1852.38L1370.52 1882.76C1370.09 1883.07 1369.49 1883.01 1369.12 1882.62C1368.75 1882.23 1368.72 1881.63 1369.05 1881.21L1438.41 1792.55C1446.03 1753.26 1435.16 1713.27 1410.53 1677.18C1380.78 1633.58 1330.96 1595.68 1269.09 1571.63C1270.18 1578.4 1272.09 1590.93 1273.34 1602.76C1274.4 1612.84 1274.95 1622.43 1274.2 1627.7C1273.97 1629.29 1273.46 1631.14 1272.78 1633.13C1270.74 1639.05 1267.01 1646.39 1265.77 1651.37C1265.84 1652.27 1266.15 1653.97 1266.63 1656.25C1269.21 1668.6 1276.44 1696.43 1279.1 1709.32C1279.73 1712.34 1280.1 1714.61 1280.16 1715.77C1280.2 1716.55 1280.11 1717.11 1280.02 1717.45C1279.68 1718.69 1278.92 1719.3 1278.22 1719.65C1277.37 1720.06 1276.11 1720.31 1274.67 1719.29C1274 1718.8 1272.63 1717.06 1271.04 1714.29C1266.53 1706.44 1258.26 1689.22 1253.02 1679.19C1251.2 1691.01 1248.2 1702.83 1244.57 1714.28C1235 1744.46 1221.04 1772.15 1212.92 1790.81C1209.32 1799.07 1206.85 1805.44 1206.68 1809.32C1205.52 1835.35 1216.32 1865.35 1232.61 1894.2C1256.37 1936.26 1291.88 1975.85 1320.18 1997.12Z" fill="black"/>
<path fill-rule="evenodd" clip-rule="evenodd" d="M1301.85 2001.94C1322.14 1991.03 1335.9 1979.78 1351.47 1965.61L1291.58 1949.05L1318.12 1932.62L1279.87 1918.95L1314.98 1914.23L1246.72 1888.45L1284.79 1874.41L1225.62 1848.3L1234.02 1842.13L1222.57 1829.23L1244.33 1830.87L1227.29 1785.8L1271.02 1820.55L1245.84 1739.27L1285.47 1763.33L1258.12 1712.17L1288.42 1736.14L1277.97 1647.13C1277.97 1647.13 1318.28 1646.51 1304.39 1638.73C1290.52 1630.95 1270.75 1571.23 1270.75 1571.23C1274.85 1602.19 1271.54 1635.55 1258.9 1656.75L1280.46 1721.36L1250.4 1676.56L1205.18 1805.04C1208.95 1857.13 1248.1 1927.26 1248.1 1927.26L1246.11 1952.15L1301.85 2001.94Z" fill="black" fill-opacity="0.3"/>
<path fill-rule="evenodd" clip-rule="evenodd" d="M975.491 1892.19L974.394 1892.61L973.563 1890.42L974.659 1890C983.504 1886.39 995.963 1877.05 1008.33 1864.93C1018.02 1855.43 1027.57 1844.18 1035.22 1832.51C1039.46 1826.05 1043.12 1819.49 1045.86 1812.98C1050.52 1801.89 1052.57 1791 1049.78 1781.3C1048.61 1777.13 1049.43 1773.88 1051.51 1771.17C1054.6 1767.16 1060.81 1764.42 1066.83 1761.44C1072.16 1758.81 1077.34 1755.96 1079.27 1751.2L1079.68 1750.1L1081.88 1750.93L1081.47 1752.02C1080.1 1755.98 1076.85 1758.99 1072.92 1761.58C1067.84 1764.93 1061.59 1767.53 1057.42 1770.87C1054.49 1773.23 1052.72 1775.98 1054.04 1780C1057.47 1790.59 1055.95 1802.76 1051.03 1815.1C1048.28 1821.98 1044.48 1828.93 1039.95 1835.65C1031.94 1847.54 1021.7 1858.79 1011.37 1868.16C998.173 1880.12 984.763 1888.93 975.491 1892.19Z" fill="black"/>
<path fill-rule="evenodd" clip-rule="evenodd" d="M1025.51 1850.51L973.995 1897.87L1004.43 1882.94L1025.51 1850.51Z" fill="white"/>
<path fill-rule="evenodd" clip-rule="evenodd" d="M1026.22 1850.97L1006.67 1884.39C1006.4 1884.8 1006.04 1885.12 1005.61 1885.33C1005.61 1885.33 996.018 1890.52 987.621 1894.86C981.22 1898.16 975.506 1900.95 975.506 1900.95C973.975 1901.7 972.126 1901.21 971.166 1899.8C970.202 1898.4 970.42 1896.5 971.675 1895.34C971.675 1895.34 976.94 1890.56 984.23 1884.18C986.844 1881.89 989.718 1879.41 992.715 1876.87C1007.59 1864.23 1024.95 1849.89 1024.95 1849.89C1025.26 1849.61 1025.73 1849.6 1026.05 1849.87C1026.38 1850.15 1026.44 1850.61 1026.22 1850.97ZM991.642 1885.76C996.688 1883.47 1001.17 1881.48 1002.7 1880.8L1018.47 1858.87C1012.62 1864.81 1004.26 1873.26 996.493 1880.98C994.842 1882.62 993.213 1884.23 991.642 1885.76Z" fill="black"/>
<path fill-rule="evenodd" clip-rule="evenodd" d="M1050.14 1814.49C1050.14 1814.49 1058.09 1795.47 1065.27 1779.1C1070.75 1766.61 1075.8 1755.71 1075.8 1755.71C1076.44 1754.39 1077.86 1753.63 1079.31 1753.84C1080.77 1754.05 1081.92 1755.18 1082.16 1756.63C1082.16 1756.63 1083.5 1763.91 1084.76 1772.22C1086.4 1783.11 1087.97 1795.72 1087.97 1795.72C1088.16 1796.84 1087.61 1797.96 1086.6 1798.51L1051.3 1815.59C1050.98 1815.76 1050.58 1815.71 1050.32 1815.46C1050.05 1815.21 1049.99 1814.82 1050.14 1814.49Z" fill="black"/>
<path fill-rule="evenodd" clip-rule="evenodd" d="M1050.9 1814.85L1078.83 1757.18L1085.33 1796.16L1050.9 1814.85Z" fill="white"/>
<path fill-rule="evenodd" clip-rule="evenodd" d="M1034.2 1843.69L1047.08 1826.92L1048.85 1841.02L1034.2 1843.69Z" fill="#EF563B"/>
<path fill-rule="evenodd" clip-rule="evenodd" d="M1033.53 1843.18C1033.53 1843.18 1036.79 1837.2 1039.89 1832.07C1042.24 1828.19 1044.46 1824.91 1044.46 1824.91C1045.28 1823.85 1046.65 1823.39 1047.94 1823.74C1049.23 1824.09 1050.18 1825.19 1050.35 1826.51C1050.35 1826.51 1050.88 1829.13 1051.18 1832.14C1051.57 1836.09 1051.62 1840.67 1051.62 1840.67C1051.8 1842.14 1050.81 1843.5 1049.35 1843.76C1049.35 1843.76 1046.57 1843.98 1043.36 1844.15C1039.14 1844.38 1034.35 1844.51 1034.35 1844.51C1034.01 1844.57 1033.66 1844.42 1033.48 1844.12C1033.3 1843.83 1033.32 1843.45 1033.53 1843.18ZM1044.64 1834.48C1044.42 1834.71 1044.19 1834.95 1043.96 1835.19C1041.72 1837.52 1039.24 1839.96 1037.44 1841.71C1038.98 1841.2 1040.85 1840.58 1042.61 1840.02C1043.67 1839.68 1044.69 1839.37 1045.56 1839.1C1045.28 1837.83 1044.94 1836.16 1044.64 1834.48Z" fill="black"/>
<path fill-rule="evenodd" clip-rule="evenodd" d="M1004.37 1888.62C1004.16 1888.2 1004.33 1887.7 1004.74 1887.49C1005.15 1887.28 1005.65 1887.44 1005.86 1887.85C1005.86 1887.85 1009.54 1894.44 1014.24 1899.21C1016.49 1901.5 1018.96 1903.39 1021.38 1903.61C1025.2 1903.97 1031.21 1902.04 1036.73 1899.03C1041.74 1896.3 1046.35 1892.63 1048.26 1888.64C1049.5 1886.1 1048.75 1882.76 1047.6 1879.44C1045.06 1872.15 1039.72 1865.06 1039.72 1865.06C1038.86 1863.87 1038.9 1862.25 1039.82 1861.11C1039.82 1861.11 1047.08 1851.83 1053.49 1843.9C1058.38 1837.84 1062.78 1832.57 1062.78 1832.57C1063.53 1831.65 1064.7 1831.19 1065.87 1831.36C1067.04 1831.54 1068.02 1832.32 1068.47 1833.41C1068.47 1833.41 1071.1 1840.29 1075.03 1845.24C1076.72 1847.38 1078.53 1849.34 1080.67 1849.47C1084.5 1849.73 1090.48 1847.87 1096.02 1845.01C1101.35 1842.26 1106.32 1838.63 1108.44 1834.7C1109.95 1831.92 1109.92 1827.53 1109.36 1822.99C1108.25 1813.92 1104.88 1804.31 1104.88 1804.31C1104.71 1803.88 1104.92 1803.39 1105.35 1803.22C1105.78 1803.06 1106.27 1803.27 1106.44 1803.7C1106.44 1803.7 1110.57 1813.31 1112.32 1822.53C1113.32 1827.84 1113.43 1833.02 1111.86 1836.42C1109.69 1841.09 1104.34 1845.76 1098.36 1849.27C1092.01 1852.99 1084.96 1855.29 1080.43 1855.21C1077.55 1855.16 1074.69 1853.59 1072.13 1851.16C1069.1 1848.27 1066.5 1844.11 1064.73 1840.87C1063.12 1842.9 1061.05 1845.49 1058.84 1848.22C1054.17 1853.99 1048.91 1860.35 1046.38 1863.38C1048.24 1866.34 1051.47 1871.96 1053.18 1877.63C1054.67 1882.53 1054.97 1887.46 1053 1891.08C1050.46 1895.71 1044.88 1900 1038.71 1902.92C1032.26 1905.97 1025.27 1907.57 1020.98 1906.9C1017.97 1906.42 1014.9 1904.06 1012.28 1901.02C1007.73 1895.73 1004.37 1888.62 1004.37 1888.62Z" fill="black"/>
<path fill-rule="evenodd" clip-rule="evenodd" d="M1055.37 1846.07L1070.12 1853.56L1061.69 1839.3L1055.37 1846.07Z" fill="white"/>
<path fill-rule="evenodd" clip-rule="evenodd" d="M1054.76 1845.49L1059.97 1837.7C1060.48 1837.16 1061.21 1836.89 1061.95 1836.97C1062.68 1837.05 1063.34 1837.47 1063.71 1838.11C1063.71 1838.11 1065.1 1839.79 1066.79 1842.06C1067.73 1843.32 1068.76 1844.73 1069.67 1846.13C1070.32 1847.12 1070.89 1848.11 1071.36 1848.98C1072.31 1850.69 1072.87 1851.93 1072.87 1851.93C1073.6 1853.16 1073.43 1854.71 1072.45 1855.75C1071.48 1856.79 1069.93 1857.06 1068.67 1856.42C1068.67 1856.42 1066.03 1854.79 1063.1 1852.76C1059.21 1850.06 1054.99 1846.81 1054.99 1846.81C1054.75 1846.69 1054.59 1846.47 1054.54 1846.21C1054.5 1845.95 1054.58 1845.69 1054.76 1845.49ZM1062.76 1847.5C1062.37 1846.69 1061.99 1845.87 1061.64 1845.1C1061.29 1844.34 1060.98 1843.62 1060.71 1842.99L1057.15 1845.74C1058.47 1846.14 1060.56 1846.78 1062.76 1847.5Z" fill="black"/>
<path fill-rule="evenodd" clip-rule="evenodd" d="M1212.16 1980.08C1212.16 1980.08 1188.47 2016.91 1155 2035.13C1139.26 2043.69 1067.75 2060.87 1047.41 2072.18C1027.68 2083.15 986.785 2081.83 981.323 2079.86C967.818 2074.97 1013.6 2066.4 1013.6 2066.4C1013.6 2066.4 945.216 2054.56 944.662 2051C941.312 2029.49 1007.4 2020.8 1007.4 2020.8C1007.4 2020.8 948.713 2025.18 946.668 2018.36C944.248 2010.29 972.311 2001.17 1005.64 1987.99C1016.96 1983.51 1053.99 1983.1 1057.33 1979.14C1061.2 1974.55 1076.32 1956.24 1067.69 1955.48C1049.14 1953.86 1024.92 1946.08 1028.97 1940.17C1040.99 1922.57 1085.18 1923.37 1093.4 1923.75C1108.17 1924.44 1093.59 1957.28 1150.38 1936.2C1168.88 1929.34 1179.72 1924.08 1179.72 1924.08C1174.94 1949.23 1229.47 1954 1212.16 1980.08Z" fill="#FF050B"/>
<path fill-rule="evenodd" clip-rule="evenodd" d="M1055.01 1976.86C1056.79 1974.77 1060.56 1970.27 1063.51 1965.81C1064.85 1963.77 1066.03 1961.76 1066.72 1960.02C1066.9 1959.55 1067.04 1958.94 1067.12 1958.51C1054.64 1957.31 1039.78 1953.39 1032.13 1949.15C1029.09 1947.47 1027.09 1945.61 1026.28 1943.93C1025.4 1942.1 1025.46 1940.3 1026.65 1938.59C1031.54 1931.54 1041.16 1927.12 1051.86 1924.6C1068.78 1920.62 1088.28 1921.15 1093.51 1921.43C1098.64 1921.72 1101.04 1924.92 1103.17 1929.12C1105.08 1932.89 1106.78 1937.6 1112.3 1939.85C1118.6 1942.42 1129.41 1941.9 1149.76 1934.53C1155.44 1932.47 1160.39 1930.56 1164.54 1928.9C1173.86 1925.17 1179.05 1922.7 1179.05 1922.7C1179.57 1922.45 1180.19 1922.51 1180.65 1922.86C1181.11 1923.22 1181.33 1923.8 1181.22 1924.37C1179.34 1933.84 1186.68 1940.16 1194.81 1946.08C1203.55 1952.46 1213.33 1958.33 1215.9 1966.12C1217.26 1970.27 1216.72 1974.98 1212.93 1980.58L1212.93 1980.58C1212.71 1980.93 1203.11 1996.04 1187.54 2011.74C1178.67 2020.69 1167.87 2029.82 1155.77 2036.54C1143.69 2043.23 1098.66 2055.3 1069.22 2065.74C1060.53 2068.82 1053.22 2071.75 1048.61 2074.36C1039.95 2079.26 1027.3 2081.92 1015.18 2083.15C998.872 2084.8 983.572 2083.79 980.321 2082.63C977.143 2081.51 976.106 2079.71 975.905 2078.4C975.755 2077.42 975.958 2076.41 976.628 2075.39C977.302 2074.37 978.785 2073.19 980.964 2072.13C984.811 2070.26 991.255 2068.36 997.363 2066.8C985.244 2064.63 968.651 2061.53 957.161 2058.84C951.023 2057.41 946.276 2056.04 944.191 2055.02C941.984 2053.95 941.319 2052.38 941.189 2051.54C939.922 2043.59 945.99 2036.59 955.842 2031.39C959.76 2029.33 964.263 2027.5 968.934 2025.9C964.941 2025.86 961.145 2025.72 957.837 2025.44C953.057 2025.05 949.206 2024.33 946.976 2023.34C944.681 2022.32 943.515 2020.83 943.096 2019.43C942.412 2017.12 942.832 2014.72 944.659 2012.3C946.263 2010.19 949.235 2007.9 953.418 2005.6C964.037 1999.74 983.132 1993.04 1004.35 1984.74C1006.96 1983.72 1010.83 1982.88 1015.35 1982.19C1025.83 1980.59 1040 1979.69 1048.84 1978.32C1051.57 1977.9 1054.7 1976.95 1055.01 1976.86ZM950.236 2017.28C950.193 2017.35 950.181 2017.4 950.246 2017.41C950.287 2017.42 950.252 2017.33 950.239 2017.29C950.239 2017.29 950.236 2017.28 950.236 2017.28ZM948.08 2049C949.035 2049.37 950.553 2049.92 952.046 2050.35C969.054 2055.23 1014.14 2063.26 1014.14 2063.26C1015.66 2063.52 1016.77 2064.83 1016.79 2066.38C1016.79 2067.91 1015.7 2069.25 1014.19 2069.53C1014.19 2069.53 999.786 2072.14 989.64 2075.3C987.376 2076 985.335 2076.72 983.748 2077.45C989.309 2078.51 1005.53 2079.06 1021.26 2076.98C1030.49 2075.76 1039.57 2073.63 1046.2 2070.01C1051.02 2067.38 1058.64 2064.43 1067.71 2061.37C1097.15 2051.44 1142.12 2040.19 1154.24 2033.72C1166.2 2027.34 1176.93 2018.57 1185.77 2009.95C1201.6 1994.53 1211.39 1979.59 1211.39 1979.59C1211.39 1979.58 1211.39 1979.58 1211.4 1979.57C1214.66 1974.57 1215.19 1970.43 1213.92 1966.79C1210.84 1957.98 1197.89 1952.14 1188.6 1944.7C1182.36 1939.7 1177.74 1934.01 1177.92 1926.64C1175.51 1927.76 1171.4 1929.63 1165.8 1931.97C1161.65 1933.72 1156.69 1935.72 1151 1937.88C1135.34 1943.84 1124.95 1945.66 1117.87 1945.23C1107 1944.57 1103.25 1938.88 1100.43 1933.54C1099.59 1931.95 1098.85 1930.38 1097.98 1929.05C1096.9 1927.4 1095.61 1926.16 1093.29 1926.07C1088.24 1925.87 1069.38 1925.6 1053.09 1929.67C1043.96 1931.95 1035.6 1935.52 1031.41 1941.55C1031.48 1941.65 1031.59 1941.8 1031.67 1941.89C1032.06 1942.31 1032.58 1942.72 1033.2 1943.13C1036.14 1945.11 1041.06 1946.98 1046.72 1948.57C1053.39 1950.44 1061.07 1951.86 1067.95 1952.42C1069.97 1952.58 1071.28 1953.39 1072.14 1954.41C1073.31 1955.79 1073.74 1957.9 1073.08 1960.52C1071.51 1966.77 1062.71 1977.75 1059.81 1981.23C1058.96 1982.25 1056.66 1983.44 1053.15 1984.21C1042.12 1986.62 1016.04 1987.58 1006.92 1991.24C989.614 1998.16 973.73 2003.98 962.855 2009.09C957.757 2011.48 953.819 2013.66 951.533 2015.78C951.183 2016.1 950.881 2016.41 950.642 2016.73C950.982 2016.85 951.363 2016.97 951.698 2017.05C955.885 2018.05 962.885 2018.38 970.479 2018.42C987.372 2018.53 1007.12 2017.08 1007.12 2017.08C1009.14 2016.93 1010.91 2018.41 1011.11 2020.42C1011.32 2022.43 1009.89 2024.24 1007.89 2024.5C1007.89 2024.5 983.687 2027.62 965.614 2034.85C959.89 2037.14 954.785 2039.8 951.448 2043.01C949.55 2044.83 948.246 2046.79 948.08 2049Z" fill="black"/>
<path fill-rule="evenodd" clip-rule="evenodd" d="M1024.12 1956C1024.12 1956 988.82 1961.15 982.224 1973.65C977.372 1982.84 978.903 1997.21 980.649 2014.14C980.826 2015.83 974.552 2026.6 976.529 2036.45C977.596 2041.76 985.41 2043.54 985.628 2044.68C987.177 2052.89 991.896 2056.65 998.596 2055.29C1005.29 2053.93 1005.82 2050.45 1005.82 2050.45C1005.82 2050.45 1010.14 2053.01 1016.21 2051.43C1024.64 2049.23 1022.09 2034.3 1022.09 2034.3C1022.09 2034.3 1034.38 2050.96 1046.47 2033.84C1051.7 2026.43 1037.55 2021.31 1037.43 2013.43C1037.37 2009.22 1047.24 2008.87 1047.89 2005.37C1050.64 1990.68 1032.74 1993.8 1032.74 1993.8L1028.05 1975.39" fill="#1D9A6C"/>
<path fill-rule="evenodd" clip-rule="evenodd" d="M977.804 2014C977.053 2004.99 976.351 1996.71 976.633 1989.55C976.892 1982.91 977.98 1977.21 980.477 1972.73C983.073 1968.07 989.36 1964.31 996.56 1961.62C1009.03 1956.96 1024 1955.17 1024 1955.17C1024.46 1955.1 1024.88 1955.42 1024.95 1955.88C1025.02 1956.34 1024.7 1956.76 1024.24 1956.83C1024.24 1956.83 1009.69 1959.35 997.713 1964.49C991.557 1967.14 986.045 1970.41 983.969 1974.57C981.937 1978.64 981.302 1983.75 981.317 1989.63C981.338 1996.74 982.362 2004.93 983.46 2013.85C983.517 2014.33 983.424 2015.21 983.04 2016.4C982.334 2018.59 980.448 2022.92 979.619 2027.86C979.19 2030.43 979.062 2033.17 979.638 2035.83C979.848 2036.83 980.561 2037.54 981.311 2038.16C983.309 2039.8 985.866 2040.71 986.924 2041.4C988.265 2042.26 988.728 2043.35 988.871 2044.07C989.455 2047.01 990.472 2049.26 992.003 2050.67C993.51 2052.06 995.537 2052.42 997.913 2051.93C999.018 2051.7 999.91 2051.41 1000.63 2051.08C1001.17 2050.83 1001.69 2050.53 1002.06 2050.26C1003.13 2051.56 1005.82 2053.88 1005.82 2053.88C1007.36 2053.88 1008.72 2052.85 1009.12 2051.36C1009.53 2049.86 1008.9 2048.28 1007.56 2047.5C1007.56 2047.5 1008.98 2048.28 1011.22 2048.49C1012.4 2048.6 1013.81 2048.55 1015.36 2048.16C1017.54 2047.61 1018.33 2045.51 1018.78 2043.45C1019.68 2039.34 1018.98 2034.83 1018.98 2034.83C1018.74 2033.39 1019.51 2031.97 1020.86 2031.4C1022.2 2030.83 1023.77 2031.25 1024.63 2032.43C1024.63 2032.43 1026.39 2034.87 1029.18 2036.72C1030.68 2037.71 1032.49 2038.58 1034.52 2038.63C1037.52 2038.7 1040.82 2037.02 1044.28 2032.29C1045.29 2030.92 1045.07 2029.66 1044.37 2028.43C1042.93 2025.94 1040.21 2023.53 1038.23 2020.91C1036.47 2018.59 1035.22 2016.13 1035.23 2013.46C1035.25 2011.83 1035.98 2010.48 1037.35 2009.42C1038.97 2008.16 1041.64 2007.31 1043.85 2006.37C1044.45 2006.11 1045.02 2005.86 1045.47 2005.54C1045.72 2005.37 1046 2005.26 1046.05 2005.02C1047.01 2000.47 1045.65 1997.91 1043.38 1996.56C1039.26 1994.12 1032.97 1995.1 1032.97 1995.1C1032.29 1995.22 1031.63 1994.8 1031.46 1994.12L1027.23 1975.6C1027.12 1975.15 1027.39 1974.7 1027.84 1974.58C1028.29 1974.47 1028.75 1974.74 1028.86 1975.18L1033.7 1992.33C1036.48 1992.03 1043.42 1991.72 1047.21 1995.42C1049.3 1997.47 1050.56 2000.68 1049.74 2005.71C1049.52 2007.02 1048.59 2008.14 1047.16 2009.07C1045.49 2010.14 1042.98 2010.96 1041.08 2012.03C1040.67 2012.26 1040.31 2012.51 1040 2012.78C1039.8 2012.96 1039.62 2013.14 1039.63 2013.39C1039.72 2015.93 1041.74 2017.96 1043.7 2020.01C1046.45 2022.89 1049.24 2025.73 1050 2028.72C1050.54 2030.81 1050.27 2033.01 1048.65 2035.38C1043.88 2042.4 1038.83 2044.47 1034.47 2044.5C1031.1 2044.53 1028.04 2043.21 1025.59 2041.6C1025.47 2043.42 1025.19 2045.34 1024.61 2047.09C1023.41 2050.7 1021.04 2053.62 1017.07 2054.69C1014.66 2055.34 1012.47 2055.44 1010.62 2055.29C1009.34 2055.18 1008.21 2054.95 1007.26 2054.69C1006.83 2055.15 1006.3 2055.62 1005.65 2056.09C1004.29 2057.06 1002.28 2058.05 999.274 2058.65C994.439 2059.6 990.403 2058.48 987.376 2055.61C985.227 2053.58 983.558 2050.56 982.643 2046.56C981.43 2045.93 978.807 2044.5 977.17 2043.1C975.348 2041.54 973.894 2039.56 973.421 2037.08C972.781 2033.62 972.991 2030.07 973.647 2026.76C974.53 2022.31 976.169 2018.33 977.186 2015.76C977.503 2014.96 978.202 2014.06 977.838 2014C977.826 2014 977.816 2014 977.804 2014ZM1002.06 2050.26C1001.46 2049.54 1001.36 2049.14 1002.49 2049.62C1002.69 2049.7 1002.48 2049.96 1002.06 2050.26ZM977.804 2014C977.816 2014.15 977.829 2014.29 977.843 2014.43C977.833 2014.33 977.695 2014.03 977.804 2014Z" fill="black"/>
<path fill-rule="evenodd" clip-rule="evenodd" d="M1122.35 1914.62C1122.35 1914.62 1078.61 1904.45 1065.77 1930.18C1059.33 1943.08 1065.76 1967.73 1065.76 1967.73C1065.76 1967.73 1050.26 1972.99 1055.31 1986.58C1056.83 1990.69 1068.02 1981.39 1066.5 1986.45C1063.12 1997.75 1067.86 2005.3 1074.93 2007.08C1092.34 2011.48 1092.8 1995.92 1092.8 1995.92C1101.31 2002.96 1108.78 1997.1 1111.25 1984.87C1121.18 1990.6 1136.9 1979.41 1127.74 1967.3C1133.16 1961.02 1131.11 1952.67 1120.95 1951.14L1115.46 1945.42" fill="#1D9A6C"/>
<path fill-rule="evenodd" clip-rule="evenodd" d="M1058.01 1984.01C1058.6 1983.83 1059.34 1983.59 1059.88 1983.37C1061.59 1982.66 1063.29 1981.91 1064.47 1981.64C1066.78 1981.12 1068.35 1981.96 1069.19 1983.01C1069.82 1983.81 1070.46 1985.19 1069.79 1987.44C1068.57 1991.5 1068.53 1994.98 1069.43 1997.75C1070.48 2000.95 1072.8 2003.11 1075.74 2003.88C1080.21 2005.08 1083.3 2004.8 1085.43 2003.61C1089.67 2001.24 1089.86 1995.83 1089.86 1995.83C1089.9 1994.71 1090.57 1993.7 1091.59 1993.24C1092.61 1992.77 1093.81 1992.93 1094.68 1993.65C1097.97 1996.48 1101.04 1996.84 1103.51 1994.86C1105.97 1992.87 1107.81 1989.18 1108.88 1984.39C1109.04 1983.63 1109.55 1982.99 1110.26 1982.67C1110.96 1982.35 1111.78 1982.39 1112.45 1982.78C1116.62 1985.31 1122.11 1984.11 1125.51 1981.06C1128.81 1978.1 1130.08 1973.34 1126.44 1968.27C1125.98 1967.66 1126.01 1966.81 1126.51 1966.23C1129.02 1963.47 1129.87 1960.2 1128.75 1957.47C1127.7 1954.93 1125.05 1952.94 1120.79 1952.19C1120.56 1952.15 1120.35 1952.04 1120.18 1951.87L1114.86 1946C1114.54 1945.66 1114.55 1945.13 1114.88 1944.81C1115.22 1944.49 1115.75 1944.5 1116.07 1944.83L1121.43 1950.14C1126.58 1950.86 1129.78 1953.35 1131.21 1956.39C1132.76 1959.65 1132.27 1963.67 1129.76 1967.3C1134.23 1973.71 1132.45 1979.93 1128.31 1984.02C1124.45 1987.82 1118.39 1989.64 1112.99 1988.15C1111.25 1994.68 1107.9 1999.15 1103.97 2000.88C1101.26 2002.08 1098.16 2002.13 1094.86 2000.64C1093.96 2003.44 1092.17 2006.88 1088.57 2009.04C1085.43 2010.91 1080.84 2011.88 1074.12 2010.28C1069.01 2009.04 1064.82 2005.43 1062.96 1999.89C1061.99 1997.04 1061.67 1993.62 1062.25 1989.74C1061.43 1990.07 1060.6 1990.4 1059.82 1990.62C1056.05 1991.68 1053.2 1990.63 1052.15 1987.75C1049.91 1981.55 1051.11 1976.76 1053.48 1973.17C1055.91 1969.49 1059.7 1967.15 1062.2 1965.91C1061.38 1961.79 1059.97 1953.39 1060.21 1945.03C1060.37 1939.26 1061.31 1933.52 1063.63 1929.11C1068.19 1920.48 1075.91 1915.68 1084.44 1913.32C1101.91 1908.48 1122.54 1913.8 1122.54 1913.8C1122.99 1913.91 1123.27 1914.36 1123.16 1914.81C1123.06 1915.26 1122.61 1915.54 1122.16 1915.43C1122.16 1915.43 1102.07 1911.3 1085.49 1916.79C1078.17 1919.21 1071.54 1923.55 1067.92 1931.25C1066.08 1935.13 1065.57 1940.11 1065.61 1945.08C1065.71 1956.04 1068.75 1966.95 1068.75 1966.95C1069.16 1968.53 1068.29 1970.14 1066.75 1970.67C1066.75 1970.67 1061.58 1972.48 1058.93 1976.68C1057.75 1978.57 1057.21 1980.99 1058.01 1984.01Z" fill="black"/>
<path fill-rule="evenodd" clip-rule="evenodd" d="M1237.21 1928.53C1237.21 1928.53 1228.08 1889.5 1216.23 1901.82C1208.91 1909.41 1217.03 1927.1 1215.02 1924.53C1211.67 1920.26 1208.23 1916.12 1207 1915.46C1199.09 1911.21 1182.86 1903.41 1178.57 1908.36C1172.83 1914.97 1185.48 1941.94 1185.48 1941.94C1185.48 1941.94 1168.17 1928.42 1162.73 1931.12C1157.3 1933.83 1149.79 1950.07 1152.87 1958.18C1155.95 1966.27 1181.21 1979.71 1181.21 1979.71L1252.95 2034.64" fill="#1D9A6C"/>
<path fill-rule="evenodd" clip-rule="evenodd" d="M1211.43 1916.33C1211.31 1915.37 1211.21 1914.38 1211.17 1913.38C1210.94 1908.69 1211.74 1903.8 1214.95 1900.59C1217.33 1898.22 1219.63 1897.5 1221.75 1897.83C1223.83 1898.16 1225.84 1899.54 1227.61 1901.72C1234.06 1909.65 1238.04 1928.33 1238.04 1928.33C1238.14 1928.79 1237.86 1929.25 1237.4 1929.36C1236.95 1929.46 1236.49 1929.18 1236.38 1928.72C1236.38 1928.72 1232.85 1915.05 1227.57 1906.71C1224.66 1902.1 1221.27 1898.95 1217.5 1903.04C1215.8 1904.88 1215.21 1907.38 1215.1 1909.96C1214.89 1914.65 1216.35 1919.62 1217.09 1922.25C1217.49 1923.66 1217.62 1924.65 1217.59 1924.97C1217.45 1926.39 1216.49 1926.83 1215.75 1927C1215.39 1927.08 1214.29 1927.22 1213.23 1925.93C1211.62 1923.96 1209.99 1922.02 1208.59 1920.46C1207.32 1919.04 1206.34 1917.94 1205.81 1917.68C1201.65 1915.53 1195.16 1912.44 1189.41 1910.78C1187.07 1910.1 1184.87 1909.67 1183.05 1909.71C1182.11 1909.72 1181.3 1909.78 1180.84 1910.33C1180.2 1911.08 1180.15 1912.3 1180.16 1913.71C1180.18 1915.94 1180.68 1918.57 1181.38 1921.29C1183.74 1930.45 1188.56 1940.5 1188.56 1940.5C1189.23 1941.92 1188.83 1943.62 1187.61 1944.6C1186.37 1945.59 1184.63 1945.6 1183.39 1944.62C1183.39 1944.62 1177 1939.7 1170.9 1936.55C1169.15 1935.63 1167.43 1934.87 1165.91 1934.48C1165.53 1934.38 1165.16 1934.31 1164.82 1934.27C1164.61 1934.26 1164.43 1934.17 1164.29 1934.24C1163.32 1934.72 1162.33 1935.89 1161.31 1937.33C1159.9 1939.34 1158.55 1941.9 1157.5 1944.6C1155.8 1948.98 1154.7 1953.75 1155.91 1957.02C1156.86 1959.63 1160.58 1962.73 1164.69 1965.84C1172.67 1971.84 1182.49 1977.3 1182.49 1977.3C1182.63 1977.37 1182.75 1977.45 1182.87 1977.54L1253.47 2033.96C1253.84 2034.25 1253.91 2034.78 1253.63 2035.16C1253.34 2035.53 1252.8 2035.6 1252.43 2035.32C1252.43 2035.32 1179.77 1982.05 1179.77 1982.05C1178.28 1981.28 1166.27 1974.99 1158.06 1968.57C1153.99 1965.39 1150.9 1962.04 1149.83 1959.33C1148.09 1954.88 1148.88 1948.24 1151.12 1942.19C1152.57 1938.24 1154.6 1934.56 1156.66 1931.96C1158.17 1930.07 1159.76 1928.71 1161.18 1928C1162.3 1927.44 1163.68 1927.18 1165.28 1927.31C1167.09 1927.44 1169.29 1928.11 1171.6 1929.15C1173.74 1930.1 1176 1931.37 1178.14 1932.69C1176.63 1928.44 1175.14 1923.52 1174.44 1919.14C1173.55 1913.62 1174.1 1908.85 1176.3 1906.38C1177.28 1905.29 1178.58 1904.51 1180.19 1904.13C1182.25 1903.64 1184.93 1903.78 1187.9 1904.48C1194.62 1906.07 1203.09 1910.4 1208.19 1913.25C1208.83 1913.61 1210.03 1914.7 1211.43 1916.33Z" fill="black"/>
<path fill-rule="evenodd" clip-rule="evenodd" d="M1167.47 1952.11L1173.24 1966.92L1183.89 1959.67L1176.51 1949.29L1167.47 1952.11Z" fill="#EF563B"/>
<path fill-rule="evenodd" clip-rule="evenodd" d="M1167.22 1951.29L1175.86 1947.2C1176.77 1946.92 1177.75 1947.25 1178.29 1948.02C1178.29 1948.02 1181.08 1951.03 1183.41 1953.76C1185.19 1955.82 1186.67 1957.69 1186.67 1957.69C1187.21 1958.43 1187.42 1959.36 1187.25 1960.27C1187.09 1961.17 1186.58 1961.97 1185.82 1962.49C1185.82 1962.49 1183.89 1963.95 1181.58 1965.43C1178.54 1967.36 1174.89 1969.34 1174.89 1969.34C1174.15 1969.84 1173.23 1969.98 1172.37 1969.72C1171.52 1969.45 1170.84 1968.81 1170.51 1967.98C1170.51 1967.98 1169.94 1965.97 1169.28 1963.35C1168.1 1958.72 1166.68 1952.42 1166.68 1952.42C1166.59 1952.2 1166.6 1951.95 1166.7 1951.73C1166.8 1951.52 1166.99 1951.36 1167.22 1951.29ZM1168.8 1952.74C1169.81 1954.52 1172.04 1958.46 1173.74 1961.61C1173.89 1961.88 1174.04 1962.14 1174.17 1962.4C1175.22 1961.56 1176.48 1960.59 1177.69 1959.71C1178.23 1959.32 1178.76 1958.95 1179.25 1958.61C1179 1958.19 1178.74 1957.74 1178.47 1957.28C1177.28 1955.24 1176.05 1952.99 1175.33 1951.68L1168.8 1952.74Z" fill="black"/>
<path fill-rule="evenodd" clip-rule="evenodd" d="M1189.79 1925.09L1195.56 1939.9L1206.21 1932.65L1198.83 1922.28L1189.79 1925.09Z" fill="#EF563B"/>
<path fill-rule="evenodd" clip-rule="evenodd" d="M1189.53 1924.28L1198.18 1920.19C1199.08 1919.9 1200.06 1920.24 1200.61 1921.01C1200.61 1921.01 1203.4 1924.02 1205.73 1926.74C1207.51 1928.8 1208.99 1930.67 1208.99 1930.67C1209.53 1931.42 1209.74 1932.35 1209.57 1933.25C1209.41 1934.15 1208.89 1934.95 1208.13 1935.47C1208.13 1935.47 1206.2 1936.94 1203.9 1938.41C1200.86 1940.35 1197.21 1942.32 1197.21 1942.32C1196.47 1942.83 1195.54 1942.96 1194.69 1942.7C1193.84 1942.44 1193.16 1941.8 1192.83 1940.97C1192.83 1940.97 1192.25 1938.95 1191.59 1936.33C1190.42 1931.7 1188.99 1925.4 1188.99 1925.4C1188.91 1925.18 1188.92 1924.93 1189.02 1924.72C1189.12 1924.51 1189.31 1924.35 1189.53 1924.28ZM1191.12 1925.73C1192.13 1927.5 1194.36 1931.44 1196.06 1934.59C1196.21 1934.86 1196.35 1935.13 1196.49 1935.39C1197.54 1934.55 1198.8 1933.57 1200.01 1932.7C1200.55 1932.3 1201.07 1931.94 1201.57 1931.6C1201.32 1931.17 1201.05 1930.72 1200.79 1930.26C1199.6 1928.23 1198.36 1925.98 1197.65 1924.67L1191.12 1925.73Z" fill="black"/>
<path fill-rule="evenodd" clip-rule="evenodd" d="M1223.66 1911.71L1223.46 1927.89L1235.84 1924.37L1232.94 1911.95L1223.66 1911.71Z" fill="#EF563B"/>
<path fill-rule="evenodd" clip-rule="evenodd" d="M1223.68 1910.86L1233 1909.78C1233.98 1909.81 1234.83 1910.5 1235.05 1911.46C1235.05 1911.46 1236.48 1915.3 1237.62 1918.71C1238.49 1921.3 1239.16 1923.59 1239.16 1923.59C1239.58 1925.37 1238.53 1927.15 1236.77 1927.65C1236.77 1927.65 1233.71 1928.65 1230.59 1929.42C1227.44 1930.2 1224.26 1930.73 1224.26 1930.73C1223.37 1930.99 1222.4 1930.8 1221.66 1930.23C1220.92 1929.67 1220.49 1928.78 1220.51 1927.85C1220.51 1927.85 1220.72 1925.73 1221.09 1923C1221.75 1918.19 1222.81 1911.7 1222.81 1911.7C1222.81 1911.47 1222.91 1911.25 1223.07 1911.1C1223.23 1910.94 1223.46 1910.85 1223.68 1910.86ZM1224.65 1912.73C1224.92 1914.75 1225.54 1919.4 1225.94 1923.07C1225.97 1923.31 1226 1923.54 1226.02 1923.76C1226.85 1923.46 1227.78 1923.14 1228.72 1922.83C1229.85 1922.47 1231 1922.13 1232 1921.85C1231.91 1921.3 1231.83 1920.71 1231.74 1920.09C1231.43 1917.8 1231.14 1915.29 1230.98 1913.79L1224.65 1912.73Z" fill="black"/>
<path fill-rule="evenodd" clip-rule="evenodd" d="M1195.32 1952.72L1204.77 1967.86L1231.03 1957L1217.72 1942.47L1195.32 1952.72Z" fill="#EF563B"/>
<path fill-rule="evenodd" clip-rule="evenodd" d="M1194.88 1951.75L1216.32 1939.41C1217.65 1938.8 1219.22 1939.12 1220.2 1940.2C1220.2 1940.2 1226.03 1945.67 1230.14 1949.8C1232.48 1952.14 1234.23 1954.07 1234.23 1954.07C1235.2 1955.11 1235.58 1956.56 1235.28 1957.95C1234.97 1959.33 1234 1960.49 1232.69 1961.03C1232.69 1961.03 1227.76 1963.05 1222.07 1965.08C1214.58 1967.75 1205.84 1970.46 1205.84 1970.46C1204.58 1970.98 1203.12 1970.52 1202.39 1969.35L1194.42 1953.28C1194.26 1953.02 1194.22 1952.7 1194.3 1952.41C1194.4 1952.12 1194.6 1951.88 1194.88 1951.75ZM1223.84 1955.39C1221.31 1952.38 1218.26 1948.58 1216.56 1946.43L1197.05 1953.24L1205.56 1964.3C1208.37 1962.85 1213.9 1960.02 1218.98 1957.62C1220.7 1956.81 1222.36 1956.05 1223.84 1955.39Z" fill="black"/>
<path fill-rule="evenodd" clip-rule="evenodd" d="M1008.05 2080.1C1008.05 2080.1 998.378 2069.73 997.957 2059.33C997.7 2053.03 1005.02 2045.11 1007.98 2044.12C1015.83 2041.49 1038.21 2066.27 1038.21 2066.27C1038.21 2066.27 1031.51 2040.98 1035.75 2037.3C1039.98 2033.62 1057.38 2038.92 1063.63 2044.21C1069.86 2049.5 1073.52 2075.24 1073.52 2075.24L1081.37 2089.88" fill="#1D9A6C"/>
<path fill-rule="evenodd" clip-rule="evenodd" d="M1038.51 2040.38C1038.49 2040.76 1038.55 2041.33 1038.53 2041.72C1038.38 2044.28 1038.81 2047.7 1039.34 2051.12C1040.44 2058.19 1042.15 2065.23 1042.15 2065.23C1042.63 2067.05 1041.8 2068.96 1040.15 2069.85C1038.5 2070.75 1036.45 2070.39 1035.19 2069C1035.19 2069 1027.24 2059.8 1019.35 2053.13C1016.51 2050.73 1013.74 2048.61 1011.33 2047.55C1010.38 2047.13 1009.59 2046.71 1008.92 2046.91C1007.59 2047.29 1005.22 2049.42 1003.26 2052.01C1001.56 2054.25 1000.09 2056.83 1000.09 2059.25C1000.07 2062.88 1001.26 2066.55 1002.75 2069.74C1005.35 2075.29 1008.81 2079.4 1008.81 2079.4C1009.19 2079.81 1009.17 2080.47 1008.75 2080.85C1008.34 2081.24 1007.69 2081.22 1007.3 2080.8C1007.3 2080.8 1002.16 2075.78 998.753 2069.08C997.235 2066.09 996.109 2062.77 995.821 2059.42C995.547 2056.12 997.028 2052.37 999.078 2049.12C1001.61 2045.1 1005.15 2042.06 1007.05 2041.33C1008.48 2040.79 1010.25 2040.8 1012.27 2041.32C1014.63 2041.93 1017.45 2043.39 1020.4 2045.33C1024.03 2047.74 1027.89 2050.91 1031.28 2053.94C1030.82 2051.33 1030.45 2048.64 1030.27 2046.19C1030.07 2043.32 1030.17 2040.75 1030.59 2038.85C1031.06 2036.7 1031.98 2035.15 1033.08 2034.23C1034.37 2033.16 1036.27 2032.36 1038.7 2032.18C1041.3 2031.99 1044.68 2032.38 1048.23 2033.32C1054.84 2035.07 1062.08 2038.49 1065.69 2041.77C1067.72 2043.62 1069.63 2047.34 1071.01 2051.85C1073.77 2060.85 1075.1 2072.91 1075.3 2074.75L1082.28 2089.39C1082.55 2089.89 1082.36 2090.52 1081.86 2090.79C1081.36 2091.05 1080.73 2090.86 1080.47 2090.36L1071.92 2076.1C1071.82 2075.91 1071.75 2075.71 1071.72 2075.5C1071.72 2075.5 1069.79 2065.37 1066.79 2056.69C1065.27 2052.3 1063.6 2048.25 1061.56 2046.65C1058.87 2044.53 1053.99 2042.59 1049.2 2041.31C1046.39 2040.56 1043.61 2040.08 1041.28 2040.03C1040.28 2040 1038.99 2040.27 1038.51 2040.38ZM1038.51 2040.3C1038.68 2040.2 1038.92 2040.06 1038.78 2040C1038.61 2039.93 1038.54 2040.07 1038.51 2040.3Z" fill="black"/>
<path fill-rule="evenodd" clip-rule="evenodd" d="M1053.32 2054.49L1064.69 2064.27L1054.64 2070.83L1047.79 2061.16L1053.32 2054.49Z" fill="#EF563B"/>
<path fill-rule="evenodd" clip-rule="evenodd" d="M1053.99 2053.71C1053.99 2053.71 1059.3 2056.74 1063.19 2059.13C1065.38 2060.47 1067.01 2061.58 1067.01 2061.58C1067.86 2062.31 1068.31 2063.4 1068.24 2064.51C1068.17 2065.63 1067.57 2066.64 1066.64 2067.26C1066.64 2067.26 1064.38 2069.24 1061.92 2071.01C1059.49 2072.77 1056.89 2074.28 1056.89 2074.28C1055.04 2075.49 1052.56 2075.02 1051.28 2073.21C1051.28 2073.21 1050.13 2071.31 1048.92 2069.07C1047.32 2066.11 1045.65 2062.68 1045.65 2062.68C1044.97 2061.71 1045.02 2060.41 1045.78 2059.49L1052.53 2053.83C1052.7 2053.62 1052.96 2053.48 1053.23 2053.46C1053.51 2053.44 1053.78 2053.53 1053.99 2053.71ZM1059.05 2063.17C1057.02 2060.74 1054.68 2057.82 1053.47 2056.3L1050.99 2060.73C1051.98 2061.75 1053.51 2063.34 1054.88 2064.86C1055.04 2065.03 1055.19 2065.2 1055.35 2065.38C1055.99 2064.96 1056.69 2064.52 1057.41 2064.1C1057.96 2063.77 1058.52 2063.46 1059.05 2063.17Z" fill="black"/>
<path fill-rule="evenodd" clip-rule="evenodd" d="M1021.67 2064.29L1033.03 2074.08L1022.98 2080.64L1016.13 2070.97L1021.67 2064.29Z" fill="#EF563B"/>
<path fill-rule="evenodd" clip-rule="evenodd" d="M1022.34 2063.52C1022.34 2063.52 1027.64 2066.54 1031.53 2068.93C1033.72 2070.28 1035.35 2071.39 1035.35 2071.39C1036.2 2072.12 1036.66 2073.2 1036.58 2074.32C1036.51 2075.43 1035.91 2076.45 1034.98 2077.06C1034.98 2077.06 1032.72 2079.05 1030.26 2080.82C1027.83 2082.57 1025.23 2084.09 1025.23 2084.09C1023.38 2085.29 1020.9 2084.82 1019.62 2083.02C1019.62 2083.02 1018.48 2081.12 1017.27 2078.88C1015.66 2075.92 1014 2072.49 1014 2072.49C1013.31 2071.52 1013.36 2070.21 1014.12 2069.3L1020.87 2063.64C1021.05 2063.42 1021.31 2063.29 1021.58 2063.27C1021.85 2063.24 1022.13 2063.33 1022.34 2063.52ZM1027.4 2072.97C1025.37 2070.55 1023.02 2067.63 1021.81 2066.1L1019.33 2070.54C1020.32 2071.56 1021.85 2073.15 1023.22 2074.66C1023.38 2074.84 1023.54 2075.01 1023.69 2075.18C1024.33 2074.77 1025.04 2074.32 1025.75 2073.9C1026.31 2073.58 1026.86 2073.27 1027.4 2072.97Z" fill="black"/>
<path fill-rule="evenodd" clip-rule="evenodd" d="M1044.61 2078.14L1055.97 2087.93L1045.92 2094.49L1039.07 2084.82L1044.61 2078.14Z" fill="#EF563B"/>
<path fill-rule="evenodd" clip-rule="evenodd" d="M1045.28 2077.36C1045.28 2077.36 1050.58 2080.39 1054.47 2082.78C1056.66 2084.13 1058.29 2085.24 1058.29 2085.24C1059.14 2085.96 1059.6 2087.05 1059.52 2088.17C1059.45 2089.28 1058.85 2090.3 1057.92 2090.91C1057.92 2090.91 1055.66 2092.9 1053.2 2094.67C1050.77 2096.42 1048.17 2097.94 1048.17 2097.94C1046.32 2099.14 1043.84 2098.67 1042.56 2096.87C1042.56 2096.87 1041.42 2094.97 1040.21 2092.73C1038.6 2089.77 1036.94 2086.34 1036.94 2086.34C1036.25 2085.37 1036.3 2084.06 1037.06 2083.15L1043.81 2077.49C1043.99 2077.27 1044.25 2077.14 1044.52 2077.12C1044.79 2077.09 1045.07 2077.18 1045.28 2077.36ZM1050.34 2086.82C1048.31 2084.4 1045.96 2081.48 1044.75 2079.95L1042.27 2084.39C1043.26 2085.41 1044.79 2087 1046.16 2088.51C1046.32 2088.69 1046.48 2088.86 1046.63 2089.03C1047.27 2088.62 1047.98 2088.17 1048.69 2087.75C1049.25 2087.43 1049.8 2087.12 1050.34 2086.82Z" fill="black"/>
<path fill-rule="evenodd" clip-rule="evenodd" d="M855.445 2052.48L908.096 1887.28C908.096 1887.28 905.999 1797.12 912.891 1774.2C915.626 1765.11 935.255 1724.31 942.452 1713.6C944.07 1711.19 983.048 1717.76 985.107 1724.7C987.004 1731.11 965.936 1730.22 965.936 1730.22C965.936 1730.22 966.373 1749.93 969.13 1747.7C974.972 1742.98 978.6 1734.62 986.649 1728.5C998.145 1719.75 1028.24 1708.56 1036.89 1713.43C1039.1 1714.68 1022.85 1729.04 1012.3 1740.41C1001.28 1752.28 995.893 1761.16 995.893 1761.16C995.893 1761.16 1053.34 1711.19 1059.07 1712.23C1079.95 1716 1026.3 1757.3 1021.03 1770.14C1015.12 1784.51 1006.85 1793.6 1004.33 1805.07C999.47 1827.17 1009.05 1852.61 989.682 1870.88C965.307 1893.87 956.264 2098.59 956.264 2098.59L900.856 2077.52L855.445 2052.48Z" fill="#FF050B"/>
<path fill-rule="evenodd" clip-rule="evenodd" d="M987.717 1724.37C994.583 1719.89 1005.2 1715.12 1015.01 1712.21C1024.88 1709.28 1034 1708.5 1038.31 1710.91C1039.24 1711.44 1039.79 1712.23 1039.95 1713.31C1040.08 1714.17 1039.57 1716.11 1037.72 1718.4C1034.41 1722.5 1026.64 1729.88 1019.59 1737.07C1027.78 1730.28 1036.54 1723.2 1043.59 1717.94C1049.21 1713.76 1053.83 1710.72 1056.35 1709.69C1057.78 1709.1 1058.91 1709.04 1059.62 1709.17C1062.55 1709.7 1064.41 1710.88 1065.53 1712.32C1067.77 1715.18 1067.23 1720.04 1063.6 1725.77C1058.59 1733.7 1048.08 1744.26 1038.92 1753.67C1031.82 1760.97 1025.49 1767.45 1023.9 1771.32C1019.91 1781.02 1014.85 1788.35 1011.17 1795.59C1009.49 1798.9 1008.11 1802.19 1007.33 1805.73C1003.84 1821.43 1007.6 1838.82 1003.18 1854.13C1001.23 1860.89 997.784 1867.28 991.688 1873C988.595 1875.91 985.891 1882.02 983.294 1890.28C979.496 1902.37 976.192 1918.93 973.318 1937.45C962.834 2005.05 958.258 2098.68 958.258 2098.68C958.229 2099.32 957.895 2099.91 957.36 2100.26C956.825 2100.61 956.154 2100.68 955.556 2100.46L900.255 2079.11C900.182 2079.08 900.107 2079.05 900.04 2079.01L854.771 2053.7C854.189 2053.38 853.914 2052.69 854.115 2052.05C854.115 2052.05 903.594 1895.03 906.12 1887.01C906.021 1882.91 905.037 1840.66 906.658 1807.81C907.381 1793.18 908.644 1780.4 910.685 1773.54C912.093 1768.8 917.998 1755.53 924.396 1742.3C930.411 1729.86 936.864 1717.46 940.375 1712.2C940.789 1711.58 942.345 1710.61 945.042 1710.58C949.947 1710.52 960.583 1712.08 969.829 1714.49C975.731 1716.02 981.064 1717.93 984.113 1719.91C986.069 1721.19 987.214 1722.63 987.606 1723.96C987.65 1724.1 987.685 1724.23 987.717 1724.37ZM978.836 1732.09C975.377 1732.68 971.505 1732.84 968.89 1732.88L969.997 1743.15C972.915 1739.96 975.457 1735.92 978.836 1732.09ZM1058.95 1715.36C1058.43 1715.61 1056.56 1716.5 1054.99 1717.51C1050.02 1720.68 1042.58 1726.37 1034.7 1732.67C1017.33 1746.57 997.867 1763.43 997.867 1763.43C996.748 1764.4 995.088 1764.42 993.954 1763.46C992.819 1762.5 992.551 1760.86 993.32 1759.6C993.32 1759.6 995.958 1755.26 1001.32 1748.57C1003.7 1745.59 1006.64 1742.14 1010.12 1738.39C1017.81 1730.14 1028.53 1720.32 1032.88 1715.14C1028.96 1714.57 1022.99 1715.8 1016.62 1717.66C1006.05 1720.75 994.455 1726.06 988.326 1730.7C986.292 1732.24 984.561 1733.93 983.009 1735.67C978.407 1740.81 975.203 1746.28 970.829 1749.8C969.878 1750.57 968.932 1750.69 968.087 1750.52C967.184 1750.34 966.026 1749.63 965.316 1747.95C963.652 1744.01 963.278 1730.27 963.278 1730.27C963.259 1729.54 963.55 1728.83 964.074 1728.31C964.598 1727.8 965.313 1727.52 966.049 1727.56C966.049 1727.56 971.509 1727.8 976.496 1727.17C978.573 1726.91 980.576 1726.52 981.94 1725.82C982.239 1725.67 982.69 1725.74 982.606 1725.44C982.384 1724.69 981.277 1724.19 979.92 1723.48C977.09 1722 972.98 1720.63 968.524 1719.45C961.152 1717.5 952.848 1716.08 947.604 1715.7C946.229 1715.6 944.761 1715.65 944.075 1715.68C940.524 1721.15 934.436 1732.77 928.721 1744.41C922.387 1757.31 916.505 1770.24 915.099 1774.87C912.56 1783.23 911.239 1800.67 910.539 1819.33C909.335 1851.49 910.06 1887.24 910.06 1887.24C910.064 1887.46 910.034 1887.67 909.968 1887.88L857.131 2051.8L901.562 2075.98L954.388 2095.76C955.083 2079.81 958.989 1997.68 967.973 1936.64C970.75 1917.77 974.022 1900.9 977.813 1888.58C980.748 1879.03 984.129 1872.12 987.678 1868.75C992.891 1863.81 995.818 1858.31 997.466 1852.49C1001.78 1837.27 997.932 1820.01 1001.32 1804.41C1002.21 1800.37 1003.75 1796.59 1005.67 1792.8C1009.27 1785.68 1014.24 1778.49 1018.15 1768.95C1021.39 1761.07 1042.44 1742.5 1054.04 1728.28C1057.33 1724.25 1059.84 1720.66 1060.59 1717.81C1060.77 1717.14 1060.96 1716.56 1060.63 1716.13C1060.3 1715.72 1059.72 1715.52 1058.95 1715.36Z" fill="black"/>
<path fill-rule="evenodd" clip-rule="evenodd" d="M972.252 1918.71L998.89 1908.2L981.888 1937.6L1036.38 1916.01L995.223 1961.25L1011.51 1959.34C985.9 1979.09 986.993 1993.3 983.4 2017.35L978.64 1997.28L955.184 2009.3L972.302 2022.89L993.031 2052.12L963.292 2054.36L996.422 2068.34L961.984 2074.37L963.791 2092.28L942.236 2073.81L972.252 1918.71Z" fill="black" fill-opacity="0.3"/>
</svg>
