<svg width="2160" height="2700" viewBox="0 0 2160 2700" fill="none" xmlns="http://www.w3.org/2000/svg">
<path fill-rule="evenodd" clip-rule="evenodd" d="M811.822 1448.85C811.822 1448.85 830.936 1596.76 859.537 1624.01C881.856 1645.27 949.882 1603.76 949.882 1603.76L1230.12 1609.88C1230.12 1609.88 1341.21 1614.7 1350.38 1593.44C1366.75 1555.42 1343.61 1388.99 1343.61 1388.99L1534.27 1453.12C1534.27 1453.12 1451.95 1606.3 1435.22 1647.29C1420.06 1684.42 1288.89 1707.8 1288.89 1707.8L1271.36 1963.05C1166.92 2051.15 1008 2026.68 937.604 1979.18L936.057 1724.32C936.831 1731.02 829.51 1720.46 795.765 1700.31C765.693 1682.34 631.946 1562.51 631.946 1562.51L811.822 1448.85Z" fill="#18815A" stroke="black" stroke-width="5.97663" stroke-miterlimit="1.5" stroke-linecap="square" stroke-linejoin="round"/>
<path fill-rule="evenodd" clip-rule="evenodd" d="M1358.79 1532.6L1356.63 1576.77C1378.44 1595.48 1434.94 1631.02 1457.48 1598.8L1476.17 1558.78C1446.9 1583.82 1388.29 1569.41 1358.79 1532.6Z" fill="#FFD635"/>
<path fill-rule="evenodd" clip-rule="evenodd" d="M1354.8 1588.7L1351.33 1598.87C1368.84 1619.98 1414.54 1654.79 1435.74 1639.77L1435.73 1613.94C1407.55 1625.16 1384.38 1616.39 1354.8 1588.7Z" fill="#FFD635"/>
<path fill-rule="evenodd" clip-rule="evenodd" d="M838.213 1587.48C842.723 1601.73 848.754 1614.5 856.5 1625.58C846.831 1650.86 814.324 1695.09 781.044 1684.57L753.91 1662.93C789.532 1664.66 830.32 1629.85 838.213 1587.48Z" fill="#FFD635"/>
<path fill-rule="evenodd" clip-rule="evenodd" d="M860.647 1629.31L865.596 1631.63C860.578 1656.26 851.417 1708.03 827.032 1709L807.916 1703.1C836.392 1695.6 848.575 1665.25 860.647 1629.31Z" fill="#FFD635"/>
<path fill-rule="evenodd" clip-rule="evenodd" d="M1283.01 1731.57L1280.72 1791.03C1265.36 1809.42 1226.75 1839.93 1206.82 1846.28C1187.54 1852.42 1161.16 1829.11 1161.16 1829.11C1214.86 1799.39 1253.48 1766.45 1283.01 1731.57Z" fill="#FFD635"/>
<path fill-rule="evenodd" clip-rule="evenodd" d="M1277.16 1824.03L1279.6 1872.13L1207.54 1926.86L1162.77 1914.4C1210.59 1894.18 1252.93 1856.9 1277.16 1824.03Z" fill="#FFD635"/>
<path fill-rule="evenodd" clip-rule="evenodd" d="M941.665 1736.72L943.384 1804.09C961.886 1827.51 985.5 1842.51 1013.66 1850.04L1063.52 1835.67C1017.64 1811.24 976.165 1779.65 941.665 1736.72Z" fill="#FFD635"/>
<path fill-rule="evenodd" clip-rule="evenodd" d="M939.681 1826.26L943.546 1884.32C943.546 1884.32 979.186 1921.59 999.388 1927.85C1019.59 1934.1 1064.74 1921.85 1064.74 1921.85C1014.32 1895.1 972.185 1863.5 939.681 1826.26Z" fill="#FFD635"/>
<path fill-rule="evenodd" clip-rule="evenodd" d="M1100.58 1805.98L1120.81 1804.92L1122.85 2011.32L1110.72 2018.69L1100.58 1805.98Z" fill="#FFD635"/>
<path fill-rule="evenodd" clip-rule="evenodd" d="M1059.88 1994.91L1107.46 1959.51C1050.21 1947.48 1039.97 1933.71 1034.16 1903.21C1067.01 1912.17 1126.51 1904.21 1187.67 1895.2C1111.04 1877.48 1053.36 1859.41 1038.91 1840.54L1126.74 1849.92C1104.52 1817.79 1209.52 1804.08 1236.54 1761.1L1374.25 1623.39L1440.58 1422.03L1346.22 1404.14L1352.88 1588.59L990.707 1735L901.362 1625.36L865.624 1637.77C865.624 1637.77 853.506 1683.58 829.641 1669.66C805.777 1655.73 722.821 1541.8 722.821 1541.8L667.033 1586.51C686.997 1610.56 737.858 1668.54 802.183 1700.41C844.315 1721.28 895.427 1722.71 936.244 1724.8L941.21 1896.52C968.482 1937.48 1011.67 1975.31 1059.88 1994.91Z" fill="black" fill-opacity="0.3"/>
<path d="M758.538 1533.92L722.77 1543.23L845.939 2016.61L881.707 2007.31L758.538 1533.92Z" fill="#1D9A6C" stroke="black" stroke-width="8.00024" stroke-miterlimit="1.5" stroke-linecap="round" stroke-linejoin="round"/>
<path d="M1468.33 1411.35L1431.52 1408.05L1387.79 1895.49L1424.6 1898.8L1468.33 1411.35Z" fill="#1D9A6C" stroke="black" stroke-width="8.00235" stroke-miterlimit="1.5" stroke-linecap="round" stroke-linejoin="round"/>
<path fill-rule="evenodd" clip-rule="evenodd" d="M1335.95 1791.03C1335.95 1791.03 1195.85 1997.82 1120.57 2004.56C1045.28 2011.3 884.248 1831.5 884.248 1831.5L885.136 2034.75C955.906 2059.82 1030.75 2090.31 1113.77 2087.34C1179.83 2084.98 1251.87 2054.18 1325.39 2034.75L1335.95 1791.03Z" fill="#00A8E4" stroke="black" stroke-width="7.0775" stroke-miterlimit="1.5" stroke-linecap="square" stroke-linejoin="round"/>
<path fill-rule="evenodd" clip-rule="evenodd" d="M1099.14 1817.64C1137.06 1819.37 1215.43 1759.15 1217.15 1721.24C1220.02 1658.29 1173.1 1561.23 1110.26 1559.83C1016.26 1557.72 983.477 1641.34 982.442 1707C981.844 1744.94 1061.21 1815.9 1099.14 1817.64Z" fill="#994662" stroke="black" stroke-width="5.4986" stroke-miterlimit="1.5" stroke-linecap="round" stroke-linejoin="round"/>
<path fill-rule="evenodd" clip-rule="evenodd" d="M1006.96 1739.11C999.9 1722.76 1007.57 1687.57 1047.57 1687.83C1076.07 1688.02 1158.35 1706.92 1178.51 1717.22C1192.28 1724.26 1186.96 1752.59 1176.13 1763.66C1162.64 1777.46 1104.44 1800.99 1097.54 1800.01C1090.63 1799.03 1014.01 1755.47 1006.96 1739.11Z" fill="#FF050B" stroke="black" stroke-width="5.49913" stroke-miterlimit="1.5" stroke-linecap="round" stroke-linejoin="round"/>
<path fill-rule="evenodd" clip-rule="evenodd" d="M1028.12 1692.78C1031.96 1694.04 1043.44 1700.86 1043.44 1700.86L1051.65 1713.19L1058.27 1705.87C1085.73 1715.8 1113.91 1721.72 1142.63 1724.63L1145.63 1734.87L1159.59 1726.9C1159.59 1726.9 1174.23 1725.54 1179.88 1724.91L1167.56 1715.51L1056.25 1688.46L1028.12 1692.78Z" fill="white" stroke="black" stroke-width="5.49913" stroke-miterlimit="1.5" stroke-linecap="round" stroke-linejoin="round"/>
<path fill-rule="evenodd" clip-rule="evenodd" d="M1011.92 1743.15C1028.16 1757.06 1074.58 1794.54 1100.24 1794.19C1122.52 1793.89 1149.7 1775.05 1168.38 1765.78L1176.13 1757.07C1114.74 1789.94 1050.67 1779.65 1008.34 1733.77L1011.92 1743.15Z" fill="white" stroke="black" stroke-width="5.50172" stroke-miterlimit="1.5" stroke-linecap="round" stroke-linejoin="round"/>
<path fill-rule="evenodd" clip-rule="evenodd" d="M1097.13 1680.31L1109.7 1691.63L1125.01 1685.46L1097.13 1680.31Z" stroke="black" stroke-width="7.25379" stroke-miterlimit="1.5" stroke-linecap="round" stroke-linejoin="round"/>
<path fill-rule="evenodd" clip-rule="evenodd" d="M791.895 1371.19C791.895 1371.19 715.689 1293.92 690.415 1301.8C665.15 1309.68 657.038 1337.05 640.371 1351.66C627.936 1362.56 621.895 1354.71 601.915 1374.74C592.156 1384.52 586.54 1403.79 577.933 1414.9C565.803 1430.53 556.741 1446.35 556.158 1459.17C554.303 1499.92 612.189 1575.94 633.64 1592.57C646.712 1602.71 684.966 1583.31 684.86 1558.96C717.577 1562.95 731.99 1551.82 731.498 1528.35C731.498 1528.35 762.639 1552.52 780.013 1545.31C799.996 1537.01 851.428 1478.55 851.428 1478.55C851.428 1478.55 882.908 1447.44 862.367 1417.35C855.479 1407.26 819.876 1400.79 819.876 1400.79L791.895 1371.19Z" fill="#994662" stroke="black" stroke-width="7.87737" stroke-miterlimit="1.5" stroke-linecap="square" stroke-linejoin="round"/>
<path d="M736.162 1521.3L796.828 1443.25C796.828 1443.25 804.782 1423.44 799.986 1415.44C791.015 1400.46 742.978 1353.4 742.978 1353.4" stroke="black" stroke-width="8.85027" stroke-miterlimit="1.5" stroke-linecap="square" stroke-linejoin="round"/>
<path d="M798.653 1421.65C798.653 1421.65 770.889 1388.01 759.258 1389.95C752.362 1391.11 738.247 1417.66 734.578 1433.34C732.771 1441.07 736.585 1447.93 736.585 1447.93" stroke="black" stroke-width="7" stroke-miterlimit="1.5" stroke-linecap="square" stroke-linejoin="round"/>
<path d="M788.575 1528.82C796.62 1521.5 797.255 1509.09 789.992 1501.11C782.729 1493.12 770.319 1492.58 762.274 1499.9C754.229 1507.22 753.595 1519.62 760.858 1527.61C768.12 1535.59 780.53 1536.13 788.575 1528.82Z" fill="black" fill-opacity="0.3" stroke="black" stroke-width="8.77963" stroke-miterlimit="1.5" stroke-linecap="round" stroke-linejoin="round"/>
<path d="M675.537 1352.7C660.41 1374.94 722.355 1441 747.114 1458.79C756.759 1465.72 786.085 1460.99 784.65 1458.36L765.852 1471.93C765.852 1471.93 736.001 1454.68 723.944 1458.02C711.888 1461.36 688.422 1469.45 694.726 1500.74C697.535 1514.71 734.162 1520.12 734.162 1520.12" stroke="black" stroke-width="8.85027" stroke-miterlimit="1.5" stroke-linecap="round" stroke-linejoin="round"/>
<path d="M632.464 1507.4L679.349 1558.68C674.904 1542.72 682.165 1525.87 698.188 1514.98C699.643 1513.99 644.063 1439 644.063 1439" stroke="black" stroke-width="8.85027" stroke-miterlimit="1.5" stroke-linecap="round" stroke-linejoin="round"/>
<path fill-rule="evenodd" clip-rule="evenodd" d="M688.173 1472.04L713.093 1455.42L673.368 1391.48L675.227 1349.65L734.916 1419.77L759.541 1390.65L816.158 1430.83C789.944 1478.07 793.648 1499.62 822.395 1499.66L772.169 1573.6C757.197 1614.95 770.62 1693.43 784.744 1772.81C784.744 1772.81 727.756 1544.3 722.597 1547.99C710.541 1556.62 687.506 1573.2 668.088 1587.69C653.674 1598.44 632.101 1591.18 629.972 1586.73C623.998 1574.21 561.562 1495.14 561.562 1495.14C563.036 1447.3 576.332 1407.7 603.307 1377.66L651.606 1347.13C646.063 1354.51 600.337 1409.35 605.543 1424.74C619.957 1467.37 662.39 1520.23 676.857 1508.67C682.65 1504.05 626.658 1425.51 630.578 1423.08C642.123 1415.94 688.173 1472.04 688.173 1472.04Z" fill="black" fill-opacity="0.3"/>
<path fill-rule="evenodd" clip-rule="evenodd" d="M1575.07 1325.4L1554.71 1308.55L1538.72 1274.62L1476.22 1240.99C1469.43 1181.12 1444.12 1189.66 1418.82 1198.18L1358.89 1294.42L1331.89 1306.64C1331.89 1306.64 1297.15 1338.17 1309.56 1355.99C1322.73 1374.9 1354.84 1416.32 1410.86 1420.1C1414.19 1423.96 1437.79 1409.12 1440.83 1410.15C1450.21 1413.32 1465.87 1419.74 1465.03 1434.36C1464.09 1450.46 1468.43 1467.92 1485.99 1466.17L1567.39 1433.92L1575.07 1325.4Z" fill="#994662" stroke="black" stroke-width="7.96768" stroke-miterlimit="1.5" stroke-linecap="square" stroke-linejoin="round"/>
<path fill-rule="evenodd" clip-rule="evenodd" d="M1455.29 1416.04C1455.29 1416.04 1424.11 1369.49 1449.53 1331.93C1456.41 1321.76 1455.24 1280.73 1455.24 1280.73C1439.5 1284.38 1416.99 1263.63 1407.38 1251.89L1396.35 1242.99L1362.52 1293.83L1418.97 1286.67L1440.56 1307.61C1422.76 1333.28 1397.18 1338.31 1366.71 1330.4L1334.14 1333.82L1307.19 1348.03C1320.19 1388.06 1374.64 1421.13 1427.35 1419.19L1408.21 1724.33L1455.29 1416.04Z" fill="black" fill-opacity="0.3"/>
<path d="M1448.37 1248.43C1459.19 1248.43 1467.96 1244.28 1467.96 1239.15C1467.96 1234.03 1459.19 1229.88 1448.37 1229.88C1437.55 1229.88 1428.78 1234.03 1428.78 1239.15C1428.78 1244.28 1437.55 1248.43 1448.37 1248.43Z" fill="black" fill-opacity="0.3" stroke="black" stroke-width="8.84428" stroke-miterlimit="1.5" stroke-linecap="round" stroke-linejoin="round"/>
<path d="M1450.64 1397.29C1460.85 1397.29 1469.12 1389.18 1469.12 1379.18C1469.12 1369.17 1460.85 1361.06 1450.64 1361.06C1440.43 1361.06 1432.16 1369.17 1432.16 1379.18C1432.16 1389.18 1440.43 1397.29 1450.64 1397.29Z" fill="black" fill-opacity="0.3" stroke="black" stroke-width="8.84428" stroke-miterlimit="1.5" stroke-linecap="round" stroke-linejoin="round"/>
<path d="M1481.11 1428.33C1488.76 1428.33 1494.97 1422.93 1494.97 1416.26C1494.97 1409.6 1488.76 1404.2 1481.11 1404.2C1473.45 1404.2 1467.24 1409.6 1467.24 1416.26C1467.24 1422.93 1473.45 1428.33 1481.11 1428.33Z" fill="black" fill-opacity="0.3" stroke="black" stroke-width="8.84428" stroke-miterlimit="1.5" stroke-linecap="round" stroke-linejoin="round"/>
<path d="M1490.77 1460.28C1498.81 1460.28 1505.33 1455.33 1505.33 1449.23C1505.33 1443.12 1498.81 1438.17 1490.77 1438.17C1482.72 1438.17 1476.2 1443.12 1476.2 1449.23C1476.2 1455.33 1482.72 1460.28 1490.77 1460.28Z" fill="black" fill-opacity="0.3" stroke="black" stroke-width="8.71439" stroke-miterlimit="1.5" stroke-linecap="round" stroke-linejoin="round"/>
<path d="M1360.22 1297.39C1360.22 1297.39 1412.19 1284.75 1424.88 1289.86C1437.36 1294.89 1444.82 1318.14 1436.31 1328.08C1425.53 1340.69 1370.64 1364.11 1370.64 1364.11" stroke="black" stroke-width="8.84428" stroke-miterlimit="1.5" stroke-linecap="round" stroke-linejoin="round"/>
<path d="M1393.26 1340.89C1402.1 1340.89 1409.26 1331.8 1409.26 1320.59C1409.26 1309.38 1402.1 1300.29 1393.26 1300.29C1384.42 1300.29 1377.26 1309.38 1377.26 1320.59C1377.26 1331.8 1384.42 1340.89 1393.26 1340.89Z" fill="black" fill-opacity="0.3" stroke="black" stroke-width="8.84428" stroke-miterlimit="1.5" stroke-linecap="round" stroke-linejoin="round"/>
<path d="M1401.94 1232.34C1401.94 1232.34 1405.83 1268.06 1412.43 1278.35C1419.04 1288.63 1441.57 1294.11 1441.57 1294.11L1476.03 1255.25L1478.28 1248.72" stroke="black" stroke-width="8.84428" stroke-miterlimit="1.5" stroke-linecap="round" stroke-linejoin="round"/>
<path d="M1450.54 1283.99L1437.36 1328.52L1419.94 1360.86C1419.94 1360.86 1418.87 1402.99 1430.24 1406.09C1458.67 1413.86 1499.56 1345.17 1499.56 1345.17L1514.01 1290.33" stroke="black" stroke-width="8.00143" stroke-miterlimit="1.5" stroke-linecap="round" stroke-linejoin="round"/>
<path d="M1462.6 1393.69C1462.6 1393.69 1450.44 1422.41 1457.71 1430.1C1461.34 1433.93 1479.6 1429.37 1490.47 1425.61C1494.32 1424.29 1525.88 1393.71 1544.82 1375.7C1555.06 1365.97 1555.4 1352.05 1555.4 1352.05" stroke="black" stroke-width="8.00143" stroke-miterlimit="1.5" stroke-linecap="round" stroke-linejoin="round"/>
<path fill-rule="evenodd" clip-rule="evenodd" d="M877.987 1801.2C931.624 1799.98 968.94 1881.92 968.94 1955.86C968.94 1997.28 973.006 2036.45 973.593 2071.42C973.894 2089.45 777.194 1967.93 775.041 1953.84C763.893 1880.74 832.282 1802.23 877.987 1801.2Z" fill="#00A8E4" stroke="black" stroke-width="7.99858" stroke-miterlimit="1.5" stroke-linecap="square" stroke-linejoin="round"/>
<path fill-rule="evenodd" clip-rule="evenodd" d="M875.381 1804.88C922.144 1791.63 944.944 1853.83 958.404 1915.97C970.723 1972.86 914.24 1896.23 865.631 1896.23C817.026 1896.23 768.448 1966.38 782.544 1909.9C797.219 1851.11 845.724 1813.28 875.381 1804.88Z" fill="#FFD635"/>
<path fill-rule="evenodd" clip-rule="evenodd" d="M895.333 1803.85C895.333 1803.85 834.791 1826.5 850.184 1840.42C865.577 1854.34 887.068 1871.57 887.068 1871.57L850.184 1888.35L871.308 1904.14L849.578 1941.96L882.017 1959.9L876.276 2007.08C831.304 1994.66 801.599 1957.77 774.091 1916.03C815.914 1825.85 856.035 1799.44 895.333 1803.85Z" fill="black" fill-opacity="0.3"/>
<path fill-rule="evenodd" clip-rule="evenodd" d="M1345.1 1771.31C1398.72 1772.94 1459.48 1864.45 1454.16 1914.08C1452.6 1928.68 1308.78 2054.3 1298.62 2043.43C1275.14 2018.32 1260.6 1978.43 1261.96 1933.98C1264.21 1860.07 1291.47 1769.68 1345.1 1771.31Z" fill="#00A8E4" stroke="black" stroke-width="7.99857" stroke-miterlimit="1.5" stroke-linecap="square" stroke-linejoin="round"/>
<path fill-rule="evenodd" clip-rule="evenodd" d="M1355.5 1779.67C1308.74 1766.43 1285.94 1828.63 1272.48 1890.77C1260.16 1947.66 1316.64 1871.03 1365.25 1871.03C1413.86 1871.03 1462.44 1941.17 1448.34 1884.7C1433.66 1825.91 1385.16 1788.07 1355.5 1779.67Z" fill="#FFD635"/>
<path fill-rule="evenodd" clip-rule="evenodd" d="M1319.28 1778.61C1299.79 1813.46 1286.04 1847.69 1300.22 1878.85L1327.69 1883.21L1285.69 1917.87L1336.39 1906.49L1323.34 1938.49L1343.27 1962.03L1331.39 2007.2C1288.46 2039.34 1242.57 2061.71 1192.53 2072.24C1147.15 2082.95 1018.42 2071.96 985.508 2066.92C985.508 2066.92 1000.96 2047.7 1032.01 2048.35C1063.27 2049.01 1121.36 2055.3 1101.48 2014.4C1107.23 1998.21 1119.45 2003.47 1141.56 1995.72L1265.33 1890.16C1280.94 1830.34 1300.18 1785.31 1319.28 1778.61Z" fill="black" fill-opacity="0.3"/>
<path fill-rule="evenodd" clip-rule="evenodd" d="M1064.91 1449.17C1064.91 1449.17 1035.23 1549.45 1017.85 1602.58C1000.47 1655.7 980.479 1736.19 980.479 1736.19C980.479 1736.19 953.151 1728.87 934.608 1702.71C929.586 1695.62 930.946 1678.4 926.775 1670.08C918.801 1654.18 907.4 1635.2 905.411 1617.78C903.319 1599.43 910.952 1582.73 915.015 1570.31C920.121 1554.7 986.769 1462.04 986.769 1462.04L1064.91 1449.17Z" fill="#1D9A6C" stroke="black" stroke-width="5.48655" stroke-miterlimit="1.5" stroke-linecap="round" stroke-linejoin="round"/>
<path d="M930.68 1673.73L1005.63 1462.48" stroke="black" stroke-width="4.48396" stroke-miterlimit="1.5" stroke-linejoin="round"/>
<path d="M968.999 1667.8L955.29 1717.18" stroke="#FFD635" stroke-width="4.48396" stroke-miterlimit="1.5" stroke-linejoin="round"/>
<path d="M956.619 1658.3L943.487 1705.49" stroke="#FFD635" stroke-width="4.48396" stroke-miterlimit="1.5" stroke-linejoin="round"/>
<path fill-rule="evenodd" clip-rule="evenodd" d="M1244.27 1496.79C1244.27 1496.79 1203.49 1575.19 1206.01 1630.97C1208.52 1686.76 1206.23 1769.61 1206.23 1769.61C1206.23 1769.61 1241.07 1772.38 1268.69 1746.63C1272.2 1743.37 1272.43 1723.63 1275.73 1719.98C1286.83 1707.68 1303.74 1698.87 1310.26 1683.74C1318.14 1665.45 1317.03 1642.15 1316.4 1628.25C1315.73 1613.29 1308.45 1535.05 1308.45 1535.05L1244.27 1496.79Z" fill="#1D9A6C" stroke="black" stroke-width="5.47661" stroke-miterlimit="1.5" stroke-linecap="round" stroke-linejoin="round"/>
<path d="M1274.04 1718.33L1268.13 1513.53" stroke="black" stroke-width="4.48396" stroke-miterlimit="1.5" stroke-linejoin="round"/>
<path fill-rule="evenodd" clip-rule="evenodd" d="M1156.82 1433.07C1153.2 1440.57 1144.97 1443.29 1138.44 1439.13C1131.91 1434.97 1129.56 1425.52 1133.17 1418.02C1133.17 1418.02 1169.38 1343.46 1174.4 1323.63C1182.47 1291.68 1173.07 1213.39 1151.94 1196.01C1144.5 1189.9 1133.89 1189.04 1122.83 1188.85C1108.7 1188.62 1093.79 1190.21 1081.24 1189.75C1056.25 1188.84 1036.48 1185.72 1034.91 1160.12C1034.37 1151.15 1043.17 1139.63 1051.24 1126.02C1057.37 1115.7 1084.19 1085.07 1104.44 1045.27C1132.34 990.45 1102.5 888.476 1102.5 888.476C1108.39 875.238 1126.35 886.433 1125.98 891.74C1125.98 891.74 1152.01 1002.74 1125.15 1053.11C1102.87 1094.89 1074.84 1131.27 1069.24 1141.66C1051.79 1174.06 1083.27 1165.62 1091.34 1165.34C1105.71 1164.84 1121.45 1163.65 1135.31 1165.63C1146.51 1167.22 1156.6 1170.9 1164.61 1177.48C1194.49 1202.05 1205.4 1288.12 1193.99 1333.3C1188.65 1354.43 1156.82 1433.07 1156.82 1433.07Z" fill="#1D9A6C" stroke="black" stroke-width="6.96334" stroke-miterlimit="2" stroke-linejoin="round"/>
<path fill-rule="evenodd" clip-rule="evenodd" d="M1112.8 1033.46C1126.72 989.769 1130.79 939.674 1126.47 884.134L1099.55 876.957C1115.28 934.7 1119.94 986.985 1112.8 1033.46Z" fill="black" fill-opacity="0.3"/>
<path d="M1180.45 1433.57C1184.46 1407.89 1172.48 1383.94 1153.69 1380.07C1134.91 1376.2 1116.43 1393.87 1112.42 1419.55C1108.41 1445.23 1120.38 1469.19 1139.17 1473.06C1157.95 1476.93 1176.44 1459.25 1180.45 1433.57Z" fill="#1D9A6C" stroke="black" stroke-width="4.85317" stroke-miterlimit="1.5" stroke-linecap="round" stroke-linejoin="round"/>
<path d="M1187.79 1462.43C1191.8 1436.75 1173.18 1411.43 1146.2 1405.87C1119.22 1400.31 1094.1 1416.62 1090.09 1442.3C1086.08 1467.98 1104.7 1493.3 1131.68 1498.86C1158.66 1504.42 1183.78 1488.11 1187.79 1462.43Z" fill="#1D9A6C" stroke="black" stroke-width="5.81608" stroke-miterlimit="1.5" stroke-linecap="round" stroke-linejoin="round"/>
<path fill-rule="evenodd" clip-rule="evenodd" d="M1144.93 1412.19L1145.52 1431.48L1167.8 1442.31L1174.5 1431.07L1144.93 1412.19Z" fill="white" fill-opacity="0.3"/>
<path fill-rule="evenodd" clip-rule="evenodd" d="M1158.54 1388.95L1153.27 1398.45L1170.73 1408.51L1167.18 1394.26L1158.54 1388.95Z" fill="white" fill-opacity="0.3"/>
<path fill-rule="evenodd" clip-rule="evenodd" d="M1064.72 1460.74C1089.71 1442.57 1114.93 1444.18 1139.91 1440.45C1170.85 1453.23 1190.92 1462.29 1202.19 1489.07L1126.2 1521.4L1064.72 1460.74Z" fill="#1D9A6C" stroke="black" stroke-width="5.63631" stroke-miterlimit="1.5" stroke-linecap="round" stroke-linejoin="round"/>
<path fill-rule="evenodd" clip-rule="evenodd" d="M1213.03 1720.77C1224.64 1719.47 1251.71 1717.76 1266.31 1706.29C1282.8 1693.33 1295.22 1666.65 1296.72 1658.89C1309.63 1592.33 1236.93 1524.66 1137.26 1505.72C1037.59 1486.78 944.444 1525.13 933.277 1592C931.564 1602.26 939.728 1628.49 951.228 1644.82C963.982 1662.93 981.017 1672.21 991.525 1680.18L1008.4 1654.91L1112.02 1690.72L1205.76 1690.92L1213.03 1720.77Z" fill="#1D9A6C" stroke="black" stroke-width="5.49859" stroke-miterlimit="1.5" stroke-linecap="round" stroke-linejoin="round"/>
<path fill-rule="evenodd" clip-rule="evenodd" d="M1244.95 1683.74L1239.87 1708.06L1256.92 1703.23C1266.26 1694.83 1276.53 1686.64 1279.15 1675.49L1244.95 1683.74Z" fill="white" fill-opacity="0.3"/>
<path fill-rule="evenodd" clip-rule="evenodd" d="M1205.23 1554.18C1203.77 1553.4 1203.2 1551.61 1203.98 1550.16C1204.76 1548.71 1206.58 1548.15 1208.04 1548.91C1215.81 1552.98 1218.19 1559.2 1217.32 1566.73C1217.14 1568.36 1215.65 1569.53 1214 1569.35C1212.36 1569.16 1211.17 1567.69 1211.36 1566.06C1211.93 1561.05 1210.41 1556.88 1205.23 1554.18Z" fill="#808080" stroke="black" stroke-width="2.65301" stroke-miterlimit="2" stroke-linejoin="round"/>
<path fill-rule="evenodd" clip-rule="evenodd" d="M1213.83 1549.19C1212.37 1548.42 1211.81 1546.62 1212.59 1545.17C1213.36 1543.72 1215.18 1543.16 1216.64 1543.93C1224.42 1547.99 1226.79 1554.22 1225.93 1561.74C1225.75 1563.37 1224.25 1564.54 1222.61 1564.36C1220.96 1564.17 1219.78 1562.7 1219.96 1561.07C1220.53 1556.06 1219.01 1551.89 1213.83 1549.19Z" fill="#808080" stroke="black" stroke-width="2.65301" stroke-miterlimit="2" stroke-linejoin="round"/>
<path fill-rule="evenodd" clip-rule="evenodd" d="M1222.1 1542.21C1220.63 1541.44 1220.07 1539.64 1220.85 1538.19C1221.62 1536.74 1223.44 1536.18 1224.9 1536.95C1232.68 1541.01 1235.05 1547.24 1234.19 1554.76C1234.01 1556.39 1232.51 1557.56 1230.87 1557.38C1229.22 1557.19 1228.04 1555.72 1228.22 1554.09C1228.8 1549.08 1227.27 1544.91 1222.1 1542.21Z" fill="#808080" stroke="black" stroke-width="2.65301" stroke-miterlimit="2" stroke-linejoin="round"/>
<path fill-rule="evenodd" clip-rule="evenodd" d="M1196.98 1558.75C1195.51 1557.98 1194.95 1556.18 1195.73 1554.73C1196.5 1553.28 1198.32 1552.72 1199.78 1553.49C1207.56 1557.55 1209.93 1563.78 1209.07 1571.3C1208.89 1572.93 1207.39 1574.1 1205.75 1573.92C1204.1 1573.73 1202.92 1572.26 1203.1 1570.63C1203.68 1565.62 1202.15 1561.45 1196.98 1558.75Z" fill="#808080" stroke="black" stroke-width="2.65301" stroke-miterlimit="2" stroke-linejoin="round"/>
<path fill-rule="evenodd" clip-rule="evenodd" d="M1187.74 1563.95C1186.28 1563.17 1185.71 1561.37 1186.49 1559.92C1187.27 1558.47 1189.09 1557.92 1190.55 1558.68C1198.32 1562.75 1200.7 1568.97 1199.83 1576.5C1199.65 1578.13 1198.16 1579.3 1196.51 1579.11C1194.87 1578.93 1193.68 1577.46 1193.87 1575.83C1194.44 1570.82 1192.92 1566.64 1187.74 1563.95Z" fill="#808080" stroke="black" stroke-width="2.65301" stroke-miterlimit="2" stroke-linejoin="round"/>
<path d="M1066.15 1624.04L1079.29 1616.24L1097.79 1638.71L1105.83 1626.36L1134.17 1630.96L1138.94 1644.68L1165.07 1623.67L1175.06 1632.24" stroke="black" stroke-width="4.48396" stroke-miterlimit="1.5" stroke-linejoin="round"/>
<path d="M1234.97 1721.47L1239.18 1758.72" stroke="#0DF2C9" stroke-width="4.48396" stroke-miterlimit="1.5" stroke-linejoin="round"/>
<path d="M1250.17 1717.53L1255.49 1751.35" stroke="#0DF2C9" stroke-width="4.48396" stroke-miterlimit="1.5" stroke-linejoin="round"/>
<path fill-rule="evenodd" clip-rule="evenodd" d="M1015 1490.24C1015 1490.24 1037.14 1471.91 1071.08 1466.73C1089.4 1463.93 1113.74 1463.98 1136.51 1468.03C1159.49 1472.11 1183.92 1478.85 1200.21 1486.85C1229.95 1501.46 1240.86 1524 1240.86 1524C1240.86 1524 1181.02 1587.27 1116.05 1575.73C1051.09 1564.19 1015 1490.24 1015 1490.24Z" fill="#1D9A6C" stroke="black" stroke-width="4.96647" stroke-miterlimit="1.5" stroke-linecap="round" stroke-linejoin="round"/>
<path fill-rule="evenodd" clip-rule="evenodd" d="M1197.98 1492.63L1231.21 1518.67L1202.45 1542.53C1202.45 1542.53 1220.08 1525.08 1215.79 1517.81C1211.5 1510.55 1197.98 1492.63 1197.98 1492.63Z" fill="white"/>
<path fill-rule="evenodd" clip-rule="evenodd" d="M1272.93 1554.02L1271.59 1561.1L1308.17 1610.92L1302.28 1585.37L1272.93 1554.02Z" fill="white"/>
<path fill-rule="evenodd" clip-rule="evenodd" d="M1210.66 1585.12C1204.82 1591.91 1177.76 1625.44 1177.76 1625.44L1169.76 1617.55C1169.76 1617.55 1216.5 1578.34 1210.66 1585.12Z" fill="white"/>
<path fill-rule="evenodd" clip-rule="evenodd" d="M1165.98 1629.43L1168.92 1633.29L1142.44 1652.4L1165.98 1629.43Z" fill="white"/>
<path fill-rule="evenodd" clip-rule="evenodd" d="M1185 1554.62C1185 1554.62 1145.36 1570.8 1136.61 1571.14C1132.18 1571.32 1134.42 1563.92 1138.67 1562.7C1147.51 1560.16 1185 1554.62 1185 1554.62Z" fill="white"/>
<path fill-rule="evenodd" clip-rule="evenodd" d="M1142.38 1474.81L1137.01 1499.44L1141.84 1500.09L1142.38 1474.81Z" fill="white"/>
<path fill-rule="evenodd" clip-rule="evenodd" d="M1124.87 1622.46L1138.81 1625.82L1140.61 1633.56L1141.77 1623.13L1124.87 1622.46Z" fill="white"/>
<path fill-rule="evenodd" clip-rule="evenodd" d="M1120.23 1659.32L1127.48 1641.36L1135.95 1654.53L1120.23 1659.32Z" fill="white"/>
<path fill-rule="evenodd" clip-rule="evenodd" d="M1275.11 1679.87L1257.98 1699.4L1269.96 1681.38L1275.11 1679.87Z" fill="white"/>
<path fill-rule="evenodd" clip-rule="evenodd" d="M1142.71 1584.33L1140.45 1636.03L1163.33 1617.7L1177.37 1626.35L1235.46 1562.42L1203.97 1579.3L1194.45 1582.74L1185.99 1569.89C1171.37 1577.03 1159.79 1582.8 1142.71 1584.33Z" fill="white" fill-opacity="0.4"/>
<path fill-rule="evenodd" clip-rule="evenodd" d="M1192.34 1544.71C1194.72 1536.17 1187.91 1520.27 1166.89 1533.92L1168.52 1478.21L1210.12 1496.67L1228.13 1518.01L1192.34 1544.71Z" fill="white" fill-opacity="0.4"/>
<path fill-rule="evenodd" clip-rule="evenodd" d="M1122.38 1633.72L1118.83 1660.55C1139.39 1657.56 1154.79 1646.34 1168.85 1632.97L1165.64 1629.31L1136.44 1650.15L1131.42 1635.51L1122.38 1633.72Z" fill="white" fill-opacity="0.4"/>
<path fill-rule="evenodd" clip-rule="evenodd" d="M1059.7 1474.28C1054.39 1506.63 1063.21 1532.85 1081.73 1561.93L1055.43 1543.82L1021.17 1548.79L1008.07 1515.2L944.526 1555.77C944.756 1592.72 949.149 1630.34 979.468 1672.12C956.291 1663.79 939.426 1667.75 931.47 1689.06L904.896 1614.84C910.737 1558.05 968.548 1497.28 987.021 1467.18C993.758 1461.43 1062.4 1449.84 1062.4 1449.84L1060.96 1460.33L1090.37 1442.83C1092.14 1430.21 1103.58 1417.07 1120.71 1408.93C1112.81 1396.26 1146.97 1374.32 1150.42 1376.6C1186.99 1319.08 1181.45 1255.91 1155.9 1190.05C1193.02 1257.89 1197.86 1321.48 1160.04 1379.47C1160.04 1379.47 1131.35 1410.04 1130.11 1412.99C1117.83 1424.82 1116.45 1433.29 1118.72 1440.65C1110.03 1444.36 1093.81 1447.89 1090.47 1462.18C1088.54 1470.45 1063.24 1465.72 1059.7 1474.28Z" fill="black" fill-opacity="0.3"/>
<path d="M1136.51 1468.03L1132.7 1503.03L1143.47 1508.93L1142.12 1519.9L1117.36 1519.07L1114.51 1531.34L1129.12 1537.42L1124.68 1574.15" stroke="black" stroke-width="4.48396" stroke-miterlimit="1.5" stroke-linecap="round" stroke-linejoin="round"/>
<path d="M1082.18 1532.34C1086.62 1532.34 1090.22 1529.15 1090.22 1525.22C1090.22 1521.29 1086.62 1518.1 1082.18 1518.1C1077.74 1518.1 1074.14 1521.29 1074.14 1525.22C1074.14 1529.15 1077.74 1532.34 1082.18 1532.34Z" fill="#808080" stroke="black" stroke-width="2.89449" stroke-miterlimit="1.5" stroke-linejoin="round"/>
<path d="M1180.42 1547.74C1184.86 1547.74 1188.47 1544.55 1188.47 1540.62C1188.47 1536.68 1184.86 1533.49 1180.42 1533.49C1175.98 1533.49 1172.38 1536.68 1172.38 1540.62C1172.38 1544.55 1175.98 1547.74 1180.42 1547.74Z" fill="#808080" stroke="black" stroke-width="2.89449" stroke-miterlimit="1.5" stroke-linejoin="round"/>
<path fill-rule="evenodd" clip-rule="evenodd" d="M1244.67 1551.15C1244.67 1551.15 1160.55 1670.62 1112.85 1662.97C1065.14 1655.31 1008.62 1512.03 1008.62 1512.03C963.031 1524.21 925.628 1568.77 935.772 1606.32L1005.5 1654.03L1112.03 1693.32L1210.04 1688.52L1290.9 1668.05C1302.88 1659.49 1309.14 1587.78 1244.67 1551.15Z" fill="black"/>
<path fill-rule="evenodd" clip-rule="evenodd" d="M1182.46 1630.96C1182.46 1630.96 1205.94 1637.93 1213.67 1641.24C1221.41 1644.56 1215.25 1654.65 1215.25 1654.65L1237.94 1674.58L1257.8 1669.59L1234.04 1650.64C1234.04 1650.64 1237.9 1641.68 1229.13 1632.56C1220.34 1623.44 1205.64 1617.75 1205.64 1617.75L1182.46 1630.96Z" fill="white"/>
<path fill-rule="evenodd" clip-rule="evenodd" d="M1209.56 1613.08C1209.56 1613.08 1230.8 1625.53 1237.33 1629.92C1243.86 1634.3 1242.34 1647.69 1242.34 1647.69L1263.92 1667.21L1273.36 1665.18L1250.43 1644.54C1250.43 1644.54 1253.26 1635.14 1244.61 1625.91C1235.96 1616.66 1218.09 1594.8 1218.09 1594.8L1209.56 1613.08Z" fill="white"/>
</svg>
