<svg width="2160" height="2700" viewBox="0 0 2160 2700" fill="none" xmlns="http://www.w3.org/2000/svg">
<path fill-rule="evenodd" clip-rule="evenodd" d="M1104.61 1393.71C1095.14 1376.32 892.523 1368.71 860.088 1386.5C899.965 1382.36 939.065 1380.44 969.902 1401.95L868.655 1469.12L962.603 1442.2C876.779 1495.94 845.527 1602.08 875.246 1678.49L919.698 1635.47L917.645 1696.85L970.661 1659.39L973.773 1724.47L1006.73 1696.31L1208.85 1685.34L1240.93 1710.84L1244.11 1679.37L1285.82 1703.26L1268.46 1663.78L1344.4 1689.44C1386.03 1591.61 1375.25 1505.3 1284.35 1443.93C1284.48 1430.52 1292.4 1432.42 1309.34 1436.73C1297.17 1421.61 1287.28 1414.03 1258.89 1421.14C1260.04 1403.24 1290.49 1401.83 1320.18 1411.64C1297.54 1391.8 1275.34 1385.13 1253.66 1393.91C1258.99 1372.31 1278.75 1366.95 1301.45 1364.89C1301.12 1358.05 1256.58 1358.18 1210.84 1381.29C1164.71 1404.6 1106.91 1397.93 1104.61 1393.71Z" fill="#001D28" stroke="#7ED3F1" stroke-width="6.99698" stroke-miterlimit="1.5" stroke-linecap="round" stroke-linejoin="round"/>
<path fill-rule="evenodd" clip-rule="evenodd" d="M1305.18 1483.85C1322.38 1509.66 1342.86 1530.67 1348.91 1557.84C1355.94 1589.37 1347.75 1618.69 1343.7 1660.1C1343.7 1660.1 1345.45 1601.02 1343.83 1599.08C1342.2 1597.13 1333.66 1653.87 1333.66 1653.87C1333.66 1653.87 1341.69 1586.36 1339.2 1587.61C1336.72 1588.87 1322.08 1665.39 1322.08 1665.39C1322.08 1665.39 1334.77 1577.45 1331.99 1576.75C1329.21 1576.04 1310.5 1656.39 1310.5 1656.39C1310.5 1656.39 1322.78 1576.87 1317.99 1575.99C1313.2 1575.11 1299.17 1652.33 1299.17 1652.33C1299.17 1652.33 1309.49 1573.09 1311.4 1565.84C1313.31 1558.58 1296.71 1611.5 1296.71 1611.5C1302.57 1600.16 1302.98 1580.74 1302.84 1564.87C1302.72 1550.59 1291.12 1531.99 1282.54 1509.85C1282.54 1509.85 1306.45 1554.53 1307.35 1552.16C1308.25 1549.79 1279.68 1472.2 1287.96 1495.62C1296.23 1519.03 1325.24 1572 1326.4 1569.38C1327.56 1566.75 1294.92 1479.86 1294.92 1479.86C1294.92 1479.86 1328.01 1551.88 1334.41 1554.12C1336.15 1554.73 1305.18 1483.85 1305.18 1483.85Z" fill="#00A8E4" fill-opacity="0.5"/>
<path fill-rule="evenodd" clip-rule="evenodd" d="M1067.74 2026.78C1058.86 2018.33 1080.02 1980.66 1069.81 1976.04C1051.57 1967.79 1007.31 2003.83 1007.14 2027.15C1007.02 2043 1013 2071.14 1013 2071.14L1079.18 2066.05C1079.18 2066.05 1074.33 2033.05 1067.74 2026.78Z" fill="#FF050B" stroke="black" stroke-width="10.7702" stroke-miterlimit="1.5" stroke-linecap="round" stroke-linejoin="round"/>
<path fill-rule="evenodd" clip-rule="evenodd" d="M990.742 1892.03L960.796 2021.62L1040.5 1998.46L1100.11 1995.62L1202.73 1993.55L1206.62 1838.61L990.742 1892.03Z" fill="black" stroke="black" stroke-width="10.7689" stroke-miterlimit="1.5" stroke-linecap="round" stroke-linejoin="round"/>
<path fill-rule="evenodd" clip-rule="evenodd" d="M947.984 1775.75L862.21 1811.73C862.21 1811.73 839.306 1797.72 854.831 1775.41C870.356 1753.09 960.51 1741.75 960.51 1741.75L947.984 1775.75Z" fill="#FF050B" stroke="black" stroke-width="10.7689" stroke-miterlimit="1.5" stroke-linecap="round" stroke-linejoin="round"/>
<path fill-rule="evenodd" clip-rule="evenodd" d="M1230.57 1702.27L1275.84 1764.38L1199.65 1789.52L1188.65 1904.31L1085.41 1860.41L967.918 1933.84L992.047 1779.71L942.045 1803.95L953.944 1726.73L1023.45 1691.21L1230.57 1702.27Z" fill="white" stroke="black" stroke-width="10.9937" stroke-miterlimit="1.5" stroke-linecap="round" stroke-linejoin="round"/>
<path fill-rule="evenodd" clip-rule="evenodd" d="M1050.44 1803.33L921.981 1735.88L905.416 1767.57L927.361 1778.41L946.125 1775.51L968.626 1789.54L987.849 1783L989.185 1802.73L1012.29 1805.45L995.646 1873.68L969.732 1900.31L1029.58 1922.33L1073.37 1883.62L1050.44 1803.33Z" fill="black" fill-opacity="0.3"/>
<path fill-rule="evenodd" clip-rule="evenodd" d="M1126.61 1736.9L1107.3 1789.26L1074.48 1773.33L1087.3 1755.96C1033.31 1747.74 1012.23 1728.01 998.359 1705.75L1126.61 1736.9Z" fill="black" fill-opacity="0.3"/>
<path fill-rule="evenodd" clip-rule="evenodd" d="M1039.45 1801.85L1048.76 1804.77L1068.35 1763.82L1090.63 1773.99L1153.72 1723.68L1208.65 1803.4L1474.96 1777.07L1260.49 2034.79L1140.31 1909.5C1140.31 1909.5 934.328 1888.44 917.52 1870.5C900.712 1852.56 1039.45 1801.85 1039.45 1801.85Z" fill="#1D9A6C" stroke="black" stroke-width="5.99785" stroke-miterlimit="1.5" stroke-linecap="round" stroke-linejoin="round"/>
<path fill-rule="evenodd" clip-rule="evenodd" d="M1171.78 1928.12C1171.78 1928.12 1254.4 2022.66 1259.16 2020.88C1263.92 2019.09 1303.56 1970.66 1303.56 1970.66C1303.56 1970.66 1268.08 2004.35 1259.05 2002.37C1250.03 2000.4 1171.78 1928.12 1171.78 1928.12Z" fill="black" fill-opacity="0.4"/>
<path fill-rule="evenodd" clip-rule="evenodd" d="M657.418 1640.17L584.749 1472.83L588.321 1390.98C620.896 1475.37 662.693 1544.52 713.019 1599.57L1068.59 1763.81L1047.36 1805.68L692.915 1632.93L657.418 1640.17Z" fill="#8DCCB5" stroke="black" stroke-width="4.99821" stroke-miterlimit="1.5" stroke-linecap="round" stroke-linejoin="round"/>
<path fill-rule="evenodd" clip-rule="evenodd" d="M706.573 1601.27C706.573 1601.27 676.571 1626.27 664.153 1622.05C651.735 1617.82 629.797 1574.93 629.797 1574.93L659.975 1637.87L693.062 1628.07L706.573 1601.27Z" fill="black" fill-opacity="0.4"/>
<path fill-rule="evenodd" clip-rule="evenodd" d="M1322.46 1928.47C1330.44 1924.61 1442.03 1805.75 1436.18 1797.61C1427.06 1784.9 1272.65 1811.21 1271.53 1808.78C1271.53 1808.78 1416.41 1793.63 1421.33 1803.85C1426.28 1814.14 1322.46 1928.47 1322.46 1928.47Z" fill="white"/>
<path d="M661.035 1611.59C664.092 1611.59 666.571 1609.27 666.571 1606.4C666.571 1603.54 664.092 1601.22 661.035 1601.22C657.977 1601.22 655.499 1603.54 655.499 1606.4C655.499 1609.27 657.977 1611.59 661.035 1611.59Z" fill="black" fill-opacity="0.5" stroke="black" stroke-width="1.4" stroke-miterlimit="1.5" stroke-linecap="round" stroke-linejoin="round"/>
<path d="M644.48 1582.1C647.538 1582.1 650.016 1579.78 650.016 1576.91C650.016 1574.05 647.538 1571.73 644.48 1571.73C641.423 1571.73 638.944 1574.05 638.944 1576.91C638.944 1579.78 641.423 1582.1 644.48 1582.1Z" fill="black" fill-opacity="0.5" stroke="black" stroke-width="1.4" stroke-miterlimit="1.5" stroke-linecap="round" stroke-linejoin="round"/>
<path d="M629.175 1551.53C632.232 1551.53 634.711 1549.21 634.711 1546.35C634.711 1543.49 632.232 1541.17 629.175 1541.17C626.117 1541.17 623.639 1543.49 623.639 1546.35C623.639 1549.21 626.117 1551.53 629.175 1551.53Z" fill="black" fill-opacity="0.5" stroke="black" stroke-width="1.4" stroke-miterlimit="1.5" stroke-linecap="round" stroke-linejoin="round"/>
<path d="M615.773 1521.12C618.831 1521.12 621.309 1518.8 621.309 1515.94C621.309 1513.07 618.831 1510.75 615.773 1510.75C612.716 1510.75 610.237 1513.07 610.237 1515.94C610.237 1518.8 612.716 1521.12 615.773 1521.12Z" fill="black" fill-opacity="0.5" stroke="black" stroke-width="1.4" stroke-miterlimit="1.5" stroke-linecap="round" stroke-linejoin="round"/>
<path d="M603.757 1492.27C606.815 1492.27 609.293 1489.95 609.293 1487.09C609.293 1484.22 606.815 1481.9 603.757 1481.9C600.7 1481.9 598.221 1484.22 598.221 1487.09C598.221 1489.95 600.7 1492.27 603.757 1492.27Z" fill="black" fill-opacity="0.5" stroke="black" stroke-width="1.4" stroke-miterlimit="1.5" stroke-linecap="round" stroke-linejoin="round"/>
<path d="M591.588 1466.24C594.645 1466.24 597.124 1463.92 597.124 1461.05C597.124 1458.19 594.645 1455.87 591.588 1455.87C588.53 1455.87 586.052 1458.19 586.052 1461.05C586.052 1463.92 588.53 1466.24 591.588 1466.24Z" fill="black" fill-opacity="0.5" stroke="black" stroke-width="1.4" stroke-miterlimit="1.5" stroke-linecap="round" stroke-linejoin="round"/>
<path d="M1251.95 1969.52C1257.32 1969.52 1261.66 1964.97 1261.66 1959.37C1261.66 1953.76 1257.32 1949.22 1251.95 1949.22C1246.59 1949.22 1242.24 1953.76 1242.24 1959.37C1242.24 1964.97 1246.59 1969.52 1251.95 1969.52Z" fill="black" fill-opacity="0.5" stroke="black" stroke-width="5" stroke-miterlimit="1.5" stroke-linecap="round" stroke-linejoin="round"/>
<path d="M1212.12 1939.19C1217.48 1939.19 1221.83 1934.65 1221.83 1929.04C1221.83 1923.44 1217.48 1918.89 1212.12 1918.89C1206.75 1918.89 1202.41 1923.44 1202.41 1929.04C1202.41 1934.65 1206.75 1939.19 1212.12 1939.19Z" fill="black" fill-opacity="0.5" stroke="black" stroke-width="5" stroke-miterlimit="1.5" stroke-linecap="round" stroke-linejoin="round"/>
<path d="M1231.52 1832.89L1222.3 1828.41L1194.79 1885.04L1204 1889.52L1231.52 1832.89Z" fill="black" fill-opacity="0.5" stroke="black" stroke-width="3.57906" stroke-miterlimit="1.5" stroke-linecap="round" stroke-linejoin="round"/>
<path d="M1116.9 1791.49L1090.48 1778.65L1067.22 1826.53L1093.63 1839.36L1116.9 1791.49Z" fill="#D1D1D1" stroke="black" stroke-width="4.45735" stroke-miterlimit="1.5" stroke-linecap="round" stroke-linejoin="round"/>
<path d="M1205.96 1825.88L1179.55 1813.05L1156.29 1860.92L1182.7 1873.76L1205.96 1825.88Z" fill="#D1D1D1" stroke="black" stroke-width="4.45735" stroke-miterlimit="1.5" stroke-linecap="round" stroke-linejoin="round"/>
<path fill-rule="evenodd" clip-rule="evenodd" d="M1073.35 1766.11L1064.41 1792.12L1076.27 1803.25L1088.95 1821.61L1080.73 1841.54L1091.49 1846.95L1147.07 1792.12L1073.35 1766.11Z" fill="black" fill-opacity="0.3"/>
<path fill-rule="evenodd" clip-rule="evenodd" d="M998.322 1824.5C998.322 1824.5 936.22 1857.16 939.438 1862.59C942.657 1868.02 1090.63 1892.64 1090.63 1892.64C1090.63 1892.64 939.394 1880.15 920.918 1866.69C911.691 1859.97 998.322 1824.5 998.322 1824.5Z" fill="black" fill-opacity="0.4"/>
<path d="M1067.12 1766.1L1048.82 1757.21L1030.29 1795.35L1048.59 1804.24L1067.12 1766.1Z" fill="black" fill-opacity="0.5" stroke="black" stroke-width="1.15904" stroke-miterlimit="1.5" stroke-linecap="round" stroke-linejoin="round"/>
<path d="M1045.33 1755.47L1028.12 1747.11L1009.92 1784.56L1027.13 1792.92L1045.33 1755.47Z" fill="black" fill-opacity="0.5" stroke="black" stroke-width="1.11386" stroke-miterlimit="1.5" stroke-linecap="round" stroke-linejoin="round"/>
<path d="M1023.91 1745.63L1007.23 1737.52L988.84 1775.38L1005.51 1783.48L1023.91 1745.63Z" fill="black" fill-opacity="0.5" stroke="black" stroke-width="1.10214" stroke-miterlimit="1.5" stroke-linecap="round" stroke-linejoin="round"/>
<path d="M1002.57 1736.6L983.422 1727.3L965.805 1763.55L984.948 1772.86L1002.57 1736.6Z" fill="black" fill-opacity="0.5" stroke="black" stroke-width="1.15579" stroke-miterlimit="1.5" stroke-linecap="round" stroke-linejoin="round"/>
<path d="M979.394 1725.42L958.124 1715.08L940.273 1751.82L961.543 1762.15L979.394 1725.42Z" fill="black" fill-opacity="0.5" stroke="black" stroke-width="1.22636" stroke-miterlimit="1.5" stroke-linecap="round" stroke-linejoin="round"/>
<path d="M953.159 1713.48L929.398 1701.94L912.145 1737.44L935.905 1748.99L953.159 1713.48Z" fill="black" fill-opacity="0.5" stroke="black" stroke-width="1.20148" stroke-miterlimit="1.5" stroke-linecap="round" stroke-linejoin="round"/>
<path d="M925.92 1700.28L897.426 1686.43L880.5 1721.26L908.994 1735.11L925.92 1700.28Z" fill="black" fill-opacity="0.5" stroke="black" stroke-width="1.16495" stroke-miterlimit="1.5" stroke-linecap="round" stroke-linejoin="round"/>
<path d="M890.88 1684.94L860.889 1670.36L844.481 1704.13L874.472 1718.7L890.88 1684.94Z" fill="black" fill-opacity="0.5" stroke="black" stroke-width="1.17677" stroke-miterlimit="1.5" stroke-linecap="round" stroke-linejoin="round"/>
<path d="M856.537 1669.13L822.582 1652.63L806.519 1685.68L840.474 1702.18L856.537 1669.13Z" fill="black" fill-opacity="0.5" stroke="black" stroke-width="1.10239" stroke-miterlimit="1.5" stroke-linecap="round" stroke-linejoin="round"/>
<path d="M818.701 1650.85L784.746 1634.35L768.866 1667.03L802.821 1683.53L818.701 1650.85Z" fill="black" fill-opacity="0.5" stroke="black" stroke-width="1.0961" stroke-miterlimit="1.5" stroke-linecap="round" stroke-linejoin="round"/>
<path d="M780.065 1633.46L746.109 1616.96L730.377 1649.34L764.333 1665.84L780.065 1633.46Z" fill="black" fill-opacity="0.5" stroke="black" stroke-width="1.09098" stroke-miterlimit="1.5" stroke-linecap="round" stroke-linejoin="round"/>
<path d="M741.439 1615.02L709.674 1599.58L694.49 1630.83L726.256 1646.27L741.439 1615.02Z" fill="black" fill-opacity="0.5" stroke="black" stroke-width="1.03665" stroke-miterlimit="1.5" stroke-linecap="round" stroke-linejoin="round"/>
<path fill-rule="evenodd" clip-rule="evenodd" d="M1148.08 1897.61C1137.05 1865.19 1123.93 1844.12 1102.46 1873.01C1093.11 1885.6 1099.49 2034.64 1099.49 2034.64L1178.73 2031.88C1178.73 2031.88 1158.72 1928.92 1148.08 1897.61Z" fill="#FF050B" stroke="black" stroke-width="10.7689" stroke-miterlimit="1.5" stroke-linecap="round" stroke-linejoin="round"/>
<path fill-rule="evenodd" clip-rule="evenodd" d="M1103.92 1892.64L1112.98 1978.06L1101.29 2010.73L1103.92 1892.64Z" fill="black" fill-opacity="0.3"/>
<path fill-rule="evenodd" clip-rule="evenodd" d="M1085.67 2059.57C1085.67 2059.57 1102.67 1969.61 1135.97 1962.94C1169.89 1956.15 1219.89 2050.32 1219.89 2050.32C1163.66 2076.06 1128.3 2076.87 1085.67 2059.57Z" fill="#EF563B" stroke="black" stroke-width="10.7689" stroke-miterlimit="1.5" stroke-linecap="round" stroke-linejoin="round"/>
<path fill-rule="evenodd" clip-rule="evenodd" d="M1153.51 1782.09L1239.16 1818.4C1239.16 1818.4 1263.45 1808.71 1248 1786.34C1232.55 1763.96 1141.1 1748.05 1141.1 1748.05L1153.51 1782.09Z" fill="#FF050B" stroke="black" stroke-width="10.7689" stroke-miterlimit="1.5" stroke-linecap="round" stroke-linejoin="round"/>
<path fill-rule="evenodd" clip-rule="evenodd" d="M833.532 1750.7C825.929 1736.97 851.99 1705.85 851.99 1705.85L865.524 1709.46L872.2 1696.07L906.637 1697.7L887.754 1756.07L899.173 1734.09L923.58 1718.63L912.711 1747.53L898.671 1786.24C898.671 1786.24 841.766 1765.56 833.532 1750.7Z" fill="#FF050B" stroke="black" stroke-width="6.99698" stroke-miterlimit="1.5" stroke-linecap="round" stroke-linejoin="round"/>
<path d="M865.84 1708.99L855.196 1743.75" stroke="black" stroke-width="6" stroke-miterlimit="1.5" stroke-linecap="round" stroke-linejoin="round"/>
<path d="M887.646 1699.95L870.934 1755.08" stroke="black" stroke-width="6" stroke-miterlimit="1.5" stroke-linecap="round" stroke-linejoin="round"/>
<path fill-rule="evenodd" clip-rule="evenodd" d="M1170.09 1804.79C1163.85 1822.57 1098.15 1846.06 1098.15 1846.06C1091.05 1836.54 1097.07 1828.39 1113.03 1821.27C1113.03 1821.27 1092.13 1798.13 1091.03 1790.82C1089.99 1783.93 1106.4 1777.41 1106.4 1777.41L1087.62 1776.35C1087.62 1776.35 1125.83 1733.66 1139.57 1738.4C1153.32 1743.14 1176.33 1787.02 1170.09 1804.79Z" fill="#FF050B" stroke="black" stroke-width="8.84991" stroke-miterlimit="1.5" stroke-linecap="round" stroke-linejoin="round"/>
<path d="M1093.98 1797.19L1141.9 1783.3" stroke="black" stroke-width="7" stroke-miterlimit="1.5" stroke-linecap="round" stroke-linejoin="round"/>
<path d="M1106.37 1808.51L1138.31 1801.94" stroke="black" stroke-width="7" stroke-miterlimit="1.5" stroke-linecap="round" stroke-linejoin="round"/>
<path d="M1105.89 1776.99C1110.08 1777.01 1118.11 1770.11 1122.14 1761.57" stroke="black" stroke-width="7" stroke-miterlimit="1.5" stroke-linecap="round" stroke-linejoin="round"/>
<path d="M1114.76 1821.25L1130.05 1816.13" stroke="black" stroke-width="7" stroke-miterlimit="1.5" stroke-linecap="round" stroke-linejoin="round"/>
<path fill-rule="evenodd" clip-rule="evenodd" d="M1114.09 1415.03C1114.09 1415.03 949.509 1528.53 949.509 1577.17C949.509 1666.66 1023.26 1739.31 1114.09 1739.31C1204.93 1739.31 1278.68 1666.66 1278.68 1577.17C1278.68 1528.53 1114.09 1415.03 1114.09 1415.03Z" fill="#FF050B" stroke="black" stroke-width="10.9937" stroke-miterlimit="1.5" stroke-linecap="round" stroke-linejoin="round"/>
<path fill-rule="evenodd" clip-rule="evenodd" d="M1096.79 1534.32L1102.07 1519.39L1123.08 1535.26L1096.79 1534.32Z" stroke="black" stroke-width="6.99698" stroke-miterlimit="1.5" stroke-linecap="round" stroke-linejoin="round"/>
<path fill-rule="evenodd" clip-rule="evenodd" d="M974.909 1553.29C951.532 1564.18 953.853 1628.17 974.656 1648.38C998.899 1671.94 1043.7 1728.46 1113.03 1720.2C1205.95 1709.13 1255.83 1651.63 1266.55 1621.08C1274.7 1597.85 1276.47 1550.44 1253.66 1543.72C1230.48 1536.9 1169 1572.39 1117.2 1576.94C1062.21 1581.76 998.286 1542.4 974.909 1553.29Z" fill="white" stroke="black" stroke-width="7.99709" stroke-miterlimit="1.5" stroke-linecap="round" stroke-linejoin="round"/>
<path fill-rule="evenodd" clip-rule="evenodd" d="M961.042 1599.28C960.902 1599.21 960.851 1599.03 960.928 1598.89C961.005 1598.76 961.177 1598.71 961.316 1598.78C978.363 1607.42 996.347 1614.65 1014.93 1620.51C1027.1 1624.35 1039.52 1627.54 1052.12 1630.08C1064.6 1632.61 1077.25 1634.43 1090 1635.58C1098.44 1636.34 1106.93 1636.82 1115.45 1636.98C1136.53 1637.37 1157.77 1635.66 1178.88 1631.34C1209.2 1625.13 1239.21 1613.75 1267.83 1595.8C1267.96 1595.72 1268.14 1595.75 1268.23 1595.88C1268.32 1596.02 1268.28 1596.19 1268.15 1596.28C1240.15 1615.84 1210.44 1629.06 1180.07 1636.6C1158.66 1641.91 1136.95 1644.47 1115.38 1644.48C1106.64 1644.48 1097.92 1644.04 1089.27 1643.16C1076.24 1641.84 1063.35 1639.56 1050.69 1636.49C1037.99 1633.41 1025.54 1629.49 1013.42 1624.86C995.079 1617.85 977.571 1609.16 961.042 1599.28Z" fill="black"/>
<path fill-rule="evenodd" clip-rule="evenodd" d="M995.097 1557.51C995.112 1557.36 995.251 1557.24 995.409 1557.25C995.567 1557.27 995.68 1557.41 995.669 1557.56C995.669 1557.56 996.094 1565.53 996.215 1577.07C996.252 1580.68 996.23 1584.6 996.131 1588.74C996.069 1591.27 995.977 1593.86 995.809 1596.49C995.614 1599.56 995.358 1602.66 995.017 1605.77C994.496 1610.46 993.792 1615.11 993.132 1619.62C992.414 1624.52 991.662 1629.18 990.959 1633.44C988.95 1645.58 987.366 1654.15 987.366 1654.15C987.355 1654.31 987.216 1654.42 987.058 1654.41C986.9 1654.39 986.783 1654.26 986.798 1654.1C986.798 1654.1 986.703 1645.39 986.794 1633.08C986.827 1628.76 986.878 1624.05 987.007 1619.09C987.124 1614.54 987.227 1609.83 987.516 1605.12C987.707 1602.01 987.986 1598.9 988.316 1595.85C988.601 1593.23 988.953 1590.65 989.324 1588.15C989.932 1584.06 990.581 1580.19 991.234 1576.64C993.319 1565.29 995.097 1557.51 995.097 1557.51Z" fill="black"/>
<path fill-rule="evenodd" clip-rule="evenodd" d="M1037.02 1569.03C1037.04 1568.87 1037.19 1568.77 1037.34 1568.79C1037.5 1568.8 1037.61 1568.95 1037.59 1569.11C1037.59 1569.11 1037.43 1578.79 1036.71 1592.73C1036.49 1597.1 1036.18 1601.85 1035.77 1606.86C1035.53 1609.91 1035.25 1613.05 1034.89 1616.24C1034.47 1619.93 1033.98 1623.69 1033.41 1627.44C1032.55 1633.1 1031.51 1638.72 1030.52 1644.15C1029.44 1650.06 1028.34 1655.69 1027.32 1660.82C1024.43 1675.44 1022.22 1685.79 1022.22 1685.79C1022.2 1685.95 1022.05 1686.06 1021.9 1686.04C1021.74 1686.02 1021.63 1685.87 1021.65 1685.72C1021.65 1685.72 1022.19 1675.15 1023.18 1660.28C1023.53 1655.06 1023.93 1649.33 1024.42 1643.35C1024.87 1637.85 1025.32 1632.14 1025.95 1626.46C1026.37 1622.69 1026.87 1618.93 1027.43 1615.25C1027.91 1612.08 1028.45 1608.98 1029 1605.96C1029.91 1601.02 1030.84 1596.36 1031.75 1592.08C1034.67 1578.43 1037.02 1569.03 1037.02 1569.03Z" fill="black"/>
<path fill-rule="evenodd" clip-rule="evenodd" d="M1104.53 1586.47C1104.53 1586.31 1104.67 1586.19 1104.82 1586.2C1104.98 1586.21 1105.11 1586.34 1105.09 1586.5C1105.09 1586.5 1105.67 1596.76 1106.01 1611.56C1106.11 1616.2 1106.16 1621.25 1106.14 1626.58C1106.13 1629.83 1106.08 1633.17 1105.96 1636.57C1105.83 1640.52 1105.63 1644.53 1105.34 1648.54C1104.91 1654.6 1104.3 1660.64 1103.72 1666.47C1103.09 1672.81 1102.42 1678.86 1101.8 1684.38C1100.02 1700.08 1098.59 1711.22 1098.59 1711.22C1098.58 1711.38 1098.45 1711.5 1098.29 1711.5C1098.13 1711.49 1098.01 1711.35 1098.02 1711.19C1098.02 1711.19 1097.76 1699.97 1097.62 1684.16C1097.58 1678.61 1097.54 1672.52 1097.58 1666.15C1097.61 1660.29 1097.63 1654.22 1097.83 1648.15C1097.96 1644.13 1098.18 1640.12 1098.45 1636.18C1098.69 1632.79 1098.99 1629.46 1099.32 1626.22C1099.85 1620.92 1100.43 1615.9 1101.01 1611.3C1102.88 1596.62 1104.53 1586.47 1104.53 1586.47Z" fill="black"/>
<path fill-rule="evenodd" clip-rule="evenodd" d="M1178.12 1566.82C1178.11 1566.67 1178.23 1566.53 1178.39 1566.52C1178.54 1566.51 1178.68 1566.63 1178.69 1566.79C1178.69 1566.79 1180.4 1576.96 1182.39 1591.68C1183 1596.3 1183.62 1601.33 1184.19 1606.65C1184.54 1609.89 1184.87 1613.23 1185.13 1616.63C1185.43 1620.59 1185.68 1624.61 1185.84 1628.65C1186.09 1634.74 1186.15 1640.83 1186.23 1646.71C1186.31 1653.11 1186.32 1659.21 1186.31 1664.79C1186.29 1680.65 1186.12 1691.92 1186.12 1691.92C1186.12 1692.08 1186.01 1692.21 1185.85 1692.22C1185.69 1692.23 1185.56 1692.11 1185.55 1691.96C1185.55 1691.96 1184.04 1680.78 1182.14 1665.03C1181.48 1659.5 1180.76 1653.43 1180.09 1647.07C1179.47 1641.23 1178.81 1635.17 1178.33 1629.09C1178.02 1625.07 1177.79 1621.04 1177.62 1617.08C1177.48 1613.67 1177.41 1610.32 1177.37 1607.05C1177.3 1601.7 1177.32 1596.64 1177.39 1591.98C1177.62 1577.13 1178.12 1566.82 1178.12 1566.82Z" fill="black"/>
<path d="M1138.29 1513.99C1163.89 1495.75 1187.64 1495.16 1209.84 1509.45" stroke="black" stroke-width="12.9227" stroke-miterlimit="1.5" stroke-linecap="round" stroke-linejoin="round"/>
<path d="M1016.09 1515.15C1041.69 1496.91 1065.44 1496.32 1087.64 1510.61" stroke="black" stroke-width="12.9227" stroke-miterlimit="1.5" stroke-linecap="round" stroke-linejoin="round"/>
<path fill-rule="evenodd" clip-rule="evenodd" d="M1084.75 1358.92C1089.3 1377.92 1084.57 1415.51 1084.57 1415.51C1084.57 1415.51 1130.62 1421.72 1142.22 1412.97C1153.81 1404.23 1154.48 1374.68 1142.94 1365.04C1131.4 1355.41 1081.36 1344.8 1084.75 1358.92Z" fill="#D8CF82" stroke="black" stroke-width="8.99719" stroke-miterlimit="1.5" stroke-linecap="round" stroke-linejoin="round"/>
<path fill-rule="evenodd" clip-rule="evenodd" d="M1079.04 1365.31C1072.2 1358.73 1048.42 1352.3 1026.16 1338.74C1003.01 1324.64 990.504 1286.48 981.493 1303.53C970.712 1323.95 944.311 1444.66 961.471 1461.23C970.994 1470.42 1081.64 1405.74 1081.64 1405.74C1081.64 1405.74 1092.98 1378.74 1079.04 1365.31Z" fill="#D8CF82" stroke="black" stroke-width="8.99719" stroke-miterlimit="1.5" stroke-linecap="round" stroke-linejoin="round"/>
<path fill-rule="evenodd" clip-rule="evenodd" d="M1082.8 1376.1L995.936 1348.72L1063.96 1383.72C1063.96 1383.72 984.824 1392.86 988.83 1394.23C992.836 1395.6 1067.6 1399.24 1067.6 1399.24L969.355 1430.93L968.802 1411.92L961.503 1458.43L1084.03 1409.84L1082.8 1376.1Z" fill="black" fill-opacity="0.3"/>
<path fill-rule="evenodd" clip-rule="evenodd" d="M1087.24 1370.14L1096.42 1375.86L1100.93 1406.64L1110.45 1389.76C1110.45 1389.76 1102.97 1408.36 1106.88 1407.5C1110.79 1406.63 1122.48 1392.13 1122.48 1392.13L1116.09 1407.06L1139.74 1405.08L1137.03 1410.33C1137.03 1410.33 1085.38 1417.75 1085.75 1415.6C1086.11 1413.43 1087.24 1370.14 1087.24 1370.14Z" fill="black" fill-opacity="0.3"/>
<path fill-rule="evenodd" clip-rule="evenodd" d="M1149.2 1365.66C1149.2 1365.66 1195.07 1357.69 1212.22 1351.1C1226.77 1345.52 1249.03 1310.27 1252.11 1326.14C1255.92 1345.67 1252.19 1455.17 1235.02 1468.29C1217.86 1481.4 1149.11 1404.82 1149.11 1404.82L1149.2 1365.66Z" fill="#D8CF82" stroke="black" stroke-width="8.99719" stroke-miterlimit="1.5" stroke-linecap="round" stroke-linejoin="round"/>
<path fill-rule="evenodd" clip-rule="evenodd" d="M1150.74 1379.67C1150.74 1379.67 1156.36 1385.33 1162.56 1382.62C1168.76 1379.9 1234.88 1369.29 1234.88 1369.29C1234.88 1369.29 1171.68 1382.43 1168.26 1389.38C1164.85 1396.33 1222.61 1426.59 1222.61 1426.59C1222.61 1426.59 1172.47 1397.67 1160.03 1392.84C1157.05 1391.68 1156.73 1396.66 1159.27 1398.6C1168.88 1405.92 1211.85 1433.39 1208 1432.28C1205.15 1431.45 1177.06 1412.43 1161.31 1405.56C1155.84 1403.17 1149.35 1407.17 1149.35 1407.17L1150.74 1379.67Z" fill="black" fill-opacity="0.3"/>
<path d="M1027.25 1551.11C1064.47 1551.11 1094.65 1521.32 1094.65 1484.57C1094.65 1447.82 1064.47 1418.03 1027.25 1418.03C990.022 1418.03 959.845 1447.82 959.845 1484.57C959.845 1521.32 990.022 1551.11 1027.25 1551.11Z" fill="#2AB6E9" fill-opacity="0.53" stroke="#FAF6B0" stroke-width="7.82396" stroke-miterlimit="1.5" stroke-linecap="round" stroke-linejoin="round"/>
<path d="M1191.18 1544.08C1228.33 1544.08 1258.44 1515.61 1258.44 1480.5C1258.44 1445.39 1228.33 1416.93 1191.18 1416.93C1154.03 1416.93 1123.92 1445.39 1123.92 1480.5C1123.92 1515.61 1154.03 1544.08 1191.18 1544.08Z" fill="#2AB6E9" fill-opacity="0.53" stroke="#FAF6B0" stroke-width="7.86764" stroke-miterlimit="1.5" stroke-linecap="round" stroke-linejoin="round"/>
<path fill-rule="evenodd" clip-rule="evenodd" d="M1204.65 1437.86C1200.5 1437.36 1183.16 1446.39 1191.21 1453.23C1199.27 1460.06 1214.04 1460.58 1216.14 1456.23C1218.23 1451.89 1208.81 1438.36 1204.65 1437.86Z" fill="white"/>
<path fill-rule="evenodd" clip-rule="evenodd" d="M1046.57 1435.43C1042.41 1434.93 1025.07 1443.97 1033.13 1450.8C1041.18 1457.63 1055.96 1458.15 1058.05 1453.81C1060.14 1449.46 1050.72 1435.93 1046.57 1435.43Z" fill="white"/>
</svg>
