<svg width="2160" height="2700" viewBox="0 0 2160 2700" fill="none" xmlns="http://www.w3.org/2000/svg">
<g clip-path="url(#clip0_2007_1911)">
<path fill-rule="evenodd" clip-rule="evenodd" d="M1266.16 180.023C1264.56 177.283 1256.51 162.436 1259.27 160.835L1272.99 171.189L1279.62 166.607L1277.1 150.395C1279.86 148.794 1289.91 166.147 1291.51 168.889L1299.57 176.827C1301.16 179.568 1300.22 183.093 1297.47 184.693L1275.99 197.169C1273.23 198.77 1269.7 197.844 1268.11 195.104L1266.16 180.023Z" fill="#FF2E33" stroke="black" stroke-width="2.72274" stroke-miterlimit="1.5" stroke-linecap="round" stroke-linejoin="round"/>
<path d="M1295.41 176.561C1295.41 176.561 1292.99 174.412 1289.82 174.747C1286.23 175.129 1281.85 178.045 1282.17 178.822C1282.78 180.279 1282.54 184.108 1282.54 184.108L1280.25 181.307C1280.25 181.307 1276.71 178.835 1273 183.522C1269.29 188.21 1269.83 191.985 1269.83 191.985" stroke="black" stroke-width="2.72351" stroke-miterlimit="1.5" stroke-linecap="round" stroke-linejoin="round"/>
<path d="M1280.18 177.158L1277.02 171.636" stroke="black" stroke-width="2.72351" stroke-miterlimit="1.5" stroke-linecap="round" stroke-linejoin="round"/>
<path d="M1282.48 172.583L1274.74 176.957" stroke="black" stroke-width="2.72351" stroke-miterlimit="1.5" stroke-linecap="round" stroke-linejoin="round"/>
<path fill-rule="evenodd" clip-rule="evenodd" d="M1283.64 251.254C1288.42 257.302 1297.21 258.334 1303.26 253.556C1305.48 258.28 1311.28 258.98 1317.34 259.387C1314.39 254.558 1311.72 249.746 1313.7 245.241L1334.12 228.971C1340.46 229.311 1343.54 230.846 1346.93 235.028C1347.51 228.402 1347.39 223.928 1343.92 221.169C1349.97 216.391 1351 207.599 1346.22 201.551L1329.5 174.165C1324.72 168.117 1315.93 167.086 1309.88 171.863L1262.73 209.112C1256.68 213.89 1255.65 222.682 1260.43 228.73L1283.64 251.254Z" fill="#FF2E33" stroke="black" stroke-width="3.0004" stroke-miterlimit="1.5" stroke-linecap="round" stroke-linejoin="round"/>
<path d="M1317.44 197.38C1314.24 199.911 1313.29 204.042 1315.31 206.609C1317.34 209.175 1321.58 209.204 1324.79 206.674C1327.99 204.143 1328.94 200.011 1326.92 197.445C1324.89 194.879 1320.65 194.85 1317.44 197.38Z" fill="black" stroke="black" stroke-width="4.08527" stroke-miterlimit="1.5" stroke-linecap="round" stroke-linejoin="round"/>
<path d="M1287.01 222.805C1283.81 225.335 1282.85 229.467 1284.88 232.034C1286.91 234.6 1291.15 234.629 1294.35 232.099C1297.56 229.568 1298.51 225.436 1296.48 222.87C1294.45 220.303 1290.21 220.274 1287.01 222.805Z" fill="black" stroke="black" stroke-width="4.08527" stroke-miterlimit="1.5" stroke-linecap="round" stroke-linejoin="round"/>
<path d="M1301.15 227.498L1292.78 243.83" stroke="black" stroke-width="4.08527" stroke-miterlimit="1.5" stroke-linecap="round" stroke-linejoin="round"/>
<path d="M1337.07 212.131L1319.65 211.934" stroke="black" stroke-width="4.08527" stroke-miterlimit="1.5" stroke-linecap="round" stroke-linejoin="round"/>
<path d="M1300.93 206.117L1299.55 210.298" stroke="black" stroke-width="4.08527" stroke-miterlimit="1.5" stroke-linecap="round" stroke-linejoin="round"/>
<path fill-rule="evenodd" clip-rule="evenodd" d="M1304.29 186.703C1289.49 197.847 1276.55 210.694 1275.23 225.638L1304.29 186.703Z" fill="#FF2E33"/>
<path d="M1304.29 186.703C1289.49 197.847 1276.55 210.694 1275.23 225.638" stroke="black" stroke-width="2.72351" stroke-miterlimit="1.5" stroke-linecap="round" stroke-linejoin="round"/>
<path fill-rule="evenodd" clip-rule="evenodd" d="M1290.66 256.179L1300.09 256.219L1314.68 259.83L1313.69 244.473L1324.84 234.843C1320.39 238.437 1298.42 247.562 1292.24 244.642C1281.75 239.04 1262.88 231.241 1261.54 216.669L1282.14 192.207L1265.74 196.646L1274.57 197.985C1268.5 203.689 1254.13 212.188 1256.38 225.993L1290.66 256.179Z" fill="black" fill-opacity="0.3"/>
<path d="M1291.69 162.799C1287.87 165.014 1286.16 169.18 1287.86 172.104C1289.56 175.028 1294.02 175.603 1297.84 173.388C1301.65 171.173 1303.37 167.007 1301.67 164.083C1299.97 161.158 1295.5 160.584 1291.69 162.799Z" fill="#D50409" stroke="black" stroke-width="3.17743" stroke-miterlimit="1.5" stroke-linecap="round" stroke-linejoin="round"/>
<path d="M1262.33 186.751C1258.51 188.966 1256.8 193.132 1258.5 196.056C1260.2 198.98 1264.67 199.555 1268.48 197.34C1272.29 195.125 1274.01 190.959 1272.31 188.035C1270.61 185.111 1266.14 184.536 1262.33 186.751Z" fill="#D50409" stroke="black" stroke-width="3.17743" stroke-miterlimit="1.5" stroke-linecap="round" stroke-linejoin="round"/>
<path fill-rule="evenodd" clip-rule="evenodd" d="M1265.41 195.393C1265.41 195.393 1262.45 196.288 1261.82 195.567C1261.19 194.843 1261.65 191.06 1261.65 191.06C1262.23 193.495 1263.46 194.967 1265.41 195.393Z" fill="white"/>
<path fill-rule="evenodd" clip-rule="evenodd" d="M1293.9 223.995C1293.9 223.995 1292.66 224.811 1292.03 224.35C1291.28 223.804 1291.65 222.248 1291.65 222.248C1293.6 221.705 1294.56 222.095 1293.9 223.995Z" fill="white"/>
<path fill-rule="evenodd" clip-rule="evenodd" d="M1323.35 198.501C1323.35 198.501 1322.1 199.317 1321.47 198.856C1320.72 198.31 1321.1 196.754 1321.1 196.754C1323.05 196.211 1324 196.601 1323.35 198.501Z" fill="white"/>
<path fill-rule="evenodd" clip-rule="evenodd" d="M1294.57 171.55C1294.57 171.55 1291.61 172.445 1290.98 171.724C1290.36 171 1290.82 167.217 1290.82 167.217C1291.4 169.652 1292.63 171.124 1294.57 171.55Z" fill="white"/>
<path fill-rule="evenodd" clip-rule="evenodd" d="M1287.97 162.568L1284.64 156.611L1280.15 158.595L1274.89 165.011L1264.44 166.895L1260.75 169.616L1264.16 175.988L1287.97 162.568Z" fill="#AB0307" stroke="black" stroke-width="3.17743" stroke-miterlimit="1.5" stroke-linecap="round" stroke-linejoin="round"/>
<path fill-rule="evenodd" clip-rule="evenodd" d="M456.9 2502.16C457.199 2502.64 457.986 2503.38 459.063 2504.27C460.024 2505.07 463.469 2500.73 464.179 2502.18C467.696 2509.41 474.886 2516.33 473.091 2517.45L459.042 2507.56L452.558 2512.35L455.617 2528.47C453.439 2529.84 451.003 2520.33 446.514 2514.18C446.022 2513.5 450.328 2511.73 451.305 2509.98C452.253 2508.29 450.214 2506.48 450.053 2506.22L441.229 2511.29L432.284 2502.8C430.603 2500.11 431.431 2496.56 434.131 2494.87L455.186 2481.69C457.887 2480 461.445 2480.81 463.127 2483.49L464.166 2495.02L456.9 2502.16Z" fill="white" stroke="black" stroke-width="2.72275" stroke-miterlimit="1.5" stroke-linecap="round" stroke-linejoin="round"/>
<path d="M437.073 2504.29C437.073 2504.29 439.872 2506.26 443.025 2505.59C446.599 2504.82 450.528 2499.54 450.528 2499.54C450.528 2499.54 455.621 2500 458.61 2494.76C461.6 2489.52 460.436 2485.66 460.436 2485.66" stroke="black" stroke-width="2.8114" stroke-miterlimit="1.5" stroke-linecap="round" stroke-linejoin="round"/>
<path d="M434.463 2500.58C434.463 2500.58 437.116 2502.44 440.226 2501.73C443.751 2500.94 447.812 2495.79 447.812 2495.79C447.812 2495.79 452.771 2496.14 455.912 2491.06C459.053 2485.97 458.077 2482.28 458.077 2482.28" stroke="black" stroke-width="2.72351" stroke-miterlimit="1.5" stroke-linecap="round" stroke-linejoin="round"/>
<path d="M432.125 2497.07C432.125 2497.07 434.787 2498.91 437.893 2498.19C441.415 2497.38 445.451 2492.21 445.451 2492.21C445.451 2492.21 450.411 2492.54 453.527 2487.44C456.644 2482.34 455.65 2478.65 455.65 2478.65" stroke="black" stroke-width="2.72351" stroke-miterlimit="1.5" stroke-linecap="round" stroke-linejoin="round"/>
<path d="M451.656 2501.83L454.991 2507.24" stroke="black" stroke-width="2.72351" stroke-miterlimit="1.5" stroke-linecap="round" stroke-linejoin="round"/>
<path d="M449.508 2506.47L457.097 2501.85" stroke="black" stroke-width="2.72351" stroke-miterlimit="1.5" stroke-linecap="round" stroke-linejoin="round"/>
<path fill-rule="evenodd" clip-rule="evenodd" d="M445.75 2427.89C440.776 2422 437.694 2422.91 431.438 2422.84C418.437 2422.7 385.797 2445.18 381.517 2462.52C379.524 2470.6 379.873 2473.74 384.847 2479.62L396.083 2493.22L405.722 2504.23C410.696 2510.12 416.252 2513.07 422.14 2508.1L468.039 2469.32C473.927 2464.34 470.615 2459.6 465.64 2453.71L457.194 2440.66L445.75 2427.89Z" fill="white" stroke="black" stroke-width="3.0004" stroke-miterlimit="1.5" stroke-linecap="round" stroke-linejoin="round"/>
<path d="M413.743 2482.84C416.861 2480.21 417.678 2476.05 415.567 2473.55C413.456 2471.05 409.217 2471.16 406.099 2473.8C402.981 2476.43 402.164 2480.59 404.275 2483.09C406.386 2485.59 410.625 2485.48 413.743 2482.84Z" fill="black" stroke="black" stroke-width="4.08527" stroke-miterlimit="1.5" stroke-linecap="round" stroke-linejoin="round"/>
<path d="M443.321 2456.43C446.439 2453.8 447.256 2449.63 445.145 2447.14C443.035 2444.64 438.796 2444.75 435.677 2447.38C432.559 2450.02 431.742 2454.18 433.853 2456.68C435.964 2459.18 440.203 2459.07 443.321 2456.43Z" fill="black" stroke="black" stroke-width="4.08527" stroke-miterlimit="1.5" stroke-linecap="round" stroke-linejoin="round"/>
<path fill-rule="evenodd" clip-rule="evenodd" d="M426.386 2447.49C428.125 2441.01 432.635 2436.72 440.709 2435.24L426.386 2447.49Z" fill="#E5DFAB"/>
<path d="M426.386 2447.49C428.125 2441.01 432.635 2436.72 440.709 2435.24" stroke="black" stroke-width="4.08527" stroke-miterlimit="1.5" stroke-linecap="round" stroke-linejoin="round"/>
<path fill-rule="evenodd" clip-rule="evenodd" d="M395.411 2474.34C395.12 2468.57 400.471 2465.22 408.962 2463.22L395.411 2474.34Z" fill="#E5DFAB"/>
<path d="M395.411 2474.34C395.12 2468.57 400.471 2465.22 408.962 2463.22" stroke="black" stroke-width="4.08527" stroke-miterlimit="1.5" stroke-linecap="round" stroke-linejoin="round"/>
<path fill-rule="evenodd" clip-rule="evenodd" d="M429.959 2473.57L429.486 2468.35L434.252 2470.09" fill="#E5DFAB"/>
<path d="M429.959 2473.57L429.486 2468.35L434.252 2470.09" stroke="black" stroke-width="4.08527" stroke-miterlimit="1.5" stroke-linecap="round" stroke-linejoin="round"/>
<path d="M398.141 2495L408.974 2502.01L421.21 2486.38L425.357 2493.26L455.269 2467.79L449.024 2463.18L463.658 2452.33L458.052 2442.88" stroke="black" stroke-width="2.72351" stroke-miterlimit="1.5" stroke-linecap="round" stroke-linejoin="round"/>
<path d="M418.969 2490.79L419.949 2493.97L422.745 2491.75L421.641 2488.99" stroke="black" stroke-width="3.50001" stroke-miterlimit="1.5" stroke-linecap="round" stroke-linejoin="round"/>
<path d="M451.82 2463.45L454.678 2464.87L456.602 2463.99L453.466 2461" stroke="black" stroke-width="3.5" stroke-miterlimit="1.5" stroke-linecap="round" stroke-linejoin="round"/>
<path d="M433.812 2491.58L428.019 2484.82" stroke="black" stroke-width="3.5" stroke-miterlimit="1.5" stroke-linecap="round" stroke-linejoin="round"/>
<path d="M439.949 2486.03L434.156 2479.28" stroke="black" stroke-width="3.5" stroke-miterlimit="1.5" stroke-linecap="round" stroke-linejoin="round"/>
<path d="M445.917 2481.13L440.125 2474.37" stroke="black" stroke-width="3.5" stroke-miterlimit="1.5" stroke-linecap="round" stroke-linejoin="round"/>
<path d="M451.316 2476.47L445.523 2469.71" stroke="black" stroke-width="3.5" stroke-miterlimit="1.5" stroke-linecap="round" stroke-linejoin="round"/>
<path fill-rule="evenodd" clip-rule="evenodd" d="M379.945 2469.82L388.572 2450.54C384.397 2454.44 385.716 2466.85 387.752 2473.39C391.386 2483.3 400.948 2494.16 413.025 2498.8C414.543 2499.38 416.914 2491.24 418.506 2491.62C417.801 2497.63 418.136 2502.51 422.412 2503.13L441.969 2490.6L454.731 2528.25L432.354 2501.8C425.863 2507.02 423.06 2512.82 409.699 2508.68L379.945 2469.82Z" fill="black" fill-opacity="0.3"/>
<path d="M440.628 2516.56C444.367 2514.22 445.943 2510 444.149 2507.13C442.355 2504.27 437.87 2503.84 434.132 2506.18C430.394 2508.52 428.818 2512.74 430.612 2515.6C432.406 2518.47 436.89 2518.9 440.628 2516.56Z" fill="#D50409" stroke="black" stroke-width="3.17743" stroke-miterlimit="1.5" stroke-linecap="round" stroke-linejoin="round"/>
<path d="M469.183 2491.65C472.921 2489.31 474.497 2485.09 472.703 2482.23C470.909 2479.36 466.425 2478.93 462.687 2481.27C458.948 2483.61 457.372 2487.83 459.166 2490.7C460.96 2493.56 465.445 2493.99 469.183 2491.65Z" fill="#D50409" stroke="black" stroke-width="3.17743" stroke-miterlimit="1.5" stroke-linecap="round" stroke-linejoin="round"/>
<path fill-rule="evenodd" clip-rule="evenodd" d="M465.82 2483.12C465.82 2483.12 468.749 2482.12 469.402 2482.82C470.05 2483.53 469.717 2487.32 469.717 2487.32C469.057 2484.91 467.776 2483.48 465.82 2483.12Z" fill="white"/>
<path fill-rule="evenodd" clip-rule="evenodd" d="M440.504 2447.1C440.504 2447.1 441.724 2446.25 442.369 2446.69C443.135 2447.21 442.814 2448.77 442.814 2448.77C440.881 2449.38 439.912 2449.02 440.504 2447.1Z" fill="white"/>
<path fill-rule="evenodd" clip-rule="evenodd" d="M412.196 2472.49C412.196 2472.49 413.416 2471.64 414.061 2472.08C414.826 2472.6 414.505 2474.16 414.505 2474.16C412.572 2474.77 411.603 2474.41 412.196 2472.49Z" fill="white"/>
<path fill-rule="evenodd" clip-rule="evenodd" d="M437.453 2507.91C437.453 2507.91 440.382 2506.91 441.035 2507.61C441.683 2508.32 441.35 2512.11 441.35 2512.11C440.69 2509.7 439.409 2508.27 437.453 2507.91Z" fill="white"/>
<path fill-rule="evenodd" clip-rule="evenodd" d="M444.346 2516.67L447.869 2522.51L452.292 2520.38L457.338 2513.79L467.725 2511.57L471.323 2508.73L467.708 2502.47L444.346 2516.67Z" fill="#AB0307" stroke="black" stroke-width="3.17743" stroke-miterlimit="1.5" stroke-linecap="round" stroke-linejoin="round"/>
<path fill-rule="evenodd" clip-rule="evenodd" d="M1291.7 907.667L1297.22 899.371L1290.99 895.233L1298.42 884.061L1304.65 888.2L1308.28 882.736L1322.97 892.504L1319.17 898.211L1324.47 901.727L1317.47 912.241L1312.18 908.724L1306.29 917.579L1339.79 938.253L1328.76 934.632L1387.03 964.642C1401.8 973.614 1406.51 992.9 1397.54 1007.68L1367.43 1057.25L1375.07 1047.96L1376.08 1046.56C1376.03 1046.68 1375.98 1046.8 1375.92 1046.92L1379.03 1043.14C1382.53 1038.88 1388.19 1037.43 1393.11 1039.06C1393.59 1038.33 1394.11 1037.61 1394.68 1036.91C1400.96 1029.28 1410.81 1026.99 1416.66 1031.8C1422.52 1036.61 1422.18 1046.72 1415.9 1054.36C1413.47 1057.31 1410.5 1059.47 1407.43 1060.72L1413.11 1071.49C1415.53 1073.47 1422.41 1079.41 1428.97 1085.91L1432.62 1089.13L1432.43 1089.42C1439.31 1096.63 1444.78 1103.77 1442.6 1106.43L1422.48 1100.42L1406.5 1109.88L1402.17 1122.48L1413.3 1142.32C1411.22 1144.85 1402.79 1140.22 1393.75 1134.01L1392.57 1135.16L1380.92 1125.24L1381.24 1124.86C1379.62 1123.61 1378.07 1122.4 1376.65 1121.28C1375.83 1123.49 1374.59 1125.67 1372.94 1127.67C1366.66 1135.31 1356.81 1137.6 1350.96 1132.78C1345.1 1127.97 1345.44 1117.86 1351.72 1110.23C1352.33 1109.49 1352.97 1108.8 1353.64 1108.16L1352.75 1107.65L1346.69 1104.94L1331.24 1116.84L1327.59 1122.86C1322.31 1131.54 1313.48 1136.75 1304.1 1137.74L1303.03 1138.57C1302.35 1138.36 1301.66 1138.14 1300.97 1137.92C1295.37 1137.96 1289.69 1136.49 1284.55 1133.37L1276.59 1127.97C1254.04 1117.13 1228.95 1101.15 1204.94 1083.02L1199.27 1093.1L1204.8 1096.21L1198.61 1107.21L1193.08 1104.1L1189.72 1110.07L1174.34 1101.42L1177.56 1095.7L1171.05 1092.03L1177.62 1080.34L1184.14 1084.01L1189.74 1074.04L1112.32 1030.55L1135.84 987.113L1161.1 948.388L1175.4 948.794L1169.67 935.253L1180.54 939.621L1179.81 919.697L1220.97 856.601L1291.7 907.667ZM1406.03 1095.51L1405.67 1095.4L1403.49 1098.52L1406.03 1095.51Z" fill="black" fill-opacity="0.2"/>
<path fill-rule="evenodd" clip-rule="evenodd" d="M1481.58 953.985C1487.07 958.499 1515.6 983.404 1511.06 988.927L1474.14 977.899L1463.77 992.723L1481.76 1024.82C1477.22 1030.34 1442.5 1001.74 1437.01 997.226L1413.84 986.852C1408.35 982.338 1407.58 974.19 1412.12 968.671L1447.5 925.642C1452.03 920.123 1460.18 919.306 1465.67 923.82L1481.58 953.985Z" fill="#42AB84" stroke="black" stroke-width="5.50203" stroke-miterlimit="1.5" stroke-linecap="round" stroke-linejoin="round"/>
<path d="M1422.79 984.159C1422.79 984.159 1429.56 986.782 1435.96 983.597C1443.22 979.981 1450.14 970.424 1448.85 969.046C1446.43 966.462 1443.95 958.219 1443.95 958.219L1450.95 962.316C1450.95 962.316 1460.32 964.744 1464.45 951.987C1468.59 939.23 1464.5 931.717 1464.5 931.717" stroke="black" stroke-width="4.99845" stroke-miterlimit="1.5" stroke-linecap="round" stroke-linejoin="round"/>
<path d="M1454.35 970.983L1465.3 980.119" stroke="black" stroke-width="6.10809" stroke-miterlimit="1.5" stroke-linecap="round" stroke-linejoin="round"/>
<path d="M1453.09 982.395L1465.93 967.146" stroke="black" stroke-width="6.10809" stroke-miterlimit="1.5" stroke-linecap="round" stroke-linejoin="round"/>
<path fill-rule="evenodd" clip-rule="evenodd" d="M1392.06 814.474C1377.28 805.496 1308.64 754.1 1289.96 791.14L1229.87 891.017C1209.71 921.439 1277.12 965.407 1291.9 974.38L1353.02 1015.87C1367.79 1024.84 1387.08 1020.13 1396.05 1005.36L1466.01 890.17C1474.98 875.395 1470.27 856.109 1455.49 847.136L1392.06 814.474Z" fill="#42AB84" stroke="black" stroke-width="4.49963" stroke-miterlimit="1.5" stroke-linecap="round" stroke-linejoin="round"/>
<path d="M1265.44 943.834C1292.9 897.919 1319.27 842.387 1349.75 793.398" stroke="black" stroke-width="2.98926" stroke-miterlimit="1.5" stroke-linecap="round" stroke-linejoin="round"/>
<path d="M1266.47 930.911L1275.53 935.028" stroke="black" stroke-width="2.98926" stroke-miterlimit="1.5" stroke-linecap="round" stroke-linejoin="round"/>
<path d="M1275.05 915.161L1282.39 921.888" stroke="black" stroke-width="2.98926" stroke-miterlimit="1.5" stroke-linecap="round" stroke-linejoin="round"/>
<path d="M1285.58 897.99L1295.27 900.26" stroke="black" stroke-width="2.98926" stroke-miterlimit="1.5" stroke-linecap="round" stroke-linejoin="round"/>
<path d="M1293.29 884.374L1302.98 886.644" stroke="black" stroke-width="2.98926" stroke-miterlimit="1.5" stroke-linecap="round" stroke-linejoin="round"/>
<path d="M1298.53 872.887L1307.44 877.33" stroke="black" stroke-width="2.98926" stroke-miterlimit="1.5" stroke-linecap="round" stroke-linejoin="round"/>
<path d="M1304.91 859.828L1312.14 866.676" stroke="black" stroke-width="2.98926" stroke-miterlimit="1.5" stroke-linecap="round" stroke-linejoin="round"/>
<path d="M1313.55 849.687L1320.77 856.534" stroke="black" stroke-width="2.98926" stroke-miterlimit="1.5" stroke-linecap="round" stroke-linejoin="round"/>
<path d="M1317.41 838.64L1327.25 840.144" stroke="black" stroke-width="2.98926" stroke-miterlimit="1.5" stroke-linecap="round" stroke-linejoin="round"/>
<path d="M1327.21 824.84L1335.28 830.655" stroke="black" stroke-width="2.98926" stroke-miterlimit="1.5" stroke-linecap="round" stroke-linejoin="round"/>
<path d="M1330.29 816.134L1340.22 816.89" stroke="black" stroke-width="2.98926" stroke-miterlimit="1.5" stroke-linecap="round" stroke-linejoin="round"/>
<path d="M1340.74 801.115L1346.43 809.282" stroke="black" stroke-width="2.98926" stroke-miterlimit="1.5" stroke-linecap="round" stroke-linejoin="round"/>
<path d="M1306.39 983.543C1292.64 941.837 1280.04 898.683 1269.6 852.82" stroke="black" stroke-width="2.98926" stroke-miterlimit="1.5" stroke-linecap="round" stroke-linejoin="round"/>
<path d="M1297.99 973.664L1307.32 970.179" stroke="black" stroke-width="2.98926" stroke-miterlimit="1.5" stroke-linecap="round" stroke-linejoin="round"/>
<path d="M1292.94 956.453L1302.89 956.036" stroke="black" stroke-width="2.98926" stroke-miterlimit="1.5" stroke-linecap="round" stroke-linejoin="round"/>
<path d="M1290.14 943.65L1297.2 936.637" stroke="black" stroke-width="2.98926" stroke-miterlimit="1.5" stroke-linecap="round" stroke-linejoin="round"/>
<path d="M1288.27 936.857L1296.74 931.621" stroke="black" stroke-width="2.98926" stroke-miterlimit="1.5" stroke-linecap="round" stroke-linejoin="round"/>
<path d="M1284.11 921.777L1292.58 916.54" stroke="black" stroke-width="2.98926" stroke-miterlimit="1.5" stroke-linecap="round" stroke-linejoin="round"/>
<path d="M1279.71 909.941L1289.15 906.798" stroke="black" stroke-width="2.98926" stroke-miterlimit="1.5" stroke-linecap="round" stroke-linejoin="round"/>
<path d="M1275.01 896.188L1284.96 895.935" stroke="black" stroke-width="2.98926" stroke-miterlimit="1.5" stroke-linecap="round" stroke-linejoin="round"/>
<path d="M1273.96 882.907L1283.91 882.654" stroke="black" stroke-width="2.98926" stroke-miterlimit="1.5" stroke-linecap="round" stroke-linejoin="round"/>
<path d="M1268.9 872.357L1276.93 866.474" stroke="black" stroke-width="2.98926" stroke-miterlimit="1.5" stroke-linecap="round" stroke-linejoin="round"/>
<path d="M1276.1 960.718L1260.73 952.068L1242.81 983.915L1258.18 992.564L1276.1 960.718Z" fill="#8D8D8D" stroke="black" stroke-width="3.78498" stroke-miterlimit="1.5" stroke-linecap="round" stroke-linejoin="round"/>
<path d="M1258.7 969.944L1246.08 962.844L1239.5 974.534L1252.12 981.635L1258.7 969.944Z" fill="#E7E7E7" stroke="black" stroke-width="2.07777" stroke-miterlimit="1.5" stroke-linecap="round" stroke-linejoin="round"/>
<path d="M1273.27 978.708L1264.86 973.977L1258.67 984.979L1267.08 989.711L1273.27 978.708Z" fill="#505050" stroke="black" stroke-width="1.64545" stroke-miterlimit="1.5" stroke-linecap="round" stroke-linejoin="round"/>
<path d="M1265.31 973.78L1254.45 967.665L1247.96 979.192L1258.83 985.307L1265.31 973.78Z" fill="#BABABA" stroke="black" stroke-width="1.91464" stroke-miterlimit="1.5" stroke-linecap="round" stroke-linejoin="round"/>
<path d="M1371.19 805.434L1356.5 795.666L1376.74 765.239L1391.43 775.008L1371.19 805.434Z" fill="#8D8D8D" stroke="black" stroke-width="3.78498" stroke-miterlimit="1.5" stroke-linecap="round" stroke-linejoin="round"/>
<path d="M1371.51 785.745L1359.45 777.727L1366.88 766.557L1378.94 774.576L1371.51 785.745Z" fill="#E7E7E7" stroke="black" stroke-width="2.07777" stroke-miterlimit="1.5" stroke-linecap="round" stroke-linejoin="round"/>
<path d="M1385.94 794.742L1377.9 789.398L1384.89 778.887L1392.93 784.23L1385.94 794.742Z" fill="#505050" stroke="black" stroke-width="1.64545" stroke-miterlimit="1.5" stroke-linecap="round" stroke-linejoin="round"/>
<path d="M1377.93 789.895L1367.55 782.989L1374.87 771.976L1385.25 778.882L1377.93 789.895Z" fill="#BABABA" stroke="black" stroke-width="1.91464" stroke-miterlimit="1.5" stroke-linecap="round" stroke-linejoin="round"/>
<path d="M1360.19 957.64C1364.95 949.814 1363.72 940.384 1357.45 936.577C1351.18 932.769 1342.24 936.026 1337.49 943.852C1332.74 951.677 1333.97 961.107 1340.24 964.915C1346.51 968.722 1355.44 965.465 1360.19 957.64Z" fill="black" stroke="black" stroke-width="9.16214" stroke-miterlimit="1.5" stroke-linecap="round" stroke-linejoin="round"/>
<path d="M1404.26 880.389C1409.01 872.563 1407.78 863.133 1401.51 859.326C1395.25 855.518 1386.31 858.775 1381.56 866.601C1376.81 874.426 1378.04 883.856 1384.3 887.664C1390.57 891.471 1399.51 888.214 1404.26 880.389Z" fill="black" stroke="black" stroke-width="9.16214" stroke-miterlimit="1.5" stroke-linecap="round" stroke-linejoin="round"/>
<path fill-rule="evenodd" clip-rule="evenodd" d="M1374.2 835.118C1374.73 835.106 1375.06 834.366 1375.59 834.355C1376.09 834.346 1395.93 835.76 1397.7 835.883C1399.88 836.039 1400.11 838.214 1399.56 839.184C1396.85 844.086 1384.92 865.213 1377.34 877.462C1370.57 888.371 1362.35 900.585 1361.01 902.571C1359.6 904.68 1356.15 904.263 1355.57 901.558C1353.25 890.668 1353.71 890.55 1353.25 889.699C1351.84 887.08 1348.92 885.62 1346.78 883.566C1346.72 883.506 1337.05 874.227 1337.05 874.227C1336.95 873.813 1336.66 873.277 1336.94 872.957C1337.21 872.632 1337.85 872.608 1338.21 872.847C1338.68 873.155 1356.66 886.687 1356.97 886.982C1357.24 887.227 1357.38 887.495 1357.41 887.548C1357.88 888.413 1357.49 888.5 1358.48 899.81C1361.08 893.944 1363.08 887.837 1365.69 881.976C1365.75 881.835 1371.68 871.99 1376.57 864.526C1378.76 861.184 1380.76 857.708 1383.18 854.517C1387.34 849.003 1392.1 843.964 1396.25 838.459L1374.2 835.118Z" fill="black"/>
<path fill-rule="evenodd" clip-rule="evenodd" d="M1312.43 874.58C1312.99 874.882 1313.76 874.36 1314.32 874.653C1318.09 876.659 1321.58 879.139 1325.23 881.376C1339.03 889.83 1339.01 889.874 1353.3 897.474C1358.81 900.403 1358.86 900.339 1359.17 900.693C1359.84 901.465 1359.61 902.52 1359.41 902.86C1359.17 903.265 1346.77 923.568 1339.72 934.152C1332.86 944.469 1324.71 954.981 1323.6 956.433C1322.57 957.773 1321.53 959.108 1320.47 960.433C1319.87 961.188 1318.39 961.646 1317.31 960.812C1317.14 960.67 1305.44 950.685 1305.43 950.615C1305.32 950.205 1304.99 949.693 1305.23 949.343C1305.49 949.008 1306.12 948.964 1306.5 949.16C1310.36 951.108 1313.87 953.704 1317.72 955.652C1318.32 954.646 1326.46 940.118 1333.97 929.599C1334.62 928.685 1335.28 927.775 1335.95 926.871C1342.75 917.687 1342.85 917.759 1354.87 902.226C1339.95 892.117 1340.13 891.853 1331.36 886.682C1314.81 876.927 1314.7 877.101 1313.32 876.17C1312.82 875.827 1312.94 874.923 1312.43 874.58Z" fill="black"/>
<path d="M1386.23 926.62L1388.21 920.031" stroke="black" stroke-width="9.16214" stroke-miterlimit="1.5" stroke-linecap="round" stroke-linejoin="round"/>
<path fill-rule="evenodd" clip-rule="evenodd" d="M1360.8 1004.56C1378.05 964.455 1429.39 887.593 1448 862.475L1360.8 1004.56Z" fill="#42AB84"/>
<path d="M1360.8 1004.56C1378.05 964.455 1429.39 887.593 1448 862.475" stroke="black" stroke-width="6.10809" stroke-miterlimit="1.5" stroke-linecap="round" stroke-linejoin="round"/>
<path fill-rule="evenodd" clip-rule="evenodd" d="M1294.74 971.696L1271.63 952.694L1231.84 920.088C1230.17 912.672 1227.86 905.23 1241.59 898.857L1240.33 888.449L1251.19 885.849C1249.16 876.116 1252 869.193 1264.47 867.852C1264.47 867.852 1264.29 860.695 1304.99 861.599L1272.13 852.025C1272.13 852.025 1279.27 839.257 1290.01 845.427L1281.15 831.168L1298.48 840.601C1292.98 831.142 1290.19 821.483 1295.31 811.249L1295.47 797.007L1312.9 786.735L1330.12 783.673L1382.5 812.302L1408.25 820.746L1368.75 796.372L1289.43 739.106L1248.27 802.199L1249 822.118L1238.12 817.748L1243.86 831.285L1229.56 830.887L1204.3 869.609L1180.78 913.043L1277.25 967.24L1310.47 986.485L1294.74 971.696Z" fill="#292929" stroke="black" stroke-width="6.10809" stroke-miterlimit="1.5" stroke-linecap="round" stroke-linejoin="round"/>
<path fill-rule="evenodd" clip-rule="evenodd" d="M1324.89 789.341C1320.97 795.381 1317.89 803.481 1314.84 811.671C1319.61 805.391 1324.28 798.891 1332.72 800.881C1344.08 795.941 1349.92 800.131 1354.41 806.531L1347.69 829.651C1354.11 816.441 1360.16 809.141 1365.37 815.431C1375.19 814.581 1379.57 817.781 1377.95 825.441L1366.43 835.391L1400.97 835.841L1395.16 850.971C1406.7 852.691 1419.98 844.861 1419.23 860.621C1422.85 865.701 1439.05 878.431 1447.44 855.261C1463.52 862.311 1465.61 873.151 1462.57 885.391L1465.73 858.901C1408.25 828.981 1352.24 797.391 1305.56 755.171L1324.89 789.341Z" fill="white" fill-opacity="0.3"/>
<path fill-rule="evenodd" clip-rule="evenodd" d="M1212.45 912.16C1220.89 912.35 1236.79 883.601 1242.61 895.841C1274.37 962.671 1297.82 938.131 1309.84 949.631L1333.98 976.041C1342.83 982.681 1351.15 980.301 1359.07 971.321C1358.86 979.801 1358.11 988.181 1355.83 996.301C1357.2 1009.51 1364.56 1012.63 1380.4 1001.46C1392.2 993.141 1398.15 984.831 1406.52 981.981L1444.54 929.051C1436.35 948.541 1429.44 967.411 1433.59 981.031L1460.77 1012.58L1415.7 987.021L1371.49 1021.06C1325.13 1006.88 1256.78 957.851 1212.45 912.16Z" fill="black" fill-opacity="0.3"/>
<path d="M1441.4 1010.17C1447.68 1002.53 1448.02 992.429 1442.16 987.613C1436.3 982.797 1426.46 985.085 1420.18 992.725C1413.9 1000.36 1413.56 1010.46 1419.42 1015.28C1425.27 1020.1 1435.11 1017.81 1441.4 1010.17Z" fill="#D50409" stroke="black" stroke-width="7.1261" stroke-miterlimit="1.5" stroke-linecap="round" stroke-linejoin="round"/>
<path d="M1484.36 936.849C1490.64 929.209 1490.98 919.111 1485.13 914.295C1479.27 909.478 1469.43 911.767 1463.15 919.406C1456.87 927.046 1456.52 937.144 1462.38 941.96C1468.24 946.777 1478.08 944.488 1484.36 936.849Z" fill="#D50409" stroke="black" stroke-width="7.1261" stroke-miterlimit="1.5" stroke-linecap="round" stroke-linejoin="round"/>
<path fill-rule="evenodd" clip-rule="evenodd" d="M1471.12 921.096C1471.12 921.096 1476.65 916.897 1478.53 917.921C1480.41 918.953 1482.41 927.263 1482.41 927.263C1479.29 922.599 1475.54 920.469 1471.12 921.096Z" fill="white"/>
<path fill-rule="evenodd" clip-rule="evenodd" d="M1383.36 865.894C1383.36 865.894 1385.35 863.202 1387.03 863.679C1389.03 864.241 1389.47 867.801 1389.47 867.801C1385.79 870.471 1383.47 870.399 1383.36 865.894Z" fill="white"/>
<path fill-rule="evenodd" clip-rule="evenodd" d="M1343.37 940.975C1343.37 940.975 1345.36 938.283 1347.04 938.76C1349.04 939.322 1349.48 942.883 1349.48 942.883C1345.8 945.552 1343.48 945.48 1343.37 940.975Z" fill="white"/>
<path fill-rule="evenodd" clip-rule="evenodd" d="M1428.47 994.034C1428.47 994.034 1433.99 989.836 1435.88 990.859C1437.76 991.891 1439.76 1000.2 1439.76 1000.2C1436.63 995.538 1432.89 993.408 1428.47 994.034Z" fill="white"/>
<path fill-rule="evenodd" clip-rule="evenodd" d="M1449.38 1007.75L1461.04 1017.66L1468.93 1009.98L1474.96 992.376L1495.46 980.235L1501.09 971.629L1488.94 960.902L1449.38 1007.75Z" fill="#AB0307" stroke="black" stroke-width="7.1261" stroke-miterlimit="1.5" stroke-linecap="round" stroke-linejoin="round"/>
<path fill-rule="evenodd" clip-rule="evenodd" d="M1134.9 318.792C1139.13 317.919 1161.82 313.936 1162.7 318.194L1143.37 331.452L1146.42 342.023L1168.48 345.775C1169.36 350.034 1142.56 355.531 1138.33 356.404L1124.56 363.399C1120.33 364.272 1116.18 361.524 1115.3 357.268L1108.46 324.085C1107.59 319.829 1110.31 315.664 1114.55 314.791L1134.9 318.792Z" fill="#FFD1B2" stroke="black" stroke-width="3.7139" stroke-miterlimit="1.5" stroke-linecap="round" stroke-linejoin="round"/>
<path d="M1126.71 358.135C1126.71 358.135 1130.53 355.936 1131.47 351.691C1132.54 346.876 1130.66 339.948 1129.51 340.033C1127.37 340.191 1122.52 338.212 1122.52 338.212L1127.13 336.465C1127.13 336.465 1131.86 332.962 1127.41 326.129C1122.95 319.297 1117.83 318.36 1117.83 318.36" stroke="black" stroke-width="3.71495" stroke-miterlimit="1.5" stroke-linecap="round" stroke-linejoin="round"/>
<path d="M1132.53 338.172L1141.04 336.482" stroke="black" stroke-width="3.71495" stroke-miterlimit="1.5" stroke-linecap="round" stroke-linejoin="round"/>
<path d="M1137.45 343.125L1135.15 331.223" stroke="black" stroke-width="3.71495" stroke-miterlimit="1.5" stroke-linecap="round" stroke-linejoin="round"/>
<path fill-rule="evenodd" clip-rule="evenodd" d="M1035.19 310.572C1025.3 314.133 1020.16 325.059 1023.72 334.951L1048.01 401.561C1051.57 411.452 1062.49 416.594 1072.39 413.033L1115.05 403.268C1124.94 399.707 1130.08 388.781 1126.52 378.889L1098.75 301.77C1095.19 291.879 1084.27 286.737 1074.38 290.298L1035.19 310.572Z" fill="#FFD1B2" stroke="black" stroke-width="3.99976" stroke-miterlimit="1.5" stroke-linecap="round" stroke-linejoin="round"/>
<path d="M1090.24 377.618C1088.35 372.379 1083.42 369.356 1079.22 370.867C1075.03 372.379 1073.15 377.851 1075.04 383.09C1076.92 388.329 1081.86 391.351 1086.05 389.84C1090.25 388.329 1092.12 382.857 1090.24 377.618Z" fill="black" stroke="black" stroke-width="5.57242" stroke-miterlimit="1.5" stroke-linecap="round" stroke-linejoin="round"/>
<path d="M1070.53 327.245C1068.64 322.005 1063.71 318.983 1059.52 320.494C1055.32 322.005 1053.44 327.478 1055.33 332.717C1057.22 337.956 1062.15 340.978 1066.35 339.467C1070.54 337.956 1072.42 332.484 1070.53 327.245Z" fill="black" stroke="black" stroke-width="5.57242" stroke-miterlimit="1.5" stroke-linecap="round" stroke-linejoin="round"/>
<path d="M1058.34 343.505L1050.05 319.895" stroke="black" stroke-width="5.57242" stroke-miterlimit="1.5" stroke-linecap="round" stroke-linejoin="round"/>
<path d="M1073.68 398.268L1064.25 371.823" stroke="black" stroke-width="5.57242" stroke-miterlimit="1.5" stroke-linecap="round" stroke-linejoin="round"/>
<path d="M1086.09 352.48L1081.28 348.881" stroke="black" stroke-width="5.57242" stroke-miterlimit="1.5" stroke-linecap="round" stroke-linejoin="round"/>
<path fill-rule="evenodd" clip-rule="evenodd" d="M1109.74 365.233C1101.74 341.251 1090.73 318.954 1071.96 310.783L1109.74 365.233Z" fill="#FFD1B2"/>
<path d="M1109.74 365.233C1101.74 341.251 1090.73 318.954 1071.96 310.783" stroke="black" stroke-width="3.71495" stroke-miterlimit="1.5" stroke-linecap="round" stroke-linejoin="round"/>
<path fill-rule="evenodd" clip-rule="evenodd" d="M1077.47 408.551C1070.74 400.418 1063.92 399.314 1057.02 405.813C1058.39 397.711 1055.71 395.594 1051.53 395.722C1066.39 391.737 1061.93 386.062 1050.27 379.761C1058.66 368.493 1050.85 366.86 1042.07 365.791C1047.26 364.443 1046.01 360.826 1040.97 355.878C1053.03 349.487 1047.99 347.439 1035.94 347.173C1042.34 341.759 1041.07 338.777 1034.02 337.631C1041.61 332.255 1039.53 326.495 1029.86 320.435C1041.14 320.974 1046.54 317.446 1042.68 307.519C1042.03 297.797 1037.76 295.606 1028.45 303.87C1021.88 293.586 1006.67 299.565 1003.53 311.535C995.715 305.446 988.565 303.758 993.318 315.903C981.843 309.733 980.861 317.604 986.972 326.092C984.16 333.86 982.266 335.679 987.679 335.809C977.355 343.632 984.819 348.466 993.976 353.021C985.975 362.3 991.535 367.653 1001.49 370.35C996.75 378.02 996.292 383.924 1003.93 389.209C990.608 395.855 998.19 406.082 1015.64 412.031C1014.94 439.114 1031.55 429.356 1041.08 419.826C1042.32 427.029 1044.17 428.956 1047.52 417.809C1048 430.391 1051.51 432.886 1058.43 423.956C1066.79 428.573 1070.61 426.919 1068.75 417.416C1075.25 423.524 1079.76 424.592 1079.32 413.082C1083.73 405.181 1082.01 405.081 1077.47 408.551Z" fill="#FF7418" stroke="black" stroke-width="3.71495" stroke-miterlimit="1.5" stroke-linecap="round" stroke-linejoin="round"/>
<path fill-rule="evenodd" clip-rule="evenodd" d="M1002.74 401.659L1022.09 405.738L1022.72 418.013L1044.51 410.206L1056.21 416.364C1075.52 407.483 1082.51 402.064 1056.38 405.944L1056.56 394.943L1062.48 391.362C1065.78 398.432 1073.31 400.63 1082.64 400.757C1098.85 400.177 1115.03 399.515 1125.39 382.455L1117.44 350.564L1129.3 357.097L1121.74 363.305C1125.76 373.932 1134.22 383.099 1123.2 398.673L1081.79 411.029C1077.67 418.165 1073.43 421.442 1069 418.717C1069.08 425.106 1062.66 427.119 1058.44 420.994C1054.74 429.026 1051.1 430.011 1047.51 421.046L1040.66 421.08C1033.29 427.86 1026.5 430.666 1020.46 428.435L1015.29 413.555L1002.74 401.659Z" fill="black" fill-opacity="0.3"/>
<path d="M1146.12 359.274C1144.91 353.382 1140.26 349.361 1135.74 350.292C1131.23 351.223 1128.55 356.754 1129.76 362.645C1130.98 368.537 1135.62 372.558 1140.14 371.627C1144.66 370.696 1147.34 365.165 1146.12 359.274Z" fill="#D50409" stroke="black" stroke-width="4.3341" stroke-miterlimit="1.5" stroke-linecap="round" stroke-linejoin="round"/>
<path d="M1127.85 310.925C1126.64 305.034 1121.99 301.012 1117.47 301.943C1112.96 302.874 1110.28 308.405 1111.49 314.296C1112.71 320.188 1117.35 324.209 1121.87 323.278C1126.39 322.347 1129.07 316.817 1127.85 310.925Z" fill="#D50409" stroke="black" stroke-width="4.3341" stroke-miterlimit="1.5" stroke-linecap="round" stroke-linejoin="round"/>
<path fill-rule="evenodd" clip-rule="evenodd" d="M1115.34 311.168C1115.34 311.168 1115.46 306.951 1116.67 306.45C1117.88 305.955 1122.57 308.186 1122.57 308.186C1119.17 307.882 1116.73 308.839 1115.34 311.168Z" fill="white"/>
<path fill-rule="evenodd" clip-rule="evenodd" d="M1055.68 331.595C1055.68 331.595 1055.17 329.628 1056.04 329.012C1057.07 328.282 1058.92 329.436 1058.92 329.436C1058.78 332.197 1057.86 333.265 1055.68 331.595Z" fill="white"/>
<path fill-rule="evenodd" clip-rule="evenodd" d="M1075.92 379.208C1075.92 379.208 1075.41 377.241 1076.28 376.625C1077.31 375.895 1079.16 377.05 1079.16 377.05C1079.02 379.81 1078.1 380.878 1075.92 379.208Z" fill="white"/>
<path fill-rule="evenodd" clip-rule="evenodd" d="M1133.55 359.222C1133.55 359.222 1133.67 355.005 1134.88 354.504C1136.09 354.008 1140.78 356.24 1140.78 356.24C1137.38 355.935 1134.94 356.893 1133.55 359.222Z" fill="white"/>
<path fill-rule="evenodd" clip-rule="evenodd" d="M1148.03 354.569L1157.18 352.842L1156.56 346.175L1150.53 336.593L1152.62 322.254L1150.7 316.303L1140.98 317.952L1148.03 354.569Z" fill="#AB0307" stroke="black" stroke-width="4.3341" stroke-miterlimit="1.5" stroke-linecap="round" stroke-linejoin="round"/>
<path fill-rule="evenodd" clip-rule="evenodd" d="M1715.53 470.662C1712.28 476.017 1694.11 504.033 1688.72 500.76L1693.73 467.156L1679.5 459.96L1653.73 479.676C1648.35 476.403 1668.97 442.529 1672.22 437.171L1678.38 415.658C1681.64 410.303 1688.65 408.61 1694.03 411.881L1736 437.377C1741.39 440.648 1743.12 447.653 1739.87 453.008L1715.53 470.662Z" fill="#FFA264" stroke="black" stroke-width="5.38332" stroke-miterlimit="1.5" stroke-linecap="round" stroke-linejoin="round"/>
<path d="M1681.85 423.133C1681.85 423.133 1680.41 429.365 1683.98 434.553C1688.05 440.434 1697.25 445.28 1698.29 443.981C1700.25 441.544 1707.13 438.354 1707.13 438.354L1704.43 444.978C1704.43 444.978 1703.48 453.454 1715.13 455.469C1726.78 457.485 1732.83 452.977 1732.83 452.977" stroke="black" stroke-width="5.38484" stroke-miterlimit="1.5" stroke-linecap="round" stroke-linejoin="round"/>
<path d="M1697.29 449.021L1690.69 459.721" stroke="black" stroke-width="5.38484" stroke-miterlimit="1.5" stroke-linecap="round" stroke-linejoin="round"/>
<path d="M1687.18 449.354L1702.09 458.654" stroke="black" stroke-width="5.38484" stroke-miterlimit="1.5" stroke-linecap="round" stroke-linejoin="round"/>
<path fill-rule="evenodd" clip-rule="evenodd" d="M1822.68 372.94C1828.66 358.926 1822.14 342.683 1808.13 336.699L1713.45 296.729C1699.43 290.745 1683.19 297.267 1677.2 311.281L1645.46 366.202C1639.47 380.217 1646 396.459 1660.01 402.444L1769.27 449.1C1783.29 455.084 1799.53 448.562 1805.52 434.547L1822.68 372.94Z" fill="#FFA264" stroke="black" stroke-width="4.99893" stroke-miterlimit="1.5" stroke-linecap="round" stroke-linejoin="round"/>
<path d="M1697.17 365.192C1704.59 368.361 1712.67 366.11 1715.21 360.163C1717.75 354.216 1713.79 346.826 1706.37 343.656C1698.94 340.486 1690.87 342.738 1688.33 348.685C1685.79 354.632 1689.75 362.022 1697.17 365.192Z" fill="black" stroke="black" stroke-width="8.07726" stroke-miterlimit="1.5" stroke-linecap="round" stroke-linejoin="round"/>
<path d="M1770.1 393.995C1777.52 397.164 1785.6 394.913 1788.13 388.966C1790.67 383.019 1786.71 375.628 1779.29 372.459C1771.87 369.289 1763.79 371.541 1761.25 377.488C1758.71 383.435 1762.67 390.825 1770.1 393.995Z" fill="black" stroke="black" stroke-width="8.07726" stroke-miterlimit="1.5" stroke-linecap="round" stroke-linejoin="round"/>
<path d="M1766.09 358.488C1770.27 361.746 1775.67 360.734 1780.35 360.605C1799.62 360.049 1811.98 367.231 1798.11 379.517" stroke="black" stroke-width="8.07726" stroke-miterlimit="1.5" stroke-linecap="round" stroke-linejoin="round"/>
<path d="M1686.25 331.674C1686.25 331.674 1715.98 347.767 1723.68 347.348C1731.57 346.909 1729.8 335.379 1729.8 335.379" stroke="black" stroke-width="8.07726" stroke-miterlimit="1.5" stroke-linecap="round" stroke-linejoin="round"/>
<path d="M1731.58 385.385L1741.66 383.753" stroke="black" stroke-width="8.07726" stroke-miterlimit="1.5" stroke-linecap="round" stroke-linejoin="round"/>
<path d="M1739 424.705C1743.83 423.996 1747.94 422.892 1745.29 419.899C1739.66 413.551 1724.42 411.669 1726.03 408.637C1727.17 406.461 1737.91 411.368 1741.86 409.981C1744.2 409.165 1746.39 402.997 1741.47 401.178" stroke="black" stroke-width="5.38484" stroke-miterlimit="1.5" stroke-linecap="round" stroke-linejoin="round"/>
<path fill-rule="evenodd" clip-rule="evenodd" d="M1666.07 368.448L1679.07 313.372L1700.04 302.092L1716.16 306.236C1733.84 309.719 1746.86 324.373 1751.15 360.001L1757.27 325.738C1766.91 327.769 1767.43 334.767 1763.4 344.91L1780.18 331.119L1768.66 351.694C1776.23 345.71 1784.32 342.083 1793.89 345.265L1817.47 357.543L1822.3 372.193L1797.1 422.526L1812.99 415.556L1827.63 378.593L1830.76 372.846C1834.21 381.447 1848.49 383.417 1860.44 381.785C1834.93 360.081 1872.62 342.013 1891.71 319.504C1911.3 278.829 1841.74 248.613 1736.97 265.025C1718.5 232.618 1666.59 255.844 1653.24 268.968C1645.69 276.392 1656.48 301.775 1659.1 322.47C1661.11 338.35 1654.44 351.488 1654.44 351.488L1666.07 368.448Z" fill="#292929" stroke="black" stroke-width="5.38484" stroke-miterlimit="1.5" stroke-linecap="round" stroke-linejoin="round"/>
<path fill-rule="evenodd" clip-rule="evenodd" d="M1662.42 363.133C1655.78 388.366 1694.06 411.091 1737.68 433.518C1691.18 430.514 1674.24 436.442 1671.91 446.789L1678.62 411.556C1662.28 406.136 1649.05 397.968 1644.5 382.084L1658.72 342.878L1662.42 363.133Z" fill="black" fill-opacity="0.3"/>
<path d="M1661.48 442.616C1668.93 447.143 1677.78 446.181 1681.26 440.466C1684.73 434.752 1681.5 426.45 1674.05 421.923C1666.6 417.396 1657.74 418.359 1654.27 424.073C1650.8 429.787 1654.03 438.089 1661.48 442.616Z" fill="#D50409" stroke="black" stroke-width="6.28231" stroke-miterlimit="1.5" stroke-linecap="round" stroke-linejoin="round"/>
<path d="M1730.83 470.949C1738.28 475.476 1747.14 474.514 1750.61 468.799C1754.08 463.085 1750.85 454.783 1743.4 450.256C1735.95 445.729 1727.09 446.692 1723.62 452.406C1720.15 458.12 1723.38 466.422 1730.83 470.949Z" fill="#D50409" stroke="black" stroke-width="6.28231" stroke-miterlimit="1.5" stroke-linecap="round" stroke-linejoin="round"/>
<path fill-rule="evenodd" clip-rule="evenodd" d="M1742.92 457.43C1742.92 457.43 1747.28 461.723 1746.62 463.497C1745.95 465.267 1738.95 468.048 1738.95 468.048C1742.63 464.739 1744.02 461.205 1742.92 457.43Z" fill="white"/>
<path fill-rule="evenodd" clip-rule="evenodd" d="M1780.13 373.943C1780.13 373.943 1782.73 375.338 1782.52 376.868C1782.28 378.682 1779.23 379.508 1779.23 379.508C1776.44 376.631 1776.21 374.602 1780.13 373.943Z" fill="white"/>
<path fill-rule="evenodd" clip-rule="evenodd" d="M1709.61 348.427C1709.61 348.427 1712.21 349.822 1712 351.353C1711.76 353.167 1708.71 353.992 1708.71 353.992C1705.92 351.115 1705.69 349.086 1709.61 348.427Z" fill="white"/>
<path fill-rule="evenodd" clip-rule="evenodd" d="M1673.94 429.324C1673.94 429.324 1678.3 433.618 1677.64 435.392C1676.97 437.161 1669.97 439.943 1669.97 439.943C1673.65 436.634 1675.04 433.1 1673.94 429.324Z" fill="white"/>
<path fill-rule="evenodd" clip-rule="evenodd" d="M1664.59 449.284L1657.4 460.697L1665.09 466.618L1681.2 469.687L1694.36 486.059L1702.57 489.893L1710.41 477.95L1664.59 449.284Z" fill="#AB0307" stroke="black" stroke-width="6.28231" stroke-miterlimit="1.5" stroke-linecap="round" stroke-linejoin="round"/>
<path fill-rule="evenodd" clip-rule="evenodd" d="M2210.52 2416.56C2218.54 2427.9 2259.46 2489.58 2248.06 2497.64L2184.14 2457.79L2156.95 2480.38L2174.3 2550.17C2162.89 2558.24 2112.21 2486.4 2104.19 2475.05L2065.88 2443.54C2057.86 2432.2 2060.61 2416.44 2072.01 2408.38L2160.91 2345.54C2172.31 2337.48 2188.08 2340.15 2196.1 2351.49L2210.52 2416.56Z" fill="#D56113" stroke="black" stroke-width="9.49771" stroke-miterlimit="1.5" stroke-linecap="round" stroke-linejoin="round"/>
<path d="M2084.14 2443.08C2084.14 2443.08 2095.54 2451.52 2109.25 2448.82C2124.79 2445.75 2142.77 2431.31 2141.05 2428.05C2137.82 2421.93 2137.41 2405.11 2137.41 2405.11L2148.5 2416.45C2148.5 2416.45 2164.89 2425.86 2179.27 2403.95C2193.66 2382.04 2189.83 2365.77 2189.83 2365.77" stroke="black" stroke-width="11.937" stroke-miterlimit="1.5" stroke-linecap="round" stroke-linejoin="round"/>
<path d="M2150.41 2434.54L2166.34 2457.41" stroke="black" stroke-width="11.937" stroke-miterlimit="1.5" stroke-linecap="round" stroke-linejoin="round"/>
<path d="M2142.16 2455.4L2174.24 2433.29" stroke="black" stroke-width="11.937" stroke-miterlimit="1.5" stroke-linecap="round" stroke-linejoin="round"/>
<path fill-rule="evenodd" clip-rule="evenodd" d="M2106.39 2112.41C2083.17 2087.87 2044.39 2086.8 2019.85 2110.01L1855 2267.26C1830.46 2290.47 1829.38 2329.26 1852.59 2353.8L1936.25 2466.83C1959.47 2491.37 1998.25 2492.45 2022.79 2469.23L2214.11 2288.24C2238.65 2265.02 2239.73 2226.24 2216.51 2201.7L2106.39 2112.41Z" fill="#D56113" stroke="black" stroke-width="10.0072" stroke-miterlimit="1.5" stroke-linecap="round" stroke-linejoin="round"/>
<path fill-rule="evenodd" clip-rule="evenodd" d="M2050.05 2381.18C2049.66 2381.65 2049.62 2381.65 2049.02 2381.7C2048.88 2381.71 2048.54 2381.75 2047.37 2381.12C2034.46 2374.18 2032.03 2366.27 2031.3 2363.35C2029.28 2355.25 2033.35 2348.41 2033.55 2348.04C2038.26 2339.21 2045.44 2335.97 2049.64 2334.08C2049.85 2333.98 2053.28 2332.68 2055.37 2332.13C2057.85 2331.48 2060.14 2330.88 2066.02 2330.24C2067.66 2330.06 2069.45 2329.86 2074.48 2329.87C2075.1 2329.88 2075.14 2329.76 2075.68 2330.06C2075.76 2330.1 2076.45 2330.47 2076.42 2330.93C2076.39 2331.37 2076.53 2331.86 2076.33 2332.24C2076.32 2332.25 2075.03 2333.01 2072.1 2335.14C2066.01 2339.57 2066.06 2339.63 2062.77 2342.17C2062.31 2342.53 2059.47 2344.77 2059.18 2345C2058.94 2345.2 2058.97 2345.23 2056.12 2347.49C2054.53 2348.75 2054.57 2348.79 2053.03 2350.08C2052.73 2350.33 2049.78 2352.79 2049.33 2353.19C2048.51 2353.91 2045.12 2356.44 2043.61 2359.55C2039.91 2367.13 2049.4 2378.22 2049.86 2379C2050.49 2380.07 2050.84 2380.23 2050.05 2381.18Z" fill="black"/>
<path fill-rule="evenodd" clip-rule="evenodd" d="M2114.72 2267.44C2114.47 2268.64 2114.11 2268.44 2112.89 2268.63C2112.2 2268.74 2105.66 2268.29 2102.04 2273.28C2100.1 2275.95 2098.78 2279.3 2097.49 2287.1C2096.75 2291.55 2096.7 2294.63 2094.72 2301.46C2093.97 2304.06 2094.01 2304.07 2093.14 2306.64C2092.06 2309.84 2091.08 2312.82 2088.48 2318.1C2087.37 2320.35 2085.41 2324.32 2082.38 2327.21C2081.94 2327.64 2082 2327.75 2081.4 2327.89C2081.38 2327.9 2080.24 2327.73 2080.23 2327.72C2080 2327.39 2079.62 2327.13 2079.52 2326.74C2079.49 2326.57 2080.21 2324.63 2080.08 2320.6C2080.02 2318.84 2080.11 2317.6 2079.63 2312.19C2079.59 2311.71 2079.59 2311.23 2079.44 2308.43C2079.3 2305.7 2079.33 2302.18 2079.35 2301.71C2079.6 2296.39 2079.63 2290.84 2084.38 2280.52C2084.57 2280.1 2086.72 2275.7 2089.37 2272.41C2091.31 2270.02 2097.64 2262.43 2108.05 2263.94C2110.55 2264.3 2113.11 2265.41 2113.53 2265.59C2115 2266.22 2114.76 2267.27 2114.72 2267.44Z" fill="black"/>
<path d="M1979.85 2360.78C1992.84 2348.49 1995.39 2330.08 1985.54 2319.66C1975.69 2309.25 1957.17 2310.78 1944.17 2323.07C1931.17 2335.37 1928.62 2353.78 1938.47 2364.19C1948.32 2374.6 1966.85 2373.08 1979.85 2360.78Z" fill="black" stroke="black" stroke-width="17.9055" stroke-miterlimit="1.5" stroke-linecap="round" stroke-linejoin="round"/>
<path d="M2102.79 2237.93C2115.78 2225.63 2118.34 2207.22 2108.48 2196.81C2098.63 2186.39 2080.11 2187.92 2067.11 2200.22C2054.11 2212.51 2051.56 2230.92 2061.42 2241.34C2071.27 2251.75 2089.79 2250.22 2102.79 2237.93Z" fill="black" stroke="black" stroke-width="17.9055" stroke-miterlimit="1.5" stroke-linecap="round" stroke-linejoin="round"/>
<path d="M2016.84 2227.64C2047.48 2230.53 2065.37 2198.38 2098.07 2168.18" stroke="black" stroke-width="17.9055" stroke-miterlimit="1.5" stroke-linecap="round" stroke-linejoin="round"/>
<path d="M1897.73 2338.6C1929.91 2317.41 1972.22 2290.22 1968.85 2271.09" stroke="black" stroke-width="17.9055" stroke-miterlimit="1.5" stroke-linecap="round" stroke-linejoin="round"/>
<path d="M2041.8 2322.23L2066.46 2297.75" stroke="black" stroke-width="17.9055" stroke-miterlimit="1.5" stroke-linecap="round" stroke-linejoin="round"/>
<path d="M2054.77 2360.49C2077.68 2355.06 2121.31 2332.08 2108.75 2288.61" stroke="black" stroke-width="11.937" stroke-miterlimit="1.5" stroke-linecap="round" stroke-linejoin="round"/>
<path fill-rule="evenodd" clip-rule="evenodd" d="M1872.34 2363.01C1834.24 2325.96 1851.28 2280.03 1851.28 2280.03C1851.28 2280.03 1924.63 2247.83 1979.78 2206.63C2016.56 2179.15 2028.07 2141.11 2035.63 2121.13C2094.46 2100.57 2121.06 2157.13 2145.91 2151.74C2154.36 2114.76 2127.36 2053.12 2106.21 2034.72C1936.57 1887.04 1680.87 2159.21 1735.05 2281.01C1753.91 2323.37 1829.15 2403.58 1862.47 2387.48C1911.2 2424.83 1912.08 2413.22 1872.34 2363.01Z" fill="#19110D" stroke="black" stroke-width="11.937" stroke-miterlimit="1.5" stroke-linecap="round" stroke-linejoin="round"/>
<path fill-rule="evenodd" clip-rule="evenodd" d="M1872.35 2363C1897.56 2387.97 1940.22 2436.85 1992.76 2436.83C2052.59 2436.82 2121.43 2384.99 2124.78 2366.92C2098.7 2402.47 2097.98 2449.07 2140.78 2514.63L2065.36 2433.4L1981.1 2493.79C1919.42 2469.19 1815.22 2306.41 1872.35 2363Z" fill="black" fill-opacity="0.3"/>
<path fill-rule="evenodd" clip-rule="evenodd" d="M2119.15 2080.01C2121.35 2063.86 2114.07 2059.5 2104.43 2064.33C2099.19 2043.3 2085.6 2032.14 2070.18 2040.29C2061.6 2023.96 2049.83 2021.59 2036 2028.22C2030.61 2013.12 2020.13 2013.31 2008.04 2018.34C1993.41 2006.08 1979.98 2005.79 1968.38 2023.64C1952.38 2009.58 1942.82 2013.99 1936.57 2027.9C1906.91 2019.12 1899.87 2037.43 1891.85 2056.7C1919.68 2068.75 1918.85 2053.97 1924.63 2038.95C1942.75 2051.69 1941.41 2058.3 1957.99 2039.34C1959.99 2053.73 1980.16 2052.86 2007.67 2042.59C1993.1 2058.15 2031.31 2065.42 2037.41 2053.32C2036.81 2062.04 2050.56 2078.96 2059.93 2062.34C2062.72 2081.57 2082.62 2081.16 2093.7 2072.18C2093.49 2085.34 2111.66 2089.1 2119.15 2080.01Z" fill="white" fill-opacity="0.3"/>
<path d="M2105.78 2501.71C2121.56 2490.55 2127.42 2471.7 2118.87 2459.59C2110.31 2447.49 2090.58 2446.72 2074.8 2457.88C2059.01 2469.04 2053.15 2487.89 2061.71 2500C2070.26 2512.1 2090 2512.87 2105.78 2501.71Z" fill="#D50409" stroke="black" stroke-width="13.9265" stroke-miterlimit="1.5" stroke-linecap="round" stroke-linejoin="round"/>
<path d="M2224.61 2385.7C2240.39 2374.54 2246.25 2355.68 2237.7 2343.58C2229.14 2331.48 2209.41 2330.71 2193.63 2341.87C2177.85 2353.02 2171.99 2371.88 2180.54 2383.98C2189.1 2396.09 2208.83 2396.85 2224.61 2385.7Z" fill="#D50409" stroke="black" stroke-width="13.9265" stroke-miterlimit="1.5" stroke-linecap="round" stroke-linejoin="round"/>
<path fill-rule="evenodd" clip-rule="evenodd" d="M2070.87 2199.81C2070.87 2199.81 2076 2195.76 2078.93 2197.53C2082.41 2199.62 2081.39 2206.56 2081.39 2206.56C2073.08 2209.69 2068.75 2208.36 2070.87 2199.81Z" fill="white"/>
<path fill-rule="evenodd" clip-rule="evenodd" d="M1956.74 2320.69C1956.74 2320.69 1961.87 2316.64 1964.8 2318.41C1968.28 2320.5 1967.26 2327.43 1967.26 2327.43C1958.95 2330.57 1954.62 2329.23 1956.74 2320.69Z" fill="white"/>
<path fill-rule="evenodd" clip-rule="evenodd" d="M2089.75 2464.63C2089.75 2464.63 2102.32 2459.57 2105.35 2462.47C2108.36 2465.39 2107.84 2482.08 2107.84 2482.08C2104.36 2471.68 2098.4 2465.73 2089.75 2464.63Z" fill="white"/>
<path fill-rule="evenodd" clip-rule="evenodd" d="M2122.08 2501.27L2138.94 2525.98L2157.77 2515.56L2178.23 2485.51L2223.14 2473.21L2238.18 2459.89L2220.82 2433.4L2122.08 2501.27Z" fill="#AB0307" stroke="black" stroke-width="11.0019" stroke-miterlimit="1.5" stroke-linecap="round" stroke-linejoin="round"/>
<path fill-rule="evenodd" clip-rule="evenodd" d="M296.76 1221.05C297.353 1226.29 299.685 1254.27 294.419 1254.86L280.459 1229.94L267.291 1232.48L260.303 1258.84C255.036 1259.44 251.32 1226.3 250.728 1221.06L243.754 1203.59C243.161 1198.35 246.955 1193.62 252.218 1193.02L293.251 1188.38C298.514 1187.79 303.269 1191.55 303.861 1196.79L296.76 1221.05Z" fill="#BABABA" stroke="black" stroke-width="4.52666" stroke-miterlimit="1.5" stroke-linecap="round" stroke-linejoin="round"/>
<path fill-rule="evenodd" clip-rule="evenodd" d="M273.074 1209.15C272.87 1209.76 272.624 1210.36 272.333 1210.94C271.874 1211.84 269.88 1215.82 264.845 1217.13C264.756 1217.15 264.668 1217.21 264.578 1217.19C264.447 1217.17 264.35 1217.04 264.219 1217.02C264.306 1216.92 264.306 1216.76 264.393 1216.66C264.558 1216.47 267.655 1215.51 269.62 1211.48C271.244 1208.15 271.062 1204.22 270.923 1202.4C270.832 1201.58 270.832 1201.06 270.834 1201.04C271.024 1199.42 273.467 1199.26 273.737 1201.04C273.85 1201.8 273.917 1202.65 273.919 1203.55C274.447 1208.11 276.431 1213.44 285.01 1213.65C285.101 1213.65 285.198 1213.62 285.283 1213.66C285.436 1213.71 285.547 1213.86 285.701 1213.92C285.55 1213.99 285.471 1214.17 285.32 1214.24C285.312 1214.24 284.044 1214.42 282.804 1214.42C277.685 1214.41 274.752 1211.95 273.074 1209.15Z" fill="black"/>
<path fill-rule="evenodd" clip-rule="evenodd" d="M317.735 1100.93C314.504 1088.53 301.809 1081.08 289.409 1084.31L205.876 1106.45C193.476 1109.68 186.031 1122.38 189.262 1134.78L196.41 1187.64C199.641 1200.04 212.336 1207.48 224.736 1204.25L321.408 1179.06C333.808 1175.82 341.254 1163.13 338.022 1150.73L317.735 1100.93Z" fill="#D1D1D1" stroke="black" stroke-width="4.49775" stroke-miterlimit="1.5" stroke-linecap="round" stroke-linejoin="round"/>
<path fill-rule="evenodd" clip-rule="evenodd" d="M194.231 1127.92C198.592 1155.54 202.227 1180.82 216.321 1191.66C227.521 1200.28 248.258 1193.48 267.02 1189.06L291.757 1190.64C248.876 1196.71 249.091 1226.32 258 1260.69L251.48 1260.2L243.748 1199.52C231.388 1204.03 218.913 1207.07 205.712 1200.87C191.217 1179.6 189.205 1154.76 194.231 1127.92Z" fill="black" fill-opacity="0.3"/>
<path fill-rule="evenodd" clip-rule="evenodd" d="M271.212 1135.68C285.056 1088.19 309.283 1097.73 313.761 1118.68L271.212 1135.68Z" fill="#68BB9D"/>
<path fill-rule="evenodd" clip-rule="evenodd" d="M313.861 1119.16C313.7 1118.93 313.399 1118.82 313.237 1118.59C313.204 1118.55 310.665 1108.48 302.862 1104.63C294.719 1100.62 288.11 1108.14 286.72 1109.6C278.243 1118.55 271.721 1135.78 271.674 1135.81C271.49 1135.94 271.266 1136.01 271.08 1136.13C271.038 1135.91 270.797 1135.76 270.754 1135.54C270.741 1135.49 272.137 1127.77 274.468 1121.36C275.472 1118.6 280.999 1102.7 293.444 1099.76C302.75 1097.56 312.053 1104.79 314.19 1118.32C314.2 1118.39 314.167 1118.38 313.861 1119.16Z" fill="black"/>
<path fill-rule="evenodd" clip-rule="evenodd" d="M208.84 1148.94C187.067 1116.99 222.562 1121.67 244.705 1140.32L208.84 1148.94Z" fill="#68BB9D"/>
<path fill-rule="evenodd" clip-rule="evenodd" d="M245.085 1140.64C244.817 1140.57 244.52 1140.65 244.245 1140.58C244.144 1140.56 235.415 1133.78 222.894 1130.03C217.03 1128.27 207.318 1126.58 204.81 1130.48C203.329 1132.79 204.372 1136.82 204.879 1138.62C205.619 1141.25 207.235 1144.9 209.026 1148.27C209.093 1148.41 209.224 1148.53 209.231 1148.67C209.251 1148.9 209.293 1149.21 209.108 1149.34C208.924 1149.47 208.642 1149.32 208.444 1149.21C208.309 1149.15 206.656 1147.02 206.504 1146.82C194.11 1130.84 201.472 1123.15 211.131 1123.14C212.767 1123.13 218.457 1123.21 227.675 1127.7C237.589 1132.52 244.855 1139.75 244.881 1139.83C244.974 1140.09 244.993 1140.37 245.085 1140.64Z" fill="black"/>
<path d="M230.283 1160.35C236.851 1158.64 241.063 1152.99 239.692 1147.73C238.321 1142.47 231.885 1139.59 225.317 1141.3C218.75 1143.01 214.537 1148.66 215.909 1153.93C217.28 1159.19 223.716 1162.07 230.283 1160.35Z" fill="black" stroke="black" stroke-width="6.7919" stroke-miterlimit="1.5" stroke-linecap="round" stroke-linejoin="round"/>
<path d="M293.6 1141.99C300.167 1140.28 304.38 1134.62 303.008 1129.36C301.637 1124.1 295.201 1121.22 288.634 1122.93C282.066 1124.64 277.854 1130.3 279.225 1135.56C280.596 1140.82 287.032 1143.7 293.6 1141.99Z" fill="black" stroke="black" stroke-width="6.7919" stroke-miterlimit="1.5" stroke-linecap="round" stroke-linejoin="round"/>
<path fill-rule="evenodd" clip-rule="evenodd" d="M201.484 1148.62C201.602 1148.57 201.659 1148.42 201.777 1148.38C201.85 1148.35 205.562 1147.6 207.239 1147.57C209.217 1147.53 211.897 1148.69 212.157 1148.79C212.272 1148.83 212.329 1148.96 212.415 1149.05C212.303 1149.1 212.249 1149.25 212.136 1149.3C212.062 1149.33 209.314 1150.23 207.489 1150.15C205.822 1150.07 201.806 1148.91 201.757 1148.89C201.643 1148.83 201.598 1148.68 201.484 1148.62Z" fill="black"/>
<path fill-rule="evenodd" clip-rule="evenodd" d="M205.238 1140.03C205.366 1140.03 205.477 1139.91 205.601 1139.92C205.68 1139.92 209.39 1140.68 210.946 1141.31C212.782 1142.05 214.796 1144.16 214.997 1144.35C215.087 1144.44 215.089 1144.58 215.133 1144.69C215.01 1144.7 214.902 1144.81 214.778 1144.82C214.698 1144.81 211.817 1144.57 210.168 1143.78C208.665 1143.06 205.421 1140.42 205.384 1140.38C205.302 1140.28 205.319 1140.13 205.238 1140.03Z" fill="black"/>
<path fill-rule="evenodd" clip-rule="evenodd" d="M211.774 1134C211.899 1134.03 212.031 1133.94 212.151 1133.97C212.228 1133.99 215.708 1135.48 217.105 1136.41C218.755 1137.5 220.3 1139.98 220.457 1140.21C220.529 1140.31 220.502 1140.45 220.522 1140.57C220.401 1140.55 220.272 1140.64 220.15 1140.62C220.072 1140.6 217.3 1139.78 215.844 1138.68C214.518 1137.66 211.874 1134.42 211.845 1134.38C211.785 1134.27 211.833 1134.12 211.774 1134Z" fill="black"/>
<path fill-rule="evenodd" clip-rule="evenodd" d="M316.199 1124.48C316.101 1124.56 316.09 1124.72 315.992 1124.8C315.931 1124.85 312.61 1126.67 311.019 1127.2C309.144 1127.83 306.241 1127.52 305.963 1127.51C305.838 1127.49 305.746 1127.39 305.636 1127.32C305.728 1127.24 305.737 1127.1 305.829 1127.01C305.891 1126.96 308.246 1125.28 310.011 1124.81C311.624 1124.38 315.805 1124.3 315.86 1124.31C315.984 1124.32 316.072 1124.46 316.199 1124.48Z" fill="black"/>
<path fill-rule="evenodd" clip-rule="evenodd" d="M310.632 1116.93C310.574 1117.05 310.626 1117.2 310.568 1117.31C310.529 1117.38 308.184 1120.35 306.925 1121.46C305.446 1122.77 302.655 1123.63 302.392 1123.72C302.272 1123.75 302.148 1123.7 302.019 1123.68C302.072 1123.57 302.024 1123.43 302.077 1123.32C302.112 1123.24 303.625 1120.78 305.065 1119.65C306.383 1118.63 310.201 1116.92 310.254 1116.91C310.373 1116.87 310.507 1116.96 310.632 1116.93Z" fill="black"/>
<path fill-rule="evenodd" clip-rule="evenodd" d="M302.924 1112.51C302.892 1112.63 302.972 1112.77 302.939 1112.89C302.914 1112.96 301.218 1116.35 300.208 1117.69C299.025 1119.27 296.464 1120.67 296.225 1120.82C296.115 1120.88 295.981 1120.85 295.852 1120.85C295.881 1120.73 295.806 1120.61 295.835 1120.49C295.854 1120.41 296.84 1117.69 298.023 1116.3C299.106 1115.03 302.5 1112.58 302.549 1112.56C302.659 1112.5 302.808 1112.56 302.924 1112.51Z" fill="black"/>
<path d="M261.251 1158.09L266.15 1152.65" stroke="black" stroke-width="6.7919" stroke-miterlimit="1.5" stroke-linecap="round" stroke-linejoin="round"/>
<path fill-rule="evenodd" clip-rule="evenodd" d="M262.742 1177.41C271.327 1174.94 279.462 1183.34 289.558 1177.14C297.43 1172.31 295.561 1162.58 300.381 1159.23L262.742 1177.41Z" fill="#810306"/>
<path fill-rule="evenodd" clip-rule="evenodd" d="M262.81 1177.64L262.812 1177.65C262.648 1177.64 262.471 1177.59 262.499 1177.38C262.51 1177.29 262.562 1177.22 262.636 1177.19C262.649 1177.18 262.661 1177.17 262.674 1177.17L262.673 1177.16C262.679 1177.16 262.686 1177.16 262.692 1177.16C282.542 1166.9 296.641 1159.78 299.515 1158.36C299.528 1158.35 299.541 1158.34 299.554 1158.33L299.561 1158.34C299.864 1158.19 300.03 1158.11 300.053 1158.1C301.147 1157.77 302.352 1159.23 300.989 1160.29C296.558 1163.73 298.741 1175.64 286.903 1179.61C282.699 1181.02 278.866 1180.29 275.831 1179.5C270.388 1178.08 267.541 1176.69 262.851 1177.63C262.837 1177.63 262.824 1177.64 262.81 1177.64ZM297.192 1161.04C294.768 1162.5 292.393 1164.04 289.896 1165.36C288.837 1165.92 288.791 1165.89 264.973 1176.67C269.317 1176.08 272.654 1177.56 277.792 1178.31C278.808 1178.45 284.966 1179.6 290.189 1175.27C293.264 1172.71 294.319 1169.05 295.293 1165.96C295.973 1163.81 296.508 1162.27 297.192 1161.04Z" fill="black"/>
<path fill-rule="evenodd" clip-rule="evenodd" d="M293.434 1165.95L290.477 1168.76L292.791 1170.83L293.434 1165.95Z" fill="white"/>
<path fill-rule="evenodd" clip-rule="evenodd" d="M289.784 1169.72L291.786 1171.47L290.784 1172.52L289.301 1170.05L289.784 1169.72Z" fill="white"/>
<path fill-rule="evenodd" clip-rule="evenodd" d="M262.582 1177.31C262.582 1177.31 269.07 1166 272.574 1164.58C275.822 1163.26 283.608 1168.78 283.608 1168.78C283.608 1168.78 282.405 1160.8 285.116 1159.15C287.827 1157.5 299.873 1158.86 299.873 1158.86C292.863 1162.74 293.76 1164.4 284.638 1169.97C278.516 1173.71 267.868 1173.91 262.582 1177.31Z" fill="#810306"/>
<path fill-rule="evenodd" clip-rule="evenodd" d="M282.22 1166.58C281.543 1158.07 285.094 1157.65 286.272 1157.41C289.974 1156.64 296.746 1157.32 298.478 1157.51C299.894 1157.66 300.599 1157.64 300.94 1158.34C301.192 1158.86 301.032 1159.56 300.452 1159.89C296.687 1162.05 296.694 1162.08 293.037 1165.16C292.423 1165.68 289.316 1168.3 284.762 1170.85C278.525 1174.35 268.418 1174.22 262.717 1177.51C262.632 1177.56 262.529 1177.57 262.445 1177.51C262.315 1177.42 262.344 1177.31 262.37 1177.18C269.849 1163.35 272.591 1163.57 273.681 1163.52C276.277 1163.41 279.98 1165.28 282.22 1166.58ZM263.375 1176.54C268.952 1173.44 276.961 1173.19 283.211 1169.83C283.128 1169.8 283.045 1169.76 282.963 1169.7C280.736 1168.2 280.79 1168.12 278.418 1166.86C273.547 1164.28 272.504 1165.46 271.911 1165.9C269.154 1167.95 264.965 1174.12 263.375 1176.54ZM284.719 1168.93C288.269 1166.62 290.215 1164.96 291.684 1163.62C293.681 1161.8 294.582 1160.91 296.181 1159.79C292.366 1159.57 286.684 1159.42 285.658 1160.33C284.577 1161.28 284.34 1164.84 284.693 1168.29C284.695 1168.3 284.772 1168.6 284.719 1168.93Z" fill="black"/>
<path fill-rule="evenodd" clip-rule="evenodd" d="M195.386 1152.28C191.771 1143.35 189.465 1134.17 194.283 1123.72C199.93 1125.04 203.808 1120.71 206.507 1112.62C214.702 1120.47 220.201 1117.12 224.406 1108.44C231.457 1111.22 237.825 1108.69 243.262 1099.02C245.716 1106.75 249.602 1108.14 255.593 1100.34C263.854 1104.21 270.602 1102.24 275.663 1093.73C283.599 1098.76 289.655 1099.13 292.162 1090.67C299.847 1097.99 305.893 1099.21 308.693 1088.37C317.605 1093.71 322.043 1104.81 324.829 1118.03C329.876 1106.65 326.367 1098.99 321.725 1081.65C327.656 1071.17 324.693 1061.49 315.882 1053.09C326.971 1042.82 318.937 1034.98 310.039 1024.52C315.154 1013.88 314.288 1004.81 306.769 997.491C311.531 983.523 309.172 975.222 300.153 972.23C305.928 957.822 302.08 949.382 292.336 944.61C291.924 931.697 287.705 938.247 272.33 942.914C267.108 931.395 260.833 924.73 248.701 944.574C238.344 926.062 230.444 921.551 227.603 946.056C218.66 938.157 210.779 934.421 207.769 949.908C194.206 940.182 188.401 941.706 189.65 953.421C173.279 943.506 162.993 942.88 165.57 961.838C147.365 970.693 147.027 978.251 157.086 985.066C148.289 990.146 146.818 995.807 159.832 1002.63C139.535 1015.55 145.31 1023.58 162.256 1029.51C152.857 1036.12 154.151 1040.91 163.595 1044.3C154.578 1056.17 150.118 1065.42 169.782 1072.68C159.131 1086.76 162.012 1094.84 174.053 1098.83C159.239 1113.97 169.109 1117.3 182.54 1122.5C179.884 1135.82 183.68 1146.21 189.852 1155.53L195.386 1152.28Z" fill="#001D28" stroke="black" stroke-width="3.83025" stroke-miterlimit="1.5" stroke-linecap="round" stroke-linejoin="round"/>
<path fill-rule="evenodd" clip-rule="evenodd" d="M185.095 1117.51L192.144 1098.91L177.723 1088.94L192.855 1062.39L172.6 1059.65L194.096 1033.39L179.312 1030.01L181.127 1011.78L164.986 1011.86L174.12 984.613L157.528 970.663L166.142 986.933L155.719 1019.45L172.686 1017.84L168.729 1039.84L179.092 1042.41L159.775 1063.45L177.159 1069.26L169.253 1091.4L183.337 1100.99L181.182 1117.23L189.362 1143.74L185.095 1117.51Z" fill="#D2F0FA"/>
<path fill-rule="evenodd" clip-rule="evenodd" d="M317.463 1083.99L305.626 1068.77L311.362 1055.58L291.099 1035.26L303.491 1027.13L279.114 1008.84L287.628 1001.63L279.407 985.302L290.153 980.908L273.602 958.285L279.248 940.817L279.791 958.218L299.226 985.349L287.343 988.559L298.437 1007.77L292.546 1013.01L313.467 1027.08L304.163 1037.26L317.932 1055.5L312.273 1068.25L319.953 1082.65L324.725 1109.38L317.463 1083.99Z" fill="#D2F0FA"/>
<path fill-rule="evenodd" clip-rule="evenodd" d="M251.886 1233.05C251.886 1233.05 250.513 1252.47 249.433 1259.17C248.663 1263.98 248.053 1269.8 245.441 1273.23C242.822 1276.66 235.069 1276.61 233.741 1279.77C232.413 1282.94 237.477 1292.19 237.477 1292.19C237.477 1292.19 233.944 1284.46 236.097 1281.74C238.25 1279.02 246.677 1279.33 250.39 1275.89C254.11 1272.45 256.821 1260.83 258.411 1261.13C259.995 1261.44 260.54 1273.57 259.921 1277.71C259.441 1280.91 254.95 1283.51 254.682 1285.91C254.42 1288.29 258.323 1292.11 258.323 1292.11C258.323 1292.11 256.205 1287.49 257.184 1285.47C258.284 1283.18 263.6 1281.63 264.944 1278.4C266.607 1274.37 264.909 1261.03 267.172 1261.3C269.443 1261.57 277.526 1275.83 278.529 1280C279.174 1282.67 273.41 1283.55 273.189 1286.3C272.94 1289.47 277.03 1299.04 277.03 1299.04C277.03 1299.04 274.873 1289.84 276.178 1286.34C277.483 1282.84 283.887 1281.91 284.859 1278.01C285.878 1273.93 280.589 1262.48 282.288 1261.79C283.996 1261.12 291.7 1270.28 295.082 1273.92C297.866 1276.92 302.152 1280.5 302.582 1283.63C303.011 1286.75 297.644 1292.68 297.644 1292.68C297.644 1292.68 305.435 1286.29 306.191 1282.57C306.939 1278.84 303.401 1274.35 302.163 1270.32C300.957 1266.37 296.46 1259.45 298.81 1258.4C301.152 1257.35 313.583 1261.5 316.249 1264.05C318.606 1266.3 313.463 1271.52 314.827 1273.71C316.185 1275.91 324.415 1277.23 324.415 1277.23C324.415 1277.23 317.9 1275.57 317.159 1272.84C316.364 1269.91 320.847 1262.54 319.65 1259.61C318.461 1256.69 312.03 1258.18 310.003 1255.3C306.917 1250.91 301.12 1233.3 301.12 1233.3L290.91 1188.61L284.112 1190.49L277.732 1226.08L255.523 1197.92L249.472 1199.55L251.886 1233.05Z" fill="#18815A" stroke="black" stroke-width="2.49791" stroke-miterlimit="1.5" stroke-linecap="round" stroke-linejoin="round"/>
<path d="M246.385 1230.21C253.67 1229.39 259.064 1224.19 258.432 1218.61C257.801 1213.02 251.382 1209.16 244.097 1209.98C236.812 1210.81 231.418 1216 232.05 1221.59C232.682 1227.18 239.1 1231.04 246.385 1230.21Z" fill="#D50409" stroke="black" stroke-width="5.28259" stroke-miterlimit="1.5" stroke-linecap="round" stroke-linejoin="round"/>
<path d="M307.084 1213.37C314.37 1212.55 319.763 1207.35 319.132 1201.76C318.5 1196.18 312.082 1192.32 304.796 1193.14C297.511 1193.96 292.118 1199.16 292.749 1204.75C293.381 1210.33 299.799 1214.19 307.084 1213.37Z" fill="#D50409" stroke="black" stroke-width="5.28259" stroke-miterlimit="1.5" stroke-linecap="round" stroke-linejoin="round"/>
<path fill-rule="evenodd" clip-rule="evenodd" d="M308.172 1198.16C308.172 1198.16 313.277 1198.77 313.752 1200.29C314.22 1201.81 310.994 1207.26 310.994 1207.26C311.739 1203.17 310.845 1200.1 308.172 1198.16Z" fill="white"/>
<path fill-rule="evenodd" clip-rule="evenodd" d="M289.958 1123.49C289.958 1123.49 292.402 1123.08 293.053 1124.2C293.827 1125.53 292.221 1127.65 292.221 1127.65C288.886 1127.17 287.691 1125.94 289.958 1123.49Z" fill="white"/>
<path fill-rule="evenodd" clip-rule="evenodd" d="M229.93 1142.8C229.93 1142.8 232.375 1142.4 233.026 1143.52C233.799 1144.85 232.194 1146.97 232.194 1146.97C228.859 1146.49 227.664 1145.26 229.93 1142.8Z" fill="white"/>
<path fill-rule="evenodd" clip-rule="evenodd" d="M247.832 1214.96C247.832 1214.96 252.937 1215.58 253.412 1217.09C253.88 1218.61 250.654 1224.07 250.654 1224.07C251.399 1219.97 250.505 1216.91 247.832 1214.96Z" fill="white"/>
</g>
<defs>
<clipPath id="clip0_2007_1911">
<rect width="2160" height="2700" fill="white"/>
</clipPath>
</defs>
</svg>
