<svg width="2160" height="2700" viewBox="0 0 2160 2700" fill="none" xmlns="http://www.w3.org/2000/svg">
<g clip-path="url(#clip0_1502_5726)">
<path fill-rule="evenodd" clip-rule="evenodd" d="M224.98 603.048C224.548 598.718 227.355 595.175 234.616 592.713L257.666 593.931C261.166 598.653 266.538 599.395 276.843 600.226C285.571 603.644 296.039 605.131 301.336 606.629C306.616 607.499 309.208 605.246 313.064 605.968C318.076 606.906 325.496 611.561 331.412 612.26C337.14 620.81 344.347 627.13 349.826 631.743L351.973 637.737C357.604 642.22 363.233 646.686 368.924 651.644L372.165 658.685C376.391 658.472 379.968 658.8 382.697 659.836C388.703 665.819 392.24 671.016 394.466 675.795C394.317 683.54 394.527 692.158 395.047 701.528C397.147 707.448 400.151 712.372 406.586 713.523C408.669 714.946 410.499 717.884 412.458 723.575L413.835 746.646C416.932 760.661 421.76 774.15 421.444 789.296C425.342 797.913 426.226 808.278 429.12 817.621C432.077 827.164 440.183 835.689 439.184 846.552C430.458 851.263 421.721 854.793 412.962 856.29C408.769 862.659 404.9 865.69 401.375 865.159L383.29 867.079L378.514 864.603C364.732 868.392 351.123 869.584 337.63 869.043C318.65 871.322 302.574 868.596 286.523 865.826C276.257 870.597 268.56 863.346 261.007 855.425C246.881 855.758 237.02 853.166 235.477 844.873C227.081 836.274 224.253 826.565 224.237 816.296C209.831 802.187 205.505 792.776 205.226 778.453L208.368 775.348C205.285 774.786 203.544 772.889 203.334 769.471C203.976 761.763 206.154 755.513 210.251 748.86L209.268 736.848C212.35 726.491 213.017 713.037 212.38 697.913L215.908 694.73C218.162 680.722 216.524 666.098 212.911 647.205C217.278 642.821 217.984 633.9 217.119 626.476C221.221 619.628 224.747 612.407 224.98 603.048Z" fill="#C7AFA5" stroke="black" stroke-width="5.50011" stroke-miterlimit="1.5" stroke-linecap="round" stroke-linejoin="round"/>
<path fill-rule="evenodd" clip-rule="evenodd" d="M293.54 604.842L294.897 613.822L293.48 616.956L299.45 616.049L320.04 628.455L323.774 639.054L345.287 660.561L362.172 685.932L367.585 683.728L378.691 684.996L389.825 670.981L383.366 660.807L374.034 658.421L368.898 651.461L351.386 637.67L350.527 631.296L331.893 611.251L313.64 606.716L293.54 604.842Z" fill="white" fill-opacity="0.3"/>
<path fill-rule="evenodd" clip-rule="evenodd" d="M411.096 741.139L393.262 743.107L376.6 744.033L366.347 738.751L356.674 737.904L364.32 750.136L365.817 754.241L372.802 762.951L380.358 770.936L380.179 778.325L416.23 777.656L412.015 784.179L383.951 794.207C381.523 798.256 378.123 800.889 373.347 801.518C365.218 812.271 354.286 817.098 340.988 817.055C334.913 823.821 330.03 830.304 304.854 831.172C295.779 833.665 288.813 832.054 283.888 826.471C275.27 825.92 267.778 823.754 263.863 816.45L251.703 797.689L242.458 792.367C237.971 785.87 239.105 780.479 240.715 775.182L234.379 749.68C233.892 744.953 231.689 741.453 226.783 739.885L224.75 712.78L227.202 697.169C225.68 680.974 230.37 666.097 238.988 652.053C234.032 640.187 231.721 627.324 231.97 613.496L241.337 603.152C242.048 600.789 239.516 599.956 235.27 599.93L234.097 594.27L225.771 598.729L218.735 624.189L214.697 645.773L216.455 694.727L213.741 698.15L210.909 736.913L211.435 747.465C204.466 759.044 200.971 769.067 208.714 774.06C204.21 790.102 211.643 803.15 223.747 815.027C225.348 827.054 228.264 837.7 235.956 843.334C242.182 852.541 250.563 854.538 259.686 854.049C266.533 860.455 273.585 866.576 286.7 864.269C316.286 870.443 347.684 868.121 379.401 864.301L404.997 864.913L412.107 855.343L439.805 846.708L429.83 820.938L420.794 789.314C420.823 775.343 417.395 759.159 411.096 741.139Z" fill="black" fill-opacity="0.2"/>
<path fill-rule="evenodd" clip-rule="evenodd" d="M412.107 855.343C409.801 855.3 398.069 852.062 389.1 847.322C384.367 844.822 380.145 849.596 375.489 849.741C370.936 849.883 365.283 849.916 362.498 851.476C359.184 853.334 358.865 856.755 354.49 856.769C347.072 856.794 344.313 858.418 342.428 856.873C342.428 856.873 341.502 851.109 336.665 847.357C331.315 843.206 321.719 840.858 315.181 837.002C310.566 834.279 307.719 832.915 303.325 833.067C294.25 835.56 288.813 832.055 283.888 826.472C275.27 825.92 267.777 823.754 263.863 816.45L251.703 797.69L242.458 792.368C241.414 790.855 237.287 785.226 233.357 785.808C229.183 786.427 225.111 793.259 220.919 791.378C212.583 787.638 203.714 784.102 207.741 786.698C207.246 800.743 214.142 801.906 223.747 815.027C225.348 827.054 228.264 837.701 235.955 843.334C242.182 852.542 250.563 854.539 259.686 854.05C266.533 860.456 273.585 866.577 286.7 864.27C316.286 870.444 347.684 868.122 379.401 864.301C386.832 867.365 395.922 866.12 404.997 864.913L412.107 855.343Z" fill="black" fill-opacity="0.2"/>
<path fill-rule="evenodd" clip-rule="evenodd" d="M412.108 855.343C409.801 855.3 398.069 852.062 389.1 847.322C384.367 844.822 380.146 849.596 375.489 849.741C370.936 849.883 365.284 849.916 362.499 851.476C359.184 853.334 358.865 856.755 354.491 856.769C347.073 856.794 343.044 859.178 341.158 857.633C341.158 857.633 320.057 862.251 299.656 860.164C294.397 859.627 290.587 860.766 285.712 859.466C279.021 857.681 279.853 849.992 276.102 844.339C272.307 838.622 266.486 836.174 262.245 831.673C259.53 828.792 256.406 825.93 254.361 823.279C253.119 821.669 253.212 820.028 251.339 818.819C244.562 814.442 237.653 810.716 232.917 805.635C228.829 801.25 224.764 795.061 221.015 792.198C212.61 785.778 206.138 787.14 207.661 788.122C206.435 798.018 211.643 803.15 223.747 815.027C225.348 827.054 228.265 837.701 235.956 843.334C240.238 854.75 249.825 855.377 259.686 854.05C267.029 861.653 275.657 871.574 286.7 864.27C316.286 870.444 347.684 868.122 379.402 864.301C386.833 867.365 395.923 866.12 404.997 864.913L412.108 855.343Z" fill="black" fill-opacity="0.2"/>
<path fill-rule="evenodd" clip-rule="evenodd" d="M1977.89 239.108C1980.65 233.396 1986.84 231.128 1997.73 233.592L2025.46 252.646C2026.22 261.18 2032.33 266.19 2044.51 275.065C2052.76 285.955 2064.64 295.769 2070.09 301.662C2075.99 306.761 2080.92 305.933 2085.17 309.764C2090.68 314.744 2096.37 326.176 2103.19 331.547C2103.8 346.535 2107.95 359.875 2111.25 369.779L2109.36 378.863C2112.95 388.722 2116.55 398.556 2119.85 409.05L2118.52 420.269C2123.94 423.22 2128.13 426.35 2130.74 429.714C2133.65 441.721 2134.09 450.873 2133.22 458.509C2127.15 468.024 2120.85 478.895 2114.36 490.939C2112.47 499.896 2112.46 508.304 2119.58 514.631C2121.09 517.985 2121.13 523.029 2119.23 531.594L2103.39 561.322C2096.57 581.101 2092.31 601.542 2080.39 620.131C2078.68 633.808 2071.89 647.365 2068.38 661.183C2064.8 675.295 2068.39 692.061 2058.88 704.805C2044.45 704.021 2030.9 701.761 2018.87 696.956C2008.81 701.683 2001.7 702.506 1997.72 699.164L1973.78 687.79L1969.72 681.078C1949.71 675.3 1931.88 666.426 1915.52 655.486C1890.19 643.877 1872.28 628.255 1854.44 612.598C1838.05 610.717 1834 595.847 1830.63 580.253C1812.82 569.917 1802.53 559.192 1806.93 547.708C1803.03 530.63 1806.91 516.409 1814.7 503.632C1807.53 475.13 1809.31 460.14 1819.86 442.123L1826.13 440.653C1822.73 437.609 1822.01 433.926 1824.35 429.518C1831.01 420.423 1838.47 414.312 1848.63 409.158L1856.55 393.478C1868.26 382.949 1879.33 366.732 1890.04 347.446L1896.85 346.174C1910.31 330.476 1919.4 311.05 1929.29 284.815C1938.05 282.689 1945.72 272.137 1950.29 262.25C1960.6 256.858 1970.48 250.565 1977.89 239.108Z" fill="#B59587" stroke="black" stroke-width="5.49948" stroke-miterlimit="1.5" stroke-linecap="round" stroke-linejoin="round"/>
<path fill-rule="evenodd" clip-rule="evenodd" d="M2061.75 293.506L2056.61 305.703L2052.46 308.52L2060.57 311.935L2076.73 343.025L2073.3 359.043L2083.68 402.148L2085.36 446.534L2093.77 447.913L2106.61 457.941L2131.12 448.992L2130.83 431.429L2121.04 421.362L2119.96 408.802L2108.68 378.332L2112.46 369.756L2104.55 330.658L2085.31 311.131L2061.75 293.506Z" fill="white" fill-opacity="0.3"/>
<path fill-rule="evenodd" clip-rule="evenodd" d="M2104.17 552.393L2080.51 541.267L2059.09 529.74L2050.36 515.372L2038.98 506.959L2039.18 527.983L2037.92 534.224L2039.97 550.367L2043.29 566.043L2037.44 575.092L2082.77 601.693L2072.56 606.594L2030.05 597.705C2023.95 600.891 2017.72 601.577 2011.3 598.725C1993.01 605.905 1975.75 603.588 1959.25 593.415C1946.55 597.204 1935.55 601.547 1903.59 583.468C1890.42 579.662 1882.98 572.359 1881.11 561.671C1870.81 554.428 1863.15 546.034 1863.84 533.976L1863 501.401L1855.56 487.751C1854.92 476.26 1860.44 470.421 1866.47 465.061L1878 428.538C1880.99 422.292 1880.91 416.265 1876.01 410.581L1894.1 375.34L1909.03 357.8C1919.46 336.51 1936.61 321.585 1958.02 310.685C1960.88 292.163 1967.8 274.414 1978.63 257.415L1998.15 251.683C2000.83 249.287 1998.31 246.325 1993.05 243.063L1995.9 235.134L1982.16 234.342L1954.04 260.637L1932.6 284.395L1897.53 346.587L1891.55 348.777L1858.54 394.808L1851.16 408.326C1833.69 417.416 1821.71 427.217 1827.54 439.316C1809.73 455.83 1809.05 477.706 1815.05 501.681C1807.89 517.85 1803.42 533.303 1808.69 546.159C1809.43 562.343 1818.32 571.203 1830.04 577.537C1833.67 590.71 1837.78 603.685 1855.84 610.797C1887.92 640.986 1928.72 661.991 1971.05 681.377L2002.41 701.614L2018.53 695.129L2059.53 705.471L2066.74 665.845L2079.57 619.658C2090.24 602.313 2098.29 579.586 2104.17 552.393Z" fill="black" fill-opacity="0.2"/>
<path fill-rule="evenodd" clip-rule="evenodd" d="M2018.53 695.129C2015.69 693.32 2003.57 680.367 1996.03 667.65C1992.05 660.941 1983.17 663.663 1977.27 660.301C1971.5 657.012 1964.45 652.752 1959.8 652.573C1954.27 652.359 1951.27 656.369 1945.82 653.058C1936.58 647.445 1931.91 647.364 1930.75 644.009C1930.75 644.009 1933.98 636.139 1930.82 627.794C1927.33 618.563 1917.19 608.342 1912 598.574C1908.33 591.678 1905.83 587.816 1900.25 584.66C1887.07 580.854 1882.98 572.359 1881.11 561.672C1870.81 554.428 1863.15 546.034 1863.84 533.976L1863 501.402L1855.56 487.751C1855.41 485.077 1854.56 474.938 1849.24 472.672C1843.58 470.265 1833.32 475.659 1829.54 470.131C1822.02 459.138 1813.68 447.993 1816.71 454.285C1805.41 471.368 1813.1 478.061 1815.05 501.681C1807.89 517.85 1803.42 533.304 1808.69 546.159C1809.43 562.344 1818.32 571.203 1830.04 577.537C1833.67 590.71 1837.78 603.686 1855.84 610.798C1887.92 640.986 1928.72 661.991 1971.05 681.377C1977.96 690.84 1990.21 696.209 2002.41 701.615L2018.53 695.129Z" fill="black" fill-opacity="0.2"/>
<path fill-rule="evenodd" clip-rule="evenodd" d="M2018.53 695.128C2015.69 693.319 2003.57 680.366 1996.03 667.649C1992.05 660.94 1983.17 663.662 1977.27 660.3C1971.5 657.011 1964.45 652.751 1959.8 652.572C1954.27 652.358 1951.27 656.368 1945.82 653.057C1936.58 647.444 1929.76 647.341 1928.59 643.986C1928.59 643.986 1898.84 633.67 1875.07 615.552C1868.94 610.882 1863.34 609.399 1858.27 604.074C1851.31 596.763 1858.19 587.838 1857.83 577.957C1857.47 567.961 1852.09 560.489 1850.24 551.667C1849.06 546.02 1847.36 540.085 1846.83 535.232C1846.51 532.287 1847.88 530.318 1846.47 527.389C1841.38 516.791 1835.62 506.902 1833.6 496.982C1831.86 488.421 1831.51 477.634 1829.03 471.221C1823.47 456.846 1814.38 453.614 1815.53 455.994C1806.48 467.362 1809.05 477.705 1815.05 501.68C1807.89 517.849 1803.42 533.303 1808.69 546.158C1805.33 563.608 1816.77 571.683 1830.04 577.536C1833.38 592.575 1836.56 611.474 1855.84 610.797C1887.92 640.985 1928.72 661.99 1971.05 681.376C1977.96 690.839 1990.21 696.208 2002.41 701.614L2018.53 695.128Z" fill="black" fill-opacity="0.2"/>
<path fill-rule="evenodd" clip-rule="evenodd" d="M479.558 2428.38C482.35 2423.93 487.654 2422.62 496.408 2425.65L517.512 2443.87C517.359 2450.97 521.938 2455.66 531.161 2464.08C536.964 2473.8 545.857 2482.97 549.806 2488.32C554.202 2493.06 558.345 2492.83 561.491 2496.37C565.582 2500.98 569.22 2510.91 574.35 2515.96C573.49 2528.36 575.692 2539.73 577.508 2548.19L575.121 2555.5C577.179 2563.95 579.247 2572.38 581.011 2581.33L578.892 2590.45C583.085 2593.37 586.256 2596.34 588.096 2599.34C589.4 2609.5 588.93 2617.08 587.518 2623.29C581.643 2630.58 575.464 2638.96 569.024 2648.29C566.647 2655.5 565.87 2662.42 571.162 2668.28C572.097 2671.18 571.669 2675.34 569.327 2682.23L553.564 2705.27C546.147 2720.94 540.771 2737.4 529.258 2751.62C526.6 2762.73 519.772 2773.28 515.619 2784.35C511.379 2795.65 512.806 2809.78 503.811 2819.42C491.994 2817.45 481.039 2814.36 471.568 2809.3C462.852 2812.28 456.914 2812.31 453.942 2809.19L435.254 2797.64L432.528 2791.74C416.565 2785.16 402.69 2776.22 390.209 2765.72C370.402 2753.84 357.072 2739.34 343.798 2724.81C330.466 2721.77 328.485 2709.15 327.137 2696C313.404 2685.86 305.909 2676.08 310.574 2667.02C308.924 2652.6 313.411 2641.24 320.997 2631.42C317.688 2607.29 320.525 2595.1 330.86 2581.22L336.158 2580.58C333.631 2577.76 333.372 2574.66 335.702 2571.24C342.021 2564.36 348.727 2560.01 357.563 2556.69L365.516 2544.49C376.124 2536.88 386.72 2524.53 397.308 2509.62L403.032 2509.2C415.553 2497.49 424.815 2482.32 435.35 2461.61C442.765 2460.65 450.042 2452.66 454.711 2444.93C463.697 2441.43 472.408 2437.15 479.558 2428.38Z" fill="#A37B6A" stroke="black" stroke-width="5.49996" stroke-miterlimit="1.5" stroke-linecap="round" stroke-linejoin="round"/>
<path fill-rule="evenodd" clip-rule="evenodd" d="M543.685 2480.84L538.333 2490.42L534.66 2492.37L541.032 2495.92L551.505 2523L547.225 2535.89L551.844 2572.34L549.184 2609.06L555.982 2610.97L565.647 2620.4L586.651 2615.26L588.016 2600.77L580.873 2591.58L581.12 2581.13L574.611 2555L578.508 2548.28L575.557 2515.35L561.488 2497.51L543.685 2480.84Z" fill="white" fill-opacity="0.3"/>
<path fill-rule="evenodd" clip-rule="evenodd" d="M555.024 2697.99L536.541 2686.66L519.949 2675.21L514.07 2662.58L505.462 2654.61L503.708 2671.95L502.098 2676.98L502.319 2690.46L503.622 2703.68L497.982 2710.6L532.895 2736.65L524.042 2739.76L489.827 2728.56C484.511 2730.63 479.316 2730.62 474.291 2727.69C458.571 2731.94 444.56 2728.45 431.897 2718.57C421.089 2720.53 411.628 2723.1 386.95 2705.3C376.44 2700.96 370.983 2694.27 370.414 2685.29C362.594 2678.38 357.044 2670.77 358.714 2660.9L360.991 2633.99L356.105 2622.06C356.63 2612.54 361.703 2608.23 367.161 2604.37L379.989 2575.33C383.024 2570.46 383.511 2565.48 379.988 2560.35L398.111 2532.97L412.008 2519.88C422.543 2503.3 438.032 2492.56 456.657 2485.54C460.708 2470.54 468.024 2456.55 478.497 2443.53L495.097 2440.59C497.524 2438.86 495.724 2436.19 491.689 2433.02L494.759 2426.75L483.51 2424.84L457.946 2443.94L438.114 2461.56L403.555 2509.6L398.43 2510.86L367.033 2545.77L359.725 2556.23C344.501 2562.13 333.744 2569.11 337.441 2579.61C321.266 2591.59 318.704 2609.55 321.468 2629.85C314.093 2642.51 308.997 2654.84 312.17 2665.91C311.299 2679.31 317.821 2687.42 326.893 2693.7C328.688 2704.89 330.89 2715.95 345.119 2723.46C368.794 2751.25 400.489 2772.28 433.598 2792.11L457.581 2811.64L471.453 2807.77L504.288 2820.02L513.841 2788.04L528.623 2751.16C538.992 2737.84 547.699 2719.85 555.024 2697.99Z" fill="black" fill-opacity="0.2"/>
<path fill-rule="evenodd" clip-rule="evenodd" d="M471.453 2807.76C469.283 2806.02 460.479 2794.24 455.425 2783.08C452.758 2777.19 445.193 2778.62 440.64 2775.31C436.188 2772.08 430.767 2767.92 426.953 2767.35C422.414 2766.67 419.578 2769.7 415.391 2766.48C408.29 2761.01 404.454 2760.52 403.797 2757.65C403.797 2757.65 407.18 2751.46 405.34 2744.3C403.305 2736.37 395.881 2727.03 392.495 2718.51C390.103 2712.49 388.395 2709.08 384.088 2705.97C373.578 2701.64 370.983 2694.27 370.414 2685.29C362.594 2678.38 357.044 2670.77 358.714 2660.9L360.991 2633.99L356.105 2622.06C356.227 2619.85 356.454 2611.42 352.271 2609.06C347.828 2606.57 338.884 2610.07 336.274 2605.18C331.084 2595.43 325.234 2585.49 327.156 2590.95C316.288 2603.99 322.011 2610.21 321.467 2629.85C314.093 2642.51 308.997 2654.84 312.17 2665.91C311.299 2679.31 317.821 2687.42 326.893 2693.7C328.688 2704.89 330.89 2715.95 345.118 2723.46C368.794 2751.25 400.488 2772.28 433.598 2792.11C438.424 2800.53 448.024 2806.07 457.581 2811.64L471.453 2807.76Z" fill="black" fill-opacity="0.2"/>
<path fill-rule="evenodd" clip-rule="evenodd" d="M471.454 2807.77C469.283 2806.02 460.48 2794.24 455.425 2783.08C452.758 2777.19 445.194 2778.62 440.641 2775.31C436.189 2772.08 430.768 2767.92 426.954 2767.35C422.414 2766.67 419.578 2769.7 415.391 2766.48C408.291 2761.01 402.68 2760.3 402.023 2757.43C402.023 2757.43 378.46 2746.22 360.527 2729.13C355.904 2724.72 351.424 2722.99 347.732 2718.14C342.665 2711.48 349.15 2704.76 349.754 2696.58C350.363 2688.32 346.618 2681.67 345.901 2674.23C345.441 2669.47 344.577 2664.43 344.587 2660.38C344.593 2657.93 345.897 2656.43 345.003 2653.89C341.773 2644.69 337.935 2636.02 337.174 2627.67C336.518 2620.45 337.218 2611.54 335.758 2606.03C332.486 2593.68 325.299 2590.19 326.026 2592.25C317.531 2600.79 318.704 2609.55 321.468 2629.85C314.094 2642.51 308.998 2654.84 312.17 2665.91C307.808 2679.98 316.496 2687.67 326.894 2693.7C328.276 2706.4 329.169 2722.26 345.119 2723.46C368.795 2751.25 400.489 2772.28 433.598 2792.11C438.425 2800.53 448.025 2806.07 457.581 2811.64L471.454 2807.77Z" fill="black" fill-opacity="0.2"/>
<path fill-rule="evenodd" clip-rule="evenodd" d="M1084.47 53.1501C1085.89 50.9593 1088.54 50.3542 1092.87 51.9283L1103.21 61.1591C1103.07 64.6863 1105.31 67.0522 1109.83 71.3133C1112.63 76.1936 1116.98 80.8231 1118.9 83.515C1121.04 85.9064 1123.1 85.8247 1124.64 87.6115C1126.63 89.9341 1128.36 94.9022 1130.87 97.4524C1130.34 103.61 1131.34 109.279 1132.18 113.498L1130.93 117.113C1131.88 121.329 1132.84 125.536 1133.65 129.997L1132.52 134.513C1134.58 136.001 1136.13 137.498 1137.02 139.009C1137.59 144.068 1137.29 147.832 1136.54 150.908C1133.56 154.48 1130.42 158.596 1127.14 163.181C1125.9 166.743 1125.46 170.179 1128.04 173.136C1128.48 174.585 1128.24 176.649 1127.02 180.051L1119 191.377C1115.18 199.106 1112.37 207.239 1106.54 214.217C1105.12 219.718 1101.64 224.905 1099.49 230.37C1097.29 235.952 1097.88 242.991 1093.34 247.705C1087.48 246.634 1082.06 245.005 1077.39 242.415C1073.04 243.824 1070.08 243.79 1068.63 242.217L1059.44 236.322L1058.13 233.368C1050.25 229.965 1043.43 225.41 1037.31 220.087C1027.56 214.024 1021.05 206.707 1014.57 199.379C1007.97 197.757 1007.09 191.469 1006.53 184.92C999.786 179.769 996.14 174.85 998.533 170.385C997.83 163.202 1000.15 157.591 1004 152.774C1002.56 140.752 1004.07 134.718 1009.32 127.903L1011.95 127.629C1010.72 126.207 1010.62 124.664 1011.8 122.984C1015 119.614 1018.37 117.505 1022.79 115.927L1026.84 109.93C1032.17 106.236 1037.54 100.184 1042.93 92.8588L1045.77 92.6932C1052.09 86.9774 1056.82 79.5109 1062.23 69.3025C1065.92 68.8897 1069.6 64.9755 1071.99 61.1725C1076.48 59.5055 1080.84 57.4474 1084.47 53.1501Z" fill="#C7AFA5" stroke="black" stroke-width="5.50058" stroke-miterlimit="1.5" stroke-linecap="round" stroke-linejoin="round"/>
<path fill-rule="evenodd" clip-rule="evenodd" d="M1115.92 79.7477L1113.18 84.4649L1111.34 85.4007L1114.47 87.2185L1119.46 100.766L1117.23 107.135L1119.22 125.293L1117.6 143.522L1120.97 144.523L1125.69 149.29L1136.17 146.908L1136.97 139.714L1133.5 135.09L1133.7 129.9L1130.68 116.86L1132.67 113.551L1131.48 97.1598L1124.63 88.1773L1115.92 79.7477Z" fill="white" fill-opacity="0.3"/>
<path fill-rule="evenodd" clip-rule="evenodd" d="M1119.78 187.768L1110.69 181.989L1102.53 176.164L1099.71 169.837L1095.5 165.806L1094.49 174.409L1093.65 176.895L1093.65 183.599L1094.19 190.179L1091.33 193.573L1108.47 206.805L1104.04 208.277L1087.13 202.431C1084.47 203.416 1081.89 203.372 1079.41 201.872C1071.56 203.855 1064.63 202.01 1058.41 196.994C1053.03 197.881 1048.3 199.084 1036.18 190.031C1030.99 187.79 1028.34 184.418 1028.13 179.953C1024.3 176.456 1021.6 172.627 1022.51 167.734L1023.86 154.377L1021.53 148.41C1021.87 143.68 1024.43 141.581 1027.17 139.704L1033.78 125.376C1035.33 122.979 1035.61 120.512 1033.9 117.933L1043.14 104.471L1050.15 98.0793C1055.52 89.9204 1063.31 84.7128 1072.62 81.3712C1074.76 73.95 1078.51 67.0558 1083.82 60.6713L1092.09 59.3443C1093.31 58.5046 1092.44 57.1632 1090.46 55.5559L1092.04 52.4634L1086.46 51.4246L1073.6 60.7087L1063.6 69.3033L1046.03 92.8974L1043.47 93.4815L1027.58 110.577L1023.87 115.719C1016.25 118.525 1010.85 121.907 1012.6 127.156C1004.46 132.979 1003.04 141.884 1004.25 151.996C1000.48 158.232 997.849 164.315 999.336 169.844C998.794 176.497 1001.97 180.581 1006.43 183.779C1007.23 189.353 1008.23 194.87 1015.24 198.717C1026.78 212.725 1042.37 223.433 1058.66 233.559L1070.42 243.463L1077.35 241.651L1093.57 248.011L1098.58 232.191L1106.23 213.981C1111.49 207.447 1115.96 198.577 1119.78 187.768Z" fill="black" fill-opacity="0.2"/>
<path fill-rule="evenodd" clip-rule="evenodd" d="M1077.35 241.65C1076.28 240.764 1072 234.839 1069.58 229.248C1068.31 226.299 1064.53 226.949 1062.3 225.268C1060.11 223.624 1057.45 221.516 1055.56 221.2C1053.31 220.825 1051.88 222.308 1049.82 220.671C1046.34 217.896 1044.43 217.62 1044.13 216.188C1044.13 216.188 1045.86 213.14 1045.01 209.565C1044.06 205.61 1040.45 200.905 1038.83 196.642C1037.69 193.633 1036.87 191.924 1034.76 190.344C1029.57 188.103 1028.34 184.418 1028.13 179.952C1024.3 176.456 1021.6 172.626 1022.51 167.734L1023.86 154.376L1021.53 148.41C1021.61 147.309 1021.79 143.121 1019.73 141.917C1017.54 140.639 1013.07 142.31 1011.81 139.854C1009.31 134.969 1006.49 129.981 1007.4 132.71C1001.89 139.104 1004.68 142.24 1004.25 151.995C1000.48 158.231 997.85 164.315 999.336 169.843C998.794 176.496 1001.97 180.581 1006.43 183.779C1007.23 189.352 1008.23 194.87 1015.24 198.716C1026.78 212.724 1042.37 223.433 1058.66 233.559C1060.99 237.786 1065.72 240.618 1070.42 243.462L1077.35 241.65Z" fill="black" fill-opacity="0.2"/>
<path fill-rule="evenodd" clip-rule="evenodd" d="M1077.35 241.65C1076.28 240.763 1072 234.838 1069.58 229.248C1068.3 226.299 1064.53 226.949 1062.3 225.268C1060.11 223.624 1057.45 221.516 1055.56 221.2C1053.31 220.825 1051.87 222.308 1049.82 220.671C1046.33 217.896 1043.55 217.499 1043.25 216.067C1043.25 216.067 1031.63 210.303 1022.85 201.66C1020.59 199.433 1018.38 198.535 1016.58 196.094C1014.12 192.744 1017.4 189.455 1017.77 185.397C1018.14 181.293 1016.33 177.959 1016.03 174.257C1015.84 171.887 1015.45 169.373 1015.49 167.362C1015.52 166.142 1016.18 165.408 1015.75 164.138C1014.22 159.541 1012.39 155.2 1012.08 151.04C1011.81 147.45 1012.23 143.023 1011.55 140.273C1010.02 134.108 1006.48 132.315 1006.82 133.347C1002.53 137.522 1003.04 141.883 1004.25 151.995C1000.48 158.231 997.849 164.314 999.335 169.843C997.052 176.8 1001.31 180.696 1006.43 183.779C1007.01 190.1 1007.32 197.989 1015.24 198.716C1026.78 212.724 1042.37 223.432 1058.66 233.559C1060.99 237.786 1065.72 240.618 1070.42 243.462L1077.35 241.65Z" fill="black" fill-opacity="0.2"/>
<path fill-rule="evenodd" clip-rule="evenodd" d="M1947.63 1091.05C1949.05 1088.86 1951.7 1088.26 1956.03 1089.83L1966.37 1099.06C1966.23 1102.59 1968.47 1104.95 1972.99 1109.21C1975.79 1114.09 1980.14 1118.72 1982.06 1121.42C1984.2 1123.81 1986.26 1123.73 1987.8 1125.51C1989.79 1127.84 1991.52 1132.8 1994.03 1135.35C1993.5 1141.51 1994.5 1147.18 1995.34 1151.4L1994.09 1155.01C1995.04 1159.23 1996 1163.44 1996.81 1167.9L1995.68 1172.41C1997.74 1173.9 1999.29 1175.4 2000.18 1176.91C2000.75 1181.97 2000.45 1185.73 1999.7 1188.81C1996.72 1192.38 1993.58 1196.5 1990.3 1201.08C1989.06 1204.64 1988.62 1208.08 1991.2 1211.04C1991.64 1212.49 1991.4 1214.55 1990.18 1217.95L1982.16 1229.28C1978.34 1237.01 1975.53 1245.14 1969.7 1252.12C1968.28 1257.62 1964.8 1262.81 1962.65 1268.27C1960.45 1273.85 1961.05 1280.89 1956.5 1285.61C1950.64 1284.53 1945.22 1282.91 1940.55 1280.32C1936.2 1281.73 1933.24 1281.69 1931.79 1280.12L1922.6 1274.22L1921.29 1271.27C1913.41 1267.87 1906.59 1263.31 1900.47 1257.99C1890.72 1251.93 1884.21 1244.61 1877.74 1237.28C1871.13 1235.66 1870.25 1229.37 1869.69 1222.82C1862.95 1217.67 1859.3 1212.75 1861.69 1208.29C1860.99 1201.1 1863.31 1195.49 1867.16 1190.68C1865.72 1178.65 1867.23 1172.62 1872.48 1165.8L1875.11 1165.53C1873.88 1164.11 1873.78 1162.57 1874.96 1160.89C1878.16 1157.52 1881.53 1155.41 1885.95 1153.83L1890 1147.83C1895.33 1144.14 1900.7 1138.08 1906.09 1130.76L1908.93 1130.59C1915.25 1124.88 1919.98 1117.41 1925.39 1107.2C1929.08 1106.79 1932.76 1102.88 1935.15 1099.07C1939.64 1097.41 1944 1095.35 1947.63 1091.05Z" fill="#DAC9C2" stroke="black" stroke-width="5.50058" stroke-miterlimit="1.5" stroke-linecap="round" stroke-linejoin="round"/>
<path fill-rule="evenodd" clip-rule="evenodd" d="M1979.08 1117.65L1976.34 1122.37L1974.5 1123.3L1977.63 1125.12L1982.62 1138.67L1980.39 1145.04L1982.38 1163.19L1980.76 1181.42L1984.13 1182.42L1988.85 1187.19L1999.33 1184.81L2000.13 1177.62L1996.66 1172.99L1996.86 1167.8L1993.84 1154.76L1995.83 1151.45L1994.64 1135.06L1987.79 1126.08L1979.08 1117.65Z" fill="white" fill-opacity="0.3"/>
<path fill-rule="evenodd" clip-rule="evenodd" d="M1982.94 1225.67L1973.85 1219.89L1965.69 1214.06L1962.87 1207.74L1958.66 1203.71L1957.65 1212.31L1956.81 1214.8L1956.81 1221.5L1957.35 1228.08L1954.49 1231.47L1971.63 1244.71L1967.2 1246.18L1950.29 1240.33C1947.63 1241.32 1945.05 1241.27 1942.57 1239.77C1934.72 1241.76 1927.79 1239.91 1921.58 1234.9C1916.19 1235.78 1911.46 1236.98 1899.34 1227.93C1894.15 1225.69 1891.5 1222.32 1891.29 1217.85C1887.46 1214.36 1884.76 1210.53 1885.67 1205.64L1887.02 1192.28L1884.69 1186.31C1885.03 1181.58 1887.59 1179.48 1890.33 1177.61L1896.94 1163.28C1898.49 1160.88 1898.77 1158.41 1897.06 1155.83L1906.3 1142.37L1913.31 1135.98C1918.68 1127.82 1926.47 1122.61 1935.78 1119.27C1937.92 1111.85 1941.67 1104.96 1946.98 1098.57L1955.25 1097.25C1956.47 1096.41 1955.6 1095.06 1953.62 1093.46L1955.2 1090.36L1949.62 1089.33L1936.76 1098.61L1926.76 1107.2L1909.19 1130.8L1906.63 1131.38L1890.74 1148.48L1887.03 1153.62C1879.41 1156.43 1874.01 1159.81 1875.76 1165.06C1867.62 1170.88 1866.2 1179.79 1867.41 1189.9C1863.64 1196.13 1861.01 1202.22 1862.5 1207.75C1861.95 1214.4 1865.13 1218.48 1869.59 1221.68C1870.39 1227.25 1871.39 1232.77 1878.4 1236.62C1889.94 1250.63 1905.53 1261.33 1921.82 1271.46L1933.58 1281.36L1940.51 1279.55L1956.73 1285.91L1961.74 1270.09L1969.39 1251.88C1974.65 1245.35 1979.12 1236.48 1982.94 1225.67Z" fill="black" fill-opacity="0.2"/>
<path fill-rule="evenodd" clip-rule="evenodd" d="M1940.51 1279.55C1939.44 1278.66 1935.16 1272.74 1932.74 1267.15C1931.47 1264.2 1927.69 1264.85 1925.46 1263.17C1923.27 1261.53 1920.61 1259.42 1918.72 1259.1C1916.47 1258.73 1915.04 1260.21 1912.98 1258.57C1909.5 1255.8 1907.59 1255.52 1907.29 1254.09C1907.29 1254.09 1909.02 1251.04 1908.17 1247.47C1907.22 1243.51 1903.61 1238.81 1901.99 1234.54C1900.85 1231.53 1900.03 1229.83 1897.92 1228.25C1892.73 1226 1891.5 1222.32 1891.29 1217.85C1887.46 1214.36 1884.76 1210.53 1885.67 1205.64L1887.02 1192.28L1884.69 1186.31C1884.77 1185.21 1884.95 1181.02 1882.89 1179.82C1880.7 1178.54 1876.23 1180.21 1874.97 1177.76C1872.47 1172.87 1869.65 1167.88 1870.56 1170.61C1865.05 1177.01 1867.84 1180.14 1867.41 1189.9C1863.64 1196.13 1861.01 1202.22 1862.5 1207.74C1861.95 1214.4 1865.13 1218.48 1869.59 1221.68C1870.39 1227.25 1871.39 1232.77 1878.4 1236.62C1889.94 1250.63 1905.53 1261.33 1921.82 1271.46C1924.15 1275.69 1928.88 1278.52 1933.58 1281.36L1940.51 1279.55Z" fill="black" fill-opacity="0.2"/>
<path fill-rule="evenodd" clip-rule="evenodd" d="M1940.51 1279.55C1939.44 1278.66 1935.16 1272.74 1932.74 1267.15C1931.47 1264.2 1927.69 1264.85 1925.46 1263.17C1923.27 1261.53 1920.61 1259.42 1918.72 1259.1C1916.47 1258.73 1915.03 1260.21 1912.98 1258.57C1909.5 1255.8 1906.71 1255.4 1906.41 1253.97C1906.41 1253.97 1894.79 1248.2 1886.01 1239.56C1883.75 1237.33 1881.54 1236.44 1879.74 1234C1877.28 1230.65 1880.56 1227.36 1880.93 1223.3C1881.3 1219.19 1879.49 1215.86 1879.19 1212.16C1879 1209.79 1878.61 1207.27 1878.65 1205.26C1878.68 1204.04 1879.34 1203.31 1878.91 1202.04C1877.38 1197.44 1875.55 1193.1 1875.24 1188.94C1874.97 1185.35 1875.39 1180.92 1874.71 1178.17C1873.18 1172.01 1869.64 1170.22 1869.98 1171.25C1865.69 1175.42 1866.2 1179.78 1867.41 1189.9C1863.64 1196.13 1861.01 1202.22 1862.5 1207.74C1860.21 1214.7 1864.47 1218.6 1869.59 1221.68C1870.17 1228 1870.49 1235.89 1878.4 1236.62C1889.94 1250.63 1905.53 1261.33 1921.82 1271.46C1924.15 1275.69 1928.88 1278.52 1933.58 1281.36L1940.51 1279.55Z" fill="black" fill-opacity="0.2"/>
<path fill-rule="evenodd" clip-rule="evenodd" d="M150.738 1063.59C152.945 1062.19 155.604 1062.74 158.881 1065.98L164.437 1078.68C162.845 1081.83 163.894 1084.91 166.224 1090.66C166.741 1096.27 168.763 1102.29 169.386 1105.54C170.342 1108.6 172.249 1109.39 172.9 1111.65C173.747 1114.59 173.248 1119.83 174.466 1123.19C171.42 1128.57 169.97 1134.14 168.97 1138.33L166.332 1141.09C165.442 1145.32 164.562 1149.55 163.434 1153.94L160.528 1157.57C161.781 1159.78 162.569 1161.79 162.748 1163.54C161.155 1168.37 159.318 1171.67 157.353 1174.15C153.156 1176.16 148.588 1178.59 143.699 1181.4C141.087 1184.12 139.253 1187.06 140.369 1190.82C140.167 1192.32 139.083 1194.1 136.556 1196.68L124.545 1203.63C117.857 1209.07 111.918 1215.3 103.704 1219.21C100.129 1223.62 94.8048 1226.89 90.5698 1230.96C86.2449 1235.12 83.853 1241.76 77.7533 1244.15C72.8743 1240.74 68.6257 1237 65.4626 1232.7C60.9152 1232.17 58.2461 1230.91 57.5815 1228.87L51.6788 1219.68L51.7212 1216.45C45.9745 1210.08 41.6687 1203.1 38.3241 1195.71C31.9878 1186.14 29.1201 1176.77 26.2825 1167.41C20.9564 1163.19 22.7745 1157.1 24.991 1150.92C21.0067 1143.42 19.7414 1137.43 23.7766 1134.37C26.1301 1127.55 30.579 1123.41 36.086 1120.64C39.778 1109.11 43.6636 1104.25 51.2752 1100.24L53.7884 1101.09C53.2594 1099.28 53.8082 1097.84 55.5863 1096.81C59.8965 1095.07 63.8376 1094.56 68.512 1094.97L74.6941 1091.2C81.0828 1090.07 88.4833 1086.8 96.4293 1082.38L99.0879 1083.42C107.213 1080.86 114.621 1076.04 123.787 1069.01C127.317 1070.17 132.295 1068.15 136.046 1065.68C140.827 1066.04 145.652 1065.99 150.738 1063.59Z" fill="#DAC9C2" stroke="black" stroke-width="5.50058" stroke-miterlimit="1.5" stroke-linecap="round" stroke-linejoin="round"/>
<path fill-rule="evenodd" clip-rule="evenodd" d="M168.244 1100.87L163.79 1104.02L161.726 1104.1L163.822 1107.06L162.71 1121.45L158.028 1126.31L152.28 1143.65L143.212 1159.55L145.853 1161.86L148.165 1168.16L158.686 1170.36L162.407 1164.16L161.173 1158.5L163.525 1153.87L166.209 1140.76L169.398 1138.58L175.137 1123.18L172.654 1112.16L168.244 1100.87Z" fill="white" fill-opacity="0.3"/>
<path fill-rule="evenodd" clip-rule="evenodd" d="M126.762 1200.68L120.902 1191.64L115.917 1182.95L115.989 1176.02L113.838 1170.6L109.333 1178L107.533 1179.91L104.74 1186L102.489 1192.21L98.4759 1194.11L108.547 1213.27L103.91 1212.77L90.9681 1200.41C88.1405 1200.2 85.8113 1199.08 84.1872 1196.69C76.2263 1195.22 70.6901 1190.65 67.1311 1183.5C61.8633 1182.07 57.0684 1181.19 49.8201 1167.91C46.0372 1163.72 45.0253 1159.54 46.695 1155.4C44.6691 1150.62 43.8132 1146.02 46.6789 1141.95L53.4718 1130.37L53.8376 1123.97C56.116 1119.81 59.3147 1118.97 62.5912 1118.41L74.5716 1108.14C76.9775 1106.6 78.2625 1104.48 77.7824 1101.42L91.782 1093.03L100.822 1090.14C109.103 1084.96 118.351 1083.47 128.211 1084.31C133.244 1078.45 139.525 1073.75 147.014 1070.16L155.089 1072.4C156.548 1072.14 156.314 1070.56 155.183 1068.27L157.905 1066.12L153.269 1062.85L137.709 1065.93L125.037 1069.58L99.2367 1083.71L96.6684 1083.18L75.1012 1092.1L69.5794 1095.23C61.4878 1094.6 55.1664 1095.43 54.5728 1100.93C44.7495 1102.83 39.749 1110.34 36.6353 1120.03C30.6116 1124.13 25.6834 1128.57 24.7318 1134.21C21.4674 1140.04 22.6533 1145.07 25.3736 1149.84C23.7801 1155.24 22.3945 1160.67 27.1659 1167.09C31.8226 1184.63 41.5272 1200.86 52.1225 1216.85L58.6892 1230.75L65.741 1231.99L77.8369 1244.53L88.9811 1232.23L103.519 1218.86C111.026 1215.12 118.788 1208.92 126.762 1200.68Z" fill="black" fill-opacity="0.2"/>
<path fill-rule="evenodd" clip-rule="evenodd" d="M65.7403 1231.99C65.142 1230.74 63.7196 1223.57 63.8471 1217.48C63.9143 1214.27 60.2147 1213.29 58.8821 1210.83C57.5793 1208.42 56.0387 1205.4 54.4512 1204.32C52.5613 1203.04 50.6395 1203.79 49.4533 1201.45C47.4415 1197.48 45.8266 1196.43 46.1478 1195C46.1478 1195 48.9919 1192.95 49.7031 1189.35C50.4896 1185.36 49.1644 1179.58 49.4729 1175.03C49.6906 1171.82 49.6558 1169.92 48.3906 1167.6C44.6077 1163.41 45.0245 1159.54 46.6942 1155.4C44.6684 1150.62 43.8125 1146.02 46.6781 1141.95L53.4711 1130.37L53.8369 1123.97C54.3673 1123 56.2767 1119.27 54.9056 1117.32C53.4488 1115.25 48.6855 1114.9 48.5654 1112.15C48.3271 1106.66 47.8359 1100.95 47.527 1103.81C39.8559 1107.33 41.0893 1111.34 36.6345 1120.03C30.6109 1124.13 25.6827 1128.57 24.7311 1134.21C21.4666 1140.03 22.6525 1145.07 25.3728 1149.84C23.7793 1155.24 22.3938 1160.67 27.1651 1167.09C31.8218 1184.63 41.5264 1200.86 52.1218 1216.85C52.4793 1221.66 55.5964 1226.21 58.6885 1230.75L65.7403 1231.99Z" fill="black" fill-opacity="0.2"/>
<path fill-rule="evenodd" clip-rule="evenodd" d="M65.7415 1231.99C65.1432 1230.74 63.7208 1223.57 63.8483 1217.48C63.9154 1214.27 60.2158 1213.29 58.8833 1210.83C57.5805 1208.42 56.0399 1205.4 54.4524 1204.32C52.5625 1203.04 50.6407 1203.79 49.4545 1201.45C47.4427 1197.48 45.0779 1195.96 45.3989 1194.53C45.3989 1194.53 37.2361 1184.45 32.8599 1172.93C31.7318 1169.97 30.0939 1168.23 29.4783 1165.26C28.6337 1161.19 32.9845 1159.57 35.0078 1156.03C37.0543 1152.45 36.7998 1148.67 38.0731 1145.18C38.8879 1142.95 39.5822 1140.5 40.4543 1138.69C40.9837 1137.59 41.8894 1137.2 42.0338 1135.86C42.5573 1131.05 42.696 1126.34 44.1467 1122.42C45.3991 1119.05 47.6256 1115.2 48.1523 1112.42C49.3335 1106.18 46.8591 1103.07 46.7421 1104.15C41.1009 1106.16 39.7494 1110.34 36.6357 1120.03C30.612 1124.13 25.6839 1128.57 24.7323 1134.21C19.7587 1139.59 22.0047 1144.9 25.374 1149.83C23.2716 1155.82 20.2709 1163.13 27.1663 1167.09C31.823 1184.63 41.5276 1200.85 52.123 1216.85C52.4805 1221.66 55.5976 1226.21 58.6897 1230.75L65.7415 1231.99Z" fill="black" fill-opacity="0.2"/>
<path fill-rule="evenodd" clip-rule="evenodd" d="M904.612 610.788C905.486 610.235 906.539 610.453 907.837 611.734L910.037 616.763C909.407 618.011 909.822 619.232 910.745 621.511C910.95 623.731 911.751 626.115 911.997 627.401C912.376 628.616 913.131 628.926 913.389 629.823C913.725 630.989 913.527 633.062 914.009 634.394C912.803 636.524 912.229 638.73 911.833 640.387L910.788 641.483C910.436 643.158 910.087 644.831 909.64 646.57L908.489 648.01C908.986 648.886 909.297 649.681 909.368 650.372C908.737 652.286 908.01 653.593 907.232 654.576C905.57 655.371 903.76 656.335 901.824 657.445C900.79 658.523 900.064 659.687 900.506 661.177C900.425 661.772 899.996 662.474 898.995 663.498L894.238 666.252C891.59 668.406 889.238 670.871 885.985 672.42C884.569 674.168 882.46 675.462 880.783 677.074C879.07 678.72 878.123 681.353 875.707 682.3C873.775 680.948 872.092 679.467 870.839 677.765C869.038 677.553 867.981 677.054 867.718 676.248L865.38 672.609L865.397 671.33C863.121 668.804 861.416 666.039 860.091 663.113C857.582 659.322 856.446 655.614 855.322 651.907C853.213 650.234 853.933 647.824 854.811 645.373C853.233 642.406 852.732 640.034 854.33 638.821C855.262 636.119 857.024 634.482 859.205 633.383C860.667 628.815 862.206 626.892 865.22 625.304L866.216 625.641C866.006 624.925 866.224 624.353 866.928 623.944C868.635 623.258 870.196 623.054 872.047 623.215L874.495 621.724C877.025 621.274 879.956 619.981 883.103 618.232L884.156 618.642C887.374 617.626 890.308 615.718 893.938 612.934C895.336 613.395 897.308 612.593 898.793 611.617C900.687 611.759 902.598 611.738 904.612 610.788Z" fill="#DAC9C2" stroke="black" stroke-width="5.50024" stroke-miterlimit="1.5" stroke-linecap="round" stroke-linejoin="round"/>
<path fill-rule="evenodd" clip-rule="evenodd" d="M911.546 625.553L909.781 626.8L908.964 626.833L909.794 628.005L909.354 633.705L907.499 635.63L905.223 642.497L901.632 648.793L902.678 649.708L903.593 652.204L907.76 653.076L909.234 650.617L908.745 648.379L909.676 646.545L910.739 641.351L912.002 640.489L914.275 634.389L913.292 630.025L911.546 625.553Z" fill="white" fill-opacity="0.3"/>
<path fill-rule="evenodd" clip-rule="evenodd" d="M895.117 665.082L892.796 661.501L890.822 658.059L890.851 655.316L889.999 653.169L888.214 656.1L887.502 656.856L886.395 659.27L885.504 661.728L883.915 662.478L887.903 670.07L886.067 669.87L880.941 664.974C879.821 664.89 878.899 664.449 878.256 663.501C875.103 662.92 872.91 661.111 871.501 658.28C869.414 657.711 867.515 657.364 864.645 652.106C863.147 650.443 862.746 648.79 863.407 647.148C862.605 645.257 862.266 643.433 863.401 641.822L866.091 637.236L866.236 634.703C867.138 633.056 868.405 632.722 869.703 632.499L874.447 628.431C875.4 627.823 875.909 626.981 875.719 625.771L881.264 622.447L884.844 621.303C888.123 619.251 891.786 618.661 895.691 618.994C897.684 616.675 900.172 614.811 903.138 613.389L906.336 614.276C906.914 614.175 906.821 613.548 906.373 612.643L907.451 611.79L905.615 610.496L899.453 611.717L894.434 613.161L884.216 618.758L883.199 618.546L874.657 622.08L872.47 623.318C869.266 623.072 866.762 623.398 866.527 625.577C862.637 626.331 860.656 629.303 859.423 633.143C857.037 634.766 855.086 636.522 854.709 638.758C853.416 641.064 853.886 643.059 854.963 644.946C854.332 647.084 853.783 649.236 855.673 651.778C857.517 658.726 861.361 665.152 865.557 671.486L868.157 676.992L870.95 677.482L875.741 682.448L880.154 677.578L885.912 672.284C888.885 670.799 891.959 668.344 895.117 665.082Z" fill="black" fill-opacity="0.2"/>
<path fill-rule="evenodd" clip-rule="evenodd" d="M870.949 677.482C870.712 676.987 870.149 674.148 870.199 671.736C870.226 670.463 868.76 670.075 868.233 669.101C867.717 668.148 867.107 666.95 866.478 666.525C865.729 666.018 864.968 666.315 864.498 665.387C863.702 663.813 863.062 663.4 863.189 662.834C863.189 662.834 864.316 662.023 864.597 660.594C864.909 659.014 864.384 656.724 864.506 654.923C864.592 653.651 864.579 652.901 864.078 651.983C862.579 650.32 862.744 648.79 863.406 647.148C862.603 645.257 862.264 643.433 863.399 641.822L866.09 637.235L866.234 634.703C866.444 634.319 867.201 632.841 866.658 632.068C866.081 631.247 864.194 631.11 864.147 630.019C864.052 627.848 863.858 625.585 863.735 626.718C860.697 628.112 861.186 629.701 859.422 633.143C857.036 634.766 855.084 636.522 854.707 638.758C853.414 641.064 853.884 643.058 854.961 644.945C854.33 647.084 853.782 649.236 855.671 651.778C857.516 658.725 861.359 665.152 865.555 671.486C865.697 673.392 866.931 675.191 868.156 676.992L870.949 677.482Z" fill="black" fill-opacity="0.2"/>
<path fill-rule="evenodd" clip-rule="evenodd" d="M870.949 677.482C870.712 676.987 870.148 674.148 870.199 671.736C870.226 670.463 868.76 670.075 868.233 669.101C867.717 668.148 867.106 666.95 866.478 666.524C865.729 666.018 864.968 666.315 864.498 665.387C863.702 663.813 862.765 663.211 862.892 662.645C862.892 662.645 859.659 658.653 857.926 654.094C857.479 652.918 856.831 652.23 856.587 651.055C856.252 649.443 857.975 648.799 858.777 647.399C859.587 645.982 859.486 644.483 859.991 643.102C860.313 642.217 860.588 641.248 860.934 640.53C861.143 640.095 861.502 639.939 861.559 639.412C861.767 637.505 861.822 635.638 862.396 634.09C862.892 632.753 863.774 631.229 863.983 630.126C864.45 627.655 863.47 626.424 863.424 626.853C861.19 627.648 860.655 629.303 859.421 633.143C857.036 634.766 855.084 636.522 854.707 638.758C852.737 640.886 853.627 642.991 854.961 644.945C854.129 647.317 852.94 650.21 855.671 651.778C857.515 658.725 861.359 665.151 865.555 671.486C865.697 673.392 866.931 675.191 868.156 676.991L870.949 677.482Z" fill="black" fill-opacity="0.2"/>
<path fill-rule="evenodd" clip-rule="evenodd" d="M1945.23 50.5814C1945.24 49.5466 1946 48.7858 1947.78 48.4015L1953.2 49.3163C1953.9 50.5272 1955.15 50.8486 1957.56 51.3254C1959.53 52.3702 1961.96 53.0063 1963.17 53.5043C1964.39 53.8536 1965.07 53.3917 1965.96 53.6672C1967.12 54.0252 1968.74 55.3268 1970.12 55.6529C1971.24 57.8289 1972.78 59.5181 1973.94 60.7572L1974.29 62.2317C1975.5 63.4442 1976.71 64.6524 1977.92 65.9786L1978.49 67.7305C1979.49 67.7949 1980.33 67.9699 1980.95 68.2888C1982.2 69.8658 1982.9 71.1899 1983.29 72.3797C1983.05 74.2056 1982.86 76.2474 1982.73 78.4754C1983.07 79.9313 1983.64 81.1765 1985.13 81.6234C1985.58 82.0163 1985.94 82.7603 1986.24 84.1581L1985.94 89.6466C1986.29 93.0423 1987.07 96.3606 1986.58 99.9308C1987.27 102.073 1987.19 104.546 1987.62 106.832C1988.06 109.167 1989.75 111.402 1989.21 113.941C1987.02 114.817 1984.86 115.413 1982.75 115.529C1981.59 116.92 1980.59 117.53 1979.77 117.309L1975.45 117.271L1974.39 116.556C1971.03 117.076 1967.78 116.988 1964.61 116.493C1960.06 116.515 1956.34 115.434 1952.62 114.343C1950.06 115.191 1948.44 113.268 1946.87 111.191C1943.53 110.886 1941.27 110.005 1941.13 108.004C1939.38 105.743 1938.98 103.373 1939.25 100.946C1936.23 97.2204 1935.46 94.8791 1935.79 91.4876L1936.62 90.8393C1935.9 90.6226 1935.54 90.1272 1935.59 89.3139C1935.95 87.51 1936.63 86.0926 1937.78 84.632L1937.88 81.7672C1938.89 79.404 1939.41 76.2434 1939.67 72.6525L1940.59 71.9965C1941.5 68.7481 1941.51 65.2482 1941.17 60.6862C1942.33 59.7692 1942.73 57.6806 1942.73 55.903C1943.89 54.3965 1944.92 52.7863 1945.23 50.5814Z" fill="#DAC9C2" stroke="black" stroke-width="5.50024" stroke-miterlimit="1.5" stroke-linecap="round" stroke-linejoin="round"/>
<path fill-rule="evenodd" clip-rule="evenodd" d="M1961.38 52.8701L1961.45 55.0289L1961.03 55.7308L1962.47 55.6788L1967 59.1702L1967.59 61.776L1972.09 67.4426L1975.39 73.8963L1976.73 73.5228L1979.32 74.1245L1982.33 71.1161L1981.08 68.5365L1978.94 67.7189L1977.91 65.9348L1974.15 62.1999L1974.12 60.6708L1970.26 55.4277L1966.07 53.8596L1961.38 52.8701Z" fill="white" fill-opacity="0.3"/>
<path fill-rule="evenodd" clip-rule="evenodd" d="M1985.44 88.2707L1981.18 88.2504L1977.22 88.0159L1974.94 86.4891L1972.67 86.0259L1974.15 89.124L1974.39 90.1345L1975.8 92.3825L1977.37 94.4747L1977.13 96.2156L1985.66 97.0381L1984.49 98.4647L1977.59 100.071C1976.9 100.961 1976.03 101.491 1974.88 101.51C1972.67 103.829 1969.96 104.672 1966.82 104.3C1965.2 105.734 1963.87 107.133 1957.89 106.653C1955.68 106.995 1954.08 106.425 1953.07 104.972C1951.05 104.607 1949.34 103.892 1948.61 102.06L1946.25 97.2963L1944.21 95.7874C1943.32 94.1302 1943.74 92.8874 1944.26 91.6796L1943.46 85.4817C1943.47 84.3517 1943.05 83.4648 1941.93 82.9607L1942.19 76.5013L1943.19 72.8795C1943.27 69.0117 1944.79 65.6243 1947.2 62.5404C1946.36 59.602 1946.16 56.5 1946.59 53.2396L1949.09 51.0503C1949.32 50.5115 1948.75 50.2457 1947.74 50.1242L1947.62 48.7549L1945.53 49.5821L1943.18 55.4062L1941.64 60.3961L1940.72 72.0102L1939.98 72.7452L1938.26 81.8268L1938.1 84.3343C1936.14 86.8804 1935.04 89.1537 1936.73 90.544C1935.23 94.2117 1936.63 97.4968 1939.17 100.632C1939.22 103.517 1939.62 106.112 1941.28 107.652C1942.5 109.997 1944.43 110.697 1946.6 110.83C1948.04 112.529 1949.54 114.168 1952.7 113.979C1959.53 116.243 1967.01 116.548 1974.61 116.508L1980.64 117.349L1982.58 115.281L1989.36 113.995L1987.7 107.634L1986.43 99.9168C1986.81 96.6166 1986.44 92.6996 1985.44 88.2707Z" fill="black" fill-opacity="0.2"/>
<path fill-rule="evenodd" clip-rule="evenodd" d="M1982.58 115.281C1982.03 115.208 1979.35 114.124 1977.36 112.76C1976.31 112.041 1975.18 113.054 1974.08 112.962C1973 112.871 1971.66 112.725 1970.96 113.018C1970.13 113.367 1969.96 114.167 1968.92 114.051C1967.17 113.855 1966.48 114.164 1966.07 113.747C1966.07 113.747 1966.01 112.36 1964.97 111.342C1963.82 110.216 1961.61 109.4 1960.17 108.311C1959.16 107.542 1958.52 107.143 1957.48 107.059C1955.27 107.401 1954.08 106.425 1953.07 104.972C1951.05 104.607 1949.33 103.892 1948.61 102.06L1946.25 97.2962L1944.21 95.7873C1944 95.4016 1943.18 93.9593 1942.23 93.9899C1941.23 94.0227 1940.08 95.526 1939.14 94.9677C1937.28 93.8571 1935.28 92.7804 1936.16 93.5034C1935.66 96.8084 1937.26 97.2707 1939.17 100.632C1939.22 103.517 1939.62 106.112 1941.28 107.652C1942.5 109.997 1944.43 110.697 1946.6 110.83C1948.04 112.529 1949.54 114.168 1952.7 113.979C1959.53 116.243 1967.01 116.548 1974.61 116.508C1976.28 117.434 1978.46 117.387 1980.64 117.349L1982.58 115.281Z" fill="black" fill-opacity="0.2"/>
<path fill-rule="evenodd" clip-rule="evenodd" d="M1982.58 115.282C1982.03 115.209 1979.35 114.125 1977.36 112.761C1976.31 112.042 1975.18 113.055 1974.08 112.962C1973 112.872 1971.66 112.726 1970.96 113.019C1970.13 113.368 1969.96 114.167 1968.92 114.052C1967.17 113.856 1966.15 114.31 1965.75 113.893C1965.75 113.893 1960.64 114.41 1955.88 113.362C1954.65 113.092 1953.72 113.258 1952.6 112.818C1951.07 112.214 1951.47 110.42 1950.74 108.983C1950 107.529 1948.69 106.792 1947.81 105.613C1947.25 104.859 1946.59 104.097 1946.18 103.415C1945.93 103.001 1945.99 102.616 1945.58 102.279C1944.1 101.061 1942.57 99.9925 1941.59 98.6633C1940.74 97.5161 1939.95 95.9432 1939.14 95.1647C1937.33 93.4193 1935.77 93.565 1936.1 93.8385C1935.54 96.1433 1936.63 97.4976 1939.17 100.633C1939.22 103.518 1939.62 106.113 1941.28 107.653C1941.98 110.467 1944.23 110.876 1946.6 110.83C1948.13 112.827 1949.9 115.406 1952.7 113.98C1959.53 116.244 1967.01 116.549 1974.61 116.509C1976.28 117.435 1978.46 117.388 1980.64 117.35L1982.58 115.282Z" fill="black" fill-opacity="0.2"/>
<path fill-rule="evenodd" clip-rule="evenodd" d="M1566.76 319.871C1566.78 319.066 1567.37 318.474 1568.75 318.176L1572.96 318.887C1573.5 319.828 1574.48 320.078 1576.35 320.449C1577.88 321.262 1579.77 321.756 1580.72 322.143C1581.67 322.415 1582.19 322.056 1582.88 322.27C1583.79 322.548 1585.05 323.56 1586.12 323.814C1586.99 325.506 1588.18 326.819 1589.09 327.783L1589.36 328.929C1590.3 329.872 1591.24 330.812 1592.18 331.843L1592.63 333.205C1593.41 333.255 1594.06 333.391 1594.54 333.639C1595.51 334.865 1596.05 335.895 1596.36 336.82C1596.17 338.24 1596.03 339.827 1595.92 341.56C1596.19 342.692 1596.63 343.66 1597.79 344.008C1598.14 344.313 1598.42 344.891 1598.66 345.978L1598.42 350.246C1598.7 352.886 1599.3 355.466 1598.92 358.243C1599.45 359.908 1599.4 361.831 1599.73 363.609C1600.07 365.424 1601.38 367.162 1600.97 369.136C1599.26 369.817 1597.58 370.281 1595.94 370.371C1595.04 371.452 1594.26 371.927 1593.63 371.755L1590.26 371.725L1589.44 371.17C1586.83 371.574 1584.3 371.505 1581.83 371.121C1578.3 371.138 1575.4 370.297 1572.51 369.449C1570.53 370.108 1569.27 368.613 1568.04 366.998C1565.44 366.761 1563.69 366.076 1563.58 364.52C1562.22 362.762 1561.9 360.919 1562.12 359.032C1559.77 356.135 1559.17 354.315 1559.43 351.677L1560.07 351.173C1559.51 351.005 1559.23 350.62 1559.27 349.987C1559.55 348.585 1560.08 347.483 1560.97 346.347L1561.05 344.119C1561.83 342.282 1562.24 339.824 1562.44 337.032L1563.16 336.522C1563.87 333.996 1563.88 331.275 1563.61 327.728C1564.51 327.015 1564.83 325.391 1564.82 324.008C1565.72 322.837 1566.52 321.585 1566.76 319.871Z" fill="#DAC9C2" stroke="black" stroke-width="5.5001" stroke-miterlimit="1.5" stroke-linecap="round" stroke-linejoin="round"/>
<path fill-rule="evenodd" clip-rule="evenodd" d="M1579.32 321.65L1579.38 323.329L1579.05 323.875L1580.17 323.834L1583.69 326.549L1584.15 328.575L1587.65 332.981L1590.22 337.999L1591.26 337.709L1593.27 338.177L1595.61 335.838L1594.64 333.832L1592.98 333.196L1592.18 331.809L1589.25 328.905L1589.23 327.716L1586.23 323.639L1582.97 322.42L1579.32 321.65Z" fill="white" fill-opacity="0.3"/>
<path fill-rule="evenodd" clip-rule="evenodd" d="M1598.04 349.177L1594.72 349.161L1591.64 348.979L1589.86 347.791L1588.11 347.431L1589.25 349.84L1589.44 350.626L1590.54 352.374L1591.76 354.001L1591.57 355.354L1598.21 355.994L1597.29 357.103L1591.93 358.352C1591.39 359.044 1590.71 359.456 1589.82 359.471C1588.1 361.274 1585.99 361.93 1583.55 361.641C1582.29 362.755 1581.26 363.843 1576.61 363.47C1574.89 363.736 1573.65 363.293 1572.86 362.163C1571.29 361.879 1569.96 361.323 1569.39 359.898L1567.56 356.195L1565.97 355.021C1565.28 353.733 1565.61 352.766 1566.01 351.827L1565.39 347.008C1565.4 346.129 1565.07 345.44 1564.2 345.048L1564.4 340.025L1565.18 337.209C1565.24 334.202 1566.42 331.568 1568.3 329.17C1567.64 326.885 1567.49 324.473 1567.83 321.938L1569.77 320.236C1569.95 319.817 1569.5 319.61 1568.72 319.516L1568.62 318.451L1567 319.094L1565.17 323.623L1563.97 327.503L1563.26 336.533L1562.69 337.105L1561.35 344.166L1561.22 346.116C1559.7 348.096 1558.84 349.863 1560.16 350.944C1558.99 353.796 1560.08 356.35 1562.05 358.788C1562.09 361.032 1562.4 363.049 1563.7 364.247C1564.65 366.07 1566.14 366.614 1567.83 366.718C1568.95 368.039 1570.12 369.313 1572.58 369.166C1577.88 370.927 1583.7 371.164 1589.61 371.133L1594.3 371.787L1595.81 370.179L1601.08 369.178L1599.79 364.233L1598.8 358.232C1599.1 355.666 1598.81 352.62 1598.04 349.177Z" fill="black" fill-opacity="0.2"/>
<path fill-rule="evenodd" clip-rule="evenodd" d="M1595.81 370.179C1595.38 370.122 1593.3 369.279 1591.75 368.218C1590.93 367.659 1590.06 368.447 1589.2 368.375C1588.36 368.305 1587.32 368.191 1586.77 368.419C1586.13 368.69 1586 369.312 1585.19 369.222C1583.83 369.07 1583.29 369.31 1582.97 368.986C1582.97 368.986 1582.93 367.907 1582.12 367.116C1581.22 366.24 1579.51 365.606 1578.39 364.759C1577.6 364.161 1577.1 363.85 1576.29 363.785C1574.57 364.051 1573.65 363.292 1572.86 362.163C1571.29 361.879 1569.96 361.323 1569.39 359.898L1567.56 356.194L1565.97 355.021C1565.81 354.721 1565.17 353.6 1564.44 353.623C1563.66 353.649 1562.77 354.818 1562.04 354.384C1560.58 353.52 1559.03 352.683 1559.71 353.245C1559.33 355.815 1560.57 356.174 1562.05 358.788C1562.09 361.032 1562.41 363.049 1563.7 364.247C1564.65 366.07 1566.15 366.614 1567.83 366.717C1568.95 368.039 1570.12 369.313 1572.58 369.166C1577.88 370.926 1583.7 371.164 1589.61 371.133C1590.91 371.853 1592.61 371.816 1594.3 371.786L1595.81 370.179Z" fill="black" fill-opacity="0.2"/>
<path fill-rule="evenodd" clip-rule="evenodd" d="M1595.81 370.178C1595.38 370.122 1593.3 369.279 1591.75 368.218C1590.93 367.659 1590.06 368.446 1589.2 368.375C1588.36 368.304 1587.32 368.191 1586.77 368.419C1586.13 368.69 1585.99 369.312 1585.19 369.222C1583.83 369.069 1583.04 369.422 1582.72 369.098C1582.72 369.098 1578.75 369.501 1575.04 368.686C1574.09 368.476 1573.37 368.604 1572.5 368.263C1571.31 367.793 1571.62 366.398 1571.05 365.28C1570.48 364.15 1569.46 363.577 1568.77 362.66C1568.34 362.073 1567.82 361.482 1567.5 360.951C1567.31 360.629 1567.36 360.33 1567.04 360.068C1565.89 359.121 1564.7 358.29 1563.94 357.256C1563.28 356.364 1562.66 355.141 1562.03 354.536C1560.63 353.179 1559.41 353.292 1559.67 353.505C1559.23 355.297 1560.08 356.35 1562.05 358.788C1562.09 361.031 1562.4 363.049 1563.7 364.246C1564.24 366.434 1565.99 366.752 1567.83 366.717C1569.02 368.269 1570.39 370.274 1572.58 369.166C1577.88 370.926 1583.7 371.163 1589.61 371.132C1590.91 371.852 1592.6 371.816 1594.3 371.786L1595.81 370.178Z" fill="black" fill-opacity="0.2"/>
<path fill-rule="evenodd" clip-rule="evenodd" d="M247.573 2500.93C247.585 2500.13 248.176 2499.54 249.561 2499.24L253.77 2499.95C254.314 2500.89 255.285 2501.14 257.16 2501.51C258.692 2502.32 260.583 2502.82 261.525 2503.2C262.476 2503.48 263 2503.12 263.693 2503.33C264.594 2503.61 265.859 2504.62 266.931 2504.88C267.802 2506.57 268.993 2507.88 269.902 2508.84L270.169 2509.99C271.109 2510.93 272.049 2511.87 272.99 2512.9L273.436 2514.27C274.217 2514.32 274.867 2514.45 275.347 2514.7C276.323 2515.93 276.863 2516.96 277.171 2517.88C276.98 2519.3 276.836 2520.89 276.734 2522.62C276.994 2523.75 277.442 2524.72 278.6 2525.07C278.952 2525.37 279.226 2525.95 279.466 2527.04L279.231 2531.31C279.504 2533.95 280.105 2536.53 279.727 2539.3C280.261 2540.97 280.204 2542.89 280.538 2544.67C280.879 2546.49 282.188 2548.22 281.775 2550.2C280.072 2550.88 278.392 2551.34 276.752 2551.43C275.847 2552.51 275.072 2552.99 274.435 2552.82L271.072 2552.79L270.247 2552.23C267.635 2552.64 265.11 2552.57 262.642 2552.18C259.107 2552.2 256.211 2551.36 253.321 2550.51C251.334 2551.17 250.074 2549.67 248.854 2548.06C246.251 2547.82 244.495 2547.14 244.386 2545.58C243.026 2543.82 242.712 2541.98 242.926 2540.09C240.578 2537.2 239.982 2535.38 240.234 2532.74L240.877 2532.23C240.322 2532.07 240.042 2531.68 240.076 2531.05C240.357 2529.65 240.889 2528.54 241.783 2527.41L241.856 2525.18C242.641 2523.34 243.048 2520.89 243.251 2518.09L243.967 2517.58C244.677 2515.06 244.686 2512.34 244.421 2508.79C245.317 2508.08 245.635 2506.45 245.633 2505.07C246.531 2503.9 247.332 2502.65 247.573 2500.93Z" fill="#DAC9C2" stroke="black" stroke-width="5.5001" stroke-miterlimit="1.5" stroke-linecap="round" stroke-linejoin="round"/>
<path fill-rule="evenodd" clip-rule="evenodd" d="M260.13 2502.71L260.19 2504.39L259.863 2504.94L260.979 2504.89L264.499 2507.61L264.961 2509.64L268.459 2514.04L271.024 2519.06L272.065 2518.77L274.079 2519.24L276.42 2516.9L275.449 2514.89L273.785 2514.26L272.989 2512.87L270.063 2509.97L270.04 2508.78L267.041 2504.7L263.783 2503.48L260.13 2502.71Z" fill="white" fill-opacity="0.3"/>
<path fill-rule="evenodd" clip-rule="evenodd" d="M278.844 2530.24L275.526 2530.22L272.445 2530.04L270.673 2528.85L268.914 2528.49L270.06 2530.9L270.248 2531.69L271.347 2533.44L272.567 2535.06L272.377 2536.42L279.015 2537.06L278.102 2538.16L272.735 2539.41C272.203 2540.11 271.522 2540.52 270.632 2540.53C268.911 2542.34 266.8 2542.99 264.358 2542.7C263.099 2543.82 262.065 2544.9 257.421 2544.53C255.701 2544.8 254.456 2544.35 253.669 2543.22C252.097 2542.94 250.767 2542.38 250.202 2540.96L248.365 2537.26L246.779 2536.08C246.092 2534.79 246.414 2533.83 246.822 2532.89L246.198 2528.07C246.208 2527.19 245.877 2526.5 245.009 2526.11L245.209 2521.09L245.99 2518.27C246.053 2515.26 247.229 2512.63 249.109 2510.23C248.45 2507.95 248.297 2505.53 248.635 2503L250.575 2501.3C250.755 2500.88 250.308 2500.67 249.529 2500.58L249.433 2499.51L247.809 2500.16L245.978 2504.68L244.779 2508.56L244.067 2517.59L243.496 2518.17L242.156 2525.23L242.029 2527.18C240.504 2529.16 239.65 2530.92 240.967 2532.01C239.8 2534.86 240.89 2537.41 242.862 2539.85C242.902 2542.09 243.213 2544.11 244.506 2545.31C245.456 2547.13 246.953 2547.68 248.639 2547.78C249.762 2549.1 250.928 2550.37 253.386 2550.23C258.691 2551.99 264.508 2552.23 270.416 2552.19L275.105 2552.85L276.614 2551.24L281.885 2550.24L280.598 2545.29L279.607 2539.29C279.907 2536.73 279.62 2533.68 278.844 2530.24Z" fill="black" fill-opacity="0.2"/>
<path fill-rule="evenodd" clip-rule="evenodd" d="M276.616 2551.24C276.193 2551.18 274.106 2550.34 272.558 2549.28C271.742 2548.72 270.865 2549.51 270.007 2549.44C269.167 2549.37 268.128 2549.25 267.583 2549.48C266.935 2549.75 266.804 2550.37 266 2550.28C264.637 2550.13 264.096 2550.37 263.782 2550.05C263.782 2550.05 263.734 2548.97 262.925 2548.18C262.03 2547.3 260.316 2546.67 259.197 2545.82C258.406 2545.22 257.912 2544.91 257.102 2544.85C255.382 2545.11 254.457 2544.35 253.67 2543.23C252.099 2542.94 250.768 2542.39 250.203 2540.96L248.366 2537.26L246.78 2536.08C246.621 2535.78 245.981 2534.66 245.247 2534.69C244.467 2534.71 243.575 2535.88 242.844 2535.45C241.392 2534.58 239.837 2533.75 240.522 2534.31C240.134 2536.88 241.376 2537.24 242.864 2539.85C242.903 2542.09 243.214 2544.11 244.508 2545.31C245.457 2547.13 246.954 2547.68 248.641 2547.78C249.763 2549.1 250.929 2550.38 253.387 2550.23C258.692 2551.99 264.51 2552.23 270.417 2552.2C271.718 2552.92 273.414 2552.88 275.107 2552.85L276.616 2551.24Z" fill="black" fill-opacity="0.2"/>
<path fill-rule="evenodd" clip-rule="evenodd" d="M276.615 2551.24C276.192 2551.18 274.105 2550.34 272.557 2549.28C271.741 2548.72 270.864 2549.51 270.006 2549.44C269.166 2549.37 268.127 2549.25 267.582 2549.48C266.934 2549.75 266.803 2550.37 265.999 2550.28C264.636 2550.13 263.845 2550.48 263.532 2550.16C263.532 2550.16 259.557 2550.56 255.853 2549.75C254.899 2549.54 254.175 2549.67 253.307 2549.32C252.115 2548.85 252.43 2547.46 251.861 2546.34C251.285 2545.21 250.267 2544.64 249.583 2543.72C249.145 2543.14 248.632 2542.54 248.312 2542.01C248.118 2541.69 248.17 2541.39 247.851 2541.13C246.699 2540.18 245.508 2539.35 244.746 2538.32C244.088 2537.43 243.472 2536.2 242.843 2535.6C241.435 2534.24 240.217 2534.35 240.476 2534.57C240.042 2536.36 240.89 2537.41 242.863 2539.85C242.902 2542.09 243.213 2544.11 244.507 2545.31C245.052 2547.5 246.8 2547.81 248.64 2547.78C249.828 2549.33 251.203 2551.34 253.387 2550.23C258.691 2551.99 264.509 2552.22 270.417 2552.19C271.717 2552.91 273.413 2552.88 275.106 2552.85L276.615 2551.24Z" fill="black" fill-opacity="0.2"/>
<path fill-rule="evenodd" clip-rule="evenodd" d="M2013.55 1556.04C2013.56 1555.24 2014.15 1554.65 2015.53 1554.35L2019.74 1555.06C2020.29 1556 2021.26 1556.25 2023.13 1556.62C2024.66 1557.43 2026.56 1557.93 2027.5 1558.32C2028.45 1558.59 2028.97 1558.23 2029.67 1558.44C2030.57 1558.72 2031.83 1559.73 2032.9 1559.99C2033.78 1561.68 2034.97 1562.99 2035.87 1563.96L2036.14 1565.1C2037.08 1566.05 2038.02 1566.98 2038.96 1568.02L2039.41 1569.38C2040.19 1569.43 2040.84 1569.56 2041.32 1569.81C2042.3 1571.04 2042.84 1572.07 2043.14 1572.99C2042.95 1574.41 2042.81 1576 2042.71 1577.73C2042.97 1578.86 2043.41 1579.83 2044.57 1580.18C2044.93 1580.49 2045.2 1581.06 2045.44 1582.15L2045.2 1586.42C2045.48 1589.06 2046.08 1591.64 2045.7 1594.42C2046.23 1596.08 2046.18 1598 2046.51 1599.78C2046.85 1601.6 2048.16 1603.33 2047.75 1605.31C2046.04 1605.99 2044.37 1606.45 2042.72 1606.54C2041.82 1607.63 2041.04 1608.1 2040.41 1607.93L2037.04 1607.9L2036.22 1607.34C2033.61 1607.75 2031.08 1607.68 2028.61 1607.29C2025.08 1607.31 2022.18 1606.47 2019.29 1605.62C2017.31 1606.28 2016.05 1604.79 2014.83 1603.17C2012.22 1602.93 2010.47 1602.25 2010.36 1600.69C2009 1598.94 2008.68 1597.09 2008.9 1595.2C2006.55 1592.31 2005.95 1590.49 2006.21 1587.85L2006.85 1587.35C2006.29 1587.18 2006.01 1586.79 2006.05 1586.16C2006.33 1584.76 2006.86 1583.66 2007.76 1582.52L2007.83 1580.29C2008.61 1578.45 2009.02 1576 2009.22 1573.21L2009.94 1572.69C2010.65 1570.17 2010.66 1567.45 2010.39 1563.9C2011.29 1563.19 2011.61 1561.56 2011.61 1560.18C2012.5 1559.01 2013.3 1557.76 2013.55 1556.04Z" fill="#DAC9C2" stroke="black" stroke-width="5.5001" stroke-miterlimit="1.5" stroke-linecap="round" stroke-linejoin="round"/>
<path fill-rule="evenodd" clip-rule="evenodd" d="M2026.1 1557.82L2026.16 1559.5L2025.84 1560.05L2026.95 1560.01L2030.47 1562.72L2030.93 1564.75L2034.43 1569.15L2037 1574.17L2038.04 1573.88L2040.05 1574.35L2042.39 1572.01L2041.42 1570L2039.76 1569.37L2038.96 1567.98L2036.04 1565.08L2036.01 1563.89L2033.01 1559.81L2029.76 1558.59L2026.1 1557.82Z" fill="white" fill-opacity="0.3"/>
<path fill-rule="evenodd" clip-rule="evenodd" d="M2044.82 1585.35L2041.5 1585.33L2038.42 1585.15L2036.65 1583.96L2034.89 1583.6L2036.03 1586.01L2036.22 1586.8L2037.32 1588.55L2038.54 1590.17L2038.35 1591.53L2044.99 1592.17L2044.07 1593.28L2038.71 1594.52C2038.18 1595.22 2037.5 1595.63 2036.6 1595.64C2034.88 1597.45 2032.77 1598.1 2030.33 1597.81C2029.07 1598.93 2028.04 1600.02 2023.39 1599.64C2021.67 1599.91 2020.43 1599.47 2019.64 1598.34C2018.07 1598.05 2016.74 1597.5 2016.17 1596.07L2014.34 1592.37L2012.75 1591.19C2012.06 1589.91 2012.39 1588.94 2012.79 1588L2012.17 1583.18C2012.18 1582.3 2011.85 1581.61 2010.98 1581.22L2011.18 1576.2L2011.96 1573.38C2012.03 1570.37 2013.2 1567.74 2015.08 1565.34C2014.42 1563.06 2014.27 1560.65 2014.61 1558.11L2016.55 1556.41C2016.73 1555.99 2016.28 1555.78 2015.5 1555.69L2015.41 1554.62L2013.78 1555.27L2011.95 1559.8L2010.75 1563.68L2010.04 1572.71L2009.47 1573.28L2008.13 1580.34L2008 1582.29C2006.48 1584.27 2005.62 1586.04 2006.94 1587.12C2005.77 1589.97 2006.86 1592.52 2008.83 1594.96C2008.87 1597.2 2009.19 1599.22 2010.48 1600.42C2011.43 1602.24 2012.93 1602.79 2014.61 1602.89C2015.73 1604.21 2016.9 1605.49 2019.36 1605.34C2024.66 1607.1 2030.48 1607.34 2036.39 1607.31L2041.08 1607.96L2042.59 1606.35L2047.86 1605.35L2046.57 1600.41L2045.58 1594.41C2045.88 1591.84 2045.59 1588.79 2044.82 1585.35Z" fill="black" fill-opacity="0.2"/>
<path fill-rule="evenodd" clip-rule="evenodd" d="M2042.59 1606.35C2042.17 1606.3 2040.08 1605.45 2038.53 1604.39C2037.71 1603.83 2036.84 1604.62 2035.98 1604.55C2035.14 1604.48 2034.1 1604.37 2033.56 1604.59C2032.91 1604.86 2032.78 1605.49 2031.97 1605.4C2030.61 1605.24 2030.07 1605.48 2029.75 1605.16C2029.75 1605.16 2029.71 1604.08 2028.9 1603.29C2028 1602.41 2026.29 1601.78 2025.17 1600.93C2024.38 1600.34 2023.88 1600.02 2023.07 1599.96C2021.35 1600.23 2020.43 1599.47 2019.64 1598.34C2018.07 1598.05 2016.74 1597.5 2016.18 1596.07L2014.34 1592.37L2012.75 1591.19C2012.59 1590.89 2011.95 1589.77 2011.22 1589.8C2010.44 1589.82 2009.55 1590.99 2008.82 1590.56C2007.36 1589.69 2005.81 1588.86 2006.49 1589.42C2006.11 1591.99 2007.35 1592.35 2008.84 1594.96C2008.88 1597.21 2009.19 1599.22 2010.48 1600.42C2011.43 1602.24 2012.93 1602.79 2014.61 1602.89C2015.74 1604.21 2016.9 1605.49 2019.36 1605.34C2024.66 1607.1 2030.48 1607.34 2036.39 1607.31C2037.69 1608.03 2039.39 1607.99 2041.08 1607.96L2042.59 1606.35Z" fill="black" fill-opacity="0.2"/>
<path fill-rule="evenodd" clip-rule="evenodd" d="M2042.59 1606.35C2042.16 1606.29 2040.08 1605.45 2038.53 1604.39C2037.71 1603.83 2036.84 1604.62 2035.98 1604.55C2035.14 1604.48 2034.1 1604.36 2033.56 1604.59C2032.91 1604.86 2032.78 1605.48 2031.97 1605.39C2030.61 1605.24 2029.82 1605.59 2029.5 1605.27C2029.5 1605.27 2025.53 1605.67 2021.83 1604.86C2020.87 1604.65 2020.15 1604.78 2019.28 1604.44C2018.09 1603.97 2018.4 1602.57 2017.83 1601.45C2017.26 1600.32 2016.24 1599.75 2015.56 1598.83C2015.12 1598.25 2014.6 1597.65 2014.28 1597.12C2014.09 1596.8 2014.14 1596.5 2013.82 1596.24C2012.67 1595.29 2011.48 1594.46 2010.72 1593.43C2010.06 1592.54 2009.44 1591.31 2008.82 1590.71C2007.41 1589.35 2006.19 1589.47 2006.45 1589.68C2006.01 1591.47 2006.86 1592.52 2008.84 1594.96C2008.87 1597.2 2009.19 1599.22 2010.48 1600.42C2011.02 1602.61 2012.77 1602.93 2014.61 1602.89C2015.8 1604.44 2017.18 1606.45 2019.36 1605.34C2024.66 1607.1 2030.48 1607.34 2036.39 1607.31C2037.69 1608.03 2039.39 1607.99 2041.08 1607.96L2042.59 1606.35Z" fill="black" fill-opacity="0.2"/>
<path fill-rule="evenodd" clip-rule="evenodd" d="M1260.12 2057.35C1226.47 2023.63 1205.78 1987.99 1185.21 1952.33C1158.33 1939.09 1159.85 1911.52 1162.95 1883.16C1138.44 1854.79 1126.98 1830.38 1140.97 1813.72C1143.76 1785.03 1156.39 1764.45 1174.36 1748.29C1175.97 1746.47 1177.61 1744.65 1179.29 1742.83C1180.28 1730.09 1181.73 1719.03 1183.78 1709.24C1185.94 1692.53 1189.35 1681.31 1197.33 1672.66C1203.73 1661.9 1212.07 1652.74 1222.82 1643.62L1234.34 1644.99C1230.26 1637.77 1231.12 1631.11 1237.6 1625.12C1254.11 1613.88 1270.3 1608.16 1290.53 1605.71L1312.91 1584.13C1324.58 1579.38 1336.69 1572.59 1349.14 1564.21L1356.97 1558.76C1369.7 1549.61 1382.77 1538.91 1396.08 1527.09L1408.4 1529.13C1410.74 1527.79 1413.06 1526.4 1415.35 1524.97L1475.33 1472.35C1482.82 1464.11 1490.47 1455.2 1498.45 1445.59C1501.42 1445.92 1504.48 1445.75 1507.59 1445.16L1538.23 1428.69C1541.35 1426.05 1544.31 1423.26 1547.04 1420.44C1550.3 1420.01 1553.55 1419.53 1556.8 1418.97L1609.87 1396.11C1611.95 1394.64 1614.26 1393.63 1616.81 1393.12L1617.17 1392.96L1617.32 1393.03C1624.32 1391.83 1633.13 1394.31 1644.14 1401.27L1680.62 1450.43C1677.08 1465.29 1684.66 1477.49 1700.4 1499.94C1705.32 1514.57 1712.9 1529.35 1719.34 1541.63L1741.61 1574.24C1744.85 1576.89 1747.82 1579.44 1750.05 1583.44C1752.5 1587.81 1754.48 1593.7 1756.44 1600.06L1771.27 1630.58L1762.61 1701.37L1755.78 1708.7L1752.16 1714.82C1752.62 1731.25 1753.12 1747.66 1753.03 1764.68L1753.27 1771.81L1748.01 1793.66L1748.95 1795.63C1754.1 1801.97 1757.82 1808.01 1759.8 1813.7C1757.97 1835.74 1753.54 1851.44 1747.73 1863.79C1731.98 1876.1 1715.09 1890.56 1697.22 1906.88C1688.91 1920.83 1684.13 1935 1692.69 1950.04C1693.36 1956.62 1690.57 1965.15 1682.49 1978.43L1638.64 2018.83C1615.82 2047.99 1596.98 2079.84 1566.14 2103.87C1555.47 2125.88 1536.22 2144.57 1522.41 2165.71C1508.85 2186.47 1505.21 2215.43 1484.13 2231.54L1482.24 2234.95L1477.13 2231.55C1454.71 2221.75 1434.45 2210.16 1417.75 2195.61C1405.34 2196.73 1395.76 2195.98 1389.13 2193.28L1387.04 2193.35C1378.11 2184.98 1369.14 2176.61 1361.62 2167.79L1346.06 2152.45L1342.96 2138.64C1313.62 2117.68 1289.25 2093.21 1268.27 2066.36C1265.52 2063.38 1262.81 2060.37 1260.12 2057.35Z" fill="black" fill-opacity="0.2"/>
<path fill-rule="evenodd" clip-rule="evenodd" d="M1900.58 1396.82C1908.52 1388.88 1920.35 1388.86 1937.53 1399.71L1974.01 1448.88C1970.47 1463.73 1978.05 1475.94 1993.78 1498.39C2001.68 1521.82 2016.37 1545.67 2022.32 1558.95C2029.49 1571.17 2038.38 1572.81 2043.44 1581.88C2050.02 1593.67 2053.23 1616.43 2061.82 1629.68C2054.38 1655.33 2053.9 1680.38 2053.92 1699.11L2045.55 1713.26C2046.08 1732.09 2046.65 1750.89 2046.33 1770.61L2037.71 1788.71C2045.28 1797.02 2050.66 1804.87 2053.19 1812.15C2051.36 1834.18 2046.93 1849.89 2041.12 1862.23C2025.37 1874.54 2008.48 1889 1990.6 1905.33C1982.3 1919.27 1977.52 1933.44 1986.08 1948.48C1986.75 1955.07 1983.96 1963.6 1975.88 1976.87L1932.03 2017.27C1909.21 2046.44 1890.37 2078.28 1859.52 2102.31C1848.86 2124.32 1829.61 2143.01 1815.8 2164.15C1801.69 2185.75 1798.32 2216.22 1774.89 2231.87C1750.73 2221.68 1728.92 2209.55 1711.13 2194.06C1691.31 2195.85 1678.71 2192.86 1673.83 2184.78L1639.45 2150.89L1636.35 2137.08C1605.5 2115.04 1580.14 2089.13 1558.44 2060.63C1521.84 2025.49 1500.15 1988.14 1478.6 1950.77C1451.72 1937.53 1453.24 1909.97 1456.34 1881.6C1431.83 1853.23 1420.37 1828.83 1434.36 1812.16C1437.39 1780.97 1452.05 1759.37 1472.57 1742.61C1476.49 1690.14 1488.02 1665.96 1516.21 1642.06L1527.73 1643.44C1523.65 1636.21 1524.51 1629.56 1530.99 1623.56C1547.5 1612.32 1563.69 1606.6 1583.92 1604.15L1606.3 1582.57C1632.22 1572.02 1660.27 1551.47 1689.47 1525.53L1701.79 1527.57C1733.63 1509.37 1760.13 1482.2 1791.84 1444.03C1807.99 1445.83 1827.03 1432.75 1840.43 1418.89C1861.06 1416.13 1881.46 1411.59 1900.58 1396.82Z" fill="#DAC9C2" stroke="black" stroke-width="5.67983" stroke-miterlimit="1.5" stroke-linecap="round" stroke-linejoin="round"/>
<path fill-rule="evenodd" clip-rule="evenodd" d="M2012.73 1540.08L1997.05 1557.48L1988.39 1559.69L2000.28 1570.43L2010.21 1632.78L1995.31 1657.69L1988.59 1736.75L1966.32 1812.63L1979.87 1820.12L1996.08 1844.92L2042.92 1844.89L2052.38 1815.1L2041.4 1792.11L2046.66 1770.26L2044.69 1711.95L2056 1699.81L2064.66 1629.02L2042.92 1584.27L2012.73 1540.08Z" fill="white" fill-opacity="0.3"/>
<path fill-rule="evenodd" clip-rule="evenodd" d="M1938.43 2002.69L1904.38 1969.39L1874.4 1936.79L1867.66 1907.21L1853.03 1886.03L1841.46 1921.6L1835.77 1931.35L1830.13 1959.83L1826.91 1988.3L1811.82 1999.97L1874.02 2072.68L1853.85 2074.67L1786.4 2033.56C1774.2 2035.18 1763.19 2032.51 1753.87 2023.76C1718.63 2024.63 1690.51 2010.12 1668.15 1982.83C1644.35 1981.41 1623.14 1981.98 1578.9 1931.86C1558.59 1917.34 1550.05 1900.46 1552.91 1881.28C1539.47 1862.75 1531.15 1843.88 1539.16 1823.97L1556.18 1768.53L1551.22 1740.94C1556.65 1721.17 1569.35 1714.71 1582.67 1709.38L1623.01 1654.87C1631.64 1646.18 1634.93 1635.97 1629.79 1623.37L1680.6 1575.07L1715.98 1554.66C1745.82 1525.17 1783.51 1510.54 1826.16 1505.31C1841.54 1475.83 1863.38 1450.16 1891.47 1428.14L1927.99 1430.47C1933.92 1428.08 1931.31 1421.54 1924.19 1412.81L1933.54 1401.19L1910.56 1391.41L1847.73 1418.47L1797.72 1445.36L1702.72 1528.68L1691.29 1528.7L1608.94 1586.04L1588.71 1604.3C1553.77 1608.89 1527.81 1618.07 1530.89 1642.05C1491.18 1658.95 1477.62 1695.42 1474.28 1739.54C1452.92 1762.4 1436.54 1785.71 1438.25 1810.63C1419.45 1830.52 1443.34 1864.88 1459.72 1882.76C1458.46 1907.2 1455.26 1925.51 1482.02 1948.6C1517.85 2019.98 1571.62 2082.17 1638.45 2138.41L1680.43 2191.79L1711.59 2190.76L1775.63 2233.39L1810.36 2171.01L1858.39 2101.01C1886.4 2078.31 1913 2044.93 1938.43 2002.69Z" fill="black" fill-opacity="0.2"/>
<path fill-rule="evenodd" clip-rule="evenodd" d="M1711.59 2190.76C1707.78 2185.97 1694.46 2156.68 1688.8 2130.6C1685.81 2116.84 1669.13 2115.98 1660.98 2106.68C1653.01 2097.59 1643.4 2086.08 1635.58 2082.92C1626.27 2079.16 1618.88 2084.08 1611.47 2075.15C1598.9 2060 1590.99 2057 1590.9 2050.62C1590.9 2050.62 1600.87 2039.34 1600.21 2023.33C1599.49 2005.62 1587.99 1982.15 1584.67 1962.49C1582.32 1948.61 1580.25 1940.56 1572.53 1931.81C1552.22 1917.3 1550.05 1900.46 1552.91 1881.28C1539.47 1862.75 1531.15 1843.88 1539.16 1823.97L1556.18 1768.53L1551.22 1740.94C1552.48 1736.33 1556.78 1718.72 1548.98 1711.62C1540.7 1704.09 1520.15 1706.88 1516.84 1695.23C1510.25 1672.08 1502.36 1648.16 1503.96 1660.64C1475.02 1682.5 1484.33 1698.51 1474.28 1739.54C1452.92 1762.4 1436.54 1785.71 1438.25 1810.63C1420.52 1838.59 1436.48 1858.87 1456.86 1876.66C1455.1 1904.7 1453.67 1936.87 1482.02 1948.6C1516.42 2024.64 1575.38 2082.89 1638.45 2138.4C1644.86 2158.6 1662.7 2175.18 1680.43 2191.79L1711.59 2190.76Z" fill="black" fill-opacity="0.2"/>
<path fill-rule="evenodd" clip-rule="evenodd" d="M1711.59 2190.76C1707.78 2185.97 1694.46 2156.68 1688.8 2130.6C1685.81 2116.84 1669.13 2115.98 1660.98 2106.68C1653.01 2097.59 1643.4 2086.08 1635.58 2082.92C1626.26 2079.16 1618.88 2084.08 1611.47 2075.15C1598.89 2060 1587.32 2055.64 1587.23 2049.26C1587.23 2049.26 1542.37 2013.59 1512.1 1968.43C1504.3 1956.79 1495.59 1950.85 1489.96 1938.75C1482.24 1922.15 1499.03 1911.33 1504.01 1894.45C1509.04 1877.37 1504.12 1861.46 1505.96 1845.45C1507.15 1835.2 1507.6 1824.15 1509.45 1815.64C1510.58 1810.48 1514.02 1808 1513.28 1802.19C1510.59 1781.19 1506.39 1760.98 1508.56 1743.01C1510.43 1727.5 1515.96 1709.1 1515.36 1696.76C1514.02 1669.1 1500.37 1658.08 1500.97 1662.79C1479.1 1676.4 1477.62 1695.42 1474.28 1739.54C1452.92 1762.4 1436.54 1785.71 1438.25 1810.63C1422.63 1837.99 1437.56 1858.64 1456.86 1876.66C1454.04 1904.07 1448.75 1937.89 1482.01 1948.6C1519.61 2019.22 1577.26 2079.7 1638.45 2138.41C1644.86 2158.61 1662.7 2175.18 1680.43 2191.8L1711.59 2190.76Z" fill="black" fill-opacity="0.2"/>
</g>
<defs>
<clipPath id="clip0_1502_5726">
<rect width="2160" height="2700" fill="white"/>
</clipPath>
</defs>
</svg>
