<svg width="2160" height="2700" viewBox="0 0 2160 2700" fill="none" xmlns="http://www.w3.org/2000/svg">
<g clip-path="url(#clip0_626_1685)">
<path d="M1522.13 368.952H1602.21V390.741H1522.13V368.952Z" fill="#FF050B"/>
<path fill-rule="evenodd" clip-rule="evenodd" d="M1522.13 368.952H1602.21V390.742H1522.13V368.952ZM1526.13 372.952V386.742H1598.21V372.952H1526.13Z" fill="black"/>
<path d="M1322.82 655.993L1362.21 586.27L1381.18 596.987L1341.79 666.711L1322.82 655.993Z" fill="#FF050B"/>
<path fill-rule="evenodd" clip-rule="evenodd" d="M1322.82 655.994L1362.21 586.27L1381.18 596.988L1341.79 666.712L1322.82 655.994ZM1328.27 654.478L1340.27 661.261L1375.73 598.503L1363.72 591.72L1328.27 654.478Z" fill="black"/>
<path d="M476.666 911.281L492.273 832.736L513.645 836.983L498.037 915.528L476.666 911.281Z" fill="#FF050B"/>
<path fill-rule="evenodd" clip-rule="evenodd" d="M476.665 911.282L492.273 832.736L513.646 836.983L498.038 915.529L476.665 911.282ZM481.368 908.138L494.894 910.826L508.943 840.127L495.417 837.439L481.368 908.138Z" fill="black"/>
<path d="M676.331 420.603L660.308 342.142L681.656 337.782L697.679 416.243L676.331 420.603Z" fill="#FF050B"/>
<path fill-rule="evenodd" clip-rule="evenodd" d="M676.331 420.604L660.308 342.142L681.657 337.782L697.68 416.244L676.331 420.604ZM679.45 415.884L692.961 413.125L678.538 342.501L665.027 345.26L679.45 415.884Z" fill="black"/>
<path d="M1766.97 1206.29L1750.95 1127.83L1772.29 1123.47L1788.32 1201.93L1766.97 1206.29Z" fill="#FF050B"/>
<path fill-rule="evenodd" clip-rule="evenodd" d="M1766.97 1206.29L1750.95 1127.83L1772.3 1123.47L1788.32 1201.93L1766.97 1206.29ZM1770.09 1201.57L1783.6 1198.81L1769.18 1128.19L1755.67 1130.95L1770.09 1201.57Z" fill="black"/>
<path d="M1842.49 583.446L1826.47 504.984L1847.82 500.625L1863.84 579.086L1842.49 583.446Z" fill="#FF050B"/>
<path fill-rule="evenodd" clip-rule="evenodd" d="M1842.49 583.446L1826.47 504.984L1847.82 500.624L1863.84 579.087L1842.49 583.446ZM1845.61 578.727L1859.12 575.968L1844.7 505.344L1831.19 508.103L1845.61 578.727Z" fill="black"/>
<path d="M398.922 1325.79L382.898 1247.33L404.247 1242.97L420.27 1321.43L398.922 1325.79Z" fill="#FF050B"/>
<path fill-rule="evenodd" clip-rule="evenodd" d="M398.922 1325.79L382.898 1247.33L404.248 1242.97L420.271 1321.43L398.922 1325.79ZM402.041 1321.07L415.551 1318.31L401.129 1247.69L387.618 1250.45L402.041 1321.07Z" fill="black"/>
<path d="M1577.96 2254.79L1561.94 2176.33L1583.29 2171.97L1599.31 2250.43L1577.96 2254.79Z" fill="#FF050B"/>
<path fill-rule="evenodd" clip-rule="evenodd" d="M1577.96 2254.79L1561.94 2176.33L1583.29 2171.97L1599.31 2250.43L1577.96 2254.79ZM1581.08 2250.07L1594.59 2247.31L1580.17 2176.69L1566.66 2179.45L1581.08 2250.07Z" fill="black"/>
<path d="M1838.45 1942.04L1899.95 1890.76L1913.91 1907.5L1852.4 1958.78L1838.45 1942.04Z" fill="#FF050B"/>
<path fill-rule="evenodd" clip-rule="evenodd" d="M1838.45 1942.04L1899.95 1890.76L1913.91 1907.5L1852.4 1958.78L1838.45 1942.04ZM1844.08 1942.55L1852.91 1953.14L1908.27 1906.99L1899.44 1896.39L1844.08 1942.55Z" fill="black"/>
<path d="M201.132 972.612L262.639 921.33L276.592 938.066L215.085 989.347L201.132 972.612Z" fill="#FF050B"/>
<path fill-rule="evenodd" clip-rule="evenodd" d="M201.131 972.613L262.639 921.33L276.593 938.066L215.085 989.349L201.131 972.613ZM206.765 973.123L215.596 983.715L270.959 937.555L262.128 926.964L206.765 973.123Z" fill="black"/>
<path d="M801.55 273.803L863.057 222.521L877.01 239.257L815.503 290.539L801.55 273.803Z" fill="#FF050B"/>
<path fill-rule="evenodd" clip-rule="evenodd" d="M801.549 273.804L863.057 222.521L877.01 239.258L815.503 290.54L801.549 273.804ZM807.183 274.315L816.014 284.906L871.377 238.747L862.546 228.155L807.183 274.315Z" fill="black"/>
<path d="M1732.65 280.988L1740.54 201.296L1762.22 203.441L1754.34 283.133L1732.65 280.988Z" fill="#00A8E4"/>
<path fill-rule="evenodd" clip-rule="evenodd" d="M1732.65 280.988L1740.54 201.296L1762.22 203.441L1754.34 283.134L1732.65 280.988ZM1737.03 277.401L1750.75 278.759L1757.85 207.028L1744.12 205.67L1737.03 277.401Z" fill="black"/>
<path d="M422.248 400.649L346.445 374.825L353.472 354.2L429.274 380.024L422.248 400.649Z" fill="#00A8E4"/>
<path fill-rule="evenodd" clip-rule="evenodd" d="M422.249 400.649L346.445 374.825L353.472 354.199L429.275 380.024L422.249 400.649ZM419.752 395.573L424.199 382.52L355.969 359.276L351.522 372.329L419.752 395.573Z" fill="black"/>
<path d="M1888.46 1568.41L1812.66 1542.59L1819.69 1521.96L1895.49 1547.79L1888.46 1568.41Z" fill="#00A8E4"/>
<path fill-rule="evenodd" clip-rule="evenodd" d="M1888.47 1568.41L1812.66 1542.59L1819.69 1521.96L1895.49 1547.79L1888.47 1568.41ZM1885.97 1563.34L1890.42 1550.28L1822.19 1527.04L1817.74 1540.09L1885.97 1563.34Z" fill="black"/>
<path d="M911.028 935.715L835.226 909.891L842.252 889.265L918.055 915.089L911.028 935.715Z" fill="#00A8E4"/>
<path fill-rule="evenodd" clip-rule="evenodd" d="M911.029 935.715L835.226 909.891L842.252 889.265L918.056 915.089L911.029 935.715ZM908.532 930.639L912.979 917.585L844.749 894.341L840.302 907.394L908.532 930.639Z" fill="black"/>
<path d="M1470.15 2153.62L1390.13 2150.33L1391.03 2128.56L1471.04 2131.85L1470.15 2153.62Z" fill="#00A8E4"/>
<path fill-rule="evenodd" clip-rule="evenodd" d="M1470.15 2153.62L1390.13 2150.33L1391.03 2128.56L1471.04 2131.85L1470.15 2153.62ZM1466.32 2149.46L1466.88 2135.68L1394.86 2132.72L1394.29 2146.5L1466.32 2149.46Z" fill="black"/>
<path d="M578.714 2158.78L553.41 2234.76L532.737 2227.87L558.041 2151.89L578.714 2158.78Z" fill="#00A8E4"/>
<path fill-rule="evenodd" clip-rule="evenodd" d="M578.714 2158.78L553.41 2234.76L532.737 2227.87L558.04 2151.89L578.714 2158.78ZM573.655 2161.31L560.572 2156.95L537.796 2225.34L550.879 2229.7L573.655 2161.31Z" fill="black"/>
<path d="M277.081 1157.89L251.777 1233.86L231.104 1226.98L256.408 1151L277.081 1157.89Z" fill="#00A8E4"/>
<path fill-rule="evenodd" clip-rule="evenodd" d="M277.081 1157.88L251.777 1233.86L231.104 1226.98L256.408 1151L277.081 1157.88ZM272.022 1160.42L258.939 1156.06L236.163 1224.45L249.246 1228.8L272.022 1160.42Z" fill="black"/>
<path d="M1610.59 678.119L1659.58 741.47L1642.34 754.798L1593.36 691.448L1610.59 678.119Z" fill="#00A8E4"/>
<path fill-rule="evenodd" clip-rule="evenodd" d="M1610.59 678.119L1659.58 741.47L1642.34 754.799L1593.36 691.448L1610.59 678.119ZM1609.88 683.73L1598.97 692.166L1643.06 749.188L1653.97 740.752L1609.88 683.73Z" fill="black"/>
<path d="M1428.26 481.455L1477.24 544.806L1460.01 558.134L1411.02 494.784L1428.26 481.455Z" fill="#F2E83A"/>
<path fill-rule="evenodd" clip-rule="evenodd" d="M1428.26 481.455L1477.24 544.806L1460 558.135L1411.02 494.784L1428.26 481.455ZM1427.54 487.066L1416.63 495.502L1460.72 552.524L1471.63 544.088L1427.54 487.066Z" fill="black"/>
<path d="M409.291 158.118L427.728 236.048L406.524 241.064L388.087 163.135L409.291 158.118Z" fill="#F2E83A"/>
<path fill-rule="evenodd" clip-rule="evenodd" d="M409.291 158.118L427.728 236.048L406.523 241.065L388.086 163.134L409.291 158.118ZM406.319 162.931L392.9 166.106L409.495 236.251L422.914 233.076L406.319 162.931Z" fill="black"/>
<path d="M367.475 1074.26L335.321 1147.61L315.366 1138.86L347.519 1065.51L367.475 1074.26Z" fill="#F2E83A"/>
<path fill-rule="evenodd" clip-rule="evenodd" d="M367.475 1074.26L335.321 1147.61L315.365 1138.86L347.519 1065.51L367.475 1074.26ZM362.205 1076.32L349.576 1070.78L320.634 1136.8L333.264 1142.34L362.205 1076.32Z" fill="black"/>
<path d="M1603.9 1320.94L1571.75 1394.28L1551.79 1385.53L1583.95 1312.19L1603.9 1320.94Z" fill="#F2E83A"/>
<path fill-rule="evenodd" clip-rule="evenodd" d="M1603.9 1320.94L1571.75 1394.28L1551.79 1385.53L1583.95 1312.19L1603.9 1320.94ZM1598.63 1322.99L1586 1317.46L1557.06 1383.47L1569.69 1389.01L1598.63 1322.99Z" fill="black"/>
<path d="M1417.74 2280.77L1385.58 2354.11L1365.63 2345.36L1397.78 2272.02L1417.74 2280.77Z" fill="#F2E83A"/>
<path fill-rule="evenodd" clip-rule="evenodd" d="M1417.74 2280.77L1385.58 2354.11L1365.63 2345.36L1397.78 2272.02L1417.74 2280.77ZM1412.47 2282.83L1399.84 2277.29L1370.9 2343.31L1383.53 2348.84L1412.47 2282.83Z" fill="black"/>
<path d="M705.314 2142.92L769.383 2190.97L756.311 2208.4L692.242 2160.36L705.314 2142.92Z" fill="#F2E83A"/>
<path fill-rule="evenodd" clip-rule="evenodd" d="M705.313 2142.92L769.383 2190.97L756.31 2208.4L692.241 2160.36L705.313 2142.92ZM706.114 2148.52L697.841 2159.56L755.51 2202.8L763.783 2191.77L706.114 2148.52Z" fill="black"/>
<path d="M1887.8 1203.2L1951.87 1251.24L1938.8 1268.67L1874.73 1220.63L1887.8 1203.2Z" fill="#F2E83A"/>
<path fill-rule="evenodd" clip-rule="evenodd" d="M1887.8 1203.19L1951.87 1251.24L1938.8 1268.67L1874.73 1220.63L1887.8 1203.19ZM1888.6 1208.79L1880.33 1219.83L1938 1263.07L1946.27 1252.04L1888.6 1208.79Z" fill="black"/>
<path d="M581.364 417.111L645.434 465.153L632.362 482.586L568.293 434.544L581.364 417.111Z" fill="#F2E83A"/>
<path fill-rule="evenodd" clip-rule="evenodd" d="M581.364 417.111L645.434 465.153L632.361 482.587L568.291 434.544L581.364 417.111ZM582.164 422.711L573.892 433.743L631.561 476.986L639.833 465.954L582.164 422.711Z" fill="black"/>
<path d="M489.237 223.565H388.539V250.964H489.237V223.565Z" fill="#FF050B"/>
<path fill-rule="evenodd" clip-rule="evenodd" d="M489.238 223.565V250.965H388.539V223.565H489.238ZM485.238 227.565H392.539V246.965H485.238V227.565Z" fill="black"/>
<path d="M739.868 584.508L690.337 496.834L666.482 510.311L716.013 597.985L739.868 584.508Z" fill="#FF050B"/>
<path fill-rule="evenodd" clip-rule="evenodd" d="M739.868 584.509L716.012 597.986L666.481 510.311L690.337 496.834L739.868 584.509ZM734.418 582.994L688.822 502.284L671.931 511.827L717.527 592.536L734.418 582.994Z" fill="black"/>
<path d="M1803.86 905.521L1784.24 806.754L1757.36 812.094L1776.99 910.861L1803.86 905.521Z" fill="#FF050B"/>
<path fill-rule="evenodd" clip-rule="evenodd" d="M1803.86 905.522L1776.99 910.862L1757.36 812.094L1784.24 806.754L1803.86 905.522ZM1799.16 902.378L1781.09 811.457L1762.07 815.238L1780.13 906.159L1799.16 902.378Z" fill="black"/>
<path d="M1552.79 288.515L1572.94 189.854L1546.1 184.371L1525.95 283.033L1552.79 288.515Z" fill="#FF050B"/>
<path fill-rule="evenodd" clip-rule="evenodd" d="M1552.79 288.516L1525.95 283.034L1546.1 184.371L1572.94 189.854L1552.79 288.516ZM1549.68 283.797L1568.22 192.972L1549.22 189.091L1530.67 279.915L1549.68 283.797Z" fill="black"/>
<path d="M181.364 1276.48L201.513 1177.82L174.668 1172.34L154.519 1271L181.364 1276.48Z" fill="#FF050B"/>
<path fill-rule="evenodd" clip-rule="evenodd" d="M181.364 1276.48L154.518 1271L174.667 1172.34L201.513 1177.82L181.364 1276.48ZM178.245 1271.77L196.793 1180.94L177.786 1177.06L159.238 1267.88L178.245 1271.77Z" fill="black"/>
<path d="M86.3966 493.282L106.545 394.62L79.7 389.138L59.5516 487.8L86.3966 493.282Z" fill="#FF050B"/>
<path fill-rule="evenodd" clip-rule="evenodd" d="M86.3964 493.283L59.5504 487.8L79.699 389.138L106.545 394.62L86.3964 493.283ZM83.2776 488.563L101.825 397.739L82.8178 393.857L64.2699 484.682L83.2776 488.563Z" fill="black"/>
<path d="M1901.62 1426.75L1921.77 1328.09L1894.93 1322.61L1874.78 1421.27L1901.62 1426.75Z" fill="#FF050B"/>
<path fill-rule="evenodd" clip-rule="evenodd" d="M1901.62 1426.75L1874.78 1421.27L1894.93 1322.61L1921.77 1328.09L1901.62 1426.75ZM1898.51 1422.03L1917.05 1331.21L1898.05 1327.32L1879.5 1418.15L1898.51 1422.03Z" fill="black"/>
<path d="M419.032 2594.92L439.181 2496.26L412.336 2490.78L392.187 2589.44L419.032 2594.92Z" fill="#FF050B"/>
<path fill-rule="evenodd" clip-rule="evenodd" d="M419.032 2594.92L392.186 2589.44L412.335 2490.78L439.181 2496.26L419.032 2594.92ZM415.913 2590.2L434.461 2499.38L415.454 2495.5L396.906 2586.32L415.913 2590.2Z" fill="black"/>
<path d="M91.4827 2201.66L14.1406 2137.17L-3.40509 2158.22L73.937 2222.7L91.4827 2201.66Z" fill="#FF050B"/>
<path fill-rule="evenodd" clip-rule="evenodd" d="M91.4835 2201.66L73.9371 2222.7L-3.40574 2158.22L14.1406 2137.17L91.4835 2201.66ZM85.8498 2202.17L14.6514 2142.81L2.22801 2157.71L73.4264 2217.07L85.8498 2202.17Z" fill="black"/>
<path d="M2150.34 982.642L2073 918.157L2055.45 939.201L2132.79 1003.69L2150.34 982.642Z" fill="#FF050B"/>
<path fill-rule="evenodd" clip-rule="evenodd" d="M2150.34 982.643L2132.79 1003.69L2055.45 939.202L2073 918.157L2150.34 982.643ZM2144.7 983.153L2073.51 923.791L2061.08 938.691L2132.28 998.054L2144.7 983.153Z" fill="black"/>
<path d="M1395.34 103.92L1318 39.4355L1300.45 60.4796L1377.79 124.964L1395.34 103.92Z" fill="#FF050B"/>
<path fill-rule="evenodd" clip-rule="evenodd" d="M1395.34 103.921L1377.79 124.966L1300.45 60.4804L1318 39.4355L1395.34 103.921ZM1389.7 104.432L1318.51 45.0693L1306.08 59.9697L1377.28 119.332L1389.7 104.432Z" fill="black"/>
<path d="M224.516 112.955L214.603 12.7461L187.337 15.4436L197.251 115.652L224.516 112.955Z" fill="#00A8E4"/>
<path fill-rule="evenodd" clip-rule="evenodd" d="M224.517 112.956L197.25 115.653L187.336 15.4437L214.603 12.7461L224.517 112.956ZM220.142 109.369L211.016 17.1205L191.71 19.0304L200.836 111.279L220.142 109.369Z" fill="black"/>
<path d="M1872.29 263.423L1967.61 230.95L1958.78 205.015L1863.46 237.487L1872.29 263.423Z" fill="#00A8E4"/>
<path fill-rule="evenodd" clip-rule="evenodd" d="M1872.29 263.423L1863.46 237.487L1958.78 205.014L1967.61 230.95L1872.29 263.423ZM1874.79 258.347L1962.54 228.454L1956.28 210.09L1868.53 239.983L1874.79 258.347Z" fill="black"/>
<path d="M28.5877 1731.83L123.906 1699.36L115.071 1673.43L19.7522 1705.9L28.5877 1731.83Z" fill="#00A8E4"/>
<path fill-rule="evenodd" clip-rule="evenodd" d="M28.5868 1731.83L19.751 1705.9L115.07 1673.43L123.906 1699.36L28.5868 1731.83ZM31.0832 1726.76L118.83 1696.86L112.574 1678.5L24.8272 1708.39L31.0832 1726.76Z" fill="black"/>
<path d="M1257.67 936.245L1352.99 903.772L1344.16 877.837L1248.84 910.31L1257.67 936.245Z" fill="#00A8E4"/>
<path fill-rule="evenodd" clip-rule="evenodd" d="M1257.67 936.245L1248.84 910.309L1344.16 877.836L1352.99 903.772L1257.67 936.245ZM1260.17 931.169L1347.91 901.276L1341.66 882.912L1253.91 912.806L1260.17 931.169Z" fill="black"/>
<path d="M554.605 2467.71L655.218 2463.57L654.093 2436.2L553.48 2440.33L554.605 2467.71Z" fill="#00A8E4"/>
<path fill-rule="evenodd" clip-rule="evenodd" d="M554.604 2467.71L553.479 2440.33L654.093 2436.2L655.218 2463.57L554.604 2467.71ZM558.436 2463.55L651.057 2459.74L650.26 2440.36L557.64 2444.16L558.436 2463.55Z" fill="black"/>
<path d="M1675.54 2474.2L1707.36 2569.73L1733.36 2561.08L1701.54 2465.54L1675.54 2474.2Z" fill="#00A8E4"/>
<path fill-rule="evenodd" clip-rule="evenodd" d="M1675.54 2474.19L1701.54 2465.54L1733.36 2561.08L1707.36 2569.73L1675.54 2474.19ZM1680.6 2476.73L1709.89 2564.68L1728.3 2558.55L1699.01 2470.6L1680.6 2476.73Z" fill="black"/>
<path d="M2054.83 1215.62L2086.65 1311.15L2112.65 1302.5L2080.83 1206.96L2054.83 1215.62Z" fill="#00A8E4"/>
<path fill-rule="evenodd" clip-rule="evenodd" d="M2054.83 1215.61L2080.83 1206.96L2112.65 1302.5L2086.65 1311.15L2054.83 1215.61ZM2059.89 1218.15L2089.18 1306.1L2107.59 1299.97L2078.3 1212.02L2059.89 1218.15Z" fill="black"/>
<path d="M378 612.33L316.401 691.99L338.076 708.751L399.674 629.09L378 612.33Z" fill="#00A8E4"/>
<path fill-rule="evenodd" clip-rule="evenodd" d="M378 612.329L399.676 629.09L338.077 708.751L316.401 691.99L378 612.329ZM378.718 617.94L322.013 691.273L337.359 703.14L394.065 629.808L378.718 617.94Z" fill="black"/>
<path d="M607.281 365.034L545.683 444.694L567.357 461.455L628.956 381.794L607.281 365.034Z" fill="#F2E83A"/>
<path fill-rule="evenodd" clip-rule="evenodd" d="M607.281 365.033L628.957 381.794L567.358 461.455L545.683 444.694L607.281 365.033ZM607.999 370.645L551.294 443.977L566.641 455.844L623.346 382.512L607.999 370.645Z" fill="black"/>
<path d="M1888.59 -41.5486L1865.4 56.4443L1892.07 62.7523L1915.25 -35.2406L1888.59 -41.5486Z" fill="#F2E83A"/>
<path fill-rule="evenodd" clip-rule="evenodd" d="M1888.59 -41.5496L1915.25 -35.2414L1892.07 62.7526L1865.4 56.4443L1888.59 -41.5496ZM1891.56 -36.7361L1870.22 53.4727L1889.09 57.9391L1910.44 -32.2697L1891.56 -36.7361Z" fill="black"/>
<path d="M1941.17 1110.46L1981.6 1202.69L2006.69 1191.69L1966.26 1099.46L1941.17 1110.46Z" fill="#F2E83A"/>
<path fill-rule="evenodd" clip-rule="evenodd" d="M1941.17 1110.46L1966.26 1099.46L2006.69 1191.69L1981.6 1202.69L1941.17 1110.46ZM1946.44 1112.52L1983.66 1197.42L2001.42 1189.63L1964.2 1104.73L1946.44 1112.52Z" fill="black"/>
<path d="M386.413 1420.64L426.845 1512.87L451.938 1501.87L411.507 1409.64L386.413 1420.64Z" fill="#F2E83A"/>
<path fill-rule="evenodd" clip-rule="evenodd" d="M386.413 1420.64L411.507 1409.64L451.939 1501.87L426.845 1512.87L386.413 1420.64ZM391.682 1422.7L428.902 1507.6L446.67 1499.81L409.45 1414.91L391.682 1422.7Z" fill="black"/>
<path d="M620.508 2627.6L660.939 2719.82L686.033 2708.82L645.601 2616.59L620.508 2627.6Z" fill="#F2E83A"/>
<path fill-rule="evenodd" clip-rule="evenodd" d="M620.507 2627.59L645.602 2616.59L686.034 2708.82L660.939 2719.82L620.507 2627.59ZM625.777 2629.65L662.997 2714.55L680.764 2706.76L643.544 2621.86L625.777 2629.65Z" fill="black"/>
<path d="M1516.35 2454.26L1435.79 2514.67L1452.22 2536.59L1532.79 2476.18L1516.35 2454.26Z" fill="#F2E83A"/>
<path fill-rule="evenodd" clip-rule="evenodd" d="M1516.35 2454.26L1532.79 2476.18L1452.22 2536.59L1435.79 2514.67L1516.35 2454.26ZM1515.55 2459.86L1441.39 2515.47L1453.02 2530.99L1527.19 2475.38L1515.55 2459.86Z" fill="black"/>
<path d="M29.4197 1272.59L-51.1445 1333L-34.7072 1354.92L45.857 1294.51L29.4197 1272.59Z" fill="#F2E83A"/>
<path fill-rule="evenodd" clip-rule="evenodd" d="M29.4205 1272.59L45.8584 1294.51L-34.7066 1354.92L-51.1445 1333L29.4205 1272.59ZM28.62 1278.19L-45.5446 1333.8L-33.9061 1349.32L40.2585 1293.71L28.62 1278.19Z" fill="black"/>
<path d="M1672.21 284.123L1591.65 344.534L1608.08 366.455L1688.65 306.044L1672.21 284.123Z" fill="#F2E83A"/>
<path fill-rule="evenodd" clip-rule="evenodd" d="M1672.21 284.123L1688.65 306.044L1608.08 366.456L1591.65 344.534L1672.21 284.123ZM1671.41 289.722L1597.25 345.335L1608.88 360.856L1683.05 305.244L1671.41 289.722Z" fill="black"/>
<path d="M489.237 2454.71H388.539V2427.31H489.237V2454.71Z" fill="#FF050B"/>
<path fill-rule="evenodd" clip-rule="evenodd" d="M489.238 2454.71H388.539V2427.31H489.238V2454.71ZM485.238 2450.71V2431.31H392.539V2450.71H485.238Z" fill="black"/>
<path d="M928.203 2223L878.672 2310.67L854.817 2297.19L904.348 2209.52L928.203 2223Z" fill="#FF050B"/>
<path fill-rule="evenodd" clip-rule="evenodd" d="M928.203 2222.99L878.672 2310.67L854.816 2297.19L904.347 2209.52L928.203 2222.99ZM922.753 2224.51L905.862 2214.97L860.266 2295.68L877.157 2305.22L922.753 2224.51Z" fill="black"/>
<path d="M1803.94 1530.85L1784.32 1629.62L1757.44 1624.28L1777.07 1525.51L1803.94 1530.85Z" fill="#FF050B"/>
<path fill-rule="evenodd" clip-rule="evenodd" d="M1803.94 1530.85L1784.32 1629.62L1757.44 1624.28L1777.07 1525.51L1803.94 1530.85ZM1799.24 1533.99L1780.21 1530.21L1762.15 1621.13L1781.17 1624.91L1799.24 1533.99Z" fill="black"/>
<path d="M1552.79 2389.76L1572.94 2488.42L1546.1 2493.9L1525.95 2395.24L1552.79 2389.76Z" fill="#FF050B"/>
<path fill-rule="evenodd" clip-rule="evenodd" d="M1552.79 2389.76L1572.94 2488.42L1546.1 2493.9L1525.95 2395.24L1552.79 2389.76ZM1549.68 2394.47L1530.67 2398.36L1549.22 2489.18L1568.22 2485.3L1549.68 2394.47Z" fill="black"/>
<path d="M181.364 1401.79L201.513 1500.45L174.668 1505.93L154.519 1407.27L181.364 1401.79Z" fill="#FF050B"/>
<path fill-rule="evenodd" clip-rule="evenodd" d="M181.364 1401.79L201.513 1500.45L174.667 1505.93L154.518 1407.27L181.364 1401.79ZM178.245 1406.51L159.238 1410.39L177.786 1501.21L196.793 1497.33L178.245 1406.51Z" fill="black"/>
<path d="M86.3966 2184.99L106.545 2283.65L79.7 2289.13L59.5516 2190.47L86.3966 2184.99Z" fill="#FF050B"/>
<path fill-rule="evenodd" clip-rule="evenodd" d="M86.3964 2184.99L106.545 2283.65L79.699 2289.13L59.5504 2190.47L86.3964 2184.99ZM83.2776 2189.71L64.2699 2193.59L82.8178 2284.41L101.825 2280.53L83.2776 2189.71Z" fill="black"/>
<path d="M1901.62 1251.52L1921.77 1350.18L1894.93 1355.66L1874.78 1257L1901.62 1251.52Z" fill="#FF050B"/>
<path fill-rule="evenodd" clip-rule="evenodd" d="M1901.62 1251.52L1921.77 1350.18L1894.93 1355.67L1874.78 1257L1901.62 1251.52ZM1898.51 1256.24L1879.5 1260.12L1898.05 1350.95L1917.05 1347.06L1898.51 1256.24Z" fill="black"/>
<path d="M419.032 83.3491L439.181 182.011L412.336 187.493L392.187 88.8312L419.032 83.3491Z" fill="#FF050B"/>
<path fill-rule="evenodd" clip-rule="evenodd" d="M419.032 83.3481L439.181 182.011L412.335 187.493L392.186 88.8305L419.032 83.3481ZM415.913 88.0675L396.906 91.9492L415.454 182.774L434.461 178.892L415.913 88.0675Z" fill="black"/>
<path d="M91.4827 476.611L14.1406 541.096L-3.40509 520.052L73.937 455.567L91.4827 476.611Z" fill="#FF050B"/>
<path fill-rule="evenodd" clip-rule="evenodd" d="M91.4835 476.61L14.1406 541.096L-3.40574 520.051L73.9371 455.565L91.4835 476.61ZM85.8498 476.1L73.4264 461.199L2.22801 520.562L14.6514 535.462L85.8498 476.1Z" fill="black"/>
<path d="M2150.34 1695.63L2073 1760.11L2055.45 1739.07L2132.79 1674.58L2150.34 1695.63Z" fill="#FF050B"/>
<path fill-rule="evenodd" clip-rule="evenodd" d="M2150.34 1695.63L2073 1760.11L2055.45 1739.07L2132.79 1674.58L2150.34 1695.63ZM2144.7 1695.12L2132.28 1680.22L2061.08 1739.58L2073.51 1754.48L2144.7 1695.12Z" fill="black"/>
<path d="M1395.34 2574.35L1318 2638.84L1300.45 2617.79L1377.79 2553.31L1395.34 2574.35Z" fill="#FF050B"/>
<path fill-rule="evenodd" clip-rule="evenodd" d="M1395.34 2574.35L1318 2638.84L1300.45 2617.79L1377.79 2553.31L1395.34 2574.35ZM1389.7 2573.84L1377.28 2558.94L1306.08 2618.3L1318.51 2633.2L1389.7 2573.84Z" fill="black"/>
<path d="M224.516 2565.32L214.603 2665.53L187.337 2662.83L197.251 2562.62L224.516 2565.32Z" fill="#00A8E4"/>
<path fill-rule="evenodd" clip-rule="evenodd" d="M224.517 2565.32L214.603 2665.53L187.336 2662.83L197.25 2562.62L224.517 2565.32ZM220.142 2568.9L200.836 2566.99L191.71 2659.24L211.016 2661.15L220.142 2568.9Z" fill="black"/>
<path d="M1872.29 2414.85L1967.61 2447.32L1958.78 2473.26L1863.46 2440.78L1872.29 2414.85Z" fill="#00A8E4"/>
<path fill-rule="evenodd" clip-rule="evenodd" d="M1872.29 2414.85L1967.61 2447.32L1958.78 2473.26L1863.46 2440.78L1872.29 2414.85ZM1874.79 2419.92L1868.53 2438.29L1956.28 2468.18L1962.54 2449.82L1874.79 2419.92Z" fill="black"/>
<path d="M28.5877 946.437L123.906 978.909L115.071 1004.84L19.7522 972.372L28.5877 946.437Z" fill="#00A8E4"/>
<path fill-rule="evenodd" clip-rule="evenodd" d="M28.5868 946.436L123.906 978.909L115.07 1004.85L19.751 972.373L28.5868 946.436ZM31.0832 951.512L24.8272 969.876L112.574 999.769L118.83 981.406L31.0832 951.512Z" fill="black"/>
<path d="M1257.67 1742.03L1352.99 1774.5L1344.16 1800.43L1248.84 1767.96L1257.67 1742.03Z" fill="#00A8E4"/>
<path fill-rule="evenodd" clip-rule="evenodd" d="M1257.67 1742.03L1352.99 1774.5L1344.16 1800.43L1248.84 1767.96L1257.67 1742.03ZM1260.17 1747.1L1253.91 1765.46L1341.66 1795.36L1347.91 1776.99L1260.17 1747.1Z" fill="black"/>
<path d="M554.605 210.562L655.218 214.696L654.093 242.072L553.48 237.938L554.605 210.562Z" fill="#00A8E4"/>
<path fill-rule="evenodd" clip-rule="evenodd" d="M554.604 210.562L655.218 214.696L654.093 242.073L553.479 237.939L554.604 210.562ZM558.436 214.723L557.64 234.106L650.26 237.912L651.057 218.529L558.436 214.723Z" fill="black"/>
<path d="M1675.54 204.076L1707.36 108.537L1733.36 117.195L1701.54 212.734L1675.54 204.076Z" fill="#00A8E4"/>
<path fill-rule="evenodd" clip-rule="evenodd" d="M1675.54 204.077L1707.36 108.537L1733.36 117.195L1701.54 212.735L1675.54 204.077ZM1680.6 201.546L1699.01 207.676L1728.3 119.726L1709.89 113.596L1680.6 201.546Z" fill="black"/>
<path d="M2054.83 1462.66L2086.65 1367.12L2112.65 1375.77L2080.83 1471.31L2054.83 1462.66Z" fill="#00A8E4"/>
<path fill-rule="evenodd" clip-rule="evenodd" d="M2054.83 1462.66L2086.65 1367.12L2112.65 1375.77L2080.83 1471.31L2054.83 1462.66ZM2059.89 1460.12L2078.3 1466.25L2107.59 1378.31L2089.18 1372.18L2059.89 1460.12Z" fill="black"/>
<path d="M471.139 1820.18L384.727 1768.48L398.794 1744.96L485.206 1796.67L471.139 1820.18Z" fill="#00A8E4"/>
<path fill-rule="evenodd" clip-rule="evenodd" d="M471.139 1820.18L384.727 1768.48L398.795 1744.96L485.207 1796.67L471.139 1820.18ZM469.761 1814.69L479.721 1798.04L400.173 1750.45L390.213 1767.1L469.761 1814.69Z" fill="black"/>
<path d="M607.281 2313.24L545.683 2233.58L567.357 2216.82L628.956 2296.48L607.281 2313.24Z" fill="#F2E83A"/>
<path fill-rule="evenodd" clip-rule="evenodd" d="M607.281 2313.24L545.683 2233.58L567.358 2216.82L628.957 2296.48L607.281 2313.24ZM607.999 2307.63L623.346 2295.76L566.641 2222.43L551.294 2234.29L607.999 2307.63Z" fill="black"/>
<path d="M1888.59 2719.82L1865.4 2621.83L1892.07 2615.52L1915.25 2713.51L1888.59 2719.82Z" fill="#F2E83A"/>
<path fill-rule="evenodd" clip-rule="evenodd" d="M1888.59 2719.82L1865.4 2621.83L1892.07 2615.52L1915.25 2713.51L1888.59 2719.82ZM1891.56 2715.01L1910.44 2710.54L1889.09 2620.33L1870.22 2624.8L1891.56 2715.01Z" fill="black"/>
<path d="M1941.17 1567.81L1981.6 1475.58L2006.69 1486.58L1966.26 1578.81L1941.17 1567.81Z" fill="#F2E83A"/>
<path fill-rule="evenodd" clip-rule="evenodd" d="M1941.17 1567.81L1981.6 1475.58L2006.69 1486.58L1966.26 1578.81L1941.17 1567.81ZM1946.44 1565.75L1964.2 1573.54L2001.42 1488.64L1983.66 1480.85L1946.44 1565.75Z" fill="black"/>
<path d="M386.413 1257.63L426.845 1165.4L451.938 1176.4L411.507 1268.63L386.413 1257.63Z" fill="#F2E83A"/>
<path fill-rule="evenodd" clip-rule="evenodd" d="M386.413 1257.63L426.845 1165.4L451.939 1176.4L411.507 1268.63L386.413 1257.63ZM391.682 1255.57L409.45 1263.36L446.67 1178.46L428.902 1170.67L391.682 1255.57Z" fill="black"/>
<path d="M620.508 50.6757L660.939 -41.5488L686.033 -30.5477L645.601 61.6768L620.508 50.6757Z" fill="#F2E83A"/>
<path fill-rule="evenodd" clip-rule="evenodd" d="M620.507 50.6767L660.939 -41.5488L686.034 -30.5473L645.602 61.6781L620.507 50.6767ZM625.777 48.6193L643.544 56.4087L680.764 -28.49L662.997 -36.2794L625.777 48.6193Z" fill="black"/>
<path d="M1516.35 224.011L1435.79 163.6L1452.22 141.679L1532.79 202.09L1516.35 224.011Z" fill="#F2E83A"/>
<path fill-rule="evenodd" clip-rule="evenodd" d="M1516.35 224.011L1435.79 163.6L1452.22 141.678L1532.79 202.09L1516.35 224.011ZM1515.55 218.411L1527.19 202.89L1453.02 147.278L1441.39 162.799L1515.55 218.411Z" fill="black"/>
<path d="M29.4197 1405.68L-51.1445 1345.27L-34.7072 1323.35L45.857 1383.76L29.4197 1405.68Z" fill="#F2E83A"/>
<path fill-rule="evenodd" clip-rule="evenodd" d="M29.4205 1405.68L-51.1445 1345.27L-34.7066 1323.35L45.8584 1383.76L29.4205 1405.68ZM28.62 1400.08L40.2585 1384.56L-33.9061 1328.95L-45.5446 1344.47L28.62 1400.08Z" fill="black"/>
<path d="M1672.21 2394.15L1591.65 2333.74L1608.08 2311.82L1688.65 2372.23L1672.21 2394.15Z" fill="#F2E83A"/>
<path fill-rule="evenodd" clip-rule="evenodd" d="M1672.21 2394.15L1591.65 2333.74L1608.08 2311.81L1688.65 2372.23L1672.21 2394.15ZM1671.41 2388.55L1683.05 2373.03L1608.88 2317.41L1597.25 2332.94L1671.41 2388.55Z" fill="black"/>
</g>
<defs>
<clipPath id="clip0_626_1685">
<rect width="2160" height="2700" fill="white"/>
</clipPath>
</defs>
</svg>
