<svg width="2160" height="2700" viewBox="0 0 2160 2700" fill="none" xmlns="http://www.w3.org/2000/svg">
<g clip-path="url(#clip0_607_5023)">
<path fill-rule="evenodd" clip-rule="evenodd" d="M559.448 136.106C610.311 218.037 611.114 301.746 576.22 386.723L458.669 473.725C421.658 492.398 384.326 487.45 346.782 466.888C328.03 429.575 276.68 382.087 282.869 350.679C286.387 332.829 260.29 330.009 248.978 315.57C235.018 297.751 220.492 280.224 205.53 262.923C206.89 215.069 224.526 173.481 246.914 133.722L383.682 71.7828C471.456 55.3213 486.326 75.2451 559.448 136.106Z" fill="#898D90" stroke="black" stroke-width="9" stroke-miterlimit="1.5" stroke-linecap="round" stroke-linejoin="round"/>
<path fill-rule="evenodd" clip-rule="evenodd" d="M465.517 70.6654L331.485 108.981L376.063 122.464L316.749 179.023L330.593 248.889L378.464 238.355L406.742 299.779L375.999 334.677L373.918 387.156L434.833 361.565L416.087 411.365L451.361 428.587L407.246 449.768L360.004 436.27L349.989 459.109C312.245 415.335 283.652 373.947 283.589 340.003C273.547 335.767 265.143 330.819 257.966 325.338C235.276 308.01 224.852 285.348 213.71 262.998C206.311 212.66 222.971 171.058 245.011 131.409L391.996 65.058L465.517 70.6654Z" fill="black" fill-opacity="0.3"/>
<path fill-rule="evenodd" clip-rule="evenodd" d="M578.092 181.424L540.43 291.127L580.325 273.911L580.469 336.793L551.392 344.931L472.926 356.966L517.911 378.571L509.312 395.735L479.977 401.053L474.628 422.267L456.749 449.131L462.386 473.794L582.894 386.134L578.092 181.424Z" fill="white" fill-opacity="0.3"/>
<path fill-rule="evenodd" clip-rule="evenodd" d="M851.4 220.997C883.824 238.422 884.924 256.038 889.555 290.795L882.325 351.882C873.634 365.105 860.341 370.574 844.006 370.918C805.911 366.37 772.137 358.663 758.447 330.324C749.788 314.233 758.872 302.18 758.711 284.764L781.004 233.174C806.91 211.019 815.623 214.78 851.4 220.997Z" fill="#898D90" stroke="black" stroke-width="6.00034" stroke-miterlimit="1.5" stroke-linecap="round" stroke-linejoin="round"/>
<path fill-rule="evenodd" clip-rule="evenodd" d="M807.866 217.226L777.254 258.922L794.172 268.019L779.273 281.395L797.152 301.875L827.254 300.207L807.077 318.098L823.354 332.922L836.733 325.083L847.486 328.419L856.011 299.054L859.037 332.183L860.751 353.744L842.552 358.271L843.586 367.733L788.107 356.401L761.167 328.792C749.137 313.546 761.071 302.728 760.815 285.415L782.475 229.366L807.866 217.226Z" fill="black" fill-opacity="0.3"/>
<path fill-rule="evenodd" clip-rule="evenodd" d="M850.877 224.158L870.138 240.733L884.539 262.616L878.718 278.848L870.647 287.075L864.816 310.538L883.812 309.123L884.234 316.439L875.541 323.782L877.81 331.819L877.008 344.11L883.568 351.197L888.913 294.711L850.877 224.158Z" fill="white" fill-opacity="0.3"/>
<path fill-rule="evenodd" clip-rule="evenodd" d="M674.543 437.472C683.97 451.152 680.78 458.453 675.475 473.364C673.505 481.872 669.612 489.881 659.979 496.402C653.764 499.92 647.299 499.376 640.669 496.147C626.31 486.468 614.337 476.41 614.682 462.209C610.807 452.5 614.996 448.768 624.18 443.97L643.766 427.85C656.869 429.14 659.233 433.379 674.543 437.472Z" fill="#898D90" stroke="black" stroke-width="6.00068" stroke-miterlimit="1.5" stroke-linecap="round" stroke-linejoin="round"/>
<path fill-rule="evenodd" clip-rule="evenodd" d="M657.84 426.983L636.953 437.415L632.382 447.708L621.743 460.169L636.088 458.764L648.519 464.3L647.198 476.243L650.828 479.799L645.906 484.975L654.69 483.691L650.933 492.702L642.692 490.768L641.157 494.781L621.216 478.794L616.09 462.155C614.403 453.553 621.424 451.669 624.891 444.665L645.142 426.624L657.84 426.983Z" fill="black" fill-opacity="0.3"/>
<path fill-rule="evenodd" clip-rule="evenodd" d="M673.681 438.633L661.88 451.709L668.649 467.972L657.041 471.786L669.391 479.539L668.052 482.563L663.048 483.72L662.302 487.415L659.446 492.185L660.619 496.383L674.41 474.803L677.808 453.686L673.681 438.633Z" fill="white" fill-opacity="0.3"/>
<path fill-rule="evenodd" clip-rule="evenodd" d="M205.834 384.254C213.244 394.354 211.921 398.927 209.996 408.389C209.576 413.892 207.871 418.87 202.335 422.282C198.695 424.022 194.491 423.015 189.914 420.194C179.736 412.285 171.052 404.36 169.863 394.882C166.413 387.994 168.731 385.91 174.15 383.608L185.123 374.754C193.662 376.919 195.6 379.993 205.834 384.254Z" fill="#898D90" stroke="black" stroke-width="3.8895" stroke-miterlimit="1.5" stroke-linecap="round" stroke-linejoin="round"/>
<path fill-rule="evenodd" clip-rule="evenodd" d="M194.071 375.571L181.698 380.485L179.786 386.926L174.194 394.217L183.263 394.7L191.792 399.642L192.129 407.51L194.812 410.252L192.167 413.231L197.678 413.243L196.161 418.906L190.679 416.793L190.092 419.328L175.704 406.64L170.762 394.986C168.825 389.056 173.145 388.492 174.675 384.144L185.884 374.07L194.071 375.571Z" fill="black" fill-opacity="0.3"/>
<path fill-rule="evenodd" clip-rule="evenodd" d="M205.396 384.947L199.119 392.535L205.079 404.1L198.006 405.502L206.703 411.922L206.144 413.815L203.046 414.093L202.934 416.493L201.575 419.405L202.745 422.333L209.455 409.248L209.54 395.44L205.396 384.947Z" fill="white" fill-opacity="0.3"/>
<path fill-rule="evenodd" clip-rule="evenodd" d="M158.548 291.971C165.145 294.067 165.948 297.441 167.987 304C169.5 307.452 170.25 311.262 168.725 316.137C167.565 319.046 165.289 320.634 162.275 321.349C155.066 321.976 148.549 321.82 145.05 316.865C141.3 314.605 141.735 312.178 143.55 308.016L145.925 297.124C150.585 293.97 152.445 294.772 158.548 291.971Z" fill="#898D90" stroke="black" stroke-width="2.56674" stroke-miterlimit="1.5" stroke-linecap="round" stroke-linejoin="round"/>
<path fill-rule="evenodd" clip-rule="evenodd" d="M150.357 292.965L146.106 302.267L147.213 307.044L146.866 314.229L151.251 309.811L156.769 308.295L159.37 312.745L161.475 312.966L161.164 316.088L163.742 313.238L164.792 317.353L161.576 318.952L162.089 320.747L151.429 320.748L145.502 316.459C142.756 313.979 144.598 311.407 143.962 308.059L146.068 296.327L150.357 292.965Z" fill="black" fill-opacity="0.3"/>
<path fill-rule="evenodd" clip-rule="evenodd" d="M158.559 292.605L157.984 300.319L164.359 304.027L161.491 308.518L167.546 307.783L167.873 309.185L166.513 310.954L167.206 312.424L167.476 314.84L168.932 315.955L168.001 304.785L163.753 296.625L158.559 292.605Z" fill="white" fill-opacity="0.3"/>
<path fill-rule="evenodd" clip-rule="evenodd" d="M687.351 171.621C688.766 178.397 686.221 180.753 681.509 185.75C679.244 188.764 676.294 191.288 671.298 192.353C668.194 192.772 665.693 191.569 663.591 189.294C659.504 183.322 656.44 177.569 659.038 172.088C659.165 167.711 661.492 166.898 666.01 166.436L676.664 163.155C681.7 165.666 681.915 167.68 687.351 171.621Z" fill="#898D90" stroke="black" stroke-width="2.56674" stroke-miterlimit="1.5" stroke-linecap="round" stroke-linejoin="round"/>
<path fill-rule="evenodd" clip-rule="evenodd" d="M682.463 164.975L672.272 165.839L668.655 169.15L662.225 172.375L668.227 174.026L672.258 178.088L669.659 182.539L670.5 184.481L667.628 185.744L671.376 186.59L668.308 189.526L665.335 187.509L664.023 188.838L658.788 179.552L659.613 172.283C660.425 168.672 663.57 169.014 666.174 166.816L677.428 162.889L682.463 164.975Z" fill="black" fill-opacity="0.3"/>
<path fill-rule="evenodd" clip-rule="evenodd" d="M686.805 171.941L679.803 175.229L679.703 182.603L674.383 182.311L677.997 187.224L676.936 188.198L674.727 187.881L673.788 189.207L671.815 190.628L671.559 192.444L680.832 186.148L685.854 178.44L686.805 171.941Z" fill="white" fill-opacity="0.3"/>
<path fill-rule="evenodd" clip-rule="evenodd" d="M91.6786 570.716C93.0932 577.491 90.5483 579.847 85.836 584.845C83.5715 587.858 80.6214 590.383 75.6255 591.448C72.5212 591.866 70.0203 590.664 67.9183 588.389C63.8309 582.417 60.767 576.663 63.3651 571.182C63.4917 566.805 65.8196 565.993 70.3369 565.53L80.9912 562.25C86.0273 564.761 86.242 566.775 91.6786 570.716Z" fill="#898D90" stroke="black" stroke-width="2.56674" stroke-miterlimit="1.5" stroke-linecap="round" stroke-linejoin="round"/>
<path fill-rule="evenodd" clip-rule="evenodd" d="M86.7903 564.069L76.5991 564.934L72.9817 568.244L66.5526 571.47L72.5543 573.121L76.5852 577.183L73.9861 581.634L74.8273 583.576L71.9551 584.839L75.7033 585.684L72.6347 588.62L69.6617 586.604L68.3504 587.932L63.1151 578.647L63.9397 571.377C64.7521 567.767 67.8969 568.109 70.5016 565.91L81.7554 561.983L86.7903 564.069Z" fill="black" fill-opacity="0.3"/>
<path fill-rule="evenodd" clip-rule="evenodd" d="M91.1318 571.036L84.1302 574.323L84.0304 581.698L78.7102 581.405L82.3244 586.319L81.2633 587.292L79.0541 586.976L78.1148 588.302L76.1423 589.723L75.8861 591.538L85.1594 585.243L90.1811 577.535L91.1318 571.036Z" fill="white" fill-opacity="0.3"/>
<path fill-rule="evenodd" clip-rule="evenodd" d="M1585.91 46.0038C1587.33 52.7795 1584.78 55.1355 1580.07 60.133C1577.81 63.1465 1574.86 65.6709 1569.86 66.7359C1566.76 67.1544 1564.26 65.9517 1562.15 63.6773C1558.07 57.7052 1555 51.9515 1557.6 46.4705C1557.73 42.0934 1560.06 41.281 1564.57 40.8185L1575.23 37.5381C1580.26 40.0489 1580.48 42.0628 1585.91 46.0038Z" fill="#898D90" stroke="black" stroke-width="2.56674" stroke-miterlimit="1.5" stroke-linecap="round" stroke-linejoin="round"/>
<path fill-rule="evenodd" clip-rule="evenodd" d="M1581.03 39.3575L1570.84 40.222L1567.22 43.5326L1560.79 46.7581L1566.79 48.4088L1570.82 52.4707L1568.22 56.922L1569.06 58.864L1566.19 60.1267L1569.94 60.9725L1566.87 63.9084L1563.9 61.892L1562.59 63.2204L1557.35 53.9349L1558.18 46.6655C1558.99 43.055 1562.13 43.3969 1564.74 41.1986L1575.99 37.2716L1581.03 39.3575Z" fill="black" fill-opacity="0.3"/>
<path fill-rule="evenodd" clip-rule="evenodd" d="M1585.37 46.3242L1578.37 49.6114L1578.27 56.986L1572.95 56.6933L1576.56 61.607L1575.5 62.5804L1573.29 62.2643L1572.35 63.5898L1570.38 65.011L1570.12 66.8265L1579.4 60.5307L1584.42 52.8226L1585.37 46.3242Z" fill="white" fill-opacity="0.3"/>
<path fill-rule="evenodd" clip-rule="evenodd" d="M1261.46 289.574C1265.37 295.285 1263.93 298.438 1261.5 304.863C1260.56 308.516 1258.81 311.98 1254.61 314.884C1251.9 316.463 1249.13 316.314 1246.32 315.023C1240.25 311.081 1235.21 306.947 1235.5 300.888C1233.94 296.799 1235.77 295.154 1239.76 292.99L1248.34 285.867C1253.95 286.249 1254.93 288.025 1261.46 289.574Z" fill="#898D90" stroke="black" stroke-width="2.56674" stroke-miterlimit="1.5" stroke-linecap="round" stroke-linejoin="round"/>
<path fill-rule="evenodd" clip-rule="evenodd" d="M1254.39 285.316L1245.32 290.032L1243.25 294.479L1238.55 299.928L1244.73 299.145L1250.01 301.345L1249.32 306.453L1250.85 307.923L1248.68 310.192L1252.47 309.532L1250.76 313.422L1247.24 312.704L1246.54 314.434L1238.14 307.874L1236.11 300.847C1235.47 297.201 1238.5 296.308 1240.06 293.277L1248.94 285.326L1254.39 285.316Z" fill="black" fill-opacity="0.3"/>
<path fill-rule="evenodd" clip-rule="evenodd" d="M1261.08 290.08L1255.88 295.806L1258.62 302.652L1253.6 304.427L1258.82 307.574L1258.22 308.881L1256.06 309.438L1255.7 311.023L1254.42 313.093L1254.88 314.868L1261.03 305.491L1262.7 296.445L1261.08 290.08Z" fill="white" fill-opacity="0.3"/>
<path fill-rule="evenodd" clip-rule="evenodd" d="M1451.34 423.336C1453.64 427.199 1451.86 429.969 1448.67 435.524C1447.23 438.602 1445.14 441.675 1441.07 444.735C1438.51 446.474 1436.19 446.846 1434.04 446.315C1429.61 444.246 1426.08 441.841 1427.4 436.958C1426.8 433.973 1428.65 432.336 1432.4 429.904L1440.91 422.703C1445.59 422.013 1446.1 423.258 1451.34 423.336Z" fill="#898D90" stroke="black" stroke-width="2.05757" stroke-miterlimit="1.5" stroke-linecap="round" stroke-linejoin="round"/>
<path fill-rule="evenodd" clip-rule="evenodd" d="M1446.12 421.193L1437.62 426.561L1435.09 430.474L1430.15 435.651L1435.51 433.933L1439.58 434.752L1438.1 438.949L1439.12 439.851L1436.89 442.045L1440.21 440.848L1438.08 444.252L1435.23 444.302L1434.33 445.806L1428.4 442.063L1427.92 436.818C1428.03 434.023 1430.75 432.774 1432.61 430.08L1441.52 422.166L1446.12 421.193Z" fill="black" fill-opacity="0.3"/>
<path fill-rule="evenodd" clip-rule="evenodd" d="M1450.93 423.808L1445.52 429.295L1446.63 434.27L1442.07 436.575L1445.93 438.16L1445.18 439.309L1443.26 440.136L1442.68 441.464L1441.23 443.34L1441.31 444.674L1448.16 436.108L1451.17 428.597L1450.93 423.808Z" fill="white" fill-opacity="0.3"/>
<path fill-rule="evenodd" clip-rule="evenodd" d="M1802.13 385.998C1805.45 392.046 1804.37 394.467 1802.59 399.53C1801.94 402.523 1800.62 405.14 1797.31 406.637C1795.17 407.344 1792.93 406.506 1790.62 404.646C1785.61 399.612 1781.43 394.671 1781.49 389.387C1780.12 385.371 1781.55 384.384 1784.71 383.489L1791.44 379.374C1795.98 381.144 1796.81 382.963 1802.13 385.998Z" fill="#898D90" stroke="black" stroke-width="2.15783" stroke-miterlimit="1.5" stroke-linecap="round" stroke-linejoin="round"/>
<path fill-rule="evenodd" clip-rule="evenodd" d="M1796.31 380.431L1789.11 382.288L1787.57 385.694L1783.93 389.316L1788.89 390.198L1793.22 393.491L1792.81 397.833L1794.08 399.521L1792.39 400.976L1795.43 401.358L1794.16 404.364L1791.3 402.831L1790.78 404.183L1783.82 396.239L1781.98 389.505C1781.36 386.118 1783.79 386.102 1784.96 383.819L1791.91 379.05L1796.31 380.431Z" fill="black" fill-opacity="0.3"/>
<path fill-rule="evenodd" clip-rule="evenodd" d="M1801.84 386.349L1797.8 390.087L1800.2 396.842L1796.2 397.13L1800.5 401.246L1800.05 402.247L1798.32 402.189L1798.08 403.499L1797.11 405.005L1797.53 406.693L1802.22 399.965L1803.32 392.391L1801.84 386.349Z" fill="white" fill-opacity="0.3"/>
<path fill-rule="evenodd" clip-rule="evenodd" d="M2120.63 222.258C2125.1 225.815 2124.88 228.331 2124.81 233.379C2125.1 236.179 2124.74 238.969 2122.39 241.726C2120.81 243.29 2118.7 243.606 2116.25 243.098C2110.66 241.159 2105.78 238.923 2104.36 234.469C2102.08 231.733 2103 230.255 2105.39 228.069L2109.85 221.571C2114.14 220.989 2115.34 222.133 2120.63 222.258Z" fill="#898D90" stroke="black" stroke-width="1.96129" stroke-miterlimit="1.5" stroke-linecap="round" stroke-linejoin="round"/>
<path fill-rule="evenodd" clip-rule="evenodd" d="M2114.21 220.244L2108.73 225.066L2108.39 228.618L2106.37 233.303L2110.76 231.787L2115.3 232.579L2116.17 236.402L2117.7 237.237L2116.7 239.221L2119.35 238.161L2119.13 241.253L2116.31 241.269L2116.26 242.635L2108.22 239.149L2104.8 234.347C2103.33 231.792 2105.35 230.677 2105.69 228.232L2110.15 221.086L2114.21 220.244Z" fill="black" fill-opacity="0.3"/>
<path fill-rule="evenodd" clip-rule="evenodd" d="M2120.49 222.686L2118.16 227.649L2122.06 232.211L2118.8 234.272L2123.55 235.762L2123.45 236.805L2121.99 237.542L2122.16 238.75L2121.77 240.452L2122.59 241.672L2124.63 233.908L2123.42 227.069L2120.49 222.686Z" fill="white" fill-opacity="0.3"/>
<path fill-rule="evenodd" clip-rule="evenodd" d="M38.0751 787.023C62.9857 805.385 62.8015 818.014 64.4083 843.389C67.0583 857.505 66.2101 871.495 54.9247 885.109C47.1662 892.805 36.1906 894.171 23.0888 891.352C-7.14162 881.008 -33.7209 869.245 -42.9698 846.697C-56.0314 832.696 -51.7431 825.36 -40.0033 814.621L-19.0325 782.42C3.34173 779.948 10.1464 785.829 38.0751 787.023Z" fill="#898D90" stroke="black" stroke-width="10.0898" stroke-miterlimit="1.5" stroke-linecap="round" stroke-linejoin="round"/>
<path fill-rule="evenodd" clip-rule="evenodd" d="M3.44221 776.208L-23.5923 799.873L-23.972 817.703L-32.8032 841.045L-10.2554 833.889L13.9499 838.353L20.0367 857.67L28.4456 862.037L23.9532 871.906L37.4672 866.855L37.5365 882.38L22.6892 882.162L22.9453 889.028L-20.7961 870.642L-40.6988 846.126C-49.4103 833.122 -39.2004 827.73 -38.358 815.474L-17.6247 780.01L3.44221 776.208Z" fill="black" fill-opacity="0.3"/>
<path fill-rule="evenodd" clip-rule="evenodd" d="M37.4648 789.154L27.155 813.868L49.4918 837.224L33.0962 847.242L58.7009 855.237L58.5967 860.474L51.1913 864.024L52.5219 870.116L51.1368 878.633L55.9612 884.859L63.657 846.03L54.6345 811.509L37.4648 789.154Z" fill="white" fill-opacity="0.3"/>
<path fill-rule="evenodd" clip-rule="evenodd" d="M1706.52 2688.48C1694.59 2592.78 1728.87 2516.41 1796.11 2453.82L1939.28 2423.96C1980.7 2422.48 2012.54 2442.59 2038.04 2476.97C2040.84 2558.95 2057.6 2640.29 2081.03 2721.32C2059.78 2764.22 2026.37 2794.62 1989.4 2821.37L1839.26 2820.42C1752.65 2798.66 1747.48 2774.34 1706.52 2688.48Z" fill="#898D90" stroke="black" stroke-width="9" stroke-miterlimit="1.5" stroke-linecap="round" stroke-linejoin="round"/>
<path fill-rule="evenodd" clip-rule="evenodd" d="M2042.51 2770.43L1916.3 2829.63L1941.04 2790.17L1859.17 2786.52L1823.69 2724.76L1866.69 2701.24L1847.64 2636.36L1801.54 2630.26L1765.48 2592.07L1828.21 2571.33L1781.36 2546.11L1796.63 2509.95L1749.45 2522.98L1722.72 2564.2L1709.24 2645.05L1726.32 2790.94C1753.82 2833.74 1793.72 2854.15 1836.38 2869.55L1990.78 2822.97L2042.51 2770.43Z" fill="black" fill-opacity="0.3"/>
<path fill-rule="evenodd" clip-rule="evenodd" d="M1781.94 2480.03L1856.86 2493.77L1834.65 2456.42L1897 2448.19L1908.8 2475.98L1930.82 2552.25L1946.47 2504.86L1964.59 2511.19L1973.64 2539.59L1995.36 2542.17L2024.3 2556.45L2025.33 2474.43L1939.16 2429.44L1808.81 2456.24L1781.94 2480.03Z" fill="white" fill-opacity="0.3"/>
<path fill-rule="evenodd" clip-rule="evenodd" d="M993.864 117.641C980.585 105.148 969.018 92.1318 959.071 78.6226C951.623 68.5057 968.878 54.5241 963.207 43.8653C951.099 21.1084 923.193 13.4089 913.308 -10.8461C901.308 -40.2949 908.805 -86.7815 913.155 -120.217L1004.35 -234.543C1035.31 -262.113 1072.66 -266.94 1114.23 -256.734C1168.69 -195.392 1233.48 -143.446 1303.22 -95.9935C1314.22 -49.4015 1307.88 -4.67526 1296.48 39.5059L1180.26 134.559C1144.93 151.439 1121.59 143.349 1098.97 141.969C1069.99 140.203 1042.34 140.096 993.864 117.641Z" fill="#898D90" stroke="black" stroke-width="9" stroke-miterlimit="1.5" stroke-linecap="round" stroke-linejoin="round"/>
<path fill-rule="evenodd" clip-rule="evenodd" d="M1304.89 -33.5986L1277.99 49.0146L1239.34 46.3358C1239.34 46.3358 1195.98 91.6744 1173.96 95.7576C1151.95 99.8401 1107.24 70.8328 1107.24 70.8328C1107.24 70.8328 1131.68 39.1783 1125.36 25.2857C1119.03 11.393 1069.29 -12.5231 1069.29 -12.5231L1029.9 12.1918C1029.9 12.1918 980.61 16.1858 977.768 5.78687C974.925 -4.61281 1012.84 -50.2068 1012.84 -50.2068L960.673 -39.7325L949.362 -77.3217L921.346 -37.1977L927.053 11.6025L972.373 38.3622L956.923 80.4615L1004.38 124.982C1052.87 140.398 1132.34 150.594 1175.03 135.233L1298.57 39.8645L1304.89 -33.5986Z" fill="black" fill-opacity="0.3"/>
<path fill-rule="evenodd" clip-rule="evenodd" d="M1110.32 1098.77C1106.82 1095.19 1106.27 1090.21 1107.83 1084.24L1114.28 1076.02C1116.36 1073.95 1118.6 1073.29 1120.94 1073.55C1123.56 1076.98 1126.87 1079.7 1130.52 1082.09C1130.72 1084.99 1129.93 1087.92 1128.84 1090.87L1121.11 1098.09C1116.01 1101.33 1115.01 1100.53 1110.32 1098.77Z" fill="#898D90" stroke="black" stroke-width="1.94533" stroke-miterlimit="1.5" stroke-linecap="round" stroke-linejoin="round"/>
<path fill-rule="evenodd" clip-rule="evenodd" d="M1130.02 1086.09L1125.33 1094.77L1125.41 1091.86L1121.1 1095.66L1117.42 1094.69L1118.92 1091.58L1115.98 1089.68L1113.43 1091.65L1110.43 1091.73L1113.02 1087.8L1109.86 1088.97L1109.55 1086.66L1107.52 1089.5L1107.4 1092.59L1105.92 1093.21L1114.42 1102.27C1117.12 1102.8 1119.79 1101.76 1122.44 1100.37L1128.95 1090.88L1130.02 1086.09Z" fill="black" fill-opacity="0.3"/>
<path fill-rule="evenodd" clip-rule="evenodd" d="M1105.62 1087.52L1112.15 1083.04L1109.89 1082.49L1112.84 1079.12L1114.28 1079.75L1117.71 1082.01L1117.08 1079.19L1118.2 1078.59L1119.53 1079.39L1120.72 1078.45L1122.63 1077.67L1123.59 1076.14L1115.07 1076.39L1105.62 1087.52Z" fill="white" fill-opacity="0.3"/>
<path fill-rule="evenodd" clip-rule="evenodd" d="M981.868 1083.26C979.986 1081.34 979.693 1078.66 980.532 1075.45L983.997 1071.03C985.116 1069.92 986.32 1069.56 987.581 1069.7C988.988 1071.55 990.77 1073.01 992.731 1074.3C992.841 1075.85 992.412 1077.43 991.826 1079.02L987.67 1082.9C984.928 1084.64 984.39 1084.21 981.868 1083.26Z" fill="#898D90" stroke="black" stroke-width="1.04603" stroke-miterlimit="1.5" stroke-linecap="round" stroke-linejoin="round"/>
<path fill-rule="evenodd" clip-rule="evenodd" d="M992.465 1076.45L989.944 1081.11L989.987 1079.54L987.669 1081.59L985.688 1081.07L986.493 1079.4L984.915 1078.38L983.544 1079.43L981.93 1079.48L983.324 1077.36L981.622 1077.99L981.457 1076.75L980.367 1078.28L980.298 1079.94L979.504 1080.28L984.076 1085.14C985.529 1085.43 986.961 1084.87 988.387 1084.12L991.89 1079.02L992.465 1076.45Z" fill="black" fill-opacity="0.3"/>
<path fill-rule="evenodd" clip-rule="evenodd" d="M979.344 1077.21L982.855 1074.8L981.637 1074.51L983.223 1072.7L984 1073.04L985.844 1074.25L985.507 1072.73L986.11 1072.41L986.82 1072.84L987.461 1072.34L988.491 1071.92L989.004 1071.09L984.423 1071.23L979.344 1077.21Z" fill="white" fill-opacity="0.3"/>
<path fill-rule="evenodd" clip-rule="evenodd" d="M1729.97 2248.2C1717.55 2216.45 1731.47 2200.3 1756.86 2167.21L1814.34 2116.8C1832.74 2109.47 1848.45 2111.33 1862.39 2119.25C1890.38 2142.46 1912.11 2166.3 1899.69 2198.27C1893.37 2216.87 1875.63 2222.96 1861.1 2238.45L1799.04 2272.88C1758.74 2279.43 1754.63 2271.72 1729.97 2248.2Z" fill="#898D90" stroke="black" stroke-width="6.47217" stroke-miterlimit="1.5" stroke-linecap="round" stroke-linejoin="round"/>
<path fill-rule="evenodd" clip-rule="evenodd" d="M1764.55 2161.97L1744.69 2199.71L1767.01 2192L1753.32 2211.2L1779.41 2220.86L1813.78 2204.77L1795.17 2230.57L1817.91 2235.95L1831.31 2222.44L1844.63 2220.21L1846.72 2189.78L1858.98 2217.97L1866.66 2236.44L1847.57 2241.42L1833.67 2250.61L1783.36 2274.07L1744.91 2262.42C1726.97 2254.61 1731.05 2244.57 1726.18 2229.19L1732.76 2202.6L1764.55 2161.97Z" fill="black" fill-opacity="0.3"/>
<path fill-rule="evenodd" clip-rule="evenodd" d="M1802.28 2131.01L1823.8 2113.74L1851.29 2119.39L1854.53 2135.34L1850.86 2147.08L1858.23 2168.29L1877.16 2153.72L1881.78 2158.74L1876.95 2170.28L1883.91 2174.5L1890.11 2184.01L1898.85 2181.94L1894.57 2160.57L1874.21 2139.61L1802.28 2131.01Z" fill="white" fill-opacity="0.3"/>
<path fill-rule="evenodd" clip-rule="evenodd" d="M1374.21 2675.05C1362.74 2640.07 1374.09 2626.55 1394.71 2598.19L1442.07 2558.94C1457.48 2555.35 1470.88 2560.56 1482.94 2571.57C1507.4 2601.14 1526.54 2630.01 1516.91 2659.97C1512.09 2677.6 1497.2 2680.06 1485.31 2692.78L1433.58 2714.77C1399.55 2712.95 1395.83 2704.22 1374.21 2675.05Z" fill="#898D90" stroke="black" stroke-width="6.00033" stroke-miterlimit="1.5" stroke-linecap="round" stroke-linejoin="round"/>
<path fill-rule="evenodd" clip-rule="evenodd" d="M1404.58 2572.99L1385.39 2621.02L1404.04 2625.59L1392.97 2642.27L1415.41 2657.62L1444.13 2648.47L1429.08 2670.84L1448.55 2681.12L1459.54 2670.18L1470.79 2670.71L1471.68 2640.15L1482.91 2671.46L1489.97 2691.91L1473.49 2700.85L1476.86 2709.75L1420.31 2712.67L1387.31 2692.69C1371.85 2680.95 1380.69 2667.48 1376.11 2650.79L1383.04 2591.1L1404.58 2572.99Z" fill="black" fill-opacity="0.3"/>
<path fill-rule="evenodd" clip-rule="evenodd" d="M1425.01 2553.3L1450.01 2557.82L1473.52 2569.37L1476.74 2586.31L1473.96 2597.5L1480.83 2620.67L1496.49 2609.82L1500.56 2615.91L1496.8 2626.65L1502.83 2632.42L1508.37 2643.42L1517.62 2646.2L1493.57 2594.81L1425.01 2553.3Z" fill="white" fill-opacity="0.3"/>
<path fill-rule="evenodd" clip-rule="evenodd" d="M2000.42 2311.86C2016.72 2315.09 2019.53 2322.54 2026.13 2336.93C2030.65 2344.4 2033.45 2352.85 2031.09 2364.24C2029.09 2371.1 2024.08 2375.22 2017.08 2377.53C2000.04 2380.61 1984.44 2381.76 1974.79 2371.34C1965.24 2367.09 1965.63 2361.49 1968.87 2351.65L1971.66 2326.43C1981.95 2318.22 1986.6 2319.61 2000.42 2311.86Z" fill="#898D90" stroke="black" stroke-width="6.00067" stroke-miterlimit="1.5" stroke-linecap="round" stroke-linejoin="round"/>
<path fill-rule="evenodd" clip-rule="evenodd" d="M1981.14 2316L1973.45 2338.04L1977.35 2348.6L1978.42 2364.95L1987.72 2353.94L2000.49 2349.24L2007.87 2358.72L2012.95 2358.73L2013.04 2365.87L2018.44 2358.83L2022.03 2367.9L2014.78 2372.27L2016.48 2376.21L1991.04 2378.67L1975.76 2370.32C1968.55 2365.33 1972.26 2359.09 1969.86 2351.65L1971.79 2324.6L1981.14 2316Z" fill="black" fill-opacity="0.3"/>
<path fill-rule="evenodd" clip-rule="evenodd" d="M2000.61 2313.29L2001.28 2330.89L2017.47 2337.82L2011.82 2348.65L2026.07 2345.6L2027.23 2348.7L2024.45 2353.02L2026.49 2356.18L2027.77 2361.59L2031.54 2363.78L2026.37 2338.7L2014.07 2321.2L2000.61 2313.29Z" fill="white" fill-opacity="0.3"/>
<path fill-rule="evenodd" clip-rule="evenodd" d="M1557.23 363.284C1520.03 330.01 1491.75 289.636 1494.83 235.564C1495.49 223.992 1510.86 207.317 1513.06 194.948L1513 154.727L1581.27 96.7145C1603.88 71.8306 1629.8 63.2193 1657.92 65.3638C1692.45 104.293 1734.54 134.77 1780.25 161.205C1785.6 194.819 1779.1 229.34 1769.15 264.125L1684.65 351.182C1659.45 368.659 1642.81 358.516 1627.26 360.458C1607.47 362.93 1589.41 373.704 1557.23 363.284Z" fill="#898D90" stroke="black" stroke-width="6.43747" stroke-miterlimit="1.5" stroke-linecap="round" stroke-linejoin="round"/>
<path fill-rule="evenodd" clip-rule="evenodd" d="M1778.42 207.962L1760.72 259.722L1732.72 294.23L1729.51 276.881L1682.17 322.806L1653.33 320.442L1610.23 323.195C1574.33 330.786 1610.23 272.933 1615.34 255.226L1587.05 279.085C1562.41 288.161 1548.13 290.461 1551.5 281.21L1578.3 234.376L1541.91 249.215L1535.92 222.42L1514.73 256.364L1516.33 292.347L1495.15 251.756C1504.04 297.403 1525.14 336.229 1562.07 366.214C1577.38 368.63 1603.98 364.743 1624.49 362.525C1647.67 360.018 1664.77 358.5 1680.74 349.343L1770.56 264.116L1778.42 207.962Z" fill="black" fill-opacity="0.3"/>
<path fill-rule="evenodd" clip-rule="evenodd" d="M1653.01 68.2524L1641.32 85.5088L1654.49 120.992L1640.48 145.96L1676.65 117.207L1684.36 131.693L1685.05 150.749L1679.1 200.083L1704.98 177.801L1716.82 186.543L1715.24 205.16L1730.91 212.816L1748.57 229.136L1761.24 183.519L1777.44 202.721L1776.38 162.232L1715.42 125.385L1675.03 94.9984L1653.01 68.2524Z" fill="white" fill-opacity="0.3"/>
<path fill-rule="evenodd" clip-rule="evenodd" d="M2122.67 414.505C2148.46 440.772 2144.28 457.92 2138.38 492.485L2113.34 548.67C2101.11 558.716 2086.79 559.992 2071.09 555.47C2036.07 539.816 2006.1 522.428 2001.45 491.303C1997.95 473.366 2010.21 464.555 2015.23 447.876L2051.83 405.231C2083.15 391.768 2090.35 397.946 2122.67 414.505Z" fill="#898D90" stroke="black" stroke-width="6.00034" stroke-miterlimit="1.5" stroke-linecap="round" stroke-linejoin="round"/>
<path fill-rule="evenodd" clip-rule="evenodd" d="M2071.04 403.125L2034.39 439.63C2027.46 450.286 2030.06 455.565 2049.71 451.215L2032.94 462.147C2014.62 476.497 2021.55 483.553 2047.46 485.127L2044.31 494.301L2044.06 508.301L2069.18 508.409L2083.02 514.133L2093.13 519.079L2102.32 505.502L2103.97 524.571C2077.47 528.693 2066.68 534.672 2102.35 546.14L2083.67 547.821L2083.24 557.33L2030.16 537.62L2007.78 506.205C1998.23 489.294 2000.87 478.047 2008.19 460.704L2044.08 411.225L2071.04 403.125Z" fill="black" fill-opacity="0.3"/>
<path fill-rule="evenodd" clip-rule="evenodd" d="M2083.21 400.528L2089.1 409.882L2107.75 428.283L2105.44 445.372L2099.26 455.101L2110.19 461.017L2116.9 436.725L2134.31 457.273L2105.05 478.283L2116.73 473.921L2118.67 480.987L2111.7 489.982L2129.99 491.882L2117.37 509.557C2129.12 501.551 2129.47 505.875 2125.26 515.121C2138 501.388 2141.73 480.572 2140.66 455.984L2124.93 418.736L2083.21 400.528Z" fill="white" fill-opacity="0.3"/>
<path fill-rule="evenodd" clip-rule="evenodd" d="M2033.66 -15.136C2076.05 -6.36306 2083.18 10.4553 2100.03 43.0199L2112.32 104.11C2106.95 119.122 2093.79 127.765 2075.49 132.197C2031.02 137.343 1990.36 138.338 1965.44 114.274C1950.29 100.833 1956.5 86.8579 1950.49 69.9984L1958.36 14.3432C1980.16 -13.655 1991.24 -12.1912 2033.66 -15.136Z" fill="#898D90" stroke="black" stroke-width="6.51255" stroke-miterlimit="1.5" stroke-linecap="round" stroke-linejoin="round"/>
<path fill-rule="evenodd" clip-rule="evenodd" d="M1974.04 2.67765L1962.47 38.9646L1967.39 58.052L1974.61 62.577C1970.13 72.6552 1970.45 81.0258 2000.88 78.6847L2008.05 69.1612L2017.67 92.8746C2015.11 99.9589 2023.1 103.255 2039.85 103.409L2035.2 122.307L2060.67 90.3999L2058.83 112.838L2074.37 101.816C2070.37 111.104 2073.41 107.379 2084.77 113.302L2087.73 124.822L2070.84 130.604L2012.46 133.09L1979.45 123.659C1961.11 111.237 1960.67 107.503 1952.55 88.8737L1959.6 15.0549L1974.04 2.67765Z" fill="black" fill-opacity="0.3"/>
<path fill-rule="evenodd" clip-rule="evenodd" d="M1983.66 -7.91895L2010.57 -6.18909C2011.51 21.0824 2021.15 22.8397 2037.97 3.57125L2051.35 9.4866L2046.46 34.8175C2055.75 34.7292 2060.84 42.4248 2060.15 59.7075L2073.08 45.564L2078.99 51.8053L2078.21 64.2532L2086.04 69.8861L2093.24 62.2065L2105.14 83.2729L2096.37 43.1598L2076.46 9.31766C2056.99 -28.5845 2015.54 -16.7113 1983.66 -7.91895Z" fill="white" fill-opacity="0.3"/>
<path fill-rule="evenodd" clip-rule="evenodd" d="M1886.94 564.703C1894.04 579.725 1889.72 586.415 1882.08 600.275C1878.76 608.354 1873.63 615.631 1863.07 620.512C1856.37 622.982 1850.07 621.402 1844.05 617.146C1831.44 605.278 1821.25 593.421 1823.88 579.462C1821.62 569.255 1826.36 566.247 1836.19 562.993L1858.12 550.243C1870.85 553.63 1872.5 558.194 1886.94 564.703Z" fill="#898D90" stroke="black" stroke-width="6.00066" stroke-miterlimit="1.5" stroke-linecap="round" stroke-linejoin="round"/>
<path fill-rule="evenodd" clip-rule="evenodd" d="M1872.15 551.658L1849.86 558.585L1843.68 568.006L1831.18 578.588L1845.56 579.515L1856.93 586.983L1853.7 598.556L1856.71 602.651L1851.02 606.965L1859.9 607.115L1854.74 615.403L1846.92 612.165L1844.75 615.878L1827.65 596.884L1825.28 579.636C1825 570.874 1832.23 570.148 1836.78 563.794L1859.68 549.255L1872.15 551.658Z" fill="black" fill-opacity="0.3"/>
<path fill-rule="evenodd" clip-rule="evenodd" d="M1885.91 565.71L1872.15 576.712L1876.21 593.853L1864.14 595.745L1875.08 605.388L1873.27 608.157L1868.14 608.492L1866.81 612.018L1863.22 616.265L1863.7 620.597L1880.79 601.524L1887.55 581.232L1885.91 565.71Z" fill="white" fill-opacity="0.3"/>
<path fill-rule="evenodd" clip-rule="evenodd" d="M1432.43 363.305C1437.22 374.593 1432.41 380.51 1423.69 392.612C1419.65 399.531 1414.03 406.018 1403.67 411.216C1397.17 414.008 1391.53 413.48 1386.45 410.759C1376.18 402.673 1368.14 394.31 1372.24 382.724C1371.36 374.749 1376.11 371.757 1385.61 367.959L1407.44 355.054C1418.83 356.276 1419.81 359.767 1432.43 363.305Z" fill="#898D90" stroke="black" stroke-width="5.1414" stroke-miterlimit="1.5" stroke-linecap="round" stroke-linejoin="round"/>
<path fill-rule="evenodd" clip-rule="evenodd" d="M1420.27 354.529L1398.79 362.774L1391.95 371.117L1379.11 381.15L1392.32 380.189L1401.97 384.867L1397.6 394.598L1399.91 397.547L1394.12 401.708L1402.32 400.774L1396.56 408.08L1389.7 406.396L1387.25 409.651L1373.67 396.345L1373.52 382.698C1374.3 375.655 1381.09 374.208 1386.06 368.536L1409 354.072L1420.27 354.529Z" fill="black" fill-opacity="0.3"/>
<path fill-rule="evenodd" clip-rule="evenodd" d="M1431.35 364.241L1417.29 374.762L1419.02 388.123L1407.61 391.086L1416.59 397.574L1414.59 400.025L1409.8 400.905L1408.15 403.911L1404.32 407.767L1404.25 411.209L1422.35 393.773L1431.03 376.581L1431.35 364.241Z" fill="white" fill-opacity="0.3"/>
<path fill-rule="evenodd" clip-rule="evenodd" d="M1327.84 593.102C1336.51 601.704 1334.88 607.934 1332.49 620.418C1331.92 627.33 1329.84 634.244 1323.22 641.161C1318.88 645.097 1313.9 645.97 1308.5 644.818C1296.52 640.265 1286.3 634.947 1285.01 623.997C1280.99 617.33 1283.77 613.635 1290.23 608.127L1303.36 591.868C1313.47 590.243 1315.74 593.019 1327.84 593.102Z" fill="#898D90" stroke="black" stroke-width="4.66702" stroke-miterlimit="1.5" stroke-linecap="round" stroke-linejoin="round"/>
<path fill-rule="evenodd" clip-rule="evenodd" d="M1313.98 588.397L1299.23 600.557L1296.88 609.355L1290.16 621.026L1300.92 617.088L1310.98 618.85L1311.29 628.264L1314.44 630.265L1311.26 635.213L1317.8 632.477L1315.94 640.131L1309.45 640.293L1308.73 643.674L1291.8 635.402L1286.07 623.674C1283.84 617.42 1288.98 614.576 1290.85 608.517L1304.28 590.654L1313.98 588.397Z" fill="black" fill-opacity="0.3"/>
<path fill-rule="evenodd" clip-rule="evenodd" d="M1327.31 594.163L1319.76 606.536L1326.7 617.648L1318.29 622.885L1328.53 626.363L1327.85 628.947L1324.17 630.832L1324.01 633.812L1322.36 638.036L1323.71 641.019L1331.83 621.733L1332.1 604.874L1327.31 594.163Z" fill="white" fill-opacity="0.3"/>
<path fill-rule="evenodd" clip-rule="evenodd" d="M352.18 2089.3C364.93 2101.04 364.148 2107.92 363.667 2121.88C364.368 2129.76 363.147 2137.34 356.189 2143.99C351.495 2147.66 345.368 2147.65 338.294 2145.21C322.177 2137.48 308.151 2129.23 304.265 2116.29C297.815 2107.75 300.575 2104.04 307.629 2098.99L320.93 2082.86C333.404 2083.05 336.84 2086.73 352.18 2089.3Z" fill="#898D90" stroke="black" stroke-width="5.56952" stroke-miterlimit="1.5" stroke-linecap="round" stroke-linejoin="round"/>
<path fill-rule="evenodd" clip-rule="evenodd" d="M333.66 2081.02L317.475 2092.07L316.305 2101.77L310.176 2113.9L322.998 2111.55L336.108 2115.65L338.424 2126.61L342.827 2129.58L339.818 2134.65L347.543 2132.83L346.745 2141.3L338.568 2140.16L338.339 2143.93L315.204 2130.88L305.548 2116.13C301.443 2108.44 307.365 2106.2 308.49 2099.57L321.836 2081.64L333.66 2081.02Z" fill="black" fill-opacity="0.3"/>
<path fill-rule="evenodd" clip-rule="evenodd" d="M351.729 2090.43L344.711 2103.2L355.772 2117.49L346.19 2121.82L359.881 2127.95L359.542 2130.8L355.266 2132.23L355.672 2135.64L354.449 2140.2L356.774 2143.93L363.111 2123.27L359.994 2103.81L351.729 2090.43Z" fill="white" fill-opacity="0.3"/>
<path fill-rule="evenodd" clip-rule="evenodd" d="M698.682 2465.48C711.941 2471.83 712.8 2478.43 715.469 2491.45C717.792 2498.46 718.436 2505.86 714.074 2514.4C710.95 2519.41 705.818 2521.54 699.357 2521.76C684.161 2520.26 670.601 2517.56 664.499 2507.01C657.219 2501.4 658.714 2497.02 663.509 2489.91L671.097 2470.44C681.584 2466.27 685.271 2468.45 698.682 2465.48Z" fill="#898D90" stroke="black" stroke-width="5.12637" stroke-miterlimit="1.5" stroke-linecap="round" stroke-linejoin="round"/>
<path fill-rule="evenodd" clip-rule="evenodd" d="M681.351 2464.31L670.231 2480.12L671.387 2489.45L668.924 2502.75L679.143 2496.12L691.023 2495.32L695.375 2504.6L699.714 2505.79L698.311 2511.51L704.378 2507.14L705.575 2515.22L698.477 2517.02L699.114 2520.56L676.871 2516.62L665.539 2506.42C660.409 2500.76 664.875 2496.64 664.357 2490.15L671.588 2469L681.351 2464.31Z" fill="black" fill-opacity="0.3"/>
<path fill-rule="evenodd" clip-rule="evenodd" d="M698.551 2466.67L695.486 2480.87L707.892 2490.16L700.823 2497.49L713.635 2498.35L713.978 2501.1L710.712 2503.9L711.804 2506.9L711.782 2511.52L711.774 2513.81L715.309 2492.92L708.417 2476.1L698.551 2466.67Z" fill="white" fill-opacity="0.3"/>
<path fill-rule="evenodd" clip-rule="evenodd" d="M-54.1041 1304.01C-61.3655 1295.07 -67.5104 1285.95 -72.5995 1276.65C-76.4103 1269.69 -64.429 1262.39 -67.0813 1255.24C-72.7444 1239.97 -89.5673 1232.8 -93.7119 1216.78C-98.7439 1197.33 -90.1324 1168.86 -84.592 1148.29L-17.8593 1084.4C3.84602 1069.75 27.6358 1069.87 52.8031 1079.77C81.7268 1122.76 117.917 1160.74 157.581 1196.33C160.544 1226.43 152.807 1253.89 141.946 1280.6L61.1726 1330.31C37.6283 1337.9 23.6987 1330.87 9.64799 1328.1C-8.34526 1324.55 -25.6484 1322.16 -54.1041 1304.01Z" fill="#898D90" stroke="black" stroke-width="5.68558" stroke-miterlimit="1.5" stroke-linecap="round" stroke-linejoin="round"/>
<path fill-rule="evenodd" clip-rule="evenodd" d="M153.367 1235.53L129.563 1284.99L105.597 1280.06C105.597 1280.06 74.6275 1304.79 60.4987 1305.49C46.3705 1306.19 20.8257 1284.26 20.8257 1284.26C20.8257 1284.26 38.7937 1266.5 36.0043 1257.27C33.2149 1248.04 4.09004 1228.88 4.09004 1228.88L-22.6585 1241.03C-22.6585 1241.03 -53.8529 1239.38 -54.7559 1232.63C-55.6592 1225.88 -28.0771 1200.53 -28.0771 1200.53L-61.6228 1202.69L-65.5368 1178.2L-86.4582 1200.96L-86.9977 1231.99L-60.8786 1252.57L-74.0987 1277.62L-48.1391 1309.5C-19.0815 1323.23 29.819 1336.31 57.8365 1330.29L143.221 1280.99L153.367 1235.53Z" fill="black" fill-opacity="0.3"/>
<path fill-rule="evenodd" clip-rule="evenodd" d="M-107.347 1174.93L-38.6739 1149.38L-63.0664 1136.79L-32.409 1111.53L-16.7853 1122.47L20.5289 1155.98L13.0598 1125.35L24.8882 1122.67L39.2388 1134.87L51.7433 1128.98L72.0278 1126.95L81.816 1114.32L-9.28055 1090.58L-107.347 1174.93Z" fill="white" fill-opacity="0.3"/>
<path fill-rule="evenodd" clip-rule="evenodd" d="M1660.89 1526.64C1654.04 1518.2 1648.24 1509.59 1643.44 1500.82C1639.84 1494.25 1651.15 1487.36 1648.64 1480.61C1643.3 1466.2 1627.42 1459.43 1623.51 1444.31C1618.76 1425.95 1626.89 1399.08 1632.12 1379.66L1695.1 1319.36C1715.59 1305.53 1738.04 1305.64 1761.8 1314.98C1789.1 1355.56 1823.26 1391.41 1860.7 1425C1863.49 1453.41 1856.19 1479.34 1845.94 1504.54L1769.7 1551.47C1747.48 1558.63 1734.33 1551.99 1721.07 1549.38C1704.08 1546.03 1687.75 1543.77 1660.89 1526.64Z" fill="#898D90" stroke="black" stroke-width="8.9977" stroke-miterlimit="1.5" stroke-linecap="round" stroke-linejoin="round"/>
<path fill-rule="evenodd" clip-rule="evenodd" d="M1856.72 1462.01L1834.25 1508.69L1811.63 1504.03C1811.63 1504.03 1782.4 1527.37 1769.06 1528.03C1755.73 1528.7 1731.62 1508 1731.62 1508C1731.62 1508 1748.57 1491.24 1745.94 1482.52C1743.31 1473.81 1715.82 1455.72 1715.82 1455.72L1690.57 1467.19C1690.57 1467.19 1661.13 1465.63 1660.28 1459.26C1659.42 1452.89 1685.46 1428.96 1685.46 1428.96L1653.8 1431L1650.1 1407.89L1630.35 1429.37L1629.84 1458.67L1654.5 1478.08L1642.02 1501.73L1666.52 1531.82C1693.95 1544.78 1740.1 1557.13 1766.55 1551.45L1847.14 1504.92L1856.72 1462.01Z" fill="black" fill-opacity="0.3"/>
<path fill-rule="evenodd" clip-rule="evenodd" d="M1640.4 1378.49L1675.46 1380.69L1678.63 1370.58L1681.37 1344.96L1696.12 1355.29L1731.34 1386.91L1724.29 1358L1735.45 1355.48L1749 1366.99L1760.8 1361.44L1779.94 1359.52L1781.99 1351.08L1746.67 1315.56L1703.2 1325.19L1640.4 1378.49Z" fill="white" fill-opacity="0.3"/>
<path fill-rule="evenodd" clip-rule="evenodd" d="M1051.36 750.666C1044.82 742.374 1039.37 733.838 1034.97 725.071C1031.67 718.506 1043.75 710.686 1041.59 703.868C1036.98 689.312 1021.03 683.305 1017.94 667.928C1014.18 649.259 1024.23 620.989 1030.83 600.609L1099.51 534.391C1121.49 518.83 1144.63 517.557 1168.54 525.727C1194.16 565.954 1227.15 600.869 1263.65 633.243C1264.77 662.418 1255.63 689.657 1243.5 716.33L1161.98 769.549C1138.63 778.333 1125.49 772.293 1111.98 770.415C1094.68 768.011 1077.98 766.689 1051.36 750.666Z" fill="#898D90" stroke="black" stroke-width="12.4997" stroke-miterlimit="1.5" stroke-linecap="round" stroke-linejoin="round"/>
<path fill-rule="evenodd" clip-rule="evenodd" d="M1257.25 671.72L1231.19 721.342L1208.16 717.937C1208.16 717.937 1176.57 743.87 1162.78 745.382C1149 746.895 1125.43 727.01 1125.43 727.01C1125.43 727.01 1143.95 708.639 1141.78 699.802C1139.61 690.964 1112.39 673.984 1112.39 673.984L1085.65 687.405C1085.65 687.405 1055.39 687.623 1054.91 681.094C1054.43 674.564 1082.75 648.227 1082.75 648.227L1049.99 652.302L1047.61 628.654L1025.92 652.075L1023.58 682.369L1047.78 700.897L1033.45 726.105L1056.84 755.662C1084.31 767.354 1131.12 777.24 1158.74 769.726L1244.71 716.645L1257.25 671.72Z" fill="black" fill-opacity="0.3"/>
<path fill-rule="evenodd" clip-rule="evenodd" d="M1054.31 586.709L1060.8 592.696L1079.27 577.378L1091.27 590.118L1098.32 571.451L1132.66 601.934L1127.19 572.505L1138.86 569.202L1152.11 580.255L1164.62 573.782L1187.35 567.016L1164.19 534.763L1130.24 528.228L1107.49 539.911L1054.31 586.709Z" fill="white" fill-opacity="0.3"/>
<path fill-rule="evenodd" clip-rule="evenodd" d="M74.7707 2154.82C69.7727 2148.62 65.5603 2142.28 62.091 2135.81C59.4931 2130.96 67.9834 2125.7 66.2007 2120.71C62.3945 2110.05 50.6657 2105.2 47.9335 2093.99C44.6164 2080.39 50.9753 2060.3 55.0912 2045.79L102.636 2000.19C118.033 1989.66 134.73 1989.48 152.285 1996.15C172.112 2026.03 197.094 2052.3 224.541 2076.85C226.288 2097.96 220.554 2117.33 212.636 2136.21L155.393 2172.01C138.783 2177.61 129.084 2172.82 119.252 2171.03C106.662 2168.74 94.5432 2167.25 74.7707 2154.82Z" fill="#898D90" stroke="black" stroke-width="9.02481" stroke-miterlimit="1.5" stroke-linecap="round" stroke-linejoin="round"/>
<path fill-rule="evenodd" clip-rule="evenodd" d="M221.15 2104.43L203.896 2139.43L187.128 2136.23C187.128 2136.23 165.118 2153.94 155.193 2154.59C145.269 2155.24 127.581 2140.12 127.581 2140.12C127.581 2140.12 140.389 2127.45 138.533 2121C136.677 2114.54 116.446 2101.41 116.446 2101.41L97.5374 2110.24C97.5374 2110.24 75.6604 2109.42 75.1011 2104.69C74.5417 2099.96 94.1815 2081.85 94.1815 2081.85L70.6119 2083.74L68.1352 2066.59L53.1991 2082.8L52.4777 2104.6L70.5834 2118.76L61.0275 2136.5L78.8964 2158.6C99.1401 2167.93 133.319 2176.57 153.051 2172.04L213.527 2136.47L221.15 2104.43Z" fill="black" fill-opacity="0.3"/>
<path fill-rule="evenodd" clip-rule="evenodd" d="M61.9766 2053.51L87.3086 2046.05L92.1709 2035.08L92.1241 2019.4L102.969 2026.91L128.79 2050.03L123.886 2028.6L132.218 2026.59L142.156 2035L150.997 2030.73L165.258 2029.08L159.095 2017.86L142.687 2001.79L108.589 2004.43L61.9766 2053.51Z" fill="white" fill-opacity="0.3"/>
</g>
<defs>
<clipPath id="clip0_607_5023">
<rect width="2160" height="2700" fill="white"/>
</clipPath>
</defs>
</svg>
