<svg width="2160" height="2700" viewBox="0 0 2160 2700" fill="none" xmlns="http://www.w3.org/2000/svg">
<g clip-path="url(#clip0_600_645)">
<path fill-rule="evenodd" clip-rule="evenodd" d="M199.73 413.839C204.121 419.972 212.043 426.044 221.876 433.035C245.728 449.993 281.132 467.806 323.698 486.481C511.648 568.94 834.367 664.746 961.3 746.1C1046.03 800.518 1048.86 881.964 998.955 972.3C933.882 1090.09 771.877 1225.03 618.699 1318.67C473.973 1406.64 308.812 1505.82 234.286 1600.85C209.633 1632.28 194.823 1662.22 200.579 1691.49C204.127 1709.53 215.682 1726.48 235.337 1743.1C296.394 1794.92 483.468 1876.66 677.563 1974.91C839.476 2056.88 1006.25 2149.79 1113.4 2244.1C1186.96 2308.85 1232.55 2375.42 1235.22 2439.06C1237.87 2502.29 1200.31 2565.87 1099.6 2623.02C959.394 2702.42 837.519 2789.72 737.005 2870.79C533.768 3034.72 418.171 3173.58 418.171 3173.58L412.502 3180.61L398.454 3169.27L404.123 3162.24C404.123 3162.24 516.733 3018.4 717.874 2847.67C817.622 2763.01 939.208 2671.94 1079.36 2588.23C1159.47 2540.47 1193.51 2492.26 1190.36 2441.39C1187.04 2387.79 1144.3 2334.66 1081.37 2281.1C975.39 2190.91 811.149 2103.46 652.379 2025.38C451.615 1926.65 259.509 1842.28 196.271 1789.52C163.754 1762.28 146.62 1733.08 140.678 1703.37C131.75 1658.75 148.43 1610.94 186.061 1563.01C264.042 1463.68 436.061 1359 587.658 1267.44C708.684 1194.75 836.256 1095.85 911.943 1000.72C977.383 918.471 1006.59 840.338 931.896 791.438C807.42 709.753 489.371 612.646 304.708 529.101C249.124 503.953 205.148 479.689 180.387 457.689C165.698 444.637 156.931 431.603 153.641 419.69C149.266 403.846 154.682 387.295 177.173 375.332C195.84 365.401 231.859 357.253 280.646 351.586C479.418 328.496 904.433 336.768 1166.85 315.199C1270.6 306.672 1348.16 295.152 1372.51 272.713C1373.9 271.436 1372.03 269.622 1371.12 267.114C1369.36 262.247 1366.25 256.73 1362.07 250.593C1340.86 219.483 1294.41 175.511 1237.53 127.241C1072.71 -12.6056 820.633 -186.64 820.633 -186.64L813.168 -191.714L823.315 -206.645L830.781 -201.572C830.781 -201.572 1152.97 14.0614 1311.06 156.694C1351.98 193.612 1381.98 226.105 1393.9 248.949C1404.29 268.888 1401.97 284.204 1392.03 293.612C1364.02 320.137 1270.15 338.116 1144.98 348.888C870.676 372.495 441.993 369.346 262.126 397.753C239.887 401.265 221.704 405.213 208.485 409.882C205.589 410.905 202.328 412.482 199.73 413.839Z" fill="white" fill-opacity="0.37"/>
<path fill-rule="evenodd" clip-rule="evenodd" d="M769.89 421.283C776.672 424.72 785.307 428.344 795.182 432.744C849.142 456.796 937.433 483.688 1039.99 511.549C1303.34 583.086 1659.06 658.753 1786.17 694.695C1832.86 707.961 1864.14 732.669 1884.32 763.632C1911.66 805.572 1917.79 862.493 1903.67 928.382C1874.76 1063.32 1756.19 1244.12 1633.57 1381.46C1540.9 1484.8 1437.47 1599.59 1379.68 1699.32C1341.39 1765.37 1315.44 1822.1 1378.34 1849.34C1443.28 1878 1624.13 1919.82 1824.3 1973.58C2082.66 2042.97 2371.88 2130.78 2505.43 2220.16C2565.83 2260.58 2597.62 2305.3 2600.8 2345.86C2603 2373.99 2595.1 2402.95 2569.98 2430.64C2547.29 2455.65 2507.9 2481.96 2446.45 2506.02C2238.83 2586.26 2033.19 2665.43 1864.62 2729.22C1635.42 2815.95 1475.5 2874.82 1475.5 2874.82L1458.54 2881.7L1444.79 2847.79L1461.75 2840.92L2411.5 2421.74C2465.07 2398.25 2496.23 2380.23 2503.07 2357.53C2505.44 2349.69 2497.17 2344.51 2489.79 2336.96C2477.36 2324.22 2459.67 2312.16 2438.32 2299.79C2407.26 2281.78 2368.69 2264.39 2325 2247.11C2164.17 2183.49 1935.41 2126.09 1736.63 2076.54C1550.66 2030.19 1390.21 1989.9 1328.55 1963.11C1281.83 1942.52 1252.63 1914.04 1235.8 1881.68C1211.12 1834.23 1211.96 1774.72 1238.81 1708.31C1287.17 1588.72 1425.56 1436.64 1548.44 1303.87C1642.45 1202.75 1735.79 1075.48 1781.17 965.586C1814.88 883.966 1829.41 812.676 1757.75 790.526C1613.78 745.782 1173.17 642.121 912.25 555.434C838.956 531.084 779.41 507.85 743.209 487.712C718.478 473.955 702.74 460.005 695.734 448.526C676.835 417.559 690.519 376.464 754.805 350.786C845.003 314.759 1048.25 283.88 1197.98 239.492C1272.12 217.51 1333.14 194.766 1352.9 162.328C1356.35 156.678 1350.29 150.653 1344.59 142.51C1328.58 119.613 1298.44 93.598 1263.86 67.8275C1173.17 0.247125 1052.37 -64.3225 1052.37 -64.3225L1036.1 -72.6908L1052.84 -105.233L1069.11 -96.8647C1069.11 -96.8647 1272.46 4.21674 1358.47 86.3115C1397.86 123.909 1410.26 162.191 1395.81 187.616C1377.31 220.098 1328.7 249.989 1263.36 275.182C1132.56 325.611 932.064 362.781 818.8 400.161C800.607 406.164 782.243 414.914 769.89 421.283Z" fill="white" fill-opacity="0.37"/>
<path fill-rule="evenodd" clip-rule="evenodd" d="M1529.45 2578.96C1496.7 2576 1454.97 2578.89 1407.17 2584.42C1126.77 2616.83 663.074 2756.32 494.031 2789.42C291.879 2827.66 121.805 2747.07 4.71707 2622.65C-137.763 2471.25 -196.463 2256.78 -151.25 2129.09C-127.851 2063.04 -75.0222 2000.51 -11.8619 1940.63C59.9682 1872.52 145.677 1807.16 191.473 1732.84C219.205 1687.83 229.656 1639.15 200.103 1583.02C142.025 1472.52 24.6432 1403.26 -81.8847 1342.76C-182.009 1285.9 -273.99 1235.7 -318.621 1177.61C-377.035 1101.58 -379.51 1006.12 -223.581 872.349C-46.9051 720.789 25.905 595.467 38.1522 491.936C65.9749 256.743 -217.704 147.741 -217.704 147.741L-240.539 139.156L-223.366 93.4843L-200.53 102.072C-200.53 102.072 127.505 223.267 104.603 498.628C94.976 614.374 22.8927 759.444 -168.183 934.784C-263.076 1021.86 -283.878 1073.2 -245.687 1119.62C-195.848 1180.18 -82.4215 1224.11 28.0573 1285.9C135.863 1346.2 240.663 1421.24 301.045 1527.93C356.641 1626.25 342.895 1713.5 295.928 1795.08C254.813 1866.49 183.582 1933.25 115.004 1999.24C55.8699 2056.15 -2.44175 2111.12 -22.4754 2172.8C-52.5707 2265.4 6.46283 2413.52 111.367 2519.92C197.248 2607.04 319.028 2665.26 463.168 2634.93C578.816 2611.06 831.533 2534.32 1070.23 2479.08C1236.92 2440.49 1397.23 2412.91 1503.23 2414.49C1555.4 2415.27 1597.29 2423.51 1626.15 2437.07C1660.28 2453.11 1682.51 2476.33 1694.4 2503.97C1712.27 2545.54 1710.11 2615.05 1634.66 2703.61C1543.07 2809.89 1177.52 3170.26 1045.7 3413.79C1026.76 3448.78 1012.4 3480.52 1006.56 3508.45C1003.44 3523.4 1000.44 3536.3 1005.99 3546.28C1010.67 3554.65 1020.26 3559.14 1033.72 3562.3C1058.99 3568.23 1092.42 3568.99 1135.33 3564.15C1299.35 3545.61 1452.8 3543.93 1584.9 3551.14C1850.85 3565.63 2028.91 3613.11 2028.91 3613.11L2052.7 3618.52L2041.89 3666.1L2018.09 3660.68C2018.09 3660.68 1842.16 3627.84 1583.07 3629.99C1455.22 3631.05 1307.25 3640.45 1150.03 3667.45C1010.87 3691.34 937.649 3655.22 906.304 3605.42C872.669 3551.97 882.407 3462.03 934.166 3356.3C1059.62 3100.09 1422.58 2715.18 1513.06 2602.46C1518.94 2595.22 1524.6 2586.8 1529.45 2578.96ZM1551.55 2579.62C1554.04 2584.59 1556.81 2588.39 1558.64 2584.5C1560.18 2581.22 1556.77 2580.04 1551.55 2579.62Z" fill="white" fill-opacity="0.37"/>
</g>
<defs>
<clipPath id="clip0_600_645">
<rect width="2160" height="2700" fill="white"/>
</clipPath>
</defs>
</svg>
