<svg width="2160" height="2700" viewBox="0 0 2160 2700" fill="none" xmlns="http://www.w3.org/2000/svg">
<path d="M1104.87 2142.78C1418.32 2142.78 1672.42 1861.85 1672.42 1515.3C1672.42 1168.76 1418.32 887.826 1104.87 887.826C791.412 887.826 537.307 1168.76 537.307 1515.3C537.307 1861.85 791.412 2142.78 1104.87 2142.78Z" fill="#777777" stroke="#8D8D8D" stroke-width="1.99277" stroke-miterlimit="1.5" stroke-linecap="round" stroke-linejoin="round"/>
<path d="M558.148 1722.07L1054.38 1643.6L1064.15 1610.37L1103.15 1609.73L1108.62 1640.65L1613.5 1709.77" stroke="black" stroke-width="7" stroke-miterlimit="1.5" stroke-linecap="round" stroke-linejoin="round"/>
<path d="M552.258 1854.32L1048.49 1775.85L1058.26 1742.62L1097.26 1741.98L1102.73 1772.9L1607.61 1842.02" stroke="black" stroke-width="7" stroke-miterlimit="1.5" stroke-linecap="round" stroke-linejoin="round"/>
<path d="M556.498 1992.98L1052.73 1914.51L1062.5 1881.28L1101.5 1880.64L1106.97 1911.56L1611.85 1980.68" stroke="black" stroke-width="7" stroke-miterlimit="1.5" stroke-linecap="round" stroke-linejoin="round"/>
<path d="M1216.98 1407.97H947.103V1548.99H1216.98V1407.97Z" fill="black" fill-opacity="0.3" stroke="black" stroke-width="4.29187" stroke-miterlimit="1.5" stroke-linecap="round" stroke-linejoin="round"/>
<path d="M1202.81 1423.28H960.254V1440.22H1202.81V1423.28Z" fill="black" stroke="black" stroke-width="1.41056" stroke-miterlimit="1.5" stroke-linecap="round" stroke-linejoin="round"/>
<path d="M1204.34 1453.74H961.784V1470.69H1204.34V1453.74Z" fill="black" stroke="black" stroke-width="1.41056" stroke-miterlimit="1.5" stroke-linecap="round" stroke-linejoin="round"/>
<path d="M1205.23 1484.96H962.676V1501.91H1205.23V1484.96Z" fill="black" stroke="black" stroke-width="1.41056" stroke-miterlimit="1.5" stroke-linecap="round" stroke-linejoin="round"/>
<path d="M1205.53 1517.11H962.971V1534.05H1205.53V1517.11Z" fill="black" stroke="black" stroke-width="1.41056" stroke-miterlimit="1.5" stroke-linecap="round" stroke-linejoin="round"/>
<path d="M1219.67 1167.83H920.763V1311.44H1219.67V1167.83Z" fill="#1D9A6C" stroke="black" stroke-width="6" stroke-miterlimit="1.5" stroke-linecap="round" stroke-linejoin="round"/>
<path d="M936.23 1189.33H949.524L976.827 1242L966.871 1189.33H980.291V1289.2H966.871L939.731 1233.46L949.619 1289.2H936.23V1189.33Z" fill="#F8F7E9"/>
<path d="M986.579 1189.33H1002.26L1010.73 1245.96L1018.35 1189.33H1033.88L1019.55 1237.7L1035.23 1289.2H1019.23L1010.73 1245.96L1001.03 1289.2H985.131L1001.03 1237.15L986.579 1189.33Z" fill="#F8F7E9"/>
<path d="M1036.58 1189.33H1079.85L1079.24 1239.1H1064.73L1065.33 1289.2H1051.1L1050.49 1239.1H1035.97L1036.58 1189.33Z" fill="#F8F7E9"/>
<path d="M1086.3 1189.33H1100.53L1100.54 1240.58H1122.76L1122.75 1289.2H1086.3V1189.33Z" fill="#F8F7E9"/>
<path d="M1121.4 1189.33H1136.3L1146.67 1261.2L1156.88 1189.33H1171.34L1144.39 1305.77L1121.4 1189.33Z" fill="#F8F7E9"/>
<path d="M1176.02 1189.33H1190.26L1189.79 1244.83H1212.01L1212.48 1289.2H1176.02V1189.33Z" fill="#F8F7E9"/>
<path d="M1607.83 1334.67H547.293V1385.19H1607.83V1334.67Z" fill="#FF8B3E" stroke="black" stroke-width="7.91677" stroke-miterlimit="1.5" stroke-linecap="round" stroke-linejoin="round"/>
<path fill-rule="evenodd" clip-rule="evenodd" d="M827.531 1069.31L795.333 1055.36L560.645 1069.31V1854.45C560.645 1854.45 798.899 1938.68 827.531 1854.45C872.012 1723.59 827.531 1069.31 827.531 1069.31Z" fill="#292929" stroke="black" stroke-width="6" stroke-miterlimit="1.5" stroke-linecap="round" stroke-linejoin="round"/>
<path fill-rule="evenodd" clip-rule="evenodd" d="M842.216 1761.36L585.694 1772.51L581.155 1718.2L842.911 1713.72L842.216 1761.36Z" fill="#BABABA"/>
<path fill-rule="evenodd" clip-rule="evenodd" d="M634.679 1847.2L685.225 1838.65L694.137 1855.24L717.473 1836.16L738.38 1862.79L756.755 1837.14L773.432 1857.45L797.424 1837.31L802.732 1859.05L828.563 1832.1L824.808 1867.88L726.95 1893.88L618.22 1895.52L634.679 1847.2Z" fill="#BABABA"/>
<path fill-rule="evenodd" clip-rule="evenodd" d="M781.402 1179.64C781.402 1179.64 815.807 1206.56 818.152 1219.96C825.887 1264.18 827.81 1444.94 827.81 1444.94L824.25 1098.18C824.25 1098.18 826.01 1177.3 822.544 1190.02C820.872 1196.16 803.452 1174.54 803.452 1174.54L810.961 1196.88L781.402 1179.64Z" fill="white"/>
<path fill-rule="evenodd" clip-rule="evenodd" d="M693.888 1429.31C698.104 1415.36 669.518 1281.72 669.518 1281.72C669.518 1281.72 724.4 1424.04 739.307 1417.55C754.215 1411.07 758.962 1242.81 758.962 1242.81C758.962 1242.81 786.982 1377.56 795.462 1389.75C803.943 1401.93 801.715 1291.67 809.845 1315.94C817.975 1340.2 819.594 1446.59 823.786 1466.57C825.513 1474.8 834.995 1435.77 834.995 1435.77C834.16 1506 845.735 1587.28 823.492 1607.17C823.492 1607.17 797.113 1505.36 786.957 1522.41C776.802 1539.46 744.084 1684.12 744.084 1684.12C744.084 1684.12 730.096 1551.87 712.29 1538.1C694.484 1524.33 637.247 1601.51 637.247 1601.51L663.275 1489.82L599.828 1432.49C599.828 1432.49 672.279 1461.9 679.678 1450.72C687.076 1439.54 644.22 1365.4 644.22 1365.4C644.22 1365.4 689.671 1443.26 693.888 1429.31Z" fill="white" fill-opacity="0.2"/>
<path d="M635.53 1388.7L621.347 1389.02C621.195 1387.23 628.455 1385.36 628.1 1384.03C627.079 1380.22 625.217 1378.32 622.514 1378.32C620.158 1378.32 618.39 1379.18 617.212 1380.91C616.033 1382.64 615.445 1385.24 615.445 1388.7C615.445 1391.25 616.087 1393.68 617.373 1395.99L631.593 1420.46C634.218 1424.99 635.53 1429.85 635.53 1435.05V1440.11C635.53 1445.71 634.218 1450.56 631.593 1454.63C628.968 1458.71 625.808 1460.75 622.112 1460.75H615.445C610.999 1460.75 607.651 1459.04 605.401 1455.62C603.152 1452.2 602.027 1447.03 602.027 1440.11L615.981 1440.71C615.981 1441.45 609.122 1443.09 609.122 1443.5C609.122 1446.31 609.472 1446.79 610.865 1448.27C612.257 1449.75 613.784 1450.49 615.445 1450.49C617.801 1450.49 619.502 1449.61 620.546 1447.84C621.59 1446.07 622.112 1443.49 622.112 1440.11C622.112 1437.48 621.47 1435.05 620.184 1432.82L605.964 1408.35C603.339 1403.9 602.027 1399.04 602.027 1393.77V1388.7C602.027 1383.1 603.339 1378.26 605.964 1374.18C608.589 1370.1 611.749 1368.06 615.445 1368.06H622.112C630.522 1368.06 634.994 1374.94 635.53 1388.7Z" fill="white"/>
<path d="M642.029 1460.86L648.867 1452.63V1388.7C648.867 1383.02 650.192 1378.15 652.844 1374.12C655.495 1370.08 658.642 1368.06 662.284 1368.06H675.701C679.343 1368.06 682.477 1370.1 685.101 1374.18C687.725 1378.26 689.038 1383.1 689.038 1388.7V1460.75L670.374 1460.97L675.701 1453.62V1419.6H662.284V1460.75L642.029 1460.86ZM662.284 1409.21H675.701V1388.7C675.701 1385.82 675.045 1383.37 673.733 1381.35C672.42 1379.33 670.827 1378.32 668.952 1378.32C667.131 1378.32 665.564 1379.33 664.253 1381.35C662.94 1383.37 662.284 1385.82 662.284 1388.7V1409.21Z" fill="white"/>
<path d="M709.204 1460.75V1376.07L699.988 1375.89L722.541 1368.06V1454.43L729.334 1460.74L709.204 1460.75Z" fill="white"/>
<path d="M736.648 1461.21L742.626 1452.53V1374.98L731.912 1369.36L745.759 1368.06L784.283 1431.31L782.797 1372.87L773.466 1368.63L789.546 1368.06V1460.75H786.493L750.742 1399.4L749.375 1460.75L736.648 1461.21Z" fill="white"/>
<path d="M809.632 1460.75L813.544 1455.19L813.836 1378.73L800.517 1378.32L797.035 1385.02L796.215 1368.06H836.386L836.122 1385.13L832.578 1378.32H822.969V1460.75H809.632Z" fill="white"/>
<path fill-rule="evenodd" clip-rule="evenodd" d="M810.34 1087.26L813.146 1160.19L757.113 1161.79L760.733 1092.49L778.565 1088.33L737.446 955.311L772.744 942.953L794.768 1083.49L810.34 1087.26Z" fill="#BABABA" stroke="black" stroke-width="6" stroke-miterlimit="1.5" stroke-linecap="round" stroke-linejoin="round"/>
<path fill-rule="evenodd" clip-rule="evenodd" d="M1358.33 1296.27C1358.33 1301.54 1357.5 1329.61 1352.2 1329.61L1341.13 1303.27L1327.76 1304.31L1317.85 1329.73C1312.55 1329.73 1312.59 1296.38 1312.59 1291.11L1307.62 1272.96C1307.62 1267.69 1311.92 1263.41 1317.22 1263.41H1358.51C1363.81 1263.41 1368.11 1267.69 1368.11 1272.96L1358.33 1296.27Z" fill="#A37B6A" stroke="black" stroke-width="4.52666" stroke-miterlimit="1.5" stroke-linecap="round" stroke-linejoin="round"/>
<path d="M1313.38 1276.82C1313.38 1276.82 1315.06 1281.93 1319.9 1284.09C1325.38 1286.54 1334.11 1286.01 1334.3 1284.62C1334.64 1282.02 1338.19 1276.72 1338.19 1276.72L1339.14 1282.66C1339.14 1282.66 1342.16 1289.16 1351.41 1285.53C1360.66 1281.89 1363.04 1276.01 1363.04 1276.01" stroke="black" stroke-width="4.52793" stroke-miterlimit="1.5" stroke-linecap="round" stroke-linejoin="round"/>
<path d="M1255.11 1262.55C1255.11 1262.55 1258.23 1273.36 1265.4 1277.29" stroke="black" stroke-width="4" stroke-miterlimit="1.5" stroke-linecap="round" stroke-linejoin="round"/>
<path d="M1249.08 1269.11C1249.08 1269.11 1252.2 1279.92 1259.37 1283.85" stroke="black" stroke-width="4" stroke-miterlimit="1.5" stroke-linecap="round" stroke-linejoin="round"/>
<path d="M1416.46 1244.02C1416.46 1244.02 1413.34 1254.83 1406.17 1258.76" stroke="black" stroke-width="4" stroke-miterlimit="1.5" stroke-linecap="round" stroke-linejoin="round"/>
<path d="M1422.49 1250.58C1422.49 1250.58 1419.37 1261.39 1412.2 1265.32" stroke="black" stroke-width="4" stroke-miterlimit="1.5" stroke-linecap="round" stroke-linejoin="round"/>
<path d="M1397.47 1134.87C1397.47 1134.87 1406.7 1141.3 1408.11 1149.35" stroke="black" stroke-width="4" stroke-miterlimit="1.5" stroke-linecap="round" stroke-linejoin="round"/>
<path d="M1405.61 1131.26C1405.61 1131.26 1414.85 1137.69 1416.26 1145.74" stroke="black" stroke-width="4" stroke-miterlimit="1.5" stroke-linecap="round" stroke-linejoin="round"/>
<path d="M1262.88 1154.06C1262.88 1154.06 1241.5 1166.72 1240.08 1174.77" stroke="black" stroke-width="4" stroke-miterlimit="1.5" stroke-linecap="round" stroke-linejoin="round"/>
<path d="M1255.6 1148.4C1255.6 1148.4 1233.35 1163.11 1231.93 1171.16" stroke="black" stroke-width="4" stroke-miterlimit="1.5" stroke-linecap="round" stroke-linejoin="round"/>
<path d="M1335.77 1288.68L1335.7 1299.25" stroke="black" stroke-width="4.52793" stroke-miterlimit="1.5" stroke-linecap="round" stroke-linejoin="round"/>
<path d="M1328.65 1293.34L1343.43 1293.51" stroke="black" stroke-width="4.52793" stroke-miterlimit="1.5" stroke-linecap="round" stroke-linejoin="round"/>
<path fill-rule="evenodd" clip-rule="evenodd" d="M1392.67 1179.26C1390.85 1166.58 1379.07 1157.76 1366.39 1159.57L1280.9 1172.18C1268.21 1174 1259.39 1185.78 1261.21 1198.46L1262.37 1251.79C1264.19 1264.48 1275.96 1273.3 1288.65 1271.48L1387.54 1257.31C1400.22 1255.49 1409.05 1243.72 1407.23 1231.03L1392.67 1179.26Z" fill="#A37B6A" stroke="black" stroke-width="6.79189" stroke-miterlimit="1.5" stroke-linecap="round" stroke-linejoin="round"/>
<path d="M1299.09 1228.49C1305.81 1227.53 1310.63 1222.38 1309.86 1217C1309.09 1211.62 1303.02 1208.03 1296.3 1209C1289.58 1209.96 1284.76 1215.1 1285.53 1220.49C1286.3 1225.87 1292.37 1229.45 1299.09 1228.49Z" fill="black" stroke="black" stroke-width="6.79189" stroke-miterlimit="1.5" stroke-linecap="round" stroke-linejoin="round"/>
<path d="M1364.07 1217.35C1370.79 1216.39 1375.61 1211.25 1374.84 1205.86C1374.07 1200.48 1368 1196.9 1361.28 1197.86C1354.56 1198.82 1349.74 1203.97 1350.51 1209.35C1351.28 1214.73 1357.35 1218.31 1364.07 1217.35Z" fill="black" stroke="black" stroke-width="6.79189" stroke-miterlimit="1.5" stroke-linecap="round" stroke-linejoin="round"/>
<path d="M1345.73 1189.44L1372.56 1181.98" stroke="black" stroke-width="6.79189" stroke-miterlimit="1.5" stroke-linecap="round" stroke-linejoin="round"/>
<path d="M1278.97 1194.58L1312.4 1198.89" stroke="black" stroke-width="6.79189" stroke-miterlimit="1.5" stroke-linecap="round" stroke-linejoin="round"/>
<path d="M1330.12 1229.72L1335.6 1224.86" stroke="black" stroke-width="6.79189" stroke-miterlimit="1.5" stroke-linecap="round" stroke-linejoin="round"/>
<path d="M1309.08 1254.82C1332.07 1242.38 1356.59 1229.14 1383.37 1223.12" stroke="black" stroke-width="4.52793" stroke-miterlimit="1.5" stroke-linecap="round" stroke-linejoin="round"/>
<path fill-rule="evenodd" clip-rule="evenodd" d="M1265.31 1205.64L1273.61 1181.89L1324.24 1172.76L1326.83 1182.48L1331.1 1174.58L1339.71 1180.95L1340.94 1171.89L1382.21 1170.47L1394.47 1188.96L1391.5 1156.04L1395.97 1145.86L1388.81 1147.65L1378.22 1136.16L1379.52 1145.31L1322.49 1147.26L1328.91 1154.08L1278.95 1149.66L1284.31 1158.98L1257.43 1168.09L1262.32 1171.11L1251.6 1179.11L1256.35 1181.76L1259.44 1206.73L1265.31 1205.64Z" fill="#493126" stroke="black" stroke-width="4.52793" stroke-miterlimit="1.5" stroke-linecap="round" stroke-linejoin="round"/>
<path d="M1307.24 1299.71C1314.57 1299.71 1320.52 1295.16 1320.52 1289.53C1320.52 1283.91 1314.57 1279.35 1307.24 1279.35C1299.91 1279.35 1293.97 1283.91 1293.97 1289.53C1293.97 1295.16 1299.91 1299.71 1307.24 1299.71Z" fill="#D50409" stroke="black" stroke-width="5.28259" stroke-miterlimit="1.5" stroke-linecap="round" stroke-linejoin="round"/>
<path d="M1369.45 1289.8C1376.78 1289.8 1382.73 1285.24 1382.73 1279.62C1382.73 1274 1376.78 1269.44 1369.45 1269.44C1362.12 1269.44 1356.18 1274 1356.18 1279.62C1356.18 1285.24 1362.12 1289.8 1369.45 1289.8Z" fill="#D50409" stroke="black" stroke-width="5.28259" stroke-miterlimit="1.5" stroke-linecap="round" stroke-linejoin="round"/>
<path fill-rule="evenodd" clip-rule="evenodd" d="M1372.24 1274.8C1372.24 1274.8 1377.24 1275.99 1377.55 1277.55C1377.84 1279.11 1374.02 1284.17 1374.02 1284.17C1375.22 1280.18 1374.68 1277.04 1372.24 1274.8Z" fill="white"/>
<path fill-rule="evenodd" clip-rule="evenodd" d="M1362.53 1198.56C1362.53 1198.56 1365.01 1198.43 1365.53 1199.62C1366.15 1201.03 1364.31 1202.95 1364.31 1202.95C1361.05 1202.1 1360 1200.74 1362.53 1198.56Z" fill="white"/>
<path fill-rule="evenodd" clip-rule="evenodd" d="M1300.71 1211.01C1300.71 1211.01 1303.19 1210.88 1303.71 1212.07C1304.33 1213.48 1302.5 1215.4 1302.5 1215.4C1299.23 1214.55 1298.19 1213.19 1300.71 1211.01Z" fill="white"/>
<path fill-rule="evenodd" clip-rule="evenodd" d="M1310.4 1284.72C1310.4 1284.72 1315.4 1285.9 1315.7 1287.47C1316 1289.03 1312.18 1294.08 1312.18 1294.08C1313.38 1290.1 1312.83 1286.95 1310.4 1284.72Z" fill="white"/>
<path fill-rule="evenodd" clip-rule="evenodd" d="M1312.39 1303.15L1312.2 1314.49L1320.31 1315.39L1333.23 1310.56L1349.83 1316.58L1357.41 1315.75L1357.83 1303.74L1312.39 1303.15Z" fill="#AB0307" stroke="black" stroke-width="5.28259" stroke-miterlimit="1.5" stroke-linecap="round" stroke-linejoin="round"/>
<path fill-rule="evenodd" clip-rule="evenodd" d="M775.092 1004.16C775.092 1004.16 1156.84 985.388 1269.22 1094.74C1370.03 1192.84 1411.13 1341.53 1411.13 1341.53C1399.23 1619.69 1512.84 1944.37 785.625 1954.33L828.16 2059.64C1021.87 2132.23 1259.22 2087.77 1532.57 1946.74C1640.7 1619.33 1658.82 1317.52 1515.68 1005.02L1120.76 832.953C907.915 867.171 791.533 923.968 775.092 1004.16Z" fill="black" fill-opacity="0.3"/>
<path fill-rule="evenodd" clip-rule="evenodd" d="M1065.47 1099.09L1013.77 1110.14L1042.11 1070.38L1010.93 1077.04L1038.52 1032.34L1013.98 1037.58L1033.47 997.39L1019.29 1000.42L1046.14 946.946L1095.36 984.165L1078.88 987.686L1115.25 1015.94L1088.6 1021.64L1134.37 1050.66L1110.06 1055.86L1154.19 1080.13L1092.16 1094.04L1104.75 1120.7L1069.5 1128.23L1065.47 1099.09Z" fill="#1D9A6C" stroke="black" stroke-width="4.15822" stroke-miterlimit="1.5" stroke-linecap="round" stroke-linejoin="round"/>
<path fill-rule="evenodd" clip-rule="evenodd" d="M1053.43 966.566C1052.18 968.713 1049.42 969.443 1047.28 968.194C1045.13 966.944 1044.4 964.187 1045.65 962.04C1045.65 962.04 1068.89 922.202 1075 893.354C1076.21 887.636 1076.75 882.39 1076.14 878.07C1075.68 874.775 1074.59 872.08 1072.18 870.558C1061.35 863.717 1052.12 859.186 1045.09 858.559C1042.59 858.336 1040.46 858.621 1038.83 859.842C1037.12 861.129 1036.07 863.328 1035.42 866.376C1031.78 883.459 1043.41 955.951 1043.41 955.951C1043.8 958.404 1042.12 960.71 1039.67 961.098C1037.22 961.485 1034.91 959.808 1034.52 957.355C1034.52 957.355 1022.84 882.2 1026.62 864.497C1027.83 858.847 1030.25 855.033 1033.43 852.646C1036.69 850.193 1040.87 849.147 1045.89 849.595C1053.92 850.311 1064.62 855.135 1076.98 862.949C1080.71 865.303 1083.15 868.91 1084.4 873.545C1085.95 879.296 1085.58 886.848 1083.8 895.219C1077.46 925.167 1053.43 966.566 1053.43 966.566Z" fill="#B4AD60" stroke="black" stroke-width="1.9" stroke-miterlimit="2" stroke-linejoin="round"/>
<path fill-rule="evenodd" clip-rule="evenodd" d="M1045.64 1075.25C1045.57 1074.92 1045.58 1074.57 1045.67 1074.24C1045.77 1073.93 1045.9 1073.64 1046.09 1073.38C1046.27 1073.15 1046.47 1072.95 1046.71 1072.81C1046.92 1072.69 1047.14 1072.6 1047.38 1072.61C1047.52 1072.62 1047.69 1072.69 1047.82 1072.75C1048.03 1072.85 1048.22 1072.96 1048.41 1073.09C1048.59 1073.22 1048.78 1073.35 1048.96 1073.48C1049.05 1073.55 1049.2 1073.66 1049.27 1073.78C1049.38 1073.94 1049.47 1074.11 1049.53 1074.3C1049.57 1074.46 1049.61 1074.63 1049.62 1074.81C1049.64 1074.97 1049.65 1075.13 1049.68 1075.3C1049.7 1075.46 1049.75 1075.61 1049.82 1075.76C1049.89 1075.98 1049.94 1076.23 1049.98 1076.46C1050.04 1076.75 1050.11 1077.03 1050.19 1077.31C1050.29 1077.6 1050.41 1077.88 1050.55 1078.15C1050.7 1078.43 1050.92 1078.66 1051.18 1078.82C1051.53 1078.97 1051.9 1079.1 1052.27 1079.23C1052.81 1079.43 1053.35 1079.62 1053.9 1079.81C1054.62 1080.05 1055.35 1080.28 1056.07 1080.52C1056.23 1080.53 1056.39 1080.48 1056.49 1080.35C1056.6 1080.22 1056.67 1080.05 1056.71 1079.89C1056.77 1079.7 1056.8 1079.5 1056.8 1079.3C1056.8 1079.12 1056.79 1078.93 1056.78 1078.74C1056.75 1078.39 1056.72 1078.02 1056.7 1077.66C1056.69 1077.58 1056.7 1077.48 1056.72 1077.4C1056.75 1077.29 1056.77 1077.19 1056.79 1077.08C1056.84 1076.95 1056.87 1076.82 1056.89 1076.69C1057.05 1076.71 1057.22 1076.72 1057.39 1076.72C1057.48 1076.73 1057.61 1076.86 1057.66 1076.9C1057.8 1077.02 1057.94 1077.16 1058.06 1077.3C1058.19 1077.45 1058.32 1077.61 1058.43 1077.78C1058.5 1077.89 1058.59 1078.02 1058.6 1078.16C1058.65 1078.71 1058.7 1079.25 1058.75 1079.8C1058.79 1080.23 1058.83 1080.8 1059.1 1081.16C1059.3 1081.42 1059.59 1081.52 1059.9 1081.55C1060 1081.59 1060.09 1081.64 1060.19 1081.7C1060.27 1081.75 1060.36 1081.78 1060.44 1081.82C1060.5 1081.84 1060.57 1081.86 1060.64 1081.86C1061.2 1081.89 1061.77 1081.98 1062.32 1082.11C1062.67 1082.19 1063.07 1082.29 1063.44 1082.31C1063.55 1082.32 1063.9 1082.42 1063.95 1082.43C1064.25 1082.52 1064.54 1082.6 1064.84 1082.7C1065.14 1082.79 1065.45 1082.88 1065.77 1082.96C1065.91 1082.99 1066.22 1083.08 1066.39 1083.09C1066.8 1083.15 1067.22 1083.21 1067.64 1083.27C1067.71 1083.28 1067.87 1083.32 1067.92 1083.34C1068.07 1083.38 1068.23 1083.43 1068.38 1083.47C1068.53 1083.52 1068.69 1083.56 1068.84 1083.59C1068.95 1083.61 1069.06 1083.64 1069.17 1083.64C1069.38 1083.65 1069.65 1083.68 1069.86 1083.74C1070 1083.78 1070.16 1083.83 1070.28 1083.9C1070.38 1083.95 1070.48 1084.02 1070.58 1084.06C1070.68 1084.1 1070.78 1084.13 1070.89 1084.13C1071 1084.14 1071.31 1084.26 1071.37 1084.28C1071.64 1084.39 1071.91 1084.5 1072.19 1084.61C1072.48 1084.73 1072.78 1084.87 1073.07 1085.01C1073.26 1085.11 1073.53 1085.26 1073.71 1085.39C1073.98 1085.63 1074.28 1085.9 1074.56 1086.13C1074.88 1086.39 1075.24 1086.58 1075.61 1086.75C1075.76 1087.03 1076.01 1087.29 1076.21 1087.51C1076.55 1087.89 1076.9 1088.28 1077.24 1088.67C1077.59 1089.07 1077.93 1089.48 1078.26 1089.9C1078.5 1090.2 1078.74 1090.54 1078.84 1090.93C1078.89 1091.13 1078.95 1091.36 1079.04 1091.55C1079.09 1091.71 1079.17 1091.86 1079.26 1092.01C1079.33 1092.14 1079.4 1092.28 1079.47 1092.42C1079.54 1092.57 1079.6 1092.77 1079.64 1092.93L1079.71 1093.22C1079.73 1093.33 1079.76 1093.46 1079.77 1093.59C1079.78 1093.67 1079.8 1093.76 1079.86 1093.82C1079.92 1093.91 1079.97 1094.02 1080.01 1094.13C1080.05 1094.25 1080.09 1094.37 1080.12 1094.5C1080.16 1094.67 1080.19 1094.85 1080.22 1095.03C1080.26 1095.28 1080.3 1095.52 1080.35 1095.76C1080.38 1095.99 1080.42 1096.22 1080.46 1096.45C1080.48 1096.59 1080.5 1096.73 1080.54 1096.87C1080.58 1097.01 1080.6 1097.32 1080.61 1097.44C1080.64 1097.72 1080.63 1098.01 1080.59 1098.29C1080.56 1098.55 1080.51 1098.81 1080.41 1099.05C1080.32 1099.25 1080.15 1099.37 1079.93 1099.36C1079.82 1099.35 1079.62 1099.21 1079.55 1099.17C1079.34 1099.04 1079.12 1098.91 1078.91 1098.77C1078.69 1098.61 1078.46 1098.47 1078.25 1098.3C1078.15 1098.23 1077.93 1098.07 1077.82 1097.96C1077.66 1097.96 1077.48 1097.75 1077.38 1097.64C1077.16 1097.41 1076.94 1097.15 1076.74 1096.88C1076.53 1096.59 1076.32 1096.29 1076.12 1095.98C1075.99 1095.74 1075.84 1095.49 1075.78 1095.22C1075.73 1095.01 1075.69 1094.82 1075.65 1094.62C1075.68 1094.55 1075.72 1094.48 1075.75 1094.41C1075.78 1094.36 1075.81 1094.29 1075.83 1094.22C1075.85 1094.16 1075.88 1094.09 1075.91 1094.04C1075.92 1093.75 1075.94 1093.46 1075.95 1093.17C1075.95 1093.02 1075.94 1092.86 1075.93 1092.71C1075.94 1092.58 1075.93 1092.45 1075.91 1092.33C1075.89 1092.22 1075.88 1092.11 1075.86 1092.01C1075.8 1091.75 1075.74 1091.49 1075.69 1091.23C1075.58 1090.76 1075.41 1090.32 1075.14 1089.93C1074.87 1089.51 1074.55 1089.14 1074.2 1088.8C1074.12 1088.59 1073.8 1088.46 1073.63 1088.38C1073.25 1088.2 1072.83 1088.01 1072.44 1087.85C1071.95 1087.65 1071.45 1087.46 1070.95 1087.29C1070.45 1087.12 1069.96 1086.95 1069.45 1086.78C1069.06 1086.65 1068.63 1086.51 1068.24 1086.4C1068.18 1086.39 1067.73 1086.27 1067.59 1086.26L1067.09 1086.23C1066.94 1086.23 1066.79 1086.17 1066.64 1086.14C1066.31 1086.06 1065.99 1085.97 1065.66 1085.88C1065.23 1085.77 1064.81 1085.65 1064.39 1085.53C1063.93 1085.4 1063.48 1085.27 1063.02 1085.14C1062.61 1085.04 1062.2 1084.92 1061.79 1084.79C1061.53 1084.71 1061.18 1084.6 1060.92 1084.49C1060.78 1084.49 1060.64 1084.46 1060.51 1084.43C1060.37 1084.4 1060.22 1084.37 1060.09 1084.31L1059.66 1084.15C1059.43 1084.13 1059.28 1084.29 1059.2 1084.52C1059.12 1084.81 1059.08 1085.11 1059.05 1085.42C1059.03 1085.71 1059 1086.02 1058.95 1086.31C1058.91 1086.52 1058.8 1086.71 1058.58 1086.69C1058.45 1086.69 1058.32 1086.66 1058.19 1086.62C1058.02 1086.57 1057.9 1086.41 1057.8 1086.27C1057.65 1086.1 1057.56 1085.88 1057.51 1085.65C1057.45 1085.4 1057.39 1085.14 1057.34 1084.88C1057.3 1084.63 1057.23 1084.38 1057.15 1084.15C1057.06 1083.95 1056.93 1083.76 1056.74 1083.66C1056.6 1083.52 1056.4 1083.43 1056.23 1083.35C1055.94 1083.23 1055.63 1083.13 1055.34 1083.06C1054.97 1082.96 1054.61 1082.87 1054.25 1082.79C1053.88 1082.7 1053.51 1082.63 1053.14 1082.55C1052.82 1082.5 1052.52 1082.44 1052.2 1082.4C1052 1082.37 1051.8 1082.35 1051.6 1082.33C1051.42 1082.19 1051.2 1082.04 1051.01 1081.92C1050.8 1081.79 1050.56 1081.69 1050.31 1081.68C1050.07 1081.67 1049.85 1081.57 1049.64 1081.44C1049.41 1081.27 1049.18 1081.09 1048.97 1080.9C1048.75 1080.69 1048.55 1080.47 1048.37 1080.24C1048.2 1080.04 1048.05 1079.82 1047.92 1079.61C1047.7 1079.32 1047.46 1079.02 1047.21 1078.77C1046.94 1078.51 1046.71 1078.21 1046.49 1077.9C1046.44 1077.74 1046.36 1077.58 1046.26 1077.44C1046.16 1077.29 1046.06 1077.14 1045.98 1076.99C1045.88 1076.83 1045.8 1076.67 1045.74 1076.49C1045.66 1076.28 1045.64 1076.06 1045.64 1075.84C1045.64 1075.64 1045.64 1075.44 1045.64 1075.25ZM1055.84 1071.62C1055.8 1071.24 1055.78 1070.8 1055.76 1070.42C1055.75 1070.02 1055.75 1069.61 1055.84 1069.22C1055.82 1068.99 1055.84 1068.67 1056.07 1068.56C1056.28 1068.45 1056.48 1068.32 1056.67 1068.19C1056.73 1068.09 1056.82 1067.97 1056.9 1067.88C1057 1067.76 1057.09 1067.64 1057.21 1067.54C1057.31 1067.45 1057.42 1067.37 1057.54 1067.3C1057.64 1067.25 1057.75 1067.21 1057.86 1067.22C1058.56 1067.35 1059.25 1067.48 1059.94 1067.62C1060.47 1067.65 1060.96 1067.87 1061.42 1068.13C1062 1068.46 1062.52 1068.92 1062.96 1069.44C1063.09 1069.61 1063.24 1069.76 1063.42 1069.86C1063.58 1069.96 1063.75 1070.05 1063.91 1070.13C1064.08 1070.24 1064.25 1070.34 1064.42 1070.45C1064.62 1070.58 1064.8 1070.74 1064.96 1070.92C1065.11 1071.08 1065.26 1071.26 1065.42 1071.41C1065.61 1071.61 1065.8 1071.81 1065.98 1072C1066.17 1072.21 1066.36 1072.43 1066.53 1072.66C1066.68 1072.88 1066.82 1073.12 1066.92 1073.37C1067.07 1073.66 1067.23 1073.99 1067.39 1074.27C1067.5 1074.47 1067.63 1074.7 1067.73 1074.92C1067.82 1075.1 1067.9 1075.3 1067.95 1075.5C1068.01 1075.71 1068.06 1075.93 1068.1 1076.15C1068.14 1076.48 1068.14 1076.81 1068.08 1077.13C1068.02 1077.41 1067.91 1077.67 1067.75 1077.89C1067.6 1078.1 1067.41 1078.27 1067.19 1078.4C1066.98 1078.52 1066.73 1078.58 1066.5 1078.56C1065.95 1078.53 1065.39 1078.5 1064.84 1078.46C1064.74 1078.46 1064.66 1078.5 1064.59 1078.59C1064.46 1078.75 1064.07 1078.7 1063.92 1078.69C1063.29 1078.68 1062.67 1078.38 1062.13 1078.08C1061.4 1077.69 1060.7 1077.23 1060.01 1076.72C1059.38 1076.25 1058.76 1075.74 1058.17 1075.19C1057.81 1074.85 1057.39 1074.48 1057.16 1074.03C1057.03 1073.79 1056.9 1073.57 1056.73 1073.36C1056.59 1073.19 1056.45 1073.01 1056.31 1072.83C1056.19 1072.67 1056.08 1072.5 1056 1072.31C1055.89 1072.1 1055.85 1071.86 1055.84 1071.62ZM1058.54 1071.61C1058.58 1072.03 1058.76 1072.42 1058.98 1072.77C1059.23 1073.16 1059.51 1073.53 1059.82 1073.88C1060.12 1074.2 1060.43 1074.51 1060.76 1074.8C1060.92 1074.94 1061.23 1075.22 1061.43 1075.37C1061.75 1075.5 1062.07 1075.64 1062.39 1075.77C1062.61 1075.87 1062.84 1075.96 1063.07 1076.04C1063.09 1076.05 1063.39 1076.14 1063.47 1076.15C1063.62 1076.16 1063.78 1076.17 1063.93 1076.17C1063.98 1076.06 1064.09 1076 1064.19 1075.95C1064.33 1075.89 1064.46 1075.8 1064.59 1075.71C1064.72 1075.62 1064.83 1075.51 1064.92 1075.37C1065.04 1075.2 1065.04 1074.97 1065.02 1074.78C1064.82 1074.34 1064.62 1073.89 1064.41 1073.45C1064.24 1073.12 1064.06 1072.79 1063.88 1072.47C1063.74 1072.22 1063.59 1071.97 1063.37 1071.8C1063.1 1071.61 1062.82 1071.44 1062.54 1071.27C1062.24 1071.09 1061.94 1070.9 1061.64 1070.72C1061.48 1070.77 1061.34 1070.64 1061.25 1070.53C1061.15 1070.42 1061.02 1070.29 1060.87 1070.29C1060.65 1070.27 1060.43 1070.26 1060.21 1070.24C1060.1 1070.24 1059.9 1070.28 1059.81 1070.3C1059.61 1070.36 1059.41 1070.45 1059.22 1070.55C1059.04 1070.66 1058.86 1070.81 1058.72 1070.99C1058.59 1071.17 1058.53 1071.38 1058.54 1071.61ZM1054.91 1061.24C1054.89 1061.1 1054.84 1060.86 1054.95 1060.73C1055.08 1060.59 1055.11 1060.35 1055.16 1060.17C1055.22 1059.95 1055.3 1059.73 1055.42 1059.53C1055.51 1059.37 1055.65 1059.27 1055.82 1059.27C1055.91 1059.3 1055.99 1059.33 1056.07 1059.36C1056.26 1059.41 1056.45 1059.41 1056.62 1059.32C1056.8 1059.33 1056.97 1059.4 1057.12 1059.47C1057.25 1059.54 1057.42 1059.6 1057.57 1059.55C1057.64 1059.5 1057.69 1059.42 1057.73 1059.35C1057.77 1059.28 1057.81 1059.21 1057.84 1059.13C1057.86 1059.06 1057.86 1058.98 1057.83 1058.9C1057.76 1058.6 1057.54 1058.34 1057.35 1058.13C1057.06 1057.84 1056.76 1057.56 1056.45 1057.29C1056.13 1057.02 1055.8 1056.75 1055.48 1056.48C1055.25 1056.26 1055 1056.03 1054.84 1055.74C1054.76 1055.38 1054.67 1055.01 1054.59 1054.65C1054.55 1054.5 1054.53 1054.34 1054.54 1054.18C1054.54 1054.06 1054.54 1053.9 1054.53 1053.78C1054.64 1053.45 1054.81 1053.1 1055.15 1052.98C1055.33 1052.92 1055.59 1052.82 1055.79 1052.77C1056.09 1052.76 1056.39 1052.99 1056.62 1053.15C1056.96 1053.42 1057.26 1053.75 1057.5 1054.13C1057.57 1054.27 1057.63 1054.44 1057.68 1054.59C1057.73 1054.73 1057.77 1054.87 1057.81 1055.01C1057.82 1055.1 1057.83 1055.19 1057.82 1055.28C1057.82 1055.35 1057.8 1055.43 1057.79 1055.5C1057.77 1055.6 1057.76 1055.72 1057.76 1055.83C1057.76 1055.95 1057.77 1056.07 1057.78 1056.19C1057.81 1056.51 1057.91 1056.8 1058.07 1057.06C1058.23 1057.34 1058.41 1057.61 1058.59 1057.88C1058.92 1058.27 1059.29 1058.61 1059.71 1058.86C1060.06 1059.07 1060.43 1059.24 1060.84 1059.26C1060.98 1059.47 1061.13 1059.67 1061.28 1059.86C1061.44 1060.08 1061.64 1060.27 1061.87 1060.4C1062.07 1060.54 1062.3 1060.63 1062.53 1060.63C1062.78 1060.64 1063 1060.73 1063.19 1060.86C1063.4 1060.85 1063.61 1060.88 1063.81 1060.9C1064.06 1060.94 1064.3 1061 1064.54 1061.07C1064.79 1061.15 1065.05 1061.23 1065.29 1061.34C1065.52 1061.45 1065.74 1061.56 1065.94 1061.7C1066.05 1061.88 1066.15 1062.09 1066.22 1062.3C1066.32 1062.55 1066.39 1062.79 1066.46 1063.04C1066.54 1063.35 1066.61 1063.66 1066.66 1063.96C1066.69 1064.12 1066.61 1064.28 1066.55 1064.41C1066.5 1064.49 1066.45 1064.57 1066.4 1064.65C1066.21 1064.79 1066.02 1064.94 1065.83 1065.09C1065.66 1065.12 1065.41 1065.04 1065.27 1064.99C1065 1064.9 1064.73 1064.8 1064.46 1064.69C1064.21 1064.59 1063.96 1064.49 1063.72 1064.39C1063.59 1064.34 1063.47 1064.25 1063.34 1064.25C1062.86 1063.78 1062.3 1063.36 1061.67 1063.13C1061.1 1062.94 1060.55 1062.73 1059.99 1062.51C1059.51 1062.58 1059.02 1062.63 1058.54 1062.7C1058.38 1062.79 1058.27 1062.93 1058.29 1063.13C1058.3 1063.3 1058.33 1063.49 1058.38 1063.66C1058.44 1063.94 1058.5 1064.24 1058.65 1064.48C1058.74 1064.63 1058.83 1064.79 1058.95 1064.91C1059.05 1065.05 1059.15 1065.18 1059.25 1065.31C1059.39 1065.53 1059.44 1065.81 1059.49 1066.06C1059.5 1066.22 1059.46 1066.35 1059.29 1066.4C1059.16 1066.43 1059.02 1066.47 1058.9 1066.51C1058.74 1066.56 1058.6 1066.48 1058.48 1066.38C1058.32 1066.24 1058.19 1066.07 1058.07 1065.89C1057.93 1065.66 1057.79 1065.42 1057.67 1065.19C1057.54 1064.95 1057.4 1064.7 1057.25 1064.47C1057.04 1064.19 1056.8 1063.93 1056.54 1063.7C1056.3 1063.48 1056.06 1063.26 1055.83 1063.03C1055.61 1062.81 1055.41 1062.55 1055.25 1062.28C1055.06 1061.97 1054.97 1061.6 1054.91 1061.24ZM1054.12 1046.88C1054.09 1046.47 1054.1 1046.05 1054.21 1045.65C1054.28 1045.36 1054.41 1045.08 1054.6 1044.86C1054.77 1044.67 1054.97 1044.52 1055.21 1044.45C1055.45 1044.36 1055.71 1044.35 1055.96 1044.38C1056.4 1044.41 1056.71 1044.76 1056.92 1045.14C1057.17 1045.61 1057.4 1046.09 1057.6 1046.6C1057.83 1047.07 1058.02 1047.55 1058.19 1048.04C1058.35 1048.52 1058.54 1049 1058.75 1049.47C1058.93 1049.86 1059.15 1050.24 1059.42 1050.58C1059.66 1050.87 1059.97 1051.06 1060.33 1051.1C1060.63 1051.12 1060.93 1051.15 1061.23 1051.16C1061.48 1051.23 1061.72 1051.13 1061.92 1050.96C1062.14 1050.76 1062.23 1050.47 1062.2 1050.18C1062.24 1050.09 1062.15 1049.98 1062.11 1049.89C1062.03 1049.71 1061.95 1049.52 1061.87 1049.34C1061.77 1049.14 1061.67 1048.94 1061.58 1048.73C1061.5 1048.58 1061.43 1048.44 1061.35 1048.29C1061.25 1048.01 1061.16 1047.73 1061.04 1047.45C1061 1047.33 1060.93 1047.15 1060.96 1047.01C1060.95 1046.88 1060.95 1046.73 1060.97 1046.6C1060.99 1046.45 1061.16 1046.43 1061.28 1046.45C1061.67 1046.53 1061.98 1046.85 1062.22 1047.16C1062.55 1047.58 1062.85 1048.03 1063.12 1048.5C1063.39 1048.95 1063.65 1049.42 1063.89 1049.9C1064.04 1050.19 1064.18 1050.53 1064.37 1050.79C1064.58 1051.13 1064.76 1051.51 1064.82 1051.92C1064.87 1052.26 1064.91 1052.61 1064.95 1052.95C1064.96 1053.17 1064.91 1053.38 1064.84 1053.59C1064.76 1053.79 1064.67 1053.98 1064.54 1054.16C1064.43 1054.3 1064.31 1054.44 1064.16 1054.53C1064.06 1054.6 1063.93 1054.65 1063.81 1054.61L1063.44 1054.6C1063.32 1054.58 1063.22 1054.64 1063.13 1054.71C1063.08 1054.76 1063.04 1054.8 1062.99 1054.84C1062.85 1054.8 1062.7 1054.76 1062.55 1054.71L1062.21 1054.69C1062.11 1054.69 1061.76 1054.6 1061.73 1054.59C1061.46 1054.52 1061.18 1054.45 1060.9 1054.37C1060.61 1054.28 1060.33 1054.21 1060.05 1054.13C1059.87 1054.07 1059.69 1054.03 1059.51 1053.97C1059.48 1053.92 1059.44 1053.83 1059.37 1053.82C1059.32 1053.82 1059.28 1053.83 1059.25 1053.85C1059.19 1053.87 1059.14 1053.88 1059.08 1053.88C1058.99 1053.87 1058.91 1053.79 1058.84 1053.72C1058.65 1053.71 1058.46 1053.62 1058.29 1053.52C1058.19 1053.44 1058.08 1053.36 1057.97 1053.28C1057.73 1053.11 1057.48 1052.93 1057.23 1052.76C1056.81 1052.67 1056.47 1052.3 1056.2 1051.96C1055.8 1051.47 1055.47 1050.93 1055.18 1050.36C1054.87 1049.76 1054.62 1049.13 1054.41 1048.49C1054.24 1047.98 1054.11 1047.43 1054.12 1046.88ZM1055.81 1048.54C1055.82 1048.68 1055.9 1048.8 1055.99 1048.9C1056.11 1049.02 1056.23 1049.15 1056.36 1049.27C1056.54 1049.4 1056.7 1049.52 1056.88 1049.65C1056.97 1049.68 1057.05 1049.72 1057.13 1049.76C1057.22 1049.81 1057.31 1049.85 1057.39 1049.88C1057.45 1049.91 1057.53 1049.91 1057.59 1049.86C1057.65 1049.8 1057.64 1049.67 1057.64 1049.59C1057.65 1049.41 1057.6 1049.23 1057.56 1049.06C1057.5 1048.81 1057.42 1048.57 1057.32 1048.34C1057.22 1048.1 1057.11 1047.87 1056.97 1047.65C1056.87 1047.5 1056.74 1047.34 1056.56 1047.3C1056.44 1047.29 1056.32 1047.28 1056.19 1047.28C1056.13 1047.28 1056.06 1047.31 1056.01 1047.37C1055.96 1047.44 1055.92 1047.52 1055.9 1047.6C1055.85 1047.72 1055.83 1047.84 1055.82 1047.95C1055.81 1048.15 1055.81 1048.34 1055.81 1048.54ZM1053.41 1035.34C1053.4 1035.02 1053.48 1034.69 1053.67 1034.43C1053.81 1034.23 1054 1034.02 1054.25 1034.04C1054.48 1034.05 1054.6 1034.45 1054.65 1034.62C1054.77 1035.03 1054.88 1035.47 1054.99 1035.89C1055.09 1036.35 1055.19 1036.82 1055.29 1037.28C1055.36 1037.58 1055.42 1037.93 1055.6 1038.18C1055.72 1038.37 1055.86 1038.54 1056.05 1038.66C1056.19 1038.76 1056.36 1038.82 1056.54 1038.83C1056.7 1038.84 1056.87 1038.81 1057.02 1038.72C1057.17 1038.63 1057.29 1038.53 1057.42 1038.39C1057.62 1038.23 1057.81 1038.05 1058 1037.86C1058.22 1037.64 1058.46 1037.46 1058.71 1037.3C1058.99 1037.12 1059.3 1036.99 1059.62 1036.88C1059.99 1036.77 1060.39 1036.74 1060.76 1036.76C1061.23 1036.79 1061.61 1037.13 1061.92 1037.46C1062.36 1037.95 1062.71 1038.52 1063.01 1039.12C1063.13 1039.48 1063.32 1039.97 1063.48 1040.33C1063.57 1040.57 1063.68 1040.83 1063.77 1041.08C1063.84 1041.27 1063.89 1041.49 1063.93 1041.7C1063.97 1041.93 1063.99 1042.21 1064.01 1042.44C1064.03 1042.86 1064.06 1043.28 1064.09 1043.69C1064.1 1043.84 1064.12 1044.01 1064.14 1044.16C1064.17 1044.34 1064.21 1044.53 1064.25 1044.72C1064.3 1044.96 1064.34 1045.21 1064.39 1045.45L1064.4 1045.66C1064.42 1045.92 1064.44 1046.17 1064.46 1046.43C1064.49 1046.81 1064.47 1047.4 1063.97 1047.37C1063.79 1047.36 1063.59 1047.15 1063.48 1047.03C1063.22 1046.78 1063 1046.5 1062.8 1046.21C1062.58 1045.88 1062.38 1045.54 1062.21 1045.18C1062.07 1044.9 1061.93 1044.59 1061.92 1044.26C1061.91 1044.15 1061.96 1044.01 1061.98 1043.91C1062.04 1043.74 1062.1 1043.54 1062.15 1043.36C1062.21 1043.12 1062.26 1042.86 1062.3 1042.62C1062.35 1042.31 1062.35 1042 1062.33 1041.68C1062.32 1041.45 1062.26 1041.23 1062.17 1041.03C1062.08 1040.84 1061.97 1040.66 1061.85 1040.51C1061.72 1040.38 1061.6 1040.26 1061.45 1040.17C1061.35 1040.11 1061.22 1040.05 1061.1 1040.04C1060.79 1040.03 1060.49 1040.25 1060.26 1040.45C1059.92 1040.74 1059.6 1041.07 1059.28 1041.39C1058.97 1041.71 1058.66 1042.04 1058.33 1042.34C1058.13 1042.53 1057.85 1042.76 1057.56 1042.75L1057.34 1042.73C1057.06 1042.61 1056.81 1042.45 1056.58 1042.27C1056.32 1042.07 1056.08 1041.85 1055.86 1041.6C1055.64 1041.35 1055.44 1041.09 1055.26 1040.8C1055.1 1040.52 1054.98 1040.21 1054.92 1039.88C1054.85 1039.69 1054.75 1039.52 1054.63 1039.36C1054.51 1039.19 1054.38 1039.02 1054.25 1038.86C1054.14 1038.69 1054.03 1038.52 1053.9 1038.34C1053.81 1038.2 1053.72 1038.03 1053.69 1037.86C1053.55 1037.6 1053.51 1037.27 1053.49 1036.98C1053.46 1036.69 1053.44 1036.4 1053.44 1036.11C1053.42 1035.85 1053.42 1035.6 1053.41 1035.34ZM1050.23 1026.7C1050.22 1026.49 1050.23 1026.29 1050.24 1026.08C1050.24 1025.91 1050.25 1025.71 1050.29 1025.54C1050.32 1025.39 1050.37 1025.24 1050.46 1025.13C1050.55 1025.02 1050.66 1024.98 1050.79 1024.99C1050.98 1025 1051.18 1025.38 1051.28 1025.5C1051.53 1025.87 1051.8 1026.24 1052.06 1026.61C1052.31 1026.98 1052.59 1027.35 1052.87 1027.72C1053.01 1027.89 1053.23 1028.23 1053.48 1028.24C1053.58 1028.24 1053.67 1028.2 1053.72 1028.09C1053.78 1027.98 1053.81 1027.87 1053.84 1027.74C1053.85 1027.59 1053.86 1027.45 1053.87 1027.3C1053.87 1027.2 1053.88 1027.09 1053.88 1026.97C1053.87 1026.59 1053.87 1026.22 1053.87 1025.83C1053.83 1025.76 1053.79 1025.69 1053.76 1025.61C1053.7 1025.47 1053.63 1025.32 1053.64 1025.16C1053.63 1024.9 1053.68 1024.59 1053.88 1024.43C1054.05 1024.29 1054.24 1024.23 1054.45 1024.23L1054.62 1024.24C1054.75 1024.26 1054.89 1024.26 1055.02 1024.27C1055.22 1024.29 1055.32 1024.53 1055.37 1024.71C1055.46 1025.01 1055.52 1025.32 1055.56 1025.64C1055.6 1025.96 1055.63 1026.29 1055.65 1026.62C1055.66 1026.8 1055.67 1027 1055.67 1027.19C1055.68 1027.22 1055.7 1027.65 1055.65 1027.78C1055.61 1027.85 1055.62 1027.99 1055.62 1028.05C1055.62 1028.29 1055.62 1028.52 1055.63 1028.75C1055.63 1028.96 1055.7 1029.16 1055.76 1029.35C1055.81 1029.48 1055.89 1029.73 1056.05 1029.75C1056.19 1029.75 1056.33 1029.77 1056.46 1029.81C1056.57 1029.83 1056.66 1029.86 1056.76 1029.89C1056.86 1029.92 1056.95 1029.95 1057.04 1029.98C1057.11 1030.05 1057.19 1030.12 1057.26 1030.2C1057.36 1030.29 1057.48 1030.39 1057.62 1030.4L1057.84 1030.41C1058.12 1030.43 1058.37 1030.51 1058.61 1030.63C1058.77 1030.71 1059.01 1030.8 1059.11 1030.97C1059.17 1031.07 1059.24 1031.18 1059.32 1031.27C1059.42 1031.38 1059.66 1031.39 1059.8 1031.4L1060.21 1031.42C1060.31 1031.43 1060.42 1031.4 1060.51 1031.37C1060.63 1031.33 1060.74 1031.25 1060.83 1031.15C1060.93 1031.03 1061 1030.89 1061.06 1030.75C1061.15 1030.55 1061.16 1030.33 1061.16 1030.12C1061.16 1029.87 1061.12 1029.59 1061 1029.35C1060.96 1029.25 1060.91 1029.16 1060.86 1029.07C1060.86 1028.93 1060.87 1028.77 1060.95 1028.64C1061.01 1028.55 1061.07 1028.45 1061.14 1028.36C1061.22 1028.27 1061.33 1028.2 1061.43 1028.13C1061.6 1028.14 1061.75 1028.28 1061.87 1028.38C1062.06 1028.55 1062.24 1028.75 1062.4 1028.96C1062.57 1029.17 1062.73 1029.4 1062.86 1029.64C1062.96 1029.82 1063.06 1030.02 1063.07 1030.24C1063.08 1030.44 1063.19 1030.6 1063.31 1030.73C1063.4 1030.81 1063.54 1030.97 1063.66 1030.97C1063.66 1031.08 1063.7 1031.28 1063.71 1031.36C1063.74 1031.55 1063.77 1031.73 1063.81 1031.92C1063.85 1032.15 1063.89 1032.38 1063.92 1032.62C1063.93 1032.83 1063.93 1033.11 1063.91 1033.33C1063.9 1033.45 1063.85 1033.58 1063.72 1033.58C1063.68 1033.7 1063.5 1033.82 1063.43 1033.87C1063.25 1034.01 1063.06 1034.14 1062.87 1034.26C1062.67 1034.38 1062.47 1034.49 1062.26 1034.58C1062.16 1034.64 1061.98 1034.72 1061.84 1034.72C1061.52 1034.7 1061.2 1034.67 1060.88 1034.66C1060.78 1034.65 1060.53 1034.56 1060.49 1034.54C1060.26 1034.47 1060.04 1034.39 1059.82 1034.3C1059.58 1034.2 1059.34 1034.11 1059.09 1034.05C1058.92 1033.99 1058.7 1033.93 1058.51 1033.92L1058.15 1033.9C1057.87 1033.72 1057.58 1033.53 1057.29 1033.33C1057.09 1033.2 1056.88 1033.07 1056.67 1032.94C1056.57 1032.87 1056.48 1032.76 1056.35 1032.74C1056.14 1032.73 1055.92 1032.72 1055.71 1032.71C1055.54 1032.7 1055.42 1032.79 1055.38 1032.97C1055.32 1033.11 1055.25 1033.26 1055.18 1033.41C1055.14 1033.52 1055.05 1033.64 1054.93 1033.63C1054.81 1033.63 1054.73 1033.54 1054.66 1033.46C1054.56 1033.34 1054.45 1033.2 1054.37 1033.06C1054.27 1032.9 1054.16 1032.75 1054.05 1032.59C1053.96 1032.46 1053.85 1032.32 1053.74 1032.21C1053.58 1032.08 1053.41 1031.92 1053.34 1031.71C1053.28 1031.54 1053.2 1031.36 1053.13 1031.2C1052.91 1030.89 1052.73 1030.55 1052.59 1030.2C1052.43 1029.82 1052.18 1029.48 1051.91 1029.18C1051.73 1029.01 1051.53 1028.85 1051.3 1028.74C1051.06 1028.61 1050.92 1028.34 1050.83 1028.08C1050.76 1027.78 1050.65 1027.5 1050.48 1027.26C1050.38 1027.11 1050.23 1026.9 1050.23 1026.7ZM1051.61 1010.49C1051.61 1010.39 1051.68 1010.21 1051.7 1010.13C1051.76 1009.96 1051.83 1009.78 1051.92 1009.63C1052.01 1009.46 1052.11 1009.31 1052.22 1009.17C1052.3 1009.08 1052.41 1008.97 1052.54 1008.98C1052.83 1009.19 1053.12 1009.41 1053.41 1009.63C1053.65 1009.8 1053.89 1009.98 1054.12 1010.15C1054.3 1010.29 1054.48 1010.43 1054.65 1010.57C1054.76 1010.71 1054.88 1010.84 1054.99 1010.97C1055.18 1011.18 1055.36 1011.39 1055.55 1011.6C1055.73 1011.8 1055.93 1012 1056.13 1012.17C1056.25 1012.26 1056.4 1012.42 1056.55 1012.42C1056.65 1012.32 1056.76 1012.23 1056.87 1012.13C1056.89 1011.75 1056.66 1011.35 1056.49 1011.05C1056.21 1010.52 1055.92 1010 1055.63 1009.49C1055.33 1008.96 1055.03 1008.41 1054.76 1007.87C1054.58 1007.49 1054.37 1007.04 1054.4 1006.59C1054.42 1006.28 1054.54 1006 1054.8 1005.82C1055.04 1005.65 1055.31 1005.52 1055.59 1005.43C1055.86 1005.35 1056.13 1005.3 1056.4 1005.29C1056.55 1005.29 1056.7 1005.28 1056.85 1005.29C1057.01 1005.29 1057.23 1005.42 1057.35 1005.48C1057.56 1005.58 1057.8 1005.68 1058.03 1005.74C1058.05 1005.8 1058.09 1005.88 1058.16 1005.89C1058.2 1005.9 1058.24 1005.89 1058.28 1005.86C1058.33 1005.85 1058.37 1005.81 1058.4 1005.77C1058.64 1005.82 1058.87 1005.97 1059.06 1006.1C1059.36 1006.29 1059.63 1006.51 1059.91 1006.73C1060.16 1006.94 1060.4 1007.15 1060.65 1007.36C1060.74 1007.45 1060.96 1007.62 1061.04 1007.77C1061.26 1008.03 1061.45 1008.32 1061.62 1008.62C1061.79 1008.93 1061.95 1009.25 1062.09 1009.57C1062.27 1009.96 1062.41 1010.37 1062.54 1010.78C1062.67 1011.22 1062.88 1011.63 1063.17 1011.96C1063.35 1012.32 1063.5 1012.7 1063.61 1013.08C1063.72 1013.45 1063.85 1013.82 1063.99 1014.16C1064.12 1014.46 1064.29 1014.73 1064.51 1014.96C1064.71 1015.16 1065.01 1015.22 1065.28 1015.17C1065.43 1015.19 1065.58 1015.19 1065.72 1015.2C1065.89 1015.23 1066.07 1015.27 1066.22 1015.34C1066.37 1015.39 1066.51 1015.45 1066.65 1015.52C1066.81 1015.59 1066.98 1015.64 1067.16 1015.7C1067.4 1015.78 1067.67 1015.8 1067.92 1015.81C1068.1 1015.84 1068.35 1015.88 1068.54 1015.93C1068.66 1015.96 1068.78 1016.02 1068.89 1016.08C1068.96 1016.14 1069.03 1016.2 1069.09 1016.26C1069.16 1016.31 1069.23 1016.34 1069.32 1016.37C1069.47 1016.38 1069.63 1016.38 1069.79 1016.39C1070.04 1016.41 1070.33 1016.46 1070.57 1016.51C1070.73 1016.52 1070.9 1016.52 1071.07 1016.53C1071.32 1016.54 1071.58 1016.47 1071.66 1016.19C1071.75 1015.91 1071.79 1015.61 1071.82 1015.31C1071.84 1015.1 1071.86 1014.88 1071.89 1014.66C1071.91 1014.34 1072.06 1014.03 1072.28 1013.8C1072.48 1013.61 1072.72 1013.45 1072.99 1013.47C1073.12 1013.47 1073.2 1013.64 1073.24 1013.74C1073.34 1013.95 1073.42 1014.21 1073.48 1014.43C1073.44 1014.78 1073.49 1015.15 1073.59 1015.49C1073.71 1015.9 1073.7 1016.33 1073.64 1016.76C1073.59 1017.21 1073.55 1017.66 1073.52 1018.11C1073.56 1018.6 1073.58 1019.1 1073.56 1019.6C1073.55 1020.1 1073.58 1020.6 1073.64 1021.1C1073.62 1021.26 1073.6 1021.5 1073.61 1021.67C1073.62 1021.78 1073.63 1021.9 1073.66 1022.02C1073.69 1022.12 1073.71 1022.23 1073.73 1022.33C1073.76 1022.46 1073.77 1022.6 1073.76 1022.73C1073.75 1022.87 1073.68 1023.01 1073.61 1023.13C1073.52 1023.24 1073.43 1023.34 1073.32 1023.42C1073.23 1023.5 1073.13 1023.56 1073.03 1023.6C1072.98 1023.62 1072.88 1023.67 1072.82 1023.66C1072.65 1023.63 1072.51 1023.54 1072.43 1023.38C1072.34 1023.21 1072.29 1023.03 1072.27 1022.84C1072.23 1022.62 1072.23 1022.41 1072.24 1022.19C1072.24 1022 1072.26 1021.81 1072.27 1021.62C1072.22 1021.52 1072.2 1021.4 1072.18 1021.29C1072.17 1021.17 1072.15 1021.05 1072.11 1020.94C1072.08 1020.84 1072.04 1020.74 1071.99 1020.65C1071.93 1020.57 1071.85 1020.52 1071.75 1020.52C1071.63 1020.43 1071.47 1020.35 1071.34 1020.27C1071.17 1020.19 1071 1020.11 1070.83 1020.03C1070.67 1019.95 1070.53 1019.88 1070.37 1019.81C1070.28 1019.77 1070.19 1019.72 1070.1 1019.67L1069.9 1019.66C1069.8 1019.66 1069.48 1019.55 1069.45 1019.54C1069.19 1019.45 1068.94 1019.34 1068.7 1019.22C1068.36 1019.1 1068.01 1018.94 1067.68 1018.78C1067.6 1018.73 1067.52 1018.67 1067.46 1018.6C1067.38 1018.55 1067.32 1018.5 1067.25 1018.45C1067.21 1018.41 1067.15 1018.37 1067.09 1018.37C1066.95 1018.36 1066.71 1018.31 1066.58 1018.29C1066.26 1018.22 1065.71 1018.18 1065.41 1018.17C1065.21 1018.03 1065.02 1017.89 1064.83 1017.76C1064.38 1017.6 1063.92 1017.45 1063.48 1017.29C1063.27 1017.24 1063.08 1017.2 1062.88 1017.15C1062.82 1017.15 1062.72 1017.06 1062.69 1017.04C1062.59 1016.95 1062.49 1016.86 1062.39 1016.77C1062.28 1016.67 1062.16 1016.59 1062.04 1016.51C1061.93 1016.45 1061.81 1016.39 1061.69 1016.39C1061.5 1016.36 1061.32 1016.32 1061.14 1016.3C1060.97 1016.27 1060.81 1016.25 1060.65 1016.22C1060.49 1016.18 1060.33 1016.15 1060.17 1016.12C1059.98 1016.04 1059.79 1015.95 1059.61 1015.84L1059.16 1015.6C1059.02 1015.53 1058.89 1015.45 1058.78 1015.34C1058.39 1015.29 1057.99 1015.25 1057.6 1015.2C1057.26 1015.17 1057.18 1015.55 1057.17 1015.83C1057.16 1016.02 1057.21 1016.21 1057.3 1016.37C1057.4 1016.57 1057.5 1016.79 1057.59 1017C1057.78 1017.34 1058.03 1017.79 1058.02 1018.2C1058.01 1018.23 1057.99 1018.38 1057.96 1018.41C1057.93 1018.43 1057.91 1018.46 1057.89 1018.47C1057.85 1018.5 1057.81 1018.49 1057.78 1018.47C1057.46 1018.45 1057.21 1018.23 1057.02 1017.97C1056.79 1017.65 1056.55 1017.33 1056.3 1017.02C1055.89 1016.63 1055.53 1016.18 1055.2 1015.71C1054.84 1015.19 1054.48 1014.67 1054.12 1014.15C1053.77 1013.63 1053.4 1013.13 1053.01 1012.64C1052.64 1012.18 1052.22 1011.78 1051.75 1011.44C1051.73 1011.33 1051.7 1011.22 1051.67 1011.12C1051.63 1010.91 1051.6 1010.7 1051.61 1010.49ZM1057.43 1009.56C1057.42 1009.79 1057.47 1010.03 1057.54 1010.24C1057.63 1010.52 1057.72 1010.8 1057.84 1011.06C1057.94 1011.29 1058.06 1011.54 1058.19 1011.76C1058.25 1011.87 1058.3 1012.04 1058.42 1012.06C1058.76 1012.35 1059.12 1012.64 1059.5 1012.9C1059.84 1013.14 1060.2 1013.39 1060.53 1013.64C1060.73 1013.65 1060.93 1013.67 1061.13 1013.68C1061.27 1013.68 1061.4 1013.64 1061.53 1013.58C1061.77 1013.47 1061.81 1012.97 1061.84 1012.75C1061.85 1012.54 1061.77 1012.32 1061.71 1012.13C1061.61 1011.85 1061.49 1011.59 1061.36 1011.33C1061.2 1011 1061.01 1010.67 1060.82 1010.36C1060.76 1010.17 1060.69 1009.99 1060.6 1009.83C1060.49 1009.64 1060.39 1009.45 1060.3 1009.26C1060.25 1009.2 1060.04 1009.03 1059.94 1008.99C1059.85 1008.94 1059.62 1008.93 1059.54 1008.93C1059.49 1008.92 1059.43 1008.93 1059.38 1008.96C1059.31 1008.98 1059.24 1008.99 1059.17 1009.01C1059.09 1009.05 1059 1009.08 1058.92 1009.1L1058.49 1009.07L1058.26 1009.06C1058.15 1009.05 1058.04 1009.06 1057.93 1009.07C1057.82 1009.09 1057.72 1009.14 1057.62 1009.21C1057.51 1009.29 1057.45 1009.43 1057.43 1009.56ZM1054.28 1000.09C1054.31 999.738 1054.43 999.397 1054.66 999.141C1054.83 998.948 1055.05 998.78 1055.3 998.792C1055.51 998.914 1055.7 999.028 1055.91 999.15C1056.02 999.009 1056.17 998.928 1056.33 998.895C1056.41 998.874 1056.5 998.87 1056.58 998.874C1056.87 998.895 1057.15 998.956 1057.41 999.081C1057.67 999.214 1057.97 999.275 1058.25 999.296L1058.44 999.304C1058.52 999.308 1058.61 999.328 1058.69 999.356C1058.79 999.385 1058.88 999.421 1058.96 999.473C1059.07 999.535 1059.18 999.588 1059.29 999.633L1059.54 999.652C1059.68 999.659 1059.82 999.698 1059.93 999.799C1060.05 999.901 1060.18 999.996 1060.31 1000.08C1060.43 1000.14 1060.55 1000.23 1060.65 1000.33C1060.76 1000.44 1060.91 1000.5 1061.07 1000.51C1061.15 1000.52 1061.25 1000.48 1061.32 1000.46C1061.43 1000.42 1061.54 1000.34 1061.64 1000.26C1061.75 1000.18 1061.85 1000.07 1061.93 999.954C1062.02 999.829 1062.07 999.678 1062.09 999.526C1062.12 999.358 1062.11 999.18 1062.05 999.024C1062 998.893 1061.93 998.753 1061.85 998.645C1061.79 998.529 1061.74 998.406 1061.71 998.275C1061.67 998.129 1061.67 997.983 1061.69 997.839C1061.72 997.615 1061.76 997.399 1061.78 997.183C1061.8 997.079 1061.85 996.968 1061.96 996.949C1062.07 996.929 1062.18 996.926 1062.29 996.931C1062.42 996.945 1062.46 997.14 1062.52 997.264C1062.63 997.495 1062.75 997.734 1062.86 997.981C1062.99 998.237 1063.1 998.5 1063.21 998.763C1063.27 998.943 1063.35 999.116 1063.42 999.296C1063.56 999.407 1063.8 999.668 1063.9 999.777C1064.13 1000.04 1064.36 1000.31 1064.58 1000.58C1064.8 1000.87 1064.99 1001.18 1065.15 1001.5C1065.28 1001.75 1065.39 1002.05 1065.34 1002.33C1065.32 1002.52 1065.25 1002.69 1065.17 1002.86C1065.07 1003.05 1064.96 1003.23 1064.82 1003.38C1064.71 1003.51 1064.57 1003.64 1064.43 1003.75C1064.31 1003.83 1064.18 1003.89 1064.04 1003.89C1063.92 1003.88 1063.8 1003.88 1063.68 1003.86C1063.58 1003.86 1063.47 1003.86 1063.37 1003.88C1063.26 1003.9 1063.22 1004.01 1063.2 1004.11C1063.06 1004.11 1062.92 1004.1 1062.78 1004.09C1062.58 1003.98 1062.38 1003.88 1062.18 1003.78C1061.84 1003.75 1061.49 1003.73 1061.14 1003.72C1060.96 1003.7 1060.77 1003.66 1060.62 1003.54C1060.48 1003.43 1060.3 1003.38 1060.13 1003.37L1059.92 1003.36C1059.77 1003.35 1059.61 1003.25 1059.49 1003.17C1059.31 1003.05 1059.11 1002.93 1058.91 1002.81C1058.7 1002.69 1058.49 1002.56 1058.28 1002.44C1058.11 1002.34 1057.93 1002.26 1057.73 1002.25C1057.57 1002.24 1057.43 1002.35 1057.32 1002.45C1057.12 1002.63 1057.06 1002.93 1057.03 1003.17C1057.02 1003.3 1057.04 1003.43 1057.09 1003.55C1057.2 1003.79 1057.12 1004.19 1057.1 1004.44C1057.08 1004.49 1057.02 1004.54 1056.97 1004.57C1056.88 1004.65 1056.75 1004.69 1056.63 1004.68L1056.28 1004.66C1056.03 1004.64 1055.83 1004.19 1055.74 1004.02C1055.49 1003.56 1055.27 1003.08 1055.07 1002.59C1054.86 1002.08 1054.68 1001.56 1054.5 1001.04C1054.42 1000.77 1054.25 1000.4 1054.28 1000.09ZM1048.8 999.659C1048.81 999.538 1048.8 999.4 1048.79 999.287C1048.78 999.133 1048.76 998.972 1048.75 998.818C1048.74 998.656 1048.73 998.502 1048.71 998.348C1048.7 998.259 1048.69 998.106 1048.7 998.017C1048.77 997.771 1048.91 997.511 1049.15 997.417C1049.37 997.322 1049.59 997.187 1049.78 997.034C1049.91 997.04 1050.04 997.03 1050.17 997.004C1050.28 996.977 1050.4 996.966 1050.53 996.972C1050.65 996.977 1050.76 997.055 1050.86 997.132C1051 997.243 1051.18 997.291 1051.36 997.299C1051.49 997.37 1051.61 997.44 1051.74 997.518C1051.89 997.606 1052.03 997.717 1052.14 997.851C1052.27 997.994 1052.36 998.151 1052.43 998.323C1052.51 998.512 1052.5 998.73 1052.46 998.929C1052.43 999.299 1052.31 999.648 1052.15 999.979C1052 1000.29 1051.8 1000.59 1051.52 1000.79C1051.42 1000.95 1051.26 1000.99 1051.09 1000.94C1050.94 1000.89 1050.77 1000.85 1050.61 1000.84C1050.25 1000.82 1049.88 1000.72 1049.6 1000.47C1049.32 1000.22 1049.05 999.936 1048.8 999.659ZM1055.72 990.992C1055.75 990.783 1055.82 990.569 1055.97 990.414C1056.1 990.291 1056.24 990.169 1056.39 990.063C1056.53 989.988 1056.71 989.988 1056.86 990.019C1057.05 990.052 1057.24 990.109 1057.42 990.173C1057.6 990.246 1057.77 990.31 1057.94 990.383C1058.01 990.41 1058.2 990.483 1058.29 990.495C1058.42 990.469 1058.55 990.442 1058.69 990.417C1058.87 990.295 1059.05 990.183 1059.23 990.062C1059.27 989.886 1059.11 989.654 1059.05 989.514C1058.89 989.192 1058.7 988.845 1058.52 988.538C1058.28 988.141 1058.05 987.751 1057.81 987.362C1057.57 986.972 1057.34 986.566 1057.1 986.169C1056.92 985.838 1056.72 985.475 1056.56 985.121C1056.48 984.94 1056.36 984.676 1056.39 984.452C1056.43 984.252 1056.56 984.097 1056.73 984C1056.92 983.887 1057.12 983.776 1057.32 983.672C1057.58 983.563 1057.86 983.479 1058.13 983.41C1058.46 983.401 1058.79 983.464 1059.1 983.543C1059.54 983.643 1059.98 983.792 1060.41 983.956C1060.87 984.139 1061.34 984.329 1061.8 984.528C1062.23 984.716 1062.67 984.905 1063.1 985.102C1063.42 985.246 1063.75 985.389 1064.07 985.541C1064.2 985.603 1064.33 985.714 1064.48 985.721C1064.56 985.732 1064.64 985.752 1064.71 985.771C1064.78 985.799 1064.87 985.819 1064.95 985.823C1065.03 985.826 1065.1 985.797 1065.16 985.751C1065.25 985.667 1065.29 985.507 1065.32 985.388C1065.28 985.249 1065.25 985.111 1065.22 984.964C1065.17 984.841 1065.14 984.711 1065.11 984.58C1065.06 984.425 1065.03 984.27 1064.98 984.115C1064.9 983.749 1064.81 983.374 1064.73 983.007C1064.7 982.885 1064.6 982.534 1064.64 982.35C1064.68 982.183 1064.8 982.035 1064.91 981.919C1065.01 981.819 1065.15 981.688 1065.3 981.695C1065.4 981.7 1065.45 981.847 1065.52 981.939C1065.65 982.114 1065.77 982.305 1065.87 982.503C1065.98 982.71 1066.08 982.924 1066.17 983.145C1066.22 983.276 1066.3 983.457 1066.26 983.601C1066.41 983.615 1066.51 983.693 1066.6 983.817C1066.67 983.934 1066.71 984.072 1066.67 984.216C1066.85 984.562 1067.04 984.893 1067.27 985.194C1067.47 985.453 1067.65 985.719 1067.83 985.993C1067.98 986.258 1068.09 986.545 1068.16 986.846C1068.23 987.229 1068.17 987.629 1068.08 987.996C1068.04 988.171 1067.94 988.336 1067.83 988.484C1067.72 988.648 1067.58 988.803 1067.42 988.933C1067.27 989.047 1067.12 989.153 1066.95 989.234C1066.84 989.286 1066.7 989.344 1066.57 989.33C1066.27 989.349 1065.97 989.367 1065.66 989.386C1065.23 989.205 1064.79 988.991 1064.37 988.763C1063.94 988.534 1063.51 988.305 1063.07 988.075C1062.76 987.884 1062.43 987.708 1062.09 987.563C1061.79 987.437 1061.48 987.326 1061.16 987.263L1060.89 987.243C1060.53 987.291 1060.16 987.468 1060.08 987.892C1060 988.323 1059.96 988.797 1060.1 989.215C1060.21 989.526 1060.38 989.816 1060.61 990.044C1060.84 990.272 1061.09 990.469 1061.37 990.634C1061.64 990.8 1061.89 990.98 1062.14 991.185C1062.19 991.276 1062.27 991.376 1062.37 991.429C1062.47 991.474 1062.59 991.455 1062.69 991.428C1062.88 991.485 1063.06 991.549 1063.24 991.622C1063.41 991.686 1063.59 991.775 1063.74 991.878C1064.2 992.157 1064.66 992.428 1065.13 992.691C1065.54 992.927 1065.97 993.164 1066.39 993.393C1066.51 993.317 1066.62 993.282 1066.61 993.459C1066.61 993.604 1066.59 993.748 1066.57 993.892C1066.53 994.084 1066.48 994.275 1066.44 994.475C1066.38 994.722 1066.31 994.969 1066.22 995.207C1066.13 995.428 1066.02 995.649 1065.88 995.844C1065.77 996.009 1065.62 996.139 1065.42 996.154C1065.14 996.182 1064.86 996.105 1064.61 995.964C1064.36 995.816 1064.12 995.644 1063.89 995.448C1063.69 995.286 1063.5 995.1 1063.32 994.914C1063.28 994.872 1063.1 994.655 1062.99 994.649C1062.85 994.643 1062.72 994.629 1062.59 994.623C1062.44 994.616 1062.29 994.602 1062.14 994.595C1062 994.645 1061.86 994.695 1061.72 994.745C1061.59 994.739 1061.47 994.653 1061.38 994.585C1061.24 994.482 1061.11 994.371 1060.98 994.26C1060.85 994.158 1060.73 994.056 1060.62 993.946C1060.56 993.895 1060.45 993.793 1060.35 993.789L1060.03 993.766C1059.72 993.784 1059.41 993.802 1059.1 993.813C1059 993.808 1058.89 993.819 1058.8 993.847C1058.66 993.881 1058.61 994.04 1058.6 994.169C1058.57 994.321 1058.58 994.482 1058.6 994.636C1058.62 994.815 1058.65 994.985 1058.68 995.164C1058.71 995.326 1058.73 995.489 1058.76 995.659C1058.78 995.765 1058.8 995.903 1058.78 996.023L1058.75 996.296C1058.66 996.453 1058.52 996.479 1058.37 996.399C1058.26 996.338 1058.11 996.259 1057.99 996.253C1057.55 995.685 1057.14 995.102 1056.77 994.489C1056.39 993.867 1056.12 993.178 1055.9 992.467C1055.85 992.247 1055.8 992.019 1055.76 991.799C1055.71 991.531 1055.68 991.264 1055.72 990.992ZM1058.64 973.808C1058.74 973.386 1058.89 972.965 1059.14 972.606C1059.34 972.3 1059.6 972.03 1059.91 971.826C1060.2 971.638 1060.52 971.507 1060.85 971.434C1061.19 971.36 1061.54 971.352 1061.88 971.399C1062.35 971.429 1062.71 971.695 1062.88 972.154C1063.05 972.629 1063.18 973.119 1063.27 973.615C1063.38 974.079 1063.46 974.558 1063.51 975.044C1063.55 975.522 1063.62 975.992 1063.73 976.457C1063.82 976.848 1063.96 977.233 1064.18 977.565C1064.4 977.89 1064.76 978.051 1065.13 978.092C1065.5 978.117 1065.87 978.142 1066.24 978.166C1066.56 978.237 1066.89 978.132 1067.18 977.976C1067.49 977.812 1067.75 977.566 1067.86 977.216C1067.92 977.154 1067.87 977.031 1067.86 976.934C1067.83 976.755 1067.8 976.568 1067.76 976.39C1067.72 976.186 1067.68 975.99 1067.63 975.787C1067.59 975.64 1067.56 975.493 1067.52 975.347C1067.5 975.072 1067.49 974.797 1067.46 974.522C1067.44 974.384 1067.43 974.206 1067.52 974.089C1067.56 973.946 1067.63 973.804 1067.7 973.678C1067.8 973.53 1068.02 973.523 1068.17 973.538C1068.58 973.613 1068.9 973.893 1069.12 974.258C1069.37 974.673 1069.58 975.117 1069.74 975.584C1069.9 976.035 1070.04 976.5 1070.14 976.964C1070.19 977.241 1070.25 977.59 1070.37 977.854C1070.5 978.198 1070.56 978.587 1070.46 978.954C1070.37 979.297 1070.28 979.631 1070.18 979.965C1070.09 980.203 1069.95 980.406 1069.78 980.592C1069.59 980.793 1069.4 980.986 1069.18 981.145C1068.98 981.289 1068.78 981.425 1068.56 981.512C1068.42 981.57 1068.25 981.627 1068.09 981.588C1067.95 981.581 1067.8 981.574 1067.65 981.56C1067.51 981.553 1067.36 981.611 1067.23 981.678C1067.16 981.715 1067.09 981.752 1067.01 981.805C1066.85 981.757 1066.69 981.709 1066.53 981.67C1066.39 981.664 1066.25 981.649 1066.11 981.643C1066.01 981.638 1065.63 981.549 1065.58 981.538C1065.27 981.468 1064.96 981.389 1064.65 981.311C1064.33 981.224 1064.02 981.137 1063.7 981.058C1063.5 981.009 1063.3 980.96 1063.1 980.902C1063.08 980.837 1063.05 980.755 1062.98 980.752C1062.93 980.749 1062.87 980.755 1062.82 980.777C1062.75 980.798 1062.68 980.803 1062.62 980.8C1062.52 980.795 1062.44 980.719 1062.38 980.644C1062.16 980.634 1061.96 980.552 1061.78 980.431C1061.68 980.354 1061.57 980.277 1061.47 980.2C1061.22 980.027 1060.97 979.847 1060.73 979.666C1060.28 979.59 1059.95 979.236 1059.71 978.87C1059.37 978.38 1059.12 977.836 1058.93 977.272C1058.73 976.674 1058.59 976.047 1058.53 975.407C1058.47 974.881 1058.48 974.325 1058.64 973.808ZM1060.29 975.487C1060.26 975.623 1060.32 975.747 1060.41 975.847C1060.52 975.973 1060.64 976.1 1060.76 976.218C1060.94 976.347 1061.11 976.476 1061.29 976.596C1061.38 976.633 1061.48 976.677 1061.57 976.722C1061.66 976.766 1061.76 976.811 1061.86 976.848C1061.95 976.868 1062.03 976.872 1062.11 976.827C1062.2 976.775 1062.24 976.655 1062.27 976.552C1062.33 976.394 1062.34 976.209 1062.35 976.04C1062.36 975.79 1062.33 975.555 1062.29 975.32C1062.25 975.084 1062.17 974.855 1062.07 974.641C1061.98 974.467 1061.85 974.316 1061.65 974.283L1061.2 974.255C1061.1 974.25 1061.01 974.286 1060.93 974.339C1060.84 974.4 1060.77 974.477 1060.71 974.571C1060.62 974.672 1060.55 974.79 1060.49 974.908C1060.42 975.098 1060.36 975.297 1060.29 975.487Z" fill="white"/>
</svg>
