<svg width="2160" height="2700" viewBox="0 0 2160 2700" fill="none" xmlns="http://www.w3.org/2000/svg">
<path fill-rule="evenodd" clip-rule="evenodd" d="M1070.65 847.418C1370.69 847.418 1614.29 1129.92 1614.29 1477.88C1614.29 1825.83 1370.69 2108.34 1070.65 2108.34C770.608 2108.34 527.012 1825.83 527.012 1477.88C527.012 1129.92 770.608 847.418 1070.65 847.418ZM1069.26 991.38L897.873 1046.97L963.341 1136.9H1175.18L1240.65 1046.97L1069.26 991.38Z" fill="#636769" stroke="black" stroke-width="9.13883" stroke-miterlimit="1.5" stroke-linecap="round" stroke-linejoin="round"/>
<path d="M1149.7 1328.66H993.352V1419.2H1149.7V1328.66Z" fill="#DED797" stroke="#F4EC62" stroke-width="5.02966" stroke-miterlimit="1.5" stroke-linecap="round" stroke-linejoin="round"/>
<path fill-rule="evenodd" clip-rule="evenodd" d="M1022.73 1227.11L1030.72 1240.31L1100.44 1240.96L1109.69 1226.69L1022.73 1227.11Z" stroke="black" stroke-width="5" stroke-miterlimit="1.5" stroke-linecap="round" stroke-linejoin="round"/>
<path fill-rule="evenodd" clip-rule="evenodd" d="M1067.44 1239.83C1065.69 1230.45 1035.78 1231.18 1023.89 1229.4L1109.58 1226.33L1101.01 1239.27L1067.44 1239.83Z" fill="black" fill-opacity="0.4"/>
<path fill-rule="evenodd" clip-rule="evenodd" d="M1069.98 973.588L1289.79 1048.46L1205.82 1169.6H934.135L850.178 1048.46L1069.98 973.588Z" stroke="black" stroke-width="6.55996" stroke-miterlimit="1.5" stroke-linecap="round" stroke-linejoin="round"/>
<path fill-rule="evenodd" clip-rule="evenodd" d="M860.11 1062.78L872.341 1055.11L895.666 1045.8L1066.98 987.412L1241.86 1048.07L1219.78 1079.1L1239.03 1087.35L1222.83 1143.36L1291.3 1044.88L1069.47 968.516L851.06 1045.16L860.11 1062.78Z" fill="black" fill-opacity="0.4"/>
<path fill-rule="evenodd" clip-rule="evenodd" d="M1068.87 976.887L1273.7 1043.93L1195.46 1152.39H942.273L864.034 1043.93L1068.87 976.887Z" stroke="black" stroke-width="5.99191" stroke-miterlimit="1.5" stroke-linecap="round" stroke-linejoin="round"/>
<path fill-rule="evenodd" clip-rule="evenodd" d="M1068.83 992.154L1238.47 1047.27L1173.67 1136.44H963.989L899.194 1047.27L1068.83 992.154Z" fill="#505050" fill-opacity="0.2" stroke="black" stroke-width="4.94411" stroke-miterlimit="1.5" stroke-linecap="round" stroke-linejoin="round"/>
<path fill-rule="evenodd" clip-rule="evenodd" d="M1072.72 1014.14C1072.72 1014.14 1180.12 1035.84 1194.81 1052.62C1209.5 1069.4 1160.86 1114.83 1160.86 1114.83C1160.86 1114.83 1187.65 1072.87 1176.21 1059.81C1161.52 1043.03 1072.72 1014.14 1072.72 1014.14Z" fill="white"/>
<path d="M786.372 1886.88C786.372 1886.88 675.985 1659.79 728.975 1585.26C781.966 1510.73 1074.56 1482.77 1074.56 1482.77C1074.56 1482.77 1249.9 1433.27 1299.53 1343.74C1303.49 1336.59 1307.67 1328.27 1311.99 1319.01C1315.07 1312.41 1347.3 1319.77 1350.52 1312.3C1353.71 1304.86 1327.9 1282.58 1331.18 1274.45C1378.02 1158.55 1431.56 980.646 1431.56 980.646" stroke="black" stroke-width="8" stroke-miterlimit="1.5" stroke-linecap="round" stroke-linejoin="round"/>
<path d="M1359.77 1886.88C1359.77 1886.88 1470.15 1659.79 1417.16 1585.26C1364.17 1510.73 1071.58 1482.77 1071.58 1482.77C1071.58 1482.77 896.239 1433.27 846.609 1343.74C839.319 1330.59 831.339 1313.5 823.019 1293.92C819.109 1284.72 785.089 1290.63 781.069 1280.48C778.069 1272.9 805.089 1249.45 802.059 1241.49C758.829 1127.68 714.579 980.646 714.579 980.646" stroke="black" stroke-width="8" stroke-miterlimit="1.5" stroke-linecap="round" stroke-linejoin="round"/>
<path fill-rule="evenodd" clip-rule="evenodd" d="M1298.32 1611.48C1294.06 1608.64 1290.4 1605.38 1288.54 1601.53C1286.12 1596.54 1287.62 1589.99 1290.22 1584.97C1292.48 1580.59 1296.47 1577.37 1301.28 1575.41C1304.13 1567.08 1313.25 1561.59 1323.28 1562.75C1324.64 1562.9 1325.96 1563.17 1327.22 1563.55L1321.41 1358.24C1318.43 1354.62 1316.29 1350.62 1314.89 1349.3C1312.56 1347.11 1316.86 1340.79 1320.04 1341.21C1322.77 1341.56 1339.92 1353.73 1340.68 1352.68L1356.59 1356.38L1357.68 1362.41L1343.29 1361.92L1329.72 1564.46C1337.62 1567.87 1342.73 1575.52 1341.79 1583.72C1341.66 1584.85 1341.42 1585.95 1341.08 1586.99C1347.03 1594.63 1349.44 1604.11 1345.45 1611.85C1341.98 1618.57 1335.59 1623.14 1327.75 1623.33C1324.53 1623.41 1321 1622.59 1317.51 1621.34C1314.48 1627.12 1310.42 1633.73 1307.31 1634.65C1301.65 1636.33 1294.63 1624.03 1294.04 1618.29C1293.78 1615.74 1295.89 1613.35 1298.32 1611.48ZM1327.83 1563.74C1328.27 1563.89 1328.71 1564.04 1329.14 1564.22L1333.11 1364.89C1332.58 1364.92 1332.05 1364.91 1331.54 1364.86L1327.83 1563.74Z" fill="black" fill-opacity="0.3"/>
<path fill-rule="evenodd" clip-rule="evenodd" d="M1312.8 1616.65C1314.98 1619.31 1322.51 1621.37 1322.51 1621.37L1317.93 1625.41C1317.93 1625.41 1310.62 1613.99 1312.8 1616.65Z" fill="white"/>
<path fill-rule="evenodd" clip-rule="evenodd" d="M1316.54 1604.47C1316.54 1604.47 1305.24 1609.65 1305.97 1615.38C1306.69 1621.1 1314 1633.23 1319.61 1631.42C1325.24 1629.62 1333.57 1608.84 1333.57 1608.84L1316.54 1604.47Z" fill="#FFAAAC" stroke="black" stroke-width="4.97796" stroke-miterlimit="1.5" stroke-linecap="square" stroke-linejoin="round"/>
<path fill-rule="evenodd" clip-rule="evenodd" d="M1320.57 1614.14C1312.56 1610.24 1303.53 1605.48 1300.07 1598.75C1297.54 1593.82 1298.88 1587.24 1301.36 1582.15C1307.21 1570.13 1325.94 1566.39 1339.83 1573.15C1353.71 1579.91 1363.06 1595.71 1357.2 1607.73C1353.89 1614.53 1347.62 1619.25 1339.78 1619.63C1333.77 1619.92 1326.6 1617.08 1320.57 1614.14Z" fill="#54C5ED"/>
<path fill-rule="evenodd" clip-rule="evenodd" d="M1320 1615.31C1315.29 1613.12 1310.24 1610.64 1306.09 1607.65C1302.83 1605.3 1300.14 1602.62 1298.5 1599.56C1297.28 1597.29 1296.8 1594.68 1296.84 1592.01C1296.9 1588.34 1297.99 1584.52 1299.52 1581.25C1302.78 1574.3 1309.92 1569.72 1318.23 1568.05C1325.59 1566.57 1333.85 1567.43 1340.97 1570.8C1349.51 1574.94 1356.5 1582.24 1359.67 1590.19C1362.16 1596.43 1362.31 1603.04 1359.4 1608.8C1357.48 1612.55 1354.76 1615.71 1351.41 1617.93C1348.09 1620.13 1344.19 1621.45 1339.87 1621.55C1337.18 1621.6 1334.29 1621.09 1331.37 1620.2C1327.48 1619.01 1323.54 1617.18 1320 1615.31ZM1321.14 1612.98C1324.63 1614.54 1328.48 1616.05 1332.26 1616.95C1334.83 1617.57 1337.36 1617.89 1339.69 1617.71C1343.17 1617.45 1346.28 1616.22 1348.88 1614.31C1351.5 1612.39 1353.58 1609.75 1355.01 1606.67C1357.68 1601.01 1356.38 1594.52 1352.97 1588.73C1349.79 1583.32 1344.73 1578.47 1338.68 1575.5C1332.61 1572.46 1325.5 1571.61 1319.1 1572.72C1312.19 1573.93 1306.07 1577.38 1303.21 1583.05C1302.04 1585.34 1301.11 1587.96 1300.75 1590.59C1300.39 1593.16 1300.55 1595.73 1301.64 1597.95C1302.96 1600.63 1305.24 1602.99 1307.98 1605.11C1311.88 1608.14 1316.67 1610.7 1321.14 1612.98Z" fill="black"/>
<path d="M1335.2 1581.87C1326.73 1577.75 1317.15 1579.96 1313.81 1586.82C1310.47 1593.68 1314.63 1602.58 1323.11 1606.71C1331.58 1610.84 1341.16 1608.62 1344.5 1601.76C1347.84 1594.9 1343.68 1586 1335.2 1581.87Z" fill="#54C5ED"/>
<path fill-rule="evenodd" clip-rule="evenodd" d="M1322.77 1607.39C1318.6 1605.46 1315.41 1602.41 1313.52 1598.98C1311.26 1594.9 1310.86 1590.29 1312.73 1586.29C1314.63 1582.23 1318.5 1579.59 1323.13 1578.69C1327.09 1577.93 1331.61 1578.47 1335.88 1580.49C1340.15 1582.55 1343.44 1585.74 1345.32 1589.32C1347.55 1593.57 1347.84 1598.33 1345.8 1602.4C1343.74 1606.38 1339.81 1608.95 1335.14 1609.65C1331.24 1610.24 1326.85 1609.55 1322.77 1607.39ZM1323.44 1606.02C1327.25 1607.73 1331.24 1608.1 1334.73 1607.38C1338.5 1606.59 1341.67 1604.46 1343.2 1601.13C1344.73 1597.88 1344.29 1594.15 1342.51 1590.81C1340.89 1587.78 1338.15 1585.04 1334.53 1583.25C1330.9 1581.43 1327.04 1580.87 1323.63 1581.44C1319.82 1582.07 1316.55 1584.08 1314.9 1587.35C1313.21 1590.66 1313.5 1594.55 1315.27 1598.05C1316.89 1601.24 1319.71 1604.12 1323.44 1606.02Z" fill="black"/>
<path fill-rule="evenodd" clip-rule="evenodd" d="M1330.48 1596.45C1319.06 1595.41 1310.54 1586.2 1311.48 1575.91C1312.43 1565.63 1322.47 1558.12 1333.89 1559.16C1345.32 1560.21 1353.83 1569.41 1352.89 1579.7C1351.94 1589.99 1341.9 1597.5 1330.48 1596.45ZM1331.07 1590.96C1338.83 1591.67 1345.58 1587.33 1346.13 1581.29C1346.68 1575.24 1340.83 1569.75 1333.08 1569.04C1325.32 1568.33 1318.58 1572.67 1318.02 1578.72C1317.47 1584.76 1323.32 1590.25 1331.07 1590.96Z" fill="#54C5ED"/>
<path fill-rule="evenodd" clip-rule="evenodd" d="M1330.37 1597.68C1324.47 1597.28 1319.28 1594.8 1315.55 1591.14C1311.43 1587.1 1309.14 1581.6 1309.54 1575.74C1309.97 1569.78 1313.14 1564.61 1317.87 1561.14C1322.25 1557.92 1328 1556.22 1334.12 1556.69C1340.28 1557.21 1345.72 1559.86 1349.52 1563.79C1353.66 1568.09 1355.86 1573.88 1355.22 1579.92C1354.49 1585.84 1351.19 1590.94 1346.28 1594.16C1341.88 1597.04 1336.26 1598.46 1330.37 1597.68ZM1330.59 1595.22C1335.74 1595.48 1340.49 1593.87 1344.11 1591.1C1347.8 1588.29 1350.27 1584.2 1350.56 1579.49C1350.91 1574.89 1349 1570.62 1345.83 1567.39C1342.79 1564.29 1338.55 1562.11 1333.67 1561.64C1328.75 1561.11 1324.1 1562.36 1320.48 1564.82C1316.65 1567.44 1313.95 1571.4 1313.43 1576.09C1312.89 1580.87 1314.63 1585.44 1317.85 1588.9C1320.98 1592.26 1325.44 1594.62 1330.59 1595.22ZM1330.96 1592.19C1326.11 1592.05 1321.87 1590.1 1319.11 1587.28C1316.73 1584.86 1315.54 1581.75 1315.69 1578.5C1315.97 1574.45 1318.43 1570.89 1322.25 1568.7C1325.28 1566.96 1329.19 1566.15 1333.31 1566.57C1337.39 1567.03 1340.99 1568.62 1343.59 1570.92C1346.79 1573.74 1348.55 1577.54 1348.07 1581.47C1347.67 1584.6 1345.98 1587.34 1343.32 1589.28C1340.17 1591.58 1335.72 1592.81 1330.96 1592.19ZM1331.19 1589.73C1334.46 1589.91 1337.49 1589.1 1339.85 1587.65C1342.35 1586.12 1344.03 1583.81 1344.18 1581.11C1344.34 1578.5 1342.91 1576.13 1340.69 1574.38C1338.66 1572.78 1335.92 1571.73 1332.85 1571.52C1329.83 1571.27 1327.02 1571.95 1324.78 1573.19C1322.42 1574.5 1320.64 1576.45 1320.35 1578.93C1319.99 1581.51 1321.15 1583.99 1323.21 1585.92C1325.22 1587.79 1327.97 1589.23 1331.19 1589.73Z" fill="black"/>
<path fill-rule="evenodd" clip-rule="evenodd" d="M1338.53 1572.8L1337.48 1352.96L1326.77 1345.88L1338.53 1572.8Z" fill="#DED797" stroke="black" stroke-width="1.9" stroke-miterlimit="1.5" stroke-linecap="square" stroke-linejoin="round"/>
<path fill-rule="evenodd" clip-rule="evenodd" d="M1336.54 1384.88L1334.08 1365.9L1328.36 1359.64L1327.67 1355.64L1336.56 1359.65L1336.54 1384.88Z" fill="black" fill-opacity="0.3"/>
<path fill-rule="evenodd" clip-rule="evenodd" d="M1362.36 1352.07L1346.36 1348.74C1337.16 1362.08 1329.76 1338.22 1325.45 1337.76C1322.27 1337.42 1318.12 1343.84 1320.5 1345.97C1324.12 1349.22 1332.88 1369.57 1347.19 1357.24L1359.43 1361.39L1362.36 1352.07Z" fill="#777777" stroke="black" stroke-width="1.9" stroke-miterlimit="1.5" stroke-linecap="square" stroke-linejoin="round"/>
<path fill-rule="evenodd" clip-rule="evenodd" d="M1339.84 1573.15L1349.39 1353.51L1335.64 1347.59L1339.08 1356.68L1339.84 1573.15Z" fill="#DED797" stroke="black" stroke-width="1.9" stroke-miterlimit="1.5" stroke-linecap="square" stroke-linejoin="round"/>
<path fill-rule="evenodd" clip-rule="evenodd" d="M1083.97 1843.21C1200.38 1843.21 1309.67 1855.95 1375.91 1882.67C1420.17 1900.53 1443.39 1926.4 1443.39 1952.34C1443.39 2017.12 1282.69 2079.62 1088.5 2079.62C894.317 2079.62 735.235 2020.1 735.235 1955.32C735.235 1932.24 752.13 1908.38 786.191 1891.07C847.697 1859.84 958.99 1843.21 1083.97 1843.21Z" fill="#898D90" stroke="black" stroke-width="7.98439" stroke-miterlimit="1.5" stroke-linecap="round" stroke-linejoin="round"/>
<path fill-rule="evenodd" clip-rule="evenodd" d="M1381.92 1903.4C1287.55 1868.91 1190.83 1858.34 1073.04 1855.28C1073.04 1855.28 1195.12 1854.15 1248.74 1862.76C1294.83 1870.16 1381.92 1903.4 1381.92 1903.4Z" fill="white"/>
<path fill-rule="evenodd" clip-rule="evenodd" d="M1083.39 1884.81C1277.57 1884.81 1405.31 1919.86 1406.82 1969.4C1408.43 2022.38 1282.69 2079.62 1088.5 2079.62C894.317 2079.62 754.019 2032.67 760.735 1980.1C766.219 1937.16 889.2 1884.81 1083.39 1884.81Z" fill="#636769" stroke="black" stroke-width="7.22253" stroke-miterlimit="1.5" stroke-linecap="round" stroke-linejoin="round"/>
<path fill-rule="evenodd" clip-rule="evenodd" d="M1403.14 1927.82C1404.29 1906.54 1315.77 1857.93 1315.77 1857.93C1315.77 1857.93 1170.31 1837.04 1156.35 1838.55L1156.71 1820.55L1395.53 1811.6C1428.8 1832 1458.73 1853.81 1484.65 1877.3L1403.14 1927.82Z" fill="#898D90" stroke="black" stroke-width="4" stroke-miterlimit="1.5" stroke-linecap="round" stroke-linejoin="round"/>
<path fill-rule="evenodd" clip-rule="evenodd" d="M1343.03 1843.07L1409.88 1833.89C1436.82 1850.9 1457.35 1866.57 1471.12 1884.03L1429.62 1909.2C1412.76 1888.81 1391.71 1870.17 1343.03 1843.07Z" fill="#636769" stroke="black" stroke-width="1.6" stroke-miterlimit="1.5" stroke-linecap="round" stroke-linejoin="round"/>
<path fill-rule="evenodd" clip-rule="evenodd" d="M991.219 1213.62L1142.54 1214.56C1119.54 1236.58 1099.96 1265.22 1085.79 1292.66L1044.48 1291.62C1029.41 1263.82 1011.6 1236.7 991.219 1213.62Z" stroke="black" stroke-width="5" stroke-miterlimit="1.5" stroke-linecap="round" stroke-linejoin="round"/>
<path fill-rule="evenodd" clip-rule="evenodd" d="M1323.67 1772.05C1338.21 1772.05 1350.02 1785.36 1350.02 1801.75C1350.02 1810.51 1349.39 1822.25 1343.55 1827.07C1338.45 1831.27 1324.01 1830.71 1317.16 1829.24C1302.94 1826.18 1297.31 1818.15 1297.31 1801.75C1297.31 1785.36 1309.12 1772.05 1323.67 1772.05Z" fill="white" stroke="black" stroke-width="2.13675" stroke-miterlimit="1.5" stroke-linecap="round" stroke-linejoin="round"/>
<path fill-rule="evenodd" clip-rule="evenodd" d="M1344.91 1783.93C1340.87 1788.23 1341.3 1798.35 1342.1 1803.77C1342.89 1809.17 1341.78 1815.55 1343.99 1818.04C1346.37 1820.7 1357.59 1813.68 1357.13 1812.21C1356.49 1810.11 1357.03 1805.23 1355.17 1800.2C1351.84 1791.18 1344.91 1783.93 1344.91 1783.93Z" fill="black" stroke="black" stroke-width="2.13675" stroke-miterlimit="1.5" stroke-linecap="round" stroke-linejoin="round"/>
<path fill-rule="evenodd" clip-rule="evenodd" d="M1331.92 1818.71C1327.33 1821.66 1322.71 1824.58 1321.76 1833.7C1322.5 1837.43 1326.66 1838.46 1334.62 1836.46L1337 1829.31C1337.83 1824.99 1340.11 1820.83 1331.92 1818.71Z" fill="black" stroke="black" stroke-width="2.13675" stroke-miterlimit="1.5" stroke-linecap="round" stroke-linejoin="round"/>
<path fill-rule="evenodd" clip-rule="evenodd" d="M1298.06 1809.73C1293.46 1812.68 1288.76 1816.03 1287.82 1825.14C1288.55 1828.88 1292.71 1829.9 1300.67 1827.91L1304.66 1821.32C1305.48 1817.01 1306.25 1811.85 1298.06 1809.73Z" fill="black" stroke="black" stroke-width="2.13675" stroke-miterlimit="1.5" stroke-linecap="round" stroke-linejoin="round"/>
<path fill-rule="evenodd" clip-rule="evenodd" d="M1309.12 1777C1309.12 1777 1306.06 1777.5 1301.39 1780.1C1295.95 1783.13 1287.88 1791.11 1286.51 1794.11C1283.95 1799.68 1293.25 1803.71 1296.1 1803.83C1298.84 1803.93 1299.42 1791.69 1299.42 1791.69L1309.12 1777Z" fill="black" stroke="black" stroke-width="2.13675" stroke-miterlimit="1.5" stroke-linecap="round" stroke-linejoin="round"/>
<path fill-rule="evenodd" clip-rule="evenodd" d="M1292.3 1734.77C1292.3 1734.77 1286.19 1722.37 1292.51 1717.47C1298.83 1712.57 1308.76 1717.99 1308.98 1720.17C1309.18 1722.35 1292.3 1734.77 1292.3 1734.77Z" fill="black" stroke="black" stroke-width="2.25392" stroke-miterlimit="1.5" stroke-linecap="round" stroke-linejoin="round"/>
<path fill-rule="evenodd" clip-rule="evenodd" d="M1325.98 1712.57C1346.23 1709.89 1369.23 1734.09 1372.25 1756.91C1375.27 1779.72 1351.48 1790.46 1331.23 1793.14C1310.99 1795.82 1284.83 1781.46 1281.81 1758.64C1278.79 1735.83 1305.74 1715.25 1325.98 1712.57Z" fill="white" stroke="black" stroke-width="3" stroke-miterlimit="1.5" stroke-linecap="round" stroke-linejoin="round"/>
<path fill-rule="evenodd" clip-rule="evenodd" d="M1306.51 1766.31C1306.51 1766.31 1303.14 1767.27 1303.95 1768.72C1304.76 1770.18 1309.23 1773.42 1309.23 1773.42L1319.79 1771.23C1319.79 1771.23 1320.53 1769.35 1318.3 1767.9C1316.07 1766.45 1306.51 1766.31 1306.51 1766.31Z" fill="black" stroke="black" stroke-width="3" stroke-miterlimit="1.5" stroke-linecap="round" stroke-linejoin="round"/>
<path d="M1311.53 1781.41L1317.13 1780.71" stroke="black" stroke-width="3" stroke-miterlimit="1.5" stroke-linecap="round" stroke-linejoin="round"/>
<path fill-rule="evenodd" clip-rule="evenodd" d="M1320.96 1763.02C1320.96 1763.02 1325.32 1743.69 1335.09 1744.38C1344.86 1745.06 1349.65 1760.42 1348.09 1763C1346.52 1765.58 1320.96 1763.02 1320.96 1763.02Z" fill="black" stroke="black" stroke-width="3" stroke-miterlimit="1.5" stroke-linecap="round" stroke-linejoin="round"/>
<path fill-rule="evenodd" clip-rule="evenodd" d="M1349.21 1726.35C1349.21 1726.35 1363.05 1719.71 1367.74 1726.29C1372.43 1732.88 1365.75 1743.44 1363.4 1743.7C1361.03 1743.95 1349.21 1726.35 1349.21 1726.35Z" fill="black" stroke="black" stroke-width="2.3953" stroke-miterlimit="1.5" stroke-linecap="round" stroke-linejoin="round"/>
<path fill-rule="evenodd" clip-rule="evenodd" d="M1311.03 1762.16C1311.03 1762.16 1313.9 1742.74 1306.41 1740.97C1298.93 1739.19 1290.51 1752.58 1290.85 1755.41C1291.21 1758.25 1311.03 1762.16 1311.03 1762.16Z" fill="black" stroke="black" stroke-width="2.65673" stroke-miterlimit="1.5" stroke-linecap="round" stroke-linejoin="round"/>
<path d="M1326.76 1758.86C1329.59 1759.98 1332.93 1760.34 1337 1759.6" stroke="#BABABA" stroke-width="1.6" stroke-miterlimit="1.5" stroke-linecap="round" stroke-linejoin="round"/>
<path d="M1297.62 1754.68C1300.75 1756.33 1304.13 1756.91 1307.73 1756.48" stroke="#BABABA" stroke-width="1.6" stroke-miterlimit="1.5" stroke-linecap="round" stroke-linejoin="round"/>
<path fill-rule="evenodd" clip-rule="evenodd" d="M1156.87 1823.54L1318.63 1851.37C1357.4 1875.37 1395.39 1896.21 1414.18 1916.45L1408.46 1930.12C1383.81 1905.57 1351.8 1883.8 1315.41 1863.69L1156.89 1837.74L1156.87 1823.54Z" fill="#A4A4A4" stroke="black" stroke-width="5" stroke-miterlimit="1.5" stroke-linecap="round" stroke-linejoin="round"/>
<path fill-rule="evenodd" clip-rule="evenodd" d="M914.546 1557.85L864.907 1565.87L790.731 1556.34L751.641 1567.28L721.235 1565.64L731.33 1627.85L740.417 1757.11L748.34 1801.62L789.679 1791.97L838.85 1782.29L931.077 1777.25L913.405 1616.02L914.546 1557.85Z" fill="#EBE7C0" stroke="black" stroke-width="4.57046" stroke-miterlimit="1.5" stroke-linecap="round" stroke-linejoin="round"/>
<path d="M799.483 1739.52L773.873 1674.15L861.319 1639.58L888.693 1736.55" stroke="#FF2E33" stroke-width="7.31274" stroke-miterlimit="1.5" stroke-linecap="round" stroke-linejoin="round"/>
<path d="M768.061 1744.45L765.078 1729.77L779.688 1749.65L781.154 1723.71L793.622 1747.99" stroke="#FF2E33" stroke-width="7.31274" stroke-miterlimit="1.5" stroke-linecap="round" stroke-linejoin="round"/>
<path d="M805.073 1735.18L825.438 1739.54L845.849 1736.14C845.849 1736.14 863.53 1740.52 883.283 1741.02C903.036 1741.53 897.028 1735.68 897.028 1735.68L895.936 1712.5L908.307 1735.98L919.069 1732.44" stroke="#FF2E33" stroke-width="7.31274" stroke-miterlimit="1.5" stroke-linecap="round" stroke-linejoin="round"/>
<path d="M823.571 1684.61L839.113 1746.99" stroke="#FF2E33" stroke-width="7.31274" stroke-miterlimit="1.5" stroke-linecap="round" stroke-linejoin="round"/>
<path d="M819.724 1690.91L850.587 1682.44" stroke="#FF2E33" stroke-width="7.31274" stroke-miterlimit="1.5" stroke-linecap="round" stroke-linejoin="round"/>
<path d="M846.185 1668.2L859.739 1737.81" stroke="#FF2E33" stroke-width="7.31274" stroke-miterlimit="1.5" stroke-linecap="round" stroke-linejoin="round"/>
<path d="M762.365 1679.35L804.754 1573.54L878.654 1642.57L755.781 1662.9" stroke="#FF2E33" stroke-width="7.31274" stroke-miterlimit="1.5" stroke-linecap="round" stroke-linejoin="round"/>
<path d="M897.64 1546.45L885.207 1556.38L915.342 1603.37L927.775 1593.44L897.64 1546.45Z" fill="#EBE7C0" fill-opacity="0.2" stroke="black" stroke-width="4.58277" stroke-miterlimit="1.5" stroke-linecap="round" stroke-linejoin="round"/>
<path d="M750.4 1557.1L737.323 1547.96L710.42 1596.7L723.497 1605.85L750.4 1557.1Z" fill="#EBE7C0" fill-opacity="0.2" stroke="black" stroke-width="4.58332" stroke-miterlimit="1.5" stroke-linecap="round" stroke-linejoin="round"/>
<path d="M761.629 1768.35L746.301 1767.34L743.802 1824.81L759.13 1825.82L761.629 1768.35Z" fill="#EBE7C0" fill-opacity="0.2" stroke="black" stroke-width="4.57104" stroke-miterlimit="1.5" stroke-linecap="round" stroke-linejoin="round"/>
<path fill-rule="evenodd" clip-rule="evenodd" d="M798.285 1269.43L746.235 1275.38L688.72 1269.65L653.805 1257.53L628.269 1271.52L591.79 1280.08L604.228 1343.82L613.535 1432.48L607.598 1466.99L613.738 1513.32L657.224 1505.3L708.866 1497.61L805.104 1496.74L790.773 1387.46L794.342 1329.44L798.285 1269.43Z" fill="#EBE7C0" stroke="black" stroke-width="4.74305" stroke-miterlimit="1.5" stroke-linecap="round" stroke-linejoin="round"/>
<path d="M689.991 1409.95L698.011 1453.83" stroke="#005573" stroke-width="4.76888" stroke-miterlimit="1.5" stroke-linecap="round" stroke-linejoin="round"/>
<path d="M708.63 1460.22C708.63 1460.22 693.789 1436.95 683.435 1447.93C673.082 1458.89 686.375 1482.12 697.055 1477.05C707.737 1471.97 707.88 1465.7 707.88 1465.7" stroke="#005573" stroke-width="4.76888" stroke-miterlimit="1.5" stroke-linecap="round" stroke-linejoin="round"/>
<path d="M676.081 1354.54C676.081 1354.54 650.308 1372.68 669.123 1396.2C687.937 1419.71 694.075 1429.06 700.423 1426.64C706.77 1424.22 724.216 1408.63 722.101 1400.94C719.987 1393.25 687.836 1356.37 681.161 1360.36C674.486 1364.34 656.215 1368.78 656.215 1368.78" stroke="#005573" stroke-width="4.76888" stroke-miterlimit="1.5" stroke-linecap="round" stroke-linejoin="round"/>
<path d="M713.644 1393.07L742.196 1422.61" stroke="#005573" stroke-width="4.76888" stroke-miterlimit="1.5" stroke-linecap="round" stroke-linejoin="round"/>
<path d="M741.723 1409.48C741.723 1409.48 744.31 1400.53 753.127 1411.99C761.945 1423.46 756.809 1449.79 748.007 1445.9C739.203 1442 733.197 1418.18 733.197 1418.18L751.574 1401.46" stroke="#005573" stroke-width="4.76888" stroke-miterlimit="1.5" stroke-linecap="round" stroke-linejoin="round"/>
<path d="M685.55 1305.49C685.55 1305.49 632.88 1315.89 627.208 1340.09C621.534 1364.29 611.788 1377.69 626.939 1384.99C642.089 1392.3 699.258 1364.3 703.857 1350.3C708.455 1336.3 680.811 1299.37 680.811 1299.37" stroke="#005573" stroke-width="4.76888" stroke-miterlimit="1.5" stroke-linecap="round" stroke-linejoin="round"/>
<path d="M669.45 1315.94C669.45 1315.94 660.992 1290.97 674.102 1288.45C687.212 1285.93 712.797 1292.37 707.375 1299.61C701.953 1306.84 696.417 1313.02 696.417 1313.02" stroke="#005573" stroke-width="4.76888" stroke-miterlimit="1.5" stroke-linecap="round" stroke-linejoin="round"/>
<path d="M634.582 1338.97C634.582 1338.97 628.673 1327.21 621.569 1329.87C614.466 1332.53 623.251 1364.33 623.251 1364.33" stroke="#005573" stroke-width="4.76888" stroke-miterlimit="1.5" stroke-linecap="round" stroke-linejoin="round"/>
<path fill-rule="evenodd" clip-rule="evenodd" d="M666.443 1342.32L657.252 1347.56C657.252 1347.56 663.52 1361.28 667.599 1354.66C671.678 1348.05 666.443 1342.32 666.443 1342.32Z" stroke="#005573" stroke-width="4.76888" stroke-miterlimit="1.5" stroke-linecap="round" stroke-linejoin="round"/>
<path fill-rule="evenodd" clip-rule="evenodd" d="M679.673 1316.59C670.332 1322.42 659.705 1319.34 664.828 1330.31C669.953 1341.28 678.855 1349.3 678.855 1349.3C678.855 1349.3 697.284 1347.41 692.429 1337.17C687.573 1326.93 689.013 1310.76 679.673 1316.59Z" stroke="#005573" stroke-width="4.76888" stroke-miterlimit="1.5" stroke-linecap="round" stroke-linejoin="round"/>
<path d="M640.516 1338.31L630.852 1354.48C630.852 1354.48 634.171 1374.36 641.436 1371.62C648.7 1368.89 645.955 1341.62 645.955 1341.62L649.763 1339.71" stroke="#005573" stroke-width="4.76888" stroke-miterlimit="1.5" stroke-linecap="round" stroke-linejoin="round"/>
<path d="M668.539 1385.72C668.539 1385.72 649.117 1407.68 649.908 1415.41C650.699 1423.14 651.634 1422.28 651.634 1422.28" stroke="#005573" stroke-width="4.76888" stroke-miterlimit="1.5" stroke-linecap="round" stroke-linejoin="round"/>
<path fill-rule="evenodd" clip-rule="evenodd" d="M658.467 1411.55C647.803 1413.07 639.695 1399.78 641.576 1414.61C643.32 1428.37 639.795 1427.99 647.47 1433.63C658.307 1441.61 658.753 1426.75 658.753 1426.75L665.55 1428.06L671.804 1415.71C671.804 1415.71 669.129 1410.03 658.467 1411.55Z" stroke="#005573" stroke-width="4.76888" stroke-miterlimit="1.5" stroke-linecap="round" stroke-linejoin="round"/>
<path d="M707.302 1361.31C707.302 1361.31 725.845 1343.52 732.408 1348.82C738.972 1354.12 734.794 1344.72 734.794 1344.72" stroke="#005573" stroke-width="4.76888" stroke-miterlimit="1.5" stroke-linecap="round" stroke-linejoin="round"/>
<path d="M733.237 1334.99C727.93 1343.38 721.833 1348.13 725.121 1355.41C728.408 1362.67 734.709 1376.07 740.21 1372.1C745.711 1368.12 746.283 1358.5 746.283 1358.5C746.283 1358.5 735.643 1349.57 739.042 1356.34C742.441 1363.11 747.813 1369.69 747.813 1369.69C747.813 1369.69 761.77 1355.25 758.894 1348.04C756.018 1340.83 744.771 1330.51 744.771 1330.51L737.883 1338.7" stroke="#005573" stroke-width="4.76888" stroke-miterlimit="1.5" stroke-linecap="round" stroke-linejoin="round"/>
<path d="M799.485 1255.05L783.578 1253.28L778.256 1312.5L794.163 1314.27L799.485 1255.05Z" fill="#EBE7C0" fill-opacity="0.2" stroke="black" stroke-width="4.74357" stroke-miterlimit="1.5" stroke-linecap="round" stroke-linejoin="round"/>
<path d="M611.416 1244.24L596.231 1249.8L612.971 1306.33L628.156 1300.78L611.416 1244.24Z" fill="#EBE7C0" fill-opacity="0.2" stroke="black" stroke-width="4.74772" stroke-miterlimit="1.5" stroke-linecap="round" stroke-linejoin="round"/>
<path d="M613.846 1470.53L598.661 1476.08L615.401 1532.61L630.586 1527.06L613.846 1470.53Z" fill="#EBE7C0" fill-opacity="0.2" stroke="black" stroke-width="4.74772" stroke-miterlimit="1.5" stroke-linecap="round" stroke-linejoin="round"/>
<path d="M819.931 1455.4L804.723 1449.93L788.226 1506.55L803.435 1512.02L819.931 1455.4Z" fill="#EBE7C0" fill-opacity="0.2" stroke="black" stroke-width="4.7476" stroke-miterlimit="1.5" stroke-linecap="round" stroke-linejoin="round"/>
<path fill-rule="evenodd" clip-rule="evenodd" d="M1501.93 1151.91L1398.44 1263.95C1430.08 1356.04 1447.42 1393.91 1464.89 1495.44L1610.48 1474.44C1596.38 1366.07 1558.78 1258.4 1501.93 1151.91Z" fill="black" stroke="#808080" stroke-width="10.9114" stroke-miterlimit="1.5" stroke-linecap="round" stroke-linejoin="round"/>
<path fill-rule="evenodd" clip-rule="evenodd" d="M1597.89 1516.58L1505.13 1540.8C1478.25 1633.83 1476.33 1693.64 1428.24 1785.31L1481.23 1842.87C1530.36 1747.01 1565.8 1632.48 1597.89 1516.58Z" fill="black" stroke="#808080" stroke-width="10.556" stroke-miterlimit="1.5" stroke-linecap="round" stroke-linejoin="round"/>
<path d="M1458.6 1744.26L1465.09 1750.63" stroke="#7EED56" stroke-width="1.3" stroke-miterlimit="1.5" stroke-linecap="round" stroke-linejoin="round"/>
<path d="M1457.03 1747.28L1469.78 1758.92" stroke="#7EED56" stroke-width="1.3" stroke-miterlimit="1.5" stroke-linecap="round" stroke-linejoin="round"/>
<path d="M1455.95 1750.03L1459.24 1752.87" stroke="#7EED56" stroke-width="1.3" stroke-miterlimit="1.5" stroke-linecap="round" stroke-linejoin="round"/>
<path d="M1461.54 1754.32L1465.84 1758.58" stroke="#7EED56" stroke-width="1.3" stroke-miterlimit="1.5" stroke-linecap="round" stroke-linejoin="round"/>
<path d="M1454.89 1752.28L1466.73 1763.39" stroke="#7EED56" stroke-width="1.3" stroke-miterlimit="1.5" stroke-linecap="round" stroke-linejoin="round"/>
<path d="M1453.02 1755.77L1459.51 1762.14" stroke="#7EED56" stroke-width="1.3" stroke-miterlimit="1.5" stroke-linecap="round" stroke-linejoin="round"/>
<path d="M1451.45 1758.79L1464.2 1770.43" stroke="#7EED56" stroke-width="1.3" stroke-miterlimit="1.5" stroke-linecap="round" stroke-linejoin="round"/>
<path d="M1450.37 1761.54L1453.66 1764.38" stroke="#7EED56" stroke-width="1.3" stroke-miterlimit="1.5" stroke-linecap="round" stroke-linejoin="round"/>
<path d="M1455.96 1765.83L1460.26 1770.09" stroke="#7EED56" stroke-width="1.3" stroke-miterlimit="1.5" stroke-linecap="round" stroke-linejoin="round"/>
<path d="M1449.31 1763.79L1461.15 1774.9" stroke="#7EED56" stroke-width="1.3" stroke-miterlimit="1.5" stroke-linecap="round" stroke-linejoin="round"/>
<path d="M1483.08 1764.49L1489.57 1770.86" stroke="#7EED56" stroke-width="1.3" stroke-miterlimit="1.5" stroke-linecap="round" stroke-linejoin="round"/>
<path d="M1481.51 1767.51L1494.26 1779.15" stroke="#7EED56" stroke-width="1.3" stroke-miterlimit="1.5" stroke-linecap="round" stroke-linejoin="round"/>
<path d="M1480.43 1770.26L1483.72 1773.1" stroke="#7EED56" stroke-width="1.3" stroke-miterlimit="1.5" stroke-linecap="round" stroke-linejoin="round"/>
<path d="M1486.02 1774.55L1490.32 1778.81" stroke="#7EED56" stroke-width="1.3" stroke-miterlimit="1.5" stroke-linecap="round" stroke-linejoin="round"/>
<path d="M1479.37 1772.51L1491.21 1783.62" stroke="#7EED56" stroke-width="1.3" stroke-miterlimit="1.5" stroke-linecap="round" stroke-linejoin="round"/>
<path d="M1475.33 1777.73L1481.82 1784.1" stroke="#7EED56" stroke-width="1.3" stroke-miterlimit="1.5" stroke-linecap="round" stroke-linejoin="round"/>
<path d="M1473.76 1780.75L1486.51 1792.39" stroke="#7EED56" stroke-width="1.3" stroke-miterlimit="1.5" stroke-linecap="round" stroke-linejoin="round"/>
<path d="M1472.68 1783.5L1475.97 1786.34" stroke="#7EED56" stroke-width="1.3" stroke-miterlimit="1.5" stroke-linecap="round" stroke-linejoin="round"/>
<path d="M1478.27 1787.79L1482.57 1792.05" stroke="#7EED56" stroke-width="1.3" stroke-miterlimit="1.5" stroke-linecap="round" stroke-linejoin="round"/>
<path d="M1471.62 1785.75L1483.46 1796.86" stroke="#7EED56" stroke-width="1.3" stroke-miterlimit="1.5" stroke-linecap="round" stroke-linejoin="round"/>
<path d="M1509.39 1570.89L1518.47 1570.53" stroke="#7EED56" stroke-width="1.3" stroke-miterlimit="1.5" stroke-linecap="round" stroke-linejoin="round"/>
<path d="M1510.25 1567.6L1527.52 1567.54" stroke="#7EED56" stroke-width="1.3" stroke-miterlimit="1.5" stroke-linecap="round" stroke-linejoin="round"/>
<path d="M1511.3 1564.83L1515.64 1564.94" stroke="#7EED56" stroke-width="1.3" stroke-miterlimit="1.5" stroke-linecap="round" stroke-linejoin="round"/>
<path d="M1518.32 1565.41L1524.37 1565.14" stroke="#7EED56" stroke-width="1.3" stroke-miterlimit="1.5" stroke-linecap="round" stroke-linejoin="round"/>
<path d="M1512.02 1562.46L1528.26 1562.17" stroke="#7EED56" stroke-width="1.3" stroke-miterlimit="1.5" stroke-linecap="round" stroke-linejoin="round"/>
<path d="M1547.85 1570.79L1556.94 1570.43" stroke="#7EED56" stroke-width="1.3" stroke-miterlimit="1.5" stroke-linecap="round" stroke-linejoin="round"/>
<path d="M1548.71 1567.5L1565.98 1567.43" stroke="#7EED56" stroke-width="1.3" stroke-miterlimit="1.5" stroke-linecap="round" stroke-linejoin="round"/>
<path d="M1549.76 1564.73L1554.1 1564.84" stroke="#7EED56" stroke-width="1.3" stroke-miterlimit="1.5" stroke-linecap="round" stroke-linejoin="round"/>
<path d="M1556.78 1565.31L1562.83 1565.04" stroke="#7EED56" stroke-width="1.3" stroke-miterlimit="1.5" stroke-linecap="round" stroke-linejoin="round"/>
<path d="M1550.49 1562.35L1566.72 1562.07" stroke="#7EED56" stroke-width="1.3" stroke-miterlimit="1.5" stroke-linecap="round" stroke-linejoin="round"/>
<path d="M1475.66 1706.68L1463.74 1739.83" stroke="#7EED56" stroke-width="1.3" stroke-miterlimit="1.5" stroke-linecap="round" stroke-linejoin="round"/>
<path d="M1490.86 1732.75L1472.63 1762.99L1477.45 1766.87" stroke="#7EED56" stroke-width="1.3" stroke-miterlimit="1.5" stroke-linecap="round" stroke-linejoin="round"/>
<path d="M1537.67 1678.14L1490.06 1798.8" stroke="#7EED56" stroke-width="1.3" stroke-miterlimit="1.5" stroke-linecap="round" stroke-linejoin="round"/>
<path d="M1505.72 1583.41L1507.23 1572.95" stroke="#7EED56" stroke-width="1.3" stroke-miterlimit="1.5" stroke-linecap="round" stroke-linejoin="round"/>
<path d="M1520.27 1620.88L1530.99 1624.55" stroke="#7EED56" stroke-width="1.3" stroke-miterlimit="1.5" stroke-linecap="round" stroke-linejoin="round"/>
<path d="M1527.01 1619.35L1538.99 1566.17L1543.88 1565.04" stroke="#7EED56" stroke-width="1.3" stroke-miterlimit="1.5" stroke-linecap="round" stroke-linejoin="round"/>
<path fill-rule="evenodd" clip-rule="evenodd" d="M1510.56 1624.48C1509.77 1622.81 1508.97 1621.15 1508.17 1619.48C1512.51 1611.45 1516.82 1603.33 1521.1 1595.1C1521.97 1593.6 1522.84 1592.09 1523.71 1590.58C1524.18 1590.95 1524.64 1591.32 1525.1 1591.69C1521.96 1600.6 1518.8 1609.45 1515.59 1618.24C1513.92 1620.33 1512.24 1622.41 1510.56 1624.48Z" stroke="#7EED56" stroke-width="1.39115" stroke-miterlimit="1.5" stroke-linecap="round" stroke-linejoin="round"/>
<path fill-rule="evenodd" clip-rule="evenodd" d="M1518.83 1614.11C1517.22 1615.18 1515.61 1616.24 1514 1617.29C1517.29 1611.46 1520.56 1605.57 1523.81 1599.63C1524.69 1598.13 1525.56 1596.63 1526.43 1595.12C1526.89 1595.49 1527.36 1595.86 1527.82 1596.23C1526.14 1601.13 1524.45 1606.01 1522.75 1610.87C1521.45 1611.95 1520.14 1613.04 1518.83 1614.11Z" stroke="#7EED56" stroke-width="1.39115" stroke-miterlimit="1.5" stroke-linecap="round" stroke-linejoin="round"/>
<path fill-rule="evenodd" clip-rule="evenodd" d="M1508.33 1621.15C1507.22 1620.22 1506.1 1619.29 1504.99 1618.36C1508.8 1609.32 1512.57 1600.2 1516.3 1591C1517.08 1589.27 1517.87 1587.53 1518.65 1585.79C1519.21 1585.83 1519.77 1585.87 1520.34 1585.91C1517.71 1596.06 1515.04 1606.19 1512.34 1616.29C1511 1617.92 1509.67 1619.54 1508.33 1621.15Z" stroke="#7EED56" stroke-width="1.37596" stroke-miterlimit="1.5" stroke-linecap="round" stroke-linejoin="round"/>
<path fill-rule="evenodd" clip-rule="evenodd" d="M1537.66 1628.95C1539.3 1627.59 1540.95 1626.23 1542.59 1624.85C1542.85 1616.13 1543.11 1607.4 1543.37 1598.67C1543.33 1597.05 1543.3 1595.42 1543.26 1593.8C1542.63 1594.04 1542 1594.28 1541.38 1594.53C1539.77 1603.71 1538.15 1612.9 1536.5 1622.1C1536.88 1624.39 1537.27 1626.67 1537.66 1628.95Z" stroke="#7EED56" stroke-width="1.3834" stroke-miterlimit="1.5" stroke-linecap="round" stroke-linejoin="round"/>
<path fill-rule="evenodd" clip-rule="evenodd" d="M1535.47 1617.15C1536.41 1618.54 1537.36 1619.94 1538.3 1621.33C1538.34 1615 1538.39 1608.66 1538.44 1602.32C1538.4 1600.7 1538.37 1599.08 1538.34 1597.46C1537.71 1597.7 1537.08 1597.95 1536.45 1598.19C1535.48 1603.17 1534.5 1608.16 1533.52 1613.14C1534.17 1614.48 1534.82 1615.82 1535.47 1617.15Z" stroke="#7EED56" stroke-width="1.3834" stroke-miterlimit="1.5" stroke-linecap="round" stroke-linejoin="round"/>
<path fill-rule="evenodd" clip-rule="evenodd" d="M1541.54 1626.39C1543.09 1625.79 1544.64 1625.2 1546.19 1624.6C1547.5 1615.02 1548.79 1605.45 1550.06 1595.89C1550.22 1594.06 1550.38 1592.22 1550.54 1590.38C1549.99 1590.3 1549.44 1590.21 1548.89 1590.12C1546.11 1600.36 1543.28 1610.59 1540.4 1620.8C1540.78 1622.67 1541.16 1624.53 1541.54 1626.39Z" stroke="#7EED56" stroke-width="1.36048" stroke-miterlimit="1.5" stroke-linecap="round" stroke-linejoin="round"/>
<path fill-rule="evenodd" clip-rule="evenodd" d="M1530.43 1604.11C1532.56 1604.47 1534.46 1605.96 1536.21 1607.76C1538.72 1610.34 1540.95 1613.79 1542.86 1617.97C1544.49 1621.53 1545.89 1625.68 1546.83 1630.61C1547.88 1636.07 1548.38 1642.84 1547.3 1650.51C1546.94 1653.03 1545.82 1655.25 1544.85 1656.91C1544.64 1657.26 1544.44 1657.59 1544.23 1657.92C1543.96 1658.34 1543.69 1658.75 1543.41 1659.15C1543.07 1659.65 1542.72 1660.13 1542.37 1660.6C1539.34 1664.7 1536.23 1667.98 1533.22 1672.41C1531.85 1674.44 1530.27 1676.96 1529.34 1680.21C1526.23 1690.95 1522.69 1701.45 1518.67 1711.02C1517.4 1714.01 1515.85 1716.29 1514.37 1718.25C1512.6 1720.59 1510.8 1722.57 1509.01 1724.66C1507.79 1726.09 1506.55 1727.55 1505.37 1729.37C1504.47 1730.75 1503.65 1732.44 1502.9 1734.31C1502.12 1736.3 1501.41 1738.48 1500.49 1740.19C1499.85 1741.39 1499.14 1742.25 1498.45 1742.83C1494.52 1746.14 1490.55 1747.97 1487.12 1747.21C1484.13 1746.54 1481.7 1743.49 1480.44 1738.01C1480.37 1737.67 1480.31 1737.3 1480.29 1736.89C1480.18 1734.89 1480.88 1732.49 1481.39 1730.33C1481.84 1728.46 1482.18 1726.57 1482.23 1724.8C1482.28 1722.81 1482.11 1721.01 1481.94 1719.28C1481.7 1716.72 1481.39 1714.24 1481.29 1711.49C1481.21 1709.23 1481.27 1706.73 1481.75 1704.1C1483.69 1693.33 1486.53 1682.59 1489.77 1672.39C1490.05 1671.48 1490.21 1670.5 1490.29 1669.58C1490.43 1668.04 1490.41 1666.6 1490.35 1665.24C1490.12 1660.16 1489.37 1655.77 1489.05 1650.8C1488.95 1649.1 1488.87 1647.27 1489.06 1645.29C1489.16 1644.24 1489.36 1643.08 1489.75 1642.11C1493.08 1633.87 1497.09 1627.32 1501.12 1622.19C1504.27 1618.18 1507.47 1614.97 1510.63 1612.36C1514.31 1609.33 1517.97 1607.09 1521.53 1605.65C1524.59 1604.4 1527.64 1603.63 1530.43 1604.11ZM1528.94 1609.84C1523.11 1608.83 1515.87 1616.91 1509.82 1627.64C1508.75 1629.53 1507.71 1631.52 1506.7 1633.6C1505.42 1636.24 1504.19 1639.02 1503.02 1641.92C1501.5 1645.67 1500.1 1649.62 1498.84 1653.7C1495.55 1664.39 1493.21 1676.49 1493.51 1686.51C1493.56 1688.14 1493.68 1689.7 1493.88 1691.15C1494.12 1692.98 1494.48 1694.64 1494.94 1696.09C1495.53 1697.95 1496.29 1699.47 1497.18 1700.62C1498.37 1702.15 1499.77 1703.02 1501.29 1703.34C1504.65 1704.03 1508.55 1702.04 1512.4 1698.25C1519.87 1690.9 1527.33 1676.74 1532.07 1660.04C1535.36 1648.45 1537.27 1635.68 1536.57 1625.52C1536.45 1623.84 1536.26 1622.25 1536 1620.77C1535.7 1619.04 1535.3 1617.46 1534.8 1616.09C1534.2 1614.47 1533.48 1613.13 1532.64 1612.13C1531.56 1610.83 1530.3 1610.08 1528.94 1609.84Z" stroke="#7EED56" stroke-width="1.41279" stroke-miterlimit="1.5" stroke-linecap="round" stroke-linejoin="round"/>
<path fill-rule="evenodd" clip-rule="evenodd" d="M1529.81 1606.59C1531.23 1606.83 1532.55 1607.59 1533.69 1608.9C1534.57 1609.93 1535.34 1611.29 1535.96 1612.95C1536.47 1614.3 1536.89 1615.84 1537.2 1617.54C1539.32 1628.82 1537.05 1645.41 1532.96 1659.88C1527.92 1677.65 1520.07 1693.66 1512 1702.87C1507.62 1707.87 1503.04 1710.91 1499.16 1710.1C1497.74 1709.8 1496.43 1708.99 1495.32 1707.59C1494.48 1706.53 1493.75 1705.13 1493.17 1703.44C1492.72 1702.1 1492.36 1700.58 1492.09 1698.92C1490.1 1686.6 1493.3 1668.53 1497.87 1653.69C1499.15 1649.54 1500.57 1645.5 1502.09 1641.65C1503.29 1638.63 1504.55 1635.71 1505.86 1632.93C1512.93 1617.94 1522.31 1605.3 1529.81 1606.59ZM1529.09 1609.16C1523.11 1608.12 1515.72 1616.5 1509.61 1627.37C1508.51 1629.33 1507.43 1631.4 1506.39 1633.56C1505.09 1636.25 1503.84 1639.08 1502.66 1642.03C1501.17 1645.75 1499.78 1649.66 1498.54 1653.7C1494.59 1666.52 1491.98 1681.52 1493.56 1692.27C1493.82 1694.03 1494.19 1695.63 1494.66 1697.04C1495.26 1698.84 1496.02 1700.31 1496.91 1701.43C1498.1 1702.93 1499.5 1703.78 1501.02 1704.1C1504.54 1704.83 1508.63 1702.65 1512.64 1698.6C1520.19 1690.98 1527.58 1676.7 1532.28 1660.14C1536.2 1646.33 1538.2 1630.64 1536.21 1619.9C1535.89 1618.19 1535.48 1616.64 1534.97 1615.29C1534.36 1613.69 1533.63 1612.38 1532.78 1611.38C1531.7 1610.12 1530.45 1609.39 1529.09 1609.16Z" stroke="#7EED56" stroke-width="1.06778" stroke-miterlimit="2" stroke-linejoin="round"/>
<path d="M1481.96 1702.95C1482.79 1709.9 1483.63 1716.83 1484.49 1723.74C1487.86 1720.52 1491.22 1717.26 1494.59 1713.98C1492.4 1709.02 1491.75 1701.49 1491.66 1693.31C1492.3 1691.71 1492.94 1690.1 1493.58 1688.5" stroke="#7EED56" stroke-width="1.41267" stroke-miterlimit="1.5" stroke-linecap="round" stroke-linejoin="round"/>
<path d="M1518.97 1710.67C1514.15 1716.49 1509.32 1722.22 1504.49 1727.87C1503.4 1723.94 1502.32 1720 1501.24 1716.05C1506.22 1711.24 1511.2 1705.34 1516.06 1698.31C1516.43 1696.64 1516.8 1694.96 1517.17 1693.29" stroke="#7EED56" stroke-width="1.41267" stroke-miterlimit="1.5" stroke-linecap="round" stroke-linejoin="round"/>
<path fill-rule="evenodd" clip-rule="evenodd" d="M1488.58 1712.61C1488.84 1710.5 1489.11 1708.4 1489.37 1706.3C1489.06 1703.13 1488.74 1699.96 1488.43 1696.79C1488.27 1696.97 1488.12 1697.17 1487.96 1697.38C1487.84 1697.54 1487.72 1697.7 1487.61 1697.87C1487.28 1698.34 1486.92 1698.86 1486.63 1699.52C1486.51 1699.8 1486.37 1700.17 1486.35 1700.51C1486.24 1702.37 1486.46 1704.11 1486.6 1705.7C1486.84 1708.57 1487.14 1711.37 1487.48 1714.12C1487.85 1713.61 1488.21 1713.11 1488.58 1712.61Z" stroke="#7EED56" stroke-width="1.39223" stroke-miterlimit="1.5" stroke-linecap="round" stroke-linejoin="round"/>
<path fill-rule="evenodd" clip-rule="evenodd" d="M1506.76 1716.44C1507.78 1714.49 1508.8 1712.53 1509.81 1710.57C1511.97 1707.9 1514.12 1705.22 1516.28 1702.52C1516.3 1702.75 1516.32 1702.99 1516.34 1703.23C1516.39 1704.07 1516.46 1705.74 1515.92 1706.64C1514.87 1708.39 1513.71 1709.76 1512.62 1711.14C1510.69 1713.58 1508.76 1715.93 1506.83 1718.21C1506.8 1717.62 1506.78 1717.03 1506.76 1716.44Z" stroke="#7EED56" stroke-width="1.39223" stroke-miterlimit="1.5" stroke-linecap="round" stroke-linejoin="round"/>
<path fill-rule="evenodd" clip-rule="evenodd" d="M1505.21 1619.83C1503.78 1619.87 1502.35 1619.91 1500.91 1619.95C1504.37 1608.98 1507.77 1597.96 1511.12 1586.89C1511.85 1584.73 1512.58 1582.56 1513.31 1580.39C1513.98 1579.98 1514.65 1579.56 1515.32 1579.15C1513.37 1590.23 1511.39 1601.32 1509.38 1612.41C1507.99 1614.9 1506.6 1617.37 1505.21 1619.83Z" stroke="#7EED56" stroke-width="1.35234" stroke-miterlimit="1.5" stroke-linecap="round" stroke-linejoin="round"/>
<path fill-rule="evenodd" clip-rule="evenodd" d="M1513.13 1617.07C1512.44 1617.1 1511.5 1617.36 1510.97 1616.56C1510.8 1616.29 1510.69 1615.89 1510.6 1615.48C1513.89 1607.01 1517.15 1598.49 1520.38 1589.91C1521.05 1588.29 1521.71 1586.67 1522.37 1585.05C1522.92 1585 1523.48 1584.96 1524.03 1584.92C1521.99 1593.79 1519.93 1602.65 1517.85 1611.49C1516.28 1613.36 1514.7 1615.21 1513.13 1617.07Z" stroke="#7EED56" stroke-width="1.38069" stroke-miterlimit="1.5" stroke-linecap="round" stroke-linejoin="round"/>
<path fill-rule="evenodd" clip-rule="evenodd" d="M1505.79 1630.17C1504.91 1630.83 1503.79 1631.88 1503.01 1631.63C1502.75 1631.54 1502.56 1631.27 1502.37 1630.98C1504.97 1620.57 1507.53 1610.14 1510.05 1599.7C1510.65 1597.63 1511.25 1595.57 1511.84 1593.51C1512.53 1592.97 1513.21 1592.43 1513.89 1591.89C1512.91 1601.57 1511.93 1611.26 1510.93 1620.95C1509.22 1624.04 1507.51 1627.11 1505.79 1630.17Z" stroke="#7EED56" stroke-width="1.44075" stroke-miterlimit="1.5" stroke-linecap="round" stroke-linejoin="round"/>
<path fill-rule="evenodd" clip-rule="evenodd" d="M1500.84 1626.49C1499.14 1628.08 1497.45 1629.66 1495.75 1631.24C1496.47 1623.78 1497.19 1616.32 1497.91 1608.86C1498.15 1607.14 1498.38 1605.43 1498.62 1603.72C1499.3 1602.79 1499.98 1601.87 1500.67 1600.94C1501.61 1606.92 1502.56 1612.87 1503.53 1618.82C1502.64 1621.37 1501.74 1623.93 1500.84 1626.49Z" stroke="#7EED56" stroke-width="2.14157" stroke-miterlimit="1.5" stroke-linecap="round" stroke-linejoin="round"/>
<path fill-rule="evenodd" clip-rule="evenodd" d="M1501.03 1628.34C1499.48 1628.54 1497.94 1628.75 1496.39 1628.95C1498.98 1617.77 1501.53 1606.58 1504.03 1595.38C1504.68 1593.19 1505.33 1591 1505.98 1588.81C1506.67 1588.24 1507.36 1587.67 1508.05 1587.1C1507.04 1597.95 1506.02 1608.81 1504.99 1619.68C1504.47 1620.97 1504.05 1622.38 1503.53 1623.67C1502.79 1625.52 1501.92 1627.04 1501.03 1628.34Z" stroke="#7EED56" stroke-width="1.41267" stroke-miterlimit="1.5" stroke-linecap="round" stroke-linejoin="round"/>
<path fill-rule="evenodd" clip-rule="evenodd" d="M1496.14 1639.5C1495.9 1640.03 1495.66 1640.56 1495.42 1641.08C1494.37 1643.31 1492.67 1646.66 1491.47 1645.84C1491.28 1645.71 1491.13 1645.5 1490.99 1645.24C1491.21 1638.76 1491.44 1632.27 1491.67 1625.78C1491.91 1624.07 1492.15 1622.36 1492.39 1620.65C1493.09 1619.74 1493.78 1618.82 1494.47 1617.9C1495.93 1622.57 1497.39 1627.22 1498.86 1631.86C1497.96 1634.41 1497.05 1636.96 1496.14 1639.5Z" stroke="#7EED56" stroke-width="2.14157" stroke-miterlimit="1.5" stroke-linecap="round" stroke-linejoin="round"/>
<path fill-rule="evenodd" clip-rule="evenodd" d="M1500.37 1643.32C1499 1645.81 1497.18 1648.51 1495.85 1647.8C1495.63 1647.68 1495.45 1647.49 1495.28 1647.24C1496.57 1638.45 1497.85 1629.66 1499.11 1620.88C1499.49 1618.87 1499.86 1616.86 1500.23 1614.86C1500.93 1613.99 1501.64 1613.12 1502.35 1612.24C1502.73 1619.83 1503.13 1627.41 1503.54 1634.97C1502.49 1637.76 1501.43 1640.54 1500.37 1643.32Z" stroke="#7EED56" stroke-width="1.85005" stroke-miterlimit="1.5" stroke-linecap="round" stroke-linejoin="round"/>
<path fill-rule="evenodd" clip-rule="evenodd" d="M1495.13 1663.83C1494.32 1666.1 1492.99 1669.53 1491.75 1669.45C1491.55 1669.44 1491.36 1669.33 1491.2 1669.18C1490.95 1668.94 1490.74 1668.6 1490.56 1668.21C1490.81 1660.6 1491.07 1652.99 1491.33 1645.37C1491.53 1643.56 1491.74 1641.76 1491.95 1639.95C1492.65 1638.94 1493.34 1637.93 1494.04 1636.92C1495.2 1642.83 1496.38 1648.72 1497.56 1654.6C1496.75 1657.68 1495.94 1660.75 1495.13 1663.83Z" stroke="#7EED56" stroke-width="2.2248" stroke-miterlimit="1.5" stroke-linecap="round" stroke-linejoin="round"/>
<path fill-rule="evenodd" clip-rule="evenodd" d="M1545.32 1627.13C1546.6 1627.7 1547.88 1628.26 1549.16 1628.83C1552.08 1617.54 1554.95 1606.22 1557.76 1594.88C1558.24 1592.63 1558.72 1590.38 1559.19 1588.13C1558.8 1587.51 1558.4 1586.9 1558 1586.29C1553.93 1597.24 1549.79 1608.09 1545.6 1618.85C1545.51 1621.61 1545.41 1624.37 1545.32 1627.13Z" stroke="#7EED56" stroke-width="1.35962" stroke-miterlimit="1.5" stroke-linecap="round" stroke-linejoin="round"/>
<path fill-rule="evenodd" clip-rule="evenodd" d="M1539.66 1621.7C1540.29 1622 1541.01 1622.49 1541.82 1622.08C1542.15 1621.91 1542.49 1621.55 1542.82 1621.19C1544.46 1612.26 1546.08 1603.34 1547.67 1594.42C1547.92 1592.7 1548.17 1590.99 1548.42 1589.28C1547.94 1589.05 1547.46 1588.82 1546.98 1588.59C1544.17 1597.4 1541.32 1606.18 1538.43 1614.94C1538.84 1617.2 1539.25 1619.45 1539.66 1621.7Z" stroke="#7EED56" stroke-width="1.3869" stroke-miterlimit="1.5" stroke-linecap="round" stroke-linejoin="round"/>
<path fill-rule="evenodd" clip-rule="evenodd" d="M1539.09 1636.27C1539.52 1637.21 1540 1638.49 1540.72 1638.62C1541.03 1638.68 1541.38 1638.49 1541.72 1638.29C1545.16 1627.92 1548.54 1617.49 1551.88 1607.01C1552.44 1604.91 1553 1602.81 1553.56 1600.7C1553.22 1599.97 1552.89 1599.23 1552.55 1598.49C1548.25 1607.77 1543.91 1616.95 1539.53 1626.02C1539.38 1629.44 1539.24 1632.85 1539.09 1636.27Z" stroke="#7EED56" stroke-width="1.45015" stroke-miterlimit="1.5" stroke-linecap="round" stroke-linejoin="round"/>
<path fill-rule="evenodd" clip-rule="evenodd" d="M1545.6 1634.8C1546.26 1636.87 1546.91 1638.95 1547.57 1641.03C1551.07 1634.02 1554.55 1626.94 1558 1619.8C1558.72 1618.14 1559.45 1616.48 1560.17 1614.82C1560.04 1613.72 1559.92 1612.63 1559.79 1611.53C1555.67 1616.69 1551.54 1621.79 1547.4 1626.83C1546.81 1629.48 1546.21 1632.14 1545.6 1634.8Z" stroke="#7EED56" stroke-width="2.15501" stroke-miterlimit="1.5" stroke-linecap="round" stroke-linejoin="round"/>
<path fill-rule="evenodd" clip-rule="evenodd" d="M1544.41 1636.41C1545.69 1637.17 1546.98 1637.94 1548.26 1638.71C1552.14 1627.61 1555.96 1616.44 1559.72 1605.2C1560.3 1602.95 1560.89 1600.71 1561.47 1598.46C1561.13 1597.69 1560.8 1596.92 1560.47 1596.14C1555.57 1606.59 1550.61 1616.9 1545.6 1627.07C1545.38 1628.37 1545.02 1629.65 1544.78 1630.95C1544.41 1632.91 1544.31 1634.75 1544.41 1636.41Z" stroke="#7EED56" stroke-width="1.42137" stroke-miterlimit="1.5" stroke-linecap="round" stroke-linejoin="round"/>
<path fill-rule="evenodd" clip-rule="evenodd" d="M1542.58 1648.36C1542.51 1648.85 1542.44 1649.34 1542.37 1649.83C1542.32 1650.21 1542.28 1650.58 1542.23 1650.96C1542.04 1652.72 1541.85 1655.31 1542.7 1655.81C1542.84 1655.9 1543 1655.92 1543.16 1655.9C1543.43 1655.86 1543.71 1655.72 1543.98 1655.53C1547.45 1649.62 1550.9 1643.64 1554.33 1637.61C1555.07 1635.96 1555.8 1634.31 1556.53 1632.65C1556.41 1631.55 1556.28 1630.46 1556.16 1629.36C1552.24 1633.08 1548.33 1636.77 1544.41 1640.41C1543.8 1643.06 1543.19 1645.71 1542.58 1648.36Z" stroke="#7EED56" stroke-width="2.15501" stroke-miterlimit="1.5" stroke-linecap="round" stroke-linejoin="round"/>
<path fill-rule="evenodd" clip-rule="evenodd" d="M1536.62 1650.18C1536.45 1653.06 1536.67 1655.9 1538.03 1655.95C1538.33 1655.97 1538.65 1655.85 1538.98 1655.67C1542.78 1647.3 1546.55 1638.86 1550.28 1630.34C1551.05 1628.38 1551.82 1626.41 1552.59 1624.44C1552.42 1623.39 1552.26 1622.33 1552.09 1621.27C1547.56 1628.09 1543.01 1634.82 1538.45 1641.45C1537.84 1644.36 1537.23 1647.27 1536.62 1650.18Z" stroke="#7EED56" stroke-width="1.86377" stroke-miterlimit="1.5" stroke-linecap="round" stroke-linejoin="round"/>
<path fill-rule="evenodd" clip-rule="evenodd" d="M1529.66 1670.59C1529.45 1671.45 1529.25 1672.33 1529.09 1673.22C1529 1673.73 1528.92 1674.25 1528.88 1674.77C1528.85 1675.08 1528.84 1675.38 1528.85 1675.67C1528.94 1677.51 1530.05 1677.02 1530.75 1676.61C1530.9 1676.52 1531.05 1676.42 1531.2 1676.32C1535.36 1669.47 1539.49 1662.54 1543.6 1655.52C1544.44 1653.81 1545.28 1652.1 1546.11 1650.38C1546.05 1649.2 1545.99 1648.01 1545.93 1646.83C1541.54 1651.74 1537.15 1656.6 1532.76 1661.38C1531.73 1664.46 1530.7 1667.53 1529.66 1670.59Z" stroke="#7EED56" stroke-width="2.23849" stroke-miterlimit="1.5" stroke-linecap="round" stroke-linejoin="round"/>
<path fill-rule="evenodd" clip-rule="evenodd" d="M588.997 1580.6L627.049 1591.13C646.567 1664.72 662.542 1729.04 697.469 1801.55L674.841 1833.41C639.164 1757.59 612.303 1672.27 588.997 1580.6Z" fill="black" stroke="#808080" stroke-width="8" stroke-miterlimit="1.5" stroke-linecap="round" stroke-linejoin="round"/>
<path d="M608.234 1607.38L621.256 1610.07" stroke="#7EED56" stroke-width="2" stroke-miterlimit="1.5" stroke-linecap="round" stroke-linejoin="round"/>
<path d="M611.42 1620.98L624.21 1623.15" stroke="#7EED56" stroke-width="2" stroke-miterlimit="1.5" stroke-linecap="round" stroke-linejoin="round"/>
<path fill-rule="evenodd" clip-rule="evenodd" d="M641.316 1689.81L629.592 1690.19L642.175 1723.93L652.294 1720.05L641.316 1689.81Z" fill="black"/>
<path fill-rule="evenodd" clip-rule="evenodd" d="M641.712 1689.66L652.939 1719.82C653.065 1720.17 652.887 1720.55 652.538 1720.69L642.443 1724.63C642.257 1724.7 642.051 1724.7 641.867 1724.61C641.686 1724.53 641.545 1724.38 641.475 1724.19C641.475 1724.19 639.08 1717.88 636.433 1710.7C632.966 1701.29 629.056 1690.4 629.056 1690.4C628.989 1690.22 629.011 1690.02 629.115 1689.87C629.217 1689.71 629.389 1689.62 629.573 1689.62L641.301 1689.38C641.484 1689.37 641.65 1689.49 641.712 1689.66ZM641.021 1690.24L630.415 1690.73C631.416 1693.32 634.86 1702.25 637.851 1710.17C640.017 1715.91 641.939 1721.12 642.616 1722.96L651.423 1719.64L641.021 1690.24Z" fill="#7EED56"/>
<path d="M652.148 1747.26C653.722 1746.71 653.827 1742.91 652.382 1738.78C650.938 1734.64 648.491 1731.74 646.917 1732.29C645.342 1732.84 645.238 1736.63 646.682 1740.77C648.127 1744.9 650.574 1747.81 652.148 1747.26Z" fill="black"/>
<path fill-rule="evenodd" clip-rule="evenodd" d="M646.762 1731.84C647.566 1731.55 648.604 1731.94 649.63 1732.97C650.807 1734.15 652.018 1736.16 652.89 1738.6C653.755 1741.04 654.091 1743.38 653.92 1745.04C653.766 1746.52 653.17 1747.51 652.335 1747.8C651.501 1748.09 650.425 1747.7 649.378 1746.63C648.211 1745.43 647.016 1743.39 646.173 1740.95C645.337 1738.49 645.031 1736.16 645.219 1734.51C645.381 1733.07 645.95 1732.12 646.762 1731.84ZM647.072 1732.73C646.776 1732.83 646.581 1733.12 646.432 1733.5C646.242 1734.02 646.156 1734.68 646.163 1735.46C646.178 1736.91 646.521 1738.72 647.192 1740.59C647.857 1742.47 648.73 1744.07 649.634 1745.2C650.112 1745.8 650.593 1746.25 651.056 1746.53C651.382 1746.71 651.688 1746.82 651.959 1746.72C652.23 1746.63 652.409 1746.36 652.548 1746.01C652.74 1745.5 652.832 1744.85 652.835 1744.08C652.834 1742.63 652.52 1740.84 651.873 1738.95C651.231 1737.07 650.375 1735.44 649.485 1734.3C649.004 1733.69 648.521 1733.22 648.053 1732.94C647.7 1732.73 647.367 1732.63 647.072 1732.73Z" fill="#7EED56"/>
<path d="M660.042 1742.63C661.617 1742.08 661.721 1738.28 660.277 1734.15C658.832 1730.01 656.385 1727.1 654.811 1727.65C653.237 1728.2 653.132 1732 654.577 1736.14C656.021 1740.27 658.468 1743.18 660.042 1742.63Z" fill="black"/>
<path fill-rule="evenodd" clip-rule="evenodd" d="M654.636 1727.16C655.458 1726.87 656.516 1727.26 657.552 1728.31C658.725 1729.5 659.928 1731.52 660.786 1733.97C661.643 1736.41 661.966 1738.75 661.792 1740.41C661.637 1741.88 661.05 1742.86 660.223 1743.15C659.395 1743.44 658.325 1743.04 657.285 1741.98C656.114 1740.79 654.915 1738.76 654.064 1736.32C653.214 1733.87 652.894 1731.53 653.072 1729.87C653.23 1728.41 653.814 1727.44 654.636 1727.16ZM654.986 1728.16C654.703 1728.25 654.515 1728.52 654.371 1728.89C654.178 1729.39 654.09 1730.06 654.093 1730.83C654.1 1732.28 654.43 1734.08 655.089 1735.96C655.748 1737.84 656.617 1739.45 657.513 1740.58C657.992 1741.18 658.476 1741.65 658.937 1741.91C659.274 1742.11 659.583 1742.21 659.86 1742.11C660.138 1742.01 660.322 1741.75 660.462 1741.38C660.659 1740.89 660.748 1740.22 660.747 1739.45C660.747 1738.01 660.42 1736.2 659.766 1734.32C659.112 1732.45 658.249 1730.83 657.352 1729.69C656.872 1729.09 656.388 1728.62 655.923 1728.35C655.583 1728.15 655.268 1728.06 654.986 1728.16Z" fill="#7EED56"/>
<path d="M653.757 1750.57L659.032 1771.68C664.183 1771.43 668.374 1768.94 670.658 1762" stroke="#7EED56" stroke-miterlimit="1.5" stroke-linecap="round" stroke-linejoin="round"/>
<path d="M663.587 1753.09L667.817 1750.76" stroke="#7EED56" stroke-miterlimit="1.5" stroke-linecap="round" stroke-linejoin="round"/>
<path d="M664.375 1754.41L666.458 1753.34" stroke="#7EED56" stroke-miterlimit="1.5" stroke-linecap="round" stroke-linejoin="round"/>
<path d="M667.898 1752.51L669.015 1751.78" stroke="#7EED56" stroke-miterlimit="1.5" stroke-linecap="round" stroke-linejoin="round"/>
<path d="M664.995 1755.79L668.613 1753.38" stroke="#7EED56" stroke-miterlimit="1.5" stroke-linecap="round" stroke-linejoin="round"/>
<path d="M665.745 1756.96L667.124 1756.13" stroke="#7EED56" stroke-miterlimit="1.5" stroke-linecap="round" stroke-linejoin="round"/>
<path d="M668.409 1755.3L670.193 1754.16" stroke="#7EED56" stroke-miterlimit="1.5" stroke-linecap="round" stroke-linejoin="round"/>
<path d="M665.985 1758.35L669.227 1756.34" stroke="#7EED56" stroke-miterlimit="1.5" stroke-linecap="round" stroke-linejoin="round"/>
<path d="M667.515 1759.12L668.525 1758.52" stroke="#7EED56" stroke-miterlimit="1.5" stroke-linecap="round" stroke-linejoin="round"/>
<path d="M633.782 1693.15L640.11 1692.51" stroke="#7EED56" stroke-miterlimit="1.5" stroke-linecap="round" stroke-linejoin="round"/>
<path d="M613.71 1633.82L627.039 1634.39" stroke="#7EED56" stroke-width="2" stroke-miterlimit="1.5" stroke-linecap="round" stroke-linejoin="round"/>
<path d="M617.384 1645.82L630.63 1646.29" stroke="#7EED56" stroke-width="2" stroke-miterlimit="1.5" stroke-linecap="round" stroke-linejoin="round"/>
<path d="M620.699 1657.27L627.334 1656.93" stroke="#7EED56" stroke-width="2" stroke-miterlimit="1.5" stroke-linecap="round" stroke-linejoin="round"/>
<path d="M623.096 1667.85L636.809 1667.88" stroke="#7EED56" stroke-width="2" stroke-miterlimit="1.5" stroke-linecap="round" stroke-linejoin="round"/>
<path d="M662.848 1776.54L663.768 1779.19" stroke="#7EED56" stroke-width="1.2" stroke-miterlimit="1.5" stroke-linecap="round" stroke-linejoin="round"/>
<path d="M665.482 1775.2L666.43 1777.84" stroke="#7EED56" stroke-width="1.2" stroke-miterlimit="1.5" stroke-linecap="round" stroke-linejoin="round"/>
<path d="M667.945 1773.59L669.208 1776.1" stroke="#7EED56" stroke-width="1.2" stroke-miterlimit="1.5" stroke-linecap="round" stroke-linejoin="round"/>
<path d="M669.703 1771.84L671.224 1774.19" stroke="#7EED56" stroke-width="1.2" stroke-miterlimit="1.5" stroke-linecap="round" stroke-linejoin="round"/>
<path d="M671.334 1769.7L672.991 1771.96" stroke="#7EED56" stroke-width="1.2" stroke-miterlimit="1.5" stroke-linecap="round" stroke-linejoin="round"/>
<path d="M1018.28 1374.71L1017.89 1341.38L1034.41 1371.72L1047.47 1341.55L1050.4 1373.05" stroke="black" stroke-width="5" stroke-miterlimit="1.5" stroke-linecap="round" stroke-linejoin="round"/>
<path d="M1064.61 1340.02L1064.93 1373.61" stroke="black" stroke-width="5" stroke-miterlimit="1.5" stroke-linecap="round" stroke-linejoin="round"/>
<path d="M1080 1371.36L1078.88 1339.63L1101.41 1370.27L1101.95 1337.8" stroke="black" stroke-width="5" stroke-miterlimit="1.5" stroke-linecap="round" stroke-linejoin="round"/>
<path fill-rule="evenodd" clip-rule="evenodd" d="M1116.56 1338.26L1116.53 1369.6L1129.1 1368.21L1134.95 1351.52L1128.13 1336.41L1116.56 1338.26Z" stroke="black" stroke-width="5" stroke-miterlimit="1.5" stroke-linecap="round" stroke-linejoin="round"/>
<path d="M1007.91 1386.73L1025 1386.14" stroke="black" stroke-width="5.52852" stroke-miterlimit="1.5" stroke-linecap="round" stroke-linejoin="round"/>
<path d="M1017.03 1386.73L1017.32 1402.37" stroke="black" stroke-width="5.52852" stroke-miterlimit="1.5" stroke-linecap="round" stroke-linejoin="round"/>
<path d="M1031.87 1386.17L1032.53 1403.25L1032.17 1393.87L1042.55 1394.15" stroke="black" stroke-width="5" stroke-miterlimit="1.5" stroke-linecap="round" stroke-linejoin="round"/>
<path d="M1044.32 1385.1L1044.07 1402.44" stroke="black" stroke-width="5" stroke-miterlimit="1.5" stroke-linecap="round" stroke-linejoin="round"/>
<path d="M1053.55 1385.78L1054.18 1402.42L1063.77 1401.87" stroke="black" stroke-width="5" stroke-miterlimit="1.5" stroke-linecap="round" stroke-linejoin="round"/>
<path d="M1056.63 1393.59L1063.92 1393.25" stroke="black" stroke-width="5" stroke-miterlimit="1.5" stroke-linecap="round" stroke-linejoin="round"/>
<path d="M1052.88 1384.13L1063.9 1383.78" stroke="black" stroke-width="5" stroke-miterlimit="1.5" stroke-linecap="round" stroke-linejoin="round"/>
<path d="M1090.45 1382.65L1079.48 1383.07L1079.86 1401.56L1090.26 1401.65L1090.2 1393.65" stroke="black" stroke-width="5" stroke-miterlimit="1.5" stroke-linecap="round" stroke-linejoin="round"/>
<path d="M1099.1 1401.47L1103.76 1383.5L1114.47 1402.92" stroke="black" stroke-width="5" stroke-miterlimit="1.5" stroke-linecap="round" stroke-linejoin="round"/>
<path d="M1101.18 1393.45L1109.58 1394.06" stroke="black" stroke-width="5" stroke-miterlimit="1.5" stroke-linecap="round" stroke-linejoin="round"/>
<path d="M1123.87 1401.77L1122.29 1381.46L1136.49 1382.52L1134.67 1389.05L1123 1390.62" stroke="black" stroke-width="5" stroke-miterlimit="1.5" stroke-linecap="round" stroke-linejoin="round"/>
<path fill-rule="evenodd" clip-rule="evenodd" d="M830.351 955.255C830.351 955.255 1042.63 956.655 1173.79 1010.41C1293.53 1059.48 1366.29 1151.13 1397.54 1251.03C1433.15 1364.88 1386.03 1611.3 1361.93 1720.77C1361.4 1723.2 1360.76 1725.53 1360.04 1727.78C1355.31 1742.5 1363.4 1762.58 1355.76 1775.27C1349.83 1785.11 1344.99 1791.49 1324.85 1793.48C1328.41 1808.21 1321.1 1818.45 1307.97 1826.27C1300.99 1821.03 1298.07 1815.43 1297.18 1809.64L1298.29 1793.74C1301.02 1796.57 1318.15 1797.93 1323.59 1794.21L1298.18 1779.18C1287.02 1770.22 1284.44 1760.8 1284.88 1748.35C1287.49 1745.37 1286.1 1741.19 1286.1 1740.62C1286.08 1739.17 1282.08 1746.26 1280.72 1745.92C1277.51 1745.12 1273.23 1744.34 1271.69 1746.26C1267.44 1751.54 1271.86 1760.61 1271.86 1760.61C1271.86 1760.61 1269.93 1769.72 1269.83 1770.76C1268.96 1779.72 1271.08 1789.68 1280.67 1793.88L1277.1 1801.24L1282.79 1810.3L1281.78 1816.64L1285.48 1825.79L1240.96 1837.09L1241.29 1849.99L1161.02 1835.41L1208.82 1890.64C1126.62 1960.28 1002.96 1994.46 887.992 2017.15C967.659 2125.61 1169.16 2124.45 1521.62 1986.65C1645.44 1673.88 1665.67 1340.13 1531.36 975.097C1137.07 797.56 948.99 839.459 830.351 955.255Z" fill="black" fill-opacity="0.3"/>
</svg>
