<svg width="2160" height="2700" viewBox="0 0 2160 2700" fill="none" xmlns="http://www.w3.org/2000/svg">
<g clip-path="url(#clip0_910_3)">
<path d="M2187.27 -33.6865H-27.2686V2733.69H2187.27V-33.6865Z" fill="black"/>
<path fill-rule="evenodd" clip-rule="evenodd" d="M979.509 1327.87L-107.882 323.065C-111.012 320.173 -111.875 315.571 -110.008 311.741C-67.2266 224.028 -19.21 141.348 33.5396 64.5523C35.2851 62.0116 38.1394 60.4566 41.2213 60.3682C44.3019 60.2786 47.2413 61.667 49.1304 64.103L995.125 1284.33L336.907 -259.437C335.213 -263.409 336.362 -268.021 339.72 -270.734C406.148 -324.408 475.711 -370.408 547.686 -408.264C550.267 -409.621 553.321 -409.74 555.999 -408.587C558.676 -407.435 560.69 -405.134 561.478 -402.328L1026.68 1255.12L921.987 -518.083C921.684 -523.201 925.435 -527.663 930.529 -528.245C1007.49 -537.04 1084.85 -537.04 1161.8 -528.245C1166.89 -527.663 1170.65 -523.201 1170.34 -518.083L1065.64 1255.12L1530.85 -402.328C1531.64 -405.134 1533.65 -407.435 1536.33 -408.587C1539.01 -409.74 1542.06 -409.621 1544.64 -408.264C1616.62 -370.408 1686.18 -324.408 1752.61 -270.734C1755.97 -268.021 1757.11 -263.409 1755.43 -259.437L1097.21 1284.33L2043.2 64.103C2045.09 61.667 2048.03 60.2786 2051.11 60.3682C2054.19 60.4566 2057.05 62.0116 2058.79 64.5523C2111.54 141.348 2159.56 224.028 2202.34 311.741C2204.2 315.571 2203.34 320.173 2200.21 323.065L1112.83 1327.87L2358.69 788.663C2361.32 787.526 2364.32 787.614 2366.87 788.905C2369.44 790.197 2371.29 792.558 2371.93 795.35C2395.16 895.852 2412.29 998.832 2423.11 1103.23C2423.62 1108.19 2420.27 1112.73 2415.38 1113.69L1116.28 1371.46L2415.38 1629.24C2420.27 1630.21 2423.62 1634.74 2423.11 1639.7C2412.29 1744.09 2395.16 1847.07 2371.93 1947.58C2371.29 1950.37 2369.44 1952.73 2366.87 1954.03C2364.32 1955.32 2361.32 1955.41 2358.69 1954.27L1112.83 1415.06L2200.21 2419.87C2203.34 2422.76 2204.2 2427.36 2202.34 2431.19C2159.56 2518.9 2111.54 2601.59 2058.79 2678.38C2057.05 2680.93 2054.19 2682.48 2051.11 2682.57C2048.03 2682.66 2045.09 2681.27 2043.2 2678.83L1097.21 1458.59L1755.43 3002.36C1757.11 3006.34 1755.97 3010.96 1752.61 3013.66C1686.18 3067.34 1616.62 3113.35 1544.64 3151.2C1542.06 3152.55 1539.01 3152.67 1536.33 3151.51C1533.65 3150.36 1531.64 3148.07 1530.85 3145.27L1065.64 1487.82L1170.34 3261.02C1170.65 3266.13 1166.89 3270.6 1161.8 3271.18C1084.85 3279.98 1007.49 3279.98 930.529 3271.18C925.435 3270.6 921.684 3266.13 921.987 3261.02L1026.68 1487.82L561.478 3145.27C560.69 3148.07 558.676 3150.36 555.999 3151.51C553.321 3152.67 550.267 3152.55 547.686 3151.2C475.711 3113.35 406.148 3067.34 339.72 3013.66C336.362 3010.96 335.213 3006.34 336.907 3002.36L995.125 1458.59L49.1304 2678.83C47.2413 2681.27 44.3019 2682.66 41.2213 2682.57C38.1394 2682.48 35.2851 2680.93 33.5396 2678.38C-19.21 2601.59 -67.2266 2518.9 -110.008 2431.19C-111.875 2427.36 -111.012 2422.76 -107.882 2419.87L979.509 1415.06L-266.362 1954.27C-268.992 1955.41 -271.992 1955.32 -274.549 1954.03C-277.107 1952.73 -278.96 1950.37 -279.605 1947.58C-302.841 1847.07 -319.958 1744.09 -330.776 1639.7C-331.29 1634.74 -327.943 1630.21 -323.051 1629.24L976.039 1371.46L-323.051 1113.69C-327.943 1112.73 -331.29 1108.19 -330.776 1103.23C-319.958 998.832 -302.841 895.852 -279.605 795.35C-278.96 792.558 -277.107 790.197 -274.549 788.905C-271.992 787.614 -268.992 787.526 -266.362 788.663L979.509 1327.87ZM1160.71 -518.652C1084.48 -527.364 1007.86 -527.364 931.625 -518.652L1038.43 1290.34C1034.72 1291.01 1031.06 1292.16 1027.49 1293.76L552.182 -399.719C480.75 -362.148 411.716 -316.493 345.788 -263.224L1013.57 1302.98C1010.43 1305.79 1007.49 1309.01 1004.8 1312.58L41.4993 70.0188C-10.9883 146.431 -58.7614 228.699 -101.329 315.974L995.16 1329.18C993.218 1333.58 991.586 1338.24 990.288 1343.06L-270.198 797.525C-293.344 897.644 -310.395 1000.23 -321.172 1104.22L986.852 1363.76C986.496 1368.89 986.496 1374.04 986.852 1379.16L-321.172 1638.7C-310.395 1742.7 -293.344 1845.29 -270.198 1945.41L990.288 1399.87C991.586 1404.7 993.218 1409.34 995.16 1413.75L-101.329 2426.95C-58.7614 2514.23 -10.9883 2596.5 41.4993 2672.91L1004.8 1430.36C1007.49 1433.93 1010.43 1437.13 1013.57 1439.95L345.788 3006.16C411.716 3059.43 480.75 3105.08 552.182 3142.65L1027.49 1449.16C1031.06 1450.78 1034.72 1451.93 1038.43 1452.59L931.625 3261.59C1007.86 3270.3 1084.48 3270.3 1160.71 3261.59L1053.9 1452.59C1057.61 1451.93 1061.27 1450.78 1064.83 1449.16L1540.15 3142.65C1611.58 3105.08 1680.61 3059.43 1746.54 3006.16L1078.77 1439.95C1081.89 1437.13 1084.83 1433.93 1087.53 1430.36L2050.83 2672.91C2103.32 2596.5 2151.09 2514.23 2193.66 2426.95L1097.18 1413.75C1099.11 1409.34 1100.74 1404.7 1102.04 1399.87L2362.53 1945.41C2385.67 1845.29 2402.73 1742.7 2413.5 1638.7L1105.48 1379.16C1105.83 1374.04 1105.83 1368.89 1105.48 1363.76L2413.5 1104.22C2402.73 1000.23 2385.67 897.644 2362.53 797.525L1102.04 1343.06C1100.74 1338.24 1099.11 1333.58 1097.18 1329.18L2193.66 315.974C2151.09 228.699 2103.32 146.431 2050.83 70.0188L1087.53 1312.58C1084.83 1309.01 1081.89 1305.79 1078.77 1302.98L1746.54 -263.224C1680.61 -316.493 1611.58 -362.148 1540.15 -399.719L1064.83 1293.76C1061.27 1292.16 1057.61 1291.01 1053.9 1290.34L1160.71 -518.652ZM1046.17 1331.01C1062.43 1331.01 1075.63 1349.13 1075.63 1371.46C1075.63 1393.79 1062.43 1411.93 1046.17 1411.93C1029.91 1411.93 1016.71 1393.79 1016.71 1371.46C1016.71 1349.13 1029.91 1331.01 1046.17 1331.01ZM1046.17 1340.67C1041 1340.67 1036.53 1343.9 1033.14 1348.54C1028.87 1354.41 1026.36 1362.54 1026.36 1371.46C1026.36 1380.4 1028.87 1388.53 1033.14 1394.38C1036.53 1399.04 1041 1402.27 1046.17 1402.27C1051.33 1402.27 1055.8 1399.04 1059.19 1394.38C1063.45 1388.53 1065.97 1380.4 1065.97 1371.46C1065.97 1362.54 1063.45 1354.41 1059.19 1348.54C1055.8 1343.9 1051.33 1340.67 1046.17 1340.67Z" fill="black"/>
</g>
<defs>
<clipPath id="clip0_910_3">
<rect width="2160" height="2700" fill="white"/>
</clipPath>
</defs>
</svg>
