<svg width="2160" height="2700" viewBox="0 0 2160 2700" fill="none" xmlns="http://www.w3.org/2000/svg">
<path fill-rule="evenodd" clip-rule="evenodd" d="M1189.17 1821.97C1209.86 1892.18 1218.66 1966.73 1207.65 2048.52C1099.44 2105.37 1037.34 2097.81 962.618 2024.69C962.618 2024.69 980.087 1831.05 995.321 1828.87C1010.56 1826.69 1189.17 1821.97 1189.17 1821.97Z" fill="#FF050B"/>
<path fill-rule="evenodd" clip-rule="evenodd" d="M1189.92 1821.75C1200.87 1857.9 1208.68 1895.22 1212.24 1934.13C1215.59 1970.85 1215.14 2008.97 1210.04 2048.84C1209.94 2049.62 1209.47 2050.3 1208.77 2050.66C1157.47 2077.92 1116.36 2090.67 1079.36 2088.91C1056.48 2087.83 1035.14 2081.24 1013.96 2069.09C996.282 2058.95 978.726 2044.89 960.412 2026.94C959.736 2026.28 959.392 2025.35 959.476 2024.41C959.476 2024.41 967.112 1943.14 976.722 1885.28C980.756 1860.99 985.196 1840.79 989.46 1832.23C991.228 1828.69 993.291 1826.94 995.01 1826.7C1000.18 1826 1024.03 1825.11 1053.38 1824.28C1110.75 1822.65 1189.15 1821.19 1189.15 1821.19C1189.51 1821.18 1189.82 1821.41 1189.92 1821.75ZM1188.58 1822.78C1181.2 1823.03 1107.89 1825.56 1053.5 1827.87C1024.41 1829.11 1000.75 1830.27 995.633 1831.04C995.504 1831.06 995.42 1831.2 995.292 1831.32C995.019 1831.59 994.756 1831.94 994.481 1832.35C993.44 1833.94 992.422 1836.38 991.388 1839.51C988.053 1849.59 984.805 1866.5 981.755 1886.09C973.483 1939.27 966.89 2012.17 965.889 2023.47C983.412 2040.47 1000.25 2053.81 1017.15 2063.54C1037.41 2075.2 1057.77 2081.64 1079.67 2082.83C1115.58 2084.79 1155.51 2072.75 1205.43 2046.95C1210.86 2007.91 1211.72 1970.5 1208.94 1934.41C1205.97 1895.83 1198.85 1858.75 1188.58 1822.78Z" fill="black"/>
<path fill-rule="evenodd" clip-rule="evenodd" d="M970.247 1913.97C1015.54 1913.03 1139.68 1969.06 1236.38 1947.55L1256.52 1991.97L1155.59 2084.41L1041.84 2087.6L949.089 1972.17C949.089 1972.17 956.447 1914.27 970.247 1913.97Z" fill="white"/>
<path fill-rule="evenodd" clip-rule="evenodd" d="M970.193 1911.41C1003.52 1910.6 1079.58 1940.39 1155.95 1947.64C1183.13 1950.22 1210.34 1949.94 1235.64 1944.25C1237.2 1943.9 1238.79 1944.7 1239.45 1946.16L1259.67 1990.54C1260.29 1991.9 1259.96 1993.51 1258.85 1994.52L1157.9 2086.94C1157.29 2087.49 1156.51 2087.81 1155.69 2087.83L1041.93 2090.77C1040.94 2090.8 1039.99 2090.36 1039.36 2089.59L946.928 1973.91C946.457 1973.32 946.245 1972.57 946.339 1971.82C946.339 1971.82 949.852 1944.95 956.455 1927.5C958.486 1922.13 960.843 1917.64 963.412 1914.89C965.511 1912.64 967.814 1911.46 970.193 1911.41ZM970.3 1916.55C968.748 1916.58 967.466 1917.87 966.155 1919.66C963.52 1923.25 961.297 1928.97 959.394 1935.27C955.101 1949.5 952.61 1966.76 951.991 1971.35L1043.32 2084.38L1154.22 2081.04L1252.33 1991.11L1234.42 1951.43C1209.2 1956.58 1182.24 1956.7 1155.33 1953.99C1079.19 1946.32 1003.55 1915.96 970.3 1916.55Z" fill="black"/>
<path fill-rule="evenodd" clip-rule="evenodd" d="M983.971 1957.94C983.971 1957.94 953.33 1914.59 933.825 1929.24C906.06 1950.09 917.875 2015.33 946.626 2040.5C993.592 2081.62 1048.51 2086.88 1053.06 2072.48C1056.15 2062.73 1048.38 2038.71 1038.97 2022.64C1018.75 1988.08 983.971 1957.94 983.971 1957.94Z" fill="#FF050B"/>
<path fill-rule="evenodd" clip-rule="evenodd" d="M985.14 1956.88L985.143 1956.88C986.711 1958.17 1000.71 1969.78 1016.01 1986.42C1025.18 1996.39 1034.77 2008.17 1042.51 2020.56C1047.93 2029.31 1052.91 2040.4 1055.94 2050.4C1058.86 2060.07 1059.7 2068.86 1058.17 2074.09C1056.98 2078.15 1053.48 2081.58 1047.66 2083.57C1039.11 2086.51 1024.27 2086.31 1006.66 2081.31C996.042 2078.3 984.353 2073.57 972.498 2066.8C962.468 2061.08 952.361 2053.84 942.567 2045.14C928.214 2032.12 917.775 2009.64 914.486 1987.16C910.846 1962.28 915.853 1937.75 931.733 1926.46C938.278 1921.82 945.68 1922.16 952.966 1925.59C968.657 1932.98 983.717 1954.78 985.14 1956.88ZM982.691 1958.85C982.691 1958.85 969.935 1941.96 955.869 1933.61C948.974 1929.52 941.757 1927.37 935.915 1932.03C922.691 1942.5 920.436 1964.08 924.521 1985.47C928.277 2005.14 937.641 2024.84 950.686 2035.87C958.309 2042.43 966.171 2047.98 973.921 2052.73C982.646 2058.07 991.268 2062.34 999.45 2065.61C1014.42 2071.6 1027.83 2074.31 1037.44 2073.94C1040.85 2073.81 1043.7 2073.38 1045.82 2072.43C1046.8 2071.99 1047.7 2071.65 1047.96 2070.86C1049.29 2066.98 1048.35 2060.39 1046.49 2053.02C1044.12 2043.6 1040.05 2033.07 1035.43 2024.71C1028.63 2012.27 1019.97 2000.37 1011.66 1990.19C996.713 1971.86 982.945 1959.13 982.945 1959.13C982.848 1959.05 982.763 1958.95 982.691 1958.85Z" fill="black"/>
<path fill-rule="evenodd" clip-rule="evenodd" d="M1199.88 1979.3C1199.88 1979.3 1252.2 1942.37 1270.5 1958.51C1339.07 2018.99 1176.06 2096.03 1145.79 2068.9C1144.81 2014.25 1151.31 2009.08 1199.88 1979.3Z" fill="#FF050B"/>
<path fill-rule="evenodd" clip-rule="evenodd" d="M1199.02 1977.99L1199.02 1977.99C1200.2 1977.11 1225.93 1957.95 1247.57 1952.33C1257.69 1949.7 1266.95 1950.29 1273.19 1955.46C1304.46 1981.79 1294.09 2012.26 1267.89 2036.83C1258.55 2045.59 1247.1 2053.54 1234.91 2060.12C1222.78 2066.66 1209.89 2071.81 1197.71 2075.25C1185.86 2078.6 1174.64 2080.28 1165.32 2080.04C1155.32 2079.78 1147.33 2077.27 1142.42 2072.66C1141.37 2071.72 1140.77 2070.39 1140.74 2068.99C1141.05 2039.58 1143.2 2023.99 1152.16 2011.72C1160.4 2000.42 1174.52 1991.92 1199.02 1977.99ZM1200.7 1980.64C1178.16 1995.5 1165.05 2004.32 1157.83 2015.59C1150.55 2026.99 1149.64 2040.89 1150.73 2066.26C1154.29 2068.4 1159.39 2069.06 1165.37 2068.96C1173.73 2068.83 1183.68 2066.81 1194.23 2063.53C1205.54 2060.01 1217.46 2054.92 1228.83 2048.81C1240.11 2042.74 1250.85 2035.68 1259.74 2027.86C1281.84 2008.44 1292.41 1984.28 1267.81 1961.55C1262.09 1956.19 1252.15 1957.59 1241.88 1960.71C1221.92 1966.75 1200.79 1980.58 1200.79 1980.58C1200.76 1980.6 1200.73 1980.62 1200.7 1980.64Z" fill="black"/>
<path fill-rule="evenodd" clip-rule="evenodd" d="M1279.89 2025.79C1279.89 2025.79 1257.13 2030.87 1246.92 2025.38C1237.11 2020.11 1239.8 2004.33 1242.34 2001.11C1249.77 1991.71 1260.46 1977.21 1268.52 1962.3C1273.39 1953.28 1267.57 1941.79 1270.78 1932.66C1275.56 1919.07 1288.23 1909.22 1288.2 1908.65C1287.88 1902.74 1288.24 1891.2 1295.85 1890.76C1306.11 1890.18 1310.01 1897.09 1311.97 1901.45C1313.81 1905.55 1307.62 1916.95 1307.62 1916.95C1307.62 1916.95 1318.35 1905.38 1323.02 1905.61C1327.69 1905.85 1332.85 1911.92 1332.69 1915.72C1332.54 1919.52 1325.29 1928.86 1325.29 1928.86C1325.29 1928.86 1336.67 1922.98 1340.1 1924.2C1343.52 1925.41 1345.37 1930.56 1344.65 1933.64C1343.93 1936.73 1335.8 1942.71 1335.8 1942.71C1335.8 1942.71 1346.2 1934.4 1349.66 1940.71C1354.27 1949.14 1337.83 1961.51 1337.83 1961.51C1337.83 1961.51 1349.91 1955.22 1350.91 1957.79C1356.3 1971.66 1338.41 1974.27 1338.41 1974.27" fill="#FF050B"/>
<path fill-rule="evenodd" clip-rule="evenodd" d="M1284.68 1907.35C1284.57 1902.72 1285.07 1896.2 1287.64 1892.14C1289.4 1889.34 1291.99 1887.49 1295.66 1887.27C1300.94 1886.98 1304.82 1888.36 1307.75 1890.4C1311.63 1893.1 1313.8 1897.04 1315.14 1900.03C1315.73 1901.34 1315.89 1903.17 1315.63 1905.22C1315.7 1905.18 1315.75 1905.14 1315.81 1905.1C1318.57 1903.2 1321.3 1902.15 1323.19 1902.25C1326.21 1902.41 1329.46 1904.23 1331.9 1906.82C1334.53 1909.61 1336.12 1913.2 1336 1915.86C1335.94 1917.29 1335.23 1919.36 1334.07 1921.53C1334.02 1921.61 1333.98 1921.7 1333.93 1921.78C1334.15 1921.72 1334.36 1921.65 1334.58 1921.59C1337.28 1920.82 1339.72 1920.7 1341.15 1921.21C1343.6 1922.1 1345.6 1924.26 1346.76 1926.87C1347.86 1929.38 1348.18 1932.23 1347.68 1934.35C1347.59 1934.7 1347.44 1935.1 1347.25 1935.51C1349.26 1935.9 1351.03 1937.03 1352.25 1939.29C1353.92 1942.38 1353.68 1945.85 1352.18 1949.27C1351.4 1951.06 1350.25 1952.83 1348.96 1954.49C1351.37 1954.38 1352.94 1955.48 1353.45 1956.81C1355.36 1961.82 1354.73 1965.63 1353.04 1968.53C1349.18 1975.17 1338.78 1976.81 1338.78 1976.81C1337.38 1977.02 1336.07 1976.05 1335.86 1974.64C1335.66 1973.24 1336.63 1971.94 1338.04 1971.73C1338.04 1971.73 1344.01 1970.88 1347.36 1967.33C1348.94 1965.66 1349.73 1963.32 1348.81 1960.08C1348 1960.27 1346.71 1960.6 1345.77 1960.96C1342.51 1962.2 1339.13 1964 1339.13 1964C1337.83 1964.67 1336.24 1964.24 1335.46 1963C1334.68 1961.77 1334.97 1960.14 1336.14 1959.26C1336.14 1959.26 1342.53 1954.42 1345.85 1948.88C1347.22 1946.6 1348.22 1944.21 1347.06 1942.13C1346.34 1940.83 1344.91 1941.29 1343.63 1941.72C1341.58 1942.41 1339.61 1943.69 1338.54 1944.46C1337.96 1944.9 1337.6 1945.16 1337.6 1945.16C1336.27 1946.15 1334.39 1945.88 1333.38 1944.56C1332.37 1943.25 1332.6 1941.37 1333.89 1940.33C1333.89 1940.33 1333.93 1940.31 1333.99 1940.26L1333.99 1940.26C1333.99 1940.26 1336.41 1938.46 1338.64 1936.37C1339.97 1935.13 1341.4 1933.91 1341.62 1932.93C1341.85 1931.94 1341.57 1930.61 1341.04 1929.43C1340.59 1928.45 1339.97 1927.5 1339.04 1927.17C1338.7 1927.06 1338.21 1927.25 1337.63 1927.38C1336.4 1927.64 1334.99 1928.12 1333.61 1928.65C1330.09 1930 1326.78 1931.74 1326.78 1931.74C1325.42 1932.43 1323.77 1932.1 1322.8 1930.93C1321.83 1929.76 1321.81 1928.08 1322.74 1926.88C1322.74 1926.88 1325.53 1923.24 1327.59 1919.67C1328.49 1918.1 1329.35 1916.6 1329.39 1915.59C1329.43 1914.31 1328.33 1912.76 1327.05 1911.43C1325.84 1910.16 1324.35 1909.05 1322.85 1908.98C1322.49 1908.97 1322.09 1909.23 1321.6 1909.48C1320.55 1910.03 1319.41 1910.83 1318.26 1911.72C1314.16 1914.91 1310.15 1919.29 1310.15 1919.29C1308.97 1920.56 1307.03 1920.76 1305.62 1919.75C1304.22 1918.74 1303.78 1916.84 1304.61 1915.32C1304.61 1915.32 1306.42 1911.93 1307.71 1908.29C1308.2 1906.91 1308.62 1905.49 1308.78 1904.24C1308.85 1903.7 1308.96 1903.22 1308.8 1902.88C1307.87 1900.81 1306.47 1898 1303.77 1896.13C1301.91 1894.84 1299.41 1894.06 1296.05 1894.25C1293.74 1894.38 1292.92 1896.57 1292.35 1898.83C1291.51 1902.08 1291.53 1905.87 1291.67 1908.46C1291.69 1908.89 1291.71 1909.86 1290.83 1910.96C1290.61 1911.23 1290.12 1911.74 1289.38 1912.45C1287.34 1914.41 1282.97 1918.51 1279.13 1924.02C1277.12 1926.91 1275.25 1930.2 1273.98 1933.78C1272.82 1937.04 1273.04 1940.64 1273.33 1944.3C1273.67 1948.59 1274.15 1952.94 1273.56 1957.04C1273.23 1959.4 1272.55 1961.68 1271.38 1963.84C1267.56 1970.82 1263.2 1977.7 1258.83 1984.02C1253.78 1991.33 1248.75 1997.88 1244.68 2002.96C1243.5 2004.44 1242.48 2009.22 1243.02 2013.89C1243.44 2017.44 1244.81 2021.02 1248.26 2022.91C1251.29 2024.57 1255.61 2025.12 1259.99 2025.21C1269.48 2025.4 1279.34 2023.28 1279.34 2023.28C1280.72 2022.98 1282.09 2023.85 1282.4 2025.23C1282.71 2026.61 1281.84 2027.99 1280.45 2028.3C1280.45 2028.3 1270 2030.7 1259.92 2030.64C1254.57 2030.61 1249.33 2029.83 1245.59 2027.86C1240.38 2025.1 1237.97 2019.93 1237.28 2014.61C1236.41 2008.04 1238.35 2001.38 1240 1999.26C1243.93 1994.22 1248.78 1987.72 1253.65 1980.48C1257.83 1974.29 1262.02 1967.57 1265.66 1960.75C1266.87 1958.5 1267.22 1956.04 1267.26 1953.53C1267.39 1946.13 1265.26 1938.24 1267.59 1931.54C1269.42 1926.27 1272.35 1921.51 1275.36 1917.57C1279.04 1912.73 1282.83 1909.13 1284.68 1907.35Z" fill="black"/>
<path d="M1125.09 1939.86L1104.41 1937.32L1085.86 2088.55L1106.54 2091.08L1125.09 1939.86Z" fill="#00A8E4"/>
<path fill-rule="evenodd" clip-rule="evenodd" d="M1126.72 1940.06C1126.72 1940.06 1122.91 1988.91 1119.05 2031.22C1116.11 2063.49 1113.08 2091.89 1113.08 2091.89C1112.64 2095.5 1109.35 2098.07 1105.74 2097.62L1085.04 2095.22C1081.36 2094.77 1078.74 2091.41 1079.19 2087.73C1079.19 2087.73 1080.38 2078.02 1082.38 2063.56C1083.79 2053.3 1085.61 2040.65 1087.59 2027.36C1089.37 2015.4 1091.3 2002.93 1093.15 1991.2C1097.8 1961.73 1101.92 1937.02 1101.92 1937.02C1102.09 1935.64 1103.34 1934.66 1104.72 1934.83L1125.29 1938.23C1126.19 1938.34 1126.83 1939.16 1126.72 1940.06ZM1123.18 1941.35L1106.71 1940.03C1106.16 1946.96 1104.45 1968.06 1102.31 1992.33C1101.28 2004.16 1100.14 2016.72 1098.97 2028.75C1097.68 2042.14 1096.38 2054.85 1095.28 2065.14C1094.5 2072.42 1093.81 2078.49 1093.32 2082.73L1100.92 2083.72C1102.37 2073.53 1105.36 2052.69 1108.87 2029.97C1114.63 1992.61 1121.69 1950.24 1123.18 1941.35Z" fill="black"/>
<path fill-rule="evenodd" clip-rule="evenodd" d="M1018.53 1876.18C1018.53 1876.18 1003.56 1826.04 984.055 1840.69C948.403 1867.47 956.391 1915.48 1002.01 1950.22C1018.74 1962.96 1052.38 1982.45 1076.14 1991.51C1081.39 1993.51 1096.66 2000.6 1099.86 2001.44C1107.07 2003.32 1123.53 1996.47 1130.46 1987.25C1133.03 1983.85 1131.83 1979.01 1132.56 1974.15C1135.62 1953.93 1132.67 1941.77 1127.54 1935.7C1101.23 1940.8 1072.17 1926.91 1039.77 1905.04L1018.53 1876.18Z" fill="#FF050B"/>
<path fill-rule="evenodd" clip-rule="evenodd" d="M1020.48 1875.18L1020.48 1875.18C1020.66 1875.42 1041.74 1902.91 1041.74 1902.91C1059.24 1914.27 1075.73 1923.3 1091.27 1928.33C1103.7 1932.35 1115.49 1933.76 1126.71 1931.43C1128.26 1931.13 1129.85 1931.69 1130.86 1932.89C1133.98 1936.5 1136.54 1941.98 1137.72 1949.72C1138.72 1956.27 1138.71 1964.58 1137.25 1974.86C1136.77 1978.19 1137.18 1981.5 1136.71 1984.36C1136.35 1986.49 1135.62 1988.43 1134.32 1990.16C1130.74 1994.96 1124.93 1999.27 1118.84 2002.24C1111.27 2005.95 1103.28 2007.4 1098.62 2006.18C1097.64 2005.92 1095.65 2005.17 1093.17 2004.12C1087.3 2001.66 1078.21 1997.49 1074.41 1996.03C1062.79 1991.53 1048.83 1984.57 1035.62 1977.06C1021.46 1969.02 1008.16 1960.37 999.425 1953.61C978.315 1937.19 965.154 1918.04 960.396 1899.47C954.439 1876.23 961.35 1853.8 982.338 1838.41C989.308 1833.3 995.738 1834.7 1001.34 1839.47C1012.15 1848.68 1019.49 1871.93 1020.48 1875.18ZM1016.46 1876.79C1016.46 1876.79 1010.6 1857.93 1001.62 1847.22C997.077 1841.79 991.697 1838.41 985.77 1842.98C967.435 1857.07 961.61 1877.08 967.344 1897.61C972.112 1914.69 984.761 1932.05 1004.59 1946.83C1013.17 1953.26 1026.25 1961.41 1040.11 1969.03C1053 1976.12 1066.56 1982.75 1077.87 1986.98L1101.09 1996.69C1104.23 1997.51 1109.45 1995.9 1114.55 1993.43C1119.24 1991.16 1123.82 1988.01 1126.6 1984.34C1127.15 1983.61 1127.25 1982.72 1127.34 1981.79C1127.59 1979.19 1127.41 1976.32 1127.87 1973.44C1129.34 1964.28 1129.52 1956.86 1128.74 1950.99C1128.15 1946.52 1127.06 1943.01 1125.54 1940.41C1113.78 1941.97 1101.54 1940.15 1088.8 1935.59C1072.81 1929.88 1055.97 1919.87 1038.17 1907.4C1037.9 1907.22 1037.66 1906.99 1037.47 1906.73L1016.79 1877.46C1016.64 1877.25 1016.53 1877.03 1016.46 1876.79Z" fill="black"/>
<path fill-rule="evenodd" clip-rule="evenodd" d="M982.44 1860.55C982.44 1860.55 985.548 1868.82 994.065 1873.77C1010.62 1871.57 1021.17 1881.51 1032.73 1887.26C1025.56 1878.61 1020.17 1857.83 999.268 1851.89L982.44 1860.55Z" fill="#FF050B"/>
<path fill-rule="evenodd" clip-rule="evenodd" d="M1190.3 1840.95C1190.3 1840.95 1170.49 1822.09 1191.3 1834.82C1229.33 1858.09 1252.32 1901.85 1235.15 1942.96C1222.8 1972.52 1181.72 1965.04 1153.44 1964.94C1126.46 1964.84 1091.39 1957.53 1091.52 1948.77C1091.52 1948.77 1085.67 1935.84 1085.55 1930.87C1085.45 1926.53 1090.83 1918.96 1090.83 1918.96C1090.83 1918.96 1076.27 1897 1109.92 1897.88C1114.74 1898.01 1130.8 1899.04 1135.54 1902.38C1138.81 1904.7 1142.34 1911.49 1146.02 1911.45C1173.17 1911.13 1191.71 1907.79 1196.78 1901.46C1206.63 1889.13 1190.3 1840.95 1190.3 1840.95Z" fill="#FF050B"/>
<path fill-rule="evenodd" clip-rule="evenodd" d="M1146.2 1907.32C1158.34 1907.33 1168.72 1906.7 1176.9 1905.44C1185.6 1904.09 1191.66 1902.32 1194.12 1899.34C1197.47 1895.3 1197.23 1886.73 1196.15 1877.6C1194.33 1862.24 1189.26 1845.33 1188.29 1842.2C1186.78 1840.75 1181.73 1835.83 1180.14 1833.22C1179.18 1831.63 1179.31 1830.25 1179.64 1829.56C1180.06 1828.69 1181.02 1827.68 1183.16 1828.05C1184.52 1828.29 1187.45 1829.56 1192.62 1832.66C1211.93 1844.2 1227.52 1860.9 1236.38 1879.89C1245.71 1899.91 1247.57 1922.47 1238.64 1944.42C1233.04 1958.15 1221.87 1964.84 1208.4 1967.87C1191.23 1971.73 1170.12 1969.35 1153.43 1969.41C1137.68 1969.44 1119.25 1967.08 1106.28 1963.38C1098.7 1961.21 1092.9 1958.43 1089.98 1955.63C1088.11 1953.83 1087.13 1951.89 1086.85 1949.97C1085.98 1948 1083.63 1942.54 1082.16 1937.83C1081.33 1935.16 1080.81 1932.69 1080.77 1930.98C1080.72 1928.94 1081.42 1926.36 1082.53 1923.87C1083.38 1921.98 1084.44 1920.13 1085.3 1918.73C1084.57 1917.16 1083.76 1915.08 1083.32 1912.81C1082.66 1909.35 1082.85 1905.51 1084.84 1902.11C1087.59 1897.43 1094.34 1892.82 1110.04 1893.35C1113.44 1893.47 1122.2 1894.05 1129.03 1895.52C1132.87 1896.35 1136.15 1897.53 1138.01 1898.88C1139.65 1900.06 1141.39 1902.17 1143.12 1904.24C1144.13 1905.45 1146.04 1907.17 1146.2 1907.32ZM1184.12 1831.56C1184.45 1831.01 1184.69 1830.36 1184.17 1830.5C1183.76 1830.6 1183.79 1830.99 1184.12 1831.56ZM1096.26 1948.43C1096.41 1948.6 1096.74 1948.96 1097 1949.18C1097.85 1949.87 1098.98 1950.52 1100.32 1951.17C1105.32 1953.59 1112.85 1955.66 1121.33 1957.26C1131.55 1959.17 1143.11 1960.37 1153.46 1960.47C1169.62 1960.64 1190 1963.36 1206.67 1959.89C1217.63 1957.6 1226.93 1952.56 1231.66 1941.5C1240.19 1921.61 1238.75 1900.98 1230.58 1882.52C1222.53 1864.37 1208.04 1848.3 1189.97 1836.99C1189.26 1836.55 1188.58 1836.14 1187.93 1835.77C1189.91 1837.64 1191.88 1839.29 1191.88 1839.29C1192.14 1839.54 1192.35 1839.86 1192.47 1840.21C1192.47 1840.21 1201.15 1864.44 1202.82 1883.17C1203.6 1891.86 1202.63 1899.42 1199.43 1903.58C1196.92 1906.81 1191.53 1909.64 1183.51 1911.62C1174.39 1913.87 1161.61 1915.19 1146.07 1915.58C1144.38 1915.62 1142.66 1915.02 1140.99 1913.85C1138.24 1911.93 1135.56 1907.61 1133.06 1905.89C1131.47 1904.79 1128.28 1904.22 1124.86 1903.69C1119.04 1902.79 1112.54 1902.46 1109.8 1902.41C1101.76 1902.26 1096.96 1903.34 1094.27 1905.39C1092.24 1906.93 1092.25 1909.14 1092.62 1910.99C1093.21 1913.93 1094.81 1916.33 1094.81 1916.33C1095.9 1917.97 1095.86 1920.12 1094.72 1921.72C1094.72 1921.72 1093.08 1924.05 1091.74 1926.75C1091.05 1928.13 1090.31 1929.6 1090.34 1930.76C1090.37 1932.18 1091.07 1934.39 1091.84 1936.67C1093.52 1941.63 1095.85 1946.81 1095.85 1946.81C1096.08 1947.32 1096.22 1947.87 1096.26 1948.43Z" fill="black"/>
<path fill-rule="evenodd" clip-rule="evenodd" d="M1209.95 1883.12L1201.3 1906.05C1202.8 1892.77 1201.25 1881.54 1194.85 1874.05L1185.75 1834.81C1195.54 1840.32 1206.69 1855.5 1215.45 1865.01L1209.95 1883.12Z" fill="#FF050B"/>
<path fill-rule="evenodd" clip-rule="evenodd" d="M1111.57 1578.03L1065.11 1625.66C1065.11 1625.66 1071.34 1603.23 1064.72 1607.97C1044.78 1622.28 1023.35 1640.07 1011.2 1657.57C980.16 1702.24 966.6 1739.63 967.88 1766.57C971.078 1833.86 1028.31 1885.91 1095.61 1882.71C1162.91 1879.51 1214.95 1822.27 1211.75 1754.98C1210.64 1731.54 1194.22 1693.6 1157.47 1662.87C1107.89 1621.4 1111.57 1578.03 1111.57 1578.03Z" fill="#FF050B"/>
<path fill-rule="evenodd" clip-rule="evenodd" d="M1112.66 1578.12C1112.66 1578.12 1111.2 1598.55 1126.57 1624.49C1133.44 1636.08 1143.65 1648.76 1158.86 1661.21C1174.68 1674.17 1186.86 1688.48 1195.76 1702.46C1208.16 1721.95 1214.18 1740.88 1214.96 1754.82C1216.88 1789.45 1204.54 1821.61 1183.05 1845.55C1161.46 1869.6 1130.62 1885.31 1095.82 1887.13C1060.96 1888.75 1028.68 1876.12 1004.8 1854.27C980.988 1832.47 965.555 1801.52 964.096 1766.75C963.555 1753.2 966.592 1737.1 973.688 1718.88C981.003 1700.09 992.625 1678.98 1008.92 1655.98C1014.18 1648.55 1021.11 1641.08 1028.89 1633.85C1039.53 1623.98 1051.78 1614.55 1063.52 1606.3C1065.16 1605.15 1066.46 1605.13 1067.36 1605.47C1068.42 1605.87 1069.35 1606.95 1069.63 1608.8C1070.02 1611.33 1069.26 1615.92 1068.44 1619.75L1110.8 1577.27C1111.12 1576.94 1111.61 1576.85 1112.03 1577.04C1112.45 1577.23 1112.7 1577.66 1112.66 1578.12ZM1065.67 1609.82C1054.33 1618.14 1042.54 1627.6 1032.31 1637.47C1024.95 1644.58 1018.41 1651.89 1013.47 1659.15C997.943 1681.95 986.941 1702.81 980.094 1721.31C973.716 1738.54 970.965 1753.67 971.666 1766.39C973.393 1798.91 988.194 1827.63 1010.62 1847.88C1032.97 1868.07 1062.96 1879.86 1095.4 1878.28C1127.9 1876.89 1156.74 1862.41 1177.18 1840.21C1197.73 1817.9 1209.83 1787.8 1208.54 1755.13C1208.03 1741.93 1202.51 1723.99 1191.14 1705.34C1182.76 1691.58 1171.21 1677.44 1156.09 1664.53C1140.74 1651.42 1130.51 1638.19 1123.72 1626.15C1111.79 1604.99 1110.42 1587.51 1110.4 1580.84L1066.42 1626.94C1065.83 1627.53 1064.92 1627.66 1064.2 1627.25C1063.48 1626.83 1063.13 1625.98 1063.35 1625.18C1063.35 1625.18 1064.39 1621.29 1065.11 1617.12C1065.47 1615.05 1065.75 1612.91 1065.77 1611.17C1065.78 1610.74 1065.73 1610.24 1065.67 1609.82Z" fill="black"/>
<path fill-rule="evenodd" clip-rule="evenodd" d="M982.142 1651.69C980.382 1648.47 955.114 1633.95 945.58 1631.68C939.131 1630.14 938.967 1618.08 943.696 1613.43C948.424 1608.77 961.566 1610.77 966.224 1615.5C974.62 1624.03 982.142 1651.69 982.142 1651.69Z" fill="white" stroke="black" stroke-width="5" stroke-miterlimit="1.5" stroke-linecap="square" stroke-linejoin="round"/>
<path fill-rule="evenodd" clip-rule="evenodd" d="M927.306 1562.92C924.945 1560.11 897.309 1550.87 887.514 1550.52C880.888 1550.28 878.354 1538.5 882.071 1533.01C885.788 1527.51 899.057 1526.87 904.557 1530.59C914.472 1537.29 927.306 1562.92 927.306 1562.92Z" fill="white" stroke="black" stroke-width="4.99999" stroke-miterlimit="1.5" stroke-linecap="square" stroke-linejoin="round"/>
<path fill-rule="evenodd" clip-rule="evenodd" d="M931.004 1652.79C928.126 1650.51 899.197 1647.01 889.531 1648.63C882.992 1649.73 878.135 1638.69 880.672 1632.56C883.209 1626.43 896.087 1623.14 902.223 1625.68C913.283 1630.26 931.004 1652.79 931.004 1652.79Z" fill="white" stroke="black" stroke-width="5" stroke-miterlimit="1.5" stroke-linecap="square" stroke-linejoin="round"/>
<path fill-rule="evenodd" clip-rule="evenodd" d="M870.626 1685.23C866.972 1684.88 840.791 1697.68 833.564 1704.3C828.677 1708.78 818.596 1702.16 817.391 1695.64C816.185 1689.12 825.2 1679.35 831.73 1678.14C843.5 1675.96 870.626 1685.23 870.626 1685.23Z" fill="white" stroke="black" stroke-width="4.99999" stroke-miterlimit="1.5" stroke-linecap="square" stroke-linejoin="round"/>
<path fill-rule="evenodd" clip-rule="evenodd" d="M1167.26 1648.09C1168.66 1644.7 1192.19 1627.5 1201.41 1624.2C1207.66 1621.96 1206.5 1609.96 1201.29 1605.85C1196.08 1601.74 1183.24 1605.16 1179.12 1610.38C1171.71 1619.78 1167.26 1648.09 1167.26 1648.09Z" fill="white" stroke="black" stroke-width="5" stroke-miterlimit="1.5" stroke-linecap="square" stroke-linejoin="round"/>
<path fill-rule="evenodd" clip-rule="evenodd" d="M1218.21 1643.59C1220.82 1641.01 1249.2 1634.36 1258.98 1634.92C1265.6 1635.3 1269.22 1623.79 1266.03 1617.98C1262.84 1612.16 1249.68 1610.3 1243.86 1613.49C1233.36 1619.25 1218.21 1643.59 1218.21 1643.59Z" fill="white" stroke="black" stroke-width="5" stroke-miterlimit="1.5" stroke-linecap="square" stroke-linejoin="round"/>
<path fill-rule="evenodd" clip-rule="evenodd" d="M1281.78 1669.23C1285.38 1668.49 1312.8 1678.34 1320.71 1684.13C1326.06 1688.05 1335.35 1680.37 1335.84 1673.75C1336.32 1667.14 1326.29 1658.41 1319.67 1657.93C1307.73 1657.05 1281.78 1669.23 1281.78 1669.23Z" fill="white" stroke="black" stroke-width="4.99999" stroke-miterlimit="1.5" stroke-linecap="square" stroke-linejoin="round"/>
<path fill-rule="evenodd" clip-rule="evenodd" d="M1229.8 1574.37C1231.89 1571.35 1258.53 1559.54 1268.25 1558.27C1274.82 1557.41 1276.24 1545.43 1272.02 1540.31C1267.8 1535.19 1254.52 1535.81 1249.4 1540.03C1240.16 1547.64 1229.8 1574.37 1229.8 1574.37Z" fill="white" stroke="black" stroke-width="5" stroke-miterlimit="1.5" stroke-linecap="square" stroke-linejoin="round"/>
<path fill-rule="evenodd" clip-rule="evenodd" d="M1096.98 1853.49C1052.08 1855.96 1013.79 1830.1 1008.96 1794.12C999.107 1720.66 1070.45 1752.14 1095.14 1751.95C1124.84 1751.75 1178.28 1721.57 1174.73 1783.32C1172.66 1819.57 1141.9 1851.02 1096.98 1853.49Z" fill="#810306"/>
<path fill-rule="evenodd" clip-rule="evenodd" d="M1097.03 1854.46C1075.75 1856.02 1055.86 1851.25 1040.1 1842.03C1021.69 1831.25 1009.01 1814.4 1006.02 1794.52C1001.99 1767.15 1009.29 1753.38 1020.77 1746.81C1031.05 1740.93 1045.27 1740.89 1059.18 1742.65C1073.18 1744.43 1086.83 1748.05 1095.12 1747.96C1104.1 1747.95 1115.3 1745.07 1126.4 1743.02C1138.8 1740.71 1151.08 1739.44 1160.4 1743C1171.63 1747.29 1179.45 1758.32 1177.66 1783.49C1176.21 1803.29 1166.6 1821.62 1150.88 1834.71C1137.07 1846.21 1118.61 1853.67 1097.03 1854.46ZM1096.92 1852.51C1117.72 1851 1135.3 1843.21 1148.24 1831.67C1162.49 1818.97 1171.04 1801.66 1171.8 1783.15C1172.71 1762.37 1167.31 1752.91 1157.97 1749.58C1149.64 1746.62 1138.8 1748.32 1127.84 1750.52C1116.26 1752.85 1104.57 1755.84 1095.18 1755.94C1086.62 1755.99 1072.57 1752.36 1058.16 1750.37C1045.94 1748.68 1033.41 1748.08 1024.27 1753.07C1014.38 1758.45 1009.07 1770.36 1011.91 1793.72C1014.1 1812.2 1025.55 1828 1042.23 1838.54C1057.18 1848 1076.27 1853.28 1096.92 1852.51Z" fill="black"/>
<path fill-rule="evenodd" clip-rule="evenodd" d="M1044.15 1840.12C1044.15 1840.12 1077.58 1819.67 1093.49 1818.51C1109.39 1817.35 1138.92 1835.74 1138.92 1835.74C1138.92 1835.74 1129.62 1847 1106.38 1848.59C1060.52 1851.73 1044.15 1840.12 1044.15 1840.12Z" fill="#FF8184"/>
<path fill-rule="evenodd" clip-rule="evenodd" d="M1133.22 1790.7C1133.22 1790.7 1123.96 1782.41 1119 1785.36C1114.04 1788.31 1105.84 1799.86 1109.75 1804.28C1113.64 1808.72 1136.02 1808.05 1136.02 1808.05L1133.22 1790.7Z" fill="#FFAAAC" stroke="black" stroke-width="4.97795" stroke-miterlimit="1.5" stroke-linecap="square" stroke-linejoin="round"/>
<path fill-rule="evenodd" clip-rule="evenodd" d="M1123.4 1800.48C1133.07 1795.04 1144.33 1789.14 1153.47 1790.01C1160.16 1790.65 1165.66 1796.18 1168.86 1801.88C1176.43 1815.34 1166.49 1836.26 1149.73 1845.68C1132.98 1855.1 1110.63 1854.27 1103.06 1840.81C1098.78 1833.19 1098.7 1823.98 1104.03 1815.99C1108.12 1809.85 1116.13 1804.57 1123.4 1800.48Z" fill="#D8CF82"/>
<path fill-rule="evenodd" clip-rule="evenodd" d="M1122.64 1799.13C1128.19 1795.87 1134.27 1792.47 1140.19 1790.27C1144.88 1788.53 1149.47 1787.57 1153.67 1787.9C1156.76 1788.14 1159.62 1789.3 1162.21 1791.01C1165.85 1793.43 1168.87 1797.01 1171 1800.68C1175.58 1808.53 1174.8 1818.83 1170.13 1828.31C1166.21 1836.29 1159.52 1843.65 1151.27 1848.41C1141.25 1854.07 1129.33 1856.34 1119.38 1854.61C1111.1 1853.17 1104.19 1849.01 1100.51 1842.24C1098.15 1837.85 1096.99 1833.01 1097.3 1828.15C1097.58 1823.55 1099.11 1818.93 1102.1 1814.69C1104 1812.01 1106.61 1809.48 1109.61 1807.17C1113.6 1804.11 1118.25 1801.41 1122.64 1799.13ZM1124.16 1801.83C1120.1 1804.29 1115.81 1807.16 1112.18 1810.32C1109.67 1812.5 1107.5 1814.82 1105.97 1817.27C1103.72 1820.83 1102.66 1824.63 1102.61 1828.36C1102.55 1832.2 1103.61 1835.98 1105.61 1839.37C1109.27 1845.71 1116.79 1848.5 1125.13 1848.71C1132.69 1848.9 1140.99 1846.97 1148.2 1842.95C1155.5 1838.95 1161.45 1832.62 1165.06 1825.72C1169.08 1818.04 1170.28 1809.65 1166.72 1803.09C1165.3 1800.48 1163.39 1797.88 1161.05 1795.85C1158.81 1793.91 1156.19 1792.46 1153.27 1792.13C1149.62 1791.72 1145.59 1792.49 1141.45 1793.86C1135.64 1795.78 1129.65 1798.88 1124.16 1801.83Z" fill="black"/>
<path d="M1144.52 1835.54C1154.74 1829.79 1159.53 1818.91 1155.21 1811.23C1150.9 1803.54 1139.11 1801.98 1128.88 1807.73C1118.65 1813.48 1113.87 1824.37 1118.18 1832.05C1122.5 1839.73 1134.29 1841.29 1144.52 1835.54Z" fill="#D8CF82"/>
<path fill-rule="evenodd" clip-rule="evenodd" d="M1128.43 1806.93C1134.31 1803.48 1140.77 1802.42 1146.12 1803.51C1150.6 1804.41 1154.31 1806.82 1156.47 1810.52C1159.15 1815.1 1158.89 1820.79 1156.23 1826.07C1154.09 1830.33 1150.36 1834.3 1145.42 1837.15C1139.3 1840.62 1132.63 1841.64 1127.14 1840.4C1122.55 1839.36 1118.78 1836.77 1116.67 1832.9C1114.62 1829.05 1114.48 1824.55 1116.1 1820.2C1118.02 1815.05 1122.35 1810.11 1128.43 1806.93ZM1129.33 1808.53C1124.97 1811.16 1121.74 1814.79 1119.88 1818.62C1117.8 1822.92 1117.51 1827.51 1119.7 1831.19C1121.81 1834.84 1125.9 1836.75 1130.58 1837.05C1134.7 1837.31 1139.3 1836.33 1143.61 1833.93C1147.97 1831.55 1151.3 1828.17 1153.26 1824.52C1155.52 1820.3 1156 1815.72 1153.95 1811.93C1151.88 1808.09 1147.72 1805.92 1142.87 1805.51C1138.61 1805.14 1133.83 1806.11 1129.33 1808.53Z" fill="black"/>
<path fill-rule="evenodd" clip-rule="evenodd" d="M1134.56 1814.71C1147 1807.71 1161.86 1810.47 1167.71 1820.87C1173.56 1831.27 1168.2 1845.41 1155.75 1852.4C1143.31 1859.4 1128.45 1856.63 1122.6 1846.23C1116.75 1835.83 1122.11 1821.7 1134.56 1814.71ZM1137.58 1820.32C1129.14 1825.07 1125.07 1833.9 1128.5 1840.01C1131.94 1846.12 1141.6 1847.23 1150.04 1842.48C1158.5 1837.73 1162.56 1828.91 1159.12 1822.79C1155.69 1816.68 1146.03 1815.57 1137.58 1820.32Z" fill="#D8CF82"/>
<path fill-rule="evenodd" clip-rule="evenodd" d="M1133.83 1813.41C1139.96 1809.77 1146.73 1808.46 1152.83 1809.18C1159.98 1810.03 1166.2 1813.72 1169.75 1819.72C1173.35 1825.84 1173.45 1833.19 1170.68 1839.97C1168.28 1845.87 1163.61 1851.28 1157.21 1855C1150.75 1858.69 1143.66 1860 1137.32 1859.08C1129.95 1857.99 1123.6 1853.96 1120.15 1847.61C1116.86 1841.32 1116.92 1833.95 1120.05 1827.33C1122.69 1821.73 1127.44 1816.67 1133.83 1813.41ZM1135.28 1816C1129.93 1819.31 1126.14 1824.04 1124.18 1829.1C1122.12 1834.41 1122.2 1840.12 1125.05 1844.85C1127.77 1849.53 1132.67 1852.2 1138.19 1852.95C1143.32 1853.66 1149.03 1852.71 1154.29 1849.8C1159.62 1846.9 1163.56 1842.59 1165.7 1837.82C1168.04 1832.62 1168.28 1826.89 1165.67 1822.02C1163.01 1817.04 1158.03 1813.95 1152.29 1813C1146.91 1812.12 1140.88 1813.03 1135.28 1816ZM1136.86 1819.02C1141.79 1815.83 1147.26 1814.69 1151.86 1815.33C1156.08 1815.9 1159.51 1818.1 1161.58 1821.41C1163.63 1824.83 1163.85 1829.02 1162.38 1833.12C1160.74 1837.68 1156.88 1842.1 1151.51 1845.08C1146.14 1847.93 1140.41 1848.77 1135.73 1847.73C1131.61 1846.82 1128.25 1844.58 1126.46 1841.15C1124.73 1837.8 1124.66 1833.86 1126.24 1830.04C1128 1825.8 1131.69 1821.69 1136.86 1819.02ZM1138.31 1821.61C1134.89 1823.71 1132.33 1826.54 1130.83 1829.51C1129.19 1832.74 1128.9 1836.16 1130.55 1838.86C1132.12 1841.47 1135.23 1842.65 1138.72 1842.7C1141.85 1842.75 1145.33 1841.8 1148.58 1839.87C1151.83 1838.01 1154.28 1835.44 1155.79 1832.73C1157.42 1829.82 1158.04 1826.73 1156.67 1824.17C1155.32 1821.46 1152.4 1819.97 1148.94 1819.63C1145.64 1819.3 1141.91 1819.88 1138.31 1821.61Z" fill="black"/>
<path fill-rule="evenodd" clip-rule="evenodd" d="M1037.64 1709.64C1043.74 1707.52 1049.11 1704.06 1051.45 1710.78C1053.79 1717.5 1048.7 1714.81 1042.6 1716.93C1036.49 1719.05 1029.57 1735.83 1027.24 1729.11C1024.9 1722.39 1031.54 1711.77 1037.64 1709.64Z" fill="white"/>
<path fill-rule="evenodd" clip-rule="evenodd" d="M1037.29 1708.61C1040.87 1706.84 1044.15 1704.83 1046.93 1704.54C1049.89 1704.24 1052.3 1705.58 1054.31 1709.79C1055.93 1713.26 1055.25 1715.38 1054.5 1716.69C1053.83 1717.88 1052.57 1718.59 1050.87 1719.13C1049.26 1719.64 1046.69 1719.69 1043.97 1720.87C1043.49 1721.06 1043.12 1721.58 1042.64 1722.07C1041.64 1723.06 1040.68 1724.35 1039.67 1725.61C1037.4 1728.45 1035.1 1731.32 1033.28 1732.77C1030.57 1734.93 1028.06 1735.12 1026.31 1733.95C1025.38 1733.33 1024.22 1732.36 1023.71 1730.34C1022.84 1726.79 1023.43 1722.56 1025.59 1718.74C1028.39 1713.79 1033.08 1709.53 1037.29 1708.61ZM1049.19 1712.32C1049.37 1712.31 1049.48 1712.25 1049.44 1712.09C1049.4 1711.95 1049.29 1712.15 1049.19 1712.32ZM1027.87 1726.67C1027.64 1726.68 1027.52 1726.74 1027.65 1726.92C1027.71 1726.99 1027.77 1726.77 1027.84 1726.69C1027.85 1726.68 1027.86 1726.67 1027.87 1726.67ZM1048.84 1712.72C1048.61 1713.01 1048.39 1713.43 1048.72 1713.46C1048.96 1713.47 1048.94 1713.14 1048.84 1712.72ZM1030.21 1723.47C1030.31 1723.33 1030.41 1723.18 1030.51 1723.03C1031.54 1721.58 1032.66 1720.03 1033.83 1718.64C1036.21 1715.85 1038.87 1713.71 1041.23 1712.99C1043.56 1712.35 1045.71 1712.18 1047.52 1712.13C1047.88 1712.12 1048.34 1712.22 1048.72 1712.28C1048.68 1712.11 1048.63 1711.93 1048.59 1711.78C1048.24 1710.19 1047.89 1709.28 1046.87 1709.14C1044.48 1708.82 1041.36 1709.95 1038 1710.67C1035.34 1711.98 1033 1715.31 1031.45 1718.97C1030.82 1720.45 1030.38 1721.99 1030.21 1723.47ZM1030.77 1727.89C1030.8 1727.94 1030.87 1727.99 1030.87 1727.99C1030.87 1727.99 1030.83 1727.95 1030.77 1727.89Z" fill="black"/>
<path fill-rule="evenodd" clip-rule="evenodd" d="M1140.94 1705.19C1134.84 1703.07 1129.74 1701.31 1127.41 1708.03C1125.07 1714.75 1129.98 1709.95 1136.09 1712.07C1142.19 1714.19 1149.11 1730.97 1151.45 1724.25C1153.79 1717.53 1147.04 1707.32 1140.94 1705.19Z" fill="white"/>
<path fill-rule="evenodd" clip-rule="evenodd" d="M1141.3 1704.17C1145.5 1705.07 1150.21 1709.16 1153.04 1713.97C1155.24 1717.71 1155.85 1721.9 1154.99 1725.48C1154.48 1727.51 1153.31 1728.48 1152.38 1729.1C1150.63 1730.27 1148.11 1730.09 1145.39 1727.92C1143.58 1726.47 1141.27 1723.6 1139.01 1720.75C1138 1719.49 1137.06 1718.19 1136.06 1717.19C1135.58 1716.7 1135.21 1716.18 1134.72 1715.98C1132.65 1715.08 1130.7 1715.31 1129.38 1715.33C1127.69 1715.34 1126.4 1715.15 1125.61 1714.6C1124.34 1713.72 1122.35 1711.71 1124.53 1707.03C1126.32 1703.3 1128.42 1701.6 1130.98 1701.25C1132.15 1701.08 1133.38 1701.08 1134.69 1701.42C1136.72 1701.94 1138.92 1702.98 1141.3 1704.17ZM1148.19 1722.29C1147.68 1722.53 1147.35 1722.84 1147.8 1723.12C1147.84 1723.15 1147.89 1723.07 1147.91 1723.02C1148.02 1722.78 1148.11 1722.54 1148.19 1722.29ZM1130.14 1709.59C1129.99 1710.14 1129.86 1710.62 1130.13 1710.61C1130.74 1710.56 1130.55 1710.08 1130.14 1709.59ZM1130.6 1707.88C1132.48 1707.62 1134.84 1707.46 1137.45 1708.15C1140.19 1708.99 1143.37 1711.85 1146.05 1715.26C1146.9 1716.33 1147.69 1717.46 1148.43 1718.52C1148.24 1717.13 1147.79 1715.7 1147.18 1714.33C1145.6 1710.77 1143.24 1707.53 1140.58 1706.22C1137.78 1705.63 1135.26 1705.14 1133.17 1705.41C1131.9 1705.57 1131.13 1706.36 1130.6 1707.88Z" fill="black"/>
<path fill-rule="evenodd" clip-rule="evenodd" d="M975.429 1759.05C975.429 1759.05 956.653 1739.22 951.106 1766.01C943.934 1800.67 990.021 1818.2 990.021 1818.2" fill="#FF050B"/>
<path fill-rule="evenodd" clip-rule="evenodd" d="M976.22 1758.31C976.634 1758.74 976.615 1759.43 976.178 1759.85C975.74 1760.26 975.049 1760.24 974.636 1759.81C974.636 1759.81 971.543 1757.15 967.638 1755.49C965.469 1754.57 963.033 1754.02 960.799 1754.76C959.464 1755.21 958.398 1756.34 957.386 1758.09C956.236 1760.09 955.428 1762.91 954.882 1766.79C953.913 1772.46 954.696 1777.51 956.221 1782.1C957.051 1784.61 958.084 1786.99 959.352 1789.23C960.687 1791.6 962.186 1793.85 963.852 1795.94C967.544 1800.57 971.807 1804.53 975.887 1807.72C983.634 1813.78 990.41 1817.18 990.41 1817.18C990.973 1817.4 991.255 1818.03 991.041 1818.59C990.826 1819.15 990.195 1819.44 989.631 1819.22C989.631 1819.22 980.048 1816.61 969.803 1810.28C963.8 1806.58 957.657 1801.61 953.087 1795.32C950.638 1791.96 948.664 1788.19 947.471 1784.08C945.813 1778.39 945.661 1772.06 947.334 1765.23C950.394 1754.39 955.022 1750.42 959.559 1749.68C962.367 1749.22 965.216 1749.84 967.759 1751.18C972.566 1753.73 976.22 1758.31 976.22 1758.31Z" fill="black"/>
<path fill-rule="evenodd" clip-rule="evenodd" d="M1205.21 1755.58C1205.21 1755.58 1224.71 1736.89 1229.93 1763.71C1236.68 1798.43 1189.33 1813.44 1189.33 1813.44" fill="#FF050B"/>
<path fill-rule="evenodd" clip-rule="evenodd" d="M1205.91 1756.31C1205.51 1756.7 1204.87 1756.68 1204.48 1756.28C1204.09 1755.88 1204.11 1755.24 1204.51 1754.85C1204.51 1754.85 1208.42 1750.47 1213.45 1748.24C1216.03 1747.1 1218.88 1746.65 1221.66 1747.27C1226.17 1748.27 1230.65 1752.41 1233.45 1763.03C1235.01 1769.87 1234.71 1776.11 1232.91 1781.65C1231.6 1785.68 1229.51 1789.33 1226.94 1792.56C1222.18 1798.56 1215.85 1803.19 1209.71 1806.56C1199.3 1812.27 1189.64 1814.4 1189.64 1814.4C1189.1 1814.57 1188.54 1814.28 1188.37 1813.74C1188.2 1813.21 1188.5 1812.64 1189.03 1812.48C1189.03 1812.48 1197.67 1808.79 1206.78 1802.01C1211.79 1798.29 1216.85 1793.6 1220.63 1787.94C1221.79 1786.2 1222.8 1784.38 1223.69 1782.46C1224.53 1780.63 1225.23 1778.72 1225.75 1776.7C1226.71 1772.97 1227.11 1768.9 1226.41 1764.4C1225.88 1760.46 1225.05 1757.58 1223.87 1755.52C1222.82 1753.68 1221.67 1752.48 1220.27 1751.95C1217.97 1751.07 1215.44 1751.48 1213.18 1752.3C1209.14 1753.76 1205.91 1756.31 1205.91 1756.31Z" fill="black"/>
<path fill-rule="evenodd" clip-rule="evenodd" d="M963.195 1753.14C959.993 1756.23 960.407 1755.84 970.942 1766.05C983.434 1778.14 1000.93 1731.87 1005.52 1735.36C1007.54 1736.9 978.269 1765.45 984.107 1787.3C994.54 1826.36 1022.75 1858.36 1070.23 1877.46L1030 1891.02C1030 1891.02 999.544 1867.8 991.102 1873.36C965.259 1890.39 989.078 1928.21 1003.87 1945.78C1018.67 1963.34 1079.86 1978.75 1079.86 1978.75L1118.2 2006.86L1092.77 2016.03L1085.58 2061.53L1109.83 2052.66L1140.08 2010.61L1178.85 1987.82C1173.56 2004.66 1186.08 2012.66 1198.95 2012.86C1218.13 2013.17 1241.82 2002.74 1238.54 2031.28L1082.29 2078.39L1070.02 2046.04L1077.32 2000.25L1044.05 1976.15C1023.61 1973.2 1016.42 1979.23 1024.92 1995.93L1005.34 1984.45C1005.34 1984.45 931.577 1907.2 924.538 1910.63C920.51 1912.57 907.432 1982.4 921.748 1998.69C924.531 2001.86 962.953 2015.22 962.953 2015.22L1005.16 2020.59L983.641 2030.79L989.77 2042.24L961.762 2045.94C939.159 2040.31 925.536 2034.92 908.055 2023.09C900.222 2017.79 888.7 2007.98 884.698 1991.59C881.307 1977.71 887.434 1948.92 890.619 1939.74C894.514 1928.51 904.358 1912.54 911.335 1903.96C917.214 1896.74 937.177 1894.81 936.233 1883.87C940.233 1867.6 944.711 1858.83 954.247 1854.1C967.833 1847.36 978.99 1844.9 992.588 1835.13L979.103 1814.47C950.669 1793.41 946.704 1760.92 963.195 1753.14Z" fill="black" fill-opacity="0.3"/>
<path fill-rule="evenodd" clip-rule="evenodd" d="M988.183 2028.65C988.183 2028.65 1011.49 2027.92 1020.02 2020.07C1028.21 2012.52 1021.69 1997.91 1018.43 1995.42C1008.9 1988.16 994.95 1976.77 983.441 1964.32C976.482 1956.8 979.267 1944.22 973.891 1936.17C965.887 1924.19 951.167 1917.8 951.054 1917.24C949.894 1911.44 946.68 1900.34 939.197 1901.81C929.12 1903.79 927.057 1911.45 926.24 1916.17C925.475 1920.59 934.299 1930.11 934.299 1930.11C934.299 1930.11 921.035 1921.56 916.57 1922.94C912.103 1924.33 908.616 1931.5 909.708 1935.14C910.799 1938.78 920.143 1946.03 920.143 1946.03C920.143 1946.03 907.655 1943.16 904.642 1945.18C901.629 1947.21 901.117 1952.66 902.577 1955.46C904.037 1958.28 913.404 1962.05 913.404 1962.05C913.404 1962.05 901.261 1956.58 899.483 1963.56C897.108 1972.86 916.101 1980.77 916.101 1980.77C916.101 1980.77 902.839 1977.68 902.51 1980.42C900.734 1995.19 918.712 1993.27 918.712 1993.27" fill="#FF050B"/>
<path fill-rule="evenodd" clip-rule="evenodd" d="M900.528 1957.92C900.231 1957.57 899.991 1957.22 899.819 1956.9C898.807 1954.97 898.406 1952.13 898.854 1949.43C899.322 1946.61 900.724 1944.02 902.879 1942.56C904.137 1941.71 906.534 1941.22 909.341 1941.29C909.563 1941.3 909.787 1941.31 910.015 1941.31C909.948 1941.24 909.883 1941.17 909.817 1941.1C908.161 1939.29 906.956 1937.46 906.537 1936.09C905.763 1933.55 906.411 1929.68 908.27 1926.32C909.991 1923.21 912.684 1920.64 915.569 1919.73C917.379 1919.16 920.282 1919.5 923.424 1920.66C923.492 1920.68 923.56 1920.71 923.629 1920.73C922.868 1918.81 922.576 1917 922.819 1915.58C923.372 1912.36 924.495 1908 927.585 1904.42C929.914 1901.71 933.333 1899.41 938.522 1898.38C942.127 1897.68 945.097 1898.83 947.501 1901.11C950.995 1904.4 953.103 1910.6 954.145 1915.11C956.377 1916.38 960.936 1918.92 965.709 1922.69C969.601 1925.76 973.619 1929.64 976.701 1934.29C980.62 1940.21 980.521 1948.38 982.478 1955.51C983.141 1957.94 984.094 1960.23 985.823 1962.12C991.042 1967.82 996.773 1973.29 1002.35 1978.25C1008.87 1984.04 1015.18 1989.14 1020.24 1993.04C1022.36 1994.69 1025.89 2000.66 1026.69 2007.24C1027.34 2012.57 1026.29 2018.17 1021.93 2022.14C1018.79 2024.98 1013.91 2027.03 1008.74 2028.39C998.985 2030.95 988.264 2031.22 988.264 2031.22C986.843 2031.26 985.657 2030.15 985.613 2028.73C985.568 2027.31 986.687 2026.13 988.101 2026.08C988.101 2026.08 998.179 2025.69 1007.32 2023.15C1011.55 2021.98 1015.59 2020.37 1018.11 2018C1020.99 2015.32 1021.42 2011.51 1020.94 2007.97C1020.31 2003.31 1018.14 1998.93 1016.62 1997.79C1011.42 1993.89 1004.92 1988.79 998.215 1982.96C992.419 1977.92 986.481 1972.34 981.054 1966.53C979.376 1964.72 978.158 1962.68 977.247 1960.49C975.658 1956.66 975.041 1952.32 974.31 1948.08C973.686 1944.47 973.001 1940.92 971.071 1938.05C968.952 1934.91 966.321 1932.18 963.653 1929.88C958.572 1925.49 953.321 1922.6 950.854 1921.22C949.967 1920.71 949.358 1920.34 949.084 1920.13C947.957 1919.29 947.732 1918.34 947.648 1917.92C947.137 1915.38 946.213 1911.7 944.598 1908.76C943.479 1906.71 942.145 1904.79 939.873 1905.24C936.571 1905.89 934.346 1907.27 932.862 1908.98C930.712 1911.46 930.051 1914.53 929.662 1916.77C929.597 1917.14 929.822 1917.57 930.021 1918.08C930.493 1919.25 931.25 1920.52 932.066 1921.74C934.217 1924.94 936.817 1927.77 936.817 1927.77C937.996 1929.04 938.045 1930.99 936.932 1932.31C935.819 1933.64 933.894 1933.93 932.438 1932.99C932.438 1932.99 927.458 1929.76 922.701 1927.68C921.367 1927.1 920.058 1926.61 918.904 1926.34C918.37 1926.22 917.915 1926.06 917.569 1926.17C916.141 1926.6 914.972 1928.05 914.109 1929.58C913.2 1931.19 912.517 1932.96 912.876 1934.19C913.164 1935.16 914.37 1936.4 915.634 1937.7C918.514 1940.64 922.125 1943.47 922.125 1943.47C923.326 1944.4 923.718 1946.04 923.067 1947.41C922.417 1948.79 920.9 1949.52 919.419 1949.18C919.419 1949.18 915.774 1948.33 912.031 1947.88C910.562 1947.72 909.079 1947.6 907.822 1947.66C907.226 1947.68 906.702 1947.61 906.405 1947.81C905.585 1948.36 905.22 1949.43 905.033 1950.49C904.809 1951.76 904.864 1953.12 905.335 1954.03C905.79 1954.92 907.481 1955.75 909.073 1956.62C911.759 1958.09 914.543 1959.23 914.543 1959.23L914.542 1959.23C914.617 1959.26 914.656 1959.27 914.656 1959.27C916.168 1959.96 916.857 1961.72 916.206 1963.25C915.554 1964.77 913.803 1965.5 912.265 1964.88C912.265 1964.88 911.852 1964.71 911.182 1964.43C909.95 1963.95 907.724 1963.2 905.574 1963.03C904.221 1962.94 902.724 1962.84 902.348 1964.28C901.745 1966.59 903.308 1968.65 905.201 1970.52C909.793 1975.07 917.18 1978.17 917.18 1978.17C918.528 1978.73 919.221 1980.23 918.773 1981.63C918.325 1983.02 916.887 1983.83 915.465 1983.5C915.465 1983.5 911.739 1982.6 908.275 1982.21C907.274 1982.09 905.946 1982.09 905.108 1982.11C905.024 1985.47 906.373 1987.55 908.311 1988.77C912.444 1991.38 918.44 1990.72 918.44 1990.72C919.85 1990.57 921.116 1991.59 921.267 1993C921.416 1994.42 920.393 1995.68 918.983 1995.83C918.983 1995.83 908.503 1996.82 903.108 1991.35C900.753 1988.96 899.201 1985.42 899.805 1980.09C899.967 1978.68 901.21 1977.22 903.576 1976.73C901.917 1975.44 900.366 1974.01 899.162 1972.48C896.86 1969.54 895.769 1966.23 896.619 1962.82C897.239 1960.33 898.671 1958.8 900.528 1957.92Z" fill="black"/>
</svg>
