<svg width="2160" height="2700" viewBox="0 0 2160 2700" fill="none" xmlns="http://www.w3.org/2000/svg">
<path fill-rule="evenodd" clip-rule="evenodd" d="M811.821 1448.85C811.821 1448.85 830.935 1596.76 859.536 1624.01C881.855 1645.27 949.881 1603.76 949.881 1603.76L1230.12 1609.88C1230.12 1609.88 1341.21 1614.7 1350.37 1593.44C1366.75 1555.42 1343.61 1388.99 1343.61 1388.99L1534.27 1453.12C1534.27 1453.12 1451.95 1606.3 1435.22 1647.29C1420.06 1684.42 1288.89 1707.8 1288.89 1707.8L1271.36 1963.05C1166.92 2051.15 1008 2026.68 937.604 1979.18L936.056 1724.32C936.83 1731.02 829.51 1720.46 795.764 1700.31C765.692 1682.34 631.945 1562.51 631.945 1562.51L811.821 1448.85Z" fill="#18815A" stroke="black" stroke-width="5.97663" stroke-miterlimit="1.5" stroke-linecap="square" stroke-linejoin="round"/>
<path fill-rule="evenodd" clip-rule="evenodd" d="M1358.79 1532.6L1356.63 1576.77C1378.44 1595.48 1434.94 1631.02 1457.48 1598.8L1476.17 1558.78C1446.9 1583.82 1388.29 1569.41 1358.79 1532.6Z" fill="#FFD635"/>
<path fill-rule="evenodd" clip-rule="evenodd" d="M1354.8 1588.7L1351.33 1598.87C1368.84 1619.98 1414.54 1654.79 1435.74 1639.77L1435.73 1613.94C1407.55 1625.16 1384.38 1616.39 1354.8 1588.7Z" fill="#FFD635"/>
<path fill-rule="evenodd" clip-rule="evenodd" d="M838.211 1587.48C842.721 1601.73 848.752 1614.5 856.499 1625.58C846.83 1650.86 814.322 1695.09 781.042 1684.57L753.909 1662.93C789.53 1664.66 830.319 1629.85 838.211 1587.48Z" fill="#FFD635"/>
<path fill-rule="evenodd" clip-rule="evenodd" d="M860.645 1629.31L865.594 1631.63C860.576 1656.26 851.416 1708.03 827.031 1709L807.915 1703.1C836.391 1695.6 848.573 1665.25 860.645 1629.31Z" fill="#FFD635"/>
<path fill-rule="evenodd" clip-rule="evenodd" d="M1283.01 1731.57L1280.72 1791.03C1265.36 1809.42 1226.75 1839.93 1206.82 1846.28C1187.54 1852.42 1161.16 1829.11 1161.16 1829.11C1214.86 1799.39 1253.47 1766.45 1283.01 1731.57Z" fill="#FFD635"/>
<path fill-rule="evenodd" clip-rule="evenodd" d="M1277.16 1824.03L1279.6 1872.13L1207.53 1926.86L1162.77 1914.4C1210.59 1894.18 1252.93 1856.9 1277.16 1824.03Z" fill="#FFD635"/>
<path fill-rule="evenodd" clip-rule="evenodd" d="M941.663 1736.72L943.382 1804.09C961.884 1827.51 985.498 1842.51 1013.66 1850.04L1063.52 1835.67C1017.63 1811.24 976.163 1779.65 941.663 1736.72Z" fill="#FFD635"/>
<path fill-rule="evenodd" clip-rule="evenodd" d="M939.681 1826.26L943.545 1884.32C943.545 1884.32 979.185 1921.59 999.387 1927.85C1019.59 1934.1 1064.74 1921.85 1064.74 1921.85C1014.32 1895.1 972.184 1863.5 939.681 1826.26Z" fill="#FFD635"/>
<path fill-rule="evenodd" clip-rule="evenodd" d="M1100.58 1805.98L1120.81 1804.92L1122.85 2011.32L1110.72 2018.69L1100.58 1805.98Z" fill="#FFD635"/>
<path fill-rule="evenodd" clip-rule="evenodd" d="M1059.88 1994.91L1107.46 1959.51C1050.21 1947.48 1039.97 1933.71 1034.16 1903.21C1067.01 1912.17 1126.51 1904.21 1187.67 1895.2C1111.04 1877.48 1053.36 1859.41 1038.91 1840.54L1126.74 1849.92C1104.52 1817.79 1209.52 1804.08 1236.54 1761.1L1374.25 1623.39L1440.58 1422.03L1346.22 1404.14L1352.88 1588.59L990.705 1735L901.36 1625.36L865.622 1637.77C865.622 1637.77 853.504 1683.58 829.639 1669.66C805.775 1655.73 722.819 1541.8 722.819 1541.8L667.031 1586.51C686.996 1610.56 737.856 1668.54 802.181 1700.41C844.313 1721.28 895.425 1722.71 936.242 1724.8L941.208 1896.52C968.48 1937.48 1011.67 1975.31 1059.88 1994.91Z" fill="black" fill-opacity="0.3"/>
<path d="M758.537 1533.92L722.77 1543.23L845.939 2016.61L881.707 2007.31L758.537 1533.92Z" fill="#1D9A6C" stroke="white" stroke-width="8.84982" stroke-miterlimit="1.5" stroke-linecap="round" stroke-linejoin="round"/>
<path d="M1468.33 1411.35L1431.52 1408.05L1387.79 1895.49L1424.6 1898.8L1468.33 1411.35Z" fill="#1D9A6C" stroke="white" stroke-width="8.85215" stroke-miterlimit="1.5" stroke-linecap="round" stroke-linejoin="round"/>
<path fill-rule="evenodd" clip-rule="evenodd" d="M1335.95 1791.03C1335.95 1791.03 1195.85 1997.82 1120.57 2004.56C1045.28 2011.3 884.248 1831.5 884.248 1831.5L885.136 2034.75C955.906 2059.82 1030.75 2090.31 1113.77 2087.34C1179.83 2084.98 1251.87 2054.18 1325.39 2034.75L1335.95 1791.03Z" fill="#00A8E4" stroke="black" stroke-width="7.0775" stroke-miterlimit="1.5" stroke-linecap="square" stroke-linejoin="round"/>
<path fill-rule="evenodd" clip-rule="evenodd" d="M1099.14 1817.64C1137.06 1819.37 1215.43 1759.15 1217.15 1721.24C1220.02 1658.29 1173.1 1561.23 1110.26 1559.83C1016.26 1557.72 983.477 1641.34 982.442 1707C981.844 1744.94 1061.21 1815.9 1099.14 1817.64Z" fill="#994662" stroke="black" stroke-width="7.24531" stroke-miterlimit="1.5" stroke-linecap="round" stroke-linejoin="round"/>
<path fill-rule="evenodd" clip-rule="evenodd" d="M1010.58 1744.16C1004.92 1731.03 999.593 1684.68 1022 1675.36C1027.51 1673.07 1158.35 1706.92 1178.51 1717.22C1192.28 1724.26 1186.96 1752.59 1176.13 1763.66C1162.64 1777.46 1104.07 1800.43 1097.16 1799.46C1090.26 1798.48 1017.64 1760.52 1010.58 1744.16Z" fill="#FF050B" stroke="black" stroke-width="7.25379" stroke-miterlimit="1.5" stroke-linecap="round" stroke-linejoin="round"/>
<path fill-rule="evenodd" clip-rule="evenodd" d="M1009.7 1737.46C1016.6 1749.43 1022.82 1751.69 1028.61 1747.59C1035.76 1760.41 1042.82 1764.83 1049.76 1759.05C1054.63 1771.7 1059.83 1769.76 1067.51 1761.83C1071.26 1783.81 1092.31 1786.92 1096.32 1773.1C1097.82 1784.59 1109.5 1792.97 1120.33 1775.02C1124.63 1779.06 1130.07 1781 1137.55 1769.59C1143.25 1776.89 1147.41 1778 1151.92 1766C1154.62 1769.71 1160.35 1768.91 1171.6 1759.88L1186.48 1740.14C1140.41 1745.93 1082.1 1742.77 1036.22 1726.09C1026.1 1722.41 1016.58 1718.07 1007.93 1713.03C1002.09 1721.53 1009.7 1737.46 1009.7 1737.46Z" fill="white" stroke="black" stroke-width="5.31049" stroke-miterlimit="1.5" stroke-linecap="round" stroke-linejoin="round"/>
<path fill-rule="evenodd" clip-rule="evenodd" d="M1006.16 1709.33C1004.98 1709.02 1011.49 1715.4 1018.69 1719.31C1026.02 1723.3 1034.07 1725.23 1034.74 1725.04L1045.32 1748.09L1061.06 1733.73C1088.52 1743.66 1116.24 1742.27 1144.96 1745.17L1143.63 1761.87L1161.11 1746.79C1161.11 1746.79 1176.07 1744.87 1181.72 1744.24C1186.48 1735.86 1204.19 1729 1182.96 1721.27L1170.04 1726.16C1171.65 1707.51 1157.32 1717.03 1149.02 1723.54C1146.14 1715.03 1141.5 1714.75 1131.48 1719.47C1127.57 1710.21 1118.87 1709.63 1106.81 1715.18C1097.72 1704.41 1089.39 1704.57 1081.48 1710.78C1073.61 1702.24 1067.94 1702.16 1063.72 1707.7C1055.93 1694.79 1047.98 1693.66 1039.9 1703.56L1024.95 1693.82C1016.26 1692.08 1013.55 1696.42 1006.16 1709.33Z" fill="white" stroke="black" stroke-width="6.19427" stroke-miterlimit="1.5" stroke-linecap="round" stroke-linejoin="round"/>
<path fill-rule="evenodd" clip-rule="evenodd" d="M1097.13 1680.31L1109.7 1691.63L1125.01 1685.46L1097.13 1680.31Z" stroke="black" stroke-width="7.25379" stroke-miterlimit="1.5" stroke-linecap="round" stroke-linejoin="round"/>
<path fill-rule="evenodd" clip-rule="evenodd" d="M791.895 1371.19C791.895 1371.19 715.689 1293.92 690.415 1301.8C665.15 1309.68 657.038 1337.05 640.371 1351.66C627.936 1362.56 621.895 1354.71 601.915 1374.74C592.156 1384.52 586.54 1403.79 577.933 1414.9C565.803 1430.53 556.741 1446.35 556.158 1459.17C554.303 1499.92 612.189 1575.94 633.64 1592.57C646.712 1602.71 684.966 1583.31 684.86 1558.96C717.577 1562.95 731.99 1551.82 731.498 1528.35C731.498 1528.35 762.639 1552.52 780.013 1545.31C799.996 1537.01 851.428 1478.55 851.428 1478.55C851.428 1478.55 882.908 1447.44 862.367 1417.35C855.479 1407.26 819.876 1400.79 819.876 1400.79L791.895 1371.19Z" fill="#994662" stroke="black" stroke-width="8.70831" stroke-miterlimit="1.5" stroke-linecap="square" stroke-linejoin="round"/>
<path d="M736.162 1521.3L796.828 1443.25C796.828 1443.25 804.782 1423.44 799.986 1415.44C791.015 1400.46 742.978 1353.4 742.978 1353.4" stroke="black" stroke-width="8.85027" stroke-miterlimit="1.5" stroke-linecap="square" stroke-linejoin="round"/>
<path d="M798.653 1421.65C798.653 1421.65 770.889 1388.01 759.258 1389.95C752.362 1391.11 738.247 1417.66 734.578 1433.34C732.771 1441.07 736.585 1447.93 736.585 1447.93" stroke="black" stroke-width="7" stroke-miterlimit="1.5" stroke-linecap="square" stroke-linejoin="round"/>
<path d="M788.575 1528.82C796.62 1521.5 797.255 1509.09 789.992 1501.11C782.729 1493.12 770.319 1492.58 762.274 1499.9C754.229 1507.22 753.595 1519.62 760.858 1527.61C768.12 1535.59 780.53 1536.13 788.575 1528.82Z" fill="black" fill-opacity="0.3" stroke="black" stroke-width="8.77963" stroke-miterlimit="1.5" stroke-linecap="round" stroke-linejoin="round"/>
<path d="M675.536 1352.7C660.409 1374.94 722.354 1441 747.113 1458.79C756.758 1465.72 786.084 1460.99 784.649 1458.36L765.851 1471.93C765.851 1471.93 736 1454.68 723.943 1458.02C711.887 1461.36 688.421 1469.45 694.725 1500.74C697.534 1514.71 734.161 1520.12 734.161 1520.12" stroke="black" stroke-width="8.85027" stroke-miterlimit="1.5" stroke-linecap="round" stroke-linejoin="round"/>
<path d="M632.465 1507.4L679.35 1558.68C674.904 1542.72 682.165 1525.87 698.189 1514.98C699.643 1513.99 644.063 1439 644.063 1439" stroke="black" stroke-width="8.85027" stroke-miterlimit="1.5" stroke-linecap="round" stroke-linejoin="round"/>
<path fill-rule="evenodd" clip-rule="evenodd" d="M688.173 1472.04L713.093 1455.42L673.368 1391.48L675.227 1349.65L734.916 1419.77L759.541 1390.65L816.158 1430.83C789.944 1478.07 793.648 1499.62 822.395 1499.66L772.169 1573.6C757.197 1614.95 770.62 1693.43 784.744 1772.81C784.744 1772.81 727.756 1544.3 722.597 1547.99C710.541 1556.62 687.506 1573.2 668.088 1587.69C653.674 1598.44 632.101 1591.18 629.972 1586.73C623.998 1574.21 561.562 1495.14 561.562 1495.14C563.036 1447.3 576.332 1407.7 603.307 1377.66L651.606 1347.13C646.063 1354.51 600.337 1409.35 605.543 1424.74C619.957 1467.37 662.39 1520.23 676.857 1508.67C682.65 1504.05 626.658 1425.51 630.578 1423.08C642.123 1415.94 688.173 1472.04 688.173 1472.04Z" fill="black" fill-opacity="0.3"/>
<path fill-rule="evenodd" clip-rule="evenodd" d="M1575.07 1325.4L1554.71 1308.55L1538.72 1274.62L1476.22 1240.99C1469.43 1181.12 1444.12 1189.66 1418.82 1198.18L1358.89 1294.42L1331.89 1306.64C1331.89 1306.64 1297.16 1338.17 1309.56 1355.99C1322.73 1374.9 1354.85 1416.32 1410.86 1420.1C1414.19 1423.96 1437.79 1409.12 1440.83 1410.15C1450.21 1413.32 1465.87 1419.74 1465.03 1434.36C1464.09 1450.46 1468.43 1467.92 1485.99 1466.17L1567.39 1433.92L1575.07 1325.4Z" fill="#994662" stroke="black" stroke-width="8.8153" stroke-miterlimit="1.5" stroke-linecap="square" stroke-linejoin="round"/>
<path fill-rule="evenodd" clip-rule="evenodd" d="M1455.29 1416.04C1455.29 1416.04 1424.11 1369.49 1449.53 1331.93C1456.41 1321.76 1455.24 1280.73 1455.24 1280.73C1439.5 1284.38 1416.99 1263.63 1407.38 1251.89L1396.35 1242.99L1362.52 1293.83L1418.97 1286.67L1440.56 1307.61C1422.76 1333.28 1397.18 1338.31 1366.71 1330.4L1334.14 1333.82L1307.19 1348.03C1320.19 1388.06 1374.64 1421.13 1427.35 1419.19L1408.21 1724.33L1455.29 1416.04Z" fill="black" fill-opacity="0.3"/>
<path d="M1448.37 1248.43C1459.19 1248.43 1467.96 1244.28 1467.96 1239.15C1467.96 1234.03 1459.19 1229.88 1448.37 1229.88C1437.55 1229.88 1428.78 1234.03 1428.78 1239.15C1428.78 1244.28 1437.55 1248.43 1448.37 1248.43Z" fill="black" fill-opacity="0.3" stroke="black" stroke-width="8.84428" stroke-miterlimit="1.5" stroke-linecap="round" stroke-linejoin="round"/>
<path d="M1450.64 1397.29C1460.85 1397.29 1469.12 1389.18 1469.12 1379.18C1469.12 1369.17 1460.85 1361.06 1450.64 1361.06C1440.43 1361.06 1432.16 1369.17 1432.16 1379.18C1432.16 1389.18 1440.43 1397.29 1450.64 1397.29Z" fill="black" fill-opacity="0.3" stroke="black" stroke-width="8.84428" stroke-miterlimit="1.5" stroke-linecap="round" stroke-linejoin="round"/>
<path d="M1481.11 1428.33C1488.76 1428.33 1494.97 1422.93 1494.97 1416.26C1494.97 1409.6 1488.76 1404.2 1481.11 1404.2C1473.45 1404.2 1467.24 1409.6 1467.24 1416.26C1467.24 1422.93 1473.45 1428.33 1481.11 1428.33Z" fill="black" fill-opacity="0.3" stroke="black" stroke-width="8.84428" stroke-miterlimit="1.5" stroke-linecap="round" stroke-linejoin="round"/>
<path d="M1490.77 1460.28C1498.81 1460.28 1505.33 1455.33 1505.33 1449.23C1505.33 1443.12 1498.81 1438.17 1490.77 1438.17C1482.72 1438.17 1476.2 1443.12 1476.2 1449.23C1476.2 1455.33 1482.72 1460.28 1490.77 1460.28Z" fill="black" fill-opacity="0.3" stroke="black" stroke-width="8.71439" stroke-miterlimit="1.5" stroke-linecap="round" stroke-linejoin="round"/>
<path d="M1360.22 1297.39C1360.22 1297.39 1412.19 1284.75 1424.88 1289.86C1437.36 1294.89 1444.82 1318.14 1436.31 1328.08C1425.53 1340.69 1370.64 1364.11 1370.64 1364.11" stroke="black" stroke-width="8.84428" stroke-miterlimit="1.5" stroke-linecap="round" stroke-linejoin="round"/>
<path d="M1393.26 1340.89C1402.1 1340.89 1409.26 1331.8 1409.26 1320.59C1409.26 1309.38 1402.1 1300.29 1393.26 1300.29C1384.42 1300.29 1377.26 1309.38 1377.26 1320.59C1377.26 1331.8 1384.42 1340.89 1393.26 1340.89Z" fill="black" fill-opacity="0.3" stroke="black" stroke-width="8.84428" stroke-miterlimit="1.5" stroke-linecap="round" stroke-linejoin="round"/>
<path d="M1401.95 1232.34C1401.95 1232.34 1405.83 1268.06 1412.43 1278.35C1419.04 1288.63 1441.57 1294.11 1441.57 1294.11L1476.03 1255.25L1478.28 1248.72" stroke="black" stroke-width="8.84428" stroke-miterlimit="1.5" stroke-linecap="round" stroke-linejoin="round"/>
<path d="M1450.54 1283.99L1437.36 1328.52L1419.94 1360.86C1419.94 1360.86 1418.87 1402.99 1430.24 1406.09C1458.67 1413.86 1499.56 1345.17 1499.56 1345.17L1514.01 1290.33" stroke="black" stroke-width="8.84428" stroke-miterlimit="1.5" stroke-linecap="round" stroke-linejoin="round"/>
<path d="M1462.6 1393.69C1462.6 1393.69 1450.44 1422.41 1457.71 1430.1C1461.34 1433.93 1479.6 1429.37 1490.47 1425.61C1494.32 1424.29 1525.88 1393.71 1544.83 1375.7C1555.06 1365.97 1555.4 1352.05 1555.4 1352.05" stroke="black" stroke-width="8.84428" stroke-miterlimit="1.5" stroke-linecap="round" stroke-linejoin="round"/>
<path fill-rule="evenodd" clip-rule="evenodd" d="M877.988 1801.2C931.625 1799.98 968.94 1881.92 968.94 1955.86C968.94 1997.28 973.007 2036.45 973.594 2071.42C973.894 2089.45 777.194 1967.93 775.042 1953.84C763.893 1880.74 832.282 1802.23 877.988 1801.2Z" fill="#00A8E4" stroke="black" stroke-width="11.5063" stroke-miterlimit="1.5" stroke-linecap="square" stroke-linejoin="round"/>
<path fill-rule="evenodd" clip-rule="evenodd" d="M875.381 1804.88C922.144 1791.63 944.944 1853.83 958.404 1915.97C970.723 1972.86 914.24 1896.23 865.631 1896.23C817.026 1896.23 768.448 1966.38 782.544 1909.9C797.219 1851.11 845.724 1813.28 875.381 1804.88Z" fill="#FFD635"/>
<path fill-rule="evenodd" clip-rule="evenodd" d="M895.334 1803.85C895.334 1803.85 834.792 1826.5 850.184 1840.42C865.578 1854.34 887.069 1871.57 887.069 1871.57L850.184 1888.35L871.308 1904.14L849.578 1941.96L882.017 1959.9L876.276 2007.08C831.304 1994.66 801.6 1957.77 774.092 1916.03C815.914 1825.85 856.035 1799.44 895.334 1803.85Z" fill="black" fill-opacity="0.3"/>
<path fill-rule="evenodd" clip-rule="evenodd" d="M1345.1 1771.31C1398.72 1772.94 1459.48 1864.45 1454.16 1914.08C1452.6 1928.68 1308.79 2054.3 1298.62 2043.43C1275.15 2018.32 1260.6 1978.43 1261.96 1933.98C1264.21 1860.07 1291.47 1769.68 1345.1 1771.31Z" fill="#00A8E4" stroke="black" stroke-width="7.07749" stroke-miterlimit="1.5" stroke-linecap="square" stroke-linejoin="round"/>
<path fill-rule="evenodd" clip-rule="evenodd" d="M1355.5 1779.67C1308.74 1766.43 1285.94 1828.63 1272.48 1890.77C1260.16 1947.66 1316.64 1871.03 1365.25 1871.03C1413.86 1871.03 1462.44 1941.17 1448.34 1884.7C1433.66 1825.91 1385.16 1788.07 1355.5 1779.67Z" fill="#FFD635"/>
<path fill-rule="evenodd" clip-rule="evenodd" d="M1319.28 1778.61C1299.79 1813.46 1286.04 1847.69 1300.22 1878.85L1327.69 1883.21L1285.69 1917.87L1336.39 1906.49L1323.34 1938.49L1343.27 1962.03L1331.39 2007.2C1288.46 2039.34 1242.57 2061.71 1192.53 2072.24C1147.15 2082.95 1018.42 2071.96 985.508 2066.92C985.508 2066.92 1000.96 2047.7 1032.01 2048.35C1063.27 2049.01 1121.36 2055.3 1101.48 2014.4C1107.23 1998.21 1119.45 2003.47 1141.56 1995.72L1265.33 1890.16C1280.94 1830.34 1300.18 1785.31 1319.28 1778.61Z" fill="black" fill-opacity="0.3"/>
<path fill-rule="evenodd" clip-rule="evenodd" d="M1064.91 1449.17C1064.91 1449.17 1035.23 1549.45 1017.85 1602.58C1000.47 1655.7 980.479 1736.19 980.479 1736.19C980.479 1736.19 953.151 1728.87 934.608 1702.71C929.586 1695.62 930.946 1678.4 926.775 1670.08C918.801 1654.18 907.4 1635.2 905.411 1617.78C903.319 1599.43 910.952 1582.73 915.015 1570.31C920.121 1554.7 986.769 1462.04 986.769 1462.04L1064.91 1449.17Z" fill="#1D9A6C" stroke="black" stroke-width="7.43402" stroke-miterlimit="1.5" stroke-linecap="round" stroke-linejoin="round"/>
<path d="M930.68 1673.73L1005.63 1462.48" stroke="black" stroke-width="4.48396" stroke-miterlimit="1.5" stroke-linejoin="round"/>
<path d="M968.999 1667.8L955.289 1717.18" stroke="#FFD635" stroke-width="4.48396" stroke-miterlimit="1.5" stroke-linejoin="round"/>
<path d="M956.62 1658.3L943.488 1705.49" stroke="#FFD635" stroke-width="4.48396" stroke-miterlimit="1.5" stroke-linejoin="round"/>
<path fill-rule="evenodd" clip-rule="evenodd" d="M1244.27 1496.79C1244.27 1496.79 1203.49 1575.19 1206.01 1630.97C1208.52 1686.76 1206.23 1769.61 1206.23 1769.61C1206.23 1769.61 1241.07 1772.38 1268.69 1746.63C1272.2 1743.37 1272.43 1723.63 1275.73 1719.98C1286.83 1707.68 1303.74 1698.87 1310.26 1683.74C1318.14 1665.45 1317.03 1642.15 1316.4 1628.25C1315.73 1613.29 1308.45 1535.05 1308.45 1535.05L1244.27 1496.79Z" fill="#1D9A6C" stroke="black" stroke-width="7.43396" stroke-miterlimit="1.5" stroke-linecap="round" stroke-linejoin="round"/>
<path d="M1274.04 1718.33L1268.13 1513.53" stroke="black" stroke-width="4.48396" stroke-miterlimit="1.5" stroke-linejoin="round"/>
<path fill-rule="evenodd" clip-rule="evenodd" d="M1132.95 1486.32C1128.03 1492.41 1121.41 1492.28 1118.17 1486.03C1114.93 1479.79 1116.29 1469.78 1121.21 1463.69C1121.21 1463.69 1170.29 1403.25 1180.12 1385.62C1195.95 1357.21 1213.16 1288.88 1203.92 1264.84C1200.68 1256.39 1193.53 1251.97 1185.85 1248.07C1176.04 1243.08 1143.9 1221.67 1135.27 1217C1118.09 1207.7 1109.54 1192.49 1116.6 1167.03C1119.08 1158.11 1096.54 880.376 1096.54 880.376C1102.2 876.402 1121.04 876.468 1115.38 880.442C1115.38 880.442 1139.55 1152.68 1138.88 1178.95C1138.27 1202.62 1188.93 1210.02 1197.99 1216.61C1205.31 1221.94 1221.82 1238.94 1225.32 1248.05C1238.39 1282.04 1217.9 1362.63 1195.52 1402.79C1185.05 1421.58 1132.95 1486.32 1132.95 1486.32Z" fill="#1D9A6C" stroke="#F4EC62" stroke-width="7.76096" stroke-miterlimit="2" stroke-linejoin="round"/>
<path d="M1207.81 1455.2C1211.61 1428.73 1200.27 1404.03 1182.5 1400.04C1164.73 1396.05 1147.25 1414.28 1143.45 1440.75C1139.66 1467.22 1150.99 1491.91 1168.76 1495.9C1186.53 1499.89 1204.02 1481.67 1207.81 1455.2Z" fill="#1D9A6C" stroke="black" stroke-width="4.79714" stroke-miterlimit="1.5" stroke-linecap="round" stroke-linejoin="round"/>
<path d="M1214.76 1484.95C1218.56 1458.48 1200.94 1432.37 1175.42 1426.64C1149.89 1420.91 1126.13 1437.72 1122.33 1464.19C1118.54 1490.66 1136.15 1516.77 1161.68 1522.5C1187.2 1528.23 1210.97 1511.42 1214.76 1484.95Z" fill="#1D9A6C" stroke="black" stroke-width="5.74893" stroke-miterlimit="1.5" stroke-linecap="round" stroke-linejoin="round"/>
<path fill-rule="evenodd" clip-rule="evenodd" d="M1098.33 1483.21C1121.97 1464.47 1145.84 1466.13 1169.47 1462.29C1198.73 1475.46 1217.72 1484.8 1228.38 1512.41L1156.49 1545.74L1098.33 1483.21Z" fill="#1D9A6C" stroke="black" stroke-width="6.81959" stroke-miterlimit="1.5" stroke-linecap="round" stroke-linejoin="round"/>
<path fill-rule="evenodd" clip-rule="evenodd" d="M1147.03 1464.5C1152.85 1470.16 1161.37 1469.03 1166.03 1461.96C1170.7 1454.9 1171.22 1437.99 1165.4 1432.33C1165.4 1432.33 1146.92 1354.63 1140.13 1329.24C1129.61 1289.87 1108.01 1252.48 1124.67 1228.29C1140.88 1204.74 1198.98 1143.71 1197.97 1098.91C1197.56 1080.91 1170.16 1039.75 1171.13 1010.74C1173.38 943.378 1148.4 853.33 1148.4 853.33C1148.4 853.33 1121.74 866.934 1128.68 870.261C1128.68 870.261 1146.37 969.5 1152.06 1022.37C1156.29 1061.74 1174.37 1094.05 1174.94 1102.66C1176.91 1132.69 1127.72 1185.36 1108.02 1209.64C1082.23 1241.39 1108.22 1296.3 1123.59 1342.68C1135.89 1379.76 1147.03 1464.5 1147.03 1464.5Z" fill="#1D9A6C" stroke="black" stroke-width="7.90369" stroke-miterlimit="2" stroke-linejoin="round"/>
<path fill-rule="evenodd" clip-rule="evenodd" d="M1077.45 1464.58C1082.3 1471.48 1090.84 1472.33 1096.5 1466.46C1102.17 1460.59 1105.27 1444.11 1100.41 1437.21C1100.41 1437.21 1094.15 1356.64 1091.37 1330.14C1087.06 1289.05 1071.56 1247.36 1091.63 1227.42C1111.15 1208.02 1177.56 1161.42 1183.43 1117.18C1185.78 1099.41 1169.65 1053.42 1170.55 1024.41C1172.04 976.364 1166.26 857.833 1166.26 857.833C1166.26 857.833 1137.01 854.249 1143.32 859.111C1143.32 859.111 1152.54 978.21 1150.04 1031.45C1148.17 1071.09 1160.99 1106.99 1160.23 1115.58C1157.57 1145.53 1101.2 1185.96 1078.12 1205.28C1047.93 1230.55 1065.06 1290.45 1073.07 1339.54C1079.47 1378.79 1077.45 1464.58 1077.45 1464.58Z" fill="#1D9A6C" stroke="#D50409" stroke-width="7.8777" stroke-miterlimit="2" stroke-linejoin="round"/>
<path fill-rule="evenodd" clip-rule="evenodd" d="M1042.56 878C1047.58 871.282 1059.64 866.857 1065.15 872.921C1070.67 878.996 1094.87 1007.24 1091.44 1033.62C1086.12 1074.52 1066.3 1119.18 1085.87 1139.85C1104.91 1159.96 1170.15 1208.98 1174.92 1253.42C1176.84 1271.27 1155.09 1317.21 1159.78 1345.67C1170.68 1411.75 1189 1474.78 1189 1474.78C1189 1474.78 1160.92 1466.51 1167.34 1461.88C1167.34 1461.88 1140.65 1391.19 1139.45 1337.88C1138.56 1298.19 1152.24 1262.78 1151.69 1254.17C1149.77 1224.13 1094.41 1181.64 1071.83 1161.49C1042.27 1135.12 1067.85 1062.69 1070.06 1027.1C1072.54 987.18 1042.56 878 1042.56 878Z" fill="#1D9A6C" stroke="#D50409" stroke-width="7.88112" stroke-miterlimit="2" stroke-linejoin="round"/>
<path fill-rule="evenodd" clip-rule="evenodd" d="M1156.82 1433.07C1153.2 1440.57 1144.97 1443.29 1138.44 1439.13C1131.92 1434.97 1129.56 1425.52 1133.17 1418.02C1133.17 1418.02 1169.38 1343.46 1174.4 1323.63C1182.47 1291.68 1173.07 1213.39 1151.94 1196.01C1144.5 1189.9 1133.89 1189.04 1122.83 1188.85C1108.7 1188.62 1093.8 1190.21 1081.24 1189.75C1056.25 1188.84 1036.48 1185.72 1034.91 1160.12C1034.37 1151.15 1043.17 1139.63 1051.24 1126.02C1057.37 1115.7 1084.2 1085.07 1104.45 1045.27C1132.34 990.45 1102.5 888.476 1102.5 888.476C1108.39 875.238 1126.35 886.433 1125.98 891.74C1125.98 891.74 1152.02 1002.74 1125.16 1053.11C1102.87 1094.89 1074.84 1131.27 1069.24 1141.66C1051.79 1174.06 1083.27 1165.62 1091.34 1165.34C1105.72 1164.84 1121.45 1163.65 1135.31 1165.63C1146.51 1167.22 1156.6 1170.9 1164.61 1177.48C1194.49 1202.05 1205.41 1288.12 1193.99 1333.3C1188.65 1354.43 1156.82 1433.07 1156.82 1433.07Z" fill="#1D9A6C" stroke="#FCFAD8" stroke-width="7.62345" stroke-miterlimit="2" stroke-linejoin="round"/>
<path fill-rule="evenodd" clip-rule="evenodd" d="M1156.82 1433.07C1153.2 1440.57 1144.97 1443.29 1138.44 1439.13C1131.92 1434.97 1129.56 1425.52 1133.17 1418.02C1133.17 1418.02 1169.38 1343.46 1174.4 1323.63C1182.47 1291.68 1173.07 1213.39 1151.94 1196.01C1144.5 1189.9 1133.89 1189.04 1122.83 1188.85C1108.7 1188.62 1093.8 1190.21 1081.24 1189.75C1056.25 1188.84 1036.48 1185.72 1034.91 1160.12C1034.37 1151.15 1043.17 1139.63 1051.24 1126.02C1057.37 1115.7 1084.2 1085.07 1104.45 1045.27C1132.34 990.45 1102.5 888.476 1102.5 888.476C1108.39 875.238 1126.35 886.433 1125.98 891.74C1125.98 891.74 1152.02 1002.74 1125.16 1053.11C1102.87 1094.89 1074.84 1131.27 1069.24 1141.66C1051.79 1174.06 1083.27 1165.62 1091.34 1165.34C1105.72 1164.84 1121.45 1163.65 1135.31 1165.63C1146.51 1167.22 1156.6 1170.9 1164.61 1177.48C1194.49 1202.05 1205.41 1288.12 1193.99 1333.3C1188.65 1354.43 1156.82 1433.07 1156.82 1433.07Z" fill="#1D9A6C" stroke="#FCFAD8" stroke-width="7.62345" stroke-miterlimit="2" stroke-linejoin="round"/>
<path d="M1180.45 1433.57C1184.46 1407.89 1172.48 1383.94 1153.7 1380.07C1134.91 1376.2 1116.43 1393.87 1112.42 1419.55C1108.41 1445.23 1120.39 1469.19 1139.17 1473.06C1157.96 1476.93 1176.44 1459.25 1180.45 1433.57Z" fill="#1D9A6C" stroke="black" stroke-width="4.85317" stroke-miterlimit="1.5" stroke-linecap="round" stroke-linejoin="round"/>
<path d="M1187.79 1462.43C1191.8 1436.75 1173.18 1411.43 1146.2 1405.87C1119.22 1400.31 1094.1 1416.62 1090.09 1442.3C1086.08 1467.98 1104.7 1493.3 1131.68 1498.86C1158.66 1504.42 1183.78 1488.11 1187.79 1462.43Z" fill="#1D9A6C" stroke="black" stroke-width="5.81608" stroke-miterlimit="1.5" stroke-linecap="round" stroke-linejoin="round"/>
<path fill-rule="evenodd" clip-rule="evenodd" d="M1144.93 1412.19L1145.52 1431.48L1167.8 1442.31L1174.51 1431.07L1144.93 1412.19Z" fill="white" fill-opacity="0.3"/>
<path fill-rule="evenodd" clip-rule="evenodd" d="M1158.54 1388.96L1153.27 1398.45L1170.74 1408.52L1167.18 1394.26L1158.54 1388.96Z" fill="white" fill-opacity="0.3"/>
<path fill-rule="evenodd" clip-rule="evenodd" d="M1064.72 1460.74C1089.71 1442.57 1114.94 1444.18 1139.92 1440.45C1170.85 1453.23 1190.93 1462.29 1202.2 1489.07L1126.2 1521.4L1064.72 1460.74Z" fill="#1D9A6C" stroke="black" stroke-width="6.89924" stroke-miterlimit="1.5" stroke-linecap="round" stroke-linejoin="round"/>
<path fill-rule="evenodd" clip-rule="evenodd" d="M1102.58 1452.37C1101.68 1458.58 1078.96 1452.64 1079.85 1446.43C1079.85 1446.43 1099.05 1373.21 1101.75 1358.46C1106.76 1331.16 1106.72 1309.86 1086.04 1302.46C1057.93 1292.42 1045.64 1270.19 1046.42 1247.86C1047.24 1224.11 1077.25 1192.48 1091.23 1135.71C1105.53 1077.64 1064.3 862.151 1064.3 862.151C1066.65 856.804 1086.52 853.821 1084.15 859.17C1084.15 859.17 1128.95 1075.21 1114.41 1139.93C1102.43 1193.27 1067.36 1237.12 1067.67 1251.78C1068.1 1272.47 1081.53 1274.99 1095.61 1280.79C1137.65 1298.1 1127.75 1336.95 1121.45 1369.58C1118.29 1385.99 1102.58 1452.37 1102.58 1452.37Z" fill="#1D9A6C" stroke="#54C5ED" stroke-width="6.93423" stroke-miterlimit="2" stroke-linejoin="round"/>
<path d="M1124.4 1462.05C1122.64 1439.63 1105.79 1422.65 1086.76 1424.11C1067.73 1425.58 1053.73 1444.94 1055.5 1467.36C1057.26 1489.77 1074.11 1506.76 1093.14 1505.29C1112.17 1503.82 1126.17 1484.46 1124.4 1462.05Z" fill="#1D9A6C" stroke="black" stroke-width="4.50283" stroke-miterlimit="1.5" stroke-linecap="round" stroke-linejoin="round"/>
<path d="M1137.85 1484.28C1136.09 1461.86 1112.51 1445.4 1085.18 1447.5C1057.85 1449.61 1037.13 1469.49 1038.89 1491.9C1040.65 1514.32 1064.24 1530.78 1091.56 1528.68C1118.89 1526.57 1139.62 1506.69 1137.85 1484.28Z" fill="#1D9A6C" stroke="black" stroke-width="5.39623" stroke-miterlimit="1.5" stroke-linecap="round" stroke-linejoin="round"/>
<path fill-rule="evenodd" clip-rule="evenodd" d="M1018.39 1513.62C1038.58 1492.22 1063.34 1487.26 1086.69 1477.91C1119.44 1480.84 1140.85 1483.38 1157.64 1502.9L1091.21 1548.85L1018.39 1513.62Z" fill="#1D9A6C" stroke="black" stroke-width="6.4012" stroke-miterlimit="1.5" stroke-linecap="round" stroke-linejoin="round"/>
<path fill-rule="evenodd" clip-rule="evenodd" d="M1217.12 1493.46C1210.95 1498.92 1202.31 1498.3 1197.84 1492.06C1193.36 1485.83 1193.51 1470.41 1199.69 1464.96C1199.69 1464.96 1221.68 1393.05 1229.63 1369.51C1241.96 1333.03 1265.52 1297.81 1249.5 1276.5C1233.92 1255.77 1177.12 1202.83 1179.96 1161.83C1181.1 1145.36 1210.73 1106.42 1210.91 1079.95C1211.35 1018.5 1157.77 870.051 1157.77 870.051C1163.42 862.021 1171.45 857.688 1184.15 865.759C1184.15 865.759 1237.84 1041.06 1229.9 1089.65C1223.98 1125.84 1204.23 1156.25 1203.31 1164.14C1200.07 1191.68 1248.12 1237.43 1267.24 1258.65C1292.26 1286.42 1263.53 1337.86 1245.96 1380.99C1231.92 1415.48 1217.12 1493.46 1217.12 1493.46Z" fill="#1D9A6C" stroke="#B2DDCD" stroke-width="7.58836" stroke-miterlimit="2" stroke-linejoin="round"/>
<path d="M1238.45 1503.62C1250.64 1484.65 1247.47 1461.05 1231.37 1450.91C1215.26 1440.77 1192.32 1447.93 1180.13 1466.9C1167.94 1485.87 1171.11 1509.47 1187.22 1519.61C1203.32 1529.75 1226.26 1522.59 1238.45 1503.62Z" fill="#1D9A6C" stroke="black" stroke-width="4.50286" stroke-miterlimit="1.5" stroke-linecap="round" stroke-linejoin="round"/>
<path d="M1235.71 1529.39C1247.91 1510.42 1239.04 1483.24 1215.91 1468.67C1192.79 1454.11 1164.15 1457.68 1151.96 1476.65C1139.77 1495.62 1148.64 1522.81 1171.76 1537.37C1194.89 1551.94 1223.52 1548.36 1235.71 1529.39Z" fill="#1D9A6C" stroke="black" stroke-width="5.39626" stroke-miterlimit="1.5" stroke-linecap="round" stroke-linejoin="round"/>
<path fill-rule="evenodd" clip-rule="evenodd" d="M1122.39 1481.83C1151.52 1476.72 1174.33 1487.48 1198.67 1493.89C1223.08 1515.69 1238.66 1530.45 1240.24 1556.04L1159.25 1553.29L1122.39 1481.83Z" fill="#1D9A6C" stroke="black" stroke-width="6.40124" stroke-miterlimit="1.5" stroke-linecap="round" stroke-linejoin="round"/>
<path fill-rule="evenodd" clip-rule="evenodd" d="M1213.03 1720.77C1224.64 1719.47 1251.71 1717.76 1266.31 1706.29C1282.8 1693.33 1295.22 1666.65 1296.72 1658.89C1309.63 1592.33 1236.93 1524.66 1137.26 1505.72C1037.59 1486.78 944.446 1525.13 933.279 1592C931.565 1602.26 939.73 1628.49 951.23 1644.82C963.984 1662.93 981.018 1672.21 991.526 1680.18L1008.4 1654.91L1112.02 1690.72L1205.76 1690.92L1213.03 1720.77Z" fill="#1D9A6C" stroke="black" stroke-width="7.45446" stroke-miterlimit="1.5" stroke-linecap="round" stroke-linejoin="round"/>
<path fill-rule="evenodd" clip-rule="evenodd" d="M1244.95 1683.74L1239.87 1708.06L1256.92 1703.23C1266.26 1694.83 1276.53 1686.64 1279.15 1675.49L1244.95 1683.74Z" fill="white" fill-opacity="0.3"/>
<path fill-rule="evenodd" clip-rule="evenodd" d="M1205.23 1554.18C1203.77 1553.4 1203.2 1551.61 1203.98 1550.16C1204.76 1548.71 1206.58 1548.15 1208.04 1548.91C1215.82 1552.98 1218.19 1559.2 1217.32 1566.73C1217.14 1568.36 1215.65 1569.53 1214 1569.35C1212.36 1569.16 1211.17 1567.69 1211.36 1566.06C1211.93 1561.05 1210.41 1556.88 1205.23 1554.18Z" fill="#808080" stroke="black" stroke-width="2.65301" stroke-miterlimit="2" stroke-linejoin="round"/>
<path fill-rule="evenodd" clip-rule="evenodd" d="M1213.84 1549.19C1212.37 1548.42 1211.81 1546.62 1212.59 1545.17C1213.36 1543.72 1215.18 1543.16 1216.64 1543.93C1224.42 1547.99 1226.79 1554.22 1225.93 1561.74C1225.75 1563.37 1224.25 1564.54 1222.61 1564.36C1220.96 1564.17 1219.78 1562.7 1219.96 1561.07C1220.54 1556.06 1219.01 1551.89 1213.84 1549.19Z" fill="#808080" stroke="black" stroke-width="2.65301" stroke-miterlimit="2" stroke-linejoin="round"/>
<path fill-rule="evenodd" clip-rule="evenodd" d="M1222.1 1542.21C1220.63 1541.44 1220.07 1539.64 1220.85 1538.19C1221.62 1536.74 1223.44 1536.18 1224.9 1536.95C1232.68 1541.01 1235.05 1547.24 1234.19 1554.76C1234.01 1556.39 1232.51 1557.56 1230.87 1557.38C1229.22 1557.19 1228.04 1555.72 1228.22 1554.09C1228.8 1549.08 1227.27 1544.91 1222.1 1542.21Z" fill="#808080" stroke="black" stroke-width="2.65301" stroke-miterlimit="2" stroke-linejoin="round"/>
<path fill-rule="evenodd" clip-rule="evenodd" d="M1196.98 1558.75C1195.51 1557.98 1194.95 1556.18 1195.73 1554.73C1196.5 1553.28 1198.32 1552.72 1199.79 1553.49C1207.56 1557.56 1209.93 1563.78 1209.07 1571.3C1208.89 1572.93 1207.39 1574.11 1205.75 1573.92C1204.1 1573.73 1202.92 1572.26 1203.11 1570.63C1203.68 1565.62 1202.15 1561.45 1196.98 1558.75Z" fill="#808080" stroke="black" stroke-width="2.65301" stroke-miterlimit="2" stroke-linejoin="round"/>
<path fill-rule="evenodd" clip-rule="evenodd" d="M1187.74 1563.95C1186.28 1563.17 1185.71 1561.37 1186.49 1559.92C1187.27 1558.47 1189.09 1557.92 1190.55 1558.68C1198.33 1562.75 1200.7 1568.97 1199.83 1576.5C1199.65 1578.13 1198.16 1579.3 1196.51 1579.11C1194.87 1578.93 1193.68 1577.46 1193.87 1575.83C1194.44 1570.82 1192.92 1566.64 1187.74 1563.95Z" fill="#808080" stroke="black" stroke-width="2.65301" stroke-miterlimit="2" stroke-linejoin="round"/>
<path d="M1077.13 1615.33L1086.11 1604.27L1104.86 1642.07L1108.82 1623.49L1134.17 1630.96L1138.94 1644.68L1161.98 1619.29L1175.06 1632.24" stroke="black" stroke-width="4.48396" stroke-miterlimit="1.5" stroke-linejoin="round"/>
<path d="M1234.97 1721.47L1239.18 1758.72" stroke="#0DF2C9" stroke-width="4.48396" stroke-miterlimit="1.5" stroke-linejoin="round"/>
<path d="M1250.17 1717.53L1255.49 1751.35" stroke="#0DF2C9" stroke-width="4.48396" stroke-miterlimit="1.5" stroke-linejoin="round"/>
<path fill-rule="evenodd" clip-rule="evenodd" d="M1015 1490.24C1015 1490.24 1037.14 1471.92 1071.08 1466.73C1089.4 1463.94 1113.74 1463.99 1136.5 1468.03C1159.49 1472.11 1183.92 1478.85 1200.21 1486.85C1229.95 1501.46 1240.86 1524 1240.86 1524C1240.86 1524 1181.02 1587.27 1116.05 1575.73C1051.09 1564.19 1015 1490.24 1015 1490.24Z" fill="#1D9A6C" stroke="black" stroke-width="4.96647" stroke-miterlimit="1.5" stroke-linecap="round" stroke-linejoin="round"/>
<path fill-rule="evenodd" clip-rule="evenodd" d="M1197.98 1492.63L1231.21 1518.67L1202.45 1542.53C1202.45 1542.53 1220.08 1525.08 1215.79 1517.81C1211.5 1510.55 1197.98 1492.63 1197.98 1492.63Z" fill="white"/>
<path fill-rule="evenodd" clip-rule="evenodd" d="M1302.41 1552.29C1302.89 1584.41 1293.01 1587.11 1277.02 1572.5C1291.66 1581.79 1301.96 1599.48 1307.53 1626.26L1302.41 1552.29Z" fill="white"/>
<path fill-rule="evenodd" clip-rule="evenodd" d="M1210.66 1585.12C1204.82 1591.91 1177.76 1625.44 1177.76 1625.44L1169.76 1617.55C1169.76 1617.55 1216.5 1578.34 1210.66 1585.12Z" fill="white"/>
<path fill-rule="evenodd" clip-rule="evenodd" d="M1165.98 1629.43L1168.92 1633.29L1142.45 1652.4L1165.98 1629.43Z" fill="white"/>
<path fill-rule="evenodd" clip-rule="evenodd" d="M1185 1554.62C1185 1554.62 1145.36 1570.8 1136.61 1571.14C1132.18 1571.32 1134.42 1563.92 1138.67 1562.7C1147.51 1560.16 1185 1554.62 1185 1554.62Z" fill="white"/>
<path fill-rule="evenodd" clip-rule="evenodd" d="M1212.65 1475.51C1212.65 1475.51 1226.14 1494.65 1230.08 1496.63C1232.07 1497.63 1233.25 1492.04 1231.65 1490.35C1228.32 1486.82 1212.65 1475.51 1212.65 1475.51Z" fill="white"/>
<path fill-rule="evenodd" clip-rule="evenodd" d="M1230.12 1455.47C1230.12 1455.47 1234.67 1473.25 1237.04 1475.64C1238.24 1476.85 1240.71 1472.76 1240.01 1471.1C1238.54 1467.64 1230.12 1455.47 1230.12 1455.47Z" fill="white"/>
<path fill-rule="evenodd" clip-rule="evenodd" d="M1161.56 1423.16C1161.56 1423.16 1170.91 1438.95 1173.85 1440.58C1175.34 1441.41 1176.57 1436.79 1175.43 1435.39C1173.05 1432.49 1161.56 1423.16 1161.56 1423.16Z" fill="white"/>
<path fill-rule="evenodd" clip-rule="evenodd" d="M1159.81 1390.91C1159.81 1390.91 1169.16 1406.71 1172.1 1408.34C1173.59 1409.16 1174.82 1404.54 1173.68 1403.15C1171.3 1400.24 1159.81 1390.91 1159.81 1390.91Z" fill="white"/>
<path fill-rule="evenodd" clip-rule="evenodd" d="M1276.57 1524.96C1276.57 1524.96 1295.03 1541.72 1299.73 1543.4C1302.1 1544.25 1302.31 1539.25 1300.23 1537.77C1295.91 1534.71 1276.57 1524.96 1276.57 1524.96Z" fill="white"/>
<path fill-rule="evenodd" clip-rule="evenodd" d="M1246.46 1507.18C1246.46 1507.18 1259.73 1519.86 1263 1520.64C1264.65 1521.03 1264.59 1516.25 1263.12 1515.21C1260.04 1513.06 1246.46 1507.18 1246.46 1507.18Z" fill="white"/>
<path fill-rule="evenodd" clip-rule="evenodd" d="M1142.38 1474.81L1137.01 1499.44L1141.85 1500.09L1142.38 1474.81Z" fill="white"/>
<path fill-rule="evenodd" clip-rule="evenodd" d="M1124.87 1622.46L1138.81 1625.82L1140.61 1633.56L1141.77 1623.13L1124.87 1622.46Z" fill="white"/>
<path fill-rule="evenodd" clip-rule="evenodd" d="M1120.23 1659.32L1127.48 1641.36L1135.95 1654.53L1120.23 1659.32Z" fill="white"/>
<path fill-rule="evenodd" clip-rule="evenodd" d="M1275.11 1679.87L1257.98 1699.4L1269.96 1681.38L1275.11 1679.87Z" fill="white"/>
<path fill-rule="evenodd" clip-rule="evenodd" d="M1142.71 1584.33L1138.31 1604.95L1158.04 1598.83L1140.45 1636.03L1162.16 1610.29L1177.37 1626.35L1235.46 1562.42L1203.97 1579.3L1194.45 1582.74L1185.99 1569.89C1171.37 1577.04 1159.79 1582.8 1142.71 1584.33Z" fill="white" fill-opacity="0.4"/>
<path fill-rule="evenodd" clip-rule="evenodd" d="M1192.34 1544.71C1194.72 1536.17 1187.91 1520.27 1166.89 1533.92L1168.52 1478.21L1210.12 1496.67L1228.13 1518.01L1192.34 1544.71Z" fill="white" fill-opacity="0.4"/>
<path fill-rule="evenodd" clip-rule="evenodd" d="M1122.38 1633.72L1118.83 1660.55C1139.39 1657.56 1154.79 1646.34 1168.85 1632.97L1165.64 1629.31L1136.44 1650.16L1131.42 1635.51L1122.38 1633.72Z" fill="white" fill-opacity="0.4"/>
<path fill-rule="evenodd" clip-rule="evenodd" d="M1059.7 1474.28C1054.39 1506.63 1063.21 1532.85 1081.73 1561.93L1055.43 1543.82L1021.17 1548.79L1008.07 1515.2L944.527 1555.77C944.757 1592.72 949.15 1630.34 979.469 1672.12C956.292 1663.79 939.427 1667.75 931.471 1689.06L904.896 1614.84C910.738 1558.05 968.549 1497.28 987.022 1467.18C993.759 1461.43 1056.08 1450.28 1056.08 1450.28L1066.47 1435.25C1068.23 1422.63 1095.11 1424.45 1111.14 1429.98C1111.6 1425.43 1114.66 1409.03 1122.29 1398.38C1132.62 1383.94 1143.42 1377.32 1150.42 1376.61C1151.74 1376.46 1159.99 1379.05 1160.04 1379.47C1160.73 1386.38 1131.35 1410.04 1130.11 1412.99C1117.83 1424.82 1117.43 1437.4 1119.7 1444.76C1111 1448.48 1093.81 1447.89 1090.48 1462.18C1088.54 1470.45 1063.24 1465.72 1059.7 1474.28Z" fill="black" fill-opacity="0.3"/>
<path d="M1136.51 1468.03L1132.7 1503.03L1143.47 1508.93L1142.12 1519.9L1117.36 1519.07L1114.51 1531.34L1129.12 1537.42L1124.68 1574.15" stroke="black" stroke-width="4.48396" stroke-miterlimit="1.5" stroke-linecap="round" stroke-linejoin="round"/>
<path d="M1082.18 1532.34C1086.62 1532.34 1090.22 1529.15 1090.22 1525.22C1090.22 1521.29 1086.62 1518.1 1082.18 1518.1C1077.74 1518.1 1074.14 1521.29 1074.14 1525.22C1074.14 1529.15 1077.74 1532.34 1082.18 1532.34Z" fill="#808080" stroke="black" stroke-width="2.89449" stroke-miterlimit="1.5" stroke-linejoin="round"/>
<path d="M1180.42 1547.74C1184.86 1547.74 1188.47 1544.55 1188.47 1540.62C1188.47 1536.68 1184.86 1533.49 1180.42 1533.49C1175.98 1533.49 1172.38 1536.68 1172.38 1540.62C1172.38 1544.55 1175.98 1547.74 1180.42 1547.74Z" fill="#808080" stroke="black" stroke-width="2.89449" stroke-miterlimit="1.5" stroke-linejoin="round"/>
<path fill-rule="evenodd" clip-rule="evenodd" d="M1244.68 1551.15C1208.81 1595.8 1172.37 1640.03 1121.58 1673.91L1104.73 1667.76C1104.73 1667.76 1074.99 1601.58 1060.61 1578.47C1035.92 1538.77 1008.62 1512.03 1008.62 1512.03C963.032 1524.21 925.63 1568.77 935.774 1606.33C957.082 1630.27 979.906 1647.92 1005.5 1654.03L1112.03 1693.32L1210.04 1688.52C1237.57 1683.07 1264.41 1675.97 1290.9 1668.05C1302.88 1659.5 1309.14 1587.79 1244.68 1551.15Z" fill="black"/>
<path fill-rule="evenodd" clip-rule="evenodd" d="M1038.51 1560.34L1031.21 1596.52L1067.61 1656.35L1023.92 1621.06L1007.9 1634.97L1005.86 1608.26L975.496 1565L1017.4 1582.92L1038.51 1560.34Z" fill="#FF050B"/>
<path fill-rule="evenodd" clip-rule="evenodd" d="M1043.28 1561.3L1038.04 1595.03L1075.52 1651.54C1077.85 1655.39 1077.09 1660.36 1073.71 1663.32C1070.32 1666.28 1065.3 1666.39 1061.79 1663.56L1024.43 1634.95L1015.06 1643.22C1011.94 1645.94 1007.56 1646.66 1003.73 1645.08C999.906 1643.51 997.299 1639.92 996.985 1635.8L995.329 1611.79L968.147 1570.16C965.843 1566.88 965.996 1562.46 968.524 1559.35C971.049 1556.23 975.337 1555.17 979.026 1556.75L1016.18 1574.91L1034.97 1557.02C1036.45 1555.43 1038.81 1555.02 1040.75 1556.01C1042.67 1557.01 1043.72 1559.17 1043.28 1561.3ZM1038.51 1560.34L1017.4 1582.92L975.496 1565L1005.86 1608.26L1007.9 1634.97L1023.92 1621.06L1067.61 1656.36L1031.21 1596.52L1038.51 1560.34Z" fill="#FF050B" fill-opacity="0.58"/>
<path fill-rule="evenodd" clip-rule="evenodd" d="M1214.37 1619.62L1214.65 1638.21L1168.8 1672.82L1218.98 1646.03L1224.73 1654.72L1225.86 1640.32L1265.82 1600.15L1221.52 1632.51L1214.37 1619.62Z" fill="#FF050B"/>
<path fill-rule="evenodd" clip-rule="evenodd" d="M1217.81 1617.72L1222.69 1625.42L1261.41 1594.12C1264.56 1591.81 1268.94 1592.32 1271.48 1595.28C1274.02 1598.24 1273.86 1602.66 1271.11 1605.42C1271.11 1605.42 1258.8 1618.85 1247.91 1630.3C1242.39 1636.1 1237.24 1641.38 1234.4 1644.27L1233.45 1655.41C1233.15 1659.12 1230.53 1662.25 1226.92 1663.19C1223.29 1664.12 1219.49 1662.65 1217.42 1659.54L1215.91 1657.16L1172.12 1679.02C1168.88 1680.75 1164.86 1679.7 1162.88 1676.6C1160.91 1673.51 1161.64 1669.41 1164.57 1667.2L1210 1635.69L1210.45 1619.69C1210.43 1617.89 1211.63 1616.3 1213.36 1615.84C1215.11 1615.37 1216.93 1616.15 1217.81 1617.72ZM1214.37 1619.62L1214.65 1638.21L1168.8 1672.82L1218.98 1646.03L1224.73 1654.72L1225.86 1640.32L1265.82 1600.15L1221.52 1632.51L1214.37 1619.62Z" fill="#FF050B" fill-opacity="0.58"/>
<path fill-rule="evenodd" clip-rule="evenodd" d="M1228.14 1585.3C1228.14 1585.3 1247.01 1593.38 1253.58 1597.72C1260.16 1602.06 1261.61 1613.1 1261.61 1613.1L1296.36 1652.83L1294.58 1639.62L1268.2 1613.04C1268.2 1613.04 1269.13 1606.68 1260.48 1597.44C1251.83 1588.21 1234.56 1577.27 1234.56 1577.27L1228.14 1585.3Z" fill="white"/>
<path fill-rule="evenodd" clip-rule="evenodd" d="M1238.22 1573.07C1238.22 1573.07 1260.19 1592.16 1266.09 1597.1C1271.99 1602.05 1273.82 1612.47 1273.82 1612.47L1298.11 1637.26L1295.31 1623.55L1279.22 1611.7C1279.22 1611.7 1279.28 1604.76 1270.7 1595.46C1262.11 1586.15 1243.78 1564.72 1243.78 1564.72L1238.22 1573.07Z" fill="white"/>
</svg>
