<svg width="2160" height="2700" viewBox="0 0 2160 2700" fill="none" xmlns="http://www.w3.org/2000/svg">
<path fill-rule="evenodd" clip-rule="evenodd" d="M942.474 1593.73C958.303 1596.11 1068.5 1564.44 1158.78 1597.82C1268.31 1638.32 1359.62 1744.96 1359.62 1744.96L1313.85 2043.95L1148.16 2132.15C1034.83 2141.09 948.096 2120.9 874.801 2085.98L942.474 1593.73Z" fill="#E5F20D" stroke="black" stroke-width="8.47868" stroke-miterlimit="1.5" stroke-linecap="round" stroke-linejoin="round"/>
<path fill-rule="evenodd" clip-rule="evenodd" d="M985.74 1800.12L1230.57 1802.94C1198.9 1842.11 1151.02 1872.35 1089.66 1895.16L1058.83 2030.24L1125.51 2049.36L1146.04 2118.46C1056.05 2120.41 968.882 2100.4 883.605 2065.6L924.788 1703.78L985.74 1800.12Z" fill="black" fill-opacity="0.3"/>
<path fill-rule="evenodd" clip-rule="evenodd" d="M841.537 1746.36C852.269 1733.22 876.702 1720.11 888.449 1726.59C900.193 1733.06 912.003 1785.24 912.003 1785.24L955.046 1814.84C955.046 1814.84 1007.12 1805.58 1013.69 1813.84C1020.26 1822.11 1012.56 1856.35 1001.3 1873.09C986.988 1894.4 927.798 1941.67 927.798 1941.67C927.798 1941.67 893.987 1931.42 895.933 1917.07C897.875 1902.73 912.541 1858.59 912.541 1858.59L873.442 1825.51C873.442 1825.51 835.613 1864.95 821.275 1866.6C806.938 1868.24 793.748 1854.57 796.301 1839.43C799.679 1819.39 826.176 1765.17 841.537 1746.36Z" fill="#D8CF82"/>
<path fill-rule="evenodd" clip-rule="evenodd" d="M840.83 1745.79C846.816 1738.29 857.114 1730.77 867.136 1726.67C875.462 1723.26 883.619 1722.3 889.163 1725.29C892.945 1727.32 896.897 1733.73 900.403 1741.77C907.253 1757.5 912.765 1779.45 913.865 1783.95L955.623 1812.09C960.425 1811.24 981.002 1807.73 996.506 1807.48C1001.69 1807.39 1006.32 1807.68 1009.71 1808.49C1012.74 1809.21 1014.91 1810.45 1016.1 1811.93C1017.63 1813.82 1018.66 1816.8 1019.06 1820.59C1019.58 1825.51 1019.08 1831.97 1017.77 1838.9C1015.38 1851.56 1010.29 1865.81 1004.18 1875.02C999.019 1882.77 988.132 1893.93 976.175 1905.03C954.825 1924.85 930.13 1944.59 930.13 1944.59C929.17 1945.36 927.894 1945.6 926.716 1945.25C926.716 1945.25 908.453 1939.61 898.85 1930.87C894.255 1926.69 891.61 1921.77 892.331 1916.59C893.074 1911.31 895.499 1902.1 898.328 1892.48C902.257 1879.1 906.941 1864.9 908.688 1859.66L873.604 1829.54C868.35 1834.78 853.479 1849.32 840.319 1859.11C832.993 1864.56 826.11 1868.48 821.548 1868.97C813.52 1869.81 805.834 1866.38 800.628 1860.55C795.632 1854.96 792.905 1847.2 794.351 1839.1C796.202 1828.75 804.23 1809.37 813.781 1790.42C822.824 1772.48 833.207 1754.92 840.83 1745.79ZM842.239 1746.94C834.884 1756.15 825.002 1773.76 816.411 1791.71C807.434 1810.47 799.863 1829.58 798.251 1839.76C797.173 1846.56 799.587 1853.01 803.858 1857.61C808.192 1862.27 814.476 1865.04 821.003 1864.23C826.091 1863.6 834.149 1857.75 842.375 1850.89C856.757 1838.91 871.315 1823.48 871.315 1823.48C872.393 1822.36 874.156 1822.27 875.344 1823.27L914.678 1856.07C915.712 1856.94 916.109 1858.36 915.682 1859.64C915.682 1859.64 909.799 1877.68 905.072 1894.42C902.46 1903.67 900.19 1912.51 899.531 1917.56C899.281 1919.44 900.086 1921.18 901.33 1922.82C902.706 1924.63 904.634 1926.28 906.794 1927.8C913.758 1932.72 923.111 1936.17 927.033 1937.5C932.75 1932.89 953.155 1916.28 971.241 1899.69C982.787 1889.1 993.416 1878.56 998.43 1871.16C1003.26 1864.06 1007.42 1853.65 1010.05 1843.57C1012.02 1835.97 1013.14 1828.57 1012.93 1822.9C1012.82 1819.77 1012.43 1817.23 1011.28 1815.76C1010.54 1814.82 1008.86 1814.44 1006.72 1814.06C1002.53 1813.3 996.804 1813.23 990.719 1813.5C974.369 1814.21 955.502 1817.4 955.502 1817.4C954.829 1817.52 954.137 1817.37 953.574 1816.98L910.808 1786.98C910.37 1786.68 910.061 1786.23 909.943 1785.71C909.943 1785.71 904.501 1760.58 897.298 1743.09C894.288 1735.79 891.098 1729.79 887.732 1727.89C882.839 1725.12 875.558 1726.12 868.063 1729C858.288 1732.76 848.185 1739.82 842.239 1746.94Z" fill="black"/>
<path fill-rule="evenodd" clip-rule="evenodd" d="M1256.04 1717.12C1289.76 1690.73 1369.66 1721.33 1367.4 1756.55C1364.05 1808.8 1290.69 2003.59 1259.02 2085.64C1250.25 2108.37 1209.23 2111.49 1209.23 2111.49L962.955 2030.68L944.802 1969.4L944.041 1939.31C944.041 1939.31 906.569 1908.87 911.267 1904.1C915.965 1899.32 964.596 1916 964.596 1916C964.596 1916 927.286 1875.63 932.201 1864.6C940.093 1846.9 997.01 1902.91 997.01 1902.91C997.01 1902.91 958.555 1861.06 963.437 1851.67C968.294 1842.33 995.424 1858.6 995.424 1858.6C995.424 1858.6 976.2 1841.97 980.13 1838.18C993.047 1825.71 1055.54 1861.24 1060.12 1873.89C1065.64 1889.12 1055.67 1990.62 1055.67 1990.62L1191.98 1999.46L1256.04 1717.12Z" fill="#FF050B"/>
<path fill-rule="evenodd" clip-rule="evenodd" d="M1255.03 1715.84C1271.36 1703.01 1298.31 1703.09 1321.93 1710.73C1348.46 1719.31 1370.49 1737.48 1369.3 1756.67C1368.12 1775.67 1357.8 1813.47 1343.56 1857.85C1318.56 1935.78 1281.54 2034.15 1261.42 2086.57C1258.39 2094.47 1251.8 2100.25 1244.18 2104.37C1228.86 2112.64 1209.44 2114.17 1209.44 2114.17C1209.08 2114.19 1208.73 2114.15 1208.4 2114.04L961.991 2033.61C961.027 2033.3 960.281 2032.53 959.994 2031.56L941.756 1970.3C941.679 1970.04 941.635 1969.76 941.627 1969.48L940.869 1940.86C936.469 1937.23 920.524 1923.88 912.698 1914.65C910.02 1911.49 908.276 1908.67 907.797 1906.74C907.264 1904.59 907.812 1902.96 908.942 1901.81C909.714 1901.02 911.009 1900.33 912.882 1900.09C915.089 1899.8 918.533 1900.08 922.654 1900.81C931.874 1902.44 944.846 1906.22 954.129 1909.12C948.231 1902.18 940.34 1892.35 934.939 1883.59C932.069 1878.92 929.902 1874.51 928.964 1870.94C928.154 1867.84 928.257 1865.2 929.133 1863.23C931.855 1857.13 938.831 1856.32 947.885 1860.42C954.291 1863.33 961.955 1868.56 969.386 1874.3C968.514 1873.05 967.679 1871.81 966.892 1870.6C963.228 1864.96 960.586 1859.73 959.868 1855.98C959.409 1853.59 959.67 1851.6 960.446 1850.11C962.558 1846.06 967.451 1844.71 973.503 1845.81C975.578 1846.18 977.808 1846.83 980.034 1847.61C979.28 1846.64 978.61 1845.7 978.073 1844.81C975.711 1840.91 975.994 1837.53 977.815 1835.78C980.582 1833.11 985.085 1831.91 990.806 1832.32C997.893 1832.83 1007.09 1835.7 1016.53 1839.83C1031.11 1846.21 1046.31 1855.53 1055.11 1863.11C1059.41 1866.82 1062.22 1870.26 1063.14 1872.8C1064.96 1877.84 1065.27 1892.02 1064.64 1908.98C1063.55 1938.58 1059.99 1976.89 1058.93 1987.85L1189.92 1996.7L1254.45 1716.76C1254.54 1716.39 1254.74 1716.07 1255.03 1715.84ZM914.843 1906.52C915.218 1907.18 915.704 1907.98 916.219 1908.66C918.875 1912.14 923.195 1916.51 927.705 1920.76C936.509 1929.04 946.068 1936.81 946.068 1936.81C946.796 1937.41 947.231 1938.29 947.253 1939.23L947.966 1968.91L965.461 2028.25C965.461 2028.25 1209.55 2108.77 1209.55 2108.77C1212.64 2108.48 1228.72 2106.7 1241.7 2099.75C1248.23 2096.26 1254 2091.46 1256.62 2084.71C1276.91 2032.42 1314.25 1934.3 1339.52 1856.55C1353.81 1812.63 1364.25 1775.25 1365.5 1756.42C1366.68 1738.53 1345.55 1722.19 1320.84 1714.08C1298.57 1706.79 1273.14 1706.24 1257.49 1718.05L1194.53 2000.04C1194.25 2001.3 1193.09 2002.16 1191.8 2002.08L1055.48 1993.59C1054.67 1993.53 1053.92 1993.16 1053.4 1992.54C1052.88 1991.93 1052.63 1991.13 1052.7 1990.33C1052.7 1990.33 1057.2 1943.51 1058.35 1908.76C1058.87 1892.93 1058.82 1879.68 1057.11 1874.98C1056.42 1873.1 1054.11 1870.74 1050.91 1868C1042.47 1860.78 1027.87 1851.94 1013.9 1845.88C1005.24 1842.11 996.833 1839.41 990.339 1838.96C987.326 1838.75 984.791 1838.92 983.099 1840.05C983.765 1841.81 985.619 1844.05 987.646 1846.32C992.072 1851.28 997.617 1856.07 997.617 1856.07C998.93 1857.2 999.154 1859.16 998.135 1860.57C997.116 1861.97 995.188 1862.37 993.698 1861.47C993.698 1861.47 983.993 1855.65 975.376 1853.17C972.826 1852.43 970.395 1851.96 968.43 1852.21C967.565 1852.31 966.8 1852.51 966.428 1853.23C966.296 1853.48 966.373 1853.82 966.417 1854.2C966.539 1855.2 966.907 1856.35 967.433 1857.63C969.096 1861.68 972.3 1866.74 976.013 1871.95C985.917 1885.82 999.508 1900.61 999.508 1900.61C1000.75 1901.97 1000.69 1904.07 999.368 1905.35C998.043 1906.63 995.943 1906.62 994.633 1905.33C994.633 1905.33 975.744 1886.72 958.342 1874.48C951.41 1869.61 944.773 1865.7 939.769 1864.71C937.709 1864.3 936.013 1864.3 935.27 1865.97C934.747 1867.14 935.229 1868.77 935.928 1870.75C937.385 1874.89 940.398 1879.96 943.949 1885.14C953.518 1899.1 967.032 1913.76 967.032 1913.76C968.062 1914.87 968.202 1916.54 967.374 1917.81C966.546 1919.09 964.957 1919.63 963.522 1919.14C963.522 1919.14 946.771 1913.37 932.058 1909.61C925.49 1907.93 919.35 1906.63 915.41 1906.51C915.229 1906.5 915.038 1906.51 914.843 1906.52Z" fill="black"/>
<path fill-rule="evenodd" clip-rule="evenodd" d="M879.34 2103.08C879.34 2103.08 941.738 1943.18 970.105 1918.6C996.142 1896.03 1040.04 1919.21 1053.9 1944.26C1067.76 1969.31 1019.76 2146.15 1019.76 2146.15C1002.33 2150.51 883.129 2117.17 879.34 2103.08Z" fill="#FF050B"/>
<path fill-rule="evenodd" clip-rule="evenodd" d="M877.923 2102.53C877.923 2102.53 906.44 2024.79 933.416 1968.85C945.668 1943.43 957.842 1922.55 966.679 1914.65C978.412 1904.23 993.504 1902.04 1008.4 1905.17C1029.59 1909.61 1050.19 1925.13 1059.28 1941.28C1061.55 1945.33 1062.79 1952.75 1062.61 1962.59C1062.4 1974.16 1060.54 1989.52 1057.63 2006.46C1053.76 2029.01 1048.07 2054.4 1042.47 2077.36C1033.12 2115.75 1023.95 2147.28 1023.95 2147.28C1023.54 2148.8 1022.34 2149.98 1020.81 2150.36C1017.4 2151.15 1010.46 2150.78 1001.37 2149.21C983.349 2146.09 956.091 2138.72 931.823 2130.53C913.618 2124.38 897.11 2117.77 887.427 2112.18C881.823 2108.94 878.457 2105.85 877.872 2103.48C877.787 2103.17 877.805 2102.84 877.923 2102.53ZM880.97 2103.12C881.83 2104.9 884.822 2106.82 889.134 2109.08C898.865 2114.18 915.348 2120 933.46 2125.35C953.997 2131.41 976.62 2136.82 993.92 2139.84C1003.69 2141.54 1011.63 2142.56 1016.25 2142.29C1018.35 2133.83 1025.02 2106.68 1031.93 2074.93C1036.91 2052.07 1041.98 2026.82 1045.55 2004.46C1048.15 1988.18 1049.96 1973.45 1050.18 1962.36C1050.31 1955.42 1050.09 1950.11 1048.51 1947.24C1042.26 1935.74 1029.07 1924.71 1014.52 1918.99C1000.52 1913.47 985.101 1912.74 973.526 1922.55C964.998 1929.71 953.39 1949.24 941.069 1972.7C913.688 2024.82 883.791 2096.34 880.97 2103.12Z" fill="black"/>
<path fill-rule="evenodd" clip-rule="evenodd" d="M1156.12 2136.64C1156.12 2136.64 1078.26 2036.57 1069.3 1995.34C1061.27 1958.4 1073.03 1890.72 1109.21 1901.69C1152.16 1914.71 1299.65 2069.8 1299.65 2069.8C1279.17 2090.35 1182.4 2131.09 1156.12 2136.64Z" fill="#FF050B"/>
<path fill-rule="evenodd" clip-rule="evenodd" d="M1154.92 2137.57C1154.92 2137.57 1121.92 2096.8 1095.78 2056.68C1080.94 2033.92 1068.42 2011.31 1064.89 1996.29C1060.09 1975.52 1061.25 1945.27 1069.34 1923.66C1077.1 1902.92 1091.27 1890.29 1110.92 1896.04C1118 1898.13 1127.84 1903.7 1139.27 1911.84C1150.1 1919.56 1162.53 1929.58 1175.52 1940.9C1197.01 1959.64 1220.14 1981.86 1240.72 2002.38C1275.44 2036.99 1302.81 2066.79 1302.81 2066.79C1304.44 2068.5 1304.41 2071.2 1302.74 2072.87C1293.88 2081.48 1271.52 2093.58 1246.38 2104.96C1211.74 2120.63 1171.91 2135.16 1156.44 2138.12C1155.87 2138.24 1155.28 2138.03 1154.92 2137.57ZM1156.74 2134.92C1172.55 2131.01 1210.5 2115.39 1243.56 2099C1264.6 2088.57 1283.66 2077.89 1293.39 2069.66C1285.12 2061.34 1261.3 2037.47 1232.94 2010.36C1212.1 1990.43 1188.78 1968.78 1167.36 1950.3C1154.63 1939.31 1142.62 1929.41 1132.12 1921.78C1122.13 1914.52 1113.7 1909.26 1107.5 1907.33C1093.97 1903.09 1085.19 1913.35 1079.48 1927.59C1071.58 1947.32 1069.78 1975.13 1073.7 1994.38C1076.59 2008.87 1088.08 2030.8 1101.51 2053.09C1124.12 2090.65 1152.38 2129.04 1156.74 2134.92Z" fill="black"/>
<path fill-rule="evenodd" clip-rule="evenodd" d="M1158.03 1965.05C1161.4 1961.55 1161.3 1955.96 1157.79 1952.58L1154.21 1949.14C1150.7 1945.77 1145.11 1945.88 1141.74 1949.38L1097.66 1995.21C1094.28 1998.73 1094.4 2004.31 1097.9 2007.68L1101.48 2011.13C1104.99 2014.5 1110.57 2014.4 1113.95 2010.88L1158.03 1965.05Z" fill="white" fill-opacity="0.3"/>
<path fill-rule="evenodd" clip-rule="evenodd" d="M1159.74 1966.69L1116.29 2013.13C1114 2015.57 1110.93 2016.81 1107.83 2016.9C1104.71 2016.99 1101.58 2015.87 1099.14 2013.56L1095.53 2010.15C1093.09 2007.81 1091.84 2004.7 1091.76 2001.57C1091.69 1998.43 1092.82 1995.27 1095.17 1992.82C1095.17 1992.82 1103.43 1984.23 1112.88 1974.57C1125.27 1961.91 1139.66 1947.38 1139.66 1947.38C1141.92 1945.1 1144.89 1943.92 1147.87 1943.9C1150.83 1943.89 1153.8 1944.96 1156.07 1947.21L1159.59 1950.71C1161.81 1952.92 1162.97 1955.81 1162.97 1958.72C1162.98 1961.6 1161.92 1964.49 1159.74 1966.69ZM1156.33 1963.41C1157.53 1962.12 1158.07 1960.45 1158.01 1958.82C1157.95 1957.21 1157.26 1955.63 1155.99 1954.45L1152.36 1951.07C1151.13 1949.92 1149.53 1949.4 1147.98 1949.46C1146.45 1949.52 1144.94 1950.17 1143.82 1951.38C1143.82 1951.38 1129.87 1966.33 1117.69 1979.2C1108.41 1989.02 1100.15 1997.61 1100.15 1997.61C1099.11 1998.68 1098.61 2000.06 1098.63 2001.44C1098.66 2002.82 1099.2 2004.19 1100.26 2005.23L1103.81 2008.7C1104.9 2009.76 1106.3 2010.29 1107.7 2010.28C1109.11 2010.26 1110.54 2009.73 1111.61 2008.64L1156.33 1963.41Z" fill="black"/>
<path fill-rule="evenodd" clip-rule="evenodd" d="M1111.05 1958.99C1106.57 1956.22 1100.67 1957.6 1097.89 1962.09L1095.06 1966.66C1092.28 1971.15 1093.67 1977.05 1098.15 1979.82L1155.34 2015.25C1159.83 2018.03 1165.73 2016.64 1168.5 2012.16L1171.34 2007.58C1174.12 2003.09 1172.73 1997.2 1168.24 1994.42L1111.05 1958.99Z" fill="white" fill-opacity="0.3"/>
<path fill-rule="evenodd" clip-rule="evenodd" d="M1112.39 1956.84L1170.07 1991.47C1173.16 1993.34 1175.18 1996.3 1175.97 1999.55C1176.77 2002.82 1176.29 2006.38 1174.4 2009.48L1171.61 2014.08C1169.7 2017.19 1166.7 2019.23 1163.41 2020.01C1160.11 2020.79 1156.51 2020.32 1153.39 2018.4C1153.39 2018.4 1142.67 2011.75 1130.59 2004.12C1114.74 1994.12 1096.52 1982.45 1096.52 1982.45C1093.6 1980.58 1091.68 1977.72 1090.97 1974.57C1090.3 1971.45 1090.76 1968.05 1092.62 1965.15L1095.53 1960.62C1097.36 1957.77 1100.16 1955.9 1103.23 1955.23C1106.27 1954.57 1109.56 1955.03 1112.39 1956.84ZM1109.72 1961.15C1108.07 1960.17 1106.17 1959.97 1104.44 1960.4C1102.74 1960.84 1101.23 1961.93 1100.26 1963.55L1097.5 1968.18C1096.56 1969.74 1096.38 1971.56 1096.79 1973.2C1097.2 1974.82 1098.24 1976.27 1099.78 1977.19C1099.78 1977.19 1118.34 1988.3 1134.36 1998.04C1146.57 2005.46 1157.3 2012.1 1157.3 2012.1C1158.67 2012.96 1160.27 2013.18 1161.73 2012.85C1163.19 2012.51 1164.54 2011.62 1165.4 2010.23L1168.27 2005.68C1169.16 2004.28 1169.4 2002.67 1169.06 2001.17C1168.72 1999.66 1167.83 1998.26 1166.42 1997.37L1109.72 1961.15Z" fill="black"/>
<path fill-rule="evenodd" clip-rule="evenodd" d="M960.833 1705.62L787.611 1672.41L824.593 1727.03C831.624 1723.18 839.822 1712.75 844.877 1712.63C851.378 1712.48 857.857 1721.57 861.804 1726.25C861.804 1726.25 827.585 1744.21 835.682 1757.33C841.179 1766.23 874.365 1795.47 874.586 1805.91C875.119 1831.67 830.826 1805.14 830.826 1805.14C830.826 1805.14 886.087 1854.93 874.299 1861.74C861.573 1869.1 798.019 1830.89 798.019 1830.89C798.019 1830.89 847.106 1855.35 835.701 1865.31C828.148 1871.9 812.942 1875.35 801.051 1875.38C782.294 1875.44 749.365 1835.57 747.643 1827.14C745.058 1814.48 765.377 1772.42 765.377 1772.42C765.377 1772.42 648.456 1622.46 687.297 1591.17C726.408 1559.66 1004.71 1587.88 1004.71 1587.88L960.833 1705.62Z" fill="#FF050B"/>
<path fill-rule="evenodd" clip-rule="evenodd" d="M839.928 1857.14C841.996 1861.32 841.488 1865.15 838.129 1868.09C834.583 1871.18 829.535 1873.7 823.861 1875.51C816.569 1877.85 808.24 1879.05 801.062 1879.07C793.118 1879.09 782.677 1872.85 772.975 1864.29C763.131 1855.6 753.917 1844.71 748.743 1837.03C746.059 1833.03 744.448 1829.75 744.065 1827.87C743.225 1823.74 744.405 1816.77 746.749 1809.01C750.939 1795.16 758.519 1778.54 761.18 1772.86C752.686 1761.74 706.538 1700.22 686.036 1650.85C679.139 1634.24 675.17 1618.94 676.175 1607.24C676.854 1599.33 679.74 1592.95 685.199 1588.56C690.676 1584.16 700.531 1580.74 713.594 1578.34C731.203 1575.11 754.831 1573.58 781.065 1573.18C875.899 1571.74 1005 1585.05 1005 1585.05C1005.87 1585.14 1006.66 1585.63 1007.12 1586.38C1007.59 1587.13 1007.68 1588.05 1007.37 1588.87L963.287 1706.54C962.842 1707.73 961.594 1708.44 960.336 1708.2L794.222 1676.75L825.488 1722.72C829.91 1719.55 834.575 1714.6 838.497 1711.91C840.804 1710.33 842.982 1709.46 844.803 1709.41C847.537 1709.35 850.311 1710.42 852.934 1712.26C857.382 1715.39 861.477 1720.81 864.299 1724.14C864.939 1724.9 865.2 1725.9 865.009 1726.87C864.821 1727.84 864.2 1728.68 863.324 1729.14C863.324 1729.14 850.532 1735.86 842.82 1743.98C840.911 1745.99 839.318 1748.07 838.431 1750.17C837.651 1752.02 837.467 1753.86 838.527 1755.57C842.607 1762.15 861.981 1779.88 871.705 1792.81C875.635 1798.03 877.963 1802.72 878.033 1805.84C878.129 1810.18 877.103 1813.33 875.469 1815.58C873.335 1818.52 870.086 1820.1 866.109 1820.52C861.451 1821.01 855.653 1819.82 849.991 1817.91C849.66 1817.8 849.329 1817.68 848.994 1817.56C857.982 1826.49 868.589 1837.74 874.483 1846.51C877.353 1850.79 879.119 1854.61 879.472 1857.43C879.899 1860.85 878.721 1863.35 876.105 1864.86C873.916 1866.13 870.605 1866.6 866.459 1866.06C861.654 1865.43 855.484 1863.53 848.784 1860.89C845.911 1859.76 842.938 1858.49 839.928 1857.14ZM814.579 1844.47C803.902 1838.7 796.132 1834.03 796.132 1834.03C794.443 1833.02 793.854 1830.85 794.803 1829.12C795.753 1827.39 797.894 1826.73 799.656 1827.6C799.656 1827.6 808.597 1832.1 818.1 1838.06C825.797 1842.23 835.024 1846.99 843.887 1850.94C851.735 1854.44 859.281 1857.31 865.171 1858.51C868.258 1859.14 870.756 1859.49 872.32 1858.71C872.301 1858.44 872.253 1857.84 872.128 1857.41C871.576 1855.47 870.267 1853.13 868.515 1850.51C866.183 1847.02 863.067 1843.13 859.612 1839.15C846.474 1824.02 828.468 1807.76 828.468 1807.76C827.121 1806.54 826.915 1804.51 827.993 1803.05C829.071 1801.59 831.08 1801.19 832.636 1802.12C832.636 1802.12 848.67 1811.82 860.888 1813.47C864.546 1813.97 867.846 1813.94 869.689 1811.74C870.745 1810.49 871.186 1808.59 871.139 1805.99C871.117 1804.97 870.546 1803.73 869.752 1802.27C868.147 1799.34 865.528 1795.86 862.43 1792.16C852.022 1779.73 836.463 1764.98 832.839 1759.09C829.752 1754.07 830.995 1748.45 834.895 1743.11C840.373 1735.61 851.256 1728.6 856.827 1725.31C855.039 1723.12 852.964 1720.67 850.723 1718.75C848.861 1717.14 846.955 1715.81 844.95 1715.85C844.108 1715.87 843.192 1716.48 842.117 1717.21C837.316 1720.48 831.378 1726.94 826.117 1729.81C824.682 1730.6 822.886 1730.17 821.97 1728.81L785.102 1674.11C784.417 1673.1 784.406 1671.77 785.079 1670.75C785.753 1669.72 786.978 1669.21 788.181 1669.44L959.148 1702.62L1000.76 1590.36C979.133 1588.3 866.289 1578.05 781.172 1579.6C755.36 1580.07 732.112 1581.62 714.794 1584.84C703.146 1587.01 694.271 1589.84 689.396 1593.77C684.068 1598.08 682.359 1605.03 682.845 1613.54C683.412 1623.47 687.017 1635.41 692.369 1648.21C714.847 1701.95 768.214 1770.2 768.214 1770.2C769.06 1771.28 769.215 1772.75 768.619 1773.98C768.619 1773.98 760.701 1790.42 755.458 1805.72C752.584 1814.12 750.338 1822.1 751.221 1826.41C751.5 1827.77 752.859 1830.05 754.808 1832.94C759.723 1840.23 768.483 1850.54 777.831 1858.78C785.955 1865.93 794.391 1871.72 801.04 1871.7C806.448 1871.68 812.577 1870.91 818.287 1869.44C824.215 1867.91 829.704 1865.64 833.276 1862.53C834.259 1861.67 833.534 1860.59 832.725 1859.35C830.984 1856.7 827.805 1853.85 824.112 1851.03C821.143 1848.76 817.839 1846.52 814.579 1844.47Z" fill="black"/>
<path fill-rule="evenodd" clip-rule="evenodd" d="M880.161 1580.89L854.789 1577.48C844.753 1590.74 838.935 1604.97 843.258 1621.56L855.707 1613.33C846.946 1626.16 845.838 1640.07 847.809 1654.38L857.614 1652.09L855.014 1662.64C815.014 1648.27 797.674 1659.1 784.201 1670.9L875.046 1691.82L893.747 1653.55L880.161 1580.89Z" fill="black" fill-opacity="0.3"/>
<path fill-rule="evenodd" clip-rule="evenodd" d="M977.312 1564.48C977.312 1564.48 958.813 1535.74 928.383 1532.32C894.108 1528.48 866.776 1593.34 867.567 1603.59L890.418 1580.34C870.285 1605.19 870.223 1639.87 873.45 1657.9L894.616 1613.6C881.157 1640.7 876.393 1668.47 875.433 1696.54L889.601 1661.73C876.481 1708.07 906.216 1723.53 918.556 1765.91C917.596 1726.01 919.56 1708.93 925.918 1683.68L936.444 1718.18L956.694 1633.4L1241.93 1629.79L1288.61 1755.29L1286.04 1712.95L1306.36 1805.42C1316.01 1805.83 1315.61 1679.07 1301.42 1657.15L1330.82 1702.57C1332.36 1671.7 1325.8 1643.55 1310.31 1618.37L1342.4 1645C1342.4 1645 1334.43 1566.45 1294.68 1542.45C1269.68 1527.36 1246.68 1527.32 1234.61 1550.19C1227.94 1562.82 1221.18 1579.79 1221.18 1579.79L977.312 1564.48Z" fill="#FFAAAC"/>
<path fill-rule="evenodd" clip-rule="evenodd" d="M876.455 1658.69L876.209 1659.21C875.635 1660.41 874.358 1661.1 873.041 1660.93C871.728 1660.75 870.675 1659.74 870.444 1658.43C868.604 1648.21 867.791 1632.76 870.915 1616.68C872.015 1611.02 873.6 1605.28 875.797 1599.66L869.792 1605.77C868.935 1606.65 867.647 1606.94 866.5 1606.52C865.352 1606.1 864.553 1605.05 864.461 1603.83C864.285 1601.56 865.227 1596.86 867.346 1590.85C871.551 1578.94 880.252 1561.4 891.728 1548.14C902.198 1536.05 915.02 1527.64 928.736 1529.17C940.186 1530.45 950.039 1535.12 957.967 1540.61C969.24 1548.43 976.58 1557.9 979.063 1561.38C979.063 1561.38 1219.17 1576.6 1219.17 1576.6C1220.25 1573.96 1222.29 1569.09 1224.77 1563.58C1226.94 1558.77 1229.44 1553.47 1231.92 1548.77C1237.52 1538.17 1245.33 1532.15 1254.47 1529.91C1266.48 1526.97 1281.03 1530.69 1296.23 1539.88C1309.43 1547.86 1319.31 1561.59 1326.56 1576.64C1341.6 1607.88 1345.33 1644.7 1345.33 1644.7C1345.45 1645.89 1344.84 1647.04 1343.79 1647.6C1342.73 1648.16 1341.44 1648.03 1340.52 1647.26L1320.13 1630.33C1324.38 1639.28 1327.63 1648.57 1329.9 1658.19C1333.25 1672.33 1334.48 1687.19 1333.71 1702.71C1333.65 1703.96 1332.78 1705.03 1331.57 1705.35C1330.36 1705.67 1329.08 1705.19 1328.4 1704.13C1328.4 1704.13 1310.22 1676.03 1310.22 1676.04C1313.72 1694.78 1315.56 1721.8 1315.75 1746.39C1315.94 1770.31 1314.64 1791.9 1312.09 1801.29C1311.34 1804.07 1310.36 1805.96 1309.43 1806.9C1308.43 1807.91 1307.33 1808.28 1306.25 1808.23C1304.97 1808.18 1303.89 1807.27 1303.62 1806.02L1290.99 1748.49L1291.39 1755.13C1291.47 1756.5 1290.54 1757.73 1289.19 1758.01C1287.84 1758.3 1286.49 1757.55 1286 1756.26L1240.01 1632.59L958.938 1636.21L939.233 1718.84C938.931 1720.1 937.824 1721.01 936.532 1721.04C935.237 1721.08 934.078 1720.25 933.699 1719.02C933.699 1719.02 926.275 1694.72 926.275 1694.71C924.685 1702.04 923.501 1709 922.68 1716.55C921.267 1729.59 920.944 1744.39 921.47 1765.84C921.503 1767.3 920.451 1768.56 919.005 1768.79C917.555 1769.01 916.168 1768.13 915.76 1766.72C906.838 1736.14 888.95 1719.51 884.458 1695.3C883.843 1691.99 883.468 1688.54 883.387 1684.9L878.199 1697.67C877.655 1699.01 876.227 1699.77 874.811 1699.46C873.394 1699.16 872.401 1697.89 872.449 1696.44C872.876 1683.79 874.068 1671.19 876.455 1658.69ZM889.807 1616.63C890.473 1615.18 891.165 1613.73 891.882 1612.29C891.889 1612.28 891.893 1612.26 891.9 1612.25C892.644 1610.76 894.446 1610.14 895.944 1610.87C897.441 1611.6 898.067 1613.4 897.349 1614.9L897.331 1614.94L894.995 1619.84C889.741 1631.33 886.014 1642.95 883.431 1654.64C881.702 1662.48 880.484 1670.35 879.664 1678.26L886.853 1660.61C887.449 1659.15 889.079 1658.41 890.565 1658.92C892.055 1659.44 892.883 1661.02 892.456 1662.54C887.511 1679.96 888.858 1692.83 893.074 1704.49C898.361 1719.11 907.894 1731.91 915.421 1748.92C915.418 1735.8 915.892 1725.4 916.926 1715.92C918.155 1704.67 920.171 1694.69 923.125 1682.98C923.438 1681.72 924.553 1680.83 925.848 1680.8C927.139 1680.77 928.298 1681.6 928.674 1682.84L936.109 1707.24L953.938 1632.74C954.24 1631.48 955.359 1630.58 956.657 1630.57L1241.89 1627.01C1243.06 1627 1244.12 1627.72 1244.53 1628.82L1284.7 1736.8L1283.26 1713.12C1283.17 1711.66 1284.22 1710.39 1285.66 1710.19C1287.1 1709.98 1288.46 1710.93 1288.77 1712.35L1307.34 1796.79C1308.84 1789.02 1309.74 1776.24 1310.03 1761.46C1310.29 1747.39 1310 1731.53 1309.09 1716.41C1307.54 1690.61 1304.38 1666.98 1299.02 1658.71C1298.16 1657.38 1298.54 1655.61 1299.86 1654.75C1301.19 1653.89 1302.96 1654.27 1303.82 1655.6C1303.82 1655.6 1328.15 1693.14 1328.15 1693.14C1328.09 1681.52 1326.81 1670.31 1324.25 1659.53C1320.94 1645.59 1315.5 1632.38 1307.81 1619.9C1307.06 1618.68 1307.31 1617.1 1308.39 1616.16C1309.47 1615.22 1311.07 1615.2 1312.17 1616.12L1338.48 1637.92C1336.61 1625.88 1331.78 1601.13 1321.2 1579.22C1314.46 1565.25 1305.39 1552.42 1293.13 1545.02C1282.1 1538.37 1271.51 1534.72 1262.15 1534.97C1251.83 1535.26 1243.16 1540.49 1237.3 1551.61C1234.88 1556.2 1232.45 1561.38 1230.34 1566.08C1226.7 1574.2 1224.02 1580.93 1224.02 1580.93C1223.53 1582.15 1222.31 1582.93 1220.98 1582.85L977.11 1567.67C976.094 1567.61 975.171 1567.06 974.619 1566.21C974.619 1566.21 967.294 1554.85 954.332 1545.85C947.198 1540.89 938.342 1536.64 928.026 1535.47C916.245 1534.15 905.495 1541.89 896.488 1552.27C885.539 1564.88 877.25 1581.59 873.236 1592.93C873.151 1593.17 873.071 1593.41 872.99 1593.64L888.207 1578.17C889.366 1576.99 891.249 1576.93 892.482 1578.03C893.714 1579.13 893.869 1581.01 892.824 1582.29C884.137 1593.01 879.343 1605.63 876.959 1617.86C874.903 1628.38 874.627 1638.6 875.223 1647.11L889.807 1616.63Z" fill="black"/>
<path fill-rule="evenodd" clip-rule="evenodd" d="M837.79 1806.2C838.532 1806.7 838.726 1807.71 838.222 1808.45C837.719 1809.2 836.708 1809.39 835.966 1808.88C835.966 1808.88 819.064 1798.82 807.424 1789.1C802.358 1784.88 798.394 1780.57 796.691 1777.45C795.086 1774.07 794.898 1769.88 795.873 1765.78C797.612 1758.48 802.296 1751.66 802.296 1751.66C802.735 1750.88 803.725 1750.6 804.508 1751.04C805.289 1751.48 805.568 1752.47 805.13 1753.25C805.13 1753.25 802.224 1760.02 801.534 1766.74C801.253 1769.48 801.321 1772.21 802.571 1774.3C803.396 1775.84 804.993 1777.62 806.931 1779.64C809.288 1782.09 812.165 1784.82 815.218 1787.56C825.572 1796.83 837.79 1806.2 837.79 1806.2Z" fill="black"/>
<path fill-rule="evenodd" clip-rule="evenodd" d="M819.032 1869.13C819.752 1869.66 819.9 1870.68 819.365 1871.4C818.829 1872.12 817.811 1872.27 817.091 1871.74C817.091 1871.74 809.831 1867.26 801.346 1861.62C797.978 1859.39 794.372 1857.05 791.085 1854.57C788.114 1852.33 785.4 1850.01 783.078 1847.95C778.45 1843.85 775.506 1840.76 775.506 1840.76C774.786 1840.22 774.638 1839.21 775.173 1838.49C775.708 1837.76 776.727 1837.62 777.446 1838.16C777.446 1838.16 781.254 1840.09 786.508 1843.35C789.144 1844.99 792.137 1846.92 795.135 1849.13C798.454 1851.57 801.726 1854.35 804.836 1856.94C812.669 1863.46 819.032 1869.13 819.032 1869.13Z" fill="black"/>
<path fill-rule="evenodd" clip-rule="evenodd" d="M816.267 1837.87C817.128 1838.13 817.625 1839.03 817.377 1839.88C817.128 1840.75 816.226 1841.25 815.365 1840.99C815.365 1840.99 807.207 1839.21 800.049 1835.88C796.134 1834.06 792.623 1831.66 790.532 1829.07C788.642 1826.53 786.596 1821.59 785.291 1816.14C784.677 1813.58 784.259 1810.92 783.941 1808.4C783.128 1801.98 783.027 1796.71 783.027 1796.71C782.891 1795.82 783.5 1794.99 784.386 1794.86C785.272 1794.72 786.102 1795.33 786.238 1796.22C786.238 1796.22 788.374 1803.27 790.64 1810.84C791.616 1814.11 792.547 1817.47 793.533 1820.31C794.253 1822.39 794.865 1824.2 795.649 1825.35C797.058 1827.52 799.689 1829.5 802.541 1831.25C808.893 1835.15 816.267 1837.87 816.267 1837.87Z" fill="black"/>
<path fill-rule="evenodd" clip-rule="evenodd" d="M986.144 1854.35C985.416 1853.82 985.25 1852.8 985.772 1852.08C986.296 1851.35 987.312 1851.19 988.039 1851.71C988.039 1851.71 1004.1 1862.13 1017.89 1871.37C1021.43 1873.75 1024.82 1876.05 1027.72 1878.09C1033.44 1882.12 1037.36 1885.09 1037.36 1885.09C1038.06 1885.6 1038.54 1886.36 1038.69 1887.21C1038.69 1887.21 1039.39 1892.26 1040 1898.02C1040.81 1905.59 1041.51 1914.31 1041.51 1914.31C1041.66 1915.2 1041.06 1916.04 1040.18 1916.18C1039.29 1916.33 1038.45 1915.73 1038.31 1914.85C1038.31 1914.85 1036.14 1906.37 1034.45 1898.95C1033.58 1895.12 1032.85 1891.59 1032.47 1889.71C1030.92 1888.64 1027.76 1886.42 1023.82 1883.54C1020.95 1881.43 1017.7 1878.95 1014.31 1876.35C1001.15 1866.24 986.144 1854.35 986.144 1854.35Z" fill="black"/>
<path fill-rule="evenodd" clip-rule="evenodd" d="M1103.17 1877.04C1080.22 1877.04 1046.42 1862.93 1017.22 1841.19C1011.48 1836.91 1021.48 1822.74 1010.74 1815.48C993.799 1804.03 988.564 1815.76 983.337 1809.44C968.126 1791.03 958.102 1770.4 958.102 1749.57C958.102 1668.88 1021.03 1594.11 1101.17 1594.11C1181.32 1594.11 1245.58 1648.8 1245.58 1729.5C1245.58 1794.16 1151.58 1877.04 1103.17 1877.04Z" fill="#FF050B"/>
<path fill-rule="evenodd" clip-rule="evenodd" d="M1103.17 1878.56C1092.53 1878.72 1079.55 1875.94 1065.74 1870.81C1049.32 1864.71 1031.73 1855.28 1015.47 1843.55C1013.15 1841.86 1012.28 1839.18 1012.28 1835.82C1012.28 1832.09 1013.58 1827.24 1012.43 1822.96C1011.95 1821.17 1010.89 1819.55 1008.89 1818.23C1005.13 1815.76 1002.04 1814.53 999.432 1814.01C994.258 1812.99 990.953 1814.76 988.284 1815.03C985.413 1815.32 982.968 1814.72 980.478 1811.8C972.822 1802.78 966.415 1793.2 961.767 1783.32C956.621 1772.36 953.677 1761.01 953.531 1749.57C953.126 1708.43 968.576 1668.58 994.387 1638.81C1021.1 1607.99 1058.87 1588.07 1101.17 1587.88C1142.52 1588.1 1179.77 1602.25 1206.65 1626.81C1233.91 1651.73 1250.55 1687.27 1250.13 1729.5C1249.71 1761.41 1227.34 1797.55 1198.28 1826.2C1167.19 1856.85 1128.73 1878.94 1103.17 1878.56ZM1103.17 1875.53C1127.98 1875.16 1164.5 1852.39 1193.84 1821.82C1220.54 1793.99 1241.43 1759.65 1241.03 1729.5C1240.64 1690.43 1224.64 1657.91 1199.07 1635.24C1173.88 1612.91 1139.39 1600.15 1101.17 1600.35C1062.4 1600.18 1027.88 1618.48 1002.98 1646.37C978.369 1673.96 963.053 1710.96 962.668 1749.57C962.538 1759.79 964.979 1769.98 969.322 1779.89C973.438 1789.28 979.233 1798.42 986.192 1807.08C986.816 1807.85 987.469 1807.84 988.256 1807.72C989.006 1807.61 989.813 1807.43 990.697 1807.26C993.398 1806.73 996.666 1806.27 1000.87 1807.22C1004.12 1807.95 1007.98 1809.53 1012.6 1812.74C1016.11 1815.17 1017.86 1818.17 1018.64 1821.38C1019.66 1825.59 1018.83 1830.22 1018.44 1834.16C1018.33 1835.33 1018.24 1836.42 1018.37 1837.38C1018.45 1837.96 1018.54 1838.49 1018.98 1838.83C1034.51 1850.75 1051.41 1860.48 1067.25 1866.91C1080.45 1872.27 1092.89 1875.37 1103.17 1875.53Z" fill="black"/>
<path fill-rule="evenodd" clip-rule="evenodd" d="M1088.9 1830.32C1088.9 1830.32 1148.17 1780.6 1164.55 1791.93C1180.94 1803.27 1191.68 1818.52 1182.01 1828.5C1172.34 1838.48 1088.9 1830.32 1088.9 1830.32Z" fill="white"/>
<path fill-rule="evenodd" clip-rule="evenodd" d="M1087.82 1829.04C1087.82 1829.04 1115.42 1804.77 1138.23 1793.15C1145.07 1789.67 1151.53 1787.37 1156.76 1786.93C1160.66 1786.6 1163.97 1787.34 1166.54 1789.06C1175.7 1795.26 1183.19 1802.68 1186.83 1809.83C1190.78 1817.59 1190.52 1825.11 1184.69 1831.1C1183.38 1832.44 1181.14 1833.69 1178.04 1834.55C1172.67 1836.03 1164.28 1836.71 1154.7 1836.74C1126.85 1836.82 1088.73 1831.99 1088.73 1831.99C1088.06 1831.92 1087.49 1831.46 1087.3 1830.82C1087.1 1830.17 1087.3 1829.47 1087.82 1829.04ZM1093.42 1828.93C1104.17 1829.56 1132.63 1831.01 1154.54 1830.04C1161.99 1829.71 1168.65 1829.12 1173.54 1828.06C1176.27 1827.48 1178.36 1826.92 1179.33 1825.9C1182.78 1822.33 1182.42 1817.85 1180.11 1813.22C1176.98 1806.92 1170.48 1800.39 1162.57 1794.8C1160.71 1793.48 1158.06 1793.41 1154.96 1793.91C1148.78 1794.89 1141.11 1798.24 1133.23 1802.5C1117.22 1811.14 1100.47 1823.53 1093.42 1828.93Z" fill="black"/>
<path d="M1174.52 1805.77C1153.84 1801.92 1129.56 1808.98 1107.06 1816.16" stroke="black" stroke-width="3.66818" stroke-miterlimit="1.5" stroke-linecap="square" stroke-linejoin="round"/>
<path fill-rule="evenodd" clip-rule="evenodd" d="M1097.48 1767.38C1097.48 1767.38 1103.72 1768.99 1109.31 1770.75C1113.47 1772.06 1116.97 1773.4 1116.97 1773.4C1119.05 1774.54 1120.18 1776.87 1119.8 1779.21C1119.42 1781.55 1117.6 1783.4 1115.27 1783.81C1115.27 1783.81 1112.55 1784.77 1108.95 1785.56C1107.61 1785.85 1106.14 1786.11 1104.66 1786.26C1099.15 1786.81 1093.69 1786.68 1093.69 1786.68C1092.12 1786.96 1090.52 1786.41 1089.45 1785.23C1088.39 1784.04 1088.01 1782.39 1088.45 1780.86L1095.29 1768.29C1095.42 1767.85 1095.74 1767.48 1096.17 1767.31C1096.59 1767.13 1097.08 1767.16 1097.48 1767.38ZM1101.05 1774.58C1099.91 1773.58 1098.87 1772.64 1098.04 1771.89C1098.04 1771.89 1097.8 1775.56 1097.81 1775.56C1098.82 1775.24 1099.92 1774.9 1101.05 1774.58Z" fill="black"/>
<path fill-rule="evenodd" clip-rule="evenodd" d="M1038.82 1747.49C1051.07 1747.9 1068.59 1748.22 1068.76 1743.14C1068.93 1738.07 1051.62 1730.4 1039.38 1729.99C1027.14 1729.58 1018.35 1727.03 1018.18 1732.1C1018.01 1737.17 1026.58 1747.07 1038.82 1747.49Z" fill="white"/>
<path fill-rule="evenodd" clip-rule="evenodd" d="M1038.77 1749.01C1033.35 1748.91 1028.59 1747.05 1024.87 1744.53C1019.29 1740.76 1016.18 1735.4 1016.24 1732.04C1016.29 1729.29 1017.83 1727.81 1020.77 1727.21C1024.43 1726.47 1031.18 1727.56 1039.46 1727.72C1047.07 1727.88 1056.6 1730.7 1063.05 1734.08C1065.88 1735.56 1068.12 1737.19 1069.5 1738.72C1070.88 1740.26 1071.46 1741.84 1071.43 1743.23C1071.39 1744.97 1070.46 1746.51 1068.57 1747.66C1066.95 1748.65 1064.37 1749.41 1061.21 1749.81C1058.52 1750.15 1055.37 1750.32 1052.1 1750.22C1047.6 1750.09 1042.91 1749.47 1038.77 1749.01ZM1066.1 1742.98C1066.2 1742.91 1066.24 1742.85 1066.16 1742.78C1066.1 1742.73 1066.1 1742.87 1066.1 1742.98ZM1066.09 1742.98C1066.05 1742.81 1065.89 1742.66 1065.75 1742.47C1065.41 1742.02 1064.95 1741.57 1064.4 1741.11C1062.21 1739.28 1058.75 1737.44 1054.84 1735.9C1049.86 1733.95 1044.17 1732.48 1039.3 1732.25C1032.75 1731.94 1027.21 1731.02 1023.45 1731.03C1022.57 1731.04 1021.81 1731.08 1021.18 1731.23C1020.59 1731.37 1020.15 1731.57 1020.12 1732.17C1020 1734.75 1022.66 1738.67 1026.86 1741.69C1030.04 1743.98 1034.15 1745.73 1038.87 1745.96C1042.96 1745.78 1047.59 1745.41 1052 1745.12C1055.06 1744.91 1057.98 1744.75 1060.49 1744.39C1062.41 1744.13 1064.06 1743.82 1065.26 1743.3C1065.5 1743.2 1065.9 1743.09 1066.09 1742.98Z" fill="black"/>
<path d="M1153.86 1753.52C1169.7 1753.52 1182.54 1743.68 1182.54 1731.53C1182.54 1719.39 1169.7 1709.54 1153.86 1709.54C1138.03 1709.54 1125.19 1719.39 1125.19 1731.53C1125.19 1743.68 1138.03 1753.52 1153.86 1753.52Z" fill="white"/>
<path fill-rule="evenodd" clip-rule="evenodd" d="M1153.87 1708.12C1157.61 1707.43 1161.15 1707.16 1164.61 1707.74C1168.43 1708.39 1171.81 1710.15 1174.79 1712.04C1179.7 1715.17 1183.34 1719.47 1185.14 1724.35C1185.98 1726.62 1186.38 1729.04 1186.37 1731.53C1186.26 1737.89 1183.35 1743.75 1178.34 1748.2C1172.43 1753.46 1163.65 1756.82 1153.87 1756.63C1146 1756.46 1138.84 1754.1 1133.44 1750.28C1126.83 1745.62 1122.76 1738.9 1122.92 1731.53C1123.07 1724.28 1127.23 1717.78 1133.91 1713.48C1139.29 1710.02 1146.26 1707.96 1153.87 1708.12ZM1153.87 1710.95C1146.97 1711.1 1140.71 1713.2 1135.97 1716.54C1130.68 1720.28 1127.34 1725.62 1127.46 1731.53C1127.59 1737.32 1131.12 1742.38 1136.45 1745.82C1141.13 1748.84 1147.24 1750.56 1153.87 1750.42C1160.4 1750.29 1166.33 1748.31 1170.83 1745.15C1175.67 1741.76 1178.79 1736.93 1178.7 1731.53C1178.7 1729.41 1178.17 1727.39 1177.27 1725.51C1175.9 1722.62 1173.67 1720.04 1170.78 1717.98C1168.48 1716.33 1165.74 1715.17 1162.85 1714.01C1159.98 1712.86 1157.17 1711.56 1153.87 1710.95Z" fill="black"/>
<path d="M1152.2 1730.13C1154.33 1730.13 1156.05 1727.95 1156.05 1725.27C1156.05 1722.59 1154.33 1720.41 1152.2 1720.41C1150.07 1720.41 1148.34 1722.59 1148.34 1725.27C1148.34 1727.95 1150.07 1730.13 1152.2 1730.13Z" fill="white" fill-opacity="0.3"/>
<path fill-rule="evenodd" clip-rule="evenodd" d="M1152.2 1716.78C1154.17 1716.42 1155.93 1717.41 1157.59 1718.64C1159.44 1720.01 1160.38 1722.49 1160.79 1725.27C1161.12 1728.2 1159.91 1730.79 1158.36 1732.64C1156.81 1734.51 1154.53 1735.34 1152.2 1735.44C1149.85 1735.32 1147.58 1734.5 1146.05 1732.63C1144.52 1730.78 1143.31 1728.19 1143.64 1725.27C1144.05 1722.5 1144.99 1720.03 1146.82 1718.66C1148.47 1717.42 1150.22 1716.45 1152.2 1716.78ZM1151.43 1724.94C1150.98 1725.08 1150.61 1725.31 1150.88 1725.52C1150.99 1725.64 1151.28 1725.45 1151.3 1725.27C1151.32 1725.18 1151.36 1725.05 1151.43 1724.94ZM1152.92 1724.94C1152.98 1725.05 1153.02 1725.17 1153.04 1725.27C1153.06 1725.47 1153.36 1725.65 1153.48 1725.55C1153.75 1725.32 1153.37 1725.08 1152.92 1724.94Z" fill="black"/>
<path d="M1044.24 1735.98C1046.37 1735.98 1048.1 1734.55 1048.1 1732.79C1048.1 1731.03 1046.37 1729.6 1044.24 1729.6C1042.11 1729.6 1040.39 1731.03 1040.39 1732.79C1040.39 1734.55 1042.11 1735.98 1044.24 1735.98Z" fill="white" fill-opacity="0.3"/>
<path fill-rule="evenodd" clip-rule="evenodd" d="M1044.24 1726.89C1046.34 1726.56 1048.17 1727.47 1049.57 1728.55C1050.91 1729.57 1051.42 1731.15 1051.64 1732.79C1051.86 1734.88 1050.78 1736.78 1049.14 1738.22C1047.92 1739.3 1046.14 1739.86 1044.24 1739.95C1041.88 1739.82 1039.75 1738.94 1038.51 1737.41C1037.43 1736.06 1036.66 1734.5 1036.87 1732.79C1037.08 1731.16 1037.6 1729.58 1038.91 1728.56C1040.31 1727.47 1042.14 1726.57 1044.24 1726.89ZM1043.93 1732.44C1043.62 1732.6 1043.35 1732.91 1043.55 1733.05C1043.67 1733.14 1043.92 1732.94 1043.89 1732.79C1043.89 1732.71 1043.91 1732.57 1043.93 1732.44ZM1043.99 1732.11C1043.99 1732.04 1043.99 1732.03 1043.94 1732.1C1043.92 1732.13 1043.95 1732.13 1043.99 1732.11ZM1044.46 1732.09C1044.51 1732.1 1044.54 1732.11 1044.52 1732.08C1044.48 1732.02 1044.46 1732.02 1044.46 1732.09ZM1044.51 1732.43C1044.53 1732.57 1044.55 1732.71 1044.54 1732.79C1044.52 1732.95 1044.79 1733.16 1044.92 1733.06C1045.12 1732.92 1044.83 1732.59 1044.51 1732.43Z" fill="black"/>
<path fill-rule="evenodd" clip-rule="evenodd" d="M1080.25 1724.62C1080.62 1723.87 1081.53 1723.56 1082.28 1723.93C1083.04 1724.29 1083.35 1725.21 1082.98 1725.96L1078.11 1739.66C1077.4 1741.11 1075.71 1741.8 1074.18 1741.24C1067.64 1739.56 1061.16 1737.59 1054.93 1734.99C1048.45 1732.28 1042.31 1729.03 1036.83 1725.22C1033.7 1723.04 1030.81 1720.64 1028.22 1718.07C1024.78 1714.63 1021.87 1710.92 1019.46 1707.07C1016.83 1707.3 1013.04 1707.64 1008.97 1707.94C999.018 1708.69 987.639 1709.31 987.639 1709.31C986.815 1709.46 986.027 1708.91 985.88 1708.08C985.733 1707.26 986.285 1706.47 987.109 1706.32C987.109 1706.32 998.01 1703 1007.62 1700.29C1014.92 1698.23 1021.34 1696.58 1021.34 1696.58C1023.39 1696.21 1025.45 1697.11 1026.57 1698.86C1029.4 1702.73 1033.07 1706.12 1037.03 1709.51C1038.92 1711.13 1040.88 1712.74 1042.92 1714.33C1044.92 1715.9 1046.95 1717.47 1049.08 1718.99C1052.44 1721.4 1055.92 1723.72 1059.54 1725.95C1064.3 1728.88 1069.12 1731.7 1074.12 1734.2L1080.25 1724.62Z" fill="black"/>
<path fill-rule="evenodd" clip-rule="evenodd" d="M1109.79 1734.99C1109.04 1735.37 1108.12 1735.07 1107.75 1734.32C1107.37 1733.57 1107.67 1732.66 1108.42 1732.28C1108.42 1732.28 1117.48 1725.59 1129.72 1717.54C1131.59 1716.31 1133.52 1715.1 1135.54 1713.9C1138.44 1712.19 1141.42 1710.45 1144.49 1708.87C1146.53 1707.82 1148.62 1706.88 1150.7 1705.98C1153.96 1704.59 1157.17 1703.37 1160.28 1702.21C1163.76 1700.89 1167 1699.74 1170 1698.71C1178.84 1695.68 1184.79 1693.87 1184.79 1693.87C1185.54 1693.49 1186.46 1693.79 1186.83 1694.54C1187.21 1695.29 1186.91 1696.2 1186.16 1696.58C1186.16 1696.58 1181.15 1700.28 1173.45 1705.56C1170.84 1707.36 1167.98 1709.28 1164.85 1711.29C1162.06 1713.09 1159.16 1714.95 1156.1 1716.73C1154.14 1717.87 1152.14 1718.98 1150.09 1719.99C1146.99 1721.52 1143.81 1722.87 1140.71 1724.18C1138.54 1725.09 1136.41 1725.91 1134.31 1726.68C1120.56 1731.71 1109.79 1734.99 1109.79 1734.99Z" fill="black"/>
<path fill-rule="evenodd" clip-rule="evenodd" d="M951.076 1790.53L956.112 1761.65L981.804 1810.03C978.198 1763.93 982.073 1726.66 1015.62 1679.45L1006.63 1746.8C1017.03 1716.49 1033.04 1689.24 1060 1667.96C1055.66 1708.57 1080.17 1732.97 1103.42 1759.31C1088.04 1735.38 1083.06 1716.36 1084.65 1700.44C1094.92 1729.48 1114.48 1752.47 1141.12 1770.83C1131.61 1749.09 1115.64 1726.54 1127.5 1696.54C1147.98 1726.6 1171.87 1714.44 1204.19 1730.52L1177.23 1688.02L1222.17 1758.88L1221.49 1718.17C1229.07 1748.76 1229.23 1778.12 1222.83 1806.38L1235.85 1780.49L1232.57 1852.36C1255.12 1815.17 1267.01 1769.96 1270.95 1718.78C1270.95 1718.78 1255.46 1577.89 1223.91 1552.34C1181.17 1517.73 1135.75 1508.08 1095.06 1510.6C1089.84 1510.92 1057.94 1475.97 1057.94 1475.97C1057.94 1475.97 1060.84 1516.05 1056.44 1513.62C1045.94 1507.82 970.204 1491.17 971.157 1496.95L1009.3 1523.17C1009.3 1523.17 959.159 1541.12 939.589 1565.8C921.436 1588.68 904.119 1626.21 910.2 1675.2C916.23 1723.75 951.076 1790.53 951.076 1790.53Z" fill="#FFAAAC"/>
<path fill-rule="evenodd" clip-rule="evenodd" d="M1054.86 1509C1056.04 1499.45 1054.28 1476.23 1054.28 1476.23C1054.17 1474.67 1055.06 1473.21 1056.49 1472.6C1057.93 1471.98 1059.6 1472.34 1060.66 1473.49C1060.66 1473.49 1071.68 1485.54 1081.79 1495.36C1086.29 1499.73 1090.59 1503.65 1093.6 1505.79C1094.19 1506.21 1094.99 1506.65 1095.32 1506.83C1117.46 1505.49 1140.96 1507.69 1164.69 1515.39C1185.33 1522.09 1206.14 1532.95 1226.38 1549.29C1236.11 1557.15 1244.64 1575.38 1251.48 1597.36C1267.22 1647.92 1275.03 1718.33 1275.03 1718.33C1275.06 1718.58 1275.06 1718.84 1275.04 1719.1C1273.16 1743.84 1269.44 1767.2 1263.57 1788.96C1257.14 1812.84 1248.12 1834.79 1236.16 1854.53C1235.16 1856.17 1233.18 1856.93 1231.35 1856.37C1229.51 1855.81 1228.29 1854.08 1228.38 1852.16L1230.74 1800.05L1226.6 1808.28C1225.64 1810.18 1223.41 1811.08 1221.41 1810.36C1219.4 1809.64 1218.25 1807.53 1218.71 1805.45C1221.86 1791.56 1223.39 1777.39 1223.19 1762.94C1221.45 1763.37 1219.61 1762.65 1218.64 1761.12L1201.23 1733.62C1189.35 1727.91 1178.63 1726.1 1168.84 1724.33C1160.14 1722.75 1152.12 1721.17 1144.6 1717.4C1139.14 1714.66 1133.93 1710.81 1128.92 1704.98C1126.94 1712.68 1126.87 1719.84 1127.95 1726.63C1130.45 1742.24 1138.86 1755.89 1144.69 1769.27C1145.39 1770.86 1144.94 1772.72 1143.6 1773.83C1142.26 1774.94 1140.34 1775.02 1138.91 1774.04C1125.49 1764.76 1113.83 1754.34 1104.21 1742.6C1098.93 1736.17 1094.26 1729.34 1090.24 1722.08C1090.42 1722.82 1090.62 1723.56 1090.84 1724.31C1093.63 1734.15 1098.69 1745.06 1106.54 1757.31C1107.59 1758.94 1107.21 1761.1 1105.66 1762.27C1104.11 1763.44 1101.93 1763.22 1100.64 1761.77C1086.17 1745.33 1071.29 1729.58 1062.9 1710.39C1058.4 1700.09 1055.74 1688.82 1055.95 1675.94C1045.82 1684.85 1037.42 1694.7 1030.39 1705.31C1021.67 1718.48 1015.05 1732.8 1009.84 1747.9C1009.27 1749.55 1007.54 1750.5 1005.85 1750.1C1004.15 1749.7 1003.03 1748.08 1003.26 1746.35L1010.47 1693C999.615 1710.22 992.783 1726.23 988.762 1742.09C983.195 1764.04 982.993 1785.69 984.836 1809.79C984.946 1811.23 984.038 1812.54 982.654 1812.95C981.271 1813.35 979.792 1812.73 979.119 1811.45L957.522 1770.61L953.924 1791.02C953.71 1792.25 952.746 1793.19 951.521 1793.39C950.296 1793.57 949.089 1792.96 948.515 1791.87C948.515 1791.87 931.687 1759.74 919.273 1723.77C913.703 1707.64 909.031 1690.73 907.117 1675.58C904.354 1653.6 906.216 1633.88 910.738 1616.68C916.51 1594.72 926.624 1576.89 937.011 1563.75C943.405 1555.66 952.949 1548.23 963.041 1541.9C977.739 1532.67 993.57 1525.75 1002.01 1522.32L969.177 1499.83C968.394 1499.29 967.864 1498.46 967.71 1497.52C967.448 1495.97 967.919 1494.62 969.31 1493.56C970.075 1492.97 971.643 1492.37 974.008 1492.26C977.113 1492.13 982.316 1492.62 988.681 1493.56C1009.39 1496.63 1042.76 1504.47 1054.86 1509ZM1193.75 1721.82L1173.75 1690.23L1180.71 1685.81L1217.73 1744.09L1217.29 1718.24C1217.25 1716.1 1218.82 1714.28 1220.94 1714C1223.06 1713.72 1225.04 1715.08 1225.56 1717.15C1229.35 1732.44 1231.33 1747.43 1231.6 1762.12C1231.71 1768.37 1231.52 1774.56 1231.02 1780.7L1232.08 1778.59C1232.98 1776.81 1235 1775.9 1236.92 1776.4C1238.85 1776.91 1240.16 1778.69 1240.07 1780.68C1240.07 1780.68 1237.59 1834.58 1237.59 1834.58C1245.01 1819.73 1250.93 1803.76 1255.53 1786.79C1261.26 1765.63 1264.93 1742.91 1266.82 1718.85C1266.27 1713.88 1260.23 1661.55 1248.56 1616.4C1241.53 1589.21 1232.73 1564.55 1221.44 1555.38C1202.06 1539.64 1182.12 1529.15 1162.31 1522.67C1139.39 1515.16 1116.68 1513.03 1095.29 1514.33C1094.37 1514.38 1092.98 1514.12 1091.33 1513.2C1089.56 1512.21 1087.07 1510.29 1084.22 1507.78C1077.43 1501.83 1068.34 1492.44 1062.16 1485.9C1062.53 1494.4 1062.79 1505.97 1061.84 1511.39C1061.34 1514.23 1060.17 1515.93 1059.26 1516.57C1057.9 1517.53 1056.38 1517.73 1054.69 1516.79C1046.85 1512.45 1001.88 1501.97 981.293 1499.69L1011.24 1520.34C1012.3 1521.07 1012.86 1522.33 1012.7 1523.61C1012.53 1524.88 1011.67 1525.96 1010.46 1526.39C1010.46 1526.39 987.371 1534.61 966.587 1547.57C957.147 1553.46 948.166 1560.31 942.169 1567.84C932.209 1580.36 922.504 1597.36 916.922 1618.32C912.533 1634.8 910.697 1653.72 913.284 1674.82C915.09 1689.59 919.601 1706.08 924.972 1721.81C933.464 1746.7 944.104 1769.74 949.729 1781.34L953.214 1761.15C953.431 1759.91 954.409 1758.94 955.653 1758.74C956.893 1758.55 958.125 1759.16 958.714 1760.27L977.89 1796.23C977.058 1776.88 978.059 1758.82 982.625 1740.55C987.64 1720.47 996.959 1700.12 1012.94 1677.54C1013.82 1676.31 1015.42 1675.84 1016.83 1676.39C1018.23 1676.94 1019.08 1678.39 1018.88 1679.88C1018.88 1679.88 1013.43 1721.2 1013.43 1721.2C1016.73 1714.4 1020.44 1707.81 1024.6 1701.48C1033.39 1688.14 1044.24 1675.92 1057.81 1665.18C1058.93 1664.29 1060.47 1664.17 1061.72 1664.86C1062.97 1665.55 1063.68 1666.92 1063.53 1668.34C1061.94 1683.38 1064.5 1696.09 1069.52 1707.49C1073.66 1716.89 1079.45 1725.4 1085.99 1733.58C1085.07 1731.12 1084.28 1728.71 1083.6 1726.37C1080.84 1716.73 1080.1 1708.03 1080.89 1700.06C1081.06 1698.29 1082.44 1696.89 1084.2 1696.68C1085.96 1696.47 1087.64 1697.5 1088.23 1699.18C1093.3 1713.48 1100.7 1726.27 1110.14 1737.72C1116.24 1745.12 1123.2 1751.97 1130.92 1758.31C1126.35 1748.73 1121.91 1738.75 1120.15 1727.89C1118.51 1717.81 1119.09 1706.99 1123.79 1695.07C1124.33 1693.7 1125.59 1692.73 1127.06 1692.57C1128.53 1692.41 1129.96 1693.07 1130.8 1694.29C1136.3 1702.35 1142.04 1707.14 1148.19 1710.2C1155.04 1713.62 1162.36 1714.94 1170.28 1716.36C1177.59 1717.67 1185.38 1719.03 1193.75 1721.82Z" fill="black"/>
<path fill-rule="evenodd" clip-rule="evenodd" d="M947.887 1778.46C940.831 1743.06 939.04 1709.24 944.649 1677.65L929.934 1690.73C923.63 1663.33 937.757 1641.64 955.529 1611.77L936.21 1616.15C949.984 1575.7 969.804 1549.47 1017.19 1524.88L957.866 1542.48L929.212 1574.27L919.672 1554.32L905.056 1566.72L899.106 1545.67L872.352 1592.22L890.701 1579.51C872.366 1606.03 868.925 1627.43 874.034 1645.88L879.137 1680.88L914.153 1751.27L921.923 1713.67L947.887 1778.46Z" fill="black" fill-opacity="0.3"/>
<path fill-rule="evenodd" clip-rule="evenodd" d="M1062.18 1697.58L1041.59 1712.48L1026.66 1724.47L1017.33 1714.81L1061.17 1667.2L1062.18 1697.58Z" fill="black" fill-opacity="0.3"/>
<path fill-rule="evenodd" clip-rule="evenodd" d="M1007.91 1726.56C996.914 1766.65 1007.49 1804.55 1029.17 1846.35L1015.95 1835.61C1015.47 1815.44 1002.74 1809.28 984.168 1809.79L979.68 1806.15C977.603 1756.33 989.366 1713.51 1012.02 1676.21L1007.91 1726.56Z" fill="black" fill-opacity="0.3"/>
<path fill-rule="evenodd" clip-rule="evenodd" d="M980.763 1833.53L965.417 1836.32L965.859 1847.2L952.361 1848.33L949.955 1862.3L973.259 1877.16L960.636 1852.74L983.533 1848.2L980.763 1833.53Z" fill="black" fill-opacity="0.3"/>
<path fill-rule="evenodd" clip-rule="evenodd" d="M930.056 1871.71L926.405 1878.08L945.682 1908.46L959.171 1909.67L930.056 1871.71Z" fill="black" fill-opacity="0.3"/>
<path fill-rule="evenodd" clip-rule="evenodd" d="M911.583 1909.87L907.511 1914.29L926.921 1935.68L927.766 1941.35L937.035 1933.91L911.583 1909.87Z" fill="black" fill-opacity="0.3"/>
<path fill-rule="evenodd" clip-rule="evenodd" d="M817.092 1872.98C817.092 1872.98 758.804 1833.19 764.004 1807.65C766.575 1795 785.153 1763.48 785.153 1763.48C738.887 1707.58 698.18 1652.89 682.897 1603.8C680.11 1639.81 712.005 1697.99 767.129 1771.02L748.641 1823.94C772.423 1865.27 791.302 1877.36 807.734 1874.86L817.092 1872.98Z" fill="black" fill-opacity="0.3"/>
</svg>
