<svg width="2160" height="2700" viewBox="0 0 2160 2700" fill="none" xmlns="http://www.w3.org/2000/svg">
<g clip-path="url(#clip0_910_793)">
<path fill-rule="evenodd" clip-rule="evenodd" d="M-114.869 51.9967C-115.021 50.0717 -113.58 48.3847 -111.655 48.2337C-109.729 48.0817 -108.042 49.5227 -107.891 51.4477C-80.2379 402.898 -28.8589 867.685 100.79 1246.81C187.012 1498.95 307.785 1713.19 479.493 1830.56C687.8 1972.94 1071.21 1978.52 1430.54 1872.74C1789.9 1766.95 2125.36 1549.69 2237.41 1245.27C2238.07 1243.46 2240.09 1242.53 2241.9 1243.19C2243.71 1243.86 2244.64 1245.88 2243.98 1247.69C2131.24 1553.97 1794.08 1773.02 1432.52 1879.46C1070.94 1985.9 685.154 1979.61 475.543 1836.34C302.749 1718.23 180.934 1502.81 94.1661 1249.08C-35.6689 869.402 -87.1759 403.954 -114.869 51.9967Z" fill="white" stroke="black" stroke-width="7" stroke-miterlimit="2" stroke-linejoin="round"/>
<path fill-rule="evenodd" clip-rule="evenodd" d="M109.842 -22.0691C109.678 -24.0401 111.147 -25.772 113.118 -25.935C115.089 -26.097 116.821 -24.629 116.984 -22.657C145.943 328.775 199.746 793.541 335.516 1172.65C425.806 1424.76 552.29 1639 732.1 1756.36C950.291 1898.77 1351.89 1904.36 1728.28 1798.56C2104.62 1692.77 2455.96 1475.53 2573.3 1171.1C2574.01 1169.25 2576.09 1168.33 2577.93 1169.04C2579.77 1169.76 2580.69 1171.83 2579.99 1173.68C2461.94 1479.95 2108.85 1699.03 1730.21 1805.46C1351.61 1911.88 947.662 1905.61 728.184 1762.36C547.211 1644.25 419.641 1428.81 328.767 1175.06C192.79 795.374 138.844 329.904 109.842 -22.0691Z" fill="white" stroke="black" stroke-width="6.99976" stroke-miterlimit="2" stroke-linejoin="round"/>
<path fill-rule="evenodd" clip-rule="evenodd" d="M727.171 -17.2181C727.026 -18.9901 728.345 -20.5471 730.117 -20.6931C731.889 -20.8391 733.446 -19.5191 733.593 -17.7471C762.377 317.38 814.108 755.586 937.856 1123.86C1029.64 1397.01 1160.82 1631.73 1352.55 1755.91C1575.56 1900.38 1799.26 2010.21 2026.7 2025.18C2241.55 2039.32 2459.48 1968.2 2683.2 1761.58C2689.32 1755.96 2698.86 1756.37 2704.48 1762.5C2710.1 1768.62 2709.69 1778.16 2703.57 1783.78C2471.58 1995.11 2246.25 2066.25 2024.97 2050.14C1794.01 2033.32 1567.23 1920.9 1341.68 1772.57C1147.86 1645.11 1015.37 1406.45 924.088 1128.43C802.613 758.446 753.695 318.885 727.171 -17.2181Z" fill="white" stroke="black" stroke-width="6.99976" stroke-miterlimit="2" stroke-linejoin="round"/>
<path fill-rule="evenodd" clip-rule="evenodd" d="M1701.52 -171.372C1701.79 -173.129 1703.43 -174.337 1705.19 -174.066C1706.95 -173.796 1708.16 -172.15 1707.89 -170.392C1630.39 353.515 1653.67 763.07 1741.18 1048.55C1850.29 1404.46 2058.64 1566.15 2296.03 1508.19C2304.12 1506.27 2312.25 1511.27 2314.17 1519.36C2316.1 1527.45 2311.09 1535.58 2303 1537.51C2053.23 1595.44 1831.56 1429.25 1721.4 1054.49C1636.73 766.463 1617.53 354.448 1701.52 -171.372Z" fill="white" stroke="black" stroke-width="7" stroke-miterlimit="2" stroke-linejoin="round"/>
<path fill-rule="evenodd" clip-rule="evenodd" d="M1324.06 -40.0905C1324.33 -41.8485 1325.98 -43.0555 1327.74 -42.7855C1329.49 -42.5145 1330.7 -40.8685 1330.43 -39.1115C1244.77 535.328 1374.96 1071.64 1581.54 1461.15C1715.27 1713.3 1880.84 1903.78 2040.36 2002.31C2140.81 2064.35 2238.49 2089.76 2323.63 2069.08C2331.72 2067.16 2339.85 2072.16 2341.77 2080.25C2343.7 2088.34 2338.69 2096.48 2330.6 2098.4C2238.75 2119.82 2133.43 2093.24 2025.92 2025.46C1864.42 1923.66 1697.04 1728.7 1563.25 1470.75C1359.1 1077.17 1232.63 536.753 1324.06 -40.0905Z" fill="white" stroke="black" stroke-width="7" stroke-miterlimit="2" stroke-linejoin="round"/>
<path fill-rule="evenodd" clip-rule="evenodd" d="M2180.4 -319.264C2180.55 -321.859 2182.77 -323.848 2185.37 -323.704C2187.96 -323.558 2189.95 -321.333 2189.81 -318.74C2159.31 227.082 2102.6 948.916 1959.62 1537.72C1864.1 1931.11 1729.93 2265.14 1539.7 2448.26C1354.57 2626.47 1045.02 2668.45 724.176 2593.21C244.025 2480.61 -261.218 2105.72 -410.238 1535.54C-410.888 1533.01 -409.379 1530.45 -406.867 1529.78C-404.356 1529.13 -401.779 1530.63 -401.129 1533.15C-253.033 2099.76 249.191 2472.14 726.335 2584.04C1043.69 2658.46 1350.04 2617.75 1533.17 2441.47C1722.41 2259.32 1855.45 1926.83 1950.47 1535.5C2093.32 947.233 2149.94 226.057 2180.4 -319.264Z" fill="white" stroke="black" stroke-width="4.86263" stroke-miterlimit="2" stroke-linejoin="round"/>
<path fill-rule="evenodd" clip-rule="evenodd" d="M1932.72 -434.204C1932.88 -436.841 1935.14 -438.854 1937.78 -438.701C1940.41 -438.547 1942.43 -436.281 1942.27 -433.645C1910.34 112.192 1850.94 834.045 1701.21 1422.86C1601.16 1816.29 1460.65 2150.34 1261.42 2333.47C1067.59 2511.62 743.504 2553.58 407.607 2478.37C-95.2122 2365.78 -624.286 1990.85 -780.338 1420.68C-781.042 1418.13 -779.531 1415.49 -776.993 1414.8C-774.443 1414.1 -771.813 1415.6 -771.109 1418.15C-616.015 1984.8 -90.0098 2357.14 409.707 2469.03C742.17 2543.49 1063.09 2502.77 1254.94 2326.42C1453.1 2144.28 1592.43 1811.8 1691.93 1420.5C1841.52 832.259 1900.82 111.103 1932.72 -434.204Z" fill="white" stroke="black" stroke-width="4.89595" stroke-miterlimit="2" stroke-linejoin="round"/>
<path fill-rule="evenodd" clip-rule="evenodd" d="M1253.62 -426.604C1253.76 -428.975 1255.79 -430.785 1258.16 -430.647C1260.53 -430.509 1262.34 -428.472 1262.21 -426.102C1234.35 79.489 1183.44 736.064 1058.78 1298.49C958.434 1751.2 809.743 2142.87 588.163 2347.92C337.743 2579.68 85.5166 2754.59 -171.159 2779.06C-415.076 2802.29 -664.196 2691.32 -920.214 2362.92C-927.009 2354.14 -925.405 2341.5 -916.615 2334.71C-907.848 2327.91 -895.194 2329.51 -888.4 2338.29C-645.024 2654.91 -408.363 2765.64 -174.285 2744.93C76.52 2722.76 322.937 2551.76 569.019 2327.11C789.038 2126.24 936.808 1740.03 1038.86 1294C1167.16 733.277 1222.37 78.0324 1253.62 -426.604Z" fill="white" stroke="black" stroke-width="4.89595" stroke-miterlimit="2" stroke-linejoin="round"/>
<path fill-rule="evenodd" clip-rule="evenodd" d="M1745.2 1849.24C1746.37 1848.45 1748.01 1847.25 1749.28 1846.02C1758.6 1837.07 1770.92 1819.78 1778.71 1812.77L1782.43 1809.43L1789.12 1816.87L1785.4 1820.21C1776.22 1828.46 1760.79 1850.76 1751.25 1857.41C1746.7 1860.58 1742.65 1860.72 1739.91 1859.09C1738.04 1857.98 1736.23 1855.81 1735.47 1851.8C1734.8 1848.29 1735.64 1841.61 1737.75 1832.9C1742.13 1814.8 1751.55 1786.69 1758.2 1760.72C1761.91 1746.26 1764.76 1732.48 1765.28 1721.57C1765.58 1715.2 1765.19 1709.93 1763.33 1706.37C1741.4 1664.43 1703.76 1665.8 1679.71 1673.53C1669.61 1676.78 1661.89 1681.07 1658.93 1683.8L1655.26 1687.19L1648.47 1679.85L1652.15 1676.46C1655.65 1673.22 1664.67 1667.86 1676.65 1664.01C1704.14 1655.17 1747.12 1653.78 1772.19 1701.74C1774.68 1706.5 1775.67 1713.51 1775.27 1722.05C1774.72 1733.51 1771.78 1748 1767.89 1763.2C1761.25 1789.13 1751.84 1817.18 1747.47 1835.25C1745.96 1841.5 1744.95 1846.37 1745.2 1849.24Z" fill="white" stroke="black" stroke-width="5" stroke-miterlimit="2" stroke-linejoin="round"/>
<path fill-rule="evenodd" clip-rule="evenodd" d="M1811.98 1790.35L1808.77 1793.7L1802.06 1787.27L1805.28 1783.92C1811.48 1777.45 1821.73 1770.93 1830.6 1768.89C1837.98 1767.18 1844.47 1768.56 1848.36 1773.59C1850.71 1776.64 1852.05 1780.48 1852.41 1784.97C1852.87 1790.71 1851.7 1797.67 1849.41 1805.3C1844.46 1821.81 1834.22 1841.77 1826.24 1859.03C1821.21 1869.91 1817.07 1879.63 1816.1 1886.53C1811.9 1916.49 1835.85 1928.39 1857.38 1931.24C1866.3 1932.42 1874.91 1932.07 1881.2 1930.66C1884.49 1929.93 1887.1 1929.09 1888.32 1927.76L1891.48 1924.36L1898.3 1930.67L1895.14 1934.08C1893.49 1935.86 1890.63 1937.57 1886.75 1938.79C1879.46 1941.1 1868.07 1942.03 1856.15 1940.45C1829.98 1936.99 1801.78 1921.67 1806.9 1885.24C1809.1 1869.54 1826.24 1839.91 1836.35 1814.41C1840.12 1804.91 1842.88 1796.03 1843.19 1788.82C1843.35 1784.97 1842.85 1781.67 1841 1779.27C1839.22 1776.96 1836.07 1777.16 1832.68 1777.94C1825.42 1779.62 1817.07 1785.05 1811.98 1790.35Z" fill="white" stroke="black" stroke-width="4.96827" stroke-miterlimit="2" stroke-linejoin="round"/>
<path fill-rule="evenodd" clip-rule="evenodd" d="M1924.78 1907.55L1920.75 1910.52L1914.82 1902.47L1918.84 1899.5C1926.39 1893.95 1944.26 1887.55 1962.28 1896.03C1973.72 1901.42 1985.43 1912.89 1994.12 1935.18C1998.83 1947.31 1999.58 1966.89 2001.81 1987.02C2003.9 2005.7 2007.26 2024.94 2017.69 2038.18C2021.16 2042.59 2028.25 2044.34 2037.22 2045.25C2052.9 2046.83 2073.94 2044.87 2094.8 2042.82C2120.05 2040.34 2145.05 2037.75 2160.64 2040.38C2168.8 2041.76 2174.66 2044.72 2177.72 2049.03L2180.63 2053.1L2172.48 2058.9L2169.58 2054.83C2168.47 2053.28 2166.56 2052.3 2164.17 2051.49C2160.95 2050.41 2156.95 2049.8 2152.37 2049.49C2137.4 2048.48 2116.69 2050.72 2095.78 2052.77C2074.2 2054.89 2052.44 2056.83 2036.22 2055.2C2023.91 2053.96 2014.59 2050.42 2009.83 2044.36C1998.34 2029.77 1994.17 2008.71 1991.88 1988.12C1989.75 1968.99 1989.28 1950.33 1984.8 1938.81C1977.39 1919.78 1967.79 1909.68 1958.02 1905.08C1944.23 1898.59 1930.54 1903.3 1924.78 1907.55Z" fill="white" stroke="black" stroke-width="5" stroke-miterlimit="2" stroke-linejoin="round"/>
<path fill-rule="evenodd" clip-rule="evenodd" d="M180.403 -663.841C180.139 -666.219 181.857 -668.36 184.237 -668.621C186.616 -668.88 188.753 -667.159 189.017 -664.781C296.071 269.174 253.851 971.282 124.536 1417.98C-6.7067 1871.35 -231.146 2063.2 -476.911 1982.27C-487.518 1978.72 -493.246 1967.23 -489.688 1956.62C-486.13 1946.01 -474.642 1940.28 -464.034 1943.84C-234.385 2022.19 -32.7791 1833.03 94.8175 1409.2C228.318 965.827 277.059 267.19 180.403 -663.841Z" fill="white" stroke="black" stroke-width="4.86263" stroke-miterlimit="2" stroke-linejoin="round"/>
<path fill-rule="evenodd" clip-rule="evenodd" d="M596.161 -460.195C595.907 -462.573 597.626 -464.715 600.005 -464.974C602.373 -465.233 604.521 -463.514 604.774 -461.136C699.403 372.19 585.763 1156.07 388.541 1752.2C223.141 2252.15 -1.79413 2620.33 -211.903 2777.43C-316.082 2855.31 -417.507 2882.04 -507.312 2852.35C-517.919 2848.8 -523.647 2837.3 -520.089 2826.69C-516.542 2816.08 -505.043 2810.36 -494.435 2813.91C-384.628 2851.25 -256.69 2787.55 -126.163 2649.7C48.2797 2465.43 224.32 2148.46 362.193 1743.36C563.777 1151.06 683.344 370.936 596.161 -460.195Z" fill="white" stroke="black" stroke-width="4.86263" stroke-miterlimit="2" stroke-linejoin="round"/>
<path fill-rule="evenodd" clip-rule="evenodd" d="M407.432 1689.46L411.454 1686.5L417.393 1694.54L413.371 1697.5C413.371 1697.5 371.736 1728.25 341.422 1768.92C321.784 1795.27 306.666 1825.8 312.052 1854.76C316.717 1879.84 331.968 1927.71 330.773 1968.9C329.928 1998 320.917 2023.77 295.957 2037.34C271.868 2050.44 244.374 2056.11 225.207 2065.2C214.166 2070.44 205.984 2076.7 204.353 2087.41C201.635 2105.25 203.204 2105.94 207.412 2118.22L209.033 2122.96L199.573 2126.19L197.952 2121.46C193.096 2107.3 191.33 2106.49 194.467 2085.9C196.596 2071.92 206.493 2063.02 220.919 2056.17C239.948 2047.14 267.263 2041.56 291.178 2028.56C312.909 2016.74 320.042 1993.94 320.777 1968.61C321.951 1928.18 306.8 1881.21 302.221 1856.59C296.36 1825.08 312.038 1791.62 333.404 1762.95C364.595 1721.09 407.432 1689.46 407.432 1689.46Z" fill="white" stroke="black" stroke-width="5" stroke-miterlimit="2" stroke-linejoin="round"/>
<path fill-rule="evenodd" clip-rule="evenodd" d="M82.1025 2247.01C82.2297 2247.5 82.4261 2248.16 82.6594 2248.67C82.8475 2249.08 83.0628 2249.51 83.3031 2249.94C83.9673 2251.13 84.8068 2252.41 85.7834 2253.73C93.795 2264.65 110.427 2278.84 120.764 2285.15L125.032 2287.76L119.823 2296.29L115.555 2293.69C102.369 2285.64 79.9584 2265.71 73.9248 2253.58C71.464 2248.64 71.5285 2244.44 73.2256 2241.63C74.5214 2239.5 76.8542 2237.68 80.8576 2237.07C84.396 2236.53 91.0373 2237.62 99.6642 2240.05C117.594 2245.09 145.329 2255.55 171.041 2263.15C185.356 2267.4 199.021 2270.75 209.898 2271.68C216.254 2272.21 221.54 2272.02 225.16 2270.29C267.885 2249.93 267.91 2212.26 261.072 2187.94C258.199 2177.73 254.2 2169.86 251.578 2166.8L248.323 2163L255.913 2156.49L259.168 2160.29C262.276 2163.91 267.292 2173.12 270.699 2185.24C278.517 2213.04 278.315 2256.04 229.462 2279.32C224.609 2281.63 217.571 2282.36 209.052 2281.64C197.62 2280.67 183.247 2277.2 168.203 2272.75C142.538 2265.15 114.854 2254.71 96.9572 2249.67C90.2295 2247.78 85.1169 2246.54 82.3586 2246.96C82.2793 2246.97 82.1916 2246.99 82.1025 2247.01Z" fill="white" stroke="black" stroke-width="5" stroke-miterlimit="2" stroke-linejoin="round"/>
<path fill-rule="evenodd" clip-rule="evenodd" d="M154.459 2317.54L150.203 2314.92L155.451 2306.4L159.707 2309.03C167.872 2314.06 175.063 2322.82 177.839 2331.7C179.926 2338.37 179.589 2345.1 176.03 2350.72C172.995 2355.51 168.166 2358.72 161.906 2360.51C153.943 2362.8 143.429 2362.77 131.928 2361.48C115.708 2359.67 97.4037 2355.47 81.9945 2352.95C72.4295 2351.4 64.0684 2350.44 58.2713 2351.41C28.3825 2356.45 22.0352 2381.31 24.1548 2401.79C25.0265 2410.22 27.3053 2417.97 30.1006 2423.45C31.5734 2426.35 33.0337 2428.58 34.623 2429.52L38.929 2432.06L33.8456 2440.68L29.5397 2438.14C26.7812 2436.51 23.7485 2433.01 21.1904 2427.99C17.941 2421.62 15.2221 2412.62 14.2078 2402.83C11.6121 2377.74 20.0066 2347.72 56.6079 2341.55C63.2027 2340.44 72.7259 2341.31 83.6047 2343.08C98.8598 2345.58 116.979 2349.75 133.035 2351.55C141.479 2352.49 149.322 2352.78 155.761 2351.67C161.012 2350.76 165.269 2349.02 167.58 2345.37C169.574 2342.22 169.466 2338.43 168.296 2334.69C166.189 2327.96 160.656 2321.36 154.459 2317.54Z" fill="white" stroke="black" stroke-width="5" stroke-miterlimit="2" stroke-linejoin="round"/>
<path fill-rule="evenodd" clip-rule="evenodd" d="M70.2352 2462.71L65.8683 2460.28L70.7408 2451.54L75.1068 2453.98C83.3659 2458.59 95.7863 2471.42 94.7787 2490.8C94.1473 2502.93 88.182 2517.91 71.5464 2535C53.7297 2553.28 2.16083 2580 -25.7785 2602.07C-36.2339 2610.31 -42.8124 2621.91 -48.5405 2634.27C-54.6682 2647.47 -59.8026 2661.55 -66.9419 2673.88L-69.4468 2678.21L-78.1012 2673.2L-75.5963 2668.87C-68.6046 2656.79 -63.6128 2642.99 -57.612 2630.06C-51.2109 2616.25 -43.6584 2603.44 -31.9751 2594.21C-4.34019 2572.4 46.7614 2546.11 64.3838 2528.02C78.6774 2513.35 84.25 2500.71 84.7921 2490.28C85.5451 2475.81 76.4031 2466.15 70.2352 2462.71Z" fill="white" stroke="black" stroke-width="5" stroke-miterlimit="2" stroke-linejoin="round"/>
<path fill-rule="evenodd" clip-rule="evenodd" d="M1103.44 -73.1206C1103.54 -81.4356 1110.36 -88.1116 1118.68 -88.0186C1126.99 -87.9266 1133.67 -81.1006 1133.58 -72.7856L1123.85 800.915C1123.76 809.231 1116.93 815.906 1108.62 815.814C1100.3 815.721 1093.63 808.895 1093.72 800.58L1103.44 -73.1206Z" fill="white" stroke="black" stroke-width="8" stroke-miterlimit="2" stroke-linejoin="round"/>
<path d="M375.563 -273.949C375.563 -273.949 378.215 884.784 878.458 1508.75C1251.09 1973.55 2102.47 1945.36 2350.35 1970.5" stroke="white" stroke-width="5" stroke-miterlimit="1.5" stroke-linecap="round" stroke-linejoin="round"/>
<path d="M968.924 -482.771C968.924 -482.771 774.311 659.504 1161.05 1359.51C1449.13 1880.95 2292.89 1998.09 2532.87 2065.05" stroke="white" stroke-width="5" stroke-miterlimit="1.5" stroke-linecap="round" stroke-linejoin="round"/>
<path d="M2317.47 643.366C2317.47 643.366 1267.34 1133.17 489.974 945.344C-89.0933 805.437 -425.219 22.7098 -553.271 -191.017" stroke="white" stroke-width="5" stroke-miterlimit="1.5" stroke-linecap="round" stroke-linejoin="round"/>
<path d="M-21.5 221.276C-21.5 221.276 -216.113 1363.55 170.627 2063.56C458.709 2585 1302.46 2702.13 1542.45 2769.1" stroke="white" stroke-width="5" stroke-miterlimit="1.5" stroke-linecap="round" stroke-linejoin="round"/>
<path d="M2026.24 -544.107C2026.24 -544.107 1436.82 453.518 1548.3 1245.45C1631.34 1835.36 2377.75 2245.87 2578.04 2394.06" stroke="white" stroke-width="5" stroke-miterlimit="1.5" stroke-linecap="round" stroke-linejoin="round"/>
<path d="M1814.34 -530.849C1814.34 -530.849 1224.92 466.777 1336.4 1258.7C1419.44 1848.62 2165.85 2259.13 2366.14 2407.32" stroke="white" stroke-width="5" stroke-miterlimit="1.5" stroke-linecap="round" stroke-linejoin="round"/>
<path d="M2070.55 -312.204C1857.08 -221.122 1966.72 1930.76 2411.72 1943.7" stroke="white" stroke-width="5" stroke-miterlimit="1.5" stroke-linecap="round" stroke-linejoin="round"/>
<path d="M1579.84 -338.876C1654.96 -119.275 -17.8241 1238.82 -325.145 916.718" stroke="white" stroke-width="5" stroke-miterlimit="1.5" stroke-linecap="round" stroke-linejoin="round"/>
<path d="M2190.75 332.972C2265.86 552.573 263.975 2007.41 -43.3456 1685.31" stroke="white" stroke-width="5" stroke-miterlimit="1.5" stroke-linecap="round" stroke-linejoin="round"/>
<path d="M2176.55 822.237C2251.66 1041.84 249.775 2496.68 -57.5458 2174.58" stroke="white" stroke-width="5" stroke-miterlimit="1.5" stroke-linecap="round" stroke-linejoin="round"/>
<path d="M2211.32 1190.36C2274.6 1413.66 197.895 2759.54 -91.7903 2421.49" stroke="white" stroke-width="5" stroke-miterlimit="1.5" stroke-linecap="round" stroke-linejoin="round"/>
<path d="M2311.71 1536.99C2374.99 1760.29 298.286 3106.17 8.60029 2768.12" stroke="white" stroke-width="5" stroke-miterlimit="1.5" stroke-linecap="round" stroke-linejoin="round"/>
<path d="M2615.11 1744.96C2678.39 1968.26 601.685 3314.14 312 2976.09" stroke="white" stroke-width="5" stroke-miterlimit="1.5" stroke-linecap="round" stroke-linejoin="round"/>
<path d="M2876.14 1927.3C2939.42 2150.6 862.715 3496.48 573.03 3158.43" stroke="white" stroke-width="5" stroke-miterlimit="1.5" stroke-linecap="round" stroke-linejoin="round"/>
<path fill-rule="evenodd" clip-rule="evenodd" d="M992.733 -1727.93C993.085 -1729.69 995.234 -1730.89 997.527 -1730.62C999.807 -1730.35 1001.38 -1728.71 1001.03 -1726.95C889.453 -1152.51 1059.03 -616.194 1328.12 -226.683C1502.31 25.4666 1717.98 215.947 1925.76 314.477C2056.61 376.517 2183.84 401.927 2294.74 381.247C2305.28 379.327 2315.87 384.327 2318.37 392.417C2320.89 400.507 2314.36 408.647 2303.82 410.567C2184.18 431.987 2046.99 405.407 1906.96 337.627C1696.59 235.827 1478.57 40.8667 1304.3 -217.083C1038.38 -610.668 873.64 -1151.08 992.733 -1727.93Z" fill="white" stroke="black" stroke-width="6.88205" stroke-miterlimit="2" stroke-linejoin="round"/>
<path fill-rule="evenodd" clip-rule="evenodd" d="M1376.88 -24.5972L1371.96 -23.6962L1370.16 -33.5322L1375.08 -34.4332C1375.08 -34.4332 1445.86 -47.3882 1499.81 -46.1982C1524.08 -45.6622 1545.01 -41.9972 1555.54 -33.7622C1569.71 -22.6862 1577.28 -3.99015 1580.92 17.4958C1586.09 47.9838 1583.51 84.1258 1583.3 109.652C1583.08 135.74 1592.05 160.981 1605.7 177.716C1614.33 188.29 1624.79 195.464 1636.02 196.75C1654.24 198.839 1663.41 199.75 1675.73 195.015L1680.39 193.22L1683.98 202.553L1679.32 204.348C1665.53 209.65 1655.28 209.024 1634.88 206.685C1621.29 205.128 1608.39 196.833 1597.95 184.037C1583.01 165.717 1573.06 138.129 1573.3 109.571C1573.5 84.5298 1576.13 49.0739 1571.06 19.1658C1567.88 0.385849 1561.77 -16.2022 1549.38 -25.8832C1540 -33.2172 1521.2 -35.7232 1499.59 -36.2002C1446.52 -37.3712 1376.88 -24.5972 1376.88 -24.5972Z" fill="white" stroke="black" stroke-width="5" stroke-miterlimit="2" stroke-linejoin="round"/>
<path fill-rule="evenodd" clip-rule="evenodd" d="M1799.81 340.617C1800.26 340.503 1801.04 340.284 1801.61 340.012C1802.55 339.558 1803.54 338.95 1804.57 338.225C1813.64 331.862 1825.26 317.326 1831.11 306.893L1833.55 302.531L1842.28 307.421L1839.83 311.782C1832.15 325.479 1815.32 345.163 1804.85 349.516C1801.18 351.038 1797.95 351.008 1795.45 349.846C1792.85 348.644 1790.57 346.142 1789.67 341.434C1789 337.917 1789.84 331.241 1791.95 322.53C1796.33 304.426 1805.75 276.323 1812.4 250.347C1816.11 235.885 1818.96 222.105 1819.48 211.201C1819.78 204.83 1819.39 199.555 1817.53 196.001C1795.6 154.059 1757.96 155.427 1733.91 163.16C1723.81 166.409 1716.09 170.697 1713.13 173.43L1709.46 176.823L1702.67 169.48L1706.35 166.086C1709.85 162.846 1718.87 157.493 1730.85 153.64C1758.34 144.799 1801.32 143.41 1826.39 191.368C1828.88 196.132 1829.87 203.138 1829.47 211.678C1828.92 223.138 1825.98 237.63 1822.09 252.828C1815.45 278.757 1806.04 306.808 1801.67 324.879C1800.03 331.672 1798.98 336.827 1799.5 339.568C1799.56 339.917 1799.7 340.327 1799.81 340.617Z" fill="white" stroke="black" stroke-width="5" stroke-miterlimit="2" stroke-linejoin="round"/>
<path fill-rule="evenodd" clip-rule="evenodd" d="M1861.74 272.215L1859.28 276.565L1850.58 271.636L1853.04 267.286C1857.58 259.281 1867.87 249.136 1878.04 243.864C1886.01 239.732 1893.97 238.773 1899.72 242.121C1904.62 244.977 1908.01 249.684 1910.03 255.873C1912.61 263.746 1912.97 274.254 1912.11 285.795C1910.9 302.071 1907.38 320.518 1905.43 336.01C1904.23 345.626 1903.58 354.017 1904.77 359.774C1910.9 389.412 1937.07 393.349 1958.26 389.442C1967.07 387.818 1975.11 384.838 1980.73 381.574C1983.73 379.83 1986.03 378.172 1986.93 376.512L1989.31 372.115L1998.1 376.875L1995.72 381.272C1994.54 383.453 1992.23 385.907 1988.88 388.236C1982.48 392.69 1971.9 397.096 1960.08 399.276C1934.05 404.074 1902.51 398.195 1894.98 361.801C1893.62 355.252 1894.14 345.703 1895.51 334.766C1897.44 319.429 1900.94 301.168 1902.14 285.056C1902.77 276.583 1902.77 268.735 1901.42 262.341C1900.32 257.127 1898.42 252.938 1894.69 250.763C1893.37 249.994 1891.79 249.911 1890.09 250.14C1887.73 250.459 1885.2 251.418 1882.64 252.742C1874.16 257.139 1865.53 265.54 1861.74 272.215Z" fill="white" stroke="black" stroke-width="5" stroke-miterlimit="2" stroke-linejoin="round"/>
<path fill-rule="evenodd" clip-rule="evenodd" d="M2015.55 343.7L2013.28 348.154L2004.37 343.608L2006.64 339.155C2010.94 330.731 2023.31 317.844 2042.71 318.134C2054.86 318.316 2070.05 323.723 2087.74 339.715C2106.67 356.843 2135.28 407.388 2158.36 434.492C2166.99 444.635 2178.82 450.78 2191.38 456.047C2204.8 461.682 2219.06 466.292 2231.65 472.97L2236.07 475.313L2231.38 484.147L2226.96 481.804C2214.63 475.264 2200.66 470.786 2187.51 465.268C2173.48 459.382 2160.39 452.309 2150.74 440.975C2127.92 414.166 2099.76 364.072 2081.03 347.131C2065.84 333.39 2053 328.289 2042.56 328.133C2028.07 327.916 2018.76 337.409 2015.55 343.7Z" fill="white" stroke="black" stroke-width="5" stroke-miterlimit="2" stroke-linejoin="round"/>
<path fill-rule="evenodd" clip-rule="evenodd" d="M407.954 -462.692C455.638 -671.1 489.218 -667.917 446.801 -467.456C423.449 -357.065 395.605 -256.156 363.796 -164.912C189.462 335.031 -108.67 546.599 -435.128 457.356C-449.218 453.439 -456.826 440.764 -452.1 429.063C-447.374 417.362 -432.113 411.05 -418.023 414.968C-112.971 501.37 154.829 292.779 324.32 -174.594C352.984 -253.624 378.72 -340.01 401.15 -433.632C403.448 -443.245 405.73 -452.927 407.954 -462.692Z" fill="white" stroke="black" stroke-width="9.93527" stroke-miterlimit="2" stroke-linejoin="round"/>
</g>
<defs>
<clipPath id="clip0_910_793">
<rect width="2160" height="2700" fill="white"/>
</clipPath>
</defs>
</svg>
