<svg width="2160" height="2700" viewBox="0 0 2160 2700" fill="none" xmlns="http://www.w3.org/2000/svg">
<path fill-rule="evenodd" clip-rule="evenodd" d="M401.948 2066.34C428.767 2020.2 470.827 1989.06 516.178 1976.73C556.612 1965.74 564.928 2341.03 493.518 2323.84C479.552 2320.48 465.939 2315.1 453.028 2307.6C374.105 2261.72 351.217 2153.62 401.948 2066.34Z" fill="#BABABA" stroke="black" stroke-width="5.98802" stroke-miterlimit="1.5" stroke-linecap="round" stroke-linejoin="round"/>
<path fill-rule="evenodd" clip-rule="evenodd" d="M436.421 2079.32C457.487 2043.08 487.957 2016.09 522.038 2000.21C545.534 1989.25 558.796 2071.61 579.871 2154.69C601.843 2241.31 630.689 2329.17 607.386 2335.38C567.184 2346.11 524.456 2342.06 487.501 2320.58C408.579 2274.7 385.691 2166.6 436.421 2079.32Z" fill="#636363" stroke="black" stroke-width="5.98802" stroke-miterlimit="1.5" stroke-linecap="round" stroke-linejoin="round"/>
<path fill-rule="evenodd" clip-rule="evenodd" d="M390.836 2089.02C392.081 2088.8 396.039 2090.63 401.287 2088.39C406.715 2086.09 413.473 2079.72 417.173 2079.5C425.84 2079.01 425.209 2086.8 425.209 2086.8C429.712 2077.13 434.874 2070.76 441.821 2061.41C438.841 2059.56 435.385 2058.46 431.511 2058.01C426.424 2057.41 420.554 2062.44 414.165 2063.86C412.23 2064.29 410.304 2060.3 408.266 2060.89C408.266 2060.89 385.291 2090 390.836 2089.02Z" fill="white" fill-opacity="0.8" stroke="white" stroke-opacity="0.3" stroke-width="5.8166" stroke-miterlimit="1.5" stroke-linecap="round" stroke-linejoin="round"/>
<path fill-rule="evenodd" clip-rule="evenodd" d="M412.617 2055.98C413.874 2055.96 414.066 2059.26 419.608 2057.83C425.338 2056.35 434.829 2049.22 438.497 2049.56C447.086 2050.38 445.1 2058.01 445.1 2058.01C451.215 2049.09 449.502 2051.55 457.964 2043.3C455.361 2041.03 453.6 2037.63 449.882 2036.6C444.993 2035.25 438.143 2042.95 431.622 2043.42C429.648 2043.56 433.921 2036.62 431.819 2036.9C431.819 2036.9 407.005 2056.12 412.617 2055.98Z" fill="white" fill-opacity="0.8" stroke="white" stroke-opacity="0.3" stroke-width="5.77432" stroke-miterlimit="1.5" stroke-linecap="round" stroke-linejoin="round"/>
<path fill-rule="evenodd" clip-rule="evenodd" d="M429.713 1808.55C453.784 1767.14 491.535 1739.19 532.24 1728.13C568.531 1718.26 575.994 2055.1 511.901 2039.67C499.366 2036.65 487.148 2031.83 475.56 2025.09C404.723 1983.92 384.18 1886.89 429.713 1808.55Z" fill="#BABABA" stroke="black" stroke-width="5.98359" stroke-miterlimit="1.5" stroke-linecap="round" stroke-linejoin="round"/>
<path fill-rule="evenodd" clip-rule="evenodd" d="M460.655 1820.21C479.562 1787.68 506.91 1763.45 537.499 1749.19C558.588 1739.36 570.491 1813.28 589.406 1887.85C609.127 1965.6 635.017 2044.45 614.102 2050.03C578.019 2059.65 539.669 2056.02 506.501 2036.74C435.665 1995.57 415.122 1898.54 460.655 1820.21Z" fill="#636363" stroke="black" stroke-width="5.98359" stroke-miterlimit="1.5" stroke-linecap="round" stroke-linejoin="round"/>
<path fill-rule="evenodd" clip-rule="evenodd" d="M419.74 1828.91C420.857 1828.71 424.41 1830.35 429.12 1828.35C433.992 1826.28 440.057 1820.56 443.379 1820.37C451.157 1819.93 450.592 1826.91 450.592 1826.91C454.633 1818.24 459.266 1812.52 465.501 1804.13C462.827 1802.47 459.725 1801.48 456.248 1801.07C451.682 1800.53 446.413 1805.05 440.679 1806.33C438.942 1806.72 437.213 1803.13 435.385 1803.66C435.385 1803.66 414.763 1829.79 419.74 1828.91Z" fill="white" fill-opacity="0.8" stroke="white" stroke-opacity="0.3" stroke-width="5.82033" stroke-miterlimit="1.5" stroke-linecap="round" stroke-linejoin="round"/>
<path fill-rule="evenodd" clip-rule="evenodd" d="M439.29 1799.25C440.418 1799.23 440.59 1802.2 445.564 1800.91C450.707 1799.58 459.226 1793.19 462.518 1793.49C470.227 1794.22 468.444 1801.07 468.444 1801.07C473.933 1793.07 472.396 1795.28 479.99 1787.87C477.654 1785.84 476.074 1782.79 472.736 1781.86C468.349 1780.65 462.201 1787.56 456.347 1787.98C454.576 1788.1 458.411 1781.88 456.524 1782.13C456.524 1782.13 434.253 1799.38 439.29 1799.25Z" fill="white" fill-opacity="0.8" stroke="white" stroke-opacity="0.3" stroke-width="5.77476" stroke-miterlimit="1.5" stroke-linecap="round" stroke-linejoin="round"/>
<path fill-rule="evenodd" clip-rule="evenodd" d="M1772.48 2042.89C1742.65 1998.64 1698.6 1970.37 1652.53 1961.1C1611.45 1952.83 1628.18 2327.84 1698.29 2305.92C1712 2301.64 1725.22 2295.36 1737.6 2287.01C1813.29 2235.98 1828.92 2126.59 1772.48 2042.89Z" fill="#BABABA" stroke="black" stroke-width="5.98802" stroke-miterlimit="1.5" stroke-linecap="round" stroke-linejoin="round"/>
<path fill-rule="evenodd" clip-rule="evenodd" d="M1738.95 2058.14C1715.52 2023.39 1683.31 1998.49 1648.25 1984.91C1624.08 1975.55 1616.33 2058.61 1600.85 2142.91C1584.7 2230.8 1561.78 2320.38 1585.44 2325.03C1626.27 2333.05 1668.63 2326.16 1704.07 2302.27C1779.76 2251.23 1795.39 2141.84 1738.95 2058.14Z" fill="#636363" stroke="black" stroke-width="5.98802" stroke-miterlimit="1.5" stroke-linecap="round" stroke-linejoin="round"/>
<path fill-rule="evenodd" clip-rule="evenodd" d="M1785.08 2064.78C1783.82 2064.64 1780 2066.73 1774.61 2064.85C1769.04 2062.91 1761.87 2057.01 1758.17 2057.04C1749.49 2057.13 1750.64 2064.85 1750.64 2064.85C1745.5 2055.5 1739.92 2049.5 1732.37 2040.63C1735.22 2038.59 1738.59 2037.25 1742.43 2036.55C1747.46 2035.61 1753.66 2040.24 1760.13 2041.23C1762.09 2041.53 1763.74 2037.42 1765.81 2037.87C1765.81 2037.87 1790.68 2065.39 1785.08 2064.78Z" fill="white" fill-opacity="0.76"/>
<path fill-rule="evenodd" clip-rule="evenodd" d="M1761.15 2033.26C1759.89 2033.32 1759.92 2036.63 1754.29 2035.57C1748.48 2034.48 1738.53 2028 1734.9 2028.59C1726.38 2029.97 1728.87 2037.45 1728.87 2037.45C1722.17 2028.96 1724.05 2031.31 1715.05 2023.64C1717.5 2021.2 1719.03 2017.69 1722.67 2016.41C1727.46 2014.74 1734.81 2021.97 1741.35 2022C1743.32 2022 1738.6 2015.37 1740.71 2015.51C1740.71 2015.51 1766.75 2033.03 1761.15 2033.26Z" fill="white" fill-opacity="0.76"/>
<path fill-rule="evenodd" clip-rule="evenodd" d="M1727.59 1787.53C1700.81 1747.81 1661.28 1722.44 1619.93 1714.12C1583.06 1706.69 1598.07 2043.28 1660.99 2023.61C1673.3 2019.76 1685.17 2014.13 1696.28 2006.64C1764.22 1960.83 1778.24 1862.66 1727.59 1787.53Z" fill="#BABABA" stroke="black" stroke-width="5.98359" stroke-miterlimit="1.5" stroke-linecap="round" stroke-linejoin="round"/>
<path fill-rule="evenodd" clip-rule="evenodd" d="M1697.49 1801.22C1676.46 1770.02 1647.56 1747.68 1616.08 1735.49C1594.39 1727.09 1587.44 1801.64 1573.54 1877.3C1559.05 1956.19 1538.47 2036.59 1559.71 2040.76C1596.36 2047.96 1634.38 2041.78 1666.19 2020.33C1734.12 1974.52 1748.15 1876.34 1697.49 1801.22Z" fill="#636363" stroke="black" stroke-width="5.98359" stroke-miterlimit="1.5" stroke-linecap="round" stroke-linejoin="round"/>
<path fill-rule="evenodd" clip-rule="evenodd" d="M1738.9 1807.17C1737.77 1807.05 1734.33 1808.93 1729.5 1807.24C1724.5 1805.5 1718.07 1800.2 1714.74 1800.23C1706.95 1800.31 1707.98 1807.24 1707.98 1807.24C1703.37 1798.85 1698.37 1793.46 1691.59 1785.5C1694.14 1783.67 1697.17 1782.47 1700.61 1781.84C1705.13 1780.99 1710.69 1785.15 1716.5 1786.04C1718.26 1786.31 1719.74 1782.62 1721.6 1783.03C1721.6 1783.03 1743.92 1807.72 1738.9 1807.17Z" fill="white" fill-opacity="0.76"/>
<path fill-rule="evenodd" clip-rule="evenodd" d="M1717.41 1778.89C1716.29 1778.94 1716.31 1781.91 1711.26 1780.96C1706.04 1779.98 1697.12 1774.17 1693.85 1774.69C1686.21 1775.93 1688.45 1782.65 1688.45 1782.65C1682.43 1775.02 1684.12 1777.13 1676.05 1770.25C1678.24 1768.06 1679.61 1764.91 1682.88 1763.76C1687.18 1762.26 1693.77 1768.75 1699.64 1768.78C1701.42 1768.78 1697.18 1762.83 1699.08 1762.95C1699.08 1762.95 1722.45 1778.68 1717.41 1778.89Z" fill="white" fill-opacity="0.76"/>
<path fill-rule="evenodd" clip-rule="evenodd" d="M611.414 1234.71L589.124 742.176L261.121 1193.95L389.629 1309.78L611.414 1234.71Z" fill="#AB0307" stroke="black" stroke-width="5.99999" stroke-miterlimit="1.5" stroke-linecap="round" stroke-linejoin="round"/>
<path fill-rule="evenodd" clip-rule="evenodd" d="M1630.66 1249.65L1567.88 751.303L1872.58 1068.22L1862.5 1282.46L1630.66 1249.65Z" fill="#AB0307" stroke="black" stroke-width="6.00001" stroke-miterlimit="1.5" stroke-linecap="round" stroke-linejoin="round"/>
<path fill-rule="evenodd" clip-rule="evenodd" d="M1707.57 905.946L1579.72 777.008L1681.73 920.959L1707.57 905.946Z" fill="white" fill-opacity="0.76"/>
<path fill-rule="evenodd" clip-rule="evenodd" d="M586.024 901.776L580.05 762.1L556.869 923.827L586.024 901.776Z" fill="white" fill-opacity="0.76"/>
<path fill-rule="evenodd" clip-rule="evenodd" d="M486.112 951.876L539.929 826.397L461.14 930.867L486.112 951.876Z" fill="black" fill-opacity="0.3" stroke="white" stroke-opacity="0.3" stroke-width="6.00001" stroke-miterlimit="1.5" stroke-linecap="round" stroke-linejoin="round"/>
<path fill-rule="evenodd" clip-rule="evenodd" d="M1584.27 822.115L1637.12 928.6L1593.26 925.179L1584.27 822.115Z" fill="black" fill-opacity="0.3" stroke="white" stroke-opacity="0.3" stroke-width="5.99999" stroke-miterlimit="1.5" stroke-linecap="round" stroke-linejoin="round"/>
<path fill-rule="evenodd" clip-rule="evenodd" d="M1079.21 814.211C1218.36 814.211 1677.82 955.272 1677.82 955.272L1794.09 836.085C1794.09 836.085 1943.89 1250.17 1967.92 1325.75C2005.09 1442.63 1686.51 1579.53 1686.51 1717.3C1686.51 1855.68 1698.39 1998.62 1698.39 1998.62C1698.39 1998.62 1737.3 2187.89 1714.4 2262.37C1680.68 2372.05 1529.21 2471.66 1381.18 2565.89L1267.26 2569.89L1184.18 2526.11L1164.01 2490.15L1098.88 2462.83L1020.58 2498.45L1012.3 2549.5L910.753 2570.7L818.506 2568.66C647.726 2476.54 511.827 2360.37 479.154 2268.5C445.247 2173.17 457.195 1990.45 457.195 1990.45C457.195 1990.45 475.996 1860.87 471.911 1717.3C469.471 1631.55 151.747 1512.97 191.345 1353.66C203.806 1303.53 336.62 847.307 336.62 847.307L479.457 963.12C479.457 963.12 915.39 814.211 1079.21 814.211ZM1082.49 885.246C797.884 885.246 566.82 1148.41 566.82 1472.55C566.82 1796.7 797.884 2059.86 1082.49 2059.86C1367.1 2059.86 1598.17 1796.7 1598.17 1472.55C1598.17 1148.41 1367.1 885.246 1082.49 885.246Z" fill="#A4A4A4" stroke="black" stroke-width="11.9987" stroke-miterlimit="1.5" stroke-linecap="round" stroke-linejoin="round"/>
<path fill-rule="evenodd" clip-rule="evenodd" d="M1743.43 907.553L1695.24 962.039L1706.16 977.864L1743.43 907.553Z" fill="white" fill-opacity="0.76"/>
<path fill-rule="evenodd" clip-rule="evenodd" d="M357.841 881.361L459.37 964.318L450.262 980.222L357.841 881.361Z" fill="white" fill-opacity="0.76"/>
<path fill-rule="evenodd" clip-rule="evenodd" d="M471.711 975.303L481.078 976.142L452.159 1011.74L471.711 975.303Z" fill="white" fill-opacity="0.76"/>
<path fill-rule="evenodd" clip-rule="evenodd" d="M1020.95 2471.51C1000.21 2455.67 952.182 2472.25 938.352 2489.69C925.301 2506.15 914.28 2564.7 914.28 2564.7C977.749 2555.68 1019.71 2585.65 1064.12 2624.79C1059.9 2569.27 1053.24 2496.17 1020.95 2471.51Z" fill="#FF050B" stroke="black" stroke-width="5.99999" stroke-miterlimit="1.5" stroke-linecap="round" stroke-linejoin="round"/>
<path fill-rule="evenodd" clip-rule="evenodd" d="M1142.21 2471.12C1162.63 2450.63 1228.33 2459.21 1241.31 2481.82C1251.76 2500.03 1268.27 2563.08 1268.27 2563.08C1240.26 2553.85 1208.52 2546.93 1182.31 2556.4C1155.83 2565.97 1139.84 2584.84 1121.3 2609.01C1119.88 2552.54 1120.91 2492.48 1142.21 2471.12Z" fill="#FF050B" stroke="black" stroke-width="5.99999" stroke-miterlimit="1.5" stroke-linecap="round" stroke-linejoin="round"/>
<path fill-rule="evenodd" clip-rule="evenodd" d="M1233.01 2507.09L1155.93 2561.51L1189.65 2509.6L1233.01 2507.09Z" fill="white" stroke="white" stroke-opacity="0.3" stroke-width="5.99999" stroke-miterlimit="1.5" stroke-linecap="round" stroke-linejoin="round"/>
<path fill-rule="evenodd" clip-rule="evenodd" d="M962.772 2506.58L1023.37 2548.98L998.878 2512.23L962.772 2506.58Z" fill="white" stroke="white" stroke-opacity="0.3" stroke-width="5.90299" stroke-miterlimit="1.5" stroke-linecap="round" stroke-linejoin="round"/>
<path fill-rule="evenodd" clip-rule="evenodd" d="M838.287 2595.93C825.749 2584.42 830.904 2551.7 840.519 2540.83C849.593 2530.57 885.919 2516.8 885.919 2516.8C887.381 2558.58 911.415 2582.09 941.615 2606.12C905.493 2609.76 857.807 2613.84 838.287 2595.93Z" fill="#FF2E33" stroke="black" stroke-width="8.9979" stroke-miterlimit="1.5" stroke-linecap="round" stroke-linejoin="round"/>
<path fill-rule="evenodd" clip-rule="evenodd" d="M1336.7 2595.36C1349.1 2581.15 1340.55 2538.81 1325.25 2531.39C1312.94 2525.41 1271.18 2517.53 1271.18 2517.53C1278.45 2535.33 1284.39 2555.66 1279.41 2573.14C1274.39 2590.79 1262.84 2602.05 1247.95 2615.2C1284.75 2613.57 1323.77 2610.18 1336.7 2595.36Z" fill="#FF2E33" stroke="black" stroke-width="8.99789" stroke-miterlimit="1.5" stroke-linecap="round" stroke-linejoin="round"/>
<path fill-rule="evenodd" clip-rule="evenodd" d="M1309.19 2537.93L1277.28 2590.53L1309.52 2566.25L1309.19 2537.93Z" fill="white" stroke="white" stroke-opacity="0.3" stroke-width="5.99859" stroke-miterlimit="1.5" stroke-linecap="round" stroke-linejoin="round"/>
<path fill-rule="evenodd" clip-rule="evenodd" d="M854.14 2554.57L888.281 2588.63L861.895 2577.11L854.14 2554.57Z" fill="white" stroke="white" stroke-opacity="0.3" stroke-width="5.90126" stroke-miterlimit="1.5" stroke-linecap="round" stroke-linejoin="round"/>
<path fill-rule="evenodd" clip-rule="evenodd" d="M1020.95 2471.51C1000.21 2455.67 952.182 2472.25 938.352 2489.69C925.301 2506.15 914.28 2564.7 914.28 2564.7C977.749 2555.68 1019.71 2585.65 1064.12 2624.79C1059.9 2569.27 1053.24 2496.17 1020.95 2471.51Z" fill="#FF2E33" stroke="black" stroke-width="8.99999" stroke-miterlimit="1.5" stroke-linecap="round" stroke-linejoin="round"/>
<path fill-rule="evenodd" clip-rule="evenodd" d="M1142.21 2471.12C1162.63 2450.63 1228.33 2459.21 1241.31 2481.82C1251.76 2500.03 1268.27 2563.08 1268.27 2563.08C1240.26 2553.85 1208.52 2546.93 1182.31 2556.4C1155.83 2565.97 1136.5 2582.6 1117.96 2606.77C1116.54 2550.29 1120.91 2492.48 1142.21 2471.12Z" fill="#FF2E33" stroke="black" stroke-width="8.99999" stroke-miterlimit="1.5" stroke-linecap="round" stroke-linejoin="round"/>
<path fill-rule="evenodd" clip-rule="evenodd" d="M1108.72 2450.79L1161.97 2461.47L1136.92 2581.23C1136.92 2581.23 1116.6 2619.37 1119.41 2606.38C1122.22 2593.38 1134.36 2477.65 1134.36 2477.65L1101.54 2461.93L1070.13 2476.62L1108.72 2450.79Z" fill="black" fill-opacity="0.3"/>
<path fill-rule="evenodd" clip-rule="evenodd" d="M1288.68 2527.46L1283.23 2574.04L1272.37 2569.11L1267.01 2545.13L1277.86 2533L1276.58 2521.63L1288.68 2527.46Z" fill="black" fill-opacity="0.3"/>
<path fill-rule="evenodd" clip-rule="evenodd" d="M1258.32 2613.3C1288.99 2605.29 1318.2 2594.97 1340.19 2573.16L1332.61 2598.81C1303.79 2611.74 1280.73 2613.17 1258.32 2613.3Z" fill="black" fill-opacity="0.3"/>
<path fill-rule="evenodd" clip-rule="evenodd" d="M1233.01 2507.09L1155.93 2561.51L1189.65 2509.6L1233.01 2507.09Z" fill="white" stroke="white" stroke-opacity="0.3" stroke-width="5.99999" stroke-miterlimit="1.5" stroke-linecap="round" stroke-linejoin="round"/>
<path fill-rule="evenodd" clip-rule="evenodd" d="M962.772 2506.58L1023.37 2548.98L998.878 2512.23L962.772 2506.58Z" fill="white" stroke="white" stroke-opacity="0.3" stroke-width="5.90299" stroke-miterlimit="1.5" stroke-linecap="round" stroke-linejoin="round"/>
<path fill-rule="evenodd" clip-rule="evenodd" d="M1850.77 1507.72L1853.37 1428.64L1797.52 1325.55L1815.2 1456.25L1710.14 1341.8L1762.2 1444.67L1762.55 1582.31L1850.77 1507.72Z" fill="#FF2E33" stroke="black" stroke-width="6.00191" stroke-miterlimit="1.5" stroke-linecap="round" stroke-linejoin="round"/>
<path fill-rule="evenodd" clip-rule="evenodd" d="M1531.42 918.757L1619.01 992.269L1778.78 1286.87L1608.88 1025.58L1490.97 932.734L1584.2 1049.83L1692.1 1301.61L1566.88 1069.07L1373.21 873.525L1531.42 918.757Z" fill="#FF2E33" stroke="black" stroke-width="6.00191" stroke-miterlimit="1.5" stroke-linecap="round" stroke-linejoin="round"/>
<path fill-rule="evenodd" clip-rule="evenodd" d="M1300.55 863.344L1656.54 967.217L1675.89 995.685L1300.55 863.344Z" fill="white" fill-opacity="0.76"/>
<path fill-rule="evenodd" clip-rule="evenodd" d="M1682.46 968.484L1677.63 971.048L1694.05 996.243L1699.17 991.032L1682.46 968.484Z" fill="white" fill-opacity="0.76"/>
<path fill-rule="evenodd" clip-rule="evenodd" d="M1783.65 856.848C1820.44 989.463 1877.02 1155.68 1878.99 1236.58C1910.51 1283.91 1921.64 1316.74 1943.21 1370.81C1943.21 1370.81 1956.8 1348.7 1953.45 1335.91C1929.66 1244.92 1783.65 856.848 1783.65 856.848Z" fill="white" fill-opacity="0.75"/>
<path fill-rule="evenodd" clip-rule="evenodd" d="M1869.33 1248.38L1863.13 1254.23C1893.47 1306.5 1911.98 1335.39 1927.87 1395.01L1932.67 1393.19C1913.53 1324.41 1896.96 1300.1 1869.33 1248.38Z" fill="white" fill-opacity="0.75"/>
<path fill-rule="evenodd" clip-rule="evenodd" d="M1858.52 1278.75C1888.45 1327.42 1896.94 1344.46 1915.27 1399.61L1780.89 1459.61C1780.89 1459.61 1864.18 1407.64 1871.72 1376.42C1879.19 1345.51 1858.52 1278.75 1858.52 1278.75Z" fill="white" fill-opacity="0.75"/>
<path fill-rule="evenodd" clip-rule="evenodd" d="M1701.23 1475.92L1679.22 1628.97C1679.22 1628.97 1669.02 1690.71 1663.74 1710.54C1640.61 1797.42 1694.69 2162.44 1684.59 2222.92C1674.26 2284.74 1568.02 2411.88 1568.02 2411.88C1568.02 2411.88 1634.89 2293.57 1656.22 2218.91C1674.54 2154.77 1625.6 1849.44 1633.1 1725.61C1639.01 1628.09 1701.23 1475.92 1701.23 1475.92Z" fill="white" fill-opacity="0.75"/>
<path fill-rule="evenodd" clip-rule="evenodd" d="M1936.59 1420.68C1936.59 1420.68 1773.6 1471.72 1732.66 1515.8C1691.72 1559.88 1690.96 1685.15 1690.96 1685.15C1736.51 1600.43 1833.04 1524.55 1936.59 1420.68Z" fill="black" fill-opacity="0.3" stroke="white" stroke-opacity="0.3" stroke-width="5.99999" stroke-miterlimit="1.5" stroke-linecap="round" stroke-linejoin="round"/>
<path fill-rule="evenodd" clip-rule="evenodd" d="M277.029 1532.46L274.366 1451.43L331.593 1345.8L313.485 1479.72L421.134 1362.45L367.79 1467.85L367.428 1608.89L277.029 1532.46Z" fill="#FF2E33" stroke="black" stroke-width="5.99999" stroke-miterlimit="1.5" stroke-linecap="round" stroke-linejoin="round"/>
<path fill-rule="evenodd" clip-rule="evenodd" d="M604.263 928.962L514.511 1004.29L350.794 1306.16L524.894 1038.42L645.714 943.285L550.176 1063.27L439.618 1321.26L567.924 1082.99L766.377 882.615L604.263 928.962Z" fill="#FF2E33" stroke="black" stroke-width="5.99999" stroke-miterlimit="1.5" stroke-linecap="round" stroke-linejoin="round"/>
<path fill-rule="evenodd" clip-rule="evenodd" d="M501.425 969.913L493.399 991.332L798.619 885.584L501.425 969.913Z" fill="white" fill-opacity="0.76"/>
<path fill-rule="evenodd" clip-rule="evenodd" d="M1081.47 844.879C1387.48 844.879 1622.77 1121.3 1622.77 1468.61C1622.77 1685.65 1566.02 1874.8 1419.14 2037.96C1394.29 2065.55 1359.55 2079.54 1320.12 2109.68C1219.66 2186.45 1097.74 2275.2 1097.74 2275.2C1097.74 2275.2 959.39 2188.35 859.032 2122.94C831.422 2104.94 796.627 2099.16 780.542 2084.45C611.748 1930.13 538.131 1715.45 538.131 1474.55C538.131 1127.25 775.466 844.879 1081.47 844.879ZM1081.47 876.776C791.893 876.776 557.86 1144.55 557.86 1473.21C557.86 1801.88 791.893 2069.65 1081.47 2069.65C1247.38 2069.65 1395.05 1981.75 1490.93 1844.87C1562.39 1742.83 1597.93 1612.98 1597.93 1472.62C1597.93 1143.95 1371.05 876.776 1081.47 876.776Z" fill="#808080" stroke="black" stroke-width="8.99916" stroke-miterlimit="2" stroke-linejoin="round"/>
<path fill-rule="evenodd" clip-rule="evenodd" d="M564.153 1264.01C564.153 1264.01 504.732 1519.96 497.339 1634.5C494.998 1670.77 443.523 1585.7 443.523 1585.7C480.964 1656.59 498.564 1725.89 500.693 1793.94C500.693 1793.94 503.857 1691.36 513.185 1713.57C548.997 1798.86 691.716 1996.58 691.716 1996.58C553.283 1766.68 502.739 1523.68 564.153 1264.01Z" fill="black" fill-opacity="0.3"/>
<path fill-rule="evenodd" clip-rule="evenodd" d="M1434.22 1015.64L1435.2 1014.73C1444.64 1024.09 1464.94 1044.02 1487.96 1073.47C1503.91 1093.87 1518.58 1116.22 1528.92 1135.28C1561.84 1196 1574.4 1250.23 1579.51 1273.6L1578.2 1273.93C1570.01 1246.08 1554.8 1199.39 1520.7 1139.86C1514.17 1128.46 1497.08 1098.37 1473.12 1065.18C1471.74 1063.28 1464.68 1053.28 1454.25 1040.06C1443.91 1026.97 1438.37 1020.51 1434.22 1015.64Z" fill="white"/>
<path fill-rule="evenodd" clip-rule="evenodd" d="M528.554 1791.95L529.054 2170.96C547.146 2282.8 699.892 2411.1 799.332 2465.94C831.479 2483.67 920.005 2528.14 920.005 2528.14C970.985 2520.81 1023.86 2548.75 1056.73 2609.01C1017.83 2573.11 967.938 2557.11 903.686 2567.1L886.328 2545.41C886.328 2545.41 874.059 2536.14 867.015 2536.68C858.867 2537.31 837.437 2549.17 837.437 2549.17C847.435 2581.67 891.857 2600.22 918.594 2605.52C883.567 2613.92 836.155 2602.79 826.791 2572.87C826.791 2572.87 579.066 2415.27 510.695 2325.83C504.756 2309.63 431.518 2299.17 413.989 2277.18C379.301 2233.67 374.348 2188.79 373.811 2154.86C373.116 2111.07 396.228 2080.62 413.061 2048.66C423.841 2028.2 453.259 2029.5 448.327 2008.44C445.169 1994.97 432.664 1984.62 422.604 1964.91C412.642 1945.4 408.141 1909.33 408.938 1887.26C409.811 1863.08 448.493 1854.66 465.102 1828.13C474.809 1812.63 465.973 1778.94 466.732 1764.06C467.731 1744.47 468.769 1724.66 469.81 1704.65L200.936 1457.92L187.891 1361.48C196.38 1321.25 343.605 859.557 343.605 859.557C343.605 859.557 266.533 1315.93 300.526 1370.33C323.921 1407.77 403.074 1460.23 435.252 1513.55C449.007 1536.35 464.287 1569.33 470 1568.95C475.714 1568.59 469.011 1530.07 469.533 1511.34C477.163 1237.65 626.646 1064.31 792.939 932.381L791.19 980.059C628.298 1090.35 562.826 1285.84 566.899 1542.15C589.341 1693.39 649.271 1818.95 739.996 1912.07C794.239 1967.74 859.279 2007.99 934.487 2045.82C934.487 2045.82 902.235 2056.22 900.965 2068.5C898.538 2091.98 1016.69 2171.24 1052.95 2199C1120.29 2250.57 1281.89 2150.51 1099.79 2272.37C1083.32 2283.39 929.375 2204.66 843.039 2148.27C762.106 2095.42 629.553 2003.47 588.73 1924.81C560.723 1870.84 549.048 1850.66 528.554 1791.95Z" fill="black" fill-opacity="0.3"/>
<path d="M1100.66 2457.24L1097.78 2274.03" stroke="black" stroke-width="5.99999" stroke-miterlimit="1.5" stroke-linecap="round" stroke-linejoin="round"/>
<path d="M473.401 961.801C374.493 1118.62 230.709 1291.28 208.455 1428.52" stroke="black" stroke-width="5.99999" stroke-miterlimit="1.5" stroke-linecap="round" stroke-linejoin="round"/>
<path d="M495.754 963.648C396.848 1120.47 240.63 1309.16 221.428 1457.18" stroke="black" stroke-width="5.99999" stroke-miterlimit="1.5" stroke-linecap="round" stroke-linejoin="round"/>
<path d="M1679.07 949.955C1777.98 1106.77 1921.77 1279.43 1944.02 1416.67" stroke="black" stroke-width="5.99999" stroke-miterlimit="1.5" stroke-linecap="round" stroke-linejoin="round"/>
<path fill-rule="evenodd" clip-rule="evenodd" d="M1826.43 1185.36L1825.78 1185.8C1822.29 1181.09 1787.96 1135.15 1767.15 1104.23C1749.78 1078.43 1718.05 1028.7 1713.83 1022.1L1714.48 1021.65C1719.11 1027.97 1753.94 1075.59 1771.68 1101.13C1792.94 1131.74 1823.3 1180.4 1826.43 1185.36Z" fill="white"/>
<path fill-rule="evenodd" clip-rule="evenodd" d="M1790.97 886.004L1791.72 885.732C1794.96 893.985 1827.35 975.888 1846.69 1029.77C1862.82 1074.72 1892.03 1160.38 1895.91 1171.76L1895.16 1172.03C1890.81 1160.82 1858.08 1076.44 1841.52 1031.65C1821.67 977.956 1793.8 894.406 1790.97 886.004Z" fill="white"/>
<path fill-rule="evenodd" clip-rule="evenodd" d="M1698.76 1034.86L1699.41 1034.43C1702.88 1039.22 1737.05 1085.95 1757.74 1117.36C1775.01 1143.58 1806.55 1194.08 1810.73 1200.79L1810.08 1201.23C1805.48 1194.8 1770.82 1146.38 1753.17 1120.42C1732.03 1089.31 1701.86 1039.9 1698.76 1034.86Z" fill="white"/>
<path fill-rule="evenodd" clip-rule="evenodd" d="M1524.62 966.153L1525.12 965.543C1526.37 966.523 1572.46 1001.99 1602.14 1026.78C1602.45 1027.04 1605.79 1029.83 1606 1030.07C1606.21 1030.31 1614.74 1043.34 1629.95 1067.46C1642.86 1087.91 1659.14 1114.17 1661.66 1118.24L1661.01 1118.67C1659.23 1116.16 1624.18 1066.79 1602.83 1035.19C1602.51 1034.72 1602.29 1034.16 1601.88 1033.77C1600.82 1032.75 1600.65 1032.95 1587.84 1021.97C1560.91 998.913 1536.14 976.503 1524.62 966.153Z" fill="white"/>
<path fill-rule="evenodd" clip-rule="evenodd" d="M1441.85 952.796L1442.42 952.244C1448.39 958.062 1507.7 1015.6 1544.96 1054.29C1546.38 1055.77 1562.02 1072.01 1562.61 1072.83C1562.93 1073.27 1580.48 1105.46 1590.15 1123.36L1617.51 1174.2L1616.82 1174.59C1570.63 1096.93 1558.85 1076.14 1558.59 1075.84C1557.28 1074.26 1557.07 1074.46 1540.54 1057.63C1503.18 1019.62 1447.83 959.276 1441.85 952.796Z" fill="white"/>
<path fill-rule="evenodd" clip-rule="evenodd" d="M442.111 1026.93L442.719 1027.32C441.694 1029.34 432.561 1047.83 425.071 1058.85C418.803 1068.08 405.655 1084.82 403.914 1087.04L403.297 1086.63C404.616 1084.14 414.577 1065.33 420.462 1055.86C427.494 1044.54 440.683 1028.68 442.111 1026.93Z" fill="white"/>
<path fill-rule="evenodd" clip-rule="evenodd" d="M612.201 976.044L612.548 976.343C601.703 989.782 571.663 1027.16 547.226 1055.99C546.725 1056.58 546.084 1057.08 545.714 1057.76C545.33 1058.47 539.525 1072.8 506.512 1147.64L506.091 1147.47C509.009 1140.16 532.776 1080.68 542.934 1056.35C542.965 1056.27 543 1056.19 543.04 1056.13C543.14 1055.97 551.738 1045.62 566.188 1028.82C582.23 1010.15 608.504 980.254 612.201 976.044Z" fill="white"/>
<path fill-rule="evenodd" clip-rule="evenodd" d="M575.445 942.825L575.727 943.184C551.121 963.713 537.624 974.954 512.784 995.115C512.575 995.289 512.292 995.399 512.155 995.627C511.455 996.798 508.762 1002.38 491.919 1032.89C478.113 1057.91 458.391 1093.06 455.459 1098.28L455.057 1098.07C487.675 1034.71 500.102 1011.3 509.576 993.881C509.779 993.502 510.265 993.176 510.295 993.151C535.484 973.382 548.564 963.365 575.445 942.825Z" fill="white"/>
<path fill-rule="evenodd" clip-rule="evenodd" d="M427.896 1011.64L428.507 1012.05C427.35 1014.23 416.902 1034.38 408.567 1046.47C401.593 1056.59 387.12 1075 385.203 1077.44L384.583 1077.03C386.082 1074.32 397.391 1053.8 403.984 1043.44C411.864 1031.04 426.342 1013.56 427.896 1011.64Z" fill="white"/>
<path fill-rule="evenodd" clip-rule="evenodd" d="M1648.69 1984.8L1649.42 1985.03C1648.58 1988.51 1640.85 2021.61 1634.06 2042.6C1628.39 2060.14 1616.24 2092.99 1614.63 2097.35L1613.9 2097.12C1615.03 2092.62 1623.58 2058.65 1628.81 2040.98C1635.08 2019.82 1647.42 1988.14 1648.69 1984.8Z" fill="white"/>
<path fill-rule="evenodd" clip-rule="evenodd" d="M1619.18 2194.91L1619.91 2195.21C1613.27 2212.93 1588.98 2278.27 1569.8 2323.63C1569.02 2325.49 1560.17 2346.42 1559.89 2346.85C1559.85 2346.9 1559.68 2347.16 1559.36 2347.41C1533.32 2367.65 1494 2397.62 1488.3 2401.97L1487.8 2401.35C1540.66 2356.72 1555.66 2344.54 1556 2344.18C1557.14 2342.99 1557.19 2341.1 1557.8 2339.56C1571.47 2304.79 1579.91 2283.62 1609.82 2215.95L1619.18 2194.91Z" fill="white"/>
<path fill-rule="evenodd" clip-rule="evenodd" d="M1273.95 2483.04L1273.39 2483.45C1273.29 2483.35 1273.16 2483.28 1273.07 2483.18C1272.37 2482.48 1263.97 2471.63 1246.1 2461.91C1245.68 2461.68 1239.01 2457.84 1225.86 2452.41C1217.51 2448.96 1209.02 2446.39 1207.53 2445.94C1207.3 2445.87 1207.06 2445.8 1206.83 2445.73C1206.68 2445.68 1206.53 2445.59 1206.37 2445.58C1205.92 2445.56 1199.21 2445.57 1181.39 2445.24L1181.36 2444.48C1183.39 2444.28 1205.72 2441.99 1206.72 2442.02C1206.82 2442.03 1221.32 2444.54 1234 2449.88C1243.86 2454.03 1260.85 2463.21 1272.83 2481.32C1272.86 2481.37 1273.86 2482.9 1273.95 2483.04Z" fill="white"/>
<path fill-rule="evenodd" clip-rule="evenodd" d="M1090.44 2305.16L1091.12 2305.18C1091.33 2306.81 1093.35 2320.99 1092.82 2330.16C1092.37 2337.86 1090.03 2352.48 1089.72 2354.41L1089.03 2354.39C1088.83 2352.44 1087.33 2337.71 1087.32 2330.01C1087.31 2320.82 1090.14 2306.77 1090.44 2305.16Z" fill="white"/>
<path fill-rule="evenodd" clip-rule="evenodd" d="M1035.69 2332.59L1036.23 2332.04C1044.11 2338.96 1061.32 2353.95 1079.02 2370.64C1084.79 2376.09 1093.32 2384.61 1093.69 2385.15C1094.16 2385.83 1094.16 2386.55 1094.16 2386.68C1094.06 2407.17 1093.01 2442.22 1092.86 2447.05L1092.09 2447.06C1089.04 2396.99 1089.13 2388.41 1089 2387.83C1088.95 2387.63 1081.18 2381.09 1061.37 2360.27C1059.99 2358.82 1054.79 2353.35 1044.29 2341.97L1035.69 2332.59Z" fill="white"/>
<path fill-rule="evenodd" clip-rule="evenodd" d="M643.245 2023.97L643.873 2024.38C642.422 2027.03 629.009 2052.01 618.741 2067.26C610.156 2080.01 592.636 2103.41 590.312 2106.52L589.678 2106.11C591.582 2102.73 605.934 2077.26 614.137 2064.26C623.948 2048.71 641.404 2026.36 643.245 2023.97Z" fill="white"/>
<path fill-rule="evenodd" clip-rule="evenodd" d="M789.635 2175.4L789.425 2176.14C786.484 2175.48 761.658 2169.91 752.726 2167.61C752.598 2167.57 751.829 2167.37 751.349 2166.68C749.988 2164.71 741.973 2152.95 735.418 2142.03C723.374 2121.96 710.109 2098.39 706.414 2091.84L707.065 2091.43C711.651 2097.93 726.801 2119.36 739.119 2137.88C746.872 2149.53 754.845 2163.42 754.847 2163.42C754.893 2163.47 760.854 2165.3 778.811 2171.57L789.635 2175.4Z" fill="white"/>
<path fill-rule="evenodd" clip-rule="evenodd" d="M1514.62 2013.56L1515.31 2013.94C1504.53 2034.94 1475.22 2092.41 1451.27 2134.71C1450.74 2135.64 1444.82 2146.1 1444.6 2146.39C1444.52 2146.48 1444.14 2146.97 1443.41 2147.22C1435.12 2150.01 1404.41 2159.49 1380.31 2169.57C1363.24 2176.7 1354.39 2182.04 1351.38 2183.84L1350.95 2183.17C1368.22 2171.64 1391.37 2160.88 1430.14 2146.72C1439.58 2143.27 1440.88 2142.86 1440.9 2142.83C1440.92 2142.8 1450.56 2124.59 1459.76 2108.09C1472.4 2085.42 1485.84 2062.45 1488.14 2058.5C1499.04 2039.86 1509.37 2022.44 1514.62 2013.56Z" fill="white"/>
<path fill-rule="evenodd" clip-rule="evenodd" d="M1334.81 2567.33L1334.18 2567.43C1331.4 2560.21 1330.06 2557.96 1326.23 2550.19C1325.94 2549.6 1324.36 2546.17 1322.1 2543.11C1319.71 2539.87 1317.64 2538.13 1316.11 2536.85L1316.44 2536.28C1322.71 2538.53 1327 2541.93 1330.58 2546.97C1334.16 2552.02 1334.68 2559.24 1334.76 2560.36C1335 2563.71 1334.9 2565.43 1334.81 2567.33Z" fill="white"/>
<path fill-rule="evenodd" clip-rule="evenodd" d="M1253.29 2540.82L1252.58 2541.07C1242.5 2518.19 1241.78 2514.03 1235.73 2499.15C1232.25 2490.6 1229.23 2486.19 1224.76 2482.56C1218.57 2477.53 1209.95 2474.49 1200.58 2471.57L1200.75 2470.82C1217.66 2473.74 1228.78 2477 1236.56 2488.89C1243.54 2499.55 1246.37 2514.39 1253.29 2540.82Z" fill="white"/>
<path fill-rule="evenodd" clip-rule="evenodd" d="M1050.25 2576.18C1048.07 2566.27 1040.59 2531.31 1026.2 2504.31C1014.26 2481.91 1001.15 2476.54 991.072 2475.23C990.67 2475.18 990.59 2475.24 990.429 2474.87C990.363 2474.72 990.524 2474.53 990.458 2474.38C996.662 2474.47 1011.62 2475.02 1026.25 2494.76C1036.58 2508.69 1042.64 2527.14 1046.93 2549C1047.14 2550.08 1048.09 2554.92 1049.24 2562.58C1050.24 2569.24 1050.65 2573.04 1051.01 2576.05L1050.25 2576.18Z" fill="white"/>
<path fill-rule="evenodd" clip-rule="evenodd" d="M893.184 2571.01L893.626 2570.61C894.553 2571.21 902.164 2575.9 905.736 2580.21C908.737 2583.83 913.389 2591.8 913.998 2592.85L913.537 2593.27C911.846 2592.07 903.573 2586.28 900.385 2582.52C896.909 2578.42 893.21 2571.06 893.184 2571.01Z" fill="white"/>
<path d="M1656.72 951.803C1755.63 1108.62 1913.21 1307.76 1930.46 1429.62" stroke="black" stroke-width="5.99999" stroke-miterlimit="1.5" stroke-linecap="round" stroke-linejoin="round"/>
<path d="M1097.12 2375.93C999.851 2284.71 894.283 2195.91 759.208 2159.41L665.573 2007.07L591.415 2121.99C578.225 2130.67 468.741 1844.61 479.242 1752.16" stroke="black" stroke-width="5.99999" stroke-miterlimit="1.5" stroke-linecap="round" stroke-linejoin="round"/>
<path d="M1103.35 2375.28C1189.63 2273.61 1292.61 2187.78 1435.07 2139.39L1516.34 1986.39L1589.6 2114.16C1607.85 2122.45 1680.42 1864.45 1676.17 1738.53" stroke="black" stroke-width="5.99494" stroke-miterlimit="1.5" stroke-linecap="round" stroke-linejoin="round"/>
<path fill-rule="evenodd" clip-rule="evenodd" d="M1488.86 1887.78C1439.99 1954.28 1352.65 2040.48 1287.34 2070.91C1263.76 2081.91 1078.73 2133.53 1110.06 2102.72C1129.15 2083.94 1227.61 2080.52 1290.93 2046.61C1366.75 2006.01 1427.2 1950.95 1488.86 1887.78Z" fill="white" fill-opacity="0.75"/>
<path fill-rule="evenodd" clip-rule="evenodd" d="M1083.34 2405.06C1079.01 2418.97 1083.54 2441.76 1083.54 2441.76L1047.56 2458.68C1047.56 2458.68 1003.4 2442.08 984.104 2448.08C942.225 2461.11 905.332 2484.06 909.121 2511.47C815.072 2469.66 710.09 2421.69 641.936 2357.26C630.567 2316.44 573.151 2239.29 575.911 2197.72C579.816 2138.91 640.08 2110.33 663.051 2078.84C697.272 2097.62 726.187 2177.98 774.525 2181.43C822.92 2184.88 935.829 2254.35 1012.61 2325.17C1041.96 2352.24 1073.88 2382.73 1083.34 2405.06Z" fill="#636363"/>
<path fill-rule="evenodd" clip-rule="evenodd" d="M1083.34 2405.06C1079.01 2418.97 1083.54 2441.76 1083.54 2441.76L1047.56 2458.68C1047.56 2458.68 1003.4 2442.08 984.104 2448.08C942.225 2461.11 905.332 2484.06 909.121 2511.47C815.072 2469.66 710.09 2421.69 641.936 2357.26C630.567 2316.44 573.151 2239.29 575.911 2197.72C579.816 2138.91 640.08 2110.33 663.051 2078.84C697.272 2097.62 726.187 2177.98 774.525 2181.43C822.92 2184.88 935.829 2254.35 1012.61 2325.17C1041.96 2352.24 1073.88 2382.73 1083.34 2405.06ZM1071.74 2406.2C1061.17 2385.2 1031.87 2357.9 1005.15 2333.25C959.727 2291.35 901.482 2249.93 851.844 2222.77C820.055 2205.37 792.079 2193.7 773.743 2192.4C751.678 2190.83 732.692 2175.95 715.913 2156.4C702.627 2140.92 690.573 2122.65 678.609 2108.06C674.07 2102.53 669.61 2097.53 665.059 2093.64C652.923 2106.9 635.72 2120.2 620.111 2135.81C603.496 2152.43 588.647 2171.93 586.887 2198.45C585.878 2213.65 594.206 2233.89 604.583 2255.28C621.233 2289.61 643.712 2326.32 651.624 2351.26C715.661 2410.8 811.535 2455.87 899.815 2495.28C902.322 2487.53 907.175 2480.13 914.052 2473.28C928.908 2458.47 953.84 2445.97 980.837 2437.58C987.886 2435.38 997.655 2435.36 1007.89 2436.84C1023.02 2439.02 1039.31 2444.19 1046.97 2446.81L1071.52 2435.26C1070.64 2427.46 1069.9 2415.78 1071.74 2406.2Z" fill="black"/>
<path fill-rule="evenodd" clip-rule="evenodd" d="M1115 2401.88C1119.26 2415.8 1115.84 2437.3 1115.84 2437.3L1141.68 2448.24C1141.68 2448.24 1191.78 2434.49 1210.75 2440.49C1251.92 2453.52 1288.87 2472.95 1285.14 2500.36C1377.6 2458.55 1480.81 2410.58 1547.81 2346.15C1558.99 2305.33 1615.43 2228.18 1612.72 2186.61C1608.88 2127.8 1549.64 2099.22 1527.05 2067.73C1493.41 2086.51 1464.98 2166.87 1417.46 2170.32C1369.89 2173.77 1258.89 2243.24 1183.4 2314.06C1154.55 2341.13 1124.3 2379.55 1115 2401.88Z" fill="#636363"/>
<path fill-rule="evenodd" clip-rule="evenodd" d="M1115 2401.88C1124.3 2379.55 1154.55 2341.13 1183.4 2314.06C1258.89 2243.24 1369.89 2173.77 1417.46 2170.32C1464.98 2166.87 1493.41 2086.51 1527.05 2067.73C1549.64 2099.22 1608.88 2127.8 1612.72 2186.61C1615.43 2228.18 1558.99 2305.33 1547.81 2346.15C1480.81 2410.58 1377.6 2458.55 1285.14 2500.36C1288.87 2472.95 1251.92 2453.52 1210.75 2440.49C1191.78 2434.49 1141.68 2448.24 1141.68 2448.24L1115.84 2437.3C1115.84 2437.3 1119.26 2415.8 1115 2401.88ZM1125.55 2402.78C1127.54 2412.23 1127.17 2423.57 1126.58 2430.99L1142.45 2437.71C1150.12 2435.76 1169.37 2431.17 1186.54 2429.56C1197.19 2428.57 1207.11 2428.85 1213.77 2430.96C1240.03 2439.27 1264.56 2450.28 1279.22 2463.86C1286.34 2470.46 1291.32 2477.69 1293.74 2485.49C1380.92 2445.91 1475.75 2400.64 1538.97 2340.77C1546.65 2315.86 1568.83 2279.08 1585.24 2244.67C1595.54 2223.06 1603.74 2202.61 1602.74 2187.27C1600.99 2160.47 1586.29 2140.73 1569.78 2123.94C1554.24 2108.12 1537.08 2094.69 1525.14 2081.26C1520.45 2085.25 1515.86 2090.46 1511.18 2096.25C1499.42 2110.84 1487.58 2129.1 1474.52 2144.57C1458.17 2163.95 1439.68 2178.73 1418.19 2180.29C1400.1 2181.6 1372.49 2193.28 1341.12 2210.74C1292.27 2237.94 1234.95 2279.41 1190.25 2321.35C1163.71 2346.25 1135.77 2380.99 1125.55 2402.78Z" fill="black"/>
<path fill-rule="evenodd" clip-rule="evenodd" d="M693.612 2163.77C717.21 2170.12 744.774 2211.29 740.589 2226.55C733.398 2252.79 710.003 2260.04 686.424 2253.7C662.827 2247.36 647.879 2225.98 653.367 2199.3C658.849 2172.65 670.034 2157.43 693.612 2163.77Z" fill="#D50409" stroke="black" stroke-width="8.5807" stroke-miterlimit="1.5" stroke-linecap="round" stroke-linejoin="round"/>
<path d="M706.893 2228.01C713.001 2229.66 719.204 2224.9 720.749 2217.39C722.294 2209.88 718.595 2202.46 712.487 2200.82C706.38 2199.18 700.176 2203.94 698.632 2211.44C697.087 2218.95 700.786 2226.37 706.893 2228.01Z" fill="white" fill-opacity="0.8" stroke="white" stroke-opacity="0.3" stroke-width="5.70526" stroke-miterlimit="1.5" stroke-linecap="round" stroke-linejoin="round"/>
<path fill-rule="evenodd" clip-rule="evenodd" d="M747.183 2335.63C770.781 2341.97 799.535 2362.79 794.052 2389.44C788.564 2416.11 767.753 2427.44 744.175 2421.1C720.577 2414.75 703.083 2393.12 708.571 2366.45C714.054 2339.8 723.605 2329.29 747.183 2335.63Z" fill="#D50409" stroke="black" stroke-width="8.5807" stroke-miterlimit="1.5" stroke-linecap="round" stroke-linejoin="round"/>
<path d="M762.097 2395.16C768.205 2396.8 774.408 2392.05 775.953 2384.54C777.498 2377.03 773.799 2369.61 767.691 2367.97C761.584 2366.33 755.38 2371.08 753.836 2378.59C752.291 2386.1 755.99 2393.52 762.097 2395.16Z" fill="white" fill-opacity="0.8" stroke="white" stroke-opacity="0.3" stroke-width="5.70526" stroke-miterlimit="1.5" stroke-linecap="round" stroke-linejoin="round"/>
<path fill-rule="evenodd" clip-rule="evenodd" d="M832.55 2207.94C858.932 2215.04 886.892 2251.44 883.722 2270.24C878.671 2300.26 845.513 2308.16 819.131 2301.07C792.771 2293.98 777.022 2269.12 783.157 2239.3C789.287 2209.5 806.19 2200.86 832.55 2207.94Z" fill="#D50409" stroke="black" stroke-width="8.57252" stroke-miterlimit="1.5" stroke-linecap="round" stroke-linejoin="round"/>
<path d="M842.999 2271.39C849.827 2273.23 856.762 2267.91 858.489 2259.52C860.216 2251.12 856.081 2242.83 849.253 2240.99C842.425 2239.16 835.49 2244.48 833.762 2252.87C832.035 2261.27 836.171 2269.56 842.999 2271.39Z" fill="white" fill-opacity="0.8" stroke="white" stroke-opacity="0.3" stroke-width="5.71501" stroke-miterlimit="1.5" stroke-linecap="round" stroke-linejoin="round"/>
<path fill-rule="evenodd" clip-rule="evenodd" d="M888.208 2367.02C914.568 2374.11 955.741 2409.74 950.12 2431.26C942.443 2460.7 908.937 2468.87 882.555 2461.78C856.195 2454.69 840.359 2433.1 846.494 2403.27C852.624 2373.48 861.826 2359.93 888.208 2367.02Z" fill="#D50409" stroke="black" stroke-width="8.57252" stroke-miterlimit="1.5" stroke-linecap="round" stroke-linejoin="round"/>
<path d="M906.336 2435.37C913.164 2437.21 920.099 2431.89 921.826 2423.5C923.553 2415.1 919.418 2406.81 912.59 2404.97C905.762 2403.13 898.826 2408.45 897.099 2416.85C895.372 2425.24 899.508 2433.54 906.336 2435.37Z" fill="white" fill-opacity="0.8" stroke="white" stroke-opacity="0.3" stroke-width="5.71501" stroke-miterlimit="1.5" stroke-linecap="round" stroke-linejoin="round"/>
<path fill-rule="evenodd" clip-rule="evenodd" d="M713.608 2187.55L713.961 2187.16C715.818 2188.55 717.718 2189.97 721.251 2193.81C723.626 2196.39 726.867 2200.74 728.738 2204.5C730.816 2208.68 732.244 2213.39 732.754 2217.72C733.563 2224.6 731.787 2228.51 731.382 2229.5L730.883 2229.35C731.905 2224.09 731.228 2218.52 726.64 2209.15C718.821 2193.2 714.515 2188.6 713.608 2187.55Z" fill="white"/>
<path fill-rule="evenodd" clip-rule="evenodd" d="M855.257 2233.49L855.61 2233.1C857.467 2234.49 859.367 2235.91 862.9 2239.75C865.275 2242.33 868.516 2246.68 870.387 2250.44C872.465 2254.62 873.893 2259.33 874.403 2263.66C875.212 2270.54 873.436 2274.45 873.031 2275.44L872.532 2275.29C873.554 2270.03 872.877 2264.46 868.289 2255.09C860.47 2239.14 856.164 2234.54 855.257 2233.49Z" fill="white"/>
<path fill-rule="evenodd" clip-rule="evenodd" d="M768.825 2353.16L769.178 2352.77C771.035 2354.16 772.935 2355.58 776.468 2359.42C778.843 2362 782.084 2366.35 783.955 2370.11C786.033 2374.29 787.461 2379 787.971 2383.33C788.78 2390.21 787.004 2394.12 786.599 2395.11L786.1 2394.96C787.122 2389.7 786.445 2384.13 781.857 2374.76C774.038 2358.81 769.732 2354.21 768.825 2353.16Z" fill="white"/>
<path fill-rule="evenodd" clip-rule="evenodd" d="M916.563 2393.7L916.823 2393.33C918.848 2394.46 920.919 2395.61 924.93 2398.95C927.626 2401.19 931.415 2405.08 933.768 2408.55C936.382 2412.42 938.422 2416.9 939.501 2421.13C941.215 2427.84 939.973 2431.95 939.703 2432.98L939.189 2432.9C939.472 2428.1 938.539 2422.42 931.479 2412.22C929.691 2409.63 922.918 2399.42 916.818 2394.02C916.665 2393.88 916.692 2393.87 916.563 2393.7Z" fill="white"/>
<path fill-rule="evenodd" clip-rule="evenodd" d="M1512.07 2155.57C1488.27 2160.71 1456.23 2200.35 1457.75 2215.46C1460.46 2242.6 1484.58 2248.22 1508.4 2243.07C1532.2 2237.93 1551.08 2219.9 1546.63 2192.97C1542.19 2166.07 1535.89 2150.42 1512.07 2155.57Z" fill="#D50409" stroke="black" stroke-width="8.60099" stroke-miterlimit="1.5" stroke-linecap="round" stroke-linejoin="round"/>
<path d="M1492.05 2218.94C1485.88 2220.28 1479.87 2215.21 1478.62 2207.63C1477.36 2200.05 1481.35 2192.83 1487.51 2191.5C1493.68 2190.16 1499.69 2195.23 1500.94 2202.81C1502.19 2210.39 1498.21 2217.61 1492.05 2218.94Z" fill="white" fill-opacity="0.8" stroke="white" stroke-opacity="0.3" stroke-width="5.7492" stroke-miterlimit="1.5" stroke-linecap="round" stroke-linejoin="round"/>
<path fill-rule="evenodd" clip-rule="evenodd" d="M1449.91 2310.07C1426.11 2315.21 1396.54 2358.83 1398.72 2375.8C1402.22 2402.85 1425.84 2410.27 1449.66 2405.13C1473.46 2399.99 1489.46 2384.09 1485.01 2357.16C1480.56 2330.26 1473.73 2304.93 1449.91 2310.07Z" fill="#D50409" stroke="black" stroke-width="8.60099" stroke-miterlimit="1.5" stroke-linecap="round" stroke-linejoin="round"/>
<path d="M1430.42 2383.13C1424.26 2384.46 1418.25 2379.4 1416.99 2371.82C1415.74 2364.24 1419.72 2357.02 1425.89 2355.68C1432.05 2354.35 1438.07 2359.42 1439.32 2367C1440.57 2374.58 1436.59 2381.8 1430.42 2383.13Z" fill="white" fill-opacity="0.8" stroke="white" stroke-opacity="0.3" stroke-width="5.7492" stroke-miterlimit="1.5" stroke-linecap="round" stroke-linejoin="round"/>
<path fill-rule="evenodd" clip-rule="evenodd" d="M1379.9 2186.4C1353.29 2192.15 1315.14 2237.51 1317.53 2253.3C1322.11 2283.45 1349.03 2284.19 1375.66 2278.44C1402.27 2272.69 1420.39 2256.46 1415.42 2226.36C1410.45 2196.28 1406.53 2180.65 1379.9 2186.4Z" fill="#D50409" stroke="black" stroke-width="8.621" stroke-miterlimit="1.5" stroke-linecap="round" stroke-linejoin="round"/>
<path d="M1354.39 2255.39C1347.5 2256.88 1340.78 2251.22 1339.38 2242.75C1337.98 2234.27 1342.43 2226.2 1349.32 2224.71C1356.22 2223.22 1362.94 2228.88 1364.34 2237.36C1365.74 2245.83 1361.29 2253.91 1354.39 2255.39Z" fill="white" fill-opacity="0.8" stroke="white" stroke-opacity="0.3" stroke-width="5.73883" stroke-miterlimit="1.5" stroke-linecap="round" stroke-linejoin="round"/>
<path fill-rule="evenodd" clip-rule="evenodd" d="M1305.34 2337.66C1278.73 2343.41 1238.76 2393.79 1243.51 2413.05C1250.81 2442.65 1279.19 2451.94 1305.8 2446.19C1332.43 2440.44 1350.77 2417.07 1345.8 2386.97C1340.83 2356.89 1331.97 2331.91 1305.34 2337.66Z" fill="#D50409" stroke="black" stroke-width="8.621" stroke-miterlimit="1.5" stroke-linecap="round" stroke-linejoin="round"/>
<path d="M1284.77 2416.01C1277.88 2417.49 1271.16 2411.83 1269.76 2403.36C1268.36 2394.88 1272.81 2386.81 1279.7 2385.32C1286.59 2383.83 1293.32 2389.49 1294.72 2397.97C1296.12 2406.44 1291.66 2414.52 1284.77 2416.01Z" fill="white" fill-opacity="0.8" stroke="white" stroke-opacity="0.3" stroke-width="5.73883" stroke-miterlimit="1.5" stroke-linecap="round" stroke-linejoin="round"/>
<path fill-rule="evenodd" clip-rule="evenodd" d="M1537.94 2202.61L1537.48 2202.57C1537.47 2202.46 1537.42 2202.37 1537.41 2202.27C1537.3 2201.47 1537.46 2201.45 1536.93 2197.65C1535.95 2190.64 1532.39 2178.25 1530.6 2173.62C1527.07 2164.44 1522.73 2161.8 1521.56 2161L1521.81 2160.54C1522.56 2160.85 1528.91 2163.05 1534.14 2173.33C1536.73 2178.43 1539.2 2185.84 1538.6 2197.27C1538.46 2199.87 1538.03 2202.02 1537.94 2202.61Z" fill="white"/>
<path fill-rule="evenodd" clip-rule="evenodd" d="M1406.59 2235.44L1406.13 2235.4C1406.12 2235.3 1406.07 2235.21 1406.06 2235.11C1405.95 2234.3 1406.11 2234.29 1405.57 2230.49C1404.57 2223.48 1400.96 2211.1 1399.17 2206.47C1395.61 2197.31 1391.25 2194.68 1390.09 2193.88L1390.34 2193.42C1391.08 2193.73 1397.44 2195.9 1402.7 2206.17C1405.31 2211.27 1407.8 2218.66 1407.24 2230.1C1407.11 2232.7 1406.68 2234.85 1406.59 2235.44Z" fill="white"/>
<path fill-rule="evenodd" clip-rule="evenodd" d="M1473.7 2358.71L1473.25 2358.68C1473.23 2358.57 1473.18 2358.48 1473.17 2358.38C1473.06 2357.58 1473.21 2357.56 1472.64 2353.77C1471.6 2346.76 1467.91 2334.42 1466.08 2329.8C1462.46 2320.66 1458.08 2318.06 1456.91 2317.27L1457.16 2316.81C1457.91 2317.11 1464.28 2319.24 1469.61 2329.47C1472.25 2334.55 1474.8 2341.93 1474.31 2353.37C1474.2 2355.97 1473.79 2358.12 1473.7 2358.71Z" fill="white"/>
<path fill-rule="evenodd" clip-rule="evenodd" d="M1335.37 2388.85C1335.28 2388.78 1335.12 2388.86 1335.03 2388.8C1334.66 2388.54 1335.1 2388.38 1334.43 2383.75C1333.44 2376.95 1329.46 2365.69 1327.59 2361.59C1324.33 2354.4 1320.68 2351.38 1319.38 2350.35C1319.29 2350.28 1319.21 2350.18 1319.11 2350.14C1319.01 2350.1 1318.89 2350.14 1318.8 2350.1L1319.16 2349.5C1321.41 2350.66 1327.71 2353.76 1332.85 2364.42C1333.59 2365.95 1336.55 2372.43 1336.24 2382.13C1336.14 2385.52 1335.73 2387.18 1335.37 2388.85Z" fill="white"/>
<path fill-rule="evenodd" clip-rule="evenodd" d="M1356.8 1021.61C1356.8 1021.61 1525.23 1227.56 1524.7 1359.24C1523.8 1587.83 1415.96 1824.39 1415.96 1824.39C1525.65 1521.86 1477.75 1244.58 1356.8 1021.61Z" fill="white" stroke="white" stroke-opacity="0.3" stroke-width="6.00203" stroke-miterlimit="1.5" stroke-linecap="square" stroke-linejoin="round"/>
<path fill-rule="evenodd" clip-rule="evenodd" d="M1462.41 2212.28C1471.63 2227.58 1500.98 2235.78 1521.02 2235.25C1521.02 2235.25 1496.63 2252.39 1472.97 2236.68C1458.78 2227.26 1462.41 2212.28 1462.41 2212.28Z" fill="black" fill-opacity="0.3"/>
<path fill-rule="evenodd" clip-rule="evenodd" d="M1320.09 2252.06C1343.58 2268.11 1378.46 2270.76 1401.96 2264C1401.96 2264 1378.56 2287.27 1336.61 2281.61C1326.47 2280.24 1320.09 2252.06 1320.09 2252.06Z" fill="black" fill-opacity="0.3"/>
<path fill-rule="evenodd" clip-rule="evenodd" d="M1400.87 2374.08C1417.83 2389.62 1442.41 2396.76 1474.04 2396.12C1474.04 2396.12 1425.84 2407.12 1415.52 2404.39C1405.66 2401.79 1400.87 2374.08 1400.87 2374.08Z" fill="black" fill-opacity="0.3"/>
<path fill-rule="evenodd" clip-rule="evenodd" d="M1248.15 2407.09C1269 2430.53 1302.62 2439.17 1327.13 2435.79C1327.13 2435.79 1284.19 2455.02 1257.68 2443.46C1246.43 2438.55 1248.15 2407.09 1248.15 2407.09Z" fill="black" fill-opacity="0.3"/>
<path fill-rule="evenodd" clip-rule="evenodd" d="M790.665 2230.34C791.702 2260.84 809.65 2283.07 847.159 2295.53C847.159 2295.53 809.505 2306.88 792.879 2283.3C777.907 2262.06 790.665 2230.34 790.665 2230.34Z" fill="black" fill-opacity="0.3"/>
<path fill-rule="evenodd" clip-rule="evenodd" d="M851.366 2394.16C863.793 2426.79 887.618 2447.82 921.64 2458.45C921.64 2458.45 877.892 2474.82 855.376 2451.56C833.654 2429.12 851.366 2394.16 851.366 2394.16Z" fill="black" fill-opacity="0.3"/>
<path fill-rule="evenodd" clip-rule="evenodd" d="M750.351 2413.76C734.132 2402.47 724.607 2383.22 719.799 2358.37C719.799 2358.37 690.032 2382.88 707.561 2403.37C726.989 2426.09 750.351 2413.76 750.351 2413.76Z" fill="black" fill-opacity="0.3"/>
<path fill-rule="evenodd" clip-rule="evenodd" d="M665.071 2180.82C661.402 2209.87 674.474 2233.28 705.734 2250.56C688.906 2260.78 670.872 2255.07 651.719 2234.6C643.519 2207.14 647.428 2188.81 665.071 2180.82Z" fill="black" fill-opacity="0.3"/>
</svg>
