<svg width="2160" height="2700" viewBox="0 0 2160 2700" fill="none" xmlns="http://www.w3.org/2000/svg">
<g clip-path="url(#clip0_626_1208)">
<path fill-rule="evenodd" clip-rule="evenodd" d="M1544.48 2338.02C1544.48 2338.02 1418.87 2387.55 1307.95 2345.3C1246.44 2321.87 1170.05 2196.98 1176.48 2129.7C1182.91 2062.41 1211.65 1992.48 1276.57 1951.3C1386.06 1881.85 1509.95 1944.32 1509.95 1944.32L1654.24 2298.4L1544.48 2338.02Z" fill="black" fill-opacity="0.3"/>
<path fill-rule="evenodd" clip-rule="evenodd" d="M526.325 2246.53C526.325 2246.53 530.75 2256.88 572.02 2281.09C590.593 2291.98 638.745 2301.15 669.67 2297.87C698.128 2294.85 756.126 2263.78 778.765 2218.06C809.252 2156.49 815.173 2070.33 803.599 2034.47C769.454 1928.69 668.514 1924.9 668.514 1924.9L526.325 2246.53Z" fill="black" fill-opacity="0.3"/>
<path d="M2185.76 2504.56C2213.59 2504.56 2236.15 2530.27 2236.15 2561.98C2236.15 2593.69 2213.59 2619.39 2185.76 2619.39C2157.94 2619.39 2135.38 2593.69 2135.38 2561.98C2135.38 2530.27 2157.94 2504.56 2185.76 2504.56Z" fill="#3C3C3C" stroke="black" stroke-width="4.53434" stroke-miterlimit="1.5" stroke-linecap="round" stroke-linejoin="round"/>
<path d="M1995.81 2644.61C2023.63 2644.61 2046.19 2670.31 2046.19 2702.02C2046.19 2733.73 2023.63 2759.44 1995.81 2759.44C1967.98 2759.44 1945.42 2733.73 1945.42 2702.02C1945.42 2670.31 1967.98 2644.61 1995.81 2644.61Z" fill="#3C3C3C" stroke="black" stroke-width="4.53434" stroke-miterlimit="1.5" stroke-linecap="round" stroke-linejoin="round"/>
<path d="M2061.14 2836.1L1946.71 2662.52L2170.39 2468.83L2284.82 2642.41L2061.14 2836.1Z" fill="#8D8D8D" stroke="black" stroke-width="5.51983" stroke-miterlimit="1.5" stroke-linecap="round" stroke-linejoin="round"/>
<path d="M2201.51 2750.54L2056.84 2531.1L2134.74 2463.64L2279.4 2683.09L2201.51 2750.54Z" fill="#8D8D8D" stroke="black" stroke-width="9.70656" stroke-miterlimit="1.5" stroke-linecap="round" stroke-linejoin="round"/>
<path d="M2094.93 2839.07L1944.64 2611.09L2022.54 2543.63L2172.83 2771.62L2094.93 2839.07Z" fill="#8D8D8D" stroke="black" stroke-width="9.81848" stroke-miterlimit="1.5" stroke-linecap="round" stroke-linejoin="round"/>
<path fill-rule="evenodd" clip-rule="evenodd" d="M2184.39 2656.04L1950.24 2185.56L1783.34 2325.87L2085.63 2711.24L2184.39 2656.04Z" fill="#8D8D8D" stroke="black" stroke-width="10.3033" stroke-miterlimit="1.5" stroke-linecap="round" stroke-linejoin="round"/>
<path fill-rule="evenodd" clip-rule="evenodd" d="M2070.36 2509.27C2073.17 2507.82 2079.06 2505.27 2085.17 2505.64C2089.11 2505.89 2093.07 2507.38 2096.54 2510.81C2101.82 2516.05 2100.97 2520.92 2098.18 2524.93C2094.36 2530.42 2084.78 2533.97 2081.94 2534.34C2080.03 2534.59 2077.46 2533.55 2075.12 2530.95C2072.41 2527.91 2069.48 2522.24 2068.02 2519.21C2064.68 2517.9 2056.65 2514.73 2046.38 2510.45C2039.46 2507.56 2031.5 2504.17 2023.29 2500.5C2014.17 2496.44 2004.74 2492.02 1995.88 2487.84C1973.59 2477.32 1955.05 2468.18 1955.05 2468.18L1952.81 2467.22L1954.72 2462.75L1956.96 2463.7C1956.96 2463.7 1976.39 2470.77 1999.4 2479.6C2008.54 2483.11 2018.26 2486.86 2027.5 2490.64C2035.84 2494.04 2043.78 2497.44 2050.65 2500.44C2059.46 2504.29 2066.5 2507.5 2070.36 2509.27ZM2075.78 2512.6C2075.96 2512.87 2076.11 2513.15 2076.22 2513.44C2076.22 2513.44 2080.1 2528.82 2082.62 2525.77C2082.95 2525.36 2082 2525.46 2081.41 2525.52C2083.57 2525.25 2089.42 2523.48 2092.01 2520.29C2093.04 2519.02 2093.09 2517.44 2091.45 2515.56C2088.86 2512.55 2085.53 2511.59 2082.37 2511.58C2079.97 2511.59 2077.67 2512.05 2075.78 2512.6ZM2081.41 2525.52C2081.29 2525.53 2081.19 2525.54 2081.1 2525.54C2081.17 2525.54 2081.29 2525.53 2081.41 2525.52Z" fill="black"/>
<path fill-rule="evenodd" clip-rule="evenodd" d="M2014.42 2439.47L2016.68 2438.55L2018.52 2443.06L2016.26 2443.98C2016.26 2443.98 1997.72 2452.99 1981.47 2460.49C1974.56 2463.67 1968.08 2466.57 1963.69 2468.51C1966.14 2472.9 1969.8 2479.6 1973.54 2486.9C1982.1 2503.62 1991.11 2523.28 1991.11 2523.28L1992.3 2525.4L1988.06 2527.8L1986.87 2525.67C1986.87 2525.67 1974.72 2507.78 1964.85 2491.8C1957.34 2479.64 1951.26 2468.61 1951.26 2468.61C1950.49 2467.25 1950.35 2465.62 1950.86 2464.15C1951.38 2462.68 1952.5 2461.49 1953.95 2460.9C1953.95 2460.9 1965.16 2456.6 1978.01 2452.01C1994.87 2446 2014.42 2439.47 2014.42 2439.47Z" fill="black"/>
<path fill-rule="evenodd" clip-rule="evenodd" d="M2012.24 2443.71C2012.23 2443.7 2012.22 2443.7 2012.22 2443.7C2008.6 2441.4 2005.39 2438.12 2005.39 2438.12L2003.12 2437.22L2004.95 2432.69L2007.2 2433.61C2007.2 2433.61 2011.8 2433.48 2015.99 2434.34C2018.93 2434.94 2021.34 2436.11 2021.34 2436.11C2022.88 2436.72 2024.05 2438.02 2024.51 2439.62C2024.97 2441.21 2024.68 2442.93 2023.71 2444.28C2023.71 2444.28 2022.11 2446.02 2020.06 2447.84C2017.24 2450.34 2013.97 2452.74 2013.97 2452.74L2012.54 2454.72L2008.58 2451.88L2010 2449.91C2010 2449.91 2010.99 2446.83 2012.24 2443.71Z" fill="black"/>
<path fill-rule="evenodd" clip-rule="evenodd" d="M1986.05 2519.41C1987.19 2516.96 1988.37 2514.82 1988.37 2514.82L1988.72 2512.41L1993.55 2513.12L1993.19 2515.53C1993.19 2515.53 1993.91 2518.87 1994.27 2522.09C1994.54 2524.42 1994.54 2526.4 1994.54 2526.4C1994.32 2527.91 1993.46 2529.25 1992.19 2530.09C1990.91 2530.94 1989.33 2531.18 1987.86 2530.79C1987.86 2530.79 1987.03 2530.78 1985.87 2530.42C1985.03 2530.17 1984.06 2529.78 1983.06 2529.23C1979.61 2527.34 1976.45 2524.71 1976.45 2524.71L1974.1 2524.08L1975.37 2519.37L1977.72 2520C1977.72 2520 1981.77 2519.3 1985.7 2519.4C1985.82 2519.4 1985.94 2519.4 1986.05 2519.41Z" fill="black"/>
<path fill-rule="evenodd" clip-rule="evenodd" d="M2053.49 2532.22L2053.04 2534.61L2048.25 2533.73L2048.69 2531.33C2048.69 2531.33 2048.66 2524.85 2049.22 2516.42C2049.44 2513.29 2049.63 2509.93 2050.19 2506.59C2050.75 2503.26 2051.59 2499.99 2052.49 2497.01C2054.94 2488.86 2057.63 2482.94 2057.63 2482.94L2058.07 2480.55L2062.86 2481.43L2062.41 2483.83C2062.41 2483.83 2062.81 2490.31 2062.2 2498.8C2061.97 2501.91 2061.59 2505.26 2060.92 2508.57C2060.25 2511.89 2059.24 2515.1 2058.32 2518.1C2055.83 2526.17 2053.49 2532.22 2053.49 2532.22Z" fill="black"/>
<path d="M2084.69 2230.33L1928.85 2070.93L1619.5 2264.35L1775.33 2423.75L2084.69 2230.33Z" fill="#8D8D8D" stroke="black" stroke-width="9.37895" stroke-miterlimit="1.5" stroke-linecap="round" stroke-linejoin="round"/>
<path d="M1350.74 2033.12C1373.26 2207.53 1538.95 2342.19 1720.81 2333.89C1902.68 2325.59 2031.85 2177.48 2009.34 2003.07C1986.82 1828.66 1821.13 1694 1639.26 1702.3C1457.4 1710.6 1328.22 1858.71 1350.74 2033.12Z" fill="#292929" stroke="black" stroke-width="10.2818" stroke-miterlimit="1.5" stroke-linecap="round" stroke-linejoin="round"/>
<path fill-rule="evenodd" clip-rule="evenodd" d="M1670.71 1735.01C1815.88 1740.67 1869.48 1862.14 1869.48 1985.46C1869.48 2108.78 1799.17 2245.65 1674.25 2245.65C1549.33 2245.65 1423.68 2106.14 1423.68 1982.82C1423.68 1859.5 1545.89 1730.15 1670.71 1735.01ZM1660.45 1833.89C1722.92 1833.89 1740.8 1899.81 1740.8 1961.46C1740.8 2023.13 1723.12 2098.27 1660.67 2098.27C1598.21 2098.27 1545.45 2024.89 1545.45 1963.23C1545.45 1901.56 1597.99 1833.89 1660.45 1833.89Z" fill="#505050"/>
<path fill-rule="evenodd" clip-rule="evenodd" d="M1670.88 1730.9C1744.66 1733.11 1795.56 1764.89 1828.36 1811.58C1861.64 1858.94 1876.13 1921.9 1876.64 1985.46C1877.12 2059.54 1852.75 2138.5 1806.82 2191.39C1773.46 2229.84 1728.79 2254.59 1674.25 2254.82C1609.22 2254.8 1543.71 2218.83 1495.03 2166.22C1446.92 2114.22 1415.41 2046.25 1415.8 1982.82C1416.38 1919.57 1447.88 1854.91 1495.61 1806.93C1543.3 1758.99 1606.95 1727.73 1670.88 1730.9ZM1670.71 1735.01C1545.89 1730.15 1423.68 1859.5 1423.68 1982.82C1423.68 2106.14 1549.33 2245.65 1674.25 2245.65C1799.17 2245.65 1869.48 2108.78 1869.48 1985.46C1869.48 1862.14 1815.88 1740.67 1670.71 1735.01ZM1660.45 1833.9C1722.92 1833.9 1740.8 1899.81 1740.8 1961.46C1740.8 2023.13 1723.12 2098.27 1660.67 2098.27C1598.21 2098.27 1545.45 2024.89 1545.45 1963.23C1545.45 1901.56 1597.99 1833.9 1660.45 1833.9ZM1660.45 1838C1630.32 1838.66 1603.11 1855.92 1583.56 1880.24C1564.55 1903.88 1552.84 1934.33 1553.36 1963.23C1553.71 1991.81 1566.42 2022.74 1585.82 2047C1605.26 2071.31 1631.64 2089.13 1660.67 2089.11C1683.98 2089.33 1700.1 2077.27 1711.15 2059.42C1727.37 2033.22 1733.26 1995.28 1733.72 1961.46C1734.29 1927.17 1729.39 1891.37 1713.41 1867.04C1702.06 1849.78 1685.08 1838.47 1660.45 1838Z" fill="black"/>
<path fill-rule="evenodd" clip-rule="evenodd" d="M1393.34 1830.86C1444.8 2189.87 1610.22 2270.45 1969.23 2195.36C2000.74 2212.82 1973.09 2307.24 1940.97 2316.98C1994.7 2460.04 2054.89 2589.31 2124.5 2698.45L2005.2 2738.12L1955.19 2667.93L1972.9 2653.67L1962.48 2633.36L1995.19 2599.54L1988.54 2580.55L1837.24 2388.13L1775.5 2426.08L1689.28 2330.89C1454.56 2351.09 1271.81 2054.15 1393.34 1830.86Z" fill="black" fill-opacity="0.4"/>
<path d="M1729.7 1825.19C1732.97 1850.55 1759.94 1869.99 1789.92 1868.62C1819.91 1867.25 1841.57 1845.59 1838.29 1820.23C1835.02 1794.88 1808.06 1775.43 1778.07 1776.8C1748.08 1778.17 1726.42 1799.83 1729.7 1825.19Z" fill="white"/>
<path d="M1826.69 1900.65C1828.95 1918.12 1843.76 1931.69 1859.77 1930.96C1875.78 1930.22 1886.93 1915.47 1884.67 1898C1882.42 1880.53 1867.61 1866.96 1851.6 1867.69C1835.59 1868.42 1824.44 1883.18 1826.69 1900.65Z" fill="white"/>
<path d="M238.995 2587.02C264.216 2587.02 284.662 2564.95 284.662 2537.72C284.662 2510.49 264.216 2488.42 238.995 2488.42C213.774 2488.42 193.328 2510.49 193.328 2537.72C193.328 2564.95 213.774 2587.02 238.995 2587.02Z" fill="#3C3C3C" stroke="black" stroke-width="4" stroke-miterlimit="1.5" stroke-linecap="round" stroke-linejoin="round"/>
<path fill-rule="evenodd" clip-rule="evenodd" d="M280.669 2540.81C281.152 2544.55 277.165 2556.12 275.022 2556.21C272.878 2556.31 276.969 2545.43 276.486 2541.69C276.004 2537.95 275.08 2530.41 277.223 2530.31C279.367 2530.21 280.186 2537.08 280.669 2540.81Z" fill="white"/>
<path d="M66.832 2466.77C92.0532 2466.77 112.499 2444.7 112.499 2417.47C112.499 2390.25 92.0532 2368.18 66.832 2368.18C41.6108 2368.18 21.165 2390.25 21.1651 2417.47C21.1651 2444.7 41.6109 2466.77 66.832 2466.77Z" fill="#3C3C3C" stroke="black" stroke-width="4" stroke-miterlimit="1.5" stroke-linecap="round" stroke-linejoin="round"/>
<path d="M-4.24242 2471.31L108.92 2349.3L302.083 2486.33L188.92 2608.33L-4.24242 2471.31Z" fill="#8D8D8D" stroke="black" stroke-width="4.96523" stroke-miterlimit="1.5" stroke-linecap="round" stroke-linejoin="round"/>
<path d="M88.9922 2564.15L232.056 2409.9L299.328 2457.62L156.264 2611.86L88.9922 2564.15Z" fill="#8D8D8D" stroke="black" stroke-width="7.76463" stroke-miterlimit="1.5" stroke-linecap="round" stroke-linejoin="round"/>
<path d="M-0.124429 2498.15L148.506 2337.9L215.778 2385.62L67.1474 2545.87L-0.124429 2498.15Z" fill="#8D8D8D" stroke="black" stroke-width="7.85413" stroke-miterlimit="1.5" stroke-linecap="round" stroke-linejoin="round"/>
<path fill-rule="evenodd" clip-rule="evenodd" d="M75.0649 2465.05L350.907 2115.7L457.758 2224.68L155.247 2522.37L75.0649 2465.05Z" fill="#8D8D8D" stroke="black" stroke-width="7.89463" stroke-miterlimit="1.5" stroke-linecap="round" stroke-linejoin="round"/>
<path fill-rule="evenodd" clip-rule="evenodd" d="M112.407 2448.21L157.853 2497.64L165.628 2485.67L119.003 2438.64L112.407 2448.21Z" fill="#3C3C3C"/>
<path fill-rule="evenodd" clip-rule="evenodd" d="M109.399 2446.13L115.122 2435.96C115.918 2434.81 117.188 2434.07 118.586 2433.94C119.983 2433.82 121.364 2434.32 122.351 2435.32C122.351 2435.32 138.718 2448.98 152.381 2461.5C162.763 2471.02 171.457 2479.89 171.457 2479.89C174.177 2482.64 174.616 2486.9 172.511 2490.14L164.435 2501.92C163.113 2503.95 160.925 2505.26 158.508 2505.46C156.091 2505.66 153.716 2504.74 152.074 2502.95L109.717 2450.68C108.563 2449.42 108.431 2447.54 109.399 2446.13ZM112.407 2448.21L157.853 2497.64L165.628 2485.67L119.003 2438.64L112.407 2448.21Z" fill="black"/>
<path fill-rule="evenodd" clip-rule="evenodd" d="M147.43 2413.48L111.313 2451.82L120.37 2458.08L154.676 2418.8L147.43 2413.48Z" fill="#3C3C3C"/>
<path fill-rule="evenodd" clip-rule="evenodd" d="M149.137 2411.16L156.87 2415.81C157.703 2416.42 158.244 2417.36 158.362 2418.39C158.472 2419.42 158.149 2420.45 157.463 2421.23C157.463 2421.23 147.677 2434.87 138.609 2446.31C131.717 2455 125.237 2462.33 125.237 2462.33C123.071 2464.8 119.394 2465.26 116.693 2463.39L107.796 2456.91C106.313 2455.88 105.356 2454.26 105.163 2452.47C104.971 2450.68 105.577 2448.89 106.812 2447.58L145.338 2411.51C146.332 2410.45 147.963 2410.3 149.137 2411.16ZM147.43 2413.48L111.314 2451.82L120.37 2458.07L154.676 2418.8L147.43 2413.48Z" fill="black"/>
<path fill-rule="evenodd" clip-rule="evenodd" d="M161.124 2435.56L131.778 2469.86L145.863 2483.64L167.034 2440.33L161.124 2435.56Z" fill="#3C3C3C"/>
<path fill-rule="evenodd" clip-rule="evenodd" d="M162.683 2433.63L168.984 2437.92C170.114 2438.83 170.461 2440.4 169.825 2441.7C169.825 2441.7 164.196 2456.15 158.86 2468.53C154.801 2477.95 150.893 2486.1 150.893 2486.1C150.105 2487.72 148.585 2488.86 146.811 2489.16C145.037 2489.47 143.227 2488.9 141.945 2487.65L128.206 2473.51C126.285 2471.63 126.151 2468.58 127.896 2466.54L159.245 2433.95C160.118 2432.93 161.64 2432.79 162.683 2433.63ZM161.124 2435.56L131.778 2469.86L145.863 2483.64L167.034 2440.33L161.124 2435.56Z" fill="black"/>
<path fill-rule="evenodd" clip-rule="evenodd" d="M165.218 2423.51L193.199 2453.57L199.344 2446.62L170.411 2417.97L165.218 2423.51Z" fill="#3C3C3C"/>
<path fill-rule="evenodd" clip-rule="evenodd" d="M163.41 2421.81L168.052 2415.75C168.648 2415.12 169.478 2414.75 170.351 2414.73C171.224 2414.71 172.066 2415.05 172.686 2415.66C172.686 2415.66 182.898 2423.88 191.408 2431.48C197.868 2437.25 203.259 2442.66 203.259 2442.66C205.355 2444.74 205.466 2448.09 203.512 2450.3L197.172 2457.08C196.182 2458.2 194.764 2458.85 193.268 2458.87C191.772 2458.89 190.337 2458.28 189.318 2457.18L163.405 2425.2C162.517 2424.24 162.519 2422.76 163.41 2421.81ZM165.218 2423.5L193.2 2453.57L199.344 2446.61L170.411 2417.96L165.218 2423.5Z" fill="black"/>
<path fill-rule="evenodd" clip-rule="evenodd" d="M180.311 2398.76L213.503 2427.91L219.647 2420.96L185.505 2393.22L180.311 2398.76Z" fill="#3C3C3C"/>
<path fill-rule="evenodd" clip-rule="evenodd" d="M178.504 2397.07L183.178 2391.04C184.322 2389.81 186.217 2389.69 187.517 2390.74C187.517 2390.74 199.321 2398.57 209.247 2405.86C216.786 2411.4 223.154 2416.64 223.154 2416.64C224.33 2417.6 225.065 2418.99 225.19 2420.5C225.314 2422.01 224.818 2423.51 223.815 2424.64L217.488 2431.43C215.548 2433.63 212.196 2433.84 209.994 2431.91L178.677 2400.63C178.173 2400.18 177.87 2399.56 177.837 2398.89C177.805 2398.22 178.046 2397.56 178.504 2397.07ZM180.312 2398.76L213.503 2427.91L219.647 2420.96L185.506 2393.22L180.312 2398.76Z" fill="black"/>
<path fill-rule="evenodd" clip-rule="evenodd" d="M212.046 2413.55L185.85 2450.31L193.703 2455.26L218.355 2417.78L212.046 2413.55Z" fill="#3C3C3C"/>
<path fill-rule="evenodd" clip-rule="evenodd" d="M213.429 2411.49L220.127 2415.14C221.577 2416.11 221.967 2418.07 221.014 2419.53C221.014 2419.53 214.266 2432.29 207.874 2443.1C203.019 2451.32 198.35 2458.31 198.35 2458.31C196.682 2460.85 193.298 2461.58 190.739 2459.96L183.011 2454.82C181.771 2454.04 180.907 2452.78 180.628 2451.34C180.343 2449.91 180.663 2448.41 181.511 2447.22L210.032 2412.11C210.811 2411.02 212.315 2410.74 213.429 2411.49ZM212.046 2413.55L185.85 2450.31L193.703 2455.26L218.355 2417.78L212.046 2413.55Z" fill="black"/>
<path fill-rule="evenodd" clip-rule="evenodd" d="M218.253 2342.48L186.854 2372.04L194.707 2376.98L223.001 2343.71L218.253 2342.48Z" fill="#3C3C3C"/>
<path fill-rule="evenodd" clip-rule="evenodd" d="M218.878 2340.08L223.751 2340.83C224.744 2341.09 225.528 2341.84 225.836 2342.82C226.144 2343.79 225.931 2344.86 225.27 2345.64C225.27 2345.64 217.306 2357.22 209.893 2366.96C204.264 2374.36 198.95 2380.59 198.95 2380.59C197.158 2382.71 194.08 2383.18 191.732 2381.7L184.01 2376.55C182.613 2375.67 181.7 2374.19 181.539 2372.55C181.379 2370.91 181.99 2369.28 183.192 2368.15L216.554 2340.67C217.175 2340.09 218.054 2339.86 218.878 2340.08ZM218.253 2342.48L186.854 2372.04L194.707 2376.98L223.001 2343.71L218.253 2342.48Z" fill="black"/>
<path fill-rule="evenodd" clip-rule="evenodd" d="M230.186 2360.06L209.553 2390.96L217.406 2395.91L236.495 2364.29L230.186 2360.06Z" fill="#3C3C3C"/>
<path fill-rule="evenodd" clip-rule="evenodd" d="M231.569 2358L238.33 2361.55C239.787 2362.53 240.219 2364.49 239.314 2365.99C239.314 2365.99 234.331 2376.79 229.475 2385.94C225.795 2392.88 222.168 2398.78 222.168 2398.78C221.397 2400.06 220.14 2400.98 218.687 2401.32C217.233 2401.67 215.702 2401.41 214.436 2400.62L206.74 2395.43C205.539 2394.67 204.692 2393.45 204.394 2392.06C204.096 2390.67 204.377 2389.22 205.165 2388.03L228.13 2358.68C228.492 2358.13 229.062 2357.75 229.708 2357.62C230.354 2357.5 231.022 2357.63 231.569 2358ZM230.186 2360.05L209.554 2390.96L217.406 2395.91L236.495 2364.29L230.186 2360.05Z" fill="black"/>
<path fill-rule="evenodd" clip-rule="evenodd" d="M255.786 2371.28L232.007 2410.67L239.86 2415.61L261.749 2372.01L255.786 2371.28Z" fill="#3C3C3C"/>
<path fill-rule="evenodd" clip-rule="evenodd" d="M256.086 2368.82L262.112 2369C263.09 2369.12 263.948 2369.71 264.416 2370.58C264.883 2371.45 264.899 2372.49 264.457 2373.37C264.457 2373.37 258.768 2388.01 253.217 2400.48C248.995 2409.96 244.818 2418.1 244.818 2418.1C244.115 2419.5 242.859 2420.54 241.347 2420.96C239.841 2421.38 238.226 2421.15 236.901 2420.31L229.178 2415.16C226.731 2413.62 225.965 2410.4 227.461 2407.92L253.666 2370C254.168 2369.17 255.12 2368.71 256.086 2368.82ZM255.786 2371.28L232.007 2410.67L239.86 2415.61L261.749 2372.01L255.786 2371.28Z" fill="black"/>
<path fill-rule="evenodd" clip-rule="evenodd" d="M198.554 2378.99L232.75 2408.46L238.398 2401.1L203.351 2373.1L198.554 2378.99Z" fill="#3C3C3C"/>
<path fill-rule="evenodd" clip-rule="evenodd" d="M196.633 2377.43L200.886 2371.09C201.987 2369.74 203.973 2369.53 205.336 2370.62C205.336 2370.62 217.424 2378.51 227.6 2385.87C235.33 2391.46 241.87 2396.76 241.87 2396.76C244.236 2398.65 244.655 2402.09 242.811 2404.49L236.973 2411.71C236.082 2412.87 234.751 2413.62 233.294 2413.76C231.837 2413.91 230.382 2413.46 229.273 2412.5L196.936 2380.87C195.92 2379.99 195.786 2378.47 196.633 2377.43ZM198.553 2378.99L232.749 2408.47L238.398 2401.1L203.351 2373.1L198.553 2378.99Z" fill="black"/>
<path fill-rule="evenodd" clip-rule="evenodd" d="M218.658 2349.18L252.854 2378.66L258.503 2371.29L236.324 2361.54L223.456 2343.29L218.658 2349.18Z" fill="#3C3C3C"/>
<path fill-rule="evenodd" clip-rule="evenodd" d="M216.738 2347.62L220.999 2341.29C221.625 2340.52 222.575 2340.09 223.566 2340.12C224.556 2340.16 225.474 2340.65 226.046 2341.46C226.046 2341.46 239.217 2357.43 239.215 2357.42C241.059 2358.09 245.36 2359.68 249.616 2361.41C255.227 2363.69 260.738 2366.21 260.738 2366.21C262.298 2366.9 263.457 2368.26 263.88 2369.91C264.303 2371.57 263.944 2373.32 262.907 2374.67L257.06 2381.88C256.172 2383.03 254.847 2383.78 253.396 2383.92C251.945 2384.08 250.498 2383.62 249.393 2382.67L217.041 2351.06C216.025 2350.18 215.89 2348.66 216.738 2347.62ZM218.658 2349.18L252.854 2378.65L258.503 2371.29L236.324 2361.54L223.456 2343.29L218.658 2349.18Z" fill="black"/>
<path fill-rule="evenodd" clip-rule="evenodd" d="M252.388 2293L234.652 2316.91L240.145 2322.68L258.691 2297.24L252.388 2293Z" fill="#3C3C3C"/>
<path fill-rule="evenodd" clip-rule="evenodd" d="M253.765 2290.94L260.61 2294.38C261.382 2294.9 261.91 2295.72 262.077 2296.64C262.239 2297.56 262.018 2298.5 261.471 2299.26C261.471 2299.26 256.599 2308.16 251.82 2315.6C248.205 2321.23 244.618 2325.94 244.618 2325.94C243.657 2327.26 242.146 2328.09 240.508 2328.2C238.87 2328.31 237.268 2327.68 236.137 2326.5L230.904 2320.48C229.172 2318.65 228.995 2315.85 230.497 2313.83L250.394 2291.52C251.182 2290.46 252.67 2290.21 253.765 2290.94ZM252.388 2293L234.652 2316.91L240.144 2322.68L258.69 2297.23L252.388 2293Z" fill="black"/>
<path fill-rule="evenodd" clip-rule="evenodd" d="M276.294 2307.24L252.489 2337.58L259.732 2348.6L280.67 2309.94L276.294 2307.24Z" fill="#3C3C3C"/>
<path fill-rule="evenodd" clip-rule="evenodd" d="M277.598 2305.14L282.243 2307.4C283.593 2308.23 284.058 2309.97 283.3 2311.37C283.3 2311.37 277.881 2324.44 272.598 2335.57C268.588 2344.02 264.628 2351.25 264.628 2351.25C263.698 2352.97 261.924 2354.08 259.972 2354.16C258.014 2354.25 256.156 2353.3 255.08 2351.66L248.19 2340.41C246.975 2338.57 247.072 2336.15 248.44 2334.41L274.349 2305.72C275.127 2304.72 276.524 2304.48 277.598 2305.14ZM276.294 2307.25L252.489 2337.59L259.733 2348.6L280.67 2309.94L276.294 2307.25Z" fill="black"/>
<path fill-rule="evenodd" clip-rule="evenodd" d="M240.427 2326.08L273.294 2361.51L278.942 2354.15L245.693 2322.09L240.427 2326.08Z" fill="#3C3C3C"/>
<path fill-rule="evenodd" clip-rule="evenodd" d="M238.929 2324.12L243.832 2319.64C245.04 2318.72 246.737 2318.82 247.829 2319.87C247.829 2319.87 259.441 2329.15 269.18 2337.66C276.582 2344.12 282.816 2350.14 282.816 2350.14C284.858 2352.1 285.096 2355.29 283.369 2357.55L277.56 2364.78C276.596 2366.05 275.127 2366.81 273.545 2366.88C271.963 2366.96 270.429 2366.33 269.351 2365.17C269.351 2365.17 263.423 2358.32 256.869 2350.38C248.262 2339.96 238.612 2327.77 238.612 2327.77C238.136 2327.26 237.9 2326.57 237.96 2325.87C238.021 2325.17 238.373 2324.54 238.929 2324.12ZM240.428 2326.08L273.294 2361.51L278.942 2354.15L245.693 2322.09L240.428 2326.08Z" fill="black"/>
<path fill-rule="evenodd" clip-rule="evenodd" d="M255.85 2305.74L295.333 2330.03L302.616 2320.57L260.47 2297.86L255.85 2305.74Z" fill="#3C3C3C"/>
<path fill-rule="evenodd" clip-rule="evenodd" d="M253.714 2304.49L257.664 2296.21C258.55 2294.71 260.472 2294.17 262.013 2295C262.013 2295 276.166 2301.08 288.217 2306.92C297.38 2311.36 305.252 2315.68 305.252 2315.68C306.687 2316.45 307.71 2317.81 308.05 2319.41C308.391 2321 308.014 2322.67 307.02 2323.96L299.492 2333.23C297.854 2335.36 294.872 2335.9 292.584 2334.5L254.552 2307.84C253.404 2307.14 253.032 2305.65 253.714 2304.49ZM255.85 2305.74L295.333 2330.03L302.616 2320.57L260.47 2297.86L255.85 2305.74Z" fill="black"/>
<path fill-rule="evenodd" clip-rule="evenodd" d="M306.953 2251.45L276.563 2284.99L284.415 2289.94L313.261 2255.68L306.953 2251.45Z" fill="#3C3C3C"/>
<path fill-rule="evenodd" clip-rule="evenodd" d="M308.336 2249.39L315.033 2253.04C315.785 2253.54 316.281 2254.34 316.409 2255.24C316.531 2256.13 316.275 2257.04 315.691 2257.73C315.691 2257.73 307.506 2269.59 299.898 2279.56C294.118 2287.13 288.667 2293.52 288.667 2293.52C286.883 2295.65 283.8 2296.13 281.445 2294.65L273.724 2289.5C272.392 2288.66 271.496 2287.28 271.283 2285.72C271.07 2284.16 271.559 2282.58 272.617 2281.42L305.116 2249.78C305.945 2248.87 307.314 2248.7 308.336 2249.39ZM306.953 2251.44L276.563 2284.99L284.415 2289.94L313.262 2255.68L306.953 2251.44Z" fill="black"/>
<path fill-rule="evenodd" clip-rule="evenodd" d="M325.458 2267.16L299.262 2303.92L307.115 2308.87L331.767 2271.39L325.458 2267.16Z" fill="#3C3C3C"/>
<path fill-rule="evenodd" clip-rule="evenodd" d="M326.841 2265.1L333.539 2268.75C334.989 2269.72 335.379 2271.68 334.426 2273.14C334.426 2273.14 327.678 2285.9 321.286 2296.71C316.431 2304.92 311.762 2311.92 311.762 2311.92C310.094 2314.45 306.71 2315.19 304.151 2313.57L296.423 2308.43C295.183 2307.65 294.319 2306.39 294.04 2304.95C293.755 2303.51 294.076 2302.02 294.923 2300.83L323.444 2265.72C324.223 2264.63 325.727 2264.35 326.841 2265.1ZM325.458 2267.16L299.262 2303.92L307.115 2308.87L331.767 2271.39L325.458 2267.16Z" fill="black"/>
<path fill-rule="evenodd" clip-rule="evenodd" d="M288.262 2291.95L322.458 2321.42L328.107 2314.06L293.06 2286.06L288.262 2291.95Z" fill="#3C3C3C"/>
<path fill-rule="evenodd" clip-rule="evenodd" d="M286.341 2290.38L290.595 2284.05C291.696 2282.7 293.682 2282.49 295.044 2283.57C295.044 2283.57 307.133 2291.47 317.308 2298.83C325.039 2304.42 331.578 2309.71 331.578 2309.71C333.944 2311.61 334.363 2315.04 332.519 2317.44L326.682 2324.66C325.79 2325.83 324.46 2326.57 323.003 2326.72C321.546 2326.87 320.091 2326.41 318.982 2325.46L286.645 2293.82C285.629 2292.95 285.494 2291.42 286.341 2290.38ZM288.262 2291.95L322.458 2321.42L328.106 2314.06L293.059 2286.06L288.262 2291.95Z" fill="black"/>
<path fill-rule="evenodd" clip-rule="evenodd" d="M308.367 2262.14L323.228 2280.13L344.393 2288.34L353.414 2279.24L326.709 2274.79L313.164 2256.25L308.367 2262.14Z" fill="#3C3C3C"/>
<path fill-rule="evenodd" clip-rule="evenodd" d="M306.446 2260.57L310.741 2254.28C311.352 2253.52 312.278 2253.1 313.247 2253.12C314.215 2253.15 315.116 2253.62 315.688 2254.4L329.1 2270.24C331.495 2270.49 336.228 2271.01 340.953 2271.66C347.659 2272.57 354.327 2273.75 354.327 2273.75C356.376 2274.1 358.063 2275.55 358.701 2277.53C359.339 2279.5 358.823 2281.67 357.361 2283.14L348.096 2292.01C346.636 2293.48 344.441 2293.95 342.507 2293.2L321.77 2283.88C321.128 2283.63 320.561 2283.22 320.123 2282.69L306.456 2263.71C305.704 2262.8 305.7 2261.49 306.446 2260.57ZM308.366 2262.14L323.228 2280.13L344.393 2288.34L353.414 2279.24L326.709 2274.79L313.164 2256.25L308.366 2262.14Z" fill="black"/>
<path d="M235.001 2129.07L367.188 2030.42L557.034 2221.92L424.847 2320.57L235.001 2129.07Z" fill="#8D8D8D" stroke="black" stroke-width="6.93571" stroke-miterlimit="1.5" stroke-linecap="round" stroke-linejoin="round"/>
<path d="M794.961 2082.48C753.249 2215.12 613.609 2295.49 483.066 2261.98C352.524 2228.47 280.512 2093.78 322.225 1961.13C363.937 1828.49 503.577 1748.12 634.119 1781.63C764.662 1815.14 836.673 1949.83 794.961 2082.48Z" fill="#292929" stroke="black" stroke-width="7.86641" stroke-miterlimit="1.5" stroke-linecap="round" stroke-linejoin="round"/>
<path fill-rule="evenodd" clip-rule="evenodd" d="M356.596 1892.54C368.04 2040.04 435.856 2159 543.084 2261.5C570.025 2265.83 590.396 2260.34 631.555 2247.4C575.606 2181.84 533.114 2113.47 509.01 2041.26L782.576 2105.31C799.185 2072.62 806.787 2036.6 800.01 1995.26C711.904 1976.71 619.721 1966.93 517.448 1978.86C547.795 1908.71 581.634 1841.1 640.211 1791.56C611.283 1782.54 583.411 1773.84 551.465 1781.69C520.391 1824.65 504.714 1876.42 494.905 1931.53C457.177 1910.13 434.613 1875.08 423.422 1829.8C384.29 1856.23 378.702 1858.68 356.596 1892.54Z" fill="#505050"/>
<path fill-rule="evenodd" clip-rule="evenodd" d="M353.537 1890.54C362.684 1876.36 369.069 1867.58 376.103 1860.26C386.203 1849.75 397.686 1842.26 421.014 1826.23C422.179 1825.44 423.655 1825.28 424.967 1825.78C426.279 1826.28 427.261 1827.4 427.598 1828.76C433.067 1850.29 441.15 1869.42 452.3 1885.76C462.534 1900.76 475.371 1913.39 491.148 1923.34C495.674 1898.49 501.487 1874.37 509.443 1851.45C518.562 1825.18 530.509 1800.5 546.504 1778.1C547.354 1776.93 548.594 1776.09 550.003 1775.75C563.204 1772.42 575.76 1771.79 587.99 1772.81C606.425 1774.35 624.106 1779.72 642.179 1785.24C644.484 1785.96 646.215 1787.88 646.695 1790.25C647.174 1792.61 646.327 1795.05 644.483 1796.61C621.555 1816.2 602.564 1838.63 586.109 1862.89C563.705 1895.93 546.015 1932.38 529.683 1969.81C574.832 1965.16 618.065 1964.65 659.894 1967.24C708.819 1970.28 755.812 1977.57 801.713 1987.17C805.051 1987.88 807.614 1990.56 808.166 1993.92C811.575 2014.85 811.459 2034.46 808.471 2053.01C805.283 2072.8 798.829 2091.37 789.847 2109C788.145 2112.35 784.375 2114.11 780.717 2113.25L520.375 2051.54C532.093 2083.95 547.55 2115.58 566.257 2146.56C586.153 2179.5 609.712 2211.7 636.404 2243.26C637.793 2244.89 638.273 2247.11 637.682 2249.16C637.091 2251.22 635.508 2252.84 633.467 2253.48C611.032 2260.42 594.66 2265.18 580.094 2267.44C567.001 2269.47 555.314 2269.53 542.145 2267.35C540.959 2267.16 539.86 2266.61 538.992 2265.78C485.427 2214.06 441.723 2158.27 410.035 2096.92C378.08 2035.04 358.327 1967.52 352.953 1892.82C352.891 1892.02 353.096 1891.22 353.537 1890.54ZM356.596 1892.54C368.04 2040.04 435.856 2159 543.084 2261.5C570.025 2265.83 590.396 2260.34 631.555 2247.4C575.606 2181.84 533.114 2113.47 509.01 2041.26L782.576 2105.31C799.185 2072.62 806.787 2036.6 800.01 1995.26C711.904 1976.71 619.721 1966.93 517.448 1978.86C547.795 1908.71 581.634 1841.1 640.211 1791.56C611.283 1782.54 583.411 1773.84 551.465 1781.69C520.391 1824.65 504.714 1876.42 494.905 1931.53C457.177 1910.13 434.613 1875.08 423.422 1829.8C384.29 1856.23 378.702 1858.68 356.596 1892.54Z" fill="black"/>
<path fill-rule="evenodd" clip-rule="evenodd" d="M475.297 1794.08C355.552 1989.29 433.592 2200.24 634.396 2248.48C574.071 2269.3 520.117 2273.79 471.712 2264.04L410.838 2308.23C395.792 2274.2 214.828 2402.5 95.7988 2472.15C42.2979 2503.46 99.2808 2525.22 65.1859 2543.64L5.57392 2499.98L14.6759 2480.15L5.77191 2464.82L81.3458 2389.32L109.648 2384.79L146.997 2372.71L293.028 2192.58L239.717 2129.95L313.387 2073.76C301.524 1939.43 368.592 1854.38 475.297 1794.08Z" fill="black" fill-opacity="0.4"/>
<path d="M701.097 1935.61C695.188 1954.4 673.474 1965.29 652.597 1959.93C631.72 1954.57 619.586 1934.99 625.495 1916.2C631.404 1897.41 653.118 1886.52 673.995 1891.88C694.872 1897.24 707.006 1916.82 701.097 1935.61Z" fill="white"/>
<path d="M728.994 2001.05C725.75 2011.36 713.798 2017.33 702.299 2014.38C690.8 2011.43 684.107 2000.67 687.351 1990.36C690.595 1980.04 702.546 1974.07 714.046 1977.02C725.545 1979.98 732.237 1990.73 728.994 2001.05Z" fill="white"/>
</g>
<defs>
<clipPath id="clip0_626_1208">
<rect width="2160" height="2700" fill="white"/>
</clipPath>
</defs>
</svg>
