<svg width="2160" height="2700" viewBox="0 0 2160 2700" fill="none" xmlns="http://www.w3.org/2000/svg">
<g clip-path="url(#clip0_607_4762)">
<path fill-rule="evenodd" clip-rule="evenodd" d="M318.506 2171.51L-291.315 2452.75L-315.169 2707.31L137.785 2775.95L271.359 2687.91L459.385 2318.89L318.506 2171.51Z" fill="#777777" stroke="black" stroke-width="12.3298" stroke-miterlimit="1.5" stroke-linecap="round" stroke-linejoin="round"/>
<path fill-rule="evenodd" clip-rule="evenodd" d="M-49.9897 2922.33L5.27966 2483.03L136.516 2176.59L288.815 1987.44L429.417 1923.09L651.385 2047.62L653.973 2360.81L526.369 2727.31L220.233 3036.09L-49.9897 2922.33Z" fill="#8D8D8D" stroke="black" stroke-width="17.9094" stroke-miterlimit="1.5" stroke-linecap="round" stroke-linejoin="round"/>
<path fill-rule="evenodd" clip-rule="evenodd" d="M413.134 1933.28L647.655 2059.65L651.966 2299.73C593.029 2183.85 509.327 2094.25 395.153 2036.98L413.134 1933.28Z" fill="white" fill-opacity="0.2"/>
<path fill-rule="evenodd" clip-rule="evenodd" d="M136.519 2176.58C136.519 2176.58 105.959 2245.54 124.204 2339.36C130.164 2370 180.925 2401.98 180.925 2401.98L87.8031 2629.92L220.32 2705.31L-62.1736 2746.38L-30.4558 2338.82L76.884 2270.57L136.519 2176.58Z" fill="black" fill-opacity="0.3"/>
<path d="M421.506 1952.18L284.436 2173.26L631.603 2332.48" stroke="black" stroke-width="12.0009" stroke-miterlimit="1.5" stroke-linecap="round" stroke-linejoin="round"/>
<path d="M284.436 2173.26L87.7781 2645.3L204.285 2682.97" stroke="black" stroke-width="12.0009" stroke-miterlimit="1.5" stroke-linecap="round" stroke-linejoin="round"/>
<path d="M162.941 2163.44L250.845 2140.24L275.856 2162.23" stroke="black" stroke-width="12.0009" stroke-miterlimit="1.5" stroke-linecap="round" stroke-linejoin="round"/>
<path d="M-2.04959 2625.38L87.0232 2638.77" stroke="black" stroke-width="12.0009" stroke-miterlimit="1.5" stroke-linecap="round" stroke-linejoin="round"/>
<path fill-rule="evenodd" clip-rule="evenodd" d="M1996.89 1214.54C1884.74 1140.75 1765.08 1092.02 1632.53 1086.32L1483.97 1237.53L1232.74 1161.71L1235.9 1023.57L1282.15 779.821L1795.87 768.057L1996.89 1214.54Z" fill="black" fill-opacity="0.3"/>
<path fill-rule="evenodd" clip-rule="evenodd" d="M1888.78 89.857L2509.2 1329.75L2397.07 1638.57L1519.73 708.846L1437.26 211.326L1888.78 89.857Z" fill="#777777" stroke="black" stroke-width="12.8446" stroke-miterlimit="1.5" stroke-linecap="round" stroke-linejoin="round"/>
<path fill-rule="evenodd" clip-rule="evenodd" d="M2257.9 793.409L2131.26 575.168L1994.31 902.301L1811.49 1011.92L1968.65 1176.64L2119.25 1083.12L2257.9 793.409Z" stroke="black" stroke-width="12" stroke-miterlimit="1.5" stroke-linecap="round" stroke-linejoin="round"/>
<path fill-rule="evenodd" clip-rule="evenodd" d="M1604.04 1087.03L1896.02 760.876L2092.34 240.614L2046.14 -96.3713L1807.89 -212.875L1368.42 63.0808L1212.15 522.525L1227.5 861.372L1341.94 1050.28L1604.04 1087.03Z" fill="#8D8D8D" stroke="black" stroke-width="18.6143" stroke-miterlimit="1.5" stroke-linecap="round" stroke-linejoin="round"/>
<path fill-rule="evenodd" clip-rule="evenodd" d="M1220.98 496.561L1240.9 828.805L1502.79 850.607C1341.71 781.721 1247.29 664.06 1220.98 496.561Z" fill="black" fill-opacity="0.1"/>
<path fill-rule="evenodd" clip-rule="evenodd" d="M1391 48.9236L1715.48 224.198L1867.93 138.792L2051.72 185.336L1966.27 -6.14292L1483.99 -9.36142L1391 48.9236Z" fill="white" fill-opacity="0.2"/>
<path fill-rule="evenodd" clip-rule="evenodd" d="M1225.39 837.236L1507.01 852.002L1608.59 1053.61L1895.82 760.411L2192.91 1171.36L2205.67 1422.59L1745.99 941.301L1599.14 1081.61L1331.49 1045.83L1225.39 837.236Z" fill="black" fill-opacity="0.3"/>
<path d="M1601.96 1038.9L1507.49 859.079L1245.5 841.664" stroke="black" stroke-width="12" stroke-miterlimit="1.5" stroke-linecap="round" stroke-linejoin="round"/>
<path d="M1525.22 816.666L1564.84 684.212L1555.6 646.617L1584.7 620.736L1618.98 483.222L1230.62 497.375" stroke="black" stroke-width="12" stroke-miterlimit="1.5" stroke-linecap="round" stroke-linejoin="round"/>
<path d="M1811.9 31.3338L1618.98 483.222L1679.92 494.396L1864.35 742.017" stroke="black" stroke-width="12" stroke-miterlimit="1.5" stroke-linecap="round" stroke-linejoin="round"/>
<path d="M2083.08 246.431L1901.76 34.8535" stroke="black" stroke-width="12" stroke-miterlimit="1.5" stroke-linecap="round" stroke-linejoin="round"/>
</g>
<defs>
<clipPath id="clip0_607_4762">
<rect width="2160" height="2700" fill="white"/>
</clipPath>
</defs>
</svg>
