<svg width="2160" height="2700" viewBox="0 0 2160 2700" fill="none" xmlns="http://www.w3.org/2000/svg">
<g clip-path="url(#clip0_910_9)">
<path fill-rule="evenodd" clip-rule="evenodd" d="M457.208 2127.83C505.046 2046.89 557.25 2009.91 609.948 1977.9C636.158 1993.1 662.13 1961.74 685.563 1975.34C717.686 1993.98 764.506 1990.2 801.346 1974.61C882.62 1928.33 998.878 1865.46 1039.74 1792.54C953.692 1833.22 805.378 1862.41 719.333 1867.49C718.742 1821.13 699.595 1796.17 672.991 1779.81C724.963 1684.37 855.736 1666.07 984.287 1629.39C923.357 1600.63 823.01 1549.6 744.799 1552.05C680.449 1560.2 625.716 1594.47 609.189 1651.34L472.023 1791.4L459.336 1996.92C419.042 2035.7 388.561 2074.87 385.394 2115.1L457.208 2127.83Z" fill="black" fill-opacity="0.25"/>
<path fill-rule="evenodd" clip-rule="evenodd" d="M-98.223 2327.87L-311.826 2113.53C-250.202 1989.4 175.638 1654.84 275.685 1579.71C453.2 1421.28 603.55 1559.62 612.788 1670.89C780.683 1637.66 824.752 1505.14 841.11 1343.81C909.917 1568.77 873.695 1730.4 649.502 1778.71C593.643 1864.92 502.638 1885.92 419.745 1822.09L-98.223 2327.87Z" fill="#808080" stroke="black" stroke-width="11.0282" stroke-miterlimit="1.5" stroke-linecap="round" stroke-linejoin="round"/>
<path fill-rule="evenodd" clip-rule="evenodd" d="M861.582 1558.34C861.582 1558.34 872.575 1503.38 859.587 1437.63C855.039 1414.63 843.45 1376.18 843.45 1376.18C851.314 1415.36 870.834 1486.85 861.582 1558.34Z" fill="white"/>
<path fill-rule="evenodd" clip-rule="evenodd" d="M-205.38 2198.92L-76.7848 2392.44C-76.7848 2392.44 339.377 2055.86 535.572 1854.04C692.943 1675.58 586.595 1519.23 475.267 1510.66C507.493 1342.57 639.745 1297.71 800.98 1280.38C575.611 1212.92 414.196 1250.11 367.229 1474.59C274.775 1532.51 209.845 1637.48 304.515 1748.05L205.179 1834.69L222.047 1879.17L183.086 1920.73L141.832 1899.41L-205.38 2198.92Z" fill="#808080" stroke="black" stroke-width="11.0282" stroke-miterlimit="1.5" stroke-linecap="round" stroke-linejoin="round"/>
<path d="M316.232 1906.31C333.414 1912.41 352.005 1904.21 357.755 1887.99C363.505 1871.78 354.237 1853.7 337.055 1847.6C319.872 1841.51 301.282 1849.71 295.532 1865.92C289.782 1882.14 299.05 1900.22 316.232 1906.31Z" fill="black" fill-opacity="0.31"/>
<path d="M236.054 1972.47C253.237 1978.56 271.827 1970.36 277.577 1954.15C283.327 1937.93 274.059 1919.85 256.877 1913.76C239.695 1907.66 221.104 1915.87 215.354 1932.08C209.604 1948.29 218.872 1966.38 236.054 1972.47Z" fill="black" fill-opacity="0.31"/>
<path d="M163.691 2034.98C180.873 2041.07 199.464 2032.87 205.214 2016.66C210.964 2000.45 201.696 1982.36 184.514 1976.27C167.331 1970.17 148.741 1978.38 142.991 1994.59C137.241 2010.8 146.509 2028.89 163.691 2034.98Z" fill="black" fill-opacity="0.31"/>
<path d="M86.6734 2099.48C103.856 2105.57 122.446 2097.37 128.196 2081.16C133.946 2064.95 124.678 2046.86 107.496 2040.77C90.3138 2034.67 71.7234 2042.88 65.9734 2059.09C60.2234 2075.3 69.4911 2093.39 86.6734 2099.48Z" fill="black" fill-opacity="0.31"/>
<path fill-rule="evenodd" clip-rule="evenodd" d="M314.915 1848.52C314.915 1848.52 318.863 1847.5 324.513 1847.19C328.892 1846.95 334.152 1847.18 339.353 1848.55C342.142 1849.28 344.851 1850.39 347.38 1851.91C349.926 1853.44 352.183 1855.48 354.158 1857.91C355.731 1860.12 357.001 1862.43 357.781 1864.85C358.574 1867.33 358.965 1869.86 359.042 1872.35C359.137 1875.45 358.838 1878.39 358.257 1881.1C356.739 1888.13 353.866 1893.03 353.866 1893.03C353.866 1893.03 355.328 1885.19 353.929 1876.24C353.467 1873.28 352.599 1870.27 351.289 1867.3C350.512 1865.56 349.618 1863.82 348.368 1862.21C346.711 1859.74 344.609 1857.8 342.279 1856.22C339.691 1854.47 336.927 1853.09 334.097 1852.06C324.459 1848.55 314.915 1848.52 314.915 1848.52Z" fill="black"/>
<path fill-rule="evenodd" clip-rule="evenodd" d="M294.483 1884.94C296.387 1888.4 298.531 1891.41 300.862 1894.09C302.495 1895.98 304.242 1897.66 306.076 1899.19C307.007 1899.96 307.952 1900.7 308.93 1901.41C309.908 1902.12 310.889 1902.81 311.914 1903.46C313.458 1904.42 315.052 1905.3 316.758 1906.07C318.436 1906.82 320.153 1907.49 322.004 1908.04C320.05 1907.88 318.188 1907.61 316.386 1907.17C314.476 1906.69 312.665 1906.06 310.942 1905.25C309.765 1904.71 308.637 1904.08 307.559 1903.36C306.491 1902.64 305.483 1901.84 304.523 1900.96C302.669 1899.25 301.014 1897.28 299.544 1895.1C297.519 1892.11 295.88 1888.71 294.483 1884.94Z" fill="#E7E7E7"/>
<path fill-rule="evenodd" clip-rule="evenodd" d="M213.131 1950.41C215.034 1953.87 217.178 1956.87 219.509 1959.56C221.142 1961.45 222.89 1963.12 224.724 1964.65C225.654 1965.43 226.599 1966.17 227.578 1966.88C228.556 1967.59 229.536 1968.28 230.562 1968.92C232.106 1969.89 233.699 1970.76 235.406 1971.53C237.083 1972.28 238.8 1972.96 240.652 1973.5C238.697 1973.35 236.836 1973.08 235.033 1972.63C233.123 1972.16 231.312 1971.52 229.59 1970.72C228.413 1970.17 227.284 1969.54 226.206 1968.82C225.138 1968.11 224.13 1967.3 223.171 1966.42C221.316 1964.72 219.661 1962.75 218.191 1960.57C216.166 1957.57 214.528 1954.17 213.131 1950.41Z" fill="#E7E7E7"/>
<path fill-rule="evenodd" clip-rule="evenodd" d="M142.069 2013.28C143.973 2016.74 146.117 2019.74 148.448 2022.43C150.081 2024.32 151.828 2025.99 153.662 2027.52C154.593 2028.3 155.538 2029.04 156.516 2029.75C157.494 2030.46 158.475 2031.15 159.5 2031.79C161.044 2032.76 162.638 2033.63 164.344 2034.4C166.022 2035.16 167.738 2035.83 169.59 2036.37C167.635 2036.22 165.774 2035.95 163.972 2035.5C162.062 2035.03 160.251 2034.39 158.528 2033.59C157.351 2033.04 156.223 2032.41 155.145 2031.7C154.077 2030.98 153.069 2030.18 152.109 2029.29C150.255 2027.59 148.6 2025.62 147.129 2023.44C145.105 2020.44 143.466 2017.04 142.069 2013.28Z" fill="#E7E7E7"/>
<path fill-rule="evenodd" clip-rule="evenodd" d="M65.7148 2077.34C67.6182 2080.8 69.7624 2083.8 72.0931 2086.49C73.7264 2088.38 75.4735 2090.05 77.3075 2091.58C78.2382 2092.36 79.1833 2093.1 80.1616 2093.81C81.1395 2094.52 82.1201 2095.21 83.1459 2095.85C84.6897 2096.82 86.2835 2097.69 87.9897 2098.46C89.6674 2099.21 91.384 2099.89 93.2357 2100.43C91.281 2100.28 89.4195 2100.01 87.6174 2099.56C85.7074 2099.09 83.8962 2098.45 82.1737 2097.65C80.9965 2097.1 79.8683 2096.47 78.7904 2095.75C77.7222 2095.04 76.7141 2094.23 75.7547 2093.35C73.9001 2091.65 72.245 2089.68 70.775 2087.49C68.7501 2084.5 67.1116 2081.1 65.7148 2077.34Z" fill="#E7E7E7"/>
<path fill-rule="evenodd" clip-rule="evenodd" d="M234.845 1915.8C234.845 1915.8 238.777 1914.72 244.422 1914.33C248.797 1914.02 254.059 1914.17 259.28 1915.46C262.08 1916.15 264.805 1917.23 267.357 1918.7C269.925 1920.19 272.212 1922.2 274.224 1924.6C275.83 1926.79 277.134 1929.07 277.951 1931.49C278.781 1933.96 279.209 1936.48 279.324 1938.97C279.465 1942.06 279.21 1945.01 278.67 1947.73C277.258 1954.78 274.458 1959.72 274.458 1959.72C274.458 1959.72 275.803 1951.86 274.27 1942.94C273.764 1939.98 272.851 1936.99 271.496 1934.04C270.693 1932.3 269.773 1930.58 268.499 1928.99C266.805 1926.54 264.674 1924.64 262.321 1923.09C259.707 1921.37 256.923 1920.04 254.078 1919.05C244.388 1915.68 234.845 1915.8 234.845 1915.8Z" fill="black"/>
<path fill-rule="evenodd" clip-rule="evenodd" d="M157.937 1979.42C157.937 1979.42 161.769 1978.03 167.365 1977.19C171.702 1976.54 176.959 1976.26 182.266 1977.13C185.112 1977.6 187.915 1978.45 190.576 1979.72C193.256 1981 195.695 1982.82 197.892 1985.05C199.667 1987.1 201.149 1989.28 202.156 1991.62C203.18 1994.02 203.809 1996.49 204.121 1998.97C204.509 2002.04 204.49 2005 204.169 2007.75C203.323 2014.9 200.927 2020.04 200.927 2020.04C200.927 2020.04 201.64 2012.09 199.399 2003.32C198.66 2000.41 197.511 1997.5 195.925 1994.67C194.987 1993.01 193.932 1991.37 192.535 1989.88C190.651 1987.58 188.376 1985.85 185.906 1984.5C183.163 1982.99 180.282 1981.89 177.367 1981.13C167.44 1978.54 157.937 1979.42 157.937 1979.42Z" fill="black"/>
<path fill-rule="evenodd" clip-rule="evenodd" d="M85.5515 2042.3C85.5515 2042.3 89.521 2041.36 95.177 2041.18C99.5602 2041.04 104.813 2041.39 109.982 2042.87C112.754 2043.66 115.438 2044.84 117.933 2046.41C120.444 2048 122.654 2050.09 124.575 2052.56C126.099 2054.8 127.316 2057.14 128.042 2059.58C128.78 2062.08 129.114 2064.62 129.135 2067.11C129.161 2070.2 128.797 2073.14 128.156 2075.84C126.481 2082.84 123.499 2087.67 123.499 2087.67C123.499 2087.67 125.137 2079.86 123.937 2070.88C123.542 2067.91 122.741 2064.88 121.497 2061.89C120.76 2060.13 119.904 2058.37 118.69 2056.73C117.089 2054.22 115.031 2052.24 112.736 2050.61C110.188 2048.79 107.456 2047.36 104.65 2046.26C95.0925 2042.54 85.5515 2042.3 85.5515 2042.3Z" fill="black"/>
<path fill-rule="evenodd" clip-rule="evenodd" d="M729.254 1266.8C729.254 1266.8 661.409 1242.24 578.925 1261.63C549.627 1268.52 499.116 1291.29 499.116 1291.29C548.192 1268.24 636.789 1254.27 729.254 1266.8Z" fill="white"/>
<path fill-rule="evenodd" clip-rule="evenodd" d="M484.515 1536.9C536.633 1562.42 565.548 1607.59 578.429 1666.35C578.429 1666.35 570.161 1596.1 554.509 1574.53C538.857 1552.95 484.515 1536.9 484.515 1536.9Z" fill="white"/>
<path fill-rule="evenodd" clip-rule="evenodd" d="M249.749 1620.12L250.52 1652.44L7.06445 1838.83L249.749 1620.12Z" fill="white" fill-opacity="0.4"/>
<path fill-rule="evenodd" clip-rule="evenodd" d="M720.455 1753.56C677.902 1759.06 634.567 1766.77 607.973 1727.15C580.656 1747.84 527.191 1773 514.479 1759.7C514.479 1759.7 307.5 1970.86 207.391 2042.49C58.3166 2149.15 -7.65345 2101.22 -7.65345 2101.22L-25.3555 2353.7C-25.3555 2353.7 357.29 2035.35 531.789 1852.78C570.108 1850.61 615.499 1832.36 648.162 1778.18L720.455 1753.56Z" fill="black" fill-opacity="0.31"/>
<path fill-rule="evenodd" clip-rule="evenodd" d="M475.27 1510.66L421.292 1495.46C455.987 1330.46 589.878 1280.29 762.217 1278.09C570.803 1305.33 489.236 1390.24 475.27 1510.66Z" fill="white" fill-opacity="0.6"/>
<path fill-rule="evenodd" clip-rule="evenodd" d="M707.171 1283.99C707.171 1283.99 635.361 1276.97 560.231 1316.15C533.546 1330.07 490.232 1364.62 490.232 1364.62C532.086 1330.15 614.479 1294.71 707.171 1283.99Z" fill="white"/>
<path fill-rule="evenodd" clip-rule="evenodd" d="M618.382 1668.64L635.748 1722.87C803.188 1703.15 844.878 1551.96 841.812 1374.22C810.637 1566.89 748.192 1644.9 618.382 1668.64Z" fill="white" fill-opacity="0.6"/>
<path fill-rule="evenodd" clip-rule="evenodd" d="M679.687 1657.28C679.687 1657.28 747.805 1638.61 769.973 1615.97C792.14 1593.33 812.691 1521.45 812.691 1521.45C789.914 1572.59 739.345 1646.26 679.687 1657.28Z" fill="white"/>
<path d="M446.247 1734.56C419.021 1735.52 396.097 1712.04 395.045 1682.11C393.992 1652.19 415.21 1627.15 442.436 1626.2C469.662 1625.24 492.586 1648.72 493.639 1678.65C494.691 1708.57 473.473 1733.61 446.247 1734.56Z" fill="#808080" stroke="black" stroke-width="12.8265" stroke-miterlimit="1.5" stroke-linecap="round" stroke-linejoin="round"/>
<path fill-rule="evenodd" clip-rule="evenodd" d="M428.044 1643.93C453.341 1645.85 468.695 1660.47 478.376 1676.82C478.376 1676.82 478.882 1655.25 460.143 1643.25C451.85 1637.93 428.044 1643.93 428.044 1643.93Z" fill="white"/>
<path fill-rule="evenodd" clip-rule="evenodd" d="M1621 2319.36C1621 2319.36 1493.59 2262.3 1430.25 2260.76C1366.91 2259.22 1233.49 2358.23 1233.49 2358.23C1395.41 2349.21 1481.01 2390.32 1534.94 2456.73L1501.35 2614.73L1764.48 2499.88L1621 2319.36Z" fill="black" fill-opacity="0.25"/>
<path fill-rule="evenodd" clip-rule="evenodd" d="M2562.24 2504.53L2622.62 2324.5C2499.86 2295.08 2258.44 2214.93 2258.44 2214.93C2258.44 2214.93 1947.9 2193.03 1801.44 2187.4C1562.43 2184.41 1526.02 2383.18 1590.51 2475.27C1439.52 2562.45 1320.2 2489.78 1203.73 2376.25C1295.42 2596.13 1427.42 2696.54 1631.57 2583.16C1730.18 2612.16 1813.95 2567.21 1836.85 2462.24L2562.24 2504.53Z" fill="#808080" stroke="black" stroke-width="11.1842" stroke-miterlimit="1.5" stroke-linecap="round" stroke-linejoin="round"/>
<path fill-rule="evenodd" clip-rule="evenodd" d="M2208.74 2245.44C2103.89 2235.33 1984.44 2231.88 1880.17 2230.05L1876.49 2264.1C1871.89 2257.37 1855.26 2217.75 1840.11 2210.51C1965.32 2214.3 2148.28 2213.26 2209.34 2238.57L2208.74 2245.44Z" fill="white" fill-opacity="0.8"/>
<path fill-rule="evenodd" clip-rule="evenodd" d="M2559.27 2337.81L2584.3 2558.77C2314.06 2589.9 2041.67 2602.56 1767.5 2572.1C1531.15 2540.12 1513.11 2340.61 1593.53 2259.17C1460.46 2151.09 1329.49 2205.35 1193.88 2300.33C1324.43 2096.81 1472.97 2017.03 1653.71 2158.73C1782.16 2146.33 1876.47 2197.28 1877.52 2333.96L2001.02 2339.31L2019.28 2380.67L2080.6 2385.99L2103.76 2346.35L2559.27 2337.81Z" fill="#808080" stroke="black" stroke-width="11.1852" stroke-miterlimit="1.5" stroke-linecap="round" stroke-linejoin="round"/>
<path d="M2109.65 2466.41C2117.89 2482.67 2137.01 2489.56 2152.35 2481.79C2167.7 2474.02 2173.47 2454.53 2165.23 2438.27C2156.99 2422 2137.88 2415.12 2122.53 2422.89C2107.18 2430.66 2101.42 2450.14 2109.65 2466.41Z" fill="black" fill-opacity="0.31"/>
<path d="M2014.14 2461.75C2022.37 2478.02 2041.49 2484.9 2056.84 2477.13C2072.19 2469.36 2077.95 2449.87 2069.72 2433.61C2061.48 2417.35 2042.36 2410.46 2027.02 2418.23C2011.67 2426 2005.9 2445.49 2014.14 2461.75Z" fill="black" fill-opacity="0.31"/>
<path d="M1913.89 2455.31C1922.12 2471.58 1941.24 2478.46 1956.59 2470.69C1971.94 2462.92 1977.7 2443.44 1969.47 2427.17C1961.23 2410.91 1942.11 2404.02 1926.76 2411.79C1911.42 2419.57 1905.65 2439.05 1913.89 2455.31Z" fill="black" fill-opacity="0.31"/>
<path fill-rule="evenodd" clip-rule="evenodd" d="M1924.5 2414.51C1924.5 2414.51 1928.22 2412.84 1933.74 2411.59C1938.02 2410.62 1943.24 2409.97 1948.6 2410.44C1951.47 2410.7 1954.33 2411.35 1957.08 2412.42C1959.84 2413.5 1962.41 2415.14 1964.76 2417.2C1966.68 2419.12 1968.32 2421.18 1969.49 2423.44C1970.69 2425.76 1971.5 2428.18 1971.99 2430.62C1972.6 2433.66 1972.8 2436.61 1972.68 2439.38C1972.36 2446.57 1970.34 2451.88 1970.34 2451.88C1970.34 2451.88 1970.47 2443.9 1967.6 2435.31C1966.65 2432.47 1965.29 2429.65 1963.5 2426.94C1962.45 2425.35 1961.27 2423.79 1959.77 2422.41C1957.72 2420.25 1955.33 2418.69 1952.77 2417.53C1949.92 2416.22 1946.97 2415.33 1944 2414.79C1933.91 2412.93 1924.5 2414.51 1924.5 2414.51Z" fill="black"/>
<path fill-rule="evenodd" clip-rule="evenodd" d="M2108.84 2466.91C2111.29 2470 2113.91 2472.61 2116.65 2474.87C2118.58 2476.46 2120.58 2477.82 2122.65 2479.02C2123.69 2479.63 2124.75 2480.2 2125.83 2480.73C2126.92 2481.27 2128 2481.79 2129.12 2482.25C2130.8 2482.94 2132.52 2483.54 2134.33 2484.01C2136.11 2484.48 2137.91 2484.85 2139.83 2485.08C2137.88 2485.25 2136 2485.3 2134.15 2485.16C2132.18 2485.02 2130.29 2484.69 2128.46 2484.19C2127.21 2483.84 2125.99 2483.41 2124.81 2482.88C2123.63 2482.36 2122.5 2481.73 2121.41 2481.02C2119.3 2479.65 2117.34 2477.99 2115.52 2476.08C2113.03 2473.47 2110.84 2470.39 2108.84 2466.91Z" fill="#E7E7E7"/>
<path fill-rule="evenodd" clip-rule="evenodd" d="M2014.41 2461.91C2016.86 2465.01 2019.48 2467.61 2022.23 2469.87C2024.15 2471.46 2026.15 2472.82 2028.22 2474.02C2029.27 2474.63 2030.32 2475.2 2031.4 2475.74C2032.49 2476.28 2033.57 2476.79 2034.69 2477.26C2036.37 2477.95 2038.09 2478.55 2039.9 2479.02C2041.68 2479.48 2043.48 2479.86 2045.4 2480.08C2043.45 2480.26 2041.57 2480.3 2039.72 2480.16C2037.75 2480.02 2035.86 2479.69 2034.03 2479.19C2032.78 2478.85 2031.56 2478.42 2030.38 2477.89C2029.2 2477.36 2028.08 2476.74 2026.98 2476.03C2024.87 2474.65 2022.91 2472.99 2021.09 2471.08C2018.6 2468.47 2016.41 2465.39 2014.41 2461.91Z" fill="#E7E7E7"/>
<path fill-rule="evenodd" clip-rule="evenodd" d="M1912.62 2455.44C1915.07 2458.53 1917.69 2461.14 1920.44 2463.39C1922.36 2464.98 1924.37 2466.35 1926.43 2467.55C1927.48 2468.16 1928.53 2468.72 1929.61 2469.26C1930.7 2469.8 1931.78 2470.32 1932.9 2470.78C1934.58 2471.47 1936.3 2472.07 1938.11 2472.54C1939.89 2473 1941.7 2473.38 1943.61 2473.61C1941.66 2473.78 1939.78 2473.83 1937.93 2473.69C1935.97 2473.54 1934.07 2473.22 1932.24 2472.71C1930.99 2472.37 1929.77 2471.94 1928.59 2471.41C1927.42 2470.88 1926.29 2470.26 1925.19 2469.55C1923.08 2468.18 1921.12 2466.52 1919.31 2464.61C1916.81 2461.99 1914.62 2458.92 1912.62 2455.44Z" fill="#E7E7E7"/>
<path fill-rule="evenodd" clip-rule="evenodd" d="M2024.85 2420.28C2024.85 2420.28 2028.54 2418.55 2034.04 2417.22C2038.3 2416.19 2043.52 2415.46 2048.88 2415.86C2051.76 2416.07 2054.62 2416.67 2057.38 2417.7C2060.17 2418.74 2062.76 2420.34 2065.14 2422.37C2067.09 2424.26 2068.76 2426.29 2069.97 2428.54C2071.2 2430.83 2072.04 2433.25 2072.57 2435.68C2073.23 2438.71 2073.47 2441.66 2073.39 2444.43C2073.18 2451.62 2071.24 2456.96 2071.24 2456.96C2071.24 2456.96 2071.25 2448.98 2068.25 2440.44C2067.26 2437.61 2065.86 2434.81 2064.03 2432.13C2062.95 2430.56 2061.75 2429.01 2060.23 2427.65C2058.15 2425.52 2055.73 2424 2053.15 2422.87C2050.29 2421.62 2047.32 2420.77 2044.35 2420.27C2034.23 2418.56 2024.85 2420.28 2024.85 2420.28Z" fill="black"/>
<path fill-rule="evenodd" clip-rule="evenodd" d="M2114.57 2428.15C2114.57 2428.15 2117.88 2425.76 2123.02 2423.41C2127.01 2421.59 2131.99 2419.88 2137.33 2419.25C2140.2 2418.92 2143.13 2418.97 2146.03 2419.45C2148.96 2419.95 2151.81 2421.02 2154.54 2422.56C2156.81 2424.04 2158.83 2425.73 2160.44 2427.7C2162.09 2429.73 2163.37 2431.94 2164.36 2434.23C2165.57 2437.07 2166.37 2439.92 2166.82 2442.66C2167.97 2449.76 2167.09 2455.37 2167.09 2455.37C2167.09 2455.37 2165.58 2447.53 2161.02 2439.71C2159.5 2437.12 2157.6 2434.64 2155.29 2432.36C2153.93 2431.02 2152.47 2429.72 2150.72 2428.68C2148.27 2426.98 2145.61 2425.95 2142.86 2425.33C2139.81 2424.64 2136.74 2424.37 2133.72 2424.44C2123.47 2424.69 2114.57 2428.15 2114.57 2428.15Z" fill="black"/>
<path fill-rule="evenodd" clip-rule="evenodd" d="M1796.91 2217.52C1769.94 2197.6 1738.73 2180.33 1690.94 2173.39L1668.76 2192.24C1722.74 2182.35 1759 2201.27 1796.91 2217.52Z" fill="white"/>
<path fill-rule="evenodd" clip-rule="evenodd" d="M1582.74 2441.18C1579.35 2484.02 1571.23 2504.87 1619.36 2538.11L1417 2615.93C1483.21 2636.86 1558.34 2620.81 1639.93 2577.94C1708.35 2590.7 1754.46 2593.14 1769.86 2562.16C1973.51 2592.33 2156.1 2591.19 2324.3 2568.68L2272.48 2475.18C2047.85 2503.03 1706.3 2528.38 1582.74 2441.18Z" fill="black" fill-opacity="0.3"/>
<path fill-rule="evenodd" clip-rule="evenodd" d="M1595.46 2255.89L1633.18 2212.98C1503.9 2104.74 1357.74 2145.82 1239.92 2264.53C1387.07 2165.65 1508.98 2179.81 1595.46 2255.89Z" fill="white" fill-opacity="0.6"/>
<path fill-rule="evenodd" clip-rule="evenodd" d="M1629.18 2153.57C1629.18 2153.57 1577.5 2115.87 1532.69 2107.52C1450.9 2092.28 1402.74 2111.01 1402.74 2111.01C1460.73 2097.07 1585.31 2117.81 1629.18 2153.57Z" fill="white"/>
<path fill-rule="evenodd" clip-rule="evenodd" d="M1576.47 2487.06L1595.37 2537.03C1433.45 2603.32 1331.64 2541.66 1224.17 2400.06C1367.78 2532.23 1457.09 2539.93 1576.47 2487.06Z" fill="white" fill-opacity="0.6"/>
<path fill-rule="evenodd" clip-rule="evenodd" d="M1307.45 2460.42C1307.45 2460.42 1353.13 2514.29 1383.01 2524.83C1412.89 2535.38 1486.73 2523.67 1486.73 2523.67C1430.75 2524.61 1342.62 2509.85 1307.45 2460.42Z" fill="white"/>
<path d="M1711.48 2445.85C1684.25 2446.81 1661.33 2423.33 1660.28 2393.4C1659.22 2363.48 1680.44 2338.44 1707.67 2337.48C1734.89 2336.53 1757.82 2360.01 1758.87 2389.93C1759.92 2419.86 1738.7 2444.89 1711.48 2445.85Z" fill="#808080" stroke="black" stroke-width="12.8265" stroke-miterlimit="1.5" stroke-linecap="round" stroke-linejoin="round"/>
<path fill-rule="evenodd" clip-rule="evenodd" d="M1694.19 2356.5C1719.49 2358.42 1734.84 2373.04 1744.53 2389.39C1744.53 2389.39 1745.03 2367.82 1726.29 2355.82C1718 2350.5 1694.19 2356.5 1694.19 2356.5Z" fill="white"/>
</g>
<defs>
<clipPath id="clip0_910_9">
<rect width="2160" height="2700" fill="white"/>
</clipPath>
</defs>
</svg>
