<svg width="2160" height="2700" viewBox="0 0 2160 2700" fill="none" xmlns="http://www.w3.org/2000/svg">
<path fill-rule="evenodd" clip-rule="evenodd" d="M653.644 1097.61L537.014 1042.97L715.738 725.909L757.174 667.078L809.432 677.53L750.399 1012.67L653.644 1097.61Z" fill="#54C5ED" stroke="black" stroke-width="14.0138" stroke-miterlimit="1.5" stroke-linecap="round" stroke-linejoin="round"/>
<path fill-rule="evenodd" clip-rule="evenodd" d="M812.293 956.831L693.812 1004.68L838.571 774.431L880.007 715.599L932.265 726.052L903.304 910.131L812.293 956.831Z" fill="#54C5ED" stroke="black" stroke-width="14.0138" stroke-miterlimit="1.5" stroke-linecap="round" stroke-linejoin="round"/>
<path fill-rule="evenodd" clip-rule="evenodd" d="M556.718 1062.62L430.655 1036.25L531.749 686.603L558.56 619.825L611.822 617.991L634.566 996.259L556.718 1062.62Z" fill="#54C5ED" stroke="black" stroke-width="14.0138" stroke-miterlimit="1.5" stroke-linecap="round" stroke-linejoin="round"/>
<path fill-rule="evenodd" clip-rule="evenodd" d="M1506 1093.03L1620.53 1034.11L1430.19 723.885L1386.6 666.628L1334.76 679.009L1414.42 1014.57L1506 1093.03Z" fill="#54C5ED" stroke="black" stroke-width="14.0138" stroke-miterlimit="1.5" stroke-linecap="round" stroke-linejoin="round"/>
<path fill-rule="evenodd" clip-rule="evenodd" d="M1342.25 958.224L1462.42 1001.65L1309.23 776.922L1265.65 719.665L1213.81 732.046L1249.57 914.927L1342.25 958.224Z" fill="#54C5ED" stroke="black" stroke-width="14.0138" stroke-miterlimit="1.5" stroke-linecap="round" stroke-linejoin="round"/>
<path fill-rule="evenodd" clip-rule="evenodd" d="M1601.57 1054.48L1726.57 1023.45L1612.59 677.791L1583.33 612.052L1530.03 612.191L1521.31 991.042L1601.57 1054.48Z" fill="#54C5ED" stroke="black" stroke-width="14.0138" stroke-miterlimit="1.5" stroke-linecap="round" stroke-linejoin="round"/>
<path fill-rule="evenodd" clip-rule="evenodd" d="M1079.21 814.213C1321.74 814.213 1870.63 1019.79 1967.92 1325.75C2005.09 1442.63 1686.51 1579.53 1686.51 1717.3C1686.51 1855.68 1672.3 1988.86 1640.97 2107.97C1614.86 2207.25 1477.34 2285.14 1425.76 2359.74C1377.99 2428.85 1417.78 2496.72 1351.96 2538.14C1267.02 2591.59 1171.92 2620.39 1079.21 2620.39C983.03 2620.39 892.05 2587.08 811.193 2527.78C755.416 2486.88 783.895 2427.85 739.384 2364.64C688.353 2292.17 566.35 2212.39 534.698 2117.39C494.507 1996.77 471.91 1860.93 471.91 1717.3C471.91 1624.36 173.775 1438.07 191.345 1353.67C267.994 985.428 806.534 814.213 1079.21 814.213ZM1082.49 885.248C797.884 885.248 566.82 1148.41 566.82 1472.55C566.82 1796.7 797.884 2059.86 1082.49 2059.86C1367.1 2059.86 1598.17 1796.7 1598.17 1472.55C1598.17 1148.41 1367.1 885.248 1082.49 885.248Z" fill="#00A8E4" stroke="black" stroke-width="16.178" stroke-miterlimit="1.5" stroke-linecap="round" stroke-linejoin="round"/>
<path fill-rule="evenodd" clip-rule="evenodd" d="M1081.47 844.879C1387.48 844.879 1622.77 1121.3 1622.77 1468.61C1622.77 1815.91 1388.25 2145.89 1082.24 2145.89C776.235 2145.89 538.13 1821.87 538.13 1474.55C538.13 1127.25 775.465 844.879 1081.47 844.879ZM1081.47 876.776C791.892 876.776 557.859 1144.55 557.859 1473.21C557.859 1801.88 791.892 2069.65 1081.47 2069.65C1371.05 2069.65 1605.08 1801.88 1605.08 1473.21C1605.08 1144.55 1371.05 876.776 1081.47 876.776Z" fill="#808080" stroke="black" stroke-width="7.00056" stroke-miterlimit="2" stroke-linejoin="round"/>
<path fill-rule="evenodd" clip-rule="evenodd" d="M1079.26 2358.41C1103.24 2325.45 1151.22 2325.45 1175.2 2339.24C1199.19 2353.04 1199.19 2380.62 1175.2 2408.21C1158.41 2428.9 1115.24 2449.59 1079.26 2463.39C1043.27 2449.59 1000.1 2428.9 983.307 2408.21C959.32 2380.62 959.32 2353.04 983.307 2339.24C1007.29 2325.45 1055.27 2325.45 1079.26 2358.41Z" fill="#FF2E33" stroke="black" stroke-width="10.3694" stroke-miterlimit="1.5" stroke-linecap="round" stroke-linejoin="round"/>
<path d="M530.036 2103.09L792.992 2346.18L987.853 2203.68L717.995 1963.67L729.315 1901.37" stroke="black" stroke-width="12" stroke-miterlimit="1.5" stroke-linecap="round" stroke-linejoin="round"/>
<path d="M1646.77 2103.17L1388.26 2344.16L1193.49 2211.7L1458.82 1963.75L1447.5 1901.45" stroke="black" stroke-width="12" stroke-miterlimit="1.5" stroke-linecap="round" stroke-linejoin="round"/>
<path d="M829.316 2182.03L657.382 2013.15L616.898 2054.36L788.833 2223.24L829.316 2182.03Z" fill="black" fill-opacity="0.3" stroke="black" stroke-width="12" stroke-miterlimit="1.5" stroke-linecap="round" stroke-linejoin="round"/>
<path d="M1327.9 2182.03L1499.84 2013.15L1540.32 2054.36L1368.39 2223.24L1327.9 2182.03Z" fill="black" fill-opacity="0.3" stroke="black" stroke-width="12" stroke-miterlimit="1.5" stroke-linecap="round" stroke-linejoin="round"/>
<path fill-rule="evenodd" clip-rule="evenodd" d="M450.658 1053.4L321.685 1063.83L334.891 647.522L344.707 565.665L396.04 546.98L510.192 956.026L450.658 1053.4Z" fill="#54C5ED" stroke="black" stroke-width="12" stroke-miterlimit="1.5" stroke-linecap="round" stroke-linejoin="round"/>
<path fill-rule="evenodd" clip-rule="evenodd" d="M665.521 1003.83C606.11 1009.28 597.072 1006.2 574.575 990.136L648.277 665.615L667.536 603.833L717.713 599.168L759.515 927.6L665.521 1003.83Z" fill="#54C5ED" stroke="black" stroke-width="10.7061" stroke-miterlimit="1.5" stroke-linecap="round" stroke-linejoin="round"/>
<path fill-rule="evenodd" clip-rule="evenodd" d="M561.045 1175.77C503.419 1203.38 493.416 1203.12 465.858 1192.87L416.906 802.716L416.594 725.222L465.244 701.835L633.499 1054.78L561.045 1175.77Z" fill="#54C5ED" stroke="black" stroke-width="11.9928" stroke-miterlimit="1.5" stroke-linecap="round" stroke-linejoin="round"/>
<path fill-rule="evenodd" clip-rule="evenodd" d="M379.103 1142.28L269.827 1210.07L128.705 936.957L102.855 873.791L140.223 836.408L390.533 1044.75L379.103 1142.28Z" fill="#54C5ED" stroke="black" stroke-width="11.8918" stroke-miterlimit="1.5" stroke-linecap="round" stroke-linejoin="round"/>
<path fill-rule="evenodd" clip-rule="evenodd" d="M401.596 1164.06L267.999 1181.27L192.696 762.968L192.815 680.525L241.594 655.932L442.516 1052.04C435.316 1081.94 443.156 1115.71 401.596 1164.06Z" fill="#54C5ED" stroke="black" stroke-width="12" stroke-miterlimit="1.5" stroke-linecap="round" stroke-linejoin="round"/>
<path fill-rule="evenodd" clip-rule="evenodd" d="M357.238 1308.4C336.77 1374.09 310.621 1411.99 257.167 1388.59L96.3985 1153.2L70.5484 1090.03L107.916 1052.65L368.667 1210.87L357.238 1308.4Z" fill="#54C5ED" stroke="black" stroke-width="11.8918" stroke-miterlimit="1.5" stroke-linecap="round" stroke-linejoin="round"/>
<path fill-rule="evenodd" clip-rule="evenodd" d="M518.026 1344.9C484.813 1404.6 445.751 1419.01 402.769 1403.06L275.76 1078.69L254.432 1004.19L294.91 968.483L536.861 1238.05L518.026 1344.9Z" fill="#54C5ED" stroke="black" stroke-width="11.9928" stroke-miterlimit="1.5" stroke-linecap="round" stroke-linejoin="round"/>
<path fill-rule="evenodd" clip-rule="evenodd" d="M549.84 1602.29C542.315 1674 515.402 1693.03 456.646 1665.35L268.392 1389.42L236.571 1322.93L271.013 1281.98L537.245 1486.16L549.84 1602.29Z" fill="#54C5ED" stroke="black" stroke-width="11.9615" stroke-miterlimit="1.5" stroke-linecap="round" stroke-linejoin="round"/>
<path fill-rule="evenodd" clip-rule="evenodd" d="M1720.85 1055.07L1849.7 1066.9L1841.02 650.473L1832.09 568.514L1780.97 549.273L1662.38 957.054L1720.85 1055.07Z" fill="#54C5ED" stroke="black" stroke-width="12" stroke-miterlimit="1.5" stroke-linecap="round" stroke-linejoin="round"/>
<path fill-rule="evenodd" clip-rule="evenodd" d="M1506.54 1003.17C1565.89 1009.27 1574.96 1006.29 1597.63 990.464L1527.46 665.162L1508.87 603.174L1458.75 597.964L1413.38 925.923L1506.54 1003.17Z" fill="#54C5ED" stroke="black" stroke-width="10.7061" stroke-miterlimit="1.5" stroke-linecap="round" stroke-linejoin="round"/>
<path fill-rule="evenodd" clip-rule="evenodd" d="M1609.14 1176.24C1666.47 1204.47 1676.47 1204.31 1704.14 1194.36L1757.32 804.766L1758.48 727.281L1710.09 703.367L1538.01 1054.46L1609.14 1176.24Z" fill="#54C5ED" stroke="black" stroke-width="11.9928" stroke-miterlimit="1.5" stroke-linecap="round" stroke-linejoin="round"/>
<path fill-rule="evenodd" clip-rule="evenodd" d="M1791.44 1144.72L1899.97 1213.7L2044.05 942.131L2070.58 879.249L2033.62 841.463L1781.07 1047.07L1791.44 1144.72Z" fill="#54C5ED" stroke="black" stroke-width="11.8918" stroke-miterlimit="1.5" stroke-linecap="round" stroke-linejoin="round"/>
<path fill-rule="evenodd" clip-rule="evenodd" d="M1768.71 1166.25L1902.11 1184.91L1981.95 767.458L1982.73 685.018L1934.22 659.897L1729.01 1053.8C1735.88 1083.77 1727.68 1117.46 1768.71 1166.25Z" fill="#54C5ED" stroke="black" stroke-width="12" stroke-miterlimit="1.5" stroke-linecap="round" stroke-linejoin="round"/>
<path fill-rule="evenodd" clip-rule="evenodd" d="M1811.5 1311.07C1831.25 1376.98 1856.99 1415.16 1910.69 1392.34L2074.01 1158.71L2100.54 1095.83L2063.58 1058.04L1801.13 1213.42L1811.5 1311.07Z" fill="#54C5ED" stroke="black" stroke-width="11.8918" stroke-miterlimit="1.5" stroke-linecap="round" stroke-linejoin="round"/>
<path fill-rule="evenodd" clip-rule="evenodd" d="M1650.32 1345.82C1682.88 1405.88 1721.79 1420.71 1764.94 1405.23L1895.46 1082.26L1917.6 1008L1877.51 971.849L1632.65 1238.77L1650.32 1345.82Z" fill="#54C5ED" stroke="black" stroke-width="11.9928" stroke-miterlimit="1.5" stroke-linecap="round" stroke-linejoin="round"/>
<path fill-rule="evenodd" clip-rule="evenodd" d="M1615.71 1602.85C1622.46 1674.64 1649.16 1693.96 1708.22 1666.92L1899.46 1393.05L1932 1326.9L1898 1285.59L1629.57 1486.86L1615.71 1602.85Z" fill="#54C5ED" stroke="black" stroke-width="11.9615" stroke-miterlimit="1.5" stroke-linecap="round" stroke-linejoin="round"/>
<path fill-rule="evenodd" clip-rule="evenodd" d="M1394.44 907.019L1347.6 950.606L1411.44 1008.11L1543.13 1014.16L1545.49 1051.87L1477.71 1079.99L1553.67 1204.36L1630.29 1225.01L1572.2 1239.16L1606.55 1464.49L1714.12 1409.47L1634.41 1478.36L1533.04 1775.98L1691.69 1675.17L1669.57 1567.4L1913.3 1299.68L1898 1277.01L1829.32 1326.66L2039 1078.97L1857.09 1175.72L1779.18 1357.95L1714.12 1409.47L1688.84 1376.35L1892.25 984.875L1885.21 960.275L1951.64 672.633L1902.03 740.309L1738.05 1032.13L1805.26 559.262L1784.63 575.162L1734.93 707.867L1763.95 725.981L1738.05 1032.13L1647.29 1108.41L1734.93 707.867L1711.49 703.302L1610.07 919.926L1558.57 618.868L1540.33 613.193L1534.79 676.015L1592.12 938.602L1508.58 955.472L1489.48 602.807L1468.06 599.705L1428.95 847.6L1394.75 824.266L1367.38 679.46L1345.78 684.845L1386.71 868.019L1300.86 836.364L1247.88 728.305L1220.94 731.295L1233.22 824.162L1394.44 907.019Z" fill="black" fill-opacity="0.3"/>
<path d="M871.981 2555.59L1029.47 2438.64L1039.37 2064.58" stroke="black" stroke-width="12" stroke-miterlimit="1.5" stroke-linecap="round" stroke-linejoin="round"/>
<path d="M1308.58 2555.59L1151.1 2438.64L1141.2 2064.58" stroke="black" stroke-width="12" stroke-miterlimit="1.5" stroke-linecap="round" stroke-linejoin="round"/>
<path fill-rule="evenodd" clip-rule="evenodd" d="M964.696 2595.15C900.562 2530.43 813.708 2477.55 841.162 2312.93C841.162 2312.93 646.415 2196.87 594.654 2099.19C538.469 1993.15 517.16 1672.56 517.16 1672.56L273.55 1349.03L260.997 1301.1L480.876 1441.32L478.581 1391.44L280.119 980.318L300.249 966.172L331.28 1006.34L223.457 671.758L196.027 680.928L201.873 768.492L226.652 961.78L131.037 849.21L106.524 871.111L230.154 1125.03L284.412 1162.13L204.91 1142.91L212.19 1203.27L89.3322 1074.72L77.0762 1089.64L99.4911 1152.56L206.156 1319.91L196.917 1368.92L474.199 1698.72L490.498 1944.28L546.134 2153.54L758.426 2388.18L793.589 2510.34C846.615 2555.62 902.965 2586.8 964.696 2595.15Z" fill="black" fill-opacity="0.3"/>
<path fill-rule="evenodd" clip-rule="evenodd" d="M506.537 1188.88L535.928 1183.89L442.29 715.946L414.982 721.127L411.305 805.855L430.449 901.162L389.872 860.69L377.98 561.881L354.014 567.307L327.13 817.67L404.043 990.799L334.616 1008.01L506.537 1188.88Z" fill="black" fill-opacity="0.3"/>
<path fill-rule="evenodd" clip-rule="evenodd" d="M635.773 995.063L692.181 601.906L672.01 603.65L619.265 795.662L569.655 895.633L586.367 622.619L563.194 615.947L541.23 672.397L507.939 781.417L613.401 1005.11L627.477 1025.09L635.773 995.063Z" fill="black" fill-opacity="0.3"/>
<path fill-rule="evenodd" clip-rule="evenodd" d="M768.522 669.643L753.785 855.488L734.872 706.534L768.522 669.643Z" fill="black" fill-opacity="0.3"/>
<path fill-rule="evenodd" clip-rule="evenodd" d="M871.664 826.887L904.646 722.76L886.056 713.508L792.167 850.236L871.664 826.887Z" fill="black" fill-opacity="0.3"/>
<path fill-rule="evenodd" clip-rule="evenodd" d="M1631.21 1879.39C1643.61 1884.35 1670.81 1902.21 1672.59 1911.48C1675.13 1924.65 1665.84 1997.77 1660.2 2010.97C1654.48 2024.35 1599.73 1943.92 1597.16 1902.65C1595.31 1873.03 1611.6 1871.54 1631.21 1879.39Z" fill="#1D9A6C" stroke="black" stroke-width="12" stroke-miterlimit="1.5" stroke-linecap="round" stroke-linejoin="round"/>
<path fill-rule="evenodd" clip-rule="evenodd" d="M1644.11 1753.62C1656.79 1757.04 1685.04 1770.6 1687.4 1778.52C1690.76 1789.79 1686.08 1853.99 1681.28 1865.87C1676.42 1877.91 1616.76 1811.96 1611.61 1776.29C1607.91 1750.68 1624.06 1748.21 1644.11 1753.62Z" fill="#1D9A6C" stroke="black" stroke-width="11.2007" stroke-miterlimit="1.5" stroke-linecap="round" stroke-linejoin="round"/>
<path fill-rule="evenodd" clip-rule="evenodd" d="M1356.8 1021.61C1356.8 1021.61 1525.22 1227.56 1524.7 1359.24C1523.8 1587.83 1415.96 1824.39 1415.96 1824.39C1525.65 1521.86 1477.75 1244.58 1356.8 1021.61Z" fill="white"/>
</svg>
