<svg width="2160" height="2700" viewBox="0 0 2160 2700" fill="none" xmlns="http://www.w3.org/2000/svg">
<g clip-path="url(#clip0_1998_1162)">
<path d="M2306.02 -73.4141H-163.227V3289.79H2306.02V-73.4141Z" fill="#F20D0D" stroke="#3C3C3C" stroke-width="2.51072" stroke-miterlimit="1.5" stroke-linecap="square" stroke-linejoin="round"/>
<path fill-rule="evenodd" clip-rule="evenodd" d="M1156.98 -1269.23L1182.45 -1266.26L1096.01 1086.8L1353.83 -1226L1378.87 -1217.11L1121.05 1095.69L1545.85 -1137.27L1570.02 -1122.63L1145.21 1110.32L1729.73 -1004.6L1752.63 -984.453L1168.11 1130.46L1902.33 -830.224L1923.55 -804.922L1189.33 1155.77L2060.7 -617.15L2079.89 -587.123L1208.52 1185.79L2202.13 -369.012L2218.96 -334.767L1225.35 1220.04L2324.19 -90.0566L2338.37 -52.1876L1239.53 1257.9L2424.81 214.943L2436.1 255.787L1250.82 1298.75L2502.25 540.761L2510.46 583.886L1259.02 1341.88L2555.2 881.833L2560.18 926.5L1264 1386.54L2582.74 1232.31L2584.42 1277.76L1265.67 1431.98L2584.42 1586.21L2582.74 1631.66L1264 1477.43L2560.18 1937.47L2555.2 1982.14L1259.02 1522.1L2510.46 2280.09L2502.25 2323.21L1250.82 1565.22L2436.1 2608.19L2424.81 2649.03L1239.53 1606.07L2338.37 2916.16L2324.19 2954.03L1225.35 1643.94L2218.96 3198.74L2202.13 3232.98L1208.52 1678.17L2079.89 3451.09L2060.7 3481.12L1189.33 1708.21L1923.55 3668.9L1902.33 3694.2L1168.11 1733.51L1752.63 3848.43L1729.73 3868.57L1145.21 1753.65L1570.02 3986.61L1545.85 4001.26L1121.05 1768.29L1378.87 4081.08L1353.83 4089.96L1096.01 1777.17L1182.45 4130.21L1156.98 4133.22L1070.54 1780.15L984.108 4133.22L958.64 4130.21L1045.07 1777.17L787.248 4089.96L762.214 4081.08L1020.04 1768.29L595.236 4001.26L571.066 3986.61L995.871 1753.65L411.354 3868.57L388.463 3848.43L972.98 1733.51L238.753 3694.2L217.53 3668.9L951.757 1708.21L80.3826 3481.12L61.1929 3451.09L932.568 1678.17L-61.0442 3232.98L-77.8736 3198.74L915.74 1643.94L-183.11 2954.03L-197.291 2916.16L901.56 1606.07L-283.726 2649.03L-295.014 2608.19L890.27 1565.22L-361.169 2323.21L-369.373 2280.09L882.066 1522.1L-414.114 1982.14L-419.095 1937.47L877.087 1477.43L-441.659 1631.66L-443.328 1586.21L875.418 1431.98L-443.328 1277.76L-441.659 1232.31L877.087 1386.54L-419.095 926.5L-414.114 881.833L882.066 1341.88L-369.373 583.886L-361.169 540.761L890.27 1298.75L-295.014 255.787L-283.726 214.943L901.56 1257.9L-197.291 -52.1876L-183.11 -90.0566L915.74 1220.04L-77.8736 -334.767L-61.0442 -369.012L932.568 1185.79L61.1929 -587.123L80.3826 -617.15L951.757 1155.77L217.53 -804.922L238.753 -830.224L972.98 1130.46L388.463 -984.453L411.354 -1004.6L995.871 1110.32L571.066 -1122.63L595.236 -1137.27L1020.04 1095.69L762.214 -1217.11L787.248 -1226L1045.07 1086.8L958.64 -1266.26L984.108 -1269.23L1070.54 1083.82L1156.98 -1269.23Z" fill="#F2EFD5" fill-opacity="0.42"/>
<path fill-rule="evenodd" clip-rule="evenodd" d="M829.541 1485.07C404.931 1549.51 -19.3874 1615.88 -444.02 1680.19C-446.659 1680.59 -449.351 1679.7 -451.959 1679.14C-453.208 1678.87 -459.868 1677.42 -466.791 1673.23C-469.457 1671.62 -484.985 1662.22 -489.241 1641.39C-489.776 1638.77 -490.062 1636.11 -490.192 1633.44C-490.934 1618.3 -491.49 1603.15 -491.856 1587.99C-491.921 1585.32 -491.828 1582.63 -491.483 1579.97C-491.081 1576.87 -488.733 1558.8 -471.277 1546.52C-469.086 1544.97 -466.76 1543.61 -464.345 1542.46C-461.932 1541.29 -459.509 1539.81 -456.841 1539.59C-26.6715 1503.97 403.67 1470.46 833.848 1434.96C842.168 1433.83 850.491 1432.71 858.811 1431.58C855.563 1431.14 852.317 1430.7 849.069 1430.27C413.858 1394.17 -21.5235 1360.16 -456.728 1324C-459.375 1323.78 -461.777 1322.3 -464.169 1321.15C-466.964 1319.81 -483.243 1311.98 -489.383 1291.74C-490.154 1289.2 -490.715 1286.58 -491.055 1283.95C-491.397 1281.32 -491.486 1278.65 -491.421 1276C-491.05 1260.84 -490.491 1245.69 -489.747 1230.55C-489.617 1227.91 -489.331 1225.26 -488.801 1222.67C-488.548 1221.43 -487.193 1214.82 -483.126 1207.91C-481.561 1205.25 -472.44 1189.77 -451.858 1185.31C-449.276 1184.74 -446.61 1183.87 -443.996 1184.27C-19.0453 1248.48 405.596 1314.73 830.528 1379.07L854.949 1381.45C846.177 1378.15 837.405 1374.84 828.633 1371.54C405.165 1236.5 -18.8948 1103.32 -442.32 968.156C-444.855 967.345 -446.866 965.362 -448.941 963.695C-451.362 961.752 -465.502 950.4 -466.699 929.196C-466.848 926.537 -466.742 923.862 -466.48 921.214C-465.006 906.309 -463.336 891.415 -461.494 876.552C-461.176 873.971 -460.704 871.4 -460 868.897C-459.661 867.703 -457.862 861.32 -453.399 854.829C-451.679 852.331 -441.684 837.795 -421.241 834.705C-418.672 834.32 -416.062 834.144 -413.466 834.175C-410.868 834.211 -408.126 833.972 -405.708 834.923C0.664246 994.059 406.333 1154.99 812.633 1314.31C824.049 1318.15 835.466 1322 846.882 1325.85C829.958 1315.13 813.038 1304.41 796.12 1293.68C397.517 1068.49 -1.96622 844.868 -400.44 619.45C-402.814 618.105 -404.397 615.675 -406.11 613.551C-406.929 612.538 -411.305 607.116 -414.003 599.295C-414.428 598.059 -416.701 591.474 -416.578 583.201C-416.539 580.475 -416.223 577.748 -415.751 575.063C-413.209 560.652 -410.447 546.282 -407.541 531.939C-407.04 529.467 -406.395 527.01 -405.531 524.637C-405.119 523.505 -402.918 517.45 -398.169 511.457C-397.418 510.511 -393.419 505.464 -387.021 501.278C-370.255 490.304 -353.593 494.09 -350.716 494.745C-348.255 495.306 -345.609 495.638 -343.492 497.014C-102.753 652.926 137.605 809.419 378.029 965.813C275.974 868.674 205.817 771.062 110.741 652.313C-36.6136 530.142 -183.92 407.924 -331.063 285.499C-332.975 283.909 -334.077 281.531 -335.332 279.386C-335.932 278.358 -339.134 272.884 -340.701 265.52C-340.949 264.357 -342.267 258.151 -341.441 250.667C-341.168 248.195 -340.666 245.749 -340.032 243.345C-336.432 229.687 -332.683 216.065 -328.739 202.5C-328.008 199.981 -327.126 197.499 -326.013 195.126C-325.481 193.988 -322.638 187.928 -317.074 182.257C-316.197 181.358 -311.511 176.581 -304.384 173.065C-303.26 172.514 -297.257 169.554 -289.369 168.594C-288.126 168.443 -281.483 167.633 -273.722 169.341C-271.163 169.902 -268.642 170.681 -266.213 171.668C-263.785 172.649 -261.122 173.433 -259.203 175.22C78.9825 489.723 416.036 805.446 753.939 1120.26C779.253 1141.92 804.566 1163.59 829.876 1185.25C804.485 1153.8 779.103 1122.34 753.727 1090.87C423.761 717.701 93.0601 345.179 -236.654 -28.215C-238.187 -29.9495 -238.915 -32.2656 -239.808 -34.4053C-240.236 -35.4283 -242.51 -40.8708 -243.169 -47.8453C-243.273 -48.9515 -243.827 -54.8199 -242.382 -61.6802C-241.903 -63.9445 -241.229 -66.1724 -240.441 -68.3483C-235.852 -81.0198 -231.164 -93.6602 -226.256 -106.212C-225.284 -108.695 -224.162 -111.13 -222.809 -113.431C-222.163 -114.527 -218.705 -120.395 -212.472 -125.547C-211.491 -126.362 -206.24 -130.704 -198.626 -133.425C-197.425 -133.851 -191.011 -136.146 -182.927 -136.11C-181.653 -136.105 -174.842 -136.073 -167.252 -133.29C-164.751 -132.371 -162.321 -131.233 -160.017 -129.893C-157.713 -128.559 -155.139 -127.385 -153.479 -125.297C145.491 249.816 443.223 625.916 741.794 1001.35C771.468 1035.78 801.138 1070.22 830.805 1104.66C805.457 1063.42 780.117 1022.16 754.786 980.905C463.462 548.095 171.262 115.866 -119.669 -317.208C-121.108 -319.348 -121.465 -322.059 -122.043 -324.573C-122.32 -325.777 -123.801 -332.196 -122.902 -339.97C-122.76 -341.196 -122.002 -347.74 -118.547 -354.761C-112.938 -366.176 -107.477 -377.663 -101.715 -389C-100.601 -391.191 -99.3629 -393.326 -97.9348 -395.325C-96.269 -397.662 -86.5904 -411.222 -67.2434 -413.886C-64.4026 -414.281 -47.9033 -416.555 -32.6833 -404.325C-31.7683 -403.588 -26.4834 -399.34 -22.8815 -393.399C236.567 34.9817 495.577 463.622 754.864 892.1C783.832 936.16 812.799 980.219 841.761 1024.29C818.532 975.031 795.315 925.768 772.104 876.5C521.021 392.749 269.119 -90.5806 18.4754 -574.565C17.3107 -576.814 17.2542 -579.493 16.9652 -582.012C16.8267 -583.217 16.0861 -589.646 17.8169 -597.13C18.3864 -599.602 19.1714 -602.027 20.1532 -604.364C21.1349 -606.695 22.3543 -608.934 23.6849 -611.089C29.9327 -621.195 36.3446 -631.197 42.8797 -641.116C44.2069 -643.131 45.6487 -645.079 47.2615 -646.876C49.1445 -648.974 60.0768 -661.147 79.251 -661.63C82.0679 -661.697 98.4201 -662.113 111.933 -648.506C113.633 -646.798 115.58 -645.162 116.597 -642.981C337.764 -167.861 557.847 307.751 778.567 783.079L863.094 949.667C843.297 894.333 823.511 838.994 803.733 783.65C594.167 257.092 383.995 -269.223 174.802 -795.932C173.992 -797.973 174.062 -800.268 173.939 -802.455C173.879 -803.504 173.564 -809.087 175.179 -815.526C175.433 -816.544 176.793 -821.961 180.248 -827.632C181.962 -830.446 183.747 -832.57 184.086 -832.975C191.161 -841.409 198.1 -849.957 205.311 -858.277C206.966 -860.183 208.733 -862.011 210.667 -863.631C211.591 -864.41 216.532 -868.56 223.727 -871.198C224.86 -871.613 230.919 -873.831 238.58 -873.862C239.787 -873.867 246.24 -873.888 253.451 -871.307C254.588 -870.896 260.661 -868.726 266.562 -863.839C268.505 -862.229 270.316 -860.443 271.953 -858.526C273.59 -856.605 275.505 -854.735 276.343 -852.357C457.827 -337.478 638.11 177.822 819.067 692.882C843.92 756.78 868.77 820.678 893.614 884.575C877.604 823.503 861.603 762.425 845.611 701.348C679.129 140.955 512.013 -419.245 345.961 -979.768C345.315 -981.949 345.645 -984.317 345.759 -986.592C345.894 -989.25 346.667 -1004.62 360.225 -1016.55C367.856 -1023.26 375.382 -1030.1 383.119 -1036.69C384.946 -1038.24 386.863 -1039.7 388.905 -1040.96C391.284 -1042.43 405.209 -1051.02 423.563 -1045.54C426.243 -1044.74 441.914 -1040.06 450.035 -1022.72C451.051 -1020.55 451.93 -1018.3 452.525 -1015.97C593.589 -464.754 734.221 86.5764 875.094 637.844C893.708 702.012 912.322 766.18 930.93 830.353C918.616 760.955 906.305 691.558 893.997 622.156C772.467 40.7513 650.265 -540.513 529.253 -1122.03C528.762 -1124.39 529.395 -1126.87 529.778 -1129.26C529.961 -1130.39 530.941 -1136.49 534.491 -1142.89C535.052 -1143.91 538.044 -1149.3 543.563 -1154.12C545.381 -1155.7 547.367 -1157.11 549.41 -1158.39C557.379 -1163.41 565.45 -1168.27 573.58 -1173.03C575.511 -1174.16 577.506 -1175.19 579.578 -1176.03C580.57 -1176.43 585.857 -1178.56 592.614 -1178.99C593.682 -1179.05 599.372 -1179.41 605.917 -1177.67C623.068 -1173.13 630.438 -1159.92 631.71 -1157.64C632.8 -1155.69 634.117 -1153.75 634.496 -1151.54C734.553 -571.007 833.596 9.70605 933.198 590.321C947.458 660.367 961.715 730.419 975.967 800.471C969.046 730.949 962.127 661.432 955.213 591.915C877.334 -11.8718 798.833 -615.576 721.433 -1219.42C721.142 -1221.68 721.884 -1223.97 722.391 -1226.19C722.984 -1228.78 726.441 -1243.92 742.329 -1252.77C744.32 -1253.88 746.424 -1254.79 748.558 -1255.59C756.852 -1258.69 765.2 -1261.65 773.592 -1264.47C775.703 -1265.18 777.856 -1265.79 780.047 -1266.18C781.095 -1266.37 786.684 -1267.36 793.353 -1266.36C795.922 -1265.97 810.858 -1263.7 820.88 -1249.11C822.139 -1247.28 823.252 -1245.33 824.197 -1243.32C825.139 -1241.3 826.314 -1239.28 826.523 -1237.06C883.361 -637.543 939.168 -37.9263 995.542 561.644C1004.9 637.159 1014.25 712.674 1023.6 788.194C1021.89 720.786 1020.17 653.377 1018.46 585.964C985.4 -33.1537 951.719 -652.24 919.108 -1271.38C918.992 -1273.58 919.857 -1275.73 920.497 -1277.83C921.243 -1280.29 925.592 -1294.6 941.387 -1302.17C943.369 -1303.12 945.437 -1303.91 947.547 -1304.53C949.659 -1305.14 951.833 -1305.54 954.012 -1305.83C962.483 -1306.96 970.977 -1307.95 979.482 -1308.81C981.659 -1309.02 983.859 -1309.13 986.046 -1309.02C987.091 -1308.97 992.672 -1308.7 998.836 -1306.24C1001.21 -1305.3 1015.03 -1299.79 1021.28 -1283.52C1022.06 -1281.47 1023.07 -1279.4 1023.12 -1277.21C1035.86 -665.436 1047.56 -53.6411 1059.84 558.139C1063.33 630.122 1066.82 702.106 1070.31 774.089C1074.26 685.534 1078.21 596.984 1082.17 508.429C1094.1 -84.6031 1105.85 -677.64 1117.96 -1270.67C1118.09 -1276.87 1120.17 -1282.28 1120.53 -1283.23C1126.66 -1299.19 1140.22 -1304.58 1142.54 -1305.51C1144.54 -1306.3 1146.57 -1307.11 1148.7 -1307.39C1152.94 -1307.95 1157.28 -1307.45 1161.51 -1308.01C1172.05 -1306.19 1182.78 -1305.59 1193.32 -1303.76C1195.44 -1303.39 1197.41 -1302.39 1199.36 -1301.46C1214.84 -1294.03 1219.1 -1280.01 1219.83 -1277.6C1220.14 -1276.61 1221.83 -1271.04 1221.5 -1264.82C1194.5 -756.064 1167.22 -247.323 1140.03 261.423C1134 426.5 1127.96 591.578 1121.91 756.656C1129.49 695.302 1137.07 633.95 1144.66 572.591C1201.54 -30.5621 1257.86 -633.773 1315.2 -1236.89C1315.4 -1239.07 1316.55 -1241.06 1317.49 -1243.04C1320.3 -1249.05 1324.18 -1253.07 1324.9 -1253.83C1336.97 -1266.39 1351.83 -1266.2 1354.38 -1266.16C1356.57 -1266.13 1358.78 -1265.92 1360.93 -1265.54C1363.09 -1265.15 1365.21 -1264.55 1367.28 -1263.85C1375.68 -1261.03 1384.02 -1258.07 1392.32 -1254.97C1394.42 -1254.19 1396.49 -1253.3 1398.44 -1252.21C1414.07 -1243.5 1417.48 -1228.6 1418.06 -1226.05C1418.57 -1223.86 1419.29 -1221.61 1419.01 -1219.38C1341.14 -610.705 1262.19 -2.16553 1183.87 606.457C1177.08 674.498 1170.29 742.54 1163.49 810.582C1177.85 739.897 1192.22 669.217 1206.6 598.532C1306.8 15.2422 1406.44 -568.146 1507.1 -1151.36C1507.47 -1153.53 1508.77 -1155.46 1509.85 -1157.38C1513.1 -1163.21 1517.25 -1167.01 1518.02 -1167.73C1522.97 -1172.23 1528.1 -1174.52 1529.07 -1174.96C1531.42 -1176 1545.06 -1182.09 1561.31 -1175.53C1563.35 -1174.71 1565.33 -1173.68 1567.23 -1172.57C1575.35 -1167.81 1583.43 -1162.95 1591.4 -1157.94C1593.41 -1156.67 1595.38 -1155.28 1597.18 -1153.72C1602.63 -1148.96 1605.57 -1143.64 1606.12 -1142.64C1609.65 -1136.31 1610.6 -1130.29 1610.79 -1129.17C1611.17 -1126.81 1611.78 -1124.37 1611.3 -1122.04C1489.63 -536.742 1366.78 48.3076 1244.61 633.498C1232.51 701.597 1220.42 769.696 1208.31 837.79C1227.96 770.002 1247.6 702.209 1267.25 634.422C1408.68 82.1104 1549.51 -470.357 1691.43 -1022.54C1692.03 -1024.84 1693.64 -1026.77 1694.99 -1028.71C1705.8 -1044.3 1721.88 -1046.26 1724.61 -1046.6C1731.76 -1047.47 1737.7 -1046.17 1738.81 -1045.93C1745.84 -1044.39 1751 -1041.2 1751.96 -1040.61C1753.98 -1039.36 1755.88 -1037.91 1757.69 -1036.37C1765.44 -1029.78 1773.05 -1023.05 1780.59 -1016.23C1782.25 -1014.72 1783.86 -1013.11 1785.29 -1011.38C1789.64 -1006.11 1791.71 -1000.75 1792.1 -999.751C1794.56 -993.384 1794.85 -987.646 1794.92 -986.571C1795.03 -984.317 1795.35 -981.975 1794.72 -979.814C1627.86 -416.192 1459.93 147.109 1292.64 710.607C1276.99 770.35 1261.33 830.093 1245.66 889.836C1270.75 825.269 1295.84 760.706 1320.95 696.144C1502.36 180.045 1683.09 -336.288 1865.01 -852.201C1865.85 -854.564 1867.75 -856.418 1869.37 -858.324C1874.3 -864.114 1879.87 -867.282 1880.92 -867.879C1887.52 -871.639 1893.83 -872.725 1895.01 -872.927C1902.5 -874.215 1908.81 -873.088 1909.99 -872.875C1917.48 -871.53 1923.02 -868.321 1924.07 -867.718C1926.24 -866.461 1928.31 -865.013 1930.22 -863.397C1932.14 -861.788 1933.9 -859.975 1935.54 -858.08C1942.76 -849.76 1949.79 -841.3 1956.77 -832.778C1958.15 -831.095 1959.45 -829.335 1960.58 -827.471C1964 -821.846 1965.35 -816.461 1965.61 -815.448C1967.22 -809.055 1966.91 -803.514 1966.84 -802.476C1966.72 -800.3 1966.79 -798.02 1965.99 -795.994C1756.03 -267.13 1545.08 261.34 1334.75 790.059C1315.39 844.198 1296.03 898.338 1276.65 952.472C1305.28 895.99 1333.93 839.514 1362.59 783.037C1583.34 307.767 1803.46 -167.799 2024.65 -642.861C2025.66 -645.037 2027.61 -646.663 2029.3 -648.366C2042.75 -661.91 2059.03 -661.5 2061.83 -661.427C2080.92 -660.949 2091.8 -648.828 2093.68 -646.741C2095.29 -644.954 2096.72 -643.012 2098.04 -641.007C2104.57 -631.088 2110.99 -621.086 2117.23 -610.985C2118.56 -608.84 2119.78 -606.612 2120.75 -604.286C2123.71 -597.233 2124.09 -590.799 2124.16 -589.599C2124.29 -587.081 2124.22 -584.541 2123.93 -582.033C2123.64 -579.53 2123.57 -576.86 2122.43 -574.617C1873.15 -93.1824 1622.64 387.608 1372.94 868.814C1348.86 919.988 1324.76 971.157 1300.68 1022.32C1330.35 977.161 1360.04 931.995 1389.73 886.834C1649.41 458.215 1908.4 29.1808 2168.5 -399.194C2169.77 -401.287 2171.93 -402.71 2173.84 -404.247C2189.01 -416.446 2205.48 -414.177 2208.32 -413.787C2227.63 -411.128 2237.28 -397.595 2238.93 -395.268C2240.37 -393.274 2241.6 -391.14 2242.71 -388.953C2248.48 -377.616 2254.11 -366.207 2259.54 -354.719C2260.66 -352.393 2261.63 -349.993 2262.35 -347.527C2264.56 -340.038 2264.2 -333.469 2264.13 -332.243C2263.68 -324.448 2261.15 -318.382 2260.67 -317.245C2259.68 -314.872 2258.52 -312.54 2257.08 -310.405C1965.54 122.545 1673.49 555.158 1381.8 988.009C1357.82 1027.05 1333.84 1066.08 1309.85 1105.12C1339.83 1070.32 1369.79 1035.53 1399.77 1000.74C1698.19 625.511 1995.76 249.618 2294.57 -125.292C2296.23 -127.375 2298.81 -128.554 2301.1 -129.888C2308.1 -133.944 2314.8 -135.149 2316.05 -135.377C2324.01 -136.806 2330.73 -135.658 2331.98 -135.445C2339.95 -134.079 2345.86 -130.714 2346.97 -130.086C2354 -126.087 2358.42 -120.904 2359.25 -119.933C2360.98 -117.907 2362.54 -115.721 2363.89 -113.426C2365.24 -111.13 2366.37 -108.695 2367.34 -106.212C2372.25 -93.6602 2376.94 -81.0198 2381.52 -68.343C2382.31 -66.1671 2382.99 -63.9445 2383.46 -61.6749C2384.91 -54.8198 2384.36 -48.9515 2384.26 -47.8453C2383.59 -40.8708 2381.32 -35.4283 2380.89 -34.4053C2380 -32.2709 2378.94 -30.1936 2377.74 -28.215C2376.53 -26.2363 2375.23 -24.3044 2373.69 -22.5698C2044.1 349.936 1714.09 722.079 1384.38 1094.5C1360.21 1124.48 1336.01 1154.45 1311.83 1184.42C1338.05 1161.98 1364.28 1139.54 1390.5 1117.1C1727.26 803.301 2063.17 488.591 2400.22 175.095C2402.15 173.309 2404.82 172.52 2407.25 171.533C2414.63 168.542 2421.34 168.225 2422.6 168.162C2430.56 167.783 2436.99 169.7 2438.19 170.058C2445.83 172.333 2451.27 176.269 2452.3 177.006C2458.74 181.68 2462.57 187.196 2463.29 188.229C2464.8 190.389 2466.11 192.685 2467.23 195.063C2468.36 197.442 2469.24 199.935 2469.96 202.459C2473.91 216.023 2477.66 229.645 2481.27 243.303C2481.9 245.718 2482.4 248.175 2482.67 250.652C2483.51 258.161 2482.19 264.383 2481.93 265.551C2480.36 272.941 2477.15 278.431 2476.55 279.464C2475.3 281.614 2474.19 284.003 2472.27 285.602C2106.76 589.641 1740.24 892.443 1374.53 1196.24C1351.85 1217.03 1329.16 1237.81 1306.48 1258.59C1326.45 1246.9 1346.43 1235.2 1366.41 1223.5C1739.29 981.523 2111.4 738.391 2484.45 496.671C2486.57 495.29 2489.24 494.952 2491.72 494.386C2499.24 492.678 2505.69 493.311 2506.91 493.431C2514.57 494.179 2520.5 496.822 2521.61 497.315C2524.33 498.525 2540.07 505.531 2546.98 524.512C2547.83 526.901 2548.48 529.378 2549 531.871C2551.9 546.21 2554.67 560.585 2557.21 574.996C2557.68 577.702 2557.99 580.449 2558.04 583.196C2558.16 591.531 2555.87 598.173 2555.44 599.414C2552.72 607.298 2548.31 612.766 2547.49 613.789C2545.76 615.929 2544.17 618.385 2541.78 619.736C2148.82 841.908 1754.88 1062.32 1361.77 1284.23C1341.37 1297.2 1320.96 1310.17 1300.56 1323.13C1312.22 1319.21 1323.89 1315.29 1335.57 1311.37C1736.81 1153.23 2137.79 994.433 2539.08 836.387C2541.52 835.421 2544.1 834.824 2546.69 834.362C2554.54 832.955 2561.17 833.957 2562.42 834.144C2570.29 835.333 2576.26 838.418 2577.37 838.994C2595.94 848.607 2600.8 865.786 2601.64 868.746C2602.34 871.275 2602.82 873.877 2603.14 876.484C2604.99 891.353 2606.65 906.247 2608.14 921.151C2608.4 923.831 2608.5 926.537 2608.34 929.227C2607.15 950.68 2592.83 962.173 2590.39 964.136C2588.28 965.824 2586.04 967.34 2583.68 968.649C2581.34 969.963 2578.89 971.167 2576.33 971.983C2162.02 1103.31 1747.48 1233.82 1333.16 1365.07C1319.87 1370.11 1306.58 1375.14 1293.31 1380.18C1302.46 1379.28 1311.62 1378.39 1320.79 1377.5C1742.31 1313.47 2163.56 1247.56 2585.12 1183.69C2587.75 1183.29 2590.45 1184.17 2593.07 1184.74C2600.99 1186.46 2606.84 1189.99 2607.93 1190.65C2626.18 1201.67 2629.82 1219.49 2630.46 1222.56C2630.99 1225.18 2631.28 1227.85 2631.42 1230.53C2632.15 1245.67 2632.72 1260.82 2633.09 1275.97C2633.14 1278.66 2633.06 1281.36 2632.72 1284.02C2629.96 1305.26 2615.03 1315.79 2612.47 1317.59C2610.26 1319.14 2607.93 1320.51 2605.5 1321.68C2603.09 1322.84 2600.65 1324.33 2597.98 1324.55C2171.19 1359.84 1744.23 1393.04 1317.44 1428.18C1308.15 1429.46 1298.87 1430.72 1289.58 1431.99C1298.9 1433.26 1308.22 1434.52 1317.54 1435.79C1744.35 1470.8 2171.31 1503.86 2598.1 1539.02C2600.8 1539.25 2603.25 1540.75 2605.69 1541.93C2625.16 1551.27 2630.53 1568.92 2631.43 1571.94C2632.24 1574.54 2632.8 1577.2 2633.14 1579.89C2633.5 1582.58 2633.59 1585.31 2633.54 1588.02C2633.16 1603.17 2632.61 1618.32 2631.86 1633.46C2631.72 1636.16 2631.45 1638.86 2630.9 1641.51C2629.26 1649.53 2625.77 1655.48 2625.1 1656.59C2614.21 1675.14 2596.25 1679.04 2593.17 1679.71C2590.54 1680.28 2587.8 1681.18 2585.13 1680.77C2163.68 1616.77 1742.55 1550.71 1321.12 1486.55C1313.1 1485.77 1305.07 1484.99 1297.05 1484.21C1314.87 1490.95 1332.7 1497.7 1350.52 1504.45C1761.64 1634.84 2173.29 1763.53 2584.33 1894.16C2586.96 1895 2589.07 1897.07 2591.22 1898.8C2608.45 1912.62 2609.52 1931.44 2609.69 1934.67C2609.87 1937.43 2609.75 1940.22 2609.47 1942.97C2608.02 1957.88 2606.34 1972.77 2604.5 1987.64C2604.17 1990.32 2603.67 1993 2602.96 1995.6C2600.73 2003.49 2596.82 2009.18 2596.1 2010.24C2583.9 2027.98 2565.74 2030.73 2562.63 2031.21C2559.94 2031.61 2557.24 2031.8 2554.52 2031.76C2551.82 2031.73 2548.96 2031.98 2546.45 2030.99C2147.47 1874.14 1749.21 1715.49 1350.33 1558.4L1311.8 1545.5C1338.56 1562.52 1365.31 1579.54 1392.08 1596.56C1775.65 1812.19 2160.02 2026.4 2543.4 2242.38C2545.92 2243.8 2547.59 2246.38 2549.42 2248.63C2551.24 2250.88 2552.86 2253.3 2554.26 2255.83C2555.67 2258.35 2556.85 2261.01 2557.79 2263.75C2558.74 2266.48 2559.45 2269.31 2559.91 2272.16C2560.37 2275.02 2560.57 2277.92 2560.54 2280.82C2560.49 2283.71 2560.16 2286.6 2559.65 2289.45C2557.14 2303.86 2554.37 2318.23 2551.46 2332.57C2550.93 2335.2 2550.24 2337.81 2549.32 2340.32C2548.26 2343.26 2542.07 2360.31 2522.64 2368.97C2519.78 2370.25 2503.21 2377.63 2483.49 2369.67C2480.99 2368.66 2478.55 2367.53 2476.29 2366.07C2113.16 2129.17 1750.4 1891.65 1387.34 1654.61C1368.03 1643.36 1348.72 1632.11 1329.41 1620.85C1361.89 1650.73 1394.37 1680.61 1426.83 1710.5C1776.13 1999.19 2126.14 2286.99 2475.13 2576.01C2477.21 2577.73 2478.39 2580.31 2479.76 2582.64C2483.88 2589.67 2485.3 2596.39 2485.58 2597.65C2487.29 2605.63 2486.54 2612.45 2486.38 2613.73C2486.09 2616.41 2485.54 2619.06 2484.86 2621.66C2481.28 2635.33 2477.54 2648.95 2473.59 2662.51C2472.78 2665.24 2471.84 2667.93 2470.63 2670.5C2469.43 2673.08 2468 2675.55 2466.39 2677.89C2464.76 2680.22 2462.93 2682.42 2460.95 2684.45C2458.97 2686.48 2456.79 2688.35 2454.5 2690.02C2452.19 2691.68 2449.75 2693.16 2447.2 2694.42C2444.65 2695.67 2442 2696.72 2439.28 2697.53C2436.54 2698.34 2433.76 2698.93 2430.93 2699.27C2428.11 2699.61 2425.26 2699.72 2422.42 2699.59C2419.58 2699.45 2416.74 2699.08 2413.97 2698.47C2411.2 2697.86 2408.46 2697.02 2405.83 2695.95C2403.19 2694.89 2400.3 2694.05 2398.23 2692.1C2072.42 2387.71 1747.77 2082.09 1422.33 1777.31C1395.93 1754.85 1369.54 1732.4 1343.15 1709.94C1377.28 1752.45 1411.4 1794.98 1445.51 1837.52C1757.59 2188.28 2070.32 2538.49 2382.05 2889.56C2383.76 2891.48 2384.57 2894.06 2385.56 2896.43C2388.55 2903.6 2389.17 2910.12 2389.29 2911.34C2390.02 2919.09 2388.67 2925.49 2388.43 2926.69C2387.9 2929.21 2387.15 2931.68 2386.28 2934.1C2381.71 2946.78 2377.02 2959.42 2372.1 2971.97C2371.02 2974.72 2369.77 2977.43 2368.29 2979.98C2366.78 2982.53 2365.05 2984.96 2363.12 2987.21C2361.2 2989.46 2359.08 2991.56 2356.81 2993.45C2354.52 2995.33 2352.07 2997.03 2349.51 2998.49C2346.92 2999.95 2344.22 3001.2 2341.43 3002.2C2338.65 3003.2 2335.76 3003.95 2332.85 3004.46C2329.92 3004.96 2326.95 3005.21 2323.99 3005.19C2321.03 3005.18 2318.07 3004.91 2315.15 3004.39C2312.24 3003.87 2309.36 3003.09 2306.58 3002.07C2303.81 3001.05 2301.1 2999.78 2298.54 2998.3C2295.97 2996.82 2293.1 2995.52 2291.27 2993.2C2005.26 2632.31 1720.54 2270.41 1435.04 1909.12C1406.26 1875.95 1377.47 1842.78 1348.69 1809.6C1381.64 1863.61 1414.6 1917.64 1447.54 1971.67C1720.51 2374.05 1994.22 2775.95 2266.66 3178.71C2268.3 3181.14 2268.71 3184.24 2269.36 3187.11C2270.03 3189.98 2270.46 3192.91 2270.61 3195.85C2270.78 3198.79 2270.7 3201.75 2270.35 3204.68C2270.03 3207.61 2269.43 3210.51 2268.61 3213.33C2267.77 3216.16 2266.66 3218.9 2265.39 3221.57C2259.97 3233.07 2254.34 3244.48 2248.58 3255.81C2247.3 3258.31 2245.9 3260.75 2244.25 3263.03C2231.31 3281.19 2212.46 3283.81 2209.21 3284.25C2187.11 3287.31 2172.27 3275.4 2169.72 3273.35C2167.53 3271.59 2165.05 3269.96 2163.61 3267.56C1917 2858.35 1671.54 2448.44 1425.46 2038.91C1397.69 1997.04 1369.91 1955.16 1342.15 1913.28C1369.95 1972.74 1397.72 2032.21 1425.5 2091.69C1659.26 2537.14 1893.3 2982.45 2126.82 3428.03C2128.19 3430.67 2129.22 3433.49 2130.06 3436.35C2130.89 3439.2 2131.49 3442.14 2131.84 3445.09C2132.18 3448.05 2132.26 3451.04 2132.09 3454.02C2131.94 3456.99 2131.51 3459.95 2130.84 3462.85C2130.18 3465.75 2129.25 3468.6 2128.11 3471.35C2126.94 3474.09 2125.51 3476.72 2123.95 3479.25C2117.73 3489.37 2111.31 3499.37 2104.76 3509.28C2103.21 3511.65 2101.51 3513.94 2099.61 3516.05C2084.56 3532.83 2065.34 3533.32 2062.04 3533.4C2039.5 3533.98 2025.95 3520.34 2023.61 3517.99C2021.61 3515.98 2019.78 3513.8 2018.12 3511.49C2016.48 3509.19 2014.95 3506.77 2013.77 3504.19C1857.35 3163.9 1701.22 2823.48 1545.03 2483.08C1477.08 2349.45 1411.16 2214.79 1345.71 2079.9C1361.79 2125.36 1377.85 2170.82 1393.91 2216.28C1587.62 2696.87 1781.8 3177.27 1975 3658.07C1975.99 3660.52 1975.91 3663.29 1976.04 3665.93C1976.51 3673.91 1974.86 3680.44 1974.56 3681.66C1972.62 3689.42 1969.12 3695.17 1968.47 3696.25C1967.08 3698.5 1965.51 3700.64 1963.85 3702.69C1956.89 3711.23 1949.86 3719.69 1942.62 3727.99C1940.62 3730.29 1938.5 3732.49 1936.18 3734.45C1933.85 3736.41 1931.34 3738.17 1928.7 3739.7C1926.07 3741.22 1923.3 3742.52 1920.44 3743.57C1917.59 3744.62 1914.63 3745.42 1911.63 3745.96C1908.64 3746.49 1905.58 3746.77 1902.53 3746.78C1899.51 3746.8 1896.45 3746.55 1893.45 3746.03C1890.44 3745.52 1887.48 3744.74 1884.63 3743.72C1881.75 3742.69 1878.97 3741.41 1876.32 3739.9C1873.68 3738.4 1871.15 3736.66 1868.81 3734.72C1866.46 3732.78 1864.29 3730.63 1862.31 3728.31C1860.34 3726 1858.02 3723.75 1857.01 3720.88C1687.81 3234.72 1519.92 2748.09 1351.41 2261.68C1331.55 2211.42 1311.71 2161.15 1291.85 2110.89C1310.72 2184.27 1329.58 2257.64 1348.43 2331.02C1500.73 2834.88 1653.5 3338.59 1805.18 3842.63C1806.01 3845.33 1805.58 3848.26 1805.44 3851.07C1805.01 3859.59 1802.41 3866.29 1801.93 3867.53C1798.86 3875.48 1794.29 3881.04 1793.43 3882.07C1791.64 3884.25 1789.64 3886.23 1787.57 3888.15C1780.04 3895 1772.43 3901.7 1764.67 3908.3C1762.41 3910.22 1760.03 3912.04 1757.52 3913.6C1754.99 3915.15 1752.32 3916.5 1749.57 3917.6C1746.81 3918.69 1743.97 3919.62 1741.07 3920.24C1738.17 3920.87 1735.2 3921.28 1732.24 3921.39C1729.26 3921.54 1726.29 3921.44 1723.33 3921.08C1720.39 3920.71 1717.46 3920.09 1714.62 3919.26C1711.77 3918.43 1709 3917.34 1706.33 3915.99C1703.66 3914.69 1701.11 3913.13 1698.7 3911.42C1696.31 3909.65 1694.03 3907.73 1691.96 3905.6C1689.88 3903.47 1687.98 3901.18 1686.28 3898.74C1684.59 3896.3 1682.56 3893.91 1681.84 3891.01C1568.99 3443.69 1457.09 2996.14 1344.94 2548.64C1314.84 2442.59 1284.75 2336.53 1254.7 2230.46C1264.95 2290.1 1275.19 2349.73 1285.44 2409.37C1398.1 2934.84 1511.29 3460.21 1623.21 3985.83C1623.86 3988.85 1623.04 3992.01 1622.56 3995.03C1622.06 3998.09 1621.31 4001.05 1620.32 4003.96C1619.31 4006.87 1618.04 4009.72 1616.55 4012.37C1615.07 4015.07 1613.34 4017.67 1611.42 4020.06C1609.49 4022.45 1607.34 4024.63 1605.03 4026.71C1602.72 4028.68 1600.17 4030.5 1597.59 4032.11C1589.63 4037.2 1581.56 4042.03 1573.42 4046.75C1570.96 4048.21 1568.43 4049.5 1565.79 4050.59C1557.79 4053.81 1550.55 4054.28 1549.19 4054.33C1540.58 4054.91 1533.57 4053.04 1532.25 4052.67C1529.04 4051.84 1510.41 4046.91 1499.4 4027.17C1498 4024.68 1496.3 4022.24 1495.84 4019.44C1406.2 3484.35 1317.7 2949.09 1228.71 2413.9L1194.11 2248C1200.82 2319.65 1207.53 2391.3 1214.23 2462.94C1287 3003.32 1360.25 3543.64 1432.32 4084.09C1432.71 4087.05 1431.72 4090.06 1431.06 4092.97C1430.39 4095.88 1429.48 4098.74 1428.35 4101.54C1427.21 4104.29 1425.82 4106.94 1424.25 4109.49C1422.66 4112.03 1420.86 4114.42 1418.88 4116.65C1416.89 4118.89 1414.7 4120.96 1412.38 4122.83C1410.05 4124.7 1407.56 4126.36 1404.94 4127.82C1402.34 4129.27 1399.57 4130.47 1396.78 4131.56C1388.5 4134.67 1380.16 4137.63 1371.74 4140.44C1368.97 4141.32 1366.15 4142.15 1363.28 4142.67C1340.43 4146.77 1324.54 4134.93 1321.82 4132.86C1319.48 4131.14 1317.27 4129.17 1315.25 4127.09C1313.23 4124.96 1311.37 4122.68 1309.71 4120.29C1308.07 4117.9 1306.6 4115.35 1305.37 4112.71C1304.12 4110.06 1302.56 4107.41 1302.3 4104.5C1253.26 3557.41 1205.36 3010.23 1156.99 2463.08L1150.03 2409.23C1162.01 2690.02 1174.04 2970.82 1183.54 3251.68C1201.15 3546.82 1218.67 3841.98 1235.86 4137.17C1236.03 4140.13 1234.85 4143.03 1233.99 4145.89C1227.11 4168.53 1208.9 4177.26 1205.77 4178.76C1203.09 4180.06 1200.3 4181.15 1197.44 4181.98C1194.59 4182.81 1191.65 4183.33 1188.71 4183.75C1180.24 4184.89 1171.75 4185.88 1163.24 4186.71C1160.29 4186.97 1157.32 4187.18 1154.36 4187.02C1130.81 4185.88 1117.89 4170.45 1115.67 4167.81C1113.77 4165.52 1112.05 4163.08 1110.55 4160.54C1109.05 4157.99 1107.75 4155.29 1106.69 4152.54C1105.63 4149.79 1104.79 4146.88 1104.2 4144.02C1103.6 4141.11 1103.49 4138.15 1103.14 4135.19C1083.36 3970.25 1096.46 3950.11 1079.21 2460.53C1076.3 2406.94 1073.39 2353.36 1070.49 2299.77C1067.06 2362.9 1063.64 2426.03 1060.21 2489.16C1052.45 3040.76 1045.15 3592.37 1036.7 4143.97C1036.65 4146.93 1035.27 4149.73 1034.22 4152.49C1032.98 4155.65 1025.79 4174.4 1003.95 4183.07C1001.21 4184.17 998.374 4185.05 995.49 4185.67C992.609 4186.29 989.663 4186.66 986.718 4186.81C983.771 4186.97 980.811 4186.81 977.874 4186.5C969.365 4185.72 960.872 4184.68 952.406 4183.54C949.473 4183.13 946.543 4182.61 943.699 4181.78C940.381 4180.79 921.037 4175.18 910.558 4154.1C909.243 4151.4 908.145 4148.64 907.285 4145.84C906.874 4144.44 904.512 4136.65 905.01 4128.29C937.508 3579 970.462 3029.76 1003.23 2480.52C1004.47 2415.89 1005.7 2351.25 1006.94 2286.62C999.272 2346.02 991.594 2405.42 983.917 2464.82C935.575 3011.37 887.702 3557.97 838.686 4104.45C838.426 4107.36 836.873 4110.01 835.635 4112.65C834.192 4115.72 825.794 4133.63 803.743 4140.8C800.972 4141.68 798.12 4142.36 795.239 4142.83C792.359 4143.24 789.433 4143.45 786.52 4143.4C783.608 4143.35 780.688 4143.09 777.822 4142.57C774.955 4142.05 772.138 4141.27 769.374 4140.33C760.972 4137.53 752.622 4134.57 744.342 4131.45C741.553 4130.36 738.796 4129.22 736.193 4127.77C733.588 4126.31 731.098 4124.6 728.772 4122.78C726.446 4120.91 724.27 4118.83 722.288 4116.6C720.307 4114.37 718.507 4111.98 716.925 4109.43C715.343 4106.89 713.969 4104.24 712.83 4101.49C711.693 4098.74 710.783 4095.88 710.119 4092.97C709.457 4090.06 708.474 4087.05 708.869 4084.09C780.994 3543.05 854.294 3002.15 927.121 2461.18C933.812 2389.71 940.504 2318.25 947.203 2246.78C936.22 2299.46 925.233 2352.15 914.246 2404.83C825.337 2940.29 736.622 3475.78 647.461 4011.18C646.994 4013.98 646.171 4016.73 645.199 4019.38C637.486 4040.62 619.904 4048.47 616.867 4049.82C596.249 4059.01 578.407 4051.79 575.325 4050.54C572.689 4049.45 570.158 4048.15 567.7 4046.7C559.556 4041.97 551.483 4037.14 543.532 4032.05C540.943 4030.44 538.411 4028.63 536.101 4026.65C533.79 4024.63 531.647 4022.4 529.72 4020.01C527.792 4017.62 526.065 4015.02 524.578 4012.37C523.092 4009.67 521.835 4006.87 520.833 4003.96C519.832 4001.05 519.082 3998.04 518.596 3995.03C518.112 3992.01 517.294 3988.85 517.934 3985.83C590.064 3647.07 662.715 3308.41 735.411 2969.77C772.34 2762.28 812.188 2555.32 852.641 2348.47C834.274 2413.26 815.898 2478.04 797.518 2542.83C684.838 2992.23 572.402 3441.69 459.034 3890.9C458.311 3893.76 456.295 3896.15 454.608 3898.59C452.924 3901.03 451.027 3903.31 448.957 3905.44C446.89 3907.52 444.635 3909.49 442.241 3911.21C439.848 3912.92 437.3 3914.48 434.649 3915.78C432 3917.08 429.229 3918.17 426.398 3919.05C423.566 3919.88 420.654 3920.45 417.72 3920.82C414.787 3921.18 411.815 3921.28 408.863 3921.18C405.912 3921.02 402.962 3920.61 400.077 3919.98C397.19 3919.36 394.347 3918.48 391.609 3917.39C388.871 3916.25 386.217 3914.9 383.702 3913.39C381.19 3911.83 378.835 3910.01 376.581 3908.09C368.824 3901.5 361.203 3894.8 353.69 3887.94C351.621 3886.07 349.626 3884.05 347.846 3881.92C333.71 3864.73 335.79 3845.91 336.149 3842.66C336.457 3839.87 336.926 3837.09 337.736 3834.4C489.998 3330.08 642.692 2825.88 795.197 2321.63C813.598 2250.02 832.002 2178.43 850.414 2106.82C830.742 2156.69 811.068 2206.55 791.393 2256.42C622.186 2744.5 453.599 3232.81 283.708 3720.66C282.716 3723.51 280.412 3725.74 278.454 3728.04C276.495 3730.33 274.33 3732.47 272.004 3734.39C269.678 3736.31 267.176 3738.04 264.552 3739.53C261.93 3741.03 259.167 3742.3 256.326 3743.31C253.483 3744.33 250.543 3745.1 247.569 3745.61C244.595 3746.12 241.564 3746.37 238.547 3746.36C235.528 3746.34 232.501 3746.07 229.532 3745.53C226.561 3745 223.626 3744.2 220.794 3743.17C217.962 3742.13 215.21 3740.83 212.598 3739.32C209.988 3737.81 207.502 3736.06 205.191 3734.12C202.882 3732.18 200.777 3729.99 198.796 3727.71C191.567 3719.41 184.525 3710.95 177.575 3702.41C175.921 3700.38 174.356 3698.26 172.993 3696.02C172.34 3694.95 168.869 3689.25 166.945 3681.56C166.641 3680.34 165.021 3673.87 165.471 3665.95C165.541 3664.7 165.953 3657.44 168.702 3650.61C362.647 3168.96 556.994 2687.47 751.146 2205.91C766.941 2161.21 782.742 2116.52 798.549 2071.82C735.288 2202.02 671.495 2331.94 605.543 2460.78C444.675 2810.97 283.92 3161.22 122.476 3511.15C121.302 3513.69 119.029 3515.58 117.052 3517.57C114.745 3519.89 101.341 3533.37 79.0681 3532.8C75.7946 3532.72 56.7947 3532.23 41.9151 3515.65C40.044 3513.56 38.3748 3511.29 36.8286 3508.96C30.2799 3499.05 23.8663 3489.04 17.6425 3478.93C16.1015 3476.42 14.6819 3473.82 13.5446 3471.11C12.4055 3468.4 11.4956 3465.58 10.8354 3462.71C10.1736 3459.85 9.7562 3456.92 9.59372 3453.98C9.42953 3451.04 9.51678 3448.08 9.85544 3445.16C10.1924 3442.24 10.7824 3439.34 11.6136 3436.52C12.4431 3433.7 13.4505 3430.91 14.8153 3428.3C249.178 2980.79 484.051 2533.55 718.652 2086.17C746.475 2026.61 774.312 1967.05 802.164 1907.49C774.473 1949.29 746.78 1991.09 719.083 2032.88C471.682 2444.28 224.923 2856.06 -22.9893 3267.14C-24.4208 3269.51 -26.8665 3271.11 -29.0284 3272.85C-31.5528 3274.88 -46.2135 3286.65 -68.0404 3283.62C-71.2473 3283.18 -89.8656 3280.6 -102.657 3262.67C-104.265 3260.41 -105.657 3258 -106.916 3255.53C-112.69 3244.2 -118.315 3232.79 -123.74 3221.29C-124.982 3218.66 -126.085 3215.95 -126.904 3213.16C-127.725 3210.36 -128.306 3207.5 -128.64 3204.6C-128.973 3201.72 -129.059 3198.79 -128.895 3195.89C-128.732 3192.98 -128.318 3190.08 -127.665 3187.25C-127.01 3184.42 -126.109 3181.63 -124.983 3178.95C-123.856 3176.27 -122.56 3173.63 -120.928 3171.23C153.15 2766.92 427.739 2362.96 702.026 1958.79C733.449 1907.28 764.883 1855.77 796.332 1804.28C767.767 1837.24 739.198 1870.2 710.625 1903.15C423.455 2266.26 137.078 2630 -150.581 2992.72C-152.398 2995.01 -155.232 2996.29 -157.761 2997.76C-160.293 2999.23 -162.959 3000.47 -165.706 3001.48C-168.451 3002.49 -171.295 3003.26 -174.173 3003.78C-177.05 3004.29 -179.985 3004.56 -182.908 3004.57C-185.833 3004.58 -188.767 3004.34 -191.649 3003.84C-194.531 3003.35 -197.38 3002.6 -200.134 3001.61C-202.886 3000.62 -205.563 2999.4 -208.104 2997.95C-210.644 2996.5 -213.067 2994.83 -215.32 2992.96C-217.572 2991.1 -219.669 2989.03 -221.566 2986.81C-223.461 2984.58 -225.17 2982.18 -226.652 2979.67C-228.135 2977.15 -229.361 2974.47 -230.429 2971.75C-235.348 2959.2 -240.03 2946.56 -244.604 2933.88C-245.466 2931.49 -246.206 2929.05 -246.728 2926.56C-246.978 2925.37 -248.308 2919.05 -247.583 2911.4C-247.468 2910.19 -246.858 2903.75 -243.892 2896.67C-242.912 2894.33 -241.751 2892.05 -240.431 2889.89C-239.11 2887.72 -237.677 2885.6 -235.989 2883.7C77.2534 2531.48 390.903 2179.62 704.285 1827.53C736.868 1786.92 769.463 1746.32 802.07 1705.73C776.272 1727.71 750.47 1749.68 724.669 1771.65C397.14 2078.13 70.419 2385.47 -257.458 2691.58C-259.509 2693.5 -262.367 2694.33 -264.97 2695.39C-266.213 2695.89 -272.858 2698.58 -281.358 2698.98C-282.697 2699.04 -289.857 2699.38 -298.01 2696.94C-299.296 2696.56 -306.163 2694.51 -313.052 2689.52C-314.138 2688.73 -319.941 2684.53 -324.79 2677.54C-326.389 2675.23 -327.798 2672.79 -328.988 2670.24C-330.179 2667.7 -331.119 2665.04 -331.905 2662.35C-335.855 2648.79 -339.599 2635.17 -343.189 2621.5C-343.865 2618.93 -344.4 2616.31 -344.691 2613.67C-347 2592.69 -335.553 2578.8 -333.574 2576.4C-331.881 2574.35 -330.071 2572.37 -328.022 2570.68C19.4536 2283.48 367.345 1996.8 714.937 1709.75C747.551 1679.69 780.166 1649.63 812.787 1619.59C794.454 1630.28 776.122 1640.98 757.787 1651.68C390.802 1890.54 24.5572 2130.54 -342.625 2369.11C-344.845 2370.55 -347.622 2370.9 -350.203 2371.48C-351.438 2371.76 -358.024 2373.25 -366.005 2372.47C-367.265 2372.35 -373.985 2371.69 -381.308 2368.42C-400.501 2359.87 -406.619 2343.03 -407.676 2340.12C-408.579 2337.63 -409.253 2335.05 -409.78 2332.46C-412.689 2318.12 -415.449 2303.75 -417.979 2289.33C-418.473 2286.52 -418.803 2283.66 -418.844 2280.8C-418.884 2277.95 -418.677 2275.08 -418.224 2272.26C-417.77 2269.44 -417.069 2266.64 -416.137 2263.94C-415.205 2261.24 -414.032 2258.61 -412.648 2256.12C-411.263 2253.62 -409.655 2251.23 -407.859 2249.01C-406.065 2246.78 -404.069 2244.71 -401.918 2242.83C-399.766 2240.96 -397.488 2239.18 -394.998 2237.78C-10.1329 2021.63 375.146 1806.2 760.088 1590.18C784.521 1574.64 808.961 1559.11 833.403 1543.59C821.8 1547.48 810.196 1551.38 798.592 1555.27C397.06 1713.19 -3.84586 1872.7 -405.465 2030.4C-407.953 2031.38 -410.774 2031.13 -413.447 2031.17C-414.724 2031.18 -421.543 2031.27 -429.247 2028.77C-432.216 2027.81 -449.471 2022.21 -458.494 2002.95C-459.628 2000.53 -460.567 1998.01 -461.291 1995.44C-462.016 1992.87 -462.498 1990.22 -462.827 1987.57C-464.669 1972.71 -466.336 1957.82 -467.802 1942.91C-468.069 1940.19 -468.178 1937.43 -468.023 1934.7C-467.841 1931.52 -466.783 1912.92 -449.76 1899.26C-447.627 1897.55 -445.342 1896.01 -442.955 1894.68C-440.565 1893.35 -438.087 1892.13 -435.481 1891.3C-23.1517 1760.83 389.437 1631.19 801.795 1500.8C817.277 1494.95 832.758 1489.09 848.243 1483.24C842.009 1483.85 835.775 1484.46 829.541 1485.07ZM918.648 1410.37C919.026 1411.12 919.274 1411.66 919.399 1411.93C922.867 1419.54 923.471 1426.54 923.584 1427.86C924.301 1436.18 922.517 1442.98 922.183 1444.26C921.342 1447.47 920.211 1450.32 919.106 1452.66C919.491 1453.31 919.861 1453.97 920.215 1454.64C921.518 1457.1 922.613 1459.69 923.476 1462.34C924.34 1464.99 924.978 1467.72 925.375 1470.48C925.773 1473.24 925.934 1476.04 925.855 1478.83C925.777 1481.62 925.459 1484.41 924.904 1487.14C924.4 1489.62 923.699 1492.08 922.814 1494.46C923.43 1495.37 924.015 1496.3 924.568 1497.24C925.999 1499.68 927.224 1502.27 928.214 1504.92C929.202 1507.57 929.965 1510.32 930.483 1513.11C931.002 1515.9 931.28 1518.74 931.311 1521.57C931.342 1524.4 931.128 1527.25 930.672 1530.04C930.408 1531.66 930.063 1533.27 929.639 1534.85C930.766 1536.31 931.812 1537.83 932.768 1539.41C934.268 1541.87 935.558 1544.48 936.606 1547.17C937.655 1549.86 938.472 1552.66 939.038 1555.49C939.606 1558.32 939.926 1561.21 939.993 1564.09C940.059 1566.98 939.873 1569.88 939.439 1572.74C939.425 1572.83 939.411 1572.91 939.398 1573C946.447 1581.1 948.972 1589.28 949.586 1591.27C951.465 1597.36 952.011 1603.06 951.796 1608.13C958.089 1614.5 961.028 1620.81 961.814 1622.5C964.599 1628.48 965.929 1634.23 966.384 1639.44C968.084 1640.92 969.69 1642.52 971.18 1644.22C973.084 1646.38 974.811 1648.71 976.326 1651.16C977.84 1653.62 979.154 1656.2 980.236 1658.87C980.655 1659.91 981.745 1662.59 982.646 1666.48C984.155 1667.6 985.605 1668.8 986.983 1670.06C989.131 1672.05 991.117 1674.22 992.901 1676.53C994.683 1678.85 996.275 1681.33 997.644 1683.91C998.436 1685.4 999.154 1686.93 999.795 1688.5C1001.53 1689.53 1003.22 1690.67 1004.82 1691.9C1007.17 1693.7 1009.38 1695.7 1011.39 1697.87C1013.4 1700.04 1015.24 1702.39 1016.86 1704.86C1016.93 1704.97 1017 1705.08 1017.07 1705.19C1019.6 1706.3 1022.04 1707.6 1024.36 1709.09C1026.89 1710.7 1029.28 1712.53 1031.49 1714.54C1032.28 1715.27 1033.05 1716.01 1033.79 1716.77C1034.81 1717.04 1035.81 1717.34 1036.8 1717.67C1039.67 1718.62 1042.47 1719.82 1045.14 1721.24C1046.61 1722.03 1048.04 1722.88 1049.43 1723.8C1052.33 1724.04 1055.21 1724.51 1058.03 1725.21C1059.84 1725.66 1061.62 1726.21 1063.38 1726.85C1065.75 1726.52 1068.15 1726.36 1070.54 1726.36C1072.83 1726.36 1075.13 1726.51 1077.4 1726.8C1079.24 1726.12 1081.12 1725.54 1083.03 1725.07C1085.9 1724.35 1088.85 1723.87 1091.81 1723.64C1093.14 1722.76 1094.52 1721.95 1095.93 1721.2C1098.6 1719.78 1101.4 1718.57 1104.27 1717.62C1105.19 1717.32 1106.13 1717.04 1107.07 1716.78C1107.85 1715.97 1108.66 1715.19 1109.49 1714.44C1111.71 1712.41 1114.11 1710.57 1116.64 1708.96C1118.86 1707.54 1121.2 1706.28 1123.61 1705.21C1123.72 1705.03 1123.83 1704.85 1123.95 1704.68C1125.58 1702.18 1127.42 1699.82 1129.45 1697.64C1131.47 1695.45 1133.69 1693.44 1136.06 1691.63C1137.57 1690.47 1139.14 1689.4 1140.77 1688.42C1141.43 1686.8 1142.17 1685.21 1142.99 1683.67C1144.37 1681.06 1145.98 1678.56 1147.78 1676.22C1149.58 1673.88 1151.58 1671.69 1153.75 1669.68C1155.05 1668.49 1156.41 1667.35 1157.83 1666.29C1158.74 1662.38 1159.84 1659.67 1160.26 1658.63C1161.36 1655.93 1162.68 1653.31 1164.22 1650.83C1165.75 1648.35 1167.5 1645.98 1169.43 1643.79C1170.89 1642.13 1172.46 1640.56 1174.12 1639.1C1174.14 1638.99 1174.15 1638.87 1174.16 1638.76C1174.45 1635.91 1174.98 1633.07 1175.74 1630.31C1176.5 1627.55 1177.49 1624.84 1178.7 1622.23C1179.91 1619.64 1181.35 1617.13 1182.97 1614.77C1184.6 1612.41 1186.43 1610.18 1188.42 1608.12C1188.51 1608.04 1188.59 1607.96 1188.66 1607.87C1188.48 1602.81 1189.05 1597.15 1190.91 1591.09C1191.53 1589.09 1194.05 1580.93 1201.05 1572.8C1200.61 1569.92 1200.42 1566.99 1200.49 1564.08C1200.56 1561.16 1200.88 1558.23 1201.45 1555.37C1202.03 1552.5 1202.85 1549.67 1203.91 1546.95C1204.98 1544.23 1206.28 1541.59 1207.8 1539.09C1208.72 1537.58 1209.72 1536.12 1210.79 1534.71C1210.4 1533.2 1210.08 1531.68 1209.83 1530.14C1209.36 1527.31 1209.15 1524.43 1209.18 1521.56C1209.21 1518.7 1209.49 1515.82 1210.02 1513C1210.54 1510.18 1211.31 1507.4 1212.31 1504.71C1213.32 1502.02 1214.55 1499.41 1216 1496.94C1216.51 1496.07 1217.05 1495.21 1217.61 1494.37C1216.77 1492.06 1216.1 1489.67 1215.61 1487.25C1215.05 1484.49 1214.72 1481.66 1214.64 1478.84C1214.56 1476.03 1214.73 1473.19 1215.13 1470.4C1215.53 1467.61 1216.18 1464.84 1217.05 1462.16C1217.93 1459.48 1219.03 1456.86 1220.35 1454.37C1220.66 1453.79 1220.98 1453.21 1221.31 1452.64C1221.26 1452.52 1221.2 1452.4 1221.15 1452.29C1220.59 1451.07 1217.64 1444.59 1216.92 1436.17C1216.81 1434.84 1216.21 1427.75 1218.35 1419.57C1218.59 1418.66 1219.57 1414.95 1221.81 1410.38C1220.47 1407.99 1219.02 1404.99 1217.9 1401.54C1217.49 1400.28 1215.31 1393.55 1215.55 1385.15C1215.59 1383.83 1215.79 1376.76 1218.85 1368.93C1218.9 1368.8 1218.98 1368.61 1219.08 1368.36C1218.59 1367.63 1218.11 1366.87 1217.65 1366.07C1216.98 1364.93 1213.43 1358.85 1211.9 1350.62C1211.66 1349.33 1210.38 1342.4 1211.74 1334.14C1211.86 1333.41 1212.27 1330.87 1213.35 1327.49C1211.5 1325.05 1208.81 1321.01 1206.82 1315.9C1206.34 1314.67 1203.8 1308.14 1203.62 1299.82C1203.59 1298.8 1203.49 1294.34 1204.71 1288.69C1200.95 1284.46 1197.36 1278.85 1195.13 1271.58C1194.56 1269.76 1192.28 1262.34 1193.37 1252.65C1189.9 1249.26 1186.56 1244.89 1183.96 1239.29C1183.14 1237.53 1179.73 1230.19 1179.7 1220.1C1176.42 1217.34 1173.2 1213.82 1170.43 1209.31C1169.44 1207.72 1165.41 1201.18 1164.13 1191.64C1162.06 1190.17 1158.11 1187.08 1154.6 1182.5C1153.88 1181.57 1150.04 1176.57 1147.71 1169.47C1147.62 1169.2 1147.44 1168.65 1147.22 1167.87C1145.19 1166.73 1140.79 1164 1136.71 1159.6C1135.99 1158.82 1132.38 1154.93 1129.54 1149.07C1129.35 1149 1129.17 1148.92 1128.98 1148.84C1127.94 1148.4 1122.37 1146.06 1117.07 1141.22C1116.5 1140.7 1114.22 1138.62 1111.76 1135.33C1109.24 1134.72 1105.63 1133.61 1101.88 1131.61C1101.14 1131.21 1097.92 1129.49 1094.33 1126.39C1093.92 1126.37 1093.51 1126.35 1093.09 1126.32C1092.02 1126.23 1086.29 1125.81 1080.05 1123.05C1079.8 1122.95 1079.26 1122.71 1078.51 1122.33C1074.44 1123.16 1071.31 1123.16 1070.54 1123.16C1068.02 1123.17 1065.69 1122.9 1063.71 1122.56C1062.53 1123.18 1061.67 1123.56 1061.32 1123.71C1054.97 1126.51 1049.14 1126.94 1048.05 1127.03C1047.64 1127.06 1047.24 1127.08 1046.84 1127.09C1043.33 1130.08 1040.22 1131.74 1039.48 1132.13C1035.71 1134.15 1032.07 1135.27 1029.53 1135.89C1029.39 1136.07 1029.28 1136.2 1029.21 1136.3C1024.75 1142.03 1019.6 1145.32 1018.64 1145.94C1016.22 1147.49 1013.82 1148.65 1011.73 1149.49C1010.54 1151.94 1009.47 1153.58 1009.15 1154.08C1005.11 1160.27 1000.16 1164.06 999.234 1164.77C997.459 1166.13 995.68 1167.25 994.03 1168.17C992.73 1172.58 991.107 1175.65 990.71 1176.39C987.194 1183.05 982.54 1187.35 981.668 1188.15C980.125 1189.58 978.558 1190.81 977.079 1191.84C975.771 1201.31 971.768 1207.8 970.788 1209.39C967.992 1213.93 964.749 1217.47 961.44 1220.24C961.373 1230.27 957.989 1237.56 957.174 1239.32C954.552 1244.96 951.178 1249.35 947.679 1252.76C948.305 1258.54 947.704 1263.05 947.573 1264.05C946.054 1275.46 940.853 1283.61 936.153 1288.86C937.333 1294.42 937.234 1298.81 937.212 1299.82C937.027 1308.09 934.499 1314.58 934.027 1315.8C931.963 1321.1 929.144 1325.23 927.306 1327.62C929.582 1334.89 929.517 1341.16 929.503 1342.39C929.418 1350.67 926.986 1357.21 926.531 1358.43C925.009 1362.53 923.037 1365.94 921.39 1368.4C923.155 1372.72 923.849 1376.15 924.027 1377.01C925.681 1385.15 924.687 1392.07 924.501 1393.37C923.322 1401.58 920.057 1407.77 919.447 1408.93C919.185 1409.42 918.918 1409.9 918.648 1410.37Z" fill="#FF7418" fill-opacity="0.58"/>
<path d="M1076.61 3793.73C1648.47 3793.73 2112.06 2987.93 2112.06 1993.93C2112.06 999.932 1648.47 194.137 1076.61 194.137C504.741 194.137 41.1523 999.932 41.1523 1993.93C41.1523 2987.93 504.741 3793.73 1076.61 3793.73Z" fill="#F4EC62" stroke="white" stroke-opacity="0.73" stroke-width="33.4255" stroke-miterlimit="1.5" stroke-linecap="square" stroke-linejoin="round"/>
<path fill-rule="evenodd" clip-rule="evenodd" d="M2320.36 1956.75V3061.88H-179.281V1956.75H45.5513C229.853 2900.03 1920.04 2875.37 2120.64 1956.75H2320.36Z" fill="#FF7418" stroke="#3C3C3C" stroke-width="2.51072" stroke-miterlimit="1.5" stroke-linecap="square" stroke-linejoin="round"/>
<path fill-rule="evenodd" clip-rule="evenodd" d="M405.836 2394.51C410.218 2400.43 412.283 2410.86 407.751 2429.38C427.971 2432 434.747 2463.75 436.606 2472.97C436.62 2470.52 436.77 2442.97 443.59 2445.31C452.394 2448.32 469.42 2499.06 471.212 2504.4C481.478 2439.12 495.659 2427.78 508.086 2466.39C514.074 2410.5 542.06 2500 543.749 2505.43C546.496 2398 571.79 2523.69 572.691 2528.17C602.994 2467.37 617.671 2551.99 620.893 2569.81C644.201 2538.37 653.674 2587.46 656.789 2605.3C663.073 2573.23 699.754 2588.79 709.219 2639.07C699.559 2640.21 650.679 2646.55 616.166 2609.02C613.243 2605.84 610.351 2605.23 609.821 2605.14C605.495 2604.25 601.107 2604.54 596.808 2603.26C593.391 2602.28 581.233 2592.75 577.059 2597.44C563.523 2612.63 556.384 2606.11 551.843 2589.91C544.774 2564.72 518.971 2602.21 494.895 2572.09C480.388 2553.92 455.131 2544.17 444.041 2554.28C432.715 2564.59 419.321 2548.27 414.86 2542.85C407.064 2533.37 384.199 2531.02 378.189 2528.31C375.685 2527.16 301.466 2658.27 297.683 2657.56C294.067 2656.91 369.571 2526.96 365.658 2525.82C358.174 2523.65 350.925 2519.81 346.888 2511.41C345.598 2508.72 334.509 2483.91 324.44 2499.11C320.149 2505.58 306.656 2496.42 299.966 2484.34C284.63 2456.63 276.281 2456.33 267.19 2461.92C260.327 2466.15 245.41 2456.29 240.283 2440.82C239.673 2438.98 229.142 2407.21 227.323 2429.63C226.716 2437.11 214.094 2414.57 210.739 2414.21C198.212 2412.85 181.018 2409.65 174.087 2374.89C171.519 2362.01 157.745 2362.9 154.711 2350.55C153.396 2345.21 137.882 2298.2 128.47 2312.21C126.56 2315.06 23.3989 2432.72 20.3016 2426.83C18.0405 2422.54 123.07 2307.6 122.308 2302.62C117.794 2273.16 113.609 2265.53 105.863 2273.84C99.7975 2280.35 88.1753 2253.68 86.4485 2234.67C85.7674 2227.16 83.1448 2194.78 72.9339 2203.03C70.8593 2204.7 68.0386 2185.06 65.9513 2184.85C51.7745 2183.43 53.2614 2153.48 53.4521 2148.21C54.2212 2126.97 40.3849 2102.31 37.0707 2088.06C22.5659 2000.54 22.6728 1982.39 22.7283 1972.92C24.8177 1979.17 25.5564 1978.4 32.3839 2011.06C42.8179 1890.21 43.0096 1878.05 47.4429 1859.78C47.8442 1861.73 51.1741 1861.15 51.4382 1978.23C72.016 1996.85 64.6164 2033.77 60.7867 2048.01C60.2198 2049.6 59.6519 2051.51 59.083 2053.78C59.1553 2053.54 59.8678 2051.43 60.7867 2048.01C64.7925 2036.8 68.7626 2042.07 73.2797 2057.46C73.8801 2056.62 87.2438 2035.84 92.2156 2053.44C97.2357 2071.21 93.0256 2117.98 92.5289 2123.5C103.558 2110.74 108.073 2150.3 108.719 2155.17C109.549 2128.35 113.552 2112.83 127.39 2134.95C140.457 2109.67 143.028 2188.98 143.2 2194.3C144.822 2177.78 148.692 2130.28 163.553 2162.16C163.907 2154.48 166.068 2092.38 171.375 2090.71C172.69 2090.3 174.24 2093.2 175.831 2097.8C197.383 1937.73 233.757 1710.35 294.396 1467.39C306.652 1418.28 319.895 1368.4 334.26 1317.96C335.195 1314.68 261.674 1225.74 262.619 1222.45C263.475 1219.47 338.797 1302.14 339.661 1299.15C413.161 1045.31 515.337 777.921 663.256 523.138C665.83 518.704 665.818 518.686 668.382 514.22L668.663 514.961C664.574 522.101 632.957 577.523 594.766 654.375C387.986 1070.48 283.997 1512.87 225.526 1886.31C212.562 1969.1 202.276 2046.59 194.421 2111.44C195.063 2110.44 195.712 2109.81 196.356 2109.65C202.978 2108.07 209.014 2151.83 209.577 2155.91C224.448 2156.82 226.388 2192.23 226.857 2210.5C238.304 2124.99 249.566 2214.81 251.919 2233.85C272.024 2235.02 269.732 2280.2 267.838 2304.02C279.624 2278.94 293.308 2294.15 301.992 2305.92C313.809 2320.49 323.442 2337.23 319.774 2368.82C321.726 2370.37 331.709 2378.27 344.305 2387.51C349.417 2331.94 374.269 2362.75 389.893 2386.63C390.892 2386.74 391.983 2386.89 393.123 2387.1C393.167 2386.57 393.211 2386.03 393.256 2385.47C421.605 2035.59 466.181 1760.13 517.935 1539.47C518.454 1537.26 438.226 1461.73 438.747 1459.53C439.224 1457.51 520.45 1528.81 520.929 1526.8C526.583 1503.05 532.319 1479.94 538.127 1457.45C538.478 1456.09 516.963 1431.46 517.314 1430.11C517.657 1428.78 539.866 1450.74 540.209 1449.42C571.242 1330.37 604.254 1228.76 637.487 1140.78C638.778 1137.36 638.775 1137.37 640.798 1131.96L641.018 1132.34C620.293 1187.77 601.82 1246.06 598.597 1256.23C482.975 1621.06 431.066 2026.47 405.836 2394.51Z" fill="#F2EFD5"/>
<path d="M60.7867 2048.01C64.6164 2033.77 72.016 1996.85 51.4382 1978.23C51.1741 1861.15 47.8442 1861.73 47.4429 1859.78C43.0096 1878.05 42.8179 1890.21 32.3839 2011.06C25.5564 1978.4 24.8177 1979.17 22.7283 1972.92C22.6728 1982.39 22.5659 2000.54 37.0707 2088.06C40.3849 2102.31 54.2212 2126.97 53.4521 2148.21C53.2614 2153.48 51.7745 2183.43 65.9513 2184.85C68.0386 2185.06 70.8593 2204.7 72.9339 2203.03C83.1448 2194.78 85.7674 2227.16 86.4485 2234.67C88.1753 2253.68 99.7975 2280.35 105.863 2273.84C113.609 2265.53 117.794 2273.16 122.308 2302.62C123.07 2307.6 18.0405 2422.54 20.3016 2426.83C23.3989 2432.72 126.56 2315.06 128.47 2312.21C137.882 2298.2 153.396 2345.21 154.711 2350.55C157.745 2362.9 171.519 2362.01 174.087 2374.89C181.018 2409.65 198.212 2412.85 210.739 2414.21C214.094 2414.57 226.716 2437.11 227.323 2429.63C229.142 2407.21 239.673 2438.98 240.283 2440.82C245.41 2456.29 260.327 2466.15 267.19 2461.92C276.281 2456.33 284.63 2456.63 299.966 2484.34C306.656 2496.42 320.149 2505.58 324.44 2499.11C334.509 2483.91 345.598 2508.72 346.888 2511.41C350.925 2519.81 358.174 2523.65 365.658 2525.82C369.571 2526.96 294.067 2656.91 297.683 2657.56C301.466 2658.27 375.685 2527.16 378.189 2528.31C384.199 2531.02 407.064 2533.37 414.86 2542.85C419.321 2548.27 432.714 2564.59 444.041 2554.28C455.131 2544.17 480.388 2553.92 494.895 2572.09C518.971 2602.21 544.774 2564.72 551.843 2589.91C556.384 2606.11 563.523 2612.63 577.059 2597.44C581.233 2592.75 593.391 2602.28 596.808 2603.26C601.107 2604.54 605.495 2604.25 609.821 2605.14C610.351 2605.23 613.243 2605.84 616.166 2609.02C650.679 2646.55 699.559 2640.21 709.219 2639.07C699.754 2588.79 663.073 2573.23 656.789 2605.3C653.674 2587.46 644.201 2538.37 620.893 2569.81C617.671 2551.99 602.994 2467.37 572.691 2528.17C571.79 2523.69 546.496 2398 543.749 2505.43C542.06 2500 514.074 2410.5 508.086 2466.39C495.659 2427.78 481.478 2439.12 471.212 2504.4C469.42 2499.06 452.394 2448.32 443.59 2445.31C436.77 2442.97 436.62 2470.52 436.606 2472.97C434.747 2463.75 427.971 2432 407.751 2429.38C412.283 2410.86 410.218 2400.43 405.836 2394.51C431.066 2026.47 482.975 1621.06 598.597 1256.23C601.82 1246.06 620.293 1187.77 641.018 1132.34L640.798 1131.96C638.775 1137.37 638.778 1137.36 637.487 1140.78C604.254 1228.76 571.242 1330.37 540.209 1449.42C539.866 1450.74 517.657 1428.78 517.314 1430.11C516.963 1431.46 538.478 1456.09 538.127 1457.45C532.319 1479.94 526.583 1503.05 520.929 1526.8C520.45 1528.81 439.225 1457.51 438.747 1459.53C438.226 1461.73 518.454 1537.26 517.935 1539.47C466.181 1760.13 421.605 2035.59 393.256 2385.47C393.211 2386.03 393.167 2386.57 393.123 2387.1C391.983 2386.88 390.892 2386.74 389.893 2386.63C374.269 2362.75 349.417 2331.94 344.305 2387.51C331.709 2378.27 321.726 2370.37 319.774 2368.82C323.442 2337.23 313.809 2320.49 301.992 2305.92C293.308 2294.15 279.624 2278.94 267.838 2304.02C269.732 2280.2 272.024 2235.02 251.919 2233.85C249.566 2214.81 238.304 2124.99 226.858 2210.5C226.388 2192.23 224.448 2156.82 209.577 2155.91C209.014 2151.83 202.978 2108.07 196.356 2109.65C195.712 2109.81 195.063 2110.44 194.421 2111.44C202.276 2046.59 212.562 1969.1 225.526 1886.31C283.997 1512.87 387.986 1070.48 594.766 654.375C632.957 577.523 664.574 522.101 668.663 514.961L668.382 514.22C665.818 518.686 665.83 518.704 663.256 523.138C515.337 777.921 413.161 1045.31 339.661 1299.15C338.797 1302.14 263.475 1219.47 262.619 1222.45C261.674 1225.74 335.195 1314.68 334.26 1317.96C319.895 1368.4 306.652 1418.28 294.396 1467.39C233.757 1710.35 197.383 1937.73 175.832 2097.8C174.24 2093.2 172.69 2090.3 171.375 2090.71C166.068 2092.38 163.907 2154.48 163.553 2162.16C148.692 2130.28 144.822 2177.78 143.2 2194.3C143.028 2188.98 140.457 2109.67 127.39 2134.95C113.552 2112.83 109.549 2128.35 108.719 2155.17C108.073 2150.3 103.558 2110.74 92.5289 2123.5C93.0256 2117.98 97.2357 2071.21 92.2156 2053.44C87.2438 2035.84 73.8801 2056.62 73.2797 2057.46C68.7626 2042.07 64.7925 2036.8 60.7867 2048.01ZM60.7867 2048.01C60.2198 2049.6 59.6519 2051.51 59.083 2053.78C59.1553 2053.54 59.8678 2051.43 60.7867 2048.01Z" stroke="#3C3C3C" stroke-width="2.46701" stroke-miterlimit="1.5" stroke-linecap="square" stroke-linejoin="round"/>
<path fill-rule="evenodd" clip-rule="evenodd" d="M1625.12 2423.28C1619.28 2347.81 1609.07 2227.69 1593.5 2092.17C1544.64 1666.79 1457.25 1200.62 1288.87 778.832C1288.01 776.694 1286.88 773.942 1285.25 769.938L1285.55 769.414C1305.28 817.695 1355.4 937.538 1411.74 1123.98C1412.13 1125.28 1468.53 1057.77 1468.92 1059.08C1469.28 1060.27 1413.64 1130.28 1413.99 1131.48C1427.31 1175.84 1440.96 1223.9 1454.62 1275.59C1552.24 1645.07 1608.38 2039.21 1641.71 2403.33C1646.74 2407.27 1652.72 2418.02 1659.73 2438.19C1665.48 2358.7 1674.24 2353.93 1685.13 2401.93C1683.67 2371.9 1688.92 2354.58 1702.2 2352.5C1689.31 2323.3 1690.55 2306.37 1708.81 2304.25C1714.34 2305.85 1719.97 2312.87 1726.04 2318.11C1721.03 2258.96 1714.37 2187.5 1705.81 2110.42C1664.31 1736.52 1590.4 1330.19 1449.55 962.815C1448.74 960.699 1447.23 956.877 1446.49 955.001L1446.76 954.556C1469.36 1012.12 1534.28 1173.71 1598.02 1433.54C1670.15 1727.56 1714 2036.81 1741.44 2323.61C1746.07 2322.21 1751.01 2317.5 1756.35 2307.37L1790.51 2288.61C1779 2256.32 1781 2237.51 1793.03 2219.01C1802.58 2201.93 1814.61 2195.99 1834.19 2223.93C1812.61 2159.22 1818.57 2144.54 1834.2 2147.44C1825.47 2076.43 1845.74 2056.76 1856.24 2088.85C1855.97 2097.65 1857.66 2110.66 1861.95 2129.26C1861.46 2111.52 1859.25 2098.06 1856.24 2088.85C1856.7 2074.18 1862.6 2071.21 1870.96 2073.51C1874.93 2012.2 1889.69 1989.75 1904.63 2069.76C1894.83 1867.99 1928.95 1886.87 1947.54 2105.31C1948.88 2103.22 1950.23 2101.57 1951.59 2100.34C1948.28 2067.45 1944.54 2032.51 1940.34 1996.26C1900.19 1650.01 1829.51 1279.12 1697.6 944.17C1696.81 942.159 1695.44 938.766 1694.69 936.926L1694.94 936.502C1717.17 991.638 1780.58 1145.44 1842.23 1393.7C1858.29 1458.37 1872.85 1523.81 1886.05 1589.55C1886.44 1591.46 1959.12 1541.79 1959.5 1543.7C1959.82 1545.29 1887.84 1598.45 1888.15 1600.04C1921.43 1767.55 1946.01 1936.9 1964.36 2100.5C1972 2107.12 1979.82 2124.7 1987.76 2150.07C1980.81 2095.55 1984.5 2073.15 2003.37 2096.54C2025.88 2079.3 2020.83 2099.76 2025.48 2126.39C2027.96 2101.25 2034.75 2090.37 2048.53 2102.62C2046.04 2026.8 2057.61 1980.59 2075.15 2047.84C2083.05 2032.74 2089.9 2034.12 2096.14 2045.14C2096.94 2046.81 2097.79 2048.52 2098.7 2050.26C2097.85 2048.38 2097 2046.67 2096.14 2045.14C2078.23 2007.94 2084.57 1988.97 2108.24 1983C2102.99 1850.18 2108.65 1816.72 2140.24 2019.43C2165.38 1950.92 2157.25 2001.26 2134.09 2088.44C2127.33 2105.95 2121.52 2090.79 2123.52 2112.54C2125.51 2134.06 2107.86 2171.9 2094.18 2170.24C2089.95 2169.73 2183.89 2248.03 2179.88 2245.27C2171.14 2239.28 2069.11 2182.59 2067.18 2211.39C2066.04 2228.5 2051.95 2251.6 2042.52 2243.43C2034.35 2236.34 2030.25 2229.29 2026.33 2264.75C2025.15 2275.4 2011.36 2290.46 2005.91 2284.35C1996.2 2273.5 1989.22 2281.11 1984.44 2303.85C1985.42 2315.26 2093.37 2397.89 2094.96 2418.11C2094.96 2418.11 1971.39 2333.13 1970.19 2316.48C1966.13 2317.96 1962.62 2320.11 1962.02 2326.05C1958.86 2357.6 1954.46 2328.57 1934.94 2327.24C1928.64 2326.82 1907.43 2382.1 1904.63 2372.24C1899.34 2353.63 1895.03 2360.85 1891.23 2381.98C1888.39 2397.7 1849.48 2418.04 1840.15 2412.29C1837.76 2410.81 1836.64 2408.81 1836.18 2407C1837.8 2399.43 1835.09 2402.67 1836.18 2407C1835.55 2409.95 1834.25 2414.56 1831.81 2421.4C1831.03 2423.59 1977.52 2675.56 1976.28 2677.54C1974.95 2679.65 1825.87 2431.75 1824.22 2433.38C1818.98 2438.54 1812.61 2440.61 1808.35 2435.54C1798.87 2424.24 1791.75 2427.91 1787.19 2447.68C1782.53 2467.89 1778.51 2442.85 1766 2449.39C1763.25 2450.83 1758.52 2453.44 1753.19 2456.71C1753.45 2459.92 1753.71 2463.12 1753.96 2466.32C1754.11 2468.21 1826.48 2620.19 1828.13 2641.89C1828.13 2641.89 1737.71 2472.42 1737.38 2467.51C1731.68 2471.95 1726.88 2476.57 1724.79 2480.7C1717.77 2494.52 1709.72 2502.81 1698.52 2493.49C1688.45 2485.11 1666.04 2494.05 1650.68 2507.62C1650.84 2509.82 1692.77 2637.33 1693.11 2641.68L1639.5 2520.39C1638.66 2521.72 1637.92 2523.06 1637.29 2524.39C1620.63 2559.7 1604.18 2506.49 1602.38 2535.81C1601.68 2547.16 1599.35 2564.46 1579.75 2544.88C1574.5 2539.64 1567.87 2549.54 1561.89 2551.84C1556.02 2554.09 1534.91 2557.21 1530.27 2563.83C1511.76 2590.24 1495.29 2594.03 1455.73 2589.84C1464.73 2546.42 1476.73 2535.98 1485.56 2568.2C1490.04 2516.61 1520.88 2502.11 1534.85 2518.9C1538.57 2437.11 1536.07 2469.05 1554.68 2500.03C1556.31 2414.63 1580.96 2376.4 1593.85 2444.63C1600.15 2373.97 1611.3 2419.61 1620.85 2454.75C1621.75 2443.22 1623.15 2432.24 1625.12 2423.28Z" fill="#F1EDC8"/>
<path d="M1856.24 2088.85C1845.74 2056.76 1825.47 2076.43 1834.2 2147.44C1818.57 2144.54 1812.61 2159.22 1834.19 2223.93C1814.61 2195.99 1802.58 2201.93 1793.03 2219.01C1781 2237.51 1779 2256.32 1790.51 2288.61L1756.35 2307.37C1751.01 2317.5 1746.07 2322.21 1741.44 2323.61C1714 2036.81 1670.15 1727.56 1598.02 1433.54C1534.28 1173.71 1469.36 1012.12 1446.76 954.556L1446.49 955.001C1447.23 956.877 1448.74 960.699 1449.55 962.815C1590.4 1330.19 1664.31 1736.52 1705.81 2110.42C1714.37 2187.5 1721.03 2258.96 1726.04 2318.11C1719.97 2312.87 1714.34 2305.85 1708.81 2304.25C1690.55 2306.37 1689.31 2323.3 1702.2 2352.5C1688.92 2354.58 1683.67 2371.9 1685.13 2401.93C1674.24 2353.93 1665.48 2358.7 1659.73 2438.19C1652.72 2418.02 1646.74 2407.27 1641.71 2403.33C1608.38 2039.21 1552.24 1645.07 1454.62 1275.59C1440.96 1223.9 1427.31 1175.84 1413.99 1131.48C1413.64 1130.28 1469.28 1060.27 1468.92 1059.08C1468.53 1057.77 1412.13 1125.28 1411.74 1123.98C1355.4 937.538 1305.28 817.695 1285.55 769.414L1285.25 769.938C1286.88 773.942 1288.01 776.694 1288.87 778.832C1457.25 1200.62 1544.64 1666.79 1593.5 2092.17C1609.07 2227.69 1619.28 2347.81 1625.12 2423.28C1623.15 2432.24 1621.75 2443.22 1620.85 2454.75C1611.3 2419.61 1600.15 2373.97 1593.85 2444.63C1580.96 2376.4 1556.31 2414.63 1554.68 2500.03C1536.07 2469.05 1538.57 2437.11 1534.85 2518.9C1520.88 2502.11 1490.04 2516.61 1485.56 2568.2C1476.73 2535.98 1464.73 2546.42 1455.73 2589.84C1495.29 2594.03 1511.76 2590.24 1530.27 2563.83C1534.91 2557.21 1556.02 2554.09 1561.89 2551.84C1567.87 2549.54 1574.5 2539.64 1579.75 2544.88C1599.35 2564.46 1601.68 2547.16 1602.38 2535.81C1604.19 2506.49 1620.63 2559.7 1637.29 2524.39C1637.92 2523.06 1638.66 2521.72 1639.5 2520.39L1693.11 2641.68C1692.77 2637.33 1650.84 2509.82 1650.68 2507.62C1666.04 2494.05 1688.45 2485.11 1698.52 2493.49C1709.72 2502.81 1717.77 2494.52 1724.79 2480.7C1726.88 2476.57 1731.68 2471.95 1737.38 2467.51C1737.71 2472.42 1828.13 2641.89 1828.13 2641.89C1826.48 2620.19 1754.11 2468.21 1753.96 2466.32C1753.71 2463.12 1753.45 2459.92 1753.19 2456.71C1758.52 2453.44 1763.25 2450.83 1766 2449.39C1778.51 2442.85 1782.53 2467.89 1787.19 2447.68C1791.75 2427.91 1798.87 2424.24 1808.35 2435.54C1812.61 2440.61 1818.98 2438.54 1824.22 2433.38C1825.87 2431.75 1974.95 2679.65 1976.28 2677.54C1977.52 2675.56 1831.03 2423.59 1831.81 2421.4C1834.25 2414.56 1835.55 2409.95 1836.18 2407M1856.24 2088.85C1855.97 2097.65 1857.66 2110.66 1861.95 2129.26C1861.46 2111.52 1859.25 2098.06 1856.24 2088.85ZM1856.24 2088.85C1856.7 2074.18 1862.6 2071.21 1870.96 2073.51C1874.93 2012.2 1889.69 1989.75 1904.63 2069.76C1894.83 1867.99 1928.95 1886.87 1947.54 2105.31C1948.88 2103.22 1950.23 2101.57 1951.59 2100.34C1948.28 2067.45 1944.54 2032.51 1940.34 1996.26C1900.19 1650.01 1829.51 1279.12 1697.6 944.17C1696.81 942.159 1695.44 938.766 1694.69 936.926L1694.94 936.502C1717.17 991.638 1780.58 1145.44 1842.23 1393.7C1858.29 1458.37 1872.85 1523.81 1886.05 1589.55C1886.44 1591.46 1959.12 1541.79 1959.5 1543.7C1959.82 1545.29 1887.84 1598.45 1888.15 1600.04C1921.43 1767.55 1946.01 1936.9 1964.36 2100.5C1972 2107.12 1979.82 2124.7 1987.76 2150.07C1980.81 2095.55 1984.5 2073.15 2003.37 2096.54C2025.88 2079.3 2020.83 2099.76 2025.48 2126.39C2027.96 2101.25 2034.75 2090.37 2048.53 2102.62C2046.04 2026.8 2057.61 1980.59 2075.15 2047.84C2083.05 2032.74 2089.9 2034.12 2096.14 2045.14M2096.14 2045.14C2096.94 2046.81 2097.79 2048.52 2098.7 2050.26C2097.85 2048.38 2097 2046.67 2096.14 2045.14ZM2096.14 2045.14C2078.23 2007.94 2084.57 1988.97 2108.24 1983C2102.99 1850.18 2108.65 1816.72 2140.24 2019.43C2165.38 1950.92 2157.25 2001.26 2134.09 2088.44C2127.33 2105.95 2121.52 2090.79 2123.52 2112.54C2125.51 2134.06 2107.86 2171.9 2094.18 2170.24C2089.95 2169.73 2183.89 2248.03 2179.88 2245.27C2171.14 2239.28 2069.11 2182.59 2067.18 2211.39C2066.04 2228.5 2051.95 2251.6 2042.52 2243.43C2034.35 2236.34 2030.25 2229.29 2026.33 2264.75C2025.15 2275.4 2011.36 2290.46 2005.91 2284.35C1996.2 2273.5 1989.22 2281.11 1984.44 2303.85C1985.42 2315.26 2093.37 2397.89 2094.96 2418.11C2094.96 2418.11 1971.39 2333.13 1970.19 2316.48C1966.13 2317.96 1962.62 2320.11 1962.02 2326.05C1958.86 2357.6 1954.46 2328.57 1934.94 2327.24C1928.64 2326.82 1907.43 2382.1 1904.63 2372.24C1899.34 2353.63 1895.03 2360.85 1891.23 2381.98C1888.39 2397.7 1849.48 2418.04 1840.15 2412.29C1837.76 2410.81 1836.64 2408.81 1836.18 2407M1836.18 2407C1837.8 2399.43 1835.09 2402.67 1836.18 2407Z" stroke="#3C3C3C" stroke-width="1.15618" stroke-miterlimit="2" stroke-linejoin="round"/>
<path fill-rule="evenodd" clip-rule="evenodd" d="M1177.22 1566.5C1158.32 1564.46 1149.97 1544.82 1141.78 1561.41C1136.16 1572.79 1126.18 1582.72 1102.59 1564.35C1096.17 1559.36 1077.45 1566.24 1072.16 1566.65C1069.66 1566.84 1027.57 1566.25 1019.5 1570.85C983.26 1591.51 757.986 1606.59 704.582 1596.5C720.597 1559.89 941.543 1532.33 949.977 1566.17C965.474 1519.2 1019.89 1514.89 1037.64 1532.54C1052.86 1493.94 1054.29 1495.21 1059.44 1488.99C1070.28 1514.47 1073.31 1518.87 1074.88 1521.14C1101.72 1451.72 1159.34 1426.92 1157.21 1485.78C1159.97 1481.45 1167.28 1470.11 1174.89 1463.64L1172.89 1375.31C1166.01 1096.82 1158.88 894.556 1148.79 689.188L1149.08 689.119C1168.75 1009.4 1178.13 1305.62 1182.58 1459.2C1183.93 1458.87 1185.24 1458.83 1186.49 1459.18C1193.94 1461.2 1198.27 1497.24 1198.68 1500.72C1221.67 1464.16 1255.28 1441.87 1269.56 1497.26C1272.6 1492.62 1325.22 1409.73 1325.5 1475.97C1338.64 1442.54 1364.49 1443.24 1372.66 1443.79C1356.21 1405.67 1394.23 1410.08 1401.82 1410.77C1421.68 1416.47 1433.09 1445.46 1478.49 1422.78C1510.72 1419.09 1535.1 1415.65 1540.01 1414.96C1531.52 1386.72 1548.9 1375.54 1567.19 1367.29C1581.65 1359.84 1604.69 1351.4 1628.85 1374.42C1617.76 1336.46 1623.05 1318.94 1650.51 1322.22C1656.13 1277.15 1688.43 1263.63 1696.16 1283.45C1693.91 1289.5 1693.48 1298.2 1695.12 1310.23C1698.58 1298.29 1698.46 1289.38 1696.16 1283.45C1699.74 1273.8 1707.95 1270.93 1719.76 1272.1C1753.51 1191.84 1765.1 1261.64 1765.65 1266.23C1771.29 1229.08 1778.23 1215.18 1795.29 1228.02C1803.73 1234.37 1820.1 1213.12 1816 1283.15C1833.98 1267.31 1848.88 1274.1 1861.3 1305.55C1860.63 1285.86 1859.9 1245.9 1886.99 1259.87C1888.5 1258.75 1904.32 1246.94 1907.72 1250.64C1910.14 1253.27 1910.13 1268.94 1911.05 1274.32C1912.97 1266.72 1919.48 1240.91 1939.98 1245.19C1940.08 1239.06 1941.02 1183.51 1951.95 1170.52C1959.96 1161 1969.79 1183.75 1970.63 1185.7C1972.73 1181.26 1981.45 1161.35 1992.76 1169.89C1993.56 1170.68 1994.4 1171.46 1995.29 1172.25C1994.44 1171.3 1993.59 1170.52 1992.76 1169.89C1969.58 1147.09 1984.29 1125.74 2000.77 1107.37C1994.5 1064.89 1983.41 1007.77 1992.66 1014.51C1998.17 1018.53 2015.38 1052.2 2034.15 1112.72C2038.6 1090.61 2037.17 1090.32 2044.21 1069.25C2044.8 1078.29 2047 1111.49 2033.06 1180.95C2028.49 1196.82 2020.53 1193.48 2022.88 1210.43C2025.53 1229.55 2006.11 1273.59 1989.55 1279.37C1986 1280.61 1981.47 1297.58 1977.77 1297.15C1961.47 1295.27 1956.33 1316.82 1954.18 1327.3C1950.91 1343.26 1930.04 1366.88 1919.05 1363C1907.31 1358.85 1904.18 1358.76 1894.39 1385.16C1890.99 1394.34 1869.39 1409.49 1863.06 1405.67C1846.04 1395.42 1830.44 1422.31 1827.79 1426.62C1821.9 1436.21 1796.22 1435.16 1791.32 1444.88C1779.47 1468.4 1773.52 1447.74 1750.99 1447.79C1743.53 1447.81 1693.32 1489.39 1692.02 1482.24C1688.31 1461.93 1669.18 1487.96 1668.17 1489.23C1658.61 1501.1 1590.44 1513.58 1577.01 1508.37C1569.94 1505.62 1573.64 1502.27 1573.68 1502.14C1567.63 1509.34 1567.53 1508.84 1560.38 1514.23C1548.88 1522.88 1525.05 1528.36 1517.19 1521.92C1499.22 1507.2 1481.08 1525.19 1478.1 1528.01C1464.08 1541.31 1462.15 1523.69 1442.46 1526.12C1436 1526.91 1377.83 1534.09 1362.65 1542.38C1354.1 1547.05 1332.89 1558.28 1314.36 1547.21C1295.78 1536.12 1225.79 1544.34 1202.42 1559.22C1196.03 1563.29 1190.38 1565.42 1185.36 1566.25C1185.65 1578.22 1185.91 1589.16 1186.08 1597.44C1187.93 1685.93 1192.19 1888.07 1192.4 2245.15L1192.11 2245.16C1191.57 2218.19 1188.76 2077.59 1184.97 1908.04L1177.22 1566.5Z" fill="#F1EDC8"/>
<path d="M1696.16 1283.45C1688.43 1263.63 1656.13 1277.15 1650.51 1322.22C1623.05 1318.94 1617.76 1336.46 1628.85 1374.42C1604.69 1351.4 1581.65 1359.84 1567.19 1367.29C1548.9 1375.54 1531.52 1386.72 1540.01 1414.96C1535.1 1415.65 1510.72 1419.09 1478.49 1422.78C1433.09 1445.46 1421.68 1416.47 1401.82 1410.77C1394.23 1410.08 1356.21 1405.67 1372.66 1443.79C1364.49 1443.24 1338.64 1442.54 1325.5 1475.97C1325.22 1409.73 1272.6 1492.62 1269.56 1497.26C1255.28 1441.87 1221.67 1464.16 1198.68 1500.72C1198.27 1497.24 1193.94 1461.2 1186.49 1459.18C1185.24 1458.83 1183.93 1458.87 1182.58 1459.2C1178.13 1305.62 1168.75 1009.4 1149.08 689.119L1148.79 689.188C1158.88 894.556 1166.01 1096.82 1172.89 1375.31L1174.89 1463.64C1167.28 1470.11 1159.97 1481.45 1157.21 1485.78C1159.34 1426.92 1101.72 1451.72 1074.88 1521.14C1073.31 1518.87 1070.28 1514.47 1059.44 1488.99C1054.29 1495.21 1052.86 1493.94 1037.64 1532.54C1019.89 1514.89 965.475 1519.2 949.977 1566.17C941.543 1532.33 720.597 1559.89 704.582 1596.5C757.986 1606.59 983.26 1591.51 1019.5 1570.85C1027.57 1566.25 1069.66 1566.84 1072.16 1566.65C1077.45 1566.24 1096.17 1559.36 1102.59 1564.35C1126.18 1582.72 1136.16 1572.79 1141.78 1561.41C1149.97 1544.82 1158.32 1564.46 1177.22 1566.5L1184.97 1908.04C1188.76 2077.59 1191.57 2218.19 1192.11 2245.16L1192.4 2245.15C1192.19 1888.07 1187.93 1685.93 1186.08 1597.44C1185.91 1589.16 1185.65 1578.22 1185.36 1566.25C1190.38 1565.42 1196.03 1563.29 1202.42 1559.22C1225.79 1544.34 1295.78 1536.12 1314.36 1547.21C1332.89 1558.28 1354.1 1547.06 1362.65 1542.38C1377.83 1534.09 1436 1526.91 1442.46 1526.12C1462.15 1523.69 1464.08 1541.31 1478.1 1528.01C1481.08 1525.19 1499.22 1507.2 1517.19 1521.92C1525.05 1528.36 1548.88 1522.88 1560.38 1514.23C1567.53 1508.84 1567.63 1509.34 1573.68 1502.14C1573.64 1502.27 1569.94 1505.62 1577.01 1508.37C1590.44 1513.58 1658.61 1501.1 1668.17 1489.23C1669.18 1487.96 1688.31 1461.93 1692.02 1482.24C1693.32 1489.39 1743.53 1447.81 1750.99 1447.79C1773.52 1447.74 1779.47 1468.4 1791.32 1444.88C1796.22 1435.16 1821.9 1436.21 1827.79 1426.62C1830.44 1422.31 1846.04 1395.42 1863.06 1405.67C1869.39 1409.49 1890.99 1394.34 1894.39 1385.16C1904.18 1358.76 1907.31 1358.85 1919.05 1363C1930.04 1366.88 1950.91 1343.26 1954.18 1327.3C1956.33 1316.82 1961.47 1295.27 1977.77 1297.15C1981.47 1297.58 1986 1280.61 1989.55 1279.37C2006.11 1273.59 2025.53 1229.55 2022.88 1210.43C2020.53 1193.48 2028.49 1196.82 2033.06 1180.95C2047 1111.49 2044.8 1078.29 2044.21 1069.25C2037.17 1090.32 2038.6 1090.61 2034.15 1112.72C2015.38 1052.2 1998.17 1018.53 1992.66 1014.51C1983.41 1007.77 1994.5 1064.89 2000.77 1107.37C1984.29 1125.74 1969.58 1147.09 1992.76 1169.89M1696.16 1283.45C1693.91 1289.5 1693.48 1298.2 1695.12 1310.23C1698.58 1298.29 1698.46 1289.38 1696.16 1283.45ZM1696.16 1283.45C1699.74 1273.8 1707.95 1270.93 1719.76 1272.1C1753.51 1191.84 1765.1 1261.64 1765.65 1266.23C1771.29 1229.08 1778.23 1215.18 1795.29 1228.02C1803.73 1234.37 1820.1 1213.12 1816 1283.15C1833.98 1267.31 1848.88 1274.1 1861.3 1305.55C1860.63 1285.86 1859.9 1245.9 1886.99 1259.87C1888.5 1258.75 1904.32 1246.94 1907.72 1250.64C1910.14 1253.27 1910.13 1268.94 1911.05 1274.32C1912.97 1266.72 1919.48 1240.91 1939.98 1245.19C1940.08 1239.06 1941.02 1183.51 1951.95 1170.52C1959.96 1161 1969.79 1183.75 1970.63 1185.7C1972.73 1181.26 1981.45 1161.35 1992.76 1169.89M1992.76 1169.89C1993.56 1170.68 1994.4 1171.46 1995.29 1172.25C1994.44 1171.3 1993.59 1170.52 1992.76 1169.89Z" stroke="#3C3C3C" stroke-width="0.451292" stroke-miterlimit="2" stroke-linejoin="round"/>
<path fill-rule="evenodd" clip-rule="evenodd" d="M147.117 148.01C147.274 148.207 147.472 148.368 147.629 148.565C162.061 166.794 185.079 196.501 188.319 200.682C194.734 208.959 233.588 259.098 267.083 305.245C291.349 338.678 332.291 396.929 337.916 404.934C375.129 457.881 446.411 560.398 448.511 563.499C451.629 568.1 454.387 572.934 457.258 577.693C457.315 577.788 463.658 588.602 463.662 588.612C463.693 588.688 463.626 588.736 463.565 588.682C463.558 588.676 455.334 579.21 455.261 579.127C451.67 574.885 447.969 570.727 444.605 566.305C442.338 563.325 367.951 463.037 329.66 410.864C323.872 402.978 281.744 345.578 257.811 311.905C224.776 265.427 189.67 212.596 183.874 203.875C180.946 199.468 160.147 168.169 147.482 148.67C147.345 148.459 147.255 148.221 147.117 148.01Z" fill="#FAF6B0"/>
<path fill-rule="evenodd" clip-rule="evenodd" d="M1855.07 1089.82C1855.17 1089.63 1855.21 1089.68 1855.47 1089.53C1863.53 1084.55 1915.18 1052.63 1957 1028.57C2008 999.24 2147.43 923.888 2147.62 923.787C2150.84 922.088 2154.18 920.628 2157.48 919.092C2158.09 918.813 2165.94 915.159 2165.08 915.75C2163.82 916.622 2153.07 924.038 2149.09 926.408C2146.33 928.058 2020.36 1001.39 1969.77 1029.49C1937.11 1047.63 1900.18 1066.71 1894.08 1069.87C1890.97 1071.48 1854.92 1090.11 1855.07 1089.82Z" fill="#FAF6B0"/>
<path fill-rule="evenodd" clip-rule="evenodd" d="M84.5859 667.587C84.8986 667.796 85.2773 667.892 85.5899 668.104C111.667 685.645 151.838 713.839 157.568 717.86C168.675 725.655 179.719 733.54 190.73 741.472C242.376 778.669 272.559 802.18 279.55 807.626C282.326 809.789 295.163 819.789 313.957 835.056C354.623 868.09 412.257 916.897 420.745 924.085C431.371 933.083 470.534 966.248 552.976 1037.27C573.505 1054.96 594.363 1072.27 614.444 1090.46C619.919 1095.42 624.626 1101.17 629.572 1106.66C629.671 1106.77 640.582 1119.48 640.59 1119.5C640.695 1119.69 640.607 1119.8 640.397 1119.73C640.381 1119.73 625.713 1111.64 625.586 1111.57C619.204 1107.84 612.614 1104.41 606.64 1100.06C584.736 1084.11 563.532 1067.22 542.032 1050.73C455.685 984.507 415.231 952.932 404.254 944.366C395.486 937.522 335.95 891.053 295.316 857.979C276.537 842.694 264.129 832.167 261.446 829.89C254.69 824.157 225.517 799.405 178.567 756.43C168.557 747.267 158.585 738.065 148.688 728.78C143.583 723.991 107.789 690.414 85.2964 668.463C85.028 668.201 84.8555 667.849 84.5859 667.587Z" fill="#FAF6B0"/>
<path fill-rule="evenodd" clip-rule="evenodd" d="M-15.8906 1078.63C-15.7096 1078.67 -15.5164 1078.64 -15.3354 1078.68C-12.0252 1079.41 -0.4154 1081.98 25.9086 1088.41C32.4165 1090 71.8996 1099.63 106.652 1110.61C141.707 1121.68 200.293 1142.67 208.396 1145.57C225.599 1151.73 242.791 1157.93 259.974 1164.15C272.305 1168.61 284.73 1172.84 296.936 1177.64C300.27 1178.95 303.37 1180.79 306.539 1182.46C307.127 1182.77 313.84 1186.31 313.753 1186.58C313.664 1186.85 306.158 1185.73 305.501 1185.63C301.958 1185.1 298.368 1184.75 294.903 1183.84C282.223 1180.49 269.709 1176.54 257.125 1172.85C206.585 1158.02 182.818 1150.8 176.368 1148.85C170.385 1147.03 126.833 1133.81 101.83 1125.33C67.3174 1113.62 29.7826 1098.04 23.5958 1095.47C-1.42822 1085.07 -12.3093 1080.28 -15.4112 1078.91C-15.5814 1078.84 -15.7204 1078.7 -15.8906 1078.63Z" fill="#FAF6B0"/>
<path fill-rule="evenodd" clip-rule="evenodd" d="M204.305 2661.94C204.516 2661.59 204.645 2661.2 204.856 2660.86C224.111 2629.55 255.698 2579.47 260.15 2572.41C286.793 2530.17 310.156 2494.23 314.554 2487.47C346.993 2437.56 368.176 2406.41 372.927 2399.43C423.945 2324.4 512.771 2199.15 525.059 2181.82C551.141 2145.05 577.258 2108.29 603.407 2071.56C622.172 2045.2 640.665 2018.64 659.799 1992.55C664.984 1985.48 670.759 1978.86 676.343 1972.1C676.455 1971.96 689.269 1956.87 689.281 1956.86C689.387 1956.77 689.498 1956.85 689.45 1956.98C689.444 1956.99 679.933 1974.35 679.847 1974.51C675.526 1982.14 671.407 1989.9 666.655 1997.27C649.125 2024.47 630.935 2051.23 613.024 2078.18L497.645 2251.09C489.041 2263.9 426.427 2357.14 389.2 2410.62C384.373 2417.56 362.852 2448.47 327.841 2496.61C323.094 2503.13 297.878 2537.8 267.953 2577.78C262.953 2584.46 227.475 2631.86 205.113 2661.04C204.868 2661.36 204.55 2661.62 204.305 2661.94Z" fill="#FAF6B0"/>
<path fill-rule="evenodd" clip-rule="evenodd" d="M813.182 2608.34C813.226 2608.03 813.177 2607.71 813.221 2607.4C817.038 2580.04 823.764 2536.67 824.717 2530.53C830.418 2493.76 835.887 2462.31 836.917 2456.38C844.511 2412.71 850.086 2385.23 851.336 2379.06C864.762 2312.85 890.439 2201.43 893.992 2186.02C901.532 2153.3 909.112 2120.59 916.73 2087.89C922.198 2064.43 927.34 2040.88 933.25 2017.52C934.855 2011.18 937.174 2005.03 939.263 1998.83C939.305 1998.71 944.285 1984.77 944.291 1984.76C944.364 1984.64 944.477 1984.66 944.492 1984.8C944.493 1984.82 943.435 1999.58 943.424 1999.71C942.836 2006.23 942.482 2012.78 941.394 2019.24C937.389 2043 932.606 2066.62 928.154 2090.3C925.865 2102.47 910.27 2185.4 899.181 2242.36C896.985 2253.63 881.003 2335.72 870.666 2383.12C869.324 2389.27 863.349 2416.68 852.699 2459.71C851.255 2465.54 843.585 2496.53 833.985 2532.48C832.381 2538.49 821.056 2580.89 813.527 2607.46C813.441 2607.77 813.268 2608.04 813.182 2608.34Z" fill="#FAF6B0"/>
<path fill-rule="evenodd" clip-rule="evenodd" d="M1115.9 1120.2C1115.95 1119.83 1115.93 1119.46 1115.98 1119.09C1120.22 1084.24 1127.6 1027.49 1128.63 1019.53C1130.68 1003.76 1143.09 908.279 1156.29 822.711C1165.86 760.716 1183.58 654.071 1186.01 639.416C1202.12 542.482 1233.91 355.58 1234.92 349.985C1236.41 341.689 1238.38 333.488 1240.2 325.256C1240.24 325.092 1244.52 306.575 1244.52 306.561C1244.56 306.474 1244.66 306.491 1244.66 306.583C1244.66 306.597 1243.02 325.533 1243 325.7C1242.19 334.09 1241.54 342.5 1240.4 350.852C1239.63 356.484 1212.19 544.074 1197.59 641.248C1195.39 655.938 1179.33 762.847 1169.3 824.768C1155.45 910.235 1137.78 1004.89 1134.87 1020.52C1133.4 1028.41 1122.9 1084.66 1116.18 1119.12C1116.11 1119.49 1115.98 1119.84 1115.9 1120.2Z" fill="#FAF6B0"/>
<path fill-rule="evenodd" clip-rule="evenodd" d="M1538.83 887.408C1539.02 887.129 1539.14 886.801 1539.34 886.52C1556.82 861.653 1585.28 822.331 1589.31 816.77C1613.4 783.495 1634.54 755.291 1638.52 749.978C1667.87 710.812 1687.07 686.506 1691.37 681.054C1737.61 622.508 1818.2 525.325 1829.35 511.883C1853.02 483.347 1876.72 454.835 1900.45 426.35C1917.48 405.909 1934.25 385.25 1951.63 365.102C1956.34 359.633 1961.61 354.663 1966.69 349.536C1966.79 349.435 1978.48 338.048 1978.49 338.04C1978.61 337.959 1978.7 338.036 1978.65 338.167C1978.65 338.181 1970.09 352.074 1970.01 352.195C1966.12 358.279 1962.43 364.506 1958.12 370.303C1942.27 391.667 1925.78 412.557 1909.56 433.645C1901.22 444.486 1844.42 518.348 1805.07 568.91C1797.27 578.922 1740.55 651.796 1706.79 693.398C1702.41 698.793 1682.9 722.842 1651.11 760.058C1646.8 765.103 1623.9 791.905 1596.7 822.69C1592.16 827.833 1560.02 864.215 1539.58 886.715C1539.35 886.969 1539.06 887.155 1538.83 887.408Z" fill="#FAF6B0"/>
<path fill-rule="evenodd" clip-rule="evenodd" d="M1509.31 2043.08C1509.55 2043.37 1509.86 2043.6 1510.1 2043.89C1531.7 2070.18 1565.85 2112.79 1570.67 2118.81C1599.51 2154.8 1623.81 2186.05 1628.38 2191.94C1662.12 2235.34 1682.84 2263.27 1687.49 2269.54C1737.41 2336.83 1819.45 2452.48 1830.8 2468.48C1854.89 2502.44 1878.95 2536.42 1902.97 2570.43C1920.21 2594.84 1937.72 2619.05 1954.59 2643.72C1959.16 2650.41 1963.12 2657.5 1967.27 2664.46C1967.35 2664.6 1976.48 2680.45 1976.49 2680.46C1976.54 2680.6 1976.43 2680.68 1976.32 2680.58C1976.31 2680.58 1963.94 2667.09 1963.84 2666.97C1958.45 2660.92 1952.88 2655.01 1947.88 2648.64C1929.44 2625.12 1911.63 2601.13 1893.55 2577.33C1868.36 2544.18 1843.21 2511 1818.08 2477.8C1806.25 2462.16 1720.68 2349.09 1671.56 2281.21C1666.98 2274.89 1646.59 2246.71 1615.37 2201.47C1611.14 2195.34 1588.66 2162.75 1563.03 2124.4C1558.75 2118 1528.4 2072.59 1509.85 2044.07C1509.64 2043.76 1509.52 2043.4 1509.31 2043.08Z" fill="#FAF6B0"/>
<path fill-rule="evenodd" clip-rule="evenodd" d="M1228.53 1325.08C1228.77 1324.87 1228.94 1324.6 1229.17 1324.39C1249.84 1306.17 1283.1 1277.73 1287.81 1273.7C1316.02 1249.59 1340.59 1229.35 1345.22 1225.54C1379.34 1197.43 1401.42 1180.26 1406.37 1176.41C1459.55 1135.05 1551.37 1067.46 1564.08 1058.11C1591.04 1038.26 1618.03 1018.45 1645.04 998.666C1664.43 984.472 1683.62 970.001 1703.27 956.174C1708.6 952.419 1714.35 949.281 1719.96 945.947C1720.08 945.881 1732.9 938.581 1732.92 938.574C1733.05 938.527 1733.12 938.62 1733.04 938.739C1733.03 938.749 1722.64 949.233 1722.55 949.322C1717.87 953.872 1713.34 958.607 1708.33 962.782C1689.86 978.154 1670.89 992.915 1652.14 1007.93C1642.5 1015.65 1576.82 1068.26 1531.42 1104.14C1522.43 1111.24 1457 1162.95 1418.38 1192.09C1413.37 1195.87 1391.04 1212.72 1355.02 1238.34C1350.14 1241.82 1324.2 1260.27 1293.57 1281.22C1288.46 1284.72 1252.33 1309.43 1229.36 1324.64C1229.1 1324.81 1228.79 1324.91 1228.53 1325.08Z" fill="#FAF6B0"/>
<path fill-rule="evenodd" clip-rule="evenodd" d="M1461.89 722.599C1462.03 722.349 1462.12 722.078 1462.25 721.829C1474.8 698.163 1495.57 659.735 1498.48 654.345C1504.26 643.669 1539.2 579.022 1571.97 521.64C1595.72 480.069 1637.46 408.892 1643.19 399.11C1681.13 334.415 1754.79 209.87 1757.03 206.155C1760.36 200.649 1764 195.339 1767.53 189.966C1767.6 189.858 1775.7 177.82 1775.7 177.812C1775.75 177.76 1775.81 177.799 1775.79 177.864C1775.79 177.874 1769.43 190.911 1769.38 191.028C1766.5 196.783 1763.73 202.596 1760.64 208.233C1758.55 212.037 1687.75 338.233 1650.81 403.502C1645.23 413.369 1604.58 485.177 1580.53 526.571C1547.33 583.706 1508.93 646.361 1502.59 656.709C1499.39 661.933 1476.56 699.179 1462.38 721.909C1462.23 722.146 1462.04 722.358 1461.89 722.599Z" fill="#FAF6B0"/>
</g>
<defs>
<clipPath id="clip0_1998_1162">
<rect width="2160" height="2700" fill="white"/>
</clipPath>
</defs>
</svg>
