<svg width="2160" height="2700" viewBox="0 0 2160 2700" fill="none" xmlns="http://www.w3.org/2000/svg">
<g clip-path="url(#clip0_1998_1023)">
<path d="M2479.34 -63.874H-375.766V2865.22H2479.34V-63.874Z" fill="#810306"/>
<path fill-rule="evenodd" clip-rule="evenodd" d="M659.024 2343.27L718.97 2499.16L610.762 2417.76C610.762 2417.76 671.729 2501.78 660.602 2501.94C649.475 2502.09 538.335 2437.96 538.335 2437.96C538.335 2437.96 657.917 2544.37 625.799 2537.3C601.1 2531.86 448.112 2431.98 448.112 2431.98C448.112 2431.98 602.21 2544.77 595.363 2563.48C588.516 2582.18 398.269 2468.99 398.269 2468.99C398.269 2468.99 502.475 2555.26 475.974 2562.01C449.473 2568.77 224.789 2461.38 224.789 2461.38C224.789 2461.38 455.952 2625.44 455.092 2649.87C454.232 2674.31 244.55 2645.93 244.55 2645.93L468.672 2715.9L1533.97 2715.4L1841.1 2677.86C1841.1 2677.86 1595.7 2678.2 1582.22 2660.31C1568.73 2642.42 1841.93 2466.55 1841.93 2466.55C1841.93 2466.55 1528.08 2620.09 1504.32 2599.35C1480.56 2578.62 1660.72 2442.06 1660.72 2442.06C1660.72 2442.06 1462.01 2564.97 1457.52 2542.2C1455.21 2530.49 1630.9 2403.34 1625.79 2391.81C1625.79 2391.81 1496.28 2480.11 1449.89 2484.36C1421.13 2487 1486.97 2416.93 1486.97 2416.93C1486.97 2416.93 1388.48 2434.03 1355.13 2436.35C1338.05 2437.54 1356.73 2387.41 1356.73 2387.41C1356.73 2387.41 1191.92 2483.21 1178.98 2472.48C1163.6 2459.74 1127.73 2384.57 1127.73 2384.57C1127.73 2384.57 1063.29 2506.35 1042.07 2491.78C1020.84 2477.21 970.814 2378.89 970.814 2378.89C970.814 2378.89 940.228 2477.37 906.885 2475.78C873.543 2474.19 770.76 2369.36 770.76 2369.36C770.76 2369.36 811.155 2474.43 804.031 2490.16C796.907 2505.88 659.024 2343.27 659.024 2343.27Z" fill="black"/>
<path fill-rule="evenodd" clip-rule="evenodd" d="M1004.24 1658.93C1043.18 1660.23 1182.55 1665.33 1326.35 1755.02C1460.81 1838.89 1543.14 1959.33 1569.18 2081.37C1582.57 2144.15 1578.2 2194.42 1575.89 2214.73C1567.68 2287.18 1541.46 2343.15 1519.03 2380.89C1465.9 2470.26 1393.02 2521.26 1361.84 2541.85C1274.63 2599.43 1190.59 2619.97 1153.18 2628.12C1131.62 2632.82 1091.51 2640.54 1037.1 2642.85C1004.55 2644.22 973.553 2643.25 940.566 2640.15C908.535 2637.13 873.754 2631.6 833.544 2621.14C790.296 2609.9 755.303 2596.02 725.929 2582.44C612.637 2530.05 552.776 2459.5 530.73 2432.14C446.458 2327.55 437.598 2225.8 435.753 2187.17C429.844 2063.53 481.505 1971.17 503.054 1935.74C569.882 1825.84 684.118 1733.92 828.424 1688.67C841.751 1684.49 872.029 1675.2 912.881 1668.15C957.566 1660.44 992.085 1659.37 1004.24 1658.93ZM1004.24 1729.5C905.813 1726.06 832.165 1748.12 799.915 1759.01C670.644 1802.67 572.128 1887.42 516.755 1980.99C477.631 2047.11 457.427 2119.97 458.565 2193.91C459.162 2232.7 466.867 2265.87 467.02 2266.58C479.669 2325.4 505.99 2380.67 543.255 2429.93C562.527 2455.4 583.894 2476.46 587.718 2480.23C629.382 2521.3 679.581 2556.43 736.135 2583.67C757.445 2593.93 779.132 2602.06 782.939 2603.49C826.9 2619.98 861.318 2627.19 871.87 2629.41C924.63 2640.48 965.302 2642.11 975.976 2642.56C1032.45 2644.95 1074.42 2639.69 1089.89 2637.65C1141.28 2630.88 1177.67 2619.97 1190.38 2616.1C1252.01 2597.36 1311.19 2569.07 1364.02 2531.14C1384.39 2516.51 1401.72 2501.1 1404.85 2498.32C1488.18 2424.22 1519.04 2348.74 1529.35 2321.06C1557.95 2244.3 1555.64 2178.63 1550.96 2140.33C1547.25 2110.04 1539.34 2083.43 1537.89 2078.59C1505.56 1969.81 1426.64 1874.37 1320.92 1810.63C1290.26 1792.15 1260.74 1779.37 1255.34 1777.03C1144.91 1729.21 1047.47 1728.14 1004.24 1729.5ZM1004.24 1729.5C1004.25 1729.5 1004.26 1729.5 1004.26 1729.5C1004.27 1729.5 1004.24 1729.51 1004.24 1729.5ZM1004.24 1729.5C1004.24 1729.51 1004.21 1729.5 1004.21 1729.5C1004.22 1729.5 1004.23 1729.5 1004.24 1729.5Z" fill="black"/>
<path fill-rule="evenodd" clip-rule="evenodd" d="M1012.21 1060.37C1077.95 1061.42 1269.66 1068.54 1469.83 1187.53C1576.77 1251.1 1677.52 1341.58 1751.5 1459.74C1818.3 1566.41 1862.34 1694.38 1865.13 1838.08C1867.48 1959.08 1839.95 2078.78 1781.77 2190.23C1710.32 2327.12 1612.9 2410.97 1561.32 2450.85C1435.24 2548.36 1310.44 2587.64 1245.85 2604.45C1195.32 2617.61 1083.49 2642.28 940.626 2631.11C909.737 2628.69 833.783 2622.08 739.033 2592.81C708.922 2583.51 645.843 2562.52 571.823 2521.68C414.247 2434.74 329.033 2323.81 293.638 2273.25C178.538 2108.84 163.341 1951.86 160.26 1884.8C153.756 1743.23 188.348 1602.4 264.386 1474.51C374.441 1289.41 564.78 1145.9 798.944 1087.8C896.651 1063.56 975.8 1061 1012.21 1060.37ZM1012.21 1115.78C949.278 1114.92 830.697 1119.05 694.236 1169.66C505.602 1239.62 356.762 1370.21 269.986 1527.17C219.37 1618.72 175.152 1746.98 182.688 1902.29C186.083 1972.24 200.452 2027.95 203.38 2039.47C241.159 2188.15 318.303 2288.14 354.234 2330.81C476.846 2476.38 621.022 2540.41 672.048 2561.5C743.947 2591.2 804.094 2604.87 839.423 2611.73C910.436 2625.51 967.548 2627.78 1001.38 2628.14C1058.8 2628.73 1130.83 2624.29 1212.83 2605.52C1276.68 2590.91 1426 2549.81 1570.63 2429.39C1604.17 2401.47 1630.67 2373.8 1635.58 2368.67C1753.73 2245.32 1796.88 2121.31 1812.84 2067.9C1845.58 1958.34 1844.96 1863.52 1839.16 1801.25C1833.7 1742.61 1820.57 1694.69 1819.3 1689.88C1768.18 1495.85 1636.45 1334.99 1466.39 1234.58C1401.05 1196 1329.41 1165.75 1253.28 1145.42C1144.84 1116.46 1055.53 1115.25 1012.21 1115.78Z" fill="black"/>
<path fill-rule="evenodd" clip-rule="evenodd" d="M1014.12 291.887C1095.77 292.941 1311.97 302.866 1544 458.615C1620.26 509.803 1799.33 643.687 1929.07 904.184C2044.77 1136.51 2061.78 1350.43 2065.03 1453.39C2072.22 1682.81 2021.12 1856.9 1988.54 1948.55C1911.4 2165.43 1797.33 2303.08 1736.52 2368.91C1579.72 2538.66 1418.34 2609.39 1339.61 2638.69C1270.98 2664.24 1115.26 2713.8 914.13 2691.77C866.014 2686.47 763.966 2672.53 640.589 2618.9C596.119 2599.58 518.038 2561.88 429.11 2493.8C240.135 2349.12 142.235 2172.96 102.067 2093.29C-16.0281 1859.05 -33.2609 1642.2 -36.4563 1538.19C-42.4293 1343.72 -7.70694 1149.99 69.1091 970.244C196.151 672.972 428.996 441.493 717.09 342.94C851.507 296.957 962.066 292.607 1014.12 291.887ZM1014.13 348.781C1013.6 348.784 1013.05 348.784 1012.49 348.778C911.154 347.767 704.577 362.558 485.316 512.504C297.76 640.766 158.602 828.972 76.751 1035.37C4.62421 1217.23 -8.97434 1377.88 -12.6109 1454.33C-25.3786 1722.88 42.8853 1957.57 139.142 2134.61C277.805 2389.64 461.272 2511.31 527.58 2552.01C630.753 2615.34 720.416 2644.58 772.397 2658.85C867.919 2685.07 946.842 2690.25 995.728 2691.19C1088.12 2692.95 1182.4 2681.02 1277.52 2652.26C1352.21 2629.68 1537.26 2564.65 1714.84 2376.01C1772.47 2314.79 1904.63 2161.17 1982.77 1911.45C2017.08 1801.81 2028.83 1708.63 2032.37 1679.28C2045.05 1574.08 2042.95 1485.66 2038.96 1426.22C2035.43 1373.55 2028.55 1327.85 2027.26 1319.34C1980.51 1008.47 1827.51 743.306 1619.61 570.561C1447.47 427.537 1237.93 346.783 1015.75 348.781C1015.19 348.784 1014.65 348.784 1014.13 348.781Z" fill="black"/>
<path fill-rule="evenodd" clip-rule="evenodd" d="M1038.3 32.168C1118.91 33.173 1289.81 40.0968 1493.31 110.687C1705.75 184.38 1870.62 298.244 1990.22 409.669C2232.77 635.649 2390.62 945.556 2414.53 1289.56C2422.22 1400.33 2425.26 1624.39 2319.3 1880.94C2281.87 1971.56 2186.61 2178.19 1971.22 2370.06C1895.76 2437.3 1726.25 2575.83 1463.42 2658.07C1387.16 2681.94 1184.35 2740.37 917.892 2717.55C850.165 2711.76 756.103 2699.58 641.936 2666.29C572.943 2646.17 458.598 2607.76 326.271 2530.28C64.0827 2376.77 -75.2211 2179.5 -130.914 2093.35C-252.554 1905.18 -335.297 1672.76 -340.548 1407.87C-344.992 1183.69 -292.664 962.602 -183.972 760.173C-12.0365 439.964 291.521 189.68 667.055 84.7625C835.808 37.6153 973.711 33.0322 1038.3 32.168ZM1037.9 100.299C922.53 99.0814 735.778 111.102 525.375 193.726C192.631 324.397 -68.8241 579.323 -205.348 889.374C-347.033 1211.15 -314.794 1495.75 -297.329 1604.94C-259.687 1840.25 -164.885 2010.31 -106.035 2101.26C-76.4103 2147.04 -46.4794 2185.5 -40.9713 2192.58C148.043 2435.43 370.461 2548.18 457.792 2588.63C575.315 2643.08 674.408 2668.78 728.869 2681.18C849.117 2708.52 946.441 2713.76 998.796 2715.17C1130.18 2718.67 1233.54 2703.35 1295.91 2691.59C1410.52 2669.96 1497.81 2638.55 1550.5 2617.46C1702.41 2556.64 1840.61 2469.84 1959.14 2362.67C2022.16 2305.71 2068.26 2251.56 2073.99 2244.91C2246.62 2044.74 2313.66 1847.43 2340.26 1754.43C2394.82 1563.83 2393.75 1399.48 2384.95 1294.19C2379.22 1226.03 2367.72 1167.83 2367.57 1167C2300.66 812.004 2087.73 513.585 1803.99 325.445C1581.98 178.242 1317.67 97.7621 1040.46 100.283L1038.71 100.299C1038.58 100.302 1038.45 100.306 1038.31 100.306H1038.29C1038.16 100.306 1038.03 100.306 1037.9 100.299Z" fill="black"/>
<path d="M288.866 2616.7C311.475 2627.27 335.609 2627.21 342.773 2616.55C349.936 2605.9 337.415 2588.68 314.807 2578.11C292.199 2567.53 268.064 2567.59 260.901 2578.25C253.738 2588.91 266.258 2606.12 288.866 2616.7Z" fill="black"/>
<path d="M14.9717 2476.62C37.2588 2486.43 60.7547 2485.8 67.4511 2475.21C74.1475 2464.63 61.5087 2448.09 39.2216 2438.28C16.9345 2428.47 -6.56133 2429.1 -13.2578 2439.69C-19.9542 2450.27 -7.31545 2466.81 14.9717 2476.62Z" fill="black"/>
<path d="M2.76211 2319.75C13.2641 2329.44 27.1039 2333.28 33.674 2328.33C40.2441 2323.37 37.0567 2311.5 26.5547 2301.81C16.0526 2292.11 2.21293 2288.27 -4.3572 2293.23C-10.9273 2298.18 -7.73992 2310.06 2.76211 2319.75Z" fill="black"/>
<path d="M162.812 2666.09C175.758 2671.17 189.024 2670.38 192.441 2664.32C195.859 2658.26 188.134 2649.22 175.188 2644.14C162.241 2639.06 148.976 2639.86 145.558 2645.92C142.14 2651.98 149.865 2661.01 162.812 2666.09Z" fill="black"/>
<path d="M115.781 2577.48C132.967 2584.23 150.604 2583.12 155.174 2575.02C159.744 2566.91 149.516 2554.88 132.329 2548.13C115.143 2541.39 97.5064 2542.49 92.9367 2550.6C88.3669 2558.7 98.5946 2570.74 115.781 2577.48Z" fill="black"/>
<path d="M105.508 2253.63C118.03 2276.78 142.444 2290.18 160.038 2283.56C177.631 2276.93 181.743 2252.8 169.22 2229.65C156.698 2206.49 132.284 2193.1 114.691 2199.72C97.0968 2206.34 92.9854 2230.48 105.508 2253.63Z" fill="black"/>
<path d="M53.1561 1767.33C62.6272 1799.76 86.1063 1823.7 105.598 1820.78C125.09 1817.87 133.214 1789.22 123.743 1756.78C114.272 1724.35 90.7925 1700.42 71.3005 1703.33C51.8086 1706.25 43.685 1734.9 53.1561 1767.33Z" fill="black"/>
<path d="M68.1945 568.637C52.469 585.179 47.9076 608.819 58.0062 621.438C68.1048 634.057 89.0394 630.877 104.765 614.336C120.49 597.794 125.052 574.154 114.953 561.535C104.854 548.915 83.9199 552.095 68.1945 568.637Z" fill="black"/>
<path d="M236.284 504.979C230.377 511.193 229.173 520.708 233.594 526.233C238.015 531.757 246.387 531.199 252.293 524.985C258.2 518.772 259.404 509.257 254.983 503.732C250.562 498.208 242.19 498.766 236.284 504.979Z" fill="black"/>
<path d="M26.0095 1471.61C25.0613 1480.13 29.855 1488.43 36.7166 1490.16C43.5782 1491.89 49.9092 1486.38 50.8574 1477.86C51.8056 1469.34 47.0118 1461.04 40.1503 1459.31C33.2887 1457.58 26.9577 1463.09 26.0095 1471.61Z" fill="black"/>
<path d="M440.498 278.968C434.592 285.181 433.388 294.696 437.809 300.221C442.23 305.745 450.602 305.187 456.508 298.974C462.415 292.76 463.619 283.245 459.198 277.721C454.777 272.196 446.405 272.754 440.498 278.968Z" fill="black"/>
<path d="M-37.2423 2078.48C-27.7713 2110.92 -4.29209 2134.85 15.1998 2131.94C34.6918 2129.02 42.8153 2100.37 33.3442 2067.94C23.8731 2035.5 0.394023 2011.57 -19.0979 2014.49C-38.5898 2017.4 -46.7134 2046.05 -37.2423 2078.48Z" fill="black"/>
<path d="M2171.41 1851.63C2161.94 1884.07 2138.46 1908 2118.96 1905.09C2099.47 1902.17 2091.35 1873.52 2100.82 1841.09C2110.29 1808.65 2133.77 1784.72 2153.26 1787.64C2172.75 1790.55 2180.88 1819.2 2171.41 1851.63Z" fill="black"/>
<path d="M2035.86 754.346C2046.87 773.032 2047.84 794.461 2038.02 802.208C2028.2 809.955 2011.32 801.087 2000.32 782.401C1989.31 763.715 1988.34 742.286 1998.16 734.539C2007.98 726.792 2024.86 735.66 2035.86 754.346Z" fill="black"/>
<path d="M1977.95 563.599C1981.96 570.392 1981.36 578.927 1976.63 582.663C1971.89 586.399 1964.81 583.92 1960.81 577.127C1956.81 570.334 1957.4 561.799 1962.14 558.063C1966.87 554.327 1973.95 556.806 1977.95 563.599Z" fill="black"/>
<path d="M2005.13 237.768C2011.15 245.341 2013.79 253.828 2011.02 256.724C2008.25 259.621 2001.12 255.83 1995.1 248.257C1989.07 240.684 1986.44 232.197 1989.21 229.301C1991.98 226.404 1999.1 230.195 2005.13 237.768Z" fill="black"/>
<path d="M382.08 2513.6C398.842 2526.83 418.624 2532.1 426.265 2525.36C433.906 2518.62 426.513 2502.44 409.751 2489.21C392.99 2475.98 373.208 2470.71 365.567 2477.45C357.926 2484.19 365.319 2500.37 382.08 2513.6Z" fill="black"/>
<path d="M310.3 2425.19C319.223 2430.87 329.039 2432.64 332.224 2429.15C335.409 2425.66 330.757 2418.24 321.833 2412.57C312.91 2406.89 303.094 2405.12 299.909 2408.61C296.724 2412.09 301.376 2419.52 310.3 2425.19Z" fill="black"/>
<path d="M294.996 2471.42C300.271 2475.96 306.921 2477.73 309.849 2475.37C312.777 2473.01 310.874 2467.4 305.599 2462.86C300.323 2458.31 293.673 2456.54 290.745 2458.9C287.817 2461.26 289.72 2466.87 294.996 2471.42Z" fill="black"/>
<path d="M220.565 2395.07C225.385 2400.09 231.837 2402.49 234.976 2400.41C238.115 2398.34 236.752 2392.58 231.931 2387.55C227.111 2382.52 220.659 2380.13 217.52 2382.21C214.381 2384.28 215.744 2390.04 220.565 2395.07Z" fill="black"/>
<path d="M212.714 2330.99C215.25 2335.21 219.417 2337.83 222.022 2336.85C224.628 2335.87 224.684 2331.65 222.149 2327.43C219.614 2323.21 215.447 2320.59 212.841 2321.58C210.236 2322.56 210.179 2326.78 212.714 2330.99Z" fill="black"/>
<path d="M282.871 2361.47C288.146 2366.02 294.796 2367.79 297.724 2365.43C300.652 2363.06 298.749 2357.46 293.474 2352.91C288.198 2348.37 281.548 2346.6 278.62 2348.96C275.692 2351.32 277.595 2356.93 282.871 2361.47Z" fill="black"/>
<path d="M502.105 2482.17C507.38 2486.71 514.03 2488.48 516.958 2486.12C519.886 2483.76 517.983 2478.15 512.708 2473.61C507.433 2469.06 500.783 2467.29 497.855 2469.65C494.927 2472.01 496.83 2477.62 502.105 2482.17Z" fill="black"/>
<path d="M454.311 2439.23C457.864 2442.29 462.133 2443.65 463.845 2442.27C465.558 2440.89 464.065 2437.28 460.512 2434.22C456.959 2431.16 452.69 2429.79 450.978 2431.18C449.265 2432.56 450.758 2436.16 454.311 2439.23Z" fill="black"/>
<path d="M411.253 2423.47C413.642 2425.53 416.755 2426.25 418.205 2425.08C419.655 2423.91 418.893 2421.29 416.503 2419.23C414.113 2417.17 411 2416.45 409.551 2417.62C408.101 2418.79 408.863 2421.41 411.253 2423.47Z" fill="black"/>
<path d="M413.081 2547.95C415.471 2550.01 418.583 2550.74 420.033 2549.56C421.483 2548.39 420.721 2545.78 418.331 2543.71C415.941 2541.65 412.829 2540.93 411.379 2542.1C409.929 2543.27 410.691 2545.89 413.081 2547.95Z" fill="black"/>
<path d="M277.228 2531.8C279.986 2533.51 283.197 2533.8 284.401 2532.45C285.605 2531.1 284.345 2528.62 281.587 2526.91C278.829 2525.2 275.618 2524.9 274.414 2526.25C273.21 2527.6 274.47 2530.09 277.228 2531.8Z" fill="black"/>
<path d="M4.38107 2655.18C13.1506 2658.95 22.5074 2658.37 25.28 2653.88C28.0527 2649.4 23.1912 2642.7 14.4216 2638.93C5.65209 2635.16 -3.70468 2635.74 -6.47731 2640.22C-9.24993 2644.71 -4.38847 2651.4 4.38107 2655.18Z" fill="black"/>
<path d="M253.619 2690.54C258.673 2692.72 264.007 2692.47 265.534 2690C267.06 2687.53 264.201 2683.77 259.147 2681.6C254.093 2679.42 248.759 2679.66 247.232 2682.13C245.705 2684.6 248.565 2688.37 253.619 2690.54Z" fill="black"/>
<path d="M2175.85 2178.79C2156.94 2212.46 2161.55 2247.54 2186.13 2257.15C2210.72 2266.75 2245.97 2247.25 2264.87 2213.58C2283.78 2179.91 2279.17 2144.83 2254.59 2135.23C2230 2125.62 2194.75 2145.12 2175.85 2178.79Z" fill="black"/>
<path d="M1988.37 2353.82C1978.37 2366.37 1976.71 2380.11 1984.66 2384.52C1992.61 2388.93 2007.16 2382.34 2017.16 2369.79C2027.16 2357.25 2028.83 2343.5 2020.88 2339.09C2012.93 2334.68 1998.38 2341.28 1988.37 2353.82Z" fill="black"/>
<path d="M1799.17 2527.25C1794.76 2542.72 1807.68 2558.53 1828.02 2562.56C1848.36 2566.6 1868.43 2557.32 1872.83 2541.85C1877.24 2526.38 1864.32 2510.57 1843.98 2506.53C1823.64 2502.5 1803.58 2511.78 1799.17 2527.25Z" fill="black"/>
<path d="M1761.16 2420.08C1768.27 2434.52 1790.55 2436.33 1810.92 2424.13C1831.28 2411.93 1842.03 2390.34 1834.92 2375.91C1827.81 2361.48 1805.54 2359.67 1785.17 2371.87C1764.8 2384.07 1754.05 2405.65 1761.16 2420.08Z" fill="black"/>
<path d="M1952.4 2299.74C1960.38 2311.27 1979.83 2309.95 1995.85 2296.81C2011.86 2283.67 2018.37 2263.67 2010.4 2252.14C2002.42 2240.62 1982.97 2241.93 1966.95 2255.07C1950.94 2268.22 1944.43 2288.21 1952.4 2299.74Z" fill="black"/>
<path d="M1644.94 2373.11C1640.82 2382.35 1643.83 2391.81 1651.67 2394.25C1659.5 2396.68 1669.2 2391.16 1673.32 2381.92C1677.45 2372.68 1674.44 2363.22 1666.6 2360.78C1658.77 2358.35 1649.07 2363.87 1644.94 2373.11Z" fill="black"/>
<path d="M1529.5 2402.52C1525.38 2411.76 1528.39 2421.23 1536.22 2423.66C1544.06 2426.1 1553.76 2420.58 1557.88 2411.34C1562.01 2402.1 1559 2392.63 1551.16 2390.2C1543.32 2387.77 1533.63 2393.28 1529.5 2402.52Z" fill="black"/>
<path d="M1540.13 2358.2C1538.26 2362.39 1539.94 2366.78 1543.88 2368C1547.82 2369.22 1552.54 2366.82 1554.4 2362.64C1556.27 2358.45 1554.59 2354.06 1550.65 2352.84C1546.71 2351.61 1542 2354.01 1540.13 2358.2Z" fill="black"/>
<path d="M1616.17 2408.63C1613.38 2412.46 1613.59 2416.82 1616.65 2418.37C1619.71 2419.93 1624.45 2418.09 1627.24 2414.26C1630.04 2410.44 1629.82 2406.08 1626.76 2404.53C1623.71 2402.97 1618.96 2404.81 1616.17 2408.63Z" fill="black"/>
<path d="M1873.6 2322.68C1871.56 2327.09 1873.34 2331.77 1877.59 2333.15C1881.84 2334.52 1886.94 2332.06 1888.98 2327.65C1891.03 2323.24 1889.24 2318.56 1885 2317.19C1880.75 2315.82 1875.65 2318.28 1873.6 2322.68Z" fill="black"/>
<path d="M1656.43 2517.2C1654.39 2521.6 1656.17 2526.29 1660.42 2527.66C1664.66 2529.03 1669.76 2526.57 1671.81 2522.16C1673.85 2517.76 1672.07 2513.07 1667.82 2511.7C1663.58 2510.33 1658.48 2512.79 1656.43 2517.2Z" fill="black"/>
<path d="M1676.65 2465.96C1672.79 2471.81 1673.04 2478.11 1677.2 2480.02C1681.36 2481.93 1687.87 2478.73 1691.73 2472.88C1695.58 2467.03 1695.34 2460.74 1691.17 2458.83C1687.01 2456.92 1680.51 2460.11 1676.65 2465.96Z" fill="black"/>
<path d="M1571.35 2528.35C1557.1 2540.47 1552.45 2556.26 1560.97 2563.63C1569.48 2571.01 1587.94 2567.17 1602.19 2555.05C1616.44 2542.94 1621.09 2527.14 1612.57 2519.77C1604.06 2512.4 1585.6 2516.24 1571.35 2528.35Z" fill="black"/>
<path d="M1339.2 2601.28C1329.07 2609.89 1326.13 2621.43 1332.63 2627.07C1339.14 2632.7 1352.62 2630.28 1362.75 2621.67C1372.87 2613.07 1375.81 2601.52 1369.31 2595.89C1362.8 2590.26 1349.32 2592.68 1339.2 2601.28Z" fill="#810306"/>
<path d="M524.72 2614.34C537.29 2625.02 540.264 2639.93 531.363 2647.63C522.463 2655.34 505.058 2652.93 492.489 2642.24C479.92 2631.56 476.946 2616.65 485.846 2608.95C494.747 2601.24 512.151 2603.65 524.72 2614.34Z" fill="#810306"/>
<path d="M686.909 2636.22C695.331 2643.38 699.574 2651.42 696.386 2654.18C693.198 2656.94 683.786 2653.37 675.363 2646.21C666.941 2639.05 662.698 2631.01 665.886 2628.25C669.074 2625.49 678.486 2629.06 686.909 2636.22Z" fill="#810306"/>
<path d="M793.842 2540.17C797.571 2545.75 796.538 2552.16 791.533 2554.5C786.529 2556.83 779.448 2554.2 775.718 2548.63C771.988 2543.05 773.022 2536.63 778.027 2534.3C783.031 2531.96 790.112 2534.59 793.842 2540.17Z" fill="#810306"/>
<path d="M695.257 2509.05C698.512 2513.92 698.918 2518.9 696.164 2520.19C693.411 2521.47 688.541 2518.57 685.287 2513.7C682.033 2508.84 681.626 2503.85 684.38 2502.56C687.133 2501.28 692.003 2504.18 695.257 2509.05Z" fill="#810306"/>
<path d="M630.543 2565.31C634.967 2569.15 636.676 2573.85 634.36 2575.82C632.044 2577.78 626.58 2576.27 622.155 2572.43C617.731 2568.6 616.022 2563.9 618.338 2561.93C620.654 2559.96 626.119 2561.48 630.543 2565.31Z" fill="#810306"/>
<path d="M1463.48 2646.62C1455.52 2650.64 1451.64 2657.51 1454.82 2661.95C1458 2666.4 1467.03 2666.74 1474.99 2662.72C1482.95 2658.69 1486.83 2651.83 1483.65 2647.38C1480.47 2642.93 1471.44 2642.59 1463.48 2646.62Z" fill="#810306"/>
<path d="M1401.69 2526.84C1396.74 2530.79 1394.77 2535.89 1397.31 2538.23C1399.84 2540.57 1405.91 2539.26 1410.87 2535.3C1415.83 2531.35 1417.79 2526.25 1415.25 2523.91C1412.72 2521.58 1406.65 2522.89 1401.69 2526.84Z" fill="#810306"/>
<path d="M1756.72 2562.35C1750.38 2568.28 1749.18 2576.01 1754.04 2579.63C1758.9 2583.25 1767.98 2581.37 1774.32 2575.45C1780.66 2569.52 1781.86 2561.78 1777 2558.16C1772.14 2554.54 1763.06 2556.42 1756.72 2562.35Z" fill="black"/>
<path d="M1950.5 2525.11C1944.16 2531.04 1942.96 2538.77 1947.82 2542.39C1952.68 2546.01 1961.76 2544.13 1968.1 2538.2C1974.44 2532.28 1975.64 2524.54 1970.78 2520.92C1965.92 2517.3 1956.84 2519.18 1950.5 2525.11Z" fill="black"/>
<path d="M1897.48 2556.54C1892.31 2559.71 1890.12 2564.56 1892.6 2567.37C1895.07 2570.18 1901.27 2569.89 1906.44 2566.72C1911.61 2563.55 1913.8 2558.71 1911.33 2555.9C1908.85 2553.08 1902.65 2553.37 1897.48 2556.54Z" fill="black"/>
<path d="M1829.1 2464.02C1825.07 2468.19 1824.44 2473.34 1827.69 2475.53C1830.95 2477.72 1836.85 2476.12 1840.88 2471.95C1844.91 2467.78 1845.53 2462.63 1842.28 2460.44C1839.03 2458.25 1833.13 2459.86 1829.1 2464.02Z" fill="black"/>
<path d="M1735.36 2455.27C1730.89 2459.89 1730.26 2465.65 1733.94 2468.13C1737.63 2470.61 1744.24 2468.87 1748.71 2464.25C1753.18 2459.63 1753.82 2453.87 1750.13 2451.39C1746.44 2448.91 1739.83 2450.65 1735.36 2455.27Z" fill="black"/>
<path d="M1728.32 2276.82C1726.16 2280.23 1726.64 2283.97 1729.38 2285.18C1732.13 2286.39 1736.1 2284.62 1738.26 2281.21C1740.42 2277.81 1739.94 2274.06 1737.2 2272.85C1734.45 2271.64 1730.48 2273.42 1728.32 2276.82Z" fill="black"/>
<path d="M2074.65 2529.26C2068.31 2535.19 2067.11 2542.93 2071.97 2546.54C2076.83 2550.16 2085.91 2548.29 2092.25 2542.36C2098.59 2536.43 2099.79 2528.69 2094.93 2525.07C2090.07 2521.46 2080.99 2523.33 2074.65 2529.26Z" fill="black"/>
<path d="M1926.8 2654.68C1912.99 2661.42 1904.76 2671.12 1908.42 2676.34C1912.09 2681.56 1926.25 2680.33 1940.06 2673.59C1953.88 2666.85 1962.1 2657.15 1958.44 2651.93C1954.78 2646.71 1940.61 2647.94 1926.8 2654.68Z" fill="black"/>
<path d="M2031.81 2655.71C2019.28 2659.8 2011.13 2667.39 2013.6 2672.66C2016.07 2677.92 2028.23 2678.88 2040.76 2674.79C2053.29 2670.7 2061.44 2663.11 2058.97 2657.85C2056.5 2652.58 2044.34 2651.62 2031.81 2655.71Z" fill="black"/>
<path d="M1665.47 2613.42C1645.11 2622.12 1633.3 2636.82 1639.09 2646.27C1644.89 2655.71 1666.09 2656.31 1686.46 2647.62C1706.82 2638.92 1718.63 2624.21 1712.84 2614.77C1707.04 2605.32 1685.84 2604.72 1665.47 2613.42Z" fill="black"/>
<path d="M2004.72 2580.42C1990.72 2590.91 1984.73 2604.73 1991.35 2611.29C1997.96 2617.84 2014.68 2614.65 2028.68 2604.15C2042.67 2593.66 2048.66 2579.83 2042.04 2573.28C2035.43 2566.72 2018.71 2569.92 2004.72 2580.42Z" fill="black"/>
<path d="M2059.64 2396.52C2042.12 2410.06 2034.38 2427.26 2042.37 2434.95C2050.35 2442.63 2071.03 2437.88 2088.55 2424.35C2106.08 2410.81 2113.81 2393.6 2105.83 2385.92C2097.84 2378.24 2077.16 2382.98 2059.64 2396.52Z" fill="black"/>
</g>
<defs>
<clipPath id="clip0_1998_1023">
<rect width="2160" height="2700" fill="white"/>
</clipPath>
</defs>
</svg>
