<svg width="2160" height="2700" viewBox="0 0 2160 2700" fill="none" xmlns="http://www.w3.org/2000/svg">
<g clip-path="url(#clip0_593_3919)">
<path fill-rule="evenodd" clip-rule="evenodd" d="M2187.27 -11.832V2711.83H-27.2656V-11.832H2187.27ZM2092.21 83.2317H67.7983V2616.77H2092.21V83.2317Z" fill="#D1D1D1"/>
<path fill-rule="evenodd" clip-rule="evenodd" d="M206.676 376.321C164.734 400.076 76.376 417.833 76.376 417.833L131.589 319.88C134.706 333.509 324.189 258.397 359.445 214.288C278.529 232.521 77.7213 239.241 86.778 220.948L131.176 147.274C131.176 147.274 187.706 162.051 211.372 162.399C204.13 153.086 176.091 128.9 176.091 128.9L231.405 88.0703C245.205 117.229 263.403 142.277 287.941 161.403C338.987 159.36 391.137 143.195 442.988 135.997C454.458 134.404 471.783 207.45 462.915 214.822C462.915 214.822 393.809 265.784 305.38 311.86C336.15 342.887 364.399 359.408 391.982 372.039L399.226 450.946C361.682 439.85 306.892 385.793 272.205 351.74L288.861 638.008L211.049 588.247L206.676 376.321ZM498.195 143.115L597.414 113.753C597.414 113.753 507.181 361.953 500.529 480.165C497.879 527.25 503.457 561.515 503.457 561.515L619.371 547.939L603.66 470.636L681.278 393.438L692.301 598.038C694.173 611.283 685.463 623.733 672.274 626.665C672.274 626.665 439.897 667.106 413.637 622.152C404.07 605.777 416.824 532.451 419.931 477.24C426.71 356.765 498.195 143.115 498.195 143.115Z" fill="black" stroke="black" stroke-width="11.9963" stroke-miterlimit="2" stroke-linejoin="round"/>
<path fill-rule="evenodd" clip-rule="evenodd" d="M190.071 340.344C148.219 363.403 48.6646 386.283 48.6646 386.283L103.759 291.199C106.87 304.43 295.946 231.518 331.126 188.7C250.384 206.4 50.007 212.922 59.0442 195.166L103.347 123.649C103.347 123.649 159.756 137.993 183.371 138.331C176.144 129.291 148.166 105.813 148.166 105.813L203.36 66.1797C217.131 94.4841 235.29 118.799 259.775 137.365C310.712 135.381 326.328 116.986 378.068 109.999C389.514 108.454 443.223 182.063 434.374 189.219C434.374 189.219 365.416 238.688 277.177 283.415C307.881 313.533 336.07 329.57 363.593 341.83L370.821 418.426C333.358 407.655 290.15 388.587 255.539 355.532L260.694 600.01L183.049 551.706L190.071 340.344ZM469.578 119.612L568.584 91.1101C568.584 91.1101 478.545 332.04 471.907 446.79C469.263 492.495 474.828 525.757 474.828 525.757L590.494 512.578L574.817 437.54L652.268 362.603L663.267 561.21C665.135 574.067 656.444 586.153 643.283 588.999C643.283 588.999 411.405 628.255 385.201 584.617C375.655 568.722 388.382 497.544 391.482 443.95C398.247 327.004 469.578 119.612 469.578 119.612Z" fill="#EFE313"/>
<path fill-rule="evenodd" clip-rule="evenodd" d="M110.111 272.235C121.953 268.578 192.645 246.39 240.429 223.225C242.439 222.25 244.436 221.272 246.419 220.294C180.706 225.979 106.63 227.451 73.3619 222.82C58.4387 220.744 49.0874 215.862 45.4737 212.253C37.5467 204.336 36.4137 195.537 41.2194 186.094C41.4724 185.597 41.7471 185.109 42.0415 184.633L86.3456 113.117C90.9409 105.698 99.8175 102.116 108.276 104.267C108.276 104.267 116.797 106.472 128.444 109.136C128.219 107.801 128.128 106.437 128.179 105.059C128.413 98.8878 131.483 93.1694 136.5 89.568L191.694 49.9347C196.483 46.4949 202.547 45.3447 208.262 46.7902C213.978 48.2348 218.765 52.1285 221.345 57.4298C232.629 80.6254 247.092 100.918 266.248 116.957C285.285 115.457 298.676 111.238 312.152 106.633C329.952 100.551 347.882 93.8947 375.39 90.1796C380.19 89.5311 388.549 90.6584 397.45 97.6707C408.54 106.409 426.604 128.598 439.199 148.115C446.119 126.369 450.666 113.108 450.666 113.108C452.786 106.942 457.779 102.197 464.045 100.393L563.052 71.8903C570.312 69.8002 578.13 71.98 583.263 77.5248C588.395 83.0706 589.964 91.0335 587.319 98.1116C587.319 98.1116 498.404 335.052 491.873 447.944C490.554 470.757 491.38 490.285 492.452 503.62L566.43 495.191L555.24 441.63C553.835 434.91 555.976 427.94 560.91 423.166L638.36 348.229C643.987 342.786 652.272 341.125 659.561 343.98C666.851 346.835 671.804 353.68 672.237 361.497C672.237 361.497 683.194 559.347 683.192 559.333C685.975 582.073 670.825 603.505 647.51 608.547C647.216 608.611 646.92 608.668 646.621 608.719C646.621 608.719 530.481 628.29 451.615 624.789C429.355 623.8 409.84 620.875 395.853 615.725C382.405 610.774 373.142 603.386 368.054 594.914C364.04 588.229 361.369 574.783 361.767 556.908C362.434 526.967 369.331 480.545 371.516 442.795C371.599 441.345 371.693 439.88 371.796 438.403C369.63 438.509 367.434 438.263 365.294 437.648C336.913 429.488 305.509 416.798 276.428 397.557L280.689 599.589C280.843 606.925 276.968 613.758 270.59 617.389C264.213 621.022 256.36 620.869 250.128 616.992L172.483 568.688C166.415 564.913 162.822 558.185 163.06 551.042L169.022 371.567C120.278 390.16 53.1437 405.775 53.1437 405.775C45.3815 407.559 37.301 404.568 32.5719 398.159C27.8429 391.751 27.366 383.148 31.3591 376.256L86.4544 281.172C90.5636 274.081 98.5829 270.215 106.69 271.416C107.866 271.59 109.009 271.866 110.111 272.235ZM190.071 340.344L183.049 551.706L260.694 600.01L255.539 355.532C290.15 388.587 333.358 407.655 370.821 418.426L363.593 341.83C336.069 329.57 307.881 313.533 277.177 283.415C365.416 238.688 434.374 189.219 434.374 189.219C443.223 182.063 389.513 108.454 378.068 109.999C326.328 116.987 310.712 135.382 259.775 137.365C235.29 118.799 217.131 94.4843 203.36 66.1799L148.165 105.813C148.165 105.813 176.144 129.291 183.371 138.332C159.756 137.993 103.347 123.65 103.347 123.65L59.0441 195.166C50.0069 212.922 250.383 206.4 331.126 188.7C295.946 231.518 106.87 304.43 103.759 291.199L48.6644 386.283C48.6644 386.283 148.219 363.403 190.071 340.344ZM384.606 351.628C393.203 309.243 404.731 264.844 415.749 226.001C391.671 241.768 354.976 264.684 312.074 287.749C332.799 304.398 352.444 314.97 371.731 323.562C378.326 326.5 382.825 332.764 383.504 339.952L384.606 351.628ZM469.578 119.612C469.578 119.612 398.247 327.004 391.482 443.951C388.381 497.544 375.655 568.722 385.201 584.618C411.405 628.255 643.283 588.999 643.283 588.999C656.444 586.153 665.135 574.067 663.267 561.21L652.268 362.603L574.816 437.54L590.494 512.579L474.828 525.757C474.828 525.757 469.263 492.496 471.907 446.79C478.544 332.04 568.584 91.1103 568.584 91.1103L469.578 119.612Z" fill="#FF050B"/>
</g>
<defs>
<clipPath id="clip0_593_3919">
<rect width="2160" height="2700" fill="white"/>
</clipPath>
</defs>
</svg>
