<svg width="2160" height="2700" viewBox="0 0 2160 2700" fill="none" xmlns="http://www.w3.org/2000/svg">
<g clip-path="url(#clip0_600_628)">
<path fill-rule="evenodd" clip-rule="evenodd" d="M2187.27 -11.832V2711.83H-27.2656V-11.832H2187.27ZM2092.21 83.2317H67.7983V2616.77H2092.21V83.2317Z" fill="#D1D1D1"/>
<path fill-rule="evenodd" clip-rule="evenodd" d="M108.149 354.543L86.9922 151.947L326.542 149.887L324.104 108.974L394.339 77.2812L386.644 149.072L545.461 148.94L616.268 134.18L605.042 303.145C604.62 321.09 588.846 335.484 569.409 335.662L387.544 337.318L396.548 440.387L332.202 397.635L329.917 337.843L173.128 339.271L108.149 354.543ZM329.337 216.589L181.58 223.993C182.435 243.981 185.34 260.021 186.363 277.181L331.758 273.185L329.337 216.589ZM535.157 212.914L386.961 215.56L387.226 270.837L532.633 269.203L535.157 212.914Z" fill="black"/>
<path fill-rule="evenodd" clip-rule="evenodd" d="M46.4717 464.136C78.7895 448.071 98.3418 448.099 102.479 388.502L156.183 358.785C155.738 373.009 158.459 406.025 149.99 435.833C133.916 492.41 95.1261 541.94 46.6735 567.109L46.4717 464.136Z" fill="black"/>
<path fill-rule="evenodd" clip-rule="evenodd" d="M169.626 555.567C151.25 502.414 196.375 360.434 196.375 360.434L267.752 440.602C267.752 440.602 236.436 485.393 250.405 525.803C256.974 544.805 271.704 566.828 296.189 569.556C339.53 574.384 516.527 582.53 544.66 568.242C555.737 562.616 485.086 536.74 485.086 536.74L455.487 410.161C455.487 410.161 643.792 521.138 666.228 553.838C672.863 563.508 664.079 606.044 658.155 617.098C652.23 628.152 644.428 653.931 631.077 654.246C631.077 654.246 345.926 669.519 278.86 662.048C222.94 655.819 184.627 598.966 169.626 555.567Z" fill="black"/>
<path fill-rule="evenodd" clip-rule="evenodd" d="M301.558 481.541L281.655 453.844L341.642 417.086L361.544 444.783C377.728 467.306 411.761 489.364 437.333 505.11L467.281 523.552L397.393 560.421C364.583 540.218 322.323 510.439 301.558 481.541Z" fill="black"/>
<path fill-rule="evenodd" clip-rule="evenodd" d="M531.557 428.402L483.071 361.101L557.529 358.051L582.808 381.716C606.319 403.725 633.311 420.735 668.188 426.236L703.671 431.832L691.55 497.364L656.068 491.768C605.498 483.791 565.645 460.314 531.557 428.402Z" fill="black"/>
<path fill-rule="evenodd" clip-rule="evenodd" d="M108.063 318.503L88.2117 117.392L312.61 117.653L310.692 74.7337L376.593 43.2734L369.373 114.538L518.391 114.407L584.828 99.7555L574.296 267.482C573.899 285.296 559.099 299.585 540.861 299.761L370.218 301.405L378.666 403.719L318.29 361.28L316.146 301.926L169.033 303.343L108.063 318.503ZM313.761 170.644L163.89 173.907C164.693 193.748 180.052 238.987 181.012 256.021L315.665 251.108L313.761 170.644ZM518.242 167.954L372.946 171.02L368.368 251.431L501.805 247.947L518.242 167.954ZM50.1919 427.295C80.5153 411.347 98.8608 411.375 102.743 352.215L153.133 322.716C152.716 336.835 155.27 369.61 147.323 399.2C132.24 455.362 95.8434 504.529 50.3812 529.514L50.1919 427.295ZM165.747 518.055C148.506 465.291 190.846 324.35 190.846 324.35L257.818 403.932C257.818 403.932 219.051 454.378 232.158 494.491C238.321 513.354 255.254 557.698 278.226 560.406C318.893 565.198 525.236 575.35 545.616 543.524C558.03 524.136 466.535 493.119 466.535 493.119L433.97 373.714C433.97 373.714 610.656 483.878 631.707 516.339C637.932 525.937 629.69 568.162 624.132 579.135C618.573 590.108 611.253 615.698 598.725 616.011C598.725 616.011 331.169 631.173 268.241 623.756C215.771 617.572 179.824 561.136 165.747 518.055ZM289.538 444.572L270.864 417.078L320.699 387.983L339.516 416.092C354.702 438.45 437.25 490.038 437.25 490.038L379.46 522.875C348.675 502.82 309.022 473.258 289.538 444.572ZM505.345 391.823L459.852 325.015L529.717 321.987L553.435 345.478C575.495 367.326 600.822 384.212 633.547 389.672L666.84 395.228L655.466 460.28L622.174 454.724C574.725 446.807 537.331 423.501 505.345 391.823Z" fill="#EFE313"/>
<path fill-rule="evenodd" clip-rule="evenodd" d="M94.9489 333.603C91.1105 330.269 88.6649 325.577 88.1603 320.467L68.3081 119.357C67.7534 113.734 69.6026 108.138 73.3992 103.954C77.1957 99.769 82.585 97.3854 88.2348 97.3918L291.696 97.6287L290.713 75.6261C290.355 67.6035 294.829 60.1445 302.077 56.6851L367.978 25.2248C374.499 22.1111 382.193 22.7587 388.104 26.9168C394.013 31.0758 397.221 38.0994 396.492 45.2896L391.504 94.5191L516.202 94.4086L580.521 80.2245C586.655 78.8718 593.068 80.479 597.839 84.5651C602.609 88.6504 605.183 94.74 604.789 101.009C604.789 101.009 594.278 268.381 594.279 268.35C593.558 292.222 576.808 312.218 554.158 318.045L567.509 331.267C586.651 350.225 608.444 365.207 636.839 369.945L670.132 375.501C675.39 376.378 680.08 379.319 683.162 383.669C686.243 388.02 687.459 393.42 686.541 398.672L675.168 463.724C673.276 474.545 663.01 481.815 652.175 480.007L618.882 474.451C617.928 474.292 616.976 474.127 616.029 473.957C631.947 486.894 643.721 498.106 648.488 505.456C651.771 510.52 654.333 520.484 653.852 532.839C653.1 552.145 646.554 579.13 641.973 588.173C637.598 596.809 631.82 613.278 624.175 622.635C617.184 631.193 608.588 635.66 599.618 635.993C590.597 636.494 328.392 650.984 265.9 643.619C205.796 636.534 162.86 573.616 146.736 524.267C141.729 508.942 140.74 487.047 142.552 462.955C122.048 499 93.1563 528.827 60.0136 547.042C53.8231 550.443 46.298 550.327 40.2148 546.737C34.1315 543.147 30.394 536.614 30.3809 529.551L30.1924 427.332C30.1785 419.89 34.297 413.057 40.8825 409.594C48.2118 405.739 54.8439 402.809 60.7485 399.761C66.2402 396.927 71.0077 394.285 74.3921 388.927C79.2013 381.313 81.5461 369.804 82.7865 350.906C83.2216 344.283 86.9125 338.308 92.6393 334.955L94.9489 333.603ZM450.476 505.041C449.457 505.939 448.338 506.74 447.131 507.427L389.341 540.264C382.836 543.96 374.812 543.717 368.543 539.633C335.726 518.254 293.764 486.389 272.994 455.81L260.606 437.571C258.392 441.98 256.211 446.87 254.35 452.048C250.253 463.45 247.303 476.447 251.169 488.279C254.459 498.348 261.061 516.64 270.34 530.134C272.293 532.974 274.351 535.579 276.577 537.694C277.91 538.962 279.021 540.361 280.568 540.543C308.42 543.826 415.698 549.693 484.398 542.228C496.729 540.889 507.73 539.146 516.591 536.786C515.521 536.102 514.458 535.46 513.446 534.899C491.153 522.541 460.114 512.06 460.114 512.06C456.207 510.736 452.867 508.261 450.476 505.041ZM108.063 318.503L169.033 303.343L316.146 301.926L318.291 361.28L378.666 403.719L370.218 301.405L540.861 299.761C559.099 299.585 573.899 285.296 574.296 267.482L584.828 99.7554L518.391 114.407L369.373 114.538L376.594 43.2733L310.693 74.7336L312.61 117.653L88.2119 117.392L108.063 318.503ZM313.762 170.644L315.665 251.108L181.013 256.021C180.052 238.987 164.693 193.748 163.89 173.907L313.762 170.644ZM294.24 191.074L187.094 193.406C190.056 206.807 194.422 222.477 197.474 235.407L295.203 231.841L294.24 191.074ZM518.242 167.954L501.805 247.947L368.368 251.431L372.946 171.02L518.242 167.954ZM493.607 188.478L391.863 190.625L389.571 230.871L485.41 228.368L493.607 188.478ZM50.192 427.295L50.3813 529.513C95.8435 504.529 132.24 455.362 147.323 399.199C155.27 369.61 152.716 336.835 153.133 322.716L102.744 352.215C98.861 411.375 80.5155 411.347 50.192 427.295ZM165.747 518.055C179.824 561.136 215.771 617.572 268.241 623.756C331.169 631.172 598.725 616.011 598.725 616.011C611.253 615.698 618.573 590.108 624.132 579.135C629.69 568.162 637.932 525.937 631.707 516.339C610.656 483.878 433.97 373.713 433.97 373.713L466.535 493.119C466.535 493.119 558.03 524.136 545.616 543.524C525.236 575.35 318.894 565.198 278.227 560.405C255.254 557.698 238.322 513.354 232.158 494.491C219.051 454.378 257.818 403.932 257.818 403.932L190.846 324.35C190.846 324.35 148.506 465.291 165.747 518.055ZM289.538 444.572C309.022 473.258 348.675 502.82 379.46 522.875L437.25 490.038C437.25 490.038 354.702 438.449 339.516 416.091L320.699 387.982L270.864 417.078L289.538 444.572ZM505.345 391.823C537.331 423.501 574.725 446.807 622.174 454.724L655.467 460.28L666.84 395.228L633.547 389.672C600.822 384.212 575.495 367.326 553.435 345.478L529.717 321.987L459.852 325.015L505.345 391.823ZM273.954 392.114L303.573 374.823C300.375 371.347 298.477 366.813 298.303 362.002L296.862 322.112L215.76 322.894L273.121 391.054C273.412 391.4 273.689 391.754 273.954 392.114ZM466.887 370.879L443.32 336.271C440.185 331.666 439.153 326.034 440.315 320.73L391.92 321.197L398.599 402.073C399.238 409.808 395.344 417.214 388.608 421.072C384.813 423.247 380.501 424.073 376.323 423.581C377.388 424.417 378.472 425.261 379.572 426.113C399.828 441.804 425.392 458.672 438.759 467.288L414.675 378.976C412.509 371.037 415.428 362.581 422.03 357.669C428.631 352.756 437.568 352.388 444.552 356.742C444.552 356.742 453.189 362.128 466.887 370.879Z" fill="#E61A1A"/>
</g>
<defs>
<clipPath id="clip0_600_628">
<rect width="2160" height="2700" fill="white"/>
</clipPath>
</defs>
</svg>
