<svg width="2160" height="2700" viewBox="0 0 2160 2700" fill="none" xmlns="http://www.w3.org/2000/svg">
<g clip-path="url(#clip0_605_761)">
<path fill-rule="evenodd" clip-rule="evenodd" d="M2187.27 -11.832V2711.83H-27.2656V-11.832H2187.27ZM2092.21 83.2317H67.7983V2616.77H2092.21V83.2317Z" fill="#D1D1D1"/>
<path fill-rule="evenodd" clip-rule="evenodd" d="M248.518 251.181C206.964 260.56 98.3022 280.557 98.3022 280.557L129.881 228.621C129.881 228.621 203.041 223.715 247.296 213.565C237.979 208.449 173.383 199.352 173.383 199.352L192.769 175.387C181.081 181.058 147.769 194.209 147.769 194.209L88.6791 164.743C88.6791 164.743 168.969 146.179 179.534 138.742C190.075 131.322 204.208 127.575 213.835 110.584L215.94 91.0547L255.787 102.923L247.331 117.848C351.31 139.165 489.015 120.447 589.69 97.8235C599.988 96.186 610.199 100.996 613.957 109.254C617.715 117.511 613.943 126.856 604.994 131.459C541.712 164.014 469.342 190.967 393.882 213.486L545.945 201.653C552.432 201.423 564.871 210.06 568.88 214.372C572.889 218.683 574.194 224.36 572.388 229.624L559.488 267.225L561.247 267.182L562.452 301.965L292.157 308.638L250.414 324.924L248.518 251.181ZM517.121 268.271L525.826 242.897L291.906 251.195L292.005 273.83L517.121 268.271ZM205.411 168.183C205.411 168.183 279.518 184.422 294.312 200.741C298.635 205.712 419.632 176.291 469.345 149.241C349.991 172.545 226.296 151.825 226.296 151.825C221.366 157.156 212.855 162.977 207.321 166.873C206.69 167.317 206.054 167.753 205.411 168.183ZM176.439 349.304L144.019 321.754L208.78 324.888C214.234 330.035 220.987 333.705 229.329 335.563L250.307 340.234L239.24 375.651L218.263 370.979C201.294 367.2 187.531 359.774 176.439 349.304ZM299.848 345.937L272.613 325.917L333.861 323.198C340.777 330.569 355.554 334.126 376.979 336.869L398.428 339.615L391.922 375.829L370.473 373.082C334.375 368.461 311.498 358.357 299.848 345.937ZM498.067 336.347C505.333 328.48 515.073 307.548 515.073 307.548L571.382 313.553C575.698 314.636 529.736 356.467 511.392 365.991C498.3 372.79 461.324 370.704 461.324 370.704C461.324 370.704 490.811 344.203 498.067 336.347ZM223.133 415.999C219.816 427.38 208.863 459.671 184.904 486.603C162.42 511.876 70.1809 533.904 70.1809 533.904L83.4473 473.777C83.4473 473.777 134.58 470.713 149.058 454.439C161.556 440.391 170.018 427.028 175.421 416.983L124.226 418.039L107.679 375.685C307.687 378.42 495.722 389.812 696.297 344.497L721.643 405.719L627.727 407.656C630.739 418.055 636.002 431.81 644.998 445.179C656.13 461.723 708.993 470.263 708.993 470.263L723.642 537.296C723.642 537.296 623.057 492.444 607.026 468.619C592.849 447.55 586.14 423.638 583.094 408.576L223.133 415.999ZM406.734 435.04C450.422 432.643 494.063 428.893 536.55 424.337L529.91 463.327L253.905 465.439L237.405 436.276C275.361 438.16 314.468 438.347 353.906 437.245L346.978 424.885L401.152 413.942L406.734 435.04ZM266.352 501.31L240.92 475.096L551.699 472.609L530.471 499.933L266.352 501.31ZM232.774 542.487L246.786 512.81L547.883 507.588L573.102 540.623L232.774 542.487ZM290.53 555.231L511.337 549.28C519.701 549.108 527.156 553.707 529.504 560.487C529.504 560.487 510.445 623.552 507.058 627.462C503.669 631.372 498.32 633.729 492.584 633.842L311.559 637.389C305.71 637.504 300.143 635.271 296.553 631.372C292.963 627.471 273.197 566.616 273.197 566.616C275.381 560.017 282.415 555.397 290.53 555.231ZM316.684 580.947L335.625 605.737L467.685 603.149L472.166 585.068L316.684 580.947Z" fill="black"/>
<path fill-rule="evenodd" clip-rule="evenodd" d="M229.716 226.38C191.99 235.57 93.3362 255.164 93.3362 255.164L122.007 204.274C122.007 204.274 188.429 199.467 228.607 189.521C220.149 184.508 161.502 175.594 161.502 175.594L179.103 152.111C168.491 157.668 138.247 170.554 138.247 170.554L84.5994 141.682C84.5994 141.682 157.494 123.491 167.086 116.204C176.656 108.933 189.488 105.261 198.228 88.6123L200.139 69.4766L236.317 81.1057L228.639 95.7302C323.042 116.619 448.063 98.2773 539.466 76.1091C548.815 74.5046 558.086 79.2174 561.498 87.3093C564.91 95.4004 561.485 104.557 553.361 109.068C495.907 140.967 430.202 167.378 361.693 189.443L499.75 177.849C505.64 177.623 516.933 186.086 520.572 190.311C524.212 194.536 525.397 200.098 523.757 205.257L512.046 242.101L513.643 242.058L514.737 276.141L269.336 282.68L231.438 298.638L229.716 226.38ZM473.581 243.126L481.484 218.262L269.109 226.393L269.199 248.572L473.581 243.126ZM190.58 145.053C190.58 145.053 257.861 160.965 271.293 176.955C275.218 181.826 385.071 152.997 430.205 126.492C321.844 149.327 209.542 129.024 209.542 129.024C205.065 134.248 197.338 139.951 192.314 143.768C191.741 144.204 191.164 144.631 190.58 145.053ZM164.277 322.528L134.843 295.532L193.639 298.603C198.59 303.646 204.722 307.242 212.296 309.063L231.341 313.64L221.293 348.344L202.248 343.766C186.843 340.063 174.347 332.787 164.277 322.528ZM276.319 319.228L251.593 299.611L307.2 296.947C313.479 304.169 326.894 307.655 346.346 310.343L365.82 313.034L359.913 348.519L340.439 345.827C307.666 341.298 286.896 331.398 276.319 319.228ZM456.281 309.831C462.878 302.122 471.721 281.612 471.721 281.612L522.844 287.496C526.762 288.557 485.034 329.546 468.38 338.879C456.493 345.541 422.923 343.496 422.923 343.496C422.923 343.496 449.694 317.529 456.281 309.831ZM206.67 387.88C203.658 399.032 193.714 430.672 171.961 457.062C151.548 481.827 67.8049 503.411 67.8049 503.411L79.8494 444.495C79.8494 444.495 126.273 441.492 139.417 425.546C150.764 411.781 158.447 398.687 163.352 388.844L116.872 389.879L101.85 348.377C283.436 351.057 454.153 362.22 636.254 317.817L659.266 377.807L573.999 379.704C576.734 389.894 581.512 403.372 589.68 416.472C599.787 432.683 647.781 441.052 647.781 441.052L661.081 506.735C661.081 506.735 569.76 462.786 555.205 439.441C542.334 418.796 536.242 395.365 533.477 380.607L206.67 387.88ZM373.361 406.538C413.025 404.189 452.646 400.515 491.22 396.05L485.192 434.255L234.608 436.324L219.627 407.749C254.087 409.594 289.593 409.778 325.398 408.699L319.109 396.587L368.293 385.864L373.361 406.538ZM245.908 471.474L222.818 445.787L504.974 443.35L485.701 470.124L245.908 471.474ZM215.423 511.822L228.144 482.742L501.509 477.625L524.406 509.995L215.423 511.822ZM267.859 524.309L468.329 518.477C475.923 518.31 482.692 522.816 484.823 529.459C484.823 529.459 467.519 591.255 464.444 595.086C461.368 598.917 456.512 601.227 451.303 601.338L286.951 604.813C281.642 604.926 276.587 602.738 273.328 598.917C270.068 595.095 252.122 535.464 252.122 535.464C254.106 528.999 260.492 524.471 267.859 524.309ZM291.604 549.508L308.801 573.798L428.698 571.262L432.766 553.545L291.604 549.508Z" fill="#EFE313"/>
<path fill-rule="evenodd" clip-rule="evenodd" d="M141.837 329.085L121.323 310.271C115.105 304.568 113.134 295.575 116.399 287.795C119.663 280.014 127.459 275.119 135.885 275.559L194.682 278.63C199.683 278.891 204.404 281.019 207.911 284.592C208.893 285.592 209.974 286.467 211.159 287.213L210.305 251.345C165.348 261.247 97.2318 274.781 97.2318 274.781C89.5691 276.303 81.7218 273.223 77.1389 266.896C72.556 260.569 72.0757 252.153 75.9105 245.347L104.581 194.458C107.874 188.614 113.874 184.81 120.563 184.327C120.563 184.327 120.888 184.303 121.505 184.256L75.1204 159.294C67.8458 155.378 63.7269 147.394 64.7543 139.197C65.7805 131 71.7414 124.277 79.7559 122.277C79.7559 122.277 114.761 113.549 138.987 105.858C146.026 103.624 154.475 100.249 155.667 99.77C158.888 97.3922 162.381 95.2894 165.995 93.0931C170.262 90.5001 174.986 87.7958 178.764 82.2485L180.238 67.4893C180.838 61.4784 184.124 56.0602 189.177 52.7487C194.229 49.4373 200.508 48.5874 206.26 50.4363L242.436 62.0654C248.058 63.8723 252.593 68.0707 254.828 73.5357C255.74 75.7659 256.231 78.1146 256.307 80.4682C344.503 93.4358 453.345 76.4166 534.751 56.6729C535.192 56.5657 535.636 56.4738 536.082 56.3972C554.836 53.1785 573.084 63.3087 579.927 79.5393C587.262 96.9359 580.536 116.856 563.07 126.553C543.142 137.618 522.241 148.039 500.587 157.859C504.664 157.987 509.679 159.145 514.822 161.617C522.93 165.514 532.016 172.953 535.725 177.258C544.01 186.876 546.55 199.572 542.818 211.316L533.574 240.396C533.602 240.734 533.621 241.075 533.632 241.417L534.586 271.125C538.022 273.477 540.376 276.784 541.855 280.818C543.046 284.07 544.631 290.467 540.315 298.453C538.502 301.806 531.316 309.832 522.195 318.961C558.291 314.047 594.668 307.371 631.517 298.387C641.296 296.002 651.324 301.256 654.928 310.655L677.94 370.644C680.27 376.72 679.499 383.55 675.872 388.954C672.245 394.356 666.216 397.657 659.711 397.802L602.76 399.069C603.943 401.34 605.237 403.622 606.651 405.891C607.246 406.844 608.585 407.322 609.869 408.089C613.25 410.111 617.294 411.84 621.427 413.366C635.752 418.657 651.216 421.349 651.216 421.349C659.331 422.764 665.749 429.009 667.383 437.083L680.683 502.766C682.189 510.208 679.353 517.861 673.359 522.522C667.365 527.184 659.249 528.049 652.407 524.756C652.407 524.756 606.314 502.548 573.508 480.985C556.827 470.021 543.571 458.583 538.234 450.022C528.061 433.706 521.615 415.855 517.619 400.965L510.668 401.12L507.142 423.468C513.748 424.188 519.631 428.163 522.733 434.155C526.199 440.847 525.607 448.919 521.206 455.035L515.342 463.181C516.256 464.055 517.093 465.023 517.837 466.076L540.734 498.445C545.039 504.531 545.602 512.505 542.196 519.136C538.789 525.766 531.979 529.951 524.525 529.995L504.813 530.112C504.761 531.707 504.518 533.299 504.083 534.853C504.083 534.853 492.804 575.095 486.693 593.189C484.023 601.095 481.133 606.245 480.039 607.608C473.388 615.891 462.988 621.095 451.726 621.333L287.374 624.809C275.933 625.051 265.135 620.129 258.111 611.897C256.933 610.516 253.904 605.465 251.074 597.686C244.69 580.129 232.97 541.228 232.97 541.228C232.039 538.135 231.874 534.874 232.475 531.722L215.541 531.822C208.77 531.862 202.44 528.474 198.717 522.819C194.995 517.163 194.386 510.008 197.1 503.806L209.821 474.726C211.09 471.825 212.997 469.331 215.337 467.381L207.944 459.158C204.996 455.879 203.279 451.802 202.898 447.585C198.464 455.052 193.321 462.592 187.394 469.783C179.852 478.934 165.65 488.267 148.958 496.101C115.805 511.659 72.7968 522.778 72.7968 522.778C66.1183 524.5 59.0237 522.659 54.0247 517.907C49.0258 513.155 46.8284 506.163 48.2099 499.406L60.2544 440.489C62.0614 431.653 69.5581 425.119 78.559 424.537C78.559 424.537 93.3174 423.582 107.633 419.776C114.054 418.069 120.86 416.616 123.984 412.825C124.856 411.768 125.703 410.715 126.527 409.67L117.318 409.874C108.735 410.065 100.988 404.758 98.0663 396.687L83.0437 355.185C80.8078 349.007 81.7487 342.123 85.5625 336.772C89.3751 331.42 95.5744 328.283 102.145 328.38C115.431 328.576 128.658 328.82 141.837 329.085ZM267.859 524.31C260.492 524.472 254.106 528.999 252.122 535.465C252.122 535.465 270.068 595.096 273.328 598.917C276.586 602.738 281.642 604.926 286.951 604.814L451.303 601.338C456.512 601.227 461.368 598.917 464.444 595.086C467.519 591.255 484.823 529.459 484.823 529.459C482.691 522.816 475.923 518.31 468.329 518.478L267.859 524.31ZM291.604 549.508L432.766 553.546L428.698 571.262L308.801 573.798L291.604 549.508ZM456.281 309.831C449.694 317.529 422.923 343.496 422.923 343.496C422.923 343.496 456.493 345.541 468.38 338.879C485.034 329.546 526.762 288.557 522.844 287.496L471.721 281.612C471.721 281.612 462.878 302.122 456.281 309.831ZM215.423 511.822L524.406 509.995L501.509 477.625L228.144 482.742L215.423 511.822ZM373.361 406.538L368.293 385.865L319.109 396.587L325.398 408.699C289.593 409.778 254.087 409.595 219.627 407.749L234.608 436.325L485.192 434.255L491.22 396.05C452.646 400.515 413.025 404.189 373.361 406.538ZM245.908 471.474L485.701 470.124L504.974 443.351L222.818 445.787L245.908 471.474ZM276.319 319.229C286.896 331.398 307.666 341.298 340.439 345.827L359.913 348.519L365.82 313.034L346.346 310.343C326.894 307.655 313.478 304.17 307.2 296.947L251.593 299.612L276.319 319.229ZM380.743 299.719C381.16 300.186 381.556 300.674 381.93 301.182C385.131 305.532 386.435 310.992 385.549 316.319L383.211 330.358C391.765 330.054 400.319 329.69 408.879 329.257C408.918 329.218 408.958 329.179 408.997 329.14C408.997 329.14 432.103 306.79 439.925 298.142L380.743 299.719ZM164.276 322.528C174.347 332.787 186.842 340.063 202.248 343.767L221.293 348.344L231.341 313.64L212.295 309.063C204.722 307.242 198.59 303.646 193.639 298.603L134.843 295.532L164.276 322.528ZM229.716 226.38L231.438 298.638L269.336 282.68L514.736 276.141L513.642 242.059L512.046 242.101L523.757 205.257C525.397 200.098 524.212 194.536 520.572 190.312C516.933 186.087 505.64 177.623 499.75 177.849L361.693 189.443C430.202 167.378 495.907 140.967 553.361 109.068C561.485 104.558 564.91 95.4007 561.498 87.3096C558.086 79.2176 548.815 74.5049 539.466 76.1094C448.063 98.2775 323.042 116.619 228.639 95.7305L236.317 81.106L200.139 69.4768L198.228 88.6125C189.487 105.262 176.656 108.933 167.086 116.204C157.494 123.491 84.5994 141.682 84.5994 141.682L138.247 170.554C138.247 170.554 168.491 157.668 179.103 152.111L161.502 175.594C161.502 175.594 220.149 184.508 228.607 189.521C188.429 199.467 122.007 204.274 122.007 204.274L93.3361 255.164C93.3361 255.164 191.99 235.57 229.716 226.38ZM473.581 243.126L269.198 248.573L269.108 226.393L481.484 218.263L473.581 243.126ZM190.58 145.053C191.164 144.631 191.741 144.204 192.314 143.768C197.338 139.952 205.065 134.248 209.542 129.024C209.542 129.024 321.844 149.327 430.205 126.492C385.071 152.997 275.218 181.826 271.293 176.955C257.861 160.965 190.58 145.053 190.58 145.053ZM277.561 156.216C277.719 156.326 277.876 156.435 278.031 156.546C278.35 156.467 278.689 156.383 279.046 156.294C278.549 156.268 278.053 156.243 277.561 156.216ZM247.082 331.186C251.199 331.248 255.314 331.305 259.426 331.357L249.348 323.36L247.082 331.186ZM206.67 387.88L533.477 380.607C536.242 395.365 542.334 418.796 555.205 439.441C569.76 462.786 661.081 506.735 661.081 506.735L647.781 441.052C647.781 441.052 599.787 432.684 589.68 416.472C581.512 403.372 576.734 389.894 573.999 379.705L659.266 377.807L636.254 317.817C454.153 362.22 283.436 351.057 101.85 348.378L116.872 389.879L163.352 388.845C158.446 398.687 150.764 411.781 139.417 425.546C126.273 441.492 79.8494 444.495 79.8494 444.495L67.8049 503.411C67.8049 503.411 151.548 481.827 171.961 457.063C193.714 430.673 203.658 399.032 206.67 387.88Z" fill="#FF050B"/>
</g>
<defs>
<clipPath id="clip0_605_761">
<rect width="2160" height="2700" fill="white"/>
</clipPath>
</defs>
</svg>
