<svg width="2160" height="2700" viewBox="0 0 2160 2700" fill="none" xmlns="http://www.w3.org/2000/svg">
<g clip-path="url(#clip0_626_114)">
<path fill-rule="evenodd" clip-rule="evenodd" d="M2187.27 -11.832V2711.83H-27.2656V-11.832H2187.27ZM2092.21 83.2317H67.7983V2616.77H2092.21V83.2317Z" fill="#D1D1D1"/>
<path fill-rule="evenodd" clip-rule="evenodd" d="M182.063 317.395C166.087 328.86 114.992 365.785 98.1498 373.414L94.8213 300.758C165.424 268.776 250.25 205.331 266.069 121.469L390.972 88.5898C380.362 144.836 301.978 248.907 232.824 284.382L257.521 624.665L172.006 574.11L182.063 317.395ZM334.424 325.477L310.445 266.817C416.58 265.863 521.399 261.385 623.879 250.638L600.476 318.771L334.424 325.477ZM333.499 467L279.37 415.246C386.726 388.427 572.08 374.031 666.315 390.482L621.286 452.727C534.141 437.514 432.777 442.199 333.499 467Z" fill="black" stroke="black" stroke-width="25.9585" stroke-miterlimit="2" stroke-linejoin="round"/>
<path fill-rule="evenodd" clip-rule="evenodd" d="M155.445 296.625C139.601 307.858 88.9282 344.036 72.2255 351.511L68.9246 280.325C138.944 248.99 223.068 186.828 238.757 104.663L362.627 72.4492C352.105 127.557 274.369 229.523 205.786 264.28L230.279 597.678L145.471 548.146L155.445 296.625ZM306.546 304.543L282.766 247.07C388.024 246.136 491.976 241.748 593.608 231.219L570.399 297.973L306.546 304.543ZM305.629 443.203L251.947 392.496C358.416 366.22 542.238 352.115 635.693 368.233L591.037 429.219C504.613 414.314 404.087 418.904 305.629 443.203Z" fill="#EFE313"/>
<path fill-rule="evenodd" clip-rule="evenodd" d="M287.093 227.028C390.173 226.017 491.98 221.641 591.547 211.325C598.35 210.62 605.042 213.441 609.288 218.803C613.534 224.166 614.745 231.326 612.499 237.787L589.29 304.541C586.554 312.41 579.226 317.759 570.897 317.967L307.044 324.537C298.773 324.743 291.229 319.834 288.066 312.189L264.285 254.716C263.561 252.966 263.099 251.145 262.892 249.308C250.901 259.428 238.705 268.352 226.669 275.563L234.536 382.653C237.21 377.925 241.739 374.415 247.155 373.078C355.893 346.243 543.645 332.063 639.092 348.524C645.914 349.701 651.643 354.322 654.237 360.74C656.83 367.159 655.92 374.463 651.83 380.049L607.174 441.035C602.687 447.161 595.12 450.219 587.637 448.928C503.692 434.451 406.055 439.019 310.42 462.62C303.817 464.25 296.839 462.412 291.894 457.742L238.214 407.035C237.467 406.329 236.782 405.573 236.162 404.777L250.226 596.212C250.769 603.618 247.165 610.716 240.864 614.646C234.565 618.577 226.604 618.693 220.193 614.948L135.385 565.416C129 561.688 125.194 554.741 125.487 547.354L133.864 336.123C113.57 350.054 90.7172 365.147 80.3956 369.766C74.3573 372.468 67.373 372.01 61.7402 368.542C56.1075 365.074 52.5527 359.045 52.2472 352.437L48.9462 281.252C48.5649 273.038 53.2493 265.429 60.7546 262.07C125.503 233.094 204.605 176.891 219.112 100.912C220.561 93.3253 226.248 87.2503 233.724 85.3063L357.593 53.0933C364.231 51.3673 371.29 53.1623 376.297 57.8503C381.303 62.5373 383.559 69.4633 382.272 76.2003C377.675 100.28 361.761 132.76 339.007 165.245C324.057 186.587 306.199 207.963 287.093 227.028ZM155.446 296.625L145.471 548.146L230.279 597.678L205.787 264.28C274.369 229.523 352.105 127.557 362.627 72.4493L238.757 104.663C223.068 186.828 138.944 248.99 68.9246 280.325L72.2256 351.511C88.9282 344.036 139.601 307.858 155.446 296.625ZM306.546 304.543L570.399 297.973L593.608 231.219C491.976 241.748 388.024 246.136 282.766 247.07L306.546 304.543ZM305.629 443.203C404.087 418.904 504.613 414.314 591.037 429.219L635.693 368.233C542.238 352.115 358.416 366.22 251.947 392.496L305.629 443.203Z" fill="#FF050B"/>
</g>
<defs>
<clipPath id="clip0_626_114">
<rect width="2160" height="2700" fill="white"/>
</clipPath>
</defs>
</svg>
