<svg width="2160" height="2700" viewBox="0 0 2160 2700" fill="none" xmlns="http://www.w3.org/2000/svg">
<g clip-path="url(#clip0_993_2324)">
<path fill-rule="evenodd" clip-rule="evenodd" d="M457.887 972.38C457.887 972.38 629.16 641.29 692.54 568.281C725.216 530.642 808.516 556.434 838.169 534.331C865.915 513.651 876.101 469.809 870.462 435.667C864.81 401.449 773.304 357.171 804.26 329.021C838.942 297.485 1008.82 284.027 1078.55 246.447C1138.11 214.353 1197.84 149.885 1222.65 103.539C1243.93 63.7941 1195.2 -2.23579 1227.44 -31.6278C1259.68 -61.0187 1416.1 -72.8087 1416.1 -72.8087C1416.1 -72.8087 1405.06 46.6401 1391.88 86.4721C1381.76 117.09 1347.08 139.52 1337.05 166.183C1327.62 191.281 1319.69 233.235 1331.74 246.447C1343.78 259.659 1390.05 262.705 1409.32 245.454C1433.58 223.735 1465.21 163.304 1477.31 116.128C1489.95 66.8121 1485.19 -50.4387 1485.19 -50.4387L1739.02 -68.2577C1739.02 -68.2577 1382.58 338.482 1306.77 442.514C1284.07 473.67 1280.68 533.155 1284.16 555.935C1286.65 572.195 1317.84 592.378 1327.68 579.198C1342.79 558.959 1340.12 471.499 1374.83 434.504C1427.87 377.976 1609.62 307.097 1692.31 243.431C1769.68 183.857 1817.21 109.763 1870.95 52.5061C1912.9 7.80819 1968.31 -103.514 1968.31 -103.514L2223.29 -57.3847C2223.29 -57.3847 2039.25 127.74 1999.72 180.968C1983.4 202.952 2000.07 238.401 1986.16 261.984C1969.37 290.437 1934.43 329.708 1899 351.689C1849.59 382.351 1738.29 398.096 1689.66 445.959C1641.04 493.821 1603.37 590.536 1607.25 638.863C1611.07 686.537 1695.53 694.905 1712.91 735.926C1730.29 776.946 1711.51 884.985 1711.51 884.985L1703.94 963.222L1667.73 1040.64L1350.82 972.281L1261.47 814.517C1261.47 814.517 1312.21 718.757 1304.86 710.908C1297.51 703.059 1227.16 741.598 1217.37 767.425C1207.57 793.251 1225.37 866.202 1225.37 866.202L830.755 893.647C830.755 893.647 819.667 804.169 829.522 762.42C839.377 720.672 896.508 658.851 889.883 643.159C883.258 627.466 808.537 656.926 789.773 668.264C777.02 675.97 775.88 696.356 777.298 711.189C780.4 743.644 808.386 862.999 808.386 862.999L457.887 972.38Z" fill="#BABABA" fill-opacity="0.4"/>
<path fill-rule="evenodd" clip-rule="evenodd" d="M1315.28 564.278C1316.1 561.89 1316.77 558.971 1317.56 555.719C1320.56 543.218 1322.95 526.851 1326.23 509.748C1332.44 477.301 1342.3 442.871 1361.7 422.19C1383.84 398.598 1427.23 372.267 1477.13 345.324C1548 307.06 1632.32 266.905 1681.32 229.17C1757.84 170.253 1804.68 96.8139 1857.82 40.189C1898.58 -3.23891 1952.19 -111.533 1952.19 -111.533C1955.76 -118.701 1963.63 -122.651 1971.51 -121.225L2226.5 -75.0968C2233.08 -73.9058 2238.46 -69.1638 2240.46 -62.7838C2242.47 -56.4038 2240.77 -49.4368 2236.06 -44.6938C2236.06 -44.6938 2053.38 138.893 2014.17 191.7C2011.3 195.568 2010.56 200.27 2010.16 205.159C2009.53 212.95 2010.13 221.235 2010.24 229.374C2010.44 244.398 2008.86 258.923 2001.66 271.131C1983.72 301.541 1946.35 343.493 1908.49 366.985C1882.9 382.864 1841.39 395.157 1799.87 409.4C1762.51 422.22 1724.95 436.479 1702.29 458.787C1657.19 503.18 1621.59 592.601 1625.19 637.426C1625.77 644.701 1629.85 650.24 1635.19 655.203C1642.93 662.412 1653.18 668.305 1663.71 674.149C1678.91 682.568 1694.67 690.786 1706.9 700.636C1717.02 708.776 1724.89 718.078 1729.48 728.905C1735.41 742.903 1738.05 763.699 1738.26 786.041C1738.68 830.25 1730.44 880.86 1729.35 887.36L1721.85 964.957C1721.65 966.998 1721.1 968.991 1720.23 970.849L1684.04 1048.27C1680.48 1055.87 1672.14 1060.01 1663.93 1058.24L1347.02 989.877C1342 988.794 1337.68 985.62 1335.15 981.152L1245.8 823.389C1242.78 818.042 1242.68 811.52 1245.56 806.09L1275.64 739.703C1272.24 741.498 1268.89 743.404 1265.86 745.355C1256.47 751.407 1247.35 758.297 1240.75 765.111C1237.77 768.188 1235.25 771.019 1234.19 773.808C1231 782.243 1232.2 796.852 1233.84 811.326C1236.72 836.787 1242.86 861.936 1242.86 861.936C1244.12 867.091 1243.04 872.538 1239.91 876.822C1236.78 881.107 1231.92 883.792 1226.62 884.16L832.004 911.604C822.462 912.268 814.068 905.353 812.892 895.861C812.892 895.861 812.211 890.169 811.339 880.934L463.25 989.564C456.317 991.727 448.763 989.513 444.096 983.949C439.429 978.384 438.563 970.561 441.9 964.11C441.9 964.11 614.99 630.155 678.948 556.482C698.289 534.203 731.971 528.699 765.847 527.492C779.739 526.997 793.54 527.002 805.667 525.761C814.441 524.863 822.204 523.781 827.412 519.899C850.167 502.938 857.327 466.601 852.703 438.6C851.586 431.843 844.685 425.258 837.299 417.793C820.785 401.102 799.386 383.689 788.888 368.026C781.722 357.333 778.855 346.776 780.231 337.238C781.314 329.73 784.806 322.384 792.151 315.705C807.324 301.907 845.714 290.024 891.734 279.6C953.229 265.67 1029.25 252.574 1070.01 230.602C1126.52 200.15 1183.24 139.02 1206.78 95.044C1211.44 86.341 1210.72 75.839 1209.16 64.923C1207.04 50.133 1202.7 34.687 1200.22 20.2591C1195.71 -5.9109 1197.97 -29.1139 1215.32 -44.9288C1226.45 -55.0828 1250.1 -64.3098 1278.25 -70.9958C1336.5 -84.8288 1414.74 -90.7568 1414.74 -90.7568C1420.03 -91.1548 1425.22 -89.2058 1428.93 -85.4278C1432.65 -81.6498 1434.51 -76.4268 1434.02 -71.1508C1434.02 -71.1508 1422.48 51.285 1408.97 92.125C1403.18 109.637 1390.77 125.07 1377.97 139.675C1368.3 150.704 1358.23 161.003 1353.9 172.519C1348.84 185.971 1344.2 204.828 1343.68 220.324C1343.56 223.806 1343.65 227.088 1344.07 230.025C1344.32 231.755 1344.18 233.384 1345.04 234.321C1347.77 237.323 1354.06 238.11 1360.79 238.896C1373.52 240.383 1389.03 239.46 1397.32 232.044C1419.84 211.876 1448.64 155.464 1459.87 111.658C1472.12 63.886 1467.2 -49.7078 1467.2 -49.7078C1466.81 -59.4338 1474.22 -67.7118 1483.93 -68.3938L1737.75 -86.2128C1745.03 -86.7238 1751.89 -82.7928 1755.14 -76.2588C1758.38 -69.7248 1757.36 -61.8798 1752.55 -56.3938C1752.55 -56.3938 1396.95 349.335 1321.32 453.115C1301.3 480.581 1298.88 533.131 1301.95 553.213C1302.38 556.018 1305.7 558.366 1308.7 560.683C1310.46 562.036 1313.2 563.367 1315.28 564.278ZM457.887 972.381L808.386 863C808.386 863 780.4 743.645 777.298 711.19C775.88 696.357 777.02 675.971 789.773 668.265C808.537 656.927 883.258 627.467 889.883 643.16C896.508 658.852 839.377 720.673 829.522 762.421C819.667 804.17 830.755 893.648 830.755 893.648L1225.37 866.203C1225.37 866.203 1207.57 793.252 1217.37 767.426C1227.16 741.599 1297.51 703.06 1304.86 710.909C1312.21 718.758 1261.47 814.518 1261.47 814.518L1350.82 972.282L1667.72 1040.64L1703.93 963.223L1711.51 884.986C1711.51 884.986 1730.28 776.947 1712.91 735.927C1695.53 694.906 1611.07 686.538 1607.25 638.864C1603.37 590.536 1641.04 493.821 1689.66 445.959C1738.28 398.097 1849.59 382.352 1899 351.69C1934.43 329.709 1969.37 290.438 1986.16 261.985C2000.07 238.402 1983.4 202.953 1999.72 180.969C2039.25 127.741 2223.29 -57.3838 2223.29 -57.3838L1968.31 -103.513C1968.31 -103.513 1912.9 7.80908 1870.95 52.507C1817.21 109.764 1769.67 183.858 1692.31 243.432C1609.62 307.098 1427.87 377.977 1374.83 434.505C1340.12 471.499 1342.79 558.959 1327.68 579.198C1317.84 592.378 1286.65 572.195 1284.16 555.935C1280.68 533.155 1284.07 473.67 1306.77 442.514C1382.58 338.483 1739.01 -68.2568 1739.01 -68.2568L1485.19 -50.4378C1485.19 -50.4378 1489.95 66.813 1477.31 116.129C1465.21 163.305 1433.58 223.736 1409.32 245.455C1390.05 262.706 1343.78 259.66 1331.74 246.448C1319.69 233.236 1327.62 191.282 1337.05 166.184C1347.08 139.521 1381.76 117.091 1391.88 86.473C1405.06 46.641 1416.1 -72.8078 1416.1 -72.8078C1416.1 -72.8078 1259.68 -61.0178 1227.44 -31.6269C1195.2 -2.2349 1243.93 63.795 1222.65 103.54C1197.84 149.886 1138.11 214.354 1078.55 246.448C1008.82 284.028 838.942 297.486 804.26 329.022C773.304 357.172 864.81 401.45 870.462 435.667C876.101 469.809 865.915 513.651 838.169 534.331C808.516 556.434 725.216 530.642 692.54 568.282C629.16 641.291 457.887 972.381 457.887 972.381ZM808.617 781.876C809.305 773.159 810.392 765.114 812.003 758.286C818.29 731.653 842.153 697.057 859.131 670.261C861.513 666.503 863.891 662.275 865.964 658.392C865.575 658.47 865.192 658.551 864.818 658.636C841.504 663.911 810.009 677.068 799.082 683.671C796.805 685.047 796.427 688.013 795.819 690.839C794.505 696.949 794.669 703.751 795.216 709.477C796.528 723.197 802.373 752.689 808.617 781.876Z" fill="#A4A4A4" fill-opacity="0.75"/>
<path fill-rule="evenodd" clip-rule="evenodd" d="M684.544 805.986C748.141 805.986 805.414 833.254 845.274 876.715C880.812 915.463 499.139 1173.2 474.091 1080.55C469.192 1062.43 466.578 1043.39 466.578 1023.73C466.578 903.551 564.245 805.986 684.544 805.986Z" fill="#B4AD60" stroke="white" stroke-width="12" stroke-miterlimit="1.5" stroke-linecap="round" stroke-linejoin="round"/>
<path fill-rule="evenodd" clip-rule="evenodd" d="M691.813 853.811C741.767 853.811 787.82 870.635 824.596 898.914C849.95 918.411 773.042 987.989 700.065 1066.94C623.984 1149.25 550.746 1240.2 530.387 1217.79C495.262 1179.13 473.848 1127.82 473.848 1071.55C473.848 951.375 571.515 853.811 691.813 853.811Z" fill="#810306" stroke="white" stroke-width="12" stroke-miterlimit="1.5" stroke-linecap="round" stroke-linejoin="round"/>
<path fill-rule="evenodd" clip-rule="evenodd" d="M1418.12 792.893C1538.42 792.893 1636.09 890.457 1636.09 1010.63C1636.09 1130.8 1217.25 914.031 1245.95 877.152C1285.85 825.895 1348.16 792.893 1418.12 792.893Z" fill="#B4AD60" stroke="white" stroke-width="12" stroke-miterlimit="1.5" stroke-linecap="round" stroke-linejoin="round"/>
<path fill-rule="evenodd" clip-rule="evenodd" d="M1474.92 808.358C1475.42 809.681 1473.99 814.517 1477.65 819.773C1481.43 825.209 1490.3 831.111 1491.26 835.154C1493.49 844.627 1484.1 845.859 1484.1 845.859C1496.47 848.446 1505.03 852.583 1517.49 857.954C1519.12 854.198 1519.78 850.098 1519.58 845.698C1519.33 839.917 1512.22 834.667 1509.31 827.947C1508.43 825.912 1512.82 822.789 1511.73 820.68C1511.73 820.68 1472.7 802.462 1474.92 808.358Z" fill="white" fill-opacity="0.8"/>
<path fill-rule="evenodd" clip-rule="evenodd" d="M1518.4 824.28C1518.67 825.665 1514.77 826.697 1517.53 832.476C1520.38 838.453 1530.67 847.194 1530.96 851.339C1531.62 861.048 1522.16 860.742 1522.16 860.742C1533.95 865.299 1530.68 864.015 1542.12 871.336C1544.32 867.893 1548.03 865.1 1548.56 860.728C1549.24 854.981 1538.76 849.308 1536.97 842.204C1536.43 840.053 1545.5 843.064 1544.77 840.806C1544.77 840.806 1517.16 818.102 1518.4 824.28Z" fill="white" fill-opacity="0.8"/>
<path fill-rule="evenodd" clip-rule="evenodd" d="M1424.56 844.586C1544.85 844.586 1642.52 942.151 1642.52 1062.32C1642.52 1099.04 1633.4 1133.66 1617.3 1164.02C1598.05 1200.32 1528.86 1095.82 1441.45 1019.9C1362.72 951.524 1262.6 913.705 1285.41 894.772C1323.17 863.437 1371.68 844.586 1424.56 844.586Z" fill="#810306" stroke="white" stroke-width="12" stroke-miterlimit="1.5" stroke-linecap="round" stroke-linejoin="round"/>
<path fill-rule="evenodd" clip-rule="evenodd" d="M1047.32 695.355C1167.62 695.355 1258.77 793.097 1265.29 913.094C1266.63 937.764 1153.21 864.284 1041.53 862.714C935.388 861.224 829.355 971.644 829.355 913.094C829.355 792.92 927.022 695.355 1047.32 695.355Z" fill="#B4AD60" stroke="white" stroke-width="12" stroke-miterlimit="1.5" stroke-linecap="round" stroke-linejoin="round"/>
<path fill-rule="evenodd" clip-rule="evenodd" d="M1068.77 704.759C1069.54 706.16 1069.17 711.885 1073.88 717.145C1078.75 722.585 1088.72 727.611 1090.52 731.999C1094.72 742.284 1085.75 745.41 1085.75 745.41C1098.46 746.046 1107.75 749.137 1121.14 752.9C1121.94 748.358 1121.72 743.606 1120.59 738.674C1119.12 732.192 1111.01 727.577 1106.73 720.526C1105.43 718.391 1109.08 714.053 1107.56 711.873C1107.56 711.873 1065.34 698.511 1068.77 704.759Z" fill="white" fill-opacity="0.8"/>
<path fill-rule="evenodd" clip-rule="evenodd" d="M1114.89 714.704C1115.45 716.219 1111.83 718.104 1115.77 724.121C1119.84 730.344 1131.81 738.313 1132.97 742.94C1135.69 753.781 1126.32 755.183 1126.32 755.183C1138.87 758.153 1135.39 757.306 1148.18 763.461C1149.62 759.164 1152.68 755.325 1152.27 750.291C1151.71 743.676 1140.21 739.206 1136.94 731.514C1135.96 729.185 1145.51 730.909 1144.31 728.495C1144.31 728.495 1112.36 707.956 1114.89 714.704Z" fill="white" fill-opacity="0.8"/>
<path fill-rule="evenodd" clip-rule="evenodd" d="M654.523 808.342C655.497 809.612 655.979 815.329 661.425 819.824C667.053 824.474 677.663 827.952 680.101 832.021C685.795 841.561 677.397 845.994 677.397 845.994C690.056 844.721 699.704 846.386 713.502 848.104C713.618 843.492 712.688 838.827 710.832 834.12C708.406 827.932 699.705 824.581 694.411 818.251C692.81 816.334 695.771 811.499 693.943 809.571C693.943 809.571 650.194 802.678 654.523 808.342Z" fill="white" fill-opacity="0.8"/>
<path fill-rule="evenodd" clip-rule="evenodd" d="M701.604 811.276C702.383 812.689 699.093 815.094 703.888 820.454C708.842 825.997 721.867 832.086 723.713 836.486C728.02 846.799 718.967 849.587 718.967 849.587C731.822 850.645 728.253 850.328 741.822 854.5C742.601 850.036 745.047 845.784 743.887 840.867C742.352 834.409 730.31 831.711 725.927 824.596C724.603 822.44 734.309 822.714 732.761 820.507C732.761 820.507 698.098 804.982 701.604 811.276Z" fill="white" fill-opacity="0.8"/>
<path fill-rule="evenodd" clip-rule="evenodd" d="M1051.15 748.75C1144.89 748.75 1224.88 807.983 1255.64 890.989C1259.8 902.219 1153.19 863.609 1052.93 867.189C943.161 871.099 838.771 916.239 841.652 906.239C867.837 815.335 951.772 748.75 1051.15 748.75Z" fill="#810306" stroke="white" stroke-width="12" stroke-miterlimit="1.5" stroke-linecap="round" stroke-linejoin="round"/>
<path fill-rule="evenodd" clip-rule="evenodd" d="M1079.2 814.211C1218.36 814.211 1677.82 955.272 1677.82 955.272C1677.82 955.272 1926.45 1195.33 1967.92 1325.75C2005.09 1442.63 1686.5 1579.53 1686.5 1717.3C1686.5 1855.68 1698.39 1998.62 1698.39 1998.62C1698.39 1998.62 1737.29 2187.89 1714.4 2262.37C1680.67 2372.05 1638.77 2397.32 1490.73 2491.54C1490.73 2491.54 1219.11 2676.13 1081.62 2676.2C945.585 2676.27 719.315 2512.43 719.315 2512.43C548.534 2420.3 511.824 2360.37 479.15 2268.5C445.244 2173.17 457.192 1990.45 457.192 1990.45C457.192 1990.45 475.992 1860.87 471.907 1717.3C469.467 1631.55 151.743 1512.97 191.342 1353.66C227.564 1207.94 479.454 963.12 479.454 963.12C479.454 963.12 915.386 814.211 1079.2 814.211ZM1082.49 885.246C797.88 885.246 566.816 1148.41 566.816 1472.55C566.816 1796.7 797.88 2059.86 1082.49 2059.86C1367.1 2059.86 1598.16 1796.7 1598.16 1472.55C1598.16 1148.41 1367.1 885.246 1082.49 885.246Z" fill="#A4A4A4" stroke="white" stroke-width="16.178" stroke-miterlimit="1.5" stroke-linecap="round" stroke-linejoin="round"/>
<path fill-rule="evenodd" clip-rule="evenodd" d="M1694.75 981.182L1949.23 1403.78L1963.81 1339.28C1945.76 1222.05 1694.75 981.182 1694.75 981.182Z" fill="white" fill-opacity="0.6"/>
<path fill-rule="evenodd" clip-rule="evenodd" d="M1688.37 1529.46L1680.41 1844.44L1725.74 2220.99L1683.6 2327.82L1576.34 2189.47L1610.78 2040.43L1618.16 1756.99L1688.37 1529.46Z" fill="white" fill-opacity="0.6"/>
<path fill-rule="evenodd" clip-rule="evenodd" d="M1936.59 1420.68L1701.42 1477.54L1690.96 1685.15C1735.37 1591.7 1830.54 1505.42 1936.59 1420.68Z" fill="black" fill-opacity="0.3"/>
<path d="M1494.98 2478.18L1459.89 2418.17L1384.17 2380.94L1291.71 2450.54L1226.68 2473.03" stroke="black" stroke-width="9.99999" stroke-miterlimit="1.5" stroke-linecap="round" stroke-linejoin="round"/>
<path d="M708.355 2495.11L736.404 2439.33L810.771 2402.76L903.233 2472.36L968.262 2494.85" stroke="black" stroke-width="9.99999" stroke-miterlimit="1.5" stroke-linecap="round" stroke-linejoin="round"/>
<path d="M493.789 2303.78L569.477 2195.6L543.961 2061.48L620.397 2053.04L665.148 2129.51L773.681 2146.96" stroke="black" stroke-width="9.99999" stroke-miterlimit="1.5" stroke-linecap="round" stroke-linejoin="round"/>
<path d="M1684.2 2328.14L1574.57 2195.6L1600.09 2061.48L1523.65 2053.04L1478.9 2129.51L1375.55 2150.8" stroke="black" stroke-width="9.99999" stroke-miterlimit="1.5" stroke-linecap="round" stroke-linejoin="round"/>
<path d="M1603.37 2055.22L1616.67 1760.11L1695.79 1480.45L1940.27 1417.08" stroke="white" stroke-width="9.99999" stroke-miterlimit="1.5" stroke-linecap="round" stroke-linejoin="round"/>
<path fill-rule="evenodd" clip-rule="evenodd" d="M1430.59 2373.56C1380.83 2368.12 1363.53 2364.46 1273.27 2356.76C1202.78 2350.74 1149.31 2299.82 1083.04 2301.58C1016.78 2303.34 942.637 2358.42 875.678 2367.32C814.665 2375.44 759.374 2378.96 732.223 2380.33C720.979 2380.88 552.16 2413.48 552.16 2413.48C609.409 2455.76 668.746 2496.58 735.02 2532.5C735.02 2532.5 798.665 2524.37 885.683 2541.52C953.064 2554.79 1010.56 2617.74 1075.57 2619.21C1140.58 2620.68 1206.55 2561.75 1275.74 2550.35C1366.52 2535.4 1456.98 2530.47 1456.98 2530.47C1514.89 2493.1 1570.43 2452.13 1623.8 2407.86C1623.8 2407.86 1490.88 2380.15 1430.59 2373.56Z" fill="#D50409" stroke="white" stroke-width="6.99103" stroke-miterlimit="1.5" stroke-linecap="round" stroke-linejoin="round"/>
<path d="M586.141 2419.93L613.599 2412.81" stroke="#EFE313" stroke-width="6.99999" stroke-miterlimit="1.5" stroke-linecap="round" stroke-linejoin="round"/>
<path d="M637.109 2408.76L664.567 2401.64" stroke="#EFE313" stroke-width="6.99999" stroke-miterlimit="1.5" stroke-linecap="round" stroke-linejoin="round"/>
<path d="M687.86 2397.08L716.111 2394.52" stroke="#EFE313" stroke-width="7.00001" stroke-miterlimit="1.5" stroke-linecap="round" stroke-linejoin="round"/>
<path d="M738.29 2390.99L766.541 2388.44" stroke="#EFE313" stroke-width="7.00001" stroke-miterlimit="1.5" stroke-linecap="round" stroke-linejoin="round"/>
<path d="M791.02 2386.9L819.271 2384.34" stroke="#EFE313" stroke-width="7.00001" stroke-miterlimit="1.5" stroke-linecap="round" stroke-linejoin="round"/>
<path d="M842.028 2383.63L870.279 2381.08" stroke="#EFE313" stroke-width="7.00001" stroke-miterlimit="1.5" stroke-linecap="round" stroke-linejoin="round"/>
<path d="M893.523 2381.1L920.683 2372.92" stroke="#EFE313" stroke-width="6.99999" stroke-miterlimit="1.5" stroke-linecap="round" stroke-linejoin="round"/>
<path d="M942.464 2363.15L969.625 2354.96" stroke="#EFE313" stroke-width="6.99999" stroke-miterlimit="1.5" stroke-linecap="round" stroke-linejoin="round"/>
<path d="M1177.3 2346.37L1204.14 2355.55" stroke="#EFE313" stroke-width="7.00001" stroke-miterlimit="1.5" stroke-linecap="round" stroke-linejoin="round"/>
<path d="M1226.95 2363.49L1254.5 2370.25" stroke="#EFE313" stroke-width="7" stroke-miterlimit="1.5" stroke-linecap="round" stroke-linejoin="round"/>
<path d="M1275.66 2372.89L1303.93 2375.17" stroke="#EFE313" stroke-width="7.00001" stroke-miterlimit="1.5" stroke-linecap="round" stroke-linejoin="round"/>
<path d="M1329 2375.9L1357.27 2378.19" stroke="#EFE313" stroke-width="7.00001" stroke-miterlimit="1.5" stroke-linecap="round" stroke-linejoin="round"/>
<path d="M1377.87 2381.2L1406.15 2383.48" stroke="#EFE313" stroke-width="7.00001" stroke-miterlimit="1.5" stroke-linecap="round" stroke-linejoin="round"/>
<path d="M1425.71 2386.7L1453.99 2388.98" stroke="#EFE313" stroke-width="7.00001" stroke-miterlimit="1.5" stroke-linecap="round" stroke-linejoin="round"/>
<path d="M1476.24 2394.06L1504.52 2396.34" stroke="#EFE313" stroke-width="7.00001" stroke-miterlimit="1.5" stroke-linecap="round" stroke-linejoin="round"/>
<path d="M1522.51 2403.75L1550.66 2407.2" stroke="#EFE313" stroke-width="6.99999" stroke-miterlimit="1.5" stroke-linecap="round" stroke-linejoin="round"/>
<path d="M1567.13 2411.86L1595.28 2415.31" stroke="#EFE313" stroke-width="6.99999" stroke-miterlimit="1.5" stroke-linecap="round" stroke-linejoin="round"/>
<path d="M1428.67 2519.03L1456.87 2516.06" stroke="#EFE313" stroke-width="7" stroke-miterlimit="1.5" stroke-linecap="round" stroke-linejoin="round"/>
<path d="M1382.47 2522L1410.68 2519.03" stroke="#EFE313" stroke-width="7" stroke-miterlimit="1.5" stroke-linecap="round" stroke-linejoin="round"/>
<path d="M1335.72 2526.5L1363.93 2523.52" stroke="#EFE313" stroke-width="7" stroke-miterlimit="1.5" stroke-linecap="round" stroke-linejoin="round"/>
<path d="M1287.13 2533.13L1315.34 2530.15" stroke="#EFE313" stroke-width="7" stroke-miterlimit="1.5" stroke-linecap="round" stroke-linejoin="round"/>
<path d="M1240.5 2542.72L1267.95 2535.57" stroke="#EFE313" stroke-width="6.99999" stroke-miterlimit="1.5" stroke-linecap="round" stroke-linejoin="round"/>
<path d="M1197.11 2558.58L1223.86 2549.13" stroke="#EFE313" stroke-width="7" stroke-miterlimit="1.5" stroke-linecap="round" stroke-linejoin="round"/>
<path d="M955.416 2552.72L928.671 2543.27" stroke="#EFE313" stroke-width="7" stroke-miterlimit="1.5" stroke-linecap="round" stroke-linejoin="round"/>
<path d="M910.127 2535.02L882.359 2529.22" stroke="#EFE313" stroke-width="7" stroke-miterlimit="1.5" stroke-linecap="round" stroke-linejoin="round"/>
<path d="M861.935 2524.21L833.898 2519.91" stroke="#EFE313" stroke-width="7.00001" stroke-miterlimit="1.5" stroke-linecap="round" stroke-linejoin="round"/>
<path d="M814.056 2517.38L785.693 2516.94" stroke="#EFE313" stroke-width="6.99999" stroke-miterlimit="1.5" stroke-linecap="round" stroke-linejoin="round"/>
<path d="M764.8 2516.9L736.435 2517.18" stroke="#EFE313" stroke-width="7" stroke-miterlimit="1.5" stroke-linecap="round" stroke-linejoin="round"/>
<path d="M1079.59 2590.37C1151.23 2589.76 1209.3 2529.92 1209.3 2456.71C1209.3 2383.5 1151.23 2324.65 1079.59 2325.26C1007.96 2325.86 949.883 2385.7 949.883 2458.91C949.883 2532.12 1007.96 2590.98 1079.59 2590.37Z" fill="white" stroke="black" stroke-width="12.1393" stroke-miterlimit="1.5" stroke-linecap="round" stroke-linejoin="round"/>
<path d="M1079.04 2572.36C1137.89 2572.36 1185.61 2520.66 1185.61 2456.89C1185.61 2393.12 1137.89 2341.42 1079.04 2341.42C1020.18 2341.42 972.465 2393.12 972.465 2456.89C972.465 2520.66 1020.18 2572.36 1079.04 2572.36Z" fill="#D8CF82" stroke="black" stroke-width="12.4613" stroke-miterlimit="1.5" stroke-linecap="round" stroke-linejoin="round"/>
<path fill-rule="evenodd" clip-rule="evenodd" d="M989.258 2421.08L992.819 2497.05L1024.97 2540.14L1019.09 2458.05L1036.26 2459.55L1033.48 2434.25L1015.36 2435.18L1010.22 2423.46L1042.61 2399.39L1037.8 2361.83L989.258 2421.08Z" fill="#EFE313"/>
<path fill-rule="evenodd" clip-rule="evenodd" d="M989.258 2421.08L1037.8 2361.83L1042.61 2399.39L1010.22 2423.46L1015.36 2435.18L1033.48 2434.25L1036.26 2459.55L1019.09 2458.05L1024.97 2540.14L992.819 2497.05L989.258 2421.08ZM996.376 2423.44L999.711 2494.58L1016.28 2516.79L1012.11 2458.55C1011.97 2456.51 1012.72 2454.5 1014.18 2453.07C1015.64 2451.63 1017.66 2450.9 1019.7 2451.08L1028.37 2451.83L1027.24 2441.58L1015.72 2442.17C1012.81 2442.32 1010.12 2440.66 1008.95 2437.99L1003.81 2426.27C1002.49 2423.28 1003.42 2419.78 1006.04 2417.84L1035.14 2396.21L1032.92 2378.83L996.376 2423.44Z" fill="black"/>
<path fill-rule="evenodd" clip-rule="evenodd" d="M1039.37 2404.66L1034.59 2431.71L1054.77 2428.83L1048.14 2513.83L1091.47 2511.56L1079.36 2428.15L1100.89 2429.59L1092.31 2399.94L1039.37 2404.66Z" fill="#EFE313"/>
<path fill-rule="evenodd" clip-rule="evenodd" d="M1039.37 2404.66L1092.31 2399.94L1100.89 2429.59L1079.36 2428.15L1091.47 2511.56L1048.14 2513.83L1054.77 2428.83L1034.59 2431.71L1039.37 2404.66ZM1045.33 2411.16L1043.17 2423.42L1053.78 2421.9C1055.88 2421.6 1058.01 2422.27 1059.56 2423.73C1061.11 2425.18 1061.91 2427.26 1061.75 2429.37L1055.74 2506.43L1083.44 2504.97L1072.44 2429.15C1072.13 2427.06 1072.79 2424.95 1074.23 2423.4C1075.66 2421.84 1077.72 2421.02 1079.83 2421.17L1091.39 2421.94L1087.19 2407.42L1045.33 2411.16Z" fill="black"/>
<path fill-rule="evenodd" clip-rule="evenodd" d="M1096.75 2357.84L1112.83 2513.33L1131.72 2475.96L1141.27 2532.36L1173.56 2433.03L1151.17 2394.45L1140.17 2437.65L1134.46 2398.25L1125.1 2426.46L1124.76 2373.13L1096.75 2357.84Z" fill="#EFE313"/>
<path fill-rule="evenodd" clip-rule="evenodd" d="M1096.75 2357.84L1124.76 2373.13L1125.1 2426.46L1134.46 2398.25L1140.17 2437.65L1151.17 2394.45L1173.56 2433.03L1141.27 2532.36L1131.72 2475.96L1112.83 2513.33L1096.75 2357.84ZM1105.09 2370.36L1117.34 2488.9L1125.48 2472.8C1126.84 2470.11 1129.78 2468.59 1132.77 2469.04C1135.76 2469.49 1138.12 2471.81 1138.62 2474.79L1143.42 2503.12L1165.94 2433.84L1153.72 2412.79L1146.95 2439.37C1146.12 2442.61 1143.13 2444.81 1139.8 2444.64C1136.46 2444.46 1133.72 2441.95 1133.24 2438.65L1131.78 2428.55L1131.74 2428.66C1130.66 2431.91 1127.38 2433.91 1124 2433.37C1120.62 2432.83 1118.12 2429.93 1118.1 2426.5L1117.78 2377.29L1105.09 2370.36Z" fill="black"/>
<path d="M1350.47 2500.61C1369.91 2500.61 1385.68 2482.73 1385.68 2460.67C1385.68 2438.61 1369.91 2420.73 1350.47 2420.73C1331.02 2420.73 1315.25 2438.61 1315.25 2460.67C1315.25 2482.73 1331.02 2500.61 1350.47 2500.61Z" fill="#B4AD60" stroke="black" stroke-width="11.9319" stroke-miterlimit="1.5" stroke-linecap="round" stroke-linejoin="round"/>
<path fill-rule="evenodd" clip-rule="evenodd" d="M1352.19 2442.51L1357.17 2457.29H1373.26L1360.24 2466.42L1365.21 2481.2L1352.19 2472.07L1339.18 2481.2L1344.15 2466.42L1331.12 2457.29H1347.22L1352.19 2442.51Z" fill="#EFE313"/>
<path d="M1048.62 2543.78C1053.49 2543.78 1057.43 2539.61 1057.43 2534.48C1057.43 2529.34 1053.49 2525.18 1048.62 2525.18C1043.75 2525.18 1039.81 2529.34 1039.81 2534.48C1039.81 2539.61 1043.75 2543.78 1048.62 2543.78Z" fill="#B4AD60" stroke="black" stroke-width="2.88042" stroke-miterlimit="1.5" stroke-linecap="round" stroke-linejoin="round"/>
<path d="M1077.05 2554.5C1081.91 2554.5 1085.86 2550.33 1085.86 2545.2C1085.86 2540.06 1081.91 2535.9 1077.05 2535.9C1072.18 2535.9 1068.23 2540.06 1068.23 2545.2C1068.23 2550.33 1072.18 2554.5 1077.05 2554.5Z" fill="#B4AD60" stroke="black" stroke-width="2.88042" stroke-miterlimit="1.5" stroke-linecap="round" stroke-linejoin="round"/>
<path d="M1105.08 2542.13C1109.95 2542.13 1113.89 2537.97 1113.89 2532.83C1113.89 2527.7 1109.95 2523.53 1105.08 2523.53C1100.21 2523.53 1096.27 2527.7 1096.27 2532.83C1096.27 2537.97 1100.21 2542.13 1105.08 2542.13Z" fill="#B4AD60" stroke="black" stroke-width="2.88042" stroke-miterlimit="1.5" stroke-linecap="round" stroke-linejoin="round"/>
<path d="M797.491 2498.31C816.938 2498.31 832.704 2480.43 832.704 2458.37C832.704 2436.31 816.938 2418.43 797.491 2418.43C778.043 2418.43 762.277 2436.31 762.277 2458.37C762.277 2480.43 778.043 2498.31 797.491 2498.31Z" fill="#B4AD60" stroke="black" stroke-width="11.9319" stroke-miterlimit="1.5" stroke-linecap="round" stroke-linejoin="round"/>
<path fill-rule="evenodd" clip-rule="evenodd" d="M796.859 2436.83L801.829 2451.61H817.929L804.909 2460.74L809.879 2475.52L796.859 2466.39L783.839 2475.52L788.809 2460.74L775.789 2451.61H791.889L796.859 2436.83Z" fill="#EFE313"/>
<path fill-rule="evenodd" clip-rule="evenodd" d="M277.026 1532.46L274.363 1451.43L331.59 1345.8L421.131 1362.45L367.787 1467.85L367.425 1608.89L277.026 1532.46Z" fill="#FF2E33" stroke="white" stroke-width="9.99999" stroke-miterlimit="1.5" stroke-linecap="round" stroke-linejoin="round"/>
<path fill-rule="evenodd" clip-rule="evenodd" d="M604.26 928.962L514.508 1004.29L350.791 1306.16L439.615 1321.26L567.921 1082.99L766.374 882.615L604.26 928.962Z" fill="#FF2E33" stroke="white" stroke-width="9.99999" stroke-miterlimit="1.5" stroke-linecap="round" stroke-linejoin="round"/>
<path d="M544.615 2058.67L543.408 1765.01L464.29 1485.35L204.758 1439.55" stroke="white" stroke-width="9.99999" stroke-miterlimit="1.5" stroke-linecap="round" stroke-linejoin="round"/>
<path d="M1943.18 1401.24L1671.86 952.707L1561.59 1132.94L1698.65 1478.63L1687.77 1682.64" stroke="white" stroke-width="9.99999" stroke-miterlimit="1.5" stroke-linecap="round" stroke-linejoin="round"/>
<path d="M201.844 1423.72L488.219 957.613L598.488 1137.85L461.434 1483.54L472.31 1687.55" stroke="white" stroke-width="9.99999" stroke-miterlimit="1.5" stroke-linecap="round" stroke-linejoin="round"/>
<path fill-rule="evenodd" clip-rule="evenodd" d="M1081.47 844.879C1387.48 844.879 1622.77 1121.3 1622.77 1468.61C1622.77 1685.65 1585.67 1927.83 1438.79 2090.99C1350.64 2188.91 1199.83 2220.96 1087.13 2226.12C993.473 2230.41 854.351 2220.08 779.793 2151.91C610.999 1997.59 538.129 1715.45 538.129 1474.55C538.129 1127.25 775.464 844.879 1081.47 844.879ZM1081.47 876.776C791.891 876.776 557.858 1144.55 557.858 1473.21C557.858 1801.88 791.891 2069.65 1081.47 2069.65C1247.38 2069.65 1395.05 1981.75 1490.92 1844.87C1562.39 1742.83 1605.08 1613.57 1605.08 1473.21C1605.08 1144.55 1371.05 876.776 1081.47 876.776Z" fill="#505050" stroke="white" stroke-width="12.0025" stroke-miterlimit="2" stroke-linejoin="round"/>
<path fill-rule="evenodd" clip-rule="evenodd" d="M187.888 1361.48C155.634 1313.98 460.26 990.035 460.26 990.035L306.226 1267.03L198.567 1440.43L459.643 1482.66L544.855 1775.22L540.981 2063.43L566.468 2193.49L551.666 2238.74C600.883 2302.26 616.447 2356.43 703.988 2369.49C734.127 2373.99 708.589 2384.78 723.807 2388.69C733.026 2391.06 773.346 2380.57 787.475 2393.76C813.33 2417.9 838.969 2487.85 878.938 2533.5C882.629 2537.72 966.765 2580.99 961.79 2579.3C797.158 2523.34 963.849 2642.8 1016.43 2666.14C915.125 2628.2 818.759 2600.98 741.413 2532.22C691.419 2508.52 612.944 2469.78 562.235 2418.21C530.406 2385.84 521.524 2347.11 500.073 2307.96C444.957 2157.6 457.269 1945.86 469.807 1704.65L200.933 1457.92L187.888 1361.48Z" fill="black" fill-opacity="0.3"/>
<path fill-rule="evenodd" clip-rule="evenodd" d="M934.485 2045.82C934.485 2045.82 912.525 2063.6 900.532 2060.65C883.1 2056.36 829.892 2020.07 829.892 2020.07C829.892 2020.07 783.9 1980.93 756.585 2002.21C740.947 2014.39 728.349 2103.84 728.349 2103.84C682.651 2074.59 616.034 1981.67 590.317 1919.92C548.575 1819.68 524.196 1681.25 506.573 1551.98C493.355 1244.59 615.265 1073.34 792.938 932.381L791.189 980.06C628.297 1090.35 562.825 1285.84 566.898 1542.15C602.758 1783.82 733.487 1944.73 934.485 2045.82Z" fill="black" fill-opacity="0.3"/>
<path d="M1097.85 2226.68L1096.29 2175.31L1114.57 2167L1114.31 2146.96L1093.24 2139.4C1088.58 2123.16 1089.76 2083.59 1095.33 2064.09" stroke="white" stroke-width="7.99999" stroke-miterlimit="1.5" stroke-linecap="round" stroke-linejoin="round"/>
<path d="M1763.4 1162.53C1754.85 1214.19 1710.86 1250.23 1665.13 1243.01C1619.4 1235.79 1589.25 1188.05 1597.8 1136.39C1606.34 1084.72 1650.34 1048.69 1696.07 1055.91C1741.8 1063.13 1771.94 1110.86 1763.4 1162.53Z" fill="white" stroke="black" stroke-width="8.25349" stroke-miterlimit="1.5" stroke-linecap="round" stroke-linejoin="round"/>
<path d="M1744.11 1159.07C1737.4 1201.57 1701.49 1231.21 1663.89 1225.28C1626.29 1219.34 1601.25 1180.08 1607.96 1137.58C1614.67 1095.08 1650.58 1065.44 1688.18 1071.38C1725.78 1077.31 1750.82 1116.57 1744.11 1159.07Z" fill="#D8CF82" stroke="black" stroke-width="8.23118" stroke-miterlimit="1.5" stroke-linecap="round" stroke-linejoin="round"/>
<path d="M1720.12 1155.17C1714.39 1191.47 1685.19 1217.02 1654.89 1212.24C1624.6 1207.45 1604.68 1174.15 1610.41 1137.86C1616.14 1101.56 1645.34 1076.01 1675.64 1080.79C1705.93 1085.58 1725.85 1118.88 1720.12 1155.17Z" fill="#D8CF82" stroke="black" stroke-width="4.08138" stroke-miterlimit="1.5" stroke-linecap="round" stroke-linejoin="round"/>
<path d="M1706.18 1153.24C1701.75 1181.32 1677.67 1200.85 1652.39 1196.86C1627.12 1192.87 1610.22 1166.87 1614.65 1138.79C1619.09 1110.71 1643.17 1091.17 1668.44 1095.16C1693.72 1099.15 1710.61 1125.15 1706.18 1153.24Z" fill="#D8CF82" stroke="black" stroke-width="3.27915" stroke-miterlimit="1.5" stroke-linecap="round" stroke-linejoin="round"/>
<path d="M1692.79 1151.33C1689.15 1174.39 1669.81 1190.5 1649.58 1187.3C1629.35 1184.11 1615.91 1162.83 1619.55 1139.77C1623.19 1116.71 1642.53 1100.6 1662.76 1103.8C1682.99 1106.99 1696.43 1128.27 1692.79 1151.33Z" fill="#D8CF82" stroke="black" stroke-width="2.65816" stroke-miterlimit="1.5" stroke-linecap="round" stroke-linejoin="round"/>
<path d="M1741.33 1156.46L1677.62 1146.37L1663.62 1117.52C1679.72 1095.11 1699.08 1090.04 1716.27 1086.58" stroke="black" stroke-width="2.7196" stroke-miterlimit="1.5" stroke-linecap="round" stroke-linejoin="round"/>
<path d="M1651.49 1172.21C1662.18 1192.97 1674.53 1209.62 1688.75 1221.61" stroke="black" stroke-width="2.7196" stroke-miterlimit="1.5" stroke-linecap="round" stroke-linejoin="round"/>
<path d="M1632.17 1166.85C1623.05 1180.33 1622.82 1192.64 1623.6 1204.82" stroke="black" stroke-width="2.7196" stroke-miterlimit="1.5" stroke-linecap="round" stroke-linejoin="round"/>
<path d="M1623.43 1137.1L1608.29 1133.61" stroke="black" stroke-width="2.7196" stroke-miterlimit="1.5" stroke-linecap="round" stroke-linejoin="round"/>
<path d="M1641.02 1118C1638.81 1107.95 1639.91 1097.69 1643.13 1087.28" stroke="black" stroke-width="2.7196" stroke-miterlimit="1.5" stroke-linecap="round" stroke-linejoin="round"/>
<path d="M1672.2 1147.22C1669.98 1161.26 1657.02 1170.88 1643.24 1168.7C1629.46 1166.53 1620.09 1153.38 1622.3 1139.34C1624.52 1125.3 1637.49 1115.68 1651.27 1117.85C1665.04 1120.03 1674.42 1133.17 1672.2 1147.22Z" fill="#B4AD60" stroke="black" stroke-width="8.11254" stroke-miterlimit="1.5" stroke-linecap="round" stroke-linejoin="round"/>
<path fill-rule="evenodd" clip-rule="evenodd" d="M1670.35 1218.05C1654.88 1202.7 1647.27 1184.6 1646.96 1163.93C1639.41 1149.06 1643.32 1128.65 1653.66 1116.18C1662.31 1111.18 1671.72 1119.05 1671.78 1128C1681.68 1102.81 1699.76 1089.73 1721.82 1082.56L1704.96 1068.12C1664.77 1054.46 1626.89 1072.68 1605.44 1124.94C1606.42 1168.14 1612.66 1207.89 1659.06 1227.81L1670.35 1218.05Z" fill="black" fill-opacity="0.3"/>
<path d="M1852.64 1339.35C1844.1 1391.01 1800.1 1427.04 1754.37 1419.83C1708.64 1412.61 1678.5 1364.87 1687.04 1313.21C1695.59 1261.54 1739.58 1225.51 1785.31 1232.73C1831.04 1239.94 1861.19 1287.68 1852.64 1339.35Z" fill="white" stroke="black" stroke-width="8.25349" stroke-miterlimit="1.5" stroke-linecap="round" stroke-linejoin="round"/>
<path d="M1833.36 1335.89C1826.65 1378.39 1790.73 1408.03 1753.14 1402.1C1715.54 1396.16 1690.5 1356.9 1697.21 1314.4C1703.91 1271.9 1739.83 1242.26 1777.43 1248.19C1815.03 1254.13 1840.07 1293.39 1833.36 1335.89Z" fill="#D8CF82" stroke="black" stroke-width="8.23118" stroke-miterlimit="1.5" stroke-linecap="round" stroke-linejoin="round"/>
<path d="M1809.36 1331.99C1803.63 1368.29 1774.43 1393.84 1744.14 1389.05C1713.84 1384.27 1693.93 1350.97 1699.66 1314.68C1705.39 1278.38 1734.59 1252.83 1764.88 1257.61C1795.18 1262.4 1815.09 1295.7 1809.36 1331.99Z" fill="#D8CF82" stroke="black" stroke-width="4.08138" stroke-miterlimit="1.5" stroke-linecap="round" stroke-linejoin="round"/>
<path d="M1795.43 1330.05C1790.99 1358.14 1766.91 1377.67 1741.64 1373.68C1716.36 1369.69 1699.47 1343.69 1703.9 1315.61C1708.33 1287.52 1732.41 1267.99 1757.69 1271.98C1782.96 1275.97 1799.86 1301.97 1795.43 1330.05Z" fill="#D8CF82" stroke="black" stroke-width="3.27915" stroke-miterlimit="1.5" stroke-linecap="round" stroke-linejoin="round"/>
<path d="M1782.04 1328.15C1778.4 1351.21 1759.05 1367.31 1738.83 1364.12C1718.6 1360.93 1705.15 1339.65 1708.79 1316.59C1712.43 1293.53 1731.78 1277.42 1752.01 1280.61C1772.23 1283.81 1785.68 1305.09 1782.04 1328.15Z" fill="#D8CF82" stroke="black" stroke-width="2.65816" stroke-miterlimit="1.5" stroke-linecap="round" stroke-linejoin="round"/>
<path d="M1830.57 1333.28L1766.87 1323.19L1752.87 1294.34C1768.97 1271.93 1788.33 1266.86 1805.51 1263.4" stroke="black" stroke-width="2.7196" stroke-miterlimit="1.5" stroke-linecap="round" stroke-linejoin="round"/>
<path d="M1740.74 1349.03C1751.42 1369.79 1763.78 1386.44 1778 1398.43" stroke="black" stroke-width="2.7196" stroke-miterlimit="1.5" stroke-linecap="round" stroke-linejoin="round"/>
<path d="M1721.42 1343.67C1712.3 1357.15 1712.07 1369.46 1712.85 1381.64" stroke="black" stroke-width="2.7196" stroke-miterlimit="1.5" stroke-linecap="round" stroke-linejoin="round"/>
<path d="M1712.68 1313.92L1697.53 1310.43" stroke="black" stroke-width="2.7196" stroke-miterlimit="1.5" stroke-linecap="round" stroke-linejoin="round"/>
<path d="M1730.26 1294.82C1728.06 1284.77 1729.16 1274.51 1732.37 1264.1" stroke="black" stroke-width="2.7196" stroke-miterlimit="1.5" stroke-linecap="round" stroke-linejoin="round"/>
<path d="M1761.45 1324.03C1759.23 1338.08 1746.26 1347.7 1732.48 1345.52C1718.71 1343.35 1709.33 1330.2 1711.55 1316.16C1713.77 1302.12 1726.73 1292.5 1740.51 1294.67C1754.29 1296.85 1763.66 1309.99 1761.45 1324.03Z" fill="#B4AD60" stroke="black" stroke-width="8.11254" stroke-miterlimit="1.5" stroke-linecap="round" stroke-linejoin="round"/>
<path fill-rule="evenodd" clip-rule="evenodd" d="M1760.06 1400.86C1744.59 1385.52 1736.98 1367.41 1736.66 1346.75C1729.12 1331.88 1733.03 1311.46 1743.36 1299C1752.02 1293.99 1761.42 1301.86 1761.48 1310.81C1771.39 1285.62 1789.46 1272.54 1811.53 1265.38L1794.66 1250.93C1754.48 1237.28 1716.6 1255.49 1695.15 1307.76C1696.12 1350.95 1702.37 1390.7 1748.77 1410.62L1760.06 1400.86Z" fill="black" fill-opacity="0.3"/>
<path fill-rule="evenodd" clip-rule="evenodd" d="M1716.7 1315.29C1735.37 1304.06 1765.28 1344.62 1756.59 1342.48C1764.33 1338.62 1779.62 1335.19 1792.48 1338.97C1813.4 1345.12 1822.53 1362.97 1827.81 1363.87C1850.9 1328.27 1825.8 1283.05 1792.36 1254.53C1750.24 1244.87 1712.65 1258.69 1701.28 1313.4L1716.7 1315.29Z" fill="black" fill-opacity="0.3"/>
<path fill-rule="evenodd" clip-rule="evenodd" d="M1634.58 1137C1653.26 1125.77 1683.17 1166.33 1674.48 1164.19C1682.22 1160.33 1697.5 1156.89 1710.37 1160.68C1731.28 1166.83 1740.42 1184.68 1745.69 1185.58C1768.79 1149.98 1743.69 1104.75 1710.24 1076.24C1668.13 1066.58 1630.54 1080.4 1619.17 1135.11L1634.58 1137Z" fill="black" fill-opacity="0.3"/>
<path fill-rule="evenodd" clip-rule="evenodd" d="M1524.43 2178.59C1555.01 2178.59 1544.97 2253.41 1544.97 2283.18C1544.97 2312.94 1478.21 2355.55 1447.64 2355.55C1417.07 2355.55 1435.09 2302.73 1435.09 2272.97C1435.09 2243.2 1493.86 2178.59 1524.43 2178.59Z" fill="#FF050B" stroke="black" stroke-width="12" stroke-miterlimit="1.5" stroke-linecap="round" stroke-linejoin="round"/>
<path fill-rule="evenodd" clip-rule="evenodd" d="M627.124 2178.59C596.551 2178.59 606.587 2253.41 606.587 2283.18C606.587 2312.94 673.346 2355.55 703.919 2355.55C734.492 2355.55 716.471 2302.73 716.471 2272.97C716.471 2243.2 657.697 2178.59 627.124 2178.59Z" fill="#FF050B" stroke="black" stroke-width="12" stroke-miterlimit="1.5" stroke-linecap="round" stroke-linejoin="round"/>
<path fill-rule="evenodd" clip-rule="evenodd" d="M1356.8 1021.61C1356.8 1021.61 1525.22 1227.56 1524.7 1359.24C1523.8 1587.83 1415.96 1824.39 1415.96 1824.39C1525.65 1521.86 1477.75 1244.58 1356.8 1021.61Z" fill="white"/>
<path fill-rule="evenodd" clip-rule="evenodd" d="M1488.85 1887.78C1439.98 1954.28 1340.83 2049.43 1275.53 2079.86C1251.94 2090.85 1132.36 2125.01 1163.68 2094.2C1182.78 2075.43 1227.61 2080.52 1290.92 2046.61C1366.74 2006.01 1427.19 1950.95 1488.85 1887.78Z" fill="white" fill-opacity="0.4"/>
<path d="M1036.43 2175.67C1048.8 2175.67 1058.83 2167.3 1058.83 2156.97C1058.83 2146.64 1048.8 2138.26 1036.43 2138.26C1024.05 2138.26 1014.02 2146.64 1014.02 2156.97C1014.02 2167.3 1024.05 2175.67 1036.43 2175.67Z" fill="#1D9A6C" stroke="black" stroke-width="7.99999" stroke-miterlimit="1.5" stroke-linecap="round" stroke-linejoin="round"/>
<path d="M966.299 2172.06C978.672 2172.06 988.702 2163.69 988.702 2153.36C988.702 2143.02 978.672 2134.65 966.299 2134.65C953.925 2134.65 943.895 2143.02 943.895 2153.36C943.895 2163.69 953.925 2172.06 966.299 2172.06Z" fill="#1D9A6C" stroke="black" stroke-width="7.99999" stroke-miterlimit="1.5" stroke-linecap="round" stroke-linejoin="round"/>
<path fill-rule="evenodd" clip-rule="evenodd" d="M1584.12 2072.99L1558.6 2151.82C1492.87 2148.7 1433.07 2209.2 1387.33 2304.41C1387.33 2304.41 1434.61 2202.95 1455.48 2173.91C1468.56 2155.71 1534.92 2130.86 1534.92 2130.86L1584.12 2072.99Z" fill="white" fill-opacity="0.7"/>
</g>
<defs>
<clipPath id="clip0_993_2324">
<rect width="2160" height="2700" fill="white"/>
</clipPath>
</defs>
</svg>
