<svg width="2160" height="2700" viewBox="0 0 2160 2700" fill="none" xmlns="http://www.w3.org/2000/svg">
<g clip-path="url(#clip0_876_244)">
<path fill-rule="evenodd" clip-rule="evenodd" d="M601.1 1255.36L564.758 754.078L249.318 1230.51L382.943 1340.4L601.1 1255.36Z" fill="#FF050B" stroke="black" stroke-width="13" stroke-miterlimit="1.5" stroke-linecap="round" stroke-linejoin="round"/>
<path fill-rule="evenodd" clip-rule="evenodd" d="M1630.66 1249.65L1567.88 751.305L1872.58 1068.22L1862.5 1282.46L1630.66 1249.65Z" fill="#FF050B" stroke="black" stroke-width="13" stroke-miterlimit="1.5" stroke-linecap="round" stroke-linejoin="round"/>
<path fill-rule="evenodd" clip-rule="evenodd" d="M1707.57 905.948L1579.72 777.01L1681.73 920.961L1707.57 905.948Z" fill="white" fill-opacity="0.4"/>
<path fill-rule="evenodd" clip-rule="evenodd" d="M560.648 923.913L548.352 784.65L531.453 923.553L560.648 923.913Z" fill="white" fill-opacity="0.4"/>
<path fill-rule="evenodd" clip-rule="evenodd" d="M475.371 946.121L523.448 818.332L449.473 926.265L475.371 946.121Z" fill="black" fill-opacity="0.3"/>
<path fill-rule="evenodd" clip-rule="evenodd" d="M1584.27 822.115L1637.12 928.6L1593.26 925.179L1584.27 822.115Z" fill="black" fill-opacity="0.3"/>
<path fill-rule="evenodd" clip-rule="evenodd" d="M1777.72 2018.18C1716.37 2045.13 1732.48 2038.12 1681.08 2048.48C1635.24 2057.71 1653.92 1639.13 1732.14 1663.59C1747.44 1668.37 1762.19 1675.37 1776.01 1684.69C1825.93 1718.37 1905.55 1811.84 1905.86 1871.66C1906.08 1913.03 1819.88 1999.66 1777.72 2018.18Z" fill="#B4AD60" stroke="white" stroke-width="10.6919" stroke-miterlimit="1.5" stroke-linecap="round" stroke-linejoin="round"/>
<path fill-rule="evenodd" clip-rule="evenodd" d="M1828.97 1932.75C1827.57 1932.9 1823.3 1930.56 1817.29 1932.66C1811.08 1934.83 1803.08 1941.42 1798.95 1941.39C1789.26 1941.29 1790.54 1932.66 1790.54 1932.66C1784.81 1943.1 1778.59 1949.8 1770.16 1959.7C1773.34 1961.98 1777.1 1963.47 1781.38 1964.26C1787 1965.31 1793.91 1960.14 1801.13 1959.03C1803.32 1958.69 1805.16 1963.28 1807.48 1962.78C1807.48 1962.78 1835.22 1932.07 1828.97 1932.75Z" fill="white" fill-opacity="0.8"/>
<path fill-rule="evenodd" clip-rule="evenodd" d="M1802.27 1967.92C1800.87 1967.86 1800.9 1964.16 1794.62 1965.35C1788.13 1966.57 1777.04 1973.8 1772.98 1973.14C1763.48 1971.6 1766.26 1963.25 1766.26 1963.25C1758.78 1972.73 1760.87 1970.11 1750.84 1978.67C1753.57 1981.39 1755.28 1985.3 1759.34 1986.73C1764.68 1988.6 1772.88 1980.53 1780.18 1980.5C1782.38 1980.49 1777.11 1987.9 1779.47 1987.74C1779.47 1987.74 1808.53 1968.18 1802.27 1967.92Z" fill="white" fill-opacity="0.8"/>
<path fill-rule="evenodd" clip-rule="evenodd" d="M1767.21 2260.44C1722.87 2288.62 1690.83 2314.86 1644.69 2324.16C1603.55 2332.44 1620.32 1956.75 1690.52 1978.7C1704.25 1983 1717.02 1990.02 1729.89 1997.64C1779.76 2027.19 1861.29 2098.9 1869.44 2153.31C1876.3 2199.15 1819.08 2227.47 1767.21 2260.44Z" fill="#B4AD60" stroke="white" stroke-width="9.59643" stroke-miterlimit="1.5" stroke-linecap="round" stroke-linejoin="round"/>
<path fill-rule="evenodd" clip-rule="evenodd" d="M1777.44 2220.28C1776.18 2220.42 1772.35 2218.32 1766.95 2220.21C1761.37 2222.15 1754.2 2228.07 1750.48 2228.04C1741.79 2227.95 1742.94 2220.21 1742.94 2220.21C1737.8 2229.57 1732.21 2235.59 1724.65 2244.48C1727.5 2246.52 1730.88 2247.86 1734.72 2248.57C1739.76 2249.51 1745.97 2244.87 1752.45 2243.87C1754.41 2243.57 1756.07 2247.69 1758.14 2247.24C1758.14 2247.24 1783.04 2219.67 1777.44 2220.28Z" fill="white" fill-opacity="0.8"/>
<path fill-rule="evenodd" clip-rule="evenodd" d="M1753.46 2251.85C1752.21 2251.8 1752.24 2248.48 1746.6 2249.54C1740.78 2250.64 1730.82 2257.13 1727.18 2256.54C1718.65 2255.15 1721.14 2247.66 1721.14 2247.66C1714.44 2256.17 1716.31 2253.82 1707.31 2261.5C1709.76 2263.94 1711.29 2267.46 1714.93 2268.74C1719.73 2270.42 1727.09 2263.17 1733.64 2263.14C1735.62 2263.14 1730.88 2269.78 1733 2269.64C1733 2269.64 1759.08 2252.09 1753.46 2251.85Z" fill="white" fill-opacity="0.8"/>
<path fill-rule="evenodd" clip-rule="evenodd" d="M384.09 2045.36C445.44 2072.3 429.331 2065.3 480.737 2075.65C526.569 2084.88 507.894 1666.3 429.675 1690.76C414.377 1695.55 399.622 1702.55 385.807 1711.86C335.879 1745.54 256.262 1839.02 255.948 1898.84C255.73 1940.21 341.928 2026.84 384.09 2045.36Z" fill="#B4AD60" stroke="#E7E7E7" stroke-width="10.6919" stroke-miterlimit="1.5" stroke-linecap="round" stroke-linejoin="round"/>
<path fill-rule="evenodd" clip-rule="evenodd" d="M332.838 1959.92C334.24 1960.07 338.51 1957.74 344.52 1959.84C350.734 1962 358.731 1968.6 362.867 1968.56C372.552 1968.46 371.271 1959.84 371.271 1959.84C377.003 1970.27 383.224 1976.98 391.654 1986.88C388.473 1989.15 384.708 1990.64 380.429 1991.43C374.81 1992.48 367.901 1987.31 360.682 1986.2C358.496 1985.87 356.649 1990.46 354.337 1989.95C354.337 1989.95 326.591 1959.24 332.838 1959.92Z" fill="white" fill-opacity="0.8" stroke="#E7E7E7" stroke-width="7.64794" stroke-miterlimit="1.5" stroke-linecap="round" stroke-linejoin="round"/>
<path fill-rule="evenodd" clip-rule="evenodd" d="M359.545 1995.1C360.946 1995.03 360.914 1991.34 367.19 1992.52C373.679 1993.74 384.776 2000.97 388.834 2000.32C398.335 1998.77 395.557 1990.42 395.557 1990.42C403.029 1999.9 400.938 1997.28 410.972 2005.84C408.244 2008.56 406.536 2012.48 402.474 2013.91C397.132 2015.78 388.932 2007.7 381.637 2007.67C379.43 2007.67 384.703 2015.07 382.342 2014.92C382.342 2014.92 353.287 1995.36 359.545 1995.1Z" fill="white" fill-opacity="0.8" stroke="#E7E7E7" stroke-width="7.64866" stroke-miterlimit="1.5" stroke-linecap="round" stroke-linejoin="round"/>
<path fill-rule="evenodd" clip-rule="evenodd" d="M394.602 2287.61C438.94 2315.79 470.983 2342.03 517.122 2351.33C558.258 2359.62 541.496 1983.92 471.292 2005.88C457.561 2010.17 444.788 2017.19 431.918 2024.82C382.053 2054.37 300.524 2126.07 292.374 2180.48C285.509 2226.32 342.729 2254.65 394.602 2287.61Z" fill="#B4AD60" stroke="#E7E7E7" stroke-width="9.59643" stroke-miterlimit="1.5" stroke-linecap="round" stroke-linejoin="round"/>
<path fill-rule="evenodd" clip-rule="evenodd" d="M384.376 2247.46C385.634 2247.59 389.467 2245.5 394.861 2247.38C400.438 2249.33 407.616 2255.24 411.328 2255.21C420.021 2255.12 418.871 2247.38 418.871 2247.38C424.016 2256.75 429.599 2262.76 437.165 2271.65C434.311 2273.69 430.932 2275.03 427.091 2275.74C422.048 2276.68 415.847 2272.04 409.367 2271.04C407.405 2270.74 405.747 2274.86 403.672 2274.41C403.672 2274.41 378.77 2246.85 384.376 2247.46Z" fill="white" fill-opacity="0.8"/>
<path fill-rule="evenodd" clip-rule="evenodd" d="M408.348 2279.03C409.605 2278.97 409.576 2275.65 415.209 2276.72C421.034 2277.81 430.994 2284.3 434.636 2283.71C443.164 2282.33 440.67 2274.83 440.67 2274.83C447.376 2283.34 445.5 2280.99 454.506 2288.67C452.057 2291.11 450.524 2294.63 446.878 2295.91C442.084 2297.59 434.724 2290.34 428.177 2290.32C426.195 2290.31 430.928 2296.96 428.809 2296.82C428.809 2296.82 402.731 2279.26 408.348 2279.03Z" fill="white" fill-opacity="0.8"/>
<path fill-rule="evenodd" clip-rule="evenodd" d="M1098.83 2687.31C1308.21 2682.88 1464.77 2581.8 1473.58 2461.59C1475.39 2436.88 1279.56 2514.52 1085.21 2520.21C900.51 2525.61 713.628 2419.12 714.868 2477.66C717.411 2597.8 889.46 2691.75 1098.83 2687.31Z" fill="#B4AD60" stroke="white" stroke-width="15.8329" stroke-miterlimit="1.5" stroke-linecap="round" stroke-linejoin="round"/>
<path fill-rule="evenodd" clip-rule="evenodd" d="M1135.97 2677.12C1137.28 2675.69 1136.5 2669.98 1144.59 2664.55C1152.95 2658.93 1170.2 2653.54 1173.24 2649.09C1180.34 2638.65 1164.66 2635.86 1164.66 2635.86C1186.76 2634.75 1202.87 2631.32 1226.09 2627.06C1227.58 2631.58 1227.3 2636.33 1225.43 2641.31C1223.01 2647.84 1209.01 2652.75 1201.69 2659.96C1199.48 2662.14 1205.93 2666.35 1203.33 2668.58C1203.33 2668.58 1130.13 2683.5 1135.97 2677.12Z" fill="white" fill-opacity="0.8"/>
<path fill-rule="evenodd" clip-rule="evenodd" d="M1216.02 2665.48C1216.96 2663.95 1210.63 2662.19 1217.36 2656.03C1224.31 2649.66 1244.97 2641.25 1246.9 2636.59C1251.39 2625.65 1235.06 2624.59 1235.06 2624.59C1256.84 2621.16 1250.8 2622.13 1272.93 2615.51C1275.53 2619.75 1280.93 2623.48 1280.32 2628.53C1279.5 2635.16 1259.57 2640.05 1254.05 2647.86C1252.38 2650.23 1268.97 2648.15 1266.94 2650.61C1266.94 2650.61 1211.76 2672.32 1216.02 2665.48Z" fill="white" fill-opacity="0.8"/>
<path fill-rule="evenodd" clip-rule="evenodd" d="M822.72 2568.75L818.508 2568.66C785.346 2550.77 606.905 2551.11 600.769 2439.89C594.445 2325.29 549.236 2382.6 506.829 2320.77C473.429 2303.36 432.288 2269.32 407.759 2242.34C333.043 2160.18 376.978 2080.4 440.955 2027.8C410.245 2010.52 378.687 1987.17 361.405 1961.53C298.432 1868.1 338.771 1751.79 423.219 1694.83C432.922 1688.28 443.092 1682.89 453.586 1678.59C386.123 1596.9 157.395 1490.25 191.347 1353.66C203.808 1303.52 225.302 811.479 361.286 774.602C522.579 730.868 534.682 832.075 632.226 837.461C751.88 844.06 915.393 814.203 1079.21 814.205C1218.36 814.21 1449.85 831.074 1561.76 817.262C1639.72 807.639 1660.1 712.527 1750.67 731.314C1947.74 772.202 1958.51 1247 1967.92 1325.75C1985.58 1473.27 1779.26 1536.28 1708.17 1651.39C1718.69 1655.69 1728.88 1661.09 1738.6 1667.66C1823.05 1724.62 1863.39 1840.93 1800.42 1934.35C1783.13 1959.99 1751.57 1983.36 1720.87 2000.62C1784.84 2053.23 1828.77 2133.01 1754.05 2215.17C1744.07 2226.16 1731.32 2238.32 1717.44 2250.06C1716.58 2254.44 1674.97 2305.76 1673.8 2309.58C1647.75 2394.3 1692.53 2403.93 1598.51 2494.81C1570.2 2522.18 1414.87 2544.44 1381.18 2565.88L1367.8 2566.35C1300.24 2606.05 1207.32 2631.61 1104.37 2633.79C993.467 2636.14 893.035 2610.89 822.72 2568.75ZM1082.5 880.4C797.888 880.395 566.822 1148.41 566.822 1472.55C566.821 1796.69 797.888 2059.86 1082.5 2059.86C1367.1 2059.85 1598.17 1796.69 1598.17 1472.55C1598.17 1148.41 1367.1 880.396 1082.5 880.4Z" fill="#BABABA" stroke="white" stroke-width="15.8329" stroke-miterlimit="1.5" stroke-linecap="round" stroke-linejoin="round"/>
<path fill-rule="evenodd" clip-rule="evenodd" d="M1292.51 2240.62L1394.46 2129.32L1249.12 2192.45L1308.41 2187.29L1292.51 2240.62Z" fill="white"/>
<path fill-rule="evenodd" clip-rule="evenodd" d="M1190.24 2274.31L1184.96 2298.39L1209.18 2263.07L1190.24 2274.31Z" fill="white"/>
<path fill-rule="evenodd" clip-rule="evenodd" d="M1193.24 2346.62L1187.55 2379.9L1213.96 2347.96L1193.24 2346.62Z" fill="white"/>
<path fill-rule="evenodd" clip-rule="evenodd" d="M1190.18 2418.55L1211.84 2413.18L1186.54 2449.7L1190.18 2418.55Z" fill="white"/>
<path fill-rule="evenodd" clip-rule="evenodd" d="M1311.48 2304.3L1268.11 2320.23L1311.45 2317.52L1329.27 2322.58L1311.48 2304.3Z" fill="white"/>
<path fill-rule="evenodd" clip-rule="evenodd" d="M980.027 2292.74L1007.05 2327.42L988.193 2327.18L980.027 2292.74Z" fill="black" fill-opacity="0.3"/>
<path fill-rule="evenodd" clip-rule="evenodd" d="M979.654 2364.33L1006.68 2399.01L987.82 2398.77L979.654 2364.33Z" fill="black" fill-opacity="0.3"/>
<path fill-rule="evenodd" clip-rule="evenodd" d="M981.412 2433.03L1008.44 2467.71L989.578 2467.47L981.412 2433.03Z" fill="black" fill-opacity="0.3"/>
<path fill-rule="evenodd" clip-rule="evenodd" d="M941.615 2346.46L960.531 2386.15L942.169 2381.85L941.615 2346.46Z" fill="black" fill-opacity="0.3"/>
<path fill-rule="evenodd" clip-rule="evenodd" d="M948.832 2279.85L967.748 2319.54L949.386 2315.24L948.832 2279.85Z" fill="black" fill-opacity="0.3"/>
<path fill-rule="evenodd" clip-rule="evenodd" d="M950.486 2422.22L969.402 2461.91L951.04 2457.61L950.486 2422.22Z" fill="black" fill-opacity="0.3"/>
<path fill-rule="evenodd" clip-rule="evenodd" d="M408.779 1989.8L458.198 1945.53L583.01 1960.92L637.461 2086.02L560.179 1984.16L468.99 1995.08L421.825 2053.27L380.834 2118.33L514.834 2192.54L380.665 2212.43L478.688 2303.7L598.454 2310.84L647.662 2429.55L765.788 2440.63L633.618 2458.9L578.563 2344.54L545.584 2355.53L377.779 2209.21L372.228 2119.76L434.611 2017.13L408.779 1989.8Z" fill="#FF2E33" stroke="#810306" stroke-width="10" stroke-miterlimit="1.5" stroke-linecap="round" stroke-linejoin="round"/>
<path fill-rule="evenodd" clip-rule="evenodd" d="M809.196 2352.67L838.061 2303.65L827.74 2250.63C770.367 2193.37 665.53 2090.33 600.076 2122.7L538.75 2145.15C538.75 2145.15 582.084 2268.4 621.824 2278.23C647.593 2317.27 685.975 2357.29 792.356 2332.09L783.281 2390.46L809.196 2352.67Z" fill="#FF2E33" stroke="#810306" stroke-width="9.99999" stroke-miterlimit="2" stroke-linejoin="round"/>
<path fill-rule="evenodd" clip-rule="evenodd" d="M1511.87 825.824L1619.01 992.271L1778.78 1286.87L1608.88 1025.58L1463.91 825.227L1375.55 824.127L1584.2 1049.83L1692.1 1301.61L1566.88 1069.07L1289.31 823.057L1511.87 825.824Z" fill="#FF2E33" stroke="#810306" stroke-width="9.75921" stroke-miterlimit="1.5" stroke-linecap="round" stroke-linejoin="round"/>
<path fill-rule="evenodd" clip-rule="evenodd" d="M1930.18 1451.81L1849.33 1410.86L1758.68 1398.63L1829.39 1459.3L1864.07 1508.68L1813 1552.62L1755.82 1528.99L1647.54 1534.57L1746.45 1567.85L1749.65 1607.11L1930.18 1451.81Z" fill="#FF2E33" stroke="black" stroke-width="9.57899" stroke-miterlimit="1.5" stroke-linecap="round" stroke-linejoin="round"/>
<path fill-rule="evenodd" clip-rule="evenodd" d="M1787.13 1719.78L1697.15 1713.36L1603.52 1740.44L1715.64 1761.95L1813.88 1772.12L1824.96 1843.44L1700.49 1850.34L1604.08 1899.52L1721.49 1886.59L1801.51 1923.75L1830.48 1847.1L1813.88 1772.12L1787.13 1719.78Z" fill="#FF2E33"/>
<path d="M1813.88 1772.12L1715.64 1761.95L1603.52 1740.44L1697.15 1713.36L1787.13 1719.78L1813.88 1772.12ZM1813.88 1772.12L1824.96 1843.44L1700.49 1850.34L1604.08 1899.52L1721.49 1886.59L1801.51 1923.75L1830.48 1847.1L1813.88 1772.12Z" stroke="#810306" stroke-width="10" stroke-miterlimit="1.5" stroke-linecap="round" stroke-linejoin="round"/>
<path fill-rule="evenodd" clip-rule="evenodd" d="M1273.91 841.24L1588.73 829.842L1603.84 854.279L1273.91 841.24Z" fill="white"/>
<path fill-rule="evenodd" clip-rule="evenodd" d="M1684.68 969.404L1677.63 971.051L1696.38 996.979L1699.9 989.802L1684.68 969.404Z" fill="white" fill-opacity="0.7"/>
<path fill-rule="evenodd" clip-rule="evenodd" d="M1864.34 849.908C1881.72 973.429 1894.67 1197.57 1887.14 1242.9C1919.4 1263.74 1936.51 1310.4 1945.06 1309.07C1953.62 1307.73 1938.78 1250.02 1938.48 1234.89C1935.56 1087.7 1864.34 849.908 1864.34 849.908Z" fill="white" fill-opacity="0.7"/>
<path fill-rule="evenodd" clip-rule="evenodd" d="M1858.52 1278.75C1882.41 1286.84 1934.15 1322.59 1952.49 1377.73L1780.89 1459.61C1780.89 1459.61 1888.84 1394.02 1896.38 1362.8C1903.85 1331.89 1858.52 1278.75 1858.52 1278.75Z" fill="white" fill-opacity="0.7"/>
<path fill-rule="evenodd" clip-rule="evenodd" d="M1936.59 1420.68C1936.59 1420.68 1773.6 1471.72 1732.66 1515.8C1691.72 1559.88 1705.77 1652.36 1705.77 1652.36C1758.08 1586.47 1825.37 1537.15 1913.12 1460.78C1929.45 1446.57 1921.52 1437.65 1936.59 1420.68Z" fill="black" fill-opacity="0.3"/>
<path fill-rule="evenodd" clip-rule="evenodd" d="M232.868 1475.74L319.687 1410.85L410.329 1398.63L339.62 1459.29L272.197 1521.97L319.492 1561.89L413.197 1528.99L521.476 1534.57L422.561 1567.84L392.882 1624.85L323.442 1565.83L232.868 1475.74Z" fill="#FF2E33" stroke="black" stroke-width="9.57898" stroke-miterlimit="1.5" stroke-linecap="round" stroke-linejoin="round"/>
<path fill-rule="evenodd" clip-rule="evenodd" d="M391.341 1725.08L471.864 1713.36L565.492 1740.44L453.375 1761.95L354.984 1773.85L335.774 1840.11L468.516 1850.34L564.935 1899.52L447.523 1886.6L350.887 1930.81C332.981 1905.54 331.745 1880.56 335.16 1842.23L354.984 1773.85L391.341 1725.08Z" fill="#FF2E33"/>
<path d="M354.984 1773.85L453.375 1761.95L565.492 1740.44L471.864 1713.36L391.341 1725.08L354.984 1773.85ZM354.984 1773.85L335.774 1840.11L468.516 1850.34L564.935 1899.52L447.523 1886.6L350.887 1930.81C332.981 1905.54 331.745 1880.56 335.16 1842.23L354.984 1773.85Z" stroke="black" stroke-width="10" stroke-miterlimit="1.5" stroke-linecap="round" stroke-linejoin="round"/>
<path fill-rule="evenodd" clip-rule="evenodd" d="M1748.03 1971.59L1698.61 1927.32L1573.8 1942.71L1519.35 2067.81L1596.63 1965.95L1687.82 1976.87L1734.98 2035.06L1775.98 2100.12L1641.98 2174.33L1776.14 2194.21L1670.86 2268.27L1580.87 2284.65L1580.22 2402.42L1410.57 2417.12L1594.25 2431.76L1626.18 2322.53L1667.67 2315.21L1779.03 2191L1784.58 2101.55L1722.2 1998.91L1748.03 1971.59Z" fill="#FF2E33" stroke="#810306" stroke-width="10" stroke-miterlimit="1.5" stroke-linecap="round" stroke-linejoin="round"/>
<path fill-rule="evenodd" clip-rule="evenodd" d="M1799.29 1849.81C1839.5 1762.61 1692.37 1658.62 1692.37 1658.62C1692.37 1658.62 1759.47 1704.62 1780.7 1735.77C1801.94 1766.91 1830.41 1808.13 1819.79 1845.47C1807.37 1889.12 1715.14 1948.66 1706.22 1997.63C1697.3 2046.6 1769.87 2101.72 1766.26 2139.27C1762.65 2176.82 1704.32 2189.31 1684.59 2222.92C1661.17 2262.79 1625.76 2378.52 1625.76 2378.52C1625.76 2378.52 1648.04 2262.94 1666.35 2221.67C1682.37 2185.56 1742.13 2168.8 1745.03 2129.39C1747.96 2089.63 1668.18 2059.49 1678.79 2012.64C1689.4 1965.79 1781.6 1888.15 1799.29 1849.81Z" fill="white"/>
<path fill-rule="evenodd" clip-rule="evenodd" d="M646.732 846.12L514.51 1004.29L358.973 1274.22L524.893 1038.42L708.481 840.68L793.337 833.204L550.175 1063.27L455.544 1290.64L567.923 1082.99L876.592 825.871L646.732 846.12Z" fill="#FF2E33" stroke="#810306" stroke-width="9.99999" stroke-miterlimit="1.5" stroke-linecap="round" stroke-linejoin="round"/>
<path fill-rule="evenodd" clip-rule="evenodd" d="M355.549 778.011L496.07 775.019L607.72 846.119L524.163 817.698L483.875 856.982L480.439 801.527L428.478 799.786L418.91 875.456L367.628 798.115L333.56 831.806L367.437 935.116L303.651 862.114L292.58 914.304L326.998 1014.81L275.961 963.78L265.72 1014.42L292.747 1082.68L239.537 1064.11L263.663 948.743L298.996 840.713L355.549 778.011Z" fill="#FF2E33" stroke="#810306" stroke-width="6.54316" stroke-miterlimit="1.5" stroke-linecap="round" stroke-linejoin="round"/>
<path fill-rule="evenodd" clip-rule="evenodd" d="M494.232 783.199L565.783 846.587L549.812 854.155L494.232 783.199Z" fill="white"/>
<path fill-rule="evenodd" clip-rule="evenodd" d="M1718.76 736.822L1778.68 780.588L1827.51 940.6L1752.64 809.95L1696.86 771.386L1655.85 803.088L1736.4 847.198L1765.38 943.596L1724.74 875.486L1644.07 836.867L1579.24 828.437L1718.76 736.822Z" fill="#FF2E33" stroke="black" stroke-width="6.54316" stroke-miterlimit="1.5" stroke-linecap="round" stroke-linejoin="round"/>
<path fill-rule="evenodd" clip-rule="evenodd" d="M604.32 850.688L596.293 872.107L889.34 844.674L604.32 850.688Z" fill="white"/>
<path fill-rule="evenodd" clip-rule="evenodd" d="M1081.47 844.879C1387.48 844.879 1622.77 1121.3 1622.77 1468.61C1622.77 1685.65 1614.85 1862.21 1467.98 2025.37C1379.82 2123.3 1080.74 2138.34 1080.74 2138.34C1080.74 2138.34 811.008 2113.9 736.45 2045.74C567.658 1891.41 538.131 1715.45 538.131 1474.55C538.131 1127.25 775.466 844.879 1081.47 844.879ZM1080.5 876.776C790.923 876.776 557.86 1144.55 557.86 1473.21C557.86 1801.88 791.893 2069.65 1081.47 2069.65C1247.38 2069.65 1395.05 1981.75 1490.93 1844.87C1562.39 1742.83 1597.93 1612.98 1597.93 1472.62C1597.93 1143.95 1370.08 876.776 1080.5 876.776Z" fill="#808080" stroke="white" stroke-width="12.0025" stroke-miterlimit="2" stroke-linejoin="round"/>
<path fill-rule="evenodd" clip-rule="evenodd" d="M1132.81 856.861C1176.1 867.191 1218.91 877.962 1258.36 894.115C1299.8 911.088 1337.72 933.708 1376.65 955.449C1376.65 955.449 1299.88 900.316 1258.74 884.328C1217.85 868.435 1132.81 856.861 1132.81 856.861Z" fill="white"/>
<path fill-rule="evenodd" clip-rule="evenodd" d="M596.909 2062.18C468.469 1870.74 487.196 2165.4 487.196 2165.4C499.983 2244.45 621.89 2337.27 702.843 2401.01C715.167 2410.72 847.848 2367.36 847.848 2367.36C847.848 2367.36 761.796 2443.47 772.42 2450.1C781.709 2455.89 790.72 2461.19 799.332 2465.94C808.801 2471.16 826.176 2506.12 857.992 2524.59C878.531 2536.52 918.306 2528.34 921.555 2545.22C923.412 2554.86 1031.26 2590.68 1089.11 2623.78C1122.44 2642.85 1073.93 2666.68 1069.93 2672.21C1047.93 2702.62 846.854 2646.38 843.632 2636.09C843.632 2636.09 705.196 2563.11 636.351 2506.6C594.925 2472.6 610.193 2393.28 576.596 2368.98C526.933 2333.06 541.44 2376.78 517.028 2344.84C511.089 2328.64 314.04 2232.48 296.512 2210.49C261.824 2166.98 404.176 2078.31 400.166 2060.53C394.774 2036.62 279.159 1970.93 253.222 1910.39C243.695 1888.15 348.896 1759.66 349.655 1744.77C350.653 1725.18 457.447 1696.27 458.487 1676.26L200.936 1457.92L187.891 1361.48C196.38 1321.25 266.938 919.332 266.938 919.332C266.938 919.332 266.533 1315.93 300.526 1370.33C323.921 1407.77 403.074 1460.23 435.252 1513.55C449.007 1536.35 464.287 1569.33 470 1568.95C475.714 1568.59 469.011 1530.07 469.533 1511.34C477.163 1237.65 626.646 1064.31 792.939 932.381L791.19 980.06C628.298 1090.35 562.826 1285.84 566.899 1542.15C589.341 1693.39 649.271 1818.95 739.996 1912.07C794.239 1967.74 859.279 2007.99 934.487 2045.82C934.487 2045.82 864.104 2026.79 844.369 2043.18C833.98 2051.81 866.583 2085.91 868.035 2103.8C871.332 2144.45 1029.09 2279.83 1020.91 2286.64C1013.48 2292.81 821.346 2159.62 767.54 2118.46C694.742 2062.77 614.152 2087.88 596.909 2062.18Z" fill="black" fill-opacity="0.3"/>
<path d="M603.113 833.545C590.476 853.581 551.117 881.608 512.751 938.6C428.732 1063.41 322.606 1249.86 322.606 1249.86C322.606 1249.86 217.622 1296.96 192.982 1396.56" stroke="white" stroke-width="7.99999" stroke-miterlimit="1.5" stroke-linecap="round" stroke-linejoin="round"/>
<path d="M322.607 1249.86L534.33 1667.65L542.242 1978.82L436.809 2043.09" stroke="white" stroke-width="6.99999" stroke-miterlimit="1.5" stroke-linecap="square" stroke-linejoin="round"/>
<path d="M542.242 1978.82L736.086 2111.53L790.79 2098.33C870.127 2157.59 953.558 2195.39 1039.07 2222.3" stroke="white" stroke-width="6.99999" stroke-miterlimit="1.5" stroke-linecap="square" stroke-linejoin="round"/>
<path d="M1563.99 833.545C1576.63 853.581 1615.99 881.608 1654.35 938.6C1738.37 1063.41 1844.5 1249.86 1844.5 1249.86C1844.5 1249.86 1949.48 1296.96 1974.12 1396.56" stroke="white" stroke-width="7.99999" stroke-miterlimit="1.5" stroke-linecap="round" stroke-linejoin="round"/>
<path d="M1844.5 1249.86L1632.78 1667.65L1624.86 1978.82L1730.3 2043.09" stroke="white" stroke-width="6.99999" stroke-miterlimit="1.5" stroke-linecap="square" stroke-linejoin="round"/>
<path d="M1624.86 1978.82L1431.02 2111.53L1376.32 2098.33C1296.98 2157.59 1213.55 2195.39 1128.04 2222.3" stroke="white" stroke-width="6.99999" stroke-miterlimit="1.5" stroke-linecap="square" stroke-linejoin="round"/>
<path fill-rule="evenodd" clip-rule="evenodd" d="M1570.28 1759.38C1566.86 1793.26 1501.25 1941.97 1405.64 2021.14C1385.6 2037.74 1220.19 2102.68 1163.69 2094.2C1137.21 2090.23 1226.56 2078.48 1290.93 2046.61C1413.04 1986.16 1521.11 1866.59 1570.28 1759.38Z" fill="white"/>
<path d="M843.814 2304.01L983.081 2332.66L934.411 2233.53L1045.16 2288.85L1038.74 2225.31" stroke="white" stroke-width="8.99945" stroke-miterlimit="1.5" stroke-linecap="square" stroke-linejoin="round"/>
<path d="M1316.66 2292.97L1185.45 2334.58L1234.12 2235.45L1123.38 2290.77L1128.17 2224.49" stroke="white" stroke-width="8.99945" stroke-miterlimit="1.5" stroke-linecap="square" stroke-linejoin="round"/>
<path d="M936.247 2389.03L982.211 2407.25L935.129 2315.56L1045.47 2358.49L1017.1 2278.87" stroke="white" stroke-width="8.98152" stroke-miterlimit="1.5" stroke-linecap="square" stroke-linejoin="round"/>
<path d="M1232.09 2390.38L1188.45 2409.39L1243.8 2319.02L1125.18 2360.63L1156.29 2277.06" stroke="white" stroke-width="8.98152" stroke-miterlimit="1.5" stroke-linecap="square" stroke-linejoin="round"/>
<path d="M826.402 2441.17L983.658 2470.41L934.059 2385.49L1052.33 2437.4L1014.75 2349.5" stroke="white" stroke-width="8.92866" stroke-miterlimit="1.5" stroke-linecap="square" stroke-linejoin="round"/>
<path d="M1366.84 2438.44L1189.9 2472.06L1239.5 2387.13L1126.63 2434.53L1158.64 2350.81" stroke="white" stroke-width="8.92866" stroke-miterlimit="1.5" stroke-linecap="square" stroke-linejoin="round"/>
<path fill-rule="evenodd" clip-rule="evenodd" d="M1099.11 2625.26L951.911 2569.24L960.734 2546.78L945.67 2526.89L912.562 2536.17L821.086 2436.39C821.086 2436.39 859.852 2470.9 931.781 2481.93C969.208 2487.67 1066.08 2557.5 1097.62 2561.5C1126.77 2565.19 1229.64 2483.51 1275.83 2477.13C1326.78 2470.08 1372.86 2433.84 1372.86 2433.84L1281.38 2533.62L1248.27 2524.33L1233.21 2544.22L1242.03 2566.69L1099.11 2625.26Z" fill="#FF2E33" stroke="#FFAAAC" stroke-width="11.9365" stroke-miterlimit="1.5" stroke-linecap="square" stroke-linejoin="round"/>
<path fill-rule="evenodd" clip-rule="evenodd" d="M842.537 2455.5L949.352 2487.22L1070.83 2552.67C1070.83 2552.67 1058.86 2554.66 1054.34 2567.66C1049.82 2580.66 1087.44 2611.64 1087.44 2611.64L1106.57 2623.83L1241.78 2564.66L1255.74 2568.27L1351.74 2656.23L1284.91 2654.1L1233.69 2571.67L1106.57 2623.83L953.921 2570.23L842.537 2455.5Z" fill="black" fill-opacity="0.3"/>
<path fill-rule="evenodd" clip-rule="evenodd" d="M1256.98 2525.74C1248.58 2527.26 1241.43 2528.7 1240.38 2545.1C1239.87 2553.13 1319.49 2649.11 1329.89 2655.67C1338.27 2660.95 1355 2663.67 1359.56 2656.71C1364.13 2649.74 1371.75 2636.77 1366.34 2628.92C1359.4 2618.87 1265.6 2524.19 1256.98 2525.74Z" fill="#777777" stroke="white" stroke-width="9.99998" stroke-miterlimit="1.5" stroke-linecap="square" stroke-linejoin="round"/>
<path fill-rule="evenodd" clip-rule="evenodd" d="M939.689 2527.67C948.089 2529.19 955.239 2530.63 956.289 2547.03C956.799 2555.06 877.179 2651.03 866.779 2657.59C858.399 2662.87 841.669 2665.6 837.109 2658.64C832.539 2651.67 824.919 2638.7 830.329 2630.85C837.269 2620.8 931.069 2526.12 939.689 2527.67Z" fill="#777777" stroke="white" stroke-width="9.99998" stroke-miterlimit="1.5" stroke-linecap="square" stroke-linejoin="round"/>
<path fill-rule="evenodd" clip-rule="evenodd" d="M933.811 2543.1C926.479 2549.25 899.875 2588.65 899.875 2588.65C899.875 2588.65 942.183 2554.13 947.271 2547.29C950.073 2543.51 937.41 2540.08 933.811 2543.1Z" fill="white"/>
<path fill-rule="evenodd" clip-rule="evenodd" d="M1261.02 2540.96L1340.44 2616.43C1340.44 2616.43 1289.1 2576.08 1275.3 2563.94C1268.53 2557.98 1261.02 2540.96 1261.02 2540.96Z" fill="white"/>
<path fill-rule="evenodd" clip-rule="evenodd" d="M697.028 2147.42C742.528 2159.65 813.834 2219.99 804.357 2256.04C791.414 2305.36 733.747 2318.65 688.21 2306.41C642.711 2294.17 615.207 2257.72 625.49 2207.74C635.764 2157.8 651.491 2135.17 697.028 2147.42Z" fill="#F7F189" stroke="black" stroke-width="21.0468" stroke-miterlimit="1.5" stroke-linecap="round" stroke-linejoin="round"/>
<path d="M715.413 2300.1C723.88 2300.1 730.743 2271.38 730.743 2235.95C730.743 2200.52 723.88 2171.8 715.413 2171.8C706.947 2171.8 700.084 2200.52 700.084 2235.95C700.084 2271.38 706.947 2300.1 715.413 2300.1Z" fill="black"/>
<path d="M739.993 2266.57C752.703 2269.99 765.612 2260.09 768.827 2244.47C772.042 2228.84 764.345 2213.4 751.635 2209.98C738.925 2206.57 726.015 2216.46 722.8 2232.09C719.585 2247.72 727.283 2263.15 739.993 2266.57Z" fill="white" fill-opacity="0.8"/>
<path fill-rule="evenodd" clip-rule="evenodd" d="M1347.62 2334.5L1318.76 2285.48L1329.08 2232.46C1386.45 2175.2 1491.29 2072.16 1556.74 2104.53L1618.07 2126.98C1618.07 2126.98 1574.73 2250.23 1534.99 2260.06C1509.23 2299.1 1470.84 2339.12 1364.46 2313.92L1373.54 2372.29L1347.62 2334.5Z" fill="#FF2E33" stroke="#810306" stroke-width="10.0161" stroke-miterlimit="2" stroke-linejoin="round"/>
<path fill-rule="evenodd" clip-rule="evenodd" d="M1459.27 2147.42C1413.77 2159.65 1342.46 2219.99 1351.94 2256.04C1364.88 2305.36 1422.55 2318.65 1468.09 2306.41C1513.59 2294.17 1539.63 2237.38 1529.35 2187.45C1519.08 2137.51 1504.81 2135.17 1459.27 2147.42Z" fill="#F7F189" stroke="black" stroke-width="21.0468" stroke-miterlimit="1.5" stroke-linecap="round" stroke-linejoin="round"/>
<path d="M1432.52 2301.41C1440.83 2301.41 1447.57 2272.99 1447.57 2237.94C1447.57 2202.89 1440.83 2174.47 1432.52 2174.47C1424.21 2174.47 1417.47 2202.89 1417.47 2237.94C1417.47 2272.99 1424.21 2301.41 1432.52 2301.41Z" fill="black"/>
<path d="M1464.59 2246.31C1451.88 2249.72 1438.97 2239.83 1435.75 2224.2C1432.54 2208.57 1440.23 2193.14 1452.94 2189.72C1465.65 2186.3 1478.56 2196.2 1481.78 2211.82C1484.99 2227.45 1477.3 2242.89 1464.59 2246.31Z" fill="white" fill-opacity="0.8"/>
<path fill-rule="evenodd" clip-rule="evenodd" d="M1356.8 1021.61C1356.8 1021.61 1525.22 1227.56 1524.7 1359.24C1523.8 1587.83 1415.96 1824.39 1415.96 1824.39C1525.65 1521.86 1477.75 1244.58 1356.8 1021.61Z" fill="white"/>
</g>
<defs>
<clipPath id="clip0_876_244">
<rect width="2160" height="2700" fill="white"/>
</clipPath>
</defs>
</svg>
