<svg width="2160" height="2700" viewBox="0 0 2160 2700" fill="none" xmlns="http://www.w3.org/2000/svg">
<path fill-rule="evenodd" clip-rule="evenodd" d="M1079.21 814.212C1216.12 814.212 1529.97 790.642 1725.79 902.744C1876.85 989.224 1925.55 1192.51 1967.92 1325.75C1973.03 1341.82 1960.47 1382.68 1960.47 1382.68L1704.7 1657.22L1686.51 1717.3L1643.13 1942.2C1613.33 2096.36 1530.13 2211.76 1403.36 2295.54C1403.36 2295.54 1387.54 2325.4 1388.14 2362.64C1388.43 2380.74 1401.41 2425.3 1397.83 2428.9C1299.72 2527.67 1180.63 2620.39 1079.21 2620.39C863.771 2620.39 566.563 2201.4 566.563 2201.4L471.91 1717.3L451.907 1666.88L309.576 1510.81C309.576 1510.81 445.247 1513.22 463.636 1463.74C515.474 1324.24 605.544 1120.06 729.785 982.749C810.481 893.571 609.664 855.561 649.3 847.435C808.216 814.852 972.994 814.212 1079.21 814.212ZM1082.49 885.247C797.884 885.247 566.82 1148.41 566.82 1472.55C566.82 1796.7 806.409 2062.89 1082.49 2059.86C1371.23 2056.69 1598.17 1796.7 1598.17 1472.55C1598.17 1148.41 1367.1 885.247 1082.49 885.247Z" fill="#777777" stroke="white" stroke-width="13.0017" stroke-miterlimit="1.5" stroke-linecap="round" stroke-linejoin="round"/>
<path fill-rule="evenodd" clip-rule="evenodd" d="M1081.47 844.879C1387.48 844.879 1636.97 1125.91 1636.97 1473.21C1636.97 1820.51 1387.48 2101.54 1081.47 2101.54C775.466 2101.54 525.963 1820.51 525.963 1473.21C525.963 1125.91 775.466 844.879 1081.47 844.879ZM1081.74 883.061C792.166 883.061 563.598 1145.1 563.598 1473.76C563.598 1802.42 790.78 2062.19 1080.36 2062.19C1369.94 2062.19 1600.6 1801.88 1600.6 1473.21C1600.6 1144.55 1371.33 883.061 1081.74 883.061Z" fill="#42AB84" stroke="white" stroke-width="10.0039" stroke-miterlimit="2" stroke-linejoin="round"/>
<path fill-rule="evenodd" clip-rule="evenodd" d="M879.659 2523.47C879.016 2524.58 877.599 2524.95 876.495 2524.31C875.392 2523.66 875.018 2522.25 875.662 2521.14L954.332 2383.11L836.301 2292.7C835.034 2291.72 834.371 2290.15 834.551 2288.56C834.551 2288.56 838.823 2251.36 844.526 2204.01C854.523 2121.02 868.765 2006.85 868.765 2006.85C868.909 2005.58 870.056 2004.67 871.325 2004.81C872.594 2004.96 873.508 2006.1 873.364 2007.37C873.364 2007.37 861.689 2121.83 852.856 2204.96C848.593 2245.07 844.957 2277.88 843.937 2287.04L961.787 2379C963.336 2380.2 963.756 2382.36 962.771 2384.05L879.659 2523.47Z" fill="white"/>
<path fill-rule="evenodd" clip-rule="evenodd" d="M1317.67 2520.87C1318.31 2521.98 1317.94 2523.39 1316.83 2524.04C1315.73 2524.68 1314.31 2524.31 1313.67 2523.2L1230.56 2383.78C1229.57 2382.09 1229.99 2379.93 1231.54 2378.73L1349.39 2286.77C1348.37 2277.61 1344.74 2244.8 1340.47 2204.69C1331.64 2121.56 1319.96 2007.1 1319.96 2007.1C1319.82 2005.83 1320.73 2004.69 1322 2004.54C1323.27 2004.4 1324.42 2005.31 1324.56 2006.58C1324.56 2006.58 1338.81 2120.75 1348.8 2203.74C1354.51 2251.09 1358.78 2288.29 1358.78 2288.29C1358.96 2289.88 1358.29 2291.45 1357.03 2292.43L1239 2382.84L1317.67 2520.87Z" fill="white"/>
<path fill-rule="evenodd" clip-rule="evenodd" d="M625.64 1979.77C616.01 1989.39 612.223 2003.43 613.651 2019.43C615.872 2044.26 774.708 2129.01 774.708 2129.01C774.708 2129.01 787.819 2106.44 786.836 2091.22C785.218 2066.01 650.203 1955.23 625.64 1979.77Z" fill="#7EED56" stroke="black" stroke-width="16.178" stroke-miterlimit="1.5" stroke-linecap="square" stroke-linejoin="round"/>
<path fill-rule="evenodd" clip-rule="evenodd" d="M792.108 2250.95C801.738 2241.33 805.525 2227.29 804.097 2211.29C801.876 2186.46 643.04 2101.72 643.04 2101.72C643.04 2101.72 629.929 2124.28 630.912 2139.5C632.53 2164.71 767.545 2275.49 792.108 2250.95Z" fill="#7EED56" stroke="black" stroke-width="16.178" stroke-miterlimit="1.5" stroke-linecap="square" stroke-linejoin="round"/>
<path d="M1087.53 2349C1150.79 2349 1202.08 2326.46 1202.08 2298.66C1202.08 2270.87 1150.79 2248.33 1087.53 2248.33C1024.26 2248.33 972.975 2270.87 972.975 2298.66C972.975 2326.46 1024.26 2349 1087.53 2349Z" fill="#7EED56" stroke="black" stroke-width="11.7556" stroke-miterlimit="1.5" stroke-linecap="square" stroke-linejoin="round"/>
<path fill-rule="evenodd" clip-rule="evenodd" d="M1565.05 1958.83C1574.68 1968.45 1578.47 1982.49 1577.04 1998.49C1574.82 2023.32 1415.98 2108.07 1415.98 2108.07C1415.98 2108.07 1402.87 2085.5 1403.85 2070.28C1405.47 2045.07 1540.49 1934.29 1565.05 1958.83Z" fill="#7EED56" stroke="black" stroke-width="16.178" stroke-miterlimit="1.5" stroke-linecap="square" stroke-linejoin="round"/>
<path fill-rule="evenodd" clip-rule="evenodd" d="M1393.98 2221.45C1384.35 2211.84 1380.56 2197.79 1381.99 2181.79C1384.21 2156.96 1543.04 2072.22 1543.04 2072.22C1543.04 2072.22 1556.15 2094.78 1555.17 2110C1553.55 2135.21 1418.54 2245.99 1393.98 2221.45Z" fill="#7EED56" stroke="black" stroke-width="16.178" stroke-miterlimit="1.5" stroke-linecap="square" stroke-linejoin="round"/>
<path fill-rule="evenodd" clip-rule="evenodd" d="M746.524 936.866C764.871 903.609 558.116 816.329 524.859 797.981C524.859 797.981 353.222 803.777 335.031 845.994L71.3364 1323.98C52.9876 1357.24 65.0927 1399.14 98.3498 1417.49L218.864 1483.97C252.124 1502.32 413.826 1518.05 432.174 1484.79L746.524 936.866Z" fill="#D1D1D1" stroke="white" stroke-width="13.4712" stroke-miterlimit="1.5" stroke-linecap="round" stroke-linejoin="round"/>
<path fill-rule="evenodd" clip-rule="evenodd" d="M728.562 984.735C748.63 948.357 735.39 902.53 699.009 882.459L567.186 809.736C530.808 789.667 484.981 802.908 464.912 839.286L334.216 1033.51L208.157 1304.7C188.088 1341.07 201.329 1386.9 237.707 1406.97L369.529 1479.69C405.911 1499.76 451.738 1486.52 471.806 1450.15L574.455 1207.42L728.562 984.735Z" fill="#777777" stroke="white" stroke-width="13.4765" stroke-miterlimit="1.5" stroke-linecap="round" stroke-linejoin="round"/>
<path fill-rule="evenodd" clip-rule="evenodd" d="M645.72 956.573L512.097 857.248L388.872 1038.09L246.428 1325.47L419.273 1420.12L532.088 1151.13L645.72 956.573Z" fill="black" stroke="#FAF6B0" stroke-width="19" stroke-miterlimit="1.5" stroke-linecap="round" stroke-linejoin="round"/>
<path fill-rule="evenodd" clip-rule="evenodd" d="M328.409 1366.62C327.378 1368.28 325.191 1368.8 323.527 1367.76C321.864 1366.73 321.351 1364.55 322.381 1362.88L397.014 1239.48L354.856 1184.75C353.402 1182.83 353.281 1180.22 354.541 1178.17C355.8 1176.13 358.179 1175.06 360.548 1175.49L456.317 1192.08L406.427 1132.99C404.641 1130.86 404.28 1127.88 405.507 1125.38C406.733 1122.89 409.316 1121.36 412.092 1121.47L485.53 1124.62L414.482 1041.95C412.887 1040.12 412.567 1037.5 413.672 1035.34C414.776 1033.18 417.083 1031.91 419.495 1032.14L512.134 1041.56L578.876 924.01C579.822 922.298 581.982 921.677 583.694 922.624C585.407 923.572 586.027 925.731 585.081 927.443L519.339 1049.39C518.365 1051.15 516.443 1052.16 514.441 1051.98L433.193 1045.19L506.152 1127.64C507.947 1129.69 508.345 1132.62 507.164 1135.09C505.983 1137.55 503.448 1139.07 500.719 1138.96L427.29 1136.11L478.411 1197.51C480.22 1199.67 480.483 1202.73 479.069 1205.17C477.654 1207.6 474.866 1208.89 472.094 1208.39L373.05 1189.72L407.336 1236.03C408.616 1237.72 408.723 1240.03 407.604 1241.84L328.409 1366.62Z" fill="#FAF6B0"/>
<path fill-rule="evenodd" clip-rule="evenodd" d="M1572.65 957.508C1554.3 924.25 1590.59 794.871 1623.85 776.524C1623.85 776.524 1795.49 782.319 1813.68 824.536L2077.37 1302.53C2095.72 1335.79 2083.62 1377.68 2050.36 1396.03L1929.85 1462.51C1896.59 1480.86 1734.88 1496.6 1716.54 1463.34L1572.65 957.508Z" fill="#8D8D8D" stroke="white" stroke-width="13.4712" stroke-miterlimit="1.5" stroke-linecap="round" stroke-linejoin="round"/>
<path fill-rule="evenodd" clip-rule="evenodd" d="M1420.15 963.276C1400.08 926.898 1413.32 881.071 1449.7 861L1581.52 788.277C1617.9 768.208 1663.73 781.449 1683.8 817.827L1814.49 1012.05L1940.55 1283.24C1960.62 1319.61 1947.38 1365.44 1911 1385.51L1779.18 1458.23C1742.8 1478.3 1696.97 1465.06 1676.9 1428.69L1574.26 1185.96L1420.15 963.276Z" fill="#777777" stroke="white" stroke-width="13.4765" stroke-miterlimit="1.5" stroke-linecap="round" stroke-linejoin="round"/>
<path fill-rule="evenodd" clip-rule="evenodd" d="M1490.06 933.841L1623.68 834.516L1746.91 1015.36L1889.35 1302.73L1716.51 1397.38L1603.69 1128.4L1490.06 933.841Z" fill="black" stroke="#FAF6B0" stroke-width="19" stroke-miterlimit="1.5" stroke-linecap="round" stroke-linejoin="round"/>
<path fill-rule="evenodd" clip-rule="evenodd" d="M1813.4 1340.15C1814.43 1341.82 1813.92 1344 1812.25 1345.03C1810.59 1346.06 1808.4 1345.55 1807.37 1343.89L1728.18 1219.1C1727.06 1217.3 1727.16 1214.99 1728.44 1213.3L1762.73 1166.99L1663.69 1185.66C1660.92 1186.16 1658.13 1184.87 1656.71 1182.44C1655.3 1180 1655.56 1176.94 1657.37 1174.78L1708.49 1113.38L1635.06 1116.23C1632.33 1116.34 1629.8 1114.82 1628.62 1112.35C1627.44 1109.89 1627.83 1106.96 1629.63 1104.9L1702.59 1022.46L1621.34 1029.24C1619.34 1029.43 1617.42 1028.41 1616.44 1026.65L1550.7 904.711C1549.75 902.999 1550.37 900.839 1552.09 899.892C1553.8 898.944 1555.96 899.565 1556.91 901.277L1623.65 1018.83L1716.29 1009.4C1718.7 1009.18 1721.01 1010.45 1722.11 1012.61C1723.21 1014.77 1722.89 1017.39 1721.3 1019.21L1650.25 1101.89L1723.69 1098.74C1726.46 1098.62 1729.05 1100.16 1730.27 1102.65C1731.5 1105.15 1731.14 1108.13 1729.35 1110.26L1679.46 1169.35L1775.23 1152.76C1777.6 1152.33 1779.98 1153.4 1781.24 1155.44C1782.5 1157.49 1782.38 1160.09 1780.93 1162.01L1738.77 1216.75L1813.4 1340.15Z" fill="#FAF6B0"/>
<path fill-rule="evenodd" clip-rule="evenodd" d="M1653.98 1947.12C1704.18 1887.23 1810.38 1914.84 1810.38 1914.84C1810.38 1914.84 1858.67 1985.01 1859.54 2050.06L1700.44 2362.25C1640.32 2492.63 1329.47 2518.68 1401.42 2296.8C1483.3 2283.62 1623.13 2064.65 1653.98 1947.12Z" fill="#777777" stroke="white" stroke-width="11.001" stroke-miterlimit="1.5" stroke-linecap="round" stroke-linejoin="round"/>
<path d="M1524.49 2436.04C1474.84 2436.04 1434.6 2405.82 1434.6 2368.55C1434.6 2331.27 1474.84 2301.05 1524.49 2301.05C1574.13 2301.05 1614.37 2331.27 1614.37 2368.55C1614.37 2405.82 1574.13 2436.04 1524.49 2436.04Z" fill="#FAF6B0" stroke="#D56113" stroke-width="8.68516" stroke-miterlimit="1.5" stroke-linecap="square" stroke-linejoin="round"/>
<path fill-rule="evenodd" clip-rule="evenodd" d="M1678.71 2386.9C1678.33 2388.12 1677.03 2388.8 1675.81 2388.42C1674.59 2388.04 1673.91 2386.74 1674.29 2385.52C1686.78 2344.05 1696.05 2300.51 1700.88 2253.89C1705.22 2211.98 1705.99 2167.57 1701.75 2119.85C1701.62 2118.21 1702.37 2116.62 1703.73 2115.69C1705.09 2114.76 1706.84 2114.64 1708.32 2115.36L1761.64 2141.51L1798.32 1926.7C1798.52 1925.44 1799.71 1924.58 1800.97 1924.79C1802.23 1924.99 1803.09 1926.18 1802.89 1927.44L1769.4 2148.81C1769.17 2150.19 1768.31 2151.39 1767.06 2152.04C1765.81 2152.69 1764.33 2152.7 1763.07 2152.09L1711.44 2127.04C1714.45 2172.38 1713.19 2214.73 1708.37 2254.73C1702.71 2301.67 1692.2 2345.35 1678.71 2386.9Z" fill="white"/>
<path fill-rule="evenodd" clip-rule="evenodd" d="M513.672 1944.38C460.7 1881.2 350.357 1918.65 350.357 1918.65C350.357 1918.65 308.91 1987.65 308.107 2047.32L453.907 2354.76C514.022 2485.14 846.427 2537.81 774.478 2315.93C692.596 2302.75 544.514 2061.91 513.672 1944.38Z" fill="#8D8D8D" stroke="white" stroke-width="16.178" stroke-miterlimit="1.5" stroke-linecap="round" stroke-linejoin="round"/>
<path d="M648.539 2442.4C698.18 2442.4 738.423 2412.18 738.423 2374.91C738.423 2337.63 698.18 2307.41 648.539 2307.41C598.897 2307.41 558.654 2337.63 558.654 2374.91C558.654 2412.18 598.897 2442.4 648.539 2442.4Z" fill="#FAF6B0" stroke="#D56113" stroke-width="8.68515" stroke-miterlimit="1.5" stroke-linecap="square" stroke-linejoin="round"/>
<path fill-rule="evenodd" clip-rule="evenodd" d="M483.689 2386.31C484.07 2387.53 483.39 2388.83 482.171 2389.21C480.952 2389.59 479.653 2388.91 479.272 2387.69C465.78 2346.14 455.267 2302.46 449.609 2255.52C444.786 2215.52 443.529 2173.17 446.54 2127.83L394.908 2152.88C393.646 2153.49 392.167 2153.48 390.921 2152.83C389.674 2152.18 388.808 2150.98 388.585 2149.6L355.094 1928.23C354.891 1926.97 355.75 1925.78 357.011 1925.58C358.271 1925.37 359.46 1926.23 359.663 1927.49L396.337 2142.3L449.663 2116.15C451.141 2115.43 452.892 2115.55 454.25 2116.48C455.607 2117.41 456.362 2119 456.226 2120.64C451.987 2168.36 452.758 2212.77 457.1 2254.68C461.93 2301.3 471.204 2344.84 483.689 2386.31Z" fill="white"/>
<path d="M1639.05 2162.92C1621.66 2168.3 1603.95 2160.82 1599.5 2146.21C1595.05 2131.61 1605.54 2115.4 1622.94 2110.02C1640.34 2104.63 1658.05 2112.11 1662.5 2126.72C1666.95 2141.33 1656.45 2157.53 1639.05 2162.92Z" fill="#FAF6B0"/>
<path fill-rule="evenodd" clip-rule="evenodd" d="M1622.37 2108.17C1631.02 2105.11 1639.85 2105.2 1647.35 2107.67C1656.23 2110.61 1663.12 2117.01 1666.09 2125.62C1669.05 2134.46 1667.22 2143.98 1661.82 2151.93C1657.13 2158.83 1649.64 2164.45 1640.45 2167.42C1631.18 2170.17 1621.85 2169.76 1614.11 2166.69C1605.2 2163.16 1598.37 2156.32 1595.89 2147.31C1593.56 2138.51 1595.69 2129.32 1601.41 2121.88C1606.24 2115.59 1613.51 2110.53 1622.37 2108.17ZM1623.51 2111.86C1615.95 2114.54 1609.94 2119.43 1606.15 2125.24C1602.19 2131.32 1600.82 2138.47 1603.11 2145.12C1605.27 2151.57 1610.62 2156.09 1617.21 2158.4C1623.3 2160.54 1630.52 2160.72 1637.66 2158.41C1644.87 2156.28 1650.76 2152.04 1654.62 2146.82C1658.79 2141.17 1660.71 2134.39 1658.9 2127.82C1657.1 2121.02 1651.98 2115.88 1645.32 2113.1C1638.95 2110.44 1631.26 2109.8 1623.51 2111.86Z" fill="#D56113"/>
<path d="M1579.47 2245.98C1560.2 2251.94 1540.6 2243.7 1535.69 2227.58C1530.78 2211.46 1542.42 2193.56 1561.69 2187.6C1580.95 2181.64 1600.55 2189.87 1605.46 2205.99C1610.37 2222.11 1598.73 2240.01 1579.47 2245.98Z" fill="#FAF6B0"/>
<path fill-rule="evenodd" clip-rule="evenodd" d="M1561.06 2185.56C1570.61 2182.17 1580.38 2182.26 1588.67 2184.97C1598.52 2188.19 1606.15 2195.26 1609.43 2204.78C1612.71 2214.55 1610.66 2225.07 1604.66 2233.86C1599.46 2241.48 1591.17 2247.67 1581.01 2250.96C1570.76 2253.99 1560.45 2253.55 1551.9 2250.19C1542.02 2246.31 1534.44 2238.75 1531.71 2228.8C1529.12 2219.07 1531.5 2208.91 1537.85 2200.68C1543.21 2193.75 1551.25 2188.16 1561.06 2185.56ZM1562.32 2189.64C1553.95 2192.61 1547.3 2198 1543.09 2204.41C1538.69 2211.13 1537.15 2219.02 1539.68 2226.37C1542.07 2233.49 1547.99 2238.48 1555.29 2241.02C1562.04 2243.37 1570.02 2243.55 1577.93 2241C1585.9 2238.64 1592.42 2233.96 1596.71 2228.2C1601.34 2221.96 1603.48 2214.46 1601.49 2207.21C1599.49 2199.7 1593.83 2194.03 1586.45 2190.97C1579.4 2188.05 1570.89 2187.36 1562.32 2189.64Z" fill="#D56113"/>
<path d="M1684.49 2076.44C1667.82 2082.24 1650.71 2076.48 1646.25 2063.58C1641.8 2050.69 1651.7 2035.53 1668.36 2029.74C1685.02 2023.94 1702.14 2029.69 1706.59 2042.59C1711.04 2055.49 1701.15 2070.64 1684.49 2076.44Z" fill="#FAF6B0"/>
<path fill-rule="evenodd" clip-rule="evenodd" d="M1667.71 2027.87C1677.6 2023.93 1687.8 2024.07 1695.81 2027.23C1702.59 2029.9 1707.72 2034.85 1710.24 2041.33C1713.33 2049.48 1711.55 2058.6 1706.07 2066.35C1701.63 2072.63 1694.64 2077.9 1686.08 2081.02C1677.43 2083.89 1668.69 2084.09 1661.33 2081.93C1652.22 2079.24 1645.19 2073.18 1642.59 2064.85C1640.58 2058.19 1641.57 2051.12 1645.24 2044.82C1649.58 2037.36 1657.52 2030.92 1667.71 2027.87ZM1669.01 2031.61C1661.98 2034.41 1656.4 2039.01 1652.82 2044.3C1648.99 2049.96 1647.63 2056.48 1649.92 2062.32C1652.06 2067.97 1657.33 2071.57 1663.71 2073.15C1669.49 2074.59 1676.24 2074.28 1682.89 2071.86C1689.62 2069.63 1695.12 2065.67 1698.78 2060.95C1702.82 2055.74 1704.74 2049.62 1702.94 2043.85C1701.13 2037.85 1696.05 2033.57 1689.55 2031.51C1683.48 2029.58 1676.26 2029.44 1669.01 2031.61Z" fill="#D56113"/>
<path d="M1727.28 1991.55C1709.57 1998.8 1690.39 1993.47 1684.46 1979.63C1678.52 1965.8 1688.07 1948.7 1705.79 1941.45C1723.5 1934.19 1742.68 1939.53 1748.61 1953.36C1754.55 1967.19 1745 1984.29 1727.28 1991.55Z" fill="#FAF6B0"/>
<path fill-rule="evenodd" clip-rule="evenodd" d="M1704.94 1939.37C1715.49 1934.47 1726.75 1934.06 1735.82 1937.1C1743.39 1939.65 1749.36 1944.74 1752.65 1951.63C1756.73 1960.38 1755.54 1970.46 1750.2 1979.28C1745.85 1986.47 1738.58 1992.71 1729.37 1996.64C1720.06 2000.3 1710.42 2000.99 1702.13 1998.97C1692.04 1996.5 1683.93 1990.28 1680.43 1981.36C1677.09 1972.59 1678.61 1962.88 1684.36 1954.67C1688.92 1948.15 1696.01 1942.55 1704.94 1939.37ZM1706.64 1943.53C1699.2 1946.99 1693.51 1952.33 1690.06 1958.3C1686.42 1964.63 1685.53 1971.73 1688.49 1977.91C1691.29 1983.9 1697.31 1987.52 1704.35 1988.91C1710.78 1990.17 1718.13 1989.47 1725.2 1986.46C1732.31 1983.67 1737.95 1979.08 1741.52 1973.74C1745.42 1967.91 1746.98 1961.21 1744.58 1955.09C1742.13 1948.67 1736.31 1944.28 1729.11 1942.36C1722.32 1940.55 1714.4 1940.76 1706.64 1943.53Z" fill="#D56113"/>
<path fill-rule="evenodd" clip-rule="evenodd" d="M1620.49 2121.57C1603.1 2126.95 1599.66 2137.56 1603.25 2147.47C1608.85 2162.95 1624.46 2165.06 1633.26 2163.79C1651.3 2161.19 1665.87 2156.09 1661.07 2140.34C1656.27 2124.59 1637.87 2116.19 1620.49 2121.57Z" fill="#FAF6B0"/>
<path fill-rule="evenodd" clip-rule="evenodd" d="M1619.9 2119.67C1628.8 2116.45 1638.1 2116.78 1646.01 2119.78C1654.9 2123.16 1661.89 2130.04 1665.06 2139.12C1668.14 2148.27 1665.65 2154.7 1660.26 2159.42C1657.58 2161.77 1654 2163.66 1649.78 2165.11C1645.16 2166.69 1639.71 2167.71 1633.94 2168.52C1628.31 2169.19 1620.27 2168.7 1613.25 2164.94C1607.55 2161.88 1602.43 2156.83 1599.82 2148.72C1597.64 2141.77 1598.17 2134.65 1603.23 2128.86C1606.56 2125.04 1611.88 2121.73 1619.9 2119.67ZM1621.07 2123.46C1614.51 2125.86 1610.22 2128.95 1607.72 2132.42C1604.63 2136.71 1604.77 2141.61 1606.68 2146.23C1608.97 2151.91 1612.88 2155.25 1617.11 2157.2C1622.48 2159.68 1628.43 2159.77 1632.58 2159.07C1637.72 2158.31 1642.56 2157.29 1646.7 2155.93C1649.69 2154.95 1652.31 2153.83 1654.28 2152.26C1657.25 2149.89 1658.43 2146.5 1657.08 2141.56C1655.21 2134.38 1650.11 2128.81 1643.5 2125.61C1636.93 2122.43 1628.98 2121.42 1621.07 2123.46Z" fill="#D56113"/>
<path fill-rule="evenodd" clip-rule="evenodd" d="M1558.95 2200.35C1539.7 2206.31 1535.88 2218.03 1539.84 2228.97C1546.03 2246.04 1563.31 2248.36 1573.05 2246.95C1593.02 2244.06 1609.16 2238.41 1603.86 2221.03C1598.57 2203.65 1578.21 2194.4 1558.95 2200.35Z" fill="#FAF6B0"/>
<path fill-rule="evenodd" clip-rule="evenodd" d="M1558.31 2198.26C1568.15 2194.69 1578.43 2195.04 1587.18 2198.34C1597.03 2202.05 1604.77 2209.65 1608.27 2219.69C1611.68 2229.8 1608.91 2236.91 1602.92 2242.12C1599.95 2244.72 1595.99 2246.8 1591.32 2248.4C1586.21 2250.15 1580.19 2251.28 1573.81 2252.17C1567.58 2252.92 1558.7 2252.39 1550.94 2248.25C1544.62 2244.88 1538.94 2239.31 1536.05 2230.34C1534.1 2224.12 1534.13 2217.78 1537.23 2212.19C1540.46 2206.38 1546.95 2201.18 1558.31 2198.26ZM1559.6 2202.45C1552.34 2205.1 1547.6 2208.51 1544.82 2212.34C1541.38 2217.08 1541.52 2222.49 1543.63 2227.59C1546.17 2233.87 1550.5 2237.55 1555.17 2239.69C1561.12 2242.41 1567.7 2242.52 1572.3 2241.74C1577.99 2240.88 1583.34 2239.76 1587.92 2238.26C1591.24 2237.17 1594.14 2235.93 1596.33 2234.2C1599.63 2231.58 1600.95 2227.83 1599.46 2222.37C1597.39 2214.44 1591.73 2208.31 1584.42 2204.79C1577.14 2201.29 1568.35 2200.19 1559.6 2202.45Z" fill="#D56113"/>
<path fill-rule="evenodd" clip-rule="evenodd" d="M1666.33 2040.99C1649.68 2046.78 1644.65 2052.07 1649.35 2065.68C1654.05 2079.29 1666.14 2084.42 1682.79 2078.62C1699.44 2072.83 1705.85 2061.33 1705.01 2055.15C1703.08 2040.88 1682.98 2035.2 1666.33 2040.99Z" fill="#FAF6B0"/>
<path fill-rule="evenodd" clip-rule="evenodd" d="M1665.68 2039.12C1675.47 2035.16 1686.58 2035.13 1695 2038.4C1702.52 2041.33 1707.77 2047.01 1709.12 2054.6C1709.8 2058.65 1708.3 2064.72 1703.46 2070.58C1699.53 2075.34 1693.26 2079.97 1684.38 2083.18C1675.46 2086.1 1667.7 2086.31 1661.47 2084.11C1654.02 2081.47 1648.52 2075.66 1645.85 2066.89C1643.76 2059.8 1643.84 2054.66 1646.13 2050.62C1648.91 2045.71 1655.11 2042.2 1665.68 2039.12ZM1666.98 2042.86C1660.25 2045.6 1655.63 2048.09 1652.99 2051.14C1650.13 2054.45 1650.46 2058.47 1652.85 2064.47C1655.12 2070.33 1659.01 2074.13 1664.21 2075.65C1668.93 2077.04 1674.65 2076.49 1681.21 2074.07C1686.89 2072.15 1691.23 2069.48 1694.43 2066.64C1698.85 2062.7 1701.22 2058.63 1700.91 2055.71C1700.33 2049.37 1695.1 2045.13 1688.43 2043.01C1681.98 2040.96 1674.22 2040.75 1666.98 2042.86Z" fill="#D56113"/>
<path fill-rule="evenodd" clip-rule="evenodd" d="M1703.99 1954.68C1686.01 1962.04 1682.52 1965.32 1688.81 1979.97C1695.09 1994.62 1703.24 1998.48 1721.22 1991.12C1739.2 1983.76 1747.23 1978.94 1744.35 1968.9C1739.95 1953.62 1721.97 1947.31 1703.99 1954.68Z" fill="#FAF6B0"/>
<path fill-rule="evenodd" clip-rule="evenodd" d="M1703.14 1952.6C1711.99 1948.38 1721 1947.54 1728.69 1949.33C1738.3 1951.56 1745.69 1958.1 1748.9 1967.59C1750.78 1973.34 1749.8 1977.94 1746.62 1982.15C1744.32 1985.22 1740.48 1988.1 1735.02 1990.95C1731.75 1992.65 1727.81 1994.32 1723.29 1996.18C1713.49 1999.93 1706.17 2000.77 1700.5 1999.02C1693.65 1996.91 1688.65 1991.34 1684.95 1981.63C1682.11 1973.94 1681.52 1968.85 1683.24 1964.96C1684.27 1962.65 1685.96 1960.59 1688.72 1958.8C1691.94 1956.73 1696.64 1954.83 1703.14 1952.6ZM1704.84 1956.76C1697.78 1960.14 1693.19 1962.6 1690.8 1965.45C1688.18 1968.55 1689.58 1972.02 1692.67 1978.31C1695.6 1984.43 1698.6 1988.26 1703.15 1989.35C1707.25 1990.34 1712.31 1989.05 1719.15 1986.07C1727.17 1982.88 1733.08 1980.28 1736.8 1977.38C1739.36 1975.39 1740.57 1973.31 1739.79 1970.21C1738.16 1963.36 1733.25 1958.52 1726.7 1956.26C1720.36 1954.08 1712.7 1954.04 1704.84 1956.76Z" fill="#D56113"/>
<path d="M521.719 2169.92C539.115 2175.31 556.825 2167.83 561.275 2153.22C565.724 2138.61 555.229 2122.41 537.833 2117.02C520.436 2111.64 502.727 2119.12 498.277 2133.73C493.828 2148.33 504.323 2164.54 521.719 2169.92Z" fill="#FAF6B0"/>
<path fill-rule="evenodd" clip-rule="evenodd" d="M538.402 2115.18C547.267 2117.53 554.537 2122.6 559.367 2128.89C565.086 2136.33 567.218 2145.52 564.881 2154.32C562.406 2163.33 555.571 2170.17 546.659 2173.7C538.923 2176.76 529.591 2177.17 520.323 2174.43C511.133 2171.46 503.642 2165.84 498.952 2158.93C493.555 2150.99 491.721 2141.47 494.681 2132.63C497.65 2124.01 504.54 2117.61 513.425 2114.68C520.922 2112.21 529.758 2112.12 538.402 2115.18ZM537.261 2118.87C529.51 2116.81 521.82 2117.45 515.449 2120.11C508.789 2122.89 503.676 2128.03 501.871 2134.82C500.066 2141.39 501.981 2148.18 506.157 2153.83C510.018 2159.05 515.906 2163.29 523.113 2165.42C530.252 2167.72 537.472 2167.55 543.566 2165.41C550.155 2163.1 555.506 2158.57 557.666 2152.12C559.957 2145.47 558.583 2138.33 554.622 2132.25C550.832 2126.44 544.826 2121.55 537.261 2118.87Z" fill="#D56113"/>
<path d="M581.305 2252.99C600.57 2258.95 620.169 2250.71 625.08 2234.59C629.99 2218.47 618.353 2200.57 599.088 2194.61C579.823 2188.65 560.224 2196.88 555.314 2213C550.403 2229.12 562.04 2247.02 581.305 2252.99Z" fill="#FAF6B0"/>
<path fill-rule="evenodd" clip-rule="evenodd" d="M599.718 2192.57C609.523 2195.17 617.567 2200.76 622.92 2207.69C629.274 2215.92 631.649 2226.08 629.067 2235.81C626.332 2245.76 618.758 2253.32 608.875 2257.2C600.325 2260.56 590.009 2261 579.764 2257.97C569.601 2254.68 561.315 2248.48 556.115 2240.87C550.116 2232.08 548.068 2221.56 551.339 2211.79C554.62 2202.27 562.254 2195.2 572.103 2191.98C580.391 2189.27 590.159 2189.18 599.718 2192.57ZM598.457 2196.64C589.88 2194.37 581.374 2195.06 574.326 2197.98C566.946 2201.04 561.28 2206.71 559.288 2214.21C557.295 2221.47 559.428 2228.97 564.067 2235.2C568.349 2240.97 574.871 2245.64 582.847 2248C590.75 2250.56 598.737 2250.37 605.48 2248.03C612.779 2245.49 618.707 2240.5 621.091 2233.38C623.622 2226.03 622.085 2218.13 617.684 2211.42C613.478 2205.01 606.827 2199.62 598.457 2196.64Z" fill="#D56113"/>
<path d="M476.288 2083.45C492.95 2089.24 510.067 2083.49 514.52 2070.59C518.973 2057.69 509.076 2042.54 492.415 2036.74C475.753 2030.95 458.636 2036.7 454.183 2049.6C449.73 2062.5 459.627 2077.65 476.288 2083.45Z" fill="#FAF6B0"/>
<path fill-rule="evenodd" clip-rule="evenodd" d="M493.065 2034.87C503.258 2037.92 511.191 2044.37 515.535 2051.83C519.208 2058.13 520.19 2065.2 518.18 2071.86C515.581 2080.19 508.55 2086.25 499.442 2088.93C492.085 2091.1 483.344 2090.9 474.695 2088.02C466.13 2084.91 459.144 2079.64 454.707 2073.36C449.221 2065.6 447.44 2056.49 450.532 2048.34C453.058 2041.85 458.187 2036.91 464.961 2034.23C472.971 2031.07 483.178 2030.94 493.065 2034.87ZM491.764 2038.61C484.514 2036.45 477.296 2036.59 471.228 2038.51C464.723 2040.58 459.644 2044.85 457.833 2050.86C456.033 2056.63 457.957 2062.75 461.997 2067.96C465.657 2072.68 471.158 2076.64 477.88 2078.87C484.532 2081.29 491.283 2081.6 497.063 2080.16C503.44 2078.58 508.717 2074.97 510.858 2069.33C513.139 2063.48 511.784 2056.97 507.95 2051.31C504.371 2046.02 498.793 2041.42 491.764 2038.61Z" fill="#D56113"/>
<path d="M433.492 1998.55C451.207 2005.81 470.38 2000.48 476.315 1986.64C482.25 1972.81 472.7 1955.71 454.985 1948.46C437.269 1941.2 418.097 1946.53 412.162 1960.37C406.226 1974.2 415.776 1991.3 433.492 1998.55Z" fill="#FAF6B0"/>
<path fill-rule="evenodd" clip-rule="evenodd" d="M455.835 1946.38C464.765 1949.56 471.851 1955.16 476.415 1961.68C482.164 1969.89 483.684 1979.6 480.342 1988.37C476.841 1997.29 468.733 2003.51 458.642 2005.98C450.357 2008 440.718 2007.3 431.407 2003.64C422.195 1999.71 414.922 1993.48 410.569 1986.28C405.233 1977.47 404.044 1967.39 408.124 1958.64C411.416 1951.75 417.382 1946.66 424.953 1944.11C434.026 1941.06 445.28 1941.48 455.835 1946.38ZM454.132 1950.54C446.371 1947.77 438.456 1947.56 431.668 1949.37C424.468 1951.29 418.645 1955.68 416.197 1962.1C413.794 1968.22 415.352 1974.92 419.256 1980.75C422.822 1986.08 428.465 1990.67 435.574 1993.47C442.643 1996.48 449.998 1997.18 456.426 1995.92C463.466 1994.53 469.487 1990.91 472.285 1984.92C475.241 1978.74 474.358 1971.64 470.71 1965.31C467.268 1959.34 461.574 1954 454.132 1950.54Z" fill="#D56113"/>
<path fill-rule="evenodd" clip-rule="evenodd" d="M540.286 2128.58C557.671 2133.96 561.117 2144.57 557.525 2154.48C551.919 2169.95 536.311 2172.07 527.512 2170.8C509.477 2168.2 494.905 2163.1 499.703 2147.35C504.501 2131.6 522.901 2123.2 540.286 2128.58Z" fill="#FAF6B0"/>
<path fill-rule="evenodd" clip-rule="evenodd" d="M540.874 2126.68C548.889 2128.73 554.209 2132.05 557.54 2135.86C562.6 2141.66 563.133 2148.78 560.956 2155.72C558.345 2163.84 553.222 2168.88 547.522 2171.94C540.503 2175.71 532.463 2176.2 526.832 2175.52C521.063 2174.72 515.616 2173.7 510.997 2172.12C506.776 2170.67 503.194 2168.78 500.509 2166.43C495.12 2161.71 492.637 2155.28 495.717 2146.13C498.886 2137.05 505.87 2130.17 514.761 2126.79C522.677 2123.79 531.976 2123.45 540.874 2126.68ZM539.701 2130.47C531.793 2128.43 523.847 2129.44 517.272 2132.62C510.668 2135.82 505.567 2141.38 503.69 2148.56C502.341 2153.5 503.519 2156.9 506.492 2159.27C508.462 2160.84 511.082 2161.96 514.076 2162.94C518.218 2164.3 523.05 2165.31 528.195 2166.08C532.346 2166.78 538.298 2166.68 543.668 2164.21C547.89 2162.26 551.802 2158.92 554.097 2153.24C556.007 2148.61 556.142 2143.72 553.051 2139.43C550.55 2135.96 546.268 2132.87 539.701 2130.47Z" fill="#D56113"/>
<path fill-rule="evenodd" clip-rule="evenodd" d="M601.819 2207.36C621.071 2213.32 624.897 2225.04 620.932 2235.98C614.742 2253.05 597.465 2255.37 587.722 2253.96C567.752 2251.07 551.614 2245.42 556.909 2228.04C562.204 2210.66 582.566 2201.4 601.819 2207.36Z" fill="#FAF6B0"/>
<path fill-rule="evenodd" clip-rule="evenodd" d="M602.467 2205.27C613.824 2208.19 620.316 2213.39 623.54 2219.19C626.647 2224.79 626.675 2231.13 624.723 2237.35C621.834 2246.32 616.156 2251.89 609.837 2255.26C602.077 2259.4 593.192 2259.93 586.966 2259.18C580.587 2258.28 574.564 2257.16 569.452 2255.41C564.787 2253.81 560.825 2251.73 557.852 2249.13C551.86 2243.91 549.097 2236.81 552.502 2226.69C556.003 2216.66 563.743 2209.06 573.597 2205.35C582.348 2202.05 592.627 2201.7 602.467 2205.27ZM601.17 2209.45C592.419 2207.2 583.632 2208.3 576.355 2211.8C569.039 2215.31 563.387 2221.45 561.315 2229.38C559.824 2234.84 561.143 2238.59 564.445 2241.2C566.631 2242.94 569.535 2244.18 572.852 2245.26C577.438 2246.77 582.786 2247.89 588.477 2248.74C593.072 2249.52 599.658 2249.42 605.599 2246.7C610.274 2244.56 614.607 2240.88 617.142 2234.6C619.251 2229.5 619.391 2224.09 615.954 2219.35C613.178 2215.52 608.436 2212.1 601.17 2209.45Z" fill="#D56113"/>
<path fill-rule="evenodd" clip-rule="evenodd" d="M494.442 2048C511.093 2053.79 516.124 2059.08 511.424 2072.69C506.724 2086.3 494.628 2091.42 477.977 2085.63C461.327 2079.84 454.922 2068.34 455.758 2062.16C457.69 2047.89 477.792 2042.2 494.442 2048Z" fill="#FAF6B0"/>
<path fill-rule="evenodd" clip-rule="evenodd" d="M495.094 2046.13C505.667 2049.21 511.867 2052.71 514.645 2057.63C516.93 2061.66 517.017 2066.8 514.927 2073.9C512.251 2082.67 506.749 2088.48 499.299 2091.11C493.071 2093.32 485.31 2093.11 476.392 2090.19C467.511 2086.98 461.246 2082.35 457.315 2077.59C452.478 2071.73 450.977 2065.66 451.657 2061.61C453.002 2054.01 458.249 2048.34 465.773 2045.41C474.189 2042.14 485.304 2042.16 495.094 2046.13ZM493.792 2049.87C486.556 2047.75 478.795 2047.97 472.343 2050.02C465.672 2052.13 460.447 2056.38 459.861 2062.72C459.557 2065.64 461.919 2069.71 466.345 2073.65C469.542 2076.49 473.884 2079.16 479.564 2081.07C486.12 2083.5 491.845 2084.04 496.568 2082.66C501.765 2081.14 505.658 2077.34 507.922 2071.48C510.309 2065.48 510.648 2061.46 507.781 2058.15C505.146 2055.1 500.522 2052.61 493.792 2049.87Z" fill="#D56113"/>
<path fill-rule="evenodd" clip-rule="evenodd" d="M456.78 1961.69C474.761 1969.05 478.249 1972.33 471.965 1986.98C465.681 2001.63 457.538 2005.49 439.557 1998.13C421.576 1990.76 413.54 1985.95 416.426 1975.91C420.82 1960.63 438.799 1954.32 456.78 1961.69Z" fill="#FAF6B0"/>
<path fill-rule="evenodd" clip-rule="evenodd" d="M457.632 1959.61C464.138 1961.84 468.837 1963.73 472.051 1965.81C474.817 1967.6 476.508 1969.65 477.53 1971.96C479.254 1975.86 478.668 1980.94 475.827 1988.63C472.119 1998.35 467.127 2003.92 460.274 2006.03C454.603 2007.78 447.282 2006.94 437.487 2003.18C432.962 2001.32 429.027 1999.66 425.757 1997.96C420.292 1995.11 416.457 1992.22 414.152 1989.16C410.977 1984.94 409.989 1980.35 411.87 1974.6C415.085 1965.11 422.471 1958.57 432.08 1956.34C439.769 1954.55 448.788 1955.39 457.632 1959.61ZM455.928 1963.77C448.07 1961.05 440.409 1961.09 434.075 1963.27C427.524 1965.53 422.61 1970.37 420.984 1977.21C420.206 1980.32 421.41 1982.39 423.975 1984.39C427.694 1987.29 433.607 1989.89 441.627 1993.07C448.464 1996.06 453.52 1997.34 457.623 1996.36C462.171 1995.26 465.177 1991.44 468.103 1985.32C471.196 1979.03 472.59 1975.56 469.976 1972.46C467.582 1969.61 462.996 1967.15 455.928 1963.77Z" fill="#D56113"/>
<path fill-rule="evenodd" clip-rule="evenodd" d="M1364.35 932.755C1264.39 856.918 1114.29 847.729 1145.59 817.564C1162.65 801.126 1416.89 816.983 1486.19 829.785L1413.04 901.307L1431.6 976.641L1364.35 932.755Z" fill="black" fill-opacity="0.28"/>
<path fill-rule="evenodd" clip-rule="evenodd" d="M361.061 980.761C347.988 1004.55 200.033 1284.99 201.703 1359.24C203.378 1433.7 486.141 1532.98 463.17 1466.66L541.339 1289.89C503.228 1563.65 575.918 1780.41 742.39 1971.14C742.39 1971.14 626.048 1902.55 599.792 1920.58C573.529 1938.6 574.662 2095.44 574.662 2095.44C574.662 2095.44 459.237 2051.35 440.629 2085.9C400.766 2159.92 481.804 2366.04 534.294 2437.99L455.11 2371.12L309.085 2048.15L349.143 1922.66C410.793 1903.08 467.472 1907.44 516.982 1946.37L461.023 1676.88C410.214 1615.01 301.469 1508.33 301.469 1508.33C301.469 1508.33 261.953 1508.76 233.502 1495.64C167.047 1464.98 74.7298 1401.05 69.1667 1376.66C63.1458 1319.07 99.728 1270.01 133.922 1220.47L321.65 877.336C299.883 959.113 320.706 970.421 361.061 980.761Z" fill="black" fill-opacity="0.25"/>
<path fill-rule="evenodd" clip-rule="evenodd" d="M1356.8 1021.61C1356.8 1021.61 1525.22 1227.56 1524.7 1359.24C1523.8 1587.83 1415.96 1824.39 1415.96 1824.39C1513.16 1530.36 1463.27 1254.42 1356.8 1021.61Z" fill="white"/>
</svg>
