<svg width="2160" height="2700" viewBox="0 0 2160 2700" fill="none" xmlns="http://www.w3.org/2000/svg">
<g clip-path="url(#clip0_910_1028)">
<path fill-rule="evenodd" clip-rule="evenodd" d="M1083.04 839.159C1452.98 833.551 1894.71 998.692 1894.71 998.692C1894.71 998.692 1925.55 1192.51 1967.92 1325.75C1973.03 1341.82 1960.47 1382.68 1960.47 1382.68L1686.51 1717.3L1594.21 2195.86L1669.89 2383.9L1653.42 2510.9L1565.39 2572.06L1438.14 2526.18C1438.14 2526.18 1179.65 2332.99 1090.4 2335.33C993.136 2337.9 742.367 2528.87 742.367 2528.87L621.895 2580.11L521.662 2517.3L509.592 2378.28L566.564 2201.4L471.911 1717.3L197.518 1387.95C197.518 1387.95 189.246 1363.75 191.345 1353.67C217.181 1229.54 258.762 1021.24 258.762 1021.24C258.762 1021.24 721.076 844.647 1083.04 839.159ZM1083.33 878.956C798.725 878.956 563.077 1147.47 563.077 1471.62C563.077 1795.76 806.41 2062.89 1082.49 2059.86C1371.23 2056.69 1607.24 1794.62 1607.24 1470.48C1607.24 1146.34 1367.94 878.956 1083.33 878.956Z" fill="#8D8D8D" stroke="white" stroke-width="16.178" stroke-miterlimit="1.5" stroke-linecap="round" stroke-linejoin="round"/>
<path d="M1652.54 1893.41L1586.64 1840.05L1624.48 1609.12" stroke="white" stroke-width="13" stroke-miterlimit="1.5" stroke-linecap="round" stroke-linejoin="round"/>
<path d="M505.075 1890.22L565.625 1840.05L531.445 1605.96" stroke="white" stroke-width="13" stroke-miterlimit="1.5" stroke-linecap="round" stroke-linejoin="round"/>
<path d="M1608.26 2528.87L1514.45 2441.55L1285.65 2064.4" stroke="white" stroke-width="13" stroke-miterlimit="1.5" stroke-linecap="round" stroke-linejoin="round"/>
<path d="M566.05 2538.72L668.289 2441.55L892.959 2070.91" stroke="white" stroke-width="13" stroke-miterlimit="1.5" stroke-linecap="round" stroke-linejoin="round"/>
<path fill-rule="evenodd" clip-rule="evenodd" d="M496.102 1385.7L569.331 1266.48C564.72 1264.62 561.312 1260.89 560.343 1256.67C559.377 1252.45 560.997 1248.35 564.611 1245.86L594.312 1250.71L430.335 1522.97L405.711 1574.36C402.772 1580.49 398.486 1585.06 394.782 1586.01L350.848 1597.24C347.762 1598.02 345.517 1596.18 344.85 1592.3C344.181 1588.43 345.176 1583.02 347.511 1577.84L380.171 1505.35L336.197 1489.91C331.495 1488.26 327.912 1484.7 326.672 1480.57L278.262 1551.36C275.815 1554.94 273.005 1557.44 270.459 1558.31C267.913 1559.17 265.838 1558.33 264.695 1555.97L232.882 1490.35C230.617 1485.69 232.506 1476.34 237.206 1468.96L318.417 1341.66L328.225 1357.58L255.361 1471.8L278.829 1520.21L322.813 1455.88L347.694 1374.04C347.088 1370.07 360.276 1361.14 364.735 1362.5L380.26 1367.23L449.278 1445.87L467.577 1407.68L468.338 1380.16L359.873 1306C356.812 1303.91 354.707 1300.93 354.021 1297.73C353.336 1294.53 354.126 1291.37 356.221 1288.95L414.45 1221.6C418.598 1216.79 426.717 1216.05 433.022 1219.88L529.43 1278.58L582.511 1167.8C585.747 1161.04 590.583 1156.25 594.451 1155.98L622.285 1146.56L682.271 930.291C676.152 930.595 672.123 920.714 655.68 923.738C653.257 924.183 596.242 1097.12 592.392 1100.75C587.009 1105.82 501.136 1224.52 501.136 1224.52C498.383 1228.85 495.083 1231.82 492.189 1232.54C489.293 1233.28 487.133 1231.69 486.337 1228.25L476.913 1187.44C476.022 1183.6 476.952 1177.95 479.369 1172.52L555.12 925.889L500.077 911.406L510.644 1038.1C511.307 1042.86 509.61 1049.6 506.296 1055.35C502.988 1061.09 498.676 1064.78 495.275 1064.78L441.169 1064.74L321.194 1299.18C318.449 1304.54 314.7 1308.57 311.32 1309.78C307.941 1311 305.426 1309.22 304.695 1305.11L291.244 1229.29C290.373 1224.38 292.204 1217.1 295.829 1211.06L433.524 981.689L444.286 996.068L312.627 1215.38L321.162 1263.48L433.725 1043.53C437.082 1036.97 441.86 1032.54 445.589 1032.55L486.834 1032.58L475.521 900.528C474.816 895.489 476.768 888.25 480.424 882.35C484.078 876.449 488.674 873.118 491.964 873.985L576.481 896.224C578.686 896.805 580.046 899.214 580.234 902.871C580.422 906.529 579.42 911.104 577.47 915.493L498.038 1170.4L502.79 1190.95C517.892 1168.03 545.632 1115.83 569.104 1087.2C586.478 1066.01 630.399 895.308 639.473 893.637C665.171 888.908 706.788 907.921 706.788 907.921C709.653 907.94 711.453 910.589 711.605 915L637.549 1150.61C637.714 1155.46 636.68 1161.53 633.53 1166.75C630.384 1171.95 625.616 1175.49 622.393 1175.72L590.971 1187.69L496.102 1385.7ZM519.099 1300.15L430.031 1245.93L387.078 1295.62L488.16 1364.73L519.099 1300.15ZM464.977 1450.67L466.377 1451.09L466.473 1447.54L464.977 1450.67ZM417.945 1460.96L405.23 1489.18L425.179 1496.18L438.979 1467.37L417.945 1460.96ZM389.887 1483.79L402.321 1456.19L369.65 1389.88L342.703 1465.64L389.887 1483.79ZM414.93 1517.56L395.513 1510.74L372.455 1561.92L396.641 1555.74L414.93 1517.56Z" fill="#F2E83A" stroke="black" stroke-width="5.85214" stroke-miterlimit="2" stroke-linejoin="round"/>
<path fill-rule="evenodd" clip-rule="evenodd" d="M282.716 1237.37L338.462 1109.04C342.636 1111.75 347.638 1112.41 351.656 1110.78C355.665 1109.16 358.101 1105.48 358.065 1101.09L337.076 1079.53L207.903 1369.92L179.899 1419.55C176.556 1425.47 175.266 1431.6 176.616 1435.18L192.583 1477.62C193.709 1480.6 196.505 1481.38 200.067 1479.71C203.624 1478.04 207.487 1474.12 210.396 1469.24L251.09 1400.94L288.938 1428.13C292.986 1431.04 297.963 1431.93 302.057 1430.58L271.777 1510.82C270.248 1514.87 269.804 1518.61 270.555 1521.19C271.305 1523.78 273.181 1525 275.772 1524.58L347.777 1513.05C352.901 1512.24 359.482 1505.33 362.829 1497.25L420.629 1357.75L401.96 1358.84L350.101 1484L296.983 1492.5L324.496 1419.6L377.314 1352.31C380.912 1350.54 380.68 1334.61 377.011 1331.73L364.235 1321.72L260.236 1310.22L281.055 1273.33L303.173 1256.94L426.099 1303.34C429.568 1304.65 433.215 1304.67 436.229 1303.4C439.243 1302.13 441.378 1299.67 442.164 1296.57L463.999 1210.25C465.557 1204.1 461.513 1197.02 454.759 1194.05L351.411 1148.67L411.789 1041.69C415.475 1035.16 416.627 1028.46 414.633 1025.13L406.403 996.923L549.274 823.838C552.531 829.027 562.938 826.667 569.881 841.876C570.905 844.117 461.846 989.937 461.078 995.171C460.002 1002.49 411.931 1140.88 411.931 1140.88C409.957 1145.62 409.419 1150.02 410.481 1152.81C411.539 1155.61 414.078 1156.47 417.356 1155.15L456.197 1139.49C459.856 1138.02 463.95 1134.02 467.022 1128.92L625.739 925.523L669.149 962.334L559.263 1026.27C554.983 1028.45 550.433 1033.71 547.615 1039.72C544.806 1045.72 544.252 1051.37 546.205 1054.15L577.239 1098.47L453.853 1331.13C451.03 1336.46 449.877 1341.84 450.82 1345.3C451.762 1348.77 454.66 1349.81 458.447 1348.05L528.29 1315.63C532.816 1313.53 537.734 1307.86 540.604 1301.43L649.684 1057.15L631.733 1056.57L527.436 1290.14L483.127 1310.7L598.888 1092.42C602.341 1085.91 603.229 1079.46 601.09 1076.4L577.427 1042.62L692.135 976.226C696.669 973.916 701.483 968.169 704.224 961.792C706.966 955.416 707.063 949.741 704.467 947.541L637.812 891.018C636.073 889.543 633.319 889.809 630.214 891.751C627.108 893.693 623.933 897.136 621.454 901.249L458.058 1112.41L438.495 1120.29C448.629 1094.78 475.509 1042.14 485.522 1006.5C492.939 980.111 607.668 846.304 603.837 837.91C592.988 814.14 553.559 790.927 553.559 790.927C551.902 788.59 548.699 788.634 544.997 791.036L389.422 983.001C385.364 985.634 381.316 990.728 378.851 996.291C376.382 1001.86 375.881 1007.03 377.538 1009.8L390.642 1046.15L282.716 1237.37ZM339.658 1169.5L435.125 1211.43L419.02 1275.1L304.459 1231.86L339.658 1169.5ZM247.311 1300.1L246.164 1299.19L249.017 1297.08L247.311 1300.1ZM265.828 1344.54L249.984 1371.13L232.815 1358.8L248.516 1330.98L265.828 1344.54ZM263.194 1380.62L278.688 1354.61L351.749 1343.39L305.101 1408.89L263.194 1380.62ZM221.168 1379.44L237.88 1391.45L209.151 1439.67L200.354 1416.31L221.168 1379.44Z" fill="#F2E83A" stroke="black" stroke-width="5.85213" stroke-miterlimit="2" stroke-linejoin="round"/>
<path fill-rule="evenodd" clip-rule="evenodd" d="M630.979 1148.63L561.762 1270.23C557.903 1267.08 553.001 1265.89 548.831 1267.08C544.671 1268.26 541.853 1271.66 541.418 1276.02L559.967 1299.72L719.608 1024.89L752.784 978.561C756.744 973.031 758.686 967.073 757.728 963.373L746.416 919.46C745.617 916.377 742.922 915.296 739.2 916.581C735.484 917.859 731.223 921.336 727.805 925.878L680.006 989.411L645.3 958.307C641.588 954.981 636.736 953.559 632.52 954.461L671.25 877.941C673.206 874.073 674.049 870.404 673.58 867.756C673.112 865.109 671.378 863.694 668.758 863.83L595.93 867.55C590.748 867.812 583.463 873.972 579.267 881.64L506.806 1014.12L525.483 1015.05L590.497 896.184L644.221 893.44L609.03 962.965L549.286 1024.19C545.518 1025.56 544.035 1041.43 547.374 1044.68L559 1056.01L661.16 1078.62L636.497 1113.05L612.745 1126.97L495.519 1067.63C492.211 1065.95 488.587 1065.54 485.454 1066.48C482.32 1067.42 479.934 1069.63 478.819 1072.64L447.832 1156.11C445.621 1162.05 448.881 1169.53 455.277 1173.21L553.148 1229.43L481.62 1329.3C477.253 1335.39 475.388 1341.94 477.012 1345.46L482.162 1374.39L321.514 1531.11C318.833 1525.6 308.233 1526.83 302.965 1510.97C302.187 1508.63 426.29 1375.38 427.616 1370.25C429.473 1363.09 492.141 1230.67 492.141 1230.67C494.613 1226.17 495.622 1221.85 494.866 1218.96C494.114 1216.07 491.682 1214.94 488.281 1215.91L447.982 1227.3C444.186 1228.37 439.686 1231.9 436.085 1236.64L256.421 1421.8L217.22 1380.53L333.343 1328.78C337.832 1327.07 342.921 1322.34 346.369 1316.66C349.806 1311 350.965 1305.44 349.323 1302.46L323.232 1255.06L470.913 1037.01C474.292 1032.03 476.017 1026.8 475.452 1023.25C474.887 1019.71 472.118 1018.36 468.164 1019.7L395.241 1044.42C390.516 1046.03 385.016 1051.14 381.472 1057.22L246.764 1288.36L264.549 1290.87L393.35 1069.86L439.613 1054.18L301.058 1258.75C296.926 1264.86 295.349 1271.17 297.147 1274.44L317.042 1310.57L195.861 1364.25C191.104 1366.06 185.701 1371.26 182.29 1377.3C178.879 1383.35 178.173 1388.98 180.517 1391.45L240.709 1454.81C242.281 1456.46 245.047 1456.49 248.343 1454.89C251.639 1453.3 255.165 1450.22 258.073 1446.39L443.221 1254.02L463.518 1248.29C450.7 1272.56 418.317 1322.01 404.531 1356.37C394.32 1381.8 265.873 1502.5 268.779 1511.26C277.01 1536.06 313.715 1563.37 313.715 1563.37C315.112 1565.88 318.3 1566.18 322.239 1564.19L497.548 1390.06C501.866 1387.87 506.438 1383.24 509.487 1377.98C512.54 1372.71 513.594 1367.63 512.244 1364.69L503.124 1327.14L630.979 1148.63ZM567.071 1209.99L476.665 1158.04L499.52 1096.47L608.77 1151.78L567.071 1209.99ZM672.922 1090.07L673.966 1091.09L670.902 1092.89L672.922 1090.07ZM659.291 1043.9L677.901 1019.16L693.645 1033.27L675.044 1059.24L659.291 1043.9ZM665.787 1008.31L647.587 1032.5L573.744 1035.8L627.162 975.697L665.787 1008.31ZM707.444 1013.99L692.119 1000.26L725.866 955.406L732.1 979.577L707.444 1013.99Z" fill="#F4EC62" stroke="black" stroke-width="5.85214" stroke-miterlimit="2" stroke-linejoin="round"/>
<path fill-rule="evenodd" clip-rule="evenodd" d="M398.212 1033.06L312.592 1143.72C316.976 1146.07 319.964 1150.14 320.473 1154.44C320.98 1158.74 318.928 1162.64 315.068 1164.72L286.06 1156.71L478.353 903.657L508.358 855.215C511.94 849.433 516.692 845.349 520.476 844.81L565.363 838.363C568.515 837.915 570.55 839.988 570.795 843.917C571.044 847.839 569.474 853.109 566.595 858.011L526.332 926.569L568.392 946.643C572.889 948.79 576.069 952.722 576.857 956.96L632.596 891.78C635.414 888.487 638.477 886.298 641.101 885.713C643.725 885.127 645.698 886.183 646.581 888.654L671.156 957.311C672.907 962.195 670.023 971.289 664.558 978.111L570.133 1095.95L562.094 1079.07L646.813 973.339L628.684 922.692L578.041 981.914L544.507 1060.61C544.683 1064.62 530.61 1072.09 526.323 1070.25L511.397 1063.88L451.233 978.274L428.934 1014.28L425.219 1041.56L525.085 1126.95C527.903 1129.36 529.676 1132.54 530.013 1135.8C530.351 1139.05 529.225 1142.11 526.883 1144.29L461.75 1204.99C457.111 1209.32 448.959 1209.19 443.103 1204.7L353.562 1135.98L288.88 1240.41C284.937 1246.79 279.615 1251.03 275.739 1250.88L247.054 1257.25L164.168 1465.82C170.285 1466.18 173.228 1476.43 189.901 1475.19C192.358 1475.01 267.632 1309.21 271.849 1306.01C277.747 1301.55 375.882 1192.77 375.882 1192.77C379.084 1188.76 382.684 1186.16 385.639 1185.75C388.598 1185.33 390.574 1187.14 390.995 1190.65L395.979 1232.23C396.451 1236.15 394.919 1241.66 391.933 1246.81L290.109 1483.86L343.277 1504.18L346.39 1377.09C346.242 1372.28 348.654 1365.77 352.567 1360.4C356.473 1355.05 361.157 1351.84 364.537 1352.21L418.326 1358.07L562.806 1137.89C566.111 1132.85 570.272 1129.25 573.762 1128.4C577.253 1127.56 579.561 1129.6 579.847 1133.76L585.07 1210.59C585.408 1215.57 582.805 1222.61 578.552 1228.22L416.999 1441.46L407.846 1426.01L562.316 1222.12L559 1173.38L423.447 1379.96C419.404 1386.12 414.178 1390 410.471 1389.6L369.469 1385.13L366.522 1517.64C366.68 1522.72 363.962 1529.71 359.693 1535.18C355.425 1540.66 350.499 1543.47 347.32 1542.26L265.684 1511.06C263.554 1510.25 262.46 1507.71 262.667 1504.05C262.873 1500.39 264.361 1495.95 266.772 1491.8L373.144 1246.91L370.628 1225.97C353.15 1247.13 319.96 1296.04 293.546 1321.98C273.995 1341.19 211.98 1506.18 202.778 1506.86C176.721 1508.8 137.389 1485.43 137.389 1485.43C134.543 1485.1 133.038 1482.27 133.361 1477.87L226.676 1249.08C227.029 1244.25 229.544 1238.25 233.232 1233.41C236.923 1228.57 241.21 1225.64 244.438 1225.76L282.608 1219.73L398.212 1033.06ZM366.152 1115.65L448.876 1179.12L496.921 1134.35L403.853 1054.77L366.152 1115.65ZM436.14 971.819L434.793 971.251L434.316 974.768L436.14 971.819ZM484.005 966.645L499.681 939.952L480.6 930.847L463.783 958.004L484.005 966.645ZM514.355 946.962L499.026 973.065L524.38 1042.5L559.315 970.074L514.355 946.962ZM493.088 910.695L511.659 919.559L540.084 871.158L515.375 874.699L493.088 910.695Z" fill="#F4EC62" stroke="black" stroke-width="5.85213" stroke-miterlimit="2" stroke-linejoin="round"/>
<path fill-rule="evenodd" clip-rule="evenodd" d="M1675.19 1396.05L1604.82 1276.83C1609.25 1274.96 1612.53 1271.24 1613.46 1267.01C1614.38 1262.8 1612.83 1258.69 1609.35 1256.21L1580.81 1261.05L1738.4 1533.32L1762.06 1584.7C1764.89 1590.84 1769.01 1595.41 1772.57 1596.35L1814.79 1607.58C1817.76 1608.37 1819.91 1606.53 1820.55 1602.65C1821.2 1598.77 1820.24 1593.37 1818 1588.18L1786.61 1515.69L1828.87 1500.26C1833.39 1498.61 1836.83 1495.04 1838.02 1490.91L1884.55 1561.7C1886.9 1565.28 1889.6 1567.79 1892.05 1568.65C1894.49 1569.52 1896.49 1568.68 1897.59 1566.32L1928.16 1500.7C1930.34 1496.03 1928.52 1486.68 1924 1479.31L1845.96 1352L1836.53 1367.92L1906.56 1482.15L1884 1530.55L1841.73 1466.23L1817.82 1384.39C1818.4 1380.42 1805.73 1371.48 1801.44 1372.84L1786.52 1377.57L1720.2 1456.22L1702.61 1418.02L1701.88 1390.5L1806.12 1316.34C1809.06 1314.25 1811.08 1311.27 1811.74 1308.07C1812.4 1304.87 1811.64 1301.72 1809.63 1299.29L1753.67 1231.94C1749.68 1227.14 1741.88 1226.4 1735.82 1230.23L1643.17 1288.93L1592.15 1178.14C1589.04 1171.38 1584.4 1166.59 1580.68 1166.32L1553.93 1156.9L1496.28 940.635C1502.16 940.939 1506.03 931.058 1521.83 934.082C1524.16 934.527 1578.96 1107.46 1582.66 1111.09C1587.83 1116.17 1670.36 1234.86 1670.36 1234.86C1673 1239.2 1676.17 1242.16 1678.96 1242.89C1681.74 1243.62 1683.81 1242.03 1684.58 1238.59L1693.64 1197.79C1694.49 1193.94 1693.6 1188.3 1691.28 1182.86L1618.48 936.233L1671.37 921.75L1661.22 1048.44C1660.58 1053.2 1662.21 1059.94 1665.4 1065.7C1668.58 1071.44 1672.72 1075.13 1675.99 1075.12L1727.99 1075.08L1843.29 1309.52C1845.93 1314.88 1849.53 1318.91 1852.78 1320.13C1856.03 1321.34 1858.44 1319.56 1859.15 1315.45L1872.07 1239.63C1872.91 1234.72 1871.15 1227.44 1867.67 1221.4L1735.34 992.033L1724.99 1006.41L1851.52 1225.73L1843.32 1273.82L1735.14 1053.87C1731.92 1047.31 1727.32 1042.89 1723.74 1042.89L1684.1 1042.93L1694.97 910.872C1695.65 905.832 1693.78 898.594 1690.26 892.694C1686.75 886.793 1682.33 883.462 1679.17 884.328L1597.95 906.567C1595.83 907.148 1594.52 909.557 1594.34 913.215C1594.16 916.873 1595.12 921.447 1597 925.836L1673.33 1180.75L1668.77 1201.29C1654.25 1178.37 1627.59 1126.18 1605.04 1097.55C1588.34 1076.35 1546.13 905.651 1537.41 903.98C1512.71 899.251 1472.72 918.264 1472.72 918.264C1469.96 918.283 1468.23 920.933 1468.09 925.344L1533.61 1162.84C1533.45 1167.68 1535.23 1173.91 1538.26 1179.12C1541.28 1184.34 1545.08 1187.71 1548.17 1187.94L1584.02 1198.03L1675.19 1396.05ZM1653.09 1310.49L1738.69 1256.28L1779.97 1305.96L1682.83 1375.07L1653.09 1310.49ZM1705.11 1461.01L1703.76 1461.43L1703.67 1457.88L1705.11 1461.01ZM1750.31 1471.3L1762.53 1499.52L1743.36 1506.52L1730.09 1477.72L1750.31 1471.3ZM1777.27 1494.13L1765.32 1466.53L1796.72 1400.23L1822.62 1475.99L1777.27 1494.13ZM1753.21 1527.9L1771.87 1521.09L1794.03 1572.26L1770.78 1566.09L1753.21 1527.9Z" fill="#F4EC62" stroke="black" stroke-width="5.73788" stroke-miterlimit="2" stroke-linejoin="round"/>
<path fill-rule="evenodd" clip-rule="evenodd" d="M1880.27 1247.71L1826.69 1119.38C1822.68 1122.09 1817.88 1122.75 1814.01 1121.13C1810.16 1119.5 1807.82 1115.82 1807.85 1111.44L1828.03 1089.87L1952.17 1380.27L1979.08 1429.89C1982.29 1435.82 1983.53 1441.95 1982.23 1445.52L1966.89 1487.97C1965.81 1490.94 1963.12 1491.73 1959.7 1490.05C1956.28 1488.38 1952.57 1484.47 1949.77 1479.58L1910.66 1411.28L1874.29 1438.47C1870.4 1441.38 1865.62 1442.28 1861.68 1440.93L1890.78 1521.16C1892.25 1525.22 1892.68 1528.96 1891.96 1531.54C1891.23 1534.12 1889.43 1535.34 1886.94 1534.93L1817.74 1523.4C1812.82 1522.58 1806.49 1515.67 1803.28 1507.6L1747.73 1368.1L1765.67 1369.18L1815.51 1494.35L1866.56 1502.85L1840.12 1429.94L1789.36 1362.66C1785.9 1360.88 1786.12 1344.95 1789.65 1342.08L1801.93 1332.06L1901.87 1320.56L1881.87 1283.68L1860.61 1267.29L1742.47 1313.69C1739.14 1315 1735.63 1315.02 1732.74 1313.75C1729.84 1312.47 1727.79 1310.02 1727.03 1306.91L1706.05 1220.6C1704.55 1214.44 1708.44 1207.36 1714.93 1204.39L1814.25 1159.02L1756.22 1052.03C1752.68 1045.51 1751.57 1038.8 1753.49 1035.48L1761.4 1007.27L1624.1 834.184C1620.97 839.373 1610.96 837.013 1604.29 852.222C1603.31 854.463 1708.12 1000.28 1708.86 1005.52C1709.89 1012.84 1756.09 1151.23 1756.09 1151.23C1757.98 1155.97 1758.5 1160.37 1757.48 1163.16C1756.46 1165.95 1754.02 1166.81 1750.87 1165.49L1713.55 1149.83C1710.03 1148.36 1706.09 1144.37 1703.14 1139.27L1550.61 935.868L1508.89 972.68L1614.5 1036.62C1618.61 1038.8 1622.98 1044.05 1625.69 1050.06C1628.39 1056.07 1628.92 1061.71 1627.04 1064.5L1597.22 1108.82L1715.8 1341.48C1718.51 1346.8 1719.62 1352.18 1718.71 1355.65C1717.81 1359.11 1715.02 1360.15 1711.38 1358.4L1644.26 1325.98C1639.91 1323.88 1635.19 1318.2 1632.43 1311.77L1527.6 1067.5L1544.85 1066.92L1645.08 1300.48L1687.67 1321.05L1576.41 1102.77C1573.1 1096.26 1572.24 1089.8 1574.3 1086.75L1597.04 1052.97L1486.8 986.572C1482.44 984.262 1477.82 978.515 1475.18 972.138C1472.55 965.761 1472.45 960.087 1474.95 957.886L1539.01 901.364C1540.68 899.889 1543.32 900.155 1546.31 902.097C1549.29 904.039 1552.34 907.481 1554.73 911.595L1711.76 1122.76L1730.56 1130.64C1720.82 1105.12 1694.99 1052.48 1685.36 1016.84C1678.24 990.457 1567.98 856.65 1571.66 848.256C1582.08 824.486 1619.98 801.273 1619.98 801.273C1621.57 798.936 1624.65 798.979 1628.21 801.382L1777.72 993.347C1781.62 995.98 1785.51 1001.07 1787.88 1006.64C1790.25 1012.21 1790.73 1017.37 1789.14 1020.15L1776.55 1056.5L1880.27 1247.71ZM1825.54 1179.84L1733.8 1221.77L1749.27 1285.44L1859.37 1242.2L1825.54 1179.84ZM1914.29 1310.45L1915.4 1309.54L1912.65 1307.43L1914.29 1310.45ZM1896.5 1354.89L1911.73 1381.48L1928.23 1369.14L1913.14 1341.32L1896.5 1354.89ZM1899.03 1390.96L1884.14 1364.96L1813.92 1353.74L1858.76 1419.24L1899.03 1390.96ZM1939.42 1389.79L1923.36 1401.8L1950.97 1450.02L1959.42 1426.66L1939.42 1389.79Z" fill="#F4EC62" stroke="black" stroke-width="5.73905" stroke-miterlimit="2" stroke-linejoin="round"/>
<path fill-rule="evenodd" clip-rule="evenodd" d="M1569.14 1112.3L1613.93 1244.22C1618.12 1241.81 1622.96 1241.5 1626.7 1243.4C1630.43 1245.31 1632.52 1249.15 1632.19 1253.52L1610.61 1273.56L1506.35 974.821L1482.84 923.355C1480.04 917.212 1479.21 911.004 1480.75 907.532L1498.92 866.313C1500.2 863.42 1502.93 862.833 1506.23 864.756C1509.53 866.672 1512.97 870.847 1515.43 875.923L1549.84 946.911L1587.95 922.438C1592.03 919.822 1596.86 919.28 1600.7 920.914L1577.07 838.749C1575.88 834.596 1575.71 830.836 1576.6 828.313C1577.5 825.79 1579.38 824.704 1581.83 825.301L1650.08 841.848C1654.94 843.023 1660.79 850.374 1663.45 858.664L1709.46 1001.88L1691.64 999.486L1650.36 870.992L1600.01 858.786L1621.47 933.44L1667.57 1004.27C1670.9 1006.29 1669.6 1022.16 1665.89 1024.78L1652.97 1033.87L1552.49 1038.05L1569.97 1076.3L1590.07 1094.2L1711.04 1056.54C1714.45 1055.47 1717.95 1055.71 1720.76 1057.19C1723.56 1058.67 1725.44 1061.27 1725.98 1064.42L1741.1 1152.06C1742.18 1158.3 1737.83 1165.08 1731.15 1167.57L1629.02 1205.59L1679.69 1316.54C1682.79 1323.31 1683.44 1330.08 1681.3 1333.26L1671.51 1360.82L1796.82 1543.5C1800.29 1538.55 1810.11 1541.63 1817.79 1526.95C1818.92 1524.78 1724.19 1371.68 1723.81 1366.4C1723.27 1359.02 1686.51 1217.6 1686.51 1217.6C1684.94 1212.74 1684.72 1208.31 1685.92 1205.6C1687.13 1202.89 1689.62 1202.21 1692.67 1203.75L1728.85 1222.1C1732.26 1223.82 1735.92 1228.1 1738.52 1233.39L1876.97 1447.42L1921.07 1413.75L1820.03 1342.26C1816.08 1339.78 1812.07 1334.23 1809.77 1328.03C1807.48 1321.85 1807.33 1316.17 1809.39 1313.53L1842.13 1271.5L1739.52 1030.76C1737.17 1025.25 1736.43 1019.8 1737.57 1016.41C1738.7 1013.02 1741.55 1012.19 1745.06 1014.2L1809.84 1051.44C1814.03 1053.85 1818.37 1059.86 1820.68 1066.47L1908.8 1317.8L1891.55 1317.12L1807.3 1076.81L1766.21 1053.19L1862.48 1279.05C1865.35 1285.79 1865.77 1292.29 1863.51 1295.18L1838.55 1327.22L1944.04 1401.5C1948.23 1404.12 1952.46 1410.19 1954.66 1416.75C1956.86 1423.3 1956.57 1428.97 1953.93 1430.98L1886.22 1482.69C1884.45 1484.04 1881.83 1483.58 1878.99 1481.43C1876.14 1479.27 1873.33 1475.61 1871.23 1471.34L1728.81 1249.24L1710.59 1240.01C1718.59 1266.17 1740.81 1320.56 1748.01 1356.82C1753.34 1383.66 1854.31 1525.18 1850.07 1533.28C1838.07 1556.24 1798.71 1576.63 1798.71 1576.63C1796.96 1578.84 1793.89 1578.57 1790.51 1575.92L1654.29 1373.52C1650.58 1370.61 1647.04 1365.24 1645.06 1359.52C1643.06 1353.79 1642.93 1348.6 1644.71 1345.95L1659.72 1310.61L1569.14 1112.3ZM1619.15 1183.99L1713.5 1148.86L1702.35 1084.22L1589.61 1119.32L1619.15 1183.99ZM1539.42 1047.23L1538.26 1048.06L1540.85 1050.37L1539.42 1047.23ZM1560.17 1004.2L1546.77 976.563L1529.48 987.666L1542.66 1016.52L1560.17 1004.2ZM1560.07 968.028L1573.17 995.056L1642.46 1011.37L1602.15 942.763L1560.07 968.028ZM1519.7 966.251L1536.53 955.446L1512.24 905.328L1502.23 928.015L1519.7 966.251Z" fill="#F4EC62" stroke="black" stroke-width="5.73883" stroke-miterlimit="2" stroke-linejoin="round"/>
<path fill-rule="evenodd" clip-rule="evenodd" d="M1808.95 1039.72L1871.12 1163.78C1866.58 1165.32 1863.06 1168.8 1861.85 1172.94C1860.64 1177.08 1861.91 1181.29 1865.21 1184.02L1894.01 1181.27L1755.15 898.181L1735.01 845.194C1732.61 838.87 1728.8 834.009 1725.32 832.81L1683.96 818.523C1681.05 817.524 1678.77 819.204 1677.87 823.027C1676.97 826.843 1677.56 832.308 1679.45 837.642L1705.88 912.242L1662.68 924.558C1658.06 925.875 1654.38 929.183 1652.92 933.215L1611.28 859.201C1609.17 855.461 1606.65 852.765 1604.27 851.724C1601.88 850.683 1599.84 851.373 1598.58 853.65L1563.66 916.875C1561.18 921.373 1562.36 930.833 1566.37 938.515L1635.64 1071.2L1646.12 1056.01L1583.96 936.957L1609.72 890.317L1647.55 957.565L1665.89 1040.95C1665.05 1044.87 1677.09 1054.71 1681.45 1053.66L1696.65 1050.03L1768.12 976.419L1783.09 1015.8L1781.96 1043.31L1672.98 1109.68C1669.91 1111.55 1667.69 1114.38 1666.82 1117.52C1665.94 1120.66 1666.49 1123.87 1668.33 1126.43L1719.62 1197.7C1723.27 1202.78 1731.01 1204.09 1737.31 1200.71L1833.69 1148.92L1877.11 1263.15C1879.76 1270.12 1884.07 1275.24 1887.76 1275.78L1913.81 1287.12L1956.74 1507.07C1950.9 1506.34 1946.37 1515.91 1930.81 1511.74C1928.52 1511.13 1885.51 1334.62 1882.07 1330.73C1877.25 1325.29 1802.92 1200.86 1802.92 1200.86C1800.57 1196.35 1797.61 1193.16 1794.88 1192.23C1792.16 1191.3 1789.98 1192.73 1788.98 1196.11L1777.2 1236.15C1776.09 1239.92 1776.6 1245.62 1778.55 1251.21L1834.55 1502.54L1780.81 1513.13L1799.47 1387.49C1800.43 1382.79 1799.26 1375.95 1796.47 1369.98C1793.68 1364.02 1789.8 1360.03 1786.54 1359.8L1734.66 1356.04L1635.44 1113.77C1633.17 1108.23 1629.85 1103.95 1626.69 1102.5C1623.53 1101.06 1621 1102.65 1620.03 1106.7L1602.02 1181.39C1600.86 1186.23 1602.12 1193.62 1605.19 1199.9L1721.74 1438.36L1733.03 1424.77L1621.59 1196.76L1633.01 1149.38L1726.1 1376.68C1728.88 1383.46 1733.16 1388.21 1736.73 1388.47L1776.28 1391.32L1756.53 1522.26C1755.52 1527.24 1756.9 1534.6 1760.01 1540.74C1763.11 1546.88 1767.3 1550.53 1770.51 1549.89L1853.03 1533.63C1855.18 1533.21 1856.65 1530.9 1857.08 1527.27C1857.5 1523.63 1856.85 1519 1855.28 1514.48L1796.3 1254.63L1802.24 1234.47C1815.18 1258.39 1838.25 1312.4 1858.83 1342.61C1874.05 1364.97 1904.66 1538.33 1913.25 1540.63C1937.56 1547.15 1978.74 1531.1 1978.74 1531.1C1981.49 1531.28 1983.39 1528.77 1983.84 1524.38L1934.48 1282.68C1934.96 1277.87 1933.6 1271.52 1930.94 1266.1C1928.27 1260.68 1924.71 1257.04 1921.64 1256.59L1886.56 1243.9L1808.95 1039.72ZM1825.24 1126.68L1736.2 1174.52L1698.37 1121.95L1799.93 1060.09L1825.24 1126.68ZM1783.49 972.737L1784.86 972.416L1784.72 975.962L1783.49 972.737ZM1739.1 959.175L1728.81 930.13L1748.41 924.545L1759.7 954.249L1739.1 959.175ZM1713.74 934.433L1723.8 962.836L1688.01 1026.69L1667.28 949.225L1713.74 934.433ZM1740.02 902.501L1720.95 907.94L1702.29 855.273L1725.06 863.129L1740.02 902.501Z" fill="#F4EC62" stroke="black" stroke-width="5.73759" stroke-miterlimit="2" stroke-linejoin="round"/>
<path fill-rule="evenodd" clip-rule="evenodd" d="M768.296 956.09L506.273 798.168L136.993 1458.29L140.077 1482.82L202.404 1509.95L226.287 1480.48L267.673 1558.46L288.762 1543.24L373.243 1611.56L768.296 956.09Z" fill="black" fill-opacity="0.3"/>
<path d="M619.865 882.014L266.236 1530.24" stroke="#8FD926" stroke-opacity="0.58" stroke-width="130" stroke-miterlimit="1.5" stroke-linejoin="round"/>
<path fill-rule="evenodd" clip-rule="evenodd" d="M741.77 935.074L617.504 869.064L258.52 1544.86L269.258 1556.39L290.985 1542.9L319.959 1566.82L337.418 1562.59L345.986 1591.32L382.786 1610.87L741.77 935.074Z" fill="black" fill-opacity="0.3"/>
<path fill-rule="evenodd" clip-rule="evenodd" d="M1678.68 814.473L1404.75 950.697L1545.9 1198.65L1747.04 1641.92L1786.38 1607.07L1808.54 1608.05L1808.27 1581.69L1849.23 1531.83L1887.28 1566.16L1905.78 1542.51L1965.58 1531.73C1954.6 1497.59 1945.17 1461.79 1965.54 1435.52L1678.68 814.473Z" fill="black" fill-opacity="0.3"/>
<path d="M1547.06 854.332L1894.7 1521.03" stroke="#8FD926" stroke-opacity="0.58" stroke-width="130" stroke-miterlimit="1.5" stroke-linejoin="round"/>
<path fill-rule="evenodd" clip-rule="evenodd" d="M1542.24 831.53L1414.42 890.492L1753.3 1624.74L1808.46 1607.69L1807.12 1581.29L1850.72 1529.68L1876.66 1556.49L1542.24 831.53Z" fill="black" fill-opacity="0.3"/>
<path fill-rule="evenodd" clip-rule="evenodd" d="M1081.47 844.879C1387.48 844.879 1636.97 1125.91 1636.97 1473.21C1636.97 1820.51 1387.48 2101.54 1081.47 2101.54C775.466 2101.54 525.963 1820.51 525.963 1473.21C525.963 1125.91 775.466 844.879 1081.47 844.879ZM1083.09 879.288C793.507 879.288 559.606 1144.19 559.606 1472.85C559.606 1801.52 791.892 2069.65 1081.47 2069.65C1371.05 2069.65 1605.08 1801.88 1605.08 1473.21C1605.08 1144.55 1372.66 879.288 1083.09 879.288Z" fill="#808080" stroke="white" stroke-width="7.00056" stroke-miterlimit="2" stroke-linejoin="round"/>
<path fill-rule="evenodd" clip-rule="evenodd" d="M812.619 2481.83C812.619 2481.83 809.211 2428.76 758.51 2395.24C733.617 2378.78 648.035 2405.34 641.823 2370.63C622.943 2265.18 518.267 1679.94 513.123 1649.22C507.979 1618.48 374.382 1410.04 374.382 1410.04L271.606 1027.7C271.606 1027.7 169.667 1262.62 201.642 1377.82C233.618 1493.01 475.226 1711.72 475.226 1711.72C539.067 1963.29 562.222 2195.17 510.286 2436.21C504.202 2481.86 525.914 2547.45 552.623 2566.55C616.451 2612.2 732.139 2545.5 812.619 2481.83Z" fill="black" fill-opacity="0.4"/>
<path fill-rule="evenodd" clip-rule="evenodd" d="M1033.39 2190.36C806.93 2150.59 603.898 2086.54 447.83 1973.86L478.146 2319.1L738.24 2369.19L1033.39 2190.36Z" fill="#FF2E33" stroke="#FFD3D4" stroke-width="14.4562" stroke-miterlimit="1.5" stroke-linejoin="round"/>
<path fill-rule="evenodd" clip-rule="evenodd" d="M1167.11 2190.36C1373.53 2150.83 1570.41 2082.49 1753.95 1973.86L1723.56 2319.1L1462.9 2369.19L1167.11 2190.36Z" fill="#FF2E33" stroke="#FFD3D4" stroke-width="14.461" stroke-miterlimit="1.5" stroke-linejoin="round"/>
<path fill-rule="evenodd" clip-rule="evenodd" d="M1656.27 2341.19L1609.2 2440.78L1494.74 2536.77L1308.71 2455.76L830.146 2393.81L556.283 2331.4L477.624 2310.13L474.299 2217.8L450.008 1984.03L693.181 2107.23L765.251 2193.09L975.588 2219.2L1003.89 2211.59L1167.3 2219.15L1136.62 2185.18L1198.43 2181.26L1269.15 2209.25L1711.19 2186.49L1544.29 2250.64L1656.27 2341.19Z" fill="black" fill-opacity="0.3"/>
<path fill-rule="evenodd" clip-rule="evenodd" d="M1765.46 2176.66C1310.12 2269.13 871.819 2251.5 441.445 2177.49L600.375 2396.21L789.613 2442.67L820.298 2540.12C1003.43 2568.48 1191.15 2563.79 1382.67 2531.66L1419.23 2431.32L1607.79 2393.3L1765.46 2176.66Z" fill="#FF2E33" stroke="#FFD3D4" stroke-width="12.6178" stroke-miterlimit="1.5" stroke-linejoin="round"/>
<path fill-rule="evenodd" clip-rule="evenodd" d="M1107.15 2320.83L1119.97 2362.89L1144.65 2349.89L1140.7 2378.95H1182.15L1148.61 2404.95L1167.83 2425.98L1140.7 2430.94L1153.51 2473L1119.97 2447.01L1107.15 2473L1094.34 2447.01L1060.8 2473L1073.61 2430.94L1046.48 2425.98L1065.7 2404.95L1032.16 2378.95H1073.61L1069.66 2349.89L1094.34 2362.89L1107.15 2320.83Z" fill="#FFF8B8"/>
<path fill-rule="evenodd" clip-rule="evenodd" d="M1126.29 2315L1132.05 2333.93L1135.34 2332.2C1141.97 2328.71 1149.99 2329.21 1156.12 2333.51C1162.26 2337.81 1165.48 2345.17 1164.47 2352.59L1163.6 2358.95H1182.15C1190.7 2358.95 1198.31 2364.39 1201.08 2372.48C1203.84 2380.57 1201.16 2389.53 1194.41 2394.76L1178.01 2407.47L1182.59 2412.49C1187.5 2417.85 1189.11 2425.46 1186.79 2432.36C1184.46 2439.25 1178.58 2444.34 1171.43 2445.65L1166.37 2446.58L1172.64 2467.17C1175.18 2475.5 1172.03 2484.52 1164.86 2489.47C1157.69 2494.41 1148.14 2494.14 1141.26 2488.81L1127.08 2477.82L1125.09 2481.84C1121.73 2488.67 1114.77 2493 1107.15 2493C1099.54 2493 1092.58 2488.67 1089.22 2481.84L1087.23 2477.82L1073.05 2488.81C1066.17 2494.14 1056.62 2494.41 1049.45 2489.47C1042.28 2484.52 1039.13 2475.5 1041.67 2467.17L1047.95 2446.58L1042.88 2445.65C1035.73 2444.34 1029.85 2439.25 1027.53 2432.36C1025.2 2425.46 1026.81 2417.85 1031.72 2412.49L1036.3 2407.47L1019.91 2394.76C1013.15 2389.53 1010.46 2380.57 1013.23 2372.48C1016 2364.39 1023.61 2358.95 1032.16 2358.95H1050.71L1049.84 2352.59C1048.83 2345.17 1052.05 2337.81 1058.19 2333.51C1064.32 2329.21 1072.34 2328.71 1078.97 2332.2L1082.26 2333.93L1088.02 2315C1090.59 2306.58 1098.35 2300.83 1107.15 2300.83C1115.96 2300.83 1123.72 2306.58 1126.29 2315ZM1107.15 2320.83L1094.34 2362.89L1069.66 2349.89L1073.61 2378.95H1032.16L1065.7 2404.95L1046.48 2425.98L1073.61 2430.94L1060.8 2473L1094.34 2447.01L1107.15 2473L1119.97 2447.01L1153.51 2473L1140.7 2430.94L1167.83 2425.98L1148.61 2404.95L1182.15 2378.95H1140.7L1144.65 2349.89L1119.97 2362.89L1107.15 2320.83Z" fill="#FF050B"/>
<path fill-rule="evenodd" clip-rule="evenodd" d="M1350.79 2242.71L1416.42 2437.29L1463.38 2429.18L1453.48 2395.93L1491.67 2424.91L1438.48 2220.94L1395.38 2219.67L1345.35 2215.6L1350.79 2242.71Z" fill="#F2DDC8" stroke="black" stroke-width="8.99999" stroke-miterlimit="1.5" stroke-linecap="square" stroke-linejoin="round"/>
<path fill-rule="evenodd" clip-rule="evenodd" d="M1416.31 2233.62L1445.17 2436.94L1491.91 2426.11L1489.18 2403.07L1521.41 2438.56L1506.51 2228.3L1464.37 2219.15L1415.94 2205.98L1416.31 2233.62Z" fill="#F2DDC8" stroke="black" stroke-width="9.00003" stroke-miterlimit="1.5" stroke-linecap="square" stroke-linejoin="round"/>
<path fill-rule="evenodd" clip-rule="evenodd" d="M1447.5 2230.42L1500.48 2428.81L1547.87 2423.74L1547.52 2402.73L1576.37 2421.3L1536.41 2214.33L1493.48 2210.29L1443.81 2203.01L1447.5 2230.42Z" fill="#F2DDC8" stroke="black" stroke-width="9.00002" stroke-miterlimit="1.5" stroke-linecap="square" stroke-linejoin="round"/>
<path fill-rule="evenodd" clip-rule="evenodd" d="M1510.31 2216.91L1510.03 2215.53L1512.79 2214.97L1513.07 2216.35C1513.07 2216.35 1515.43 2225.93 1518.58 2239.66C1520.18 2246.62 1521.99 2254.65 1523.77 2263.03C1524.75 2267.66 1525.69 2272.39 1526.62 2277.11C1527.55 2281.87 1528.43 2286.62 1529.29 2291.23C1533.56 2314.25 1537 2333.63 1537 2333.63L1537.28 2335.01L1534.52 2335.57L1534.24 2334.19C1534.24 2334.19 1529.81 2315.01 1524.72 2292.16C1523.7 2287.59 1522.66 2282.87 1521.65 2278.12C1520.65 2273.42 1519.66 2268.69 1518.76 2264.06C1517.11 2255.64 1515.63 2247.55 1514.37 2240.52C1511.89 2226.66 1510.31 2216.91 1510.31 2216.91Z" fill="black"/>
<path fill-rule="evenodd" clip-rule="evenodd" d="M1484.29 2214.26L1483.87 2212.92L1486.55 2212.08L1486.97 2213.42C1486.97 2213.42 1491.27 2225.79 1497.18 2243.51C1500.18 2252.51 1503.61 2262.87 1507.07 2273.7C1508.98 2279.67 1510.88 2285.8 1512.75 2291.89C1514.64 2298.05 1516.48 2304.19 1518.25 2310.14C1527.14 2339.91 1534.47 2364.98 1534.47 2364.98L1534.89 2366.33L1532.21 2367.17L1531.79 2365.82C1531.79 2365.82 1523.49 2341.05 1513.81 2311.54C1511.87 2305.64 1509.87 2299.54 1507.91 2293.41C1505.96 2287.34 1504.03 2281.23 1502.19 2275.23C1498.85 2264.36 1495.75 2253.89 1493.08 2244.8C1487.82 2226.87 1484.29 2214.26 1484.29 2214.26Z" fill="black"/>
<path fill-rule="evenodd" clip-rule="evenodd" d="M1551.03 2398.91L1551.1 2400.32L1548.29 2400.46L1548.22 2399.06C1548.22 2399.06 1547.68 2396.46 1547.14 2392.66C1546.86 2390.74 1546.57 2388.55 1546.38 2386.24C1546.28 2384.97 1546.23 2383.67 1546.2 2382.38C1546.17 2381.07 1546.19 2379.76 1546.2 2378.5C1546.29 2372.16 1546.51 2366.86 1546.51 2366.86L1546.44 2365.45L1549.25 2365.31L1549.32 2366.71C1549.32 2366.71 1550.1 2371.95 1550.86 2378.25C1551.01 2379.51 1551.16 2380.8 1551.27 2382.11C1551.37 2383.4 1551.46 2384.7 1551.5 2385.97C1551.55 2388.29 1551.49 2390.5 1551.42 2392.43C1551.29 2396.27 1551.03 2398.91 1551.03 2398.91Z" fill="black"/>
<path fill-rule="evenodd" clip-rule="evenodd" d="M1491.37 2417.95L1491.79 2419.3L1489.1 2420.13L1488.68 2418.79C1488.68 2418.79 1485.38 2409.48 1480.89 2396.12C1478.61 2389.34 1476.01 2381.53 1473.41 2373.36C1471.98 2368.86 1470.57 2364.23 1469.18 2359.62C1467.78 2354.97 1466.43 2350.33 1465.13 2345.83C1458.6 2323.33 1453.26 2304.37 1453.26 2304.37L1452.84 2303.03L1455.53 2302.19L1455.95 2303.54C1455.95 2303.54 1462.25 2322.2 1469.58 2344.45C1471.05 2348.91 1472.56 2353.5 1474.03 2358.12C1475.49 2362.71 1476.94 2367.32 1478.3 2371.85C1480.77 2380.06 1483.04 2387.97 1484.99 2394.85C1488.84 2408.41 1491.37 2417.95 1491.37 2417.95Z" fill="black"/>
<path fill-rule="evenodd" clip-rule="evenodd" d="M1442.32 2250.76L1442.19 2249.36L1444.99 2249.1L1445.12 2250.5C1445.12 2250.5 1446.43 2260.35 1448.07 2274.43C1448.91 2281.58 1449.84 2289.81 1450.7 2298.4C1451.18 2303.13 1451.61 2307.97 1452.02 2312.8C1452.43 2317.67 1452.79 2322.52 1453.14 2327.22C1454.89 2350.73 1456.22 2370.51 1456.22 2370.51L1456.35 2371.91L1453.55 2372.17L1453.41 2370.77C1453.41 2370.77 1451.09 2351.08 1448.5 2327.65C1447.98 2322.96 1447.45 2318.13 1446.96 2313.27C1446.48 2308.45 1446.01 2303.61 1445.61 2298.87C1444.88 2290.27 1444.29 2282.01 1443.8 2274.83C1442.83 2260.68 1442.32 2250.76 1442.32 2250.76Z" fill="black"/>
<path fill-rule="evenodd" clip-rule="evenodd" d="M1393.07 2222.04L1392.75 2220.67L1395.5 2220.03L1395.82 2221.4C1395.82 2221.4 1397.26 2225.83 1399.1 2232.24C1400.03 2235.48 1401.08 2239.22 1402.07 2243.15C1402.61 2245.31 1403.11 2247.54 1403.58 2249.76C1404.07 2252 1404.5 2254.24 1404.92 2256.41C1407.03 2267.28 1408.64 2276.43 1408.64 2276.43L1408.96 2277.8L1406.22 2278.44L1405.9 2277.07C1405.9 2277.07 1403.3 2268.14 1400.38 2257.47C1399.8 2255.33 1399.2 2253.13 1398.64 2250.91C1398.09 2248.71 1397.55 2246.49 1397.08 2244.31C1396.23 2240.35 1395.52 2236.53 1394.92 2233.21C1393.74 2226.65 1393.07 2222.04 1393.07 2222.04Z" fill="black"/>
<path fill-rule="evenodd" clip-rule="evenodd" d="M1370.88 2218.88L1370.45 2217.54L1373.13 2216.68L1373.56 2218.02C1373.56 2218.02 1376.71 2226.51 1380.98 2238.71C1383.14 2244.9 1385.61 2252.03 1388.08 2259.5C1389.44 2263.62 1390.77 2267.84 1392.08 2272.06C1393.41 2276.31 1394.68 2280.55 1395.91 2284.67C1402.08 2305.25 1407.11 2322.6 1407.11 2322.6L1407.54 2323.94L1404.86 2324.8L1404.43 2323.46C1404.43 2323.46 1398.43 2306.42 1391.47 2286.09C1390.08 2282.03 1388.65 2277.84 1387.25 2273.61C1385.87 2269.42 1384.49 2265.2 1383.2 2261.07C1380.87 2253.56 1378.73 2246.32 1376.89 2240.02C1373.26 2227.62 1370.88 2218.88 1370.88 2218.88Z" fill="black"/>
<path fill-rule="evenodd" clip-rule="evenodd" d="M1430.98 2429.34L1431.33 2430.7L1428.61 2431.4L1428.26 2430.04C1428.26 2430.04 1427.02 2426.83 1425.46 2422.13C1424.67 2419.76 1423.79 2417.02 1422.97 2414.14C1422.53 2412.55 1422.13 2410.91 1421.75 2409.27C1421.36 2407.62 1421.02 2405.97 1420.69 2404.36C1419.06 2396.32 1417.84 2389.56 1417.84 2389.56L1417.49 2388.2L1420.21 2387.49L1420.56 2388.86C1420.56 2388.86 1422.76 2395.37 1425.21 2403.2C1425.7 2404.76 1426.2 2406.37 1426.66 2408.01C1427.12 2409.62 1427.56 2411.25 1427.93 2412.86C1428.61 2415.78 1429.16 2418.6 1429.62 2421.06C1430.52 2425.93 1430.98 2429.34 1430.98 2429.34Z" fill="black"/>
<path fill-rule="evenodd" clip-rule="evenodd" d="M1511.69 2216.63L1534.38 2327.83L1504.25 2215.01L1511.69 2216.63Z" fill="black" fill-opacity="0.4"/>
<path fill-rule="evenodd" clip-rule="evenodd" d="M1569.02 2405.41L1551.27 2392.18L1546 2365.78L1543.56 2396.45L1493.67 2237.99L1540.73 2411.23L1528.83 2418.15L1521.8 2400.59L1518.89 2419.97L1506.57 2418.7L1496.4 2402.38L1453.88 2267.32C1458.8 2289.97 1462.25 2315.93 1462.81 2330.15L1487.38 2399.39L1446.52 2280.25L1456.76 2393.29L1455.15 2305.42L1483.31 2415.28C1472.5 2419.55 1465.56 2415.05 1463.23 2400.12C1460.86 2412.64 1456.71 2420.72 1450.44 2424.33L1425.88 2308.65L1428.96 2417.83L1420.32 2394.58C1411.46 2392.74 1403.38 2381.84 1395.69 2366.14L1418.79 2436.47L1443.47 2432.15L1547.02 2423.28L1549.23 2403.72L1573.45 2416.58L1569.02 2405.41Z" fill="black" fill-opacity="0.4"/>
<path fill-rule="evenodd" clip-rule="evenodd" d="M881.928 2239.81C881.928 2239.81 803.239 2300.62 816.822 2329.03C830.406 2357.44 941.876 2551.62 941.876 2551.62L825.04 2531.23L794.932 2432.32L607.426 2393.75L447.098 2182.42L881.928 2239.81Z" fill="black" fill-opacity="0.3"/>
<path fill-rule="evenodd" clip-rule="evenodd" d="M774.496 914.496L524.508 779.15L286.085 743.977L754.499 981.334L774.496 914.496Z" fill="#808080" stroke="white" stroke-width="16.1745" stroke-miterlimit="1.5" stroke-linecap="square" stroke-linejoin="round"/>
<path fill-rule="evenodd" clip-rule="evenodd" d="M747.051 939.709L751.797 920.778L612.219 841.971C662.646 875.014 716.734 908.366 747.051 939.709Z" fill="white"/>
<path fill-rule="evenodd" clip-rule="evenodd" d="M569.873 1199.41L254.894 1022.45L146.036 1218.92L105.855 1433.67L506.851 1385.5L520.468 1322.31L569.873 1199.41Z" fill="#808080" stroke="white" stroke-width="16.1745" stroke-miterlimit="1.5" stroke-linecap="square" stroke-linejoin="round"/>
<path fill-rule="evenodd" clip-rule="evenodd" d="M609.695 1107.1L320.504 890.549L150.683 1032.9L80.2928 1322.5L520.693 1320.98L548.837 1213.36L609.695 1107.1Z" fill="#808080" stroke="white" stroke-width="16.1745" stroke-miterlimit="1.5" stroke-linecap="square" stroke-linejoin="round"/>
<path fill-rule="evenodd" clip-rule="evenodd" d="M437.627 1008.38C437.627 1008.38 532.069 1083.47 544.413 1114.08C554.951 1140.21 530.101 1188.4 530.101 1188.4L578.97 1111.7L437.627 1008.38Z" fill="white"/>
<path fill-rule="evenodd" clip-rule="evenodd" d="M349.328 930.139L244.098 1045.69L289.738 1318.79L515.733 1319.48L504.956 1343.44L289.314 1350.97L243.971 1407.01L110.727 1433.51L135.05 1324.18L92.6387 1316.63L154.593 1032.89L323.715 892.518L349.328 930.139Z" fill="black" fill-opacity="0.3"/>
<path fill-rule="evenodd" clip-rule="evenodd" d="M352.514 1080.72L399.39 1112.32L369.761 1150.16L417.701 1164.61L399.796 1215.74L351.856 1201.29V1248.06H293.914V1201.29L245.973 1215.74L228.068 1164.61L276.009 1150.16L246.38 1112.32L293.256 1080.72L322.885 1118.56L352.514 1080.72Z" fill="#F4EC62" stroke="white" stroke-width="13" stroke-miterlimit="1.5" stroke-linecap="round" stroke-linejoin="round"/>
<path fill-rule="evenodd" clip-rule="evenodd" d="M1595.09 1208.39L1910.07 1031.43L2018.93 1227.9L2059.11 1442.65L1658.11 1394.48L1644.5 1331.29L1595.09 1208.39Z" fill="#808080" stroke="white" stroke-width="16.1745" stroke-miterlimit="1.5" stroke-linecap="square" stroke-linejoin="round"/>
<path fill-rule="evenodd" clip-rule="evenodd" d="M2035.89 1318.57L2044.56 1364.92L1654.13 1360.05L1645.79 1323.68L2035.89 1318.57Z" fill="black" fill-opacity="0.3"/>
<path fill-rule="evenodd" clip-rule="evenodd" d="M1555.27 1116.08L1844.46 899.525L2014.28 1041.88L2084.67 1331.48L1644.27 1329.96L1616.13 1222.34L1555.27 1116.08Z" fill="#808080" stroke="white" stroke-width="16.1745" stroke-miterlimit="1.5" stroke-linecap="square" stroke-linejoin="round"/>
<path fill-rule="evenodd" clip-rule="evenodd" d="M1823.31 1072.45L1847.67 1135.9H1926.49L1862.72 1175.11L1887.08 1238.56L1823.31 1199.35L1759.54 1238.56L1783.9 1175.11L1720.13 1135.9H1798.95L1823.31 1072.45Z" fill="#F4EC62" stroke="white" stroke-width="13" stroke-miterlimit="1.5" stroke-linecap="round" stroke-linejoin="round"/>
<path fill-rule="evenodd" clip-rule="evenodd" d="M2023.69 1090.09L2048.68 1200.46L1984.91 1239.67L2009.27 1176.22L1945.5 1137.01H2024.32L2023.69 1090.09Z" fill="#F4EC62" stroke="white" stroke-width="13" stroke-miterlimit="1.5" stroke-linecap="round" stroke-linejoin="round"/>
<path fill-rule="evenodd" clip-rule="evenodd" d="M1829.75 922.223L1648.35 1062.56L1846.73 937.779L1965.94 1051.12L2026.06 1322.61L2072.87 1320.43L2005.62 1049.07L1844.07 912.156L1829.75 922.223Z" fill="white"/>
<path fill-rule="evenodd" clip-rule="evenodd" d="M1336.9 930.506C1251.67 882.446 1165.12 862.723 1041.26 862.432C1041.26 862.432 1140.49 855.58 1193.31 866.926C1240.32 877.021 1336.9 930.506 1336.9 930.506Z" fill="white"/>
<path fill-rule="evenodd" clip-rule="evenodd" d="M1399.11 919.75L1649.1 784.404L1887.52 749.231L1419.11 986.588L1399.11 919.75Z" fill="#808080" stroke="white" stroke-width="16.1745" stroke-miterlimit="1.5" stroke-linecap="square" stroke-linejoin="round"/>
<path fill-rule="evenodd" clip-rule="evenodd" d="M1730.9 799.521C1734.9 800.738 1729.96 812.021 1729.96 812.021L1792.08 778.443L1655.6 797.532C1655.6 797.532 1721.06 796.524 1730.9 799.521Z" fill="white"/>
<path fill-rule="evenodd" clip-rule="evenodd" d="M1356.8 1021.61C1356.8 1021.61 1525.22 1227.56 1524.7 1359.24C1523.8 1587.83 1415.96 1824.39 1415.96 1824.39C1525.65 1521.86 1477.75 1244.58 1356.8 1021.61Z" fill="white"/>
</g>
<defs>
<clipPath id="clip0_910_1028">
<rect width="2160" height="2700" fill="white"/>
</clipPath>
</defs>
</svg>
