<svg width="2160" height="2700" viewBox="0 0 2160 2700" fill="none" xmlns="http://www.w3.org/2000/svg">
<path d="M399.409 1301.31L353.106 1077.49L187.41 1217.61L233.713 1441.43L399.409 1301.31Z" fill="#1D9A6C" stroke="black" stroke-width="11.138" stroke-miterlimit="1.5" stroke-linecap="round" stroke-linejoin="round"/>
<path d="M445.067 1218.55L398.764 994.73L233.068 1134.85L279.371 1358.67L445.067 1218.55Z" fill="#1D9A6C" stroke="black" stroke-width="11.138" stroke-miterlimit="1.5" stroke-linecap="round" stroke-linejoin="round"/>
<path d="M491.534 1120.73L445.23 896.914L279.535 1037.03L325.838 1260.85L491.534 1120.73Z" fill="#1D9A6C" stroke="black" stroke-width="11.138" stroke-miterlimit="1.5" stroke-linecap="round" stroke-linejoin="round"/>
<path d="M540.053 1032.76L493.75 808.941L328.054 949.061L374.357 1172.88L540.053 1032.76Z" fill="#1D9A6C" stroke="black" stroke-width="11.138" stroke-miterlimit="1.5" stroke-linecap="round" stroke-linejoin="round"/>
<path fill-rule="evenodd" clip-rule="evenodd" d="M698.392 907.868L704.126 679.387L512.023 804.725L447.008 815.249L406.687 1057.1L698.392 907.868Z" fill="#1D9A6C" stroke="black" stroke-width="13.6864" stroke-miterlimit="1.5" stroke-linecap="round" stroke-linejoin="round"/>
<path d="M1748.29 1278.62L1794.59 1054.81L1960.28 1194.93L1913.98 1418.74L1748.29 1278.62Z" fill="#1D9A6C" stroke="black" stroke-width="11.138" stroke-miterlimit="1.5" stroke-linecap="round" stroke-linejoin="round"/>
<path d="M1702.63 1195.86L1748.93 972.045L1914.63 1112.16L1868.32 1335.98L1702.63 1195.86Z" fill="#1D9A6C" stroke="black" stroke-width="11.138" stroke-miterlimit="1.5" stroke-linecap="round" stroke-linejoin="round"/>
<path d="M1656.16 1098.04L1702.46 874.229L1868.16 1014.35L1821.86 1238.16L1656.16 1098.04Z" fill="#1D9A6C" stroke="black" stroke-width="11.138" stroke-miterlimit="1.5" stroke-linecap="round" stroke-linejoin="round"/>
<path d="M1607.64 1010.07L1653.95 786.256L1819.64 926.376L1773.34 1150.19L1607.64 1010.07Z" fill="#1D9A6C" stroke="black" stroke-width="11.138" stroke-miterlimit="1.5" stroke-linecap="round" stroke-linejoin="round"/>
<path fill-rule="evenodd" clip-rule="evenodd" d="M1466.12 884.762L1460.39 656.281L1652.49 781.619L1717.5 792.143L1757.82 1033.99L1466.12 884.762Z" fill="#1D9A6C" stroke="black" stroke-width="13.6863" stroke-miterlimit="1.5" stroke-linecap="round" stroke-linejoin="round"/>
<path fill-rule="evenodd" clip-rule="evenodd" d="M1120.43 351.093C1339.18 346.991 1926.45 1195.33 1967.92 1325.75C2005.09 1442.63 1686.51 1579.53 1686.51 1717.3C1686.51 1855.68 1672.3 1988.86 1640.97 2107.97C1614.86 2207.25 1810.24 2130 1758.66 2204.62C1710.89 2273.72 1417.78 2496.71 1351.96 2538.14C1267.02 2591.59 1171.92 2620.39 1079.21 2620.39C983.03 2620.39 892.051 2587.07 811.193 2527.78C755.417 2486.88 476.424 2279.81 431.912 2216.6C380.877 2144.13 566.351 2212.39 534.698 2117.39C494.507 1996.77 471.911 1860.93 471.911 1717.3C471.911 1624.35 173.775 1438.07 191.345 1353.66C221.945 1206.66 880.063 355.6 1120.43 351.093ZM1082.49 885.246C797.884 885.246 566.82 1148.41 566.82 1472.55C566.82 1796.7 797.884 2059.86 1082.49 2059.86C1367.1 2059.86 1598.17 1796.7 1598.17 1472.55C1598.17 1148.41 1367.1 885.246 1082.49 885.246Z" fill="#00A8E4" stroke="black" stroke-width="16" stroke-miterlimit="1.5" stroke-linecap="round" stroke-linejoin="round"/>
<path fill-rule="evenodd" clip-rule="evenodd" d="M1970.73 1340.35C1970.73 1340.35 1791.83 1057.88 1716.22 960.416C1563.02 762.926 1225.23 404.722 1191.04 387.511C1150.31 367.008 1123.9 365.055 1081.78 376.503L1268.21 669.604L1145.23 752.009L1147.64 813.074C1258.36 818.876 1360.92 887.377 1460.94 975.493L1268.09 755.402L1251.1 696.896L1317.67 643.095L1172.73 420.654C1464.25 697.378 1729.8 1004.48 1970.73 1340.35Z" fill="white" fill-opacity="0.7"/>
<path d="M1763.61 1576.28L1748.51 1476.05L1779.7 1448.09L1805.87 1541.22" stroke="black" stroke-width="9.99999" stroke-miterlimit="1.5" stroke-linecap="round" stroke-linejoin="round"/>
<path d="M1842.07 1510.33L1820.04 1418.31L1850.2 1387.43L1877.4 1483.48" stroke="black" stroke-width="9.99999" stroke-miterlimit="1.5" stroke-linecap="round" stroke-linejoin="round"/>
<path d="M1086.87 2363.54L1087.42 2439.84" stroke="black" stroke-width="9.99999" stroke-miterlimit="1.5" stroke-linecap="round" stroke-linejoin="round"/>
<path d="M722.949 2463.42L793.644 2388.96C867.23 2440.53 941.931 2490.49 1047.36 2496.33L1070.67 2444.92L1107.15 2444.52" stroke="black" stroke-width="9.99999" stroke-miterlimit="1.5" stroke-linecap="round" stroke-linejoin="round"/>
<path d="M1454.86 2455.41L1384.17 2380.94C1307.4 2429.34 1229.92 2476.85 1129.17 2495.04L1107.16 2444.52" stroke="black" stroke-width="9.99999" stroke-miterlimit="1.5" stroke-linecap="round" stroke-linejoin="round"/>
<path d="M1110.45 344.057L1093.58 830.265" stroke="black" stroke-width="9.99999" stroke-miterlimit="1.5" stroke-linecap="round" stroke-linejoin="round"/>
<path d="M417.998 1219.7C473.43 1092.3 546.823 978.645 631.94 873.972L694.525 876.476C735.724 808.63 785.171 745.725 845.807 689.523L1092.11 819.395" stroke="black" stroke-width="9.99999" stroke-miterlimit="1.5" stroke-linecap="round" stroke-linejoin="round"/>
<path d="M1770.98 1219.7C1712.08 1103.18 1642.98 994.073 1560.01 895.049L1508.44 905.757C1461.56 827.203 1409.47 752.755 1343.18 689.523L1096.87 819.395" stroke="black" stroke-width="9.99999" stroke-miterlimit="1.5" stroke-linecap="round" stroke-linejoin="round"/>
<path d="M492.297 1950.01L521.271 1794.41L575.792 1755.3" stroke="black" stroke-width="9.99999" stroke-miterlimit="1.5" stroke-linecap="round" stroke-linejoin="round"/>
<path d="M1670.33 1922.49L1641.35 1766.89L1586.83 1727.78" stroke="black" stroke-width="9.99999" stroke-miterlimit="1.5" stroke-linecap="round" stroke-linejoin="round"/>
<path fill-rule="evenodd" clip-rule="evenodd" d="M237.383 1444.26L299.978 1283.64C471.332 1107.15 436.271 1378.08 486.535 1464.07L467.97 1688.62" fill="#FF2E33"/>
<path d="M237.383 1444.26L299.978 1283.64C471.332 1107.15 436.271 1378.08 486.534 1464.07L467.97 1688.62" stroke="black" stroke-width="9.99999" stroke-miterlimit="1.5" stroke-linecap="round" stroke-linejoin="round"/>
<path d="M282.997 1324.66L481.244 1501.24L479.257 1540L266.681 1375.95L248.233 1422.19L475.965 1580.66L472.765 1621.76L287.983 1492.39L386.801 1590.28L467.527 1651.26" stroke="black" stroke-width="9.99999" stroke-miterlimit="1.5" stroke-linecap="round" stroke-linejoin="round"/>
<path fill-rule="evenodd" clip-rule="evenodd" d="M1920.07 1426.83L1857.47 1266.21C1686.12 1089.72 1721.18 1360.65 1670.92 1446.64L1689.48 1671.19" fill="#FF2E33"/>
<path d="M1920.07 1426.83L1857.47 1266.21C1686.12 1089.72 1721.18 1360.65 1670.92 1446.64L1689.48 1671.19" stroke="black" stroke-width="9.99999" stroke-miterlimit="1.5" stroke-linecap="round" stroke-linejoin="round"/>
<path d="M1874.45 1307.23L1676.21 1483.81L1678.19 1522.57L1890.77 1358.52L1909.22 1404.76L1681.49 1563.23L1684.69 1604.33L1869.47 1474.96L1784 1564.87L1689.92 1633.83" stroke="black" stroke-width="9.99999" stroke-miterlimit="1.5" stroke-linecap="round" stroke-linejoin="round"/>
<path d="M1922.1 1431.41L1857.14 1269.21L1672.25 1447.59L1695.08 1670.32" stroke="black" stroke-width="9.99999" stroke-miterlimit="1.5" stroke-linecap="round" stroke-linejoin="round"/>
<path fill-rule="evenodd" clip-rule="evenodd" d="M1081.47 844.879C1387.48 844.879 1622.77 1121.3 1622.77 1468.61C1622.77 1815.91 1398.18 2364.66 1092.19 2364.66C786.179 2364.66 538.13 1821.87 538.13 1474.55C538.13 1127.25 775.465 844.879 1081.47 844.879ZM1081.47 876.776C791.892 876.776 557.86 1144.55 557.86 1473.21C557.86 1801.88 791.892 2069.65 1081.47 2069.65C1247.38 2069.65 1395.05 1981.75 1490.93 1844.87C1562.39 1742.83 1605.08 1613.57 1605.08 1473.21C1605.08 1144.55 1371.05 876.776 1081.47 876.776Z" fill="#808080" stroke="black" stroke-width="12.0025" stroke-miterlimit="2" stroke-linejoin="round"/>
<path fill-rule="evenodd" clip-rule="evenodd" d="M396.077 928.279C401.564 908.998 486.558 804.318 486.558 804.318L330.622 940.198L338.826 986.226L280.492 1027.86L285.91 1085.83L235.239 1124.02L237.14 1177.61L190.94 1206.54L202.507 1297.32L450.69 942.299C450.69 942.299 390.59 947.56 396.077 928.279Z" fill="black" fill-opacity="0.3"/>
<path fill-rule="evenodd" clip-rule="evenodd" d="M442.368 978.481C427.96 1018.43 296.903 1164.64 300.083 1197.56C303.263 1230.48 351.471 1229.16 351.471 1229.16L296.28 1278.18L235.594 1440.41L187.89 1361.48C155.636 1313.98 459.92 929.825 442.368 978.481Z" fill="black" fill-opacity="0.3"/>
<path fill-rule="evenodd" clip-rule="evenodd" d="M590.048 1972.57C652.568 2048.61 719.497 2164.79 736.319 2190.65C767.126 2237.97 770.565 2328.28 728.892 2345.83C687.219 2363.38 630.945 2300.55 589.403 2201.9C547.847 2103.21 531.036 1900.79 590.048 1972.57Z" fill="white" stroke="black" stroke-width="10.0561" stroke-miterlimit="1.5" stroke-linecap="round" stroke-linejoin="round"/>
<path d="M699.006 2293.07C725.604 2281.87 724.613 2219.23 696.793 2153.16C668.973 2087.09 624.857 2042.62 598.259 2053.82C571.661 2065.02 572.651 2127.66 600.471 2193.72C628.292 2259.79 672.407 2304.27 699.006 2293.07Z" fill="black"/>
<path d="M662.237 2144.49C672.317 2140.25 675.517 2125 669.385 2110.44C663.253 2095.88 650.111 2087.52 640.032 2091.76C629.952 2096.01 626.752 2111.25 632.884 2125.81C639.015 2140.38 652.157 2148.74 662.237 2144.49Z" fill="white"/>
<path d="M657.321 2178.61C664.383 2175.63 667.09 2166.06 663.369 2157.22C659.647 2148.38 650.906 2143.63 643.844 2146.6C636.783 2149.58 634.076 2159.15 637.797 2167.99C641.519 2176.83 650.26 2181.58 657.321 2178.61Z" fill="white"/>
<path fill-rule="evenodd" clip-rule="evenodd" d="M402.963 1228.09C443.432 1220.16 538.058 1070.12 639.472 1006.12C666.66 988.96 850.542 894.199 850.542 894.199C642.799 1009.99 542.335 1233.2 531.259 1457.41C550.8 1699.22 646.531 1962.28 763.661 2155.02C753.372 2148.63 729.932 2149.9 715.556 2141.38C664.323 2111.03 604.886 2055.33 581.788 2111.66C575.653 2126.63 595.396 2219.21 585.425 2223.76C574.43 2228.77 524.51 2234.55 524.51 2234.55C541.054 2314.83 889.43 2573.79 1067.91 2613.32C1035.15 2627 933.634 2605.31 866.885 2560.07C725.888 2464.49 540.529 2335.31 419.522 2191.44L544.646 2144.22C491.333 1994.25 465.215 1847.69 466.89 1691.26C416.493 1634.03 293.764 1507.02 240.246 1453.34C265.454 1455.61 360.552 1529.75 372.883 1516.05L252.229 1418.67C280.568 1425.86 376.632 1477.38 387.103 1464.56L261.351 1370.51C291.617 1379.69 366.899 1413.43 379.699 1405C379.699 1405 371.995 1234.16 402.963 1228.09Z" fill="black" fill-opacity="0.3"/>
<path fill-rule="evenodd" clip-rule="evenodd" d="M1679.16 1427.39C1659.8 1451.38 1691.57 1681.17 1700.99 1671.66L1844.54 1506C1810.52 1511.36 1779.87 1514.56 1779.35 1498.34L1836.11 1459.77C1804.24 1468.93 1777.06 1472.93 1772.81 1451.73L1835.07 1401.48C1804.34 1411.33 1781.22 1412.89 1776.73 1394.19L1830.71 1343.4C1799.44 1357.76 1780.26 1360.73 1779.15 1346.7C1753.76 1363.36 1733.53 1390.32 1720.94 1384.22C1696.25 1372.28 1720.45 1281.03 1719.36 1233.23C1706.88 1311.17 1698.98 1402.84 1679.16 1427.39Z" fill="black" fill-opacity="0.3"/>
<path fill-rule="evenodd" clip-rule="evenodd" d="M934.486 2045.82C934.486 2045.82 912.526 2063.6 900.533 2060.65C883.101 2056.36 829.893 2020.07 829.893 2020.07C829.893 2020.07 783.9 1980.93 756.585 2002.21C740.947 2014.39 715.302 2068.87 715.302 2068.87C625.64 1934.19 564.194 1764.97 535.715 1555.38C522.496 1247.99 628.079 1060.32 792.938 932.381L791.189 980.06C628.297 1090.35 562.825 1285.84 566.898 1542.15C602.758 1783.82 733.487 1944.73 934.486 2045.82Z" fill="black" fill-opacity="0.3"/>
<path d="M1500.6 1830.62L1551.31 1860.89L1545.51 1877.17L1485.88 1840.3" stroke="black" stroke-width="8.99999" stroke-miterlimit="1.5" stroke-linecap="round" stroke-linejoin="round"/>
<path d="M767.482 2154.83L799.527 2092.8L822.175 2092.75L841.846 2061.23L819.485 2039.95L837.955 2004.39" stroke="black" stroke-width="8.99999" stroke-miterlimit="1.5" stroke-linecap="round" stroke-linejoin="round"/>
<path fill-rule="evenodd" clip-rule="evenodd" d="M1593.29 1988.28C1559.84 1993.16 1483.76 2108.33 1430.25 2174.31C1372.89 2245.04 1407.71 2328.97 1437.36 2335.88C1481.4 2346.11 1545.1 2296.99 1586.66 2198.3C1628.2 2099.65 1644.03 1980.84 1593.29 1988.28Z" fill="white" stroke="black" stroke-width="10.0561" stroke-miterlimit="1.5" stroke-linecap="round" stroke-linejoin="round"/>
<path d="M1469.38 2292.18C1442.78 2280.98 1443.77 2218.34 1471.59 2152.27C1499.41 2086.21 1543.52 2041.73 1570.12 2052.93C1596.72 2064.13 1595.73 2126.77 1567.91 2192.83C1540.09 2258.9 1495.97 2303.38 1469.38 2292.18Z" fill="black"/>
<path d="M1507.75 2134.07C1497.67 2129.82 1494.47 2114.58 1500.6 2100.02C1506.74 2085.46 1519.88 2077.09 1529.96 2081.34C1540.04 2085.58 1543.24 2100.83 1537.11 2115.39C1530.97 2129.95 1517.83 2138.31 1507.75 2134.07Z" fill="white"/>
<path d="M1512.66 2168.18C1505.6 2165.2 1502.89 2155.63 1506.62 2146.79C1510.34 2137.95 1519.08 2133.2 1526.14 2136.17C1533.2 2139.14 1535.91 2148.72 1532.19 2157.56C1528.47 2166.39 1519.72 2171.15 1512.66 2168.18Z" fill="white"/>
<path fill-rule="evenodd" clip-rule="evenodd" d="M1356.8 1021.61C1356.8 1021.61 1525.22 1227.56 1524.7 1359.24C1523.8 1587.83 1415.96 1824.39 1415.96 1824.39C1525.65 1521.86 1477.75 1244.58 1356.8 1021.61Z" fill="white"/>
<path fill-rule="evenodd" clip-rule="evenodd" d="M1488.86 1887.78C1439.99 1954.28 1340.84 2049.43 1275.54 2079.86C1251.95 2090.85 1132.36 2125.01 1163.69 2094.2C1182.79 2075.43 1227.61 2080.52 1290.93 2046.61C1366.75 2006.01 1427.2 1950.95 1488.86 1887.78Z" fill="white"/>
<path fill-rule="evenodd" clip-rule="evenodd" d="M1431.77 2445.49L1430.13 2447.05C1408.74 2425.43 1408.74 2425.43 1408.61 2425.3C1400.35 2416.7 1392.41 2407.81 1384.16 2399.21L1384.68 2399.98C1371.22 2409.24 1355.93 2419.55 1332.78 2433.15C1305.41 2449.23 1268.62 2467.69 1227.15 2483.18C1200.1 2493.27 1179.91 2499.1 1171.77 2501.49L1171.11 2499.35C1183.17 2495.28 1232.03 2480.43 1293.23 2448.78C1300.54 2445 1338.59 2425.52 1382.56 2396.41C1382.6 2396.38 1383.93 2395.19 1385.28 2395.94C1385.33 2395.96 1385.56 2396.09 1385.78 2396.33L1431.77 2445.49Z" fill="white"/>
<path fill-rule="evenodd" clip-rule="evenodd" d="M1086.13 2456.6L1085.92 2454.48C1087.11 2454.29 1100.18 2452.2 1100.76 2452.16C1101.64 2452.12 1102.4 2452.7 1102.71 2453.35C1102.76 2453.44 1106.89 2462.61 1109.45 2469.85C1113.45 2481.17 1117.46 2494.18 1118.32 2496.94L1116.33 2497.71C1102.97 2469.47 1103.05 2467.69 1099.24 2456.4C1095.82 2456.45 1095.82 2456.49 1086.13 2456.6Z" fill="white"/>
<path fill-rule="evenodd" clip-rule="evenodd" d="M1075.19 2377.78L1077.26 2377.71C1077.51 2379.57 1079.64 2394.46 1079.81 2403.5C1079.94 2411.06 1079.21 2425.3 1079.11 2427.19L1077.03 2427.27C1076.77 2425.26 1074.71 2408.96 1074.5 2402.13C1074.21 2393.04 1074.92 2382.45 1075.19 2377.78Z" fill="white"/>
<path fill-rule="evenodd" clip-rule="evenodd" d="M751.632 2409.6L750.15 2408.21C751.186 2406.82 758.611 2396.6 763.928 2391.19C768.384 2386.65 777.555 2378.75 778.771 2377.71L780.261 2379.11C779.23 2380.47 770.822 2391.58 766.863 2395.74C761.592 2401.28 754.714 2406.99 751.632 2409.6Z" fill="white"/>
<path fill-rule="evenodd" clip-rule="evenodd" d="M929.392 2486.06L929.855 2483.91C932.866 2484.42 966.106 2489.99 985.874 2494.42C1002.3 2498.11 1032.31 2505.82 1036.34 2506.85L1035.88 2509.01C1031.5 2508.24 996.18 2502.06 981.308 2498.82C961.5 2494.49 938.647 2488.46 929.392 2486.06Z" fill="white"/>
<path fill-rule="evenodd" clip-rule="evenodd" d="M1511.56 2331.18L1510.24 2329.38C1517.6 2323.61 1535.15 2309.85 1558.96 2275.11C1564.5 2267.03 1570.17 2258.67 1578.8 2244.22C1588.58 2227.86 1596.42 2212.78 1598.87 2208.12L1600.88 2209.1C1593.42 2225.28 1579.19 2256.26 1559.88 2282.9C1537.31 2314.03 1516.13 2328.02 1511.56 2331.18Z" fill="white"/>
<path fill-rule="evenodd" clip-rule="evenodd" d="M1567.72 1858.4L1565.57 1857.74C1574.34 1827.37 1583.32 1796.19 1595.91 1754.39C1596.15 1753.58 1596.39 1752.78 1596.64 1751.98C1597.2 1750.23 1599.26 1749.64 1600.65 1750.62C1605.7 1754.19 1622.35 1766.22 1629.85 1771.73C1629.96 1771.81 1630.59 1772.27 1630.8 1773.18C1637.26 1800.8 1650.71 1861.36 1652.42 1869.04L1650.22 1869.56C1630.35 1792.62 1626.28 1775.38 1626.19 1775.24C1624.27 1772.47 1620.67 1771.35 1617.91 1769.4C1615.33 1767.57 1612.61 1765.93 1610.17 1763.9C1606.5 1760.85 1603.29 1757.25 1599.61 1754.19C1598.05 1760.07 1597.33 1766.15 1595.76 1772.04C1595.71 1772.24 1588.06 1796.1 1585.34 1804.49L1567.72 1858.4Z" fill="white"/>
<path fill-rule="evenodd" clip-rule="evenodd" d="M1627.06 1314.32L1624.86 1314.91C1616.57 1285.62 1594.96 1211.71 1548.61 1123.92C1516.83 1063.72 1486.09 1022.62 1472.53 1004.8L1474.32 1003.4C1496.63 1031.37 1543.85 1093.03 1581.96 1180.93C1607.24 1239.25 1620.44 1288.57 1627.06 1314.32Z" fill="white"/>
<path fill-rule="evenodd" clip-rule="evenodd" d="M1302.31 725.537L1301.34 723.496C1304.72 721.829 1343.16 702.836 1343.55 702.715C1344.14 702.531 1344.93 702.651 1345.48 703.216C1350.02 707.871 1358.24 716.798 1359.34 717.991C1391.5 752.897 1417.32 785.44 1445.46 826.093C1451.82 835.276 1458.34 845.175 1459.45 846.847C1465.79 856.483 1469.54 862.45 1472.86 867.691L1470.96 868.929C1453.47 843.129 1430.74 810.886 1393.64 765.506C1386.63 756.941 1370.01 736.449 1345.77 709.28C1344.78 708.166 1344.77 708.174 1344.74 708.124C1344.13 707.138 1344.38 707.016 1343.78 706.031L1302.31 725.537Z" fill="white"/>
<path fill-rule="evenodd" clip-rule="evenodd" d="M1532.67 915.636L1532.16 913.439C1558.1 907.008 1558.1 906.98 1558.42 906.952C1559.29 906.877 1559.76 907.466 1559.83 907.562C1560.14 907.956 1571.95 923.056 1575.64 927.864C1602.46 962.828 1622.33 990.243 1653.32 1037.92C1653.81 1038.69 1659.15 1046.93 1665.52 1056.98C1671.91 1067.07 1674.62 1071.47 1678.16 1077.17L1676.26 1078.4C1659.99 1054.16 1644.86 1032.01 1617.72 993.926C1593.98 960.631 1586.74 950.106 1557.85 910.39L1532.67 915.636Z" fill="white"/>
<path fill-rule="evenodd" clip-rule="evenodd" d="M1824.27 1251L1825.74 1249.37C1827.3 1250.67 1844.84 1265.27 1845.26 1265.72C1845.93 1266.44 1846.04 1267.71 1845.25 1268.62C1845.19 1268.68 1834.18 1280.42 1825.34 1288.95C1811.48 1302.31 1795.5 1317 1791.65 1320.54L1790.1 1318.99C1824.2 1281.79 1827.14 1279.81 1840.53 1267.09C1837.24 1263.84 1837.2 1263.88 1824.27 1251Z" fill="white"/>
<path fill-rule="evenodd" clip-rule="evenodd" d="M1854.87 1292.5L1856.84 1291.76C1857.33 1292.83 1862.71 1304.62 1862.89 1305.19C1863.13 1305.97 1862.8 1306.85 1862.4 1307.26C1861.75 1307.94 1856.17 1313.64 1851.49 1317.66C1843.22 1324.78 1833.47 1332.43 1831.46 1334.01L1830.03 1332.46C1848.78 1312.21 1850.38 1311.6 1858.31 1304.96C1857.61 1302.43 1857.56 1302.45 1854.87 1292.5Z" fill="white"/>
<path fill-rule="evenodd" clip-rule="evenodd" d="M1874.05 1337.37L1876.05 1336.73C1876.57 1338.01 1880.66 1348.18 1882.36 1352.72C1883 1354.44 1881.68 1355.39 1881.33 1355.71C1875.56 1360.76 1871.22 1364.45 1851.73 1378.09L1850.4 1376.46C1870.01 1357.54 1871.35 1357.34 1877.55 1352.59C1877.26 1351.36 1876.78 1349.61 1875.33 1343.18C1874.76 1340.67 1874.78 1340.67 1874.05 1337.37Z" fill="white"/>
<path fill-rule="evenodd" clip-rule="evenodd" d="M1891.61 1385.42L1893.63 1384.82C1894.11 1386.08 1899.3 1399.79 1899.51 1400.66C1899.72 1401.55 1899.32 1402.43 1898.74 1402.9C1898.07 1403.44 1892.5 1407.78 1887.85 1410.86C1878.5 1417.07 1867.59 1423.65 1865.32 1425.03L1864.1 1423.3C1884.56 1406.17 1886.54 1405.35 1894.71 1400.04C1894.38 1398.48 1893.75 1395.84 1891.61 1385.42Z" fill="white"/>
<path fill-rule="evenodd" clip-rule="evenodd" d="M1906.1 1422.3L1907.98 1421.34C1912.35 1428.71 1912.36 1428.7 1912.44 1428.88C1912.79 1429.65 1912.44 1430.5 1912.03 1430.88C1911.15 1431.67 1902.59 1439.18 1896.34 1443.84C1888.77 1449.47 1874.08 1459.19 1872.11 1460.49L1870.82 1458.81C1872.51 1457.29 1886.53 1444.69 1892.32 1440.29C1893.02 1439.76 1896.8 1436.89 1901.2 1433.9C1903.69 1432.21 1906.2 1430.56 1908.69 1428.87L1906.1 1422.3Z" fill="white"/>
<path fill-rule="evenodd" clip-rule="evenodd" d="M1078.22 823.041L1077.2 825.05C1071.82 822.416 999.85 787.356 957.133 765.31C921.829 747.09 857.726 712.967 849.103 708.376L850.132 706.365C859.505 710.968 935.053 748.067 967.028 764.468C1009.72 786.362 1059.04 812.797 1078.22 823.041Z" fill="white"/>
<path fill-rule="evenodd" clip-rule="evenodd" d="M825.09 694.35L826.626 696.002C818.33 704.082 785.94 735.237 745.653 785.03C719.979 816.762 703.284 842.274 696.92 851.961L695.007 850.763C704.79 834.542 729.524 793.517 765.97 752.812C791.718 724.056 814.399 703.958 825.09 694.35Z" fill="white"/>
<path fill-rule="evenodd" clip-rule="evenodd" d="M679.803 887.056L679.747 889.1C677.98 889.243 664.754 890.466 656.789 890.074C650.117 889.746 637.538 888.129 635.87 887.914L635.926 885.859C637.713 885.727 652.28 884.653 658.312 884.858C666.34 885.13 675.629 886.49 679.803 887.056Z" fill="white"/>
<path fill-rule="evenodd" clip-rule="evenodd" d="M584.693 911.732L586.506 913.083C579.471 922.92 553.994 958.164 507.534 1028.75C478.382 1073.04 460.619 1103.37 455.889 1111.37L453.921 1110.26C463.916 1091.95 491.478 1041.61 527.671 989.196C552.714 952.934 574.197 925.362 584.693 911.732Z" fill="white"/>
<path fill-rule="evenodd" clip-rule="evenodd" d="M1093.23 430.758L1095.49 430.843C1095.33 437.913 1093.24 534.971 1090.87 593.209C1088.92 641.3 1084.43 729.107 1083.83 740.923L1081.57 740.837C1081.87 728.193 1084.33 626.303 1086 582.797C1088.24 524.694 1091.86 456.95 1093.23 430.758Z" fill="white"/>
<path fill-rule="evenodd" clip-rule="evenodd" d="M1699.26 1267.63L1701.49 1268.05C1690.39 1331.63 1683.12 1375.23 1670.43 1416.23C1665.8 1431.19 1661.33 1442.01 1660.42 1444.21C1660.34 1444.4 1660.18 1444.57 1660.18 1444.78C1660.19 1444.86 1662.04 1469.13 1665.55 1520.69L1672.06 1618.97L1669.79 1619.15C1668.59 1605.52 1659.92 1507.57 1655.23 1448.74C1655.2 1448.37 1654.88 1444.39 1654.9 1444.14C1654.99 1442.98 1655.47 1443.13 1660.07 1430.58C1676.57 1385.59 1686.82 1329.17 1699.26 1267.63Z" fill="white"/>
<path fill-rule="evenodd" clip-rule="evenodd" d="M1459.89 1040.67L1461.62 1039.2C1472.33 1051.49 1507.36 1091.34 1538.53 1148.25C1580.41 1224.7 1593.4 1292.98 1597.82 1317.34L1595.61 1317.76C1591.77 1300.36 1581.4 1247.4 1547.92 1178.09C1540.55 1162.84 1528.15 1138.24 1509.39 1108.68C1487.58 1074.32 1467.62 1050.03 1459.89 1040.67Z" fill="white"/>
<path fill-rule="evenodd" clip-rule="evenodd" d="M1510.55 1846.37L1511.47 1844.82C1512.77 1845.25 1519.41 1847.32 1522.85 1849.56C1525.74 1851.45 1530.96 1856.15 1531.64 1856.76L1530.71 1858.32C1529.8 1858.01 1522.23 1855.35 1519.57 1853.73C1516.01 1851.55 1512.42 1848.09 1510.55 1846.37Z" fill="white"/>
<path fill-rule="evenodd" clip-rule="evenodd" d="M1528.23 1873.98L1527.2 1875.87C1511.45 1868.58 1511.48 1868.51 1503.97 1864.83C1499.92 1871.34 1499.02 1873.74 1478.82 1901.62L1477 1900.46C1478.84 1897.19 1495.22 1868.19 1500.95 1860.14C1501.57 1859.27 1502.89 1858.62 1504.26 1859.42C1511.08 1863.36 1526.33 1872.8 1528.23 1873.98Z" fill="white"/>
</svg>
