<svg width="2160" height="2700" viewBox="0 0 2160 2700" fill="none" xmlns="http://www.w3.org/2000/svg">
<path d="M399.409 1301.31L353.105 1077.5L187.41 1217.62L233.713 1441.43L399.409 1301.31Z" fill="#636363" stroke="white" stroke-width="4.11179" stroke-miterlimit="1.5" stroke-linecap="round" stroke-linejoin="round"/>
<path d="M445.067 1218.55L398.764 994.732L233.068 1134.85L279.371 1358.67L445.067 1218.55Z" fill="#636363" stroke="white" stroke-width="4.11179" stroke-miterlimit="1.5" stroke-linecap="round" stroke-linejoin="round"/>
<path d="M491.534 1120.73L445.23 896.916L279.535 1037.04L325.838 1260.85L491.534 1120.73Z" fill="#636363" stroke="white" stroke-width="4.11179" stroke-miterlimit="1.5" stroke-linecap="round" stroke-linejoin="round"/>
<path d="M540.053 1032.76L493.75 808.943L328.054 949.063L374.358 1172.88L540.053 1032.76Z" fill="#636363" stroke="white" stroke-width="4.11179" stroke-miterlimit="1.5" stroke-linecap="round" stroke-linejoin="round"/>
<path fill-rule="evenodd" clip-rule="evenodd" d="M698.393 907.87L704.127 679.389L512.024 804.727L447.008 815.251L406.687 1057.1L698.393 907.87Z" fill="#636363" stroke="white" stroke-width="3.99186" stroke-miterlimit="1.5" stroke-linecap="round" stroke-linejoin="round"/>
<path d="M1748.29 1278.63L1794.59 1054.81L1960.29 1194.93L1913.98 1418.75L1748.29 1278.63Z" fill="#636363" stroke="white" stroke-width="4.11179" stroke-miterlimit="1.5" stroke-linecap="round" stroke-linejoin="round"/>
<path d="M1702.63 1195.86L1748.93 972.047L1914.63 1112.17L1868.32 1335.98L1702.63 1195.86Z" fill="#636363" stroke="white" stroke-width="4.11179" stroke-miterlimit="1.5" stroke-linecap="round" stroke-linejoin="round"/>
<path d="M1656.16 1098.05L1702.46 874.23L1868.16 1014.35L1821.86 1238.17L1656.16 1098.05Z" fill="#636363" stroke="white" stroke-width="4.11179" stroke-miterlimit="1.5" stroke-linecap="round" stroke-linejoin="round"/>
<path d="M1607.64 1010.07L1653.95 786.258L1819.64 926.377L1773.34 1150.19L1607.64 1010.07Z" fill="#636363" stroke="white" stroke-width="4.11179" stroke-miterlimit="1.5" stroke-linecap="round" stroke-linejoin="round"/>
<path fill-rule="evenodd" clip-rule="evenodd" d="M1466.12 884.764L1460.38 656.283L1652.49 781.621L1717.5 792.145L1757.82 1033.99L1466.12 884.764Z" fill="#636363" stroke="white" stroke-width="13.6863" stroke-miterlimit="1.5" stroke-linecap="round" stroke-linejoin="round"/>
<path fill-rule="evenodd" clip-rule="evenodd" d="M1120.43 351.095C1339.18 346.993 1926.45 1195.33 1967.92 1325.75C2005.09 1442.63 1686.51 1579.53 1686.51 1717.3C1686.51 1855.68 1672.3 1988.86 1640.97 2107.97C1614.86 2207.25 1810.24 2130 1758.66 2204.62C1710.89 2273.72 1417.78 2496.72 1351.96 2538.14C1267.02 2591.59 1171.92 2620.39 1079.21 2620.39C983.03 2620.39 892.05 2587.08 811.193 2527.78C755.416 2486.88 476.424 2279.81 431.911 2216.6C380.877 2144.13 566.35 2212.39 534.698 2117.39C494.507 1996.77 471.91 1860.93 471.91 1717.3C471.91 1624.36 173.775 1438.07 191.345 1353.67C221.944 1206.66 880.062 355.602 1120.43 351.095ZM1082.49 885.248C797.884 885.248 566.82 1148.41 566.82 1472.55C566.82 1796.7 797.884 2059.86 1082.49 2059.86C1367.1 2059.86 1598.17 1796.7 1598.17 1472.55C1598.17 1148.41 1367.1 885.248 1082.49 885.248Z" fill="#636363" stroke="white" stroke-width="13.9993" stroke-miterlimit="1.5" stroke-linecap="round" stroke-linejoin="round"/>
<path fill-rule="evenodd" clip-rule="evenodd" d="M1970.73 1340.35C1970.73 1340.35 1791.83 1057.88 1716.22 960.418C1563.02 762.928 1225.23 404.724 1191.04 387.513C1150.31 367.01 1123.9 365.057 1081.78 376.505L1268.21 669.606L1145.23 752.011L1147.64 813.076C1258.36 818.878 1360.92 887.379 1460.94 975.495L1268.09 755.404L1251.1 696.898L1317.67 643.097L1172.73 420.656C1464.25 697.38 1729.8 1004.48 1970.73 1340.35Z" fill="white"/>
<path d="M1086.87 2363.54L1087.42 2439.84" stroke="white" stroke-width="9.99999" stroke-miterlimit="1.5" stroke-linecap="round" stroke-linejoin="round"/>
<path d="M722.949 2463.43L793.644 2388.96C867.23 2440.53 941.931 2490.49 1047.36 2496.33L1070.67 2444.93L1107.15 2444.52" stroke="white" stroke-width="9.99999" stroke-miterlimit="1.5" stroke-linecap="round" stroke-linejoin="round"/>
<path d="M1454.86 2455.41L1384.17 2380.94C1307.4 2429.34 1229.92 2476.85 1129.16 2495.04L1107.15 2444.52" stroke="white" stroke-width="9.99999" stroke-miterlimit="1.5" stroke-linecap="round" stroke-linejoin="round"/>
<path d="M1110.45 344.059L1093.58 830.267" stroke="white" stroke-width="9.99999" stroke-miterlimit="1.5" stroke-linecap="round" stroke-linejoin="round"/>
<path d="M417.996 1219.7C473.429 1092.3 546.822 978.647 631.939 873.974L694.524 876.478C735.723 808.632 785.17 745.727 845.806 689.525L1092.11 819.397" stroke="white" stroke-width="9.99999" stroke-miterlimit="1.5" stroke-linecap="round" stroke-linejoin="round"/>
<path d="M1770.98 1219.7C1712.08 1103.18 1642.98 994.075 1560.01 895.051L1508.44 905.759C1461.56 827.205 1409.47 752.757 1343.17 689.525L1096.87 819.397" stroke="white" stroke-width="9.99999" stroke-miterlimit="1.5" stroke-linecap="round" stroke-linejoin="round"/>
<path d="M492.297 1950.01L521.271 1794.41L575.792 1755.3" stroke="white" stroke-width="9.99999" stroke-miterlimit="1.5" stroke-linecap="round" stroke-linejoin="round"/>
<path d="M1670.32 1922.49L1641.35 1766.89L1586.83 1727.78" stroke="white" stroke-width="9.99999" stroke-miterlimit="1.5" stroke-linecap="round" stroke-linejoin="round"/>
<path fill-rule="evenodd" clip-rule="evenodd" d="M237.383 1444.26L299.978 1283.64C471.332 1107.15 436.271 1378.08 486.535 1464.07L467.97 1688.62" fill="#636363"/>
<path d="M237.383 1444.26L299.978 1283.64C471.332 1107.15 436.271 1378.08 486.534 1464.07L467.97 1688.62" stroke="white" stroke-width="9.99999" stroke-miterlimit="1.5" stroke-linecap="round" stroke-linejoin="round"/>
<path fill-rule="evenodd" clip-rule="evenodd" d="M282.996 1324.66L481.243 1501.24L479.256 1540L266.68 1375.95L248.232 1422.19L475.964 1580.66L472.764 1621.76L287.982 1492.39L386.8 1590.28L467.526 1651.26" fill="#636363"/>
<path d="M282.996 1324.66L481.243 1501.24L479.256 1540L266.68 1375.95L248.232 1422.19L475.964 1580.66L472.764 1621.76L287.982 1492.39L386.8 1590.28L467.526 1651.26" stroke="white" stroke-width="9.99999" stroke-miterlimit="1.5" stroke-linecap="round" stroke-linejoin="round"/>
<path fill-rule="evenodd" clip-rule="evenodd" d="M1920.07 1426.83L1857.47 1266.21C1686.12 1089.72 1721.18 1360.65 1670.91 1446.64L1689.48 1671.19" fill="#636363"/>
<path d="M1920.07 1426.83L1857.47 1266.21C1686.12 1089.72 1721.18 1360.65 1670.91 1446.64L1689.48 1671.19" stroke="white" stroke-width="9.99999" stroke-miterlimit="1.5" stroke-linecap="round" stroke-linejoin="round"/>
<path fill-rule="evenodd" clip-rule="evenodd" d="M1874.45 1307.23L1676.21 1483.81L1678.19 1522.57L1890.77 1358.52L1909.22 1404.76L1681.49 1563.23L1684.69 1604.33L1869.47 1474.96L1770.65 1572.85L1689.92 1633.83" fill="#636363"/>
<path d="M1874.45 1307.23L1676.21 1483.81L1678.19 1522.57L1890.77 1358.52L1909.22 1404.76L1681.49 1563.23L1684.69 1604.33L1869.47 1474.96L1770.65 1572.85L1689.92 1633.83" stroke="white" stroke-width="9.99999" stroke-miterlimit="1.5" stroke-linecap="round" stroke-linejoin="round"/>
<path d="M1922.74 1421.17L1861.41 1270.05L1676.51 1445.77L1695.08 1670.32" stroke="white" stroke-width="9.99999" stroke-miterlimit="1.5" stroke-linecap="round" stroke-linejoin="round"/>
<path fill-rule="evenodd" clip-rule="evenodd" d="M1081.47 844.881C1387.48 844.881 1622.77 1121.31 1622.77 1468.61C1622.77 1815.91 1398.18 2364.66 1092.19 2364.66C786.178 2364.66 538.129 1821.87 538.129 1474.55C538.129 1127.25 775.464 844.881 1081.47 844.881ZM1081.47 876.778C791.891 876.778 557.858 1144.55 557.858 1473.21C557.858 1801.88 791.891 2069.65 1081.47 2069.65C1247.38 2069.65 1395.05 1981.75 1490.92 1844.87C1562.39 1742.83 1605.08 1613.58 1605.08 1473.21C1605.08 1144.55 1371.05 876.778 1081.47 876.778Z" fill="#292929" stroke="white" stroke-width="7.00056" stroke-miterlimit="2" stroke-linejoin="round"/>
<path fill-rule="evenodd" clip-rule="evenodd" d="M396.076 928.281C401.563 909 486.557 804.32 486.557 804.32L330.621 940.2L338.825 986.228L280.491 1027.86L285.909 1085.83L235.238 1124.02L237.139 1177.61L190.939 1206.54L202.506 1297.32L450.689 942.301C450.689 942.301 390.589 947.562 396.076 928.281Z" fill="black" fill-opacity="0.3"/>
<path fill-rule="evenodd" clip-rule="evenodd" d="M442.366 978.483C427.958 1018.43 296.901 1164.64 300.081 1197.56C303.261 1230.48 351.469 1229.16 351.469 1229.16L296.278 1278.18L235.592 1440.41L203.529 1372.97C171.275 1325.47 459.918 929.827 442.366 978.483Z" fill="black" fill-opacity="0.3"/>
<path fill-rule="evenodd" clip-rule="evenodd" d="M590.047 1972.57C652.567 2048.61 711.666 2211.06 727.17 2237.67C741.608 2262.46 756.791 2249.86 761.141 2264.11C771.973 2299.59 758.63 2333.3 728.89 2345.83C687.217 2363.38 630.944 2300.55 589.401 2201.9C547.845 2103.21 531.035 1900.79 590.047 1972.57Z" fill="white" stroke="black" stroke-width="8.3955" stroke-miterlimit="1.5" stroke-linecap="round" stroke-linejoin="round"/>
<path fill-rule="evenodd" clip-rule="evenodd" d="M598.257 2053.82C624.838 2042.63 663.881 2093.64 691.687 2159.67C704.39 2189.84 716.597 2212.8 718.031 2236.98C719.737 2265.71 713.437 2286.99 699.002 2293.07C672.422 2304.26 628.267 2259.73 600.47 2193.72C572.664 2127.69 571.677 2065.01 598.257 2053.82Z" fill="#005573"/>
<path d="M662.236 2144.5C672.315 2140.25 675.516 2125.01 669.384 2110.44C663.252 2095.88 650.11 2087.52 640.03 2091.76C629.95 2096.01 626.75 2111.25 632.882 2125.82C639.014 2140.38 652.156 2148.74 662.236 2144.5Z" fill="white"/>
<path d="M657.319 2178.61C664.381 2175.64 667.088 2166.06 663.367 2157.22C659.645 2148.38 650.904 2143.63 643.842 2146.6C636.781 2149.58 634.074 2159.15 637.795 2167.99C641.517 2176.83 650.258 2181.58 657.319 2178.61Z" fill="white"/>
<path fill-rule="evenodd" clip-rule="evenodd" d="M402.961 1228.09C443.43 1220.16 538.057 1070.12 639.471 1006.12C666.659 988.962 850.54 894.201 850.54 894.201C642.798 1009.99 542.334 1233.2 531.258 1457.41C550.799 1699.22 646.53 1962.28 763.659 2155.02C753.37 2148.63 729.931 2149.9 715.555 2141.38C664.322 2111.03 604.885 2055.33 581.787 2111.66C575.652 2126.63 595.395 2219.21 585.424 2223.76C574.429 2228.77 524.509 2234.55 524.509 2234.55C541.053 2314.83 889.428 2573.79 1067.91 2613.32C1035.15 2627 933.632 2605.31 866.883 2560.07C725.887 2464.49 540.528 2335.31 419.52 2191.44L537.901 2145.61C484.588 1995.63 467.384 1858.72 469.058 1702.28C418.661 1645.05 293.762 1507.02 240.244 1453.34C265.452 1455.61 360.55 1529.75 372.881 1516.05L252.227 1418.67C280.566 1425.86 376.63 1477.38 387.101 1464.56L261.349 1370.51C291.615 1379.69 366.897 1413.43 379.697 1405C379.697 1405 371.993 1234.16 402.961 1228.09Z" fill="black" fill-opacity="0.3"/>
<path fill-rule="evenodd" clip-rule="evenodd" d="M1679.16 1427.39C1659.8 1451.38 1682.48 1674.73 1691.9 1665.23L1846.23 1497.87C1812.21 1503.23 1779.87 1514.56 1779.35 1498.34L1836.11 1459.77C1804.24 1468.93 1777.05 1472.93 1772.81 1451.73L1835.07 1401.48C1804.34 1411.33 1781.22 1412.89 1776.73 1394.19L1830.71 1343.4C1799.44 1357.76 1780.26 1360.73 1779.15 1346.7C1753.76 1363.36 1733.53 1390.32 1720.94 1384.22C1696.25 1372.28 1720.45 1281.03 1719.36 1233.23C1706.88 1311.17 1698.98 1402.84 1679.16 1427.39Z" fill="black" fill-opacity="0.3"/>
<path fill-rule="evenodd" clip-rule="evenodd" d="M942.971 2032.75C942.971 2032.75 912.526 2063.6 900.533 2060.65C883.101 2056.36 829.893 2020.07 829.893 2020.07C829.893 2020.07 783.9 1980.93 756.585 2002.21C740.947 2014.39 715.302 2068.87 715.302 2068.87C625.64 1934.19 564.194 1764.97 535.715 1555.38C522.496 1247.99 628.079 1060.32 792.938 932.383L791.189 980.062C628.297 1090.35 562.825 1285.84 566.898 1542.15C602.758 1783.82 741.972 1931.66 942.971 2032.75Z" fill="black" fill-opacity="0.3"/>
<path d="M1500.6 1830.62L1551.31 1860.89L1545.51 1877.17L1485.88 1840.3" stroke="#51E9F4" stroke-width="8.99999" stroke-miterlimit="1.5" stroke-linecap="round" stroke-linejoin="round"/>
<path d="M767.48 2154.83L799.525 2092.8L822.173 2092.75L841.844 2061.23L819.483 2039.95L837.953 2004.39" stroke="black" stroke-width="8.99999" stroke-miterlimit="1.5" stroke-linecap="round" stroke-linejoin="round"/>
<path fill-rule="evenodd" clip-rule="evenodd" d="M1593.29 1988.28C1559.84 1993.16 1487.59 2161.12 1434.08 2227.1C1424.68 2238.67 1415.48 2230.54 1410.53 2240.94C1385.29 2293.97 1412.58 2330.09 1437.36 2335.88C1481.4 2346.11 1545.69 2288.88 1587.23 2190.23C1628.78 2091.55 1644.03 1980.84 1593.29 1988.28Z" fill="white" stroke="black" stroke-width="8.3955" stroke-miterlimit="1.5" stroke-linecap="round" stroke-linejoin="round"/>
<path fill-rule="evenodd" clip-rule="evenodd" d="M1570.12 2052.94C1543.54 2041.74 1510.82 2094.14 1483.02 2160.15C1474.61 2180.13 1457.22 2191.93 1453.74 2209.94C1445.71 2251.53 1450.84 2284.37 1469.38 2292.18C1495.96 2303.37 1540.11 2258.85 1567.91 2192.84C1595.72 2126.81 1596.7 2064.13 1570.12 2052.94Z" fill="#005573"/>
<path d="M1507.75 2134.07C1497.67 2129.83 1494.47 2114.58 1500.6 2100.02C1506.74 2085.46 1519.88 2077.1 1529.96 2081.34C1540.04 2085.58 1543.24 2100.83 1537.11 2115.39C1530.97 2129.95 1517.83 2138.32 1507.75 2134.07Z" fill="white"/>
<path d="M1512.66 2168.18C1505.6 2165.21 1502.89 2155.63 1506.62 2146.79C1510.34 2137.96 1519.08 2133.2 1526.14 2136.17C1533.2 2139.15 1535.91 2148.72 1532.19 2157.56C1528.47 2166.4 1519.72 2171.15 1512.66 2168.18Z" fill="white"/>
<path fill-rule="evenodd" clip-rule="evenodd" d="M1356.8 1021.61C1356.8 1021.61 1525.22 1227.56 1524.7 1359.24C1523.8 1587.83 1415.96 1824.39 1415.96 1824.39C1525.65 1521.86 1477.75 1244.58 1356.8 1021.61Z" fill="white"/>
<path fill-rule="evenodd" clip-rule="evenodd" d="M1488.86 1887.78C1439.99 1954.28 1340.84 2049.43 1275.54 2079.86C1251.95 2090.85 1132.36 2125.01 1163.69 2094.2C1182.79 2075.43 1227.61 2080.52 1290.93 2046.61C1366.75 2006.01 1427.2 1950.95 1488.86 1887.78Z" fill="white"/>
<path fill-rule="evenodd" clip-rule="evenodd" d="M579.954 1743.7C528.258 1791.34 430.511 1810.35 391.055 1764.58C357.463 1725.62 330.586 1658.46 376.324 1623.23C389.306 1613.23 435.266 1615.71 449.685 1620.49C464.865 1625.52 485.464 1618.37 484.909 1601C483.698 1563.35 464.147 1486.02 467.65 1450.56C472.746 1399 489.812 1354.73 536.322 1332.89C624.697 1293.38 720.649 1297.83 761.025 1334.86C785.813 1357.59 788.067 1367.39 811.789 1394.54C851.155 1439.59 893.898 1472.5 893.425 1508.05C893.071 1534.78 849.796 1572.5 830.931 1610.59C808.741 1655.43 803.894 1716.36 799.685 1716.81C795.064 1717.3 784.843 1657.09 797.175 1605.49C805.67 1569.96 838.633 1542.01 835.735 1526.66C828.632 1489.01 786.719 1462.44 727.583 1414.08C704.938 1395.56 616.085 1416.64 609.73 1426.62C605.123 1433.84 615.744 1464.11 618.123 1473.06C628.368 1511.53 646.871 1550.78 653.148 1576.73C662.073 1613.66 662.486 1643.81 653.138 1660.45C647.075 1670.49 594.794 1730.02 579.954 1743.7Z" fill="#2AB6E9" stroke="#007199" stroke-width="10.004" stroke-miterlimit="2" stroke-linejoin="round"/>
<path fill-rule="evenodd" clip-rule="evenodd" d="M379.179 1742.75C379.179 1742.75 319.796 1652.76 375.495 1596.46C391.615 1580.17 447.931 1612.61 447.931 1612.61C497.302 1610.98 419.199 1555.31 419.117 1501.06C419.059 1463.01 445.953 1386.11 497.691 1365.74C484.974 1456.82 506.281 1599.62 565.407 1665.61C591.131 1694.32 625.845 1644.71 656.251 1639.01C658.843 1638.52 631.669 1517.54 634.191 1517.77C625.754 1536.73 820.347 1629.7 721.763 1666.3C702.303 1673.52 672.234 1732.8 665.162 1745.27C613.959 1835.58 509.196 1888.38 473.416 1884.28C459.038 1882.64 480.39 1796.85 462.572 1793.69C444.942 1790.58 402.57 1792.24 379.179 1742.75Z" fill="black" fill-opacity="0.3"/>
<path fill-rule="evenodd" clip-rule="evenodd" d="M411.16 1615.92C411.16 1615.92 387.276 1675.67 404.004 1702.7C439.244 1759.66 483.275 1747.42 510.61 1747.04C537.944 1746.66 601.441 1728.59 601.441 1728.59C603.803 1737.72 518.125 1800.6 450.387 1795.78C408.883 1792.83 393.009 1776.76 369.242 1743.36C352.95 1720.47 342.812 1677.92 348.824 1657.3C368.101 1591.2 411.16 1615.92 411.16 1615.92Z" fill="black" fill-opacity="0.3"/>
<path fill-rule="evenodd" clip-rule="evenodd" d="M634.638 1326.1C667.432 1327.34 697.135 1328.44 726.675 1341.76C747.941 1351.35 754.231 1357.45 774.028 1373.16C774.028 1373.16 752.673 1344.41 726.855 1334.42C701.036 1324.44 634.638 1326.1 634.638 1326.1Z" fill="white"/>
<path fill-rule="evenodd" clip-rule="evenodd" d="M605.623 1702.68C614.531 1711.2 601.595 1722.16 583.153 1741.45C564.71 1760.74 534.423 1774.06 525.515 1765.55C516.608 1757.03 529.379 1734.81 547.821 1715.52C566.256 1696.24 596.716 1694.17 605.623 1702.68ZM590.55 1713.99C585.601 1709.26 569.589 1713.97 560.174 1723.81C550.759 1733.66 545.182 1743.5 550.13 1748.23C555.078 1752.96 565.934 1748.42 575.349 1738.57C584.764 1728.73 595.498 1718.72 590.55 1713.99Z" fill="#DED797"/>
<path fill-rule="evenodd" clip-rule="evenodd" d="M606.115 1702.17C611.57 1707.18 610.981 1713.3 600.884 1725.47C596.743 1730.46 593.553 1733.81 585.089 1743.32C567.127 1763.5 534.347 1779.99 522.518 1768.38C518.924 1764.84 516.037 1757.79 521.852 1745.1C529.027 1729.45 544.793 1713.99 548.813 1710.59C568.608 1693.89 597.141 1693.4 605.895 1701.95C605.964 1702.03 606.039 1702.1 606.115 1702.17ZM605.137 1703.19C604.036 1702.28 599.575 1698.6 587.843 1699.36C576.191 1700.11 560.816 1705.51 549.972 1717.58C529.302 1740.58 521.629 1760.6 530.045 1763.55C538.766 1766.62 563.405 1756.77 581.214 1739.58C594.083 1727.16 602.926 1719.33 606.181 1713.09C608.859 1707.94 606.937 1705.17 605.141 1703.19L605.137 1703.19ZM591.039 1713.48C595.276 1717.25 591.646 1723.74 582.052 1735.1C576.331 1741.87 575.368 1742.84 574.741 1743.47C561.586 1756.71 550.41 1756.09 545.931 1749.61C543.732 1746.42 541.422 1739 553.744 1725.68C557.015 1722.14 563.044 1715.68 574.118 1712.29C574.757 1712.1 586.18 1708.42 591.039 1713.48ZM590.063 1714.49C589.92 1714.37 586.899 1711.57 577.846 1715.11C573.084 1716.97 568.483 1720.03 564.713 1723.69C561.816 1726.5 552.176 1738.12 552.388 1743.83C552.553 1748.15 562.132 1746.85 573.288 1736.6C582.077 1728.53 587.276 1724.07 589.757 1719.81C591.659 1716.54 590.651 1715.24 590.063 1714.49Z" fill="black"/>
<path fill-rule="evenodd" clip-rule="evenodd" d="M648.478 1598.58C661.443 1602.09 666.34 1625.75 659.406 1651.41C652.474 1677.05 636.317 1695.04 623.353 1691.53C610.388 1688.03 605.494 1664.35 612.426 1638.71C619.36 1613.05 635.513 1595.08 648.478 1598.58ZM645.065 1619.35C637.863 1617.4 629.141 1626.45 625.601 1639.55C622.061 1652.65 625.033 1664.86 632.235 1666.81C639.437 1668.76 648.159 1659.7 651.699 1646.61C655.239 1633.51 652.267 1621.29 645.065 1619.35Z" fill="#DED797"/>
<path fill-rule="evenodd" clip-rule="evenodd" d="M648.664 1597.89C649.582 1598.12 658.392 1599.56 662.761 1614.97C667.253 1630.82 664.626 1655.9 653.259 1675.65C647.003 1686.52 640.411 1690.98 638.976 1691.95C625.943 1700.76 611.752 1695.66 607.192 1676.58C601.252 1651.72 613.844 1615.7 632.012 1602.14C641.027 1595.41 647.329 1597.51 648.664 1597.89ZM648.293 1599.27C647.805 1599.18 639.581 1596.56 629.405 1608.8C614.5 1626.73 608.513 1660.84 616.055 1678.58C623.342 1695.72 637.289 1686.03 646.013 1672.96C656.893 1656.66 661.832 1634.83 659.999 1619.27C657.94 1601.75 649.164 1599.58 648.293 1599.27ZM645.251 1618.66C653.635 1620.48 657.172 1633.46 654.609 1646.69C651.345 1663.55 639.668 1674.76 629.375 1670.2C620.495 1666.27 617.291 1651.09 623.921 1635.31C624.924 1632.93 629.336 1623.56 636.81 1619.67C641.433 1617.26 644.531 1618.42 645.251 1618.66ZM644.877 1620.03C643.756 1619.9 639.418 1619.15 634.279 1626.3C627.056 1636.34 625.509 1654.92 631.259 1661.43C633.296 1663.72 635.901 1663.14 638.594 1661.33C645.015 1657.02 651.545 1644.13 651.1 1632.18C650.97 1628.69 650.107 1625.54 648.804 1623.44C647.307 1621.04 645.764 1620.4 644.874 1620.04L644.877 1620.03Z" fill="black"/>
<path fill-rule="evenodd" clip-rule="evenodd" d="M599.044 1484.6C614.269 1481.57 629.887 1495.43 633.897 1515.54C637.91 1535.65 628.805 1554.44 613.581 1557.48C598.356 1560.52 589.18 1544.94 585.169 1524.84C581.157 1504.72 583.82 1487.64 599.044 1484.6ZM604.613 1499.98C596.156 1501.66 597.393 1509.65 599.441 1519.92C601.489 1530.19 603.577 1538.87 612.034 1537.18C620.491 1535.49 625.695 1525.79 623.647 1515.52C621.598 1505.25 613.07 1498.29 604.613 1499.98Z" fill="#DED797"/>
<path fill-rule="evenodd" clip-rule="evenodd" d="M598.925 1484C599.175 1483.95 611.47 1480.07 623.969 1492.11C640.225 1507.76 642.6 1536.6 629 1552.26C621.392 1561.02 609.812 1563.85 600.89 1559.11C597.568 1557.35 589.182 1551.97 584.358 1532.86C584.16 1532.08 581.863 1523.03 581.608 1513.61C580.879 1486.63 595.923 1484.52 598.925 1484ZM599.162 1485.21C595.831 1486.08 580.509 1489.57 586.844 1521.19C588.564 1529.78 594.921 1555.24 610.474 1554.31C624.43 1553.47 634.7 1536.04 631.157 1515.62C629.853 1508.11 626.423 1499.39 619.846 1492.9C609.896 1483.07 599.969 1485.1 599.167 1485.21L599.162 1485.21ZM604.492 1499.37C616.961 1496.05 629.263 1510.03 626.603 1525.45C625.555 1531.52 621.03 1539.38 612.226 1540.78C601.751 1542.46 599.109 1531.38 598.882 1530.61C598.56 1529.52 597.43 1525.7 596.518 1516.58C595.616 1507.57 596.089 1500.44 604.492 1499.37ZM604.731 1500.58C599.683 1502.26 598.223 1505.14 600.828 1515.37C600.899 1515.64 602.379 1521.23 603.058 1523.52C605.304 1531.08 607.08 1534.01 610.108 1533.83C616.942 1533.43 622.865 1525.1 620.901 1514.74C620.179 1510.93 618.293 1507.1 615.385 1504.37C610.376 1499.67 605.026 1500.56 604.731 1500.58Z" fill="black"/>
<path fill-rule="evenodd" clip-rule="evenodd" d="M597.436 1564.2C612.956 1564.56 625.272 1577.02 624.923 1592.01C624.573 1607 611.689 1618.88 596.169 1618.51C580.649 1618.15 574.285 1604.05 574.635 1589.06C574.984 1574.07 581.916 1563.84 597.436 1564.2ZM599.614 1576.06C590.992 1575.86 589.8 1580.28 589.622 1587.93C589.443 1595.59 590.346 1603.6 598.967 1603.8C607.589 1604 614.733 1597.95 614.912 1590.3C615.09 1582.64 608.235 1576.27 599.614 1576.06Z" fill="#DED797"/>
<path fill-rule="evenodd" clip-rule="evenodd" d="M597.448 1563.68C614.185 1563.52 625.189 1575.72 626.94 1588.32C629.538 1607 613.537 1622.62 595.294 1621.46C578.435 1620.39 570.879 1604.44 572.899 1586.15C574.174 1574.6 579.568 1569.77 580.591 1568.83C586.722 1563.19 594.458 1563.52 597.448 1563.68ZM597.424 1564.71L597.424 1564.72C593.434 1564.84 576.171 1565.11 576.616 1589.45C576.847 1602.05 582.051 1615.26 595.918 1615.52C614.796 1615.87 627.088 1598.41 621.198 1582.11C619.542 1577.54 616.532 1573.48 612.583 1570.44C605.97 1565.36 599.511 1564.91 597.424 1564.71ZM599.624 1575.55C600.442 1575.53 607.02 1574.96 612.561 1580.24C619.838 1587.16 618.241 1599.07 608.624 1604.47C602.555 1607.88 589.808 1609.3 587.689 1596.47C586.96 1592.05 587.561 1583.6 589.404 1579.87C591.795 1575.02 596.601 1575.27 599.624 1575.55ZM599.601 1576.58C591.792 1577.2 591.043 1580.26 591.771 1590.06C592.534 1600.35 596.15 1600.9 599.706 1600.79C609.855 1600.49 616.001 1591.33 611.013 1583.32C609.892 1581.52 608.241 1579.92 606.212 1578.74C603.02 1576.87 599.909 1576.63 599.603 1576.58L599.601 1576.58Z" fill="black"/>
<path fill-rule="evenodd" clip-rule="evenodd" d="M575.593 1420.88C581.609 1430.81 576.313 1445.05 563.778 1452.63C551.239 1460.23 536.178 1458.32 530.161 1448.38C524.144 1438.44 529.436 1424.21 541.975 1416.62C554.51 1409.03 569.576 1410.94 575.593 1420.88ZM566.661 1428.43C563.318 1422.91 555.412 1421.57 549.011 1425.44C542.609 1429.32 540.125 1436.95 543.467 1442.47C546.81 1447.99 554.721 1449.33 561.122 1445.45C567.524 1441.58 570.003 1433.95 566.661 1428.43Z" fill="#DED797"/>
<path fill-rule="evenodd" clip-rule="evenodd" d="M575.976 1420.64C576.018 1420.71 582.011 1428.56 576.889 1440.33C570.353 1455.34 551.508 1463.56 537.606 1457.87C523.77 1452.22 520.928 1435.41 531.944 1422.53C543.804 1408.66 565.123 1406.81 574.277 1418.12C575.302 1419.38 575.89 1420.49 575.976 1420.64ZM575.21 1421.11C569.102 1412.23 557.946 1412.06 550.258 1414.63C531.785 1420.8 523.705 1441.63 536.182 1451.18C544.65 1457.67 560.133 1455.56 569.949 1445.51C572.828 1442.57 575.53 1438.56 576.69 1433.65C578.354 1426.63 575.661 1421.99 575.21 1421.11L575.21 1421.11ZM567.049 1428.19C567.423 1428.76 570.422 1432.72 568.283 1439.03C565.322 1447.74 554.093 1452.95 545.526 1448.03C539.033 1444.3 537.13 1435.19 542.759 1428.14C549.528 1419.66 562.562 1419.87 566.9 1427.92C566.95 1428.01 566.994 1428.1 567.049 1428.19ZM566.283 1428.66C565.901 1428.17 563.555 1424.76 558.09 1424.57C550.764 1424.31 543.592 1431.08 544.633 1438.13C545.618 1444.82 553.958 1447.7 560.995 1443.46C563.774 1441.78 565.691 1439.3 566.573 1436.95C568.249 1432.5 566.591 1429.33 566.278 1428.66L566.283 1428.66Z" fill="black"/>
<path fill-rule="evenodd" clip-rule="evenodd" d="M618.668 1360.68C633.9 1369.39 638.466 1390.1 628.864 1406.9C619.258 1423.71 599.096 1430.28 583.864 1421.58C568.632 1412.87 564.062 1392.17 573.668 1375.36C583.27 1358.56 603.436 1351.98 618.668 1360.68ZM613.504 1375.31C605.043 1370.47 594.196 1373.5 589.292 1382.09C584.388 1390.67 587.275 1401.56 595.737 1406.39C604.198 1411.23 615.05 1408.19 619.954 1399.61C624.858 1391.03 621.966 1380.14 613.504 1375.31Z" fill="#DED797"/>
<path fill-rule="evenodd" clip-rule="evenodd" d="M618.977 1360.14C619.119 1360.22 632.858 1366.34 635.503 1384.14C638.8 1406.29 621.844 1427.87 599.629 1428.96C582.873 1429.79 567.721 1417.62 565.736 1398.72C563.565 1378.01 579.186 1357.54 600.101 1355.72C610.435 1354.82 617.191 1359.06 618.977 1360.14ZM618.364 1361.22L618.356 1361.23C618.289 1361.19 606.591 1354.24 592.068 1361C574.717 1369.08 566.852 1390.7 574.819 1406.85C582.425 1422.25 601.573 1426.65 616.722 1416.02C630.862 1406.1 636.411 1386.22 627.851 1371.19C624.345 1365.03 619.73 1362.14 618.364 1361.22ZM613.817 1374.76C623.756 1379.66 626.774 1391.37 622.258 1400.63C616.02 1413.41 598.72 1416.14 589.094 1405.75C579.879 1395.79 582.811 1379.24 595.333 1373.42C599.026 1371.7 606.351 1369.8 613.817 1374.76ZM613.199 1375.84C611.795 1375.24 607.456 1373.26 601.451 1375.02C591.656 1377.91 586.388 1390.01 593.025 1399.19C597.456 1405.32 607.036 1407.76 614.4 1402.02C622.083 1396.02 622.73 1383.76 614.584 1376.9C613.915 1376.34 613.905 1376.36 613.195 1375.85L613.199 1375.84Z" fill="black"/>
<path fill-rule="evenodd" clip-rule="evenodd" d="M599.2 1439.93C608.811 1445.43 610.699 1460.24 603.416 1472.98C596.131 1485.73 582.416 1491.61 572.805 1486.12C563.195 1480.62 561.305 1465.82 568.59 1453.07C575.872 1440.33 589.59 1434.44 599.2 1439.93ZM594.978 1450.85C589.639 1447.8 582.288 1450.6 578.568 1457.11C574.849 1463.61 576.164 1471.38 581.503 1474.43C586.841 1477.48 594.196 1474.67 597.915 1468.16C601.634 1461.66 600.316 1453.9 594.978 1450.85Z" fill="#DED797"/>
<path fill-rule="evenodd" clip-rule="evenodd" d="M599.417 1439.55C610.266 1445.38 611.483 1460.44 605.872 1472.32C597.739 1489.53 579.101 1495.91 568.406 1486.06C558.457 1476.9 560.13 1457.8 572.183 1445.62C578.689 1439.05 589.855 1433.79 599.417 1439.55ZM598.987 1440.31L598.982 1440.32C598.952 1440.3 591.67 1435.84 581.755 1441.55C568.312 1449.28 562.149 1468.84 569.56 1479.71C576.916 1490.48 593.774 1485.89 602.265 1471.2C605.803 1465.08 607.305 1458.19 606.255 1452.03C604.908 1444.13 600.284 1441.2 598.987 1440.31ZM595.197 1450.46C595.776 1450.76 600.124 1452.68 601.145 1459.15C602.544 1468.04 595.442 1478.07 585.865 1478.13C579.468 1478.18 573.959 1472.77 574.118 1465.09C574.29 1456.85 580.852 1449.44 588.408 1448.77C592.524 1448.41 595.19 1450.46 595.197 1450.46ZM594.763 1451.22C594.592 1451.15 590.301 1448.88 585.033 1452.38C578.821 1456.51 576.506 1466.35 581.389 1471.15C586.697 1476.37 597.113 1471.07 598.656 1461.46C598.725 1461.03 599.12 1458.58 598.28 1456.03C597.25 1452.92 595.33 1451.65 594.761 1451.23L594.763 1451.22Z" fill="black"/>
<path fill-rule="evenodd" clip-rule="evenodd" d="M690.07 1363.68C699.68 1369.17 701.568 1383.98 694.286 1396.72C687 1409.47 673.285 1415.35 663.675 1409.86C654.064 1404.37 652.174 1389.56 659.459 1376.82C666.741 1364.08 680.459 1358.19 690.07 1363.68ZM685.847 1374.59C680.508 1371.54 673.157 1374.34 669.438 1380.85C665.718 1387.36 667.033 1395.12 672.372 1398.17C677.711 1401.22 685.065 1398.42 688.784 1391.91C692.503 1385.4 691.186 1377.64 685.847 1374.59Z" fill="#DED797"/>
<path fill-rule="evenodd" clip-rule="evenodd" d="M690.286 1363.3C701.135 1369.12 702.353 1384.18 696.741 1396.06C688.608 1413.28 669.97 1419.65 659.276 1409.8C649.326 1400.64 650.999 1381.54 663.052 1369.37C669.559 1362.79 680.724 1357.53 690.286 1363.3ZM689.856 1364.05L689.851 1364.06C689.821 1364.05 682.539 1359.59 672.624 1365.29C659.181 1373.02 653.019 1392.59 660.429 1403.45C667.785 1414.22 684.644 1409.64 693.134 1394.94C696.672 1388.82 698.174 1381.93 697.124 1375.78C695.777 1367.88 691.153 1364.94 689.856 1364.05ZM686.066 1374.21C686.645 1374.51 690.993 1376.42 692.015 1382.89C693.413 1391.78 686.311 1401.81 676.734 1401.88C670.337 1401.92 664.829 1396.51 664.987 1388.83C665.159 1380.59 671.721 1373.18 679.277 1372.51C683.393 1372.15 686.059 1374.2 686.066 1374.21ZM685.633 1374.97C685.462 1374.9 681.17 1372.62 675.902 1376.13C669.69 1380.26 667.375 1390.09 672.258 1394.9C677.566 1400.12 687.983 1394.81 689.525 1385.21C689.594 1384.78 689.99 1382.32 689.149 1379.77C688.119 1376.66 686.199 1375.39 685.63 1374.97L685.633 1374.97Z" fill="black"/>
<path fill-rule="evenodd" clip-rule="evenodd" d="M740.907 1409.33C737.041 1417.49 726.241 1420.48 716.811 1416C707.376 1411.53 702.859 1401.28 706.725 1393.13C710.591 1384.97 721.387 1381.98 730.821 1386.46C740.252 1390.93 744.773 1401.18 740.907 1409.33ZM732.86 1407.1C735.008 1402.57 732.844 1397.04 728.028 1394.75C723.212 1392.47 717.557 1394.29 715.41 1398.82C713.262 1403.35 715.429 1408.88 720.245 1411.17C725.062 1413.45 730.712 1411.63 732.86 1407.1Z" fill="#DED797"/>
<path fill-rule="evenodd" clip-rule="evenodd" d="M741.206 1409.48C735.53 1422.37 715.687 1422.44 706.749 1409.54C701.708 1402.26 702.248 1392.11 709.816 1386.42C719.555 1379.11 735.633 1383.19 741.263 1395.36C743.281 1399.72 742.873 1403.49 742.796 1404.21C742.488 1407.06 741.454 1408.98 741.206 1409.48ZM740.615 1409.2L740.607 1409.19C740.61 1409.19 743.745 1402.91 739.412 1395.6C733.622 1385.83 719.282 1382.63 711.282 1390.06C704.871 1396.01 705.98 1407.34 715.663 1413.7C719.289 1416.07 724.395 1417.57 729.313 1416.81C737.389 1415.55 740.171 1409.97 740.615 1409.2ZM733.159 1407.24C733.144 1407.28 731.866 1411.25 727.113 1412.74C719.173 1415.23 710.904 1407.89 713.08 1399.59C714.915 1392.59 724.023 1389.61 730.266 1394.53C733.005 1396.69 736.155 1401.69 733.159 1407.24ZM732.564 1406.96C735.13 1399.63 727.542 1393.46 721.096 1396C715.344 1398.27 714.682 1406.14 720.439 1409.74C723.871 1411.89 729.523 1411.93 732.564 1406.96Z" fill="black"/>
<path fill-rule="evenodd" clip-rule="evenodd" d="M845.053 1492.42C841.696 1502.97 834.369 1504.3 823.978 1501C813.582 1497.69 807.871 1486.44 811.227 1475.89C814.583 1465.34 822.627 1462.71 833.019 1466.02C843.414 1469.33 848.409 1481.87 845.053 1492.42ZM836.329 1491.48C838.193 1485.62 836.119 1478.2 830.812 1476.51C825.505 1474.82 822.804 1474.96 820.939 1480.82C819.075 1486.68 821.87 1492.81 827.177 1494.5C832.484 1496.18 834.464 1497.34 836.329 1491.48Z" fill="#DED797"/>
<path fill-rule="evenodd" clip-rule="evenodd" d="M845.407 1492.53C843.598 1498.8 839.903 1506.05 826.005 1503.05C824.314 1502.68 815.929 1501.26 810.938 1492.51C806.477 1484.7 807.76 1475.46 811.954 1469.41C819.331 1458.79 832.863 1463.72 836.731 1466C844.782 1470.73 849.169 1481.85 845.407 1492.53ZM844.698 1492.31C844.705 1492.27 847.617 1483.14 841.841 1474.47C837.727 1468.29 831.784 1467.33 831.147 1467.18C819.904 1464.51 815.129 1469.98 813.099 1477.22C810.751 1485.57 814.356 1496.04 824.899 1499.73C826.583 1500.32 832.037 1502.24 836.37 1501.13C841.598 1499.78 843.573 1495.17 844.698 1492.31ZM836.684 1491.59C835.608 1496.07 834.235 1497.37 829.924 1496.48C826.959 1495.86 825.98 1495.5 825.651 1495.38C819.256 1493.02 816.184 1484.62 819.96 1477.48C822.767 1472.16 827.518 1473.27 831.657 1474.92C836.723 1476.94 839.607 1484.33 836.684 1491.59ZM835.974 1491.37C836.001 1491.25 836.772 1488.22 835.746 1484.52C835.558 1483.84 834.288 1479.27 830.366 1478.24C825.505 1476.96 824.746 1477.72 823.879 1479.33C822.644 1481.63 822.459 1483.78 822.426 1484.18C822.108 1487.89 823.94 1491.78 827.576 1493.26C830.58 1494.47 832.225 1495.26 833.352 1494.91C834.644 1494.52 835.531 1492.4 835.974 1491.37L835.974 1491.37Z" fill="black"/>
<path fill-rule="evenodd" clip-rule="evenodd" d="M854.583 1527.28C853.836 1535.33 852.038 1541.85 845.079 1541.21C838.118 1540.56 833.075 1533.5 833.823 1525.45C834.57 1517.4 836.352 1508.74 843.314 1509.39C850.272 1510.04 855.331 1519.23 854.583 1527.28ZM848.981 1528.04C849.396 1523.57 846.832 1517.54 843.278 1517.21C839.724 1516.88 840.979 1522.89 840.564 1527.36C840.148 1531.83 842.697 1535.73 846.251 1536.06C849.805 1536.39 848.566 1532.52 848.981 1528.04Z" fill="#DED797"/>
<path fill-rule="evenodd" clip-rule="evenodd" d="M854.838 1527.31C854.555 1532.66 853.943 1543.36 844.274 1542.17C836.924 1541.27 831.654 1533.83 832.321 1525.52C833.216 1514.35 836.375 1511.23 837.283 1510.33C842.211 1505.46 851.552 1509.22 854.335 1519.91C855.352 1523.8 854.904 1526.71 854.838 1527.31ZM854.33 1527.26C854.592 1518.01 848.89 1511.36 844.059 1510.58C839.284 1509.8 836.384 1513.02 835.292 1525.76C834.555 1534.36 840.627 1540.63 846.801 1540.24C852.08 1539.91 853.451 1533.3 854.33 1527.26ZM849.235 1528.07C849.25 1532.61 850.335 1536.02 847.512 1536.84C844.698 1537.67 839.892 1535.29 839.161 1529.33C838.968 1527.76 839.16 1527.75 839.177 1523.85C839.19 1521.07 839.157 1516.04 842.825 1515.97C846.925 1515.91 850.145 1522.08 849.235 1528.07ZM848.727 1528.02C848.56 1521.69 844.568 1517.83 842.792 1518.46C841.686 1518.85 842.388 1523.98 842.043 1527.27C842.041 1527.29 841.45 1530.53 843.251 1533.09C844.74 1535.21 847.162 1535.58 847.72 1534.85C848.459 1533.88 848.146 1531.97 848.727 1528.02Z" fill="black"/>
<path fill-rule="evenodd" clip-rule="evenodd" d="M833.515 1558.95C830.209 1564.09 826.539 1567.43 823.018 1565.17C819.496 1562.91 819.322 1556.89 822.628 1551.74C825.935 1546.6 829.723 1542.42 833.245 1544.69C836.765 1546.95 836.821 1553.8 833.515 1558.95ZM830.218 1557.98C832.055 1555.12 832.1 1550.99 830.302 1549.83C828.504 1548.68 827.413 1551.93 825.576 1554.79C823.739 1557.65 823.708 1560.91 825.506 1562.06C827.304 1563.22 828.381 1560.84 830.218 1557.98Z" fill="#DED797"/>
<path fill-rule="evenodd" clip-rule="evenodd" d="M833.664 1559.04C833.079 1560.03 827.827 1569.82 822.069 1565.41C818.438 1562.63 818.5 1556.23 821.752 1551.19C823.727 1548.13 829.083 1540.4 834.013 1544.33C836.847 1546.59 837.827 1552.86 833.664 1559.04ZM833.365 1558.85C837.992 1550.58 834.15 1542.9 829.596 1545.35C826.703 1546.9 823.097 1552.58 822.175 1554.83C820.434 1559.07 821.031 1563.09 823.623 1564.69C827.222 1566.91 831.187 1561.86 833.365 1558.85ZM830.367 1558.07C828.82 1561.01 827.53 1564.13 825.039 1562.55C823.045 1561.29 822.582 1557.76 824.712 1554.23C826.56 1551.17 828.065 1547.83 830.388 1548.92C832.485 1549.91 833.19 1554.14 830.367 1558.07ZM830.068 1557.88C832.107 1553.73 830.602 1550.46 829.609 1550.45C828.981 1550.45 827.951 1553.01 826.359 1555.46C824.033 1559.04 825.204 1561.76 826.506 1561.76C827.338 1561.76 828.453 1560.06 830.068 1557.88Z" fill="black"/>
<path fill-rule="evenodd" clip-rule="evenodd" d="M816.322 1586.46C810.708 1589.02 805.64 1589.53 803.449 1584.71C801.257 1579.89 804.036 1573.9 809.649 1571.35C815.262 1568.8 820.849 1567.56 823.041 1572.38C825.232 1577.2 821.935 1583.91 816.322 1586.46ZM813.708 1583.07C816.826 1581.65 818.889 1577.66 817.77 1575.2C816.651 1572.74 814.04 1575.09 810.921 1576.51C807.803 1577.92 806.18 1581.07 807.299 1583.53C808.418 1586 810.589 1584.48 813.708 1583.07Z" fill="#DED797"/>
<path fill-rule="evenodd" clip-rule="evenodd" d="M816.404 1586.64C815.11 1587.28 805.802 1592.43 802.495 1584.55C800.207 1579.09 803.642 1572.78 809.178 1570.32C810.879 1569.56 821.151 1564.68 823.945 1572.42C824.855 1574.94 824.525 1577.95 822.966 1580.76C820.517 1585.17 816.521 1586.59 816.404 1586.64ZM816.243 1586.29L816.242 1586.29C824.799 1581.7 824.623 1571.24 819.111 1570.21C815.415 1569.52 809.43 1572.67 808.53 1573.25C802.713 1577 802.581 1583.58 805.509 1586.43C808.492 1589.33 814.248 1587.05 816.243 1586.29ZM813.788 1583.24C810.91 1584.88 808.115 1586.91 806.578 1583.7C805.166 1580.75 807.139 1577.11 810.292 1575.56C813.555 1573.96 816.566 1571.82 818.23 1574.13C819.981 1576.56 818.214 1581.53 813.788 1583.24ZM813.628 1582.89C813.682 1582.86 815.256 1582.06 816.396 1580.04C817.907 1577.37 817.156 1575.1 816.347 1575.13C815.364 1575.18 814.007 1576.35 811.261 1577.58C807.635 1579.22 807.133 1582.62 808.379 1583.98C809.101 1584.76 810.824 1583.95 813.628 1582.89L813.628 1582.89Z" fill="black"/>
<path fill-rule="evenodd" clip-rule="evenodd" d="M802.63 1446.37C808.327 1451.43 811.088 1457.31 805.554 1463.54C800.018 1469.77 790.899 1470.73 785.202 1465.67C779.505 1460.61 775.565 1454.62 781.101 1448.39C786.635 1442.16 796.933 1441.32 802.63 1446.37ZM799.169 1452.09C796.004 1449.28 789.84 1449.65 787.014 1452.83C784.188 1456.01 788.393 1457.51 791.558 1460.32C794.723 1463.14 799.587 1462.83 802.413 1459.65C805.239 1456.47 802.334 1454.9 799.169 1452.09Z" fill="#DED797"/>
<path fill-rule="evenodd" clip-rule="evenodd" d="M802.81 1446.17C806.235 1449 812.965 1455.22 807.009 1463.48C801.9 1470.56 791.345 1472.98 784.357 1467.03C779.759 1463.11 778.324 1459.77 778 1459.01C777.843 1458.64 774.535 1452.23 781.603 1446.33C784.728 1443.72 788.68 1442.43 792.519 1442.4C799.175 1442.34 802.599 1445.97 802.81 1446.17ZM802.45 1446.58C795.308 1441.03 784.876 1444.22 780.987 1450.52C778.804 1454.05 779.095 1458.22 786.249 1464.49C792.605 1470.05 802.193 1467.2 806.386 1460.72C810.344 1454.61 804.713 1448.82 802.45 1446.58ZM799.347 1451.88C802.499 1454.21 806.501 1456.29 803.008 1460.48C800.359 1463.66 794.92 1465.22 790.381 1461.38C787.791 1459.19 783.056 1456.78 785.219 1453.04C785.886 1451.89 788.02 1449.7 791.983 1449.41C796.555 1449.08 798.91 1451.44 799.347 1451.88ZM798.991 1452.29C794.644 1449.3 788.673 1451.76 787.561 1454.37C787.225 1455.15 788.184 1455.83 790.044 1457.16C793.233 1459.43 792.997 1459.81 794.659 1460.46C798.883 1462.12 803.096 1458.68 802.745 1456.81C802.53 1455.65 801.161 1454.51 798.991 1452.29Z" fill="black"/>
<path fill-rule="evenodd" clip-rule="evenodd" d="M721.533 1406.43C721.533 1406.43 823.548 1460.81 844.57 1506.49C856.213 1531.8 828.895 1557.59 818.219 1582.02C798.137 1627.98 798.286 1726.15 798.286 1726.15L821.329 1651L832.571 1658.64L798.169 1764.26L784.903 1708.4C784.903 1708.4 771.201 1613.35 777.248 1588.79C779.924 1577.92 783.542 1552.9 793.077 1541.87C796.706 1537.67 806.858 1550.24 809.404 1544.64C813.935 1534.67 809.166 1526.79 807.491 1520.29C805.741 1513.51 792.085 1510.23 783.315 1503.14C768.505 1491.17 763.068 1488.73 746.685 1471.58C745.577 1470.41 695.492 1431.39 695.492 1431.39C695.492 1431.39 603.846 1440.94 627.426 1505.15C628.511 1508.11 592.458 1401.54 604.668 1395.04C624.405 1384.54 668.095 1386.1 691.485 1384.22C707.255 1382.95 721.533 1406.43 721.533 1406.43Z" fill="black" fill-opacity="0.3"/>
<path fill-rule="evenodd" clip-rule="evenodd" d="M1515.86 2106.99C1560.7 2161.13 1655.02 2193.07 1700.25 2153C1738.76 2118.88 1811.91 2020.98 1707.2 1980.38C1674.27 1967.61 1676.39 1999.55 1661.46 2002.34C1645.74 2005.3 1626.29 1995.45 1629.16 1978.31C1635.41 1941.16 1665.14 1867.15 1666.42 1831.54C1668.28 1779.77 1657.3 1733.61 1614.14 1705.74C1531.85 1654.74 1483.37 1634.81 1438.4 1666.09C1410.78 1685.3 1371.61 1704.66 1344.47 1728.39C1299.42 1767.75 1241.08 1796.17 1236.78 1831.46C1233.55 1858.01 1279.21 1899.34 1284.98 1941.46C1286.67 1953.84 1279.77 1972.29 1264.58 1978.42C1238.05 1989.12 1195.77 1982.18 1198.39 1982.82C1200.85 1983.42 1237.98 2004.07 1270.28 1999.51C1297.21 1995.71 1320.64 1970.07 1319.11 1940.92C1317.2 1904.45 1286.53 1872.46 1291.46 1857.64C1303.54 1821.28 1348.64 1800.57 1413.72 1760.57C1438.64 1745.24 1523.87 1778.04 1528.83 1788.78C1532.43 1796.55 1517.85 1825.12 1514.29 1833.68C1498.99 1870.43 1475.39 1906.85 1465.69 1931.72C1451.9 1967.12 1447.45 1996.95 1454.49 2014.69C1459.15 2025.44 1502.98 2091.45 1515.86 2106.99Z" fill="#2AB6E9" stroke="#007199" stroke-width="10.004" stroke-miterlimit="2" stroke-linejoin="round"/>
<path fill-rule="evenodd" clip-rule="evenodd" d="M1722.39 2136.64C1722.39 2136.64 1796.93 2061.77 1751.24 2003C1747.25 1997.86 1744.48 2071.44 1712.38 2098.96C1681.38 2125.55 1615.24 2112.76 1532.4 2021.33C1497.05 1982.31 1572.4 1794.19 1572.4 1794.19L1536.14 1744.03C1536.14 1744.03 1453.64 1724.94 1415.28 1739.15C1372.12 1755.15 1284.67 1849.61 1284.67 1849.61C1298.17 1889.37 1315.78 1958.87 1295.3 1977.68C1273.01 1998.14 1223.49 1984.04 1202.85 1981.86C1200.11 1981.57 1216.16 1981.02 1228.79 1980.81C1262.61 1980.26 1280.82 1964.86 1280.08 1953.15C1280.01 1952.02 1260.1 1968.99 1239.82 1970.32C1211.66 1972.17 1178.6 1972.41 1190.38 1986.33C1213.83 2014.02 1300.91 2030.53 1334.59 1971.35C1339.13 1963.37 1341.98 1951.05 1337.4 1930.04C1329.58 1894.1 1335.51 1848.55 1356.44 1837.7C1399.13 1815.56 1443.81 1792.52 1460.35 1803.91C1482.89 1819.42 1471.66 1875.72 1471.66 1875.72C1471.66 1875.72 1422.88 1970.38 1426.46 2011.47C1391.34 2112.56 1524.84 2182.25 1579.28 2225.91C1600.68 2243.08 1675.9 2233.99 1691.22 2230.84C1718.31 2225.26 1760.35 2194.98 1759.63 2169.66C1759.15 2152.98 1718.67 2162.66 1715.11 2156.01C1713.53 2153.08 1715.56 2147.16 1722.39 2136.64Z" fill="black" fill-opacity="0.4"/>
<path fill-rule="evenodd" clip-rule="evenodd" d="M1644.64 1848.95C1644.64 1848.95 1647.45 1783.29 1631.11 1756.27C1619.04 1736.32 1595.23 1713.77 1573.2 1701.39C1573.2 1701.39 1628.68 1728.32 1641.77 1752.72C1655.44 1778.22 1644.64 1848.95 1644.64 1848.95Z" fill="white"/>
<path fill-rule="evenodd" clip-rule="evenodd" d="M1495.91 2062.91C1485.94 2070.15 1497.3 2082.75 1512.99 2104.34C1528.68 2125.92 1556.91 2143.18 1566.88 2135.93C1576.85 2128.69 1567.17 2104.96 1551.47 2083.37C1535.79 2061.79 1505.88 2055.66 1495.91 2062.91ZM1509.34 2076.13C1514.87 2072.1 1530.11 2078.92 1538.12 2089.94C1546.13 2100.96 1550.34 2111.46 1544.8 2115.48C1539.27 2119.51 1529.12 2113.55 1521.11 2102.53C1513.09 2091.51 1503.8 2080.16 1509.34 2076.13Z" fill="#DED797"/>
<path fill-rule="evenodd" clip-rule="evenodd" d="M1495.49 2062.33C1495.53 2062.31 1500.92 2057.3 1514.93 2059.22C1525.63 2060.7 1542.17 2066.58 1553.88 2081.62C1567.32 2098.88 1582.58 2126.43 1570.73 2138.06C1559.5 2149.07 1533.25 2133.32 1516.73 2113.72C1512.83 2109.11 1511.95 2107.54 1505.47 2098.04C1498.89 2088.39 1493.16 2080.06 1491.55 2073.58C1489.84 2066.66 1493.41 2063.78 1495.49 2062.33ZM1496.32 2063.47C1491.99 2067.11 1491.53 2071.42 1499.02 2082.03C1503.13 2087.85 1506.45 2091.72 1515.16 2102.74C1530.96 2122.74 1554.77 2135.77 1563.2 2133.22C1570.89 2130.88 1566.33 2111.65 1551.44 2088.69C1549.02 2084.97 1543.94 2076.43 1532.09 2069.21C1525.17 2065 1517.76 2062.44 1511.28 2061.54C1500.93 2060.1 1496.76 2063.21 1496.33 2063.47L1496.32 2063.47ZM1508.92 2075.56C1514.82 2070.88 1528.51 2076.34 1536.66 2083.74C1541.71 2088.31 1546.34 2095.33 1548.52 2099.73C1549.01 2100.72 1555.04 2111.92 1548.04 2118.14C1541.49 2123.93 1530.25 2120.07 1520.62 2106.88C1520.1 2106.17 1512.68 2095.14 1509.49 2088.92C1505.8 2081.73 1505.72 2077.71 1508.92 2075.56ZM1509.75 2076.69C1508.18 2078.22 1507.27 2080.74 1514.31 2089.82C1515.59 2091.47 1523.5 2101.12 1525.97 2103.73C1534.19 2112.46 1542.55 2115.05 1543.18 2110.65C1543.96 2105.18 1536.47 2092.56 1532.9 2088.28C1528.35 2082.83 1523.03 2079.23 1518.54 2077.37C1512.52 2074.86 1510.03 2076.54 1509.75 2076.69Z" fill="black"/>
<path fill-rule="evenodd" clip-rule="evenodd" d="M1467.39 1954C1454.08 1955.74 1446.05 1978.54 1449.49 2004.89C1452.92 2031.23 1466.52 2051.22 1479.84 2049.48C1493.16 2047.75 1501.18 2024.94 1497.74 1998.6C1494.31 1972.25 1480.71 1952.27 1467.39 1954ZM1467.99 1975.04C1475.39 1974.07 1482.82 1984.21 1484.57 1997.67C1486.33 2011.12 1481.75 2022.83 1474.35 2023.79C1466.95 2024.76 1459.52 2014.62 1457.77 2001.16C1456.01 1987.71 1460.6 1976 1467.99 1975.04Z" fill="#DED797"/>
<path fill-rule="evenodd" clip-rule="evenodd" d="M1467.3 1953.29C1467.87 1953.21 1478.01 1950.62 1488.73 1966.42C1503.57 1988.27 1506.34 2025.95 1494.11 2044.19C1483.63 2059.82 1464.11 2056.92 1452.76 2030.75C1445.3 2013.57 1443.45 1989.01 1449.99 1970.98C1450.69 1969.05 1452.92 1963.18 1457.1 1958.73C1461.77 1953.74 1466.15 1953.42 1467.3 1953.29ZM1467.48 1954.71C1466.79 1954.85 1457.46 1955.75 1453.09 1973.4C1447.27 1996.92 1456.09 2030.63 1470.21 2042.04C1482.17 2051.73 1490.43 2038.75 1493.51 2025.09C1499.65 1997.86 1489.63 1963.61 1474.28 1956.08C1470.84 1954.39 1468.21 1954.66 1467.48 1954.71ZM1467.9 1974.33C1476.77 1972.66 1485.47 1984.35 1487.81 1998.27C1490.55 2014.6 1483.85 2028.15 1473.27 2028C1462.16 2027.84 1453.51 2011.99 1454.95 1994.36C1455.59 1986.54 1459.42 1975 1467.9 1974.33ZM1468.09 1975.74L1468.09 1975.75C1467.16 1975.99 1463.56 1976.75 1461.26 1983.19C1457.57 1993.52 1461.25 2010.49 1468.66 2017.4C1471.79 2020.32 1473.81 2019.71 1474.27 2019.56C1480.1 2017.77 1483.84 2003.06 1480.1 1989.42C1478.7 1984.27 1476.25 1980.36 1474.09 1978.34C1471.4 1975.83 1469.3 1975.76 1468.09 1975.74Z" fill="black"/>
<path fill-rule="evenodd" clip-rule="evenodd" d="M1531.65 1847.67C1516.97 1842.63 1499.63 1854.27 1492.97 1873.66C1486.3 1893.06 1492.8 1912.9 1507.48 1917.95C1522.16 1922.99 1533.34 1908.79 1540.01 1889.4C1546.68 1870.01 1546.33 1852.72 1531.65 1847.67ZM1524.07 1862.16C1532.23 1864.97 1529.93 1872.72 1526.52 1882.62C1523.12 1892.52 1519.89 1900.84 1511.73 1898.04C1503.58 1895.23 1499.72 1884.92 1503.13 1875.01C1506.53 1865.11 1515.92 1859.36 1524.07 1862.16Z" fill="#DED797"/>
<path fill-rule="evenodd" clip-rule="evenodd" d="M1531.85 1847.09C1534.57 1847.95 1550.07 1852.13 1544.73 1880.53C1544.47 1881.92 1542.44 1892.41 1537.49 1902.53C1529.04 1919.84 1519.01 1922.4 1513.29 1922.47C1502.53 1922.6 1488.85 1913.48 1487.26 1893.11C1486.47 1882.94 1489.71 1867.7 1500.71 1856.35C1507.42 1849.42 1513.86 1847.33 1515.66 1846.77C1524.31 1844.07 1530.4 1846.55 1531.85 1847.09ZM1531.45 1848.26C1531.04 1848.14 1520.69 1844.4 1509.03 1853.8C1493.45 1866.36 1488.67 1892.43 1498.98 1907.03C1503.6 1913.56 1511.26 1917.14 1518.08 1914.68C1531.09 1909.99 1540.53 1884.7 1542.21 1871.99C1544.57 1854 1534.96 1849.71 1531.45 1848.26L1531.45 1848.26ZM1524.27 1861.58C1533.51 1864.04 1531.63 1872.86 1529.17 1882.49C1526.42 1893.27 1524.06 1896.41 1523.28 1897.43C1517.14 1905.58 1507.87 1901.66 1503.58 1896.75C1494.85 1886.73 1498.68 1868.64 1511.39 1862.26C1515.33 1860.27 1518.72 1860.42 1519.37 1860.45C1522.01 1860.58 1523.82 1861.39 1524.27 1861.58ZM1523.87 1862.74C1523.77 1862.72 1516.66 1860.48 1510.2 1867.38C1503.5 1874.54 1502.78 1887.3 1510.02 1893.06C1511.05 1893.89 1514.22 1895.81 1516.38 1894.73C1519.13 1893.34 1521.44 1888.37 1525.42 1878.75C1527.28 1874.27 1528.51 1870.51 1528.08 1867.59C1527.61 1864.38 1524.7 1863.15 1523.87 1862.74Z" fill="black"/>
<path fill-rule="evenodd" clip-rule="evenodd" d="M1522.58 1926.77C1507.15 1925.05 1493.28 1935.74 1491.62 1950.65C1489.95 1965.55 1501.13 1979.04 1516.56 1980.76C1531.99 1982.48 1540.18 1969.36 1541.85 1954.46C1543.51 1939.56 1538.01 1928.49 1522.58 1926.77ZM1518.83 1938.23C1527.4 1939.19 1527.99 1943.73 1527.15 1951.33C1526.3 1958.94 1524.33 1966.76 1515.76 1965.81C1507.19 1964.85 1500.92 1957.9 1501.77 1950.29C1502.61 1942.68 1510.26 1937.28 1518.83 1938.23Z" fill="#DED797"/>
<path fill-rule="evenodd" clip-rule="evenodd" d="M1522.64 1926.25C1525.43 1926.47 1541.76 1927.24 1543.78 1947.03C1545.03 1959.28 1540.54 1980.04 1523.47 1983.45C1513.63 1985.41 1499.19 1980.73 1492.3 1967.58C1485.32 1954.25 1489.81 1937.2 1503.99 1929.45C1512.89 1924.58 1521.28 1926.05 1522.64 1926.25ZM1522.53 1927.28C1522.47 1927.27 1510.9 1925.94 1501.67 1934.69C1489.78 1945.97 1491.64 1965.04 1505.77 1973.89C1511 1977.16 1520.76 1980.3 1528.43 1975.51C1538.77 1969.07 1542.07 1950.82 1539.5 1941.11C1536.54 1929.97 1526.61 1927.96 1522.52 1927.28L1522.53 1927.28ZM1518.89 1937.73C1524.38 1937.95 1528.56 1939.43 1529.12 1947.08C1529.18 1947.89 1529.56 1955.39 1527.68 1960.76C1523.55 1972.58 1511.1 1969.12 1505.93 1965.05C1494.64 1956.15 1498.84 1940.44 1512.03 1937.75C1515.48 1937.04 1518.18 1937.61 1518.89 1937.73ZM1518.77 1938.75C1518.6 1938.75 1512.32 1938.34 1507.64 1942.76C1501.14 1948.88 1503.41 1958.85 1512.92 1962.1C1513.12 1962.17 1516.95 1963.49 1519.4 1962.61C1522.5 1961.5 1524.15 1957.17 1525.44 1949.45C1526.61 1942.46 1525.08 1940.12 1518.78 1938.75L1518.77 1938.75Z" fill="black"/>
<path fill-rule="evenodd" clip-rule="evenodd" d="M1528.81 1722.24C1512.55 1728.83 1505.25 1748.74 1512.51 1766.68C1519.78 1784.62 1538.88 1793.84 1555.14 1787.25C1571.4 1780.67 1578.7 1760.76 1571.44 1742.81C1564.17 1724.88 1545.07 1715.66 1528.81 1722.24ZM1531.97 1737.43C1541 1733.77 1551.34 1738.23 1555.05 1747.39C1558.76 1756.55 1554.44 1766.95 1545.41 1770.61C1536.37 1774.27 1526.03 1769.81 1522.32 1760.65C1518.61 1751.48 1522.93 1741.08 1531.97 1737.43Z" fill="#DED797"/>
<path fill-rule="evenodd" clip-rule="evenodd" d="M1528.57 1721.67C1528.84 1721.55 1541.34 1715.02 1556.47 1723C1576.86 1733.77 1583.79 1761.67 1570.08 1780.07C1559.61 1794.13 1540.2 1797.23 1524.77 1786.76C1509.36 1776.3 1502.84 1754.89 1511.09 1737.7C1516.97 1725.43 1527.47 1722.07 1528.57 1721.67ZM1529.04 1722.81C1528.49 1723.08 1517.14 1727.64 1513.11 1741.89C1507.94 1760.14 1519.24 1780.16 1536.63 1784.8C1554.02 1789.45 1570.18 1776.99 1571.26 1758C1572.39 1738.22 1556.35 1720.17 1537.07 1721.21C1532.86 1721.43 1529.84 1722.55 1529.04 1722.83L1529.04 1722.81ZM1531.73 1736.84C1545.73 1730.05 1561.29 1742.14 1559.31 1757.7C1557.61 1771.05 1543.48 1779.49 1530.58 1773.42C1518.38 1767.67 1514.94 1751.59 1523.99 1741.79C1527.13 1738.39 1530.54 1737.24 1531.73 1736.84ZM1532.2 1737.99L1532.2 1738C1532.13 1738.04 1525.6 1740.9 1523.58 1748.53C1521.55 1756.17 1525.42 1763.81 1531.7 1766.83C1532.79 1767.35 1537.31 1769.63 1543.37 1767.5C1553.19 1764.04 1556.81 1751.32 1549.32 1742.73C1546.18 1739.13 1542.04 1738.03 1541.94 1738.01C1536.93 1736.4 1532.62 1737.88 1532.2 1737.99Z" fill="black"/>
<path fill-rule="evenodd" clip-rule="evenodd" d="M1576.63 1796.93C1567.55 1790.61 1553.36 1795.26 1544.98 1807.31C1536.6 1819.36 1537.17 1834.27 1546.26 1840.6C1555.34 1846.92 1569.53 1842.27 1577.91 1830.21C1586.29 1818.17 1585.72 1803.25 1576.63 1796.93ZM1568.59 1805.43C1573.64 1808.94 1574.26 1816.78 1569.98 1822.93C1565.7 1829.09 1558.13 1831.23 1553.08 1827.72C1548.03 1824.21 1547.41 1816.36 1551.69 1810.21C1555.97 1804.06 1563.54 1801.92 1568.59 1805.43Z" fill="#DED797"/>
<path fill-rule="evenodd" clip-rule="evenodd" d="M1576.88 1796.57C1586.5 1802.93 1586.83 1816.55 1581.63 1827.23C1572.66 1845.67 1551.25 1851.85 1541.1 1839.26C1531.83 1827.78 1537.65 1806.92 1552.88 1797.42C1559.15 1793.51 1568.88 1790.68 1576.88 1796.57ZM1576.39 1797.28C1576.25 1797.21 1569.47 1792.26 1559.14 1797.07C1544.91 1803.69 1536.85 1823.39 1544.2 1834.83C1550.32 1844.35 1565.41 1842.66 1575.45 1830.48C1580.28 1824.62 1583.04 1817.23 1582.72 1810.39C1582.3 1801.45 1576.92 1797.71 1576.38 1797.29L1576.39 1797.28ZM1568.84 1805.06C1568.88 1805.09 1573.8 1807.57 1574.1 1814.57C1574.54 1824.88 1564.73 1833.78 1555.53 1831.59C1545.39 1829.18 1543.28 1815.22 1552.29 1806.97C1555.81 1803.74 1559.45 1803.1 1560.66 1802.94C1565.62 1802.3 1568.43 1804.75 1568.84 1805.06ZM1568.34 1805.78L1568.34 1805.79C1568.32 1805.78 1564.56 1803.25 1559.39 1805.56C1551.31 1809.18 1548.25 1820.7 1554.21 1825.37C1559.65 1829.63 1569.38 1824.6 1571.32 1815.9C1571.99 1812.92 1571.28 1810.54 1571.24 1810.39C1570.48 1807.47 1568.51 1805.93 1568.34 1805.78Z" fill="black"/>
<path fill-rule="evenodd" clip-rule="evenodd" d="M1457.65 1715.64C1447.39 1719.8 1443.53 1734.22 1449.04 1747.83C1454.55 1761.43 1467.36 1769.1 1477.62 1764.95C1487.88 1760.79 1491.73 1746.37 1486.22 1732.77C1480.71 1719.16 1467.91 1711.49 1457.65 1715.64ZM1460.37 1727.03C1466.07 1724.72 1472.98 1728.48 1475.79 1735.43C1478.61 1742.37 1476.26 1749.89 1470.56 1752.2C1464.86 1754.51 1457.95 1750.74 1455.14 1743.79C1452.32 1736.84 1454.67 1729.34 1460.37 1727.03Z" fill="#DED797"/>
<path fill-rule="evenodd" clip-rule="evenodd" d="M1457.48 1715.24C1468.07 1710.66 1479.65 1717.83 1485.76 1728.02C1496.3 1745.61 1489.77 1766.92 1473.68 1768.54C1459 1770.02 1444.71 1753.76 1445.08 1735.81C1445.23 1728.41 1448.18 1718.72 1457.48 1715.24ZM1457.81 1716.04C1457.67 1716.12 1449.83 1719.09 1448.21 1730.37C1445.97 1745.91 1458.07 1763.42 1471.66 1763.52C1482.98 1763.6 1489.81 1750.04 1485.1 1734.97C1482.83 1727.72 1478.15 1721.38 1472.25 1717.91C1464.53 1713.37 1458.46 1715.84 1457.81 1716.05L1457.81 1716.04ZM1460.2 1726.62C1460.24 1726.59 1465.01 1723.83 1471.04 1727.41C1479.91 1732.68 1482.01 1745.75 1475.14 1752.26C1467.58 1759.43 1454.74 1753.57 1452.75 1741.52C1451.98 1736.8 1453.43 1733.41 1453.96 1732.31C1456.13 1727.8 1459.71 1726.79 1460.2 1726.62ZM1460.53 1727.43L1460.53 1727.43C1460.52 1727.44 1456.34 1729.21 1455.45 1734.8C1454.06 1743.55 1462.05 1752.41 1469.22 1749.97C1475.75 1747.74 1476.85 1736.84 1470.63 1730.46C1468.5 1728.28 1466.12 1727.57 1465.98 1727.52C1463.12 1726.56 1460.75 1727.37 1460.53 1727.43Z" fill="black"/>
<path fill-rule="evenodd" clip-rule="evenodd" d="M1401.15 1754.08C1403.89 1762.68 1414.19 1767.08 1424.14 1763.92C1434.09 1760.75 1439.94 1751.19 1437.2 1742.6C1434.46 1734 1424.16 1729.59 1414.21 1732.76C1404.27 1735.92 1398.41 1745.48 1401.15 1754.08ZM1409.43 1752.94C1407.91 1748.16 1410.79 1742.97 1415.87 1741.35C1420.95 1739.74 1426.31 1742.3 1427.83 1747.08C1429.35 1751.85 1426.46 1757.05 1421.38 1758.66C1416.3 1760.28 1410.95 1757.72 1409.43 1752.94Z" fill="#DED797"/>
<path fill-rule="evenodd" clip-rule="evenodd" d="M1400.84 1754.18C1396.35 1741.23 1409.97 1728.23 1424.56 1730.44C1437.78 1732.44 1444.2 1745.96 1436.44 1757.01C1429.79 1766.49 1415.5 1769.17 1406.41 1762.3C1401.86 1758.87 1400.86 1754.24 1400.84 1754.18ZM1401.46 1753.98C1401.62 1754.36 1403.83 1761.33 1412.83 1763.34C1422.8 1765.56 1434.52 1758.94 1435.86 1748.65C1436.81 1741.32 1431.29 1734.05 1421.55 1733.3C1410.96 1732.48 1400.49 1740.73 1400.99 1750.99C1401.07 1752.59 1401.43 1753.82 1401.47 1753.98L1401.46 1753.98ZM1409.11 1753.04C1406.09 1745.03 1414.03 1737.58 1422.19 1739.59C1429.34 1741.34 1432.57 1749.62 1428 1755.77C1423.67 1761.6 1414.73 1761.8 1410.63 1756.29C1409.47 1754.72 1409.14 1753.14 1409.11 1753.04ZM1409.74 1752.84C1413.22 1760.76 1424.16 1758.94 1426.1 1751.86C1427.67 1746.12 1422.09 1740.99 1415.89 1742.82C1411.99 1743.98 1408.71 1747.83 1409.74 1752.84Z" fill="black"/>
<path fill-rule="evenodd" clip-rule="evenodd" d="M1286.81 1822.46C1288.73 1833.36 1295.81 1835.67 1306.55 1833.78C1317.29 1831.9 1324.46 1821.52 1322.55 1810.61C1320.63 1799.71 1313.02 1796.02 1302.28 1797.91C1291.53 1799.79 1284.9 1811.56 1286.81 1822.46ZM1295.58 1822.7C1294.52 1816.64 1297.57 1809.56 1303.06 1808.6C1308.54 1807.64 1311.2 1808.14 1312.26 1814.2C1313.33 1820.25 1309.73 1825.95 1304.25 1826.91C1298.76 1827.88 1296.65 1828.75 1295.58 1822.7Z" fill="#DED797"/>
<path fill-rule="evenodd" clip-rule="evenodd" d="M1286.45 1822.52C1286.19 1821.26 1284.45 1813.73 1289.31 1805.59C1291.94 1801.19 1296.38 1797.49 1302 1796.34C1322.16 1792.21 1326.25 1808.68 1324.7 1817.71C1323.28 1826.01 1316.68 1834.01 1306.38 1835.32C1300.12 1836.12 1295.12 1835.53 1291.65 1832.95C1287.3 1829.7 1286.67 1824.04 1286.45 1822.52ZM1287.18 1822.39C1288.68 1828.53 1291.58 1834.35 1302.81 1832.91C1306.36 1832.46 1313.21 1831.41 1317.79 1824.28C1322.84 1816.41 1320.51 1806.83 1316.81 1802.88C1315.98 1801.99 1312.11 1797.87 1302.09 1799.55C1301.16 1799.71 1296.1 1800.55 1291.94 1805.63C1285.68 1813.28 1287.13 1821.99 1287.18 1822.39ZM1295.22 1822.76C1295.2 1822.68 1293.67 1817.81 1296.05 1812.65C1298.55 1807.22 1302.86 1806.73 1305.02 1806.4C1311.33 1805.42 1313.69 1809.03 1314.44 1814.15C1315.35 1820.36 1311.39 1827.39 1304.48 1828.19C1299.87 1828.73 1298.46 1828.67 1297.26 1827.85C1295.64 1826.74 1295.38 1824.39 1295.22 1822.76ZM1295.95 1822.63C1297.09 1826.73 1297.96 1827.13 1301.14 1826.37C1304.61 1825.54 1305.23 1825.22 1305.56 1825.06C1308.64 1823.49 1311.49 1819.44 1309.88 1813.41C1309.13 1810.61 1308.44 1810.01 1304.98 1810.21C1303.01 1810.32 1300.64 1810.44 1298.34 1813.64C1297.07 1815.4 1296.52 1817.47 1296.47 1817.66C1295.72 1820.26 1295.93 1822.33 1295.95 1822.63L1295.95 1822.63Z" fill="black"/>
<path fill-rule="evenodd" clip-rule="evenodd" d="M1272.7 1855.73C1272.36 1863.81 1273.27 1870.51 1280.25 1870.8C1287.24 1871.1 1293.18 1864.78 1293.52 1856.7C1293.85 1848.62 1293.25 1839.8 1286.26 1839.51C1279.28 1839.22 1273.04 1847.66 1272.7 1855.73ZM1278.15 1857.24C1278.34 1852.75 1281.69 1847.11 1285.25 1847.26C1288.82 1847.41 1286.77 1853.2 1286.58 1857.69C1286.39 1862.18 1283.35 1865.7 1279.78 1865.55C1276.21 1865.4 1277.96 1861.72 1278.15 1857.24Z" fill="#DED797"/>
<path fill-rule="evenodd" clip-rule="evenodd" d="M1272.44 1855.72C1272.44 1855.71 1272.2 1850.05 1276.08 1844.5C1281.13 1837.29 1288.88 1836.71 1292.31 1841.51C1293.04 1842.53 1295.6 1846.13 1295 1856.97C1294.41 1867.38 1285.38 1873.75 1277.91 1871.41C1271.41 1869.37 1272.05 1860.55 1272.44 1855.72ZM1272.95 1855.74C1273.01 1863.34 1273.84 1870.67 1281.61 1869.69C1286.23 1869.11 1291.74 1864.77 1292.04 1856.27C1292.31 1848.63 1292.14 1839.81 1284.8 1840.63C1279.97 1841.17 1273.89 1846.91 1272.95 1855.74ZM1277.89 1857.23C1277.79 1850.97 1282.05 1845.26 1286.09 1846.14C1290.01 1847 1288.5 1853.1 1288.11 1856.96C1288.07 1857.36 1288.1 1862.25 1284.32 1865.1C1281.6 1867.14 1277.66 1867 1276.99 1864.49C1276.55 1862.85 1277.36 1861.03 1277.89 1857.23ZM1278.4 1857.25C1278.46 1862.73 1277.23 1865.08 1280.36 1864.58C1282.91 1864.17 1285 1861.4 1285.12 1857.81C1285.25 1853.47 1286.47 1849.9 1285.73 1848.71C1285.35 1848.1 1282.26 1848.12 1279.63 1853.34C1278.75 1855.09 1278.45 1856.93 1278.4 1857.25Z" fill="black"/>
<path fill-rule="evenodd" clip-rule="evenodd" d="M1289.33 1889.93C1291.92 1895.47 1295.11 1899.27 1298.9 1897.5C1302.69 1895.73 1303.67 1889.8 1301.09 1884.25C1298.5 1878.71 1295.3 1874.06 1291.51 1875.83C1287.72 1877.6 1286.75 1884.38 1289.33 1889.93ZM1292.73 1889.41C1291.29 1886.33 1291.8 1882.23 1293.74 1881.33C1295.67 1880.42 1296.32 1883.79 1297.76 1886.87C1299.19 1889.95 1298.79 1893.19 1296.85 1894.09C1294.92 1894.99 1294.17 1892.49 1292.73 1889.41Z" fill="#DED797"/>
<path fill-rule="evenodd" clip-rule="evenodd" d="M1289.17 1890.01C1285.44 1882.43 1288.13 1875.16 1292.85 1874.67C1297.53 1874.18 1301.1 1881.89 1302.03 1883.82C1305.11 1890.26 1303.14 1897.82 1297.79 1898.57C1292.88 1899.26 1289.9 1891.72 1289.17 1890.01ZM1289.49 1889.85C1290.3 1891.36 1294.71 1900.21 1299.42 1896.29C1302.11 1894.05 1302.13 1889 1300.26 1884.93C1298.25 1880.55 1294.78 1873.77 1290.77 1877.17C1288.84 1878.81 1287.03 1883.61 1289.49 1889.85ZM1292.57 1889.49C1289.9 1884.46 1292.16 1879.9 1294.73 1880.35C1296.33 1880.63 1296.99 1882.39 1298.76 1886.6C1300.7 1891.22 1298.61 1894.99 1296.1 1894.89C1294.34 1894.82 1293.69 1892.56 1292.57 1889.49ZM1292.89 1889.34C1294.67 1892.57 1295.53 1894.65 1296.97 1893.18C1298.05 1892.08 1297.92 1889.63 1296.95 1887.56C1295.42 1884.3 1295.1 1882.44 1294.4 1882.06C1293.85 1881.75 1292.12 1883.44 1292.41 1887.07C1292.51 1888.34 1292.86 1889.26 1292.89 1889.34Z" fill="black"/>
<path fill-rule="evenodd" clip-rule="evenodd" d="M1302.68 1919.51C1307.9 1922.79 1312.86 1923.98 1315.68 1919.49C1318.49 1915 1316.54 1908.7 1311.32 1905.42C1306.1 1902.14 1300.73 1900.16 1297.91 1904.65C1295.09 1909.13 1297.46 1916.23 1302.68 1919.51ZM1305.73 1916.49C1302.83 1914.67 1301.32 1910.44 1302.76 1908.15C1304.2 1905.86 1306.47 1908.54 1309.37 1910.36C1312.27 1912.18 1313.46 1915.52 1312.02 1917.81C1310.58 1920.1 1308.63 1918.31 1305.73 1916.49Z" fill="#DED797"/>
<path fill-rule="evenodd" clip-rule="evenodd" d="M1302.58 1919.67C1302.54 1919.65 1298.56 1917.62 1296.77 1912.7C1294.61 1906.79 1297.41 1900.62 1303.37 1901.07C1306.88 1901.34 1312.11 1904.05 1314.52 1906.58C1319.43 1911.73 1318.64 1918.9 1314.47 1921.89C1310.09 1925.02 1303.94 1920.59 1302.58 1919.67ZM1302.79 1919.34C1305.41 1920.78 1312.83 1924.88 1315.52 1917.97C1316.64 1915.07 1316.16 1909.78 1310.48 1906.23C1305.94 1903.4 1300.2 1900.63 1297.9 1906.46C1296.76 1909.36 1297.22 1915.31 1302.79 1919.34L1302.79 1919.34ZM1305.63 1916.65C1301.04 1914.13 1300.36 1908.28 1302.92 1906.63C1304.86 1905.38 1307.05 1907.44 1310.12 1909.51C1313.83 1912 1314.49 1916.78 1311.98 1918.91C1310.18 1920.45 1308.13 1918.56 1305.63 1916.65ZM1305.83 1916.33L1305.83 1916.32C1309.24 1918.17 1310.81 1919.35 1311.61 1916.96C1312.28 1914.98 1310.92 1912.67 1309 1911.46C1305.93 1909.52 1304.87 1908.2 1304.01 1908.26C1303.27 1908.31 1302.07 1911.03 1304.09 1914.36C1304.84 1915.6 1305.69 1916.21 1305.83 1916.33Z" fill="black"/>
<path fill-rule="evenodd" clip-rule="evenodd" d="M1335.02 1782.51C1328.7 1786.76 1325.17 1792.22 1329.82 1799.13C1334.48 1806.05 1343.38 1808.22 1349.71 1803.97C1356.03 1799.72 1360.74 1794.31 1356.09 1787.39C1351.44 1780.48 1341.35 1778.26 1335.02 1782.51ZM1337.69 1788.64C1341.2 1786.27 1347.26 1787.47 1349.63 1791C1352.01 1794.54 1347.64 1795.46 1344.12 1797.82C1340.61 1800.18 1335.83 1799.23 1333.46 1795.7C1331.08 1792.17 1334.17 1791 1337.69 1788.64Z" fill="#DED797"/>
<path fill-rule="evenodd" clip-rule="evenodd" d="M1334.87 1782.29C1342.67 1776.74 1354.67 1780.78 1358.43 1789.14C1362.23 1797.61 1352.48 1803.98 1350.59 1805.28C1343.58 1810.07 1332.97 1807.45 1328.3 1798.7C1323.18 1789.1 1333.03 1783.43 1334.87 1782.29ZM1335.17 1782.74C1330.39 1786.36 1325.08 1791.9 1331.53 1799.51C1335.53 1804.24 1342.9 1806.58 1348.83 1802.66C1357.01 1797.24 1358.62 1792.49 1354.3 1786.87C1350.66 1782.11 1342.28 1778.62 1335.17 1782.74ZM1337.54 1788.41C1342.27 1784.85 1349.67 1787.28 1351.42 1791.55C1352.89 1795.12 1348.38 1797.14 1346.58 1798.18C1344.83 1799.18 1342.77 1800.88 1339.17 1800.48C1334.32 1799.94 1330.93 1795.23 1332.02 1792.51C1332.7 1790.8 1334.85 1789.89 1337.54 1788.41ZM1337.84 1788.86C1334.06 1791.81 1332.1 1792.66 1334.5 1795.42C1336.81 1798.08 1340.56 1798.31 1342.99 1796.7C1346.67 1794.25 1348.04 1794.14 1348.78 1793.11C1349.33 1792.36 1347.96 1790.66 1346.85 1789.85C1344.3 1788.01 1340.71 1787.38 1337.84 1788.86Z" fill="black"/>
<path fill-rule="evenodd" clip-rule="evenodd" d="M1371.21 761.096C1471.22 719.596 1524.27 476.955 1483.09 432.733C1448.02 395.082 1365.12 406.407 1325.11 448.015C1313.74 459.833 1320.19 543.158 1323.36 558.012C1326.71 573.652 1317.35 593.345 1300.14 590.895C1262.85 585.576 1188.11 557.69 1152.49 557.298C1100.68 556.728 1054.81 568.853 1028.02 612.697C979.086 696.224 973.02 792.088 1005.41 836.269C1025.3 863.393 1034.8 866.705 1059.19 893.253C1099.67 937.305 1127.82 1009 1183.05 1019.18C1237.93 1029.31 1334.95 960.585 1374.88 945.997C1395.66 938.405 1421.83 966.638 1446.03 981.223C1460.93 990.2 1488.1 1008.81 1514.81 996.964C1529.4 990.498 1632.5 1016.44 1623.76 1011.05C1602.43 997.919 1537.53 961.729 1507.83 973.668C1489.21 981.153 1470.7 964.433 1462.41 955.104C1437.16 926.689 1405.83 889.098 1377.4 892.673C1341.16 897.227 1218.74 959.646 1203.79 955.085C1167.15 943.918 1129.43 875.754 1087.82 811.687C1071.88 787.153 1108.53 666.906 1119.14 661.672C1126.82 657.882 1180.69 680.511 1189.33 683.858C1226.45 698.242 1254.1 737.953 1279.22 747.036C1314.95 759.943 1353.58 768.408 1371.21 761.096Z" fill="#2AB6E9" stroke="#007199" stroke-width="10.004" stroke-miterlimit="2" stroke-linejoin="round"/>
<path fill-rule="evenodd" clip-rule="evenodd" d="M1049.74 606.077L1052.3 583.821C971.376 620.423 892.107 746.536 933.283 829.499L1028.44 888.025C1028.44 888.025 1061.31 1016.79 1091.47 1038.49C1100.64 1045.1 1165.24 1070.78 1216.7 1063.05C1298.05 1050.85 1376.23 1000.08 1376.23 1000.08C1373.59 999.538 1369.02 993.576 1362.47 987.64C1354.88 980.766 1407.72 946.002 1385.36 943.873C1334.67 939.047 1223.4 1023.29 1186.18 1007.83C1130.49 984.72 1100.91 925.09 1068.75 875.127C1010.35 808.866 988.177 726.305 1049.74 606.077Z" fill="black" fill-opacity="0.3"/>
<path fill-rule="evenodd" clip-rule="evenodd" d="M1363.59 416.514C1344.82 422.652 1322.58 440.444 1317.98 449.168C1316.09 452.752 1305.94 438.904 1303.4 440.899C1267.17 469.365 1263.27 529.741 1272.95 578.296C1307 599.038 1325.47 582.645 1338.89 566.915C1328.8 517.67 1345.9 461.928 1363.59 416.514Z" fill="black" fill-opacity="0.4"/>
<path fill-rule="evenodd" clip-rule="evenodd" d="M1463.1 618.895C1467.81 586.417 1468 533.133 1460.23 501.673C1454.64 479.033 1432.01 470.697 1420.14 448.387C1420.14 448.387 1468.49 473.123 1473.65 500.321C1478.79 527.52 1463.1 618.895 1463.1 618.895Z" fill="white"/>
<path fill-rule="evenodd" clip-rule="evenodd" d="M1388.02 721.999C1395.52 731.785 1407.83 720.124 1429.01 703.9C1450.2 687.677 1466.76 659.027 1459.26 649.242C1451.77 639.457 1428.29 649.723 1407.1 665.946C1385.92 682.164 1380.53 712.215 1388.02 721.999ZM1400.91 708.252C1396.75 702.816 1403.18 687.414 1414 679.132C1424.81 670.849 1435.2 666.382 1439.37 671.817C1443.53 677.253 1437.82 687.547 1427.01 695.83C1416.19 704.112 1405.07 713.688 1400.91 708.252Z" fill="#DED797"/>
<path fill-rule="evenodd" clip-rule="evenodd" d="M1387.46 722.434C1387.43 722.395 1382.3 717.135 1383.87 703.08C1385.07 692.344 1390.54 675.663 1405.29 663.583C1422.21 649.724 1449.37 633.784 1461.29 645.34C1472.58 656.294 1457.48 682.923 1438.31 699.929C1433.79 703.937 1432.24 704.862 1422.91 711.576C1413.43 718.388 1405.24 724.326 1398.8 726.093C1391.92 727.982 1388.96 724.481 1387.46 722.434ZM1388.58 721.577C1392.32 725.818 1396.65 726.174 1407.07 718.418C1412.78 714.164 1416.57 710.753 1427.37 701.77C1446.97 685.473 1459.4 661.354 1456.64 652.987C1454.11 645.351 1435 650.39 1412.41 665.854C1408.76 668.358 1400.35 673.653 1393.42 685.681C1389.39 692.702 1387.01 700.169 1386.27 706.673C1385.09 717.057 1388.3 721.143 1388.58 721.572L1388.58 721.577ZM1400.34 708.683C1395.52 702.906 1400.64 689.082 1407.83 680.747C1412.28 675.59 1419.18 670.779 1423.53 668.497C1424.51 667.982 1435.55 661.668 1441.95 668.52C1447.9 674.916 1444.32 686.257 1431.37 696.211C1430.67 696.747 1419.83 704.438 1413.69 707.78C1406.6 711.644 1402.58 711.825 1400.34 708.683ZM1401.46 707.824C1403.03 709.353 1405.57 710.2 1414.47 702.942C1416.09 701.617 1425.53 693.47 1428.09 690.939C1436.6 682.507 1438.99 674.076 1434.58 673.56C1429.09 672.915 1416.66 680.718 1412.47 684.399C1407.13 689.081 1403.67 694.481 1401.92 699.017C1399.56 705.104 1401.31 707.553 1401.46 707.824Z" fill="black"/>
<path fill-rule="evenodd" clip-rule="evenodd" d="M1310.73 745.006C1312.8 758.276 1331.93 766.332 1353.43 762.983C1374.92 759.636 1390.7 746.143 1388.64 732.874C1386.57 719.604 1367.43 711.55 1345.94 714.897C1324.44 718.245 1308.66 731.736 1310.73 745.006ZM1328 744.466C1326.85 737.094 1334.83 729.722 1345.81 728.012C1356.78 726.303 1366.63 730.899 1367.78 738.271C1368.92 745.643 1360.94 753.015 1349.97 754.725C1338.99 756.434 1329.14 751.838 1328 744.466Z" fill="#DED797"/>
<path fill-rule="evenodd" clip-rule="evenodd" d="M1310.12 745.102C1310.06 744.736 1307.22 734.434 1320.11 723.77C1337.87 709.085 1369.65 706.95 1384.95 720.012C1396.84 730.17 1394.92 747.486 1375.87 758.501C1361.14 767.013 1338.92 768.919 1323.45 761.311C1321.63 760.416 1317.46 758.177 1314.25 754.348C1310.65 750.052 1310.26 746.145 1310.12 745.102ZM1311.34 744.912C1311.42 745.29 1312.59 754.958 1327.57 759.529C1347.36 765.569 1374.74 756.958 1383.05 742.673C1393.06 725.463 1367.31 712.248 1340.15 718.407C1332.52 720.136 1324.57 723.502 1318.74 728.773C1310.05 736.626 1311.25 744.017 1311.34 744.912ZM1328.21 744.434L1327.39 744.561C1324.85 732.932 1342.05 721.977 1357.66 725.314C1367.66 727.453 1373.74 735.47 1370.65 744.011C1366.47 755.539 1347.61 761.163 1334.87 754.442C1330.9 752.351 1329.26 749.686 1328.93 749.145C1327.57 746.926 1327.44 745.042 1327.39 744.565L1328.21 744.434ZM1328.59 744.372L1328.6 744.37C1328.87 745.332 1329.72 748.834 1334.88 751.235C1342.88 754.951 1355.86 752.467 1361.89 745.51C1365.81 740.993 1365.19 735.663 1358.44 732.489C1350.01 728.532 1335.89 730.57 1330.35 738.47C1328.31 741.378 1328.59 744.106 1328.59 744.372Z" fill="black"/>
<path fill-rule="evenodd" clip-rule="evenodd" d="M1429.41 715.975C1429.41 715.975 1366.05 754.234 1341.61 749.25C1307.69 742.336 1211.77 686.031 1211.77 686.031L1141.67 657.615L1120.35 663.795C1120.35 663.795 1159.24 684.698 1181.41 712.923C1214.29 754.768 1253.01 804.318 1328.15 797.816C1374.77 793.781 1429.41 715.975 1429.41 715.975Z" fill="black" fill-opacity="0.4"/>
<path fill-rule="evenodd" clip-rule="evenodd" d="M1180.81 667.033C1176.13 681.834 1188.21 698.875 1207.75 705.058C1227.31 711.245 1246.98 704.249 1251.66 689.447C1256.35 674.646 1241.87 663.822 1222.32 657.639C1202.77 651.452 1185.5 652.232 1180.81 667.033ZM1195.49 674.249C1198.09 666.027 1205.89 668.129 1215.88 671.288C1225.86 674.446 1234.26 677.469 1231.65 685.691C1229.05 693.914 1218.84 698.025 1208.85 694.867C1198.87 691.709 1192.88 682.471 1195.49 674.249Z" fill="#DED797"/>
<path fill-rule="evenodd" clip-rule="evenodd" d="M1180.22 666.848C1181.02 664.111 1184.81 648.507 1213.33 653.138C1214.73 653.366 1225.26 655.137 1235.51 659.831C1253.03 667.851 1255.83 677.808 1256.04 683.527C1256.44 694.277 1247.66 708.186 1227.34 710.277C1217.19 711.321 1201.88 708.467 1190.25 697.749C1183.16 691.214 1180.91 684.822 1180.31 683.041C1177.4 674.463 1179.72 668.315 1180.22 666.848ZM1181.4 667.221C1181.29 667.63 1177.81 678.068 1187.5 689.497C1200.44 704.755 1226.62 708.888 1240.96 698.219C1247.38 693.438 1250.77 685.694 1248.14 678.934C1243.13 666.041 1217.61 657.231 1204.86 655.877C1186.82 653.962 1182.76 663.675 1181.4 667.217L1181.4 667.221ZM1194.9 674.062C1197.13 664.767 1205.99 666.423 1215.68 668.642C1226.53 671.127 1229.72 673.414 1230.76 674.161C1239.06 680.102 1235.38 689.461 1230.57 693.877C1220.77 702.85 1202.59 699.47 1195.89 686.927C1193.82 683.035 1193.88 679.642 1193.89 678.987C1193.95 676.347 1194.72 674.518 1194.9 674.062ZM1196.07 674.431C1196.05 674.538 1193.99 681.7 1201.05 687.986C1208.37 694.512 1221.14 694.91 1226.72 687.533C1227.52 686.479 1229.37 683.257 1228.23 681.132C1226.77 678.41 1221.75 676.232 1212.03 672.487C1207.51 670.743 1203.72 669.604 1200.81 670.104C1197.61 670.655 1196.46 673.592 1196.07 674.431Z" fill="black"/>
<path fill-rule="evenodd" clip-rule="evenodd" d="M1251.26 698.726C1249.93 714.193 1260.97 727.798 1275.91 729.089C1290.85 730.38 1304.06 718.871 1305.39 703.403C1306.73 687.937 1293.41 680.07 1278.47 678.779C1263.53 677.489 1252.6 683.26 1251.26 698.726ZM1262.82 702.189C1263.56 693.597 1268.08 692.894 1275.71 693.553C1283.34 694.212 1291.2 695.985 1290.46 704.577C1289.72 713.169 1282.92 719.609 1275.3 718.95C1267.67 718.291 1262.08 710.78 1262.82 702.189Z" fill="#DED797"/>
<path fill-rule="evenodd" clip-rule="evenodd" d="M1250.75 698.682C1250.9 695.892 1251.26 679.54 1270.99 677.032C1283.21 675.479 1304.08 679.455 1307.9 696.43C1310.11 706.219 1305.79 720.774 1292.82 727.984C1279.66 735.297 1262.5 731.226 1254.4 717.243C1249.32 708.473 1250.58 700.044 1250.75 698.682ZM1251.77 698.772C1251.77 698.831 1250.73 710.426 1259.71 719.435C1271.27 731.043 1290.29 728.706 1298.78 714.358C1301.92 709.057 1304.82 699.217 1299.85 691.671C1293.15 681.497 1274.83 678.646 1265.18 681.462C1254.12 684.694 1252.35 694.666 1251.78 698.772L1251.77 698.772ZM1262.31 702.144C1262.4 696.65 1263.78 692.434 1271.41 691.687C1272.21 691.608 1279.71 691.04 1285.12 692.781C1297.04 696.616 1293.89 709.156 1289.94 714.424C1281.33 725.925 1265.52 722.12 1262.5 709.001C1261.71 705.573 1262.21 702.86 1262.31 702.144ZM1263.34 702.235C1263.34 702.41 1263.09 708.699 1267.62 713.271C1273.9 719.612 1283.81 717.091 1286.83 707.509C1286.89 707.303 1288.11 703.445 1287.17 701.022C1285.98 697.942 1281.62 696.407 1273.87 695.309C1266.85 694.315 1264.55 695.897 1263.34 702.233L1263.34 702.235Z" fill="black"/>
<path fill-rule="evenodd" clip-rule="evenodd" d="M1111.19 661.351C1120.41 668.418 1135.14 664.708 1144.05 653.079C1152.96 641.444 1152.71 626.264 1143.49 619.197C1134.27 612.13 1119.55 615.835 1110.63 627.47C1101.72 639.1 1101.97 654.284 1111.19 661.351ZM1119.67 653.298C1114.55 649.372 1114.08 641.367 1118.63 635.428C1123.19 629.488 1131.04 627.852 1136.16 631.778C1141.29 635.704 1141.75 643.714 1137.2 649.653C1132.65 655.593 1124.79 657.224 1119.67 653.298Z" fill="#DED797"/>
<path fill-rule="evenodd" clip-rule="evenodd" d="M1110.91 661.707C1101.27 654.674 1101.26 641.268 1106.28 631.203C1114.8 614.11 1135.07 607.708 1146.51 618.327C1156.33 627.447 1155.01 645.541 1142.69 657.399C1133.76 665.991 1120.42 668.932 1111.57 662.229C1111.51 662.188 1111.52 662.187 1110.91 661.707ZM1111.46 660.996C1111.58 661.082 1118.36 666.5 1129.01 662.546C1143.42 657.204 1152.08 639.087 1146.37 626.901C1140.63 614.643 1123.4 615.308 1112.48 628.068C1108.09 633.197 1105.43 639.597 1105.23 645.827C1104.89 656.011 1111.08 660.67 1111.46 660.995L1111.46 660.996ZM1119.4 653.658C1118.65 653.136 1114.61 650.577 1114.23 644.188C1113.69 635.186 1121.61 626.603 1130.82 627.13C1139.9 627.652 1145.39 637.22 1141.27 646.568C1137.22 655.762 1126.09 659.273 1119.64 653.864C1119.56 653.795 1119.48 653.722 1119.4 653.658ZM1119.94 652.947L1119.94 652.942C1120.46 653.256 1123.93 655.643 1129.08 653.858C1137.12 651.074 1141.12 640.061 1135.26 634.42C1130.48 629.829 1121.23 632.463 1117.77 640.376C1116.26 643.817 1116.84 646.877 1116.85 646.959C1117.35 650.74 1119.8 652.809 1119.94 652.947Z" fill="black"/>
<path fill-rule="evenodd" clip-rule="evenodd" d="M1046.65 697.588C1053.64 713.68 1073.73 720.483 1091.48 712.775C1109.23 705.063 1117.97 685.74 1110.98 669.648C1103.99 653.556 1083.91 646.75 1066.15 654.462C1048.4 662.17 1039.66 681.496 1046.65 697.588ZM1061.75 694.053C1057.86 685.114 1062.07 674.664 1071.13 670.727C1080.2 666.79 1090.71 670.851 1094.59 679.79C1098.47 688.729 1094.26 699.183 1085.2 703.12C1076.13 707.057 1065.63 702.993 1061.75 694.053Z" fill="#DED797"/>
<path fill-rule="evenodd" clip-rule="evenodd" d="M1046.08 697.836C1045.95 697.575 1039.11 685.234 1046.72 669.916C1056.97 649.266 1084.69 641.641 1103.43 654.884C1117.75 665.009 1121.33 684.336 1111.25 700.021C1101.17 715.689 1079.93 722.738 1062.54 714.917C1050.12 709.337 1046.51 698.928 1046.08 697.836ZM1047.21 697.344C1047.49 697.882 1052.33 709.118 1066.68 712.795C1085.05 717.505 1104.78 705.708 1108.99 688.215C1113.21 670.706 1100.35 654.862 1081.33 654.256C1061.53 653.625 1043.89 670.102 1045.41 689.355C1045.73 693.555 1046.93 696.549 1047.22 697.338L1047.21 697.344ZM1061.17 694.304C1054.03 680.479 1065.73 664.617 1081.33 666.213C1094.72 667.581 1103.51 681.494 1097.76 694.54C1092.32 706.88 1076.33 710.725 1066.31 701.914C1062.83 698.864 1061.6 695.479 1061.17 694.304ZM1062.31 693.809L1062.32 693.806C1062.35 693.87 1065.38 700.331 1073.05 702.159C1080.74 703.994 1088.29 699.94 1091.14 693.583C1091.64 692.484 1093.81 687.907 1091.53 681.904C1087.82 672.174 1075.02 668.872 1066.62 676.572C1063.09 679.804 1062.1 683.965 1062.08 684.063C1060.6 689.115 1062.18 693.382 1062.31 693.809Z" fill="black"/>
<path fill-rule="evenodd" clip-rule="evenodd" d="M1383.27 921.818C1385.42 926.751 1392.43 928.464 1398.93 925.643C1405.43 922.82 1408.96 916.525 1406.82 911.592C1404.68 906.659 1397.66 904.945 1391.17 907.768C1384.67 910.589 1381.13 916.885 1383.27 921.818ZM1388.73 920.373C1387.54 917.633 1389.27 914.24 1392.59 912.799C1395.91 911.358 1399.57 912.413 1400.76 915.153C1401.95 917.893 1400.22 921.288 1396.9 922.729C1393.58 924.169 1389.92 923.114 1388.73 920.373Z" fill="#DED797"/>
<path fill-rule="evenodd" clip-rule="evenodd" d="M1383.08 921.904C1383.07 921.888 1380.84 917.995 1384.02 912.866C1388.98 904.882 1401.68 902.581 1406.94 909.355C1411.51 915.252 1406.69 924.743 1397.18 927.181C1394.71 927.813 1391.58 927.986 1388.66 926.971C1384.21 925.425 1383.13 922.026 1383.08 921.904ZM1383.47 921.734C1387.33 929.147 1400 927.011 1404.72 919.487C1408.89 912.847 1403.88 906.623 1395.58 907.534C1387.62 908.407 1381.27 915.426 1383.39 921.504C1383.41 921.581 1383.44 921.657 1383.47 921.734ZM1388.54 920.459C1385.82 914.949 1393.42 908.856 1399.23 911.833C1403.71 914.135 1403.28 920.417 1398.26 923.065C1394.83 924.873 1390.01 924.276 1388.54 920.459ZM1388.93 920.291L1388.93 920.289C1391.53 924.816 1398.98 922.504 1399.86 917.845C1400.62 913.861 1395.34 911.702 1391.27 914.501C1390.74 914.861 1389.62 915.742 1389.02 917.285C1388.42 918.866 1388.87 920.076 1388.93 920.291Z" fill="black"/>
<path fill-rule="evenodd" clip-rule="evenodd" d="M1041.82 768.889C1046.23 779.042 1060.74 782.537 1074.2 776.691C1087.67 770.843 1095.02 757.853 1090.61 747.7C1086.2 737.546 1071.69 734.049 1058.23 739.897C1044.76 745.743 1037.41 758.735 1041.82 768.889ZM1053.13 765.884C1050.68 760.244 1054.27 753.243 1061.14 750.257C1068.02 747.272 1075.59 749.427 1078.04 755.067C1080.49 760.707 1076.9 767.711 1070.02 770.696C1063.15 773.682 1055.58 771.525 1053.13 765.884Z" fill="#DED797"/>
<path fill-rule="evenodd" clip-rule="evenodd" d="M1041.42 769.064C1036.58 758.592 1043.45 746.838 1053.49 740.482C1070.82 729.505 1092.28 735.506 1094.3 751.545C1096.15 766.181 1080.24 780.874 1062.29 780.952C1054.89 780.984 1045.13 778.279 1041.42 769.064ZM1042.21 768.719C1042.29 768.854 1045.46 776.622 1056.77 777.96C1072.37 779.806 1089.57 767.28 1089.33 753.691C1089.13 742.376 1075.4 735.878 1060.45 740.967C1053.27 743.413 1047.04 748.253 1043.72 754.24C1039.38 762.067 1041.99 768.072 1042.22 768.714L1042.21 768.719ZM1052.72 766.062C1052.7 766.021 1049.82 761.323 1053.25 755.208C1058.29 746.21 1071.31 743.79 1077.99 750.489C1085.34 757.869 1079.8 770.855 1067.81 773.14C1063.11 774.034 1059.69 772.667 1058.57 772.165C1054.01 770.106 1052.91 766.546 1052.72 766.062ZM1053.52 765.714L1053.53 765.711C1053.54 765.725 1055.41 769.855 1061.03 770.606C1069.8 771.778 1078.46 763.577 1075.85 756.472C1073.46 749.991 1062.53 749.162 1056.31 755.542C1054.18 757.725 1053.53 760.123 1053.48 760.269C1052.6 763.151 1053.46 765.494 1053.52 765.714Z" fill="black"/>
<path fill-rule="evenodd" clip-rule="evenodd" d="M1090.28 829.635C1096.78 827.385 1098.92 816.502 1095.06 805.355C1091.2 794.203 1082.79 786.98 1076.29 789.231C1069.79 791.481 1067.64 802.359 1071.5 813.511C1075.36 824.658 1083.77 831.886 1090.28 829.635ZM1088.26 820.49C1084.65 821.74 1080.12 818.137 1078.15 812.444C1076.18 806.751 1077.51 801.113 1081.12 799.863C1084.73 798.613 1089.27 802.22 1091.24 807.913C1093.21 813.606 1091.87 819.24 1088.26 820.49Z" fill="#DED797"/>
<path fill-rule="evenodd" clip-rule="evenodd" d="M1090.17 829.334L1090.38 829.946C1089.08 830.406 1085.86 831.45 1080.95 828.302C1070.74 821.764 1064.46 803.06 1069.99 792.565C1074.09 784.784 1083.61 784.793 1090.93 794.198C1096.02 800.73 1098.6 810.07 1097.9 817.62C1096.9 828.323 1090.8 829.805 1090.39 829.954L1090.17 829.334C1090.86 829.017 1095.35 827.4 1095.95 818.82C1096.78 807.045 1088.28 792.03 1079.68 790.787C1070.66 789.484 1068.02 806.801 1075.9 820.281C1078.11 824.062 1080.85 826.863 1083.59 828.352C1087.14 830.283 1089.59 829.478 1090.17 829.325L1090.17 829.334ZM1088.37 820.799C1083.15 822.843 1077.47 816.647 1075.98 810.347C1073.42 799.575 1082.07 793.743 1088.82 800.819C1094.13 806.388 1094.7 817.048 1089.69 820.228C1089.18 820.549 1088.48 820.766 1088.37 820.799ZM1088.15 820.18C1093.85 817.451 1090.87 805.459 1084.98 802.173C1078.31 798.452 1076.81 810.995 1082.25 817.507C1082.52 817.826 1083.62 819.115 1085.1 819.81C1086.71 820.567 1087.89 820.238 1088.15 820.18Z" fill="black"/>
<path fill-rule="evenodd" clip-rule="evenodd" d="M1214.53 986.803C1225.38 984.619 1227.51 977.482 1225.36 966.791C1223.21 956.097 1212.65 949.19 1201.8 951.373C1190.95 953.557 1187.45 961.265 1189.6 971.955C1191.75 982.65 1203.68 988.986 1214.53 986.803ZM1214.55 978.028C1208.52 979.241 1201.37 976.368 1200.27 970.908C1199.17 965.448 1199.61 962.779 1205.63 961.566C1211.66 960.353 1217.45 963.801 1218.55 969.261C1219.65 974.721 1220.58 976.815 1214.55 978.028Z" fill="#DED797"/>
<path fill-rule="evenodd" clip-rule="evenodd" d="M1214.6 987.168C1213.35 987.46 1205.86 989.381 1197.6 984.722C1193.14 982.204 1189.33 977.864 1188.04 972.275C1183.41 952.222 1199.77 947.717 1208.84 949.044C1217.17 950.263 1225.33 956.658 1226.9 966.927C1227.86 973.162 1227.39 978.178 1224.89 981.704C1221.76 986.135 1216.12 986.908 1214.6 987.168ZM1214.45 986.438C1220.55 984.785 1226.3 981.738 1224.58 970.55C1224.04 967.018 1222.82 960.188 1215.58 955.792C1207.58 950.942 1198.06 953.503 1194.2 957.302C1193.35 958.151 1189.32 962.121 1191.25 972.097C1191.43 973.027 1192.4 978.066 1197.58 982.092C1205.38 988.166 1214.05 986.494 1214.45 986.438ZM1214.62 978.394C1214.54 978.418 1209.71 980.065 1204.5 977.817C1199 975.449 1198.41 971.151 1198.02 969.005C1196.88 962.718 1200.43 960.274 1205.54 959.392C1211.72 958.325 1218.85 962.113 1219.82 968.996C1220.47 973.597 1220.45 975.005 1219.66 976.228C1218.59 977.873 1216.25 978.19 1214.62 978.394ZM1214.48 977.664C1218.54 976.422 1218.92 975.543 1218.08 972.379C1217.16 968.931 1216.83 968.322 1216.66 967.995C1215.02 964.953 1210.89 962.207 1204.91 963.968C1202.12 964.784 1201.55 965.492 1201.83 968.944C1201.99 970.915 1202.17 973.285 1205.42 975.503C1207.22 976.727 1209.3 977.226 1209.49 977.272C1212.11 977.955 1214.17 977.689 1214.47 977.664L1214.48 977.664Z" fill="black"/>
<path fill-rule="evenodd" clip-rule="evenodd" d="M1349.64 928.589C1357.27 925.925 1363.17 922.608 1360.87 916.01C1358.56 909.41 1350.5 906.216 1342.86 908.881C1335.23 911.546 1327.26 915.362 1329.56 921.963C1331.87 928.561 1342.01 931.254 1349.64 928.589ZM1349.03 922.968C1344.79 924.449 1338.32 923.414 1337.14 920.045C1335.96 916.675 1342.1 916.444 1346.34 914.963C1350.58 913.483 1354.98 915.017 1356.15 918.387C1357.33 921.757 1353.27 921.488 1349.03 922.968Z" fill="#DED797"/>
<path fill-rule="evenodd" clip-rule="evenodd" d="M1349.73 928.83C1349.71 928.837 1344.54 931.149 1337.95 929.583C1329.39 927.55 1325.99 920.558 1329.19 915.606C1329.87 914.552 1332.26 910.84 1342.57 907.407C1352.46 904.109 1361.71 910.16 1362.29 917.965C1362.8 924.757 1354.36 927.417 1349.73 928.83ZM1349.56 928.348C1356.6 925.494 1363.1 922.017 1359.33 915.158C1357.08 911.075 1351.02 907.556 1343 910.412C1335.8 912.982 1327.68 916.391 1331.14 922.911C1333.42 927.2 1341 930.734 1349.56 928.348ZM1349.12 923.209C1343.34 925.612 1336.46 923.754 1335.79 919.681C1335.14 915.714 1341.37 914.871 1345.1 913.808C1345.48 913.7 1350.02 911.864 1354.06 914.335C1356.97 916.106 1358.28 919.817 1356.2 921.369C1354.83 922.382 1352.85 922.297 1349.12 923.209ZM1348.95 922.727C1354.02 920.649 1356.66 920.932 1355.04 918.204C1353.72 915.988 1350.37 915.059 1346.99 916.278C1342.91 917.75 1339.14 917.941 1338.31 919.065C1337.89 919.646 1339.04 922.512 1344.86 923.026C1346.82 923.198 1348.63 922.798 1348.95 922.727Z" fill="black"/>
<path fill-rule="evenodd" clip-rule="evenodd" d="M1245.96 963.617C1253.59 960.952 1259.49 957.635 1257.18 951.038C1254.88 944.437 1246.81 941.244 1239.18 943.908C1231.55 946.573 1223.57 950.39 1225.88 956.99C1228.18 963.588 1238.33 966.281 1245.96 963.617ZM1245.35 957.996C1241.11 959.476 1234.63 958.442 1233.46 955.072C1232.28 951.702 1238.42 951.471 1242.66 949.991C1246.9 948.51 1251.29 950.045 1252.47 953.414C1253.65 956.784 1249.59 956.516 1245.35 957.996Z" fill="#DED797"/>
<path fill-rule="evenodd" clip-rule="evenodd" d="M1246.04 963.857C1246.03 963.864 1240.86 966.176 1234.27 964.611C1225.71 962.577 1222.31 955.586 1225.51 950.634C1226.19 949.579 1228.58 945.867 1238.88 942.434C1248.77 939.137 1258.03 945.187 1258.61 952.992C1259.11 959.784 1250.68 962.444 1246.04 963.857ZM1245.87 963.376C1252.91 960.521 1259.42 957.045 1255.64 950.185C1253.4 946.102 1247.33 942.583 1239.32 945.439C1232.12 948.009 1223.99 951.418 1227.46 957.939C1229.74 962.228 1237.32 965.762 1245.87 963.376ZM1245.43 958.236C1239.65 960.64 1232.78 958.782 1232.11 954.709C1231.46 950.741 1237.69 949.898 1241.41 948.835C1241.8 948.727 1246.33 946.891 1250.38 949.362C1253.28 951.133 1254.6 954.844 1252.51 956.396C1251.15 957.409 1249.16 957.325 1245.43 958.236ZM1245.26 957.754C1250.33 955.676 1252.97 955.959 1251.35 953.232C1250.04 951.015 1246.69 950.086 1243.31 951.305C1239.23 952.777 1235.46 952.968 1234.63 954.092C1234.2 954.673 1235.36 957.539 1241.18 958.053C1243.13 958.226 1244.95 957.825 1245.26 957.754Z" fill="black"/>
<path fill-rule="evenodd" clip-rule="evenodd" d="M1373.99 905.941C1379.87 904.275 1384.13 901.735 1382.99 897.709C1381.85 893.681 1376.15 891.765 1370.26 893.43C1364.37 895.096 1359.28 897.507 1360.42 901.535C1361.56 905.561 1368.1 907.607 1373.99 905.941ZM1374.02 902.505C1370.75 903.43 1366.78 902.272 1366.2 900.216C1365.62 898.16 1369.04 898.061 1372.32 897.136C1375.59 896.21 1378.71 897.129 1379.3 899.185C1379.88 901.241 1377.29 901.58 1374.02 902.505Z" fill="#DED797"/>
<path fill-rule="evenodd" clip-rule="evenodd" d="M1374.03 906.113C1365.96 908.588 1359.22 904.762 1359.49 900.026C1359.75 895.326 1367.93 893.036 1369.98 892.434C1376.84 890.423 1383.99 893.573 1383.87 898.977C1383.76 903.933 1375.84 905.668 1374.03 906.113ZM1373.94 905.771C1375.55 905.211 1384.99 902.277 1381.88 897.001C1380.1 893.988 1375.12 893.165 1370.8 894.355C1366.15 895.638 1358.9 897.976 1361.62 902.482C1362.93 904.65 1367.38 907.203 1373.94 905.771ZM1374.07 902.677C1368.67 904.505 1364.54 901.548 1365.39 899.078C1365.92 897.55 1367.77 897.182 1372.21 896.106C1377.08 894.926 1380.47 897.594 1379.97 900.055C1379.61 901.782 1377.28 902.06 1374.07 902.677ZM1373.97 902.335C1377.45 901.099 1379.64 900.579 1378.42 898.922C1377.5 897.683 1375.06 897.415 1372.87 898.043C1369.41 899.031 1367.52 899.047 1367.02 899.679C1366.63 900.178 1368.02 902.154 1371.65 902.452C1372.93 902.556 1373.89 902.348 1373.97 902.335Z" fill="black"/>
<path fill-rule="evenodd" clip-rule="evenodd" d="M1497.09 984.21C1502 982.106 1505.22 978.997 1503.18 974.24C1501.14 969.48 1495.5 967.325 1490.59 969.429C1485.68 971.533 1481.68 974.505 1483.72 979.264C1485.76 984.022 1492.18 986.314 1497.09 984.21ZM1496.26 980.128C1493.53 981.296 1489.65 980.005 1488.61 977.575C1487.57 975.145 1490.65 974.955 1493.37 973.786C1496.1 972.618 1499.16 973.642 1500.2 976.072C1501.24 978.501 1498.99 978.959 1496.26 980.128Z" fill="#DED797"/>
<path fill-rule="evenodd" clip-rule="evenodd" d="M1497.16 984.375C1497.13 984.39 1493.72 986.252 1489.16 984.772C1483.76 983.017 1480.29 977.325 1483.7 972.921C1485.58 970.491 1490 968.084 1493.02 967.698C1500.99 966.681 1506.62 974.742 1503.59 979.84C1501.98 982.551 1498.42 983.879 1497.16 984.375ZM1497.02 984.05C1499.17 982.962 1505.82 979.724 1502.03 973.659C1499.94 970.303 1495.43 968.519 1491 970.386C1486 972.492 1482.03 975.328 1485.05 980.238C1486.85 983.157 1491.72 985.936 1497.02 984.048L1497.02 984.05ZM1496.33 980.291C1490.66 982.998 1484.52 976.862 1489.14 974.338C1490.16 973.78 1490.79 973.691 1493.12 972.779C1496.97 971.273 1500.81 973.833 1501.04 976.817C1501.2 978.967 1498.95 979.447 1496.33 980.291ZM1496.19 979.966L1496.19 979.964C1499.38 978.347 1500.63 977.982 1499.45 976.057C1498.43 974.404 1496.03 973.78 1493.99 974.642C1490.13 976.279 1488.6 975.878 1489.58 977.683C1490.23 978.865 1492.74 980.909 1496.19 979.966Z" fill="black"/>
<path fill-rule="evenodd" clip-rule="evenodd" d="M1628.83 1015C1642.44 1011.43 1575.26 995.422 1531.02 986.875C1507.38 982.309 1497.69 996.275 1468.96 979.745C1446.87 967.039 1417.1 934.076 1387.76 934.375C1358.41 934.674 1330.42 973.374 1330.42 973.374C1330.42 973.374 1345.42 974.293 1378.45 967.848C1405.15 962.635 1471.05 1033.65 1518.68 1010.38C1541.45 999.256 1639.27 1021.18 1628.83 1015Z" fill="black" fill-opacity="0.3"/>
<path fill-rule="evenodd" clip-rule="evenodd" d="M1471.13 975.241C1476.12 975.011 1479.95 973.171 1479.7 967.767C1479.45 962.36 1475.2 958.158 1470.21 958.388C1465.21 958.618 1460.74 960.032 1460.98 965.438C1461.23 970.843 1466.13 975.47 1471.13 975.241ZM1471.72 970.945C1468.95 971.073 1465.96 968.369 1465.83 965.609C1465.7 962.848 1468.47 963.807 1471.24 963.679C1474.01 963.552 1476.37 965.689 1476.5 968.449C1476.62 971.21 1474.49 970.817 1471.72 970.945Z" fill="#DED797"/>
<path fill-rule="evenodd" clip-rule="evenodd" d="M1471.13 975.417C1465.23 975.755 1460.9 970.751 1460.28 966.017C1459.12 957.134 1470 957.16 1471.96 957.454C1478.54 958.437 1481.84 965.945 1479.88 971.024C1478.13 975.534 1472.33 975.399 1471.13 975.417ZM1471.12 975.067C1473.06 974.849 1480.35 974.279 1478.82 966.647C1477.98 962.499 1474.52 959.235 1470.25 959.416C1466.09 959.594 1460.87 960.441 1461.84 966.678C1462.45 970.551 1465.95 974.964 1471.12 975.065L1471.12 975.067ZM1471.73 971.121C1465.91 971.602 1462.33 963.438 1467.33 962.692C1468.44 962.527 1469 962.684 1471.35 962.656C1475.39 962.606 1477.86 966.695 1476.98 969.573C1476.36 971.587 1474.24 971.247 1471.73 971.121ZM1471.71 970.772L1471.71 970.77C1475.02 970.402 1476.24 970.527 1475.8 968.147C1475.45 966.246 1473.66 964.621 1471.49 964.689C1468.12 964.797 1467.68 964.387 1466.96 964.76C1466.16 965.168 1466.82 968.841 1470.01 970.334C1470.9 970.747 1471.58 970.758 1471.71 970.772Z" fill="black"/>
<path fill-rule="evenodd" clip-rule="evenodd" d="M1162.04 953.004C1166.45 959.22 1171.99 962.606 1178.79 957.787C1185.59 952.965 1187.53 944.005 1183.12 937.79C1178.72 931.574 1173.2 927.003 1166.4 931.825C1159.6 936.644 1157.64 946.788 1162.04 953.004ZM1168.1 950.188C1165.65 946.735 1166.69 940.649 1170.17 938.187C1173.64 935.726 1174.67 940.07 1177.12 943.523C1179.57 946.976 1178.73 951.778 1175.26 954.24C1171.79 956.701 1170.54 953.641 1168.1 950.188Z" fill="#DED797"/>
<path fill-rule="evenodd" clip-rule="evenodd" d="M1161.82 953.161C1156.08 945.501 1159.82 933.402 1168.09 929.44C1176.46 925.429 1183.07 935.015 1184.41 936.88C1189.38 943.768 1187.02 954.438 1178.39 959.325C1168.93 964.683 1163.01 954.97 1161.82 953.161ZM1162.26 952.847C1166.01 957.539 1171.67 962.708 1179.12 956.076C1183.75 951.951 1185.91 944.531 1181.84 938.7C1176.22 930.653 1171.43 929.164 1165.91 933.62C1161.25 937.384 1157.97 945.849 1162.26 952.847ZM1167.88 950.343C1164.2 945.696 1166.44 938.241 1170.67 936.382C1174.2 934.83 1176.33 939.284 1177.41 941.065C1178.46 942.785 1180.21 944.806 1179.9 948.408C1179.48 953.269 1174.86 956.78 1172.11 955.759C1170.38 955.118 1169.42 952.995 1167.88 950.343ZM1168.32 950.033C1171.36 953.738 1172.26 955.671 1174.96 953.208C1177.56 950.827 1177.69 947.072 1176.02 944.685C1173.49 941.063 1173.34 939.704 1172.29 938.982C1171.53 938.455 1169.86 939.867 1169.08 940.999C1167.3 943.59 1166.77 947.201 1168.32 950.033Z" fill="black"/>
</svg>
