<svg width="2160" height="2700" viewBox="0 0 2160 2700" fill="none" xmlns="http://www.w3.org/2000/svg">
<path fill-rule="evenodd" clip-rule="evenodd" d="M653.64 1097.61L537.01 1042.97C537.01 1042.97 751.667 603.014 788.361 540.365C800.493 519.65 889.379 417.528 889.055 434.043C888.665 453.915 889.723 524.481 868.112 614.246C827.082 784.672 750.395 1012.67 750.395 1012.67L653.64 1097.61Z" fill="#D1D1D1" stroke="white" stroke-width="14.0138" stroke-miterlimit="1.5" stroke-linecap="round" stroke-linejoin="round"/>
<path fill-rule="evenodd" clip-rule="evenodd" d="M812.291 956.831L693.81 1004.68C693.81 1004.68 826.363 819.583 857.397 771.403C870.388 751.234 942.218 705.364 942.218 705.364L903.302 910.132L812.291 956.831Z" fill="#D1D1D1" stroke="white" stroke-width="14.0138" stroke-miterlimit="1.5" stroke-linecap="round" stroke-linejoin="round"/>
<path fill-rule="evenodd" clip-rule="evenodd" d="M556.714 1062.62L430.651 1036.25C430.651 1036.25 584.279 591.127 609.845 523.173C630.586 468.049 694.329 391.434 697.593 407.602C700.65 422.739 719.709 488.732 714.782 543.901C699.287 717.395 634.563 996.259 634.563 996.259L556.714 1062.62Z" fill="#D1D1D1" stroke="white" stroke-width="14.0138" stroke-miterlimit="1.5" stroke-linecap="round" stroke-linejoin="round"/>
<path fill-rule="evenodd" clip-rule="evenodd" d="M1506 1093.03L1620.53 1034.11C1620.53 1034.11 1423.26 617.241 1384.27 555.993C1371.38 535.742 1286.65 438.816 1287.96 455.238C1289.79 478.169 1288.97 562.221 1312.67 665.387C1348.91 823.123 1414.42 1014.57 1414.42 1014.57L1506 1093.03Z" fill="#D1D1D1" stroke="white" stroke-width="14.0138" stroke-miterlimit="1.5" stroke-linecap="round" stroke-linejoin="round"/>
<path fill-rule="evenodd" clip-rule="evenodd" d="M1342.25 958.223L1462.42 1001.65C1462.42 1001.65 1331.36 823.345 1298.56 776.348C1284.83 756.674 1224.29 706.734 1224.29 706.734L1249.57 914.926L1342.25 958.223Z" fill="#D1D1D1" stroke="white" stroke-width="14.0138" stroke-miterlimit="1.5" stroke-linecap="round" stroke-linejoin="round"/>
<path fill-rule="evenodd" clip-rule="evenodd" d="M1601.57 1054.48L1726.57 1023.45C1735.45 1022.77 1616.43 670.5 1565.72 571.844C1539.78 521.387 1468.45 394.841 1465.79 411.117C1461.6 436.702 1457.84 530.269 1469.22 640.206C1485.92 801.689 1521.31 991.043 1521.31 991.043L1601.57 1054.48Z" fill="#D1D1D1" stroke="white" stroke-width="14.0138" stroke-miterlimit="1.5" stroke-linecap="round" stroke-linejoin="round"/>
<path fill-rule="evenodd" clip-rule="evenodd" d="M1498.91 465.975C1555.89 561.241 1605.07 673.931 1640.33 793.386L1619.71 894.084C1592.94 741.63 1550.19 600.72 1498.91 465.975Z" fill="white"/>
<path fill-rule="evenodd" clip-rule="evenodd" d="M1306.95 479.105C1373.71 546.049 1415.44 653.791 1464.59 754.538L1457.34 837.174C1419.13 702.346 1368.24 595.957 1306.95 479.105Z" fill="white"/>
<path fill-rule="evenodd" clip-rule="evenodd" d="M877.309 469.338C878.457 563.879 830.452 690.218 795.396 796.693L732.555 850.845C799.223 727.581 839.721 595.822 877.309 469.338Z" fill="white"/>
<path fill-rule="evenodd" clip-rule="evenodd" d="M693.082 449.145C706.52 542.733 665.747 744.017 644.85 854.152L589.579 916.013C639.644 785.124 672.269 579.444 693.082 449.145Z" fill="white"/>
<path d="M1599.53 950.464L1473.74 412.555" stroke="black" stroke-width="12" stroke-miterlimit="1.5" stroke-linecap="round" stroke-linejoin="round"/>
<path d="M1467.07 901.571L1294.27 467.936" stroke="black" stroke-width="12" stroke-miterlimit="1.5" stroke-linecap="round" stroke-linejoin="round"/>
<path d="M1301.42 846.953L1232.88 721.455" stroke="black" stroke-width="12" stroke-miterlimit="1.5" stroke-linecap="round" stroke-linejoin="round"/>
<path d="M854.332 843.458L925.152 727.539" stroke="black" stroke-width="12" stroke-miterlimit="1.5" stroke-linecap="round" stroke-linejoin="round"/>
<path d="M689.445 886.456L876.271 436.275" stroke="black" stroke-width="12" stroke-miterlimit="1.5" stroke-linecap="round" stroke-linejoin="round"/>
<path d="M561.477 932.642L687.678 403.848" stroke="black" stroke-width="12" stroke-miterlimit="1.5" stroke-linecap="round" stroke-linejoin="round"/>
<path d="M399.409 1301.31L353.105 1077.5L187.41 1217.62L233.713 1441.43L399.409 1301.31Z" fill="#00A8E4" stroke="white" stroke-width="11.138" stroke-miterlimit="1.5" stroke-linecap="round" stroke-linejoin="round"/>
<path d="M445.065 1218.55L398.762 994.732L233.066 1134.85L279.369 1358.67L445.065 1218.55Z" fill="#00A8E4" stroke="white" stroke-width="11.138" stroke-miterlimit="1.5" stroke-linecap="round" stroke-linejoin="round"/>
<path d="M491.534 1120.73L445.23 896.916L279.535 1037.04L325.838 1260.85L491.534 1120.73Z" fill="#00A8E4" stroke="white" stroke-width="11.138" stroke-miterlimit="1.5" stroke-linecap="round" stroke-linejoin="round"/>
<path d="M540.053 1032.76L493.75 808.943L328.054 949.063L374.358 1172.88L540.053 1032.76Z" fill="#00A8E4" stroke="white" stroke-width="11.138" stroke-miterlimit="1.5" stroke-linecap="round" stroke-linejoin="round"/>
<path fill-rule="evenodd" clip-rule="evenodd" d="M487.5 859.574L507.493 945.618L494.657 945.462L487.5 859.574Z" fill="white"/>
<path d="M1748.28 1278.62L1794.59 1054.81L1960.28 1194.93L1913.98 1418.74L1748.28 1278.62Z" fill="#00A8E4" stroke="white" stroke-width="11.138" stroke-miterlimit="1.5" stroke-linecap="round" stroke-linejoin="round"/>
<path d="M1702.63 1195.86L1748.93 972.047L1914.63 1112.17L1868.32 1335.98L1702.63 1195.86Z" fill="#00A8E4" stroke="white" stroke-width="11.138" stroke-miterlimit="1.5" stroke-linecap="round" stroke-linejoin="round"/>
<path d="M1656.16 1098.04L1702.46 874.229L1868.16 1014.35L1821.85 1238.16L1656.16 1098.04Z" fill="#00A8E4" stroke="white" stroke-width="11.138" stroke-miterlimit="1.5" stroke-linecap="round" stroke-linejoin="round"/>
<path d="M1607.64 1010.07L1653.94 786.256L1819.64 926.376L1773.33 1150.19L1607.64 1010.07Z" fill="#00A8E4" stroke="white" stroke-width="11.138" stroke-miterlimit="1.5" stroke-linecap="round" stroke-linejoin="round"/>
<path fill-rule="evenodd" clip-rule="evenodd" d="M1690.51 840.334L1780.09 936.432L1782.08 1025.96C1782.08 1025.96 1800.48 936.057 1794.66 928.834C1786.25 918.407 1690.51 840.334 1690.51 840.334Z" fill="#00A8E4"/>
<path fill-rule="evenodd" clip-rule="evenodd" d="M1813.72 981.896L1841.84 1025.61L1844.24 1055.94C1844.24 1055.94 1856.02 1025.27 1851.97 1018.76C1846.13 1009.35 1813.72 981.896 1813.72 981.896Z" fill="#00A8E4"/>
<path fill-rule="evenodd" clip-rule="evenodd" d="M1224.38 773.72C1259.4 780.364 1215.56 826.412 1300.05 849.293C1562.37 920.333 1894.34 1094.33 1967.92 1325.75C2005.09 1442.63 1686.51 1579.53 1686.51 1717.3C1686.51 2215.73 1414.39 2620.39 1079.21 2620.39C744.033 2620.39 471.91 2215.73 471.91 1717.3C471.91 1624.36 173.775 1438.07 191.345 1353.67C250.377 1070.07 583.374 903.326 857.893 841.66C885.121 835.544 878.639 779.486 905.656 774.477C966.739 763.153 1158.65 761.251 1224.38 773.72ZM1082.49 885.247C797.884 885.247 566.82 1148.41 566.82 1472.55C566.82 1796.7 797.884 2059.86 1082.49 2059.86C1367.1 2059.86 1598.17 1796.7 1598.17 1472.55C1598.17 1148.41 1367.1 885.247 1082.49 885.247Z" fill="#8D8D8D" stroke="white" stroke-width="16.178" stroke-miterlimit="1.5" stroke-linecap="round" stroke-linejoin="round"/>
<path fill-rule="evenodd" clip-rule="evenodd" d="M1300.27 2153.45L1262.01 2096.28C1262.01 2096.28 1350.84 2054.31 1423.83 1999.67C1460.36 1972.32 1483.18 1944.85 1510.35 1916.66C1510.35 1916.66 1470.47 1972.94 1441.83 1997.38C1415.78 2019.61 1330.28 2065.82 1292.87 2099.39C1273.73 2116.56 1300.27 2153.45 1300.27 2153.45Z" fill="white"/>
<path fill-rule="evenodd" clip-rule="evenodd" d="M1305.84 2231.94C1305.84 2231.94 1264.66 2155.41 1229.58 2137.25C1194.5 2119.09 1095.35 2122.99 1095.35 2122.99C1149.26 2121.32 1233.2 2102.86 1233.2 2102.86L1305.84 2231.94Z" fill="white"/>
<path d="M762.375 2487.73L827.473 2226.5L914.815 2083.67" stroke="white" stroke-width="9.99999" stroke-miterlimit="1.5" stroke-linecap="square" stroke-linejoin="round"/>
<path d="M1391.25 2487.73L1326.15 2226.5L1238.81 2083.67" stroke="white" stroke-width="9.99999" stroke-miterlimit="1.5" stroke-linecap="square" stroke-linejoin="round"/>
<path fill-rule="evenodd" clip-rule="evenodd" d="M1638.93 1010.72C1561.11 961.417 1469.51 924.371 1373.87 890.939C1465.23 931.027 1558.29 971.4 1622.77 1021.39L1638.93 1010.72Z" fill="white"/>
<path fill-rule="evenodd" clip-rule="evenodd" d="M1701.14 1061.59C1701.14 1061.59 1899.52 1230.71 1923.17 1331.39C1928.1 1352.4 1893.63 1406 1893.63 1406C1893.63 1406 1955.62 1358.95 1947.05 1331.41C1908.03 1206.01 1701.14 1061.59 1701.14 1061.59Z" fill="white"/>
<path fill-rule="evenodd" clip-rule="evenodd" d="M1087.39 2304.64C1134.83 2325.64 1292.48 2433.82 1319.06 2478.75L1088.67 2667.13L853.621 2492.41C873.85 2451.27 1026.33 2324.66 1087.39 2304.64Z" fill="#D50409" stroke="white" stroke-width="14.4635" stroke-miterlimit="1.5" stroke-linecap="round" stroke-linejoin="round"/>
<path fill-rule="evenodd" clip-rule="evenodd" d="M1087.39 2304.64C1134.83 2325.64 1246.25 2431.36 1272.81 2476.3C1209.59 2523.18 1188.82 2582.66 1131.6 2603.79C1118.97 2608.45 1101.11 2595.3 1087.15 2599.04C1071.02 2594.98 1059.85 2609.41 1045.45 2604.79C984.974 2585.37 956.835 2528.52 896.871 2488.28C917.1 2447.14 1026.32 2324.66 1087.39 2304.64Z" fill="black" fill-opacity="0.52"/>
<mask id="mask0_940_418" style="mask-type:luminance" maskUnits="userSpaceOnUse" x="896" y="2304" width="377" height="302">
<path d="M1087.39 2304.64C1134.83 2325.64 1246.25 2431.36 1272.81 2476.3C1209.59 2523.18 1188.82 2582.66 1131.6 2603.79C1118.97 2608.45 1101.11 2595.3 1087.15 2599.04C1071.02 2594.98 1059.85 2609.41 1045.45 2604.79C984.974 2585.37 956.835 2528.52 896.871 2488.28C917.1 2447.14 1026.32 2324.66 1087.39 2304.64Z" fill="white"/>
</mask>
<g mask="url(#mask0_940_418)">
<path fill-rule="evenodd" clip-rule="evenodd" d="M982.135 2586.2L969.929 2576.49C968.98 2575.74 968.502 2574.55 968.665 2573.36L981.183 2483.02C981.359 2481.76 982.223 2480.7 983.435 2480.26L999.902 2474.3C1001 2473.9 1002.23 2474.07 1003.18 2474.76C1004.12 2475.44 1004.65 2476.55 1004.59 2477.7L998.596 2588.16C998.56 2588.82 998.326 2589.45 997.954 2589.96C1000.11 2591.68 1001.52 2592.8 1001.52 2592.8L1014.13 2467.3C1014.22 2466.41 1014.66 2465.58 1015.36 2465.01L1057.57 2430.18C1058.6 2429.34 1060.02 2429.14 1061.24 2429.68C1062.46 2430.22 1063.26 2431.4 1063.3 2432.71L1066.17 2534.96L1067.32 2552.49L1088.29 2552.21C1086.5 2546.4 1082.92 2534.81 1077.6 2517.67C1069.44 2491.37 1077.75 2446.95 1077.75 2446.95C1077.92 2446.04 1078.45 2445.25 1079.23 2444.73L1098.61 2431.87C1100.2 2430.82 1102.36 2431.23 1103.44 2432.79L1122.59 2460.54C1123.11 2461.28 1123.3 2462.21 1123.13 2463.09C1123.13 2463.09 1121.63 2471.19 1123.01 2488.4C1124.37 2505.3 1125.86 2519.3 1134.19 2528.01C1142.07 2536.25 1143.11 2548.67 1143.22 2553.06L1156.94 2566.16L1165.82 2465.66C1165.92 2464.62 1166.48 2463.68 1167.37 2463.1C1168.25 2462.52 1169.36 2462.37 1170.37 2462.69L1185.04 2467.35C1186.01 2467.66 1186.8 2468.37 1187.19 2469.29C1187.58 2470.21 1187.54 2471.26 1187.09 2472.15C1187.09 2472.15 1183.49 2479.96 1189.03 2499.54C1191.92 2509.77 1195.78 2514.78 1198.6 2519.42C1201.9 2524.83 1204.07 2529.81 1202.83 2540C1201.35 2552.09 1197.6 2563.88 1195.13 2570.71L1233.66 2562.65L1204.89 2466.23C1204.45 2464.78 1205.05 2463.21 1206.35 2462.39L1245.01 2437.84C1246.01 2437.2 1247.27 2437.11 1248.35 2437.6C1249.43 2438.09 1250.19 2439.09 1250.35 2440.25L1263.93 2536.6L1266.23 2535.16L1255.8 2435.27C1255.71 2434.37 1255.98 2433.47 1256.55 2432.77L1268.4 2418.25C1269.27 2417.18 1270.71 2416.73 1272.05 2417.09C1273.39 2417.46 1274.38 2418.58 1274.57 2419.93L1287.63 2514.54L1314.42 2492.94C1315.02 2489.82 1316.53 2480.86 1315.93 2472.39C1315.7 2469.11 1315.15 2465.92 1314.05 2463.22C1313.14 2460.98 1311.86 2459.1 1309.9 2458.03C1296.07 2450.49 1281.95 2425.58 1281.95 2425.58C1281.41 2424.62 1281.37 2423.48 1281.83 2422.49L1298.24 2387.49C1298.91 2386.06 1300.49 2385.27 1302.06 2385.56C1303.63 2385.86 1304.8 2387.17 1304.89 2388.74C1304.89 2388.74 1305.56 2402.32 1313.84 2409.89C1321.64 2417.02 1344.29 2438.82 1351.13 2445.42L1366.13 2435.99L1358.77 2333.31C1358.7 2332.41 1359 2331.53 1359.59 2330.84L1377.87 2309.71C1378.47 2309.01 1379.34 2308.58 1380.27 2308.51C1381.2 2308.44 1382.12 2308.75 1382.82 2309.35C1382.82 2309.35 1395.16 2319.48 1388.52 2342.45C1382.82 2362.19 1388.94 2387.69 1388.94 2387.69C1389.03 2388.09 1389.06 2388.5 1389 2388.9L1384.96 2420.23L1378.04 2419.36L1378.48 2415.96L1382.01 2388.63C1381.1 2384.43 1376.23 2359.92 1381.82 2340.58C1385.25 2328.71 1382.59 2321.15 1380.38 2317.39L1365.82 2334.22L1373.23 2437.54C1373.32 2438.79 1372.71 2439.99 1371.63 2440.67L1352.54 2452.67C1351.17 2453.53 1349.39 2453.35 1348.23 2452.23C1348.23 2452.23 1318.3 2423.32 1309.1 2414.92C1304.45 2410.67 1301.71 2404.89 1300.11 2399.87L1288.91 2423.77C1291.96 2428.96 1302.62 2446.23 1313.27 2452.03C1318.07 2454.65 1320.88 2459.89 1322.13 2466.14C1324.66 2478.79 1321 2495.55 1321 2495.55C1320.83 2496.3 1320.41 2496.98 1319.8 2497.47L1287.22 2523.73C1286.24 2524.52 1284.91 2524.72 1283.74 2524.27C1282.56 2523.82 1281.73 2522.77 1281.56 2521.54C1281.56 2521.54 1272.03 2452.51 1268.76 2428.77L1262.88 2435.96L1273.38 2536.57C1273.52 2537.86 1272.9 2539.12 1271.79 2539.81L1263.09 2545.26C1262.09 2545.88 1260.83 2545.96 1259.76 2545.48C1258.68 2544.99 1257.93 2543.99 1257.77 2542.83L1244.2 2446.51L1212.31 2466.76L1241.41 2564.26C1241.69 2565.18 1241.56 2566.17 1241.06 2566.99C1240.57 2567.81 1239.74 2568.39 1238.79 2568.58L1190.33 2578.73C1189.06 2579 1187.74 2578.55 1186.92 2577.56C1186.09 2576.58 1185.89 2575.22 1186.39 2574.05C1186.39 2574.05 1193.74 2556.95 1195.9 2539.19C1196.89 2531.15 1195.22 2527.21 1192.62 2522.95C1189.56 2517.91 1185.45 2512.47 1182.31 2501.38C1178.12 2486.59 1178.71 2477.48 1179.67 2472.85L1172.39 2470.54L1163.25 2573.94C1163.14 2575.26 1162.26 2576.39 1161 2576.85C1159.74 2577.32 1158.32 2577.02 1157.35 2576.1L1137.31 2556.98C1136.59 2556.3 1136.21 2555.35 1136.26 2554.36C1136.26 2554.36 1136.98 2540.93 1129.12 2532.71C1119.87 2523.04 1117.57 2507.69 1116.06 2488.94C1114.93 2474.85 1115.66 2466.45 1116.06 2463.29L1099.63 2439.47L1084.35 2449.61C1083.04 2457.14 1077.33 2493.29 1084.27 2515.67C1092.25 2541.36 1096.3 2554.59 1096.3 2554.59C1096.62 2555.62 1096.43 2556.74 1095.78 2557.6C1095.13 2558.47 1094.11 2558.99 1093.01 2559.01L1064.1 2559.39C1062.25 2559.41 1060.69 2558 1060.58 2556.18L1059.21 2535.33C1059.2 2535.29 1059.2 2535.25 1059.2 2535.21L1056.53 2439.99L1020.93 2469.37L1007.83 2599.8C1007.7 2601.06 1006.89 2602.14 1005.7 2602.63C1004.52 2603.11 1003.16 2602.92 1002.17 2602.13L989.612 2592.15L958.575 2596.17C956.732 2596.42 955.023 2595.19 954.689 2593.39L950.567 2570.99C949.688 2567.93 936.303 2521.38 929.644 2502.41C928.641 2499.56 928.193 2496.78 928.177 2494.11L906.864 2550.05C906.37 2551.34 905.13 2552.22 903.724 2552.27C902.317 2552.32 901.02 2551.53 900.432 2550.28L890.308 2528.61C889.869 2527.67 889.884 2526.59 890.348 2525.66L924.164 2458.22L924.11 2458.22L869.201 2542.99C868.546 2544 867.4 2544.6 866.179 2544.57C864.96 2544.54 863.845 2543.89 863.239 2542.85L840.515 2503.8C839.797 2502.57 839.927 2501.03 840.846 2499.93L898.789 2430.3L879.076 2417.8L844.35 2456.42L835.017 2497.53C834.723 2498.81 833.708 2499.82 832.405 2500.12C831.098 2500.42 829.737 2499.96 828.898 2498.93L808.442 2473.88C807.823 2473.12 807.56 2472.14 807.717 2471.18C807.717 2471.18 814.137 2432.19 818.838 2420.92C819.244 2419.94 819.002 2418.2 818.635 2415.88C817.904 2411.29 816.156 2404.99 813.855 2397.89C804.692 2369.61 786.788 2328.79 786.788 2328.79L785.406 2325.64L791.808 2322.92L793.19 2326.07C793.19 2326.07 816.81 2379.97 823.881 2407.25C825 2411.56 825.706 2415.25 825.897 2418.01C826.061 2420.42 825.8 2422.29 825.288 2423.52C821.275 2433.15 816.037 2463.64 814.846 2470.77L829.792 2489.08L837.742 2454.06C837.869 2453.49 838.142 2452.97 838.533 2452.54L875.839 2411.05C876.978 2409.78 878.891 2409.52 880.336 2410.44L905.848 2426.61C906.682 2427.14 907.248 2428 907.403 2428.96C907.558 2429.93 907.285 2430.91 906.657 2431.67L847.76 2502.45L866.421 2534.51L919.348 2452.81C920.036 2451.75 921.264 2451.14 922.54 2451.23L929.832 2451.75C930.99 2451.83 932.027 2452.48 932.606 2453.47C933.182 2454.46 933.218 2455.67 932.706 2456.69L897.334 2527.23L903.272 2539.93L932.136 2464.18C932.669 2462.78 934.07 2461.88 935.591 2461.96L949.758 2462.73C951.255 2462.81 952.531 2463.82 952.928 2465.25C953.325 2466.67 952.75 2468.18 951.504 2469C951.504 2469 943.681 2474.15 938.798 2482.19C935.758 2487.19 933.848 2493.39 936.234 2500.17C943.16 2519.89 957.32 2569.28 957.32 2569.28C957.351 2569.39 957.378 2569.5 957.396 2569.6L960.957 2588.95L982.135 2586.2ZM935.585 2474.66C937.228 2472.55 938.968 2470.68 940.604 2469.1L937.764 2468.95L935.585 2474.66ZM991.667 2584.96L991.789 2584.94L997.344 2482.53L987.809 2485.98L975.84 2572.37C975.84 2572.37 984.423 2579.2 991.667 2584.96Z" fill="#A4A4A4"/>
<path fill-rule="evenodd" clip-rule="evenodd" d="M937.889 2457.04L950.031 2457.7C953.699 2457.9 956.806 2460.41 957.779 2463.9C958.758 2467.42 957.357 2471.18 954.272 2473.21C954.272 2473.21 947.394 2477.73 943.103 2484.8C940.781 2488.62 939.162 2493.33 940.981 2498.51C947.937 2518.3 962.158 2567.9 962.158 2567.9C962.234 2568.16 962.298 2568.42 962.346 2568.69L965.044 2583.34L969.699 2582.74L966.796 2580.43C964.447 2578.56 963.274 2575.62 963.683 2572.67L976.201 2482.32C976.628 2479.23 978.741 2476.61 981.72 2475.53L998.191 2469.57C1000.86 2468.6 1003.84 2469.02 1006.13 2470.68C1007.1 2471.39 1007.89 2472.27 1008.47 2473.27L1009.12 2466.79C1009.34 2464.59 1010.43 2462.55 1012.15 2461.13L1054.37 2426.3C1056.86 2424.25 1060.32 2423.77 1063.28 2425.08C1066.28 2426.41 1068.24 2429.33 1068.33 2432.57L1069.5 2474.39C1070.5 2458.55 1072.8 2446.02 1072.8 2446.02V2446.01C1073.23 2443.78 1074.53 2441.81 1076.44 2440.54L1095.83 2427.68C1099.71 2425.11 1104.96 2426.13 1107.59 2429.93L1126.73 2457.68C1128.02 2459.54 1128.5 2461.82 1128.08 2464.03C1128 2464.51 1126.76 2472.21 1128.03 2488C1129.28 2503.53 1130.18 2516.53 1137.83 2524.53C1145.72 2532.78 1147.7 2544.68 1148.14 2550.81L1152.85 2555.3L1160.81 2465.21C1161.04 2462.64 1162.43 2460.31 1164.62 2458.88C1166.76 2457.48 1169.44 2457.12 1171.89 2457.89L1186.57 2462.55C1188.94 2463.31 1190.85 2465.05 1191.82 2467.31C1192.76 2469.51 1192.71 2472 1191.71 2474.16C1191.58 2474.66 1189.58 2483.03 1193.87 2498.17C1196.59 2507.77 1200.25 2512.45 1202.9 2516.8C1206.72 2523.07 1209.26 2528.82 1207.82 2540.62C1206.79 2549.03 1204.71 2557.32 1202.67 2564L1227.28 2558.84L1200.07 2467.67C1198.99 2464.06 1200.44 2460.18 1203.65 2458.14L1242.31 2433.59C1244.74 2432.05 1247.8 2431.83 1250.42 2433.01C1250.59 2433.09 1250.76 2433.17 1250.92 2433.26C1251.18 2431.92 1251.77 2430.67 1252.65 2429.59L1264.5 2415.07C1266.62 2412.47 1270.11 2411.35 1273.38 2412.24C1275.87 2412.92 1277.86 2414.67 1278.89 2416.92L1293.69 2385.36C1295.32 2381.87 1299.15 2379.9 1302.99 2380.61C1306.86 2381.34 1309.7 2384.59 1309.91 2388.46C1309.91 2388.47 1309.91 2388.48 1309.91 2388.49C1309.91 2388.49 1310.33 2399.87 1317.24 2406.18C1324.19 2412.53 1342.89 2430.5 1351.78 2439.07C1351.78 2439.07 1360.9 2433.33 1360.9 2433.34L1353.75 2333.67C1353.59 2331.45 1354.32 2329.25 1355.79 2327.55L1374.06 2306.42C1375.54 2304.71 1377.64 2303.66 1379.91 2303.49C1382.14 2303.33 1384.34 2304.05 1386.03 2305.47C1386.56 2305.89 1400.94 2317.62 1393.36 2343.85C1387.98 2362.46 1393.83 2386.52 1393.83 2386.52L1393.84 2386.52C1394.07 2387.51 1394.13 2388.54 1394 2389.55L1389.95 2420.87C1389.6 2423.62 1387.09 2425.57 1384.34 2425.22L1377.42 2424.36C1377.39 2424.35 1377.36 2424.35 1377.33 2424.34L1378.25 2437.18C1378.47 2440.28 1376.97 2443.26 1374.31 2444.93L1355.22 2456.93C1351.9 2459.02 1347.55 2458.57 1344.73 2455.85C1344.73 2455.85 1314.88 2427.02 1305.7 2418.63C1303.47 2416.59 1301.62 2414.26 1300.08 2411.81C1298.07 2416.09 1295.89 2420.74 1294.6 2423.49C1298.48 2429.87 1307.02 2442.89 1315.68 2447.61C1321.7 2450.9 1325.49 2457.31 1327.06 2465.15C1329.78 2478.68 1325.92 2496.62 1325.92 2496.62L1325.92 2496.63C1325.5 2498.5 1324.46 2500.18 1322.96 2501.39L1290.38 2527.65C1288.01 2529.56 1284.77 2530.07 1281.92 2528.96C1279.74 2528.12 1278.05 2526.45 1277.17 2524.38L1278.39 2536.05C1278.72 2539.24 1277.21 2542.36 1274.46 2544.08L1265.76 2549.52C1263.33 2551.04 1260.29 2551.25 1257.67 2550.06C1255.02 2548.85 1253.19 2546.39 1252.78 2543.54L1240.3 2454.95L1218.22 2468.97L1246.23 2562.82C1246.92 2565.1 1246.6 2567.56 1245.37 2569.59C1244.15 2571.6 1242.14 2573.02 1239.83 2573.51L1191.36 2583.66C1188.27 2584.31 1185.07 2583.2 1183.06 2580.8C1181.01 2578.35 1180.52 2574.98 1181.77 2572.06C1181.77 2572.06 1188.83 2555.64 1190.91 2538.58C1191.69 2532.14 1190.41 2528.98 1188.33 2525.57C1185.09 2520.25 1180.79 2514.47 1177.47 2502.75C1176.58 2499.6 1175.89 2496.68 1175.37 2493.99L1168.26 2574.38C1167.98 2577.63 1165.84 2580.44 1162.73 2581.58C1159.67 2582.7 1156.23 2581.98 1153.88 2579.74L1133.84 2560.62C1132.06 2558.93 1131.12 2556.56 1131.23 2554.13C1131.23 2554.12 1131.23 2554.11 1131.23 2554.09C1131.23 2554.09 1131.96 2542.97 1125.48 2536.19C1115.56 2525.81 1112.66 2509.47 1111.05 2489.35C1110.06 2476.98 1110.45 2468.83 1110.86 2464.6L1098.29 2446.4C1095.25 2448.42 1091.24 2451.07 1088.95 2452.59C1087.25 2462.97 1082.89 2494.24 1089.08 2514.17C1097.05 2539.87 1101.11 2553.1 1101.12 2553.11C1101.9 2555.67 1101.42 2558.45 1099.82 2560.61C1098.24 2562.73 1095.75 2564 1093.08 2564.04L1064.17 2564.42C1059.62 2564.48 1055.85 2560.98 1055.55 2556.51L1054.18 2535.67C1054.18 2535.56 1054.17 2535.45 1054.17 2535.35L1051.78 2450.43L1025.73 2471.93L1012.83 2600.3C1012.52 2603.39 1010.53 2606.08 1007.62 2607.28C1004.75 2608.46 1001.45 2607.99 999.036 2606.07L988.149 2597.41L959.224 2601.17C954.711 2601.75 950.553 2598.71 949.74 2594.3C949.74 2594.3 945.752 2572.51 945.721 2572.35C944.882 2569.41 934.167 2532.15 927.184 2510.85L911.565 2551.84C910.356 2555.01 907.346 2557.18 903.903 2557.3C900.469 2557.42 897.311 2555.48 895.874 2552.41L885.75 2530.74C885.32 2529.83 885.065 2528.86 884.987 2527.88L873.426 2545.72C871.826 2548.19 869.038 2549.67 866.064 2549.6C863.085 2549.53 860.369 2547.92 858.89 2545.38L836.167 2506.34C835.806 2505.71 835.53 2505.06 835.339 2504.39C834.769 2504.67 834.163 2504.88 833.527 2505.03C830.353 2505.75 827.04 2504.61 825.001 2502.11L804.544 2477.06C803.011 2475.18 802.362 2472.75 802.75 2470.37V2470.37C802.75 2470.37 809.212 2431.56 814.001 2419.45C813.956 2419 813.819 2417.66 813.665 2416.67C812.965 2412.27 811.27 2406.25 809.067 2399.44C799.968 2371.35 782.18 2330.81 782.18 2330.81L780.799 2327.66C780.258 2326.43 780.234 2325.03 780.73 2323.78C781.227 2322.53 782.203 2321.53 783.44 2321.01L789.841 2318.29C792.378 2317.22 795.309 2318.38 796.418 2320.9L797.798 2324.05C797.798 2324.05 821.618 2378.46 828.753 2405.99C829.965 2410.67 830.714 2414.67 830.917 2417.67C831.15 2421.08 830.659 2423.71 829.932 2425.46C826.349 2434.06 821.824 2459.72 820.19 2469.36L827.168 2477.91L832.836 2452.95C833.154 2451.55 833.824 2450.25 834.791 2449.17L872.096 2407.68C874.869 2404.6 879.513 2403.96 883.032 2406.19L908.543 2422.36C910.604 2423.67 911.99 2425.78 912.371 2428.17C912.756 2430.56 912.087 2433.01 910.526 2434.89L853.88 2502.96L866.652 2524.9L915.127 2450.08C916.803 2447.48 919.785 2445.99 922.898 2446.21L930.191 2446.73C933.015 2446.94 935.546 2448.52 936.956 2450.94C938.044 2452.81 938.359 2454.99 937.889 2457.04ZM922.54 2460.64L922.768 2461.01L890.348 2525.66C889.885 2526.59 889.87 2527.67 890.309 2528.61L900.432 2550.28C901.02 2551.53 902.318 2552.32 903.724 2552.27C905.131 2552.22 906.37 2551.34 906.864 2550.05L928.178 2494.11C928.193 2496.78 928.642 2499.56 929.645 2502.41C936.304 2521.38 949.689 2567.93 950.568 2570.99L954.69 2593.39C955.023 2595.19 956.733 2596.42 958.576 2596.17L989.613 2592.15L1002.17 2602.13C1003.16 2602.92 1004.52 2603.11 1005.7 2602.63C1006.89 2602.14 1007.7 2601.06 1007.83 2599.8L1020.93 2469.37L1055.13 2441.14L1056.53 2445.03C1056.53 2445.03 1056.57 2444.93 1056.66 2444.76L1059.2 2535.21C1059.2 2535.25 1059.2 2535.29 1059.21 2535.33L1060.58 2556.18C1060.7 2558 1062.25 2559.41 1064.1 2559.39L1093.01 2559.01C1094.11 2558.99 1095.13 2558.47 1095.78 2557.6C1096.43 2556.74 1096.62 2555.62 1096.3 2554.59C1096.3 2554.59 1092.25 2541.36 1084.27 2515.67C1077.33 2493.29 1083.04 2457.14 1084.35 2449.61C1084.35 2449.61 1094.7 2442.74 1098.36 2440.31L1099.63 2444.5C1099.63 2444.5 1099.87 2442.55 1100.37 2440.55L1116.07 2463.29C1115.66 2466.45 1114.93 2474.85 1116.07 2488.94C1117.57 2507.69 1119.88 2523.04 1129.12 2532.71C1136.98 2540.93 1136.26 2554.36 1136.26 2554.36C1136.21 2555.35 1136.59 2556.3 1137.31 2556.98L1157.35 2576.1C1158.32 2577.02 1159.74 2577.32 1161 2576.85C1162.26 2576.39 1163.14 2575.26 1163.25 2573.94L1171.98 2475.13L1172.39 2475.57C1172.39 2475.57 1172.24 2475.17 1172.04 2474.53L1172.39 2470.54L1179.67 2472.85C1178.71 2477.48 1178.12 2486.59 1182.31 2501.38C1185.45 2512.47 1189.56 2517.91 1192.62 2522.95C1195.23 2527.21 1196.89 2531.15 1195.9 2539.19C1193.74 2556.95 1186.39 2574.05 1186.39 2574.05C1185.89 2575.22 1186.09 2576.58 1186.92 2577.56C1187.74 2578.55 1189.06 2579 1190.33 2578.73L1238.79 2568.58C1239.74 2568.39 1240.57 2567.81 1241.06 2566.99C1241.56 2566.17 1241.69 2565.18 1241.41 2564.26L1212.31 2466.76L1244.2 2446.51L1257.77 2542.83C1257.93 2543.99 1258.68 2544.99 1259.76 2545.48C1260.83 2545.96 1262.09 2545.88 1263.09 2545.26L1271.79 2539.81C1272.9 2539.12 1273.52 2537.86 1273.38 2536.57L1262.88 2435.96L1268.76 2428.77L1281.56 2521.54C1281.73 2522.77 1282.56 2523.82 1283.74 2524.27C1284.91 2524.72 1286.24 2524.52 1287.22 2523.73L1319.8 2497.47C1320.41 2496.98 1320.84 2496.3 1321 2495.55C1321 2495.55 1324.66 2478.79 1322.13 2466.14C1320.88 2459.89 1318.07 2454.65 1313.27 2452.03C1302.62 2446.23 1291.96 2428.96 1288.91 2423.77L1300.12 2399.87C1301.71 2404.89 1304.45 2410.67 1309.1 2414.92C1318.3 2423.32 1348.23 2452.23 1348.23 2452.23C1349.39 2453.35 1351.18 2453.53 1352.55 2452.67L1371.63 2440.67C1372.71 2439.99 1373.32 2438.79 1373.23 2437.54L1365.82 2334.22L1380.38 2317.39C1382.59 2321.15 1385.25 2328.71 1381.82 2340.58C1376.23 2359.92 1381.1 2384.43 1382.01 2388.63L1378.48 2415.96L1378.04 2419.36L1384.96 2420.23L1389 2388.9C1389.06 2388.5 1389.04 2388.09 1388.94 2387.69C1388.94 2387.69 1382.82 2362.19 1388.52 2342.45C1395.16 2319.49 1382.82 2309.35 1382.82 2309.35C1382.12 2308.75 1381.2 2308.44 1380.27 2308.51C1379.34 2308.58 1378.48 2309.01 1377.87 2309.71L1359.59 2330.84C1359 2331.53 1358.7 2332.41 1358.77 2333.31L1366.13 2435.99L1351.13 2445.42C1344.29 2438.82 1321.64 2417.02 1313.84 2409.89C1305.56 2402.32 1304.89 2388.74 1304.89 2388.74C1304.8 2387.17 1303.63 2385.86 1302.06 2385.56C1300.49 2385.27 1298.92 2386.06 1298.25 2387.49L1281.84 2422.49C1281.37 2423.48 1281.41 2424.62 1281.95 2425.58C1281.95 2425.58 1296.07 2450.49 1309.9 2458.03C1311.86 2459.1 1313.14 2460.98 1314.05 2463.22C1315.16 2465.92 1315.7 2469.11 1315.93 2472.39C1316.53 2480.86 1315.02 2489.82 1314.42 2492.94L1287.63 2514.54L1274.57 2419.93C1274.39 2418.58 1273.39 2417.46 1272.05 2417.09C1270.71 2416.73 1269.27 2417.18 1268.4 2418.25L1256.55 2432.77C1255.98 2433.47 1255.71 2434.37 1255.8 2435.27L1266.23 2535.16L1263.93 2536.6L1250.35 2440.25C1250.19 2439.09 1249.43 2438.09 1248.35 2437.6C1247.27 2437.11 1246.01 2437.2 1245.01 2437.84L1206.35 2462.39C1205.05 2463.21 1204.45 2464.78 1204.89 2466.23L1233.66 2562.65L1195.13 2570.71C1197.6 2563.88 1201.35 2552.09 1202.83 2540C1204.07 2529.81 1201.9 2524.83 1198.6 2519.42C1195.78 2514.78 1191.92 2509.77 1189.03 2499.54C1183.49 2479.96 1187.09 2472.15 1187.09 2472.15C1187.54 2471.26 1187.58 2470.21 1187.19 2469.29C1186.8 2468.37 1186.01 2467.66 1185.04 2467.35L1170.37 2462.69C1169.36 2462.37 1168.25 2462.52 1167.37 2463.1C1166.49 2463.68 1165.92 2464.62 1165.82 2465.66L1156.94 2566.16L1143.22 2553.06C1143.11 2548.67 1142.07 2536.25 1134.19 2528.01C1125.86 2519.3 1124.37 2505.3 1123.02 2488.4C1121.63 2471.19 1123.13 2463.09 1123.13 2463.09C1123.3 2462.21 1123.11 2461.28 1122.59 2460.54L1103.44 2432.79C1102.37 2431.23 1100.2 2430.82 1098.61 2431.87L1079.23 2444.73C1078.45 2445.25 1077.92 2446.04 1077.75 2446.95C1077.75 2446.95 1069.44 2491.37 1077.61 2517.67C1082.92 2534.81 1086.5 2546.4 1088.29 2552.21L1067.32 2552.49L1066.17 2534.96L1063.3 2432.71C1063.26 2431.4 1062.46 2430.22 1061.24 2429.68C1060.02 2429.14 1058.6 2429.34 1057.57 2430.18L1015.36 2465.01C1014.66 2465.58 1014.22 2466.41 1014.13 2467.3L1001.52 2592.8L997.954 2589.96C998.327 2589.45 998.56 2588.82 998.597 2588.16L1004.59 2477.7C1004.65 2476.55 1004.12 2475.44 1003.18 2474.76C1002.23 2474.07 1001 2473.9 999.903 2474.3L983.436 2480.26C982.223 2480.7 981.36 2481.76 981.184 2483.02L968.666 2573.36C968.502 2574.55 968.981 2575.74 969.93 2576.49L982.135 2586.2L960.958 2588.95L957.397 2569.6C957.378 2569.5 957.351 2569.39 957.321 2569.28C957.321 2569.28 943.16 2519.89 936.234 2500.17C933.849 2493.39 935.759 2487.19 938.799 2482.19C943.682 2474.15 951.504 2469 951.504 2469C952.75 2468.18 953.326 2466.67 952.929 2465.25C952.532 2463.82 951.256 2462.81 949.759 2462.73L935.592 2461.96C934.07 2461.88 932.67 2462.78 932.137 2464.18L903.273 2539.93L897.335 2527.23L932.706 2456.69C933.219 2455.67 933.182 2454.46 932.606 2453.47C932.027 2452.48 930.991 2451.83 929.833 2451.75L922.54 2451.23C921.264 2451.14 920.037 2451.75 919.349 2452.81L866.422 2534.51L847.76 2502.45L906.658 2431.67C907.286 2430.91 907.558 2429.93 907.404 2428.96C907.249 2428 906.682 2427.14 905.849 2426.61L880.337 2410.44C878.891 2409.52 876.979 2409.78 875.839 2411.05L838.534 2452.54C838.143 2452.97 837.87 2453.49 837.743 2454.06L829.793 2489.08L814.847 2470.77C816.038 2463.64 821.275 2433.15 825.288 2423.52C825.801 2422.29 826.061 2420.42 825.898 2418.01C825.707 2415.25 825.001 2411.56 823.882 2407.25C816.811 2379.97 793.19 2326.07 793.19 2326.07L791.808 2322.92L785.407 2325.64L786.789 2328.79C786.789 2328.79 804.693 2369.61 813.856 2397.89C816.156 2404.99 817.905 2411.29 818.635 2415.88C819.002 2418.2 819.245 2419.94 818.839 2420.92C814.138 2432.19 807.718 2471.18 807.718 2471.18C807.56 2472.14 807.824 2473.12 808.442 2473.88L828.898 2498.93C829.738 2499.96 831.099 2500.42 832.405 2500.12C833.709 2499.82 834.724 2498.81 835.018 2497.53L844.35 2456.42L879.076 2417.8L898.79 2430.3L840.846 2499.93C839.928 2501.03 839.798 2502.57 840.516 2503.8L863.239 2542.85C863.846 2543.89 864.961 2544.54 866.179 2544.57C867.401 2544.6 868.547 2544 869.201 2542.99L922.54 2460.64ZM922.877 2460.79C922.819 2460.66 922.762 2460.53 922.704 2460.39L924.11 2458.22L924.165 2458.22L922.877 2460.79ZM987.206 2490.33L987.809 2491.02C987.809 2491.02 987.646 2490.08 987.419 2488.79L987.809 2485.98L997.345 2482.53L991.789 2584.94L991.668 2584.96L975.84 2572.37L987.206 2490.33ZM989.655 2490.67C988.955 2490.91 988.422 2490.98 988.113 2491.01C988.652 2490.98 989.17 2490.86 989.655 2490.67ZM987.285 2575.05L991.619 2495.15L981.217 2570.22L987.285 2575.05ZM935.586 2474.66L937.765 2468.95L940.605 2469.1C938.968 2470.68 937.229 2472.55 935.586 2474.66ZM841.635 2491.11L891.258 2431.48L879.973 2424.33L848.966 2458.81L841.635 2491.11ZM1375.54 2399.44C1376.14 2394.84 1376.69 2390.58 1376.91 2388.83C1375.64 2382.59 1371.41 2358.45 1376.98 2339.18C1378.34 2334.48 1378.61 2330.59 1378.31 2327.47L1370.99 2335.94L1375.54 2399.44ZM1281.68 2434.62L1291.4 2505.04C1297.65 2500 1306.38 2492.96 1309.81 2490.2C1310.45 2486.41 1311.38 2479.41 1310.91 2472.75C1310.72 2470.03 1310.31 2467.36 1309.39 2465.12C1308.94 2464.02 1308.45 2462.98 1307.49 2462.45C1297.45 2456.98 1287.19 2442.98 1281.68 2434.62ZM1070.47 2508.81L1071.19 2534.72L1072.03 2547.39C1076.17 2547.34 1081.5 2547.27 1081.5 2547.27C1079.5 2540.77 1076.59 2531.38 1072.8 2519.16C1071.8 2515.94 1071.03 2512.45 1070.47 2508.81Z" fill="black"/>
<path fill-rule="evenodd" clip-rule="evenodd" d="M1193.76 2586.2L1205.97 2576.49C1206.91 2575.74 1207.39 2574.55 1207.23 2573.36L1194.71 2483.02C1194.54 2481.76 1193.67 2480.7 1192.46 2480.26L1175.99 2474.3C1174.89 2473.9 1173.66 2474.07 1172.72 2474.76C1171.78 2475.44 1171.25 2476.55 1171.31 2477.7L1177.3 2588.16C1177.33 2588.82 1177.57 2589.45 1177.94 2589.96C1175.78 2591.68 1174.37 2592.8 1174.37 2592.8L1161.76 2467.3C1161.68 2466.41 1161.23 2465.58 1160.54 2465.01L1118.32 2430.18C1117.3 2429.34 1115.87 2429.14 1114.65 2429.68C1113.43 2430.22 1112.64 2431.4 1112.6 2432.71L1109.73 2534.96L1108.57 2552.49L1087.61 2552.21C1089.39 2546.4 1092.97 2534.81 1098.29 2517.67C1106.45 2491.37 1098.15 2446.95 1098.15 2446.95C1097.98 2446.04 1097.44 2445.25 1096.67 2444.73L1077.28 2431.87C1075.69 2430.82 1073.53 2431.23 1072.45 2432.79L1053.3 2460.54C1052.79 2461.28 1052.59 2462.21 1052.76 2463.09C1052.76 2463.09 1054.26 2471.19 1052.88 2488.4C1051.52 2505.3 1050.03 2519.3 1041.7 2528.01C1033.83 2536.25 1032.79 2548.67 1032.68 2553.06L1018.95 2566.16L1010.07 2465.66C1009.98 2464.62 1009.41 2463.68 1008.52 2463.1C1007.64 2462.52 1006.54 2462.37 1005.53 2462.69L990.851 2467.35C989.884 2467.66 989.099 2468.37 988.708 2469.29C988.314 2470.21 988.35 2471.26 988.805 2472.15C988.805 2472.15 992.409 2479.96 986.865 2499.54C983.97 2509.77 980.118 2514.78 977.29 2519.42C973.993 2524.83 971.825 2529.81 973.068 2540C974.544 2552.09 978.29 2563.88 980.761 2570.71L942.231 2562.65L971.004 2466.23C971.44 2464.78 970.846 2463.21 969.549 2462.39L930.886 2437.84C929.886 2437.2 928.625 2437.11 927.543 2437.6C926.461 2438.09 925.706 2439.09 925.542 2440.25L911.967 2536.6L909.666 2535.16L920.093 2435.27C920.187 2434.37 919.917 2433.47 919.344 2432.77L907.496 2418.25C906.623 2417.18 905.186 2416.73 903.844 2417.09C902.504 2417.46 901.51 2418.58 901.322 2419.93L888.267 2514.54L861.474 2492.94C860.873 2489.82 859.361 2480.86 859.964 2472.39C860.198 2469.11 860.74 2465.92 861.846 2463.22C862.759 2460.98 864.038 2459.1 865.999 2458.03C879.829 2450.49 893.947 2425.58 893.947 2425.58C894.484 2424.62 894.523 2423.48 894.06 2422.49L877.65 2387.49C876.98 2386.06 875.407 2385.27 873.834 2385.56C872.261 2385.86 871.094 2387.17 871.006 2388.74C871.006 2388.74 870.339 2402.32 862.052 2409.89C854.254 2417.02 831.609 2438.82 824.765 2445.42L809.765 2435.99L817.127 2333.31C817.191 2332.41 816.894 2331.53 816.303 2330.84L798.026 2309.71C797.42 2309.01 796.556 2308.58 795.626 2308.51C794.695 2308.44 793.777 2308.75 793.073 2309.35C793.073 2309.35 780.731 2319.48 787.372 2342.45C793.073 2362.19 786.954 2387.69 786.954 2387.69C786.86 2388.09 786.839 2388.5 786.89 2388.9L790.934 2420.23L797.85 2419.36L797.411 2415.96L793.883 2388.63C794.792 2384.43 799.669 2359.92 794.077 2340.58C790.643 2328.71 793.304 2321.15 795.51 2317.39L810.071 2334.22L802.664 2437.54C802.576 2438.79 803.188 2439.99 804.264 2440.67L823.35 2452.67C824.72 2453.53 826.508 2453.35 827.669 2452.23C827.669 2452.23 857.597 2423.32 866.796 2414.92C871.448 2410.67 874.182 2404.89 875.78 2399.87L886.982 2423.77C883.939 2428.96 873.27 2446.23 862.622 2452.03C857.824 2454.65 855.018 2459.89 853.766 2466.14C851.232 2478.79 854.893 2495.55 854.893 2495.55C855.06 2496.3 855.484 2496.98 856.091 2497.47L888.674 2523.73C889.653 2524.52 890.986 2524.72 892.159 2524.27C893.335 2523.82 894.169 2522.77 894.338 2521.54C894.338 2521.54 903.862 2452.51 907.138 2428.77L913.012 2435.96L902.513 2536.57C902.377 2537.86 902.995 2539.12 904.107 2539.81L912.803 2545.26C913.803 2545.88 915.061 2545.96 916.137 2545.48C917.216 2544.99 917.965 2543.99 918.126 2542.83L931.698 2446.51L963.581 2466.76L934.484 2564.26C934.208 2565.18 934.335 2566.17 934.832 2566.99C935.329 2567.81 936.151 2568.39 937.103 2568.58L985.565 2578.73C986.835 2579 988.15 2578.55 988.978 2577.56C989.805 2576.58 990.005 2575.22 989.502 2574.05C989.502 2574.05 982.158 2556.95 979.991 2539.19C979.009 2531.15 980.67 2527.21 983.27 2522.95C986.335 2517.91 990.445 2512.47 993.582 2501.38C997.771 2486.59 997.183 2477.48 996.225 2472.85L1003.51 2470.54L1012.64 2573.94C1012.76 2575.26 1013.64 2576.39 1014.9 2576.85C1016.16 2577.32 1017.57 2577.02 1018.54 2576.1L1038.58 2556.98C1039.3 2556.3 1039.69 2555.35 1039.64 2554.36C1039.64 2554.36 1038.92 2540.93 1046.78 2532.71C1056.02 2523.04 1058.33 2507.69 1059.83 2488.94C1060.96 2474.85 1060.24 2466.45 1059.83 2463.29L1076.27 2439.47L1091.55 2449.61C1092.86 2457.14 1098.57 2493.29 1091.62 2515.67C1083.65 2541.36 1079.59 2554.59 1079.59 2554.59C1079.27 2555.62 1079.47 2556.74 1080.12 2557.6C1080.76 2558.47 1081.79 2558.99 1082.88 2559.01L1111.79 2559.39C1113.65 2559.41 1115.2 2558 1115.32 2556.18L1116.69 2535.33C1116.69 2535.29 1116.69 2535.25 1116.69 2535.21L1119.37 2439.99L1154.97 2469.37L1168.07 2599.8C1168.19 2601.06 1169.01 2602.14 1170.19 2602.63C1171.37 2603.11 1172.73 2602.92 1173.73 2602.13L1186.28 2592.15L1217.32 2596.17C1219.16 2596.42 1220.87 2595.19 1221.21 2593.39L1225.33 2570.99C1226.21 2567.93 1239.59 2521.38 1246.25 2502.41C1247.25 2499.56 1247.7 2496.78 1247.72 2494.11L1269.03 2550.05C1269.52 2551.34 1270.76 2552.22 1272.17 2552.27C1273.58 2552.32 1274.87 2551.53 1275.46 2550.28L1285.59 2528.61C1286.03 2527.67 1286.01 2526.59 1285.55 2525.66L1251.73 2458.22L1251.78 2458.22L1306.69 2542.99C1307.35 2544 1308.49 2544.6 1309.72 2544.57C1310.93 2544.54 1312.05 2543.89 1312.66 2542.85L1335.38 2503.8C1336.1 2502.57 1335.97 2501.03 1335.05 2499.93L1277.11 2430.3L1296.82 2417.8L1331.54 2456.42L1340.88 2497.53C1341.17 2498.81 1342.19 2499.82 1343.49 2500.12C1344.8 2500.42 1346.16 2499.96 1347 2498.93L1367.45 2473.88C1368.07 2473.12 1368.33 2472.14 1368.18 2471.18C1368.18 2471.18 1361.76 2432.19 1357.06 2420.92C1356.65 2419.94 1356.89 2418.2 1357.26 2415.88C1357.99 2411.29 1359.74 2404.99 1362.04 2397.89C1371.2 2369.61 1389.11 2328.79 1389.11 2328.79L1390.49 2325.64L1384.09 2322.92L1382.7 2326.07C1382.7 2326.07 1359.08 2379.97 1352.01 2407.25C1350.89 2411.56 1350.19 2415.25 1350 2418.01C1349.83 2420.42 1350.09 2422.29 1350.61 2423.52C1354.62 2433.15 1359.86 2463.64 1361.05 2470.77L1346.1 2489.08L1338.15 2454.06C1338.03 2453.49 1337.75 2452.97 1337.36 2452.54L1300.06 2411.05C1298.92 2409.78 1297 2409.52 1295.56 2410.44L1270.05 2426.61C1269.21 2427.14 1268.65 2428 1268.49 2428.96C1268.34 2429.93 1268.61 2430.91 1269.24 2431.67L1328.14 2502.45L1309.47 2534.51L1256.55 2452.81C1255.86 2451.75 1254.63 2451.14 1253.35 2451.23L1246.06 2451.75C1244.9 2451.83 1243.87 2452.48 1243.29 2453.47C1242.71 2454.46 1242.68 2455.67 1243.19 2456.69L1278.56 2527.23L1272.62 2539.93L1243.76 2464.18C1243.23 2462.78 1241.82 2461.88 1240.3 2461.96L1226.14 2462.73C1224.64 2462.81 1223.36 2463.82 1222.97 2465.25C1222.57 2466.67 1223.15 2468.18 1224.39 2469C1224.39 2469 1232.21 2474.15 1237.1 2482.19C1240.14 2487.19 1242.05 2493.39 1239.66 2500.17C1232.73 2519.89 1218.57 2569.28 1218.57 2569.28C1218.54 2569.39 1218.52 2569.5 1218.5 2569.6L1214.94 2588.95L1193.76 2586.2ZM1240.31 2474.66C1238.67 2472.55 1236.93 2470.68 1235.29 2469.1L1238.13 2468.95L1240.31 2474.66ZM1184.23 2584.96L1184.11 2584.94L1178.55 2482.53L1188.09 2485.98L1200.05 2572.37C1200.05 2572.37 1191.47 2579.2 1184.23 2584.96Z" fill="#A4A4A4"/>
<path fill-rule="evenodd" clip-rule="evenodd" d="M897.008 2416.92C898.033 2414.67 900.024 2412.92 902.518 2412.24C905.786 2411.35 909.271 2412.47 911.393 2415.07L923.241 2429.59C924.12 2430.67 924.711 2431.92 924.978 2433.26C925.139 2433.17 925.305 2433.09 925.472 2433.01C928.097 2431.83 931.155 2432.05 933.583 2433.59L972.246 2458.14C975.459 2460.18 976.902 2464.06 975.826 2467.67L948.616 2558.84L973.222 2564C971.188 2557.32 969.103 2549.03 968.072 2540.62C966.633 2528.82 969.179 2523.07 972.992 2516.8C975.647 2512.44 979.305 2507.77 982.024 2498.17C986.31 2483.03 984.312 2474.66 984.185 2474.16C983.182 2472 983.139 2469.51 984.076 2467.31C985.043 2465.05 986.955 2463.31 989.326 2462.55L1004 2457.89C1006.45 2457.12 1009.13 2457.48 1011.28 2458.88C1013.46 2460.31 1014.86 2462.64 1015.08 2465.21L1023.05 2555.3C1024.85 2553.58 1026.59 2551.92 1027.75 2550.81C1028.2 2544.68 1030.17 2532.78 1038.06 2524.53C1045.72 2516.53 1046.62 2503.53 1047.86 2488C1049.17 2471.7 1047.81 2464.02 1047.81 2464.03C1047.4 2461.82 1047.88 2459.54 1049.16 2457.68L1068.31 2429.93C1070.93 2426.13 1076.19 2425.11 1080.06 2427.68L1099.45 2440.54C1101.36 2441.81 1102.67 2443.78 1103.09 2446.01V2446.02C1103.09 2446.02 1105.4 2458.55 1106.39 2474.39L1107.57 2432.57C1107.66 2429.33 1109.61 2426.41 1112.62 2425.08C1115.58 2423.77 1119.04 2424.25 1121.52 2426.3L1163.74 2461.13C1165.46 2462.55 1166.55 2464.59 1166.77 2466.79L1167.42 2473.27C1168 2472.27 1168.79 2471.39 1169.76 2470.68C1172.05 2469.02 1175.04 2468.6 1177.7 2469.56L1194.17 2475.53C1197.15 2476.61 1199.27 2479.23 1199.69 2482.32L1212.21 2572.67C1212.62 2575.62 1211.45 2578.56 1209.1 2580.43L1206.2 2582.74L1210.85 2583.34L1213.55 2568.69C1213.6 2568.42 1213.66 2568.16 1213.74 2567.9C1213.74 2567.9 1227.96 2518.3 1234.91 2498.51C1236.73 2493.33 1235.11 2488.62 1232.79 2484.8C1228.5 2477.73 1221.62 2473.21 1221.63 2473.21C1218.54 2471.18 1217.14 2467.42 1218.12 2463.9C1219.09 2460.41 1222.2 2457.9 1225.86 2457.7L1238.01 2457.04C1237.54 2454.99 1237.85 2452.81 1238.94 2450.94C1240.35 2448.52 1242.88 2446.94 1245.7 2446.73L1253 2446.21C1256.11 2445.99 1259.09 2447.48 1260.77 2450.08L1309.24 2524.9L1322.01 2502.96L1265.37 2434.89C1263.81 2433.01 1263.14 2430.56 1263.52 2428.17C1263.9 2425.78 1265.29 2423.67 1267.35 2422.36L1292.86 2406.19C1296.38 2403.96 1301.03 2404.6 1303.8 2407.68L1341.1 2449.17C1342.07 2450.25 1342.74 2451.55 1343.06 2452.95L1348.73 2477.91L1355.7 2469.36C1354.07 2459.72 1349.55 2434.06 1345.96 2425.46C1345.24 2423.71 1344.74 2421.08 1344.98 2417.67C1345.18 2414.67 1345.93 2410.67 1347.14 2405.99C1354.28 2378.46 1378.1 2324.05 1378.1 2324.05L1379.48 2320.9C1380.59 2318.38 1383.52 2317.22 1386.05 2318.29L1392.45 2321.01C1393.69 2321.53 1394.67 2322.53 1395.16 2323.78C1395.66 2325.03 1395.64 2326.43 1395.1 2327.66L1393.72 2330.81C1393.72 2330.81 1375.93 2371.35 1366.83 2399.44C1364.62 2406.25 1362.93 2412.27 1362.23 2416.67C1362.08 2417.66 1361.94 2419 1361.89 2419.45C1366.68 2431.56 1373.14 2470.37 1373.14 2470.37V2470.37C1373.53 2472.75 1372.88 2475.18 1371.35 2477.06L1350.89 2502.11C1348.85 2504.61 1345.54 2505.75 1342.37 2505.03C1341.73 2504.88 1341.13 2504.67 1340.56 2504.39C1340.36 2505.06 1340.09 2505.71 1339.73 2506.33L1317 2545.38C1315.53 2547.92 1312.81 2549.53 1309.83 2549.6C1306.86 2549.67 1304.07 2548.19 1302.47 2545.72L1290.91 2527.88C1290.83 2528.86 1290.57 2529.83 1290.14 2530.74L1280.02 2552.41C1278.58 2555.48 1275.43 2557.42 1271.99 2557.3C1268.55 2557.18 1265.54 2555.01 1264.33 2551.84L1248.71 2510.85C1241.73 2532.15 1231.01 2569.41 1230.17 2572.35C1230.14 2572.51 1226.15 2594.3 1226.15 2594.3C1225.34 2598.71 1221.18 2601.75 1216.67 2601.17L1187.75 2597.41L1176.86 2606.07C1174.44 2607.99 1171.14 2608.46 1168.27 2607.28C1165.36 2606.08 1163.37 2603.39 1163.06 2600.3L1150.17 2471.93L1124.11 2450.43L1121.72 2535.35C1121.72 2535.45 1121.72 2535.56 1121.71 2535.67L1120.34 2556.51C1120.05 2560.98 1116.28 2564.48 1111.73 2564.42L1082.81 2564.04C1080.15 2564 1077.65 2562.73 1076.08 2560.61C1074.47 2558.45 1073.99 2555.67 1074.78 2553.11C1074.78 2553.1 1078.84 2539.87 1086.82 2514.17C1093.02 2494.19 1088.63 2462.83 1086.95 2452.59C1084.66 2451.08 1080.65 2448.42 1077.6 2446.4C1073.9 2451.77 1067.55 2460.97 1065.04 2464.6C1065.44 2468.83 1065.84 2476.97 1064.85 2489.35C1063.23 2509.47 1060.33 2525.81 1050.41 2536.19C1043.93 2542.97 1044.66 2554.09 1044.66 2554.09C1044.66 2554.11 1044.67 2554.12 1044.67 2554.13C1044.78 2556.56 1043.83 2558.93 1042.06 2560.62L1022.01 2579.74C1019.67 2581.98 1016.23 2582.7 1013.16 2581.58C1010.06 2580.44 1007.92 2577.63 1007.63 2574.38L1000.53 2493.99C1000 2496.68 999.316 2499.6 998.425 2502.75C995.109 2514.47 990.808 2520.25 987.568 2525.57C985.485 2528.98 984.2 2532.14 984.985 2538.58C987.067 2555.64 994.124 2572.06 994.124 2572.06C995.378 2574.98 994.884 2578.35 992.832 2580.8C990.82 2583.2 987.622 2584.31 984.534 2583.66L936.068 2573.51C933.75 2573.02 931.743 2571.6 930.528 2569.59C929.294 2567.56 928.979 2565.1 929.661 2562.82L957.67 2468.97L935.592 2454.95L923.111 2543.54C922.708 2546.39 920.874 2548.85 918.222 2550.06C915.609 2551.25 912.56 2551.04 910.132 2549.52L901.436 2544.08C898.684 2542.36 897.175 2539.24 897.508 2536.05L898.724 2524.38C897.842 2526.45 896.15 2528.12 893.974 2528.96C891.122 2530.07 887.888 2529.56 885.518 2527.65L852.935 2501.39C851.431 2500.18 850.392 2498.5 849.979 2496.63L849.976 2496.62C849.976 2496.62 846.118 2478.68 848.831 2465.15C850.404 2457.31 854.189 2450.9 860.212 2447.61C868.875 2442.89 877.416 2429.87 881.292 2423.49C880.004 2420.74 877.822 2416.09 875.818 2411.81C874.279 2414.26 872.421 2416.59 870.19 2418.63C861.015 2427.02 831.163 2455.85 831.163 2455.85C828.347 2458.57 823.995 2459.02 820.67 2456.93L801.587 2444.93C798.926 2443.26 797.422 2440.28 797.644 2437.18L798.565 2424.34C798.535 2424.35 798.504 2424.35 798.474 2424.36L791.557 2425.22C788.808 2425.57 786.296 2423.62 785.941 2420.87L781.898 2389.55C781.767 2388.54 781.822 2387.51 782.058 2386.52L782.061 2386.52C782.061 2386.52 787.914 2362.46 782.537 2343.85C774.945 2317.59 789.357 2305.88 789.845 2305.49C791.542 2304.05 793.752 2303.33 795.989 2303.49C798.256 2303.66 800.359 2304.71 801.832 2306.42L820.109 2327.55C821.576 2329.25 822.304 2331.45 822.146 2333.67C822.146 2333.67 814.999 2433.34 814.999 2433.33L824.11 2439.07C833.003 2430.5 851.707 2412.53 858.657 2406.18C865.562 2399.87 865.98 2388.49 865.98 2388.49C865.98 2388.48 865.98 2388.47 865.98 2388.46C866.198 2384.59 869.038 2381.34 872.903 2380.61C876.74 2379.9 880.571 2381.87 882.208 2385.36L897.008 2416.92ZM1252.54 2459.39L1306.69 2542.99C1307.35 2544 1308.49 2544.6 1309.72 2544.57C1310.93 2544.54 1312.05 2543.89 1312.66 2542.85L1335.38 2503.8C1336.1 2502.57 1335.97 2501.03 1335.05 2499.93L1277.1 2430.3L1296.82 2417.8L1331.54 2456.42L1340.88 2497.53C1341.17 2498.81 1342.19 2499.82 1343.49 2500.12C1344.8 2500.42 1346.16 2499.96 1347 2498.93L1367.45 2473.88C1368.07 2473.12 1368.33 2472.14 1368.18 2471.18C1368.18 2471.18 1361.76 2432.19 1357.06 2420.92C1356.65 2419.94 1356.89 2418.2 1357.26 2415.88C1357.99 2411.29 1359.74 2404.99 1362.04 2397.89C1371.2 2369.61 1389.11 2328.79 1389.11 2328.79L1390.49 2325.64L1384.09 2322.92L1382.7 2326.07C1382.7 2326.07 1359.08 2379.97 1352.01 2407.25C1350.89 2411.56 1350.19 2415.25 1350 2418.01C1349.83 2420.42 1350.09 2422.29 1350.61 2423.52C1354.62 2433.15 1359.86 2463.64 1361.05 2470.77L1346.1 2489.08L1338.15 2454.06C1338.02 2453.49 1337.75 2452.97 1337.36 2452.54L1300.06 2411.05C1298.92 2409.78 1297 2409.52 1295.56 2410.44L1270.05 2426.61C1269.21 2427.14 1268.65 2428 1268.49 2428.96C1268.34 2429.93 1268.61 2430.91 1269.24 2431.67L1328.13 2502.45L1309.47 2534.51L1256.55 2452.81C1255.86 2451.75 1254.63 2451.14 1253.35 2451.23L1246.06 2451.75C1244.9 2451.83 1243.87 2452.48 1243.29 2453.47C1242.71 2454.46 1242.68 2455.67 1243.19 2456.69L1278.56 2527.23L1272.62 2539.93L1243.76 2464.18C1243.22 2462.78 1241.82 2461.88 1240.3 2461.96L1226.14 2462.73C1224.64 2462.81 1223.36 2463.82 1222.97 2465.25C1222.57 2466.67 1223.14 2468.18 1224.39 2469C1224.39 2469 1232.21 2474.15 1237.1 2482.19C1240.14 2487.19 1242.05 2493.39 1239.66 2500.17C1232.73 2519.89 1218.57 2569.28 1218.57 2569.28C1218.54 2569.39 1218.52 2569.5 1218.5 2569.6L1214.94 2588.95L1193.76 2586.2L1205.96 2576.49C1206.91 2575.74 1207.39 2574.55 1207.23 2573.36L1194.71 2483.02C1194.53 2481.76 1193.67 2480.7 1192.46 2480.26L1175.99 2474.3C1174.89 2473.9 1173.66 2474.07 1172.72 2474.76C1171.78 2475.44 1171.24 2476.55 1171.31 2477.7L1177.3 2588.16C1177.33 2588.82 1177.57 2589.45 1177.94 2589.96L1174.37 2592.8L1161.76 2467.3C1161.68 2466.41 1161.23 2465.58 1160.54 2465.01L1118.32 2430.18C1117.3 2429.34 1115.87 2429.14 1114.65 2429.68C1113.43 2430.22 1112.63 2431.4 1112.6 2432.71L1109.73 2534.96L1108.57 2552.49L1087.61 2552.21C1089.39 2546.4 1092.97 2534.81 1098.29 2517.67C1106.45 2491.37 1098.15 2446.95 1098.15 2446.95C1097.98 2446.04 1097.44 2445.25 1096.67 2444.73L1077.28 2431.87C1075.69 2430.82 1073.53 2431.23 1072.45 2432.79L1053.3 2460.54C1052.79 2461.28 1052.59 2462.21 1052.76 2463.09C1052.76 2463.09 1054.26 2471.19 1052.88 2488.4C1051.52 2505.3 1050.03 2519.3 1041.7 2528.01C1033.83 2536.25 1032.79 2548.67 1032.67 2553.06L1018.95 2566.16L1010.07 2465.66C1009.98 2464.62 1009.41 2463.68 1008.52 2463.1C1007.64 2462.52 1006.54 2462.37 1005.53 2462.69L990.85 2467.35C989.883 2467.66 989.098 2468.37 988.707 2469.29C988.313 2470.21 988.35 2471.26 988.804 2472.15C988.804 2472.15 992.408 2479.96 986.864 2499.54C983.97 2509.77 980.117 2514.78 977.29 2519.42C973.992 2524.83 971.825 2529.81 973.067 2540C974.543 2552.09 978.29 2563.88 980.76 2570.71L942.23 2562.65L971.003 2466.23C971.44 2464.78 970.846 2463.21 969.548 2462.39L930.885 2437.84C929.885 2437.2 928.624 2437.11 927.542 2437.6C926.46 2438.09 925.705 2439.09 925.542 2440.25L911.966 2536.6L909.665 2535.16L920.092 2435.27C920.186 2434.37 919.916 2433.47 919.343 2432.77L907.495 2418.25C906.622 2417.18 905.186 2416.73 903.843 2417.09C902.503 2417.46 901.509 2418.58 901.321 2419.93L888.267 2514.54L861.473 2492.94C860.873 2489.82 859.36 2480.86 859.963 2472.39C860.197 2469.11 860.739 2465.92 861.846 2463.22C862.758 2460.98 864.037 2459.1 865.998 2458.03C879.828 2450.49 893.947 2425.58 893.947 2425.58C894.483 2424.62 894.523 2423.48 894.059 2422.49L877.649 2387.49C876.979 2386.06 875.406 2385.27 873.833 2385.56C872.26 2385.86 871.093 2387.17 871.005 2388.74C871.005 2388.74 870.339 2402.32 862.052 2409.89C854.253 2417.02 831.609 2438.82 824.765 2445.42L809.764 2435.99L817.127 2333.31C817.19 2332.41 816.893 2331.53 816.302 2330.84L798.025 2309.71C797.419 2309.01 796.555 2308.58 795.625 2308.51C794.694 2308.44 793.776 2308.75 793.073 2309.35C793.073 2309.35 780.731 2319.48 787.372 2342.45C793.073 2362.19 786.953 2387.69 786.953 2387.69C786.859 2388.09 786.838 2388.5 786.89 2388.9L790.933 2420.23L797.85 2419.36L797.41 2415.96L793.882 2388.63C794.791 2384.43 799.668 2359.92 794.076 2340.58C790.642 2328.71 793.303 2321.15 795.51 2317.39L810.071 2334.22L802.663 2437.54C802.575 2438.79 803.187 2439.99 804.263 2440.67L823.349 2452.67C824.719 2453.53 826.508 2453.35 827.668 2452.23C827.668 2452.23 857.596 2423.32 866.795 2414.92C871.448 2410.67 874.182 2404.89 875.779 2399.87L886.982 2423.77C883.939 2428.96 873.269 2446.23 862.622 2452.03C857.824 2454.65 855.017 2459.89 853.765 2466.14C851.231 2478.79 854.893 2495.55 854.893 2495.55C855.059 2496.3 855.484 2496.98 856.09 2497.47L888.673 2523.73C889.652 2524.52 890.985 2524.72 892.158 2524.27C893.335 2523.82 894.168 2522.77 894.338 2521.54L907.138 2428.77L913.012 2435.96L902.512 2536.57C902.376 2537.86 902.994 2539.12 904.107 2539.81L912.802 2545.25C913.803 2545.88 915.061 2545.96 916.137 2545.48C917.216 2544.99 917.964 2543.99 918.125 2542.83L931.698 2446.51L963.58 2466.76L934.483 2564.26C934.207 2565.18 934.335 2566.17 934.832 2566.99C935.329 2567.81 936.15 2568.39 937.102 2568.58L985.564 2578.73C986.834 2579 988.15 2578.55 988.977 2577.56C989.805 2576.58 990.005 2575.22 989.501 2574.05C989.501 2574.05 982.157 2556.95 979.99 2539.19C979.008 2531.15 980.669 2527.21 983.27 2522.95C986.334 2517.91 990.444 2512.47 993.581 2501.38C997.77 2486.59 997.182 2477.48 996.224 2472.85L1002.76 2470.78C1003.13 2473.19 1003.5 2475.57 1003.5 2475.57L1003.91 2475.13L1012.64 2573.94C1012.76 2575.26 1013.64 2576.39 1014.9 2576.85C1016.16 2577.32 1017.57 2577.02 1018.54 2576.1L1038.58 2556.98C1039.3 2556.3 1039.69 2555.35 1039.64 2554.36C1039.64 2554.36 1038.92 2540.93 1046.78 2532.71C1056.02 2523.04 1058.33 2507.69 1059.83 2488.94C1060.96 2474.85 1060.24 2466.45 1059.83 2463.29L1074.76 2441.65L1076.27 2444.5L1080.4 2442.33C1080.42 2442.31 1080.44 2442.28 1080.46 2442.25C1084.98 2445.25 1091.55 2449.61 1091.55 2449.61C1092.86 2457.14 1098.57 2493.29 1091.62 2515.67C1083.65 2541.36 1079.59 2554.59 1079.59 2554.59C1079.27 2555.62 1079.47 2556.74 1080.12 2557.6C1080.76 2558.47 1081.79 2558.99 1082.88 2559.01L1111.79 2559.39C1113.65 2559.41 1115.2 2558 1115.32 2556.18L1116.69 2535.33C1116.69 2535.29 1116.69 2535.25 1116.69 2535.21L1119.23 2444.89L1119.37 2445.03L1120.76 2441.14L1154.97 2469.37L1168.07 2599.8C1168.19 2601.06 1169.01 2602.14 1170.19 2602.63C1171.37 2603.11 1172.73 2602.92 1173.73 2602.13L1186.28 2592.15L1217.32 2596.17C1219.16 2596.42 1220.87 2595.19 1221.2 2593.39L1225.33 2570.99C1226.21 2567.93 1239.59 2521.38 1246.25 2502.41C1247.25 2499.56 1247.7 2496.78 1247.72 2494.11L1269.03 2550.05C1269.52 2551.34 1270.76 2552.22 1272.17 2552.27C1273.58 2552.32 1274.87 2551.53 1275.46 2550.28L1285.59 2528.61C1286.02 2527.67 1286.01 2526.59 1285.55 2525.66L1252.47 2459.69C1252.49 2459.59 1252.52 2459.49 1252.54 2459.39ZM1252.17 2458.82C1252.16 2458.9 1252.16 2458.98 1252.15 2459.06L1251.73 2458.22L1251.78 2458.22L1252.17 2458.82ZM1240.31 2474.66C1238.67 2472.55 1236.93 2470.68 1235.29 2469.1L1238.13 2468.95L1240.31 2474.66ZM1184.23 2584.96L1184.11 2584.94L1178.55 2482.53L1188.09 2485.98L1200.05 2572.37L1184.23 2584.96ZM1186.24 2490.67C1186.72 2490.86 1187.24 2490.98 1187.78 2491.01C1187.47 2490.98 1186.94 2490.91 1186.24 2490.67ZM1188.61 2575.05L1194.68 2570.22L1184.28 2495.15L1188.61 2575.05ZM800.35 2399.44L804.903 2335.94C804.903 2335.94 797.58 2327.47 797.583 2327.47C797.286 2330.59 797.553 2334.48 798.91 2339.18C804.481 2358.45 800.253 2382.59 798.98 2388.83C799.208 2390.58 799.756 2394.84 800.35 2399.44ZM894.217 2434.62C888.703 2442.98 878.443 2456.98 868.408 2462.45C867.441 2462.98 866.953 2464.02 866.504 2465.12C865.586 2467.36 865.177 2470.03 864.983 2472.75C864.51 2479.41 865.446 2486.41 866.089 2490.2C869.514 2492.96 878.243 2500 884.499 2505.04L894.217 2434.62ZM1334.26 2491.11L1326.93 2458.81L1295.92 2424.33L1284.64 2431.48L1334.26 2491.11ZM1105.43 2508.81C1104.86 2512.45 1104.1 2515.94 1103.1 2519.16C1099.3 2531.38 1096.4 2540.77 1094.39 2547.27L1103.87 2547.39L1104.7 2534.72L1105.43 2508.81Z" fill="white"/>
<path fill-rule="evenodd" clip-rule="evenodd" d="M896.581 2511.85C891.8 2498.71 885.536 2477.69 885.536 2477.69L899.586 2492.53L902.676 2472.67L915.712 2476.33L910.613 2509.11C913.799 2515.6 918.456 2524.13 923.39 2534.53L923.392 2499.89C923.394 2496.33 924.966 2493.11 927.396 2491.69C929.825 2490.27 932.65 2490.92 934.59 2493.35L971.119 2539.05C971.747 2539.84 972.256 2540.78 972.618 2541.82C972.618 2541.82 987.523 2584.82 992.361 2598.34L998.372 2583.13C998.936 2581.7 999.78 2580.5 1000.81 2579.67L1025.77 2559.41L1024.88 2551.58C1024.61 2549.19 1025.07 2546.76 1026.16 2544.83C1027.25 2542.91 1028.87 2541.66 1030.66 2541.36L1069.73 2534.94C1073.32 2534.35 1076.61 2537.73 1077.13 2542.54L1086.15 2668.15L1092.99 2542.44C1093.47 2537.62 1096.74 2534.2 1100.33 2534.75L1139.45 2540.69C1141.23 2540.96 1142.87 2542.19 1143.97 2544.1C1145.07 2546.01 1145.54 2548.44 1145.29 2550.84L1144.46 2558.67L1169.56 2578.62C1170.6 2579.44 1171.45 2580.63 1172.02 2582.05L1178.13 2597.19C1182.88 2583.61 1197.49 2540.42 1197.49 2540.42C1197.84 2539.37 1198.35 2538.43 1198.97 2537.64L1235.18 2491.48C1237.1 2489.03 1239.92 2488.34 1242.36 2489.73C1244.8 2491.12 1246.4 2494.32 1246.42 2497.88L1246.66 2532.52C1251.53 2522.06 1256.12 2513.48 1259.26 2506.94L1253.94 2474.23L1266.95 2470.41L1270.18 2490.22L1284.12 2475.22C1284.12 2475.22 1278.01 2496.31 1273.32 2509.51L1284.79 2580C1285.23 2582.71 1284.71 2585.53 1283.38 2587.66L1245.88 2647.77C1244.08 2650.64 1241.15 2651.71 1238.53 2650.44C1236.61 2649.52 1235.15 2647.5 1234.5 2645.01L1215.2 2696.94C1214.09 2699.93 1211.83 2701.83 1209.35 2701.89C1206.87 2701.95 1204.57 2700.14 1203.38 2697.21L1191.89 2668.76C1191.21 2672.67 1190.02 2676.6 1188.43 2680.45C1180.4 2699.76 1161.74 2717.15 1161.74 2717.15C1159.86 2718.89 1157.44 2719.21 1155.34 2717.99L1121.16 2698.19C1121.05 2698.12 1120.93 2698.05 1120.82 2697.97C1120.61 2698.28 1120.38 2698.58 1120.15 2698.85C1118.72 2700.46 1116.87 2701.21 1115.02 2700.9L1085.59 2696.01L1056.18 2701.27C1054.34 2701.6 1052.48 2700.87 1051.05 2699.28C1050.81 2699.01 1050.58 2698.72 1050.37 2698.41C1050.26 2698.49 1050.14 2698.56 1050.03 2698.63L1015.99 2718.86C1013.9 2720.1 1011.48 2719.81 1009.58 2718.1C1009.58 2718.1 990.797 2700.93 982.644 2681.72C981.019 2677.9 979.805 2673.99 979.097 2670.08L967.801 2698.68C966.638 2701.62 964.349 2703.45 961.868 2703.43C959.384 2703.4 957.12 2701.52 955.99 2698.55L936.33 2646.87C935.691 2649.36 934.251 2651.4 932.34 2652.34C929.723 2653.64 926.784 2652.61 924.972 2649.76L887.052 2590.12C885.713 2588.01 885.176 2585.19 885.598 2582.48L896.581 2511.85ZM923.385 2571.44C918.112 2556.15 912.032 2544.42 906.729 2534.09L899.302 2581.84L923.379 2619.71L923.385 2571.44ZM936.703 2567.6C937.629 2570.45 938.519 2573.37 939.363 2576.36C947.127 2603.88 946.166 2623.34 945.269 2631.04L962.032 2675.12L984.062 2619.35C983.416 2615.07 982.34 2611.54 981.303 2608.71C978.182 2600.2 964.061 2559.51 961.093 2550.96L936.708 2520.44L936.703 2567.6ZM1048.85 2674.33L1043.67 2565.78L1040.27 2568.54L1048.85 2674.33ZM1027.94 2578.55L1009.27 2593.7L997.948 2622.36C998.581 2632.07 994.712 2639.19 989.647 2653.55C988.679 2656.3 988.859 2659.24 989.534 2662.17C990.495 2666.35 995.152 2675.3 997.422 2679.21C1002.78 2688.45 1010.08 2696.39 1014.09 2700.42L1039.98 2685.03L1027.94 2578.55ZM1056.59 2555.12L1061.57 2682.25L1078.4 2679.24L1064.88 2553.76L1056.59 2555.12ZM1121.73 2675.97L1130.02 2567.98L1126.6 2565.27L1121.73 2675.97ZM1113.61 2554.77L1105.31 2553.51L1092.65 2679.15L1109.5 2681.95L1113.61 2554.77ZM1142.43 2577.84L1131.11 2684.47L1157.11 2699.54C1161.09 2695.45 1168.34 2687.42 1173.63 2678.12C1175.87 2674.18 1181.27 2666.46 1182.2 2662.27C1182.86 2659.34 1183.01 2656.4 1182.03 2653.66C1176.86 2639.36 1172.15 2630.99 1172.71 2621.28L1161.19 2592.76L1142.43 2577.84ZM1233.58 2565.76L1233.25 2518.6L1209.08 2549.41C1206.17 2558.01 1192.33 2598.87 1189.27 2607.42C1188.25 2610.26 1187.19 2613.8 1186.58 2618.09L1208.99 2673.58L1225.45 2629.3C1224.5 2621.61 1223.41 2602.16 1230.98 2574.55C1231.8 2571.55 1232.67 2568.61 1233.58 2565.76ZM1246.92 2569.43L1247.26 2617.7L1271.08 2579.53L1263.32 2531.87C1258.09 2542.27 1252.09 2554.08 1246.92 2569.43Z" fill="#808080" stroke="white" stroke-width="4.30672" stroke-miterlimit="2" stroke-linejoin="round"/>
<path fill-rule="evenodd" clip-rule="evenodd" d="M1101.95 2430.66L1135.6 2439.46L1132.77 2528.47L1139.4 2448.57L1137.45 2439.8L1161.07 2443.96L1153.09 2509.4L1162.61 2457.59L1200.27 2480.9L1228.28 2526.7L1201.31 2477.33L1161.86 2451.48L1163.75 2438.98L1101.95 2430.66Z" fill="white"/>
<path fill-rule="evenodd" clip-rule="evenodd" d="M1068.98 2431.59L1077.13 2507.55L1066.23 2436.23L1038.44 2437.76L1042.98 2445.27L1045.74 2516.2L1039.96 2446.78L1036.42 2437.55L1009.47 2438.45L1068.98 2431.59Z" fill="white"/>
</g>
<path fill-rule="evenodd" clip-rule="evenodd" d="M1087.39 2304.64C1134.83 2325.64 1246.25 2431.36 1272.81 2476.3C1209.59 2523.18 1188.82 2582.66 1131.6 2603.79C1118.97 2608.45 1101.11 2595.3 1087.15 2599.04C1071.02 2594.98 1059.85 2609.41 1045.45 2604.79C984.974 2585.37 956.835 2528.52 896.871 2488.28C917.1 2447.14 1026.32 2324.66 1087.39 2304.64Z" stroke="white" stroke-width="14.4635" stroke-miterlimit="1.5" stroke-linecap="round" stroke-linejoin="round"/>
<path fill-rule="evenodd" clip-rule="evenodd" d="M1080.08 2230.5C1127.53 2251.5 1292.4 2424.79 1318.98 2469.72C1235.76 2446.71 1158.1 2515.6 1085.54 2583.28C1011.07 2510.72 926.059 2477.17 851.504 2483.07C871.732 2441.93 1019.03 2250.53 1080.08 2230.5Z" fill="#D50409" stroke="white" stroke-width="14.4635" stroke-miterlimit="1.5" stroke-linecap="round" stroke-linejoin="round"/>
<path fill-rule="evenodd" clip-rule="evenodd" d="M1088.77 2264.08C1084.89 2349.5 1084.31 2463.22 1092.45 2547.09C1119.61 2516.39 1152.35 2496.66 1182.66 2477.88C1157.26 2488.57 1124.87 2514.77 1109.75 2511.3C1092.1 2453.45 1096.04 2341 1088.77 2264.08Z" fill="white"/>
<path fill-rule="evenodd" clip-rule="evenodd" d="M1209.54 798.356C1160.9 791.813 966.351 791.813 917.715 798.356C903.301 800.296 917.715 837.617 917.715 837.617C1012.98 828.104 1110.33 828.497 1209.54 837.617C1209.54 837.617 1223.95 800.296 1209.54 798.356Z" fill="black" fill-opacity="0.3"/>
<path fill-rule="evenodd" clip-rule="evenodd" d="M1209.83 796.176C1215.41 796.883 1217.9 801.629 1218.22 808.17C1218.79 820.2 1211.96 838.555 1211.96 838.555C1211.54 839.64 1210.45 840.316 1209.3 840.21C1160.25 836.089 1111.69 834.188 1063.61 834.382C1014.6 834.581 966.103 836.966 918.148 841.958C916.195 842.153 914.352 841.019 913.645 839.189C913.645 839.189 906.511 820.426 907.014 808.092C907.33 800.374 910.566 794.977 917.144 794.11C941.571 790.963 1002.6 789.552 1063.63 789.987C1124.56 790.423 1185.48 792.686 1209.83 796.176ZM1209.24 800.536C1184.95 797.48 1124.28 796.475 1063.63 796.909C1003.06 797.342 942.496 799.207 918.286 802.603C916.972 802.784 916.434 803.857 916.088 805.134C915.549 807.121 915.536 809.583 915.759 812.211C916.397 819.729 919.107 828.432 920.667 832.956C967.829 828.559 1015.49 826.495 1063.63 826.881C1111.25 827.261 1159.31 830.039 1207.81 834.829C1209.29 830.787 1212.68 820.853 1213.46 812.375C1214.01 806.508 1213.81 801.189 1209.24 800.536Z" fill="black"/>
<path fill-rule="evenodd" clip-rule="evenodd" d="M1206.13 814.165C1158.93 810.539 970.145 810.539 922.951 814.165C908.964 815.241 922.951 835.929 922.951 835.929C1015.85 828.966 1110.28 829.169 1206.13 835.929C1206.13 835.929 1220.11 815.241 1206.13 814.165Z" fill="black" fill-opacity="0.56"/>
<path fill-rule="evenodd" clip-rule="evenodd" d="M1206.25 812.387C1212.76 812.844 1214.49 816.693 1214.15 821.348C1213.65 828.107 1207.79 837.052 1207.79 837.052C1207.38 837.645 1206.69 837.979 1205.98 837.928C1158.46 834.915 1111.31 833.587 1064.53 833.789C1017.04 833.994 969.931 835.781 923.217 839.46C921.951 839.555 920.73 838.964 920.019 837.912C920.019 837.912 916.456 832.622 914.528 827.054C913.398 823.795 912.882 820.439 913.485 817.757C914.31 814.09 916.799 811.115 922.684 810.671C946.332 808.963 1005.44 808.232 1064.54 808.591C1123.6 808.95 1182.64 810.393 1206.25 812.387ZM1205.98 815.946C1182.4 814.312 1123.47 813.943 1064.54 814.301C1005.65 814.658 946.768 815.743 923.221 817.662C922.046 817.754 921.201 817.951 920.711 818.497C920.17 819.1 920.205 819.98 920.282 820.909C920.615 824.894 923.261 829.737 924.795 832.25C971.009 829.015 1017.6 827.474 1064.54 827.781C1111.05 828.084 1157.91 830.202 1205.11 833.84C1206.56 831.573 1210.03 825.75 1210.46 821.045C1210.69 818.405 1209.67 816.253 1205.98 815.946Z" fill="black"/>
<path fill-rule="evenodd" clip-rule="evenodd" d="M1490.35 1111.89C1488.42 1112.84 1486.08 1112.06 1485.12 1110.13C1484.17 1108.21 1484.95 1105.87 1486.88 1104.91L1573.51 1061.14L1579.61 1026.21C1579.84 1024.87 1580.66 1023.71 1581.85 1023.04C1583.03 1022.37 1584.45 1022.26 1585.73 1022.74L1622.5 1036.98L1677.56 1010.12C1679.49 1009.17 1681.82 1009.95 1682.78 1011.88C1683.74 1013.8 1682.95 1016.14 1681.03 1017.1L1624.64 1045.65C1623.55 1046.2 1622.28 1046.26 1621.14 1045.82L1587.65 1033.2L1582.06 1064.95C1581.82 1066.37 1580.9 1067.59 1579.61 1068.24L1490.35 1111.89Z" fill="white"/>
<path fill-rule="evenodd" clip-rule="evenodd" d="M688.379 1085.86C690.309 1086.82 691.089 1089.16 690.139 1091.08C689.179 1093.01 686.839 1093.79 684.909 1092.84L595.639 1049.19C594.349 1048.54 593.429 1047.32 593.189 1045.9L587.609 1014.15L554.109 1026.77C552.969 1027.21 551.699 1027.15 550.609 1026.6L494.219 998.052C492.299 997.092 491.509 994.752 492.469 992.832C493.429 990.902 495.759 990.122 497.689 991.072L552.749 1017.93L589.519 1003.69C590.799 1003.21 592.219 1003.32 593.399 1003.99C594.589 1004.66 595.409 1005.82 595.639 1007.16L601.749 1042.09L688.379 1085.86Z" fill="white"/>
<path fill-rule="evenodd" clip-rule="evenodd" d="M408.922 1473.3L497.254 1417.83C497.838 1417.47 498.581 1417.52 499.118 1417.94C499.654 1418.36 499.872 1419.08 499.663 1419.73C492.362 1443.11 486.435 1467.03 481.261 1491.5C477.894 1507.44 474.824 1523.6 472.17 1540.08C468.954 1560.06 466.255 1580.46 464.101 1601.39C462.033 1621.48 460.398 1642.02 459.255 1663.11C459.681 1641.97 460.541 1621.36 462.003 1601.2C463.53 1580.16 465.64 1559.62 468.477 1539.52C470.822 1522.92 473.602 1506.61 477.002 1490.6C481.923 1467.43 488.096 1444.9 495.213 1422.82L408.922 1473.3Z" fill="white"/>
<path fill-rule="evenodd" clip-rule="evenodd" d="M784.804 2225.35C809.923 2207.65 808.403 2278.93 838.145 2323.57C876.776 2381.54 878.344 2403.59 853.225 2421.29C828.105 2438.98 783.525 2417.47 764.643 2363.4C745.762 2309.33 759.684 2243.04 784.804 2225.35Z" fill="#FF2E33" stroke="black" stroke-width="19.9587" stroke-miterlimit="1.5" stroke-linecap="round" stroke-linejoin="round"/>
<path d="M792.939 2308.88C799.876 2308.88 805.499 2304.28 805.499 2298.61C805.499 2292.94 799.876 2288.34 792.939 2288.34C786.002 2288.34 780.379 2292.94 780.379 2298.61C780.379 2304.28 786.002 2308.88 792.939 2308.88Z" fill="white"/>
<path fill-rule="evenodd" clip-rule="evenodd" d="M1394.31 2205.46C1369.19 2187.76 1363.63 2248.27 1337.1 2296.34C1310.98 2343.66 1285.96 2379.6 1311.08 2397.3C1336.2 2415 1377.18 2404.07 1396.07 2350C1414.95 2295.92 1419.43 2223.16 1394.31 2205.46Z" fill="#FF2E33" stroke="black" stroke-width="19.9587" stroke-miterlimit="1.5" stroke-linecap="round" stroke-linejoin="round"/>
<path d="M1372.71 2302.04C1379.65 2302.04 1385.27 2297.44 1385.27 2291.77C1385.27 2286.09 1379.65 2281.49 1372.71 2281.49C1365.77 2281.49 1360.15 2286.09 1360.15 2291.77C1360.15 2297.44 1365.77 2302.04 1372.71 2302.04Z" fill="white"/>
<path fill-rule="evenodd" clip-rule="evenodd" d="M189.059 1363.98C264.721 1109.43 228.221 1322.31 235.587 1343.56C247.647 1378.34 461.821 1493.7 461.821 1493.7C488.462 1504.74 525.647 1402.42 536.433 1426.57C569.247 1500.04 568.787 1649.85 614.191 1790.48C656.011 1920.03 764.112 1954.41 789.959 2019.96C730.241 2126.12 758.811 2199.52 779.476 2245.83C787.166 2263.06 771.328 2320.38 803.473 2354.1C816.955 2368.25 865.494 2398.66 874.074 2381.09C877.477 2374.14 808.214 2287.4 825.071 2273.06C843.616 2257.3 887.47 2391.32 956.571 2303.89C963.695 2294.88 1059.69 2215.38 1082.57 2231.71C1056.98 2239.4 1067.88 2554.01 1089.24 2573.48C1150.59 2523.74 1197.94 2493.37 1231.89 2481.56C1231.89 2481.56 1145.71 2592.91 1119.28 2596.09C1067.33 2602.36 1097.93 2645.2 1097.57 2657.72C1096.98 2677.89 1015.9 2612.86 1027.06 2620.47C788.034 2590.41 498.977 2327.69 461.019 1676.88C337.919 1544.73 201.635 1419.15 189.059 1363.98Z" fill="black" fill-opacity="0.4"/>
<path fill-rule="evenodd" clip-rule="evenodd" d="M451.385 1234.57L489.837 1268.47L437.881 1314.26L489.837 1360.05L451.385 1393.94L399.43 1348.15L347.474 1393.94L309.023 1360.05L360.979 1314.26L309.023 1268.47L347.474 1234.57L399.43 1280.37L451.385 1234.57Z" fill="#00A8E4" stroke="white" stroke-width="11.8744" stroke-miterlimit="1.5" stroke-linecap="square" stroke-linejoin="round"/>
<path d="M1775.97 1467.23C1813.56 1467.23 1844.04 1441.19 1844.04 1409.08C1844.04 1376.96 1813.56 1350.92 1775.97 1350.92C1738.38 1350.92 1707.91 1376.96 1707.91 1409.08C1707.91 1441.19 1738.38 1467.23 1775.97 1467.23Z" fill="#00A8E4" stroke="white" stroke-width="9.92184" stroke-miterlimit="1.5" stroke-linecap="square" stroke-linejoin="round"/>
<path fill-rule="evenodd" clip-rule="evenodd" d="M1825.9 1408.72L1727.62 1409.6L1779.48 1449.11L1825.9 1408.72Z" fill="black" fill-opacity="0.2"/>
<path fill-rule="evenodd" clip-rule="evenodd" d="M1825.9 1408.72L1780.15 1449.89C1779.79 1450.21 1779.24 1450.22 1778.86 1449.93C1778.86 1449.93 1761.99 1437.47 1747.5 1426.54C1736.44 1418.19 1726.77 1410.71 1726.77 1410.71C1726.3 1410.35 1726.11 1409.72 1726.29 1409.16C1726.48 1408.59 1727.01 1408.21 1727.61 1408.2C1727.61 1408.2 1746.03 1408.16 1766.92 1408.26C1794.29 1408.39 1825.88 1408.72 1825.9 1408.72ZM1825.9 1408.72C1825.68 1408.73 1794.21 1409.62 1766.94 1410.24C1751.97 1410.57 1738.27 1410.82 1731.71 1410.93C1735.47 1413.77 1742.1 1418.79 1749.23 1424.27C1761.94 1434.05 1776.28 1445.29 1779.46 1447.79L1825.9 1408.72Z" fill="black"/>
<path fill-rule="evenodd" clip-rule="evenodd" d="M301.027 1270.82L294.47 1294.01L335.061 1325.45L284.797 1372.86L340.313 1416.11L401.824 1376.95L442.531 1418.47L488.711 1380.08L484.053 1371.7L451.951 1389.73L402.229 1350.71L344.344 1392.71L310.4 1361.48L362.222 1313.74L301.027 1270.82Z" fill="black" fill-opacity="0.2"/>
<path fill-rule="evenodd" clip-rule="evenodd" d="M301.026 1270.82L362.285 1313.65C362.312 1313.67 362.33 1313.7 362.332 1313.73C362.334 1313.77 362.321 1313.8 362.296 1313.82L310.709 1361.48L344.363 1392.36L402.026 1350.44C402.15 1350.35 402.319 1350.35 402.44 1350.44L451.986 1389.26L483.852 1371.34C483.947 1371.29 484.059 1371.27 484.164 1371.3C484.268 1371.33 484.357 1371.4 484.41 1371.5L489.069 1379.88C489.164 1380.05 489.124 1380.27 488.972 1380.4L442.785 1418.78C442.625 1418.91 442.39 1418.9 442.245 1418.75L401.769 1377.41L340.469 1416.36C340.365 1416.42 340.23 1416.41 340.133 1416.34L284.669 1373.02C284.622 1372.99 284.593 1372.93 284.59 1372.87C284.587 1372.81 284.611 1372.75 284.655 1372.71L334.886 1325.46L294.447 1294.04C294.435 1294.03 294.43 1294.01 294.434 1294L301.026 1270.82ZM301.026 1270.82L294.51 1294L335.129 1325.36C335.155 1325.38 335.171 1325.41 335.173 1325.45C335.175 1325.48 335.162 1325.51 335.138 1325.54L285.112 1372.85L340.329 1415.75L401.628 1376.64C401.773 1376.55 401.961 1376.57 402.081 1376.7L442.557 1417.93L488.186 1379.98L483.895 1372.25L452.142 1390.07C452.004 1390.15 451.832 1390.13 451.707 1390.04L402.219 1351.14L344.5 1392.92C344.397 1393 344.256 1392.99 344.163 1392.9L310.257 1361.64C310.214 1361.6 310.189 1361.54 310.189 1361.48C310.189 1361.42 310.214 1361.37 310.257 1361.33L362.044 1313.75L301.026 1270.82Z" fill="black"/>
<path fill-rule="evenodd" clip-rule="evenodd" d="M1357.9 963.896C1467.66 1032.19 1556.2 1133.92 1617.51 1318.4L1635.25 1350.04L1626.51 1360.94L1640.86 1395.7C1630.25 1535 1604.05 1646.06 1547.52 1745.38C1582.56 1630.56 1618.82 1521.01 1595.85 1366.33C1550.51 1209.59 1488.35 1075.77 1357.9 963.896Z" fill="black" fill-opacity="0.2"/>
<path fill-rule="evenodd" clip-rule="evenodd" d="M1357.9 963.898C1422.57 1019.29 1470.49 1080.07 1507.89 1146.37C1546 1213.9 1573.2 1287.16 1596.13 1366.25C1596.13 1366.27 1596.13 1366.28 1596.13 1366.29C1606.9 1438.54 1604.74 1500.95 1595.81 1558.65C1585.81 1623.24 1567.33 1681.92 1549.01 1741.91C1577.86 1690.51 1598.65 1635.92 1613.45 1575.89C1626.98 1520.98 1635.5 1461.51 1640.54 1395.75L1626.23 1361.05C1626.19 1360.95 1626.21 1360.84 1626.27 1360.75L1634.9 1350.01L1617.27 1318.53C1617.26 1318.52 1617.25 1318.5 1617.25 1318.49C1590.02 1236.41 1557.4 1170.72 1519.92 1117.05C1473.14 1050.08 1418.8 1001.84 1357.9 963.898C1418.86 1001.77 1473.29 1049.95 1520.16 1116.88C1557.72 1170.53 1590.43 1236.22 1617.76 1318.29L1635.5 1349.9C1635.56 1350 1635.55 1350.13 1635.48 1350.23L1626.85 1360.99L1641.15 1395.58C1641.17 1395.62 1641.18 1395.67 1641.17 1395.72C1636.18 1461.56 1627.71 1521.1 1614.19 1576.07C1599.1 1637.46 1577.71 1693.15 1547.87 1745.58C1547.77 1745.76 1547.55 1745.84 1547.36 1745.75C1547.16 1745.67 1547.06 1745.46 1547.12 1745.26C1565.82 1684.06 1584.85 1624.37 1595.08 1558.54C1604.04 1500.91 1606.25 1438.57 1595.57 1366.39C1572.74 1287.31 1545.63 1214.07 1507.62 1146.52C1470.31 1080.19 1422.49 1019.36 1357.9 963.898Z" fill="black"/>
<path d="M1690.82 1273.84C1720.37 1273.84 1744.33 1252.26 1744.33 1225.65C1744.33 1199.03 1720.37 1177.46 1690.82 1177.46C1661.26 1177.46 1637.3 1199.03 1637.3 1225.65C1637.3 1252.26 1661.26 1273.84 1690.82 1273.84Z" fill="#00A8E4" stroke="white" stroke-width="10.0953" stroke-miterlimit="1.5" stroke-linecap="square" stroke-linejoin="round"/>
<path d="M1821.21 1313.52C1845.94 1313.52 1865.99 1294.56 1865.99 1271.18C1865.99 1247.8 1845.94 1228.84 1821.21 1228.84C1796.48 1228.84 1776.43 1247.8 1776.43 1271.18C1776.43 1294.56 1796.48 1313.52 1821.21 1313.52Z" fill="#00A8E4" stroke="white" stroke-width="10.2681" stroke-miterlimit="1.5" stroke-linecap="square" stroke-linejoin="round"/>
<path fill-rule="evenodd" clip-rule="evenodd" d="M1356.8 1021.61C1356.8 1021.61 1525.22 1227.56 1524.7 1359.24C1523.8 1587.83 1415.96 1824.39 1415.96 1824.39C1513.16 1530.36 1463.27 1254.42 1356.8 1021.61Z" fill="white"/>
<path fill-rule="evenodd" clip-rule="evenodd" d="M1081.47 844.879C1387.47 844.879 1636.97 1125.91 1636.97 1473.21C1636.97 1820.51 1387.47 2101.54 1081.47 2101.54C775.464 2101.54 525.961 1820.51 525.961 1473.21C525.961 1125.91 775.464 844.879 1081.47 844.879ZM1081.47 876.776C791.89 876.776 557.858 1144.55 557.858 1473.21C557.858 1801.88 791.89 2069.65 1081.47 2069.65C1371.05 2069.65 1605.08 1801.88 1605.08 1473.21C1605.08 1144.55 1371.05 876.776 1081.47 876.776Z" fill="#808080" stroke="white" stroke-width="7.00056" stroke-miterlimit="2" stroke-linejoin="round"/>
<path fill-rule="evenodd" clip-rule="evenodd" d="M460.899 1627.3L269.93 1601.95L355.704 2028.88L526.645 2134.64L847.395 2133.54C847.395 2133.54 868.7 2088.04 855.994 2054.12C843.287 2020.2 762.158 1644.53 762.158 1644.53L460.899 1627.3Z" fill="#FF050B" fill-opacity="0.58"/>
<path fill-rule="evenodd" clip-rule="evenodd" d="M461.225 1623.87L762.478 1638.97C764.974 1639.11 767.07 1640.91 767.598 1643.35C767.598 1643.35 804.476 1809.03 832.862 1930.12C847.069 1990.74 859.068 2040.1 863.344 2051.36C867.61 2062.63 868.549 2075.05 867.677 2086.94C865.739 2113.4 854.774 2137 854.774 2137C853.442 2139.85 850.576 2141.68 847.423 2141.7C847.423 2141.7 767.233 2142.25 687.048 2142.54C606.863 2142.82 526.673 2142.83 526.673 2142.83C525.141 2142.83 523.639 2142.41 522.336 2141.6L351.784 2035.21C350.032 2034.13 348.807 2032.36 348.4 2030.34L265.173 1602.9C264.864 1601.37 265.317 1599.78 266.387 1598.63C267.458 1597.49 269.015 1596.93 270.568 1597.14L461.225 1623.87ZM460.446 1630.72L276.056 1607.6L362.343 2024.21C382.729 2036.72 511.229 2115.57 528.932 2126.43C542.618 2126.34 614.804 2125.88 686.992 2125.65C754.897 2125.42 822.802 2125.4 842.011 2125.39C844.54 2119.07 848.817 2107.02 850.896 2093.27C852.678 2081.51 852.931 2068.45 848.643 2056.87C844.4 2045.39 832.474 1995.13 818.666 1933.37C794.034 1823.17 763.097 1676.1 757.584 1649.81L460.702 1630.74C460.616 1630.74 460.531 1630.73 460.446 1630.72Z" fill="#FFAAAC"/>
<path fill-rule="evenodd" clip-rule="evenodd" d="M1716.73 1609.81L1907.7 1584.45L1821.93 2011.38L1650.99 2117.14L1330.24 2116.05C1330.24 2116.05 1308.93 2070.54 1321.64 2036.63C1334.35 2002.71 1415.47 1627.04 1415.47 1627.04L1716.73 1609.81Z" fill="#FF050B" fill-opacity="0.58"/>
<path fill-rule="evenodd" clip-rule="evenodd" d="M1716.44 1606.76L1907.14 1580.18C1908.52 1579.99 1909.9 1580.49 1910.85 1581.51C1911.8 1582.52 1912.21 1583.94 1911.93 1585.3L1828.42 2012.69C1828.06 2014.48 1826.97 2016.05 1825.41 2017.01L1654.82 2123.33C1653.66 2124.05 1652.33 2124.43 1650.96 2124.42C1650.96 2124.42 1570.78 2124.38 1490.59 2124.1C1410.4 2123.82 1330.22 2123.3 1330.22 2123.3C1327.41 2123.29 1324.87 2121.66 1323.67 2119.12C1323.67 2119.12 1312.78 2095.67 1310.84 2069.38C1309.97 2057.62 1310.89 2045.32 1315.11 2034.18C1319.39 2022.9 1331.37 1973.49 1345.56 1912.81C1373.88 1791.7 1410.64 1625.99 1410.64 1625.99C1411.11 1623.82 1412.97 1622.22 1415.19 1622.1L1716.44 1606.76ZM1716.91 1612.87L1419.54 1631.73C1414.28 1656.73 1383.02 1804.87 1358.17 1915.7C1344.35 1977.4 1332.42 2027.6 1328.18 2039.07C1323.83 2050.79 1324.06 2064 1325.85 2075.91C1328.01 2090.16 1332.5 2102.61 1335.01 2108.8C1353.36 2108.81 1422 2108.87 1490.64 2109.09C1563.28 2109.33 1635.93 2109.77 1648.95 2109.85C1665.83 2099.49 1796.55 2019.2 1816.02 2007.24C1823.61 1970.5 1902.26 1589.48 1902.26 1589.48L1717.14 1612.85C1717.06 1612.85 1716.99 1612.86 1716.91 1612.87Z" fill="#FFAAAC"/>
<path fill-rule="evenodd" clip-rule="evenodd" d="M1582.57 1848.09L1469.23 1852.16L1499.79 1815.19L1483.55 1795.61L1500.96 1724.03L1653.33 1763.77L1820.53 1732.82L1801.29 1797.7L1779.59 1819.54L1786.85 1846.39L1699.22 1846.13L1667.84 1933.99L1653.86 1900.88L1592.03 1899.59L1555.98 1928.93L1582.57 1848.09ZM1578.25 1791.08L1535.18 1779.9L1534.65 1802.14L1613.4 1813.12L1578.25 1791.08ZM1765.21 1779.79L1713.36 1791.76L1665.23 1811.89L1754.52 1801.32L1765.21 1779.79Z" fill="white"/>
<path fill-rule="evenodd" clip-rule="evenodd" d="M1580.44 1849.69L1469.31 1854.3C1468.46 1854.33 1467.68 1853.86 1467.3 1853.1C1466.93 1852.35 1467.04 1851.44 1467.58 1850.79L1496.69 1815.21L1481.62 1797.21C1481.11 1796.6 1480.92 1795.79 1481.11 1795.01L1498.18 1723.35C1498.36 1722.6 1498.83 1721.96 1499.49 1721.56C1500.15 1721.17 1500.95 1721.06 1501.69 1721.25L1653.45 1760.22L1819.87 1729.18C1821.13 1728.94 1822.43 1729.39 1823.29 1730.35C1824.15 1731.3 1824.45 1732.64 1824.09 1733.88L1804.74 1798.73C1804.57 1799.3 1804.26 1799.82 1803.84 1800.24L1783.5 1820.59L1790.16 1845.5C1790.45 1846.53 1790.23 1847.63 1789.57 1848.49C1788.92 1849.33 1787.91 1849.83 1786.84 1849.83L1701.41 1849.27L1670.4 1934.91C1670.03 1935.97 1669.04 1936.68 1667.92 1936.71C1666.8 1936.75 1665.77 1936.09 1665.34 1935.05L1652.15 1903.38L1592.79 1901.84L1557.24 1930.47C1556.55 1931.03 1555.58 1931.06 1554.85 1930.56C1554.13 1930.06 1553.82 1929.15 1554.09 1928.31L1580.44 1849.69ZM1584.02 1848.56L1559.96 1923.08L1590.63 1897.87C1591.04 1897.53 1591.55 1897.35 1592.08 1897.37L1653.92 1898.33C1654.93 1898.35 1655.83 1898.96 1656.21 1899.89L1667.6 1926.51L1696.28 1845.09C1696.73 1843.84 1697.91 1843.01 1699.23 1843.01L1782.35 1842.96L1776.19 1820.45C1775.87 1819.24 1776.21 1817.95 1777.09 1817.06L1798.09 1795.81L1815.28 1737.55L1653.96 1767.17C1653.46 1767.26 1652.95 1767.24 1652.45 1767.11L1503.05 1727.55L1486.29 1794.99L1501.62 1813.67C1502.35 1814.55 1502.36 1815.83 1501.63 1816.71L1473.94 1849.86L1582.52 1846.57C1583.01 1846.55 1583.49 1846.78 1583.78 1847.18C1584.08 1847.57 1584.17 1848.09 1584.02 1848.56ZM1579.06 1789.8L1614.89 1810.74C1616.01 1811.44 1616.49 1812.83 1616.04 1814.08C1615.59 1815.32 1614.33 1816.08 1613.01 1815.9C1613.01 1815.9 1602.58 1814.77 1589.31 1813.17C1581.87 1812.28 1573.53 1811.28 1565.64 1810.2C1548.9 1807.9 1534.19 1805.51 1534.19 1805.51C1532.47 1805.27 1531.22 1803.79 1531.26 1802.06L1532.28 1779.83C1532.31 1778.95 1532.73 1778.12 1533.44 1777.59C1534.14 1777.05 1535.05 1776.87 1535.91 1777.09L1578.63 1789.62C1578.78 1789.65 1578.93 1789.72 1579.06 1789.8ZM1577.64 1792.5L1538.08 1783.53L1538.06 1799.12C1543.19 1799.74 1554.41 1801.13 1566.67 1802.87C1574.55 1803.98 1582.84 1805.3 1590.25 1806.48C1594.17 1807.1 1597.85 1807.69 1601.07 1808.22L1577.64 1792.5ZM1766.57 1780.46L1756.48 1802.29C1756.15 1802.95 1755.51 1803.41 1754.78 1803.49C1754.78 1803.49 1726.18 1807.72 1701.35 1811.04C1682.4 1813.58 1665.66 1815.55 1665.66 1815.55C1663.83 1815.76 1662.13 1814.6 1661.66 1812.83C1661.19 1811.05 1662.11 1809.2 1663.81 1808.49C1663.81 1808.49 1672.84 1804.75 1683.13 1800.61C1696.61 1795.19 1712.23 1789.06 1712.23 1789.06C1712.38 1789 1712.54 1788.95 1712.71 1788.91L1764.87 1778.32C1765.44 1778.18 1766.03 1778.39 1766.4 1778.85C1766.76 1779.31 1766.82 1779.94 1766.57 1780.46ZM1689.58 1805.44C1693.07 1805.06 1696.76 1804.67 1700.54 1804.28C1722.56 1802.01 1747.62 1799.74 1753.15 1799.25L1762.26 1782.12L1714.33 1794.53C1712.83 1795.2 1701.07 1800.43 1689.58 1805.44Z" fill="black"/>
<path fill-rule="evenodd" clip-rule="evenodd" d="M1601.29 962.147L1468.95 412.51C1467.77 564.389 1480.71 747.348 1504.26 916.272L1469.59 727.079C1474.29 789.43 1477.5 850.323 1466.08 896.934L1289.68 457.205C1301.37 589.658 1323.95 727.03 1369.39 865.033L1305.25 848.737L1226.58 716.065L1229.02 829.465L1601.29 962.147Z" fill="black" fill-opacity="0.3"/>
<path fill-rule="evenodd" clip-rule="evenodd" d="M851.11 841.686L907.767 740.636L865.515 761.852L791.047 858.267L691.468 885.693L869.525 452.431L804.231 510.518L662.958 785.924L643.884 904.062L560.444 936.54L678.901 418.404L623.171 490.774L505.311 821.141L486.555 804.319L330.619 940.199L338.823 986.227L280.489 1027.86L285.907 1085.83L235.236 1124.02L237.137 1177.61L190.938 1206.54L202.504 1297.32C283.327 1151.71 392.036 1046.55 517.426 965.58L517.455 950.485C517.455 950.485 390.587 947.561 396.074 928.28C401.561 908.999 496.152 832.768 496.152 832.768L531.263 952.592L851.11 841.686Z" fill="black" fill-opacity="0.3"/>
</svg>
