<svg width="2160" height="2700" viewBox="0 0 2160 2700" fill="none" xmlns="http://www.w3.org/2000/svg">
<g clip-path="url(#clip0_1998_956)">
<path fill-rule="evenodd" clip-rule="evenodd" d="M1750.89 2233.73L1761.4 2391.16L1841.67 2385.8L1826.15 2153.29L1823.64 2153.46L1823.29 2148.27L1575.74 2166.74L1566.24 2024.39L1154.15 2051.89L1163.65 2194.24L1061.05 2201.08L1051.33 2055.33L639.238 2082.83L665.307 2473.49L1077.4 2445.99L1066.41 2281.36L1169.01 2274.51L1180.22 2442.55L1592.31 2415.05L1581.1 2247.01L1750.89 2233.73Z" fill="black" fill-opacity="0.3"/>
<path fill-rule="evenodd" clip-rule="evenodd" d="M1768.8 2205.96L1779.31 2363.39L1859.58 2358.03L1844.06 2125.52L1841.55 2125.69L1841.2 2120.5L1593.65 2138.97L1584.15 1996.62L1172.06 2024.12L1181.56 2166.47L1078.96 2173.31L1069.24 2027.56L657.148 2055.06L683.217 2445.72L1095.31 2418.22L1084.32 2253.59L1186.92 2246.74L1198.13 2414.78L1610.22 2387.28L1599.01 2219.24L1768.8 2205.96Z" fill="#FF050B"/>
<path fill-rule="evenodd" clip-rule="evenodd" d="M1773.52 2205.65L1604.42 2223.92C1608.12 2278.26 1611.92 2332.58 1615.63 2386.92C1615.8 2389.45 1614.25 2390.95 1613.98 2391.21C1612.56 2392.59 1610.88 2392.71 1610.58 2392.73C1473.24 2402.18 1335.89 2411.6 1198.55 2421C1195.96 2421.17 1194.31 2419.73 1194.01 2419.48C1192.06 2417.78 1191.9 2415.58 1191.88 2415.2C1188.16 2361.37 1184.53 2307.54 1180.82 2253.72L1091.49 2259.86C1095.05 2312.49 1098.72 2365.12 1102.28 2417.76C1102.5 2421.01 1100.5 2422.95 1100.16 2423.28C1098.32 2425.05 1096.16 2425.2 1095.77 2425.22L683.721 2453.26C680.593 2453.47 678.588 2451.72 678.233 2451.42C675.873 2449.36 675.688 2446.69 675.657 2446.23L649.281 2055.59C649.036 2051.91 651.3 2049.73 651.686 2049.36C651.994 2049.06 653.751 2047.38 656.623 2047.18C692.285 2044.74 727.951 2042.36 763.624 2039.99L1068.72 2019.75C1070.61 2019.64 1072.05 2020.26 1072.32 2020.37C1075.29 2021.65 1076.31 2024.21 1076.49 2024.66C1076.64 2025.04 1076.82 2025.42 1076.85 2025.83C1080.03 2072.27 1082.93 2118.72 1086.11 2165.15L1173.5 2159.42C1170.69 2114.05 1167.54 2068.69 1164.72 2023.32C1164.7 2022.89 1164.85 2022.47 1164.97 2022.06C1165.11 2021.58 1165.94 2018.76 1169.09 2017.38C1169.28 2017.3 1170.27 2016.86 1171.57 2016.78C1194.88 2015.23 1581.25 1990.06 1583.71 1989.93C1585.34 1989.84 1586.56 1990.37 1586.79 1990.46C1589.33 1991.57 1590.19 1993.76 1590.35 1994.14C1590.47 1994.46 1590.63 1994.79 1590.65 1995.14C1593.71 2040.8 1596.53 2086.47 1599.59 2132.13C1680.3 2126.37 1760.99 2120.4 1841.69 2114.64C1841.86 2114.63 1843.29 2114.88 1844.31 2115.52C1846.37 2116.81 1846.83 2118.84 1846.91 2119.19C1846.98 2119.5 1847.24 2119.86 1847.04 2120.11C1846.97 2120.2 1846.9 2120.28 1846.82 2120.37C1847.17 2120.57 1847.44 2120.77 1847.51 2120.82C1847.82 2121.05 1849.69 2122.42 1849.87 2125.14L1864.9 2357.68C1864.92 2357.97 1865.02 2359.61 1863.86 2361.17C1863.65 2361.46 1862.4 2363.15 1859.93 2363.31C1833.17 2365.07 1806.41 2366.8 1779.65 2368.51C1776.96 2368.68 1774.42 2366.6 1774.23 2363.73C1774.14 2362.44 1764.39 2211.05 1764.39 2211.05C1766.06 2207.93 1771.86 2208.76 1773.52 2205.65L1784.07 2357.95L1853.93 2353.09L1841.71 2128.21L1840.92 2131.5C1840.29 2131.26 1839.6 2131.19 1838.97 2130.94C1838.19 2130.64 1837.44 2129.86 1837.33 2129.74C1836.61 2129 1836.26 2128.2 1836.2 2128.05C1836.06 2127.74 1835.71 2127.39 1835.86 2127.09C1836.54 2125.8 1837.83 2124.91 1838.5 2123.61C1756.7 2130.77 1674.92 2138.17 1593.12 2145.31C1592.45 2145.37 1591.32 2144.91 1591.17 2144.85C1590.81 2144.69 1588.72 2143.82 1587.72 2141.36C1587.59 2141.04 1587.43 2140.73 1587.41 2140.4C1584.17 2094.85 1581.16 2049.28 1577.93 2003.73L1179.9 2030.98C1182.85 2076.42 1186.13 2121.85 1189.08 2167.28C1189.1 2167.73 1188.94 2168.15 1188.82 2168.58C1188.7 2169 1188.54 2169.41 1188.35 2169.81C1188.08 2170.35 1186.47 2173.64 1182.07 2174.04C1182.01 2174.04 1080.75 2180.88 1079.48 2180.97C1077.63 2181.09 1076.21 2180.48 1075.95 2180.37C1075.52 2180.18 1073.02 2179.12 1071.84 2176.17C1071.69 2175.8 1071.5 2175.42 1071.48 2175.02C1068.22 2128.65 1065.23 2082.25 1061.96 2035.88L665.548 2062.41L690.268 2437.67L1087.86 2411.71C1084.47 2359.15 1080.98 2306.6 1077.59 2254.04C1077.57 2253.67 1077.44 2251.59 1078.89 2249.61C1079.16 2249.25 1080.74 2247.1 1083.87 2246.89C1118.08 2244.63 1152.28 2242.4 1186.48 2240.19C1186.88 2240.17 1189.19 2240.02 1191.23 2241.82C1191.53 2242.08 1193.26 2243.6 1193.44 2246.31C1196.97 2300.25 1200.42 2354.19 1203.95 2408.13L1604.43 2382.21C1600.95 2328 1597.39 2273.8 1593.91 2219.58C1593.89 2219.31 1593.79 2217.75 1594.88 2216.26C1595.09 2215.99 1596.27 2214.38 1598.61 2214.2L1768.43 2201.24C1770.23 2201.11 1771.98 2202.07 1772.86 2203.52C1772.98 2203.73 1773.11 2203.96 1773.19 2204.19C1773.34 2204.67 1773.37 2205.17 1773.52 2205.65Z" fill="black"/>
<path fill-rule="evenodd" clip-rule="evenodd" d="M1547.09 2035.65C1537.76 2036.39 1528.44 2037.24 1519.11 2037.99C1499.66 2039.54 1452.59 2041.64 1446.8 2041.89C1412.37 2043.42 1338.41 2046.18 1338.34 2046.15C1337.47 2045.84 1336.43 2045.83 1335.74 2045.22C1335.73 2045.21 1334.52 2042.79 1334.52 2042.78C1334.82 2041.93 1334.82 2040.9 1335.41 2040.22C1336.02 2039.53 1337.01 2039.29 1337.87 2038.97C1337.92 2038.95 1391.15 2034.1 1427.67 2030.89C1505.5 2024.07 1531.54 2022.82 1540.59 2022.38C1544.47 2022.19 1548.34 2022 1552.22 2021.87C1552.48 2021.86 1553.89 2021.8 1555.42 2022.56C1558.47 2024.06 1558.9 2027.12 1558.97 2027.61C1562.32 2051.35 1566.19 2083.83 1566.77 2088.73C1567.17 2092.09 1567.48 2095.47 1567.87 2098.84C1568.04 2100.31 1568.16 2100.3 1568.13 2100.43C1567.92 2101.32 1568.03 2102.36 1567.5 2103.1C1566.97 2103.84 1565.95 2104.07 1565.17 2104.56C1564.83 2104.77 1562.99 2105.92 1561.02 2101.6C1560.83 2101.18 1560.9 2100.68 1560.8 2100.23C1560.17 2097.41 1559.46 2094.6 1558.84 2091.78C1557.05 2083.65 1555.27 2075.53 1553.57 2067.38C1551.36 2056.82 1549.3 2046.22 1547.09 2035.65Z" fill="white"/>
<path fill-rule="evenodd" clip-rule="evenodd" d="M1044.86 2053.29C1039.29 2053.71 1033.73 2054.18 1028.17 2054.6C1020.86 2055.14 1000.54 2056.66 936.663 2058.28C908.653 2058.99 862.965 2059.97 862.932 2059.96C862.068 2059.64 861.028 2059.61 860.342 2058.99C860.329 2058.98 859.149 2056.55 859.152 2056.54C859.458 2055.69 859.474 2054.67 860.077 2054C860.693 2053.31 861.688 2053.09 862.549 2052.76C862.591 2052.75 909.58 2048.85 941.81 2046.3C1010.29 2040.89 1033.5 2040.08 1041.48 2039.8C1044.49 2039.69 1047.51 2039.59 1050.52 2039.53C1050.79 2039.52 1052.28 2039.5 1053.84 2040.34C1054.23 2040.55 1056.47 2041.76 1057.08 2044.7C1057.23 2045.45 1057.71 2054.43 1057.75 2055.27C1057.94 2058.79 1058.89 2076.66 1059.77 2099.16C1059.88 2102.19 1059.9 2105.23 1060.01 2108.26C1060.09 2110.41 1060.7 2110.65 1059.31 2112.31C1058.72 2113.01 1057.69 2113.17 1056.88 2113.59C1056.52 2113.78 1054.65 2114.76 1052.96 2110.33C1052.82 2109.96 1052.92 2109.53 1052.86 2109.13C1052.48 2106.66 1052.01 2104.2 1051.64 2101.73C1050.56 2094.65 1049.5 2087.58 1048.51 2080.49C1047.24 2071.43 1046.12 2062.35 1044.86 2053.29Z" fill="white"/>
<path fill-rule="evenodd" clip-rule="evenodd" d="M1817.24 2143.16L1749.39 2149.46C1747.94 2149.59 1747.88 2149.57 1746.73 2148.68C1746.72 2148.67 1745.36 2146.35 1745.36 2146.34C1745.6 2145.47 1745.54 2144.45 1746.09 2143.73C1747.27 2142.21 1747.5 2142.47 1749.4 2142.16L1821.78 2130.65C1825.61 2130.05 1828.29 2132.86 1828.75 2135.68C1828.77 2135.83 1833.3 2167.54 1836.37 2193.47C1840.04 2224.47 1842.51 2269.36 1842.88 2275.97C1843.01 2278.48 1843.06 2281 1843.18 2283.51C1843.29 2285.55 1843.82 2285.75 1842.56 2287.34C1842.55 2287.36 1840.15 2288.69 1840.15 2288.69C1839.27 2288.44 1838.23 2288.5 1837.51 2287.93C1836.79 2287.36 1836.52 2286.38 1836.16 2285.53C1836.02 2285.19 1836.11 2284.8 1836.04 2284.44C1835.61 2282.17 1835.11 2279.92 1834.69 2277.66C1833.72 2272.36 1827.39 2237.96 1823.99 2211.2C1822.12 2196.47 1820.25 2176.41 1819.96 2173.38C1819.03 2163.31 1818.18 2153.23 1817.24 2143.16Z" fill="white"/>
<path d="M1510.89 2083.26L1246.63 2105.02L1265.36 2332.52L1529.62 2310.76L1510.89 2083.26Z" fill="white"/>
<path fill-rule="evenodd" clip-rule="evenodd" d="M1517.19 2082.74C1523.63 2158.55 1530.15 2234.37 1536.58 2310.18C1536.83 2313.08 1535.25 2314.96 1534.97 2315.29C1533.1 2317.52 1530.63 2317.74 1530.2 2317.77L1265.99 2340.18C1263.19 2340.41 1261.25 2339.05 1260.91 2338.81C1260.48 2338.51 1257.98 2336.75 1257.65 2333.15C1257.45 2330.81 1245.59 2189.09 1241.82 2143.77C1240.77 2131.07 1239.73 2118.37 1238.74 2105.67C1238.58 2103.55 1239.34 2101.94 1239.48 2101.64C1239.67 2101.25 1240.71 2099.05 1243.33 2097.86C1243.53 2097.77 1244.58 2097.3 1245.98 2097.18C1260 2096.04 1274.03 2094.96 1288.05 2093.87L1505.27 2077.38C1506.97 2077.25 1508.67 2077.07 1510.37 2076.96C1514.05 2076.71 1515.8 2079.24 1516.09 2079.66C1516.3 2079.96 1516.51 2080.27 1516.64 2080.61C1516.88 2081.3 1516.94 2082.05 1517.19 2082.74ZM1505.09 2090.12L1255.15 2112.24L1272.41 2324.2L1522.06 2304.34L1505.09 2090.12Z" fill="black"/>
<path d="M1511.16 2093.57L1387.84 2103.72L1404.62 2307.54L1527.94 2297.38L1511.16 2093.57Z" fill="black"/>
<path fill-rule="evenodd" clip-rule="evenodd" d="M1517.46 2093.05C1523.31 2160.96 1529.27 2228.87 1535.12 2296.79C1535.41 2300.16 1533.39 2302.19 1533.04 2302.54C1531.17 2304.42 1528.93 2304.62 1528.54 2304.65L1405.25 2315.19C1402.07 2315.46 1399.99 2313.72 1399.63 2313.42C1399.27 2313.12 1397.2 2311.38 1396.9 2308.17C1396.76 2306.63 1388.14 2204.34 1386.49 2184.43C1385.07 2167.34 1380.57 2109.44 1380.24 2104.35C1380.07 2101.87 1381.17 2100.11 1381.37 2099.79C1381.66 2099.33 1383.39 2096.57 1387.22 2096.28C1430.19 2092.99 1430.2 2093.11 1507.1 2087.56C1508.28 2087.47 1509.46 2087.34 1510.64 2087.27C1514.33 2087.04 1516.07 2089.55 1516.36 2089.97C1516.56 2090.27 1516.78 2090.58 1516.9 2090.93C1517.15 2091.61 1517.21 2092.36 1517.46 2093.05ZM1505.35 2100.46L1395.98 2110.63C1397.4 2126.78 1398.9 2142.92 1400.32 2159.07C1401.12 2168.19 1401.9 2177.32 1402.64 2186.45C1405.69 2224.04 1408.63 2261.63 1411.67 2299.22L1520.12 2290.75L1505.35 2100.46Z" fill="black"/>
<path d="M1002.23 2128.46L737.969 2150.22L756.702 2377.72L1020.96 2355.96L1002.23 2128.46Z" fill="white"/>
<path fill-rule="evenodd" clip-rule="evenodd" d="M1008.53 2127.94C1014.96 2203.75 1021.49 2279.56 1027.92 2355.38C1028.2 2358.64 1026.23 2360.61 1025.9 2360.94C1024.08 2362.76 1021.92 2362.94 1021.54 2362.97L757.333 2385.38C754.15 2385.64 752.074 2383.9 751.714 2383.6C751.351 2383.29 749.274 2381.55 748.995 2378.35C748.748 2375.56 736.914 2234.15 733.164 2188.97C732.111 2176.27 731.069 2163.57 730.081 2150.87C729.919 2148.75 730.682 2147.14 730.823 2146.84C731.01 2146.45 732.055 2144.25 734.674 2143.06C734.873 2142.97 735.92 2142.5 737.323 2142.38C751.34 2141.24 765.366 2140.15 779.391 2139.07L996.608 2122.58C998.307 2122.45 1000.01 2122.27 1001.71 2122.16C1005.39 2121.91 1007.14 2124.44 1007.43 2124.86C1007.64 2125.16 1007.85 2125.47 1007.98 2125.81C1008.22 2126.5 1008.28 2127.25 1008.53 2127.94ZM996.431 2135.32L746.488 2157.44L763.752 2369.4L1013.4 2349.54L996.431 2135.32Z" fill="black"/>
<path d="M1001.68 2139.97L879.266 2150.05L896.385 2357.94L1018.8 2347.86L1001.68 2139.97Z" fill="black"/>
<path fill-rule="evenodd" clip-rule="evenodd" d="M1007.98 2139.45C1013.95 2208.72 1020.02 2277.99 1025.99 2347.27C1026.28 2350.64 1024.25 2352.68 1023.91 2353.02C1022.03 2354.91 1019.79 2355.1 1019.4 2355.14L897.014 2365.6C893.828 2365.87 891.756 2364.13 891.395 2363.83C891.033 2363.52 888.959 2361.78 888.665 2358.58C888.52 2357 879.842 2253.96 878.163 2233.77C876.635 2215.4 872.034 2155.98 871.681 2150.67C871.497 2147.91 872.865 2146.03 873.109 2145.69C873.408 2145.28 875.147 2142.89 878.652 2142.62C911 2140.12 911.006 2140.22 997.588 2133.96C998.781 2133.87 999.967 2133.74 1001.16 2133.66C1004.85 2133.44 1006.59 2135.95 1006.88 2136.36C1007.09 2136.67 1007.3 2136.98 1007.42 2137.32C1007.67 2138.01 1007.73 2138.76 1007.98 2139.45ZM995.873 2146.86L887.387 2156.93C888.882 2173.92 890.456 2190.9 891.95 2207.88C892.762 2217.11 893.552 2226.34 894.301 2235.58C897.382 2273.59 900.354 2311.61 903.434 2349.62L1010.97 2341.22L995.873 2146.86Z" fill="black"/>
<path fill-rule="evenodd" clip-rule="evenodd" d="M2186.31 1389.28C2186.31 1389.28 1943.21 1499.59 1846.51 1489.31C1721.15 1475.99 1472.49 1494.72 1395.32 1432.48C1345.86 1392.6 1393.33 1153.99 1453.46 1133.49C1514.48 1112.68 1647.21 1214.18 1647.21 1214.18L1726.76 1194.6L1704.14 1006.44L2228.13 1166.33L2186.31 1389.28Z" fill="black" fill-opacity="0.3"/>
<path fill-rule="evenodd" clip-rule="evenodd" d="M2110.75 1123.6L2527.73 1732.66L2240.76 1788.77C2171.41 1551.57 2139.02 1363.03 1894.02 1202.91L2110.75 1123.6Z" fill="#A4A4A4"/>
<path fill-rule="evenodd" clip-rule="evenodd" d="M2111.33 1124.45L2527.73 1732.66L2240.76 1788.77C2171.41 1551.57 2139.02 1363.03 1894.02 1202.91L2110.75 1123.6L2111.33 1124.45ZM2244.51 1784.67L2242.99 1785.11C2243.5 1784.98 2244.01 1784.83 2244.51 1784.67ZM2109.73 1126.81C2109.73 1126.81 2019.37 1160.85 2019.31 1160.87C1979.93 1174.92 1940.04 1187.53 1900.62 1201.46C1951.35 1234.5 2026.33 1289.16 2088.59 1377.12C2139.33 1448.79 2170.16 1525.1 2196.55 1607.17C2213.63 1660.3 2228.8 1716.64 2248.1 1783.23C2253.6 1780.67 2258.66 1776.89 2264.53 1775.38C2286.81 1769.69 2309.59 1766.15 2332.26 1762.28C2396.04 1751.38 2460.07 1741.97 2523.85 1731.08C2481.67 1670 2436.89 1610.73 2394.7 1549.64C2383.39 1533.28 2134.18 1163.12 2111.54 1129.49C2110.94 1128.6 2109.53 1127.86 2109.73 1126.81Z" fill="black"/>
<path fill-rule="evenodd" clip-rule="evenodd" d="M1785.33 1132.66C1785.33 1132.66 1710.49 1132.95 1779.36 1213.04C1848.24 1293.14 2122.35 1307.96 2188.11 1255.9C2253.87 1203.84 2308.01 990.904 2308.01 990.904L1785.33 1132.66Z" fill="white"/>
<path fill-rule="evenodd" clip-rule="evenodd" d="M1785.33 1132.66L2308.01 990.904C2308.01 990.904 2253.87 1203.84 2188.11 1255.9C2122.35 1307.96 1848.24 1293.14 1779.36 1213.04C1710.49 1132.95 1785.33 1132.66 1785.33 1132.66ZM1785.34 1135.3C1785.34 1135.32 1784.72 1135.26 1781.92 1135.55C1770.54 1136.74 1764.36 1140.61 1763.01 1141.45C1756.38 1145.6 1742.64 1157.29 1768.73 1193.61C1769.77 1195.05 1774.98 1202.31 1782.71 1210.95C1825.19 1258.49 1945.66 1281.8 2047.95 1279.6C2104.46 1278.38 2159.95 1268.96 2183.93 1249.19C2216.67 1222.19 2247.39 1150.72 2269.54 1087.18C2279.91 1057.43 2290.6 1023.02 2298.4 994.309C2269.91 1003.69 2242.3 1015.73 2213.61 1024.47C2179.57 1034.84 2144.77 1042.51 2110.34 1051.49L1788.98 1134.45C1788 1134.7 1787.01 1134.98 1786.02 1135.21C1785.8 1135.26 1785.56 1135.25 1785.34 1135.3Z" fill="black"/>
<path fill-rule="evenodd" clip-rule="evenodd" d="M2142.42 1149.27C2142.42 1149.27 1880.94 1203.04 1788.91 1171.61C1669.61 1130.87 1422.97 1094.1 1361.49 1016.32C1322.09 966.478 1421.19 744.298 1484.37 737.609C1548.48 730.821 1655.45 859.191 1655.45 859.191L1737.36 857.697L1731.31 671.55C1731.31 671.55 1426.22 283.225 1400.21 179.49C1379.2 95.6651 1578.4 39.0681 1645.01 94.1221C1733.58 167.322 1887.53 571.357 1887.53 571.357C1887.53 571.357 1759.89 186.546 1785.23 91.9291C1808.23 6.01505 2005.8 -14.3169 2050.43 62.6111C2098.45 145.357 2063.28 531.722 2063.28 531.722C2182.67 422.367 2268.73 508.597 2354.91 601.771L2142.42 1149.27Z" fill="white"/>
<path fill-rule="evenodd" clip-rule="evenodd" d="M2142.42 1149.27C2142.42 1149.27 1880.94 1203.04 1788.91 1171.61C1669.61 1130.87 1422.97 1094.1 1361.49 1016.32C1322.09 966.478 1421.19 744.298 1484.37 737.609C1548.48 730.821 1655.45 859.191 1655.45 859.191L1737.36 857.697L1731.31 671.55C1731.31 671.55 1426.22 283.225 1400.21 179.49C1379.2 95.6651 1578.4 39.0681 1645.01 94.1221C1733.58 167.322 1887.53 571.357 1887.53 571.357C1887.53 571.357 1759.89 186.546 1785.23 91.9291C1808.23 6.01505 2005.8 -14.3169 2050.43 62.6111C2098.45 145.357 2063.28 531.722 2063.28 531.722C2182.67 422.367 2268.73 508.597 2354.91 601.771L2142.42 1149.27ZM2140.48 1146.98L2351 602.515C2349.9 601.72 2348.51 601.405 2347.42 600.61C2346.85 600.198 2320.8 571.372 2295.68 548.178C2225.69 483.565 2156.51 454.271 2067.9 535.382C2067.78 535.486 2066.83 536.355 2066.42 536.623C2063.65 538.392 2061.11 537.137 2060.7 536.934C2057.76 535.475 2057.52 532.656 2057.49 532.2C2057.41 531.296 2057.87 527.742 2059.37 507.978C2069.9 369.007 2079.06 137.111 2046.51 70.34C2043.72 64.62 2031.56 39.2841 1983.85 27.5961C1910.84 9.71105 1806.22 37.3621 1792.38 95.4451C1780.06 147.183 1811.88 293.09 1864.29 468.505C1879.11 518.073 1891.44 555.97 1895.27 567.579C1895.34 567.779 1895.87 569.383 1895.97 570.107C1896.55 573.98 1894.36 576.511 1893.99 576.941C1891.43 579.903 1888.08 579.897 1887.51 579.896C1883.6 579.89 1881.42 577.351 1881.05 576.919C1880.73 576.548 1880.44 576.148 1880.19 575.728C1879.64 574.812 1879.75 574.763 1872.77 556.973C1825.89 437.409 1711.9 164.701 1642.02 102.686C1638.19 99.288 1620.26 82.2351 1573.49 80.7261C1496.73 78.2491 1400.78 120.201 1407.04 172.181C1409.76 194.722 1438.58 244.361 1442.28 250.813C1499.13 349.895 1610.38 501.483 1688.92 604.918C1692.65 609.835 1716.07 640.671 1735.93 666.13C1736.05 666.289 1737.14 667.69 1737.41 668.165C1737.53 668.394 1738.22 669.64 1738.28 671.324C1740.19 733.376 1742.08 795.429 1743.94 857.483C1743.96 857.964 1744.05 860.864 1741.35 862.91C1741.09 863.107 1739.64 864.202 1737.48 864.239C1710.18 864.713 1682.87 865.157 1655.57 865.581C1653.08 865.619 1651.5 864.218 1651.22 863.971C1650.48 863.313 1645.89 857.533 1635.1 845.7C1617.09 825.962 1541.88 745.362 1491.07 743.215C1484.7 742.946 1478.1 743.687 1468.16 750.187C1416.91 783.69 1352.7 923.328 1357.84 989.39C1359.2 1006.84 1364.91 1012.79 1367.49 1015.81C1430.58 1089.91 1671.37 1127.56 1788.69 1167.64C1801.42 1171.99 1848.49 1188.78 2014.05 1167.41C2077.96 1159.16 2131.12 1148.82 2140.48 1146.98Z" fill="black"/>
<path fill-rule="evenodd" clip-rule="evenodd" d="M1443.07 257.502L1769.2 654.635C1759.64 719.21 1772.2 775.725 1798.26 791.13L1888.43 796.85C1909.16 728.521 1954.59 653.42 2030.04 570.079C1932.29 753.657 1913.4 900.224 2078.97 960.221L2176.37 877.32L2215.38 871.751L2197.24 1032.87L2170.86 1301.4L2079.89 1340.1L2012.18 1282.32C1851.24 1255.25 1747.96 1217.09 1763.13 1156.16C1578.76 1117.45 1427.02 1071.37 1360.61 1006.02C1337.74 947.823 1365.96 882.768 1414.89 814.93C1423.17 989.523 1488.61 1070.7 1634.97 1019.62C1663.76 1074.85 1696.13 1104.61 1735.59 1084.01C1778.92 1126.52 1830.94 1131.93 1887.63 1117.37C1887.85 1079.14 1898.73 1056.66 1908.79 1032.99C1895.57 1084.88 1927.67 1154.39 1998.61 1161.87L1868.24 1169.58C1878.51 1205.13 1896.23 1239.23 2058.16 1245.02C2126.01 1241.65 2168.83 1227.74 2161.53 1192.71L2162.36 1088.33C2165.55 1035.3 2130.88 1012.75 2034.39 1039.93C1976.08 1051.86 1940.56 1042.05 1927.4 1010.9L1908.46 962.95C1908.46 962.95 1852.64 944.853 1843.77 931.42C1834.89 917.987 1867.72 849.462 1867.72 849.462C1874.23 828.63 1842.11 815.976 1778.33 810.02C1768.71 840.688 1785.19 861.172 1827.21 871.681L1750.76 862.182L1738.14 662.216L1443.07 257.502Z" fill="black" fill-opacity="0.2"/>
<path fill-rule="evenodd" clip-rule="evenodd" d="M2233.29 770.714C2234.24 771.17 2234.28 771.215 2234.63 772.213C2235.08 773.481 2234.85 773.526 2234.29 774.751C2232.99 777.616 2193.76 864.019 2148.56 924.272C2120.39 961.817 2098.78 977.676 2081.54 982.055C2056.87 988.32 2016.77 980.734 1979.45 966.428C1928.09 946.744 1874.1 910.661 1879.19 874.093C1886.46 821.868 1949.2 711.505 1982.31 655.205C1987.54 646.298 2015.02 599.577 2050.03 545.213C2050.25 544.864 2052.82 540.869 2052.85 540.854C2053.39 540.468 2053.84 539.849 2054.49 539.699C2054.51 539.695 2056.47 540.024 2056.48 540.031C2056.88 540.581 2057.51 541.025 2057.66 541.686C2057.81 542.334 2057.5 543.012 2057.31 543.65C2057.29 543.718 2033.65 582.854 1999.94 643.751C1974.48 689.752 1921.04 788.996 1902.06 848.455C1901.36 850.65 1896.46 866.029 1895.31 876.447C1892.72 899.87 1936.28 931.766 1989.77 952.196C2029.83 967.499 2065.45 972.469 2082.49 966.224C2091.53 962.908 2120.33 950.179 2175.1 866.199C2179.18 859.939 2199.03 829.5 2222.53 785.725C2227.05 777.304 2229.78 771.948 2229.78 771.946C2231.15 770.708 2231.12 770.659 2231.27 770.606C2232.27 770.251 2232.33 770.255 2233.29 770.714Z" fill="black"/>
<path fill-rule="evenodd" clip-rule="evenodd" d="M1633.64 1011.77C1632.62 1011.4 1632.56 1011.38 1632.1 1010.39C1632.01 1010.2 1631.78 1009.71 1632.18 1007.81C1633.86 999.797 1635.07 990.981 1636.24 978.242C1637.23 967.468 1638.41 949.677 1639.03 943.586C1640.22 931.993 1640.4 932.018 1641.89 920.457C1642.02 919.465 1642.02 919.466 1644.54 901.622C1645.29 896.322 1645.29 896.327 1646.06 891.027C1646.49 888.039 1649.14 869.012 1650.52 857.373C1650.65 856.31 1650.67 856.272 1651.44 855.524C1651.45 855.511 1653.2 854.769 1653.2 854.773C1653.78 855.036 1654.49 855.115 1654.93 855.57C1655.83 856.486 1655.72 856.584 1655.83 857.858C1656.84 869.682 1657.27 878.942 1657.36 880.777C1657.84 891.31 1658.54 907.506 1657.76 924.919C1657.19 937.579 1656.59 942.69 1655.09 951.963C1655.02 952.406 1653.36 961.162 1652.55 964.603C1650.97 971.271 1647.54 986.084 1640.33 1003.12C1639.36 1005.41 1637.09 1010.09 1637.01 1010.18C1635.82 1011.56 1635.77 1011.59 1635.63 1011.65C1634.64 1012.12 1633.8 1011.82 1633.64 1011.77Z" fill="black"/>
<path fill-rule="evenodd" clip-rule="evenodd" d="M136.416 2535.92C136.416 2535.92 176.155 2580.96 99.0598 2618.68C59.0428 2638.25 -41.1562 2601.7 -41.1562 2601.7L1.90975 2020.65L136.416 2535.92Z" fill="white"/>
<path fill-rule="evenodd" clip-rule="evenodd" d="M136.416 2535.92C136.416 2535.92 176.155 2580.96 99.0598 2618.68C59.0428 2638.25 -41.1562 2601.7 -41.1562 2601.7L1.90975 2020.65L136.416 2535.92ZM134.572 2537.38C134.465 2537.21 134.337 2537.05 134.241 2536.87C134.05 2536.51 117.844 2477.26 116.426 2472.07C110.799 2451.49 48.5237 2223.79 46.3367 2214.82C30.7077 2150.71 17.6517 2085.99 2.02275 2021.89C1.71175 2047.48 4.22375 2073.05 3.91275 2098.65C3.90875 2098.95 -1.40125 2169.29 -3.07425 2190.78L-19.2612 2394.65C-22.0912 2429.59 -24.2022 2464.61 -27.8232 2499.48C-31.3602 2533.55 -37.1933 2567.36 -40.7313 2601.43L-39.2393 2597.27C-4.56125 2609.86 66.7627 2630.2 97.5397 2615.57C150.487 2590.39 148.326 2560.83 138.361 2543.06C136.567 2539.86 134.998 2537.93 134.637 2537.49C134.633 2537.49 134.63 2537.48 134.626 2537.48C134.596 2537.44 134.576 2537.41 134.572 2537.38Z" fill="black"/>
<path fill-rule="evenodd" clip-rule="evenodd" d="M669.115 1851.77C601.35 1823.65 296.538 1847.93 296.538 1847.93L341.682 1772.23C341.682 1772.23 410.635 1574.78 359.219 1514.9C307.802 1455.01 157.342 1432.39 90.6601 1501.46C23.9778 1570.54 100.262 1658.29 81.7463 1757.38C73.7893 1799.95 -0.26019 1884.6 -39.1428 1957.54C-80.0184 2034.22 -85.6132 2098.23 -85.6132 2098.23C-95.2732 2282.33 -51.6285 2483.72 94.3353 2581.6C94.3353 2581.6 344.548 2675.93 471.541 2656.53C598.535 2637.13 683.083 2554.74 645.62 2457.27C635.713 2431.49 521.183 2409 521.183 2409C521.183 2409 670.22 2432.11 709.598 2408.75C768.293 2373.93 790.404 2200.07 733.707 2154.59C690.833 2120.2 544.867 2112.71 544.867 2112.71C544.867 2112.71 683.29 2130.01 744.902 2084.79C807.659 2038.72 757.377 1888.4 669.115 1851.77Z" fill="white"/>
<path fill-rule="evenodd" clip-rule="evenodd" d="M578.061 2115.31C558.232 2113.39 544.867 2112.71 544.867 2112.71C544.867 2112.71 558.038 2114.36 578.061 2115.31C623.764 2119.7 703.806 2130.61 733.707 2154.59C790.404 2200.07 768.293 2373.93 709.598 2408.75C670.22 2432.11 521.183 2409 521.183 2409C521.183 2409 635.713 2431.49 645.62 2457.27C683.083 2554.74 598.535 2637.13 471.541 2656.53C344.548 2675.93 94.3353 2581.6 94.3353 2581.6C-51.6285 2483.72 -95.2732 2282.33 -85.6132 2098.23C-85.6132 2098.23 -80.0184 2034.22 -39.1428 1957.54C-0.26019 1884.6 73.7893 1799.95 81.7463 1757.38C100.262 1658.29 23.9778 1570.54 90.6601 1501.46C157.342 1432.39 307.802 1455.01 359.219 1514.9C410.635 1574.78 341.682 1772.23 341.682 1772.23L296.538 1847.93C296.538 1847.93 601.35 1823.65 669.115 1851.77C757.377 1888.4 807.659 2038.72 744.902 2084.79C702.295 2116.06 622.954 2117.43 578.061 2115.31ZM668.105 1854.2C658.143 1850.31 621.06 1835.83 434.012 1843.61C360.926 1846.66 299.385 1851.73 297.725 1851.86C297.602 1851.87 296.506 1851.96 296.177 1851.94C293.542 1851.71 291.809 1848.95 292.757 1846.46C292.838 1846.25 292.937 1846.05 293.052 1845.85C307.939 1820.69 322.882 1795.57 337.764 1770.41C337.791 1770.37 337.754 1770.3 337.768 1770.25C337.771 1770.24 380.357 1646.43 372.278 1566.7C368.754 1531.93 357.047 1519.94 351.664 1514.39C296.011 1456.99 143.162 1439.23 86.5847 1515.86C44.3084 1573.12 92.595 1644.47 91.5883 1727.08C91.5568 1729.67 91.3782 1744.37 88.4809 1759.23C79.4585 1805.52 3.13535 1891.16 -35.6853 1967.25C-72.4692 2039.35 -77.7024 2098.4 -77.7431 2098.8L-77.7453 2098.8C-79.7153 2141.57 -87.9776 2320.41 -5.16348 2461.55C33.1894 2526.92 76.8407 2559.27 98.2932 2573.89C106.816 2577.07 348.299 2666.62 470.293 2648.33C589.411 2630.46 674.033 2554.45 638.728 2460.54C638.54 2460.04 636.834 2448.81 581.734 2431.8C555.656 2423.75 528.97 2417.93 520.101 2416.13C519.882 2416.08 518.537 2415.8 517.484 2415.17C517.072 2414.92 514.653 2413.47 514.093 2410.22C514.012 2409.75 513.534 2406.97 515.636 2404.42C515.942 2404.06 517.737 2401.88 521.037 2401.81C522.835 2401.78 522.793 2402.2 543.304 2404.84C612.509 2413.77 683.68 2416.6 706.531 2402.9C750.875 2376.3 774.687 2259.25 751.796 2192.87C742.302 2165.34 728.457 2157.03 721.178 2152.93C687.985 2134.24 620.15 2124.2 572.108 2119.66C559.08 2118.97 549.445 2118.03 545.21 2117.55C544.687 2117.5 543.225 2117.43 542.045 2116.56C540.507 2115.43 539.767 2113.34 540.253 2111.5C540.739 2109.65 542.414 2108.2 544.309 2107.97C545.338 2107.85 557.519 2108.68 564.847 2109.25C571.697 2109.79 578.26 2110.37 584.533 2110.98C634.502 2113.02 705.084 2109.34 742.932 2081.38C802.1 2037.67 754.886 1892.22 669.612 1854.86C669.492 1854.8 669.493 1854.81 668.101 1854.2L668.105 1854.2Z" fill="black"/>
<path fill-rule="evenodd" clip-rule="evenodd" d="M15.3881 2205.25C15.3881 2205.25 138.151 2119.65 195.584 2093.57C209.232 2087.37 225.347 2093.42 231.547 2107.07C237.746 2120.72 231.699 2136.83 218.051 2143.03C160.617 2169.12 15.3881 2205.25 15.3881 2205.25Z" fill="white"/>
<path fill-rule="evenodd" clip-rule="evenodd" d="M15.3881 2205.25C15.3881 2205.25 138.151 2119.65 195.584 2093.57C209.232 2087.37 225.347 2093.42 231.547 2107.07C237.746 2120.72 231.699 2136.83 218.051 2143.03C160.617 2169.12 15.3881 2205.25 15.3881 2205.25ZM30.2149 2198.45C57.2174 2190.51 77.3988 2184.23 81.9312 2182.82C139.645 2164.87 166.55 2155.07 173.82 2152.46C201.005 2142.69 214.885 2136.11 216.213 2135.36C227.226 2129.11 229.653 2114.36 221.089 2104.94C215.754 2099.07 206.737 2096.58 198.556 2100.16C192.536 2102.79 169.951 2112.6 108.643 2149.48C91.6574 2159.69 76.6997 2169.03 69.0575 2173.82C55.5597 2182.29 45.0372 2188.89 30.2149 2198.45Z" fill="black"/>
<path fill-rule="evenodd" clip-rule="evenodd" d="M35.5504 2305.87C35.5504 2305.87 177.228 2257.65 239.641 2248.51C254.473 2246.34 268.279 2256.61 270.452 2271.45C272.626 2286.28 262.349 2300.09 247.517 2302.26C185.103 2311.41 35.5504 2305.87 35.5504 2305.87Z" fill="white"/>
<path fill-rule="evenodd" clip-rule="evenodd" d="M35.5504 2305.87C35.5504 2305.87 177.228 2257.65 239.641 2248.51C254.473 2246.34 268.279 2256.61 270.452 2271.45C272.626 2286.28 262.349 2300.09 247.517 2302.26C185.103 2311.41 35.5504 2305.87 35.5504 2305.87ZM51.6799 2303.45C79.826 2303.3 100.956 2302.86 105.702 2302.76C166.129 2301.52 194.697 2299.56 202.407 2299.06C231.233 2297.21 246.394 2294.73 247.878 2294.38C260.191 2291.43 266.611 2277.93 260.995 2266.5C257.496 2259.38 249.523 2254.49 240.669 2255.66C234.156 2256.53 209.736 2259.69 140.609 2278.13C121.458 2283.24 104.498 2288.06 95.8267 2290.55C80.5116 2294.94 68.572 2298.37 51.6799 2303.45Z" fill="black"/>
<path fill-rule="evenodd" clip-rule="evenodd" d="M47.4015 2404.83C47.4015 2404.83 196.779 2395.7 259.394 2403.35C274.273 2405.17 284.878 2418.72 283.061 2433.6C281.244 2448.49 267.689 2459.09 252.809 2457.28C190.194 2449.63 47.4015 2404.83 47.4015 2404.83Z" fill="white"/>
<path fill-rule="evenodd" clip-rule="evenodd" d="M47.4015 2404.83C47.4015 2404.83 196.779 2395.7 259.394 2403.35C274.273 2405.17 284.878 2418.72 283.061 2433.6C281.244 2448.49 267.689 2459.09 252.809 2457.28C190.194 2449.63 47.4015 2404.83 47.4015 2404.83ZM63.598 2406.75C90.7856 2414.04 111.282 2419.19 115.886 2420.35C174.502 2435.08 202.574 2440.73 210.141 2442.29C238.435 2448.11 253.712 2449.72 255.237 2449.77C267.891 2450.17 277.646 2438.84 275.244 2426.34C273.747 2418.55 267.347 2411.73 258.498 2410.52C251.987 2409.64 227.599 2406.24 156.056 2405.79C136.235 2405.67 118.603 2405.85 109.583 2405.96C93.6519 2406.15 81.2317 2406.31 63.598 2406.75Z" fill="black"/>
<path fill-rule="evenodd" clip-rule="evenodd" d="M629.774 2557.62C629.774 2557.62 490.197 2681.41 213.936 2545.18C179.805 2528.35 63.5987 2437.8 102.029 2307.02C35.7007 2175.93 103.965 2075.15 181.836 1910.43C205.933 1859.46 200.049 1764.29 175.483 1697.89C148.935 1626.14 82.1997 1573.43 161.208 1473.43C130.367 1481.19 98.3387 1496.73 60.9857 1547.18L86.2687 1760.68C21.7097 1893.06 -45.1433 1981.74 -115.07 2011.88L-47.2243 2610.07L129.796 2596.46C316.488 2647.35 523.507 2686.49 629.774 2557.62Z" fill="black" fill-opacity="0.2"/>
</g>
<defs>
<clipPath id="clip0_1998_956">
<rect width="2160" height="2700" fill="white"/>
</clipPath>
</defs>
</svg>
