<svg width="2160" height="2700" viewBox="0 0 2160 2700" fill="none" xmlns="http://www.w3.org/2000/svg">
<g clip-path="url(#clip0_1677_497)">
<path fill-rule="evenodd" clip-rule="evenodd" d="M1328.24 262.703L1041.96 601.502L1173.41 1114.8L1262.71 1155.02L1246.59 653.648L1539.77 411.851L1854.55 682.834L1769.26 1156.9L1870.23 1114.7L2048.48 626.894L1793.87 329.911L1328.24 262.703Z" fill="#A4A4A4"/>
<mask id="mask0_1677_497" style="mask-type:luminance" maskUnits="userSpaceOnUse" x="1041" y="262" width="1008" height="895">
<path d="M1328.24 262.703L1041.96 601.502L1173.41 1114.8L1262.71 1155.02L1246.59 653.648L1539.77 411.851L1854.55 682.834L1769.26 1156.9L1870.23 1114.7L2048.48 626.894L1793.87 329.911L1328.24 262.703Z" fill="white"/>
</mask>
<g mask="url(#mask0_1677_497)">
<path fill-rule="evenodd" clip-rule="evenodd" d="M1478.83 498.627C1414.24 711.624 1348.23 924.185 1283.64 1137.18C1283.02 1139.24 1283.58 1141.51 1283.24 1143.64C1283.09 1144.63 1282.26 1149.84 1278.94 1155.35C1272.14 1166.66 1261.65 1169.47 1259.79 1169.96C1259.77 1169.97 1253.52 1170.98 1253.51 1170.98C1251.39 1170.88 1249.26 1171 1247.16 1170.69C1245.72 1170.48 1237.88 1169.32 1230.64 1162.87C1229.17 1161.57 1220.73 1154.04 1219.72 1140.86C1207.13 976.853 1194.83 812.816 1182.59 648.774C1182.43 646.639 1182.37 644.488 1182.52 642.353C1182.96 635.837 1185.01 630.735 1185.39 629.777C1189.24 620.204 1195.5 614.894 1196.68 613.885C1278.03 544.875 1359.52 476.04 1441.11 407.321C1442.97 405.758 1444.94 404.318 1447.01 403.051C1449.46 401.555 1463.49 392.97 1482.38 397.321C1484.79 397.875 1487.15 398.648 1489.45 399.535C1505 405.528 1519.27 418.716 1535.91 417.954C1555.98 417.035 1572.96 402.383 1591.59 394.858C1594.04 393.868 1596.56 393.031 1599.13 392.42C1602.17 391.698 1619.66 387.541 1637.63 398.738C1639.92 400.161 1642.1 401.767 1644.13 403.533C1730.89 479.059 1817.52 554.728 1903.98 630.6C1906.39 632.717 1908.67 635.004 1910.71 637.481C1912.76 639.967 1914.6 642.636 1916.2 645.434C1917.8 648.242 1919.17 651.197 1920.28 654.236C1921.38 657.286 1922.24 660.443 1922.81 663.637C1924.57 673.445 1923.21 681.608 1922.96 683.148C1916.59 721.358 1844.52 1153.75 1842.5 1160.63C1841.41 1164.36 1840.74 1168.24 1839.22 1171.81C1837.73 1175.33 1835.8 1178.67 1833.55 1181.76C1831.91 1184.03 1823.29 1195.89 1805.29 1202.36C1801.36 1203.77 1797.33 1205.22 1793.16 1205.53C1784.36 1206.18 1775.49 1204.57 1766.7 1205.22L1765.28 1212.75C1757.37 1208.68 1748.42 1206.94 1740.51 1202.87C1736.69 1200.91 1733.53 1197.82 1730.45 1194.84C1727.41 1191.89 1724.64 1188.63 1722.22 1185.16C1719.82 1181.7 1717.74 1178 1716.06 1174.15C1714.37 1170.29 1713.05 1166.24 1712.17 1162.12C1711.28 1157.94 1710.79 1153.66 1710.78 1149.39C1710.76 1145 1711.21 1140.58 1712.1 1136.28C1742.36 988.602 1773.95 841.196 1804.22 693.517L1599.22 499.902C1581.29 505.723 1563.81 512.88 1545.88 518.701C1543.48 519.48 1540.89 519.53 1538.37 519.654C1535.86 519.777 1533.33 519.705 1530.83 519.441C1528.33 519.178 1525.76 519.007 1523.42 518.075C1508.37 512.048 1493.89 504.653 1478.83 498.627Z" fill="#F2EFD5" fill-opacity="0.59"/>
</g>
<path fill-rule="evenodd" clip-rule="evenodd" d="M1328.24 262.703L1793.87 329.911L2048.48 626.894L1870.23 1114.7L1769.26 1156.9L1854.55 682.834L1539.77 411.851L1246.59 653.648L1262.71 1155.02L1173.41 1114.8L1041.96 601.502L1328.24 262.703ZM1333.11 275.531L1055.12 604.52L1183.6 1106.23L1250.1 1136.18L1234.6 654.034C1234.48 650.318 1236.09 646.756 1238.95 644.39L1532.14 402.593C1536.65 398.876 1543.17 398.945 1547.6 402.757L1862.38 673.739C1865.6 676.511 1867.11 680.778 1866.36 684.959L1784.98 1137.33L1860.76 1105.65L2034.8 629.372L1787.7 341.144L1333.11 275.531Z" fill="black"/>
<path fill-rule="evenodd" clip-rule="evenodd" d="M2024.56 637.24C1968.35 569.265 1911.82 501.547 1855.61 433.572C1855.38 433.305 1855.27 432.922 1855.3 432.577C1855.3 432.56 1855.79 431.643 1855.79 431.641C1856.12 431.537 1856.44 431.306 1856.79 431.337C1857.13 431.368 1857.49 431.548 1857.71 431.813C1871.45 448.094 2027.79 633.384 2029.09 635.603C2029.61 636.486 2029.34 637.317 2029.3 637.459C2012.41 689.645 1995.51 741.823 1978.62 794.005C1978 795.918 1977.09 794.583 1975.21 795.293L1975.1 795.596L2024.56 637.24Z" fill="white"/>
<path d="M1776.42 -75.6589L1394.25 -96.6699L1371.41 318.795L1753.58 339.806L1776.42 -75.6589Z" fill="#8D8D8D"/>
<path fill-rule="evenodd" clip-rule="evenodd" d="M1776.43 -75.6587L1753.59 339.806L1371.41 318.795L1394.25 -96.6699L1776.43 -75.6587ZM1776.43 -75.6587L1771.3 -67.4119L1401.43 -88.6645L1378.36 312.576L1748.25 333.842L1776.43 -75.6587Z" fill="black"/>
<path fill-rule="evenodd" clip-rule="evenodd" d="M1765.4 25.5422C1765.39 26.0652 1765.32 29.0852 1762.77 31.5362C1761.98 32.2892 1761.03 32.9092 1760.02 33.3032C1758.97 33.7082 1757.82 33.8742 1756.7 33.8852C1756.7 33.8852 1733.21 33.1432 1718.29 32.6302C1594.05 28.3561 1502.32 21.8952 1388.62 -15.2147C1386.84 -15.7957 1386.76 -15.8547 1385.9 -17.5157C1385.89 -17.5307 1385.58 -21.0577 1385.58 -21.0647C1386.35 -21.9767 1386.83 -23.2477 1387.88 -23.7967C1388.93 -24.3407 1390.23 -24.1297 1391.41 -24.0947C1391.96 -24.0777 1426.29 -12.7917 1473.68 -3.36773C1564.93 14.7782 1649.97 15.6472 1757.06 16.8332C1760.6 16.8722 1762.67 19.0282 1763.03 19.4042C1763.39 19.7842 1765.48 21.9622 1765.4 25.5422Z" fill="black"/>
<path fill-rule="evenodd" clip-rule="evenodd" d="M1653.36 414.989L1575.52 492.44C1555.64 512.219 1523.44 512.14 1503.66 492.258L1431.99 420.22C1412.21 400.343 1412.29 368.143 1432.17 348.364L1510.01 270.913C1529.89 251.134 1562.09 251.218 1581.87 271.095L1653.54 343.133C1673.33 363.015 1673.24 395.21 1653.36 414.989Z" fill="#777777"/>
<path fill-rule="evenodd" clip-rule="evenodd" d="M1653.36 414.989L1575.52 492.44C1555.64 512.219 1523.44 512.14 1503.66 492.258L1431.99 420.22C1412.21 400.343 1412.29 368.143 1432.17 348.364L1510.01 270.913C1529.89 251.134 1562.09 251.218 1581.87 271.095L1653.54 343.133C1673.33 363.015 1673.24 395.21 1653.36 414.989ZM1650.08 411.69L1647.35 408.946C1646.94 409.332 1649.72 406.665 1651.92 403.654C1663.93 387.166 1662.57 363.859 1647.78 348.845C1577.08 277.034 1577.19 276.917 1574.28 274.338C1557.35 259.359 1531.4 259.915 1515.06 276.004C1437.43 352.439 1437.26 352.276 1434.11 355.946C1419.67 372.803 1419.8 399.045 1436.37 415.874C1507.17 487.786 1507.06 487.909 1509.98 490.478C1528.74 506.956 1555.78 504.539 1571.62 488.944C1597.78 463.194 1623.93 437.44 1650.08 411.69Z" fill="black"/>
<path fill-rule="evenodd" clip-rule="evenodd" d="M1837.96 286.565L1832.39 387.925C1830.85 415.896 1806.89 437.357 1778.93 435.819C1626.04 447.217 1474.65 438.447 1325.47 400.439C1297.5 398.901 1276.04 374.944 1277.58 346.973L1283.15 245.614C1284.69 217.642 1308.64 196.182 1336.61 197.72C1480.9 219.159 1630.83 232.679 1790.08 233.099C1818.04 234.636 1839.5 258.595 1837.96 286.565Z" fill="#777777"/>
<path fill-rule="evenodd" clip-rule="evenodd" d="M1837.96 286.565L1832.39 387.925C1830.85 415.896 1806.89 437.357 1778.93 435.819C1626.04 447.217 1474.65 438.447 1325.47 400.439C1297.5 398.901 1276.04 374.944 1277.58 346.973L1283.15 245.614C1284.69 217.642 1308.64 196.182 1336.61 197.72C1480.9 219.159 1630.83 232.679 1790.08 233.099C1818.04 234.636 1839.5 258.595 1837.96 286.565ZM1833.31 286.309L1829.45 286.097C1829.4 286.094 1831.57 268.332 1817.24 253.869C1805.91 242.425 1792.52 241.608 1790.16 241.435C1786.44 241.16 1704.73 241.936 1589.12 233.464C1477.65 225.295 1386.06 212.363 1335.94 204.763L1335.94 204.775C1335.18 204.745 1315.42 202.821 1300.56 219.917C1293.52 228.021 1290.49 237.738 1290.02 245.706C1289.54 253.95 1284.12 347.817 1284.1 348.76C1283.47 372.514 1301.86 392.547 1325.54 394.053C1325.84 394.073 1326.14 394.047 1326.45 394.107C1329.35 394.689 1376.45 407.786 1443.97 418.454C1522.26 430.823 1633.2 441.021 1776.76 430.817C1778.13 430.72 1778.13 430.628 1779.51 430.699C1805.28 432.032 1826.07 411.853 1827.45 387.95C1829.41 354.07 1831.36 320.19 1833.31 286.309Z" fill="black"/>
<path fill-rule="evenodd" clip-rule="evenodd" d="M1374.89 255.47C1374.65 256.492 1374.69 256.531 1374.03 257.347C1372.66 259.032 1372.11 257.707 1326.12 245.304C1325.59 245.159 1325.57 245.143 1325.28 244.671C1325.27 244.656 1325.1 243.649 1325.11 243.642C1325.31 243.366 1325.43 242.998 1325.72 242.819C1326.85 242.119 1327 242.683 1374.21 252.387C1374.91 252.53 1374.81 252.712 1374.97 253.406C1375.19 254.433 1375.13 254.447 1374.89 255.47Z" fill="white"/>
<path fill-rule="evenodd" clip-rule="evenodd" d="M1354.15 288.797C1353.89 289.883 1353.91 289.944 1353.05 290.647C1352.6 291.011 1351.93 291.191 1351.37 291.062C1349.1 290.544 1349.13 290.41 1323.36 282.901C1322.84 282.745 1322.81 282.731 1322.52 282.257C1322.51 282.242 1322.35 281.246 1322.35 281.239C1322.98 280.381 1322.93 280.059 1323.99 280.229C1329.28 281.085 1334.53 282.176 1339.8 283.149L1352.69 285.529C1353.12 285.902 1353.76 286.127 1353.99 286.652C1354.45 287.668 1354.4 287.712 1354.15 288.797Z" fill="white"/>
<path fill-rule="evenodd" clip-rule="evenodd" d="M1454.43 262.864C1454.26 263.954 1454.28 264.011 1453.49 264.771C1453.07 265.17 1452.42 265.422 1451.84 265.338C1443.32 264.051 1434.87 262.235 1426.38 260.685L1395.12 254.976C1394.83 254.788 1394.44 254.697 1394.24 254.415C1394.22 254.401 1393.98 253.407 1393.99 253.399C1394.16 253.108 1394.26 252.729 1394.53 252.528C1394.81 252.324 1395.2 252.224 1395.55 252.264C1406.06 253.507 1416.55 255.002 1427.06 256.371L1452.72 259.72C1453.2 260.065 1453.84 260.252 1454.11 260.76C1454.64 261.73 1454.61 261.775 1454.43 262.864Z" fill="white"/>
<path fill-rule="evenodd" clip-rule="evenodd" d="M1503.93 310.356C1503.94 311.468 1503.98 311.519 1503.32 312.414C1502.98 312.877 1502.38 313.224 1501.8 313.237L1467.06 312.372C1466.74 312.237 1466.34 312.205 1466.09 311.963C1466.08 311.95 1465.67 311.023 1465.67 311.015C1465.8 310.699 1465.82 310.316 1466.06 310.071C1466.3 309.82 1466.66 309.657 1467.01 309.63C1473.37 309.127 1479.76 308.864 1486.13 308.484L1501.71 307.551C1502.22 307.807 1502.89 307.872 1503.25 308.323C1503.94 309.193 1503.91 309.249 1503.93 310.356Z" fill="white"/>
<path fill-rule="evenodd" clip-rule="evenodd" d="M1601.9 313.141C1601.91 314.253 1601.95 314.304 1601.29 315.199C1600.95 315.662 1600.35 316.009 1599.77 316.022L1565.03 315.157C1564.71 315.022 1564.31 314.991 1564.06 314.748C1564.05 314.735 1563.64 313.808 1563.64 313.8C1563.77 313.484 1563.79 313.101 1564.03 312.856C1564.27 312.605 1564.63 312.442 1564.98 312.415C1571.34 311.912 1577.73 311.649 1584.1 311.269L1599.67 310.336C1600.19 310.592 1600.86 310.657 1601.22 311.109C1601.91 311.979 1601.87 312.034 1601.9 313.141Z" fill="white"/>
<path fill-rule="evenodd" clip-rule="evenodd" d="M1676.49 363.871C1676.51 364.983 1676.54 365.035 1675.88 365.93C1675.54 366.393 1674.94 366.739 1674.37 366.752L1639.62 365.887C1639.3 365.752 1638.9 365.721 1638.65 365.478C1638.64 365.466 1638.23 364.538 1638.23 364.53C1638.36 364.215 1638.39 363.831 1638.62 363.586C1638.87 363.335 1639.22 363.172 1639.57 363.146C1645.94 362.642 1652.32 362.379 1658.69 362L1674.27 361.067C1674.78 361.323 1675.45 361.388 1675.81 361.839C1676.5 362.709 1676.47 362.764 1676.49 363.871Z" fill="white"/>
<path fill-rule="evenodd" clip-rule="evenodd" d="M1741.72 361.725C1741.74 362.837 1741.77 362.888 1741.11 363.783C1740.77 364.246 1740.17 364.593 1739.6 364.606C1736.82 364.676 1736.82 364.536 1704.86 363.743C1704.31 363.727 1704.28 363.717 1703.88 363.332C1703.87 363.319 1703.46 362.392 1703.47 362.384C1703.59 362.068 1703.62 361.685 1703.85 361.44C1704.1 361.189 1704.46 361.026 1704.8 360.999L1739.5 358.92C1740.01 359.176 1740.68 359.241 1741.04 359.693C1741.73 360.563 1741.7 360.618 1741.72 361.725Z" fill="white"/>
<path fill-rule="evenodd" clip-rule="evenodd" d="M1681.32 270.752C1681.34 271.864 1681.38 271.916 1680.71 272.811C1680.37 273.273 1679.77 273.62 1679.2 273.633L1644.45 272.768C1644.13 272.633 1643.74 272.602 1643.49 272.359C1643.47 272.347 1643.06 271.419 1643.07 271.411C1643.19 271.096 1643.22 270.712 1643.46 270.467C1643.7 270.216 1644.06 270.053 1644.4 270.026C1650.77 269.523 1657.15 269.26 1663.52 268.881L1679.1 267.948C1679.61 268.204 1680.28 268.268 1680.64 268.72C1681.33 269.59 1681.3 269.645 1681.32 270.752Z" fill="white"/>
<path fill-rule="evenodd" clip-rule="evenodd" d="M1743.18 272.78C1743.2 273.891 1743.24 273.943 1742.57 274.838C1742.23 275.301 1741.63 275.647 1741.06 275.661L1706.31 274.795C1705.99 274.661 1705.6 274.629 1705.34 274.387C1705.33 274.374 1704.92 273.447 1704.93 273.439C1705.05 273.123 1705.08 272.739 1705.32 272.495C1705.56 272.243 1705.92 272.081 1706.26 272.054C1709.04 271.831 1709.04 271.884 1740.95 269.978C1741.88 269.919 1741.92 270.014 1742.5 270.747C1743.19 271.617 1743.16 271.673 1743.18 272.78Z" fill="white"/>
<path fill-rule="evenodd" clip-rule="evenodd" d="M1798.53 272.153C1799.42 272.818 1799.48 272.819 1799.79 273.89C1799.95 274.443 1799.86 275.129 1799.52 275.592C1797.88 277.837 1797.77 277.75 1777.67 302.615C1777.32 303.044 1777.3 303.058 1776.75 303.138C1776.74 303.139 1775.75 302.902 1775.75 302.893C1775.57 302.6 1775.29 302.346 1775.24 302.009C1775.18 301.664 1775.27 301.281 1775.46 300.989C1778.94 295.636 1782.62 290.413 1786.2 285.129L1794.95 272.207C1795.47 271.955 1795.93 271.463 1796.5 271.454C1797.61 271.435 1797.64 271.497 1798.53 272.153Z" fill="white"/>
<path fill-rule="evenodd" clip-rule="evenodd" d="M1808.06 350.354C1807.28 351.146 1807.27 351.209 1806.16 351.365C1805.59 351.446 1804.93 351.262 1804.51 350.863C1800.77 347.251 1797.4 343.272 1793.85 339.476L1780.75 325.501C1780.62 325.177 1780.36 324.874 1780.36 324.525C1780.36 324.508 1780.73 323.563 1780.74 323.561C1781.06 323.43 1781.35 323.179 1781.69 323.176C1782.04 323.173 1782.41 323.314 1782.67 323.542C1787.49 327.723 1792.16 332.087 1796.9 336.359L1808.5 346.803C1808.67 347.349 1809.1 347.872 1809.03 348.444C1808.89 349.547 1808.83 349.561 1808.06 350.354Z" fill="white"/>
<path fill-rule="evenodd" clip-rule="evenodd" d="M1802 252.354C1801.97 253.502 1801.94 253.56 1801.12 254.351C1800.59 254.85 1799.82 255.09 1799.1 255.136C1799.1 255.136 1781.23 254.641 1762.78 254.062C1597.32 248.89 1463.97 240.321 1333.86 223.035C1333.31 222.962 1333.29 222.945 1332.95 222.506C1332.94 222.493 1332.67 221.495 1332.68 221.487C1333.21 220.561 1333.14 220.271 1334.21 220.309C1335.86 220.375 1396.25 228.87 1493.42 236.161C1604.6 244.495 1713.57 247.575 1799.23 249.451C1800.37 249.478 1800.42 249.5 1801.21 250.33C1801.71 250.856 1802.02 251.631 1802 252.354Z" fill="white"/>
<path fill-rule="evenodd" clip-rule="evenodd" d="M1365.32 339.451C1365.18 340.493 1365.22 340.527 1364.65 341.403C1364.41 341.752 1363.99 342.144 1363.58 342.08C1360.23 341.565 1323.69 335.95 1321.85 334.828C1321.56 334.645 1321.17 334.556 1320.96 334.278C1320.95 334.264 1320.69 333.28 1320.69 333.273C1320.87 332.98 1320.95 332.603 1321.22 332.397C1321.5 332.187 1321.89 332.077 1322.23 332.109C1325.6 332.426 1363.99 336.03 1364.36 336.447C1364.64 336.759 1365.07 336.986 1365.2 337.386C1365.52 338.388 1365.47 338.407 1365.32 339.451Z" fill="white"/>
<path fill-rule="evenodd" clip-rule="evenodd" d="M1318.8 213.132C1305.33 314.665 1673.57 450.005 1837.98 383.845C1834.89 420.199 1782.62 482.986 1702.43 481.718L1819.84 658.205L1609.12 474.056L1609.27 441.436C1523.61 441.551 1493.46 461.258 1522.48 498.431L1476.7 458.654L1421.64 492.703L1385.03 437.386L1281.36 435.352L1241.79 393.984L1275.68 326.253L1320.79 201.897L1478.12 220.496L1452.11 128.19L1444.75 -6.84761L1401.28 -3.82563L1391.14 210.214L1320.79 201.897" fill="black" fill-opacity="0.2"/>
<path fill-rule="evenodd" clip-rule="evenodd" d="M1313.2 337.053C1323.26 338.503 1338.23 340.639 1360.66 343.2C1361.17 343.259 1364.13 343.598 1366.28 346.413C1366.94 347.284 1367.45 348.302 1367.73 349.361C1368.65 352.878 1367.1 355.561 1366.83 356.027C1366.58 356.472 1365.08 359.066 1361.74 359.928C1360.66 360.208 1359.51 360.121 1358.4 360.107C1357.96 360.101 1345.51 358.069 1344.39 357.887C1326.39 354.949 1312.98 352.425 1310.24 351.921C1310.02 351.88 1308.05 351.517 1307.52 351.331C1307 351.147 1303.78 350.028 1302.75 346.216C1302.43 345.032 1302.49 344.018 1302.5 343.826C1303.21 332.222 1305.34 301.575 1305.6 297.902L1308.71 251.98C1308.93 248.767 1311.32 247.466 1311.71 247.252C1311.98 247.106 1313.43 246.312 1315.45 246.636C1318.13 247.067 1336.3 250.622 1368.84 255.931C1369.76 256.08 1369.77 256.046 1370.58 256.511C1371.09 256.808 1371.65 257.161 1371.91 257.697C1371.92 257.727 1372.79 261.196 1372.78 261.204C1372.18 262.218 1371.92 263.534 1370.98 264.242C1370.02 264.953 1368.72 265.062 1367.53 265.147C1367.22 265.169 1352.01 263.195 1350.65 263.02C1332.88 260.713 1318.45 258.619 1316.99 258.411C1317.38 271.801 1318.59 285.167 1318.84 298.562C1318.99 306.232 1319.37 313.991 1318.15 321.565C1317.3 326.91 1314.88 331.897 1313.2 337.053ZM1311.83 342.402C1311.81 342.507 1311.79 342.612 1311.78 342.717L1311.83 342.402Z" fill="black"/>
<path fill-rule="evenodd" clip-rule="evenodd" d="M1360.42 298.981C1360.02 302.576 1357.66 304.455 1357.25 304.785C1356.4 305.463 1355.4 305.991 1354.35 306.28C1353.27 306.579 1352.12 306.569 1351 306.513C1350.28 306.477 1312.47 298.006 1312.17 297.82C1311.15 297.2 1309.83 296.905 1309.11 295.956C1307.25 293.515 1308.62 290.962 1308.82 290.583C1308.95 290.336 1309.8 288.758 1311.61 288.455C1311.75 288.431 1311.74 288.537 1313.41 288.596C1334.4 289.343 1352.9 289.563 1352.91 289.564C1353.97 289.956 1355.12 290.166 1356.1 290.742C1357.04 291.301 1357.9 292.053 1358.58 292.912C1360.79 295.682 1360.48 298.477 1360.42 298.981Z" fill="black"/>
<path fill-rule="evenodd" clip-rule="evenodd" d="M1418 269.652C1418.78 276.37 1420.52 283.001 1420.87 289.759C1421.3 298.336 1420.43 306.931 1420.21 315.516L1418.92 367.029C1418.83 370.576 1416.61 372.571 1416.22 372.917C1415.4 373.652 1414.42 374.24 1413.38 374.601C1409.91 375.805 1407.1 374.471 1406.61 374.239C1406.15 374.018 1403.44 372.731 1402.32 369.459C1401.96 368.4 1401.82 367.247 1401.88 366.13C1402.38 357.551 1403.29 349.003 1403.99 340.44L1408.21 289.079C1408.89 280.518 1409.49 271.952 1410.17 263.391C1410.43 260.213 1413.28 257.597 1416.85 258.182C1418.15 258.394 1428.56 260.569 1449.86 264.468C1450.76 264.633 1450.81 264.478 1451.63 264.895C1453.27 265.733 1453.64 267.448 1453.7 267.722C1453.79 268.142 1454.41 270.959 1451.91 272.79C1450.96 273.493 1449.64 273.539 1448.46 273.67C1448.25 273.693 1434.97 271.946 1433.8 271.792C1426.59 270.842 1420.31 269.973 1418 269.652Z" fill="black"/>
<path fill-rule="evenodd" clip-rule="evenodd" d="M1427.29 267.158C1426.95 270.779 1424.63 272.7 1424.22 273.038C1423.38 273.731 1422.39 274.275 1421.35 274.581C1420.27 274.896 1419.12 274.896 1418 274.86C1417.46 274.843 1381.84 267.351 1381.6 267.21C1380.57 266.607 1379.25 266.332 1378.5 265.398C1378.22 265.041 1376.6 263.016 1378.14 259.697C1378.25 259.442 1379.1 257.602 1380.88 257.509C1381.8 257.459 1381.72 257.954 1382.64 257.961C1399.18 258.095 1416.64 257.909 1419.6 257.878C1419.6 257.878 1422.8 259.054 1422.81 259.058C1423.76 259.612 1424.63 260.353 1425.33 261.203C1427.59 263.932 1427.33 266.659 1427.29 267.158Z" fill="black"/>
<path fill-rule="evenodd" clip-rule="evenodd" d="M1455.24 379.903C1451.6 379.668 1449.62 377.663 1449.25 377.291C1448.54 376.58 1447.95 375.715 1447.61 374.777C1447.26 373.845 1447.14 372.811 1447.22 371.82C1447.23 371.686 1457.22 276.985 1457.22 276.976C1457.77 275.917 1457.98 274.587 1458.87 273.8C1458.89 273.788 1462.17 272.639 1462.18 272.643C1463.21 273.164 1464.51 273.342 1465.28 274.214C1466.07 275.11 1466.48 276.383 1466.51 277.577C1466.52 277.769 1466.5 277.769 1464.24 372.907C1464.23 373.375 1464.16 376.027 1461.52 378.082C1461.11 378.403 1458.88 380.137 1455.24 379.903Z" fill="black"/>
<path fill-rule="evenodd" clip-rule="evenodd" d="M1504.01 384.396C1500.38 384.158 1498.39 381.893 1498.04 381.494C1497.7 381.105 1495.73 378.863 1496.06 375.338C1496.07 375.249 1506.18 280.184 1506.18 280.181C1506.73 279.122 1506.94 277.793 1507.84 277.007C1507.85 276.995 1511.13 275.849 1511.14 275.854C1512.17 276.376 1513.47 276.556 1514.24 277.427C1515.03 278.325 1515.47 279.597 1515.47 280.792C1515.48 296.74 1514.67 312.678 1514.27 328.622C1513.88 344.562 1513.48 360.502 1513.08 376.443C1512.99 379.985 1510.74 381.96 1510.35 382.301C1509.95 382.653 1507.69 384.637 1504.01 384.396Z" fill="black"/>
<path fill-rule="evenodd" clip-rule="evenodd" d="M1507.33 321.41C1507.23 325.019 1505.04 327.087 1504.65 327.45C1503.86 328.196 1502.91 328.806 1501.89 329.182C1500.84 329.57 1499.69 329.66 1498.57 329.698C1498.57 329.698 1491.83 328.853 1483.66 327.744C1470.65 325.98 1460.59 324.45 1458.89 324.196C1455.31 323.659 1455.72 322.719 1454.49 319.313C1454.48 319.308 1454.95 317.337 1454.96 317.323C1455.07 317.067 1455.79 315.476 1457.57 314.977C1457.73 314.93 1472.27 314.471 1499.06 312.649C1500.31 312.564 1502.1 313.419 1502.34 313.537C1503.33 314.011 1504.25 314.688 1505 315.487C1507.43 318.063 1507.35 320.901 1507.33 321.41Z" fill="black"/>
<path fill-rule="evenodd" clip-rule="evenodd" d="M1555.72 384.192C1554.6 383.996 1553.46 383.923 1552.38 383.604C1551.98 383.487 1549.19 382.665 1548.01 380.831C1546.62 378.68 1547.58 378.38 1557.67 283.821C1557.87 281.953 1557.91 281.875 1559.32 280.636C1559.34 280.625 1562.62 279.48 1562.63 279.484C1563.66 280.006 1564.96 280.186 1565.73 281.058C1566.52 281.956 1566.97 283.229 1566.95 284.423C1566.57 316.326 1565.34 348.213 1564.53 380.108C1564.52 380.435 1564.48 382.029 1561.89 383.229C1561.02 383.636 1560.06 383.897 1559.1 384.047C1559.09 384.048 1555.72 384.192 1555.72 384.192Z" fill="black"/>
<path fill-rule="evenodd" clip-rule="evenodd" d="M1604.91 388.276C1601.22 388.034 1599.24 385.772 1598.89 385.37C1598.17 384.556 1597.61 383.581 1597.28 382.547C1596.95 381.484 1596.85 380.328 1596.95 379.218C1597.66 371.61 1597.77 371.624 1607.06 284.243C1607.26 282.34 1608.51 281.246 1608.72 281.057C1608.74 281.045 1612.01 279.898 1612.02 279.902C1613.05 280.424 1614.36 280.602 1615.13 281.476C1615.91 282.372 1616.35 283.647 1616.35 284.839C1616.35 284.998 1614.16 372.684 1613.97 380.323C1613.89 383.824 1611.59 385.836 1611.2 386.178C1610.8 386.528 1608.54 388.514 1604.91 388.276Z" fill="black"/>
<path fill-rule="evenodd" clip-rule="evenodd" d="M1608.12 325.429C1608.24 329.034 1606.18 331.234 1605.82 331.619C1605.08 332.413 1604.16 333.08 1603.17 333.519C1602.14 333.972 1601 334.133 1599.89 334.24C1599.89 334.24 1593.04 333.815 1584.74 333.211C1571.52 332.25 1561.29 331.335 1559.56 331.184C1555.95 330.869 1556.3 329.901 1554.86 326.577C1554.86 326.572 1555.21 324.597 1555.21 324.582C1555.31 324.32 1555.93 322.703 1557.67 322.083C1558.01 321.964 1571.91 320.74 1599.32 317.193C1600.58 317.031 1602.4 317.769 1602.66 317.87C1603.68 318.281 1604.63 318.9 1605.43 319.651C1608.01 322.072 1608.11 324.919 1608.12 325.429Z" fill="black"/>
<path fill-rule="evenodd" clip-rule="evenodd" d="M1680.76 363.859L1684.61 364.24C1684.58 364.456 1684.12 376.276 1669.47 383.562C1656.48 390.017 1639.86 389.049 1632.26 379.001C1626.86 371.86 1628.9 361.026 1629.52 353.753C1632.04 323.908 1639.24 302.181 1640.59 297.208C1643.07 288.098 1645.92 278.001 1654.16 275.007C1657.88 273.656 1669.44 270.935 1676.05 288.666C1683.55 308.798 1682.27 349.244 1680.88 362.722C1680.84 363.101 1680.8 363.48 1680.76 363.859ZM1671.5 362.942C1671.54 362.457 1672.14 356.237 1671.9 342.26C1671.35 311.043 1666.65 290.993 1661.26 286.766C1660.41 286.101 1659.75 286.012 1658.3 286.649L1658.31 286.657C1655.43 289.537 1654.02 297.522 1652.4 303.661C1644.99 331.739 1644.52 352.97 1644.16 357.894C1643.99 360.23 1643.67 363.994 1643.95 366.853C1643.97 367.028 1644.13 368.781 1644.55 369.511L1644.56 369.504C1649.34 374.308 1663.99 370.369 1667.19 364.152C1667.6 363.359 1667.63 362.711 1667.64 362.56L1671.5 362.942ZM1667.64 362.56C1667.63 362.559 1667.64 362.52 1667.64 362.53C1667.64 362.535 1667.64 362.545 1667.64 362.56Z" fill="black"/>
<path fill-rule="evenodd" clip-rule="evenodd" d="M1745.83 362.317C1747 362.43 1748.27 362.554 1749.68 362.69C1749.59 363.341 1748.99 377.188 1731.16 383.752C1718.76 388.313 1698.64 388.442 1694.34 373.508C1692.56 367.338 1693.67 360.674 1694.32 353.149C1696.84 323.95 1703.96 302.295 1705.26 297.514C1707.71 288.47 1710.51 278.444 1718.64 275.203C1725.93 272.298 1735.96 273.672 1741.49 290.005C1747.65 308.191 1747.1 338.344 1746.68 349.983C1746.43 356.688 1746.05 360.103 1745.83 362.317L1736.56 361.418C1736.72 359.089 1737.42 348.778 1736.59 332.233C1734.98 300.199 1729.22 287.99 1725.56 286.313C1725.41 286.247 1724.77 285.902 1723.17 286.664C1722.94 286.776 1722.16 287.607 1721.34 289.29C1719.5 293.122 1718.94 296.657 1716.83 304.797C1709.65 332.573 1709.25 353.103 1708.89 358.098C1708.88 358.287 1708.05 366.994 1709.21 369.344C1712.79 371.815 1725.99 370.341 1731.11 364.661C1732.61 363.006 1732.68 361.46 1732.7 361.044C1733.94 361.169 1734.05 361.176 1745.83 362.317ZM1732.7 361.044C1732.69 361.042 1732.71 360.991 1732.71 361.004C1732.71 361.016 1732.7 361.029 1732.7 361.044Z" fill="black"/>
<path fill-rule="evenodd" clip-rule="evenodd" d="M1761.73 382.274C1758.02 382.049 1756.03 379.798 1755.67 379.396C1754.95 378.586 1754.38 377.613 1754.06 376.581C1753.72 375.519 1753.64 374.365 1753.73 373.254C1753.94 370.503 1754.02 370.511 1760.89 303.096C1763.27 279.747 1763.25 279.744 1763.27 279.702C1763.82 278.64 1764.03 277.312 1764.93 276.518C1764.94 276.507 1768.2 275.342 1768.21 275.346C1769.25 275.863 1770.56 276.034 1771.33 276.904C1772.12 277.796 1772.53 279.069 1772.56 280.261C1772.57 280.657 1770.9 366.756 1770.76 374.277C1770.69 377.768 1768.39 379.802 1768 380.146C1767.61 380.497 1765.35 382.494 1761.73 382.274Z" fill="black"/>
<path fill-rule="evenodd" clip-rule="evenodd" d="M1778.05 323.338C1784.8 332.084 1796.61 347.35 1814.01 368.947C1815.19 370.408 1815.21 370.498 1815.07 372.37C1815.07 372.387 1813.52 375.513 1813.51 375.516C1812.4 375.871 1811.34 376.663 1810.17 376.575C1808.99 376.485 1807.95 375.679 1806.96 375.018C1806.74 374.875 1795.62 362.553 1794.64 361.465C1777.76 342.762 1764.38 327.369 1763.61 326.441C1763.28 326.034 1761.2 323.506 1762.47 319.942C1762.86 318.844 1763.49 318.086 1763.6 317.944C1764.07 317.372 1765.28 316.419 1780.77 302.24C1796.41 287.924 1807.85 277.273 1807.87 277.264C1808.88 276.75 1809.82 276.05 1810.9 275.723C1811.39 275.575 1814.27 274.709 1817.31 276.163C1817.78 276.387 1820.43 277.656 1821.58 281.059C1821.75 281.546 1822.7 284.372 1821.14 287.47C1820.64 288.472 1819.85 289.324 1819.07 290.122C1818.67 290.532 1800.61 305.156 1799 306.459C1789.84 313.882 1785.55 317.323 1778.05 323.338Z" fill="black"/>
<path fill-rule="evenodd" clip-rule="evenodd" d="M1043.53 630.095L1089.41 610.215C1069.06 591.706 1048.6 573.314 1028.25 554.805C1028.09 554.654 1027.18 553.152 1027.81 551.528C1028.3 550.275 1029.57 549.379 1030.91 549.346C1031.11 549.341 1031.3 549.322 1031.49 549.38C1041.58 552.56 1051.63 555.874 1061.72 559.054C1091.52 520.019 1121.54 481.159 1151.34 442.124C1151.45 441.976 1151.37 441.75 1151.4 441.567C1151.74 439.862 1153.42 438.671 1155.14 438.909C1155.32 438.935 1155.52 438.939 1155.68 439.032C1173.24 449.092 1190.72 459.294 1208.28 469.354C1193.96 447.363 1179.58 425.409 1165.26 403.418C1164.53 402.302 1164.59 400.156 1166.21 399.035C1167.06 398.44 1168.15 398.427 1168.28 398.455C1178.06 400.658 1187.81 402.99 1197.6 405.191L1259.34 336.763C1249.18 326.255 1238.93 315.843 1228.78 305.336C1228.51 305.054 1227.71 303.282 1228.77 301.718C1229.78 300.224 1231.34 300.299 1231.59 300.311C1246.38 301.023 1261.17 301.765 1275.97 302.492C1277.61 302.573 1278.98 303.965 1279 305.644C1279.26 325.453 1272.28 346.713 1279.72 365.071C1285.07 378.27 1302.34 382.385 1313.64 391.057C1314.38 391.622 1314.71 392.515 1314.72 392.577C1315.61 403.547 1316.35 414.527 1317.24 425.497C1321.5 404.212 1325.69 382.914 1329.96 361.628C1330.23 360.246 1332 358.78 1333.95 359.423C1335.4 359.903 1335.95 361.336 1335.97 361.56C1337.39 375.008 1338.68 388.469 1340.09 401.917C1433.26 413.238 1526.44 424.56 1619.61 435.881C1621.92 436.162 1621.64 436.809 1622.41 439.008C1622.41 439.017 1621.43 441.053 1621.42 441.064C1620.85 441.567 1620.04 441.857 1619.28 441.818C1559.58 438.739 1499.57 438.938 1440.22 431.72C1404.98 427.434 1371.09 415.538 1336.53 407.43C1334.85 407.035 1334.25 405.407 1334.25 405.205C1333.76 391.106 1333.42 377.003 1332.94 362.905C1328.6 384.39 1324.42 405.906 1320.08 427.391C1320.02 427.698 1318.98 429.336 1317.1 429.266C1315.65 429.213 1314.37 428.103 1314.12 426.654C1312.34 416.207 1314.83 404.042 1308.83 395.305C1300.71 383.481 1286.03 377.888 1274.65 369.165C1273.69 368.429 1273.45 367.277 1273.45 367.166C1273.15 347.686 1272.96 328.206 1272.66 308.727L1232.5 303.998C1243.77 314.318 1255.15 324.518 1266.42 334.838C1266.63 335.034 1267.52 336.793 1266.49 338.41C1266.35 338.64 1266.2 338.808 1266.17 338.841C1201.42 410.716 1201.8 411.455 1199.48 411.998C1199.16 412.071 1198.54 412.089 1198.49 412.075C1188.68 408.927 1178.93 405.634 1169.12 402.487C1183.38 424.616 1197.78 446.658 1212.04 468.788C1212.16 468.978 1212.62 470.668 1211.55 472.027C1210.41 473.479 1208.44 473.502 1207.43 472.934C1190.14 463.227 1172.88 453.458 1155.59 443.752C1156.13 450.784 1156.82 457.804 1157.36 464.836C1157.37 464.894 1157.16 465.845 1156.52 466.539C1126.11 499.459 1095.68 532.373 1065.25 565.275C1064.67 565.896 1064 566.133 1063.88 566.176C1061.58 566.985 1061.55 566.032 1031.66 553.157C1052.43 571.637 1073.3 589.999 1094.06 608.479C1094.21 608.613 1095.13 610.074 1094.56 611.701C1094.49 611.908 1094.06 613.115 1092.68 613.718C1076.75 620.712 1060.8 627.696 1044.85 634.669C1065.17 704.949 1085.48 775.233 1105.77 845.519C1105.92 846.057 1105.94 846.603 1105.85 847.122C1155.91 848.113 1205.98 849.046 1256.04 850.033C1255.71 839.5 1255.37 828.966 1255.04 818.432C1254.95 815.68 1256.93 814.373 1257.25 814.162C1274.15 803.02 1291.05 791.891 1307.97 780.775C1290.37 782.437 1272.78 784.092 1255.19 785.728C1255.05 785.742 1253.52 785.502 1252.42 784.505C1252.2 784.303 1250.92 783.137 1250.87 781.104C1249.69 739.724 1248.53 698.344 1247.4 656.962C1247.39 656.647 1247.34 654.8 1248.94 653.334C1256.08 646.812 1263.23 640.306 1270.39 633.818C1270.67 633.566 1272.4 631.996 1274.98 632.81C1275.11 632.849 1275.77 633.059 1276.43 633.563C1306.71 656.73 1336.98 679.917 1367.24 703.119C1369.15 704.582 1369.62 707.367 1368.31 709.371C1367.76 710.225 1366.72 710.905 1366.62 710.93C1352.15 714.582 1337.62 717.989 1323.15 721.641C1356.71 736.107 1390.29 750.528 1423.87 764.95C1425.31 764.856 1426.74 764.762 1428.18 764.668C1428.34 764.657 1429.64 764.933 1430.52 765.573C1431.81 766.52 1432.28 767.711 1432.44 768.629C1462.71 781.63 1492.98 794.635 1523.24 807.677C1523.38 807.737 1524.57 808.649 1525.03 810.011C1525.34 810.938 1525.24 812.125 1525.2 812.227C1518.15 829.494 1510.89 846.675 1503.84 863.943C1572.49 847.555 1641.09 830.965 1709.75 814.576C1709.88 814.544 1711.09 814.606 1711.97 815.055C1713.57 815.87 1714.57 817.708 1714.37 819.494C1714.36 819.615 1714.26 820.525 1713.95 820.96C1704.31 834.483 1694.51 847.894 1684.87 861.416C1687.84 863.176 1690.82 864.933 1693.8 866.691C1746.41 812.125 1804.42 761.404 1842.77 696.68C1853.09 679.259 1813.39 668.806 1798.72 654.845C1796.68 652.899 1797.03 650.51 1797.09 650.114C1797.13 649.828 1797.13 649.516 1797.29 649.27C1807.04 633.438 1817.03 617.751 1826.78 601.919C1789.21 630.484 1751.8 659.248 1714.23 687.813C1713.76 688.169 1712.64 688.307 1712.5 688.325C1710.11 688.619 1708.54 687.299 1708.27 687.072C1706.43 685.525 1706.33 683.476 1706.32 683.124C1706.3 682.822 1706.25 682.504 1706.35 682.218C1713.87 660.666 1721.66 639.203 1729.19 617.65C1714.8 622.76 1700.52 628.145 1686.14 633.254C1686.03 633.294 1684.57 633.309 1683.47 632.848C1680.73 631.704 1680.24 629.202 1680.16 628.791C1679.93 627.637 1680.23 626.233 1680.3 626.094C1712.85 563.242 1745.61 500.498 1778.17 437.646L1640.86 447.902C1636.33 479.062 1632.01 510.256 1627.48 541.416C1627.43 541.73 1627.26 542.014 1627.11 542.296C1625.97 544.544 1623.89 545.12 1623.53 545.219C1621.1 545.893 1619.27 544.752 1618.95 544.556C1618.64 544.36 1616.81 543.222 1616.34 540.735C1613.27 524.458 1614.53 506.741 1607.19 491.89C1604.46 486.362 1596.7 486.048 1590.49 484.103C1539.96 530.535 1489.44 576.981 1438.89 623.401C1436.37 625.715 1432.98 625.304 1431.01 623.652C1430.89 623.554 1430.03 622.824 1429.77 622.205C1425.82 612.791 1422.08 603.293 1418.14 593.879C1393.05 593.903 1367.96 594.188 1342.87 594.211C1342.53 594.212 1342.19 594.066 1341.87 593.951C1338.65 592.805 1338.1 589.91 1338.01 589.444C1337.37 586.083 1339.59 584.146 1339.95 583.834C1384.91 544.653 1429.89 505.498 1474.88 466.358C1477.21 464.338 1479.78 464.93 1480.2 465.029C1480.35 465.063 1481.13 465.243 1481.96 465.737C1497.92 475.3 1513.87 484.883 1529.81 494.49C1531.11 495.274 1531.76 496.365 1531.88 496.566C1533.23 498.811 1532.62 500.961 1532.52 501.331C1532.43 501.648 1532.37 501.995 1532.17 502.257C1510.36 530.843 1488.34 559.27 1466.51 587.843C1468.22 586.292 1469.94 584.741 1471.65 583.19L1550.85 500.154L1555.56 504.178L1559.53 500.402C1559.68 501.247 1560.09 502.019 1560.48 502.799C1568.69 495.366 1576.9 487.933 1585.11 480.502C1584.84 479.953 1584.62 479.301 1584.53 478.533C1584.22 475.914 1585.74 474.247 1586 473.963C1586.22 473.719 1586.44 473.467 1586.72 473.291C1593.66 468.9 1600.62 464.536 1607.59 460.177C1615.83 452.717 1624.09 445.259 1632.34 437.802C1632.96 437.237 1633.97 436.918 1634.12 436.869C1634.38 436.786 1635.46 436.445 1636.81 436.652C1684.64 434.551 1732.48 432.478 1780.33 430.433C1780.77 430.414 1783.55 430.295 1785.31 432.997C1786.42 434.702 1786.22 436.42 1786.18 436.723C1786.14 437.046 1786.14 437.39 1785.99 437.678C1753.21 500.582 1720.18 563.362 1687.4 626.266C1701.84 621.01 1716.18 615.476 1730.61 610.22C1730.72 610.181 1732.16 610.163 1733.26 610.615C1733.58 610.749 1735.45 611.523 1736.31 613.743C1736.73 614.841 1736.68 616.272 1736.64 616.391C1728.81 638.081 1720.72 659.678 1712.88 681.369C1750.1 653.095 1787.27 624.739 1824.49 596.465C1824.72 596.293 1825.92 595.376 1827.9 595.471C1828.25 595.488 1830.3 595.586 1831.83 597.432C1832.06 597.702 1833.37 599.276 1833.04 601.653C1833 601.952 1832.98 602.265 1832.85 602.535C1825.01 618.306 1816.97 633.981 1809.13 649.753C1823.64 663.676 1838.28 677.459 1852.79 691.383C1852.91 691.496 1853.62 692.623 1853.81 693.699C1853.84 693.832 1853.97 694.541 1853.85 695.395C1850.94 716.912 1848.02 738.426 1845.06 759.937C1844.8 761.856 1843.59 762.968 1843.38 763.166C1801.09 802.141 1758.79 841.109 1716.49 880.071C1746.59 897.801 1776.71 915.486 1806.78 933.263C1807 933.392 1807.15 933.608 1807.31 933.802C1807.5 934.028 1808.6 935.357 1808.25 937.348C1798.13 994.418 1788 1051.48 1777.85 1108.54C1777.43 1110.88 1775.1 1112.47 1772.76 1112C1706.66 1098.5 1640.56 1084.98 1574.47 1071.45C1572.26 1070.99 1570.77 1068.78 1571.17 1066.57C1571.22 1066.33 1571.23 1066.07 1571.36 1065.87C1580.49 1052.49 1589.82 1039.23 1598.95 1025.85C1571.13 1042.23 1543.41 1058.78 1515.59 1075.16C1515.37 1075.29 1513.32 1075.79 1511.68 1074.49C1510.63 1073.67 1510.22 1072.34 1510.22 1072.21C1509.49 1048.7 1508.95 1025.19 1508.22 1001.68C1428.83 1056.91 1349.53 1112.29 1270.13 1167.52C1269.98 1167.63 1268.4 1168.23 1266.86 1167.55C1235.36 1153.73 1203.86 1139.89 1172.38 1126.03C1172.13 1125.92 1170.72 1125.3 1170.18 1123.56C1166.93 1112.92 1166.06 1101.24 1160.47 1091.61C1158.1 1087.54 1152.07 1087.35 1147.88 1085.18C1145.49 1083.95 1145.04 1080.72 1146.9 1078.88C1147.06 1078.72 1147.21 1078.53 1147.42 1078.45C1166.83 1070.74 1186.3 1063.23 1205.71 1055.52C1178.61 1059.33 1151.52 1063.22 1124.42 1067.04C1123.5 1067.17 1121.62 1066.74 1120.68 1065.09C1119.95 1063.8 1120.05 1062.09 1120.93 1060.89C1121.06 1060.72 1121.17 1060.53 1121.35 1060.41C1130.52 1053.92 1139.77 1047.56 1148.94 1041.08C1129.86 982.676 1110.92 924.225 1091.84 865.819C1091.77 865.621 1091.6 865.471 1091.51 865.284C1090.53 863.331 1091.47 860.886 1093.5 860.082C1093.69 860.005 1093.89 859.906 1094.1 859.9C1148.13 858.345 1202.17 856.901 1256.21 855.385C1256.19 854.809 1256.17 854.232 1256.16 853.655C1195.72 852.44 1135.28 851.304 1074.84 850.049C1074.57 850.044 1072.77 849.45 1072.17 847.675C1071.55 845.843 1072.55 843.774 1074.37 843.121C1076.35 842.41 1076.41 843.284 1100.59 845.216L1041.43 636.165C1040.26 636.676 1039.09 637.188 1037.92 637.699C1035.83 638.613 1033.39 637.244 1033.08 634.981C1031.69 624.895 1030.32 614.807 1028.96 604.719C1028.59 601.964 1031.49 599.898 1033.96 601.114C1035.35 601.795 1035.71 603.062 1035.78 603.28C1038.36 612.218 1040.95 621.156 1043.53 630.095ZM1427.56 774.448C1373.36 789.889 1319.18 805.429 1264.97 820.87L1265.42 850.218C1274.46 850.397 1283.5 850.579 1292.55 850.763C1292.81 850.768 1294.63 851.348 1295.27 853.128C1295.93 854.962 1294.99 857.071 1293.18 857.807C1292.99 857.886 1292.79 857.987 1292.59 857.994C1283.57 858.295 1274.56 858.592 1265.55 858.887L1268.2 1032.62C1332.82 994.458 1397.33 956.089 1461.95 917.926C1462.46 917.624 1463.54 917.623 1463.68 917.623C1466.59 917.62 1467.87 919.774 1468.07 920.121C1469.27 922.143 1468.63 924.048 1468.52 924.372C1468.42 924.65 1468.35 924.948 1468.16 925.178C1454.37 942.674 1440.41 960.033 1426.62 977.528L1470.75 1009.3C1520.49 982.931 1570.13 956.371 1619.87 929.997C1620.13 929.862 1620.43 929.836 1620.71 929.79C1622.97 929.427 1624.51 930.633 1624.77 930.84C1626.58 932.254 1626.73 934.203 1626.76 934.537C1626.98 937.314 1625.76 937.038 1613.84 966.879C1634.14 932.612 1659.96 902.271 1687.56 873.206C1683.57 870.857 1679.59 868.508 1675.6 866.156C1675.46 866.072 1674.4 865.052 1674.11 863.68C1673.82 862.281 1674.4 860.905 1674.47 860.812C1685.8 847.123 1697.31 833.58 1708.64 819.89C1639.89 836.513 1571.19 853.321 1502.44 869.943C1502.3 869.978 1500.82 869.967 1499.64 869.17C1497.64 867.815 1497.65 865.74 1497.65 865.398C1497.65 865.152 1497.64 864.895 1497.72 864.662C1503.44 847.729 1509.33 830.852 1515.05 813.918C1485.9 800.736 1456.73 787.59 1427.56 774.448ZM1408.7 765.95C1378.74 752.452 1348.78 738.95 1318.84 725.41C1318.7 725.348 1317.74 724.553 1317.29 723.644C1316.12 721.312 1317.31 719.407 1317.5 719.098C1318.05 718.215 1319.1 717.509 1319.21 717.481C1333.53 713.729 1347.91 710.226 1362.23 706.474L1273.83 643.444L1260.28 775.87C1280.82 774.526 1301.36 773.153 1321.91 771.772C1322.05 771.722 1322.19 771.689 1322.32 771.686C1322.76 771.676 1323.19 771.666 1323.63 771.656C1351.99 769.749 1380.34 767.828 1408.7 765.95ZM1596.74 478.364C1602.72 479.802 1608.73 481.131 1614.71 482.623C1615.3 482.77 1616.13 483.541 1616.24 483.641C1617.13 484.468 1617.74 485.814 1617.75 485.928C1619.26 503.525 1620.47 521.147 1621.98 538.744C1624.52 510.36 1626.83 481.956 1629.31 453.567C1622.67 457.979 1616.01 462.364 1609.36 466.765C1605.15 470.631 1600.94 474.497 1596.74 478.364ZM1458.16 595.394C1458 595.153 1457.85 594.89 1457.72 594.603C1456.8 592.611 1457.28 590.808 1457.36 590.489C1457.45 590.149 1457.52 589.788 1457.71 589.498C1477.75 560.135 1498.01 530.921 1518.05 501.558L1479.5 478.348L1345.81 587.604C1371.24 585.785 1396.66 583.814 1422.09 581.996C1422.42 581.972 1422.76 582.021 1423.09 582.076C1425.16 582.421 1426.34 583.753 1426.55 583.989C1428.31 585.97 1427.25 586.457 1435.52 615.861C1443.06 609.04 1450.61 602.218 1458.16 595.394ZM1256.33 859.188C1203.06 860.924 1149.78 862.59 1096.51 864.367C1101.39 869.495 1106.37 874.528 1111.25 879.656C1111.27 879.68 1111.51 880.198 1111.59 880.481C1157.09 1041.54 1157.14 1041.52 1157.23 1042.21C1157.34 1043.11 1157.08 1043.83 1157.03 1043.97C1156.15 1046.44 1155.35 1045.86 1124.98 1062.84C1152.2 1059.1 1179.4 1055.19 1206.62 1051.45C1206.84 1051.42 1208.79 1051.72 1209.75 1053.43C1210.73 1055.17 1210.2 1057.45 1208.55 1058.58C1208.37 1058.7 1208.19 1058.81 1207.99 1058.89C1189.13 1066.53 1170.24 1074.08 1151.38 1081.71C1156.26 1083.12 1161.2 1084.28 1166.08 1085.69C1166.14 1085.7 1166.91 1086.37 1167.29 1087.13C1167.38 1087.32 1167.35 1087.59 1167.52 1087.72C1200.96 1111.68 1234.6 1135.37 1268.04 1159.34C1336.01 1113.03 1403.91 1066.63 1471.87 1020.3C1471.54 1020.4 1471.28 1020.45 1471.21 1020.46C1470.9 1020.51 1469.08 1020.83 1467.32 1019.56C1450.28 1007.29 1433.25 995.015 1416.24 982.715C1414.04 981.125 1414.1 978.8 1414.11 978.417C1414.13 977.328 1414.68 976.122 1414.76 976.035C1430.76 958.419 1446.94 940.972 1462.94 923.356C1398.14 962.036 1333.45 1000.91 1268.64 1039.59C1268.51 1039.67 1267.19 1040.01 1266.1 1039.82C1265.71 1039.75 1263.31 1039.35 1262.27 1036.71C1262.22 1036.58 1261.95 1035.9 1261.92 1035.04C1260.04 976.423 1258.19 917.806 1256.33 859.188ZM1512.49 997.499C1512.95 998.166 1513.12 998.791 1513.13 998.882C1513.92 1022.34 1514.53 1045.8 1515.33 1069.26C1543.07 1053.26 1570.7 1037.09 1598.44 1021.09C1598.57 1021.02 1599.98 1020.65 1601.27 1021.15C1603.11 1021.86 1604.24 1023.87 1603.89 1025.8C1603.85 1026.04 1603.83 1026.3 1603.7 1026.5C1595.05 1039.81 1586.21 1053 1577.55 1066.31L1770.16 1102.71L1799.12 938.812C1769.36 921.255 1739.55 903.779 1709.76 886.267C1678.72 914.855 1647.68 943.44 1616.63 972.022C1616.33 972.301 1614.46 974.026 1611.61 973.204C1611.22 973.089 1608.78 972.381 1608.01 969.526C1607.93 969.237 1607.87 968.941 1607.85 968.643C1607.6 965.908 1608.81 966.167 1620.23 936.62C1584.31 956.893 1548.4 977.205 1512.49 997.499ZM1265.48 853.844L1265.49 855.124C1274.21 854.878 1282.92 854.631 1291.63 854.38C1282.91 854.199 1274.19 854.02 1265.48 853.844ZM1040.13 631.569L1032.47 604.498L1037.55 632.685L1040.13 631.569Z" fill="white"/>
<path fill-rule="evenodd" clip-rule="evenodd" d="M1873.03 1122.29L1873.4 1122.15C1873.06 1123.68 1873.62 1125.32 1873.29 1126.85C1873.12 1127.62 1872.52 1128.24 1871.96 1128.78C1871.38 1129.33 1870.68 1129.79 1869.94 1130.07C1861.75 1133.25 1770.69 1168.52 1767.38 1169.2C1767.01 1169.28 1764.83 1169.73 1762.69 1168.24C1762.38 1168.02 1760.56 1166.75 1760.16 1164.18C1760.11 1163.86 1760.03 1163.53 1760.09 1163.2C1772.95 1088 1786.05 1012.85 1798.91 937.649C1757.86 913.656 1716.69 889.862 1675.65 865.868C1675.08 865.536 1674.49 864.564 1674.41 864.435C1674.21 864.12 1673.09 862.282 1673.78 859.855C1673.87 859.551 1673.91 859.211 1674.11 858.966C1686.01 844.536 1698.13 830.303 1710.02 815.873C1638.78 834.733 1567.61 853.852 1496.37 872.712C1496.06 872.795 1495.72 872.725 1495.4 872.69C1495.03 872.648 1492.84 872.405 1491.41 870.265C1490.3 868.596 1490.48 866.9 1490.51 866.599C1490.55 866.281 1490.56 865.944 1490.7 865.656C1499.17 848.078 1507.87 830.606 1516.35 813.028L1254.94 780.848C1254.07 780.827 1254.06 780.896 1253.23 780.665C1253.03 780.61 1251.95 780.311 1251 779.399C1250.76 779.167 1249.35 777.822 1249.38 775.536C1249.86 734.908 1250.37 694.282 1250.89 653.655C1250.89 653.303 1250.92 651.228 1252.81 649.704C1281.54 626.549 1310.28 603.41 1339.03 580.282C1339.25 580.106 1340.48 579.109 1342.36 579.165C1370.18 580.002 1397.99 580.871 1425.81 581.724C1426.14 581.735 1428.09 581.794 1429.53 583.557C1431.28 585.697 1430.18 586.156 1438.01 617.057C1474.91 577.348 1511.72 537.55 1548.62 497.842C1549.26 497.161 1549.39 497.33 1604 473.072C1605.65 472.337 1607.74 472.644 1609.12 473.876C1690.48 546.421 1771.81 618.985 1853.14 691.56C1854.33 692.625 1854.91 694.394 1854.52 695.995C1843.27 742.543 1817.7 787.833 1820.73 835.624C1823.72 882.87 1854.76 923.975 1871.75 968.162C1872.46 970.004 1871.75 972.192 1870.11 973.276C1869.88 973.432 1868.51 974.34 1866.64 973.84C1864.63 973.301 1865.14 972.504 1847.22 956.539L1867.36 1119.2C1867.74 1119.63 1868.08 1120.11 1868.42 1120.59C1878.74 1070.27 1889.23 1019.99 1899.55 969.669C1899.59 969.452 1899.48 969.228 1899.48 969.007C1899.45 966.409 1901.96 964.441 1904.47 965.092C1905.31 965.311 1906.15 965.967 1906.2 966.047C1915.74 980.526 1925.12 995.119 1934.66 1009.6C1927.23 972.16 1919.62 934.757 1912.19 897.318C1912.14 897.077 1912.33 895.113 1913.99 894.067C1915.68 893.001 1917.99 893.448 1919.16 895.065C1919.29 895.239 1919.44 895.408 1919.5 895.617C1924.7 916.659 1929.72 937.747 1934.92 958.789L2051.65 624.11C2042.2 614.112 2032.63 604.219 2023.18 594.221C2023.08 594.118 2022.49 593.061 2022.62 591.917C2022.82 590.106 2023.58 590.447 2035.12 572.871C2009.45 584.164 1983.8 595.517 1958.13 606.81C1956.87 607.364 1954.73 606.959 1953.84 605.172C1953.26 604.002 1953.44 602.502 1954.28 601.5C1954.39 601.357 1954.51 601.195 1954.67 601.103C1984.96 583.96 2015.33 566.949 2045.62 549.805C2030.56 555.131 2015.56 560.614 2000.5 565.939C2000.35 565.995 1998.67 566.051 1997.61 564.747C1857.2 391.187 1856.13 391.525 1855.97 388.674C1855.94 388.045 1856.19 387.323 1856.23 387.271C1862.79 378.472 1869.48 369.759 1876.04 360.96C1861.63 364.429 1847.26 368.048 1832.85 371.517C1832.73 371.544 1831.43 371.479 1830.57 370.521C1830.44 370.374 1829.66 369.512 1829.82 368.158C1830.24 364.479 1835.11 322.265 1835.16 322.169C1835.53 321.51 1835.68 320.664 1836.27 320.195C1836.28 320.184 1838.46 319.565 1838.46 319.569C1839.14 319.938 1840.01 320.078 1840.49 320.682C1840.96 321.268 1841.17 322.11 1841.07 322.851C1839.01 337.676 1836.08 352.373 1834.02 367.197C1848.36 363.925 1862.66 360.513 1876.99 357.24C1877.27 357.177 1879.08 357.399 1879.82 359.019C1880.34 360.161 1879.94 361.35 1879.86 361.477C1874.21 370.435 1868.47 379.328 1862.83 388.287L2001.32 558.976C2016.11 554.814 2030.87 550.52 2045.67 546.359C2046.05 546.253 2048.01 546.377 2048.92 548.062C2049.55 549.209 2049.4 550.717 2048.58 551.727C2048.46 551.871 2048.35 552.035 2048.19 552.127C2017.86 569.31 1987.45 586.356 1957.12 603.539C1983.21 591.965 2009.23 580.234 2035.32 568.659C2035.53 568.566 2037.34 568.369 2038.56 569.687C2039.76 570.982 2039.47 572.743 2039.34 573.002C2036.36 579.238 2033.24 585.411 2030.25 591.647C2039.66 601.548 2049.15 611.361 2058.56 621.261C2058.72 621.435 2059.54 622.873 2058.98 624.438C2018.82 736.715 1978.65 848.988 1938.46 961.254C1937.62 963.585 1934.73 964.497 1932.71 963.088C1931.81 962.458 1931.33 961.395 1931.25 961.069C1926.17 939.906 1921.18 918.722 1916.1 897.558C1923.67 935.206 1931.41 972.817 1938.98 1010.47C1939.02 1010.71 1938.85 1012.7 1937.18 1013.78C1935.89 1014.62 1934.12 1014.6 1932.84 1013.75C1932.66 1013.63 1932.45 1013.53 1932.33 1013.35C1922.78 998.865 1913.4 984.274 1903.85 969.795C1907.98 985.677 1912.27 1001.52 1916.4 1017.4C1916.42 1017.48 1916.39 1018.4 1916.1 1019.11C1901.76 1053.51 1887.4 1087.9 1873.03 1122.29ZM1862.97 1119.67C1855.99 1064.99 1849.03 1010.29 1842.09 955.583C1841.85 953.695 1842.96 951.807 1844.71 951.099C1846.42 950.402 1847.86 951.068 1848.11 951.183C1849.97 952.05 1849.59 952.563 1866.96 968.709C1848.63 924.744 1830.16 880.841 1811.83 836.875C1811.78 836.751 1811.71 835.7 1811.74 835.552C1822.82 789.193 1834.03 742.869 1845.11 696.509L1605.07 483.075C1550.39 529.742 1495.7 576.403 1441.03 623.071C1440.39 623.616 1440.43 623.682 1439.68 624.06C1437.22 625.297 1435.19 624.057 1434.86 623.856C1433.94 623.294 1433.19 622.218 1433.13 622.062C1429.39 611.936 1425.85 601.741 1422.11 591.615L1259.95 770.023C1313.41 766.943 1366.86 763.676 1420.33 760.597C1420.89 760.564 1421.8 760.95 1421.92 761.001C1456.61 775.717 1491.29 790.45 1525.96 805.206C1528.63 806.343 1529.11 808.782 1529.19 809.185C1529.42 810.329 1529.13 811.717 1529.07 811.825C1518.74 829.832 1508.17 847.704 1497.84 865.711C1569.02 846.904 1640.14 827.836 1711.32 809.028C1711.63 808.945 1711.98 809.013 1712.3 809.047C1715.54 809.39 1716.7 811.936 1716.89 812.347C1717.02 812.629 1717.75 814.215 1717.22 816.202C1717.14 816.519 1717.07 816.858 1716.89 817.129C1707.2 831.325 1697.3 845.381 1687.61 859.576C1728.09 883.165 1768.7 906.529 1809.18 930.118C1809.47 930.289 1809.68 930.578 1809.9 930.838C1810.91 932.038 1811.14 933.341 1811.18 933.579C1811.25 933.914 1811.34 934.261 1811.28 934.595C1796.96 1010.06 1782.37 1085.47 1768.06 1160.93C1799.76 1147.33 1831.27 1133.3 1862.97 1119.67Z" fill="white"/>
<path fill-rule="evenodd" clip-rule="evenodd" d="M1043.53 630.095L1089.41 610.215C1069.06 591.706 1048.6 573.314 1028.25 554.805C1028.09 554.654 1027.18 553.152 1027.81 551.528C1028.3 550.275 1029.57 549.379 1030.91 549.346C1031.11 549.341 1031.3 549.322 1031.49 549.38C1041.58 552.56 1051.63 555.874 1061.72 559.054C1091.52 520.019 1121.54 481.159 1151.34 442.124C1151.45 441.976 1151.37 441.75 1151.4 441.567C1151.74 439.862 1153.42 438.671 1155.14 438.909C1155.32 438.935 1155.52 438.939 1155.68 439.032C1173.24 449.092 1190.72 459.294 1208.28 469.354C1193.96 447.363 1179.58 425.409 1165.26 403.418C1164.53 402.302 1164.59 400.156 1166.21 399.035C1167.06 398.44 1168.15 398.427 1168.28 398.455C1178.06 400.658 1187.81 402.99 1197.6 405.191L1259.34 336.763C1249.18 326.255 1238.93 315.843 1228.78 305.336C1228.51 305.054 1227.71 303.282 1228.77 301.718C1229.78 300.224 1231.34 300.299 1231.59 300.311C1246.38 301.023 1261.17 301.765 1275.97 302.492C1277.61 302.573 1278.98 303.965 1279 305.644C1279.26 325.453 1272.28 346.713 1279.72 365.071C1285.07 378.27 1302.34 382.385 1313.64 391.057C1314.38 391.622 1314.71 392.515 1314.72 392.577C1315.61 403.547 1316.35 414.527 1317.24 425.497C1321.5 404.212 1325.69 382.914 1329.96 361.628C1330.23 360.246 1332 358.78 1333.95 359.423C1335.4 359.903 1335.95 361.336 1335.97 361.56C1337.39 375.008 1338.68 388.469 1340.09 401.917C1433.26 413.238 1526.44 424.56 1619.61 435.881C1621.92 436.162 1621.64 436.809 1622.41 439.008C1622.41 439.017 1621.43 441.053 1621.42 441.064C1620.85 441.567 1620.04 441.857 1619.28 441.818C1559.58 438.739 1499.57 438.938 1440.22 431.72C1404.98 427.434 1371.09 415.538 1336.53 407.43C1334.85 407.035 1334.25 405.407 1334.25 405.205C1333.76 391.106 1333.42 377.003 1332.94 362.905C1328.6 384.39 1324.42 405.906 1320.08 427.391C1320.02 427.698 1318.98 429.336 1317.1 429.266C1315.65 429.213 1314.37 428.103 1314.12 426.654C1312.34 416.207 1314.83 404.042 1308.83 395.305C1300.71 383.481 1286.03 377.888 1274.65 369.165C1273.69 368.429 1273.45 367.277 1273.45 367.166C1273.15 347.686 1272.96 328.206 1272.66 308.727L1232.5 303.998C1243.77 314.318 1255.15 324.518 1266.42 334.838C1266.63 335.034 1267.52 336.793 1266.49 338.41C1266.35 338.64 1266.2 338.808 1266.17 338.841C1201.42 410.716 1201.8 411.455 1199.48 411.998C1199.16 412.071 1198.54 412.089 1198.49 412.075C1188.68 408.927 1178.93 405.634 1169.12 402.487C1183.38 424.616 1197.78 446.658 1212.04 468.788C1212.16 468.978 1212.62 470.668 1211.55 472.027C1210.41 473.479 1208.44 473.502 1207.43 472.934C1190.14 463.227 1172.88 453.458 1155.59 443.752C1156.13 450.784 1156.82 457.804 1157.36 464.836C1157.37 464.894 1157.16 465.845 1156.52 466.539C1126.11 499.459 1095.68 532.373 1065.25 565.275C1064.67 565.896 1064 566.133 1063.88 566.176C1061.58 566.985 1061.55 566.032 1031.66 553.157C1052.43 571.637 1073.3 589.999 1094.06 608.479C1094.21 608.613 1095.13 610.074 1094.56 611.701C1094.49 611.908 1094.06 613.115 1092.68 613.718C1076.75 620.712 1060.8 627.696 1044.85 634.669C1065.17 704.949 1085.48 775.233 1105.77 845.519C1105.92 846.057 1105.94 846.603 1105.85 847.122C1155.91 848.113 1205.98 849.046 1256.04 850.033C1255.71 839.5 1255.37 828.966 1255.04 818.432C1254.95 815.68 1256.93 814.373 1257.25 814.162C1274.15 803.02 1291.05 791.891 1307.97 780.775C1290.37 782.437 1272.78 784.092 1255.19 785.728C1255.05 785.742 1253.52 785.502 1252.42 784.505C1252.2 784.303 1250.92 783.137 1250.87 781.104C1249.69 739.724 1248.53 698.344 1247.4 656.962C1247.39 656.647 1247.34 654.8 1248.94 653.334C1256.08 646.812 1263.23 640.306 1270.39 633.818C1270.67 633.566 1272.4 631.996 1274.98 632.81C1275.11 632.849 1275.77 633.059 1276.43 633.563C1306.71 656.73 1336.98 679.917 1367.24 703.119C1369.15 704.582 1369.62 707.367 1368.31 709.371C1367.76 710.225 1366.72 710.905 1366.62 710.93C1352.15 714.582 1337.62 717.989 1323.15 721.641C1356.71 736.107 1390.29 750.528 1423.87 764.95C1425.31 764.856 1426.74 764.762 1428.18 764.668C1428.34 764.657 1429.64 764.933 1430.52 765.573C1431.81 766.52 1432.28 767.711 1432.44 768.629C1462.71 781.63 1492.98 794.635 1523.24 807.677C1523.38 807.737 1524.57 808.649 1525.03 810.011C1525.34 810.938 1525.24 812.125 1525.2 812.227C1518.15 829.494 1510.89 846.675 1503.84 863.943C1572.49 847.555 1641.09 830.965 1709.75 814.576C1709.88 814.544 1711.09 814.606 1711.97 815.055C1713.57 815.87 1714.57 817.708 1714.37 819.494C1714.36 819.615 1714.26 820.525 1713.95 820.96C1704.31 834.483 1694.51 847.894 1684.87 861.416C1687.84 863.176 1690.82 864.933 1693.8 866.691C1746.41 812.125 1804.42 761.404 1842.77 696.68C1853.09 679.259 1813.39 668.806 1798.72 654.845C1796.68 652.899 1797.03 650.51 1797.09 650.114C1797.13 649.828 1797.13 649.516 1797.29 649.27C1807.04 633.438 1817.03 617.751 1826.78 601.919C1789.21 630.484 1751.8 659.248 1714.23 687.813C1713.76 688.169 1712.64 688.307 1712.5 688.325C1710.11 688.619 1708.54 687.299 1708.27 687.072C1706.43 685.525 1706.33 683.476 1706.32 683.124C1706.3 682.822 1706.25 682.504 1706.35 682.218C1713.87 660.666 1721.66 639.203 1729.19 617.65C1714.8 622.76 1700.52 628.145 1686.14 633.254C1686.03 633.294 1684.57 633.309 1683.47 632.848C1680.73 631.704 1680.24 629.202 1680.16 628.791C1679.93 627.637 1680.23 626.233 1680.3 626.094C1712.85 563.242 1745.61 500.498 1778.17 437.646L1640.86 447.902C1636.33 479.062 1632.01 510.256 1627.48 541.416C1627.43 541.73 1627.26 542.014 1627.11 542.296C1625.97 544.544 1623.89 545.12 1623.53 545.219C1621.1 545.893 1619.27 544.752 1618.95 544.556C1618.64 544.36 1616.81 543.222 1616.34 540.735C1613.27 524.458 1614.53 506.741 1607.19 491.89C1604.46 486.362 1596.7 486.048 1590.49 484.103C1539.96 530.535 1489.44 576.981 1438.89 623.401C1436.37 625.715 1432.98 625.304 1431.01 623.652C1430.89 623.554 1430.03 622.824 1429.77 622.205C1425.82 612.791 1422.08 603.293 1418.14 593.879C1393.05 593.903 1367.96 594.188 1342.87 594.211C1342.53 594.212 1342.19 594.066 1341.87 593.951C1338.65 592.805 1338.1 589.91 1338.01 589.444C1337.37 586.083 1339.59 584.146 1339.95 583.834C1384.91 544.653 1429.89 505.498 1474.88 466.358C1477.21 464.338 1479.78 464.93 1480.2 465.029C1480.35 465.063 1481.13 465.243 1481.96 465.737C1497.92 475.3 1513.87 484.883 1529.81 494.49C1531.11 495.274 1531.76 496.365 1531.88 496.566C1533.23 498.811 1532.62 500.961 1532.52 501.331C1532.43 501.648 1532.37 501.995 1532.17 502.257C1510.36 530.843 1488.34 559.27 1466.51 587.843C1468.22 586.292 1469.94 584.741 1471.65 583.19L1550.85 500.154L1555.56 504.178L1559.53 500.402C1559.68 501.247 1560.09 502.019 1560.48 502.799C1568.69 495.366 1576.9 487.933 1585.11 480.502C1584.84 479.953 1584.62 479.301 1584.53 478.533C1584.22 475.914 1585.74 474.247 1586 473.963C1586.22 473.719 1586.44 473.467 1586.72 473.291C1593.66 468.9 1600.62 464.536 1607.59 460.177C1615.83 452.717 1624.09 445.259 1632.34 437.802C1632.96 437.237 1633.97 436.918 1634.12 436.869C1634.38 436.786 1635.46 436.445 1636.81 436.652C1684.64 434.551 1732.48 432.478 1780.33 430.433C1780.77 430.414 1783.55 430.295 1785.31 432.997C1786.42 434.702 1786.22 436.42 1786.18 436.723C1786.14 437.046 1786.14 437.39 1785.99 437.678C1753.21 500.582 1720.18 563.362 1687.4 626.266C1701.84 621.01 1716.18 615.476 1730.61 610.22C1730.72 610.181 1732.16 610.163 1733.26 610.615C1733.58 610.749 1735.45 611.523 1736.31 613.743C1736.73 614.841 1736.68 616.272 1736.64 616.391C1728.81 638.081 1720.72 659.678 1712.88 681.369C1750.1 653.095 1787.27 624.739 1824.49 596.465C1824.72 596.293 1825.92 595.376 1827.9 595.471C1828.25 595.488 1830.3 595.586 1831.83 597.432C1832.06 597.702 1833.37 599.276 1833.04 601.653C1833 601.952 1832.98 602.265 1832.85 602.535C1825.01 618.306 1816.97 633.981 1809.13 649.753C1823.64 663.676 1838.28 677.459 1852.79 691.383C1852.91 691.496 1853.62 692.623 1853.81 693.699C1853.84 693.832 1853.97 694.541 1853.85 695.395C1850.94 716.912 1848.02 738.426 1845.06 759.937C1844.8 761.856 1843.59 762.968 1843.38 763.166C1801.09 802.141 1758.79 841.109 1716.49 880.071C1746.59 897.801 1776.71 915.486 1806.78 933.263C1807 933.392 1807.15 933.608 1807.31 933.802C1807.5 934.028 1808.6 935.357 1808.25 937.348C1798.13 994.418 1788 1051.48 1777.85 1108.54C1777.43 1110.88 1775.1 1112.47 1772.76 1112C1706.66 1098.5 1640.56 1084.98 1574.47 1071.45C1572.26 1070.99 1570.77 1068.78 1571.17 1066.57C1571.22 1066.33 1571.23 1066.07 1571.36 1065.87C1580.49 1052.49 1589.82 1039.23 1598.95 1025.85C1571.13 1042.23 1543.41 1058.78 1515.59 1075.16C1515.37 1075.29 1513.32 1075.79 1511.68 1074.49C1510.63 1073.67 1510.22 1072.34 1510.22 1072.21C1509.49 1048.7 1508.95 1025.19 1508.22 1001.68C1428.83 1056.91 1349.53 1112.29 1270.13 1167.52C1269.98 1167.63 1268.4 1168.23 1266.86 1167.55C1235.36 1153.73 1203.86 1139.89 1172.38 1126.03C1172.13 1125.92 1170.72 1125.3 1170.18 1123.56C1166.93 1112.92 1166.06 1101.24 1160.47 1091.61C1158.1 1087.54 1152.07 1087.35 1147.88 1085.18C1145.49 1083.95 1145.04 1080.72 1146.9 1078.88C1147.06 1078.72 1147.21 1078.53 1147.42 1078.45C1166.83 1070.74 1186.3 1063.23 1205.71 1055.52C1178.61 1059.33 1151.52 1063.22 1124.42 1067.04C1123.5 1067.17 1121.62 1066.74 1120.68 1065.09C1119.95 1063.8 1120.05 1062.09 1120.93 1060.89C1121.06 1060.72 1121.17 1060.53 1121.35 1060.41C1130.52 1053.92 1139.77 1047.56 1148.94 1041.08C1129.86 982.676 1110.92 924.225 1091.84 865.819C1091.77 865.621 1091.6 865.471 1091.51 865.284C1090.53 863.331 1091.47 860.886 1093.5 860.082C1093.69 860.005 1093.89 859.906 1094.1 859.9C1148.13 858.345 1202.17 856.901 1256.21 855.385C1256.19 854.809 1256.17 854.232 1256.16 853.655C1195.72 852.44 1135.28 851.304 1074.84 850.049C1074.57 850.044 1072.77 849.45 1072.17 847.675C1071.55 845.843 1072.55 843.774 1074.37 843.121C1076.35 842.41 1076.41 843.284 1100.59 845.216L1041.43 636.165C1040.26 636.676 1039.09 637.188 1037.92 637.699C1035.83 638.613 1033.39 637.244 1033.08 634.981C1031.69 624.895 1030.32 614.807 1028.96 604.719C1028.59 601.964 1031.49 599.898 1033.96 601.114C1035.35 601.795 1035.71 603.062 1035.78 603.28C1038.36 612.218 1040.95 621.156 1043.53 630.095ZM1427.56 774.448C1373.36 789.889 1319.18 805.429 1264.97 820.87L1265.42 850.218C1274.46 850.397 1283.5 850.579 1292.55 850.763C1292.81 850.768 1294.63 851.348 1295.27 853.128C1295.93 854.962 1294.99 857.071 1293.18 857.807C1292.99 857.886 1292.79 857.987 1292.59 857.994C1283.57 858.295 1274.56 858.592 1265.55 858.887L1268.2 1032.62C1332.82 994.458 1397.33 956.089 1461.95 917.926C1462.46 917.624 1463.54 917.623 1463.68 917.623C1466.59 917.62 1467.87 919.774 1468.07 920.121C1469.27 922.143 1468.63 924.048 1468.52 924.372C1468.42 924.65 1468.35 924.948 1468.16 925.178C1454.37 942.674 1440.41 960.033 1426.62 977.528L1470.75 1009.3C1520.49 982.931 1570.13 956.371 1619.87 929.997C1620.13 929.862 1620.43 929.836 1620.71 929.79C1622.97 929.427 1624.51 930.633 1624.77 930.84C1626.58 932.254 1626.73 934.203 1626.76 934.537C1626.98 937.314 1625.76 937.038 1613.84 966.879C1634.14 932.612 1659.96 902.271 1687.56 873.206C1683.57 870.857 1679.59 868.508 1675.6 866.156C1675.46 866.072 1674.4 865.052 1674.11 863.68C1673.82 862.281 1674.4 860.905 1674.47 860.812C1685.8 847.123 1697.31 833.58 1708.64 819.89C1639.89 836.513 1571.19 853.321 1502.44 869.943C1502.3 869.978 1500.82 869.967 1499.64 869.17C1497.64 867.815 1497.65 865.74 1497.65 865.398C1497.65 865.152 1497.64 864.895 1497.72 864.662C1503.44 847.729 1509.33 830.852 1515.05 813.918C1485.9 800.736 1456.73 787.59 1427.56 774.448ZM1408.7 765.95C1378.74 752.452 1348.78 738.95 1318.84 725.41C1318.7 725.348 1317.74 724.553 1317.29 723.644C1316.12 721.312 1317.31 719.407 1317.5 719.098C1318.05 718.215 1319.1 717.509 1319.21 717.481C1333.53 713.729 1347.91 710.226 1362.23 706.474L1273.83 643.444L1260.28 775.87C1280.82 774.526 1301.36 773.153 1321.91 771.772C1322.05 771.722 1322.19 771.689 1322.32 771.686C1322.76 771.676 1323.19 771.666 1323.63 771.656C1351.99 769.749 1380.34 767.828 1408.7 765.95ZM1596.74 478.364C1602.72 479.802 1608.73 481.131 1614.71 482.623C1615.3 482.77 1616.13 483.541 1616.24 483.641C1617.13 484.468 1617.74 485.814 1617.75 485.928C1619.26 503.525 1620.47 521.147 1621.98 538.744C1624.52 510.36 1626.83 481.956 1629.31 453.567C1622.67 457.979 1616.01 462.364 1609.36 466.765C1605.15 470.631 1600.94 474.497 1596.74 478.364ZM1458.16 595.394C1458 595.153 1457.85 594.89 1457.72 594.603C1456.8 592.611 1457.28 590.808 1457.36 590.489C1457.45 590.149 1457.52 589.788 1457.71 589.498C1477.75 560.135 1498.01 530.921 1518.05 501.558L1479.5 478.348L1345.81 587.604C1371.24 585.785 1396.66 583.814 1422.09 581.996C1422.42 581.972 1422.76 582.021 1423.09 582.076C1425.16 582.421 1426.34 583.753 1426.55 583.989C1428.31 585.97 1427.25 586.457 1435.52 615.861C1443.06 609.04 1450.61 602.218 1458.16 595.394ZM1256.33 859.188C1203.06 860.924 1149.78 862.59 1096.51 864.367C1101.39 869.495 1106.37 874.528 1111.25 879.656C1111.27 879.68 1111.51 880.198 1111.59 880.481C1157.09 1041.54 1157.14 1041.52 1157.23 1042.21C1157.34 1043.11 1157.08 1043.83 1157.03 1043.97C1156.15 1046.44 1155.35 1045.86 1124.98 1062.84C1152.2 1059.1 1179.4 1055.19 1206.62 1051.45C1206.84 1051.42 1208.79 1051.72 1209.75 1053.43C1210.73 1055.17 1210.2 1057.45 1208.55 1058.58C1208.37 1058.7 1208.19 1058.81 1207.99 1058.89C1189.13 1066.53 1170.24 1074.08 1151.38 1081.71C1156.26 1083.12 1161.2 1084.28 1166.08 1085.69C1166.14 1085.7 1166.91 1086.37 1167.29 1087.13C1167.38 1087.32 1167.35 1087.59 1167.52 1087.72C1200.96 1111.68 1234.6 1135.37 1268.04 1159.34C1336.01 1113.03 1403.91 1066.63 1471.87 1020.3C1471.54 1020.4 1471.28 1020.45 1471.21 1020.46C1470.9 1020.51 1469.08 1020.83 1467.32 1019.56C1450.28 1007.29 1433.25 995.015 1416.24 982.715C1414.04 981.125 1414.1 978.8 1414.11 978.417C1414.13 977.328 1414.68 976.122 1414.76 976.035C1430.76 958.419 1446.94 940.972 1462.94 923.356C1398.14 962.036 1333.45 1000.91 1268.64 1039.59C1268.51 1039.67 1267.19 1040.01 1266.1 1039.82C1265.71 1039.75 1263.31 1039.35 1262.27 1036.71C1262.22 1036.58 1261.95 1035.9 1261.92 1035.04C1260.04 976.423 1258.19 917.806 1256.33 859.188ZM1512.49 997.499C1512.95 998.166 1513.12 998.791 1513.13 998.882C1513.92 1022.34 1514.53 1045.8 1515.33 1069.26C1543.07 1053.26 1570.7 1037.09 1598.44 1021.09C1598.57 1021.02 1599.98 1020.65 1601.27 1021.15C1603.11 1021.86 1604.24 1023.87 1603.89 1025.8C1603.85 1026.04 1603.83 1026.3 1603.7 1026.5C1595.05 1039.81 1586.21 1053 1577.55 1066.31L1770.16 1102.71L1799.12 938.812C1769.36 921.255 1739.55 903.779 1709.76 886.267C1678.72 914.855 1647.68 943.44 1616.63 972.022C1616.33 972.301 1614.46 974.026 1611.61 973.204C1611.22 973.089 1608.78 972.381 1608.01 969.526C1607.93 969.237 1607.87 968.941 1607.85 968.643C1607.6 965.908 1608.81 966.167 1620.23 936.62C1584.31 956.893 1548.4 977.205 1512.49 997.499ZM1265.48 853.844L1265.49 855.124C1274.21 854.878 1282.92 854.631 1291.63 854.38C1282.91 854.199 1274.19 854.02 1265.48 853.844ZM1040.13 631.569L1032.47 604.498L1037.55 632.685L1040.13 631.569Z" fill="#F2EFD5"/>
<path fill-rule="evenodd" clip-rule="evenodd" d="M1873.03 1122.29L1873.4 1122.15C1873.06 1123.68 1873.62 1125.32 1873.29 1126.85C1873.12 1127.62 1872.52 1128.24 1871.96 1128.78C1871.38 1129.33 1870.68 1129.79 1869.94 1130.07C1861.75 1133.25 1770.69 1168.52 1767.38 1169.2C1767.01 1169.28 1764.83 1169.73 1762.69 1168.24C1762.38 1168.02 1760.56 1166.75 1760.16 1164.18C1760.11 1163.86 1760.03 1163.53 1760.09 1163.2C1772.95 1088 1786.05 1012.85 1798.91 937.649C1757.86 913.656 1716.69 889.862 1675.65 865.868C1675.08 865.536 1674.49 864.564 1674.41 864.435C1674.21 864.12 1673.09 862.282 1673.78 859.855C1673.87 859.551 1673.91 859.211 1674.11 858.966C1686.01 844.536 1698.13 830.303 1710.02 815.873C1638.78 834.733 1567.61 853.852 1496.37 872.712C1496.06 872.795 1495.72 872.725 1495.4 872.69C1495.03 872.648 1492.84 872.405 1491.41 870.265C1490.3 868.596 1490.48 866.9 1490.51 866.599C1490.55 866.281 1490.56 865.944 1490.7 865.656C1499.17 848.078 1507.87 830.606 1516.35 813.028L1254.94 780.848C1254.07 780.827 1254.06 780.896 1253.23 780.665C1253.03 780.61 1251.95 780.311 1251 779.399C1250.76 779.167 1249.35 777.822 1249.38 775.536C1249.86 734.908 1250.37 694.282 1250.89 653.655C1250.89 653.303 1250.92 651.228 1252.81 649.704C1281.54 626.549 1310.28 603.41 1339.03 580.282C1339.25 580.106 1340.48 579.109 1342.36 579.165C1370.18 580.002 1397.99 580.871 1425.81 581.724C1426.14 581.735 1428.09 581.794 1429.53 583.557C1431.28 585.697 1430.18 586.156 1438.01 617.057C1474.91 577.348 1511.72 537.55 1548.62 497.842C1549.26 497.161 1549.39 497.33 1604 473.072C1605.65 472.337 1607.74 472.644 1609.12 473.876C1690.48 546.421 1771.81 618.985 1853.14 691.56C1854.33 692.625 1854.91 694.394 1854.52 695.995C1843.27 742.543 1817.7 787.833 1820.73 835.624C1823.72 882.87 1854.76 923.975 1871.75 968.162C1872.46 970.004 1871.75 972.192 1870.11 973.276C1869.88 973.432 1868.51 974.34 1866.64 973.84C1864.63 973.301 1865.14 972.504 1847.22 956.539L1867.36 1119.2C1867.74 1119.63 1868.08 1120.11 1868.42 1120.59C1878.74 1070.27 1889.23 1019.99 1899.55 969.669C1899.59 969.452 1899.48 969.228 1899.48 969.007C1899.45 966.409 1901.96 964.441 1904.47 965.092C1905.31 965.311 1906.15 965.967 1906.2 966.047C1915.74 980.526 1925.12 995.119 1934.66 1009.6C1927.23 972.16 1919.62 934.757 1912.19 897.318C1912.14 897.077 1912.33 895.113 1913.99 894.067C1915.68 893.001 1917.99 893.448 1919.16 895.065C1919.29 895.239 1919.44 895.408 1919.5 895.617C1924.7 916.659 1929.72 937.747 1934.92 958.789L2051.65 624.11C2042.2 614.112 2032.63 604.219 2023.18 594.221C2023.08 594.118 2022.49 593.061 2022.62 591.917C2022.82 590.106 2023.58 590.447 2035.12 572.871C2009.45 584.164 1983.8 595.517 1958.13 606.81C1956.87 607.364 1954.73 606.959 1953.84 605.172C1953.26 604.002 1953.44 602.502 1954.28 601.5C1954.39 601.357 1954.51 601.195 1954.67 601.103C1984.96 583.96 2015.33 566.949 2045.62 549.805C2030.56 555.131 2015.56 560.614 2000.5 565.939C2000.35 565.995 1998.67 566.051 1997.61 564.747C1857.2 391.187 1856.13 391.525 1855.97 388.674C1855.94 388.045 1856.19 387.323 1856.23 387.271C1862.79 378.472 1869.48 369.759 1876.04 360.96C1861.63 364.429 1847.26 368.048 1832.85 371.517C1832.73 371.544 1831.43 371.479 1830.57 370.521C1830.44 370.374 1829.66 369.512 1829.82 368.158C1830.24 364.479 1835.11 322.265 1835.16 322.169C1835.53 321.51 1835.68 320.664 1836.27 320.195C1836.28 320.184 1838.46 319.565 1838.46 319.569C1839.14 319.938 1840.01 320.078 1840.49 320.682C1840.96 321.268 1841.17 322.11 1841.07 322.851C1839.01 337.676 1836.08 352.373 1834.02 367.197C1848.36 363.925 1862.66 360.513 1876.99 357.24C1877.27 357.177 1879.08 357.399 1879.82 359.019C1880.34 360.161 1879.94 361.35 1879.86 361.477C1874.21 370.435 1868.47 379.328 1862.83 388.287L2001.32 558.976C2016.11 554.814 2030.87 550.52 2045.67 546.359C2046.05 546.253 2048.01 546.377 2048.92 548.062C2049.55 549.209 2049.4 550.717 2048.58 551.727C2048.46 551.871 2048.35 552.035 2048.19 552.127C2017.86 569.31 1987.45 586.356 1957.12 603.539C1983.21 591.965 2009.23 580.234 2035.32 568.659C2035.53 568.566 2037.34 568.369 2038.56 569.687C2039.76 570.982 2039.47 572.743 2039.34 573.002C2036.36 579.238 2033.24 585.411 2030.25 591.647C2039.66 601.548 2049.15 611.361 2058.56 621.261C2058.72 621.435 2059.54 622.873 2058.98 624.438C2018.82 736.715 1978.65 848.988 1938.46 961.254C1937.62 963.585 1934.73 964.497 1932.71 963.088C1931.81 962.458 1931.33 961.395 1931.25 961.069C1926.17 939.906 1921.18 918.722 1916.1 897.558C1923.67 935.206 1931.41 972.817 1938.98 1010.47C1939.02 1010.71 1938.85 1012.7 1937.18 1013.78C1935.89 1014.62 1934.12 1014.6 1932.84 1013.75C1932.66 1013.63 1932.45 1013.53 1932.33 1013.35C1922.78 998.865 1913.4 984.274 1903.85 969.795C1907.98 985.677 1912.27 1001.52 1916.4 1017.4C1916.42 1017.48 1916.39 1018.4 1916.1 1019.11C1901.76 1053.51 1887.4 1087.9 1873.03 1122.29ZM1862.97 1119.67C1855.99 1064.99 1849.03 1010.29 1842.09 955.583C1841.85 953.695 1842.96 951.807 1844.71 951.099C1846.42 950.402 1847.86 951.068 1848.11 951.183C1849.97 952.05 1849.59 952.563 1866.96 968.709C1848.63 924.744 1830.16 880.841 1811.83 836.875C1811.78 836.751 1811.71 835.7 1811.74 835.552C1822.82 789.193 1834.03 742.869 1845.11 696.509L1605.07 483.075C1550.39 529.742 1495.7 576.403 1441.03 623.071C1440.39 623.616 1440.43 623.682 1439.68 624.06C1437.22 625.297 1435.19 624.057 1434.86 623.856C1433.94 623.294 1433.19 622.218 1433.13 622.062C1429.39 611.936 1425.85 601.741 1422.11 591.615L1259.95 770.023C1313.41 766.943 1366.86 763.676 1420.33 760.597C1420.89 760.564 1421.8 760.95 1421.92 761.001C1456.61 775.717 1491.29 790.45 1525.96 805.206C1528.63 806.343 1529.11 808.782 1529.19 809.185C1529.42 810.329 1529.13 811.717 1529.07 811.825C1518.74 829.832 1508.17 847.704 1497.84 865.711C1569.02 846.904 1640.14 827.836 1711.32 809.028C1711.63 808.945 1711.98 809.013 1712.3 809.047C1715.54 809.39 1716.7 811.936 1716.89 812.347C1717.02 812.629 1717.75 814.215 1717.22 816.202C1717.14 816.519 1717.07 816.858 1716.89 817.129C1707.2 831.325 1697.3 845.381 1687.61 859.576C1728.09 883.165 1768.7 906.529 1809.18 930.118C1809.47 930.289 1809.68 930.578 1809.9 930.838C1810.91 932.038 1811.14 933.341 1811.18 933.579C1811.25 933.914 1811.34 934.261 1811.28 934.595C1796.96 1010.06 1782.37 1085.47 1768.06 1160.93C1799.76 1147.33 1831.27 1133.3 1862.97 1119.67Z" fill="#F2EFD5"/>
<path d="M1549.81 992.888C1612.1 992.888 1662.6 945.222 1662.6 886.424C1662.6 827.625 1612.1 779.959 1549.81 779.959C1487.51 779.959 1437.02 827.625 1437.02 886.423C1437.02 945.222 1487.51 992.888 1549.81 992.888Z" fill="#F8F7E9" fill-opacity="0.75"/>
<path fill-rule="evenodd" clip-rule="evenodd" d="M1549.81 757.09C1556.2 756.956 1600.27 754.743 1641.16 787.033C1697.91 831.844 1708.27 911.594 1664.82 969.639C1629.91 1016.27 1569.07 1037.36 1511.32 1024.26C1440.44 1008.17 1390.18 944.159 1396.2 871.084C1402.4 795.765 1467.47 735.169 1548.79 732.608C1549.13 732.598 1549.47 732.59 1549.81 732.58L1549.81 757.09ZM1549.81 802.828C1549.8 802.828 1549.78 802.827 1549.77 802.827C1549.76 802.826 1549.8 802.837 1549.81 802.828L1549.81 827.333C1547.08 827.188 1522.22 825.102 1500.45 843.342C1469.67 869.127 1470.78 914.354 1503.73 940.669C1536.24 966.649 1586.68 963.059 1615.23 930.923C1643.48 899.122 1639.04 851.231 1603.82 822.848C1580.69 804.205 1555.48 803.094 1549.81 802.828ZM1549.81 827.333C1549.83 827.335 1549.86 827.336 1549.88 827.337L1549.81 827.337L1549.81 827.333Z" fill="#F2EFD5" fill-opacity="0.59"/>
<path fill-rule="evenodd" clip-rule="evenodd" d="M1738.92 216.098L1743.25 62.139L1747.73 -8.82771L1776.82 -66.5644L1717.43 -56.5295C1729.15 60.645 1722.41 150.802 1699.99 218.009L1738.92 216.098Z" fill="white"/>
<path fill-rule="evenodd" clip-rule="evenodd" d="M1070.84 604.603C1084.01 522.843 1172.84 474.537 1238.88 416.116C1190.26 470.64 1094.73 577.803 1070.84 604.603ZM1068.89 622.606C1103.49 759.038 1138.1 895.469 1172.72 1031.9C1123.01 897.711 1057.97 762.211 1068.89 622.606ZM1238.88 416.116C1256.23 396.659 1267.6 383.905 1267.62 383.898C1267.93 383.747 1268.21 383.47 1268.56 383.449C1268.57 383.448 1269.55 383.789 1269.56 383.797C1269.71 384.109 1269.98 384.389 1270 384.735C1270.02 385.081 1269.9 385.46 1269.67 385.72C1260.35 396.272 1249.93 406.336 1238.88 416.116ZM1172.72 1031.9C1180.11 1051.84 1187.15 1071.76 1193.57 1091.65C1198.4 1106.65 1219.93 1108.93 1233.11 1117.56C1234.95 1118.77 1233.53 1119.41 1234.01 1121.57L1233.85 1121.46C1232.71 1120.79 1231.13 1122.98 1229.99 1122.32C1216.07 1114.2 1203.08 1104.57 1189.64 1095.67C1188.75 1095.09 1188.53 1094.21 1188.49 1094.05C1183.23 1073.33 1177.97 1052.62 1172.72 1031.9ZM1068.89 622.606C1067.93 618.827 1066.97 615.047 1066.01 611.268C1065.98 611.13 1065.77 610.294 1066.44 609.541C1067.37 608.5 1068.85 606.828 1070.84 604.603C1070.48 606.812 1070.18 609.046 1069.94 611.304C1069.53 615.075 1069.18 618.842 1068.89 622.606Z" fill="black"/>
</g>
<defs>
<clipPath id="clip0_1677_497">
<rect width="2160" height="2700" fill="white"/>
</clipPath>
</defs>
</svg>
