<svg width="2160" height="2700" viewBox="0 0 2160 2700" fill="none" xmlns="http://www.w3.org/2000/svg">
<g clip-path="url(#clip0_980_174)">
<path d="M2179.75 -22.377H-29.3599V2730.74H2179.75V-22.377Z" fill="#1D9A6C"/>
<path fill-rule="evenodd" clip-rule="evenodd" d="M2179.75 -22.377V2730.74H-29.3599V-22.377H2179.75ZM2085.74 71.6231H64.6403V2636.74H2085.74V71.6231Z" fill="#FF050B"/>
<path fill-rule="evenodd" clip-rule="evenodd" d="M1172.11 -398.311L1183.29 -397.371L1058.3 2050.29L1431.13 -355.488L1442.12 -352.685L1069.28 2053.09L1683.57 -269.64L1694.17 -265.019L1079.89 2057.72L1925.12 -142.235L1935.16 -135.873L1089.94 2064.07L2151.64 24.5524L2160.96 32.5413L1099.25 2072.06L2359.28 227.867L2367.7 237.347L1107.67 2081.54L2544.47 464.226L2551.84 475.035L1115.06 2092.35L2704.02 729.589L2710.26 741.542L1121.28 2104.31L2835.24 1019.41L2840.18 1032.31L1126.24 2117.2L2935.84 1328.74L2939.44 1342.35L1129.84 2130.81L3004.14 1652.28L3006.33 1666.38L1132.02 2144.92L3038.95 1984.49L3039.7 1998.83L1132.75 2159.26L3039.7 2319.69L3038.95 2334.04L1132.02 2173.61L3006.33 2652.15L3004.14 2666.25L1129.84 2187.71L2939.44 2976.17L2935.84 2989.79L1126.24 2201.33L2840.18 3286.22L2835.24 3299.11L1121.28 2214.22L2710.26 3576.98L2704.02 3588.94L1115.06 2226.17L2551.84 3843.49L2544.47 3854.3L1107.67 2236.98L2367.7 4081.18L2359.28 4090.66L1099.25 2246.46L2160.96 4285.98L2151.64 4293.96L1089.94 2254.45L1935.16 4454.4L1925.12 4460.75L1079.89 2260.81L1694.17 4583.55L1683.57 4588.16L1069.28 2265.43L1442.12 4671.2L1431.13 4674.01L1058.3 2268.24L1183.29 4715.88L1172.11 4716.82L1047.12 2269.18L922.133 4716.82L910.955 4715.88L1035.94 2268.24L663.12 4674.01L652.133 4671.2L1024.96 2265.43L410.677 4588.16L400.069 4583.55L1014.35 2260.81L169.122 4460.75L159.075 4454.4L1004.3 2254.45L-57.4094 4293.96L-66.7215 4285.98L994.99 2246.46L-265.041 4090.66L-273.462 4081.18L986.567 2236.98L-450.221 3854.3L-457.606 3843.49L979.182 2226.17L-609.783 3588.94L-616.004 3576.98L972.959 2214.22L-740.992 3299.11L-745.947 3286.22L968.004 2201.33L-841.608 2989.79L-845.209 2976.17L964.404 2187.71L-909.906 2666.25L-912.091 2652.15L962.219 2173.61L-944.72 2334.04L-945.453 2319.69L961.486 2159.26L-945.453 1998.83L-944.72 1984.49L962.219 2144.92L-912.091 1666.38L-909.906 1652.28L964.404 2130.81L-845.209 1342.35L-841.608 1328.74L968.004 2117.2L-745.947 1032.31L-740.992 1019.41L972.959 2104.31L-616.004 741.542L-609.783 729.589L979.182 2092.35L-457.606 475.035L-450.221 464.226L986.567 2081.54L-273.462 237.347L-265.041 227.867L994.99 2072.06L-66.7215 32.5413L-57.4094 24.5524L1004.3 2064.07L159.075 -135.873L169.122 -142.235L1014.35 2057.72L400.069 -265.019L410.677 -269.64L1024.96 2053.09L652.133 -352.685L663.12 -355.488L1035.94 2050.29L910.955 -397.371L922.133 -398.311L1047.12 2049.35L1172.11 -398.311Z" fill="#FAF6B0" fill-opacity="0.57"/>
<g opacity="0.21">
<path fill-rule="evenodd" clip-rule="evenodd" d="M2030.1 885.682C2030.1 885.682 1920.6 611.446 1828.62 534.752C1736.64 458.058 1478.24 425.517 1478.24 425.517L660.924 442.281C660.924 442.281 368.239 555.682 296.383 627.964C241.804 682.857 197.566 881.473 197.566 881.473L22.5637 1092.06L48.5241 1328.85L-113.25 1684.51L-148.069 1804.62L-104.726 1995.6L-204.88 2048.56L-252.295 2183.27L-9.75639 2827.54C266.829 3304.76 1966.12 3264.46 2156.82 2834.77L2413.5 2198.34L2305.18 2099.6L2286.66 1967.53L2143.63 1938.49C2143.63 1938.49 2391.12 1736.92 2405.28 1639.18C2419.44 1541.44 2228.61 1352.03 2228.61 1352.03L2214.44 1011.19L2030.1 885.682Z" fill="#FF050B" stroke="black" stroke-width="23.4231" stroke-miterlimit="1.5" stroke-linecap="square" stroke-linejoin="round"/>
<path fill-rule="evenodd" clip-rule="evenodd" d="M687.244 436.395L483.1 800.865L581.232 1062.52L397.548 749.837L329.236 838.374L384.909 1069.12L281.656 923.831L116.736 1107.27L201.613 1394.82L120.287 1296.66L242.35 1459.66L88.1016 1433.15L-3.56136 1457.52L139.646 1505.61C139.646 1505.61 -43.1697 1571.27 -8.29755 1573.94C26.5746 1576.64 206.416 1537.31 206.416 1537.31L60.47 1629.57L154.555 1620.75L30.5131 1830.73L227.344 1953.37L187.031 1810.67L234.297 2018.56L12.9436 2074.78L-118.767 1891.46L-147.548 1817.68L-107.978 1669.31L46.4961 1306.16L16.7443 1073.63L195.249 889.314L304.853 619.832L687.244 436.395Z" fill="black" fill-opacity="0.3"/>
<path fill-rule="evenodd" clip-rule="evenodd" d="M1604.4 1164.07L1342.92 1589.22L1425.92 1274.64L1212.58 1662.06L1089.89 1603.54L889.918 1331.39L944.951 1587.95L644.169 1121.79L704.24 1399.36L510.399 1252.1L841.324 1603.62L624.115 1475.46L699.27 1874.24L559.194 1831.82L571.526 2060.42L307.807 2125.02L432.598 2151.09L111.895 2256.18L346.58 2356.05L184.953 2375.7L282.688 2450.18L229.779 2492.86L386.597 2577.87C908.583 2777.46 1386.56 2941.08 1991.77 2448.07L2104.99 2295.73L1976.69 2304.86L2143.1 2068.97L2020.35 2097.88L2019.52 1878.96L1812.23 1879.93L1747.69 1715.2L1697.55 1687.11L1665.76 1901.56L1659.28 1626.22L1440.07 1753.21L1691.51 1297.06L1604.4 1164.07Z" fill="#8DCCB5" fill-opacity="0.5"/>
<path d="M1108.82 3015.31C1439.08 3015.31 1706.82 2800.41 1706.82 2535.32C1706.82 2270.23 1439.08 2055.33 1108.82 2055.33C778.55 2055.33 510.816 2270.23 510.816 2535.32C510.816 2800.41 778.55 3015.31 1108.82 3015.31Z" fill="#F7F189" fill-opacity="0.52" stroke="#8DCCB5" stroke-opacity="0.31" stroke-width="367.137" stroke-miterlimit="1.5" stroke-linecap="round" stroke-linejoin="round"/>
<path fill-rule="evenodd" clip-rule="evenodd" d="M1149.08 1534.97C1203.41 1530.43 1244.46 1434.8 1298.66 1322.96C1374.42 1166.61 1455.74 971.607 1457.49 888.281C1462.99 625.308 1478.59 310.828 1092.63 318.116C666.633 326.155 717.02 638.71 711.518 901.673C708.527 1044.62 1071.24 1541.48 1149.08 1534.97Z" fill="#994662" stroke="black" stroke-width="23.3774" stroke-miterlimit="1.5" stroke-linecap="round" stroke-linejoin="round"/>
<path fill-rule="evenodd" clip-rule="evenodd" d="M1380.93 772.544L1397.87 915.686L1131.09 1139.74L1024.31 1284.4L1157.88 1539.7L1309.25 1310.1L1303.56 1400.58L1441.87 1141.81L1492.08 1123.88L1540.17 970.768L1499.36 810.282L1380.93 772.544Z" fill="black" fill-opacity="0.4"/>
<path fill-rule="evenodd" clip-rule="evenodd" d="M737.323 454.226L689.49 415.748L711.068 379.869L722.879 334.221L788.442 309.59L830.181 268.805L869.957 261.417L910.734 231.212L991.141 212.227L1064.51 173.663L1134.13 199.237L1183.3 182.908L1260.03 208.396L1357.77 198.366L1375.3 223.476L1386.48 278.253L1439.45 297.064L1410.01 384.557C1410.01 384.557 1088.65 474.242 1074.39 481.121C1060.14 488.001 737.323 454.226 737.323 454.226Z" fill="#B4AD60"/>
<path fill-rule="evenodd" clip-rule="evenodd" d="M737.323 454.226L689.49 415.748L711.068 379.869L722.879 334.221L788.442 309.59L830.181 268.805L869.957 261.417L910.734 231.212L991.141 212.227L1064.51 173.663L1134.13 199.237L1183.3 182.908L1260.03 208.396L1357.77 198.366L1375.3 223.476L1386.48 278.253L1439.45 297.064L1410.01 384.557C1410.01 384.557 1088.65 474.242 1074.39 481.121C1060.14 488.001 737.323 454.226 737.323 454.226ZM1070.2 467.899C1097.25 457.884 1353.18 386.081 1399.21 373.178L1421.97 305.57L1381.83 291.316C1377.25 289.691 1373.87 285.786 1372.89 281.026L1362.28 229.064L1351.07 212.997L1261.43 222.184C1259.48 222.387 1257.52 222.17 1255.65 221.56L1183.28 197.524L1138.5 212.402C1135.52 213.388 1132.3 213.33 1129.35 212.256L1065.49 188.801L997.594 224.506C996.552 225.044 995.456 225.45 994.321 225.726L916.694 244.043L878.214 272.549C876.53 273.812 874.566 274.668 872.495 275.046L836.848 281.664L798.128 319.503C796.752 320.853 795.122 321.884 793.318 322.566L734.503 344.671L724.483 383.338C724.149 384.644 723.641 385.878 722.946 387.01L707.608 412.526L742.827 440.859C772.128 443.907 952.354 462.441 1034.66 467.13C1051.77 468.102 1067.98 467.928 1070.2 467.899Z" fill="black"/>
<path fill-rule="evenodd" clip-rule="evenodd" d="M1055.87 774.554L1103.16 739.344L1140.55 768.272L1055.87 774.554Z" stroke="black" stroke-width="17.5705" stroke-miterlimit="1.5" stroke-linecap="round" stroke-linejoin="round"/>
<path fill-rule="evenodd" clip-rule="evenodd" d="M1010.49 536.586C1009.89 535.263 1010.47 533.7 1011.8 533.107C1013.12 532.502 1014.67 533.086 1015.28 534.409C1015.28 534.409 1041.47 582.692 1042.14 608.985C1042.46 622.339 1036.17 630.59 1025.48 633.236C1014.06 636.017 997.354 634.798 976.929 631.152C957.971 627.767 935.667 622.412 911.559 616.568C891.364 611.662 869.904 606.682 848.155 602.318C834.28 599.536 820.337 596.88 806.433 595.005C776.14 590.911 746.26 589.744 718.864 598.14C707.98 601.245 705.659 614.495 704.7 628.933C702.543 661.424 712.113 701.082 712.113 701.082C712.573 702.457 711.835 703.947 710.454 704.405C709.083 704.863 707.587 704.124 707.126 702.749C707.126 702.749 685.589 651.903 686.749 615.599C687.373 596.203 695.437 581.463 710.281 574.765C730.783 565.816 753.116 561.149 776.409 559.795C798.08 558.524 820.5 560.076 842.632 563.712C858.78 566.368 874.727 570.285 890.156 574.64C906.094 579.129 921.408 584.244 935.849 589.192C959.553 597.307 980.592 605.089 997.747 609.443C1007.48 611.912 1015.59 613.714 1022.05 613.089C1022.28 613.068 1022.31 613.693 1022.46 613.537C1023.58 612.266 1024.24 610.38 1024.54 608.057C1025.15 603.214 1024.92 597.359 1024.12 591.109C1020.94 566.347 1010.49 536.586 1010.49 536.586Z" fill="black"/>
<path fill-rule="evenodd" clip-rule="evenodd" d="M1081.19 535.648C1080.97 534.211 1081.95 532.867 1083.38 532.638C1084.81 532.408 1086.16 533.388 1086.39 534.825C1086.39 534.825 1091.48 553.941 1100.61 563.055C1105.05 567.483 1109.92 565.91 1117.04 555.628C1127.96 540.232 1141.22 520.762 1156.76 500.761C1170.47 483.094 1185.57 465.031 1201.29 448.843C1210.21 439.644 1219.38 431.102 1228.59 423.675C1246.05 409.56 1263.44 399.164 1278.59 393.393C1303.29 384.809 1326.3 389.518 1345.76 402.799C1375.27 422.946 1395.65 459.989 1401.48 473.594C1402.18 474.865 1401.71 476.469 1400.45 477.167C1399.17 477.865 1397.57 477.406 1396.88 476.135C1389.24 465.01 1364.5 435.728 1334.79 422.362C1320.97 416.154 1306.01 414.289 1291.18 422.196C1281.91 426.863 1272.29 434.509 1261.83 443.301C1255.63 448.53 1249.32 454.312 1242.71 460.229C1228.18 473.25 1213.01 487.657 1198.13 502.063C1173.21 526.21 1149.04 549.722 1131.38 567.701C1116.38 582.515 1105.42 582.775 1097.68 577.4C1092.73 573.962 1088.7 568.004 1086.23 560.993C1082.06 549.211 1081.19 535.648 1081.19 535.648Z" fill="black"/>
<path fill-rule="evenodd" clip-rule="evenodd" d="M994.861 628.641C993.681 629.287 992.531 631.381 991.533 633.86C995.609 633.006 998.466 632.246 997.805 630.735C997.229 629.423 996.625 628.725 996.021 628.506C997.143 628.381 998.255 628.256 999.368 628.131C1030.29 625.496 1023.64 655.965 1018.7 660.257C1017.58 661.236 1015.16 663.195 1010.88 664.758C1007.33 666.07 1000.32 668.185 990.661 670.487C966.285 676.289 924.073 684.956 881.372 692.644C839.342 700.207 797.217 706.572 771.671 710.718C760.998 712.447 753.327 713.645 749.779 714.28C749.348 714.353 748.916 714.374 748.571 714.395C748.561 714.405 748.542 714.416 748.523 714.426C748.523 714.416 748.523 714.405 748.523 714.395C748.178 714.426 747.948 714.468 747.986 714.614C747.995 714.624 747.995 714.645 747.995 714.655C747.852 714.707 747.708 714.739 747.554 714.759C745.541 715.197 742.817 710.738 748.35 708.822C751.774 707.634 759.196 705.176 769.542 701.853C789.776 695.352 820.711 685.269 853.746 674.956C839.793 675.539 826.215 676.029 813.26 676.445C752.09 678.404 706.062 678.998 706.062 678.998C704.614 679.133 703.329 678.081 703.185 676.643C703.041 675.195 704.096 673.904 705.534 673.758C705.534 673.758 750.767 665.237 811.093 654.934C833.138 651.174 857.054 647.246 881.564 643.455C901.136 640.413 920.937 637.319 940.365 634.798C959.208 632.35 977.638 630.548 994.861 628.641ZM748.523 714.426C748.504 715.551 748.35 716.072 747.995 714.655C748.187 714.603 748.36 714.52 748.523 714.426ZM994.861 628.641C995.244 628.423 995.638 628.371 996.021 628.506C995.638 628.548 995.244 628.6 994.861 628.641Z" fill="black"/>
<path d="M1286.7 691.539C1312.71 691.539 1333.8 672.418 1333.8 648.83C1333.8 625.243 1312.71 606.121 1286.7 606.121C1260.69 606.121 1239.6 625.243 1239.6 648.83C1239.6 672.418 1260.69 691.539 1286.7 691.539Z" fill="#808080"/>
<path fill-rule="evenodd" clip-rule="evenodd" d="M1286.7 603.484C1300.79 601.297 1313.81 604.963 1324.48 611.766C1337.29 619.922 1344.65 633.454 1346.77 648.83C1348.5 665.403 1341.55 680.769 1330.07 692.352C1319.41 703.124 1303.76 709.124 1286.7 709.988C1280.11 709.905 1273.72 709.145 1267.81 707.228C1258.33 704.134 1249.77 699.207 1243.22 692.477C1231.81 680.758 1224.73 665.445 1226.47 648.83C1228.63 633.412 1236 619.86 1248.87 611.714C1259.57 604.932 1272.59 601.265 1286.7 603.484ZM1286.7 608.745C1275.35 610.537 1266.23 616.37 1259.58 624.1C1253.7 630.933 1251.46 639.704 1252.73 648.83C1253.56 656.674 1259.03 662.424 1265.23 667.008C1271.03 671.31 1278.57 673.456 1286.7 673.081C1294.85 673.487 1302.45 671.435 1308.28 667.133C1314.53 662.528 1320 656.715 1320.83 648.83C1322.08 639.673 1319.78 630.881 1313.87 624.047C1307.2 616.328 1298.05 610.505 1286.7 608.745Z" fill="black"/>
<path fill-rule="evenodd" clip-rule="evenodd" d="M804.545 782.569L913.383 919.309L919.503 1119.1L1139.6 1220.16L1070.9 1273.2L1167.86 1327.05L1088.32 1332.36L1181.99 1397.73L1094.56 1407.1L1146.4 1566.12L1087.21 1528.77L875.344 1213.24L645.309 980.792L670.334 785.791L804.545 782.569Z" fill="black" fill-opacity="0.4"/>
<path fill-rule="evenodd" clip-rule="evenodd" d="M769.98 922.517C915.909 1077.85 1149.1 1147.3 1165.79 1118.26C1102.64 1141.48 1127.31 1219 1078.73 1204.45C1125.69 1270.27 1088.6 1349.26 1154.36 1401.9C1085.66 1369.81 1018.36 1335.41 965.13 1277.55L1140.09 1559.69L950.594 1350.07L784.811 1134.59L769.98 922.517Z" fill="black" fill-opacity="0.6"/>
<path fill-rule="evenodd" clip-rule="evenodd" d="M1133.2 706.34L1053.61 714.343L989.483 763.163L1055.66 742.018L1103.53 722.962L1136.03 743.537L1201.1 763.179L1133.2 706.34Z" fill="#8DCCB5" fill-opacity="0.4"/>
<path fill-rule="evenodd" clip-rule="evenodd" d="M1095.49 818.894C1029.97 821.662 900.905 788.546 900.905 788.546L978.231 845.242L890.161 841.351L834.605 844.704L914.984 921.074L972.545 1014.55L955.727 1044.4C955.727 1044.4 1086.8 1117.21 1119.15 1115.04C1151.5 1112.86 1252.81 1051.93 1252.81 1051.93L1186.81 1068.94L1267.02 970.542C1267.02 970.542 1176.41 1016.25 1201.02 1001.35C1225.65 986.468 1361.57 803.364 1361.57 803.364L1263.84 851.473C1263.84 851.473 1394.98 770.058 1328.59 785.288C1262.21 800.517 1169.11 815.779 1095.49 818.894Z" fill="#8DCCB5" fill-opacity="0.4"/>
<path fill-rule="evenodd" clip-rule="evenodd" d="M822.712 814.033C923.566 884.27 1254.19 873.126 1367.89 816.613C1367.89 816.613 1187.33 995.593 1086.45 1010.61C994.301 1024.33 823.187 814.795 822.712 814.033Z" fill="black"/>
<path fill-rule="evenodd" clip-rule="evenodd" d="M824.882 810.924C853.736 829.899 900.867 841.365 956.001 847.671C998.788 852.568 1046.38 854.093 1094.16 852.891C1141.43 851.718 1188.82 847.876 1231.87 841.629C1285.66 833.828 1332.61 822.567 1363.35 807.464C1367.83 805.206 1373.29 806.584 1376.22 810.66C1379.12 814.737 1378.65 820.338 1375.08 823.887C1375.08 823.887 1297.04 900.194 1214.43 957.088C1169.67 987.881 1123.51 1012.87 1087.53 1017.88C1052.37 1022.75 1006.12 997.265 962.101 961.839C888.257 902.394 819.806 816.555 819.507 816.086C818.533 814.561 818.773 812.567 820.081 811.306C821.386 810.045 823.395 809.898 824.882 810.924ZM841.399 829.869C865.968 857.495 916.527 911.632 969.462 952.454C1010.69 984.244 1053.07 1008.5 1085.36 1003.34C1119.44 997.94 1162.55 972.895 1204.51 942.923C1250.26 910.253 1294.55 871.513 1324.19 844.181C1298.21 851.893 1267.86 858.287 1234.95 862.979C1191.05 869.225 1142.61 872.628 1094.42 872.716C1045.74 872.774 997.292 869.489 953.948 862.627C909.313 855.53 870.103 844.562 841.399 829.869Z" fill="black"/>
<path fill-rule="evenodd" clip-rule="evenodd" d="M923.39 865.618L978.083 914.652L978.611 891.983L1194.37 893.244L1190.11 914.271L1254.84 867.906C1143.1 874.915 1032.34 875.824 923.39 865.618Z" fill="white"/>
<path fill-rule="evenodd" clip-rule="evenodd" d="M945.561 935.064C945.561 935.064 1040.31 999.993 1081.99 997.705C1126.62 995.271 1238.65 934.096 1238.65 934.096C1187.45 947.85 1131.84 961.516 1082.78 960.578C1029.96 959.551 984.271 943.07 945.561 935.064Z" fill="white"/>
<path fill-rule="evenodd" clip-rule="evenodd" d="M946.323 931.339C970.84 935.855 998.172 943.685 1028.29 948.817C1045.59 951.779 1063.8 953.832 1082.93 953.803C1102.69 953.803 1123.48 951.281 1144.63 947.439C1175.22 941.838 1206.42 933.304 1236.16 924.77C1240.88 923.509 1245.8 925.972 1247.62 930.488C1249.44 935.034 1247.59 940.225 1243.28 942.571C1243.28 942.571 1196.57 969.287 1150.99 988.261C1124.95 999.112 1099.2 1007.09 1082.54 1007.82C1066.59 1008.23 1043.42 1000.2 1020.67 988.291C981.691 967.909 943.39 938.201 943.39 938.201C941.895 937.175 941.337 935.239 942.041 933.597C942.745 931.925 944.534 930.987 946.323 931.339ZM972.541 945.973C987.673 954.184 1007.88 964.595 1027.85 973.1C1048.06 981.722 1067.85 988.731 1081.46 987.587C1096.44 986.649 1119.23 978.115 1142.75 968.378C1148.24 966.12 1153.78 963.745 1159.23 961.34C1155.22 962.014 1151.23 962.66 1147.24 963.217C1125.04 966.443 1103.28 968.144 1082.66 967.323C1062.81 966.531 1044.01 963.657 1026.18 959.844C1007.15 955.738 989.286 950.606 972.541 945.973Z" fill="black"/>
<path fill-rule="evenodd" clip-rule="evenodd" d="M1462.41 468.543L1161.14 509.644L1078.72 542.499L1003.24 531.19L655.347 578.661L663.546 675.33L638.493 759.817L972.637 723.233L1093.62 676.013L1252.94 693.89L1533.97 640.547L1480.8 532.581L1462.41 468.543Z" fill="#FF050B" stroke="black" stroke-width="27.7443" stroke-miterlimit="1.5" stroke-linecap="square" stroke-linejoin="round"/>
<path d="M888.625 732.655C960.714 732.655 1019.15 680.748 1019.15 616.718C1019.15 552.688 960.714 500.781 888.625 500.781C816.535 500.781 758.095 552.688 758.095 616.718C758.095 680.748 816.535 732.655 888.625 732.655Z" fill="#F2E83A" stroke="black" stroke-width="27.6723" stroke-miterlimit="1.5" stroke-linecap="square" stroke-linejoin="round"/>
<path d="M1324.65 456.82C1256.46 431.422 1185.68 459.933 1166.56 520.503C1147.45 581.072 1187.23 650.762 1255.42 676.161C1323.62 701.559 1394.39 673.048 1413.51 612.478C1432.63 551.909 1392.84 482.219 1324.65 456.82Z" fill="#F2E83A" stroke="black" stroke-width="27.4578" stroke-miterlimit="1.5" stroke-linecap="square" stroke-linejoin="round"/>
<path fill-rule="evenodd" clip-rule="evenodd" d="M767.718 1122.08L828.083 772.891C879.763 770.699 1045.37 758.463 1052.93 712.844L1140.82 705.906C1167.65 769.625 1335.49 748.724 1380.52 724.514L1471.59 1106.58L1595.36 827.508L1296.91 292.753C1296.91 292.753 722.224 516.479 718.684 552.358C715.156 588.238 767.718 1122.08 767.718 1122.08Z" fill="black" fill-opacity="0.6"/>
<path fill-rule="evenodd" clip-rule="evenodd" d="M826.984 646.695C826.984 646.695 863.572 682.48 895.025 678.576C943.061 672.633 973.681 637.158 973.681 637.158C916.894 578.859 868.316 584.544 826.984 646.695Z" fill="#8DCCB5" fill-opacity="0.4"/>
<path fill-rule="evenodd" clip-rule="evenodd" d="M1202.77 602.035C1202.77 602.035 1234.15 642.979 1265.8 643.867C1314.15 645.241 1349.25 614.756 1349.25 614.756C1300.93 548.477 1252.08 546.765 1202.77 602.035Z" fill="#8DCCB5" fill-opacity="0.4"/>
<path d="M926.961 701.561C973.973 702.554 1012.85 667.196 1013.79 622.588C1014.73 577.979 977.385 541.011 930.374 540.018C883.362 539.025 844.488 574.382 843.546 618.991C842.603 663.6 879.95 700.568 926.961 701.561Z" fill="#FF050B" stroke="black" stroke-width="23.4658" stroke-miterlimit="1.5" stroke-linecap="square" stroke-linejoin="round"/>
<path d="M1280.06 520.288C1235.93 503.178 1188.38 523.282 1173.85 565.191C1159.31 607.1 1183.31 654.945 1227.44 672.056C1271.57 689.166 1319.12 669.062 1333.65 627.153C1348.18 585.244 1324.19 537.399 1280.06 520.288Z" fill="#FF050B" stroke="black" stroke-width="23.2833" stroke-miterlimit="1.5" stroke-linecap="square" stroke-linejoin="round"/>
<path d="M913.292 624.191C917.527 624.191 920.96 620.275 920.96 615.444C920.96 610.614 917.527 606.697 913.292 606.697C909.057 606.697 905.624 610.614 905.624 615.444C905.624 620.275 909.057 624.191 913.292 624.191Z" fill="white"/>
<path d="M934.829 636.989C940.908 636.989 945.836 631.361 945.836 624.418C945.836 617.476 940.908 611.848 934.829 611.848C928.75 611.848 923.821 617.476 923.821 624.418C923.821 631.361 928.75 636.989 934.829 636.989Z" fill="white"/>
<path d="M1233.93 606.725C1238.17 606.725 1241.6 602.809 1241.6 597.978C1241.6 593.148 1238.17 589.231 1233.93 589.231C1229.7 589.231 1226.26 593.148 1226.26 597.978C1226.26 602.809 1229.7 606.725 1233.93 606.725Z" fill="white"/>
<path d="M1255.23 619.518C1261.17 619.518 1265.99 613.891 1265.99 606.95C1265.99 600.009 1261.17 594.382 1255.23 594.382C1249.28 594.382 1244.47 600.009 1244.47 606.95C1244.47 613.891 1249.28 619.518 1255.23 619.518Z" fill="white"/>
<path fill-rule="evenodd" clip-rule="evenodd" d="M1099.5 410.756L780.746 627.891L776.711 1181.69L647.604 1050.77L474.699 793.907L724.015 325.469L728.838 245.146L1058.88 -0.42334L1483.02 198.119L1444.76 280.445L1486.07 380.261L1494.88 434.211L1683.84 782.223L1487.1 1128.65L1393.67 586.961L1099.5 410.756Z" fill="#FF050B" stroke="black" stroke-width="15.374" stroke-miterlimit="1.5" stroke-linecap="round" stroke-linejoin="round"/>
<path fill-rule="evenodd" clip-rule="evenodd" d="M709.316 889.461C709.395 891.543 707.758 893.302 705.665 893.39C703.568 893.478 701.802 891.836 701.72 889.754C701.72 889.754 696.421 810.66 694.394 730.1C693.805 706.727 693.567 683.207 693.743 661.476C694.004 629.099 695.289 600.623 697.928 582.236C699.465 571.531 701.779 563.818 704.184 559.742C708.497 552.44 720.202 541.911 737.56 529.36C769.464 506.338 821.284 474.725 874.708 437.626C924.475 403.549 975.796 365.483 1016.53 339.47C1047.15 319.939 1072.4 307.328 1087.12 306.537C1093.54 306.214 1103.25 308.472 1115.3 313.428C1137.62 322.607 1169.53 340.878 1204.78 363.283C1310 430.119 1445.96 533.465 1445.96 533.465C1447.1 534.345 1447.86 535.636 1448.01 537.073L1461.91 676.227C1462.12 678.31 1460.62 680.186 1458.54 680.421C1456.46 680.655 1454.58 679.13 1454.35 677.048L1437.92 540.533C1421.5 528.597 1295.28 437.186 1196.36 376.803C1161.73 355.658 1130.55 338.327 1108.73 329.793C1099.88 326.303 1092.9 324.221 1088.2 324.543C1075.24 325.423 1053.72 337.945 1026.97 355.541C986.706 382.023 935.971 420.529 886.791 455.046C833.405 491.998 781.808 523.729 749.748 546.428C735.454 556.546 725.149 564.288 721.518 570.212C719.169 574.024 717.765 582.675 716.292 594.553C714.119 612.002 712.647 635.61 711.63 661.887C710.791 683.471 710.286 706.815 709.89 730.041C708.518 810.396 709.316 889.461 709.316 889.461Z" fill="black"/>
<path fill-rule="evenodd" clip-rule="evenodd" d="M1110.17 238.734C1098.97 238.323 1087.3 241.314 1076.24 245.274C1047.65 255.538 1023.16 273.075 1023.16 273.075C1021.6 274.483 1019.2 274.336 1017.79 272.753C1016.41 271.169 1016.56 268.764 1018.14 267.386C1018.14 267.386 1027.5 257.415 1042.07 246.417C1049.93 240.493 1059.26 234.364 1069.41 229.32C1083.25 222.487 1098.53 218.205 1113.19 218.146C1114.42 218.176 1117.12 218.674 1120.73 220.698C1124.8 222.985 1132.69 228.382 1142.99 236.3C1155.89 246.212 1172.78 260.113 1191.4 275.597C1214.22 294.542 1239.41 315.98 1262.87 335.482C1293.78 361.201 1321.35 383.636 1335.72 392.698C1339.24 394.927 1341.5 396.569 1342.7 396.481C1344.78 396.276 1346.66 397.83 1346.86 399.912C1347.04 401.995 1345.52 403.842 1343.43 404.048C1341.67 404.282 1338.07 403.285 1333.11 400.734C1320.5 394.253 1296.19 377.595 1267.92 357.125C1243.25 339.265 1215.54 318.59 1190.14 299.352C1170.99 284.835 1153.13 271.286 1138.94 260.377C1125.77 250.259 1115.92 242.488 1110.85 239.144C1110.64 239.027 1110.41 238.88 1110.17 238.734Z" fill="black"/>
<path fill-rule="evenodd" clip-rule="evenodd" d="M660.851 444.166L478.282 787.316L500.552 825.851L509.28 789.017L604.444 887.76L547.577 726.434L671.751 860.398L594.898 656.226L692.863 494.432L767.476 485.575L741.041 453.785L940.781 295.832L749.15 413.08L816.853 336.596L735.217 357.975L941.221 208.615L821.011 218.557L1076.59 116.881L1007.76 207.794L1163.02 132.161L1269.68 215.302L1257.48 148.613L1472.44 555.666L1427.95 357.799L1565.85 718.193L1587.34 659.482L1590.74 728.106L1625.76 739.103L1591.51 810.807L1670.95 771.539L1724.74 662.033L1735.5 703.149L1787.7 652.942L1667.23 881.894L1824.15 707.9L1808.17 931.573L1886.21 743.737L1958.5 886.059L1893.39 1088.68L1992.75 967.205L1942.4 1095.3L2024.04 1004.89L2103.05 1057.53L2148.62 1246.72L1978 1280.74L2146.66 1367.16L2078 1376.93L2145.6 1551.33L2039.88 1823.57L2191.2 1672.45L2100.58 1881.37C2100.58 1881.37 2277.48 1693.95 2240.09 1732.31C2202.7 1770.64 2114.31 1965.48 2114.31 1965.48L2227.13 2006.27L2290.94 1918.71L2150.41 1930.85C2150.41 1930.85 2395.58 1714.42 2403.91 1620.63C2412.24 1526.81 2230.06 1349.8 2230.06 1349.8L2217.77 1023.25L2008.85 870.222L1846.88 543.436L1516.05 436.395L1488.07 416.775L1448.8 287.445L1487.84 201.87L1061.46 10.4556L738.61 225.625L731.982 307.27L660.851 444.166Z" fill="black" fill-opacity="0.3"/>
<path fill-rule="evenodd" clip-rule="evenodd" d="M776.376 1145.21L764.846 619.981L1109.72 382.815L740.075 593.768L707.1 918.165L596.484 804.895L664.024 955.583L525.431 852.299L715.571 1126.17L776.376 1145.21Z" fill="#8DCCB5" fill-opacity="0.5"/>
<path fill-rule="evenodd" clip-rule="evenodd" d="M1492.19 1105.1L1405.19 588.286L1093.97 391.946L1424.54 557.15L1498.68 935.636L1508.48 729.788L1566.71 894.616L1659.19 785.274L1492.19 1105.1Z" fill="#8DCCB5" fill-opacity="0.5"/>
<path fill-rule="evenodd" clip-rule="evenodd" d="M266.427 1462.38C274.513 1437.92 337.622 1432.27 337.622 1432.27C337.622 1432.27 318.562 1331.76 343.907 1295.81C363.846 1267.52 469.036 1232.85 516.308 1233.92C530.123 1234.24 572.718 1229.49 573.06 1236.97C573.285 1241.63 539.348 1254.21 538.773 1258.49C530.596 1318.39 449.58 1341.22 449.58 1341.22L501.738 1595.96C501.738 1595.96 579.019 1638.18 640.415 1618.12C710.193 1595.32 745.281 1532.92 787.947 1532.01C796.476 1531.84 803.301 1535.28 808.63 1541.1C816.228 1549.41 860.381 1526.27 862.481 1540.75C864.717 1556.25 824.525 1609.56 821.883 1623.67C819.429 1636.77 815.183 1647.38 809.753 1652.04C783.603 1674.45 657.519 1729.06 657.519 1729.06C648.927 1774.54 635.82 1819.99 573.047 1864.85C573.389 1919.05 555.434 1989.45 531.049 2019.29C507.414 2048.21 459.73 2058.37 426.716 2043.94C389.989 2027.89 310.747 1923.03 310.747 1923.03C310.747 1923.03 227.915 1789.24 215.412 1750.37C209.571 1732.22 238.431 1719.03 235.736 1689.78C233.941 1670.39 214.347 1651.57 216.426 1627.57C218.247 1606.43 241.202 1584.72 245.831 1564.13C255.398 1521.54 260.49 1480.33 266.427 1462.38Z" fill="#994662" stroke="black" stroke-width="22.5587" stroke-miterlimit="1.5" stroke-linecap="round" stroke-linejoin="round"/>
<path fill-rule="evenodd" clip-rule="evenodd" d="M271.94 1450.49C309.806 1430.65 553.422 1373.18 574.04 1387.37C580.65 1391.91 592.59 1389.5 606.906 1392.62C618.147 1395.04 633.048 1403.54 633.048 1403.54C633.048 1403.54 591.954 1412.36 577.83 1424.84C548.074 1451.1 509.209 1492.55 488.468 1503.32C453.098 1521.71 333.448 1520.7 333.448 1520.7" fill="#994662"/>
<path d="M271.94 1450.49C309.806 1430.65 553.422 1373.18 574.04 1387.37C580.65 1391.91 592.59 1389.5 606.906 1392.62C618.147 1395.04 633.048 1403.54 633.048 1403.54C633.048 1403.54 591.954 1412.36 577.83 1424.84C548.074 1451.1 509.209 1492.55 488.468 1503.32C453.098 1521.71 333.448 1520.7 333.448 1520.7" stroke="black" stroke-width="15.3741" stroke-miterlimit="1.5" stroke-linecap="round" stroke-linejoin="round"/>
<path fill-rule="evenodd" clip-rule="evenodd" d="M265.846 1570.12L318.34 1522.55C318.34 1522.55 512.164 1513.49 535.532 1533.5C541.02 1538.21 593.381 1551.26 593.238 1560.13C593.026 1574.24 536.64 1586.31 527.452 1602.02C517.825 1618.49 505.041 1632.81 492.787 1638.75C461.472 1653.9 314.582 1627.62 314.582 1627.62L279.005 1669.53C279.005 1669.53 302.296 1637.57 324.636 1644.09C370.157 1657.36 448.133 1698.26 465.652 1712.79C479.972 1724.68 521.888 1752.56 514.916 1767.25C509.94 1777.73 473.348 1759.69 448.982 1781.65C427.136 1801.34 343.212 1759.54 343.212 1759.54L309.256 1790.44" fill="#994662"/>
<path d="M265.846 1570.12L318.34 1522.55C318.34 1522.55 512.164 1513.49 535.532 1533.5C541.02 1538.21 593.381 1551.26 593.238 1560.13C593.026 1574.24 536.64 1586.31 527.452 1602.02C517.825 1618.49 505.041 1632.81 492.787 1638.75C461.472 1653.9 314.582 1627.62 314.582 1627.62L279.005 1669.53C279.005 1669.53 302.296 1637.57 324.636 1644.09C370.157 1657.36 448.133 1698.26 465.652 1712.79C479.972 1724.68 521.888 1752.56 514.916 1767.25C509.94 1777.73 473.348 1759.69 448.982 1781.65C427.136 1801.34 343.212 1759.54 343.212 1759.54L309.256 1790.44" stroke="black" stroke-width="15.3741" stroke-miterlimit="1.5" stroke-linecap="round" stroke-linejoin="round"/>
<path fill-rule="evenodd" clip-rule="evenodd" d="M1919.44 1147.2C1903.61 1127.72 1834.88 1142.36 1834.88 1142.36C1834.88 1142.36 1842.96 1037.81 1807.19 1014.59C1789.02 1002.79 1730.83 1003.63 1678.35 1011.35C1625.74 1019.07 1547.76 1035.67 1552.67 1051.34C1557.18 1065.74 1594.83 1064.69 1608.04 1081.77C1637.46 1119.76 1715.85 1098.44 1715.85 1098.44L1738.04 1360.34C1738.04 1360.34 1680.58 1430.58 1616.71 1436.58C1544.11 1443.39 1490.29 1399.49 1450.33 1415.77C1439.82 1420.05 1384.78 1428.07 1382.63 1439.21C1380.01 1452.74 1421.54 1468.5 1432.65 1484.09C1449.73 1508.08 1459.37 1532.33 1470.88 1536.05C1502.8 1546.39 1638.54 1546.54 1638.54 1546.54C1663.03 1584.06 1699.47 1613.93 1759.54 1628.66C1751.49 1633.74 1820.74 1757.93 1854.76 1765.49C1889.62 1773.24 1932.39 1770.79 1960.09 1746.52C1991.54 1718.97 2043.45 1600.16 2043.45 1600.16C2043.45 1600.16 2084.31 1438.49 2080.35 1398.78C2077.34 1368.37 2053.38 1369.11 2041.71 1339C2033.2 1317.03 2033.93 1303.61 2027.24 1288.14C2016.23 1262.64 1983.03 1268.2 1969.79 1239.97C1950.77 1199.39 1931.77 1162.36 1919.44 1147.2Z" fill="#994662" stroke="black" stroke-width="22.9159" stroke-miterlimit="1.5" stroke-linecap="round" stroke-linejoin="round"/>
<path fill-rule="evenodd" clip-rule="evenodd" d="M1902.12 1132.94C1883.27 1131.49 1783.2 1129.36 1743.63 1139.18C1690.76 1152.29 1604.91 1196.15 1599.23 1209.15C1592.4 1224.85 1552.02 1261.48 1561.02 1264.31C1568.24 1266.58 1624.31 1262.19 1648.21 1262.35C1699.19 1262.7 1769.04 1242.55 1779.24 1239.7C1826.12 1226.62 1868.83 1222.87 1868.83 1222.87" fill="#994662"/>
<path d="M1902.12 1132.94C1883.27 1131.49 1783.2 1129.36 1743.63 1139.18C1690.76 1152.29 1604.91 1196.15 1599.23 1209.15C1592.4 1224.85 1552.02 1261.48 1561.02 1264.31C1568.24 1266.58 1624.31 1262.19 1648.21 1262.35C1699.19 1262.7 1769.04 1242.55 1779.24 1239.7C1826.12 1226.62 1868.83 1222.87 1868.83 1222.87" stroke="black" stroke-width="15.247" stroke-miterlimit="1.5" stroke-linecap="round" stroke-linejoin="round"/>
<path fill-rule="evenodd" clip-rule="evenodd" d="M1948.46 1241.66L1883.5 1218.52C1883.5 1218.52 1700.3 1287.88 1685.4 1315.86C1678.34 1329.12 1620.63 1361.83 1635.6 1377.76C1644.05 1386.74 1685.87 1377.85 1709.28 1381.39C1731.88 1384.82 1752.06 1396.11 1760.91 1396.51C1795.16 1398.02 1922.72 1314.65 1922.72 1314.65L1970.03 1339.32C1970.03 1339.32 1937.52 1318.97 1918.98 1333.99C1881.19 1364.58 1822.64 1433.89 1811.3 1454.42C1800.64 1473.76 1781.53 1536.11 1796.83 1546.67C1804.29 1551.8 1840.73 1511.15 1850.21 1511.72C1879.11 1513.45 1968.28 1441.49 1968.28 1441.49L1994.1 1460.38" fill="#994662"/>
<path d="M1948.46 1241.66L1883.5 1218.52C1883.5 1218.52 1700.3 1287.88 1685.4 1315.86C1678.34 1329.12 1620.63 1361.83 1635.6 1377.76C1644.05 1386.74 1685.87 1377.85 1709.28 1381.39C1731.88 1384.82 1752.06 1396.11 1760.91 1396.51C1795.16 1398.02 1922.72 1314.65 1922.72 1314.65L1970.03 1339.32C1970.03 1339.32 1937.52 1318.97 1918.98 1333.99C1881.19 1364.58 1822.64 1433.89 1811.3 1454.42C1800.64 1473.76 1781.53 1536.11 1796.83 1546.67C1804.29 1551.8 1840.73 1511.15 1850.21 1511.72C1879.11 1513.45 1968.28 1441.49 1968.28 1441.49L1994.1 1460.38" stroke="black" stroke-width="15.247" stroke-miterlimit="1.5" stroke-linecap="round" stroke-linejoin="round"/>
<path fill-rule="evenodd" clip-rule="evenodd" d="M1912.92 1759.53L1915.17 1627.07L1959.5 1574.21L2013.96 1474.32L1978.92 1420.38L1895.43 1474.99C1864.67 1489.34 1828.72 1457.45 1820.33 1431.41L1911.67 1322.83C1848.43 1340 1754.99 1371.89 1694.87 1300.1L1858.06 1220.88C1740.83 1238.55 1640.13 1243.84 1620.38 1187.8L1732.84 1129.41L1805.74 1121.11L1796.43 1049.37C1706.29 1065.53 1639.37 1069.92 1579.98 1044.59C1572.52 1076.97 1618.36 1104.74 1709.22 1107.77L1710.4 1130.83L1596.84 1202.94C1570.36 1280.07 1651.17 1276.47 1727.42 1255.76L1731.06 1278.61L1678.04 1310.1C1671.73 1359.84 1705.43 1389.13 1736 1393.89L1729.27 1425.7C1706.51 1453.85 1677.94 1461.08 1646.73 1458.79C1587.3 1502.22 1510.97 1490.62 1426.21 1451.62C1422.23 1578.58 1521.11 1556.2 1633.88 1554.77C1658.07 1593.86 1696.13 1620.33 1743.89 1638C1769.84 1690.61 1800.69 1743.48 1843.4 1770.62C1871.98 1779.4 1896.61 1779.04 1912.92 1759.53Z" fill="#8DCCB5" fill-opacity="0.5"/>
<path fill-rule="evenodd" clip-rule="evenodd" d="M390.531 2010.74C390.531 2010.74 464.836 2001.42 451.86 1951.57C436.177 1891.29 345.615 1878.05 345.615 1878.05C365.541 1845.87 357.5 1817.72 313.177 1794.8L349.572 1769.81L399.998 1780.29C399.998 1780.29 448.973 1763.36 446.615 1738.34C445.442 1725.91 432.219 1698.24 405.564 1676.81C378.509 1655.04 338.018 1639.59 338.018 1639.59L438.775 1637.41C438.775 1637.41 498.316 1618.9 506.918 1568.14C510.065 1549.61 416.799 1526.87 416.799 1526.87C416.799 1526.87 534.245 1467.46 538.075 1420.35C539.744 1399.79 418.668 1403.16 418.668 1403.16L396.916 1349.85L413.573 1309.29C475.286 1296.36 504.951 1279.29 527.359 1261.28C517.428 1294.41 481.876 1325.24 441.779 1335.93L448.61 1395.23L567.843 1394.96C567.843 1394.96 573.354 1438.5 532.595 1469.05C506.446 1488.67 423.13 1528.49 423.13 1528.49C423.13 1528.49 527.44 1527.13 533.184 1545.09C538.916 1563.05 515.3 1630.56 515.3 1630.56L607.197 1671.57C642.802 1686.77 691.619 1657.42 747.885 1617.42C765.809 1604.67 793.675 1603.76 814.262 1583.89L804.441 1634.18C763.999 1668.92 712.156 1694.95 655.237 1717.08C635.281 1776.13 607.31 1825.7 564.41 1857.62C559.595 1934.79 537.772 1992.96 496.903 2029.91C452.481 2035.59 414.08 2037.19 390.531 2010.74Z" fill="#8DCCB5" fill-opacity="0.5"/>
<path fill-rule="evenodd" clip-rule="evenodd" d="M1568.61 1538.85C1580.82 1511 1566.4 1445.21 1572.12 1426.03C1575.04 1416.2 1600.7 1413.77 1602.76 1423.79C1607.01 1444.38 1610.66 1517.85 1597.51 1549.46L1404.73 2815.07L1374.49 2809.54L1567.57 1542.23C1567.78 1541.06 1568.15 1539.93 1568.61 1538.85Z" fill="white" stroke="black" stroke-width="3.01256" stroke-miterlimit="2" stroke-linejoin="round"/>
<path fill-rule="evenodd" clip-rule="evenodd" d="M1687.21 1360L1710.57 1385.64L1307.72 2716.12C1306.12 2720.51 1302.62 2723.96 1298.16 2725.43L1014.36 2820.82C1008.52 2822.76 1002.13 2821.06 998.009 2816.52C993.921 2811.97 992.937 2805.39 995.488 2799.82L1601.72 1260C1610.57 1265.08 1620.47 1268.12 1630.86 1270.18L1038.28 2780.33L1281.34 2698.66L1687.21 1360Z" fill="white" stroke="black" stroke-width="3.01256" stroke-miterlimit="2" stroke-linejoin="round"/>
<path fill-rule="evenodd" clip-rule="evenodd" d="M1752.44 1267.11L1709.4 1286.72L1726.52 1250.29C1727.51 1248.29 1728.92 1246.57 1730.64 1245.19L1763.9 1218.66C1764.58 1203.41 1758.37 1191.05 1751.58 1179.43C1745.15 1168.43 1726.09 1143.13 1726.59 1133.26C1727.05 1123.42 1746.08 1114.48 1754.47 1120.35C1763.87 1126.93 1775.99 1159.21 1782.96 1172.7C1791.48 1189.09 1797.04 1207.13 1793.75 1228.96C1793.17 1232.77 1791.17 1236.24 1788.16 1238.67L1752.44 1267.11Z" fill="white" stroke="black" stroke-width="3.01256" stroke-miterlimit="2" stroke-linejoin="round"/>
<path fill-rule="evenodd" clip-rule="evenodd" d="M1682.6 1153.89L1640.51 1171.22L1654.07 1142.45C1667.26 1109.53 1678.39 1107.65 1721.73 1068.64C1723.57 1058.47 1701.53 1004.06 1704.15 991.701C1706.27 981.679 1729.38 976.423 1734.24 985.43C1741.43 998.771 1754.99 1064.28 1750.47 1080.85C1749.7 1083.68 1748.14 1086.23 1745.98 1088.19C1728.46 1104.12 1716.1 1113.74 1706.79 1121.61C1695.11 1131.45 1689.02 1137.87 1682.6 1153.89Z" fill="white" stroke="black" stroke-width="3.01256" stroke-miterlimit="2" stroke-linejoin="round"/>
<path fill-rule="evenodd" clip-rule="evenodd" d="M1924.89 1443.22C1919.82 1405.74 1870.45 1394 1862.95 1379.06C1858.37 1369.87 1874.51 1351.09 1879.92 1353.42C1897.29 1360.86 1951.02 1389.64 1955.91 1444.08C1956.12 1446.54 1955.76 1449.03 1954.8 1451.33L1483.43 2808.86C1481.19 2814.24 1476.14 2817.9 1470.37 2818.33L1197.42 2838.74C1191.89 2839.17 1186.54 2836.56 1183.47 2831.92C1180.39 2827.31 1180.05 2821.37 1182.6 2816.42L1811.12 1366.37C1821.3 1333.5 1813.58 1313.31 1805.04 1296.28C1800.46 1287.21 1781.67 1259.33 1783.43 1250.75C1785.21 1242.21 1808.05 1230.4 1812.14 1239.81C1820.99 1259.94 1859.51 1316.01 1840.05 1376.91C1839.77 1377.71 1839.47 1378.48 1839.07 1379.22L1222.44 2806.03L1458.65 2788.36L1924.89 1443.22Z" fill="white" stroke="black" stroke-width="3.01256" stroke-miterlimit="2" stroke-linejoin="round"/>
<path fill-rule="evenodd" clip-rule="evenodd" d="M687.156 1577.98C686.883 1567.29 708.174 1550.84 713.716 1559.97C723.193 1575.62 726.984 1637.19 744.02 1671.86C819.623 1825.75 1182.82 2735.88 1182.82 2735.88C1184.88 2739.85 1185.13 2744.52 1183.47 2748.67C1181.81 2752.82 1178.42 2756.05 1174.21 2757.52L957.524 2800.01C949.716 2802.68 941.17 2798.72 938.188 2791L563.35 1587.08L590.973 1573.28L961.52 2766.13L1147.32 2734.25C1147.32 2734.25 791.031 1836.6 716.916 1685.97C700.43 1652.47 687.688 1598.98 687.156 1577.98Z" fill="white" stroke="black" stroke-width="3.01256" stroke-miterlimit="2" stroke-linejoin="round"/>
<path fill-rule="evenodd" clip-rule="evenodd" d="M577.044 1541.49L540.964 1529.17L525.886 1490.16L551.598 1471.41L577.044 1541.49Z" fill="white" stroke="black" stroke-width="3.01256" stroke-miterlimit="2" stroke-linejoin="round"/>
<path fill-rule="evenodd" clip-rule="evenodd" d="M514.955 1382.87L476.606 1389.54L457.553 1361.35C457.553 1361.35 435.156 1352.93 428.178 1343.96C414.394 1326.19 380.165 1275.07 375.673 1257.57C373.125 1247.65 394.4 1234.98 402.052 1241.81C414.837 1253.18 438.036 1306.08 451.55 1323.14C458.949 1332.46 482.312 1341.31 482.312 1341.31L514.955 1382.87Z" fill="white" stroke="black" stroke-width="3.01256" stroke-miterlimit="2" stroke-linejoin="round"/>
<path fill-rule="evenodd" clip-rule="evenodd" d="M483.622 1648.84C493.76 1647.7 502.893 1642.81 511.371 1635.5L897.673 2795.06C899.886 2800.38 898.933 2806.49 895.214 2810.89C891.494 2815.32 885.623 2817.25 880.028 2815.96L787.853 2794.72C783.064 2793.61 779.092 2790.26 777.168 2785.74L451.873 1788.95C460.45 1784.22 468.654 1777.64 476.143 1767.5L802.381 2766.5L857.772 2779.29L483.622 1648.84Z" fill="white" stroke="black" stroke-width="3.01256" stroke-miterlimit="2" stroke-linejoin="round"/>
<path fill-rule="evenodd" clip-rule="evenodd" d="M472.816 1514.07L436.066 1514.84C436.066 1514.84 371.914 1431.2 363.795 1410.29C360.085 1400.73 381.788 1385.79 389.15 1392.92C407.619 1410.78 472.816 1514.07 472.816 1514.07Z" fill="white" stroke="black" stroke-width="3.01256" stroke-miterlimit="2" stroke-linejoin="round"/>
<path fill-rule="evenodd" clip-rule="evenodd" d="M449.988 1693.23L405.817 1669.13L374.73 1623.48C372.114 1618.87 371.496 1555.6 374.026 1537.87C375.861 1525.02 382.636 1505.74 389.765 1502.24C396.894 1498.77 413.512 1512.2 416.798 1516.87C419.737 1521.08 410.054 1525.29 409.479 1530.4C407.625 1546.87 405.67 1615.7 405.67 1615.7L449.988 1693.23Z" fill="white" stroke="black" stroke-width="3.01256" stroke-miterlimit="2" stroke-linejoin="round"/>
<path fill-rule="evenodd" clip-rule="evenodd" d="M366.799 1653.42C371.637 1644.38 392.449 1655.6 397.017 1659.08C401.099 1662.15 380.066 1749.79 380.066 1749.79L679.8 2702.38L651.427 2714.21L349.928 1757.42C348.779 1754.65 348.459 1751.61 349.006 1748.65C349.006 1748.65 358.797 1668.36 366.799 1653.42Z" fill="white" stroke="black" stroke-width="3.01256" stroke-miterlimit="2" stroke-linejoin="round"/>
</g>
<path fill-rule="evenodd" clip-rule="evenodd" d="M1076.55 567.691C1319.08 567.691 1867.97 773.268 1965.27 1079.23C2002.43 1196.11 1683.85 1333.01 1683.85 1470.78C1683.85 1609.16 1669.64 1742.34 1638.31 1861.45C1612.2 1960.73 1474.68 2038.61 1423.1 2113.22C1375.33 2182.33 1415.12 2250.19 1349.3 2291.62C1264.36 2345.07 1169.26 2373.87 1076.55 2373.87C980.372 2373.87 889.392 2340.55 808.535 2281.26C752.758 2240.36 781.237 2181.33 736.726 2118.12C685.695 2045.65 563.692 1965.87 532.04 1870.87C491.849 1750.25 469.252 1614.41 469.252 1470.78C469.252 1377.83 171.117 1191.55 188.687 1107.14C265.336 738.906 803.875 567.691 1076.55 567.691ZM1079.83 638.726C795.225 638.726 564.161 901.889 564.161 1226.03C564.161 1550.18 795.225 1813.34 1079.83 1813.34C1364.44 1813.34 1595.51 1550.18 1595.51 1226.03C1595.51 901.889 1364.44 638.726 1079.83 638.726Z" fill="#EFE313" stroke="#7EED56" stroke-width="16.178" stroke-miterlimit="1.5" stroke-linecap="round" stroke-linejoin="round"/>
<path fill-rule="evenodd" clip-rule="evenodd" d="M1078.81 598.358C1384.82 598.358 1620.11 874.783 1620.11 1222.09C1620.11 1569.39 1385.59 1899.36 1079.58 1899.36C773.576 1899.36 535.472 1575.34 535.472 1228.03C535.472 880.726 772.807 598.358 1078.81 598.358ZM1078.81 630.255C789.233 630.255 555.201 898.024 555.201 1226.69C555.201 1555.36 789.233 1823.13 1078.81 1823.13C1368.39 1823.13 1602.42 1555.36 1602.42 1226.69C1602.42 898.024 1368.39 630.255 1078.81 630.255Z" fill="#F2E83A" stroke="#7EED56" stroke-width="7.00056" stroke-miterlimit="2" stroke-linejoin="round"/>
<path d="M1073.13 1909.41C1381.39 1909.41 1631.28 1621.24 1631.28 1265.77C1631.28 910.3 1381.39 622.135 1073.13 622.135C764.864 622.135 514.969 910.3 514.969 1265.77C514.969 1621.24 764.864 1909.41 1073.13 1909.41Z" fill="#F2E83A"/>
<path fill-rule="evenodd" clip-rule="evenodd" d="M1073.13 622.131C1381.18 622.131 1631.28 910.531 1631.28 1265.77C1631.28 1621 1381.18 1909.4 1073.13 1909.4C765.07 1909.4 514.968 1621 514.968 1265.77C514.968 910.531 765.07 622.131 1073.13 622.131ZM1073.13 716.131C812.995 716.131 608.968 965.8 608.968 1265.77C608.968 1565.73 812.995 1815.4 1073.13 1815.4C1333.26 1815.4 1537.28 1565.73 1537.28 1265.77C1537.28 965.8 1333.26 716.131 1073.13 716.131Z" fill="#FF050B"/>
<path fill-rule="evenodd" clip-rule="evenodd" d="M1098.63 1365.28C1048.56 1376.69 941.401 1388.36 889.984 1392.94L938.4 1300.74C1077.83 1288.31 1213.73 1250.65 1334.03 1151.12L1289.1 1019.03C1231.79 1001.9 1158.97 1009.86 1086.38 1027.71C976.406 1054.76 866.608 1106.6 805.932 1148.37L846.714 1238.18L756.221 1306.47L705.106 1152.41C696.919 1133.68 701.771 1111.81 717.108 1098.31C773.283 1048.84 917.985 972.329 1063.92 936.429C1166.38 911.229 1269.19 906.959 1344.86 939.379C1357.11 944.629 1366.55 954.829 1370.84 967.449L1433.17 1150.69C1439.17 1168.33 1434.18 1187.86 1420.45 1200.46C1347.98 1266.93 1270.11 1310.51 1188.97 1339.26L1220.36 1421.59L1126.95 1519.34L1098.63 1365.28ZM1160.11 1631.88L1134.57 1555.18L1237.34 1453.55L1287.89 1592.59L1160.11 1631.88Z" fill="#FF050B"/>
<path fill-rule="evenodd" clip-rule="evenodd" d="M1076.86 507.965C1338.64 507.965 1931.09 729.858 2036.11 1060.1C2076.22 1186.26 1732.36 1334.02 1732.36 1482.73C1732.36 1632.09 1717.02 1775.84 1683.21 1904.4C1655.02 2011.57 1506.59 2095.63 1450.91 2176.16C1399.35 2250.75 1442.3 2324 1371.25 2368.71C1279.57 2426.4 1176.93 2457.49 1076.86 2457.49C973.045 2457.49 874.845 2421.53 787.57 2357.53C727.367 2313.38 758.106 2249.67 710.063 2181.44C654.982 2103.22 523.296 2017.11 489.132 1914.57C445.751 1784.38 421.361 1637.76 421.361 1482.73C421.361 1382.41 99.5639 1181.34 118.528 1090.23C201.261 692.768 782.541 507.965 1076.86 507.965Z" stroke="#7EED56" stroke-width="17.462" stroke-miterlimit="1.5" stroke-linecap="round" stroke-linejoin="round"/>
<path fill-rule="evenodd" clip-rule="evenodd" d="M2390.71 -314.337V3049.82H-226.699V-314.337H2390.71ZM1092.97 -72.0759L1064.27 402.478L1035.57 -72.0759L920.594 -61.8929L949.295 412.661L863.802 -51.7789L751.281 -21.4469L836.774 442.993L606.343 -259.523L498.671 -209.689L729.102 492.828L446.695 -180.204L346.166 -111.929L628.573 561.103L298.292 -73.5999L129.97 -74.1999L457.67 473.547L26.2348 -87.1049L-63.5952 69.4751L278.635 518.059L-95.9142 153.498L-105.274 374.387L187.424 670.631L-50.3352 524.236L-12.1582 766.746L129.824 882.2L-34.6092 830.679L-71.8302 962.71L300.31 1116.34L-86.3502 1029.92L-107.289 1167.1L129.751 1231.84L-113.567 1236.15L-117.777 1375.56L275.161 1392.93L-115.681 1444.98L-103.072 1583.64L194.066 1554.44L-92.6462 1651.95L-63.4882 1786.92L316.927 1666.57L-44.9532 1852.66L0.132782 1981.06L362.013 1794.96L-106.263 2171.08L-45.2132 2281.86L302.449 2020.18L-2.15021 2330.53L-73.5702 2533.93L323.559 2239.85L-86.2412 2690.28L36.7948 2831.99L581.664 2114.36L199.305 2772.45L314.106 2794.04L617.157 2318.3L494.735 2715.57L615.289 2681.38L782.186 2250.54L668.905 2706.19L779.296 2746.38L884.186 2425.49L835.326 2761.49L949.377 2781.8L1006.63 2311.05V2786.87H1121.91L1136.16 2459.78L1179.16 2781.8L1293.21 2761.49L1264.43 2417.72L1349.24 2746.38L1459.63 2706.19L1396.2 2448.37L1513.25 2681.38L1641.11 2754.65L1484.88 2309.33L1729.35 2750.85L1863.04 2754.42L1546.87 2114.36L1962.97 2696.85L2203.88 2774.96L1691.03 2082.35L2209.59 2573.01L2248.56 2455.69L1706.47 1914.04L2224.26 2313.35L2271 2148.17L1850.54 1854.26L2128.4 1981.06L2173.49 1852.66L1811.61 1666.57L2192.02 1786.92L2221.18 1651.95L1901.41 1542.65L2231.61 1583.64L2244.21 1444.98L1853.37 1392.93L2246.31 1375.56L2242.1 1236.15L1849.16 1253.53L2235.82 1167.1L2214.88 1029.92L1828.22 1116.34L2200.36 962.71L2163.14 830.679L1791 984.313L2140.69 766.746L2247.05 578.706L1930.18 678.689L2248.48 466.76L2215.96 299.89L1710.12 630.831L2216.44 172.605L2252.84 -83.6039L1819.29 326.959L2219.83 -203.362L1905.11 -62.0019L1688.09 215.549L1807.4 -35.2019L1688.57 -79.6159L1477.06 292.963L1582.34 -45.7329L1432.22 -1.4339L1365.88 290.185L1377.25 -21.4469L1264.73 -51.7789L1209.22 196.602L1207.94 -61.8929L1092.97 -72.0759Z" fill="#FF050B" fill-opacity="0.12"/>
<path fill-rule="evenodd" clip-rule="evenodd" d="M2390.71 -314.337V3049.82H-226.699V-314.337H2390.71ZM2383.71 -307.337H-219.699V3042.82H2383.71V-307.337ZM1093.59 -79.0489L1208.56 -68.8659C1212.16 -68.5469 1214.92 -65.5409 1214.94 -61.9279L1215.91 134.562L1257.9 -53.3059C1258.32 -55.1689 1259.48 -56.7809 1261.11 -57.7689C1262.74 -58.7569 1264.71 -59.0349 1266.55 -58.5379L1379.08 -28.2059C1382.22 -27.3569 1384.37 -24.4489 1384.25 -21.1919L1375.6 215.927L1425.4 -2.98691C1425.96 -5.45691 1427.81 -7.43091 1430.24 -8.14792L1580.36 -52.4469C1582.83 -53.1769 1585.51 -52.4859 1587.32 -50.6469C1589.13 -48.8079 1589.79 -46.1209 1589.02 -43.6549L1503 233.086L1682.48 -83.0719C1684.18 -86.0629 1687.8 -87.3769 1691.02 -86.1729L1809.85 -41.7589C1811.69 -41.0719 1813.15 -39.6459 1813.89 -37.8279C1814.63 -36.0089 1814.57 -33.9659 1813.72 -32.1939L1721.71 161.194L1899.6 -66.3129C1900.3 -67.2089 1901.2 -67.9209 1902.24 -68.3869L2216.96 -209.747C2219.87 -211.057 2223.31 -210.225 2225.3 -207.725C2227.29 -205.226 2227.34 -201.694 2225.41 -199.143L1875.66 263.933L2248.02 -88.6869C2250.19 -90.7339 2253.41 -91.1899 2256.05 -89.8229C2258.7 -88.4569 2260.19 -85.5669 2259.77 -82.6199L2223.37 173.59C2223.14 175.209 2222.35 176.697 2221.14 177.795L1781.12 576.012L2212.13 294.033C2214.08 292.757 2216.53 292.535 2218.68 293.442C2220.83 294.348 2222.39 296.264 2222.83 298.552L2255.35 465.421C2255.89 468.194 2254.71 471.021 2252.36 472.586L1975.14 657.162L2244.94 572.03C2247.68 571.165 2250.68 572.065 2252.49 574.3C2254.3 576.534 2254.56 579.649 2253.14 582.152L2146.78 770.192C2146.21 771.212 2145.39 772.071 2144.39 772.69L1866.56 945.545L2160.47 824.208C2162.32 823.446 2164.4 823.509 2166.2 824.382C2168 825.256 2169.34 826.856 2169.88 828.779L2207.1 960.81C2208.07 964.228 2206.32 967.825 2203.03 969.18L1906.11 1091.76L2213.36 1023.09C2215.25 1022.66 2217.23 1023.04 2218.83 1024.14C2220.43 1025.23 2221.51 1026.94 2221.8 1028.86L2242.74 1166.04C2243.3 1169.68 2240.94 1173.13 2237.35 1173.93L1928.25 1243.02L2241.79 1229.15C2243.66 1229.07 2245.49 1229.74 2246.86 1231.02C2248.24 1232.29 2249.04 1234.06 2249.1 1235.94L2253.31 1375.35C2253.42 1379.17 2250.44 1382.38 2246.62 1382.55L1932.69 1396.43L2245.14 1438.04C2248.86 1438.53 2251.53 1441.87 2251.19 1445.61L2238.58 1584.28C2238.41 1586.16 2237.47 1587.9 2236 1589.09C2234.52 1590.28 2232.63 1590.82 2230.74 1590.59L1967.8 1557.95L2223.44 1645.33C2226.8 1646.48 2228.77 1649.96 2228.02 1653.43L2198.86 1788.4C2198.45 1790.32 2197.24 1791.99 2195.53 1792.97C2193.83 1793.96 2191.79 1794.19 2189.91 1793.59L1888.49 1698.23L2176.69 1846.44C2179.8 1848.04 2181.25 1851.68 2180.09 1854.98L2135.01 1983.37C2134.35 1985.23 2132.95 1986.73 2131.14 1987.5C2129.33 1988.27 2127.28 1988.24 2125.49 1987.42L1917.43 1892.48L2275.01 2142.44C2277.45 2144.14 2278.55 2147.21 2277.74 2150.08L2231 2315.26C2230.37 2317.49 2228.67 2319.27 2226.46 2320C2224.25 2320.73 2221.83 2320.31 2219.99 2318.89L1788.64 1986.24L2253.51 2450.74C2255.38 2452.61 2256.04 2455.38 2255.2 2457.89L2216.24 2575.21C2215.48 2577.49 2213.62 2579.21 2211.3 2579.8C2208.98 2580.38 2206.52 2579.74 2204.78 2578.09L1743.96 2142.06L2209.51 2770.8C2211.32 2773.24 2211.34 2776.58 2209.56 2779.05C2207.79 2781.52 2204.62 2782.56 2201.72 2781.62L1960.81 2703.5C1959.38 2703.04 1958.14 2702.13 1957.27 2700.91L1591.46 2188.82L1869.32 2751.32C1870.41 2753.52 1870.26 2756.13 1868.94 2758.19C1867.62 2760.26 1865.31 2761.48 1862.86 2761.42L1729.16 2757.85C1726.68 2757.78 1724.43 2756.41 1723.23 2754.24L1518.96 2385.34L1647.72 2752.33C1648.69 2755.09 1647.84 2758.16 1645.59 2760.03C1643.34 2761.9 1640.17 2762.18 1637.63 2760.72L1509.76 2687.45C1508.57 2686.77 1507.61 2685.75 1506.99 2684.52L1417.85 2507.06L1466.43 2704.52C1467.28 2707.99 1465.38 2711.55 1462.02 2712.77L1351.63 2752.96C1349.78 2753.64 1347.72 2753.5 1345.98 2752.58C1344.23 2751.66 1342.95 2750.04 1342.46 2748.13L1278.3 2499.49L1300.18 2760.9C1300.48 2764.51 1297.99 2767.74 1294.43 2768.38L1180.38 2788.69C1178.5 2789.03 1176.57 2788.58 1175.03 2787.45C1173.49 2786.33 1172.47 2784.62 1172.22 2782.72L1139.71 2539.22L1128.9 2787.17C1128.74 2790.92 1125.65 2793.87 1121.91 2793.87H1006.63C1002.76 2793.87 999.627 2790.74 999.627 2786.87V2426.59L956.326 2782.64C956.093 2784.55 955.086 2786.28 953.539 2787.43C951.992 2788.57 950.043 2789.03 948.15 2788.69L834.099 2768.38C830.378 2767.72 827.855 2764.22 828.399 2760.48L865.542 2505.06L785.95 2748.56C785.36 2750.36 784.065 2751.85 782.359 2752.68C780.653 2753.51 778.684 2753.61 776.901 2752.96L666.51 2712.77C663.146 2711.55 661.248 2707.98 662.112 2704.5L748.6 2356.62L621.816 2683.91C621.023 2685.95 619.313 2687.51 617.199 2688.11L496.646 2722.31C494.177 2723.01 491.524 2722.3 489.73 2720.47C487.936 2718.63 487.29 2715.96 488.046 2713.51L595.191 2365.81L320.01 2797.8C318.473 2800.21 315.624 2801.44 312.813 2800.91L198.012 2779.33C195.778 2778.91 193.887 2777.43 192.941 2775.37C191.994 2773.3 192.111 2770.9 193.253 2768.93L518.531 2209.08L42.3708 2836.22C41.0958 2837.9 39.1318 2838.92 37.0248 2838.99C34.9178 2839.06 32.8918 2838.17 31.5098 2836.58L-91.5272 2694.87C-93.8532 2692.19 -93.8072 2688.19 -91.4192 2685.57L270.265 2288.02L-69.4042 2539.56C-71.8752 2541.39 -75.2512 2541.39 -77.7252 2539.56C-80.1992 2537.74 -81.1932 2534.51 -80.1742 2531.61L-8.75522 2328.22C-8.41422 2327.25 -7.8652 2326.37 -7.14621 2325.63L231.996 2081.97L-41.0032 2287.45C-42.6242 2288.68 -44.6942 2289.13 -46.6782 2288.71C-48.6622 2288.28 -50.3642 2287.02 -51.3432 2285.24L-112.394 2174.45C-114.036 2171.48 -113.299 2167.75 -110.647 2165.62L303.699 1832.82L3.33379 1987.28C1.53378 1988.21 -0.578201 1988.31 -2.45821 1987.56C-4.33821 1986.81 -5.80121 1985.28 -6.47221 1983.37L-51.5582 1854.98C-52.7162 1851.68 -51.2642 1848.04 -48.1552 1846.44L240.046 1698.23L-61.3772 1793.59C-63.2552 1794.19 -65.2972 1793.96 -67.0012 1792.97C-68.7062 1791.99 -69.9142 1790.32 -70.3302 1788.4L-99.4882 1653.43C-100.239 1649.96 -98.2662 1646.47 -94.9002 1645.33L134.406 1567.34L-102.388 1590.61C-104.244 1590.79 -106.097 1590.23 -107.534 1589.04C-108.971 1587.85 -109.875 1586.13 -110.044 1584.28L-122.652 1445.61C-122.992 1441.87 -120.324 1438.53 -116.605 1438.04L195.847 1396.43L-118.086 1382.55C-121.91 1382.38 -124.89 1379.17 -124.774 1375.35L-120.564 1235.94C-120.451 1232.2 -117.426 1229.21 -113.691 1229.15L80.7278 1225.7L-109.133 1173.85C-112.562 1172.91 -114.745 1169.56 -114.209 1166.04L-93.2702 1028.86C-92.9772 1026.94 -91.9022 1025.23 -90.3012 1024.14C-88.6992 1023.04 -86.7162 1022.66 -84.8232 1023.09L222.42 1091.76L-74.5022 969.18C-77.7842 967.825 -79.5312 964.228 -78.5682 960.81L-41.3472 828.779C-40.8332 826.959 -39.6052 825.423 -37.9422 824.523C-36.2782 823.622 -34.3212 823.433 -32.5162 823.999L97.0968 864.61L-16.5752 772.177C-17.9152 771.088 -18.8052 769.541 -19.0732 767.835L-57.2502 525.325C-57.6752 522.625 -56.4892 519.925 -54.2152 518.41C-51.9402 516.895 -48.9922 516.843 -46.6652 518.276L141.559 634.17L-110.254 379.306C-111.62 377.923 -112.35 376.033 -112.268 374.09L-102.908 153.201C-102.791 150.444 -101.065 148.012 -98.4992 146.993C-95.9342 145.973 -93.0102 146.556 -91.0322 148.481L215.484 446.824L-69.1612 73.7211C-70.8692 71.4811 -71.0692 68.4351 -69.6672 65.9911L20.1628 -90.5879C21.3278 -92.6179 23.4288 -93.9309 25.7628 -94.0889C28.0968 -94.2469 30.3558 -93.2279 31.7828 -91.3739L390.16 374.339L123.963 -70.6059C122.667 -72.7719 122.638 -75.4689 123.887 -77.6629C125.136 -79.8569 127.47 -81.2089 129.995 -81.1999L298.317 -80.5999C300.918 -80.5899 303.3 -79.1389 304.501 -76.8309L556.512 407.459L339.711 -109.22C338.422 -112.292 339.477 -115.847 342.233 -117.719L442.762 -185.994C444.499 -187.174 446.674 -187.512 448.686 -186.914C450.699 -186.317 452.337 -184.848 453.15 -182.912L668.17 329.522L492.02 -207.507C490.913 -210.881 492.508 -214.55 495.731 -216.041L603.403 -265.876C605.217 -266.715 607.302 -266.74 609.135 -265.943C610.967 -265.146 612.372 -263.604 612.995 -261.705L811.132 342.356L744.396 -20.1799C743.736 -23.7649 745.939 -27.2569 749.459 -28.2059L861.98 -58.5379C863.868 -59.0469 865.882 -58.7429 867.536 -57.6999C869.19 -56.6569 870.332 -54.9689 870.686 -53.0459L935.368 298.335L913.606 -61.4709C913.378 -65.2539 916.201 -68.5319 919.976 -68.8659L1034.95 -79.0489C1036.83 -79.2159 1038.7 -78.6139 1040.13 -77.3799C1041.57 -76.1469 1042.44 -74.3859 1042.55 -72.4989L1064.27 286.529L1085.98 -72.4989C1086.1 -74.3859 1086.97 -76.1469 1088.4 -77.3799C1089.83 -78.6139 1091.7 -79.2159 1093.59 -79.0489ZM1092.97 -72.0759L1064.27 402.478L1035.57 -72.0759L920.594 -61.8929L949.295 412.661L863.802 -51.7789L751.281 -21.4469L836.774 442.993L606.343 -259.523L498.671 -209.689L729.102 492.828L446.695 -180.204L346.166 -111.929L628.573 561.103L298.292 -73.5999L129.97 -74.1999L457.67 473.547L26.2348 -87.1049L-63.5952 69.4751L278.635 518.059L-95.9142 153.498L-105.274 374.387L187.424 670.631L-50.3352 524.236L-12.1582 766.746L129.824 882.2L-34.6092 830.679L-71.8302 962.71L300.31 1116.34L-86.3502 1029.92L-107.289 1167.1L129.751 1231.84L-113.567 1236.15L-117.777 1375.56L275.161 1392.93L-115.681 1444.98L-103.072 1583.64L194.066 1554.44L-92.6462 1651.95L-63.4882 1786.92L316.927 1666.57L-44.9532 1852.66L0.132782 1981.06L362.013 1794.96L-106.263 2171.08L-45.2132 2281.86L302.449 2020.18L-2.15021 2330.53L-73.5702 2533.93L323.559 2239.85L-86.2412 2690.28L36.7948 2831.99L581.664 2114.36L199.305 2772.45L314.106 2794.04L617.157 2318.3L494.735 2715.57L615.289 2681.38L782.186 2250.54L668.905 2706.19L779.296 2746.38L884.186 2425.49L835.326 2761.49L949.377 2781.8L1006.63 2311.05V2786.87H1121.91L1136.16 2459.78L1179.16 2781.8L1293.21 2761.49L1264.43 2417.72L1349.24 2746.38L1459.63 2706.19L1396.2 2448.37L1513.25 2681.38L1641.11 2754.65L1484.88 2309.33L1729.35 2750.85L1863.04 2754.42L1546.87 2114.36L1962.97 2696.85L2203.88 2774.96L1691.03 2082.35L2209.59 2573.01L2248.56 2455.69L1706.47 1914.04L2224.26 2313.35L2271 2148.17L1850.54 1854.26L2128.4 1981.06L2173.49 1852.66L1811.61 1666.57L2192.02 1786.92L2221.18 1651.95L1901.41 1542.65L2231.61 1583.64L2244.21 1444.98L1853.37 1392.93L2246.31 1375.56L2242.1 1236.15L1849.16 1253.53L2235.82 1167.1L2214.88 1029.92L1828.22 1116.34L2200.36 962.71L2163.14 830.679L1791 984.313L2140.69 766.746L2247.05 578.706L1930.18 678.689L2248.48 466.76L2215.96 299.89L1710.12 630.831L2216.44 172.605L2252.84 -83.6039L1819.29 326.959L2219.83 -203.362L1905.11 -62.0019L1688.09 215.549L1807.4 -35.2019L1688.57 -79.6159L1477.06 292.963L1582.34 -45.7329L1432.22 -1.4339L1365.88 290.185L1377.25 -21.4469L1264.73 -51.7789L1209.22 196.602L1207.94 -61.8929L1092.97 -72.0759Z" fill="white" fill-opacity="0.62"/>
<path fill-rule="evenodd" clip-rule="evenodd" d="M149.978 281.205L111.934 303.804L52.8094 287.047C52.8094 287.047 224.987 152.227 224.985 152.227C162.625 167.834 66.2464 172.932 19.0854 144.263L77.4284 93.3084C112.145 103.198 151.394 107.17 194.825 105.842C185.078 101.85 177.77 95.8814 172.247 88.6834C161.956 75.2734 158.003 55.9424 159.845 33.0134L207.691 36.8574C206.693 49.2814 205.535 60.6584 217.798 62.6794L210.804 105.127C237.773 103.547 266.268 100.044 296.209 94.7564C306.827 92.8804 317.392 98.3164 322.039 108.044C326.687 117.773 324.276 129.407 316.145 136.488L205.593 232.769C231.611 253.757 261.282 267.462 295.981 271.134L290.929 318.867C256.328 315.206 225.563 303.894 197.933 286.329L212.423 480.486L142.284 550.76L149.978 281.205ZM364.608 159.418L361.21 119.578L366.087 119.162L366.235 115.122L399.242 116.334L552.962 103.223C560.136 102.611 567.206 105.252 572.221 110.418C577.237 115.584 579.668 122.728 578.844 129.881L567.08 232.078C566.349 238.427 563.115 244.223 558.096 248.18C553.077 252.137 546.687 253.929 540.343 253.158L376.079 233.201L377.931 217.957L362.48 217.39L364.608 159.418ZM411.549 189.158L522.157 202.595L527.803 153.543L412.495 163.378L411.549 189.158ZM374.55 486.275C377.025 495.83 379.819 505.305 382.927 514.7L330.273 541.148C303.548 460.342 304.707 362.825 322.871 270.544L351.374 276.155L351.426 275.275C434.478 280.204 522.474 279.303 614.762 273.366C622.189 272.889 629.417 275.883 634.33 281.473C639.243 287.062 641.285 294.615 639.858 301.918L596.178 539.921L548.188 504.984C548.188 504.984 551.786 502.404 555.215 484.848L374.55 486.275ZM363.216 323.998C358.966 363.349 359.636 401.44 364.93 438.349L454.419 438.521L447.001 396.447L411.64 396.822L378.327 365.993L440.53 366.347L432.827 327.861L492.586 356.215L492.454 364.427L564.685 362.828L528.136 391.649L491.713 393.267L491.359 437.351L564.607 436.773C574.954 383.807 586.816 323.084 586.816 323.084C509.061 327.181 434.4 327.631 363.216 323.998ZM334.094 88.8974L291.083 36.6144C365.178 48.8394 541.235 44.7284 629.181 23.4624L596.153 82.2024C501.366 95.2644 413.807 102.049 334.094 88.8974Z" fill="white"/>
<path fill-rule="evenodd" clip-rule="evenodd" d="M155.488 90.5063C146.714 75.2113 143.019 55.1383 144.894 31.8123C145.557 23.5543 152.789 17.3983 161.047 18.0613L208.892 21.9053C217.15 22.5693 223.306 29.8003 222.643 38.0583C222.392 41.1863 222.351 45.8583 222.35 48.3843C229.34 50.6003 233.826 57.6703 232.598 65.1183L228.703 88.7593C249.48 86.9013 271.124 83.9543 293.6 79.9843C298.257 79.1623 302.908 79.2053 307.365 80.0173L279.499 46.1443C275.529 41.3183 274.967 34.5373 278.088 29.1233C281.209 23.7093 287.359 20.7973 293.525 21.8143C366.312 33.8233 539.261 29.7733 625.655 8.88227C631.457 7.47927 637.538 9.65027 641.141 14.4093C644.743 19.1683 645.181 25.6113 642.256 30.8143L609.228 89.5543C606.929 93.6433 602.849 96.4213 598.201 97.0623C592.853 97.7993 587.528 98.5163 582.226 99.2103C582.481 99.4593 582.734 99.7123 582.983 99.9693C591.133 108.363 595.084 119.973 593.746 131.596L581.981 233.793C580.794 244.111 575.539 253.529 567.383 259.959C566.914 260.33 566.436 260.688 565.952 261.035C581.768 260.313 597.718 259.432 613.8 258.397C625.868 257.621 637.613 262.487 645.596 271.57C653.558 280.628 656.88 292.857 654.599 304.694L610.931 542.629C610.001 547.7 606.53 551.938 601.742 553.851C596.953 555.764 591.518 555.083 587.349 552.048L539.36 517.111C535.467 514.277 533.171 509.747 533.188 504.931C533.194 503.235 533.487 501.576 534.035 500.016L394.338 501.119C395.249 504.084 396.193 507.041 397.168 509.99C399.504 517.055 396.309 524.764 389.659 528.104L337.006 554.552C333.111 556.509 328.557 556.674 324.53 555.005C320.503 553.335 317.401 549.997 316.032 545.858C294.702 481.363 290.486 406.518 298.405 331.873C295.757 333.398 292.621 334.13 289.351 333.784C262.487 330.941 237.785 323.79 214.958 312.897L227.381 479.37C227.706 483.72 226.121 487.995 223.04 491.083L152.9 561.356C148.558 565.707 141.999 566.968 136.353 564.538C130.706 562.107 127.114 556.477 127.29 550.332L134.206 308.02L119.595 316.7C116.054 318.803 111.805 319.358 107.844 318.235L48.7193 301.479C43.2873 299.939 39.1803 295.48 38.0913 289.94C37.0023 284.4 39.1163 278.718 43.5613 275.237C43.5613 275.237 117.813 217.096 168.794 177.176C143.709 179.861 117.429 180.709 92.8773 178.906C60.9363 176.56 31.8683 169.587 11.2933 157.08C7.20729 154.596 4.55029 150.313 4.14029 145.549C3.73029 140.784 5.61629 136.11 9.21829 132.965L67.5613 82.0103C71.3893 78.6663 76.6503 77.4893 81.5383 78.8823C104.21 85.3413 128.897 89.1373 155.488 90.5063ZM309.279 264.191C312.127 258.085 318.86 254.467 325.768 255.827L349.199 260.439C350.21 260.288 351.253 260.239 352.315 260.302C399.424 263.097 448.135 264.001 498.327 263.164L374.27 248.092C366.359 247.131 360.638 240.175 361.104 232.327C353.225 231.608 347.196 224.841 347.49 216.839L349.585 159.782L346.265 120.853C345.766 115.008 348.69 109.66 353.371 106.786C347.823 106.119 342.312 105.366 336.836 104.523C342.61 119.681 338.398 137 325.997 147.8L229.611 231.742C249.745 244.917 272.169 253.53 297.559 256.217C302.744 256.766 307.031 259.894 309.279 264.191ZM334.094 88.8973C413.807 102.049 501.366 95.2643 596.153 82.2023L629.181 23.4623C541.235 44.7283 365.178 48.8393 291.083 36.6143L334.094 88.8973ZM149.978 281.205L142.284 550.76L212.423 480.486L197.933 286.329C225.563 303.894 256.328 315.206 290.929 318.867L295.981 271.134C261.282 267.462 231.611 253.757 205.593 232.769L316.145 136.488C324.276 129.407 326.687 117.773 322.039 108.044C317.392 98.3163 306.827 92.8803 296.209 94.7563C266.268 100.044 237.773 103.547 210.804 105.127L217.798 62.6793C205.535 60.6583 206.693 49.2813 207.691 36.8573L159.845 33.0133C158.003 55.9423 161.956 75.2733 172.247 88.6833C177.77 95.8813 185.078 101.85 194.825 105.842C151.394 107.17 112.145 103.198 77.4283 93.3083L19.0853 144.263C66.2463 172.932 162.625 167.834 224.985 152.227C224.987 152.227 52.8093 287.047 52.8093 287.047L111.934 303.804L149.978 281.205ZM364.608 159.418L362.48 217.39L377.931 217.957L376.079 233.201L540.343 253.158C546.687 253.929 553.077 252.137 558.096 248.18C563.115 244.223 566.349 238.427 567.08 232.078L578.844 129.881C579.668 122.728 577.237 115.584 572.221 110.418C567.206 105.252 560.136 102.611 552.962 103.223L399.242 116.334L366.235 115.122L366.087 119.162L361.21 119.578L364.608 159.418ZM411.549 189.158L412.495 163.378L527.803 153.543L522.157 202.595L411.549 189.158ZM433.146 176.671L508.981 185.885L510.804 170.047L433.146 176.671ZM374.55 486.275L555.215 484.848C551.786 502.404 548.188 504.984 548.188 504.984L596.178 539.921L639.858 301.918C641.285 294.615 639.243 287.062 634.33 281.473C629.417 275.883 622.189 272.889 614.762 273.366C522.474 279.303 434.478 280.204 351.426 275.275L351.374 276.155L322.871 270.544C304.707 362.825 303.548 460.342 330.273 541.148L382.927 514.7C379.819 505.305 377.025 495.83 374.55 486.275ZM586.421 323.105L586.468 324.866C584.439 335.249 573.91 389.147 564.607 436.773L491.359 437.351L491.713 393.267L528.136 391.649L564.685 362.828L492.454 364.427L492.586 356.215L432.827 327.861L440.53 366.347L378.327 365.993L411.64 396.822L447.001 396.447L454.419 438.521L364.93 438.349C359.636 401.44 358.966 363.349 363.216 323.998C434.28 327.625 508.809 327.182 586.421 323.105ZM420.165 341.03C405.583 340.73 391.135 340.273 376.823 339.655C376.523 343.504 376.273 347.34 376.07 351.163C376.837 351.047 377.62 350.989 378.412 350.993L422.209 351.242L420.165 341.03ZM375.528 383.84C375.797 397.172 376.67 410.349 378.135 423.374L436.537 423.487L434.438 411.581L411.8 411.822C407.967 411.862 404.265 410.435 401.452 407.831L375.528 383.84ZM568.423 339.003C543.95 340.111 519.79 340.85 495.953 341.21L499.016 342.663C501.972 344.066 504.321 346.357 505.806 349.128L564.353 347.831C565.137 347.814 565.913 347.858 566.673 347.959L568.423 339.003ZM559.19 386.263L537.424 403.427C534.957 405.373 531.941 406.495 528.801 406.634L506.598 407.62L506.481 422.231L552.234 421.87L559.19 386.263Z" fill="black"/>
<path fill-rule="evenodd" clip-rule="evenodd" d="M1626.65 2381.54L1588.61 2404.14L1529.48 2387.39C1529.48 2387.39 1701.66 2252.57 1701.66 2252.57C1639.3 2268.17 1542.92 2273.27 1495.76 2244.6L1554.1 2193.65C1588.82 2203.54 1628.07 2207.51 1671.5 2206.18C1661.75 2202.19 1654.44 2196.22 1648.92 2189.02C1638.63 2175.61 1634.68 2156.28 1636.52 2133.35L1684.37 2137.2C1683.37 2149.62 1682.21 2161 1694.47 2163.02L1687.48 2205.47C1714.45 2203.89 1742.94 2200.38 1772.88 2195.09C1783.5 2193.22 1794.07 2198.65 1798.71 2208.38C1803.36 2218.11 1800.95 2229.75 1792.82 2236.83L1682.27 2333.11C1708.29 2354.1 1737.96 2367.8 1772.66 2371.47L1767.6 2419.21C1733 2415.54 1702.24 2404.23 1674.61 2386.67L1689.1 2580.82L1618.96 2651.1L1626.65 2381.54ZM1839.48 2451.41C1827.69 2517.71 1845.6 2587.14 1860.57 2657.95L1783.92 2606.37C1774.82 2531.29 1793.17 2434.58 1801.08 2358.25L1835.17 2390.15L1848.83 2389.13C1846.08 2304.08 1837.25 2219.68 1809.94 2137.31L1879.73 2172.24L2077.76 2148.66C2086.16 2148.15 2094.39 2151.19 2100.44 2157.05C2106.48 2162.9 2109.8 2171.02 2109.57 2179.43C2107.77 2244.74 2101.24 2309.47 2076.8 2372.18L2088.68 2371.29C2096.64 2370.7 2104.51 2373.31 2110.55 2378.54C2116.58 2383.77 2120.28 2391.19 2120.83 2399.15C2126.73 2485.02 2121.31 2605.16 2084.62 2676.78L2026.44 2625.48C2054.69 2570.33 2062.71 2504.06 2062.11 2433.44L1839.48 2451.41ZM1988.22 2311.15L1988.03 2307.71C1984.69 2311.96 1984.95 2312.12 1988.22 2311.15ZM1988.22 2311.15L1991.88 2378.49L2009.5 2377.18L2009.12 2376.99C2020.52 2354.11 2030.39 2337.44 2036.28 2313.91C2011.92 2303.22 1994.51 2309.29 1988.22 2311.15ZM1908.87 2384.67L1932.04 2382.94L1926.42 2279.61C1925.97 2271.42 1928.89 2263.41 1934.5 2257.44C1940.11 2251.47 1947.92 2248.05 1956.12 2247.98L2045.16 2247.23C2046.53 2235.05 2047.51 2222.82 2048.23 2210.57L1886.76 2217.51L1908.87 2384.67ZM1906.03 2592.13L1876.31 2617.99L1866.34 2472.41L2010.31 2461.8C2019.45 2461.06 2028.43 2464.56 2034.68 2471.28C2040.93 2478.01 2043.75 2487.22 2042.34 2496.29L2032.47 2566.74C2030.19 2581.45 2017.46 2592.27 2002.57 2592.14L1906.03 2592.13ZM1924.83 2522.89L1925.64 2553.45L1979.26 2534.28L1979.22 2518.54L1924.83 2522.89Z" fill="black"/>
<path fill-rule="evenodd" clip-rule="evenodd" d="M1662.8 2270.3C1632.9 2274.64 1600.09 2276.47 1569.92 2274.26C1538.86 2271.98 1510.57 2265.31 1490.56 2253.15C1487.84 2251.49 1486.07 2248.63 1485.8 2245.46C1485.52 2242.28 1486.78 2239.17 1489.18 2237.07L1547.52 2186.11C1550.08 2183.89 1553.58 2183.1 1556.84 2184.03C1582.66 2191.38 1611.06 2195.35 1641.87 2196.24C1641.57 2195.86 1641.28 2195.49 1640.99 2195.11C1629.4 2180.01 1624.48 2158.36 1626.55 2132.55C1626.99 2127.05 1631.82 2122.94 1637.32 2123.38L1685.17 2127.23C1690.67 2127.67 1694.78 2132.49 1694.33 2138C1693.99 2142.32 1693.54 2146.49 1693.91 2150.05C1694.01 2151.07 1694.01 2152.02 1694.54 2152.7C1694.84 2153.08 1695.42 2153.04 1696.1 2153.15C1701.55 2154.05 1705.24 2159.19 1704.34 2164.64C1704.34 2164.64 1699.4 2194.62 1699.4 2194.62C1722.27 2192.81 1746.2 2189.65 1771.14 2185.25C1786.19 2182.59 1801.15 2190.29 1807.74 2204.07C1814.32 2217.85 1810.91 2234.34 1799.39 2244.37L1698.12 2332.57C1720.28 2348.26 1745.19 2358.51 1773.71 2361.53C1779.2 2362.11 1783.18 2367.03 1782.6 2372.52L1777.55 2420.26C1776.97 2425.75 1772.04 2429.73 1766.55 2429.15C1737.19 2426.04 1710.46 2417.67 1685.99 2404.82L1699.07 2580.08C1699.29 2582.98 1698.23 2585.83 1696.18 2587.89L1626.04 2658.16C1623.14 2661.06 1618.77 2661.9 1615 2660.28C1611.24 2658.66 1608.85 2654.91 1608.96 2650.81L1616.14 2399.42L1593.72 2412.74C1591.36 2414.14 1588.52 2414.51 1585.88 2413.76L1526.76 2397.01C1523.14 2395.98 1520.4 2393.01 1519.67 2389.31C1518.95 2385.62 1520.35 2381.83 1523.32 2379.51C1523.32 2379.51 1612.86 2309.4 1662.8 2270.3ZM1626.65 2381.54L1618.96 2651.1L1689.1 2580.82L1674.61 2386.67C1702.24 2404.23 1733 2415.54 1767.6 2419.21L1772.66 2371.47C1737.96 2367.8 1708.29 2354.1 1682.27 2333.11L1792.82 2236.83C1800.95 2229.75 1803.36 2218.11 1798.71 2208.38C1794.07 2198.65 1783.5 2193.22 1772.88 2195.09C1742.94 2200.38 1714.45 2203.89 1687.48 2205.47L1694.47 2163.02C1682.21 2161 1683.37 2149.62 1684.37 2137.2L1636.52 2133.35C1634.68 2156.28 1638.63 2175.61 1648.92 2189.02C1654.44 2196.22 1661.75 2202.19 1671.5 2206.18C1628.07 2207.51 1588.82 2203.54 1554.1 2193.65L1495.76 2244.6C1542.92 2273.27 1639.3 2268.17 1701.66 2252.57C1701.66 2252.57 1529.48 2387.39 1529.48 2387.39L1588.61 2404.14L1626.65 2381.54ZM1838.49 2379.56C1835.4 2298.81 1826.39 2218.71 1800.45 2140.46C1799.18 2136.62 1800.34 2132.4 1803.4 2129.75C1806.45 2127.11 1810.8 2126.56 1814.42 2128.37L1881.52 2161.96L2076.57 2138.73C2076.76 2138.71 2076.96 2138.69 2077.15 2138.68C2088.35 2138 2099.32 2142.06 2107.39 2149.86C2115.45 2157.66 2119.87 2168.49 2119.56 2179.71C2117.87 2241.1 2111.99 2301.98 2091.48 2361.21C2100.86 2361.35 2109.95 2364.78 2117.1 2370.98C2125.14 2377.95 2130.08 2387.85 2130.81 2398.47C2136.82 2485.97 2130.91 2608.35 2093.52 2681.34C2092.11 2684.09 2089.51 2686.03 2086.48 2686.61C2083.45 2687.18 2080.32 2686.32 2078.01 2684.28L2019.83 2632.99C2016.4 2629.96 2015.46 2625 2017.54 2620.93C2022.47 2611.3 2026.76 2601.33 2030.48 2591.04C2023.19 2598.02 2013.29 2602.22 2002.54 2602.14L1909.77 2602.13L1882.87 2625.54C1880.01 2628.03 1875.98 2628.68 1872.47 2627.23C1868.97 2625.77 1866.59 2622.46 1866.33 2618.67L1856.36 2473.1C1855.98 2467.61 1860.11 2462.84 1865.6 2462.44L2009.55 2451.82C2021.73 2450.86 2033.69 2455.52 2042.01 2464.48C2046.27 2469.07 2049.34 2474.54 2051.07 2480.4C2051.75 2468.53 2052.08 2456.47 2052.13 2444.27L1848.11 2460.75C1839.14 2523.53 1856.23 2589.06 1870.35 2655.88C1871.19 2659.86 1869.54 2663.96 1866.16 2666.24C1862.78 2668.51 1858.36 2668.52 1854.99 2666.24L1778.34 2614.67C1775.93 2613.05 1774.35 2610.46 1774 2607.57C1764.81 2531.82 1783.15 2434.23 1791.13 2357.22C1791.52 2353.44 1794.02 2350.21 1797.58 2348.88C1801.13 2347.55 1805.14 2348.35 1807.91 2350.95L1838.49 2379.56ZM1839.48 2451.41L2062.11 2433.44C2062.71 2504.06 2054.69 2570.33 2026.44 2625.48L2084.62 2676.78C2121.31 2605.16 2126.73 2485.02 2120.83 2399.15C2120.28 2391.19 2116.58 2383.77 2110.55 2378.54C2104.51 2373.31 2096.64 2370.7 2088.68 2371.29L2076.8 2372.18C2101.24 2309.47 2107.77 2244.74 2109.57 2179.43C2109.8 2171.02 2106.48 2162.9 2100.44 2157.05C2094.39 2151.19 2086.16 2148.15 2077.76 2148.66L1879.73 2172.24L1809.94 2137.31C1837.25 2219.68 1846.08 2304.08 1848.83 2389.13L1835.17 2390.15L1801.08 2358.25C1793.17 2434.58 1774.82 2531.29 1783.92 2606.37L1860.57 2657.95C1845.6 2587.14 1827.69 2517.71 1839.48 2451.41ZM1908.87 2384.67L1886.76 2217.51L2048.23 2210.57C2047.51 2222.82 2046.53 2235.05 2045.16 2247.23L1956.12 2247.98C1947.92 2248.05 1940.11 2251.47 1934.5 2257.44C1928.89 2263.41 1925.97 2271.42 1926.42 2279.61L1932.04 2382.94L1908.87 2384.67ZM1917.54 2373.99L1921.52 2373.7L1916.43 2280.15C1915.84 2269.24 1919.73 2258.56 1927.21 2250.59C1934.7 2242.63 1945.11 2238.07 1956.04 2237.98L2036.15 2237.3C2036.67 2231.89 2037.13 2226.47 2037.52 2221.04L1898.11 2227.03L1917.54 2373.99ZM1988.22 2311.15C1984.95 2312.12 1984.69 2311.96 1988.03 2307.71L1988.22 2311.15ZM1988.22 2311.15C1994.51 2309.29 2011.92 2303.22 2036.28 2313.91C2030.39 2337.44 2020.52 2354.11 2009.12 2376.99L2009.5 2377.18L1991.88 2378.49L1988.22 2311.15ZM2002.61 2367.67C2011.21 2350.71 2018.83 2336.99 2024.15 2320.1C2013.44 2316.97 2004.73 2317.57 1998.65 2318.75L2001.32 2367.76L2002.61 2367.67ZM1906.03 2592.13L2002.57 2592.14C2017.46 2592.27 2030.19 2581.45 2032.47 2566.74L2042.34 2496.29C2043.75 2487.22 2040.93 2478.01 2034.68 2471.28C2028.43 2464.56 2019.45 2461.06 2010.31 2461.8L1866.34 2472.41L1876.31 2617.99L1906.03 2592.13ZM1978.82 2518.57L1979.22 2528.54C1979.22 2528.54 1979.23 2528.52 1979.25 2528.49C1979.25 2531.62 1979.26 2534.28 1979.26 2534.28L1925.64 2553.45L1924.83 2522.89L1978.82 2518.57ZM1961.58 2529.98L1935.08 2532.1L1935.27 2539.39L1961.58 2529.98Z" fill="white"/>
<path d="M2270.35 -142.851H-159.712V2842.7H2270.35V-142.851Z" fill="#F2E83A" fill-opacity="0.2"/>
<path fill-rule="evenodd" clip-rule="evenodd" d="M2270.35 -142.851V2842.7H-159.712V-142.851H2270.35ZM2263.35 -135.851H-152.712C-152.712 23.0959 -152.712 2835.7 -152.712 2835.7H2263.35V-135.851Z" fill="white" fill-opacity="0.62"/>
<path fill-rule="evenodd" clip-rule="evenodd" d="M1530.73 78.7121C1557.17 72.0811 2036.08 63.4061 2007.74 87.5971C1998.96 95.0891 2000.96 111.591 2005.78 110.374C2022.28 106.206 2097.86 49.0751 2112.96 53.4191C2121.38 55.8421 2066.85 130.617 2068.77 165.132C2069.93 186.07 2087.46 106.057 2090.21 126.324C2091.38 134.875 2087.09 203.452 2086.18 215.56C2083.99 244.664 2123.31 140.118 2122.9 153.941C2121.46 202.008 2086.48 302.657 2086.42 308.321C2086.2 328.559 2088.14 190.105 2034.11 235.653C2025.37 243.024 2022.28 264.787 2022.7 294.086C2022.82 302.472 2032.55 313.145 2033.2 322.605C2040.43 429.2 2077.67 593.755 2072.6 586.167C2068.84 580.546 2042.22 433.647 2023.24 320.351C2021.48 309.824 2010.46 297.918 2008.85 288.112C2002.68 250.431 1997.84 219.104 1995.73 202.091C1992.74 177.994 2049.34 197.771 2051.16 183.559C2052.14 175.873 2070.89 121.19 2051.4 111.954C2038.37 105.781 1985.97 141.663 1982.08 145.084C1970 155.72 1946 184.853 1919.62 217.82C1912.24 227.048 1924.72 243.108 1917.17 252.614C1876.63 303.694 1421.6 915.834 1414.85 915.797C1408.75 915.763 1859.35 303.726 1896.1 249.865C1904.65 237.334 1893.22 218.081 1901.41 205.762C1930.12 162.545 1953.46 124.256 1949.58 116.349C1944.08 105.148 1886.3 141.973 1834.4 176.373C1827.88 180.702 1825.92 197.277 1819.69 201.429C1787.72 222.744 1761.26 240.398 1756 240.784C1749.81 241.238 1777.93 221.367 1810.24 196.91C1817.03 191.775 1819.52 174.152 1826.4 168.758C1863.2 139.897 1897.32 109.421 1886.11 99.6451C1875.51 90.4081 1793.73 87.0661 1711.04 85.3381C1709.1 85.2981 1691.49 109.756 1665.13 147.902C1656.41 160.518 1673.95 194.563 1663.57 209.782C1563.06 357.126 1396.27 608.154 1390.1 608.047C1384.33 607.946 1549.76 340.16 1636.75 195.147C1646.26 179.297 1627.62 144.982 1634.93 132.575C1652.43 102.852 1662.69 84.4741 1661.22 84.4511C1581.41 83.2071 1514.82 82.7011 1530.73 78.7121Z" fill="white" fill-opacity="0.8"/>
<path fill-rule="evenodd" clip-rule="evenodd" d="M2034.98 706.803C2034.98 706.803 2109.2 1366.71 2096.76 1447.43C2084.46 1527.26 1957.06 1181.96 1958.86 1200.71C1960.65 1219.45 2053.71 1417.69 2070.44 1533.48C2090.81 1674.4 2078.56 1942.2 2081.07 2046.26C2081.97 2083.47 2109.62 2160.27 2085.54 2157.85C2081.5 2157.44 2057.24 2147.35 2019.64 2130.86C2012.85 2127.89 2025.92 2096.57 2018.3 2093.19C1913.55 2046.81 1514.1 2007.27 1366.92 1943.54C1332.39 1928.59 1292.86 1905.15 1293.28 1886.3C1294.51 1830.52 1436.04 1774.44 1429.11 1776.02C1411.34 1780.07 1275.15 1833.58 1278.89 1892.25C1280.14 1911.78 1322.93 1941.65 1356.07 1957.44C1503.46 2027.64 1905.44 2074.06 2007.63 2124.02C2017.12 2128.66 2005.62 2161.09 2013.64 2165.01C2047.02 2181.31 2066.95 2191.03 2066.95 2191.03C2066.95 2191.03 2124.69 2190.65 2122.9 2168.84C2118.92 2120.39 2147.32 1805.05 2127.77 1910.1C2117.38 1965.88 2104.89 2028.54 2102.03 2025.75C2094.74 2018.66 2112.49 1827.63 2111.05 1788.7C2095.57 1368.19 2090.72 783.883 2090.72 783.883C2090.72 783.883 2076.81 1014.78 2066.87 1036.04C2056.93 1057.29 2034.98 706.803 2034.98 706.803Z" fill="white" fill-opacity="0.79"/>
<path fill-rule="evenodd" clip-rule="evenodd" d="M970.429 1.83608C970.429 1.83608 1065.24 -5.92592 1103.41 15.7031C1126.56 28.8231 1095.28 75.3731 1105.8 76.1101C1116.46 76.8571 1126.91 14.1801 1137.58 13.5531C1152.57 12.6711 1221.73 8.71608 1247.58 23.8961C1265.46 34.3951 1241.21 65.8411 1251.87 65.4091C1263.29 64.9461 1282.64 7.06408 1294.06 7.20908C1306.28 7.36408 1356.07 6.84108 1408.65 6.97708C1416.58 6.99808 1393.24 133.004 1401.18 133.059C1407.29 133.101 1444.7 7.18508 1450.69 7.25308C1486.92 7.66208 1519.94 8.57308 1537.73 10.4471C1580.2 14.9221 1502.59 27.0981 1531.45 27.3301C1578.21 27.7071 1640.91 8.61208 1670.7 10.2411C1686.59 11.1101 1667.24 32.4701 1683.14 31.8281C1707.47 30.8471 1781.58 5.81308 1816.67 4.35308C1851.76 2.89408 1885.14 27.0041 1920.7 28.3461C1958.62 29.7761 2022.07 8.46708 2044.14 12.9351C2058.24 15.7891 2039.62 52.5911 2053.1 55.1491C2066.58 57.7081 2115.63 18.8031 2125.02 28.2871C2134.41 37.7711 2104.95 105.271 2109.42 112.054C2113.89 118.837 2142.89 77.4211 2143.72 97.5511C2149.73 243.259 2145.44 986.303 2145.44 986.303L2154.37 1605.17L2177.32 16.6431L2128.71 68.3191L2181.59 -25.2029L2088.37 20.2281L2122.98 -29.5449L1975.41 10.9471L1897.6 -8.41692L1743.92 7.05008L1780.73 -3.52192L1629.41 4.39308L1597.4 -12.7019L1610.61 4.32108L1578.98 -0.299921L1441.62 0.455078L1414.41 76.0651L1422.25 0.562078L1276.82 1.36208L1254.41 11.6261L1234.74 0.908077L1198.39 6.62008L1178.6 1.10608L970.429 1.83608Z" fill="white" fill-opacity="0.8"/>
<path fill-rule="evenodd" clip-rule="evenodd" d="M1946.44 2656.17C1946.44 2656.17 1697.48 2647.27 1480.7 2644.51C1317.26 2642.42 1176.42 2645.89 1150.12 2647.67C1124.95 2649.36 1219.55 2587.1 1194.34 2586.27C1142.04 2584.55 914.192 2601.36 769.281 2626.11C705.521 2637.01 680.152 2669.17 655.078 2668.6C635.785 2668.16 721.027 2572 701.972 2575.05C672.365 2579.79 481.073 2652.03 431.953 2652.01C384.463 2651.99 445.38 2549.51 399.169 2538.56C341.01 2524.78 25.0777 2712.16 -5.88335 2699.86C-34.4323 2688.51 239.965 2500.09 221.484 2501.07C203.003 2502.05 91.6996 2546.9 81.7916 2487.35C63.1376 2375.25 109.564 1828.48 109.564 1828.48C109.564 1828.48 80.4977 2446.35 106.05 2493.08C114.859 2509.19 134.996 2468.94 158.029 2409.13C162.161 2398.41 162.426 2360.37 167.845 2349.08C209.333 2262.62 413.476 2086.7 419.644 2084.67C427.158 2082.19 190.827 2277.62 177.161 2360.33C174.81 2374.56 173.34 2413.48 171.069 2424.99C166.513 2448.07 165.049 2465.22 168.411 2472.53C171.76 2479.8 197.024 2466.22 236.136 2439.26C255.402 2425.99 248.53 2371.03 273.552 2352.15C338.584 2303.1 412.675 2235.01 483.529 2165.65C524.214 2125.83 624.362 2213.37 690.397 2185.69C863.134 2113.28 1094.72 1859.04 1119.92 1841.8C1126.16 1837.53 869.759 2121.88 694.701 2200.87C632.906 2228.75 533.667 2142.82 496 2181.7C427.952 2251.94 359.357 2321.49 305.793 2374.53C287.116 2393.02 326.794 2451.63 313.567 2466.18C283.423 2499.32 157.8 2579.28 169.15 2581.76C230.065 2595.06 679.43 2388.4 708.001 2387.32C736.572 2386.25 475.24 2498.09 439.92 2528.12C410.58 2553.07 432.938 2641.17 525.582 2605.95C589.658 2581.58 821.46 2474.39 860.597 2467.7C899.734 2461 708.186 2573.23 742.312 2591.58C776.439 2609.92 1005.66 2596.23 1065.36 2577.77C1107.97 2564.6 1107.4 2458.87 1118.58 2455.01C1129.77 2451.14 1093.71 2554.68 1125.17 2566.24C1160.09 2579.06 1296.99 2553.37 1328.09 2531.97C1357.23 2511.91 1306.2 2425.27 1319.02 2426.2C1331.83 2427.12 1364.57 2514.94 1404.98 2537.5C1420.42 2546.12 1243.72 2589.77 1295.47 2608.52C1379.23 2638.88 1952.18 2635.68 1946.44 2656.17Z" fill="white" fill-opacity="0.8"/>
<path fill-rule="evenodd" clip-rule="evenodd" d="M774.41 -3.82712L-15.8301 -13.9741L-13.8311 179.641C-26.4411 90.4249 9.03193 131.027 55.7539 202.001C55.7539 202.001 -15.5151 16.4559 15.9149 18.3389C28.7399 19.1069 132.763 198.507 132.763 198.507C132.763 198.507 72.0019 82.0549 52.1849 26.2669C42.1979 -1.84712 66.7849 -9.06312 79.2889 9.31588C157.534 124.318 602.23 888.521 602.23 888.521C602.23 888.521 199.437 177.296 138.201 29.5999C124.557 -3.30812 203.412 -6.99612 235.11 9.26088C283.272 33.9629 375.703 123.167 375.703 123.167L274.994 3.02588L492.712 6.75288L739.66 444.453L542.825 10.3599L774.41 -3.82712Z" fill="white" fill-opacity="0.8"/>
<path fill-rule="evenodd" clip-rule="evenodd" d="M-21.0521 370.178L53.3839 491.041L-32.7931 464.805L-65.9851 856.805C-65.9851 856.805 64.9908 1014.78 95.8109 1045.21C101.467 1050.8 113.668 1033.42 118.933 1039.38C126.041 1047.42 133.341 1100.8 147.757 1124.08C164.224 1150.68 405 1201.11 404.691 1202.62C404.366 1204.21 160.979 1154.64 142.79 1129.97C128.552 1110.66 122.187 1061.99 115.459 1056.38C108.931 1050.94 102.086 1076.93 95.2329 1071.9C65.7939 1050.31 22.1419 937.569 2.38986 976.178C-5.92714 992.436 14.2799 1054.4 11.7299 1110.41C7.08986 1212.32 -6.74515 1306.83 19.2689 1247.39C26.6759 1230.46 -9.92714 1426.32 -9.92714 1426.32C-9.92714 1426.32 63.1079 1472.38 93.3339 1477.91C105.481 1480.13 103.614 1420.08 115.927 1419.13C182.791 1413.98 499.397 1420.76 499.397 1420.76C499.397 1420.76 183.76 1422.63 116.941 1429.74C104.206 1431.1 106.346 1490.99 93.6059 1489.68C57.1659 1485.92 -101.698 1407.18 -101.698 1407.18L-146.14 192.501L-21.0521 370.178Z" fill="white" fill-opacity="0.8"/>
<path fill-rule="evenodd" clip-rule="evenodd" d="M2172.37 2084.68C2171.93 2074.89 2145.92 2097.51 2145.92 2097.51C2145.92 2097.51 2180.93 2138.76 2180.49 2150.12C2180.04 2161.49 2143.24 2165.68 2143.24 2165.68C2143.24 2165.68 2184.13 2228.43 2184.31 2242.19C2184.48 2255.67 2144.32 2248.26 2144.32 2248.26C2144.32 2248.26 2176.07 2281.08 2174.43 2288.5C2172.79 2295.91 2134.47 2292.76 2134.47 2292.76C2134.47 2292.76 2169.22 2327.08 2170.53 2335.34C2171.85 2343.6 2142.33 2342.29 2142.33 2342.29C2142.33 2342.29 2179.27 2392.63 2178.82 2400.55C2178.37 2408.47 2139.62 2389.81 2139.62 2389.81C2139.62 2389.81 2171.43 2440.01 2170.72 2449.53C2170.39 2453.97 2166.08 2468.86 2125.76 2447.81C2079.8 2423.82 1997.12 2363.17 1997.12 2363.17C1997.12 2363.17 2176.03 2496.23 2175.35 2504.74C2174.68 2513.24 2131.3 2497.97 2131.3 2497.97C2131.3 2497.97 2173.45 2539.42 2172.8 2548.23C2172.15 2557.04 2127.39 2550.83 2127.39 2550.83C2127.39 2550.83 2181.41 2601.65 2181.74 2609.45C2182.07 2617.25 2045.65 2541.25 2045.65 2541.25C2045.65 2541.25 2183.6 2647.51 2183.36 2654.03C2183.11 2660.55 2073.31 2603.54 2073.31 2603.54L2174.21 2724.61C2174.21 2724.61 2177.08 2189.2 2172.37 2084.68Z" fill="white" fill-opacity="0.8"/>
<path fill-rule="evenodd" clip-rule="evenodd" d="M-25.5901 1614.78C-25.4201 1610.57 19.7198 1465.59 27.3198 1565.54C32.3998 1632.45 -2.37005 1941.52 6.69995 1984.66C19.24 2044.21 51.3999 1971.22 51.3999 1971.22C51.3999 1971.22 -2.07013 2089.41 -1.63013 2102.09C-1.18013 2114.77 35.6199 2091.59 35.6199 2091.59C35.6199 2091.59 1.18977 2175.33 1.00977 2190.69C0.829765 2205.73 32.6699 2166.05 33.1199 2174.89C33.5699 2183.73 5.72994 2377.82 6.43994 2388.44C7.14994 2399.06 2.82977 2460.56 3.50977 2470.06C4.17976 2479.54 61.3098 2423.55 61.3098 2423.55C61.3098 2423.55 -0.320168 2500.79 0.329834 2510.62C0.979836 2520.45 16.72 2539.8 16.72 2539.8C16.72 2539.8 -2.55013 2578.23 -2.88013 2586.94C-3.21013 2595.64 111.49 2549.53 111.49 2549.53C111.49 2549.53 -2.56006 2642.36 -2.31006 2649.64C-2.07006 2656.91 -6.7002 2699.74 -6.7002 2699.74C-6.7002 2699.74 -27.01 2083.68 -30.77 1773.9C-31.75 1693.66 -26.5601 1638.78 -25.5901 1614.78Z" fill="white" fill-opacity="0.8"/>
<path fill-rule="evenodd" clip-rule="evenodd" d="M836.88 2700.3C847.808 2699.86 689.883 2692.68 679.19 2692.03C668.496 2691.39 612.919 2701.78 600.239 2701.34C587.558 2700.89 615.911 2682.2 603.42 2682.84C590.941 2683.47 540.699 2704.98 525.34 2705.16C510.293 2705.33 621.079 2639.69 612.462 2638.04C603.844 2636.4 481.93 2696.92 473.647 2695.28C465.376 2693.64 471.861 2673.72 461.581 2674.06C451.3 2674.4 421.162 2696.03 411.942 2697.34C402.733 2698.65 398.38 2686.06 387.82 2686.45C377.261 2686.84 357.414 2700.12 348.574 2699.67C339.733 2699.22 356.309 2675.06 347.201 2673.71C338.081 2672.36 304.527 2692.28 293.901 2691.57C283.274 2690.86 359.524 2617.36 349.255 2618.15C304.215 2621.6 136.602 2689.29 127.884 2689.62C119.188 2689.95 131.735 2669.05 121.287 2668.95C110.828 2668.86 52.1255 2695.38 44.8477 2695.14C37.581 2694.9 30.9951 2688.67 22.6457 2689.4C14.2963 2690.13 2.5871 2706.41 2.5871 2706.41C2.5871 2706.41 720.211 2705.02 836.88 2700.3Z" fill="white" fill-opacity="0.8"/>
<path fill-rule="evenodd" clip-rule="evenodd" d="M657.01 -0.779785C667.938 -0.339783 777.563 242.62 777.563 242.62C780.287 229.44 633.592 -29.5898 617.127 -10.7998C609.291 -1.8598 603.353 40.3601 603.353 40.3601C603.353 40.3601 533.31 -0.529968 517.95 -0.709961C502.904 -0.879959 573.539 139.5 573.539 139.5C573.539 139.5 482.912 -14.85 474.629 -13.21C466.347 -11.57 461.503 49.1301 461.503 49.1301C461.503 49.1301 413.773 8.4201 404.553 7.11011C395.344 5.80011 387.742 36.74 387.742 36.74C387.742 36.74 338.527 -7.9998 329.687 -7.5498C324.82 -7.2998 299.995 -4.63995 290.775 0.790039C283.252 5.20004 248.258 -3.36981 243.492 -3.0498C232.865 -2.3398 298.321 53.5601 298.321 53.5601C298.321 53.5601 234.383 7.57001 224.884 8.25C215.396 8.92 232.061 53.3301 232.061 53.3301C232.061 53.3301 212.728 29.8601 198.909 10.6201C181.831 -13.1599 141.234 -5.48001 141.323 15.49C141.368 24.33 153.78 62.4202 153.78 62.4202C153.78 62.4202 121.622 -7.96994 82.6654 -2.43994C74.0369 -1.21994 149.773 118.5 149.773 118.5C149.773 118.5 73.2443 -17.8099 21.4736 -2.11987C14.5083 -0.00987244 64.6381 84.75 64.6381 84.75L-4.80255 -1.95996C-4.80255 -1.95996 540.342 -5.48979 657.01 -0.779785Z" fill="white" fill-opacity="0.7"/>
<path fill-rule="evenodd" clip-rule="evenodd" d="M1083.93 570.171C1083.93 570.171 1425.44 289.742 1450.21 328.985C1474.98 368.229 1210.79 774.758 1232.54 805.634C1254.29 836.511 1571.51 476.183 1580.69 514.245C1589.88 552.306 1295.49 967.151 1287.67 1034C1279.86 1100.86 1533.83 915.36 1533.83 915.36C1533.83 915.36 1258.39 1139.34 1242.86 1098.11C1227.34 1056.88 1515.79 636.525 1494.15 612.826C1472.51 589.127 1126.78 994.445 1113.05 955.912C1099.33 917.379 1401.97 453.217 1397.11 388.927C1392.26 324.636 1083.93 570.171 1083.93 570.171Z" fill="white" fill-opacity="0.6"/>
<path fill-rule="evenodd" clip-rule="evenodd" d="M759.434 1872.58C737.681 1879.61 399.869 1967.26 448.761 2008.44C497.654 2049.62 644.618 2098.01 724.185 2073.21C803.751 2048.41 926.162 1859.63 926.162 1859.63C926.162 1859.63 819.857 2005.77 698.829 2047.5C625.129 2072.91 519.63 2011.48 495.917 2003.5C433.263 1982.43 781.188 1865.56 759.434 1872.58Z" fill="white" fill-opacity="0.5"/>
</g>
<defs>
<clipPath id="clip0_980_174">
<rect width="2160" height="2700" fill="white"/>
</clipPath>
</defs>
</svg>
