<svg width="2160" height="2700" viewBox="0 0 2160 2700" fill="none" xmlns="http://www.w3.org/2000/svg">
<g clip-path="url(#clip0_607_4762)">
<path fill-rule="evenodd" clip-rule="evenodd" d="M2419.08 1638.17L2208.21 1526.65L2157.48 1637.24L2088.91 1568.9L2100.84 1496.11L1988.23 1503.24L1965.44 1379.03L1911.86 1426.74L1871.94 1319.92L1762.03 1787.14L1893.07 1773.79L2037.8 1810.34L2510.24 2031.85L2612.73 1819.15L2485.59 1754.52L2419.08 1638.17Z" fill="#777777" stroke="black" stroke-width="13.672" stroke-miterlimit="1.5" stroke-linecap="round" stroke-linejoin="round"/>
<path d="M1810.16 1517.96C1810.16 1517.96 1933.67 1589.96 1956.4 1628.7C1975.11 1660.59 1980.88 1707.21 1952.23 1729.02C1923.17 1751.14 1843.95 1773.76 1843.95 1773.76" stroke="black" stroke-width="7.99999" stroke-miterlimit="1.5" stroke-linecap="square" stroke-linejoin="round"/>
<path fill-rule="evenodd" clip-rule="evenodd" d="M1769.69 1799.35C1769.69 1799.35 1885.63 1777.5 1920.55 1697.69C1958.12 1611.8 1841.55 1534.9 1841.55 1534.9L1796.59 1514.62L1662.26 1620.73L1643.66 1845.87L1769.69 1799.35Z" fill="#777777" stroke="black" stroke-width="12" stroke-miterlimit="1.5" stroke-linecap="round" stroke-linejoin="round"/>
<path d="M1849.71 1698.38C1831.34 1707.73 1808.78 1700.24 1799.32 1681.65C1789.86 1663.06 1797.09 1640.42 1815.46 1631.07C1833.83 1621.72 1856.39 1629.21 1865.85 1647.8C1875.31 1666.39 1868.08 1689.03 1849.71 1698.38Z" fill="#FF2E33" stroke="black" stroke-width="7.87927" stroke-miterlimit="1.5" stroke-linecap="round" stroke-linejoin="round"/>
<path d="M1855.06 1691.85C1841.74 1698.63 1824.78 1692.02 1817.18 1677.08C1809.58 1662.14 1814.22 1644.54 1827.54 1637.76C1840.87 1630.98 1857.83 1637.59 1865.43 1652.53C1873.03 1667.46 1868.39 1685.07 1855.06 1691.85Z" fill="#FF2E33" stroke="black" stroke-width="9.38615" stroke-miterlimit="1.5" stroke-linecap="round" stroke-linejoin="round"/>
<path fill-rule="evenodd" clip-rule="evenodd" d="M1869.17 1578.55L1868.85 1594.12C1888.41 1603.19 1898.11 1620.01 1907.27 1637.24C1900.46 1614.02 1889.75 1593.21 1869.17 1578.55Z" fill="white" fill-opacity="0.7"/>
<path d="M1602.49 2004.06L2141.27 1635.95L2188.2 1704.64L1649.42 2072.75L1602.49 2004.06Z" fill="#777777" stroke="black" stroke-width="11.8983" stroke-miterlimit="1.5" stroke-linecap="round" stroke-linejoin="round"/>
<path d="M1963.28 1612.73L2139.13 1404.5L2219.88 1472.7L2044.04 1680.93L1963.28 1612.73Z" fill="#FF2E33" stroke="black" stroke-width="8.66753" stroke-miterlimit="1.5" stroke-linecap="round" stroke-linejoin="round"/>
<path fill-rule="evenodd" clip-rule="evenodd" d="M2176.95 1901.82L2116.32 1894.04L2006.02 1832.96L1949.82 1762.95L2006.99 1723.27L2055.14 1795.13L2189.05 1703.88L2145.19 1821.31L2176.95 1901.82Z" fill="#777777" stroke="black" stroke-width="11.3676" stroke-miterlimit="1.5" stroke-linecap="round" stroke-linejoin="round"/>
<path d="M1851.88 1545.68L2029.47 1335.37L2110.23 1403.57L1932.63 1613.87L1851.88 1545.68Z" fill="#FF2E33" stroke="black" stroke-width="8.71062" stroke-miterlimit="1.5" stroke-linecap="round" stroke-linejoin="round"/>
<path fill-rule="evenodd" clip-rule="evenodd" d="M2024.33 1340.17L2064.4 1442.33L2104.97 1401.65L2024.33 1340.17Z" fill="white" fill-opacity="0.3"/>
<path fill-rule="evenodd" clip-rule="evenodd" d="M2134.82 1412.97L2115.96 1437.66L2159.76 1530.93L2210.84 1472.03L2134.82 1412.97Z" fill="white" fill-opacity="0.3"/>
<path fill-rule="evenodd" clip-rule="evenodd" d="M1968.87 1407.13L2018.93 1408.46L1936.75 1610.7L2013.36 1517.79L2038.04 1529.1L1968.88 1603.42L2025.79 1659.23L1929.58 1754.91L2001.69 1725.66L1981.45 1752.37L2093.89 1855.99L2178.35 1900.15L2121.49 1895.3L2001.62 1827.73L1929.56 1797.16L1634.43 2067.01L1643.41 1980.26L1920.81 1783.76L1851.12 1772.53L1670.71 1833.26L1698.48 1636.01C1811.68 1582.34 1913.76 1616.88 1916.39 1696.59C1922.62 1616.8 1878.71 1546.93 1811.54 1534.68L1832.36 1582.36L1731.05 1622.77L1767.28 1509.5L1955.18 1350.78L1968.87 1407.13Z" fill="black" fill-opacity="0.3"/>
<path d="M1689.54 1699.51L1761.52 1667.76L1769.8 1694.67L1675.43 1752.07L1661.46 1798.49L1767.84 1728.61L1806.24 1742.61L1657.97 1844.63" stroke="black" stroke-width="9.99999" stroke-miterlimit="1.5" stroke-linecap="round" stroke-linejoin="round"/>
<path fill-rule="evenodd" clip-rule="evenodd" d="M2156.92 1837.94L2301.67 1885.01L2294.28 1936.95L2173.8 1872.3L2156.92 1837.94Z" fill="black" fill-opacity="0.3"/>
<path fill-rule="evenodd" clip-rule="evenodd" d="M-103.907 1923.55L33.4593 1728.53L119.608 1838.36L183.954 1713.79L115.301 1652.62L218.9 1607.9L182.882 1486.86L252.272 1505.08L239.412 1391.78L549.247 1758.34L426.411 1805.87L313.994 1904.08L-6.61015 2315.77L-194.414 2172.68L-110.412 2057.41L-103.907 1923.55Z" fill="#777777" stroke="black" stroke-width="13.672" stroke-miterlimit="1.5" stroke-linecap="round" stroke-linejoin="round"/>
<path d="M442.974 1775.85C442.974 1775.85 376.705 1792.14 352.407 1779.54C328.11 1766.93 307.682 1734.89 314.319 1706.28C322.218 1672.23 360.766 1581.14 360.766 1581.14" stroke="black" stroke-width="9.99999" stroke-miterlimit="1.5" stroke-linecap="square" stroke-linejoin="round"/>
<path fill-rule="evenodd" clip-rule="evenodd" d="M547.96 1772.7C547.96 1772.7 434.726 1805.81 367.407 1750.51C294.973 1691 363.988 1569.6 363.988 1569.6L394.858 1531.14L492.48 1612.14L547.96 1772.7Z" fill="#777777" stroke="black" stroke-width="12" stroke-miterlimit="1.5" stroke-linecap="round" stroke-linejoin="round"/>
<path fill-rule="evenodd" clip-rule="evenodd" d="M362.466 1708.86C385.947 1743.74 415.311 1749.23 453.508 1750.41C453.508 1750.41 415.168 1758.43 400.522 1749.87C385.103 1740.85 362.466 1708.86 362.466 1708.86Z" fill="#BABABA"/>
<path d="M428.484 1729.82C448.022 1729.82 463.861 1712.81 463.861 1691.82C463.861 1670.84 448.022 1653.83 428.484 1653.83C408.947 1653.83 393.108 1670.84 393.108 1691.82C393.108 1712.81 408.947 1729.82 428.484 1729.82Z" fill="#FF2E33" stroke="black" stroke-width="6.97383" stroke-miterlimit="1.5" stroke-linecap="round" stroke-linejoin="round"/>
<path d="M422.098 1719C437.877 1719 450.669 1704.41 450.669 1686.41C450.669 1668.42 437.877 1653.83 422.098 1653.83C406.318 1653.83 393.527 1668.42 393.527 1686.41C393.527 1704.41 406.318 1719 422.098 1719Z" fill="#FF2E33" stroke="black" stroke-width="9.67655" stroke-miterlimit="1.5" stroke-linecap="round" stroke-linejoin="round"/>
<path d="M636.399 1946.21L154.99 1743.35L122.683 1820.02L604.093 2022.88L636.399 1946.21Z" fill="#777777" stroke="black" stroke-width="10.6462" stroke-miterlimit="1.5" stroke-linecap="round" stroke-linejoin="round"/>
<path d="M316.846 1653.49L65.6895 1547.65L24.6449 1645.06L275.801 1750.89L316.846 1653.49Z" fill="#FF2E33" stroke="black" stroke-width="8.66753" stroke-miterlimit="1.5" stroke-linecap="round" stroke-linejoin="round"/>
<path d="M140.843 1908.6L7.30408 1796.24L-29.1813 1839.6L104.358 1951.96L140.843 1908.6Z" fill="#777777" stroke="black" stroke-width="11.3676" stroke-miterlimit="1.5" stroke-linecap="round" stroke-linejoin="round"/>
<path d="M87.4167 1978.81L-46.1227 1866.44L-82.6081 1909.8L50.9313 2022.17L87.4167 1978.81Z" fill="#777777" stroke="black" stroke-width="11.3676" stroke-miterlimit="1.5" stroke-linecap="round" stroke-linejoin="round"/>
<path d="M29.8833 2052.4L-103.656 1940.04L-140.141 1983.4L-6.6021 2095.77L29.8833 2052.4Z" fill="#777777" stroke="black" stroke-width="11.3676" stroke-miterlimit="1.5" stroke-linecap="round" stroke-linejoin="round"/>
<path fill-rule="evenodd" clip-rule="evenodd" d="M181.01 2012.3L239.069 1993.2L335.839 1912.37L377.786 1832.99L314.146 1804.84L280.455 1884.51L131.701 1820.22L196.976 1927.24L181.01 2012.3Z" fill="#777777" stroke="black" stroke-width="11.3676" stroke-miterlimit="1.5" stroke-linecap="round" stroke-linejoin="round"/>
<path d="M388.869 1548.24L135.21 1441.35L94.165 1538.75L347.825 1645.64L388.869 1548.24Z" fill="#FF2E33" stroke="black" stroke-width="8.71062" stroke-miterlimit="1.5" stroke-linecap="round" stroke-linejoin="round"/>
<path fill-rule="evenodd" clip-rule="evenodd" d="M471.782 1779.22L483.751 1642.31L251.716 1411.94L239.312 1488.25L121.931 1464.1L94.9275 1536.51L220.118 1592.17L202.703 1612.9L80.4246 1605.84L28.4647 1644.8L173.985 1715.59L152.278 1747.34L128.921 1827.16L187.228 1924.22L8.0469 1767.87L-159.21 2057.99L-89.7332 2366.57L54.9211 1999.85L170.895 1959.7L62.5134 2224.04L261.945 1968.58L338.978 1908.48L572.929 2017.85L538.425 1912.15L387.826 1837.38L471.782 1779.22Z" fill="black" fill-opacity="0.3"/>
</g>
<defs>
<clipPath id="clip0_607_4762">
<rect width="2160" height="2700" fill="white"/>
</clipPath>
</defs>
</svg>
