<svg width="2160" height="2700" viewBox="0 0 2160 2700" fill="none" xmlns="http://www.w3.org/2000/svg">
<g clip-path="url(#clip0_2052_519)">
<path d="M1994.3 1750.55C1994.3 1750.55 2013.95 1848.55 2048.82 1861.49C2083.68 1874.43 2152.21 1897.15 2152.21 1897.15" stroke="black" stroke-width="21.0314" stroke-miterlimit="1.5" stroke-linecap="square" stroke-linejoin="round"/>
<path fill-rule="evenodd" clip-rule="evenodd" d="M1698.85 929.199C1763.19 916.159 1967.35 1262.6 1984.39 1305.97C2001.44 1349.34 1826.09 1526.02 1826.09 1526.02L1518.71 1420.05C1518.71 1420.05 1634.5 942.239 1698.85 929.199Z" fill="#636363" stroke="black" stroke-width="14" stroke-miterlimit="1.5" stroke-linecap="round" stroke-linejoin="round"/>
<path d="M1881.93 1130.46C1880.38 1227.8 1818.32 1326.11 1744.56 1388.44" stroke="black" stroke-width="14" stroke-miterlimit="1.5" stroke-linecap="round" stroke-linejoin="round"/>
<path fill-rule="evenodd" clip-rule="evenodd" d="M1671.84 1726.26C1671.84 1726.26 1771.03 1831.24 1839.78 1839.75C1907.84 1848.18 2020.59 1735.11 2020.59 1735.11L2032.44 1744.08C2032.44 1744.08 1905.9 1883.13 1823.73 1862.35C1767.15 1848.04 1656.57 1765.79 1656.57 1765.79L1671.84 1726.26Z" fill="#A4A4A4" stroke="black" stroke-width="9.99799" stroke-miterlimit="1.5" stroke-linecap="square" stroke-linejoin="round"/>
<path fill-rule="evenodd" clip-rule="evenodd" d="M1624.42 1879.3C1624.42 1879.3 1744.95 1976.31 1812.69 1990.84C1879.74 2005.23 1921.08 1703.64 1921.08 1703.64L1942.05 1717.85C1942.05 1717.85 1901.43 2025.18 1818.03 2010.1C1751.05 1998 1592.31 1932.86 1592.31 1932.86L1624.42 1879.3Z" fill="#A4A4A4" stroke="black" stroke-width="9.99799" stroke-miterlimit="1.5" stroke-linecap="square" stroke-linejoin="round"/>
<path fill-rule="evenodd" clip-rule="evenodd" d="M1662.61 1828.56C1662.61 1828.56 1767.94 1934.51 1837.07 1929.88C1905.49 1925.3 2035.53 1770.73 2035.53 1770.73L2057.05 1790.74C2057.05 1790.74 1914.62 1960.42 1830.01 1955.55C1771.73 1952.19 1651.78 1870.23 1651.78 1870.23L1662.61 1828.56Z" fill="#A4A4A4" stroke="black" stroke-width="9.99799" stroke-miterlimit="1.5" stroke-linecap="square" stroke-linejoin="round"/>
<path fill-rule="evenodd" clip-rule="evenodd" d="M2029.41 1726.02C2029.41 1726.02 2034.58 1751.8 2044.32 1778.66C2053.57 1804.17 2066.94 1830.65 2083.93 1836.96C2108.15 1845.95 2200.12 1872.93 2200.12 1872.93L2189.04 1909.67C2189.04 1909.67 2060.93 1876.08 2034.97 1854.8C2017.57 1840.53 1982.38 1737.58 1982.38 1737.58L2029.41 1726.02Z" fill="#A4A4A4" stroke="black" stroke-width="9.99799" stroke-miterlimit="1.5" stroke-linecap="square" stroke-linejoin="round"/>
<path fill-rule="evenodd" clip-rule="evenodd" d="M2157.08 2027.11L2274.13 2055.77L2309.01 1765.47L2205.37 1741.58L2157.08 2027.11Z" fill="#808080" stroke="black" stroke-width="16.178" stroke-miterlimit="1.5" stroke-linecap="square" stroke-linejoin="round"/>
<path fill-rule="evenodd" clip-rule="evenodd" d="M2236.53 2013.89L2470.75 2072.46L2616.22 1867.52L2539.63 1566.63L1678.73 1376.18L1610.94 1708.03L2273.28 1824.79L2236.53 2013.89Z" fill="#808080" stroke="black" stroke-width="9.99799" stroke-miterlimit="1.5" stroke-linecap="square" stroke-linejoin="round"/>
<path fill-rule="evenodd" clip-rule="evenodd" d="M1694.09 1795.88L1821.04 1676.77L1818.07 1721.23L1688.39 1835.94L1694.09 1795.88Z" fill="#8D8D8D" stroke="black" stroke-width="9.99799" stroke-miterlimit="1.5" stroke-linecap="square" stroke-linejoin="round"/>
<path fill-rule="evenodd" clip-rule="evenodd" d="M1660.81 1453.15L1916.75 1501.84L1913.77 1546.29L1626.49 1506.51L1660.81 1453.15Z" fill="#D1D1D1" stroke="black" stroke-width="9.99799" stroke-miterlimit="1.5" stroke-linecap="square" stroke-linejoin="round"/>
<path fill-rule="evenodd" clip-rule="evenodd" d="M1971.74 1354.51C1971.74 1354.51 1873.05 1593.9 1918.4 1654.38C1963.74 1714.86 2243.81 1717.36 2243.81 1717.36L2277.22 1477.94L1971.74 1354.51Z" fill="#A4A4A4" stroke="black" stroke-width="9.99999" stroke-miterlimit="1.5" stroke-linecap="round" stroke-linejoin="round"/>
<path d="M1925.14 1492.37L2055.95 1521.63L2069 1485.33L2136.24 1496.29L2147.91 1542.06L2243.07 1567.7" stroke="black" stroke-width="13" stroke-miterlimit="1.5" stroke-linecap="round" stroke-linejoin="round"/>
<path fill-rule="evenodd" clip-rule="evenodd" d="M2236.53 2013.89L2470.75 2072.46L2616.22 1867.52L2338.52 1604.59C2114.13 1696.61 1747.1 1707.26 1742.73 1534.66L1624.91 1700.52L2273.28 1824.79L2236.53 2013.89Z" fill="black" fill-opacity="0.3"/>
<path fill-rule="evenodd" clip-rule="evenodd" d="M1706.39 1735.77C1706.39 1735.77 1868.99 1678.82 1835.24 1629.98C1801.5 1581.13 1742.89 1523.54 1742.89 1523.54L1632.67 1720.04L1706.39 1735.77Z" fill="#505050" stroke="black" stroke-width="9.99999" stroke-miterlimit="1.5" stroke-linecap="round" stroke-linejoin="round"/>
<path d="M254.029 1909.2C254.029 1909.2 274.242 2007.08 247.208 2032.62C220.18 2058.15 165.982 2105.85 165.982 2105.85" stroke="black" stroke-width="21.0314" stroke-miterlimit="1.5" stroke-linecap="square" stroke-linejoin="round"/>
<path fill-rule="evenodd" clip-rule="evenodd" d="M212.123 1900.34C212.123 1900.34 217.442 1926.09 218.974 1954.62C220.431 1981.71 218.472 2011.32 205.303 2023.76C186.524 2041.5 112.419 2102.28 112.419 2102.28L136.975 2131.77C136.975 2131.77 241.761 2050.78 257.338 2021.05C267.78 2001.11 259.924 1892.59 259.924 1892.59L212.123 1900.34Z" fill="#A4A4A4" stroke="black" stroke-width="11.9987" stroke-miterlimit="1.5" stroke-linecap="square" stroke-linejoin="round"/>
<path fill-rule="evenodd" clip-rule="evenodd" d="M606.875 1843.4C606.875 1843.4 518.919 1964.48 450.115 1972.56C382.008 1980.56 269.961 1866.78 269.961 1866.78L258.056 1875.68C258.056 1875.68 374.95 2010.5 457.246 1990.23C513.921 1976.28 633.785 1899.75 633.785 1899.75L606.875 1843.4Z" fill="#A4A4A4" stroke="black" stroke-width="11.9987" stroke-miterlimit="1.5" stroke-linecap="square" stroke-linejoin="round"/>
<path fill-rule="evenodd" clip-rule="evenodd" d="M723.367 2081.41C723.367 2081.41 578.73 2143.67 509.519 2140.62C441.01 2137.6 369.306 1857.69 369.306 1857.69L356.129 1864.56C356.129 1864.56 418.489 2152.58 502.993 2159.06C570.858 2164.27 740.904 2141.34 740.904 2141.34L723.367 2081.41Z" fill="#A4A4A4" stroke="black" stroke-width="11.9987" stroke-miterlimit="1.5" stroke-linecap="square" stroke-linejoin="round"/>
<path fill-rule="evenodd" clip-rule="evenodd" d="M616.76 1939.28C616.76 1939.28 521.362 2067.77 452.269 2062.7C383.877 2057.69 254.808 1902.32 254.808 1902.32L233.16 1922.19C233.16 1922.19 374.523 2092.76 459.165 2088.41C517.463 2085.41 632.536 1999.7 632.536 1999.7L616.76 1939.28Z" fill="#A4A4A4" stroke="black" stroke-width="11.9987" stroke-miterlimit="1.5" stroke-linecap="square" stroke-linejoin="round"/>
<path fill-rule="evenodd" clip-rule="evenodd" d="M318.511 1061.98C254.166 1048.94 50.0134 1395.38 32.9664 1438.75C15.9184 1482.12 191.274 1658.8 191.274 1658.8L498.645 1552.83C498.645 1552.83 382.856 1075.02 318.511 1061.98Z" fill="#636363" stroke="black" stroke-width="13" stroke-miterlimit="1.5" stroke-linecap="round" stroke-linejoin="round"/>
<path d="M135.426 1263.24C136.979 1360.58 199.039 1458.89 272.801 1521.22" stroke="black" stroke-width="14" stroke-miterlimit="1.5" stroke-linecap="round" stroke-linejoin="round"/>
<path fill-rule="evenodd" clip-rule="evenodd" d="M227.4 2217.47L142.422 2302.9L-38.5725 2073.27L37.4486 1998.89L227.4 2217.47Z" fill="#808080" stroke="black" stroke-width="16.178" stroke-miterlimit="1.5" stroke-linecap="square" stroke-linejoin="round"/>
<path fill-rule="evenodd" clip-rule="evenodd" d="M134 2246.26L-58.6846 2391.73L-272.691 2259.96L-319.812 1953.07L398.155 1441.25L590.259 1720.2L26.2581 2086.58L134 2246.26Z" fill="#808080" stroke="black" stroke-width="13.0017" stroke-miterlimit="1.5" stroke-linecap="square" stroke-linejoin="round"/>
<path d="M492.181 1721.26L317.659 1684.39L228.839 1565.85" stroke="black" stroke-width="13" stroke-miterlimit="1.5" stroke-linecap="round" stroke-linejoin="round"/>
<path fill-rule="evenodd" clip-rule="evenodd" d="M533.247 1845.01L397.463 1769.2L410.443 1819.99L540.857 1895.89L533.247 1845.01Z" fill="#777777" stroke="black" stroke-width="16.178" stroke-miterlimit="1.5" stroke-linecap="square" stroke-linejoin="round"/>
<path fill-rule="evenodd" clip-rule="evenodd" d="M444.732 1505.1L228.191 1649.96L248.303 1689.71L497.181 1540.8L444.732 1505.1Z" fill="#D1D1D1" stroke="black" stroke-width="13.0017" stroke-miterlimit="1.5" stroke-linecap="square" stroke-linejoin="round"/>
<path fill-rule="evenodd" clip-rule="evenodd" d="M119.979 1535.84C119.979 1535.84 304.395 1717.62 286.298 1791.01C268.2 1864.4 11.3966 1976.17 11.3966 1976.17L-112.946 1768.86L119.979 1535.84Z" fill="#A4A4A4" stroke="black" stroke-width="9.99999" stroke-miterlimit="1.5" stroke-linecap="round" stroke-linejoin="round"/>
<path d="M216.761 1644.52L107.796 1722.58L81.6014 1694.28L23.9904 1730.65L31.1419 1777.33L-46.4299 1838.14" stroke="black" stroke-width="13" stroke-miterlimit="1.5" stroke-linecap="round" stroke-linejoin="round"/>
<path fill-rule="evenodd" clip-rule="evenodd" d="M134 2246.26L-58.6845 2391.73L-272.691 2259.96L-119.862 1909.4C122.64 1906.39 464.639 1772.72 401.194 1612.15L574.465 1718.75L26.2582 2086.58L134 2246.26Z" fill="black" fill-opacity="0.3"/>
<path fill-rule="evenodd" clip-rule="evenodd" d="M513.25 1783.05C513.25 1783.05 341.328 1794.19 353.301 1736.03C365.264 1677.89 396.691 1601.97 396.691 1601.97L574.955 1739.76L513.25 1783.05Z" fill="#505050" stroke="black" stroke-width="13" stroke-miterlimit="1.5" stroke-linecap="round" stroke-linejoin="round"/>
<path fill-rule="evenodd" clip-rule="evenodd" d="M472.605 1825.91L423.179 1815.95L332.196 1881.23L281.223 1811.43L281.916 1729.3C281.916 1729.3 204.37 1692.72 160.794 1690.89C117.219 1689.05 53.0071 1688.45 53.0071 1688.45L41.9091 1616.79L99.5973 1548.64L49.0992 1475.11C92.4613 1375.47 198.596 1267.4 312.246 1153.93L298.333 1508.86L458.954 1618.8L505.47 1814.27L472.605 1825.91Z" fill="black" fill-opacity="0.4"/>
</g>
<defs>
<clipPath id="clip0_2052_519">
<rect width="2160" height="2700" fill="white"/>
</clipPath>
</defs>
</svg>
