<svg width="2160" height="2700" viewBox="0 0 2160 2700" fill="none" xmlns="http://www.w3.org/2000/svg">
<g clip-path="url(#clip0_626_122)">
<path fill-rule="evenodd" clip-rule="evenodd" d="M262.628 792.928C254.38 762.466 228.42 739.307 199.331 719.214C158.438 690.953 110.094 669.494 73.875 651.321C45.819 637.25 23.9234 624.076 12.8609 612.252C0.348502 598.882 -4.51167 585.08 -3.91383 572.165C-3.15446 555.778 7.13398 531.143 49.2342 514.253C227.39 442.781 444.114 524.012 600.329 522.421C644.795 521.974 683.87 514.55 713.893 490.507C724.358 482.127 716.397 473.014 708.476 464.95C689.015 445.145 658.653 430.041 658.653 430.041C648.846 425.414 644.642 413.693 649.268 403.885C653.895 394.078 665.609 389.877 675.421 394.496C675.421 394.496 743.264 427.173 759.035 463.493C767.714 483.477 765.859 504.733 742.649 524.936C706.073 556.778 657.859 569.961 601.871 572.834C458.074 580.198 257.137 510.818 93.2972 574.636C97.9398 577.025 102.714 579.371 107.184 581.386C154.042 602.537 218.576 628.52 268.322 665.21C313.462 698.503 345.87 741.089 353.762 793.199C355.332 803.564 348.59 830.063 324.436 863.282C281.603 922.187 179.769 1041.33 133.911 1178.91C108.644 1254.71 101.484 1336.64 138.498 1415.65C238.892 1629.97 247.632 1844.95 218.419 2032.62C166.373 2366.96 -10.1518 2613.48 -10.1518 2613.48C-37.6674 2650.65 -90.1879 2658.49 -127.359 2630.98C-164.53 2603.46 -172.366 2550.94 -144.851 2513.77C-144.851 2513.77 19.1429 2301.59 77.3313 2007.67C109.691 1844.2 110.058 1655.4 29.7505 1463.9C-15.9863 1354.82 -5.54155 1244.18 32.8954 1142.92C80.1048 1018.53 168.379 909.192 225.072 840.519C240.012 822.422 255.555 802.213 262.628 792.928Z" fill="#3C3C3C"/>
<path fill-rule="evenodd" clip-rule="evenodd" d="M1734.03 1976.33C1738.88 1974.38 1743.78 1972.31 1748.23 1970.25C1794.88 1948.65 1856.76 1916.86 1917.05 1903.25C1971.77 1890.9 2025.18 1894.26 2069.75 1922.39C2078.61 1927.98 2094.24 1950.42 2103.55 1990.42C2120.07 2061.36 2143.53 2216.33 2217.55 2341.03C2258.34 2409.73 2315.61 2468.77 2399.57 2492.47C2627.34 2556.8 2795.62 2690.86 2918.41 2835.75C3137.18 3093.89 3208.09 3388.69 3208.09 3388.69C3218.19 3433.82 3189.76 3478.67 3144.63 3488.77C3099.5 3498.87 3054.65 3470.43 3044.55 3425.3C3044.55 3425.3 2991.41 3162.45 2807.23 2926.12C2704.79 2794.68 2562.26 2670.86 2364.9 2606.28C2252.49 2569.49 2175.66 2489.19 2124.24 2393.86C2061.07 2276.77 2036.15 2138.47 2021.32 2050.67C2017.41 2027.53 2012.3 2002.55 2009.91 1991.13C1981.48 1977.43 1946.98 1981.91 1912.75 1990.76C1864.62 2003.19 1816.76 2025.7 1779.31 2041.2C1750.32 2053.21 1726.03 2061.14 1709.85 2061.77C1691.55 2062.48 1677.93 2057.13 1668.56 2048.22C1656.66 2036.93 1644.76 2013.03 1659.54 1970.14C1722.07 1788.65 1925.31 1677.92 2026.33 1558.75C2055.09 1524.84 2075.04 1490.43 2076.51 1451.99C2077.02 1438.6 2064.92 1438.65 2053.64 1439.37C2025.93 1441.12 1994.64 1454.2 1994.64 1454.2C1984.72 1458.59 1973.11 1454.1 1968.72 1444.18C1964.33 1434.27 1968.82 1422.66 1978.73 1418.26C1978.73 1418.26 2047.83 1388.34 2085.62 1400.18C2106.41 1406.7 2121.27 1422.01 2121.36 1452.78C2121.5 1501.27 2099.92 1546.36 2065.46 1590.58C1976.93 1704.13 1792.99 1810.68 1734.03 1976.33Z" fill="#3C3C3C"/>
<path fill-rule="evenodd" clip-rule="evenodd" d="M1859.67 88.3499C1853.73 87.6879 1844.37 86.912 1836.94 87.5848C1807.22 90.2774 1774.28 99.712 1774.28 99.712C1763.92 102.932 1752.9 97.1519 1749.67 86.8001C1746.45 76.448 1752.24 65.4242 1762.59 62.1944C1762.59 62.1944 1832.89 39.6901 1869.18 44.9981C1886.33 47.5069 1897.77 56.1009 1903.31 67.3415C1907.83 76.5204 1908.97 89.4472 1901.2 106.823C1888.93 134.225 1857.19 152.708 1813.61 167.699C1759.93 186.154 1686.33 201.373 1623.18 241.319C1577.77 270.049 1538.49 312.695 1518.13 380.974C1515.9 388.484 1514.9 398.319 1514.56 402.509C1517.25 403.019 1522.13 403.884 1525.75 404.114C1535.89 404.77 1547.67 404.062 1560.65 403.127C1632.11 397.948 1731.45 386.225 1811.18 436.439C1818.93 441.312 1826.4 449.727 1830.69 463.503C1833.68 473.12 1834.19 493.626 1831.08 522.211C1822.23 603.469 1787.33 781.733 1836.07 915.161C1862.46 987.372 1918.21 1042.51 2024.89 1051.93C2258.66 1072.59 2448.86 1169.2 2597.37 1284.2C2865.04 1491.46 2994.49 1761.45 2994.49 1761.45C3013.79 1803.47 2995.34 1853.26 2953.31 1872.56C2911.29 1891.87 2861.5 1873.41 2842.19 1831.38C2842.19 1831.38 2736.91 1588.32 2507.96 1394.66C2381.39 1287.59 2217.45 1194.98 2012.12 1167.86C1852.37 1146.77 1773.35 1058.74 1738.39 948.48C1697.59 819.82 1721.63 657.996 1739.11 556.32C1742.99 533.798 1746.4 509.599 1748.3 495.523C1698.07 469.643 1638.83 473.093 1590.6 475.076C1546.91 476.86 1509.92 477.191 1487.4 467.675C1454.32 453.696 1431.66 425.643 1454.21 360.41C1483.37 276.091 1534.65 224.747 1593.01 191.267C1662.01 151.685 1740.64 137.899 1798.58 120.727C1827.06 112.293 1850.48 105.277 1859.67 88.3499Z" fill="#3C3C3C"/>
<path fill-rule="evenodd" clip-rule="evenodd" d="M483.876 2702.42C493.975 2755.96 495.388 2839.67 495.388 2839.67C495.746 2881.06 462.432 2914.96 421.04 2915.32C379.648 2915.68 345.752 2882.36 345.394 2840.97C345.394 2840.97 345.574 2761.93 335.227 2724.43C332.218 2713.53 330.296 2697.03 335.224 2675.83C338.829 2660.32 348.075 2636.33 362.41 2607.22C426.568 2476.96 602.538 2208.28 602.538 2208.28C625.241 2173.67 671.773 2164 706.386 2186.7C740.998 2209.41 750.667 2255.94 727.965 2290.55C727.965 2290.55 521.533 2603.04 483.876 2702.42Z" fill="#808080" stroke="black" stroke-width="12" stroke-miterlimit="2" stroke-linejoin="round"/>
<path d="M391.449 2544.91L425.976 2535.15L413.713 2573.66L507.069 2609.01L521.608 2572.78L544.746 2587.82" stroke="black" stroke-width="8.9964" stroke-miterlimit="1.5" stroke-linecap="round" stroke-linejoin="round"/>
<path d="M439.747 2614.32C453.568 2627.73 475.908 2627.12 489.645 2612.96C503.382 2598.8 503.314 2576.45 489.493 2563.04C475.672 2549.64 453.332 2550.24 439.595 2564.4C425.858 2578.56 425.926 2600.91 439.747 2614.32Z" fill="white" stroke="black" stroke-width="8.9964" stroke-miterlimit="1.5" stroke-linecap="round" stroke-linejoin="round"/>
<path fill-rule="evenodd" clip-rule="evenodd" d="M729.46 2608.58C741.423 2661.73 813.437 2855.37 813.437 2855.37C827.645 2894.25 807.616 2937.35 768.737 2951.56C729.858 2965.77 686.758 2945.74 672.55 2906.86C672.55 2906.86 584.83 2663.01 579.274 2620.25C577.459 2606.28 581.112 2575.16 595.831 2536.07C630.992 2442.69 725.649 2262.53 725.649 2262.53C744.937 2225.9 790.332 2211.83 826.957 2231.12C863.582 2250.41 877.656 2295.8 858.368 2332.42C858.368 2332.42 749.816 2536.39 729.46 2608.58Z" fill="#808080" stroke="black" stroke-width="12" stroke-miterlimit="2" stroke-linejoin="round"/>
<path d="M584.985 2633.56L609.839 2607.69L618.729 2647.11L717.146 2630.4L711.372 2591.8L738.94 2593.08" stroke="black" stroke-width="8.99637" stroke-miterlimit="1.5" stroke-linecap="round" stroke-linejoin="round"/>
<path d="M661.75 2669.03C680.454 2673.61 699.421 2661.79 704.113 2642.63C708.806 2623.46 697.447 2604.22 678.743 2599.64C660.039 2595.06 641.073 2606.88 636.38 2626.04C631.688 2645.2 643.046 2664.45 661.75 2669.03Z" fill="white" stroke="black" stroke-width="8.99637" stroke-miterlimit="1.5" stroke-linecap="round" stroke-linejoin="round"/>
<path fill-rule="evenodd" clip-rule="evenodd" d="M815.142 2384.93C795.132 2348.69 808.306 2303.03 844.542 2283.02C880.778 2263.01 926.442 2276.18 946.452 2312.42C946.452 2312.42 1063.9 2525.94 1102.24 2714.95C1121.72 2811.03 1119.04 2901.51 1085.47 2964.78C1066.06 3001.34 1020.62 3015.27 984.061 2995.87C947.496 2976.47 933.563 2931.03 952.966 2894.46C965.073 2871.65 966.427 2841.91 964.301 2809.42C961.502 2766.66 950.994 2719.93 937.233 2673.81C893.189 2526.18 815.142 2384.93 815.142 2384.93Z" fill="#808080" stroke="black" stroke-width="12" stroke-miterlimit="2" stroke-linejoin="round"/>
<path d="M966.458 2733.44L980.34 2700.36L1002.82 2733.94L1088.64 2682.95L1069.36 2649.01L1095.55 2640.29" stroke="black" stroke-width="8.99638" stroke-miterlimit="1.5" stroke-linecap="round" stroke-linejoin="round"/>
<path d="M1050.84 2738.92C1069.94 2736.46 1083.39 2718.61 1080.87 2699.05C1078.36 2679.48 1060.84 2665.61 1041.74 2668.06C1022.64 2670.51 1009.19 2688.37 1011.71 2707.93C1014.22 2727.5 1031.74 2741.37 1050.84 2738.92Z" fill="white" stroke="black" stroke-width="8.99638" stroke-miterlimit="1.5" stroke-linecap="round" stroke-linejoin="round"/>
<path fill-rule="evenodd" clip-rule="evenodd" d="M1176.43 2322.46C1167.34 2282.07 1192.75 2241.91 1233.14 2232.82C1273.52 2223.74 1313.68 2249.15 1322.77 2289.53C1322.77 2289.53 1371.71 2510.73 1367.99 2623.44C1364.32 2734.66 1301.24 2985.93 1301.24 2985.93C1291.05 3026.05 1250.21 3050.35 1210.09 3040.16C1169.97 3029.97 1145.67 2989.13 1155.85 2949.01C1155.85 2949.01 1214.73 2719.98 1218.07 2618.49C1221.37 2518.5 1176.43 2322.46 1176.43 2322.46Z" fill="#808080" stroke="black" stroke-width="12" stroke-miterlimit="2" stroke-linejoin="round"/>
<path d="M1220.1 2713.08L1240.17 2683.34L1255.66 2720.66L1349.78 2687.39L1337.5 2650.34L1364.88 2646.89" stroke="black" stroke-width="8.99639" stroke-miterlimit="1.5" stroke-linecap="round" stroke-linejoin="round"/>
<path d="M1301.79 2734.91C1321 2736.23 1337.67 2721.34 1339.02 2701.66C1340.38 2681.98 1325.9 2664.95 1306.69 2663.63C1287.47 2662.32 1270.8 2677.2 1269.45 2696.88C1268.1 2716.56 1282.58 2733.59 1301.79 2734.91Z" fill="white" stroke="black" stroke-width="8.99639" stroke-miterlimit="1.5" stroke-linecap="round" stroke-linejoin="round"/>
<path fill-rule="evenodd" clip-rule="evenodd" d="M1493.19 2185.02C1486.22 2144.22 1513.68 2105.43 1554.49 2098.46C1595.29 2091.49 1634.08 2118.96 1641.05 2159.76C1641.05 2159.76 1678.17 2377.27 1714.98 2529.97C1728.2 2584.84 1738.96 2630.46 1749.6 2646.74C1795.77 2717.35 1832.14 2800.26 1832.14 2800.26C1848.75 2838.17 1831.46 2882.44 1793.54 2899.05C1755.63 2915.66 1711.36 2898.37 1694.75 2860.46C1694.75 2860.46 1663.64 2789.36 1624.06 2728.83C1608.97 2705.76 1587.9 2642.9 1569.15 2565.12C1531.36 2408.34 1493.19 2185.02 1493.19 2185.02Z" fill="#808080" stroke="black" stroke-width="12" stroke-miterlimit="2" stroke-linejoin="round"/>
<path d="M1709.3 2488.09L1674.78 2478.33L1687.04 2516.84L1593.68 2552.19L1579.14 2515.96L1556.01 2531" stroke="black" stroke-width="8.9964" stroke-miterlimit="1.5" stroke-linecap="round" stroke-linejoin="round"/>
<path d="M1661.01 2557.5C1647.18 2570.91 1624.84 2570.3 1611.11 2556.14C1597.37 2541.98 1597.44 2519.63 1611.26 2506.22C1625.08 2492.82 1647.42 2493.42 1661.16 2507.58C1674.89 2521.74 1674.83 2544.09 1661.01 2557.5Z" fill="white" stroke="black" stroke-width="8.9964" stroke-miterlimit="1.5" stroke-linecap="round" stroke-linejoin="round"/>
<path fill-rule="evenodd" clip-rule="evenodd" d="M1359.48 2356.21C1354.99 2320.62 1380.24 2288.07 1415.83 2283.58C1451.43 2279.09 1483.97 2304.34 1488.46 2339.93L1554.42 2862.64C1558.91 2898.23 1533.66 2930.78 1498.07 2935.27C1462.48 2939.76 1429.93 2914.51 1425.44 2878.92L1359.48 2356.21Z" fill="#808080" stroke="black" stroke-width="12" stroke-miterlimit="2" stroke-linejoin="round"/>
<path d="M1388.95 2620.56L1413.22 2599.68L1417.78 2635.46L1506.64 2628.96L1504.79 2594.17L1529.17 2597.64" stroke="black" stroke-width="8.02977" stroke-miterlimit="1.5" stroke-linecap="round" stroke-linejoin="round"/>
<path d="M1454.15 2658.58C1470.38 2664.23 1488.23 2655.34 1494.03 2638.71C1499.82 2622.08 1491.36 2604.02 1475.13 2598.36C1458.9 2592.71 1441.04 2601.6 1435.25 2618.23C1429.46 2634.86 1437.92 2652.92 1454.15 2658.58Z" fill="white" stroke="black" stroke-width="8.02977" stroke-miterlimit="1.5" stroke-linecap="round" stroke-linejoin="round"/>
<path fill-rule="evenodd" clip-rule="evenodd" d="M794.655 2368.01C797.754 2332.27 829.287 2305.77 865.028 2308.87C900.768 2311.97 927.268 2343.5 924.169 2379.24L887.284 2804.58C884.185 2840.32 852.652 2866.82 816.912 2863.72C781.171 2860.62 754.671 2829.09 757.77 2793.35L794.655 2368.01Z" fill="#808080" stroke="black" stroke-width="12" stroke-miterlimit="2" stroke-linejoin="round"/>
<path d="M763.893 2664.87L796.139 2655.76L784.687 2691.72L871.879 2724.74L885.458 2690.9L907.068 2704.95" stroke="black" stroke-width="8.40237" stroke-miterlimit="1.5" stroke-linecap="round" stroke-linejoin="round"/>
<path d="M809.002 2729.7C821.91 2742.22 842.775 2741.65 855.605 2728.43C868.435 2715.21 868.372 2694.33 855.463 2681.81C842.555 2669.29 821.69 2669.85 808.86 2683.08C796.03 2696.3 796.094 2717.17 809.002 2729.7Z" fill="white" stroke="black" stroke-width="8.40237" stroke-miterlimit="1.5" stroke-linecap="round" stroke-linejoin="round"/>
<path fill-rule="evenodd" clip-rule="evenodd" d="M1219.78 2786.26C1227.22 2819.61 1207.39 2853.42 1174.1 2862.89C1139.59 2872.7 1103.61 2852.65 1093.8 2818.14C1091.13 2808.75 1088.49 2779.64 1088.66 2738.91C1089.18 2612.23 1103.75 2342.26 1103.75 2342.26C1105.68 2306.44 1136.34 2278.93 1172.16 2280.86C1207.98 2282.8 1235.49 2313.45 1233.56 2349.28C1233.56 2349.28 1219.17 2614.84 1218.65 2739.45C1218.57 2759.52 1219.64 2783.17 1219.78 2786.26Z" fill="#808080" stroke="black" stroke-width="12" stroke-miterlimit="2" stroke-linejoin="round"/>
<path d="M1212.78 2682.59L1181.31 2673.69L1192.48 2708.79L1107.39 2741.01L1094.14 2707.99L1073.05 2721.7" stroke="black" stroke-width="8.20022" stroke-miterlimit="1.5" stroke-linecap="round" stroke-linejoin="round"/>
<path d="M1168.75 2745.86C1156.16 2758.08 1135.79 2757.52 1123.27 2744.62C1110.75 2731.71 1110.81 2711.34 1123.41 2699.12C1136.01 2686.9 1156.37 2687.45 1168.89 2700.36C1181.41 2713.26 1181.35 2733.63 1168.75 2745.86Z" fill="white" stroke="black" stroke-width="8.20022" stroke-miterlimit="1.5" stroke-linecap="round" stroke-linejoin="round"/>
<path fill-rule="evenodd" clip-rule="evenodd" d="M2336.38 1892.96C2337.13 1927.72 2309.53 1956.56 2274.77 1957.32C2240.01 1958.08 2211.17 1930.47 2210.41 1895.71C2210.41 1895.71 2208 1739.36 2185.75 1594.25C2175.03 1524.36 2160.67 1456.94 2137.64 1414.5C2091.04 1327.95 1982.39 1150.26 1909.87 1009.46C1860.85 914.284 1830.23 832.64 1832.4 799.084C1833.42 784.988 1836.89 764.5 1844.11 740.295C1853.67 708.22 1868.24 668.17 1885.86 627.074C1902.76 587.65 1921.85 547.819 1939.87 512.322C1972.4 448.218 2000.08 400.861 2000.08 400.861C2002.75 394.205 2010.31 390.964 2016.97 393.626C2023.62 396.288 2026.86 403.853 2024.2 410.508C2024.2 410.508 2011.1 467.781 1992.47 540.775C1976.59 603.019 1957.75 675.605 1944.7 732.955C1937.79 763.335 1931.94 788.359 1931.81 803.465C1931.66 811.663 1937.77 823.775 1944.55 839.95C1958.05 872.137 1979.59 913.202 2004.8 958.627C2081.43 1096.73 2192.73 1271.99 2241.17 1357.2C2270.14 1408.53 2291.62 1489.78 2305.99 1574.87C2331.82 1727.8 2336.38 1892.96 2336.38 1892.96Z" fill="#808080" stroke="black" stroke-width="12" stroke-miterlimit="2" stroke-linejoin="round"/>
<path fill-rule="evenodd" clip-rule="evenodd" d="M2002.79 427.883C1999.37 446.742 1937.23 731.789 1921.13 764.496L1906.13 763.426C1923.05 747.885 2008.76 395.021 2002.79 427.883Z" fill="white" fill-opacity="0.7"/>
<path fill-rule="evenodd" clip-rule="evenodd" d="M1917.1 828.524C1923.97 839.364 2022.1 1007.62 2028.44 1030.73L2019.72 1036.55C2021.79 1021.64 1905.13 809.634 1917.1 828.524Z" fill="white" fill-opacity="0.7"/>
<path fill-rule="evenodd" clip-rule="evenodd" d="M2054.64 1076.2C2061.51 1087.04 2159.64 1255.29 2165.98 1278.4L2157.26 1284.23C2159.33 1269.32 2042.67 1057.31 2054.64 1076.2Z" fill="white" fill-opacity="0.7"/>
<path d="M1830.96 772.507L1853.81 763.889L1847.73 790.714L1913.09 809.282L1920.85 783.871L1937.42 792.732" stroke="black" stroke-width="6.12358" stroke-miterlimit="1.5" stroke-linecap="round" stroke-linejoin="round"/>
<path d="M1867.74 816.784C1877.89 825.077 1893.01 823.371 1901.5 812.973C1910 802.575 1908.66 787.422 1898.51 779.128C1888.36 770.835 1873.24 772.541 1864.75 782.939C1856.25 793.337 1857.59 808.49 1867.74 816.784Z" fill="white" stroke="black" stroke-width="6.12358" stroke-miterlimit="1.5" stroke-linecap="round" stroke-linejoin="round"/>
<path d="M1960.45 1102.82L1969.36 1080.08L1985.2 1102.57L2042.77 1066.49L2029.11 1043.7L2046.78 1037.34" stroke="black" stroke-width="6.12358" stroke-miterlimit="1.5" stroke-linecap="round" stroke-linejoin="round"/>
<path d="M2017.96 1105.18C2030.91 1103.2 2039.78 1090.84 2037.75 1077.56C2035.72 1064.29 2023.57 1055.13 2010.62 1057.11C1997.66 1059.09 1988.8 1071.45 1990.83 1084.73C1992.85 1098 2005 1107.16 2017.96 1105.18Z" fill="white" stroke="black" stroke-width="6.12358" stroke-miterlimit="1.5" stroke-linecap="round" stroke-linejoin="round"/>
<path d="M2114.77 1372.93L2123.68 1350.19L2139.51 1372.68L2197.09 1336.6L2183.42 1313.81L2201.1 1307.46" stroke="black" stroke-width="6.12358" stroke-miterlimit="1.5" stroke-linecap="round" stroke-linejoin="round"/>
<path d="M2172.27 1375.29C2185.23 1373.32 2194.09 1360.95 2192.07 1347.68C2190.04 1334.4 2177.89 1325.25 2164.93 1327.22C2151.98 1329.2 2143.12 1341.57 2145.14 1354.84C2147.17 1368.12 2159.32 1377.27 2172.27 1375.29Z" fill="white" stroke="black" stroke-width="6.12358" stroke-miterlimit="1.5" stroke-linecap="round" stroke-linejoin="round"/>
<path fill-rule="evenodd" clip-rule="evenodd" d="M-30.9401 1959.84C-61.6681 1976.11 -99.8261 1964.37 -116.097 1933.64C-132.368 1902.92 -120.63 1864.76 -89.9021 1848.49C-89.9021 1848.49 -5.97205 1804.2 59.252 1704.92C92.8999 1653.7 121.857 1588.16 131.838 1506.35C139.428 1446.48 141.109 1381.21 140.529 1316.03C139.826 1237.02 132.895 1158.43 129.574 1088.93C127.029 1035.66 126.805 988.734 126.123 950.447C125.083 892.022 125.832 857.019 125.832 857.019C124.352 850.006 128.845 843.11 135.859 841.63C142.872 840.15 149.768 844.643 151.248 851.657C151.248 851.657 163.543 879.223 180.282 927.805C187.926 949.992 196.155 975.584 204.145 1005.29C212.711 1037.13 221.078 1072.34 227.67 1110.54C249.492 1236.97 257.725 1389.45 246.582 1518.92C236.588 1621.95 202.262 1705.21 161.42 1770.45C79.2339 1901.74 -30.9401 1959.84 -30.9401 1959.84Z" fill="#808080" stroke="black" stroke-width="12" stroke-miterlimit="2" stroke-linejoin="round"/>
<path fill-rule="evenodd" clip-rule="evenodd" d="M147.349 873.458C153.15 891.946 230.654 1175.44 230.756 1211.47L215.532 1216.34C224.569 1195.61 137.243 841.242 147.349 873.458Z" fill="white" fill-opacity="0.7"/>
<path fill-rule="evenodd" clip-rule="evenodd" d="M243.904 1322.81C243.797 1337.15 233.826 1553.75 225.47 1578.56L213.257 1577.66C224.68 1565.93 244.093 1297.84 243.904 1322.81Z" fill="white" fill-opacity="0.7"/>
<path d="M140.317 1273.04L152.559 1251.91L164.819 1276.54L227.182 1249.56L217.114 1224.97L235.547 1221.35" stroke="black" stroke-width="6.12358" stroke-miterlimit="1.5" stroke-linecap="round" stroke-linejoin="round"/>
<path d="M196.811 1284.06C209.918 1284.06 220.544 1273.18 220.544 1259.75C220.544 1246.32 209.918 1235.43 196.811 1235.43C183.703 1235.43 173.078 1246.32 173.078 1259.75C173.078 1273.18 183.703 1284.06 196.811 1284.06Z" fill="white" stroke="black" stroke-width="6.12358" stroke-miterlimit="1.5" stroke-linecap="round" stroke-linejoin="round"/>
<path d="M121.299 1605.74L141.783 1592.44L141.564 1619.95L209.383 1624.14L211.541 1597.65L229.614 1602.77" stroke="black" stroke-width="6.12358" stroke-miterlimit="1.5" stroke-linecap="round" stroke-linejoin="round"/>
<path d="M166.679 1641.15C178.366 1647.08 192.769 1642.19 198.85 1630.22C204.931 1618.24 200.386 1603.73 188.7 1597.79C177.013 1591.85 162.61 1596.75 156.529 1608.72C150.448 1620.69 154.993 1635.21 166.679 1641.15Z" fill="white" stroke="black" stroke-width="6.12358" stroke-miterlimit="1.5" stroke-linecap="round" stroke-linejoin="round"/>
<path d="M-55.0152 1837.76L-30.6613 1839.58L-47.4926 1861.34L3.9416 1905.74L21.6965 1885.97L32.9775 1900.99" stroke="black" stroke-width="6.12358" stroke-miterlimit="1.5" stroke-linecap="round" stroke-linejoin="round"/>
<path d="M-40.3426 1893.42C-34.637 1905.22 -20.2115 1910.05 -8.1223 1904.2C3.96691 1898.35 9.14187 1884.05 3.43631 1872.25C-2.26926 1860.45 -16.6948 1855.62 -28.784 1861.47C-40.8732 1867.31 -46.0481 1881.62 -40.3426 1893.42Z" fill="white" stroke="black" stroke-width="6.12358" stroke-miterlimit="1.5" stroke-linecap="round" stroke-linejoin="round"/>
<path fill-rule="evenodd" clip-rule="evenodd" d="M2566.15 2614.56C2562.47 2649.13 2531.42 2674.22 2496.84 2670.54C2462.27 2666.86 2437.18 2635.81 2440.86 2601.23C2440.86 2601.23 2449.32 2520.79 2403.58 2437.21C2379.88 2393.91 2341.84 2349.84 2280.98 2315.16C2125.12 2225.27 1946.69 2169.94 1852.23 2098.43C1802.14 2060.5 1772.05 2017.76 1766.73 1969.3C1764.13 1928.12 1764.76 1881.56 1770.36 1836.52C1774.61 1802.32 1780.81 1769.92 1787.4 1741.27C1800.1 1686.06 1812.94 1648.36 1812.94 1648.36C1814.01 1641.27 1820.63 1636.39 1827.72 1637.46C1834.81 1638.54 1839.69 1645.16 1838.62 1652.25C1838.62 1652.25 1840.85 1723.16 1846.38 1807.92C1849.62 1857.38 1853.16 1910.81 1863.34 1955.89C1866.24 1972.97 1878.67 1986.07 1894.19 1999.39C1911.44 2014.18 1933.61 2027.38 1958.89 2040.64C2059.57 2093.46 2206.52 2140.39 2338.67 2211.57C2423.64 2257.8 2476.87 2318.16 2510.65 2377.37C2579.04 2497.22 2566.15 2614.56 2566.15 2614.56Z" fill="#808080" stroke="black" stroke-width="12" stroke-miterlimit="2" stroke-linejoin="round"/>
<path fill-rule="evenodd" clip-rule="evenodd" d="M1825.17 1658.5C1826.56 1671.25 1840.58 1865.53 1836.1 1889.07L1825.7 1890.46C1834.12 1877.98 1822.74 1636.27 1825.17 1658.5Z" fill="white" fill-opacity="0.7"/>
<path fill-rule="evenodd" clip-rule="evenodd" d="M1842.2 1977.18C1849.87 1981.74 1962.53 2054.95 1972.61 2067.09L1967.36 2073.18C1965.51 2063.54 1828.83 1969.24 1842.2 1977.18Z" fill="white" fill-opacity="0.7"/>
<path d="M1762.05 1967.47L1774.29 1946.34L1786.55 1970.96L1848.91 1943.98L1838.84 1919.39L1857.28 1915.77" stroke="black" stroke-width="6.12358" stroke-miterlimit="1.5" stroke-linecap="round" stroke-linejoin="round"/>
<path d="M1818.54 1978.49C1831.65 1978.49 1842.27 1967.6 1842.27 1954.17C1842.27 1940.75 1831.65 1929.86 1818.54 1929.86C1805.43 1929.86 1794.81 1940.75 1794.81 1954.17C1794.81 1967.6 1805.43 1978.49 1818.54 1978.49Z" fill="white" stroke="black" stroke-width="6.12358" stroke-miterlimit="1.5" stroke-linecap="round" stroke-linejoin="round"/>
<path d="M1943.35 2158.45L1964.27 2145.91L1939.09 2135.94L1964.37 2076.61L1989.44 2084.56L1988.04 2049.81" stroke="black" stroke-width="5.92294" stroke-miterlimit="1.5" stroke-linecap="round" stroke-linejoin="round"/>
<path d="M1970.34 2126.95C1979.49 2118.82 1979.77 2103.99 1970.96 2093.83C1962.15 2083.67 1947.59 2082.02 1938.43 2090.15C1929.28 2098.28 1929 2113.1 1937.81 2123.26C1946.62 2133.42 1961.18 2135.07 1970.34 2126.95Z" fill="white" stroke="black" stroke-width="5.92235" stroke-miterlimit="1.5" stroke-linecap="round" stroke-linejoin="round"/>
<path fill-rule="evenodd" clip-rule="evenodd" d="M1679.19 2349.06C1619.51 2436.62 1606.36 2574.41 1623.08 2744.45C1580.42 2639.82 1555.16 2524.78 1538.3 2404.72L1506.35 2424.41L1505.15 2498.71C1505.15 2498.71 1431.6 2550.67 1440.47 2603.4C1446.39 2638.62 1463.77 2717.57 1463.77 2717.57L1409.29 2715.59L1387.24 2510.53L1361.31 2536.14L1360.74 2571.8C1319.08 2611.58 1307.87 2671.93 1310.24 2719.55L1228.59 2741.47L1220.58 2577.27C1220.58 2577.27 1190.49 2596.06 1190 2611.31C1189.32 2632.39 1216.5 2703.76 1216.5 2703.76L1099.42 2720.22L1097.01 2616.98C1097.01 2616.98 1032.98 2601.6 1029.88 2615.83C1026.78 2630.05 1078.41 2702.32 1078.41 2702.32L950.237 2743.05L905.044 2563.62C869.133 2580.66 853.919 2656.36 836.183 2724.91L769.564 2740.37L786.321 2470.66C744.982 2503.51 730.033 2557.71 723.204 2604.11L759.805 2709.74L620.627 2787.27L577.635 2604.08L619.738 2464.08L562.785 2538.24L380.755 2724.15C380.755 2724.15 245.76 2765.02 259.2 2736.55C272.641 2708.09 547.749 2287.78 547.749 2287.78L783.839 2451.96L913.84 2545.16L1056.72 2554.18L1223.29 2544.4L1468.63 2344.77L1661.1 2294.92L1679.19 2349.06Z" fill="black" fill-opacity="0.3"/>
<path fill-rule="evenodd" clip-rule="evenodd" d="M1867.62 681.639C1867.62 681.639 1859.87 819.342 1902.04 910.108C1963.16 1041.65 2234.32 1470.91 2234.32 1470.91L2231.96 2289.32C2052.45 2208.68 1867.26 2128.39 1801.26 2040.84C1741.39 1979.56 1771.92 1825.3 1804.5 1668.93C1804.5 1668.93 1779.11 1926.48 1842.96 2014.08C1906.81 2101.68 2187.6 2194.55 2187.6 2194.55L2175.01 1477.88C2037.46 1255.35 1876.4 1036.71 1831.74 798.843C1836.54 755.177 1849.33 716.646 1867.62 681.639Z" fill="black" fill-opacity="0.3"/>
<path fill-rule="evenodd" clip-rule="evenodd" d="M-45.772 1977.34C-45.772 1977.34 149.394 1659.74 177.642 1480.3C207.383 1291.38 123.472 884.4 123.472 884.4C130.434 1116.41 154.687 1310.7 131.026 1531.98C100.372 1633.2 67.56 1732.17 -12.687 1781.55L-45.772 1977.34Z" fill="black" fill-opacity="0.3"/>
</g>
<defs>
<clipPath id="clip0_626_122">
<rect width="2160" height="2700" fill="white"/>
</clipPath>
</defs>
</svg>
