<svg width="2160" height="2700" viewBox="0 0 2160 2700" fill="none" xmlns="http://www.w3.org/2000/svg">
<g clip-path="url(#clip0_2052_152)">
<path fill-rule="evenodd" clip-rule="evenodd" d="M-17.8407 1190.65C7.9761 1229.21 280.031 1859.86 280.031 1859.86L64.8568 1750.93L647.381 2570.39L74.8494 2203.39L360.272 2854.54L-140.742 2424.59L-284.999 750.725L184.283 1246.19C184.283 1246.19 -43.6575 1152.08 -17.8407 1190.65Z" fill="#808080" stroke="black" stroke-width="9.99799" stroke-miterlimit="1.5" stroke-linecap="square" stroke-linejoin="round"/>
<path fill-rule="evenodd" clip-rule="evenodd" d="M188.692 1974.93L511.399 2416.27L330.869 2198.75L188.692 1974.93Z" fill="white"/>
<path fill-rule="evenodd" clip-rule="evenodd" d="M44.4004 2211.27L268.91 2709.79L137.241 2459.65L44.4004 2211.27Z" fill="white"/>
<path fill-rule="evenodd" clip-rule="evenodd" d="M2.75293 1294.68L227.263 1793.19L95.5939 1543.05L2.75293 1294.68Z" fill="white"/>
<path fill-rule="evenodd" clip-rule="evenodd" d="M-83.916 1187.23C-62.2278 1228.26 143.121 1883.67 143.121 1883.67L-59.6283 1753.06L434.991 2628.38L-96.4994 2204.12L120.025 2881.31L-333.82 2401.84L-503.054 459.467C-325.319 347.872 -166.25 232.18 172.538 118.397L176.297 407.461L-304.127 722.025L111.377 1263.38C111.377 1263.38 -105.605 1146.2 -83.916 1187.23Z" fill="#808080" stroke="black" stroke-width="9.99799" stroke-miterlimit="1.5" stroke-linecap="square" stroke-linejoin="round"/>
<path fill-rule="evenodd" clip-rule="evenodd" d="M-82.3745 1250.92L82.14 1772.31L-19.294 1508.46L-82.3745 1250.92Z" fill="white"/>
<path fill-rule="evenodd" clip-rule="evenodd" d="M9.24512 1926.06L273.704 2404.58L122.053 2166.03L9.24512 1926.06Z" fill="white"/>
<path fill-rule="evenodd" clip-rule="evenodd" d="M151.554 154.826L147.197 384.905L130.375 192.837L17.146 198.001L151.554 154.826Z" fill="white"/>
<path fill-rule="evenodd" clip-rule="evenodd" d="M-81.3521 2026.95L-91.2778 2014.18L-65.7269 1994.33L-55.8011 2007.1L163.827 2313.85L164.694 2314.96L162.46 2316.7L161.592 2315.59L-81.3521 2026.95Z" fill="black"/>
<path fill-rule="evenodd" clip-rule="evenodd" d="M113.443 2054.13L76.1482 1987.07L39.1655 1919.04L94.8987 1995.63L324.315 2287.9L325.211 2288.99L323.022 2290.79L322.126 2289.69L113.443 2054.13Z" fill="black"/>
<path fill-rule="evenodd" clip-rule="evenodd" d="M-84.6865 1383.02L-93.7666 1369.63L-66.9872 1351.47L-57.9071 1364.86L141.456 1685.15L142.249 1686.32L139.908 1687.91L139.113 1686.74L-84.6865 1383.02Z" fill="black"/>
<path fill-rule="evenodd" clip-rule="evenodd" d="M-55.8862 2291.88L-64.9663 2278.49L-38.1869 2260.33L-29.1068 2273.72L170.256 2594.01L171.05 2595.18L168.708 2596.77L167.914 2595.6L-55.8862 2291.88Z" fill="black"/>
<path fill-rule="evenodd" clip-rule="evenodd" d="M2681.18 1855.62L2286.65 187.869C2263.83 457.109 2194 723.286 2042.96 984.172L2316.14 811.743C2211.13 1170.23 2041.64 1574.36 1830.78 1934L2410.03 1436.13L1778.43 2593.93L2681.18 1855.62Z" fill="#808080" stroke="black" stroke-width="9.99799" stroke-miterlimit="1.5" stroke-linecap="square" stroke-linejoin="round"/>
<path fill-rule="evenodd" clip-rule="evenodd" d="M2224.75 1402.87L2234.75 1390.15L2260.18 1410.16L2250.17 1422.87L2005.48 1710.02L2004.61 1711.13L2002.39 1709.38L2003.26 1708.27L2224.75 1402.87Z" fill="black"/>
<path fill-rule="evenodd" clip-rule="evenodd" d="M2206.65 2029.63L2216.65 2016.92L2242.08 2036.92L2232.08 2049.64L1987.38 2336.79L1986.51 2337.9L1984.29 2336.15L1985.16 2335.04L2206.65 2029.63Z" fill="black"/>
<path fill-rule="evenodd" clip-rule="evenodd" d="M2865.54 2151.32L2436.89 269.876C2271.18 111.029 2055.99 59.5856 1820.63 51.9551L1974.11 378.184L2276.7 475.142L1994.63 1366.91C1994.63 1366.91 2414.51 957.818 2397.28 999.074C2380.06 1040.33 1984.86 2071.36 1984.86 2071.36L2575.87 1576.32L1919.29 2618.35L2390.52 2296.13L1940.78 2736.24L2865.54 2151.32Z" fill="#808080" stroke="black" stroke-width="9.99799" stroke-miterlimit="1.5" stroke-linecap="square" stroke-linejoin="round"/>
<path fill-rule="evenodd" clip-rule="evenodd" d="M2293.38 677.328L2068.87 1175.84L2200.54 925.703L2293.38 677.328Z" fill="white"/>
<path fill-rule="evenodd" clip-rule="evenodd" d="M2223.91 1186.04L1999.4 1684.55L2131.07 1434.41L2223.91 1186.04Z" fill="white"/>
<path fill-rule="evenodd" clip-rule="evenodd" d="M2236.58 1435.73L2061.94 1953.83L2168.5 1692L2236.58 1435.73Z" fill="white"/>
<path fill-rule="evenodd" clip-rule="evenodd" d="M2163.77 1962.77L1886.67 2434.08L2044.61 2199.65L2163.77 1962.77Z" fill="white"/>
<path fill-rule="evenodd" clip-rule="evenodd" d="M2286.42 2050.79L2009.32 2522.11L2167.27 2287.67L2286.42 2050.79Z" fill="white"/>
<path fill-rule="evenodd" clip-rule="evenodd" d="M2463.8 2279.57L2057.55 2645.47L2278.8 2469.53L2463.8 2279.57Z" fill="white"/>
<path fill-rule="evenodd" clip-rule="evenodd" d="M2308.62 876.172L2318.62 863.457L2344.05 883.464L2334.05 896.179L2089.36 1183.33L2088.48 1184.44L2086.26 1182.69L2087.13 1181.58L2308.62 876.172Z" fill="black"/>
<path fill-rule="evenodd" clip-rule="evenodd" d="M2312.33 1605.43L2322.33 1592.71L2347.76 1612.72L2337.76 1625.43L2093.07 1912.59L2092.19 1913.7L2089.97 1911.95L2090.84 1910.84L2312.33 1605.43Z" fill="black"/>
<path fill-rule="evenodd" clip-rule="evenodd" d="M2274.99 2183.24L2284.99 2170.52L2310.42 2190.53L2300.42 2203.25L2055.73 2490.4L2054.85 2491.51L2052.63 2489.76L2053.5 2488.65L2274.99 2183.24Z" fill="black"/>
<path fill-rule="evenodd" clip-rule="evenodd" d="M1911.81 174.048C1914.27 60.4941 2187.59 163.277 2373.45 226.285C2219.26 154.904 2064.36 104.146 1878.73 83.9941L1911.81 174.048Z" fill="white"/>
</g>
<defs>
<clipPath id="clip0_2052_152">
<rect width="2160" height="2700" fill="white"/>
</clipPath>
</defs>
</svg>
