<svg width="2160" height="2700" viewBox="0 0 2160 2700" fill="none" xmlns="http://www.w3.org/2000/svg">
<path fill-rule="evenodd" clip-rule="evenodd" d="M653.644 1097.61L537.014 1042.97L715.738 725.909L757.174 667.078L809.432 677.53L750.399 1012.67L653.644 1097.61Z" fill="#54C5ED" stroke="black" stroke-width="14.0138" stroke-miterlimit="1.5" stroke-linecap="round" stroke-linejoin="round"/>
<path fill-rule="evenodd" clip-rule="evenodd" d="M812.293 956.831L693.812 1004.68L838.571 774.431L880.007 715.599L932.265 726.052L903.304 910.131L812.293 956.831Z" fill="#54C5ED" stroke="black" stroke-width="14.0138" stroke-miterlimit="1.5" stroke-linecap="round" stroke-linejoin="round"/>
<path fill-rule="evenodd" clip-rule="evenodd" d="M556.718 1062.62L430.655 1036.25L531.749 686.603L558.56 619.825L611.822 617.991L634.566 996.259L556.718 1062.62Z" fill="#54C5ED" stroke="black" stroke-width="14.0138" stroke-miterlimit="1.5" stroke-linecap="round" stroke-linejoin="round"/>
<path fill-rule="evenodd" clip-rule="evenodd" d="M1506 1093.03L1620.53 1034.11L1430.19 723.885L1386.6 666.628L1334.76 679.009L1414.42 1014.57L1506 1093.03Z" fill="#54C5ED" stroke="black" stroke-width="14.0138" stroke-miterlimit="1.5" stroke-linecap="round" stroke-linejoin="round"/>
<path fill-rule="evenodd" clip-rule="evenodd" d="M1342.25 958.224L1462.42 1001.65L1309.23 776.922L1265.65 719.665L1213.81 732.046L1249.57 914.927L1342.25 958.224Z" fill="#54C5ED" stroke="black" stroke-width="14.0138" stroke-miterlimit="1.5" stroke-linecap="round" stroke-linejoin="round"/>
<path fill-rule="evenodd" clip-rule="evenodd" d="M1601.57 1054.48L1726.57 1023.45L1612.59 677.791L1583.33 612.052L1530.03 612.191L1521.31 991.042L1601.57 1054.48Z" fill="#54C5ED" stroke="black" stroke-width="14.0138" stroke-miterlimit="1.5" stroke-linecap="round" stroke-linejoin="round"/>
<path fill-rule="evenodd" clip-rule="evenodd" d="M1079.21 814.213C1321.74 814.213 1870.63 1019.79 1967.92 1325.75C2005.09 1442.63 1686.51 1579.53 1686.51 1717.3C1686.51 1855.68 1672.3 1988.86 1640.97 2107.97C1614.86 2207.25 1477.34 2285.14 1425.76 2359.74C1377.99 2428.85 1417.78 2496.72 1351.96 2538.14C1267.02 2591.59 1171.92 2620.39 1079.21 2620.39C983.03 2620.39 892.05 2587.08 811.193 2527.78C755.416 2486.88 783.895 2427.85 739.384 2364.64C688.353 2292.17 566.35 2212.39 534.698 2117.39C494.507 1996.77 471.91 1860.93 471.91 1717.3C471.91 1624.36 173.775 1438.07 191.345 1353.67C267.994 985.428 806.534 814.213 1079.21 814.213ZM1082.49 885.248C797.884 885.248 566.82 1148.41 566.82 1472.55C566.82 1796.7 797.884 2059.86 1082.49 2059.86C1367.1 2059.86 1598.17 1796.7 1598.17 1472.55C1598.17 1148.41 1367.1 885.248 1082.49 885.248Z" fill="#00A8E4" stroke="black" stroke-width="16.178" stroke-miterlimit="1.5" stroke-linecap="round" stroke-linejoin="round"/>
<path fill-rule="evenodd" clip-rule="evenodd" d="M1220.37 2211.38L1304.49 2139.24C1304.49 2139.24 1245.27 2191.58 1240.68 2210.37C1236.32 2228.24 1276.97 2251.96 1276.97 2251.96L1220.37 2211.38Z" fill="white" fill-opacity="0.7"/>
<path fill-rule="evenodd" clip-rule="evenodd" d="M1081.47 844.879C1387.48 844.879 1622.77 1121.3 1622.77 1468.61C1622.77 1815.91 1388.25 2145.89 1082.24 2145.89C776.235 2145.89 538.13 1821.87 538.13 1474.55C538.13 1127.25 775.465 844.879 1081.47 844.879ZM1081.47 876.776C791.892 876.776 557.859 1144.55 557.859 1473.21C557.859 1801.88 791.892 2069.65 1081.47 2069.65C1371.05 2069.65 1605.08 1801.88 1605.08 1473.21C1605.08 1144.55 1371.05 876.776 1081.47 876.776Z" fill="#808080" stroke="black" stroke-width="7.00056" stroke-miterlimit="2" stroke-linejoin="round"/>
<path fill-rule="evenodd" clip-rule="evenodd" d="M1202.58 2075.26C1202.58 2075.26 1319.93 2034.07 1359.46 2011.27C1393.41 1991.68 1443.39 1924.04 1443.39 1924.04C1373.56 1991.24 1288.04 2044.53 1202.58 2075.26Z" fill="white"/>
<path fill-rule="evenodd" clip-rule="evenodd" d="M1014.5 857.498C1014.5 857.498 1135.21 851.947 1179.24 858.256C1217.06 863.676 1287.33 907.19 1287.33 907.19C1199.43 871.399 1102.68 854.132 1014.5 857.498Z" fill="white"/>
<path fill-rule="evenodd" clip-rule="evenodd" d="M887.731 2027.47C900.693 2060.78 920.288 2091.55 942.237 2121.43L806.855 2078.43C666.582 1988.66 534.213 1852.89 536.133 1639.15C482.457 1426.43 528.017 1222.87 676.789 1025.87L727.372 1042.89C568.445 1252.52 531.161 1438.16 584.726 1639.39C649.195 1835.86 757.219 1952.32 887.731 2027.47Z" fill="black" fill-opacity="0.3"/>
<path d="M530.036 2103.09L792.992 2346.18L987.853 2203.68C872.375 2145.16 791.808 2057.26 717.995 1963.67L729.315 1901.37" stroke="black" stroke-width="7.99999" stroke-miterlimit="1.5" stroke-linecap="round" stroke-linejoin="round"/>
<path d="M1646.77 2103.17L1388.26 2344.16L1193.49 2211.7C1292.73 2140.54 1381.39 2058.11 1458.82 1963.75L1447.5 1901.45" stroke="black" stroke-width="7.99999" stroke-miterlimit="1.5" stroke-linecap="round" stroke-linejoin="round"/>
<path fill-rule="evenodd" clip-rule="evenodd" d="M806.059 2202.36L771.064 2124.81L657.382 2013.15C657.382 2013.15 622.05 2046.64 632.264 2062.96C654.178 2097.97 788.834 2223.24 788.834 2223.24L806.059 2202.36Z" fill="black" fill-opacity="0.3" stroke="black" stroke-width="12" stroke-miterlimit="1.5" stroke-linecap="round" stroke-linejoin="round"/>
<path fill-rule="evenodd" clip-rule="evenodd" d="M766.472 2120.83L780.677 2157.82L673.548 2104.01L656.73 2012.93L766.472 2120.83Z" fill="#54C5ED" stroke="black" stroke-width="12" stroke-miterlimit="1.5" stroke-linecap="round" stroke-linejoin="round"/>
<path fill-rule="evenodd" clip-rule="evenodd" d="M1352.19 2202.36L1387.18 2124.81L1500.87 2013.15C1500.87 2013.15 1536.2 2046.64 1525.98 2062.96C1504.07 2097.97 1369.41 2223.24 1369.41 2223.24L1352.19 2202.36Z" fill="black" fill-opacity="0.3" stroke="black" stroke-width="12" stroke-miterlimit="1.5" stroke-linecap="round" stroke-linejoin="round"/>
<path fill-rule="evenodd" clip-rule="evenodd" d="M1362.19 2291.67C1354.31 2280.01 1323.48 2237.37 1328.01 2232.03C1330.67 2228.9 1374.86 2259.19 1374.86 2259.19L1453.43 2177.91C1453.43 2177.91 1371.37 2305.28 1362.19 2291.67Z" fill="black" fill-opacity="0.3"/>
<path fill-rule="evenodd" clip-rule="evenodd" d="M1391.78 2120.83L1377.57 2157.82L1484.7 2104.01L1501.52 2012.93L1391.78 2120.83Z" fill="#54C5ED" stroke="black" stroke-width="12" stroke-miterlimit="1.5" stroke-linecap="round" stroke-linejoin="round"/>
<path fill-rule="evenodd" clip-rule="evenodd" d="M450.658 1053.4L321.685 1063.83L334.891 647.522L344.707 565.665L396.04 546.98L510.192 956.026L450.658 1053.4Z" fill="#54C5ED" stroke="black" stroke-width="12" stroke-miterlimit="1.5" stroke-linecap="round" stroke-linejoin="round"/>
<path fill-rule="evenodd" clip-rule="evenodd" d="M665.521 1003.83C606.11 1009.28 597.072 1006.2 574.575 990.136L648.277 665.615L667.536 603.833L717.713 599.168L759.515 927.6L665.521 1003.83Z" fill="#54C5ED" stroke="black" stroke-width="10.7061" stroke-miterlimit="1.5" stroke-linecap="round" stroke-linejoin="round"/>
<path fill-rule="evenodd" clip-rule="evenodd" d="M561.045 1175.77C503.419 1203.38 493.416 1203.12 465.858 1192.87L416.906 802.716L416.594 725.222L465.244 701.835L633.499 1054.78L561.045 1175.77Z" fill="#54C5ED" stroke="black" stroke-width="11.9928" stroke-miterlimit="1.5" stroke-linecap="round" stroke-linejoin="round"/>
<path fill-rule="evenodd" clip-rule="evenodd" d="M379.103 1142.28L269.827 1210.07L128.705 936.957L102.855 873.791L140.223 836.408L390.533 1044.75L379.103 1142.28Z" fill="#54C5ED" stroke="black" stroke-width="11.8918" stroke-miterlimit="1.5" stroke-linecap="round" stroke-linejoin="round"/>
<path fill-rule="evenodd" clip-rule="evenodd" d="M401.596 1164.06L267.999 1181.27L192.696 762.968L192.815 680.525L241.594 655.932L442.516 1052.04C435.316 1081.94 443.156 1115.71 401.596 1164.06Z" fill="#54C5ED" stroke="black" stroke-width="12" stroke-miterlimit="1.5" stroke-linecap="round" stroke-linejoin="round"/>
<path fill-rule="evenodd" clip-rule="evenodd" d="M357.238 1308.4C336.77 1374.09 310.621 1411.99 257.167 1388.59L96.3985 1153.2L70.5484 1090.03L107.916 1052.65L368.667 1210.87L357.238 1308.4Z" fill="#54C5ED" stroke="black" stroke-width="11.8918" stroke-miterlimit="1.5" stroke-linecap="round" stroke-linejoin="round"/>
<path fill-rule="evenodd" clip-rule="evenodd" d="M518.026 1344.9C484.813 1404.6 445.751 1419.01 402.769 1403.06L275.76 1078.69L254.432 1004.19L294.91 968.483L536.861 1238.05L518.026 1344.9Z" fill="#54C5ED" stroke="black" stroke-width="11.9928" stroke-miterlimit="1.5" stroke-linecap="round" stroke-linejoin="round"/>
<path fill-rule="evenodd" clip-rule="evenodd" d="M549.84 1602.29C542.315 1674 515.402 1693.03 456.646 1665.35L268.392 1389.42L236.571 1322.93L271.013 1281.98L537.245 1486.16L549.84 1602.29Z" fill="#54C5ED" stroke="black" stroke-width="11.9615" stroke-miterlimit="1.5" stroke-linecap="round" stroke-linejoin="round"/>
<path fill-rule="evenodd" clip-rule="evenodd" d="M1720.85 1055.07L1849.7 1066.9L1841.02 650.473L1832.09 568.514L1780.97 549.273L1662.38 957.054L1720.85 1055.07Z" fill="#54C5ED" stroke="black" stroke-width="12" stroke-miterlimit="1.5" stroke-linecap="round" stroke-linejoin="round"/>
<path fill-rule="evenodd" clip-rule="evenodd" d="M1506.54 1003.17C1565.89 1009.27 1574.96 1006.29 1597.63 990.464L1527.46 665.162L1508.87 603.174L1458.75 597.964L1413.38 925.923L1506.54 1003.17Z" fill="#54C5ED" stroke="black" stroke-width="10.7061" stroke-miterlimit="1.5" stroke-linecap="round" stroke-linejoin="round"/>
<path fill-rule="evenodd" clip-rule="evenodd" d="M1609.14 1176.24C1666.47 1204.47 1676.47 1204.31 1704.14 1194.36L1757.32 804.766L1758.48 727.281L1710.09 703.367L1538.01 1054.46L1609.14 1176.24Z" fill="#54C5ED" stroke="black" stroke-width="11.9928" stroke-miterlimit="1.5" stroke-linecap="round" stroke-linejoin="round"/>
<path fill-rule="evenodd" clip-rule="evenodd" d="M1791.44 1144.72L1899.97 1213.7L2044.05 942.131L2070.58 879.249L2033.62 841.463L1781.07 1047.07L1791.44 1144.72Z" fill="#54C5ED" stroke="black" stroke-width="11.8918" stroke-miterlimit="1.5" stroke-linecap="round" stroke-linejoin="round"/>
<path fill-rule="evenodd" clip-rule="evenodd" d="M1768.71 1166.25L1902.11 1184.91L1981.95 767.458L1982.73 685.018L1934.22 659.897L1729.01 1053.8C1735.88 1083.77 1727.68 1117.46 1768.71 1166.25Z" fill="#54C5ED" stroke="black" stroke-width="12" stroke-miterlimit="1.5" stroke-linecap="round" stroke-linejoin="round"/>
<path fill-rule="evenodd" clip-rule="evenodd" d="M1811.5 1311.07C1831.25 1376.98 1856.99 1415.16 1910.69 1392.34L2074.01 1158.71L2100.54 1095.83L2063.58 1058.04L1801.13 1213.42L1811.5 1311.07Z" fill="#54C5ED" stroke="black" stroke-width="11.8918" stroke-miterlimit="1.5" stroke-linecap="round" stroke-linejoin="round"/>
<path fill-rule="evenodd" clip-rule="evenodd" d="M1650.32 1345.82C1682.88 1405.88 1721.79 1420.71 1764.94 1405.23L1895.46 1082.26L1917.6 1008L1877.51 971.849L1632.65 1238.77L1650.32 1345.82Z" fill="#54C5ED" stroke="black" stroke-width="11.9928" stroke-miterlimit="1.5" stroke-linecap="round" stroke-linejoin="round"/>
<path fill-rule="evenodd" clip-rule="evenodd" d="M1615.71 1602.85C1622.46 1674.64 1649.16 1693.96 1708.22 1666.92L1899.46 1393.05L1932 1326.9L1898 1285.59L1629.57 1486.86L1615.71 1602.85Z" fill="#54C5ED" stroke="black" stroke-width="11.9615" stroke-miterlimit="1.5" stroke-linecap="round" stroke-linejoin="round"/>
<path fill-rule="evenodd" clip-rule="evenodd" d="M1394.44 907.019L1347.6 950.606L1411.44 1008.11L1543.13 1014.16L1545.49 1051.87L1477.71 1079.99L1553.67 1204.36L1630.29 1225.01L1572.2 1239.16L1606.55 1464.49L1714.12 1409.47L1634.41 1478.36L1533.04 1775.98L1691.69 1675.17L1669.57 1567.4L1913.3 1299.68L1898 1277.01L1829.32 1326.66L2039 1078.97L1857.09 1175.72L1779.18 1357.95L1714.12 1409.47L1688.84 1376.35L1892.25 984.875L1885.21 960.275L1951.64 672.633L1902.03 740.309L1738.05 1032.13L1805.26 559.262L1784.63 575.162L1734.93 707.867L1763.95 725.981L1738.05 1032.13L1647.29 1108.41L1734.93 707.867L1711.49 703.302L1610.07 919.926L1558.57 618.868L1540.33 613.193L1534.79 676.015L1592.12 938.602L1508.58 955.472L1489.48 602.807L1468.06 599.705L1428.95 847.6L1394.75 824.266L1367.38 679.46L1345.78 684.845L1386.71 868.019L1300.86 836.364L1247.88 728.305L1220.94 731.295L1233.22 824.162L1394.44 907.019Z" fill="black" fill-opacity="0.3"/>
<path d="M777.074 2436.13L866.992 2340.25L1029.08 2226.47L1039.37 2064.58" stroke="black" stroke-width="7.99999" stroke-miterlimit="1.5" stroke-linecap="round" stroke-linejoin="round"/>
<path d="M1398.95 2437.47L1308.1 2339.76L1154.45 2236.38L1141.2 2064.58" stroke="black" stroke-width="7.99999" stroke-miterlimit="1.5" stroke-linecap="round" stroke-linejoin="round"/>
<path fill-rule="evenodd" clip-rule="evenodd" d="M964.696 2595.15C930.126 2560.26 881.42 2522.33 863.904 2466.67C853.867 2434.78 867.238 2393.8 865.959 2352.56C865.329 2332.26 836.987 2337.97 841.162 2312.93C841.162 2312.93 828.891 2305.01 809.739 2291.59C802.731 2286.67 829.499 2237.79 820.913 2231.53C815.766 2227.77 775.687 2267.03 770.125 2262.85C710.573 2218.17 630.461 2150.97 599.562 2092.65C594.164 2082.47 589.445 2069.96 581.594 2046.39C574.879 2026.23 656.752 1972.5 656.752 1972.5L545.246 1947.44L523.951 1868.96L543.051 1656.67L503.118 1631.07L273.55 1349.03L260.997 1301.1L480.876 1441.32L478.581 1391.44L280.119 980.318L300.249 966.172L331.28 1006.34L223.457 671.758L196.027 680.928L201.873 768.492L226.652 961.78L131.037 849.21L106.524 871.111L230.154 1125.03L284.412 1162.13L204.91 1142.91L212.19 1203.27L89.3322 1074.72L77.0762 1089.64L99.4911 1152.56L206.156 1319.91L196.917 1368.92L474.199 1698.72L490.498 1944.28L546.134 2153.54L758.426 2388.18L793.589 2510.34C846.615 2555.62 902.965 2586.8 964.696 2595.15Z" fill="black" fill-opacity="0.3"/>
<path fill-rule="evenodd" clip-rule="evenodd" d="M896.238 2525C874.999 2541.24 860.815 2539.52 847.851 2518.32L855.032 2403.22L861.41 2378.76L883.881 2376.79L922.127 2492.69L896.238 2525Z" fill="#54C5ED" stroke="black" stroke-width="11.6424" stroke-miterlimit="1.5" stroke-linecap="round" stroke-linejoin="round"/>
<path fill-rule="evenodd" clip-rule="evenodd" d="M966.532 2552.71C945.292 2568.96 931.107 2567.23 918.144 2546.03L925.325 2430.93L931.703 2406.48L954.174 2404.5L992.42 2520.41L966.532 2552.71Z" fill="#54C5ED" stroke="black" stroke-width="11.6424" stroke-miterlimit="1.5" stroke-linecap="round" stroke-linejoin="round"/>
<path fill-rule="evenodd" clip-rule="evenodd" d="M1042.84 2566.19C1021.6 2582.44 1007.42 2580.72 994.457 2559.52L1001.64 2444.42L1008.02 2419.96L1030.49 2417.99L1068.73 2533.89L1042.84 2566.19Z" fill="#54C5ED" stroke="black" stroke-width="11.6424" stroke-miterlimit="1.5" stroke-linecap="round" stroke-linejoin="round"/>
<path fill-rule="evenodd" clip-rule="evenodd" d="M1100.71 2566.64C1121.95 2582.89 1136.14 2581.17 1149.1 2559.97L1141.92 2444.87L1135.54 2420.41L1113.07 2418.44L1074.82 2534.34L1100.71 2566.64Z" fill="#54C5ED" stroke="black" stroke-width="11.6424" stroke-miterlimit="1.5" stroke-linecap="round" stroke-linejoin="round"/>
<path fill-rule="evenodd" clip-rule="evenodd" d="M1177.12 2553.15C1198.36 2569.4 1212.55 2567.68 1225.51 2546.48L1218.33 2431.38L1211.95 2406.92L1189.48 2404.95L1151.23 2520.85L1177.12 2553.15Z" fill="#54C5ED" stroke="black" stroke-width="11.6424" stroke-miterlimit="1.5" stroke-linecap="round" stroke-linejoin="round"/>
<path fill-rule="evenodd" clip-rule="evenodd" d="M1265.69 2531.03C1286.93 2547.27 1301.11 2545.55 1314.08 2524.35L1306.89 2409.25L1300.52 2384.79L1278.04 2382.82L1239.8 2498.72L1265.69 2531.03Z" fill="#54C5ED" stroke="black" stroke-width="11.6424" stroke-miterlimit="1.5" stroke-linecap="round" stroke-linejoin="round"/>
<path fill-rule="evenodd" clip-rule="evenodd" d="M1286.41 2394.87L1292.21 2415.29L1300 2491.31C1300 2491.31 1298.66 2430.44 1297.05 2411.33C1296.22 2401.43 1286.41 2394.87 1286.41 2394.87Z" fill="white"/>
<path fill-rule="evenodd" clip-rule="evenodd" d="M1198.54 2415.58L1204.34 2436L1212.13 2512.02C1212.13 2512.02 1210.79 2451.15 1209.18 2432.04C1208.35 2422.14 1198.54 2415.58 1198.54 2415.58Z" fill="white"/>
<path fill-rule="evenodd" clip-rule="evenodd" d="M1121.51 2429.38L1127.41 2449.8L1135.34 2525.82C1135.34 2525.82 1133.98 2464.95 1132.34 2445.84C1131.5 2435.94 1121.51 2429.38 1121.51 2429.38Z" fill="white"/>
<path fill-rule="evenodd" clip-rule="evenodd" d="M1015.08 2429.71L1024.48 2448.77L1045.62 2522.22C1045.62 2522.22 1033.6 2462.54 1028.63 2444.01C1026.06 2434.41 1015.08 2429.71 1015.08 2429.71Z" fill="white"/>
<path fill-rule="evenodd" clip-rule="evenodd" d="M881.889 2499.22C876.969 2487.08 880.005 2414.37 880.005 2414.37L876.467 2370.88L851.905 2376.87L846.418 2519.52L865.491 2540.16L897.696 2529.77L914.733 2547.22L939.866 2570.25L998.647 2570.37L1030.89 2579.74L1012.08 2448.8L1006.94 2427.7L990.288 2513.1C990.288 2513.1 963.106 2551.36 957.468 2538.69C949.907 2521.69 944.923 2411.11 944.923 2411.11L929.689 2410.69L915.228 2493.92C915.228 2493.92 886.809 2511.36 881.889 2499.22Z" fill="black" fill-opacity="0.3"/>
<path fill-rule="evenodd" clip-rule="evenodd" d="M1079.34 2530.67L1115.27 2422.43C1115.27 2422.43 1100.02 2527.46 1103.64 2551.91C1105.48 2564.29 1128.68 2573.95 1137.01 2569.11C1145.35 2564.28 1149.28 2527.53 1149.28 2527.53L1188.91 2410.2L1171.97 2534.07C1171.97 2534.07 1186.7 2556.73 1196.06 2558.62C1205.41 2560.52 1228.11 2545.42 1228.11 2545.42L1230.35 2508.07L1277.54 2387.12L1261.92 2519.84L1275.09 2538.08L1228.11 2545.42L1207.5 2564.26L1187.88 2561.72L1143.32 2576.56L1123.08 2578.37C1097.19 2570.44 1087.22 2551.29 1079.34 2530.67Z" fill="black" fill-opacity="0.3"/>
<path fill-rule="evenodd" clip-rule="evenodd" d="M506.537 1188.88L535.928 1183.89L442.29 715.946L414.982 721.127L411.305 805.855L430.449 901.162L389.872 860.69L377.98 561.881L354.014 567.307L327.13 817.67L404.043 990.799L334.616 1008.01L506.537 1188.88Z" fill="black" fill-opacity="0.3"/>
<path fill-rule="evenodd" clip-rule="evenodd" d="M635.773 995.063L692.181 601.906L672.01 603.65L619.265 795.662L569.655 895.633L586.367 622.619L563.194 615.947L541.23 672.397L507.939 781.417L613.401 1005.11L627.477 1025.09L635.773 995.063Z" fill="black" fill-opacity="0.3"/>
<path fill-rule="evenodd" clip-rule="evenodd" d="M768.522 669.643L753.785 855.488L734.872 706.534L768.522 669.643Z" fill="black" fill-opacity="0.3"/>
<path fill-rule="evenodd" clip-rule="evenodd" d="M871.664 826.887L904.646 722.76L886.056 713.508L792.167 850.236L871.664 826.887Z" fill="black" fill-opacity="0.3"/>
<path fill-rule="evenodd" clip-rule="evenodd" d="M1631.21 1879.39C1632.21 1879.95 1671.79 1904.42 1672.59 1911.48C1674.11 1924.81 1660.2 2010.97 1660.2 2010.97C1644.93 1984.5 1628.54 1964.96 1611.65 1948.51L1597.16 1902.65L1607.12 1876.54L1631.21 1879.39Z" fill="#1D9A6C" stroke="black" stroke-width="8.99999" stroke-miterlimit="1.5" stroke-linecap="round" stroke-linejoin="round"/>
<path fill-rule="evenodd" clip-rule="evenodd" d="M1644.11 1753.62C1659.65 1759.65 1673.84 1768.42 1687.4 1778.52L1681.28 1865.87C1681.28 1865.87 1631.37 1810.3 1630.23 1817.06L1611.61 1776.29L1619.03 1753.28L1644.11 1753.62Z" fill="#1D9A6C" stroke="black" stroke-width="8.96056" stroke-miterlimit="1.5" stroke-linecap="round" stroke-linejoin="round"/>
<path fill-rule="evenodd" clip-rule="evenodd" d="M1663.88 1722.54L1625.2 2082.16L1499.62 2202.64L1602.51 2079.35L1611.06 2033.64L1507.88 1969.69L1405.93 2049.95L1498.76 1953.76C1498.76 1953.76 1599.97 2002.18 1614.08 1987.2C1630.16 1970.12 1663.88 1722.54 1663.88 1722.54Z" fill="white" fill-opacity="0.8"/>
<path fill-rule="evenodd" clip-rule="evenodd" d="M1131.59 2177.48L1137.08 2241.15L1302.48 2350.6C1232.16 2348 1165.74 2360.45 1099.79 2374.75C1099.79 2374.75 1233.16 2337.03 1232.79 2330.72C1231.48 2308.89 1116.01 2246.78 1116.01 2246.78L1131.59 2177.48Z" fill="white" fill-opacity="0.8"/>
<path fill-rule="evenodd" clip-rule="evenodd" d="M1168.09 2160.75L1291.15 2101.63L1182.99 2170.14C1182.99 2170.14 1172.45 2208.33 1182.57 2220.33C1202.93 2244.48 1305.19 2315.05 1305.19 2315.05L1170.95 2231.67L1168.09 2160.75Z" fill="white" fill-opacity="0.8"/>
<path fill-rule="evenodd" clip-rule="evenodd" d="M1356.8 1021.61C1356.8 1021.61 1525.22 1227.56 1524.7 1359.24C1523.8 1587.83 1415.96 1824.39 1415.96 1824.39C1525.65 1521.86 1477.75 1244.58 1356.8 1021.61Z" fill="white"/>
<path fill-rule="evenodd" clip-rule="evenodd" d="M996.192 2369.54C996.192 2369.54 961.54 2340.54 962.706 2331.49C963.872 2322.44 997.574 2325.15 1003.19 2315.23C1008.75 2305.41 1010.45 2282.18 1010.45 2282.18C1010.45 2282.18 992.937 2301.4 982.588 2309.14C970.66 2318.07 943.166 2310.31 946.979 2330.68C948.877 2340.82 996.192 2369.54 996.192 2369.54Z" fill="white"/>
</svg>
