<svg width="2160" height="2700" viewBox="0 0 2160 2700" fill="none" xmlns="http://www.w3.org/2000/svg">
<g clip-path="url(#clip0_605_633)">
<path fill-rule="evenodd" clip-rule="evenodd" d="M1083.04 839.159C1452.98 833.551 1894.71 998.692 1894.71 998.692C1894.71 998.692 1925.55 1192.51 1967.92 1325.75C1973.03 1341.82 1960.47 1382.68 1960.47 1382.68L1686.51 1717.3L1594.21 2195.86L1669.89 2383.9L1653.42 2510.9L1565.39 2572.06L1438.14 2526.18C1438.14 2526.18 1179.65 2332.99 1090.4 2335.33C993.136 2337.9 742.367 2528.87 742.367 2528.87L621.895 2580.11L521.662 2517.3L509.592 2378.28L566.564 2201.4L471.911 1717.3L197.518 1387.95C197.518 1387.95 189.246 1363.75 191.345 1353.67C217.181 1229.54 258.762 1021.24 258.762 1021.24C258.762 1021.24 721.076 844.647 1083.04 839.159ZM1082.49 885.247C797.884 885.247 566.82 1148.41 566.82 1472.55C566.82 1796.7 806.41 2062.89 1082.49 2059.86C1371.23 2056.69 1598.17 1796.7 1598.17 1472.55C1598.17 1148.41 1367.1 885.247 1082.49 885.247Z" fill="#00A8E4" stroke="black" stroke-width="16.178" stroke-miterlimit="1.5" stroke-linecap="round" stroke-linejoin="round"/>
<path d="M1652.54 1893.41L1586.64 1840.05L1624.48 1609.12" stroke="black" stroke-width="13" stroke-miterlimit="1.5" stroke-linecap="round" stroke-linejoin="round"/>
<path d="M505.076 1890.22L565.625 1840.05L531.446 1605.96" stroke="black" stroke-width="13" stroke-miterlimit="1.5" stroke-linecap="round" stroke-linejoin="round"/>
<path d="M1608.26 2528.87L1514.45 2441.55L1289.78 2070.91" stroke="black" stroke-width="13" stroke-miterlimit="1.5" stroke-linecap="round" stroke-linejoin="round"/>
<path d="M566.05 2538.72L668.289 2441.55L892.959 2070.91" stroke="black" stroke-width="13" stroke-miterlimit="1.5" stroke-linecap="round" stroke-linejoin="round"/>
<path fill-rule="evenodd" clip-rule="evenodd" d="M496.102 1385.7L569.331 1266.48C564.72 1264.62 561.312 1260.89 560.344 1256.67C559.377 1252.45 560.997 1248.35 564.611 1245.86L594.312 1250.71L430.335 1522.97L405.711 1574.36C402.772 1580.49 398.486 1585.06 394.782 1586.01L350.848 1597.24C347.762 1598.02 345.517 1596.18 344.85 1592.3C344.181 1588.43 345.176 1583.02 347.511 1577.84L380.171 1505.35L336.197 1489.91C331.495 1488.26 327.912 1484.7 326.672 1480.57L278.262 1551.36C275.815 1554.94 273.005 1557.44 270.459 1558.31C267.913 1559.17 265.838 1558.33 264.695 1555.97L232.882 1490.35C230.617 1485.69 232.506 1476.34 237.206 1468.96L318.417 1341.66L328.225 1357.58L255.361 1471.8L278.829 1520.21L322.813 1455.88L347.694 1374.04C347.088 1370.07 360.276 1361.14 364.735 1362.5L380.26 1367.23L449.278 1445.87L467.577 1407.68L468.338 1380.16L359.873 1306C356.812 1303.91 354.707 1300.93 354.021 1297.73C353.336 1294.53 354.126 1291.37 356.221 1288.95L414.45 1221.6C418.598 1216.79 426.717 1216.05 433.022 1219.88L529.43 1278.58L582.512 1167.8C585.747 1161.04 590.583 1156.25 594.451 1155.98L622.285 1146.56L682.271 930.291C676.152 930.595 672.124 920.714 655.681 923.738C653.257 924.183 596.242 1097.12 592.392 1100.75C587.01 1105.82 501.136 1224.52 501.136 1224.52C498.383 1228.85 495.083 1231.82 492.189 1232.54C489.293 1233.28 487.133 1231.69 486.337 1228.25L476.913 1187.44C476.022 1183.6 476.952 1177.95 479.369 1172.52L555.12 925.889L500.077 911.406L510.644 1038.1C511.307 1042.86 509.61 1049.6 506.296 1055.35C502.988 1061.09 498.676 1064.78 495.275 1064.78L441.169 1064.74L321.194 1299.18C318.449 1304.54 314.7 1308.57 311.32 1309.78C307.941 1311 305.426 1309.22 304.695 1305.11L291.244 1229.29C290.373 1224.38 292.204 1217.1 295.829 1211.06L433.524 981.689L444.286 996.068L312.627 1215.38L321.162 1263.48L433.725 1043.53C437.082 1036.97 441.86 1032.54 445.589 1032.55L486.834 1032.58L475.521 900.528C474.816 895.489 476.768 888.25 480.424 882.35C484.078 876.449 488.674 873.118 491.964 873.985L576.481 896.224C578.686 896.805 580.046 899.214 580.234 902.871C580.422 906.529 579.42 911.104 577.47 915.493L498.038 1170.4L502.79 1190.95C517.892 1168.03 545.632 1115.83 569.104 1087.2C586.478 1066.01 630.399 895.308 639.473 893.637C665.171 888.908 706.788 907.921 706.788 907.921C709.653 907.94 711.453 910.589 711.605 915L643.425 1152.5C643.592 1157.33 641.737 1163.57 638.59 1168.78C635.441 1173.99 631.494 1177.36 628.272 1177.59L590.971 1187.69L496.102 1385.7ZM519.099 1300.15L430.031 1245.93L387.078 1295.62L488.16 1364.73L519.099 1300.15ZM464.977 1450.67L466.377 1451.09L466.473 1447.54L464.977 1450.67ZM417.945 1460.96L405.23 1489.18L425.179 1496.18L438.98 1467.37L417.945 1460.96ZM389.887 1483.79L402.322 1456.19L369.65 1389.88L342.703 1465.64L389.887 1483.79ZM414.93 1517.56L395.513 1510.74L372.455 1561.92L396.641 1555.74L414.93 1517.56Z" fill="#808080" stroke="black" stroke-width="5.85214" stroke-miterlimit="2" stroke-linejoin="round"/>
<path fill-rule="evenodd" clip-rule="evenodd" d="M282.716 1237.37L338.461 1109.04C342.635 1111.75 347.638 1112.41 351.656 1110.78C355.665 1109.16 358.101 1105.48 358.065 1101.09L337.076 1079.53L207.903 1369.92L179.899 1419.55C176.556 1425.47 175.266 1431.6 176.616 1435.18L192.583 1477.62C193.708 1480.6 196.505 1481.38 200.066 1479.71C203.623 1478.04 207.486 1474.12 210.396 1469.24L251.089 1400.94L288.938 1428.13C292.985 1431.04 297.962 1431.93 302.056 1430.58L271.776 1510.82C270.247 1514.87 269.804 1518.61 270.555 1521.19C271.305 1523.78 273.18 1525 275.771 1524.58L347.777 1513.05C352.901 1512.24 359.481 1505.33 362.829 1497.25L420.628 1357.75L401.96 1358.84L350.101 1484L296.983 1492.5L324.496 1419.6L377.313 1352.31C380.911 1350.54 380.68 1334.61 377.01 1331.73L364.235 1321.72L260.236 1310.22L281.054 1273.33L303.172 1256.94L426.099 1303.34C429.567 1304.65 433.215 1304.67 436.229 1303.4C439.243 1302.13 441.378 1299.67 442.163 1296.57L463.998 1210.25C465.557 1204.1 461.513 1197.02 454.759 1194.05L351.41 1148.67L411.788 1041.69C415.475 1035.16 416.626 1028.46 414.632 1025.13L406.403 996.923L549.273 823.838C552.53 829.027 562.937 826.667 569.88 841.876C570.905 844.117 461.845 989.937 461.078 995.171C460.001 1002.49 411.931 1140.88 411.931 1140.88C409.957 1145.62 409.418 1150.02 410.48 1152.81C411.538 1155.61 414.077 1156.47 417.356 1155.15L456.197 1139.49C459.855 1138.02 463.95 1134.02 467.021 1128.92L625.739 925.523L669.149 962.334L559.262 1026.27C554.983 1028.45 550.432 1033.71 547.615 1039.72C544.806 1045.72 544.251 1051.37 546.204 1054.15L577.239 1098.47L453.853 1331.13C451.03 1336.46 449.877 1341.84 450.819 1345.3C451.762 1348.77 454.659 1349.81 458.447 1348.05L528.29 1315.63C532.815 1313.53 537.733 1307.86 540.603 1301.43L649.684 1057.15L631.733 1056.57L527.435 1290.14L483.126 1310.7L598.887 1092.42C602.34 1085.91 603.229 1079.46 601.089 1076.4L577.426 1042.62L692.135 976.226C696.669 973.916 701.482 968.169 704.224 961.792C706.965 955.416 707.062 949.741 704.467 947.541L637.812 891.018C636.072 889.543 633.318 889.809 630.213 891.751C627.108 893.693 623.933 897.136 621.454 901.249L458.057 1112.41L438.494 1120.29C448.628 1094.78 475.508 1042.14 485.521 1006.5C492.939 980.111 607.667 846.304 603.837 837.91C592.988 814.14 553.559 790.927 553.559 790.927C551.901 788.59 548.699 788.634 544.997 791.036L389.422 983.001C385.364 985.634 381.316 990.728 378.851 996.291C376.382 1001.86 375.881 1007.03 377.538 1009.8L390.641 1046.15L282.716 1237.37ZM339.658 1169.5L435.124 1211.43L419.02 1275.1L304.459 1231.86L339.658 1169.5ZM247.311 1300.1L246.164 1299.19L249.017 1297.08L247.311 1300.1ZM265.827 1344.54L249.983 1371.13L232.814 1358.8L248.515 1330.98L265.827 1344.54ZM263.194 1380.62L278.688 1354.61L351.749 1343.39L305.101 1408.89L263.194 1380.62ZM221.167 1379.44L237.879 1391.45L209.15 1439.67L200.353 1416.31L221.167 1379.44Z" fill="#808080" stroke="black" stroke-width="5.85213" stroke-miterlimit="2" stroke-linejoin="round"/>
<path fill-rule="evenodd" clip-rule="evenodd" d="M630.978 1148.63L561.761 1270.23C557.903 1267.08 553 1265.89 548.831 1267.08C544.67 1268.26 541.853 1271.66 541.417 1276.02L559.967 1299.72L719.607 1024.89L752.783 978.561C756.744 973.031 758.686 967.073 757.728 963.373L746.416 919.46C745.617 916.377 742.921 915.296 739.2 916.581C735.484 917.859 731.223 921.336 727.805 925.878L680.005 989.411L645.299 958.307C641.587 954.981 636.735 953.559 632.52 954.461L671.25 877.941C673.206 874.073 674.049 870.404 673.58 867.756C673.111 865.109 671.378 863.694 668.757 863.83L595.93 867.55C590.747 867.812 583.462 873.972 579.266 881.64L506.806 1014.12L525.483 1015.05L590.496 896.184L644.22 893.44L609.03 962.965L549.285 1024.19C545.517 1025.56 544.035 1041.43 547.374 1044.68L558.999 1056.01L661.16 1078.62L636.497 1113.05L612.745 1126.97L495.518 1067.63C492.211 1065.95 488.586 1065.54 485.453 1066.48C482.32 1067.42 479.933 1069.63 478.819 1072.64L447.831 1156.11C445.621 1162.05 448.88 1169.53 455.276 1173.21L553.148 1229.43L481.619 1329.3C477.253 1335.39 475.387 1341.94 477.012 1345.46L482.162 1374.39L321.513 1531.11C318.832 1525.6 308.232 1526.83 302.964 1510.97C302.187 1508.63 426.289 1375.38 427.615 1370.25C429.472 1363.09 492.14 1230.67 492.14 1230.67C494.612 1226.17 495.621 1221.85 494.865 1218.96C494.114 1216.07 491.682 1214.94 488.28 1215.91L447.981 1227.3C444.186 1228.37 439.685 1231.9 436.084 1236.64L256.421 1421.8L217.219 1380.53L333.343 1328.78C337.832 1327.07 342.921 1322.34 346.368 1316.66C349.806 1311 350.964 1305.44 349.322 1302.46L323.231 1255.06L470.912 1037.01C474.291 1032.03 476.016 1026.8 475.452 1023.25C474.887 1019.71 472.118 1018.36 468.164 1019.7L395.241 1044.42C390.515 1046.03 385.016 1051.14 381.471 1057.22L246.764 1288.36L264.549 1290.87L393.349 1069.86L439.612 1054.18L301.058 1258.75C296.925 1264.86 295.348 1271.17 297.147 1274.44L317.041 1310.57L195.86 1364.25C191.104 1366.06 185.7 1371.26 182.29 1377.3C178.879 1383.35 178.172 1388.98 180.516 1391.45L240.709 1454.81C242.28 1456.46 245.046 1456.49 248.342 1454.89C251.639 1453.3 255.165 1450.22 258.072 1446.39L443.221 1254.02L463.518 1248.29C450.7 1272.56 418.317 1322.01 404.53 1356.37C394.32 1381.8 265.872 1502.5 268.778 1511.26C277.009 1536.06 313.715 1563.37 313.715 1563.37C315.111 1565.88 318.3 1566.18 322.239 1564.19L497.548 1390.06C501.865 1387.87 506.438 1383.24 509.486 1377.98C512.54 1372.71 513.593 1367.63 512.244 1364.69L503.124 1327.14L630.978 1148.63ZM567.071 1209.99L476.665 1158.04L499.52 1096.47L608.769 1151.78L567.071 1209.99ZM672.922 1090.07L673.965 1091.09L670.901 1092.89L672.922 1090.07ZM659.29 1043.9L677.901 1019.16L693.644 1033.27L675.044 1059.24L659.29 1043.9ZM665.786 1008.31L647.587 1032.5L573.743 1035.8L627.161 975.697L665.786 1008.31ZM707.443 1013.99L692.119 1000.26L725.865 955.406L732.1 979.577L707.443 1013.99Z" fill="#808080" stroke="black" stroke-width="5.85214" stroke-miterlimit="2" stroke-linejoin="round"/>
<path fill-rule="evenodd" clip-rule="evenodd" d="M398.211 1033.06L312.592 1143.72C316.976 1146.07 319.963 1150.14 320.472 1154.44C320.979 1158.74 318.928 1162.64 315.068 1164.72L286.06 1156.71L478.353 903.657L508.358 855.215C511.939 849.433 516.691 845.349 520.476 844.81L565.362 838.363C568.515 837.915 570.549 839.988 570.795 843.917C571.044 847.839 569.474 853.109 566.595 858.011L526.332 926.569L568.391 946.643C572.889 948.79 576.068 952.722 576.857 956.96L632.596 891.78C635.413 888.487 638.476 886.298 641.101 885.713C643.725 885.127 645.698 886.183 646.58 888.654L671.155 957.311C672.906 962.195 670.022 971.289 664.557 978.111L570.133 1095.95L562.093 1079.07L646.813 973.339L628.684 922.692L578.04 981.914L544.506 1060.61C544.682 1064.62 530.61 1072.09 526.323 1070.25L511.396 1063.88L451.232 978.274L428.934 1014.28L425.219 1041.56L525.084 1126.95C527.902 1129.36 529.675 1132.54 530.013 1135.8C530.351 1139.05 529.225 1142.11 526.882 1144.29L461.75 1204.99C457.11 1209.32 448.958 1209.19 443.102 1204.7L353.562 1135.98L288.88 1240.41C284.937 1246.79 279.614 1251.03 275.739 1250.88L247.054 1257.25L164.168 1465.82C170.284 1466.18 173.227 1476.43 189.9 1475.19C192.358 1475.01 267.632 1309.21 271.849 1306.01C277.746 1301.55 375.881 1192.77 375.881 1192.77C379.083 1188.76 382.684 1186.16 385.638 1185.75C388.597 1185.33 390.573 1187.14 390.994 1190.65L395.978 1232.23C396.451 1236.15 394.919 1241.66 391.932 1246.81L290.109 1483.86L343.276 1504.18L346.39 1377.09C346.241 1372.28 348.654 1365.77 352.567 1360.4C356.473 1355.05 361.156 1351.84 364.537 1352.21L418.326 1358.07L562.806 1137.89C566.111 1132.85 570.271 1129.25 573.762 1128.4C577.252 1127.56 579.561 1129.6 579.847 1133.76L585.069 1210.59C585.408 1215.57 582.804 1222.61 578.551 1228.22L416.999 1441.46L407.845 1426.01L562.315 1222.12L559 1173.38L423.447 1379.96C419.403 1386.12 414.178 1390 410.47 1389.6L369.468 1385.13L366.521 1517.64C366.68 1522.72 363.961 1529.71 359.693 1535.18C355.425 1540.66 350.498 1543.47 347.32 1542.26L265.683 1511.06C263.553 1510.25 262.46 1507.71 262.667 1504.05C262.873 1500.39 264.361 1495.95 266.772 1491.8L373.143 1246.91L370.628 1225.97C353.149 1247.13 319.96 1296.04 293.546 1321.98C273.995 1341.19 211.979 1506.18 202.778 1506.86C176.721 1508.8 137.388 1485.43 137.388 1485.43C134.542 1485.1 133.038 1482.27 133.361 1477.87L226.675 1249.08C227.028 1244.25 229.543 1238.25 233.231 1233.41C236.923 1228.57 241.209 1225.64 244.438 1225.76L282.607 1219.73L398.211 1033.06ZM366.152 1115.65L448.875 1179.12L496.92 1134.35L403.853 1054.77L366.152 1115.65ZM436.14 971.819L434.792 971.251L434.315 974.768L436.14 971.819ZM484.004 966.645L499.68 939.952L480.6 930.847L463.782 958.004L484.004 966.645ZM514.355 946.962L499.025 973.065L524.38 1042.5L559.314 970.074L514.355 946.962ZM493.087 910.695L511.658 919.559L540.084 871.158L515.374 874.699L493.087 910.695Z" fill="#808080" stroke="black" stroke-width="5.85213" stroke-miterlimit="2" stroke-linejoin="round"/>
<path fill-rule="evenodd" clip-rule="evenodd" d="M1659.19 1396.05L1585.96 1276.83C1590.57 1274.96 1593.98 1271.24 1594.95 1267.01C1595.92 1262.8 1594.3 1258.69 1590.68 1256.21L1560.98 1261.05L1724.96 1533.32L1749.58 1584.7C1752.52 1590.84 1756.81 1595.41 1760.51 1596.35L1804.44 1607.58C1807.53 1608.37 1809.78 1606.53 1810.44 1602.65C1811.11 1598.77 1810.12 1593.37 1807.78 1588.18L1775.12 1515.69L1819.1 1500.26C1823.8 1498.61 1827.38 1495.04 1828.62 1490.91L1877.03 1561.7C1879.48 1565.28 1882.29 1567.79 1884.83 1568.65C1887.38 1569.52 1889.45 1568.68 1890.6 1566.32L1922.41 1500.7C1924.68 1496.03 1922.79 1486.68 1918.09 1479.31L1836.88 1352L1827.07 1367.92L1899.93 1482.15L1876.46 1530.55L1832.48 1466.23L1807.6 1384.39C1808.2 1380.42 1795.02 1371.48 1790.56 1372.84L1775.03 1377.57L1706.02 1456.22L1687.72 1418.02L1686.96 1390.5L1795.42 1316.34C1798.48 1314.25 1800.59 1311.27 1801.27 1308.07C1801.96 1304.87 1801.17 1301.72 1799.07 1299.29L1740.84 1231.94C1736.7 1227.14 1728.58 1226.4 1722.27 1230.23L1625.86 1288.93L1572.78 1178.14C1569.55 1171.38 1564.71 1166.59 1560.84 1166.32L1533.01 1156.9L1473.02 940.635C1479.14 940.939 1483.17 931.058 1499.61 934.082C1502.04 934.527 1559.05 1107.46 1562.9 1111.09C1568.28 1116.17 1654.16 1234.86 1654.16 1234.86C1656.91 1239.2 1660.21 1242.16 1663.1 1242.89C1666 1243.62 1668.16 1242.03 1668.96 1238.59L1678.38 1197.79C1679.27 1193.94 1678.34 1188.3 1675.92 1182.86L1600.17 936.233L1655.22 921.75L1644.65 1048.44C1643.99 1053.2 1645.68 1059.94 1649 1065.7C1652.31 1071.44 1656.62 1075.13 1660.02 1075.12L1714.12 1075.08L1834.1 1309.52C1836.84 1314.88 1840.59 1318.91 1843.97 1320.13C1847.35 1321.34 1849.87 1319.56 1850.6 1315.45L1864.05 1239.63C1864.92 1234.72 1863.09 1227.44 1859.46 1221.4L1721.77 992.033L1711.01 1006.41L1842.67 1225.73L1834.13 1273.82L1721.57 1053.87C1718.21 1047.31 1713.43 1042.89 1709.7 1042.89L1668.46 1042.93L1679.77 910.872C1680.48 905.832 1678.52 898.594 1674.87 892.694C1671.21 886.793 1666.62 883.462 1663.33 884.328L1578.81 906.567C1576.61 907.148 1575.25 909.557 1575.06 913.215C1574.87 916.873 1575.87 921.447 1577.82 925.836L1657.25 1180.75L1652.5 1201.29C1637.4 1178.37 1609.66 1126.18 1586.19 1097.55C1568.82 1076.35 1524.89 905.651 1515.82 903.98C1490.12 899.251 1448.5 918.264 1448.5 918.264C1445.64 918.283 1443.84 920.933 1443.69 925.344L1511.87 1162.84C1511.7 1167.68 1513.56 1173.91 1516.7 1179.12C1519.85 1184.34 1523.8 1187.71 1527.02 1187.94L1564.32 1198.03L1659.19 1396.05ZM1636.19 1310.49L1725.26 1256.28L1768.22 1305.96L1667.13 1375.07L1636.19 1310.49ZM1690.32 1461.01L1688.92 1461.43L1688.82 1457.88L1690.32 1461.01ZM1737.35 1471.3L1750.06 1499.52L1730.11 1506.52L1716.31 1477.72L1737.35 1471.3ZM1765.41 1494.13L1752.97 1466.53L1785.64 1400.23L1812.59 1475.99L1765.41 1494.13ZM1740.36 1527.9L1759.78 1521.09L1782.84 1572.26L1758.65 1566.09L1740.36 1527.9Z" fill="#808080" stroke="black" stroke-width="5.85214" stroke-miterlimit="2" stroke-linejoin="round"/>
<path fill-rule="evenodd" clip-rule="evenodd" d="M1872.58 1247.71L1816.83 1119.38C1812.66 1122.09 1807.66 1122.75 1803.64 1121.13C1799.63 1119.5 1797.19 1115.82 1797.23 1111.44L1818.22 1089.87L1947.39 1380.27L1975.39 1429.89C1978.74 1435.82 1980.03 1441.95 1978.68 1445.52L1962.71 1487.97C1961.58 1490.94 1958.79 1491.73 1955.23 1490.05C1951.67 1488.38 1947.81 1484.47 1944.9 1479.58L1904.2 1411.28L1866.36 1438.47C1862.31 1441.38 1857.33 1442.27 1853.24 1440.93L1883.52 1521.16C1885.05 1525.22 1885.49 1528.96 1884.74 1531.54C1883.99 1534.12 1882.11 1535.34 1879.52 1534.93L1807.52 1523.4C1802.39 1522.58 1795.81 1515.67 1792.46 1507.6L1734.66 1368.1L1753.33 1369.18L1805.19 1494.35L1858.31 1502.85L1830.8 1429.94L1777.98 1362.66C1774.38 1360.88 1774.61 1344.95 1778.28 1342.08L1791.06 1332.06L1895.06 1320.56L1874.24 1283.68L1852.12 1267.29L1729.19 1313.69C1725.73 1315 1722.08 1315.02 1719.06 1313.75C1716.05 1312.47 1713.92 1310.02 1713.13 1306.91L1691.29 1220.6C1689.74 1214.44 1693.78 1207.36 1700.53 1204.39L1803.88 1159.02L1743.5 1052.03C1739.82 1045.51 1738.67 1038.8 1740.66 1035.48L1748.89 1007.27L1606.02 834.184C1602.76 839.373 1592.36 837.013 1585.41 852.222C1584.39 854.463 1693.45 1000.28 1694.22 1005.52C1695.29 1012.84 1743.36 1151.23 1743.36 1151.23C1745.34 1155.97 1745.87 1160.37 1744.81 1163.16C1743.75 1165.95 1741.22 1166.81 1737.94 1165.49L1699.1 1149.83C1695.44 1148.36 1691.34 1144.37 1688.27 1139.27L1529.55 935.868L1486.14 972.68L1596.03 1036.62C1600.31 1038.8 1604.86 1044.05 1607.68 1050.06C1610.49 1056.07 1611.04 1061.71 1609.09 1064.5L1578.05 1108.82L1701.44 1341.48C1704.26 1346.8 1705.42 1352.18 1704.47 1355.65C1703.53 1359.11 1700.63 1360.15 1696.85 1358.4L1627 1325.98C1622.48 1323.88 1617.56 1318.2 1614.69 1311.77L1505.61 1067.5L1523.56 1066.92L1627.86 1300.48L1672.17 1321.05L1556.41 1102.77C1552.95 1096.26 1552.06 1089.8 1554.2 1086.75L1577.87 1052.97L1463.16 986.572C1458.62 984.262 1453.81 978.515 1451.07 972.138C1448.33 965.761 1448.23 960.087 1450.83 957.886L1517.48 901.364C1519.22 899.889 1521.97 900.155 1525.08 902.097C1528.19 904.039 1531.36 907.481 1533.84 911.595L1697.24 1122.76L1716.8 1130.64C1706.66 1105.12 1679.78 1052.48 1669.77 1016.84C1662.35 990.457 1547.63 856.65 1551.46 848.256C1562.31 824.486 1601.73 801.273 1601.73 801.273C1603.39 798.936 1606.59 798.979 1610.3 801.382L1765.87 993.347C1769.93 995.98 1773.98 1001.07 1776.44 1006.64C1778.91 1012.21 1779.41 1017.37 1777.76 1020.15L1764.65 1056.5L1872.58 1247.71ZM1815.64 1179.84L1720.17 1221.77L1736.27 1285.44L1850.83 1242.2L1815.64 1179.84ZM1907.98 1310.45L1909.13 1309.54L1906.28 1307.43L1907.98 1310.45ZM1889.47 1354.89L1905.31 1381.48L1922.48 1369.14L1906.78 1341.32L1889.47 1354.89ZM1892.1 1390.96L1876.61 1364.96L1803.54 1353.74L1850.19 1419.24L1892.1 1390.96ZM1934.13 1389.79L1917.41 1401.8L1946.14 1450.02L1954.94 1426.66L1934.13 1389.79Z" fill="#808080" stroke="black" stroke-width="5.85213" stroke-miterlimit="2" stroke-linejoin="round"/>
<path fill-rule="evenodd" clip-rule="evenodd" d="M1548.83 1112.3L1595.44 1244.22C1599.8 1241.81 1604.83 1241.5 1608.73 1243.4C1612.61 1245.31 1614.78 1249.15 1614.44 1253.52L1591.99 1273.56L1483.5 974.822L1459.04 923.355C1456.12 917.212 1455.26 911.004 1456.86 907.532L1475.77 866.313C1477.1 863.42 1479.94 862.834 1483.38 864.756C1486.81 866.672 1490.39 870.847 1492.95 875.923L1528.75 946.911L1568.41 922.438C1572.65 919.822 1577.68 919.28 1581.67 920.914L1557.09 838.749C1555.85 834.596 1555.67 830.836 1556.6 828.313C1557.53 825.79 1559.49 824.704 1562.04 825.301L1633.06 841.848C1638.12 843.023 1644.2 850.374 1646.97 858.664L1694.84 1001.88L1676.3 999.486L1633.34 870.992L1580.95 858.786L1603.29 933.44L1651.26 1004.27C1654.72 1006.29 1653.37 1022.16 1649.51 1024.78L1636.06 1033.87L1531.51 1038.05L1549.7 1076.3L1570.61 1094.2L1696.49 1056.54C1700.04 1055.47 1703.68 1055.71 1706.6 1057.19C1709.51 1058.67 1711.47 1061.27 1712.04 1064.42L1727.77 1152.06C1728.89 1158.3 1724.36 1165.08 1717.41 1167.57L1611.14 1205.59L1663.87 1316.54C1667.09 1323.31 1667.77 1330.08 1665.54 1333.26L1655.36 1360.82L1785.74 1543.5C1789.35 1538.55 1799.57 1541.63 1807.56 1526.95C1808.74 1524.78 1710.17 1371.68 1709.77 1366.4C1709.21 1359.02 1670.96 1217.6 1670.96 1217.6C1669.33 1212.74 1669.1 1208.31 1670.35 1205.6C1671.6 1202.89 1674.2 1202.21 1677.38 1203.75L1715.02 1222.1C1718.57 1223.82 1722.37 1228.1 1725.08 1233.39L1869.15 1447.42L1915.03 1413.75L1809.9 1342.26C1805.78 1339.78 1801.61 1334.23 1799.22 1328.03C1796.84 1321.85 1796.68 1316.17 1798.83 1313.53L1832.89 1271.5L1726.12 1030.76C1723.68 1025.25 1722.91 1019.8 1724.09 1016.41C1725.27 1013.02 1728.24 1012.19 1731.89 1014.2L1799.29 1051.44C1803.66 1053.85 1808.16 1059.86 1810.58 1066.47L1902.26 1317.8L1884.31 1317.12L1796.65 1076.81L1753.89 1053.19L1854.06 1279.05C1857.05 1285.79 1857.48 1292.29 1855.14 1295.18L1829.16 1327.22L1938.93 1401.5C1943.3 1404.12 1947.69 1410.19 1949.98 1416.75C1952.27 1423.3 1951.97 1428.97 1949.22 1430.98L1878.77 1482.69C1876.93 1484.04 1874.2 1483.58 1871.24 1481.43C1868.28 1479.27 1865.36 1475.61 1863.17 1471.34L1714.98 1249.24L1696.02 1240.01C1704.34 1266.17 1727.46 1320.56 1734.95 1356.82C1740.5 1383.66 1845.57 1525.18 1841.16 1533.28C1828.67 1556.24 1787.71 1576.63 1787.71 1576.63C1785.89 1578.84 1782.7 1578.57 1779.17 1575.92L1637.44 1373.52C1633.58 1370.61 1629.9 1365.24 1627.83 1359.52C1625.76 1353.79 1625.62 1348.6 1627.47 1345.95L1643.09 1310.61L1548.83 1112.3ZM1600.87 1183.99L1699.05 1148.86L1687.45 1084.22L1570.14 1119.32L1600.87 1183.99ZM1517.91 1047.23L1516.7 1048.06L1519.4 1050.37L1517.91 1047.23ZM1539.5 1004.2L1525.56 976.563L1507.57 987.666L1521.28 1016.52L1539.5 1004.2ZM1539.4 968.028L1553.03 995.056L1625.13 1011.37L1583.19 942.763L1539.4 968.028ZM1497.4 966.251L1514.91 955.446L1489.63 905.328L1479.22 928.015L1497.4 966.251Z" fill="#808080" stroke="black" stroke-width="5.85214" stroke-miterlimit="2" stroke-linejoin="round"/>
<path fill-rule="evenodd" clip-rule="evenodd" d="M1798.37 1039.72L1863.06 1163.78C1858.33 1165.32 1854.67 1168.8 1853.41 1172.94C1852.15 1177.08 1853.48 1181.29 1856.91 1184.02L1886.87 1181.27L1742.39 898.181L1721.43 845.194C1718.93 838.87 1714.97 834.009 1711.34 832.809L1668.31 818.522C1665.28 817.524 1662.91 819.204 1661.98 823.027C1661.04 826.843 1661.65 832.308 1663.62 837.642L1691.11 912.242L1646.17 924.558C1641.36 925.875 1637.53 929.183 1636.01 933.215L1592.68 859.201C1590.49 855.461 1587.86 852.765 1585.38 851.724C1582.91 850.683 1580.78 851.373 1579.47 853.649L1543.14 916.875C1540.55 921.373 1541.78 930.833 1545.95 938.515L1618.03 1071.2L1628.93 1056.01L1564.26 936.957L1591.06 890.316L1630.43 957.565L1649.51 1040.95C1648.63 1044.87 1661.16 1054.71 1665.7 1053.66L1681.52 1050.03L1755.88 976.419L1771.46 1015.8L1770.29 1043.31L1656.89 1109.68C1653.69 1111.55 1651.38 1114.38 1650.47 1117.52C1649.56 1120.66 1650.13 1123.87 1652.05 1126.43L1705.41 1197.7C1709.21 1202.78 1717.26 1204.09 1723.82 1200.71L1824.11 1148.92L1869.29 1263.15C1872.04 1270.12 1876.53 1275.24 1880.37 1275.78L1907.48 1287.12L1952.15 1507.07C1946.07 1506.34 1941.36 1515.91 1925.17 1511.74C1922.78 1511.13 1878.03 1334.62 1874.44 1330.73C1869.43 1325.29 1792.09 1200.86 1792.09 1200.86C1789.65 1196.35 1786.56 1193.16 1783.73 1192.23C1780.89 1191.3 1778.63 1192.73 1777.59 1196.11L1765.33 1236.15C1764.17 1239.92 1764.7 1245.62 1766.73 1251.21L1825.01 1502.54L1769.08 1513.13L1788.51 1387.49C1789.5 1382.79 1788.28 1375.95 1785.38 1369.98C1782.48 1364.02 1778.44 1360.03 1775.05 1359.8L1721.07 1356.04L1617.83 1113.77C1615.46 1108.23 1612.01 1103.95 1608.72 1102.5C1605.43 1101.06 1602.8 1102.65 1601.78 1106.7L1583.05 1181.39C1581.84 1186.23 1583.15 1193.62 1586.35 1199.9L1707.62 1438.36L1719.36 1424.77L1603.41 1196.76L1615.29 1149.38L1712.16 1376.68C1715.05 1383.46 1719.5 1388.21 1723.22 1388.47L1764.37 1391.32L1743.82 1522.26C1742.77 1527.24 1744.21 1534.6 1747.44 1540.74C1750.67 1546.88 1755.02 1550.53 1758.37 1549.89L1844.23 1533.63C1846.47 1533.21 1848 1530.9 1848.44 1527.27C1848.89 1523.63 1848.21 1519 1846.57 1514.48L1785.21 1254.63L1791.39 1234.47C1804.85 1258.39 1828.86 1312.4 1850.26 1342.61C1866.11 1364.97 1897.95 1538.33 1906.89 1540.63C1932.19 1547.15 1975.04 1531.1 1975.04 1531.1C1977.9 1531.28 1979.88 1528.77 1980.34 1524.38L1928.98 1282.68C1929.49 1277.87 1928.07 1271.52 1925.3 1266.1C1922.52 1260.68 1918.82 1257.04 1915.62 1256.59L1879.12 1243.9L1798.37 1039.72ZM1815.31 1126.68L1722.66 1174.52L1683.3 1121.95L1788.98 1060.09L1815.31 1126.68ZM1771.88 972.737L1773.3 972.416L1773.15 975.962L1771.88 972.737ZM1725.68 959.175L1714.98 930.13L1735.37 924.545L1747.11 954.249L1725.68 959.175ZM1699.29 934.433L1709.76 962.836L1672.52 1026.69L1650.95 949.225L1699.29 934.433ZM1726.64 902.501L1706.8 907.94L1687.38 855.272L1711.08 863.129L1726.64 902.501Z" fill="#808080" stroke="black" stroke-width="5.85214" stroke-miterlimit="2" stroke-linejoin="round"/>
<path fill-rule="evenodd" clip-rule="evenodd" d="M768.297 956.09L506.274 798.168L136.994 1458.29L140.078 1482.82L202.405 1509.95L226.288 1480.48L267.674 1558.46L288.763 1543.24L373.243 1611.56L768.297 956.09Z" fill="black" fill-opacity="0.3"/>
<path d="M619.865 882.014L266.236 1530.24" stroke="#8FD926" stroke-opacity="0.58" stroke-width="130" stroke-miterlimit="1.5" stroke-linejoin="round"/>
<path fill-rule="evenodd" clip-rule="evenodd" d="M741.77 935.074L617.504 869.064L258.52 1544.86L269.258 1556.39L290.985 1542.9L319.959 1566.82L337.418 1562.59L345.986 1591.32L382.786 1610.87L741.77 935.074Z" fill="black" fill-opacity="0.3"/>
<path fill-rule="evenodd" clip-rule="evenodd" d="M1678.68 814.473L1404.75 950.697L1747.04 1641.92L1786.38 1607.07L1808.54 1608.05L1808.27 1581.69L1849.23 1531.83L1887.28 1566.16L1905.78 1542.51L1979.49 1528.64C1968.51 1494.5 1967.7 1462.91 1988.08 1436.65L1678.68 814.473Z" fill="black" fill-opacity="0.3"/>
<path d="M1547.07 854.332L1894.7 1521.03" stroke="#8FD926" stroke-opacity="0.58" stroke-width="130" stroke-miterlimit="1.5" stroke-linejoin="round"/>
<path fill-rule="evenodd" clip-rule="evenodd" d="M1542.24 831.53L1414.42 890.492L1753.31 1624.74L1808.46 1607.69L1807.12 1581.29L1850.73 1529.68L1876.66 1556.49L1542.24 831.53Z" fill="black" fill-opacity="0.3"/>
<path fill-rule="evenodd" clip-rule="evenodd" d="M1081.47 844.879C1387.48 844.879 1636.97 1125.91 1636.97 1473.21C1636.97 1820.51 1387.48 2101.54 1081.47 2101.54C775.466 2101.54 525.963 1820.51 525.963 1473.21C525.963 1125.91 775.466 844.879 1081.47 844.879ZM1081.47 876.776C791.892 876.776 557.86 1144.55 557.86 1473.21C557.86 1801.88 791.892 2069.65 1081.47 2069.65C1371.05 2069.65 1605.08 1801.88 1605.08 1473.21C1605.08 1144.55 1371.05 876.776 1081.47 876.776Z" fill="#808080" stroke="black" stroke-width="7.00056" stroke-miterlimit="2" stroke-linejoin="round"/>
<path fill-rule="evenodd" clip-rule="evenodd" d="M812.619 2481.83C812.619 2481.83 809.211 2428.76 758.509 2395.24C733.617 2378.78 648.035 2405.34 641.823 2370.63C622.943 2265.18 518.267 1679.94 513.122 1649.22C507.978 1618.48 374.381 1410.04 374.381 1410.04L271.605 1027.7C271.605 1027.7 169.666 1262.62 201.642 1377.82C233.617 1493.01 475.225 1711.72 475.225 1711.72C539.066 1963.29 562.222 2195.17 510.286 2436.21C504.202 2481.86 525.914 2547.45 552.623 2566.55C616.45 2612.2 732.139 2545.5 812.619 2481.83Z" fill="black" fill-opacity="0.4"/>
<path fill-rule="evenodd" clip-rule="evenodd" d="M1033.39 2190.36C806.927 2150.59 603.895 2086.54 447.828 1973.86L478.144 2319.1L738.238 2369.19L1033.39 2190.36Z" fill="#FF2E33" stroke="black" stroke-width="14.4562" stroke-miterlimit="1.5" stroke-linejoin="round"/>
<path fill-rule="evenodd" clip-rule="evenodd" d="M1167.1 2190.36C1373.52 2150.83 1570.41 2082.49 1753.95 1973.86L1723.56 2319.1L1462.9 2369.19L1167.1 2190.36Z" fill="#FF2E33" stroke="black" stroke-width="14.461" stroke-miterlimit="1.5" stroke-linejoin="round"/>
<path fill-rule="evenodd" clip-rule="evenodd" d="M1656.27 2341.19L1609.2 2440.78L1494.74 2536.77L1308.71 2455.76L830.146 2393.81L556.282 2331.4L477.623 2310.13L474.298 2217.8L450.007 1984.03L693.181 2107.23L765.251 2193.09L975.588 2219.2L1003.89 2211.59L1167.3 2219.15L1136.62 2185.18L1198.43 2181.26L1269.15 2209.25L1711.19 2186.49L1544.29 2250.64L1656.27 2341.19Z" fill="black" fill-opacity="0.3"/>
<path fill-rule="evenodd" clip-rule="evenodd" d="M1765.46 2176.66C1310.12 2269.13 871.818 2251.5 441.444 2177.49L600.373 2396.21L789.611 2442.67L820.297 2540.12C1003.43 2568.48 1191.15 2563.79 1382.67 2531.66L1419.23 2431.32L1607.79 2393.3L1765.46 2176.66Z" fill="#FF2E33" stroke="black" stroke-width="12.6178" stroke-miterlimit="1.5" stroke-linejoin="round"/>
<path fill-rule="evenodd" clip-rule="evenodd" d="M1107.15 2320.83L1119.97 2362.89L1144.65 2349.89L1140.7 2378.95H1182.15L1148.61 2404.95L1167.83 2425.98L1140.7 2430.94L1153.51 2473L1119.97 2447.01L1107.15 2473L1094.34 2447.01L1060.8 2473L1073.61 2430.94L1046.48 2425.98L1065.7 2404.95L1032.16 2378.95H1073.61L1069.66 2349.89L1094.34 2362.89L1107.15 2320.83Z" fill="#FFF8B8"/>
<path fill-rule="evenodd" clip-rule="evenodd" d="M1126.29 2315L1132.05 2333.93L1135.34 2332.2C1141.97 2328.71 1149.99 2329.21 1156.12 2333.51C1162.26 2337.81 1165.48 2345.17 1164.47 2352.59L1163.6 2358.95H1182.15C1190.7 2358.95 1198.31 2364.39 1201.08 2372.48C1203.84 2380.57 1201.16 2389.53 1194.41 2394.76L1178.01 2407.47L1182.59 2412.49C1187.5 2417.85 1189.11 2425.46 1186.79 2432.36C1184.46 2439.25 1178.58 2444.34 1171.43 2445.65L1166.37 2446.58L1172.64 2467.17C1175.18 2475.5 1172.03 2484.52 1164.86 2489.47C1157.69 2494.41 1148.14 2494.14 1141.26 2488.81L1127.08 2477.82L1125.09 2481.84C1121.73 2488.67 1114.77 2493 1107.15 2493C1099.54 2493 1092.58 2488.67 1089.22 2481.84L1087.23 2477.82L1073.05 2488.81C1066.17 2494.14 1056.62 2494.41 1049.45 2489.47C1042.28 2484.52 1039.13 2475.5 1041.67 2467.17L1047.95 2446.58L1042.88 2445.65C1035.73 2444.34 1029.85 2439.25 1027.53 2432.36C1025.2 2425.46 1026.81 2417.85 1031.72 2412.49L1036.3 2407.47L1019.91 2394.76C1013.14 2389.53 1010.46 2380.57 1013.23 2372.48C1016 2364.39 1023.61 2358.95 1032.16 2358.95H1050.71L1049.84 2352.59C1048.83 2345.17 1052.05 2337.81 1058.19 2333.51C1064.32 2329.21 1072.34 2328.71 1078.97 2332.2L1082.26 2333.93L1088.02 2315C1090.59 2306.58 1098.35 2300.83 1107.15 2300.83C1115.96 2300.83 1123.72 2306.58 1126.29 2315ZM1107.15 2320.83L1094.34 2362.89L1069.66 2349.89L1073.61 2378.95H1032.16L1065.7 2404.95L1046.48 2425.98L1073.61 2430.94L1060.8 2473L1094.34 2447.01L1107.15 2473L1119.97 2447.01L1153.51 2473L1140.7 2430.94L1167.83 2425.98L1148.61 2404.95L1182.15 2378.95H1140.7L1144.65 2349.89L1119.97 2362.89L1107.15 2320.83Z" fill="#FF050B"/>
<path fill-rule="evenodd" clip-rule="evenodd" d="M1350.79 2242.71L1416.42 2437.29L1463.38 2429.18L1453.48 2395.93L1491.67 2424.91L1438.48 2220.94L1395.38 2219.67L1345.35 2215.6L1350.79 2242.71Z" fill="#F2DDC8" stroke="black" stroke-width="8.99999" stroke-miterlimit="1.5" stroke-linecap="square" stroke-linejoin="round"/>
<path fill-rule="evenodd" clip-rule="evenodd" d="M1416.31 2233.62L1445.16 2436.94L1491.91 2426.11L1489.18 2403.07L1521.41 2438.56L1506.51 2228.3L1464.37 2219.15L1415.93 2205.98L1416.31 2233.62Z" fill="#F2DDC8" stroke="black" stroke-width="9.00003" stroke-miterlimit="1.5" stroke-linecap="square" stroke-linejoin="round"/>
<path fill-rule="evenodd" clip-rule="evenodd" d="M1447.5 2230.42L1500.48 2428.81L1547.87 2423.74L1547.52 2402.73L1576.37 2421.3L1536.41 2214.33L1493.48 2210.29L1443.81 2203.01L1447.5 2230.42Z" fill="#F2DDC8" stroke="black" stroke-width="9.00002" stroke-miterlimit="1.5" stroke-linecap="square" stroke-linejoin="round"/>
<path fill-rule="evenodd" clip-rule="evenodd" d="M1510.31 2216.91L1510.03 2215.53L1512.79 2214.97L1513.07 2216.35C1513.07 2216.35 1515.43 2225.93 1518.58 2239.66C1520.18 2246.62 1521.99 2254.65 1523.77 2263.03C1524.75 2267.66 1525.69 2272.39 1526.62 2277.11C1527.55 2281.87 1528.43 2286.62 1529.29 2291.23C1533.56 2314.25 1537 2333.63 1537 2333.63L1537.28 2335.01L1534.52 2335.57L1534.24 2334.19C1534.24 2334.19 1529.81 2315.01 1524.72 2292.16C1523.7 2287.59 1522.66 2282.87 1521.65 2278.12C1520.65 2273.42 1519.66 2268.69 1518.76 2264.06C1517.11 2255.64 1515.63 2247.55 1514.37 2240.52C1511.89 2226.66 1510.31 2216.91 1510.31 2216.91Z" fill="black"/>
<path fill-rule="evenodd" clip-rule="evenodd" d="M1484.29 2214.26L1483.87 2212.92L1486.55 2212.08L1486.97 2213.42C1486.97 2213.42 1491.27 2225.79 1497.18 2243.51C1500.18 2252.51 1503.61 2262.87 1507.07 2273.7C1508.98 2279.67 1510.88 2285.8 1512.75 2291.89C1514.64 2298.05 1516.48 2304.19 1518.25 2310.14C1527.14 2339.91 1534.47 2364.98 1534.47 2364.98L1534.89 2366.33L1532.21 2367.17L1531.79 2365.82C1531.79 2365.82 1523.49 2341.05 1513.81 2311.54C1511.87 2305.64 1509.87 2299.54 1507.91 2293.41C1505.96 2287.34 1504.03 2281.23 1502.19 2275.23C1498.85 2264.36 1495.75 2253.89 1493.08 2244.8C1487.82 2226.87 1484.29 2214.26 1484.29 2214.26Z" fill="black"/>
<path fill-rule="evenodd" clip-rule="evenodd" d="M1551.03 2398.91L1551.1 2400.32L1548.29 2400.46L1548.22 2399.06C1548.22 2399.06 1547.68 2396.46 1547.14 2392.66C1546.86 2390.74 1546.57 2388.55 1546.38 2386.24C1546.28 2384.97 1546.23 2383.67 1546.2 2382.38C1546.17 2381.07 1546.19 2379.76 1546.2 2378.5C1546.29 2372.16 1546.51 2366.86 1546.51 2366.86L1546.44 2365.45L1549.25 2365.31L1549.32 2366.71C1549.32 2366.71 1550.1 2371.95 1550.86 2378.25C1551.01 2379.51 1551.16 2380.8 1551.27 2382.11C1551.37 2383.4 1551.46 2384.7 1551.5 2385.97C1551.55 2388.29 1551.49 2390.5 1551.42 2392.43C1551.29 2396.27 1551.03 2398.91 1551.03 2398.91Z" fill="black"/>
<path fill-rule="evenodd" clip-rule="evenodd" d="M1491.37 2417.95L1491.79 2419.3L1489.1 2420.13L1488.68 2418.79C1488.68 2418.79 1485.38 2409.48 1480.89 2396.12C1478.61 2389.34 1476.01 2381.53 1473.41 2373.36C1471.98 2368.86 1470.57 2364.23 1469.18 2359.62C1467.78 2354.97 1466.43 2350.33 1465.13 2345.83C1458.6 2323.33 1453.26 2304.37 1453.26 2304.37L1452.84 2303.03L1455.53 2302.19L1455.95 2303.54C1455.95 2303.54 1462.25 2322.2 1469.58 2344.45C1471.05 2348.91 1472.56 2353.5 1474.03 2358.12C1475.49 2362.71 1476.94 2367.32 1478.3 2371.85C1480.77 2380.06 1483.04 2387.97 1484.99 2394.85C1488.84 2408.41 1491.37 2417.95 1491.37 2417.95Z" fill="black"/>
<path fill-rule="evenodd" clip-rule="evenodd" d="M1442.32 2250.76L1442.19 2249.36L1444.99 2249.1L1445.12 2250.5C1445.12 2250.5 1446.43 2260.35 1448.07 2274.43C1448.91 2281.58 1449.84 2289.81 1450.7 2298.4C1451.18 2303.13 1451.61 2307.97 1452.02 2312.8C1452.43 2317.67 1452.79 2322.52 1453.14 2327.22C1454.89 2350.73 1456.22 2370.51 1456.22 2370.51L1456.35 2371.91L1453.55 2372.17L1453.41 2370.77C1453.41 2370.77 1451.09 2351.08 1448.5 2327.65C1447.98 2322.96 1447.45 2318.13 1446.96 2313.27C1446.48 2308.45 1446.01 2303.61 1445.61 2298.87C1444.88 2290.27 1444.29 2282.01 1443.8 2274.83C1442.83 2260.68 1442.32 2250.76 1442.32 2250.76Z" fill="black"/>
<path fill-rule="evenodd" clip-rule="evenodd" d="M1393.07 2222.04L1392.75 2220.67L1395.5 2220.03L1395.82 2221.4C1395.82 2221.4 1397.26 2225.83 1399.1 2232.24C1400.03 2235.48 1401.08 2239.22 1402.07 2243.15C1402.61 2245.31 1403.11 2247.54 1403.58 2249.76C1404.07 2252 1404.5 2254.24 1404.92 2256.41C1407.03 2267.28 1408.64 2276.43 1408.64 2276.43L1408.96 2277.8L1406.22 2278.44L1405.9 2277.07C1405.9 2277.07 1403.3 2268.14 1400.38 2257.47C1399.8 2255.33 1399.2 2253.13 1398.64 2250.91C1398.09 2248.71 1397.55 2246.49 1397.08 2244.31C1396.23 2240.35 1395.52 2236.53 1394.92 2233.21C1393.74 2226.65 1393.07 2222.04 1393.07 2222.04Z" fill="black"/>
<path fill-rule="evenodd" clip-rule="evenodd" d="M1370.88 2218.88L1370.45 2217.54L1373.13 2216.68L1373.56 2218.02C1373.56 2218.02 1376.71 2226.51 1380.98 2238.71C1383.14 2244.9 1385.61 2252.03 1388.08 2259.5C1389.44 2263.62 1390.77 2267.84 1392.08 2272.06C1393.41 2276.31 1394.68 2280.55 1395.91 2284.67C1402.08 2305.25 1407.11 2322.6 1407.11 2322.6L1407.54 2323.94L1404.86 2324.8L1404.43 2323.46C1404.43 2323.46 1398.43 2306.42 1391.47 2286.09C1390.08 2282.03 1388.65 2277.84 1387.25 2273.61C1385.87 2269.42 1384.49 2265.2 1383.2 2261.07C1380.87 2253.56 1378.73 2246.32 1376.89 2240.02C1373.26 2227.62 1370.88 2218.88 1370.88 2218.88Z" fill="black"/>
<path fill-rule="evenodd" clip-rule="evenodd" d="M1430.98 2429.34L1431.33 2430.7L1428.61 2431.4L1428.26 2430.04C1428.26 2430.04 1427.02 2426.83 1425.46 2422.13C1424.67 2419.76 1423.79 2417.02 1422.97 2414.14C1422.53 2412.55 1422.13 2410.91 1421.75 2409.27C1421.36 2407.62 1421.02 2405.97 1420.69 2404.36C1419.06 2396.32 1417.84 2389.56 1417.84 2389.56L1417.49 2388.2L1420.21 2387.49L1420.56 2388.86C1420.56 2388.86 1422.76 2395.37 1425.21 2403.2C1425.7 2404.76 1426.2 2406.37 1426.66 2408.01C1427.12 2409.62 1427.56 2411.25 1427.93 2412.86C1428.61 2415.78 1429.16 2418.6 1429.62 2421.06C1430.52 2425.93 1430.98 2429.34 1430.98 2429.34Z" fill="black"/>
<path fill-rule="evenodd" clip-rule="evenodd" d="M1511.69 2216.63L1534.38 2327.83L1504.25 2215.01L1511.69 2216.63Z" fill="black" fill-opacity="0.4"/>
<path fill-rule="evenodd" clip-rule="evenodd" d="M1569.02 2405.41L1551.27 2392.18L1546 2365.78L1543.56 2396.45L1493.67 2237.99L1540.73 2411.23L1528.83 2418.15L1521.8 2400.59L1518.89 2419.97L1506.57 2418.7L1496.4 2402.38L1453.88 2267.32C1458.8 2289.97 1462.25 2315.93 1462.81 2330.15L1487.38 2399.39L1446.52 2280.25L1456.76 2393.29L1455.15 2305.42L1483.31 2415.28C1472.5 2419.55 1465.56 2415.05 1463.23 2400.12C1460.86 2412.64 1456.71 2420.72 1450.44 2424.33L1425.88 2308.65L1428.96 2417.83L1420.32 2394.58C1411.46 2392.74 1403.38 2381.84 1395.69 2366.14L1418.79 2436.47L1443.47 2432.15L1547.02 2423.28L1549.23 2403.72L1573.45 2416.58L1569.02 2405.41Z" fill="black" fill-opacity="0.4"/>
<path fill-rule="evenodd" clip-rule="evenodd" d="M881.926 2239.81C881.926 2239.81 803.237 2300.62 816.82 2329.03C830.404 2357.44 941.874 2551.62 941.874 2551.62L825.038 2531.23L794.93 2432.32L607.424 2393.75L447.095 2182.42L881.926 2239.81Z" fill="black" fill-opacity="0.3"/>
<path fill-rule="evenodd" clip-rule="evenodd" d="M774.497 914.496L524.508 779.15L286.085 743.977L754.5 981.334L774.497 914.496Z" fill="#808080" stroke="black" stroke-width="16.1745" stroke-miterlimit="1.5" stroke-linecap="square" stroke-linejoin="round"/>
<path fill-rule="evenodd" clip-rule="evenodd" d="M747.051 939.709L751.797 920.778L612.219 841.971C662.646 875.014 716.734 908.366 747.051 939.709Z" fill="white"/>
<path fill-rule="evenodd" clip-rule="evenodd" d="M569.873 1199.41L254.894 1022.45L146.037 1218.92L105.856 1433.67L506.852 1385.5L520.468 1322.31L569.873 1199.41Z" fill="#808080" stroke="black" stroke-width="16.1745" stroke-miterlimit="1.5" stroke-linecap="square" stroke-linejoin="round"/>
<path fill-rule="evenodd" clip-rule="evenodd" d="M609.694 1107.1L320.503 890.549L150.682 1032.9L80.2919 1322.5L520.692 1320.98L548.836 1213.36L609.694 1107.1Z" fill="#808080" stroke="black" stroke-width="16.1745" stroke-miterlimit="1.5" stroke-linecap="square" stroke-linejoin="round"/>
<path fill-rule="evenodd" clip-rule="evenodd" d="M437.626 1008.38C437.626 1008.38 532.068 1083.47 544.412 1114.08C554.95 1140.21 530.1 1188.4 530.1 1188.4L578.969 1111.7L437.626 1008.38Z" fill="white"/>
<path fill-rule="evenodd" clip-rule="evenodd" d="M349.328 930.139L244.098 1045.69L289.738 1318.79L515.733 1319.48L504.956 1343.44L289.314 1350.97L243.971 1407.01L110.727 1433.51L135.05 1324.18L92.6387 1316.63L154.593 1032.89L323.715 892.518L349.328 930.139Z" fill="black" fill-opacity="0.3"/>
<path fill-rule="evenodd" clip-rule="evenodd" d="M352.514 1080.72L399.39 1112.32L369.761 1150.16L417.701 1164.61L399.796 1215.74L351.856 1201.29V1248.06H293.914V1201.29L245.973 1215.74L228.068 1164.61L276.009 1150.16L246.38 1112.32L293.256 1080.72L322.885 1118.56L352.514 1080.72Z" fill="#42AB84" stroke="black" stroke-width="13" stroke-miterlimit="1.5" stroke-linecap="round" stroke-linejoin="round"/>
<path fill-rule="evenodd" clip-rule="evenodd" d="M1595.09 1208.39L1910.07 1031.43L2018.93 1227.9L2059.11 1442.65L1658.11 1394.48L1644.5 1331.29L1595.09 1208.39Z" fill="#808080" stroke="black" stroke-width="16.1745" stroke-miterlimit="1.5" stroke-linecap="square" stroke-linejoin="round"/>
<path fill-rule="evenodd" clip-rule="evenodd" d="M2035.89 1318.57L2044.56 1364.92L1654.13 1360.05L1645.79 1323.68L2035.89 1318.57Z" fill="black" fill-opacity="0.3"/>
<path fill-rule="evenodd" clip-rule="evenodd" d="M1555.27 1116.08L1844.46 899.525L2014.28 1041.88L2084.67 1331.48L1644.27 1329.96L1616.13 1222.34L1555.27 1116.08Z" fill="#808080" stroke="black" stroke-width="16.1745" stroke-miterlimit="1.5" stroke-linecap="square" stroke-linejoin="round"/>
<path fill-rule="evenodd" clip-rule="evenodd" d="M1823.31 1072.45L1847.67 1135.9H1926.49L1862.72 1175.11L1887.08 1238.56L1823.31 1199.35L1759.54 1238.56L1783.9 1175.11L1720.13 1135.9H1798.95L1823.31 1072.45Z" fill="#42AB84" stroke="black" stroke-width="13" stroke-miterlimit="1.5" stroke-linecap="round" stroke-linejoin="round"/>
<path fill-rule="evenodd" clip-rule="evenodd" d="M2023.69 1090.09L2048.68 1200.46L1984.91 1239.67L2009.27 1176.22L1945.5 1137.01H2024.32L2023.69 1090.09Z" fill="#42AB84" stroke="black" stroke-width="13" stroke-miterlimit="1.5" stroke-linecap="round" stroke-linejoin="round"/>
<path fill-rule="evenodd" clip-rule="evenodd" d="M1829.75 922.223L1648.35 1062.56L1846.73 937.779L1965.94 1051.12L2026.06 1322.61L2072.87 1320.43L2005.62 1049.07L1844.07 912.156L1829.75 922.223Z" fill="white"/>
<path fill-rule="evenodd" clip-rule="evenodd" d="M1336.9 930.506C1251.67 882.446 1165.12 862.723 1041.26 862.432C1041.26 862.432 1140.49 855.58 1193.31 866.926C1240.32 877.021 1336.9 930.506 1336.9 930.506Z" fill="white"/>
<path fill-rule="evenodd" clip-rule="evenodd" d="M1399.11 919.75L1649.1 784.404L1887.52 749.231L1419.11 986.588L1399.11 919.75Z" fill="#808080" stroke="black" stroke-width="16.1745" stroke-miterlimit="1.5" stroke-linecap="square" stroke-linejoin="round"/>
<path fill-rule="evenodd" clip-rule="evenodd" d="M1730.9 799.521C1734.9 800.738 1729.96 812.021 1729.96 812.021L1792.08 778.443L1655.6 797.532C1655.6 797.532 1721.06 796.524 1730.9 799.521Z" fill="white"/>
<path fill-rule="evenodd" clip-rule="evenodd" d="M1356.8 1021.61C1356.8 1021.61 1525.22 1227.56 1524.7 1359.24C1523.8 1587.83 1415.96 1824.39 1415.96 1824.39C1525.65 1521.86 1477.75 1244.58 1356.8 1021.61Z" fill="white"/>
</g>
<defs>
<clipPath id="clip0_605_633">
<rect width="2160" height="2700" fill="white"/>
</clipPath>
</defs>
</svg>
