<svg width="2160" height="2700" viewBox="0 0 2160 2700" fill="none" xmlns="http://www.w3.org/2000/svg">
<path d="M399.41 1301.31L353.106 1077.49L187.411 1217.61L233.714 1441.43L399.41 1301.31Z" fill="#1D9A6C" stroke="black" stroke-width="11.138" stroke-miterlimit="1.5" stroke-linecap="round" stroke-linejoin="round"/>
<path d="M445.068 1218.55L398.765 994.73L233.069 1134.85L279.372 1358.67L445.068 1218.55Z" fill="#1D9A6C" stroke="black" stroke-width="11.138" stroke-miterlimit="1.5" stroke-linecap="round" stroke-linejoin="round"/>
<path d="M491.535 1120.73L445.231 896.914L279.536 1037.03L325.839 1260.85L491.535 1120.73Z" fill="#1D9A6C" stroke="black" stroke-width="11.138" stroke-miterlimit="1.5" stroke-linecap="round" stroke-linejoin="round"/>
<path d="M540.053 1032.76L493.75 808.941L328.054 949.061L374.358 1172.88L540.053 1032.76Z" fill="#1D9A6C" stroke="black" stroke-width="11.138" stroke-miterlimit="1.5" stroke-linecap="round" stroke-linejoin="round"/>
<path fill-rule="evenodd" clip-rule="evenodd" d="M698.393 907.868L704.127 679.387L512.024 804.725L447.008 815.249L406.687 1057.1L698.393 907.868Z" fill="#1D9A6C" stroke="black" stroke-width="13.6864" stroke-miterlimit="1.5" stroke-linecap="round" stroke-linejoin="round"/>
<path d="M1748.29 1278.62L1794.59 1054.81L1960.29 1194.93L1913.98 1418.74L1748.29 1278.62Z" fill="#1D9A6C" stroke="black" stroke-width="11.138" stroke-miterlimit="1.5" stroke-linecap="round" stroke-linejoin="round"/>
<path d="M1702.63 1195.86L1748.93 972.045L1914.63 1112.16L1868.32 1335.98L1702.63 1195.86Z" fill="#1D9A6C" stroke="black" stroke-width="11.138" stroke-miterlimit="1.5" stroke-linecap="round" stroke-linejoin="round"/>
<path d="M1656.16 1098.04L1702.46 874.229L1868.16 1014.35L1821.86 1238.16L1656.16 1098.04Z" fill="#1D9A6C" stroke="black" stroke-width="11.138" stroke-miterlimit="1.5" stroke-linecap="round" stroke-linejoin="round"/>
<path d="M1607.64 1010.07L1653.95 786.256L1819.64 926.376L1773.34 1150.19L1607.64 1010.07Z" fill="#1D9A6C" stroke="black" stroke-width="11.138" stroke-miterlimit="1.5" stroke-linecap="round" stroke-linejoin="round"/>
<path fill-rule="evenodd" clip-rule="evenodd" d="M1466.12 884.762L1460.39 656.281L1652.49 781.619L1717.51 792.143L1757.83 1033.99L1466.12 884.762Z" fill="#1D9A6C" stroke="black" stroke-width="13.6863" stroke-miterlimit="1.5" stroke-linecap="round" stroke-linejoin="round"/>
<path fill-rule="evenodd" clip-rule="evenodd" d="M1120.43 351.093C1339.18 346.991 1926.45 1195.33 1967.92 1325.75C2005.09 1442.63 1686.51 1579.53 1686.51 1717.3C1686.51 1855.68 1672.3 1988.86 1640.97 2107.97C1614.86 2207.25 1810.24 2130 1758.66 2204.62C1710.89 2273.72 1417.78 2496.71 1351.96 2538.14C1267.02 2591.59 1171.92 2620.39 1079.21 2620.39C983.03 2620.39 892.05 2587.07 811.193 2527.78C755.416 2486.88 476.424 2279.81 431.911 2216.6C380.877 2144.13 566.35 2212.39 534.698 2117.39C494.507 1996.77 471.91 1860.93 471.91 1717.3C471.91 1624.35 173.775 1438.07 191.345 1353.66C221.944 1206.66 880.062 355.6 1120.43 351.093ZM1082.49 885.246C797.884 885.246 566.82 1148.41 566.82 1472.55C566.82 1796.7 797.884 2059.86 1082.49 2059.86C1367.1 2059.86 1598.17 1796.7 1598.17 1472.55C1598.17 1148.41 1367.1 885.246 1082.49 885.246Z" fill="#00A8E4" stroke="black" stroke-width="16.178" stroke-miterlimit="1.5" stroke-linecap="round" stroke-linejoin="round"/>
<path fill-rule="evenodd" clip-rule="evenodd" d="M1970.73 1340.35C1970.73 1340.35 1791.83 1057.88 1716.22 960.416C1563.02 762.926 1225.23 404.722 1191.04 387.511C1150.31 367.008 1123.9 365.055 1081.78 376.503L1268.21 669.604L1145.23 752.009L1147.64 813.074C1258.36 818.876 1360.92 887.377 1460.94 975.493L1268.09 755.402L1251.1 696.896L1317.67 643.095L1172.73 420.654C1464.25 697.378 1729.8 1004.48 1970.73 1340.35Z" fill="white" fill-opacity="0.7"/>
<path d="M1763.61 1576.28L1748.51 1476.05L1779.7 1448.09L1805.87 1541.22" stroke="black" stroke-width="9.99999" stroke-miterlimit="1.5" stroke-linecap="round" stroke-linejoin="round"/>
<path d="M1842.07 1510.33L1820.04 1418.31L1850.2 1387.43L1877.4 1483.48" stroke="black" stroke-width="9.99999" stroke-miterlimit="1.5" stroke-linecap="round" stroke-linejoin="round"/>
<path d="M1086.87 2363.54L1087.42 2439.84" stroke="black" stroke-width="9.99999" stroke-miterlimit="1.5" stroke-linecap="round" stroke-linejoin="round"/>
<path d="M722.949 2463.42L793.644 2388.96C867.23 2440.53 941.931 2490.49 1047.36 2496.33L1070.67 2444.92L1107.15 2444.52" stroke="black" stroke-width="9.99999" stroke-miterlimit="1.5" stroke-linecap="round" stroke-linejoin="round"/>
<path d="M1454.87 2455.41L1384.17 2380.94C1307.4 2429.34 1229.92 2476.85 1129.17 2495.04L1107.16 2444.52" stroke="black" stroke-width="9.99999" stroke-miterlimit="1.5" stroke-linecap="round" stroke-linejoin="round"/>
<path d="M1110.45 344.057L1093.58 830.265" stroke="black" stroke-width="9.99999" stroke-miterlimit="1.5" stroke-linecap="round" stroke-linejoin="round"/>
<path d="M417.998 1219.7C473.431 1092.3 546.824 978.645 631.941 873.972L694.526 876.476C735.725 808.63 785.172 745.725 845.808 689.523L1092.11 819.395" stroke="black" stroke-width="9.99999" stroke-miterlimit="1.5" stroke-linecap="round" stroke-linejoin="round"/>
<path d="M1770.98 1219.7C1712.08 1103.18 1642.98 994.073 1560.01 895.049L1508.44 905.757C1461.56 827.203 1409.47 752.755 1343.17 689.523L1096.87 819.395" stroke="black" stroke-width="9.99999" stroke-miterlimit="1.5" stroke-linecap="round" stroke-linejoin="round"/>
<path d="M492.298 1950.01L521.272 1794.41L575.793 1755.3" stroke="black" stroke-width="9.99999" stroke-miterlimit="1.5" stroke-linecap="round" stroke-linejoin="round"/>
<path d="M1670.33 1922.49L1641.35 1766.89L1586.83 1727.78" stroke="black" stroke-width="9.99999" stroke-miterlimit="1.5" stroke-linecap="round" stroke-linejoin="round"/>
<path fill-rule="evenodd" clip-rule="evenodd" d="M237.383 1444.26L299.978 1283.64C471.332 1107.15 436.271 1378.08 486.535 1464.07L467.97 1688.62" fill="#FF2E33"/>
<path d="M237.383 1444.26L299.978 1283.64C471.332 1107.15 436.271 1378.08 486.534 1464.07L467.97 1688.62" stroke="black" stroke-width="9.99999" stroke-miterlimit="1.5" stroke-linecap="round" stroke-linejoin="round"/>
<path d="M282.996 1324.66L481.243 1501.24L479.256 1540L266.68 1375.95L248.232 1422.19L475.964 1580.66L472.764 1621.76L287.982 1492.39L386.8 1590.28L467.526 1651.26" stroke="black" stroke-width="9.99999" stroke-miterlimit="1.5" stroke-linecap="round" stroke-linejoin="round"/>
<path fill-rule="evenodd" clip-rule="evenodd" d="M1920.07 1426.83L1857.47 1266.21C1686.12 1089.72 1721.18 1360.65 1670.92 1446.64L1689.48 1671.19" fill="#FF2E33"/>
<path d="M1920.07 1426.83L1857.47 1266.21C1686.12 1089.72 1721.18 1360.65 1670.92 1446.64L1689.48 1671.19" stroke="black" stroke-width="9.99999" stroke-miterlimit="1.5" stroke-linecap="round" stroke-linejoin="round"/>
<path d="M1874.45 1307.23L1676.21 1483.81L1678.2 1522.57L1890.77 1358.52L1909.22 1404.76L1681.49 1563.23L1684.69 1604.33L1869.47 1474.96L1770.65 1572.85L1689.93 1633.83" stroke="black" stroke-width="9.99999" stroke-miterlimit="1.5" stroke-linecap="round" stroke-linejoin="round"/>
<path d="M1925.67 1425.96L1863.07 1265.34L1676.51 1445.77L1695.08 1670.32" stroke="black" stroke-width="9.99999" stroke-miterlimit="1.5" stroke-linecap="round" stroke-linejoin="round"/>
<path fill-rule="evenodd" clip-rule="evenodd" d="M1081.47 844.879C1387.48 844.879 1622.77 1121.3 1622.77 1468.61C1622.77 1815.91 1398.19 2364.66 1092.19 2364.66C786.18 2364.66 538.131 1821.87 538.131 1474.55C538.131 1127.25 775.466 844.879 1081.47 844.879ZM1081.47 876.776C791.893 876.776 557.86 1144.55 557.86 1473.21C557.86 1801.88 791.893 2069.65 1081.47 2069.65C1247.38 2069.65 1395.05 1981.75 1490.93 1844.87C1562.39 1742.83 1605.08 1613.57 1605.08 1473.21C1605.08 1144.55 1371.05 876.776 1081.47 876.776Z" fill="#808080" stroke="black" stroke-width="12.0025" stroke-miterlimit="2" stroke-linejoin="round"/>
<path fill-rule="evenodd" clip-rule="evenodd" d="M396.077 928.279C401.564 908.998 486.558 804.318 486.558 804.318L330.622 940.198L338.826 986.226L280.492 1027.86L285.91 1085.83L235.239 1124.02L237.14 1177.61L190.94 1206.54L202.507 1297.32L450.69 942.299C450.69 942.299 390.59 947.56 396.077 928.279Z" fill="black" fill-opacity="0.3"/>
<path fill-rule="evenodd" clip-rule="evenodd" d="M442.367 978.481C427.959 1018.43 296.903 1164.64 300.083 1197.56C303.263 1230.48 351.47 1229.16 351.47 1229.16L296.28 1278.18L235.594 1440.41L187.89 1361.48C155.636 1313.98 459.919 929.825 442.367 978.481Z" fill="black" fill-opacity="0.3"/>
<path fill-rule="evenodd" clip-rule="evenodd" d="M590.049 1972.57C652.569 2048.61 719.497 2164.79 736.319 2190.65C767.126 2237.97 770.566 2328.28 728.892 2345.83C687.219 2363.38 630.945 2300.55 589.403 2201.9C547.847 2103.21 531.037 1900.79 590.049 1972.57Z" fill="white" stroke="black" stroke-width="10.0561" stroke-miterlimit="1.5" stroke-linecap="round" stroke-linejoin="round"/>
<path d="M699.006 2293.07C725.604 2281.87 724.613 2219.23 696.793 2153.16C668.973 2087.09 624.858 2042.62 598.259 2053.82C571.661 2065.02 572.651 2127.66 600.472 2193.72C628.292 2259.79 672.407 2304.27 699.006 2293.07Z" fill="black"/>
<path d="M662.238 2144.49C672.317 2140.25 675.518 2125 669.386 2110.44C663.254 2095.88 650.112 2087.52 640.032 2091.76C629.952 2096.01 626.752 2111.25 632.884 2125.81C639.016 2140.38 652.158 2148.74 662.238 2144.49Z" fill="white"/>
<path d="M657.321 2178.61C664.383 2175.63 667.09 2166.06 663.369 2157.22C659.647 2148.38 650.906 2143.63 643.844 2146.6C636.783 2149.58 634.076 2159.15 637.797 2167.99C641.519 2176.83 650.26 2181.58 657.321 2178.61Z" fill="white"/>
<path fill-rule="evenodd" clip-rule="evenodd" d="M402.963 1228.09C443.432 1220.16 538.059 1070.12 639.473 1006.12C666.661 988.96 850.542 894.199 850.542 894.199C642.8 1009.99 542.336 1233.2 531.26 1457.41C550.801 1699.22 646.532 1962.28 763.661 2155.02C753.372 2148.63 729.932 2149.9 715.556 2141.38C664.324 2111.03 604.887 2055.33 581.789 2111.66C575.654 2126.63 595.397 2219.21 585.426 2223.76C574.431 2228.77 524.511 2234.55 524.511 2234.55C541.055 2314.83 889.43 2573.79 1067.91 2613.32C1035.15 2627 933.634 2605.31 866.885 2560.07C725.888 2464.49 540.53 2335.31 419.522 2191.44L544.647 2144.22C491.334 1994.25 465.215 1847.69 466.89 1691.26C416.493 1634.03 293.764 1507.02 240.246 1453.34C265.454 1455.61 360.552 1529.75 372.883 1516.05L252.229 1418.67C280.568 1425.86 376.632 1477.38 387.103 1464.56L261.351 1370.51C291.617 1379.69 366.899 1413.43 379.699 1405C379.699 1405 371.995 1234.16 402.963 1228.09Z" fill="black" fill-opacity="0.3"/>
<path fill-rule="evenodd" clip-rule="evenodd" d="M1679.16 1427.39C1659.8 1451.38 1691.57 1681.17 1700.99 1671.66L1844.54 1506C1810.52 1511.36 1779.87 1514.56 1779.35 1498.34L1836.11 1459.77C1804.24 1468.93 1777.06 1472.93 1772.81 1451.73L1835.07 1401.48C1804.34 1411.33 1781.22 1412.89 1776.73 1394.19L1830.71 1343.4C1799.44 1357.76 1780.26 1360.73 1779.15 1346.7C1753.76 1363.36 1733.53 1390.32 1720.94 1384.22C1696.25 1372.28 1720.45 1281.03 1719.36 1233.23C1706.88 1311.17 1698.98 1402.84 1679.16 1427.39Z" fill="black" fill-opacity="0.3"/>
<path fill-rule="evenodd" clip-rule="evenodd" d="M934.486 2045.82C934.486 2045.82 912.526 2063.6 900.533 2060.65C883.101 2056.36 829.893 2020.07 829.893 2020.07C829.893 2020.07 783.9 1980.93 756.585 2002.21C740.947 2014.39 715.302 2068.87 715.302 2068.87C625.64 1934.19 564.194 1764.97 535.715 1555.38C522.496 1247.99 628.079 1060.32 792.938 932.381L791.189 980.06C628.297 1090.35 562.825 1285.84 566.898 1542.15C602.758 1783.82 733.487 1944.73 934.486 2045.82Z" fill="black" fill-opacity="0.3"/>
<path d="M1500.6 1830.62L1551.31 1860.89L1545.51 1877.17L1485.88 1840.3" stroke="black" stroke-width="8.99999" stroke-miterlimit="1.5" stroke-linecap="round" stroke-linejoin="round"/>
<path d="M767.482 2154.83L799.527 2092.8L822.175 2092.75L841.846 2061.23L819.485 2039.95L837.955 2004.39" stroke="black" stroke-width="8.99999" stroke-miterlimit="1.5" stroke-linecap="round" stroke-linejoin="round"/>
<path fill-rule="evenodd" clip-rule="evenodd" d="M1593.29 1988.28C1559.84 1993.16 1483.76 2108.33 1430.25 2174.31C1372.89 2245.04 1407.71 2328.97 1437.36 2335.88C1481.4 2346.11 1545.1 2296.99 1586.66 2198.3C1628.2 2099.65 1644.03 1980.84 1593.29 1988.28Z" fill="white" stroke="black" stroke-width="10.0561" stroke-miterlimit="1.5" stroke-linecap="round" stroke-linejoin="round"/>
<path d="M1469.38 2292.18C1442.78 2280.98 1443.77 2218.34 1471.59 2152.27C1499.41 2086.21 1543.53 2041.73 1570.12 2052.93C1596.72 2064.13 1595.73 2126.77 1567.91 2192.83C1540.09 2258.9 1495.98 2303.38 1469.38 2292.18Z" fill="black"/>
<path d="M1507.75 2134.07C1497.67 2129.82 1494.47 2114.58 1500.61 2100.02C1506.74 2085.46 1519.88 2077.09 1529.96 2081.34C1540.04 2085.58 1543.24 2100.83 1537.11 2115.39C1530.98 2129.95 1517.83 2138.31 1507.75 2134.07Z" fill="white"/>
<path d="M1512.66 2168.18C1505.6 2165.2 1502.9 2155.63 1506.62 2146.79C1510.34 2137.95 1519.08 2133.2 1526.14 2136.17C1533.2 2139.14 1535.91 2148.72 1532.19 2157.56C1528.47 2166.39 1519.73 2171.15 1512.66 2168.18Z" fill="white"/>
<path fill-rule="evenodd" clip-rule="evenodd" d="M1356.8 1021.61C1356.8 1021.61 1525.23 1227.56 1524.7 1359.24C1523.8 1587.83 1415.96 1824.39 1415.96 1824.39C1525.65 1521.86 1477.75 1244.58 1356.8 1021.61Z" fill="white"/>
<path fill-rule="evenodd" clip-rule="evenodd" d="M1488.86 1887.78C1439.99 1954.28 1340.84 2049.43 1275.54 2079.86C1251.95 2090.85 1132.36 2125.01 1163.69 2094.2C1182.79 2075.43 1227.61 2080.52 1290.93 2046.61C1366.75 2006.01 1427.2 1950.95 1488.86 1887.78Z" fill="white"/>
</svg>
