<svg width="2160" height="2700" viewBox="0 0 2160 2700" fill="none" xmlns="http://www.w3.org/2000/svg">
<g clip-path="url(#clip0_1075_1836)">
<path fill-rule="evenodd" clip-rule="evenodd" d="M2187.27 -11.832V2711.83H-27.2676V-11.832H2187.27ZM2092.2 83.2317H67.7964V2616.77H2092.2V83.2317Z" fill="#D1D1D1"/>
<path fill-rule="evenodd" clip-rule="evenodd" d="M430.605 25.4947C397.779 73.1806 415.891 81.161 456.151 100.612C480.857 112.546 478.987 118.848 529.802 89.8174C545.325 80.9513 554.818 64.0416 579.932 69.1828C610.789 75.4989 623.246 40.7599 623.246 40.7599C623.246 40.7599 587.057 120.793 696.433 57.3192C646.668 125.833 514.324 167.223 542.935 287.322C548.124 309.125 594.857 262.607 594.857 262.607C594.857 262.607 589.889 308.685 568.946 331.065C548.4 353.026 512.355 370.667 509.932 390.985C506.06 423.455 517.09 445.871 532.491 438.281C542.913 433.144 535.356 430.78 563.082 395.334C573.471 382.043 651.337 307.244 651.337 307.244C651.337 307.244 631.445 347.694 638.348 352.925C696.278 396.796 655.63 336.911 710.417 290.052C642.619 382.614 732.025 352.904 663.065 429.079C645.717 448.24 706.49 445.674 720.043 461.055C632.341 452.371 663.098 529.484 663.098 529.484C663.098 529.484 671.362 487.581 697.44 501.486C714.124 510.388 697.65 512.837 719.124 547.377C653.329 494.861 689.12 611.188 613.123 608.594C586.083 607.672 555.448 642.788 538.2 618.928C525.488 601.332 485.913 619.145 477.261 621.726C455.399 628.243 502.774 656.679 502.774 656.679C468.864 657.101 461.86 619.581 405.269 614.106C377.422 611.411 371.105 596.988 357.74 598.372C320.887 602.187 349.265 617.223 315.897 641.295C341.222 613.755 290.229 608.329 317.933 583.694C349.309 555.777 360.506 477.632 304.037 488.995C272.251 498.384 283.602 603.628 277.871 606.149C255.124 616.154 198.721 588.763 181.683 583.773C103.301 560.805 158.693 484.774 127.863 455.539C183.652 477.102 176.395 443.693 174.315 417.441C173.02 401.045 36.0793 448.877 29.815 423.03C15.68 364.705 47.2625 359.163 30.647 338.359C53.7071 346.514 23.1126 383.366 50.9201 411.138C21.8237 368.903 145.764 296.604 133.401 265.753C123.885 242.003 67.5168 251.527 56.8536 234.984C34.2814 199.963 92.8438 103.555 72.6603 59.5425C80.7888 68.8672 81.8509 127.895 94.4237 127.143C140.693 124.379 147.067 154.108 134.68 115.408C126.517 89.9047 173.651 77.4678 206.023 30.3345C201.078 31.2005 236.758 102.454 275.016 110.967C329.959 123.192 223.227 55.9083 257.89 24.6211C248.486 114.073 385.377 38.0179 353.525 112.312C381.294 72.3452 402.437 165.288 419.951 120.011C431.225 90.8526 327.469 83.3505 430.605 25.4947Z" fill="#F2E83A"/>
<path fill-rule="evenodd" clip-rule="evenodd" d="M-8.74991 352.927C-13.4686 340.159 -11.7902 325.558 -3.5765 314.013C7.29248 298.735 26.9714 292.512 44.6479 298.763C49.049 300.319 52.9512 302.157 56.4142 304.248C62.0898 298.284 67.8242 292.395 73.262 286.675C71.1997 286.268 69.2968 285.884 67.666 285.542C45.428 280.875 29.5205 270.102 21.5514 257.739C14.0867 246.157 9.8316 231.611 9.59926 214.496C9.38794 198.953 12.7414 180.23 17.7731 160.431C22.6069 141.409 28.995 121.031 32.6516 102.216C34.5446 92.4803 37.4963 83.6208 34.4826 77.0502C25.781 58.0743 32.3363 35.5887 49.8722 24.2624C67.4071 12.9361 90.5999 16.2078 104.318 31.9425C106.339 34.262 108.62 37.6723 110.834 42.0371L110.837 42.0349L110.863 42.0928C113.19 46.689 115.441 52.3402 117.237 58.8868C131.188 46.9588 152.342 33.0214 169.48 9.2844C176.262 -2.50931 186.385 -8.8659 198.776 -11.0357C209.221 -12.8637 219.709 -10.6557 228.327 -5.25133C228.792 -5.68814 229.257 -6.12167 229.744 -6.55411C242.655 -18.2124 261.419 -20.7011 276.93 -12.8135C292.431 -4.92483 301.47 11.7076 299.655 29.0105C299.611 29.4123 299.578 29.8491 299.567 30.299C303.937 30.9772 310.409 31.8988 314.602 32.1205C328.819 32.8751 342.615 33.693 353.425 36.2702C362.796 22.2018 379.812 5.83365 410.06 -11.134C427.087 -20.6902 448.462 -17.2416 461.628 -2.81179C474.794 11.6191 476.276 33.2202 465.201 49.3098C463.774 51.3781 462.347 53.7063 461.03 55.9624C465.234 58.1879 470.08 60.6995 474.428 62.7951C477.139 64.1066 480.237 65.6725 482.782 66.9753C488.247 64.3785 498.404 59.3902 508.969 53.3492C516.205 49.217 521.947 43.0832 528.895 38.7075C543.344 29.6067 559.951 23.5395 583.317 27.1333L583.716 26.5753L583.749 26.5895C584.501 24.5966 584.977 23.4565 584.977 23.4565C594.27 2.9169 618.113 -6.62836 639.001 1.82817C650.861 6.62646 659.369 16.2482 663.12 27.5494C667.092 25.5794 671.219 23.3899 675.356 20.994C692.516 11.0316 714.312 14.4453 727.61 29.1797C740.909 43.9142 742.082 65.9455 730.409 82.0035C708.669 111.941 673.055 137.764 639.477 165.619C619.695 182.021 599.858 199.128 589.159 220.997C597.136 219.905 605.434 221.096 613.034 224.746C629.077 232.448 638.525 249.422 636.622 267.113C636.622 267.113 636.578 267.402 636.501 267.948C647.531 263.786 660.033 264.398 670.754 270.001C674.438 266.014 678.543 262.047 683.112 258.134C699.32 244.274 723.34 244.757 738.973 259.255C754.606 273.754 756.896 297.668 744.305 314.87C736.262 325.843 730.885 334.526 727.632 341.735C726.648 343.909 725.763 346.829 725.42 348.011C726.471 350.828 730.808 362.762 731.936 369.293C732.843 374.496 733.208 379.968 732.788 385.91C732.246 393.598 730.299 403.12 724.335 415.216C736.207 419.852 745.445 426.366 751.552 433.292C762.959 446.242 765.282 464.855 757.416 480.214C754.395 486.096 750.125 491.043 745.024 494.812C745.898 497.243 746.596 499.762 747.127 502.432C747.857 506.081 746.452 511.798 754.794 525.202C765.581 542.566 762.306 565.182 747.027 578.768C735.067 589.393 718.494 592.078 704.188 586.64C700.57 594.698 696.278 603.438 692.217 609.632C676.85 633.049 653.981 651.676 612.78 650.603C611.275 651.195 601.285 655.148 596.129 657.546C584.236 663.077 572.53 667.413 562.097 668.719C555.514 669.543 549.142 669.612 543.012 668.718C537.768 686.269 521.704 698.446 503.305 698.676C483.777 698.919 468.742 693.143 454.547 683.905C441.569 675.456 431.026 658.794 401.22 655.91C388.198 654.65 375.851 650.509 366.591 646.584C361.158 655.896 352.905 666.387 340.469 675.358C322.988 687.968 298.803 685.301 284.498 669.184C279.409 663.453 276.156 656.681 274.729 649.62C265.004 650.651 253.984 650.171 242.29 647.904C215.449 642.702 182.446 627.762 169.867 624.078C144.16 616.544 127.796 604.581 116.75 591.393C100.013 571.412 94.7466 547.068 94.9413 521.684C95.0364 509.306 95.6372 488.077 95.7943 482.665C92.3811 478.636 89.8266 474.079 88.1626 469.258C71.2639 471.586 55.4494 473.162 45.4655 472.767C10.5828 471.389 -6.4398 451.753 -11.0036 432.922C-20.2705 394.682 -13.1621 365.627 -8.74991 352.927ZM205.581 30.975C205.724 30.7621 205.879 30.5491 206.023 30.3351C205.78 30.3777 205.625 30.5972 205.581 30.975ZM622.317 42.9958C618.931 50.5733 605.987 74.5178 579.932 69.1833C554.817 64.0422 545.325 80.9519 529.802 89.818C478.987 118.849 480.857 112.547 456.151 100.612C415.89 81.1616 397.779 73.1812 430.605 25.4953C327.469 83.3511 431.225 90.8532 419.951 120.012C402.437 165.289 381.294 72.3458 353.524 112.312C385.377 38.0185 248.486 114.074 257.89 24.6217C223.227 55.9089 329.959 123.193 275.016 110.968C238.661 102.881 204.64 38.1659 205.581 30.975C173.219 77.582 126.555 90.0211 134.68 115.408C147.067 154.109 140.693 124.38 94.4236 127.144C81.8508 127.895 80.7886 68.8677 72.6601 59.5431C92.8436 103.555 34.2813 199.964 56.8534 234.984C67.5166 251.527 123.885 242.004 133.401 265.754C145.764 296.604 21.8235 368.904 50.9199 411.139C23.1124 383.367 53.7069 346.515 30.6468 338.359C47.2623 359.163 15.6798 364.705 29.8148 423.031C36.0791 448.877 173.02 401.045 174.314 417.442C176.394 443.694 183.652 477.103 127.862 455.54C158.693 484.775 103.301 560.805 181.683 583.773C198.721 588.764 255.124 616.155 277.871 606.15C283.602 603.628 272.25 498.385 304.036 488.996C360.506 477.632 349.309 555.778 317.932 583.695C290.229 608.329 341.221 613.756 315.897 641.296C349.265 617.224 320.886 602.188 357.74 598.372C371.104 596.989 377.422 611.411 405.269 614.106C461.86 619.581 468.863 657.102 502.774 656.679C502.774 656.679 455.399 628.243 477.261 621.726C485.913 619.146 525.487 601.333 538.2 618.928C555.448 642.789 586.083 607.672 613.123 608.595C689.12 611.188 653.328 494.862 719.124 547.378C697.65 512.837 714.124 510.388 697.439 501.486C671.362 487.582 663.098 529.484 663.098 529.484C663.098 529.484 632.341 452.372 720.043 461.055C706.49 445.675 645.717 448.241 663.065 429.079C732.025 352.905 642.619 382.614 710.417 290.052C655.63 336.911 696.278 396.796 638.348 352.926C631.444 347.695 651.337 307.245 651.337 307.245C651.337 307.245 573.471 382.043 563.082 395.335C535.356 430.781 542.913 433.145 532.491 438.282C517.09 445.871 506.06 423.455 509.932 390.986C512.355 370.668 548.4 353.026 568.946 331.066C589.889 308.685 594.857 262.608 594.857 262.608C594.857 262.608 548.124 309.125 542.935 287.322C514.324 167.224 646.668 125.834 696.433 57.3197C598.154 114.358 617.405 55.5157 622.317 42.9958ZM622.317 42.9958C622.948 41.6003 623.246 40.7605 623.246 40.7605C623.246 40.7605 622.881 41.5828 622.317 42.9958Z" fill="#FF050B"/>
<path fill-rule="evenodd" clip-rule="evenodd" d="M195.783 358.502C154.905 380.238 57.666 401.805 57.666 401.805L111.479 312.178C114.517 324.649 299.196 255.922 333.558 215.562C254.693 232.246 58.9772 238.394 67.8043 221.657L111.077 154.245C111.077 154.245 166.174 167.766 189.24 168.085C182.18 159.563 154.853 137.433 154.853 137.433L208.764 100.074C222.214 126.754 239.951 149.673 263.867 167.173C313.618 165.304 328.872 147.965 379.408 141.378C390.587 139.922 443.048 209.306 434.405 216.051C434.405 216.051 367.051 262.681 280.864 304.841C310.853 333.23 338.386 348.346 365.27 359.903L372.33 432.103C335.738 421.95 293.535 403.976 259.729 372.818L264.764 603.264L188.925 557.733L195.783 358.502ZM468.79 150.44L565.493 123.574C565.493 123.574 477.548 350.675 471.065 458.838C468.482 501.921 473.918 533.273 473.918 533.273L586.894 520.851L571.581 450.119L647.23 379.483L657.974 566.692C659.799 578.81 651.31 590.202 638.455 592.885C638.455 592.885 411.97 629.888 386.375 588.755C377.051 573.772 389.482 506.68 392.51 456.162C399.118 345.928 468.79 150.44 468.79 150.44Z" fill="black"/>
</g>
<defs>
<clipPath id="clip0_1075_1836">
<rect width="2160" height="2700" fill="white"/>
</clipPath>
</defs>
</svg>
