<svg width="2160" height="2700" viewBox="0 0 2160 2700" fill="none" xmlns="http://www.w3.org/2000/svg">
<g clip-path="url(#clip0_940_409)">
<path fill-rule="evenodd" clip-rule="evenodd" d="M2187.27 -11.832V2711.83H-27.2656V-11.832H2187.27ZM2092.21 83.2317H67.7983V2616.77H2092.21V83.2317Z" fill="#D1D1D1"/>
<path fill-rule="evenodd" clip-rule="evenodd" d="M237.691 165.4L346.202 148.432L324.349 221.776L95.3431 226.911L76.3086 150.887L188.207 166.231C190.298 149.369 178.178 154.824 169.692 133.451L210.533 74.418C222.832 105.391 239.695 141.766 237.691 165.4ZM421.495 437.385C415.444 491.822 405.645 547.359 396.056 610.395L333.197 632.596C379.737 444.277 385.337 282.139 351.265 206C351.265 206 477.606 201.391 477.546 200.929C472.383 160.717 442.359 106.916 442.359 106.916L522.332 122.974C522.332 122.974 529.178 136.766 536.266 191.968C536.611 194.648 536.964 197.378 537.327 200.154L679.995 194.928L635.435 259.916L545.279 257.312C554.841 321.886 568.073 397.199 584.845 458.481C601.522 429.103 610.945 356.99 629.317 308.404L686.666 369.714C660.021 440.178 632.519 482.245 606.01 522.131C610.157 531.983 614.457 540.623 618.98 547.7C623.056 554.078 626.705 559.307 631.227 561.015C642.617 565.314 650.653 565.089 656.191 561.573C661.888 557.956 664.011 551.739 664.011 551.739L671.738 524.511L717.941 542.725L710.214 569.953C710.214 569.953 702.854 597.168 679.296 612.127C665.325 620.997 645.105 626.549 616.366 615.698C601.409 610.053 586.154 593.55 572.458 568.274C566.644 575.748 487.034 585.109 487.034 585.109C487.034 585.109 540.182 524.978 549.395 512.515C526.103 441.302 508.116 340.773 496.143 259.112L423.536 261.772C427.887 303.191 428.364 341.855 426.323 379.953L476.381 379.852C489.618 379.826 500.45 392.261 500.775 407.858L521.827 503.075L448.583 598.738C453.748 567.886 465.217 457.786 452.656 437.322L421.495 437.385ZM116.079 319.396L92.6899 262.777L325.071 256.592L298.181 313.921L116.079 319.396ZM103.081 407.38L120.86 344.24L284.391 343.991L314.671 406.287L103.081 407.38ZM133.652 445.619L304.448 449.393C311.287 449.148 317.897 452.304 322.664 458.089C327.43 463.874 329.913 471.754 329.505 479.803L326.165 595.859C325.473 609.507 316.71 620.687 305.221 622.58L113.356 626.761C106.296 627.924 99.1578 625.385 93.824 619.811C88.4893 614.237 85.4941 606.189 85.6276 597.79L85.0137 439.985L133.724 441.061L133.652 445.619ZM132.737 503.1L134.874 565.236L279.272 559.641L278.055 494.335L132.737 503.1ZM595.408 120.307L579.699 98.365C579.699 98.365 649.181 95.386 658.141 96.1153C664.809 96.6585 671.645 96.8135 678.642 97.5944L702.894 100.3L698.301 157.466L674.051 154.76C645.15 151.535 619.422 153.847 595.408 120.307Z" fill="black" stroke="black" stroke-width="12.9161" stroke-miterlimit="2" stroke-linejoin="round"/>
<path fill-rule="evenodd" clip-rule="evenodd" d="M435.618 15.6922C405.095 67.7303 492.227 97.0421 501.34 107.109C520.605 128.386 506.017 169.136 533.654 170.584C627.139 175.479 513.876 115.157 537.897 84.4079C549.338 69.7544 568.534 55.6211 594.997 55.3202C600.996 55.2513 634.234 31.9989 634.234 31.9989C634.234 31.9989 596.924 117.499 709.674 49.689C658.369 122.882 688.755 138.041 672.479 169.946C667.665 179.374 716.838 146.119 716.838 146.119C716.838 146.119 672.205 208.614 648.743 241.681C631.588 265.841 596.217 260.423 585.461 264.643C551.471 277.984 578.652 332.008 543.692 342.372C581.549 340.778 576.062 289.981 599.799 282.053C637.097 269.594 699.728 293.149 758.14 246.018C688.242 344.902 703.515 284.228 664.221 330.275C655.21 340.837 684.98 338.149 676.163 360.631C673.266 368.018 646.861 404.496 642.252 411.451C628.132 432.754 709.766 436.108 723.727 452.539C633.321 443.263 619.212 489.074 619.212 489.074C619.212 489.074 653.499 460.858 690.387 488.042C724.925 513.488 722.963 521.749 745.102 558.648C685.448 538.035 650.225 613.094 598.396 604.385C570.895 599.762 553.729 586.373 535.947 560.883C522.841 542.086 498.044 563.505 489.124 566.262C466.586 573.224 486.067 614.249 486.067 614.249C486.067 614.249 448.404 578.594 411.015 573.522C393.552 571.151 371.823 591.613 358.249 594.391C294.466 607.446 311.564 655.342 261.08 671.882C298.766 636.554 258.719 635.88 282.729 605.362C296.28 588.147 302.656 589.688 303.853 574.371C299.04 578.77 288.204 584.585 282.923 588.36C267.65 599.265 242.328 593.232 224.957 599.152C11.0356 672.044 49.9775 515.478 18.1953 484.246C60.7507 474.358 61.2206 529.46 59.082 501.415C57.7463 483.9 43.6529 428.262 39.2535 411.137C23.3316 349.16 47.6097 360.451 20.3648 303.278C39.4326 298.67 48.3032 366.498 76.9715 396.166C45.5759 358.289 110.349 343.45 81.9993 302.879C33.4351 233.378 57.3654 133.629 26.7272 64.3974C35.1085 74.3589 64.379 122.67 76.3989 127.588C132.771 150.659 122.443 130.201 130.638 97.9392C140.673 58.4361 170.709 71.2149 204.083 20.8614C198.985 21.7877 199.087 124.88 238.541 133.975C295.185 147.035 221.82 48.183 257.556 14.7578C247.86 110.32 362.607 99.6226 329.768 178.99C358.398 136.294 402.563 215.262 420.619 166.893C432.242 135.743 329.289 77.4994 435.618 15.6922Z" fill="#F2E83A"/>
<path fill-rule="evenodd" clip-rule="evenodd" d="M-9.59917 437.949C-11.017 432.419 -12.2294 427.757 -13.0473 424.573C-19.4176 399.774 -20.6746 383.726 -20.6974 371.414C-20.7237 357.244 -15.8361 352.836 -28.3818 326.509C-35.3829 311.817 -35.3841 294.753 -28.3875 280.06C-22.0388 266.73 -10.5448 256.644 3.34454 252.031C-1.35595 231.339 -4.13908 209.974 -6.12718 188.52C-9.48289 152.311 -9.53193 115.897 -22.6513 86.2517C-33.5317 61.6682 -24.6714 32.8254 -1.8658 18.5907C20.9386 4.35481 50.7419 9.062 68.0497 29.6337C71.1168 33.2792 80.0513 45.5506 88.6173 57.4755C96.8731 42.3623 107.735 32.6493 120.524 23.8147C130.519 16.9097 144.802 12.5641 159.076 -8.97232L159.213 -8.76932C161.733 -12.8617 164.06 -15.5857 165.395 -16.9354C174.611 -26.2565 184.808 -30.5216 194.446 -32.2703C205.157 -34.2138 215.936 -32.8466 225.505 -28.7064C241.634 -40.6044 263.26 -42.6798 281.521 -33.6305C301.699 -23.6398 313.55 -2.18625 311.28 20.2064C309.569 37.1045 318.283 45.5774 326.576 52.8161C329.233 55.14 331.925 57.395 334.594 59.6104C335.666 53.8159 337.275 47.9678 339.488 42.073C348.054 19.1822 366.919 -6.82928 408.484 -30.9929C429.699 -43.3249 456.561 -39.8018 473.875 -22.4149C488.624 -7.61557 493.289 14.0608 486.696 33.2384C490.677 36.0767 496.323 40.0525 501.672 43.6479C519.648 23.7949 546.248 6.22719 580.808 2.18612L603.267 -12.2423C623.08 -26.1107 649.713 -25.1097 668.431 -9.79126C673.347 -5.77002 677.396 -1.01966 680.533 4.20083C680.966 3.93951 681.411 3.67819 681.856 3.41338C703.71 -9.73176 731.781 -5.78984 749.175 12.8651C766.57 31.5212 768.543 59.8028 753.898 80.6871C749.278 87.2714 745.582 93.2338 742.628 98.6701C747.293 101.204 751.639 104.461 755.506 108.426C773.744 127.14 775.969 156.232 760.787 177.501C760.787 177.501 756.532 183.445 749.974 192.635C765.897 190.21 782.63 194.942 795.097 206.64C814.738 225.079 817.795 255.183 802.237 277.189C766.045 328.386 745.571 344.801 733.081 351.968C732.739 352.161 732.408 352.352 732.066 352.54C732.1 360.68 730.549 369.884 726.443 380.346C725.656 382.351 723.466 386.198 720.477 391.039C722.245 391.607 723.865 392.15 725.325 392.66C743.963 399.181 757.468 408.856 764.87 417.563C779.162 434.363 781.786 458.162 771.52 477.679C769.821 480.91 767.825 483.917 765.578 486.674C772.786 497.668 779.322 510.713 791.413 530.866C803.093 550.335 801.347 575.033 787.044 592.667C772.741 610.3 748.936 617.103 727.469 609.687C719.645 606.981 713.896 612.506 707.817 616.194C700.015 620.919 692.452 626.286 684.867 631.262C654.96 650.888 623.821 663.414 589.454 657.639C568.228 654.071 550.708 647.512 535.07 636.945C531.306 645.087 525.477 652.367 517.801 657.943C496.768 673.219 467.83 671.339 448.953 653.468C448.953 653.468 431.056 634.727 410.833 628.602C401.537 633.507 378.405 645.385 369.075 647.295C354.464 650.286 351.316 659.109 346.788 666.286C342.989 672.302 339.077 678.212 334.594 683.858C321.876 699.906 305.451 714.169 277.883 723.198C253.827 731.081 227.524 721.188 214.613 699.406C207.495 687.385 205.51 673.525 208.271 660.606C131.012 680.926 83.018 671.048 52.3627 653.323C11.8251 629.883 -6.19099 589.061 -15.9707 549.611C-18.6123 538.955 -22.8715 522.481 -24.0691 517.859C-34.7875 504.384 -38.5196 486.454 -33.786 469.626C-30.0015 456.17 -21.2301 444.934 -9.59917 437.949ZM203.195 22.1896C170.174 70.9928 140.584 58.7879 130.639 97.9398C122.445 130.202 132.772 150.659 76.4001 127.589C64.3803 122.67 35.1097 74.3596 26.7284 64.3981C57.3666 133.629 33.4364 233.379 82.0005 302.879C110.351 343.451 45.5772 358.29 76.9727 396.167C48.3044 366.498 39.4338 298.67 20.3661 303.278C47.6109 360.452 23.3328 349.16 39.2547 411.138C43.6541 428.262 57.7476 483.9 59.0832 501.415C61.2219 529.46 60.7519 474.359 18.1966 484.247C49.9788 515.479 11.0369 672.044 224.958 599.152C242.33 593.233 267.651 599.266 282.924 588.36C288.205 584.585 299.041 578.771 303.855 574.372C302.657 589.689 296.281 588.148 282.73 605.362C258.72 635.88 298.767 636.554 261.081 671.882C311.565 655.342 294.467 607.447 358.251 594.391C371.824 591.614 393.553 571.152 411.016 573.522C448.405 578.595 486.069 614.249 486.069 614.249C486.069 614.249 466.587 573.225 489.125 566.263C498.045 563.506 522.842 542.086 535.948 560.884C553.73 586.374 570.897 599.762 598.397 604.386C650.227 613.094 685.449 538.036 745.103 558.648C722.964 521.749 724.926 513.489 690.388 488.043C653.5 460.859 619.213 489.074 619.213 489.074C619.213 489.074 633.323 443.263 723.728 452.54C709.767 436.109 628.133 432.755 642.254 411.452C646.862 404.496 673.267 368.018 676.164 360.631C684.981 338.15 655.211 340.838 664.222 330.276C703.516 284.229 688.244 344.902 758.141 246.019C699.73 293.15 637.098 269.594 599.8 282.053C576.064 289.982 581.55 340.778 543.693 342.373C578.653 332.009 551.472 277.984 585.462 264.643C596.218 260.424 631.589 265.841 648.744 241.681C672.206 208.614 716.839 146.12 716.839 146.12C716.839 146.12 667.667 179.375 672.48 169.946C688.757 138.041 658.371 122.883 709.676 49.6897C596.925 117.5 634.235 31.9995 634.235 31.9995C634.235 31.9995 600.997 55.252 594.998 55.3208C568.535 55.6218 549.339 69.755 537.898 84.4086C513.877 115.158 627.141 175.48 533.655 170.585C506.018 169.137 520.607 128.387 501.342 107.109C492.228 97.0427 405.096 67.731 435.619 15.6929C329.29 77.5 432.243 135.743 420.62 166.893C402.564 215.263 358.399 136.295 329.769 178.991C362.608 99.6232 247.862 110.321 257.557 14.7585C221.821 48.1836 295.186 147.036 238.543 133.976C201.564 125.45 199.157 34.328 203.195 22.1896ZM203.195 22.1896C203.491 21.7522 203.788 21.31 204.085 20.8621C203.765 20.9204 203.469 21.3789 203.195 22.1896ZM510.672 615.697C510.638 615.661 510.603 615.625 510.569 615.588C508.219 616.657 506.235 617.495 505.06 617.857C507.056 617.241 508.927 616.518 510.672 615.697Z" fill="#FF050B"/>
<path fill-rule="evenodd" clip-rule="evenodd" d="M213.429 157.729L320.3 141.838L298.778 210.525L73.2313 215.334L54.4844 144.137L164.693 158.507C166.752 142.716 154.815 147.824 146.457 127.808L186.681 72.5234C198.794 101.53 215.403 135.596 213.429 157.729ZM394.456 412.444C388.497 463.424 378.845 515.435 369.401 574.468L307.492 595.26C353.329 418.898 358.844 267.055 325.287 195.751C325.287 195.751 449.719 191.434 449.66 191.002C444.575 153.343 415.005 102.958 415.005 102.958L493.769 117.996C493.769 117.996 500.512 130.913 507.493 182.609C507.833 185.12 508.18 187.676 508.538 190.276L649.051 185.382L605.165 246.243L516.37 243.805C525.787 304.279 538.819 374.81 555.338 432.2C571.764 404.687 581.044 337.154 599.139 291.652L655.622 349.069C629.379 415.059 602.292 454.455 576.184 491.809C580.268 501.036 584.503 509.127 588.958 515.754C592.972 521.727 596.566 526.624 601.02 528.223C612.237 532.25 620.153 532.039 625.606 528.746C631.217 525.359 633.308 519.537 633.308 519.537L640.919 494.037L686.424 511.095L678.814 536.594C678.814 536.594 671.564 562.082 648.363 576.09C634.602 584.397 614.688 589.596 586.383 579.435C571.652 574.148 556.628 558.693 543.139 535.022C537.413 542.021 459.005 550.788 459.005 550.788C459.005 550.788 511.35 494.475 520.424 482.804C497.484 416.112 479.769 321.966 467.977 245.49L396.467 247.981C400.751 286.77 401.222 322.98 399.211 358.659L448.513 358.564C461.55 358.539 472.218 370.185 472.539 384.791L493.272 473.963L421.135 563.552C426.222 534.658 437.518 431.549 425.146 412.385L394.456 412.444ZM93.6538 301.947L70.6182 248.922L299.489 243.131L273.004 296.819L93.6538 301.947ZM80.852 384.344L98.3629 325.213L259.423 324.98L289.246 383.32L80.852 384.344ZM110.961 420.155L279.177 423.689C285.913 423.46 292.423 426.416 297.118 431.833C301.813 437.25 304.258 444.631 303.856 452.169L300.566 560.856C299.885 573.637 291.254 584.107 279.939 585.879L90.9725 589.795C84.0188 590.885 76.9884 588.507 71.7352 583.286C66.4811 578.067 63.5311 570.53 63.6626 562.663L63.058 414.879L111.032 415.886L110.961 420.155ZM110.06 473.987L112.165 532.177L254.381 526.937L253.183 465.777L110.06 473.987ZM565.742 115.499L550.27 94.95L671.604 96.7622L667.081 150.298C667.081 150.298 589.393 146.909 565.742 115.499Z" fill="#282603"/>
</g>
<defs>
<clipPath id="clip0_940_409">
<rect width="2160" height="2700" fill="white"/>
</clipPath>
</defs>
</svg>
