<svg width="2160" height="2700" viewBox="0 0 2160 2700" fill="none" xmlns="http://www.w3.org/2000/svg">
<path fill-rule="evenodd" clip-rule="evenodd" d="M1324.73 1568.57L1370.2 1603.63L1431.88 1530.01L1390.1 1505.36L1324.73 1568.57Z" fill="#54C5ED"/>
<mask id="mask0_1502_85" style="mask-type:luminance" maskUnits="userSpaceOnUse" x="1324" y="1505" width="108" height="99">
<path d="M1324.73 1568.57L1370.2 1603.63L1431.88 1530.01L1390.1 1505.36L1324.73 1568.57Z" fill="white"/>
</mask>
<g mask="url(#mask0_1502_85)">
<path fill-rule="evenodd" clip-rule="evenodd" d="M1349.61 1560.59C1349.46 1556.64 1346.45 1548.47 1346.45 1548.47C1346.06 1547.4 1346.5 1546.21 1347.48 1545.63C1348.46 1545.06 1349.71 1545.25 1350.47 1546.12C1350.47 1546.12 1376.71 1575.8 1376.71 1575.79C1376.49 1574.67 1376.32 1573.59 1376.23 1572.63C1375.94 1569.92 1376.63 1567.95 1377.37 1567.29C1378.01 1566.71 1379.8 1566.1 1382.24 1566C1383.99 1565.93 1386.18 1566 1388.29 1566.12L1357.45 1538.1C1356.53 1537.26 1356.34 1535.86 1357.02 1534.8C1357.69 1533.74 1359.04 1533.33 1360.19 1533.83C1360.19 1533.83 1364.45 1535.65 1368.81 1537C1370.92 1537.65 1373.05 1538.2 1374.67 1538.33C1374.85 1538.34 1375.08 1538.38 1375.28 1538.41C1375.31 1538.18 1375.34 1537.86 1375.34 1537.61C1375.34 1535.91 1374.94 1533.66 1374.46 1531.41C1373.44 1526.81 1371.96 1522.27 1371.96 1522.27C1371.58 1521.14 1372.08 1519.9 1373.13 1519.32C1374.18 1518.74 1375.49 1519 1376.26 1519.92L1401.87 1551.44C1401.76 1550.26 1401.68 1549.06 1401.65 1547.96C1401.58 1544.95 1402.16 1542.49 1403.04 1541.54C1403.87 1540.65 1405.46 1540.11 1407.52 1540.31C1408.5 1540.39 1409.61 1540.64 1410.76 1540.95L1386.76 1512.61C1386.04 1511.76 1386.14 1510.5 1386.97 1509.78C1387.82 1509.07 1389.08 1509.17 1389.79 1510.01L1419.49 1544.48C1420.16 1545.26 1420.19 1546.4 1419.57 1547.23C1418.95 1548.04 1417.84 1548.33 1416.91 1547.9C1416.91 1547.9 1413.85 1546.51 1410.71 1545.56C1409.45 1545.17 1408.17 1544.86 1407.11 1544.76C1406.85 1544.74 1406.47 1544.76 1406.26 1544.78C1406.2 1545.01 1406.25 1545.36 1406.22 1545.77C1406.14 1546.8 1406.18 1548.07 1406.28 1549.4C1406.61 1553.86 1407.62 1558.95 1407.62 1558.95C1407.83 1560 1407.29 1561.04 1406.33 1561.5C1405.37 1561.95 1404.22 1561.69 1403.55 1560.86L1379.71 1531.93C1380.03 1533.54 1380.27 1535.1 1380.37 1536.44C1380.57 1539.2 1379.91 1541.26 1378.98 1542.18C1378.02 1543.12 1375.92 1543.68 1373.2 1543.3C1372.28 1543.17 1371.25 1542.96 1370.18 1542.7L1397.43 1567.41C1398.26 1568.17 1398.51 1569.37 1398.04 1570.4C1397.58 1571.42 1396.51 1572.04 1395.39 1571.9C1395.39 1571.9 1391.31 1571.44 1387.22 1571.22C1385.24 1571.12 1382.54 1571.22 1381.25 1571.29C1381.37 1575.47 1384.04 1584.45 1384.04 1584.45C1384.38 1585.59 1383.87 1586.81 1382.82 1587.38C1381.79 1587.96 1380.48 1587.73 1379.71 1586.84C1379.71 1586.84 1353.82 1557.16 1353.82 1557.17C1353.98 1557.99 1354.1 1558.78 1354.18 1559.49C1354.43 1562 1353.76 1563.83 1352.91 1564.53C1352.14 1565.16 1350.42 1565.49 1348.23 1565L1379.85 1593.34C1380.67 1594.07 1380.75 1595.33 1380.02 1596.15C1379.29 1596.98 1378.02 1597.05 1377.19 1596.32L1335.14 1559.29C1334.28 1558.53 1334.13 1557.26 1334.78 1556.33C1335.43 1555.39 1336.67 1555.09 1337.68 1555.62C1337.68 1555.62 1345.61 1559.85 1349.61 1560.59ZM1375.51 1538.44C1375.69 1538.45 1375.8 1538.42 1375.76 1538.3C1375.72 1538.19 1375.61 1538.33 1375.51 1538.44Z" fill="black"/>
</g>
<path fill-rule="evenodd" clip-rule="evenodd" d="M1324.73 1568.57L1370.2 1603.63L1431.88 1530.01L1390.1 1505.36L1324.73 1568.57Z" stroke="black" stroke-width="4.90622" stroke-miterlimit="1.5" stroke-linecap="round" stroke-linejoin="round"/>
<path fill-rule="evenodd" clip-rule="evenodd" d="M798.221 1869.39L983.633 1902L1370.26 1619.06L1318.41 1567.86C1162.68 1695.04 992.959 1801.09 798.221 1869.39Z" fill="#D2F0FA" stroke="black" stroke-width="4.90622" stroke-miterlimit="1.5" stroke-linecap="round" stroke-linejoin="round"/>
<path fill-rule="evenodd" clip-rule="evenodd" d="M1404.97 1476.16L1377.06 1498.69L1433.11 1545.26L1457.35 1526.79L1404.97 1476.16Z" fill="#54C5ED" stroke="black" stroke-width="4.17944" stroke-miterlimit="1.5" stroke-linecap="round" stroke-linejoin="round"/>
<path fill-rule="evenodd" clip-rule="evenodd" d="M1307.18 1538.08L1295.39 1558.65L1381.98 1626.15L1409.41 1619.48L1307.18 1538.08Z" fill="#54C5ED" stroke="black" stroke-width="4.17944" stroke-miterlimit="1.5" stroke-linecap="round" stroke-linejoin="round"/>
<path fill-rule="evenodd" clip-rule="evenodd" d="M1389.85 1490.02L1425.72 1534.98L1377.24 1593.43L1358.14 1578.14L1398.09 1541.92L1386.87 1509.26L1377.22 1499.86L1389.85 1490.02Z" fill="black" fill-opacity="0.3"/>
<path fill-rule="evenodd" clip-rule="evenodd" d="M1403.92 1483.2L1440.15 1528.6L1448.54 1525.14L1403.92 1483.2Z" fill="white"/>
<path fill-rule="evenodd" clip-rule="evenodd" d="M1302.21 1553.49L1387.59 1622.19L1383.41 1625.27L1370.33 1618.39L930.29 1892.51L806.844 1868.87C806.844 1868.87 852.202 1876.82 873.123 1867.33C887.416 1860.85 864.251 1847.96 884.903 1838.17C1031.74 1768.6 1335.16 1627.67 1335.38 1620.3C1335.66 1610.39 1313.84 1573.73 1313.84 1573.73L1295.58 1558.66L1302.21 1553.49Z" fill="black" fill-opacity="0.3"/>
<path fill-rule="evenodd" clip-rule="evenodd" d="M1309.71 1547.44L1399.08 1616.21L1390.33 1617.78L1309.71 1547.44Z" fill="white"/>
<path fill-rule="evenodd" clip-rule="evenodd" d="M1098.35 1449.78C1296.88 1454.77 1319.7 1648.13 1319.7 1648.13L1405.63 1677.38L1272.49 1851.55L1291.7 2075.24L1218.64 1896.05L972.163 1901.98L866.834 2053.73L905.743 1849.11L769.992 1693.41L858.124 1661.86C858.124 1661.86 870.753 1444.06 1098.35 1449.78Z" fill="#FF8184" stroke="black" stroke-width="5.66391" stroke-miterlimit="1.5" stroke-linecap="round" stroke-linejoin="round"/>
<path fill-rule="evenodd" clip-rule="evenodd" d="M970.957 1705.68C970.21 1704.87 970.263 1703.6 971.075 1702.86C971.886 1702.11 973.152 1702.16 973.898 1702.97C981.67 1711.39 988.701 1720.36 994.659 1730.14C1000.06 1739 1004.57 1748.54 1007.96 1758.91L1036.95 1743.42C1035.67 1733.9 1033.04 1724.72 1028.91 1715.94C1024.79 1707.21 1019.2 1698.88 1011.97 1690.97C1011.43 1690.37 1011.23 1689.54 1011.44 1688.76C1011.65 1687.98 1012.25 1687.37 1013.02 1687.13L1044.27 1677.44C1044.95 1677.23 1045.7 1677.34 1046.3 1677.73C1055.17 1683.51 1062.12 1690.37 1067.52 1698.13C1072.52 1705.32 1076.18 1713.28 1078.74 1721.86L1100.16 1710.05C1100.59 1702.22 1099.8 1694.87 1097.72 1688.03C1095.48 1680.63 1091.72 1673.82 1086.38 1667.65C1085.81 1667 1085.61 1666.11 1085.84 1665.28C1086.07 1664.45 1086.69 1663.79 1087.51 1663.51L1113.93 1654.57C1114.78 1654.28 1115.74 1654.46 1116.43 1655.04C1122.7 1660.31 1127.47 1666.09 1130.77 1672.36C1134.3 1679.09 1136.14 1686.4 1136.3 1694.27C1136.32 1695.03 1136 1695.76 1135.43 1696.27C1128.98 1702.02 1123.51 1707.82 1119.63 1713.72C1117.11 1717.58 1115.28 1721.46 1114.32 1725.41L1135.73 1732.13C1136.18 1725.46 1138.32 1718.99 1142.43 1712.74C1146.2 1706.98 1151.65 1701.41 1159.02 1696.08C1159.51 1695.72 1160.11 1695.56 1160.71 1695.62L1187.82 1698.17C1188.75 1698.25 1189.55 1698.87 1189.87 1699.74C1190.21 1700.62 1190 1701.61 1189.35 1702.28C1182.99 1708.89 1178.36 1715.62 1175.42 1722.48C1172.28 1729.8 1171.06 1737.27 1171.66 1744.88L1195.79 1754.82C1195.47 1746.59 1196.33 1738.45 1198.98 1730.42C1201.71 1722.2 1206.31 1714.1 1213.49 1706.18C1213.96 1705.66 1214.66 1705.4 1215.36 1705.49L1238.45 1708.4C1239.44 1708.53 1240.2 1709.31 1240.29 1710.3L1244.89 1761.87C1244.98 1762.97 1244.18 1763.95 1243.08 1764.05C1241.98 1764.15 1241 1763.34 1240.91 1762.24L1236.25 1712.38L1215.96 1709.91C1209.7 1717.08 1205.63 1724.39 1203.22 1731.81C1200.39 1740.46 1199.83 1749.26 1200.57 1758.15C1200.63 1758.93 1200.28 1759.71 1199.64 1760.17C1199 1760.65 1198.16 1760.75 1197.42 1760.45L1168.56 1748.68C1167.76 1748.36 1167.21 1747.62 1167.11 1746.77C1166.13 1737.88 1167.39 1729.15 1171.02 1720.6C1173.6 1714.51 1177.4 1708.5 1182.49 1702.59L1161.2 1700.66C1154.78 1705.43 1149.99 1710.38 1146.64 1715.5C1142.45 1721.93 1140.6 1728.62 1140.72 1735.54C1140.73 1736.35 1140.35 1737.13 1139.7 1737.62C1139.04 1738.1 1138.19 1738.26 1137.41 1738.01L1110.58 1729.61C1109.37 1729.23 1108.62 1728.02 1108.81 1726.77C1109.65 1721.41 1111.91 1716.11 1115.31 1710.9C1119.22 1704.93 1124.64 1699.03 1131.05 1693.2C1130.76 1686.62 1129.12 1680.48 1126.14 1674.78C1123.34 1669.46 1119.35 1664.52 1114.19 1659.97L1092.68 1667.22C1097.24 1673.17 1100.55 1679.61 1102.63 1686.54C1104.99 1694.36 1105.82 1702.78 1105.15 1711.8C1105.09 1712.66 1104.6 1713.43 1103.84 1713.84L1078.39 1727.76C1077.71 1728.13 1076.9 1728.17 1076.19 1727.87C1075.49 1727.57 1074.96 1726.95 1074.76 1726.21C1072.36 1717.01 1068.72 1708.52 1063.48 1700.94C1058.64 1693.93 1052.44 1687.7 1044.59 1682.39L1017.88 1690.57C1024.24 1698.05 1029.27 1705.86 1033.05 1714C1037.57 1723.7 1040.34 1733.85 1041.56 1744.41C1041.67 1745.32 1041.21 1746.2 1040.4 1746.62L1007.7 1763.91C1007.13 1764.21 1006.46 1764.24 1005.87 1763.99C1005.28 1763.76 1004.83 1763.25 1004.64 1762.64C1001.33 1751.63 996.722 1741.58 991.115 1732.29C985.339 1722.71 978.51 1713.93 970.957 1705.68Z" fill="black"/>
<path fill-rule="evenodd" clip-rule="evenodd" d="M854.205 1663.49C853.672 1663.54 853.202 1663.14 853.156 1662.61C853.11 1662.08 853.504 1661.61 854.037 1661.56C854.037 1661.56 886.145 1657.89 927.099 1653.62C942.511 1652.01 959.169 1650.32 975.844 1648.76C982.372 1648.15 988.903 1647.57 995.363 1647.05C1005.4 1646.24 1015.27 1645.54 1024.68 1644.88C1035.16 1644.14 1045.06 1643.49 1054.01 1642.93C1080.13 1641.27 1098.03 1640.28 1098.03 1640.28C1098.56 1640.23 1099.03 1640.62 1099.08 1641.16C1099.13 1641.69 1098.73 1642.16 1098.2 1642.2C1098.2 1642.2 1080.4 1644.32 1054.38 1647.21C1045.47 1648.21 1035.61 1649.29 1025.16 1650.38C1015.78 1651.36 1005.94 1652.37 995.909 1653.31C989.456 1653.91 982.924 1654.48 976.389 1655.01C959.696 1656.36 942.995 1657.57 927.539 1658.66C886.464 1661.55 854.205 1663.49 854.205 1663.49Z" fill="black"/>
<path fill-rule="evenodd" clip-rule="evenodd" d="M985.28 1778.82C984.437 1779.29 983.371 1778.99 982.899 1778.14C982.427 1777.31 982.727 1776.24 983.568 1775.76L1124.51 1694.21C1125.21 1693.81 1126.03 1693.64 1126.83 1693.73L1139.32 1694.89L1162.14 1692C1159.49 1687.29 1154.84 1680.13 1148.18 1673.8C1141.91 1667.86 1133.86 1662.63 1123.87 1661.22C1120.32 1660.7 1115.67 1661.47 1111.04 1662.59C1100.94 1665.03 1090.94 1669.4 1090.94 1669.4C1090.81 1669.46 1090.69 1669.5 1090.57 1669.55L951.112 1714.86C949.998 1715.24 948.769 1714.85 948.071 1713.9C947.374 1712.95 947.366 1711.66 948.054 1710.72L956.738 1699.01L911.806 1692.55C910.849 1692.43 910.173 1691.56 910.296 1690.6C910.42 1689.64 911.296 1688.96 912.254 1689.08L961.477 1694.73C962.334 1694.84 963.071 1695.39 963.415 1696.19C963.759 1696.99 963.659 1697.9 963.153 1698.6L957.28 1706.98L1087.61 1661.52C1088.94 1660.94 1098.88 1656.56 1108.92 1654.04C1114.77 1652.57 1120.66 1651.78 1125.13 1652.42C1137.08 1654.13 1146.81 1660.26 1154.26 1667.42C1166.62 1679.27 1172.62 1693.81 1172.62 1693.81C1173.15 1695.04 1173.06 1696.45 1172.39 1697.61C1171.71 1698.78 1170.53 1699.55 1169.2 1699.7L1139.87 1702.98C1139.58 1703.02 1139.28 1703.02 1138.98 1702.99L1127.22 1701.68L985.28 1778.82Z" fill="black"/>
<path fill-rule="evenodd" clip-rule="evenodd" d="M1219.26 1703.41C1218.91 1702.91 1218.71 1702.3 1218.71 1701.67C1218.7 1700.61 1219.24 1699.62 1220.13 1699.04L1273.37 1666.56C1274.19 1666.03 1275.27 1666.27 1275.79 1667.09C1276.31 1667.9 1276.07 1668.98 1275.26 1669.5L1227.58 1701.5L1237.81 1707.62C1239.22 1708.5 1239.79 1710.25 1239.18 1711.79C1238.56 1713.33 1236.94 1714.21 1235.32 1713.89L1169.8 1701.9L1133.34 1700.9L1097.95 1720.19C1111.16 1724.63 1135.73 1732.89 1160.29 1741.25C1196.38 1753.54 1232.39 1766.04 1232.39 1766.04C1233.3 1766.33 1233.82 1767.32 1233.52 1768.24C1233.23 1769.16 1232.24 1769.66 1231.32 1769.37C1231.32 1769.37 1194.75 1758.62 1158.23 1747.65C1121.72 1736.68 1085.28 1725.51 1085.28 1725.51C1083.56 1724.96 1082.33 1723.43 1082.15 1721.63C1081.98 1719.83 1082.89 1718.1 1084.47 1717.23L1129.89 1691.93C1130.64 1691.53 1131.49 1691.32 1132.35 1691.35L1170.43 1692.96C1170.66 1692.97 1170.91 1693 1171.15 1693.04L1219.26 1703.41Z" fill="black"/>
<path fill-rule="evenodd" clip-rule="evenodd" d="M1319.26 1649.02C1319.8 1649.05 1320.2 1649.51 1320.17 1650.05C1320.14 1650.58 1319.67 1650.99 1319.14 1650.96C1319.14 1650.96 1294.38 1650.28 1262.84 1649.01C1250.98 1648.54 1238.16 1647.98 1225.34 1647.29C1220.32 1647.02 1215.31 1646.71 1210.35 1646.36C1202.65 1645.82 1195.09 1645.19 1187.9 1644.58C1179.87 1643.9 1172.3 1643.22 1165.45 1642.57C1145.47 1640.7 1131.8 1639.29 1131.8 1639.29C1131.27 1639.26 1130.86 1638.8 1130.9 1638.27C1130.93 1637.73 1131.39 1637.33 1131.93 1637.36C1131.93 1637.36 1145.66 1637.66 1165.72 1638.28C1172.59 1638.49 1180.19 1638.74 1188.24 1639.07C1195.46 1639.36 1203.03 1639.68 1210.74 1640.09C1215.7 1640.36 1220.71 1640.67 1225.73 1641.03C1238.53 1641.93 1251.32 1642.97 1263.16 1643.97C1294.61 1646.62 1319.26 1649.02 1319.26 1649.02Z" fill="black"/>
<path d="M1102.64 1807.38C1137 1807.38 1164.85 1793.74 1164.85 1776.91C1164.85 1760.08 1137 1746.43 1102.64 1746.43C1068.29 1746.43 1040.43 1760.08 1040.43 1776.91C1040.43 1793.74 1068.29 1807.38 1102.64 1807.38Z" fill="white"/>
<path fill-rule="evenodd" clip-rule="evenodd" d="M1102.64 1746.43C1136.98 1746.43 1164.85 1760.09 1164.85 1776.91C1164.85 1793.73 1136.98 1807.38 1102.64 1807.38C1068.31 1807.38 1040.43 1793.73 1040.43 1776.91C1040.43 1760.09 1068.31 1746.43 1102.64 1746.43ZM1102.64 1748.37C1086.11 1749.11 1071.33 1753.06 1060.63 1758.79C1051.36 1763.76 1045.23 1769.88 1045.49 1776.91C1045.68 1783.71 1052.22 1789.03 1061.48 1793.27C1067.16 1795.85 1073.94 1797.81 1081.45 1799.16C1088.04 1800.35 1095.18 1801.1 1102.64 1801.11C1118.69 1801.4 1133.29 1798.54 1144 1793.66C1153.45 1789.35 1160.04 1783.85 1160.24 1776.91C1160.48 1769.76 1154.26 1763.49 1144.8 1758.48C1134.07 1752.81 1119.21 1748.99 1102.64 1748.37Z" fill="black"/>
<path fill-rule="evenodd" clip-rule="evenodd" d="M1062.13 1791.72L1069.49 1757.19L1081.23 1754.18L1089.93 1798.16L1078.42 1794.82L1076.79 1786.39L1072.68 1785.97L1071.1 1793.4L1062.13 1791.72ZM1073.78 1775.37L1078.09 1774.57L1075.98 1765.17L1073.78 1775.37Z" fill="black"/>
<path fill-rule="evenodd" clip-rule="evenodd" d="M1114.65 1774.74L1125.69 1791.11L1096.8 1799.24L1088.9 1754.07L1108.49 1754.1L1114.65 1774.74ZM1104.23 1788.75L1111.4 1785.13L1110.01 1782.53L1102.27 1779.64L1104.23 1788.75ZM1105.95 1772.52L1102.87 1766.06L1097.77 1764.12L1100.5 1773.09L1105.95 1772.52Z" fill="black"/>
<path fill-rule="evenodd" clip-rule="evenodd" d="M1119.93 1756.79L1131.82 1759.35L1141.23 1788.24L1130.42 1794.46L1119.93 1756.79Z" fill="black"/>
<path fill-rule="evenodd" clip-rule="evenodd" d="M1238.47 1534.94C1248.37 1537.8 1204.86 1593.58 1204.86 1593.58C1154.06 1585.61 1034.2 1586.62 988.002 1593.48C988.002 1593.48 946.785 1545.97 961.962 1538.1C1004.9 1515.83 1191.91 1521.51 1238.47 1534.94Z" fill="white"/>
<path fill-rule="evenodd" clip-rule="evenodd" d="M1238.47 1534.94C1248.37 1537.8 1204.86 1593.58 1204.86 1593.58C1154.06 1585.61 1034.2 1586.62 988.002 1593.48C988.002 1593.48 946.785 1545.97 961.962 1538.1C1004.9 1515.83 1191.91 1521.51 1238.47 1534.94ZM965.008 1543.64C964.983 1543.84 964.939 1544.24 964.947 1544.5C964.981 1545.56 965.236 1546.73 965.617 1548C967.044 1552.74 970.157 1558.38 973.673 1563.93C979.715 1573.48 987.041 1582.72 990.545 1587.01C1014.73 1584.05 1055.44 1582.57 1096.44 1583.06C1137.21 1583.54 1178.24 1585.96 1203.54 1590.12C1207.19 1585.54 1218.43 1571.26 1227.14 1558.22C1232.11 1550.78 1236.28 1543.78 1237.57 1539.31C1237.81 1538.48 1237.96 1537.78 1237.94 1537.19C1237.94 1537.03 1238.07 1536.85 1237.93 1536.81C1211.01 1529.6 1137.48 1526.17 1072.01 1528.52C1043.24 1529.55 1016.05 1531.68 995.088 1535.28C982.179 1537.49 971.725 1540.15 965.008 1543.64Z" fill="black"/>
<path fill-rule="evenodd" clip-rule="evenodd" d="M1092.17 1565.66L1102.2 1572.94L1085.03 1572.86L1092.17 1565.66Z" fill="black"/>
<path d="M1149.46 1560.53C1153.95 1560.53 1157.59 1557.18 1157.59 1553.04C1157.59 1548.9 1153.95 1545.54 1149.46 1545.54C1144.97 1545.54 1141.34 1548.9 1141.34 1553.04C1141.34 1557.18 1144.97 1560.53 1149.46 1560.53Z" fill="white"/>
<path fill-rule="evenodd" clip-rule="evenodd" d="M1149.46 1545.54C1153.95 1545.54 1157.59 1548.9 1157.59 1553.04C1157.59 1557.17 1153.95 1560.53 1149.46 1560.53C1144.98 1560.53 1141.34 1557.17 1141.34 1553.04C1141.34 1548.9 1144.98 1545.54 1149.46 1545.54ZM1149.46 1547.48C1148.18 1547.84 1147.42 1548.78 1146.6 1549.67C1145.77 1550.57 1146.11 1551.82 1146.39 1553.04C1146.48 1553.52 1147.19 1553.49 1147.54 1553.81C1147.78 1554.03 1148.17 1553.91 1148.48 1554.03C1148.79 1554.15 1149.11 1554.26 1149.46 1554.26C1150.15 1554.33 1150.84 1554.57 1151.36 1554.22C1151.94 1553.83 1152.85 1553.75 1152.97 1553.04C1153.19 1552 1153.47 1550.97 1152.87 1550.14C1152.02 1548.98 1151.03 1547.84 1149.46 1547.48Z" fill="black"/>
<path d="M1029.45 1564.85C1034.49 1564.85 1038.57 1562.89 1038.57 1560.47C1038.57 1558.06 1034.49 1556.1 1029.45 1556.1C1024.41 1556.1 1020.32 1558.06 1020.32 1560.47C1020.32 1562.89 1024.41 1564.85 1029.45 1564.85Z" fill="white"/>
<path fill-rule="evenodd" clip-rule="evenodd" d="M1029.45 1556.1C1034.49 1556.1 1038.58 1558.06 1038.58 1560.47C1038.58 1562.89 1034.49 1564.85 1029.45 1564.85C1024.41 1564.85 1020.32 1562.89 1020.32 1560.47C1020.32 1558.06 1024.41 1556.1 1029.45 1556.1ZM1028.16 1558.53C1028.57 1558.57 1029 1558.58 1029.45 1558.58C1030.22 1558.66 1030.95 1558.75 1031.63 1558.75C1030.89 1558.45 1030.13 1558.2 1029.45 1558.04C1028.99 1558.18 1028.56 1558.35 1028.16 1558.53ZM1025.21 1558.31C1025.23 1558.24 1025.25 1558.21 1025.22 1558.26C1025.22 1558.28 1025.21 1558.3 1025.21 1558.31ZM1033.93 1559.88C1033.96 1560.08 1034 1560.28 1033.96 1560.47C1033.88 1560.83 1034.34 1561.05 1034.43 1561.42C1034.46 1561.53 1034.67 1561.56 1034.78 1561.49C1035.39 1561.11 1034.89 1560.5 1033.93 1559.88ZM1025.37 1560.41C1025.1 1560.66 1024.83 1560.9 1024.59 1561.14C1024.4 1561.32 1024.24 1561.68 1024.42 1561.79C1024.57 1561.88 1024.83 1561.77 1024.86 1561.62C1024.97 1561.18 1025.48 1560.89 1025.38 1560.47C1025.38 1560.45 1025.38 1560.43 1025.37 1560.41Z" fill="black"/>
<path fill-rule="evenodd" clip-rule="evenodd" d="M1081.61 1545.22C1082 1544.19 1083.16 1543.67 1084.18 1544.07C1085.22 1544.47 1085.73 1545.64 1085.33 1546.66L1082.79 1556.68C1082.28 1558.01 1080.95 1558.85 1079.52 1558.74C1079.52 1558.74 1070.41 1559.25 1057.97 1559.4C1053.93 1559.44 1049.58 1559.42 1045.08 1559.29C1042.26 1559.22 1039.38 1559.13 1036.51 1558.86C1030.65 1558.3 1024.86 1557.41 1019.49 1556.47C1005.04 1553.96 994.074 1551.2 994.074 1551.2C992.975 1551.12 992.148 1550.16 992.228 1549.06C992.309 1547.96 993.268 1547.13 994.368 1547.21C994.368 1547.21 1005.62 1546.09 1020.28 1545.72C1025.72 1545.58 1031.59 1545.54 1037.46 1545.84C1040.35 1546 1043.21 1546.34 1046.01 1546.67C1050.49 1547.2 1054.79 1547.83 1058.78 1548.46C1067.65 1549.87 1074.76 1551.23 1078.04 1551.87L1081.61 1545.22Z" fill="black"/>
<path fill-rule="evenodd" clip-rule="evenodd" d="M1111.66 1552.7C1110.8 1553.16 1109.74 1552.86 1109.28 1552.01C1108.81 1551.16 1109.13 1550.1 1109.97 1549.64C1116.65 1545.13 1125.26 1541.21 1134.81 1538.19C1138.49 1537.01 1142.29 1536.03 1146.16 1535.19C1151.3 1534.1 1156.51 1533.25 1161.66 1532.84C1165.22 1532.55 1168.74 1532.45 1172.15 1532.61C1180.32 1532.97 1187.83 1534.3 1193.98 1536.33C1204.33 1539.74 1210.82 1545.01 1211.06 1551.53C1211.2 1552.49 1210.54 1553.38 1209.59 1553.52C1208.63 1553.66 1207.74 1553 1207.6 1552.04C1206.78 1548.99 1203.8 1547.24 1199.71 1545.85C1195.11 1544.29 1189.09 1543.81 1182.18 1543.66C1177.75 1543.56 1173 1543.76 1168.04 1543.94C1163.41 1544.11 1158.62 1544.25 1153.81 1544.59C1148.04 1545 1142.28 1545.51 1136.68 1546.34C1127.32 1547.73 1118.63 1549.65 1111.66 1552.7Z" fill="black"/>
<path fill-rule="evenodd" clip-rule="evenodd" d="M994.806 1467.62L914.405 1564.1L936.045 1614.95L1012.2 1609.25L941.891 1632.48L1015.92 1633.5L939.805 1653.33L965.175 1665.15L908.245 1683.79L874.35 1689.12L889.677 1710.92C889.677 1710.92 917.779 1688.1 915.017 1702.54C912.257 1716.99 902.605 1729.79 902.605 1729.79L931.675 1726.72L933.622 1749.27L963.234 1739.06C963.234 1739.06 967.477 1750.88 976.17 1754.71C984.863 1758.54 1087.26 1711.68 1087.26 1711.68L1252.56 1763L1235.64 1774.86L1083.9 1735.71L980.872 1793.87L963.555 1799.69C963.555 1799.69 985.824 1799.26 984.13 1805.3C982.434 1811.34 956.91 1824.45 956.91 1824.45L1018.69 1819.95L983.169 1842.19L1233.7 1879.93L1240.9 1923.7L1277.64 2037.58L1217.8 1894.33L969.822 1899.05L866.914 2043.05L905.781 1848.82L773.312 1694.39L854.742 1659.59C879.533 1530.94 934.367 1491 994.806 1467.62Z" fill="black" fill-opacity="0.3"/>
<path fill-rule="evenodd" clip-rule="evenodd" d="M1226.26 1703.22L1264.7 1718L1251.88 1692.49L1280.02 1682.83L1276.73 1664.33L1225.81 1676.12L1230.96 1685.06L1206.42 1698.53L1226.26 1703.22Z" fill="black" fill-opacity="0.3"/>
<path fill-rule="evenodd" clip-rule="evenodd" d="M1224.49 1484.13L1258.86 1512.72C1152.8 1504.56 1018.92 1509.35 915.512 1517.61L936.946 1491.03C1041.69 1478 1119.75 1471.4 1224.49 1484.13Z" fill="white"/>
<path fill-rule="evenodd" clip-rule="evenodd" d="M1224.49 1484.13L1258.86 1512.72C1152.8 1504.56 1018.92 1509.35 915.512 1517.61L936.946 1491.03C1041.69 1478 1119.75 1471.4 1224.49 1484.13ZM1223.69 1486C1171.55 1480.65 1126.13 1480.12 1080.71 1482.48C1035.98 1484.81 991.264 1489.94 940.249 1496.86L929.543 1510.23C952.265 1508.62 976.256 1507.17 1000.95 1506.1C1029.02 1504.89 1057.98 1504.12 1087.02 1503.89C1143.45 1503.45 1200.11 1505.08 1250.87 1509.36L1223.69 1486Z" fill="black"/>
<path fill-rule="evenodd" clip-rule="evenodd" d="M829.487 1536.21L831.219 1567.19C861.093 1543.48 905.434 1527.08 941.697 1518.52L923.239 1497.96C884.462 1502.45 856.933 1508.59 829.487 1536.21Z" fill="white"/>
<path fill-rule="evenodd" clip-rule="evenodd" d="M829.487 1536.21C856.933 1508.59 884.462 1502.45 923.239 1497.96L941.697 1518.52C905.434 1527.08 861.093 1543.48 831.219 1567.19L829.487 1536.21ZM831.508 1536.99C831.508 1536.99 833.812 1560.95 833.814 1560.95C847.731 1549.95 864.383 1540.29 881.878 1532.39C897.894 1525.15 914.583 1519.45 930.229 1515.04C930.229 1515.04 920.721 1504.19 920.721 1504.19C899.268 1506.04 881.354 1508.73 864.645 1515.72C853.277 1520.47 842.453 1527.09 831.508 1536.99Z" fill="black"/>
<path fill-rule="evenodd" clip-rule="evenodd" d="M838.746 1464.38L821.505 1490.18C859.635 1489.19 904.927 1502.74 939.051 1517.7L936.662 1490.17C902.974 1470.45 877.284 1458.8 838.746 1464.38Z" fill="white"/>
<path fill-rule="evenodd" clip-rule="evenodd" d="M838.746 1464.38C877.284 1458.8 902.974 1470.45 936.662 1490.17L939.051 1517.7C904.927 1502.74 859.635 1489.19 821.505 1490.18L838.746 1464.38ZM839.894 1466.21C839.894 1466.21 827.329 1486.75 827.33 1486.75C845.068 1486.32 864.18 1488.62 882.912 1492.82C900.06 1496.66 916.827 1502.14 931.979 1508.02L930.906 1493.63C912.647 1482.22 896.715 1473.6 879.161 1469.14C867.219 1466.1 854.591 1464.88 839.894 1466.21Z" fill="black"/>
<path fill-rule="evenodd" clip-rule="evenodd" d="M908.658 1515.57L936.753 1522.01C929.739 1509.91 935.893 1496.09 945.199 1485.86L918.514 1485.56C904.46 1495.47 897.079 1503.16 908.658 1515.57Z" fill="white"/>
<path fill-rule="evenodd" clip-rule="evenodd" d="M908.658 1515.57C897.079 1503.16 904.46 1495.47 918.514 1485.56L945.199 1485.86C935.893 1496.09 929.739 1509.91 936.753 1522.01L908.658 1515.57ZM909.635 1513.91C909.635 1513.91 930.061 1517.02 930.061 1517.02C928.981 1513.37 928.763 1509.6 929.196 1505.84C929.759 1500.94 931.592 1496.07 934.189 1491.47C933.398 1491.44 932.595 1491.41 931.793 1491.38C926.874 1491.17 921.972 1490.81 919.726 1490.64C916.186 1492.82 913.128 1494.87 910.745 1496.99C908.646 1498.86 906.981 1500.58 906.323 1502.66C905.308 1505.87 906.265 1509.41 909.635 1513.91Z" fill="black"/>
<path fill-rule="evenodd" clip-rule="evenodd" d="M988.579 1506.24C983.991 1507.14 947.193 1507.61 948.398 1506.56C951.512 1503.85 1030.72 1496.38 1030.72 1496.38C975.736 1501.06 952.406 1503.93 942.99 1501.97C937.621 1500.85 937.768 1497.13 936.657 1493.87L929.587 1508.43C922.626 1510.22 919.899 1507.99 921.704 1501.45L912.411 1509.52C907.431 1508.25 910.906 1498.8 915.088 1491.33L896.523 1482.73L903.663 1493.11L871.602 1489.49L904.788 1499.99L903.391 1506.39C905.755 1513.23 893.083 1516.67 878.54 1519.7L902.588 1518.51C877.318 1531.04 841.825 1546.3 831.668 1541.54L833.246 1562.13C833.476 1557.72 918.86 1511.09 934.698 1518.1L935.379 1513.24L988.579 1506.24Z" fill="black" fill-opacity="0.3"/>
</svg>
