<svg width="2160" height="2700" viewBox="0 0 2160 2700" fill="none" xmlns="http://www.w3.org/2000/svg">
<g clip-path="url(#clip0_2004_1233)">
<path fill-rule="evenodd" clip-rule="evenodd" d="M2180.01 -20.9688V2724.42H-34.668V-20.9688H2180.01ZM2080.01 79.0316H65.332V2624.42H2080.01V79.0316Z" fill="#D1D1D1"/>
<path d="M217.295 343.648C212.225 345.037 207.714 343.76 203.479 341.177C214.526 341.162 225.571 342.296 236.62 335.574L204.178 330.618L241.151 332.6L198.188 322.86L210.336 320.006L228.959 318.699L236.374 320.772C241.925 318.196 247.249 318.789 252.529 319.976L242.568 326.427" stroke="#673AB7" stroke-width="15.9965" stroke-miterlimit="1.5" stroke-linecap="round" stroke-linejoin="round"/>
<path d="M281.65 247.578L280.191 253.887C284.463 254.044 288.698 252.618 292.887 249.321L294.118 244.139L300.232 236.426C274.863 244.221 249.102 254.382 222.094 251.686C246.917 247.466 264.639 242.824 284.189 237.395L268.791 255.682L246.188 261.119C250.557 264.333 257.863 264.145 264.896 264.273" stroke="#2450A4" stroke-width="15.9965" stroke-miterlimit="1.5" stroke-linecap="round" stroke-linejoin="round"/>
<path d="M296.7 279.621C295.759 281.251 295.418 282.911 296.151 284.6L280.332 293.65L294.92 293.68L283.819 301.603L298.062 303.218L305.212 303.015L314.472 306.537" stroke="#18815A" stroke-width="15.9965" stroke-miterlimit="1.5" stroke-linecap="round" stroke-linejoin="round"/>
<path d="M362.746 283.113C369.627 285.321 374.916 287.785 378.362 290.548L335.91 293.199C343.635 297.412 354.278 298.329 365.621 298.456L357.282 303.113C354.603 306.012 351.026 307.213 346.93 307.438" stroke="#CEDC3E" stroke-width="15.9965" stroke-miterlimit="1.5" stroke-linecap="round" stroke-linejoin="round"/>
<path d="M408.145 229.883C396.878 225.865 385.149 226.474 373.281 228.464L402.131 234.63L369.015 233.601L360.32 245.497L400.195 243.657C395.199 250.251 387.438 252.301 377.08 250.078L360.437 252.624L372.68 255.658" stroke="#02BBD3" stroke-width="15.9965" stroke-miterlimit="1.5" stroke-linecap="round" stroke-linejoin="round"/>
<path d="M447.088 303.145L438.65 309.213L405.646 311.789C404.095 320.395 426.525 315.371 443.271 313.576L401.738 324.751L440.227 320.816L411.13 330.391L435.285 328.484C430.775 338.9 426.096 341.626 421.368 334.559" stroke="#FEEA3B" stroke-width="15.9965" stroke-miterlimit="1.5" stroke-linecap="round" stroke-linejoin="round"/>
<path d="M406.479 357.789C396.867 362.806 389.622 369.137 383.719 377.954L391.277 378.667C392.566 372.561 401.672 368.161 395.895 362.505C389.513 361.717 382.973 360.696 378.691 362.934C388.578 365.021 394.71 369.43 400.924 373.793" stroke="#F4B90E" stroke-width="15.9965" stroke-miterlimit="1.5" stroke-linecap="round" stroke-linejoin="round"/>
<path d="M374.056 401.871C370.694 403.268 369.234 405.468 370.285 408.735C372.143 412.295 376.602 413.587 383.328 412.903" stroke="#E81F61" stroke-width="15.9965" stroke-miterlimit="1.5" stroke-linecap="round" stroke-linejoin="round"/>
<path d="M426.199 407.077C446.883 410.974 446.66 397.088 463.83 396.225L459.196 385.891C448.315 389.743 435.985 394.129 432.643 398.838L455.742 403.945C453.609 408.053 449.486 409.54 445.006 410.546L437.856 391.989" stroke="#F44334" stroke-width="15.9965" stroke-miterlimit="1.5" stroke-linecap="round" stroke-linejoin="round"/>
<path fill-rule="evenodd" clip-rule="evenodd" d="M206.426 388.497C266.613 396.788 253.123 356.962 260.912 347.109C274.502 337.624 294.405 337.053 311.271 341.537C323.309 344.736 334.059 349.708 338.677 359.508C343.846 370.48 339.362 382.256 334.18 393.221C330.567 400.866 325.777 409.871 327.086 414.287C331.608 429.532 348.287 441.811 375.564 446.655C375.564 446.655 391.514 451.987 399.814 452.573C411.397 453.384 445.062 451.529 445.062 451.529C476.329 447.902 482.142 430.959 485.964 412.972L480.805 339.329L471.785 311.969L454.144 267.81C442.11 250.289 429.394 233.114 416.359 216.096C405.453 207.249 390 202.217 371.817 199.461L299.22 200.828C279.661 201.414 260.238 204.17 240.951 209.104C233.162 212.085 224.345 216.682 213.955 223.764C204.967 229.877 197.471 237.717 190.728 246.752C186.018 253.06 183.7 259.827 179.65 266.999C180.2 269.65 177.356 273.443 176.099 277.723C175.082 281.186 175.439 286.09 173.45 290.701C173.339 304.347 172.468 317.595 173.269 330.91C173.543 338.247 174.309 345.75 176.355 353.688C179.81 361.649 184.761 369.407 190.155 376.601C195.842 384.194 202.652 393.837 206.426 388.497Z" stroke="#607D8B" stroke-width="15.9965" stroke-miterlimit="1.5" stroke-linecap="round" stroke-linejoin="round"/>
<path d="M177.478 188.179C163.934 182.186 152.098 181.653 140.066 180.504" stroke="#607D8B" stroke-width="15.9965" stroke-miterlimit="1.5" stroke-linecap="round" stroke-linejoin="round"/>
<path d="M146.5 280.284C138.434 277.744 131.385 277.518 124.219 277.031" stroke="#607D8B" stroke-width="15.5514" stroke-miterlimit="1.5" stroke-linecap="round" stroke-linejoin="round"/>
<path d="M229.183 167.851C229.848 164.704 229.837 161.475 227.727 158.035" stroke="#607D8B" stroke-width="15.9965" stroke-miterlimit="1.5" stroke-linecap="round" stroke-linejoin="round"/>
<path d="M309.903 155.789C309.455 153.791 309.217 151.741 309.635 149.57" stroke="#607D8B" stroke-width="15.9965" stroke-miterlimit="1.5" stroke-linecap="round" stroke-linejoin="round"/>
<path d="M442.023 170.401C445.262 167.367 448.547 163.838 451.898 159.609" stroke="#607D8B" stroke-width="15.9965" stroke-miterlimit="1.5" stroke-linecap="round" stroke-linejoin="round"/>
<path d="M505.73 181.49C511.325 179.071 517.251 176.218 524.904 171.051" stroke="#607D8B" stroke-width="15.9965" stroke-miterlimit="1.5" stroke-linecap="round" stroke-linejoin="round"/>
<path d="M486.375 264.932C496.701 263.054 504.534 258.143 512.991 253.99L515.89 251.602" stroke="#607D8B" stroke-width="15.9965" stroke-miterlimit="1.5" stroke-linecap="round" stroke-linejoin="round"/>
<path d="M511.25 372.176C514.847 375.315 524.836 371.598 532.323 371.673" stroke="#607D8B" stroke-width="15.9965" stroke-miterlimit="1.5" stroke-linecap="round" stroke-linejoin="round"/>
<path d="M518.543 476.941C526.278 480.043 530.477 487.012 541.779 486.975" stroke="#607D8B" stroke-width="15.9965" stroke-miterlimit="1.5" stroke-linecap="round" stroke-linejoin="round"/>
<path d="M193.36 417.938C192.968 422.751 190.764 428.407 187.547 434.52" stroke="#607D8B" stroke-width="15.9965" stroke-miterlimit="1.5" stroke-linecap="round" stroke-linejoin="round"/>
<path d="M153.405 379.883C150.574 386.86 146.687 389.008 142.953 391.854" stroke="#607D8B" stroke-width="15.9965" stroke-miterlimit="1.5" stroke-linecap="round" stroke-linejoin="round"/>
<path d="M357.634 496.355C353.761 502.812 354.382 507.21 354.352 511.905" stroke="#607D8B" stroke-width="15.9965" stroke-miterlimit="1.5" stroke-linecap="round" stroke-linejoin="round"/>
<path d="M436.879 491.781C440.585 498.327 441.49 510.975 441.398 515.665" stroke="#607D8B" stroke-width="15.9965" stroke-miterlimit="1.5" stroke-linecap="round" stroke-linejoin="round"/>
</g>
<defs>
<clipPath id="clip0_2004_1233">
<rect width="2160" height="2700" fill="white"/>
</clipPath>
</defs>
</svg>
