<svg width="2160" height="2700" viewBox="0 0 2160 2700" fill="none" xmlns="http://www.w3.org/2000/svg">
<g clip-path="url(#clip0_1504_6477)">
<path fill-rule="evenodd" clip-rule="evenodd" d="M2180.01 -19.9688V2725.42H-34.668V-19.9688H2180.01ZM2080.01 80.0316H65.332V2625.42H2080.01V80.0316Z" fill="#D1D1D1"/>
<path d="M627.96 108.875H119.086V608.042H627.96V108.875Z" fill="black"/>
<path fill-rule="evenodd" clip-rule="evenodd" d="M627.96 108.875V608.043H119.086V108.875H627.96ZM621.259 115.313L128.822 118.491L131.682 595.311L612.773 593.036C612.62 568.945 612.392 518.215 612.653 458.293C612.791 426.713 613.092 392.586 613.677 358.459C614.419 315.1 615.466 271.783 616.671 233.667C618.471 176.712 620.501 131.5 621.259 115.313Z" fill="#F2E83A"/>
<path fill-rule="evenodd" clip-rule="evenodd" d="M501.447 295.211C520.926 317.973 532.441 346.088 532.441 376.5C532.441 452.262 460.976 513.772 372.951 513.772C284.926 513.772 213.461 452.262 213.461 376.5C213.461 347.796 223.719 321.137 241.25 299.095C232.268 287.393 226.986 273.101 226.986 257.678C226.986 218.092 261.781 185.954 304.638 185.954C332.325 185.954 356.647 199.367 370.396 219.536C383.114 195.933 409.5 179.699 439.96 179.699C482.817 179.699 517.611 211.838 517.611 251.424C517.611 267.904 511.58 283.094 501.447 295.211ZM310.149 219.246C283.674 219.246 267.183 240.176 267.183 264.998C267.183 289.82 288.678 309.972 315.153 309.972C341.628 309.972 363.123 289.82 363.123 264.998C363.123 240.176 336.624 219.246 310.149 219.246ZM446.561 212.167C420.086 212.167 388.297 239.086 388.297 263.908C388.297 288.73 409.791 308.882 436.267 308.882C462.742 308.882 486.145 288.28 486.145 263.458C486.145 238.636 473.036 212.167 446.561 212.167ZM483.631 404.176L268.654 406.174L269.843 411.933L482.453 412.335L483.631 404.176Z" fill="#D8EDE5"/>
<path fill-rule="evenodd" clip-rule="evenodd" d="M501.447 295.211C520.926 317.973 532.441 346.088 532.441 376.5C532.441 452.262 460.976 513.772 372.951 513.772C284.926 513.772 213.461 452.262 213.461 376.5C213.461 347.796 223.719 321.137 241.25 299.095C232.268 287.393 226.986 273.101 226.986 257.678C226.986 218.092 261.781 185.954 304.638 185.954C332.325 185.954 356.647 199.367 370.396 219.536C383.114 195.933 409.5 179.699 439.96 179.699C482.817 179.699 517.611 211.838 517.611 251.424C517.611 267.904 511.58 283.094 501.447 295.211ZM499.761 293.802C504.688 287.861 508.599 281.167 511.257 273.942C513.856 266.875 515.25 259.299 515.218 251.424C515.138 231.854 506.23 214.217 492.012 201.692C478.477 189.769 460.127 182.483 439.96 182.562C425.742 182.617 412.459 186.335 401.157 192.746C389.187 199.536 379.446 209.356 373.204 221.049C372.676 222.03 371.674 222.663 370.562 222.721C369.45 222.779 368.388 222.253 367.761 221.333C360.939 211.409 351.428 203.222 340.19 197.624C329.611 192.355 317.496 189.391 304.638 189.441C284.692 189.519 266.598 196.86 253.304 208.756C239.461 221.143 230.845 238.493 230.914 257.678C230.94 264.857 232.185 271.77 234.462 278.253C236.788 284.88 240.2 291.054 244.493 296.605C245.636 298.095 245.618 300.171 244.45 301.64C235.974 312.376 229.275 324.23 224.715 336.888C220.204 349.406 217.796 362.712 217.843 376.5C217.968 414.821 237.099 449.26 267.437 473.365C295.165 495.396 332.257 508.8 372.951 508.689C413.58 508.621 450.48 494.985 478.143 472.963C496.252 458.547 510.383 440.527 518.94 420.165C524.678 406.512 528.006 391.847 528.221 376.5C528.52 361.801 526.017 347.618 521.193 334.278C516.294 320.733 509.055 308.051 499.778 296.64C499.08 295.825 499.073 294.625 499.761 293.802ZM485.807 404.49L484.714 412.661C484.551 413.786 483.586 414.621 482.449 414.619L269.835 416.289C267.772 416.285 265.995 414.835 265.577 412.814L264.34 407.065C264.073 405.774 264.398 404.433 265.225 403.407C266.053 402.382 267.295 401.781 268.613 401.769C268.613 401.769 320.925 400.672 373.944 400.013C389.356 399.821 404.828 399.54 419.09 399.643C430.923 399.728 441.906 400.031 451.347 400.372C470.808 401.076 483.611 401.978 483.611 401.978C484.252 401.972 484.864 402.246 485.286 402.729C485.708 403.212 485.898 403.855 485.807 404.49ZM483.631 404.176L268.654 406.174L269.843 411.933L482.453 412.335L483.631 404.176ZM446.561 209.969C458.073 209.795 467.272 214.381 474.183 221.621C484.087 231.995 489.183 247.991 489.406 263.458C489.601 277.19 483.146 289.817 472.961 298.926C463.279 307.585 450.191 312.986 436.267 313.172C422.124 313.344 409.241 308.167 399.721 299.714C389.601 290.729 383.333 278.004 383.189 263.908C383.131 253.669 387.663 242.946 395.298 233.736C398.141 230.306 401.403 227.075 404.996 224.207C409.692 220.459 414.865 217.206 420.311 214.828C428.993 211.038 438.118 209.266 446.561 209.969ZM446.561 212.167C420.086 212.167 388.297 239.086 388.297 263.908C388.297 288.73 409.791 308.882 436.267 308.882C462.742 308.882 486.145 288.28 486.145 263.458C486.145 238.636 473.036 212.167 446.561 212.167ZM310.149 217.048C323.567 216.839 337.056 221.809 347.444 229.916C358.75 238.741 366.29 251.306 366.494 264.998C366.694 278.721 360.769 291.196 351.14 300.19C341.9 308.822 329.2 314.18 315.153 314.371C300.981 314.545 288.069 309.36 278.531 300.889C268.392 291.882 262.12 279.124 261.983 264.998C261.963 256.93 263.443 249.191 266.506 242.389C268.688 237.542 271.605 233.133 275.224 229.438C279.735 224.832 285.191 221.161 291.534 219.037C297.173 217.15 303.385 216.416 310.149 217.048ZM310.149 219.246C283.674 219.246 267.183 240.176 267.183 264.998C267.183 289.82 288.678 309.972 315.153 309.972C341.628 309.972 363.123 289.82 363.123 264.998C363.123 240.176 336.624 219.246 310.149 219.246Z" fill="black"/>
<path fill-rule="evenodd" clip-rule="evenodd" d="M559.267 307.634L529.573 327.094L507.528 293.455L537.374 273.896C534.382 270.444 532.354 266.344 531.621 261.783C529.07 245.915 543.152 230.437 563.048 227.239C582.944 224.041 601.168 234.327 603.718 250.194C604.391 254.381 603.906 258.539 602.463 262.453C614.998 265.293 624.647 273.725 626.451 284.951C629.002 300.819 614.92 316.298 595.024 319.495C580.296 321.863 566.484 316.84 559.267 307.634Z" fill="#D8EDE5"/>
<path fill-rule="evenodd" clip-rule="evenodd" d="M559.267 307.634L529.573 327.094L507.528 293.455L537.374 273.896C534.382 270.444 532.354 266.344 531.621 261.783C529.07 245.915 543.152 230.437 563.048 227.239C582.944 224.041 601.168 234.327 603.718 250.194C604.391 254.381 603.906 258.539 602.463 262.453C614.998 265.293 624.647 273.725 626.451 284.951C629.002 300.819 614.92 316.298 595.024 319.495C580.296 321.863 566.484 316.84 559.267 307.634ZM560.997 306.279C564.616 310.777 569.97 314.122 576.222 315.946C581.808 317.575 588.117 317.961 594.597 316.837C603.179 315.352 610.57 311.432 615.77 306.169C621.469 300.4 624.482 292.979 623.184 285.476C622.312 280.435 619.568 276.096 615.646 272.739C611.895 269.528 607.05 267.245 601.639 266.087C600.593 265.85 599.699 265.173 599.188 264.23C598.676 263.288 598.596 262.17 598.967 261.163C599.563 259.488 599.947 257.76 600.111 256.008C600.272 254.292 600.203 252.552 599.902 250.808C598.656 243.564 593.464 237.828 586.414 234.423C579.998 231.323 572.019 230.188 563.75 231.607C555.543 233.011 548.468 236.742 543.486 241.762C538.163 247.124 535.287 254.011 536.476 261.002C536.78 262.8 537.35 264.5 538.129 266.094C538.925 267.719 539.959 269.223 541.174 270.602C542.124 271.699 542.556 273.153 542.355 274.59C542.156 276.027 541.345 277.307 540.13 278.103L514.808 294.928C516.927 298.15 519.937 302.771 522.878 307.439C526.058 312.486 529.153 317.584 531.146 320.897C533.354 319.599 536.266 317.904 539.372 316.139C548.015 311.228 558.064 305.796 558.064 305.796C559.018 305.171 560.294 305.38 560.997 306.279Z" fill="black"/>
<path fill-rule="evenodd" clip-rule="evenodd" d="M544.971 457.752L515.276 438.292L493.231 471.932L523.077 491.49C520.085 494.942 518.057 499.042 517.324 503.604C514.773 519.471 528.855 534.95 548.751 538.148C568.647 541.346 586.871 531.06 589.421 515.192C590.094 511.006 589.609 506.847 588.166 502.934C600.701 500.094 610.35 491.661 612.154 480.435C614.705 464.568 600.623 449.089 580.727 445.891C565.999 443.524 552.187 448.547 544.971 457.752Z" fill="#D8EDE5"/>
<path fill-rule="evenodd" clip-rule="evenodd" d="M544.971 457.752C552.187 448.547 565.999 443.524 580.727 445.891C600.623 449.089 614.705 464.568 612.154 480.435C610.35 491.661 600.701 500.094 588.166 502.934C589.609 506.847 590.094 511.006 589.421 515.192C586.871 531.06 568.647 541.346 548.751 538.148C528.855 534.95 514.773 519.471 517.324 503.604C518.057 499.042 520.085 494.942 523.077 491.49L493.231 471.932L515.276 438.292L544.971 457.752ZM543.767 459.59C543.767 459.59 533.718 454.159 525.075 449.248C521.969 447.483 519.057 445.787 516.849 444.489C514.856 447.803 511.761 452.9 508.581 457.948C505.64 462.615 502.63 467.237 500.511 470.459L525.834 487.284C527.048 488.079 527.859 489.36 528.058 490.797C528.259 492.234 527.827 493.688 526.878 494.784C525.662 496.164 524.628 497.668 523.832 499.293C523.053 500.887 522.484 502.587 522.179 504.384C520.99 511.376 523.866 518.263 529.189 523.625C534.171 528.645 541.246 532.376 549.453 533.78C557.722 535.198 565.701 534.064 572.117 530.964C579.167 527.559 584.359 521.823 585.605 514.579C585.906 512.835 585.975 511.094 585.814 509.379C585.65 507.627 585.267 505.899 584.67 504.223C584.299 503.217 584.379 502.099 584.891 501.157C585.403 500.214 586.296 499.537 587.342 499.3C592.754 498.142 597.598 495.859 601.349 492.647C605.271 489.291 608.015 484.952 608.887 479.91C610.185 472.408 607.172 464.987 601.473 459.217C596.273 453.955 588.882 450.035 580.3 448.55C573.82 447.426 567.511 447.811 561.925 449.441C555.673 451.264 550.319 454.61 546.7 459.108C545.997 460.007 544.721 460.216 543.767 459.59Z" fill="black"/>
<path fill-rule="evenodd" clip-rule="evenodd" d="M186.122 307.144L214.371 328.648L238.732 296.644L210.338 275.032C213.565 271.799 215.877 267.852 216.93 263.354C220.592 247.706 207.635 231.273 188.014 226.682C168.394 222.09 149.49 231.067 145.828 246.715C144.862 250.844 145.053 255.026 146.217 259.032C133.512 260.981 123.294 268.713 120.703 279.784C117.041 295.433 129.998 311.865 149.619 316.457C164.143 319.856 178.275 315.818 186.122 307.144Z" fill="#D8EDE5"/>
<path fill-rule="evenodd" clip-rule="evenodd" d="M186.122 307.144C178.275 315.818 164.143 319.856 149.619 316.457C129.998 311.865 117.041 295.433 120.703 279.784C123.294 268.713 133.512 260.981 146.217 259.032C145.053 255.026 144.862 250.844 145.828 246.715C149.49 231.067 168.394 222.09 188.014 226.682C207.635 231.273 220.592 247.706 216.93 263.354C215.877 267.852 213.565 271.799 210.338 275.032L238.732 296.644L214.371 328.648L186.122 307.144ZM187.452 305.395C187.452 305.395 197.093 311.521 205.369 317.029C208.343 319.008 211.128 320.905 213.239 322.355C215.461 319.19 218.908 314.323 222.434 309.512C225.697 305.064 229.026 300.666 231.366 297.601L207.292 279.034C206.137 278.155 205.418 276.82 205.32 275.373C205.221 273.925 205.754 272.505 206.779 271.479C208.088 270.188 209.225 268.761 210.134 267.196C211.024 265.661 211.712 264.005 212.142 262.233C213.821 255.343 211.436 248.27 206.505 242.547C201.888 237.188 195.094 232.968 187.006 230.989C178.858 228.992 170.819 229.561 164.2 232.202C156.928 235.102 151.345 240.458 149.591 247.596C149.169 249.315 148.977 251.046 149.017 252.768C149.057 254.528 149.318 256.278 149.795 257.992C150.094 259.022 149.935 260.131 149.358 261.035C148.782 261.94 147.843 262.552 146.783 262.715C141.303 263.489 136.31 265.425 132.342 268.364C128.194 271.436 125.15 275.571 123.925 280.538C122.102 287.93 124.585 295.546 129.863 301.702C134.679 307.318 141.776 311.749 150.232 313.834C156.617 315.413 162.937 315.472 168.624 314.241C174.989 312.862 180.565 309.902 184.492 305.67C185.257 304.823 186.544 304.704 187.452 305.395Z" fill="black"/>
<path fill-rule="evenodd" clip-rule="evenodd" d="M188.216 452.879L216.465 431.376L240.826 463.379L212.432 484.991C215.659 488.224 217.971 492.171 219.024 496.669C222.686 512.318 209.729 528.75 190.108 533.342C170.487 537.933 151.584 528.956 147.922 513.308C146.956 509.18 147.147 504.997 148.311 500.991C135.606 499.042 125.388 491.31 122.797 480.239C119.135 464.591 132.092 448.158 151.713 443.567C166.237 440.168 180.369 444.205 188.216 452.879Z" fill="#D8EDE5"/>
<path fill-rule="evenodd" clip-rule="evenodd" d="M188.216 452.879L216.465 431.376L240.826 463.379L212.432 484.991C215.659 488.224 217.971 492.171 219.024 496.669C222.686 512.318 209.729 528.75 190.108 533.342C170.487 537.933 151.584 528.956 147.922 513.308C146.956 509.18 147.147 504.997 148.311 500.991C135.606 499.042 125.388 491.31 122.797 480.239C119.135 464.591 132.092 448.158 151.713 443.567C166.237 440.168 180.369 444.205 188.216 452.879ZM186.586 454.354C182.659 450.122 177.083 447.162 170.717 445.783C165.031 444.551 158.711 444.611 152.326 446.189C143.87 448.275 136.773 452.705 131.957 458.321C126.679 464.478 124.196 472.093 126.019 479.485C127.244 484.453 130.287 488.588 134.435 491.66C138.403 494.599 143.397 496.535 148.876 497.309C149.936 497.471 150.875 498.084 151.452 498.988C152.029 499.892 152.188 501.001 151.889 502.032C151.412 503.745 151.151 505.496 151.11 507.255C151.071 508.978 151.262 510.709 151.685 512.427C153.439 519.566 159.022 524.921 166.294 527.822C172.913 530.462 180.952 531.031 189.1 529.034C197.188 527.055 203.982 522.835 208.599 517.476C213.53 511.753 215.914 504.681 214.235 497.79C213.805 496.018 213.118 494.362 212.228 492.828C211.319 491.263 210.182 489.835 208.873 488.545C207.848 487.518 207.315 486.098 207.414 484.651C207.512 483.203 208.231 481.868 209.386 480.989L233.46 462.422C231.119 459.358 227.791 454.96 224.528 450.511C221.001 445.7 217.555 440.833 215.333 437.668C213.222 439.119 210.437 441.015 207.463 442.995C199.187 448.502 189.546 454.628 189.546 454.628C188.638 455.319 187.351 455.2 186.586 454.354Z" fill="black"/>
</g>
<defs>
<clipPath id="clip0_1504_6477">
<rect width="2160" height="2700" fill="white"/>
</clipPath>
</defs>
</svg>
