<svg width="2160" height="2700" viewBox="0 0 2160 2700" fill="none" xmlns="http://www.w3.org/2000/svg">
<g clip-path="url(#clip0_2055_2)">
<path d="M2346.49 -63.874H-251.004V2865.22H2346.49V-63.874Z" fill="#810306"/>
<path fill-rule="evenodd" clip-rule="evenodd" d="M285.961 2505.76C49.6738 2356.36 -78.1508 2174.99 -130.918 2093.36C-252.557 1905.19 -335.301 1672.76 -340.552 1407.88C-344.995 1183.69 -292.668 962.607 -183.975 760.178C-12.0395 439.969 291.518 189.688 667.051 84.7681C835.806 37.618 973.709 33.038 1038.3 32.168C1118.9 33.178 1289.8 40.098 1493.3 110.688C1705.75 184.378 1870.62 298.249 1990.21 409.679C2232.76 635.654 2390.62 945.561 2414.53 1289.56C2422.23 1400.34 2425.27 1624.39 2319.31 1880.95C2281.87 1971.57 2186.58 2178.2 1971.22 2370.07C1923.51 2412.57 1838.23 2483.57 1715.54 2550.83C1646.07 2598.72 1575.18 2650.98 1582.22 2660.31C1595.69 2678.2 1841.09 2677.86 1841.09 2677.86L1533.97 2715.4L1182.62 2715.56C1105.05 2723.37 1015.76 2725.94 917.89 2717.56C911.39 2717 904.647 2716.39 897.668 2715.7L468.667 2715.9L244.545 2645.93C244.545 2645.93 454.227 2674.31 455.087 2649.87C455.657 2633.69 354.381 2556.21 285.961 2505.76ZM1798.53 2487.37C1855.28 2449.74 1908.97 2408.03 1959.14 2362.68C2022.15 2305.72 2068.26 2251.57 2073.99 2244.92C2246.61 2044.75 2313.67 1847.44 2340.28 1754.44C2394.81 1563.84 2393.76 1399.48 2384.94 1294.2C2379.23 1226.03 2367.7 1167.83 2367.56 1167.01C2300.65 812.009 2087.73 513.589 1803.97 325.449C1581.96 178.248 1317.66 97.7681 1040.46 100.288L1038.7 100.298C1038.58 100.308 1038.45 100.308 1038.31 100.308H1038.29C1038.15 100.308 1038.02 100.308 1037.9 100.298C922.526 99.0781 735.776 111.098 525.372 193.728C192.63 324.399 -68.8272 579.329 -205.35 889.38C-347.037 1211.16 -314.797 1495.76 -297.331 1604.95C-259.691 1840.26 -164.888 2010.31 -106.036 2101.27C-76.4149 2147.05 -46.4838 2185.51 -40.974 2192.59C61.5567 2324.32 173.918 2417.78 269.213 2482.17C336.117 2513.04 456.971 2566.86 475.97 2562.01C497.673 2556.48 431.707 2497.62 407.114 2476.49C232.479 2335.33 140.641 2169.8 102.06 2093.28C-16.0347 1859.03 -33.2668 1642.19 -36.4617 1538.18C-42.4352 1343.71 -7.7128 1149.99 69.1045 970.236C196.145 672.965 428.99 441.489 717.084 342.939C851.503 296.949 962.06 292.599 1014.12 291.879C1095.76 292.939 1311.96 302.859 1544 458.609C1620.27 509.799 1799.32 643.682 1929.05 904.177C2044.75 1136.5 2061.79 1350.42 2065.02 1453.38C2072.22 1682.8 2021.12 1856.88 1988.52 1948.54C1911.4 2165.42 1797.33 2303.07 1736.53 2368.89C1680.4 2429.65 1623.7 2477.72 1570.39 2515.75C1529.58 2551.65 1492.74 2589.25 1504.31 2599.35C1522.54 2615.26 1711.53 2528.59 1798.53 2487.37ZM1027 2715.64C1034.32 2715.69 1041.54 2715.69 1048.67 2715.63L1027 2715.64ZM1614.91 2469.63C1647.96 2442.41 1681.52 2411.38 1714.83 2376C1772.45 2314.78 1904.62 2161.16 1982.76 1911.44C2017.07 1801.8 2028.82 1708.62 2032.37 1679.27C2045.05 1574.08 2042.94 1485.65 2038.95 1426.21C2035.42 1373.54 2028.54 1327.84 2027.26 1319.33C1980.51 1008.46 1827.5 743.301 1619.59 570.559C1447.45 427.529 1237.92 346.779 1015.75 348.779C1015.19 348.779 1014.65 348.779 1014.12 348.779C1013.59 348.779 1013.05 348.779 1012.49 348.779C911.149 347.769 704.571 362.549 485.311 512.499C297.754 640.761 158.596 828.968 76.7456 1035.36C4.61996 1217.23 -8.97989 1377.88 -12.6153 1454.32C-25.3845 1722.87 42.8802 1957.56 139.136 2134.6C239.069 2318.4 362.272 2432.93 448.122 2497.8C505 2529.95 590.8 2575.92 595.358 2563.48C598.357 2555.28 570.482 2529.04 538.201 2502.14C401.974 2418.74 326.427 2320.09 293.635 2273.25C178.535 2108.84 163.339 1951.86 160.258 1884.8C153.753 1743.23 188.346 1602.4 264.385 1474.51C374.439 1289.41 564.778 1145.9 798.942 1087.8C896.648 1063.56 975.798 1061 1012.21 1060.37C1077.95 1061.42 1269.65 1068.54 1469.83 1187.53C1576.76 1251.1 1677.52 1341.59 1751.51 1459.74C1818.3 1566.41 1862.34 1694.38 1865.13 1838.08C1867.48 1959.08 1839.94 2078.78 1781.77 2190.23C1732.01 2285.55 1669.66 2355.16 1618.97 2402.11C1587.03 2435.33 1455.51 2532.06 1457.51 2542.2C1460.61 2557.89 1555.94 2504.4 1614.91 2469.63ZM1580.02 2421.43C1609.01 2396.4 1631.14 2373.31 1635.58 2368.67C1753.72 2245.32 1796.88 2121.31 1812.83 2067.9C1845.57 1958.34 1844.96 1863.52 1839.16 1801.25C1833.71 1742.61 1820.57 1694.69 1819.31 1689.88C1768.18 1495.85 1636.45 1334.99 1466.39 1234.58C1401.05 1196.01 1329.41 1165.75 1253.27 1145.42C1144.85 1116.46 1055.53 1115.25 1012.21 1115.78C949.277 1114.92 830.695 1119.05 694.233 1169.66C505.599 1239.62 356.759 1370.21 269.983 1527.17C219.367 1618.72 175.149 1746.98 182.685 1902.29C186.079 1972.24 200.45 2027.95 203.379 2039.47C241.157 2188.15 318.3 2288.15 354.233 2330.81C400.246 2385.44 449.297 2428.58 495.321 2462.29C542.456 2492.16 610.082 2533.84 625.794 2537.3C634.884 2539.3 631.825 2532.21 622.763 2521.02C574.093 2484.44 544.754 2449.55 530.728 2432.14C446.455 2327.55 437.595 2225.8 435.749 2187.17C429.842 2063.53 481.501 1971.17 503.051 1935.74C569.879 1825.84 684.116 1733.92 828.422 1688.67C841.748 1684.49 872.026 1675.2 912.879 1668.15C957.562 1660.44 992.081 1659.37 1004.24 1658.93C1043.18 1660.23 1182.55 1665.33 1326.34 1755.02C1460.81 1838.89 1543.14 1959.33 1569.18 2081.37C1582.57 2144.15 1578.2 2194.42 1575.89 2214.74C1567.67 2287.18 1541.46 2343.15 1519.02 2380.89C1495.73 2420.06 1468.65 2451.86 1442.95 2476.96C1441.79 2481.96 1443.52 2484.95 1449.89 2484.36C1478.35 2481.76 1538.09 2447.51 1580.02 2421.43ZM1476.95 2418.65C1508.05 2375.28 1522.82 2338.59 1529.35 2321.06C1557.95 2244.3 1555.64 2178.63 1550.95 2140.33C1547.25 2110.04 1539.34 2083.43 1537.9 2078.59C1505.56 1969.81 1426.64 1874.37 1320.92 1810.64C1290.26 1792.15 1260.74 1779.37 1255.33 1777.03C1144.89 1729.22 1047.47 1728.14 1004.24 1729.5C905.809 1726.06 832.162 1748.12 799.912 1759.01C670.641 1802.68 572.125 1887.42 516.752 1980.99C477.628 2047.11 457.424 2119.97 458.562 2193.91C459.159 2232.7 466.863 2265.87 467.017 2266.58C479.666 2325.4 505.985 2380.67 543.251 2429.93C548.666 2437.09 554.245 2443.89 559.554 2450.07C632.172 2509.54 652.563 2502.05 660.598 2501.94C671.724 2501.78 610.758 2417.76 610.758 2417.76L718.965 2499.16L659.019 2343.27C659.019 2343.27 796.902 2505.88 804.026 2490.16C811.151 2474.43 770.755 2369.36 770.755 2369.36C770.755 2369.36 868.796 2513.65 924.863 2513.29C987.032 2512.89 980.213 2361.98 980.213 2361.98C980.213 2361.98 1012.25 2504.73 1037.71 2508.6C1092.22 2516.87 1126.79 2236.84 1126.79 2236.84C1126.79 2236.84 1126.08 2490.54 1171.47 2518.2C1202.16 2536.9 1356.73 2387.41 1356.73 2387.41C1356.73 2387.41 1313.47 2514.33 1330.55 2513.15C1357.4 2511.28 1444.07 2464.49 1476.95 2418.65ZM1004.24 1729.5C1004.24 1729.5 1004.25 1729.5 1004.26 1729.5C1004.27 1729.5 1004.24 1729.51 1004.24 1729.5ZM1004.24 1729.5C1004.24 1729.5 1004.22 1729.5 1004.21 1729.5C1004.22 1729.5 1004.23 1729.5 1004.24 1729.5Z" fill="black"/>
<path fill-rule="evenodd" clip-rule="evenodd" d="M314.805 2578.11C337.396 2588.68 349.927 2605.9 342.769 2616.55C335.61 2627.2 311.455 2627.27 288.864 2616.7C266.271 2606.13 253.74 2588.9 260.898 2578.25C268.057 2567.6 292.212 2567.54 314.805 2578.11ZM39.2145 2438.28C61.4876 2448.08 74.1354 2464.63 67.4443 2475.21C60.7527 2485.79 37.2378 2486.42 14.9647 2476.62C-7.30662 2466.81 -19.9561 2450.26 -13.2631 2439.68C-6.57142 2429.1 16.9431 2428.47 39.2145 2438.28ZM26.5504 2301.8C37.0447 2311.49 40.2352 2323.37 33.6691 2328.32C27.1032 2333.28 13.2527 2329.43 2.75698 2319.75C-7.73733 2310.06 -10.9269 2298.18 -4.36225 2293.23C2.2038 2288.28 16.0561 2292.12 26.5504 2301.8ZM175.185 2644.14C188.122 2649.22 195.854 2658.26 192.439 2664.32C189.023 2670.37 175.747 2671.17 162.809 2666.09C149.871 2661.02 142.14 2651.98 145.556 2645.92C148.971 2639.86 162.247 2639.07 175.185 2644.14ZM132.327 2548.13C149.502 2554.87 159.738 2566.92 155.171 2575.02C150.604 2583.12 132.954 2584.22 115.779 2577.48C98.6041 2570.74 88.3684 2558.69 92.9354 2550.59C97.502 2542.5 115.153 2541.39 132.327 2548.13ZM175.023 2475.12C191.549 2480.03 202.501 2489.79 199.463 2496.91C196.424 2504.03 180.541 2505.82 164.013 2500.91C147.487 2496 136.535 2486.23 139.573 2479.12C142.612 2472 158.495 2470.21 175.023 2475.12ZM169.214 2229.64C181.728 2252.78 177.614 2276.94 160.031 2283.55C142.449 2290.17 118.015 2276.76 105.501 2253.63C92.9873 2230.49 97.1032 2206.34 114.685 2199.72C132.266 2193.1 156.702 2206.51 169.214 2229.64ZM123.737 1756.78C133.201 1789.19 125.071 1817.87 105.592 1820.78C86.1135 1823.69 62.6152 1799.74 53.1502 1767.33C43.6855 1734.92 51.8158 1706.24 71.2945 1703.33C90.7737 1700.42 114.272 1724.37 123.737 1756.78ZM104.761 614.34C89.0477 630.866 68.0921 634.055 58.0018 621.441C47.9114 608.828 52.4765 585.169 68.1887 568.642C83.9062 552.107 104.858 548.927 114.948 561.54C125.038 574.153 120.473 597.813 104.761 614.34ZM252.292 524.985C246.386 531.2 238.007 531.758 233.59 526.235C229.174 520.713 230.377 511.191 236.279 504.985C242.185 498.771 250.563 498.212 254.981 503.735C259.397 509.257 258.193 518.778 252.292 524.985ZM50.8537 1477.86C49.9068 1486.38 43.5704 1491.89 36.7129 1490.16C29.8554 1488.44 25.0588 1480.12 26.0057 1471.61C26.954 1463.09 33.2898 1457.58 40.1473 1459.31C47.0034 1461.03 51.8014 1469.35 50.8537 1477.86ZM456.503 298.976C450.602 305.183 442.223 305.741 437.801 300.227C433.383 294.704 434.593 285.175 440.493 278.968C446.394 272.762 454.773 272.203 459.195 277.718C463.613 283.241 462.404 292.77 456.503 298.976ZM33.3384 2067.94C42.8029 2100.35 34.673 2129.02 15.1939 2131.93C-4.28524 2134.85 -27.7838 2110.89 -37.2483 2078.48C-46.7128 2046.07 -38.5823 2017.4 -19.1038 2014.49C0.375369 2011.58 23.8739 2035.53 33.3384 2067.94ZM2064.62 1797.62C2074.09 1765.21 2097.58 1741.26 2117.06 1744.17C2136.54 1747.08 2144.67 1775.76 2135.21 1808.17C2125.74 1840.58 2102.24 1864.53 2082.77 1861.62C2063.29 1858.71 2055.16 1830.04 2064.62 1797.62ZM2000.31 782.408C1989.31 763.732 1988.35 742.281 1998.16 734.542C2007.97 726.802 2024.86 735.675 2035.86 754.351C2046.86 773.026 2047.83 794.469 2038.02 802.209C2028.21 809.949 2011.31 801.075 2000.31 782.408ZM1960.81 577.13C1956.81 570.339 1957.4 561.798 1962.13 558.067C1966.86 554.336 1973.95 556.81 1977.95 563.601C1981.94 570.392 1981.35 578.934 1976.62 582.665C1971.89 586.395 1964.8 583.921 1960.81 577.13ZM1995.09 248.262C1989.07 240.694 1986.43 232.199 1989.2 229.309C1991.97 226.412 1999.1 230.203 2005.12 237.772C2011.14 245.34 2013.78 253.835 2011.01 256.733C2008.25 259.622 2001.11 255.831 1995.09 248.262ZM409.749 2489.21C426.498 2502.43 433.897 2518.63 426.261 2525.36C418.626 2532.09 398.827 2526.83 382.078 2513.6C365.327 2500.38 357.928 2484.18 365.565 2477.45C373.2 2470.72 392.998 2475.98 409.749 2489.21ZM321.83 2412.57C330.749 2418.24 335.403 2425.67 332.221 2429.15C329.039 2432.64 319.214 2430.86 310.298 2425.19C301.381 2419.52 296.725 2412.09 299.907 2408.61C303.09 2405.12 312.914 2406.9 321.83 2412.57ZM305.597 2462.86C310.869 2467.4 312.772 2473.01 309.846 2475.37C306.921 2477.73 300.265 2475.96 294.994 2471.41C289.722 2466.87 287.818 2461.26 290.744 2458.9C293.67 2456.54 300.326 2458.31 305.597 2462.86ZM231.927 2387.55C236.743 2392.57 238.108 2398.34 234.971 2400.41C231.834 2402.49 225.378 2400.09 220.561 2395.07C215.743 2390.04 214.379 2384.28 217.515 2382.21C220.652 2380.13 227.11 2382.53 231.927 2387.55ZM222.144 2327.43C224.678 2331.65 224.621 2335.87 222.017 2336.85C219.414 2337.83 215.243 2335.21 212.709 2330.99C210.176 2326.78 210.233 2322.56 212.836 2321.58C215.439 2320.59 219.61 2323.22 222.144 2327.43ZM293.47 2352.91C298.742 2357.46 300.647 2363.07 297.721 2365.43C294.795 2367.79 288.14 2366.02 282.868 2361.47C277.596 2356.93 275.692 2351.32 278.618 2348.96C281.544 2346.6 288.199 2348.37 293.47 2352.91ZM545.59 2518.43C550.862 2522.98 552.767 2528.58 549.84 2530.94C546.914 2533.31 540.259 2531.54 534.988 2526.99C529.716 2522.45 527.811 2516.84 530.737 2514.48C533.663 2512.11 540.319 2513.89 545.59 2518.43ZM444.619 2446.77C448.17 2449.83 449.663 2453.44 447.953 2454.82C446.242 2456.2 441.969 2454.84 438.419 2451.78C434.867 2448.72 433.374 2445.11 435.084 2443.73C436.796 2442.35 441.068 2443.71 444.619 2446.77ZM400.611 2431.78C402.999 2433.84 403.762 2436.46 402.313 2437.63C400.863 2438.8 397.749 2438.08 395.361 2436.02C392.972 2433.96 392.209 2431.34 393.658 2430.17C395.108 2429 398.222 2429.72 400.611 2431.78ZM388.599 2614.85C390.988 2616.91 391.75 2619.53 390.302 2620.7C388.852 2621.87 385.738 2621.15 383.349 2619.09C380.961 2617.03 380.198 2614.41 381.646 2613.24C383.097 2612.07 386.211 2612.79 388.599 2614.85ZM281.584 2526.91C284.339 2528.62 285.6 2531.1 284.397 2532.45C283.195 2533.8 279.98 2533.51 277.223 2531.8C274.468 2530.09 273.207 2527.6 274.41 2526.25C275.613 2524.91 278.828 2525.2 281.584 2526.91ZM55.8932 2590.36C64.6577 2594.13 69.5226 2600.83 66.7513 2605.31C63.9814 2609.8 54.6173 2610.38 45.8528 2606.61C37.0896 2602.84 32.2246 2596.14 34.9944 2591.65C37.7657 2587.17 47.13 2586.59 55.8932 2590.36ZM259.142 2681.6C264.193 2683.77 267.054 2687.54 265.529 2690C264.002 2692.47 258.664 2692.71 253.614 2690.54C248.563 2688.37 245.701 2684.6 247.227 2682.13C248.753 2679.67 254.091 2679.42 259.142 2681.6ZM27.7845 2657.81C33.2679 2659.05 37.0118 2662.24 36.1393 2664.92C35.2683 2667.6 30.1077 2668.77 24.6244 2667.52C19.1405 2666.28 15.3964 2663.1 16.2689 2660.42C17.1414 2657.74 22.3005 2656.57 27.7845 2657.81ZM2131.26 2089.16C2112.37 2122.8 2077.09 2142.32 2052.52 2132.72C2027.95 2123.12 2023.34 2088.01 2042.23 2054.37C2061.12 2020.73 2096.4 2001.21 2120.97 2010.8C2145.54 2020.41 2150.15 2055.51 2131.26 2089.16ZM1946.09 1971.16C1941.25 1998.55 1923.37 2019.07 1906.18 2016.96C1889 2014.84 1878.98 1990.89 1883.83 1963.5C1888.67 1936.11 1906.56 1915.59 1923.74 1917.7C1940.92 1919.82 1950.94 1943.77 1946.09 1971.16ZM2017.15 2369.8C2007.16 2382.33 1992.6 2388.93 1984.65 2384.52C1976.71 2380.12 1978.37 2366.36 1988.37 2353.82C1998.36 2341.29 2012.93 2334.69 2020.86 2339.09C2028.82 2343.51 2027.15 2357.26 2017.15 2369.8ZM1872.83 2541.85C1868.43 2557.31 1848.35 2566.59 1828.02 2562.56C1807.69 2558.53 1794.76 2542.71 1799.17 2527.25C1803.57 2511.79 1823.65 2502.5 1843.98 2506.53C1864.31 2510.56 1877.23 2526.39 1872.83 2541.85ZM1834.92 2375.91C1842.02 2390.33 1831.26 2411.94 1810.91 2424.13C1790.56 2436.32 1768.26 2434.51 1761.16 2420.08C1754.05 2405.66 1764.81 2384.06 1785.16 2371.87C1805.52 2359.68 1827.81 2361.49 1834.92 2375.91ZM2010.39 2252.14C2018.36 2263.66 2011.84 2283.67 1995.84 2296.81C1979.84 2309.94 1960.37 2311.26 1952.4 2299.74C1944.43 2288.22 1950.95 2268.21 1966.95 2255.07C1982.95 2241.94 2002.42 2240.63 2010.39 2252.14ZM1673.32 2381.92C1669.2 2391.16 1659.5 2396.68 1651.66 2394.25C1643.83 2391.81 1640.82 2382.34 1644.94 2373.11C1649.06 2363.87 1658.77 2358.35 1666.6 2360.78C1674.43 2363.22 1677.44 2372.69 1673.32 2381.92ZM1557.88 2411.34C1553.76 2420.58 1544.05 2426.1 1536.22 2423.66C1528.39 2421.23 1525.38 2411.76 1529.5 2402.52C1533.62 2393.29 1543.33 2387.77 1551.16 2390.2C1558.99 2392.63 1562 2402.11 1557.88 2411.34ZM1554.4 2362.64C1552.53 2366.82 1547.82 2369.22 1543.88 2368C1539.94 2366.78 1538.26 2362.39 1540.13 2358.2C1541.99 2354.02 1546.71 2351.61 1550.65 2352.84C1554.59 2354.06 1556.27 2358.45 1554.4 2362.64ZM1627.24 2414.26C1624.44 2418.08 1619.7 2419.93 1616.64 2418.37C1613.59 2416.82 1613.37 2412.45 1616.16 2408.63C1618.96 2404.81 1623.7 2402.97 1626.76 2404.53C1629.81 2406.08 1630.03 2410.44 1627.24 2414.26ZM1888.98 2327.65C1886.93 2332.06 1881.83 2334.52 1877.59 2333.15C1873.34 2331.78 1871.56 2327.09 1873.6 2322.69C1875.65 2318.28 1880.75 2315.82 1884.99 2317.19C1889.24 2318.56 1891.02 2323.25 1888.98 2327.65ZM1671.8 2522.16C1669.76 2526.57 1664.66 2529.03 1660.41 2527.66C1656.17 2526.29 1654.38 2521.6 1656.43 2517.2C1658.47 2512.79 1663.58 2510.33 1667.82 2511.7C1672.06 2513.07 1673.85 2517.76 1671.8 2522.16ZM1691.72 2472.88C1687.86 2478.73 1681.36 2481.93 1677.2 2480.02C1673.04 2478.11 1672.79 2471.81 1676.64 2465.96C1680.5 2460.12 1687.01 2456.92 1691.17 2458.83C1695.33 2460.74 1695.58 2467.04 1691.72 2472.88ZM1602.19 2555.06C1587.95 2567.16 1569.48 2571 1560.97 2563.64C1552.45 2556.27 1557.11 2540.46 1571.35 2528.36C1585.59 2516.25 1604.06 2512.41 1612.57 2519.77C1621.08 2527.14 1616.43 2542.95 1602.19 2555.06Z" fill="black"/>
<path fill-rule="evenodd" clip-rule="evenodd" d="M1362.74 2621.67C1352.62 2630.28 1339.13 2632.69 1332.63 2627.07C1326.13 2621.44 1329.07 2609.89 1339.19 2601.29C1349.31 2592.68 1362.81 2590.27 1369.3 2595.89C1375.8 2601.52 1372.86 2613.07 1362.74 2621.67ZM492.488 2642.24C479.927 2631.57 476.951 2616.65 485.844 2608.94C494.737 2601.24 512.157 2603.66 524.719 2614.33C537.279 2625.01 540.256 2639.93 531.363 2647.63C522.469 2655.34 505.049 2652.92 492.488 2642.24ZM675.363 2646.21C666.945 2639.06 662.697 2631.01 665.883 2628.25C669.069 2625.49 678.489 2629.06 686.907 2636.22C695.325 2643.37 699.568 2651.42 696.382 2654.17C693.196 2656.93 683.776 2653.36 675.363 2646.21ZM775.717 2548.62C771.988 2543.05 773.023 2536.63 778.022 2534.29C783.027 2531.96 790.113 2534.59 793.842 2540.17C797.566 2545.74 796.531 2552.16 791.531 2554.5C786.532 2556.83 779.446 2554.2 775.717 2548.62ZM685.285 2513.7C682.032 2508.84 681.625 2503.85 684.378 2502.56C687.126 2501.28 692.001 2504.18 695.254 2509.05C698.507 2513.91 698.914 2518.91 696.161 2520.19C693.408 2521.47 688.538 2518.57 685.285 2513.7ZM622.155 2572.43C617.731 2568.6 616.02 2563.89 618.338 2561.93C620.651 2559.96 626.118 2561.48 630.538 2565.31C634.963 2569.14 636.673 2573.85 634.355 2575.81C632.042 2577.78 626.575 2576.26 622.155 2572.43ZM1474.99 2662.72C1467.03 2666.74 1457.99 2666.4 1454.81 2661.95C1451.64 2657.51 1455.52 2650.64 1463.48 2646.62C1471.43 2642.59 1480.47 2642.94 1483.65 2647.38C1486.82 2651.82 1482.94 2658.7 1474.99 2662.72ZM1410.86 2535.3C1405.91 2539.25 1399.83 2540.56 1397.3 2538.23C1394.77 2535.9 1396.73 2530.79 1401.69 2526.84C1406.64 2522.89 1412.72 2521.58 1415.25 2523.91C1417.78 2526.25 1415.82 2531.35 1410.86 2535.3Z" fill="#810306"/>
<path fill-rule="evenodd" clip-rule="evenodd" d="M1774.31 2575.45C1767.98 2581.37 1758.89 2583.25 1754.03 2579.63C1749.18 2576.02 1750.38 2568.27 1756.71 2562.35C1763.05 2556.42 1772.14 2554.55 1776.99 2558.16C1781.85 2561.78 1780.65 2569.52 1774.31 2575.45ZM1968.1 2538.2C1961.76 2544.13 1952.68 2546 1947.82 2542.39C1942.96 2538.78 1944.16 2531.03 1950.5 2525.11C1956.84 2519.18 1965.92 2517.31 1970.78 2520.92C1975.64 2524.53 1974.43 2532.28 1968.1 2538.2ZM1906.43 2566.72C1901.26 2569.89 1895.06 2570.18 1892.59 2567.37C1890.11 2564.56 1892.3 2559.71 1897.47 2556.54C1902.64 2553.38 1908.85 2553.09 1911.32 2555.9C1913.79 2558.71 1911.6 2563.56 1906.43 2566.72ZM1840.87 2471.95C1836.85 2476.11 1830.94 2477.72 1827.69 2475.53C1824.44 2473.34 1825.06 2468.19 1829.09 2464.02C1833.12 2459.86 1839.02 2458.25 1842.28 2460.44C1845.53 2462.63 1844.9 2467.79 1840.87 2471.95ZM1748.71 2464.25C1744.24 2468.87 1737.62 2470.61 1733.94 2468.13C1730.25 2465.65 1730.89 2459.89 1735.36 2455.27C1739.82 2450.65 1746.44 2448.91 1750.13 2451.39C1753.81 2453.87 1753.17 2459.63 1748.71 2464.25ZM1738.25 2281.21C1736.09 2284.61 1732.12 2286.39 1729.37 2285.18C1726.63 2283.97 1726.15 2280.23 1728.31 2276.83C1730.47 2273.42 1734.44 2271.64 1737.19 2272.85C1739.93 2274.07 1740.41 2277.81 1738.25 2281.21ZM2092.24 2542.36C2085.91 2548.28 2076.82 2550.16 2071.96 2546.54C2067.11 2542.93 2068.31 2535.18 2074.64 2529.26C2080.98 2523.33 2090.07 2521.46 2094.92 2525.07C2099.78 2528.69 2098.58 2536.43 2092.24 2542.36ZM1940.06 2673.59C1926.26 2680.33 1912.08 2681.56 1908.42 2676.34C1904.76 2671.12 1912.99 2661.41 1926.79 2654.68C1940.6 2647.94 1954.78 2646.71 1958.44 2651.93C1962.1 2657.15 1953.86 2666.85 1940.06 2673.59ZM2040.76 2674.79C2028.23 2678.88 2016.07 2677.92 2013.6 2672.66C2011.13 2667.39 2019.29 2659.8 2031.81 2655.71C2044.33 2651.63 2056.5 2652.58 2058.97 2657.85C2061.44 2663.11 2053.28 2670.7 2040.76 2674.79ZM2195.65 2596.44C2183.74 2601.64 2171.52 2601.8 2168.37 2596.8C2165.23 2591.79 2172.34 2583.5 2184.25 2578.29C2196.16 2573.09 2208.38 2572.92 2211.53 2577.93C2214.67 2582.94 2207.56 2591.23 2195.65 2596.44ZM1686.45 2647.62C1666.1 2656.31 1644.88 2655.71 1639.08 2646.27C1633.29 2636.83 1645.11 2622.11 1665.46 2613.42C1685.81 2604.73 1707.04 2605.33 1712.83 2614.77C1718.62 2624.21 1706.8 2638.93 1686.45 2647.62ZM2028.67 2604.15C2014.68 2614.64 1997.95 2617.84 1991.34 2611.29C1984.73 2604.74 1990.72 2590.9 2004.71 2580.41C2018.7 2569.93 2035.42 2566.73 2042.04 2573.28C2048.65 2579.83 2042.66 2593.66 2028.67 2604.15ZM2088.55 2424.35C2071.03 2437.87 2050.34 2442.62 2042.36 2434.95C2034.38 2427.27 2042.12 2410.05 2059.63 2396.52C2077.15 2382.99 2097.84 2378.24 2105.82 2385.92C2113.8 2393.6 2106.06 2410.82 2088.55 2424.35Z" fill="black"/>
</g>
<defs>
<clipPath id="clip0_2055_2">
<rect width="2160" height="2700" fill="white"/>
</clipPath>
</defs>
</svg>
