<svg width="2160" height="2700" viewBox="0 0 2160 2700" fill="none" xmlns="http://www.w3.org/2000/svg">
<path d="M1090.51 2061.64C1375.3 2061.64 1606.18 1798.69 1606.18 1474.33C1606.18 1149.97 1375.3 887.023 1090.51 887.023C805.706 887.023 574.831 1149.97 574.831 1474.33C574.831 1798.69 805.706 2061.64 1090.51 2061.64Z" fill="#636363"/>
<path fill-rule="evenodd" clip-rule="evenodd" d="M1087.94 875.086L1097.93 1060.17L1119.52 1087.57L1145.67 1063.3L1166.07 883.518L1087.94 875.086Z" fill="#A4A4A4" stroke="black" stroke-width="9" stroke-miterlimit="1.5" stroke-linecap="round" stroke-linejoin="round"/>
<path fill-rule="evenodd" clip-rule="evenodd" d="M1109.12 1020.55L1110.49 1109.16L1116.11 1180.09L1129.71 1110.59L1138.32 1021.58C1125.07 1001.54 1120.51 1004.77 1109.12 1020.55Z" fill="#A4A4A4" stroke="black" stroke-width="6.08124" stroke-miterlimit="1.5" stroke-linecap="round" stroke-linejoin="round"/>
<path fill-rule="evenodd" clip-rule="evenodd" d="M1121.52 895.458L1117.55 998.333L1122.16 1011.83L1112.74 1181.09C1093.28 1137.93 1072.57 1080.79 1076.02 1025.91L1052.09 887.25L1121.52 895.458Z" fill="black" fill-opacity="0.4"/>
<path fill-rule="evenodd" clip-rule="evenodd" d="M1521.98 1085.7L1376.56 1200.64L1366.63 1234.08L1401.54 1241.44L1560.16 1154.39L1521.98 1085.7Z" fill="#A4A4A4" stroke="black" stroke-width="9" stroke-miterlimit="1.5" stroke-linecap="round" stroke-linejoin="round"/>
<path fill-rule="evenodd" clip-rule="evenodd" d="M1402.6 1196.71L1330.89 1241.36L1276.9 1281.87L1338.23 1257.37L1416.97 1222.15C1426.32 1200.89 1421.33 1198.61 1402.6 1196.71Z" fill="#A4A4A4" stroke="black" stroke-width="5.9292" stroke-miterlimit="1.5" stroke-linecap="round" stroke-linejoin="round"/>
<path fill-rule="evenodd" clip-rule="evenodd" d="M1289.12 1275.35L1396.63 1217.86L1520.27 1137.25L1542.54 1185.08L1410.08 1251.4L1289.12 1275.35Z" fill="black" fill-opacity="0.4"/>
<path fill-rule="evenodd" clip-rule="evenodd" d="M1608.31 1523.23L1424.48 1499.52L1393.62 1515.79L1412.75 1545.9L1585.86 1598.54L1608.31 1523.23Z" fill="#A4A4A4" stroke="black" stroke-width="9" stroke-miterlimit="1.5" stroke-linecap="round" stroke-linejoin="round"/>
<path fill-rule="evenodd" clip-rule="evenodd" d="M1451.21 1516.52L1368.31 1500.27L1301.2 1493.09L1362.76 1516.99L1444.38 1544.92C1465.71 1535.75 1463.62 1530.67 1451.21 1516.52Z" fill="#A4A4A4" stroke="black" stroke-width="5.9292" stroke-miterlimit="1.5" stroke-linecap="round" stroke-linejoin="round"/>
<path fill-rule="evenodd" clip-rule="evenodd" d="M1596.66 1562.32L1456.54 1532.25L1304.17 1494.6L1416.43 1559.64L1588.51 1627.08L1596.66 1562.32Z" fill="black" fill-opacity="0.4"/>
<path fill-rule="evenodd" clip-rule="evenodd" d="M1474.63 1906.83L1340.57 1778.83L1306.08 1773.66L1303.65 1809.25L1411.93 1954.21L1474.63 1906.83Z" fill="#A4A4A4" stroke="black" stroke-width="9" stroke-miterlimit="1.5" stroke-linecap="round" stroke-linejoin="round"/>
<path fill-rule="evenodd" clip-rule="evenodd" d="M1358.55 1812.82L1298.03 1753.88L1245.78 1711.16L1284.24 1764.84L1337.29 1832.86C1360.17 1836.85 1361.2 1831.46 1358.55 1812.82Z" fill="#A4A4A4" stroke="black" stroke-width="5.92919" stroke-miterlimit="1.5" stroke-linecap="round" stroke-linejoin="round"/>
<path fill-rule="evenodd" clip-rule="evenodd" d="M1417.73 1910.13L1360.85 1834.07C1319.58 1797.41 1283.35 1755.34 1246.47 1713.96C1258.41 1751.29 1277.94 1808.52 1305.94 1837.93L1387.17 1946.82L1417.73 1910.13Z" fill="black" fill-opacity="0.4"/>
<path fill-rule="evenodd" clip-rule="evenodd" d="M959.24 2044.72L988.828 1861.74L973.557 1830.38L942.845 1848.53L884.689 2019.87L959.24 2044.72Z" fill="#A4A4A4" stroke="black" stroke-width="9" stroke-miterlimit="1.5" stroke-linecap="round" stroke-linejoin="round"/>
<path fill-rule="evenodd" clip-rule="evenodd" d="M970.304 1888.99L985.91 1805.96L992.578 1738.8L969.149 1800.54L941.844 1882.37C951.185 1903.63 956.244 1901.5 970.304 1888.99Z" fill="#A4A4A4" stroke="black" stroke-width="5.9292" stroke-miterlimit="1.5" stroke-linecap="round" stroke-linejoin="round"/>
<path fill-rule="evenodd" clip-rule="evenodd" d="M910.098 2021.92L945.712 1896.97L955.792 1892.42C963.265 1843.39 977.025 1795.23 990.066 1746.97C958.047 1780.14 928.582 1814.89 921.704 1863.68L865.187 2011.54L910.098 2021.92Z" fill="black" fill-opacity="0.4"/>
<path fill-rule="evenodd" clip-rule="evenodd" d="M602.191 1769.49L751.048 1659.04L761.989 1625.92L727.32 1617.5L566.12 1699.67L602.191 1769.49Z" fill="#A4A4A4" stroke="black" stroke-width="9" stroke-miterlimit="1.5" stroke-linecap="round" stroke-linejoin="round"/>
<path fill-rule="evenodd" clip-rule="evenodd" d="M721.722 1666.43L788.707 1614.95L838.456 1569.34L779.83 1599.74L704.922 1642.52C697.708 1664.6 702.898 1666.38 721.722 1666.43Z" fill="#A4A4A4" stroke="black" stroke-width="5.9292" stroke-miterlimit="1.5" stroke-linecap="round" stroke-linejoin="round"/>
<path fill-rule="evenodd" clip-rule="evenodd" d="M580.979 1707.36L781.094 1405.63L918.475 1310.87L958 1166.18L949.048 1135.01L1047.34 1049.12L1108.61 1050.79L1128.29 1109.33L1130.18 1070.42L1190.83 1095.06L1218.56 1146.4L1210.44 1162.85L1268.85 1315.03L1382.92 1372.52L1569.75 1812.56L1421.78 1924.57C1171.77 2104.08 935.715 2067.66 708.808 1889.84L580.979 1707.36Z" fill="black" fill-opacity="0.25"/>
<path fill-rule="evenodd" clip-rule="evenodd" d="M598.132 1722.41L704.673 1660.28C735.922 1646.5 769.479 1624.47 802.875 1603.02L751.235 1665.75L634.355 1766.3L598.132 1722.41Z" fill="black" fill-opacity="0.4"/>
<path fill-rule="evenodd" clip-rule="evenodd" d="M538.965 1374.29L723.677 1389.7L753.771 1372.06L733.305 1342.84L558 1298.05L538.965 1374.29Z" fill="#A4A4A4" stroke="black" stroke-width="9" stroke-miterlimit="1.5" stroke-linecap="round" stroke-linejoin="round"/>
<path fill-rule="evenodd" clip-rule="evenodd" d="M689.267 1375L772.821 1387.47L840.189 1391.6L777.608 1370.52L694.807 1346.31C673.913 1356.45 676.231 1361.42 689.267 1375Z" fill="#A4A4A4" stroke="black" stroke-width="5.9292" stroke-miterlimit="1.5" stroke-linecap="round" stroke-linejoin="round"/>
<path fill-rule="evenodd" clip-rule="evenodd" d="M548.787 1334.95L827.986 1389.89L717.003 1406.01L562.428 1407.23L548.787 1334.95Z" fill="black" fill-opacity="0.4"/>
<path fill-rule="evenodd" clip-rule="evenodd" d="M671.6 1025.77L811.784 1147.03L846.494 1150.51L847.17 1114.84L731.895 975.376L671.6 1025.77Z" fill="#A4A4A4" stroke="black" stroke-width="9" stroke-miterlimit="1.5" stroke-linecap="round" stroke-linejoin="round"/>
<path fill-rule="evenodd" clip-rule="evenodd" d="M797.502 1115.83L857.654 1175.15L909.642 1218.2L871.513 1164.28L818.885 1095.92C796.032 1091.8 794.973 1097.18 797.502 1115.83Z" fill="#A4A4A4" stroke="black" stroke-width="5.9292" stroke-miterlimit="1.5" stroke-linecap="round" stroke-linejoin="round"/>
<path fill-rule="evenodd" clip-rule="evenodd" d="M898.306 1208.61L744.227 1036.9L682.699 1098.68L770.219 1145.86C770.219 1145.86 778.922 1166.78 785.93 1170.22C807.277 1180.68 898.306 1208.61 898.306 1208.61Z" fill="black" fill-opacity="0.4"/>
<path d="M1399.15 977.652L1245.11 1180.44L1265.81 1311.05L1081.52 1438.92L841.973 1581.53L866.22 1723.51L752.082 1917.33" stroke="black" stroke-width="9" stroke-miterlimit="1.5" stroke-linecap="round" stroke-linejoin="round"/>
<path d="M605.78 1123.96L808.567 1278L939.177 1257.3L1067.05 1441.59L1209.66 1681.14L1351.64 1656.89L1545.46 1771.03" stroke="black" stroke-width="9" stroke-miterlimit="1.5" stroke-linecap="round" stroke-linejoin="round"/>
<path d="M1619.11 1274.17L1373.15 1340.16L1309.53 1456.09L1085.54 1444.33L808.826 1410.38L741.052 1537.48L532.129 1620.81" stroke="black" stroke-width="9" stroke-miterlimit="1.5" stroke-linecap="round" stroke-linejoin="round"/>
<path d="M902.296 904.003L968.286 1149.96L1084.22 1213.58L1072.46 1437.58L1038.51 1714.29L1165.61 1782.06L1263.38 2026.8" stroke="black" stroke-width="9" stroke-miterlimit="1.5" stroke-linecap="round" stroke-linejoin="round"/>
<path d="M1399.15 977.652L1245.11 1180.44L1265.81 1311.05L1081.52 1438.92L841.973 1581.53L866.22 1723.51L752.082 1917.33" stroke="black" stroke-opacity="0.19" stroke-width="24" stroke-miterlimit="1.5" stroke-linecap="round" stroke-linejoin="round"/>
<path d="M605.78 1123.96L808.567 1278L939.177 1257.3L1067.05 1441.59L1209.66 1681.14L1351.64 1656.89L1545.46 1771.03" stroke="black" stroke-opacity="0.19" stroke-width="24" stroke-miterlimit="1.5" stroke-linecap="round" stroke-linejoin="round"/>
<path d="M1619.11 1274.17L1373.15 1340.16L1309.53 1456.09L1085.54 1444.33L808.826 1410.38L741.052 1537.48L532.129 1620.81" stroke="black" stroke-opacity="0.19" stroke-width="24" stroke-miterlimit="1.5" stroke-linecap="round" stroke-linejoin="round"/>
<path d="M902.296 904.003L968.286 1149.96L1084.22 1213.58L1072.46 1437.58L1038.51 1714.29L1165.61 1782.06L1263.38 2026.8" stroke="black" stroke-opacity="0.19" stroke-width="24" stroke-miterlimit="1.5" stroke-linecap="round" stroke-linejoin="round"/>
<path fill-rule="evenodd" clip-rule="evenodd" d="M1071.26 1406.4L1084.23 1432.86L1109.77 1445.2L1079.26 1456.84L1066.34 1483.55L1054.38 1453.37L1027.13 1438.06L1055.68 1429.11L1071.26 1406.4Z" fill="#A4A4A4" stroke="black" stroke-width="5.73273" stroke-miterlimit="1.5" stroke-linecap="round" stroke-linejoin="round"/>
<path fill-rule="evenodd" clip-rule="evenodd" d="M649.927 1103.49C600.657 1103.49 742.722 868.027 765.99 906.946C777.538 926.263 784.156 948.718 784.156 972.667C784.156 1044.87 724.01 1103.49 649.927 1103.49Z" fill="#777777" stroke="black" stroke-width="9" stroke-miterlimit="1.5" stroke-linecap="round" stroke-linejoin="round"/>
<path fill-rule="evenodd" clip-rule="evenodd" d="M639.94 991.097C634.939 1009.28 841.223 854.016 863.983 894.736C874.357 913.297 898.327 918.717 898.327 941.324C898.327 1013.53 838.181 1072.15 764.098 1072.15C708.091 1072.15 653.627 941.319 639.94 991.097Z" fill="#777777" stroke="black" stroke-width="9" stroke-miterlimit="1.5" stroke-linecap="round" stroke-linejoin="round"/>
<path fill-rule="evenodd" clip-rule="evenodd" d="M594.759 1093.83C579.399 1083.07 776.216 889.65 796.624 936.553C803.443 952.224 807.215 969.453 807.215 987.535C807.215 1059.74 747.069 1118.36 672.986 1118.36C643.807 1118.36 616.791 1109.26 594.759 1093.83Z" fill="#777777" stroke="black" stroke-width="9" stroke-miterlimit="1.5" stroke-linecap="round" stroke-linejoin="round"/>
<path fill-rule="evenodd" clip-rule="evenodd" d="M589.488 1295.51C566.884 1295.51 630.647 1038.64 648.448 1047.15C693.008 1068.44 723.717 1113.09 723.717 1164.69C723.717 1236.89 663.571 1295.51 589.488 1295.51Z" fill="#777777" stroke="black" stroke-width="9" stroke-miterlimit="1.5" stroke-linecap="round" stroke-linejoin="round"/>
<path fill-rule="evenodd" clip-rule="evenodd" d="M692.389 1130.32C707.463 1173.95 691.203 1216.67 657.163 1258.78C657.163 1258.78 693.448 1237.86 705.304 1187.7C709.666 1169.25 692.389 1130.32 692.389 1130.32Z" fill="white" fill-opacity="0.8"/>
<path fill-rule="evenodd" clip-rule="evenodd" d="M787.337 969.345C792.526 1009.55 775.418 1045.7 745.669 1079.47C745.669 1079.47 774.307 1064.7 789.219 1021.5C794.705 1005.61 787.337 969.345 787.337 969.345Z" fill="white" fill-opacity="0.8"/>
<path fill-rule="evenodd" clip-rule="evenodd" d="M882.457 938.318C884.859 976.004 865.375 1007.81 833.49 1036.21C833.49 1036.21 862.968 1025.28 880.752 986.747C887.294 972.573 882.457 938.318 882.457 938.318Z" fill="white" fill-opacity="0.8"/>
<path fill-rule="evenodd" clip-rule="evenodd" d="M507.35 1349.29C581.433 1349.29 641.579 1420.56 641.579 1508.34C641.579 1561.43 619.582 1608.48 585.809 1637.37C563.735 1656.26 433.267 1349.29 507.35 1349.29Z" fill="#777777" stroke="black" stroke-width="9.92374" stroke-miterlimit="1.5" stroke-linecap="round" stroke-linejoin="round"/>
<path fill-rule="evenodd" clip-rule="evenodd" d="M531.037 1391.44L555.787 1622C555.787 1622 607.571 1572.03 605.053 1495.44C602.988 1432.63 531.037 1391.44 531.037 1391.44Z" fill="black" fill-opacity="0.4" stroke="black" stroke-width="4" stroke-miterlimit="1.5" stroke-linecap="round" stroke-linejoin="round"/>
<path fill-rule="evenodd" clip-rule="evenodd" d="M597.364 1421.55C621.25 1459.45 624.851 1503.41 616.911 1550.72C616.911 1550.72 633.214 1522.94 624.37 1472.92C621.118 1454.52 597.364 1421.55 597.364 1421.55Z" fill="white" fill-opacity="0.8"/>
<path fill-rule="evenodd" clip-rule="evenodd" d="M678.474 1117.84C678.474 1117.84 690.901 1171.15 681.568 1194.64C656.043 1258.91 593.078 1274.96 593.078 1274.96C636.144 1119.73 720.868 994.958 851.414 903.684C851.414 903.684 874.434 950.208 851.989 996.884C843.597 1014.33 803.09 1036.08 803.09 1036.08L811.079 976.669L770.758 991.82C770.758 991.82 779.795 1033.76 752.709 1059.73C726.119 1085.23 702.077 1081.95 702.077 1081.95L678.474 1117.84Z" fill="black" fill-opacity="0.4" stroke="black" stroke-width="4" stroke-miterlimit="1.5" stroke-linecap="round" stroke-linejoin="round"/>
<path fill-rule="evenodd" clip-rule="evenodd" d="M1627.2 1337.59C1640.41 1332.44 1635.72 1643.96 1620.68 1637.05C1570.53 1613.98 1534.94 1556.23 1534.94 1488.7C1534.94 1418.28 1573.65 1358.48 1627.2 1337.59Z" fill="#777777" stroke="black" stroke-width="9.92374" stroke-miterlimit="1.5" stroke-linecap="round" stroke-linejoin="round"/>
<path fill-rule="evenodd" clip-rule="evenodd" d="M1609.47 1390.22C1609.47 1390.22 1556.96 1437.28 1558.26 1483.71C1559.73 1536.45 1606.48 1599.7 1606.48 1599.7L1609.47 1390.22Z" fill="black" fill-opacity="0.4" stroke="black" stroke-width="4" stroke-miterlimit="1.5" stroke-linecap="round" stroke-linejoin="round"/>
<path fill-rule="evenodd" clip-rule="evenodd" d="M1211.52 862.431C1229.93 795.762 1495.29 950.894 1486.88 970.493C1462.89 1026.41 1413.28 1063.53 1350.09 1063.53C1264.75 1063.53 1205.65 993.703 1205.65 905.924C1205.65 890.847 1207.7 876.257 1211.52 862.431Z" fill="#777777" stroke="black" stroke-width="10.6512" stroke-miterlimit="1.5" stroke-linecap="round" stroke-linejoin="round"/>
<path fill-rule="evenodd" clip-rule="evenodd" d="M1356.14 890.861C1385.2 834.089 1574.35 1104.95 1535.71 1116.65C1516.4 1122.49 1495.68 1124.55 1474.49 1122.07C1389.72 1112.13 1329.21 1033.28 1339.43 946.088C1341.76 926.217 1347.56 907.618 1356.14 890.861Z" fill="#777777" stroke="black" stroke-width="10.6512" stroke-miterlimit="1.5" stroke-linecap="round" stroke-linejoin="round"/>
<path fill-rule="evenodd" clip-rule="evenodd" d="M1435.63 948.967C1446.27 918.017 1634.08 1167.94 1559.99 1167.94C1485.91 1167.94 1425.76 1096.67 1425.76 1008.88C1425.76 987.693 1429.27 967.463 1435.63 948.967Z" fill="#777777" stroke="black" stroke-width="9.92374" stroke-miterlimit="1.5" stroke-linecap="round" stroke-linejoin="round"/>
<path fill-rule="evenodd" clip-rule="evenodd" d="M1243.45 910.789C1243.45 910.789 1242.95 970.93 1265.81 995.067C1303.53 1034.88 1350.24 1032.51 1350.24 1032.51L1339.32 966.911L1380.22 995.073C1380.22 995.073 1383.01 1029.51 1406.28 1055.51C1412.24 1062.16 1437.6 1073.47 1437.6 1073.47L1434.67 1015.19L1243.45 910.789Z" fill="black" fill-opacity="0.4"/>
<path fill-rule="evenodd" clip-rule="evenodd" d="M911.164 920.356L809.501 980.458C841.526 972.507 876.293 958.36 895.943 978.378C895.943 978.378 1041.46 984.12 1095.16 997.769C1102.16 999.55 1108.48 997.836 1113.15 996.839C1125.76 994.144 1140.57 997.902 1156.59 1006.41C1219.19 1039.64 1300.14 1145.38 1339.25 1221.66C1344.29 1231.48 1371.1 1222.59 1374.62 1231.21C1376.03 1234.66 1355.02 1256.53 1356.53 1260.34C1377.91 1314.25 1408.68 1402.92 1425.05 1495.98C1426.9 1506.48 1454.35 1520.37 1455.8 1530.93C1457.24 1541.52 1432.68 1548.78 1433.66 1559.35C1436.85 1593.82 1437.36 1627.95 1433.98 1660.23C1427.76 1719.69 1409.54 1770.62 1384.01 1814.14C1378.04 1824.3 1382.61 1840.74 1375.91 1850.11C1370.04 1858.31 1352.97 1859.55 1346.62 1867.16C1224.44 2013.69 1020.72 2052.97 1020.72 2052.97C1192.22 2097.57 1304.82 2013.79 1483.61 1906.91L1610.66 1489.19C1594.93 1321.17 1555.66 1161.28 1453.91 1022.95C1252.41 844.065 1006.35 886.734 911.164 920.356Z" fill="black" fill-opacity="0.3"/>
</svg>
