<svg width="2160" height="2700" viewBox="0 0 2160 2700" fill="none" xmlns="http://www.w3.org/2000/svg">
<path fill-rule="evenodd" clip-rule="evenodd" d="M684.545 805.988C748.142 805.988 805.415 833.256 845.275 876.717C880.813 915.465 499.14 1173.21 474.092 1080.56C469.193 1062.44 466.579 1043.39 466.579 1023.73C466.579 903.553 564.246 805.988 684.545 805.988Z" fill="#B4AD60" stroke="black" stroke-width="12" stroke-miterlimit="1.5" stroke-linecap="round" stroke-linejoin="round"/>
<path fill-rule="evenodd" clip-rule="evenodd" d="M691.815 853.812C741.769 853.812 787.822 870.636 824.598 898.916C849.952 918.413 773.044 987.991 700.067 1066.94C623.986 1149.25 550.748 1240.2 530.389 1217.79C495.264 1179.13 473.85 1127.82 473.85 1071.55C473.85 951.377 571.516 853.812 691.815 853.812Z" fill="#00A8E4" stroke="black" stroke-width="12" stroke-miterlimit="1.5" stroke-linecap="round" stroke-linejoin="round"/>
<path fill-rule="evenodd" clip-rule="evenodd" d="M1418.12 792.895C1538.42 792.895 1636.09 890.459 1636.09 1010.63C1636.09 1130.8 1217.26 914.033 1245.95 877.154C1285.85 825.896 1348.16 792.895 1418.12 792.895Z" fill="#B4AD60" stroke="black" stroke-width="12" stroke-miterlimit="1.5" stroke-linecap="round" stroke-linejoin="round"/>
<path fill-rule="evenodd" clip-rule="evenodd" d="M1474.92 808.36C1475.42 809.683 1473.99 814.519 1477.65 819.775C1481.43 825.211 1490.3 831.113 1491.26 835.156C1493.49 844.629 1484.1 845.861 1484.1 845.861C1496.47 848.448 1505.03 852.585 1517.49 857.956C1519.12 854.2 1519.78 850.1 1519.58 845.7C1519.33 839.919 1512.22 834.669 1509.31 827.949C1508.43 825.914 1512.82 822.791 1511.73 820.682C1511.73 820.682 1472.7 802.464 1474.92 808.36Z" fill="white" fill-opacity="0.8"/>
<path fill-rule="evenodd" clip-rule="evenodd" d="M1518.4 824.282C1518.67 825.667 1514.77 826.699 1517.53 832.478C1520.38 838.455 1530.67 847.195 1530.96 851.341C1531.63 861.05 1522.16 860.743 1522.16 860.743C1533.95 865.301 1530.68 864.017 1542.12 871.338C1544.32 867.895 1548.04 865.102 1548.56 860.73C1549.24 854.983 1538.76 849.31 1536.97 842.206C1536.43 840.055 1545.5 843.066 1544.77 840.808C1544.77 840.808 1517.17 818.104 1518.4 824.282Z" fill="white" fill-opacity="0.8"/>
<path fill-rule="evenodd" clip-rule="evenodd" d="M1424.56 844.586C1544.85 844.586 1642.52 942.151 1642.52 1062.32C1642.52 1099.04 1633.4 1133.66 1617.3 1164.02C1598.05 1200.32 1528.86 1095.82 1441.45 1019.9C1362.72 951.524 1262.6 913.705 1285.41 894.772C1323.17 863.437 1371.68 844.586 1424.56 844.586Z" fill="#00A8E4" stroke="black" stroke-width="12" stroke-miterlimit="1.5" stroke-linecap="round" stroke-linejoin="round"/>
<path fill-rule="evenodd" clip-rule="evenodd" d="M1047.32 695.355C1167.62 695.355 1258.77 793.097 1265.29 913.094C1266.63 937.764 1153.22 864.284 1041.53 862.714C935.392 861.224 829.359 971.644 829.359 913.094C829.359 792.92 927.026 695.355 1047.32 695.355Z" fill="#B4AD60" stroke="black" stroke-width="12" stroke-miterlimit="1.5" stroke-linecap="round" stroke-linejoin="round"/>
<path fill-rule="evenodd" clip-rule="evenodd" d="M1068.78 704.759C1069.55 706.16 1069.17 711.885 1073.88 717.145C1078.75 722.585 1088.72 727.611 1090.52 731.999C1094.72 742.284 1085.76 745.41 1085.76 745.41C1098.46 746.046 1107.75 749.137 1121.14 752.9C1121.94 748.358 1121.72 743.606 1120.59 738.674C1119.12 732.192 1111.02 727.577 1106.73 720.526C1105.44 718.391 1109.09 714.053 1107.57 711.873C1107.57 711.873 1065.34 698.511 1068.78 704.759Z" fill="white" fill-opacity="0.8"/>
<path fill-rule="evenodd" clip-rule="evenodd" d="M1114.89 714.704C1115.45 716.219 1111.84 718.104 1115.77 724.121C1119.84 730.344 1131.81 738.313 1132.98 742.94C1135.69 753.781 1126.32 755.183 1126.32 755.183C1138.88 758.153 1135.39 757.306 1148.19 763.461C1149.62 759.164 1152.68 755.325 1152.27 750.291C1151.72 743.676 1140.21 739.206 1136.94 731.514C1135.96 729.185 1145.51 730.909 1144.31 728.495C1144.31 728.495 1112.36 707.956 1114.89 714.704Z" fill="white" fill-opacity="0.8"/>
<path fill-rule="evenodd" clip-rule="evenodd" d="M654.527 808.344C655.5 809.614 655.983 815.331 661.429 819.826C667.057 824.476 677.667 827.954 680.105 832.023C685.799 841.563 677.401 845.996 677.401 845.996C690.059 844.723 699.708 846.388 713.506 848.106C713.622 843.494 712.692 838.829 710.836 834.122C708.41 827.934 699.708 824.583 694.415 818.253C692.814 816.336 695.775 811.501 693.947 809.573C693.947 809.573 650.198 802.68 654.527 808.344Z" fill="white" fill-opacity="0.8"/>
<path fill-rule="evenodd" clip-rule="evenodd" d="M701.61 811.278C702.389 812.691 699.099 815.096 703.894 820.455C708.848 825.999 721.873 832.088 723.719 836.488C728.025 846.801 718.973 849.589 718.973 849.589C731.828 850.647 728.259 850.33 741.828 854.502C742.607 850.038 745.053 845.786 743.893 840.869C742.358 834.411 730.316 831.713 725.933 824.598C724.609 822.442 734.315 822.716 732.767 820.509C732.767 820.509 698.104 804.984 701.61 811.278Z" fill="white" fill-opacity="0.8"/>
<path fill-rule="evenodd" clip-rule="evenodd" d="M1051.16 748.75C1144.89 748.75 1224.88 807.983 1255.64 890.989C1259.8 902.219 1153.2 863.609 1052.93 867.189C943.165 871.099 838.775 916.239 841.656 906.239C867.841 815.335 951.776 748.75 1051.16 748.75Z" fill="#00A8E4" stroke="black" stroke-width="12" stroke-miterlimit="1.5" stroke-linecap="round" stroke-linejoin="round"/>
<path fill-rule="evenodd" clip-rule="evenodd" d="M1079.21 814.213C1218.36 814.213 1677.82 955.274 1677.82 955.274C1677.82 955.274 1926.45 1195.33 1967.92 1325.75C2005.09 1442.63 1686.51 1579.53 1686.51 1717.3C1686.51 1855.68 1698.39 1998.62 1698.39 1998.62C1698.39 1998.62 1737.3 2187.89 1714.4 2262.37C1680.68 2372.05 1638.77 2397.32 1490.74 2491.54C1490.74 2491.54 1219.11 2676.13 1081.62 2676.21C945.589 2676.28 719.318 2512.43 719.318 2512.43C548.537 2420.3 511.827 2360.37 479.153 2268.5C445.247 2173.17 457.195 1990.45 457.195 1990.45C457.195 1990.45 475.995 1860.87 471.91 1717.3C469.471 1631.56 151.746 1512.97 191.345 1353.67C227.567 1207.94 479.457 963.122 479.457 963.122C479.457 963.122 915.39 814.213 1079.21 814.213ZM1082.49 885.248C797.884 885.248 566.82 1148.41 566.82 1472.55C566.82 1796.7 797.884 2059.86 1082.49 2059.86C1367.1 2059.86 1598.17 1796.7 1598.17 1472.55C1598.17 1148.41 1367.1 885.248 1082.49 885.248Z" fill="#00A8E4" stroke="black" stroke-width="16.178" stroke-miterlimit="1.5" stroke-linecap="round" stroke-linejoin="round"/>
<path fill-rule="evenodd" clip-rule="evenodd" d="M1694.75 981.182L1949.23 1403.78L1963.81 1339.28C1945.76 1222.05 1694.75 981.182 1694.75 981.182Z" fill="white" fill-opacity="0.6"/>
<path fill-rule="evenodd" clip-rule="evenodd" d="M1688.38 1529.46L1680.42 1844.44L1725.75 2220.99L1683.61 2327.82L1576.35 2189.47L1610.79 2040.43L1618.17 1756.99L1688.38 1529.46Z" fill="white" fill-opacity="0.6"/>
<path fill-rule="evenodd" clip-rule="evenodd" d="M1936.59 1420.68L1701.42 1477.54L1690.96 1685.15C1735.37 1591.7 1830.54 1505.42 1936.59 1420.68Z" fill="black" fill-opacity="0.3"/>
<path d="M1494.98 2478.18L1459.9 2418.17L1384.17 2380.94L1291.71 2450.54L1226.68 2473.03" stroke="black" stroke-width="9.99999" stroke-miterlimit="1.5" stroke-linecap="round" stroke-linejoin="round"/>
<path d="M708.357 2495.11L736.406 2439.33L810.773 2402.76L903.235 2472.36L968.264 2494.85" stroke="black" stroke-width="9.99999" stroke-miterlimit="1.5" stroke-linecap="round" stroke-linejoin="round"/>
<path d="M493.792 2303.78L569.479 2195.6L543.963 2061.48L620.399 2053.04L665.15 2129.51L773.683 2146.96" stroke="black" stroke-width="9.99999" stroke-miterlimit="1.5" stroke-linecap="round" stroke-linejoin="round"/>
<path d="M1684.2 2328.14L1574.57 2195.6L1600.09 2061.48L1523.65 2053.04L1478.9 2129.51L1375.55 2150.8" stroke="black" stroke-width="9.99999" stroke-miterlimit="1.5" stroke-linecap="round" stroke-linejoin="round"/>
<path d="M1603.38 2055.22L1616.67 1760.11L1695.79 1480.45L1940.27 1417.08" stroke="black" stroke-width="9.99999" stroke-miterlimit="1.5" stroke-linecap="round" stroke-linejoin="round"/>
<path fill-rule="evenodd" clip-rule="evenodd" d="M1430.59 2373.56C1380.83 2368.12 1363.53 2364.46 1273.27 2356.76C1202.78 2350.74 1149.31 2299.82 1083.04 2301.58C1016.78 2303.34 942.64 2358.42 875.681 2367.32C814.668 2375.44 759.377 2378.96 732.226 2380.33C720.982 2380.89 552.164 2413.48 552.164 2413.48C609.413 2455.77 668.749 2496.58 735.023 2532.5C735.023 2532.5 798.668 2524.37 885.686 2541.52C953.067 2554.79 1010.56 2617.74 1075.57 2619.22C1140.58 2620.69 1206.55 2561.75 1275.74 2550.35C1366.52 2535.4 1456.98 2530.48 1456.98 2530.48C1514.89 2493.1 1570.43 2452.13 1623.8 2407.86C1623.8 2407.86 1490.88 2380.15 1430.59 2373.56Z" fill="#1D9A6C" stroke="black" stroke-width="6.99103" stroke-miterlimit="1.5" stroke-linecap="round" stroke-linejoin="round"/>
<path d="M586.144 2419.93L613.602 2412.81" stroke="#EFE313" stroke-width="6.99999" stroke-miterlimit="1.5" stroke-linecap="round" stroke-linejoin="round"/>
<path d="M637.112 2408.76L664.57 2401.64" stroke="#EFE313" stroke-width="6.99999" stroke-miterlimit="1.5" stroke-linecap="round" stroke-linejoin="round"/>
<path d="M687.863 2397.08L716.114 2394.53" stroke="#EFE313" stroke-width="7.00001" stroke-miterlimit="1.5" stroke-linecap="round" stroke-linejoin="round"/>
<path d="M738.292 2391L766.543 2388.44" stroke="#EFE313" stroke-width="7.00001" stroke-miterlimit="1.5" stroke-linecap="round" stroke-linejoin="round"/>
<path d="M791.022 2386.9L819.273 2384.34" stroke="#EFE313" stroke-width="7.00001" stroke-miterlimit="1.5" stroke-linecap="round" stroke-linejoin="round"/>
<path d="M842.031 2383.63L870.282 2381.08" stroke="#EFE313" stroke-width="7.00001" stroke-miterlimit="1.5" stroke-linecap="round" stroke-linejoin="round"/>
<path d="M893.528 2381.1L920.689 2372.92" stroke="#EFE313" stroke-width="6.99999" stroke-miterlimit="1.5" stroke-linecap="round" stroke-linejoin="round"/>
<path d="M942.467 2363.15L969.627 2354.97" stroke="#EFE313" stroke-width="6.99999" stroke-miterlimit="1.5" stroke-linecap="round" stroke-linejoin="round"/>
<path d="M1177.31 2346.37L1204.15 2355.55" stroke="#EFE313" stroke-width="7.00001" stroke-miterlimit="1.5" stroke-linecap="round" stroke-linejoin="round"/>
<path d="M1226.95 2363.5L1254.5 2370.25" stroke="#EFE313" stroke-width="7" stroke-miterlimit="1.5" stroke-linecap="round" stroke-linejoin="round"/>
<path d="M1275.66 2372.89L1303.93 2375.17" stroke="#EFE313" stroke-width="7.00001" stroke-miterlimit="1.5" stroke-linecap="round" stroke-linejoin="round"/>
<path d="M1329 2375.91L1357.27 2378.19" stroke="#EFE313" stroke-width="7.00001" stroke-miterlimit="1.5" stroke-linecap="round" stroke-linejoin="round"/>
<path d="M1377.87 2381.2L1406.15 2383.48" stroke="#EFE313" stroke-width="7.00001" stroke-miterlimit="1.5" stroke-linecap="round" stroke-linejoin="round"/>
<path d="M1425.72 2386.7L1453.99 2388.98" stroke="#EFE313" stroke-width="7.00001" stroke-miterlimit="1.5" stroke-linecap="round" stroke-linejoin="round"/>
<path d="M1476.25 2394.06L1504.52 2396.34" stroke="#EFE313" stroke-width="7.00001" stroke-miterlimit="1.5" stroke-linecap="round" stroke-linejoin="round"/>
<path d="M1522.51 2403.75L1550.66 2407.2" stroke="#EFE313" stroke-width="6.99999" stroke-miterlimit="1.5" stroke-linecap="round" stroke-linejoin="round"/>
<path d="M1567.13 2411.86L1595.29 2415.31" stroke="#EFE313" stroke-width="6.99999" stroke-miterlimit="1.5" stroke-linecap="round" stroke-linejoin="round"/>
<path d="M1428.67 2519.04L1456.88 2516.06" stroke="#EFE313" stroke-width="7" stroke-miterlimit="1.5" stroke-linecap="round" stroke-linejoin="round"/>
<path d="M1382.47 2522.01L1410.68 2519.03" stroke="#EFE313" stroke-width="7" stroke-miterlimit="1.5" stroke-linecap="round" stroke-linejoin="round"/>
<path d="M1335.73 2526.5L1363.93 2523.52" stroke="#EFE313" stroke-width="7" stroke-miterlimit="1.5" stroke-linecap="round" stroke-linejoin="round"/>
<path d="M1287.14 2533.14L1315.35 2530.16" stroke="#EFE313" stroke-width="7" stroke-miterlimit="1.5" stroke-linecap="round" stroke-linejoin="round"/>
<path d="M1240.5 2542.72L1267.95 2535.57" stroke="#EFE313" stroke-width="6.99999" stroke-miterlimit="1.5" stroke-linecap="round" stroke-linejoin="round"/>
<path d="M1197.11 2558.58L1223.86 2549.13" stroke="#EFE313" stroke-width="7" stroke-miterlimit="1.5" stroke-linecap="round" stroke-linejoin="round"/>
<path d="M955.42 2552.72L928.674 2543.27" stroke="#EFE313" stroke-width="7" stroke-miterlimit="1.5" stroke-linecap="round" stroke-linejoin="round"/>
<path d="M910.13 2535.02L882.362 2529.22" stroke="#EFE313" stroke-width="7" stroke-miterlimit="1.5" stroke-linecap="round" stroke-linejoin="round"/>
<path d="M861.937 2524.21L833.899 2519.91" stroke="#EFE313" stroke-width="7.00001" stroke-miterlimit="1.5" stroke-linecap="round" stroke-linejoin="round"/>
<path d="M814.058 2517.38L785.696 2516.94" stroke="#EFE313" stroke-width="6.99999" stroke-miterlimit="1.5" stroke-linecap="round" stroke-linejoin="round"/>
<path d="M764.802 2516.91L736.437 2517.18" stroke="#EFE313" stroke-width="7" stroke-miterlimit="1.5" stroke-linecap="round" stroke-linejoin="round"/>
<path d="M1079.59 2590.37C1151.23 2589.77 1209.31 2529.93 1209.31 2456.72C1209.31 2383.51 1151.23 2324.65 1079.59 2325.26C1007.96 2325.87 949.884 2385.71 949.884 2458.91C949.884 2532.12 1007.96 2590.98 1079.59 2590.37Z" fill="white" stroke="black" stroke-width="12.1393" stroke-miterlimit="1.5" stroke-linecap="round" stroke-linejoin="round"/>
<path d="M1079.04 2572.36C1137.9 2572.36 1185.61 2520.66 1185.61 2456.89C1185.61 2393.12 1137.9 2341.42 1079.04 2341.42C1020.18 2341.42 972.468 2393.12 972.468 2456.89C972.468 2520.66 1020.18 2572.36 1079.04 2572.36Z" fill="#D8CF82" stroke="black" stroke-width="12.4613" stroke-miterlimit="1.5" stroke-linecap="round" stroke-linejoin="round"/>
<path fill-rule="evenodd" clip-rule="evenodd" d="M989.263 2421.08L992.824 2497.05L1024.98 2540.14L1019.1 2458.05L1036.27 2459.55L1033.49 2434.25L1015.37 2435.18L1010.23 2423.46L1042.62 2399.39L1037.81 2361.83L989.263 2421.08Z" fill="#EFE313"/>
<path fill-rule="evenodd" clip-rule="evenodd" d="M989.263 2421.08L1037.81 2361.83L1042.62 2399.39L1010.23 2423.46L1015.37 2435.18L1033.49 2434.25L1036.27 2459.55L1019.1 2458.05L1024.98 2540.14L992.824 2497.05L989.263 2421.08ZM996.381 2423.44L999.716 2494.58L1016.29 2516.79L1012.12 2458.55C1011.98 2456.51 1012.73 2454.5 1014.19 2453.07C1015.65 2451.63 1017.67 2450.9 1019.71 2451.08L1028.38 2451.83L1027.25 2441.58L1015.73 2442.17C1012.82 2442.32 1010.13 2440.66 1008.96 2437.99L1003.82 2426.27C1002.5 2423.28 1003.43 2419.78 1006.05 2417.84L1035.15 2396.21L1032.93 2378.83L996.381 2423.44Z" fill="black"/>
<path fill-rule="evenodd" clip-rule="evenodd" d="M1039.38 2404.66L1034.6 2431.71L1054.78 2428.83L1048.15 2513.83L1091.48 2511.56L1079.37 2428.15L1100.9 2429.59L1092.32 2399.94L1039.38 2404.66Z" fill="#EFE313"/>
<path fill-rule="evenodd" clip-rule="evenodd" d="M1039.38 2404.66L1092.32 2399.94L1100.9 2429.59L1079.37 2428.15L1091.48 2511.56L1048.15 2513.83L1054.78 2428.83L1034.6 2431.71L1039.38 2404.66ZM1045.34 2411.16L1043.18 2423.42L1053.79 2421.9C1055.89 2421.6 1058.02 2422.27 1059.57 2423.73C1061.12 2425.18 1061.92 2427.26 1061.76 2429.37L1055.75 2506.43L1083.45 2504.97L1072.45 2429.15C1072.14 2427.06 1072.8 2424.95 1074.24 2423.4C1075.67 2421.84 1077.73 2421.02 1079.84 2421.17L1091.4 2421.94L1087.2 2407.42L1045.34 2411.16Z" fill="black"/>
<path fill-rule="evenodd" clip-rule="evenodd" d="M1096.75 2357.84L1112.83 2513.33L1131.72 2475.96L1141.27 2532.36L1173.56 2433.03L1151.17 2394.45L1140.17 2437.65L1134.46 2398.25L1125.1 2426.46L1124.76 2373.13L1096.75 2357.84Z" fill="#EFE313"/>
<path fill-rule="evenodd" clip-rule="evenodd" d="M1096.75 2357.84L1124.76 2373.13L1125.1 2426.46L1134.46 2398.25L1140.17 2437.65L1151.17 2394.45L1173.56 2433.03L1141.27 2532.36L1131.72 2475.96L1112.83 2513.33L1096.75 2357.84ZM1105.09 2370.36L1117.34 2488.9L1125.48 2472.8C1126.84 2470.11 1129.78 2468.59 1132.77 2469.04C1135.76 2469.49 1138.12 2471.81 1138.62 2474.79L1143.42 2503.12L1165.94 2433.84L1153.72 2412.79L1146.95 2439.37C1146.12 2442.61 1143.13 2444.81 1139.8 2444.64C1136.46 2444.46 1133.72 2441.95 1133.24 2438.65L1131.78 2428.55L1131.74 2428.66C1130.66 2431.91 1127.38 2433.91 1124 2433.37C1120.62 2432.83 1118.12 2429.93 1118.1 2426.5L1117.78 2377.29L1105.09 2370.36Z" fill="black"/>
<path d="M1350.47 2500.62C1369.92 2500.62 1385.68 2482.73 1385.68 2460.67C1385.68 2438.61 1369.92 2420.73 1350.47 2420.73C1331.02 2420.73 1315.26 2438.61 1315.26 2460.67C1315.26 2482.73 1331.02 2500.62 1350.47 2500.62Z" fill="#B4AD60" stroke="black" stroke-width="11.9319" stroke-miterlimit="1.5" stroke-linecap="round" stroke-linejoin="round"/>
<path fill-rule="evenodd" clip-rule="evenodd" d="M1352.2 2442.51L1357.17 2457.29H1373.27L1360.25 2466.42L1365.22 2481.2L1352.2 2472.07L1339.18 2481.2L1344.15 2466.42L1331.13 2457.29H1347.23L1352.2 2442.51Z" fill="#EFE313"/>
<path d="M1048.62 2543.78C1053.49 2543.78 1057.44 2539.62 1057.44 2534.48C1057.44 2529.34 1053.49 2525.18 1048.62 2525.18C1043.76 2525.18 1039.81 2529.34 1039.81 2534.48C1039.81 2539.62 1043.76 2543.78 1048.62 2543.78Z" fill="#B4AD60" stroke="black" stroke-width="2.88042" stroke-miterlimit="1.5" stroke-linecap="round" stroke-linejoin="round"/>
<path d="M1077.05 2554.5C1081.92 2554.5 1085.86 2550.34 1085.86 2545.2C1085.86 2540.06 1081.92 2535.9 1077.05 2535.9C1072.18 2535.9 1068.24 2540.06 1068.24 2545.2C1068.24 2550.34 1072.18 2554.5 1077.05 2554.5Z" fill="#B4AD60" stroke="black" stroke-width="2.88042" stroke-miterlimit="1.5" stroke-linecap="round" stroke-linejoin="round"/>
<path d="M1105.09 2542.14C1109.95 2542.14 1113.9 2537.97 1113.9 2532.83C1113.9 2527.7 1109.95 2523.53 1105.09 2523.53C1100.22 2523.53 1096.27 2527.7 1096.27 2532.83C1096.27 2537.97 1100.22 2542.14 1105.09 2542.14Z" fill="#B4AD60" stroke="black" stroke-width="2.88042" stroke-miterlimit="1.5" stroke-linecap="round" stroke-linejoin="round"/>
<path d="M797.492 2498.31C816.94 2498.31 832.705 2480.43 832.705 2458.37C832.705 2436.31 816.94 2418.43 797.492 2418.43C778.044 2418.43 762.279 2436.31 762.279 2458.37C762.279 2480.43 778.044 2498.31 797.492 2498.31Z" fill="#B4AD60" stroke="black" stroke-width="11.9319" stroke-miterlimit="1.5" stroke-linecap="round" stroke-linejoin="round"/>
<path fill-rule="evenodd" clip-rule="evenodd" d="M796.861 2436.83L801.831 2451.61H817.931L804.911 2460.74L809.881 2475.52L796.861 2466.39L783.841 2475.52L788.811 2460.74L775.791 2451.61H791.891L796.861 2436.83Z" fill="#EFE313"/>
<path fill-rule="evenodd" clip-rule="evenodd" d="M277.028 1532.46L274.365 1451.43L331.592 1345.8L421.133 1362.45L367.789 1467.85L367.427 1608.89L277.028 1532.46Z" fill="#FF2E33" stroke="black" stroke-width="9.99999" stroke-miterlimit="1.5" stroke-linecap="round" stroke-linejoin="round"/>
<path fill-rule="evenodd" clip-rule="evenodd" d="M604.262 928.962L514.51 1004.29L350.793 1306.16L439.617 1321.26L567.923 1082.99L766.376 882.615L604.262 928.962Z" fill="#FF2E33" stroke="black" stroke-width="9.99999" stroke-miterlimit="1.5" stroke-linecap="round" stroke-linejoin="round"/>
<path d="M544.618 2058.67L543.411 1765.01L464.293 1485.35L204.761 1439.55" stroke="black" stroke-width="9.99999" stroke-miterlimit="1.5" stroke-linecap="round" stroke-linejoin="round"/>
<path d="M1943.19 1401.24L1671.87 952.707L1561.6 1132.94L1698.65 1478.63L1687.77 1682.64" stroke="black" stroke-width="9.99999" stroke-miterlimit="1.5" stroke-linecap="round" stroke-linejoin="round"/>
<path d="M201.847 1423.72L488.222 957.613L598.491 1137.85L461.437 1483.54L472.313 1687.55" stroke="black" stroke-width="9.99999" stroke-miterlimit="1.5" stroke-linecap="round" stroke-linejoin="round"/>
<path fill-rule="evenodd" clip-rule="evenodd" d="M1081.47 844.879C1387.48 844.879 1622.77 1121.3 1622.77 1468.61C1622.77 1685.65 1585.68 1927.83 1438.79 2090.99C1350.64 2188.91 1199.83 2220.96 1087.13 2226.12C993.475 2230.41 854.352 2220.08 779.794 2151.91C611.001 1997.59 538.13 1715.45 538.13 1474.55C538.13 1127.25 775.466 844.879 1081.47 844.879ZM1081.47 876.776C791.892 876.776 557.86 1144.55 557.86 1473.21C557.86 1801.88 791.892 2069.65 1081.47 2069.65C1247.38 2069.65 1395.05 1981.75 1490.93 1844.87C1562.39 1742.83 1605.08 1613.57 1605.08 1473.21C1605.08 1144.55 1371.05 876.776 1081.47 876.776Z" fill="#808080" stroke="black" stroke-width="12.0025" stroke-miterlimit="2" stroke-linejoin="round"/>
<path fill-rule="evenodd" clip-rule="evenodd" d="M187.89 1361.48C155.636 1313.98 460.261 990.035 460.261 990.035L306.228 1267.03L198.569 1440.43L459.644 1482.66L544.857 1775.22L540.983 2063.43L566.47 2193.49L551.668 2238.74C600.885 2302.26 616.449 2356.43 703.99 2369.49C734.129 2373.99 708.591 2384.78 723.809 2388.69C733.028 2391.06 773.348 2380.57 787.477 2393.76C813.332 2417.9 838.971 2487.85 878.94 2533.5C882.631 2537.72 966.767 2580.99 961.792 2579.3C797.16 2523.34 963.851 2642.8 1016.43 2666.14C915.127 2628.2 818.761 2600.98 741.415 2532.22C691.421 2508.52 612.946 2469.78 562.237 2418.21C530.408 2385.84 521.526 2347.11 500.075 2307.96C444.958 2157.6 457.27 1945.86 469.809 1704.65L200.935 1457.92L187.89 1361.48Z" fill="black" fill-opacity="0.3"/>
<path fill-rule="evenodd" clip-rule="evenodd" d="M934.486 2045.82C934.486 2045.82 912.526 2063.6 900.533 2060.65C883.101 2056.36 829.893 2020.07 829.893 2020.07C829.893 2020.07 783.9 1980.93 756.585 2002.21C740.947 2014.39 728.349 2103.84 728.349 2103.84C682.651 2074.59 616.034 1981.67 590.317 1919.92C548.575 1819.68 524.196 1681.25 506.573 1551.98C493.355 1244.59 615.265 1073.34 792.938 932.381L791.189 980.06C628.297 1090.35 562.825 1285.84 566.898 1542.15C602.758 1783.82 733.487 1944.73 934.486 2045.82Z" fill="black" fill-opacity="0.3"/>
<path d="M1097.86 2226.68L1096.3 2175.31L1114.57 2167L1114.31 2146.96L1093.24 2139.4C1088.59 2123.16 1089.77 2083.59 1095.34 2064.09" stroke="black" stroke-width="7.99999" stroke-miterlimit="1.5" stroke-linecap="round" stroke-linejoin="round"/>
<path d="M1763.4 1162.53C1754.85 1214.2 1710.86 1250.23 1665.13 1243.01C1619.4 1235.79 1589.25 1188.06 1597.8 1136.39C1606.34 1084.72 1650.34 1048.69 1696.07 1055.91C1741.8 1063.13 1771.94 1110.86 1763.4 1162.53Z" fill="white" stroke="black" stroke-width="8.25349" stroke-miterlimit="1.5" stroke-linecap="round" stroke-linejoin="round"/>
<path d="M1744.11 1159.07C1737.4 1201.57 1701.49 1231.21 1663.89 1225.28C1626.29 1219.34 1601.25 1180.08 1607.96 1137.58C1614.67 1095.08 1650.58 1065.44 1688.18 1071.38C1725.78 1077.31 1750.82 1116.58 1744.11 1159.07Z" fill="#D8CF82" stroke="black" stroke-width="8.23118" stroke-miterlimit="1.5" stroke-linecap="round" stroke-linejoin="round"/>
<path d="M1720.12 1155.18C1714.39 1191.47 1685.19 1217.02 1654.89 1212.24C1624.6 1207.46 1604.68 1174.16 1610.41 1137.86C1616.14 1101.56 1645.34 1076.02 1675.64 1080.8C1705.93 1085.58 1725.85 1118.88 1720.12 1155.18Z" fill="#D8CF82" stroke="black" stroke-width="4.08138" stroke-miterlimit="1.5" stroke-linecap="round" stroke-linejoin="round"/>
<path d="M1706.18 1153.24C1701.75 1181.32 1677.67 1200.85 1652.39 1196.86C1627.12 1192.87 1610.22 1166.87 1614.65 1138.79C1619.09 1110.71 1643.17 1091.18 1668.44 1095.16C1693.72 1099.15 1710.62 1125.15 1706.18 1153.24Z" fill="#D8CF82" stroke="black" stroke-width="3.27915" stroke-miterlimit="1.5" stroke-linecap="round" stroke-linejoin="round"/>
<path d="M1692.79 1151.33C1689.15 1174.39 1669.81 1190.5 1649.58 1187.3C1629.35 1184.11 1615.91 1162.83 1619.55 1139.77C1623.19 1116.71 1642.53 1100.61 1662.76 1103.8C1682.99 1106.99 1696.43 1128.27 1692.79 1151.33Z" fill="#D8CF82" stroke="black" stroke-width="2.65816" stroke-miterlimit="1.5" stroke-linecap="round" stroke-linejoin="round"/>
<path d="M1741.33 1156.46L1677.62 1146.37L1663.62 1117.52C1679.73 1095.11 1699.09 1090.04 1716.27 1086.58" stroke="black" stroke-width="2.7196" stroke-miterlimit="1.5" stroke-linecap="round" stroke-linejoin="round"/>
<path d="M1651.49 1172.21C1662.18 1192.97 1674.53 1209.62 1688.75 1221.61" stroke="black" stroke-width="2.7196" stroke-miterlimit="1.5" stroke-linecap="round" stroke-linejoin="round"/>
<path d="M1632.17 1166.85C1623.05 1180.33 1622.82 1192.64 1623.6 1204.82" stroke="black" stroke-width="2.7196" stroke-miterlimit="1.5" stroke-linecap="round" stroke-linejoin="round"/>
<path d="M1623.43 1137.1L1608.28 1133.61" stroke="black" stroke-width="2.7196" stroke-miterlimit="1.5" stroke-linecap="round" stroke-linejoin="round"/>
<path d="M1641.02 1118C1638.81 1107.95 1639.91 1097.69 1643.13 1087.28" stroke="black" stroke-width="2.7196" stroke-miterlimit="1.5" stroke-linecap="round" stroke-linejoin="round"/>
<path d="M1672.2 1147.22C1669.99 1161.26 1657.02 1170.88 1643.24 1168.71C1629.46 1166.53 1620.09 1153.38 1622.3 1139.34C1624.52 1125.3 1637.49 1115.68 1651.27 1117.85C1665.05 1120.03 1674.42 1133.18 1672.2 1147.22Z" fill="#B4AD60" stroke="black" stroke-width="8.11254" stroke-miterlimit="1.5" stroke-linecap="round" stroke-linejoin="round"/>
<path fill-rule="evenodd" clip-rule="evenodd" d="M1670.35 1218.05C1654.89 1202.7 1647.28 1184.6 1646.96 1163.93C1639.42 1149.07 1643.32 1128.65 1653.66 1116.18C1662.32 1111.18 1671.72 1119.05 1671.78 1128C1681.68 1102.81 1699.76 1089.73 1721.83 1082.56L1704.96 1068.12C1664.78 1054.46 1626.9 1072.68 1605.44 1124.94C1606.42 1168.14 1612.67 1207.89 1659.06 1227.81L1670.35 1218.05Z" fill="black" fill-opacity="0.3"/>
<path d="M1852.65 1339.35C1844.1 1391.01 1800.1 1427.04 1754.37 1419.83C1708.64 1412.61 1678.5 1364.87 1687.04 1313.21C1695.59 1261.54 1739.58 1225.51 1785.31 1232.73C1831.04 1239.94 1861.19 1287.68 1852.65 1339.35Z" fill="white" stroke="black" stroke-width="8.25349" stroke-miterlimit="1.5" stroke-linecap="round" stroke-linejoin="round"/>
<path d="M1833.36 1335.89C1826.65 1378.39 1790.74 1408.03 1753.14 1402.1C1715.54 1396.16 1690.5 1356.9 1697.21 1314.4C1703.92 1271.9 1739.83 1242.26 1777.43 1248.19C1815.03 1254.13 1840.07 1293.39 1833.36 1335.89Z" fill="#D8CF82" stroke="black" stroke-width="8.23118" stroke-miterlimit="1.5" stroke-linecap="round" stroke-linejoin="round"/>
<path d="M1809.37 1331.99C1803.64 1368.29 1774.43 1393.84 1744.14 1389.05C1713.84 1384.27 1693.93 1350.97 1699.66 1314.68C1705.39 1278.38 1734.59 1252.83 1764.89 1257.61C1795.18 1262.4 1815.09 1295.7 1809.37 1331.99Z" fill="#D8CF82" stroke="black" stroke-width="4.08138" stroke-miterlimit="1.5" stroke-linecap="round" stroke-linejoin="round"/>
<path d="M1795.43 1330.05C1791 1358.14 1766.92 1377.67 1741.64 1373.68C1716.37 1369.69 1699.47 1343.69 1703.9 1315.61C1708.34 1287.52 1732.42 1267.99 1757.69 1271.98C1782.97 1275.97 1799.86 1301.97 1795.43 1330.05Z" fill="#D8CF82" stroke="black" stroke-width="3.27915" stroke-miterlimit="1.5" stroke-linecap="round" stroke-linejoin="round"/>
<path d="M1782.04 1328.15C1778.4 1351.21 1759.06 1367.31 1738.83 1364.12C1718.6 1360.93 1705.16 1339.65 1708.8 1316.59C1712.44 1293.53 1731.78 1277.42 1752.01 1280.61C1772.24 1283.81 1785.68 1305.09 1782.04 1328.15Z" fill="#D8CF82" stroke="black" stroke-width="2.65816" stroke-miterlimit="1.5" stroke-linecap="round" stroke-linejoin="round"/>
<path d="M1830.58 1333.28L1766.87 1323.19L1752.87 1294.34C1768.97 1271.93 1788.33 1266.86 1805.52 1263.4" stroke="black" stroke-width="2.7196" stroke-miterlimit="1.5" stroke-linecap="round" stroke-linejoin="round"/>
<path d="M1740.74 1349.03C1751.43 1369.79 1763.78 1386.44 1778 1398.43" stroke="black" stroke-width="2.7196" stroke-miterlimit="1.5" stroke-linecap="round" stroke-linejoin="round"/>
<path d="M1721.42 1343.67C1712.3 1357.15 1712.07 1369.46 1712.85 1381.64" stroke="black" stroke-width="2.7196" stroke-miterlimit="1.5" stroke-linecap="round" stroke-linejoin="round"/>
<path d="M1712.68 1313.92L1697.53 1310.43" stroke="black" stroke-width="2.7196" stroke-miterlimit="1.5" stroke-linecap="round" stroke-linejoin="round"/>
<path d="M1730.27 1294.82C1728.06 1284.77 1729.16 1274.51 1732.37 1264.1" stroke="black" stroke-width="2.7196" stroke-miterlimit="1.5" stroke-linecap="round" stroke-linejoin="round"/>
<path d="M1761.45 1324.03C1759.23 1338.08 1746.27 1347.7 1732.49 1345.52C1718.71 1343.35 1709.34 1330.2 1711.55 1316.16C1713.77 1302.12 1726.74 1292.5 1740.52 1294.67C1754.29 1296.85 1763.67 1309.99 1761.45 1324.03Z" fill="#B4AD60" stroke="black" stroke-width="8.11254" stroke-miterlimit="1.5" stroke-linecap="round" stroke-linejoin="round"/>
<path fill-rule="evenodd" clip-rule="evenodd" d="M1760.06 1400.86C1744.59 1385.52 1736.98 1367.41 1736.67 1346.75C1729.12 1331.88 1733.03 1311.46 1743.36 1299C1752.02 1293.99 1761.43 1301.86 1761.49 1310.81C1771.39 1285.62 1789.47 1272.54 1811.53 1265.38L1794.66 1250.93C1754.48 1237.28 1716.6 1255.49 1695.15 1307.76C1696.12 1350.95 1702.37 1390.7 1748.77 1410.62L1760.06 1400.86Z" fill="black" fill-opacity="0.3"/>
<path fill-rule="evenodd" clip-rule="evenodd" d="M1716.7 1315.29C1735.37 1304.06 1765.28 1344.62 1756.59 1342.48C1764.34 1338.62 1779.62 1335.19 1792.48 1338.97C1813.4 1345.12 1822.54 1362.97 1827.81 1363.87C1850.91 1328.27 1825.8 1283.05 1792.36 1254.53C1750.25 1244.87 1712.65 1258.69 1701.29 1313.4L1716.7 1315.29Z" fill="black" fill-opacity="0.3"/>
<path fill-rule="evenodd" clip-rule="evenodd" d="M1634.58 1137C1653.26 1125.77 1683.17 1166.33 1674.48 1164.19C1682.22 1160.33 1697.5 1156.89 1710.37 1160.68C1731.28 1166.83 1740.42 1184.68 1745.69 1185.58C1768.79 1149.98 1743.69 1104.75 1710.24 1076.24C1668.13 1066.58 1630.54 1080.4 1619.17 1135.11L1634.58 1137Z" fill="black" fill-opacity="0.3"/>
<path fill-rule="evenodd" clip-rule="evenodd" d="M1524.44 2178.59C1555.01 2178.59 1544.98 2253.41 1544.98 2283.18C1544.98 2312.94 1478.22 2355.55 1447.64 2355.55C1417.07 2355.55 1435.09 2302.73 1435.09 2272.97C1435.09 2243.2 1493.87 2178.59 1524.44 2178.59Z" fill="white" stroke="black" stroke-width="12" stroke-miterlimit="1.5" stroke-linecap="round" stroke-linejoin="round"/>
<path fill-rule="evenodd" clip-rule="evenodd" d="M627.129 2178.59C596.556 2178.59 606.592 2253.41 606.592 2283.18C606.592 2312.94 673.351 2355.55 703.924 2355.55C734.497 2355.55 716.476 2302.73 716.476 2272.97C716.476 2243.2 657.702 2178.59 627.129 2178.59Z" fill="white" stroke="black" stroke-width="12" stroke-miterlimit="1.5" stroke-linecap="round" stroke-linejoin="round"/>
<path fill-rule="evenodd" clip-rule="evenodd" d="M1356.8 1021.61C1356.8 1021.61 1525.22 1227.56 1524.7 1359.24C1523.8 1587.83 1415.96 1824.39 1415.96 1824.39C1525.65 1521.86 1477.75 1244.58 1356.8 1021.61Z" fill="white"/>
<path fill-rule="evenodd" clip-rule="evenodd" d="M1488.86 1887.78C1439.99 1954.28 1340.84 2049.43 1275.54 2079.86C1251.95 2090.85 1132.36 2125.01 1163.69 2094.2C1182.79 2075.43 1227.61 2080.52 1290.93 2046.61C1366.75 2006.01 1427.2 1950.95 1488.86 1887.78Z" fill="white" fill-opacity="0.4"/>
<path d="M1036.43 2175.67C1048.8 2175.67 1058.83 2167.3 1058.83 2156.97C1058.83 2146.64 1048.8 2138.26 1036.43 2138.26C1024.06 2138.26 1014.02 2146.64 1014.02 2156.97C1014.02 2167.3 1024.06 2175.67 1036.43 2175.67Z" fill="#1D9A6C" stroke="black" stroke-width="7.99999" stroke-miterlimit="1.5" stroke-linecap="round" stroke-linejoin="round"/>
<path d="M966.301 2172.06C978.675 2172.06 988.705 2163.69 988.705 2153.36C988.705 2143.02 978.675 2134.65 966.301 2134.65C953.928 2134.65 943.897 2143.02 943.897 2153.36C943.897 2163.69 953.928 2172.06 966.301 2172.06Z" fill="#1D9A6C" stroke="black" stroke-width="7.99999" stroke-miterlimit="1.5" stroke-linecap="round" stroke-linejoin="round"/>
<path fill-rule="evenodd" clip-rule="evenodd" d="M1584.12 2072.99L1558.6 2151.82C1492.87 2148.7 1433.07 2209.2 1387.33 2304.41C1387.33 2304.41 1434.61 2202.95 1455.48 2173.91C1468.56 2155.71 1534.92 2130.86 1534.92 2130.86L1584.12 2072.99Z" fill="white" fill-opacity="0.7"/>
</svg>
