<svg width="2160" height="2700" viewBox="0 0 2160 2700" fill="none" xmlns="http://www.w3.org/2000/svg">
<path fill-rule="evenodd" clip-rule="evenodd" d="M1079.21 814.212C1216.12 814.212 1529.97 790.642 1725.79 902.744C1876.85 989.224 1925.55 1192.51 1967.92 1325.75C1973.03 1341.82 1960.47 1382.68 1960.47 1382.68L1704.7 1657.22L1686.51 1717.3L1594.21 2195.86C1594.21 2195.86 1296.23 2620.39 1079.21 2620.39C863.772 2620.39 566.564 2201.4 566.564 2201.4L471.911 1717.3L451.908 1666.88L197.518 1387.95C197.518 1387.95 189.246 1363.75 191.345 1353.67C217.181 1229.54 242.711 1054.41 345.636 974.071C548.058 816.065 898.446 814.212 1079.21 814.212ZM1082.49 885.247C797.884 885.247 566.82 1148.41 566.82 1472.55C566.82 1796.7 806.41 2062.89 1082.49 2059.86C1371.23 2056.69 1598.17 1796.7 1598.17 1472.55C1598.17 1148.41 1367.1 885.247 1082.49 885.247Z" fill="#00A8E4" stroke="black" stroke-width="16.178" stroke-miterlimit="1.5" stroke-linecap="round" stroke-linejoin="round"/>
<path fill-rule="evenodd" clip-rule="evenodd" d="M1663.38 1690.66L1611.68 1877.22L1611.52 1946.2C1611.52 1946.2 1608.58 1897.05 1590.3 1898.19C1572.03 1899.33 1514.27 1925.31 1514.27 1925.31L1589.36 1869.55L1663.38 1690.66Z" fill="white"/>
<path fill-rule="evenodd" clip-rule="evenodd" d="M1081.47 844.879C1387.48 844.879 1636.97 1125.91 1636.97 1473.21C1636.97 1820.51 1387.48 2101.54 1081.47 2101.54C775.466 2101.54 525.963 1820.51 525.963 1473.21C525.963 1125.91 775.466 844.879 1081.47 844.879ZM1081.47 876.776C791.892 876.776 557.86 1144.55 557.86 1473.21C557.86 1801.88 791.892 2069.65 1081.47 2069.65C1371.05 2069.65 1605.08 1801.88 1605.08 1473.21C1605.08 1144.55 1371.05 876.776 1081.47 876.776Z" fill="#808080" stroke="black" stroke-width="7.00056" stroke-miterlimit="2" stroke-linejoin="round"/>
<path fill-rule="evenodd" clip-rule="evenodd" d="M765.833 2428.38L781.12 2369.16L903.905 2491.21C1048.35 2559.47 1194.91 2540.64 1309.83 2484.27C1325.2 2427.41 1343.6 2366.16 1391.89 2294.92L1404.23 2420.63L1258.4 2546.74C1199.34 2611.22 1113.94 2620 1070.74 2620.53C855.89 2571.55 823.787 2497.44 765.833 2428.38Z" fill="black" fill-opacity="0.25"/>
<path fill-rule="evenodd" clip-rule="evenodd" d="M879.659 2523.47C879.016 2524.58 877.598 2524.95 876.494 2524.31C875.391 2523.66 875.017 2522.25 875.661 2521.14L954.332 2383.11L836.3 2292.7C835.033 2291.72 834.37 2290.15 834.55 2288.56C834.55 2288.56 838.822 2251.36 844.525 2204.01C854.522 2121.02 868.764 2006.85 868.764 2006.85C868.908 2005.58 870.055 2004.67 871.324 2004.81C872.593 2004.96 873.507 2006.1 873.363 2007.37C873.363 2007.37 861.688 2121.83 852.855 2204.96C848.592 2245.07 844.956 2277.88 843.936 2287.04L961.787 2379C963.336 2380.2 963.756 2382.36 962.771 2384.05L879.659 2523.47Z" fill="black"/>
<path fill-rule="evenodd" clip-rule="evenodd" d="M1317.67 2520.87C1318.31 2521.98 1317.94 2523.39 1316.83 2524.04C1315.73 2524.68 1314.31 2524.31 1313.67 2523.2L1230.56 2383.78C1229.57 2382.09 1229.99 2379.93 1231.54 2378.73L1349.39 2286.77C1348.37 2277.61 1344.73 2244.8 1340.47 2204.69C1331.64 2121.56 1319.96 2007.1 1319.96 2007.1C1319.82 2005.83 1320.73 2004.69 1322 2004.54C1323.27 2004.4 1324.42 2005.31 1324.56 2006.58C1324.56 2006.58 1338.8 2120.75 1348.8 2203.74C1354.5 2251.09 1358.78 2288.29 1358.78 2288.29C1358.96 2289.88 1358.29 2291.45 1357.03 2292.43L1238.99 2382.84L1317.67 2520.87Z" fill="black"/>
<path fill-rule="evenodd" clip-rule="evenodd" d="M625.639 1979.77C616.009 1989.39 612.222 2003.43 613.65 2019.43C615.871 2044.26 774.707 2129.01 774.707 2129.01C774.707 2129.01 787.818 2106.44 786.835 2091.22C785.217 2066.01 650.202 1955.23 625.639 1979.77Z" fill="#8FD926" stroke="black" stroke-width="16.178" stroke-miterlimit="1.5" stroke-linecap="square" stroke-linejoin="round"/>
<path fill-rule="evenodd" clip-rule="evenodd" d="M792.107 2250.95C801.737 2241.33 805.524 2227.29 804.096 2211.29C801.875 2186.46 643.039 2101.72 643.039 2101.72C643.039 2101.72 629.928 2124.28 630.911 2139.5C632.529 2164.71 767.544 2275.49 792.107 2250.95Z" fill="#8FD926" stroke="black" stroke-width="16.178" stroke-miterlimit="1.5" stroke-linecap="square" stroke-linejoin="round"/>
<path d="M1087.53 2349C1150.79 2349 1202.08 2326.46 1202.08 2298.66C1202.08 2270.87 1150.79 2248.33 1087.53 2248.33C1024.26 2248.33 972.974 2270.87 972.974 2298.66C972.974 2326.46 1024.26 2349 1087.53 2349Z" fill="#8FD926" stroke="black" stroke-width="11.7556" stroke-miterlimit="1.5" stroke-linecap="square" stroke-linejoin="round"/>
<path fill-rule="evenodd" clip-rule="evenodd" d="M1565.05 1958.83C1574.68 1968.45 1578.46 1982.49 1577.04 1998.49C1574.82 2023.32 1415.98 2108.07 1415.98 2108.07C1415.98 2108.07 1402.87 2085.5 1403.85 2070.28C1405.47 2045.07 1540.48 1934.29 1565.05 1958.83Z" fill="#8FD926" stroke="black" stroke-width="16.178" stroke-miterlimit="1.5" stroke-linecap="square" stroke-linejoin="round"/>
<path fill-rule="evenodd" clip-rule="evenodd" d="M1393.97 2221.45C1384.34 2211.84 1380.56 2197.79 1381.99 2181.79C1384.21 2156.96 1543.04 2072.22 1543.04 2072.22C1543.04 2072.22 1556.15 2094.78 1555.17 2110C1553.55 2135.21 1418.54 2245.99 1393.97 2221.45Z" fill="#8FD926" stroke="black" stroke-width="16.178" stroke-miterlimit="1.5" stroke-linecap="square" stroke-linejoin="round"/>
<path fill-rule="evenodd" clip-rule="evenodd" d="M576.063 978.967C594.41 945.709 558.116 816.33 524.859 797.983C524.859 797.983 353.222 803.778 335.031 845.995L71.3365 1323.98C52.9877 1357.24 65.0929 1399.14 98.3499 1417.49L218.864 1483.97C252.124 1502.32 413.826 1518.06 432.174 1484.8L576.063 978.967Z" fill="#00A8E4" stroke="black" stroke-width="13.4712" stroke-miterlimit="1.5" stroke-linecap="round" stroke-linejoin="round"/>
<path fill-rule="evenodd" clip-rule="evenodd" d="M728.561 984.735C748.629 948.357 735.389 902.53 699.008 882.459L567.185 809.736C530.807 789.667 484.98 802.908 464.911 839.286L334.215 1033.51L208.156 1304.7C188.087 1341.07 201.328 1386.9 237.706 1406.97L369.529 1479.69C405.91 1499.76 451.737 1486.52 471.805 1450.15L574.454 1207.42L728.561 984.735Z" fill="#00A8E4" stroke="black" stroke-width="13.4765" stroke-miterlimit="1.5" stroke-linecap="round" stroke-linejoin="round"/>
<path fill-rule="evenodd" clip-rule="evenodd" d="M645.72 956.575L512.097 857.25L388.872 1038.09L246.428 1325.47L419.273 1420.12L532.088 1151.13L645.72 956.575Z" fill="#D8CF82" stroke="black" stroke-width="19" stroke-miterlimit="1.5" stroke-linecap="round" stroke-linejoin="round"/>
<path fill-rule="evenodd" clip-rule="evenodd" d="M328.409 1366.62C327.378 1368.28 325.191 1368.8 323.527 1367.77C321.863 1366.74 321.35 1364.55 322.381 1362.89L397.014 1239.48L354.855 1184.75C353.401 1182.83 353.281 1180.22 354.54 1178.18C355.799 1176.13 358.178 1175.06 360.547 1175.49L456.316 1192.08L406.426 1132.99C404.641 1130.86 404.28 1127.88 405.506 1125.39C406.733 1122.89 409.316 1121.36 412.092 1121.47L485.53 1124.62L414.482 1041.95C412.887 1040.12 412.567 1037.51 413.671 1035.35C414.776 1033.19 417.082 1031.92 419.494 1032.14L512.133 1041.56L578.875 924.012C579.822 922.3 581.981 921.679 583.694 922.626C585.406 923.574 586.027 925.733 585.08 927.445L519.339 1049.39C518.365 1051.15 516.442 1052.16 514.44 1051.98L433.192 1045.19L506.151 1127.64C507.947 1129.7 508.345 1132.63 507.163 1135.09C505.982 1137.55 503.448 1139.08 500.719 1138.96L427.289 1136.11L478.41 1197.51C480.22 1199.67 480.482 1202.73 479.068 1205.17C477.654 1207.61 474.866 1208.9 472.094 1208.39L373.049 1189.72L407.336 1236.03C408.616 1237.73 408.722 1240.03 407.604 1241.84L328.409 1366.62Z" fill="#E61A1A"/>
<path fill-rule="evenodd" clip-rule="evenodd" d="M1572.65 957.508C1554.3 924.25 1590.59 794.871 1623.85 776.524C1623.85 776.524 1795.49 782.319 1813.68 824.536L2077.37 1302.53C2095.72 1335.79 2083.62 1377.68 2050.36 1396.03L1929.85 1462.51C1896.59 1480.86 1734.88 1496.6 1716.54 1463.34L1572.65 957.508Z" fill="#00A8E4" stroke="black" stroke-width="13.4712" stroke-miterlimit="1.5" stroke-linecap="round" stroke-linejoin="round"/>
<path fill-rule="evenodd" clip-rule="evenodd" d="M1420.15 963.276C1400.08 926.898 1413.32 881.071 1449.7 861L1581.53 788.277C1617.9 768.208 1663.73 781.449 1683.8 817.827L1814.49 1012.05L1940.55 1283.24C1960.62 1319.61 1947.38 1365.44 1911 1385.51L1779.18 1458.23C1742.8 1478.3 1696.97 1465.06 1676.91 1428.69L1574.26 1185.96L1420.15 963.276Z" fill="#00A8E4" stroke="black" stroke-width="13.4765" stroke-miterlimit="1.5" stroke-linecap="round" stroke-linejoin="round"/>
<path fill-rule="evenodd" clip-rule="evenodd" d="M1490.06 933.841L1623.68 834.516L1746.91 1015.36L1889.35 1302.73L1716.51 1397.38L1603.69 1128.4L1490.06 933.841Z" fill="#D8CF82" stroke="black" stroke-width="19" stroke-miterlimit="1.5" stroke-linecap="round" stroke-linejoin="round"/>
<path fill-rule="evenodd" clip-rule="evenodd" d="M1813.4 1340.15C1814.43 1341.82 1813.92 1344 1812.25 1345.03C1810.59 1346.06 1808.4 1345.55 1807.37 1343.89L1728.18 1219.1C1727.06 1217.3 1727.16 1214.99 1728.44 1213.3L1762.73 1166.99L1663.69 1185.66C1660.91 1186.16 1658.13 1184.87 1656.71 1182.44C1655.3 1180 1655.56 1176.94 1657.37 1174.78L1708.49 1113.38L1635.06 1116.23C1632.33 1116.34 1629.8 1114.82 1628.62 1112.35C1627.44 1109.89 1627.83 1106.96 1629.63 1104.9L1702.59 1022.46L1621.34 1029.24C1619.34 1029.43 1617.41 1028.41 1616.44 1026.65L1550.7 904.711C1549.75 902.999 1550.37 900.839 1552.09 899.892C1553.8 898.944 1555.96 899.565 1556.9 901.277L1623.65 1018.83L1716.29 1009.4C1718.7 1009.18 1721 1010.45 1722.11 1012.61C1723.21 1014.77 1722.89 1017.39 1721.3 1019.21L1650.25 1101.89L1723.69 1098.74C1726.46 1098.62 1729.05 1100.16 1730.27 1102.65C1731.5 1105.15 1731.14 1108.13 1729.35 1110.26L1679.46 1169.35L1775.23 1152.76C1777.6 1152.33 1779.98 1153.4 1781.24 1155.44C1782.5 1157.49 1782.38 1160.09 1780.92 1162.01L1738.77 1216.75L1813.4 1340.15Z" fill="#E61A1A"/>
<path fill-rule="evenodd" clip-rule="evenodd" d="M1356.8 1021.61C1356.8 1021.61 1525.22 1227.56 1524.7 1359.24C1523.8 1587.83 1415.96 1824.39 1415.96 1824.39C1513.16 1530.36 1463.27 1254.42 1356.8 1021.61Z" fill="white"/>
<path fill-rule="evenodd" clip-rule="evenodd" d="M1653.97 1947.12C1704.18 1887.23 1810.38 1914.84 1810.38 1914.84C1810.38 1914.84 1858.66 1985.01 1859.54 2050.06L1700.44 2362.25C1640.32 2492.63 1329.47 2518.68 1401.42 2296.8C1483.3 2283.62 1623.13 2064.65 1653.97 1947.12Z" fill="#808080" stroke="black" stroke-width="16.178" stroke-miterlimit="1.5" stroke-linecap="round" stroke-linejoin="round"/>
<path fill-rule="evenodd" clip-rule="evenodd" d="M1579.25 2279.41C1577.64 2282.97 1611.51 2285.01 1633.65 2315.1C1658.44 2348.79 1651.64 2376.83 1651.64 2376.83C1659.35 2355.73 1660.1 2333.7 1657.83 2301.24L1662.4 2247.7L1681.13 2267.83C1693.53 2217.31 1693.4 2179.45 1694.36 2132.45C1689.15 2172.98 1689.26 2206.06 1672.49 2240.14L1656.1 2217.83L1646.08 2306.01C1646.08 2306.01 1580.86 2275.86 1579.25 2279.41Z" fill="white"/>
<path d="M1524.48 2436.04C1474.84 2436.04 1434.6 2405.82 1434.6 2368.55C1434.6 2331.27 1474.84 2301.05 1524.48 2301.05C1574.13 2301.05 1614.37 2331.27 1614.37 2368.55C1614.37 2405.82 1574.13 2436.04 1524.48 2436.04Z" fill="black" fill-opacity="0.5" stroke="black" stroke-width="8.68516" stroke-miterlimit="1.5" stroke-linecap="square" stroke-linejoin="round"/>
<path fill-rule="evenodd" clip-rule="evenodd" d="M1678.71 2386.9C1678.33 2388.12 1677.03 2388.8 1675.81 2388.42C1674.59 2388.04 1673.91 2386.74 1674.29 2385.52C1686.78 2344.05 1696.05 2300.51 1700.88 2253.89C1705.22 2211.98 1705.99 2167.57 1701.75 2119.85C1701.62 2118.21 1702.37 2116.62 1703.73 2115.69C1705.09 2114.76 1706.84 2114.64 1708.32 2115.36L1761.64 2141.51L1798.32 1926.7C1798.52 1925.44 1799.71 1924.58 1800.97 1924.79C1802.23 1924.99 1803.09 1926.18 1802.89 1927.44L1769.39 2148.81C1769.17 2150.19 1768.31 2151.39 1767.06 2152.04C1765.81 2152.69 1764.33 2152.7 1763.07 2152.09L1711.44 2127.04C1714.45 2172.38 1713.19 2214.73 1708.37 2254.73C1702.71 2301.67 1692.2 2345.35 1678.71 2386.9Z" fill="black"/>
<path fill-rule="evenodd" clip-rule="evenodd" d="M513.671 1944.38C460.699 1881.2 350.355 1918.65 350.355 1918.65C350.355 1918.65 308.909 1987.65 308.106 2047.32L453.906 2354.76C514.021 2485.14 846.426 2537.81 774.477 2315.93C692.595 2302.75 544.512 2061.91 513.671 1944.38Z" fill="#808080" stroke="black" stroke-width="16.178" stroke-miterlimit="1.5" stroke-linecap="round" stroke-linejoin="round"/>
<path d="M648.536 2442.4C698.178 2442.4 738.421 2412.18 738.421 2374.91C738.421 2337.63 698.178 2307.41 648.536 2307.41C598.894 2307.41 558.652 2337.63 558.652 2374.91C558.652 2412.18 598.894 2442.4 648.536 2442.4Z" fill="black" fill-opacity="0.5" stroke="black" stroke-width="8.68515" stroke-miterlimit="1.5" stroke-linecap="square" stroke-linejoin="round"/>
<path fill-rule="evenodd" clip-rule="evenodd" d="M483.688 2386.31C484.069 2387.53 483.389 2388.83 482.17 2389.21C480.951 2389.59 479.652 2388.91 479.271 2387.69C465.78 2346.14 455.267 2302.46 449.609 2255.52C444.786 2215.52 443.529 2173.17 446.54 2127.83L394.908 2152.88C393.646 2153.49 392.167 2153.48 390.921 2152.83C389.674 2152.18 388.808 2150.98 388.585 2149.6L355.094 1928.23C354.891 1926.97 355.75 1925.78 357.011 1925.58C358.271 1925.37 359.46 1926.23 359.663 1927.49L396.337 2142.3L449.663 2116.15C451.141 2115.43 452.892 2115.55 454.25 2116.48C455.607 2117.41 456.361 2119 456.226 2120.64C451.987 2168.36 452.758 2212.77 457.1 2254.68C461.93 2301.3 471.203 2344.84 483.688 2386.31Z" fill="black"/>
<path fill-rule="evenodd" clip-rule="evenodd" d="M1622.37 2108.17C1631.01 2105.11 1639.85 2105.2 1647.35 2107.67C1656.23 2110.61 1663.12 2117.01 1666.09 2125.62C1669.05 2134.46 1667.22 2143.98 1661.82 2151.93C1657.13 2158.83 1649.64 2164.45 1640.45 2167.42C1631.18 2170.17 1621.85 2169.76 1614.11 2166.69C1605.2 2163.16 1598.37 2156.32 1595.89 2147.31C1593.55 2138.51 1595.69 2129.32 1601.41 2121.88C1606.24 2115.59 1613.51 2110.53 1622.37 2108.17ZM1623.51 2111.86C1615.95 2114.54 1609.94 2119.43 1606.15 2125.24C1602.19 2131.32 1600.82 2138.47 1603.11 2145.12C1605.27 2151.57 1610.62 2156.09 1617.21 2158.4C1623.3 2160.54 1630.52 2160.72 1637.66 2158.41C1644.87 2156.28 1650.75 2152.04 1654.62 2146.82C1658.79 2141.17 1660.71 2134.39 1658.9 2127.82C1657.1 2121.02 1651.98 2115.88 1645.32 2113.1C1638.95 2110.44 1631.26 2109.8 1623.51 2111.86Z" fill="black"/>
<path fill-rule="evenodd" clip-rule="evenodd" d="M1561.05 2185.56C1570.61 2182.17 1580.38 2182.26 1588.67 2184.97C1598.52 2188.19 1606.15 2195.26 1609.43 2204.78C1612.7 2214.55 1610.66 2225.07 1604.66 2233.86C1599.46 2241.48 1591.17 2247.67 1581.01 2250.96C1570.76 2253.99 1560.45 2253.55 1551.9 2250.19C1542.01 2246.31 1534.44 2238.75 1531.71 2228.8C1529.12 2219.07 1531.5 2208.91 1537.85 2200.68C1543.21 2193.75 1551.25 2188.16 1561.05 2185.56ZM1562.32 2189.64C1553.95 2192.61 1547.29 2198 1543.09 2204.41C1538.69 2211.13 1537.15 2219.02 1539.68 2226.37C1542.07 2233.49 1547.99 2238.48 1555.29 2241.02C1562.04 2243.37 1570.02 2243.55 1577.93 2241C1585.9 2238.64 1592.42 2233.96 1596.71 2228.2C1601.34 2221.96 1603.48 2214.46 1601.48 2207.21C1599.49 2199.7 1593.83 2194.03 1586.45 2190.97C1579.4 2188.05 1570.89 2187.36 1562.32 2189.64Z" fill="black"/>
<path fill-rule="evenodd" clip-rule="evenodd" d="M1667.71 2027.87C1677.59 2023.93 1687.8 2024.07 1695.81 2027.23C1702.59 2029.9 1707.71 2034.85 1710.24 2041.33C1713.33 2049.48 1711.55 2058.6 1706.06 2066.35C1701.63 2072.63 1694.64 2077.9 1686.08 2081.02C1677.43 2083.89 1668.69 2084.09 1661.33 2081.93C1652.22 2079.24 1645.19 2073.18 1642.59 2064.85C1640.58 2058.19 1641.56 2051.12 1645.24 2044.82C1649.58 2037.36 1657.51 2030.92 1667.71 2027.87ZM1669.01 2031.61C1661.98 2034.41 1656.4 2039.01 1652.82 2044.3C1648.99 2049.96 1647.63 2056.48 1649.91 2062.32C1652.06 2067.97 1657.33 2071.57 1663.71 2073.15C1669.49 2074.59 1676.24 2074.28 1682.89 2071.86C1689.61 2069.63 1695.12 2065.67 1698.77 2060.95C1702.81 2055.74 1704.74 2049.62 1702.94 2043.85C1701.13 2037.85 1696.05 2033.57 1689.54 2031.51C1683.48 2029.58 1676.26 2029.44 1669.01 2031.61Z" fill="black"/>
<path fill-rule="evenodd" clip-rule="evenodd" d="M1704.94 1939.37C1715.49 1934.47 1726.75 1934.06 1735.82 1937.1C1743.39 1939.65 1749.36 1944.74 1752.65 1951.63C1756.73 1960.38 1755.54 1970.46 1750.2 1979.28C1745.85 1986.47 1738.58 1992.71 1729.37 1996.64C1720.06 2000.3 1710.42 2000.99 1702.13 1998.97C1692.04 1996.5 1683.93 1990.28 1680.43 1981.36C1677.09 1972.59 1678.61 1962.88 1684.36 1954.67C1688.92 1948.15 1696.01 1942.55 1704.94 1939.37ZM1706.64 1943.53C1699.2 1946.99 1693.51 1952.33 1690.06 1958.3C1686.42 1964.63 1685.53 1971.73 1688.49 1977.91C1691.29 1983.9 1697.31 1987.52 1704.35 1988.91C1710.78 1990.17 1718.13 1989.47 1725.2 1986.46C1732.31 1983.67 1737.95 1979.08 1741.52 1973.74C1745.42 1967.91 1746.98 1961.21 1744.58 1955.09C1742.13 1948.67 1736.31 1944.28 1729.11 1942.36C1722.32 1940.55 1714.4 1940.76 1706.64 1943.53Z" fill="black"/>
<path fill-rule="evenodd" clip-rule="evenodd" d="M1620.49 2121.57C1603.1 2126.95 1599.66 2137.56 1603.25 2147.47C1608.85 2162.95 1624.46 2165.06 1633.26 2163.79C1651.3 2161.19 1665.87 2156.09 1661.07 2140.34C1656.27 2124.59 1637.87 2116.19 1620.49 2121.57Z" fill="black"/>
<path fill-rule="evenodd" clip-rule="evenodd" d="M1558.95 2200.35C1539.7 2206.31 1535.88 2218.03 1539.84 2228.97C1546.03 2246.04 1563.31 2248.36 1573.05 2246.95C1593.02 2244.06 1609.16 2238.41 1603.86 2221.03C1598.57 2203.65 1578.21 2194.4 1558.95 2200.35Z" fill="black"/>
<path fill-rule="evenodd" clip-rule="evenodd" d="M1666.33 2040.99C1649.68 2046.78 1644.65 2052.07 1649.35 2065.68C1654.05 2079.29 1666.14 2084.42 1682.79 2078.62C1699.45 2072.83 1705.85 2061.33 1705.01 2055.15C1703.08 2040.88 1682.98 2035.2 1666.33 2040.99Z" fill="black"/>
<path fill-rule="evenodd" clip-rule="evenodd" d="M1703.99 1954.68C1686.01 1962.04 1682.52 1965.32 1688.81 1979.97C1695.09 1994.62 1703.23 1998.48 1721.21 1991.12C1739.2 1983.76 1747.23 1978.94 1744.35 1968.9C1739.95 1953.62 1721.97 1947.31 1703.99 1954.68Z" fill="black"/>
<path fill-rule="evenodd" clip-rule="evenodd" d="M538.4 2115.18C547.265 2117.53 554.536 2122.6 559.366 2128.89C565.085 2136.33 567.216 2145.52 564.879 2154.32C562.404 2163.33 555.57 2170.17 546.657 2173.7C538.922 2176.76 529.589 2177.17 520.321 2174.43C511.131 2171.46 503.641 2165.84 498.95 2158.93C493.554 2150.99 491.719 2141.47 494.679 2132.63C497.649 2124.01 504.539 2117.61 513.424 2114.68C520.92 2112.21 529.756 2112.12 538.4 2115.18ZM537.26 2118.87C529.508 2116.81 521.818 2117.45 515.448 2120.11C508.787 2122.89 503.674 2128.03 501.87 2134.82C500.064 2141.39 501.979 2148.18 506.155 2153.83C510.017 2159.05 515.904 2163.29 523.111 2165.42C530.251 2167.72 537.47 2167.55 543.565 2165.41C550.153 2163.1 555.505 2158.57 557.665 2152.12C559.956 2145.47 558.582 2138.33 554.621 2132.25C550.83 2126.44 544.824 2121.55 537.26 2118.87Z" fill="black"/>
<path fill-rule="evenodd" clip-rule="evenodd" d="M599.716 2192.57C609.521 2195.17 617.565 2200.76 622.919 2207.69C629.272 2215.92 631.647 2226.08 629.065 2235.81C626.33 2245.76 618.756 2253.32 608.874 2257.2C600.323 2260.56 590.007 2261 579.762 2257.97C569.599 2254.68 561.313 2248.48 556.113 2240.87C550.114 2232.08 548.066 2221.56 551.337 2211.79C554.618 2202.27 562.252 2195.2 572.101 2191.98C580.389 2189.27 590.157 2189.18 599.716 2192.57ZM598.455 2196.64C589.878 2194.37 581.372 2195.06 574.325 2197.98C566.944 2201.04 561.278 2206.71 559.286 2214.21C557.293 2221.47 559.427 2228.97 564.065 2235.2C568.347 2240.97 574.869 2245.64 582.845 2248C590.748 2250.56 598.735 2250.37 605.478 2248.03C612.777 2245.49 618.705 2240.5 621.089 2233.38C623.62 2226.03 622.083 2218.13 617.682 2211.42C613.476 2205.01 606.825 2199.62 598.455 2196.64Z" fill="black"/>
<path fill-rule="evenodd" clip-rule="evenodd" d="M493.063 2034.87C503.257 2037.92 511.19 2044.37 515.534 2051.83C519.207 2058.13 520.188 2065.2 518.179 2071.86C515.58 2080.19 508.548 2086.25 499.441 2088.93C492.083 2091.1 483.343 2090.9 474.693 2088.02C466.128 2084.91 459.143 2079.64 454.706 2073.36C449.219 2065.6 447.439 2056.49 450.53 2048.34C453.057 2041.85 458.186 2036.91 464.959 2034.23C472.969 2031.07 483.177 2030.94 493.063 2034.87ZM491.762 2038.61C484.512 2036.45 477.295 2036.59 471.227 2038.51C464.721 2040.58 459.642 2044.85 457.832 2050.86C456.031 2056.63 457.956 2062.75 461.996 2067.96C465.656 2072.68 471.157 2076.64 477.878 2078.87C484.53 2081.29 491.282 2081.6 497.062 2080.16C503.438 2078.58 508.715 2074.97 510.856 2069.33C513.137 2063.48 511.783 2056.97 507.949 2051.31C504.37 2046.02 498.791 2041.42 491.762 2038.61Z" fill="black"/>
<path fill-rule="evenodd" clip-rule="evenodd" d="M455.833 1946.38C464.763 1949.56 471.849 1955.16 476.413 1961.68C482.162 1969.89 483.682 1979.6 480.34 1988.37C476.839 1997.29 468.731 2003.51 458.64 2005.98C450.355 2008 440.716 2007.3 431.405 2003.64C422.193 1999.71 414.92 1993.48 410.567 1986.28C405.231 1977.47 404.042 1967.39 408.122 1958.64C411.414 1951.75 417.38 1946.66 424.951 1944.11C434.024 1941.06 445.278 1941.48 455.833 1946.38ZM454.13 1950.54C446.369 1947.77 438.454 1947.56 431.666 1949.37C424.466 1951.29 418.643 1955.68 416.195 1962.1C413.793 1968.22 415.35 1974.92 419.254 1980.75C422.821 1986.08 428.463 1990.67 435.572 1993.47C442.641 1996.48 449.996 1997.18 456.424 1995.92C463.464 1994.53 469.486 1990.91 472.283 1984.92C475.239 1978.74 474.356 1971.64 470.708 1965.31C467.266 1959.34 461.572 1954 454.13 1950.54Z" fill="black"/>
<path fill-rule="evenodd" clip-rule="evenodd" d="M540.286 2128.58C557.671 2133.96 561.117 2144.57 557.525 2154.48C551.919 2169.95 536.311 2172.07 527.512 2170.8C509.477 2168.2 494.905 2163.1 499.703 2147.35C504.501 2131.6 522.901 2123.2 540.286 2128.58Z" fill="black"/>
<path fill-rule="evenodd" clip-rule="evenodd" d="M601.817 2207.36C621.07 2213.32 624.896 2225.04 620.931 2235.98C614.74 2253.05 597.463 2255.37 587.72 2253.96C567.75 2251.07 551.613 2245.42 556.908 2228.04C562.202 2210.65 582.565 2201.4 601.817 2207.36Z" fill="black"/>
<path fill-rule="evenodd" clip-rule="evenodd" d="M494.442 2048C511.092 2053.79 516.123 2059.08 511.423 2072.69C506.723 2086.3 494.627 2091.42 477.977 2085.63C461.326 2079.84 454.921 2068.34 455.758 2062.16C457.69 2047.89 477.791 2042.2 494.442 2048Z" fill="black"/>
<path fill-rule="evenodd" clip-rule="evenodd" d="M456.78 1961.69C474.761 1969.05 478.249 1972.33 471.965 1986.98C465.681 2001.63 457.538 2005.49 439.557 1998.13C421.576 1990.76 413.54 1985.95 416.426 1975.91C420.82 1960.63 438.799 1954.32 456.78 1961.69Z" fill="black"/>
<path fill-rule="evenodd" clip-rule="evenodd" d="M361.059 980.761C347.986 1004.55 200.031 1284.99 201.701 1359.24C203.376 1433.7 486.139 1532.98 463.168 1466.66L541.337 1289.89C503.226 1563.65 575.917 1780.41 742.388 1971.14C742.388 1971.14 626.047 1902.55 599.79 1920.58C573.528 1938.6 574.66 2095.44 574.66 2095.44C574.66 2095.44 459.236 2051.35 440.628 2085.9C400.764 2159.92 481.803 2366.04 534.292 2437.99L455.109 2371.12L309.084 2048.15L349.141 1922.66C410.791 1903.08 467.471 1907.44 516.98 1946.37L461.021 1676.88C410.212 1615.01 301.467 1508.33 301.467 1508.33C301.467 1508.33 261.952 1508.76 233.5 1495.64C167.046 1464.98 74.7283 1401.05 69.1653 1376.66C63.1444 1319.07 99.7265 1270.01 133.921 1220.47L321.649 877.336C299.881 959.113 320.704 970.421 361.059 980.761Z" fill="black" fill-opacity="0.25"/>
</svg>
