<svg width="2160" height="2700" viewBox="0 0 2160 2700" fill="none" xmlns="http://www.w3.org/2000/svg">
<g clip-path="url(#clip0_1502_5313)">
<path d="M1736.4 512.2C1749.2 514.644 1757.66 526.639 1755.3 538.991C1752.94 551.344 1740.66 559.376 1727.86 556.933C1715.06 554.489 1706.6 542.494 1708.95 530.142C1711.31 517.789 1723.6 509.757 1736.4 512.2Z" fill="#1D9A6C"/>
<path fill-rule="evenodd" clip-rule="evenodd" d="M1727.78 557.348C1721.24 556.295 1715.74 552.778 1712.07 547.972C1708.24 542.937 1706.46 536.484 1707.54 529.872C1708.67 523.139 1712.57 517.539 1717.93 513.952C1723.22 510.413 1729.93 508.886 1736.8 510.082C1743.69 511.402 1749.47 515.234 1753.15 520.464C1756.91 525.808 1758.48 532.561 1757.05 539.324C1755.55 545.937 1751.47 551.341 1745.95 554.597C1740.72 557.683 1734.26 558.861 1727.78 557.348ZM1727.94 556.516C1734.1 557.435 1740.03 555.882 1744.69 552.639C1749.31 549.434 1752.64 544.533 1753.56 538.658C1754.53 532.936 1752.92 527.384 1749.67 522.965C1746.51 518.66 1741.75 515.413 1735.99 514.319C1730.22 513.117 1724.52 514.263 1719.94 517.077C1715.19 519.99 1711.61 524.651 1710.37 530.412C1709.08 536.293 1710.43 542.152 1713.62 546.862C1716.82 551.586 1721.83 555.165 1727.94 556.516Z" fill="white"/>
<path d="M1742.36 541.995C1746.84 541.995 1750.47 538.056 1750.47 533.197C1750.47 528.337 1746.84 524.398 1742.36 524.398C1737.88 524.398 1734.25 528.337 1734.25 533.197C1734.25 538.056 1737.88 541.995 1742.36 541.995Z" fill="white"/>
<path fill-rule="evenodd" clip-rule="evenodd" d="M1753.22 544.836C1737.26 571.293 1699.84 551.975 1710.51 525.81C1710.51 525.81 1709.12 544.099 1725.61 551.031C1738.16 556.311 1753.22 544.836 1753.22 544.836Z" fill="black" fill-opacity="0.2"/>
<path d="M1742.23 525.208C1743.98 525.992 1745.93 525.437 1746.59 523.969C1747.25 522.501 1746.36 520.675 1744.61 519.891C1742.86 519.107 1740.91 519.662 1740.25 521.13C1739.59 522.599 1740.48 524.425 1742.23 525.208Z" fill="white"/>
<path d="M1736.39 522.913C1737.35 523.34 1738.45 522.946 1738.86 522.033C1739.27 521.119 1738.83 520.033 1737.88 519.606C1736.92 519.179 1735.82 519.573 1735.41 520.487C1735 521.4 1735.44 522.486 1736.39 522.913Z" fill="white"/>
<path d="M1743.61 537.075C1743.19 537.091 1742.79 537.038 1742.4 536.918C1742.01 536.798 1741.65 536.59 1741.33 536.295C1741.01 536 1740.75 535.602 1740.55 535.101C1740.35 534.6 1740.24 533.979 1740.21 533.239C1740.18 532.559 1740.23 531.948 1740.36 531.406C1740.49 530.862 1740.69 530.396 1740.96 530.01C1741.24 529.623 1741.57 529.323 1741.97 529.111C1742.36 528.896 1742.81 528.778 1743.31 528.756C1743.85 528.732 1744.33 528.817 1744.75 529.01C1745.18 529.2 1745.52 529.469 1745.79 529.817C1746.06 530.164 1746.23 530.56 1746.3 531.003L1744.61 531.076C1744.53 530.797 1744.38 530.581 1744.17 530.43C1743.95 530.278 1743.68 530.209 1743.37 530.222C1742.85 530.245 1742.46 530.492 1742.2 530.962C1741.95 531.432 1741.84 532.062 1741.87 532.85L1741.92 532.847C1742.03 532.602 1742.19 532.391 1742.39 532.214C1742.59 532.033 1742.82 531.893 1743.08 531.792C1743.34 531.688 1743.62 531.63 1743.91 531.617C1744.39 531.596 1744.82 531.691 1745.21 531.901C1745.59 532.109 1745.9 532.405 1746.13 532.788C1746.37 533.171 1746.49 533.616 1746.52 534.122C1746.54 534.67 1746.43 535.163 1746.2 535.601C1745.96 536.039 1745.62 536.389 1745.18 536.651C1744.73 536.911 1744.21 537.052 1743.61 537.075ZM1743.54 535.732C1743.81 535.72 1744.04 535.647 1744.24 535.511C1744.45 535.376 1744.6 535.197 1744.71 534.976C1744.82 534.755 1744.87 534.51 1744.86 534.241C1744.85 533.972 1744.78 533.734 1744.65 533.526C1744.52 533.317 1744.36 533.154 1744.14 533.036C1743.93 532.919 1743.7 532.866 1743.43 532.877C1743.24 532.886 1743.05 532.931 1742.89 533.012C1742.73 533.093 1742.58 533.202 1742.46 533.339C1742.34 533.476 1742.25 533.633 1742.19 533.81C1742.13 533.984 1742.1 534.169 1742.11 534.364C1742.12 534.625 1742.19 534.861 1742.32 535.072C1742.45 535.283 1742.62 535.448 1742.83 535.569C1743.04 535.689 1743.28 535.743 1743.54 535.732Z" fill="black"/>
<path d="M685.686 2541.47C704.593 2545.08 717.096 2562.8 713.612 2581.05C710.128 2599.29 691.976 2611.16 673.07 2607.55C654.163 2603.94 641.66 2586.22 645.144 2567.97C648.628 2549.73 666.78 2537.86 685.686 2541.47Z" fill="#AB0307"/>
<path fill-rule="evenodd" clip-rule="evenodd" d="M672.991 2607.97C663.434 2606.33 655.416 2601.13 650.12 2594.05C644.613 2586.69 642.079 2577.29 643.73 2567.7C645.429 2557.99 651.116 2549.93 658.889 2544.8C666.534 2539.76 676.204 2537.58 686.092 2539.35C695.995 2541.25 704.291 2546.77 709.604 2554.27C715.035 2561.94 717.354 2571.64 715.355 2581.38C713.297 2590.97 707.42 2598.83 699.494 2603.63C691.91 2608.23 682.492 2610.05 672.991 2607.97ZM673.15 2607.13C682.329 2608.63 691.217 2606.43 698.239 2601.67C705.262 2596.92 710.387 2589.57 711.87 2580.71C713.408 2572.01 711.046 2563.52 706.125 2556.78C701.325 2550.2 694.056 2545.26 685.283 2543.59C676.491 2541.81 667.837 2543.61 660.893 2547.93C653.735 2552.39 648.369 2559.5 646.56 2568.24C644.701 2577.1 646.805 2585.9 651.666 2592.94C656.498 2599.94 664.027 2605.21 673.15 2607.13Z" fill="white"/>
<path d="M694.489 2585.48C701.104 2585.48 706.466 2579.66 706.466 2572.49C706.466 2565.31 701.104 2559.49 694.489 2559.49C687.874 2559.49 682.512 2565.31 682.512 2572.49C682.512 2579.66 687.874 2585.48 694.489 2585.48Z" fill="white"/>
<path fill-rule="evenodd" clip-rule="evenodd" d="M710.536 2589.68C686.955 2628.76 631.676 2600.23 647.441 2561.57C647.441 2561.57 645.389 2588.59 669.744 2598.83C688.293 2606.63 710.536 2589.68 710.536 2589.68Z" fill="black" fill-opacity="0.2"/>
<path d="M694.3 2560.69C696.886 2561.84 699.77 2561.02 700.741 2558.86C701.712 2556.69 700.403 2553.99 697.816 2552.83C695.23 2551.67 692.346 2552.49 691.375 2554.66C690.403 2556.83 691.713 2559.53 694.3 2560.69Z" fill="white"/>
<path d="M685.68 2557.29C687.089 2557.93 688.721 2557.34 689.325 2555.99C689.929 2554.65 689.276 2553.04 687.867 2552.41C686.458 2551.78 684.827 2552.36 684.223 2553.71C683.619 2555.06 684.271 2556.66 685.68 2557.29Z" fill="white"/>
<path d="M692.208 2577.98L696.741 2567.96L696.738 2567.87L690.963 2568.12L690.873 2566.06L699.264 2565.69L699.355 2567.79L694.818 2577.87L692.208 2577.98Z" fill="black"/>
<path d="M516.57 572.435C527.92 574.602 535.425 585.238 533.334 596.192C531.242 607.146 520.346 614.27 508.996 612.103C497.646 609.935 490.141 599.299 492.232 588.345C494.324 577.391 505.22 570.268 516.57 572.435Z" fill="#C7BD10"/>
<path fill-rule="evenodd" clip-rule="evenodd" d="M508.915 612.518C503.089 611.602 498.184 608.485 494.908 604.22C491.467 599.737 489.872 593.981 490.815 588.074C491.806 582.048 495.293 577.032 500.08 573.81C504.806 570.63 510.816 569.258 516.973 570.316C523.143 571.5 528.332 574.929 531.621 579.621C534.98 584.413 536.375 590.469 535.074 596.525C533.713 602.431 530.053 607.255 525.107 610.142C520.436 612.869 514.684 613.896 508.915 612.518ZM509.074 611.686C514.522 612.47 519.743 611.068 523.852 608.184C527.894 605.347 530.804 601.027 531.589 595.859C532.429 590.844 530.992 585.99 528.142 582.122C525.366 578.356 521.204 575.511 516.164 574.553C511.103 573.489 506.11 574.479 502.085 576.936C497.913 579.483 494.746 583.559 493.645 588.615C492.494 593.79 493.659 598.952 496.453 603.11C499.265 607.293 503.681 610.472 509.074 611.686Z" fill="white"/>
<path d="M506.073 598.976C510.044 598.976 513.263 595.483 513.263 591.174C513.263 586.865 510.044 583.372 506.073 583.372C502.102 583.372 498.883 586.865 498.883 591.174C498.883 595.483 502.102 598.976 506.073 598.976Z" fill="white"/>
<path fill-rule="evenodd" clip-rule="evenodd" d="M531.486 601.376C517.33 624.837 484.145 607.706 493.609 584.503C493.609 584.503 492.377 600.722 506.998 606.869C518.133 611.551 531.486 601.376 531.486 601.376Z" fill="black" fill-opacity="0.2"/>
<path d="M521.736 583.969C523.288 584.664 525.02 584.172 525.603 582.87C526.186 581.568 525.399 579.949 523.847 579.254C522.294 578.559 520.563 579.051 519.98 580.353C519.397 581.655 520.183 583.274 521.736 583.969Z" fill="white"/>
<path d="M516.562 581.934C517.408 582.312 518.387 581.963 518.75 581.153C519.112 580.343 518.721 579.38 517.875 579.001C517.029 578.622 516.05 578.972 515.687 579.782C515.325 580.592 515.716 581.555 516.562 581.934Z" fill="white"/>
<path d="M507.249 587.566L507.559 594.745L506.041 594.811L505.793 589.073L505.751 589.075L504.152 590.176L504.093 588.83L505.822 587.628L507.249 587.566Z" fill="black"/>
<path d="M272.778 1035.89C297.144 1040.54 313.256 1063.37 308.766 1086.89C304.276 1110.4 280.884 1125.69 256.519 1121.04C232.154 1116.39 216.042 1093.56 220.532 1070.04C225.022 1046.52 248.413 1031.23 272.778 1035.89Z" fill="#FF7418"/>
<path fill-rule="evenodd" clip-rule="evenodd" d="M256.439 1121.46C244.187 1119.31 233.921 1112.6 227.166 1103.48C220.165 1094.04 216.955 1082.02 219.116 1069.77C221.324 1057.4 228.602 1047.14 238.532 1040.63C248.285 1034.23 260.598 1031.48 273.182 1033.77C285.781 1036.18 296.321 1043.21 303.097 1052.75C310.023 1062.5 313.012 1074.81 310.507 1087.22C307.943 1099.47 300.47 1109.52 290.39 1115.71C280.699 1121.66 268.635 1124.06 256.439 1121.46ZM256.598 1120.62C268.473 1122.63 280.007 1119.86 289.133 1113.75C298.311 1107.61 305.034 1098.07 307.023 1086.55C309.068 1075.19 306.035 1064.07 299.618 1055.25C293.356 1046.64 283.842 1040.19 272.373 1038C260.887 1035.71 249.588 1038.08 240.537 1043.76C231.221 1049.59 224.266 1058.91 221.946 1070.31C219.577 1081.83 222.357 1093.26 228.71 1102.37C235.003 1111.4 244.779 1118.18 256.598 1120.62Z" fill="white"/>
<path d="M267.617 1098.91C272.621 1105.81 282.749 1107 290.237 1101.57C297.726 1096.14 299.74 1086.14 294.736 1079.24C289.732 1072.34 279.605 1071.15 272.116 1076.58C264.628 1082.01 262.613 1092 267.617 1098.91Z" fill="white"/>
<path fill-rule="evenodd" clip-rule="evenodd" d="M304.432 1097.67C276.759 1141.72 208.753 1117.51 223.339 1060.69C223.339 1060.69 221.355 1096.28 252.413 1109.34C276.068 1119.28 304.432 1097.67 304.432 1097.67Z" fill="black" fill-opacity="0.2"/>
<path d="M276.376 1095.15C275.714 1094.32 275.278 1093.45 275.067 1092.56C274.858 1091.66 274.873 1090.81 275.109 1090C275.345 1089.2 275.805 1088.51 276.489 1087.94L278.455 1090.42C278.009 1090.82 277.785 1091.31 277.784 1091.91C277.783 1092.51 277.983 1093.06 278.382 1093.56C278.7 1093.96 279.07 1094.25 279.49 1094.41C279.918 1094.58 280.359 1094.62 280.815 1094.54C281.278 1094.46 281.718 1094.26 282.135 1093.93C282.56 1093.59 282.862 1093.21 283.041 1092.77C283.223 1092.34 283.28 1091.89 283.211 1091.43C283.143 1090.97 282.95 1090.54 282.632 1090.13C282.351 1089.78 282.005 1089.49 281.595 1089.27C281.187 1089.06 280.784 1088.96 280.385 1088.97L278.99 1086.38L285.818 1081.89L291.678 1089.28L289.589 1090.94L285.4 1085.66L282.124 1087.75L282.181 1087.82C282.648 1087.79 283.15 1087.92 283.687 1088.19C284.224 1088.46 284.703 1088.86 285.124 1089.4C285.702 1090.12 286.045 1090.91 286.156 1091.75C286.266 1092.59 286.153 1093.42 285.817 1094.22C285.485 1095.02 284.93 1095.73 284.152 1096.34C283.341 1096.99 282.467 1097.37 281.531 1097.49C280.602 1097.62 279.687 1097.48 278.785 1097.09C277.89 1096.69 277.087 1096.05 276.376 1095.15Z" fill="black"/>
<path d="M283.875 1060.65C287.208 1062.14 290.925 1061.08 292.176 1058.29C293.428 1055.49 291.74 1052.02 288.407 1050.53C285.073 1049.03 281.357 1050.09 280.105 1052.88C278.854 1055.68 280.542 1059.16 283.875 1060.65Z" fill="white"/>
<path d="M272.77 1056.28C274.585 1057.09 276.688 1056.34 277.466 1054.6C278.244 1052.86 277.404 1050.79 275.588 1049.98C273.773 1049.17 271.67 1049.92 270.892 1051.66C270.113 1053.4 270.954 1055.46 272.77 1056.28Z" fill="white"/>
<path fill-rule="evenodd" clip-rule="evenodd" d="M1052.7 176.484C1038.72 178.66 1027.06 189.035 1024.34 203.28C1022.02 215.441 1026.8 227.379 1035.83 235.074L1052.7 176.484Z" fill="white"/>
<path fill-rule="evenodd" clip-rule="evenodd" d="M1053.11 176.601C1053.11 176.601 1049.38 191.382 1045.55 206.149C1041.71 220.91 1037.78 235.636 1037.78 235.636C1037.59 236.3 1037.07 236.821 1036.41 237.02C1035.75 237.22 1035.03 237.069 1034.51 236.621C1029.64 232.551 1025.85 227.343 1023.71 221.479C1021.6 215.697 1021.11 209.31 1022.42 202.913C1024.08 195.501 1027.96 189.125 1033.37 184.445C1038.68 179.845 1045.4 176.881 1052.63 176.066C1052.78 176.044 1052.92 176.095 1053.02 176.204C1053.11 176.312 1053.15 176.462 1053.11 176.601ZM1052.07 177.048C1045.55 178.486 1039.7 181.772 1035.14 186.349C1030.57 190.936 1027.34 196.852 1026.26 203.646C1025.26 209.31 1025.97 214.876 1027.85 219.96C1029.4 224.158 1031.76 228.048 1034.86 231.331C1036.43 226.254 1039.68 215.825 1042.98 205.409C1047 192.725 1051.09 180.076 1052.07 177.048Z" fill="black"/>
<path fill-rule="evenodd" clip-rule="evenodd" d="M1067.06 242.715C1079.94 239.777 1090.43 229.797 1092.99 216.386C1095.15 205.068 1091.16 193.944 1083.32 186.252L1067.06 242.715Z" fill="white"/>
<path fill-rule="evenodd" clip-rule="evenodd" d="M1066.65 242.598C1066.65 242.598 1070.22 228.348 1073.89 214.11C1077.57 199.879 1081.35 185.684 1081.35 185.684C1081.55 184.991 1082.1 184.453 1082.8 184.269C1083.49 184.086 1084.24 184.283 1084.75 184.788C1089 188.873 1092.26 193.882 1094.05 199.427C1095.8 204.873 1096.13 210.809 1094.9 216.751C1093.33 223.71 1089.8 229.752 1084.88 234.321C1080.02 238.834 1073.86 241.909 1067.15 243.128C1067.01 243.162 1066.85 243.115 1066.75 243.006C1066.65 242.897 1066.61 242.742 1066.65 242.598ZM1067.71 242.088C1073.66 240.303 1078.94 236.95 1083.05 232.493C1087.17 228.02 1090.07 222.407 1091.07 216.021C1092 210.756 1091.44 205.578 1089.86 200.79C1088.61 196.996 1086.71 193.43 1084.2 190.305C1082.64 195.337 1079.59 205.103 1076.48 214.857C1072.63 226.958 1068.71 239.022 1067.71 242.088Z" fill="black"/>
<path fill-rule="evenodd" clip-rule="evenodd" d="M1035.83 235.075L1052.7 176.485C1056.66 175.868 1060.81 175.91 1064.99 176.708C1072.21 178.086 1078.49 181.519 1083.32 186.252L1067.06 242.715C1062.38 243.782 1057.39 243.92 1052.34 242.956C1046 241.746 1040.37 238.949 1035.83 235.075Z" fill="#FF7418"/>
<path d="M1072.61 211.953C1075.5 205.986 1072.6 198.603 1066.13 195.463C1059.65 192.323 1052.06 194.615 1049.16 200.582C1046.27 206.549 1049.17 213.931 1055.65 217.072C1062.12 220.212 1069.72 217.92 1072.61 211.953Z" fill="white"/>
<path d="M1054.24 207.231L1065.92 210.006L1065.33 212.474L1056 210.256L1055.99 210.325L1057.03 213.397L1054.84 212.877L1053.69 209.551L1054.24 207.231ZM1067.77 202.953C1067.56 203.805 1067.24 204.528 1066.79 205.124C1066.33 205.714 1065.8 206.14 1065.19 206.401C1064.58 206.658 1063.94 206.711 1063.25 206.56L1063.84 204.075C1064.13 204.127 1064.4 204.094 1064.66 203.974C1064.92 203.85 1065.14 203.658 1065.32 203.397C1065.51 203.136 1065.65 202.825 1065.73 202.464C1065.82 202.088 1065.83 201.739 1065.77 201.419C1065.7 201.098 1065.57 200.828 1065.38 200.609C1065.18 200.39 1064.93 200.243 1064.62 200.17C1064.31 200.096 1064.01 200.118 1063.73 200.236C1063.45 200.349 1063.2 200.551 1062.99 200.841C1062.77 201.128 1062.61 201.492 1062.51 201.933L1062.25 203.022L1060.44 202.591L1060.7 201.502C1060.78 201.13 1060.8 200.785 1060.74 200.47C1060.68 200.15 1060.55 199.883 1060.36 199.67C1060.17 199.455 1059.92 199.311 1059.61 199.238C1059.32 199.168 1059.04 199.178 1058.79 199.266C1058.53 199.349 1058.31 199.502 1058.13 199.723C1057.94 199.94 1057.81 200.214 1057.73 200.544C1057.65 200.879 1057.64 201.199 1057.7 201.506C1057.75 201.811 1057.86 202.074 1058.04 202.293C1058.23 202.513 1058.46 202.664 1058.76 202.745L1058.19 205.111C1057.52 204.94 1056.98 204.607 1056.55 204.113C1056.13 203.618 1055.85 203.021 1055.71 202.322C1055.57 201.618 1055.59 200.866 1055.78 200.068C1055.97 199.263 1056.28 198.592 1056.72 198.058C1057.16 197.523 1057.66 197.147 1058.24 196.931C1058.82 196.71 1059.41 196.675 1060.02 196.825C1060.68 196.977 1061.18 197.31 1061.52 197.824C1061.86 198.335 1062.01 198.931 1061.97 199.612L1062.06 199.634C1062.38 198.801 1062.83 198.219 1063.42 197.886C1064.01 197.548 1064.67 197.468 1065.4 197.644C1066.06 197.798 1066.61 198.131 1067.03 198.641C1067.46 199.148 1067.74 199.775 1067.87 200.522C1068.01 201.269 1067.97 202.079 1067.77 202.953Z" fill="black"/>
<path fill-rule="evenodd" clip-rule="evenodd" d="M1089.75 226.239C1067.96 260.926 1014.41 241.866 1025.89 197.116C1025.89 197.116 1024.33 225.145 1048.79 235.428C1067.42 243.26 1089.75 226.239 1089.75 226.239Z" fill="black" fill-opacity="0.2"/>
<path d="M1072.92 195.542C1075.46 196.677 1078.28 195.873 1079.23 193.747C1080.19 191.621 1078.9 188.978 1076.37 187.843C1073.83 186.708 1071.01 187.511 1070.05 189.637C1069.1 191.763 1070.39 194.407 1072.92 195.542Z" fill="white"/>
<path d="M1064.47 192.218C1065.85 192.836 1067.45 192.265 1068.05 190.943C1068.64 189.621 1068 188.048 1066.62 187.43C1065.24 186.812 1063.64 187.382 1063.05 188.705C1062.45 190.027 1063.09 191.6 1064.47 192.218Z" fill="white"/>
<path fill-rule="evenodd" clip-rule="evenodd" d="M1323.92 566.869C1324.22 556.588 1318.35 546.879 1308.53 543.046C1300.14 539.774 1290.97 541.604 1284.28 547.041L1301.78 560.767L1323.92 566.869Z" fill="white"/>
<path fill-rule="evenodd" clip-rule="evenodd" d="M1323.81 567.277L1301.42 562.076C1301.25 562.028 1301.09 561.946 1300.95 561.836L1283.01 548.65C1282.52 548.267 1282.24 547.68 1282.23 547.059C1282.23 546.437 1282.5 545.846 1282.99 545.454C1286.61 542.437 1290.93 540.349 1295.5 539.59C1300.01 538.841 1304.75 539.38 1309.23 541.235C1314.38 543.502 1318.47 547.206 1321.09 551.807C1323.64 556.296 1324.81 561.551 1324.35 566.881C1324.34 567.011 1324.28 567.132 1324.17 567.209C1324.07 567.287 1323.94 567.312 1323.81 567.277ZM1323.48 566.282C1323.23 561.497 1321.59 556.981 1318.9 553.197C1316.23 549.428 1312.47 546.444 1307.82 544.858C1303.99 543.452 1300.02 543.273 1296.24 543.932C1293.2 544.461 1290.26 545.537 1287.63 547.178L1302.45 559.556L1323.48 566.282Z" fill="black"/>
<path fill-rule="evenodd" clip-rule="evenodd" d="M1274.68 568.354C1275.07 577.953 1280.81 586.77 1290.06 590.379C1297.86 593.424 1306.34 592.05 1312.88 587.462C1299.14 583.804 1286.32 577.669 1274.68 568.354Z" fill="white"/>
<path fill-rule="evenodd" clip-rule="evenodd" d="M1274.94 568.023C1280.84 572.345 1287 575.836 1293.37 578.71C1299.84 581.628 1306.51 583.879 1313.41 585.478C1314.18 585.682 1314.77 586.317 1314.9 587.103C1315.04 587.89 1314.72 588.685 1314.06 589.144C1310.51 591.702 1306.41 593.433 1302.12 593.98C1297.9 594.518 1293.52 593.918 1289.35 592.187C1284.53 590.045 1280.62 586.645 1278.02 582.406C1275.47 578.251 1274.15 573.381 1274.25 568.371C1274.24 568.206 1274.33 568.051 1274.48 567.976C1274.63 567.902 1274.81 567.92 1274.94 568.023ZM1275.23 569.393C1275.85 573.65 1277.58 577.607 1280.15 580.939C1282.8 584.379 1286.4 587.091 1290.76 588.57C1294.32 589.87 1298 590.101 1301.54 589.615C1303.66 589.325 1305.74 588.773 1307.71 587.947C1302.36 586.095 1297.16 583.858 1292.17 581.131C1286.23 577.89 1280.59 573.984 1275.23 569.393Z" fill="black"/>
<path fill-rule="evenodd" clip-rule="evenodd" d="M1284.28 547.041C1297.05 555.849 1309.97 562.332 1323.92 566.869C1323.84 569.781 1323.26 572.74 1322.13 575.624C1320.19 580.599 1316.9 584.639 1312.88 587.461C1298.92 583.625 1286.24 577.136 1274.67 568.353C1274.53 564.869 1275.09 561.279 1276.45 557.8C1278.16 553.427 1280.9 549.777 1284.28 547.041Z" fill="#AB0307"/>
<path d="M1314.31 557.281C1315.68 557.893 1317.2 557.46 1317.72 556.313C1318.23 555.167 1317.54 553.742 1316.17 553.13C1314.8 552.518 1313.28 552.951 1312.77 554.097C1312.25 555.243 1312.95 556.669 1314.31 557.281Z" fill="white"/>
<path d="M1309.76 555.489C1310.5 555.822 1311.37 555.515 1311.68 554.802C1312 554.089 1311.66 553.241 1310.91 552.907C1310.17 552.574 1309.31 552.882 1308.99 553.595C1308.67 554.308 1309.01 555.156 1309.76 555.489Z" fill="white"/>
<path d="M1302.27 578.88C1306.15 581.74 1311.82 580.643 1314.92 576.431C1318.02 572.219 1317.39 566.486 1313.51 563.626C1309.63 560.766 1303.96 561.863 1300.86 566.075C1297.76 570.288 1298.39 576.021 1302.27 578.88Z" fill="white"/>
<path d="M1307.68 566.692L1304.15 574.671L1302.46 573.924L1305.28 567.547L1305.24 567.526L1302.9 567.863L1303.56 566.367L1306.09 565.991L1307.68 566.692ZM1308.91 576.909C1308.36 576.665 1307.91 576.347 1307.57 575.953C1307.23 575.561 1307.02 575.131 1306.92 574.664C1306.83 574.197 1306.88 573.731 1307.07 573.267L1308.71 573.991C1308.59 574.308 1308.61 574.616 1308.76 574.915C1308.92 575.214 1309.16 575.437 1309.5 575.584C1309.76 575.702 1310.02 575.747 1310.27 575.719C1310.53 575.691 1310.77 575.597 1310.97 575.437C1311.18 575.276 1311.35 575.057 1311.47 574.782C1311.6 574.501 1311.65 574.228 1311.62 573.962C1311.6 573.698 1311.51 573.46 1311.35 573.248C1311.2 573.037 1310.99 572.871 1310.72 572.75C1310.49 572.646 1310.24 572.594 1309.98 572.592C1309.72 572.592 1309.49 572.647 1309.29 572.76L1307.91 571.827L1310.15 567.787L1315.03 569.946L1314.42 571.325L1310.93 569.781L1309.84 571.689L1309.89 571.709C1310.12 571.574 1310.4 571.504 1310.74 571.499C1311.08 571.495 1311.43 571.57 1311.78 571.725C1312.26 571.938 1312.64 572.241 1312.91 572.633C1313.19 573.026 1313.35 573.468 1313.39 573.959C1313.44 574.448 1313.34 574.948 1313.12 575.458C1312.88 575.997 1312.54 576.42 1312.11 576.726C1311.67 577.031 1311.18 577.204 1310.62 577.244C1310.07 577.283 1309.5 577.171 1308.91 576.909Z" fill="black"/>
<path fill-rule="evenodd" clip-rule="evenodd" d="M1320.58 579.898C1305.35 604.138 1267.93 590.818 1275.95 559.546C1275.95 559.546 1274.86 579.133 1291.96 586.32C1304.97 591.793 1320.58 579.898 1320.58 579.898Z" fill="black" fill-opacity="0.2"/>
<path fill-rule="evenodd" clip-rule="evenodd" d="M2011.34 2006.61C1999.4 1999.44 1984.05 1999.93 1973.01 2008.99C1963.58 2016.72 1959.66 2028.75 1961.64 2040.26L1989.46 2028.7L2011.34 2006.61Z" fill="white"/>
<path fill-rule="evenodd" clip-rule="evenodd" d="M2011.64 2006.91L1990.42 2029.66C1990.29 2029.78 1990.14 2029.88 1989.98 2029.95L1962.42 2042.15C1961.85 2042.39 1961.2 2042.36 1960.65 2042.05C1960.11 2041.76 1959.73 2041.22 1959.62 2040.61C1958.51 2034.45 1958.93 2028.12 1961.02 2022.34C1963.08 2016.63 1966.74 2011.49 1971.77 2007.48C1977.71 2002.93 1984.66 2000.55 1991.7 2000.43C1998.63 2000.3 2005.57 2002.3 2011.56 2006.25C2011.67 2006.32 2011.74 2006.43 2011.76 2006.56C2011.78 2006.69 2011.73 2006.82 2011.64 2006.91ZM2010.62 2006.71C2004.76 2003.64 1998.22 2002.42 1991.85 2003.01C1985.5 2003.6 1979.33 2006.04 1974.24 2010.49C1969.92 2014.14 1966.95 2018.79 1965.17 2023.82C1963.63 2028.15 1962.98 2032.78 1963.35 2037.41L1988.71 2027.53L2010.62 2006.71Z" fill="black"/>
<path fill-rule="evenodd" clip-rule="evenodd" d="M1980.43 2065.73C1992.02 2071.64 2006.24 2070.7 2016.64 2062.18C2025.41 2054.99 2029.41 2044.06 2028.33 2033.3C2014.9 2047.1 1999.15 2058.17 1980.43 2065.73Z" fill="white"/>
<path fill-rule="evenodd" clip-rule="evenodd" d="M1980.27 2065.34C1989.35 2061.33 1997.64 2056.47 2005.33 2050.93C2013.14 2045.29 2020.31 2038.93 2026.86 2031.87C2027.41 2031.3 2028.25 2031.1 2029.01 2031.36C2029.76 2031.63 2030.29 2032.3 2030.37 2033.1C2031.01 2038.87 2030.31 2044.72 2028.16 2050.04C2026.05 2055.27 2022.55 2059.96 2017.87 2063.68C2012.29 2067.95 2005.81 2070.3 1999.2 2070.65C1992.68 2070.99 1986.08 2069.43 1980.24 2066.11C1980.09 2066.04 1980 2065.88 1980.01 2065.72C1980.02 2065.55 1980.12 2065.4 1980.27 2065.34ZM1981.56 2065.77C1987.12 2068.09 1993.13 2068.84 1998.96 2068.07C2004.9 2067.29 2010.63 2064.87 2015.4 2060.68C2019.42 2057.28 2022.25 2053.02 2024.07 2048.41C2025.39 2045.09 2026.18 2041.57 2026.37 2038C2020.3 2043.6 2013.83 2048.7 2006.85 2053.16C1999.04 2058.16 1990.63 2062.36 1981.56 2065.77Z" fill="black"/>
<path fill-rule="evenodd" clip-rule="evenodd" d="M1961.64 2040.27C1980.51 2031.03 1996.73 2020.07 2011.34 2006.61C2014.72 2008.64 2017.83 2011.29 2020.49 2014.53C2025.07 2020.12 2027.66 2026.68 2028.33 2033.3C2014.54 2047.25 1998.47 2057.91 1980.43 2065.74C1976.22 2063.59 1972.36 2060.55 1969.15 2056.64C1965.12 2051.72 1962.63 2046.06 1961.64 2040.27Z" fill="#1D9A6C"/>
<path d="M2007.63 2018.75C2009.7 2019.68 2012 2019.03 2012.78 2017.29C2013.56 2015.56 2012.51 2013.4 2010.44 2012.47C2008.37 2011.55 2006.07 2012.2 2005.29 2013.94C2004.51 2015.67 2005.56 2017.83 2007.63 2018.75Z" fill="white"/>
<path d="M2000.74 2016.04C2001.86 2016.55 2003.17 2016.08 2003.65 2015C2004.13 2013.92 2003.61 2012.64 2002.49 2012.14C2001.36 2011.63 2000.05 2012.1 1999.57 2013.18C1999.09 2014.25 1999.61 2015.54 2000.74 2016.04Z" fill="white"/>
<path d="M2013.4 2042.86C2019.35 2040.18 2021.81 2032.77 2018.9 2026.31C2015.99 2019.85 2008.8 2016.8 2002.85 2019.48C1996.9 2022.17 1994.44 2029.58 1997.35 2036.04C2000.27 2042.49 2007.45 2045.55 2013.4 2042.86Z" fill="white"/>
<path d="M2002.45 2028.2L2009.53 2037.66L2007.53 2039.15L2001.87 2031.59L2001.82 2031.63L2000.67 2034.61L1999.34 2032.84L2000.57 2029.6L2002.45 2028.2ZM2010.39 2034.42L2009.21 2032.85L2008.51 2023.67L2009.87 2022.65L2011.5 2024.83L2010.69 2025.43L2011.15 2031.24L2011.21 2031.31L2016.82 2027.11L2018.02 2028.72L2010.39 2034.42ZM2016.17 2032.69L2014.57 2030.54L2014.09 2029.82L2009.14 2023.2L2011.01 2021.8L2018.09 2031.26L2016.17 2032.69Z" fill="black"/>
<path fill-rule="evenodd" clip-rule="evenodd" d="M1779.44 165.524C1730.03 244.166 1608.62 200.954 1634.66 99.5C1634.66 99.5 1631.12 163.044 1686.57 186.359C1728.8 204.115 1779.44 165.524 1779.44 165.524Z" fill="black" fill-opacity="0.2"/>
<path fill-rule="evenodd" clip-rule="evenodd" d="M1523.7 2048.19C1474.26 2066.58 1414.89 2035.06 1410.71 1986.92C1409.89 1980.1 1410.15 1973.06 1411.63 1966C1419.89 1926.49 1462.97 1900.75 1507.78 1908.57C1552.59 1916.39 1582.27 1954.81 1574.01 1994.32C1568.7 2019.73 1549.01 2039.43 1523.7 2048.19Z" fill="black" fill-opacity="0.2"/>
<path d="M1838.79 1522.82C1935.67 1541.32 1999.74 1632.12 1981.89 1725.63C1964.04 1819.14 1871.02 1879.94 1774.13 1861.44C1677.24 1842.95 1613.17 1752.15 1631.03 1658.64C1648.88 1565.13 1741.9 1504.32 1838.79 1522.82Z" fill="black"/>
<path fill-rule="evenodd" clip-rule="evenodd" d="M1774.05 1861.86C1725.98 1852.87 1685.87 1826.09 1659.7 1789.97C1632.84 1752.9 1620.69 1706 1629.61 1658.37C1638.58 1610.62 1667.01 1571.22 1705.59 1546.34C1743.34 1522 1790.78 1511.57 1839.19 1520.7C1887.61 1529.95 1927.98 1557.06 1954.17 1593.6C1980.96 1630.97 1992.89 1678.18 1983.63 1725.96C1974.32 1773.59 1945.67 1812.77 1906.95 1837.34C1869.27 1861.24 1822.06 1871.3 1774.05 1861.86ZM1774.21 1861.03C1821.9 1869.87 1868.58 1859.43 1905.69 1835.38C1943.51 1810.86 1971.41 1772.19 1980.15 1725.3C1988.94 1678.55 1976.97 1632.55 1950.69 1596.09C1925.02 1560.49 1885.67 1533.96 1838.38 1524.94C1791.07 1515.8 1744.64 1525.85 1707.6 1549.47C1669.63 1573.67 1641.52 1612.13 1632.44 1658.91C1623.31 1705.81 1635.04 1752.11 1661.25 1788.86C1686.95 1824.89 1726.57 1851.74 1774.21 1861.03Z" fill="white"/>
<path d="M1883.9 1748.37C1917.79 1748.37 1945.27 1718.55 1945.27 1681.76C1945.27 1644.98 1917.79 1615.16 1883.9 1615.16C1850 1615.16 1822.52 1644.98 1822.52 1681.76C1822.52 1718.55 1850 1748.37 1883.9 1748.37Z" fill="white"/>
<path fill-rule="evenodd" clip-rule="evenodd" d="M1966.13 1769.88C1845.28 1970.15 1562 1823.91 1642.79 1625.84C1642.79 1625.84 1632.28 1764.29 1757.09 1816.77C1852.14 1856.74 1966.13 1769.88 1966.13 1769.88Z" fill="black" fill-opacity="0.2"/>
<path d="M1882.91 1621.29C1896.17 1627.22 1910.95 1623.02 1915.92 1611.9C1920.9 1600.79 1914.19 1586.97 1900.93 1581.03C1887.68 1575.1 1872.9 1579.3 1867.92 1590.42C1862.95 1601.53 1869.66 1615.35 1882.91 1621.29Z" fill="white"/>
<path d="M1838.74 1603.91C1845.96 1607.14 1854.32 1604.16 1857.42 1597.24C1860.51 1590.33 1857.17 1582.11 1849.95 1578.87C1842.73 1575.64 1834.37 1578.63 1831.27 1585.54C1828.18 1592.45 1831.52 1600.68 1838.74 1603.91Z" fill="white"/>
<path d="M1892.67 1709.88C1888.06 1710.08 1883.93 1709.51 1880.28 1708.17C1876.64 1706.81 1873.75 1704.87 1871.6 1702.34C1869.45 1699.82 1868.31 1696.9 1868.16 1693.59C1868.05 1691.03 1868.53 1688.66 1869.59 1686.48C1870.68 1684.27 1872.2 1682.42 1874.15 1680.91C1876.1 1679.39 1878.32 1678.38 1880.79 1677.87L1880.78 1677.45C1877.47 1676.93 1874.75 1675.46 1872.61 1673.04C1870.47 1670.59 1869.32 1667.69 1869.18 1664.34C1869.04 1661.17 1869.84 1658.31 1871.59 1655.75C1873.34 1653.18 1875.8 1651.11 1878.97 1649.56C1882.16 1647.98 1885.82 1647.1 1889.95 1646.92C1894.08 1646.75 1897.79 1647.3 1901.08 1648.6C1904.4 1649.9 1907.03 1651.75 1909 1654.16C1910.96 1656.56 1912.02 1659.33 1912.18 1662.48C1912.3 1665.85 1911.39 1668.84 1909.45 1671.44C1907.5 1674.05 1904.93 1675.75 1901.75 1676.54L1901.77 1676.96C1904.24 1677.25 1906.5 1678.08 1908.56 1679.43C1910.64 1680.76 1912.31 1682.47 1913.58 1684.58C1914.87 1686.66 1915.58 1688.98 1915.71 1691.53C1915.83 1694.84 1914.93 1697.85 1913.01 1700.55C1911.09 1703.25 1908.37 1705.44 1904.84 1707.11C1901.34 1708.76 1897.28 1709.68 1892.67 1709.88ZM1892.26 1700.37C1894.31 1700.28 1896.09 1699.83 1897.6 1699.03C1899.1 1698.2 1900.25 1697.11 1901.05 1695.76C1901.87 1694.39 1902.25 1692.83 1902.17 1691.1C1902.09 1689.32 1901.58 1687.77 1900.62 1686.46C1899.66 1685.12 1898.4 1684.09 1896.83 1683.38C1895.26 1682.65 1893.48 1682.33 1891.48 1682.41C1889.51 1682.5 1887.76 1682.97 1886.24 1683.84C1884.72 1684.69 1883.54 1685.82 1882.7 1687.23C1881.88 1688.63 1881.51 1690.21 1881.58 1691.99C1881.66 1693.72 1882.15 1695.24 1883.07 1696.54C1883.98 1697.82 1885.24 1698.8 1886.83 1699.49C1888.41 1700.16 1890.22 1700.46 1892.26 1700.37ZM1891.07 1672.99C1892.79 1672.91 1894.3 1672.5 1895.61 1671.74C1896.91 1670.99 1897.92 1669.97 1898.62 1668.7C1899.33 1667.43 1899.65 1665.99 1899.58 1664.38C1899.51 1662.78 1899.07 1661.4 1898.26 1660.24C1897.45 1659.05 1896.37 1658.15 1895.02 1657.53C1893.68 1656.89 1892.12 1656.6 1890.37 1656.68C1888.63 1656.75 1887.11 1657.17 1885.81 1657.93C1884.5 1658.66 1883.49 1659.65 1882.79 1660.9C1882.1 1662.13 1881.79 1663.55 1881.86 1665.14C1881.93 1666.76 1882.37 1668.17 1883.18 1669.37C1884 1670.58 1885.08 1671.5 1886.45 1672.14C1887.82 1672.78 1889.36 1673.06 1891.07 1672.99Z" fill="black"/>
<path d="M2077.09 699.549C2136.47 710.888 2175.74 766.54 2164.8 823.851C2153.86 881.163 2096.85 918.432 2037.46 907.094C1978.08 895.756 1938.81 840.104 1949.75 782.792C1960.7 725.48 2017.71 688.211 2077.09 699.549Z" fill="#00394E"/>
<path fill-rule="evenodd" clip-rule="evenodd" d="M2037.39 907.51C2007.84 902.058 1983.16 885.652 1967.04 863.501C1950.45 840.716 1942.92 811.856 1948.34 782.522C1953.81 753.065 1971.31 728.741 1995.07 713.361C2018.34 698.302 2047.62 691.836 2077.5 697.429C2107.39 703.143 2132.34 719.871 2148.49 742.444C2165 765.53 2172.31 794.694 2166.54 824.184C2160.72 853.521 2143.02 877.629 2119.11 892.695C2095.91 907.314 2066.88 913.406 2037.39 907.51ZM2037.54 906.677C2066.71 911.98 2095.22 905.511 2117.86 890.738C2140.86 875.723 2157.81 852.115 2163.06 823.518C2168.36 795.07 2161.02 767.107 2145.01 744.944C2129.37 723.297 2105.45 707.153 2076.69 701.667C2047.91 696.067 2019.64 702.149 1997.07 716.489C1973.93 731.194 1956.75 754.579 1951.17 783.062C1945.54 811.664 1952.64 839.929 1968.58 862.391C1984.24 884.46 2008.43 900.927 2037.54 906.677Z" fill="white"/>
<path d="M2064.52 853.142C2076.72 869.962 2101.4 872.868 2119.65 859.634C2137.9 846.4 2142.81 822.037 2130.61 805.217C2118.42 788.398 2093.74 785.491 2075.48 798.725C2057.23 811.959 2052.32 836.323 2064.52 853.142Z" fill="white"/>
<path fill-rule="evenodd" clip-rule="evenodd" d="M2154.24 850.128C2086.79 957.485 1921.05 898.494 1956.59 759.996C1956.59 759.996 1951.76 846.742 2027.46 878.57C2085.11 902.809 2154.24 850.128 2154.24 850.128Z" fill="black" fill-opacity="0.2"/>
<path d="M2083.48 827.631L2088.38 823.741L2117.51 820.67L2120.86 824.899L2114.08 830.284L2112.09 827.781L2093.67 829.76L2093.44 829.943L2107.3 847.417L2102.31 851.376L2083.48 827.631ZM2089.52 845.876L2096.19 840.582L2098.45 838.975L2119.06 822.626L2123.69 828.466L2094.24 851.83L2089.52 845.876Z" fill="black"/>
<path d="M2104.14 759.9C2112.26 763.537 2121.32 760.963 2124.37 754.15C2127.42 747.337 2123.31 738.866 2115.18 735.229C2107.06 731.592 2098 734.166 2094.95 740.979C2091.9 747.792 2096.01 756.263 2104.14 759.9Z" fill="white"/>
<path d="M2077.07 749.249C2081.49 751.23 2086.62 749.401 2088.51 745.164C2090.41 740.927 2088.36 735.886 2083.94 733.905C2079.51 731.924 2074.39 733.753 2072.49 737.99C2070.59 742.228 2072.64 747.268 2077.07 749.249Z" fill="white"/>
<path fill-rule="evenodd" clip-rule="evenodd" d="M59.2734 2061.36C152.002 2040.21 227.464 1968.38 245.895 1871.85C261.45 1790.38 232.771 1710.31 176.308 1654.94L59.2734 2061.36Z" fill="white"/>
<path fill-rule="evenodd" clip-rule="evenodd" d="M58.8705 2061.24C58.8705 2061.24 87.6314 1959.5 116.497 1857.78C145.369 1756.06 174.347 1654.37 174.347 1654.37C174.545 1653.68 175.096 1653.14 175.792 1652.96C176.488 1652.77 177.229 1652.97 177.749 1653.48C206.529 1681.63 228.239 1716.12 240.557 1754C252.637 1791.16 255.664 1831.53 247.809 1872.21C238.353 1920.51 214.77 1962.63 181.872 1995.28C148.747 2028.15 106.201 2051.4 59.3708 2061.78C59.2251 2061.81 59.072 2061.77 58.9683 2061.66C58.8645 2061.55 58.8285 2061.39 58.8705 2061.24ZM59.8842 2060.78C105.987 2049.83 147.664 2026.28 180.04 1993.45C212.134 1960.9 235.098 1919.21 243.983 1871.48C251.533 1831.48 248.272 1791.86 236.367 1755.36C224.584 1719.23 204.313 1686.13 177.313 1658.84C171.995 1677.11 145.582 1767.83 119.086 1858.53C90.8683 1955.12 62.553 2051.69 59.8842 2060.78Z" fill="black"/>
<path fill-rule="evenodd" clip-rule="evenodd" d="M-165.529 2006.38L-44.082 1584.64C-15.5859 1580.2 14.2695 1580.51 44.3683 1586.25C96.3095 1596.17 141.57 1620.88 176.303 1654.95L59.2646 2061.37C25.6059 2069.04 -10.3603 2070.04 -46.6731 2063.1C-92.3286 2054.39 -132.808 2034.26 -165.529 2006.38Z" fill="#EFE313"/>
<path d="M99.2307 1839.94C120.061 1796.99 99.1645 1743.85 52.5581 1721.25C5.95173 1698.65 -48.7162 1715.14 -69.546 1758.09C-90.3758 1801.04 -69.4797 1854.18 -22.8734 1876.79C23.733 1899.39 78.4009 1882.89 99.2307 1839.94Z" fill="white"/>
<path d="M-28.385 1776.22C-27.3577 1771.9 -25.6445 1767.92 -23.2453 1764.27C-20.8396 1760.59 -17.6762 1757.55 -13.7551 1755.16C-9.82753 1752.74 -5.01969 1751.24 0.668414 1750.66C6.33566 1750.04 12.9751 1750.62 20.5867 1752.4C27.7268 1754.1 33.9091 1756.42 39.1336 1759.37C44.3372 1762.28 48.5407 1765.69 51.744 1769.6C54.9473 1773.51 57.0741 1777.82 58.1246 1782.52C59.1477 1787.22 59.0415 1792.16 57.8062 1797.36C56.4733 1802.97 54.2158 1807.66 51.0339 1811.44C47.8245 1815.22 44.0338 1817.97 39.6618 1819.71C35.2689 1821.41 30.6548 1821.98 25.8194 1821.4L29.9839 1803.88C33.2104 1803.93 35.9317 1803.06 38.148 1801.27C40.3369 1799.48 41.815 1796.97 42.5822 1793.74C43.8826 1788.27 42.4909 1783.55 38.407 1779.57C34.2958 1775.59 28.0853 1772.59 19.7753 1770.59L19.6388 1771.16C21.8018 1773.01 23.5188 1775.21 24.7899 1777.76C26.0335 1780.31 26.8058 1783.08 27.1065 1786.07C27.4138 1789.04 27.2001 1792.06 26.4654 1795.16C25.2885 1800.11 23.0758 1804.25 19.8272 1807.58C16.5787 1810.91 12.6497 1813.22 8.04042 1814.49C3.43113 1815.77 -1.48608 1815.78 -6.71119 1814.54C-12.3532 1813.23 -17.0643 1810.74 -20.8445 1807.06C-24.6247 1803.39 -27.2004 1798.9 -28.5715 1793.61C-29.9635 1788.28 -29.9013 1782.48 -28.385 1776.22ZM-14.4039 1779.42C-15.0606 1782.18 -14.9892 1784.8 -14.1897 1787.27C-13.3838 1789.72 -12.0224 1791.83 -10.1056 1793.62C-8.18229 1795.38 -5.84956 1796.57 -3.10739 1797.19C-0.344374 1797.84 2.28812 1797.83 4.79009 1797.16C7.27121 1796.45 9.41865 1795.19 11.2324 1793.4C13.0253 1791.57 14.2469 1789.29 14.8971 1786.55C15.3847 1784.5 15.4536 1782.51 15.1037 1780.58C14.7539 1778.64 14.0615 1776.88 13.0266 1775.27C11.9709 1773.63 10.6417 1772.23 9.03908 1771.07C7.43645 1769.91 5.63662 1769.09 3.63959 1768.62C0.979496 1768.01 -1.60479 1768.07 -4.11326 1768.77C-6.62173 1769.47 -8.80303 1770.75 -10.6572 1772.59C-12.5113 1774.43 -13.7602 1776.71 -14.4039 1779.42Z" fill="black"/>
<path fill-rule="evenodd" clip-rule="evenodd" d="M222.628 1942.77C65.7675 2192.45 -319.704 2055.25 -237.032 1733.14C-237.032 1733.14 -248.277 1934.89 -72.2283 2008.91C61.8496 2065.29 222.628 1942.77 222.628 1942.77Z" fill="black" fill-opacity="0.2"/>
<path d="M101.462 1721.81C119.71 1729.98 140.056 1724.2 146.906 1708.9C153.757 1693.6 144.518 1674.57 126.27 1666.4C108.023 1658.23 87.677 1664.01 80.8265 1679.32C73.976 1694.62 83.215 1713.65 101.462 1721.81Z" fill="white"/>
<path d="M40.656 1697.89C50.5945 1702.34 62.1052 1698.23 66.3658 1688.72C70.6265 1679.2 66.0236 1667.88 56.0851 1663.43C46.1466 1658.98 34.6359 1663.09 30.3753 1672.6C26.1146 1682.12 30.7174 1693.44 40.656 1697.89Z" fill="white"/>
<path fill-rule="evenodd" clip-rule="evenodd" d="M186.295 746.883C187.283 712.711 167.77 680.437 135.12 667.698C107.246 656.823 76.7777 662.906 54.5135 680.977L112.711 726.601L186.295 746.883Z" fill="white"/>
<path fill-rule="evenodd" clip-rule="evenodd" d="M186.18 747.289L112.348 727.91C112.175 727.861 112.012 727.779 111.871 727.669L53.2487 682.585C52.76 682.202 52.4706 681.615 52.4678 680.993C52.4617 680.372 52.7403 679.781 53.2216 679.389C64.6958 670.008 78.309 663.678 92.6764 661.253C106.826 658.866 121.672 660.265 135.825 665.886C152.351 672.581 165.531 684.137 174.331 698.432C183.099 712.67 187.519 729.587 186.716 746.895C186.714 747.024 186.651 747.145 186.545 747.223C186.441 747.299 186.305 747.324 186.18 747.289ZM185.875 746.319C185.961 729.544 181.06 713.359 172.149 699.822C163.288 686.361 150.439 675.524 134.411 669.51C120.917 664.338 106.836 663.297 93.4144 665.597C80.5927 667.79 68.341 673.039 57.8103 680.995L113.344 725.371L185.875 746.319Z" fill="black"/>
<path fill-rule="evenodd" clip-rule="evenodd" d="M22.5977 751.82C23.9016 783.725 42.9966 813.034 73.7345 825.027C99.675 835.148 127.864 830.583 149.596 815.333C103.91 803.174 61.2867 782.782 22.5977 751.82Z" fill="white"/>
<path fill-rule="evenodd" clip-rule="evenodd" d="M22.8598 751.489C42.1339 766.506 62.3392 778.898 83.3447 789.054C104.79 799.423 127.069 807.453 150.123 813.349C150.895 813.554 151.479 814.188 151.617 814.975C151.757 815.76 151.43 816.558 150.776 817.015C139.553 824.953 126.635 830.163 113.153 831.927C99.9247 833.657 86.1766 832.065 73.0277 826.836C57.5095 820.534 44.9421 809.948 36.2014 796.823C27.4531 783.689 22.5363 768.052 22.1737 751.837C22.1657 751.673 22.2555 751.518 22.4055 751.441C22.5524 751.366 22.7314 751.386 22.8598 751.489ZM23.0824 752.766C24.1798 768.275 29.5305 783.026 38.3275 795.357C47.1216 807.681 59.3803 817.581 74.4397 823.217C86.9816 828.017 100.027 829.241 112.579 827.562C123.927 826.044 134.898 822.149 144.709 816.085C123.103 809.836 102.202 801.746 82.141 791.475C61.5368 780.927 41.8348 768.087 23.0824 752.766Z" fill="black"/>
<path fill-rule="evenodd" clip-rule="evenodd" d="M54.509 680.975C96.963 710.251 139.93 731.801 186.293 746.881C186.015 756.56 184.087 766.397 180.347 775.981C173.894 792.52 162.966 805.949 149.595 815.329C103.173 802.577 61.0349 781.009 22.5949 751.815C22.1218 740.234 23.9952 728.301 28.5077 716.738C34.178 702.2 43.3027 690.07 54.509 680.975Z" fill="#00394E"/>
<path d="M154.351 715.012C158.894 717.046 163.961 715.606 165.666 711.796C167.372 707.986 165.072 703.248 160.528 701.213C155.984 699.179 150.918 700.619 149.212 704.43C147.506 708.24 149.807 712.978 154.351 715.012Z" fill="white"/>
<path d="M139.213 709.055C141.688 710.163 144.554 709.14 145.615 706.77C146.676 704.4 145.53 701.581 143.055 700.473C140.58 699.365 137.714 700.388 136.653 702.758C135.592 705.128 136.738 707.947 139.213 709.055Z" fill="white"/>
<path d="M114.332 786.806C127.235 796.311 146.057 792.666 156.371 778.664C166.685 764.663 164.587 745.607 151.684 736.101C138.78 726.596 119.959 730.241 109.644 744.243C99.33 758.245 101.429 777.301 114.332 786.806Z" fill="white"/>
<path d="M132.664 745.483L120.926 772.002L115.319 769.521L124.701 748.323L124.546 748.254L116.788 749.373L118.988 744.401L127.393 743.15L132.664 745.483ZM137.369 779.977C135.146 778.983 133.472 777.586 132.347 775.788C131.232 773.993 130.699 771.873 130.749 769.428C130.808 766.986 131.483 764.317 132.775 761.42C134.055 758.529 135.574 756.253 137.33 754.594C139.095 752.939 141.011 751.934 143.078 751.579C145.158 751.219 147.307 751.53 149.525 752.512C151.744 753.494 153.415 754.874 154.538 756.651C155.67 758.432 156.217 760.532 156.178 762.952C156.144 765.363 155.482 768.012 154.193 770.9C152.906 773.809 151.374 776.105 149.597 777.786C147.829 779.471 145.906 780.504 143.828 780.884C141.749 781.265 139.596 780.963 137.369 779.977ZM139.427 775.328C140.946 776.001 142.497 775.774 144.08 774.647C145.662 773.52 147.126 771.427 148.47 768.367C149.36 766.356 149.894 764.589 150.072 763.068C150.258 761.55 150.125 760.288 149.672 759.282C149.228 758.281 148.501 757.556 147.491 757.109C145.98 756.44 144.437 756.661 142.862 757.77C141.287 758.88 139.828 760.939 138.486 763.948C137.584 765.985 137.034 767.776 136.836 769.319C136.651 770.858 136.783 772.135 137.232 773.149C137.685 774.155 138.417 774.881 139.427 775.328Z" fill="black"/>
<path fill-rule="evenodd" clip-rule="evenodd" d="M175.185 790.186C124.564 870.762 0.167123 826.487 26.8467 722.539C26.8467 722.539 23.2175 787.645 80.0308 811.533C123.299 829.726 175.185 790.186 175.185 790.186Z" fill="black" fill-opacity="0.2"/>
<path fill-rule="evenodd" clip-rule="evenodd" d="M1742.37 69.9268C1716.15 54.1776 1682.41 55.2553 1658.16 75.1445C1637.46 92.1241 1628.85 118.562 1633.19 143.854L1694.3 118.446L1742.37 69.9268Z" fill="white"/>
<path fill-rule="evenodd" clip-rule="evenodd" d="M1742.67 70.2252L1695.26 119.403C1695.13 119.531 1694.98 119.632 1694.82 119.7L1633.97 145.743C1633.4 145.98 1632.75 145.945 1632.2 145.645C1631.66 145.346 1631.28 144.813 1631.17 144.201C1628.87 131.1 1629.89 117.662 1634.31 105.353C1638.67 93.234 1646.3 82.2365 1656.93 73.6416C1669.44 63.6769 1684.28 58.4613 1699.32 57.8864C1714.29 57.3115 1729.44 61.3149 1742.59 69.5636C1742.7 69.6307 1742.78 69.7447 1742.79 69.874C1742.81 70.0015 1742.76 70.1333 1742.67 70.2252ZM1741.68 70.0171C1728.64 62.6522 1713.89 59.4282 1699.46 60.4703C1685.11 61.505 1671.07 66.7865 1659.39 76.6479C1649.48 84.8892 1642.54 95.3938 1638.46 106.837C1634.6 117.687 1633.31 129.408 1634.83 140.989L1693.54 117.289L1741.68 70.0171Z" fill="black"/>
<path fill-rule="evenodd" clip-rule="evenodd" d="M1674.47 199.807C1699.94 212.774 1731.17 210.723 1754 191.998C1773.27 176.196 1782.06 152.202 1779.69 128.562C1750.18 158.877 1715.59 183.193 1674.47 199.807Z" fill="white"/>
<path fill-rule="evenodd" clip-rule="evenodd" d="M1674.31 199.416C1694.46 190.933 1712.96 180.571 1730.07 168.615C1747.53 156.411 1763.54 142.542 1778.22 127.131C1778.78 126.559 1779.61 126.36 1780.37 126.624C1781.12 126.886 1781.66 127.565 1781.74 128.357C1783.02 140.629 1781.43 153.029 1776.88 164.354C1772.41 175.468 1765.11 185.518 1755.23 193.5C1743.47 202.848 1729.67 208.011 1715.56 209.054C1701.46 210.097 1687.09 207.044 1674.28 200.187C1674.13 200.11 1674.04 199.956 1674.05 199.79C1674.06 199.624 1674.16 199.478 1674.31 199.416ZM1675.54 199.847C1688.09 205.721 1701.9 207.961 1715.32 206.482C1728.76 205.002 1741.81 199.772 1752.77 190.497C1761.98 182.834 1768.61 173.214 1772.79 162.718C1776.51 153.375 1778.29 143.315 1777.94 133.196C1763.66 147.171 1748.28 159.809 1731.59 170.852C1714.34 182.264 1695.69 191.968 1675.54 199.847Z" fill="black"/>
<path fill-rule="evenodd" clip-rule="evenodd" d="M1633.19 143.856C1674.64 123.566 1710.28 99.4892 1742.37 69.9274C1749.8 74.3871 1756.63 80.2031 1762.47 87.3216C1772.54 99.6058 1778.23 114.018 1779.69 128.562C1749.39 159.191 1714.09 182.612 1674.47 199.807C1665.22 195.1 1656.74 188.407 1649.69 179.818C1640.83 169.022 1635.37 156.586 1633.19 143.856Z" fill="#FF050B"/>
<path d="M1734.21 96.5998C1738.75 98.634 1743.82 97.1941 1745.53 93.3838C1747.23 89.5734 1744.93 84.8355 1740.39 82.8013C1735.84 80.7672 1730.78 82.2071 1729.07 86.0174C1727.37 89.8277 1729.67 94.5656 1734.21 96.5998Z" fill="white"/>
<path d="M1719.07 90.6426C1721.55 91.7505 1724.41 90.7276 1725.47 88.3577C1726.54 85.9879 1725.39 83.1687 1722.91 82.0607C1720.44 80.9528 1717.57 81.9758 1716.51 84.3456C1715.45 86.7155 1716.6 89.5347 1719.07 90.6426Z" fill="white"/>
<path d="M1746.9 149.566C1759.97 143.665 1765.38 127.383 1758.98 113.198C1752.57 99.0137 1736.79 92.2982 1723.72 98.1988C1710.64 104.099 1705.24 120.382 1711.64 134.566C1718.04 148.751 1733.83 155.466 1746.9 149.566Z" fill="white"/>
<path d="M1722.16 116.426L1737.7 137.208L1733.31 140.495L1720.89 123.884L1720.76 123.975L1718.24 130.518L1715.32 126.621L1718.03 119.516L1722.16 116.426ZM1736.14 105.968L1751.69 126.751L1747.29 130.037L1734.87 113.426L1734.74 113.517L1732.22 120.06L1729.3 116.164L1732.01 109.058L1736.14 105.968Z" fill="black"/>
<path fill-rule="evenodd" clip-rule="evenodd" d="M1779.44 165.525C1730.03 244.167 1608.62 200.955 1634.66 99.501C1634.66 99.501 1631.12 163.045 1686.57 186.36C1728.8 204.116 1779.44 165.525 1779.44 165.525Z" fill="black" fill-opacity="0.2"/>
<path fill-rule="evenodd" clip-rule="evenodd" d="M727.477 2190.98L720.59 2190.51L708.35 2159.77L709.532 2159.97L729.117 2152.78L742.214 2153.64L742.207 2153.94L742.481 2153.84L754.994 2184.34L734.6 2191.82L734.593 2191.8L734.496 2191.93L727.477 2190.98Z" fill="black" fill-opacity="0.2"/>
<path fill-rule="evenodd" clip-rule="evenodd" d="M782.913 1940.58L817.071 1939.5L808.379 2004.42L788.101 2026.29L754.118 2025.33L728.652 1961.49L782.913 1940.58Z" fill="#F4EC62"/>
<path fill-rule="evenodd" clip-rule="evenodd" d="M782.705 1934.08L816.897 1934.06C818.495 1934 820.04 1934.66 821.112 1935.84C822.184 1937.03 822.685 1938.64 822.471 1940.22C822.471 1940.22 819.815 1956.38 817.41 1972.59C815.008 1988.78 812.857 2005.02 812.857 2005.02C812.735 2005.94 812.33 2006.81 811.692 2007.49L791.54 2029.48C790.619 2030.46 789.315 2031.01 787.966 2030.98L753.979 2030.34C751.978 2030.28 750.206 2029.04 749.467 2027.19L723.289 1963.63C722.716 1962.19 722.741 1960.59 723.359 1959.17C723.977 1957.76 725.135 1956.65 726.575 1956.1L780.574 1934.51C781.257 1934.25 781.978 1934.1 782.705 1934.08ZM782.913 1940.58L728.652 1961.49L754.118 2025.33L788.101 2026.29L808.379 2004.42L817.071 1939.5L782.913 1940.58Z" fill="black"/>
<path fill-rule="evenodd" clip-rule="evenodd" d="M728.87 1964.73L725.629 1964.95L725.191 1958.46L728.432 1958.24C728.432 1958.24 730.332 1958.46 733.274 1958.55C734.688 1958.61 736.328 1958.66 738.098 1958.58C740.223 1958.49 742.517 1958.21 744.804 1957.97C752.69 1957.13 760.427 1956.09 760.427 1956.09L763.666 1955.87L764.102 1962.35L760.863 1962.57C760.863 1962.57 753.057 1962.58 745.131 1962.8C742.83 1962.87 740.521 1962.9 738.402 1963.09C736.635 1963.25 735.02 1963.52 733.627 1963.77C730.721 1964.26 728.87 1964.73 728.87 1964.73Z" fill="black"/>
<path d="M757.949 2001.11C758.496 2000.9 757.69 1997.6 756.148 1993.73C754.605 1989.86 752.911 1986.9 752.363 1987.11C751.815 1987.32 752.621 1990.63 754.164 1994.49C755.706 1998.36 757.401 2001.32 757.949 2001.11Z" fill="black"/>
<path fill-rule="evenodd" clip-rule="evenodd" d="M750.692 1982.78C751.864 1982.43 754.516 1981.82 756.491 1984.58C757.347 1985.78 758.807 1988.65 759.949 1992.21C761.291 1995.63 762.055 1998.7 762.154 2000.14C762.366 2003.21 760.437 2004.48 759.408 2004.9C758.399 2005.31 756.207 2005.59 754.201 2003.31C753.244 2002.23 751.635 1999.47 750.151 1996.09C748.617 1992.67 747.736 1989.56 747.589 1988.11C747.244 1984.68 749.545 1983.27 750.692 1982.78ZM756.805 1989.3C757.69 1988.37 758.12 1987.51 756.803 1987.54C756.328 1987.55 756.457 1988.29 756.805 1989.3ZM752.361 1987.1C751.813 1987.32 752.623 1990.63 754.164 1994.49C755.703 1998.35 757.401 2001.32 757.948 2001.11C758.496 2000.9 757.687 1997.59 756.148 1993.73C754.606 1989.87 752.908 1986.89 752.361 1987.1Z" fill="black"/>
<path d="M817.721 1939.89L762.527 1961.16L788.401 2026.02L843.595 2004.76L817.721 1939.89Z" fill="#F4EC62"/>
<path fill-rule="evenodd" clip-rule="evenodd" d="M823.859 1937.45L847.912 2003.03C848.374 2004.19 848.346 2005.47 847.85 2006.61C847.354 2007.75 846.422 2008.65 845.264 2009.09L790.16 2030.59C787.658 2031.56 784.845 2030.33 783.852 2027.84L757.172 1963.29C756.601 1961.86 756.629 1960.27 757.243 1958.85C757.861 1957.44 759.016 1956.33 760.453 1955.78L815.341 1933.73C818.718 1932.42 822.516 1934.08 823.859 1937.45ZM817.72 1939.89L762.527 1961.16L788.398 2026.02L843.592 2004.75L817.72 1939.89Z" fill="black"/>
<path d="M786.07 1979.06C787.833 1978.38 788.011 1974.69 786.469 1970.83C784.926 1966.96 782.247 1964.38 780.484 1965.06C778.722 1965.73 778.543 1969.42 780.086 1973.29C781.628 1977.15 784.307 1979.74 786.07 1979.06Z" fill="black"/>
<path fill-rule="evenodd" clip-rule="evenodd" d="M779.001 1961.2C780.871 1960.61 783.217 1960.73 785.367 1962.57C787.002 1963.98 788.792 1966.38 789.846 1969.48C791.008 1972.48 791.29 1975.41 790.95 1977.48C790.524 1980.1 789.089 1981.73 787.371 1982.43C785.67 1983.12 783.51 1982.86 781.366 1981.3C779.636 1980.04 777.809 1977.69 776.522 1974.7C775.198 1971.68 774.857 1968.68 775.139 1966.55C775.519 1963.71 777.157 1961.98 779.001 1961.2ZM780.484 1965.05C778.722 1965.73 778.546 1969.42 780.088 1973.29C781.626 1977.14 784.31 1979.74 786.071 1979.06C787.833 1978.38 788.009 1974.68 786.471 1970.83C784.929 1966.96 782.246 1964.37 780.484 1965.05Z" fill="black"/>
<path d="M829.355 2001.35C831.118 2000.67 831.296 1996.98 829.754 1993.12C828.211 1989.25 825.532 1986.67 823.77 1987.34C822.007 1988.02 821.828 1991.71 823.371 1995.58C824.913 1999.44 827.593 2002.03 829.355 2001.35Z" fill="black"/>
<path fill-rule="evenodd" clip-rule="evenodd" d="M822.287 1983.49C824.156 1982.9 826.503 1983.02 828.652 1984.86C830.287 1986.26 832.077 1988.67 833.132 1991.77C834.293 1994.77 834.575 1997.7 834.235 1999.77C833.809 2002.39 832.374 2004.02 830.656 2004.72C828.955 2005.41 826.795 2005.15 824.651 2003.59C822.921 2002.33 821.094 1999.98 819.807 1996.99C818.483 1993.97 818.142 1990.97 818.424 1988.84C818.804 1985.99 820.442 1984.27 822.287 1983.49ZM823.769 1987.34C822.008 1988.02 821.831 1991.71 823.373 1995.58C824.911 1999.43 827.595 2002.02 829.356 2001.35C831.118 2000.67 831.294 1996.97 829.756 1993.12C828.214 1989.25 825.531 1986.66 823.769 1987.34Z" fill="black"/>
<path d="M815.121 1968.72C816.883 1968.04 817.062 1964.36 815.52 1960.49C813.977 1956.62 811.298 1954.04 809.535 1954.72C807.773 1955.4 807.594 1959.08 809.137 1962.95C810.679 1966.82 813.358 1969.4 815.121 1968.72Z" fill="black"/>
<path fill-rule="evenodd" clip-rule="evenodd" d="M808.052 1950.87C809.922 1950.28 812.268 1950.39 814.418 1952.23C816.053 1953.64 817.843 1956.04 818.897 1959.14C820.059 1962.15 820.34 1965.08 820.001 1967.14C819.575 1969.76 818.139 1971.39 816.422 1972.09C814.721 1972.78 812.561 1972.52 810.416 1970.97C808.686 1969.7 806.859 1967.35 805.573 1964.36C804.248 1961.34 803.907 1958.34 804.19 1956.21C804.57 1953.37 806.207 1951.64 808.052 1950.87ZM809.535 1954.71C807.773 1955.39 807.597 1959.08 809.138 1962.95C810.677 1966.81 813.361 1969.4 815.122 1968.72C816.884 1968.04 817.06 1964.35 815.521 1960.49C813.98 1956.62 811.296 1954.03 809.535 1954.71Z" fill="black"/>
<path d="M800.105 2011.49C801.868 2010.81 802.046 2007.13 800.504 2003.26C798.961 1999.39 796.282 1996.81 794.52 1997.49C792.757 1998.17 792.578 2001.85 794.121 2005.72C795.663 2009.59 798.343 2012.17 800.105 2011.49Z" fill="black"/>
<path fill-rule="evenodd" clip-rule="evenodd" d="M793.037 1993.64C794.906 1993.05 797.253 1993.16 799.402 1995.01C801.037 1996.41 802.827 1998.81 803.882 2001.91C805.043 2004.92 805.325 2007.85 804.985 2009.91C804.559 2012.53 803.124 2014.17 801.406 2014.86C799.705 2015.56 797.545 2015.29 795.401 2013.74C793.671 2012.48 791.844 2010.13 790.557 2007.14C789.233 2004.11 788.892 2001.11 789.174 1998.98C789.554 1996.14 791.192 1994.41 793.037 1993.64ZM794.519 1997.48C792.758 1998.16 792.581 2001.86 794.123 2005.72C795.661 2009.58 798.345 2012.17 800.106 2011.49C801.868 2010.81 802.044 2007.12 800.506 2003.26C798.964 1999.4 796.281 1996.8 794.519 1997.48Z" fill="black"/>
<path fill-rule="evenodd" clip-rule="evenodd" d="M726.85 1960.84L758.595 1962.55L783.349 2025.39L751.954 2026.29L726.85 1960.84Z" fill="black" fill-opacity="0.2"/>
<path fill-rule="evenodd" clip-rule="evenodd" d="M520.592 866.344L531.719 891.691L480.303 904.767L457.744 896.131L448.199 870.302L488.488 831.879L520.592 866.344Z" fill="#FF7418"/>
<path fill-rule="evenodd" clip-rule="evenodd" d="M525.415 864.224L535.758 889.916C536.28 891.101 536.255 892.46 535.686 893.624C535.118 894.788 534.064 895.649 532.808 895.967C532.808 895.967 519.859 898.853 506.953 901.94C494.056 905.027 481.202 908.314 481.202 908.314C480.474 908.501 479.7 908.458 478.991 908.186L456.384 899.68C455.366 899.285 454.558 898.472 454.177 897.447L444.391 871.711C443.833 870.188 444.227 868.483 445.397 867.367L485.259 828.495C486.166 827.63 487.378 827.166 488.627 827.203C489.876 827.24 491.058 827.776 491.911 828.691L524.442 862.755C524.846 863.189 525.175 863.687 525.415 864.224ZM520.591 866.344L488.487 831.879L448.198 870.302L457.743 896.132L480.302 904.767L531.718 891.691L520.591 866.344Z" fill="black"/>
<path fill-rule="evenodd" clip-rule="evenodd" d="M486.117 833.022L484.973 830.652L489.716 828.364L490.86 830.734C490.86 830.734 491.272 832.226 492.086 834.467C492.475 835.546 492.929 836.794 493.522 838.101C494.234 839.671 495.137 841.31 496.011 842.955C499.02 848.63 502.143 854.129 502.143 854.129L503.286 856.497L498.543 858.784L497.4 856.416C497.4 856.416 495.039 850.55 492.473 844.662C491.732 842.952 491.01 841.226 490.222 839.693C489.57 838.413 488.878 837.281 488.275 836.307C487.028 834.272 486.117 833.022 486.117 833.022Z" fill="black"/>
<path d="M467.597 865.914C467.854 866.191 469.854 864.707 472.063 862.601C474.272 860.494 475.854 858.562 475.596 858.285C475.338 858.009 473.338 859.492 471.129 861.598C468.92 863.705 467.339 865.637 467.597 865.914Z" fill="black"/>
<path fill-rule="evenodd" clip-rule="evenodd" d="M477.959 856.085C478.453 856.697 479.615 858.371 478.188 860.429C477.596 861.285 476.06 862.965 474.033 864.657C472.134 866.446 470.345 867.795 469.444 868.279C467.445 869.354 466.03 868.352 465.53 867.84C465.042 867.333 464.217 865.897 465.307 863.945C465.811 863.043 467.229 861.287 469.06 859.424C470.899 857.522 472.671 856.088 473.574 855.566C475.779 854.294 477.395 855.512 477.959 856.085ZM475.6 858.282C475.343 858.005 473.338 859.493 471.131 861.598C468.927 863.7 467.341 865.636 467.599 865.913C467.856 866.19 469.861 864.702 472.064 862.601C474.272 860.495 475.858 858.559 475.6 858.282ZM475.393 861.707C476.277 862.057 477.003 862.124 476.575 861.239C476.421 860.925 475.973 861.199 475.393 861.707Z" fill="black"/>
<path d="M481.22 862.238C481.439 862.473 483.397 860.966 485.594 858.871C487.79 856.776 489.393 854.887 489.174 854.652C488.955 854.416 486.997 855.924 484.8 858.019C482.603 860.113 481 862.002 481.22 862.238Z" fill="black"/>
<path fill-rule="evenodd" clip-rule="evenodd" d="M491.399 852.577C491.816 853.098 493.002 854.804 491.501 856.795C490.897 857.597 489.386 859.179 487.444 860.81C485.625 862.525 483.923 863.861 483.073 864.367C481.128 865.523 479.692 864.487 479.271 864.051C478.857 863.622 477.99 862.171 479.166 860.27C479.69 859.423 481.085 857.758 482.846 855.972C484.613 854.152 486.286 852.737 487.132 852.202C489.279 850.84 490.92 852.095 491.399 852.577ZM489.175 854.649C488.956 854.414 486.993 855.925 484.798 858.019C482.607 860.109 480.999 862.002 481.218 862.237C481.437 862.472 483.401 860.961 485.592 858.871C487.787 856.777 489.395 854.884 489.175 854.649ZM489.04 857.862C489.93 858.205 490.658 858.286 490.19 857.417C490.025 857.11 489.597 857.367 489.04 857.862Z" fill="black"/>
<path d="M453.455 871.066C453.656 871.281 455.559 869.795 457.708 867.746C459.856 865.698 461.434 863.863 461.234 863.647C461.034 863.432 459.13 864.918 456.982 866.967C454.834 869.016 453.255 870.851 453.455 871.066Z" fill="black"/>
<path fill-rule="evenodd" clip-rule="evenodd" d="M463.367 861.66C463.748 862.133 464.922 863.816 463.422 865.744C462.825 866.514 461.355 868.028 459.482 869.605C457.723 871.264 456.091 872.564 455.275 873.067C453.392 874.226 451.971 873.202 451.586 872.806C451.212 872.411 450.351 870.977 451.528 869.14C452.049 868.328 453.405 866.732 455.113 865.002C456.819 863.246 458.42 861.873 459.231 861.341C461.309 859.977 462.932 861.217 463.367 861.66ZM461.236 863.644C461.036 863.429 459.127 864.92 456.98 866.967C454.838 869.011 453.254 870.85 453.455 871.065C453.655 871.28 455.563 869.79 457.706 867.746C459.853 865.699 461.436 863.86 461.236 863.644ZM461.13 866.719C462 867.055 462.719 867.134 462.245 866.29C462.079 865.993 461.665 866.241 461.13 866.719Z" fill="black"/>
<path d="M531.621 892.298L498.965 857.24L458.032 896.277L490.688 931.335L531.621 892.298Z" fill="#FF7418"/>
<path fill-rule="evenodd" clip-rule="evenodd" d="M535.313 896.172L493.288 934.06C492.558 934.756 491.581 935.124 490.577 935.095C489.572 935.065 488.615 934.636 487.93 933.901L455.128 898.98C453.648 897.391 453.723 894.905 455.293 893.408L495.745 853.859C496.648 852.998 497.855 852.537 499.104 852.572C500.349 852.611 501.531 853.144 502.381 854.057L535.536 888.647C537.533 890.792 537.437 894.147 535.313 896.172ZM531.619 892.298L498.963 857.241L458.032 896.275L490.688 931.333L531.619 892.298Z" fill="black"/>
<path d="M492.622 880.344C493.665 881.464 496.488 880.485 498.928 878.158C501.369 875.831 502.501 873.036 501.459 871.917C500.416 870.797 497.592 871.776 495.152 874.103C492.712 876.431 491.579 879.225 492.622 880.344Z" fill="black"/>
<path fill-rule="evenodd" clip-rule="evenodd" d="M503.906 869.637C504.914 870.864 505.535 872.663 504.8 874.835C504.239 876.487 502.972 878.559 500.963 880.287C499.055 882.068 496.938 883.165 495.282 883.533C493.183 884.005 491.524 883.419 490.483 882.338C489.446 881.27 488.991 879.567 489.514 877.485C489.938 875.804 491.153 873.721 493.012 871.851C494.886 869.942 497.035 868.78 498.724 868.348C500.974 867.776 502.765 868.485 503.906 869.637ZM501.463 871.913C500.42 870.794 497.591 871.778 495.152 874.103C492.718 876.425 491.581 879.224 492.623 880.343C493.665 881.462 496.495 880.479 498.929 878.158C501.368 875.832 502.505 873.032 501.463 871.913Z" fill="black"/>
<path d="M490.516 899.979C491.559 901.099 494.383 900.12 496.823 897.792C499.263 895.465 500.396 892.671 499.353 891.552C498.31 890.432 495.487 891.411 493.046 893.738C490.606 896.065 489.473 898.859 490.516 899.979Z" fill="black"/>
<path fill-rule="evenodd" clip-rule="evenodd" d="M501.8 889.272C502.808 890.499 503.429 892.298 502.694 894.47C502.133 896.122 500.867 898.194 498.858 899.922C496.949 901.703 494.833 902.799 493.177 903.168C491.078 903.64 489.418 903.054 488.378 901.973C487.341 900.905 486.885 899.202 487.408 897.12C487.833 895.439 489.047 893.356 490.906 891.485C492.78 889.576 494.929 888.415 496.618 887.983C498.868 887.41 500.66 888.12 501.8 889.272ZM499.357 891.548C498.315 890.429 495.486 891.412 493.047 893.738C490.613 896.06 489.475 898.859 490.518 899.978C491.56 901.097 494.389 900.114 496.824 897.792C499.262 895.467 500.399 892.667 499.357 891.548Z" fill="black"/>
<path d="M488.946 919.607C489.989 920.726 492.812 919.748 495.253 917.42C497.693 915.093 498.826 912.299 497.783 911.179C496.74 910.06 493.916 911.039 491.476 913.366C489.036 915.693 487.903 918.487 488.946 919.607Z" fill="black"/>
<path fill-rule="evenodd" clip-rule="evenodd" d="M500.23 908.9C501.238 910.127 501.859 911.926 501.124 914.098C500.563 915.75 499.296 917.822 497.287 919.55C495.379 921.331 493.262 922.427 491.607 922.796C489.508 923.268 487.848 922.682 486.807 921.601C485.77 920.533 485.315 918.83 485.838 916.748C486.263 915.067 487.477 912.984 489.336 911.113C491.21 909.204 493.359 908.043 495.048 907.611C497.298 907.038 499.089 907.748 500.23 908.9ZM497.787 911.176C496.745 910.057 493.915 911.04 491.477 913.366C489.042 915.688 487.905 918.487 488.947 919.606C489.99 920.725 492.819 919.742 495.253 917.42C497.692 915.095 498.829 912.295 497.787 911.176Z" fill="black"/>
<path d="M509.169 899.054C510.212 900.174 513.035 899.195 515.475 896.868C517.916 894.54 519.048 891.746 518.005 890.627C516.963 889.507 514.139 890.486 511.699 892.813C509.259 895.14 508.126 897.935 509.169 899.054Z" fill="black"/>
<path fill-rule="evenodd" clip-rule="evenodd" d="M520.453 888.347C521.461 889.574 522.082 891.373 521.347 893.545C520.786 895.197 519.519 897.269 517.51 898.997C515.601 900.778 513.485 901.874 511.829 902.243C509.73 902.715 508.071 902.129 507.03 901.048C505.993 899.98 505.537 898.277 506.061 896.195C506.485 894.514 507.7 892.431 509.559 890.561C511.433 888.652 513.581 887.49 515.27 887.058C517.521 886.486 519.312 887.195 520.453 888.347ZM518.01 890.623C516.967 889.504 514.138 890.487 511.699 892.813C509.265 895.135 508.128 897.934 509.17 899.053C510.212 900.172 513.042 899.189 515.476 896.868C517.915 894.542 519.052 891.742 518.01 890.623Z" fill="black"/>
<path d="M472.485 900.687C473.528 901.807 476.352 900.828 478.792 898.5C481.232 896.173 482.365 893.379 481.322 892.26C480.279 891.14 477.455 892.119 475.015 894.446C472.575 896.773 471.442 899.567 472.485 900.687Z" fill="black"/>
<path fill-rule="evenodd" clip-rule="evenodd" d="M483.769 889.98C484.777 891.207 485.398 893.006 484.663 895.178C484.102 896.83 482.835 898.902 480.826 900.63C478.918 902.411 476.801 903.507 475.146 903.876C473.047 904.348 471.387 903.762 470.346 902.681C469.31 901.613 468.854 899.91 469.377 897.828C469.802 896.147 471.016 894.064 472.875 892.193C474.749 890.284 476.898 889.123 478.587 888.691C480.837 888.118 482.628 888.828 483.769 889.98ZM481.326 892.256C480.284 891.137 477.454 892.12 475.016 894.446C472.581 896.768 471.444 899.567 472.486 900.686C473.529 901.805 476.358 900.822 478.792 898.5C481.231 896.175 482.368 893.375 481.326 892.256Z" fill="black"/>
<path fill-rule="evenodd" clip-rule="evenodd" d="M488.004 832.844C490.752 840.674 493.153 833.518 498.579 855.1C498.579 855.1 445.942 899.251 454.104 896.698L447.02 868.618L488.004 832.844Z" fill="black" fill-opacity="0.2"/>
<path fill-rule="evenodd" clip-rule="evenodd" d="M1334.85 1367.67L1303.04 1375.85L1297.64 1403.89L1324.87 1422.64L1354.83 1411.11L1358.78 1384.53L1334.85 1367.67Z" fill="black" fill-opacity="0.2"/>
<path fill-rule="evenodd" clip-rule="evenodd" d="M1391.41 1280.44L1461.84 1295.4L1405.82 1352.17L1391.41 1280.44Z" fill="#D1D1D1"/>
<path fill-rule="evenodd" clip-rule="evenodd" d="M1391.61 1279.48L1462.13 1294.02C1462.64 1294.13 1463.04 1294.5 1463.19 1294.99C1463.34 1295.49 1463.2 1296.02 1462.84 1296.39C1462.84 1296.39 1452.38 1307.07 1440.47 1319.13C1424.86 1334.93 1406.76 1353.1 1406.76 1353.1C1406.42 1353.45 1405.91 1353.58 1405.44 1353.44C1404.97 1353.3 1404.62 1352.91 1404.52 1352.43L1390.45 1280.63C1390.38 1280.31 1390.49 1279.98 1390.72 1279.74C1390.95 1279.51 1391.29 1279.41 1391.61 1279.48ZM1392.67 1281.72L1406.61 1349.47C1411.48 1344.5 1425.71 1329.96 1438.39 1317.08C1447.34 1308 1455.52 1299.76 1459.03 1296.23L1392.67 1281.72Z" fill="black"/>
<path fill-rule="evenodd" clip-rule="evenodd" d="M1425.88 1235.74L1460.78 1293.68L1390.33 1278.7L1425.88 1235.74Z" fill="#D1D1D1"/>
<path fill-rule="evenodd" clip-rule="evenodd" d="M1426.72 1235.24L1462 1292.95C1462.29 1293.43 1462.27 1294.05 1461.94 1294.51C1461.61 1294.98 1461.04 1295.2 1460.48 1295.08C1460.48 1295.08 1447.26 1292.32 1432.29 1289.11C1412.68 1284.9 1390.06 1279.95 1390.06 1279.95C1389.62 1279.86 1389.26 1279.55 1389.11 1279.12C1388.96 1278.7 1389.05 1278.23 1389.33 1277.88L1425.12 1235.12C1425.33 1234.87 1425.63 1234.74 1425.95 1234.77C1426.27 1234.79 1426.56 1234.96 1426.72 1235.24ZM1425.75 1237.45L1392.67 1277.87C1398.7 1279.12 1416.82 1282.88 1432.9 1286.27C1443.43 1288.5 1453.08 1290.57 1457.88 1291.6L1425.75 1237.45Z" fill="black"/>
<path fill-rule="evenodd" clip-rule="evenodd" d="M1473.88 1275.06L1462.41 1294.8L1427.3 1236.59L1473.88 1275.06Z" fill="#E7E7E7"/>
<path fill-rule="evenodd" clip-rule="evenodd" d="M1474.72 1275.56L1463.46 1295.41C1463.24 1295.78 1462.85 1296.01 1462.41 1296.01C1461.98 1296.02 1461.59 1295.79 1461.36 1295.42C1461.36 1295.42 1452.43 1280.97 1443.61 1266.44C1434.8 1251.91 1426.11 1237.31 1426.11 1237.31C1425.76 1236.73 1425.88 1235.98 1426.39 1235.54C1426.9 1235.1 1427.66 1235.09 1428.18 1235.52L1474.5 1274.31C1474.87 1274.61 1474.96 1275.14 1474.72 1275.56ZM1472.6 1275.29C1472.6 1275.29 1432.69 1242.78 1432.7 1242.78C1436.09 1248.37 1441.11 1256.65 1446.09 1264.95C1453.01 1276.49 1459.87 1288.09 1462.41 1292.4L1472.6 1275.29Z" fill="black"/>
<path fill-rule="evenodd" clip-rule="evenodd" d="M1474.23 1275.46L1465.57 1336.03L1463 1294.71L1474.23 1275.46Z" fill="#E7E7E7"/>
<path fill-rule="evenodd" clip-rule="evenodd" d="M1475.2 1275.6C1475.2 1275.6 1472.7 1295.12 1470.4 1312C1468.65 1324.89 1467 1336.23 1467 1336.23C1466.9 1336.97 1466.25 1337.51 1465.51 1337.48C1464.77 1337.45 1464.17 1336.86 1464.12 1336.12L1461.82 1294.79C1461.81 1294.55 1461.86 1294.32 1461.98 1294.12L1473.38 1274.97C1473.62 1274.57 1474.11 1274.38 1474.55 1274.54C1474.99 1274.69 1475.26 1275.14 1475.2 1275.6ZM1472.43 1280.59L1464.21 1294.99C1464.21 1294.99 1466.08 1322.29 1466.08 1322.28C1466.56 1319.02 1467.09 1315.38 1467.66 1311.61C1469.38 1300.16 1471.34 1287.52 1472.43 1280.59Z" fill="black"/>
<path fill-rule="evenodd" clip-rule="evenodd" d="M1425.94 1235.74L1389.48 1277.71L1362.59 1254.46L1425.94 1235.74Z" fill="#A4A4A4"/>
<path fill-rule="evenodd" clip-rule="evenodd" d="M1426.68 1236.39C1426.68 1236.39 1417.69 1246.99 1408.66 1257.55C1399.63 1268.12 1390.57 1278.65 1390.57 1278.65C1390.05 1279.25 1389.14 1279.31 1388.55 1278.8L1361.68 1255.52C1361.29 1255.19 1361.11 1254.66 1361.22 1254.16C1361.33 1253.66 1361.7 1253.26 1362.2 1253.12L1425.66 1234.8C1426.08 1234.68 1426.53 1234.85 1426.76 1235.21C1427 1235.58 1426.96 1236.06 1426.68 1236.39ZM1422.9 1237.68L1365.44 1255.07L1389.34 1275.7C1391.91 1272.78 1399.32 1264.33 1406.76 1255.9C1413.17 1248.65 1419.59 1241.41 1422.9 1237.68Z" fill="black"/>
<path fill-rule="evenodd" clip-rule="evenodd" d="M1389.12 1278.58L1348.21 1318.7L1360.83 1255.57L1389.12 1278.58Z" fill="#636363"/>
<path fill-rule="evenodd" clip-rule="evenodd" d="M1389.8 1279.28C1389.8 1279.28 1379.7 1289.43 1369.55 1299.54C1359.4 1309.65 1349.22 1319.73 1349.22 1319.73C1348.76 1320.17 1348.08 1320.26 1347.52 1319.96C1346.97 1319.66 1346.67 1319.03 1346.8 1318.42C1346.8 1318.42 1349.13 1306.58 1351.85 1293.17C1355.41 1275.6 1359.62 1255.33 1359.62 1255.33C1359.7 1254.91 1360 1254.56 1360.41 1254.41C1360.82 1254.26 1361.27 1254.34 1361.61 1254.61L1389.74 1277.82C1389.95 1278 1390.08 1278.26 1390.1 1278.54C1390.11 1278.82 1390 1279.09 1389.8 1279.28ZM1387.63 1278.65C1387.63 1278.65 1361.65 1257.82 1361.65 1257.82C1360.58 1263.37 1357.48 1279.45 1354.67 1293.73C1353.02 1302.06 1351.47 1309.78 1350.53 1314.43C1354.4 1310.69 1361.08 1304.21 1367.78 1297.74C1376.38 1289.43 1385.02 1281.16 1387.63 1278.65Z" fill="black"/>
<path fill-rule="evenodd" clip-rule="evenodd" d="M1404.72 1352.96L1463.82 1338.3L1462.06 1294.77L1404.72 1352.96Z" fill="#D1D1D1"/>
<path fill-rule="evenodd" clip-rule="evenodd" d="M1404.02 1352.27L1461.05 1293.78C1461.44 1293.38 1462.04 1293.25 1462.57 1293.45C1463.09 1293.65 1463.45 1294.15 1463.47 1294.71L1465.24 1338.24C1465.26 1338.92 1464.81 1339.51 1464.16 1339.68L1404.95 1353.91C1404.53 1354.02 1404.08 1353.83 1403.86 1353.45C1403.65 1353.06 1403.71 1352.59 1404.02 1352.27ZM1407.93 1351.13L1462.36 1337.22L1460.77 1298.06L1407.93 1351.13Z" fill="black"/>
<path fill-rule="evenodd" clip-rule="evenodd" d="M1404.06 1353.45L1404.68 1363.47L1464.39 1337.94L1404.06 1353.45Z" fill="#BABABA"/>
<path fill-rule="evenodd" clip-rule="evenodd" d="M1403.82 1352.5L1464.04 1336.56C1464.76 1336.37 1465.5 1336.77 1465.74 1337.48C1465.98 1338.18 1465.64 1338.96 1464.95 1339.25C1464.95 1339.25 1450.05 1345.68 1435.09 1351.99C1420.13 1358.3 1405.11 1364.48 1405.11 1364.48C1404.78 1364.62 1404.41 1364.59 1404.1 1364.41C1403.8 1364.22 1403.6 1363.89 1403.58 1363.54L1403.09 1353.51C1403.06 1353.04 1403.36 1352.62 1403.82 1352.5ZM1405.1 1354.2L1405.67 1361.82C1409.72 1360.03 1421.83 1354.68 1433.99 1349.41C1438.57 1347.42 1443.17 1345.45 1447.33 1343.66L1405.1 1354.2Z" fill="black"/>
<path fill-rule="evenodd" clip-rule="evenodd" d="M1348.62 1320.99L1403.86 1362.82L1404.43 1352.52L1348.62 1320.99Z" fill="#777777"/>
<path fill-rule="evenodd" clip-rule="evenodd" d="M1349.1 1320.14L1405.12 1351.29C1405.59 1351.55 1405.87 1352.06 1405.84 1352.6L1405.31 1362.9C1405.28 1363.43 1404.96 1363.91 1404.47 1364.14C1403.98 1364.36 1403.41 1364.3 1402.98 1363.98C1402.98 1363.98 1392.61 1356.15 1380.93 1347.19C1365.62 1335.45 1348.03 1321.77 1348.03 1321.77C1347.62 1321.46 1347.51 1320.88 1347.8 1320.45C1348.08 1320.02 1348.65 1319.88 1349.1 1320.14ZM1362.84 1330.28C1368.79 1334.7 1375.93 1340 1382.6 1344.98C1391.14 1351.37 1398.93 1357.26 1402.57 1360.02L1402.96 1353.32L1362.84 1330.28Z" fill="black"/>
<path fill-rule="evenodd" clip-rule="evenodd" d="M1390.27 1279.02L1404.03 1352.43L1348.18 1320.37L1390.27 1279.02Z" fill="#8D8D8D"/>
<path fill-rule="evenodd" clip-rule="evenodd" d="M1391.23 1278.84C1391.23 1278.84 1394.84 1297.16 1398.39 1315.49C1401.95 1333.82 1405.45 1352.16 1405.45 1352.16C1405.55 1352.71 1405.32 1353.28 1404.86 1353.61C1404.4 1353.93 1403.79 1353.96 1403.31 1353.68C1403.31 1353.68 1392.82 1347.7 1380.97 1340.86C1365.44 1331.9 1347.53 1321.5 1347.53 1321.5C1347.18 1321.3 1346.95 1320.94 1346.89 1320.54C1346.84 1320.14 1346.98 1319.73 1347.27 1319.45L1389.58 1278.32C1389.84 1278.07 1390.21 1277.98 1390.56 1278.09C1390.9 1278.2 1391.16 1278.49 1391.23 1278.84ZM1389.63 1281.04L1350.31 1320.09C1354.92 1322.7 1369.51 1330.98 1382.41 1338.35C1390.63 1343.05 1398.17 1347.39 1402.03 1349.61C1400.93 1343.63 1398.4 1329.79 1395.89 1315.96C1393.19 1301.05 1390.53 1286.13 1389.63 1281.04Z" fill="black"/>
<path fill-rule="evenodd" clip-rule="evenodd" d="M1425.7 1257.44C1425.65 1257.43 1425.59 1257.4 1425.62 1257.38C1425.66 1257.34 1425.69 1257.37 1425.7 1257.44ZM1425.7 1257.44C1425.74 1257.44 1425.77 1257.44 1425.78 1257.41C1425.88 1256.86 1424.57 1257.54 1423.94 1257.81C1422.13 1258.6 1420.5 1259.87 1420.5 1259.87L1418.75 1261.41L1415.66 1257.92L1417.41 1256.37C1417.41 1256.37 1419.55 1254.35 1421.96 1253.1C1423.51 1252.3 1425.18 1251.92 1426.61 1252.09C1428.55 1252.33 1430.28 1253.49 1431.17 1256.4C1431.9 1258.88 1431.11 1261.57 1429.21 1264.02C1428.11 1265.44 1426.62 1266.78 1425.09 1267.95L1428.96 1268.27L1431.29 1268.39L1431.05 1273.05L1428.72 1272.93L1416.59 1272.68C1415.37 1272.61 1414.34 1271.74 1414.08 1270.54C1413.82 1269.34 1414.4 1268.12 1415.49 1267.56C1415.49 1267.56 1419.31 1265.43 1422.44 1262.66C1423.43 1261.78 1424.36 1260.85 1425.02 1259.87C1425.48 1259.2 1425.94 1258.56 1425.77 1257.88C1425.73 1257.75 1425.73 1257.54 1425.7 1257.44Z" fill="black"/>
<path fill-rule="evenodd" clip-rule="evenodd" d="M1417.47 1297.46C1422.19 1297.82 1424.21 1299.7 1424.88 1301.52C1425.37 1302.85 1425.22 1304.43 1424.43 1306.13C1423.84 1307.38 1422.82 1308.74 1421.56 1310.09C1423.65 1313.18 1423.69 1316.1 1422.85 1318.37C1421.41 1322.26 1416.94 1324.55 1412.95 1323.82C1408.91 1323.02 1406.8 1320.17 1407.23 1316.51C1407.47 1314.49 1408.67 1311.98 1411.33 1309.48C1409.27 1306.51 1408.89 1303.29 1409.89 1301.06C1410.95 1298.74 1413.36 1296.92 1417.47 1297.46ZM1416.51 1312.33C1414.74 1313.78 1413.65 1315.17 1413.18 1316.43C1413.01 1316.89 1412.91 1317.29 1413.08 1317.6C1413.24 1317.9 1413.63 1318.01 1414.07 1318.1C1415.45 1318.39 1417.05 1317.67 1417.59 1316.34C1418.03 1315.23 1417.71 1313.88 1416.51 1312.33ZM1416.72 1307.44C1417.87 1306.44 1418.88 1305.42 1419.55 1304.43C1419.79 1304.07 1420 1303.74 1420.11 1303.41C1420.14 1303.29 1420.24 1303.21 1420.21 1303.12C1420.14 1302.87 1419.84 1302.79 1419.45 1302.65C1418.82 1302.4 1418.01 1302.22 1417.01 1302.1C1415.44 1301.99 1414.49 1302.52 1414.48 1303.57C1414.47 1304.81 1415.32 1306.2 1416.72 1307.44Z" fill="black"/>
<path fill-rule="evenodd" clip-rule="evenodd" d="M1456.34 1323.52L1456.65 1322.74L1460.98 1324.48L1460.11 1326.64L1459.07 1330.14C1458.7 1331.05 1457.86 1331.69 1456.88 1331.8C1455.89 1331.9 1454.93 1331.45 1454.38 1330.63C1454.38 1330.63 1452.58 1328.52 1451.11 1326.17C1449.63 1323.81 1448.52 1321.26 1448.52 1321.26L1447.22 1319.33L1451.1 1316.73L1452.39 1318.67C1452.39 1318.67 1454.32 1320.67 1455.94 1322.94C1456.08 1323.13 1456.21 1323.33 1456.34 1323.52Z" fill="black"/>
<path fill-rule="evenodd" clip-rule="evenodd" d="M1444.07 1321.71C1444.8 1321.82 1445.69 1322.29 1446.61 1323.13C1447.96 1324.36 1449.55 1326.65 1450.71 1328.88C1451.65 1330.67 1452.27 1332.44 1452.44 1333.62C1452.63 1334.97 1452.22 1335.97 1451.77 1336.59C1451.38 1337.14 1450.38 1337.87 1448.82 1338.35C1446.93 1338.94 1443.86 1339.39 1441.07 1339.33C1439.15 1339.29 1437.36 1339 1436.09 1338.48C1434.71 1337.92 1433.76 1337.07 1433.27 1336.12C1432.89 1335.37 1432.66 1334.48 1432.75 1333.45C1432.89 1331.94 1433.74 1329.89 1435.12 1327.97C1436.77 1325.68 1439.03 1323.48 1440.78 1322.48C1442.09 1321.74 1443.26 1321.52 1444.07 1321.71ZM1438.43 1333.75C1438.1 1333.61 1437.96 1333.38 1438.12 1333.03C1438.19 1332.89 1438.27 1333.27 1438.32 1333.37C1438.39 1333.48 1438.6 1333.77 1438.44 1333.75C1438.44 1333.75 1438.44 1333.75 1438.43 1333.75C1439.66 1334.26 1443.58 1333.57 1445.5 1333.32C1445.92 1333.26 1446.42 1333.24 1446.85 1333.21C1446.39 1331.59 1445.32 1329.37 1444.23 1327.75C1443.92 1327.3 1443.29 1326.93 1443.05 1326.62C1442.76 1326.94 1442.42 1327.39 1442.12 1327.69C1440.47 1329.39 1436.71 1333.54 1438.43 1333.75ZM1447.5 1333.14C1447.78 1333.09 1447.93 1333 1447.85 1332.85C1447.75 1332.69 1447.61 1332.96 1447.5 1333.14ZM1443.36 1326.33C1443.52 1326.38 1443.75 1326.47 1443.7 1326.33C1443.64 1326.18 1443.51 1326.2 1443.36 1326.33Z" fill="black"/>
<path fill-rule="evenodd" clip-rule="evenodd" d="M1451.24 1266.7L1447.72 1266.82L1447.65 1264.98L1447.2 1260.33C1447.17 1259.4 1447.74 1258.55 1448.63 1258.24C1449.51 1257.93 1450.49 1258.24 1451.05 1258.99C1451.05 1258.99 1453.24 1261.63 1455.52 1264.78C1458.51 1268.92 1461.68 1273.88 1461.68 1273.88L1462.77 1275.36L1459.81 1277.54L1458.71 1276.06C1458.71 1276.06 1454.91 1271.57 1451.84 1267.5C1451.63 1267.23 1451.44 1266.96 1451.24 1266.7Z" fill="black"/>
<path fill-rule="evenodd" clip-rule="evenodd" d="M1466.36 1306.94L1464.19 1306.51L1464.41 1305.37L1466.98 1290.65C1467.13 1289.9 1467.84 1289.39 1468.6 1289.48C1469.36 1289.58 1469.92 1290.24 1469.88 1291.01L1468.56 1310.43L1468.5 1311.59L1466.17 1311.47L1466.23 1310.31L1466.36 1306.94Z" fill="black"/>
<path fill-rule="evenodd" clip-rule="evenodd" d="M1381.89 1251.3L1382.89 1250.06L1385.38 1252.05L1384.39 1253.3L1381.03 1257.76L1382.96 1258.73C1384.63 1255.24 1386.63 1253.04 1388.51 1251.87C1390.63 1250.55 1392.68 1250.42 1394.22 1251.03C1395.57 1251.56 1396.64 1252.61 1397.15 1254.18C1397.98 1256.72 1397.29 1261.03 1392.97 1265.99L1391.95 1267.21L1389.5 1265.17L1390.52 1263.95C1393.02 1260.8 1393.99 1258.16 1393.86 1256.25C1393.8 1255.41 1393.5 1254.78 1392.9 1254.56C1392.26 1254.34 1391.47 1254.62 1390.61 1255.18C1388.91 1256.27 1387.17 1258.52 1385.76 1262.13C1385.56 1262.65 1385.14 1263.06 1384.62 1263.26C1384.09 1263.45 1383.51 1263.42 1383.01 1263.15L1377.39 1260.03C1376.91 1259.77 1376.56 1259.31 1376.45 1258.78C1376.34 1258.24 1376.48 1257.69 1376.82 1257.26L1381.89 1251.3Z" fill="black"/>
<path fill-rule="evenodd" clip-rule="evenodd" d="M1376.76 1309.72L1378.57 1308.68L1379.37 1310.05C1379.37 1310.05 1382.09 1314.55 1383.35 1318.28C1384 1320.19 1384.18 1321.95 1383.83 1323.07C1383.44 1324.35 1382.54 1325.16 1381 1325.31C1379.68 1325.45 1377.34 1324.78 1373.71 1322.48C1370.2 1320.21 1369.57 1316.86 1370.67 1313.23C1371.55 1310.36 1373.63 1307.28 1375.87 1304.64C1379.14 1300.79 1382.71 1297.88 1382.71 1297.88L1383.91 1296.83L1386.01 1299.24L1384.8 1300.29C1384.8 1300.29 1379.96 1304.76 1376.76 1309.72ZM1376.11 1310.79C1375.83 1311.27 1375.57 1311.74 1375.34 1312.22C1374.03 1314.9 1373.35 1317.56 1375.86 1319.2C1378.06 1320.69 1379.51 1321.47 1380.49 1321.59C1380.46 1321.25 1380.31 1320.72 1380.23 1320.35C1380.16 1320.03 1380.08 1319.69 1379.98 1319.35C1378.96 1315.88 1376.61 1311.66 1376.61 1311.66L1376.11 1310.79ZM1380.5 1321.71C1380.38 1321.79 1380.26 1321.88 1380.34 1321.92C1380.47 1321.98 1380.51 1321.89 1380.5 1321.71Z" fill="black"/>
<path fill-rule="evenodd" clip-rule="evenodd" d="M1369.31 1276.83C1370.04 1276.74 1370.75 1276.78 1371.37 1276.97C1372.98 1277.48 1374.55 1278.9 1374.25 1282.62C1374.03 1285.27 1372.9 1287.38 1371.38 1289.01C1368.04 1292.56 1362.85 1293.74 1362.85 1293.74L1361.3 1294.12L1360.54 1291.02L1362.09 1290.64C1362.09 1290.64 1365.34 1289.77 1367.86 1287.52C1369.24 1286.3 1370.39 1284.62 1370.5 1282.38C1370.54 1281.54 1370.52 1280.98 1370.25 1280.68C1370.16 1280.57 1370 1280.69 1369.85 1280.71C1369.52 1280.75 1369.18 1280.86 1368.85 1280.98C1367.38 1281.53 1366.03 1282.52 1366.03 1282.52C1365.27 1283.07 1364.23 1283.02 1363.53 1282.4C1362.82 1281.78 1362.65 1280.75 1363.1 1279.93L1363.53 1279.19L1361.29 1280.77L1360.01 1281.73L1358.1 1279.18L1359.37 1278.22L1368.23 1271.21C1368.95 1270.68 1369.94 1270.71 1370.61 1271.3C1371.28 1271.88 1371.45 1272.86 1371.02 1273.63L1369.31 1276.83Z" fill="black"/>
</g>
<defs>
<clipPath id="clip0_1502_5313">
<rect width="2160" height="2700" fill="white"/>
</clipPath>
</defs>
</svg>
