<svg width="2160" height="2700" viewBox="0 0 2160 2700" fill="none" xmlns="http://www.w3.org/2000/svg">
<g clip-path="url(#clip0_626_1685)">
<path d="M1522.13 368.952H1602.21V390.741H1522.13V368.952Z" fill="#FF050B"/>
<path fill-rule="evenodd" clip-rule="evenodd" d="M1522.13 368.952H1602.21V390.742H1522.13V368.952ZM1526.13 372.952V386.742H1598.21V372.952H1526.13Z" fill="black"/>
<path d="M1322.82 655.995L1362.21 586.271L1381.18 596.989L1341.79 666.712L1322.82 655.995Z" fill="#FF050B"/>
<path fill-rule="evenodd" clip-rule="evenodd" d="M1322.82 655.996L1362.21 586.271L1381.18 596.989L1341.79 666.714L1322.82 655.996ZM1328.27 654.48L1340.27 661.263L1375.73 598.505L1363.72 591.722L1328.27 654.48Z" fill="black"/>
<path d="M476.669 911.285L492.277 832.74L513.648 836.987L498.04 915.532L476.669 911.285Z" fill="#FF050B"/>
<path fill-rule="evenodd" clip-rule="evenodd" d="M476.669 911.286L492.277 832.74L513.649 836.987L498.041 915.533L476.669 911.286ZM481.372 908.142L494.897 910.83L508.946 840.131L495.421 837.443L481.372 908.142Z" fill="black"/>
<path d="M676.334 420.604L660.311 342.143L681.659 337.783L697.682 416.244L676.334 420.604Z" fill="#FF050B"/>
<path fill-rule="evenodd" clip-rule="evenodd" d="M676.334 420.605L660.311 342.143L681.66 337.783L697.683 416.245L676.334 420.605ZM679.453 415.885L692.964 413.126L678.541 342.502L665.03 345.261L679.453 415.885Z" fill="black"/>
<path d="M1766.97 1206.3L1750.95 1127.84L1772.3 1123.48L1788.32 1201.94L1766.97 1206.3Z" fill="#FF050B"/>
<path fill-rule="evenodd" clip-rule="evenodd" d="M1766.97 1206.3L1750.95 1127.84L1772.3 1123.48L1788.32 1201.94L1766.97 1206.3ZM1770.09 1201.58L1783.6 1198.83L1769.18 1128.2L1755.67 1130.96L1770.09 1201.58Z" fill="black"/>
<path d="M1842.49 583.447L1826.47 504.985L1847.82 500.626L1863.84 579.087L1842.49 583.447Z" fill="#FF050B"/>
<path fill-rule="evenodd" clip-rule="evenodd" d="M1842.49 583.447L1826.47 504.985L1847.82 500.625L1863.84 579.088L1842.49 583.447ZM1845.61 578.728L1859.12 575.969L1844.7 505.345L1831.19 508.104L1845.61 578.728Z" fill="black"/>
<path d="M398.923 1325.8L382.9 1247.34L404.249 1242.98L420.272 1321.44L398.923 1325.8Z" fill="#FF050B"/>
<path fill-rule="evenodd" clip-rule="evenodd" d="M398.924 1325.8L382.9 1247.34L404.25 1242.98L420.273 1321.44L398.924 1325.8ZM402.043 1321.09L415.553 1318.33L401.131 1247.7L387.62 1250.46L402.043 1321.09Z" fill="black"/>
<path d="M1577.96 2254.8L1561.94 2176.34L1583.29 2171.98L1599.31 2250.44L1577.96 2254.8Z" fill="#FF050B"/>
<path fill-rule="evenodd" clip-rule="evenodd" d="M1577.96 2254.8L1561.94 2176.34L1583.29 2171.98L1599.31 2250.44L1577.96 2254.8ZM1581.08 2250.08L1594.59 2247.32L1580.17 2176.7L1566.66 2179.46L1581.08 2250.08Z" fill="black"/>
<path d="M1838.45 1942.06L1899.96 1890.77L1913.91 1907.51L1852.4 1958.79L1838.45 1942.06Z" fill="#FF050B"/>
<path fill-rule="evenodd" clip-rule="evenodd" d="M1838.45 1942.06L1899.96 1890.77L1913.91 1907.51L1852.4 1958.79L1838.45 1942.06ZM1844.08 1942.57L1852.91 1953.16L1908.28 1907L1899.45 1896.41L1844.08 1942.57Z" fill="black"/>
<path d="M201.133 972.617L262.64 921.335L276.593 938.07L215.086 989.352L201.133 972.617Z" fill="#FF050B"/>
<path fill-rule="evenodd" clip-rule="evenodd" d="M201.132 972.617L262.64 921.335L276.593 938.071L215.086 989.353L201.132 972.617ZM206.766 973.128L215.597 983.719L270.96 937.56L262.129 926.969L206.766 973.128Z" fill="black"/>
<path d="M801.553 273.803L863.06 222.521L877.013 239.257L815.506 290.539L801.553 273.803Z" fill="#FF050B"/>
<path fill-rule="evenodd" clip-rule="evenodd" d="M801.552 273.804L863.06 222.521L877.013 239.258L815.506 290.54L801.552 273.804ZM807.186 274.315L816.017 284.906L871.379 238.747L862.549 228.155L807.186 274.315Z" fill="black"/>
<path d="M1732.65 280.989L1740.54 201.297L1762.22 203.442L1754.34 283.134L1732.65 280.989Z" fill="#00A8E4"/>
<path fill-rule="evenodd" clip-rule="evenodd" d="M1732.65 280.989L1740.54 201.297L1762.22 203.442L1754.34 283.135L1732.65 280.989ZM1737.03 277.402L1750.75 278.76L1757.85 207.029L1744.12 205.671L1737.03 277.402Z" fill="black"/>
<path d="M422.249 400.649L346.446 374.825L353.473 354.2L429.275 380.024L422.249 400.649Z" fill="#00A8E4"/>
<path fill-rule="evenodd" clip-rule="evenodd" d="M422.25 400.649L346.446 374.825L353.473 354.199L429.276 380.024L422.25 400.649ZM419.753 395.573L424.2 382.52L355.97 359.276L351.523 372.329L419.753 395.573Z" fill="black"/>
<path d="M1888.47 1568.42L1812.66 1542.6L1819.69 1521.97L1895.49 1547.8L1888.47 1568.42Z" fill="#00A8E4"/>
<path fill-rule="evenodd" clip-rule="evenodd" d="M1888.47 1568.42L1812.66 1542.6L1819.69 1521.97L1895.49 1547.8L1888.47 1568.42ZM1885.97 1563.35L1890.42 1550.29L1822.19 1527.05L1817.74 1540.1L1885.97 1563.35Z" fill="black"/>
<path d="M911.031 935.72L835.228 909.896L842.255 889.27L918.057 915.094L911.031 935.72Z" fill="#00A8E4"/>
<path fill-rule="evenodd" clip-rule="evenodd" d="M911.031 935.72L835.228 909.896L842.255 889.27L918.058 915.094L911.031 935.72ZM908.535 930.643L912.982 917.59L844.751 894.346L840.304 907.399L908.535 930.643Z" fill="black"/>
<path d="M1470.15 2153.63L1390.14 2150.35L1391.03 2128.57L1471.04 2131.86L1470.15 2153.63Z" fill="#00A8E4"/>
<path fill-rule="evenodd" clip-rule="evenodd" d="M1470.15 2153.63L1390.14 2150.35L1391.03 2128.57L1471.05 2131.86L1470.15 2153.63ZM1466.32 2149.47L1466.88 2135.69L1394.86 2132.74L1394.3 2146.51L1466.32 2149.47Z" fill="black"/>
<path d="M578.717 2158.79L553.413 2234.77L532.74 2227.88L558.044 2151.91L578.717 2158.79Z" fill="#00A8E4"/>
<path fill-rule="evenodd" clip-rule="evenodd" d="M578.717 2158.79L553.413 2234.77L532.739 2227.88L558.043 2151.91L578.717 2158.79ZM573.658 2161.32L560.575 2156.96L537.799 2225.35L550.882 2229.71L573.658 2161.32Z" fill="black"/>
<path d="M277.082 1157.9L251.778 1233.88L231.105 1226.99L256.409 1151.01L277.082 1157.9Z" fill="#00A8E4"/>
<path fill-rule="evenodd" clip-rule="evenodd" d="M277.082 1157.9L251.778 1233.88L231.105 1226.99L256.409 1151.01L277.082 1157.9ZM272.023 1160.43L258.94 1156.07L236.164 1224.46L249.247 1228.82L272.023 1160.43Z" fill="black"/>
<path d="M1610.6 678.122L1659.58 741.473L1642.35 754.801L1593.36 691.451L1610.6 678.122Z" fill="#00A8E4"/>
<path fill-rule="evenodd" clip-rule="evenodd" d="M1610.6 678.122L1659.58 741.473L1642.34 754.802L1593.36 691.451L1610.6 678.122ZM1609.88 683.733L1598.97 692.169L1643.06 749.191L1653.97 740.755L1609.88 683.733Z" fill="black"/>
<path d="M1428.26 481.457L1477.25 544.808L1460.01 558.136L1411.02 494.786L1428.26 481.457Z" fill="#F2E83A"/>
<path fill-rule="evenodd" clip-rule="evenodd" d="M1428.26 481.457L1477.25 544.808L1460.01 558.137L1411.02 494.786L1428.26 481.457ZM1427.54 487.068L1416.63 495.503L1460.72 552.525L1471.63 544.09L1427.54 487.068Z" fill="black"/>
<path d="M409.293 158.118L427.729 236.048L406.526 241.064L388.089 163.135L409.293 158.118Z" fill="#F2E83A"/>
<path fill-rule="evenodd" clip-rule="evenodd" d="M409.293 158.118L427.729 236.048L406.525 241.065L388.088 163.134L409.293 158.118ZM406.321 162.931L392.902 166.106L409.497 236.251L422.916 233.076L406.321 162.931Z" fill="black"/>
<path d="M367.476 1074.28L335.323 1147.62L315.367 1138.87L347.521 1065.53L367.476 1074.28Z" fill="#F2E83A"/>
<path fill-rule="evenodd" clip-rule="evenodd" d="M367.477 1074.28L335.323 1147.62L315.366 1138.87L347.52 1065.53L367.477 1074.28ZM362.207 1076.33L349.578 1070.8L320.636 1136.81L333.265 1142.35L362.207 1076.33Z" fill="black"/>
<path d="M1603.91 1320.95L1571.75 1394.29L1551.8 1385.54L1583.95 1312.2L1603.91 1320.95Z" fill="#F2E83A"/>
<path fill-rule="evenodd" clip-rule="evenodd" d="M1603.91 1320.95L1571.75 1394.29L1551.8 1385.54L1583.95 1312.2L1603.91 1320.95ZM1598.64 1323.01L1586.01 1317.47L1557.07 1383.48L1569.69 1389.02L1598.64 1323.01Z" fill="black"/>
<path d="M1417.74 2280.78L1385.59 2354.12L1365.63 2345.38L1397.78 2272.03L1417.74 2280.78Z" fill="#F2E83A"/>
<path fill-rule="evenodd" clip-rule="evenodd" d="M1417.74 2280.78L1385.59 2354.12L1365.63 2345.38L1397.78 2272.03L1417.74 2280.78ZM1412.47 2282.84L1399.84 2277.3L1370.9 2343.32L1383.53 2348.86L1412.47 2282.84Z" fill="black"/>
<path d="M705.317 2142.94L769.386 2190.98L756.314 2208.41L692.245 2160.37L705.317 2142.94Z" fill="#F2E83A"/>
<path fill-rule="evenodd" clip-rule="evenodd" d="M705.316 2142.94L769.386 2190.98L756.313 2208.41L692.244 2160.37L705.316 2142.94ZM706.116 2148.54L697.844 2159.57L755.513 2202.81L763.786 2191.78L706.116 2148.54Z" fill="black"/>
<path d="M1887.81 1203.21L1951.87 1251.25L1938.8 1268.68L1874.73 1220.64L1887.81 1203.21Z" fill="#F2E83A"/>
<path fill-rule="evenodd" clip-rule="evenodd" d="M1887.8 1203.21L1951.87 1251.25L1938.8 1268.68L1874.73 1220.64L1887.8 1203.21ZM1888.61 1208.81L1880.33 1219.84L1938 1263.08L1946.27 1252.05L1888.61 1208.81Z" fill="black"/>
<path d="M581.378 417.126L645.447 465.168L632.375 482.601L568.306 434.558L581.378 417.126Z" fill="#F2E83A"/>
<path fill-rule="evenodd" clip-rule="evenodd" d="M581.377 417.125L645.447 465.168L632.375 482.601L568.305 434.559L581.377 417.125ZM582.178 422.725L573.905 433.758L631.574 477.001L639.847 465.969L582.178 422.725Z" fill="black"/>
<path fill-rule="evenodd" clip-rule="evenodd" d="M-71.7347 406.922C-71.5885 430.802 -123.243 612.539 -88.1721 581.314C30.6274 723.201 163.069 835.025 318.126 959.13C415.358 1036.95 523.353 1109.79 647.531 1166.78C718.433 1199.33 794.88 1226.5 876.125 1244.47C926.96 1255.71 979.533 1263.28 1032.8 1266.53C1344.81 1285.57 1623.46 1152.4 1837.96 1007.46C1875.64 982.007 1912.09 955.683 1947.5 928.714C1994.69 892.788 2040.04 855.717 2083.93 817.845C2138.95 770.382 2388.11 577.161 2448.77 510.736C2449.06 485.82 2422.14 380.916 2422.75 356.006C2356.83 484.695 2174.22 665.518 2112.43 730.898C2073.45 772.135 1996.85 834.891 1951.56 871.093C1915.99 899.546 1879.34 927.368 1841.43 954.331C1651.3 1089.51 1409.26 1220.59 1127.68 1231.81C1091.25 1233.27 1054.69 1232.63 1018.47 1229.89C963.275 1225.73 909.036 1216.69 856.929 1203.67C775.362 1183.28 699.352 1153.37 629.269 1118.28C506.826 1056.97 401.33 980.336 306.442 899.214C155.734 770.366 43.6116 552.145 -71.7347 406.922Z" fill="#F8F7E9" stroke="black" stroke-width="11.6168" stroke-miterlimit="1.5" stroke-linecap="round" stroke-linejoin="round"/>
<path fill-rule="evenodd" clip-rule="evenodd" d="M-113.635 1117.46C-115.4 1143.26 -117.216 1169.07 -119.071 1194.86C188.209 1392.4 561.455 1566.98 989.545 1597.98C1053.37 1602.6 1117.72 1603.95 1181.92 1601.94C1280.7 1598.86 1378.92 1587.79 1474.52 1569.79C1620.99 1542.21 1760.67 1498.63 1891.63 1445.28C2095.39 1362.25 2278.8 1256.31 2446.96 1141.43C2445.54 1114.96 2444.17 1088.48 2442.86 1061.99C2392.33 1099.13 2340.42 1135.37 2286.93 1170.45C2000.69 1358.13 1651.42 1525.64 1251.91 1556.66C1193.71 1561.18 1135.08 1562.72 1076.64 1561.21C984.122 1558.81 892.291 1548.71 803.136 1531.96C663.371 1505.7 530.87 1463.4 407.322 1411.64C215.02 1331.08 43.3785 1228.35 -113.635 1117.46Z" fill="#F8F7E9" stroke="black" stroke-width="11.6168" stroke-miterlimit="1.5" stroke-linecap="round" stroke-linejoin="round"/>
<path fill-rule="evenodd" clip-rule="evenodd" d="M-198.34 1777.2C-200.088 1802.91 -201.78 1828.62 -203.4 1854.33C527.448 1953 1284.7 1998.83 2024.91 1906.94C2167.76 1889.21 2309.37 1866.45 2448.93 1838.5C2447.57 1812.83 2446.17 1787.16 2444.72 1761.48C2024.44 1869.21 1578.71 1919.43 1132.65 1916.92C681.605 1914.39 234.539 1860.29 -198.34 1777.2Z" fill="#F8F7E9" stroke="black" stroke-width="11.6168" stroke-miterlimit="1.5" stroke-linecap="round" stroke-linejoin="round"/>
<path fill-rule="evenodd" clip-rule="evenodd" d="M-296.698 2360.43C-296.714 2384.6 -296.557 2408.77 -296.199 2432.94C168.748 2294.98 673.678 2229.26 1176.96 2236.52C1591.12 2242.5 2002.06 2297.05 2391.29 2392.5C2391.38 2369.83 2391.33 2347.17 2391.15 2324.5C1516.49 2162.39 569.305 2151.5 -296.698 2360.43Z" fill="#F8F7E9" stroke="black" stroke-width="11.6168" stroke-miterlimit="1.5" stroke-linecap="round" stroke-linejoin="round"/>
<path fill-rule="evenodd" clip-rule="evenodd" d="M804.651 -177.624L703.598 -174.364L854.601 514.982L783.113 -14.6833L955.655 511.722L804.651 -177.624Z" fill="#777777" stroke="#8D8D8D" stroke-width="1.66687" stroke-miterlimit="1.5" stroke-linecap="round" stroke-linejoin="round"/>
<path fill-rule="evenodd" clip-rule="evenodd" d="M1663.57 -145.851L1570.22 -149.744L1384.2 507.071L1580.86 1.58486L1477.56 510.964L1663.57 -145.851Z" fill="#777777" stroke="#8D8D8D" stroke-width="1.57599" stroke-miterlimit="1.5" stroke-linecap="round" stroke-linejoin="round"/>
<path fill-rule="evenodd" clip-rule="evenodd" d="M2451.41 -143.242L2362.11 -156.229L1710.03 504.097L2256.93 -8.56304L1803.51 507.727L2451.41 -143.242Z" fill="#777777" stroke="#8D8D8D" stroke-width="1.8059" stroke-miterlimit="1.5" stroke-linecap="round" stroke-linejoin="round"/>
<path fill-rule="evenodd" clip-rule="evenodd" d="M-15.6963 -299.999L-106.733 -290.681L456.672 519.881L117.624 -22.2667L547.709 510.563L-15.6963 -299.999Z" fill="#777777" stroke="#8D8D8D" stroke-width="1.87557" stroke-miterlimit="1.5" stroke-linecap="round" stroke-linejoin="round"/>
<path d="M489.238 223.565H388.54V250.964H489.238V223.565Z" fill="#FF050B"/>
<path fill-rule="evenodd" clip-rule="evenodd" d="M489.239 223.565V250.965H388.54V223.565H489.239ZM485.239 227.565H392.54V246.965H485.239V227.565Z" fill="black"/>
<path d="M739.868 584.508L690.337 496.834L666.482 510.311L716.013 597.985L739.868 584.508Z" fill="#FF050B"/>
<path fill-rule="evenodd" clip-rule="evenodd" d="M739.868 584.509L716.012 597.986L666.481 510.311L690.337 496.834L739.868 584.509ZM734.418 582.994L688.822 502.284L671.931 511.827L717.527 592.536L734.418 582.994Z" fill="black"/>
<path d="M1803.87 905.521L1784.24 806.754L1757.37 812.094L1776.99 910.861L1803.87 905.521Z" fill="#FF050B"/>
<path fill-rule="evenodd" clip-rule="evenodd" d="M1803.87 905.522L1776.99 910.862L1757.36 812.094L1784.24 806.754L1803.87 905.522ZM1799.16 902.378L1781.1 811.457L1762.07 815.238L1780.13 906.159L1799.16 902.378Z" fill="black"/>
<path d="M1552.79 288.515L1572.94 189.854L1546.1 184.371L1525.95 283.033L1552.79 288.515Z" fill="#FF050B"/>
<path fill-rule="evenodd" clip-rule="evenodd" d="M1552.79 288.516L1525.95 283.034L1546.1 184.371L1572.94 189.854L1552.79 288.516ZM1549.68 283.797L1568.22 192.972L1549.22 189.091L1530.67 279.915L1549.68 283.797Z" fill="black"/>
<path d="M181.365 1276.48L201.513 1177.82L174.668 1172.34L154.52 1271L181.365 1276.48Z" fill="#FF050B"/>
<path fill-rule="evenodd" clip-rule="evenodd" d="M181.365 1276.48L154.519 1271L174.667 1172.34L201.513 1177.82L181.365 1276.48ZM178.246 1271.77L196.794 1180.94L177.786 1177.06L159.238 1267.88L178.246 1271.77Z" fill="black"/>
<path d="M86.3971 493.282L106.545 394.62L79.7005 389.138L59.5521 487.8L86.3971 493.282Z" fill="#FF050B"/>
<path fill-rule="evenodd" clip-rule="evenodd" d="M86.3968 493.283L59.5509 487.8L79.6995 389.138L106.545 394.62L86.3968 493.283ZM83.2781 488.563L101.826 397.739L82.8182 393.857L64.2704 484.682L83.2781 488.563Z" fill="black"/>
<path d="M1901.63 1426.75L1921.77 1328.09L1894.93 1322.61L1874.78 1421.27L1901.63 1426.75Z" fill="#FF050B"/>
<path fill-rule="evenodd" clip-rule="evenodd" d="M1901.62 1426.75L1874.78 1421.27L1894.93 1322.61L1921.77 1328.09L1901.62 1426.75ZM1898.51 1422.03L1917.05 1331.21L1898.05 1327.32L1879.5 1418.15L1898.51 1422.03Z" fill="black"/>
<path d="M419.033 2594.92L439.181 2496.26L412.336 2490.78L392.188 2589.44L419.033 2594.92Z" fill="#FF050B"/>
<path fill-rule="evenodd" clip-rule="evenodd" d="M419.033 2594.92L392.187 2589.44L412.335 2490.78L439.181 2496.26L419.033 2594.92ZM415.914 2590.2L434.462 2499.38L415.454 2495.5L396.906 2586.32L415.914 2590.2Z" fill="black"/>
<path d="M91.4832 2201.66L14.1411 2137.17L-3.4046 2158.22L73.9375 2222.7L91.4832 2201.66Z" fill="#FF050B"/>
<path fill-rule="evenodd" clip-rule="evenodd" d="M91.484 2201.66L73.9376 2222.7L-3.40525 2158.22L14.1411 2137.17L91.484 2201.66ZM85.8502 2202.17L14.6518 2142.81L2.2285 2157.71L73.4269 2217.07L85.8502 2202.17Z" fill="black"/>
<path d="M2150.34 982.642L2073 918.157L2055.45 939.201L2132.79 1003.69L2150.34 982.642Z" fill="#FF050B"/>
<path fill-rule="evenodd" clip-rule="evenodd" d="M2150.34 982.643L2132.79 1003.69L2055.45 939.202L2073 918.157L2150.34 982.643ZM2144.7 983.153L2073.51 923.791L2061.08 938.691L2132.28 998.054L2144.7 983.153Z" fill="black"/>
<path d="M1395.34 103.92L1318 39.4355L1300.45 60.4796L1377.79 124.964L1395.34 103.92Z" fill="#FF050B"/>
<path fill-rule="evenodd" clip-rule="evenodd" d="M1395.34 103.921L1377.79 124.966L1300.45 60.4804L1318 39.4355L1395.34 103.921ZM1389.7 104.432L1318.51 45.0693L1306.08 59.9697L1377.28 119.332L1389.7 104.432Z" fill="black"/>
<path d="M224.517 112.955L214.604 12.7461L187.338 15.4436L197.251 115.652L224.517 112.955Z" fill="#00A8E4"/>
<path fill-rule="evenodd" clip-rule="evenodd" d="M224.517 112.956L197.251 115.653L187.337 15.4437L214.604 12.7461L224.517 112.956ZM220.143 109.369L211.017 17.1205L191.711 19.0304L200.837 111.279L220.143 109.369Z" fill="black"/>
<path d="M1872.29 263.423L1967.61 230.95L1958.78 205.015L1863.46 237.487L1872.29 263.423Z" fill="#00A8E4"/>
<path fill-rule="evenodd" clip-rule="evenodd" d="M1872.29 263.423L1863.46 237.487L1958.78 205.014L1967.61 230.95L1872.29 263.423ZM1874.79 258.347L1962.54 228.454L1956.28 210.09L1868.53 239.983L1874.79 258.347Z" fill="black"/>
<path d="M28.5887 1731.83L123.907 1699.36L115.072 1673.43L19.7532 1705.9L28.5887 1731.83Z" fill="#00A8E4"/>
<path fill-rule="evenodd" clip-rule="evenodd" d="M28.5878 1731.83L19.7519 1705.9L115.071 1673.43L123.907 1699.36L28.5878 1731.83ZM31.0842 1726.76L118.831 1696.86L112.575 1678.5L24.8282 1708.39L31.0842 1726.76Z" fill="black"/>
<path d="M1257.67 936.245L1352.99 903.772L1344.16 877.837L1248.84 910.31L1257.67 936.245Z" fill="#00A8E4"/>
<path fill-rule="evenodd" clip-rule="evenodd" d="M1257.67 936.245L1248.84 910.309L1344.16 877.836L1352.99 903.772L1257.67 936.245ZM1260.17 931.169L1347.92 901.276L1341.66 882.912L1253.91 912.806L1260.17 931.169Z" fill="black"/>
<path d="M554.606 2467.71L655.219 2463.57L654.094 2436.2L553.481 2440.33L554.606 2467.71Z" fill="#00A8E4"/>
<path fill-rule="evenodd" clip-rule="evenodd" d="M554.605 2467.71L553.48 2440.33L654.094 2436.2L655.219 2463.57L554.605 2467.71ZM558.437 2463.55L651.058 2459.74L650.261 2440.36L557.641 2444.16L558.437 2463.55Z" fill="black"/>
<path d="M1675.54 2474.2L1707.36 2569.73L1733.36 2561.08L1701.54 2465.54L1675.54 2474.2Z" fill="#00A8E4"/>
<path fill-rule="evenodd" clip-rule="evenodd" d="M1675.54 2474.19L1701.54 2465.54L1733.36 2561.08L1707.36 2569.73L1675.54 2474.19ZM1680.6 2476.73L1709.89 2564.68L1728.3 2558.55L1699.01 2470.6L1680.6 2476.73Z" fill="black"/>
<path d="M2054.83 1215.62L2086.65 1311.15L2112.65 1302.5L2080.83 1206.96L2054.83 1215.62Z" fill="#00A8E4"/>
<path fill-rule="evenodd" clip-rule="evenodd" d="M2054.83 1215.61L2080.83 1206.96L2112.65 1302.5L2086.65 1311.15L2054.83 1215.61ZM2059.89 1218.15L2089.18 1306.1L2107.59 1299.97L2078.3 1212.02L2059.89 1218.15Z" fill="black"/>
<path d="M378.001 612.33L316.402 691.99L338.077 708.751L399.675 629.09L378.001 612.33Z" fill="#00A8E4"/>
<path fill-rule="evenodd" clip-rule="evenodd" d="M378.001 612.329L399.677 629.09L338.078 708.751L316.402 691.99L378.001 612.329ZM378.719 617.94L322.014 691.273L337.36 703.14L394.066 629.808L378.719 617.94Z" fill="black"/>
<path d="M607.281 365.034L545.683 444.694L567.358 461.455L628.956 381.794L607.281 365.034Z" fill="#F2E83A"/>
<path fill-rule="evenodd" clip-rule="evenodd" d="M607.282 365.033L628.957 381.794L567.359 461.455L545.683 444.694L607.282 365.033ZM607.999 370.645L551.294 443.977L566.641 455.844L623.346 382.512L607.999 370.645Z" fill="black"/>
<path d="M1888.59 -41.5486L1865.4 56.4443L1892.07 62.7523L1915.25 -35.2406L1888.59 -41.5486Z" fill="#F2E83A"/>
<path fill-rule="evenodd" clip-rule="evenodd" d="M1888.59 -41.5496L1915.25 -35.2414L1892.07 62.7526L1865.4 56.4443L1888.59 -41.5496ZM1891.56 -36.7361L1870.22 53.4727L1889.1 57.9391L1910.44 -32.2697L1891.56 -36.7361Z" fill="black"/>
<path d="M1941.17 1110.46L1981.6 1202.69L2006.69 1191.69L1966.26 1099.46L1941.17 1110.46Z" fill="#F2E83A"/>
<path fill-rule="evenodd" clip-rule="evenodd" d="M1941.17 1110.46L1966.26 1099.46L2006.69 1191.69L1981.6 1202.69L1941.17 1110.46ZM1946.44 1112.52L1983.66 1197.42L2001.42 1189.63L1964.2 1104.73L1946.44 1112.52Z" fill="black"/>
<path d="M386.414 1420.64L426.845 1512.87L451.939 1501.87L411.507 1409.64L386.414 1420.64Z" fill="#F2E83A"/>
<path fill-rule="evenodd" clip-rule="evenodd" d="M386.413 1420.64L411.508 1409.64L451.94 1501.87L426.845 1512.87L386.413 1420.64ZM391.683 1422.7L428.903 1507.6L446.67 1499.81L409.45 1414.91L391.683 1422.7Z" fill="black"/>
<path d="M620.509 2627.6L660.94 2719.82L686.034 2708.82L645.602 2616.59L620.509 2627.6Z" fill="#F2E83A"/>
<path fill-rule="evenodd" clip-rule="evenodd" d="M620.508 2627.59L645.603 2616.59L686.035 2708.82L660.94 2719.82L620.508 2627.59ZM625.778 2629.65L662.998 2714.55L680.765 2706.76L643.545 2621.86L625.778 2629.65Z" fill="black"/>
<path d="M1516.35 2454.26L1435.79 2514.67L1452.22 2536.59L1532.79 2476.18L1516.35 2454.26Z" fill="#F2E83A"/>
<path fill-rule="evenodd" clip-rule="evenodd" d="M1516.35 2454.26L1532.79 2476.18L1452.22 2536.59L1435.79 2514.67L1516.35 2454.26ZM1515.55 2459.86L1441.39 2515.47L1453.02 2530.99L1527.19 2475.38L1515.55 2459.86Z" fill="black"/>
<path d="M29.4202 1272.59L-51.144 1333L-34.7068 1354.92L45.8575 1294.51L29.4202 1272.59Z" fill="#F2E83A"/>
<path fill-rule="evenodd" clip-rule="evenodd" d="M29.421 1272.59L45.8589 1294.51L-34.7061 1354.92L-51.144 1333L29.421 1272.59ZM28.6205 1278.19L-45.5441 1333.8L-33.9056 1349.32L40.259 1293.71L28.6205 1278.19Z" fill="black"/>
<path d="M1672.21 284.123L1591.65 344.534L1608.08 366.455L1688.65 306.044L1672.21 284.123Z" fill="#F2E83A"/>
<path fill-rule="evenodd" clip-rule="evenodd" d="M1672.21 284.123L1688.65 306.044L1608.08 366.456L1591.65 344.534L1672.21 284.123ZM1671.41 289.722L1597.25 345.335L1608.89 360.856L1683.05 305.244L1671.41 289.722Z" fill="black"/>
<path d="M489.238 2454.71H388.54V2427.31H489.238V2454.71Z" fill="#FF050B"/>
<path fill-rule="evenodd" clip-rule="evenodd" d="M489.239 2454.71H388.54V2427.31H489.239V2454.71ZM485.239 2450.71V2431.31H392.54V2450.71H485.239Z" fill="black"/>
<path d="M928.203 2223L878.672 2310.67L854.817 2297.19L904.348 2209.52L928.203 2223Z" fill="#FF050B"/>
<path fill-rule="evenodd" clip-rule="evenodd" d="M928.203 2222.99L878.672 2310.67L854.816 2297.19L904.347 2209.52L928.203 2222.99ZM922.753 2224.51L905.862 2214.97L860.266 2295.68L877.157 2305.22L922.753 2224.51Z" fill="black"/>
<path d="M1803.94 1530.85L1784.32 1629.62L1757.44 1624.28L1777.07 1525.51L1803.94 1530.85Z" fill="#FF050B"/>
<path fill-rule="evenodd" clip-rule="evenodd" d="M1803.94 1530.85L1784.32 1629.62L1757.44 1624.28L1777.07 1525.51L1803.94 1530.85ZM1799.24 1533.99L1780.21 1530.21L1762.15 1621.13L1781.17 1624.91L1799.24 1533.99Z" fill="black"/>
<path d="M1552.79 2389.76L1572.94 2488.42L1546.1 2493.9L1525.95 2395.24L1552.79 2389.76Z" fill="#FF050B"/>
<path fill-rule="evenodd" clip-rule="evenodd" d="M1552.79 2389.76L1572.94 2488.42L1546.1 2493.9L1525.95 2395.24L1552.79 2389.76ZM1549.68 2394.47L1530.67 2398.36L1549.22 2489.18L1568.22 2485.3L1549.68 2394.47Z" fill="black"/>
<path d="M181.365 1401.79L201.513 1500.45L174.668 1505.93L154.52 1407.27L181.365 1401.79Z" fill="#FF050B"/>
<path fill-rule="evenodd" clip-rule="evenodd" d="M181.365 1401.79L201.513 1500.45L174.667 1505.93L154.519 1407.27L181.365 1401.79ZM178.246 1406.51L159.238 1410.39L177.786 1501.21L196.794 1497.33L178.246 1406.51Z" fill="black"/>
<path d="M86.3971 2184.99L106.545 2283.65L79.7005 2289.13L59.5521 2190.47L86.3971 2184.99Z" fill="#FF050B"/>
<path fill-rule="evenodd" clip-rule="evenodd" d="M86.3968 2184.99L106.545 2283.65L79.6995 2289.13L59.5509 2190.47L86.3968 2184.99ZM83.2781 2189.71L64.2704 2193.59L82.8182 2284.41L101.826 2280.53L83.2781 2189.71Z" fill="black"/>
<path d="M1901.63 1251.52L1921.77 1350.18L1894.93 1355.66L1874.78 1257L1901.63 1251.52Z" fill="#FF050B"/>
<path fill-rule="evenodd" clip-rule="evenodd" d="M1901.62 1251.52L1921.77 1350.18L1894.93 1355.67L1874.78 1257L1901.62 1251.52ZM1898.51 1256.24L1879.5 1260.12L1898.05 1350.95L1917.05 1347.06L1898.51 1256.24Z" fill="black"/>
<path d="M419.033 83.3491L439.181 182.011L412.336 187.493L392.188 88.8312L419.033 83.3491Z" fill="#FF050B"/>
<path fill-rule="evenodd" clip-rule="evenodd" d="M419.033 83.3481L439.181 182.011L412.335 187.493L392.187 88.8305L419.033 83.3481ZM415.914 88.0675L396.906 91.9492L415.454 182.774L434.462 178.892L415.914 88.0675Z" fill="black"/>
<path d="M91.4832 476.611L14.1411 541.096L-3.4046 520.052L73.9375 455.567L91.4832 476.611Z" fill="#FF050B"/>
<path fill-rule="evenodd" clip-rule="evenodd" d="M91.484 476.61L14.1411 541.096L-3.40525 520.051L73.9376 455.565L91.484 476.61ZM85.8502 476.1L73.4269 461.199L2.2285 520.562L14.6518 535.462L85.8502 476.1Z" fill="black"/>
<path d="M2150.34 1695.63L2073 1760.11L2055.45 1739.07L2132.79 1674.58L2150.34 1695.63Z" fill="#FF050B"/>
<path fill-rule="evenodd" clip-rule="evenodd" d="M2150.34 1695.63L2073 1760.11L2055.45 1739.07L2132.79 1674.58L2150.34 1695.63ZM2144.7 1695.12L2132.28 1680.22L2061.08 1739.58L2073.51 1754.48L2144.7 1695.12Z" fill="black"/>
<path d="M1395.34 2574.35L1318 2638.84L1300.45 2617.79L1377.79 2553.31L1395.34 2574.35Z" fill="#FF050B"/>
<path fill-rule="evenodd" clip-rule="evenodd" d="M1395.34 2574.35L1318 2638.84L1300.45 2617.79L1377.79 2553.31L1395.34 2574.35ZM1389.7 2573.84L1377.28 2558.94L1306.08 2618.3L1318.51 2633.2L1389.7 2573.84Z" fill="black"/>
<path d="M224.517 2565.32L214.604 2665.53L187.338 2662.83L197.251 2562.62L224.517 2565.32Z" fill="#00A8E4"/>
<path fill-rule="evenodd" clip-rule="evenodd" d="M224.517 2565.32L214.604 2665.53L187.337 2662.83L197.251 2562.62L224.517 2565.32ZM220.143 2568.9L200.837 2566.99L191.711 2659.24L211.017 2661.15L220.143 2568.9Z" fill="black"/>
<path d="M1872.29 2414.85L1967.61 2447.32L1958.78 2473.26L1863.46 2440.78L1872.29 2414.85Z" fill="#00A8E4"/>
<path fill-rule="evenodd" clip-rule="evenodd" d="M1872.29 2414.85L1967.61 2447.32L1958.78 2473.26L1863.46 2440.78L1872.29 2414.85ZM1874.79 2419.92L1868.53 2438.29L1956.28 2468.18L1962.54 2449.82L1874.79 2419.92Z" fill="black"/>
<path d="M28.5887 946.437L123.907 978.909L115.072 1004.84L19.7532 972.372L28.5887 946.437Z" fill="#00A8E4"/>
<path fill-rule="evenodd" clip-rule="evenodd" d="M28.5878 946.436L123.907 978.909L115.071 1004.85L19.7519 972.373L28.5878 946.436ZM31.0842 951.512L24.8282 969.876L112.575 999.769L118.831 981.406L31.0842 951.512Z" fill="black"/>
<path d="M1257.67 1742.03L1352.99 1774.5L1344.16 1800.43L1248.84 1767.96L1257.67 1742.03Z" fill="#00A8E4"/>
<path fill-rule="evenodd" clip-rule="evenodd" d="M1257.67 1742.03L1352.99 1774.5L1344.16 1800.43L1248.84 1767.96L1257.67 1742.03ZM1260.17 1747.1L1253.91 1765.46L1341.66 1795.36L1347.92 1776.99L1260.17 1747.1Z" fill="black"/>
<path d="M554.606 210.562L655.219 214.696L654.094 242.072L553.481 237.938L554.606 210.562Z" fill="#00A8E4"/>
<path fill-rule="evenodd" clip-rule="evenodd" d="M554.605 210.562L655.219 214.696L654.094 242.073L553.48 237.939L554.605 210.562ZM558.437 214.723L557.641 234.106L650.261 237.912L651.058 218.529L558.437 214.723Z" fill="black"/>
<path d="M1675.54 204.076L1707.36 108.537L1733.36 117.195L1701.54 212.734L1675.54 204.076Z" fill="#00A8E4"/>
<path fill-rule="evenodd" clip-rule="evenodd" d="M1675.54 204.077L1707.36 108.537L1733.36 117.195L1701.54 212.735L1675.54 204.077ZM1680.6 201.546L1699.01 207.676L1728.3 119.726L1709.89 113.596L1680.6 201.546Z" fill="black"/>
<path d="M2054.83 1462.66L2086.65 1367.12L2112.65 1375.77L2080.83 1471.31L2054.83 1462.66Z" fill="#00A8E4"/>
<path fill-rule="evenodd" clip-rule="evenodd" d="M2054.83 1462.66L2086.65 1367.12L2112.65 1375.77L2080.83 1471.31L2054.83 1462.66ZM2059.89 1460.12L2078.3 1466.25L2107.59 1378.31L2089.18 1372.18L2059.89 1460.12Z" fill="black"/>
<path d="M471.14 1820.18L384.728 1768.48L398.795 1744.96L485.207 1796.67L471.14 1820.18Z" fill="#00A8E4"/>
<path fill-rule="evenodd" clip-rule="evenodd" d="M471.14 1820.18L384.728 1768.48L398.796 1744.96L485.208 1796.67L471.14 1820.18ZM469.762 1814.69L479.722 1798.04L400.174 1750.45L390.214 1767.1L469.762 1814.69Z" fill="black"/>
<path d="M607.281 2313.24L545.683 2233.58L567.358 2216.82L628.956 2296.48L607.281 2313.24Z" fill="#F2E83A"/>
<path fill-rule="evenodd" clip-rule="evenodd" d="M607.282 2313.24L545.683 2233.58L567.359 2216.82L628.957 2296.48L607.282 2313.24ZM607.999 2307.63L623.346 2295.76L566.641 2222.43L551.294 2234.29L607.999 2307.63Z" fill="black"/>
<path d="M1888.59 2719.82L1865.4 2621.83L1892.07 2615.52L1915.25 2713.51L1888.59 2719.82Z" fill="#F2E83A"/>
<path fill-rule="evenodd" clip-rule="evenodd" d="M1888.59 2719.82L1865.4 2621.83L1892.07 2615.52L1915.25 2713.51L1888.59 2719.82ZM1891.56 2715.01L1910.44 2710.54L1889.1 2620.33L1870.22 2624.8L1891.56 2715.01Z" fill="black"/>
<path d="M1941.17 1567.81L1981.6 1475.58L2006.69 1486.58L1966.26 1578.81L1941.17 1567.81Z" fill="#F2E83A"/>
<path fill-rule="evenodd" clip-rule="evenodd" d="M1941.17 1567.81L1981.6 1475.58L2006.69 1486.58L1966.26 1578.81L1941.17 1567.81ZM1946.44 1565.75L1964.2 1573.54L2001.42 1488.64L1983.66 1480.85L1946.44 1565.75Z" fill="black"/>
<path d="M386.414 1257.63L426.845 1165.4L451.939 1176.4L411.507 1268.63L386.414 1257.63Z" fill="#F2E83A"/>
<path fill-rule="evenodd" clip-rule="evenodd" d="M386.413 1257.63L426.845 1165.4L451.94 1176.4L411.508 1268.63L386.413 1257.63ZM391.683 1255.57L409.45 1263.36L446.67 1178.46L428.903 1170.67L391.683 1255.57Z" fill="black"/>
<path d="M620.509 50.6757L660.94 -41.5488L686.034 -30.5477L645.602 61.6768L620.509 50.6757Z" fill="#F2E83A"/>
<path fill-rule="evenodd" clip-rule="evenodd" d="M620.508 50.6767L660.94 -41.5488L686.035 -30.5473L645.603 61.6781L620.508 50.6767ZM625.778 48.6193L643.545 56.4087L680.765 -28.49L662.998 -36.2794L625.778 48.6193Z" fill="black"/>
<path d="M1516.35 224.011L1435.79 163.6L1452.22 141.679L1532.79 202.09L1516.35 224.011Z" fill="#F2E83A"/>
<path fill-rule="evenodd" clip-rule="evenodd" d="M1516.35 224.011L1435.79 163.6L1452.22 141.678L1532.79 202.09L1516.35 224.011ZM1515.55 218.411L1527.19 202.89L1453.02 147.278L1441.39 162.799L1515.55 218.411Z" fill="black"/>
<path d="M29.4202 1405.68L-51.144 1345.27L-34.7068 1323.35L45.8575 1383.76L29.4202 1405.68Z" fill="#F2E83A"/>
<path fill-rule="evenodd" clip-rule="evenodd" d="M29.421 1405.68L-51.144 1345.27L-34.7061 1323.35L45.8589 1383.76L29.421 1405.68ZM28.6205 1400.08L40.259 1384.56L-33.9056 1328.95L-45.5441 1344.47L28.6205 1400.08Z" fill="black"/>
<path d="M1672.21 2394.15L1591.65 2333.74L1608.08 2311.82L1688.65 2372.23L1672.21 2394.15Z" fill="#F2E83A"/>
<path fill-rule="evenodd" clip-rule="evenodd" d="M1672.21 2394.15L1591.65 2333.74L1608.08 2311.81L1688.65 2372.23L1672.21 2394.15ZM1671.41 2388.55L1683.05 2373.03L1608.89 2317.41L1597.25 2332.94L1671.41 2388.55Z" fill="black"/>
</g>
<defs>
<clipPath id="clip0_626_1685">
<rect width="2160" height="2700" fill="white"/>
</clipPath>
</defs>
</svg>
