<svg width="2142" height="2700" viewBox="0 0 2142 2700" fill="none" xmlns="http://www.w3.org/2000/svg">
<g clip-path="url(#clip0_1086_3)">
<path fill-rule="evenodd" clip-rule="evenodd" d="M469.972 2694.55C469.095 2693.31 442.084 2638.39 442.084 2638.39C442.084 2638.39 435.959 2628.94 434.63 2623.56C432.786 2616.09 466.704 2598.18 472.275 2604.33C476.066 2608.52 479.899 2619.51 479.899 2619.51C479.899 2619.51 506.717 2672.42 507.616 2675.33C510.81 2685.65 515.353 2725.46 515.353 2725.46L504.83 2730.85C504.83 2730.85 475.968 2703.03 469.972 2694.55Z" fill="#F2EFD5" fill-opacity="0.3" stroke="#F2EFD5" stroke-width="1.92367" stroke-miterlimit="1.5" stroke-linecap="round" stroke-linejoin="round"/>
<path fill-rule="evenodd" clip-rule="evenodd" d="M440.864 2619.18C440.864 2619.18 462.029 2605.2 468.296 2605.6C473.897 2605.96 478.461 2621.61 478.461 2621.61L502.953 2670.44L474.864 2619.34C474.864 2619.34 470.145 2609.53 466.601 2609.52C460.935 2609.49 440.864 2619.18 440.864 2619.18Z" fill="white" fill-opacity="0.8"/>
<path fill-rule="evenodd" clip-rule="evenodd" d="M464.934 2683.86L442.468 2639.12C452.63 2631.54 462.918 2626.22 475.293 2622.2L497.848 2666.35C485.557 2671.15 475.001 2676.9 464.934 2683.86Z" fill="#AB0307" stroke="#795140" stroke-width="0.525876" stroke-miterlimit="1.5" stroke-linecap="round" stroke-linejoin="round"/>
<path fill-rule="evenodd" clip-rule="evenodd" d="M461.106 2675.64L447.063 2647.67C457.498 2640.84 467.717 2635.57 479.659 2630.9L493.871 2658.44C481.89 2663.64 471.362 2669.26 461.106 2675.64Z" fill="#F7F189"/>
<path fill-rule="evenodd" clip-rule="evenodd" d="M461.266 2668.12C459.54 2667.84 453.501 2654.72 453.76 2652.02C453.958 2649.96 472.91 2640.01 475.795 2640.87C477.896 2641.5 484.135 2654.18 483.823 2656.33C483.659 2657.46 477.493 2660.05 471.852 2662.86C466.728 2665.41 462.12 2668.25 461.266 2668.12Z" fill="#AB0307" stroke="#795140" stroke-width="0.479812" stroke-miterlimit="1.5" stroke-linecap="round" stroke-linejoin="round"/>
<path fill-rule="evenodd" clip-rule="evenodd" d="M475.389 2656.26C474.448 2656.87 473.379 2657.13 472.332 2657.07C471.873 2657.04 471.42 2656.93 470.993 2656.75C469.651 2656.21 468.478 2655.17 467.875 2653.7C467.29 2652.3 467.249 2650.81 467.727 2649.49C468.204 2648.18 469.1 2647.02 470.435 2646.4C471.727 2645.69 473.182 2645.65 474.497 2646.05C475.806 2646.45 476.952 2647.36 477.69 2648.67C478.465 2650.01 478.57 2651.54 478.227 2652.92C477.971 2653.95 477.463 2654.97 476.607 2655.63C476.245 2655.91 475.841 2656.12 475.389 2656.26ZM473.972 2653.44C474.133 2653.32 474.205 2653.13 474.343 2653C474.659 2652.69 474.976 2652.38 475.126 2651.97C475.353 2651.35 475.41 2650.64 475.126 2649.98C474.818 2649.28 474.301 2648.73 473.652 2648.48C472.98 2648.22 472.21 2648.22 471.517 2648.55C470.848 2648.92 470.408 2649.56 470.233 2650.26C470.066 2650.93 470.239 2651.65 470.622 2652.29C470.907 2652.76 471.361 2653.04 471.822 2653.26C472.086 2653.38 472.376 2653.41 472.662 2653.45C473.093 2653.51 473.539 2653.61 473.972 2653.44Z" fill="white"/>
<path d="M468.04 2658.2L460.993 2661.89" stroke="white" stroke-width="2.7252" stroke-miterlimit="1.5" stroke-linejoin="round"/>
<path d="M464.352 2651.53L457.306 2655.22" stroke="white" stroke-width="2.7252" stroke-miterlimit="1.5" stroke-linejoin="round"/>
<path d="M465.403 2655.55L460.519 2658.11" stroke="white" stroke-width="2.62795" stroke-miterlimit="1.5" stroke-linejoin="round"/>
<path d="M477.57 2670.88C477.57 2670.88 478.72 2670.2 479.063 2670.18C479.346 2670.17 479.607 2670.54 479.584 2670.82C479.536 2671.42 479.158 2673.14 478.912 2673.69C478.788 2673.96 478.338 2674.29 478.108 2674.1C477.805 2673.84 477.334 2672.47 477.093 2672.16C476.997 2672.04 476.779 2672.35 476.663 2672.26C476.531 2672.16 476.16 2671.61 476.303 2671.54C476.435 2671.49 476.719 2671.33 476.719 2671.33C476.719 2671.33 476.325 2670.88 476.406 2670.71C476.488 2670.54 477.016 2670.27 477.21 2670.3C477.403 2670.32 477.57 2670.88 477.57 2670.88ZM477.883 2671.64C477.883 2671.64 478.195 2672.52 478.311 2672.47C478.426 2672.42 478.567 2671.53 478.498 2671.4C478.43 2671.27 477.883 2671.64 477.883 2671.64Z" fill="white"/>
<path d="M476.552 2672.74C476.87 2673.38 476.979 2673.88 476.879 2674.25C476.779 2674.62 476.496 2674.92 476.032 2675.16C475.808 2675.27 475.611 2675.34 475.44 2675.36C475.269 2675.38 475.116 2675.36 474.981 2675.32C474.846 2675.28 474.728 2675.22 474.627 2675.15C474.525 2675.08 474.426 2674.99 474.329 2674.87C474.142 2674.66 473.981 2674.41 473.846 2674.14C473.542 2673.54 473.422 2673.04 473.485 2672.66C473.548 2672.27 473.828 2671.95 474.326 2671.7C474.605 2671.56 474.853 2671.48 475.07 2671.49C475.287 2671.49 475.494 2671.55 475.691 2671.66C475.833 2671.74 475.979 2671.88 476.131 2672.07C476.282 2672.26 476.423 2672.48 476.552 2672.74ZM475.636 2673.21C475.423 2672.78 475.24 2672.51 475.087 2672.4C474.935 2672.28 474.787 2672.26 474.646 2672.33C474.552 2672.38 474.487 2672.45 474.452 2672.55C474.417 2672.65 474.418 2672.78 474.457 2672.94C474.496 2673.1 474.592 2673.33 474.743 2673.63C474.965 2674.08 475.152 2674.36 475.303 2674.47C475.455 2674.58 475.605 2674.6 475.754 2674.53C475.906 2674.45 475.977 2674.31 475.968 2674.12C475.958 2673.93 475.847 2673.63 475.636 2673.21Z" fill="white"/>
<path fill-rule="evenodd" clip-rule="evenodd" d="M1870.43 572.252C1868.92 572.246 1808.83 562.37 1808.83 562.37C1808.83 562.37 1797.63 561.871 1792.51 559.831C1785.41 557 1790.68 518.991 1798.9 518.025C1804.49 517.367 1815.59 520.622 1815.59 520.622C1815.59 520.622 1873.94 529.49 1876.82 530.446C1887.02 533.84 1921.82 553.238 1921.82 553.238L1920.04 564.935C1920.04 564.935 1880.77 572.293 1870.43 572.252Z" fill="#F2EFD5" fill-opacity="0.3" stroke="#F2EFD5" stroke-width="1.92367" stroke-miterlimit="1.5" stroke-linecap="round" stroke-linejoin="round"/>
<path fill-rule="evenodd" clip-rule="evenodd" d="M1856.12 529.197L1875.23 531.952L1914.28 551.195L1875.91 537.542L1856.12 529.197Z" fill="white" fill-opacity="0.8"/>
<path fill-rule="evenodd" clip-rule="evenodd" d="M1795.98 522.804L1799.26 519.847L1809 521.2L1795.98 522.804Z" fill="white" fill-opacity="0.8"/>
<path fill-rule="evenodd" clip-rule="evenodd" d="M1858.95 570.208L1809.63 562.5C1809.41 549.818 1811.09 538.343 1815.05 525.928L1863.94 533.222C1860.67 546.022 1859.18 557.965 1858.95 570.208Z" fill="#AB0307" stroke="#795140" stroke-width="0.525874" stroke-miterlimit="1.5" stroke-linecap="round" stroke-linejoin="round"/>
<path fill-rule="evenodd" clip-rule="evenodd" d="M1850.07 568.572L1819.21 563.747C1819.76 551.261 1821.45 539.858 1824.63 527.401L1855.25 531.842C1852.48 544.64 1850.88 556.493 1850.07 568.572Z" fill="#F7F189"/>
<path fill-rule="evenodd" clip-rule="evenodd" d="M1844.07 564.077C1842.84 565.326 1828.66 562.608 1826.63 560.827C1825.07 559.463 1828.06 538.204 1830.44 536.352C1832.18 535.004 1846.11 537.3 1847.67 538.808C1848.49 539.596 1846.99 546.137 1845.98 552.375C1845.06 558.042 1844.68 563.459 1844.07 564.077Z" fill="#AB0307" stroke="#795140" stroke-width="0.479811" stroke-miterlimit="1.5" stroke-linecap="round" stroke-linejoin="round"/>
<path fill-rule="evenodd" clip-rule="evenodd" d="M1790.5 548.388C1790.5 548.388 1794.06 553.981 1796.4 554.622C1809.09 558.102 1868.41 571.001 1868.41 571.001C1868.41 571.001 1807.16 563.158 1792.78 558.04C1789.86 556.997 1790.5 548.388 1790.5 548.388Z" fill="black" fill-opacity="0.3"/>
<path fill-rule="evenodd" clip-rule="evenodd" d="M1842.7 545.635C1842.64 546.758 1842.23 547.778 1841.57 548.598C1841.28 548.957 1840.92 549.258 1840.53 549.505C1839.31 550.283 1837.78 550.634 1836.24 550.271C1834.76 549.93 1833.53 549.099 1832.74 547.943C1831.96 546.794 1831.54 545.387 1831.81 543.934C1832 542.472 1832.81 541.258 1833.9 540.421C1834.99 539.588 1836.4 539.185 1837.89 539.342C1839.42 539.491 1840.72 540.295 1841.64 541.379C1842.33 542.188 1842.86 543.192 1842.9 544.276C1842.91 544.733 1842.84 545.183 1842.7 545.635ZM1839.58 545.149C1839.58 544.948 1839.47 544.779 1839.44 544.588C1839.37 544.15 1839.31 543.714 1839.07 543.355C1838.7 542.809 1838.16 542.35 1837.46 542.197C1836.71 542.042 1835.96 542.143 1835.38 542.525C1834.77 542.92 1834.32 543.546 1834.19 544.306C1834.1 545.068 1834.36 545.796 1834.83 546.347C1835.27 546.872 1835.95 547.15 1836.7 547.213C1837.25 547.255 1837.74 547.047 1838.18 546.795C1838.43 546.65 1838.63 546.432 1838.83 546.223C1839.13 545.907 1839.47 545.601 1839.58 545.149Z" fill="white"/>
<path d="M1839.95 552.777L1838.82 560.703" stroke="white" stroke-width="2.7252" stroke-miterlimit="1.5" stroke-linejoin="round"/>
<path d="M1832.43 551.915L1831.3 559.841" stroke="white" stroke-width="2.7252" stroke-miterlimit="1.5" stroke-linejoin="round"/>
<path d="M1836.29 553.398L1835.51 558.893" stroke="white" stroke-width="2.62794" stroke-miterlimit="1.5" stroke-linejoin="round"/>
<path d="M1855.72 552.347C1855.72 552.347 1855.84 551.017 1856.03 550.727C1856.18 550.489 1856.63 550.489 1856.85 550.673C1857.31 551.064 1858.48 552.37 1858.78 552.888C1858.93 553.149 1858.93 553.706 1858.64 553.782C1858.26 553.881 1856.87 553.466 1856.48 553.484C1856.33 553.491 1856.45 553.851 1856.31 553.892C1856.15 553.94 1855.49 553.92 1855.52 553.769C1855.55 553.626 1855.59 553.305 1855.59 553.305C1855.59 553.305 1855 553.364 1854.9 553.198C1854.81 553.031 1854.9 552.445 1855.04 552.303C1855.17 552.162 1855.72 552.347 1855.72 552.347ZM1856.52 552.535C1856.52 552.535 1857.42 552.795 1857.44 552.67C1857.47 552.546 1856.83 551.916 1856.68 551.894C1856.53 551.873 1856.52 552.535 1856.52 552.535Z" fill="white"/>
<path d="M1856.64 554.279C1857.33 554.388 1857.8 554.591 1858.04 554.887C1858.29 555.183 1858.37 555.59 1858.29 556.107C1858.25 556.356 1858.19 556.555 1858.11 556.705C1858.02 556.855 1857.92 556.973 1857.81 557.058C1857.7 557.144 1857.58 557.207 1857.46 557.248C1857.35 557.289 1857.21 557.316 1857.07 557.329C1856.78 557.355 1856.49 557.345 1856.19 557.298C1855.53 557.194 1855.05 557.004 1854.78 556.729C1854.51 556.454 1854.41 556.04 1854.49 555.485C1854.54 555.175 1854.63 554.932 1854.75 554.755C1854.88 554.58 1855.05 554.445 1855.26 554.352C1855.41 554.284 1855.6 554.244 1855.85 554.231C1856.09 554.218 1856.35 554.234 1856.64 554.279ZM1856.48 555.296C1856.01 555.223 1855.68 555.214 1855.5 555.271C1855.32 555.327 1855.21 555.434 1855.19 555.592C1855.17 555.696 1855.2 555.792 1855.26 555.88C1855.32 555.968 1855.43 556.042 1855.58 556.102C1855.73 556.163 1855.97 556.219 1856.3 556.271C1856.79 556.347 1857.13 556.357 1857.31 556.3C1857.49 556.244 1857.59 556.132 1857.61 555.966C1857.64 555.796 1857.57 555.66 1857.41 555.558C1857.25 555.456 1856.94 555.368 1856.48 555.296Z" fill="white"/>
<path fill-rule="evenodd" clip-rule="evenodd" d="M1930.42 568.467C1928.47 569.744 1920.71 568.259 1919.88 566.819C1918.82 564.977 1920.38 553.216 1922.48 551.201C1923.61 550.121 1931.69 551.109 1933.03 552.849C1934.8 555.171 1932.85 566.875 1930.42 568.467Z" fill="#B4AD60" stroke="#614133" stroke-width="1.1262" stroke-miterlimit="1.5" stroke-linecap="round" stroke-linejoin="round"/>
<path fill-rule="evenodd" clip-rule="evenodd" d="M1930.16 568.662L1928.69 568.835C1928.36 566.048 1928.39 563.109 1928.8 560.231C1929.18 557.641 1929.87 555.102 1930.89 552.767L1929.06 552.37C1928.68 553.913 1928.28 555.538 1927.92 557.234C1927.76 558.007 1927.6 558.794 1927.45 559.596C1927.13 561.299 1926.85 563.062 1926.74 564.906L1926.16 564.897C1926.13 563.97 1926.12 563.06 1926.16 562.161C1926.21 560.758 1926.34 559.394 1926.54 558.073C1926.89 555.707 1927.44 553.488 1927.92 551.413C1928.01 551.061 1928.36 550.842 1928.71 550.917L1932.01 551.599C1932.22 551.643 1932.39 551.779 1932.49 551.969C1932.58 552.16 1932.58 552.382 1932.49 552.573C1931.35 555.003 1930.61 557.693 1930.23 560.437C1929.85 563.191 1929.83 566 1930.16 568.662Z" fill="#614133"/>
<path fill-rule="evenodd" clip-rule="evenodd" d="M1923.48 564.193L1923.01 564.183C1922.94 563.081 1922.91 561.99 1922.95 560.889C1922.99 559.789 1923.08 558.693 1923.24 557.601C1923.37 556.734 1923.55 555.875 1923.75 555.018C1924.06 553.747 1924.43 552.489 1924.82 551.231L1926.07 551.597C1925.79 552.646 1925.54 553.698 1925.3 554.75C1925.13 555.452 1924.99 556.155 1924.83 556.856C1924.73 557.325 1924.63 557.792 1924.53 558.259C1924.37 558.964 1924.22 559.662 1924.08 560.369C1923.83 561.639 1923.61 562.902 1923.48 564.193Z" fill="#614133"/>
<path fill-rule="evenodd" clip-rule="evenodd" d="M906.116 494.893C905.345 495.772 869.241 525.792 869.241 525.792C869.241 525.792 863.279 532.071 859.515 534.02C854.293 536.724 835.183 514.32 838.79 509.039C841.245 505.445 848.737 500.623 848.737 500.623C848.737 500.623 883.386 471.102 885.39 469.912C892.504 465.688 921.254 455.257 921.254 455.257L927.061 462.238C927.061 462.238 911.38 488.881 906.116 494.893Z" fill="#F2EFD5" fill-opacity="0.3" stroke="#F2EFD5" stroke-width="1.47891" stroke-miterlimit="1.5" stroke-linecap="round" stroke-linejoin="round"/>
<path fill-rule="evenodd" clip-rule="evenodd" d="M857.33 495.784C857.33 495.784 843.668 509.314 843.787 511.375C844.25 519.401 858.02 531.775 858.02 531.775C858.02 531.775 843.833 525.817 839.332 511.3C838.499 508.613 857.33 495.784 857.33 495.784Z" fill="black" fill-opacity="0.3"/>
<path fill-rule="evenodd" clip-rule="evenodd" d="M922.584 465.06L904.505 491.625L909.295 475.843L922.584 465.06Z" fill="white" fill-opacity="0.8"/>
<path fill-rule="evenodd" clip-rule="evenodd" d="M899.091 500.547L869.727 525.39C862.355 519.062 856.633 512.242 851.525 503.617L880.437 478.81C886.111 487.234 892.196 494.181 899.091 500.547Z" fill="#AB0307" stroke="#795140" stroke-width="0.404291" stroke-miterlimit="1.5" stroke-linecap="round" stroke-linejoin="round"/>
<path fill-rule="evenodd" clip-rule="evenodd" d="M893.653 504.889L875.284 520.43C868.415 513.759 862.742 506.976 857.222 498.785L875.247 483.192C881.171 491.317 887.149 498.274 893.653 504.889Z" fill="#F7F189"/>
<path fill-rule="evenodd" clip-rule="evenodd" d="M888.046 506.099C888.139 507.451 879.418 514.331 877.369 514.612C875.801 514.828 865.148 502.273 865.293 499.943C865.399 498.245 873.756 491.292 875.408 491.148C876.273 491.073 879.259 495.271 882.316 499.035C885.092 502.454 888 505.431 888.046 506.099Z" fill="#AB0307" stroke="#795140" stroke-width="0.368877" stroke-miterlimit="1.5" stroke-linecap="round" stroke-linejoin="round"/>
<path fill-rule="evenodd" clip-rule="evenodd" d="M876.793 497.528C877.409 498.13 877.783 498.891 877.919 499.691C877.979 500.043 877.969 500.405 877.914 500.758C877.74 501.867 877.169 502.937 876.181 503.651C875.238 504.34 874.14 504.634 873.081 504.505C872.027 504.377 871.01 503.905 870.315 503.009C869.572 502.158 869.286 501.068 869.361 500.004C869.435 498.945 869.915 497.919 870.758 497.131C871.622 496.31 872.739 495.96 873.825 495.975C874.636 495.986 875.476 496.19 876.116 496.72C876.386 496.943 876.609 497.212 876.793 497.528ZM874.941 499.095C874.825 498.995 874.671 498.974 874.547 498.894C874.263 498.71 873.982 498.524 873.653 498.483C873.153 498.422 872.617 498.503 872.175 498.834C871.709 499.191 871.389 499.678 871.312 500.213C871.233 500.766 871.362 501.347 871.73 501.811C872.122 502.251 872.669 502.471 873.22 502.479C873.745 502.487 874.251 502.229 874.664 501.826C874.965 501.528 875.096 501.135 875.174 500.751C875.218 500.53 875.192 500.306 875.173 500.082C875.145 499.746 875.141 499.392 874.941 499.095Z" fill="white"/>
<path d="M879.502 502.75L883.47 507.428" stroke="white" stroke-width="2.09512" stroke-miterlimit="1.5" stroke-linejoin="round"/>
<path d="M875.193 506.694L879.161 511.372" stroke="white" stroke-width="2.09512" stroke-miterlimit="1.5" stroke-linejoin="round"/>
<path d="M877.998 505.2L880.749 508.443" stroke="white" stroke-width="2.02035" stroke-miterlimit="1.5" stroke-linejoin="round"/>
<path d="M887.256 493.346C887.256 493.346 886.556 492.598 886.485 492.342C886.426 492.131 886.653 491.869 886.868 491.836C887.325 491.766 888.664 491.748 889.112 491.838C889.338 491.882 889.659 492.164 889.556 492.371C889.419 492.645 888.479 493.243 888.293 493.479C888.219 493.573 888.489 493.682 888.442 493.785C888.387 493.903 888.04 494.281 887.97 494.184C887.903 494.095 887.74 493.908 887.74 493.908C887.74 493.908 887.473 494.285 887.331 494.254C887.188 494.223 886.899 493.872 886.887 493.72C886.874 493.569 887.256 493.346 887.256 493.346ZM887.768 492.975C887.768 492.975 888.371 492.584 888.313 492.506C888.254 492.428 887.571 492.478 887.485 492.553C887.397 492.629 887.768 492.975 887.768 492.975Z" fill="white"/>
<path d="M888.824 493.79C889.239 493.438 889.593 493.267 889.884 493.278C890.176 493.288 890.45 493.448 890.707 493.756C890.83 493.904 890.913 494.042 890.957 494.167C890.999 494.293 891.017 494.41 891.008 494.52C891 494.629 890.978 494.729 890.943 494.817C890.907 494.907 890.855 494.998 890.787 495.091C890.659 495.27 890.506 495.434 890.329 495.584C889.931 495.921 889.584 496.099 889.288 496.119C888.992 496.139 888.705 495.984 888.43 495.654C888.276 495.468 888.181 495.293 888.145 495.13C888.109 494.966 888.117 494.799 888.169 494.63C888.206 494.509 888.281 494.375 888.397 494.226C888.512 494.079 888.654 493.933 888.824 493.79ZM889.327 494.399C889.048 494.634 888.878 494.82 888.818 494.956C888.757 495.092 888.766 495.207 888.844 495.301C888.896 495.363 888.962 495.399 889.043 495.408C889.125 495.416 889.221 495.392 889.333 495.335C889.444 495.277 889.599 495.165 889.797 494.997C890.087 494.751 890.262 494.561 890.32 494.427C890.379 494.293 890.367 494.176 890.285 494.077C890.201 493.976 890.089 493.946 889.949 493.987C889.81 494.028 889.603 494.165 889.327 494.399Z" fill="white"/>
<path fill-rule="evenodd" clip-rule="evenodd" d="M934.367 458.011C934.111 459.798 929.336 463.569 928.095 463.318C926.507 462.996 920.566 456.106 920.474 453.857C920.425 452.652 925.077 448.442 926.746 448.551C928.973 448.696 934.686 455.783 934.367 458.011Z" fill="#B4AD60" stroke="#614133" stroke-width="0.86582" stroke-miterlimit="1.5" stroke-linecap="round" stroke-linejoin="round"/>
<path fill-rule="evenodd" clip-rule="evenodd" d="M925.009 461.803C922.294 461.225 920.859 459.753 919.011 457.171L921.397 455.761L925.009 461.803Z" fill="black" fill-opacity="0.3"/>
<path fill-rule="evenodd" clip-rule="evenodd" d="M934.349 458.26L933.704 459.204C931.944 457.978 930.275 456.471 928.839 454.767C927.546 453.234 926.441 451.544 925.622 449.763L924.472 450.624C925.159 451.633 925.89 452.687 926.678 453.758C927.037 454.246 927.408 454.738 927.791 455.233C928.604 456.284 929.473 457.34 930.471 458.342L930.175 458.673C929.624 458.224 929.1 457.766 928.604 457.289C927.828 456.545 927.113 455.777 926.457 454.991C925.281 453.585 924.291 452.137 923.347 450.803C923.189 450.574 923.239 450.26 923.46 450.092L925.521 448.517C925.65 448.419 925.817 448.387 925.973 448.429C926.129 448.471 926.258 448.583 926.32 448.733C927.133 450.633 928.298 452.429 929.677 454.043C931.061 455.661 932.662 457.096 934.349 458.26Z" fill="#614133"/>
<path fill-rule="evenodd" clip-rule="evenodd" d="M928.408 459.878L928.162 460.149C927.496 459.63 926.858 459.092 926.249 458.509C925.639 457.927 925.054 457.323 924.511 456.674C924.08 456.159 923.681 455.616 923.294 455.062C922.719 454.241 922.189 453.383 921.666 452.518L922.505 451.979C922.964 452.674 923.44 453.354 923.92 454.029C924.24 454.479 924.567 454.923 924.892 455.367C925.109 455.664 925.324 455.961 925.539 456.258C925.864 456.706 926.185 457.152 926.52 457.591C927.12 458.381 927.735 459.147 928.408 459.878Z" fill="#614133"/>
<path fill-rule="evenodd" clip-rule="evenodd" d="M258.532 917.109C258.928 917.96 269.291 954.285 269.291 954.285C269.291 954.285 271.969 960.702 272.186 964.115C272.486 968.85 249.946 975.948 247.241 971.596C245.4 968.634 244.28 961.542 244.28 961.542C244.28 961.542 233.813 926.456 233.587 924.591C232.782 917.969 234.391 893.311 234.391 893.311L241.366 891.209C241.366 891.209 255.824 911.295 258.532 917.109Z" fill="#F2EFD5" fill-opacity="0.3" stroke="#F2EFD5" stroke-width="1.18606" stroke-miterlimit="1.5" stroke-linecap="round" stroke-linejoin="round"/>
<path fill-rule="evenodd" clip-rule="evenodd" d="M242.418 895.27L256.645 916.969L258.216 922.975L252.484 917.952L242.418 895.27Z" fill="white" fill-opacity="0.8"/>
<path fill-rule="evenodd" clip-rule="evenodd" d="M241.629 948.571C241.629 948.571 247.003 964.524 249.187 968.153C249.996 969.496 257.097 971.333 257.097 971.333C257.097 971.333 248.911 972.962 247.925 971.322C245.74 967.693 241.629 948.571 241.629 948.571Z" fill="black" fill-opacity="0.3"/>
<path fill-rule="evenodd" clip-rule="evenodd" d="M260.428 924.15L269.136 953.786C262.139 957.26 255.313 959.354 247.364 960.422L238.537 931.131C246.521 929.58 253.557 927.257 260.428 924.15Z" fill="#AB0307" stroke="#795140" stroke-width="0.324233" stroke-miterlimit="1.5" stroke-linecap="round" stroke-linejoin="round"/>
<path fill-rule="evenodd" clip-rule="evenodd" d="M261.846 929.569L267.288 948.091C260.209 951.079 253.432 953.146 245.676 954.655L240.086 936.372C247.923 934.543 254.925 932.304 261.846 929.569Z" fill="#F7F189"/>
<path fill-rule="evenodd" clip-rule="evenodd" d="M260.918 934.115C261.935 934.472 264.153 943.104 263.7 944.711C263.353 945.942 250.767 949.879 249.112 949.036C247.907 948.422 245.518 940.037 245.944 938.767C246.167 938.102 250.191 937.213 253.92 936.134C257.308 935.154 260.415 933.938 260.918 934.115Z" fill="#AB0307" stroke="#795140" stroke-width="0.295832" stroke-miterlimit="1.5" stroke-linecap="round" stroke-linejoin="round"/>
<path fill-rule="evenodd" clip-rule="evenodd" d="M251.055 939.74C251.692 939.473 252.369 939.436 252.997 939.588C253.273 939.654 253.535 939.776 253.775 939.928C254.529 940.407 255.126 941.168 255.33 942.126C255.53 943.043 255.392 943.95 254.957 944.695C254.524 945.436 253.853 946.042 252.974 946.274C252.114 946.557 251.226 946.425 250.473 946.034C249.723 945.645 249.129 944.965 248.824 944.091C248.502 943.192 248.606 942.252 248.966 941.452C249.235 940.854 249.654 940.295 250.247 939.987C250.497 939.858 250.764 939.777 251.055 939.74ZM251.604 941.608C251.493 941.663 251.428 941.771 251.33 941.837C251.104 941.99 250.878 942.14 250.743 942.371C250.537 942.722 250.424 943.146 250.524 943.578C250.634 944.036 250.887 944.427 251.253 944.652C251.631 944.886 252.098 944.973 252.555 944.847C253.002 944.695 253.339 944.359 253.522 943.952C253.697 943.566 253.671 943.109 253.509 942.676C253.388 942.358 253.144 942.138 252.888 941.958C252.741 941.856 252.569 941.804 252.399 941.748C252.145 941.663 251.885 941.554 251.604 941.608Z" fill="white"/>
<path d="M255.72 939.384L260.399 937.929" stroke="white" stroke-width="1.68025" stroke-miterlimit="1.5" stroke-linejoin="round"/>
<path d="M257.228 943.838L261.907 942.383" stroke="white" stroke-width="1.68025" stroke-miterlimit="1.5" stroke-linejoin="round"/>
<path d="M257.029 941.28L260.272 940.272" stroke="white" stroke-width="1.62028" stroke-miterlimit="1.5" stroke-linejoin="round"/>
<path d="M251.323 930.632C251.323 930.632 250.552 930.915 250.341 930.887C250.168 930.864 250.05 930.613 250.095 930.443C250.191 930.082 250.609 929.083 250.818 928.779C250.923 928.625 251.232 928.476 251.351 928.618C251.507 928.806 251.641 929.692 251.754 929.904C251.799 929.989 251.965 929.823 252.025 929.891C252.094 929.969 252.258 930.346 252.165 930.367C252.078 930.388 251.889 930.45 251.889 930.45C251.889 930.45 252.079 930.767 252.011 930.863C251.942 930.959 251.592 931.062 251.478 931.024C251.363 930.986 251.323 930.632 251.323 930.632ZM251.217 930.135C251.217 930.135 251.125 929.564 251.049 929.583C250.973 929.602 250.79 930.124 250.817 930.212C250.844 930.301 251.217 930.135 251.217 930.135Z" fill="white"/>
<path d="M252.145 929.613C252.022 929.194 252.011 928.878 252.112 928.665C252.213 928.451 252.418 928.299 252.726 928.205C252.874 928.161 253.001 928.142 253.107 928.15C253.213 928.158 253.304 928.182 253.382 928.223C253.459 928.263 253.524 928.311 253.578 928.365C253.631 928.42 253.681 928.487 253.728 928.567C253.817 928.719 253.888 928.884 253.941 929.063C254.058 929.464 254.077 929.778 253.996 930.004C253.916 930.23 253.711 930.394 253.381 930.494C253.196 930.549 253.037 930.565 252.906 930.54C252.774 930.515 252.655 930.456 252.549 930.364C252.472 930.299 252.398 930.2 252.327 930.068C252.256 929.936 252.195 929.784 252.145 929.613ZM252.752 929.432C252.834 929.713 252.916 929.898 252.995 929.986C253.075 930.074 253.162 930.104 253.256 930.075C253.318 930.056 253.365 930.018 253.398 929.961C253.431 929.903 253.444 929.824 253.438 929.723C253.432 929.622 253.399 929.472 253.34 929.272C253.254 928.979 253.172 928.79 253.093 928.704C253.013 928.618 252.924 928.59 252.825 928.62C252.724 928.65 252.666 928.724 252.651 928.84C252.637 928.956 252.67 929.154 252.752 929.432Z" fill="white"/>
<path fill-rule="evenodd" clip-rule="evenodd" d="M240.562 884.413C241.784 885.166 243.001 889.893 242.419 890.734C241.674 891.81 234.735 894.041 233.064 893.4C232.169 893.056 230.591 888.28 231.207 887.078C232.029 885.473 239.038 883.473 240.562 884.413Z" fill="#B4AD60" stroke="#614133" stroke-width="0.69437" stroke-miterlimit="1.5" stroke-linecap="round" stroke-linejoin="round"/>
<path fill-rule="evenodd" clip-rule="evenodd" d="M240.727 884.506L241.21 885.282C239.752 886.197 238.118 886.956 236.416 887.481C234.884 887.954 233.297 888.239 231.736 888.283L231.996 889.406C232.951 889.216 233.954 889.007 234.988 888.763C235.459 888.65 235.936 888.531 236.42 888.404C237.446 888.134 238.495 887.824 239.546 887.402L239.692 887.726C239.188 887.991 238.686 888.234 238.18 888.451C237.389 888.79 236.6 889.078 235.816 889.315C234.414 889.741 233.04 890.017 231.765 890.295C231.548 890.339 231.335 890.203 231.284 889.986L230.795 887.964C230.765 887.838 230.795 887.704 230.875 887.602C230.956 887.5 231.079 887.44 231.208 887.441C232.854 887.439 234.538 887.144 236.156 886.633C237.78 886.119 239.339 885.387 240.727 884.506Z" fill="#614133"/>
<path fill-rule="evenodd" clip-rule="evenodd" d="M240.01 889.428L240.128 889.695C239.537 890.024 238.94 890.326 238.32 890.592C237.701 890.86 237.073 891.101 236.426 891.298C235.913 891.455 235.389 891.578 234.862 891.69C234.079 891.856 233.284 891.977 232.486 892.091L232.361 891.301C233.015 891.181 233.663 891.044 234.309 890.902C234.739 890.807 235.167 890.705 235.595 890.605C235.881 890.538 236.167 890.473 236.452 890.407C236.883 890.309 237.31 890.212 237.737 890.103C238.506 889.908 239.261 889.695 240.01 889.428Z" fill="#614133"/>
<path fill-rule="evenodd" clip-rule="evenodd" d="M1737.75 102.001C1738.66 101.793 1776.11 99.3535 1776.11 99.3535C1776.11 99.3535 1782.91 98.091 1786.26 98.6042C1790.91 99.3163 1792.9 122.921 1788.09 124.648C1784.82 125.823 1777.71 125.414 1777.71 125.414C1777.71 125.414 1741.44 128.219 1739.58 128.045C1732.99 127.426 1709.45 120.609 1709.45 120.609L1708.93 113.324C1708.93 113.324 1731.53 103.419 1737.75 102.001Z" fill="#F2EFD5" fill-opacity="0.3" stroke="#F2EFD5" stroke-width="1.18606" stroke-miterlimit="1.5" stroke-linecap="round" stroke-linejoin="round"/>
<path fill-rule="evenodd" clip-rule="evenodd" d="M1788.9 116.945C1788.9 116.945 1788.3 103.875 1786.57 101.132C1785.16 98.898 1778.51 100.488 1778.51 100.488C1780.65 100.929 1783.82 101.282 1785.5 103.738C1787.35 106.452 1787.67 111.503 1788.9 116.945Z" fill="white" fill-opacity="0.8"/>
<path fill-rule="evenodd" clip-rule="evenodd" d="M1744.95 101.663L1775.62 99.3855C1777.46 106.985 1778 114.124 1777.29 122.147L1746.94 124.615C1747.18 116.455 1746.47 109.061 1744.95 101.663Z" fill="#AB0307" stroke="#795140" stroke-width="0.324233" stroke-miterlimit="1.5" stroke-linecap="round" stroke-linejoin="round"/>
<path fill-rule="evenodd" clip-rule="evenodd" d="M1750.51 101.405L1769.7 99.9797C1771.05 107.566 1771.58 114.661 1771.34 122.599L1752.36 124.221C1752.3 116.135 1751.65 108.783 1750.51 101.405Z" fill="#F7F189"/>
<path fill-rule="evenodd" clip-rule="evenodd" d="M1754.72 103.268C1755.29 102.344 1764.17 101.992 1765.63 102.778C1766.75 103.379 1767.82 116.583 1766.64 118.031C1765.78 119.085 1757.1 119.657 1755.96 118.97C1755.36 118.61 1755.38 114.467 1755.15 110.573C1754.94 107.036 1754.44 103.725 1754.72 103.268Z" fill="#AB0307" stroke="#795140" stroke-width="0.295832" stroke-miterlimit="1.5" stroke-linecap="round" stroke-linejoin="round"/>
<path fill-rule="evenodd" clip-rule="evenodd" d="M1758.04 114.164C1757.92 113.481 1758.03 112.809 1758.31 112.224C1758.44 111.968 1758.62 111.736 1758.82 111.533C1759.45 110.894 1760.32 110.468 1761.29 110.47C1762.23 110.468 1763.08 110.796 1763.7 111.38C1764.33 111.962 1764.77 112.75 1764.8 113.661C1764.89 114.566 1764.57 115.41 1764.02 116.067C1763.48 116.721 1762.69 117.161 1761.77 117.275C1760.83 117.401 1759.94 117.1 1759.24 116.577C1758.72 116.186 1758.27 115.657 1758.1 115.01C1758.03 114.737 1758.01 114.457 1758.04 114.164ZM1759.97 114.02C1760 114.141 1760.09 114.227 1760.13 114.337C1760.23 114.591 1760.33 114.845 1760.52 115.027C1760.82 115.303 1761.21 115.504 1761.65 115.497C1762.12 115.486 1762.55 115.32 1762.85 115.009C1763.16 114.686 1763.35 114.247 1763.33 113.771C1763.28 113.3 1763.02 112.899 1762.67 112.633C1762.33 112.379 1761.88 112.308 1761.43 112.375C1761.09 112.426 1760.82 112.62 1760.59 112.833C1760.46 112.956 1760.37 113.114 1760.28 113.268C1760.14 113.501 1759.98 113.732 1759.97 114.02Z" fill="white"/>
<path d="M1758.71 109.483L1758.31 104.563" stroke="white" stroke-width="1.68025" stroke-miterlimit="1.5" stroke-linejoin="round"/>
<path d="M1763.34 108.958L1762.94 104.038" stroke="white" stroke-width="1.68025" stroke-miterlimit="1.5" stroke-linejoin="round"/>
<path d="M1760.82 108.602L1760.55 105.191" stroke="white" stroke-width="1.62028" stroke-miterlimit="1.5" stroke-linejoin="round"/>
<path d="M1749.29 111.926C1749.29 111.926 1749.39 112.743 1749.32 112.943C1749.26 113.108 1748.99 113.171 1748.83 113.091C1748.5 112.92 1747.63 112.299 1747.38 112.029C1747.25 111.893 1747.17 111.558 1747.34 111.472C1747.55 111.359 1748.44 111.414 1748.67 111.349C1748.77 111.323 1748.64 111.124 1748.72 111.079C1748.81 111.028 1749.21 110.947 1749.21 111.043C1749.21 111.133 1749.23 111.331 1749.23 111.331C1749.23 111.331 1749.58 111.212 1749.66 111.3C1749.74 111.387 1749.76 111.752 1749.7 111.857C1749.64 111.961 1749.29 111.926 1749.29 111.926ZM1748.78 111.925C1748.78 111.925 1748.21 111.894 1748.21 111.973C1748.21 112.051 1748.68 112.341 1748.77 112.333C1748.86 112.325 1748.78 111.925 1748.78 111.925Z" fill="white"/>
<path d="M1748.47 110.894C1748.04 110.927 1747.73 110.871 1747.54 110.726C1747.36 110.582 1747.26 110.348 1747.23 110.026C1747.22 109.872 1747.23 109.743 1747.26 109.641C1747.29 109.539 1747.34 109.454 1747.39 109.387C1747.45 109.32 1747.51 109.266 1747.57 109.225C1747.64 109.183 1747.71 109.149 1747.8 109.12C1747.97 109.064 1748.15 109.03 1748.33 109.016C1748.75 108.985 1749.05 109.033 1749.26 109.16C1749.46 109.287 1749.57 109.523 1749.6 109.868C1749.61 110.061 1749.59 110.22 1749.54 110.344C1749.49 110.468 1749.4 110.572 1749.29 110.657C1749.21 110.719 1749.1 110.77 1748.95 110.812C1748.81 110.854 1748.65 110.881 1748.47 110.894ZM1748.43 110.261C1748.72 110.239 1748.92 110.198 1749.02 110.139C1749.12 110.079 1749.17 110 1749.16 109.902C1749.16 109.837 1749.13 109.782 1749.08 109.738C1749.03 109.694 1748.96 109.664 1748.86 109.649C1748.76 109.634 1748.61 109.634 1748.4 109.649C1748.1 109.672 1747.9 109.713 1747.8 109.772C1747.7 109.832 1747.65 109.913 1747.66 110.017C1747.66 110.123 1747.72 110.195 1747.83 110.234C1747.94 110.273 1748.14 110.282 1748.43 110.261Z" fill="white"/>
<path fill-rule="evenodd" clip-rule="evenodd" d="M1702.21 112.599C1703.21 111.557 1708.07 111.362 1708.76 112.112C1709.64 113.072 1710.29 120.364 1709.3 121.87C1708.77 122.677 1703.79 123.216 1702.75 122.357C1701.37 121.209 1700.96 113.898 1702.21 112.599Z" fill="#B4AD60" stroke="#614133" stroke-width="0.69437" stroke-miterlimit="1.5" stroke-linecap="round" stroke-linejoin="round"/>
<path fill-rule="evenodd" clip-rule="evenodd" d="M1702.33 112.441L1703.19 112.132C1703.77 113.762 1704.15 115.533 1704.29 117.321C1704.42 118.93 1704.35 120.552 1704.05 122.098L1705.2 122.082C1705.22 121.101 1705.24 120.07 1705.22 119C1705.22 118.512 1705.21 118.017 1705.19 117.514C1705.15 116.445 1705.08 115.347 1704.89 114.223L1705.24 114.148C1705.39 114.7 1705.52 115.246 1705.62 115.791C1705.78 116.642 1705.88 117.48 1705.94 118.302C1706.05 119.773 1706.02 121.184 1706.01 122.499C1706.01 122.722 1705.83 122.903 1705.61 122.907L1703.53 122.957C1703.4 122.959 1703.28 122.901 1703.2 122.8C1703.12 122.699 1703.09 122.565 1703.11 122.438C1703.47 120.817 1703.55 119.097 1703.41 117.395C1703.26 115.687 1702.89 113.997 1702.33 112.441Z" fill="#614133"/>
<path fill-rule="evenodd" clip-rule="evenodd" d="M1702.77 112.317C1702.77 112.317 1703.82 118.949 1705 120.133C1706.18 121.319 1709.87 118.414 1709.87 118.414C1709.87 118.414 1733.19 122.65 1738.17 124.045C1739.13 124.312 1755.35 126.484 1755.35 126.484C1752.74 125.925 1740.81 127.681 1737.67 127.09C1728.96 125.452 1713.08 119.873 1709.63 121.471C1709.63 121.471 1703.74 123.852 1702.88 122.17C1700.23 116.937 1702.77 112.317 1702.77 112.317Z" fill="black" fill-opacity="0.3"/>
<path fill-rule="evenodd" clip-rule="evenodd" d="M1706.95 114.201L1707.24 114.141C1707.43 114.794 1707.59 115.446 1707.72 116.114C1707.84 116.781 1707.94 117.45 1707.99 118.13C1708.03 118.668 1708.04 119.211 1708.03 119.754C1708.02 120.56 1707.97 121.369 1707.9 122.179L1707.11 122.133C1707.13 121.463 1707.14 120.796 1707.14 120.13C1707.14 119.686 1707.14 119.242 1707.13 118.8C1707.13 118.504 1707.13 118.209 1707.13 117.914C1707.13 117.469 1707.12 117.027 1707.11 116.583C1707.09 115.785 1707.05 114.995 1706.95 114.201Z" fill="#614133"/>
<path fill-rule="evenodd" clip-rule="evenodd" d="M2058.5 96.4809C2058.46 97.2072 2052.06 125.747 2052.06 125.747C2052.06 125.747 2051.5 131.109 2050.39 133.504C2048.84 136.827 2030.95 133.11 2030.72 129.137C2030.57 126.433 2032.43 121.203 2032.43 121.203C2032.43 121.203 2038.3 93.4638 2038.84 92.1139C2040.74 87.3217 2050.94 71.2187 2050.94 71.2187L2056.44 72.4332C2056.44 72.4332 2058.82 91.516 2058.5 96.4809Z" fill="#F2EFD5" fill-opacity="0.3" stroke="#F2EFD5" stroke-width="0.917997" stroke-miterlimit="1.5" stroke-linecap="round" stroke-linejoin="round"/>
<path fill-rule="evenodd" clip-rule="evenodd" d="M2057.16 101.972L2052.14 125.361C2046.12 125.06 2040.72 123.888 2034.94 121.596L2039.75 98.3965C2045.73 100.375 2051.36 101.47 2057.16 101.972Z" fill="#AB0307" stroke="#795140" stroke-width="0.250953" stroke-miterlimit="1.5" stroke-linecap="round" stroke-linejoin="round"/>
<path fill-rule="evenodd" clip-rule="evenodd" d="M2056.12 106.181L2052.99 120.799C2047.09 120.138 2041.74 118.967 2035.92 117.047L2038.87 102.534C2044.86 104.269 2050.42 105.408 2056.12 106.181Z" fill="#F7F189"/>
<path fill-rule="evenodd" clip-rule="evenodd" d="M2053.82 108.907C2054.38 109.535 2052.7 116.227 2051.8 117.144C2051.11 117.847 2041.13 115.739 2040.32 114.54C2039.73 113.667 2041.2 107.078 2041.96 106.379C2042.36 106.013 2045.41 106.937 2048.34 107.621C2050.99 108.242 2053.55 108.597 2053.82 108.907Z" fill="#AB0307" stroke="#795140" stroke-width="0.228971" stroke-miterlimit="1.5" stroke-linecap="round" stroke-linejoin="round"/>
<path fill-rule="evenodd" clip-rule="evenodd" d="M2045.06 108.984C2045.59 109.045 2046.06 109.277 2046.43 109.618C2046.6 109.768 2046.73 109.949 2046.83 110.144C2047.17 110.754 2047.29 111.497 2047.08 112.223C2046.88 112.921 2046.45 113.483 2045.88 113.823C2045.31 114.161 2044.64 114.317 2043.95 114.141C2043.27 114.006 2042.71 113.58 2042.35 113.029C2041.98 112.481 2041.83 111.794 2041.95 111.086C2042.06 110.354 2042.48 109.757 2043.01 109.351C2043.42 109.048 2043.91 108.829 2044.42 108.845C2044.64 108.852 2044.85 108.899 2045.06 108.984ZM2044.74 110.459C2044.65 110.454 2044.57 110.502 2044.47 110.51C2044.27 110.528 2044.06 110.543 2043.88 110.648C2043.61 110.808 2043.38 111.053 2043.29 111.383C2043.19 111.736 2043.22 112.097 2043.39 112.388C2043.56 112.69 2043.84 112.927 2044.2 113.014C2044.55 113.081 2044.91 112.981 2045.18 112.775C2045.44 112.579 2045.59 112.26 2045.64 111.905C2045.68 111.644 2045.59 111.402 2045.49 111.183C2045.42 111.058 2045.33 110.958 2045.23 110.855C2045.09 110.701 2044.96 110.528 2044.74 110.459Z" fill="white"/>
<path d="M2048.36 110.504L2052.07 111.283" stroke="white" stroke-width="1.3005" stroke-miterlimit="1.5" stroke-linejoin="round"/>
<path d="M2047.73 114.09L2051.44 114.869" stroke="white" stroke-width="1.3005" stroke-miterlimit="1.5" stroke-linejoin="round"/>
<path d="M2048.55 112.283L2051.12 112.822" stroke="white" stroke-width="1.25408" stroke-miterlimit="1.5" stroke-linejoin="round"/>
<path d="M2048.63 102.916C2048.63 102.916 2048 102.816 2047.87 102.717C2047.76 102.636 2047.77 102.421 2047.87 102.323C2048.07 102.114 2048.72 101.596 2048.97 101.469C2049.1 101.405 2049.36 101.421 2049.39 101.562C2049.43 101.749 2049.19 102.4 2049.19 102.587C2049.19 102.661 2049.36 102.612 2049.38 102.681C2049.4 102.76 2049.37 103.077 2049.3 103.056C2049.23 103.038 2049.08 103.008 2049.08 103.008C2049.08 103.008 2049.09 103.295 2049.01 103.334C2048.93 103.373 2048.65 103.31 2048.59 103.241C2048.53 103.172 2048.63 102.916 2048.63 102.916ZM2048.74 102.54C2048.74 102.54 2048.89 102.118 2048.83 102.101C2048.77 102.086 2048.46 102.37 2048.44 102.44C2048.43 102.511 2048.74 102.54 2048.74 102.54Z" fill="white"/>
<path d="M2049.56 102.534C2049.63 102.203 2049.74 101.984 2049.89 101.879C2050.04 101.772 2050.23 101.746 2050.47 101.8C2050.59 101.826 2050.68 101.862 2050.75 101.907C2050.82 101.953 2050.88 102.004 2050.91 102.061C2050.95 102.117 2050.98 102.175 2050.99 102.232C2051.01 102.289 2051.02 102.353 2051.02 102.425C2051.02 102.562 2051.01 102.701 2050.98 102.842C2050.91 103.159 2050.81 103.378 2050.67 103.501C2050.53 103.624 2050.34 103.657 2050.08 103.599C2049.93 103.567 2049.82 103.517 2049.74 103.451C2049.66 103.384 2049.6 103.299 2049.56 103.196C2049.53 103.122 2049.52 103.028 2049.52 102.911C2049.52 102.795 2049.53 102.669 2049.56 102.534ZM2050.04 102.642C2049.99 102.863 2049.98 103.019 2050 103.109C2050.02 103.199 2050.07 103.252 2050.14 103.268C2050.19 103.279 2050.24 103.272 2050.28 103.245C2050.33 103.218 2050.36 103.17 2050.4 103.099C2050.43 103.028 2050.46 102.914 2050.5 102.756C2050.55 102.525 2050.56 102.365 2050.54 102.277C2050.52 102.189 2050.47 102.136 2050.39 102.119C2050.31 102.101 2050.24 102.129 2050.19 102.202C2050.14 102.275 2050.09 102.422 2050.04 102.642Z" fill="white"/>
<path fill-rule="evenodd" clip-rule="evenodd" d="M2058.46 67.5447C2059.01 68.5188 2058.1 72.1849 2057.39 72.5339C2056.49 72.9804 2050.97 71.8593 2050.07 70.7907C2049.59 70.2179 2050.28 66.3828 2051.14 65.8016C2052.29 65.0257 2057.78 66.33 2058.46 67.5447Z" fill="#B4AD60" stroke="#614133" stroke-width="0.537436" stroke-miterlimit="1.5" stroke-linecap="round" stroke-linejoin="round"/>
<path fill-rule="evenodd" clip-rule="evenodd" d="M2058.55 67.667L2058.59 68.3752C2057.26 68.4439 2055.87 68.3405 2054.52 68.0524C2053.31 67.7933 2052.13 67.3861 2051.06 66.8251L2050.82 67.6847C2051.54 67.9173 2052.29 68.1552 2053.08 68.3806C2053.44 68.4828 2053.81 68.5826 2054.19 68.6793C2054.98 68.8846 2055.81 69.0713 2056.67 69.1825L2056.65 69.4574C2056.21 69.447 2055.78 69.4216 2055.36 69.3773C2054.7 69.3078 2054.06 69.2039 2053.44 69.0681C2052.33 68.8268 2051.3 68.4943 2050.33 68.1998C2050.17 68.148 2050.07 67.9751 2050.12 67.8088L2050.54 66.2531C2050.56 66.1559 2050.63 66.0768 2050.72 66.0379C2050.82 65.999 2050.92 66.0051 2051.01 66.0548C2052.13 66.6765 2053.38 67.1131 2054.66 67.3789C2055.95 67.6449 2057.28 67.7386 2058.55 67.667Z" fill="#614133"/>
<path fill-rule="evenodd" clip-rule="evenodd" d="M2055.76 75.4697L2057.54 95.1297L2056.4 98.4149C2056.85 95.6335 2055.53 94.3367 2053.36 93.7504C2057.02 92.8486 2056.04 83.5128 2055.76 75.4697Z" fill="white" fill-opacity="0.8"/>
<path fill-rule="evenodd" clip-rule="evenodd" d="M2034.68 113.129C2034.68 113.129 2033.37 125.758 2034.96 129.125C2036.55 132.491 2044.19 133.33 2044.19 133.33C2044.19 133.33 2033.84 132.557 2032.26 129.19C2030.67 125.824 2034.68 113.129 2034.68 113.129Z" fill="black" fill-opacity="0.3"/>
<path fill-rule="evenodd" clip-rule="evenodd" d="M2056.24 70.7293L2056.22 70.9552C2055.7 70.9545 2055.18 70.9335 2054.66 70.88C2054.15 70.8272 2053.63 70.7535 2053.12 70.6423C2052.71 70.5544 2052.31 70.4404 2051.91 70.3166C2051.32 70.1331 2050.74 69.9149 2050.16 69.6905L2050.36 69.1081C2050.85 69.2741 2051.34 69.4257 2051.83 69.5735C2052.16 69.6721 2052.49 69.7646 2052.81 69.8585C2053.03 69.9214 2053.25 69.985 2053.47 70.0486C2053.79 70.1443 2054.12 70.2403 2054.45 70.3278C2055.04 70.4865 2055.63 70.6276 2056.24 70.7293Z" fill="#614133"/>
<path fill-rule="evenodd" clip-rule="evenodd" d="M2047.23 2231.62C2048.14 2231.42 2085.59 2228.98 2085.59 2228.98C2085.59 2228.98 2092.38 2227.71 2095.74 2228.23C2100.39 2228.94 2102.37 2252.54 2097.57 2254.27C2094.3 2255.45 2087.19 2255.04 2087.19 2255.04C2087.19 2255.04 2050.92 2257.84 2049.06 2257.67C2042.47 2257.05 2018.93 2250.23 2018.93 2250.23L2018.41 2242.95C2018.41 2242.95 2041.01 2233.04 2047.23 2231.62Z" fill="#F2EFD5" fill-opacity="0.3" stroke="#F2EFD5" stroke-width="1.18606" stroke-miterlimit="1.5" stroke-linecap="round" stroke-linejoin="round"/>
<path fill-rule="evenodd" clip-rule="evenodd" d="M2054.43 2231.29L2085.09 2229.01C2086.93 2236.61 2087.47 2243.75 2086.77 2251.77L2056.42 2254.24C2056.66 2246.08 2055.94 2238.68 2054.43 2231.29Z" fill="#AB0307" stroke="#795140" stroke-width="0.324233" stroke-miterlimit="1.5" stroke-linecap="round" stroke-linejoin="round"/>
<path fill-rule="evenodd" clip-rule="evenodd" d="M2059.99 2231.03L2079.18 2229.6C2080.53 2237.19 2081.05 2244.28 2080.82 2252.22L2061.83 2253.84C2061.77 2245.76 2061.13 2238.41 2059.99 2231.03Z" fill="#F7F189"/>
<path fill-rule="evenodd" clip-rule="evenodd" d="M2064.2 2232.89C2064.77 2231.97 2073.64 2231.61 2075.11 2232.4C2076.23 2233 2077.3 2246.21 2076.11 2247.65C2075.25 2248.71 2066.58 2249.28 2065.44 2248.59C2064.84 2248.23 2064.86 2244.09 2064.63 2240.2C2064.42 2236.66 2063.91 2233.35 2064.2 2232.89Z" fill="#AB0307" stroke="#795140" stroke-width="0.295832" stroke-miterlimit="1.5" stroke-linecap="round" stroke-linejoin="round"/>
<path fill-rule="evenodd" clip-rule="evenodd" d="M2067.51 2243.79C2067.39 2243.1 2067.51 2242.43 2067.79 2241.85C2067.92 2241.59 2068.09 2241.36 2068.29 2241.16C2068.92 2240.52 2069.79 2240.09 2070.77 2240.09C2071.7 2240.09 2072.55 2240.42 2073.18 2241C2073.81 2241.59 2074.25 2242.37 2074.28 2243.28C2074.37 2244.19 2074.04 2245.03 2073.5 2245.69C2072.96 2246.34 2072.17 2246.78 2071.25 2246.9C2070.31 2247.02 2069.42 2246.72 2068.72 2246.2C2068.2 2245.81 2067.75 2245.28 2067.58 2244.63C2067.51 2244.36 2067.49 2244.08 2067.51 2243.79ZM2069.45 2243.64C2069.48 2243.76 2069.57 2243.85 2069.61 2243.96C2069.71 2244.21 2069.81 2244.47 2070 2244.65C2070.3 2244.93 2070.68 2245.13 2071.12 2245.12C2071.59 2245.11 2072.03 2244.94 2072.33 2244.63C2072.64 2244.31 2072.83 2243.87 2072.8 2243.39C2072.75 2242.92 2072.5 2242.52 2072.15 2242.26C2071.81 2242 2071.36 2241.93 2070.9 2242C2070.57 2242.05 2070.3 2242.24 2070.07 2242.46C2069.94 2242.58 2069.85 2242.74 2069.76 2242.89C2069.62 2243.12 2069.46 2243.36 2069.45 2243.64Z" fill="white"/>
<path d="M2068.18 2239.11L2067.78 2234.19" stroke="white" stroke-width="1.68025" stroke-miterlimit="1.5" stroke-linejoin="round"/>
<path d="M2072.82 2238.58L2072.42 2233.66" stroke="white" stroke-width="1.68025" stroke-miterlimit="1.5" stroke-linejoin="round"/>
<path d="M2070.3 2238.22L2070.02 2234.81" stroke="white" stroke-width="1.62028" stroke-miterlimit="1.5" stroke-linejoin="round"/>
<path d="M2058.76 2241.55C2058.76 2241.55 2058.87 2242.37 2058.8 2242.57C2058.74 2242.73 2058.47 2242.79 2058.31 2242.71C2057.98 2242.54 2057.1 2241.92 2056.85 2241.65C2056.73 2241.52 2056.65 2241.18 2056.81 2241.1C2057.03 2240.98 2057.92 2241.04 2058.15 2240.97C2058.24 2240.95 2058.12 2240.75 2058.2 2240.7C2058.29 2240.65 2058.69 2240.57 2058.69 2240.67C2058.69 2240.76 2058.71 2240.95 2058.71 2240.95C2058.71 2240.95 2059.06 2240.84 2059.14 2240.92C2059.22 2241.01 2059.24 2241.38 2059.18 2241.48C2059.12 2241.58 2058.76 2241.55 2058.76 2241.55ZM2058.26 2241.55C2058.26 2241.55 2057.68 2241.52 2057.68 2241.6C2057.69 2241.67 2058.15 2241.96 2058.24 2241.96C2058.34 2241.95 2058.26 2241.55 2058.26 2241.55Z" fill="white"/>
<path d="M2057.95 2240.52C2057.51 2240.55 2057.21 2240.49 2057.02 2240.35C2056.84 2240.21 2056.73 2239.97 2056.71 2239.65C2056.7 2239.5 2056.71 2239.37 2056.74 2239.27C2056.77 2239.16 2056.81 2239.08 2056.87 2239.01C2056.93 2238.94 2056.99 2238.89 2057.05 2238.85C2057.12 2238.81 2057.19 2238.77 2057.28 2238.74C2057.45 2238.69 2057.62 2238.65 2057.81 2238.64C2058.22 2238.61 2058.53 2238.66 2058.73 2238.78C2058.94 2238.91 2059.05 2239.15 2059.07 2239.49C2059.09 2239.69 2059.07 2239.84 2059.01 2239.97C2058.96 2240.09 2058.88 2240.2 2058.77 2240.28C2058.69 2240.34 2058.57 2240.39 2058.43 2240.44C2058.29 2240.48 2058.13 2240.51 2057.95 2240.52ZM2057.91 2239.88C2058.2 2239.86 2058.39 2239.82 2058.5 2239.76C2058.6 2239.7 2058.65 2239.62 2058.64 2239.53C2058.64 2239.46 2058.61 2239.41 2058.56 2239.36C2058.51 2239.32 2058.44 2239.29 2058.34 2239.27C2058.24 2239.26 2058.09 2239.26 2057.88 2239.27C2057.58 2239.3 2057.37 2239.34 2057.27 2239.4C2057.17 2239.46 2057.13 2239.54 2057.13 2239.64C2057.14 2239.75 2057.2 2239.82 2057.31 2239.86C2057.42 2239.9 2057.62 2239.91 2057.91 2239.88Z" fill="white"/>
<path fill-rule="evenodd" clip-rule="evenodd" d="M2011.69 2242.22C2012.69 2241.18 2017.55 2240.98 2018.24 2241.73C2019.12 2242.69 2019.77 2249.99 2018.78 2251.49C2018.25 2252.3 2013.26 2252.84 2012.23 2251.98C2010.85 2250.83 2010.44 2243.52 2011.69 2242.22Z" fill="#B4AD60" stroke="#614133" stroke-width="0.69437" stroke-miterlimit="1.5" stroke-linecap="round" stroke-linejoin="round"/>
<path fill-rule="evenodd" clip-rule="evenodd" d="M2011.81 2242.06L2012.67 2241.75C2013.24 2243.38 2013.63 2245.15 2013.77 2246.94C2013.89 2248.55 2013.82 2250.17 2013.53 2251.72L2014.68 2251.7C2014.7 2250.72 2014.71 2249.69 2014.7 2248.62C2014.7 2248.13 2014.68 2247.64 2014.66 2247.14C2014.63 2246.07 2014.55 2244.97 2014.37 2243.84L2014.72 2243.77C2014.87 2244.32 2014.99 2244.87 2015.09 2245.41C2015.25 2246.26 2015.36 2247.1 2015.42 2247.92C2015.53 2249.4 2015.5 2250.81 2015.49 2252.12C2015.49 2252.34 2015.31 2252.52 2015.08 2252.53L2013.01 2252.58C2012.88 2252.58 2012.76 2252.52 2012.68 2252.42C2012.59 2252.32 2012.56 2252.19 2012.59 2252.06C2012.95 2250.44 2013.03 2248.72 2012.88 2247.02C2012.74 2245.31 2012.37 2243.62 2011.81 2242.06Z" fill="#614133"/>
<path fill-rule="evenodd" clip-rule="evenodd" d="M2016.43 2243.83L2016.71 2243.77C2016.9 2244.42 2017.07 2245.07 2017.19 2245.74C2017.32 2246.4 2017.42 2247.07 2017.47 2247.75C2017.51 2248.29 2017.51 2248.83 2017.51 2249.38C2017.5 2250.18 2017.44 2250.99 2017.38 2251.8L2016.58 2251.76C2016.61 2251.09 2016.62 2250.42 2016.62 2249.75C2016.62 2249.31 2016.61 2248.87 2016.61 2248.42C2016.61 2248.13 2016.61 2247.83 2016.6 2247.54C2016.6 2247.09 2016.6 2246.65 2016.59 2246.21C2016.57 2245.41 2016.52 2244.62 2016.43 2243.83Z" fill="#614133"/>
<path fill-rule="evenodd" clip-rule="evenodd" d="M1174.74 887.761C1173.82 887.964 1136.37 890.221 1136.37 890.221C1136.37 890.221 1129.56 891.45 1126.21 890.92C1121.56 890.185 1119.69 866.569 1124.5 864.866C1127.78 863.706 1134.89 864.15 1134.89 864.15C1134.89 864.15 1171.17 861.523 1173.03 861.706C1179.62 862.357 1203.12 869.29 1203.12 869.29L1203.61 876.577C1203.61 876.577 1180.96 886.373 1174.74 887.761Z" fill="#F2EFD5" fill-opacity="0.3" stroke="#F2EFD5" stroke-width="1.18606" stroke-miterlimit="1.5" stroke-linecap="round" stroke-linejoin="round"/>
<path fill-rule="evenodd" clip-rule="evenodd" d="M1167.53 888.064L1136.86 890.191C1135.06 882.583 1134.55 875.44 1135.29 867.42L1165.66 865.101C1165.38 873.261 1166.06 880.658 1167.53 888.064Z" fill="#AB0307" stroke="#795140" stroke-width="0.324233" stroke-miterlimit="1.5" stroke-linecap="round" stroke-linejoin="round"/>
<path fill-rule="evenodd" clip-rule="evenodd" d="M1161.98 888.294L1142.79 889.625C1141.47 882.032 1140.98 874.934 1141.25 866.997L1160.24 865.468C1160.26 873.555 1160.87 880.91 1161.98 888.294Z" fill="#F7F189"/>
<path fill-rule="evenodd" clip-rule="evenodd" d="M1122.9 879.514C1122.9 879.514 1123.82 887.266 1127.07 887.755C1134.88 888.928 1174.53 887.152 1174.53 887.152C1174.53 887.152 1133.86 891.161 1126.05 889.988C1122.47 889.449 1122.9 879.514 1122.9 879.514Z" fill="black" fill-opacity="0.3"/>
<path fill-rule="evenodd" clip-rule="evenodd" d="M1200.44 869.9L1174.32 863.537L1164.1 863.674L1174.58 865.638L1200.44 869.9Z" fill="white" fill-opacity="0.8"/>
<path fill-rule="evenodd" clip-rule="evenodd" d="M1157.78 886.41C1157.2 887.331 1148.32 887.64 1146.87 886.847C1145.75 886.24 1144.74 873.03 1145.93 871.588C1146.8 870.538 1155.47 870.009 1156.61 870.702C1157.21 871.065 1157.17 875.208 1157.38 879.103C1157.58 882.641 1158.06 885.955 1157.78 886.41Z" fill="#AB0307" stroke="#795140" stroke-width="0.295832" stroke-miterlimit="1.5" stroke-linecap="round" stroke-linejoin="round"/>
<path fill-rule="evenodd" clip-rule="evenodd" d="M1154.51 875.498C1154.63 876.182 1154.51 876.853 1154.23 877.437C1154.1 877.693 1153.92 877.923 1153.72 878.126C1153.09 878.762 1152.22 879.183 1151.24 879.176C1150.31 879.174 1149.46 878.842 1148.83 878.254C1148.21 877.669 1147.77 876.88 1147.74 875.968C1147.66 875.062 1147.99 874.22 1148.54 873.566C1149.08 872.915 1149.87 872.479 1150.79 872.369C1151.74 872.247 1152.62 872.553 1153.32 873.079C1153.84 873.473 1154.29 874.005 1154.45 874.652C1154.52 874.925 1154.54 875.206 1154.51 875.498ZM1152.58 875.632C1152.55 875.512 1152.46 875.425 1152.42 875.315C1152.32 875.06 1152.22 874.806 1152.03 874.623C1151.74 874.345 1151.35 874.143 1150.91 874.147C1150.44 874.156 1150 874.32 1149.7 874.63C1149.39 874.951 1149.2 875.389 1149.22 875.865C1149.27 876.336 1149.52 876.739 1149.87 877.007C1150.21 877.262 1150.66 877.336 1151.12 877.271C1151.45 877.221 1151.72 877.029 1151.95 876.817C1152.08 876.694 1152.17 876.537 1152.26 876.383C1152.4 876.151 1152.57 875.921 1152.58 875.632Z" fill="white"/>
<path d="M1153.82 880.176L1154.2 885.098" stroke="white" stroke-width="1.68025" stroke-miterlimit="1.5" stroke-linejoin="round"/>
<path d="M1149.18 880.678L1149.56 885.6" stroke="white" stroke-width="1.68025" stroke-miterlimit="1.5" stroke-linejoin="round"/>
<path d="M1151.69 881.046L1151.96 884.458" stroke="white" stroke-width="1.62028" stroke-miterlimit="1.5" stroke-linejoin="round"/>
<path d="M1163.25 877.779C1163.25 877.779 1163.15 876.961 1163.22 876.761C1163.28 876.596 1163.55 876.535 1163.71 876.616C1164.04 876.788 1164.91 877.414 1165.16 877.685C1165.29 877.822 1165.36 878.157 1165.2 878.242C1164.98 878.354 1164.09 878.294 1163.86 878.359C1163.77 878.384 1163.89 878.583 1163.81 878.628C1163.72 878.678 1163.32 878.758 1163.32 878.662C1163.32 878.572 1163.3 878.373 1163.3 878.373C1163.3 878.373 1162.95 878.491 1162.87 878.403C1162.8 878.315 1162.77 877.95 1162.84 877.846C1162.9 877.742 1163.25 877.779 1163.25 877.779ZM1163.76 877.782C1163.76 877.782 1164.33 877.815 1164.33 877.737C1164.33 877.659 1163.86 877.367 1163.77 877.374C1163.68 877.381 1163.76 877.782 1163.76 877.782Z" fill="white"/>
<path d="M1164.06 878.814C1164.49 878.784 1164.8 878.841 1164.99 878.987C1165.17 879.132 1165.27 879.366 1165.29 879.688C1165.3 879.843 1165.29 879.971 1165.26 880.073C1165.23 880.175 1165.19 880.26 1165.13 880.327C1165.07 880.394 1165.01 880.447 1164.95 880.488C1164.88 880.529 1164.81 880.563 1164.72 880.592C1164.55 880.646 1164.38 880.68 1164.19 880.693C1163.78 880.722 1163.47 880.672 1163.27 880.544C1163.06 880.416 1162.95 880.18 1162.93 879.835C1162.92 879.641 1162.94 879.483 1162.99 879.359C1163.04 879.236 1163.13 879.132 1163.24 879.047C1163.32 878.986 1163.43 878.935 1163.58 878.894C1163.72 878.853 1163.88 878.826 1164.06 878.814ZM1164.1 879.448C1163.81 879.468 1163.61 879.508 1163.51 879.567C1163.4 879.626 1163.36 879.705 1163.36 879.803C1163.37 879.868 1163.39 879.922 1163.44 879.967C1163.49 880.011 1163.56 880.041 1163.66 880.057C1163.76 880.073 1163.92 880.074 1164.12 880.059C1164.43 880.038 1164.63 879.998 1164.73 879.939C1164.83 879.88 1164.88 879.799 1164.87 879.695C1164.86 879.59 1164.8 879.517 1164.7 879.477C1164.59 879.438 1164.39 879.428 1164.1 879.448Z" fill="white"/>
<path fill-rule="evenodd" clip-rule="evenodd" d="M1210.33 877.335C1209.33 878.372 1204.46 878.543 1203.78 877.79C1202.9 876.825 1202.29 869.531 1203.28 868.029C1203.82 867.224 1208.81 866.71 1209.83 867.575C1211.21 868.729 1211.58 876.043 1210.33 877.335Z" fill="#B4AD60" stroke="#614133" stroke-width="0.69437" stroke-miterlimit="1.5" stroke-linecap="round" stroke-linejoin="round"/>
<path fill-rule="evenodd" clip-rule="evenodd" d="M1210.2 877.491L1209.34 877.796C1208.78 876.163 1208.4 874.391 1208.27 872.602C1208.15 870.993 1208.23 869.371 1208.54 867.826L1207.39 867.836C1207.36 868.817 1207.34 869.849 1207.35 870.919C1207.35 871.406 1207.36 871.901 1207.38 872.405C1207.41 873.473 1207.48 874.572 1207.65 875.697L1207.31 875.77C1207.16 875.217 1207.04 874.67 1206.94 874.125C1206.78 873.273 1206.68 872.435 1206.62 871.613C1206.52 870.141 1206.56 868.73 1206.57 867.416C1206.58 867.192 1206.76 867.013 1206.98 867.01L1209.06 866.97C1209.19 866.968 1209.31 867.026 1209.39 867.128C1209.47 867.23 1209.5 867.363 1209.47 867.491C1209.11 869.109 1209.02 870.829 1209.16 872.532C1209.29 874.241 1209.66 875.933 1210.2 877.491Z" fill="#614133"/>
<path fill-rule="evenodd" clip-rule="evenodd" d="M1205.6 875.709L1205.31 875.767C1205.12 875.113 1204.96 874.46 1204.84 873.793C1204.72 873.125 1204.62 872.455 1204.58 871.775C1204.54 871.236 1204.53 870.694 1204.54 870.151C1204.56 869.344 1204.62 868.536 1204.68 867.726L1205.48 867.776C1205.45 868.446 1205.44 869.113 1205.43 869.779C1205.43 870.224 1205.43 870.667 1205.44 871.11C1205.44 871.405 1205.44 871.7 1205.44 871.995C1205.44 872.441 1205.44 872.882 1205.45 873.326C1205.47 874.125 1205.51 874.914 1205.6 875.709Z" fill="#614133"/>
<path fill-rule="evenodd" clip-rule="evenodd" d="M1055.39 173.08C1055.39 174.02 1049.26 211.322 1049.26 211.322C1049.26 211.322 1048.94 218.282 1047.68 221.457C1045.93 225.86 1022.59 222.426 1022 217.318C1021.61 213.842 1023.62 206.953 1023.62 206.953C1023.62 206.953 1029.13 170.724 1029.72 168.942C1031.81 162.616 1043.77 141.067 1043.77 141.067L1050.95 142.216C1050.95 142.216 1055.43 166.651 1055.39 173.08Z" fill="#F2EFD5" fill-opacity="0.3" stroke="#F2EFD5" stroke-width="1.18606" stroke-miterlimit="1.5" stroke-linecap="round" stroke-linejoin="round"/>
<path fill-rule="evenodd" clip-rule="evenodd" d="M1050.31 143.913L1054.02 169.315L1052.94 176.205L1049.98 168.887C1053.41 168.299 1051.52 155.306 1050.31 143.913Z" fill="white" fill-opacity="0.8"/>
<path fill-rule="evenodd" clip-rule="evenodd" d="M1030.77 170.352C1030.77 170.352 1024.7 210.127 1026.31 214.111C1027.85 217.911 1042.99 222.867 1042.99 222.867C1042.99 222.867 1023.03 221.201 1022.5 216.934C1022.24 214.834 1030.77 170.352 1030.77 170.352Z" fill="black" fill-opacity="0.3"/>
<path fill-rule="evenodd" clip-rule="evenodd" d="M1054.07 180.26L1049.33 210.818C1041.55 210.888 1034.5 209.788 1026.88 207.27L1031.36 176.972C1039.22 179.069 1046.55 180.054 1054.07 180.26Z" fill="#AB0307" stroke="#795140" stroke-width="0.324233" stroke-miterlimit="1.5" stroke-linecap="round" stroke-linejoin="round"/>
<path fill-rule="evenodd" clip-rule="evenodd" d="M1053.04 185.769L1050.09 204.869C1042.43 204.465 1035.44 203.362 1027.81 201.327L1030.53 182.377C1038.37 184.159 1045.64 185.206 1053.04 185.769Z" fill="#F7F189"/>
<path fill-rule="evenodd" clip-rule="evenodd" d="M1050.28 189.462C1051.04 190.23 1049.38 198.993 1048.29 200.245C1047.45 201.203 1034.43 199.243 1033.29 197.758C1032.47 196.676 1033.87 188.062 1034.8 187.102C1035.28 186.599 1039.29 187.56 1043.11 188.22C1046.58 188.819 1049.9 189.082 1050.28 189.462Z" fill="#AB0307" stroke="#795140" stroke-width="0.295832" stroke-miterlimit="1.5" stroke-linecap="round" stroke-linejoin="round"/>
<path fill-rule="evenodd" clip-rule="evenodd" d="M1038.99 190.228C1039.68 190.266 1040.3 190.529 1040.8 190.941C1041.03 191.122 1041.21 191.347 1041.36 191.589C1041.84 192.352 1042.05 193.3 1041.83 194.254C1041.62 195.17 1041.11 195.927 1040.4 196.409C1039.7 196.889 1038.84 197.141 1037.94 196.966C1037.05 196.844 1036.3 196.336 1035.79 195.653C1035.28 194.974 1035.03 194.1 1035.13 193.178C1035.22 192.225 1035.71 191.423 1036.38 190.858C1036.87 190.436 1037.49 190.115 1038.15 190.097C1038.43 190.09 1038.71 190.134 1038.99 190.228ZM1038.69 192.155C1038.57 192.155 1038.46 192.224 1038.35 192.241C1038.08 192.28 1037.81 192.316 1037.59 192.465C1037.25 192.692 1036.97 193.025 1036.88 193.459C1036.78 193.921 1036.85 194.385 1037.08 194.748C1037.32 195.125 1037.71 195.408 1038.17 195.494C1038.64 195.552 1039.09 195.397 1039.42 195.11C1039.75 194.838 1039.92 194.414 1039.96 193.953C1039.98 193.613 1039.85 193.307 1039.7 193.033C1039.61 192.876 1039.48 192.754 1039.35 192.629C1039.15 192.44 1038.97 192.228 1038.69 192.155Z" fill="white"/>
<path d="M1043.36 191.939L1048.2 192.662" stroke="white" stroke-width="1.68025" stroke-miterlimit="1.5" stroke-linejoin="round"/>
<path d="M1042.81 196.613L1047.66 197.336" stroke="white" stroke-width="1.68025" stroke-miterlimit="1.5" stroke-linejoin="round"/>
<path d="M1043.73 194.219L1047.09 194.721" stroke="white" stroke-width="1.62028" stroke-miterlimit="1.5" stroke-linejoin="round"/>
<path d="M1043.14 182.132C1043.14 182.132 1042.33 182.05 1042.15 181.933C1042 181.836 1042 181.558 1042.11 181.424C1042.35 181.14 1043.16 180.421 1043.47 180.239C1043.63 180.146 1043.98 180.146 1044.02 180.327C1044.08 180.564 1043.83 181.423 1043.84 181.664C1043.84 181.76 1044.06 181.684 1044.09 181.771C1044.12 181.871 1044.11 182.283 1044.01 182.262C1043.93 182.243 1043.73 182.216 1043.73 182.216C1043.73 182.216 1043.77 182.585 1043.66 182.642C1043.56 182.698 1043.2 182.639 1043.12 182.553C1043.03 182.469 1043.14 182.132 1043.14 182.132ZM1043.26 181.637C1043.26 181.637 1043.42 181.082 1043.34 181.065C1043.26 181.049 1042.88 181.44 1042.86 181.532C1042.85 181.624 1043.26 181.637 1043.26 181.637Z" fill="white"/>
<path d="M1044.32 181.568C1044.39 181.135 1044.51 180.845 1044.69 180.697C1044.87 180.549 1045.12 180.501 1045.44 180.552C1045.59 180.576 1045.72 180.615 1045.81 180.668C1045.9 180.722 1045.97 180.783 1046.02 180.854C1046.08 180.925 1046.12 180.996 1046.14 181.068C1046.17 181.142 1046.18 181.224 1046.19 181.316C1046.21 181.493 1046.2 181.673 1046.17 181.857C1046.11 182.271 1045.99 182.562 1045.82 182.731C1045.65 182.9 1045.4 182.958 1045.06 182.903C1044.87 182.872 1044.72 182.817 1044.61 182.737C1044.5 182.657 1044.42 182.552 1044.36 182.422C1044.32 182.329 1044.3 182.208 1044.29 182.057C1044.28 181.907 1044.29 181.744 1044.32 181.568ZM1044.94 181.67C1044.9 181.96 1044.89 182.162 1044.93 182.276C1044.96 182.39 1045.03 182.455 1045.13 182.471C1045.19 182.481 1045.25 182.468 1045.3 182.43C1045.36 182.392 1045.4 182.327 1045.44 182.233C1045.48 182.139 1045.51 181.99 1045.54 181.783C1045.59 181.481 1045.59 181.274 1045.56 181.162C1045.53 181.049 1045.46 180.985 1045.35 180.969C1045.25 180.952 1045.17 180.993 1045.1 181.092C1045.04 181.19 1044.99 181.383 1044.94 181.67Z" fill="white"/>
<path fill-rule="evenodd" clip-rule="evenodd" d="M1053.19 135.762C1053.97 136.977 1053.06 141.777 1052.18 142.281C1051.05 142.926 1043.84 141.9 1042.61 140.589C1041.94 139.887 1042.55 134.885 1043.62 134.07C1045.04 132.981 1052.21 134.247 1053.19 135.762Z" fill="#B4AD60" stroke="#614133" stroke-width="0.69437" stroke-miterlimit="1.5" stroke-linecap="round" stroke-linejoin="round"/>
<path fill-rule="evenodd" clip-rule="evenodd" d="M1053.3 135.914L1053.41 136.825C1051.7 137.014 1049.9 136.986 1048.14 136.717C1046.56 136.475 1045.01 136.039 1043.58 135.397L1043.34 136.525C1044.28 136.77 1045.27 137.02 1046.31 137.25C1046.78 137.355 1047.26 137.455 1047.76 137.552C1048.8 137.756 1049.87 137.934 1051 138.012L1051 138.368C1050.43 138.388 1049.87 138.388 1049.32 138.363C1048.46 138.324 1047.63 138.238 1046.82 138.11C1045.38 137.883 1044.02 137.533 1042.75 137.226C1042.54 137.172 1042.4 136.956 1042.45 136.738L1042.87 134.698C1042.9 134.571 1042.98 134.464 1043.1 134.406C1043.21 134.349 1043.35 134.349 1043.47 134.407C1044.95 135.124 1046.59 135.592 1048.27 135.837C1049.96 136.083 1051.67 136.103 1053.3 135.914Z" fill="#614133"/>
<path fill-rule="evenodd" clip-rule="evenodd" d="M1050.56 140.041L1050.55 140.334C1049.87 140.373 1049.21 140.385 1048.53 140.355C1047.86 140.326 1047.19 140.27 1046.52 140.166C1045.99 140.083 1045.47 139.966 1044.95 139.837C1044.17 139.645 1043.4 139.408 1042.63 139.163L1042.86 138.395C1043.5 138.572 1044.14 138.731 1044.78 138.884C1045.21 138.987 1045.64 139.081 1046.07 139.177C1046.36 139.242 1046.64 139.308 1046.93 139.373C1047.36 139.472 1047.79 139.571 1048.22 139.659C1048.99 139.818 1049.77 139.956 1050.56 140.041Z" fill="#614133"/>
<path fill-rule="evenodd" clip-rule="evenodd" d="M2121.32 2021.97C2119.69 2031.34 1995.76 2392.98 1995.76 2392.98C1995.76 2392.98 1980.86 2461.85 1962.97 2491.37C1938.15 2532.33 1711.31 2458.45 1714.09 2406.52C1715.98 2371.17 1747.62 2305.88 1747.62 2305.88C1747.62 2305.88 1863.56 1953.89 1872.44 1937.12C1903.98 1877.58 2059.4 1682.95 2059.4 1682.95L2129.05 1706.6C2129.05 1706.6 2132.51 1957.92 2121.32 2021.97Z" fill="#F2EFD5" fill-opacity="0.3" stroke="#F2EFD5" stroke-width="12" stroke-miterlimit="1.5" stroke-linecap="round" stroke-linejoin="round"/>
<path fill-rule="evenodd" clip-rule="evenodd" d="M1758.4 2318.61C1731.25 2407.98 1813.8 2453.06 1912.18 2491.76C1912.18 2491.76 1765.93 2465.57 1723.22 2411.21C1706.48 2389.92 1758.4 2318.61 1758.4 2318.61Z" fill="black" fill-opacity="0.3"/>
<path fill-rule="evenodd" clip-rule="evenodd" d="M2060.09 1688.34L2129.67 1713.43C2087.69 1724.24 2058.51 1690.69 2035.53 1724.7L2060.09 1688.34Z" fill="black" fill-opacity="0.3"/>
<path fill-rule="evenodd" clip-rule="evenodd" d="M2111.08 1908.04C2111.08 1908.04 2114.13 1988.84 2110.84 2015.09C2108.6 2032.98 2091.34 2065.47 2091.34 2065.47C2091.34 2065.47 2046.05 1983.44 2076.48 2002.56C2108.21 2022.49 2111.08 1908.04 2111.08 1908.04Z" fill="white" fill-opacity="0.8"/>
<path fill-rule="evenodd" clip-rule="evenodd" d="M2096.2 2091.32L1997.46 2388.1C1919.7 2375.59 1851.3 2352.66 1779.55 2314.62L1875.32 2020C1950.15 2054.25 2021.6 2076.51 2096.2 2091.32Z" fill="#AB0307" stroke="#795140" stroke-width="3.28044" stroke-miterlimit="1.5" stroke-linecap="round" stroke-linejoin="round"/>
<path fill-rule="evenodd" clip-rule="evenodd" d="M2076.75 2144.52L2015.01 2330.07C1939.35 2313.05 1871.49 2290.18 1798.76 2256.92L1857.89 2072.47C1933.14 2103.56 2003.84 2126.34 2076.75 2144.52Z" fill="#F7F189"/>
<path fill-rule="evenodd" clip-rule="evenodd" d="M2042.97 2176.69C2049.3 2185.65 2017.9 2270.27 2004.9 2280.91C1994.95 2289.05 1868.33 2247.39 1859.52 2230.64C1853.1 2218.45 1881.67 2134.87 1892.51 2126.86C1898.18 2122.66 1936.53 2139.05 1973.54 2152.12C2007.16 2164 2039.83 2172.25 2042.97 2176.69Z" fill="#AB0307" stroke="#795140" stroke-width="2.99309" stroke-miterlimit="1.5" stroke-linecap="round" stroke-linejoin="round"/>
<path fill-rule="evenodd" clip-rule="evenodd" d="M1929.04 2165.14C1935.84 2166.7 1941.63 2170.38 1945.95 2175.34C1947.84 2177.52 1949.31 2180.07 1950.41 2182.75C1953.88 2191.17 1954.43 2201 1950.6 2210.13C1946.97 2218.92 1940.6 2225.61 1932.72 2229.21C1924.88 2232.8 1915.85 2233.85 1907.26 2230.6C1898.53 2227.86 1891.95 2221.53 1887.99 2213.84C1884.04 2206.2 1883.05 2197.06 1885.57 2188.02C1888.08 2178.67 1894.35 2171.5 1901.94 2167C1907.6 2163.63 1914.28 2161.48 1920.94 2162.42C1923.75 2162.83 1926.43 2163.74 1929.04 2165.14ZM1922.81 2183.86C1921.58 2183.66 1920.43 2184.17 1919.23 2184.14C1916.49 2184.07 1913.76 2183.98 1911.31 2185.09C1907.59 2186.79 1904.22 2189.63 1902.56 2193.8C1900.83 2198.24 1900.66 2202.98 1902.39 2207C1904.16 2211.17 1907.51 2214.65 1912.02 2216.3C1916.58 2217.67 1921.29 2216.88 1925.15 2214.59C1928.82 2212.42 1931.24 2208.48 1932.4 2203.95C1933.23 2200.6 1932.48 2197.33 1931.4 2194.33C1930.77 2192.62 1929.65 2191.18 1928.58 2189.71C1926.96 2187.5 1925.45 2185.07 1922.81 2183.86Z" fill="white"/>
<path d="M1969.75 2189.69L2016.84 2205.16" stroke="white" stroke-width="17" stroke-miterlimit="1.5" stroke-linejoin="round"/>
<path d="M1956.45 2235.38L2003.55 2250.85" stroke="white" stroke-width="17" stroke-miterlimit="1.5" stroke-linejoin="round"/>
<path d="M1969.61 2213.06L2002.26 2223.79" stroke="white" stroke-width="16.3933" stroke-miterlimit="1.5" stroke-linejoin="round"/>
<path d="M1984.01 2091.48C1984.01 2091.48 1976.01 2089.28 1974.43 2087.81C1973.14 2086.6 1973.61 2083.83 1974.96 2082.68C1977.83 2080.25 1987.03 2074.44 1990.51 2073.16C1992.26 2072.51 1995.67 2073.09 1995.83 2074.97C1996.04 2077.45 1992.05 2085.58 1991.75 2088C1991.64 2088.97 1993.96 2088.58 1994.07 2089.5C1994.19 2090.54 1993.38 2094.63 1992.48 2094.26C1991.65 2093.92 1989.73 2093.32 1989.73 2093.32C1989.73 2093.32 1989.47 2097.07 1988.35 2097.46C1987.23 2097.85 1983.75 2096.64 1983.03 2095.65C1982.3 2094.66 1984.01 2091.48 1984.01 2091.48ZM1985.99 2086.75C1985.99 2086.75 1988.52 2081.48 1987.79 2081.18C1987.05 2080.89 1982.53 2084.14 1982.25 2085.03C1981.96 2085.92 1985.99 2086.75 1985.99 2086.75Z" fill="white"/>
<path d="M1996.69 2087.87C1998.09 2083.67 1999.82 2080.98 2001.88 2079.82C2003.95 2078.65 2006.52 2078.59 2009.6 2079.64C2011.08 2080.14 2012.23 2080.74 2013.06 2081.42C2013.89 2082.11 2014.5 2082.85 2014.91 2083.65C2015.31 2084.44 2015.58 2085.22 2015.71 2085.98C2015.83 2086.75 2015.86 2087.6 2015.78 2088.54C2015.64 2090.33 2015.28 2092.11 2014.68 2093.9C2013.35 2097.92 2011.69 2100.63 2009.73 2102.03C2007.76 2103.43 2005.12 2103.57 2001.83 2102.45C1999.98 2101.82 1998.58 2101.01 1997.64 2100.03C1996.7 2099.05 1996.05 2097.86 1995.7 2096.47C1995.44 2095.47 1995.4 2094.22 1995.58 2092.7C1995.75 2091.2 1996.12 2089.58 1996.69 2087.87ZM2002.74 2089.95C2001.81 2092.76 2001.42 2094.77 2001.57 2095.97C2001.72 2097.17 2002.27 2097.93 2003.21 2098.25C2003.83 2098.46 2004.44 2098.42 2005.04 2098.14C2005.64 2097.85 2006.2 2097.28 2006.73 2096.41C2007.26 2095.53 2007.86 2094.1 2008.52 2092.1C2009.5 2089.16 2009.91 2087.1 2009.75 2085.93C2009.59 2084.75 2009.02 2083.99 2008.03 2083.65C2007.02 2083.31 2006.12 2083.58 2005.32 2084.45C2004.53 2085.33 2003.67 2087.16 2002.74 2089.95Z" fill="white"/>
<path fill-rule="evenodd" clip-rule="evenodd" d="M2162.04 1646.03C2167.79 1659.48 2150.62 1705.84 2140.97 1709.37C2128.62 1713.88 2058.46 1691.41 2048.36 1676.24C2042.94 1668.11 2057.42 1619.23 2069.43 1612.9C2085.46 1604.45 2154.87 1629.25 2162.04 1646.03Z" fill="#B4AD60" stroke="#614133" stroke-width="7.02532" stroke-miterlimit="1.5" stroke-linecap="round" stroke-linejoin="round"/>
<path fill-rule="evenodd" clip-rule="evenodd" d="M2162.94 1647.75L2162.45 1657.03C2145.12 1656.02 2127.23 1652.69 2110.13 1647.01C2094.74 1641.9 2079.99 1634.91 2066.83 1626.07L2062.49 1636.92C2071.48 1640.97 2080.97 1645.15 2090.93 1649.22C2095.47 1651.06 2100.1 1652.89 2104.83 1654.68C2114.88 1658.49 2125.33 1662.1 2136.45 1664.8L2135.79 1668.34C2130.09 1667.58 2124.54 1666.63 2119.1 1665.45C2110.61 1663.6 2102.43 1661.33 2094.59 1658.67C2080.54 1653.95 2067.59 1648.14 2055.46 1642.93C2053.4 1642.02 2052.43 1639.63 2053.26 1637.53L2060.9 1617.88C2061.38 1616.66 2062.4 1615.73 2063.65 1615.35C2064.91 1614.98 2066.27 1615.21 2067.34 1615.98C2080.94 1625.67 2096.56 1633.14 2112.89 1638.44C2129.27 1643.75 2146.38 1646.87 2162.94 1647.75Z" fill="#614133"/>
<path fill-rule="evenodd" clip-rule="evenodd" d="M2128.59 1684.25L2128.03 1687.17C2121.24 1686.41 2114.56 1685.4 2107.9 1683.96C2101.23 1682.53 2094.65 1680.83 2088.16 1678.65C2083.02 1676.92 2077.97 1674.86 2072.97 1672.68C2065.54 1669.44 2058.27 1665.77 2051.02 1662.01L2054.56 1654.72C2060.65 1657.58 2066.8 1660.26 2072.96 1662.88C2077.06 1664.63 2081.19 1666.31 2085.31 1668C2088.05 1669.13 2090.79 1670.27 2093.53 1671.41C2097.66 1673.13 2101.75 1674.85 2105.91 1676.46C2113.39 1679.37 2120.86 1682.06 2128.59 1684.25Z" fill="#614133"/>
<path fill-rule="evenodd" clip-rule="evenodd" d="M753.684 928.21C757.305 931.577 879.866 1088.53 879.866 1088.53C879.866 1088.53 905.672 1114.55 913.477 1130.82C924.304 1153.39 827.886 1233.36 806.032 1217.5C791.159 1206.7 771.654 1174.24 771.654 1174.24C771.654 1174.24 651.036 1023.56 646.24 1014.89C629.212 984.098 588.368 860.209 588.368 860.209L618.393 835.924C618.393 835.924 728.928 905.191 753.684 928.21Z" fill="#F2EFD5" fill-opacity="0.3" stroke="#F2EFD5" stroke-width="6.27052" stroke-miterlimit="1.5" stroke-linecap="round" stroke-linejoin="round"/>
<path fill-rule="evenodd" clip-rule="evenodd" d="M655.871 876.886L743.589 930.883L760.331 958.852L738.105 937.63L655.871 876.886Z" fill="white" fill-opacity="0.8"/>
<path fill-rule="evenodd" clip-rule="evenodd" d="M883.324 1110.49L891.685 1152.94L906.666 1132.62L883.324 1110.49Z" fill="white" fill-opacity="0.8"/>
<path fill-rule="evenodd" clip-rule="evenodd" d="M776.793 958.941L878.152 1086.49C850.74 1117.5 821.434 1141.41 784.598 1162.56L683.34 1036.94C719.392 1013.36 749.271 987.904 776.793 958.941Z" fill="#AB0307" stroke="#795140" stroke-width="1.71418" stroke-miterlimit="1.5" stroke-linecap="round" stroke-linejoin="round"/>
<path fill-rule="evenodd" clip-rule="evenodd" d="M794.467 982.594L857.829 1062.33C829.048 1091.13 799.922 1114.82 764.895 1137.75L701.276 1059.48C736.069 1034.83 765.957 1009.84 794.467 982.594Z" fill="#F7F189"/>
<path fill-rule="evenodd" clip-rule="evenodd" d="M798.929 1006.68C804.621 1006.39 832.599 1044.19 833.56 1052.97C834.296 1059.68 780.393 1104.17 770.612 1103.36C763.489 1102.77 735.167 1066.52 734.738 1059.45C734.513 1055.75 752.479 1043.33 768.625 1030.58C783.291 1019 796.113 1006.82 798.929 1006.68Z" fill="#AB0307" stroke="#795140" stroke-width="1.56403" stroke-miterlimit="1.5" stroke-linecap="round" stroke-linejoin="round"/>
<path fill-rule="evenodd" clip-rule="evenodd" d="M761.724 1054C764.322 1051.42 767.563 1049.88 770.944 1049.36C772.428 1049.14 773.951 1049.21 775.429 1049.47C780.074 1050.3 784.509 1052.83 787.407 1057.11C790.205 1061.2 791.322 1065.91 790.666 1070.43C790.013 1074.92 787.921 1079.23 784.076 1082.13C780.417 1085.23 775.804 1086.37 771.338 1085.96C766.894 1085.56 762.632 1083.42 759.409 1079.76C756.048 1076 754.698 1071.2 754.877 1066.56C755.012 1063.09 755.96 1059.52 758.255 1056.83C759.223 1055.69 760.376 1054.76 761.724 1054ZM768.116 1062.04C767.681 1062.53 767.577 1063.19 767.227 1063.71C766.424 1064.91 765.612 1066.09 765.405 1067.49C765.093 1069.63 765.378 1071.93 766.723 1073.84C768.171 1075.86 770.186 1077.27 772.426 1077.64C774.744 1078.02 777.203 1077.52 779.193 1075.98C781.082 1074.34 782.068 1072.02 782.16 1069.67C782.251 1067.42 781.22 1065.24 779.571 1063.45C778.348 1062.13 776.712 1061.55 775.103 1061.18C774.18 1060.97 773.233 1061.07 772.293 1061.13C770.875 1061.22 769.387 1061.21 768.116 1062.04Z" fill="white"/>
<path d="M783.893 1042.87L803.932 1026.35" stroke="white" stroke-width="8.88324" stroke-miterlimit="1.5" stroke-linejoin="round"/>
<path d="M800.069 1061.66L820.108 1045.14" stroke="white" stroke-width="8.88324" stroke-miterlimit="1.5" stroke-linejoin="round"/>
<path d="M794.054 1049.53L807.944 1038.08" stroke="white" stroke-width="8.56622" stroke-miterlimit="1.5" stroke-linejoin="round"/>
<path d="M745.086 1008.83C745.086 1008.83 741.866 1011.76 740.781 1012.05C739.887 1012.28 738.812 1011.29 738.694 1010.37C738.449 1008.41 738.519 1002.68 738.943 1000.78C739.155 999.813 740.372 998.463 741.235 998.923C742.371 999.529 744.784 1003.59 745.757 1004.41C746.145 1004.73 746.633 1003.59 747.062 1003.8C747.552 1004.04 749.103 1005.56 748.69 1005.85C748.306 1006.12 747.502 1006.81 747.502 1006.81C747.502 1006.81 749.06 1007.98 748.913 1008.58C748.768 1009.19 747.259 1010.4 746.621 1010.44C745.985 1010.48 745.086 1008.83 745.086 1008.83ZM743.582 1006.61C743.582 1006.61 742 1004.01 741.666 1004.25C741.333 1004.49 741.471 1007.41 741.777 1007.79C742.086 1008.17 743.582 1006.61 743.582 1006.61Z" fill="white"/>
<path d="M747.094 1002.19C745.66 1000.39 744.979 998.861 745.055 997.617C745.128 996.37 745.829 995.212 747.154 994.14C747.792 993.624 748.377 993.28 748.909 993.105C749.444 992.932 749.94 992.867 750.401 992.912C750.859 992.955 751.274 993.057 751.643 993.215C752.015 993.376 752.393 993.604 752.779 993.902C753.518 994.468 754.192 995.134 754.804 995.903C756.176 997.63 756.887 999.126 756.941 1000.4C756.995 1001.66 756.312 1002.87 754.892 1004.02C754.096 1004.67 753.35 1005.06 752.657 1005.2C751.964 1005.34 751.264 1005.3 750.559 1005.06C750.052 1004.89 749.495 1004.56 748.885 1004.05C748.276 1003.55 747.678 1002.93 747.094 1002.19ZM749.71 1000.09C750.67 1001.3 751.435 1002.04 751.999 1002.31C752.563 1002.58 753.048 1002.55 753.453 1002.23C753.72 1002.01 753.877 1001.73 753.924 1001.38C753.969 1001.04 753.878 1000.62 753.647 1000.14C753.417 999.66 752.961 998.99 752.277 998.13C751.275 996.869 750.494 996.106 749.937 995.845C749.377 995.582 748.885 995.624 748.459 995.969C748.025 996.32 747.887 996.797 748.045 997.395C748.202 997.994 748.756 998.892 749.71 1000.09Z" fill="white"/>
<path fill-rule="evenodd" clip-rule="evenodd" d="M601.081 804.134C608.564 805.372 623.898 826.07 622.71 831.351C621.189 838.11 591.59 862.931 582.129 863.139C577.058 863.251 559.864 843.04 560.501 835.922C561.351 826.42 591.75 802.591 601.081 804.134Z" fill="#B4AD60" stroke="#614133" stroke-width="3.67104" stroke-miterlimit="1.5" stroke-linecap="round" stroke-linejoin="round"/>
<path fill-rule="evenodd" clip-rule="evenodd" d="M602.091 804.244L605.989 807.071C600.653 814.476 594.146 821.475 586.84 827.464C580.266 832.854 573.054 837.433 565.488 840.782L568.981 845.758C573.288 842.909 577.791 839.875 582.374 836.601C584.462 835.106 586.565 833.566 588.683 831.972C593.181 828.588 597.708 824.967 602.023 820.79L603.38 822.081C601.437 824.393 599.456 826.59 597.402 828.671C594.196 831.918 590.897 834.907 587.525 837.641C581.496 842.543 575.311 846.652 569.609 850.569C568.633 851.225 567.32 850.986 566.64 850.028L560.247 841.111C559.85 840.551 559.732 839.839 559.924 839.176C560.117 838.513 560.601 837.975 561.239 837.719C569.302 834.407 576.968 829.582 583.89 823.83C590.832 818.055 597.026 811.344 602.091 804.244Z" fill="#614133"/>
<path fill-rule="evenodd" clip-rule="evenodd" d="M608.296 829.777L609.407 830.846C607.158 833.645 604.831 836.32 602.321 838.87C599.816 841.423 597.216 843.866 594.435 846.129C592.23 847.925 589.907 849.583 587.544 851.188C584.035 853.572 580.381 855.759 576.695 857.92L574.523 854.301C577.49 852.401 580.393 850.427 583.275 848.437C585.199 847.108 587.094 845.748 588.993 844.4C590.262 843.5 591.531 842.607 592.801 841.714C594.716 840.365 596.62 839.032 598.497 837.641C601.878 835.147 605.158 832.588 608.296 829.777Z" fill="#614133"/>
<path fill-rule="evenodd" clip-rule="evenodd" d="M570.222 836.834C582.668 852.076 594.746 851.275 606.733 846.483L600.755 865.923C600.755 865.923 633.389 965.092 659.319 1007.63C694.281 1065 813.154 1207.77 813.154 1207.77L832.288 1209.77C832.288 1209.77 813.508 1220.94 807.785 1214.79C777.295 1182.03 682.302 1056.17 649.344 1013.19C636.1 995.91 590.674 863.399 590.674 863.399C574.236 860.396 570.748 848.606 563.999 839.029L570.222 836.834Z" fill="black" fill-opacity="0.3"/>
<path fill-rule="evenodd" clip-rule="evenodd" d="M517.532 1089.12C516.459 1089.78 515.498 1090.22 514.703 1090.37C511.219 1091.04 497.037 1079.11 496.66 1074.13C496.154 1067.48 514.392 1047.52 521.002 1047.49C526.308 1047.47 539.261 1059.95 539.046 1063.73C538.997 1064.61 538.382 1065.99 537.369 1067.69C546.786 1071.61 639.243 1095.13 657.683 1107.28C660.563 1109.17 757.817 1207.09 757.817 1207.09C757.817 1207.09 778.571 1222 785.811 1232.28C795.854 1246.56 721.549 1301.8 704.681 1293.43C693.2 1287.73 676.048 1267.66 676.048 1267.66C676.048 1267.66 601.917 1180.22 596.208 1176.36C574.426 1161.63 525.707 1101.13 519.429 1089.26C518.771 1089.23 518.139 1089.19 517.532 1089.12Z" fill="black" fill-opacity="0.2"/>
<path fill-rule="evenodd" clip-rule="evenodd" d="M2139.9 318.18C2136.05 316.446 1994.11 222.989 1994.11 222.989C1994.11 222.989 1966.14 208.99 1955.39 197.966C1940.48 182.673 1996.73 91.6919 2018.74 98.5554C2033.72 103.227 2058.35 124.149 2058.35 124.149C2058.35 124.149 2197.01 213.066 2203.25 218.77C2225.42 239.017 2292.22 328.044 2292.22 328.044L2274.53 355.876C2274.53 355.876 2166.21 330.036 2139.9 318.18Z" fill="#F2EFD5" fill-opacity="0.3" stroke="#F2EFD5" stroke-width="5.35947" stroke-miterlimit="1.5" stroke-linecap="round" stroke-linejoin="round"/>
<path fill-rule="evenodd" clip-rule="evenodd" d="M1994.53 119.027C1994.53 119.027 2009.55 99.9517 2017.32 102.703C2035.49 109.14 2112.66 167.181 2112.66 167.181C2112.66 167.181 2036.28 116.76 2018.1 110.324C2011.43 107.962 1994.53 119.027 1994.53 119.027Z" fill="white" fill-opacity="0.8"/>
<path fill-rule="evenodd" clip-rule="evenodd" d="M2112.91 299.748L1996.02 224.21C2009.77 191.634 2026.99 164.282 2051.06 137.116L2167.34 211.12C2144.57 240.04 2127.31 268.798 2112.91 299.748Z" fill="#AB0307" stroke="#795140" stroke-width="1.46512" stroke-miterlimit="1.5" stroke-linecap="round" stroke-linejoin="round"/>
<path fill-rule="evenodd" clip-rule="evenodd" d="M2092.15 285.472L2019.04 238.223C2034.5 207.039 2051.65 179.9 2073.78 151.771L2146.7 197.762C2125.23 227.227 2107.82 255.619 2092.15 285.472Z" fill="#F7F189"/>
<path fill-rule="evenodd" clip-rule="evenodd" d="M2081.95 267.213C2077.41 269.001 2044.41 246.032 2041.24 239.19C2038.81 233.951 2070.37 183.194 2078.52 181.177C2084.45 179.707 2117.31 201.329 2119.59 206.937C2120.78 209.872 2109.6 224.835 2099.99 239.574C2091.26 252.962 2084.19 266.329 2081.95 267.213Z" fill="#AB0307" stroke="#795140" stroke-width="1.33679" stroke-miterlimit="1.5" stroke-linecap="round" stroke-linejoin="round"/>
<path fill-rule="evenodd" clip-rule="evenodd" d="M1960.05 174.509C1960.05 174.509 1962.85 191.458 1968.52 195.642C1997.76 217.292 2135.24 312.591 2135.24 312.591C2135.24 312.591 1986.48 221.461 1958.27 195.684C1954.04 191.815 1960.05 174.509 1960.05 174.509Z" fill="black" fill-opacity="0.3"/>
<path fill-rule="evenodd" clip-rule="evenodd" d="M2099.21 218.695C2097.81 221.496 2095.6 223.625 2093 224.967C2091.86 225.556 2090.61 225.915 2089.34 226.104C2085.35 226.698 2081.06 225.865 2077.55 223.193C2074.16 220.647 2071.97 217.138 2071.27 213.301C2070.58 209.486 2071.1 205.428 2073.42 202.031C2075.54 198.516 2078.97 196.339 2082.7 195.447C2086.41 194.559 2090.44 195.125 2094.06 197.211C2097.8 199.333 2100.21 202.855 2101.33 206.659C2102.17 209.501 2102.37 212.652 2101.25 215.458C2100.77 216.64 2100.09 217.709 2099.21 218.695ZM2091.83 213.93C2092.05 213.416 2091.96 212.856 2092.1 212.339C2092.42 211.147 2092.76 209.966 2092.54 208.775C2092.21 206.964 2091.36 205.18 2089.74 203.999C2088.02 202.759 2086 202.169 2084.09 202.482C2082.1 202.803 2080.25 203.885 2079.05 205.671C2077.97 207.515 2077.8 209.659 2078.37 211.592C2078.91 213.433 2080.34 214.919 2082.17 215.922C2083.52 216.651 2085 216.68 2086.41 216.536C2087.21 216.451 2087.95 216.117 2088.7 215.81C2089.82 215.347 2091.03 214.952 2091.83 213.93Z" fill="white"/>
<path d="M2084.23 233.793L2072.47 252.691" stroke="white" stroke-width="7.59258" stroke-miterlimit="1.5" stroke-linejoin="round"/>
<path d="M2066.04 223.027L2054.29 241.924" stroke="white" stroke-width="7.59258" stroke-miterlimit="1.5" stroke-linejoin="round"/>
<path d="M2074.2 231.197L2066.05 244.296" stroke="white" stroke-width="7.32162" stroke-miterlimit="1.5" stroke-linejoin="round"/>
<path d="M2124.87 250.675C2124.87 250.675 2126.68 247.423 2127.48 246.895C2128.14 246.462 2129.28 246.97 2129.63 247.686C2130.36 249.205 2131.87 253.857 2132.04 255.515C2132.14 256.353 2131.52 257.778 2130.69 257.641C2129.61 257.462 2126.54 254.83 2125.53 254.437C2125.13 254.28 2125.05 255.339 2124.64 255.286C2124.18 255.224 2122.51 254.421 2122.76 254.073C2123 253.744 2123.46 252.971 2123.46 252.971C2123.46 252.971 2121.88 252.448 2121.84 251.919C2121.79 251.387 2122.68 249.999 2123.19 249.792C2123.69 249.583 2124.87 250.675 2124.87 250.675ZM2126.69 252.057C2126.69 252.057 2128.69 253.737 2128.89 253.45C2129.09 253.161 2128.19 250.834 2127.83 250.612C2127.48 250.389 2126.69 252.057 2126.69 252.057Z" fill="white"/>
<path d="M2125.04 256.62C2126.7 257.69 2127.66 258.739 2127.94 259.766C2128.22 260.795 2127.97 261.924 2127.19 263.153C2126.81 263.745 2126.43 264.183 2126.05 264.47C2125.66 264.756 2125.28 264.944 2124.89 265.033C2124.51 265.124 2124.15 265.155 2123.81 265.128C2123.46 265.099 2123.09 265.017 2122.7 264.881C2121.95 264.626 2121.22 264.271 2120.51 263.815C2118.93 262.792 2117.95 261.776 2117.56 260.763C2117.17 259.751 2117.39 258.585 2118.23 257.268C2118.7 256.529 2119.19 256.008 2119.72 255.704C2120.24 255.399 2120.82 255.248 2121.45 255.248C2121.91 255.244 2122.45 255.362 2123.09 255.604C2123.71 255.845 2124.37 256.185 2125.04 256.62ZM2123.5 259.035C2122.39 258.319 2121.57 257.927 2121.04 257.863C2120.51 257.799 2120.12 257.954 2119.88 258.329C2119.72 258.577 2119.67 258.847 2119.73 259.14C2119.79 259.434 2119.97 259.743 2120.29 260.07C2120.61 260.396 2121.16 260.814 2121.95 261.323C2123.11 262.07 2123.95 262.474 2124.47 262.533C2125 262.593 2125.38 262.425 2125.63 262.03C2125.89 261.627 2125.87 261.203 2125.58 260.762C2125.29 260.321 2124.6 259.745 2123.5 259.035Z" fill="white"/>
<path fill-rule="evenodd" clip-rule="evenodd" d="M2037.53 471.975C2045.17 474.981 2329.75 643.148 2329.75 643.148C2329.75 643.148 2385.43 667.703 2407.35 688.105C2437.75 716.41 2336.99 898.478 2293.58 887.222C2264.03 879.56 2214.22 841.239 2214.22 841.239C2214.22 841.239 1936.43 681.582 1923.76 671.091C1878.79 633.847 1740.63 467.193 1740.63 467.193L1772.38 411.452C1772.38 411.452 1985.3 451.425 2037.53 471.975Z" fill="#F2EFD5" fill-opacity="0.3" stroke="#F2EFD5" stroke-width="10.427" stroke-miterlimit="1.5" stroke-linecap="round" stroke-linejoin="round"/>
<path fill-rule="evenodd" clip-rule="evenodd" d="M1796.09 430.707L2020.56 486.169L2091.68 531.391L2022.75 522.287L1796.09 430.707Z" fill="white" fill-opacity="0.8"/>
<path fill-rule="evenodd" clip-rule="evenodd" d="M2338.66 845.173C2338.66 845.173 2311.26 883.675 2295.91 879.061C2259.99 868.268 2104.6 762.748 2104.6 762.748C2104.6 762.748 2257.75 853.531 2293.67 864.322C2306.84 868.282 2338.66 845.173 2338.66 845.173Z" fill="white" fill-opacity="0.8"/>
<path fill-rule="evenodd" clip-rule="evenodd" d="M2091.67 505.2L2325.93 640.954C2302.28 705.545 2271.39 760.31 2227.17 815.362L1994.24 682.53C2035.77 624.193 2066.61 566.692 2091.67 505.2Z" fill="#AB0307" stroke="#795140" stroke-width="2.85044" stroke-miterlimit="1.5" stroke-linecap="round" stroke-linejoin="round"/>
<path fill-rule="evenodd" clip-rule="evenodd" d="M2133.36 530.973L2279.9 615.894C2252.77 677.948 2222.01 732.298 2181.64 789.043L2035.59 706.546C2074.55 647.267 2105.71 590.457 2133.36 530.973Z" fill="#F7F189"/>
<path fill-rule="evenodd" clip-rule="evenodd" d="M2154.9 565.483C2163.55 561.582 2229.85 603.106 2236.66 616.103C2241.88 626.053 2185.32 727.66 2169.67 732.348C2158.27 735.763 2092.38 696.843 2087.42 686.16C2084.83 680.569 2105.15 650.44 2122.44 620.894C2138.14 594.055 2150.62 567.413 2154.9 565.483Z" fill="#AB0307" stroke="#795140" stroke-width="2.60076" stroke-miterlimit="1.5" stroke-linecap="round" stroke-linejoin="round"/>
<path fill-rule="evenodd" clip-rule="evenodd" d="M2400.49 734.117C2400.49 734.117 2393.45 701.438 2382.06 693.84C2323.21 654.526 2047.14 482.302 2047.14 482.302C2047.14 482.302 2344.72 645.358 2401.96 692.791C2410.55 699.91 2400.49 734.117 2400.49 734.117Z" fill="black" fill-opacity="0.3"/>
<path fill-rule="evenodd" clip-rule="evenodd" d="M2125.92 661.396C2128.38 655.822 2132.47 651.478 2137.4 648.625C2139.56 647.374 2141.96 646.558 2144.41 646.071C2152.11 644.539 2160.51 645.756 2167.6 650.616C2174.41 655.244 2179 661.857 2180.72 669.245C2182.43 676.593 2181.81 684.528 2177.61 691.347C2173.82 698.376 2167.36 702.93 2160.2 705.015C2153.07 707.09 2145.17 706.37 2137.96 702.656C2130.47 698.886 2125.47 692.271 2122.93 684.984C2121.04 679.541 2120.34 673.438 2122.26 667.878C2123.08 665.537 2124.3 663.396 2125.92 661.396ZM2140.7 669.961C2140.33 670.98 2140.56 672.059 2140.34 673.078C2139.82 675.423 2139.28 677.751 2139.81 680.043C2140.62 683.532 2142.46 686.917 2145.7 689.06C2149.17 691.308 2153.14 692.265 2156.84 691.476C2160.66 690.665 2164.16 688.388 2166.32 684.804C2168.25 681.119 2168.37 676.937 2167.08 673.235C2165.86 669.709 2162.94 666.956 2159.3 665.179C2156.61 663.891 2153.72 663.974 2151 664.386C2149.45 664.627 2148.04 665.346 2146.62 666.013C2144.48 667.019 2142.17 667.9 2140.7 669.961Z" fill="white"/>
<path d="M2073.07 601.699C2073.07 601.699 2069.86 608.189 2068.36 609.29C2067.12 610.193 2064.85 609.314 2064.11 607.956C2062.54 605.074 2059.18 596.177 2058.68 592.971C2058.42 591.35 2059.49 588.523 2061.11 588.712C2063.23 588.959 2069.43 593.783 2071.43 594.452C2072.23 594.719 2072.29 592.654 2073.09 592.719C2073.99 592.796 2077.31 594.198 2076.85 594.899C2076.42 595.56 2075.59 597.107 2075.59 597.107C2075.59 597.107 2078.71 597.973 2078.85 598.997C2079 600.025 2077.39 602.806 2076.43 603.256C2075.47 603.709 2073.07 601.699 2073.07 601.699ZM2069.4 599.185C2069.4 599.185 2065.37 596.109 2065 596.686C2064.63 597.267 2066.62 601.703 2067.32 602.1C2068.03 602.501 2069.4 599.185 2069.4 599.185Z" fill="white"/>
<path d="M2072.19 590.16C2068.87 588.238 2066.89 586.291 2066.26 584.321C2065.61 582.348 2066 580.131 2067.4 577.668C2068.07 576.484 2068.77 575.597 2069.49 575.002C2070.21 574.41 2070.94 574.008 2071.68 573.799C2072.42 573.587 2073.12 573.493 2073.79 573.513C2074.46 573.536 2075.19 573.66 2075.97 573.887C2077.45 574.313 2078.9 574.934 2080.31 575.754C2083.49 577.591 2085.49 579.474 2086.35 581.404C2087.2 583.334 2086.88 585.62 2085.37 588.259C2084.53 589.739 2083.61 590.797 2082.63 591.438C2081.64 592.079 2080.53 592.428 2079.29 592.489C2078.4 592.539 2077.34 592.361 2076.09 591.949C2074.84 591.54 2073.54 590.942 2072.19 590.16ZM2074.96 585.323C2077.18 586.609 2078.82 587.292 2079.85 587.367C2080.89 587.441 2081.63 587.105 2082.06 586.352C2082.34 585.857 2082.41 585.327 2082.27 584.764C2082.13 584.197 2081.74 583.615 2081.09 583.01C2080.44 582.405 2079.33 581.647 2077.75 580.731C2075.43 579.388 2073.76 578.683 2072.74 578.618C2071.72 578.549 2070.98 578.913 2070.53 579.705C2070.07 580.512 2070.14 581.333 2070.75 582.163C2071.36 582.993 2072.76 584.046 2074.96 585.323Z" fill="white"/>
<path fill-rule="evenodd" clip-rule="evenodd" d="M1726.82 372.941C1739.42 372.244 1775.49 393.038 1776.85 401.934C1777.83 408.293 1773.01 431.582 1762.18 449.412C1753.62 463.505 1739.66 473.104 1733.24 475.784C1725.45 479.037 1689.73 461.229 1683.22 446.791C1676.7 432.343 1697.97 374.538 1726.82 372.941Z" fill="#B4AD60" stroke="#614133" stroke-width="6.10443" stroke-miterlimit="1.5" stroke-linecap="round" stroke-linejoin="round"/>
<path fill-rule="evenodd" clip-rule="evenodd" d="M1729.13 375.826L1735.63 371.107C1738.79 375.559 1740.36 381.322 1740.42 387.833C1740.51 398.654 1736.41 411.676 1729.49 423.391C1721.52 436.861 1709.85 448.513 1697.01 453.417L1703.64 457.804C1712.86 453.753 1722.85 445.496 1730.83 434.904C1735.35 428.888 1739.28 422.169 1741.93 414.822C1743.66 410.019 1744.92 405.009 1745.44 399.781L1748.54 399.932C1748.55 405.525 1747.8 410.987 1746.4 416.246C1744.24 424.377 1740.6 431.993 1736.03 438.696C1727.27 451.546 1715.18 460.958 1704.59 465.306C1703.5 465.739 1702.27 465.615 1701.29 464.974L1685.96 455.04C1684.67 454.191 1684.03 452.612 1684.37 451.088C1684.71 449.565 1685.95 448.414 1687.49 448.209C1701.56 446.268 1714.41 433.786 1722.8 419.396C1727.92 410.613 1731.36 401.052 1732.25 392.508C1732.93 385.962 1732.15 380.047 1729.13 375.826Z" fill="#614133"/>
<path fill-rule="evenodd" clip-rule="evenodd" d="M1759.75 410.639L1762.28 411.104C1761.66 417.276 1760.22 423.579 1758 429.756C1755.82 435.815 1752.98 441.709 1749.51 447.06C1746.62 451.531 1743.25 455.573 1739.72 459.114C1733.54 465.319 1726.68 469.875 1720 472.232L1717.57 465.605C1723.27 463.355 1728.89 458.995 1734.19 453.561C1737.39 450.295 1740.42 446.593 1743.32 442.685C1746.86 437.908 1750.23 432.861 1753 427.53C1755.87 421.995 1758.26 416.348 1759.75 410.639Z" fill="#614133"/>
</g>
<defs>
<clipPath id="clip0_1086_3">
<rect width="2142" height="2700" fill="white"/>
</clipPath>
</defs>
</svg>
