<svg width="2142" height="2700" viewBox="0 0 2142 2700" fill="none" xmlns="http://www.w3.org/2000/svg">
<g clip-path="url(#clip0_1118_21)">
<path d="M1196.47 342.298C1192.72 342.298 1189.67 338.898 1189.67 334.704C1189.67 330.509 1192.72 327.109 1196.47 327.109C1200.23 327.109 1203.27 330.509 1203.27 334.704C1203.27 338.898 1200.23 342.298 1196.47 342.298Z" fill="white"/>
<path fill-rule="evenodd" clip-rule="evenodd" d="M1196.47 326.084C1198.73 326.039 1200.78 327.064 1202.25 328.731C1203.62 330.27 1204.46 332.376 1204.5 334.703C1204.53 337.054 1203.72 339.2 1202.39 340.793C1200.92 342.557 1198.8 343.633 1196.47 343.644C1194.14 343.628 1192.03 342.549 1190.56 340.785C1189.23 339.193 1188.42 337.051 1188.45 334.703C1188.49 332.378 1189.33 330.273 1190.69 328.734C1192.16 327.066 1194.22 326.041 1196.47 326.084ZM1196.47 327.109C1192.72 327.109 1189.67 330.511 1189.67 334.703C1189.67 338.894 1192.72 342.298 1196.47 342.298C1200.22 342.298 1203.27 338.894 1203.27 334.703C1203.27 330.511 1200.22 327.109 1196.47 327.109Z" fill="black"/>
<path d="M1195.95 335.563C1195.54 335.563 1195.21 335.164 1195.21 334.673C1195.21 334.181 1195.54 333.782 1195.95 333.782C1196.36 333.782 1196.69 334.181 1196.69 334.673C1196.69 335.164 1196.36 335.563 1195.95 335.563Z" fill="black"/>
<path fill-rule="evenodd" clip-rule="evenodd" d="M1195.95 333.667C1196.2 333.662 1196.43 333.788 1196.6 333.994C1196.74 334.171 1196.82 334.41 1196.83 334.673C1196.83 334.938 1196.75 335.181 1196.61 335.364C1196.45 335.581 1196.21 335.713 1195.95 335.715C1195.69 335.713 1195.45 335.581 1195.29 335.363C1195.15 335.18 1195.07 334.938 1195.07 334.673C1195.08 334.41 1195.17 334.171 1195.31 333.994C1195.47 333.788 1195.7 333.662 1195.95 333.667ZM1195.95 333.782C1195.54 333.782 1195.21 334.181 1195.21 334.673C1195.21 335.164 1195.54 335.563 1195.95 335.563C1196.36 335.563 1196.69 335.164 1196.69 334.673C1196.69 334.181 1196.36 333.782 1195.95 333.782Z" fill="black"/>
<path d="M1191.43 382.046C1180.79 382.046 1172.17 372.228 1172.17 360.117C1172.17 348.006 1180.79 338.188 1191.43 338.188C1202.06 338.188 1210.68 348.006 1210.68 360.117C1210.68 372.228 1202.06 382.046 1191.43 382.046Z" fill="#42AB84"/>
<path fill-rule="evenodd" clip-rule="evenodd" d="M1191.43 336.765C1197.4 336.706 1202.81 339.521 1206.65 344.078C1210.16 348.248 1212.33 353.893 1212.39 360.116C1212.43 366.371 1210.31 372.075 1206.84 376.315C1203 381.004 1197.5 383.899 1191.43 383.914C1185.36 383.894 1179.87 380.994 1176.03 376.305C1172.56 372.065 1170.44 366.368 1170.48 360.116C1170.53 353.895 1172.7 348.251 1176.21 344.081C1180.05 339.524 1185.46 336.709 1191.43 336.765ZM1191.43 338.187C1180.8 338.187 1172.17 348.012 1172.17 360.116C1172.17 372.219 1180.8 382.046 1191.43 382.046C1202.05 382.046 1210.68 372.219 1210.68 360.116C1210.68 348.012 1202.05 338.187 1191.43 338.187Z" fill="black"/>
<path d="M1185.77 348.677C1182.01 348.677 1178.97 345.277 1178.97 341.083C1178.97 336.888 1182.01 333.488 1185.77 333.488C1189.52 333.488 1192.57 336.888 1192.57 341.083C1192.57 345.277 1189.52 348.677 1185.77 348.677Z" fill="white"/>
<path fill-rule="evenodd" clip-rule="evenodd" d="M1185.77 332.463C1188.02 332.418 1190.08 333.443 1191.55 335.11C1192.91 336.649 1193.75 338.755 1193.8 341.082C1193.83 343.433 1193.02 345.579 1191.69 347.172C1190.21 348.936 1188.1 350.012 1185.77 350.023C1183.44 350.007 1181.33 348.928 1179.86 347.164C1178.53 345.572 1177.72 343.43 1177.75 341.082C1177.79 338.756 1178.63 336.652 1179.99 335.113C1181.46 333.445 1183.51 332.419 1185.77 332.463ZM1185.77 333.488C1182.02 333.488 1178.97 336.89 1178.97 341.082C1178.97 345.273 1182.02 348.677 1185.77 348.677C1189.52 348.677 1192.57 345.273 1192.57 341.082C1192.57 336.89 1189.52 333.488 1185.77 333.488Z" fill="black"/>
<path d="M1185.25 341.942C1184.84 341.942 1184.51 341.543 1184.51 341.051C1184.51 340.56 1184.84 340.161 1185.25 340.161C1185.66 340.161 1185.99 340.56 1185.99 341.051C1185.99 341.543 1185.66 341.942 1185.25 341.942Z" fill="black"/>
<path fill-rule="evenodd" clip-rule="evenodd" d="M1185.25 340.046C1185.5 340.041 1185.73 340.167 1185.89 340.373C1186.03 340.55 1186.12 340.789 1186.12 341.052C1186.13 341.317 1186.05 341.56 1185.91 341.743C1185.75 341.96 1185.51 342.092 1185.25 342.093C1184.99 342.092 1184.75 341.959 1184.59 341.742C1184.45 341.559 1184.37 341.317 1184.37 341.052C1184.38 340.789 1184.46 340.55 1184.6 340.373C1184.76 340.167 1185 340.041 1185.25 340.046ZM1185.25 340.161C1184.84 340.161 1184.51 340.56 1184.51 341.052C1184.51 341.543 1184.84 341.942 1185.25 341.942C1185.66 341.942 1185.99 341.543 1185.99 341.052C1185.99 340.56 1185.66 340.161 1185.25 340.161Z" fill="black"/>
<path fill-rule="evenodd" clip-rule="evenodd" d="M1176.33 345.429C1166.28 359.373 1171.09 376.026 1182.87 381.013C1189.44 383.793 1200.34 385.05 1208.95 369.793C1193.76 381.767 1171.31 379.703 1176.33 345.429Z" fill="black" fill-opacity="0.3"/>
<path d="M976.275 127.56C971.029 128.569 965.926 124.797 964.879 119.136C963.832 113.475 967.237 108.069 972.484 107.06C977.731 106.052 982.833 109.823 983.88 115.484C984.927 121.145 981.522 126.552 976.275 127.56Z" fill="white"/>
<path fill-rule="evenodd" clip-rule="evenodd" d="M972.225 105.655C975.327 104.994 978.412 105.806 980.868 107.617C983.197 109.335 984.93 111.983 985.577 115.159C986.217 118.369 985.6 121.528 984.1 124.061C982.484 126.789 979.83 128.775 976.619 129.409C973.403 130.003 970.227 129.134 967.75 127.192C965.452 125.391 963.747 122.683 963.195 119.461C962.661 116.266 963.328 113.156 964.881 110.693C966.519 108.095 969.101 106.193 972.225 105.655ZM972.485 107.061C967.242 108.069 963.835 113.479 964.881 119.137C965.927 124.793 971.033 128.568 976.277 127.56C981.52 126.553 984.927 121.141 983.881 115.485C982.835 109.828 977.728 106.053 972.485 107.061Z" fill="black"/>
<path d="M973.873 118.608C973.303 118.717 972.741 118.268 972.618 117.605C972.496 116.941 972.858 116.314 973.428 116.204C973.999 116.095 974.56 116.544 974.683 117.208C974.806 117.871 974.443 118.498 973.873 118.608Z" fill="black"/>
<path fill-rule="evenodd" clip-rule="evenodd" d="M973.398 116.047C973.746 115.973 974.095 116.079 974.371 116.307C974.615 116.51 974.799 116.813 974.872 117.172C974.945 117.534 974.888 117.889 974.739 118.176C974.567 118.507 974.271 118.745 973.91 118.816C973.549 118.883 973.189 118.77 972.911 118.526C972.67 118.315 972.49 118.006 972.428 117.641C972.367 117.28 972.43 116.93 972.586 116.651C972.761 116.336 973.048 116.107 973.398 116.047ZM973.427 116.205C972.857 116.314 972.494 116.942 972.617 117.605C972.74 118.268 973.302 118.718 973.872 118.608C974.442 118.499 974.805 117.871 974.682 117.208C974.559 116.545 973.997 116.095 973.427 116.205Z" fill="black"/>
<path d="M972.805 175.392C953.536 179.087 935.738 170.339 933.053 155.851C930.367 141.364 943.81 126.625 963.079 122.93C982.348 119.235 1000.15 127.983 1002.83 142.471C1005.52 156.958 992.073 171.697 972.805 175.392Z" fill="#FF585C"/>
<path fill-rule="evenodd" clip-rule="evenodd" d="M962.669 120.713C973.997 118.418 984.885 120.284 992.837 124.969C999.503 128.895 1004.12 134.818 1005.5 141.959C1006.89 149.143 1004.78 156.436 1000.04 162.668C994.355 170.146 984.821 176.072 973.345 178.308C961.859 180.463 950.868 178.458 942.899 173.601C936.261 169.555 931.681 163.558 930.396 156.362C929.133 149.201 931.311 141.984 936.108 135.86C941.834 128.552 951.3 122.779 962.669 120.713ZM963.079 122.929C943.823 126.622 930.368 141.373 933.052 155.853C935.736 170.33 953.549 179.087 972.805 175.395C992.062 171.702 1005.52 156.949 1002.83 142.471C1000.15 127.992 982.336 119.236 963.079 122.929Z" fill="black"/>
<path fill-rule="evenodd" clip-rule="evenodd" d="M942.569 132.896C925.198 147.037 931.208 169.595 951.555 174.614C962.892 177.412 981.713 178.657 996.608 163.191C962.111 174.218 933.861 167.603 942.569 132.896Z" fill="black" fill-opacity="0.3"/>
<path d="M962.967 139.026C957.72 140.034 952.618 136.263 951.571 130.602C950.524 124.941 953.929 119.535 959.175 118.526C964.422 117.518 969.525 121.289 970.572 126.95C971.618 132.611 968.214 138.017 962.967 139.026Z" fill="white"/>
<path fill-rule="evenodd" clip-rule="evenodd" d="M958.917 117.121C962.019 116.46 965.104 117.271 967.559 119.083C969.888 120.8 971.622 123.449 972.268 126.625C972.908 129.835 972.292 132.994 970.792 135.527C969.175 138.255 966.521 140.241 963.31 140.875C960.094 141.469 956.919 140.599 954.442 138.658C952.144 136.857 950.439 134.149 949.887 130.926C949.353 127.732 950.02 124.622 951.573 122.159C953.211 119.56 955.792 117.658 958.917 117.121ZM959.177 118.527C953.934 119.535 950.526 124.945 951.572 130.602C952.619 136.259 957.725 140.034 962.968 139.026C968.211 138.019 971.619 132.607 970.572 126.951C969.526 121.293 964.42 117.519 959.177 118.527Z" fill="black"/>
<path d="M960.564 130.074C959.994 130.183 959.432 129.734 959.31 129.07C959.187 128.407 959.55 127.78 960.12 127.67C960.69 127.561 961.252 128.01 961.375 128.673C961.497 129.337 961.135 129.964 960.564 130.074Z" fill="black"/>
<path fill-rule="evenodd" clip-rule="evenodd" d="M960.089 127.513C960.437 127.439 960.786 127.545 961.062 127.773C961.307 127.976 961.491 128.278 961.564 128.637C961.636 129 961.579 129.355 961.43 129.642C961.258 129.973 960.962 130.211 960.602 130.282C960.24 130.349 959.881 130.236 959.602 129.992C959.362 129.78 959.181 129.471 959.119 129.107C959.059 128.746 959.122 128.396 959.277 128.117C959.452 127.801 959.739 127.573 960.089 127.513ZM960.119 127.671C959.549 127.78 959.186 128.408 959.308 129.071C959.431 129.734 959.993 130.184 960.563 130.074C961.133 129.965 961.496 129.337 961.373 128.674C961.251 128.011 960.688 127.561 960.119 127.671Z" fill="black"/>
<path d="M1858.45 2077.81C1862.56 2081.23 1868.84 2080.39 1872.49 2075.94C1876.13 2071.49 1875.75 2065.11 1871.63 2061.69C1867.52 2058.27 1861.24 2059.11 1857.6 2063.56C1853.96 2068.01 1854.34 2074.39 1858.45 2077.81Z" fill="white"/>
<path fill-rule="evenodd" clip-rule="evenodd" d="M1872.54 2060.59C1875.02 2062.57 1876.37 2065.48 1876.55 2068.55C1876.73 2071.46 1875.81 2074.5 1873.81 2077.04C1871.77 2079.6 1868.98 2081.15 1866.1 2081.61C1862.99 2082.11 1859.79 2081.34 1857.26 2079.26C1854.75 2077.16 1853.39 2074.13 1853.28 2070.96C1853.19 2068.02 1854.17 2064.95 1856.27 2062.45C1858.37 2059.98 1861.16 2058.5 1864.03 2058.12C1867.05 2057.73 1870.14 2058.51 1872.54 2060.59ZM1871.64 2061.69C1867.53 2058.27 1861.24 2059.11 1857.6 2063.56C1853.96 2068.01 1854.34 2074.39 1858.45 2077.81C1862.56 2081.23 1868.85 2080.39 1872.49 2075.94C1876.13 2071.5 1875.74 2065.11 1871.64 2061.69Z" fill="black"/>
<path d="M1864.86 2071.13C1865.31 2071.51 1866.02 2071.38 1866.45 2070.86C1866.87 2070.34 1866.86 2069.62 1866.41 2069.25C1865.96 2068.87 1865.26 2069 1864.83 2069.52C1864.4 2070.04 1864.42 2070.76 1864.86 2071.13Z" fill="black"/>
<path fill-rule="evenodd" clip-rule="evenodd" d="M1866.51 2069.12C1866.79 2069.34 1866.93 2069.68 1866.93 2070.04C1866.94 2070.36 1866.82 2070.7 1866.6 2070.99C1866.37 2071.28 1866.06 2071.46 1865.75 2071.53C1865.39 2071.61 1865.02 2071.53 1864.73 2071.3C1864.45 2071.06 1864.31 2070.71 1864.31 2070.34C1864.32 2070.01 1864.44 2069.68 1864.68 2069.39C1864.92 2069.11 1865.22 2068.94 1865.54 2068.88C1865.89 2068.81 1866.24 2068.89 1866.51 2069.12ZM1866.41 2069.25C1865.96 2068.87 1865.26 2069 1864.83 2069.52C1864.4 2070.04 1864.42 2070.76 1864.87 2071.14C1865.31 2071.51 1866.02 2071.39 1866.45 2070.86C1866.87 2070.34 1866.86 2069.62 1866.41 2069.25Z" fill="black"/>
<path d="M1838.57 2121.41C1853.68 2133.98 1873.49 2134.94 1882.8 2123.55C1892.12 2112.15 1887.43 2092.73 1872.31 2080.15C1857.2 2067.58 1837.4 2066.62 1828.08 2078.01C1818.76 2089.41 1823.46 2108.83 1838.57 2121.41Z" fill="#91614C"/>
<path fill-rule="evenodd" clip-rule="evenodd" d="M1873.74 2078.41C1882.71 2085.73 1888.23 2095.37 1889.74 2104.55C1891 2112.24 1889.44 2119.62 1884.89 2125.28C1880.3 2130.96 1873.4 2134 1865.64 2134.33C1856.32 2134.72 1845.73 2131.15 1836.7 2123.7C1827.71 2116.18 1822.21 2106.37 1820.82 2097.06C1819.66 2089.31 1821.32 2081.89 1825.99 2076.27C1830.64 2070.69 1837.53 2067.73 1845.25 2067.52C1854.48 2067.27 1864.91 2070.91 1873.74 2078.41ZM1872.31 2080.15C1857.21 2067.59 1837.39 2066.63 1828.08 2078.02C1818.77 2089.4 1823.47 2108.84 1838.57 2121.41C1853.67 2133.97 1873.49 2134.93 1882.8 2123.55C1892.12 2112.16 1887.42 2092.72 1872.31 2080.15Z" fill="black"/>
<path d="M1864.62 2094.33C1868.73 2097.75 1875.02 2096.91 1878.66 2092.46C1882.3 2088.01 1881.92 2081.63 1877.81 2078.21C1873.7 2074.79 1867.41 2075.62 1863.77 2080.08C1860.13 2084.53 1860.51 2090.91 1864.62 2094.33Z" fill="white"/>
<path fill-rule="evenodd" clip-rule="evenodd" d="M1878.71 2077.1C1881.19 2079.09 1882.54 2082 1882.72 2085.07C1882.9 2087.98 1881.99 2091.02 1879.98 2093.56C1877.95 2096.12 1875.15 2097.66 1872.27 2098.13C1869.17 2098.63 1865.97 2097.86 1863.43 2095.78C1860.93 2093.67 1859.56 2090.65 1859.45 2087.48C1859.36 2084.54 1860.34 2081.47 1862.44 2078.97C1864.54 2076.5 1867.33 2075.02 1870.2 2074.64C1873.22 2074.24 1876.31 2075.02 1878.71 2077.1ZM1877.81 2078.21C1873.7 2074.79 1867.41 2075.63 1863.77 2080.08C1860.13 2084.52 1860.52 2090.91 1864.62 2094.33C1868.73 2097.75 1875.02 2096.91 1878.66 2092.46C1882.3 2088.01 1881.92 2081.63 1877.81 2078.21Z" fill="black"/>
<path d="M1871.04 2087.65C1871.48 2088.02 1872.19 2087.9 1872.62 2087.38C1873.04 2086.86 1873.03 2086.13 1872.58 2085.76C1872.14 2085.39 1871.43 2085.51 1871 2086.03C1870.57 2086.56 1870.59 2087.28 1871.04 2087.65Z" fill="black"/>
<path fill-rule="evenodd" clip-rule="evenodd" d="M1872.68 2085.64C1872.96 2085.86 1873.1 2086.2 1873.11 2086.56C1873.11 2086.88 1872.99 2087.22 1872.77 2087.5C1872.54 2087.79 1872.23 2087.98 1871.92 2088.05C1871.56 2088.13 1871.19 2088.05 1870.9 2087.82C1870.62 2087.58 1870.48 2087.23 1870.49 2086.86C1870.49 2086.53 1870.61 2086.19 1870.85 2085.91C1871.09 2085.63 1871.4 2085.46 1871.71 2085.4C1872.06 2085.33 1872.42 2085.41 1872.68 2085.64ZM1872.58 2085.76C1872.14 2085.39 1871.43 2085.51 1871 2086.04C1870.57 2086.56 1870.59 2087.28 1871.04 2087.65C1871.48 2088.02 1872.19 2087.9 1872.62 2087.38C1873.05 2086.86 1873.03 2086.13 1872.58 2085.76Z" fill="black"/>
<path fill-rule="evenodd" clip-rule="evenodd" d="M1827.9 2077.25C1813.03 2096.23 1831.45 2124.05 1852.05 2129.78C1863.53 2132.96 1870.92 2134.8 1882.89 2122.87C1855.11 2130.98 1828.06 2113.54 1827.9 2077.25Z" fill="black" fill-opacity="0.3"/>
<path d="M1860.05 2598.56C1858.65 2599.73 1856.51 2599.44 1855.27 2597.92C1854.03 2596.41 1854.16 2594.24 1855.56 2593.07C1856.96 2591.91 1859.1 2592.19 1860.34 2593.71C1861.58 2595.22 1861.45 2597.4 1860.05 2598.56Z" fill="white"/>
<path fill-rule="evenodd" clip-rule="evenodd" d="M1855.25 2592.69C1856.07 2591.99 1857.13 2591.72 1858.15 2591.86C1859.13 2591.98 1860.08 2592.49 1860.8 2593.33C1861.51 2594.18 1861.85 2595.23 1861.81 2596.23C1861.78 2597.31 1861.31 2598.34 1860.46 2599.06C1859.6 2599.76 1858.51 2600.03 1857.45 2599.86C1856.47 2599.7 1855.52 2599.17 1854.82 2598.3C1854.14 2597.43 1853.83 2596.4 1853.89 2595.41C1853.95 2594.36 1854.41 2593.37 1855.25 2592.69ZM1855.56 2593.07C1854.16 2594.23 1854.03 2596.41 1855.27 2597.92C1856.51 2599.44 1858.65 2599.72 1860.05 2598.56C1861.45 2597.4 1861.58 2595.22 1860.34 2593.71C1859.1 2592.19 1856.96 2591.91 1855.56 2593.07Z" fill="black"/>
<path d="M1857.87 2596.29C1857.72 2596.42 1857.47 2596.37 1857.33 2596.2C1857.18 2596.02 1857.19 2595.77 1857.34 2595.65C1857.49 2595.52 1857.74 2595.56 1857.88 2595.74C1858.03 2595.92 1858.02 2596.16 1857.87 2596.29Z" fill="black"/>
<path fill-rule="evenodd" clip-rule="evenodd" d="M1857.31 2595.6C1857.4 2595.52 1857.52 2595.5 1857.64 2595.52C1857.75 2595.54 1857.85 2595.6 1857.93 2595.69C1858.01 2595.79 1858.05 2595.91 1858.06 2596.02C1858.06 2596.14 1858.01 2596.26 1857.91 2596.34C1857.82 2596.42 1857.69 2596.45 1857.57 2596.42C1857.46 2596.4 1857.36 2596.34 1857.28 2596.24C1857.2 2596.14 1857.16 2596.03 1857.16 2595.92C1857.16 2595.79 1857.21 2595.68 1857.31 2595.6ZM1857.34 2595.64C1857.19 2595.77 1857.18 2596.02 1857.33 2596.2C1857.47 2596.37 1857.72 2596.42 1857.87 2596.29C1858.02 2596.16 1858.03 2595.91 1857.88 2595.74C1857.73 2595.56 1857.49 2595.52 1857.34 2595.64Z" fill="black"/>
<path d="M1866.83 2613.41C1861.68 2617.69 1854.93 2618.02 1851.76 2614.14C1848.59 2610.26 1850.19 2603.64 1855.33 2599.36C1860.48 2595.08 1867.23 2594.75 1870.4 2598.63C1873.57 2602.51 1871.97 2609.13 1866.83 2613.41Z" fill="#42AB84"/>
<path fill-rule="evenodd" clip-rule="evenodd" d="M1854.85 2598.77C1857.85 2596.21 1861.41 2594.97 1864.55 2595.06C1867.18 2595.13 1869.53 2596.14 1871.11 2598.04C1872.7 2599.95 1873.27 2602.48 1872.87 2605.12C1872.4 2608.29 1870.52 2611.63 1867.46 2614.19C1864.39 2616.73 1860.78 2617.95 1857.6 2617.81C1854.96 2617.7 1852.61 2616.67 1851.05 2614.73C1849.5 2612.8 1848.97 2610.29 1849.4 2607.67C1849.91 2604.54 1851.79 2601.26 1854.85 2598.77ZM1855.33 2599.36C1850.19 2603.64 1848.59 2610.26 1851.76 2614.14C1854.93 2618.02 1861.68 2617.69 1866.83 2613.41C1871.97 2609.13 1873.57 2602.51 1870.4 2598.63C1867.23 2594.75 1860.48 2595.08 1855.33 2599.36Z" fill="black"/>
<path fill-rule="evenodd" clip-rule="evenodd" d="M1852.66 2602.04C1847.54 2607.67 1849.47 2614.91 1855.46 2616.91C1858.8 2618.03 1863.98 2616.72 1868.79 2611.65C1858.62 2616.02 1850.1 2615.86 1852.66 2602.04Z" fill="black" fill-opacity="0.3"/>
<path d="M1857.95 2604.19C1856.55 2605.35 1854.41 2605.07 1853.17 2603.55C1851.93 2602.04 1852.06 2599.86 1853.46 2598.7C1854.86 2597.53 1857 2597.82 1858.24 2599.33C1859.48 2600.85 1859.35 2603.02 1857.95 2604.19Z" fill="white"/>
<path fill-rule="evenodd" clip-rule="evenodd" d="M1853.15 2598.32C1853.97 2597.61 1855.02 2597.35 1856.05 2597.48C1857.03 2597.61 1857.98 2598.12 1858.69 2598.96C1859.41 2599.81 1859.75 2600.85 1859.71 2601.86C1859.68 2602.94 1859.21 2603.96 1858.36 2604.68C1857.49 2605.39 1856.4 2605.65 1855.35 2605.48C1854.37 2605.32 1853.41 2604.8 1852.72 2603.93C1852.04 2603.06 1851.73 2602.02 1851.79 2601.03C1851.85 2599.99 1852.31 2599 1853.15 2598.32ZM1853.46 2598.7C1852.06 2599.86 1851.93 2602.04 1853.17 2603.55C1854.41 2605.07 1856.55 2605.35 1857.95 2604.19C1859.35 2603.02 1859.48 2600.85 1858.24 2599.33C1857 2597.82 1854.86 2597.53 1853.46 2598.7Z" fill="black"/>
<path d="M1855.77 2601.91C1855.61 2602.04 1855.37 2602 1855.23 2601.82C1855.08 2601.64 1855.09 2601.4 1855.24 2601.27C1855.39 2601.14 1855.63 2601.19 1855.78 2601.36C1855.92 2601.54 1855.92 2601.79 1855.77 2601.91Z" fill="black"/>
<path fill-rule="evenodd" clip-rule="evenodd" d="M1855.2 2601.23C1855.3 2601.15 1855.42 2601.12 1855.54 2601.15C1855.64 2601.17 1855.75 2601.23 1855.83 2601.32C1855.91 2601.42 1855.95 2601.53 1855.95 2601.64C1855.96 2601.77 1855.91 2601.89 1855.81 2601.97C1855.71 2602.05 1855.59 2602.08 1855.47 2602.05C1855.36 2602.03 1855.25 2601.96 1855.18 2601.86C1855.1 2601.77 1855.06 2601.65 1855.06 2601.54C1855.06 2601.42 1855.11 2601.3 1855.2 2601.23ZM1855.24 2601.27C1855.09 2601.4 1855.08 2601.65 1855.23 2601.82C1855.37 2602 1855.61 2602.04 1855.77 2601.92C1855.92 2601.79 1855.92 2601.54 1855.78 2601.36C1855.63 2601.19 1855.39 2601.14 1855.24 2601.27Z" fill="black"/>
<path d="M1051.87 534.763C1049.01 535.312 1046.23 533.257 1045.66 530.171C1045.09 527.086 1046.95 524.139 1049.81 523.589C1052.67 523.039 1055.45 525.095 1056.02 528.181C1056.59 531.266 1054.73 534.213 1051.87 534.763Z" fill="white"/>
<path fill-rule="evenodd" clip-rule="evenodd" d="M1049.66 522.824C1051.35 522.463 1053.04 522.906 1054.37 523.893C1055.64 524.829 1056.59 526.273 1056.94 528.004C1057.29 529.753 1056.95 531.475 1056.14 532.856C1055.25 534.343 1053.81 535.426 1052.06 535.771C1050.3 536.095 1048.57 535.621 1047.22 534.563C1045.97 533.581 1045.04 532.105 1044.74 530.348C1044.45 528.607 1044.81 526.912 1045.66 525.57C1046.55 524.153 1047.96 523.116 1049.66 522.824ZM1049.8 523.59C1046.95 524.139 1045.09 527.088 1045.66 530.172C1046.23 533.255 1049.01 535.313 1051.87 534.763C1054.73 534.214 1056.59 531.265 1056.02 528.181C1055.45 525.098 1052.66 523.041 1049.8 523.59Z" fill="black"/>
<path d="M1050.56 529.884C1050.25 529.944 1049.95 529.699 1049.88 529.337C1049.81 528.975 1050.01 528.634 1050.32 528.574C1050.63 528.514 1050.94 528.759 1051 529.121C1051.07 529.483 1050.87 529.824 1050.56 529.884Z" fill="black"/>
<path fill-rule="evenodd" clip-rule="evenodd" d="M1050.3 528.488C1050.49 528.447 1050.68 528.505 1050.83 528.63C1050.97 528.74 1051.07 528.905 1051.11 529.101C1051.15 529.298 1051.11 529.492 1051.03 529.648C1050.94 529.829 1050.78 529.958 1050.58 529.997C1050.38 530.033 1050.19 529.972 1050.04 529.839C1049.91 529.724 1049.81 529.555 1049.77 529.357C1049.74 529.16 1049.77 528.969 1049.86 528.817C1049.95 528.645 1050.11 528.52 1050.3 528.488ZM1050.32 528.574C1050.01 528.633 1049.81 528.975 1049.88 529.337C1049.94 529.698 1050.25 529.943 1050.56 529.884C1050.87 529.824 1051.07 529.482 1051 529.121C1050.94 528.759 1050.63 528.514 1050.32 528.574Z" fill="black"/>
<path d="M1049.98 560.835C1039.48 562.849 1029.78 558.08 1028.31 550.184C1026.85 542.287 1034.18 534.253 1044.68 532.239C1055.18 530.225 1064.88 534.994 1066.35 542.891C1067.81 550.787 1060.48 558.821 1049.98 560.835Z" fill="#FFA264"/>
<path fill-rule="evenodd" clip-rule="evenodd" d="M1044.46 531.031C1050.63 529.78 1056.57 530.797 1060.9 533.351C1064.53 535.491 1067.05 538.719 1067.8 542.612C1068.56 546.528 1067.41 550.503 1064.83 553.899C1061.73 557.975 1056.53 561.206 1050.28 562.424C1044.01 563.599 1038.02 562.506 1033.68 559.858C1030.06 557.653 1027.57 554.384 1026.87 550.462C1026.18 546.559 1027.36 542.626 1029.98 539.287C1033.1 535.304 1038.26 532.157 1044.46 531.031ZM1044.68 532.239C1034.18 534.252 1026.85 542.292 1028.31 550.185C1029.78 558.076 1039.49 562.849 1049.98 560.836C1060.48 558.824 1067.81 550.782 1066.35 542.891C1064.89 534.999 1055.18 530.226 1044.68 532.239Z" fill="black"/>
<path fill-rule="evenodd" clip-rule="evenodd" d="M1032.51 537.819C1022.31 545.603 1025.84 558.02 1037.78 560.782C1044.44 562.321 1055.5 563.006 1064.24 554.492C1043.98 560.563 1027.39 556.923 1032.51 537.819Z" fill="black" fill-opacity="0.3"/>
<path d="M1044.62 541.013C1041.76 541.562 1038.98 539.507 1038.41 536.421C1037.84 533.336 1039.69 530.389 1042.55 529.839C1045.41 529.289 1048.19 531.345 1048.76 534.431C1049.33 537.516 1047.48 540.463 1044.62 541.013Z" fill="white"/>
<path fill-rule="evenodd" clip-rule="evenodd" d="M1042.41 529.074C1044.1 528.713 1045.78 529.156 1047.12 530.143C1048.39 531.079 1049.33 532.523 1049.69 534.254C1050.04 536.003 1049.7 537.725 1048.88 539.106C1048 540.593 1046.55 541.676 1044.8 542.021C1043.05 542.345 1041.32 541.871 1039.97 540.813C1038.72 539.831 1037.79 538.355 1037.49 536.598C1037.2 534.857 1037.56 533.162 1038.41 531.82C1039.3 530.403 1040.71 529.366 1042.41 529.074ZM1042.55 529.84C1039.69 530.389 1037.84 533.338 1038.41 536.422C1038.98 539.505 1041.76 541.563 1044.62 541.013C1047.47 540.464 1049.33 537.515 1048.76 534.431C1048.19 531.348 1045.41 529.291 1042.55 529.84Z" fill="black"/>
<path d="M1043.31 536.134C1043 536.194 1042.69 535.949 1042.62 535.587C1042.56 535.225 1042.76 534.884 1043.07 534.824C1043.38 534.764 1043.68 535.009 1043.75 535.371C1043.82 535.733 1043.62 536.074 1043.31 536.134Z" fill="black"/>
<path fill-rule="evenodd" clip-rule="evenodd" d="M1043.05 534.738C1043.24 534.697 1043.43 534.755 1043.58 534.88C1043.71 534.99 1043.81 535.155 1043.85 535.351C1043.89 535.548 1043.86 535.742 1043.78 535.898C1043.69 536.079 1043.52 536.208 1043.33 536.247C1043.13 536.283 1042.93 536.222 1042.78 536.089C1042.65 535.974 1042.55 535.805 1042.52 535.607C1042.49 535.41 1042.52 535.219 1042.61 535.067C1042.7 534.895 1042.86 534.77 1043.05 534.738ZM1043.06 534.824C1042.75 534.883 1042.56 535.225 1042.62 535.587C1042.69 535.948 1043 536.193 1043.31 536.134C1043.62 536.074 1043.81 535.732 1043.75 535.371C1043.68 535.009 1043.37 534.764 1043.06 534.824Z" fill="black"/>
<path d="M1795.32 676.72C1792.39 679.377 1787.66 678.889 1784.76 675.63C1781.86 672.372 1781.89 667.577 1784.83 664.92C1787.77 662.264 1792.5 662.752 1795.4 666.01C1798.29 669.269 1798.26 674.064 1795.32 676.72Z" fill="white"/>
<path fill-rule="evenodd" clip-rule="evenodd" d="M1784.12 664.122C1785.85 662.494 1788.16 661.838 1790.46 662.086C1792.59 662.316 1794.71 663.358 1796.36 665.143C1798.01 666.951 1798.86 669.199 1798.92 671.384C1798.98 673.791 1798.07 676.116 1796.26 677.769C1794.43 679.4 1792.04 680.055 1789.68 679.73C1787.53 679.434 1785.41 678.343 1783.81 676.492C1782.23 674.652 1781.43 672.415 1781.43 670.252C1781.43 667.921 1782.33 665.679 1784.12 664.122ZM1784.83 664.92C1781.9 667.575 1781.86 672.373 1784.76 675.63C1787.65 678.886 1792.39 679.375 1795.32 676.72C1798.26 674.065 1798.29 669.266 1795.4 666.01C1792.5 662.754 1787.77 662.265 1784.83 664.92Z" fill="black"/>
<path d="M1790.27 671.855C1789.95 672.144 1789.41 672.068 1789.07 671.686C1788.73 671.304 1788.72 670.761 1789.04 670.472C1789.35 670.183 1789.89 670.259 1790.23 670.641C1790.57 671.023 1790.58 671.567 1790.27 671.855Z" fill="black"/>
<path fill-rule="evenodd" clip-rule="evenodd" d="M1788.95 670.382C1789.15 670.2 1789.42 670.135 1789.68 670.179C1789.92 670.217 1790.15 670.342 1790.34 670.543C1790.52 670.748 1790.63 670.996 1790.65 671.235C1790.67 671.518 1790.57 671.788 1790.37 671.973C1790.16 672.156 1789.89 672.222 1789.61 672.168C1789.38 672.122 1789.15 671.992 1788.96 671.783C1788.79 671.575 1788.69 671.328 1788.68 671.091C1788.66 670.817 1788.75 670.557 1788.95 670.382ZM1789.03 670.472C1788.72 670.76 1788.73 671.305 1789.07 671.686C1789.41 672.068 1789.95 672.144 1790.26 671.855C1790.58 671.567 1790.57 671.023 1790.23 670.641C1789.89 670.259 1789.35 670.184 1789.03 670.472Z" fill="black"/>
<path d="M1806.05 709.016C1818.77 697.512 1824.01 682.479 1817.75 675.44C1811.49 668.401 1796.1 672.021 1783.38 683.525C1770.66 695.03 1765.42 710.063 1771.68 717.102C1777.94 724.141 1793.33 720.521 1806.05 709.016Z" fill="#FF8184"/>
<path fill-rule="evenodd" clip-rule="evenodd" d="M1782.16 682.15C1788.88 675.952 1796.37 671.926 1802.95 670.407C1809.87 668.81 1815.85 670.041 1819.39 673.955C1822.95 677.9 1823.57 684.058 1821.34 690.903C1819.21 697.425 1814.47 704.614 1807.66 710.825C1800.8 716.987 1793.2 720.974 1786.54 722.404C1779.54 723.907 1773.53 722.599 1770.03 718.597C1766.55 714.616 1765.98 708.487 1768.31 701.713C1770.53 695.279 1775.31 688.208 1782.16 682.15ZM1783.38 683.525C1770.67 695.023 1765.43 710.068 1771.68 717.103C1777.94 724.137 1793.34 720.514 1806.05 709.017C1818.76 697.52 1824 682.474 1817.75 675.44C1811.49 668.405 1796.09 672.028 1783.38 683.525Z" fill="black"/>
<path d="M1791.36 689.248C1788.42 691.905 1783.69 691.417 1780.79 688.158C1777.9 684.9 1777.93 680.105 1780.87 677.449C1783.8 674.792 1788.53 675.28 1791.43 678.539C1794.33 681.797 1794.3 686.592 1791.36 689.248Z" fill="white"/>
<path fill-rule="evenodd" clip-rule="evenodd" d="M1780.16 676.65C1781.89 675.022 1784.19 674.366 1786.49 674.614C1788.63 674.845 1790.75 675.887 1792.39 677.671C1794.04 679.479 1794.89 681.728 1794.95 683.913C1795.01 686.319 1794.1 688.644 1792.29 690.298C1790.46 691.928 1788.08 692.583 1785.71 692.258C1783.57 691.963 1781.44 690.871 1779.84 689.02C1778.26 687.18 1777.46 684.943 1777.47 682.78C1777.47 680.45 1778.37 678.207 1780.16 676.65ZM1780.87 677.448C1777.93 680.103 1777.9 684.902 1780.79 688.158C1783.69 691.414 1788.42 691.903 1791.36 689.248C1794.3 686.593 1794.33 681.794 1791.43 678.538C1788.54 675.282 1783.8 674.794 1780.87 677.448Z" fill="black"/>
<path d="M1786.3 684.384C1785.98 684.672 1785.45 684.596 1785.11 684.214C1784.77 683.832 1784.75 683.289 1785.07 683C1785.39 682.712 1785.92 682.787 1786.26 683.169C1786.6 683.551 1786.62 684.095 1786.3 684.384Z" fill="black"/>
<path fill-rule="evenodd" clip-rule="evenodd" d="M1784.99 682.91C1785.18 682.728 1785.45 682.663 1785.72 682.707C1785.95 682.746 1786.18 682.87 1786.37 683.072C1786.56 683.276 1786.66 683.524 1786.68 683.763C1786.7 684.046 1786.61 684.316 1786.41 684.502C1786.2 684.685 1785.92 684.75 1785.65 684.696C1785.41 684.651 1785.18 684.521 1785 684.312C1784.82 684.104 1784.72 683.856 1784.71 683.619C1784.7 683.345 1784.79 683.085 1784.99 682.91ZM1785.07 683C1784.75 683.289 1784.77 683.833 1785.11 684.215C1785.45 684.596 1785.98 684.672 1786.3 684.384C1786.62 684.095 1786.6 683.551 1786.26 683.169C1785.92 682.788 1785.39 682.712 1785.07 683Z" fill="black"/>
<path fill-rule="evenodd" clip-rule="evenodd" d="M1773.33 696.847C1764.71 704.742 1767.71 717.364 1777.82 720.188C1783.45 721.762 1798.53 718.05 1805.91 709.411C1788.79 715.551 1769.03 716.252 1773.33 696.847Z" fill="black" fill-opacity="0.3"/>
<path d="M1514.83 68.1698C1509.8 65.505 1508.07 58.838 1510.96 53.2786C1513.84 47.7191 1520.26 45.3726 1525.29 48.0373C1530.32 50.7021 1532.05 57.3691 1529.16 62.9285C1526.27 68.488 1519.86 70.8346 1514.83 68.1698Z" fill="white"/>
<path fill-rule="evenodd" clip-rule="evenodd" d="M1526 46.6755C1529.04 48.2122 1531.08 51.0189 1531.91 54.2644C1532.68 57.2773 1532.36 60.6757 1530.8 63.7989C1529.22 66.9468 1526.65 69.2215 1523.76 70.388C1520.58 71.6729 1517.02 71.595 1513.9 69.9609C1510.8 68.2911 1508.72 65.3726 1507.97 62.001C1507.28 58.9403 1507.66 55.5134 1509.33 52.4143C1510.98 49.3507 1513.57 47.1523 1516.46 46.0783C1519.57 44.9215 1523.01 45.0197 1526 46.6755ZM1525.29 48.0379C1520.26 45.375 1513.84 47.7232 1510.96 53.2792C1508.07 58.8345 1509.81 65.5073 1514.83 68.1702C1519.86 70.8331 1526.28 68.4841 1529.16 62.9289C1532.05 57.3729 1530.31 50.7008 1525.29 48.0379Z" fill="black"/>
<path d="M1518.77 58.8771C1518.23 58.5875 1518.06 57.8244 1518.4 57.1726C1518.74 56.5208 1519.45 56.2271 1520 56.5167C1520.55 56.8063 1520.71 57.5694 1520.38 58.2212C1520.04 58.873 1519.32 59.1667 1518.77 58.8771Z" fill="black"/>
<path fill-rule="evenodd" clip-rule="evenodd" d="M1520.08 56.3633C1520.42 56.5355 1520.64 56.8652 1520.72 57.2516C1520.78 57.587 1520.74 57.9659 1520.56 58.3189C1520.38 58.6745 1520.1 58.9384 1519.79 59.084C1519.43 59.256 1519.02 59.2619 1518.67 59.0784C1518.32 58.8909 1518.1 58.5483 1518.03 58.1467C1517.97 57.8068 1518.03 57.4254 1518.21 57.0751C1518.4 56.7288 1518.68 56.4734 1518.99 56.3378C1519.35 56.1814 1519.75 56.1778 1520.08 56.3633ZM1520 56.5166C1519.45 56.2272 1518.74 56.5211 1518.4 57.1724C1518.06 57.8238 1518.23 58.5875 1518.77 58.8769C1519.32 59.1662 1520.04 58.8723 1520.38 58.221C1520.71 57.5696 1520.55 56.8059 1520 56.5166Z" fill="black"/>
<path d="M1482.94 99.7202C1493.94 105.555 1507.93 100.546 1514.16 88.5339C1520.4 76.5215 1516.54 62.0538 1505.53 56.2194C1494.52 50.385 1480.54 55.3933 1474.3 67.4057C1468.06 79.4181 1471.93 93.8858 1482.94 99.7202Z" fill="#F7F189"/>
<path fill-rule="evenodd" clip-rule="evenodd" d="M1506.28 54.7792C1512.4 57.9494 1516.51 63.6023 1518.17 70.1092C1519.74 76.2473 1519.09 83.151 1515.89 89.4487C1512.66 95.7716 1507.42 100.312 1501.53 102.592C1495.22 105.037 1488.16 104.875 1481.95 101.615C1475.76 98.3163 1471.61 92.5403 1470.01 85.8989C1468.52 79.7068 1469.25 72.7683 1472.57 66.4861C1475.88 60.2433 1481.14 55.7851 1487.03 53.5999C1493.28 51.2832 1500.22 51.4911 1506.28 54.7792ZM1505.53 56.2197C1494.53 50.3893 1480.54 55.4009 1474.3 67.4061C1468.07 79.4097 1471.94 93.8902 1482.94 99.7206C1493.94 105.551 1507.93 100.538 1514.16 88.5342C1520.4 76.5289 1516.53 62.0501 1505.53 56.2197Z" fill="black"/>
<path fill-rule="evenodd" clip-rule="evenodd" d="M1477.19 59.8906C1465.47 73.985 1469.6 96.5634 1483.39 101.64C1491.07 104.469 1503.81 105.767 1513.85 90.3402C1490.53 101.272 1471.39 94.578 1477.19 59.8906Z" fill="black" fill-opacity="0.3"/>
<path d="M1496.12 69.0721C1491.09 66.4074 1489.35 59.7403 1492.24 54.1809C1495.13 48.6215 1501.55 46.2749 1506.57 48.9397C1511.6 51.6044 1513.33 58.2715 1510.45 63.8309C1507.56 69.3903 1501.14 71.7369 1496.12 69.0721Z" fill="white"/>
<path fill-rule="evenodd" clip-rule="evenodd" d="M1507.28 47.5779C1510.33 49.1145 1512.37 51.9212 1513.19 55.1668C1513.96 58.1796 1513.64 61.578 1512.09 64.7013C1510.51 67.8491 1507.94 70.1239 1505.05 71.2903C1501.87 72.5752 1498.31 72.4974 1495.19 70.8632C1492.09 69.1934 1490.01 66.2749 1489.25 62.9034C1488.56 59.8426 1488.95 56.4158 1490.61 53.3167C1492.27 50.253 1494.85 48.0547 1497.74 46.9806C1500.85 45.8238 1504.3 45.9221 1507.28 47.5779ZM1506.57 48.9403C1501.55 46.2774 1495.13 48.6255 1492.24 54.1816C1489.36 59.7368 1491.09 66.4096 1496.12 69.0725C1501.14 71.7354 1507.56 69.3865 1510.45 63.8312C1513.33 58.2752 1511.6 51.6032 1506.57 48.9403Z" fill="black"/>
<path d="M1500.06 59.7794C1499.51 59.4899 1499.34 58.7267 1499.68 58.0749C1500.02 57.4231 1500.74 57.1295 1501.28 57.419C1501.83 57.7086 1502 58.4718 1501.66 59.1236C1501.32 59.7754 1500.6 60.069 1500.06 59.7794Z" fill="black"/>
<path fill-rule="evenodd" clip-rule="evenodd" d="M1501.36 57.2656C1501.71 57.4378 1501.93 57.7675 1502 58.1539C1502.07 58.4893 1502.02 58.8682 1501.85 59.2212C1501.67 59.5769 1501.39 59.8407 1501.08 59.9864C1500.71 60.1584 1500.3 60.1642 1499.95 59.9807C1499.61 59.7932 1499.38 59.4506 1499.31 59.0491C1499.26 58.7092 1499.31 58.3277 1499.5 57.9775C1499.69 57.6311 1499.97 57.3758 1500.28 57.2402C1500.64 57.0838 1501.03 57.0801 1501.36 57.2656ZM1501.29 57.4189C1500.74 57.1296 1500.02 57.4234 1499.68 58.0748C1499.34 58.7261 1499.51 59.4899 1500.06 59.7792C1500.61 60.0686 1501.32 59.7747 1501.66 59.1233C1502 58.472 1501.83 57.7083 1501.29 57.4189Z" fill="black"/>
<path d="M291.322 1966.22C285.785 1964.93 282.415 1958.92 283.796 1952.81C285.176 1946.69 290.784 1942.79 296.322 1944.08C301.859 1945.37 305.228 1951.38 303.848 1957.49C302.467 1963.61 296.859 1967.52 291.322 1966.22Z" fill="white"/>
<path fill-rule="evenodd" clip-rule="evenodd" d="M296.657 1942.58C299.991 1943.29 302.675 1945.48 304.3 1948.41C305.808 1951.13 306.36 1954.5 305.652 1957.92C304.924 1961.36 303.015 1964.22 300.519 1966.09C297.77 1968.14 294.306 1968.98 290.874 1968.19C287.455 1967.37 284.704 1965.08 283.115 1962.01C281.673 1959.22 281.176 1955.81 281.996 1952.39C282.822 1949 284.762 1946.22 287.282 1944.44C289.998 1942.52 293.353 1941.74 296.657 1942.58ZM296.318 1944.08C290.785 1942.79 285.173 1946.7 283.793 1952.81C282.414 1958.92 285.786 1964.93 291.319 1966.22C296.852 1967.52 302.465 1963.6 303.844 1957.49C305.224 1951.38 301.852 1945.37 296.318 1944.08Z" fill="black"/>
<path d="M292.777 1956.23C292.176 1956.09 291.819 1955.39 291.981 1954.68C292.143 1953.96 292.762 1953.49 293.364 1953.63C293.965 1953.77 294.322 1954.47 294.16 1955.18C293.998 1955.9 293.379 1956.37 292.777 1956.23Z" fill="black"/>
<path fill-rule="evenodd" clip-rule="evenodd" d="M293.402 1953.46C293.776 1953.54 294.073 1953.81 294.245 1954.16C294.394 1954.47 294.444 1954.85 294.364 1955.23C294.282 1955.62 294.079 1955.95 293.816 1956.17C293.506 1956.43 293.113 1956.54 292.728 1956.45C292.344 1956.36 292.038 1956.08 291.871 1955.71C291.73 1955.4 291.687 1955.02 291.779 1954.63C291.873 1954.25 292.08 1953.93 292.345 1953.72C292.652 1953.47 293.032 1953.37 293.402 1953.46ZM293.364 1953.63C292.763 1953.49 292.143 1953.96 291.981 1954.68C291.82 1955.39 292.177 1956.09 292.778 1956.23C293.379 1956.37 293.999 1955.9 294.161 1955.19C294.322 1954.47 293.965 1953.77 293.364 1953.63Z" fill="black"/>
<path d="M268.456 2004.93C280.575 2007.75 292.823 1999.33 295.811 1986.11C298.8 1972.89 291.398 1959.89 279.279 1957.06C267.16 1954.23 254.913 1962.65 251.925 1975.87C248.936 1989.09 256.337 2002.1 268.456 2004.93Z" fill="#D8CF82"/>
<path fill-rule="evenodd" clip-rule="evenodd" d="M279.636 1955.48C286.355 1956.98 291.762 1961.39 295.015 1967.26C298.084 1972.8 299.211 1979.64 297.708 1986.56C296.185 1993.5 292.272 1999.23 287.157 2002.95C281.672 2006.93 274.806 2008.58 267.983 2007.01C261.167 2005.4 255.689 2000.88 252.461 1994.86C249.45 1989.25 248.396 1982.35 250.012 1975.43C251.632 1968.54 255.588 1962.88 260.731 1959.26C266.181 1955.42 272.944 1953.84 279.636 1955.48ZM279.277 1957.06C267.167 1954.23 254.91 1962.66 251.923 1975.87C248.936 1989.08 256.344 2002.1 268.454 2004.93C280.565 2007.75 292.822 1999.32 295.809 1986.11C298.796 1972.9 291.388 1959.89 279.277 1957.06Z" fill="black"/>
<path fill-rule="evenodd" clip-rule="evenodd" d="M257.115 1965.45C245.456 1978.73 249.558 2000.01 263.267 2004.79C270.906 2007.45 283.58 2008.67 293.568 1994.13C270.373 2004.44 251.339 1998.13 257.115 1965.45Z" fill="black" fill-opacity="0.3"/>
<path d="M273.455 1971.9C267.917 1970.61 264.548 1964.6 265.928 1958.48C267.309 1952.37 272.917 1948.46 278.454 1949.75C283.992 1951.05 287.361 1957.06 285.981 1963.17C284.6 1969.29 278.992 1973.19 273.455 1971.9Z" fill="white"/>
<path fill-rule="evenodd" clip-rule="evenodd" d="M278.79 1948.26C282.123 1948.97 284.808 1951.16 286.432 1954.09C287.941 1956.81 288.493 1960.17 287.785 1963.59C287.057 1967.04 285.148 1969.9 282.652 1971.76C279.903 1973.82 276.438 1974.65 273.007 1973.87C269.587 1973.05 266.836 1970.75 265.248 1967.69C263.805 1964.9 263.308 1961.49 264.129 1958.06C264.955 1954.68 266.895 1951.89 269.415 1950.11C272.131 1948.2 275.486 1947.42 278.79 1948.26ZM278.451 1949.75C272.918 1948.46 267.306 1952.37 265.926 1958.48C264.546 1964.59 267.918 1970.61 273.452 1971.9C278.985 1973.19 284.598 1969.28 285.977 1963.17C287.357 1957.06 283.985 1951.05 278.451 1949.75Z" fill="black"/>
<path d="M274.91 1961.9C274.308 1961.76 273.952 1961.07 274.114 1960.35C274.276 1959.63 274.895 1959.17 275.496 1959.31C276.098 1959.45 276.455 1960.14 276.293 1960.86C276.131 1961.58 275.512 1962.05 274.91 1961.9Z" fill="black"/>
<path fill-rule="evenodd" clip-rule="evenodd" d="M275.535 1959.14C275.909 1959.22 276.206 1959.48 276.378 1959.84C276.527 1960.14 276.577 1960.52 276.497 1960.91C276.414 1961.3 276.212 1961.62 275.949 1961.84C275.639 1962.1 275.246 1962.21 274.861 1962.13C274.477 1962.03 274.171 1961.76 274.004 1961.39C273.862 1961.07 273.819 1960.69 273.912 1960.3C274.005 1959.92 274.212 1959.6 274.478 1959.39C274.785 1959.15 275.165 1959.05 275.535 1959.14ZM275.497 1959.31C274.896 1959.17 274.276 1959.64 274.114 1960.35C273.953 1961.07 274.309 1961.76 274.911 1961.9C275.512 1962.04 276.132 1961.58 276.293 1960.86C276.455 1960.14 276.098 1959.45 275.497 1959.31Z" fill="black"/>
<path d="M392.302 783.402C396.487 782.424 399.034 777.884 397.991 773.262C396.947 768.64 392.708 765.686 388.523 766.664C384.338 767.642 381.791 772.181 382.835 776.804C383.878 781.426 388.117 784.38 392.302 783.402Z" fill="white"/>
<path fill-rule="evenodd" clip-rule="evenodd" d="M388.27 765.532C390.766 764.897 393.303 765.49 395.355 766.937C397.26 768.28 398.726 770.386 399.351 772.946C399.971 775.532 399.595 778.112 398.505 780.217C397.304 782.536 395.225 784.269 392.64 784.891C390.047 785.484 387.428 784.853 385.35 783.3C383.464 781.89 382.021 779.73 381.471 777.124C380.936 774.541 381.353 771.994 382.493 769.94C383.721 767.727 385.75 766.068 388.27 765.532ZM388.525 766.665C384.343 767.642 381.794 772.185 382.837 776.805C383.88 781.423 388.122 784.38 392.304 783.403C396.486 782.425 399.035 777.882 397.992 773.263C396.95 768.644 392.708 765.688 388.525 766.665Z" fill="black"/>
<path d="M391.208 775.847C391.663 775.741 391.933 775.216 391.81 774.674C391.688 774.132 391.22 773.779 390.765 773.885C390.31 773.991 390.041 774.516 390.163 775.058C390.285 775.6 390.753 775.954 391.208 775.847Z" fill="black"/>
<path fill-rule="evenodd" clip-rule="evenodd" d="M390.735 773.757C391.015 773.686 391.302 773.765 391.534 773.948C391.735 774.107 391.891 774.348 391.962 774.638C392.032 774.93 392 775.22 391.893 775.457C391.766 775.738 391.535 775.945 391.245 776.015C390.954 776.081 390.657 775.998 390.422 775.802C390.224 775.635 390.071 775.389 390.008 775.094C389.948 774.802 389.985 774.516 390.098 774.283C390.228 774.016 390.453 773.817 390.735 773.757ZM390.764 773.885C390.31 773.991 390.04 774.517 390.162 775.058C390.284 775.6 390.753 775.953 391.207 775.847C391.662 775.741 391.931 775.215 391.809 774.673C391.687 774.132 391.219 773.778 390.764 773.885Z" fill="black"/>
<path d="M409.587 812.653C400.427 814.791 391.171 808.424 388.912 798.434C386.653 788.443 392.247 778.612 401.407 776.474C410.567 774.337 419.823 780.703 422.082 790.694C424.341 800.685 418.747 810.516 409.587 812.653Z" fill="#D8CF82"/>
<path fill-rule="evenodd" clip-rule="evenodd" d="M401.138 775.277C406.196 774.045 411.307 775.235 415.427 778.137C419.314 780.875 422.304 785.152 423.529 790.358C424.75 795.593 423.954 800.808 421.678 805.047C419.238 809.594 415.098 813.014 409.945 814.229C404.788 815.414 399.599 814.166 395.453 811.157C391.587 808.351 388.63 804.018 387.479 798.769C386.343 793.544 387.195 788.372 389.514 784.186C391.973 779.75 396.059 776.411 401.138 775.277ZM401.409 776.475C392.256 778.611 386.657 788.45 388.914 798.434C391.172 808.418 400.436 814.79 409.589 812.654C418.743 810.518 424.341 800.678 422.084 790.695C419.827 780.71 410.563 774.339 401.409 776.475Z" fill="black"/>
<path fill-rule="evenodd" clip-rule="evenodd" d="M391.839 782.496C383.122 792.586 387.723 808.336 397.923 811.922C403.607 813.922 412.964 815.711 420.44 804.674C403.137 812.539 387.457 807.268 391.839 782.496Z" fill="black" fill-opacity="0.3"/>
<path d="M405.806 787.692C409.991 786.714 412.538 782.174 411.495 777.552C410.451 772.93 406.212 769.976 402.027 770.954C397.842 771.932 395.295 776.472 396.339 781.094C397.382 785.716 401.621 788.67 405.806 787.692Z" fill="white"/>
<path fill-rule="evenodd" clip-rule="evenodd" d="M401.774 769.822C404.27 769.187 406.807 769.78 408.859 771.227C410.764 772.57 412.23 774.676 412.855 777.236C413.475 779.822 413.099 782.402 412.009 784.507C410.808 786.826 408.729 788.559 406.144 789.181C403.551 789.774 400.932 789.143 398.854 787.59C396.968 786.18 395.525 784.02 394.975 781.414C394.44 778.831 394.857 776.284 395.997 774.23C397.225 772.017 399.254 770.358 401.774 769.822ZM402.029 770.955C397.847 771.932 395.298 776.475 396.341 781.095C397.384 785.713 401.626 788.67 405.808 787.693C409.99 786.715 412.539 782.172 411.496 777.553C410.453 772.934 406.212 769.978 402.029 770.955Z" fill="black"/>
<path d="M404.712 780.137C405.167 780.031 405.436 779.506 405.314 778.964C405.192 778.422 404.724 778.069 404.269 778.175C403.814 778.281 403.545 778.807 403.667 779.348C403.789 779.89 404.257 780.244 404.712 780.137Z" fill="black"/>
<path fill-rule="evenodd" clip-rule="evenodd" d="M404.239 778.047C404.519 777.976 404.806 778.055 405.038 778.238C405.239 778.397 405.395 778.638 405.466 778.928C405.536 779.22 405.503 779.51 405.397 779.747C405.27 780.028 405.039 780.235 404.749 780.305C404.458 780.371 404.16 780.288 403.926 780.092C403.728 779.925 403.574 779.679 403.512 779.384C403.452 779.092 403.489 778.806 403.602 778.573C403.732 778.306 403.957 778.107 404.239 778.047ZM404.268 778.175C403.813 778.281 403.544 778.807 403.666 779.348C403.788 779.89 404.257 780.243 404.711 780.137C405.166 780.031 405.435 779.505 405.313 778.964C405.191 778.422 404.722 778.069 404.268 778.175Z" fill="black"/>
<path d="M351.241 744.651C347.056 743.673 344.509 739.133 345.552 734.511C346.596 729.889 350.835 726.935 355.02 727.913C359.205 728.891 361.752 733.431 360.708 738.053C359.665 742.675 355.426 745.629 351.241 744.651Z" fill="white"/>
<path fill-rule="evenodd" clip-rule="evenodd" d="M355.273 726.781C357.793 727.317 359.822 728.976 361.05 731.189C362.19 733.243 362.607 735.79 362.072 738.373C361.522 740.979 360.079 743.139 358.193 744.549C356.115 746.102 353.496 746.733 350.903 746.14C348.318 745.518 346.239 743.785 345.038 741.466C343.948 739.361 343.572 736.781 344.192 734.195C344.817 731.635 346.283 729.529 348.188 728.186C350.24 726.739 352.777 726.146 355.273 726.781ZM355.018 727.914C350.835 726.937 346.593 729.893 345.551 734.512C344.508 739.131 347.057 743.674 351.239 744.652C355.421 745.629 359.663 742.672 360.706 738.054C361.749 733.434 359.2 728.891 355.018 727.914Z" fill="black"/>
<path d="M352.335 737.096C351.88 736.99 351.61 736.465 351.733 735.923C351.855 735.381 352.323 735.028 352.778 735.134C353.233 735.24 353.502 735.765 353.38 736.307C353.258 736.849 352.79 737.203 352.335 737.096Z" fill="black"/>
<path fill-rule="evenodd" clip-rule="evenodd" d="M352.808 735.006C353.09 735.066 353.315 735.265 353.445 735.532C353.558 735.765 353.595 736.051 353.535 736.343C353.472 736.638 353.319 736.884 353.121 737.051C352.886 737.247 352.589 737.33 352.298 737.264C352.008 737.194 351.777 736.987 351.65 736.706C351.543 736.469 351.511 736.179 351.581 735.887C351.652 735.597 351.808 735.356 352.009 735.197C352.241 735.014 352.528 734.935 352.808 735.006ZM352.779 735.134C352.324 735.027 351.856 735.381 351.734 735.922C351.612 736.464 351.881 736.99 352.336 737.096C352.79 737.202 353.259 736.849 353.381 736.307C353.503 735.766 353.233 735.24 352.779 735.134Z" fill="black"/>
<path d="M330.488 773.095C341.563 775.678 352.371 769.677 354.629 759.69C356.887 749.703 349.74 739.512 338.665 736.928C327.591 734.344 316.783 740.345 314.525 750.332C312.266 760.32 319.414 770.511 330.488 773.095Z" fill="#FF7418"/>
<path fill-rule="evenodd" clip-rule="evenodd" d="M338.968 735.581C344.678 736.855 349.423 740.051 352.554 744.198C355.983 748.739 357.464 754.428 356.24 760.066C354.997 765.734 351.243 770.263 346.215 772.917C341.586 775.359 335.869 776.193 330.086 774.864C324.309 773.501 319.516 770.222 316.397 765.972C313.009 761.354 311.58 755.608 312.9 749.954C314.223 744.335 318.001 739.874 323.04 737.308C327.64 734.965 333.282 734.195 338.968 735.581ZM338.664 736.927C327.596 734.345 316.779 740.351 314.522 750.332C312.266 760.312 319.419 770.513 330.486 773.095C341.553 775.677 352.371 769.67 354.627 759.69C356.884 749.708 349.731 739.51 338.664 736.927Z" fill="black"/>
<path fill-rule="evenodd" clip-rule="evenodd" d="M319.59 741.195C309.001 752.271 313.719 768.468 326.167 772.457C333.103 774.679 343.615 777.242 352.687 765.12C335.505 779.255 314.341 768.452 319.59 741.195Z" fill="black" fill-opacity="0.3"/>
<path d="M337.733 748.941C333.548 747.963 331.001 743.423 332.045 738.801C333.088 734.179 337.327 731.225 341.512 732.203C345.697 733.181 348.244 737.721 347.2 742.343C346.157 746.965 341.918 749.919 337.733 748.941Z" fill="white"/>
<path fill-rule="evenodd" clip-rule="evenodd" d="M341.765 731.072C344.285 731.607 346.314 733.266 347.542 735.479C348.682 737.533 349.099 740.08 348.564 742.663C348.014 745.269 346.571 747.429 344.685 748.839C342.607 750.392 339.988 751.023 337.395 750.43C334.81 749.808 332.731 748.075 331.53 745.756C330.44 743.651 330.064 741.071 330.684 738.485C331.309 735.925 332.775 733.819 334.68 732.476C336.732 731.029 339.269 730.436 341.765 731.072ZM341.51 732.204C337.328 731.227 333.086 734.183 332.043 738.802C331 743.421 333.549 747.964 337.731 748.942C341.913 749.919 346.155 746.962 347.198 742.344C348.241 737.724 345.692 733.181 341.51 732.204Z" fill="black"/>
<path d="M338.827 741.386C338.372 741.28 338.103 740.755 338.225 740.213C338.347 739.671 338.815 739.318 339.27 739.424C339.725 739.53 339.995 740.056 339.872 740.597C339.75 741.139 339.282 741.493 338.827 741.386Z" fill="black"/>
<path fill-rule="evenodd" clip-rule="evenodd" d="M339.3 739.296C339.582 739.356 339.807 739.555 339.937 739.822C340.05 740.055 340.087 740.341 340.027 740.633C339.965 740.928 339.811 741.174 339.613 741.341C339.379 741.537 339.081 741.62 338.79 741.554C338.5 741.484 338.269 741.277 338.143 740.996C338.036 740.759 338.003 740.469 338.073 740.177C338.144 739.887 338.3 739.646 338.501 739.487C338.733 739.304 339.02 739.225 339.3 739.296ZM339.271 739.424C338.817 739.318 338.348 739.671 338.226 740.213C338.104 740.754 338.373 741.28 338.828 741.386C339.282 741.492 339.751 741.139 339.873 740.597C339.995 740.056 339.726 739.53 339.271 739.424Z" fill="black"/>
<path d="M1543.83 320.903C1539.65 319.925 1537.1 315.385 1538.15 310.763C1539.19 306.141 1543.43 303.187 1547.61 304.165C1551.8 305.143 1554.35 309.682 1553.3 314.305C1552.26 318.927 1548.02 321.881 1543.83 320.903Z" fill="white"/>
<path fill-rule="evenodd" clip-rule="evenodd" d="M1547.87 303.033C1550.39 303.569 1552.42 305.228 1553.64 307.441C1554.78 309.495 1555.2 312.042 1554.67 314.625C1554.12 317.231 1552.67 319.391 1550.79 320.801C1548.71 322.354 1546.09 322.985 1543.5 322.392C1540.91 321.77 1538.83 320.037 1537.63 317.718C1536.54 315.613 1536.17 313.033 1536.79 310.447C1537.41 307.887 1538.88 305.781 1540.78 304.438C1542.83 302.991 1545.37 302.398 1547.87 303.033ZM1547.61 304.166C1543.43 303.189 1539.19 306.145 1538.14 310.764C1537.1 315.383 1539.65 319.926 1543.83 320.904C1548.01 321.881 1552.26 318.924 1553.3 314.306C1554.34 309.686 1551.79 305.143 1547.61 304.166Z" fill="black"/>
<path d="M1544.93 313.348C1544.47 313.242 1544.2 312.717 1544.33 312.175C1544.45 311.633 1544.92 311.28 1545.37 311.386C1545.83 311.492 1546.1 312.017 1545.97 312.559C1545.85 313.101 1545.38 313.454 1544.93 313.348Z" fill="black"/>
<path fill-rule="evenodd" clip-rule="evenodd" d="M1545.4 311.258C1545.68 311.318 1545.91 311.517 1546.04 311.784C1546.15 312.017 1546.19 312.303 1546.13 312.595C1546.07 312.89 1545.91 313.136 1545.71 313.303C1545.48 313.499 1545.18 313.582 1544.89 313.516C1544.6 313.446 1544.37 313.239 1544.24 312.958C1544.14 312.721 1544.1 312.431 1544.17 312.139C1544.25 311.849 1544.4 311.608 1544.6 311.449C1544.83 311.266 1545.12 311.187 1545.4 311.258ZM1545.37 311.386C1544.92 311.279 1544.45 311.633 1544.33 312.174C1544.21 312.716 1544.48 313.242 1544.93 313.348C1545.38 313.454 1545.85 313.101 1545.97 312.559C1546.1 312.018 1545.83 311.492 1545.37 311.386Z" fill="black"/>
<path d="M1527.81 342.441C1537.22 344.637 1546.3 340.02 1548.08 332.13C1549.87 324.24 1543.68 316.064 1534.27 313.868C1524.86 311.672 1515.79 316.289 1514 324.179C1512.22 332.069 1518.4 340.246 1527.81 342.441Z" fill="#91614C"/>
<path fill-rule="evenodd" clip-rule="evenodd" d="M1534.53 312.751C1539.24 313.803 1543.2 316.292 1545.9 319.49C1549.01 323.196 1550.42 327.862 1549.42 332.443C1548.41 337.049 1545.16 340.683 1540.77 342.711C1536.94 344.473 1532.25 345.005 1527.48 343.91C1522.71 342.785 1518.71 340.231 1516.03 336.95C1512.95 333.176 1511.58 328.46 1512.66 323.865C1513.73 319.3 1517 315.723 1521.4 313.771C1525.2 312.086 1529.83 311.605 1534.53 312.751ZM1534.27 313.868C1524.87 311.674 1515.79 316.293 1514 324.179C1512.22 332.064 1518.41 340.248 1527.81 342.442C1537.22 344.636 1546.3 340.015 1548.08 332.131C1549.87 324.245 1543.68 316.062 1534.27 313.868Z" fill="black"/>
<path fill-rule="evenodd" clip-rule="evenodd" d="M1518.74 315.735C1509.29 325.059 1512.96 339.02 1524.07 342.38C1530.26 344.251 1540.18 346.087 1548.27 335.881C1531.95 345.14 1511.17 336.453 1518.74 315.735Z" fill="black" fill-opacity="0.3"/>
<path d="M1530.33 325.193C1526.15 324.215 1523.6 319.675 1524.64 315.053C1525.69 310.431 1529.92 307.477 1534.11 308.455C1538.29 309.433 1540.84 313.973 1539.8 318.595C1538.75 323.217 1534.52 326.171 1530.33 325.193Z" fill="white"/>
<path fill-rule="evenodd" clip-rule="evenodd" d="M1534.36 307.323C1536.88 307.859 1538.91 309.518 1540.14 311.731C1541.28 313.785 1541.7 316.332 1541.16 318.915C1540.61 321.521 1539.17 323.681 1537.28 325.091C1535.2 326.644 1532.59 327.275 1529.99 326.682C1527.41 326.06 1525.33 324.327 1524.13 322.008C1523.04 319.903 1522.66 317.323 1523.28 314.737C1523.91 312.177 1525.37 310.071 1527.28 308.728C1529.33 307.281 1531.87 306.688 1534.36 307.323ZM1534.11 308.456C1529.93 307.479 1525.68 310.435 1524.64 315.054C1523.6 319.673 1526.15 324.216 1530.33 325.194C1534.51 326.171 1538.75 323.214 1539.8 318.596C1540.84 313.976 1538.29 309.433 1534.11 308.456Z" fill="black"/>
<path d="M1531.42 317.638C1530.97 317.532 1530.7 317.007 1530.82 316.465C1530.95 315.923 1531.41 315.57 1531.87 315.676C1532.32 315.782 1532.59 316.307 1532.47 316.849C1532.35 317.391 1531.88 317.745 1531.42 317.638Z" fill="black"/>
<path fill-rule="evenodd" clip-rule="evenodd" d="M1531.9 315.548C1532.18 315.608 1532.4 315.807 1532.53 316.074C1532.65 316.307 1532.68 316.593 1532.62 316.885C1532.56 317.18 1532.41 317.426 1532.21 317.593C1531.98 317.789 1531.68 317.872 1531.39 317.806C1531.1 317.736 1530.87 317.529 1530.74 317.248C1530.63 317.011 1530.6 316.721 1530.67 316.429C1530.74 316.139 1530.9 315.898 1531.1 315.739C1531.33 315.556 1531.62 315.477 1531.9 315.548ZM1531.87 315.676C1531.41 315.569 1530.95 315.923 1530.82 316.464C1530.7 317.006 1530.97 317.532 1531.43 317.638C1531.88 317.744 1532.35 317.391 1532.47 316.849C1532.59 316.308 1532.32 315.782 1531.87 315.676Z" fill="black"/>
<path fill-rule="evenodd" clip-rule="evenodd" d="M400.212 1296.58C422.738 1315.33 437.118 1343.78 437.118 1375.61C437.118 1432 391.963 1477.79 336.344 1477.79C280.726 1477.79 235.57 1432 235.57 1375.61C235.57 1336.68 257.075 1302.82 288.684 1285.56C279.987 1279.11 274.351 1268.8 274.351 1257.18C274.351 1237.65 290.297 1221.79 309.938 1221.79C329.579 1221.79 345.524 1237.65 345.524 1257.18C345.524 1257.44 345.521 1257.7 345.515 1257.96C351.304 1253.9 358.362 1251.52 365.975 1251.52C385.615 1251.52 401.561 1267.37 401.561 1286.91C401.561 1290.26 401.091 1293.51 400.212 1296.58Z" fill="black" fill-opacity="0.3"/>
<path d="M353.105 1096.49C373.52 1096.49 390.07 1078 390.07 1055.2C390.07 1032.4 373.52 1013.91 353.105 1013.91C332.69 1013.91 316.141 1032.4 316.141 1055.2C316.141 1078 332.69 1096.49 353.105 1096.49Z" fill="white"/>
<path fill-rule="evenodd" clip-rule="evenodd" d="M353.107 1008.34C365.371 1008.1 376.531 1013.68 384.538 1022.75C391.928 1031.11 396.499 1042.56 396.715 1055.2C396.882 1067.96 392.464 1079.61 385.245 1088.27C377.246 1097.86 365.768 1103.72 353.107 1103.81C340.436 1103.75 328.93 1097.9 320.92 1088.31C313.687 1079.65 309.281 1067.98 309.458 1055.2C309.682 1042.55 314.26 1031.1 321.66 1022.73C329.675 1013.67 340.839 1008.09 353.107 1008.34ZM353.107 1013.91C332.705 1013.91 316.142 1032.41 316.142 1055.2C316.142 1077.99 332.705 1096.49 353.107 1096.49C373.508 1096.49 390.071 1077.99 390.071 1055.2C390.071 1032.41 373.508 1013.91 353.107 1013.91Z" fill="black"/>
<path d="M355.931 1059.88C358.149 1059.88 359.947 1057.71 359.947 1055.04C359.947 1052.36 358.149 1050.2 355.931 1050.2C353.712 1050.2 351.914 1052.36 351.914 1055.04C351.914 1057.71 353.712 1059.88 355.931 1059.88Z" fill="black"/>
<path fill-rule="evenodd" clip-rule="evenodd" d="M355.929 1049.57C357.304 1049.54 358.555 1050.23 359.437 1051.35C360.198 1052.31 360.669 1053.61 360.693 1055.04C360.712 1056.48 360.261 1057.8 359.521 1058.79C358.641 1059.97 357.351 1060.69 355.929 1060.7C354.507 1060.69 353.213 1059.98 352.332 1058.8C351.591 1057.8 351.141 1056.48 351.161 1055.04C351.186 1053.61 351.657 1052.31 352.42 1051.35C353.302 1050.23 354.555 1049.54 355.929 1049.57ZM355.929 1050.2C353.713 1050.2 351.913 1052.37 351.913 1055.04C351.913 1057.71 353.713 1059.88 355.929 1059.88C358.146 1059.88 359.946 1057.71 359.946 1055.04C359.946 1052.37 358.146 1050.2 355.929 1050.2Z" fill="black"/>
<path d="M380.538 1312.59C438.35 1312.59 485.216 1259.22 485.216 1193.37C485.216 1127.52 438.35 1074.14 380.538 1074.14C322.725 1074.14 275.859 1127.52 275.859 1193.37C275.859 1259.22 322.725 1312.59 380.538 1312.59Z" fill="#42AB84"/>
<path fill-rule="evenodd" clip-rule="evenodd" d="M380.538 1066.41C412.984 1066.11 442.41 1081.41 463.266 1106.19C482.354 1128.86 494.155 1159.54 494.435 1193.37C494.651 1227.36 483.128 1258.33 464.259 1281.39C443.39 1306.88 413.544 1322.64 380.538 1322.75C347.519 1322.67 317.634 1306.93 296.749 1281.44C277.863 1258.39 266.356 1227.38 266.585 1193.37C266.876 1159.53 278.688 1128.84 297.789 1106.17C318.655 1081.39 348.088 1066.09 380.538 1066.41ZM380.538 1074.14C322.764 1074.14 275.859 1127.56 275.859 1193.37C275.859 1259.17 322.764 1312.6 380.538 1312.6C438.311 1312.6 485.216 1259.17 485.216 1193.37C485.216 1127.56 438.311 1074.14 380.538 1074.14Z" fill="black"/>
<path d="M411.316 1131.17C431.731 1131.17 448.281 1112.68 448.281 1089.88C448.281 1067.08 431.731 1048.59 411.316 1048.59C390.901 1048.59 374.352 1067.08 374.352 1089.88C374.352 1112.68 390.901 1131.17 411.316 1131.17Z" fill="white"/>
<path fill-rule="evenodd" clip-rule="evenodd" d="M411.317 1043.02C423.582 1042.78 434.742 1048.36 442.749 1057.43C450.138 1065.79 454.71 1077.24 454.926 1089.88C455.093 1102.64 450.675 1114.29 443.456 1122.95C435.457 1132.54 423.979 1138.4 411.317 1138.49C398.646 1138.43 387.141 1132.58 379.131 1122.99C371.898 1114.33 367.492 1102.66 367.669 1089.88C367.893 1077.23 372.471 1065.78 379.871 1057.41C387.886 1048.35 399.05 1042.77 411.317 1043.02ZM411.317 1048.59C390.916 1048.59 374.353 1067.09 374.353 1089.88C374.353 1112.67 390.916 1131.17 411.317 1131.17C431.719 1131.17 448.282 1112.67 448.282 1089.88C448.282 1067.09 431.719 1048.59 411.317 1048.59Z" fill="black"/>
<path d="M414.141 1094.56C416.36 1094.56 418.158 1092.39 418.158 1089.72C418.158 1087.04 416.36 1084.88 414.141 1084.88C411.923 1084.88 410.125 1087.04 410.125 1089.72C410.125 1092.39 411.923 1094.56 414.141 1094.56Z" fill="black"/>
<path fill-rule="evenodd" clip-rule="evenodd" d="M414.14 1084.25C415.515 1084.22 416.766 1084.91 417.648 1086.03C418.409 1086.99 418.88 1088.29 418.904 1089.72C418.923 1091.16 418.472 1092.48 417.731 1093.47C416.852 1094.65 415.562 1095.37 414.14 1095.38C412.718 1095.37 411.424 1094.66 410.543 1093.48C409.802 1092.48 409.352 1091.16 409.372 1089.72C409.397 1088.29 409.868 1086.99 410.631 1086.03C411.513 1084.91 412.766 1084.22 414.14 1084.25ZM414.14 1084.88C411.924 1084.88 410.124 1087.05 410.124 1089.72C410.124 1092.39 411.924 1094.56 414.14 1094.56C416.357 1094.56 418.157 1092.39 418.157 1089.72C418.157 1087.05 416.357 1084.88 414.14 1084.88Z" fill="black"/>
<path fill-rule="evenodd" clip-rule="evenodd" d="M305.855 1106.24C252.632 1173.6 272.786 1281.68 335.215 1305.77C370.004 1319.2 426.07 1332.93 471.74 1251.18C369.627 1281.73 282.604 1252 305.855 1106.24Z" fill="black" fill-opacity="0.3"/>
<path fill-rule="evenodd" clip-rule="evenodd" d="M1831.21 323.011C1882.62 347.384 1914.34 392.264 1906.16 436.242C1895.75 492.224 1824.6 525.691 1747.38 510.931C1670.16 496.171 1615.92 438.738 1626.33 382.756C1633.04 346.673 1664.97 319.941 1707.5 309.453C1701.79 300.908 1699.27 290.049 1701.34 278.963C1705.4 257.089 1725.76 242.592 1746.76 246.607C1767.77 250.621 1781.52 271.637 1777.45 293.511C1777.4 293.8 1777.34 294.089 1777.28 294.377C1784.32 291.017 1792.36 289.788 1800.5 291.345C1816.51 294.404 1828.3 307.346 1831.21 323.011Z" fill="black" fill-opacity="0.3"/>
<path d="M1846.74 170.037C1871.64 174.823 1895.85 156.923 1900.82 130.057C1905.79 103.191 1889.63 77.5326 1864.73 72.7467C1839.83 67.9608 1815.62 85.8602 1810.65 112.726C1805.68 139.592 1821.84 165.251 1846.74 170.037Z" fill="white"/>
<path fill-rule="evenodd" clip-rule="evenodd" d="M1865.96 66.0776C1880.79 68.6283 1893.04 77.6551 1900.82 89.9893C1908.19 101.678 1911.35 116.436 1908.82 131.597C1906.2 146.892 1898.11 159.743 1887.2 168.291C1875.44 177.504 1860.37 181.632 1845.11 178.81C1829.87 175.805 1817.28 166.378 1809.61 153.431C1802.48 141.41 1799.56 126.415 1802.6 111.182C1805.66 96.1116 1813.89 83.5399 1824.94 75.3878C1836.6 66.7917 1851.24 62.9412 1865.96 66.0776ZM1864.73 72.7501C1839.84 67.9675 1815.61 85.8796 1810.65 112.729C1805.68 139.574 1821.85 165.256 1846.73 170.038C1871.62 174.821 1895.85 156.905 1900.82 130.06C1905.78 103.21 1889.61 77.5326 1864.73 72.7501Z" fill="black"/>
<path d="M1858.15 127.555C1860.86 128.075 1863.52 125.943 1864.1 122.793C1864.69 119.643 1862.97 116.668 1860.26 116.148C1857.55 115.628 1854.89 117.76 1854.3 120.91C1853.72 124.06 1855.44 127.035 1858.15 127.555Z" fill="black"/>
<path fill-rule="evenodd" clip-rule="evenodd" d="M1860.4 115.398C1862.06 115.684 1863.42 116.768 1864.25 118.265C1864.99 119.591 1865.29 121.252 1865 122.966C1864.71 124.694 1863.85 126.16 1862.71 127.164C1861.39 128.324 1859.68 128.858 1857.97 128.541C1856.26 128.203 1854.85 127.074 1854.04 125.502C1853.33 124.143 1853.06 122.457 1853.4 120.736C1853.75 119.032 1854.62 117.596 1855.78 116.635C1857.09 115.55 1858.75 115.046 1860.4 115.398ZM1860.26 116.148C1857.56 115.628 1854.89 117.762 1854.31 120.91C1853.72 124.057 1855.45 127.035 1858.15 127.555C1860.85 128.075 1863.52 125.941 1864.1 122.793C1864.69 119.645 1862.96 116.668 1860.26 116.148Z" fill="black"/>
<path d="M1863.2 397.047C1954.65 414.583 2039.12 373.062 2051.86 304.307C2064.61 235.552 2000.81 165.6 1909.36 148.063C1817.91 130.527 1733.45 172.048 1720.7 240.803C1707.95 309.558 1771.76 379.51 1863.2 397.047Z" fill="#7ED3F1"/>
<path fill-rule="evenodd" clip-rule="evenodd" d="M1911.31 137.541C1965.26 147.348 2010.19 174.747 2037.36 209.428C2060.13 238.496 2070.46 272.745 2064.47 306.729C2058.37 340.88 2036.64 369.342 2005.13 388.542C1967.31 411.594 1915.15 421.112 1860.64 410.884C1806.18 400.273 1760.93 372.146 1733.94 336.656C1711.45 307.082 1701.43 272.471 1708.02 238.375C1714.6 204.485 1736.5 176.376 1768.13 157.741C1805.87 135.507 1857.54 126.652 1911.31 137.541ZM1909.36 148.061C1817.97 130.536 1733.43 172.089 1720.69 240.806C1707.96 309.514 1771.81 379.532 1863.2 397.057C1954.59 414.583 2039.13 373.02 2051.87 304.312C2064.6 235.595 2000.75 165.586 1909.36 148.061Z" fill="black"/>
<path d="M1909.89 224.456C1934.79 229.242 1959.01 211.342 1963.98 184.476C1968.94 157.61 1952.79 131.952 1927.88 127.166C1902.98 122.38 1878.77 140.279 1873.8 167.145C1868.83 194.011 1884.99 219.67 1909.89 224.456Z" fill="white"/>
<path fill-rule="evenodd" clip-rule="evenodd" d="M1929.11 120.497C1943.94 123.047 1956.19 132.074 1963.97 144.408C1971.34 156.097 1974.5 170.855 1971.97 186.016C1969.35 201.31 1961.26 214.162 1950.35 222.71C1938.6 231.923 1923.53 236.051 1908.26 233.229C1893.03 230.224 1880.43 220.797 1872.76 207.85C1865.64 195.829 1862.71 180.834 1865.75 165.601C1868.82 150.531 1877.04 137.959 1888.1 129.807C1899.75 121.211 1914.39 117.36 1929.11 120.497ZM1927.88 127.169C1903 122.386 1878.76 140.299 1873.8 167.148C1868.83 193.993 1885 219.675 1909.89 224.457C1934.77 229.24 1959 211.324 1963.97 184.478C1968.94 157.629 1952.76 131.952 1927.88 127.169Z" fill="black"/>
<path d="M1921.3 181.974C1924.01 182.494 1926.67 180.362 1927.26 177.212C1927.84 174.062 1926.12 171.087 1923.41 170.567C1920.71 170.047 1918.04 172.179 1917.46 175.329C1916.87 178.479 1918.6 181.454 1921.3 181.974Z" fill="black"/>
<path fill-rule="evenodd" clip-rule="evenodd" d="M1923.55 169.817C1925.21 170.103 1926.58 171.187 1927.41 172.684C1928.14 174.01 1928.44 175.671 1928.16 177.385C1927.86 179.113 1927 180.579 1925.86 181.583C1924.54 182.743 1922.83 183.277 1921.12 182.96C1919.41 182.622 1918 181.492 1917.19 179.921C1916.48 178.562 1916.21 176.876 1916.55 175.155C1916.9 173.451 1917.77 172.015 1918.93 171.054C1920.24 169.969 1921.9 169.465 1923.55 169.817ZM1923.41 170.567C1920.71 170.047 1918.04 172.181 1917.46 175.329C1916.88 178.476 1918.6 181.454 1921.3 181.974C1924.01 182.494 1926.67 180.36 1927.26 177.212C1927.84 174.064 1926.12 171.087 1923.41 170.567Z" fill="black"/>
<path fill-rule="evenodd" clip-rule="evenodd" d="M1762.54 171.657C1670.7 246.833 1726.13 365.757 1833.86 392.642C1893.89 407.631 1974.97 408.334 2030.2 351.416C1853.99 385.5 1725.7 313.415 1762.54 171.657Z" fill="black" fill-opacity="0.3"/>
<path fill-rule="evenodd" clip-rule="evenodd" d="M1085.69 2214.59C1122.61 2232.03 1145.41 2264.1 1139.57 2295.49C1132.14 2335.46 1081.09 2359.3 1025.65 2348.7C970.203 2338.11 931.222 2297.06 938.655 2257.09C943.446 2231.33 966.351 2212.27 996.872 2204.81C992.765 2198.71 990.952 2190.95 992.424 2183.04C995.328 2167.42 1009.93 2157.08 1025.01 2159.97C1040.09 2162.85 1049.98 2177.87 1047.07 2193.48C1047.04 2193.69 1046.99 2193.89 1046.95 2194.1C1052 2191.71 1057.77 2190.83 1063.62 2191.95C1075.11 2194.15 1083.59 2203.4 1085.69 2214.59Z" fill="black" fill-opacity="0.3"/>
<path d="M1139.28 2142.89C1154.83 2145.88 1169.95 2134.7 1173.05 2117.93C1176.15 2101.15 1166.06 2085.13 1150.51 2082.14C1134.96 2079.15 1119.84 2090.33 1116.74 2107.11C1113.64 2123.88 1123.73 2139.9 1139.28 2142.89Z" fill="white"/>
<path fill-rule="evenodd" clip-rule="evenodd" d="M1151.28 2077.98C1160.54 2079.57 1168.19 2085.21 1173.05 2092.91C1177.65 2100.21 1179.62 2109.42 1178.04 2118.89C1176.41 2128.44 1171.35 2136.47 1164.54 2141.8C1157.2 2147.56 1147.79 2150.13 1138.26 2148.37C1128.75 2146.49 1120.88 2140.61 1116.09 2132.52C1111.65 2125.02 1109.82 2115.65 1111.72 2106.14C1113.63 2096.73 1118.77 2088.88 1125.67 2083.79C1132.95 2078.43 1142.09 2076.02 1151.28 2077.98ZM1150.51 2082.15C1134.97 2079.16 1119.84 2090.34 1116.74 2107.11C1113.64 2123.87 1123.74 2139.91 1139.28 2142.89C1154.81 2145.88 1169.95 2134.69 1173.05 2117.93C1176.15 2101.17 1166.05 2085.13 1150.51 2082.15Z" fill="black"/>
<path d="M1146.41 2116.37C1148.1 2116.69 1149.76 2115.36 1150.12 2113.39C1150.49 2111.43 1149.41 2109.57 1147.72 2109.24C1146.03 2108.92 1144.37 2110.25 1144.01 2112.22C1143.64 2114.18 1144.72 2116.04 1146.41 2116.37Z" fill="black"/>
<path fill-rule="evenodd" clip-rule="evenodd" d="M1147.81 2108.78C1148.85 2108.95 1149.7 2109.63 1150.22 2110.57C1150.68 2111.39 1150.86 2112.43 1150.68 2113.5C1150.5 2114.58 1149.96 2115.5 1149.25 2116.12C1148.43 2116.85 1147.36 2117.18 1146.29 2116.98C1145.22 2116.77 1144.34 2116.07 1143.83 2115.08C1143.39 2114.24 1143.22 2113.18 1143.44 2112.11C1143.65 2111.04 1144.2 2110.15 1144.93 2109.55C1145.74 2108.87 1146.78 2108.56 1147.81 2108.78ZM1147.72 2109.24C1146.03 2108.92 1144.37 2110.25 1144 2112.22C1143.64 2114.18 1144.72 2116.04 1146.4 2116.37C1148.09 2116.69 1149.76 2115.36 1150.12 2113.39C1150.49 2111.43 1149.41 2109.57 1147.72 2109.24Z" fill="black"/>
<path d="M1149.56 2284.64C1206.66 2295.59 1259.4 2269.66 1267.36 2226.73C1275.32 2183.8 1235.48 2140.12 1178.38 2129.17C1121.28 2118.22 1068.54 2144.15 1060.58 2187.08C1052.62 2230.01 1092.46 2273.69 1149.56 2284.64Z" fill="#7ED3F1"/>
<path fill-rule="evenodd" clip-rule="evenodd" d="M1179.6 2122.6C1213.29 2128.72 1241.34 2145.83 1258.31 2167.49C1272.52 2185.64 1278.98 2207.03 1275.23 2228.25C1271.43 2249.57 1257.85 2267.34 1238.18 2279.33C1214.57 2293.73 1182 2299.67 1147.96 2293.28C1113.95 2286.66 1085.7 2269.09 1068.85 2246.93C1054.8 2228.47 1048.54 2206.85 1052.66 2185.56C1056.77 2164.4 1070.44 2146.85 1090.19 2135.21C1113.76 2121.33 1146.03 2115.8 1179.6 2122.6ZM1178.38 2129.17C1121.31 2118.23 1068.53 2144.17 1060.57 2187.08C1052.62 2229.98 1092.49 2273.7 1149.56 2284.65C1206.62 2295.59 1259.41 2269.64 1267.36 2226.74C1275.32 2183.83 1235.44 2140.11 1178.38 2129.17Z" fill="black"/>
<path fill-rule="evenodd" clip-rule="evenodd" d="M1084.39 2148.97C1029.2 2195.04 1065.81 2266.4 1130.65 2283C1166.78 2292.24 1227.75 2291.93 1253.87 2256.73C1155.67 2296.85 1060.39 2248.79 1084.39 2148.97Z" fill="black" fill-opacity="0.3"/>
<path d="M1178.71 2176.87C1194.26 2179.86 1209.38 2168.69 1212.48 2151.91C1215.58 2135.13 1205.5 2119.11 1189.95 2116.12C1174.4 2113.14 1159.28 2124.31 1156.18 2141.09C1153.07 2157.86 1163.16 2173.89 1178.71 2176.87Z" fill="white"/>
<path fill-rule="evenodd" clip-rule="evenodd" d="M1190.72 2111.96C1199.97 2113.55 1207.62 2119.19 1212.48 2126.89C1217.08 2134.19 1219.06 2143.4 1217.47 2152.87C1215.84 2162.42 1210.79 2170.45 1203.98 2175.78C1196.64 2181.54 1187.23 2184.11 1177.7 2182.35C1168.18 2180.48 1160.32 2174.59 1155.53 2166.5C1151.08 2159 1149.25 2149.64 1151.15 2140.12C1153.06 2130.71 1158.2 2122.86 1165.1 2117.77C1172.38 2112.41 1181.52 2110 1190.72 2111.96ZM1189.94 2116.13C1174.41 2113.14 1159.28 2124.32 1156.17 2141.09C1153.07 2157.85 1163.17 2173.89 1178.71 2176.87C1194.25 2179.86 1209.38 2168.67 1212.48 2151.91C1215.58 2135.15 1205.48 2119.11 1189.94 2116.13Z" fill="black"/>
<path d="M1185.84 2150.35C1187.53 2150.67 1189.19 2149.34 1189.56 2147.37C1189.92 2145.41 1188.85 2143.55 1187.16 2143.22C1185.47 2142.9 1183.8 2144.23 1183.44 2146.2C1183.08 2148.17 1184.15 2150.02 1185.84 2150.35Z" fill="black"/>
<path fill-rule="evenodd" clip-rule="evenodd" d="M1187.24 2142.76C1188.28 2142.93 1189.13 2143.61 1189.65 2144.55C1190.11 2145.37 1190.3 2146.41 1190.12 2147.48C1189.93 2148.56 1189.4 2149.48 1188.69 2150.1C1187.86 2150.83 1186.79 2151.16 1185.72 2150.96C1184.65 2150.75 1183.78 2150.05 1183.27 2149.07C1182.83 2148.22 1182.66 2147.16 1182.87 2146.09C1183.09 2145.03 1183.63 2144.13 1184.36 2143.53C1185.18 2142.85 1186.21 2142.54 1187.24 2142.76ZM1187.16 2143.22C1185.47 2142.9 1183.8 2144.23 1183.44 2146.2C1183.07 2148.16 1184.15 2150.02 1185.84 2150.35C1187.53 2150.67 1189.19 2149.34 1189.56 2147.37C1189.92 2145.41 1188.84 2143.55 1187.16 2143.22Z" fill="black"/>
<path fill-rule="evenodd" clip-rule="evenodd" d="M1631.18 1385.75C1657.78 1399.65 1675.33 1423.44 1675.33 1450.42C1675.33 1493.24 1631.13 1528 1576.7 1528C1522.26 1528 1478.07 1493.24 1478.07 1450.42C1478.07 1417.94 1503.49 1390.09 1539.53 1378.54C1540.53 1359.69 1555.01 1344.71 1572.7 1344.71C1579.81 1344.71 1586.39 1347.13 1591.8 1351.24C1591.79 1350.98 1591.79 1350.72 1591.79 1350.46C1591.79 1330.64 1606.68 1314.55 1625.02 1314.55C1643.35 1314.55 1658.24 1330.64 1658.24 1350.46C1658.24 1368 1646.57 1382.62 1631.18 1385.75Z" fill="black" fill-opacity="0.3"/>
<path d="M1835.15 1233.05C1813.71 1233.05 1796.33 1213.75 1796.33 1189.95C1796.33 1166.14 1813.71 1146.84 1835.15 1146.84C1856.59 1146.84 1873.98 1166.14 1873.98 1189.95C1873.98 1213.75 1856.59 1233.05 1835.15 1233.05Z" fill="white"/>
<path fill-rule="evenodd" clip-rule="evenodd" d="M1835.15 1141.01C1848.01 1140.75 1859.7 1146.55 1868.11 1155.97C1875.92 1164.72 1880.74 1176.7 1880.98 1189.95C1881.17 1203.33 1876.51 1215.54 1868.88 1224.6C1860.48 1234.58 1848.43 1240.66 1835.15 1240.72C1821.89 1240.63 1809.87 1234.53 1801.48 1224.56C1793.86 1215.51 1789.2 1203.31 1789.37 1189.95C1789.6 1176.71 1794.42 1164.73 1802.22 1155.98C1810.61 1146.56 1822.31 1140.76 1835.15 1141.01ZM1835.15 1146.84C1813.73 1146.84 1796.33 1166.16 1796.33 1189.95C1796.33 1213.74 1813.73 1233.05 1835.15 1233.05C1856.58 1233.05 1873.98 1213.74 1873.98 1189.95C1873.98 1166.16 1856.58 1146.84 1835.15 1146.84Z" fill="black"/>
<path d="M1832.19 1194.83C1829.86 1194.83 1827.97 1192.57 1827.97 1189.78C1827.97 1186.99 1829.86 1184.72 1832.19 1184.72C1834.52 1184.72 1836.41 1186.99 1836.41 1189.78C1836.41 1192.57 1834.52 1194.83 1832.19 1194.83Z" fill="black"/>
<path fill-rule="evenodd" clip-rule="evenodd" d="M1832.19 1184.07C1833.63 1184.04 1834.94 1184.75 1835.87 1185.91C1836.67 1186.92 1837.17 1188.28 1837.19 1189.78C1837.22 1191.29 1836.74 1192.67 1835.96 1193.71C1835.03 1194.94 1833.68 1195.69 1832.19 1195.69C1830.7 1195.68 1829.35 1194.94 1828.43 1193.71C1827.64 1192.67 1827.17 1191.29 1827.19 1189.78C1827.21 1188.28 1827.71 1186.92 1828.51 1185.92C1829.44 1184.75 1830.75 1184.04 1832.19 1184.07ZM1832.19 1184.72C1829.86 1184.72 1827.97 1186.99 1827.97 1189.78C1827.97 1192.57 1829.86 1194.83 1832.19 1194.83C1834.52 1194.83 1836.41 1192.57 1836.41 1189.78C1836.41 1186.99 1834.52 1184.72 1832.19 1184.72Z" fill="black"/>
<path d="M1778.69 1403.08C1842.34 1403.08 1893.94 1361.38 1893.94 1309.94C1893.94 1258.51 1842.34 1216.81 1778.69 1216.81C1715.04 1216.81 1663.44 1258.51 1663.44 1309.94C1663.44 1361.38 1715.04 1403.08 1778.69 1403.08Z" fill="#FF8184"/>
<path fill-rule="evenodd" clip-rule="evenodd" d="M1778.69 1209.32C1810.01 1209 1838.66 1218.4 1860.43 1233.88C1886.46 1252.4 1902.62 1279.68 1902.88 1309.94C1903.08 1340.39 1887.09 1368.02 1861.16 1387.03C1839.34 1403.03 1810.41 1412.82 1778.69 1412.92C1746.95 1412.85 1718 1403.09 1696.17 1387.1C1670.21 1368.08 1654.23 1340.41 1654.44 1309.94C1654.71 1279.66 1670.88 1252.38 1696.93 1233.86C1718.71 1218.38 1747.36 1209 1778.69 1209.32ZM1778.69 1216.81C1715.08 1216.81 1663.44 1258.54 1663.44 1309.94C1663.44 1361.34 1715.08 1403.08 1778.69 1403.08C1842.3 1403.08 1893.94 1361.34 1893.94 1309.94C1893.94 1258.54 1842.3 1216.81 1778.69 1216.81Z" fill="black"/>
<path fill-rule="evenodd" clip-rule="evenodd" d="M1691.31 1250.51C1630.94 1302.45 1653.8 1385.8 1724.61 1404.38C1764.06 1414.73 1827.65 1425.32 1879.45 1362.28C1763.64 1385.84 1664.94 1362.91 1691.31 1250.51Z" fill="black" fill-opacity="0.3"/>
<path d="M1774.02 1269.26C1752.58 1269.26 1735.19 1249.96 1735.19 1226.15C1735.19 1202.35 1752.58 1183.05 1774.02 1183.05C1795.46 1183.05 1812.84 1202.35 1812.84 1226.15C1812.84 1249.96 1795.46 1269.26 1774.02 1269.26Z" fill="white"/>
<path fill-rule="evenodd" clip-rule="evenodd" d="M1774.02 1177.21C1786.87 1176.96 1798.57 1182.75 1806.97 1192.17C1814.78 1200.92 1819.61 1212.9 1819.84 1226.15C1820.03 1239.53 1815.38 1251.75 1807.75 1260.8C1799.34 1270.78 1787.29 1276.86 1774.02 1276.92C1760.75 1276.83 1748.73 1270.73 1740.34 1260.76C1732.72 1251.71 1728.06 1239.52 1728.24 1226.15C1728.46 1212.91 1733.28 1200.93 1741.08 1192.19C1749.48 1182.76 1761.17 1176.96 1774.02 1177.21ZM1774.02 1183.05C1752.59 1183.05 1735.19 1202.36 1735.19 1226.15C1735.19 1249.94 1752.59 1269.26 1774.02 1269.26C1795.45 1269.26 1812.84 1249.94 1812.84 1226.15C1812.84 1202.36 1795.45 1183.05 1774.02 1183.05Z" fill="black"/>
<path d="M1771.05 1231.03C1768.72 1231.03 1766.83 1228.77 1766.83 1225.98C1766.83 1223.19 1768.72 1220.93 1771.05 1220.93C1773.38 1220.93 1775.27 1223.19 1775.27 1225.98C1775.27 1228.77 1773.38 1231.03 1771.05 1231.03Z" fill="black"/>
<path fill-rule="evenodd" clip-rule="evenodd" d="M1771.05 1220.27C1772.49 1220.24 1773.8 1220.96 1774.73 1222.12C1775.53 1223.13 1776.03 1224.48 1776.06 1225.98C1776.08 1227.49 1775.6 1228.88 1774.82 1229.92C1773.9 1231.14 1772.54 1231.89 1771.05 1231.9C1769.56 1231.89 1768.21 1231.14 1767.29 1229.91C1766.51 1228.87 1766.03 1227.49 1766.05 1225.98C1766.08 1224.49 1766.57 1223.13 1767.38 1222.12C1768.3 1220.96 1769.61 1220.24 1771.05 1220.27ZM1771.05 1220.93C1768.72 1220.93 1766.83 1223.19 1766.83 1225.98C1766.83 1228.77 1768.72 1231.03 1771.05 1231.03C1773.38 1231.03 1775.27 1228.77 1775.27 1225.98C1775.27 1223.19 1773.38 1220.93 1771.05 1220.93Z" fill="black"/>
<path fill-rule="evenodd" clip-rule="evenodd" d="M138.569 2465.94C149.598 2499.43 147.242 2538.44 128.991 2573.57C95.0622 2638.87 18.9624 2666.15 -40.8413 2634.46C-100.646 2602.77 -121.655 2524.03 -87.7261 2458.73C-66.689 2418.24 -29.4314 2392.36 10.0954 2386.1C26.0067 2356.48 60.5371 2344.05 87.5969 2358.39C98.1829 2364 106.076 2372.9 110.872 2383.43C111.069 2383.03 111.27 2382.64 111.481 2382.23C127.185 2352.01 162.105 2339.22 189.417 2353.7C216.728 2368.17 226.156 2404.45 210.452 2434.67C195.884 2462.71 164.793 2475.74 138.569 2465.94Z" fill="black" fill-opacity="0.3"/>
<path d="M209.333 2423.14C182.001 2408.66 172.571 2372.41 188.271 2342.18C203.97 2311.96 238.854 2299.2 266.186 2313.69C293.519 2328.18 302.949 2364.42 287.249 2394.65C271.55 2424.87 236.665 2437.63 209.333 2423.14Z" fill="white"/>
<path fill-rule="evenodd" clip-rule="evenodd" d="M270.033 2306.28C286.586 2314.64 297.673 2329.9 302.176 2347.54C306.357 2363.92 304.609 2382.4 296.171 2399.38C287.584 2416.49 273.6 2428.86 257.9 2435.2C240.609 2442.19 221.238 2441.77 204.276 2432.88C187.43 2423.8 176.127 2407.94 172.006 2389.61C168.266 2372.96 170.363 2354.33 179.4 2337.48C188.419 2320.83 202.466 2308.87 218.171 2303.04C235.092 2296.75 253.821 2297.28 270.033 2306.28ZM266.185 2313.69C238.872 2299.21 203.961 2311.98 188.271 2342.19C172.583 2372.39 182.019 2408.67 209.333 2423.15C236.646 2437.62 271.559 2424.85 287.247 2394.65C302.937 2364.44 293.498 2328.17 266.185 2313.69Z" fill="black"/>
<path d="M230.769 2372.62C227.799 2371.04 226.883 2366.89 228.724 2363.35C230.565 2359.81 234.464 2358.21 237.435 2359.78C240.405 2361.36 241.32 2365.51 239.48 2369.05C237.639 2372.6 233.739 2374.19 230.769 2372.62Z" fill="black"/>
<path fill-rule="evenodd" clip-rule="evenodd" d="M237.867 2358.95C239.722 2359.89 240.924 2361.68 241.339 2363.78C241.699 2365.6 241.437 2367.67 240.483 2369.58C239.513 2371.52 237.995 2372.95 236.312 2373.74C234.323 2374.68 232.104 2374.71 230.199 2373.71C228.308 2372.69 227.078 2370.83 226.712 2368.65C226.402 2366.8 226.704 2364.73 227.725 2362.82C228.745 2360.94 230.273 2359.55 231.961 2358.81C233.907 2357.96 236.05 2357.94 237.867 2358.95ZM237.434 2359.79C234.466 2358.21 230.563 2359.81 228.724 2363.35C226.884 2366.89 227.8 2371.04 230.768 2372.62C233.736 2374.19 237.64 2372.59 239.479 2369.05C241.318 2365.51 240.402 2361.36 237.434 2359.79Z" fill="black"/>
<path d="M35.9279 2594.68C95.7735 2626.4 171.789 2599.17 205.713 2533.86C239.637 2468.55 218.624 2389.89 158.778 2358.17C98.9324 2326.45 22.917 2353.68 -11.0071 2418.99C-44.9312 2484.3 -23.9177 2562.95 35.9279 2594.68Z" fill="#F7F189"/>
<path fill-rule="evenodd" clip-rule="evenodd" d="M162.843 2350.34C196.118 2367.57 218.473 2398.31 227.498 2433.69C236.009 2467.06 232.512 2504.59 215.089 2538.83C197.513 2573.21 169.036 2597.89 137.022 2610.29C102.69 2623.58 64.3036 2622.7 30.5757 2604.98C-3.06175 2587.04 -25.6409 2555.64 -34.333 2519.53C-42.4452 2485.87 -38.4829 2448.14 -20.4457 2413.99C-2.43838 2380.05 26.1643 2355.81 58.1992 2343.93C92.1546 2331.33 129.895 2332.46 162.843 2350.34ZM158.775 2358.17C98.9703 2326.47 22.895 2353.72 -11.0088 2418.99C-44.9079 2484.25 -23.8801 2562.98 35.9247 2594.68C95.7294 2626.38 171.809 2599.12 205.709 2533.86C239.612 2468.59 218.58 2389.87 158.775 2358.17Z" fill="black"/>
<path fill-rule="evenodd" clip-rule="evenodd" d="M0.823816 2394.37C-59.3263 2446.09 -26.2474 2582.8 44.4614 2601.49C83.8638 2611.89 137.732 2623.79 188.519 2560.49C49.6266 2618.87 -22.9814 2541.26 0.823816 2394.37Z" fill="black" fill-opacity="0.3"/>
<path d="M107.599 2428.05C80.2666 2413.56 70.8365 2377.31 86.5361 2347.09C102.236 2316.86 137.12 2304.1 164.452 2318.59C191.784 2333.08 201.214 2369.33 185.515 2399.55C169.815 2429.78 134.931 2442.54 107.599 2428.05Z" fill="white"/>
<path fill-rule="evenodd" clip-rule="evenodd" d="M168.298 2311.19C184.851 2319.54 195.938 2334.8 200.442 2352.45C204.623 2368.83 202.875 2387.3 194.437 2404.28C185.85 2421.4 171.866 2433.77 156.166 2440.11C138.875 2447.09 119.504 2446.67 102.541 2437.79C85.6952 2428.71 74.3929 2412.84 70.2717 2394.51C66.5315 2377.87 68.6286 2359.24 77.6655 2342.39C86.6849 2325.73 100.731 2313.78 116.436 2307.94C133.358 2301.65 152.086 2302.18 168.298 2311.19ZM164.451 2318.59C137.138 2304.12 102.227 2316.88 86.5366 2347.09C70.8487 2377.29 80.2851 2413.57 107.598 2428.05C134.911 2442.53 169.825 2429.76 185.513 2399.55C201.203 2369.35 191.764 2333.07 164.451 2318.59Z" fill="black"/>
<path d="M129.034 2377.52C126.064 2375.95 125.149 2371.8 126.989 2368.25C128.83 2364.71 132.73 2363.11 135.7 2364.69C138.67 2366.26 139.586 2370.41 137.745 2373.96C135.905 2377.5 132.005 2379.1 129.034 2377.52Z" fill="black"/>
<path fill-rule="evenodd" clip-rule="evenodd" d="M136.132 2363.86C137.988 2364.79 139.19 2366.58 139.604 2368.69C139.964 2370.51 139.703 2372.57 138.749 2374.49C137.778 2376.42 136.261 2377.86 134.577 2378.65C132.589 2379.58 130.37 2379.62 128.465 2378.62C126.573 2377.6 125.344 2375.74 124.977 2373.55C124.667 2371.7 124.97 2369.63 125.991 2367.73C127.011 2365.84 128.539 2364.45 130.227 2363.72C132.173 2362.87 134.315 2362.85 136.132 2363.86ZM135.7 2364.69C132.732 2363.12 128.829 2364.71 126.989 2368.26C125.15 2371.8 126.066 2375.95 129.034 2377.52C132.002 2379.1 135.905 2377.5 137.745 2373.96C139.584 2370.41 138.668 2366.26 135.7 2364.69Z" fill="black"/>
</g>
<defs>
<clipPath id="clip0_1118_21">
<rect width="2142" height="2700" fill="white"/>
</clipPath>
</defs>
</svg>
