<svg width="2160" height="2700" viewBox="0 0 2160 2700" fill="none" xmlns="http://www.w3.org/2000/svg">
<g clip-path="url(#clip0_358_30)">
<path fill-rule="evenodd" clip-rule="evenodd" d="M1216.44 722.546L1907.05 299.084C1907.05 299.084 2608.98 1128.76 2630.52 1363.59C2647.86 1552.66 2298.11 1744.41 2104.8 1660.9C1866.5 1557.96 1216.44 722.546 1216.44 722.546Z" fill="#808080"/>
<path fill-rule="evenodd" clip-rule="evenodd" d="M1214.09 718.722L1902.89 292.294C1906.24 290.238 1910.6 290.937 1913.14 293.939C1913.14 293.939 2251.08 690.431 2466.16 1012.95C2563.12 1158.34 2634.67 1289.26 2641.47 1362.59C2645.65 1408.63 2629.58 1454.92 2599.31 1497.63C2562.56 1549.49 2504.85 1596.17 2438.93 1630.61C2328.92 1688.09 2196.25 1711.21 2100.97 1669.75C2028.82 1638.3 1919.11 1540.33 1801.36 1418.13C1529.46 1135.96 1212.89 725.304 1212.89 725.304C1212.11 724.296 1211.79 723.003 1212.02 721.745C1212.25 720.49 1213 719.391 1214.09 718.722ZM1223.09 723.753C1256.7 766.325 1555.5 1143 1813.32 1406.52C1929.81 1525.58 2037.6 1621.65 2108.62 1652.05C2199.28 1690.94 2324.94 1667.01 2429.14 1611.98C2491.75 1578.92 2546.67 1534.51 2581.52 1485.06C2608.45 1446.85 2623.38 1405.7 2619.58 1364.6C2613.1 1293.23 2542.23 1166.53 2448.44 1024.71C2249.42 723.766 1945.21 357.213 1905.34 309.445L1223.09 723.753Z" fill="black"/>
<path fill-rule="evenodd" clip-rule="evenodd" d="M1672.23 973.085C1839.21 976.306 1722.57 1088.68 1796.02 1106.49C1894.34 1130.34 2032.76 1066.58 2122.99 951.471C2122.99 951.471 2013.77 1072.65 2057.45 1171.3C2100.2 1267.83 2150.78 1321.22 2201.47 1365.48C2291.42 1444.02 2270.72 1501.97 2270.72 1501.97L2213.33 1811.15L1784.83 1735.88L2058.57 1707.39L1880.52 1525.3L1821.29 1520.78L1608.45 1460.21C1501.32 1334.24 1313.29 1147.36 1194.91 1066.72C1267.79 1016.25 1315.88 1000.9 1417.81 999.592L1672.23 973.085Z" fill="black" fill-opacity="0.4"/>
<path d="M1663.48 844.632C1671.9 762.634 1743.93 702.857 1824.37 711.117C1904.8 719.376 1963.18 792.545 1954.76 874.544C1946.34 956.543 1874.31 1016.32 1793.87 1008.06C1713.44 999.8 1655.06 926.631 1663.48 844.632Z" fill="#808080"/>
<path fill-rule="evenodd" clip-rule="evenodd" d="M1959.5 875.029C1956.02 917.452 1935.93 954.449 1906.44 980.15C1876.1 1006.6 1835.75 1020.89 1792.93 1017.29C1749.61 1013.45 1711.96 991.883 1686.39 960.177C1661.01 928.714 1647.69 887.234 1651.9 843.443C1656.67 799.706 1678.13 761.793 1709.38 736.14C1740.87 710.289 1782.12 696.819 1825.32 701.866C1867.98 707.035 1904.6 729.233 1928.93 761.306C1952.58 792.468 1964.72 832.782 1959.5 875.029ZM1950.03 874.057C1953.23 834.864 1940.63 798.109 1917.67 770.199C1894.85 742.442 1861.64 723.587 1823.42 720.367C1785.73 717.026 1750.33 729.834 1723.4 752.87C1696.95 775.486 1678.69 808.13 1675.06 845.821C1670.95 883.466 1682.19 919.145 1703.48 946.667C1725.18 974.703 1757.24 994.44 1794.82 998.828C1832.91 1003.45 1869.27 991.734 1897.26 969.192C1925.41 946.524 1945.21 913.087 1950.03 874.057Z" fill="black"/>
<path d="M1622.38 784.703C1630.8 702.704 1702.83 642.927 1783.27 651.187C1863.7 659.447 1922.08 732.616 1913.66 814.614C1905.24 896.613 1833.21 956.39 1752.77 948.13C1672.34 939.87 1613.96 866.701 1622.38 784.703Z" fill="#808080"/>
<path fill-rule="evenodd" clip-rule="evenodd" d="M1918.4 815.102C1914.92 857.525 1894.83 894.521 1865.34 920.222C1835 946.671 1794.65 960.966 1751.83 957.362C1708.51 953.522 1670.86 931.955 1645.29 900.249C1619.91 868.786 1606.59 827.306 1610.8 783.515C1615.57 739.778 1637.03 701.865 1668.28 676.212C1699.77 650.361 1741.02 636.891 1784.22 641.938C1826.88 647.107 1863.5 669.305 1887.83 701.379C1911.48 732.54 1923.62 772.855 1918.4 815.102ZM1908.93 814.13C1912.13 774.936 1899.53 738.181 1876.57 710.271C1853.75 682.514 1820.54 663.659 1782.32 660.439C1744.63 657.098 1709.23 669.906 1682.3 692.942C1655.86 715.558 1637.59 748.202 1633.96 785.893C1629.85 823.538 1641.09 859.217 1662.38 886.739C1684.08 914.775 1716.14 934.512 1753.72 938.9C1791.81 943.52 1828.17 931.806 1856.16 909.264C1884.31 886.597 1904.11 853.159 1908.93 814.13Z" fill="black"/>
<path d="M1699.02 787.889C1703.43 744.966 1739.33 713.489 1779.2 717.584C1819.07 721.678 1847.82 759.793 1843.41 802.716C1839.01 845.64 1803.11 877.116 1763.24 873.022C1723.36 868.927 1694.61 830.812 1699.02 787.889Z" fill="black"/>
<path fill-rule="evenodd" clip-rule="evenodd" d="M1848.15 803.202C1846.74 825.785 1836.93 845.641 1822.46 859.852C1806.67 875.356 1785.16 883.771 1762.29 882.251C1738.9 880.493 1718.56 868.34 1704.89 850.293C1691.92 833.159 1685.29 810.573 1687.44 786.699C1690.18 762.883 1701.26 742.11 1717.44 727.965C1734.49 713.065 1756.88 705.3 1780.15 708.332C1802.86 711.492 1822.22 724.102 1834.53 742.498C1845.81 759.36 1851.37 780.801 1848.15 803.202ZM1838.67 802.229C1839.88 782.743 1833.74 764.684 1822.92 750.927C1812.1 737.175 1796.33 728.037 1778.25 726.835C1760.71 725.515 1744.45 732.448 1732.12 744.112C1720.33 755.279 1712.23 771.029 1710.6 789.077C1708.52 807.081 1713.24 824.153 1722.53 837.489C1732.23 851.421 1746.74 861.516 1764.18 863.79C1782.14 866.29 1799.45 860.548 1812.83 849.276C1826.22 838 1835.9 821.557 1838.67 802.229Z" fill="black"/>
<path fill-rule="evenodd" clip-rule="evenodd" d="M1808.69 1327.97C1780.48 1329.56 1753.92 1320.96 1734.99 1306.57C1719.16 1294.54 1708.88 1278.27 1706.33 1260.38C1703.77 1241.56 1710.34 1223.88 1723.36 1209.89C1738.98 1193.13 1764.37 1182 1794.1 1181.06C1818.16 1180.9 1840.89 1187.44 1858.62 1198.73C1880.23 1212.49 1894.55 1232.87 1896.4 1255.24C1897.78 1273.72 1890.83 1290.7 1877.39 1303.61C1861.61 1318.76 1837.08 1328.52 1808.69 1327.97ZM1808.52 1318.89C1828.85 1317.73 1846.55 1310.97 1859.41 1300.79C1873.5 1289.63 1881.38 1274.06 1878.95 1257.14C1876.68 1240.38 1864.48 1226.19 1847.81 1216.44C1832.92 1207.73 1814.25 1202.67 1794.51 1203.27C1775.31 1203.41 1758.29 1208.82 1745.66 1217.75C1731.53 1227.73 1722.78 1242.05 1724.15 1258.44C1725.44 1275.73 1736.76 1291.22 1753.28 1302.14C1768.42 1312.15 1787.75 1318.49 1808.52 1318.89Z" fill="black"/>
<path fill-rule="evenodd" clip-rule="evenodd" d="M1974.97 1501.87C1954.55 1507.88 1933.57 1507.46 1915.55 1502.15C1893.26 1495.6 1875.8 1481.22 1868.08 1462.32C1860.03 1442.05 1864.69 1420.45 1878.81 1402.89C1890.02 1388.94 1907.55 1377.78 1929.15 1372.08C1950.8 1366.96 1972.76 1368.21 1991.25 1374.86C2013.54 1382.87 2030.79 1398.29 2037.4 1418.03C2042.74 1434.44 2040.35 1451.18 2031.23 1465.6C2020.48 1482.61 2000.63 1496.55 1974.97 1501.87ZM1972.78 1493.14C1990.56 1487.9 2004.72 1478.19 2013.8 1466.44C2023.62 1453.72 2026.98 1438.41 2021.09 1424.01C2015.37 1409.64 2001.48 1399.61 1984.68 1394.34C1969.55 1389.58 1951.86 1388.86 1934.49 1393.45C1917.61 1397.45 1903.81 1405.68 1894.68 1416.17C1884.57 1427.76 1880.06 1442.08 1884.8 1456.19C1889.72 1471.28 1903.02 1482.78 1919.91 1489.2C1935.58 1495.16 1954.19 1496.99 1972.78 1493.14Z" fill="black"/>
<path fill-rule="evenodd" clip-rule="evenodd" d="M2104.34 1641.33C2081.66 1644.68 2059.7 1640.19 2043.36 1630.75C2028.99 1622.45 2019.19 1610.11 2015.88 1595.91C2012.49 1580.83 2017.1 1565.94 2027.62 1553.68C2039.49 1539.83 2059.42 1529.62 2083.37 1526.76C2107.17 1524.64 2129.93 1530.26 2146.31 1541.13C2160.38 1550.48 2169.91 1563.46 2172.3 1578.12C2174.59 1592.98 2169.65 1607.24 2158.7 1618.5C2146.57 1630.96 2127.29 1639.91 2104.34 1641.33ZM2103.49 1633.16C2119.65 1630.76 2133.39 1624.38 2143.2 1615.8C2154.05 1606.31 2159.69 1593.88 2156.7 1581.14C2153.87 1568.51 2142.96 1558.79 2128.83 1552.69C2116.35 1547.29 2101.17 1544.89 2085.47 1546.74C2070.19 1548.14 2056.9 1553.29 2047.21 1560.76C2036.29 1569.18 2029.76 1580.48 2031.79 1592.82C2033.83 1605.99 2044.06 1617.01 2058.19 1624.18C2070.99 1630.68 2086.83 1634.19 2103.49 1633.16Z" fill="black"/>
<path d="M1798.36 1194.03C1840.56 1193.24 1877.29 1215.66 1880.39 1244.1C1883.49 1272.54 1851.78 1296.23 1809.58 1297.01C1767.37 1297.8 1730.65 1275.38 1727.55 1246.94C1724.45 1218.5 1756.15 1194.81 1798.36 1194.03Z" fill="black"/>
<path d="M1936.33 1382.96C1974.74 1373.35 2012.97 1384.94 2021.73 1408.85C2030.5 1432.76 2006.47 1459.93 1968.07 1469.54C1929.67 1479.15 1891.43 1467.55 1882.67 1443.65C1873.9 1419.74 1897.93 1392.57 1936.33 1382.96Z" fill="black"/>
<path fill-rule="evenodd" clip-rule="evenodd" d="M1969.07 1473.55C1947.57 1479.95 1925.86 1479.67 1908.73 1474.38C1892.29 1469.3 1880.24 1459.26 1874.98 1446.46C1869.4 1432.58 1872.64 1417.43 1882.93 1404.05C1893.27 1390.6 1911.31 1379.14 1933.87 1373.13C1956.55 1367.84 1979.12 1369.12 1996.51 1375.76C2012.88 1382.01 2024.8 1392.72 2029.24 1406.1C2033.68 1419.9 2030.12 1434.42 2019.32 1446.71C2008.62 1458.91 1990.97 1469.1 1969.07 1473.55ZM1967.06 1465.52C1982.38 1460.94 1995.02 1453.43 2003.84 1444.63C2013.99 1434.49 2018.74 1422.55 2014.23 1411.6C2009.83 1400.65 1997.33 1394.04 1982.11 1391.02C1969.11 1388.43 1953.95 1388.77 1938.79 1392.79C1924.08 1396.26 1911.67 1402.56 1902.82 1410.33C1892.56 1419.33 1886.79 1430.14 1890.36 1440.83C1894.08 1452.39 1906.17 1460.47 1921.6 1464.58C1935.05 1468.16 1950.93 1468.8 1967.06 1465.52Z" fill="black"/>
<path d="M2089.79 1537.56C2120.67 1534.33 2149.08 1549.08 2153.24 1570.52C2157.4 1591.96 2135.73 1611.96 2104.85 1615.19C2073.96 1618.43 2045.55 1603.67 2041.39 1582.23C2037.23 1560.8 2058.9 1540.79 2089.79 1537.56Z" fill="black"/>
<path fill-rule="evenodd" clip-rule="evenodd" d="M2105.18 1618.4C2087.32 1621.04 2070.05 1617.71 2057.17 1610.59C2045.59 1604.2 2037.73 1594.56 2035.14 1583.44C2032.48 1571.63 2036.32 1559.92 2044.95 1550.32C2054.44 1539.76 2070.15 1531.96 2088.96 1529.71C2107.69 1528.04 2125.57 1532.25 2138.48 1540.48C2149.84 1547.72 2157.49 1557.86 2159.37 1569.33C2161.17 1580.97 2157.09 1592.18 2148.13 1600.97C2138.45 1610.46 2123.23 1617.28 2105.18 1618.4ZM2104.51 1611.98C2117.26 1610.09 2128.15 1605.17 2135.99 1598.59C2144.77 1591.23 2149.43 1581.59 2147.12 1571.71C2144.92 1561.91 2136.19 1554.45 2124.91 1549.8C2115.03 1545.73 2103.03 1543.94 2090.61 1545.41C2078.52 1546.52 2067.98 1550.48 2060.22 1556.21C2051.41 1562.72 2046.06 1571.45 2047.64 1581.02C2049.22 1591.24 2057.43 1599.73 2068.73 1605.23C2078.86 1610.16 2091.35 1612.8 2104.51 1611.98Z" fill="black"/>
<path fill-rule="evenodd" clip-rule="evenodd" d="M2143.66 1247.08C2125.38 1260.84 2103.72 1268.02 2083.07 1268.86C2058.7 1269.86 2035.91 1261.69 2020.64 1245.58C2004.54 1228.3 2000.15 1205.33 2006.26 1182.94C2011.4 1164.15 2024.33 1145.84 2043.95 1131.86C2063.72 1118.45 2086.63 1111.69 2108.22 1111.97C2133.03 1112.3 2155.94 1121.55 2170.48 1138.83C2185.12 1156.51 2188.68 1178.88 2181.57 1200.29C2175.74 1217.83 2162.92 1234.74 2143.66 1247.08ZM2138.55 1239.74C2154.54 1227.69 2164.79 1212.23 2168.78 1196.54C2173.01 1179.87 2169.64 1162.95 2157.59 1150.25C2145.68 1137.49 2127.5 1131.92 2108.34 1132.38C2090.78 1132.81 2072.27 1138.52 2056.44 1149.81C2040.93 1160.34 2030.52 1174.25 2026 1188.72C2021.07 1204.5 2023.05 1220.96 2033.89 1233.83C2045.28 1247.57 2063.39 1254.69 2082.99 1255.27C2101.5 1255.82 2121.3 1250.81 2138.55 1239.74Z" fill="black"/>
<path fill-rule="evenodd" clip-rule="evenodd" d="M2275.89 1422.08C2261.31 1437.28 2242.55 1446.8 2223.73 1450.32C2201.82 1454.43 2179.94 1449.98 2163.58 1437.38C2146.28 1423.8 2138.67 1403.49 2140.57 1382.28C2142.2 1364.11 2151.22 1345.28 2167.15 1329.6C2183.27 1314.5 2203.36 1305.17 2223.29 1302.65C2245.83 1299.79 2267.99 1305.27 2283.8 1319.16C2299.7 1333.38 2306.41 1353.24 2303.35 1373.68C2300.81 1390.71 2291.7 1408.11 2275.89 1422.08ZM2269.68 1415.62C2282.25 1402.49 2289.03 1387.02 2290.06 1372.22C2291.14 1356.79 2285.43 1342.19 2272.77 1332.45C2260.23 1322.63 2243.23 1320.03 2226.28 1322.89C2210.57 1325.53 2194.81 1333.11 2182.34 1345.41C2170.02 1356.94 2162.83 1370.87 2161.06 1384.53C2159.15 1399.23 2163.39 1413.63 2174.91 1423.72C2187.08 1434.6 2204.22 1438.74 2221.74 1436.85C2238.57 1435.03 2255.74 1427.95 2269.68 1415.62Z" fill="black"/>
<path d="M2053.17 1144.2C2087.74 1120.14 2131.28 1118.14 2150.41 1139.72C2169.54 1161.31 2157.02 1198.3 2122.45 1222.36C2087.88 1246.41 2044.35 1248.41 2025.22 1226.83C2006.09 1205.25 2018.6 1168.25 2053.17 1144.2Z" fill="black"/>
<path d="M2180.15 1340.95C2208.01 1314.18 2246.71 1305.85 2266.57 1322.33C2286.44 1338.82 2279.96 1373.88 2252.1 1400.65C2224.24 1427.41 2185.54 1435.75 2165.67 1419.26C2145.8 1402.77 2152.28 1367.71 2180.15 1340.95Z" fill="black"/>
<path fill-rule="evenodd" clip-rule="evenodd" d="M1731.6 1096.57L1537.75 1174.51L1198.37 681.444L1894.55 258.006L2262.66 692.372L2083.84 858.214L1800.89 648.345C1697.4 634.163 1638.35 677.608 1615.03 767.414L1731.6 1096.57Z" fill="#00A8E4"/>
<path fill-rule="evenodd" clip-rule="evenodd" d="M1733.38 1100.98L1539.97 1180.06C1537.38 1181.1 1534.41 1180.2 1532.82 1177.9L1190.85 686.623C1189.43 684.554 1188.92 681.989 1189.44 679.532C1189.97 677.075 1191.48 674.944 1193.63 673.638C1193.63 673.638 1416.87 536.447 1610.38 418.003C1758.11 327.579 1888.54 248.117 1888.54 248.117C1893.4 245.157 1899.7 246.177 1903.39 250.525L2270.81 685.471C2274.49 689.826 2274.11 696.308 2269.92 700.194L2090.44 865.339C2087.02 868.522 2081.8 868.808 2078.04 866.019C2078.04 866.019 1820.71 673.284 1797.7 656.066C1750.97 649.72 1713.71 655.591 1685.12 673.063C1654.45 691.809 1633.95 723.753 1622.08 767.161L1736.08 1094.98C1736.94 1097.38 1735.74 1100.03 1733.38 1100.98ZM1725.56 1093.84L1608.67 769.667C1608.22 768.396 1608.16 767.021 1608.5 765.718C1620.84 717.095 1643.55 681.59 1677.32 660.445C1708.72 640.781 1749.91 633.487 1801.98 640.334C1803.33 640.52 1804.61 641.039 1805.71 641.85L2083.09 845.604L2247.94 691.524L1892.12 273.025C1860.98 291.929 1747.77 360.618 1621.79 436.764C1449.57 540.85 1253.5 658.923 1211.36 684.288L1540 1167.2L1725.56 1093.84Z" fill="black"/>
<path fill-rule="evenodd" clip-rule="evenodd" d="M1514.94 1145.14L1690.8 1060.84L1615.73 774.803C1636.62 673.317 1706.57 636.319 1809.93 643.241L2065.2 813.912L2251.03 678.664L2288.83 705.497L2090.46 855.836L1804.27 653.314C1699.82 644.353 1625.29 700.233 1621.05 794.547L1736.38 1095.81L1547.37 1184.02L1514.94 1145.14Z" fill="#00A8E4"/>
<path fill-rule="evenodd" clip-rule="evenodd" d="M1614.71 802.039L1612.99 797.633C1612.57 796.526 1612.38 795.344 1612.43 794.16C1612.43 793.99 1612.44 793.82 1612.45 793.652L1607.93 776.852C1607.61 775.65 1607.58 774.392 1607.82 773.176C1618.67 718.814 1643.28 682.095 1678.83 659.808C1712.94 638.419 1757.49 630.398 1810.57 633.664C1812.25 633.775 1813.87 634.328 1815.27 635.259L2064.89 800.558L2244.25 669.342C2248.25 666.428 2253.67 666.4 2257.71 669.265L2295.54 696.053C2298.55 698.188 2300.36 701.631 2300.42 705.315C2300.47 709.006 2298.77 712.502 2295.83 714.725L2097.35 864.935C2093.38 867.942 2087.92 868.031 2083.86 865.155C2083.86 865.155 1827.19 682.006 1800.68 663.084C1754.38 659.382 1714.31 669.023 1684.56 689.879C1652.4 712.423 1632.51 748.019 1629.77 793.213L1742.51 1093.47C1743.74 1096.68 1742.28 1100.31 1739.15 1101.77L1549.54 1188.67C1547.43 1189.65 1544.92 1189.09 1543.43 1187.31L1511.28 1148.18C1510.35 1147.06 1509.98 1145.56 1510.29 1144.12C1510.6 1142.69 1511.56 1141.48 1512.89 1140.85L1683.55 1057.54L1614.71 802.039ZM2066.15 824.834L2090.19 841.705L2269.28 705.796L2251.09 692.853L2071.65 822.777C2070 823.978 2068.09 824.665 2066.15 824.834ZM1661.96 923.141L1696.74 1059.28C1697.49 1062.12 1696.11 1065.1 1693.46 1066.37L1522.58 1146.8L1548.73 1177.7L1728.04 1092.51L1661.96 923.141Z" fill="black"/>
<path d="M1869.38 712.884C1797.49 667.827 1707.09 689.59 1667.47 761.492C1627.84 833.394 1653.99 928.208 1725.88 973.265C1797.76 1018.32 1888.16 996.559 1927.79 924.657C1967.42 852.755 1941.27 757.941 1869.38 712.884Z" fill="#808080"/>
<path fill-rule="evenodd" clip-rule="evenodd" d="M1723.22 977.497C1685.82 955.15 1659.88 919.785 1647.93 880.682C1635.52 840.071 1638.45 795.487 1658.85 756.747C1679.87 717.325 1715.17 691.528 1754.97 681.888C1794 672.445 1837.36 678.731 1875.87 702.533C1913.81 726.671 1939.93 763.703 1951.03 804.415C1962.3 845.827 1958.18 890.865 1936.25 929.325C1914.26 967.493 1878.9 992.041 1839.38 1000.35C1801.44 1008.32 1759.76 1001.49 1723.22 977.497ZM1728.53 969.031C1763.01 989.64 1801.47 994.534 1836.02 985.814C1870.62 977.078 1901.18 954.44 1919.32 919.995C1937.48 885.888 1939.67 846.576 1929.07 810.647C1918.72 775.6 1896.03 743.696 1862.89 723.236C1830.34 702.544 1793.55 696.883 1760.14 704.251C1725.86 711.807 1695.03 732.953 1676.07 766.233C1656.55 800.141 1652.87 839.858 1662.49 876.553C1672.1 913.194 1694.78 946.869 1728.53 969.031Z" fill="black"/>
<path d="M1778.36 651.318C1699.81 638.556 1625.8 691.805 1613.05 770.251C1600.31 848.698 1653.66 922.637 1732.21 935.399C1810.76 948.161 1884.77 894.912 1897.52 816.465C1910.26 738.018 1856.91 664.079 1778.36 651.318Z" fill="#808080"/>
<path fill-rule="evenodd" clip-rule="evenodd" d="M1731.46 939.98C1690.5 934.195 1655.83 912.22 1632.78 881.571C1609.36 850.446 1598.13 810.331 1604.1 768.796C1610.32 726.796 1633.11 691.26 1664.87 667.936C1696.84 644.462 1737.91 633.517 1780.18 640.112C1822.36 647.244 1857.85 670.629 1880.74 703.013C1903.48 735.2 1913.84 776.113 1906.45 817.915C1898.96 859.195 1875.61 893.687 1843.55 915.799C1811.99 937.575 1772.15 947.451 1731.46 939.98ZM1732.95 930.815C1770.74 936.159 1807.1 925.688 1835.41 904.48C1863.3 883.595 1883.25 852.158 1888.58 815.013C1894.01 778.396 1883.9 743.113 1863.51 715.458C1843.3 688.061 1812.82 668.175 1776.54 662.523C1740.34 656.407 1705.13 665.629 1677.3 685.214C1649.2 704.99 1628.45 735.261 1622.01 771.705C1615.31 808.622 1624.29 844.751 1644.12 873.387C1664.26 902.467 1695.42 923.916 1732.95 930.815Z" fill="black"/>
<path d="M1761.63 724.843C1722.51 718.487 1685.67 744.859 1679.36 783.746C1673.04 822.633 1699.63 859.31 1738.75 865.666C1777.88 872.021 1814.71 845.65 1821.03 806.762C1827.35 767.875 1800.75 731.199 1761.63 724.843Z" fill="black"/>
<path fill-rule="evenodd" clip-rule="evenodd" d="M1738.03 870.15C1716.82 867.59 1698.78 856.53 1686.55 841.008C1673.92 824.983 1667.86 804.08 1670.59 782.323C1673.58 760.108 1685.5 741.244 1702.23 728.793C1719.1 716.243 1740.94 710.498 1763.42 713.87C1785.8 717.793 1804.69 730.164 1816.71 747.398C1828.64 764.504 1833.98 786.167 1829.78 808.184C1825.48 829.68 1813.11 847.58 1796.06 858.785C1779.56 869.638 1758.95 874.427 1738.03 870.15ZM1739.48 861.177C1757.59 863.369 1774.79 857.99 1788.13 847.673C1801.07 837.669 1810.1 822.772 1812.28 805.342C1814.56 788.426 1809.48 772.296 1799.88 759.644C1790.49 747.251 1776.48 738.299 1759.85 735.817C1743.29 732.915 1727.17 736.981 1714.34 745.755C1701.24 754.719 1691.32 768.412 1688.12 785.171C1684.68 802.397 1688.53 819.371 1697.63 832.955C1707.01 846.964 1721.62 857.519 1739.48 861.177Z" fill="black"/>
<path d="M1877.21 367.673C1818.41 330.819 1744.47 348.619 1712.06 407.431C1679.65 466.243 1701.03 543.795 1759.83 580.649C1818.63 617.503 1892.57 599.702 1924.99 540.891C1957.4 482.079 1936.01 404.526 1877.21 367.673Z" fill="#808080"/>
<path fill-rule="evenodd" clip-rule="evenodd" d="M1757.66 584.112C1727.07 565.833 1705.85 536.906 1696.08 504.922C1685.93 471.705 1688.32 435.238 1705.01 403.551C1722.2 371.306 1751.08 350.205 1783.63 342.32C1815.56 334.596 1851.02 339.739 1882.52 359.207C1913.56 378.951 1934.92 409.241 1943.99 442.541C1953.22 476.413 1949.84 513.252 1931.91 544.71C1913.92 575.929 1884.99 596.007 1852.67 602.804C1821.64 609.326 1787.55 603.734 1757.66 584.112ZM1762 577.187C1790.2 594.044 1821.67 598.047 1849.92 590.915C1878.23 583.769 1903.22 565.252 1918.06 537.079C1932.91 509.181 1934.71 477.026 1926.03 447.638C1917.57 418.972 1899.01 392.876 1871.9 376.141C1845.28 359.216 1815.19 354.586 1787.86 360.612C1759.82 366.793 1734.61 384.089 1719.1 411.31C1703.13 439.045 1700.12 471.531 1707.99 501.545C1715.85 531.515 1734.4 559.06 1762 577.187Z" fill="black"/>
<path d="M1802.76 317.316C1738.51 306.878 1677.97 350.432 1667.55 414.597C1657.13 478.762 1700.76 539.24 1765.01 549.678C1829.26 560.116 1889.8 516.562 1900.22 452.397C1910.65 388.232 1867.01 327.754 1802.76 317.316Z" fill="#808080"/>
<path fill-rule="evenodd" clip-rule="evenodd" d="M1764.4 553.426C1730.9 548.694 1702.54 530.72 1683.68 505.651C1664.53 480.193 1655.35 447.38 1660.23 413.407C1665.32 379.054 1683.95 349.987 1709.93 330.909C1736.08 311.71 1769.68 302.757 1804.25 308.151C1838.75 313.985 1867.78 333.112 1886.5 359.601C1905.1 385.928 1913.58 419.392 1907.53 453.584C1901.41 487.349 1882.31 515.561 1856.09 533.647C1830.27 551.459 1797.68 559.537 1764.4 553.426ZM1765.62 545.929C1796.53 550.301 1826.27 541.736 1849.43 524.389C1872.24 507.306 1888.55 481.593 1892.92 451.21C1897.36 421.26 1889.09 392.4 1872.41 369.78C1855.88 347.371 1830.95 331.105 1801.27 326.482C1771.66 321.479 1742.87 329.023 1720.1 345.042C1697.12 361.218 1680.14 385.977 1674.87 415.786C1669.39 445.982 1676.74 475.534 1692.96 498.957C1709.43 522.742 1734.92 540.286 1765.62 545.929Z" fill="black"/>
<path d="M1789.08 377.455C1757.08 372.256 1726.95 393.827 1721.78 425.634C1716.62 457.442 1738.37 487.441 1770.37 492.64C1802.37 497.838 1832.5 476.268 1837.66 444.46C1842.83 412.653 1821.08 382.653 1789.08 377.455Z" fill="black"/>
<path fill-rule="evenodd" clip-rule="evenodd" d="M1769.77 496.308C1752.42 494.213 1737.67 485.167 1727.67 472.471C1717.34 459.363 1712.38 442.266 1714.61 424.47C1717.06 406.299 1726.81 390.869 1740.5 380.686C1754.29 370.42 1772.15 365.721 1790.54 368.479C1808.85 371.688 1824.3 381.807 1834.13 395.904C1843.89 409.895 1848.25 427.614 1844.82 445.623C1841.3 463.205 1831.19 477.847 1817.24 487.011C1803.74 495.889 1786.89 499.806 1769.77 496.308ZM1770.96 488.968C1785.77 490.761 1799.84 486.362 1810.76 477.923C1821.34 469.74 1828.72 457.555 1830.51 443.298C1832.37 429.462 1828.22 416.268 1820.37 405.92C1812.68 395.783 1801.22 388.461 1787.62 386.43C1774.08 384.057 1760.9 387.383 1750.4 394.56C1739.68 401.892 1731.57 413.092 1728.95 426.8C1726.14 440.89 1729.29 454.774 1736.73 465.884C1744.41 477.343 1756.35 485.976 1770.96 488.968Z" fill="black"/>
<path d="M1472.44 590.182C1398.78 558.596 1319.33 596.053 1294.99 673.844C1270.65 751.635 1310.64 840.303 1384.3 871.889C1457.96 903.475 1537.4 866.018 1561.74 788.227C1586.08 710.436 1546.1 621.768 1472.44 590.182Z" fill="#808080"/>
<path fill-rule="evenodd" clip-rule="evenodd" d="M1382.34 876.444C1343.54 860.792 1313.31 829.873 1295.79 792.706C1278.21 755.431 1273.67 711.889 1285.64 670.917C1298.08 629.049 1325.56 597.785 1359.75 581.012C1394.71 563.863 1436.75 562.002 1477.22 579.041C1516.82 596.353 1547.49 628.889 1564.38 667.83C1580.93 706.01 1584.31 750.139 1570.83 791.073C1557.19 831.872 1529.42 861.957 1495.25 877.422C1461.14 892.86 1420.77 893.915 1382.34 876.444ZM1386.25 867.339C1421.85 881.696 1458.48 879.431 1488.9 864.127C1518.48 849.246 1542.01 821.843 1552.65 785.381C1563.44 748.986 1559.06 710.35 1543.74 677.045C1528.44 643.779 1502.03 615.782 1467.66 601.318C1434.06 586.653 1399.05 587.873 1369.57 601.58C1340.07 615.294 1316 641.325 1304.35 676.771C1292.19 713.178 1295.13 752.412 1309.56 786.561C1324.34 821.563 1351.02 851.315 1386.25 867.339Z" fill="black"/>
<path d="M1378.41 545.744C1304.06 547.123 1244.97 612.658 1246.44 692.12C1247.92 771.581 1309.39 834.88 1383.75 833.501C1458.11 832.122 1517.19 766.587 1515.72 687.125C1514.25 607.664 1452.77 544.365 1378.41 545.744Z" fill="#808080"/>
<path fill-rule="evenodd" clip-rule="evenodd" d="M1383.83 838.014C1344.25 839.577 1307.85 823.314 1281.23 796.097C1255.52 769.789 1239.14 733.156 1237.63 692.282C1236.28 650.936 1250.51 612.876 1274.68 584.598C1300.32 554.59 1337.16 535.73 1378.21 534.707C1419.27 534.214 1456.77 551.704 1483.5 580.732C1508.7 608.102 1524.33 645.601 1524.52 686.962C1524.52 727.863 1509.51 765.064 1484.79 792.299C1459.21 820.492 1423.44 838.093 1383.83 838.014ZM1383.67 828.992C1419.99 827.565 1452.13 810.164 1474.58 783.396C1495.86 758.008 1508.28 724.103 1506.92 687.288C1505.74 650.947 1491.08 618.477 1468.45 594.882C1445.25 570.7 1413.47 555.911 1378.62 556.781C1343.76 557.204 1312.56 573.176 1290.28 598.201C1268.53 622.62 1255.1 655.603 1255.26 691.955C1255.27 728.788 1268.94 762.202 1291.14 786.783C1314.56 812.701 1347.32 828.905 1383.67 828.992Z" fill="black"/>
<path d="M1374.68 600.625C1326.38 601.521 1288 644.096 1288.96 695.718C1289.92 747.341 1329.85 788.463 1378.15 787.567C1426.44 786.671 1464.82 744.097 1463.86 692.474C1462.91 640.852 1422.98 599.73 1374.68 600.625Z" fill="black"/>
<path fill-rule="evenodd" clip-rule="evenodd" d="M1378.25 793.352C1351.51 794.954 1326.77 784.279 1308.42 766.208C1290.55 748.616 1279.18 723.772 1277.65 695.927C1276.34 667.482 1285.92 641.183 1302.36 621.556C1320.03 600.449 1345.79 587.35 1374.42 586.458C1403.05 586.298 1429.27 598.442 1447.71 618.87C1464.86 637.884 1475.41 663.79 1475.15 692.264C1474.65 720.137 1464.21 745.376 1447.01 763.618C1429.35 782.357 1405.04 793.951 1378.25 793.352ZM1378.04 781.773C1400.61 780.435 1420.27 769.103 1433.91 752.189C1446.7 736.318 1453.82 715.308 1452.58 692.683C1451.56 670.65 1442.26 651.198 1428.39 637.025C1414.48 622.813 1395.62 614.133 1374.94 614.78C1354.26 614.91 1335.73 624.293 1322.37 639.01C1309.05 653.688 1300.47 673.462 1300.27 695.508C1299.87 718.164 1307.77 738.875 1321.13 754.261C1335.38 770.658 1355.44 781.263 1378.04 781.773Z" fill="black"/>
<path d="M1418.01 635.606C1409.25 622.753 1392.62 619.993 1380.86 629.443C1369.1 638.892 1366.68 656.972 1375.44 669.825C1384.2 682.678 1400.84 685.437 1412.59 675.988C1424.35 666.539 1426.77 648.459 1418.01 635.606Z" fill="#D1D1D1" stroke="black" stroke-width="15.9558" stroke-miterlimit="1.5" stroke-linecap="round" stroke-linejoin="round"/>
<path fill-rule="evenodd" clip-rule="evenodd" d="M906.718 2580.37L762.106 1995.2C762.106 1995.2 -40.0262 2163.19 -173.496 2295.08C-280.956 2401.27 -195.917 2683.88 -50.39 2725.37C129 2776.53 906.718 2580.37 906.718 2580.37Z" fill="#808080"/>
<path fill-rule="evenodd" clip-rule="evenodd" d="M907.592 2583.83C907.592 2583.83 530.423 2680.89 240.715 2722.57C113.268 2740.9 2.57556 2748.24 -52.491 2732.75C-127.07 2711.7 -187.026 2629.75 -214.301 2538.66C-242.077 2445.89 -235.597 2344.32 -179.641 2288.86C-138.374 2248.16 -34.3668 2203.57 90.6618 2162.14C372.371 2068.79 760.812 1989.02 760.812 1989.02C764.138 1988.32 767.418 1990.39 768.233 1993.68L910.185 2579.51C910.657 2581.42 909.498 2583.35 907.592 2583.83ZM902.378 2577.76L757.475 2002.65C707.815 2013.43 356.275 2090.8 96.0235 2178.21C-25.5699 2219.04 -127.239 2261.59 -167.351 2301.3C-219.571 2352.75 -223.748 2447.47 -198.271 2533.9C-173.001 2619.61 -118.263 2697.84 -48.288 2718C5.52897 2733.56 113.938 2726.4 238.881 2709.45C512.216 2672.37 863.86 2587.18 902.378 2577.76Z" fill="black"/>
<path fill-rule="evenodd" clip-rule="evenodd" d="M528.354 2664.94C394.302 2597.01 287.541 2484.26 308.855 2287.28C308.855 2287.28 243.737 2509.47 79.1964 2545.65C-7.21295 2564.64 -55.3938 2550.16 -55.3938 2550.16L-213.891 2553.21L2.93451 2736.98C170.805 2727.41 345.133 2705.01 528.354 2664.94Z" fill="black" fill-opacity="0.4"/>
<path fill-rule="evenodd" clip-rule="evenodd" d="M188.459 2169.86C200.812 2153.41 217.723 2143.24 234.051 2140.26C247.879 2137.72 261.29 2140.55 271.921 2148.6C285.127 2158.79 291.287 2175.51 289.964 2193.77C288.895 2208.46 282.711 2224.1 271.801 2237.83C260.546 2251.27 246.475 2260.47 232.297 2264.47C214.684 2269.43 197.067 2266.77 184.437 2255.88C174.409 2247.1 168.936 2234.53 168.632 2220.48C168.269 2203.88 174.828 2185.27 188.459 2169.86ZM193.858 2174.27C184.951 2186.14 180.235 2199.5 179.561 2211.95C178.825 2225.49 183.179 2237.89 193.026 2245.35C202.492 2252.65 215.191 2253.26 227.664 2249.2C238.843 2245.56 249.876 2238.01 258.586 2227.05C267.562 2216.31 272.732 2203.98 274.045 2192.3C275.512 2179.27 272.36 2166.96 263.312 2159.16C254.03 2151.02 241.009 2149.25 227.899 2152.7C215.835 2155.86 203.699 2163.15 193.858 2174.27Z" fill="black"/>
<path fill-rule="evenodd" clip-rule="evenodd" d="M19.3355 2226.49C30.1751 2210.63 45.6026 2200.54 60.7863 2197.17C73.6361 2194.32 86.3146 2196.52 96.645 2203.66C109.509 2212.72 116.042 2228.17 115.632 2245.32C115.3 2259.16 110.146 2274.08 100.451 2287.37C90.396 2300.39 77.5068 2309.5 64.3052 2313.68C47.9552 2318.86 31.3088 2316.9 19.0162 2307.08C9.27953 2299.17 3.6142 2287.61 2.76217 2274.48C1.75139 2258.96 7.13905 2241.32 19.3355 2226.49ZM25.0477 2230.78C17.3382 2242.06 13.6093 2254.56 13.5663 2266.06C13.5197 2278.4 18.0634 2289.51 27.3783 2295.94C36.2927 2302.22 47.8581 2302.29 59.0214 2298.2C69.1359 2294.5 78.9426 2287.22 86.4763 2276.88C94.2888 2266.76 98.5416 2255.31 99.2663 2244.57C100.068 2232.71 96.7816 2221.63 88.2641 2214.83C79.4912 2207.68 67.562 2206.43 55.7295 2209.91C44.6957 2213.17 33.7332 2220.23 25.0477 2230.78Z" fill="black"/>
<path fill-rule="evenodd" clip-rule="evenodd" d="M211.794 2174.93C233.563 2148.24 253.418 2148.82 266.859 2161.12C287.845 2180.32 279.608 2208.57 270.956 2222.97C253.217 2252.5 234.008 2274.51 211.963 2256.53C189.922 2238.56 190.025 2201.63 211.794 2174.93Z" fill="black"/>
<path fill-rule="evenodd" clip-rule="evenodd" d="M42.6224 2231.34C61.7346 2205.88 73.5816 2200.14 94.3541 2215.73C115.127 2231.32 117.255 2254.96 98.1435 2280.42C79.0313 2305.89 55.7702 2310.57 45.6287 2305.73C22.1946 2294.54 23.5105 2256.81 42.6224 2231.34Z" fill="black"/>
<path fill-rule="evenodd" clip-rule="evenodd" d="M275.932 2667.42C264.315 2654.68 257.905 2639.36 256.542 2624.63C254.905 2606.98 260.803 2590.27 273.456 2578.84C286.514 2567.25 304.343 2563.56 322.105 2567.3C337.338 2570.5 352.414 2579.43 364.251 2593.16C375.744 2607.18 381.939 2623.57 382.476 2639.12C383.108 2657.25 376.422 2674.18 362.758 2685.05C349.327 2695.55 331.862 2698.49 314.756 2693.85C300.48 2689.98 286.486 2681.04 275.932 2667.42ZM281.397 2662.82C291.601 2674.01 304.404 2680.95 317.173 2683.39C330.623 2685.97 344.02 2683.22 353.793 2674.39C363.337 2665.92 367.126 2653.24 366.145 2640.01C365.242 2627.85 360.15 2615.17 350.873 2604.41C341.869 2593.42 330.242 2586.24 318.419 2583.26C305.565 2580.03 292.424 2581.58 282.441 2589.53C272.067 2597.64 267.067 2610.36 267.289 2624.05C267.505 2637.04 272.131 2650.85 281.397 2662.82Z" fill="black"/>
<path fill-rule="evenodd" clip-rule="evenodd" d="M117.694 2701.95C107.016 2690.45 100.808 2676.77 98.9887 2663.63C96.7107 2647.16 101.654 2631.65 113.002 2621.21C124.75 2610.61 141.232 2607.53 157.818 2611.52C171.391 2614.79 184.933 2623.07 195.799 2635.51C206.328 2648.23 212.327 2662.93 213.371 2676.85C214.647 2693.86 208.961 2709.62 196.617 2719.52C186.714 2727.31 174.208 2730.38 161.247 2728.49C145.71 2726.22 129.538 2717.15 117.694 2701.95ZM123.03 2697.41C132.377 2707.48 143.855 2713.86 155.202 2716.36C167.326 2719.02 179.287 2716.9 187.762 2709.11C196.009 2701.67 198.806 2690.29 197.4 2678.39C196.122 2667.59 191.207 2656.31 182.742 2646.62C174.538 2636.71 164.182 2630.06 153.727 2627.06C142.216 2623.77 130.54 2624.7 121.876 2631.65C112.828 2638.76 108.82 2650.22 109.505 2662.61C110.143 2674.21 114.596 2686.56 123.03 2697.41Z" fill="black"/>
<path d="M59.7486 2681.1C43.9488 2654.4 13.848 2642.98 -7.48348 2655.6C-28.815 2668.22 -33.2993 2700.1 -17.4996 2726.8C-1.69982 2753.51 28.401 2764.93 49.7325 2752.31C71.064 2739.69 75.5483 2707.81 59.7486 2681.1Z" fill="black"/>
<path fill-rule="evenodd" clip-rule="evenodd" d="M-20.5693 2728.62C-29.0265 2715.71 -32.6669 2701.36 -32.0878 2688.25C-31.3657 2672.03 -23.8522 2657.88 -11.0378 2649.59C2.20542 2641.2 18.7149 2640.8 34.1209 2647.19C46.9105 2652.49 58.7826 2662.75 67.2718 2676.65C75.3682 2690.79 78.6344 2706.13 77.1207 2719.9C75.3038 2736.47 67.0033 2750.74 53.2787 2758.31C39.8447 2765.54 23.8337 2765.31 9.27484 2758.13C-2.49042 2752.34 -13.3177 2742.24 -20.5693 2728.62ZM-14.4226 2724.98C-7.08531 2736.2 2.99211 2744.17 13.6031 2748.31C24.8184 2752.7 36.682 2752.47 46.186 2746.32C55.3968 2740.48 60.0773 2730.05 60.8285 2718.47C61.5144 2707.88 58.7434 2696.22 52.2302 2685.55C46.0128 2674.71 37.1293 2666.67 27.5109 2662.17C17.0058 2657.26 5.61519 2656.34 -3.92915 2661.6C-13.8874 2666.97 -19.8017 2677.25 -21.3598 2689.19C-22.8335 2700.48 -20.7204 2713.15 -14.4226 2724.98Z" fill="black"/>
<path d="M354.816 2604.17C335.154 2580.79 306.118 2572.84 289.962 2586.43C273.806 2600.01 276.648 2629.98 296.309 2653.36C315.971 2676.75 345.007 2684.7 361.163 2671.11C377.319 2657.53 374.477 2627.56 354.816 2604.17Z" fill="black"/>
<path d="M194.471 2642.62C173.829 2618.35 144.997 2608.97 130.073 2621.67C115.149 2634.36 119.784 2664.32 140.426 2688.59C161.068 2712.86 189.9 2722.24 204.824 2709.55C219.748 2696.85 215.113 2666.89 194.471 2642.62Z" fill="black"/>
<path fill-rule="evenodd" clip-rule="evenodd" d="M137.789 2690.83C125.63 2677.82 118.322 2662.82 116.166 2649.53C113.963 2635.94 117.471 2624.11 125.689 2616.51C134.194 2608.79 146.738 2606.76 160.407 2610.3C173.982 2613.81 188.671 2623.21 200.922 2637.13C212.71 2651.46 219.641 2667.46 220.928 2681.43C222.225 2695.49 218.192 2707.54 209.198 2714.69C200.385 2721.58 188.144 2723.15 175.093 2718.8C162.318 2714.54 148.687 2704.92 137.789 2690.83ZM143.065 2686.35C151.867 2695.77 161.967 2702.48 171.704 2706.2C182.978 2710.5 193.711 2710.64 200.45 2704.4C206.984 2698.48 207.296 2688.15 204.192 2676.98C201.541 2667.46 196.081 2657.31 188.021 2648.11C178.503 2636.53 166.981 2628.53 156.167 2625.16C147.847 2622.56 140.006 2622.4 134.457 2626.82C127.228 2632.47 125.645 2643.08 128.082 2654.89C130.189 2665.09 135.186 2676.14 143.065 2686.35Z" fill="black"/>
<path fill-rule="evenodd" clip-rule="evenodd" d="M-20.9951 2729.3C-29.4523 2716.39 -33.0926 2702.04 -32.5135 2688.94C-31.7915 2672.71 -24.278 2658.56 -11.4636 2650.27C1.77964 2641.88 18.2892 2641.48 33.6951 2647.87C46.4848 2653.17 58.3569 2663.43 66.846 2677.34C74.9424 2691.47 78.2086 2706.82 76.6949 2720.58C74.8781 2737.15 66.5776 2751.42 52.8529 2758.99C39.4189 2766.22 23.4079 2766 8.84906 2758.82C-2.9162 2753.02 -13.7435 2742.93 -20.9951 2729.3ZM-14.8483 2725.67C-7.51109 2736.89 2.56633 2744.85 13.1773 2749C24.3926 2753.39 36.2562 2753.15 45.7603 2747C54.971 2741.16 59.6515 2730.73 60.4027 2719.16C61.0886 2708.56 58.3176 2696.9 51.8044 2686.24C45.587 2675.39 36.7035 2667.36 27.0851 2662.86C16.5801 2657.95 5.18941 2657.03 -4.35493 2662.29C-14.3132 2667.65 -20.2275 2677.93 -21.7856 2689.87C-23.2593 2701.17 -21.1462 2713.83 -14.8483 2725.67Z" fill="black"/>
<path fill-rule="evenodd" clip-rule="evenodd" d="M140.15 2452.43C136.325 2435.62 138.302 2419.14 144.383 2405.65C151.663 2389.49 165.034 2377.86 181.678 2374.16C198.755 2370.51 216.082 2376.1 229.69 2388.11C241.363 2398.41 250.078 2413.6 253.602 2431.39C256.685 2449.26 253.994 2466.57 246.791 2480.36C238.399 2496.45 224.235 2507.88 206.986 2510.6C190.125 2513.1 173.485 2507.04 160.889 2494.58C150.38 2484.17 142.612 2469.49 140.15 2452.43ZM147.17 2451.13C150.529 2465.9 158.244 2478.25 168.148 2486.67C178.581 2495.54 191.588 2499.76 204.445 2496.9C216.928 2494.23 226.477 2485.07 232.146 2473.08C237.357 2462.06 239.183 2448.51 236.417 2434.58C234.002 2420.58 227.43 2408.6 218.612 2400.18C209.027 2391.02 196.827 2385.9 184.224 2387.88C171.201 2389.82 160.577 2398.42 154.02 2410.44C147.8 2421.85 145.015 2436.14 147.17 2451.13Z" fill="black"/>
<path fill-rule="evenodd" clip-rule="evenodd" d="M-16.8391 2498.96C-17.9709 2483.06 -13.9053 2468.28 -6.57822 2456.78C2.32676 2442.81 16.243 2433.99 32.0111 2432.95C48.2012 2432.03 63.3062 2439.76 74.0522 2452.92C83.1523 2464.07 88.8653 2479.26 89.5439 2496.07C89.7746 2512.89 84.8905 2528.37 76.4093 2539.99C66.3944 2553.72 51.7363 2562.25 35.5252 2562.22C19.7288 2562.03 5.36341 2553.97 -4.28718 2540.52C-12.2328 2529.44 -17.1003 2514.9 -16.8391 2498.96ZM-9.70231 2498.77C-8.72025 2512.61 -3.51069 2524.87 4.16778 2533.91C12.248 2543.41 23.2727 2549.07 35.1467 2548.29C46.6155 2547.64 56.3212 2540.66 62.9939 2530.64C69.1269 2521.42 72.6049 2509.48 72.0759 2496.55C71.8965 2483.6 67.7701 2471.87 61.1455 2463.01C53.9384 2453.37 43.8727 2446.93 32.3905 2446.9C20.4964 2446.76 9.80535 2453.02 2.25334 2462.94C-4.92763 2472.38 -9.4686 2484.9 -9.70231 2498.77Z" fill="black"/>
<path d="M241.686 2433.6C235.932 2402.58 213.98 2380.64 192.654 2384.6C171.329 2388.55 158.705 2416.91 164.459 2447.93C170.213 2478.95 192.166 2500.89 213.491 2496.94C234.817 2492.98 247.44 2464.63 241.686 2433.6Z" fill="black"/>
<path d="M76.1628 2495.82C75.3617 2466.35 59.2558 2442.88 40.1892 2443.4C21.1226 2443.92 6.31553 2468.23 7.11663 2497.7C7.91772 2527.17 24.0236 2550.63 43.0902 2550.12C62.1568 2549.6 76.9639 2525.29 76.1628 2495.82Z" fill="black"/>
<path fill-rule="evenodd" clip-rule="evenodd" d="M440.144 2561.47L502.01 2700.96L938.898 2610.24L790.068 1976.29L369.792 2063.94L378.02 2249.47L629.21 2253.61C691.243 2294.29 707.23 2352.27 672.855 2417.74L440.144 2561.47Z" fill="#00A8E4"/>
<path fill-rule="evenodd" clip-rule="evenodd" d="M438.269 2558.43C438.269 2558.43 668.958 2414.15 668.959 2414.15C684.783 2383.09 688.977 2353.88 681.71 2327.62C674.53 2301.67 656.154 2278.74 627.355 2259.7L377.901 2256.73C374.061 2256.67 370.936 2253.63 370.767 2249.8L361.816 2064.29C361.641 2060.38 364.334 2056.92 368.162 2056.12L788.289 1967.77C792.911 1966.81 797.455 1969.7 798.538 1974.3C798.538 1974.3 826.357 2093.14 857.626 2227.98C898.578 2404.61 945.502 2608.69 945.502 2608.69C945.917 2610.47 945.601 2612.35 944.616 2613.89C943.632 2615.43 942.069 2616.51 940.276 2616.88L502.916 2705.31C500.865 2705.74 498.795 2704.67 497.947 2702.76L473.069 2645.79L436.882 2562.92C436.158 2561.29 436.748 2559.37 438.269 2558.43ZM444.696 2562.88L480.547 2642.47L504.592 2695.86L930.685 2605.06C921.916 2568.46 879.008 2389.25 841.572 2231.75C814.545 2118.04 790.402 2015.65 783.535 1986.52L378.046 2070.38L385 2242.35L629.313 2247.49C630.469 2247.51 631.599 2247.86 632.564 2248.49C664.764 2269.86 684.863 2295.74 692.543 2324.69C700.245 2353.73 695.52 2385.99 677.375 2420.11C676.951 2420.92 676.315 2421.6 675.537 2422.08L444.696 2562.88Z" fill="black"/>
<path fill-rule="evenodd" clip-rule="evenodd" d="M529.332 2694.03L475.26 2550.45L668.644 2421.88C710.374 2350.5 692.661 2294.79 634.469 2249.77L410.9 2231.53L383.062 2061.18L349.144 2059.42L375.761 2244.88L632.221 2258.56C692.049 2302.87 702.363 2372.18 655.567 2431.29L438.012 2558.74L491.982 2702.13L529.332 2694.03Z" fill="#00A8E4"/>
<path fill-rule="evenodd" clip-rule="evenodd" d="M662.085 2433.53C661.617 2434.13 661.144 2434.73 660.664 2435.33C660.161 2435.96 659.549 2436.5 658.854 2436.91L642.82 2446.16L480.909 2552.31L532.671 2692.78C533.038 2693.75 532.963 2694.83 532.466 2695.74C531.969 2696.65 531.102 2697.31 530.09 2697.53L492.798 2705.89C490.934 2706.3 489.055 2705.28 488.381 2703.49L433.426 2560.47C432.586 2558.24 433.477 2555.72 435.535 2554.51C435.535 2554.51 631.951 2437.77 649.881 2427.11C650.381 2426.77 650.874 2426.44 651.351 2426.12C672.591 2398.45 680.913 2368.64 676.899 2340.52C672.921 2312.62 656.761 2286.54 629.552 2266L375.307 2253.43C371.226 2253.22 367.871 2250.15 367.288 2246.1L340.532 2060.66C340.164 2058.08 340.963 2055.48 342.721 2053.56C344.473 2051.64 346.995 2050.61 349.593 2050.74L383.51 2052.54C387.578 2052.74 390.951 2055.76 391.609 2059.78L418.019 2223.87L635.058 2242.52C636.465 2242.63 637.805 2243.15 638.922 2244.02C670.222 2268.5 690.097 2296.01 696.168 2327C701.895 2356.24 695.438 2388.75 673.955 2424.98C673.479 2425.79 672.829 2426.48 672.049 2427L662.085 2433.53ZM405.823 2238.03C404.228 2236.79 403.102 2234.97 402.759 2232.86L375.662 2069.48L359.242 2068.64L383.246 2236.74L405.823 2238.03ZM495.258 2531.35L444.039 2560.92L494.446 2697.68L524.49 2691.4L470.907 2552.09C470.141 2550.06 470.881 2547.77 472.683 2546.57C472.683 2546.57 481.459 2540.66 495.258 2531.35Z" fill="black"/>
<path d="M590.914 2464.2C645.91 2427.99 663.779 2358.06 630.826 2308.02C597.873 2257.97 526.576 2246.75 471.58 2282.97C416.584 2319.18 398.715 2389.11 431.668 2439.15C464.621 2489.2 535.918 2500.41 590.914 2464.2Z" fill="#808080"/>
<path fill-rule="evenodd" clip-rule="evenodd" d="M469.572 2279.92C496.82 2261.16 528.326 2254 557.541 2257.33C589.311 2260.95 618.288 2277.09 636.787 2304.09C655.39 2331.52 659.621 2364.88 651.197 2396.14C643.306 2425.41 624.188 2452.73 595.825 2471.66C567.225 2490.23 534.574 2496.99 504.574 2492.67C472.533 2488.06 443.564 2471 425.723 2443.07C408.226 2415.41 404.853 2382.42 414.079 2351.81C422.563 2323.66 441.58 2297.54 469.572 2279.92ZM473.586 2286.01C448.264 2303.44 431.504 2328.32 424.638 2354.77C417.523 2382.19 421.227 2411.32 437.613 2435.24C453.662 2458.89 479.079 2472.69 506.788 2476.1C532.985 2479.34 561.306 2473.23 586.002 2456.74C610.904 2440.57 627.694 2416.96 635.073 2391.62C642.88 2364.82 640.251 2336.03 624.869 2311.94C609.366 2287.43 584.078 2272.53 556.082 2268.23C529.079 2264.09 499.602 2269.65 473.586 2286.01Z" fill="black"/>
<path d="M663.502 2419.76C699.744 2368.84 691.201 2300.58 644.421 2267.28C597.641 2233.98 530.338 2248.26 494.097 2299.17C457.855 2350.08 466.398 2418.35 513.178 2451.65C559.959 2484.95 627.261 2470.67 663.502 2419.76Z" fill="#808080"/>
<path fill-rule="evenodd" clip-rule="evenodd" d="M491.259 2297.15C508.996 2271.11 534.629 2253.99 561.876 2247.05C591.297 2239.56 622.574 2244.07 648.367 2261.73C674.406 2279.73 689.79 2307.83 693.278 2338.37C696.569 2367.18 689.118 2398.11 670.444 2424.7C651.432 2451.04 624.64 2468.21 596.344 2474.53C566.348 2481.23 534.766 2475.89 509.241 2457.18C484.113 2438.59 469.616 2410.52 467.06 2380.27C464.694 2352.26 472.465 2322.44 491.259 2297.15ZM496.931 2301.19C480.46 2325.37 474.261 2353.28 477.467 2379.19C480.77 2405.91 494.241 2430.46 517.116 2446.12C539.592 2461.65 566.935 2465.31 592.713 2459C617.202 2453.01 640.327 2437.94 656.561 2414.82C673.088 2391.91 679.749 2365.12 677.393 2340.02C674.91 2313.61 662.511 2288.97 640.474 2272.82C618.191 2256.34 590.595 2251.65 564.266 2257.27C538.738 2262.73 514.389 2277.71 496.931 2301.19Z" fill="black"/>
<path d="M621.355 2385.2C639.405 2359.85 635.239 2325.91 612.049 2309.4C588.859 2292.9 555.428 2300.07 537.379 2325.43C519.329 2350.78 523.496 2384.72 546.685 2401.23C569.875 2417.74 603.306 2410.56 621.355 2385.2Z" fill="black"/>
<path fill-rule="evenodd" clip-rule="evenodd" d="M534.608 2323.45C543.472 2309.87 556.511 2300.88 570.43 2297C585.809 2292.72 602.223 2294.97 615.906 2303.99C629.829 2313.34 638.101 2328.19 640.057 2344.4C641.887 2359.58 637.921 2375.92 628.137 2390.03C618.008 2403.89 603.864 2412.98 588.922 2416.22C572.969 2419.68 556.227 2416.73 542.837 2406.63C529.841 2396.66 522.35 2381.89 521.362 2365.96C520.465 2351.54 524.679 2336.28 534.608 2323.45ZM540.153 2327.4C532.484 2339.15 529.809 2352.56 531.531 2364.94C533.265 2377.4 539.751 2388.72 550.534 2395.82C560.937 2402.81 573.509 2404.12 585.318 2401.06C596.564 2398.15 607.148 2391.1 614.575 2380.38C622.269 2369.85 625.462 2357.54 624.528 2345.96C623.545 2333.81 618.196 2322.36 608.192 2314.82C597.948 2306.96 585.138 2304.54 572.804 2306.98C560.543 2309.4 548.747 2316.31 540.153 2327.4Z" fill="black"/>
<path d="M834.919 2560.21C879.903 2530.59 894.519 2473.39 867.565 2432.46C840.611 2391.52 782.294 2382.35 737.31 2411.97C692.327 2441.59 677.711 2498.79 704.665 2539.72C731.618 2580.66 789.935 2589.83 834.919 2560.21Z" fill="#808080"/>
<path fill-rule="evenodd" clip-rule="evenodd" d="M735.668 2409.48C757.956 2394.13 783.726 2388.28 807.622 2391C833.608 2393.96 857.309 2407.16 872.441 2429.25C887.657 2451.68 891.118 2478.97 884.227 2504.54C877.773 2528.48 862.135 2550.82 838.936 2566.31C815.543 2581.5 788.836 2587.03 764.298 2583.5C738.09 2579.72 714.396 2565.77 699.802 2542.92C685.491 2520.3 682.731 2493.31 690.278 2468.28C697.218 2445.25 712.772 2423.89 735.668 2409.48ZM738.951 2414.46C718.239 2428.72 704.531 2449.07 698.915 2470.7C693.095 2493.13 696.125 2516.95 709.528 2536.52C722.655 2555.87 743.445 2567.15 766.109 2569.94C787.536 2572.59 810.702 2567.6 830.902 2554.11C851.27 2540.88 865.003 2521.57 871.039 2500.84C877.424 2478.92 875.274 2455.37 862.693 2435.67C850.012 2415.62 829.328 2403.43 806.429 2399.92C784.342 2396.53 760.231 2401.07 738.951 2414.46Z" fill="black"/>
<path d="M894.293 2523.85C923.936 2482.21 916.948 2426.37 878.685 2399.13C840.421 2371.9 785.372 2383.57 755.728 2425.22C726.085 2466.86 733.072 2522.7 771.336 2549.94C809.599 2577.18 864.649 2565.5 894.293 2523.85Z" fill="#808080"/>
<path fill-rule="evenodd" clip-rule="evenodd" d="M753.407 2423.57C767.914 2402.27 788.881 2388.27 811.167 2382.59C835.232 2376.46 860.815 2380.15 881.912 2394.6C903.211 2409.32 915.794 2432.3 918.647 2457.28C921.339 2480.85 915.244 2506.15 899.97 2527.9C884.419 2549.44 862.505 2563.48 839.361 2568.65C814.826 2574.13 788.993 2569.77 768.115 2554.46C747.562 2539.26 735.704 2516.3 733.613 2491.56C731.678 2468.64 738.035 2444.25 753.407 2423.57ZM758.046 2426.87C744.574 2446.65 739.503 2469.48 742.126 2490.67C744.827 2512.53 755.846 2532.6 774.557 2545.42C792.941 2558.12 815.306 2561.11 836.391 2555.95C856.421 2551.05 875.336 2538.72 888.614 2519.81C902.133 2501.07 907.581 2479.16 905.654 2458.63C903.623 2437.03 893.481 2416.88 875.457 2403.67C857.23 2390.19 834.658 2386.35 813.122 2390.95C792.242 2395.41 772.326 2407.67 758.046 2426.87Z" fill="black"/>
<path d="M859.819 2495.59C874.582 2474.85 871.174 2447.09 852.207 2433.59C833.239 2420.09 805.894 2425.96 791.13 2446.7C776.367 2467.44 779.775 2495.2 798.743 2508.7C817.71 2522.2 845.055 2516.33 859.819 2495.59Z" fill="black"/>
<path fill-rule="evenodd" clip-rule="evenodd" d="M788.864 2445.08C796.114 2433.97 806.779 2426.62 818.164 2423.45C830.744 2419.95 844.169 2421.78 855.361 2429.16C866.749 2436.81 873.516 2448.96 875.115 2462.22C876.613 2474.64 873.368 2488 865.365 2499.54C857.08 2510.87 845.511 2518.31 833.29 2520.96C820.241 2523.79 806.547 2521.37 795.595 2513.12C784.964 2504.96 778.838 2492.88 778.03 2479.85C777.296 2468.06 780.743 2455.57 788.864 2445.08ZM793.399 2448.31C787.127 2457.92 784.939 2468.89 786.347 2479.01C787.766 2489.21 793.071 2498.46 801.89 2504.28C810.4 2509.99 820.683 2511.06 830.342 2508.56C839.54 2506.18 848.198 2500.41 854.272 2491.64C860.565 2483.03 863.177 2472.97 862.414 2463.5C861.61 2453.55 857.234 2444.19 849.052 2438.02C840.673 2431.59 830.195 2429.62 820.106 2431.61C810.078 2433.59 800.429 2439.24 793.399 2448.31Z" fill="black"/>
<path d="M762.82 2214.3C815.484 2181.36 830.797 2115.03 797.021 2066.14C763.245 2017.24 693.171 2004.31 640.507 2037.25C587.842 2070.19 572.53 2136.52 606.305 2185.41C640.081 2234.3 710.155 2247.24 762.82 2214.3Z" fill="#808080"/>
<path fill-rule="evenodd" clip-rule="evenodd" d="M638.589 2034.18C665.167 2016.76 696.429 2010.94 725.597 2015.42C756.14 2020.12 784.286 2036.25 802.868 2062.1C821.679 2088.52 826.914 2120.05 820.099 2149.36C813.473 2177.84 795.337 2204.15 767.51 2221.8C739.595 2239 707.193 2244.41 677.251 2238.87C646.524 2233.19 618.456 2216.14 600.539 2189.39C582.851 2162.73 578.454 2131.57 586.043 2102.87C593.27 2075.56 611.241 2050.5 638.589 2034.18ZM642.422 2040.31C617.889 2056.38 602.198 2080.03 596.549 2105.43C590.853 2131.04 595.554 2158.46 612.072 2181.43C628.334 2204.26 653.229 2218.2 680.087 2222.59C706.134 2226.84 734.131 2222.03 758.128 2206.8C782.128 2192 797.797 2169.68 803.962 2145.43C810.323 2120.41 806.675 2093.3 791.173 2070.17C775.473 2046.52 750.775 2031.47 723.717 2026.21C696.865 2020.98 667.724 2025.22 642.422 2040.31Z" fill="black"/>
<path d="M832.434 2174.03C866.302 2126.45 855.835 2060.88 809.055 2027.58C762.275 1994.29 696.897 2005.86 663.028 2053.44C629.16 2101.02 639.627 2166.58 686.407 2199.88C733.187 2233.18 798.566 2221.61 832.434 2174.03Z" fill="#808080"/>
<path fill-rule="evenodd" clip-rule="evenodd" d="M660.279 2051.48C677.266 2026.53 702.635 2010.76 729.857 2005.27C757.826 1999.63 787.718 2004.98 812.882 2022.21C838.27 2039.75 853.968 2066.22 858.688 2094.7C863.38 2123.02 857.095 2153.28 839.164 2178.82C820.905 2204.12 794.365 2219.96 766.075 2224.79C737.617 2229.65 707.475 2223.49 682.59 2205.25C658.079 2187.11 643.243 2160.62 639.416 2132.35C635.689 2104.84 642.273 2075.71 660.279 2051.48ZM665.779 2055.4C650.079 2078.44 645.006 2105.53 649.435 2130.79C653.839 2155.89 667.758 2179.14 690.225 2194.52C712.316 2209.79 738.64 2214.32 763.318 2209.58C787.57 2204.93 810.28 2191.21 825.708 2169.24C841.411 2147.47 846.933 2121.52 843.386 2097.08C839.782 2072.22 826.887 2048.83 805.229 2032.96C783.34 2016.77 756.825 2011.23 731.677 2015.29C706.352 2019.37 682.414 2033.02 665.779 2055.4Z" fill="black"/>
<path d="M802.341 2148.03C824.339 2117.12 817.536 2074.53 787.145 2052.9C756.755 2031.27 714.285 2038.78 692.286 2069.69C670.287 2100.59 677.091 2143.18 707.481 2164.81C737.872 2186.45 780.342 2178.93 802.341 2148.03Z" fill="black"/>
<path fill-rule="evenodd" clip-rule="evenodd" d="M688.771 2067.18C699.887 2050.13 716.846 2039.29 735.134 2035.25C754.185 2031.03 774.628 2034.54 792.044 2046.02C809.747 2057.9 820.761 2076.1 824.214 2095.75C827.665 2115.36 823.289 2136.37 810.958 2154.16C798.184 2171.63 779.763 2182.64 760.105 2185.8C740.416 2188.96 719.614 2184.51 702.594 2171.68C686.058 2158.98 676.051 2140.82 673.795 2121.44C671.63 2102.84 676.303 2083.27 688.771 2067.18ZM695.812 2072.19C686.296 2086.77 683.56 2103.73 686.624 2119.44C689.611 2134.76 698.443 2148.77 712.369 2157.95C725.818 2166.97 741.723 2169.32 756.575 2166.32C771.064 2163.39 784.575 2155.1 793.731 2141.9C803.208 2128.92 806.606 2113.44 804.626 2098.79C802.6 2083.78 795.175 2069.53 782.247 2059.78C769.025 2049.63 752.898 2045.88 737.453 2048.06C721.6 2050.31 706.472 2058.44 695.812 2072.19Z" fill="black"/>
<path d="M763.54 2099.64C775.081 2099.64 784.437 2090.31 784.437 2078.82C784.437 2067.32 775.081 2057.99 763.54 2057.99C751.999 2057.99 742.643 2067.32 742.643 2078.82C742.643 2090.31 751.999 2099.64 763.54 2099.64Z" fill="#D1D1D1" stroke="black" stroke-width="12" stroke-miterlimit="1.5" stroke-linecap="round" stroke-linejoin="round"/>
</g>
<defs>
<clipPath id="clip0_358_30">
<rect width="2160" height="2700" fill="white"/>
</clipPath>
</defs>
</svg>
