<svg width="2160" height="2700" viewBox="0 0 2160 2700" fill="none" xmlns="http://www.w3.org/2000/svg">
<g clip-path="url(#clip0_2031_31165)">
<path d="M2239.66 -81.0293H-63.5273V2817.29H2239.66V-81.0293Z" fill="#AB0307" fill-opacity="0.5"/>
<path fill-rule="evenodd" clip-rule="evenodd" d="M2242.29 -81.0293L2244.82 2817.29C2244.82 2819.69 2243.25 2821.02 2242.98 2821.24C2242.77 2821.42 2241.55 2822.45 2239.67 2822.45L-63.529 2823.3C-66.336 2823.3 -67.875 2821.47 -68.137 2821.16C-68.348 2820.9 -69.543 2819.48 -69.543 2817.29L-68.081 -81.0293C-68.081 -81.2783 -68.08 -82.6843 -67.012 -83.9523C-66.814 -84.1873 -65.65 -85.5703 -63.529 -85.5693L2239.67 -83.6573C2241.15 -83.6533 2242 -82.4193 2242.13 -81.9283C2242.21 -81.6343 2242.21 -81.3233 2242.29 -81.0293C2241.32 -80.9563 2240.49 -80.3363 2239.67 -79.7153V-81.0293H-63.529V2817.29H2239.67V-79.7153C2240.9 -79.8893 2242.13 -80.0633 2242.29 -81.0293Z" fill="#D1D1D1"/>
</g>
<defs>
<clipPath id="clip0_2031_31165">
<rect width="2160" height="2700" fill="white"/>
</clipPath>
</defs>
</svg>
